<?xml version="1.0" encoding="utf-8" ?>
<svg baseProfile="full" height="76.34552" version="1.1" width="1012.01087039" xmlns="http://www.w3.org/2000/svg" xmlns:ev="http://www.w3.org/2001/xml-events" xmlns:xlink="http://www.w3.org/1999/xlink"><defs /><polygon fill="none" points="1004.01087039,54.511919999999996 1001.02077039,54.191376 996.7192703900001,53.734323999999994 991.58787039,53.19624099999999 986.07067039,52.62827899999999 980.33377039,52.048877 974.42177039,51.46044499999999 968.42067039,50.868432 962.39517039,50.275442 956.36287039,49.680645999999996 950.3249703900001,49.083220999999995 944.2804703900001,48.483008 938.2298703900001,47.881226999999996 932.1773703900001,47.27902399999999 926.12577039,46.676511 920.0750703900001,46.07361399999999 914.02407039,45.470732999999996 907.9726703900001,44.8683 901.92137039,44.266439999999996 895.8720703900001,43.6654 889.8258703900001,43.065839999999994 883.78187039,42.46825 877.7384703900001,41.87264999999999 871.69467039,41.278969999999994 865.65047039,40.687149999999995 859.6070703900001,40.09725999999999 853.56577039,39.509739999999994 847.52627039,38.92505 841.48717039,38.34321 835.4473703900001,37.7641 829.40667039,37.187639999999995 823.36607039,36.6138 817.32677039,36.04284 811.2887703900001,35.475159999999995 805.25047039,34.91074 799.2108703900001,34.349329999999995 793.17067039,33.790839999999996 787.1302703900001,33.235339999999994 781.08967039,32.68284 775.04867039,32.133289999999995 769.00727039,31.586679999999998 762.9658703900001,31.043059999999993 756.92477039,30.502539999999996 750.88377039,29.965169999999997 744.84107039,29.430829999999997 738.79587039,28.899029999999996 732.75017039,28.369549999999993 726.70647039,27.842889999999997 720.66357039,27.319409999999998 714.61907039,26.798799999999996 708.5736703900001,26.280769999999997 702.52937039,25.76562 696.4865703900001,25.253769999999996 690.44377039,24.745199999999997 684.4000703900001,24.239729999999994 678.35597039,23.737369999999995 672.31287039,23.238319999999995 666.27217039,22.742939999999997 660.2325703900001,22.251639999999995 654.19027039,21.764129999999994 648.1452703900001,21.279689999999995 642.10317039,20.798609999999996 636.0658703900001,20.32215999999999 630.0283703900001,19.850619999999992 623.9867703900001,19.382979999999996 617.94387039,18.91883 611.90347039,18.45888999999999 605.8664703900001,18.003789999999995 599.8308703900001,17.55377999999999 593.7936703900001,17.108849999999997 587.75327039,16.668429999999994 581.71337039,16.232229999999994 575.6780703900001,15.80122 569.64537039,15.376279999999994 563.61047039,14.957029999999996 557.5740703900001,14.542940000000002 551.54027039,14.134520000000002 545.5088703900001,13.732499999999995 539.4757703900001,13.336699999999993 533.44087039,12.946570000000001 527.4073703900001,12.56237999999999 521.3766703900001,12.184859999999993 515.34687039,11.814229999999995 509.31587039,11.450269999999989 503.28257039,11.092759999999991 497.24887039,10.74152999999999 491.21957039,10.397039999999997 485.19547039,10.060529999999993 479.17077039000003,9.73245 473.14147039,9.411799999999992 467.11127039,9.09805999999999 461.08427039,8.792009999999998 455.05927039,8.494259999999997 449.03337038999996,8.204619999999998 443.00637039,7.922919999999991 436.97967038999997,7.649269999999994 430.95407039,7.383859999999991 424.92947038999995,7.126889999999996 418.90597039,6.878619999999998 412.88347038999996,6.639269999999996 406.86197039,6.409059999999997 400.84137038999995,6.188169999999992 394.82077038999995,5.976719999999993 388.79937039,5.774659999999997 382.77787039,5.581819999999993 376.75837039,5.398479999999999 370.74197038999995,5.225269999999995 364.72827039,5.062660000000001 358.71517038999997,4.91091999999999 352.70017039,4.769989999999993 346.68387039,4.639399999999995 340.67107039,4.519219999999997 334.66437039,4.410689999999995 328.66067038999995,4.314709999999991 322.6564703899999,4.231189999999998 316.65227039,4.159989999999993 310.64967039,4.1013499999999965 304.64967039,4.055569999999996 298.65267038999997,4.023099999999992 292.65857038999997,4.004429999999999 286.66727038999994,4.0 280.67897038999996,4.010249999999992 274.69397039,4.035639999999994 268.71207039,4.076649999999994 262.73317039,4.133679999999998 256.75767039000004,4.207129999999999 250.78677039,4.297569999999993 244.82117039000002,4.405759999999994 238.86087039,4.5323999999999955 232.90437039,4.678189999999994 226.95007039,4.8435599999999965 220.99997039,5.028529999999996 215.05967039,5.233789999999999 209.12967039,5.46114 203.20467039000002,5.7119499999999945 197.28287039,5.986280000000001 191.36907039000002,6.284339999999993 185.46667039000002,6.607529999999997 179.57297039,6.957369999999997 173.68687039,7.334599999999995 167.81227039,7.739849999999997 161.95257039,8.174779999999991 156.10537039,8.641369999999995 150.26917039000003,9.140789999999996 144.44817039,9.67376999999999 138.64637039,10.24214 132.86187039,10.848409999999994 127.09247038999999,11.494149999999998 121.34447038999998,12.179949999999998 115.62547038999999,12.907999999999994 109.93477039,13.681969999999993 104.26857039,14.504629999999999 98.63035039,15.37722999999999 93.02917038999999,16.301729999999992 87.47219039,17.280939999999994 81.96367038999999,18.318579999999997 76.50478039,19.419079999999994 71.09739038999999,20.586149999999996 65.75098039,21.821389999999994 60.48073039,23.126799999999996 55.29964039,24.505539999999996 50.22143039,25.960499999999996 45.268420389999996,27.491429999999994 40.47323039,29.096439999999994 35.87589039,30.769619999999996 31.521770390000004,32.502649999999996 27.45599039,34.28135999999999 23.728340390000003,36.081779999999995 20.38731039,37.86785 17.46636039,39.600719999999995 14.96833039,41.24634999999999 12.868425389999999,42.781949999999995 11.12198339,44.19922 9.676339389999999,45.50092899999999 8.480754390000001,46.69678499999999 7.49093939,47.79840599999999 6.670925390000001,48.817299 5.99275339,49.764807 5.4347623899999995,50.650785 4.98072259,51.483312 4.61907769,52.26996 4.34234469,53.01685 4.14666309,53.726727 4.03133202,54.4031362 4.0,55.05597649999999 4.06638736,55.7020571 4.26711229,56.33305299999999 4.65557139,56.90960199999999 5.21421439,57.437068 5.87912139,57.944405999999994 6.63794739,58.443042 7.513265390000001,58.939977 8.53111039,59.44320999999999 9.71819439,59.961850999999996 11.10870439,60.503395 12.75427139,61.07163499999999 14.725410389999999,61.671786999999995 17.10894039,62.307021999999996 19.99310039,62.97488799999999 23.438540390000004,63.661877999999994 27.44859039,64.343367 31.95393039,64.989092 36.854230390000005,65.57777999999999 42.03503039,66.10011 47.40507039,66.55172999999999 52.908710389999996,66.93566999999999 58.517770389999995,67.25827 64.21081039,67.52718999999999 69.96795039,67.7492 75.76813039,67.93018 81.59838038999999,68.07293999999999 87.45915038999999,68.18073 93.35228038999999,68.25813 99.27229039,68.30942999999999 105.21317038999999,68.3376 111.17387038999999,68.34552 117.15367039,68.3361 123.14807038999999,68.31203 129.15337038999996,68.27485 135.17057039,68.22606999999999 141.20247039,68.16792 147.24957039,68.10279 153.30917039,68.03289 159.37417039000002,67.96011999999999 165.43867039000003,67.88454999999999 171.50387039,67.80573 177.57367039,67.7242 183.64607039,67.64083 189.71697039000003,67.55557999999999 195.78687039000002,67.46804 201.85907039,67.37926999999999 207.93437039000003,67.29105 214.01147039000003,67.20343 220.08987039,67.11534999999999 226.16997039,67.02665999999999 232.25177039000002,66.93793 238.33447039,66.84943999999999 244.41737039,66.76114999999999 250.49967039,66.67286999999999 256.58127039,66.58434 262.66207039,66.49557999999999 268.74257038999997,66.40709 274.82277038999996,66.31903 280.90317038999996,66.23085999999999 286.98357039,66.14227 293.06407039,66.05376 299.14467039,65.96569 305.22567039,65.87764999999999 311.30767038999994,65.78922 317.39087039,65.70051 323.47437039,65.61178 329.55747039,65.52319 335.64037039,65.43486999999999 341.72377038999997,65.34674 347.80727039,65.25864999999999 353.88997039,65.17041 359.97157039,65.081817 366.05287038999995,64.993049 372.13457038999996,64.904537 378.21677038999997,64.816311 384.29957039,64.728067 390.38257038999996,64.63972799999999 396.46527038999994,64.55147299999999 402.54707039,64.463245 408.62767039,64.374664 414.70717039,64.28574699999999 420.78607039,64.19721 426.86517039,64.10936099999999 432.94527038999996,64.021537 439.02667039,63.933232999999994 445.10937039,63.84468699999999 451.19267039,63.756195999999996 457.27587038999997,63.667835999999994 463.35827039,63.579570999999994 469.43937039,63.491094 475.51897039,63.402175 481.59717039,63.31340599999999 487.67457038999993,63.225477999999995 493.75177038999993,63.137809999999995 499.82947039,63.049409999999995 505.90807039000003,62.960502 511.98787039,62.871922 518.0687703899999,62.783708 524.1500703900001,62.695387999999994 530.23107039,62.607003999999996 536.31127039,62.51901899999999 542.39047039,62.43129999999999 548.4691703899999,62.343084 554.5483703900001,62.254225 560.6286703900001,62.16543599999999 566.71017039,62.077079 572.7928703900001,61.988834 578.8762703900001,61.900464 584.96017039,61.812039 591.0442703900001,61.723634999999994 597.1284703900001,61.635245 603.21277039,61.546853999999996 609.29687039,61.458445999999995 615.38067039,61.370023999999994 621.4640703900001,61.281667999999996 627.54657039,61.193425999999995 633.6279703900001,61.105017999999994 639.70807039,61.016163999999996 645.78707039,60.92732899999999 651.8658703899999,60.83918799999999 657.94527039,60.75145499999999 664.02577039,60.66338699999999 670.10727039,60.574954 676.18927039,60.486577 682.27107039,60.398261 688.3525703900001,60.309658999999996 694.4340703900001,60.220772 700.51597039,60.131983999999996 706.59767039,60.043566 712.67867039,59.955611 718.7586703900001,59.867912999999994 724.8377703900001,59.779799999999994 730.9169703900001,59.691007 736.9971703900001,59.602183999999994 743.0784703900001,59.513802999999996 749.1609703900001,59.42559299999999 755.2442703900001,59.337275999999996 761.32797039,59.248906 767.4117703900001,59.160571999999995 773.49557039,59.072244999999995 779.57927039,58.983889 785.6623703900001,58.895599999999995 791.7446703900001,58.807461999999994 797.82557039,58.71918899999999 803.90487039,58.630433 809.98257039,58.541698999999994 816.0587703900001,58.453838999999995 822.1338703900001,58.366353 828.2085703900001,58.27791799999999 834.28357039,58.188663999999996 840.35967039,58.099931999999995 846.43707039,58.011965 852.51567039,57.923804999999994 858.59507039,57.835162 864.67477039,57.746705999999996 870.75497039,57.658702999999996 876.83567039,57.57062199999999 882.91727039,57.482130999999995 888.99957039,57.393513 895.0821703900001,57.304992 901.1642703900001,57.216390999999994 907.24507039,57.127629 913.3241703900001,57.039241 919.4019703900001,56.951648 925.4793703900001,56.864121999999995 931.5567703900001,56.775802 937.63447039,56.687138999999995 943.7127703900001,56.598955 949.79087039,56.510948 955.86497039,56.42237899999999 961.93177039,56.333597999999995 967.99407039,56.245490999999994 974.04457039,56.1579888 980.0242703900001,56.070958499999996 985.84417039,55.985878199999995 991.4496703899999,55.90464059999999 996.65577039,55.8296235 1001.0007703900001,55.7663611 1004.01087039,55.72192" stroke="black" stroke-width="2.0" /></svg>