<?xml version="1.0" encoding="utf-8" ?>
<svg baseProfile="full" height="73.46961" version="1.1" width="1012.001337845" xmlns="http://www.w3.org/2000/svg" xmlns:ev="http://www.w3.org/2001/xml-events" xmlns:xlink="http://www.w3.org/1999/xlink"><defs /><polygon fill="none" points="1003.990337845,48.60591 1000.891037845,48.300799999999995 996.514237845,47.871252 991.393137845,47.370629 985.858337845,46.831927 980.0574378450001,46.269836 974.097537845,45.694904 968.073137845,45.117121 962.027937845,44.541745 955.964937845,43.968533 949.889837845,43.396653 943.814837845,42.827360999999996 937.7441378450001,42.262344999999996 931.673737845,41.70175 925.6002378449999,41.144956 919.523537845,40.591554 913.4449378449999,40.041224 907.366737845,39.493969 901.289837845,38.95024 895.213337845,38.41026 889.1359378450001,37.87387 883.0572378449999,37.34089 876.9770378449999,36.811099999999996 870.8956378449999,36.2843 864.8134378450001,35.76043 858.7315378449999,35.23954 852.6509378449999,34.72194 846.570837845,34.20792 840.4896378450001,33.69731 834.406137845,33.189679999999996 828.320137845,32.68467 822.233137845,32.182019999999994 816.147937845,31.682019999999998 810.0648378449999,31.185319999999997 803.981337845,30.692009999999996 797.895637845,30.201559999999997 791.8088378450001,29.713729999999998 785.722237845,29.228689999999997 779.6360378449999,28.74654 773.549737845,28.2673 767.4634378449999,27.791 761.377037845,27.3177 755.290837845,26.84744 749.204537845,26.38026 743.1175378449999,25.916069999999998 737.029337845,25.454739999999997 730.9416378450001,24.99624 724.856937845,24.541059999999998 718.7732378449999,24.08976 712.685237845,23.64181 706.593037845,23.19602 700.503237845,22.752499999999998 694.4189378450001,22.312749999999998 688.335437845,21.87727 682.248537845,21.44518 676.160137845,21.01606 670.073037845,20.59031 663.986037845,20.16814 657.8976378450001,19.749229999999997 651.809037845,19.33337 645.723037845,18.92113 639.639237845,18.51312 633.555337845,18.109339999999996 627.469937845,17.70951 621.3827378450001,17.313409999999998 615.295137845,16.920859999999998 609.209237845,16.532090000000004 603.125237845,16.147619999999996 597.041037845,15.76757 590.956037845,15.391709999999996 584.872337845,15.020130000000002 578.7909378449999,14.65345 572.709137845,14.291870000000003 566.6246378449999,13.93479 560.537937845,13.581729999999993 554.4513378449999,13.232780000000005 548.367737845,12.888300000000001 542.288337845,12.54907 536.210037845,12.215739999999997 530.1286378450001,11.887879999999996 524.0454378449999,11.564759999999993 517.964637845,11.246759999999995 511.885637845,10.934629999999999 505.80333784500004,10.628030000000003 499.717337845,10.32593 493.633137845,10.028390000000002 487.553537845,9.736529999999995 481.475737845,9.450899999999997 475.396837845,9.17125 469.316437845,8.897390000000001 463.235637845,8.629219999999997 457.155037845,8.366729999999997 451.075337845,8.110109999999999 444.997337845,7.859659999999998 438.920937845,7.615699999999997 432.844037845,7.378430000000002 426.764837845,7.147480000000002 420.685037845,6.922389999999993 414.608337845,6.703629999999997 408.53483784499997,6.492049999999999 402.461537845,6.2878200000000035 396.387237845,6.090679999999999 390.31313784499997,5.900609999999993 384.240737845,5.717869999999998 378.170237845,5.542769999999997 372.101737845,5.375709999999998 366.034637845,5.216999999999999 359.96803784499997,5.066749999999999 353.90123784499997,4.924979999999998 347.834437845,4.791609999999999 341.770237845,4.66675 335.710637845,4.551169999999999 329.654537845,4.4457299999999975 323.60003784500003,4.350709999999999 317.547337845,4.266269999999999 311.497737845,4.19285 305.449837845,4.130929999999999 299.40123784499997,4.08052 293.354137845,4.0413 287.313637845,4.013950000000001 281.280237845,4.0 275.249437845,4.000269999999993 269.219137845,4.014580000000002 263.19153784499997,4.043039999999998 257.168737845,4.0863099999999974 251.150937845,4.145089999999996 245.138437845,4.2201299999999975 239.132137845,4.312199999999997 233.132137845,4.4222799999999935 227.135437845,4.551250000000003 221.140237845,4.699110000000005 215.150237845,4.865779999999994 209.170037845,5.052419999999998 203.199937845,5.260680000000001 197.23733784499998,5.4916999999999945 191.28063784499997,5.746270000000003 185.330337845,6.025039999999997 179.38903784500002,6.3285199999999975 173.460337845,6.65795 167.546237845,7.015219999999999 161.645937845,7.402089999999994 155.75663784499997,7.8202599999999975 149.87563784499997,8.270870000000002 144.005937845,8.753990000000002 138.156937845,9.270469999999996 132.332637845,9.82349 126.529137845,10.416199999999996 120.742437845,11.050489999999996 114.972737845,11.72775 109.225237845,12.448929999999997 103.50914784499999,13.21519 97.82929784499999,14.03002 92.182577845,14.897659999999995 86.56887784499999,15.82036 80.99813784499999,16.799129999999998 75.48093784499999,17.83707 70.021317845,18.9384 64.62498784499999,20.10651 59.305247845,21.343239999999998 54.078867845000005,22.651159999999997 48.962557845000006,24.03237 43.980697845,25.48659 39.168907845,27.008999999999997 34.574497845,28.590239999999998 30.252667845,30.21317 26.269737845,31.849339999999998 22.687557845,33.46201 19.547007845,35.01181 16.853417845,36.46754 14.577437845,37.812529999999995 12.667718845,39.04576 11.065835844999999,40.176071 9.716514844999999,41.215787 8.573872845,42.176435 7.603451845,43.070983 6.7783898449999995,43.912172 6.077871845,44.710453 5.487703845,45.474937 5.000354845,46.213364 4.610983845,46.931464999999996 4.316061845,47.635045999999996 4.117692145,48.321089 4.014449185,48.981574 4.0,49.6282478 4.082491835,50.2806095 4.279007445,50.938769 4.594685145,51.590261999999996 5.025724845,52.228723 5.561123845,52.855902 6.201161845,53.473047 6.951988845,54.082467 7.8230978449999995,54.689023 8.828690845,55.298403 9.989667845,55.917080999999996 11.335552844999999,56.549996 12.905230845,57.202037 14.749247845,57.878535 16.929807845,58.581722 19.514587845,59.308949999999996 22.567397845000002,60.05229 26.127627845,60.79617 30.185347845000003,61.51839 34.678477845,62.192769999999996 39.521557845,62.80037 44.632727845000005,63.331289999999996 49.952697845,63.78592 55.431807845,64.17033 61.028897844999996,64.49103 66.714837845,64.75483 72.471347845,64.96837 78.28230784499999,65.1378 84.13389784499999,65.2678 90.018847845,65.36218 95.934447845,65.42491 101.87470784499999,65.45988 107.83083784499999,65.46961 113.79873784499999,65.45537 119.77923784499998,65.41874 125.774037845,65.36162999999999 131.783237845,65.2861 137.806037845,65.19436 143.840837845,65.08843 149.885537845,64.96993 155.93763784499998,64.8403 161.995737845,64.70042000000001 168.060337845,64.55113 174.13153784499997,64.39353 180.207137845,64.22868 186.284637845,64.05695 192.365137845,63.87851 198.45043784499998,63.69402 204.54033784499998,63.50443 210.632537845,63.3103 216.72533784499998,63.11188 222.818037845,62.9092 228.91113784499998,62.70213 235.006437845,62.49079 241.10533784499998,62.2757 247.208637845,62.05749 253.315137845,61.8369 259.421737845,61.61447 265.527037845,61.389889999999994 271.634137845,61.16287 277.746037845,60.93448 283.86093784499997,60.70599 289.975537845,60.47734 296.088137845,60.248039999999996 302.199337845,60.01875 308.31083784500004,59.79053 314.424337845,59.56346 320.539237845,59.337052 326.652937845,59.111404 332.763637845,58.887085 338.870837845,58.664615999999995 344.976937845,58.444421 351.08593784500005,58.226346 357.197437845,58.009543 363.305537845,57.794004 369.406937845,57.581205999999995 375.506837845,57.372040999999996 381.61013784499994,57.165746999999996 387.715437845,56.961657 393.819237845,56.760073999999996 399.92023784500003,56.561448999999996 406.019637845,56.366059 412.119437845,56.174067 418.22103784499996,55.985246 424.322037845,55.799301 430.419137845,55.616747 436.51373784500004,55.438486999999995 442.611437845,55.264347 448.71243784499995,55.093312 454.811037845,54.925365 460.905237845,54.761621 466.999437845,54.602508 473.097037845,54.447313 479.19653784499997,54.295525 485.295437845,54.147236 491.392937845,54.002622 497.48913784499996,53.861979 503.583437845,53.725633 509.67653784500004,53.593831 515.772237845,53.466627 521.873537845,53.34314 527.976837845,53.222273 534.075137845,53.104591 540.1686378449999,52.991573 546.263937845,52.883312 552.364637845,52.778729 558.468937845,52.677139 564.573137845,52.578367 570.673037845,52.482669 576.7695378450001,52.390992 582.869237845,52.303663 588.974837845,52.219412999999996 595.078337845,52.137431 601.173937845,52.059233 607.2691378449999,51.986247 613.3736378450001,51.917056 619.483037845,51.849658999999996 625.586837845,51.784604 631.6864378449999,51.72347 637.7902378450001,51.666041 643.897937845,51.610993 650.001637845,51.558427 656.101437845,51.509752 662.206937845,51.464926 668.321037845,51.421908 674.434537845,51.379739 680.541837845,51.339802999999996 686.6483378449999,51.303059 692.759737845,51.268645 698.873637845,51.235676 704.985937845,51.204405 711.0987378450001,51.175199 717.2156378450001,51.147441 723.334437845,51.120283 729.450537845,51.094017 735.564237845,51.069474 741.679637845,51.046594 747.7986378449999,51.02465 753.919437845,51.003048 760.039137845,50.981365 766.155137845,50.959835999999996 772.267137845,50.939659 778.376937845,50.921074 784.486637845,50.902139 790.597337845,50.881539 796.709637845,50.860689 802.824237845,50.841161 808.941837845,50.822855 815.0620378450001,50.805232 821.183737845,50.787932999999995 827.3045378449999,50.770645 833.4222378449999,50.752767999999996 839.5358378450001,50.733632 845.646137845,50.714081 851.754937845,50.696121 857.8652378449999,50.679912 863.978637845,50.663499 870.095737845,50.645796 876.2158378449999,50.627294 882.337837845,50.608501 888.4602378449999,50.589629 894.5810378450001,50.570678 900.699137845,50.551088 906.815137845,50.530454999999996 912.930537845,50.509692 919.047237845,50.489912 925.1659378449999,50.470878 931.285037845,50.451789 937.401537845,50.432013 943.513837845,50.4111009 949.6207378449999,50.3900685 955.719537845,50.3711067 961.806137845,50.3538115 967.879937845,50.3346789 973.9362378449999,50.3124096 979.9295378449999,50.2897473 985.765437845,50.2688693 991.335337845,50.2498949 996.486937845,50.2325295 1000.8868378450001,50.2168456 1004.001337845,50.20491" stroke="black" stroke-width="2.0" /></svg>