<?xml version="1.0" encoding="utf-8" ?>
<svg baseProfile="full" height="66.18945" version="1.1" width="1011.998854219" xmlns="http://www.w3.org/2000/svg" xmlns:ev="http://www.w3.org/2001/xml-events" xmlns:xlink="http://www.w3.org/1999/xlink"><defs /><polygon fill="none" points="1003.9828542189999,44.68138 1001.038954219,44.445201 996.8805542189999,44.112545 991.918854219,43.71715 986.464254219,43.284447 980.703054219,42.829229999999995 974.730854219,42.358151 968.6585542189999,41.880041 962.557054219,41.401945 956.437954219,40.9252 950.301854219,40.448800999999996 944.158454219,39.972881 938.015754219,39.498277 931.8751542189999,39.025449 925.735354219,38.554711 919.5940542189999,38.086028999999996 913.450554219,37.618918 907.3065542190001,37.153228999999996 901.163754219,36.68931 895.022154219,36.227388 888.880054219,35.767407 882.734954219,35.309039999999996 876.586854219,34.85165 870.4406542190001,34.39522 864.299754219,33.94094 858.1608542189999,33.48948 852.0190542189999,33.04018 845.8741542189999,32.59241 839.727954219,32.14608 833.581754219,31.701119999999996 827.435954219,31.25768 821.291254219,30.815979999999996 815.147554219,30.37622 809.002454219,29.93835 802.8534542189999,29.501369999999998 796.702154219,29.064249999999998 790.551954219,28.62742 784.4050542189999,28.191899999999997 778.261554219,27.75833 772.118454219,27.326949999999997 765.972854219,26.896729999999998 759.826954219,26.466279999999998 753.686154219,26.0365 747.5488542190001,25.60944 741.408654219,25.18515 735.263754219,24.76253 729.1182542189999,24.34149 722.975454219,23.92259 716.835354219,23.50624 710.695654219,23.092679999999998 704.553054219,22.68159 698.4076542189999,22.27223 692.2636542189999,21.86469 686.123654219,21.459889999999998 679.985854219,21.05827 673.846654219,20.659549999999996 667.702954219,20.263189999999998 661.556554219,19.868489999999998 655.4159542189999,19.475849999999998 649.2844542189999,19.087320000000002 643.1544542190001,18.70374 637.017454219,18.32359 630.8732542189999,17.94558 624.727154219,17.569439999999997 618.586454219,17.195559999999997 612.454254219,16.825590000000002 606.3230542189999,16.4605 600.185154219,16.09892 594.0442542189999,15.739729999999998 587.9077542189999,15.383869999999998 581.7750542189999,15.032319999999999 575.6413542189999,14.684819999999998 569.505154219,14.340919999999997 563.3683542189999,14.000549999999997 557.233154219,13.663810000000002 551.1010542189999,13.331249999999997 544.971654219,13.003499999999995 538.8424542189999,12.680619999999998 532.710554219,12.362279999999998 526.574254219,12.047869999999996 520.437154219,11.736829999999998 514.3059542190001,11.429900000000004 508.17925421900003,11.1284 502.050054219,10.832190000000004 495.91815421900003,10.540369999999996 489.790054219,10.25329 483.664854219,9.972049999999996 477.533954219,9.696129999999997 471.396654219,9.423839999999998 465.26295421900005,9.15529 459.13725421900006,8.892290000000003 453.013754219,8.635519999999993 446.887154219,8.384340000000002 440.75755421900004,8.13834 434.627754219,7.897400000000005 428.500254219,7.6616399999999985 422.374854219,7.431599999999996 416.247654219,7.207380000000001 410.118354219,6.988340000000001 403.993354219,6.77458 397.87525421900006,6.567559999999993 391.756254219,6.367899999999999 385.631354219,6.174320000000002 379.507654219,5.986199999999997 373.391254219,5.804929999999999 367.27745421900005,5.631550000000004 361.160854219,5.465449999999997 355.04445421900004,5.306199999999997 348.93235421900005,5.154540000000004 342.821754219,5.01108 336.709654219,4.875450000000001 330.599854219,4.74747 324.49665421900005,4.628160000000001 318.39705421900004,4.51858 312.29645421900005,4.418509999999998 306.19645421900003,4.327590000000001 300.101154219,4.246419999999993 294.01165421900004,4.175849999999997 287.92685421900006,4.11656 281.844854219,4.069140000000004 275.76455421900005,4.033779999999993 269.686754219,4.0105800000000045 263.613154219,4.0 257.543454219,4.002599999999994 251.477354219,4.018829999999994 245.417254219,4.04907 239.366254219,4.094410000000003 233.322554219,4.156269999999999 227.282054219,4.235190000000003 221.24435421899997,4.3311199999999985 215.21295421899998,4.44453 209.190154219,4.576309999999992 203.176954219,4.727539999999998 197.173254219,4.899429999999995 191.17875421899998,5.093049999999998 185.193554219,5.309369999999994 179.21835421900002,5.549379999999999 173.25435421900002,5.814189999999996 167.302854219,6.104959999999998 161.363954219,6.423000000000002 155.437854219,6.769599999999997 149.527754219,7.145830000000004 143.639754219,7.5531700000000015 137.775254219,7.994449999999993 131.92965421899999,8.472339999999996 126.10165421900001,8.988010000000003 120.297654219,9.542489999999994 114.523154219,10.138150000000003 108.778154219,10.777810000000002 103.06335421899999,11.463720000000002 97.384494219,12.197769999999998 91.747644219,12.982749999999996 86.15589421899999,13.821839999999998 80.612634219,14.71809 75.124174219,15.6741 69.698964219,16.692729999999997 64.346294219,17.776619999999998 59.077164219,18.92852 53.904774219,20.15026 48.848474219,21.442169999999997 43.935804219,22.80127 39.205024219,24.2214 34.702844219,25.69025 30.487394219,27.18819 26.617794219,28.68726 23.147894218999998,30.153979999999997 20.104344219,31.55695 17.482184218999997,32.87446 15.246214219,34.09674 13.347902218999998,35.2236 11.735130218999998,36.262157 10.359774219,37.223173 9.181184219,38.118153 8.166771219000001,38.95765 7.2912972190000005,39.751365 6.534943219,40.508165999999996 5.884152219000001,41.236295 5.330098219,41.942638 4.871520019,42.634964 4.509401419,43.321974 4.245429219,44.003710999999996 4.079614739,44.6732521 4.000566957,45.326939599999996 4.0,45.9732351 4.081339799,46.6218052 4.252085619,47.276692 4.519417719,47.932216 4.886246619,48.577588999999996 5.353886219,49.203697 5.924316219,49.806776 6.599342219,50.38409 7.3830572189999994,50.938856 8.279503219,51.478004999999996 9.300671219,52.006546 10.464373218999999,52.530167999999996 11.795429218999999,53.052981 13.327098219,53.578137 15.102614219,54.108647 17.175554219,54.646135 19.603884219,55.188922 22.444754218999996,55.727219999999996 25.745284219000002,56.24709 29.523594219,56.72915 33.763714219,57.15572 38.409454219,57.51318 43.381304219,57.79501 48.598884219,57.99849 54.004064219,58.12737 59.558904219,58.18805 65.239644219,58.18945 71.018704219,58.14172 76.862844219,58.05266 82.758964219,57.92612 88.715584219,57.76782 94.727214219,57.586439999999996 100.768224219,57.38786 106.823854219,57.17368 112.897154219,56.94547 118.991254219,56.70564 125.104454219,56.456739999999996 131.234454219,56.20134 137.378954219,55.94207 143.534454219,55.681619999999995 149.69605421900002,55.421445 155.85925421899998,55.161505 162.020954219,54.901995 168.179054219,54.643547 174.33195421899998,54.386894999999996 180.480654219,54.132835 186.627754219,53.881732 192.774154219,53.633469999999996 198.917754219,53.388269 205.057054219,53.146837 211.192154219,52.909788 217.324254219,52.677563 223.454954219,52.450476 229.584554219,52.228615 235.71125421899998,52.012222 241.83445421899998,51.801929 247.957254219,51.598151 254.08235421900002,51.40047 260.20945421900007,51.208432 266.336454219,51.022093 272.463054219,50.841605 278.59025421900003,50.666921 284.719254219,50.497895 290.85085421900004,50.33422 296.983854219,50.175534 303.116354219,50.021861 309.248554219,49.873464999999996 315.382454219,49.730237 321.518754219,49.591729 327.656054219,49.457727 333.79315421900003,49.32832 339.929754219,49.203581 346.066854219,49.083534 352.205354219,48.968098999999995 358.345854219,48.856956 364.48695421900004,48.749871999999996 370.627854219,48.64694 376.76885421900005,48.548252999999995 382.910854219,48.453692 389.05355421900003,48.363118 395.196754219,48.27651 401.341054219,48.193839 407.487354219,48.114843 413.636054219,48.039183 419.786654219,47.966564 425.93895421900004,47.896721 432.0923542190001,47.829495 438.24605421900003,47.764801999999996 444.399454219,47.702694 450.5531542190001,47.643281 456.708754219,47.586377999999996 462.86605421900003,47.531594999999996 469.02355421900006,47.478826999999995 475.18055421900004,47.428197 481.33745421900005,47.379763 487.494754219,47.333514 493.65275421900003,47.289381 499.81165421900005,47.24723 505.971654219,47.20692 512.1322542190001,47.168309 518.293254219,47.131325 524.454154219,47.095996 530.614754219,47.062355 536.775554219,47.030435 542.936954219,47.000197 549.099354219,46.971477 555.2622542189999,46.94415 561.425154219,46.918189999999996 567.5870542189999,46.893657 573.747954219,46.870771999999995 579.909254219,46.849647 586.0716542189999,46.830073 592.2346542189999,46.811876 598.3973542189999,46.795086 604.559854219,46.779752 610.722354219,46.765881 616.8852542189999,46.753458 623.048354219,46.742425 629.210754219,46.732769 635.371954219,46.724717 641.533454219,46.718457 647.696954219,46.713741999999996 653.8624542189999,46.710222 660.0295542189999,46.707658 666.198154219,46.705846 672.3682542189999,46.704571 678.539054219,46.703604999999996 684.7098542189999,46.702639 690.8809542189999,46.70137 697.052954219,46.699830999999996 703.225354219,46.698225 709.3968542189999,46.69678 715.567454219,46.695699 721.737654219,46.694781 727.908354219,46.69359 734.0802542189999,46.692073 740.252654219,46.690456 746.424454219,46.688972 752.5950542190001,46.687838 758.7652542189999,46.686924 764.935954219,46.685791 771.107654219,46.684308 777.280054219,46.682691 783.451954219,46.681173 789.6227542190001,46.679981 795.792954219,46.679062 801.963554219,46.677983999999995 808.1350542189999,46.676541 814.3074542190001,46.674928 820.4793542189999,46.67338 826.650254219,46.672134 832.820354219,46.671208 838.990454219,46.670166 845.1612542189999,46.668739 851.332854219,46.66719 857.5049542190001,46.665737 863.676954219,46.664266999999995 869.8483542189999,46.662717 876.019054219,46.661356 882.189054219,46.660377 888.359254219,46.659417999999995 894.5303542190001,46.658097999999995 900.7024542190001,46.656521 906.8747542189999,46.654925399999996 913.0460542189999,46.6535425 919.216354219,46.6525278 925.386554219,46.6515899 931.557054219,46.6503288 937.728154219,46.648778199999995 943.898954219,46.6471641 950.067354219,46.6457329 956.229054219,46.6446934 962.378854219,46.6437746 968.5133542189999,46.6424793 974.612654219,46.6409364 980.6069542189999,46.639662 986.393654219,46.6387339 991.879954219,46.6379193 996.869254219,46.6369261 1001.045054219,46.6356283 1003.998854219,46.63438" stroke="black" stroke-width="2.0" /></svg>