<?xml version="1.0" encoding="utf-8" ?>
<svg baseProfile="full" height="79.72912" version="1.1" width="1012.0012035149999" xmlns="http://www.w3.org/2000/svg" xmlns:ev="http://www.w3.org/2001/xml-events" xmlns:xlink="http://www.w3.org/1999/xlink"><defs /><polygon fill="none" points="1003.982203515,53.65798 1000.807003515,53.3256428 996.254103515,52.843008 990.8539035150001,52.264853 985.166703515,51.659019 979.416003515,51.056538 973.542503515,50.447707 967.570603515,49.830258 961.582403515,49.213044 955.610903515,48.601996 949.639003515,47.995727 943.6541035150001,47.391304 937.662903515,46.788299 931.674003515,46.187942 925.6859035150001,45.59051 919.693803515,44.994889 913.697803515,44.400121999999996 907.7018035149999,43.80639 901.707803515,43.214330000000004 895.714903515,42.62415 889.721803515,42.03577 883.728603515,41.44921 877.735803515,40.86462 871.742903515,40.28205 865.749003515,39.701319999999996 859.7545035150001,39.12229 853.7615035150001,38.54518 847.770503515,37.97057 841.7801035150001,37.39875 835.788403515,36.82942 829.7959035150001,36.262330000000006 823.804003515,35.697689999999994 817.812903515,35.135769999999994 811.8213035150001,34.57655 805.829003515,34.01987 799.837403515,33.46583 793.847703515,32.91493 787.8584035150001,32.36747 781.867003515,31.823059999999998 775.8734035150001,31.28114 769.879403515,30.74163 763.886103515,30.204859999999996 757.893103515,29.67094 751.899503515,29.13978 745.9060035150001,28.61138 739.9132035150001,28.08595 733.920703515,27.563699999999997 727.926503515,27.04439 721.9304035150001,26.52756 715.933903515,26.01306 709.938503515,25.50127 703.944703515,24.992559999999997 697.951903515,24.48715 691.959303515,23.98518 685.966003515,23.486629999999998 679.972003515,22.99128 673.977803515,22.49913 667.984603515,22.01049 661.993503515,21.525730000000003 656.004903515,21.045389999999998 650.017303515,20.569939999999995 644.028503515,20.099249999999998 638.038003515,19.632909999999995 632.047403515,19.17087 626.057903515,18.713479999999997 620.0688035150001,18.260979999999996 614.0790035150001,17.813270000000003 608.0889035150001,17.370289999999997 602.0998035150001,16.93226 596.111503515,16.49949 590.122303515,16.071999999999996 584.131903515,15.64951 578.141903515,15.23198 572.154403515,14.820039999999999 566.168403515,14.41424 560.181403515,14.014490000000002 554.192803515,13.620420000000003 548.204103515,13.232009999999995 542.2163035149999,12.849580000000003 536.229103515,12.47334 530.241903515,12.103369999999998 524.2552035150001,11.739759999999997 518.269603515,11.382800000000003 512.284703515,11.032799999999995 506.29900351500004,10.689749999999997 500.31190351500004,10.353379999999994 494.32460351500004,10.023579999999995 488.33830351500006,9.700679999999998 482.35330351500005,9.385020000000004 476.36900351500003,9.076799999999999 470.38480351500004,8.776139999999998 464.400503515,8.483130000000003 458.415903515,8.19773 452.43100351500004,7.919969999999999 446.446303515,7.649920000000002 440.462603515,7.38776 434.480703515,7.133870000000002 428.50020351500007,6.888719999999999 422.51970351500006,6.652459999999998 416.538503515,6.424939999999999 410.55690351500004,6.2061100000000025 404.575803515,5.996139999999997 398.59600351500006,5.7952299999999966 392.617903515,5.603739999999995 386.641103515,5.422089999999997 380.664603515,5.250450000000001 374.688003515,5.088810000000002 368.71160351500004,4.93723 362.735903515,4.795870000000001 356.76140351500004,4.664929999999998 350.788203515,4.544699999999999 344.816503515,4.4354999999999976 338.84670351500006,4.3377300000000005 332.879003515,4.251810000000006 326.913703515,4.178159999999998 320.949903515,4.1171699999999944 314.98560351500004,4.0690700000000035 309.01950351500005,4.033560000000001 303.054603515,4.010300000000001 297.09500351500003,4.0 291.14090351500005,4.004009999999994 285.188603515,4.023090000000003 279.235703515,4.057050000000004 273.283703515,4.105800000000002 267.335103515,4.169840000000001 261.390403515,4.249839999999999 255.449203515,4.346400000000003 249.511203515,4.460069999999995 243.57630351499998,4.5914 237.64500351499998,4.740919999999996 231.71760351499998,4.909190000000002 225.794403515,5.096850000000003 219.876103515,5.304579999999994 213.963003515,5.533169999999998 208.055603515,5.783470000000001 202.153903515,6.056309999999996 196.257803515,6.352489999999996 190.367303515,6.672819999999994 184.48330351500002,7.018129999999999 178.608303515,7.389200000000002 172.744303515,7.787469999999999 166.890303515,8.214769999999994 161.043503515,8.672429999999999 155.20450351499997,9.161009999999997 149.37740351499997,9.681280000000001 143.565503515,10.235080000000004 137.76830351499999,10.824589999999993 131.98470351499998,11.4516 126.216103515,12.117510000000003 120.465703515,12.824060000000003 114.736203515,13.573389999999996 109.02920351499999,14.367890000000003 103.34691351499998,15.21011 97.692513515,16.102580000000003 92.069463515,17.048299999999998 86.480803515,18.050420000000003 80.930253515,19.112359999999995 75.423673515,20.23726 69.968883515,21.428579999999997 64.573433515,22.69072 59.244143515000005,24.028200000000002 53.991773515000006,25.44514 48.832853515000004,26.94381 43.791103515,28.52715 38.895153515,30.195359999999997 34.181373515,31.946469999999998 29.695953515,33.7718 25.496433515,35.652640000000005 21.669323515,37.548410000000004 18.291473515,39.40425 15.413283515000002,41.166669999999996 13.024116515,42.796440000000004 11.079440515,44.272811000000004 9.511521514999998,45.594001 8.248416514999999,46.781064 7.224424515,47.858111 6.391327515,48.842661 5.713479515,49.746736999999996 5.164921515,50.58432 4.724517415,51.370892 4.386586415,52.11797 4.153119815,52.82778 4.023771045,53.4978228 4.0,54.1405354 4.089149785,54.7824814 4.302585715,55.437474 4.660419415,56.093297 5.163958515,56.73363 5.799664515,57.353056 6.571709515,57.960463 7.499027515,58.574937 8.605060515,59.211221 9.928576515,59.8771 11.527216515,60.585123 13.487012515,61.349143999999995 15.906143515,62.179716 18.872513515,63.06783 22.441943515,63.99362 26.592383514999998,64.92069000000001 31.210143515,65.81175 36.157303515,66.63085000000001 41.336103515000005,67.36474 46.704973515,68.0185 52.212973515,68.60189 57.805703515000005,69.11877 63.45034351500001,69.5723 69.138423515,69.96791 74.867643515,70.31075 80.634483515,70.60593 86.433553515,70.85837 92.257103515,71.07272 98.098513515,71.25177 103.956423515,71.39793 109.83250351499998,71.51414 115.72480351499999,71.60357 121.62720351499999,71.66854000000001 127.536203515,71.71002 133.452703515,71.72912 139.378803515,71.72757 145.313103515,71.70716 151.252203515,71.66893999999999 157.194503515,71.61357 163.13980351499998,71.54167 169.088803515,71.45387 175.042003515,71.35085 180.999903515,71.23353 186.96260351499998,71.10287 192.929703515,70.95978 198.900503515,70.80512999999999 204.87370351500002,70.63958 210.848903515,70.46355 216.82650351499998,70.27747 222.80660351499998,70.08185 228.788803515,69.87723 234.772703515,69.66403 240.759203515,69.4426 246.74940351499998,69.21355 252.74270351500002,68.97772 258.73670351500004,68.73568 264.730503515,68.48737 270.72650351500005,68.23275 276.727303515,67.97266 282.733103515,67.70819 288.742203515,67.44012000000001 294.752203515,67.16902999999999 300.76050351500004,66.8951 306.76730351500004,66.61783 312.77590351500004,66.33689 318.78880351500004,66.05302 324.804503515,65.7672 330.82000351500005,65.47973 336.83500351500004,65.1904 342.851603515,64.89925 348.870403515,64.60678 354.89040351500006,64.31342000000001 360.90970351500005,64.01917 366.928203515,63.724038 372.946303515,63.428694 378.964603515,63.134049 384.983703515,62.840084 391.00340351500006,62.545985 397.02270351500005,62.251473 403.040903515,61.957336999999995 409.058603515,61.66435 415.07610351500006,61.372688 421.093403515,61.082378 427.11010351500005,60.793526 433.126303515,60.506258 439.14290351500006,60.220591999999996 445.15970351500005,59.936451 451.174603515,59.653958 457.18600351500004,59.373835 463.195103515,59.096806 469.204203515,58.822969 475.214003515,58.552125000000004 481.223003515,58.284333 487.231003515,58.019877 493.23970351500003,57.758845 499.25030351500004,57.500876 505.26040351500006,57.245723 511.2667035150001,56.994031 517.270003515,56.746762 523.273903515,56.504078 529.2805035150001,56.26534 535.287703515,56.030226 541.2931035150001,55.799127 547.297403515,55.572424 553.302103515,55.350103 559.306803515,55.132064 565.309703515,54.918568 571.310703515,54.7101482 577.312403515,54.5069888 583.316503515,54.3085841 589.321103515,54.1145446 595.323503515,53.92528028 601.324103515,53.7413863 607.3257035150001,53.5628644 613.329003515,53.3892899 619.331503515,53.2205899 625.3318035149999,53.057285 631.3313035150001,52.899786 637.332003515,52.747906 643.3338035150001,52.601345 649.335103515,52.460144 655.335503515,52.324559 661.335903515,52.194689 667.336803515,52.070416 673.337703515,51.951687 679.337703515,51.838714 685.3366035150001,51.731753 691.3349035150001,51.630918 697.333803515,51.536225 703.3343035150001,51.447519 709.336303515,51.364414 715.337703515,51.286734 721.336603515,51.215001 727.3335035150001,51.149791 733.330603515,51.091122 739.329903515,51.038728 745.332803515,50.992168 751.337503515,50.950804 757.338803515,50.914513 763.334303515,50.88454 769.3281035150001,50.862063 775.326403515,50.846481 781.329603515,50.836508 787.333103515,50.831745 793.333903515,50.832645 799.332103515,50.839652 805.328903515,50.853127 811.326103515,50.873328 817.324903515,50.899982 823.325403515,50.932643 829.326203515,50.971139 835.3265035150001,51.015517 841.325803515,51.065882 847.324303515,51.122427 853.323303515,51.18528 859.3238035150001,51.254164 865.3258035150001,51.328698 871.328403515,51.408694 877.3304035150001,51.494102 883.3306035150001,51.58508 889.3285035150001,51.682123 895.3254035150001,51.785649 901.3228035149999,51.895607 907.322103515,52.011809 913.3243035150001,52.133758 919.3290035150001,52.26077 925.334803515,52.392427 931.339903515,52.528678 937.341903515,52.669724 943.339603515,52.816501 949.333003515,52.9699496 955.3253035150001,53.1296886 961.3240035150001,53.2948234 967.332403515,53.4650625 973.318303515,53.6398783 979.218203515,53.81757787 985.015803515,53.9974174 990.761703515,54.1802386 996.2177035149999,54.3546578 1000.807603515,54.4988156 1004.0012035149999,54.59698" stroke="black" stroke-width="2.0" /></svg>