<?xml version="1.0" encoding="utf-8" ?>
<svg baseProfile="full" height="70.74411" version="1.1" width="1012.0081881882" xmlns="http://www.w3.org/2000/svg" xmlns:ev="http://www.w3.org/2001/xml-events" xmlns:xlink="http://www.w3.org/1999/xlink"><defs /><polygon fill="none" points="1003.9921881882,50.92622 1000.8759881882,50.6114806 996.3559881882001,50.14349 990.9433881882001,49.570909 985.2622881882,48.971483 979.5517881882,48.381824 973.7281881882001,47.787171 967.8092881882,47.181277 961.8836881882,46.576519 955.9798881882,45.984228 950.0664881882001,45.403151 944.1234881882,44.826181 938.1641881882,44.250553000000004 932.2072881882,43.678205 926.2532881882,43.109865 920.2935881882,42.543937 914.3272881882,41.978880000000004 908.3605881881999,41.414798000000005 902.3967881882,40.85262 896.4336881882,40.29255 890.4688881882,39.73413 884.5033881882,39.177170000000004 878.5394881882,38.62202 872.5755881882,38.06888 866.6080881882,37.51722 860.6381881882,36.966319999999996 854.6724881882001,36.41663 848.7142881882,35.87001 842.7569881882,35.32733 836.7924881882001,34.78696 830.8223881882,34.2472 824.8556881882,33.70872 818.8957881882001,33.173410000000004 812.9373881882001,32.6418 806.9754881882,32.11294 801.0118881882,31.58634 795.0501881882001,31.06261 789.0901881881999,30.54233 783.1286881882,30.02522 777.1640881882,29.51054 771.1979881882,28.998 765.2321881882,28.48777 759.2663881882,27.97992 753.2999881882,27.47436 747.3338881882,26.9711 741.3694881882,26.47052 735.4065881882,25.97308 729.4425881882,25.47877 723.4755881882,24.98684 717.5062881882001,24.496769999999998 711.5367881881999,24.008670000000002 705.5688881882,23.522840000000002 699.6038881882,23.03977 693.6406881882,22.56001 687.6762881882,22.08359 681.7093881882,21.609830000000002 675.7416881882,21.13839 669.7766881882,20.670080000000002 663.8175881882,20.206030000000002 657.8653881882001,19.74749 651.9165881882,19.295520000000003 645.9633881881999,18.84995 640.0024881882,18.408920000000002 634.0394881881999,17.971430000000005 628.0813881882,17.538709999999995 622.1276881882001,17.11211 616.1727881882,16.691500000000005 610.2146881882001,16.2761 604.2560881882,15.865790000000004 598.2992881882,15.461120000000001 592.3427881882001,15.062339999999999 586.3847881882,14.669199999999996 580.4261881882001,14.281489999999998 574.4694881882,13.899550000000005 568.5143881882,13.523980000000002 562.5579881882,13.154809999999998 556.5991881882,12.791469999999997 550.6402881882,12.433749999999996 544.6842881882,12.082350000000005 538.7302881882,11.73798 532.7751881882,11.400529999999996 526.8175881882,11.069449999999996 520.8585881882001,10.744550000000004 514.9001881882,10.426030000000004 508.94358818820007,10.114150000000002 502.98918818820005,9.809370000000001 497.0345881882,9.512009999999997 491.0768881882,9.221739999999997 485.1168881882,8.93788 479.15818818820003,8.660409999999999 473.2025881882,8.390149999999998 467.2469881882,8.127559999999995 461.2885881882,7.872109999999999 455.3292881882,7.623339999999999 449.37328818820004,7.38176 443.4201881882,7.148330000000001 437.4647881882,6.923089999999995 431.50478818820005,6.70496 425.5436881882,6.493339999999996 419.5859881882,6.288970000000006 413.6315881882,6.09272 407.67758818820005,5.904769999999999 401.72238818820006,5.72495 395.76638818820004,5.553199999999997 389.8102881882,5.389500000000005 383.8544881882,5.233870000000003 377.8990881882,5.0864699999999985 371.94518818820006,4.947510000000001 365.99308818820003,4.817319999999995 360.0418881882,4.696269999999998 354.0893881882,4.5844200000000015 348.1356881882,4.481410000000004 342.1841881882,4.387229999999995 336.23698818820003,4.302720000000001 330.2913881882,4.228749999999998 324.3433881882,4.16507 318.3933881882,4.110990000000001 312.44598818820003,4.066600000000001 306.50318818820006,4.03293 300.5628881882,4.010730000000002 294.62238818820003,4.0 288.6819881882,4.000689999999999 282.7433881882,4.013069999999999 276.8079881882,4.03763 270.8760881882,4.074910000000003 264.9473881882,4.125610000000002 259.02078818819996,4.190289999999997 253.0958881882,4.269220000000004 247.1739881882,4.362690000000001 241.25658818820003,4.471399999999996 235.34358818820002,4.596209999999999 229.4340881882,4.7378399999999985 223.5282881882,4.89678 217.62778818820001,5.073699999999995 211.7337881882,5.269670000000005 205.84548818820002,5.485820000000004 199.9618881882,5.722940000000001 194.08328818820002,5.981659999999998 188.2112881882,6.26285 182.3467881882,6.567630000000001 176.48998818820002,6.89714 170.64108818820003,7.252520000000004 164.8005881882,7.634920000000001 158.9692881882,8.0456 153.1480881882,8.485860000000002 147.33758818820002,8.95711 141.5384881882,9.460800000000006 135.7515881882,9.998469999999998 129.97858818819998,10.571730000000002 124.2219881882,11.18224 118.4840881882,11.83222 112.7653881882,12.524190000000004 107.06628818819999,13.26052 101.38930818819999,14.043200000000006 95.7394781882,14.87462 90.12180818819999,15.757919999999999 84.5404381882,16.69652 78.99945818820001,17.69451 73.50308818820001,18.75595 68.0571781882,19.885159999999996 62.6704781882,21.085890000000003 57.3552381882,22.362560000000002 52.1271081882,23.71965 47.0047181882,25.1614 42.010278188200004,26.692970000000003 37.167998188199995,28.3172 32.5142181882,30.03388 28.0975581882,31.83264 23.985518188199997,33.69298 20.256598188199998,35.57514 16.9835381882,37.4257 14.2200481882,39.17881 11.9576201882,40.79026 10.1436311882,42.241310999999996 8.6978781882,43.53879 7.5425721882,44.701955 6.6161491882,45.752294 5.8740331882,46.707111 5.2821411882,47.582588 4.8133895882,48.396941 4.4527390881999995,49.164542 4.1975590882,49.888974 4.0457180882,50.5677571 4.0,51.21174687 4.0685325282,51.848432700000004 4.2637269882,52.492998 4.6102440882,53.132592 5.1162651882,53.745182 5.7674691882,54.320177 6.5625711882,54.861642 7.523506188200001,55.390975 8.6749961882,55.9296 10.0613321882,56.482905 11.7506131882,57.059839 13.8466411882,57.669013 16.469618188200002,58.315432 19.714558188199998,58.981831 23.615658188199998,59.640181999999996 28.1005681882,60.252824000000004 33.0301081882,60.796107 38.2614181882,61.25839 43.6861481882,61.64382 49.238538188199996,61.95791 54.8748681882,62.209540000000004 60.5698281882,62.405120000000004 66.3079681882,62.55115 72.0809781882,62.6531 77.8830481882,62.71594 83.70977818819999,62.74411 89.5572681882,62.74151 95.4217981882,62.71163 101.30066818819999,62.65719 107.1924881882,62.58077 113.0961881882,62.48471 119.01038818820001,62.37126 124.9332881882,62.24223 130.8631881882,62.09921 136.7988881882,61.94355 142.7396881882,61.77627 148.6855881882,61.59839 154.63658818820002,61.41096 160.5916881882,61.21501 166.55008818820002,61.011273 172.5111881882,60.800361 178.4750881882,60.582886 184.4422881882,60.359458000000004 190.4131881882,60.13074 196.3875881882,59.897511 202.36408818820001,59.660509000000005 208.3415881882,59.420035 214.3203881882,59.176241000000005 220.30168818820002,58.929502 226.2853881882,58.680391 232.2698881882,58.429326 238.25488818820003,58.176396 244.2415881882,57.921712 250.2307881882,57.665733 256.2212881882,57.409006 262.2115881882,57.151647 268.20138818820004,56.893498 274.1921881882,56.63463 280.1844881882,56.375442 286.1778881882,56.116266 292.17148818820004,55.857139000000004 298.1643881882,55.598089 304.15588818820004,55.339384 310.14608818820005,55.081345 316.13568818820005,54.824124 322.1251881882,54.567745 328.1149881882,54.312218 334.10468818820004,54.057552 340.09288818820005,53.803867 346.07868818820003,53.551624000000004 352.06328818820003,53.301282 358.0486881882,53.05281 364.0348881882,52.805930000000004 370.0192881882,52.560768 376.0010881882,52.31796 381.9823881882,52.0779012 387.96568818820003,51.8402425 393.9494881882,51.6046124 399.93078818820004,51.3713979 405.9091881882,51.14135937 411.88778818820003,50.9147293 417.8681881882,50.6910633 423.8494881882,50.4700766 429.82958818820003,50.252061 435.8074881882,50.037419 441.7831881882,49.826489 447.75868818820004,49.619537 453.7366881882,49.416441 459.7173881882,49.216561 465.6967881882,49.019613 471.6717881882,48.826472 477.64468818820006,48.638058 483.6203881882,48.454095 489.5993881882,48.273706 495.5775881882,48.096705 501.5531881882,47.923736 507.5292881882,47.755122 513.5089881882,47.590193 519.4893881882,47.428298 525.4653881882,47.270126 531.4359881882,47.117017000000004 537.4050881882,46.969559000000004 543.3757881882,46.827435 549.3482881882001,46.690379 555.3212881882,46.558326 561.2929881882001,46.431282 567.2624881882,46.309627 573.2301881882,46.193912 579.1978881882001,46.084307 585.1672881882,45.980506 591.1387881882,45.882195 597.1117881882,45.789081 603.0842881882,45.700949 609.0546881882001,45.618142 615.0228881882,45.541257 620.9909881881999,45.470507 626.9602881882,45.405683 632.9308881882,45.346568 638.9024881882001,45.292966 644.8743881882,45.244704 650.8461881882,45.20179 656.8171881882,45.164322 662.7868881882,45.132515 668.7551881882,45.106715 674.7226881882,45.087165 680.6903881882,45.073844 686.6598881882,45.066639 692.6319881882,45.065104 698.6054881882,45.068673000000004 704.5778881882,45.07732 710.5480881882,45.091532 716.5168881882,45.111668 722.4858881882,45.137755 728.4562881882,45.169732 734.4284881882,45.207266 740.4015881882,45.249942 746.3739881882,45.297734 752.3448881882,45.35095 758.3147881881999,45.409839 764.2845881882,45.474481 770.2541881882,45.544915 776.2239881882,45.621086 782.1951881882,45.702905 788.1691881882,45.789979 794.1450881882,45.881662 800.1196881882,45.977732 806.0911881882,46.078802 812.0613881882,46.185453 818.0325881882,46.297565 824.0056881882001,46.414812 829.9801881882,46.536911 835.9549881882,46.663623 841.9288881882,46.794888 847.9018881882,46.930948 853.8750881882,47.071983 859.8497881882,47.21771 865.8260881882001,47.367731 871.8027881882,47.521896 877.7786881882,47.680213 883.7531881882,47.842774 889.7270881882,48.009811 895.7032881882,48.181401 901.6830881881999,48.356856 907.6637881882,48.53534 913.6412881882,48.717086 919.6152881882,48.902996 925.5889881882,49.093448 931.5651881882,49.28804 937.5444881882,49.486348 943.5248881882,49.688107 949.5008881882,49.893048 955.4699881882001,50.101432 961.4408881882,50.3141099 967.4232881882,50.531658900000004 973.3890881882,50.7528963 979.2747881882,50.9748669 985.0699881882,51.19573887 990.8397881882,51.4158412 996.3201881882,51.6187996 1000.8757881882,51.777543 1004.0081881882,51.88022" stroke="black" stroke-width="2.0" /></svg>