<?xml version="1.0" encoding="utf-8" ?>
<svg baseProfile="full" height="90.93043" version="1.1" width="1012.00003087882" xmlns="http://www.w3.org/2000/svg" xmlns:ev="http://www.w3.org/2001/xml-events" xmlns:xlink="http://www.w3.org/1999/xlink"><defs /><polygon fill="none" points="1004.00003087882,63.4403 1000.83433087882,63.052753800000005 996.3973308788201,62.491101 991.16283087882,61.805646 985.5278308788199,61.05456 979.74863087882,60.282878000000004 973.85123087882,59.493415 967.87043087882,58.687838 961.8543308788201,57.874132 955.82963087882,57.059656000000004 949.79973087882,56.246818000000005 943.76583087882,55.435724 937.73353087882,54.627356000000006 931.70613087882,53.823341 925.68053087882,53.024370000000005 919.65213087882,52.22959 913.6211308788199,51.438340000000004 907.59103087882,50.65111 901.56283087882,49.868590000000005 895.5340308788201,49.09071 889.50273087882,48.31691 883.47023087882,47.547 877.43823087882,46.78134 871.40583087882,46.02005 865.37093087882,45.26265000000001 859.33363087882,44.508610000000004 853.29623087882,43.75804000000001 847.26013087882,43.011449999999996 841.22503087882,42.269149999999996 835.1900308788199,41.53117 829.15473087882,40.79755 823.1192308788201,40.06832 817.0831308788199,39.34346 811.04643087882,38.62297 805.00963087882,37.90690000000001 798.97423087882,37.195550000000004 792.9404308788199,36.48942 786.90623087882,35.78867 780.86943087882,35.09277 774.83103087882,34.401300000000006 768.79353087882,33.71464 762.75813087882,33.03347 756.7235308788199,32.358050000000006 750.68833087882,31.68822 744.65153087882,31.023850000000003 738.61313087882,30.36475 732.5742308788199,29.710839999999997 726.53623087882,29.06239 720.49893087882,28.41977 714.46143087882,27.783050000000003 708.42313087882,27.15209 702.3847308788199,26.52695 696.3471308788199,25.907950000000007 690.30983087882,25.29529 684.27183087882,24.688920000000003 678.23333087882,24.08878 672.1953308788201,23.495070000000005 666.15843087882,22.908189999999998 660.12233087882,22.32839 654.08623087882,21.755760000000002 648.0497308788199,21.190360000000005 642.01243087882,20.632170000000002 635.97493087882,20.08121 629.93793087882,19.537660000000002 623.90133087882,19.001800000000003 617.86393087882,18.473640000000003 611.82513087882,17.952960000000004 605.78583087882,17.439700000000002 599.74723087882,16.93414 593.70913087882,16.436580000000006 587.6705308788199,15.947029999999998 581.63123087882,15.465410000000006 575.59173087882,14.991770000000002 569.55253087882,14.526330000000002 563.51353087882,14.069229999999997 557.47453087882,13.62057 551.43523087882,13.180399999999999 545.3952308788199,12.748720000000006 539.35503087882,12.325560000000003 533.31563087882,11.911099999999998 527.27723087882,11.505699999999997 521.2393308788199,11.109610000000004 515.2008308788199,10.722790000000003 509.16143087881994,10.345169999999996 503.12093087882,9.976690000000005 497.08043087882,9.617320000000007 491.04133087882,9.267340000000004 485.00383087881994,8.927240000000005 478.96623087882,8.597240000000006 472.92753087882,8.277149999999999 466.88853087881995,7.966860000000004 460.85053087882,7.666669999999996 454.81363087882,7.376909999999995 448.77673087882,7.09769 442.73973087882,6.829030000000003 436.70383087882,6.571089999999998 430.66923087882003,6.324260000000002 424.63543087882,6.088819999999998 418.60143087882,5.8648000000000025 412.56763087881995,5.652210000000004 406.53463087882,5.451260000000005 400.50293087882,5.262220000000006 394.47243087882,5.085370000000005 388.44303087881997,4.920960000000001 382.41453087881996,4.769220000000004 376.38683087882,4.6303199999999975 370.35973087882,4.50441 364.33323087882,4.391660000000002 358.30843087882,4.2922200000000075 352.28693087882,4.20655 346.26853087881994,4.1353500000000025 340.25093087882,4.079100000000004 334.23303087882,4.037690000000005 328.21753087881996,4.011070000000004 322.20683087881997,4.0 316.19933087882,4.005480000000006 310.19103087881996,4.027650000000001 304.18173087881996,4.06597 298.17643087882,4.120440000000002 292.17793087881995,4.192320000000002 286.18403087881995,4.282770000000006 280.19143087882,4.392049999999998 274.20033087882,4.520119999999999 268.21323087881996,4.6673899999999975 262.23123087882,4.834620000000001 256.2537308788201,5.022480000000002 250.28013087882002,5.231520000000003 244.31073087882,5.462240000000001 238.34623087882002,5.715260000000008 232.38703087882,5.991210000000002 226.43343087882002,6.290770000000002 220.48563087882002,6.614629999999998 214.54383087882002,6.963540000000002 208.60863087882,7.3382000000000005 202.68163087882002,7.739380000000004 196.76333087882,8.168120000000002 190.85283087882001,8.625600000000006 184.94933087882,9.11262 179.05533087882,9.629660000000001 173.17463087882,10.177730000000004 167.30783087882003,10.758769999999998 161.45123087882,11.374659999999999 155.60343087882,12.026060000000001 149.76853087882,12.713160000000002 143.95193087882,13.437370000000001 138.15493087882,14.20093 132.37633087882,15.005980000000001 126.61623087881999,15.85418 120.87723087882,16.74711 115.16243087881999,17.6866 109.47533087881999,18.674600000000005 103.81879087882001,19.713610000000003 98.19511087882,20.806350000000002 92.60673087882,21.95559 87.05732087882001,23.163850000000004 81.55208087882,24.433710000000005 76.09722087882001,25.768080000000005 70.69960087882,27.16977 65.36725087882,28.642200000000003 60.10892087882,30.188380000000002 54.936000878819996,31.81136 49.86370087882,33.51263 44.91232087882,35.29276 40.10915087882,37.149910000000006 35.487210878819994,39.077870000000004 31.091990878819995,41.06449 26.974550878819997,43.08728 23.20066087882,45.111760000000004 19.83605087882,47.08729 16.918490878820002,48.96728 14.452480878820001,50.71443 12.399471878820002,52.311820000000004 10.707634878819999,53.756227 9.317040878819999,55.056602 8.17273087882,56.233722 7.22616787882,57.308674 6.4412918788199995,58.298068 5.79126287882,59.213372 5.25641587882,60.065658 4.82120117882,60.868119 4.47630337882,61.632093000000005 4.22394037882,62.361543000000005 4.06475303882,63.0539742 4.0,63.71279991 4.03456999882,64.3596829 4.17739017882,65.01594 4.44583467882,65.68137899999999 4.8503191788199995,66.33852 5.38143787882,66.975234 6.03203987882,67.589875 6.81083087882,68.194422 7.72626187882,68.803155 8.79750487882,69.42248000000001 10.05270587882,70.060425 11.53568687882,70.726583 13.30784987882,71.432255 15.44455087882,72.188238 18.027380878819997,72.995164 21.13330087882,73.85038 24.80671087882,74.73541 29.013950878819998,75.62322 33.66841087882,76.48035 38.65215087882,77.2792 43.88669087882,78.01084 49.30702087882,78.67509 54.85255087882,79.27494 60.47959087882,79.81134 66.16669087881999,80.28857 71.90550087881999,80.71146 77.68859087882,81.08497 83.50873087882,81.41347 89.35923087882,81.70115 95.23440087882,81.95154 101.13072087882,82.16743 107.04673087882,82.35168 112.98063087882,82.507 118.92803087882,82.63585 124.88503087882,82.73962 130.85073087882,82.81946 136.82603087882,82.87684 142.81083087882,82.91336 148.80423087882,82.93043 154.80403087882002,82.92925 160.80823087882,82.9108 166.81563087882003,82.87555 172.82693087882,82.82390000000001 178.84363087882,82.75674000000001 184.86643087882,82.67511 190.89483087882002,82.58 196.92753087882002,82.47235 202.96313087882,82.35288 209.00053087882,82.22192 215.04043087882,82.07979 221.08333087882002,81.92701 227.12913087882,81.76413 233.17713087882,81.59167000000001 239.22783087882,81.41001 245.28193087882002,81.21967000000001 251.33913087882001,81.02136 257.39783087882006,80.81563 263.45683087881997,80.60257 269.51763087882,80.38216 275.58243087882,80.15501 281.65163087881996,79.92199000000001 287.72403087882,79.6838 293.79813087881996,79.44096 299.87233087882,79.19379 305.94643087881997,78.94219 312.02163087882,78.68609000000001 318.09933087882,78.42587 324.17873087882,78.16205000000001 330.25853087882,77.89487 336.33903087882,77.6243 342.42213087882,77.35056 348.50793087881993,77.07427 354.59483087881995,76.79594 360.68133087881995,76.51556 366.76843087881997,76.23299 372.85783087882,75.94851 378.94953087882,75.66265 385.04223087881996,75.37574000000001 391.13533087882,75.08785 397.22883087881996,74.79908 403.32343087882,74.50957 409.41903087881997,74.21949000000001 415.51543087882,73.92901 421.61153087882,73.638295 427.70673087882,73.347703 433.80143087882,73.057602 439.89713087881995,72.768038 445.99333087881996,72.478771 452.08763087881994,72.189896 458.17863087881994,71.902135 464.26763087882,71.616089 470.35683087882,71.33172 476.44633087882,71.048868 482.53493087882,70.767674 488.62253087882,70.48840200000001 494.71103087882,70.211031 500.80083087881997,69.935212 506.88943087882,69.660875 512.97473087882,69.388731 519.05763087882,69.119476 525.14083087882,68.853099 531.22523087882,68.589318 537.30973087882,68.328076 543.39383087882,68.069479 549.4781308788199,67.813557 555.56253087882,67.560259 561.64543087882,67.309677 567.7253308788199,67.06238 573.80383087882,66.818953 579.88413087882,66.579222 585.96663087882,66.34257099999999 592.04813087882,66.108936 598.1270308788199,65.87894700000001 604.20493087882,65.653019 610.28383087882,65.430959 616.36313087882,65.21256600000001 622.44123087882,64.998056 628.51813087882,64.787779 634.5949308788199,64.5818184 640.6723308788199,64.3800268 646.74993087882,64.1823627 652.82693087882,63.9889773 658.9029308788199,63.80003338 664.97823087882,63.615671 671.0537308788199,63.4359932 677.13053087882,63.2608764 683.20793087882,63.0900771 689.28423087882,62.923645 695.3589308788199,62.761993700000005 701.43403087882,62.605334 707.51103087882,62.453293 713.58893087882,62.305507 719.66563087882,62.162167000000004 725.7408308788199,62.023667 731.8155308788199,61.890133 737.8908308788199,61.761465 743.96723087882,61.637564000000005 750.0437308788199,61.518357 756.1174308788201,61.403953 762.18683087882,61.295157 768.25443087882,61.192820000000005 774.32473087882,61.096709000000004 780.39743087882,61.005982 786.4682308788199,60.920583 792.53453087882,60.841452000000004 798.59823087882,60.769325 804.66153087882,60.704274 810.72373087882,60.646334 816.7832308788201,60.59592 822.84093087882,60.553572 828.89913087882,60.519389000000004 834.95753087882,60.493079 841.0124308788199,60.474785000000004 847.06203087882,60.46557 853.10923087882,60.466376000000004 859.15753087882,60.477058 865.2063308788199,60.497188 871.2525308788199,60.526997 877.29463087882,60.567182 883.33333087882,60.618374 889.3690308788199,60.681088 895.4011308788199,60.755838000000004 901.42973087882,60.84322 907.45733087882,60.943807 913.48663087882,61.05746 919.51613087882,61.183601 925.5414308788199,61.322342 931.56113087882,61.474769 937.57903087882,61.641794000000004 943.59763087882,61.823351 949.61343087882,62.019067 955.6239308788199,62.228707 961.63593087882,62.452432 967.6546308788201,62.689994 973.64493087882,62.939098200000004 979.5356308788199,63.1964873 985.29813087882,63.4622495 990.95553087882,63.73788136 996.2800308788201,64.0067988 1000.80103087882,64.2384616 1004.00003087882,64.4033" stroke="black" stroke-width="2.0" /></svg>