<?xml version="1.0" encoding="utf-8" ?>
<svg baseProfile="full" height="93.787525325" version="1.1" width="1012.0035870237999" xmlns="http://www.w3.org/2000/svg" xmlns:ev="http://www.w3.org/2001/xml-events" xmlns:xlink="http://www.w3.org/1999/xlink"><defs /><polygon fill="none" points="1004.0035870237999,83.11317 1000.9251870238,82.61641 996.8161870238,81.95360500000001 992.0887870237999,81.191368 986.8520870238,80.347229 981.2298870238,79.441033 975.3224870237999,78.489079 969.2304870237999,77.507611 963.0338870237999,76.509006 956.7793870238,75.50042 950.4898870238,74.48601000000001 944.1807870238,73.46882000000001 937.8626870238,72.45029000000001 931.5428870238001,71.43124 925.2271870238,70.41317000000001 918.9228870238,69.39784 912.6378870238,68.38469 906.3791870238,67.37326 900.1599870238,66.37190000000001 894.0075870237999,65.39500000000001 887.9214870238,64.45758000000001 881.8321870238001,63.56065 875.6675870237999,62.68320000000001 869.4225870238,61.808730000000004 863.1328870238,60.93321 856.8191870237999,60.053740000000005 850.4870870238,59.17036 844.1420870238,58.28517000000001 837.7906870237999,57.39943000000001 831.4372870238,56.51357 825.0838870238,55.627480000000006 818.7315870238,54.74092 812.3802870238001,53.854380000000006 806.0293870237999,52.96871000000001 799.6783870237999,52.08354 793.3269870238,51.19776 786.9751870238,50.31145 780.6227870238,49.425560000000004 774.2698870238,48.540060000000004 767.9159870238,47.65405 761.5607870238,46.76728000000001 755.2040870238001,45.880300000000005 748.8459870238,44.99342 742.4874870238,44.10662 736.1295870238,43.220000000000006 729.7734870238,42.333800000000004 723.4201870238,41.44812 717.0715870238,40.5629 710.7308870238,39.67868000000001 704.4038870237999,38.797070000000005 698.0998870238,37.91877 691.8320870238,37.042010000000005 685.6152870238,36.17122 679.4637870238,35.32235000000001 673.3852870238001,34.510470000000005 667.3553870238001,33.744800000000005 661.3153870238,33.02347 655.2150870238,32.331880000000005 649.0378870238001,31.65753000000001 642.8071870238,30.991220000000006 636.5747870238,30.334430000000005 630.3564870238,29.697170000000007 624.1146870238,29.07674 617.8222870238001,28.456879999999998 611.4902870238,27.829030000000003 605.1376870238,27.197480000000006 598.7719870238,26.565630000000006 592.3964870238,25.933280000000003 586.0153870238,25.300110000000004 579.6317870238,24.66677 573.2472870238,24.033680000000004 566.8621870238,23.400470000000006 560.4763870237999,22.766680000000008 554.0896870238,22.13257 547.7022870238,21.498590000000007 541.3147870237999,20.864950000000007 534.9278870237999,20.23169 528.5419870238001,19.598479999999995 522.1570870238,18.964829999999992 515.7726870238,18.330839999999995 509.38918702379993,17.697000000000003 503.0086870238,17.063600000000008 496.6366870238,16.431070000000005 490.2809870238,15.800790000000006 483.94818702379996,15.174360000000007 477.6487870238,14.549580000000006 471.4130870238,13.923339999999996 465.2648870238,13.310640000000006 459.1547870238,12.734350000000006 452.98968702379995,12.189310000000006 446.75038702380004,11.65486 440.4984870238,11.129080000000016 434.2670870238,10.620500000000007 428.0399870238,10.130560000000003 421.8045870238,9.657650000000004 415.5634870238,9.20132000000001 409.3236870238,8.761479999999992 403.0904870238,8.33908000000001 396.8635870238,7.935810000000004 390.6376870238,7.552080000000004 384.4095870238,7.187190000000001 378.18068702380003,6.840919999999997 371.9534870238,6.513490000000004 365.7301870238,6.205380000000005 359.5107870238,5.917410000000004 353.29258702379997,5.650080000000003 347.0743870238,5.403330000000011 340.8571870238,5.177310000000006 334.6397870238,4.972430000000003 328.41468702379996,4.788470000000004 322.17738702379995,4.623170000000002 315.9355870238,4.474559999999997 309.70058702380004,4.343699999999998 303.4760870238,4.232280000000003 297.26038702380004,4.141530000000003 291.0513870238,4.0724500000000035 284.8478870238,4.025579999999991 278.6501870238,4.001239999999996 272.4594870238,4.0 266.27558702379997,4.02264000000001 260.0981870238,4.069750000000013 253.92758702380002,4.141840000000002 247.7648870238,4.239539999999991 241.60978702379998,4.363630000000001 235.4607870238,4.514690000000002 229.3198870238,4.692900000000009 223.1915870238,4.898980000000009 217.0759870238,5.1347200000000015 210.9670870238,5.401390000000006 204.8632870238,5.69847 198.7717870238,6.025720000000007 192.69718702379998,6.384980000000013 186.6356870238,6.778260000000003 180.5830870238,7.205939999999998 174.54138702379998,7.668020000000013 168.5150870238,8.165139999999994 162.50688702379998,8.698250000000002 156.5182870238,9.268730000000005 150.5493870238,9.878010000000003 144.60128702379998,10.527050000000003 138.6775870238,11.216529999999992 132.7833870238,11.947900000000004 126.9218870238,12.722889999999992 121.0955870238,13.543540000000007 115.3054870238,14.411929999999998 109.5545870238,15.329470000000015 103.84956702379999,16.297070000000005 98.19804702379999,17.31662 92.60529702379999,18.39054 87.0760170238,19.521069999999995 81.6162770238,20.70988 76.2354070238,21.95798 70.9469070238,23.265180000000008 65.7657170238,24.632179999999998 60.7046270238,26.059480000000008 55.778417023799996,27.54544 51.0071170238,29.084990000000005 46.4180070238,30.66879 42.0445270238,32.28262 37.9239870238,33.909400000000005 34.0905070238,35.529250000000005 30.5685070238,37.124280000000006 27.3668870238,38.677910000000004 24.4841570238,40.17358 21.909347023800002,41.59813 19.6225970238,42.94474 17.5973370238,44.21204 15.8049570238,45.40303 14.217147023799999,46.523230000000005 12.8080430238,47.57967 11.5547390238,48.57968 10.437770023799999,49.530300000000004 9.440841023800001,50.43806 8.5502870238,51.308910000000004 7.7544320238,52.14752000000001 7.0436390238,52.95754 6.411457023800001,53.74326000000001 5.8530380238,54.509100000000004 5.3664220238,55.258990000000004 4.9507302238,55.99591 4.6062502238,56.72282 4.3351054238,57.44257 4.1454138238,58.15305000000001 4.0373697938,58.84812000000001 4.0,59.52951 4.0273325938,60.21203 4.1217296238,60.90948 4.2892263238,61.620020000000004 4.5359527238,62.33118 4.8675070238,63.03506 5.2849240238,63.72804000000001 5.7879370238,64.40544 6.3765500238,65.06385 7.051486023800001,65.70128 7.8145380238,66.31791000000001 8.6681960238,66.91541000000001 9.6164290238,67.49846 10.664917023800001,68.07186 11.824085023799999,68.63904 13.107174023799999,69.20377 14.531997023799999,69.76932000000001 16.1204370238,70.33995 17.9001170238,70.92061000000001 19.9037570238,71.51687 22.1698970238,72.13259000000001 24.742057023800005,72.77158 27.6645370238,73.43523 30.9741570238,74.12118000000001 34.696047023800006,74.82064 38.8431770238,75.52532000000001 43.3956270238,76.227869 48.2952970238,76.915634 53.477677023800005,77.57373700000001 58.8999270238,78.19693000000001 64.5137170238,78.785644 70.26327702379999,79.338104 76.11250702379999,79.852402 82.0483670238,80.331197 88.0531470238,80.778628 94.1022670238,81.195859 100.1854170238,81.582654 106.3066870238,81.941683 112.4634870238,82.277103 118.64258702379999,82.590723 124.83498702379998,82.88250500000001 131.0394870238,83.152945 137.2597870238,83.402972 143.50088702379998,83.634504 149.7593870238,83.850436 156.0229870238,84.051672 162.28788702379998,84.236611 168.5637870238,84.405376 174.85638702379998,84.560693 181.1601870238,84.70443800000001 187.4688870238,84.8367726 193.7817870238,84.957852 200.10028702379998,85.0679995 206.4252870238,85.1676734 212.7576870238,85.2576847 219.0988870238,85.3389784 225.4477870238,85.4127022 231.7994870238,85.4796498 238.1504870238,85.53926340000001 244.50448702379998,85.59109550000001 250.8654870238,85.63632150000001 257.2309870238,85.6762283 263.5943870238,85.71054894000001 269.9501870238,85.73840785 276.2988870238,85.75815958 282.6527870238,85.76850308 289.0254870238,85.77309602 295.4150870238,85.777444148 301.8106870238,85.78200379100001 308.2094870238,85.78456721570001 314.6160870238,85.7851545286 321.03028702380004,85.78519984900001 327.44728702379996,85.785221128 333.8636870238,85.785043196 340.2783870238,85.7849530575 346.6914870238,85.785621142 353.10328702379996,85.786774499 359.5149870238,85.787184315 365.9282870238,85.786603293 372.34378702379996,85.78601590400001 378.7612870238,85.78597139600001 385.1800870238,85.786294784 391.5994870238,85.786784532 398.01828702380004,85.787285997 404.4348870238,85.787525325 410.84808702379996,85.78698930600001 417.2577870238,85.785733623 423.6649870238,85.785196895 430.0714870238,85.78618474700001 436.47898702379996,85.787196147 442.8889870238,85.78693979900001 449.3018870238,85.786172118 455.7170870238,85.785867275 462.1332870238,85.786135395 468.5490870238,85.786779694 474.9637870238,85.787175688 481.3774870238,85.786772295 487.7909870238,85.786207178 494.2053870238,85.78638441 500.6211870238,85.787028828 507.0381870238,85.787411034 513.4557870238,85.78729997100001 519.8729870238,85.786757382 526.2893870238,85.78622783200001 532.7053870238,85.786328753 539.1219870238,85.786926222 545.5395870238,85.787370061 551.9574870238,85.787352193 558.3749870238,85.786875789 564.7915870238,85.786291496 571.2074870237999,85.786258941 577.6240870237999,85.786821231 584.0416870238,85.787310203 590.4603870238,85.787353868 596.8795870238,85.787029518 603.2989870238,85.786511468 609.7181870237999,85.78607633 616.1368870238,85.785955713 622.5545870238001,85.786280726 628.9708870238,85.786912239 635.3857870237999,85.787151187 641.8001870238,85.78664972 648.2146870238,85.786149273 654.6291870238,85.786190153 661.0432870238,85.786161452 667.4564870238,85.785569115 673.8684870238,85.7851677185 680.2795870238,85.78565173700001 686.6899870238,85.786166288 693.0999870238,85.785750206 699.5094870238,85.78518361900001 705.9186870238,85.78555309400001 712.3275870238,85.78615014100001 718.7357870238,85.78578465300001 725.1435870238,85.7851660373 731.5511870238,85.785717382 737.9596870237999,85.786907185 744.3704870238,85.787201474 750.7846870238,85.786520843 757.2020870238,85.785749515 763.6211870238,85.785284415 770.0409870238,85.78511479240001 776.4617870238,85.7851387622 782.8833870238,85.78518397500001 789.3055870238001,85.785179351 795.7280870238001,85.78516651630001 802.1506870238,85.7851672286 808.5734870238,85.78517086400001 814.9963870238,85.785170855 821.4193870238,85.7851697458 827.8422870238,85.7851695691 834.2651870238,85.785170201 840.6881870238,85.78517080900001 847.1110870238,85.7851695647 853.5338870238,85.7851672348 859.9564870238,85.785171035 866.3789870237999,85.785180075 872.8010870237999,85.7851680656 879.2225870238001,85.7851333254 885.6432870238,85.785170548 892.0626870238,85.785302642 898.4800870238,85.785191375 904.8955870238,85.7845979936 911.3092870237999,85.784168043026 917.7213870238,85.7845703718 924.1324870238,85.7851381009 930.5423870238,85.7849244758 936.9503870238001,85.7842858151 943.3543870238,85.7840276246 949.7495870237999,85.78413212074 956.1260870238,85.78420413184 962.4674870238,85.78417862584101 968.7487870238,85.784171751797 974.9250870238,85.78417982043901 980.9147870237999,85.78413620867 986.6124870238,85.78412561612001 991.9122870238,85.7842741872 996.7041870238,85.78430572570001 1000.8777870238,85.78387826800001 1004.0005870238,85.78317" stroke="black" stroke-width="2.0" /></svg>