<?xml version="1.0" encoding="utf-8" ?>
<svg baseProfile="full" height="139.38106" version="1.1" width="1012.00125338" xmlns="http://www.w3.org/2000/svg" xmlns:ev="http://www.w3.org/2001/xml-events" xmlns:xlink="http://www.w3.org/1999/xlink"><defs /><polygon fill="none" points="1004.00125338,105.07209999999999 1001.75695338,103.77276599999999 998.54115338,103.00320799999999 994.72295338,102.04613599999999 990.40915338,100.991543 985.45055338,99.828336 980.04355338,98.56876299999999 974.4965533799999,97.32055299999999 968.8217533799999,96.10671299999998 962.9778533799999,94.91345999999999 956.97235338,93.73007999999999 950.8489533799999,92.54453 944.6766533800001,91.35203999999999 938.50925338,90.15463999999999 932.36125338,88.94843999999999 926.2220533799999,87.72881 920.08455338,86.49369999999999 913.94905338,85.24407 907.81625338,83.98819999999999 901.68195338,82.73543 895.53655338,81.49306999999999 889.37545338,80.26252 883.21085338,79.04569999999998 877.0725533799999,77.84806999999999 870.99575338,76.68133999999999 864.99025338,75.55752999999999 859.03365338,74.48236 853.07735338,73.45510999999999 847.06865338,72.45936999999999 840.98665338,71.47609 834.85195338,70.49204999999999 828.7301533799999,69.50025 822.69835338,68.49467999999999 816.7953533799999,67.46477999999999 811.02075338,66.39578 805.34495338,65.26925 799.72185338,64.07265999999998 794.11225338,62.80150999999999 788.4887533799999,61.452479999999994 782.8353533799999,60.023709999999994 777.1471533800001,58.51595 771.4263533799999,56.93368999999999 765.6765533800001,55.28310999999999 759.90295338,53.571299999999994 754.11185338,51.806239999999995 748.31045338,49.99815999999999 742.50385338,48.163779999999996 736.6966533799999,46.32168999999999 730.89295338,44.49043999999999 725.09635338,42.688289999999995 719.31065338,40.93091 713.53985338,39.224969999999985 707.78345338,37.573599999999985 702.03675338,35.978539999999995 696.2903533799999,34.44042999999999 690.53055338,32.95846999999999 684.7442533799999,31.527789999999996 678.9231533799999,30.143289999999993 673.06395338,28.801299999999998 667.16925338,27.49944999999998 661.24775338,26.23662999999999 655.31105338,25.01438999999999 649.3679533799999,23.835179999999994 643.4231533799999,22.700469999999996 637.47685338,21.610799999999983 631.5249533799999,20.565949999999987 625.56025338,19.564229999999995 619.57615338,18.602509999999995 613.56865338,17.67806999999999 607.53655338,16.78864 601.4810533799999,15.932369999999992 595.40635338,15.107969999999995 589.3172533799999,14.315249999999992 583.21765338,13.554109999999994 577.11055338,12.824219999999983 570.99775338,12.12509 564.88035338,11.456119999999984 558.7584533799999,10.816969999999984 552.63205338,10.20747999999999 546.50125338,9.627499999999984 540.36615338,9.076889999999992 534.22685338,8.555509999999998 528.08355338,8.063199999999995 521.93645338,7.599759999999989 515.78555338,7.165019999999998 509.63125338,6.758769999999984 503.47365338,6.380829999999989 497.31305338,6.031019999999984 491.14955338,5.709209999999999 484.98355337999993,5.415259999999989 478.81535338,5.149039999999999 472.64505338,4.9103999999999814 466.47325337999996,4.699299999999994 460.30015338,4.515699999999981 454.12645338,4.359700000000004 447.95285337999997,4.231499999999983 441.78035337999995,4.131199999999993 435.60995338,4.058899999999994 429.44295337999995,4.014899999999997 423.28035338,4.0 417.12265338000003,4.0146000000000015 410.96995338,4.0595 404.82215338,4.1351999999999975 398.67875338,4.2423 392.53915337999996,4.380999999999986 386.40295338,4.551799999999986 380.26975338,4.754899999999992 374.13935338,4.990599999999986 368.01155338,5.25927999999999 361.88625337999997,5.560999999999993 355.76335338,5.895879999999991 349.64305337999997,6.2639799999999894 343.52525338,6.665390000000002 337.41025338,7.100179999999995 331.29805338,7.568279999999987 325.18845338,8.069639999999993 319.08105338,8.604219999999984 312.97505338,9.17201999999999 306.86975337999996,9.773029999999991 300.76425337999996,10.406989999999993 294.65865338,11.073509999999985 288.55375338,11.772099999999995 282.45115337999994,12.50215 276.35315338,13.263149999999996 270.26205338,14.055289999999985 264.17945338,14.878949999999989 258.10605338000005,15.734619999999993 252.04175338000002,16.62285 245.98575338,17.544139999999985 239.93675338,18.498649999999998 233.89325338000003,19.486619999999988 227.85345338000002,20.50833 221.81565338,21.56412999999999 215.77795338,22.653879999999987 209.74045338000002,23.776929999999993 203.70455338000002,24.932299999999998 197.67385338,26.118639999999985 191.65295338,27.334909999999994 185.64545338000002,28.581309999999988 179.65245338000003,29.85861 173.67235338,31.168139999999994 167.70135338,32.51143999999999 161.73635338,33.889059999999986 155.77715338,35.300709999999995 149.82675338,36.74535999999999 143.89115338000002,38.221699999999984 137.97635338000003,39.72992999999998 132.08525338,41.271159999999995 126.21775338,42.847219999999986 120.37185338,44.46020999999999 114.54635337999999,46.11136999999999 108.74325338,47.80105999999999 102.96759338,49.52890999999999 97.22772338,51.29545999999999 91.53499337999999,53.10099999999999 85.90296338,54.944689999999994 80.34657338,56.82730999999999 74.87736338,58.75329999999999 69.50093337999999,60.72834999999999 64.21930338000001,62.75878999999999 59.03762338,64.84913999999999 53.96582338,67.00103999999999 49.018303380000006,69.21355 44.21388338,71.48285999999999 39.573253380000004,73.80189999999999 35.13053338,76.15762 30.950463380000002,78.51695999999998 27.10305338,80.83350999999999 23.633303380000005,83.07320999999999 20.54315338,85.21892 17.81481338,87.26091 15.455993379999999,89.16783999999998 13.46339438,90.90558999999999 11.79873838,92.46826999999999 10.40446238,93.87995 9.22222838,95.17286399999999 8.20631238,96.37403599999999 7.32561138,97.504195 6.567276380000001,98.573219 5.92464838,99.579185 5.38828338,100.518594 4.94532628,101.39115199999999 4.58901628,102.199839 4.31907628,102.95422799999999 4.13182738,103.668342 4.02496358,104.35610199999999 4.0,105.03096898 4.06181752,105.70561609999999 4.21144088,106.385184 4.45328778,107.06920699999999 4.79744418,107.75180399999999 5.2583253800000005,108.41805 5.84854338,109.053524 6.57463438,109.65862899999999 7.43868138,110.238588 8.43510538,110.805004 9.55887838,111.37315899999999 10.833884379999999,111.94892599999999 12.29721038,112.53921499999998 13.99676338,113.157474 15.99194338,113.82078999999999 18.35029338,114.53600999999999 21.13620338,115.30734 24.40789338,116.13917 28.204013380000003,117.02051999999999 32.50262338,117.92667999999999 37.24644338,118.83138 42.34471338,119.70857 47.704973380000006,120.54149 53.25902338,121.32100999999999 58.95592338,122.04498999999998 64.76753338,122.71636999999998 70.67216338,123.33988 76.64989338,123.92124 82.68383338,124.46400999999999 88.75983337999999,124.97161 94.86685338,125.44752 100.99705337999998,125.89334 107.14525338,126.31056999999998 113.30885338,126.70091 119.48655337999999,127.06571 125.67635338,127.40623 131.87585338,127.72368 138.08245338000003,128.01886 144.29485338,128.29228 150.51355338000002,128.54451999999998 156.74085338,128.7764 162.97895338,128.98931 169.22855338,129.18473 175.48875338,129.3641 181.75725338,129.52865 188.03195338,129.6791 194.31225338000002,129.81617999999997 200.59905338,129.94065 206.89475338000003,130.05348999999998 213.20125338,130.15618 219.51925338,130.25026 225.84765338,130.33729 232.18405338,130.41861999999998 238.52565338,130.49488 244.87055338000002,130.56646999999998 251.21775338,130.63380999999998 257.56735338,130.69733 263.92015338,130.75751 270.27675338,130.81489 276.63715338,130.86996 283.00075338,130.92325 289.36655337999997,130.97514999999999 295.73325337999995,131.02564 302.09945337999994,131.07459 308.46405337999994,131.12187999999998 314.82555338,131.16737 321.18265338,131.21066 327.53455338,131.25090999999998 333.88035338,131.28725 340.21985337999996,131.31880999999998 346.55285338,131.34474999999998 352.87985338,131.36426 359.20095338,131.37661 365.51695337999996,131.38106 371.82845338,131.37685 378.13635338,131.36327999999997 384.44135338,131.33999999999997 390.74485338,131.30697999999998 397.04795338,131.26418 403.35215338,131.21157 409.65905338,131.14911 415.97035337999995,131.07718 422.28715337999995,130.99657 428.60975338,130.90807999999998 434.93795338,130.81252999999998 441.27085337999995,130.71076 447.60675338,130.60327999999998 453.94425337999996,130.49018 460.28195337999995,130.37151999999998 466.61875338,130.24737 472.95385338,130.11777 479.28665338,129.9826 485.61665338,129.84141 491.94345338,129.69370999999998 498.26635338,129.53899 504.58505338,129.37678 510.89905337999994,129.20665 517.20855338,129.02832 523.5145533799999,128.84152 529.81905338,128.64595 536.12495338,128.44126999999997 542.43605338,128.22726999999998 548.75585338,128.00477999999998 555.08565338,127.77501 561.42485338,127.53929 567.77035338,127.29902999999999 574.1169533799999,127.05554 580.4585533799999,126.8085 586.7909533799999,126.55668999999999 593.11215338,126.29883999999998 599.42245338,126.03359999999999 605.72395338,125.75956 612.02015338,125.47583999999999 618.31325338,125.18191999999999 624.60385338,124.87736999999998 630.8908533800001,124.56182999999999 637.1717533799999,124.23498999999998 643.4430533799999,123.89603 649.70285338,123.54364999999999 655.95105338,123.17643999999999 662.1893533800001,122.79292 668.4213533799999,122.39152999999999 674.65195338,121.97198999999999 680.88565338,121.53509 687.12665338,121.08161 693.37815338,120.61237 699.6428533799999,120.12826 705.92255338,119.63071 712.21715338,119.12159999999999 718.5240533799999,118.60306 724.83875338,118.07740999999999 731.15435338,117.54674999999999 737.46435338,117.01104 743.76525338,116.4694 750.0571533799999,115.92063999999999 756.34325338,115.36335 762.6295533800001,114.796702 768.92095338,114.22120399999999 775.21965338,113.63766 781.52525338,113.04713 787.83495338,112.45077199999999 794.14485338,111.84910599999999 800.4529533799999,111.242302 806.7592533799999,110.630359 813.06525338,110.013308 819.37255338,109.393097 825.67835338,108.773074 831.97535338,108.157068 838.25145338,107.54951499999999 844.49415338,106.956773 850.69735338,106.385453 856.86145338,105.8412728 862.9928533799999,105.328892 869.1001533799999,104.85083809999999 875.19025338,104.4091742 881.26855338,104.006177 887.33845338,103.643701 893.40285338,103.32246099999999 899.46405338,103.04309599999999 905.5246533799999,102.80613899999999 911.58725338,102.61085399999999 917.65635338,102.455958 923.73785338,102.340295 929.8322533799999,102.263346 935.91935338,102.224955 941.95765338,102.225759 947.91865338,102.27463099999999 953.83105338,102.38390299999999 959.7660533799999,102.55842399999999 965.74755338,102.78416299999999 971.6989533799999,103.044023 977.51575338,103.33447799999999 983.13245338,103.64532799999999 988.38155338,103.92453599999999 993.0557533799999,104.1978638 997.1980533799999,104.56210209999999 1000.96185338,104.84646989999999 1004.00125338,105.07209999999999" stroke="black" stroke-width="2.0" /></svg>