<?xml version="1.0" encoding="utf-8" ?>
<svg baseProfile="full" height="117.87953" version="1.1" width="1012.0047053" xmlns="http://www.w3.org/2000/svg" xmlns:ev="http://www.w3.org/2001/xml-events" xmlns:xlink="http://www.w3.org/1999/xlink"><defs /><polygon fill="none" points="1004.0047053,84.64999 1001.4177053,84.0324213 998.5782052999999,83.7151134 995.6879052999999,82.994967 992.4943053,82.137952 988.8338053,81.313042 984.6359053,80.429392 979.9105053,79.426383 974.7187052999999,78.329392 969.1155053,77.158931 963.1832053,75.92688000000001 957.0362053,74.654793 950.7639053,73.36566 944.3968052999999,72.06769 937.9522053,70.76002 931.4657053,69.44556 924.9746053,68.13364 918.4918052999999,66.83103 912.0060053,65.53792 905.5054053,64.25044 898.9918053,62.96692 892.4786053,61.68929 885.9758052999999,60.42129 879.4817052999999,59.16460000000001 872.9842053,57.918040000000005 866.4718053,56.67772 859.9421052999999,55.44093000000001 853.4027053,54.20700000000001 846.8667052999999,52.978440000000006 840.3417053,51.758340000000004 833.8285053,50.54844 827.3211052999999,49.348960000000005 820.8128053,48.15860000000001 814.3010052999999,46.97652 807.7878053,45.80275 801.2797052999999,44.638510000000004 794.7826053,43.4863 788.2990053,42.34821000000001 781.8274052999999,41.22563 775.3632052999999,40.1191 768.9012052999999,39.02796 762.4378052999999,37.95166 755.9718052999999,36.88998 749.5038053,35.843070000000004 743.0355053,34.81141 736.5680053,33.79546 730.1016053,32.79555 723.6354052999999,31.81183 717.1680052999999,30.844290000000008 710.6982052999999,29.892750000000007 704.2259052999999,28.9572 697.7520053,28.037730000000003 691.2784052999999,27.134619999999998 684.8073052999999,26.248480000000008 678.3396052999999,25.379940000000005 671.8746053,24.529420000000002 665.4100053,23.69713 658.9421053,22.883000000000003 652.4673052999999,22.08616 645.9837052999999,21.305750000000003 639.4919053,20.541150000000002 632.9945053,19.792020000000008 626.4960053,19.058449999999993 620.0007052999999,18.341459999999998 613.5105053,17.641940000000005 607.0251053,16.96052999999999 600.5417053,16.297650000000004 594.0557053,15.653160000000014 587.5632052999999,15.026110000000003 581.0620052999999,14.415639999999996 574.5521053,13.82108000000001 568.0360052999999,13.241980000000012 561.5176052999999,12.678299999999993 555.0006053,12.130539999999996 548.4860052999999,11.59912 541.9729053,11.084240000000008 535.4579052999999,10.585939999999994 528.9359053,10.103839999999991 522.4031053,9.636920000000003 515.8594052999999,9.184340000000006 509.3085053,8.745490000000004 502.7575053,8.319960000000009 496.2167053,7.908370000000005 489.6944053,7.513120000000001 483.1935053,7.136520000000004 476.7120053,6.7805099999999925 470.2428053,6.446780000000004 463.7753053,6.136009999999999 457.3000053,5.846910000000008 450.81240529999997,5.578190000000006 444.3131053,5.328800000000001 437.80830530000003,5.097850000000008 431.3084053,4.885249999999999 424.82280529999997,4.692759999999993 418.3553053,4.5221599999999995 411.9041053,4.375020000000006 405.4621053,4.252849999999995 399.0179053,4.156330000000011 392.5619053,4.084189999999992 386.09020530000004,4.035020000000003 379.6055053,4.007429999999999 373.1173053,4.0 366.6399053,4.012419999999992 360.1849053,4.046810000000008 353.7559053,4.105500000000006 347.3490053,4.190820000000002 340.9526053,4.305220000000006 334.5504053,4.449610000000007 328.1306053,4.622370000000004 321.6901053,4.821570000000008 315.2350053,5.044940000000011 308.7812053,5.289940000000001 302.3487053,5.556809999999999 295.9497053,5.848280000000003 289.5851053,6.167429999999996 283.2456053,6.51782 276.9131053,6.9029000000000025 270.56880530000007,7.322540000000004 264.20460529999997,7.7750600000000105 257.82360530000005,8.257999999999996 251.44150530000002,8.767849999999996 245.08190530000002,9.302979999999991 238.7607053,9.865650000000002 232.48000530000002,10.459279999999993 226.2292053,11.088490000000007 219.9859053,11.758099999999999 213.72930530000002,12.46866 207.4523053,13.21826 201.1637053,14.003110000000007 194.8881053,14.817689999999999 188.6545053,15.661029999999997 182.4756053,16.536479999999997 176.34570530000002,17.449709999999996 170.2426053,18.40853 164.13770530000002,19.417150000000007 158.0169053,20.474680000000006 151.8857053,21.576930000000004 145.76970530000003,22.716460000000005 139.7005053,23.890210000000003 133.6918053,25.100870000000008 127.73660530000001,26.35488000000001 121.8112053,27.660830000000004 115.8964053,29.02145000000001 109.9961053,30.433370000000004 104.1384053,31.887360000000008 98.3640253,33.377030000000005 92.6954753,34.905280000000005 87.1302453,36.48054 81.6494053,38.11315 76.24289529999999,39.80595 70.9228953,41.55415 65.7196653,43.347480000000004 60.6660653,45.178920000000005 55.78253529999999,47.0444 51.0793553,48.94063 46.574875299999995,50.85642 42.30427529999999,52.76972 38.3057953,54.65522 34.6113753,56.495400000000004 31.235075300000002,58.276900000000005 28.1718353,59.99068 25.4065553,61.63172 22.9187853,63.19711 20.6833153,64.68654000000001 18.6739953,66.10163 16.8693753,67.44282 15.2504053,68.71011 13.7980513,69.90493000000001 12.4939203,71.03091 11.3224293,72.09584000000001 10.2684753,73.1084 9.3177933,74.07625 8.457737300000002,75.005852 7.6783722999999995,75.90295 6.9781213,76.77417700000001 6.357795299999999,77.624566 5.8166653,78.4571 5.3525933,79.27352400000001 4.9623175,80.074821 4.6425247,80.859522 4.3900493,81.625136 4.201427,82.372382 4.07400531,83.10402 4.006606287,83.82401850000001 4.0,84.537295 4.05682315,85.2494916 4.1784035,85.964286 4.3671514,86.682867 4.6278203,87.404157 4.9670039,88.12393900000001 5.391784299999999,88.834298 5.9050253,89.531361 6.5061363,90.215354 7.1925943,90.887272 7.9594313,91.549138 8.7992843,92.20419700000001 9.712168300000002,92.853931 10.7059893,93.497774 11.790251300000001,94.135178 12.9762843,94.76579000000001 14.2778753,95.38965 15.7123053,96.0084 17.3005653,96.62595 19.066375299999997,97.24863 21.0331353,97.88636 23.219945300000003,98.55016 25.649875299999998,99.23753 28.3415353,99.9374 31.3156853,100.63582 34.6191953,101.3261 38.3117253,102.01411 42.433405300000004,102.71004 46.9577253,103.41737 51.796225299999996,104.10981000000001 56.872915299999995,104.75966 62.187745299999996,105.35769 67.7622953,105.91318000000001 73.5696653,106.43628000000001 79.5246053,106.92644 85.55152530000001,107.37411 91.62843529999999,107.77488 97.7765553,108.13224 104.00580529999999,108.4531 110.2940053,108.7432 116.5958053,109.0023 122.8843053,109.22535 129.16640529999998,109.40853 135.47770530000003,109.55168 141.8494053,109.6617 148.28480530000002,109.74609000000001 154.7538053,109.81178 161.2098053,109.85804 167.62900530000002,109.87953 174.01870530000002,109.87126 180.41330530000002,109.82974 186.8512053,109.75893 193.34830530000002,109.66514000000001 199.8933053,109.55527000000001 206.44670530000002,109.43472 212.9685053,109.30045 219.4430053,109.14734 225.87980530000002,108.97001 232.3102053,108.76384 238.7693053,108.53088 245.27570530000003,108.2755 251.82860530000002,108.00293 258.4059053,107.71911 264.97400530000004,107.42513 271.5111053,107.11825999999999 278.01280529999997,106.7951 284.4901053,106.45156 290.96720530000005,106.08503 297.4655053,105.69707 303.9961053,105.29025 310.55780530000004,104.86791 317.1374053,104.43402 323.71500530000003,103.99000000000001 330.2773053,103.53494 336.8211053,103.0673 343.35220530000004,102.58492000000001 349.88530529999997,102.08572000000001 356.4359053,101.57056 363.0129053,101.04149000000001 369.61780530000004,100.50123 376.2438053,99.95318 382.8770053,99.40009 389.5045053,98.84196 396.1190053,98.27807 402.7194053,97.7072 409.3105053,97.12768 415.9013053,96.53926 422.5002053,95.94392 429.11210530000005,95.34404 435.7391053,94.74229 442.37980530000004,94.141581 449.0300053,93.54288 455.68490529999997,92.945228 462.3401053,92.347572 468.9914053,91.748831 475.6350053,91.14807400000001 482.2681053,90.546404 488.8906053,89.946121 495.5049053,89.349298 502.1158053,88.757769 508.7307053,88.172937 515.3569053000001,87.594049 521.9977053,87.019481 528.6514053,86.448018 535.3112053,85.87885800000001 541.9652052999999,85.3119429 548.6013052999999,84.74983564 555.2126053,84.1957582 561.7988052999999,83.652338 568.3654053,83.121661 574.9233053,82.604982 581.4844053,82.101168 588.0555052999999,81.60863400000001 594.6378053,81.126251 601.2267052999999,80.65329700000001 607.8121053,80.189859 614.3836052999999,79.738135 620.9360052999999,79.300521 627.4693053,78.87899 633.9887053,78.475161 640.5040052999999,78.089732 647.0245053,77.721388 653.5559053,77.3687 660.0999052999999,77.030496 666.6538052999999,76.705815 673.2115053,76.39443200000001 679.7675052999999,76.097099 686.3182052999999,75.81452300000001 692.8627052999999,75.547284 699.4023052999999,75.295839 705.9398053,75.0603 712.4772052999999,74.84060000000001 719.0153053,74.63672 725.5536053,74.4487 732.0907053,74.27663 738.6250053,74.12084 745.1559053,73.98165 751.6838053,73.85935 758.2098053,73.75423 764.7353052999999,73.66646 771.2604052999999,73.59619 777.7828053,73.54356 784.2988052999999,73.50871000000001 790.8034052999999,73.49225 797.2947053,73.49541 803.7752053,73.51945 810.2514053,73.56566000000001 816.7331052999999,73.63446 823.2267052999999,73.72457 829.7313052999999,73.83448 836.2391053,73.96252 842.7373053,74.10842 849.2182052999999,74.27399 855.6831052999999,74.46131 862.1423052999999,74.67254 868.6086052999999,74.90759800000001 875.0871053,75.16485 881.5723052999999,75.44224 888.0505052999999,75.738601 894.5120052999999,76.055414 900.9582052999999,76.394901 907.4003052999999,76.75903600000001 913.8476052999999,77.14696 920.2967053,77.556481 926.7322053,77.985607 933.1378053,78.43544800000001 939.5065053,78.908118 945.8364053,79.404404 952.1138053,79.922019 958.3073052999999,80.456953 964.3636053,81.00345800000001 970.2089052999999,81.554355 975.7558052999999,82.109251 980.9174052999999,82.662101 985.6600053,83.15624 990.0138053,83.547848 994.0015053,83.9265969 997.6272052999999,84.33652620000001 1001.0321053,84.5215542 1004.0047053,84.64999" stroke="black" stroke-width="2.0" /></svg>