<?xml version="1.0" encoding="utf-8" ?>
<svg baseProfile="full" height="144.04022" version="1.1" width="1011.997142932" xmlns="http://www.w3.org/2000/svg" xmlns:ev="http://www.w3.org/2001/xml-events" xmlns:xlink="http://www.w3.org/1999/xlink"><defs /><polygon fill="none" points="1003.997142932,106.7992 1000.823942932,105.64076 996.810942932,104.430331 992.282442932,103.281442 987.264142932,102.118075 981.890142932,100.93859 976.275742932,99.765158 970.483142932,98.612295 964.5421429319999,97.475537 958.478742932,96.34667 952.331542932,95.21992 946.1603429319999,94.09649999999999 940.008842932,92.99068 933.8745429319999,91.91139 927.725942932,90.85067000000001 921.551542932,89.7926 915.373042932,88.7282 909.224942932,87.66935 903.118442932,86.63452 897.0385429319999,85.63595 890.9579429319999,84.66469000000001 884.857842932,83.69876 878.731342932,82.7175 872.581542932,81.70826 866.412942932,80.67412999999999 860.2279429319999,79.62013999999999 854.027242932,78.55088 847.8149429319999,77.46692999999999 841.613342932,76.36811 835.464442932,75.2581 829.426042932,74.14274 823.548342932,73.01384999999999 817.839042932,71.85070999999999 812.268242932,70.62792999999999 806.779242932,69.31433999999999 801.2936429319999,67.8851 795.736742932,66.33788 790.0571429319999,64.67734 784.2328429319999,62.918169999999996 778.284242932,61.091120000000004 772.271242932,59.23159 766.249342932,57.36607 760.249342932,55.5134 754.275642932,53.68398 748.309042932,51.879129999999996 742.326042932,50.09114 736.3152429319999,48.31385 730.278642932,46.54512 724.2323429319999,44.786809999999996 718.2038429319999,43.04714 712.215342932,41.3407 706.2755429319999,39.67886999999999 700.380642932,38.06888000000001 694.515442932,36.514619999999994 688.656942932,35.015209999999996 682.784642932,33.56371 676.8859429319999,32.15446 670.955442932,30.78394999999999 664.9960429319999,29.450590000000005 659.018342932,28.154899999999998 653.034242932,26.900269999999992 647.051142932,25.6896 641.071142932,24.524540000000002 635.091242932,23.405750000000012 629.1033429319999,22.332800000000006 623.097442932,21.302329999999998 617.066642932,20.310180000000003 611.007642932,19.352890000000002 604.9208429319999,18.42761999999999 598.811042932,17.532079999999993 592.685642932,16.66573000000001 586.5512429319999,15.829449999999994 580.412542932,15.023809999999997 574.272242932,14.249030000000005 568.130742932,13.50506999999999 561.9869429319999,12.791539999999998 555.838942932,12.107899999999987 549.685442932,11.45362999999999 543.5254429319999,10.828279999999992 537.358542932,10.231489999999994 531.184642932,9.662900000000008 525.0040429320001,9.122119999999995 518.817242932,8.608709999999988 512.625242932,8.122299999999996 506.429242932,7.662459999999996 500.230742932,7.228849999999994 494.03124293199994,6.821559999999991 487.831942932,6.4410000000000025 481.633342932,6.0874999999999915 475.43564293199995,5.761499999999998 469.238142932,5.4632000000000005 463.040142932,5.192700000000002 456.840742932,4.950000000000003 450.639542932,4.734899999999996 444.436642932,4.547299999999993 438.23214293199993,4.387199999999993 432.026942932,4.25439999999999 425.821642932,4.149199999999993 419.61684293199994,4.071600000000004 413.412842932,4.021900000000002 407.2097429319999,4.0 401.00744293199995,4.0061000000000035 394.805742932,4.040400000000005 388.604942932,4.102899999999991 382.405142932,4.193899999999999 376.20714293199995,4.313299999999998 370.011742932,4.4613000000000085 363.81974293199994,4.638199999999998 357.631842932,4.844500000000011 351.44804293199996,5.08059999999999 345.268342932,5.346800000000002 339.09214293199994,5.643799999999999 332.91874293199993,5.9716999999999985 326.74784293199997,6.330799999999996 320.58004293199997,6.721199999999996 314.416042932,7.143000000000001 308.257542932,7.596310000000003 302.106142932,8.081540000000004 295.96274293199997,8.59939 289.82764293199995,9.150570000000002 283.699842932,9.73593000000001 277.577942932,10.35627000000001 271.46024293199997,11.011870000000002 265.345842932,11.70272 259.234842932,12.428709999999995 253.128442932,13.189609999999988 247.02854293200002,13.985240000000005 240.937142932,14.81595 234.855442932,15.682220000000001 228.78414293199998,16.58462 222.722842932,17.52382 216.671042932,18.500529999999998 210.628942932,19.515299999999996 204.598042932,20.568480000000008 198.580542932,21.660210000000006 192.579942932,22.79075999999999 186.598942932,23.961299999999994 180.63884293200002,25.1734 174.699242932,26.428910000000002 168.778142932,27.729839999999996 162.87334293199999,29.07727 156.983442932,30.471760000000003 151.108542932,31.913650000000004 145.249942932,33.40315 139.41114293200002,34.94113 133.598142932,36.52802 127.819542932,38.16336 122.085542932,39.84619000000001 116.40104293200001,41.57808 110.75894293200001,43.364399999999996 105.14084293200001,45.2147 99.522892932,47.13799 93.905452932,49.13127 88.32798293200001,51.17654 82.862822932,53.24727 77.563372932,55.34444 72.41643293199999,57.496880000000004 67.355582932,59.752790000000005 62.290352932,62.14334 57.170532932,64.66660999999999 52.012052932,67.28873 46.901482932,69.95788999999999 41.95872293200001,72.61281 37.300062932,75.1991 33.009392932,77.71127 29.109552932,80.16242 25.586352932,82.55643 22.419472932,84.87853 19.587282932,87.11335 17.081652931999997,89.23555999999999 14.919852932,91.19417 13.094268932,92.95438 11.563804932,94.52 10.270437932,95.92534 9.160060932,97.207751 8.192043932,98.396762 7.339847932,99.514956 6.595216932,100.57389 5.956152932,101.571593 5.417161932,102.503585 4.967981932,103.368663 4.603305432,104.169036 4.325475732,104.913687 4.132307032,105.61722999999999 4.022708712,106.2945813 4.0,106.96054889999999 4.067232542,107.6296796 4.221106232,108.312966 4.462929632,109.018607 4.798009832,109.751463 5.231854932,110.508895 5.769172932,111.280631 6.417121932000001,112.058257 7.179321932,112.833697 8.056436932,113.601628 9.052105932,114.3635 10.185532932000001,115.127992 11.487969932,115.907799 12.997840931999999,116.720484 14.751052931999999,117.58741 16.774952931999998,118.50994 19.087632931999998,119.46468 21.701762932,120.41978 24.662282931999997,121.35594 28.043102932,122.27387999999999 31.907332932,123.17723 36.259322932,124.05959 41.025412932,124.90057999999999 46.078332932,125.6883 51.307472932,126.39795000000001 56.672272932000006,127.00480999999999 62.226692932,127.51252 68.032792932,127.96731 74.062762932,128.42328 80.188762932,128.89346 86.307712932,129.34963 92.400342932,129.76961 98.501262932,130.15049 104.639142932,130.49782 110.824642932,130.81591 117.053842932,131.10908 123.317242932,131.38232 129.602942932,131.64082 135.897542932,131.88774999999998 142.19184293200001,132.12222 148.48354293199998,132.34316 154.77764293200002,132.5499 161.08244293200002,132.74386 167.402142932,132.92749 173.735242932,133.10313 180.074742932,133.27257 186.412542932,133.43538 192.74474293199998,133.5905 199.072642932,133.73702 205.401942932,133.87445 211.73924293200002,134.00407 218.08744293200002,134.12761 224.44544293200002,134.24677 230.807642932,134.36295 237.166742932,134.47578 243.518442932,134.58395 249.86254293200003,134.68623 256.202342932,134.78147 262.54434293199995,134.86955 268.89354293199995,134.95184 275.252342932,135.0298 281.619842932,135.10485 287.99224293199995,135.17819 294.364642932,135.24972 300.733442932,135.31876 307.09754293199995,135.38466 313.457442932,135.44679 319.815942932,135.5048 326.17564293199996,135.55901 332.53824293199995,135.60986 338.904042932,135.65778 345.27254293199996,135.70317 351.64194293199995,135.74623 358.01084293199995,135.78678 364.378242932,135.82463 370.743942932,135.85958 377.10864293199995,135.89145 383.473142932,135.92016 389.83844293199996,135.94583 396.204542932,135.96856 402.57114293199993,135.98844 408.93744293199995,136.00558 415.3021429319999,136.01982 421.664142932,136.03067 428.022842932,136.03764 434.378142932,136.04022 440.730542932,136.03791999999999 447.080542932,136.03036 453.42904293199996,136.0173 459.77624293199995,135.99853 466.122342932,135.97385 472.46714293199994,135.94305 478.81004293199993,135.90589 485.150642932,135.86207 491.48904293199996,135.81127 497.825442932,135.75315 504.160342932,135.68741 510.49464293200003,135.61379 516.8293429319999,135.53242 523.1649429319999,135.44349 529.501742932,135.34719 535.839842932,135.24373 542.178942932,135.13327 548.518442932,135.01571 554.857542932,134.89088 561.195242932,134.7586 567.5301429319999,134.6187 573.860742932,134.471 580.185742932,134.31511 586.505242932,134.15044 592.820342932,133.9764 599.133942932,133.79234 605.449942932,133.59761 611.772842932,133.39249 618.104542932,133.17802 624.444042932,132.95534 630.787242932,132.72574 637.127142932,132.49051 643.455142932,132.24915 649.766842932,131.99954 656.0622429319999,131.73939000000001 662.346242932,131.46624 668.6283429319999,131.17758 674.920042932,130.87362000000002 681.228542932,130.55675 687.5554429319999,130.22974 693.896142932,129.89569 700.2399429320001,129.55759 706.573242932,129.21437 712.8862429320001,128.86278 719.173542932,128.49944 725.4342429320001,128.12079 731.6715429320001,127.72377 737.8915429319999,127.30718999999999 744.102742932,126.87013999999999 750.315642932,126.41141 756.543142932,125.92952 762.7985429319999,125.42571 769.0858429319999,124.90554 775.395142932,124.37621999999999 781.7013429319999,123.84638 787.966642932,123.32221 794.1605429319999,122.79488 800.2782429319999,122.25049 806.339942932,121.67381 812.386642932,121.04885 818.4697429319999,120.37317 824.623642932,119.65561 830.857142932,118.90859 837.1490429319999,118.14866 843.455742932,117.38597 849.745842932,116.62066 856.013342932,115.849622 862.275742932,115.067424 868.5570429320001,114.272318 874.857742932,113.467791 881.148142932,112.661311 887.377042932,111.867378 893.514742932,111.10648499999999 899.572842932,110.393694 905.597042932,109.737292 911.636242932,109.131272 917.706942932,108.567754 923.787242932,108.04311 929.838542932,107.5629549 935.849142932,107.1352909 941.8401429319999,106.76489443 947.829742932,106.4517733 953.784642932,106.1962325 959.635442932,106.0067503 965.379642932,105.9038567 971.111542932,105.8994542 976.867242932,105.9609738 982.456342932,106.0502715 987.669742932,106.1943768 992.4616429319999,106.43122939999999 996.799642932,106.76996817999999 1000.738242932,106.9687952 1003.997142932,106.7992" stroke="black" stroke-width="2.0" /></svg>