<?xml version="1.0" encoding="utf-8" ?>
<svg baseProfile="full" height="171.56657" version="1.1" width="1012.003246876" xmlns="http://www.w3.org/2000/svg" xmlns:ev="http://www.w3.org/2001/xml-events" xmlns:xlink="http://www.w3.org/1999/xlink"><defs /><polygon fill="none" points="1004.003246876,122.2723 1000.7838468760001,121.3784347 996.723846876,120.291023 992.228146876,119.19173 987.3543468760001,118.077904 982.1304468760001,116.977329 976.526946876,115.867962 970.5996468760001,114.728301 964.4610468760001,113.560333 958.2022468760001,112.36658 951.9119468760001,111.16007 945.692246876,109.95238 939.594846876,108.72898 933.582546876,107.45794000000001 927.566746876,106.11747 921.487246876,104.70734 915.337246876,103.23893 909.1489468760001,101.72578 902.949046876,100.17641 896.7472468760001,98.59546 890.540446876,96.98376999999999 884.323446876,95.34124 878.092146876,93.66785 871.8428468760001,91.96443 865.573146876,90.23338000000001 859.282946876,88.47788 852.974346876,86.70173 846.651046876,84.90811 840.315846876,83.09944 833.9700468760001,81.27772 827.613746876,79.44459 821.2468468760001,77.60141999999999 814.8697468760001,75.74981 808.484246876,73.89171 802.093046876,72.02932 795.699246876,70.16494 789.3059468760001,68.30081000000001 782.915846876,66.43911 776.531546876,64.58191 770.154946876,62.73125 763.787546876,60.88892 757.429946876,59.05652 751.082146876,57.23541 744.743346876,55.426820000000006 738.413346876,53.63198 732.091646876,51.85221 725.778346876,50.08885000000001 719.473646876,48.34334 713.177846876,46.61716000000001 706.890546876,44.91169000000001 700.6108468760001,43.228150000000014 694.337746876,41.56764 688.069446876,39.931039999999996 681.804946876,38.31909 675.5436468760001,36.732690000000005 669.286246876,35.17293000000001 663.033746876,33.64107 656.788146876,32.13873000000001 650.5505468760001,30.667810000000003 644.3212468760001,29.22999 638.0996468760001,27.82669 631.883946876,26.459100000000007 625.671846876,25.127989999999997 619.4613468760001,23.833699999999993 613.251146876,22.576639999999998 607.040646876,21.3574 600.8299468760001,20.1768 594.619646876,19.035600000000002 588.410446876,17.9349 582.2028468760001,16.875299999999996 575.9965468760001,15.8579 569.790846876,14.883200000000002 563.5846468760001,13.951800000000006 557.3768468760001,13.0638 551.166046876,12.219099999999997 544.9509468760001,11.41770000000001 538.730046876,10.6597 532.5020468760001,9.945099999999996 526.265446876,9.273399999999995 520.0194468760001,8.643900000000002 513.7636468759999,8.0561 507.49814687599996,7.509299999999996 501.223646876,7.003100000000003 494.94114687599995,6.5371000000000095 488.651646876,6.111000000000004 482.35624687599994,5.724699999999999 476.05564687599997,5.377900000000011 469.75084687599997,5.0702 463.442346876,4.801400000000001 457.130846876,4.5715 450.816546876,4.380300000000005 444.499546876,4.227800000000002 438.179746876,4.113699999999994 431.856946876,4.037899999999993 425.53074687599997,4.000199999999992 419.200946876,4.0 412.867446876,4.0371000000000095 406.530346876,4.111199999999997 400.189846876,4.221800000000002 393.846346876,4.368600000000001 387.50024687599995,4.551400000000001 381.152446876,4.7697 374.804046876,5.023299999999992 368.456246876,5.311800000000005 362.110246876,5.635200000000012 355.767046876,5.993600000000001 349.427146876,6.387100000000004 343.091046876,6.815799999999996 336.75864687599994,7.279900000000012 330.429846876,7.779300000000006 324.104546876,8.31410000000001 317.78254687599997,8.884299999999996 311.463846876,9.489999999999995 305.148446876,10.131200000000007 298.836746876,10.80789999999999 292.53004687600003,11.520199999999988 286.230046876,12.267799999999994 279.939346876,13.050700000000006 273.66074687599996,13.86890000000001 267.39644687599997,14.723100000000002 261.147346876,15.614199999999997 254.912846876,16.543300000000002 248.691546876,17.5116 242.48154687599998,18.5197 236.282346876,19.56819999999999 230.094746876,20.657200000000003 223.921046876,21.78670000000001 217.764346876,22.956670000000003 211.62714687599998,24.167810000000003 205.510246876,25.42111 199.412746876,26.717879999999994 193.332346876,28.059600000000003 187.267046876,29.44707000000001 181.216646876,30.88056999999999 175.183246876,32.35987 169.17054687599997,33.884339999999995 163.183146876,35.45402 157.223546876,37.06966 151.292246876,38.73253 145.387846876,40.44436 139.509046876,42.20649 133.657746876,44.0192 127.839246876,45.88163 122.061446876,47.792249999999996 116.331746876,49.75135 110.652246876,51.76108000000001 105.02004687600001,53.825289999999995 99.429796876,55.94781999999999 93.882386876,58.12889 88.38826687600002,60.364670000000004 82.96629687600002,62.648410000000005 77.63561687600001,64.97749999999999 72.40529687600001,67.35387 67.274876876,69.78275 62.243666876,72.26660000000001 57.324546876,74.79918 52.543366876,77.36636 47.933916876,79.9525 43.526816876,82.54338 39.344276876,85.12503 35.408906876,87.67981 31.751276876,90.17991 28.396036876,92.59496 25.355216876,94.90098 22.625756875999997,97.0824 20.189486876,99.13299 18.024556876,101.05468 16.115426876,102.84874 14.442766876,104.51611 12.981435875999999,106.06193999999999 11.704885876,107.49612 10.586091876000001,108.8336 9.599752876,110.09022 8.724774876000001,111.27997 7.9443188760000005,112.414496 7.2467978760000005,113.50295 6.6264038759999995,114.548807 6.079322876,115.550968 5.601422876,116.507039 5.1875258760000005,117.415244 4.832451576,118.275128 4.538286576,119.08836600000001 4.307523176,119.86150500000001 4.140306876,120.603578 4.037071666,121.3241189 4.0,122.0328666 4.033695836,122.7399223 4.140487876,123.451322 4.322746476,124.168248 4.586377776,124.888812 4.940255576,125.606713 5.394473876,126.309934 5.9535508759999995,126.992348 6.616601876,127.655146 7.379403876,128.30147399999998 8.233455876,128.93717800000002 9.168915876,129.570324 10.191720876000002,130.204635 11.314882876,130.842791 12.553803876,131.488743 13.926270876000002,132.148313 15.452526876,132.82743 17.156226875999998,133.52844 19.064006876,134.25377 21.205696876,135.00757 23.617586876,135.79603 26.344936876,136.62244 29.430686876,137.48801 32.911496876,138.39432 36.816616876,139.33928 41.147496876,140.31434000000002 45.869196876,141.30842 50.924066876,142.30186 56.249676876,143.27333 61.812146876,144.21265 67.590276876,145.12186 73.54198687600001,146.00479 79.607016876,146.85907 85.736816876,147.67704 91.911206876,148.45557 98.133216876,149.19692 104.405946876,149.90507 110.725646876,150.58338 117.083246876,151.2339 123.469946876,151.8581 129.87914687600002,152.4578 136.30664687599997,153.03456 142.748846876,153.58899 149.202646876,154.12164 155.664946876,154.6331 162.133646876,155.12371 168.60894687599998,155.59384 175.093146876,156.044 181.590746876,156.47517 188.10494687599999,156.88916 194.634746876,157.28771 201.175246876,157.67235 207.71784687599998,158.04356 214.25624687599998,158.40024 220.789346876,158.74136 227.320946876,159.06621 233.85964687599997,159.37498 240.412546876,159.66965 246.982146876,159.95223 253.565246876,160.22452 260.153746876,160.48774 266.738846876,160.74099 273.315746876,160.98295000000002 279.88424687599996,161.2125 286.44874687600003,161.42871 293.016346876,161.6319 299.59214687599996,161.82327 306.178146876,162.00398 312.77254687600004,162.17506 319.370746876,162.33722 325.967546876,162.49 332.560046876,162.63276000000002 339.147546876,162.76494 345.73204687599997,162.886 352.317246876,162.99592 358.906046876,163.09526 365.500146876,163.18459000000001 372.099246876,163.26447000000002 378.701446876,163.3354 385.304146876,163.39739 391.905146876,163.45014 398.503446876,163.49333000000001 405.098946876,163.52669 411.692946876,163.54997 418.286746876,163.5632 424.88154687599996,163.56657 431.478146876,163.56026 438.076646876,163.54442 444.676746876,163.51921 451.277646876,163.48465 457.87884687599995,163.4407 464.47914687599996,163.38736 471.077946876,163.32461 477.673946876,163.25238000000002 484.266546876,163.17038 490.855346876,163.07823 497.44084687599997,162.97554 504.02394687599997,162.86193 510.606046876,162.73706 517.188546876,162.60093 523.7717468760001,162.45364999999998 530.355146876,162.29533 536.937346876,162.1261 543.515946876,161.94598000000002 550.0887468760001,161.75443 556.654746876,161.55075 563.2136468760001,161.33423 569.7667468760001,161.10411 576.315746876,160.85977 582.8627468760001,160.60101 589.408446876,160.32778000000002 595.9527468760001,160.04008 602.4943468760001,159.73793 609.031046876,159.42119 615.560346876,159.08907 622.0803468760001,158.7407 628.589346876,158.3752 635.086246876,157.9917 641.570246876,157.58925 648.0412468760001,157.16672 654.499846876,156.72294 660.947146876,156.25666999999999 667.385346876,155.76665 673.816546876,155.25195 680.242546876,154.71223 686.663546876,154.14726000000002 693.078746876,153.55692 699.4859468760001,152.94117 705.882346876,152.29953 712.2657468760001,151.63112999999998 718.6345468760001,150.93507 724.9881468760001,150.21037 731.326646876,149.45592 737.6496468760001,148.67026 743.955446876,147.85206 750.241246876,147.0002 756.5027468760001,146.11383 762.735646876,145.19194 768.939946876,144.23264 775.121646876,143.23304 781.292646876,142.18909 787.4704468760001,141.09644 793.673546876,139.95573000000002 799.913646876,138.77041 806.1938468760001,137.54561 812.507946876,136.28879 818.842246876,135.01245 825.1779468760001,133.73244 831.4927468760001,132.46552 837.761046876,131.228625 843.9614468760001,130.03709800000001 850.0881468760001,128.90219000000002 856.1517468760001,127.831298 862.175946876,126.82847 868.1864468760001,125.891346 874.198646876,125.016884 880.215946876,124.20421400000001 886.231146876,123.454462 892.235346876,122.7706086 898.2246468760001,122.1551176 904.2008468760001,121.6097117 910.1693468760001,121.135033 916.134346876,120.731334 922.098546876,120.399163 928.062846876,120.138799 934.0279468760001,119.949989 939.994646876,119.832478 945.962746876,119.785408 951.928346876,119.807238 957.882346876,119.896253 963.8084468760001,120.050696 969.6815468760001,120.267886 975.465646876,120.54294300000001 981.111646876,120.86833 986.541546876,121.232046 991.6393468760001,121.60440200000001 996.338646876,121.90968240000001 1000.630146876,122.1224124 1004.003246876,122.2723" stroke="black" stroke-width="2.0" /></svg>