<?xml version="1.0" encoding="utf-8" ?>
<svg baseProfile="full" height="133.10092" version="1.1" width="1011.98935299" xmlns="http://www.w3.org/2000/svg" xmlns:ev="http://www.w3.org/2001/xml-events" xmlns:xlink="http://www.w3.org/1999/xlink"><defs /><polygon fill="none" points="1003.98935299,64.55046 1002.00565299,63.493407 999.4892529900001,63.428097 996.73145299,63.2012 993.7513529900001,62.80449 990.3834529900001,62.499489000000004 986.4530529900001,62.223648 981.88855299,61.833024 976.77885299,61.34586 971.2794529900001,60.834594 965.54025299,60.292595 959.64745299,59.694539 953.63655299,59.044767 947.55715299,58.357325 941.4633529900001,57.638356 935.38065299,56.887017 929.30375299,56.100640999999996 923.22085299,55.278759 917.12795299,54.42211 911.02785299,53.532250000000005 904.9243529900001,52.61072 898.81925299,51.6589 892.71285299,50.67784 886.6041529900001,49.66823 880.49115299,48.63062 874.3710529900001,47.56551 868.2400529900001,46.474450000000004 862.09505299,45.3594 855.9333529900001,44.22245 849.75295299,43.06591 843.55365299,41.89266000000001 837.3378529900001,40.706140000000005 831.1104529900001,39.51039 824.87855299,38.31013 818.6493529900001,37.110420000000005 812.4290529900001,35.91616 806.2233529900001,34.73204 800.03645299,33.56249 793.8703529900001,32.411440000000006 787.72445299,31.28224 781.59545299,30.177659999999996 775.47765299,29.09959 769.36575299,28.04808 763.2552529900001,27.02308 757.14335299,26.024810000000002 751.02835299,25.053740000000005 744.9097529900001,24.11014 738.78735299,23.193939999999998 732.6608529900001,22.305059999999997 726.5300529900001,21.44341 720.3944529900001,20.608890000000002 714.2537529900001,19.801170000000006 708.10755299,19.019850000000005 701.9552529900001,18.264499999999998 695.7962529900001,17.53472 689.62985299,16.83003 683.45565299,16.14971 677.2731529900001,15.492989999999999 671.0825529900001,14.85913 664.88445299,14.247410000000002 658.6794529900001,13.657220000000002 652.4684529900001,13.088100000000004 646.25205299,12.539630000000002 640.03055299,12.011360000000003 633.80405299,11.502830000000003 627.57235299,11.013529999999996 621.33515299,10.542970000000004 615.09275299,10.090679999999999 608.84535299,9.656210000000002 602.5938529900001,9.239109999999997 596.3393529900001,8.839010000000002 590.08265299,8.455750000000002 583.82445299,8.089259999999996 577.56475299,7.739449999999998 571.3030529900001,7.40616 565.03835299,7.089240000000004 558.7693529900001,6.788310000000003 552.49565299,6.502900000000004 546.21765299,6.232579999999999 539.93655299,5.976950000000002 533.6544529900001,5.735660000000003 527.37385299,5.508839999999999 521.09665299,5.297090000000004 514.82355299,5.100970000000004 508.55385298999994,4.921030000000002 502.28615298999995,4.757770000000001 496.01785299,4.611350000000002 489.74685299,4.481370000000005 483.47205298999995,4.36741 477.19355299,4.269039999999997 470.91255299,4.1858900000000006 464.63105299,4.117710000000002 458.35115298999995,4.064729999999997 452.07385299,4.027250000000002 445.79915299,4.005570000000006 439.52575299,4.0 433.25165298999997,4.010750000000002 426.97455299,4.0375099999999975 420.69325299,4.0797799999999995 414.40795299,4.137079999999997 408.12015299,4.208880000000001 401.83245299,4.294710000000002 395.54805299,4.39479 389.26875299,4.509689999999999 382.99485298999997,4.640050000000002 376.72515298999997,4.786500000000004 370.45685299,4.949680000000001 364.18655299,5.1295 357.91195299,5.325359999999996 351.63245299,5.536620000000006 345.34875299,5.762590000000003 339.06365299,6.002549999999999 332.78015299,6.256460000000004 326.50065299,6.524730000000005 320.22605298999997,6.807820000000007 313.95595298999996,7.106259999999999 307.68855299,7.420580000000001 301.42155298999995,7.7508200000000045 295.15345298999995,8.096800000000002 288.88395299,8.458260000000003 282.61355298999996,8.834890000000001 276.34395299,9.226460000000003 270.07705298999997,9.63317 263.81405299,10.05536 257.55605298999996,10.493390000000005 251.30345298999998,10.947659999999999 245.05635299,11.41863 238.81465298999998,11.906910000000003 232.57865299,12.413060000000002 226.34855299,12.937660000000001 220.12485299,13.481259999999999 213.90795298999998,14.04448 207.69795298999998,14.627960000000002 201.49465299,15.23238 195.29775298999996,15.858420000000002 189.10685298999996,16.506660000000004 182.92205299,17.17756 176.74385299,17.871519999999997 170.57315298999998,18.58892 164.41145299,19.330370000000002 158.26015299,20.096690000000002 152.12065298999997,20.888689999999997 145.99435298999998,21.707189999999997 139.88285298999998,22.553439999999995 133.78795298999998,23.42884 127.71215298999999,24.334670000000003 121.65815299,25.272279999999995 115.62845299,26.243609999999997 109.62385299,27.25092 103.64404299,28.296590000000002 97.68870299,29.38281 91.76072299,30.511020000000002 85.86666299,31.681829999999998 80.01639299,32.8965 74.22089299,34.15762 68.49070299,35.46743 62.83733299,36.828720000000004 57.27612299,38.24409 51.82587299,39.71401 46.513652990000004,41.235690000000005 41.38066299,42.79981 36.48102299,44.390519999999995 31.90451299,45.9781 27.74641299,47.52047 24.063162990000002,48.986000000000004 20.85825299,50.35614 18.09372299,51.62662 15.736602990000002,52.79784 13.74405599,53.86928 12.05857899,54.8496 10.624237990000001,55.760944 9.38971399,56.624103 8.314229990000001,57.453965000000004 7.37091999,58.262018 6.55547099,59.058288000000005 5.86743499,59.845519 5.30195599,60.621997 4.8499805899999995,61.384417 4.50229439,62.125254 4.24954139,62.840711 4.08349844,63.534475 4.0,64.21359240000001 4.0,64.88732759999999 4.08349844,65.566445 4.24954139,66.260209 4.50229439,66.975666 4.8499805899999995,67.716503 5.30195599,68.478923 5.86743499,69.255401 6.55547099,70.042632 7.37091999,70.838902 8.314229990000001,71.646955 9.38971399,72.476817 10.624237990000001,73.33997600000001 12.05857899,74.25132 13.74405599,75.23164 15.736602990000002,76.30308 18.09372299,77.4743 20.85825299,78.74478 24.063162990000002,80.11492 27.74641299,81.58045 31.90451299,83.12282 36.48102299,84.7104 41.38066299,86.30111 46.513652990000004,87.86523 51.82587299,89.38691 57.27612299,90.85683 62.83733299,92.2722 68.49070299,93.63349 74.22089299,94.9433 80.01639299,96.20442 85.86666299,97.41909000000001 91.76072299,98.5899 97.68870299,99.71811 103.64404299,100.80433 109.62385299,101.85 115.62845299,102.85731000000001 121.65815299,103.82864000000001 127.71215298999999,104.76625 133.78795298999998,105.67208 139.88285298999998,106.54748000000001 145.99435298999998,107.39373 152.12065298999997,108.21223 158.26015299,109.00423 164.41145299,109.77055 170.57315298999998,110.512 176.74385299,111.2294 182.92205299,111.92336 189.10685298999996,112.59425999999999 195.29775298999996,113.2425 201.49465299,113.86854 207.69795298999998,114.47296 213.90795298999998,115.05644000000001 220.12485299,115.61966000000001 226.34855299,116.16326000000001 232.57865299,116.68786 238.81465298999998,117.19400999999999 245.05635299,117.68229 251.30345298999998,118.15326 257.55605298999996,118.60753 263.81405299,119.04556 270.07705298999997,119.46775 276.34395299,119.87446 282.61355298999996,120.26603 288.88395299,120.64266 295.15345298999995,121.00412 301.42155298999995,121.3501 307.68855299,121.68034 313.95595298999996,121.99466000000001 320.22605298999997,122.2931 326.50065299,122.57619 332.78015299,122.84446 339.06365299,123.09837 345.34875299,123.33833 351.63245299,123.5643 357.91195299,123.77556000000001 364.18655299,123.97142 370.45685299,124.15124 376.72515298999997,124.31442 382.99485298999997,124.46087 389.26875299,124.59123 395.54805299,124.70613 401.83245299,124.80621 408.12015299,124.89204000000001 414.40795299,124.96384 420.69325299,125.02114 426.97455299,125.06341 433.25165298999997,125.09017 439.52575299,125.10092 445.79915299,125.09535 452.07385299,125.07366999999999 458.35115298999995,125.03619 464.63105299,124.98321 470.91255299,124.91503 477.19355299,124.83188000000001 483.47205298999995,124.73351 489.74685299,124.61955 496.01785299,124.48957 502.28615298999995,124.34315000000001 508.55385298999994,124.17989 514.82355299,123.99995 521.09665299,123.80383 527.37385299,123.59208000000001 533.6544529900001,123.36526 539.93655299,123.12397 546.21765299,122.86834 552.49565299,122.59801999999999 558.7693529900001,122.31261 565.03835299,122.01168 571.3030529900001,121.69476 577.56475299,121.36147 583.82445299,121.01166 590.08265299,120.64517000000001 596.3393529900001,120.26191 602.5938529900001,119.86181 608.84535299,119.44471 615.09275299,119.01024000000001 621.33515299,118.55795 627.57235299,118.08739 633.80405299,117.59809 640.03055299,117.08956 646.25205299,116.56129 652.4684529900001,116.01282 658.6794529900001,115.4437 664.88445299,114.85351 671.0825529900001,114.24179000000001 677.2731529900001,113.60793000000001 683.45565299,112.95121 689.62985299,112.27089000000001 695.7962529900001,111.56620000000001 701.9552529900001,110.83642 708.10755299,110.08107 714.2537529900001,109.29974999999999 720.3944529900001,108.49203 726.5300529900001,107.65751 732.6608529900001,106.79586 738.78735299,105.90698 744.9097529900001,104.99078 751.02835299,104.04718 757.14335299,103.07611 763.2552529900001,102.07784000000001 769.36575299,101.05284 775.47765299,100.00133 781.59545299,98.92326 787.72445299,97.81868 793.8703529900001,96.68948 800.03645299,95.53843 806.2233529900001,94.36888 812.4290529900001,93.18476000000001 818.6493529900001,91.9905 824.87855299,90.79079 831.1104529900001,89.59053 837.3378529900001,88.39478 843.55365299,87.20826 849.75295299,86.03501 855.9333529900001,84.87847 862.09505299,83.74152000000001 868.2400529900001,82.62647 874.3710529900001,81.53541 880.49115299,80.47030000000001 886.6041529900001,79.43269000000001 892.71285299,78.42308 898.81925299,77.44202 904.9243529900001,76.4902 911.02785299,75.56867 917.12795299,74.67881 923.22085299,73.822161 929.30375299,73.000279 935.38065299,72.213903 941.4633529900001,71.462564 947.55715299,70.743595 953.63655299,70.056153 959.64745299,69.406381 965.54025299,68.808325 971.2794529900001,68.266326 976.77885299,67.75506 981.88855299,67.26789600000001 986.4530529900001,66.877272 990.3834529900001,66.60143099999999 993.7513529900001,66.29643 996.73145299,65.89972 999.4892529900001,65.672823 1002.00565299,65.60751300000001 1003.98935299,64.55046" stroke="black" stroke-width="2.0" /></svg>