<?xml version="1.0" encoding="utf-8" ?>
<svg baseProfile="full" height="168.66720999999998" version="1.1" width="1011.998878014" xmlns="http://www.w3.org/2000/svg" xmlns:ev="http://www.w3.org/2001/xml-events" xmlns:xlink="http://www.w3.org/1999/xlink"><defs /><polygon fill="none" points="1003.998878014,121.68249999999999 1000.602678014,120.76288299999999 996.3682780139999,119.66405166 991.7715780139999,118.529547 986.809878014,117.36297099999999 981.4941780139999,116.16382599999999 975.841278014,114.92700199999999 969.882478014,113.643976 963.673278014,112.30569399999999 957.282778014,110.91673899999999 950.776078014,109.49022 944.2019780139999,108.03532999999999 937.5955780139999,106.55573999999999 930.9827780139999,105.05270999999999 924.3786780139999,103.52559 917.787078014,101.97155 911.2005780139999,100.38528 904.604278014,98.76330999999999 897.990378014,97.10727999999999 891.3635780139999,95.42183999999999 884.735278014,93.71042999999999 878.108778014,91.97259999999999 871.476278014,90.20526 864.824878014,88.40726 858.1494780139999,86.58094999999999 851.454478014,84.73093 844.7484780139999,82.86033 838.0348780139999,80.97022 831.3114780139999,79.06036999999999 824.573178014,77.13078999999999 817.815278014,75.18173999999999 811.033578014,73.21427 804.2267780139999,71.23146 797.398178014,69.23792 790.555478014,67.23856999999998 783.7095780139999,65.23773 776.8725780139999,63.24009999999999 770.054978014,61.25135999999999 763.2600780139999,59.27608999999999 756.4830780140001,57.316239999999986 749.716778014,55.37087 742.9613780139999,53.43978 736.224378014,51.52539999999999 729.514078014,49.63301 722.832678014,47.766890000000004 716.1760780139999,45.92912999999999 709.5390780139999,44.12011 702.9187780139999,42.34054999999999 696.314578014,40.59182999999999 689.7272780139999,38.875609999999995 683.1576780139999,37.19355999999999 676.6068780139999,35.54768999999999 670.075278014,33.94033 663.562778014,32.37362 657.0682780139999,30.849409999999992 650.588778014,29.369109999999992 644.1195780139999,27.933639999999983 637.654778014,26.542759999999987 631.1905780139999,25.19579999999999 624.725678014,23.89268 618.259978014,22.633759999999995 611.792078014,21.419349999999994 605.319078014,20.24938999999999 598.837578014,19.12299999999999 592.346278014,18.03949999999999 585.8465780139999,16.99839999999999 579.340278014,16.000199999999992 572.8275780139999,15.04519999999998 566.306378014,14.133499999999984 559.7743780139999,13.264200000000002 553.230678014,12.436699999999988 546.6755780139999,11.65039999999999 540.1101780139999,10.905199999999994 533.534478014,10.200699999999983 526.947778014,9.53649999999999 520.349578014,8.911999999999992 513.740578014,8.326799999999992 507.12257801399994,7.780499999999989 500.496178014,7.272999999999996 493.860278014,6.804400000000001 487.21227801400005,6.373699999999985 480.550978014,5.9798999999999864 473.878478014,5.62169999999999 467.198678014,5.2988 460.515078014,5.011499999999998 453.829478014,4.7601999999999975 447.14207801400005,4.5449999999999875 440.451678014,4.366099999999989 433.755978014,4.2235999999999905 427.05237801400006,4.116799999999998 420.34017801400006,4.044499999999985 413.621278014,4.00569999999999 406.89937801400004,4.0 400.178678014,4.0271999999999935 393.46437801400003,4.0874999999999915 386.759778014,4.181899999999999 380.06467801400004,4.311699999999988 373.375178014,4.478099999999998 366.687878014,4.680699999999987 360.00397801400004,4.918899999999994 353.329078014,5.192299999999989 346.667678014,5.501999999999981 340.019078014,5.849499999999992 333.378278014,6.236000000000004 326.741878014,6.660999999999987 320.11247801400003,7.123599999999982 313.49717801400004,7.623499999999993 306.900878014,8.162099999999995 300.322978014,8.741299999999981 293.758478014,9.36269999999999 287.204178014,10.026399999999995 280.66087801400005,10.732399999999998 274.13127801400003,11.480599999999981 267.616378014,12.271899999999988 261.113578014,13.107399999999998 254.61917801400003,13.987499999999997 248.13367801400003,14.911299999999997 241.663078014,15.877199999999988 235.21557801400002,16.88539999999999 228.793978014,17.937499999999986 222.39447801400001,19.036199999999994 216.011478014,20.182569999999984 209.643578014,21.376199999999983 203.29517801400002,22.615809999999996 196.97277801400003,23.90119 190.679978014,25.23308999999999 184.41727801400003,26.61274999999999 178.184178014,28.041079999999994 171.981778014,29.518489999999986 165.81287801400003,31.04508 159.681178014,32.62115999999999 153.590378014,34.24704 147.54387801400003,35.92309 141.544978014,37.65016999999999 135.595378014,39.42948 129.696378014,41.262159999999994 123.849978014,43.14856999999999 118.060178014,45.08816999999999 112.332978014,47.07984999999998 106.675478014,49.12272999999999 101.09428801399999,51.21575999999999 95.596138014,53.357609999999994 90.189728014,55.54613999999998 84.886228014,57.77751999999999 79.698678014,60.04676999999999 74.640938014,62.34885999999999 69.725718014,64.67820999999999 64.964358014,67.02826999999999 60.371378014,69.38896 55.965958013999995,71.74583999999999 51.767748014,74.08247999999999 47.794998014,76.38436999999999 44.060798014,78.6387 40.570358014,80.83461 37.322568014000005,82.96358999999998 34.314608014,85.01737999999999 31.540708014,86.98866 28.990698014,88.87285999999999 26.652088014,90.66941999999999 24.511528014,92.38058 22.553848014,94.00963999999999 20.762958014,95.56080999999999 19.123258014,97.03898 17.620808014,98.44913 16.242638014,99.79598999999999 14.976688014,101.08410999999998 13.812035014,102.31788999999999 12.739863014,103.50186 11.752608014,104.64008 10.843285014,105.73603 10.005444013999998,106.79275999999999 9.234117013999999,107.81338 8.525766013999998,108.80139999999999 7.876636014,109.760308 7.282946014,110.69335799999999 6.741086014,111.60345899999999 6.2478860140000005,112.49260199999999 5.800747014,113.36174499999998 5.397380014,114.21119499999999 5.036279014,115.04096799999999 4.721975414,115.852026 4.460496014,116.647078 4.256129314,117.42991599999999 4.112144614,118.20477699999999 4.027745964,118.9734362 4.0,119.73626619999999 4.027562784,120.4946586 4.110930314,121.251094 4.250968814,122.009452 4.448665614,122.77296899999999 4.705896714,123.54252299999999 5.024466014,124.31591399999999 5.405140014,125.08890899999999 5.8479320139999995,125.857676 6.352580014000001,126.618766 6.918969014,127.36931799999999 7.547835014,128.108538 8.240496014,128.837629 8.998005014,129.55775699999998 9.820704014,130.26986 10.709279014,130.97453 11.666756014,131.67221 12.696506014,132.36371 13.801908014000002,133.0503 14.986928014,133.73363999999998 16.258138014,134.41473 17.623288014,135.09466999999998 19.090718014000004,135.77505 20.669338014,136.458 22.370348014,137.14491999999998 24.207108014,137.83679 26.194218014,138.53521999999998 28.347288014,139.24274 30.684088014,139.96138 33.225448013999994,140.69102999999998 35.993328014,141.43155 39.009878014,142.18322 42.297338014,142.94612999999998 45.877068014,143.71793 49.765328014,144.49567 53.971398014,145.27698999999998 58.498408014,146.05868999999998 63.339838013999994,146.8344 68.476908014,147.59795 73.88428801399999,148.34474 79.533938014,149.06914999999998 85.394288014,149.76621999999998 91.436148014,150.43331999999998 97.635378014,151.06935 103.968168014,151.67425 110.411578014,152.24916 116.94557801399999,152.7946 123.553678014,153.31109999999998 130.223778014,153.79998999999998 136.947378014,154.26276 143.71657801400002,154.70101 150.52377801400002,155.11640999999997 157.36197801400002,155.50991 164.225478014,155.88237999999998 171.10947801400002,156.23468 178.01117801400002,156.56733 184.930178014,156.88087 191.868078014,157.1763 198.82527801400002,157.4553 205.799278014,157.71958999999998 212.784778014,157.9701 219.777778014,158.20676 226.776978014,158.42954 233.78337801400002,158.63877 240.79787801400002,158.83506 247.820078014,159.01897 254.84907801400004,159.19096 261.884078014,159.35139999999998 268.924778014,159.50065 275.970978014,159.63912 283.023078014,159.76718 290.081478014,159.88527 297.146178014,159.99397 304.216278014,160.09389 311.289378014,160.18542 318.363778014,160.26835999999997 325.43947801400003,160.34242 332.517678014,160.4076 339.600378014,160.46435 346.68967801400004,160.51319 353.78727801400004,160.55482999999998 360.891378014,160.59019 367.99607801400003,160.62009 375.094678014,160.64394 382.18787801400003,160.66008 389.28527801399997,160.66720999999998 396.398078014,160.66705 403.525578014,160.6628 410.654478014,160.65680999999998 417.77007801400003,160.64704 424.871078014,160.6302 431.968578014,160.6042 439.074778014,160.57052 446.192678014,160.53131 453.317478014,160.48798 460.44197801400003,160.44056999999998 467.56057801400004,160.38897 474.669478014,160.3324 481.769078014,160.26927 488.86407801400003,160.19806 495.961078014,160.11878 503.062678014,160.03266 510.165578014,159.94086 517.264378014,159.8432 524.3558780139999,159.73881 531.440378014,159.62685 538.519478014,159.50688 545.5941780139999,159.37858 552.664178014,159.24161999999998 559.728778014,159.09562 566.787178014,158.94018 573.838478014,158.77482999999998 580.8828780139999,158.59892 587.9224780139999,158.41174 594.960178014,158.21307 601.996478014,158.00336 609.028178014,157.78315999999998 616.0499780139999,157.55203 623.0598780139999,157.30863 630.059478014,157.05158999999998 637.052278014,156.78033 644.038878014,156.49484999999999 651.016878014,156.19513 657.983078014,155.88038999999998 664.936678014,155.54943 671.879678014,155.20114999999998 678.8141780139999,154.83513 685.739778014,154.45123 692.6538780139999,154.04917999999998 699.554178014,153.62819 706.4400780139999,153.1873 713.312278014,152.72562 720.169778014,152.24258999999998 727.008678014,151.73788 733.823678014,151.21049 740.612578014,150.65831 747.378378014,150.07891999999998 754.125678014,149.4709 760.8546780139999,148.83414 767.5593780139999,148.16897999999998 774.231678014,147.47396999999998 780.869178014,146.74599999999998 787.476378014,145.98151 794.060678014,145.17825 800.626878014,144.3348 807.176778014,143.45002 813.712478014,142.52255 820.240078014,141.55031 826.769678014,140.53118 833.3128780139999,139.46549 839.8789780139999,138.3544 846.474678014,137.2001 853.101078014,136.00776 859.750978014,134.78466 866.4084780139999,133.54277 873.049578014,132.30124999999998 879.6422780139999,131.08117 886.152578014,129.90294 892.5628780139999,128.78232599999998 898.8772780139999,127.729681 905.111878014,126.74954899999999 911.2788780139999,125.843657 917.382078014,125.01468499999999 923.4208780139999,124.26615299999999 929.397378014,123.60136299999999 935.3183780139999,123.022893 941.191878014,122.53217 947.0198780139999,122.13020499999999 952.797778014,121.818266 958.519278014,121.596426 964.1884780139999,121.46337899999999 969.8227780139999,121.417318 975.431778014,121.44381499999999 980.9670780139999,121.51669399999999 986.323078014,121.60798199999999 991.390678014,121.686196 996.1132780139999,121.72628599999999 1000.4819780139999,121.71968899999999 1003.998878014,121.68249999999999" stroke="black" stroke-width="2.0" /></svg>