<?xml version="1.0" encoding="utf-8" ?>
<svg baseProfile="full" height="224.71647" version="1.1" width="1011.9996069355" xmlns="http://www.w3.org/2000/svg" xmlns:ev="http://www.w3.org/2001/xml-events" xmlns:xlink="http://www.w3.org/1999/xlink"><defs /><polygon fill="none" points="1003.9996069355,141.0528 1000.0057069355,138.93138699999997 995.3236069354999,136.66771599999998 990.5353069355,134.532165 985.6593069355,132.551314 980.6050069354999,130.768619 975.3198069355,129.10334 969.7957069355,127.49353999999998 964.0288069355,125.90295999999998 958.0149069355,124.30368999999999 951.7480069355,122.68636999999998 945.2263069354999,121.04411999999999 938.4502069355,119.37384999999999 931.4217069355,117.67246999999999 924.1455069355,115.93674999999999 916.6325069354999,114.16380999999998 908.8994069355,112.35349999999998 900.9645069354999,110.50880999999998 892.8452069355,108.63183 884.5599069355,106.72210999999999 876.1298069354999,104.77875999999999 867.5778069354999,102.80358999999999 858.9243069355,100.80123999999998 850.1866069355,98.77589999999998 841.3795069354999,96.73225 832.5190069355,94.67577999999997 823.6228069355,92.61098999999999 814.7067069354999,90.53810999999999 805.7804069355,88.45530999999998 796.8475069355001,86.36048 787.9093069355,84.25286999999997 778.9666069355,82.13186999999999 770.0201069354999,79.99714999999998 761.0700069355,77.84884 752.1158069355,75.68695 743.1568069355,73.51159 734.1926069355,71.32345999999998 725.2243069355001,69.12361999999999 716.2541069355,66.91334999999998 707.2843069354999,64.69354999999999 698.3163069354999,62.464689999999976 689.3499069354999,60.22706999999998 680.3850069355,57.982669999999985 671.4252069354999,55.735449999999986 662.4789069354999,53.49061999999999 653.5586069354999,51.25417999999999 644.6772069355,49.03189999999998 635.8458069355,46.82897999999999 627.0739069355,44.65016999999999 618.3680069355,42.50086999999999 609.7321069354999,40.386269999999996 601.1675069354999,38.3107 592.6732069354999,36.27759999999998 584.2486069355,34.28959999999998 575.8944069355,32.34939999999999 567.6127069355,30.45989999999999 559.4062069355,28.624499999999983 551.2754069355,26.847599999999986 543.2171069354999,25.132699999999986 535.2249069355,23.48229999999998 527.2903069355,21.897499999999994 519.4061069354999,20.377899999999983 511.56760693550007,18.922999999999988 503.77190693550006,17.532999999999987 496.01810693550004,16.208599999999976 488.30550693550003,14.951199999999986 480.6315069355,13.76209999999999 472.9924069355,12.642099999999985 465.3830069355,11.592099999999988 457.7981069355,10.611699999999985 450.23340693550006,9.700199999999995 442.68580693550007,8.857100000000003 435.15310693550003,8.082099999999997 427.63410693550003,7.375199999999978 420.1278069355,6.73599999999999 412.6333069355,6.164299999999969 405.14990693550004,5.659999999999997 397.6767069355,5.2228999999999814 390.2136069355,4.852799999999974 382.76080693550006,4.5493999999999915 375.31910693550003,4.3125 367.8896069355,4.141899999999993 360.47390693550005,4.037700000000001 353.07340693550003,4.0 345.6891069355,4.028899999999993 338.32200693550004,4.12439999999998 330.9733069355,4.2864999999999895 323.64460693550006,4.514899999999983 316.33820693550007,4.809299999999979 309.05730693550004,5.169299999999964 301.80520693550005,5.594899999999967 294.5850069355,6.086399999999969 287.3991069355001,6.64439999999999 280.2491069355,7.268999999999977 273.1364069355,7.960199999999986 266.06270693550005,8.717599999999976 259.0309069355,9.540599999999984 252.0445069355,10.428299999999979 245.10760693549997,11.379899999999992 238.2246069355,12.395099999999985 231.39930693550002,13.473699999999994 224.6349069355,14.615099999999984 217.9344069355,15.818699999999978 211.3011069355,17.083399999999983 204.7391069355,18.407799999999995 198.25270693550002,19.790299999999988 191.8469069355,21.22879999999998 185.5268069355,22.72159999999998 179.2973069355,24.266699999999986 173.1633069355,25.861799999999974 167.12930693549998,27.50439999999999 161.2001069355,29.19149999999999 155.3813069355,30.919899999999984 149.6784069355,32.685899999999975 144.0968069355,34.48549999999999 138.6418069355,36.31579999999998 133.3178069355,38.17329999999998 128.1281069355,40.054899999999975 123.0751069355,41.957149999999984 118.1609069355,43.876159999999985 113.3877069355,45.80758999999999 108.7575069355,47.74699 104.27180693550001,49.68994999999998 99.93196693549999,51.632969999999986 95.7382769355,53.57321999999998 91.6899669355,55.50807999999999 87.78521693549999,57.43521999999999 84.02142693549999,59.352419999999995 80.3957269355,61.25719999999998 76.9052269355,63.14708999999999 73.5468569355,65.01971999999999 70.3172669355,66.87294999999999 67.2130769355,68.70514999999999 64.2310169355,70.51552999999998 61.3673769355,72.30357 58.618086935499996,74.06894999999999 55.9788369355,75.81149999999998 53.4451669355,77.53114 51.0126269355,79.22756999999999 48.6769769355,80.90036999999998 46.4341669355,82.54917999999998 44.280286935499994,84.1737 42.211546935499996,85.77369999999999 40.2244269355,87.34919999999998 38.3162069355,88.90097999999999 36.48425693549999,90.43001999999998 34.725856935500005,91.93726999999998 33.0382469355,93.42363999999998 31.4186469355,94.89002999999998 29.8642969355,96.33725999999999 28.3725469355,97.76598999999999 26.9408969355,99.17670999999999 25.5668869355,100.56987999999998 24.248156935500003,101.94596999999999 22.9824369355,103.30542999999999 21.7675269355,104.64871999999998 20.6013269355,105.97629999999998 19.4821569355,107.28866 18.4087569355,108.58633999999998 17.3799869355,109.86980999999999 16.394676935499998,111.13942999999999 15.451726935499998,112.39550999999999 14.550006935499999,113.63832999999998 13.6884039355,114.86810999999999 12.865898935499999,116.08506999999999 12.0818179355,117.28953999999999 11.3354699355,118.48200999999999 10.626037935500001,119.66310999999999 9.9526369355,120.83354999999999 9.3143449355,121.99413999999999 8.710238935500001,123.14567999999998 8.1394189355,124.28905999999999 7.6016859355,125.42506999999999 7.0981839355,126.55417999999999 6.630208935500001,127.67639999999999 6.1989959355,128.79138999999998 5.8056499355,129.89852 5.4510909355,130.996914 5.1360079355,132.08555199999998 4.8607832355,133.16321399999998 4.6251435355,134.228263 4.4283087355,135.279914 4.2693651355,136.318546 4.1474751355,137.34544699999998 4.0620339155,138.362632 4.0127973255,139.37274 4.0,140.37901749999997 4.0239552155,141.385192 4.0844422155,142.394668 4.1816482355,143.41015299999998 4.3162094355,144.433687 4.4890928355,145.46659599999998 4.7014649355,146.509381 4.9545250355,147.56153999999998 5.2492699355,148.62138399999998 5.5860879355,149.68670699999998 5.9649099355,150.75555 6.3854979355,151.82608 6.8474979355,152.89665 7.3505139355,153.96584 7.894178935499999,155.03252999999998 8.4782529355,156.09589999999997 9.1028669355,157.1557 9.768550935499999,158.21211 10.4758699355,159.26529 11.2253739355,160.31522999999999 12.017565935499999,161.36182 12.8528589355,162.40479 13.7315229355,163.44367 14.653796935499999,164.47794 15.6201869355,165.50739 16.6312669355,166.53189999999998 17.6875369355,167.55134999999999 18.789476935499998,168.56569 19.937526935500003,169.57488999999998 21.1320869355,170.57897999999997 22.3737569355,171.57800999999998 23.6638369355,172.57198999999997 25.0038169355,173.56088999999997 26.395206935500003,174.54470999999998 27.8395569355,175.52345 29.338386935500004,176.49712 30.893236935500003,177.46573999999998 32.5058269355,178.4294 34.1782869355,179.38827999999998 35.9128769355,180.34265 37.7118769355,181.29286 39.57760693549999,182.23932 41.5123469355,183.18255999999997 43.5184369355,184.12319 45.598836935499996,185.06128999999999 47.7570569355,185.99669 49.9967169355,186.92919999999998 52.3216669355,187.85871999999998 54.735876935499995,188.78521999999998 57.2435669355,189.70871 59.849456935499994,190.62919 62.5586669355,191.54657999999998 65.3764469355,192.46088999999998 68.30819693549999,193.37223 71.3593269355,194.28085 74.5354469355,195.18687999999997 77.84271693550001,196.08977 81.2874869355,196.98884999999999 84.8761069355,197.88351999999998 88.6149669355,198.77326 92.5105169355,199.65749 96.56945693549999,200.53504999999998 100.7982769355,201.40462 105.2030069355,202.26495999999997 109.7894069355,203.11487 114.56270693549999,203.95289 119.5276069355,204.77721 124.6880069355,205.58611 130.0469069355,206.37809 135.6064069355,207.15166 141.3673069355,207.90523 147.3285069355,208.63741 153.48650693550002,209.34715999999997 159.8362069355,210.03269999999998 166.3710069355,210.69142 173.08380693549998,211.32101999999998 179.9675069355,211.91965 187.0147069355,212.48621999999997 194.21640693549998,213.02013999999997 201.5622069355,213.52124999999998 209.04010693549998,213.98926 216.6376069355,214.42314 224.3416069355,214.82207999999997 232.1396069355,215.18559 240.0199069355,215.51245999999998 247.9720069355,215.80125999999998 255.9876069355,216.05082 264.0602069355,216.26049 272.18390693550003,216.43036 280.35250693550006,216.56074 288.5595069355,216.65200999999996 296.7985069355,216.70405 305.0635069355,216.71647 313.34960693550005,216.68899 321.65260693550005,216.62126999999998 329.9696069355,216.51268999999996 338.2990069355001,216.36256999999998 346.64040693550004,216.17021999999997 354.99480693550004,215.93541 363.3629069355,215.65856 371.74460693550003,215.34013 380.13920693550006,214.98057999999997 388.5456069355,214.58011 396.9637069355,214.13864999999998 405.3946069355,213.65603999999996 413.84070693550007,213.13216 422.3047069355,212.56759 430.78780693550004,211.96321999999998 439.29000693550006,211.32004999999998 447.81000693550004,210.63896 456.34690693550004,209.92001 464.9019069355,209.16290999999998 473.4788069355,208.36713999999998 482.0832069355,207.53276 490.72010693550004,206.66155999999998 499.3914069355,205.75581999999997 508.09590693550007,204.81815999999998 516.8299069354999,203.85050999999999 525.5904069355,202.85367 534.3760069355,201.82824 543.1872069355,200.77463999999998 552.0259069355,199.69371999999998 560.8929069355,198.58670999999998 569.7881069355,197.45498999999998 578.7106069355,196.30006999999998 587.6587069354999,195.12329999999997 596.6310069355,193.92603 605.6263069354999,192.70959 614.6436069355,191.47520999999998 623.6805069354999,190.22414999999998 632.7338069355,188.95782 641.7989069354999,187.67763 650.8718069355,186.38371999999998 659.9516069355,185.07544 669.0403069355,183.75171999999998 678.1425069354999,182.41251999999997 687.2598069354999,181.05961 696.3897069354999,179.69549 705.5254069355,178.32252999999997 714.6604069355,176.94072999999997 723.7922069355,175.54908999999998 732.9229069355,174.14628 742.0556069355,172.73300999999998 751.1906069355,171.31128999999999 760.3240069354999,169.88371999999998 769.4487069355,168.45296 778.5552069355,167.02170999999998 787.6324069355,165.59303999999997 796.6683069355,164.17105999999998 805.6504069355,162.76042999999999 814.5666069355,161.36577 823.4059069355,159.99202 832.1587069355,158.64398999999997 840.8175069355,157.32591 849.3751069355,156.04112999999998 857.8229069354999,154.79274999999998 866.1517069355,153.58393999999998 874.3514069355,152.41852 882.4116069354999,151.3001 890.3226069355,150.23306 898.0767069354999,149.222884 905.6688069354999,148.27406699999997 913.0959069354999,147.39028 920.3565069355,146.574366 927.4500069355,145.82752299999999 934.3745069355,145.14817399999998 941.1258069355,144.534585 947.6989069355,143.989242 954.0880069355001,143.51687099999998 960.2897069355,143.127042 966.3170069355,142.837751 972.1978069355,142.64426099999997 977.9454069354999,142.47813 983.5494069355,142.30075 988.9965069355,142.17390899999998 994.2894069355,142.00827199999998 999.4945069354999,141.56840899999997 1003.9996069355,141.0528" stroke="black" stroke-width="2.0" /></svg>