<?xml version="1.0" encoding="utf-8" ?>
<svg baseProfile="full" height="312.02160000000003" version="1.1" width="1012.001879595" xmlns="http://www.w3.org/2000/svg" xmlns:ev="http://www.w3.org/2001/xml-events" xmlns:xlink="http://www.w3.org/1999/xlink"><defs /><polygon fill="none" points="1004.001879595,157.446 998.453679595,155.061657 992.148379595,152.516557 985.566479595,150.228856 978.702979595,147.909514 971.522979595,145.62907 963.812279595,143.29606 955.5356795949999,140.82378 946.713279595,138.21588 937.2861795949999,135.45598 927.208479595,132.52509 916.488679595,129.41503 905.174779595,126.13506000000001 893.302179595,122.70886000000002 880.8859795950001,119.14259000000001 868.018579595,115.45446000000001 854.819179595,111.68851000000001 841.319379595,107.86363 827.552179595,103.98281 813.616479595,100.07065 799.604779595,96.15688 785.573379595,92.2613 771.553879595,88.39632999999999 757.576379595,84.57027000000001 743.7000795949999,80.79806 729.9822795949999,77.10100000000001 716.426979595,73.48855999999999 703.011079595,69.95635 689.739179595,66.50325000000001 676.6401795950001,63.13735 663.732279595,59.86704 651.0147795949999,56.6953 638.479679595,53.6224 626.119779595,50.64829999999999 613.928379595,47.77290000000001 601.896779595,44.99470000000001 590.015179595,42.312100000000015 578.2769795950001,39.72280000000001 566.682779595,37.22580000000001 555.238379595,34.82209999999999 543.9486795949999,32.51349999999999 532.815279595,30.30110000000002 521.836879595,28.18520000000001 511.008779595,26.165600000000012 500.323679595,24.241600000000005 489.772879595,22.411200000000008 479.351279595,20.672000000000025 469.057579595,19.022099999999995 458.894179595,17.46029999999999 448.866479595,15.98599999999999 438.981979595,14.598900000000015 429.249979595,13.298700000000025 419.677979595,12.086300000000023 410.269779595,10.962299999999999 401.02557959499995,9.926200000000023 391.944079595,8.977400000000017 383.02397959499996,8.115100000000012 374.264579595,7.3382000000000005 365.66497959500003,6.645900000000012 357.223079595,6.037400000000019 348.933679595,5.511799999999994 340.789479595,5.068000000000012 332.78237959499995,4.704100000000011 324.90667959499996,4.417700000000025 317.160079595,4.206300000000027 309.543079595,4.067599999999999 302.057279595,4.0 294.702779595,4.002399999999994 287.476979595,4.073599999999999 280.37537959499997,4.212600000000009 273.392879595,4.417400000000015 266.526679595,4.685399999999987 259.777179595,5.0137 253.147279595,5.3992000000000075 246.641279595,5.83959999999999 240.262179595,6.3337999999999965 234.01017959499998,6.881200000000007 227.882879595,7.481099999999998 221.876079595,8.132800000000003 215.98537959499998,8.834600000000023 210.20797959499998,9.583799999999997 204.542479595,10.377900000000011 198.98877959499998,11.214300000000009 193.547479595,12.09020000000001 188.219379595,13.00370000000001 183.004479595,13.952799999999996 177.902479595,14.935500000000019 172.912779595,15.949900000000014 168.034279595,16.994200000000006 163.265779595,18.0668 158.606179595,19.165899999999993 154.053979595,20.290099999999995 149.607679595,21.437700000000007 145.265679595,22.607200000000006 141.026579595,23.79740000000001 136.88857959499998,25.006800000000027 132.84997959499998,26.234400000000022 128.909279595,27.478800000000007 125.064279595,28.738799999999998 121.31357959500001,30.013599999999997 117.65497959500001,31.3027 114.08647959500001,32.60549999999999 110.605779595,33.921499999999995 107.21027959500002,35.2504 103.89762959500001,36.591499999999996 100.665359595,37.9443 97.51128959500001,39.30799999999999 94.433369595,40.68180000000001 91.429609595,42.06500000000001 88.498129595,43.4568 85.63715959500001,44.8566 82.845129595,46.2638 80.120569595,47.678 77.46194959500001,49.098699999999994 74.86775959500001,50.52560000000001 72.336489595,51.958200000000005 69.86664959500001,53.396100000000004 67.456919595,54.839200000000005 65.106169595,56.2872 62.813189595,57.740300000000005 60.576729595,59.19828000000001 58.395499595,60.66125000000001 56.268219595,62.1292 54.193609595,63.602180000000004 52.170579595,65.08026000000001 50.198229594999994,66.56355 48.275629595,68.05212 46.401909595,69.54604 44.576189595,71.04535000000001 42.797619595,72.55011999999999 41.065379594999996,74.06037 39.379199594999996,75.57646 37.739119595,77.09897000000001 36.14503959499999,78.62857 34.596759594999995,80.16597 33.09397959499999,81.71195000000002 31.636339595,83.26731 30.223469594999997,84.83292000000002 28.854979594999996,86.40942 27.530519594999998,87.99701999999999 26.249759595,89.59593000000001 25.012419595,91.20643000000001 23.818219595,92.82886 22.666929594999996,94.46364 21.558359595,96.11122 20.492349594999997,97.77214000000001 19.468149595,99.44647 18.484549594999997,101.13382 17.540439595000002,102.83379000000001 16.634869594999998,104.54595 15.766969595,106.26984 14.935999595,108.00499 14.141289595,109.75091 13.382245594999999,111.50705 12.658103595,113.27293 11.967735595,115.04807 11.310050595,116.83193 10.684023595,118.62392 10.088684595,120.42335 9.523105595,122.22943000000001 8.986399595,124.04134 8.477705595,125.85812 7.996223595,127.6788 7.541682594999999,129.50256000000002 7.114204595,131.32872 6.713902595,133.15666 6.3408725950000004,134.98571 5.995191595,136.81522 5.6769145949999995,138.64454 5.386080595,140.47302000000002 5.122706595,142.30001000000001 4.886804195,144.12487000000002 4.6784677949999995,145.94696 4.497810395,147.76578 4.344921495,149.580983 4.219879295,151.392382 4.122762795,153.199934 4.053662575,155.00374 4.012692345,156.80404000000001 4.0,158.60119980000002 4.015783615,160.395608 4.060296305,162.187515 4.133833795,163.97706 4.236726795,165.764281 4.369333695,167.549113 4.532033695,169.33139 4.725218595,171.11086 4.949285695,172.88714000000002 5.204628595,174.65977 5.491612594999999,176.42813 5.810589595,178.19156 6.161925595,179.94943 6.546013595,181.7012 6.963272595,183.44638 7.4141615949999995,185.18454 7.899181595,186.91532 8.418887595000001,188.63841 8.973778595,190.3535 9.564202595000001,192.06026 10.190535595,193.75833 10.853213595,195.44737 11.552736595,197.12705 12.289670594999999,198.79702 13.064659595,200.45693 13.878421595,202.10646 14.731499595,203.74538 15.624079595,205.37367 16.556369595,206.99130000000002 17.528659595,208.59822 18.541269595,210.19431 19.594629595,211.77946 20.689189595,213.3535 21.825489594999997,214.91626 23.003909595,216.46792 24.224789594999997,218.00887 25.488489594999997,219.53948 26.795409595,221.06009 28.145989595,222.57101 29.540749595,224.07252 30.980199595,225.56485 32.464939595,227.04849000000002 33.995619595,228.52432 35.572899594999996,229.9932 37.197349595,231.45601 38.869509595,232.91357 40.589799595,234.36668 42.358489594999995,235.81609 44.175969595,237.26237 46.043239594999996,238.70578 47.961439595,240.14652999999998 49.931729595,241.58487000000002 51.95529959499999,243.02111000000002 54.033389595,244.45557 56.167289595,245.88862 58.358409595,247.3207 60.608349595,248.75231000000002 62.918659595,250.18392 65.290749595,251.61597 67.72587959500001,253.04886 70.225049595,254.48297000000002 72.78897959500001,255.91849000000002 75.41867959500001,257.35494 78.115439595,258.7914 80.880629595,260.2268 83.71567959500001,261.6603 86.62215959500001,263.091 89.601789595,264.51800000000003 92.656469595,265.9405 95.788079595,267.358 98.998409595,268.7697 102.28915959500002,270.175 105.661879595,271.5731 109.117779595,272.96299999999997 112.65827959500001,274.3439 116.28457959500001,275.7146 119.99747959500002,277.0738 123.79777959500001,278.4203 127.686079595,279.7528 131.66227959500003,281.0699 135.726679595,282.3696 139.879479595,283.64959999999996 144.120979595,284.908 148.451279595,286.1426 152.871079595,287.35119999999995 157.38087959499998,288.5319 161.981279595,289.683 166.672879595,290.8027 171.45627959499998,291.8891 176.331679595,292.94050000000004 181.299679595,293.9551 186.36067959499997,294.93129999999996 191.514679595,295.86760000000004 196.761679595,296.7625 202.101279595,297.6142 207.53287959499997,298.4213 213.055979595,299.1817 218.669779595,299.8938 224.373379595,300.5557 230.165779595,301.1656 236.045979595,301.72180000000003 242.01347959499998,302.22220000000004 248.068179595,302.6648 254.210679595,303.0479 260.442479595,303.36980000000005 266.765079595,303.6291 273.179579595,303.82489999999996 279.685979595,303.9561 286.283479595,304.02160000000003 292.97067959500004,304.02 299.74647959500004,303.9495 306.61087959500003,303.8082 313.565079595,303.5942 320.611779595,303.3057 327.753979595,302.9412 334.99447959500003,302.4993 342.335279595,301.97839999999997 349.777579595,301.3772 357.322979595,300.6938 364.974679595,299.92600000000004 372.738479595,299.0712 380.622979595,298.1264 388.638579595,297.08939999999996 396.79407959499997,295.9587 405.095579595,294.73310000000004 413.54477959499997,293.4121 422.142079595,291.99350000000004 430.890679595,290.474 439.79867959499995,288.8492 448.879979595,287.1137 458.15457959500003,285.262 467.64757959499997,283.28700000000003 477.390979595,281.18010000000004 487.42257959499995,278.9338 497.776779595,276.5435 508.4767795949999,274.0086 519.530279595,271.33050000000003 530.936679595,268.51070000000004 542.6919795949999,265.5523 554.790479595,262.4579 567.232579595,259.2273 580.0311795949999,255.85811 593.199079595,252.35345999999998 606.7169795949999,248.72855 620.5191795950001,245.00990000000002 634.5033795950001,241.23076 648.545279595,237.43207 662.530079595,233.65629 676.377879595,229.93626 690.038879595,226.2923 703.482579595,222.73723999999999 716.685479595,219.28038 729.6103795949999,215.93315 742.219079595,212.7099 754.5157795949999,209.61796 766.544479595,206.65066000000002 778.327779595,203.79608000000002 789.834579595,201.05449000000002 801.020679595,198.43758 811.8775795949999,195.95207 822.4211795949999,193.59557 832.657679595,191.364 842.578079595,189.25692 852.177579595,187.27664000000001 861.468079595,185.42215000000002 870.468879595,183.68826 879.189579595,182.06917 887.6305795950001,180.56174000000001 895.7956795949999,179.16704000000001 903.700679595,177.88467 911.366779595,176.7114 918.814879595,175.64255 926.062979595,174.67394000000002 933.125579595,173.80288000000002 940.011579595,173.02762 946.730879595,172.35028 953.309879595,171.77565 959.7879795949999,171.30486 966.184679595,170.9336 972.491379595,170.66968 978.752379595,170.55801 985.100179595,170.60071 991.534679595,170.71102 998.055679595,171.07994 1004.001879595,171.536" stroke="black" stroke-width="2.0" /></svg>