<?xml version="1.0" encoding="utf-8" ?>
<svg baseProfile="full" height="168.86843" version="1.1" width="1011.997198893" xmlns="http://www.w3.org/2000/svg" xmlns:ev="http://www.w3.org/2001/xml-events" xmlns:xlink="http://www.w3.org/1999/xlink"><defs /><polygon fill="none" points="1003.997198893,121.8789 1000.6273988930001,120.93020600000001 996.442898893,119.8032151 991.905698893,118.64341900000001 986.993798893,117.447023 981.705898893,116.20388500000001 976.0694988930001,114.90545 970.1342988929999,113.550559 963.956798893,112.135923 957.582798893,110.65959500000001 951.052398893,109.13073000000001 944.408598893,107.56101000000001 937.691798893,105.96001000000001 930.9311988930001,104.33194 924.1382988930001,102.67677 917.310598893,100.99405000000002 910.449098893,99.28702000000001 903.565198893,97.56147000000001 896.675598893,95.82153000000001 889.789498893,94.0676 882.905498893,92.29777000000001 876.0173988930001,90.51070000000001 869.121598893,88.70653000000001 862.2187988930001,86.88628 855.310898893,85.05104 848.398898893,83.20152000000002 841.482498893,81.33816000000002 834.5608988930001,79.46107 827.632198893,77.57021 820.694198893,75.66570000000002 813.745098893,73.74831 806.784398893,71.81918000000002 799.8123988929999,69.87967 792.8298988930001,67.93125 785.837798893,65.97548 778.838098893,64.01451 771.8357988930001,62.05140000000001 764.838998893,60.09016000000001 757.858198893,58.135470000000005 750.905098893,56.19241000000001 743.991298893,54.26696 737.121498893,52.365600000000015 730.290098893,50.49213 723.4847988930001,48.64656000000001 716.698898893,46.82743000000001 709.9347988930001,45.035650000000004 703.200398893,43.27538 696.498198893,41.55111000000001 689.822898893,39.86513000000001 683.165598893,38.2171 676.520198893,36.60631000000001 669.883998893,35.03296 663.256298893,33.49771000000001 656.635798893,32.00106000000001 650.020098893,30.54325 643.407398893,29.124430000000004 636.797298893,27.745010000000008 630.1904988929999,26.405760000000015 623.586298893,25.107430000000008 616.980198893,23.85011 610.364698893,22.632649999999998 603.7365988930001,21.452970000000008 597.1006988930001,20.310260000000014 590.466498893,19.20620000000001 583.838098893,18.143600000000006 577.209398893,17.1241 570.568898893,16.145799999999994 563.910498893,15.205500000000015 557.2375988929999,14.3018 550.558798893,13.435300000000012 543.878298893,12.607700000000008 537.194198893,11.819699999999997 530.5019988930001,11.070600000000013 523.799898893,10.359200000000016 517.089998893,9.685300000000012 510.375398893,9.04900000000002 503.65659889299997,8.450699999999998 496.93229889300005,7.890299999999996 490.201698893,7.367199999999997 483.467298893,6.8814000000000135 476.734798893,6.43310000000001 470.006298893,6.023700000000005 463.276398893,5.654500000000013 456.534398893,5.324600000000018 449.77519889300004,5.0312000000000126 443.006298893,4.77170000000001 436.243098893,4.5464000000000055 429.493998893,4.358400000000017 422.75459889300004,4.210400000000007 416.013498893,4.102400000000003 409.265298893,4.032800000000009 402.513798893,4.0 395.76749889300004,4.004400000000004 389.029098893,4.04740000000001 382.293698893,4.130100000000013 375.554798893,4.251900000000006 368.812898893,4.411300000000011 362.07589889300004,4.607300000000009 355.35199889300003,4.841000000000008 348.640998893,5.114400000000003 341.93509889300003,5.429100000000005 335.227798893,5.784000000000006 328.52179889300004,6.177499999999995 321.827798893,6.608300000000014 315.153698893,7.07820000000001 308.49779889300004,7.589900000000014 301.850798893,8.144900000000007 295.20719889300005,8.742500000000007 288.56979889300004,9.381000000000014 281.947598893,10.059500000000014 275.346398893,10.779300000000006 268.76589889300004,11.542000000000016 262.202098893,12.348800000000011 255.653798893,13.19980000000001 249.124198893,14.094400000000007 242.618598893,15.033000000000001 236.138998893,16.0171 229.683398893,17.048299999999998 223.248798893,18.1276 216.83379889299997,19.254900000000006 210.44019889299997,20.42996000000001 204.07159889300002,21.652680000000004 197.732598893,22.922780000000003 191.428598893,24.240040000000008 185.163498893,25.605710000000002 178.936898893,27.022040000000004 172.745198893,28.491500000000002 166.585398893,30.014610000000005 160.458698893,31.59066 154.370098893,33.218480000000014 148.32629889299997,34.89769000000001 142.33329889299998,36.62798000000001 136.396198893,38.40946000000001 130.51769889300002,40.24346000000001 124.696898893,42.13234 118.931298893,44.07771000000001 113.222598893,46.07782 107.579298893,48.12818 102.015788893,50.223910000000004 96.546398893,52.36192000000001 91.182458893,54.53948000000001 85.93328889300001,56.75401000000001 80.808038893,59.002390000000005 75.815518893,61.28067000000001 70.965128893,63.582910000000005 66.270948893,65.89895000000001 61.750738893,68.21536 57.423098892999995,70.51809 53.305058893,72.79467 49.408298893,75.03347000000001 45.738398892999996,77.2244 42.297998893,79.35786000000002 39.087898893,81.42419000000001 36.104818893,83.41551000000001 33.341518893,85.32715000000002 30.789078893,87.15757 28.436098893,88.90674000000001 26.268968893,90.57613 24.273188893,92.16885 22.435518893,93.68966 20.743098893000003,95.14340000000001 19.183338893,96.53468000000001 17.744258893,97.86795000000001 16.415318893,99.14769000000001 15.187278893,100.37832 14.051498893,101.56385 12.999942893,102.70794000000001 12.025441893,103.81394 11.122404893,104.885 10.285972893,105.92380000000001 9.511621893000001,106.93257000000001 8.795171893,107.91326000000001 8.133865893,108.86806000000001 7.5258458930000005,109.79962800000001 6.9689058930000005,110.71066300000001 6.460704893,111.60376300000001 5.999514893,112.48119200000001 5.585061893,113.344226 5.2172718929999995,114.19318200000001 4.895866093,115.02775600000001 4.621078493,115.847143 4.394970593,116.65103400000001 4.218999593,117.441265 4.094330863,118.221326 4.021739253,118.99533100000001 4.0,119.76583227 4.028639313,120.53472380000001 4.108592493,121.303758 4.241817093,122.074612 4.430391193,122.848279 4.6771144929999995,123.62421900000001 4.985258993,124.399905 5.356982893,125.17146400000001 5.791400893,125.936456 6.286746893,126.69290900000001 6.840902893,127.439051 7.452470893,128.173808 8.122278893,128.897339 8.851381893,129.609869 9.640543893,130.31147 10.490559893,131.00221 11.403515893,131.68278 12.381713893,132.35423 13.427276893,133.01799 14.542458893000001,133.6758 15.731768893,134.32887 17.000778893000003,134.97852 18.355318893,135.62651 19.801418893,136.2752 21.346758893,136.92589 23.000948893,137.57898 24.774658893,138.23515 26.679698893,138.89561 28.729728893,139.56177 30.941018893,140.23453 33.331278893000004,140.91519 35.919208893000004,141.60584 38.724078893,142.30897000000002 41.76607889299999,143.02384 45.064238892999995,143.74811 48.635468892999995,144.47927 52.49650889299999,145.21528 56.663368893,145.95365 61.144678893,146.69156 65.938418893,147.42680000000001 71.032128893,148.156 76.40372889300001,148.87234 82.02461889300001,149.56976 87.868068893,150.24427 93.909668893,150.89286 100.123498893,151.51372 106.48499889300001,152.10641 112.97169889300001,152.67065000000002 119.561998893,153.20689 126.23639889300001,153.71612000000002 132.97959889299997,154.19839000000002 139.781398893,154.65416 146.636898893,155.08472 153.541698893,155.49229 160.48809889299997,155.87915 167.46579889299997,156.24667 174.46669889299997,156.59486 181.487898893,156.92394000000002 188.529698893,157.23476 195.59119889299998,157.52862000000002 202.668398893,157.80667 209.75619889299998,158.06917 216.852698893,158.31595000000002 223.960398893,158.54712 231.08269889299999,158.76389 238.218898893,158.96784 245.363598893,159.16004 252.51139889299998,159.34001 259.66179889299997,159.507 266.818698893,159.6609 273.98649889300003,159.80294 281.166998893,159.93445 288.358898893,160.05650000000003 295.55849889300003,160.16977 302.759698893,160.27485000000001 309.956298893,160.37116 317.148898893,160.45715 324.34669889300005,160.53163 331.56089889300006,160.59621 338.791698893,160.65397000000002 346.026698893,160.7072 353.252398893,160.7542 360.46879889300004,160.79211 367.68889889300004,160.81942 374.925098893,160.83854000000002 382.17709889300005,160.85252 389.43389889300005,160.86289 396.685598893,160.86843 403.930098893,160.86768 411.171598893,160.85995 418.41449889300003,160.84537 425.661898893,160.82409 432.91469889300004,160.79672 440.171298893,160.76412000000002 447.427498893,160.72701 454.678798893,160.68487 461.924698893,160.63672000000003 469.167798893,160.58181000000002 476.410898893,160.52036 483.653598893,160.45285 490.892398893,160.37935000000002 498.124698893,160.29912000000002 505.351398893,160.21128000000002 512.575698893,160.11547000000002 519.7990988930001,160.01202 527.020398893,159.90128 534.236398893,159.78306 541.445298893,159.6567 548.647398893,159.52152 555.8438988930001,159.37711000000002 563.0345988930001,159.22316 570.218298893,159.05935 577.393998893,158.88505 584.563098893,158.6995 591.728598893,158.50221000000002 598.892198893,158.29351 606.051498893,158.07398 613.201598893,157.84355 620.338898893,157.60101 627.463698893,157.34496000000001 634.579098893,157.07458 641.686498893,156.78971 648.785198893,156.49025 655.8726988930001,156.17566 662.946298893,155.84513 670.003598893,155.4978 677.043998893,155.13243 684.0701988930001,154.74748 691.0880988929999,154.34169 698.101098893,153.91558 705.105098893,153.47048 712.089598893,153.00704000000002 719.0461988930001,152.52314 725.975298893,152.01587 732.8831988930001,151.48303 739.7732988930001,150.92424 746.642098893,150.33975 753.481898893,149.72887 760.288898893,149.08934 767.065998893,148.41843 773.818698893,147.71442000000002 780.547398893,146.97691 787.246398893,146.20594 793.909298893,145.39941000000002 800.536898893,144.55335 807.138698893,143.66329000000002 813.727998893,142.72687000000002 820.316998893,141.74237 826.916398893,140.70869000000002 833.535598893,139.62711000000002 840.181498893,138.49967 846.858598893,137.32941 853.565698893,136.12179 860.294198893,134.88415 867.027198893,133.62898 873.7378988930001,132.37602 880.389098893,131.14713 886.942698893,129.96381000000002 893.381998893,128.84250300000002 899.715798893,127.79329700000001 905.964498893,126.81926800000001 912.140498893,125.92106700000001 918.2445988930001,125.100924 924.272998893,124.36284400000001 930.2288988930001,123.710603 936.1233988930001,123.14669900000001 941.968298893,122.67111700000001 947.765198893,122.28333 953.504998893,121.983393 959.177798893,121.771448 964.7877988930001,121.64711600000001 970.353198893,121.60849100000001 975.8788988929999,121.638979 981.314098893,121.713716 986.561498893,121.80611400000001 991.5298988930001,121.884594 996.176698893,121.92426900000001 1000.498498893,121.917028 1003.997198893,121.8789" stroke="black" stroke-width="2.0" /></svg>