<?xml version="1.0" encoding="utf-8" ?>
<svg baseProfile="full" height="269.9769" version="1.1" width="1012.001288155" xmlns="http://www.w3.org/2000/svg" xmlns:ev="http://www.w3.org/2001/xml-events" xmlns:xlink="http://www.w3.org/1999/xlink"><defs /><polygon fill="none" points="1004.001288155,135.50830000000002 998.849788155,133.90590500000002 992.793988155,132.09165900000002 986.523888155,130.402087 980.047688155,128.688877 973.3569881550001,127.017863 966.374088155,125.39632000000002 959.069188155,123.76306000000001 951.4521881549999,122.09237000000002 943.536488155,120.37257000000001 935.330688155,118.60893000000002 926.8393881549999,116.80390000000001 918.0730881549999,114.94669000000002 909.053688155,113.03040000000001 899.812588155,111.06335000000001 890.390788155,109.05503000000002 880.8258881549999,107.00344000000001 871.134388155,104.90136000000001 861.320388155,102.74974000000002 851.396888155,100.55528000000001 841.385688155,98.32284000000001 831.303088155,96.05313000000001 821.155388155,93.74556000000001 810.944688155,91.40057000000002 800.6730881550001,89.01903000000001 790.342888155,86.60285000000002 779.956488155,84.15451000000002 769.516388155,81.67669000000001 759.026288155,79.17240000000001 748.4917881550001,76.64519000000001 737.919788155,74.09850000000002 727.3166881550001,71.5352 716.687788155,68.95803000000002 706.039588155,66.37074000000001 695.3841881550001,63.77874000000001 684.739088155,61.18892000000001 674.121588155,58.6084 663.542488155,56.04278000000002 653.006988155,53.49550000000002 642.522188155,50.96825000000001 632.101088155,48.46382000000001 621.7614881549999,45.987350000000006 611.518888155,43.546700000000016 601.382388155,41.148510000000016 591.3562881549999,38.79763000000001 581.443388155,36.497460000000004 571.648588155,34.25140000000002 561.978388155,32.063 552.439188155,29.937600000000003 543.035488155,27.880200000000002 533.770188155,25.8951 524.644088155,23.986500000000007 515.654688155,22.158900000000017 506.79638815500005,20.415500000000023 498.060688155,18.758600000000015 489.438788155,17.189000000000007 480.922888155,15.706700000000012 472.506688155,14.312100000000015 464.18458815500003,13.005500000000012 455.95148815500005,11.787500000000009 447.801788155,10.658800000000028 439.728888155,9.619800000000012 431.72578815500003,8.670900000000017 423.785688155,7.81140000000002 415.902488155,7.040900000000022 408.070088155,6.358700000000027 400.28328815500004,5.764800000000008 392.53718815499997,5.25800000000001 384.828288155,4.8373000000000275 377.153888155,4.501800000000003 369.512388155,4.250700000000023 361.902588155,4.083500000000015 354.32348815499995,4.000100000000003 346.77408815499996,4.0 339.25298815499997,4.083300000000008 331.759288155,4.249300000000005 324.29218815499996,4.497300000000024 316.851688155,4.826600000000013 309.43838815500004,5.23660000000001 302.053188155,5.726200000000006 294.697588155,6.294600000000003 287.373688155,6.940500000000014 280.083888155,7.662800000000004 272.831388155,8.4602 265.619388155,9.331100000000006 258.451988155,10.273899999999998 251.333488155,11.286900000000017 244.26888815499998,12.36800000000001 237.263188155,13.515200000000007 230.322288155,14.726000000000013 223.452188155,15.997900000000016 216.658988155,17.32810000000002 209.94928815499998,18.713700000000017 203.329488155,20.151700000000005 196.806088155,21.63860000000001 190.38508815499998,23.170900000000003 184.073088155,24.744800000000012 177.876488155,26.356400000000022 171.801288155,28.00120000000001 165.853388155,29.675200000000018 160.038088155,31.37490000000001 154.36018815499997,33.09650000000002 148.823288155,34.83620000000002 143.430188155,36.590540000000004 138.18318815499998,38.356330000000014 133.083588155,40.13041000000001 128.131988155,41.90977000000001 123.32818815499999,43.691490000000016 118.671188155,45.47272000000001 114.159988155,47.25065000000001 109.792888155,49.02263000000001 105.567788155,50.78621000000001 101.48223815499999,52.539400000000015 97.533668155,54.28066000000001 93.71903815499999,56.0086 90.034968155,57.72199000000002 86.477778155,59.41975000000001 83.043768155,61.10119000000002 79.729208155,62.76593000000001 76.530198155,64.41367000000001 73.442718155,66.04420000000002 70.462668155,67.65736000000001 67.585968155,69.25309000000001 64.808768155,70.83135000000001 62.127318155,72.39210000000001 59.537988155,73.93531000000002 57.037198155,75.46098 54.621498155,76.96915000000001 52.287708155,78.46008 50.032978154999995,79.93435000000001 47.854438155,81.39251000000002 45.749248155,82.83513000000002 43.714598155,84.26273 41.747728155,85.67583000000002 39.846018154999996,87.07493000000001 38.007078154999995,88.46047000000002 36.228688155,89.83281000000002 34.508668155,91.19231000000002 32.844968155000004,92.53926000000001 31.235598155,93.87393 29.678658155,95.19658000000001 28.172788155,96.50782000000001 26.716968155,97.80853000000002 25.310068155,99.09955000000001 23.950938155,100.38169000000002 22.638348155000003,101.65572000000002 21.371068155000003,102.92237000000002 20.147908155,104.18230000000001 18.967968155,105.43606000000001 17.830538155,106.68405000000001 16.734948154999998,107.92661000000001 15.680498155,109.16401000000002 14.666528154999998,110.39644000000001 13.692346155,111.62408000000002 12.757572154999998,112.84720000000002 11.863219155000001,114.06681 11.010478155000001,115.28423000000001 10.200257155,116.50080000000001 9.433243155,117.71785000000001 8.709960155000001,118.93674000000001 8.030843155,120.15883000000001 7.397532155,121.38480000000001 6.813341155,122.61431000000002 6.281553155,123.84672 5.805246155,125.08123 5.387254155,126.31685000000002 5.030124155,127.55244100000002 4.734388655,128.78632700000003 4.495728955,130.01605700000002 4.309202655,131.24006200000002 4.170229055,132.457781 4.074687665,133.669521 4.018968975,134.87635640000002 4.0,136.0800895 4.015575995,137.28362 4.064660075,138.490721 4.146704155,139.70472 4.261464755,140.92839800000002 4.408907055,142.16398500000003 4.589107155,143.413091 4.802139955,144.676592 5.047947155,145.95446 5.326362155,147.24563 5.637833155,148.54840000000002 5.983005155,149.86110000000002 6.362472155000001,151.18215 6.776812155,152.51013 7.226629155,153.84384 7.712593155,155.18235 8.235507155,156.52499 8.796328155000001,157.87147000000002 9.396016155,159.22177000000002 10.035557155,160.57583 10.715998155,161.93351 11.438439155000001,163.29457000000002 12.204023154999998,164.65863000000002 13.013925154999999,166.02517 13.869325154999999,167.39353 14.770958154999999,168.76346 15.718738155,170.13577 16.712358154999997,171.51136000000002 17.751378154999998,172.89119000000002 18.835128155,174.27627 19.962698154999998,175.66762 21.132888155,177.0663 22.344898155,178.47294 23.599998154999998,179.88680000000002 24.900018155,181.30678 26.246948155000002,182.73179000000002 27.642968155000002,184.16068 29.090478155000003,185.59229000000002 30.592208155,187.02543000000003 32.150888155000004,188.45922000000002 33.768458155000005,189.89384 35.446638155,191.32968 37.187168154999995,192.76716000000002 38.991778155,194.20666 40.862108155,195.64857 42.799718155,197.09325 44.806398155,198.54110000000003 46.88437815499999,199.9926 49.035938155,201.44835 51.263348154999996,202.90901000000002 53.568838155,204.37532000000002 55.954568155,205.84815 58.422838154999994,207.32821 60.976618155,208.81571000000002 63.618978155,210.31074999999998 66.352958155,211.81347000000002 69.181568155,213.32403 72.10773815499999,214.84261000000004 75.134548155,216.36918000000003 78.265358155,217.90337 81.503448155,219.44474000000002 84.851928155,220.99282 88.313698155,222.54707000000002 91.891488155,224.10683 95.58811815499999,225.67090000000002 99.406138155,227.23781000000002 103.347668155,228.80596000000003 107.414388155,230.37362000000002 111.607388155,231.93877000000003 115.927688155,233.49852 120.376188155,235.04966000000002 124.95318815499999,236.58880000000002 129.658688155,238.11260000000001 134.492688155,239.6174 139.45468815499999,241.0999 144.543688155,242.55650000000003 149.758188155,243.9835 155.096388155,245.37740000000002 160.556188155,246.73430000000002 166.135488155,248.0507 171.831688155,249.3227 177.642488155,250.54690000000002 183.565688155,251.7204 189.598888155,252.8403 195.739688155,253.90430000000003 201.985888155,254.9101 208.335188155,255.85590000000002 214.784688155,256.7405 221.330188155,257.56280000000004 227.966188155,258.3219 234.686088155,259.0164 241.483588155,259.6431 248.353788155,260.1993 255.293488155,260.6822 262.300888155,261.0901 269.374888155,261.422 276.513388155,261.67719999999997 283.713488155,261.8553 290.971788155,261.95550000000003 298.284888155,261.9769 305.650888155,261.9182 313.068988155,261.7785 320.539988155,261.557 328.064788155,261.25430000000006 335.64278815499995,260.8712 343.271588155,260.4089 350.947488155,259.86850000000004 358.665788155,259.25 366.423188155,258.553 374.217488155,257.7774 382.047688155,256.9228 389.91318815499994,255.98950000000002 397.81228815500003,254.978 405.74208815500003,253.88920000000002 413.69808815500005,252.72390000000001 421.67618815500003,251.4813 429.673888155,250.1599 437.691488155,248.7577 445.73168815500003,247.2726 453.799288155,245.703 461.899388155,244.04790000000003 470.03778815500004,242.30580000000003 478.220288155,240.47520000000003 486.45338815499997,238.5557 494.743188155,236.5473 503.094788155,234.45022 511.5128881549999,232.26492000000002 520.0014881550001,229.99173000000002 528.5649881549999,227.63100000000003 537.207888155,225.18307000000001 545.9349881549999,222.64848 554.7510881549999,220.02842 563.6605881549999,217.32459 572.6667881550001,214.53924 581.7722881550001,211.67600000000002 590.976888155,208.74082 600.276788155,205.74152 609.663488155,202.68805 619.1210881549999,199.59286 628.623588155,196.47215 638.1342881549999,193.34601 647.610288155,190.23637000000002 657.014888155,187.16259000000002 666.322388155,184.14004 675.516888155,181.18057000000002 684.590088155,178.29402000000002 693.5386881549999,175.48796000000002 702.363188155,172.76777 711.065488155,170.13628 719.645988155,167.59549 728.1042881550001,165.14733 736.4400881549999,162.79434 744.654088155,160.53956000000002 752.749488155,158.38510000000002 760.730388155,156.33232 768.6023881550001,154.38255 776.3715881549999,152.53678000000002 784.0453881550001,150.79558 791.631088155,149.15875 799.136188155,147.62525000000002 806.567988155,146.19399 813.9341881549999,144.863852 821.240988155,143.63233100000002 828.4916881549999,142.496746 835.687288155,141.45499900000002 842.826688155,140.50625100000002 849.909988155,139.65117 856.939588155,138.890284 863.919288155,138.223553 870.852388155,137.648942 877.739488155,137.164104 884.5786881549999,136.7671364 891.367188155,136.4582454 898.1038881549999,136.2387083 904.789288155,136.1095553 911.425188155,136.07053760000002 918.013088155,136.12058710000002 924.554488155,136.2585022 931.049488155,136.48104120000002 937.4951881549999,136.78381240000002 943.885588155,137.164115 950.2153881549999,137.62502700000002 956.482788155,138.170429 962.6893881550001,138.80125800000002 968.839188155,139.515555 974.938588155,140.28001300000003 980.984388155,141.033654 986.9511881550001,141.806904 992.823988155,142.59439600000002 998.7370881549999,143.04019100000002 1004.001288155,143.2383" stroke="black" stroke-width="2.0" /></svg>