<?xml version="1.0" encoding="utf-8" ?>
<svg baseProfile="full" height="490.4986" version="1.1" width="1011.998936453" xmlns="http://www.w3.org/2000/svg" xmlns:ev="http://www.w3.org/2001/xml-events" xmlns:xlink="http://www.w3.org/1999/xlink"><defs /><polygon fill="none" points="1003.998936453,166.91320000000002 1003.825636453,162.03859999999997 1003.949036453,158.44709999999998 1003.8548364530001,155.85829999999999 1003.4744364530001,153.96499999999997 1002.782936453,152.647 1001.7590364530001,151.8509 1000.3843364530001,151.54749999999999 998.8887364530001,151.3768 997.6930364530001,150.7207 996.790336453,149.5837 996.018636453,148.20379999999997 995.2199364530001,146.8259 994.3123364530001,145.58079999999998 993.318736453,144.4313 992.271236453,143.3243 991.2038364530001,142.20229999999998 990.1343364530001,141.03300000000002 989.056136453,139.825 987.960036453,138.5906 986.835936453,137.3436 985.6745364530001,136.0974 984.473336453,134.85379999999998 983.2329364530001,133.6102 981.9539364530001,132.3637 980.637536453,131.1113 979.2842364530001,129.8507 977.891836453,128.58469999999997 976.456836453,127.31739999999999 974.9753364530001,126.053 973.442836453,124.79599999999999 971.8543364530001,123.55100000000002 970.2065364530001,122.321 968.496536453,121.10829999999999 966.720936453,119.91569999999999 964.8761364530001,118.7458 962.957836453,117.60210000000001 960.961936453,116.48579999999998 958.8852364530001,115.39529999999999 956.724536453,114.3278 954.4766364530001,113.28059999999999 952.138136453,112.25029999999998 949.705636453,111.23299999999998 947.1749364530001,110.2233 944.540736453,109.2133 941.7975364530001,108.19359999999998 938.9407364530001,107.15299999999999 935.9661364530001,106.0778 932.8707364530001,104.95349999999999 929.648136453,103.77519999999998 926.2898364530001,102.5429 922.7864364530001,101.2569 919.1270364530001,99.91819999999998 915.299436453,98.52789999999999 911.2912364530001,97.08340000000001 907.090036453,95.5812 902.683436453,94.01769999999999 898.059236453,92.3894 893.2056364530001,90.69390000000001 888.111036453,88.93010000000001 882.7632364530001,87.09719999999999 877.1495364530001,85.19470000000001 871.2578364530001,83.22120000000001 865.0780364530001,81.1754 858.604036453,79.05729999999997 851.834036453,76.86939999999998 844.768536453,74.61759999999998 837.4091364530001,72.30879999999999 829.756736453,69.94919999999999 821.816036453,67.543 813.599136453,65.09549999999999 805.125636453,62.61519999999999 796.4176364530001,60.1147 787.4946364530001,57.605999999999995 778.3720364530001,55.09869999999998 769.066136453,52.59989999999999 759.597336453,50.11680000000001 749.9880364530001,47.657899999999984 740.258636453,45.232099999999974 730.4249364530001,42.846599999999995 720.498936453,40.506399999999985 710.4934364530001,38.214999999999975 700.422436453,35.976200000000006 690.3004364530001,33.794100000000014 680.140436453,31.672799999999995 669.9536364530001,29.615899999999982 659.749536453,27.626300000000015 649.536236453,25.70659999999998 639.3203364530001,23.85899999999998 629.108136453,22.085099999999983 618.9062364530001,20.385999999999967 608.722736453,18.76310000000001 598.566036453,17.21799999999996 588.4431364530001,15.752899999999954 578.358736453,14.369199999999978 568.316036453,13.067999999999984 558.318236453,11.849499999999978 548.371236453,10.71410000000003 538.482936453,9.661900000000003 528.662436453,8.694500000000005 518.9164364530001,7.814400000000035 509.248636453,7.0236999999999625 499.660136453,6.3238999999999805 490.150136453,5.715599999999995 480.71843645300004,5.199199999999962 471.364936453,4.774799999999971 462.09013645299996,4.44259999999997 452.894936453,4.202800000000025 443.780036453,4.0552000000000135 434.74653645300003,4.0 425.795136453,4.036899999999946 416.926836453,4.165900000000022 408.142236453,4.387200000000007 399.44153645299997,4.700800000000015 390.824436453,5.106799999999964 382.290236453,5.605199999999968 373.838336453,6.195599999999956 365.468336453,6.877599999999973 357.17993645300004,7.650899999999979 348.973036453,8.514999999999986 340.847736453,9.469299999999976 332.80423645300004,10.51320000000004 324.842936453,11.646299999999997 316.964036453,12.86790000000002 309.16793645300004,14.177400000000034 301.454936453,15.574000000000012 293.825436453,17.05709999999999 286.280036453,18.625999999999976 278.818836453,20.279899999999998 271.442236453,22.018100000000004 264.150236453,23.83979999999997 256.943436453,25.744 249.82213645299998,27.729299999999995 242.78713645300002,29.7945 235.839236453,31.9384 228.979236453,34.1593 222.208436453,36.45579999999998 215.528136453,38.82599999999999 208.94003645299998,41.26789999999997 202.445636453,43.77959999999999 196.046936453,46.3588 189.74593645299998,49.003600000000006 183.544536453,51.71209999999999 177.44463645300002,54.482500000000016 171.447636453,57.31279999999998 165.554736453,60.2012 159.767336453,63.14599999999999 154.086736453,66.14579999999998 148.513936453,69.19919999999999 143.049636453,72.3046 137.694136453,75.4608 132.44813645300002,78.6663 127.31153645299999,81.91990000000001 122.284036453,85.2208 117.364936453,88.56809999999999 112.552936453,91.96100000000001 107.846636453,95.39699999999999 103.24505645299999,98.8731 98.747776453,102.38560000000001 94.355026453,105.9308 90.067546453,109.50469999999999 85.886366453,113.10349999999997 81.812456453,116.7233 77.84664645299999,120.36019999999999 73.99004645299999,124.01049999999998 70.24438645299999,127.67169999999999 66.61081645299998,131.342 63.089766452999996,135.01979999999998 59.681156453,138.704 56.384896453,142.3935 53.200726453,146.0873 50.128116453,149.7846 47.166356453,153.4847 44.315006453,157.187 41.573546453,160.891 38.941216452999996,164.5966 36.417006453,168.3041 33.999816453,172.0131 31.688486453,175.7234 29.481926453,179.43473 27.379076453,183.14677 25.379066453,186.85912 23.481046452999998,190.57153 21.684136453,194.28397999999999 19.987146453,197.99636999999998 18.388386453000003,201.70803 16.886276453,205.41806 15.479526453000002,209.12545 14.167496453,212.82925 12.949846453,216.52877999999998 11.826152452999999,220.22358 10.795235453,223.91294 9.855402453,227.59591999999998 9.004900453,231.27159 8.239769453000001,234.93842999999998 7.554696453,238.59399 6.944648452999999,242.23507999999998 6.404726453,245.85843 5.929986453,249.46069 5.511840453,253.03804 5.1382124529999995,256.58549 4.804329553,260.09774 4.518656953,263.56911 4.289724153,266.99224 4.123627053,270.365026 4.025354843,273.69498699999997 4.0,276.9978929 4.050185233,280.29499 4.171403153,283.600363 4.363966053,286.91283 4.653830553,290.22668 5.0155574529999996,293.54256 5.450602453,296.85807 5.965830453,300.17052 6.564708453,303.47876 7.243789453,306.78228 8.005451453,310.0779 8.859381453,313.36243 9.808878453,316.63625 10.849264453,319.90081 11.977347453,323.15541 13.195281453,326.39778 14.506286453000001,329.62642 15.911656453,332.84125 17.411116452999998,336.04258 19.004346453,339.23046 20.690616453,342.40526 22.468896453,345.5673 24.338106452999998,348.71639 26.298586453,351.85145 28.351756453,354.97116 30.499386452999996,358.07444 32.742826453,361.16103999999996 35.082386453,364.23159 37.518016453,367.28641 40.049416453,370.32538999999997 42.676856453,373.34793 45.401046453,376.35323 48.222626453000004,379.3404 51.142256453,382.3086 54.160976452999996,385.2567 57.280006453,388.18359999999996 60.500586453,391.0881 63.823956453,393.9692 67.251426453,396.8259 70.784246453,399.6575 74.423466453,402.46299999999997 78.16989645299999,405.2412 82.024506453,407.991 85.98864645299999,410.7106 90.06373645299999,413.3985 94.25124645300001,416.0532 98.552746453,418.6731 102.970106453,421.2568 107.505236453,423.8032 112.15993645299999,426.3108 116.936136453,428.77819999999997 121.835536453,431.2041 126.860536453,433.58709999999996 132.013436453,435.92629999999997 137.296636453,438.2202 142.712636453,440.46799999999996 148.264436453,442.6688 153.954736453,444.8223 159.785736453,446.92769999999996 165.758936453,448.9844 171.875236453,450.9914 178.13563645300002,452.9468 184.541836453,454.8488 191.095436453,456.6955 197.798536453,458.4855 204.653736453,460.2177 211.663436453,461.8911 218.829536453,463.50480000000005 226.152936453,465.05780000000004 233.63423645299997,466.5489 241.274336453,467.9764 249.074336453,469.33889999999997 257.035636453,470.6352 265.160536453,471.8645 273.450936453,473.02639999999997 281.90853645299995,474.1205 290.534036453,475.14689999999996 299.327536453,476.1053 308.288836453,476.99559999999997 317.41693645299995,477.818 326.709736453,478.57280000000003 336.16523645300003,479.25980000000004 345.780636453,479.87919999999997 355.553036453,480.43129999999996 365.478936453,480.9167 375.55413645299996,481.3357 385.772636453,481.6894 396.127936453,481.97839999999997 406.613336453,482.203 417.222736453,482.3641 427.950236453,482.4623 438.787936453,482.4986 449.724736453,482.4742 460.748236453,482.3887 471.851936453,482.2399 483.03863645300004,482.02570000000003 494.316136453,481.7473 505.685136453,481.409 517.1345364530001,481.01509999999996 528.6492364530001,480.56579999999997 540.2225364530001,480.05920000000003 551.8578364530001,479.4942 563.559636453,478.8723 575.3267364530001,478.1962 587.1527364530001,477.4676 599.0324364530001,476.68780000000004 610.9635364530001,475.8579 622.9436364530001,474.9796 634.965936453,474.0555 647.020536453,473.0873 659.1002364530001,472.0749 671.203236453,471.0185 683.326436453,469.92089999999996 695.459536453,468.78589999999997 707.586836453,467.6163 719.693736453,466.4137 731.766936453,465.1805 743.790336453,463.9204 755.742936453,462.63779999999997 767.5988364530001,461.3385 779.327336453,460.0288 790.8922364530001,458.7152 802.2525364530001,457.4044 813.3676364530002,456.1018 824.2036364530001,454.81129999999996 834.7297364530001,453.5402 844.9087364530001,452.299 854.702736453,451.09529999999995 864.085236453,449.93129999999996 873.044336453,448.80920000000003 881.5743364530001,447.735 889.671236453,446.7137 897.3361364530001,445.7434 904.5771364530001,444.8184 911.409536453,443.93629999999996 917.859236453,443.1048 923.9605364530001,442.3304 929.748336453,441.6127 935.244436453,440.9405 940.455536453,440.30409999999995 945.381736453,439.68870000000004 950.0272364530001,439.0331 954.4177364530001,438.2727 958.591236453,437.3569 962.5807364530001,436.2532 966.4060364530001,434.9454 970.0830364530001,433.4131 973.631236453,431.6425 977.0802364530001,429.65279999999996 980.451836453,427.46849999999995 983.759936453,425.1041 987.0174364530001,422.5609 990.240036453,419.8334 993.4380364530001,416.91279999999995 996.6012364530001,413.7884 999.8535364530001,410.4601 1001.956836453,406.094 1003.998936453,400.83320000000003" stroke="black" stroke-width="2.0" /></svg>