<?xml version="1.0" encoding="utf-8" ?>
<svg baseProfile="full" height="163.43047" version="1.1" width="1012.2016014369999" xmlns="http://www.w3.org/2000/svg" xmlns:ev="http://www.w3.org/2001/xml-events" xmlns:xlink="http://www.w3.org/1999/xlink"><defs /><polygon fill="none" points="1004.2016014369999,133.0302 1000.8156014369999,132.2697647 996.638001437,131.2982445 992.1372014369999,130.210385 987.285901437,128.99692700000003 982.067201437,127.66063600000001 976.485401437,126.215776 970.575101437,124.67792600000001 964.390001437,123.06035200000001 957.982701437,121.37623 951.391901437,119.63506000000001 944.6508014369999,117.84491000000001 937.789301437,116.01308 930.831001437,114.14593 923.795501437,112.24989000000001 916.700001437,110.33102000000001 909.5586014369999,108.39430000000002 902.382801437,106.44339000000001 895.1816014369999,104.48118000000001 887.961101437,102.50976000000001 880.7260014369999,100.53057000000001 873.479501437,98.54474 866.2240014370001,96.55311 858.960801437,94.55628000000002 851.6903014369999,92.55460000000001 844.4123014369999,90.54853 837.127001437,88.53918000000002 829.836201437,86.52812 822.5430014369999,84.51664000000001 815.250501437,82.50504000000001 807.9606014369999,80.49327000000001 800.6743014369999,78.48111 793.3924014369999,76.4684 786.115701437,74.45505 778.8448014369999,72.44193000000001 771.579301437,70.43089 764.3181014369999,68.42356000000001 757.060201437,66.41955000000002 749.806001437,64.41658000000001 742.557101437,62.41272000000001 735.315101437,60.40860000000002 728.080401437,58.40707000000002 720.851601437,56.41063000000001 713.627901437,54.42021 706.412201437,52.43624 699.2119014369999,50.46036000000001 692.036201437,48.496330000000015 684.891801437,46.54837000000002 677.7816014370001,44.61970000000001 670.706401437,42.712680000000006 663.6680014369999,40.829740000000015 656.669701437,38.97368 649.715601437,37.14829 642.809401437,35.35766000000001 635.954601437,33.60571 629.152401437,31.89643000000001 622.3990014369999,30.232900000000015 615.685801437,28.616400000000013 609.0045014369999,27.04650000000001 602.352701437,25.52300000000001 595.733501437,24.047200000000018 589.1503014369999,22.622800000000012 582.602001437,21.2526 576.082501437,19.93820000000001 569.583601437,18.6794 563.096701437,17.475700000000003 556.612901437,16.326099999999997 550.126701437,15.2286 543.637601437,14.181899999999999 537.1494014369999,13.185900000000004 530.6648014369999,12.2423 524.1827014369999,11.352400000000003 517.6984014369999,10.516200000000012 511.20670143699994,9.732700000000008 504.70230143699996,9.000700000000009 498.181301437,8.319100000000006 491.644901437,7.68610000000001 485.100901437,7.100800000000007 478.560001437,6.564400000000006 472.02550143699995,6.07980000000002 465.489501437,5.6488000000000085 458.939101437,5.270100000000028 452.37030143699997,4.940400000000011 445.791601437,4.657200000000017 439.21730143699995,4.421899999999994 432.652801437,4.237399999999994 426.09210143699994,4.106200000000001 419.523501437,4.02770000000001 412.940701437,4.0 406.34430143699996,4.0216000000000065 399.738201437,4.09190000000001 393.12600143699996,4.210499999999996 386.509501437,4.3773000000000195 379.88910143699997,4.592300000000009 373.26340143699997,4.855800000000016 366.629501437,5.167900000000003 359.985401437,5.527600000000021 353.332201437,5.933700000000002 346.674301437,6.384999999999991 340.01600143699994,6.88130000000001 333.359101437,7.423100000000005 326.702801437,8.0107 320.04580143699997,8.643900000000002 313.388101437,9.32220000000001 306.730401437,10.045100000000005 300.07470143699993,10.812200000000004 293.424001437,11.622700000000009 286.782101437,12.47620000000002 280.15110143699997,13.373000000000005 273.530701437,14.313800000000015 266.919101437,15.298900000000017 260.317001437,16.327900000000014 253.729301437,17.399500000000003 247.162701437,18.513200000000012 240.618901437,19.670600000000007 234.092401437,20.874300000000005 227.57470143700002,22.125400000000013 221.065201437,23.421700000000016 214.57470143700002,24.75890000000001 208.118401437,26.13520000000001 201.702101437,27.553200000000004 195.319101437,29.017300000000006 188.95870143700003,30.529500000000013 182.620201437,32.08775 176.315201437,33.68762000000001 170.057901437,35.32758000000001 163.852501437,37.0099 157.692501437,38.73880000000001 151.571201437,40.51495 145.49350143700002,42.334680000000006 139.475301437,44.192110000000014 133.533101437,46.08568000000001 127.672401437,48.01763000000001 121.889801437,49.99149000000001 116.182601437,52.006820000000005 110.556701437,54.059640000000016 105.024901437,56.14408 99.602821437,58.25491000000001 94.304761437,60.386700000000005 89.14358143700001,62.53438000000001 84.130661437,64.69384000000001 79.27498143700001,66.86095000000002 74.583621437,69.03091 70.065421437,71.19623000000001 65.731091437,73.34735 61.591131436999994,75.47487000000001 57.653991437,77.57233000000001 53.923261437,79.63459 50.397931437,81.65758000000001 47.074651437,83.63771000000001 43.948611437,85.57151000000002 41.013221437,87.45612 38.260721436999994,89.28946 35.683381437,91.06968 33.273071437,92.79519 31.021011437000002,94.46517 28.918941437,96.08103 26.958151437,97.64566 25.129091437,99.16227 23.422021437,100.63398000000001 21.827641437000004,102.06292 20.337671437,103.45051000000001 18.944591437,104.79793000000001 17.641901437,106.10663000000001 16.425071437,107.37958 15.289571437,108.62009 14.230641437,109.83129000000001 13.243244437000001,111.0156 12.322050437,112.17401000000001 11.462290437,113.30712000000001 10.659768437,114.41549 9.911784437,115.50023000000002 9.216617437,116.56304000000002 8.572380437,117.60557000000001 7.977078436999999,118.62925000000001 7.428675437000001,119.63492000000001 6.925175437,120.62326000000002 6.464680437,121.59492300000001 6.0456664369999995,122.550432 5.666846437,123.490181 5.326980437,124.414499 5.025653437,125.32370600000002 4.7632053370000005,126.21833900000001 4.539758837,127.09918800000001 4.355139137,127.96674200000001 4.208959337,128.820502 4.100810577,129.659399 4.030824077,130.4824829 4.0,131.2918666 4.009930194,132.0938034 4.063409577,132.896556 4.164553437,133.705146 4.318491337,134.519609 4.528934237,135.33513100000002 4.797526937,136.145845 5.126031437,136.94706000000002 5.515877437,137.73559600000002 5.967682437000001,138.508588 6.482011437000001,139.26239900000002 7.058521437,139.99394700000002 7.695987437,140.701121 8.393072437,141.381739 9.148520436999998,142.03521 9.960947437,142.66239000000002 10.828556437,143.26425 11.750442437,143.8426 12.726438436999999,144.4002 13.755903436999999,144.9403 14.839491437,145.46491 15.979581436999998,145.97473000000002 17.178731437,146.47069000000002 18.440051437,146.95405 19.767361436999998,147.42647 21.164441437,147.89006 22.635231437,148.34683 24.185121437000003,148.79642 25.820431437000003,149.23802 27.548381437,149.67086 29.377361437,150.09459 31.316641437,150.50926 33.376061437000004,150.9152 35.56590143700001,151.31283000000002 37.897821437,151.70057 40.385081437000004,152.07599000000002 43.042801436999994,152.43644 45.888431437,152.77934000000002 48.941541437,153.10288 52.222981437,153.40576000000001 55.754481437,153.68757000000002 59.557731437,153.94792 63.653301437,154.18495000000001 68.05894143700002,154.39765 72.78923143700001,154.58686 77.855681437,154.75378 83.260051437,154.89931 88.98819143700001,155.02658000000002 95.008161437,155.14029 101.275211437,155.23911 107.743001437,155.31945000000002 114.376501437,155.3783 121.156901437,155.41487 128.067201437,155.43047 135.08750143700001,155.42703 142.19560143700002,155.40621000000002 149.373101437,155.369 156.60820143700002,155.31644 163.89660143700002,155.25005000000002 171.232701437,155.17217 178.60550143700002,155.08545 185.998601437,154.99156 193.399101437,154.88933 200.804201437,154.77702 208.220101437,154.65362000000002 215.654101437,154.52047000000002 223.107801437,154.37946 230.576701437,154.23224000000002 238.05440143700002,154.07924 245.536401437,153.92062 253.02020143700003,153.75643 260.50570143699997,153.58638000000002 267.995201437,153.41006000000002 275.49290143699994,153.22734 283.00170143699995,153.03923 290.520601437,152.8471 298.04420143699997,152.65203 305.56800143699996,152.45379 313.09190143699993,152.25176000000002 320.62020143699993,152.04561 328.15610143699996,151.83619000000002 335.696801437,151.62476 343.23420143699997,151.41202 350.762101437,151.19665 358.281901437,150.97678000000002 365.80190143699997,150.75118 373.329901437,150.52089 380.86830143699996,150.28742 388.41430143699995,150.05204 395.96230143699995,149.81512 403.50620143699996,149.57687 411.04040143699996,149.33700000000002 418.563601437,149.09398000000002 426.081201437,148.84595000000002 433.60340143699995,148.59210000000002 441.13660143699997,148.33407 448.677201437,148.07410000000002 456.213801437,147.81323 463.738901437,147.54981 471.255601437,147.2816 478.774401437,147.0076 486.303201437,146.72922 493.84130143699997,146.44836 501.38120143699996,146.16611 508.916001437,145.88192 516.4429014369999,145.59499 523.963001437,145.30452 531.478901437,145.00986 538.994301437,144.71033 546.5132014369999,144.40584 554.037401437,144.0971 561.565701437,143.78498000000002 569.095001437,143.46980000000002 576.624201437,143.15113000000002 584.155901437,142.82837 591.695101437,142.50166000000002 599.244401437,142.17206000000002 606.803201437,141.84081 614.3681014370001,141.50875000000002 621.935801437,141.176254 629.504201437,140.84364300000001 637.071601437,140.51120300000002 644.635701437,140.179258 652.193201437,139.848216 659.741101437,139.51903800000002 667.279301437,139.19294000000002 674.810901437,138.87090700000002 682.3407014369999,138.55293700000001 689.870901437,138.23855500000002 697.4008014369999,137.92746100000002 704.928601437,137.619924 712.4549014369999,137.316406 719.983401437,137.017132 727.5186014369999,136.721227 735.062101437,136.42737200000002 742.6118014369999,136.134481 750.163201437,135.842397 757.711101437,135.551395 765.249701437,135.26155500000002 772.7749014369999,134.971337 780.2865014370001,134.678333 787.789101437,134.380242 795.288301437,134.076645 802.7868014369999,133.76809300000002 810.283201437,133.45548300000002 817.774101437,133.141127 825.256601437,132.82788000000002 832.728301437,132.518313 840.185101437,132.2133172 847.618001437,131.9132277 855.013101437,131.6189394 862.3559014369999,131.33399308000003 869.636101437,131.06268870000002 876.847801437,130.8089056 883.988001437,130.57621360000002 891.052801437,130.36794 898.038101437,130.18719900000002 904.937801437,130.037159 911.743201437,129.920778 918.443101437,129.840935 925.0273014369999,129.801917 931.489001437,129.80787800000002 937.8248014369999,129.86206 944.029601437,129.96638000000002 950.094001437,130.121753 956.005201437,130.328383 961.7502014369999,130.58654030000002 967.3183014370001,130.8957228 972.701001437,131.25451650000002 977.886301437,131.66051240000002 982.856301437,132.1095473 987.593601437,132.599885 992.0930014369999,133.139444 996.365201437,133.735343 1000.429601437,134.386608 1003.801601437,134.99020000000002" stroke="black" stroke-width="2.0" /></svg>