<?xml version="1.0" encoding="utf-8" ?>
<svg baseProfile="full" height="314.2289" version="1.1" width="1011.99817585" xmlns="http://www.w3.org/2000/svg" xmlns:ev="http://www.w3.org/2001/xml-events" xmlns:xlink="http://www.w3.org/1999/xlink"><defs /><polygon fill="none" points="1003.99817585,143.338 998.7751758500001,140.741638 992.66267585,138.18294 986.43227585,135.89793 980.0075758500001,133.86293 973.32387585,131.94155 966.3888758500001,130.05742 959.19527585,128.18666000000002 951.72427585,126.31123 943.96647585,124.41832 935.9174758500001,122.50044 927.57067585,120.54717 918.92977585,118.54302 910.0198758500001,116.47873000000001 900.8734758500001,114.36311 891.5169758500001,112.20518000000001 881.97327585,110.00326 872.26447585,107.75277 862.41017585,105.45569 852.43117585,103.11777000000001 842.34877585,100.74342 832.1796758500001,98.3344 821.93397585,95.89171 811.62007585,93.41821999999999 801.2491758500001,90.91786 790.8332758500001,88.39295 780.37907585,85.84339 769.88637585,83.26874 759.35467585,80.67212 748.7894758500001,78.05885 738.20197585,75.43551 727.6040758500001,72.80888 717.00777585,70.18546 706.4242758500001,67.5703 695.8644758500001,64.96752000000001 685.3379758500001,62.38111000000001 674.85287585,59.815430000000006 664.41547585,57.27453000000001 654.03057585,54.76193000000001 643.70167585,52.28071 633.43227585,49.83373 623.22557585,47.4237 613.08447585,45.053 603.01227585,42.7243 593.01247585,40.439800000000005 583.08837585,38.202200000000005 573.2439758500001,36.014300000000006 563.48327585,33.878699999999995 553.8100758500001,31.7984 544.22737585,29.776700000000005 534.73737585,27.816599999999994 525.34157585,25.920500000000004 516.04087585,24.091000000000008 506.83607584999993,22.33030000000001 497.72737585,20.6404 488.71497585,19.023300000000006 479.79907585,17.481300000000005 470.97987585,16.016199999999998 462.25747585,14.629700000000014 453.63107585,13.324299999999994 445.09797584999995,12.101800000000026 436.65377585,10.963999999999999 428.29357584999997,9.911600000000021 420.01297585000003,8.944400000000002 411.80937585,8.062300000000022 403.68137585,7.265500000000003 395.62827584999997,6.554400000000015 387.64887585,5.9298 379.74057584999997,5.392699999999991 371.89967585,4.9436000000000035 364.12187585,4.58250000000001 356.40427585,4.308400000000006 348.74577585,4.120400000000018 341.14657585000003,4.017699999999991 333.60847585,4.0 326.13227585,4.0685 318.71757585,4.223899999999986 311.36267584999996,4.467500000000001 304.06477585,4.799599999999998 296.82127585,5.219700000000017 289.63027585,5.727000000000004 282.49057584999997,6.320799999999991 275.40147585,7.00030000000001 268.36307585000003,7.763900000000007 261.37657585,8.6096 254.44417585,9.535499999999985 247.56917585,10.5394 240.75497585,11.619799999999998 234.00487585,12.775500000000022 227.32197584999997,14.004799999999989 220.70877585,15.306100000000015 214.16797584999998,16.67700000000002 207.70337585,18.114299999999986 201.31917585,19.614599999999996 195.02037585,21.174299999999988 188.81247584999997,22.78970000000001 182.70087585,24.4572 176.69047584999998,26.172799999999995 170.78617584999998,27.93270000000001 164.99237585,29.732600000000005 159.31377584999998,31.5681 153.75517585,33.434500000000014 148.32077585,35.326899999999995 143.01487584999998,37.2411 137.84107584999998,39.17370000000001 132.80207585,41.121300000000005 127.89927585,43.080600000000004 123.13347585,45.0487 118.50467585,47.0222 114.01257584999999,48.99808 109.65637584999999,50.973169999999996 105.43477585,52.94464000000001 101.34616584999999,54.90979 97.38862585,56.8661 93.56002584999999,58.81115000000001 89.85791585,60.74277000000001 86.27957585,62.65897 82.82230585,64.55847 79.48332585,66.44049000000001 76.25955585,68.30438 73.14762585,70.14965 70.14400585,71.97589 67.24512585,73.78287999999999 64.44763585000001,75.57057 61.74812585,77.33892 59.143195850000005,79.08797 56.62942585,80.81776 54.203435850000005,82.52839 51.86206585,84.22006 49.60233585,85.89303 47.42130585,87.54757000000001 45.31608585,89.18396 43.28383585,90.80248 41.32176585,92.40343000000001 39.42739585,93.98721 37.598495850000006,95.55429000000001 35.83294585,97.10514 34.12862585,98.64019 32.483475850000005,100.15982 30.895475849999997,101.66443000000001 29.36271585,103.15439 27.883665849999996,104.63021 26.456925849999998,106.09248 25.081065849999998,107.54176000000001 23.75465585,108.97861 22.47623585,110.40358 21.24440585,111.8172 20.057805849999998,113.21999 18.915575850000003,114.61248 17.81706585,115.99513999999999 16.761605850000002,117.36837 15.74853585,118.73246 14.777165850000001,120.08769000000001 13.846821850000001,121.43425 12.95687685,122.77232000000001 12.10741585,124.10226 11.29871885,125.42466 10.53085585,126.74021 9.80374885,128.04972 9.11721185,129.35410000000002 8.470996849999999,130.65429 7.86491485,131.95125000000002 7.29976685,133.24542 6.777002850000001,134.5366 6.298083849999999,135.82422 5.86439785,137.10735 5.4771918500000005,138.38481000000002 5.13750885,139.655205 4.84593545,140.916864 4.60117025,142.16763600000002 4.40095085,143.406264 4.24304305,144.63278 4.12543185,145.848272 4.04645262,147.054716 4.004892752,148.254889 4.0,149.4523965 4.03005568,150.65203400000001 4.09249081,151.858831 4.18505735,153.077285 4.30569825,154.311419 4.45238265,155.564774 4.62293965,156.840321 4.81488125,158.140284 5.02521185,159.46586 5.25068785,160.81688 5.49073685,162.1921 5.74613085,163.59001 6.01765385,165.00907 6.30610785,166.44777 6.61232485,167.90468 6.93718385,169.37856 7.28163485,170.86841 7.64673285,172.37356 8.033671850000001,173.89376000000001 8.443837850000001,175.42928 8.87871385,176.98069 9.339760850000001,178.54851 9.82852985,180.13318 10.346670849999999,181.73505 10.89593485,183.35438 11.478166850000001,184.99127 12.095302850000001,186.64568 12.74935485,188.31736 13.442391850000002,190.00583 14.17644585,191.71033 14.952945850000003,193.43016 15.77306585,195.16469 16.63796585,196.91326 17.54884585,198.6752 18.50696585,200.44985 19.51359585,202.23654 20.57013585,204.03466 21.67802585,205.84363000000002 22.83883585,207.66303 24.054165849999997,209.4925 25.32568585,211.33165 26.655115849999998,213.17999 28.04419585,215.037 29.494745849999997,216.90204 31.008615849999998,218.7744 32.58757585,220.65358 34.23318585,222.53947 35.94696585,224.43198 37.73037585,226.33097 39.584815850000005,228.23624999999998 41.51155585,230.14757 43.51180585,232.06458 45.587295850000004,233.98666 47.74013585000001,235.91303 49.97244585,237.84287 52.286395850000005,239.77530000000002 54.684225850000004,241.70947 57.16823585,243.6445 59.74076585,245.5799 62.404095850000004,247.51542 65.16033585,249.45069999999998 68.01136584999999,251.3854 70.95877585,253.31900000000002 74.00394585,255.2508 77.14876585,257.1795 80.39516585,259.10339999999997 83.74492585,261.0211 87.19963585,262.9308 90.76075585,264.8307 94.42991584999999,266.7191 98.20867584999999,268.59360000000004 102.09841585,270.452 106.10027585,272.29200000000003 110.21517585000001,274.11129999999997 114.44397584999999,275.9074 118.78727585,277.678 123.24537584999999,279.42060000000004 127.81797585,281.1328 132.50457584999998,282.8119 137.30437585,284.4551 142.21667585,286.0591 147.24047585,287.621 152.37457584999999,289.1379 157.61777585,290.60699999999997 162.96857585,292.0255 168.42537585,293.3907 173.98577584999998,294.70000000000005 179.64717585,295.95090000000005 185.40717585,297.1404 191.26327584999999,298.26570000000004 197.21367585000002,299.3242 203.25667585,300.3134 209.39107585,301.23170000000005 215.61517584999999,302.0778 221.92627585,302.8508 228.32057585,303.5496 234.79377584999997,304.1727 241.34187584999998,304.7173 247.96217585,305.181 254.65357584999998,305.56129999999996 261.41617585,305.8565 268.25067585,306.0662 275.15677585000003,306.1903 282.13277585000003,306.2289 289.17607584999996,306.182 296.28367584999995,306.04859999999996 303.45337585,305.82759999999996 310.68457585000004,305.5176 317.97757585,305.11760000000004 325.33397585,304.627 332.75487585,304.04589999999996 340.24027585,303.37440000000004 347.78947585000003,302.6128 355.40107585000004,301.76099999999997 363.07487585,300.8182 370.81217584999996,299.7833 378.61607585,298.6553 386.49107585,297.4338 394.44107585,296.1194 402.46787585,294.7134 410.57117585000003,293.2175 418.74857585,291.6328 426.99957585000004,289.9583 435.32677585,288.1929 443.73667585,286.3343 452.23877584999997,284.3819 460.84067584999997,282.3376 469.54587585,280.2046 478.35287585000003,277.98720000000003 487.25727585,275.6882 496.25677585,273.3084 505.35327585000005,270.8481 514.55307585,268.3069 523.86267585,265.6873 533.2846758500001,262.9933 542.81587585,260.23109999999997 552.4487758500001,257.4065 562.17617585,254.5239 571.99367585,251.5872 581.8986758500001,248.60071 591.8860758500001,245.57104 601.94437585,242.50715000000002 612.05527585,239.42012 622.19747585,236.32108 632.3504758500001,233.22070000000002 642.49557585,230.12905999999998 652.6167758500001,227.05496 662.70047585,224.0061 672.7362758500001,220.98909 682.7168758500001,218.00968 692.6380758500001,215.07261 702.49817585,212.18147 712.29577585,209.33819 722.0266758500001,206.54465 731.68387585,203.80358 741.25977585,201.11939 750.74997585,198.49649 760.15327585,195.93805 769.4689758500001,193.44579 778.69407585,191.02121 787.8227758500001,188.66648 796.84917585,186.38544000000002 805.76957585,184.18207999999998 814.58297585,182.05941 823.28937585,180.01967 831.8883758500001,178.06484 840.37907585,176.19681 848.7611758500001,174.41789 857.03637585,172.73005 865.20767585,171.13435 873.27747585,169.6304 881.24607585,168.21766 889.1126758500001,166.8966 896.8766758500001,165.66946000000002 904.5395758500001,164.53822 912.10417585,163.50582 919.5755758500001,162.57601 926.9608758500001,161.75220000000002 934.26917585,161.03811 941.5116758500001,160.43713 948.70067585,159.94897 955.8489758500001,159.5709 962.96647585,159.29563000000002 970.05157585,159.11186 977.09817585,159.0201 984.1162758500001,159.01378 991.0984758500001,159.02065 998.0257758500001,159.08845 1003.99817585,159.178" stroke="black" stroke-width="2.0" /></svg>