<?xml version="1.0" encoding="utf-8" ?>
<svg baseProfile="full" height="168.10862" version="1.1" width="1011.998517937" xmlns="http://www.w3.org/2000/svg" xmlns:ev="http://www.w3.org/2001/xml-events" xmlns:xlink="http://www.w3.org/1999/xlink"><defs /><polygon fill="none" points="1003.998517937,118.5797 1000.674017937,118.0302288 996.509117937,117.29852100000001 991.9679179369999,116.44619 987.054717937,115.467629 981.788217937,114.36759900000001 976.186817937,113.156917 970.282817937,111.85626400000001 964.141417937,110.49983 957.8542179369999,109.11334300000001 951.496217937,107.69995 945.093717937,106.25124000000001 938.633617937,104.76099 932.111317937,103.23349 925.5481179369999,101.67901 918.978217937,100.10549 912.418817937,98.51355000000001 905.863317937,96.89872 899.2949179369999,95.25823000000001 892.709117937,93.59417 886.117217937,91.9119 879.534217937,90.21405000000001 872.963217937,88.49904000000001 866.394017937,86.76285000000001 859.814117937,85.00397000000001 853.218917937,83.22366000000001 846.6121179369999,81.42483000000001 839.998817937,79.60940000000001 833.380417937,77.77808000000002 826.754117937,75.93083000000001 820.115717937,74.06769 813.4602179369999,72.18863 806.783017937,70.29455000000002 800.0834179369999,68.38850000000001 793.3669179369999,66.47532000000001 786.6436179369999,64.55995000000001 779.923817937,62.64632000000001 773.2163179369999,60.73799000000001 766.526917937,58.83878000000001 759.858017937,56.951980000000006 753.207817937,55.07969 746.574117937,53.222930000000005 739.956917937,51.383120000000005 733.3588179369999,49.56248000000001 726.781617937,47.76386000000001 720.224517937,45.98938000000001 713.683917937,44.240200000000016 707.157217937,42.51683000000001 700.644417937,40.82043 694.148117937,39.15305000000001 687.669917937,37.51726000000001 681.2094179369999,35.91503 674.764017937,34.34764 668.3321179369999,32.81612000000001 661.913117937,31.321850000000012 655.5077179369999,29.866510000000005 649.1146179369999,28.451589999999996 642.730017937,27.078000000000003 636.348817937,25.745620000000017 629.968117937,24.454030000000003 623.587717937,23.20344 617.2088179369999,21.994740000000007 610.830717937,20.82871 604.4499179369999,19.70562000000001 598.061717937,18.6246 591.662917937,17.584400000000002 585.252617937,16.584300000000013 578.8316179369999,15.623900000000006 572.402117937,14.703100000000006 565.967517937,13.822100000000006 559.5304179369999,12.981600000000014 553.090517937,12.182600000000008 546.644217937,11.425300000000007 540.186717937,10.708500000000015 533.7143179369999,10.03070000000001 527.2251179369999,9.390900000000016 520.7197179369999,8.787800000000018 514.202517937,8.220600000000005 507.681617937,7.689300000000017 501.162417937,7.1952 494.642017937,6.739500000000007 488.11051793699994,6.3222999999999985 481.56021793699995,5.9410000000000025 474.993917937,5.59320000000001 468.423117937,5.2783000000000015 461.856517937,4.997900000000001 455.29251793699996,4.753699999999995 448.721117937,4.5456999999999965 442.135917937,4.372 435.540617937,4.230699999999999 428.946217937,4.1214999999999975 422.358717937,4.045900000000003 415.77391793699996,4.005500000000012 409.181217937,4.0 402.57691793699996,4.027300000000011 395.968817937,4.085400000000007 389.371517937,4.174400000000006 382.79111793699997,4.296900000000008 376.22181793699997,4.455500000000001 369.652017937,4.650400000000005 363.07761793699996,4.880200000000002 356.50471793699995,5.143300000000011 349.944017937,5.439999999999998 343.39871793699996,5.772000000000006 336.862817937,6.141300000000001 330.328417937,6.547800000000009 323.796017937,6.990400000000008 317.27581793699994,7.467500000000001 310.778817937,7.980500000000006 304.305817937,8.532200000000003 297.846717937,9.125900000000001 291.39041793699994,9.761700000000019 284.93401793699996,10.438200000000009 278.48381793699997,11.153800000000004 272.04841793699995,11.9084 265.63261793699996,12.703000000000003 259.237017937,13.538800000000009 252.85911793699998,14.416900000000012 246.494617937,15.338800000000006 240.137717937,16.305999999999997 233.78651793699999,17.317700000000002 227.446817937,18.371700000000004 221.13011793700002,19.46633 214.844117937,20.602779999999996 208.586017937,21.784430000000015 202.345517937,23.014560000000003 196.116017937,24.293149999999997 189.90141793700002,25.617890000000003 183.713817937,26.986370000000008 177.562717937,28.39909 171.44941793700002,29.8583 165.369717937,31.36667 159.320317937,32.92539000000001 153.302317937,34.53457 147.320417937,36.19388000000001 141.379217937,37.90338 135.482117937,39.66332 129.63231793699998,41.47433000000001 123.832817937,43.33715000000001 118.08771793700001,45.25218000000001 112.40071793700001,47.219870000000014 106.775117937,49.24109 101.21244793700001,51.31707 95.714037937,53.448290000000014 90.28448793700001,55.63308 84.93249793700001,57.86774000000001 79.670757937,60.14744 74.515307937,62.46627000000001 69.48380793700001,64.81639000000001 64.59527793699999,67.18939 59.870097937,69.57647 55.327207937000004,71.96729 50.983517937,74.35056 46.857387937000006,76.71261000000001 42.965947937,79.03749000000002 39.321137937,81.30987000000002 35.932067937,83.51603 32.803797937,85.64278000000002 29.933377937,87.67996000000001 27.311437937,89.62258 24.925787937,91.46982 22.760317936999996,93.22290000000001 20.796117936999998,94.88513 19.014137937,96.46132 17.396997937000002,97.95658 15.928237937,99.37598000000001 14.592387937000002,100.72463 13.376019937,102.00812 12.268324937000001,103.23235000000001 11.259229937,104.40262000000001 10.339343936999999,105.52366 9.500341937,106.59977 8.735564937,107.63512 8.038880937,108.6336 7.404554937,109.59872000000001 6.827655936999999,110.533693 6.306310936999999,111.44175000000001 5.839750937,112.32551400000001 5.4267889369999995,113.18690400000001 5.065943937,114.027342 4.757104237,114.847712 4.500814137,115.64952600000001 4.296927837,116.435338 4.145169937,117.208262 4.045792637,117.97039290000001 4.0,118.72258400000001 4.010023557,119.46682480000001 4.079727267,120.20631700000001 4.213155837,120.944882 4.412207737,121.68463700000001 4.679999837,122.425137 5.020549937,123.162721 5.436749937,123.89109 5.927837937,124.606344 6.491629937,125.305649 7.125336937,125.98658400000001 7.826629937,126.64777900000001 8.596908937,127.29112900000001 9.438675937,127.919808 10.353814937,128.537471 11.343242937,129.14816000000002 12.410867937,129.75431 13.563060937000001,130.35787 14.806617937,130.96183000000002 16.148777937,131.57057 17.599547937,132.18741 19.172277937,132.81399000000002 20.882067937,133.45250000000001 22.745667937,134.10605 24.782907936999997,134.7778 27.018087936999997,135.46977 29.478227937,136.18443000000002 32.190677937000004,136.92482 35.183487936999995,137.69338 38.484927937,138.48953 42.117417937,139.31161 46.094687937,140.15784000000002 50.42170793700001,141.02343000000002 55.08838793700001,141.89873 60.070017937,142.77348 65.339837937,143.63961 70.869127937,144.49030000000002 76.620217937,145.31994 82.552337937,146.12464 88.62832793700001,146.89962 94.818767937,147.64142 101.10671793700001,148.34933 107.482617937,149.02509 113.933717937,149.671 120.442917937,150.28897 126.994017937,150.87858 133.577217937,151.43949 140.190017937,151.97236 146.83341793699998,152.47892000000002 153.50751793700002,152.96103 160.21131793700002,153.42057 166.94171793700002,153.85930000000002 173.69331793700002,154.27894 180.458617937,154.68044 187.23271793700002,155.06348 194.015417937,155.42789 200.810417937,155.77429 207.61911793700003,156.10412000000002 214.43841793700003,156.4186 221.261917937,156.71790000000001 228.086817937,157.00128 234.915417937,157.26829 241.753317937,157.51965 248.603317937,157.75681 255.463717937,157.98101 262.33051793699997,158.19266000000002 269.20171793699996,158.39184 276.077517937,158.57874 282.959117937,158.75387 289.846317937,158.91781 296.7376179369999,159.07101 303.630717937,159.21347 310.524317937,159.34507000000002 317.417417937,159.46572 324.310517937,159.57525 331.205217937,159.67352 338.10431793699996,159.7607 345.009117937,159.83749 351.91801793699995,159.90464 358.827717937,159.96238 365.736617937,160.01035000000002 372.64641793699997,160.04816 379.560717937,160.07611 386.480617937,160.09511 393.403417937,160.106 400.324317937,160.10862 407.24051793699994,160.10219 414.151817937,160.08596 421.060117937,160.05954 427.96931793699997,160.02271000000002 434.885017937,159.97545000000002 441.81071793699994,159.91904 448.744317937,159.85522 455.67771793699995,159.7851 462.60341793699996,159.70756 469.518617937,159.62096000000003 476.426217937,159.52408 483.33141793699997,159.41663 490.241017937,159.29843 497.161817937,159.17005 504.09391793699996,159.03343 511.02811793699993,158.89073000000002 517.9499179369999,158.74182000000002 524.854217937,158.58385 531.749917937,158.41376000000002 538.652517937,158.23143000000002 545.567917937,158.03925 552.487717937,157.83974 559.398017937,157.63253 566.294717937,157.41545000000002 573.1853179369999,157.18642 580.0803179369999,156.94581 586.981517937,156.69516000000002 593.881517937,156.43576000000002 600.771617937,156.16673 607.649517937,155.88646 614.519417937,155.59357 621.3868179369999,155.28792 628.255217937,154.96963 635.125617937,154.63898 641.995517937,154.29655 648.858917937,153.94310000000002 655.7075179369999,153.57832000000002 662.538417937,153.20016 669.355817937,152.80616 676.168417937,152.39534 682.979517937,151.96851 689.784217937,151.52691000000002 696.5730179369999,151.07031 703.339817937,150.59714 710.083617937,150.10562000000002 716.805617937,149.59423 723.505417937,149.06184000000002 730.180417937,148.50743 736.826717937,147.92986000000002 743.439117937,147.32803 750.0117179370001,146.70066 756.5372179369999,146.0451 763.006617937,145.35873 769.410517937,144.63842 775.745817937,143.87782 782.0214179369999,143.06885 788.2570179369999,142.20382 794.477717937,141.27856 800.7110179370001,140.28831 806.987217937,139.22984 813.334117937,138.10698000000002 819.769517937,136.9264 826.299217937,135.69760000000002 832.911017937,134.4344 839.569417937,133.1562 846.2206179369999,131.88496 852.822817937,130.63777 859.360417937,129.42589 865.837117937,128.25528300000002 872.258717937,127.130007 878.627217937,126.054393 884.942417937,125.03279800000001 891.2030179369999,124.069243 897.408317937,123.16744600000001 903.5576179369999,122.33133600000001 909.6527179369999,121.56475200000001 915.697417937,120.871024 921.696317937,120.25305300000001 927.653417937,119.7136239 933.5722179369999,119.2555195 939.457617937,118.88073466 945.322717937,118.5906116 951.190117937,118.38636290000001 957.0842179370001,118.261865 963.0120179369999,118.2056084 968.957017937,118.2056788 974.8723179369999,118.2474818 980.6712179369999,118.313929 986.243517937,118.3881214 991.4752179369999,118.45733630000001 996.273817937,118.5134627 1000.6033179369999,118.55435170000001 1003.998517937,118.5797" stroke="black" stroke-width="2.0" /></svg>