<?xml version="1.0" encoding="utf-8" ?>
<svg baseProfile="full" height="176.17002999999997" version="1.1" width="1012.2008075841" xmlns="http://www.w3.org/2000/svg" xmlns:ev="http://www.w3.org/2001/xml-events" xmlns:xlink="http://www.w3.org/1999/xlink"><defs /><polygon fill="none" points="1004.2008075841,140.04019999999997 1000.6390075841,139.23272369999998 996.2993075841,138.20646829999998 991.6840075841,137.06411099999997 986.7648075841,135.79785299999998 981.5186075841,134.41127899999998 975.9401075841,132.91799899999998 970.0505075841,131.32983199999998 963.8862075841,129.65621399999998 957.4849075840999,127.90740999999998 950.8782075841,126.09112999999998 944.0963075841,124.21352999999998 937.1654075841001,122.27977999999997 930.1051075841,120.29487999999998 922.9325075841,118.26543999999998 915.6648075841,116.19848999999998 908.3183075841,114.10060999999997 900.9086075841001,111.97765999999999 893.4501075841,109.83516999999998 885.9552075841001,107.67727999999998 878.4325075841,105.50620999999998 870.8865075841,103.32291999999998 863.3180075841,101.12829999999997 855.7290075841,98.92412999999998 848.1232075841001,96.71274999999997 840.5056075841001,94.49613999999998 832.8805075841,92.27575999999998 825.2511075841,90.05268999999998 817.6199075841,87.82739999999998 809.9884075841001,85.60005999999998 802.3575075841001,83.37108999999998 794.7272075841,81.14205999999999 787.0968075841,78.91458999999998 779.4656075841,76.68908999999998 771.8335075841001,74.46406999999998 764.2010075841,72.23799999999999 756.5690075841001,70.01045999999998 748.9402075841,67.78255999999998 741.3193075841,65.55620999999998 733.7119075841,63.33420999999997 726.1207075841,61.11910999999998 718.5454075841,58.91238999999999 710.9863075841,56.71437999999998 703.4487075841,54.52630999999998 695.9428075840999,52.35133999999998 688.4786075841,50.19500999999998 681.0617075841,48.06208999999997 673.6938075841,45.956029999999984 666.3762075840999,43.87976999999998 659.1116075841,41.836509999999976 651.9039075841,39.83011999999998 644.7556075841,37.864799999999974 637.6671075841,35.94419999999998 630.6375075841,34.071199999999976 623.6644075841,32.24849999999998 616.7447075841001,30.47799999999998 609.8750075841,28.761599999999987 603.0522075841001,27.10049999999997 596.2737075841,25.496299999999977 589.5367075841,23.950499999999977 582.8369075841,22.464599999999976 576.1692075841,21.039699999999982 569.5272075841,19.675599999999974 562.9039075841,18.37229999999998 556.2919075841,17.12909999999998 549.6856075841,15.944399999999987 543.0823075841,14.817099999999968 536.4819075841001,13.746999999999986 529.8836075841,12.734499999999969 523.2848075841,11.779999999999973 516.6813075841,10.882999999999996 510.06990758410006,10.042499999999961 503.4486075841,9.257599999999996 496.8169075841,8.527599999999978 490.1756075841,7.851999999999975 483.5264075841,7.230199999999968 476.8715075841,6.662599999999969 470.2123075841,6.149699999999967 463.5490075841,5.691999999999979 456.8808075841,5.289599999999979 450.2062075841,4.942399999999964 443.5233075841,4.650299999999987 436.8312075841,4.412499999999966 430.1315075841,4.22829999999999 423.4283075841,4.097399999999993 416.7239075841,4.020899999999983 410.01640758409997,4.0 403.2999075841,4.034999999999968 396.5705075841,4.124499999999983 389.82840758410003,4.2666999999999575 383.0776075841,4.460799999999978 376.32140758410003,4.7070999999999685 369.5603075841,5.0058999999999685 362.7930075841,5.3571999999999775 356.0183075841,5.760799999999961 349.2352075841,6.216099999999983 342.4436075841,6.722499999999968 335.6449075841,7.27879999999999 328.84240758410004,7.883599999999973 322.0402075841,8.536799999999971 315.2416075841,9.238399999999956 308.4488075841,9.988299999999981 301.6629075841,10.787099999999981 294.8835075841,11.635099999999966 288.10870758410005,12.532699999999963 281.3382075841,13.479099999999974 274.5744075841,14.472799999999978 267.8227075841,15.512699999999981 261.08790758410004,16.59869999999998 254.3723075841,17.73139999999998 247.6766075841,18.911299999999983 241.0012075841,20.13849999999998 234.3477075841,21.412799999999976 227.71860758409997,22.73399999999998 221.11630758409999,24.10209999999998 214.5430075841,25.51689999999998 208.0010075841,26.978499999999983 201.49250758409997,28.48669999999997 195.0195075841,30.041599999999974 188.58450758409998,31.642699999999977 182.19080758409999,33.289499999999975 175.84220758409998,34.98119999999997 169.5433075841,36.71689999999998 163.2993075841,38.49589999999998 157.1157075841,40.31692999999997 150.99790758409998,42.17923999999998 144.9505075841,44.08199999999998 138.97800758409997,46.02417999999999 133.08610758409998,48.00360999999998 127.2839075841,50.01675999999998 121.5822075841,52.05965999999998 115.9909075841,54.12987999999997 110.51650758410001,56.22577999999997 105.16290758410001,58.34521999999998 99.93675758410001,60.48269999999998 94.84945758410001,62.63008999999997 89.9151675841,64.77875999999998 85.1468375841,66.92312999999999 80.5524575841,69.05898999999998 76.1357175841,71.18278999999998 71.8988675841,73.28994999999998 67.8444975841,75.37485999999998 63.97445758410001,77.43166999999998 60.2897575841,79.45589999999999 56.789677584100005,81.44432999999998 53.47111758410001,83.39430999999998 50.3290875841,85.30395999999998 47.3578575841,87.17217999999998 44.5508875841,88.99823999999998 41.900797584100005,90.78177999999997 39.3997175841,92.52274999999997 37.040037584100006,94.22119999999998 34.8143275841,95.87720999999998 32.715237584099995,97.49096999999998 30.7355875841,99.06304999999998 28.8690775841,100.59493999999998 27.1094975841,102.08845999999997 25.4505775841,103.54544999999997 23.8861175841,104.96771999999999 22.4104375841,106.35697999999998 21.0183575841,107.71472999999997 19.7049775841,109.04233999999998 18.4656375841,110.34107999999998 17.2964675841,111.61241999999999 16.194357584099997,112.85813999999998 15.1561975841,114.07997999999998 14.178897584100001,115.27955999999998 13.2593695841,116.45816999999998 12.3946745841,117.61663999999998 11.582021584100001,118.75566999999998 10.818791584100001,119.87592999999998 10.1028185841,120.97808999999998 9.4324545841,122.06293999999998 8.8060895841,123.13120999999998 8.2221615841,124.18358999999998 7.679633584099999,125.22073999999998 7.1777515841,126.24331999999998 6.7156705841,127.25202999999998 6.292362584099999,128.24740999999997 5.9064745841,129.22956499999998 5.5566745841,130.198467 5.2418425841,131.15405799999996 4.9620953840999995,132.096457 4.7179922841,133.02608099999998 4.5098715841,133.94354399999997 4.3375727841,134.84905799999999 4.2005899841,135.742022 4.0984270441,136.62139399999998 4.0312225741,137.48631099999997 4.0,138.33863209999998 4.0062197961,139.18376419999998 4.0522353141,140.029193 4.1413352841,140.880048 4.2776931841,141.73734399999998 4.4648055841,142.59782299999998 4.7041162840999995,143.45665599999998 4.9968613841,144.309881 5.3445195841,145.15463999999997 5.7483605841,145.98846799999998 6.2097005841,146.80836899999997 6.7295375841,147.61102899999997 7.307332584099999,148.39410299999997 7.9421385841,149.1554 8.6329735841,149.89287 9.3787505841,150.60593999999998 10.1781695841,151.29440999999997 11.0297455841,151.95823 11.932373584099999,152.59894999999997 12.8848365841,153.21902999999998 13.885535584100001,153.82111999999998 14.9343875841,154.40686999999997 16.032447584099998,154.97731 17.1807375841,155.53373 18.3806775841,156.07739999999998 19.634407584100003,156.60947 20.9440175841,157.13133 22.311637584099998,157.64441999999997 23.7403975841,158.14887 25.234057584099997,158.64439 26.7966775841,159.13075999999998 28.4328575841,159.60787999999997 30.147887584099998,160.07571 31.947447584099997,160.53436 33.837577584099996,160.98415999999997 35.8247675841,161.42523999999997 37.916517584100006,161.85681 40.1211475841,162.27791 42.447897584100005,162.68765 44.90740758410001,163.08527999999998 47.5120475841,163.46983999999998 50.27546758410001,163.84037999999998 53.2121075841,164.19607 56.3372175841,164.53638999999998 59.6676875841,164.86083999999997 63.2221075841,165.16882999999999 67.01972758410001,165.46047 71.0795775841,165.73704999999998 75.4196975841,166.00036999999998 80.0555275841,166.25043999999997 84.99671758410001,166.48778 90.2448375841,166.71435999999997 95.79214758410001,166.93215999999998 101.6219175841,167.13858999999997 107.7109075841,167.33020999999997 114.0350075841,167.50397999999998 120.5743075841,167.65788999999998 127.30790758410001,167.79097 134.2131075841,167.90283 141.26780758409998,167.99364999999997 148.4514075841,168.06407 155.7458075841,168.11521 163.1370075841,168.14862999999997 170.6112075841,168.16617999999997 178.1521075841,168.17002999999997 185.74090758409997,168.16171999999997 193.36260758409998,168.14030999999997 201.01070758409998,168.10442999999998 208.68730758409998,168.05352999999997 216.3948075841,167.98933999999997 224.12910758409998,167.91406999999998 231.88060758409998,167.82911 239.6412075841,167.73379999999997 247.4094075841,167.62712999999997 255.18910758409996,167.50886999999997 262.98410758410006,167.38015 270.7941075841,167.24232999999998 278.61600758410003,167.09635999999998 286.44590758410004,166.94262999999998 294.2812075841,166.78146999999998 302.12010758409997,166.61292999999998 309.9623075841,166.43677999999997 317.8085075841,166.25279999999998 325.6601075841,166.0613 333.5174075841,165.86293999999998 341.37930758410005,165.65833999999998 349.24370758410004,165.44778999999997 357.1079075841,165.23139999999998 364.9687075841,165.00915999999998 372.8244075841,164.78033999999997 380.6768075841,164.54396999999997 388.53040758410003,164.29949999999997 396.3885075841,164.04776999999999 404.2497075841,163.78997999999999 412.10870758410005,163.52666999999997 419.9620075841,163.25704 427.8098075841,162.98006999999998 435.6555075841,162.69525 443.50140758410004,162.40279999999998 451.3474075841,162.10303 459.19210758410003,161.79601999999997 467.03510758410005,161.48161999999996 474.8778075841,161.15963999999997 482.7218075841,160.83022999999997 490.5656075841,160.49382999999997 498.4052075841,160.15077999999997 506.2375075841,159.80021 514.0659075841,159.44065999999998 521.8991075841001,159.07115 529.7434075840999,158.69331999999997 537.5950075841,158.30973999999998 545.4415075841,157.92172999999997 553.2751075841,157.52693 561.1000075841,157.12203 568.9298075841,156.70551999999998 576.7753075841,156.27908999999997 584.6395075841,155.84498999999997 592.5186075841,155.40507999999997 600.4075075841,154.96059999999997 608.3008075841,154.51266999999999 616.1944075841001,154.06116999999998 624.0870075841001,153.6051 631.9806075841,153.14378 639.8790075841,152.67928999999998 647.7850075841001,152.21475999999998 655.6997075841,151.75248 663.6216075841,151.29170999999997 671.5447075841,150.83126 679.4605075841,150.37147 687.3651075841001,149.91521999999998 695.2632075841001,149.46515999999997 703.1654075841001,149.02142999999998 711.0779075841,148.58175999999997 718.9990075841,148.144231 726.9214075841,147.70873099999997 734.8409075841,147.276189 742.7575075841,146.84721199999998 750.6736075841001,146.42143199999998 758.5892075841001,145.99815599999997 766.5014075841,145.576958 774.4050075841,145.15811999999997 782.2933075841,144.74219499999998 790.1584075841,144.33027299999998 797.9945075841,143.92492499999997 805.8001075841,143.528765 813.5770075841,143.14367699999997 821.3273075841,142.77046399999998 829.0507075841,142.40988299999998 836.7449075841,142.06295099999997 844.4065075841,141.73099699999997 852.0316075841,141.415349 859.6164075841001,141.11757899999998 867.1578075840999,140.83953799999998 874.6538075841,140.582948 882.1023075841,140.349136 889.4976075841,140.13914499999998 896.8293075841001,139.95410199999998 904.0858075841,139.79638999999997 911.2601075841,139.668953 918.3500075841,139.574009 925.3500075841,139.51124639999998 932.2422075841,139.47931279999997 938.9990075841,139.47804269999997 945.5966075841,139.5115765 952.0236075841001,139.583914 958.2757075841,139.695948 964.3396075841,139.84408699999997 970.1910075841,140.023983 975.8052075841,140.23596299999997 981.1701075841,140.48402699999997 986.2859075841001,140.77030499999998 991.1570075841,141.09415599999997 995.7863075841,141.45314199999999 1000.1778075841,141.842673 1003.8008075841001,142.20019999999997" stroke="black" stroke-width="2.0" /></svg>