<?xml version="1.0" encoding="utf-8" ?>
<svg baseProfile="full" height="115.14051" version="1.1" width="1012.001069841" xmlns="http://www.w3.org/2000/svg" xmlns:ev="http://www.w3.org/2001/xml-events" xmlns:xlink="http://www.w3.org/1999/xlink"><defs /><polygon fill="none" points="1004.001069841,65.48518000000001 1001.0098698410001,65.43640300000001 997.178269841,65.348961 992.893969841,65.217971 988.168569841,65.032994 983.079569841,64.786934 977.729669841,64.47671700000001 972.188769841,64.10082600000001 966.500469841,63.65870900000001 960.702169841,63.15111500000001 954.8186698410001,62.57911100000001 948.8572698410001,61.94327500000001 942.813169841,61.24581700000001 936.683969841,60.490491000000006 930.472669841,59.682246000000006 924.188469841,58.82727200000001 917.8446698409999,57.930780000000006 911.452669841,56.99714000000001 905.0202698410001,56.03058000000001 898.551369841,55.03496000000001 892.0471698409999,54.013850000000005 885.5090698409999,52.97092000000001 878.939069841,51.91009000000001 872.3395698410001,50.83550000000001 865.713769841,49.751540000000006 859.065569841,48.662800000000004 852.399269841,47.57405000000001 845.7199698410001,46.48908000000001 839.033269841,45.40945000000001 832.343769841,44.33632000000001 825.655969841,43.27077000000001 818.973569841,42.21374000000001 812.299469841,41.166070000000005 805.6361698410001,40.12847000000001 798.985469841,39.101600000000005 792.348469841,38.08657000000001 785.725669841,37.084620000000015 779.116969841,36.09691000000001 772.521669841,35.124500000000005 765.938569841,34.16832000000001 759.365969841,33.229270000000014 752.801369841,32.308150000000005 746.242369841,31.40539000000001 739.686169841,30.520710000000008 733.130769841,29.653790000000015 726.574069841,28.80438000000001 720.014469841,27.972280000000005 713.450769841,27.157340000000005 706.881769841,26.359480000000012 700.306869841,25.57863000000001 693.7255698409999,24.814600000000013 687.1375698410001,24.067020000000007 680.5429698410001,23.335600000000014 673.941969841,22.62002000000001 667.3349698410001,21.920010000000012 660.722769841,21.235310000000005 654.106069841,20.565680000000008 647.485969841,19.910930000000008 640.8636698409999,19.271090000000008 634.239669841,18.64623000000001 627.614369841,18.036350000000013 620.9878698409999,17.44145000000001 614.359869841,16.861480000000007 607.729769841,16.296380000000013 601.096469841,15.746040000000008 594.458869841,15.21023000000001 587.816169841,14.68854000000001 581.167569841,14.180600000000005 574.5130698410001,13.686070000000008 567.8527698409999,13.204640000000012 561.187269841,12.736030000000007 554.517569841,12.279970000000006 547.8449698410001,11.83626000000001 541.170969841,11.404990000000012 534.496569841,10.986280000000008 527.822469841,10.58024000000001 521.1488698410001,10.186960000000006 514.4757698409999,9.806490000000004 507.80276984100004,9.438860000000005 501.128969841,9.08409000000001 494.453469841,8.742100000000008 487.775269841,8.412680000000009 481.093869841,8.095650000000006 474.409269841,7.790860000000009 467.721669841,7.49815000000001 461.031769841,7.217410000000008 454.340369841,6.94850000000001 447.64906984099997,6.691370000000006 440.958969841,6.446200000000012 434.271169841,6.213190000000004 427.585869841,5.9925600000000045 420.903069841,5.784480000000009 414.222269841,5.589120000000015 407.542469841,5.406640000000003 400.86206984100005,5.2371900000000124 394.17946984099996,5.080600000000004 387.492969841,4.936400000000006 380.80116984100005,4.804110000000016 374.103269841,4.683250000000015 367.398469841,4.573370000000004 360.68646984099996,4.47402000000001 353.967469841,4.384760000000014 347.24166984100003,4.305180000000007 340.509769841,4.235120000000009 333.772869841,4.174440000000018 327.032269841,4.123019999999997 320.289569841,4.0807100000000105 313.54676984099996,4.047360000000012 306.806369841,4.022829999999999 300.070769841,4.00697000000001 293.342769841,4.0 286.623969841,4.002430000000018 279.915169841,4.0147500000000065 273.21586984099997,4.03746000000001 266.524569841,4.071070000000006 259.83876984100004,4.116090000000014 253.15486984100002,4.17307000000001 246.468569841,4.242670000000004 239.777369841,4.325770000000006 233.082569841,4.423270000000002 226.38926984100002,4.535980000000009 219.706869841,4.6646 213.047969841,4.8096200000000096 206.428969841,4.971320000000013 199.868569841,5.149970000000003 193.385569841,5.349440000000008 186.992269841,5.575910000000015 180.694469841,5.835070000000009 174.491869841,6.132210000000015 168.379669841,6.472330000000014 162.349169841,6.860330000000012 156.388769841,7.301180000000009 150.484569841,7.800050000000006 144.623069841,8.360220000000005 138.798569841,8.983010000000014 133.013669841,9.668910000000011 127.278569841,10.417220000000007 121.608969841,11.227590000000006 116.017269841,12.101960000000005 110.50806984100001,13.042950000000012 105.079769841,14.053840000000008 99.72511984100001,15.138540000000013 94.436249841,16.299510000000005 89.209459841,17.537780000000005 84.045359841,18.853490000000008 78.948549841,20.24564000000001 73.929569841,21.711090000000006 69.005979841,23.243600000000008 64.20031984100001,24.834750000000007 59.534469840999996,26.477900000000012 55.023339841,28.167550000000013 50.675629841,29.89865000000001 46.50421984100001,31.663340000000012 42.534459841,33.44606000000001 38.794929841000005,35.22598000000001 35.308939841,36.98308000000001 32.090329841,38.70522000000001 29.138509841,40.384400000000014 26.441739841,42.014550000000014 23.985919840999998,43.58513000000001 21.759319841,45.08662000000001 19.747509841,46.52049000000001 17.929489841,47.891760000000005 16.285209841,49.20105000000001 14.799799840999999,50.450080000000014 13.460536841,51.648190000000014 12.249471841,52.80065000000001 11.150588841,53.90588000000001 10.159337841,54.972120000000004 9.268416841,56.00798000000001 8.466550841,57.01482000000001 7.745577841,57.99401000000001 7.099122841,58.94743700000001 6.5234558410000005,59.87747300000001 6.016037840999999,60.78673100000001 5.574297841,61.677386000000006 5.1968488409999996,62.55048200000001 4.882170541,63.40690000000001 4.624224841,64.245833 4.412713841,65.06469600000001 4.243004941,65.863414 4.116096841,66.642235 4.034336651,67.398159 4.0,68.13226460000001 4.015338831,68.8510844 4.071340021,69.567496 4.147719641,70.29375100000001 4.223223141,71.034913 4.322802341,71.771697 4.550526841,72.460176 4.939058841,73.09823600000001 5.329849841,73.76108 5.700410841,74.455543 6.106772841,75.15443300000001 6.5909488409999994,75.840359 7.148399841,76.519451 7.764414841000001,77.200179 8.431301841,77.88443500000001 9.157693841,78.56670000000001 9.953497841,79.24378000000002 10.822011840999998,79.91708000000001 11.766134841,80.58723 12.792108841000001,81.25423 13.906306841000001,81.92079000000001 15.114209841000001,82.59 16.425499841,83.25846000000001 17.854569841,83.92168000000001 19.416729841,84.58222 21.126209841,85.24548000000001 22.998999841,85.91216000000001 25.056419841,86.57927000000001 27.326049841,87.24505 29.840159841,87.90892000000001 32.634589841,88.57023000000001 35.748499841,89.22826 39.22099984100001,89.88476000000001 43.089679841000006,90.54414 47.385659841000006,91.20646 52.115119841,91.87261000000001 57.248839841000006,92.54790000000001 62.72840984100001,93.22933 68.483199841,93.90607000000001 74.461499841,94.57230000000001 80.628519841,95.22762 86.931689841,95.87211 93.304399841,96.50069 99.698859841,97.10508000000002 106.101569841,97.68048000000002 112.52916984100001,98.22749000000002 119.00046984100001,98.75088000000001 125.523269841,99.25478000000001 132.09216984100001,99.74239 138.691569841,100.21462000000001 145.30616984099998,100.67079000000001 151.92526984100002,101.1106 158.54316984099998,101.53412 165.15796984099998,101.94118 171.768869841,102.33143000000001 178.375969841,102.70454000000001 184.979769841,103.06022000000002 191.581369841,103.3982 198.182669841,103.71824000000001 204.785969841,104.02009000000001 211.39446984100002,104.30380000000001 218.010769841,104.57013 224.637169841,104.81996000000001 231.274969841,105.05409 237.92476984100003,105.27333000000002 244.586669841,105.47844 251.259569841,105.67018000000002 257.94196984100006,105.84928000000001 264.631669841,106.01612 271.326569841,106.17079000000001 278.025069841,106.31342000000001 284.725869841,106.44415000000001 291.427969841,106.56312000000001 298.130769841,106.67051000000001 304.833969841,106.76649 311.537669841,106.85123000000002 318.242069841,106.92486000000001 324.94766984100005,106.98752000000002 331.654669841,107.03932 338.363569841,107.08040000000001 345.074969841,107.11088000000001 351.789369841,107.13087000000002 358.507469841,107.14051 365.229769841,107.14001 371.956569841,107.12968000000001 378.688069841,107.10981000000001 385.423869841,107.08070000000001 392.163269841,107.04265000000001 398.905369841,106.99598 405.648869841,106.94099000000001 412.392369841,106.87786000000001 419.134269841,106.80641 425.873669841,106.72642 432.609969841,106.63769 439.342969841,106.54002000000001 446.072669841,106.43318000000001 452.799769841,106.31694000000002 459.525169841,106.19113000000002 466.249969841,106.05576000000002 472.975169841,105.91096000000002 479.70156984100004,105.75686 486.429969841,105.59358 493.160669841,105.42125000000001 499.894269841,105.24001000000001 506.63076984099996,105.04997 513.3704698409999,104.85130000000001 520.113269841,104.64422000000002 526.858869841,104.42894000000001 533.6072698410001,104.20566000000001 540.357969841,103.97463000000002 547.110669841,103.73607000000001 553.864669841,103.49022000000001 560.619569841,103.23727000000001 567.3744698410001,102.97730000000001 574.129269841,102.71030000000002 580.8835698409999,102.43629000000001 587.6374698410001,102.15527 594.391069841,101.86721000000001 601.144669841,101.57211000000001 607.899069841,101.26994 614.654669841,100.96079 621.412269841,100.64487000000001 628.172369841,100.32240000000002 634.9351698410001,99.99357 641.700969841,99.65863000000002 648.469869841,99.31779 655.241669841,98.97130000000001 662.016169841,98.61936 668.793169841,98.26207000000001 675.5719698409999,97.89955 682.352069841,97.53190000000001 689.132769841,97.15926000000002 695.913269841,96.78175000000002 702.692569841,96.39951 709.469469841,96.01266000000001 716.2430698410001,95.62108 723.0126698409999,95.22455000000001 729.777869841,94.82279000000001 736.5389698409999,94.41555000000001 743.296269841,94.00252 750.0505698410001,93.58336000000001 756.803269841,93.15775000000001 763.555769841,92.72549000000001 770.3091698410001,92.28664 777.064469841,91.84131000000001 783.821669841,91.38962000000001 790.580769841,90.93173000000002 797.340969841,90.46784000000001 804.101169841,89.99818 810.859769841,89.52293 817.615169841,89.04197 824.366069841,88.55505000000001 831.111669841,88.06193 837.851769841,87.56230000000001 844.586569841,87.05586000000001 851.3164698410001,86.54224 858.0426698409999,86.02105 864.766069841,85.49183000000001 871.4868698409999,84.95410000000001 878.204469841,84.40750000000001 884.916669841,83.85174 891.620769841,83.28663 898.3127698410001,82.71209 904.987669841,82.12817000000001 911.640069841,81.53455000000001 918.265269841,80.92974000000001 924.861169841,80.31192000000001 931.427969841,79.67913000000001 937.967169841,79.03 944.4771698410001,78.36445 950.951869841,77.682973 957.3809698409999,76.986647 963.745069841,76.278159 970.004169841,75.56325100000001 976.099969841,74.85020100000001 981.967969841,74.14877100000001 987.5166698410001,73.475559 992.593569841,72.856588 997.088569841,72.3101 1001.005769841,71.836143 1004.001069841,71.47518000000001" stroke="black" stroke-width="2.0" /></svg>