<?xml version="1.0" encoding="utf-8" ?>
<svg baseProfile="full" height="89.38625" version="1.1" width="1012.01603741" xmlns="http://www.w3.org/2000/svg" xmlns:ev="http://www.w3.org/2001/xml-events" xmlns:xlink="http://www.w3.org/1999/xlink"><defs /><polygon fill="none" points="1004.01603741,40.850350000000006 1000.55443741,40.83653900000001 996.39463741,40.7991 992.04843741,40.735344000000005 987.50953741,40.642573000000006 982.7720374099999,40.51962700000001 977.83113741,40.365424000000004 972.6834374099999,40.178490000000004 967.32673741,39.957233 961.75943741,39.699619000000006 955.9799374099999,39.404482 949.9900374099999,39.07223400000001 943.79713741,38.703123000000005 937.41093741,38.297268 930.84123741,37.855250000000005 924.09603741,37.377970000000005 917.18203741,36.86645000000001 910.10693741,36.322070000000004 902.8805374099999,35.746770000000005 895.5141374099999,35.14280000000001 888.02043741,34.51236000000001 880.41333741,33.857960000000006 872.70693741,33.182280000000006 864.91533741,32.48709000000001 857.0510374099999,31.773690000000006 849.1239374099999,31.043480000000006 841.1420374100001,30.301070000000006 833.1136374099999,29.553780000000003 825.04773741,28.809180000000005 816.95363741,28.072200000000006 808.83593741,27.344540000000006 800.69363741,26.627210000000005 792.52123741,25.919330000000006 784.3173374099999,25.218380000000003 776.08763741,24.522330000000004 767.84373741,23.830910000000006 759.5963374099999,23.145760000000006 751.35173741,22.468290000000003 743.11253741,21.799490000000006 734.87993741,21.140150000000006 726.6553374099999,20.491060000000004 718.43983741,19.852950000000007 710.23433741,19.226480000000006 702.03893741,18.612260000000006 693.85303741,18.010720000000006 685.67583741,17.42207000000001 677.50643741,16.846460000000008 669.34363741,16.284050000000008 661.18623741,15.73501000000001 653.0329374099999,15.199490000000011 644.88243741,14.67757000000001 636.7332374099999,14.16913000000001 628.58423741,13.674020000000006 620.43443741,13.192130000000006 612.28293741,12.72335000000001 604.1291374099999,12.26758000000001 595.9723374099999,11.824730000000002 587.8124374099999,11.394670000000012 579.6489374099999,10.977260000000008 571.4819374099999,10.572350000000007 563.31133741,10.179820000000007 555.13713741,9.799550000000004 546.95973741,9.431410000000007 538.77933741,9.075340000000004 530.5962374100001,8.731280000000005 522.4107374099999,8.399160000000009 514.22293741,8.078920000000004 506.0330374100001,7.770490000000002 497.84123741,7.4738200000000035 489.64783741,7.1888700000000085 481.45323741000004,6.9156500000000065 473.25803741000004,6.654170000000008 465.06313741,6.404440000000001 456.86983741,6.166480000000007 448.67933741,5.940320000000007 440.49303741,5.726100000000002 432.31183741,5.524060000000006 424.13583741,5.334410000000005 415.96453741,5.157350000000001 407.79703741000003,4.993050000000004 399.63153741,4.841690000000007 391.46623741,4.703210000000006 383.30003741,4.57735000000001 375.13343741,4.463900000000002 366.96793741,4.362630000000003 358.80643741000006,4.273320000000005 350.65323741000003,4.19577000000001 342.51303741000004,4.1301500000000075 334.39013741,4.077140000000007 326.28703741,4.03736 318.20513741,4.0114500000000035 310.14413741000004,4.0 302.10263741,4.003600000000006 294.07813741,4.022560000000006 286.06953741,4.056610000000006 278.07803741,4.105410000000006 270.10733741,4.168590000000009 262.16343741000003,4.245750000000008 254.25433741000003,4.336410000000008 246.39023741,4.440300000000008 238.58193741,4.558380000000007 230.83993741,4.691810000000004 223.17453741,4.841590000000004 215.59503740999997,5.008550000000007 208.11013741,5.193350000000002 200.72773740999997,5.396470000000008 193.45563741,5.617750000000001 186.30463741,5.856330000000007 179.28883741,6.1110299999999995 172.42343741000002,6.380840000000006 165.72263741,6.666440000000009 159.19663741,6.968650000000004 152.85223741,7.287910000000011 146.69333741,7.623860000000008 140.72433741,7.9746900000000025 134.95043741,8.338270000000009 129.37703741,8.712320000000005 124.00803741,9.094940000000008 118.84623740999999,9.485730000000004 113.89333740999999,9.88441000000001 109.14883741,10.290300000000009 104.61043741,10.70253000000001 100.27340740999999,11.120080000000002 96.13144740999999,11.541850000000004 92.17647741,11.966780000000007 88.39958741,12.394270000000006 84.79178740999998,12.82405 81.34415741,13.255770000000005 78.04799741,13.689080000000004 74.89494741,14.123580000000004 71.87697741,14.558910000000004 68.98641740999999,14.994950000000003 66.21597741000001,15.431650000000005 63.55871741,15.868940000000006 61.00804741,16.306760000000004 58.55782741,16.745210000000007 56.20232741000001,17.184350000000006 53.93610741,17.624160000000007 51.75410741,18.064690000000006 49.65168741,18.506230000000006 47.62450741000001,18.949030000000004 45.66845741,19.393280000000004 43.779697410000004,19.839070000000007 41.95467741,20.286600000000004 40.19024741,20.736310000000007 38.48343741000001,21.188590000000005 36.83141741,21.643750000000004 35.231517409999995,22.102010000000003 33.68121741,22.563540000000007 32.178237409999994,23.028610000000008 30.72061741,23.497790000000006 29.30648741,23.971570000000007 27.93407741,24.450350000000004 26.60167741,24.934440000000006 25.30765741,25.424090000000007 24.05046741,25.919500000000003 22.82880741,26.420960000000008 21.64202741,26.92939000000001 20.48962741,27.445730000000008 19.37102741,27.970800000000008 18.28561741,28.505320000000008 17.23276741,29.049890000000005 16.21180741,29.605020000000007 15.22209741,30.171170000000007 14.262957409999999,30.748730000000005 13.333963409999999,31.338150000000006 12.43664241,31.940990000000006 11.57323341,32.559340000000006 10.74561341,33.195170000000005 9.95536341,33.850390000000004 9.20384341,34.526830000000004 8.49241041,35.22628 7.823700410000001,35.950190000000006 7.20106541,36.69941000000001 6.62776541,37.474140000000006 6.1061174099999995,38.273802 5.63819641,39.097205 5.22768341,39.942274000000005 4.87846851,40.806726000000005 4.58792721,41.686775000000004 4.36780801,42.582762 4.20315641,43.486969 4.0922009,44.39605600000001 4.02745823,45.308724000000005 4.0,46.22365500000001 4.00106307,47.13928550000001 4.022005559,48.0538 4.06071426,48.965515 4.12865961,49.873515000000005 4.23904741,50.777181000000006 4.42299841,51.668566000000006 4.72450141,52.529472000000005 5.11911241,53.356329 5.60136141,54.143657000000005 6.161521410000001,54.887202 6.78981941,55.585013000000004 7.47647141,56.240500000000004 8.21521441,56.85505400000001 9.000801410000001,57.430806000000004 9.82625641,57.97404 10.689065410000001,58.488580000000006 11.58784241,58.977560000000004 12.520907409999998,59.44431000000001 13.486183409999999,59.89244000000001 14.481147409999998,60.325790000000005 15.504647409999999,60.74680000000001 16.557447409999998,61.156040000000004 17.64044741,61.554120000000005 18.75457741,61.94174000000001 19.90073741,62.31974000000001 21.079887409999998,62.68909000000001 22.29294741,63.05096 23.54081741,63.40672000000001 24.82439741,63.75789 26.14505741,64.10526000000002 27.504557409999997,64.44901000000002 28.90480741,64.78937 30.34782741,65.12662 31.83575741,65.46112000000001 33.370887409999995,65.79334 34.95565741,66.12385 36.59279741,66.453 38.285297410000005,66.78101000000001 40.03637741,67.10816 41.84946741,67.43478 43.72822741,67.76133000000002 45.67659741,68.0883 47.69887741,68.41598 49.79974741,68.74462 51.98419741000001,69.0745 54.25759741,69.40604 56.62569741000001,69.73961 59.09473741,70.07533000000001 61.671417410000004,70.41325 64.36291741,70.7535 67.17693741000001,71.09619 70.12173741,71.4414 73.20598740999999,71.78921 76.43878740999999,72.13974 79.82969741,72.49285 83.38865741000001,72.84825000000001 87.12603741,73.20567 91.05239740999998,73.56507 95.17812741,73.92662 99.51309740999999,74.29009 104.06593740999999,74.65425 108.84303741,75.0176 113.84803740999999,75.37914 119.08173741,75.73805000000002 124.54173741,76.09370000000001 130.22393741000002,76.44577000000001 136.12263740999998,76.79365000000001 142.23123741,77.13541000000001 148.54073741,77.46888000000001 155.04183740999997,77.79195 161.72583741,78.10307 168.58303740999997,78.40186 175.60093741,78.68836 182.76443741,78.96283000000001 190.05693741000002,79.22476 197.46233740999998,79.47282000000001 204.96693740999999,79.70586 212.56053741,79.92314 220.23383740999998,80.12467000000001 227.97743741,80.31067000000002 235.78163740999997,80.48148 243.63633741,80.63759000000002 251.53143741,80.77959000000001 259.45713741,80.90808000000001 267.40443741000007,81.02282000000001 275.36583741,81.12307000000001 283.33603741,81.20812000000001 291.31193741000004,81.27733 299.29233741,81.33011 307.27863741000004,81.36587 315.27363741000005,81.38445 323.27973741,81.38625 331.29853741,81.37165 339.33013741,81.34106 347.37363741,81.29487 355.42673741000004,81.23353 363.48643741000006,81.15731 371.54953741,81.06609 379.61383741000003,80.95968 387.67843741,80.83791000000001 395.74323741,80.70058 403.80913741000006,80.54749000000001 411.87833741000003,80.37846 419.95293741,80.19366000000001 428.03503741000003,79.99335 436.12603741000004,79.77777 444.22673741000006,79.54719 452.33773741,79.30188000000001 460.45893741000003,79.04212000000001 468.59013741,78.76817 476.73083741,78.48032 484.88103741000003,78.17881 493.04063741,77.86393000000001 501.20943741,77.53593000000001 509.38773741,77.19508 517.5755374099999,76.84164000000001 525.7729374099999,76.47585000000001 533.98013741,76.09797 542.19713741,75.70826000000001 550.4238374099999,75.30698000000001 558.66043741,74.89439 566.90663741,74.47073 575.16243741,74.03625000000001 583.4279374099999,73.59117 591.70303741,73.13572 599.98763741,72.67013 608.28193741,72.19464 616.5859374099999,71.7095 624.9001374100001,71.21498000000001 633.22483741,70.71132 641.56123741,70.19875 649.9102374099999,69.67749 658.27353741,69.14774 666.65243741,68.60992 675.0480374099999,68.06467 683.4606374099999,67.51272 691.8893374099999,66.95487 700.3328374099999,66.39198 708.78853741,65.82496 717.2530374099999,65.25477000000001 725.7209374099999,64.68243000000001 734.18543741,64.10913000000001 742.63913741,63.53679 751.07803741,62.96763000000001 759.50243741,62.403490000000005 767.91393741,61.84501000000001 776.31043741,61.29238000000001 784.68543741,60.746210000000005 793.0324374099999,60.208980000000004 801.3536374099999,59.683710000000005 809.66093741,59.17250000000001 817.9700374099999,58.673750000000005 826.2896374100001,58.18415 834.6190374099999,57.700912 842.9506374099999,57.221604000000006 851.27603741,56.74382800000001 859.58663741,56.26537300000001 867.87323741,55.786266000000005 876.1236374099999,55.308099000000006 884.32213741,54.832606000000006 892.45053741,54.361036000000006 900.4886374099999,53.89433400000001 908.4151374099999,53.433525 916.20853741,52.979862000000004 923.84663741,52.534774000000006 931.30843741,52.09964000000001 938.5732374099999,51.67578100000001 945.61593741,51.264736000000006 952.40843741,50.868204000000006 958.9251374099999,50.487719000000006 965.14863741,50.124166 971.0723374099999,49.777727000000006 976.69573741,49.448291000000005 982.02183741,49.136104 987.05833741,48.841480000000004 991.81583741,48.563737200000006 996.3052374099999,48.30173680000001 1000.53913741,48.0542202 1004.01603741,47.850350000000006" stroke="black" stroke-width="2.0" /></svg>