<?xml version="1.0" encoding="utf-8" ?>
<svg baseProfile="full" height="212.59554" version="1.1" width="1012.1679734" xmlns="http://www.w3.org/2000/svg" xmlns:ev="http://www.w3.org/2001/xml-events" xmlns:xlink="http://www.w3.org/1999/xlink"><defs /><polygon fill="none" points="1004.1679734,128.9949 999.5338734000001,128.12646999999998 993.9406734,127.07941 988.0625734,125.98036 981.8832734,124.82647 975.3906734000001,123.61566 968.5781734000001,122.34652 961.4446734,121.01821000000001 953.9947734,119.63062 946.2375734,118.1846 938.1876734000001,116.6828 929.8650734000001,115.12918 921.2936734000001,113.52847 912.4984734000001,111.88571 903.5019734,110.20554 894.3216734000001,108.49158 884.9721734000001,106.74654000000001 875.4694734,104.97328999999999 865.8304734000001,103.17483999999999 856.0726734,101.35427000000001 846.2129734000001,99.51461 836.2677734,97.65872999999999 826.2516734000001,95.7892 816.1774734,93.90823 806.0555734000001,92.01758000000001 795.8934734000001,90.11853 785.6968734000001,88.21231 775.4709734,86.30019 765.2204734000001,84.3834 754.9500734000001,82.46312 744.6640734,80.54043999999999 734.3661734000001,78.61626000000001 724.0596734000001,76.69131 713.7475734000001,74.76625 703.4319734000001,72.84162 693.1146734000001,70.91788 682.7971734000001,68.99535 672.4807734000001,67.07436000000001 662.1665734000001,65.15520000000001 651.8558734000001,63.23814 641.5497734,61.32329 631.2499734,59.41045 620.9589734,57.49955 610.6800734000001,55.59065 600.4174734000001,53.683980000000005 590.1756734,51.77987999999999 579.9595734,49.87876 569.7734734000001,47.98095000000001 559.6217734,46.08680000000001 549.5083734,44.19659 539.4375734,42.31066 529.4153734000001,40.42970000000001 519.4504734000001,38.55500000000001 509.5532734,36.688 499.7360734,34.8309 490.0114734,32.988600000000005 480.39027339999996,31.168900000000008 470.8812734,29.3789 461.4917734,27.625100000000003 452.2272734,25.912999999999997 443.09167340000005,24.2479 434.0877734,22.63430000000001 425.2173734,21.076400000000007 416.4809734,19.57759999999999 407.87837340000004,18.140600000000006 399.4088734,16.768 391.0705734,15.462000000000003 382.86017339999995,14.225000000000009 374.77267340000003,13.058699999999988 366.8018734,11.964200000000005 358.9403734,10.94240000000002 351.1804734,9.994100000000003 343.5144734,9.118899999999996 335.93637340000004,8.31559999999999 328.4421734,7.582899999999995 321.0297734,6.920100000000019 313.6978734,6.326400000000007 306.4467734,5.801099999999991 299.2775734,5.343500000000006 292.1919734,4.95320000000001 285.1919734,4.630099999999999 278.27947340000003,4.37390000000002 271.4560734,4.183900000000023 264.7235734,4.059599999999989 258.0833734,4.0 251.5368734,4.004199999999997 245.0852734,4.071499999999986 238.7303734,4.201300000000003 232.4738734,4.393000000000001 226.31747339999998,4.645800000000008 220.2627734,4.95859999999999 214.3112734,5.330199999999991 208.4641734,5.759200000000021 202.72247339999998,6.244 197.0870734,6.7834 191.5590734,7.376599999999996 186.1388734,8.022500000000008 180.8266734,8.720300000000009 175.6219734,9.468699999999984 170.5242734,10.266400000000004 165.5326734,11.111999999999995 160.6458734,12.004100000000022 155.8625734,12.941300000000012 151.1811734,13.922000000000011 146.60077339999998,14.944699999999997 142.12067340000002,16.008199999999988 137.74057340000002,17.110799999999998 133.4596734,18.251000000000005 129.2773734,19.4272 125.1928734,20.63770000000001 121.2052734,21.880799999999994 117.3136734,23.154799999999994 113.51667339999999,24.458 109.81327339999999,25.788799999999995 106.2019734,27.145300000000006 102.6813634,28.526100000000014 99.2499934,29.929500000000004 95.9066934,31.354 92.6501834,32.79820000000001 89.47916339999999,34.26050000000001 86.39222339999999,35.73950000000001 83.38788339999999,37.23389999999999 80.4646334,38.74209999999999 77.62085339999999,40.2629 74.8549134,41.79503000000001 72.16518339999999,43.33724000000001 69.55047339999999,44.88844 67.0097634,46.447599999999994 64.54185340000001,48.0138 62.1454734,49.58615999999999 59.819213399999995,51.16390000000001 57.5616434,52.74627000000001 55.371243400000004,54.332589999999996 53.2464834,55.922250000000005 51.1858034,57.514669999999995 49.1876434,59.10933 47.2504234,60.705740000000006 45.3726034,62.303470000000004 43.5526434,63.90211000000001 41.7890834,65.50115 40.0806534,67.09985 38.4261734,68.69747000000001 36.8245134,70.29323000000001 35.2745834,71.88639 33.7753534,73.47619 32.3257634,75.0619 30.9248034,76.64282 29.571463400000003,78.21826000000001 28.2647234,79.78756 27.0035634,81.3501 25.7869834,82.90530000000001 24.6139534,84.4526 23.4834834,85.99148 22.3949434,87.52144 21.3478734,89.04207 20.3417034,90.55312 19.3757934,92.05447000000001 18.4494034,93.5461 17.5617734,95.02807 16.7121334,96.50053 15.899683399999999,97.96369 15.1236234,99.41779 14.3831834,100.86313000000001 13.6775314,102.30002999999999 13.005088399999998,103.72863000000001 12.363997399999999,105.1489 11.752569399999999,106.56064 11.1692684,107.96355 10.612683400000002,109.35721000000001 10.0815024,110.74115 9.5745054,112.11482000000001 9.0905414,113.47762 8.628523399999999,114.82894 8.1874164,116.16812 7.7662344,117.49455 7.3640284000000005,118.80757 6.9799434,120.10659 6.6143734,121.39102 6.2687884,122.6605 5.9444674,123.91499 5.642481399999999,125.15469 5.3637353999999995,126.37999 5.1090062,127.59148 4.8789764,128.78983 4.6742647,129.97585 4.4954526999999995,131.15041 4.3431086,132.314477 4.2178091,133.469041 4.12015962,134.615161 4.0508135,135.75394 4.0104913,136.886531 4.0,138.014136 4.0202539999999996,139.138017 4.07229845,140.259501 4.15733527,141.3799983 4.2768106,142.500662 4.4326907,143.620767 4.6272629,144.738809 4.8630402,145.8531 5.1427735,146.96174200000002 5.4694644,148.062601 5.8463754,149.153271 6.2770424,150.231043 6.7652824,151.292869 7.3151694,152.33534 7.9287894,153.35621 8.603966400000001,154.35606 9.3378854,155.33577 10.127523400000001,156.29621 10.9695954,157.23825 11.8605064,158.16278 12.796290399999998,159.07068 13.772547399999999,159.96286 14.7845934,160.84024 15.8305234,161.70342 16.9107734,162.55281 18.0258434,163.38888 19.176223399999998,164.21218 20.3624334,165.0233 21.5849734,165.82294 22.8443534,166.6119 24.141093400000003,167.39108 25.4758034,168.16136 26.849533400000002,168.92313000000001 28.2635134,169.67666 29.7189834,170.42228 31.2172234,171.16033 32.7595534,171.89122 34.3473034,172.61543 35.981803400000004,173.33349 37.6643634,174.04601 39.3962834,174.75368 41.1787634,175.45732 43.0129334,176.15784000000002 44.8997634,176.85628 46.8406634,177.55322999999999 48.8378034,178.24857 50.8935634,178.94211 53.010413400000004,179.6337 55.190923399999996,180.32317 57.4378334,181.01039 59.7539934,181.69528 62.1424434,182.37776 64.6063834,183.05784 67.14925339999999,183.73559 69.77473339999999,184.41118 72.4868134,185.08489 75.2898934,185.75714 78.1889234,186.42821 81.1893834,187.09803 84.2970534,187.76654000000002 87.5179934,188.43366 90.85845339999999,189.09933999999998 94.32487339999999,189.76355999999998 97.92372339999999,190.42634 101.66138339999999,191.08772 105.54397339999998,191.74784 109.5772734,192.40636 113.7669734,193.06212 118.11827339999999,193.71379 122.6360734,194.35993 127.32417339999999,194.99901 132.1860734,195.62947 137.2240734,196.24977 142.44047339999997,196.85844 147.8367734,197.45418 153.4151734,198.03592 159.1783734,198.60282 165.1300734,199.15346 171.2730734,199.68610999999999 177.60927339999998,200.19907 184.1387734,200.69062 190.86037340000001,201.15915999999999 197.7711734,201.60320000000002 204.8668734,202.02146 212.1413734,202.41271 219.58767339999997,202.77524 227.19757339999998,203.10748 234.9618734,203.4081 242.8713734,203.67604 250.9170734,203.91061 259.09087339999996,204.11138 267.3856734,204.27791 275.7943734,204.40975 284.3096734,204.50663 292.9240734,204.56851 301.6302734,204.59554 310.4212734,204.58802 319.2904734,204.5461 328.2317734,204.4699 337.23937340000003,204.35964 346.3082734,204.21566 355.4342734,204.0384 364.6138734,203.82833 373.8440734,203.58596 383.1219734,203.31184000000002 392.4445734,203.0066 401.8092734,202.67092 411.2132734,202.30552 420.6540734,201.91097000000002 430.12937339999996,201.48778 439.6368734,201.0365 449.1747734,200.55772000000002 458.7410734,200.05202 468.3342734,199.51991 477.9532734,198.96178 487.59697339999997,198.37802 497.2649734,197.76901 506.95717340000004,197.13512 516.6736734,196.47678 526.4146734,195.79456 536.1804734000001,195.08909 545.9706734,194.361 555.7850734,193.61096 565.6232734,192.83963 575.4845734,192.04762 585.3686734,191.23551 595.2750734,190.40391 605.2033734,189.55343 615.1533734000001,188.68468000000001 625.1247734,187.79828 635.1173734,186.89483 645.1307734000001,185.97498000000002 655.1645734000001,185.03937000000002 665.2183734000001,184.08871 675.2915734000001,183.12382 685.3832734,182.1456 695.4921734000001,181.15497 705.6168734000001,180.15293 715.7551734,179.14054 725.9044734,178.119 736.0604734,177.08967 746.2179734,176.05408 756.3702734000001,175.01386 766.5097734,173.97102999999998 776.6274734,172.92818 786.7137734,171.88804 796.7581734,170.85342 806.7492734000001,169.82711 816.6753734,168.81181 826.5236734000001,167.81 836.2803734,166.82416 845.9307734000001,165.85674 855.4603734,164.91006 864.8546734,163.98665 874.0996734,163.08975 883.1817734,162.22241 892.0885734,161.38726 900.8088734,160.58648 909.3332734,159.82187 917.6532734,159.09618 925.7593734,158.41268 933.6422734,157.77402 941.2930734000001,157.18204 948.7050734000001,156.63782 955.8736734,156.14169 962.7968734000001,155.69463 969.4766734000001,155.29925 975.9183734000001,154.95714 982.1300734,154.66873 988.1210734000001,154.43156 993.9016734,154.24095 999.4824734,154.09253 1004.1679734,153.9949" stroke="black" stroke-width="2.0" /></svg>