<?xml version="1.0" encoding="utf-8" ?>
<svg baseProfile="full" height="131.78205" version="1.1" width="1012.01388314" xmlns="http://www.w3.org/2000/svg" xmlns:ev="http://www.w3.org/2001/xml-events" xmlns:xlink="http://www.w3.org/1999/xlink"><defs /><polygon fill="none" points="1004.01388314,54.67974 1000.14038314,54.203833800000005 995.4143831399999,53.623927 990.39578314,53.009052000000004 985.07618314,52.358764 979.4514831399999,51.673575 973.5213831399999,50.955047 967.29098314,50.205940000000005 960.77338314,49.43036 953.9914831399999,48.633495 946.97408314,47.820959 939.75048314,46.998527 932.3478831399999,46.172303 924.79248314,45.348861 917.10888314,44.53456 909.31758314,43.73482 901.43398314,42.95432 893.46798314,42.19601 885.42698314,41.460930000000005 877.3189831399999,40.74983 869.15068314,40.06339 860.92688314,39.40205 852.6502831399999,38.76577 844.32278314,38.1541 835.94678314,37.56656 827.52358314,37.00302000000001 819.05318314,36.46328 810.5334831399999,35.946850000000005 801.96038314,35.452920000000006 793.32778314,34.97983 784.63108314,34.52436 775.86978314,34.08321000000001 767.04598314,33.65312 758.16358314,33.23073 749.2300831399999,32.81245 740.26118314,32.394780000000004 731.27958314,31.97465 722.30278314,31.549110000000002 713.33858314,31.11458 704.3848831399999,30.666570000000004 695.42918314,30.201050000000002 686.45708314,29.71863 677.4607831399999,29.221570000000003 668.43828314,28.71262 659.3904831399999,28.194780000000005 650.32118314,27.671170000000004 641.24018314,27.145160000000004 632.16278314,26.620520000000003 623.1014831399999,26.101000000000003 614.06208314,25.58997 605.0429831399999,25.09035 596.03448314,24.603800000000003 587.0285831399999,24.12717 578.0302831399999,23.656340000000004 569.0542831399999,23.18789 560.11668314,22.718600000000002 551.2310831399999,22.244980000000005 542.40498314,21.76303 533.63908314,21.268770000000004 524.93228314,20.758790000000005 516.28468314,20.229800000000004 507.69088314000004,19.677590000000002 499.13218314000005,19.097340000000003 490.58598314000005,18.49107 482.05058314,17.868100000000005 473.54898314,17.239960000000004 465.11088314,16.618900000000004 456.76178314,16.016370000000002 448.51878314,15.442239999999998 440.38728314,14.904660000000007 432.36428314000005,14.41055 424.44268314,13.96611 416.61308314,13.577050000000007 408.85848314000003,13.248940000000005 401.14728314000007,12.986930000000008 393.43948314,12.788429999999998 385.70728314,12.64065 377.94488314000006,12.53063000000001 370.17018314,12.445050000000002 362.42758314,12.370290000000004 354.78108314,12.293090000000007 347.28558314,12.201310000000007 339.97118314000005,12.084300000000006 332.84758314000004,11.932360000000003 325.91028314000005,11.736710000000002 319.14498314,11.490049999999997 312.53778314000004,11.18882 306.0865831400001,10.83204 299.79928314,10.419220000000003 293.68048314000004,9.94265 287.71038314000003,9.389299999999999 281.84738314000003,8.744909999999997 276.03668314000004,8.017630000000004 270.24228314,7.250910000000005 264.46358314,6.494000000000007 258.73208314,5.796529999999997 253.07728314,5.192450000000001 247.48588313999997,4.704299999999996 241.90338314,4.351050000000001 236.24618314,4.1326700000000045 230.44278314,4.0242800000000045 224.45428314,4.0 218.28768313999998,4.031640000000003 211.97898314,4.093780000000002 205.55908313999998,4.159289999999999 199.04528313999998,4.201010000000004 192.45178313999997,4.215090000000004 185.81358314,4.21058 179.19068313999998,4.197879999999998 172.65028313999997,4.191500000000005 166.23838314,4.2068299999999965 159.97678313999998,4.256710000000005 153.87258314,4.347510000000007 147.93098314,4.4813000000000045 142.15718314,4.65916 136.55568313999999,4.879429999999999 131.12858314,5.137190000000004 125.87558314,5.427579999999999 120.79448314,5.74606 115.88488314,6.086880000000001 111.15388314,6.443270000000005 106.61408314,6.808619999999998 102.27792314,7.176949999999998 98.15419314,7.551150000000007 94.23894314,7.943090000000005 90.51704314,8.362410000000004 86.96864314000001,8.816630000000004 83.57289314,9.31174 80.30979314,9.849680000000006 77.16345314,10.423740000000002 74.12373314,11.026539999999997 71.18457314000001,11.651299999999999 68.34252314000001,12.291690000000003 65.59562314,12.941900000000004 62.942733139999994,13.596530000000001 60.38219314,14.248640000000002 57.91127314,14.889800000000001 55.526973139999996,15.512970000000003 53.226183139999996,16.11267 51.00672314,16.689440000000005 48.86745314,17.25070000000001 46.806523139999996,17.80317 44.821473139999995,18.352339999999998 42.90957313999999,18.902840000000005 41.06898314,19.459899999999998 39.29806314,20.029070000000004 37.59448314,20.615009999999998 35.95552314,21.221680000000006 34.37826314,21.852470000000004 32.859743140000006,22.509940000000007 31.39668314,23.193090000000005 29.986063140000002,23.899520000000003 28.62529314,24.627090000000003 27.31210314,25.37385 26.04453314,26.138070000000003 24.82085314,26.918150000000004 23.639493140000003,27.71264 22.49825314,28.519390000000005 21.39395314,29.335200000000004 20.32373314,30.156940000000002 19.28507314,30.981650000000002 18.27580314,31.806530000000002 17.29395314,32.628960000000006 16.337803140000002,33.446490000000004 15.405533140000001,34.25662 14.492343140000001,35.054590000000005 13.59186114,35.834520000000005 12.698302140000001,36.591170000000005 11.80655214,37.31997 10.91961714,38.02432 10.054907140000001,38.72224 9.229244139999999,39.43209 8.45735714,40.1709 7.75228614,40.954530000000005 7.11996114,41.78795 6.558202140000001,42.66228 6.064999139999999,43.56808 5.63828314,44.49665 5.27286614,45.44257 4.96269354,46.401665 4.70243044,47.370246 4.48796174,48.345428000000005 4.31579274,49.324649 4.18328704,50.306366000000004 4.08800736,51.289547 4.02763343,52.273515 4.0,53.257936 4.00312522,54.2428134 4.03533114,55.2284931 4.09692986,56.215759000000006 4.18998464,57.20526 4.31679514,58.19708 4.47977614,59.190686 4.68153944,60.184696 4.92596454,61.176037 5.21764814,62.161512 5.56061314,63.139141 5.95851714,64.10729 6.41545414,65.06282 6.93762214,65.9956 7.5327521399999995,66.89295 8.20989414,67.74199 8.97269614,68.53769 9.81220414,69.29 10.71672514,70.01073 11.67226914,70.71233000000001 12.66261414,71.40769 13.679953140000002,72.10441 14.723333140000001,72.80664 15.791813140000002,73.51912 16.88465314,74.24662000000001 18.00282314,74.989 19.14831314,75.74346 20.32338314,76.50686 21.53060314,77.27572 22.77295314,78.04619 24.05389314,78.81407 25.37700314,79.57521 26.74476314,80.32689 28.15966314,81.06653 29.624593139999998,81.79132 31.142973140000002,82.49817 32.71890314,83.18362 34.35740314,83.84381 36.06392314,84.47643000000001 37.84329313999999,85.08364 39.700483139999996,85.66865 41.640623139999995,86.23524 43.66882313999999,86.78805 45.790183139999996,87.33262 48.01151314,87.87453000000001 50.340743139999994,88.42034000000001 52.78600314,88.97848 55.354963139999995,89.55948000000001 58.05462314,90.17079000000001 60.89257314,90.81576 63.87637313999999,91.49797000000001 67.01447313999999,92.22135 70.31660314,92.98869 73.79205314000001,93.80207 77.44853314000001,94.66300000000001 81.29087314,95.57199 85.32003313999999,96.52827 89.53289314000001,97.52777 93.92409314000001,98.56181000000001 98.48784314,99.61952 103.22052314,100.68859 108.12378314000001,101.75707 113.20188313999999,102.81985 118.45748314000001,103.87425999999999 123.89028314,104.91715 129.49628314,105.94506000000001 135.26838314,106.95522 141.19708314,107.94529 147.27058313999999,108.91326000000001 153.47608314,109.85635 159.79898314,110.77097 166.22398313999997,111.6538 172.73508313999997,112.50067 179.31698314,113.30577 185.95508314,114.06358 192.63748314,114.7692 199.36218313999998,115.41898 206.14148314,116.01055 212.99718314,116.54894 219.92708313999998,117.04930999999999 226.88498313999997,117.52620000000002 233.79448313999998,117.99829 240.61118314,118.49206000000001 247.34358314,119.03507000000002 254.02748314,119.63709 260.66978314,120.28679 267.23228314000005,120.96687 273.66088314000007,121.63808 279.94638314,122.24946 286.12948314000005,122.76037 292.27778314000005,123.15523999999999 298.44588314000003,123.44619 304.66428314,123.64371 310.94228314000003,123.75487000000001 317.28248314,123.78205 323.69358314000004,123.72671 330.19078314,123.59023000000002 336.79288314,123.37475 343.51618314,123.08259000000001 350.37338314,122.71615 357.37538314,122.27768 364.53318314,121.76972 371.85868314000004,121.19528 379.36318314,120.55813 387.05708314,119.86306000000002 394.94728314,119.11644000000001 403.03228314,118.32701 411.29728314000005,117.50533999999999 419.71778314000005,116.65756 428.27178314,115.7877 436.94148314000006,114.89895000000001 445.71148314000004,113.99382 454.56798314,113.07500999999999 463.49638314000003,112.14611000000001 472.47978314,111.21098 481.50078314,110.27273 490.54498314,109.33404999999999 499.60308314,108.39804000000001 508.67408314000005,107.46737999999999 517.76248314,106.54191 526.8700831399999,105.61947 535.99308314,104.6985 545.12438314,103.77801 554.2540831399999,102.85730000000001 563.37348314,101.93567 572.47718314,101.01202 581.56268314,100.08458999999999 590.63008314,99.15131 599.68228314,98.21008 608.72588314,97.25864000000001 617.7696831399999,96.29587000000001 626.82018314,95.32223 635.8806831399999,94.33842000000001 644.95368314,93.34497999999999 654.04248314,92.34255 663.14868314,91.33271 672.27018314,90.3174 681.40288314,89.29795000000001 690.54238314,88.27548 699.68498314,87.2519 708.8269831399999,86.22953000000001 717.9646831399999,85.20988 727.0937831399999,84.19372 736.2100831399999,83.18217 745.31088314,82.17678000000001 754.39518314,81.17884000000001 763.46368314,80.18925 772.51738314,79.20875000000001 781.5575831399999,78.23786 790.58458314,77.27713 799.59948314,76.32745 808.6068831399999,75.38945 817.6127831399999,74.46199 826.61948314,73.54272 835.62388314,72.62972 844.6173831399999,71.72146000000001 853.58598314,70.81711 862.5131831399999,69.91658 871.38168314,69.01991 880.17428314,68.12675 888.8751831399999,67.23658 897.4691831399999,66.34912 905.94218314,65.46433 914.2799831399999,64.583263 922.46298314,63.709320000000005 930.46588314,62.846721 938.26058314,61.999681 945.82078314,61.172144 953.12258314,60.367819000000004 960.1399831399999,59.590727 966.8469831399999,58.844818000000004 973.22388314,58.133304 979.2627831399999,57.458027 984.9647831399999,56.819374 990.33648314,56.2169 995.38798314,55.649687400000005 1000.1326831399999,55.1163862 1004.01388314,54.67974" stroke="black" stroke-width="2.0" /></svg>