<?xml version="1.0" encoding="utf-8" ?>
<svg baseProfile="full" height="166.17827" version="1.1" width="1012.008568533" xmlns="http://www.w3.org/2000/svg" xmlns:ev="http://www.w3.org/2001/xml-events" xmlns:xlink="http://www.w3.org/1999/xlink"><defs /><polygon fill="none" points="1004.008568533,94.53152 999.465668533,93.795121 994.072068533,92.931833 988.5045685330001,92.053258 982.7538685330001,91.159154 976.8108685330001,90.24938399999999 970.6659685330001,89.323947 964.310268533,88.38302 957.735168533,87.427014 950.933468533,86.456632 943.899068533,85.472939 936.628768533,84.47744 929.121968533,83.47216 921.382468533,82.45971 913.418868533,81.44333999999999 905.2456685330001,80.42541 896.881868533,79.40465999999999 888.348768533,78.37866 879.668068533,77.34419 870.8614685330001,76.29721 861.948268533,75.23277999999999 852.944768533,74.14511 843.862768533,73.02745 834.708668533,71.87223 825.483368533,70.67573 816.186268533,69.43901 806.816968533,68.16355 797.375468533,66.85096999999999 787.862268533,65.50309 778.278468533,64.12191999999999 768.625868533,62.70968 758.906768533,61.268809999999995 749.124168533,59.802 739.2819685329999,58.31216 729.384768533,56.802459999999996 719.4380685330001,55.27632 709.448068533,53.73736999999999 699.422068533,52.189479999999996 689.367968533,50.636709999999994 679.294468533,49.08331 669.211168533,47.53365 659.128268533,45.9922 649.056468533,44.46348999999999 639.006268533,42.95175 628.985568533,41.46050999999999 618.9983685330001,39.99263 609.045168533,38.55035 599.123068533,37.135400000000004 589.2262685329999,35.748439999999995 579.349468533,34.38863 569.489068533,33.05517 559.644068533,31.747579999999992 549.814868533,30.46605000000001 540.003568533,29.211529999999996 530.2135685330001,27.98514999999999 520.449668533,26.788160000000005 510.71786853300006,25.62187 501.025068533,24.487759999999994 491.377368533,23.388139999999993 481.775168533,22.325369999999992 472.213068533,21.30108 462.679768533,20.316339999999997 453.158768533,19.371809999999996 443.628568533,18.46723999999999 434.068368533,17.598389999999995 424.465768533,16.76034 414.818568533,15.949079999999995 405.13526853300004,15.161329999999992 395.43526853300006,14.394559999999998 385.747768533,13.648599999999988 376.09726853300003,12.92926 366.492968533,12.242260000000002 356.928268533,11.59205999999999 347.38276853300005,10.980739999999997 337.835368533,10.402839999999998 328.278568533,9.851380000000006 318.720268533,9.32025999999999 309.183368533,8.804270000000002 299.702068533,8.30265 290.310668533,7.818979999999996 281.03906853300003,7.356570000000005 271.91196853300005,6.918149999999997 262.94916853300003,6.505830000000003 254.165368533,6.121139999999997 245.57126853299997,5.765320000000003 237.17706853299998,5.439939999999993 228.995068533,5.146339999999995 221.03746853299998,4.885419999999996 213.31576853299998,4.657560000000004 205.839168533,4.462639999999993 198.61406853299997,4.300060000000002 191.643968533,4.1702299999999894 184.92916853299997,4.075859999999992 178.46806853299998,4.018839999999997 172.25676853299998,4.0 166.28976853299997,4.019300000000001 160.55956853299998,4.076039999999992 155.05776853299997,4.169020000000003 149.77536853299998,4.298259999999999 144.703168533,4.4653200000000055 139.830068533,4.6710800000000035 135.144868533,4.91579999999999 130.636068533,5.199280000000002 126.292268533,5.521039999999999 122.102868533,5.880369999999985 118.057768533,6.276449999999997 114.147768533,6.708409999999986 110.363968533,7.175309999999996 106.698368533,7.6762199999999865 103.143678533,8.210250000000002 99.69303853299999,8.77619 96.340668533,9.37151 93.08250853300001,9.993319999999997 89.915818533,10.638729999999995 86.838758533,11.304839999999999 83.849998533,11.988799999999998 80.948518533,12.687829999999991 78.133348533,13.399229999999989 75.403868533,14.12115 72.760598533,14.855080000000001 70.202738533,15.603319999999997 67.728078533,16.368019999999987 65.333468533,17.151179999999997 63.015258533,17.954700000000003 60.769528533,18.780429999999996 58.592268533,19.630169999999993 56.479528533,20.505719999999997 54.427448533,21.40890999999999 52.432278533,22.34151 50.489098533,23.302570000000003 48.592708533,24.28873 46.739028533,25.296559999999985 44.924878533,26.322609999999997 43.147838533,27.36336 41.406118533000004,28.41525999999999 39.698408533000006,29.474689999999995 38.023828533,30.53805 36.381808533,31.60174 34.772008533,32.66224 33.194288533,33.71614 31.648588532999998,34.76018 30.134938532999996,35.791329999999995 28.653368533,36.806779999999996 27.205838532999998,37.806419999999996 25.798258533,38.79588 24.435668532999998,39.78138 23.121808533,40.76878 21.859348533,41.763619999999996 20.650198532999998,42.771119999999996 19.495718533,43.79624999999999 18.396858533,44.84381 17.353528533,45.917339999999996 16.361488533,47.01454 15.415928533,48.13128999999999 14.512678533,49.263529999999996 13.648163533,50.40718 12.819230533,51.55815 12.023090533,52.71235 11.257388533,53.86579 10.523562533,55.01779 9.826613533,56.17142 9.171076533,57.330169999999995 8.560553533,58.49736 7.994822533,59.67319 7.472011533,60.855999999999995 6.990516533,62.043839999999996 6.548929533000001,63.234519999999996 6.145983533000001,64.42569 5.780678533,65.61522 5.452193533,66.80175 5.159616533,67.98432 4.901985533,69.16238 4.678336733,70.33568 4.487750233,71.50429 4.329382133,72.66853 4.202492333,73.82894999999999 4.106468793,74.98635 4.040848333,76.1417 4.005338898,77.2962 4.0,78.45105 4.025515673,79.60692 4.082841183,80.76420999999999 4.173125233,81.92314999999999 4.297701333,83.08375 4.458079033,84.24583 4.655935133,85.408991 4.893101133,86.572598 5.171546533,87.735751 5.493358533,88.89726399999999 5.860706533,90.055639 6.2758035329999995,91.209037 6.739780532999999,92.355711 7.250957533,93.494891 7.807101533000001,94.6260597 8.405873533,95.7488046 9.044859533,96.862818 9.723260533000001,97.967079 10.444050533,99.05877699999999 11.210982533,100.13477499999999 12.027068533,101.192686 12.891135533,102.233496 13.800752533,103.259028 14.753218533,104.27111 15.745498533,105.27158 16.774518533,106.26212 17.839438533,107.24338 18.940338533000002,108.2156 20.077278532999998,109.17903 21.250258533,110.13399 22.459228532999997,111.08082999999999 23.704098532999996,112.01993 24.984698532999996,112.95173 26.300798533,113.87674 27.652068533,114.79551000000001 29.038138532999998,115.70867 30.459048532999997,116.61719 31.915308532999997,117.52234 33.407318532999994,118.42554 34.935398533,119.32827999999999 36.499708533,120.23221 38.100218533,121.1391 39.736678533,122.05085 41.408588533,122.9695 43.115088533,123.89722 44.85495853300001,124.83632 46.626548533000005,125.78921 48.427688533,126.75841 50.255668533,127.74649 52.107168533,128.75603999999998 53.978488533000004,129.789 55.868018533000004,130.84120000000001 57.77577853300001,131.90505 59.702308533,132.9727 61.648748533,134.03626 63.616938533,135.08785 65.60946853300001,136.1196 67.629768533,137.12371 69.682278533,138.09238 71.772548533,139.01769 73.907488533,139.89149 76.095678533,140.70515 78.34588853300001,141.45426 80.664208533,142.14436999999998 83.056558533,142.78237000000001 85.529038533,143.37539 88.08781853299999,143.93119 90.738928533,144.45842 93.48782853300001,144.96705 96.33878853300001,145.46878 99.29396853300001,145.97752 102.352008533,146.50977 105.50846853300001,147.07909999999998 108.760268533,147.68525 112.103968533,148.32465 115.535068533,148.99264 119.048068533,149.68351 122.63736853300001,150.39060999999998 126.29736853300001,151.10648 130.023368533,151.82308 133.811768533,152.53193 137.660968533,153.22424999999998 141.572068533,153.89112 145.54956853299998,154.52339 149.60176853299998,155.11158999999998 153.742668533,155.64565 157.99116853299998,156.11894999999998 162.368168533,156.53334 166.896368533,156.89144 171.60086853299998,157.19574 176.50956853299996,157.44877 181.652568533,157.65345 187.061868533,157.81366 192.768468533,157.93484 198.797068533,158.02512000000002 205.15736853299998,158.09425 211.84476853299998,158.14364 218.844568533,158.1719 226.133268533,158.17827 233.681268533,158.16284 241.458168533,158.12655 249.43876853299997,158.07112 257.61066853299997,157.99883 265.975468533,157.91065 274.53566853300003,157.80563999999998 283.28866853299996,157.68275 292.224868533,157.54104 301.325868533,157.37976 310.56506853300004,157.19823 319.912768533,156.99564 329.341268533,156.7713 338.825468533,156.52461 348.344768533,156.25507 357.883268533,155.96215999999998 367.431068533,155.64528 376.983068533,155.30262 386.53816853300003,154.93139 396.099368533,154.52861000000001 405.673268533,154.09118 415.269068533,153.61833000000001 424.893268533,153.11162000000002 434.54786853300004,152.57287 444.230668533,152.00421 453.934568533,151.40815 463.64766853300006,150.78745 473.355068533,150.14291 483.045068533,149.47319 492.710368533,148.7767 502.348668533,148.05158 511.9618685330001,147.2957 521.556068533,146.50718999999998 531.1378685330001,145.68497 540.713768533,144.82801999999998 550.2896685329999,143.93526 559.871168533,143.00555 569.463268533,142.03803 579.071868533,141.03291000000002 588.703768533,139.99047000000002 598.3667685329999,138.9108 608.0702685330001,137.79372999999998 617.8249685330001,136.63907 627.640168533,135.44849 637.5183685330001,134.22541999999999 647.453368533,132.97456 657.429868533,131.70197 667.4245685330001,130.41424999999998 677.414368533,129.1175 687.3787685330001,127.81747 697.3009685330001,126.5195 707.167368533,125.22841 716.9679685330001,123.94847 726.6958685330001,122.68341 736.347368533,121.43642 745.921568533,120.21018 755.4197685329999,119.00694 764.8456685330001,117.82854 774.204868533,116.6765 783.504568533,115.55206 792.753668533,114.45625 801.9625685330001,113.38991999999999 811.142968533,112.3538 820.3081685330001,111.34855999999999 829.4732685330001,110.37481 838.654868533,109.43318 847.8700685330001,108.52235 857.1288685330001,107.63853 866.430368533,106.77861 875.761868533,105.94045 885.0987685330001,105.12276 894.404568533,104.32500999999999 903.6328685330001,103.54732899999999 912.730468533,102.790319 921.641768533,102.054847 930.3141685329999,101.341813 938.702068533,100.651948 946.770668533,99.985666 954.497668533,99.343568 961.8746685330001,98.72671 968.905268533,98.13532 975.6012685329999,97.56891 981.979168533,97.026527 988.058068533,96.506957 993.857968533,96.008855 999.3987685330001,95.5308387 1004.008568533,95.13152" stroke="black" stroke-width="2.0" /></svg>