<?xml version="1.0" encoding="utf-8" ?>
<svg baseProfile="full" height="114.3501" version="1.1" width="1011.998402015" xmlns="http://www.w3.org/2000/svg" xmlns:ev="http://www.w3.org/2001/xml-events" xmlns:xlink="http://www.w3.org/1999/xlink"><defs /><polygon fill="none" points="1003.998402015,59.468259999999994 1000.7912020150001,58.76148499999999 996.6504020149999,57.850638 991.987002015,56.827076 986.8247020150001,55.696515999999995 981.244302015,54.476794999999996 975.324102015,53.18593 969.153002015,51.845557 962.829802015,50.479579 956.434802015,49.107859999999995 950.010202015,47.74173 943.564302015,46.38466 937.100702015,45.03879 930.626402015,43.706849999999996 924.150102015,42.39202 917.678802015,41.09712999999999 911.216602015,39.824299999999994 904.764102015,38.57500999999999 898.319302015,37.35002 891.879102015,36.149229999999996 885.440502015,34.972449999999995 879.0017020150001,33.81961 872.561002015,32.69081 866.1178020149999,31.586279999999995 859.671902015,30.506349999999998 853.223602015,29.451279999999993 846.773102015,28.421219999999998 840.3206020150001,27.416269999999997 833.8658020150001,26.436529999999998 827.408402015,25.482049999999994 820.9478020150001,24.55287 814.483202015,23.64886 808.0142020149999,22.76983 801.5403020150001,21.915569999999995 795.0612020149999,21.085919999999994 788.5770020150001,20.280749999999998 782.087602015,19.499929999999992 775.5932020150001,18.74333 769.0941020150001,18.01074 762.5900020150001,17.301889999999993 756.080402015,16.616509999999998 749.5647020150001,15.954309999999992 743.041902015,15.314970000000002 736.510702015,14.698050000000002 729.9702020149999,14.102829999999997 723.419802015,13.528589999999994 716.859302015,12.97464 710.289102015,12.440339999999999 703.710002015,11.925080000000001 697.123302015,11.428339999999999 690.530302015,10.949949999999994 683.932202015,10.48977 677.329802015,10.047629999999998 670.723702015,9.623349999999995 664.114202015,9.216709999999999 657.501602015,8.827469999999998 650.885502015,8.455399999999997 644.265702015,8.100189999999998 637.6418020149999,7.7615300000000005 631.0135020150001,7.439099999999996 624.3807020150001,7.13261 617.743402015,6.841729999999998 611.101502015,6.566180000000003 604.4553020149999,6.305660000000003 597.804802015,6.05988 591.1505020149999,5.828659999999992 584.4927020150001,5.6118299999999905 577.8318020150001,5.4091999999999985 571.1682020149999,5.2206099999999935 564.502302015,5.045879999999997 557.834802015,4.884819999999991 551.166202015,4.737249999999996 544.497102015,4.603090000000002 537.827902015,4.4823399999999936 531.158802015,4.3750499999999946 524.489902015,4.281209999999994 517.821102015,4.2008499999999955 511.152002015,4.133979999999994 504.48200201500003,4.080609999999993 497.81040201499997,4.040729999999996 491.13640201500004,4.014159999999997 484.459702015,4.000659999999996 477.77980201500003,4.0 471.097002015,4.011949999999999 464.411402015,4.036279999999998 457.723802015,4.072759999999995 451.034902015,4.121139999999997 444.34570201500003,4.1813299999999956 437.657102015,4.253369999999997 430.969702015,4.337310000000002 424.283502015,4.433230000000002 417.59840201500003,4.541179999999997 410.914002015,4.661239999999999 404.22950201500004,4.7934899999999985 397.543602015,4.937959999999997 390.85540201500004,5.094449999999995 384.164102015,5.26267 377.469202015,5.4423400000000015 370.770702015,5.633139999999997 364.069002015,5.834780000000002 357.364902015,6.046929999999996 350.659602015,6.269239999999996 343.954302015,6.501629999999999 337.250402015,6.744259999999997 330.54880201500004,6.997299999999996 323.85020201500004,7.260939999999998 317.154902015,7.535359999999997 310.462902015,7.820779999999992 303.774102015,8.11739 297.087802015,8.425399999999996 290.403302015,8.744809999999994 283.720102015,9.075619999999994 277.037402015,9.417819999999999 270.354602015,9.771409999999996 263.671102015,10.136400000000002 256.986202015,10.512789999999995 250.30000201500002,10.900659999999995 243.613502015,11.300009999999993 236.92890201500003,11.710769999999997 230.249302015,12.13279 223.579102015,12.565829999999998 216.92320201500002,13.00996 210.28650201500002,13.466569999999997 203.67170201500002,13.937370000000001 197.080202015,14.424139999999994 190.511202015,14.92875 183.963302015,15.452919999999999 177.43540201500002,15.998109999999997 170.927202015,16.565739999999998 164.43970201500002,17.157069999999997 157.974502015,17.773349999999994 151.533402015,18.416109999999996 145.11790201500003,19.086999999999996 138.72890201500002,19.787639999999996 132.366602015,20.519709999999996 126.02990201499999,21.284950000000002 119.717002015,22.085189999999997 113.426102015,22.921369999999996 107.15860201499999,23.793509999999998 100.919782015,24.701079999999997 94.718712015,25.643919999999994 88.56929201499999,26.621940000000002 82.489562015,27.63391 76.500622015,28.677529999999994 70.625852015,29.749409999999994 64.897382015,30.842389999999995 59.369592015,31.943859999999997 54.101772015,33.045069999999996 49.136842015000006,34.13906 44.511162015000004,35.21526 40.254462015,36.26098999999999 36.383112015,37.265609999999995 32.895062015,38.22140999999999 29.767152015,39.12729 26.962822015,39.986869999999996 24.446812015,40.806309999999996 22.186982014999998,41.591179999999994 20.154882015000002,42.35429 18.321832015,43.107589999999995 16.660912015,43.85821 15.149382014999999,44.60733999999999 13.770216015,45.355959999999996 12.511297015,46.10787 11.364538015,46.86993 10.323192015,47.646049999999995 9.381334015,48.4377 8.532485015,49.243939999999995 7.772332015,50.06341 7.098362015,50.895437 6.508605015,51.738684 6.002612015,52.590497 5.575936015,53.447024 5.2096260149999996,54.29808799999999 4.894214915,55.137212999999996 4.629521715,55.963798999999995 4.411004615,56.776635 4.238488215,57.573466999999994 4.134211515,58.357321 4.065524245,59.123932999999994 4.013125395,59.862862099999994 4.0,60.5837182 4.035638315,61.3111238 4.101831915,62.063644 4.187393415,62.839481 4.325148215,63.629611999999995 4.518403115,64.434259 4.761636715,65.252535 5.055535015,66.083099 5.404106015,66.923254 5.811316015,67.770845 6.274379015,68.627554 6.802713015,69.48375899999999 7.4190610150000005,70.323765 8.104995015,71.16745 8.832462015,72.03246 9.650892015,72.87608 10.570897015,73.69541 11.582014014999999,74.50457999999999 12.680137015,75.31188999999999 13.874598015,76.1018 15.188952015,76.8543 16.603282015,77.63898 18.110402015,78.48858 19.761532015,79.34133 21.586432015,80.18964 23.610332015,81.04248 25.859712015,81.91256999999999 28.364682015,82.81457 31.148502015,83.76701 34.217562015,84.77208 37.582982015000006,85.80305999999999 41.276622015,86.84622999999999 45.31931201500001,87.90531 49.694302015,88.97511 54.361692015,90.03831 59.284262015,91.08053 64.434872015,92.08967 69.792022015,93.05806999999999 75.32996201499999,93.98525 81.009152015,94.86873 86.795912015,95.70097999999999 92.67433201499999,96.47937999999999 98.636682015,97.20539 104.680302015,97.88175 110.807502015,98.51254 117.018302015,99.10294999999999 123.301702015,99.65799 129.634802015,100.18143 135.99430201500002,100.67195 142.372202015,101.12782999999999 148.778302015,101.54906 155.230402015,101.93997 161.73580201500002,102.30627999999999 168.28710201500002,102.65286 174.86710201500003,102.98111 181.461602015,103.29066 188.062902015,103.58152 194.669802015,103.85408 201.287402015,104.10920999999999 207.921402015,104.34836999999999 214.57320201500002,104.57301 221.239702015,104.78443 227.913102015,104.98374999999999 234.58330201500002,105.17067 241.242902015,105.34385 247.88900201500002,105.50213 254.522902015,105.64444 261.150202015,105.76982 267.780502015,105.87741 274.425602015,105.96815999999998 281.094402015,106.04448 287.79130201500004,106.10874 294.515902015,106.16332 301.263002015,106.21061999999999 308.02210201500003,106.25294 314.77940201499996,106.29008999999999 321.523602015,106.32001 328.246702015,106.34066 334.944302015,106.3501 341.61540201500003,106.34644 348.26230201500005,106.32782999999999 354.89010201499997,106.29245999999999 361.507002015,106.23902999999999 368.12060201500003,106.16787 374.737002015,106.07947 381.360402015,105.97434999999999 387.992902015,105.85298 394.634802015,105.71588 401.284502015,105.56361 407.93830201500003,105.39676 414.59120201499996,105.21526 421.238902015,105.01847000000001 427.878202015,104.80577 434.50710201500004,104.57651 441.124702015,104.33003 447.731202015,104.06564 454.327902015,103.78262 460.916902015,103.48029 467.500702015,103.15838 474.08110201500006,102.8167 480.65930201500004,102.45507 487.23610201500003,102.07334 493.811402015,101.67138 500.384702015,101.2491 506.955002015,100.80644999999998 513.5206020150001,100.34331999999999 520.080502015,99.85951 526.634002015,99.35477 533.181102015,98.82881 539.722502015,98.28128 546.259302015,97.71179 552.793202015,97.11985999999999 559.326502015,96.50502999999999 565.8619020149999,95.8674 572.4011020150001,95.20737 578.9455020150001,94.52536 585.4954020150001,93.82188 592.050802015,93.09753 598.610702015,92.35297 605.1734020150001,91.58897999999999 611.736602015,90.80626 618.298202015,90.00506999999999 624.8568020150001,89.18556 631.411802015,88.34779999999999 637.963402015,87.49172999999999 644.512402015,86.6172 651.060802015,85.72396 657.6109020150001,84.81171 664.166102015,83.88202999999999 670.7292020149999,82.93827999999999 677.302502015,81.98404 683.887102015,81.02301 690.4833020149999,80.05911 697.090502015,79.09642 703.707202015,78.13917 710.330602015,77.19056 716.9565020150001,76.24835 723.579502015,75.30878 730.1938020150001,74.3682 736.793002015,73.42309 743.369902015,72.47006999999999 749.9177020149999,71.50748 756.431502015,70.5418 762.910202015,69.58158999999999 769.355402015,68.634725 775.771702015,67.70842099999999 782.166202015,66.809339 788.548402015,65.943252 794.927402015,65.111229 801.309702015,64.31215599999999 807.698502015,63.545392 814.093902015,62.810719 820.492902015,62.108259 826.889202015,61.438435 833.274702015,60.8028724 839.643002015,60.204146699999995 845.990302015,59.644483599999994 852.315402015,59.125761999999995 858.619702015,58.6496 864.907202015,58.21745 871.183402015,57.830265999999995 877.453802015,57.487984 883.721602015,57.190588999999996 889.988402015,56.938241999999995 896.253802015,56.731207999999995 902.5155020149999,56.569793 908.7695020150001,56.454345999999994 915.0113020150001,56.385746999999995 921.237902015,56.365050999999994 927.4483020150001,56.393235 933.6434020150001,56.471267999999995 939.825702015,56.599756 945.995402015,56.777302 952.146802015,57.0017 958.267502015,57.270503999999995 964.334002015,57.582499 970.304202015,57.935829 976.122202015,58.326198 981.726302015,58.745563 987.0548020150001,59.182393 992.042602015,59.62527669999999 996.619002015,60.061884299999996 1000.7522020150001,60.481636689999995 1003.998402015,60.82825999999999" stroke="black" stroke-width="2.0" /></svg>