<?xml version="1.0" encoding="utf-8" ?>
<svg baseProfile="full" height="138.76062" version="1.1" width="1012.04091228" xmlns="http://www.w3.org/2000/svg" xmlns:ev="http://www.w3.org/2001/xml-events" xmlns:xlink="http://www.w3.org/1999/xlink"><defs /><polygon fill="none" points="1004.04091228,76.7267 1000.6966122800001,75.856286 996.53351228,74.779839 992.02781228,73.62277999999999 987.17551228,72.385402 981.98461228,71.071725 976.4737122800001,69.688582 970.6717122800001,68.24534299999999 964.61481228,66.75321 958.33911228,65.22274999999999 951.88151228,63.66372 945.28061228,62.08576 938.57231228,60.4978 931.78731228,58.909 924.95101228,57.32759 918.08231228,55.760059999999996 911.1924122800001,54.21074 904.2866122800001,52.68195 897.3651122800001,51.174769999999995 890.42301228,49.6892 883.45061228,48.22364999999999 876.43991228,46.77431 869.39051228,45.33826 862.31001228,43.91422 855.21531228,42.50253 848.12911228,41.10718 841.0705122800001,39.73514 834.05011228,38.39192 827.07101228,37.0813 820.1291122800001,35.80558 813.21461228,34.56525 806.3172122800001,33.358999999999995 799.42871228,32.18579 792.54361228,31.04511 785.65801228,29.93689 778.7707122800001,28.86143 771.8816122800001,27.818939999999998 764.98991228,26.80916 758.09331228,25.831529999999994 751.1874122800001,24.88537 744.26651228,23.9698 737.32261228,23.083839999999995 730.34671228,22.225519999999996 723.3315122800001,21.39179 716.2727122800001,20.579859999999996 709.16951228,19.787309999999998 702.02501228,19.012050000000002 694.84601228,18.252269999999996 687.64341228,17.507129999999997 680.4285122800001,16.778020000000005 673.2102122800001,16.06644 665.9951122800001,15.37357 658.78711228,14.700299999999999 651.5874122800001,14.047219999999996 644.3950122800001,13.414690000000007 637.20711228,12.802660000000003 630.0212122800001,12.210989999999995 622.83541228,11.639619999999994 615.6481122800001,11.08851 608.4587122800001,10.557729999999992 601.2667122800001,10.047349999999994 594.07261228,9.557490000000001 586.87661228,9.0882 579.6793122800001,8.639489999999995 572.4810122800001,8.211359999999999 565.28191228,7.803809999999999 558.08221228,7.416849999999997 550.8821122800001,7.050449999999998 543.68161228,6.7046299999999945 536.48071228,6.379400000000004 529.27961228,6.074809999999999 522.0782122800001,5.7908900000000045 514.87671228,5.5276700000000005 507.67511228,5.285189999999986 500.47371228,5.063469999999995 493.27261228,4.862580000000008 486.07181227999996,4.682559999999995 478.87161227999997,4.523470000000003 471.67201228,4.385349999999988 464.47301228,4.268270000000001 457.27481228,4.1722699999999975 450.07721227999997,4.097409999999996 442.88051228,4.043719999999993 435.68441228,4.011240000000001 428.48901228,4.0 421.29421227999995,4.01003 414.09981228,4.041370000000001 406.90571228,4.094059999999999 399.71171228,4.168130000000005 392.51761228,4.263530000000003 385.32331228,4.380170000000007 378.12851228,4.518000000000001 370.93311228,4.676940000000002 363.73691228,4.856929999999991 356.53981228,5.057909999999993 349.34171228,5.279820000000001 342.14281228,5.52261 334.94361227999997,5.786230000000003 327.74521228,6.070580000000007 320.54901228,6.375550000000004 313.35671227999995,6.700999999999993 306.17051227999997,7.046809999999994 298.99251227999997,7.413229999999999 291.82421228,7.8006500000000045 284.66631228,8.209469999999996 277.51891228,8.64013 270.38151228,9.093109999999996 263.25271227999997,9.5689 256.13141227999995,10.067809999999994 249.01731228,10.589939999999999 241.91131228,11.135329999999996 234.81551227999998,11.703870000000009 227.73321228,12.295369999999991 220.66861228,12.909559999999999 213.62671227999996,13.54685 206.61171227999998,14.20796 199.62691228,14.893629999999995 192.67501227999998,15.604569999999995 185.75781227999997,16.341519999999996 178.87671228,17.105249999999998 172.03441227999997,17.896389999999997 165.23551227999997,18.71528 158.48671227999998,19.561849999999993 151.79671227999998,20.43562 145.17511227999998,21.33587 138.63331227999998,22.26271 132.18361227999998,23.21624 125.83841228,24.19598 119.61031228,25.200939999999996 113.51081228,26.2297 107.55271228000001,27.281 101.75168228,28.35279 96.12507228,29.441720000000004 90.68925228,30.5435 85.45795228,31.653419999999997 80.44295228,32.767939999999996 75.65534228000001,33.88379 71.10323228,34.99690999999999 66.79016228,36.10303 62.71464228,37.198209999999996 58.87127228,38.27971 55.25353228,39.34659 51.85366228,40.397729999999996 48.66205228,41.43183 45.66743228,42.44775 42.857382279999996,43.44468 40.21913228,44.422309999999996 37.741502280000006,45.38216 35.414372279999995,46.32607 33.22782228,47.2553 31.17216228,48.17076 29.238022280000003,49.07312 27.416462279999998,49.96292 25.69904228,50.84062 24.07816228,51.70689 22.54793228,52.56362 21.10291228,53.41271999999999 19.73777228,54.255759999999995 18.44739228,55.09401 17.22697228,55.928529999999995 16.07201228,56.760189999999994 14.97833228,57.58967 13.94209328,58.41758 12.95999828,59.24445 12.03155228,60.07119 11.15745928,60.8988 10.33802528,61.72799 9.57322028,62.55933 8.86272928,63.393209999999996 8.20601328,64.22990999999999 7.6023432799999995,65.06961 7.0508432800000005,65.91239 6.55051628,66.75829999999999 6.10022528,67.607061 5.698367279999999,68.456527 5.34307528,69.304338 5.03251498,70.148868 4.76499168,70.98907799999999 4.53902028,71.824389 4.35337068,72.65459 4.20710008,73.479761 4.09957871,74.300231 4.0305173,75.11653799999999 4.0,75.929417 4.00852974,76.7397984 4.05708644,77.5488238 4.14649798,78.35778499999999 4.27677858,79.167798 4.44827018,79.979676 4.66174248,80.793916 4.91834918,81.61066699999999 5.21958128,82.429663 5.56721228,83.250136 5.96321028,84.07068 6.4096142799999996,84.889098 6.90824428,85.70268899999999 7.46015628,86.510501 8.06605528,87.312301 8.72645928,88.10791 9.441658279999999,88.89722 10.21168128,89.68021999999999 11.03625428,90.45701 11.91475328,91.22784 12.84614828,91.99314 13.82895828,92.75358 14.86267228,93.50987 15.950092280000002,94.26231 17.094822280000002,95.01123 18.30074228,95.75702 19.572122280000002,96.50021 20.913512280000003,97.24148 22.32985228,97.9817 23.82634228,98.72196 25.40844228,99.46368 27.081882280000002,100.20839 28.85389228,100.95659 30.73263228,101.70841 32.72691228,102.46413 34.846082280000005,103.2242 37.09997228,103.98937 39.49878228,104.76082 42.05291228,105.54042 44.77330228,106.33026 47.67300228,107.13022 50.76552228,107.93923 54.06362228,108.75601 57.578872280000006,109.5792 61.32133228,110.40761 65.30008228,111.24065 69.52386228,112.07678 73.99862228,112.91286 78.72527228,113.74548 83.69938228,114.57141999999999 88.91204228000001,115.38817 94.35212228,116.19367 100.00628228,116.9842 105.85711228,117.75609 111.88451228,118.50649 118.06871228,119.23376999999999 124.39251228,119.93721 130.84111228,120.61549 137.39931227999998,121.26765 144.05291228,121.89332999999999 150.78931228,122.49283 157.59821227999998,123.06684 164.47131227999998,123.61564999999999 171.40061228,124.13962 178.37891227999998,124.63937 185.39961227999999,125.11574999999999 192.45721228,125.56975 199.54711227999996,126.00191 206.66521228,126.41261 213.80751228,126.80231 220.97091228,127.17155 228.15241227999996,127.52096 235.34981228,127.85105999999999 242.56101228,128.16212000000002 249.78431228,128.45436999999998 257.01831228000003,128.72813 264.26151228000003,128.98368 271.51311228,129.22137 278.77221228,129.44147 286.03801228,129.64414 293.30971228,129.82956000000001 300.58651228,129.99792 307.86741228,130.14939999999999 315.15161228,130.2842 322.43811228,130.40241 329.72601227999996,130.50398 337.01451227999996,130.58884 344.30291228,130.65693 351.59061228,130.70821 358.87711227999995,130.74262 366.16211228,130.76012 373.44521228,130.76062 380.72661228,130.74403999999998 388.00631228,130.71029 395.28501228,130.65929 402.56321227999996,130.59091999999998 409.84191228000003,130.50508 417.12211227999995,130.40179 424.40451228,130.28118 431.68961228,130.14341 438.97721228,129.98865 446.26671228,129.81706 453.55721228,129.62883 460.84741228,129.42415 468.13571227999995,129.20301 475.42131227999994,128.96529999999998 482.70401228,128.71092 489.98421228,128.43971 497.26291227999997,128.15152 504.54181228,127.84613 511.82321228,127.52339 519.1090122800001,127.18347 526.4003122800001,126.82660999999999 533.6969122800001,126.45313 540.9977122800001,126.0634 548.30041228,125.65785 555.60171228,125.237 562.8975122800001,124.80113 570.1850122800001,124.34998999999999 577.4633122800001,123.88319999999999 584.7333122800001,123.40024 591.99831228,122.90047999999999 599.2631122800001,122.38307999999999 606.53471228,121.84712999999999 613.82051228,121.29271 621.1259122800001,120.72072 628.45261228,120.13229 635.7993122800001,119.52886 643.16121228,118.91218 650.53001228,118.28438 657.8943122800001,117.64704 665.2441122800001,116.99978999999999 672.57351228,116.34169 679.88101228,115.67142999999999 687.1694122800001,114.98734999999999 694.44521228,114.28742 701.7191122800001,113.56978000000001 709.0028122800001,112.83618 716.3057122800001,112.08998 723.63371228,111.33488 730.9893122800001,110.57502 738.37161228,109.81502 745.77581228,109.05926 753.1946122800001,108.30771999999999 760.62071228,107.55826 768.0476122800001,106.80865 775.46961228,106.05655999999999 782.88181228,105.2996 790.28061228,104.53577 797.6642122800001,103.76404 805.03381228,102.98331999999999 812.39331228,102.19224 819.7490122800001,101.38909 827.11021228,100.57213 834.48611228,99.74153 841.8822122800001,98.89881 849.29891228,98.04605000000001 856.73161228,97.18596 864.1707122800001,96.32151 871.6032122800001,95.45381 879.01611228,94.58319 886.3967122800001,93.71002999999999 893.7333122800001,92.83461 901.01551228,91.95602 908.2374122800001,91.07166 915.39851228,90.17839 922.50291228,89.27269 929.55611228,88.35334999999999 936.5548122800001,87.42361 943.48271228,86.488587 950.31231228,85.554889 957.0054122800001,84.630167 963.51421228,83.723229 969.7887122800001,82.842976 975.78251228,81.995654 981.45531228,81.185614 986.7808122800001,80.417164 991.74751228,79.699791 996.35661228,79.041212 1000.6173122800001,78.440327 1004.04091228,77.9607" stroke="black" stroke-width="2.0" /></svg>