<?xml version="1.0" encoding="utf-8" ?>
<svg baseProfile="full" height="142.23574" version="1.1" width="1012.05113719" xmlns="http://www.w3.org/2000/svg" xmlns:ev="http://www.w3.org/2001/xml-events" xmlns:xlink="http://www.w3.org/1999/xlink"><defs /><polygon fill="none" points="1004.05113719,78.05493 1000.6717371899999,77.152941 996.47823719,76.040789 991.9535371899999,74.84869 987.0933371899999,73.576798 981.9036371899999,72.228848 976.39983719,70.811095 970.60613719,69.332005 964.55483719,67.80186 958.2786371899999,66.23064 951.81253719,64.62787 945.1943371899999,63.0032 938.45993719,61.36583 931.64113719,59.72556 924.76533719,58.09149 917.85403719,56.47103 910.9212371899999,54.86959 903.9738371899999,53.290530000000004 897.0119371899999,51.73558 890.02843719,50.20488 883.00993719,48.69628 875.94543719,47.20459 868.83313719,45.725880000000004 861.68153719,44.25824 854.51063719,42.80195 847.34763719,41.36208 840.2142371900001,39.94668 833.1228371899999,38.5619 826.07653719,37.211819999999996 819.07063719,35.898810000000005 812.0939371899999,34.623 805.1360371899999,33.38306 798.18873719,32.1781 791.2468371900001,31.007850000000005 784.30763719,29.87251 777.37063719,28.772690000000004 770.43653719,27.708799999999997 763.50413719,26.680670000000006 756.56973719,25.687800000000003 749.62683719,24.72943 742.66613719,23.80455 735.67573719,22.911880000000004 728.6422371900001,22.048280000000005 721.5558371899999,21.209610000000005 714.4113371899999,20.392230000000005 707.2088371899999,19.593020000000003 699.95443719,18.809320000000007 692.6608371899999,18.038980000000002 685.34553719,17.28221 678.0247371899999,16.541779999999996 670.7102371899999,15.820100000000004 663.40903719,15.119010000000003 656.1238371899999,14.439859999999996 648.85273719,13.783529999999999 641.5899371899999,13.150289999999998 634.32873719,12.539380000000008 627.06373719,11.950040000000001 619.7917371899999,11.38167 612.51073719,10.83386999999999 605.22093719,10.306380000000004 597.92383719,9.79903999999999 590.62263719,9.312020000000004 583.32003719,8.845669999999998 576.01793719,8.400270000000006 568.71783719,7.976050000000001 561.4203371899999,7.5731600000000014 554.1253371899999,7.191730000000007 546.8321371899999,6.831850000000003 539.5395371899999,6.493470000000002 532.24673719,6.176540000000003 524.95323719,5.8810299999999955 517.6586371899999,5.606929999999991 510.36293719,5.35423999999999 503.06643719,5.122970000000009 495.76953719,4.9131399999999985 488.47273719000003,4.72484 481.17653719,4.558120000000002 473.88113719000006,4.413040000000009 466.58663719000003,4.289680000000004 459.29303719,4.188069999999996 452.00023719,4.108280000000008 444.70783719,4.050340000000006 437.41573719,4.01424999999999 430.1238371900001,4.0 422.83203719000005,4.00761 415.54043719000003,4.037090000000006 408.24933719,4.0884300000000025 400.95873719,4.161630000000002 393.66913719,4.256720000000001 386.38053719,4.373700000000014 379.09313719,4.512590000000003 371.80663719000006,4.673410000000004 364.52103719,4.856179999999995 357.23573719,5.060940000000002 349.95043719000006,5.287689999999998 342.66493719000005,5.536389999999997 335.37933719000006,5.806960000000004 328.09433719,6.099310000000003 320.81093719,6.41331000000001 313.53063719000005,6.748810000000006 306.25533719,7.105689999999996 298.98693719000005,7.484100000000012 291.72683719,7.884340000000009 284.47603719,8.306690000000003 277.23493719,8.751460000000009 270.00353719,9.218980000000002 262.78123719,9.709620000000001 255.56763718999997,10.22363 248.36313719,10.761130000000009 241.16943719,11.32217 233.98913719,11.906689999999998 226.82593719,12.514470000000003 219.68443718999998,13.145359999999997 212.56973718999998,13.799880000000002 205.48603719,14.478769999999997 198.43713719,15.182769999999998 191.42603719000002,15.912570000000002 184.45513719,16.66885 177.52673719,17.452290000000005 170.64443719,18.26341 163.81403719,19.10237 157.04303718999998,19.96891 150.34043719,20.86237 143.71623719,21.782010000000007 137.18253719,22.727650000000004 130.75263719,23.698710000000005 124.44063719,24.69393 118.26043719,25.711450000000006 112.22533719,26.74911 106.34973719000001,27.80523 100.64988719,28.877270000000003 95.14189719000001,29.96161 89.83956719000001,31.053990000000006 84.75318719,32.15006 79.89089719000002,33.24688 75.25956719000001,34.341570000000004 70.86287719,35.430670000000006 66.70039718999999,36.510729999999995 62.76759719,37.57861 59.05695719,38.632239999999996 55.56035719,39.671209999999995 52.26898719,40.69492 49.17287719,41.70257 46.261007189999994,42.693439999999995 43.52168719,43.66697 40.94305719,44.62289 38.51443719,45.56227 36.22653719,46.48708 34.07030719,47.398790000000005 32.036957189999995,48.29849 30.118007189999997,49.186989999999994 28.305417189999996,50.06491 26.59156719,50.93276 24.96937719,51.79099 23.433007189999998,52.6407 21.977807189999996,53.48371 20.599237189999997,54.32159 19.29285719,55.15560000000001 18.05443719,55.98679 16.879967190000002,56.81601 15.765687190000001,57.643950000000004 14.708077190000001,58.471199999999996 13.703888189999999,59.29821 12.750684190000001,60.12549 11.84878419,60.953829999999996 10.99890919,61.784000000000006 10.201407190000001,62.616569999999996 9.45632019,63.452 8.76344219,64.29065 8.122371189999999,65.13276 7.532540190000001,65.97852 6.99325819,66.82806 6.50373019,67.68146 6.06297919,68.53836 5.66940719,69.396584 5.32119619,70.25394800000001 5.01659549,71.108894 4.75400069,71.960377 4.53200969,72.807763 4.34945719,73.65075 4.20544059,74.489308 4.09934254,75.323635 4.03085348,76.154128 4.0,76.981369 4.00718284,77.806119 4.053230227,78.62933069 4.13910564,79.4521345 4.26497149,80.275591 4.43114209,81.100484 4.6383307899999995,81.92729800000001 4.88760889,82.756196 5.18036519,83.586962 5.51825819,84.418925 5.90314419,85.250858 6.33697719,86.080837 6.82158919,86.90632 7.358025189999999,87.726124 7.94683919,88.540057 8.58841519,89.34798 9.28293419,90.14982 10.03034719,90.94555 10.83033219,91.73527 11.682257190000001,92.51917 12.58512719,93.29758 13.53753419,94.07101 14.53815719,94.84011 15.588707190000001,95.6052 16.69219719,96.36653 17.85193719,97.12440000000001 19.07146719,97.87924000000001 20.35460719,98.63153 21.705447189999997,99.38195999999999 23.12834719,100.13134 24.62784719,100.88073 26.20867719,101.63145 27.87631719,102.38444 29.63750719,103.13992999999999 31.49960719,103.89818 33.47048719,104.65962 35.55850719,105.42487 37.77245719,106.19488 40.12141719,106.97104 42.61459719,107.75534 45.261977189999996,108.54951 48.07542719,109.35319 51.06716719,110.16554 54.24908719,110.9856 57.63243719,111.81239 61.227677189999994,112.64511999999999 65.04478719,113.48351 69.09392719,114.32655 73.38350719,115.17173 77.91820719000002,116.01625 82.69829719,116.85730000000001 87.71981719,117.69257 92.97588719000001,118.52026000000001 98.45743719000001,119.33704 104.15113719,120.13906 110.03993719,120.92302000000001 116.10553719,121.68661 122.33063719,122.42866000000001 128.70033719000003,123.14768000000001 135.19933719,123.84213 141.81203718999998,124.51106 148.52413718999998,125.1542 155.32303718999998,125.77194 162.19833719,126.36436 169.14063718999998,126.93141 176.14113719,127.47337 183.19193718999998,127.99077 190.28663719,128.48444 197.41983719,128.95501000000002 204.58703719,129.4028 211.78383718999999,129.82822 219.00653719,130.2318 226.25153719,130.61413 233.51603719,130.97582 240.79743718999998,131.31714 248.09353718999998,131.63833 255.40253719,131.93967 262.72263719,132.22147 270.05263719000004,132.48406 277.39153719,132.72776 284.73823719000006,132.95273 292.09183719,133.15914 299.45133719,133.34717 306.81583719,133.51701 314.18423719000003,133.66885 321.55543719,133.80282 328.92853719,133.91886 336.30263719,134.01692 343.67703719,134.09694000000002 351.05113719,134.15888 358.42453719,134.20268 365.79673719000004,134.22832 373.16773719,134.23574 380.53743719,134.22487 387.90603719,134.19567 395.27393719,134.14807 402.64163719000004,134.082 410.00973719,133.99739 417.37923718999997,133.89425 424.75043719,133.77265 432.12343719000006,133.63271 439.49803719000005,133.47454 446.87343719,133.29824 454.24833719000003,133.10396 461.62123719,132.89184 468.99073719,132.66178 476.35613718999997,132.41363 483.71753719000003,132.14721 491.07603719,131.86229 498.43333719000003,131.55861 505.79213719,131.23584 513.1557371900001,130.89386 520.5268371899999,130.53303 527.90683719,130.15385 535.2959371899999,129.75685 542.69253719,129.34267 550.09393719,128.91204 557.49593719,128.46576 564.89353719,128.00404 572.28323719,127.52656 579.6631371899999,127.03284 587.03333719,126.52235999999999 594.39563719,125.99442 601.7533371899999,125.44821 609.1117371899999,124.88298 616.47583719,124.2988 623.84903719,123.69608 631.23293719,123.07532 638.62723719,122.43718 646.02963719,121.78253000000001 653.43603719,121.11238 660.84143719,120.42727 668.24263719,119.72712 675.63903719,119.01163 683.0327371899999,118.28019 690.42843719,117.53195 697.83373719,116.76571 705.25813719,115.98140000000001 712.71033719,115.18119 720.19633719,114.36776 727.7188371899999,113.5442 735.27743719,112.71405 742.86823719,111.88129 750.4840371899999,111.04876 758.1157371899999,110.21746999999999 765.75363719,109.38833 773.38733719,108.56235000000001 781.00623719,107.74052 788.5992371899999,106.92343 796.1577371899999,106.10895 803.67843719,105.29362 811.16323719,104.4735 818.6193371899999,103.64418 826.05883719,102.80097 833.4961371899999,101.94206 840.9431371899999,101.06802 848.4077371899999,100.17989 855.89343719,99.27921 863.3996371899999,98.36796 870.92053719,97.44824 878.44453719,96.52265 885.95363719,95.59461 893.42443719,94.66814 900.83103719,93.74468 908.1558371899999,92.82089 915.39313719,91.89206 922.54753719,90.95266 929.6292371899999,89.99978 936.63983719,89.03589 943.56743719,88.065483 950.3891371899999,87.09471 957.0694371899999,86.13208900000001 963.5607371899999,85.188126 969.8113371899999,84.27338400000001 975.77473719,83.393558 981.4169371899999,82.55058700000001 986.72053719,81.746726 991.6810371899999,80.992199 996.30163719,80.296697 1000.59083719,79.660275 1004.05113719,79.15093" stroke="black" stroke-width="2.0" /></svg>