<?xml version="1.0" encoding="utf-8" ?>
<svg baseProfile="full" height="123.97362000000001" version="1.1" width="1012.1182554" xmlns="http://www.w3.org/2000/svg" xmlns:ev="http://www.w3.org/2001/xml-events" xmlns:xlink="http://www.w3.org/1999/xlink"><defs /><polygon fill="none" points="1004.1182554,70.88316000000002 1000.8886554,70.08525800000001 996.9726554,69.11782700000002 992.8311554,68.09472800000002 988.4421553999999,67.01053200000001 983.7831553999999,65.85970300000001 978.8330553999999,64.63702700000002 973.5749553999999,63.338349000000015 968.0009554,61.96171000000001 962.1181554,60.508930000000014 955.9565554,58.987380000000016 949.5738554,57.411690000000014 943.0495554,55.80564000000001 936.4643553999999,54.19590000000001 929.8855553999999,52.605710000000016 923.3585554,51.05233000000001 916.9051553999999,49.546560000000014 910.5256553999999,48.09347000000001 904.2020554,46.69371000000001 897.9020554,45.34352000000001 891.5910554,44.03292000000002 885.2412553999999,42.752440000000014 878.8325553999999,41.49458000000001 872.3516554,40.25348000000001 865.7937554,39.024780000000014 859.1634553999999,37.80573000000001 852.4764553999998,36.59522000000001 845.7587553999999,35.39569000000001 839.0362554,34.213740000000016 832.3285553999999,33.05521000000001 825.6486553999999,31.924470000000014 819.0024553999999,30.824560000000012 812.3894554,29.757300000000008 805.8032553999999,28.723540000000014 799.2321554,27.723140000000008 792.6620554,26.753740000000015 786.0813554,25.81238000000001 779.4820554,24.896760000000015 772.8590554,24.005110000000016 766.2106554,23.136170000000014 759.5387554,22.28912000000001 752.8489553999999,21.463540000000016 746.1499554,20.65977000000001 739.4499554,19.879230000000014 732.7545554,19.123070000000013 726.0662553999999,18.392080000000014 719.3844553999999,17.686670000000014 712.7059554,17.00697000000001 706.0243553999999,16.352900000000012 699.3304553999999,15.72403000000002 692.6141554,15.118280000000013 685.8674554,14.532740000000011 679.0856554,13.96482000000001 672.2675553999999,13.412180000000014 665.4154553999999,12.872690000000013 658.5357554,12.344460000000012 651.6388554,11.825790000000012 644.7383553999999,11.316690000000015 637.8463554,10.819560000000017 630.9714554,10.336690000000011 624.1183554,9.870050000000013 617.2882553999999,9.42128000000001 610.4792553999999,8.991790000000016 603.6857554,8.582770000000004 596.8995553999999,8.194840000000013 590.1121553999999,7.826970000000017 583.3168554,7.4779100000000085 576.5091553999999,7.146560000000008 569.6866554,6.8319700000000125 562.8490553999999,6.533300000000011 555.9984554,6.249790000000004 549.1389554,5.980790000000013 542.2760554,5.726570000000024 535.4145554,5.487850000000023 528.5581553999999,5.265270000000015 521.7093553999999,5.059450000000012 514.8694554,4.87090000000002 508.0387554,4.700110000000009 501.2163554,4.547530000000009 494.4003554,4.413450000000012 487.5890554,4.297930000000008 480.7806554,4.201050000000009 473.9735554,4.1229000000000156 467.16655540000005,4.063600000000022 460.3583554,4.023270000000011 453.5479554,4.002050000000011 446.7344554,4.0 439.9172554,4.016760000000005 433.0955554,4.051870000000022 426.2687554,4.104910000000018 419.4363554,4.175430000000006 412.5978554,4.263010000000008 405.75285540000004,4.367200000000025 398.9009554,4.487610000000018 392.0421554,4.623980000000017 385.1770554,4.776190000000014 378.3071554,4.944050000000004 371.4345554,5.127370000000013 364.5623554,5.325890000000015 357.69445540000004,5.539310000000015 350.8353554,5.767290000000017 343.9901554,6.009970000000024 337.1619554,6.268180000000015 330.3521554,6.5428300000000235 323.5596554,6.834910000000022 316.78145539999997,7.145480000000006 310.0125554,7.475750000000019 303.2457554,7.827070000000006 296.4724554,8.200590000000012 289.68495540000004,8.596200000000017 282.8796554,9.013360000000013 276.0575554,9.451270000000015 269.2238554,9.908800000000014 262.3884554,10.384430000000009 255.5659554,10.876190000000008 248.7746554,11.382010000000015 242.03295540000002,11.902680000000018 235.3511554,12.440930000000016 228.7312554,12.999870000000016 222.1679554,13.583090000000013 215.64885540000003,14.194750000000013 209.1559554,14.839740000000013 202.6647554,15.523920000000011 196.1466554,16.248050000000013 189.5883554,16.99641000000001 183.0099554,17.746740000000017 176.4624554,18.48327000000001 169.98655540000001,19.220020000000012 163.5793554,19.979670000000013 157.2011554,20.78310000000002 150.81695539999998,21.632050000000014 144.43445540000002,22.518710000000013 138.1051554,23.431570000000015 131.8798554,24.372960000000013 125.75965539999999,25.355840000000015 119.6996554,26.397720000000014 113.63685539999999,27.494950000000017 107.54305539999999,28.623020000000018 101.4403354,29.748010000000015 95.39844539999999,30.85144000000001 89.50515539999999,31.942250000000016 83.83884539999998,33.02873000000002 78.4559154,34.117350000000016 73.3684854,35.21973000000001 68.5416854,36.35272000000001 63.918805400000004,37.53654000000001 59.43618540000001,38.78872000000002 55.057505400000004,40.09840000000001 50.8064654,41.433520000000016 46.7484954,42.749600000000015 42.9570554,44.001570000000015 39.4846354,45.170670000000015 36.3425654,46.27381000000001 33.5061854,47.329650000000015 30.9386754,48.353040000000014 28.6032254,49.354990000000015 26.4672454,50.34356000000001 24.5033654,51.324590000000015 22.688855399999998,52.301980000000015 21.0061354,53.27480000000001 19.442575400000003,54.23951000000001 17.9885054,55.19259000000001 16.635815400000002,56.130820000000014 15.3772354,57.051470000000016 14.2059754,57.952410000000015 13.1162434,58.83306000000002 12.1059664,59.69879000000002 11.1731214,60.55600000000001 10.3148404,61.40747000000002 9.527598399999999,62.253273000000014 8.807286399999999,63.09427700000001 8.1472134,63.93149500000001 7.5389254,64.76426700000002 6.9762004,65.59013300000001 6.4543984000000005,66.40554800000001 5.9736524,67.20672300000001 5.5399054,67.991645 5.1569134000000005,68.76066500000002 4.8265969,69.51562500000001 4.5500441,70.25923700000001 4.3281818,70.99475280000001 4.16225228,71.72582470000002 4.05381399,72.45640990000001 4.000926,73.18951000000001 4.0,73.92703100000001 4.04857978,74.67048900000002 4.14511802,75.42108400000001 4.2887841,76.17971600000001 4.4793223,76.94695500000002 4.7169326,77.72298200000002 5.0021495,78.50746500000001 5.3356964,79.29939500000002 5.7182824,80.09683400000002 6.1503154,80.89659000000002 6.6314784,81.69381500000001 7.1613793999999995,82.48179000000002 7.7450784,83.25332000000002 8.391027399999999,84.00163000000002 9.1103384,84.72038 9.9152844,85.40619000000001 10.8038864,86.07074000000001 11.7639214,86.73264000000002 12.7813844,87.40633000000001 13.8613554,88.08430000000001 15.0174954,88.75384000000001 16.2621454,89.41115000000002 17.6060254,90.05869000000001 19.061645400000003,90.69988000000001 20.6435654,91.33938000000002 22.3681654,91.98373000000001 24.252285399999998,92.64206000000001 26.3122254,93.32462000000001 28.5685954,94.03420000000001 31.0425954,94.77065000000002 33.752205399999994,95.53265000000002 36.709015400000006,96.31771000000002 39.9161354,97.12277000000002 43.370415400000006,97.94604000000001 47.0721854,98.78925000000001 51.0318154,99.65084000000002 55.2580754,100.52437 59.7530054,101.40109000000001 64.5108554,102.27007000000002 69.5187354,103.11998000000001 74.7549454,103.94290000000001 80.1866754,104.73230000000001 85.7720354,105.48312000000001 91.4669554,106.18903000000002 97.2418654,106.84031000000002 103.0939554,107.43003000000002 109.0523554,107.95636000000002 115.15955539999999,108.43866000000001 121.4322554,108.90611000000001 127.8430554,109.38772 134.32575540000002,109.88568000000001 140.8223554,110.37821000000002 147.30035540000003,110.84473000000001 153.7534554,111.27262000000002 160.1928554,111.65691000000001 166.64605540000002,111.99372000000002 173.15095540000002,112.28998000000001 179.73145540000002,112.56814000000001 186.38395540000002,112.85184000000001 193.07905540000002,113.15073000000001 199.78895540000002,113.45075000000001 206.50295540000002,113.73617000000002 213.2253554,113.99803 219.9641554,114.23734000000002 226.7251554,114.45584000000002 233.5124554,114.65519 240.32745540000002,114.83698000000001 247.16985540000002,115.00276000000001 254.03625540000002,115.15408000000002 260.92135540000004,115.29227 267.8187554,115.41755 274.7231554,115.52988000000002 281.6305554,115.62927000000002 288.5381554,115.7158 295.4445554,115.78954000000002 302.3495554,115.85064000000001 309.2543554,115.89921000000001 316.1606554,115.93550000000002 323.0702554,115.95981 329.9840554,115.97243 336.9027554,115.97362000000001 343.82625540000004,115.96367000000001 350.75425540000003,115.94285 357.6855554,115.91145000000002 364.6189554,115.86962000000003 371.55315540000004,115.81734000000002 378.48725540000004,115.75462000000002 385.4206554,115.68145000000001 392.3530554,115.59783000000002 399.2844554,115.50375000000001 406.2152554,115.39921000000001 413.1458554,115.28412000000002 420.0765554,115.15832 427.0070554,115.02164000000002 433.9364554,114.87391000000001 440.8632554,114.71499000000001 447.7854554,114.54477000000001 454.7003554,114.36316000000002 461.60495540000005,114.17002000000002 468.4969554,113.96489000000003 475.3759554,113.74720000000002 482.24315540000003,113.51634000000001 489.10185540000003,113.27161000000001 495.95685540000005,113.01225000000001 502.8150554,112.73735000000002 509.68495540000004,112.44608000000002 516.5751554,112.13915000000001 523.4916553999999,111.81816000000002 530.4365554,111.48488 537.4086554,111.14130000000002 544.4025554,110.78966000000001 551.4086553999999,110.43248000000003 558.4136553999999,110.07239000000001 565.4018553999999,109.70951000000002 572.3614554,109.34175000000002 579.2855554,108.96678000000001 586.1724553999999,108.58209000000002 593.0246554,108.18504000000001 599.8488553999999,107.77275 606.6560554,107.34214000000001 613.4599553999999,106.89154000000002 620.2733553999999,106.42189000000002 627.1061554,105.93443000000002 633.9648554,105.43056000000001 640.8529553999999,104.91196000000002 647.7702554,104.38056000000002 654.7133554,103.83866000000002 661.6748554,103.28847000000002 668.6468553999999,102.73084000000001 675.6226554,102.16626000000001 682.5978554,101.59505000000001 689.5696554,101.01740000000001 696.5374554,100.43335000000002 703.5024553999999,99.84277000000002 710.4678554,99.24544000000002 717.4374554,98.64152000000001 724.4141553999999,98.03139000000002 731.3996553999999,97.41552000000001 738.3945554,96.79447000000002 745.3984553999999,96.16894000000002 752.4095553999999,95.53972000000002 759.4250553999999,94.90772000000001 766.4415554,94.27395000000001 773.4567554,93.63939000000002 780.4693553999999,93.00490000000002 787.4792553999999,92.37125 794.4874553999999,91.73910000000001 801.4961553999999,91.10901000000001 808.5087553999999,90.48138000000002 815.5285554,89.85599000000002 822.5579554,89.23223000000002 829.5968553999999,88.60970000000002 836.6433554,87.98814000000002 843.6937554,87.36748000000001 850.7417553999999,86.74782000000002 857.7797553999999,86.12944000000002 864.7990553999999,85.51255000000002 871.7946554,84.89704000000002 878.7658554,84.28237000000001 885.7163554,83.66768000000002 892.6538553999999,83.05173000000002 899.5899553999999,82.43289000000001 906.5406553999999,81.80920000000002 913.5231554,81.17908900000002 920.5423553999999,80.543028 927.5827554,79.903433 934.6067554,79.26474100000001 941.5582554,78.63310400000002 948.3679553999999,78.01575700000001 954.9640553999999,77.42000700000001 961.2841553999999,76.85187300000001 967.2884554,76.31463700000002 972.9625553999999,75.80921000000001 978.3098554,75.33488900000002 983.3453554,74.89000600000001 988.0897554,74.47241800000002 992.5661554,74.07982400000002 996.7976553999999,73.70995900000001 1000.8063553999999,73.36069400000001 1004.1182554,73.07296000000001" stroke="black" stroke-width="2.0" /></svg>