<?xml version="1.0" encoding="utf-8" ?>
<svg baseProfile="full" height="167.82654000000002" version="1.1" width="1012.003163777" xmlns="http://www.w3.org/2000/svg" xmlns:ev="http://www.w3.org/2001/xml-events" xmlns:xlink="http://www.w3.org/1999/xlink"><defs /><polygon fill="none" points="1004.003163777,87.37184 992.8528637770002,86.121744 976.1850637770001,84.143673 956.449463777,81.44381200000001 943.549963777,79.71229600000001 933.182163777,78.33912600000001 924.191663777,77.16147000000001 916.0972637770001,76.11144 908.6439637770001,75.15302 901.677163777,74.26438 895.0948637770001,73.43111 888.8255637770001,72.6431 882.8168637770001,71.89293 877.028763777,71.17499000000001 871.430363777,70.48487 865.996663777,69.81905 860.7075637770001,69.1747 855.546263777,68.54943 850.498663777,67.94127 845.5529637770001,67.34855 840.698863777,66.7698 835.927463777,66.20379 831.230963777,65.64943000000001 826.6026637770001,65.10575 822.036363777,64.57191 817.526763777,64.04714000000001 813.068963777,63.53078000000001 808.6584637770001,63.02220000000001 804.291363777,62.52086 799.9639637770001,62.02624 795.6729637770001,61.537890000000004 791.4151637770001,61.05539 787.187963777,60.578340000000004 782.988463777,60.10638000000001 778.8142637770001,59.63918000000001 774.663063777,59.17643000000001 770.5327637770001,58.71784000000001 766.4211637770001,58.263130000000004 762.3264637770001,57.81204000000001 758.246663777,57.364340000000006 754.1800637770001,56.91980000000001 750.125063777,56.478190000000005 746.079963777,56.03931000000001 742.043263777,55.60296000000001 738.013363777,55.16895000000001 733.9889637770001,54.73711000000001 729.9684637770001,54.30725000000001 725.9505637770001,53.879220000000004 721.933963777,53.452830000000006 717.917263777,53.027950000000004 713.8992637770001,52.60440000000001 709.8785637770001,52.182050000000004 705.8539637770001,51.760740000000006 701.8241637770001,51.340320000000006 697.7878637770001,50.92067000000001 693.743863777,50.50162 689.6908637770001,50.08306 685.6276637770001,49.664820000000006 681.5529637770001,49.246790000000004 677.4653637770001,48.82882000000001 673.363663777,48.41077000000001 669.2465637770001,47.99251000000001 665.1126637770001,47.573890000000006 660.960663777,47.154770000000006 656.7890637770001,46.73501000000001 652.5963637770001,46.31447 648.381263777,45.893 644.1421637770001,45.47044000000001 639.877363777,45.04665000000001 635.585363777,44.621460000000006 631.2644637770001,44.194720000000004 626.9128637770001,43.76624 622.5287637770001,43.33587000000001 618.110163777,42.903420000000004 613.6552637770001,42.46869 609.1616637770001,42.031510000000004 604.6273637770001,41.59165000000001 600.0500637770001,41.14891 595.427163777,40.703050000000005 590.756163777,40.25386000000001 586.0342637770001,39.80106000000001 581.2585637770001,39.34440000000001 576.425863777,38.88359000000001 571.5329637770001,38.41834000000001 566.5762637770001,37.94832000000001 561.551763777,37.47319 556.455563777,36.992580000000004 551.283163777,36.5061 546.029663777,36.01330000000001 540.6899637770001,35.513740000000006 535.258263777,35.00690000000001 529.728463777,34.492230000000006 524.093763777,33.96913000000001 518.346563777,33.43692000000001 512.478663777,32.894890000000004 506.48106377700003,32.342220000000005 500.343363777,31.777990000000003 494.054263777,31.201200000000007 487.60106377700004,30.610720000000008 480.969163777,30.005240000000008 474.14206377700003,29.383320000000005 467.101163777,28.743260000000006 459.824563777,28.083140000000007 452.287163777,27.40071000000001 444.459463777,26.693320000000007 436.306663777,25.957860000000004 427.787163777,25.190590000000007 418.85046377699996,24.386970000000005 409.435063777,23.54146 399.464163777,22.647130000000004 388.840763777,21.695170000000005 377.439663777,20.674220000000005 365.095763777,19.569209999999998 351.585363777,18.359640000000013 336.597363777,17.016880000000015 319.687163777,15.499679999999998 300.207963777,13.747489999999999 277.247763777,11.673460000000006 251.032263777,9.29016 227.13286377699998,7.136890000000008 205.960463777,5.46678 187.001963777,4.41189 169.809463777,4.0 154.086163777,4.216690000000014 139.635763777,5.012520000000009 126.324663777,6.318579999999997 114.046063777,8.064580000000007 102.732393777,10.167090000000002 92.345273777,12.541550000000015 82.84967377699999,15.124679999999998 74.194283777,17.889840000000007 66.30181377699999,20.816969999999998 59.091943777,23.887260000000005 52.504593777,27.075010000000006 46.496993777,30.348490000000005 41.033543777,33.675790000000006 36.098463777,37.0386 31.665263777,40.436640000000004 27.694503777,43.879430000000006 24.141603777,47.38018000000001 20.942413777,50.93657000000001 18.048673776999998,54.523230000000005 15.429683777,58.10078 13.063374777,61.62483 10.961213777000001,65.05272000000001 9.143168777,68.36348000000001 7.609499777,71.5584 6.352871777,74.64951 5.365512776999999,77.653418 4.642775477,80.58854000000001 4.185160777,83.47430700000001 4.0,86.33138500000001 4.101580857,89.182491 4.4887417769999995,92.04957 5.152295777,94.950686 6.091102777,97.90127000000001 7.310668777,100.91425000000001 8.821456777000002,103.99907 10.636242777,107.15893 12.764774777,110.38515000000001 15.203403777,113.64758 17.945013777,116.9033 21.001063777000002,120.12354 24.385653777,123.28861 28.122553777,126.39321000000001 32.250823777,129.44656 36.811363777,132.45715 41.844413777,135.42939 47.380383777,138.36103 53.447083777,141.23741 60.08601377699999,144.03604 67.341643777,146.73526 75.268693777,149.31493 83.93612377699999,151.74348 93.409863777,153.97969 103.741123777,155.97185000000002 114.976963777,157.64190000000002 127.18066377699999,158.89473 140.470263777,159.63899 155.027163777,159.82654000000002 171.06316377699997,159.42899 188.82526377699998,158.43481000000003 208.55816377699998,156.88465 230.442963777,154.91633000000002 254.809463777,152.77292 280.514863777,150.59583 301.568163777,148.8095 318.825463777,147.34301 333.45906377700004,146.0979 346.22106377700004,145.01084 357.591263777,144.04139 367.888363777,143.16268000000002 377.33276377699997,142.35609 386.08296377700003,141.60825 394.25636377700005,140.90923 401.94236377699997,140.25147 409.210663777,139.62908000000002 416.116563777,139.03738 422.705063777,138.47258 429.012763777,137.93156000000002 435.070263777,137.41175 440.903263777,136.91096 446.533463777,136.42735 451.979763777,135.95934 457.258063777,135.50555 462.382663777,135.0648 467.365863777,134.63604 472.218363777,134.21836000000002 476.949863777,133.81092 481.56896377699996,133.41302000000002 486.083463777,133.02399000000003 490.500063777,132.64325 494.82506377699997,132.27027 499.06426377699995,131.90458 503.222563777,131.54572000000002 507.304863777,131.19332 511.315363777,130.847 515.258063777,130.50643000000002 519.136463777,130.17129 522.9540637770001,129.84132 526.713763777,129.51623 530.4186637770001,129.19580000000002 534.071363777,128.87979 537.6741637770001,128.56799 541.2296637770002,128.26021 544.739863777,127.95626000000001 548.2067637770001,127.65597000000001 551.6323637770001,127.35917 555.0184637770001,127.06572 558.3666637770001,126.77547000000001 561.6785637770001,126.48828 564.955663777,126.20404 568.199463777,125.92261 571.4111637770001,125.64389 574.5921637770001,125.36777000000001 577.7435637770001,125.09414000000001 580.8665637770001,124.82291000000001 583.962263777,124.55398000000001 587.031663777,124.28726 590.0758637770001,124.02268000000001 593.095663777,123.76014 596.0920637770001,123.49958000000001 599.0658637770001,123.24092 602.017963777,122.98409000000001 604.9490637770001,122.72901000000002 607.8599637770001,122.47563000000001 610.751463777,122.22389000000001 613.6242637770001,121.97371000000001 616.4789637770001,121.72505000000001 619.316263777,121.47785 622.136863777,121.23205000000002 624.941163777,120.98760000000001 627.7299637770001,120.74445 630.503763777,120.50256000000002 633.263163777,120.26187000000002 636.008663777,120.02234000000001 638.740663777,119.78392000000001 641.459863777,119.54658 644.166663777,119.31026 646.8615637770001,119.07493000000001 649.5450637770001,118.84054 652.217463777,118.60707000000001 654.8794637770001,118.37446 657.531263777,118.14268000000001 660.1733637770001,117.9117 662.806263777,117.68149000000001 665.430263777,117.45199000000001 668.045863777,117.22319 670.653363777,116.99504 673.253163777,116.76751 675.845663777,116.54057 678.431263777,116.31419 681.010263777,116.08834 683.583163777,115.86298000000001 686.150163777,115.63808 688.7117637770001,115.41361 691.268263777,115.18955 693.8199637770001,114.96585 696.3672637770001,114.74249 698.910463777,114.51945 701.4499637770001,114.29668000000001 703.986063777,114.07416 706.5191637770001,113.85186 709.049563777,113.62975 711.5775637770001,113.40779 714.1036637770001,113.18597000000001 716.6280637770001,112.96425 719.151063777,112.74259 721.673263777,112.52098000000001 724.194763777,112.29937000000001 726.7159637770001,112.07773 729.2372637770001,111.85604000000001 731.759063777,111.63427000000001 734.2816637770001,111.41238000000001 736.8054637770001,111.19033 739.3308637770001,110.9681 741.8581637770001,110.74565000000001 744.387863777,110.52295000000001 746.9201637770001,110.29996 749.4557637770001,110.07665 751.994763777,109.85298 754.5377637770001,109.62892000000001 757.085163777,109.40442 759.6373637770001,109.17944 762.194863777,108.95395 764.758163777,108.72791000000001 767.327663777,108.50127 769.9038637770001,108.27398000000001 772.487363777,108.04601000000001 775.0786637770001,107.8173 777.678263777,107.58780000000002 780.286763777,107.35747 782.9046637770001,107.12625 785.5327637770001,106.89409 788.171663777,106.66092 790.8218637770001,106.42669000000001 793.4842637770001,106.19134 796.159563777,105.9548 798.848463777,105.71700000000001 801.5518637770001,105.47786 804.270563777,105.23732000000001 807.005463777,104.99528000000001 809.7576637770001,104.75166000000002 812.5279637770001,104.50638000000001 815.317563777,104.25933 818.1276637770001,104.01041000000001 820.959363777,103.75952000000001 823.8140637770001,103.50652000000001 826.693063777,103.25131 829.5980637770001,102.99374 832.5305637770001,102.73366 835.4922637770001,102.47093000000001 838.485163777,102.20536000000001 841.5112637770001,101.93678 844.5728637770001,101.66497000000001 847.672463777,101.38973 850.812663777,101.11080000000001 853.9965637770001,100.82792 857.227363777,100.54079 860.508763777,100.24909000000001 863.8449637770001,99.95243 867.2404637770001,99.65041000000001 870.700663777,99.34255 874.231263777,99.02833000000001 877.839263777,98.70712 881.5325637770001,98.37822 885.3203637770001,98.0408 889.213563777,97.69388000000001 893.2250637770001,97.33629 897.3707637770001,96.966621 901.6697637770001,96.583135 906.146363777,96.18365700000001 910.8316637770001,95.765398 915.7664637770001,95.324684 921.0065637770001,94.856504 926.631463777,94.35371 932.761563777,93.80547600000001 939.5959637770001,93.193928 947.5094637770001,92.48536800000001 957.402463777,91.59890100000001 973.2902637770001,90.17370000000001 988.9585637770001,88.76253000000001 998.1860637770001,87.95337740000001 1002.903163777,88.37776000000001" stroke="black" stroke-width="2.0" /></svg>