<?xml version="1.0" encoding="utf-8" ?>
<svg baseProfile="full" height="135.40507000000002" version="1.1" width="1012.07716444" xmlns="http://www.w3.org/2000/svg" xmlns:ev="http://www.w3.org/2001/xml-events" xmlns:xlink="http://www.w3.org/1999/xlink"><defs /><polygon fill="none" points="1004.07716444,101.58554000000001 1000.53736444,100.69394600000001 996.2695644400001,99.62290800000001 991.7862644400001,98.50242200000001 987.0697644400001,97.32879100000001 982.1024644400001,96.09842400000001 976.86796444,94.80814000000001 971.35246444,93.45561300000001 965.54836444,92.04001000000001 959.4568644400001,90.56284000000001 953.09266444,89.02887000000001 946.48746444,87.44689000000001 939.68596444,85.82879000000001 932.73836444,84.18759000000001 925.69496444,82.53593000000001 918.59906444,80.88461000000001 911.4832644400001,79.24159 904.36646444,77.61152000000001 897.25356444,75.99572 890.1422644400001,74.39374000000001 883.02966444,72.80502000000001 875.9131644400001,71.22911 868.7908644400001,69.66565000000001 861.6607644400001,68.11438000000001 854.52156444,66.57512000000001 847.37206444,65.04776000000001 840.2115644400001,63.532300000000006 833.03956444,62.028810000000014 825.85616444,60.53742000000001 818.66146444,59.05837000000001 811.45626444,57.59194000000001 804.24156444,56.13849000000001 797.01886444,54.69847000000001 789.78976444,53.27235000000001 782.55546444,51.86057000000001 775.31766444,50.463560000000015 768.07726444,49.081690000000016 760.8355644400001,47.71531000000002 753.59346444,46.364720000000005 746.35176444,45.03021000000001 739.11116444,43.71202000000002 731.8722644400001,42.41038000000002 724.6354644400001,41.12546000000001 717.40106444,39.85744000000001 710.16926444,38.606440000000006 702.94006444,37.37258 695.71346444,36.156000000000006 688.48936444,34.956980000000016 681.26756444,33.77580000000002 674.04816444,32.61277000000001 666.8310644400001,31.468190000000007 659.61636444,30.342370000000017 652.4040644400001,29.23562000000001 645.1943644400001,28.14825000000002 637.9872644400001,27.080590000000015 630.7830644400001,26.032960000000017 623.58196444,25.00567000000001 616.3841644400001,23.999040000000022 609.18996444,23.013400000000004 601.9996644400001,22.04907 594.81356444,21.106400000000008 587.63206444,20.18579000000001 580.4552644400001,19.28763000000002 573.2834644400001,18.412300000000016 566.11666444,17.560150000000007 558.95486444,16.73154000000001 551.79806444,15.926810000000017 544.64606444,15.146290000000008 537.4986644400001,14.390290000000022 530.3555644400001,13.659140000000022 523.21646444,12.953140000000005 516.08086444,12.27261 508.94816443999997,11.617850000000018 501.81796443999997,10.989160000000012 494.68956443999997,10.38675000000002 487.56246444,9.810660000000013 480.43626443999995,9.260930000000016 473.31076443999996,8.737620000000021 466.18556443999995,8.240820000000014 459.06076443999996,7.77058000000001 451.93616443999997,7.3270200000000045 444.81196444,6.91022000000001 437.68836444,6.520290000000017 430.56556444,6.157340000000019 423.44396444,5.821470000000019 416.32406444000003,5.51279000000001 409.20646444,5.231400000000008 402.09176443999996,4.977420000000009 394.98076444000003,4.751140000000021 387.87436444,4.553240000000017 380.77346444,4.384430000000009 373.67926444,4.245400000000018 366.59286443999997,4.136810000000011 359.51566443999997,4.059310000000011 352.44906444000003,4.013510000000011 345.39456444,4.0 338.35396443999997,4.019330000000025 331.32886443999996,4.072020000000009 324.32096444,4.158540000000002 317.33236444,4.2793100000000095 310.36486443999996,4.43471000000001 303.42046444,4.625080000000011 296.50136444000003,4.850930000000005 289.60976444,5.113520000000008 282.74756443999996,5.4141500000000065 275.91656444,5.754080000000016 269.11806444,6.134510000000006 262.35316444,6.556600000000017 255.62266443999997,7.021460000000005 248.92696444,7.530180000000016 242.26646444,8.083810000000014 235.64116443999998,8.683380000000014 229.05096444,9.329910000000012 222.49536444,10.024440000000013 215.97406443999998,10.767970000000005 209.48626444,11.561550000000011 203.03096443999996,12.406240000000011 196.60746443999997,13.30294000000002 190.21546444,14.252100000000013 183.85556444,15.254010000000022 177.52906443999998,16.308780000000013 171.23786443999998,17.416370000000015 164.98486443999997,18.576510000000013 158.77326444,19.78874000000002 152.60686443999998,21.05234 146.49036443999998,22.366830000000007 140.42976443999999,23.73233000000002 134.43236444,25.14845000000001 128.50666444,26.61418000000002 122.66156444,28.127870000000016 116.90626444,29.68725000000002 111.25006444,31.289470000000023 105.70196444000001,32.93118000000001 100.27029444,34.60839 94.96533444,36.31390000000002 89.80199444,38.03736000000001 84.79791444,39.76702000000002 79.97075444000001,41.49057000000001 75.33605444000001,43.19750000000001 70.90786444000001,44.88702000000001 66.69836444,46.56010000000001 62.715414439999996,48.21554000000001 58.96127444,49.85111000000001 55.43273444,51.46431000000001 52.12232444,53.05284000000001 49.02281443999999,54.61415000000001 46.123924439999996,56.14742000000001 43.41135444,57.653990000000015 40.86967444,59.136310000000016 38.483904439999996,60.597330000000014 36.24018444,62.040160000000014 34.126054440000004,63.46787000000001 32.130504439999996,64.88339 30.24384444,66.28952000000001 28.45753444,67.68892000000001 26.760994439999997,69.08461000000001 25.14288444,70.47793000000001 23.59649444,71.86668000000002 22.11825444,73.24598000000002 20.70629444,74.60950000000001 19.35936444,75.95053000000001 18.07606444,77.26287 16.85448444,78.54150000000001 15.693004440000001,79.78263000000001 14.595624440000002,80.98307000000001 13.565654440000001,82.14196000000001 12.60310744,83.26058 11.706168439999999,84.34128000000001 10.872133439999999,85.38687000000002 10.097963440000001,86.40030000000002 9.380600439999998,87.38442 8.71712944,88.34195000000001 8.104863439999999,89.27538000000001 7.54138244,90.18701000000001 7.02453244,91.07894000000002 6.55243044,91.95309000000002 6.12344344,92.81121000000002 5.73617844,93.65491600000001 5.38946944,94.48569800000001 5.08235844,95.30493700000001 4.81409114,96.113926 4.58410474,96.91388400000001 4.39202304,97.70596900000001 4.23765384,98.49129100000002 4.12098882,99.27092600000002 4.04220749,100.04593000000001 4.00168426,100.81734800000001 4.0,101.58622700000001 4.03795848,102.3536346 4.11657293,103.12065470000002 4.23599864,103.88799100000001 4.39533134,104.65583000000001 4.59383504,105.42427 4.83099414,106.19335200000002 5.10649444,106.963052 5.42021044,107.73328000000001 5.77219544,108.50387400000001 6.16267344,109.27458700000001 6.59203844,110.04508000000001 7.06085144,110.81490300000002 7.56984144,111.58347600000002 8.119906440000001,112.35006400000002 8.71211744,113.11374 9.34772344,113.87336000000002 10.02814944,114.62749000000001 10.75499644,115.37436000000001 11.530038439999998,116.11176 12.35520644,116.83696 13.23255744,117.54657000000002 14.16422444,118.23635000000002 15.152314440000001,118.90103000000002 16.19880444,119.53403000000002 17.305404440000004,120.12763000000001 18.47507444,120.67816000000002 19.71206444,121.18565000000001 21.020894440000003,121.65085000000002 22.40639444,122.07537000000002 23.87362444,122.46200000000002 25.42778444,122.81523000000001 27.07404444,123.14178000000001 28.817264440000002,123.45147000000001 30.66217444,123.75623000000002 32.61647444,124.05925000000002 34.689494440000004,124.35943 36.89089444,124.65549000000001 39.23050444,124.94591000000001 41.718274439999995,125.22906000000002 44.36414444,125.50319000000002 47.17775444,125.76656000000001 50.168284439999994,126.01752000000002 53.34530444,126.25479000000001 56.721344439999996,126.47757000000001 60.313434439999995,126.68389 64.14006444,126.87082000000001 68.21974444000001,127.03512 72.57012444000001,127.17336000000002 77.20695444,127.28212000000002 82.14321444000001,127.35825000000001 87.38831444,127.39952000000001 92.94509444,127.40507000000001 98.80786444,127.37588000000001 104.96256444000001,127.31528000000002 111.38856444000001,127.22743000000001 118.05816444,127.11369000000002 124.93536444,126.97586000000001 131.97956444,126.81691000000001 139.15046444,126.64069 146.41286444,126.45169000000001 153.74126443999998,126.25465000000001 161.12226443999998,126.05369000000002 168.54986444,125.85003 176.01876443999998,125.64410000000001 183.52396444,125.43633000000001 191.06046443999998,125.22715000000001 198.62366444,125.01702000000002 206.20906444,124.80636000000001 213.81256444,124.59550000000002 221.43026443999997,124.38454000000002 229.05516444,124.17363 236.67426444,123.96311000000001 244.28856444,123.75292000000002 251.90046443999998,123.54295000000002 259.51206444,123.33312000000001 267.12486444,123.12336000000002 274.74016444,122.91360000000002 282.35876444,122.70377 289.98116444,122.49385000000001 297.60726444,122.28379000000001 305.23276444000004,122.07369000000001 312.85546444,121.86359000000002 320.47606443999996,121.65346000000001 328.09536443999997,121.44330000000001 335.71396444,121.23310000000001 343.33236444,121.02284000000002 350.95116444,120.81254000000001 358.57056444,120.60218000000002 366.19086444,120.39177000000001 373.81246444,120.18130000000001 381.43526443999997,119.97079000000001 389.05946444,119.76024000000001 396.68486444,119.54966000000002 404.31146443999995,119.33907000000002 411.93886444,119.12848000000001 419.56586444,118.91792000000001 427.19236444,118.70739000000002 434.81856444,118.49688 442.44466444,118.28640000000001 450.07076444,118.07592000000001 457.69696444,117.86545000000001 465.32336444,117.65499000000001 472.95006443999995,117.44452000000001 480.57696444,117.23405000000001 488.20416443999994,117.02357 495.83166444,116.81309000000002 503.45926443999997,116.60259 511.08666444,116.39210000000001 518.71406444,116.18160000000002 526.34156444,115.97109000000002 533.9691644400001,115.76057000000002 541.59666444,115.55006000000002 549.22406444,115.33954000000001 556.85136444,115.12902000000001 564.4785644400001,114.91850000000001 572.1055644400001,114.70799000000001 579.73266444,114.49748000000001 587.3596644400001,114.28696000000001 594.98686444,114.07644 602.61436444,113.86592000000002 610.2417644400001,113.65539000000001 617.8686644400001,113.44488000000001 625.49506444,113.23439000000002 633.12086444,113.02392 640.7461644400001,112.81346 648.37086444,112.60302100000001 655.9950644400001,112.392593 663.6190644400001,112.182173 671.2428644400001,111.97175700000001 678.8668644400001,111.76133700000001 686.4912644400001,111.55090700000001 694.11636444,111.34045700000001 701.74246444,111.12997600000001 709.3696644400001,110.91946800000001 716.99536444,110.70900100000001 724.61886444,110.498591 732.24026444,110.28824100000001 739.85956444,110.077948 747.47716444,109.86770400000002 755.0933644400001,109.657497 762.7088644400001,109.44730900000002 770.3243644400001,109.237119 777.94096444,109.02690000000001 785.5597644400001,108.81662100000001 793.1820644400001,108.60624500000002 800.8080644400001,108.395767 808.42936444,108.18542000000001 816.04226444,107.97530200000001 823.64556444,107.76545100000001 831.2381644400001,107.55589600000002 838.81946444,107.34665100000001 846.38926444,107.13772500000002 853.94766444,106.92911200000002 861.49526444,106.72080000000001 869.03276444,106.51276400000002 876.56146444,106.304972 884.0828644400001,106.09738200000001 891.59886444,105.88994100000001 899.11156444,105.68258900000001 906.6236644400001,105.47525600000002 914.1354644400001,105.26793200000002 921.63386444,105.06097400000002 929.08826444,104.85523400000001 936.4520644400001,104.65199400000002 943.66836444,104.452824 950.6772644400002,104.25937700000001 957.42426444,104.07315900000002 963.8687644400001,103.89529200000001 969.9907644400001,103.7263259 975.78796444,103.56632230000001 981.2702644400001,103.4150115 986.45436444,103.27193020000001 991.3605644400001,103.13651920000001 996.01016444,103.00818910000001 1000.4242644400001,102.8863591 1004.07716444,102.78554000000001" stroke="black" stroke-width="2.0" /></svg>