<?xml version="1.0" encoding="utf-8" ?>
<svg baseProfile="full" height="134.21852" version="1.1" width="1012.008688395" xmlns="http://www.w3.org/2000/svg" xmlns:ev="http://www.w3.org/2001/xml-events" xmlns:xlink="http://www.w3.org/1999/xlink"><defs /><polygon fill="none" points="1004.008688395,93.15207000000001 1000.6584883950001,92.34968300000001 996.611988395,91.38406100000002 992.3518883950001,90.37164100000001 987.8590883950001,89.30859000000001 983.1144883950001,88.19110700000002 978.099388395,87.015713 972.7982883950001,85.77971900000001 967.201288395,84.48192200000001 961.308588395,83.12353000000002 955.135588395,81.70927000000002 948.717388395,80.24835000000002 942.107188395,78.75398000000001 935.365988395,77.24087000000002 928.553688395,75.72316000000001 921.721688395,74.21266000000001 914.907188395,72.71784000000001 908.1312883950001,71.24334000000002 901.3993883950001,69.79027 894.704188395,68.35701000000002 888.036188395,66.94142000000001 881.3866883950001,65.54165 874.748288395,64.15611000000001 868.114388395,62.783490000000015 861.479488395,61.42268000000001 854.838488395,60.07280000000001 848.187588395,58.73314000000001 841.523288395,57.40320000000001 834.843088395,56.082620000000006 828.145388395,54.77125000000001 821.429188395,53.46910000000001 814.694388395,52.17633000000001 807.941788395,50.89328000000001 801.173088395,49.62047000000001 794.390588395,48.35851000000001 787.597088395,47.108010000000014 780.794688395,45.86951000000001 773.9858883950001,44.64354000000001 767.172488395,43.430540000000015 760.356588395,42.23093000000001 753.539588395,41.04506000000001 746.7229883950001,39.87324000000001 739.908088395,38.71574000000001 733.0959883950001,37.57278000000001 726.2873883950001,36.444530000000015 719.482988395,35.33113000000001 712.6832883950001,34.23269000000001 705.888388395,33.149260000000005 699.098288395,32.080900000000014 692.313088395,31.027870000000014 685.532388395,29.990550000000013 678.756088395,28.96932000000001 671.983888395,27.964550000000003 665.215588395,26.976600000000005 658.450888395,26.00585000000001 651.689388395,25.05264000000001 644.930888395,24.117340000000013 638.174988395,23.200300000000013 631.421288395,22.301870000000022 624.6693883949999,21.422410000000013 617.918688395,20.562270000000012 611.168988395,19.721810000000005 604.419588395,18.90136000000001 597.670088395,18.10126000000001 590.919988395,17.321580000000026 584.168988395,16.56240000000001 577.416788395,15.823760000000007 570.663188395,15.105750000000015 563.908188395,14.40846000000002 557.1516883950001,13.731970000000018 550.393788395,13.07641000000001 543.634588395,12.441870000000009 536.874388395,11.828480000000013 530.113388395,11.236370000000008 523.352088395,10.665650000000014 516.590888395,10.116470000000021 509.83028839499997,9.588950000000011 503.071088395,9.083210000000008 496.31378839499996,8.599460000000008 489.559188395,8.138020000000012 482.80788839499996,7.699240000000017 476.060188395,7.283460000000005 469.31648839499996,6.890990000000016 462.57698839499994,6.5221500000000106 455.84168839499995,6.177230000000009 449.11068839499995,5.856530000000021 442.383688395,5.560320000000004 435.660388395,5.2889100000000155 428.94058839499996,5.042560000000023 422.223588395,4.8215800000000115 415.50878839499995,4.62624000000001 408.795588395,4.456850000000017 402.082988395,4.313710000000015 395.37018839499996,4.197100000000006 388.65628839499993,4.107210000000009 381.940988395,4.044250000000019 375.223888395,4.0084400000000215 368.505188395,4.0 361.78528839499995,4.019140000000007 355.06458839499993,4.066080000000014 348.344188395,4.141020000000012 341.625288395,4.244150000000019 334.90908839499997,4.375610000000023 328.19758839499997,4.535540000000012 321.49268839499996,4.724029999999999 314.796688395,4.941130000000015 308.111888395,5.1868300000000005 301.44128839499996,5.46108000000001 294.787588395,5.764250000000018 288.15358839499993,6.097220000000021 281.541288395,6.460910000000013 274.952188395,6.856230000000011 268.387088395,7.284050000000022 261.84638839499996,7.745290000000011 255.32978839500004,8.240860000000012 248.836688395,8.77170000000001 242.365688395,9.338810000000024 235.915388395,9.943240000000003 229.48358839500003,10.586120000000008 223.067688395,11.268660000000011 216.664788395,11.992210000000014 210.271588395,12.758220000000023 203.88418839500002,13.568300000000008 197.498488395,14.424150000000012 191.112088395,15.32707000000002 184.726588395,16.277810000000002 178.34708839500001,17.276470000000018 171.98268839500003,18.32232000000002 165.646488395,19.41374000000002 159.354488395,20.548050000000018 153.125488395,21.72156000000001 146.97978839499999,22.931450000000012 140.934188395,24.179550000000006 134.99698839500002,25.469150000000013 129.16908839500002,26.804320000000004 123.44568839499999,28.19002000000002 117.81728839499999,29.63210000000001 112.270988395,31.137580000000014 106.79068839499999,32.714860000000016 101.357448395,34.37384000000001 95.95292839499999,36.11949000000001 90.571368395,37.94734000000001 85.224498395,39.84672000000001 79.94057839499999,41.80009000000001 74.761248395,43.78544000000001 69.73206839499998,45.79130000000001 64.890718395,47.810960000000016 60.263448395,49.837440000000015 55.865038395,51.86414000000001 51.700588395000004,53.884810000000016 47.772948395,55.885810000000006 44.083228395,57.849840000000015 40.627278395,59.76411000000001 37.396888395,61.619870000000006 34.381118395,63.41172000000002 31.567408394999998,65.13687000000002 28.942468395,66.79447000000002 26.491158395,68.38974000000002 24.203678395,69.93580000000001 22.087758394999998,71.43018000000001 20.151678395,72.86229000000002 18.393418394999998,74.22340000000001 16.800538395,75.51046000000001 15.356658395,76.72471000000002 14.053568395000001,77.86728000000001 12.880041395000001,78.9436 11.821920395,79.96153000000001 10.865696395,80.92899000000001 9.999717395000001,81.85300000000001 9.214328394999999,82.73954 8.501587395,83.59362000000002 7.854976395,84.41949200000002 7.2691563949999995,85.22077700000001 6.739757395,86.00056600000002 6.2632093950000005,86.76153200000002 5.836610395,87.50601600000002 5.457621395,88.23608700000001 5.1243943949999995,88.95359800000001 4.835509695,89.66023400000002 4.589933495,90.357543 4.386991695,91.046974 4.226351495,91.72990200000001 4.108016245,92.40765800000001 4.032331005,93.08154900000001 4.0,93.75288760000001 4.012117032,94.42301646000001 4.069478125,95.09326860000002 4.171194995,95.76478600000002 4.316408395,96.43861600000001 4.504635495,97.11576300000002 4.7357431949999995,97.79720200000001 5.009933395,98.48389600000002 5.327739395,99.17681400000001 5.690034395,99.876934 6.098042395,100.58526 6.553372395,101.30282900000002 7.058047395000001,102.03071600000001 7.614557395,102.77004200000002 8.225914395,103.52196300000001 8.895732395,104.28766700000001 9.628299394999999,105.06834 10.428673395,105.86510000000001 11.302740395,106.67891000000002 12.257242395,107.51035000000002 13.299640395,108.35925000000002 14.437658395,109.22406000000001 15.678148395,110.10073000000001 17.024638395,110.98084000000001 18.480438395,111.85440000000001 20.053798395,112.71445000000001 21.751718395,113.55390000000001 23.578848395,114.36625000000001 25.537978395,115.14735000000002 27.632558395,115.89763 29.871988395,116.62432000000001 32.273968395,117.33482000000001 34.858558395,118.02864000000001 37.648558395,118.70441000000001 40.670138394999995,119.36066000000001 43.952788395000006,119.99592000000001 47.527688395000006,120.60884000000001 51.423828395,121.19844 55.660168395,121.76466000000002 60.242308394999995,122.30528000000001 65.164178395,122.81421000000002 70.39857839499999,123.28733000000001 75.90045839499999,123.72514000000001 81.61992839499999,124.13395000000001 87.51263839499998,124.51552000000001 93.537758395,124.86218000000001 99.66420839499999,125.16683 105.877288395,125.42363000000002 112.18138839499998,125.63097000000002 118.587188395,125.79345 125.102088395,125.91651000000002 131.72858839499997,126.00611 138.462388395,126.06885000000001 145.291588395,126.11218000000001 152.19468839500001,126.14438000000001 159.14008839500002,126.17343000000001 166.09198839500002,126.19882000000001 173.02008839500002,126.21547000000001 179.90318839500003,126.21852000000001 186.728588395,126.20341000000002 193.492088395,126.16592000000001 200.196488395,126.10201 206.851288395,126.00786000000002 213.470288395,125.88257000000002 220.067188395,125.72866000000002 226.654088395,125.54867000000002 233.241688395,125.34492 239.839188395,125.11968000000002 246.454688395,124.87512000000001 253.09538839500001,124.61345000000001 259.767088395,124.33690000000001 266.47468839499993,124.04775000000001 273.22168839499994,123.74844000000002 280.010588395,123.44151000000001 286.842288395,123.12967 293.716088395,122.81581000000001 300.629788395,122.50300000000001 307.579288395,122.19441 314.558888395,121.89152000000001 321.562888395,121.59407000000002 328.585888395,121.30170000000001 335.622788395,121.01396000000001 342.66838839499997,120.73042000000001 349.712188395,120.45084000000001 356.75398839499996,120.17454000000001 363.79658839499996,119.90072 370.84218839499994,119.62862000000001 377.887788395,119.35769000000002 384.92788839499997,119.08745000000002 391.96188839499996,118.81724000000001 398.989888395,118.54639 406.01268839499994,118.27420000000001 413.031488395,118.00025000000001 420.047588395,117.72461000000001 427.062088395,117.44742000000001 434.076188395,117.16882000000001 441.09078839499995,116.88894000000002 448.106688395,116.60795000000002 455.124488395,116.32598000000002 462.144788395,116.04321000000002 469.16798839499995,115.75978 476.194388395,115.47587000000001 483.22408839499997,115.19166000000001 490.25728839499993,114.90731000000001 497.29368839499995,114.62303000000001 504.3331883949999,114.33899000000001 511.375288395,114.05535 518.4197883950001,113.77212000000002 525.466188395,113.48926 532.513588395,113.20675000000001 539.560288395,112.92462 546.606088395,112.64283 553.651388395,112.36130000000001 560.696488395,112.07999000000001 567.7416883950001,111.79883000000001 574.787188395,111.51776000000001 581.8332883950001,111.23673000000001 588.880188395,110.95567000000001 595.927688395,110.67454000000001 602.974488395,110.39335000000001 610.019988395,110.11208000000002 617.0640883950001,109.83073000000002 624.106788395,109.54931000000002 631.147988395,109.26785000000001 638.187988395,108.98633000000001 645.2267883950001,108.70478000000001 652.264788395,108.42320000000001 659.302188395,108.14158 666.3393883950001,107.85993000000002 673.3767883950001,107.57824000000001 680.414988395,107.29649 687.4545883950001,107.01469000000002 694.4961883950001,106.73282 701.5404883950001,106.45086 708.5872883950001,106.16883000000001 715.630588395,105.88698000000001 722.6691883950001,105.60535000000002 729.702588395,105.32396000000001 736.731088395,105.04279000000001 743.754988395,104.76183000000002 750.774988395,104.48105000000001 757.7919883950001,104.20039600000001 764.807288395,103.91982700000001 771.8223883950001,103.63927400000001 778.8390883950001,103.35866000000001 785.859688395,103.077898 792.886388395,102.79688500000002 799.9219883950001,102.51551100000002 806.966088395,102.23379000000001 813.9987883950001,101.952515 821.0141883950001,101.67192400000002 828.010888395,101.39206800000001 834.9889883950001,101.112952 841.949388395,100.83454100000002 848.8937883950001,100.55676100000001 855.8250883950001,100.27949900000002 862.747188395,100.00260600000001 869.6645883950001,99.725896 876.583088395,99.44914400000002 883.509088395,99.172087 890.450488395,98.89441900000001 897.415988395,98.61578700000001 904.415688395,98.335789 911.449888395,98.05441400000001 918.454288395,97.77423600000002 925.429188395,97.49524100000001 932.4073883950001,97.21611400000002 939.4278883950001,96.935297 946.367888395,96.65769800000001 953.1152883950001,96.38780400000002 959.605388395,96.12820400000001 965.7923883950001,95.88072500000001 971.655388395,95.64620700000002 977.1926883950001,95.42471300000001 982.415588395,95.2158004 987.342088395,95.01873690000001 991.9940883950001,94.83265750000001 996.393888395,94.65666440000001 1000.5633883950001,94.48988450000002 1004.008688395,94.35207000000001" stroke="black" stroke-width="2.0" /></svg>