<?xml version="1.0" encoding="utf-8" ?>
<svg baseProfile="full" height="129.16394" version="1.1" width="1012.02049347" xmlns="http://www.w3.org/2000/svg" xmlns:ev="http://www.w3.org/2001/xml-events" xmlns:xlink="http://www.w3.org/1999/xlink"><defs /><polygon fill="none" points="1004.02049347,86.04678 1000.53369347,85.9224985 996.34289347,85.7563431 991.9566934700001,85.5627899 987.3603934700001,85.3383821 982.5396934700001,85.07925159999999 977.48119347,84.781143 972.17389347,84.43949599999999 966.61119347,84.04962 960.79309347,83.606991 954.72969347,83.10771199999999 948.44359347,82.549978 941.96859347,81.938915 935.34549347,81.28399999999999 928.61749347,80.596861 921.8259934700001,79.890357 915.00679347,79.177595 908.18679347,78.471099 901.3830934700001,77.782125 894.60439347,77.114458 887.8567934700001,76.462999 881.14489347,75.82206 874.4721934700001,75.18599 867.8408934700001,74.54926 861.25209347,73.90641 854.7058934700001,73.25211 848.20149347,72.58112 841.7370934700001,71.88826 835.31029347,71.16842 828.9177934700001,70.41649 822.55579347,69.62733 816.21979347,68.79572 809.90449347,67.91624999999999 803.60419347,66.98331999999999 797.31209347,65.993 791.02039347,64.94764 784.72209347,63.850809999999996 778.41039347,62.70608 772.07939347,61.51705 765.72379347,60.28742 759.3386934700001,59.02108 752.92009347,57.7221 746.4643934700001,56.394839999999995 739.96889347,55.04398 733.43159347,53.67457 726.8513934700001,52.29206 720.2282934699999,50.902319999999996 713.56319347,49.5117 706.85809347,48.12699 700.11659347,46.75519 693.34339347,45.40021 686.5437934700001,44.063109999999995 679.72299347,42.74475 672.88539347,41.44584 666.03519347,40.16694 659.17629347,38.90848 652.31189347,37.67075 645.4445934700001,36.45391 638.5765934699999,35.25799 631.7096934699999,34.08291 624.8448934700001,32.92847 617.9827934699999,31.79439 611.12349347,30.68029 604.26659347,29.58571 597.4109934700001,28.510209999999994 590.55569347,27.45373 583.6996934699999,26.416359999999997 576.84219347,25.398229999999998 569.98289347,24.399519999999995 563.12139347,23.42044 556.25769347,22.461229999999993 549.39199347,21.522170000000003 542.5247934700001,20.60356999999999 535.65679347,19.705769999999987 528.78869347,18.829099999999997 521.9216934699999,17.973950000000002 515.05719347,17.140680000000003 508.19669346999996,16.329700000000003 501.34199347000003,15.541380000000004 494.49499347,14.776269999999997 487.65729347,14.035060000000001 480.82999347000003,13.318349999999995 474.01369347,12.626709999999989 467.20859347,11.960620000000006 460.41439347000005,11.320520000000002 453.63029347,10.706820000000008 446.85519347,10.119869999999992 440.08729347,9.560029999999998 433.32469347000006,9.027630000000002 426.56479347,8.523020000000002 419.80479347,8.046530000000004 413.04119347000005,7.598529999999997 406.27039347,7.179429999999996 399.48789347,6.789600000000007 392.68939347,6.428629999999998 385.87109347,6.0956800000000015 379.03059347000004,5.789999999999992 372.16589347,5.51088 365.27659347,5.2577 358.36319347000006,5.029820000000001 351.42729347000005,4.826650000000001 344.47179347,4.647549999999995 337.50109347000006,4.491879999999995 330.52039347000004,4.358949999999993 323.53669347,4.2479999999999905 316.55779347000004,4.158199999999994 309.59279347000006,4.088630000000009 302.65179347000003,4.038319999999999 295.74559347,4.007629999999992 288.88389347000003,4.0 282.07419347,4.019050000000007 275.32149347,4.06814 268.62899347000007,4.150369999999995 261.99749347000005,4.268649999999994 255.42669347,4.425700000000006 248.91449347,4.62415 242.45739347,4.8665499999999895 236.05119347,5.155470000000008 229.69029347,5.493520000000004 223.36829347,5.883439999999993 217.07799347,6.328159999999997 210.81139346999998,6.830870000000004 204.55919346999997,7.395120000000006 198.31159347,8.024280000000005 192.05939347,8.718699999999998 185.79639346999997,9.477689999999996 179.51969347,10.300340000000006 173.22939347,11.185399999999987 166.92939346999998,12.131029999999996 160.62689347,13.134659999999997 154.33269347,14.192859999999996 148.06119346999998,15.30216 141.82789347,16.462760000000003 135.64639347,17.675930000000008 129.52769347000003,18.942790000000002 123.48049347,20.264390000000006 117.51079347000001,21.641750000000002 111.62269347,23.075919999999996 105.81849347,24.568019999999997 100.09890347000001,26.118979999999993 94.46630347,27.72645 88.92764347,29.385089999999998 83.49345347,31.088160000000002 78.17678347,32.82772 72.99357347000002,34.5993 67.97369347,36.40407 63.16254347,38.23417 58.60728347,40.07367 54.343973469999995,41.90331 50.39205347,43.704719999999995 46.75326347,45.46554 43.40411347,47.185069999999996 40.31092347,48.8692 37.43992347,50.5264 34.76074347,52.166019999999996 32.247253470000004,53.797639999999994 29.87733347,55.430949999999996 27.63124347,57.07615 25.484883470000003,58.7418 23.430453470000003,60.41888 21.48101347,62.07925 19.65556347,63.68764 17.966423470000002,65.21497 16.414243470000002,66.6454 14.995373469999999,67.97516999999999 13.71111047,69.20909 12.55307047,70.35849999999999 11.508562470000001,71.43585 10.56508847,72.45224 9.71162147,73.41701 8.93876847,74.33801 8.23879647,75.22161 7.60536447,76.073088 7.033261469999999,76.896852 6.51821447,77.69663 6.05673747,78.475608 5.64600147,79.236546 5.28373947,79.981866 4.96817077,80.713719 4.69794477,81.43404699999999 4.47210177,82.144627 4.29004567,82.847115 4.15152947,83.543076 4.05665206,84.234016 4.00586643,84.92141699999999 4.0,85.6067625 4.04026374,86.29156499999999 4.12700407,86.9771275 4.25911117,87.664349 4.43574147,88.354033 4.65642727,89.046932 4.92105077,89.743757 5.22982947,90.44518599999999 5.5833144699999995,91.151871 5.98239147,91.864439 6.4283044700000005,92.583491 6.92267247,93.309597 7.46753247,94.043285 8.06537947,94.785021 8.71922747,95.535177 9.43268047,96.29398 10.21000647,97.06142 11.05621747,97.83714 11.97713747,98.62021 12.97941147,99.40881 14.070383470000001,100.19969 15.257673469999999,100.98731 16.548063470000002,101.76248 17.94770347,102.51337 19.469183469999997,103.23495 21.128193470000003,103.92533 22.94150347,104.58487 24.92640347,105.2182 27.10032347,105.83741 29.481163470000002,106.46645 32.08882347,107.1317 34.94221347,107.83496 38.05342347,108.57043 41.423573469999994,109.32774 45.04207347,110.09208 48.89072347,110.84559 52.954983469999995,111.56977 57.24234347,112.24929 61.79185347,112.88354 66.65337346999999,113.47996 71.87452347,114.04828 77.48148347000001,114.60154 83.44720347,115.15453 89.68101347000001,115.70349 96.07557347000001,116.23454 102.54637347,116.73729 109.05519347,117.20644 115.60029347000001,117.64185 122.18489347,118.0447 128.81119347,118.41613 135.48039347,118.75720999999999 142.19239346999998,119.06900999999999 148.94579346999998,119.35256 155.73759346999998,119.60898 162.56379346999998,119.83936 169.41999347,120.04487 176.30239346999997,120.22677 183.20759346999998,120.38645 190.13289347,120.52535 197.07639347,120.645 204.03679347,120.74699999999999 211.01349347000001,120.83287999999999 218.00619347,120.90391 225.01479347,120.96126 232.03909346999998,121.00614 239.07859347,121.03978000000001 246.13289347,121.06343000000001 253.20149347,121.07834 260.28389347,121.08579999999999 267.37919347,121.08711 274.48669347000003,121.08359 281.60559347,121.07655 288.73479347,121.06737 295.87329347,121.05738 303.01999347,121.04796999999999 310.17359347,121.04034999999999 317.33279347,121.03470999999999 324.49659347,121.03084 331.66379347000003,121.02853999999999 338.83369347,121.02762 346.00529346999997,121.02785 353.17809347,121.02904000000001 360.35139347,121.03097 367.52499347,121.03344999999999 374.69839347000004,121.03625 381.87159347,121.03917999999999 389.04439347,121.04203 396.21699347000003,121.04458 403.38949347,121.04663 410.56239347,121.04801 417.73589347,121.04876999999999 424.91029347,121.04899 432.08579347,121.0488 439.26249347000004,121.04829 446.44039347,121.04757 453.61929347000006,121.04674 460.79909347,121.0459 467.97939347000005,121.04517 475.15989347,121.04464999999999 482.33989347000005,121.04444000000001 489.51899347,121.04464999999999 496.69629347,121.04539 503.87119347,121.04674 511.04269347,121.04878 518.20999347,121.05135 525.3724934700001,121.05423 532.52979347,121.05721 539.6819934700001,121.06008 546.82929347,121.06264 553.97209347,121.06468 561.1111934700001,121.06599 568.24759347,121.06636 575.38259347,121.06558000000001 582.51759347,121.06345999999999 589.65459347,121.05977 596.7954934700001,121.05431999999999 603.94269347,121.04687 611.09879347,121.03737999999998 618.26609347,121.02638999999999 625.44249347,121.01464999999999 632.60949347,121.00291999999999 639.76499347,120.99195 646.9111934700001,120.98247 654.0514934700001,120.97518 661.19039347,120.97083 668.3332934700001,120.97012 675.48679347,120.97380999999999 682.6584934699999,120.98266000000001 689.8293934700001,120.99739 696.96619347,121.01863 704.0586934700001,121.04695 711.0966934700001,121.08160000000001 718.07079347,121.11693 724.97429347,121.14641 731.80309347,121.16394 738.5554934700001,121.16382 745.23169347,121.14078 751.83369347,121.0899 758.36479347,121.00655 764.8296934699999,120.88633999999999 771.23379347,120.72503 777.5837934699999,120.51848 783.88679347,120.26253 790.15099347,119.95293000000001 796.38509347,119.58525 802.59889347,119.15476000000001 808.80269347,118.65699000000001 815.00779347,118.09241 821.2245934700001,117.46378 827.46279347,116.77360999999999 833.73129347,116.02425 840.03799347,115.21798 846.39049347,114.35705 852.79549347,113.44382999999999 859.2586934699999,112.48080999999999 865.7851934700001,111.47079 872.37879347,110.41686 879.04219347,109.32258 885.77649347,108.19203999999999 892.58099347,107.02996999999999 899.45309347,105.8418 906.38769347,104.63368 913.3756934700001,103.40974 920.3973934700001,102.17131 927.41919347,100.92188 934.3946934700001,99.66743 941.26859347,98.41602999999999 947.98269347,97.17696 954.48209347,95.959716 960.7222934700001,94.773068 966.67559347,93.624345 972.3318934700001,92.517883 977.69389347,91.45541899999999 982.77289347,90.436847 987.58489347,89.460861 992.14819347,88.525458 996.48159347,87.628276 1000.6035934700001,86.7668274 1004.02049347,86.04678" stroke="black" stroke-width="2.0" /></svg>