<?xml version="1.0" encoding="utf-8" ?>
<svg baseProfile="full" height="131.4721996" version="1.1" width="1012.02130657" xmlns="http://www.w3.org/2000/svg" xmlns:ev="http://www.w3.org/2001/xml-events" xmlns:xlink="http://www.w3.org/1999/xlink"><defs /><polygon fill="none" points="1004.02130657,102.0301 1000.6120065700001,101.55239 996.48570657,100.96763 992.13040657,100.34261000000001 987.52400657,99.6728 982.64300657,98.95325 977.4649065699999,98.17884000000001 971.96960657,97.34455 966.14400657,96.44608000000001 959.98720657,95.48084 953.5180065699999,94.4492 946.78050657,93.35599 939.83970657,92.21061 932.7682065700001,91.02473 925.63530657,89.81030000000001 918.49680657,88.5777 911.38940657,87.33449 904.32840657,86.08477 897.31050657,84.82919000000001 890.32300657,83.56617 883.35450657,82.29408000000001 876.39520657,81.01153000000001 869.4368065699999,79.71733 862.4727065699999,78.41053000000001 855.49750657,77.09038000000001 848.50720657,75.75641 841.4993065699999,74.40835000000001 834.4727065699999,73.04624000000001 827.42790657,71.67041 820.36690657,70.28151 813.2933065699999,68.88052 806.21250657,67.4688 799.1315065699999,66.04821000000001 792.05760657,64.6223 784.99730657,63.19541 777.95560657,61.771570000000004 770.93620657,60.354530000000004 763.94150657,58.94770000000001 756.97270657,57.55417 750.02990657,56.17674000000001 743.11190657,54.81791 736.21660657,53.4799 729.3409065699999,52.164730000000006 722.4807065699999,50.874200000000016 715.63090657,49.60992999999999 708.78560657,48.373419999999996 701.93790657,47.16602999999999 695.08040657,45.987350000000006 688.20670657,44.834140000000005 681.31120657,43.703140000000005 674.38960657,42.59129 667.4382065699999,41.4957 660.4547065699999,40.41364 653.43760657,39.3425 646.38690657,38.27981 639.3036065699999,37.22319 632.19000657,36.170410000000004 625.0500065699999,35.11937 617.88880657,34.0681 610.71330657,33.01481000000001 603.53160657,31.957890000000006 596.35320657,30.89703 589.18670657,29.83556 582.03900657,28.777339999999995 574.9156065699999,27.725899999999996 567.8203065700001,26.684510000000003 560.7552065699999,25.65610000000001 553.72120657,24.643339999999995 546.71750657,23.648600000000002 539.74230657,22.674000000000007 532.79250657,21.72160000000001 525.86380657,20.792900000000003 518.9509065699999,19.889700000000005 512.04740657,19.013400000000004 505.1456065699999,18.165400000000005 498.23690657,17.346800000000016 491.31280656999996,16.556200000000004 484.36620657,15.7915 477.39130657,15.051000000000016 470.38400657,14.33290000000001 463.34180657,13.635800000000003 456.26360657,12.9585 449.15050657,12.299800000000005 442.00530656999996,11.65870000000001 434.83290657,11.03410000000001 427.64040657,10.425399999999996 420.43690656999996,9.831800000000001 413.23380656999996,9.252600000000001 406.04430657,8.687100000000001 398.88320656999997,8.1353 391.76530656999995,7.600800000000007 384.70200657,7.088800000000006 377.70140657,6.603999999999999 370.76830657,6.150800000000004 363.90470657,5.732700000000008 357.10980657,5.353099999999998 350.38090657,5.014799999999994 343.71330657,4.720600000000005 337.10070657,4.472999999999999 330.53550656999994,4.274600000000007 324.00850657,4.127700000000004 317.50950657,4.035200000000003 311.02680656999996,4.0 304.54740657,4.025300000000016 298.05650656999995,4.113900000000001 291.53950656999996,4.26400000000001 284.98300657,4.4724000000000075 278.37550656999997,4.7361000000000075 271.70730656999996,5.052200000000013 264.97050657,5.4178 258.15950656999996,5.829800000000006 251.27130657,6.284700000000001 244.30580657000002,6.7786000000000115 237.26680657,7.30680000000001 230.16210657000002,7.864000000000004 223.00420657,8.444199999999995 215.81050657000003,9.040300000000002 208.60330657000003,9.644800000000004 201.40970657,10.249500000000012 194.25970657000002,10.854500000000002 187.18470657,11.4709 180.21480657,12.109500000000011 173.37780657,12.779800000000009 166.69760657,13.48960000000001 160.19390657,14.244600000000005 153.88160657,15.048699999999997 147.77060657,15.903999999999996 141.86080657000002,16.8108 136.13650657,17.771400000000014 130.57170657,18.78970000000001 125.13390657,19.872100000000003 119.78560657,21.0278 114.48440656999999,22.269400000000005 109.18020657,23.614919999999998 103.81007656999999,25.090400000000002 98.28881657,26.728449999999995 92.53670656999999,28.540900000000008 86.56377657,30.50128000000001 80.53712657,32.52050000000001 74.76226657,34.4623 69.47686656999998,36.262 64.68128657,37.94579 60.27005657,39.564750000000004 56.12150657,41.17423000000001 52.10992657,42.83742000000001 48.085116570000004,44.634180000000015 43.956306569999995,46.62281 39.80144657,48.777040000000014 35.86149657,50.95777 32.34920657,53.00677 29.30871657,54.85246000000001 26.682476570000002,56.49689000000001 24.407696570000002,57.96724999999999 22.41609657,59.29904 20.651506570000002,60.521350000000005 19.07160657,61.65611 17.64478657,62.71974 16.34733657,63.72456000000001 15.16112657,64.68002000000001 14.07208657,65.59349 13.069061569999999,66.47085000000001 12.143127569999999,67.31684000000001 11.287022570000001,68.13536 10.494778570000001,68.92965000000001 9.761450570000001,69.70246 9.08290457,70.45613 8.455670569999999,71.19269 7.876821570000001,71.91389000000001 7.34388557,72.62129000000002 6.85477257,73.31626 6.40772357,74.00005000000002 6.001265569999999,74.67377 5.63417657,75.33845 5.30546057,75.99502000000001 5.01432847,76.64436 4.76017767,77.28729000000001 4.54258567,77.92459 4.36129987,78.557 4.21623417,79.18523 4.10746819,79.80996999999999 4.03524956,80.43193000000001 4.0,81.05179000000001 4.00232488,81.67023 4.04300348,82.28798 4.12219917,82.90568 4.23925877,83.52393000000001 4.39366047,84.14328 4.58506537,84.76427000000001 4.81330817,85.38744 5.07839157,86.01331 5.38048657,86.64241000000001 5.7199285699999995,87.27527 6.09722957,87.91246000000001 6.51307757,88.55452 6.96835757,89.20206000000002 7.46415657,89.85568 8.00179557,90.51604 8.58284457,91.18384 9.20916557,91.85981000000001 9.88294557,92.54475000000001 10.60675657,93.23955000000001 11.383613570000001,93.94515000000001 12.21706257,94.6626 13.11128457,95.39305 14.07122657,96.13778 15.10278657,96.89821 16.21301657,97.67592 17.41044657,98.47264000000001 18.70541657,99.29026 20.110616569999998,100.13078 21.641646570000002,100.99616 23.31772657,101.88805 25.16219657,102.807 27.202166570000003,103.75089 29.46509657,104.71129 31.97815657,105.6731 34.77964657,106.62368000000001 37.89939657,107.54711 41.33618657,108.42571000000001 45.038886569999995,109.24953000000001 48.91656657,110.02952 52.886846569999996,110.80403000000001 56.923756569999995,111.62807000000001 61.03574657,112.50653 65.23136657,113.410116 69.52247657,114.307681 73.92542657,115.165171 78.46277656999999,115.943579 83.16682656999998,116.60527400000001 88.08165656999999,117.16052300000001 93.25058656999998,117.642245 98.70450656999999,118.09245100000001 104.44350657,118.566463 110.41320656999999,119.11294600000001 116.52010657,119.71824000000001 122.66960656999998,120.35076500000001 128.78600656999998,120.978424 134.82200657,121.572708 140.75940657,122.11027940000001 146.60420657000003,122.5724165 152.38220657,122.94326641 158.13480657,123.2096734 163.91130657000002,123.37725300000001 169.75620657,123.460451 175.70970657,123.47219960000001 181.80820657,123.4251546 188.08420657000002,123.3329587 194.56390657,123.2115284 201.26290656999998,123.08035721 208.17860657000003,122.96256785 215.28860656999998,122.86978110000001 222.55960657,122.80205380000001 229.83420657000002,122.75883900000001 237.02520657000002,122.73734900000001 244.16720657,122.7340523 251.28920657000003,122.74587000000001 258.41470657,122.769992 265.56310656999995,122.8037386 272.74970656999994,122.8444539 279.98590657,122.88942300000001 287.27880657,122.93580822 294.59050657,122.98037644 301.85040657,123.01972517 309.06530656999996,123.05126674 316.24700657,123.07468348 323.40630656999997,123.09090286 330.55280657,123.10080879 337.69460656999996,123.10524244 344.83870657,123.10501687 351.99110657,123.10092909000001 359.15670657,123.09376992 366.33920657,123.0843321 373.54150657,123.07341663000001 380.76530657,123.06183749 388.01120656999996,123.0504245 395.27840657,123.040024406 402.56520657,123.031499855 409.86860657,123.025615751 417.18460656999997,123.02232652400001 424.50980656999997,123.021214688 431.84090657,123.021853596 439.17520656999994,123.023811518 446.51000657,123.026653721 453.84340656999996,123.02994421400001 461.17380657,123.033247177 468.49980657,123.036127996 475.82060656999994,123.038153943 483.13580657,123.038894498 490.44550656999996,123.03792131 497.74980657,123.03480781 505.04970657,123.029129079 512.3461065700001,123.020775709 519.6401065700001,123.01046915 526.93260657,122.99906448 534.22370657,122.98741568 541.51370657,122.9763763 548.80220657,122.9667994 556.08870657,122.95953708 563.37210657,122.95543924 570.65140657,122.95535196 577.92480657,122.96011518 585.19050657,122.97055989 592.4463065699999,122.98750486 599.68970657,123.01175287000001 606.91790657,123.04404644 614.1281065699999,123.08356048 621.31780657,123.12748089 628.48510657,123.1729069 635.62900657,123.2169934 642.74900657,123.2569546 649.84520657,123.29006410000001 656.9181065700001,123.31365170000001 663.96920657,123.325097 671.00000657,123.3218196 678.01290657,123.3012679 685.01050657,123.2609041 691.9962065699999,123.19818760000001 698.97340657,123.11055547000001 705.94660657,122.99541477000001 712.92020657,122.85149890000001 719.8986065700001,122.6799926 726.88590657,122.4822955 733.88560657,122.2597746 740.90090657,122.01378000000001 747.93450657,121.745658 754.98860657,121.456767 762.06520657,121.148487 769.16550657,120.822231 776.2905065699999,120.479459 783.4405065699999,120.12168100000001 790.6154065699999,119.750471 797.81440657,119.36747 805.03620657,118.97439 812.2788065699999,118.57268900000001 819.5401065699999,118.163002 826.8176065700001,117.74585 834.10870657,117.32178400000001 841.4105065699999,116.891377 848.72000657,116.455231 856.03400657,116.013968 863.34920657,115.568233 870.6619065699999,115.118688 877.96840657,114.666013 885.26510657,114.210898 892.54790657,113.754041 899.81300657,113.296148 907.05620657,112.83781 914.27080657,112.37574000000001 921.4391065699999,111.90255 928.5315065699999,111.41184000000001 935.50910657,110.89882 942.3280065700001,110.36055 948.94420657,109.79602 955.31900657,109.20602000000001 961.42350657,108.59431000000001 967.24270657,107.96804 972.77490657,107.33354 978.02760657,106.69575 983.01360657,106.05838 987.74920657,105.42419000000001 992.25160657,104.79512 996.53810657,104.17251 1000.62560657,103.55725000000001 1004.02130657,103.0301" stroke="black" stroke-width="2.0" /></svg>