<?xml version="1.0" encoding="utf-8" ?>
<svg baseProfile="full" height="135.09113" version="1.1" width="1012.00974964" xmlns="http://www.w3.org/2000/svg" xmlns:ev="http://www.w3.org/2001/xml-events" xmlns:xlink="http://www.w3.org/1999/xlink"><defs /><polygon fill="none" points="1004.00974964,93.42085 1000.54614964,92.596043 996.4433496400001,91.622861 992.21854964,90.62511099999999 987.8650496399999,89.60159 983.37584964,88.551052 978.74334964,87.472225 973.9600496400001,86.363824 969.0180496400001,85.224576 963.90944964,84.053255 958.62644964,82.84872 953.16174964,81.60998 947.50874964,80.33627999999999 941.66174964,79.02714999999999 935.61714964,77.68258 929.3733496399999,76.30311 922.93184964,74.88999 916.29824964,73.44533 909.48264964,71.97224 902.5004496399999,70.47493 895.37274964,68.95873 888.12474964,67.42981999999999 880.78424964,65.89482 873.43864964,64.37245999999999 866.12664964,62.870819999999995 858.82594964,61.385419999999996 851.51814964,59.91261 844.18764964,58.449549999999995 836.82234964,56.994159999999994 829.44594964,55.55142 822.11134964,54.13175 814.82084964,52.73553 807.57194964,51.36217 800.3591496399999,50.01054 793.17434964,48.67905 786.00934964,47.36608999999999 778.85704964,46.07028999999999 771.71134964,44.79053 764.5669496400001,43.525879999999994 757.4194496399999,42.27561 750.2654496399999,41.03916999999999 743.10204964,39.816179999999996 735.92744964,38.606429999999996 728.74054964,37.40983 721.54104964,36.226479999999995 714.32964964,35.056599999999996 707.10774964,33.900529999999996 699.87784964,32.75877 692.64304964,31.63208999999999 685.40644964,30.52158 678.17094964,29.428309999999996 670.93874964,28.35324 663.71184964,27.297259999999994 656.4918496399999,26.261169999999993 649.27964964,25.245679999999993 642.07594964,24.251439999999988 634.88114964,23.27901 627.69484964,22.328919999999997 620.5167496400001,21.401629999999997 613.3458496400001,20.49754 606.18074964,19.61703999999999 599.01994964,18.76044999999999 591.8613496400001,17.927869999999984 584.70334964,17.118989999999997 577.54424964,16.333529999999996 570.38274964,15.571219999999983 563.21794964,14.831879999999998 556.0489496399999,14.115349999999992 548.87524964,13.421479999999988 541.69644964,12.750190000000003 534.51264964,12.101399999999984 527.32384964,11.475070000000002 520.13064964,10.871169999999992 512.9337496400001,10.289680000000004 505.73414963999994,9.730609999999999 498.53294963999997,9.19395999999999 491.33154964000005,8.67998999999999 484.13154964,8.189379999999986 476.93394964000004,7.722819999999999 469.74024964,7.280969999999996 462.55124964,6.864469999999997 455.36814964,6.473939999999985 448.19184964000004,6.109979999999993 441.02304964,5.77315999999999 433.86244963999997,5.464019999999991 426.71074964,5.183119999999988 419.56834964,4.930959999999985 412.43574964,4.708059999999989 405.31324964,4.514889999999994 398.20104964,4.351929999999996 391.09924964,4.219559999999987 384.00814964,4.117980000000003 376.92764964,4.047399999999996 369.85744963999997,4.008009999999999 362.79704963999995,4.0 355.74574964,4.023609999999991 348.70254964000003,4.079059999999998 341.66654963999997,4.1666000000000025 334.63614964,4.286519999999996 327.61004964,4.439139999999995 320.58634964,4.62478999999999 313.56324964,4.843890000000002 306.53854964,5.0968799999999845 299.50984963999997,5.384259999999998 292.47454964,5.70671999999999 285.43044964,6.065269999999984 278.37644964000003,6.460969999999989 271.31284964,6.8948099999999926 264.24104963999997,7.367709999999988 257.16384963999997,7.880449999999996 250.08524964,8.433660000000003 243.01074964,9.027749999999997 235.94694964,9.662899999999993 228.90164964,10.338989999999995 221.88364964000002,11.055589999999995 214.90284964,11.811949999999996 207.96954964,12.606949999999998 201.09464964,13.439139999999995 194.28944964,14.307369999999992 187.56514964000002,15.212990000000005 180.93004964,16.158079999999998 174.38934963999998,17.14466999999999 167.94524964000001,18.174800000000005 161.59774964,19.250550000000004 155.34514964000002,20.374129999999994 149.18384964,21.54786 143.10924963999997,22.774259999999998 137.11584964,24.056110000000004 131.19704964,25.396479999999997 125.34564963999999,26.798810000000003 119.55404964,28.26701 113.81364964,29.805499999999995 108.11554964,31.419399999999996 102.44978964,33.114619999999995 96.80597963999999,34.89769999999999 91.18474963999999,36.77021 85.62236963999999,38.719829999999995 80.18931964,40.71834 74.97305964,42.72568 70.05301964,44.70183 65.45069964000001,46.63003 61.132139640000005,48.51693999999999 57.04164964,50.38156 53.11591964,52.250789999999995 49.282009640000005,54.162029999999994 45.461739640000005,56.161899999999996 41.65445964,58.25807 37.95928964,60.39458 34.51633964,62.47507999999999 31.414459639999997,64.42053999999999 28.66166964,66.19988 26.221539639999996,67.81663999999999 24.059629639999997,69.28759 22.136659639999998,70.63653 20.41412964,71.8856 18.86012964,73.05270999999999 17.44924964,74.15200999999999 16.16151964,75.19454999999999 14.981169640000001,76.189 13.89565364,77.14229999999999 12.89483764,78.06003 11.97048164,78.94677999999999 11.11580164,79.80637 10.325166639999999,80.64197999999999 9.59386964,81.45633 8.91794864,82.25175999999999 8.294057639999998,83.03031 7.71935964,83.79374999999999 7.1914456399999995,84.543643 6.70827364,85.281404 6.26811464,86.008295 5.86951764,86.72546299999999 5.51127364,87.433959 5.19239164,88.134756 4.91208124,88.82875999999999 4.66973504,89.51682199999999 4.46491884,90.19975099999999 4.29736384,90.878323 4.16696214,91.553287 4.07376514,92.22537799999999 4.017985208,92.89532 4.0,93.56383559999999 4.02035031,94.23165399999999 4.07907551,94.8993917 4.17529524,95.567453 4.30821224,96.236199 4.47719684,96.905963 4.6817743400000005,97.577062 4.92161344,98.249794 5.19651964,98.924441 5.50642864,99.60127299999999 5.851405639999999,100.280547 6.231639639999999,100.962509 6.64745164,101.647393 7.09928864,102.335426 7.58773464,103.02682 8.11351564,103.72177599999999 8.67750564,104.42048 9.28074264,105.1231 9.92443764,105.82979999999999 10.60999464,106.54068 11.33903064,107.25585 12.11339764,107.97533999999999 12.935212640000001,108.69915999999999 13.806892640000001,109.42721 14.731189640000002,110.15932 15.71124964,110.89515 16.75064964,111.63423 17.85345964,112.37579 19.02431964,113.11877 20.26847964,113.8616 21.59186964,114.60208 23.00110964,115.33705 24.50342964,116.06204 26.10644964,116.77065999999999 27.81760964,117.45371 29.642939639999998,118.09805 31.58620964,118.68642 33.656449640000005,119.20667 35.86581964,119.64990999999999 38.22596964,120.00831 40.74705964,120.27683999999999 43.436869640000005,120.45563999999999 46.30036964000001,120.55308 49.34090964000001,120.58869999999999 52.563839640000005,120.59582999999999 55.98381964,120.62348 59.62826964,120.71569 63.52532964,120.88327 67.70295964,121.13329 72.18521964,121.4724 76.98339964,121.90498 82.08090964,122.42975 87.42721963999999,123.03153999999999 92.95890964,123.67837 98.61504964,124.33004 104.35424963999999,124.94381 110.16554964,125.48241999999999 116.05574964,125.93778 122.03204964,126.31287 128.10194964,126.61063999999999 134.27254964,126.83408 140.55074964,126.98633 146.94304964,127.07077 153.45504964,127.09112999999999 160.09174964,127.0516 166.85664963999997,126.95702 173.75164963999998,126.81297 180.77624963999997,126.62594999999999 187.92694964,126.40353999999999 195.19694963999999,126.15447 202.57484964,125.8887 210.04454963999999,125.61687 217.56714964,125.34459 225.04524963999998,125.07508999999999 232.48224964,124.80785 239.89424964,124.54191 247.29514964,124.27638999999999 254.69664963999998,124.01051 262.10814964,123.74355 269.53734963999995,123.47485 276.98994964,123.20382 284.46984964,122.92992 291.97824964,122.6527 299.48644964,122.37283 306.97114963999996,122.09078 314.43774964,121.80624 321.89184964,121.51928 329.33814964000004,121.23004 336.78104964,120.9387 344.22414963999995,120.64542 351.67054964,120.35041 359.12284964,120.05387999999999 366.58294964,119.75605999999999 374.05244964,119.45723 381.53204963999997,119.15767 389.02224964,118.85767999999999 396.52254963999997,118.55761 404.03224964,118.25780999999999 411.54984964,117.95864 419.07374963999996,117.66014 426.60114964,117.36233999999999 434.12584964,117.06535 441.64814964,116.76908 449.16914964,116.47335 456.68984964,116.17804 464.21104964,115.883 471.73344964,115.58809 479.25754964,115.2932 486.78374964,114.99819 494.31044964,114.70302 501.83484964,114.4077 509.35704964000007,114.11212 516.87714964,113.81626 524.39564964,113.52014 531.9126496399999,113.2238 539.42844964,112.92727 546.94364964,112.63059 554.4583496399999,112.33376999999999 561.97304964,112.03685 569.4882496399999,111.73984999999999 577.00444964,111.44281 584.52194964,111.14573999999999 592.04134964,110.84867 599.56324964,110.55162999999999 607.08824964,110.25462999999999 614.61524964,109.95773 622.13874964,109.66113999999999 629.65814964,109.36487 637.1733496400001,109.0689 644.68484964,108.7732 652.19324964,108.47773 659.6993496399999,108.18243 667.20414964,107.88726 674.70914964,107.59213 682.21594964,107.29697 689.72634964,107.00169 697.2423496399999,106.70618999999999 704.76624964,106.41037999999999 712.28744964,106.11464 719.79584964,105.81936999999999 727.29044964,105.52459999999999 734.77084964,105.23035 742.23774964,104.93659 749.6928496400001,104.64323 757.13874964,104.35018 764.5787496400001,104.05731 772.01714964,103.764423 779.45924964,103.47132599999999 786.91104964,103.17776699999999 794.37974964,102.88346 801.8736496399999,102.588077 809.3908496399999,102.291682 816.87494964,101.996507 824.31154964,101.703133 831.70024964,101.411593 839.04424964,101.12177 846.35024964,100.833416 853.62794964,100.546156 860.8902496400001,100.259496 868.15314964,99.972819 875.43584964,99.685373 882.76184964,99.396248 890.15924964,99.104342 897.6476496399999,98.80890099999999 905.0539496399999,98.516767 912.28734964,98.231523 919.3247496399999,97.954077 926.15074964,97.685034 932.7563496399999,97.424737 939.13834964,97.173313 945.29744964,96.930719 951.23804964,96.696784 956.96664964,96.471246 962.49124964,96.253782 967.8207496399999,96.044037 972.96464964,95.841634 977.9324496400001,95.646194 982.73364964,95.457342 987.3774496399999,95.27471299999999 991.87254964,95.09795799999999 996.22744964,94.9267461 1000.44994964,94.7607632 1004.00974964,94.62084999999999" stroke="black" stroke-width="2.0" /></svg>