<?xml version="1.0" encoding="utf-8" ?>
<svg baseProfile="full" height="194.60359" version="1.1" width="1012.03673571" xmlns="http://www.w3.org/2000/svg" xmlns:ev="http://www.w3.org/2001/xml-events" xmlns:xlink="http://www.w3.org/1999/xlink"><defs /><polygon fill="none" points="1004.03673571,127.4206 999.75333571,126.051096 994.6257357100001,124.420166 989.28573571,122.73142899999999 983.72203571,120.982523 977.92443571,119.17159 971.88493571,117.29756 965.5989357100001,115.36049 959.06663571,113.36203 952.2945357100001,111.30583 945.29743571,109.19791 938.09593571,107.04605 930.7144357100001,104.85888 923.1788357099999,102.64528 915.51413571,100.41364 907.74243571,98.17125 899.88053571,95.92366 891.9396357100001,93.67468 883.92903571,91.42745 875.8577357099999,89.18499 867.73473571,86.95015 859.5686357100001,84.72557 851.3671357100001,82.51365 843.13763571,80.31651 834.88643571,78.13597 826.6189357100001,75.97355 818.33983571,73.83046999999999 810.0523357100001,71.70764 801.7591357100001,69.60564 793.46143571,67.52491 785.1602357099999,65.46611999999999 776.85633571,63.42999999999999 768.5506357099999,61.417320000000004 760.24433571,59.42884000000001 751.93853571,57.465329999999994 743.63433571,55.527559999999994 735.33313571,53.616299999999995 727.03633571,51.73231 718.74523571,49.876369999999994 710.46143571,48.04921999999999 702.18653571,46.25161 693.92213571,44.48429999999999 685.66973571,42.74823000000001 677.4305357100001,41.044290000000004 669.2050357100001,39.37328000000001 660.9935357100001,37.73588000000001 652.7960357100001,36.132670000000005 644.6118357099999,34.564170000000004 636.4401357099999,33.0308 628.27953571,31.53295 620.1284357100001,30.070919999999987 611.9849357100001,28.644999999999996 603.84653571,27.25540000000001 595.71073571,25.9024 587.57463571,24.585899999999995 579.43633571,23.3056 571.2945357100001,22.06150000000001 563.1487357100001,20.85369999999999 554.9994357100001,19.682300000000012 546.8475357100001,18.547799999999995 538.6950357100001,17.45060000000001 530.54453571,16.390900000000002 522.3994357099999,15.369399999999999 514.2640357100001,14.38669999999999 506.14313570999997,13.443100000000001 498.04213571,12.539299999999997 489.96703571,11.676200000000009 481.92283571,10.85499999999999 473.91283571,10.077200000000005 465.93853571,9.343699999999998 457.99993571000005,8.655299999999997 450.09553571,8.01270000000001 442.22243571,7.416399999999996 434.37663571,6.866900000000001 426.55263571,6.364699999999999 418.74383571,5.910299999999992 410.94253571,5.504500000000007 403.13943571,5.147900000000007 395.32433571,4.841500000000011 387.48603571,4.584699999999998 379.61553571,4.376099999999994 371.70683571,4.214399999999998 363.75673571,4.098600000000005 355.76543571,4.027499999999989 347.73673571,4.0 339.67813571,4.014899999999997 331.60103571,4.070499999999996 323.52063571,4.165099999999995 315.45603571000004,4.296599999999998 307.42923571,4.462299999999999 299.46493570999996,4.6591999999999985 291.58883571,4.885800000000003 283.82453570999996,5.146799999999999 276.18903571000004,5.4472999999999985 268.69313571000004,5.791899999999998 261.34233571000004,6.184299999999993 254.13783571000002,6.62769999999999 247.07753570999998,7.125 240.15663571,7.678700000000006 233.36873571,8.2911 226.70603570999998,8.964299999999994 220.15983571,9.700599999999994 213.72073570999999,10.502200000000002 207.37903570999998,11.371700000000004 201.12463571,12.311599999999999 194.94743570999998,13.324399999999997 188.83873570999998,14.409300000000002 182.79333570999998,15.563500000000005 176.80963570999998,16.784299999999988 170.88913571,18.0681 165.03563570999998,19.411 159.25533571,20.80829999999999 153.55643571,22.254800000000003 147.94793570999997,23.7444 142.44043570999997,25.2727 137.04413570999998,26.836699999999993 131.76843571,28.433170000000004 126.62093571000001,30.058729999999997 121.60793571,31.7098 116.73403571,33.382769999999994 112.00233571,35.07405 107.41453571000001,36.78022 102.97096571,38.49799999999999 98.67081571,40.224270000000004 94.51252571,41.95484999999999 90.49485571,43.68445000000001 86.61690571,45.40785000000001 82.87768571000001,47.12008999999999 79.27583571000001,48.816599999999994 75.80943571,50.49334 72.47662571000001,52.14846999999999 69.27627571000001,53.784459999999996 66.20626571,55.403980000000004 63.26350571,57.00923 60.444155710000004,58.60207 57.743875710000005,60.18401999999999 55.157985710000005,61.756339999999994 52.68161571,63.32007999999999 50.30992571,64.87597 48.03899571,66.42334 45.86515571,67.96098 43.78443571,69.48816 41.79269571,71.00448 39.88580571,72.50986 38.059755710000005,74.00441000000001 36.31066571,75.48837 34.63485571,76.96211 33.028875709999994,78.42607000000001 31.489475709999997,79.88073 30.013625709999996,81.32661 28.598515709999997,82.76427000000001 27.241525709999998,84.19423 25.93937571,85.61724 24.68745571,87.03401 23.48190571,88.44454 22.319625709999997,89.84821 21.19813571,91.24387999999999 20.11532571,92.63007999999999 19.06945571,94.00505 18.058965710000003,95.36694 17.082425710000003,96.71387 16.13851571,98.04401 15.22598571,99.35567999999999 14.345415710000001,100.64706 13.499581710000001,101.91645 12.690440709999999,103.16297 11.919113710000001,104.38641 11.186110710000001,105.58704 10.49150771,106.76545999999999 9.835076710000001,107.92253 9.21639571,109.05921000000001 8.634923709999999,110.17659 8.09005971,111.27578 7.58118571,112.35791 7.10769271,113.42411 6.66900871,114.47549 6.26460971,115.51313999999999 5.89403471,116.53814 5.55689371,117.5515 5.25287071,118.554252 4.98173481,119.547364 4.74334191,120.53180499999999 4.53763951,121.508517 4.36467191,122.478435 4.22458641,123.442481 4.11763892,124.401581 4.04420266,125.356662 4.00477713,126.308665 4.0,127.258552 4.030661382,128.2073153 4.0975002,129.1559226 4.20016991,130.10499199999998 4.33804761,131.054967 4.51066861,132.006243 4.71771311,132.959166 4.95899531,133.914038 5.23445471,134.871116 5.54414771,135.830612 5.88824671,136.792686 6.26703071,137.757452 6.68088371,138.72496 7.130292709999999,139.69521 7.615847710000001,140.66811 8.13823071,141.64348999999999 8.69822171,142.6211 9.296689709999999,143.60053 9.93458371,144.58128 10.612927710000001,145.56266 11.33280571,146.54379 12.09534171,147.52354 12.901668710000001,148.50052 13.75289571,149.47299 14.65005571,150.43883 15.59402571,151.39543 16.585455709999998,152.33965 17.62462571,153.26772 18.71171571,154.17664 19.84732571,155.0661 21.03200571,155.93643 22.26617571,156.78822 23.550145709999995,157.6224 24.884065709999998,158.44029 26.268015709999997,159.24365 27.70198571,160.03472 29.18596571,160.81633 30.71995571,161.59190999999998 32.30485571,162.36372 33.94288571,163.13161 35.636505709999994,163.89515 37.38829571,164.65389 39.201035710000006,165.40735 41.07767571,166.15499 43.021345710000006,166.89623 45.03536571,167.63043 47.12330571,168.35691 49.288915710000005,169.07491 51.53623571,169.78361999999998 53.86955571,170.48215 56.293415710000005,171.16955 58.81314571,171.84525 61.43514571,172.5095 64.16631571,173.16282 67.01403571,173.80603 69.98601571,174.44027 73.09027571,175.06718 76.33493571000001,175.68895 79.72792571000001,176.30856 83.27673571000001,176.92948 86.98892571,177.55226 90.87198571,178.17537 94.93276571,178.79696 99.17720571000001,179.41493 103.61025571,180.02698 108.23573571,180.63058999999998 113.05653571,181.22284000000002 118.07343571000001,181.80032 123.28483571,182.35935 128.68703571,182.89616 134.27373570999998,183.40699999999998 140.03743570999998,183.8883 145.97023570999997,184.3368 152.06493571,184.74971 158.31693571,185.12475999999998 164.72553570999997,185.46015 171.29093570999999,185.75445 178.01303571,186.00639 184.89123571,186.21491 191.92423571,186.37923 199.11083570999998,186.49885 206.44903570999998,186.57358 213.93733570999999,186.60359 221.57373571,186.58945 229.35533571,186.53214 237.27833571,186.43307 245.33733571,186.29415 253.52583570999997,186.11776 261.83593571,185.90683 270.25853571000005,185.66481 278.78333571,185.39565 287.39873571000004,185.10381 296.09213571000004,184.79421 304.85043571000006,184.47212000000002 313.65953571,184.14246 322.50583571000004,183.80619000000002 331.37673571000005,183.46274 340.26123571,183.11153000000002 349.15013571000003,182.7519 358.03583571,182.38317999999998 366.91283570999997,182.00463 375.77733571,181.61545 384.62773571,181.21478 393.46413571,180.80172 402.28853571,180.37524 411.10453571,179.93430999999998 419.91703571,179.47859 428.73063571,179.00835 437.54933571000004,178.52387 446.37633571000003,178.02546999999998 455.21433571,177.51346 464.06523571,176.9882 472.93033571000007,176.45006999999998 481.81043571000004,175.89951 490.70523571,175.33698 499.61423571,174.763 508.53583571,174.17817 517.46793571,173.58294 526.40843571,172.97757 535.35533571,172.36226 544.30683571,171.73723999999999 553.26143571,171.10269 562.21783571,170.45882 571.17493571,169.8058 580.13193571,169.14381 589.0880357100001,168.47301 598.04293571,167.79353 606.99633571,167.10550999999998 615.94843571,166.409 624.89913571,165.70402 633.84873571,164.99051 642.7973357100001,164.26846 651.7449357099999,163.53784 660.6918357100001,162.7986 669.63823571,162.05072 678.58433571,161.29415 687.5302357099999,160.52886 696.47623571,159.75481 705.4225357099999,158.97195 714.3694357100001,158.1803 723.31713571,157.38016 732.2657357100001,156.57188 741.21533571,155.75581 750.16583571,154.93233 759.1170357100001,154.10183 768.06843571,153.2647 777.01983571,152.42134 785.97053571,151.57219 794.92003571,150.71767 803.86733571,149.85822 812.81173571,148.99426 821.75113571,148.12598 830.68213571,147.25364 839.59913571,146.3777 848.49493571,145.49881 857.36063571,144.6178 866.18573571,143.73567 874.95853571,142.85358 883.6665357100001,141.97282 892.29623571,141.09478 900.8340357100001,140.22091 909.26613571,139.35272 917.57703571,138.49195 925.74363571,137.641127 933.73713571,136.803467 941.5261357100001,135.982531 949.08033571,135.181848 956.37333571,134.404586 963.38563571,133.653252 970.10783571,132.929329 976.53993571,132.233278 982.68883571,131.564801 988.56573571,130.92308500000001 994.18433571,130.30698999999998 999.5599357100001,129.715197 1004.03673571,129.2206" stroke="black" stroke-width="2.0" /></svg>