<?xml version="1.0" encoding="utf-8" ?>
<svg baseProfile="full" height="161.34817" version="1.1" width="1011.998688529" xmlns="http://www.w3.org/2000/svg" xmlns:ev="http://www.w3.org/2001/xml-events" xmlns:xlink="http://www.w3.org/1999/xlink"><defs /><polygon fill="none" points="1003.998688529,83.99936000000001 1000.226088529,82.76555400000001 995.665188529,81.28773400000001 990.865288529,79.74870200000001 985.814988529,78.14731100000002 980.507688529,76.48419600000001 974.943588529,74.76230600000001 969.128188529,72.98632 963.069788529,71.16188000000001 956.777888529,69.29481000000001 950.2616885289999,67.39081000000002 943.533888529,65.45630000000001 936.6101885290001,63.49842000000001 929.508588529,61.52477000000001 922.247688529,59.54308000000001 914.8457885290001,57.56056000000001 907.3187885289999,55.58353000000001 899.682188529,53.61764000000001 891.950188529,51.668000000000006 884.135988529,49.73913000000001 876.250988529,47.83497000000001 868.305288529,45.95884000000001 860.307288529,44.113450000000014 852.2642885289999,42.30109000000001 844.182588529,40.52364000000001 836.067488529,38.782710000000016 827.923988529,37.07965000000001 819.756188529,35.41567000000001 811.567088529,33.791840000000015 803.358888529,32.20892000000001 795.132788529,30.66723000000001 786.890488529,29.16698000000001 778.634488529,27.708500000000015 770.366788529,26.292400000000008 762.0885885289999,24.919180000000004 753.799888529,23.589040000000004 745.5011885289999,22.301910000000007 737.192988529,21.057780000000015 728.876488529,19.85678 720.552588529,18.69908000000001 712.2222885289999,17.58489 703.886188529,16.51445000000001 695.544188529,15.487950000000012 687.195488529,14.50536000000001 678.840088529,13.566360000000017 670.478988529,12.670770000000019 662.113788529,11.818810000000013 653.745088529,11.010880000000014 645.372488529,10.247200000000007 636.9953885289999,9.52761000000001 628.613788529,8.851939999999999 620.228088529,8.220120000000009 611.8390885289999,7.632200000000012 603.4471885290001,7.088210000000018 595.0528885289999,6.588240000000013 586.656188529,6.132350000000017 578.257288529,5.720590000000016 569.856088529,5.352930000000001 561.453088529,5.0293000000000205 553.048888529,4.749750000000006 544.643888529,4.514410000000012 536.2375885289999,4.32341000000001 527.829588529,4.176670000000001 519.419988529,4.073910000000012 511.00998852900005,4.014960000000016 502.60068852899997,4.0 494.192188529,4.029330000000016 485.783688529,4.103030000000004 477.37488852900003,4.220880000000008 468.966488529,4.382600000000011 460.559588529,4.588170000000005 452.155088529,4.837840000000014 443.752788529,5.131820000000005 435.352188529,5.470070000000007 426.953188529,5.852480000000014 418.555988529,6.278950000000009 410.16118852899996,6.749369999999999 401.769588529,7.263650000000013 393.381888529,7.82180000000001 384.998388529,8.42392000000001 376.61898852900003,9.070150000000012 368.243488529,9.760340000000014 359.872488529,10.494220000000013 351.507188529,11.271570000000011 343.14888852900003,12.092420000000004 334.79808852900004,12.956850000000003 326.454888529,13.864800000000017 318.120088529,14.816050000000018 309.794988529,15.810280000000006 301.481288529,16.847280000000012 293.18038852899997,17.926900000000003 284.893388529,19.048870000000008 276.622188529,20.21263000000001 268.36968852900003,21.4174 260.139788529,22.66241000000001 251.936388529,23.94702000000001 243.763288529,25.27045000000001 235.624988529,26.63150000000001 227.52758852899998,28.028500000000015 219.478488529,29.45942000000001 211.486688529,30.922050000000006 203.562188529,32.41380000000001 195.71578852899998,33.93164000000001 187.960288529,35.471900000000005 180.31018852900002,37.03025000000001 172.781388529,38.60186000000001 165.390788529,40.181390000000015 158.15578852899998,41.76309000000001 151.093888529,43.34081000000001 144.223288529,44.907840000000014 137.561988529,46.45733000000001 131.125588529,47.98293000000001 124.92638852900001,49.479090000000014 118.972788529,50.941110000000016 113.268788529,52.36510000000001 107.81638852900001,53.74699000000001 102.61661852900001,55.08299000000001 97.668638529,56.37018000000001 92.968508529,57.60695000000001 88.50934852900001,58.79417000000001 84.281258529,59.93387000000001 80.272208529,61.028430000000014 76.468998529,62.08043000000001 72.85799852900001,63.09231000000001 69.425608529,64.06436000000001 66.159518529,64.99599 63.048698529,65.88709000000001 60.083058529,66.73807000000001 57.253198528999995,67.54971 54.550298528999996,68.32311000000001 51.966138529,69.05989000000001 49.493848529,69.76459000000001 47.127378529,70.44268000000001 44.860878529,71.09863000000001 42.688758529,71.73615000000001 40.605648529,72.35831000000002 38.606448529,72.96763000000001 36.686338529,73.56619 34.840738529,74.155736 33.065368529,74.737699 31.356508529,75.314064 29.716258528999997,75.90102300000001 28.149238528999998,76.52491 26.655578529,77.20294700000001 25.228858529,77.929405 23.863358529,78.69457100000001 22.555768528999998,79.49217100000001 21.304408529,80.32052000000002 20.107678528999998,81.17858400000001 18.963678529,82.06468000000001 17.870408529000002,82.97633400000001 16.826218529000002,83.91120556000001 15.829778529000002,84.8672944 14.879958529000001,85.842972 13.975765529000002,86.83677000000002 13.116231529000002,87.84726800000001 12.300389529,88.87300400000001 11.527368529,89.91259000000001 10.796387529,90.96471500000001 10.106707529000001,92.02812300000001 9.457650529,93.101622 8.848591529,94.18409000000001 8.278815529,95.27438000000001 7.747535529,96.37137000000001 7.254015529,97.47397000000001 6.797595529,98.58114 6.377753529,99.69194000000002 5.994033529,100.80542000000001 5.646015529,101.92064000000002 5.333192529,103.03666000000001 5.054886529,104.1526 4.810413529,105.26773000000001 4.599121129,106.38148000000001 4.420440329,107.49328000000001 4.273916729,108.60225000000001 4.159142529,109.70706000000001 4.075680699,110.80607 4.022891789,111.89781 4.0,112.98218000000001 4.006341385,114.06049000000002 4.041542229,115.13535000000002 4.105607029,116.2099 4.198842129,117.28624 4.321695229,118.36512000000002 4.474568029,119.44589 4.657684629,120.52690000000001 4.871189129,121.60661000000002 5.115237529,122.68383 5.390041528999999,123.75772 5.695764529,124.82772000000001 6.032514529,125.89321000000001 6.400387529,126.95347000000001 6.799461529,128.00761 7.2298595290000005,129.05465 7.691737528999999,130.09362000000002 8.185277529,131.12353000000002 8.710637529,132.14346 9.267797529,133.15254000000002 9.856691528999999,134.14991 10.477253529,135.13466 11.129424529000001,136.10585 11.813174529000001,137.06251 12.528482529000001,138.00364000000002 13.275342529000001,138.92823 14.053718529000001,139.83525 14.863528529000002,140.72367000000003 15.704728529,141.5924 16.577258529,142.44036 17.480948529000003,143.26654000000002 18.415618529,144.06993 19.381078529,144.84946000000002 20.377168529,145.60397 21.403788529,146.33224 22.460848528999996,147.03295000000003 23.548268528999998,147.7048 24.665838529,148.34661 25.813328529,148.95719000000003 26.990518529,149.53529000000003 28.197198528999998,150.0795 29.433238529,150.58833 30.698528528999997,151.06016 31.992938528999996,151.49336 33.316308529,151.88637 34.668498529,152.23746 36.049408529,152.54482000000002 37.459008529,152.80645 38.897288529,153.02020000000002 40.364258529,153.18362000000002 41.859888528999996,153.29397 43.384318529,153.34817 44.938098529,153.34335 46.522068529,153.27754 48.136848529,153.14849 49.781698528999996,152.94942 51.455568529,152.66784 53.160378529,152.29318 54.906928529,151.84086000000002 56.70792852899999,151.34008 58.571268529,150.80858 60.500738528999996,150.24673 62.500148529,149.65415000000002 64.573638529,149.03072 66.725698529,148.37662 68.961338529,147.69239000000002 71.28617852900001,146.97898 73.706758529,146.23782 76.23082852900001,145.47085 78.86789852900002,144.68053 81.62873852900002,143.86710000000002 84.52452852900001,143.02775000000003 87.567318529,142.15911 90.76991852900001,141.25739000000002 94.145388529,140.31833 97.70634852900001,139.33729 101.463678529,138.30951000000002 105.42608852900001,137.23251000000002 109.600988529,136.10654 113.994788529,134.93278 118.613288529,133.71309000000002 123.46378852900001,132.44964000000002 128.555788529,131.14350000000002 133.897388529,129.79487 139.492888529,128.40485 145.34158852899998,126.97578000000001 151.436388529,125.51186000000001 157.765788529,124.01910000000001 164.31588852899998,122.50410000000002 171.072788529,120.97338000000002 178.02238852899998,119.43290000000002 185.148788529,117.8887 192.43438852900002,116.34686000000002 199.86148852899998,114.81333000000001 207.412688529,113.29369000000001 215.07208852899998,111.79286 222.826088529,110.31499000000001 230.661688529,108.86374 238.566688529,107.44234 246.530488529,106.05377000000001 254.54458852899998,104.70056000000001 262.60248852899997,103.38463000000002 270.698788529,102.10718000000001 278.827988529,100.86921000000001 286.984588529,99.67178000000001 295.163988529,98.51613 303.36338852899996,97.40322 311.581188529,96.33353000000001 319.815888529,95.30723 328.065488529,94.32455000000002 336.327988529,93.385895 344.602188529,92.49171400000002 352.887888529,91.64228200000001 361.185288529,90.83764400000001 369.494388529,90.07781700000001 377.815288529,89.36287700000001 386.148188529,88.69294200000002 394.49468852900003,88.06808600000001 402.85658852899996,87.48828100000001 411.235388529,86.95348000000001 419.631888529,86.46377100000001 428.04788852900003,86.01964000000001 436.489788529,85.621626 444.967988529,85.26980600000002 453.490588529,84.96325970000001 462.058788529,84.7012928 470.671688529,84.48603210000002 479.347088529,84.32252410000001 488.130588529,84.2142773 497.076088529,84.1511619 506.208588529,84.11646170000002 515.5145885290001,84.09740591 524.965288529,84.09026185 534.5328885289999,84.09185209 544.1935885290001,84.09863109000001 553.9287885289999,84.10678560000001 563.7267885289999,84.11239700000002 573.581988529,84.11377130000001 583.4902885289999,84.111816 593.4467885290001,84.1076153 603.446288529,84.10229070000001 613.482888529,84.09699596000002 623.5500885289999,84.09274721000001 633.641788529,84.0895957 643.752288529,84.08722699 653.877188529,84.08532056000001 664.0127885290001,84.08355211000001 674.1565885289999,84.08159844000001 684.307188529,84.07930517000001 694.462888529,84.07675782000001 704.6221885289999,84.07406046000001 714.783388529,84.07131754000001 724.944588529,84.06863369000001 735.1035885289999,84.06609508000001 745.258488529,84.06368658000001 755.407188529,84.06135848000001 765.547688529,84.05906115 775.678188529,84.05674516 785.796888529,84.05436223000001 795.9015885289999,84.05189521000001 805.987588529,84.04936603000002 816.047188529,84.04679969000001 826.069888529,84.04422174000001 836.042288529,84.04165799 845.9489885290001,84.03913102000001 855.773688529,84.03664517000001 865.5011885289999,84.03419822000001 875.117588529,84.03178786000001 884.610788529,84.02941172000001 893.969788529,84.02706739000001 903.183888529,84.02475434000002 912.228888529,84.02247938000001 921.062188529,84.02025449000001 929.631288529,84.01809418 937.882688529,84.01601298000001 945.7710885289999,84.01402319 953.265188529,84.01213341 960.351588529,84.01034711000001 967.036288529,84.008662713 973.337888529,84.00707539700001 979.281788529,84.00557868400001 984.895988529,84.00416545200001 990.208388529,84.00282857900001 995.245688529,84.00156128200001 1000.032588529,84.00035729190002 1003.998688529,83.99936000000001" stroke="black" stroke-width="2.0" /></svg>