<?xml version="1.0" encoding="utf-8" ?>
<svg baseProfile="full" height="171.12304" version="1.1" width="1012.1839275" xmlns="http://www.w3.org/2000/svg" xmlns:ev="http://www.w3.org/2001/xml-events" xmlns:xlink="http://www.w3.org/1999/xlink"><defs /><polygon fill="none" points="1004.1839275,108.3015 1000.3954275,107.7520497 995.7749275,107.07803200000001 990.8618275,106.35660800000001 985.6356275,105.583884 980.0833275,104.756898 974.2050274999999,103.874592 968.0185275,102.938596 961.5542275,101.95256900000001 954.8476274999999,100.921137 947.9309274999999,99.84857000000001 940.8275275,98.737866 933.5598275,97.59191 926.1520274999999,96.41393000000001 918.6276274999999,95.20728 911.0091275,93.97535 903.3156275,92.72125 895.5629275,91.44756000000001 887.7624275000001,90.15618 879.9232274999999,88.8486 872.0526275000001,87.52599000000001 864.1555275,86.18941000000001 856.2365275000001,84.83996 848.2993274999999,83.47874 840.3477275,82.10668000000001 832.3843274999999,80.72429 824.4103275,79.33184 816.4261275,77.92954 808.4315274999999,76.51784 800.4268275,75.09732 792.4127275,73.66858 784.3898275,72.23212000000001 776.3586275,70.7884 768.3193275,69.33783 760.2720275,67.88079 752.2167275,66.41767000000002 744.1533274999999,64.94890000000001 736.0819275,63.47502 728.0030275,61.996660000000006 719.9172275,60.514480000000006 711.8256275,59.02926 703.7300274999999,57.54189000000001 695.6326275,56.05346 687.5358275,54.565180000000005 679.4427275,53.07831000000001 671.3563275,51.59396 663.2791275,50.113110000000006 655.2132275,48.636810000000004 647.1605275,47.16621 639.1218275,45.702360000000006 631.0982275,44.24624 623.0902275,42.798770000000005 615.0987275,41.36089000000001 607.1243275,39.93356 599.1676275,38.51769999999999 591.2290274999999,37.11425000000001 583.3093275,35.72420000000001 575.4095275,34.34859 567.5305275000001,32.98865000000001 559.6722275000001,31.645520000000005 551.8344275000001,30.320060000000012 544.0174274999999,29.013040000000004 536.2228275,27.725459999999998 528.4522275,26.458849999999998 520.7058274999999,25.21466000000001 512.9828275,23.993870000000015 505.2834275,22.797169999999994 497.60902749999997,21.625590000000003 489.96152749999993,20.480720000000005 482.3412275,19.364140000000006 474.7475275,18.276920000000004 467.18042749999995,17.219920000000002 459.64072749999997,16.19417 452.1298275,15.200990000000004 444.64852749999994,14.241690000000006 437.1974275,13.317589999999996 429.7767275,12.429959999999994 422.3866275,11.579960000000014 415.02762749999994,10.768569999999997 407.7008275,9.996899999999997 400.4073275,9.266409999999993 393.14772750000003,8.578549999999993 385.9216275,7.9345 378.72902750000003,7.335400000000007 371.5700275,6.782000000000011 364.4452275,6.275499999999994 357.3553275,5.816699999999997 350.3012275,5.407000000000011 343.2831275,5.047399999999996 336.3010275,4.739100000000008 329.35502749999995,4.483099999999993 322.4450275,4.280300000000011 315.57122749999996,4.131600000000006 308.73362749999995,4.037900000000008 301.9322275,4.0 295.16722749999997,4.018900000000002 288.4386275,4.095300000000009 281.74602749999997,4.230199999999996 275.0890275,4.424300000000002 268.4674275,4.6780000000000115 261.88142750000003,4.992100000000008 255.33102750000003,5.367000000000004 248.8164275,5.803700000000006 242.3371275,6.302800000000005 235.8925275,6.865100000000012 229.4816275,7.490700000000004 223.1048275,8.179800000000014 216.7629275,8.932390000000012 210.45662750000002,9.749210000000005 204.1855275,10.63085000000001 197.9493275,11.57723 191.7487275,12.588040000000007 185.58512750000003,13.66295000000001 179.4603275,14.801630000000003 173.37592750000002,16.003500000000003 167.3343275,17.26767000000001 161.33872750000003,18.592960000000005 155.3928275,19.977760000000004 149.50112750000002,21.420090000000002 143.6689275,22.91707000000001 137.9036275,24.46498000000001 132.21402750000001,26.05976000000001 126.6098275,27.697000000000003 121.1013275,29.37181000000001 115.69962749999999,31.07887000000001 110.4157275,32.81226000000001 105.26122749999999,34.565920000000006 100.24702749999999,36.33346 95.3833475,38.108419999999995 90.6792775,39.88470000000001 86.14220749999998,41.65625 81.7776875,43.41742000000001 77.5897375,45.16288 73.5804975,46.887660000000004 69.75039749999999,48.58776 66.0982075,50.26001 62.620827500000004,51.90173 59.3138975,53.5111 56.172137500000005,55.08693 53.1893275,56.628370000000004 50.3586175,58.135090000000005 47.6730875,59.60741 45.125577500000006,61.04580000000001 42.7087475,62.45089 40.4154275,63.82363 38.2389075,65.16533000000001 36.172587500000006,66.47725 34.2099875,67.76063 32.3449975,69.01674 30.5722375,70.24714 28.8865875,71.45328 27.2831275,72.63647 25.7571675,73.7979 24.3045075,74.93883000000001 22.921557500000002,76.06067999999999 21.604847499999998,77.16474000000001 20.3509975,78.2522 19.156747499999998,79.32416 18.0191875,80.38163 16.9361575,81.42575000000001 15.905667499999998,82.45750000000001 14.9257575,83.47773000000001 13.9945355,84.48719 13.110139499999999,85.48649 12.2711885,86.47629 11.4768025,87.4573 10.725979500000001,88.43031 10.0176135,89.39613 9.3505455,90.35555000000001 8.723615500000001,91.30937 8.1361095,92.25819 7.5880215,93.20218 7.079413499999999,94.14129 6.610305499999999,95.07529000000001 6.1806415,96.00382 5.7902675,96.92642000000001 5.4390265,97.8424 5.1268843,98.750845 4.8535754,99.651447 4.6186995,100.544514 4.4218635,101.430831 4.26279204,102.311564 4.1413725,103.188154 4.0572525,104.06161200000001 4.0101079,104.932559 4.0,105.80161600000001 4.0273816,106.669424 4.09311451,107.5366643 4.1985071,108.4040727 4.3449051,109.2725004 4.5328093,110.142793 4.7628241,111.01540700000001 5.0357913,111.890307 5.3526865,112.766886 5.7144845,113.64385300000001 6.1219465,114.51923500000001 6.5751455,115.391535 7.0737615,116.259753 7.6173405,117.122951 8.2053335,117.98025700000001 8.8371265,118.83089000000001 9.512103499999998,119.67417 10.2302635,120.51002 10.9922755,121.33885000000001 11.7988055,122.16112000000001 12.6504405,122.97725 13.5476345,123.78765 14.4906375,124.59270000000001 15.479777499999999,125.39269 16.516357499999998,126.18788 17.6019075,126.97856 18.7379775,127.76514 19.926097499999997,128.54813000000001 21.1677775,129.32817 22.464577499999997,130.10604 23.818927499999997,130.88225 25.2338375,131.65714 26.7125275,132.43114 28.258307499999997,133.20482 29.8746275,133.97886 31.565007499999997,134.75413 33.3336075,135.53116 35.1853475,136.31018 37.1254575,137.09146 39.1594775,137.87542000000002 41.2932075,138.66266000000002 43.5327775,139.45392 45.8851675,140.24945 48.35803750000001,141.04918 50.9593875,141.85308 53.697477500000005,142.66126 56.5807675,143.47398 59.6182575,144.29108000000002 62.8193775,145.11176 66.1933675,145.93513000000002 69.7491175,146.76033 73.49506749999999,147.58659 77.4393875,148.41236 81.5891675,149.2355 85.9498275,150.05382 90.5250275,150.86526 95.3170075,151.6674 100.3258275,152.45715 105.5487275,153.23147 110.9804275,153.98773 116.6142275,154.72326 122.4412275,155.43496 128.4506275,156.12016 134.6306275,156.77691 140.96952750000003,157.40343000000001 147.45502750000003,157.998 154.0743275,158.55949 160.81512750000002,159.08739 167.66642750000003,159.58124 174.6172275,160.0406 181.65752750000001,160.46552 188.77822749999999,160.85642 195.97172750000001,161.21370000000002 203.2309275,161.53773999999999 210.5492275,161.82918 217.92092750000003,162.08887000000001 225.3412275,162.31758000000002 232.8057275,162.51599 240.3104275,162.68485 247.8516275,162.82505 255.42612750000004,162.93747000000002 263.0312275,163.02278 270.6643275,163.08166 278.3234275,163.11482 286.00672749999995,163.12304 293.7126275,163.10704 301.4399275,163.06746 309.1871275,163.00496 316.9529275,162.92024 324.7359275,162.814 332.5348275,162.68684000000002 340.34842749999996,162.53924 348.1757275,162.37166000000002 356.01582749999994,162.18460000000002 363.8681275,161.97854999999998 371.73202749999996,161.75399 379.6072275,161.51135 387.4931275,161.25104000000002 395.38922749999995,160.97351 403.2952275,160.6792 411.2103275,160.36855 419.1343275,160.04194 427.0665275,159.69972 435.0065275,159.3422 442.95392749999996,158.96976 450.9084275,158.58272 458.86962750000004,158.18144 466.83732749999996,157.76621 474.81122750000003,157.33729 482.7910275,156.89497 490.7763275,156.43951 498.76712749999996,155.9712 506.7629275,155.49033 514.7635275,154.99712 522.7688275,154.4918 530.7784274999999,153.97457 538.7922275,153.44565 546.8099275000001,152.90525 554.8315275,152.35358000000002 562.8567274999999,151.79086 570.8855275,151.21726 578.9178275,150.63296 586.9534275000001,150.03815 594.9922274999999,149.43299000000002 603.0343275,148.81767 611.0796275,148.19236 619.1281275,147.55723 627.1797275,146.91243 635.2343275,146.25812000000002 643.2917275,145.59446 651.3517274999999,144.9216 659.4140275,144.23973 667.4783275,143.54903000000002 675.5441275,142.84966 683.6110275,142.14179000000001 691.6788275,141.42553 699.7477274999999,140.70098000000002 707.8176275,139.96823 715.8890275,139.22735 723.9624275,138.4784 732.0386275,137.72141 740.1184275,136.95639 748.2021275,136.18341 756.2895275000001,135.40259 764.3796275,134.61414000000002 772.4706275,133.81832 780.5601274999999,133.01549 788.6451275,132.20605 796.7218275,131.39053 804.7860274999999,130.56944 812.8349274999999,129.74321 820.8670275,128.91207 828.8826275,128.07611 836.8836275,127.23524 844.8733275,126.38921 852.8568274999999,125.53758 860.8403275,124.67975000000001 868.8313274999999,123.81497 876.8330275,122.94297 884.8388275,122.06452 892.8319275,121.18156 900.7857275,120.29716 908.6651274999999,119.41543 916.4293275,118.54121 924.0351274999999,117.679731 931.4405274999999,116.83614700000001 938.6094275,116.01505800000001 945.5161274999999,115.219874 952.1470274999999,114.45261400000001 958.4988275,113.714139 964.5756275,113.00443200000001 970.3863275,112.322851 975.9432274999999,111.668351 981.2603274999999,111.039642 986.3521275,110.435317 991.2331274999999,109.853927 995.9176275,109.29403980000001 1000.4190275,108.7542754 1004.1839275,108.3015" stroke="black" stroke-width="2.0" /></svg>