<?xml version="1.0" encoding="utf-8" ?>
<svg baseProfile="full" height="108.182182" version="1.1" width="1011.9997112892" xmlns="http://www.w3.org/2000/svg" xmlns:ev="http://www.w3.org/2001/xml-events" xmlns:xlink="http://www.w3.org/1999/xlink"><defs /><polygon fill="none" points="1003.9997112892,85.23975 1001.3852112892001,83.85277099999999 998.1943112892001,82.38980099999999 994.7799112892001,81.05848 991.0960112892001,79.84317999999999 987.0796112892,78.71942 982.6666112892001,77.65641 977.8104112892,76.61966 972.4971112892,75.56654999999999 966.7951112892,74.44261 960.8522112892,73.24587 954.8019112892001,72.00469 948.6996112892001,70.73362999999999 942.5464112892,69.43588 936.3437112892,68.1146 930.1002112892,66.7747 923.8290112892,65.42213 917.5417112892,64.06255999999999 911.2468112892,62.701049999999995 904.9497112892001,61.34152999999999 898.6540112892001,59.985929999999996 892.3625112892,58.63568 886.0773112892,57.29203 879.7996112892,55.95612 873.5299112892001,54.62920999999999 867.2682112892,53.31252 861.0143112892,52.00719999999999 854.7672112892001,50.71424 848.5258112892,49.43439 842.2891112892,48.168139999999994 836.0559112892,46.915989999999994 829.8253112892,45.678459999999994 823.5963112892,44.45604999999999 817.3680112892001,43.24908 811.1397112892,42.057719999999996 804.9112112892001,40.88217999999999 798.6822112892,39.72271 792.4527112892,38.579629999999995 786.2230112892,37.45326 779.9932112892001,36.34395 773.7633112892,35.252039999999994 767.5333112892,34.17782 761.3030112892001,33.121579999999994 755.0718112892,32.08355999999999 748.8395112892001,31.06384 742.6057112892,30.062459999999994 736.3699112892,29.079469999999993 730.1319112892,28.114929999999994 723.8913112892,27.168879999999987 717.6479112892,26.241379999999992 711.4014112892,25.332369999999983 705.1518112891999,24.4418 698.8992112892,23.56962999999999 692.6438112892,22.715869999999995 686.3859112892001,21.88051 680.1260112891999,21.063599999999994 673.8644112892,20.26527999999999 667.6014112892,19.485680000000002 661.3371112892,18.724919999999997 655.0715112892,17.983069999999998 648.8042112892,17.26021 642.5350112892,16.556359999999998 636.2636112892001,15.871449999999996 629.9897112892,15.205389999999994 623.7133112892,14.558119999999988 617.4343112892001,13.929579999999987 611.1529112892,13.319739999999996 604.8693112892,12.728579999999994 598.5837112892,12.156130000000005 592.2964112892,11.602429999999998 586.0076112892001,11.067509999999999 579.7176112892,10.55140999999999 573.4265112892,10.054159999999996 567.1347112892001,9.575789999999998 560.8422112892,9.116379999999992 554.5492112892001,8.676000000000002 548.2556112892,8.254729999999995 541.9614112892,7.852629999999991 535.6664112892,7.469760000000008 529.3704112892,7.106179999999995 523.0731112892,6.7619299999999924 516.7746112892,6.437059999999988 510.4753112892,6.131619999999998 504.1756112892,5.8456899999999905 497.8764112892,5.579340000000002 491.57881128919996,5.332669999999993 485.28371128919997,5.105990000000006 478.9917112892,4.899669999999986 472.7030112892,4.714079999999996 466.41691128919996,4.549549999999996 460.1326112892,4.406419999999997 453.8486112892,4.284989999999993 447.56341128919996,4.185270000000003 441.2759112892,4.10705999999999 434.9861112892,4.050219999999996 428.69451128919997,4.014579999999995 422.4025112892,4.0 416.11231128919997,4.0063300000000055 409.82631128919996,4.033909999999992 403.5462112892,4.0833900000000085 397.27291128919995,4.155379999999994 391.00611128919996,4.250500000000002 384.74501128919997,4.369389999999996 378.4877112892,4.512689999999992 372.2320112892,4.6806100000000015 365.97651128919995,4.873100000000008 359.7205112892,5.090109999999996 353.4645112892,5.331569999999985 347.2096112892,5.597340000000003 340.9580112892,5.8873200000000026 334.7121112892,6.201920000000001 328.47361128919994,6.541740000000004 322.2437112892,6.907449999999997 316.02271128919995,7.299710000000005 309.81021128919997,7.719229999999996 303.6051112892,8.166709999999995 297.4062112892,8.642569999999992 291.2129112892,9.147169999999988 285.0248112892,9.680850000000007 278.8421112892,10.243909999999985 272.6654112892,10.836609999999993 266.4958112892,11.459319999999991 260.3343112892,12.112589999999983 254.18221128919998,12.796929999999989 248.0408112892,13.512849999999986 241.9116112892,14.260789999999986 235.7958112892,15.041259999999994 229.6948112892,15.85512 223.60961128920002,16.703360000000004 217.5407112892,17.587009999999992 211.4883112892,18.507149999999996 205.45201128920002,19.464889999999997 199.4316112892,20.461309999999997 193.42731128920002,21.497349999999997 187.4399112892,22.573859999999996 181.4707112892,23.69153 175.52171128920003,24.85096 169.5948112892,26.05287 163.69111128920002,27.29837 157.81011128920002,28.58882 151.9502112892,29.925949999999993 146.1082112892,31.311699999999995 140.2802112892,32.74715 134.46231128920002,34.232839999999996 128.65121128919998,35.76933 122.84381128919999,37.35721 117.03701128919998,38.99641999999999 111.22571128919999,40.68566 105.40231128919999,42.42427 99.55664128919999,44.212559999999996 93.67591128919999,46.05105999999999 87.75366128919998,47.93589 81.8000412892,49.85694 75.84443128919999,51.79745 69.93446128919999,53.74126 64.1239612892,55.679669999999994 58.4612212892,57.60480999999999 52.988441289200004,59.51222 47.7569612892,61.40309 42.8231412892,63.27135 38.231281289200005,65.10663 34.0052412892,66.9036 30.1436012892,68.66011999999999 26.6270612892,70.37527 23.445961289200003,72.04093 20.6216412892,73.62824 18.161371289199998,75.10828 16.0399012892,76.46919 14.2143912892,77.72265999999999 12.6352162892,78.89003 11.256866289200001,79.98965 10.0426102892,81.03575 8.9642512892,82.039158 8.008484289200002,83.008589 7.1730882892,83.94811399999999 6.4545202891999995,84.85777999999999 5.8463102892,85.73641599999999 5.3395362892,86.583057 4.9239175892,87.397468 4.5909402892,88.17911699999999 4.3360468892,88.928473 4.1544102892,89.65057499999999 4.0426339592,90.35257949999999 4.0,91.04263116 4.0283989092,91.7293624 4.1278347892,92.417897 4.2999489892,93.10973 4.5496536892,93.80341 4.8843449892,94.49339499999999 5.3121932892,95.169102 5.8379582892,95.82295099999999 6.4637072892,96.45037099999999 7.1898452892,97.046493 8.0147712892,97.60619299999999 8.9345532892,98.124147 9.9429582892,98.594876 11.0408492892,99.013633 12.240723289200002,99.376344 13.5587282892,99.678446 15.0148312892,99.914976 16.633291289200002,100.081149 18.442211289200003,100.173419 20.4798212892,100.182182 22.7994512892,100.089905 25.4671812892,99.87941699999999 28.5615812892,99.542216 32.167641289200006,99.081744 36.3545612892,98.48523 41.1244012892,97.754363 46.402461289200005,96.92084799999999 52.0694512892,96.018191 57.975321289200004,95.080754 64.0128512892,94.137277 70.13411128919999,93.19939 76.30874128919999,92.27270899999999 82.5201912892,91.3603253 88.76193128919999,90.4622885 95.0284112892,89.577643 101.31340128919999,88.705427 107.61041128919999,87.845204 113.9143112892,86.997413 120.2223112892,86.162296 126.5336112892,85.339776 132.84931128920002,84.529388 139.17061128920002,83.73044999999999 145.49841128920002,82.942337 151.8329112892,82.16449 158.1736112892,81.396478 164.5199112892,80.63808 170.8702112892,79.88914 177.2224112892,79.14959999999999 183.57371128920002,78.41951 189.9215112892,77.69955999999999 196.2642112892,76.99068 202.6016112892,76.29365999999999 208.9347112892,75.60914 215.26571128920003,74.93751999999999 221.5969112892,74.27864 227.9300112892,73.63224 234.2655112892,72.99817999999999 240.6031112892,72.37639999999999 246.9414112892,71.76698999999999 253.2789112892,71.17035 259.6145112892,70.58695 265.9478112892,70.01719 272.2789112892,69.46141 278.6086112892,68.91987999999999 284.9381112892,68.39269999999999 291.26831128919997,67.87979999999999 297.5997112892,67.38118 303.93211128919995,66.89686999999999 310.26541128919996,66.42690999999999 316.5986112892,65.97142 322.9311112892,65.53063999999999 329.2623112892,65.1048 335.5925112892,64.69408999999999 341.9221112892,64.29867999999999 348.25201128919997,63.91873 354.5835112892,63.55419 360.9175112892,63.20484999999999 367.25451128919997,62.87047 373.5943112892,62.55087999999999 379.9362112892,62.24589999999999 386.27901128919996,61.9554 392.6212112892,61.67949 398.96181128919994,61.41847 405.3003112892,61.1726 411.63681128919995,60.942119999999996 417.9721112892,60.727259999999994 424.3077112892,60.528209999999994 430.6451112892,60.34484 436.98571128919997,60.1768 443.32991128919997,60.023759999999996 449.6776112892,59.88543 456.02811128919996,59.761509999999994 462.3798112892,59.65172 468.7312112892,59.55611999999999 475.08081128919997,59.47493 481.42811128919993,59.40839 487.7732112892,59.35670999999999 494.11681128920003,59.32011 500.4602112892,59.29877 506.80531128919995,59.292609999999996 513.1532112892,59.301289999999995 519.5045112892,59.32449 525.8591112892,59.36188 532.2162112892,59.41313999999999 538.5743112892001,59.47792 544.9315112892,59.55623 551.2864112892,59.6483 557.6383112892,59.754419999999996 563.9870112892,59.874849999999995 570.3331112892,60.00986999999999 576.6777112892,60.159789999999994 583.0225112892,60.3246 589.3688112892,60.504039999999996 595.7175112892,60.697829999999996 602.0689112892001,60.90568 608.4232112892,61.12728 614.7796112892,61.36233 621.1373112891999,61.61059999999999 627.4955112892001,61.87206 633.8535112892,62.146629999999995 640.2108112892,62.434259999999995 646.5671112892,62.73492999999999 652.9224112892,63.04857 659.2766112892001,63.37519999999999 665.6300112892001,63.714839999999995 671.9824112892001,64.06752 678.3341112892,64.43325999999999 684.6849112892,64.81209 691.0350112892,65.20403999999999 697.3843112892,65.60907 703.7329112892,66.02711 710.0810112892001,66.45811 716.4291112892,66.90202 722.7775112892001,67.35878 729.1269112892,67.82836999999999 735.4777112892,68.31063 741.8301112892001,68.80536 748.1841112892,69.31228999999999 754.5388112892,69.83114 760.8934112892,70.36158 767.2465112892,70.90334999999999 773.5969112892,71.45649 779.9442112892001,72.02116 786.2887112892,72.59755999999999 792.6314112892001,73.18596 798.9738112892001,73.78669 805.3180112892001,74.39971 811.6650112892,75.02471 818.0149112892001,75.66129 824.3670112892,76.30892999999999 830.7194112892,76.96705999999999 837.0699112892,77.63532 843.4172112892,78.31375 849.7615112892,79.00255999999999 856.1043112892,79.70206999999999 862.4487112892001,80.41275 868.7977112892,81.134517 875.1524112892,81.866779 881.5112112892,82.608629 887.8696112892001,83.35884 894.2215112892,84.11658 900.5620112892001,84.88229899999999 906.8897112892,85.656947 913.2067112892,86.44188199999999 919.5170112892,87.238816 925.8183112892001,88.04889899999999 932.0979112892,88.871856 938.3327112892,89.706087 944.4996112892001,90.55266739999999 950.5969112892001,91.41746289999999 956.6471112892001,92.30937999999999 962.6774112892,93.22838999999999 968.6476112892001,94.15033299999999 974.4307112892001,95.036124 979.8763112892,95.828882 984.8883112892,96.482976 989.4442112892,96.972657 993.5972112892,97.271541 997.4342112892,97.371971 1001.0296112892,97.271585 1003.9997112892,97.01975" stroke="black" stroke-width="2.0" /></svg>