<?xml version="1.0" encoding="utf-8" ?>
<svg baseProfile="full" height="271.89965" version="1.1" width="1012.4615157" xmlns="http://www.w3.org/2000/svg" xmlns:ev="http://www.w3.org/2001/xml-events" xmlns:xlink="http://www.w3.org/1999/xlink"><defs /><polygon fill="none" points="1004.4615157,173.7998 1004.0505156999999,168.590291 1003.2764156999999,163.39341000000002 1002.2481157,158.78526 1000.9999157,154.59651 999.5479157,150.72362 997.8972157,147.09720000000002 996.0453157,143.66739 993.9827157,140.39623 991.6929157,137.25306 989.1607157,134.20883 986.3932156999999,131.23116000000002 983.4054156999999,128.29287 980.2212156999999,125.37319 976.8758156999999,122.45988 973.3851156999999,119.55695 969.7508157,116.67326 965.9720157,113.81536 962.0447156999999,110.98681 957.9591156999999,108.18746 953.6973156999999,105.41273000000001 949.2338156999999,102.64972 944.5461157,99.87571000000001 939.6188156999999,97.06834 934.4502157,94.20866 929.0628156999999,91.28457000000002 923.5069156999999,88.30412 917.8299156999999,85.31055 912.0634157,82.34749000000001 906.2191157,79.44797000000001 900.2846156999999,76.63158 894.2377157,73.89542 888.0582157,71.2281 881.7262157,68.61940000000001 875.2222157,66.0607 868.5271157,63.5441 861.6233156999999,61.0629 854.4955156999999,58.6113 847.1324156999999,56.18440000000001 839.5255157,53.776700000000005 831.6737156999999,51.3828 823.5869157,48.9988 815.2899156999999,46.62250000000002 806.8261157,44.253900000000016 798.2585157,41.89760000000001 789.6535157,39.575199999999995 781.0571157,37.311800000000005 772.4906156999999,35.12500000000003 763.9512157,33.02520000000001 755.4129157,31.017300000000006 746.8288157,29.09990000000002 738.1483156999999,27.257300000000015 729.3358156999999,25.47319999999999 720.3744156999999,23.735400000000027 711.2704157,22.03569999999999 702.0583157,20.369699999999995 692.7994156999999,18.74290000000002 683.5568156999999,17.1729 674.3794156999999,15.674499999999995 665.3005156999999,14.258700000000005 656.3380156999999,12.93289999999999 647.4968157,11.70150000000001 638.7706156999999,10.566800000000029 630.1444157,9.529899999999998 621.5958157,8.591399999999993 613.0959157,7.751599999999996 604.6089156999999,7.011700000000019 596.0924157,6.371700000000004 587.5030157,5.824299999999994 578.8020157,5.3618999999999915 569.9558156999999,4.978200000000015 560.9364157,4.667699999999996 551.7225156999999,4.425000000000011 542.3025157,4.244500000000016 532.6783157,4.120100000000008 522.8699157,4.044199999999989 512.9196157,4.0077 502.8952157,4.0 492.8856157,4.015500000000003 482.97451570000004,4.063200000000023 473.22161570000003,4.1533000000000015 463.66181570000003,4.294499999999999 454.3088157,4.493700000000018 445.1597157,4.756799999999998 436.1995157,5.089499999999987 427.40451570000005,5.4968000000000075 418.74491570000004,5.984700000000004 410.18531570000005,6.559699999999992 401.6856157,7.230000000000018 393.20171569999997,8.000699999999995 384.6930157,8.870800000000003 376.1261157,9.839400000000012 367.47431570000003,10.90610000000001 358.71771570000004,12.070300000000003 349.8442157,13.330399999999997 340.85131570000004,14.683400000000006 331.7485157,16.123999999999995 322.5591157,17.64360000000002 313.3221157,19.229799999999983 304.0919157,20.866199999999992 294.9344157,22.537000000000006 285.9049157,24.240800000000007 277.02941569999996,25.982799999999997 268.3076157,27.771900000000016 259.7180157,29.6207 251.2222157,31.54570000000001 242.7708157,33.558099999999996 234.3259157,35.655700000000024 225.8723157,37.830900000000014 217.41831570000002,40.07040000000001 208.9956157,42.35340000000002 200.6576157,44.65350000000001 192.47161570000003,46.95170000000002 184.4946157,49.243700000000004 176.76311570000001,51.52890000000001 169.2956157,53.80850000000001 162.0972157,56.0857 155.1632157,58.36410000000001 148.48331570000002,60.6482 142.0463157,62.940500000000014 135.8414157,65.2432 129.8580157,67.5577 124.08581570000001,69.8854 118.5149157,72.22720000000001 113.13581570000001,74.58389 107.9396157,76.95614 102.9176257,79.34431000000001 98.06061570000001,81.74266000000001 93.3624357,84.13425000000001 88.8245857,86.49939 84.4530857,88.81805000000001 80.25532570000001,91.07152 76.23838570000001,93.24548 72.4096657,95.34125 68.7702557,97.36743 65.3148457,99.3331 62.0345057,101.24706 58.918545699999996,103.11746000000001 55.955665700000004,104.95162 53.1347357,106.75594000000001 50.445545700000004,108.5336 47.8793857,110.28475 45.4287957,112.00929000000001 43.0871957,113.70707000000002 40.8487057,115.37793 38.707965699999995,117.02176 36.660045700000005,118.63849 34.7003557,120.22810000000001 32.8245957,121.79067 31.0287157,123.32632000000001 29.3089057,124.83527000000001 27.6616757,126.31912 26.0842357,127.78319 24.5741457,129.23252 23.1291557,130.67113 21.7470857,132.10227 20.4258557,133.52849 19.1633757,134.95178 17.957585700000003,136.37367 16.806395700000003,137.79527000000002 15.7085557,139.21616 14.664565699999999,140.63282 13.674593699999999,142.04215 12.738285699999999,143.44183 11.8549477,144.83024 11.0236647,146.20622 10.2434067,147.56907 9.513093699999999,148.91836 8.831650699999999,150.25393 8.1980447,151.57578 7.6113057,152.88407 7.070551699999999,154.17907 6.5749967,155.46113 6.1239597,156.73067 5.7168737,157.98813 5.3532922,159.23404 5.0328881,160.46891 4.7554639,161.6933 4.52095427,162.90779 4.3294326,164.112963 4.181118,165.309444 4.0763845,166.49786 4.0157719,167.678863 4.0,168.85313 4.0299856,170.021367 4.106864,171.18431 4.2320157,172.34274100000002 4.40710011,173.49748780000002 4.6338852,174.649435 4.91256,175.79944 5.2425656,176.948252 5.6235637,178.096516 6.0554267,179.244775 6.5382147,180.393465 7.0721606999999995,181.542912 7.6576547,182.693318 8.295223700000001,183.84475 8.9855087,184.99710000000002 9.7292457,186.1501 10.5272237,187.30323 11.3802507,188.45572 12.2890907,189.60646 13.254389699999999,190.75395 14.2765757,191.8962 15.355735699999999,193.03069 16.4914257,194.15416 17.6826057,195.26276000000001 18.9292357,196.35421 20.232375700000002,197.42799 21.5930557,198.48382 23.012355699999997,199.52175 24.4913657,200.54215 26.0313557,201.54579 27.6338157,202.53393 29.3006257,203.50836 31.0342957,204.47127 32.8384357,205.42403000000002 34.7171757,206.36775 36.674995700000004,207.30372 38.7166957,208.23343 40.8474357,209.15863000000002 43.0726457,210.08138 45.3979857,211.00412 47.8291757,211.92973 50.3717357,212.86163 53.0306657,213.80388 55.8098457,214.76115000000001 58.71402569999999,215.73641 61.749805699999996,216.73034 64.9237157,217.74347 68.2419757,218.77641 71.71036570000001,219.8298 75.33412570000002,220.90443 79.11792570000001,222.00135 83.0660557,223.121 87.1825857,224.25861 91.47172570000001,225.40664 95.9385757,226.55634 100.5903557,227.69781 105.43821570000001,228.82006 110.4986157,229.91565 115.7898157,230.98717 121.32971570000001,232.03949 127.1338157,233.07864 133.2131157,234.11209 139.5691157,235.14886 146.1891157,236.19954 153.03891570000002,237.27575000000002 160.0593157,238.38573000000002 167.17771570000002,239.51068 174.3269157,240.61964 181.45351570000003,241.68389000000002 188.5224157,242.67894 195.51681570000002,243.58492999999999 202.43691570000001,244.38597000000001 209.29641569999998,245.07187000000002 216.1132157,245.66322 222.9023157,246.19609000000003 229.67671570000002,246.70499 236.4477157,247.22356000000002 243.22551570000002,247.78537 250.0189157,248.42453999999998 256.8358157,249.1759 263.6864157,250.05135 270.5849157,251.02656000000002 277.54651570000004,252.07341 284.5875157,253.16233 291.7253157,254.26175 298.9788157,255.33739 306.3689157,256.35158 313.9169157,257.27772 321.64191569999997,258.11624 329.5630157,258.87064 337.6994157,259.54447 346.06971569999996,260.14156 354.69131569999996,260.66622 363.5789157,261.12362 372.7423157,261.5201 382.1839157,261.86357 391.8952157,262.16395 401.8524157,262.43343000000004 412.0131157,262.68517 422.3227157,262.92148 432.7266157,263.13862 443.1762157,263.33324 453.63191570000004,263.50251000000003 464.0653157,263.64411 474.4596157,263.75615 484.8095157,263.83705 495.12111569999996,263.88537 505.41041570000004,263.89965 515.7029157,263.87897 526.0224156999999,263.82452 536.3834156999999,263.73772 546.7897157,263.62004 557.2339157,263.47308 567.6969157,263.2988 578.1479157,263.09961 588.5451157,262.87846 598.8382157,262.63879000000003 608.9717156999999,262.38417 618.8918156999999,262.10969 628.5597157,261.80176 637.9551157,261.44862 647.0723157,261.0407 655.9158156999999,260.57037 664.4971156999999,260.03146000000004 672.8322156999999,259.41888 680.9392156999999,258.72829 688.8374157,257.95576 696.5466157,257.09755 704.0862156999999,256.14992 711.4763157,255.11556000000002 718.7389156999999,254.02655 725.8955156999999,252.92023 732.9654156999999,251.83067 739.9666156999999,250.78957 746.9163156999999,249.82692 753.8308157,248.97162 760.7252156999999,248.24382 767.6100157,247.62058000000002 774.4959157,247.06578000000002 781.3957157,246.54395 788.3243156999999,246.01944 795.2997157,245.45549 802.3434157,244.81296 809.4820157,244.05201 816.7467157,243.16327 824.1608157,242.1585 831.7304157,241.05385 839.4388157,239.87191 847.2398156999999,238.64324 855.0553156999999,237.4062 862.7820157,236.19175 870.3258157,234.99213 877.6330157,233.78977 884.6863157,232.56661 891.4928156999999,231.30512 898.0747157,229.98835 904.4629156999999,228.59948 910.6927157,227.12659 916.7927156999999,225.57987 922.7725157,223.97709 928.6257156999999,222.33862 934.3340156999999,220.68473 939.8729156999999,219.02257 945.2215156999999,217.35458 950.3645157,215.68366 955.2929157,214.01281 959.9999157,212.33684 964.4813157,210.63213000000002 968.7436157,208.87507 972.7998157,207.04453 976.6660157,205.12094 980.3587157,203.08530000000002 983.8809157,200.91773 987.2123157,198.59398 990.3348156999999,196.08166 993.2324156999999,193.33615 995.9080157,190.30237 998.3830157,186.90998000000002 1000.6723156999999,183.048842 1002.7828156999999,178.52847 1004.4615157,173.7998" stroke="black" stroke-width="2.0" /></svg>