<?xml version="1.0" encoding="utf-8" ?>
<svg baseProfile="full" height="124.89254" version="1.1" width="1012.008065924" xmlns="http://www.w3.org/2000/svg" xmlns:ev="http://www.w3.org/2001/xml-events" xmlns:xlink="http://www.w3.org/1999/xlink"><defs /><polygon fill="none" points="1004.008065924,80.47852 1000.7383659239999,80.0387618 996.524365924,79.421711 991.7953659240001,78.689593 986.581165924,77.871443 981.0009659240001,76.989297 975.195865924,76.056769 969.2382659240001,75.07822999999999 963.147265924,74.057568 956.9422659239999,73.001074 950.648365924,71.916573 944.2934659240001,70.811316 937.9013659240001,69.69081 931.488365924,68.55937 925.061965924,67.41986 918.622365924,66.27363 912.169165924,65.12155999999999 905.703765924,63.964879999999994 899.229565924,62.80517999999999 892.752265924,61.644459999999995 886.2783659239999,60.48514 879.8130659239999,59.329539999999994 873.3595659240001,58.17962 866.9190659239999,57.03697 860.4906659239999,55.90277999999999 854.071965924,54.77777 847.659965924,53.66195999999999 841.252265924,52.55534 834.8469659240001,51.45801 828.442665924,50.37017 822.038365924,49.29207999999999 815.633965924,48.22409 809.229065924,47.166349999999994 802.823965924,46.11897999999999 796.4185659240001,45.08207 790.012965924,44.055769999999995 783.607065924,43.040169999999996 777.201165924,42.03540999999999 770.795265924,41.04162999999999 764.389365924,40.058989999999994 757.983565924,39.08764 751.5776659239999,38.12770999999999 745.171565924,37.179339999999996 738.7650659239999,36.242659999999994 732.357765924,35.31775999999999 725.9494659239999,34.40468 719.539765924,33.50333 713.128365924,32.61362999999999 706.715065924,31.735499999999995 700.2995659239999,30.868859999999998 693.881765924,30.013640000000002 687.461365924,29.169779999999996 681.0381659239999,28.33721 674.612265924,27.515829999999994 668.183565924,26.70554 661.752265924,25.90629 655.318565924,25.117979999999996 648.8828659239999,24.340579999999996 642.4456659240001,23.574039999999997 636.007465924,22.81834 629.569065924,22.0736 623.130865924,21.340129999999995 616.6934659240001,20.618199999999995 610.257065924,19.90806 603.822065924,19.20997 597.3883659239999,18.52414999999999 590.956165924,17.85082 584.525365924,17.190199999999997 578.0957659239999,16.542489999999987 571.667265924,15.907910000000001 565.2398659239999,15.28667 558.813465924,14.679000000000002 552.3881659240001,14.08511999999999 545.964065924,13.505260000000007 539.541165924,12.93965999999999 533.1196659240001,12.388549999999995 526.699665924,11.852219999999988 520.281365924,11.33099 513.864865924,10.825149999999994 507.450365924,10.334979999999987 501.037865924,9.860799999999998 494.627465924,9.402869999999993 488.219265924,8.961500000000001 481.813365924,8.536959999999993 475.40966592399997,8.12957999999999 469.008365924,7.739659999999986 462.609365924,7.367499999999993 456.212765924,7.013409999999993 449.818465924,6.677689999999998 443.426365924,6.360649999999993 437.03646592399997,6.062589999999986 430.648765924,5.78376999999999 424.263065924,5.524409999999989 417.879365924,5.28470999999999 411.497465924,5.064890000000005 405.117265924,4.865159999999989 398.738565924,4.685720000000003 392.361265924,4.526799999999994 385.985165924,4.3885899999999936 379.609965924,4.271250000000009 373.235665924,4.174840000000003 366.862165924,4.099429999999998 360.48936592399997,4.045099999999991 354.117265924,4.0119299999999924 347.746065924,4.0 341.375765924,4.009389999999996 335.006565924,4.040199999999999 328.638665924,4.092589999999987 322.272565924,4.1667599999999965 315.90846592400004,4.262870000000007 309.546965924,4.3811099999999925 303.188465924,4.521630000000002 296.83376592400003,4.684599999999989 290.483465924,4.870180000000005 284.138265924,5.078710000000001 277.798865924,5.3106400000000065 271.46556592400003,5.566389999999998 265.138865924,5.846389999999985 258.81886592399997,6.151089999999996 252.505565924,6.480919999999998 246.198965924,6.836330000000004 239.899165924,7.217889999999997 233.606665924,7.6262200000000036 227.322565924,8.061849999999993 221.048365924,8.525279999999995 214.786165924,9.016940000000005 208.538565924,9.537169999999989 202.308465924,10.086589999999987 196.098865924,10.666719999999998 189.912665924,11.279129999999995 183.752065924,11.925359999999998 177.618965924,12.60691 171.51506592399997,13.32522999999999 165.441465924,14.081869999999995 159.39996592399999,14.878929999999997 153.392865924,15.718519999999998 147.422865924,16.602559999999997 141.493465924,17.532679999999992 135.608365924,18.5103 129.771865924,19.536919999999995 123.988565924,20.61499 118.26226592399999,21.746989999999997 112.596265924,22.935289999999995 106.992965924,24.182069999999996 101.45436592399999,25.489419999999996 95.983005924,26.859519999999996 90.58362592399999,28.294079999999994 85.26276592399999,29.79383 80.02838592399999,31.35848 74.889435924,32.98672 69.85717592399999,34.677279999999996 64.946625924,36.42833999999999 60.174415923999995,38.23582999999999 55.557075924,40.09354999999999 51.109665924,41.99374999999999 46.848215924,43.92725 42.792475924,45.88123999999999 38.961185924,47.839819999999996 35.367455924,49.786539999999995 32.017925924,51.70657 28.924065924,53.58511 26.099485924,55.40345 23.547435924000002,57.14461 21.257785924,58.79785 19.210205924,60.35946 17.379605924,61.83261 15.739935924000001,63.22423 14.266345924,64.54187999999999 12.936529924,65.79302 11.731130924,66.98455999999999 10.633642924,68.12272999999999 9.631612923999999,69.21334999999999 8.723431924,70.26257 7.910025923999999,71.274165 7.190207923999999,72.24999 6.560693924,73.191159 6.016526924,74.09862799999999 5.551655924,74.97346399999999 5.159478924,75.81692699999999 4.833430524,76.630222 4.567961324,77.413832 4.357800224,78.170389 4.198359224,78.904399 4.086301594,79.6211659 4.019750414,80.32643279999999 4.0,81.02552659999999 4.046727154,81.714045 4.176248024,82.387684 4.386662124,83.05082399999999 4.676687124,83.707916 5.046743924,84.363106 5.498786924,85.020429 6.0361779239999995,85.683953 6.663447924,86.35784699999999 7.385705924,87.046291 8.207051924,87.753008 9.126865924,88.479911 10.145736924000001,89.226215 11.276108924,89.9902 12.530786924000001,90.76884 13.919733924,91.55787 15.448125924000001,92.35293 17.116505924000002,93.15223 18.925775924,93.96085 20.888555924000002,94.79361 23.031955924000002,95.66005 25.391045924,96.56636 28.009405924,97.51944 30.938735924,98.52597 34.230035924000006,99.58899 37.912205924,100.70156 41.978835924,101.84559999999999 46.380135924,102.99534 51.038815924000005,104.12611 55.894495924,105.22565 60.926605924,106.28913 66.121525924,107.31009999999999 71.462595924,108.28256999999999 76.931035924,109.20142 82.50779592399999,110.06300999999999 88.17550592399999,110.86570999999999 93.918195924,111.60933 99.72218592399999,112.295 105.57696592399999,112.92501999999999 111.47576592399999,113.50151 117.41366592399999,114.02553 123.387165924,114.49837 129.393565924,114.92157 135.431865924,115.29688999999999 141.501965924,115.62629 147.604865924,115.91194999999999 153.74066592399998,116.15614 159.908565924,116.36117 166.10706592399998,116.52942999999999 172.33366592399997,116.6634 178.58476592399998,116.76532 184.857365924,116.83658 191.14866592399997,116.87852 197.456965924,116.89254 203.78136592399997,116.88007999999999 210.121565924,116.84264999999999 216.478365924,116.78173 222.852965924,116.69890999999998 229.246265924,116.59581 235.658465924,116.47407 242.089565924,116.33537999999999 248.538465924,116.1815 255.003665924,116.01422 261.483165924,115.83525 267.97446592399996,115.64556999999999 274.475565924,115.44595 280.984665924,115.23714 287.50046592399997,115.0199 294.021865924,114.79499 300.54826592399996,114.56317 307.079565924,114.32516999999999 313.615465924,114.08149999999999 320.15606592399996,113.83257 326.701265924,113.57879 333.250765924,113.32057999999999 339.80436592399997,113.05836 346.361565924,112.79256 352.922065924,112.52360999999999 359.485165924,112.25186 366.05056592399995,111.97747 372.61756592399996,111.70059 379.185865924,111.42133999999999 385.755165924,111.13987 392.325065924,110.85629 398.895465924,110.57075 405.46626592399997,110.28335999999999 412.03716592399996,109.99418 418.60816592400005,109.70318999999999 425.179165924,109.41036 431.749965924,109.11568 438.320365924,108.81909999999999 444.890165924,108.52062 451.45926592399996,108.2202 458.027365924,107.91783 464.594165924,107.61346 471.15966592399997,107.30703 477.723665924,106.99843999999999 484.286365924,106.68762 490.84806592399997,106.37447 497.409165924,106.05887999999999 503.970065924,105.74076 510.531465924,105.41998 517.094165924,105.09653 523.658865924,104.77064999999999 530.226065924,104.4426 536.7962659240001,104.11268 543.369665924,103.78116 549.946265924,103.44837 556.526165924,103.1146 563.1088659239999,102.78017 569.694065924,102.44538 576.280765924,102.11034 582.866465924,101.77519 589.451365924,101.43995 596.036065924,101.10461 602.6210659239999,100.76915 609.206965924,100.43356 615.793465924,100.09787999999999 622.378165924,99.76227 628.9602659239999,99.42701 635.539365924,99.09243 642.115365924,98.75883999999999 648.688265924,98.42654999999999 655.2582659239999,98.09585 661.825665924,97.76704 668.391165924,97.44039 674.955465924,97.11614 681.519165924,96.79422 688.083165924,96.47449999999999 694.648065924,96.15682 701.2141659240001,95.84103999999999 707.782065924,95.52703 714.3519659240001,95.21464999999999 720.924065924,94.90378 727.498465924,94.59425999999999 734.075165924,94.28585 740.653865924,93.97825999999999 747.234365924,93.67125 753.815965924,93.36456 760.398165924,93.05796 766.979965924,92.75119 773.560465924,92.44404 780.1387659239999,92.13618 786.713865924,91.82727 793.2851659239999,91.51696 799.852265924,91.20488 806.4149659240001,90.89065 812.9732659240001,90.57391 819.527265924,90.25425999999999 826.077365924,89.93130099999999 832.623565924,89.604638 839.1660659239999,89.273882 845.704765924,88.93865 852.239665924,88.598565 858.770365924,88.25326299999999 865.296765924,87.90253299999999 871.819465924,87.546292 878.339665924,87.184422 884.8594659239999,86.81675299999999 891.3817659240001,86.44306 897.910265924,86.06314499999999 904.448065924,85.67759699999999 910.995665924,85.28760799999999 917.549765924,84.894595 924.1035659239999,84.500202 930.646965924,84.106374 937.167465924,83.716031 943.6526659240001,83.332516 950.0905659240001,82.95902799999999 956.469765924,82.598573 962.775165924,82.25439399999999 968.976165924,81.93048999999999 975.027165924,81.631024 980.874065924,81.3599395 986.4424659240001,81.1219591 991.644765924,80.92062609999999 996.413465924,80.75697439999999 1000.6966659240001,80.63070531 1004.008065924,80.54852" stroke="black" stroke-width="2.0" /></svg>