<?xml version="1.0" encoding="utf-8" ?>
<svg baseProfile="full" height="146.61185" version="1.1" width="1012.1383414" xmlns="http://www.w3.org/2000/svg" xmlns:ev="http://www.w3.org/2001/xml-events" xmlns:xlink="http://www.w3.org/1999/xlink"><defs /><polygon fill="none" points="1004.1383414,77.10792 1001.1062413999999,76.09676599999999 997.3522413999999,75.01862799999999 993.2169414,73.94532099999999 988.6517413999999,72.734935 983.6282414,71.40848299999999 978.1746413999999,69.98944499999999 972.3817413999999,68.50818 966.3476414,66.9964 960.1175413999999,65.4712 953.6770413999999,63.925059999999995 947.0354414,62.34706 940.2683413999999,60.739979999999996 933.4918414,59.134539999999994 926.7566413999999,57.564339999999994 920.0209414,56.04015999999999 913.1906414,54.540729999999996 906.2079414,53.03514 899.0849413999999,51.50627 891.8966413999999,49.962599999999995 884.7324414,48.425149999999995 877.6725414,46.91499999999999 870.7557413999999,45.455459999999995 863.9549413999999,44.058789999999995 857.1933414,42.71988999999999 850.4010413999999,41.40544 843.5655414,40.084219999999995 836.7322413999999,38.74467 829.9431414,37.41337999999999 823.1836413999999,36.115469999999995 816.3885414,34.85879 809.4965414,33.62569 802.4976413999999,32.401599999999995 795.4395413999999,31.185269999999996 788.3773414,29.988389999999995 781.3307414,28.81828999999999 774.2864414,27.675039999999996 767.2295413999999,26.555469999999993 760.1585414,25.458389999999994 753.0826413999999,24.384919999999994 746.0089414,23.336479999999995 738.9374414,22.31346 731.8654413999999,21.31535999999999 724.7984414,20.34247 717.7519413999999,19.396739999999994 710.7412414,18.483199999999997 703.7668414,17.606299999999997 696.8136413999999,16.767870000000002 689.8640413999999,15.966079999999991 682.9122414,15.199479999999994 675.9642413999999,14.468459999999993 669.0232414,13.774869999999993 662.0748414,13.119320000000002 655.0892414,12.499170000000007 648.0442413999999,11.90679 640.9449414,11.335719999999995 633.8211414,10.784419999999997 626.6975414,10.25658 619.5767414,9.754639999999995 612.4459413999999,9.278319999999994 605.3006414,8.826210000000003 598.1526414,8.398039999999995 591.0168413999999,7.996009999999998 583.8829414,7.622429999999994 576.7111414,7.27700999999999 569.4646413999999,6.951139999999995 562.1587413999999,6.6348799999999954 554.8648413999999,6.325469999999996 547.6379413999999,6.035169999999994 540.4621414,5.775530000000003 533.2685413999999,5.547730000000001 526.0044413999999,5.340799999999987 518.6672413999999,5.144349999999989 511.29704139999996,4.954879999999989 503.9393414,4.7742199999999855 496.6307414,4.604839999999996 489.3860414,4.4539999999999935 482.1853414,4.330159999999992 474.9784414,4.237599999999986 467.7197414,4.169089999999997 460.39904140000004,4.115469999999988 453.0416414,4.071069999999992 445.6850414,4.0358699999999885 438.3639414,4.01052 431.1018414,4.0 423.8933414,4.012439999999984 416.7040414,4.054609999999997 409.4923414,4.124579999999995 402.2400414,4.216859999999997 394.9559414,4.323469999999986 387.66454139999996,4.430080000000004 380.3927414,4.540019999999984 373.1586414,4.667639999999992 365.9603414,4.818920000000006 358.77324139999996,4.999179999999981 351.5598414,5.20774999999999 344.2943414,5.438059999999993 336.9712414,5.683009999999996 329.6125414,5.937600000000003 322.2752414,6.196849999999998 315.0420414,6.459379999999996 307.9504414,6.740189999999984 300.9498414,7.05928999999999 293.9285414,7.427409999999995 286.8081414,7.830609999999993 279.6073414,8.246469999999988 272.4246414,8.66404 265.3133414,9.095569999999995 258.2355414,9.557990000000004 251.1114414,10.053679999999986 243.9213414,10.568619999999996 236.73554140000002,11.085070000000002 229.64454139999998,11.607499999999987 222.6563414,12.154749999999993 215.7014414,12.745559999999998 208.70034139999999,13.380219999999994 201.6255414,14.050330000000002 194.50634140000003,14.745149999999995 187.39204139999998,15.460129999999992 180.3190414,16.192839999999997 173.3072414,16.94408 166.3573414,17.71922 159.4502414,18.52568999999999 152.5601414,19.36732999999999 145.6900414,20.239999999999995 138.8819414,21.134589999999996 132.19274140000002,22.048289999999994 125.6400414,22.98933999999999 119.1969414,23.970789999999994 112.8215414,24.998959999999997 106.51224140000001,26.066799999999994 100.3168714,27.158659999999998 94.3107014,28.259599999999992 88.5472714,29.364279999999994 83.0463414,30.471169999999994 77.8106614,31.57717999999999 72.8924414,32.65668999999999 68.3834614,33.710829999999994 64.1974514,34.849779999999996 60.174791400000004,35.96509999999999 56.3534914,37.031839999999995 52.7808014,38.11573 49.407401400000005,39.2457 46.206471400000005,40.34051999999999 43.2326914,41.42216 40.4469014,42.59459999999999 37.771991400000005,43.811069999999994 35.2340314,44.99282999999999 32.8767414,46.168879999999994 30.673001400000004,47.37495 28.5779814,48.575759999999995 26.5873714,49.723259999999996 24.728841400000004,50.825869999999995 23.0116814,51.9191 21.421971400000004,53.026489999999995 19.9349414,54.139869999999995 18.5357414,55.243809999999996 17.217931399999998,56.32352999999999 15.9832414,57.376059999999995 14.832151399999999,58.404709999999994 13.761870400000001,59.41364999999999 12.767885399999999,60.407109999999996 11.8443124,61.38668 10.9853774,62.3518 10.1862614,63.301669999999994 9.4428064,64.23552 8.7513234,65.15257 8.1085224,66.05223 7.5126754,66.93493 6.9631614,67.80196 6.4590774,68.6544 5.9993664,69.49328 5.6049094,70.327393 5.3092624,71.17258 5.0287859,72.00310099999999 4.727755,72.805554 4.4762962,73.60291 4.307657,74.409117 4.19208429,75.21902899999999 4.10108615,76.02592299999999 4.0338158,76.82699299999999 4.0,77.622056 4.0093661,78.412042 4.07228135,79.1989414 4.20047649,79.9858242 4.4005669,80.774712 4.671181499999999,81.56339799999999 5.0063843,82.349409 5.3841263999999995,83.142178 5.7892874,83.94723099999999 6.234420399999999,84.755226 6.7380554,85.55528699999999 7.3115483999999995,86.342653 7.9538544,87.119897 8.6621494,87.889742 9.4328314,88.654331 10.2667994,89.41456299999999 11.1670524,90.17116999999999 12.1367294,90.92526 13.1791274,91.67841999999999 14.2977714,92.43294999999999 15.4975314,93.19277 16.7845114,93.96370999999999 18.163781399999998,94.75291 19.6378514,95.56844 21.210261400000004,96.411 22.8898114,97.27260999999999 24.690381400000003,98.14403 26.6300214,99.02188999999998 28.7255214,99.91050999999999 30.991461400000002,100.81412 33.4423314,101.73424 36.0949814,102.67356 38.9647814,103.64175 42.0555614,104.65046 45.346331400000004,105.69766999999999 48.8000114,106.73657999999999 52.4526914,107.71419 56.335051400000005,108.73389999999999 60.4243314,109.80002999999999 64.7427314,110.83223 69.30729140000001,111.85431 74.0788014,112.92616 79.0745514,113.95032 84.3815914,114.93124 89.9947614,115.97399999999999 95.8072314,117.06452999999999 101.73642140000001,118.15566999999999 107.7691414,119.21103 113.9511414,120.22658 120.32224140000001,121.21573999999998 126.8910414,122.18844999999999 133.62824139999998,123.14823999999999 140.4868414,124.09449999999998 147.4159414,125.02726999999999 154.36814139999998,125.94149999999999 161.3112414,126.82714999999999 168.2324414,127.67679 175.1365414,128.48753 182.0433414,129.25997 188.9868414,129.99631 195.9995414,130.70439 203.0738414,131.3924 210.1514414,132.0625 217.16964140000002,132.70301 224.1299414,133.30268999999998 231.0966414,133.85905 238.1338414,134.38446 245.2356414,134.89054 252.32214140000002,135.37855 259.33094140000003,135.83417 266.2853414,136.24648 273.27214139999995,136.61653 280.34344139999996,136.95926 287.4536414,137.28678 294.4864414,137.59332999999998 301.3941414,137.85792 308.23494139999997,138.06508 315.1231414,138.21818 322.13114140000005,138.33435 329.2535414,138.42949 336.4224414,138.50806 343.5724414,138.56725 350.66224139999997,138.60417 357.6828414,138.61185 364.6634414,138.5818 371.6668414,138.50824 378.7416414,138.39869 385.87054140000004,138.26534999999998 392.9712414,138.11518999999998 399.9904414,137.93761999999998 406.9628414,137.71825 413.98554140000005,137.45227 421.1219414,137.15439999999998 428.3435414,136.84518 435.5514414,136.53217 442.69054140000003,136.20463999999998 449.7847414,135.84956 456.8888414,135.46404 464.0126414,135.05363 471.1086414,134.62516 478.1250414,134.17452 485.0670414,133.69111999999998 491.9879414,133.17374 498.9029414,132.66131 505.7664414,132.15418 512.5952414,131.61252 519.4730413999999,131.01470999999998 526.4580414,130.36846 533.5382414,129.68954 540.6458414,128.98935 547.7341413999999,128.26812999999999 554.8041413999999,127.52177 561.8798413999999,126.7483 568.9640413999999,125.95029 576.0311413999999,125.13235999999999 583.0498414,124.29344999999999 590.0104414,123.42824999999999 596.9257413999999,122.53025 603.8206414,121.59541999999999 610.7251413999999,120.61935 617.6711413999999,119.59907 624.6709414,118.54005999999998 631.6977413999999,117.45490999999998 638.6925413999999,116.35488999999998 645.6193413999999,115.23731 652.4899414,114.09156999999999 659.3466414,112.90821 666.2104414,111.68807 673.0614413999999,110.43918 679.8559414,109.16716 686.5764414,107.86698999999999 693.2435413999999,106.52790999999999 699.9032414,105.15548 706.5920413999999,103.77398 713.3250413999999,102.41104999999999 720.0967413999999,101.06684 726.9020413999999,99.71631 733.7465414,98.33291 740.6436414,96.91465 747.5924414,95.48104 754.5680414,94.05636999999999 761.5390414,92.65562 768.5021414,91.28251999999999 775.4860413999999,89.93328 782.5074414,88.59981499999999 789.5181413999999,87.284027 796.4126414,86.004443 803.1321413999999,84.791027 809.7198414,83.656352 816.2873414,82.59263299999999 822.9179414,81.57473399999999 829.5978414,80.58901139999999 836.2190413999999,79.64304294 842.6944414,78.7657048 849.0326413999999,77.97409499999999 855.3122414,77.270427 861.6153414,76.63961699999999 867.9793414,76.069215 874.3931414,75.55278 880.8179414,75.09248199999999 887.2190414,74.69171899999999 893.5717414,74.35243899999999 899.8651414,74.077969 906.1057413999999,73.87201499999999 912.3170414,73.73777 918.5257413999999,73.67351199999999 924.7262413999999,73.673154 930.8709414,73.729796 936.8872414,73.84288799999999 942.7322413999999,74.02315399999999 948.4086414,74.28044299999999 953.9492414,74.622636 959.3855413999999,75.04815599999999 964.7224414,75.551327 969.9421414,76.124359 975.0111413999999,76.759895 979.8944414,77.45565099999999 984.5657413999999,78.207971 989.0092414,79.01141369999999 993.2186414,79.86169919999999 997.2030414,80.75035799999999 1000.9947414,81.581255 1004.1383414,82.20732" stroke="black" stroke-width="2.0" /></svg>