<?xml version="1.0" encoding="utf-8" ?>
<svg baseProfile="full" height="90.38042999999999" version="1.1" width="1012.2232636" xmlns="http://www.w3.org/2000/svg" xmlns:ev="http://www.w3.org/2001/xml-events" xmlns:xlink="http://www.w3.org/1999/xlink"><defs /><polygon fill="none" points="1004.2232636,46.33645 1001.3488636,46.099206 997.8617636,45.807878 994.1689636,45.495168 990.2458636,45.158241 986.0653636000001,44.79383 981.5971636,44.398233 976.8100635999999,43.967381 971.6742635999999,43.497058 966.1664636,42.983382 960.2793636,42.423694 954.0345636000001,41.817964 947.6108636,41.18264 941.3379636,40.553266 935.1480636,39.926944999999996 928.9698635999999,39.29993 922.7498635999999,38.670159999999996 916.4485636,38.03714 910.0404636,37.40214 903.5756636000001,36.77423 897.1972636,36.16981 890.8917636,35.58637 884.6382636,35.02035 878.4189636,34.46872 872.2189636,33.92883 866.0253636,33.39833 859.8271636,32.875119999999995 853.6146636,32.35726 847.3800636000001,31.842979999999997 841.1166636,31.33061 834.8193636,30.81861 828.4846636,30.30553 822.1107636,29.789989999999996 815.6974636,29.27076 809.2468636,28.746679999999998 802.7632636000001,28.21678 796.2597636,27.68152 789.7715635999999,27.144709999999996 783.2974636,26.60739 776.8318636,26.07023 770.3697635999999,25.53391 763.9068636000001,24.9992 757.4392636,24.46688 750.9639636,23.93784 744.4784636,23.41299 737.9808636,22.893340000000002 731.4729636,22.38019 724.9738636,21.87618 718.4871635999999,21.382669999999997 712.0118636,20.90063 705.5462636,20.431009999999997 699.0883636,19.97455 692.6355636,19.53086 686.1859636,19.099089999999997 679.7375636,18.6784 673.2884636,18.267979999999998 666.8373636,17.86706 660.3828636,17.47487 653.9237636,17.090669999999996 647.4592636,16.71374 640.9886636,16.343359999999997 634.5114636,15.978830000000002 628.0272636,15.61945 621.5360636,15.26455 615.0379636,14.913440000000001 608.5332636,14.565449999999998 602.0225636,14.219929999999998 595.5066636,13.8765 588.9864636,13.535229999999999 582.4684636000001,13.196489999999997 575.9535636,12.860399999999998 569.4407636000001,12.52693 562.9294636000001,12.196099999999994 556.4185636,11.867890000000003 549.9072636,11.542319999999997 543.3947636,11.219389999999997 536.8800636000001,10.899090000000001 530.3623636,10.58144 523.8407636,10.26643 517.3151636,9.954119999999996 510.79206360000006,9.644860000000001 504.2732636,9.338790000000003 497.7595636,9.03631 491.2518636,8.739270000000005 484.7511636,8.449889999999996 478.2581636,8.17031 471.7737636,7.902709999999999 465.2985636,7.6492099999999965 458.8330636,7.411900000000003 452.3778636,7.192880000000002 445.9333636,6.99418 439.4998636,6.81785 433.0775636,6.665880000000001 426.66686359999994,6.540279999999996 420.2676636,6.442989999999995 413.88006359999997,6.375979999999998 407.50416359999997,6.341179999999994 401.1395636,6.340340000000005 394.78586359999997,6.371110000000002 388.44186360000003,6.42689 382.1064636,6.500929999999997 375.77866359999996,6.586539999999999 369.4576636,6.677079999999997 363.1426636,6.76596 356.8327636,6.846639999999994 350.5274636,6.912619999999997 344.2261636,6.9574500000000015 337.92836359999995,6.974740000000004 331.6335636,6.958149999999996 325.34156360000003,6.901430000000005 319.0519636,6.798349999999999 312.76456360000003,6.642800000000001 306.4792636,6.4287299999999945 300.1962636,6.151470000000003 293.91786360000003,5.822909999999993 287.6489636,5.466200000000001 281.39546359999997,5.104489999999998 275.1639636,4.760620000000003 268.9619636,4.456949999999999 262.79766359999996,4.215220000000002 256.6798636,4.056309999999996 250.6174636,4.0 244.61996359999998,4.064719999999994 238.6967636,4.267319999999998 232.8568636,4.622879999999995 227.1092636,5.144469999999998 221.4621636,5.843060000000001 215.92316359999998,6.7274499999999975 210.4989636,7.804219999999994 205.19536359999998,9.077799999999996 200.0165636,10.543050000000001 194.9594636,12.142310000000002 190.0167636,13.80238 185.1795636,15.458439999999996 180.4379636,17.053439999999995 175.7817636,18.53717 171.2001636,19.86518 166.6824636,20.99776 162.2180636,21.89893 157.79636359999998,22.53549 153.4065636,22.87624 149.0400636,22.9167 144.6920636,22.70984 140.3571636,22.31242 136.0292636,21.77733 131.7011636,21.15458 127.36446360000001,20.49238 123.0092636,19.83835 118.62426359999999,19.24089 114.19566359999999,18.75088 109.70686359999999,18.42391 105.1373636,18.323289999999997 100.4600036,18.512009999999997 95.6396936,18.971799999999998 90.64237359999998,19.63747 85.44087359999999,20.42611 80.02214359999999,21.22782 74.3995236,21.924789999999998 68.6292036,22.54018 62.8259136,23.16552 57.148903600000004,23.88811 51.755193600000005,24.765990000000002 46.74396360000001,25.772949999999998 42.0601936,26.855 37.5586136,28.00171 33.0292336,29.24175 28.0615736,30.679219999999997 22.6320436,32.50488 17.3848636,34.96464 14.586973599999999,36.63262 12.579242599999999,37.98538 11.0421736,39.11963 9.7985826,40.112884 8.7611286,41.006191 7.8800946,41.824149999999996 7.1247796,42.582485 6.4748396,43.292035 5.9162246,43.960633 5.4390546,44.59406 5.0362498,45.196782999999996 4.7028955,45.772135 4.4354422,46.32313 4.231684731,46.852405 4.0908243,47.361766 4.0131651,47.852469 4.0,48.325834 4.0538865,48.7830463 4.17889229,49.2250278 4.380417,49.6526673 4.6611456,50.0680131 5.0233159999999994,50.473774999999996 5.4712076,50.872468 6.0116396000000005,51.266667 6.6549575999999995,51.659314 7.4166706,52.054031 8.3200206,52.455491 9.4005116,52.870102 10.720172600000001,53.309139 12.401332599999998,53.794989 14.690673599999998,54.371565 19.2307636,55.384009999999996 23.805263599999996,56.321358 29.2086936,57.333823 33.9441036,58.167512 38.265043600000006,58.895297 42.6730236,59.607639999999996 47.4972536,60.35382 53.129743600000005,61.18132 59.550633600000005,62.06555 65.6238936,62.83994 71.8578636,63.56798 78.20395359999999,64.23616 84.3008036,64.80801 90.3602236,65.31794 96.5152236,65.78999 102.83794359999999,66.24086 109.3333636,66.68146 115.79016359999999,67.09746 122.2067636,67.48405 128.6321636,67.83926 135.11486359999998,68.16008 141.60986359999998,68.43847 148.0187636,68.66584 154.3416636,68.8392 160.58946360000002,68.96119 166.77406359999998,69.05294 172.90506359999998,69.13851 178.9903636,69.24065 185.0357636,69.38119 191.0458636,69.58122 197.02406359999998,69.86132 202.9722636,70.24158 208.89146359999998,70.73861 214.7831636,71.34514999999999 220.6490636,72.04339 226.4910636,72.81587999999999 232.31116360000001,73.64562000000001 238.1111636,74.51593 243.89306359999998,75.41049 249.6590636,76.31327 255.4109636,77.20847 261.1510636,78.08051 266.8814636,78.91394 272.6044636,79.69344 278.32236359999996,80.40375 284.0373636,81.02959 289.75216359999996,81.55565 295.4689636,81.9665 301.19056359999996,82.24653 306.9196636,82.38042999999999 312.6587636,82.36624 318.40996359999997,82.21661 324.1752636,81.94485 329.9565636,81.56429 335.7554636,81.08834 341.5735636,80.5305 347.41216360000004,79.9045 353.2725636,79.22425 359.1557636,78.50397 365.0627636,77.75815 370.9941636,77.00164 376.9504636,76.24966 382.9319636,75.5178 388.93876359999996,74.82204 394.9707636,74.17878999999999 401.0274636,73.6048 407.1082636,73.1168 413.2121636,72.72031 419.33816360000003,72.4085 425.48536359999997,72.17373 431.6527636,72.00816 437.8392636,71.90374 444.0440636,71.85226 450.2662636,71.84531 456.5049636,71.87433 462.75916359999997,71.9306 469.02836360000003,72.00527 475.3114636,72.08935 481.6078636,72.17372 487.9169636,72.24916 494.2379636,72.30633 500.5703636,72.33578 506.9134636,72.32815 513.2670636,72.27967 519.6306635999999,72.19355999999999 526.0039636,72.07347 532.3867636,71.92313 538.7783635999999,71.74629 545.1785636000001,71.54676 551.5867636,71.32838 558.0024636,71.09503 564.4250635999999,70.85064 570.8540636,70.59916 577.2886636,70.34456 583.7282636,70.09085 590.1721636,69.84205 596.6196636000001,69.60219000000001 603.0697636,69.37532999999999 609.5218636,69.16495 615.9749636,68.97064 622.4283635999999,68.79035999999999 628.8813636,68.62201999999999 635.3337636,68.46355 641.7851636,68.31287 648.2354636,68.16789 654.6848636,68.02652 661.1335635999999,67.88668 667.5820636,67.74628 674.0308636,67.60321 680.4806636,67.45539 686.9325636,67.3007 693.3875635999999,67.13702 699.8468636,66.96221 706.3120636,66.77412 712.7846636,66.57115999999999 719.2657636,66.35264000000001 725.7560636,66.11797 732.2555636,65.86658 738.7638636,65.5979 745.2796635999999,65.31139999999999 751.8014635999999,65.00658 758.3244636000001,64.68311 764.8448636,64.34065 771.3657635999999,63.978539999999995 777.8821636,63.59654 784.3871636,63.19462 790.8754636,62.77269 797.3416636,62.33079 803.7797636,61.86907 810.1836636,61.38837 816.5482635999999,60.89248 822.8708636,60.38588 829.1505636,59.872749999999996 835.3885636,59.35694 841.5874636,58.842053 847.7515636,58.331384 853.8867636,57.828012 859.9998636,57.334823 866.0993636000001,56.854559 872.1949636,56.389874 878.2980636000001,55.943394 884.4213636,55.517789 890.5799636,55.115851 896.7914636,54.7406 903.0763635999999,54.395407 909.4590636,54.083035 915.9460636,53.799512 922.3769636,53.543312 928.7173636,53.306284 935.0074635999999,53.078006 941.3025636,52.848085 947.6762636,52.605308 954.1339636,52.340292 960.3415636,52.06042 966.2012636,51.772283 971.6905636,51.48124 976.8149635999999,51.191100999999996 981.5955636,50.90436 986.0606636,50.622527 990.2404636,50.346429 994.1640636,50.0764486 997.8582636,49.8126817 1001.3472636,49.5550516 1004.2232636,49.33645" stroke="black" stroke-width="2.0" /></svg>