<?xml version="1.0" encoding="utf-8" ?>
<svg baseProfile="full" height="198.62277" version="1.1" width="1012.023695" xmlns="http://www.w3.org/2000/svg" xmlns:ev="http://www.w3.org/2001/xml-events" xmlns:xlink="http://www.w3.org/1999/xlink"><defs /><polygon fill="none" points="1004.023695,134.2211 999.449795,133.121996 994.064795,131.672934 988.511095,130.083379 982.7802949999999,128.421313 976.885895,126.727906 970.825095,125.03925500000001 964.579495,123.37131000000001 958.130095,121.72103000000001 951.458095,120.08471 944.5459950000001,118.45659 937.3798949999999,116.82530000000001 929.952395,115.17764 922.266295,113.49986000000001 914.334995,111.78532000000001 906.1760949999999,110.03450000000001 897.809795,108.24785 889.256695,106.42540000000001 880.536895,104.56922 871.6706949999999,102.68326 862.678495,100.77152000000001 853.579395,98.83767 844.390895,96.88487 835.128295,94.91568000000001 825.804795,92.93213 816.430595,90.93559 807.0126949999999,88.92712 797.556895,86.90844000000001 788.069395,84.88151 778.556795,82.84843000000001 769.026395,80.8114 759.485395,78.77267 749.940395,76.73428000000001 740.396795,74.69805000000001 730.859095,72.66554000000001 721.330395,70.63808 711.8129949999999,68.61693000000001 702.309395,66.60336000000001 692.821895,64.59869 683.352995,62.60423 673.9052949999999,60.62129 664.4812949999999,58.651430000000005 655.082995,56.69633 645.711595,54.75751000000001 636.367995,52.83634000000001 627.0523949999999,50.934070000000006 617.764395,49.05175 608.504095,47.190290000000005 599.2717949999999,45.35067000000001 590.068295,43.533910000000006 580.8947949999999,41.74109 571.7529949999999,39.97339000000001 562.644595,38.23228 553.570895,36.519340000000014 544.533095,34.83603000000001 535.531795,33.1837 526.567395,31.563500000000005 517.639995,29.97680000000001 508.74999499999996,28.42450000000001 499.89809499999996,26.90780000000001 491.08539499999995,25.427999999999997 482.313295,23.986100000000008 473.583395,22.5835 464.897695,21.221300000000014 456.25799499999994,19.901500000000013 447.66579499999995,18.625400000000013 439.12249499999996,17.394400000000005 430.629195,16.210000000000008 422.18699499999997,15.073300000000003 413.796895,13.985600000000005 405.460095,12.948099999999997 397.177795,11.962100000000007 388.95159499999994,11.028600000000012 380.783095,10.148700000000005 372.6737949999999,9.323400000000007 364.625795,8.553699999999992 356.640995,7.841000000000008 348.72169499999995,7.186099999999996 340.87019499999997,6.590000000000003 333.08879499999995,6.0534000000000106 325.37979499999994,5.5771000000000015 317.74589499999996,5.1621000000000095 310.18949499999997,4.809400000000011 302.71309499999995,4.519599999999997 295.318695,4.293399999999991 288.008695,4.131000000000029 280.78509499999996,4.032900000000012 273.65039499999995,4.0 266.606995,4.032600000000002 259.657195,4.130900000000025 252.803395,4.294900000000013 246.047695,4.5245000000000175 239.392395,4.819900000000018 232.83909500000001,5.1813999999999965 226.38889500000002,5.609400000000022 220.042395,6.1036 213.79969499999999,6.663899999999998 207.660395,7.289800000000014 201.624495,7.980399999999989 195.692495,8.734800000000007 189.86489500000002,9.551700000000011 184.142695,10.429500000000004 178.526595,11.366700000000009 173.017495,12.36160000000001 167.61659500000002,13.412700000000015 162.325095,14.518800000000013 157.143695,15.67840000000001 152.072995,16.890000000000015 147.11309500000002,18.151700000000005 142.26409500000003,19.46180000000001 137.525695,20.818300000000008 132.89819500000002,22.219499999999996 128.380895,23.663300000000007 123.973195,25.147900000000007 119.673895,26.671400000000006 115.481795,28.231899999999996 111.395295,29.826999999999998 107.412895,31.4533 103.533595,33.10700000000001 99.75652500000001,34.784390000000016 96.081075,36.48168000000001 92.506635,38.19524 89.032545,39.921490000000006 85.658185,41.65732000000001 82.383045,43.400130000000004 79.20639500000001,45.14742000000001 76.127275,46.89680000000001 73.144445,48.64599000000001 70.256405,50.392849999999996 67.461455,52.135400000000004 64.757745,53.87190000000001 62.143705,55.601060000000004 59.61752499999999,57.32184000000001 57.177085,59.03342000000001 54.820065,60.73509 52.54400499999999,62.426310000000015 50.34632499999999,64.10666 48.224435,65.77581 46.175695,67.43352 44.19768499999999,69.0796 42.288215,70.71371000000002 40.445294999999994,72.3354 38.667064999999994,73.94416000000001 36.951724999999996,75.53944000000001 35.29752500000001,77.12066000000002 33.702754999999996,78.68728000000002 32.165684999999996,80.23877 30.684675000000002,81.77464 29.258725,83.29456 27.886915000000002,84.79847000000001 26.568055,86.28661 25.300705,87.75945000000002 24.083325,89.21758 22.914305,90.66173 21.792015,92.09271000000001 20.714844999999997,93.51137 19.681235,94.91860000000001 18.689645,96.31530000000001 17.738115,97.70237 16.824444999999997,99.08043 15.946825,100.44964 15.103755,101.80981 14.293944999999999,103.16048 13.516306,104.50093000000001 12.769831,105.83031000000001 12.053601,107.14762 11.366734000000001,108.45183 10.708362000000001,109.74187 10.077653999999999,111.01670000000001 9.474988,112.27515000000001 8.901908,113.51626000000002 8.359528000000001,114.73960000000001 7.848546000000001,115.94522 7.369351,117.13346000000001 6.92211,118.30495 6.506844,119.46050000000001 6.12348,120.60103000000001 5.7718989999999994,121.72758 5.451973000000001,122.84123000000001 5.16359,123.9431 4.9066784,125.034383 4.6812275,126.11625000000001 4.4873015,127.18991500000001 4.3250557,128.25661200000002 4.1947509,129.317596 4.09676851,130.37416000000002 4.031626808,131.427634 4.0,132.47940400000002 4.00274041,133.5309253 4.04089707,134.58372880000002 4.11528357,135.638766 4.2262478,136.695939 4.3743072,137.754939 4.5601959,138.815314 4.7848565,139.876453 5.049434,140.937568 5.355273,141.99767 5.703911,143.055543 6.0970759999999995,144.10970700000001 6.536676,145.15839 7.0247910000000005,146.19946000000002 7.563645,147.23041 8.155587,148.2483 8.802876999999999,149.24991 9.505827,150.23433 10.263331,151.20239 11.074043,152.15507000000002 11.936373,153.09344000000002 12.848456,154.01873 13.808114000000002,154.93232 14.812814999999999,155.83575000000002 15.859645,156.73074 16.945235,157.61921 18.065715,158.50331 19.217445,159.38508000000002 20.400295,160.26478 21.615415000000002,161.14206000000001 22.864024999999998,162.01657 24.147395000000003,162.88796000000002 25.466905,163.75585 26.823985,164.61986000000002 28.220195,165.47962 29.657195,166.33473 31.136795000000003,167.18482 32.660935,168.02951000000002 34.231625,168.86845 35.850535,169.70148 37.519254999999994,170.52845000000002 39.239435,171.34919000000002 41.01271499999999,172.16357 42.840745,172.97143 44.725195,173.77262000000002 46.667654999999996,174.56699 48.669675,175.3544 50.732685,176.13472000000002 52.858064999999996,176.90777 55.047734999999996,177.67297000000002 57.304075,178.42942 59.629525,179.17618000000002 62.026604999999996,179.91227 64.497885,180.63666 67.046065,181.34829000000002 69.67392500000001,182.04604 72.384365,182.72881 75.18049500000001,183.39545 78.065645,184.04471 81.043405,184.67513 84.117395,185.28518 87.291275,185.87323 90.568725,186.43757 93.953405,186.97643 97.44891500000001,187.48799 101.05880499999999,187.97037 104.78669500000001,188.42155 108.63639500000001,188.83898 112.61209500000001,189.21994 116.717995,189.5616 120.958195,189.86107 125.337295,190.11538000000002 129.86039499999998,190.32152000000002 134.532995,190.47644000000003 139.361795,190.57758 144.354195,190.62277 149.517695,190.60998 154.859895,190.53741000000002 160.38879500000002,190.40359 166.112495,190.20745 172.039595,189.94833 178.179195,189.62567 184.53979500000003,189.23949000000002 191.128695,188.79081000000002 197.951195,188.28194000000002 205.009895,187.71681 212.303595,187.10052000000002 219.827395,186.43544 227.573495,185.72337000000002 235.53159499999998,184.96704 243.68949500000002,184.17011000000002 252.033995,183.33713 260.55169499999994,182.47227 269.22819499999997,181.57789000000002 278.048895,180.65636 286.998995,179.71026 296.064695,178.74229000000003 305.23399499999994,177.75514 314.49589499999996,176.75142 323.839595,175.73384000000001 333.253795,174.70526 342.726995,173.66864 352.24789499999997,172.62704000000002 361.805395,171.58314000000001 371.389395,170.53886 380.990995,169.49588 390.60319499999997,168.45569 400.22049499999997,167.4196 409.83899499999995,166.38872 419.456595,165.36398 429.071295,164.34622000000002 438.681695,163.33621 448.286895,162.33472 457.88609499999995,161.34243 467.478795,160.35999 477.065095,159.38783 486.644495,158.42626 496.217095,157.47562 505.78259499999996,156.53621 515.340695,155.60836 524.891295,154.69239000000002 534.433995,153.78865000000002 543.968695,152.8975 553.494895,152.01929 563.0122949999999,151.15438 572.520495,150.30314 582.019095,149.46591 591.507695,148.64311 600.986195,147.83514 610.4545949999999,147.04239 619.913095,146.26523 629.3622949999999,145.50400000000002 638.8027950000001,144.75901000000002 648.235095,144.03038 657.6592949999999,143.318184 667.074795,142.622547 676.4804949999999,141.943626 685.874695,141.28161 695.254995,140.636805 704.619295,140.009937 713.965795,139.401805 723.2930949999999,138.813154 732.6003949999999,138.244682 741.887395,137.69704000000002 751.1538949999999,137.170706 760.399495,136.665909 769.6225949999999,136.18288800000002 778.820895,135.72190600000002 787.9912949999999,135.283238 797.130095,134.8672114 806.232595,134.4744614 815.293895,134.10571280000002 824.3086950000001,133.7616358 833.271395,133.4428348 842.1761949999999,133.149865 851.016395,132.88345800000002 859.784495,132.64439900000002 868.471595,132.433365 877.0680950000001,132.250887 885.563995,132.097433 893.948595,131.973778 902.211195,131.880601 910.341195,131.81830200000002 918.328495,131.78698100000003 926.163195,131.78610300000003 933.833295,131.81451900000002 941.325795,131.870831 948.627595,131.953461 955.726795,132.062446 962.6134950000001,132.19953900000002 969.280695,132.365815 975.724295,132.562546 981.9437949999999,132.796726 987.944095,133.076277 993.733295,133.40857830000002 999.323495,133.808489 1004.023695,134.2211" stroke="black" stroke-width="2.0" /></svg>