<?xml version="1.0" encoding="utf-8" ?>
<svg baseProfile="full" height="201.50691" version="1.1" width="1011.995547663" xmlns="http://www.w3.org/2000/svg" xmlns:ev="http://www.w3.org/2001/xml-events" xmlns:xlink="http://www.w3.org/1999/xlink"><defs /><polygon fill="none" points="1003.995547663,141.8806 1000.174847663,140.470181 995.737247663,138.617436 991.196547663,136.58916 986.5215476630001,134.450822 981.720247663,132.251272 976.812047663,130.03907999999998 971.806247663,127.85495999999999 966.693847663,125.72359999999999 961.458447663,123.65392999999999 956.076347663,121.64829999999998 950.5248476630001,119.69527 944.7825476630001,117.78114 938.831047663,115.89023999999999 932.6597476630001,114.00567999999998 926.270547663,112.11395999999999 919.6717476630001,110.21127999999999 912.8749476630001,108.29513999999999 905.893747663,106.36500999999998 898.742847663,104.42354999999999 891.437547663,102.47327999999999 883.992347663,100.51701999999999 876.419947663,98.55735999999999 868.730247663,96.59561999999998 860.9323476630001,94.63159999999999 853.038347663,92.66512999999999 845.0646476630001,90.69716999999999 837.027347663,88.73127999999998 828.9386476630001,86.77087999999998 820.806347663,84.81805999999999 812.635147663,82.87374999999999 804.429047663,80.93850999999998 796.191647663,79.01268999999999 787.9263476630001,77.09631999999999 779.637747663,75.18947999999997 771.331247663,73.29248999999999 763.012747663,71.40651999999999 754.686547663,69.53308999999999 746.355147663,67.67330999999999 738.0194476629999,65.82777999999999 729.6796476630001,63.99666999999998 721.3362476630001,62.18011999999999 712.989847663,60.37828999999999 704.6410476630001,58.59129999999999 696.2915476630001,56.81935999999999 687.943447663,55.06279999999998 679.599247663,53.322299999999984 671.2611476630001,51.59895999999999 662.930247663,49.89373999999998 654.607147663,48.207389999999975 646.291547663,46.540369999999996 637.983347663,44.893039999999985 629.6826476630001,43.26576999999999 621.389647663,41.65899999999999 613.105047663,40.0731 604.829947663,38.50869999999999 596.566247663,36.966499999999996 588.3160476630001,35.44739999999999 580.080947663,33.95259999999999 571.861747663,32.48319999999998 563.6580476629999,31.040199999999984 555.469047663,29.624199999999988 547.2943476629999,28.235499999999988 539.134547663,26.874599999999987 530.9908476630001,25.542199999999994 522.8649476630001,24.239199999999997 514.758647663,22.966799999999992 506.67324766300004,21.726099999999988 498.61004766300005,20.51809999999999 490.570047663,19.343999999999994 482.553547663,18.20489999999998 474.56074766300003,17.101799999999997 466.591147663,16.0355 458.644847663,15.00669999999998 450.722947663,14.015899999999988 442.827547663,13.06389999999999 434.96174766300004,12.15179999999998 427.128247663,11.28109999999998 419.329347663,10.453299999999984 411.566447663,9.66980000000001 403.84054766300005,8.931899999999985 396.152747663,8.240799999999979 388.504047663,7.5975999999999715 380.89564766300003,7.003399999999971 373.329047663,6.459399999999988 365.806047663,5.966599999999971 358.32834766300005,5.525799999999975 350.898447663,5.1381000000000085 343.518647663,4.8048 336.191747663,4.52709999999999 328.921047663,4.306199999999961 321.709547663,4.143499999999989 314.559847663,4.040799999999962 307.472447663,4.0 300.44654766300005,4.022899999999993 293.480047663,4.11069999999998 286.571847663,4.2637 279.722147663,4.482299999999981 272.932347663,4.766699999999986 266.205047663,5.117499999999978 259.542047663,5.535799999999995 252.944247663,6.022699999999986 246.411647663,6.579199999999986 239.943947663,7.206099999999992 233.54054766299998,7.904500000000013 227.200347663,8.675099999999986 220.921947663,9.518699999999995 214.704547663,10.435399999999987 208.547647663,11.425099999999986 202.45134766299998,12.48769999999999 196.416247663,13.622799999999984 190.443247663,14.830199999999977 184.533447663,16.109499999999997 178.687947663,17.460099999999983 172.908147663,18.88159999999999 167.195447663,20.373299999999986 161.551547663,21.934499999999986 155.97804766299998,23.56429999999999 150.476547663,25.26129999999999 145.04904766299998,27.023899999999983 139.697447663,28.85029999999999 134.424147663,30.73769999999999 129.232547663,32.68219999999998 124.12724766299999,34.67949999999999 119.114047663,36.72439999999999 114.19914766299999,38.812 109.38884766299999,40.93729999999999 104.689047663,43.09457999999998 100.10537766299998,45.278609999999986 95.64341766300001,47.48385999999998 91.308217663,49.7046 87.104097663,51.93514999999999 83.034927663,54.17029999999998 79.103657663,56.40511999999998 75.312047663,58.63485999999999 71.66082766299999,60.85512999999999 68.150267663,63.06190999999998 64.779857663,65.25136999999998 61.548287663,67.41991999999999 58.453537663,69.56442999999999 55.493167663,71.68236999999999 52.663987663,73.77161999999998 49.96209766300001,75.83051999999999 47.383147663,77.85779 44.922767663,79.85221999999999 42.576787663000005,81.81254999999999 40.34107766300001,83.73759999999999 38.211437663000005,85.62632999999998 36.184017663,87.47831 34.255347662999995,89.29410999999999 32.421397663,91.07485 30.677767663,92.82188 29.019937663,94.53679 27.443077663,96.22086999999999 25.942077663,97.87435999999998 24.512527663,99.49694999999998 23.150627663,101.08806999999999 21.852987663,102.64707999999999 20.616577662999998,104.17335999999997 19.440617662999998,105.66771 18.325987663,107.13266999999999 17.272607663000002,108.57117 16.279717663,109.98624999999998 15.346077662999999,111.38096999999999 14.470237663,112.75831 13.649585663,114.12042999999998 12.879215663,115.46752999999998 12.154587663,116.79926999999999 11.471788663,118.11513 10.827401663,119.41448999999999 10.218411663,120.69663999999999 9.642123663,121.96082999999999 9.096116663,123.20630999999999 8.578187663,124.43236999999999 8.086329663,125.63830999999999 7.618697663,126.82352999999999 7.173592663,127.98747999999999 6.749546663,129.12971 6.347617662999999,130.25059 5.971012663,131.35120999999998 5.622506663,132.43264299999998 5.304382663,133.495947 5.018494663,134.542124 4.766318663,135.572129 4.548994463,136.58684699999998 4.367205563,137.586772 4.221211563,138.572636 4.111159463,139.545957 4.037272273,140.508874 4.0,141.46403909999998 4.000158001,142.4145773 4.039135673,143.36400899999998 4.120618463,144.31356499999998 4.250785063,145.26124399999998 4.436745663,146.204076 4.6865399629999995,147.138104 5.009178663,148.058212 5.4144716630000005,148.958002 5.906329663,149.833247 6.479158663,150.68421899999998 7.125974663,151.51160399999998 7.838981663,152.31615 8.609425663,153.09868 9.427585663,153.86013 10.287823663000001,154.60191999999998 11.190219663,155.32612999999998 12.135092663,156.0351 13.122593663,156.73146 14.152637663,157.41822 15.224807663,158.09875 16.338427663,158.77667 17.494107663,159.45326 18.693347663,160.12839 19.937727663,160.80195999999998 21.228917663,161.47386999999998 22.568657663,162.14412 23.958797663,162.81275 25.401417663,163.47986999999998 26.899257663,164.14565 28.455427663,164.81028999999998 30.073197663000002,165.47404 31.756027663,166.13721999999999 33.507547663,166.80024999999998 35.331487663000004,167.46363 37.231947663,168.12765 39.213577663,168.79214 41.281437663000006,169.45687999999998 43.440957663000006,170.12169 45.69803766300001,170.78643 48.05911766300001,171.45108 50.531387663000004,172.11574 53.122897663,172.78058 55.842227663,173.44593999999998 58.698397663,174.11231999999998 61.700777663000004,174.78047999999998 64.85906766299999,175.45128999999997 68.183657663,176.12466999999998 71.685297663,176.8003 75.374807663,177.47796 79.263007663,178.15762999999998 83.36081766299999,178.8392 87.678947663,179.52168999999998 92.22704766300001,180.20403 97.01334766299999,180.88527 102.044677663,181.56455999999997 107.32584766299999,182.2404 112.85784766299999,182.91119999999998 118.637947663,183.57563 124.659247663,184.23178 130.91214766299998,184.87612 137.384847663,185.50518999999997 144.06604766299998,186.11611 150.94454766299998,186.70727 158.006547663,187.27785 165.234847663,187.8275 172.60994766299999,188.35535 180.112847663,188.85935999999998 187.72684766299997,189.33796999999998 195.438547663,189.79017 203.23714766299997,190.21549 211.11244766299998,190.61377 219.054547663,190.98507999999998 227.05484766299998,191.32952 235.105647663,191.64726 243.201047663,191.93865 251.336247663,192.20422 259.506547663,192.44463 267.70624766300006,192.66058999999998 275.928547663,192.8528 284.16664766300005,193.02103 292.416247663,193.16456 300.675847663,193.28275 308.9464476630001,193.37533 317.229247663,193.44298999999998 325.523447663,193.48656999999997 333.826147663,193.50691 342.132847663,193.50428999999997 350.439847663,193.47842 358.744647663,193.42899999999997 367.046547663,193.35574 375.345047663,193.25862999999998 383.639247663,193.13781 391.927047663,192.99346 400.20514766300005,192.82565999999997 408.47024766300007,192.63382 416.71874766300004,192.41718999999998 424.947647663,192.17505999999997 433.154147663,191.90658 441.336847663,191.61033999999998 449.496547663,191.28476999999998 457.636447663,190.92818999999997 465.761447663,190.53931 473.876047663,190.11803999999998 481.98254766300005,189.66456 490.081147663,189.17914 498.169947663,188.66189 506.24774766300004,188.11221999999998 514.315547663,187.52929 522.376547663,186.91209999999998 530.4359476630001,186.25994 538.498247663,185.57326999999998 546.5655476630001,184.85287 554.637447663,184.09972 562.711347663,183.31464 570.784947663,182.49775 578.857447663,181.64891 586.929847663,180.76779 595.004747663,179.8541 603.0837476629999,178.90803 611.166747663,177.92996999999997 619.2517476630001,176.92059999999998 627.335347663,175.88002999999998 635.416747663,174.80691 643.499647663,173.69917999999998 651.592447663,172.55406 659.707647663,171.37024 667.857947663,170.14891 676.054547663,168.89156 684.306747663,167.60005999999998 692.6203476630001,166.27828 700.992347663,164.93289 709.4077476630001,163.57279999999997 717.8399476630001,162.20886 726.2590476629999,160.85109999999997 734.644147663,159.5074 742.986047663,158.18365 751.284447663,156.88353999999998 759.5411476630001,155.60896 767.755547663,154.36193999999998 775.924447663,153.14479 784.043447663,151.96031 792.109247663,150.811318 800.121147663,149.70021699999998 808.079847663,148.62893499999998 815.986247663,147.59869099999997 823.839347663,146.610638 831.635947663,145.66608399999998 839.371147663,144.766811 847.040447663,143.915381 854.6402476630001,143.11413299999998 862.168047663,142.3650439 869.6217476630001,141.6696135 876.9984476630001,141.02903759999998 884.2945476630001,140.444359 891.505647663,139.91650399999997 898.6253476630001,139.44643299999998 905.645047663,139.034924 912.554347663,138.68270299999998 919.3436476630001,138.39239099999998 926.007047663,138.166957 932.542147663,138.008491 938.947847663,137.917769 945.221547663,137.894475 951.358547663,137.937827 957.353447663,138.047578 963.202947663,138.22407399999997 968.906147663,138.46702299999998 974.462747663,138.77445899999998 979.869847663,139.143079 985.122947663,139.57102899999998 990.2194476630001,140.0614 995.161247663,140.61898599999998 999.953847663,141.25399399999998 1003.995547663,141.8806" stroke="black" stroke-width="2.0" /></svg>