<?xml version="1.0" encoding="utf-8" ?>
<svg baseProfile="full" height="156.04108" version="1.1" width="1011.99309917" xmlns="http://www.w3.org/2000/svg" xmlns:ev="http://www.w3.org/2001/xml-events" xmlns:xlink="http://www.w3.org/1999/xlink"><defs /><polygon fill="none" points="1003.99309917,76.02054 1000.32059917,75.7954495 995.77949917,75.4303025 990.87219917,74.961405 985.5919991700001,74.416722 979.97859917,73.81820499999999 974.09249917,73.186512 967.98889917,72.544214 961.7107991700001,71.90144 955.2970991700001,71.263104 948.77719917,70.632682 942.16789917,70.01004 935.48319917,69.391556 928.73809917,68.77305799999999 921.9485991700001,68.15011799999999 915.1305991700001,67.519821 908.2976991700001,66.88229 901.4598991700001,66.237698 894.62279917,65.58587 887.78819917,64.92627999999999 880.95479917,64.25844000000001 874.1203991700002,63.58229 867.2837991700001,62.897819999999996 860.44409917,62.20509 853.60139917,61.504239999999996 846.7561991700001,60.795469999999995 839.90949917,60.078959999999995 833.0618991700001,59.35489 826.2137991700001,58.62340999999999 819.36549917,57.88464 812.51669917,57.138679999999994 805.66709917,56.38558999999999 798.81629917,55.62555 791.96369917,54.85874 785.1089991700001,54.08539 778.25199917,53.30571 771.3923991700001,52.519929999999995 764.5300991700001,51.72830999999999 757.6650991700001,50.93109 750.79749917,50.128569999999996 743.9271991700001,49.32102999999999 737.0541991700001,48.508759999999995 730.1786991700001,47.69204 723.30039917,46.871179999999995 716.41959917,46.04645 709.53599917,45.21813 702.64989917,44.386469999999996 695.76119917,43.551719999999996 688.87009917,42.71413 681.97679917,41.87396 675.08159917,41.03149 668.1845991700001,40.18699 661.28639917,39.340759999999996 654.38719917,38.49323 647.48739917,37.644859999999994 640.58749917,36.79611 633.6876991700001,35.947449999999996 626.78839917,35.09934 619.88999917,34.25223999999999 612.99289917,33.40663 606.0973991700001,32.56291999999999 599.2038991700001,31.72146 592.31289917,30.882589999999993 585.4245991700001,30.04667 578.5394991700001,29.214029999999994 571.6578991700001,28.385019999999997 564.78029917,27.559979999999996 557.9069991700001,26.73926 551.03839917,25.923359999999995 544.17469917,25.112829999999995 537.31609917,24.308199999999992 530.4626991700001,23.509999999999998 523.61449917,22.718749999999993 516.7713991700001,21.934939999999997 509.93339917000003,21.159069999999993 503.10009917,20.391599999999997 496.27129917,19.633020000000002 489.44709917,18.883809999999997 482.62749917,18.14445 475.81259917,17.41545 469.00259917,16.69731 462.19799917,15.990549999999999 455.39909916999994,15.29569 448.60649917,14.613389999999995 441.82069916999995,13.944409999999998 435.04189917,13.28949 428.27039917,12.64938 421.50639916999995,12.02478 414.74989917,11.416389999999993 408.00089916999997,10.824889999999996 401.25919917,10.250990000000002 394.52489916999997,9.695509999999999 387.79809917,9.159299999999988 381.07949916999996,8.64322 374.36979917,8.148139999999998 367.66999917000004,7.674939999999992 360.98159917,7.224469999999997 354.30579916999994,6.797650000000004 347.64429917,6.3958299999999895 340.99819917,6.020509999999987 334.36799917,5.673159999999996 327.75389917,5.355150000000009 321.15549917,5.067849999999993 314.57209917,4.812550000000002 308.00249916999996,4.590519999999998 301.44539917,4.402629999999988 294.89969917,4.2495600000000024 288.36459917,4.1320400000000035 281.83939917,4.050780000000003 275.32359916999997,4.006519999999995 268.81709917,4.0 262.31969917000004,4.031949999999995 255.83169917,4.103079999999991 249.35379916999997,4.21405 242.88699917,4.365489999999994 236.43269916999998,4.558019999999999 229.99249916999997,4.792190000000005 223.56849917,5.0685 217.16299916999998,5.387889999999999 210.77799917,5.751670000000004 204.41559917,6.161109999999994 198.07709917,6.617449999999991 191.76379917,7.121870000000001 185.47649916999998,7.675529999999995 179.21599916999998,8.279719999999998 172.98379917,8.935789999999997 166.78149917,9.645020000000002 160.61139916999997,10.40852000000001 154.47609917,11.227260000000001 148.37849917,12.102050000000006 142.32219917,13.034119999999994 136.31079917,14.024869999999993 130.34749917,15.075569999999999 124.43569916999999,16.187299999999993 118.57829917,17.360969999999995 112.77839917,18.597209999999997 107.04099916999999,19.895940000000003 101.37299917,21.256279999999997 95.78299916999998,22.67645999999999 90.28072917,24.15385 84.87763917,25.68558 79.59066917,27.26853 74.44188917,28.896749999999997 69.45543916999999,30.56158 64.65433917,32.25243 60.058749170000006,33.95881 55.68456917,35.67164 51.54083917,37.38231999999999 47.62984917,39.0832 43.94814917,40.7679 40.49103917,42.43183 37.262279170000006,44.068529999999996 34.268759169999996,45.66739 31.51255917,47.21762 28.98802917,48.710879999999996 26.682579170000004,50.142379999999996 24.57951917,51.51138999999999 22.65822917,52.82177 20.89666917,54.0796 19.27437917,55.291399999999996 17.77351917,56.46331 16.37894917,57.60087 15.077959170000002,58.70889 13.860700170000001,59.79226 12.723220170000001,60.85662 11.664986169999999,61.90446 10.686219170000001,62.935559999999995 9.78660417,63.948159999999994 8.96464617,64.94 8.21750417,65.90886 7.54118017,66.85302 6.93085317,67.771374 6.382316169999999,68.662936 5.89523217,69.525937 5.46840717,70.360822 5.0995111699999995,71.169811 4.78606907,71.95590899999999 4.52595757,72.722414 4.31765167,73.472702 4.16036037,74.210163 4.05413508,74.938226 4.0,75.66044409999999 4.0,76.3806359 4.05413508,77.102854 4.16036037,77.830917 4.31765167,78.568378 4.52595757,79.318666 4.78606907,80.085171 5.0995111699999995,80.871269 5.46840717,81.680258 5.89523217,82.515143 6.382316169999999,83.37814399999999 6.93085317,84.269706 7.54118017,85.18806 8.21750417,86.13221999999999 8.96464617,87.10108 9.78660417,88.09291999999999 10.686219170000001,89.10552 11.664986169999999,90.13662 12.723220170000001,91.18446 13.860700170000001,92.24882 15.077959170000002,93.33219 16.37894917,94.44021 17.77351917,95.57776999999999 19.27437917,96.74968 20.89666917,97.96148 22.65822917,99.21931 24.57951917,100.52969 26.682579170000004,101.89869999999999 28.98802917,103.33019999999999 31.51255917,104.82346 34.268759169999996,106.37369 37.262279170000006,107.97255 40.49103917,109.60925 43.94814917,111.27318 47.62984917,112.95787999999999 51.54083917,114.65876 55.68456917,116.36944 60.058749170000006,118.08227 64.65433917,119.78864999999999 69.45543916999999,121.4795 74.44188917,123.14433 79.59066917,124.77255 84.87763917,126.35549999999999 90.28072917,127.88722999999999 95.78299916999998,129.36462 101.37299917,130.7848 107.04099916999999,132.14514 112.77839917,133.44387 118.57829917,134.68011 124.43569916999999,135.85378 130.34749917,136.96551 136.31079917,138.01621 142.32219917,139.00696 148.37849917,139.93903 154.47609917,140.81382 160.61139916999997,141.63255999999998 166.78149917,142.39605999999998 172.98379917,143.10529 179.21599916999998,143.76136 185.47649916999998,144.36554999999998 191.76379917,144.91921 198.07709917,145.42363 204.41559917,145.87997000000001 210.77799917,146.28940999999998 217.16299916999998,146.65319 223.56849917,146.97258 229.99249916999997,147.24889 236.43269916999998,147.48306 242.88699917,147.67559 249.35379916999997,147.82702999999998 255.83169917,147.938 262.31969917000004,148.00913 268.81709917,148.04108 275.32359916999997,148.03456 281.83939917,147.9903 288.36459917,147.90904 294.89969917,147.79152 301.44539917,147.63845 308.00249916999996,147.45056 314.57209917,147.22852999999998 321.15549917,146.97323 327.75389917,146.68592999999998 334.36799917,146.36792 340.99819917,146.02057000000002 347.64429917,145.64525 354.30579916999994,145.24343 360.98159917,144.81661 367.66999917000004,144.36614 374.36979917,143.89294 381.07949916999996,143.39785999999998 387.79809917,142.88178 394.52489916999997,142.34557 401.25919917,141.79009 408.00089916999997,141.21618999999998 414.74989917,140.62469 421.50639916999995,140.0163 428.27039917,139.3917 435.04189917,138.75159 441.82069916999995,138.09667 448.60649917,137.42768999999998 455.39909916999994,136.74539 462.19799917,136.05052999999998 469.00259917,135.34377 475.81259917,134.62563 482.62749917,133.89663 489.44709917,133.15726999999998 496.27129917,132.40805999999998 503.10009917,131.64947999999998 509.93339917000003,130.88201 516.7713991700001,130.10613999999998 523.61449917,129.32233 530.4626991700001,128.53108 537.31609917,127.73288 544.17469917,126.92824999999999 551.03839917,126.11771999999999 557.9069991700001,125.30181999999999 564.78029917,124.4811 571.6578991700001,123.65606 578.5394991700001,122.82705 585.4245991700001,121.99440999999999 592.31289917,121.15849 599.2038991700001,120.31961999999999 606.0973991700001,119.47816 612.99289917,118.63444999999999 619.88999917,117.78884 626.78839917,116.94174 633.6876991700001,116.09362999999999 640.58749917,115.24497 647.48739917,114.39622 654.38719917,113.54785 661.28639917,112.70032 668.1845991700001,111.85408999999999 675.08159917,111.00959 681.97679917,110.16712 688.87009917,109.32695 695.76119917,108.48936 702.64989917,107.65460999999999 709.53599917,106.82294999999999 716.41959917,105.99463 723.30039917,105.1699 730.1786991700001,104.34904 737.0541991700001,103.53232 743.9271991700001,102.72005 750.79749917,101.91251 757.6650991700001,101.10999 764.5300991700001,100.31277 771.3923991700001,99.52115 778.25199917,98.73536999999999 785.1089991700001,97.95569 791.96369917,97.18234 798.81629917,96.41552999999999 805.66709917,95.65549 812.51669917,94.9024 819.36549917,94.15644 826.2137991700001,93.41767 833.0618991700001,92.68619 839.90949917,91.96212 846.7561991700001,91.24561 853.60139917,90.53684 860.44409917,89.83599 867.2837991700001,89.14326 874.1203991700002,88.45879 880.95479917,87.78264 887.78819917,87.1148 894.62279917,86.45521 901.4598991700001,85.803382 908.2976991700001,85.15879 915.1305991700001,84.521259 921.9485991700001,83.890962 928.73809917,83.268022 935.48319917,82.649524 942.16789917,82.03103999999999 948.77719917,81.40839799999999 955.2970991700001,80.777976 961.7107991700001,80.13964 967.98889917,79.496866 974.09249917,78.854568 979.97859917,78.222875 985.5919991700001,77.624358 990.87219917,77.079675 995.77949917,76.6107775 1000.32059917,76.24563049999999 1003.99309917,76.02054" stroke="black" stroke-width="2.0" /></svg>