<?xml version="1.0" encoding="utf-8" ?>
<svg baseProfile="full" height="105.29479" version="1.1" width="1011.9125168" xmlns="http://www.w3.org/2000/svg" xmlns:ev="http://www.w3.org/2001/xml-events" xmlns:xlink="http://www.w3.org/1999/xlink"><defs /><polygon fill="none" points="1003.9125168,80.63486 1000.8253168000001,80.3379738 996.6150168000001,79.90859780000001 991.7941168000001,79.383848 986.5377168,78.774826 980.9407168,78.093269 975.1015168,77.358508 969.1146168,76.59090900000001 963.0548168,75.801339 956.9728168,74.99646100000001 950.8874168,74.17912100000001 944.7933168,73.34970200000001 938.6836168,72.50888 932.5560168,71.65795 926.4129168000001,70.798871 920.2605168000001,69.93356 914.1054168000001,69.06294 907.9520168,68.18755 901.8023168,67.30763 895.6563168,66.42311000000001 889.5119168000001,65.53376 883.3669168,64.6396 877.2196168,63.740750000000006 871.0692168,62.83744 864.9153168,61.929990000000004 858.7587168,61.01884 852.6002168000001,60.104380000000006 846.4408168000001,59.18685000000001 840.2811168000001,58.266450000000006 834.1215168,57.34335 827.9619168,56.417640000000006 821.8019168000001,55.48939 815.6411168000001,54.558690000000006 809.4786168,53.6258 803.3140168,52.69104 797.1471168,51.754740000000005 790.9778168,50.81729 784.8061168,49.879090000000005 778.6324168000001,48.94059000000001 772.4571168000001,48.00213000000001 766.2809168,47.063880000000005 760.1044168000001,46.126 753.9281168,45.18865 747.7525168,44.251960000000004 741.5784168,43.31608 735.4061168000001,42.381170000000004 729.2362168000001,41.447430000000004 723.0691168000001,40.515260000000005 716.9050168000001,39.58512 710.7439168000001,38.657410000000006 704.5859168000001,37.73252000000001 698.4304168000001,36.81080000000001 692.2772168000001,35.8926 686.1255168,34.97823 679.9748168000001,34.067840000000004 673.8244168000001,33.16148 667.6739168,32.25921 661.5233168000001,31.36112 655.3727168000001,30.467320000000008 649.2223168,29.57797 643.0726168000001,28.693250000000006 636.9243168,27.81339 630.7782168,26.938950000000006 624.6351168000001,26.070750000000004 618.4957168000001,25.20962 612.3605168,24.356350000000006 606.2302168,23.511740000000003 600.1053168,22.676550000000006 593.9862168000001,21.85154 587.8732168,21.037460000000003 581.7666168000001,20.23516 575.6665168000001,19.44556 569.5729168,18.669570000000007 563.4852168000001,17.908030000000004 557.4031168000001,17.16178 551.3256168,16.43162000000001 545.2518168,15.718320000000006 539.1807168,15.022630000000007 533.1108168000001,14.344930000000005 527.0414168000001,13.685330000000008 520.9718168,13.043999999999997 514.9016167999999,12.421120000000002 508.83081680000004,11.816900000000004 502.7596168,11.231610000000003 496.68841679999997,10.66552 490.6182168,10.118920000000003 484.5498168,9.59232999999999 478.4841168,9.086380000000005 472.4215168,8.601690000000005 466.3624168,8.138840000000016 460.30691679999995,7.698400000000007 454.2546168,7.280900000000003 448.20521679999996,6.886870000000002 442.1579168,6.51682000000001 436.1120168,6.171049999999994 430.0669168,5.849740000000011 424.02231679999994,5.553120000000007 417.9780168,5.281400000000005 411.9342168,5.034840000000003 405.8911168,4.813659999999999 399.8494168,4.618129999999994 393.8098168,4.448520000000002 387.7730168,4.305250000000001 381.73971679999994,4.188789999999997 375.7103168,4.099590000000006 369.6847168,4.038090000000011 363.6629168,4.004750000000001 357.6444168,4.0 351.6285168,4.02431 345.6145168,4.077930000000009 339.6013168,4.160750000000007 333.58851680000004,4.272630000000007 327.5752168,4.4134400000000085 321.5611168,4.58308000000001 315.5457168,4.781420000000011 309.5289168,5.0083800000000025 303.5106168,5.263829999999999 297.4906168,5.547579999999996 291.4694168,5.85942 285.4471168,6.199100000000001 279.4245168,6.566379999999995 273.40241679999997,6.96096 267.3819168,7.382540000000006 261.3641168,7.830829999999992 255.35031679999997,8.305989999999994 249.34171679999997,8.808350000000004 243.33911679999997,9.338260000000005 237.3431168,9.896090000000001 231.35401679999998,10.48221000000001 225.37181679999998,11.097040000000007 219.3964168,11.74099000000001 213.4277168,12.414560000000009 207.4657168,13.118189999999998 201.5111168,13.85229000000001 195.56461679999998,14.617249999999999 189.6272168,15.413359999999997 183.7002168,16.240920000000003 177.78531679999998,17.100500000000004 171.88391679999998,17.99293000000001 165.9971168,18.919080000000008 160.1259168,19.87984 154.2707168,20.876110000000004 148.43181679999998,21.908870000000007 142.61001679999998,22.979460000000003 136.80671679999998,24.089410000000008 131.02491679999997,25.239910000000002 125.2687168,26.431849999999997 119.5431168,27.665720000000007 113.8541168,28.941810000000004 108.2062168,30.26122000000001 102.6001068,31.626020000000004 97.03224680000001,33.03924000000001 91.4955168,34.50502 85.98000680000001,36.028940000000006 80.48366680000001,37.616580000000006 75.0245968,39.268100000000004 69.64078680000001,40.97616000000001 64.3850568,42.72594 59.3086668,44.50161000000001 54.4183768,46.30319 49.671906799999995,48.14878 44.9927168,50.07358000000001 40.282466799999995,52.13113 35.5671768,54.331950000000006 31.1308568,56.551970000000004 27.2918068,58.60627 24.113116799999997,60.422290000000004 21.435816799999998,62.06215 19.0915068,63.605990000000006 16.9609168,65.11995 14.954406800000001,66.66667000000001 13.015706800000002,68.28931 11.2162988,69.91193 9.6832918,71.38123300000001 8.439522799999999,72.62878 7.4284418,73.677521 6.6030088,74.57732200000001 5.9319038,75.376654 5.386468799999999,76.109176 4.9460908,76.79728800000001 4.5971193,77.456522 4.3310257,78.098483 4.1432028,78.73264300000001 4.0323815,79.367545 4.0,80.01134160000001 4.0441069,80.66746585 4.1617267,81.3356023 4.3527277,82.014515 4.6194802,82.701633 4.9666898,83.39219700000001 5.4012718,84.07778 5.9319418,84.744044 6.5703208,85.379146 7.3330758,85.981874 8.241847799999999,86.55273100000001 9.3248538,87.09429300000001 10.6186838,87.61371100000001 12.1685648,88.12867700000001 14.020656800000001,88.681009 16.224716800000003,89.31578400000001 18.8388068,90.034835 21.8384568,90.80254000000001 25.0989368,91.55213 28.5527568,92.23629 32.2701168,92.8568 36.3587168,93.42844000000001 40.9399368,93.96544 46.0912868,94.48281 51.713056800000004,94.97779 57.560946799999996,95.42315 63.4117868,95.80347 69.18049680000001,96.12039 74.9107768,96.384 80.6680868,96.60333 86.49660680000001,96.7848 92.4186768,96.93349 98.43085680000002,97.05389 104.5058168,97.14866 110.6136168,97.21864000000001 116.7317168,97.26515 122.84671680000001,97.2899 128.9542168,97.29479 135.0584168,97.28163 141.1671168,97.2519 147.28601679999997,97.20691000000001 153.4189168,97.14798 159.5675168,97.07644 165.7311168,96.99362 171.90701679999998,96.90085 178.0915168,96.79881 184.2814168,96.68802000000001 190.4746168,96.56897000000001 196.6693168,96.44218000000001 202.8649168,96.30815 209.0614168,96.16734 215.2596168,96.02023 221.4605168,95.86723 227.6647168,95.70877 233.8726168,95.54527 240.08431679999998,95.37717 246.2999168,95.20492 252.5190168,95.02896 258.7408168,94.84974 264.9648168,94.66748000000001 271.1904168,94.48236 277.4171168,94.29455 283.64471679999997,94.10421000000001 289.8730168,93.91151 296.1020168,93.7166 302.3318168,93.51965 308.56281679999995,93.32082 314.7951168,93.12034 321.0291168,92.91844 327.26481679999995,92.71537000000001 333.5024168,92.51137 339.7417168,92.30667 345.98281679999997,92.10154 352.22541679999995,91.89621 358.4693168,91.6909 364.7130168,91.48568 370.9559168,91.28056000000001 377.1983168,91.07552 383.44051679999995,90.87053 389.6829168,90.66558 395.9258168,90.460648 402.1694168,90.255705 408.41331679999996,90.050773 414.6557168,89.84601500000001 420.8964168,89.641639 427.1353168,89.437848 433.3725168,89.234842 439.6079168,89.03281700000001 445.8418168,88.83196600000001 452.07451679999997,88.63247700000001 458.3065168,88.434537 464.5381168,88.238287 470.7701168,88.043678 477.0026168,87.85060800000001 483.2360168,87.658981 489.4705168,87.468704 495.7059168,87.279689 501.9423168,87.091849 508.1793168,86.905105 514.4167167999999,86.71937700000001 520.6538168,86.53465800000001 526.8903168,86.351087 533.1259168,86.168825 539.3602168,85.988026 545.5931168,85.808841 551.8247168,85.631418 558.0550168,85.455903 564.2842168000001,85.282437 570.5126168,85.11115600000001 576.7406168,84.94212 582.9685168000001,84.775295 589.1965168,84.610646 595.4249168000001,84.448141 601.6538168000001,84.287749 607.8832168,84.129441 614.1131168000001,83.973191 620.3433168,83.818973 626.5736168,83.666773 632.8038168,83.51664000000001 639.0338168000001,83.368655 645.2633168000001,83.22289500000001 651.4922168,83.07943800000001 657.7205168,82.938362 663.9481168,82.79974 670.1750168,82.663647 676.4012168,82.530158 682.6268168,82.399332 688.8518168,82.271214 695.0764168000001,82.145844 701.3007168,82.023264 707.5247168000001,81.903516 713.7485168000001,81.786642 719.9722168000001,81.672684 726.1960168,81.56168240000001 732.4199168000001,81.4536677 738.6441168000001,81.3486424 744.8686168,81.2466064 751.0932168,81.14756100000001 757.3180168,81.0515081 763.5427168000001,80.95845030000001 769.7672168,80.8683908 775.9911168,80.7813362 782.2141168,80.69736162000001 788.4360168000001,80.61660879 794.6567168,80.53922025 800.8763168,80.4653369 807.0946168,80.3950981 813.3121168,80.3286424 819.5290168,80.2661069 825.7456168,80.20757950000001 831.9624168,80.1530679 838.1793168,80.1025741 844.3965168000001,80.0561019 850.6137168000001,80.0136559 856.8305168,79.9752411 863.0465168,79.94087590000001 869.2611168000001,79.9107099 875.4739168000001,79.8849663 881.6848168,79.8638669 887.8939168,79.8476325 894.1017168000001,79.8364834 900.3088168,79.830612 906.5157168000001,79.8299987 912.7231168000001,79.834529 918.9313168000001,79.84408930000001 925.1405168000001,79.8585668 931.3507168,79.87783780000001 937.5614168000001,79.901647 943.7714168000001,79.9296448 949.9786168,79.9614719 956.1799168,79.9967673 962.3688168000001,80.0356644 968.5249168,80.0789913 974.6103168000001,80.1274054 980.5716168,80.1819126 986.3143168,80.2467053 991.6986168000001,80.324657 996.5873168,80.41805140000001 1000.8167168000001,80.52925470000001 1003.9125168,80.63486" stroke="black" stroke-width="2.0" /></svg>