<?xml version="1.0" encoding="utf-8" ?>
<svg baseProfile="full" height="132.78942999999998" version="1.1" width="1011.9333137" xmlns="http://www.w3.org/2000/svg" xmlns:ev="http://www.w3.org/2001/xml-events" xmlns:xlink="http://www.w3.org/1999/xlink"><defs /><polygon fill="none" points="1003.9333137,94.11740999999999 1000.7645137000001,93.66415529999999 996.6986136999999,93.02369399999999 992.1788137,92.24844399999999 987.2216137,91.34523499999999 981.8586137,90.326348 976.1544137,89.21245599999999 970.1990137,88.035806 964.0847137,86.82491399999999 957.8898137,85.60156799999999 951.6620137,84.38171799999999 945.4124137,83.17205 939.1382136999999,81.97188999999999 932.8375136999999,80.78009999999999 926.5103137,79.59586999999999 920.1579136999999,78.41854 913.7830137,77.24700999999999 907.3884136999999,76.08008 900.9772137,74.91655 894.5525137000001,73.7552 888.1178137,72.59523999999999 881.6759137,71.43679999999999 875.2292137,70.28003 868.7798137,69.12500999999999 862.3291137,67.97171999999999 855.8779137,66.82006999999999 849.4268137,65.67012 842.9762137,64.52202999999999 836.5260136999999,63.37590999999999 830.0763136999999,62.23187 823.6268137,61.089969999999994 817.1772137,59.95024999999999 810.7270136999999,58.812639999999995 804.2760136999999,57.67708999999999 797.8242137,56.54355999999999 791.3718137000001,55.41205999999999 784.9190136999999,54.28261999999999 778.4666136999999,53.155319999999996 772.0153137,52.030339999999995 765.5657137,50.908069999999995 759.1184137,49.78888999999999 752.6736137,48.673159999999996 746.2314137,47.56117999999999 739.7918136999999,46.45322999999999 733.3543136999999,45.34955999999999 726.9186137,44.25032999999999 720.4840137,43.15565999999999 714.0504136999999,42.065639999999995 707.6175137,40.98042999999999 701.1853136999999,39.900169999999996 694.7540137,38.82505999999999 688.3239136999999,37.75529999999999 681.8953137,36.691159999999996 675.4686136999999,35.633039999999994 669.0444137,34.58136999999999 662.6229137,33.536579999999994 656.2042137,32.499089999999995 649.7886137,31.469269999999987 643.3761137,30.447519999999983 636.9667136999999,29.434189999999987 630.5604137,28.429739999999995 624.1572137,27.434730000000002 617.7574136999999,26.449749999999995 611.3612137,25.47542999999999 604.9694136999999,24.51240999999999 598.5826137,23.56134999999999 592.2017137,22.62290999999999 585.8279137000001,21.697829999999996 579.4620136999999,20.787209999999988 573.1048137,19.892259999999993 566.7569136999999,19.014149999999987 560.4185137,18.153989999999993 554.0894137,17.312839999999994 547.7694137,16.491699999999994 541.4579137,15.691559999999981 535.1541137,14.913259999999994 528.8572137,14.157439999999994 522.5665137,13.424689999999998 516.2813137,12.715609999999998 510.0008137,12.030799999999985 503.72441369999996,11.37088 497.4516137,10.736469999999997 491.18181369999996,10.128209999999996 484.91441369999995,9.546570000000003 478.6490137,8.991869999999992 472.3855137,8.464399999999998 466.12361369999996,7.964489999999998 459.86341369999997,7.49245999999998 453.6047137,7.048659999999998 447.34781369999996,6.633420000000001 441.09291369999994,6.247100000000003 434.84031369999997,5.890069999999994 428.59031369999997,5.562719999999985 422.3431137,5.265409999999989 416.0988137,4.998509999999996 409.8576137,4.762379999999993 403.61951369999997,4.557389999999984 397.3845137,4.383879999999991 391.1525137,4.242209999999986 384.9237137,4.1326700000000045 378.6981137,4.055579999999992 372.4756137,4.011259999999993 366.2566137,4.0 360.0411137,4.022120000000001 353.82931369999994,4.077919999999992 347.6215137,4.16771 341.4179137,4.29164999999999 335.21831369999995,4.449929999999995 329.02271369999994,4.642739999999989 322.8305137,4.870269999999991 316.64111369999995,5.1327500000000015 310.4536137,5.430449999999993 304.2671137,5.763580000000005 298.0804137,6.1320499999999925 291.89311369999996,6.535629999999998 285.7049137,6.97408999999999 279.5163137,7.4471499999999935 273.3278137,7.954489999999993 267.1409137,8.495739999999998 260.95711370000004,9.070589999999996 254.77831369999998,9.679129999999986 248.6059137,10.321549999999988 242.4410137,10.998049999999992 236.28471370000003,11.708829999999992 230.1373137,12.454149999999984 223.99931370000002,13.234250000000003 217.8706137,14.049539999999993 211.75161370000004,14.900469999999999 205.64311370000001,15.78743999999999 199.5463137,16.710799999999992 193.46261370000002,17.670789999999982 187.39401370000002,18.667559999999995 181.34261370000002,19.70138999999999 175.31061370000003,20.773009999999985 169.29991370000002,21.88324999999999 163.3115137,23.032979999999995 157.3463137,24.22314999999999 151.40461370000003,25.45474999999999 145.4866137,26.728970000000004 139.59361370000002,28.047039999999996 133.7281137,29.409869999999998 127.8944137,30.817899999999987 122.0976137,32.27110999999999 116.3442137,33.76909999999999 110.64071369999999,35.31226999999999 104.99131369999999,36.90187999999999 99.3971037,38.539759999999994 93.8570737,40.22838999999999 88.3680037,41.971 82.9303637,43.771049999999995 77.55745370000001,45.628159999999994 72.2752737,47.53637 67.1190737,49.48425999999999 62.1275137,51.457179999999994 57.3259437,53.446529999999996 52.713563699999995,55.45316 48.2715937,57.48509999999999 43.97110369999999,59.55611999999999 39.7983037,61.676219999999994 35.8156937,63.81599999999999 32.1373337,65.90656999999999 28.8524637,67.87716999999999 25.9825937,69.69028999999999 23.4839337,71.35726999999999 21.282763699999997,72.91153999999999 19.3137337,74.38528 17.5260937,75.80551 15.8819137,77.19443999999999 14.3528237,78.5693 12.9289977,79.92965999999998 11.6203267,81.25428 10.439190700000001,82.51529 9.3887267,83.69191 8.4610447,84.77595899999999 7.6417607,85.769595 6.9218347,86.681579 6.2984247,87.52617599999999 5.7637827,88.318174 5.3095666999999995,89.070135 4.9287626,89.792288 4.6160999,90.49301799999999 4.3680229,91.17943 4.1825991,91.85783199999999 4.0594915,92.53415899999999 4.0,93.21434609999999 4.00418728,93.902532 4.0694805,94.59958069999999 4.1947592,95.305628 4.3804314,96.02022899999999 4.6282659,96.74215099999999 4.941303700000001,97.46901899999999 5.3237787,98.19674799999999 5.7809337,98.91865399999999 6.3186897,99.625396 6.9441757,100.313724 7.6659167,100.984724 8.4936907,101.64029199999999 9.4385487,102.28356799999999 10.5125667,102.919675 11.727947700000001,103.556935 13.094626700000001,104.20885 14.6156237,104.89634 16.2991437,105.63363 18.1643437,106.42051 20.2259037,107.25111999999999 22.490633699999997,108.11346999999999 24.9604337,108.99108999999999 27.6445437,109.86779999999999 30.5755037,110.73657 33.7998437,111.60029999999999 37.3720837,112.46382999999999 41.3488437,113.33322999999999 45.766113700000005,114.21499 50.5991137,115.10632999999999 55.7599637,115.98203 61.1276237,116.81539 66.60047370000001,117.59034 72.1412137,118.30489 77.76585370000001,118.9649 83.4927337,119.57585999999999 89.33103369999999,120.14215999999999 95.27797369999999,120.66739999999999 101.3162037,121.15422999999998 107.4209137,121.60279 113.5705137,122.01325999999999 119.7487137,122.38681 125.9458137,122.72543999999999 132.1591137,123.03169999999999 138.39091370000003,123.30778999999998 144.6439137,123.55536 150.91921370000003,123.77605 157.2169137,123.97140999999999 163.53561370000003,124.14304999999999 169.8727137,124.29247 176.2249137,124.42063999999999 182.58921370000002,124.52829999999999 188.96361370000002,124.61623999999999 195.34631370000002,124.68529 201.7363137,124.73630999999999 208.1333137,124.77017 214.5375137,124.78765999999999 220.94921370000003,124.78943 227.3682137,124.77610999999999 233.79471370000002,124.74837 240.22811370000002,124.70685999999999 246.66801370000002,124.65223999999999 253.1137137,124.58518 259.56441370000005,124.50610999999999 266.0193137,124.41529 272.4776137,124.31298999999999 278.9384137,124.19945999999999 285.4011137,124.07498999999999 291.8650137,123.93984999999999 298.3293137,123.79432 304.79341370000003,123.63855999999998 311.2569137,123.47255999999999 317.7195137,123.29625999999999 324.1811137,123.10963999999998 330.6419137,122.91263 337.1024137,122.70517999999998 343.56301369999994,122.48722 350.0246137,122.25871 356.4881137,122.01987 362.9544137,121.77108999999999 369.4242137,121.51275999999999 375.89791369999995,121.24525 382.3762137,120.96897999999999 388.85911369999997,120.68432999999999 395.34701369999993,120.39171999999999 401.8399137,120.09155999999999 408.33761369999996,119.78432 414.8403137,119.47048999999998 421.3477137,119.15057999999999 427.85981369999996,118.82506 434.3767137,118.49444999999999 440.8982137,118.15924 447.4242137,117.81993999999999 453.9548137,117.47704999999999 460.48981369999996,117.13096999999999 467.0291137,116.78208 473.57251369999994,116.43073999999999 480.1197137,116.07732999999999 486.6703137,115.72223 493.2239137,115.36582999999999 499.78011369999996,115.00851999999999 506.33821370000004,114.6507 512.8977136999999,114.29262 519.4579137,113.93441999999999 526.0184137,113.57621999999999 532.5787137,113.21813 539.1384137,112.86025999999998 545.6972136999999,112.50271999999998 552.2550137000001,112.14560999999999 558.8114137,111.78902 565.3665136999999,111.43307999999999 571.9203137,111.07790999999999 578.4726137,110.72367 585.0234137,110.37047999999999 591.5730136999999,110.01849999999999 598.1212137,109.66785999999999 604.6682136999999,109.31868999999999 611.2142137,108.97112999999999 617.7592137,108.62531 624.3035136999999,108.28128 630.8471136999999,107.93911 637.3901137,107.59885 643.9326137,107.26056999999999 650.4747137,106.92432 657.0163137,106.59016 663.5574137,106.25815999999999 670.0980137,105.92839 676.6380137,105.60094 683.1773136999999,105.27591999999999 689.7158136999999,104.95343 696.2535137,104.63358 702.7902137,104.31648999999999 709.3257137,104.00224399999999 715.8601136999999,103.69096499999999 722.3931137,103.38276199999999 728.9246137,103.07776899999999 735.4546137,102.776118 741.9833136999999,102.47793999999999 748.5107136999999,102.183358 755.0372137,101.892495 761.5629137,101.605469 768.0885137,101.32239 774.6143136999999,101.043268 781.1406137,100.76804399999999 787.6677137,100.496663 794.1954136999999,100.229075 800.7238136999999,99.965239 807.2526137,99.70511599999999 813.7812137,99.44868299999999 820.3092137,99.19603099999999 826.8361137,98.94733699999999 833.3617137,98.702778 839.8858137,98.46252399999999 846.4082137,98.226739 852.9290137,97.995583 859.4485137,97.76918199999999 865.9668137,97.54757699999999 872.4844137,97.33079 879.0019136999999,97.118844 885.5199137,96.911756 892.0392137,96.709532 898.5606137,96.51160899999999 905.0848136999999,96.31655199999999 911.6115136999999,96.122868 918.1404137000001,95.929075 924.6704136999999,95.73370899999999 931.1996137,95.53611199999999 937.7230136999999,95.33712499999999 944.2317137,95.13786599999999 950.7127137,94.93956499999999 957.1488137,94.74415099999999 963.5079137,94.55627679999999 969.7367137,94.38139319999999 975.7700136999999,94.22461879999999 981.5379137,94.09568544 986.9666137,94.00750509999999 991.9984137,93.96671959999999 996.5965137,93.97601829999999 1000.7278137,94.03412628 1003.9333137,94.11740999999999" stroke="black" stroke-width="2.0" /></svg>