<?xml version="1.0" encoding="utf-8" ?>
<svg baseProfile="full" height="118.63218" version="1.1" width="1011.97868189" xmlns="http://www.w3.org/2000/svg" xmlns:ev="http://www.w3.org/2001/xml-events" xmlns:xlink="http://www.w3.org/1999/xlink"><defs /><polygon fill="none" points="1003.97868189,86.20905 1000.71968189,85.8417254 996.4778818899999,85.3096685 991.7514818899999,84.65571800000001 986.6116818899999,83.88869600000001 981.1092818899999,83.02168900000001 975.31458189,82.07809900000001 969.3179818899999,81.09020000000001 963.2085818899999,80.081772 957.05658189,79.069547 950.8978818899999,78.064766 944.7355818899999,77.07107400000001 938.56368189,76.08755000000001 932.37768189,75.11332 926.17468189,74.14778000000001 919.95338189,73.19021000000001 913.71408189,72.23894 907.45778189,71.29214 901.18658189,70.34813 894.9031818899999,69.40528 888.6110818899999,68.46252000000001 882.31358189,67.51999 876.0132818899999,66.57793000000001 869.71238189,65.63649000000001 863.41188189,64.69569000000001 857.11248189,63.755480000000006 850.8141818899999,62.815830000000005 844.51678189,61.876780000000004 838.21988189,60.93842000000001 831.92348189,60.00079000000001 825.62728189,59.063950000000006 819.3308818899999,58.12796 813.03398189,57.192820000000005 806.73638189,56.25846000000001 800.43808189,55.32481 794.13918189,54.391830000000006 787.8397818899999,53.45949000000001 781.54018189,52.52779000000001 775.24098189,51.59675000000001 768.94258189,50.66651000000001 762.6454818899999,49.73736 756.34998189,48.809560000000005 750.05608189,47.88336 743.76398189,46.958980000000004 737.47348189,46.03661000000001 731.18428189,45.116440000000004 724.8958818899999,44.19859 718.60818189,43.28307 712.32068189,42.36992000000001 706.03338189,41.45918000000001 699.7459818899999,40.55089 693.45868189,39.64513 687.17148189,38.74197 680.88468189,37.84151000000001 674.59828189,36.943940000000005 668.3126818899999,36.04948 662.02808189,35.15838000000001 655.74458189,34.27085000000001 649.46238189,33.38712 643.1816818899999,32.50741 636.90248189,31.631940000000007 630.62488189,30.760920000000006 624.34908189,29.894670000000005 618.07498189,29.033490000000008 611.8027818899999,28.1777 605.5323818899999,27.327630000000006 599.26378189,26.483580000000003 592.99708189,25.645870000000002 586.7320818899999,24.81479000000001 580.46898189,23.99067000000001 574.20758189,23.173930000000006 567.9480818899999,22.365009999999998 561.69058189,21.564390000000003 555.43538189,20.772530000000003 549.18288189,19.989919999999998 542.93358189,19.217060000000004 536.6879818900001,18.454430000000002 530.44688189,17.702610000000007 524.2107818899999,16.962480000000014 517.9801818899999,16.234980000000007 511.75538188999997,15.521060000000006 505.53668188999995,14.82162000000001 499.32408189,14.137529999999998 493.11738189,13.469660000000005 486.91648189,12.818840000000009 480.72098189,12.185870000000008 474.53048189000003,11.571460000000002 468.34478189000004,10.97627 462.16338189000004,10.400970000000001 455.98618189,9.846260000000001 449.81298189000006,9.31280000000001 443.64348189000003,8.801289999999995 437.47758189000007,8.312389999999994 431.31508189000004,7.846760000000003 425.15598189,7.404970000000006 419.00018189,6.987549999999999 412.84768189,6.595040000000012 406.69848189000004,6.227980000000002 400.55258189,5.88691 394.40988189,5.572360000000003 388.27038189,5.284880000000001 382.13408189,5.025000000000006 376.00118189,4.793210000000002 369.87178189,4.590029999999999 363.74598189000005,4.4159600000000125 357.62398189000004,4.271510000000006 351.50598189,4.15719 345.39218189,4.073490000000007 339.28288189,4.020910000000001 333.17838189,4.0 327.07908189000005,4.011330000000001 320.98498189000003,4.0554500000000075 314.89638189000004,4.132909999999995 308.81338189,4.24427 302.73598189,4.390070000000009 296.66428189,4.570869999999999 290.59818189000003,4.787050000000008 284.53778189,5.038950000000014 278.48258189000006,5.326909999999998 272.43258189000005,5.651290000000003 266.38728189,6.012460000000004 260.34628189,6.410809999999998 254.30888188999998,6.846720000000005 248.27468189,7.320310000000006 242.24328189,7.831519999999998 236.21478188999998,8.380320000000012 230.18928189,8.966620000000006 224.16738188999997,9.590330000000009 218.14988189,10.2513 212.13788189,10.949489999999997 206.13258188999998,11.685200000000009 200.13548189,12.458760000000012 194.14788189,13.270440000000008 188.17118188999999,14.120520000000013 182.20708189,15.009170000000012 176.25688189,15.93668000000001 170.32248189,16.903729999999996 164.40508189,17.91121000000001 158.50598189,18.959990000000005 152.62588189,20.050970000000007 146.76558189,21.18507000000001 140.92558189,22.363360000000007 135.10718189,23.5873 129.31298189,24.858090000000004 123.54698189000001,26.176560000000002 117.81438189,27.543100000000003 112.12138189,28.957660000000004 106.47428189000001,30.420830000000002 100.87733189000001,31.934310000000004 95.33106189,33.500530000000005 89.83315189000001,35.12276000000001 84.37865189,36.805220000000006 78.96554189000001,38.55286 73.60611189000001,40.36693 68.32808189,42.242230000000006 63.17095189,44.16698 58.17874189,46.12548 53.375991889999995,48.11029 48.75289189,50.126920000000005 44.27648189,52.19142000000001 39.90096189,54.32938000000001 35.62669189,56.55144 31.58176189,58.796890000000005 27.94246189,60.953950000000006 24.801581889999998,62.93488000000001 22.12887189,64.72975000000001 19.82159189,66.38353000000001 17.78468189,67.94425000000001 15.94806189,69.45144 14.260811890000001,70.93844 12.689363890000001,72.42909 11.24078389,73.9073 9.947853890000001,75.32149000000001 8.82925889,76.624222 7.87584889,77.796886 7.062540889999999,78.84519300000001 6.3707468899999995,79.785898 5.79058889,80.641202 5.30837789,81.432139 4.91208889,82.17528 4.59276329,82.88333700000001 4.34432779,83.56631200000001 4.16321279,84.23247 4.04811603,84.889092 4.0,85.5431154 4.02140189,86.20128657100001 4.11106629,86.86755050000001 4.26766329,87.544092 4.49217329,88.232478 4.78770379,88.933504 5.15946189,89.64675000000001 5.61472189,90.36964900000001 6.1624558899999995,91.095692 6.81242889,91.812768 7.57834089,92.51397200000001 8.477914890000001,93.19748200000001 9.53112489,93.862453 10.759317889999998,94.510289 12.183028890000001,95.14718 13.81761589,95.78883 15.66745189,96.4672 17.747211890000003,97.20571000000001 20.08688189,98.00266 22.70580189,98.84576000000001 25.60732189,99.71128 28.79309189,100.56917 32.29556189,101.39907000000001 36.16379189,102.19869 40.44414189,102.96943 45.16216189,103.71571 50.28762189,104.44491000000001 55.72300189,105.14681 61.34215189,105.80058 67.03748189,106.39421 72.75974189000002,106.92647000000001 78.52009189,107.40337 84.34198189,107.83162 90.23998189000001,108.21685000000001 96.21791189000001,108.56398 102.26674189,108.87753000000001 108.36698189,109.15990000000001 114.49978189000001,109.41177 120.65058189,109.63429000000001 126.81038189,109.82910000000001 132.97558189,109.99817 139.14798188999998,110.14352000000001 145.33118188999998,110.26679000000001 151.52808188999998,110.36949 157.74008188999997,110.45309 163.96768189,110.51903 170.20978189,110.56879 176.46428188999997,110.60371 182.72858189,110.62461 189.00068188999998,110.63218 195.27878189,110.62713000000001 201.56158188999999,110.61019 207.84838188999998,110.58211 214.13898189,110.54363000000001 220.43318189,110.49538000000001 226.73148189,110.43783 233.03378189,110.37145000000001 239.34008189,110.2967 245.65038188999998,110.21405 251.96448189,110.12396000000001 258.28198189,110.02692 264.60278189,109.92335 270.92638189,109.81354 277.25258189000004,109.6978 283.58108189,109.57641000000001 289.91168189,109.44967 296.24428189,109.31787 302.57878189,109.18130000000001 308.91508189,109.04025 315.25318189,108.89497 321.59308189000006,108.74566 327.93458189000006,108.59254 334.27788189000006,108.4358 340.62278189,108.27567 346.96918189,108.11234 353.31708189,107.94605 359.66618189,107.77698000000001 366.01658189000005,107.60531 372.36818189,107.43117000000001 378.72068189000004,107.25468000000001 385.07428189,107.07597000000001 391.42868189,106.89517000000001 397.78398189000006,106.71242000000001 404.14018189,106.52783000000001 410.49728189,106.34153 416.85518189,106.15364000000001 423.21398189,105.96427 429.57368189000005,105.77350000000001 435.93418189,105.58144 442.29538189000004,105.38819000000001 448.65748189,105.19385 455.02008189,104.99852 461.38338189,104.8023 467.74708189000006,104.60529000000001 474.11118189,104.40753000000001 480.47558189,104.20907 486.84028189,104.00993000000001 493.20518189,103.81016 499.57028189000005,103.6098 505.93558189000004,103.40887000000001 512.3012818899999,103.20741000000001 518.6671818899999,103.00545 525.0335818899999,102.80305000000001 531.40038189,102.60024000000001 537.7677818899999,102.39708 544.13568189,102.19362000000001 550.50398189,101.98992 556.87278189,101.78604 563.24188189,101.58203 569.6111818899999,101.37794000000001 575.98048189,101.17384000000001 582.34978189,100.96977000000001 588.71888189,100.76577 595.08768189,100.56188 601.4560818900001,100.35815000000001 607.82418189,100.1546 614.19188189,99.95128 620.5593818899999,99.74823 626.92658189,99.54547000000001 633.29378189,99.34302000000001 639.6608818899999,99.14087 646.02808189,98.93900000000001 652.3954818899999,98.73740000000001 658.76288189,98.53607000000001 665.13058189,98.33499 671.4982818899999,98.13415 677.86608189,97.93356 684.2338818899999,97.73320000000001 690.60158189,97.5331 696.9692818899999,97.33327 703.33678189,97.13372000000001 709.70418189,96.93446 716.07148189,96.73551 722.43868189,96.53688000000001 728.8057818899999,96.33859000000001 735.17288189,96.140629 741.5399818899999,95.943014 747.90708189,95.745745 754.2741818899999,95.548828 760.64128189,95.35226800000001 767.00838189,95.15607 773.37528189,94.96024200000001 779.74208189,94.76476500000001 786.10858189,94.569537 792.47478189,94.37443300000001 798.8406818899999,94.17932900000001 805.20648189,93.98410000000001 811.5720818899999,93.788617 817.93778189,93.592752 824.30378189,93.396398 830.6700818899999,93.199529 837.03668189,93.00213500000001 843.40308189,92.80421600000001 849.76898189,92.605777 856.13358189,92.40683 862.49598189,92.20734900000001 868.85498189,92.006898 875.20938189,91.80480100000001 881.55788189,91.60039 887.89888189,91.39300800000001 894.23088189,91.182006 900.55208189,90.96650100000001 906.86048189,90.744586 913.15328189,90.514134 919.4275818899999,90.273087 925.67958189,90.019464 931.90558189,89.75145 938.1043818899999,89.46754100000001 944.28018189,89.16611900000001 950.4426818899999,88.84524900000001 956.6065818899999,88.503022 962.77888189,88.142944 968.93138189,87.77408600000001 974.99648189,87.408 980.87888189,87.06090090000001 986.4707818899999,86.7558626 991.6800818899999,86.5095134 996.44468189,86.3333985 1000.70468189,86.23575223 1003.97868189,86.20905" stroke="black" stroke-width="2.0" /></svg>