<?xml version="1.0" encoding="utf-8" ?>
<svg baseProfile="full" height="149.50232" version="1.1" width="1011.98244228" xmlns="http://www.w3.org/2000/svg" xmlns:ev="http://www.w3.org/2001/xml-events" xmlns:xlink="http://www.w3.org/1999/xlink"><defs /><polygon fill="none" points="1003.98244228,91.6467 1000.58314228,91.1588046 996.30854228,90.46818599999999 991.63564228,89.63548499999999 986.56484228,88.671829 981.11784228,87.59249299999999 975.35064228,86.420328 969.34964228,85.191199 963.2119422799999,83.93826999999999 957.01714228,82.686726 950.80624228,81.45389 944.5795422799999,80.24569 938.32494228,79.0591 932.03404228,77.89116 925.7033422799999,76.73984 919.33394228,75.60379 912.92974228,74.48129 906.49504228,73.37031999999999 900.03374228,72.26876999999999 893.5497422799999,71.17439999999999 887.04674228,70.08544 880.52814228,69.00131999999999 873.99674228,67.92164 867.45564228,66.84591 860.90724228,65.77359999999999 854.35394228,64.70418 847.7977422800001,63.63772999999999 841.2399422799999,62.574549999999995 834.68174228,61.51492 828.1235422799999,60.45900999999999 821.56574228,59.406929999999996 815.00804228,58.358729999999994 808.44984228,57.314319999999995 801.89074228,56.27354999999999 795.33044228,55.236309999999996 788.76884228,54.20251 782.20564228,53.172059999999995 775.64104228,52.14491999999999 769.07504228,51.12103 762.50794228,50.10042 755.93984228,49.08311 749.37094228,48.06912 742.80174228,47.058479999999996 736.23254228,46.05123 729.66354228,45.04740999999999 723.0953422800001,44.047149999999995 716.5281422799999,43.050709999999995 709.96224228,42.05834 703.39784228,41.07028999999999 696.83514228,40.0868 690.27394228,39.1081 683.7143422800001,38.134389999999996 677.15624228,37.16587 670.59944228,36.202709999999996 664.04374228,35.245059999999995 657.48914228,34.293099999999995 650.9355422799999,33.34699 644.38284228,32.40689999999999 637.83084228,31.473 631.2797422799999,30.545449999999995 624.72934228,29.624469999999995 618.1796422799999,28.710269999999994 611.63094228,27.803099999999993 605.08334228,26.903189999999995 598.53714228,26.010819999999995 591.99274228,25.126239999999996 585.45054228,24.24973 578.91124228,23.381619999999984 572.37514228,22.522509999999997 565.8430422800001,21.673089999999988 559.3152422799999,20.834069999999997 552.79234228,20.006119999999996 546.27484228,19.18992999999999 539.76324228,18.38615 533.2580422799999,17.595439999999996 526.7596422800001,16.81855999999999 520.26834228,16.056439999999995 513.7845422800001,15.31004999999999 507.30844228000007,14.580339999999993 500.83994228,13.86824 494.37914228,13.174639999999997 487.92584228,12.500419999999991 481.47984228,11.84644999999999 475.04084228,11.213519999999988 468.60854228,10.60239 462.18274228,10.013789999999986 455.76314227999995,9.448449999999994 449.34954228,8.907109999999989 442.94164228,8.390499999999989 436.53914228,7.899349999999998 430.14194228,7.434359999999998 423.74974228,6.996160000000003 417.36254227999996,6.585309999999993 410.98024228,6.202409999999986 404.60274228,5.8480399999999975 398.23034227999995,5.5227900000000005 391.86284228,5.227239999999995 385.50064227999997,4.961960000000005 379.14384227999994,4.727559999999997 372.79264227999994,4.524609999999996 366.44734228,4.353709999999992 360.10794228,4.215429999999984 353.77454228,4.110349999999997 347.44714228,4.039039999999986 341.12574227999994,4.002069999999989 334.81034228,4.0 328.50094227999995,4.033380000000008 322.19784228,4.102729999999994 315.90104227999996,4.208579999999998 309.61124227999994,4.351449999999986 303.32874228,4.531859999999995 297.05414227999995,4.750299999999996 290.78814228,5.007260000000002 284.53134228,5.303240000000002 278.28384228,5.638769999999994 272.04544228,6.014380000000003 265.81554228,6.430659999999989 259.59304228,6.888229999999993 253.37664228,7.387770000000003 247.16484228,7.929649999999995 240.95624228,8.513779999999997 234.75044228,9.140019999999993 228.54734228,9.808179999999993 222.34754228,10.518029999999996 216.15244227999997,11.269229999999993 209.96364228,12.061469999999986 203.78344228,12.894959999999998 197.61414227999998,13.769969999999986 191.45774228,14.68674 185.31624227999998,15.645469999999989 179.19184227999997,16.64631999999999 173.08624228,17.689509999999984 167.00174228,18.775829999999985 160.94034228,19.906239999999983 154.90404227999997,21.081619999999987 148.89474227999997,22.302809999999994 142.91444227999997,23.570589999999996 136.96494228,24.88588999999999 131.04894228,26.25 125.16974228,27.664009999999998 119.33084228,29.12876 113.53664228000001,30.644749999999995 107.79164228,32.21231 102.10171228,33.83230999999999 96.47319227999999,35.50553 90.91280228,37.232229999999994 85.42740228,39.012159999999994 80.02421228,40.844789999999996 74.71458228,42.72985 69.51630228,44.664429999999996 64.45148228,46.64223 59.54382228,48.65407999999999 54.817352279999994,50.689589999999995 50.29631228,52.73844 46.000362280000004,54.78927999999999 41.94225228,56.83069999999999 38.12763228,58.85253 34.56615228,60.845229999999994 31.279752280000004,62.790859999999995 28.28556228,64.66754 25.58479228,66.45792 23.16288228,68.15274 20.997952280000003,69.75075 19.06268228,71.25739999999999 17.32758228,72.68146999999999 15.765452280000002,74.03232 14.35285228,75.31854999999999 13.07009228,76.54772 11.90156828,77.72761 10.838055279999999,78.86688 9.87370728,79.96983 9.00318828,81.03784999999999 8.220596279999999,82.07116099999999 7.51927728,83.069828 6.89207528,84.03420399999999 6.33171328,84.965074 5.83166128,85.863349 5.391732279999999,86.72761899999999 5.01341328,87.557582 4.6961385799999995,88.355415 4.43874418,89.12435099999999 4.24027198,89.86796 4.10040158,90.589851 4.01972572,91.2935789 4.0,91.98267249999999 4.04446084,92.660738 4.15697078,93.331734 4.33655768,94.000275 4.58182808,94.670735 4.89300168,95.347184 5.27172728,96.03357 5.72096428,96.733817 6.24482628,97.451808 6.8481882800000005,98.191141 7.53564328,98.95441199999999 8.309162279999999,99.741576 9.17272428,100.550753 10.137411279999998,101.380991 11.21433728,102.23051 12.41274128,103.0966 13.73840728,103.97614999999999 15.192852280000002,104.86715 16.77466228,105.77125 18.48452228,106.69744 20.33455228,107.65683 22.34777228,108.65445 24.553702280000003,109.69561 26.988562280000004,110.78589 29.693252280000003,111.92936999999999 32.70940228,113.12630999999999 36.06982228,114.37035 39.78948228,115.64965 43.857182279999996,116.94699 48.23415228,118.24323999999999 52.87089228,119.52526999999999 57.73645228,120.78876 62.81428228000001,122.02645 68.08373228,123.23065 73.52051227999999,124.39513 79.09987228,125.51574 84.79982228,126.58959999999999 90.60032228,127.61448999999999 96.48314228000001,128.58978 102.43329228,129.51644 108.44034228000001,130.39683 114.49804228,131.23291999999998 120.60154228,132.02598 126.74604228,132.7775 132.92654227999998,133.48925 139.13834228,134.16316999999998 145.37734227999997,134.80089999999998 151.63974227999998,135.40323999999998 157.92264228,135.97106 164.22354227999998,136.50537 170.54074228,137.00729 176.87304228,137.47805 183.22004227999997,137.91872 189.58124228,138.33021 195.95584227999998,138.71339 202.34304228,139.06916999999999 208.74164227999998,139.39845 215.15004228,139.70216 221.56674228,139.98102 227.99014228,140.23536 234.41914228,140.46547999999999 240.85274228,140.67171 247.29044227999998,140.85438 253.73204227999997,141.01388 260.17754228,141.15055999999998 266.62714228,141.26468 273.08084228,141.3564 279.53804228,141.42586 285.99774228,141.47322 292.45854228,141.49864 298.91844227999997,141.50232 305.37514228,141.48442 311.82614228,141.44463 318.26934228,141.38215 324.70364228,141.29617 331.12884228,141.18590999999998 337.54524227999997,141.05058 343.95424227999996,140.88936 350.35784228,140.70137 356.75874228,140.48615999999998 363.15984227999996,140.24426 369.56384227999996,139.97633 375.97324228,139.68301 382.39004228,139.36489 388.81624228,139.02257 395.25364227999995,138.65661999999998 401.70364228,138.26766 408.16754228,137.85671 414.64624228,137.42523 421.14044227999995,136.97472 427.65034227999996,136.50673999999998 434.17544227999997,136.02291 440.71524228,135.52492 447.26844228,135.01451 453.83334228,134.49344 460.40804227999996,133.96278999999998 466.99074227999995,133.42329999999998 473.57984228,132.87564 480.17424228,132.32052 486.77294228,131.75859 493.37534228,131.19049 499.98104228,130.61687 506.59014227999995,130.0383 513.2027422799999,129.4552 519.81894228,128.86794 526.4387422799999,128.27688 533.06214228,127.6824 539.6891422799999,127.08487 546.31934228,126.48468 552.95274228,125.88224 559.58894228,125.27793 566.2275422800001,124.67208 572.86814228,124.06497999999999 579.51044228,123.45692 586.15404228,122.84818999999999 592.79844228,122.23909 599.44324228,121.62989999999999 606.0881422799999,121.02091999999999 612.73254228,120.41244999999999 619.37604228,119.80471 626.01844228,119.19792 632.65944228,118.59227999999999 639.2987422799999,117.98795999999999 645.93634228,117.38516 652.57234228,116.78404 659.20664228,116.18476999999999 665.83964228,115.5875 672.47124228,114.99237 679.10184228,114.39950999999999 685.7312422800001,113.80905 692.35974228,113.22112999999999 698.98704228,112.63591 705.61304228,112.05351999999999 712.2376422799999,111.47413 718.8605422799999,110.89793 725.48154228,110.32514 732.10044228,109.756 738.71744228,109.19072 745.33254228,108.62951 751.9460422799999,108.07258999999999 758.55814228,107.52013 765.1694422799999,106.97229999999999 771.7802422799999,106.42916 778.39094228,105.8907 785.0017422799999,105.35694 791.61254228,104.82789 798.22344228,104.30359999999999 804.83404228,103.78411 811.4441422799999,103.2695 818.05324228,102.76001 824.66084228,102.25596 831.26664228,101.75766999999999 837.87014228,101.265435 844.4709422799999,100.779568 851.0687422799999,100.30036799999999 857.66314228,99.828065 864.25444228,99.36276099999999 870.84384228,98.9045 877.4328422799999,98.453283 884.02424228,98.009064 890.6210422800001,97.571721 897.2267422799999,97.14041999999999 903.84244228,96.713847 910.4667422800001,96.290829 917.09554228,95.87034899999999 923.72194228,95.451593 930.33684228,95.03507599999999 936.9296422799999,94.622692 943.4882422799999,94.216426 950.00004228,93.81824999999999 956.4500422799999,93.43100299999999 962.8101422799999,93.060357 969.03454228,92.712789 975.06714228,92.39452039999999 980.85014228,92.1168579 986.32614228,91.8940385 991.45104228,91.73400020999999 996.19724228,91.64118415899999 1000.54204228,91.61709925 1003.98244228,91.6467" stroke="black" stroke-width="2.0" /></svg>