<?xml version="1.0" encoding="utf-8" ?>
<svg baseProfile="full" height="151.10959" version="1.1" width="1011.998072893" xmlns="http://www.w3.org/2000/svg" xmlns:ev="http://www.w3.org/2001/xml-events" xmlns:xlink="http://www.w3.org/1999/xlink"><defs /><polygon fill="none" points="1003.998072893,110.2771 1000.6635728929999,109.3384355 996.531972893,108.082817 992.062072893,106.635266 987.243272893,105.011915 982.104772893,103.243181 976.7093728929999,101.373407 971.135272893,99.45961 965.4592728929999,97.54848000000001 959.736572893,95.67216 953.9866728929999,93.84997 948.1966728929999,92.08479 942.348172893,90.36863 936.4276728929999,88.69473 930.4272728929999,87.05831 924.345272893,85.4556 918.1839728929999,83.88234 911.9475728929999,82.33420000000001 905.6431728929999,80.80699 899.280572893,79.29688 892.870672893,77.80286000000001 886.423072893,76.32554 879.945872893,74.86498 873.4452728929999,73.42071 866.925472893,71.99173 860.3891728929999,70.57734 853.8379728929999,69.17729 847.2735728929999,67.79127 840.697372893,66.41896 834.110772893,65.05995000000001 827.5145728929999,63.71381 820.9098728929999,62.380320000000005 814.297272893,61.05928 807.677672893,59.75047 801.051672893,58.453660000000006 794.419972893,57.16859000000001 787.782972893,55.895030000000006 781.141272893,54.63289 774.495272893,53.382130000000004 767.845372893,52.142700000000005 761.191972893,50.91454 754.535472893,49.697610000000005 747.876172893,48.49183 741.214372893,47.29717 734.5502728929999,46.113659999999996 727.884072893,44.9413 721.2157728929999,43.780090000000015 714.5453728929999,42.63001 707.8727728929999,41.491029999999995 701.197872893,40.363110000000006 694.520272893,39.24619 687.840072893,38.140240000000006 681.157372893,37.04524000000001 674.472472893,35.96123 667.785872893,34.88825000000001 661.098272893,33.82639 654.4105728929999,32.77575 647.7235728929999,31.736639999999994 641.038172893,30.70951000000001 634.354672893,29.69478000000001 627.673372893,28.69283 620.994272893,27.70398 614.316872893,26.728530000000006 607.640672893,25.76674 600.964972893,24.81875000000001 594.288872893,23.884600000000006 587.612272893,22.964330000000004 580.934872893,22.058030000000002 574.256972893,21.165840000000003 567.578972893,20.28791000000001 560.9016728930001,19.424440000000004 554.226072893,18.575730000000007 547.553272893,17.742469999999997 540.884272893,16.925439999999995 534.220072893,16.1254 527.561672893,15.34311000000001 520.909772893,14.579290000000015 514.2652728930001,13.834630000000004 507.628772893,13.109840000000005 501.00087289300006,12.405800000000013 494.382272893,11.723579999999998 487.77307289300006,11.0642 481.17347289300005,10.428680000000014 474.583472893,9.818000000000012 468.002872893,9.233000000000004 461.43147289300003,8.674800000000005 454.86867289300005,8.144100000000009 448.314272893,7.6418000000000035 441.76797289300004,7.168599999999998 435.22947289300004,6.725200000000001 428.698772893,6.312400000000011 422.175572893,5.931000000000012 415.660072893,5.581800000000001 409.15237289300006,5.265500000000003 402.65237289300006,4.982700000000008 396.16037289300004,4.734300000000005 389.67617289300006,4.520800000000008 383.199872893,4.342800000000011 376.731172893,4.201099999999997 370.269872893,4.096400000000003 363.81577289300003,4.029100000000014 357.368572893,4.0 350.92827289300004,4.009600000000006 344.49527289300005,4.058199999999999 338.069872893,4.1466000000000065 331.6527728930001,4.275100000000009 325.244772893,4.444200000000009 318.846872893,4.654500000000013 312.460072893,4.906700000000001 306.085272893,5.201400000000007 299.72287289300004,5.5394000000000005 293.373072893,5.921499999999995 287.03597289300006,6.348300000000009 280.711072893,6.820599999999999 274.39787289300006,7.339200000000005 268.095972893,7.904300000000006 261.804772893,8.516400000000004 255.52397289300004,9.175899999999999 249.253372893,9.883200000000016 242.992572893,10.638790000000014 236.74157289299998,11.443010000000001 230.500172893,12.29610000000001 224.268672893,13.198150000000012 218.047472893,14.149230000000003 211.837172893,15.149389999999997 205.638872893,16.198589999999996 199.453672893,17.296800000000005 193.282872893,18.444150000000008 187.128272893,19.640900000000002 180.992072893,20.88718 174.87627289300002,22.18302 168.783572893,23.528320000000008 162.71667289299998,24.923000000000002 156.678472893,26.367520000000013 150.67237289300002,27.86254000000001 144.701372893,29.40861000000001 138.76847289300002,31.006169999999997 132.876572893,32.65556000000001 127.028672893,34.35741 121.228772893,36.11259 115.481372893,37.92165 109.791372893,39.78474 104.16407289300001,41.701589999999996 98.605222893,43.671800000000005 93.12228289299999,45.69514000000001 87.72334289300001,47.77063000000001 82.416952893,49.8965 77.211792893,52.07022 72.118042893,54.28907 67.151732893,56.54869000000001 62.333602893,58.84080000000001 57.686002893,61.15388 53.230072893,63.47455000000001 48.986232893,65.78986 44.971532893,68.08722 41.196092893,70.35462000000001 37.662712893000005,72.58179000000001 34.368662893,74.76098 31.315552893000003,76.88377 28.509442893,78.93622 25.951262893,80.9043 23.633032893,82.7783 21.539192893,84.55422 19.652912893,86.23321000000001 17.955402893,87.8211 16.426022893000003,89.32602 15.045052893,90.75649 13.794844893,92.12049 12.660051893,93.42524 11.627486893,94.67718 10.686095893000001,95.88338 9.827512893,97.04931 9.045156893,98.17784 8.333221893000001,99.27045000000001 7.686201893,100.328033 7.098737892999999,101.35134000000001 6.5656098929999995,102.34120800000001 6.081803893,103.298647 5.643097893,104.224631 5.251427893,105.118167 4.910623593,105.978966 4.622456693,106.80870800000001 4.387738193,107.610027 4.207044993,108.385936 4.081172553,109.13955800000001 4.011448723,109.8740147 4.0,110.5924179 4.050042053,111.297921 4.166126193,111.99382800000001 4.350149393,112.68365700000001 4.600337093,113.37063 4.916048093,114.057427 5.297854893,114.74625300000001 5.747358893,115.43883000000001 6.266987893,116.136262 6.859664893,116.83873100000001 7.528156893,117.54490700000001 8.273757892999999,118.25092000000001 9.097536893,118.951306 10.006430893000001,119.643833 11.008647893,120.32708000000001 12.112264892999999,121.00004 13.324725893,121.66263000000001 14.652262893,122.31643000000001 16.099462893000002,122.96575 17.669202892999998,123.61916000000001 19.363972893,124.291 21.193702893,124.99061 23.175652893,125.71881 25.329322893,126.47532000000001 27.676572893000003,127.25867000000001 30.241622893000002,128.06577 33.050492893,128.8911 36.131342892999996,129.72674 39.513302893,130.56678 43.220862893,131.40648 47.268642893,132.24074000000002 51.656592893,133.06554 56.369042893,133.88016 61.381542892999995,134.68145 66.65955289300001,135.45850000000002 72.157592893,136.20113 77.829972893,136.9023 83.64405289300001,137.55932 89.58334289300001,138.17174 95.63410289299999,138.73956 101.782042893,139.26368 108.01287289300001,139.74584000000002 114.31337289300001,140.1885 120.67167289300001,140.59318000000002 127.077672893,140.96093000000002 133.523072893,141.29322000000002 140.001172893,141.5919 146.507372893,141.85908 153.03937289299998,142.09668 159.595372893,142.30594000000002 166.173272893,142.48814000000002 172.770872893,142.64459 179.385672893,142.77666 186.014772893,142.88576 192.655472893,142.97283 199.305272893,143.0383 205.962372893,143.0826 212.625672893,143.10621 219.294672893,143.10959 225.96947289300002,143.09324 232.65077289299998,143.05767 239.339272893,143.00352 246.03547289300002,142.93145 252.739372893,142.84209 259.450372893,142.73613 266.16787289300004,142.61423000000002 272.890572893,142.47711 279.616772893,142.32508 286.34487289300006,142.15802 293.07297289300004,141.97582 299.799372893,141.77836000000002 306.52217289300006,141.56554 313.23957289300006,141.33729 319.949672893,141.09354000000002 326.65057289300006,140.83396 333.340972893,140.55775 340.020172893,140.26408 346.68847289300004,139.95208 353.34647289300005,139.62087 359.995872893,139.26951 366.638772893,138.89702 373.277972893,138.50256000000002 379.91677289300003,138.0864 386.55817289300006,137.64917 393.2048728930001,137.19149000000002 399.859472893,136.71396000000001 406.52427289300005,136.21717 413.20137289300004,135.70172 419.89277289300003,135.16823 426.59987289300005,134.61751 433.324272893,134.05096 440.066472893,133.47009 446.82687289300003,132.8765 453.6047728930001,132.27185 460.39927289300005,131.65794 467.20837289300005,131.03662 474.029672893,130.40984 480.86007289300005,129.77926000000002 487.696572893,129.14595 494.536472893,128.5109 501.377672893,127.87506 508.21847289300007,127.23935 515.057572893,126.60464 521.8941728929999,125.97175 528.728072893,125.34145000000001 535.5590728929999,124.71432 542.387572893,124.09067 549.2133728929999,123.47082 556.036572893,122.85506000000001 562.857072893,122.24371000000001 569.6748728929999,121.63709 576.4896728929999,121.03551 583.3013728929999,120.43929 590.109572893,119.84878900000001 596.914272893,119.26437800000001 603.7152728929999,118.686436 610.512572893,118.115331 617.3062728929999,117.55141900000001 624.0965728929999,116.995047 630.883772893,116.446557 637.6680728929999,115.906279 644.450172893,115.374494 651.230372893,114.85138 658.008872893,114.337113 664.785772893,113.83188 671.561272893,113.335874 678.3352728929999,112.849299 685.107372893,112.372365 691.877472893,111.905288 698.645072893,111.44834200000001 705.409672893,111.0018895 712.171172893,110.56629620000001 718.929372893,110.14191650000001 725.684072893,109.7290967 732.435472893,109.3281752 739.183672893,108.93948300000001 745.928772893,108.563345 752.671272893,108.200062 759.411072893,107.849923 766.1483728929999,107.51322400000001 772.883072893,107.190268 779.6146728929999,106.88136300000001 786.3428728929999,106.58682 793.067072893,106.306949 799.786572893,106.042151 806.5006728929999,105.792983 813.2089728929999,105.560006 819.911172893,105.34377 826.6069728929999,105.144812 833.2966728929999,104.963661 839.980272893,104.800842 846.6580728929999,104.65691000000001 853.3298728929999,104.53246800000001 859.994872893,104.428126 866.651972893,104.344485 873.299372893,104.282133 879.934672893,104.24163200000001 886.555172893,104.223849 893.157972893,104.23040900000001 899.7401728929999,104.262988 906.299072893,104.323184 912.832072893,104.41251600000001 919.336572893,104.532431 925.809772893,104.68451400000001 932.2475728929999,104.870388 938.644572893,105.09148300000001 944.9946728929999,105.34899300000001 951.290172893,105.643883 957.517872893,105.97700900000001 963.651772893,106.34818100000001 969.656072893,106.75555200000001 975.489672893,107.19600100000001 981.106772893,107.668467 986.4583728929999,108.170837 991.5031728929999,108.69811200000001 996.209572893,109.24349000000001 1000.546572893,109.79761760000001 1003.998072893,110.2771" stroke="black" stroke-width="2.0" /></svg>