<?xml version="1.0" encoding="utf-8" ?>
<svg baseProfile="full" height="111.93764" version="1.1" width="1011.8028266" xmlns="http://www.w3.org/2000/svg" xmlns:ev="http://www.w3.org/2001/xml-events" xmlns:xlink="http://www.w3.org/1999/xlink"><defs /><polygon fill="none" points="1003.8028266,49.95806 1000.8446266,50.11444710000001 996.9816266,50.296547800000006 992.6594266,50.466799300000005 987.9535266,50.6057239 982.9146266,50.699267500000005 977.5892266000001,50.7419031 972.0354266,50.731945700000004 966.3067265999999,50.6701339 960.4486266,50.557141300000005 954.4988266,50.3950462 948.4807265999999,50.186931900000005 942.4008266000001,49.9360318 936.2591266000001,49.645569800000004 930.0574266,49.319121300000006 923.8000265999999,48.960715500000006 917.4941266,48.57481000000001 911.1487266,48.164784000000004 904.7725266,47.732855 898.3730266,47.28126 891.9557266,46.812247000000006 885.5246266,46.328019000000005 879.0820266000001,45.830303 872.6293265999999,45.319979000000004 866.1676266000001,44.79782 859.6975266000001,44.264577 853.2192266,43.720979 846.7325266,43.167726 840.2368266,42.605523000000005 833.7318266,42.035124 827.2172266,41.457323 820.6934266000001,40.872952000000005 814.1608266000001,40.282881 807.6204266,39.68802 801.0733266,39.089240000000004 794.5210266,38.48705 787.9647266,37.881780000000006 781.4055266,37.2738 774.8441266000001,36.66341 768.2814266,36.05093 761.7177266,35.43666 755.1533266,34.8209 748.5884266,34.20405 742.0231266000001,33.586560000000006 735.4578266000001,32.96887 728.8926266,32.35141 722.3278266,31.734630000000003 715.7636266,31.118970000000004 709.2005266,30.504870000000004 702.6387265999999,29.892610000000005 696.0786266,29.28243 689.5203266,28.674560000000003 682.9642266000001,28.069220000000005 676.4104265999999,27.46664 669.8591266000001,26.867020000000004 663.3104266,26.270580000000002 656.7644266,25.677540000000004 650.2213266,25.088160000000002 643.6808265999999,24.50269 637.1431266,23.921360000000004 630.6079266,23.344420000000003 624.0751266,22.772100000000005 617.5445265999999,22.204630000000005 611.0157266000001,21.64223 604.4885266,21.085060000000002 597.9625265999999,20.533230000000003 591.4377266,19.986860000000004 584.9139266,19.446060000000003 578.3910266,18.910950000000003 571.8691266000001,18.38167 565.3482266,17.85835000000001 558.8286266,17.34113 552.3104266,16.830199999999998 545.7938266,16.32576000000001 539.2790266,15.828049999999998 532.7662266,15.33726 526.2553266,14.853610000000003 519.7465266,14.377290000000002 513.2397266,13.908520000000003 506.7349266,13.447480000000006 500.2321266,12.994370000000004 493.7312266,12.549420000000005 487.2322266,12.112830000000002 480.7352266,11.684820000000002 474.2401266,11.265610000000002 467.74702659999997,10.855400000000003 461.2561266,10.454420000000006 454.7674266,10.06288 448.2811266,9.681020000000004 441.7972266,9.309100000000008 435.3158266,8.947360000000003 428.8370266,8.596060000000001 422.3606266,8.25544 415.88672660000003,7.925740000000005 409.4152266,7.607210000000002 402.94592659999995,7.300080000000008 396.4787266,7.00459 390.01352660000003,6.720980000000004 383.5505266,6.449489999999997 377.0898266,6.1903799999999976 370.6316266,5.943890000000003 364.17632660000004,5.710270000000001 357.7243266,5.48977 351.2763266,5.282679999999999 344.83262659999997,5.089410000000001 338.3938266,4.910430000000005 331.96012659999997,4.7461800000000025 325.5317266,4.597079999999998 319.1085266,4.463580000000007 312.6905266,4.346090000000004 306.2774266,4.245040000000003 299.8689266,4.160820000000001 293.46492659999996,4.093820000000001 287.06542659999997,4.0444300000000055 280.6706266,4.013030000000008 274.2807266,4.0 267.8964266,4.0057100000000005 261.5182266,4.030540000000002 255.14702660000003,4.075000000000003 248.7836266,4.13982 242.4289266,4.225700000000003 236.0837266,4.33334 229.7488266,4.4634300000000025 223.4251266,4.616620000000005 217.1135266,4.793559999999999 210.8146266,4.995060000000002 204.5291266,5.2220100000000045 198.2574266,5.475290000000008 191.9994266,5.755790000000005 185.7550266,6.064390000000003 179.52392659999998,6.402000000000001 173.3055266,6.769600000000004 167.1004266,7.168310000000005 160.91022660000002,7.599150000000002 154.7382266,8.062990000000006 148.5884266,8.560510000000008 142.4665266,9.092200000000005 136.3785266,9.658900000000003 130.32872659999998,10.262280000000004 124.3188266,10.904190000000007 118.3479266,11.586680000000008 112.41262660000001,12.31205 106.5078266,13.083010000000002 100.6329666,13.902640000000005 94.79853659999999,14.772460000000002 89.02625660000001,15.691720000000004 83.3467066,16.657020000000003 77.7952666,17.663240000000002 72.3974466,18.708750000000006 67.1554566,19.795800000000003 62.0534966,20.929660000000005 57.0637666,22.118740000000003 52.16129660000001,23.372590000000002 47.3863766,24.684700000000003 42.8541566,26.021710000000006 38.68999660000001,27.335980000000003 34.9648166,28.58911 31.6702866,29.776450000000004 28.740226599999996,30.91336 26.1024666,32.01722000000001 23.697116599999998,33.10327 21.4775666,34.18428 19.4096066,35.26583 17.4855766,36.33612 15.716806599999998,37.373110000000004 14.1129266,38.35571 12.672233599999998,39.27102000000001 11.382461600000001,40.115304 10.2288036,40.893254000000006 9.206911600000002,41.622314 8.3080356,42.319861 7.5201296,42.99875 6.831767599999999,43.668465000000005 6.2332296,44.336175000000004 5.716624599999999,45.007516 5.2757096,45.687117 4.9056556,46.37897 4.6026746,47.085241 4.3631705,47.800742 4.1843486,48.519291 4.064481,49.2360659 4.0028917,49.94718384 4.0,50.649393200000006 4.0574436,51.339824 4.1783131000000004,52.015776 4.3673086,52.674765 4.6269199,53.318663 4.9577366000000005,53.952962 5.3618986,54.583213 5.843253600000001,55.215291 6.407473599999999,55.855810000000005 7.0621616,56.512658 7.8166756,57.195653 8.6809016,57.917237 9.660793600000002,58.692578000000005 10.7587096,59.53488900000001 11.9889206,60.44852 13.3628826,61.430260000000004 14.880846599999998,62.466770000000004 16.5300466,63.53557 18.2937766,64.61366000000001 20.1713266,65.69031000000001 22.1896566,66.77324 24.3880366,67.87748 26.818326600000002,69.02092 29.549386600000002,70.22533 32.665716599999996,71.51556000000001 36.2371966,72.90885 40.260006600000004,74.3866 44.6409366,75.89497 49.2332466,77.37399 53.929686600000004,78.79019 58.724216600000005,80.14679000000001 63.6560466,81.45749 68.75633660000001,82.73172 74.03964660000001,83.97417999999999 79.49383660000001,85.18404000000001 85.07979660000001,86.3537 90.7555066,87.47472 96.4877366,88.54235 102.25649659999999,89.55578 108.0572266,90.51754 113.8965266,91.43148 119.7810266,92.30088 125.7143266,93.12844000000001 131.6966266,93.91640000000001 137.7242266,94.66665 143.7903266,95.38034 149.8880266,96.05779000000001 156.0112266,96.69957 162.15552660000003,97.30657000000001 168.3179266,97.87993 174.4966266,98.42098 180.6916266,98.93091000000001 186.90282660000003,99.41065 193.1300266,99.86110000000001 199.3730266,100.28315 205.6310266,100.67774 211.9035266,101.04578000000001 218.1896266,101.38810000000001 224.48842660000003,101.70543 230.7992266,101.99846 237.1212266,102.26793 243.45392660000002,102.51458 249.79662660000002,102.73919000000001 256.1488266,102.94252 262.5100266,103.12522 268.8798266,103.28783 275.2579266,103.43090000000001 281.6437266,103.55499 288.0369266,103.66067000000001 294.4371266,103.74853 300.8438266,103.81913 307.2567266,103.87295 313.6755266,103.91037 320.0997266,103.93180000000001 326.52912660000004,103.93764 332.96342660000005,103.92829 339.4021266,103.90417 345.84522660000005,103.86568 352.2921266,103.81319 358.7429266,103.74697 365.1971266,103.66729000000001 371.6545266,103.5744 378.11502659999996,103.46858 384.5782266,103.3501 391.0441266,103.21923000000001 397.5123266,103.07624000000001 403.9827266,102.92134000000001 410.4551266,102.75474 416.9296266,102.57661 423.4059266,102.38716 429.8842266,102.18656 436.3645266,101.97501 442.8469266,101.75269 449.3315266,101.51978 455.8184266,101.27649 462.3078266,101.02301 468.7995266,100.75954000000002 475.2935266,100.48629 481.7895266,100.20348 488.28712659999997,99.91132 494.7860266,99.61005 501.2856266,99.29985 507.7855266,98.98080999999999 514.2853266,98.65296000000001 520.7847266,98.31635 527.2839266000001,97.971 533.7827265999999,97.61695 540.2816266,97.2542 546.7809266,96.88276 553.2811266,96.50265999999999 559.7828266,96.11404 566.2861266,95.71706 572.7914265999999,95.31189 579.2986266,94.89869999999999 585.8075266000001,94.47769 592.3178266,94.04906 598.8290265999999,93.61302 605.3404266,93.16973 611.8515266,92.7192 618.3617266,92.26144000000001 624.8709266,91.79642000000001 631.3789266,91.32414 637.8859266000001,90.84454000000001 644.3919266,90.35758000000001 650.8975266,89.86321000000001 657.4031266000001,89.36142000000001 663.9091266,88.85229000000001 670.4158266000001,88.33590000000001 676.9234266,87.81234 683.4318266,87.28172 689.9410266,86.74414 696.4506266000001,86.19973999999999 702.9601266,85.64863 709.4693265999999,85.09085 715.9778266,84.52639 722.4853266,83.95526000000001 728.9918266,83.37744 735.4973266000001,82.79291 742.0019266,82.20163 748.5059266,81.60358000000001 755.0094266,80.99872 761.5127266000001,80.38706 768.0157266,79.76862 774.5183266,79.14342 781.0202266,78.5115 787.5211266,77.87292000000001 794.0203266,77.22772 800.5174266,76.57584 807.0119266,75.91713 813.5037265999999,75.25147 819.9927266000001,74.5787 826.4791266000001,73.89864 832.9632266,73.21109000000001 839.4455266,72.51592 845.9262266,71.81305 852.4054265999999,71.10244 858.8828265999999,70.38405 865.3581266,69.65789000000001 871.8306266000001,68.92398 878.2994266,68.18218 884.7630266,67.43225000000001 891.2197266,66.67406 897.6673265999999,65.90749 904.1033266,65.13250000000001 910.5242266,64.34852000000001 916.9247266000001,63.55443 923.2974266000001,62.74942 929.6328266,61.93305 935.9197266,61.10493 942.1446266,60.26211000000001 948.2922266,59.400882 954.3462266,58.518383 960.2902266,57.612655000000004 966.1102266,56.682374 971.7979266,55.726206000000005 977.3511266,54.742728 982.7587266,53.742618 987.9364266,52.768252000000004 992.7434265999999,51.869726 997.0707266,51.085008 1000.8841266,50.429436100000004 1003.8028266,49.95806" stroke="black" stroke-width="2.0" /></svg>