<?xml version="1.0" encoding="utf-8" ?>
<svg baseProfile="full" height="135.41353" version="1.1" width="1012.0005414341" xmlns="http://www.w3.org/2000/svg" xmlns:ev="http://www.w3.org/2001/xml-events" xmlns:xlink="http://www.w3.org/1999/xlink"><defs /><polygon fill="none" points="1004.0005414341,90.28877 1000.7363414340999,89.9483717 996.5165414341,89.4292397 991.8235414341,88.766001 986.7216414341,87.973587 981.2799414341,87.071246 975.5807414341,86.078684 969.7061414341,85.021787 963.7148414341,83.919499 957.6525414341,82.782029 951.5534414341,81.617887 945.4369414340999,80.433058 939.3106414341,79.22988 933.1786414341,78.00922 927.0437414341,76.77167 920.9075414341,75.51757 914.7697414341,74.24714 908.6295414341,72.96096 902.4860414341,71.65962999999999 896.3381414341,70.34374 890.1845414341,69.01386 884.0239414341,67.67058 877.8551414341,66.31488999999999 871.6770414340999,64.94803 865.4895414340999,63.5714 859.2927414341,62.1865 853.0873414341,60.79499 846.8746414341,59.39856 840.6564414341,57.99855 834.4346414341,56.59626 828.2113414341001,55.19299 821.9888414341,53.79011 815.7695414341,52.389 809.5557414341,50.9911 803.3499414341,49.59833 797.1537414341,48.21284 790.9685414341,46.836619999999996 784.7948414341,45.47153 778.6329414341,44.11927 772.4825414341,42.781439999999996 766.3429414341,41.45945 760.2131414341001,40.15457 754.0921414341,38.86795 747.9788414341,37.60078 741.8723414341,36.3542 735.7714414341,35.12935 729.6749414341001,33.92735 723.5817414341001,32.74922 717.4908414341,31.595420000000004 711.4010414341,30.46615 705.3115414341,29.36166 699.2212414341001,28.28219 693.1290414341,27.227990000000005 687.0338414340999,26.199330000000003 680.9345414341001,25.19646999999999 674.8301414341,24.219319999999996 668.7199414341,23.26745000000001 662.6032414341,22.34044999999999 656.4801414341,21.437999999999988 650.3503414341,20.55977999999999 644.2143414341001,19.70554 638.0727414341,18.87505 631.9262414341,18.068150000000003 625.7758414341,17.284890000000004 619.6220414341001,16.525350000000003 613.4653414341001,15.789579999999987 607.3061414341,15.07759 601.1443414341,14.389380000000003 594.9800414341,13.724919999999997 588.8129414341,13.08417 582.6425414340999,12.466999999999999 576.4684414341,11.873149999999995 570.2905414341,11.302359999999993 564.1084414341,10.754400000000004 557.9222414341,10.229039999999998 551.7319414341,9.726060000000004 545.5378414341,9.24526999999999 539.3402414341,8.786469999999994 533.1394414340999,8.349509999999995 526.9358414341,7.9343000000000075 520.7297414341,7.540719999999993 514.5213414341,7.168669999999992 508.31074143410007,6.818029999999993 502.0981414341,6.488669999999999 495.8834414341,6.18047 489.6666414341,5.8932900000000075 483.4477414341,5.626989999999992 477.2265414341,5.381389999999996 471.0032414341,5.15634 464.7777414341,4.951679999999996 458.5502414341,4.767240000000001 452.32084143410003,4.60287000000001 446.0897414341,4.458420000000004 439.85714143409996,4.333730000000003 433.62344143409996,4.228790000000004 427.3888414341,4.143590000000003 421.1535414341,4.078119999999998 414.9180414341,4.03237 408.6826414341,4.006340000000009 402.4475414341,4.0 396.21324143410004,4.013349999999988 389.9801414341,4.046419999999998 383.7484414341,4.099409999999992 377.51854143410003,4.172499999999999 371.2905414341,4.265889999999999 365.06474143410003,4.37979 358.8411414341,4.5143799999999885 352.6198414341,4.669870000000003 346.4008414341,4.846440000000001 340.18404143410004,5.044319999999999 333.9695414341,5.263719999999992 327.75744143410003,5.504859999999994 321.5479414341,5.767939999999996 315.3414414341,6.053170000000009 309.1381414341,6.360739999999993 302.9387414341,6.6908499999999975 296.74364143409997,7.043769999999995 290.5534414341,7.419939999999997 284.3685414341,7.819810000000004 278.1894414341,8.243850000000009 272.01654143409996,8.692490000000006 265.8499414341,9.16619999999999 259.6899414341,9.665409999999994 253.5366414341,10.190650000000005 247.39034143409998,10.742499999999993 241.25144143409997,11.321560000000005 235.1204414341,11.928399999999996 228.9980414341,12.563580000000002 222.8849414341,13.227620000000002 216.7822414341,13.921019999999999 210.69084143409998,14.644480000000001 204.6117414341,15.398930000000007 198.5459414341,16.18531 192.4940414341,17.00453999999999 186.45664143410002,17.857560000000007 180.4342414341,18.745320000000007 174.4269414341,19.66883 168.4356414341,20.62930999999999 162.46154143409998,21.627890000000008 156.5062414341,22.665599999999998 150.57194143409998,23.743319999999997 144.66104143409999,24.86179 138.77674143410002,26.022000000000006 132.92204143409998,27.225720000000003 127.0999414341,28.47482 121.3129414341,29.771099999999997 115.5627414341,31.116349999999997 109.8513414341,32.512429999999995 104.18104143410001,33.961679999999994 98.5560314341,35.46633 92.9817914341,37.02797 87.4651614341,38.64745 82.0140214341,40.32504 76.6377614341,42.06198 71.3459114341,43.859989999999996 66.1471414341,45.72021 61.0492214341,47.64319 56.0610614341,49.62954 51.2037114341,51.67797 46.5111814341,53.779250000000005 42.022761434100005,55.91669 37.7755414341,58.0698 33.8015714341,60.221109999999996 30.1200414341,62.354839999999996 26.734841434099998,64.45722 23.6384214341,66.51775 20.835781434100003,68.52187 18.349851434100003,70.43834 16.1865114341,72.23693 14.324691434100002,73.90292 12.7274234341,75.43749 11.3563494341,76.85497 10.174186434100001,78.1739 9.1485314341,79.4109 8.2531564341,80.57967 7.4672584341,81.691176 6.7743634341,82.754175 6.1640474341000004,83.77492 5.6356374340999995,84.754563 5.1890764341,85.690845 4.8220102341,86.580991 4.5296853341,87.423233 4.3055932341,88.217326 4.1423973341,88.964477 4.0382357741,89.6699402 4.0,90.35240859 4.0437340041,91.034387 4.2127274341,91.711733 4.5486730341,92.363608 5.0207674341,92.985987 5.5865714341,93.583726 6.2411664341,94.167999 6.9844844341000005,94.752723 7.817204434100001,95.349925 8.7477614341,95.965825 9.7925354341,96.602164 10.9708544341,97.26076 12.3048174341,97.943683 13.8186144341,98.653537 15.5373414341,99.39432 17.487921434100002,100.174244 19.7078714341,101.00407 22.2488814341,101.88734 25.1609014341,102.82244 28.4754614341,103.8008 32.1993214341,104.81014 36.3321814341,105.84128 40.8674414341,106.88065 45.7630314341,107.91036 50.9473614341,108.91494 56.3498414341,109.88747000000001 61.9229014341,110.82282000000001 67.6253814341,111.71538 73.4210614341,112.56275 79.28440143409999,113.36595 85.2029914341,114.12782 91.17029143410001,114.85037 97.1803014341,115.53569999999999 103.22741143409999,116.18629 109.3065414341,116.80487 115.4132414341,117.3939 121.5439414341,117.95483 127.69524143410001,118.4891 133.8640414341,118.99826999999999 140.0477414341,119.48399 146.24394143409998,119.94797 152.4505414341,120.39126999999999 158.66614143409998,120.81451 164.8895414341,121.21831 171.12014143410002,121.60337 177.3573414341,121.97039000000001 183.6014414341,122.32011 189.85264143409998,122.65332000000001 196.11144143410002,122.97077 202.37774143410002,123.27324 208.6513414341,123.56148999999999 214.9318414341,123.83626 221.2185414341,124.09831 227.5102414341,124.34836 233.8059414341,124.58676 240.10464143410002,124.81370000000001 246.4056414341,125.02933999999999 252.70844143410002,125.23388 259.01264143410003,125.42751 265.3183414341,125.61045 271.6255414341,125.78292 277.93474143410003,125.94516 284.2460414341,126.09747 290.55994143410004,126.24011999999999 296.8763414341,126.37339 303.1953414341,126.49756 309.51694143410003,126.61292 315.84094143410005,126.71972 322.1673414341,126.81825 328.4956414341,126.90866 334.82564143409996,126.99112 341.1573414341,127.06577999999999 347.4902414341,127.13279 353.8243414341,127.19230999999999 360.1593414341,127.2445 366.4951414341,127.28952 372.8315414341,127.3275 379.1685414341,127.35851 385.5058414341,127.38257999999999 391.8435414341,127.39974000000001 398.1815414341,127.41005 404.51984143410004,127.41353000000001 410.8583414341,127.41023 417.19724143409996,127.40019000000001 423.5365414341,127.38344000000001 429.8761414341,127.36005 436.2163414341,127.33005 442.55704143410003,127.29352 448.8981414341,127.25049000000001 455.2397414341,127.20103 461.5815414341,127.1452 467.9236414341,127.08304 474.2658414341,127.01462 480.6078414341,126.93993 486.94964143410004,126.85893999999999 493.29114143410004,126.77162 499.6322414341,126.67795000000001 505.9728414341,126.57789 512.3130414340999,126.4714 518.6528414341,126.35846000000001 524.9922414340999,126.23902000000001 531.3315414341,126.11307 537.6705414341,125.98058 544.0094414341,125.84155 550.3482414341,125.69595000000001 556.6868414341,125.54378 563.0251414341,125.38503 569.3630414341,125.21968000000001 575.7003414341,125.04772 582.0369414341,124.86914 588.3725414341,124.68383 594.7069414340999,124.49169 601.0401414341,124.2926 607.3720414341,124.08645 613.7027414341,123.87314 620.0323414341,123.65253 626.3608414340999,123.42453 632.6884414341,123.189 639.0153414341,122.94583 645.3414414341,122.69491 651.6668414341,122.43614 657.9912414341001,122.16942 664.3142414341,121.89465 670.6354414341,121.61176 676.9540414341,121.32066 683.2695414341,121.02119 689.5810414341,120.71276 695.8877414341,120.39474 702.1889414341,120.06647 708.4839414341,119.72731 714.7719414341001,119.37662 721.0524414340999,119.01378 727.3246414341,118.63816 733.5881414341,118.24898 739.8423414341,117.84525 746.0870414341,117.42598 752.3221414341,116.99015 758.5478414341001,116.53676 764.7643414341,116.06479 770.9722414341,115.57321999999999 777.1721414341,115.06118000000001 783.3650414341,114.52829 789.5518414341,113.97418 795.7339414341001,113.39848 801.9126414341,112.80076 808.0895414341,112.18055 814.2665414341001,111.53735 820.4457414341,110.87124 826.6292414341,110.18327 832.8192414341,109.47454 839.0181414341,108.74615 845.2280414341,107.99919 851.4512414341,107.23474 857.6898414341,106.45396 863.9453414341,105.65845 870.2175414341,104.85015 876.5043414341001,104.0313 882.8016414341,103.20441 889.1035414341,102.37231 895.4023414341,101.53843 901.6910414340999,100.7069 907.9647414341,99.881687 914.2206414341,99.066438 920.4575414341,98.264462 926.6762414341,97.478616 932.8775414341,96.710985 939.0610414340999,95.963582 945.2248414341,95.238533 951.3658414340999,94.538048 957.4777414341,93.865106 963.5442414341,93.224193 969.5375414341,92.620518 975.4214414341001,92.059699 981.1431414341,91.553491 986.6181414340999,91.1176085 991.7559414340999,90.7627307 996.4789414341,90.5023534 1000.7210414341,90.34671238 1004.0005414341,90.28877" stroke="black" stroke-width="2.0" /></svg>