<?xml version="1.0" encoding="utf-8" ?>
<svg baseProfile="full" height="129.45392999999999" version="1.1" width="1012.005505269" xmlns="http://www.w3.org/2000/svg" xmlns:ev="http://www.w3.org/2001/xml-events" xmlns:xlink="http://www.w3.org/1999/xlink"><defs /><polygon fill="none" points="1004.005505269,79.38193 1001.1298052689999,79.34881038 997.316305269,79.23679609999999 992.9214052689999,79.0299331 987.964805269,78.73304929999999 982.507205269,78.363674 976.655005269,77.938675 970.5415052689999,77.484763 964.264005269,77.022273 957.894005269,76.556756 951.4866052689999,76.091275 945.072805269,75.62689 938.665105269,75.16214099999999 932.2701052689999,74.694638 925.8907052689999,74.221758 919.5262052689999,73.74068299999999 913.173105269,73.249349 906.827505269,72.74704799999999 900.4863052689999,72.233223 894.1471052689999,71.707357 887.8084052689999,71.168988 881.469305269,70.617815 875.129505269,70.053973 868.788405269,69.477695 862.446005269,68.88922 856.1021052689999,68.28878 849.756505269,67.67665 843.409305269,67.05306999999999 837.060605269,66.41832 830.710305269,65.77265 824.3585052689999,65.11633 818.0051052690001,64.44960999999999 811.650105269,63.77276 805.293405269,63.086029999999994 798.934905269,62.389669999999995 792.5745052689999,61.683949999999996 786.2123052689999,60.969139999999996 779.848105269,60.245529999999995 773.482005269,59.51338 767.114105269,58.77298999999999 760.744505269,58.02466 754.373505269,57.26867 748.001005269,56.50528 741.627305269,55.7347 735.252205269,54.95717 728.875905269,54.17291 722.498105269,53.38212 716.118605269,52.58498999999999 709.737305269,51.78174 703.353705269,50.97259 696.967605269,50.15786 690.578805269,49.33788 684.186905269,48.512989999999995 677.7919052689999,47.68352999999999 671.393605269,46.84985999999999 664.992005269,46.012319999999995 658.587205269,45.17129 652.179005269,44.32709 645.767805269,43.479989999999994 639.353705269,42.630289999999995 632.937005269,41.778279999999995 626.518105269,40.92427 620.097405269,40.06857 613.675505269,39.211529999999996 607.2529052689999,38.35348 600.830205269,37.49483 594.408205269,36.63606 587.987305269,35.777629999999995 581.5682052689999,34.920019999999994 575.151105269,34.06368 568.736605269,33.20906 562.3250052689999,32.3566 555.916605269,31.506729999999997 549.5116052689999,30.6599 543.110205269,29.816579999999995 536.712705269,28.97721 530.318905269,28.142269999999996 523.929005269,27.312189999999994 517.543005269,26.487409999999997 511.16070526900006,25.668349999999997 504.78200526899997,24.85543 498.406705269,24.04907 492.034605269,23.24966 485.665705269,22.45763 479.299905269,21.673389999999998 472.93730526900003,20.89737999999999 466.578005269,20.13002999999999 460.22210526900005,19.37178 453.869905269,18.623079999999995 447.52170526900005,17.884399999999992 441.17770526900006,17.156389999999995 434.838405269,16.439710000000005 428.50390526900003,15.735010000000003 422.17440526900003,15.042929999999998 415.850205269,14.36412 409.53150526900004,13.699189999999987 403.218405269,13.04876999999999 396.91100526900004,12.413499999999999 390.609505269,11.794139999999999 384.314005269,11.191459999999992 378.02470526900004,10.606219999999993 371.741705269,10.039169999999999 365.465105269,9.491060000000004 359.19520526900004,8.96262999999999 352.932005269,8.454609999999988 346.675705269,7.967879999999994 340.426805269,7.503529999999998 334.185905269,7.062609999999992 327.95370526900007,6.646190000000004 321.73120526900004,6.255350000000007 315.51970526900004,5.891100000000009 309.320505269,5.554490000000001 303.135105269,5.246629999999996 296.964905269,4.9690900000000084 290.810905269,4.723420000000004 284.67340526900006,4.511129999999994 278.552305269,4.33368999999999 272.447105269,4.192520000000002 266.35670526900003,4.089019999999991 260.279805269,4.0245100000000065 254.21520526899997,4.0 248.162205269,4.016449999999992 242.120805269,4.074799999999996 236.091105269,4.176010000000005 230.074005269,4.321009999999987 224.07070526899997,4.510670000000005 218.082805269,4.745999999999995 212.111905269,5.028210000000001 206.15920526899998,5.358490000000003 200.225705269,5.738019999999992 194.311905269,6.167959999999994 188.417905269,6.649479999999997 182.54380526900002,7.183710000000005 176.689505269,7.7716800000000035 170.85520526899998,8.414369999999991 165.041205269,9.112740000000002 159.248105269,9.867739999999998 153.476305269,10.680269999999993 147.72670526899998,11.551270000000002 142.00080526899998,12.481740000000002 136.300605269,13.472560000000001 130.629005269,14.524389999999997 124.989305269,15.637679999999996 119.38550526899999,16.81261 113.82210526899999,18.04987 108.30370526899999,19.350659999999998 102.834085269,20.716099999999997 97.416385269,22.14723 92.053245269,23.64508 86.74782526899999,25.211029999999994 81.50588526899999,26.84623 76.33562526899999,28.550620000000002 71.247265269,30.322759999999995 66.25251526899999,32.16003 61.365465269,34.06070999999999 56.60065526899999,36.02307 51.971265269,38.04411999999999 47.488665268999995,40.119839999999996 43.165925269,42.24567 39.027395268999996,44.412279999999996 35.104105269,46.60209 31.424535269,48.79259999999999 28.011005268999998,50.96141 24.885675269,53.087509999999995 22.060235269000003,55.14963 19.530135269,57.131229999999995 17.277645269,59.023109999999996 15.285815269,60.82132 13.541281268999999,62.51965 12.024579269,64.11364 10.710424269,65.60404 9.571469269,66.99606 8.584126269,68.29745 7.733124269,69.51641 7.003758269,70.660962 6.381701269000001,71.738716 5.853799269,72.756642 5.408373269,73.720997 5.035243269,74.63732 4.725716569,75.510432 4.474220969,76.343373 4.277407069,77.137017 4.132008069,77.891719 4.038547009,78.6112442 4.0,79.30657253999999 4.024412049,79.9897092 4.123162869,80.673887 4.310501169,81.358252 4.662258069,81.99756099999999 5.155651269,82.584632 5.744342269,83.140709 6.425831269,83.67138899999999 7.195244269,84.19263 8.053804269,84.716015 9.013996269,85.247602 10.094373269,85.794534 11.317805269,86.366231 12.712783269,86.971121 14.316935269,87.612818 16.172875269000002,88.29329299999999 18.322195268999998,89.012097 20.797155269,89.76670999999999 23.613915269,90.55584999999999 26.799905269,91.38347999999999 30.400245269,92.24636 34.439165269,93.13441 38.903045268999996,94.03275 43.747055269,94.9275 48.918405269,95.80559 54.348395269,96.65290999999999 59.963805269,97.4607 65.713635269,98.22843 71.584635269,98.96175 77.57482526899999,99.66578 83.671595269,100.34511 89.84816526899999,101.00395999999999 96.062365269,101.64547999999999 102.264915269,102.26373 108.418005269,102.8476 114.49990526900001,103.38829 120.504105269,103.87922999999999 126.436605269,104.31551999999999 132.31270526900002,104.69856 138.148205269,105.04305 143.95630526899998,105.3647 149.747205269,105.67844 155.528905269,105.99876 161.307605269,106.33993 167.08700526899997,106.71616 172.869205269,107.1417 178.654705269,107.62565 184.44610526900001,108.15353999999999 190.248405269,108.70423 196.069205269,109.25659999999999 201.918905269,109.78933 207.81070526899998,110.28148999999999 213.758605269,110.72730999999999 219.77340526900002,111.13427999999999 225.862705269,111.51031 232.030105269,111.86352 238.274405269,112.20237 244.588405269,112.53573 250.958705269,112.87272999999999 257.36600526899997,113.21816 263.791505269,113.56915 270.22000526900007,113.92218 276.640305269,114.27392 283.04590526900006,114.62129999999999 289.434105269,114.96153999999999 295.806805269,115.29211 302.169505269,115.61115 308.52880526900003,115.91896 314.89030526900007,116.21637999999999 321.25820526900003,116.50414 327.63520526900004,116.78289 334.022705269,117.05321 340.420605269,117.31564 346.827505269,117.57065 353.24040526900006,117.81844 359.656605269,118.05884 366.073505269,118.29162 372.489305269,118.51661999999999 378.902705269,118.73366 385.31300526900003,118.94262 391.71990526900004,119.14339 398.124005269,119.33588999999999 404.525905269,119.52006 410.926605269,119.69592 417.32680526900003,119.86346 423.727105269,120.02269999999999 430.12790526900005,120.17361 436.529505269,120.31619 442.93210526900003,120.45041 449.335505269,120.57625999999999 455.739705269,120.69372 462.14460526900007,120.80278 468.54980526900005,120.90344999999999 474.955405269,120.99573 481.36100526900003,121.07962 487.76650526900005,121.15512 494.171805269,121.22225 500.576705269,121.28099999999999 506.981105269,121.33135 513.384805269,121.37322 519.787805269,121.40651 526.189805269,121.43111999999999 532.5909052689999,121.44695999999999 538.991005269,121.45392999999999 545.390005269,121.45193 551.787805269,121.44086999999999 558.184405269,121.42066 564.579905269,121.39121 570.974205269,121.35240999999999 577.367305269,121.30418 583.7593052689999,121.24641 590.150305269,121.17902999999998 596.540405269,121.10191999999999 602.9296052689999,121.015 609.318205269,120.91816 615.706205269,120.81130999999999 622.093605269,120.69435999999999 628.4802052690001,120.56720999999999 634.865805269,120.42976999999999 641.250005269,120.28197 647.632305269,120.12370999999999 654.0121052689999,119.95492999999999 660.3888052689999,119.77546 666.761705269,119.58493 673.1303052689999,119.38296 679.4944052689999,119.16918 685.853705269,118.94319999999999 692.208305269,118.70463000000001 698.558205269,118.45309 704.9038052689999,118.18818999999999 711.2453052689999,117.90959 717.583105269,117.61697 723.917105269,117.31006 730.247405269,116.98855 736.573505269,116.65216 742.895305269,116.30062 749.2121052690001,115.93367 755.5233052689999,115.55068 761.827505269,115.15074999999999 768.1230052689999,114.733 774.4074052689999,114.29661999999999 780.677905269,113.84088 786.9312052689999,113.36513 793.1634052689999,112.86873 799.3707052689999,112.35001 805.550205269,111.80667 811.700205269,111.23642 817.820205269,110.63692999999999 823.9108052689999,110.00582 829.973505269,109.34067 836.010905269,108.63961 842.0269052689999,107.90187 848.026905269,107.12653999999999 854.0175052689999,106.31233999999999 860.007105269,105.45761999999999 866.0056052690001,104.56022999999999 872.024405269,103.61907 878.074405269,102.63619 884.1633052689999,101.61443 890.295505269,100.55732 896.4717052689999,99.46918 902.6884052689999,98.35504999999999 908.938105269,97.21875 915.211205269,96.0638 921.4962052689999,94.89423 927.779405269,93.71452 934.0464052689999,92.5287 940.287705269,91.33753 946.5043052689999,90.13937 952.707405269,88.930577 958.915805269,87.70673 965.1270052689999,86.47125199999999 971.284305269,85.239507 977.283405269,84.03714599999999 982.9962052689999,82.906111 988.298405269,81.891019 993.1139052689999,81.01665 997.4057052689999,80.30074739999999 1001.1578052689999,79.74737089999999 1004.005505269,79.38193" stroke="black" stroke-width="2.0" /></svg>