<?xml version="1.0" encoding="utf-8" ?>
<svg baseProfile="full" height="132.02242" version="1.1" width="1012.002075493" xmlns="http://www.w3.org/2000/svg" xmlns:ev="http://www.w3.org/2001/xml-events" xmlns:xlink="http://www.w3.org/1999/xlink"><defs /><polygon fill="none" points="1004.002075493,91.60255000000001 1001.348575493,91.3701338 997.923375493,91.0120986 994.035275493,90.540103 989.6267754930001,89.95014900000001 984.693675493,89.25681900000001 979.3155754930001,88.48314400000001 973.626375493,87.665897 967.727275493,86.84027300000001 961.6688754930001,86.018968 955.488775493,85.20744900000001 949.208275493,84.40837900000001 942.831375493,83.61982900000001 936.3605754929999,82.836589 929.8058754929999,82.053576 923.186375493,81.26620000000001 916.529475493,80.47213 909.861575493,79.67290000000001 903.200875493,78.86975000000001 896.5573754930001,78.06291 889.932075493,77.25160000000001 883.318675493,76.43450000000001 876.7100754930001,75.61077 870.100775493,74.77983 863.487575493,73.94136 856.869375493,73.09528 850.247075493,72.24179000000001 843.622975493,71.38118 836.9989754930001,70.51371 830.3763754930001,69.63953000000001 823.755775493,68.75872000000001 817.136975493,67.87126 810.519375493,66.97705 803.901575493,66.07603 797.282275493,65.16828000000001 790.660275493,64.25394000000001 784.034875493,63.33316000000001 777.4054754929999,62.406130000000005 770.7716754930001,61.47308000000001 764.133475493,60.53427000000001 757.490775493,59.59002000000001 750.843875493,58.64067000000001 744.1928754930001,57.68657000000001 737.537775493,56.72808000000001 730.878775493,55.76554000000001 724.215975493,54.7993 717.549675493,53.82973000000001 710.879875493,52.85710000000001 704.206775493,51.88164000000001 697.5308754929999,50.903580000000005 690.8524754929999,49.92316000000001 684.171975493,48.94066000000001 677.4899754930001,47.95633000000001 670.807175493,46.97045000000001 664.1239754930001,45.98339000000001 657.441275493,44.99566000000001 650.7595754929999,44.00780000000001 644.0792754930001,43.02035000000001 637.400975493,42.03382000000001 630.724975493,41.048730000000006 624.0515754930001,40.06559000000001 617.381175493,39.08487000000001 610.713875493,38.10701000000001 604.0499754929999,37.13239000000001 597.389775493,36.16140000000001 590.7336754930001,35.19442000000001 584.082075493,34.231860000000005 577.4351754930001,33.27409000000001 570.7936754929999,32.32152000000001 564.157775493,31.374570000000006 557.528175493,30.43377000000001 550.905075493,29.49967000000001 544.2884754930001,28.57283000000001 537.6786754929999,27.653760000000005 531.075375493,26.742940000000004 524.478375493,25.84087000000001 517.887475493,24.947990000000004 511.30197549300004,24.06472000000001 504.721675493,23.191500000000005 498.14627549299996,22.328750000000014 491.575775493,21.47694 485.010475493,20.63654000000001 478.450775493,19.808070000000015 471.897175493,18.992040000000003 465.350675493,18.189000000000007 458.812075493,17.399590000000003 452.28207549300004,16.62463000000001 445.761375493,15.864890000000003 439.25017549300003,15.12109000000001 432.748375493,14.393929999999997 426.255675493,13.684050000000013 419.771775493,12.992090000000019 413.295775493,12.318640000000002 406.827075493,11.664320000000004 400.365375493,11.029809999999998 393.91117549300003,10.415840000000017 387.46507549300003,9.823150000000012 381.028675493,9.25254000000001 374.603775493,8.704810000000009 368.19267549299997,8.18077000000001 361.798075493,7.681510000000003 355.422175493,7.208520000000007 349.066275493,6.763230000000007 342.731075493,6.346970000000013 336.416475493,5.960950000000011 330.121575493,5.606350000000006 323.84507549299997,5.284300000000002 317.584875493,4.995840000000001 311.339275493,4.74194 305.10777549299996,4.523590000000013 298.890275493,4.341800000000006 292.687775493,4.197580000000016 286.50197549300003,4.091930000000005 280.335075493,4.025780000000012 274.190475493,4.0 268.071775493,4.015360000000015 261.982775493,4.073060000000012 255.92567549300003,4.174700000000001 249.900475493,4.321840000000009 243.905275493,4.516070000000013 237.935975493,4.759079999999997 231.987675493,5.052040000000005 226.056075493,5.395460000000014 220.13847549300002,5.789870000000008 214.23347549300001,6.235760000000013 208.340975493,6.7335800000000035 202.46247549300003,7.283670000000015 196.600475493,7.886260000000007 190.757975493,8.541790000000006 184.937675493,9.250760000000014 179.141675493,10.013600000000011 173.37167549300003,10.830780000000004 167.628875493,11.702749999999995 161.913875493,12.630030000000005 156.22757549300002,13.613270000000014 150.57137549300003,14.653050000000007 144.94687549300002,15.749870000000001 139.355875493,16.904070000000004 133.800875493,18.11581000000001 128.284475493,19.38533000000001 122.810175493,20.713070000000002 117.381775493,22.09923000000002 112.003875493,23.54371000000002 106.680875493,25.04607 101.417925493,26.605620000000016 96.22076549300002,28.222240000000014 91.095815493,29.895700000000005 86.049525493,31.625240000000012 81.08830549300001,33.40961000000001 76.218485493,35.24714000000001 71.447855493,37.13640000000001 66.786165493,39.07511000000001 62.243985493000004,41.05951000000001 57.831945493,43.08456000000001 53.560475493000006,45.14443000000001 49.443295492999994,47.23301000000001 45.496825492999996,49.34134000000001 41.736685493,51.45801000000001 38.175185493,53.57058000000001 34.821885492999996,55.667440000000006 31.687815493,57.73714000000001 28.780895493,59.766890000000004 26.102425493000002,61.744870000000006 23.646685493,63.66206000000001 21.404155493,65.51291 19.366825493,67.29324000000001 17.524735493,68.99912 15.864775493,70.62843000000001 14.371535493,72.18134 13.028588492999999,73.65998 11.821625492999999,75.06813000000001 10.740059493,76.41004000000001 9.773454493000001,77.68961 8.911351493,78.91064 8.143600493000001,80.07692 7.460624493,81.19221 6.853587493,82.260176 6.314705493,83.28430200000001 5.839888493,84.267572 5.426801493,85.21267900000001 5.072565493,86.12223900000001 4.774015493,86.998738 4.527903293,87.84450100000001 4.331029093,88.66167200000001 4.180962293,89.451856 4.076329393,90.21692200000001 4.015953823,90.96006440000001 4.0,91.68549542000001 4.030979813,92.40030800000001 4.114628993,93.11220100000001 4.260371493,93.820254 4.488225593,94.51303700000001 4.839100693,95.162317 5.349598493,95.726358 5.955379493,96.23050800000001 6.634958493,96.700387 7.374509493,97.15395600000001 8.178595493,97.59174100000001 9.051802493,98.018709 9.998980493000001,98.44106300000001 11.028427492999999,98.86329500000001 12.149964493,99.29124100000001 13.375947493,99.72992200000002 14.723435492999998,100.18047000000001 16.213135493,100.64359300000001 17.870505493,101.119776 19.725885493,101.60910000000001 21.812715493,102.11091 24.165495493,102.62401000000001 26.815735493,103.14721 29.788135493,103.68119000000002 33.107945493,104.23126 36.811635493000004,104.79745000000001 40.924035493,105.37347000000001 45.439905493000005,105.95008000000001 50.324535493,106.51801 55.536965493,107.07179000000001 61.043555493,107.60677000000001 66.799965493,108.11857 72.75532549300002,108.60538000000001 78.86477549300001,109.06875000000001 85.10008549300001,109.51198000000001 91.442195493,109.93673000000001 97.87256549300001,110.34490000000001 104.37367549300001,110.73909 110.93027549300001,111.12248000000001 117.52957549300001,111.49758000000001 124.16107549300001,111.86497 130.81587549300002,112.22519000000001 137.486975493,112.57894000000002 144.169275493,112.92706000000001 150.859775493,113.27046000000001 157.557075493,113.60954000000001 164.259975493,113.94444000000001 170.967175493,114.27529000000001 177.677475493,114.60225000000001 184.389975493,114.92545000000001 191.10337549300002,115.24504 197.81687549300003,115.56093000000001 204.529575493,115.87295 211.240775493,116.18091000000001 217.949875493,116.48464000000001 224.656375493,116.78398000000001 231.360175493,117.07878000000001 238.061075493,117.36887000000002 244.758975493,117.65403 251.453875493,117.93405000000001 258.145775493,118.20872 264.834975493,118.47783000000001 271.521575493,118.74116000000001 278.205775493,118.99852000000001 284.887875493,119.24973 291.568275493,119.49472 298.247175493,119.73343000000001 304.925075493,119.96579000000001 311.602175493,120.19174000000001 318.27887549300004,120.41122000000001 324.955475493,120.62416 331.632375493,120.83051 338.309975493,121.03028 344.98837549300004,121.22354000000001 351.667775493,121.41034 358.348275493,121.59074000000001 365.029675493,121.76478 371.711975493,121.93252000000001 378.39487549300003,122.09400000000001 385.07797549300005,122.24924000000001 391.76097549300005,122.39821 398.443575493,122.54086000000001 405.12577549300005,122.67715000000001 411.807375493,122.80705 418.488375493,122.93052 425.168975493,123.04751000000002 431.84917549299996,123.15801 438.52937549300003,123.26198000000001 445.20967549299996,123.35942 451.890175493,123.45033000000001 458.570875493,123.53470000000002 465.251675493,123.61253 471.93237549300005,123.6838 478.612775493,123.7485 485.292375493,123.80664000000002 491.970875493,123.85814 498.647675493,123.90289000000001 505.32277549299994,123.94074 511.9958754930001,123.97159 518.666975493,123.99531000000002 525.336275493,124.01177000000001 532.003875493,124.02084 538.670175493,124.02242000000001 545.3355754930001,124.01643000000001 552.0003754930001,124.00286000000001 558.6648754930001,123.98169000000001 565.329175493,123.95292 571.993475493,123.91654000000001 578.657575493,123.87252000000001 585.3214754930001,123.82086000000001 591.984975493,123.76154 598.6475754930001,123.69447000000001 605.309175493,123.61953000000001 611.969275493,123.53658000000001 618.627375493,123.44551000000001 625.283175493,123.34618 631.935975493,123.23849000000001 638.585275493,123.12231000000001 645.230575493,122.99749000000001 651.871175493,122.86373 658.5067754930001,122.72068000000002 665.136875493,122.56798 671.761375493,122.40531000000001 678.380075493,122.23231000000001 684.993175493,122.04863 691.6005754930001,121.85393 698.202575493,121.64792 704.799375493,121.43033000000001 711.391075493,121.2009 717.977975493,120.95938000000001 724.560175493,120.70551 731.137775493,120.43902 737.710875493,120.15967 744.279475493,119.86693000000001 750.842275493,119.56004000000001 757.396975493,119.23827 763.939675493,118.90099000000001 770.465275493,118.54771000000001 776.967675493,118.17804000000001 783.4393754930001,117.79166000000001 789.873375493,117.38705 796.2644754930001,116.96177 802.610875493,116.51328000000001 808.913275493,116.03904000000001 815.174675493,115.53635000000001 821.4004754929999,115.00241000000001 827.597875493,114.43492 833.7753754930001,113.83332000000001 839.942275493,113.19709 846.108475493,112.52539000000002 852.2849754929999,111.81704 858.4838754929999,111.07045000000001 864.7186754930001,110.28445 871.001875493,109.46059000000001 877.342075493,108.60157000000001 883.7431754930001,107.71086000000001 890.203575493,106.79295 896.715375493,105.85346000000001 903.266275493,104.89811 909.843875493,103.93216000000001 916.437875493,102.96073000000001 923.0399754929999,101.98867000000001 929.644075493,101.020216 936.241475493,100.057805 942.816175493,99.10419700000001 949.344975493,98.16313000000001 955.798275493,97.239609 962.134475493,96.343828 968.2930754930001,95.489427 974.206175493,94.68945000000001 979.808575493,93.95840700000001 985.024575493,93.31552800000001 989.7921754930001,92.771636 994.090675493,92.32890320000001 997.9308754929999,91.98964660000001 1001.345675493,91.747099 1004.002075493,91.60255000000001" stroke="black" stroke-width="2.0" /></svg>