<?xml version="1.0" encoding="utf-8" ?>
<svg baseProfile="full" height="133.30793" version="1.1" width="1011.97961105" xmlns="http://www.w3.org/2000/svg" xmlns:ev="http://www.w3.org/2001/xml-events" xmlns:xlink="http://www.w3.org/1999/xlink"><defs /><polygon fill="none" points="1003.97961105,98.0891 1001.33461105,97.754583 997.9183110499999,97.2680928 994.05151105,96.654768 989.70061105,95.909386 984.88321105,95.04662400000001 979.68201105,94.097181 974.21141105,93.107087 968.54531105,92.118143 962.71011105,91.141703 956.72451105,90.179429 950.60191105,89.230985 944.34771105,88.293435 937.9682110499999,87.36211 931.47681105,86.4323 924.8950110500001,85.49957 918.25261105,84.56159 911.57941105,83.62054 904.89811105,82.67844 898.22321105,81.73613 891.5606110499999,80.79324 884.9087110500001,79.84865 878.26381105,78.90145 871.62311105,77.95087000000001 864.9845110499999,76.99622 858.34661105,76.03695 851.70871105,75.07263 845.0708110500001,74.10321 838.43251105,73.12876 831.7938110499999,72.14938000000001 825.1545110500001,71.16513 818.51441105,70.17608 811.87321105,69.18234000000001 805.23091105,68.184 798.58721105,67.1812 791.94181105,66.17410000000001 785.2945110500001,65.16281000000001 778.64501105,64.14748 771.99301105,63.12824 765.33831105,62.105219999999996 758.6805110500001,61.078660000000006 752.01941105,60.0488 745.3548110500001,59.015890000000006 738.68671105,57.98021 732.01491105,56.942040000000006 725.33961105,55.901650000000004 718.66071105,54.85934 711.97861105,53.81538 705.29351105,52.77007 698.60601105,51.72372000000001 691.9168110500001,50.67667 685.22681105,49.62930000000001 678.5369110500001,48.581990000000005 671.84831105,47.53518 665.16221105,46.48937 658.47971105,45.4451 651.80161105,44.40288 645.12841105,43.36315 638.46071105,42.32637 631.79861105,41.29292 625.1421110499999,40.26317 618.4912110500001,39.23747 611.84561105,38.21622 605.20521105,37.19982 598.56981105,36.18865 591.93951105,35.18313 585.31411105,34.18366000000001 578.69371105,33.19067000000001 572.07831105,32.20456 565.46811105,31.22578 558.86311105,30.254779999999997 552.2633110500001,29.292029999999997 545.66881105,28.337970000000013 539.07951105,27.393029999999996 532.49561105,26.457660000000004 525.91681105,25.532290000000003 519.34331105,24.617329999999995 512.77481105,23.713260000000005 506.21161105000004,22.82059000000001 499.65361105,21.93981000000001 493.10111105,21.071430000000007 486.55441105000006,20.21596000000001 480.01381105,19.37393999999999 473.47981105,18.545869999999994 466.95291105,17.732340000000008 460.43351105000005,16.93408000000001 453.92211105,16.151860000000013 447.41901105,15.386390000000006 440.92461105,14.638400000000004 434.43921105000004,13.908560000000008 427.96291105,13.197580000000002 421.49591105,12.50609999999999 415.03831105,11.834860000000006 408.59031105,11.184640000000002 402.15211105,10.55622000000001 395.72391105,9.950360000000003 389.30591105,9.367820000000009 382.89831105,8.809330000000003 376.50151105000003,8.27564000000001 370.11571105,7.767560000000003 363.74151105000004,7.286190000000005 357.37991105000003,6.832660000000004 351.03221105,6.408100000000005 344.70021105,6.013620000000003 338.38571105,5.6502900000000125 332.09111105,5.319140000000004 325.81911105,5.021290000000008 319.57201105,4.758319999999998 313.35131105000005,4.531900000000007 307.15781105,4.343580000000003 300.99121105,4.1948400000000134 294.85061105,4.08708 288.73431105000003,4.02170000000001 282.63991105,4.0 276.56511105,4.022819999999996 270.50841105,4.090880000000013 264.46821105000004,4.20496 258.44411104999995,4.365850000000009 252.43551105,4.574330000000003 246.44281105,4.831180000000003 240.46651104999998,5.137110000000007 234.50731105,5.49278000000001 228.56591104999998,5.898790000000005 222.64301104999998,6.355760000000004 216.73881105,6.864289999999997 210.85371105,7.424989999999994 204.98791104999998,8.03846999999999 199.14171105,8.705290000000005 193.31571105,9.42598000000001 187.51041105,10.201039999999992 181.72681104999998,11.030929999999998 175.96581104999999,11.91604000000001 170.22871105,12.856750000000005 164.51701104999998,13.853500000000011 158.83231105,14.906750000000002 153.17671105,16.01688 147.55231105,17.18414 141.96131105,18.408680000000004 136.40621105,19.69059 130.88991105000002,21.03022 125.41561105000001,22.42792 119.98671105000001,23.883830000000003 114.60701105,25.397840000000002 109.28001105,26.969620000000006 104.01021105,28.59908 98.80283105000001,30.286289999999994 93.66412104999999,32.030770000000004 88.60071105,33.83142000000001 83.61952105,35.68647 78.72806105,37.594190000000005 73.93462105,39.55332 69.24711105000002,41.5621 64.67268105,43.618190000000006 60.217641050000005,45.71876 55.88946105,47.86069 51.700701050000006,50.03867 47.667161050000004,52.2438 43.80497105,54.46448 40.128411050000004,56.68791 36.65182105,58.9026 33.38810105,61.09679 30.34467105,63.25845 27.52241105,65.37693 24.91693105,67.44386 22.52572105,69.45112 20.346761049999998,71.3888 18.37372105,73.24823 16.59526105,75.02399 14.99628105,76.71432 13.56173405,78.32133 12.278553050000001,79.84928 11.13318505,81.30257 10.11194505,82.68582 9.20161805,84.00384 8.389879050000001,85.26149000000001 7.66558005,86.4635 7.02126105,87.61371 6.45324805,88.714765 5.957501049999999,89.76912 5.52955105,90.779192 5.16474805,91.747382 4.85844095,92.676062 4.60610725,93.567554 4.40343745,94.424098 4.24636395,95.24782 4.13062715,96.04064 4.05194496,96.80577600000001 4.00699348,97.5479374 4.0,98.2724365 4.04480902,98.98629150000001 4.14929685,99.696555 4.31344325,100.402151 4.55796675,101.090603 4.92484785,101.733893 5.45157105,102.282976 6.0699520499999995,102.778388 6.75644405,103.238876 7.51966605,103.662905 8.348734050000001,104.074097 9.24463505,104.47852400000001 10.21642305,104.877172 11.275362049999998,105.273054 12.433849050000001,105.670561 13.706119050000002,106.073311 15.11099105,106.481427 16.67091105,106.89445500000001 18.41168105,107.311803 20.36183105,107.732994 22.55134105,108.15838 25.01084105,108.59082000000001 27.77575105,109.03744 30.89298105,109.4999 34.406211049999996,109.97388000000001 38.33839105,110.45191 42.68054105,110.92473 47.404471050000005,111.38546 52.49247105,111.82991 57.917881050000005,112.25303 63.63361105,112.65168 69.58385104999999,113.02628 75.72239105000001,113.38069 82.01648105,113.71701 88.43447105000001,114.03694 94.94630105,114.34328000000001 101.52659105000001,114.63984 108.15681105,114.93023 114.82311105,115.21528 121.51411105,115.49535 128.22101105000002,115.77095 134.93751104999998,116.04275000000001 141.66031105,116.31152 148.38821105,116.57760999999999 155.12041104999997,116.84114 161.85601104999998,117.10223 168.59441105,117.361 175.33491105,117.61758 182.07691104999998,117.87208 188.81981105,118.12447 195.56301104999997,118.37469 202.30581105,118.62262 209.04761105,118.8682 215.78771104999998,119.11132 222.52531105,119.35191 229.25961105,119.58979 235.99021105,119.82464 242.71651104999998,120.05613 249.43831104999998,120.28396000000001 256.15591105,120.5078 262.86931105,120.72737000000001 269.57921105,120.94237 276.28601105,121.15258 282.99051105,121.35795 289.69331105000003,121.55839 296.39491105,121.75384 303.09581105,121.94423 309.79631105,122.12947 316.49681105,122.3095 323.19771105,122.48425 329.89901105000007,122.65374 336.60101105,122.81800000000001 343.30371105000006,122.97708 350.00711105,123.131 356.71111105,123.27981 363.41561105,123.42354 370.12021105,123.56221000000001 376.82481105,123.69583 383.52901105,123.82436 390.23271105000003,123.94773 396.93571105,124.06591 403.63811105,124.17885 410.33981105000004,124.2865 417.04091105000003,124.38882 423.74171105000005,124.48577 430.44241105,124.57733 437.14311105,124.66352 443.84401105,124.74435 450.54521105000003,124.81983 457.24671105,124.88997 463.94851105000004,124.95478 470.65041105,125.01428 477.35241105,125.06846 484.05411105,125.1173 490.75551105,125.16073 497.45621105,125.19869 504.15611105000005,125.23111 510.85511105000006,125.25793 517.55281105,125.27909 524.24921105,125.29453000000001 530.94411105,125.30417 537.63731105,125.30793 544.32861105,125.3057 551.01811105,125.29736 557.70591105,125.28279 564.39191105,125.26189 571.0763110500001,125.23453 577.7594110499999,125.20061 584.44141105,125.16 591.12271105,125.11264 597.80341105,125.05846 604.48361105,124.99742 611.16311105,124.92947000000001 617.84171105,124.85454 624.51911105,124.77261 631.19481105,124.68361 637.8680110500001,124.58748 644.5383110500001,124.48397 651.20481105,124.37279000000001 657.86721105,124.25365000000001 664.52501105,124.12626 671.1777110500001,123.99034 677.8250110500001,123.84561 684.4668110499999,123.69177 691.10291105,123.52853 697.73311105,123.35557 704.35751105,123.17254 710.9761110500001,122.97912 717.58921105,122.77499 724.1969110499999,122.55979 730.7996110500001,122.33321000000001 737.39771105,122.09477 743.99061105,121.84378000000001 750.5767110500001,121.57956 757.15341105,121.30148 763.71661105,121.00903 770.26151105,120.70175 776.78201105,120.37932 783.2715110500001,120.04068000000001 789.72501105,119.68362 796.13941105,119.30581000000001 802.51421105,118.90493000000001 808.8505110499999,118.4786 815.15151105,118.0244 821.42191105,117.53999 827.66821105,117.02451 833.89821105,116.47757 840.12111105,115.89847 846.3480110500001,115.28614 852.5916110500001,114.63911 858.86661105,113.95558 865.18861105,113.23605 871.5691110500001,112.4832 878.0137110500001,111.70059 884.52111105,110.89285 891.08201105,110.06596 897.6790110500001,109.22677 904.29251105,108.38142 910.90541105,107.535642 917.50371105,106.694742 924.07721105,105.863504 930.61851105,105.045954 937.1194110499999,104.245605 943.5700110500001,103.465995 949.95871105,102.710632 956.27121105,101.98359 962.4766110500001,101.292094 968.5211110500001,100.645218 974.33981105,100.051598 979.8660110500001,99.52283 985.0251110500001,99.07366830000001 989.7597110500001,98.710544 994.04931105,98.4333721 997.8953110499999,98.2427922 1001.31871105,98.13197502 1003.97961105,98.0891" stroke="black" stroke-width="2.0" /></svg>