<?xml version="1.0" encoding="utf-8" ?>
<svg baseProfile="full" height="145.70768" version="1.1" width="1011.995320604" xmlns="http://www.w3.org/2000/svg" xmlns:ev="http://www.w3.org/2001/xml-events" xmlns:xlink="http://www.w3.org/1999/xlink"><defs /><polygon fill="none" points="1003.995320604,89.00557 1000.606720604,88.87612030000001 996.4381206039999,88.6230702 991.9380206039999,88.2605376 987.066420604,87.80623100000001 981.822220604,87.28072300000001 976.236320604,86.69924 970.3547206039999,86.084829 964.224220604,85.45799600000001 957.8931206039999,84.825866 951.409020604,84.193431 944.809120604,83.56391500000001 938.1182206039999,82.936396 931.357920604,82.30750300000001 924.5480206039999,81.67323800000001 917.705020604,81.02914000000001 910.8419206039999,80.372741 903.968520604,79.70412300000001 897.0915206039999,79.0233 890.2150206040001,78.33002 883.339620604,77.62379000000001 876.464020604,76.90425 869.5865206039999,76.17144 862.705920604,75.42547 855.821620604,74.66647 848.933420604,73.89466 842.041820604,73.11028 835.1474206039999,72.31364 828.250820604,71.50500000000001 821.352120604,70.68461 814.4515206039999,69.85271 807.5489206039999,69.00951 800.6440206039999,68.15520000000001 793.736320604,67.29002 786.8256206039999,66.41423 779.911320604,65.52813 772.9933206039999,64.63201000000001 766.071420604,63.726150000000004 759.145320604,62.81089 752.2151206039999,61.886520000000004 745.280720604,60.953410000000005 738.342020604,60.01190000000001 731.399120604,59.062340000000006 724.4520206039999,58.10510000000001 717.500720604,57.14052000000001 710.545220604,56.16899000000001 703.5855206040001,55.190870000000004 696.621820604,54.20653 689.6540206039999,53.21631 682.681920604,52.22057000000001 675.705420604,51.21965000000001 668.7242206039999,50.213860000000004 661.7379206039999,49.20353000000001 654.746220604,48.18898000000001 647.7486206039999,47.17051000000001 640.745220604,46.148520000000005 633.736020604,45.123430000000006 626.721820604,44.09572000000001 619.7034206039999,43.06593000000001 612.682220604,42.034650000000006 605.6598206040001,41.00253000000001 598.6382206039999,39.970290000000006 591.619020604,38.93876 584.604020604,37.90872000000001 577.594420604,36.88090000000001 570.591220604,35.85600000000001 563.595220604,34.83467 556.606820604,33.81752 549.626220604,32.80512000000001 542.653420604,31.79806 535.6885206039999,30.796960000000006 528.731320604,29.80241000000001 521.781920604,28.815020000000004 514.840120604,27.83536 507.90582060400004,26.86402000000001 500.97892060400005,25.901570000000014 494.05932060400005,24.948580000000007 487.14692060400006,24.00567000000001 480.24192060400003,23.07345000000001 473.344520604,22.152540000000016 466.45492060400005,21.24359000000001 459.573720604,20.34724 452.70152060400005,19.46414 445.838920604,18.595 438.98662060400005,17.740740000000002 432.145320604,16.902350000000013 425.315420604,16.080790000000007 418.497520604,15.276989999999998 411.69182060400004,14.49185 404.89872060400006,13.72626000000001 398.118320604,12.981080000000006 391.35082060400003,12.257220000000004 384.59642060400006,11.55565 377.855420604,10.877340000000004 371.127920604,10.223200000000006 364.41442060400004,9.594160000000002 357.7150206040001,8.991140000000001 351.030120604,8.415009999999995 344.36022060400006,7.866960000000006 337.706420604,7.348420000000004 331.070320604,6.860820000000004 324.45432060400003,6.405600000000007 317.861220604,5.984150000000014 311.29462060400004,5.5978000000000065 304.758120604,5.247870000000006 298.25572060400003,4.936430000000001 291.789720604,4.6658900000000045 285.360920604,4.438469999999995 278.96882060400003,4.256240000000005 272.61112060400006,4.1211600000000175 266.28462060400005,4.035179999999997 259.98512060400003,4.0 253.708620604,4.016390000000001 247.452320604,4.085000000000008 241.214920604,4.206490000000002 234.996020604,4.381569999999996 228.796420604,4.610900000000001 222.618120604,4.895070000000004 216.463620604,5.234860000000012 210.335120604,5.63121000000001 204.234120604,6.085040000000006 198.161520604,6.597250000000017 192.117220604,7.168770000000009 186.100920604,7.8005700000000076 180.111820604,8.493460000000013 174.149920604,9.248000000000005 168.215920604,10.064639999999997 162.311120604,10.943730000000016 156.437620604,11.885440000000017 150.598020604,12.889790000000005 144.795820604,13.957030000000003 139.034720604,15.087339999999998 133.318820604,16.28070000000001 127.652320604,17.53683000000001 122.039420604,18.855199999999996 116.485120604,20.235310000000013 110.99512060400001,21.676720000000017 105.57642060399999,23.17837 100.236620604,24.738580000000013 94.983520604,26.35497000000001 89.825610604,28.02484000000001 84.77342060400001,29.74533000000001 79.839170604,31.512220000000006 75.035600604,33.31992 70.374990604,35.16177000000001 65.869050604,37.030730000000005 61.531090604,38.919560000000004 57.374500604,40.81945 53.410440604,42.720670000000005 49.646360603999995,44.61354000000001 46.086190604,46.48949000000001 42.733550604,48.341350000000006 39.590290603999996,50.161550000000005 36.654640604,51.943090000000005 33.920940603999995,53.68030000000001 31.380220604,55.36925000000001 29.022970603999998,57.008100000000006 26.839980603999997,58.596120000000006 24.820870604000003,60.13311 22.954390604,61.619530000000005 21.228950603999998,63.056450000000005 19.633010604,64.44546000000001 18.155670604,65.78861 16.788100604,67.08882 15.522580604,68.34874 14.351770603999999,69.57062 13.268655604000001,70.75642 12.266589604,71.90798000000001 11.339284604,73.02703000000001 10.480849604,74.11522000000001 9.685934604,75.17414000000001 8.951710603999999,76.20524 8.276890604,77.20997 7.659709604,78.1898 7.098081604000001,79.14622100000001 6.589750604000001,80.080645 6.132401604,80.994428 5.723730604,81.88884300000001 5.361485604,82.76507600000001 5.043499604,83.62423000000001 4.767258004,84.467213 4.528294804,85.294516 4.327699404,86.106768 4.173146504,86.90365600000001 4.070877494,87.683689 4.016755444,88.4462084 4.0,89.1972786 4.033558364,89.9451693 4.146121304,90.692954 4.339305804,91.43697800000001 4.666511004,92.14799500000001 5.140371604,92.79370700000001 5.712499604,93.38834 6.349609604,93.95250100000001 7.047826604000001,94.490137 7.800227604,95.008212 8.604155603999999,95.51299700000001 9.458506604,96.010586 10.365042604,96.504001 11.326111604,96.995964 12.344273604,97.489304 13.424147604,97.984937 14.571390604,98.48334500000001 15.792300604,98.98519800000001 17.093850604,99.49143000000001 18.483730604,100.00332 19.970430604,100.5227 21.563160604,101.05210000000001 23.272090604,101.59478 25.110000604,102.15245 27.091720604,102.7257 29.233300604,103.31503000000001 31.551770603999998,103.92083000000001 34.065070604,104.54352 36.791770604,105.18377000000001 39.750970604,105.84288000000001 42.96436060400001,106.52275 46.456000604,107.22317000000001 50.246670603999995,107.94244 54.350240604,108.67785 58.771410603999996,109.42606 63.505940604,110.1841 68.545240604,110.94926000000001 73.874000604,111.71629 79.465050604,112.47929 85.283150604,113.23317 91.292920604,113.9748 97.467660604,114.70327 103.786830604,115.4175 110.229420604,116.11680000000001 116.774720604,116.80122 123.404120604,117.47172 130.102420604,118.12973000000001 136.857120604,118.77556000000001 143.657120604,119.40925 150.49232060399999,120.03111000000001 157.354120604,120.64173000000001 164.23542060399998,121.24188000000001 171.13102060399999,121.83195 178.03682060399998,122.41162 184.949720604,122.98065 191.867720604,123.53889000000001 198.789520604,124.08626000000001 205.715220604,124.62281000000002 212.645320604,125.1487 219.580420604,125.66423 226.520520604,126.16965000000002 233.465420604,126.66518 240.414120604,127.15100000000001 247.365520604,127.6273 254.317720604,128.09410000000003 261.26922060400005,128.55111 268.218720604,128.99796 275.165520604,129.43435 282.10912060400005,129.85997 289.049820604,130.27458000000001 295.987920604,130.67795 302.92442060400003,131.06996 309.860220604,131.45064000000002 316.796120604,131.82005 323.732520604,132.17821 330.669820604,132.52514000000002 337.608220604,132.86085 344.547720604,133.18533000000002 351.48822060400005,133.49857 358.429520604,133.80059 365.371420604,134.09137 372.313820604,134.37094000000002 379.25662060400003,134.63928 386.19992060400006,134.89642 393.143520604,135.14237 400.08762060400005,135.37714 407.03222060400003,135.60074 413.97742060400003,135.81318 420.92302060400004,136.01448 427.86912060400005,136.20465000000002 434.815620604,136.38371 441.762320604,136.55165 448.709120604,136.70849 455.6559206040001,136.8542 462.60242060400003,136.9887 469.548420604,137.11194 476.493820604,137.22384 483.438320604,137.32433 490.38162060400003,137.41336 497.323520604,137.49085 504.26372060399996,137.55674 511.20202060400004,137.61089 518.138320604,137.65319 525.0726206039999,137.68351 532.005020604,137.70172000000002 538.9357206039999,137.70768 545.864920604,137.70129 552.793020604,137.6824 559.7206206039999,137.65095000000002 566.6476206039999,137.60689000000002 573.5743206039999,137.55020000000002 580.500220604,137.48083 587.425020604,137.39877 594.347920604,137.304 601.267920604,137.19649 608.184020604,137.07613 615.095020604,136.94257 622.0004206039999,136.79544 628.899520604,136.63436000000002 635.792420604,136.45896 642.6790206039999,136.26887 649.5598206039999,136.0637 656.435520604,135.84307 663.306520604,135.60672 670.173220604,135.35441 677.035420604,135.08589 683.892420604,134.80097 690.743620604,134.49944 697.587620604,134.18115 704.422920604,133.84584 711.247920604,133.49299000000002 718.061220604,133.12197 724.8616206039999,132.73221 731.648320604,132.3231 738.420620604,131.89407 745.178120604,131.4445 751.9203206039999,130.97355000000002 758.645620604,130.48005 765.351320604,129.96294 772.033220604,129.42135000000002 778.6861206039999,128.85457000000002 785.3036206039999,128.26215000000002 791.8784206039999,127.64335 798.4040206039999,126.99556000000001 804.877020604,126.31563 811.2966206039999,125.60033 817.6645206039999,124.84632 823.9847206039999,124.05006 830.263420604,123.20811 836.508420604,122.31876 842.729520604,121.38056 848.938220604,120.39143000000001 855.147820604,119.34854000000001 861.3741206039999,118.24816000000001 867.635420604,117.08708000000001 873.949920604,115.86666000000001 880.3311206039999,114.58996 886.7868206039999,113.26141000000001 893.318320604,111.88728 899.918520604,110.47561 906.574220604,109.03343000000001 913.269420604,107.56781000000001 919.986320604,106.08648000000001 926.705820604,104.59772000000001 933.4066206040001,103.10983 940.0636206039999,101.63142 946.6472206039999,100.17186000000001 953.125620604,98.740823 959.464320604,97.349777 965.6177206039999,96.01371800000001 971.5340206039999,94.747675 977.167120604,93.56557000000001 982.4874206039999,92.48707200000001 987.483720604,91.526266 992.160220604,90.68821600000001 996.534120604,89.9790055 1000.634620604,89.402456 1003.995320604,89.00557" stroke="black" stroke-width="2.0" /></svg>