<?xml version="1.0" encoding="utf-8" ?>
<svg baseProfile="full" height="147.11737" version="1.1" width="1011.99514947" xmlns="http://www.w3.org/2000/svg" xmlns:ev="http://www.w3.org/2001/xml-events" xmlns:xlink="http://www.w3.org/1999/xlink"><defs /><polygon fill="none" points="1003.99514947,95.17662999999999 1000.73424947,94.9233575 996.72194947,94.53212369999999 992.39554947,94.03173299999999 987.72004947,93.432132 982.69174947,92.75052699999999 977.33474947,92.00463799999999 971.68584947,91.22105199999999 965.78034947,90.42607999999998 959.6530494699999,89.62853299999999 953.33904947,88.83309799999999 946.86584947,88.04248599999998 940.24984947,87.255619 933.50774947,86.46878399999999 926.6606494700001,85.67782999999999 919.73474947,84.87841999999999 912.75884947,84.06855999999999 905.75814947,83.24964999999999 898.75114947,82.42263999999999 891.74884947,81.58767999999999 884.75414947,80.74402999999998 877.7644494699999,79.89083 870.7761494700001,79.02756 863.78664947,78.15382 856.7939494699999,77.26925999999999 849.79704947,76.37364999999998 842.79554947,75.46695 835.78944947,74.54946999999999 828.77884947,73.62159999999999 821.76424947,72.68374999999999 814.74584947,71.73635999999999 807.72444947,70.77987999999999 800.70084947,69.81475999999998 793.67554947,68.84121999999999 786.6489494699999,67.85942999999999 779.62104947,66.86950999999999 772.59174947,65.87155999999999 765.56034947,64.86558999999998 758.52584947,63.85161999999999 751.4872494699999,62.82978999999999 744.44354947,61.80039999999999 737.3940494699999,60.763789999999986 730.33824947,59.72034999999999 723.27614947,58.67048999999999 716.20784947,57.61467999999999 709.13354947,56.553429999999985 702.05394947,55.48715999999999 694.9694494700001,54.416279999999986 687.88044947,53.34115999999999 680.7871494699999,52.26217999999999 673.68984947,51.179689999999994 666.58844947,50.09402999999999 659.48294947,49.00551999999999 652.3732494699999,47.91455999999999 645.25974947,46.82161999999999 638.1430494699999,45.72723999999999 631.02414947,44.63200999999999 623.90434947,43.53657999999999 616.78554947,42.44164999999999 609.6697494699999,41.347999999999985 602.55924947,40.25647999999999 595.4559494700001,39.167979999999986 588.36094947,38.083269999999985 581.27504947,37.00304999999999 574.19804947,35.92789999999999 567.12964947,34.85832999999999 560.0685494700001,33.79472999999999 553.01334947,32.73742999999999 545.96274947,31.686759999999985 538.91664947,30.64318999999999 531.8754494699999,29.607299999999995 524.84094947,28.579829999999987 517.81554947,27.561599999999984 510.80254947000003,26.553579999999982 503.80614947,25.556849999999983 496.82974947,24.57281999999998 489.87474947000004,23.602679999999992 482.94034947,22.647299999999987 476.02324947,21.707219999999992 469.11814947,20.782719999999998 462.21764946999997,19.87379 455.31224947000004,18.98022999999999 448.39184946999995,18.101089999999985 441.45114947,17.235359999999986 434.49104947,16.382809999999992 427.51904947,15.543999999999997 420.54934947,14.720189999999988 413.60254947,13.91324999999999 406.70484947,13.125599999999991 399.88364946999997,12.362379999999987 393.15554947000004,11.630779999999987 386.52384947,10.93616999999999 379.98034947,10.282249999999976 373.50774947,9.671599999999998 367.08114947,9.106149999999985 360.66794947,8.587649999999996 354.22914947,8.115069999999989 347.72944947,7.68080999999998 341.14464947,7.277269999999987 334.46354947,6.897549999999995 327.69034947,6.535149999999987 320.84824947,6.183839999999989 313.98134947,5.837759999999989 307.15414947,5.491749999999996 300.44274946999997,5.145019999999988 293.90554947000004,4.815809999999999 287.55844947,4.524549999999991 281.38454947,4.2867299999999915 275.34554947,4.114859999999993 269.38874947,4.01943 263.45814947,4.0 257.51044947,4.051189999999991 251.51534947,4.169169999999994 245.45504947,4.350829999999988 239.32604947000002,4.592860000000002 233.14084947,4.89091999999998 226.92904947,5.240649999999988 220.72484947,5.6423599999999965 214.55444947,6.097149999999985 208.43404947000002,6.605979999999988 202.37064947000002,7.170019999999994 196.36264947,7.790949999999995 190.40124946999998,8.470939999999985 184.47594947,9.211349999999982 178.57914947,10.013169999999988 172.70604947,10.877299999999977 166.85484947,11.804399999999987 161.02634947,12.794789999999992 155.22404947,13.84836 149.45274947,14.964859999999987 143.71794947,16.14372999999999 138.02544946999998,17.38409 132.38154947,18.68468999999999 126.79254947,20.04397999999999 121.26534947,21.460949999999983 115.80644947,22.93518999999999 110.42154947,24.466149999999985 105.11554947,26.05307999999998 99.89260947000001,27.69511999999999 94.75663947,29.391149999999996 89.71429947,31.138999999999996 84.77525947000001,32.93478999999999 79.95118947,34.773059999999994 75.25462947,36.64695999999999 70.69853947,38.54928999999999 66.29673947,40.47363999999999 62.06179947,42.41279999999999 58.00365947,44.35904999999999 54.12898947,46.30465999999999 50.44149947,48.24246999999998 46.945059470000004,50.165629999999986 43.64311947,52.06640999999999 40.53672947,53.937069999999984 37.62374947,55.77075999999999 34.89881947000001,57.56206999999999 32.35559947,59.30760999999999 29.987719470000002,61.005119999999984 27.787419470000003,62.65283999999999 25.745499470000002,64.24977999999999 23.85175947,65.79578999999998 22.09546947,67.29153999999998 20.46626947,68.73846999999999 18.95571947,70.13899999999998 17.555959469999998,71.49544999999999 16.25926947,72.80996999999999 15.05811947,74.08458999999999 13.94528547,75.32128999999999 12.91391147,76.52199999999999 11.95757047,77.68860999999998 11.07073847,78.82291999999998 10.25005447,79.92665999999998 9.492496469999999,81.00147999999999 8.79492247,82.04897999999999 8.154171470000001,83.07066999999999 7.56713747,84.06796999999999 7.03081547,85.04221999999999 6.54232747,85.994695 6.09894547,86.92655699999999 5.6981424700000005,87.83890199999999 5.33899847,88.732643 5.02201047,89.608556 4.74736587,90.46741499999999 4.51495157,91.30998699999999 4.32451367,92.13695999999999 4.17680987,92.94830299999998 4.07313901,93.74391899999999 4.01442909,94.5242742 4.0,95.29177929999999 4.02980282,96.05429999999998 4.11445107,96.81904699999998 4.27150607,97.582726 4.51897767,98.333171 4.90651797,99.03523499999999 5.43957847,99.66131399999999 6.06397547,100.23063099999999 6.74819747,100.77162599999998 7.48524447,101.28992699999999 8.27735547,101.78387099999999 9.122019470000001,102.26151099999998 10.01626347,102.73147699999998 10.96185447,103.19656199999999 11.96147847,103.65912499999999 13.01838647,104.12158299999999 14.137489469999998,104.58488399999999 15.32446947,105.04986199999999 16.58560947,105.51762 17.92770947,105.98964 19.35823947,106.46757999999998 20.886339470000003,106.95209999999999 22.522499470000003,107.44339 24.278239470000003,107.94170999999999 26.16603947,108.44739999999999 28.199319470000002,108.96099999999998 30.392819470000003,109.48357999999999 32.76301947,110.01710999999999 35.32834947,110.56485999999998 38.11133947,111.12986999999998 41.136819470000006,111.71234999999999 44.42783947,112.31146999999999 48.00391947000001,112.92561999999998 51.880349470000006,113.55285999999998 56.06769947,114.19148999999999 60.57403947,114.84042999999998 65.40347947000001,115.49646999999999 70.54765947,116.15491999999999 75.98485947,116.81094999999999 81.68462947,117.46074999999999 87.61758947000001,118.10265999999999 93.76065947000001,118.73544999999999 100.08872947,119.35767999999999 106.57374947000001,119.96873 113.18754947,120.56902999999998 119.90514947,121.16009 126.70634947,121.74232999999998 133.57304947,122.31509999999999 140.48904947,122.87807999999998 147.44124947,123.43136999999999 154.41964947,123.97545 161.41794947,124.51078999999999 168.43164947000002,125.03724999999999 175.45714947,125.55466999999999 182.49154947,126.06298999999999 189.53264947,126.56219999999999 196.57924947,127.05237999999999 203.63074946999998,127.53359999999998 210.68654947,128.00593999999998 217.74604947,128.46945 224.80834947,128.92415999999997 231.87254947,129.37010999999998 238.93744947,129.80734999999999 246.00174947,130.23579999999998 253.06444947,130.65520999999998 260.12464947,131.06527 267.18204947,131.46572999999998 274.23654947,131.85636 281.28834947,132.23692 288.33804947,132.60724 295.38654947000003,132.96722999999997 302.43444947,133.31695 309.48234947000003,133.65643999999998 316.53094947,133.98574 323.58044947,134.30487 330.63114946999997,134.61383999999998 337.68324946999996,134.91267 344.73654947000006,135.20137999999997 351.79104947,135.47996999999998 358.84654946999996,135.74849 365.90294947,136.00695 372.95974946999996,136.25536 380.01664947,136.49374999999998 387.07324946999995,136.72213 394.12884947000003,136.94045999999997 401.18324946999996,137.14863 408.23624947,137.34653999999998 415.28774947,137.53408 422.33794947,137.71114 429.38724947,137.87765 436.43614947000003,138.03348999999997 443.48524947,138.17863 450.53534946999997,138.31313 457.58684947,138.43708999999998 464.63994947000003,138.55060999999998 471.69454946999997,138.65376999999998 478.75034947,138.74666 485.80684947000003,138.82935999999998 492.86334947,138.90194 499.91884947,138.96434 506.97264946999996,139.01636 514.0241494699999,139.05784 521.07294947,139.08862 528.11874947,139.10851 535.16144947,139.11737 542.20114947,139.11502 549.23824947,139.10133 556.27274947,139.07617 563.30504947,139.03942999999998 570.3351494699999,138.99099999999999 577.3631494699999,138.93076 584.38904947,138.8586 591.41274947,138.77442 598.43424947,138.67807 605.45304947,138.56939999999997 612.46904947,138.44818999999998 619.48174947,138.31427 626.4904494699999,138.16746 633.49444947,138.00757 640.49304947,137.83445 647.48524947,137.64791 654.47014947,137.4476 661.44684947,137.23305 668.41504947,137.00383 675.37424947,136.75945 682.32454947,136.49948 689.26594947,136.22343999999998 696.19874947,135.93086 703.12354947,135.62136999999998 710.03994947,135.29460999999998 716.94764947,134.95029 723.84574947,134.58810999999997 730.73284947,134.20782 737.6072494699999,133.80922999999999 744.4668494699999,133.39191 751.30854947,132.95469 758.12824947,132.49635 764.92114947,132.01582 771.68134947,131.51219999999998 778.4020494700001,130.98478 785.07614947,130.43293 791.69674947,129.85454 798.25994947,129.24653999999998 804.7653494699999,128.60573 811.21514947,127.92880999999998 817.61454947,127.21227999999999 823.97064947,126.45244 830.2929494699999,125.64696999999998 836.5918494699999,124.79485999999999 842.87924947,123.89462999999999 849.16804947,122.94420999999998 855.47304947,121.94085999999999 861.8106494699999,120.88129999999998 868.19884947,119.76536999999999 874.65204947,118.59559999999999 881.1797494699999,117.37559999999999 887.78494947,116.11048999999998 894.46364947,114.80727999999999 901.20394947,113.47407999999999 907.98924947,112.11931999999999 914.79954947,110.75246999999999 921.61164947,109.38380999999998 928.4001494700001,108.02380999999998 935.13614947,106.68175 941.7875494699999,105.36668999999999 948.32094947,104.08750899999998 954.7042494699999,102.85288299999999 960.90424947,101.67446299999999 966.88414947,100.56436099999999 972.60964947,99.53212699999999 978.05444947,98.58650399999999 983.19974947,97.73929899999999 988.0344494699999,96.99715799999998 992.55804947,96.36186799999999 996.78524947,95.8401866 1000.74694947,95.43597599999998 1003.99514947,95.17662999999999" stroke="black" stroke-width="2.0" /></svg>