<?xml version="1.0" encoding="utf-8" ?>
<svg baseProfile="full" height="149.60001" version="1.1" width="1011.98631802" xmlns="http://www.w3.org/2000/svg" xmlns:ev="http://www.w3.org/2001/xml-events" xmlns:xlink="http://www.w3.org/1999/xlink"><defs /><polygon fill="none" points="1003.98631802,107.6531 1001.00811802,107.20931259999999 997.34381802,106.584598 993.37611802,105.829819 989.0536180199999,104.95088299999999 984.37171802,103.970877 979.37771802,102.91673999999999 974.1319180200001,101.82269099999999 968.67111802,100.721414 963.0045180200001,99.624223 957.13721802,98.53385399999999 951.07141802,97.45187999999999 944.80441802,96.37724 938.33441802,95.30449 931.66971802,94.22748999999999 924.83231802,93.14038 917.8610180200001,92.03974 910.80051802,90.92902 903.68871802,89.81209 896.55201802,88.69085 889.40341802,87.5651 882.2442180200001,86.43386 875.07341802,85.29702 867.8917180200001,84.15477999999999 860.70141802,83.00762999999999 853.50661802,81.85633999999999 846.31261802,80.70163 839.1238180199999,79.54374 831.94281802,78.38253 824.76971802,77.21754 817.6029180200001,76.04799 810.43871802,74.87279 803.27211802,73.69129 796.09911802,72.50343 788.9171180200001,71.30937999999999 781.7249180199999,70.10954999999998 774.5228180199999,68.90462 767.31281802,67.69551999999999 760.0978180200001,66.48307 752.8807180199999,65.26774 745.66361802,64.04984999999999 738.44771802,62.829589999999996 731.23351802,61.607029999999995 724.02081802,60.382079999999995 716.80851802,59.15463999999999 709.59531802,57.92497999999999 702.3801180199999,56.69356 695.16251802,55.46092999999999 687.94251802,54.22774 680.72041802,52.994679999999995 673.49731802,51.76255 666.2744180200001,50.532129999999995 659.05321802,49.303999999999995 651.83531802,48.0787 644.62171802,46.85671 637.4137180199999,45.63851 630.21231802,44.42455 623.01831802,43.21524999999998 615.83251802,42.01111 608.65551802,40.81278999999999 601.48781802,39.62097999999999 594.32971802,38.43633999999999 587.18161802,37.25949999999999 580.04371802,36.0911 572.91601802,34.931709999999995 565.79871802,33.78192 558.69171802,32.64234999999999 551.59501802,31.51357999999999 544.50851802,30.396199999999993 537.43201802,29.290789999999987 530.36541802,28.197909999999993 523.30841802,27.11811999999999 516.2610180199999,26.05194999999999 509.22291802,25.000010000000003 502.19431801999997,23.96293999999999 495.17561802,22.941399999999987 488.16731802,21.936089999999993 481.17051802,20.947729999999993 474.18611802,19.97704999999999 467.21561802,19.024810000000002 460.26021802,18.092060000000004 453.32121802,17.179940000000002 446.39921802,16.289529999999985 439.49491802,15.421840000000003 432.60841802,14.577809999999985 425.73971802,13.758340000000004 418.88861802,12.964269999999999 412.05481802,12.196460000000002 405.23801801999997,11.455729999999988 398.43841802000003,10.742959999999982 391.65641802,10.058999999999997 384.89251801999995,9.404719999999998 378.14761802,8.780959999999993 371.42251802,8.18858999999999 364.71871802,7.628900000000002 358.03811802,7.103300000000004 351.38321802,6.613399999999999 344.75691802,6.160499999999999 338.16271802,5.745999999999995 331.60461802,5.371099999999998 325.08691802,5.037099999999995 318.61331802,4.745899999999992 312.18601802,4.499799999999993 305.80581802,4.300399999999996 299.47161802,4.149599999999992 293.18131802,4.048900000000003 286.93131802,4.0 280.71741802,4.004199999999997 274.53561802,4.061999999999983 268.38231802,4.173999999999992 262.25481802,4.340899999999991 256.15091802,4.563399999999987 250.06901802,4.842199999999991 244.00801802,5.178100000000001 237.96721802,5.571699999999993 231.94641802,6.023200000000003 225.94581802,6.532999999999987 219.96581802,7.1011999999999915 214.00711802,7.728200000000001 208.07071802,8.414069999999995 202.15801802000001,9.158969999999997 196.27001802,9.962999999999994 190.40771801999998,10.82629 184.57161802000002,11.748999999999995 178.76181802,12.731359999999995 172.97841802,13.77364 167.22131801999998,14.876249999999999 161.49211802,16.039479999999983 155.79491801999998,17.263029999999986 150.13641802,18.545909999999992 144.52491802,19.88628 138.97101802,21.281480000000002 133.48521802,22.729139999999987 128.07281802,24.228589999999997 122.73321802,25.780649999999994 117.46031802,27.387779999999992 112.24341802,29.054239999999993 107.06841802,30.78560999999999 101.92839802,32.584019999999995 96.83423802,34.44494999999999 91.81421802,36.35646 86.91001802,38.29947999999999 82.16963802,40.250919999999994 77.63022802,42.198689999999985 73.29678802,44.14532 69.15035802,46.102059999999994 65.15950802,48.0862 61.28603802,50.120219999999996 57.48924802,52.221799999999995 53.74886802,54.388149999999996 50.07664802,56.597899999999996 46.51089802,58.812039999999996 43.10449802,60.98057 39.90971802,63.063489999999994 36.955908019999995,65.05181999999999 34.24128802,66.95163 31.74794802,68.77496 29.452668019999997,70.53515 27.33255802,72.24463 25.36685802,73.91245 23.53903802,75.54145 21.83718802,77.1318 20.25198802,78.68257 18.77555802,80.19251 17.40077802,81.66041 16.12091802,83.08539999999999 14.929908020000001,84.46732 13.823651020000002,85.80754999999999 12.798271020000001,87.10781 11.849594020000001,88.36968999999999 10.97324602,89.59478 10.16477902,90.78465 9.41977602,91.94089 8.73393202,93.06505 8.10311302,94.15867999999999 7.52413502,95.22306999999999 6.9955810199999995,96.25914 6.51590002,97.26811 6.08329302,98.251401 5.6958720199999995,99.21054699999999 5.35175802,100.14707899999999 5.04913702,101.062495 4.78630032,101.95823299999999 4.56165542,102.83564899999999 4.37373722,103.69601899999999 4.22202942,104.540262 4.10901352,105.366636 4.03541708,106.172015 4.0,106.959035 4.0024124,107.73614366999999 4.04710562,108.5127 4.14229452,109.290686 4.29314892,110.064993 4.50783982,110.82865299999999 4.82222632,111.564673 5.26499202,112.242926 5.84078002,112.83799499999999 6.505178020000001,113.36749599999999 7.227941019999999,113.863169 8.000467019999999,114.334048 8.82595602,114.77685299999999 9.70413202,115.197538 10.63334202,115.604474 11.61540702,116.00155699999999 12.653198020000001,116.392029 13.74974002,116.779529 14.90999802,117.16509699999999 16.140208020000003,117.54879799999999 17.44740802,117.93082 18.83953802,118.31155 20.32552802,118.69165 21.915388019999998,119.07221 23.62030802,119.45497 25.45263802,119.84253 27.42698802,120.23680999999999 29.56108802,120.63784 31.87483802,121.04542 34.389158019999996,121.45911 37.12499801999999,121.87835 40.10321802,122.30273 43.34503802,122.73262 46.87472802,123.16967 50.72055802,123.61375 54.90716801999999,124.06294 59.44998802,124.51478 64.35159802,124.96685 69.60249802,125.41776 75.18846802,125.86731999999999 81.08900802,126.31336999999999 87.26976802,126.75367 93.68684802,127.18709 100.29606801999999,127.61421999999999 107.06281802,128.03676000000002 113.95921802,128.45454999999998 120.95791802,128.86726 128.03291802,129.27498 135.16201802,129.67827 142.32781802,130.07779 149.51721802,130.47294 156.72051802,130.86287 163.93091801999998,131.24694 171.14531802,131.6247 178.36381802,131.99589 185.58911802,132.36068 192.82361802000003,132.71962 200.06801801999998,133.07318 207.32141801999998,133.42176999999998 214.58131802,133.76569999999998 221.84341802,134.10523999999998 229.10231802,134.44008 236.35351802,134.76937999999998 243.59401802,135.09231 250.82271802,135.40815 258.04021802,135.71623 265.24871802,136.01599 272.45171802000004,136.30704 279.65331802,136.58957999999998 286.85651802,136.86398 294.06361802,137.13053 301.27551802,137.38947 308.49241802,137.64104 315.71331802,137.88540999999998 322.93641802,138.12264 330.15971802,138.35257 337.38171802,138.57501 344.60131802,138.78978999999998 351.81811802000004,138.99676 359.03201802,139.1958 366.24351802,139.38679 373.45351802,139.56965 380.66321802,139.74446 387.87321801999997,139.91129 395.08441802,140.07021 402.29701802,140.22131 409.51141802,140.36463 416.72761801999997,140.50024 423.94531802,140.62817 431.16431802,140.74842999999998 438.38411802,140.86101 445.60421802,140.96588 452.82421802,141.06302 460.04341802,141.15242999999998 467.26111801999997,141.23408999999998 474.47671801999996,141.30798 481.68941802,141.374 488.89871802000005,141.43196 496.10431802,141.48167999999998 503.30641801999997,141.52294999999998 510.50501801999997,141.55561 517.7008180199999,141.57945 524.8945180200001,141.59429999999998 532.08721802,141.60001 539.27981802,141.59661 546.47281802,141.58413 553.6665180199999,141.5626 560.86071802,141.53208 568.05481802,141.49261 575.24811802,141.44422 582.43921802,141.38695 589.62681802,141.32058999999998 596.80981802,141.24484 603.98711802,141.1594 611.1582180199999,141.06398 618.3224180200001,140.95828999999998 625.47971802,140.84203 632.6300180200001,140.7149 639.77351802,140.57659 646.9103180200001,140.42678 654.04041802,140.26515 661.16351802,140.09139 668.2796180199999,139.90518 675.38841802,139.70622 682.4893180199999,139.49421 689.58181802,139.26881 696.6653180200001,139.02964 703.73901802,138.77633 710.80181802,138.50854999999999 717.85281802,138.22597 724.89061802,137.92826 731.91401802,137.61503 738.92071802,137.28528 745.90731802,136.93784 752.86861802,136.5717 759.79831802,136.18599 766.68871802,135.78007 773.53111802,135.35342 780.31681802,134.90461 787.03981802,134.43071 793.69831802,133.92865999999998 800.29401802,133.39535999999998 806.8319180200001,132.82756999999998 813.3198180200001,132.22183 819.76781802,131.57528 826.18781802,130.88706 832.59321802,130.15624 838.99911802,129.38130999999998 845.4223180199999,128.56007 851.88221802,127.68952999999999 858.40071802,126.76741 864.99721802,125.79543 871.68271802,124.77717 878.4580180199999,123.71822 885.31121802,122.62678 892.21601802,121.51384999999999 899.1381180200001,120.39141 906.04571802,119.27095 912.91161802,118.1631 919.7148180199999,117.07722299999999 926.43921802,116.02123399999999 933.06741802,115.00219799999999 939.5781180199999,114.027035 945.94791802,113.102126 952.15321802,112.233263 958.17051802,111.42787399999999 963.97511802,110.692831 969.54521802,110.032553 974.86461802,109.44925099999999 979.91941802,108.94662199999999 984.69541802,108.52718499999999 989.18361802,108.18981629999999 993.38391802,107.9329247 997.3091180199999,107.759373 1000.98281802,107.66888059 1003.98631802,107.6531" stroke="black" stroke-width="2.0" /></svg>