<?xml version="1.0" encoding="utf-8" ?>
<svg baseProfile="full" height="161.60810999999998" version="1.1" width="1012.002890826" xmlns="http://www.w3.org/2000/svg" xmlns:ev="http://www.w3.org/2001/xml-events" xmlns:xlink="http://www.w3.org/1999/xlink"><defs /><polygon fill="none" points="1004.002890826,115.71499999999999 1000.727590826,115.18378019999999 996.749490826,114.44576699999999 992.500190826,113.57010499999998 987.935690826,112.57094399999998 983.058590826,111.476154 977.904190826,110.31390099999999 972.506290826,109.11815999999999 966.875190826,107.91775499999999 961.006690826,106.71863299999998 954.896690826,105.52154999999999 948.5401908260001,104.32646999999999 941.932290826,103.13059999999999 935.073990826,101.92818999999999 927.9781908260001,100.71302999999999 920.674490826,99.47925 913.207490826,98.22635999999999 905.623990826,96.95904999999999 897.9635908260001,95.68078999999999 890.254390826,94.39285999999998 882.511190826,93.09503 874.741890826,91.78804 866.953490826,90.47276 859.1520908260001,89.14997999999999 851.342890826,87.82034999999999 843.530390826,86.48432999999999 835.717490826,85.14217 827.905990826,83.79386 820.095990826,82.43914999999998 812.286390826,81.07754999999999 804.474490826,79.70849999999999 796.657690826,78.33189999999999 788.833990826,76.94787 781.002190826,75.55669999999998 773.162290826,74.15881999999999 765.314890826,72.75483 757.4614908259999,71.34535 749.603290826,69.93086 741.7409908259999,68.51173 733.875090826,67.08821999999998 726.005190826,65.66054 718.130590826,64.22877 710.250090826,62.79310999999999 702.362990826,61.354019999999984 694.4694908260001,59.91215999999999 686.570590826,58.46833999999999 678.668290826,57.02353999999999 670.765190826,55.57889999999999 662.864790826,54.13567999999999 654.9707908260001,52.695139999999995 647.0856908259999,51.25841 639.2115908259999,49.826469999999986 631.349690826,48.40015 623.5007908260001,46.98016999999999 615.664590826,45.567099999999996 607.840690826,44.16149999999999 600.028790826,42.76397999999999 592.2290908260001,41.37522 584.441790826,39.99592999999999 576.667690826,38.62684999999999 568.907690826,37.26877999999999 561.162890826,35.92263999999999 553.4343908259999,34.58951999999999 545.723090826,33.27047999999999 538.029290826,31.96651 530.353290826,30.67852999999998 522.695190826,29.407409999999985 515.054690826,28.153969999999987 507.431290826,26.91901999999999 499.825090826,25.703389999999985 492.235990826,24.50797 484.66469082599997,23.333669999999998 477.111690826,22.181399999999996 469.577990826,21.052099999999996 462.06479082600003,19.94677999999999 454.573390826,18.86673999999998 447.104890826,17.813279999999992 439.660590826,16.787689999999984 432.241490826,15.79115999999999 424.84859082599996,14.8249 417.482890826,13.889899999999983 410.145490826,12.987499999999983 402.83729082599996,12.119099999999989 395.559590826,11.28609999999999 388.313690826,10.4897 381.100790826,9.73129999999999 373.922390826,9.011999999999986 366.780090826,8.333099999999988 359.675790826,7.696399999999983 352.612190826,7.103799999999978 345.592690826,6.557099999999991 338.621290826,6.058099999999982 331.702590826,5.608299999999986 324.841190826,5.209199999999981 318.041990826,4.86269999999999 311.307690826,4.571499999999986 304.63909082600003,4.337799999999987 298.034790826,4.163399999999982 291.491990826,4.050299999999979 285.006190826,4.0 278.572390826,4.013999999999996 272.185190826,4.092699999999994 265.839690826,4.236699999999985 259.531490826,4.446499999999986 253.255890826,4.723199999999991 247.008690826,5.067699999999988 240.78579082599998,5.481099999999998 234.583790826,5.963399999999979 228.40079082600002,6.514499999999984 222.23609082599998,7.134299999999982 216.09049082599998,7.822399999999988 209.965990826,8.578499999999991 203.86599082599997,9.401899999999998 197.794190826,10.292399999999986 191.753790826,11.249999999999986 185.74749082600002,12.274299999999997 179.77709082599998,13.365399999999994 173.84399082599998,14.523199999999989 167.948890826,15.74763999999999 162.093290826,17.038439999999994 156.27979082599998,18.395019999999988 150.512090826,19.816399999999987 144.794690826,21.301179999999988 139.133090826,22.847489999999993 133.533790826,24.45362999999999 128.003590826,26.11803999999998 122.549090826,27.838779999999986 117.176690826,29.613589999999988 111.892490826,31.439859999999996 106.702490826,33.31488 101.61340082599999,35.23589999999999 96.63248082599999,37.19950999999999 91.767080826,39.20158999999998 87.02419082600001,41.23749999999998 82.410300826,43.30224999999999 77.932600826,45.39076999999999 73.598840826,47.49718999999999 69.416330826,49.61486999999998 65.391160826,51.73677999999999 61.527760826,53.85594999999999 57.829800825999996,55.966169999999984 54.30069082599999,58.061559999999986 50.94232082599999,60.13615999999999 47.754560825999995,62.18437999999999 44.735210826,64.20133999999999 41.880280825999996,66.18306999999999 39.18567082599999,68.12684999999999 36.646960826,70.03040999999999 34.25874082600001,71.89177999999998 32.014650826,73.70953999999999 29.907580826000004,75.48281999999999 27.929940826,77.21134999999998 26.074420826,78.89542 24.334800826000002,80.53572 22.704900826000003,82.13304 21.178480826,83.68825999999999 19.749330825999998,85.20242999999999 18.411350826,86.67670999999999 17.158610826,88.11237999999999 15.985430826,89.51079999999999 14.887150826,90.87362999999999 13.860088825999998,92.20271999999999 12.900634826000001,93.49978999999999 12.005220826,94.76643999999999 11.170361826,96.00416999999999 10.392684826,97.21436999999999 9.668951826,98.39836 8.996072825999999,99.55739 8.371115826,100.69261999999999 7.791923826,101.80496 7.257727826,102.89491 6.767727826,103.963 6.320944826,105.00986999999999 5.916286826,106.03619699999999 5.5525918260000005,107.04267399999999 5.228663826,108.030019 4.943296426,108.998939 4.695292826,109.950133 4.483477426,110.884278 4.307350926,111.80197799999999 4.169285226,112.70371399999999 4.072041716,113.59026499999999 4.016364716,114.46254499999999 4.0,115.32256069999998 4.021215706,116.17466029999999 4.083024856,117.02432199999998 4.196619526,117.873347 4.372937326,118.71692199999998 4.620627726,119.54717999999998 4.948972026,120.35639699999999 5.410216826,121.10816799999999 6.017857826,121.769156 6.713761826,122.36655099999999 7.477412826,122.91566199999998 8.297267825999999,123.428659 9.167549826,123.913237 10.085785825999999,124.37530399999999 11.051134826,124.82019499999998 12.064517826,125.25157499999999 13.127562826,125.672699 14.241760826,126.08729 15.410170826,126.49694 16.637090825999998,126.90194 17.927290826,127.30269999999999 19.286020825999998,127.69988 20.719030826,128.09438999999998 22.232600826000002,128.48754 23.833480826,128.88117 25.529210826000003,129.27712 27.329070826,129.67565 29.243580826000002,130.07673 31.284360826,130.48032999999998 33.464160826000004,130.88653 35.79693082600001,131.29559999999998 38.297870826,131.70815 40.983620826,132.12536 43.872910825999995,132.54933 46.987750825999996,132.98185999999998 50.352720826,133.42284999999998 53.992740826,133.87181999999999 57.931550826,134.32813 62.190020825999994,134.79111999999998 66.78546082599999,135.26060999999999 71.733230826,135.73721999999998 77.046270826,136.22039999999998 82.726520826,136.7085 88.760910826,137.2 95.122290826,137.69412999999997 101.775990826,138.19151 108.686590826,138.69154999999998 115.814190826,139.19149 123.11619082600001,139.68891 130.55279082599998,140.18219 138.093690826,140.67074 145.718590826,141.15411 153.410790826,141.63159 161.15489082599998,142.10269 168.937990826,142.56712 176.749690826,143.02485 184.582390826,143.4757 192.42979082600002,143.91923 200.286490826,144.35502 208.14789082599998,144.78275 216.010390826,145.20212999999998 223.87139082599998,145.61293999999998 231.72899082599997,146.01477 239.582290826,146.40718999999999 247.430690826,146.78979999999999 255.27469082599998,147.16224 263.11529082600003,147.5242 270.95409082599997,147.87544 278.792990826,148.21604 286.633090826,148.54617 294.475190826,148.86594 302.319290826,149.17546 310.164890826,149.47478999999998 318.010890826,149.76398999999998 325.856090826,150.04296 333.699490826,150.31153 341.540690826,150.56958 349.379990826,150.81698 357.217890826,151.05363 365.055590826,151.27943 372.894790826,151.49441 380.736990826,151.69876 388.58279082599995,151.8927 396.432490826,152.07641999999998 404.285590826,152.25011 412.140990826,152.41393 419.996990826,152.56804 427.851390826,152.71236 435.70249082600003,152.8466 443.549390826,152.9705 451.391490826,153.08381 459.22899082600003,153.18628999999999 467.062790826,153.27770999999998 474.894190826,153.35784999999998 482.724990826,153.42674 490.556090826,153.48444999999998 498.38829082599995,153.53107 506.221690826,153.56668 514.055790826,153.59134 521.889590826,153.60514999999998 529.721790826,153.60810999999998 537.550590826,153.6 545.374990826,153.58056 553.193890826,153.54953999999998 561.006590826,153.50666999999999 568.812990826,153.4517 576.6128908259999,153.38438 584.406590826,153.30446999999998 592.194490826,153.21173 599.976490826,153.10594999999998 607.752590826,152.98689 615.5225908259999,152.85433 623.286290826,152.70806 631.0429908259999,152.54787 638.792090826,152.37340999999998 646.532690826,152.18426999999997 654.263490826,151.98005 661.982890826,151.76038999999997 669.689090826,151.52494 677.380090826,151.27337 685.053390826,151.00530999999998 692.707290826,150.72015 700.340190826,150.41728999999998 707.951590826,150.09610999999998 715.541390826,149.75596 723.109990826,149.39621 730.658590826,149.01606999999998 738.185890826,148.61428999999998 745.6863908260001,148.18974 753.150190826,147.74167999999997 760.563090826,147.26981 767.9074908260001,146.77434 775.1638908259999,146.25529999999998 782.3166908259999,145.70963999999998 789.361290826,145.13306999999998 796.303190826,144.521 803.1555908260001,143.86838 809.938090826,143.16946 816.675890826,142.41887 823.391890826,141.61640999999997 830.098990826,140.76391999999998 836.799990826,139.86425 843.4873908259999,138.92164 850.1439908259999,137.94194 856.742590826,136.93012 863.245990826,135.88834 869.610090826,134.82079 875.7888908259999,133.73380999999998 881.741090826,132.63512999999998 887.4342908259999,131.53450999999998 892.855190826,130.46121 898.0122908259999,129.44939 902.9257908259999,128.52175 907.621090826,127.69257999999999 912.124190826,126.97061 916.460490826,126.36111 920.6520908260001,125.86104999999999 924.713290826,125.44004199999999 928.654190826,125.065722 932.482790826,124.71130499999998 936.205590826,124.354334 939.827690826,123.975799 943.353690826,123.55948699999999 946.787190826,123.091495 950.1312908259999,122.55986899999999 953.3886908259999,121.95431699999999 956.561790826,121.26621999999999 959.6578908260001,120.50997999999998 962.6974908259999,119.73546699999999 965.7096908259999,118.98924299999999 968.731190826,118.313616 971.808590826,117.74901799999999 974.991290826,117.30119499999999 978.3196908259999,116.94853099999999 981.822590826,116.66874189999999 985.5044908259999,116.43526159999999 989.322590826,116.21427879999999 993.180290826,115.99327679999999 996.999190826,115.81287065 1000.762090826,115.7140361728 1004.002890826,115.71499999999999" stroke="black" stroke-width="2.0" /></svg>