<?xml version="1.0" encoding="utf-8" ?>
<svg baseProfile="full" height="110.910255" version="1.1" width="1012.1056402" xmlns="http://www.w3.org/2000/svg" xmlns:ev="http://www.w3.org/2001/xml-events" xmlns:xlink="http://www.w3.org/1999/xlink"><defs /><polygon fill="none" points="1004.1056402,97.96916 1000.8697402000001,97.5230577 996.2710402,96.894266 990.9647402,96.164559 985.2533402,95.362198 979.3073402,94.505015 973.2400402,93.605637 967.0966402,92.672376 960.9051402000001,91.713821 954.6850402,90.73762500000001 948.4478402000001,89.748234 942.2012402,88.747893 935.9503402,87.7384 929.6968402,86.72107 923.4408402,85.69664 917.1818402,84.66559000000001 910.9199402,83.62845 904.6551402,82.58581000000001 898.3880402000001,81.53825 892.1190402,80.48623 885.8484402000001,79.43014 879.5765402000001,78.37036 873.3033402,77.30722 867.0286402,76.24103000000001 860.7521402,75.1721 854.4737402,74.10076000000001 848.1933402000001,73.02733 841.9108402,71.9522 835.6264401999999,70.87573 829.3403402,69.79832 823.0530402,68.72021000000001 816.7647402,67.64154 810.4758402000001,66.56241 804.1868402000001,65.48297 797.8979402,64.40333000000001 791.6098402,63.32361 785.3226402000001,62.24401 779.0366402000001,61.164820000000006 772.7521402000001,60.086349999999996 766.4692402000001,59.00889 760.1876402,57.93271 753.9074402,56.85806 747.6281402,55.785160000000005 741.3495402,54.71419 735.0713402000001,53.64517 728.7931402,52.57818 722.5151402,51.513270000000006 716.2370402,50.450540000000004 709.9590402,49.390080000000005 703.6814402,48.33202 697.4044402000001,47.27653 691.1283402,46.22388 684.8533402,45.17437 678.5795402,44.128280000000004 672.3069402,43.085890000000006 666.0355402,42.047450000000005 659.7652402,41.013200000000005 653.4957402,39.98337 647.2268402,38.958130000000004 640.9582402,37.93765 634.6899402,36.9221 628.4217402,35.91167 622.1538402000001,34.90654 615.8863402,33.906940000000006 609.6194402,32.9131 603.3534402,31.925250000000005 597.0886402000001,30.943799999999996 590.8253402,29.969179999999994 584.5635402,29.001830000000012 578.3034402000001,28.04213999999999 572.0449402,27.090509999999995 565.7878402,26.14730999999999 559.5318402,25.212919999999997 553.2768402,24.2877 547.0225402000001,23.372110000000006 540.7688402,22.466639999999998 534.5159402,21.571830000000006 528.2644402000001,20.688230000000004 522.0147402,19.816420000000008 515.7678401999999,18.957020000000014 509.5248401999999,18.11066000000001 503.2868402,17.27829 497.05484019999994,16.46136 490.8295402,15.661300000000011 484.61124019999994,14.879500000000007 478.3999402,14.117249999999999 472.1953402,13.375820000000004 465.9967402,12.656440000000003 459.80324019999995,11.960260000000005 453.6139402,11.2881 447.42794019999997,10.640630000000002 441.24474019999997,10.018540000000016 435.0637402,9.422520000000006 428.8848402,8.853310000000008 422.70764019999996,8.31165 416.53254019999997,7.798299999999998 410.35954019999997,7.3140300000000025 404.18894019999993,6.859589999999997 398.02114019999993,6.435750000000013 391.8563402,6.0432500000000005 385.6948402,5.682829999999996 379.5366402,5.355220000000003 373.3821402,5.061130000000006 367.2313402,4.801290000000009 361.0843402,4.5763900000000035 354.94144019999993,4.387150000000005 348.80254019999995,4.234250000000003 342.6679402,4.118399999999994 336.53734019999996,4.040279999999996 330.4108402,4.000579999999999 324.2883402,4.0 318.1698402,4.039110000000008 312.05544019999996,4.118449999999996 305.94544019999995,4.238569999999996 299.8402402,4.400009999999995 293.7402402,4.603310000000008 287.64614019999993,4.848980000000012 281.5585402,5.137529999999998 275.4782402,5.469450000000009 269.4053402,5.84526000000001 263.33994019999994,6.26549 257.2815402,6.730710000000002 251.22954020000003,7.241550000000004 245.18284020000002,7.798650000000009 239.14024020000002,8.402200000000008 233.1010402,9.052050000000008 227.06494020000002,9.748010000000008 221.03224020000002,10.489830000000012 215.00394020000002,11.277220000000014 208.9811402,12.10978 202.9658402,12.987410000000011 196.9598402,13.910380000000004 190.96474020000002,14.878990000000002 184.9819402,15.893510000000006 179.01244020000001,16.954250000000002 173.05734020000003,18.061549999999997 167.1175402,19.216120000000004 161.1944402,20.418890000000005 155.28964020000004,21.670680000000004 149.4052402,22.97220999999999 143.54344020000002,24.324079999999995 137.70684020000002,25.72695999999999 131.8982402,27.18225000000001 126.1199402,28.69144999999999 120.3734402,30.256190000000004 114.6600402,31.87816000000001 108.9805402,33.55928 103.3369802,35.30178000000001 97.7335602,37.10732 92.17632019999999,38.976690000000005 86.6730002,40.90975 81.2327402,42.90645 75.8628902,44.968630000000005 70.56636019999999,47.09953 65.34211020000001,49.30389 60.187220200000006,51.58822 55.1106302,53.957170000000005 50.1418702,56.404900000000005 45.3262602,58.91371 40.7144802,61.45973 36.330620200000006,64.03450000000001 32.1576902,66.65157 28.155120200000002,69.34229 24.3220302,72.12325 20.8050102,74.89493 17.776580199999998,77.48785000000001 15.2834102,79.80532 13.2483962,81.87216000000001 11.5643822,83.75175 10.1498322,85.49762 8.946144199999999,87.15031 7.9146132,88.721061 7.0407492000000005,90.181653 6.3074162,91.508168 5.6899622,92.699428 5.1651582000000005,93.768792 4.7353401,94.728245 4.4063038,95.593969 4.17545774,96.38396300000001 4.04008008,97.1131321 4.0,97.79316010000001 4.0587432,98.4333045 4.2247782,99.041225 4.5071547,99.623512 4.9028366,100.18451300000001 5.4106302,100.72523 6.0331382,101.24268500000001 6.7745092,101.727847 7.6353382,102.161137 8.6196542,102.516553 9.7537602,102.773819 11.0740012,102.910255 12.6262062,102.902522 14.4652902,102.736973 16.6523802,102.434742 19.2713102,102.008019 22.407410199999998,101.412225 26.0485402,100.612739 30.0772802,99.608994 34.4467802,98.3980931 39.1467702,96.9700732 44.12759020000001,95.333988 49.2895802,93.526829 54.501330200000005,91.593501 59.6549502,89.560945 64.6974902,87.44105 69.6303402,85.22651 74.49772019999999,82.89531 79.35651019999999,80.43186 84.2511902,77.82538 89.2127702,75.07004 94.25640019999999,72.16900000000001 99.3824802,69.13774000000001 104.5821402,66.00261 109.83534019999999,62.80075000000001 115.1100402,59.579660000000004 120.36404019999999,56.39387 125.5570402,53.29357 130.66994019999998,50.31201 135.7047402,47.46616 140.67954020000002,44.76122 145.6243402,42.194790000000005 150.57354020000002,39.75596 155.55304020000003,37.42877 160.5815402,35.20215 165.6719402,33.06964000000001 170.83104020000002,31.028490000000005 176.05894020000002,29.079179999999994 181.34904020000002,27.22460000000001 186.6920402,25.467799999999997 192.0797402,23.81076999999999 197.5052402,22.25457 202.9633402,20.799440000000004 208.4506402,19.445000000000007 213.9653402,18.190330000000003 219.50754020000002,17.03362 225.0782402,15.97224 230.67914020000003,15.003590000000003 236.3125402,14.125209999999996 241.9812402,13.334810000000004 247.68894020000002,12.630230000000012 253.4402402,12.009290000000007 259.2399402,11.467560000000006 265.0919402,10.999570000000006 270.9977402,10.599940000000004 276.9561402,10.26321 282.96334019999995,9.983670000000004 289.0122402,9.755330000000015 295.09304019999996,9.573040000000006 301.1955402,9.435580000000002 307.31164019999994,9.342240000000004 313.43494019999997,9.292060000000006 319.5610402,9.283900000000003 325.68774019999995,9.316510000000008 331.81494019999997,9.38864000000001 337.9441402,9.499070000000003 344.0777402,9.646619999999999 350.2173402,9.830200000000005 356.36454019999996,10.048690000000008 362.5201402,10.301010000000005 368.6848402,10.586060000000003 374.8585402,10.902720000000002 381.04094019999997,11.249809999999997 387.2317402,11.62612 393.4304402,12.030390000000011 399.6362402,12.46132 405.8485402,12.917600000000007 412.0664402,13.397870000000012 418.2890402,13.900760000000005 424.5152402,14.425060000000002 430.7440402,14.970150000000004 436.9745402,15.535600000000002 443.20604019999996,16.12093 449.4379402,16.725700000000003 455.6698402,17.349459999999993 461.90144019999997,17.991789999999995 468.1327402,18.652260000000012 474.3637402,19.330529999999996 480.59464019999996,20.02632 486.8252402,20.73935 493.0559402,21.469350000000006 499.28664019999997,22.21602 505.51744019999995,22.979110000000006 511.7483402,23.75831000000001 517.9795402000001,24.55335000000001 524.2111402,25.363870000000006 530.4431402,26.189459999999997 536.6757402000001,27.029750000000007 542.9090402,27.884349999999998 549.1431402,28.752860000000013 555.3782402,29.634919999999994 561.6145402,30.530140000000003 567.8521402000001,31.438090000000003 574.0913402000001,32.35831 580.3321402,33.29028000000001 586.5746402000001,34.23353 592.8190402000001,35.18752 599.0653402,36.15175 605.3134402,37.1257 611.5633402000001,38.10883 617.8149402,39.100620000000006 624.0682402000001,40.100570000000005 630.3233402000001,41.10819000000001 636.5803402,42.12299 642.8392402000001,43.14451 649.1005402000001,44.172290000000004 655.3644402000001,45.205870000000004 661.6313402000001,46.24481 667.9015402,47.28862 674.1754402000001,48.33677 680.4529402000001,49.38868 686.7339402,50.44375000000001 693.0181402000001,51.50134 699.3048402000001,52.56076 705.5934402,53.621320000000004 711.8829402000001,54.68256 718.1723402000001,55.74445 724.4609402000001,56.807050000000004 730.7481402,57.870430000000006 737.0335402,58.934720000000006 743.3168402,60.00003 749.5980402000001,61.06656 755.8772402000001,62.13448 762.1547402000001,63.20394 768.4306402000001,64.27508 774.7054402,65.34805 780.9794402,66.42301 787.2529402,67.50011 793.5264402,68.57952 799.8003402,69.66143 806.0747402000001,70.74599 812.3492401999999,71.83332 818.6229402,72.92339000000001 824.8945402,74.01613 831.1620402000001,75.11134 837.4230402000001,76.20859 843.6753402,77.30554000000001 849.9172402,78.39874 856.1474402,79.48488 862.3655402,80.56076 868.5711402000001,81.62328 874.7646402,82.66953000000001 880.9462402,83.69672 887.1160402,84.70214 893.2730402000001,85.68301 899.4161402000001,86.63652 905.5433402000001,87.55989 911.6527402,88.4503 917.7440402,89.305188 923.8202402000001,90.122459 929.8877402,90.90041000000001 935.9559402000001,91.637649 942.0361402000001,92.33533800000001 948.1372402000001,92.997725 954.2645402,93.628767 960.4189402000001,94.231989 966.5957402,94.810433 972.7767402000001,95.366069 978.9258402,95.899645 984.9831402,96.410509 990.8095402,96.892546 996.2001402000001,97.33380890000001 1000.8464402000001,97.7095699 1004.1056402,97.96916" stroke="black" stroke-width="2.0" /></svg>