<?xml version="1.0" encoding="utf-8" ?>
<svg baseProfile="full" height="109.56228999999999" version="1.1" width="1011.8125833" xmlns="http://www.w3.org/2000/svg" xmlns:ev="http://www.w3.org/2001/xml-events" xmlns:xlink="http://www.w3.org/1999/xlink"><defs /><polygon fill="none" points="1003.8125833,86.46882 1001.0277833,86.0992988 997.3083833000001,85.58247259999999 993.0216833,84.95741799999999 988.2110832999999,84.22525499999999 982.9229833,83.391977 977.2384833,82.47434799999999 971.2659833,81.49867699999999 965.1050833,80.48671499999999 958.8416833,79.45563399999999 952.5298833,78.417789 946.1867833000001,77.37784199999999 939.8179833,76.33628999999999 933.4291833000001,75.29347 927.0261833,74.24972 920.6144833,73.20558 914.1987833000001,72.16178 907.7820833,71.11882 901.3659832999999,70.07695 894.9504833000001,69.03617 888.5345833,67.99616999999999 882.1174833000001,66.95657 875.6985833000001,65.91703 869.2778833,64.87728 862.8555833,63.83711999999999 856.4323833000001,62.796499999999995 850.0086833,61.75565999999999 843.5852833,60.71484999999999 837.1624833,59.674279999999996 830.7405833,58.63417 824.3198833000001,57.59472999999999 817.9003833,56.55611999999999 811.4823833,55.51850999999999 805.0658833,54.48206999999999 798.6507833000001,53.446929999999995 792.2372833000001,52.413259999999994 785.8251832999999,51.381209999999996 779.4146833,50.35090999999999 773.0056833,49.32254 766.5980833,48.29630999999999 760.1921833000001,47.272409999999994 753.7879833,46.25107 747.3858833,45.232519999999994 740.9860833,44.21697999999999 734.5888833,43.20473 728.1946833000001,42.196079999999995 721.8036833,41.19134999999999 715.4158833000001,40.19084999999999 709.0311833000001,39.194849999999995 702.6490833,38.20360999999999 696.2692833000001,37.21732999999999 689.8910833000001,36.23621999999999 683.5136833,35.260369999999995 677.1366833,34.28983999999999 670.7597833,33.32471999999999 664.3830833,32.36512999999999 658.0068833,31.41126 651.6319833000001,30.463319999999996 645.2590833,29.521559999999994 638.8893833000001,28.58636 632.5241833000001,27.658449999999995 626.1642833,26.738629999999993 619.8104833,25.827659999999995 613.4633833,24.926249999999996 607.1234833,24.035089999999997 600.7908833,23.154849999999996 594.4655833,22.28613 588.1474833,21.42958999999999 581.8365833,20.585949999999997 575.5325833,19.75591999999999 569.2355833,18.94023 562.9454833000001,18.13960999999999 556.6623833,17.354770000000002 550.3863833,16.586429999999993 544.1174833,15.83529999999999 537.8558833000001,15.102099999999993 531.6015833,14.387540000000001 525.3544833000001,13.692300000000003 519.1143833000001,13.017029999999991 512.8808833,12.362380000000002 506.6533833,11.728970000000004 500.4313833,11.117429999999985 494.21408329999997,10.528319999999994 488.0006833,9.962040000000002 481.7905833,9.418880000000001 475.5834833,8.899199999999993 469.3791833,8.403329999999997 463.17748330000006,7.931659999999994 456.97858329999997,7.484549999999999 450.7827833,7.0623899999999935 444.5902833,6.665589999999995 438.40178330000003,6.2945899999999995 432.21738329999994,5.9498299999999915 426.0372833,5.631709999999984 419.8616833,5.3406599999999855 413.6903833,5.077069999999992 407.5232833,4.841339999999988 401.36008330000004,4.633880000000005 395.2004833,4.45501999999999 389.0441833,4.30507999999999 382.89128329999994,4.184359999999984 376.7416833,4.09317999999999 370.59588329999997,4.0318499999999915 364.45418329999995,4.000689999999992 358.3171833,4.0 352.1854833,4.030079999999998 346.05978329999994,4.091200000000001 339.94018330000006,4.183639999999997 333.8263833,4.307689999999994 327.7174833,4.463669999999993 321.6125833,4.6518899999999945 315.50998330000004,4.8727599999999995 309.40768330000003,5.126630000000006 303.30378329999996,5.413379999999989 297.1967833,5.732699999999994 291.0861833,6.084269999999989 284.97188329999994,6.467749999999995 278.8547833,6.882719999999992 272.7361833,7.32871999999999 266.6184833,7.805279999999996 260.50408330000005,8.312380000000005 254.39498329999998,8.850159999999988 248.2928833,9.418789999999987 242.1987833,10.018449999999987 236.1133833,10.649349999999998 230.0369833,11.311729999999997 223.9691833,12.005939999999995 217.9100833,12.732379999999992 211.85988329999998,13.491439999999997 205.8195833,14.283439999999999 199.7902833,15.108639999999994 193.77358329999998,15.967199999999991 187.7714833,16.859250000000003 181.7861833,17.785329999999988 175.8195833,18.74611999999999 169.8730833,19.742339999999984 163.9479833,20.774699999999996 158.04488329999998,21.843990000000005 152.1642833,22.951049999999995 146.3070833,24.097009999999997 140.4752833,25.282899999999998 134.67188330000002,26.509449999999994 128.90088330000003,27.777029999999996 123.1672833,29.08569 117.4763833,30.43551999999999 111.8327833,31.827409999999993 106.2381833,33.26275999999999 100.6922533,34.74343999999999 95.1924533,36.27188999999999 89.7355333,37.851299999999995 84.32550330000001,39.484159999999996 78.9788133,41.16897999999999 73.7226633,42.899649999999994 68.5916233,44.66563999999999 63.6197533,46.456129999999995 58.8196533,48.26862 54.178683299999996,50.10914 49.6678533,51.99068 45.2492133,53.93220999999999 40.9215933,55.93970999999999 36.7765633,57.97265999999999 32.9523233,59.95439999999999 29.5479333,61.813419999999994 26.5758833,63.52727999999999 23.970583299999998,65.12225 21.6516533,66.63394 19.5531033,68.09374 17.624733300000003,69.52798999999999 15.829213300000001,70.95432 14.1574433,72.362 12.6274753,73.71614 11.257215299999999,74.98030999999999 10.0484203,76.13373999999999 8.9874713,77.173808 8.0583363,78.11179999999999 7.2551983,78.97178299999999 6.566591300000001,79.776286 5.9794693,80.542367 5.4825233,81.28271099999999 5.0667583,82.006953 4.7253173,82.72268199999999 4.4531532,83.43614699999999 4.2467491,84.15275799999999 4.103654,84.874889 4.0217524000000004,85.596122 4.0,86.3092909 4.0385922,87.00816959999999 4.1390057,87.68700399999999 4.3041592,88.34010699999999 4.5387322,88.961435 4.8496293,89.544226 5.2424463,90.08643599999999 5.7194923,90.593238 6.284902300000001,91.069819 6.9452473,91.521228 7.709855299999999,91.95293 8.5910933,92.37159299999999 9.6039543,92.786408 10.7627453,93.211371 12.0737153,93.66608 13.5556763,94.15898899999999 15.232403300000001,94.687806 17.1092433,95.241153 19.1609933,95.79743599999999 21.345223299999997,96.33294699999999 23.6475133,96.83537999999999 26.1067633,97.30788999999999 28.7829133,97.75783 31.7582533,98.19257999999999 35.1497833,98.62058999999999 39.111533300000005,99.05223 43.758243300000004,99.4944 49.0129533,99.92518 54.585583299999996,100.30851 60.1785133,100.62509999999999 65.70824329999999,100.87931999999999 71.2564833,101.08296999999999 76.9059733,101.24409 82.7126333,101.36802 88.69946329999999,101.45903999999999 94.84196329999999,101.52099999999999 101.0825633,101.55506 107.3679833,101.56228999999999 113.66038329999999,101.54468 119.94158329999999,101.5047 126.2127833,101.44480999999999 132.4871833,101.36675 138.7765833,101.27188 145.0889833,101.16147 151.42858329999999,101.03688 157.7951833,100.89953 164.1846833,100.75088 170.59058330000002,100.5919 177.00738330000001,100.42330999999999 183.4309833,100.24584999999999 189.8586833,100.06024 196.28898329999998,99.86717999999999 202.72198329999998,99.66734 209.15898330000002,99.46124999999999 215.6010833,99.2494 222.0491833,99.03226 228.5038833,98.81031999999999 234.96528329999998,98.58408999999999 241.4332833,98.35409 247.9073833,98.12084999999999 254.38668330000002,97.8848 260.87038329999996,97.64622999999999 267.3578833,97.40544 273.84828329999993,97.16273 280.3412833,96.91838999999999 286.8361833,96.67272 293.3326833,96.42599399999999 299.83058330000006,96.17848699999999 306.3294833,95.93038 312.8290833,95.681845 319.32928329999993,95.43305099999999 325.82978330000003,95.18417 332.3302833,94.935372 338.83068330000003,94.686826 345.3307833,94.43870199999999 351.8302833,94.191147 358.3290833,93.944271 364.82698330000005,93.698178 371.32388330000003,93.45297199999999 377.81968329999995,93.20875699999999 384.31428329999994,92.965634 390.80748329999994,92.723705 397.29928330000007,92.48307 403.7896833,92.24383399999999 410.27858330000004,92.006113 416.7660833,91.770022 423.25218330000007,91.53567699999999 429.73688329999993,91.303193 436.2203833,91.072682 442.70278329999996,90.844257 449.1841833,90.618028 455.66478329999995,90.3941 462.1447833,90.172528 468.6242833,89.95334399999999 475.1034833,89.736583 481.5822833,89.52228 488.0608833,89.310474 494.5391833,89.101202 501.01718329999994,88.894504 507.4946833,88.690421 513.9716833,88.489004 520.4479833,88.29032 526.9235833,88.09443399999999 533.3983833,87.90141299999999 539.8724833000001,87.711322 546.3458833,87.524222 552.8185833,87.3401768 559.2907833,87.15924729999999 565.7626833,86.9814907 572.2342833,86.8069374 578.7057833,86.63560629999999 585.1771833,86.46751784199999 591.6485833,86.3026939 598.1198833,86.1411576 604.5909833000001,85.98293319999999 611.0617833000001,85.8280461 617.5319833000001,85.67652299999999 624.0014833,85.52841889999999 630.4699833000001,85.38382899999999 636.9372833,85.24284999999999 643.4034833,85.105578 649.8684833000001,84.97210399999999 656.3324833,84.84252 662.7954833000001,84.71691799999999 669.2577833,84.59538599999999 675.7197833,84.47799599999999 682.1814833000001,84.36477099999999 688.6431833,84.25572799999999 695.1049833000001,84.15088399999999 701.5667833,84.05026099999999 708.0284833000001,83.953879 714.4897833,83.86176099999999 720.9503833000001,83.77393 727.4098833,83.69044199999999 733.8678833,83.61142199999999 740.3241833000001,83.537009 746.7786833,83.467334 753.2314833,83.402531 759.6827833000001,83.34272899999999 766.1328833,83.28805799999999 772.5822833000001,83.238644 779.0315833,83.194549 785.4810833,83.155794 791.9308833000001,83.12239799999999 798.3806833,83.09438499999999 804.8301833,83.071776 811.2785833,83.054594 817.7250833,83.042867 824.1683833,83.03676999999999 830.6080833000001,83.036599 837.0436833,83.04265299999999 843.4752833,83.05522699999999 849.9035833,83.074619 856.3294833000001,83.101131 862.7542833000001,83.13501699999999 869.1790833000001,83.176375 875.6040833000001,83.22526599999999 882.0285833,83.281746 888.4512833,83.34585999999999 894.8698833000001,83.41763599999999 901.2813833,83.49729099999999 907.6837833,83.58543499999999 914.0764833000001,83.68273199999999 920.4603833,83.78986099999999 926.8378833,83.907533 933.2125833,84.036216 939.5848833,84.175643 945.9497833,84.325305 952.2966833,84.484522 958.6093833,84.652683 964.8593833,84.8305 970.9991833,85.018451 976.9693833000001,85.21598599999999 982.6947833,85.422708 988.0556833,85.63693509999999 992.9368833,85.85390899999999 997.2680833000001,86.07132159999999 1001.0117832999999,86.2869071 1003.8125833,86.46882" stroke="black" stroke-width="2.0" /></svg>