<?xml version="1.0" encoding="utf-8" ?>
<svg baseProfile="full" height="156.16469" version="1.1" width="1011.993707043" xmlns="http://www.w3.org/2000/svg" xmlns:ev="http://www.w3.org/2001/xml-events" xmlns:xlink="http://www.w3.org/1999/xlink"><defs /><polygon fill="none" points="1003.993707043,119.505 1000.682207043,118.45408599999999 996.454907043,117.032912 991.771707043,115.3896 986.690507043,113.57767799999999 981.349207043,111.676895 975.874007043,109.76252 970.306807043,107.87474999999999 964.643407043,106.01525 958.880307043,104.18127 953.017007043,102.37080999999999 947.0577070429999,100.57983999999999 941.010507043,98.80282 934.887607043,97.0345 928.7059070429999,95.27038999999999 922.4830070429999,93.51084 916.233807043,91.75865999999999 909.968707043,90.01549 903.694307043,88.28168 897.412407043,86.55651999999999 891.1229070429999,84.83936 884.8259070429999,83.12986 878.522007043,81.42777 872.2123070429999,79.73301 865.898507043,78.04569 859.582407043,76.36635 853.265307043,74.69566999999999 846.948307043,73.03416999999999 840.631707043,71.38228 834.3156070429999,69.74028 827.999607043,68.10835 821.6832070429999,66.48656 815.366007043,64.87505 809.0478070429999,63.273959999999995 802.7285070429999,61.683499999999995 796.408507043,60.10393 790.087907043,58.53556 783.767207043,56.97882999999999 777.446707043,55.434269999999984 771.126807043,53.902339999999995 764.807507043,52.383520000000004 758.488907043,50.878240000000005 752.171107043,49.38691 745.854007043,47.90993 739.537407043,46.44771999999999 733.221207043,45.000699999999995 726.905407043,43.569289999999995 720.589907043,42.153909999999996 714.274707043,40.75499000000001 707.959707043,39.37295999999999 701.644907043,38.00828 695.330307043,36.66158 689.0162070429999,35.33350999999999 682.702907043,34.02476 676.391007043,32.73603999999999 670.0813070429999,31.468079999999986 663.774407043,30.22162999999999 657.471507043,28.997529999999983 651.1733070429999,27.79692999999999 644.8803070429999,26.62093999999999 638.592307043,25.47059999999999 632.3091070429999,24.346859999999992 626.029907043,23.25059999999999 619.7535070429999,22.182639999999992 613.478407043,21.143690000000007 607.203007043,20.133929999999992 600.926107043,19.153299999999987 594.646807043,18.201800000000006 588.364407043,17.279600000000002 582.0787070429999,16.386800000000008 575.789607043,15.523599999999988 569.4974070430001,14.69019999999999 563.202807043,13.886899999999983 556.906307043,13.113899999999987 550.608207043,12.371499999999983 544.3087070429999,11.659899999999993 538.0079070429999,10.979399999999998 531.705607043,10.329999999999998 525.401407043,9.711999999999989 519.095007043,9.125399999999999 512.785807043,8.570300000000003 506.47360704299996,8.046599999999998 500.158307043,7.554299999999998 493.84020704299996,7.093199999999996 487.519507043,6.663499999999999 481.196807043,6.26509999999999 474.873007043,5.897999999999996 468.548907043,5.5625 462.225307043,5.258700000000005 455.90270704299996,4.987099999999984 449.58150704299993,4.747900000000001 443.26190704299995,4.541299999999993 436.94390704299997,4.367699999999999 430.62710704299997,4.227199999999996 424.311307043,4.120099999999994 417.99600704299996,4.046499999999995 411.681207043,4.006399999999985 405.36690704299997,4.0 399.053407043,4.027299999999997 392.741207043,4.088499999999996 386.43080704299996,4.183599999999984 380.12310704299995,4.312799999999996 373.81890704299997,4.4761999999999915 367.518807043,4.674300000000002 361.22320704299995,4.907199999999989 354.93240704299996,5.1754999999999995 348.64620704299995,5.479200000000006 342.364307043,5.818899999999999 336.086307043,6.194800000000001 329.811607043,6.606999999999999 323.540107043,7.055699999999987 317.27160704299996,7.5408999999999935 311.006407043,8.062600000000003 304.74510704299996,8.620799999999988 298.48830704299996,9.215499999999992 292.237107043,9.846800000000002 285.99240704299996,10.514799999999994 279.75510704299995,11.219799999999992 273.525807043,11.962099999999992 267.304807043,12.742000000000004 261.092207043,13.559799999999996 254.88800704300002,14.415800000000004 248.69190704300001,15.310500000000005 242.503807043,16.244199999999992 236.324307043,17.217099999999988 230.15420704299999,18.2294 223.994707043,19.2813 217.847607043,20.372699999999995 211.71480704299998,21.503649999999993 205.59860704300002,22.67469 199.50080704299998,23.886599999999987 193.422507043,25.140209999999996 187.364507043,26.436409999999995 181.327107043,27.776209999999992 175.310007043,29.160690000000002 169.313207043,30.590919999999983 163.33750704300002,32.067769999999996 157.38440704299998,33.59188999999999 151.456407043,35.16365999999999 145.55660704299999,36.78318999999999 139.68870704300002,38.450649999999996 133.85700704299998,40.16709 128.064707043,41.93384999999999 122.314107043,43.75237 116.60680704299999,45.62428 110.943607043,47.55136999999999 105.326007043,49.53546999999999 99.757177043,51.57776999999999 94.241967043,53.67864999999999 88.786867043,55.83755999999999 83.399777043,58.053279999999994 78.09096704299999,60.32561 72.871647043,62.654379999999996 67.752937043,65.03843 62.745507043,67.47568 57.860527043000005,69.96341999999999 53.113857043,72.49708 48.525087043000006,75.068 44.114647043,77.66415 39.902377042999994,80.27148 35.917917043,82.87201999999999 32.199607043,85.43749 28.778297043,87.93592 25.667617043,90.34027 22.867867043,92.63365999999999 20.370527043,94.80593999999999 18.155657042999998,96.85276999999999 16.195547043,98.77617 14.459777042999999,100.58267 12.924457043,102.28032999999999 11.574144043,103.87369 10.392952043,105.36589 9.363312043,106.76145 8.467047043,108.06658 7.686665043,109.28854 7.006500043000001,110.43507699999999 6.415721043,111.514658 5.905736043,112.53607 5.468247043,113.50726499999999 5.095797043,114.43428499999999 4.782111543,115.320427 4.521972043,116.167751 4.314073443,116.979207 4.159302843,117.76072599999999 4.055552013,118.5154443 4.0,119.2374818 4.006431633,119.9368623 4.094888043,120.65154799999999 4.298187443,121.36943699999999 4.6270072429999995,122.074343 5.045125043,122.773476 5.537901043,123.47378499999999 6.105543043000001,124.176305 6.748905043000001,124.883285 7.468135043,125.60109299999999 8.266367042999999,126.33434 9.151921043,127.08442699999999 10.134648042999999,127.852888 11.227428043,128.641615 12.445664043,129.452876 13.806762042999999,130.28945 15.329777043,131.1549 17.036657042999998,132.05257 18.955717043,132.98253 21.116737043,133.94237999999999 23.546777043,134.92732 26.266087043000002,135.93064999999999 29.287827043,136.94666 32.628917043,137.97123 36.309627043,138.99365 40.335607043,139.99957999999998 44.692877043,140.97406999999998 49.353317043000004,141.90569 54.286597043,142.78392 59.455357043,143.59718 64.815737043,144.338 70.327777043,145.00459999999998 75.965647043,145.59933999999998 81.713917043,146.12344 87.557777043,146.57886 93.482787043,146.96892 99.475657043,147.29818 105.525207043,147.57061 111.622307043,147.78829 117.759107043,147.95362 123.92930704300001,148.06939 130.12850704299998,148.13873999999998 136.354307043,148.16469 142.605307043,148.14946 148.880107043,148.09514 155.177107043,148.00391 161.494307043,147.87806 167.829707043,147.71996 174.181207043,147.53167 180.546707043,147.31459999999998 186.92480704300002,147.0701 193.314307043,146.79953999999998 199.714307043,146.50433999999998 206.124407043,146.18589 212.544607043,145.84557 218.97510704299998,145.48461 225.41600704299998,145.1042 231.867207043,144.70556 238.328307043,144.28993 244.79870704299998,143.85859 251.277907043,143.41284 257.764907043,142.95392999999999 264.258707043,142.48268 270.758507043,141.99984999999998 277.263807043,141.50618 283.77410704299996,141.00241 290.289207043,140.48928 296.808907043,139.96752 303.33340704299997,139.43782 309.862807043,138.90084 316.397207043,138.3572 322.93680704299993,137.80751999999998 329.481407043,137.25244 336.03100704299993,136.69261 342.58530704299994,136.12869 349.144007043,135.56134 355.70680704299997,134.99122 362.273107043,134.41876 368.84260704299993,133.84437 375.41450704299996,133.26842 381.98830704299996,132.69131 388.563607043,132.11344 395.139507043,131.53519999999997 401.715607043,130.95701 408.29110704299995,130.37925 414.865307043,129.80230999999998 421.43780704299996,129.22653 428.00820704299997,128.652248 434.5761070429999,128.079791 441.14150704299993,127.509474 447.704207043,126.941597 454.264407043,126.37645099999999 460.82240704299994,125.814314 467.37830704299995,125.25542 473.93260704299996,124.69995499999999 480.485407043,124.148107 487.036907043,123.60006999999999 493.587207043,123.056044 500.13620704299996,122.51623599999999 506.683907043,121.980854 513.230307043,121.450115 519.775007043,120.924246 526.318007043,120.4035198 532.859107043,119.8882289 539.398107043,119.37865769999999 545.935107043,118.87508539999999 552.470107043,118.37778499999999 559.003207043,117.887025 565.5346070429999,117.403069 572.0645070429999,116.926175 578.593207043,116.45657 585.1209070429999,115.994402 591.647907043,115.539813 598.174207043,115.09294899999999 604.6999070429999,114.65396299999999 611.225007043,114.223011 617.749207043,113.80025599999999 624.2724070429999,113.38586099999999 630.794407043,112.980001 637.314807043,112.582926 643.8333070429999,112.194969 650.3498070429999,111.816458 656.864007043,111.447717 663.376007043,111.089064 669.8856070429999,110.740813 676.393007043,110.403272 682.8983070429999,110.076747 689.4016070429999,109.76153199999999 695.903107043,109.45788999999999 702.4029070429999,109.16606999999999 708.9011070429999,108.88633999999999 715.397707043,108.61896 721.8925070429999,108.36419 728.3856070429999,108.12228999999999 734.8765070430001,107.89352 741.365307043,107.67817 747.8514070429999,107.47659999999999 754.334907043,107.2892 760.815307043,107.11637999999999 767.292607043,106.95852 773.7666070429999,106.81602 780.237307043,106.68925999999999 786.704707043,106.57862 793.168607043,106.48451 799.629107043,106.40742 806.086007043,106.34788 812.5389070429999,106.30639 818.987307043,106.28345999999999 825.430707043,106.27960999999999 831.8684070429999,106.29532999999999 838.299407043,106.33111 844.7230070429999,106.38771 851.138307043,106.466 857.544807043,106.56688 863.9423070429999,106.69122 870.330607043,106.83986999999999 876.709907043,107.01371999999999 883.0805070429999,107.21368 889.442007043,107.44095999999999 895.793007043,107.69675 902.130907043,107.98214999999999 908.451907043,108.29816 914.751207043,108.64560999999999 921.023007043,109.02575999999999 927.261207043,109.44169 933.460207043,109.89673599999999 939.615307043,110.393986 945.7226070429999,110.936329 951.778407043,111.52649 957.776307043,112.16700399999999 963.7045070429999,112.859449 969.546607043,113.60409299999999 975.2825070429999,114.399701 980.880007043,115.24174 986.280907043,116.119346 991.415807043,117.01640499999999 996.213007043,117.91371799999999 1000.585607043,118.7862437 1003.993707043,119.505" stroke="black" stroke-width="2.0" /></svg>