<?xml version="1.0" encoding="utf-8" ?>
<svg baseProfile="full" height="155.45096" version="1.1" width="1011.8063279" xmlns="http://www.w3.org/2000/svg" xmlns:ev="http://www.w3.org/2001/xml-events" xmlns:xlink="http://www.w3.org/1999/xlink"><defs /><polygon fill="none" points="1003.8063279,92.08653 1000.9451279,91.027288 997.3281279,89.614025 993.3225279,87.973232 988.9149279000001,86.115149 984.1727279,84.09577999999999 979.2106279000001,81.99557 974.1046279,79.88592 968.8613279,77.79262 963.4721279,75.71334999999999 957.9339279,73.64639 952.2507279,71.59185 946.4337279,69.54991 940.5009279000001,67.5212 934.4769279000001,65.50719 928.3924279,63.511939999999996 922.2755279,61.54514999999999 916.1472279000001,59.615199999999994 910.0202279,57.72743 903.8991279,55.88429 897.7819279,54.08612 891.6653279,52.3327 885.5450279,50.62365 879.4160279000001,48.958549999999995 873.2725279,47.336819999999996 867.1092279000001,45.75675 860.9222279,44.21626 854.7098279,42.713829999999994 848.4720279000001,41.248439999999995 842.2111279,39.819539999999996 835.9313279,38.427189999999996 829.6363279,37.07196 823.3287279,35.754169999999995 817.0094279,34.47374 810.6778279,33.230309999999996 804.3319279,32.02325 797.9683279000001,30.851389999999995 791.5843279000001,29.713129999999992 785.1778279,28.607059999999997 778.7484279,27.531990000000008 772.2965279,26.48693 765.8239279000001,25.471069999999997 759.3338279000001,24.483889999999988 752.8290279,23.525389999999987 746.3121279000001,22.595519999999993 739.7847279000001,21.69408 733.2477279000001,20.820769999999996 726.7012279,19.975129999999993 720.1446279,19.15665 713.5767279,18.364599999999996 706.9966279000001,17.59818 700.4037279,16.856669999999994 693.7976279000001,16.139359999999996 687.1785279000001,15.445599999999999 680.5471279000001,14.774770000000004 673.9042279,14.126299999999986 667.2509279000001,13.499839999999992 660.5885279,12.895110000000003 653.9179279000001,12.311849999999993 647.2402279,11.749750000000006 640.5561279000001,11.208469999999991 633.8664279000001,10.68768 627.1720279000001,10.187039999999996 620.4733279,9.706379999999996 613.7709279000001,9.245630000000006 607.0651279,8.804689999999994 600.3565279000001,8.383489999999995 593.6451279,7.981909999999985 586.9312279,7.5998500000000035 580.2150279,7.237200000000001 573.4963279000001,6.893869999999993 566.7753279000001,6.56980999999999 560.0523279,6.264989999999997 553.3274279,5.979369999999989 546.6011279,5.7128999999999905 539.8738279,5.465549999999993 533.1460279,5.237279999999998 526.4183279,5.028080000000003 519.6912279000001,4.838029999999989 512.9650279,4.66722 506.23982789999997,4.515709999999999 499.5153279,4.383559999999989 492.7913279,4.270859999999999 486.06702789999997,4.17765 479.3418279,4.103999999999999 472.6149279,4.049889999999991 465.88592789999996,4.015240000000006 459.1550279,4.0 452.42282789999996,4.00412 445.69022789999997,4.027539999999988 438.95882789999996,4.070160000000001 432.23052789999997,4.131910000000005 425.5074279,4.212939999999989 418.79102789999996,4.313599999999994 412.0820279,4.434269999999998 405.38002789999996,4.575339999999997 398.6842279,4.7372199999999935 391.99252789999997,4.920339999999996 385.3024279,5.1251900000000035 378.61042789999993,5.352079999999987 371.9141279,5.600869999999986 365.2126279,5.8713499999999925 358.5062279,6.163249999999991 351.7972279,6.476219999999998 345.0893279,6.809799999999996 338.38772789999996,7.163399999999996 331.6990279,7.536810000000003 325.0288279,7.930989999999994 318.3805279,8.34711999999999 311.7549279,8.786450000000002 305.15102790000003,9.250389999999996 298.56522789999997,9.740479999999991 291.99212789999996,10.258470000000003 285.42482789999997,10.805620000000005 278.85692789999996,11.381979999999999 272.2845279,11.98733 265.7061279,12.621309999999994 259.1225279,13.283320000000003 252.53692790000002,13.972490000000008 245.9549279,14.687729999999988 239.3836279,15.428830000000005 232.8291279,16.196479999999994 226.2962279,16.991429999999994 219.7877279,17.814570000000003 213.3052279,18.6669 206.84852790000002,19.549549999999996 200.4166279,20.46378 194.0082279,21.410750000000007 187.62242790000002,22.39157 181.25872790000003,23.40732 174.91692790000002,24.459010000000006 168.5971279,25.547600000000003 162.29992790000003,26.674119999999988 156.02742790000002,27.839619999999996 149.7831279,29.04482999999999 143.5720279,30.29003999999999 137.40062790000002,31.57506 131.27652790000002,32.899339999999995 125.2072279,34.26312 119.1976279,35.66765999999999 113.2489279,37.11479 107.3596279,38.60697 101.52522789999999,40.14733 95.7424079,41.73940999999999 90.0189579,43.384159999999994 84.3763079,45.07789 78.8466179,46.812189999999994 73.4681979,48.57468999999999 68.2750379,50.354879999999994 63.2782279,52.150029999999994 58.4677679,53.96361999999999 53.821027900000004,55.803839999999994 49.310527900000004,57.68203 44.9434779,59.596689999999995 40.7950079,61.512879999999996 36.9640779,63.37501999999999 33.518127899999996,65.13275999999999 30.471337899999998,66.76191 27.7826079,68.27499999999999 25.3837979,69.69958 23.215907899999998,71.06042 21.2335179,72.37734999999999 19.401117900000003,73.66711 17.6904079,74.9427 16.085107899999997,76.20487 14.5867179,77.44021 13.203283899999999,78.62938 11.9400659,79.75507999999999 10.7952969,80.80704 9.7607389,81.78269 8.8263459,82.685452 7.9916509,83.526589 7.2541169,84.320304 6.6069549,85.078948 6.0428888999999995,85.81261699999999 5.5555149,86.529533 5.1396919,87.236524 4.7915705,87.939471 4.5085402,88.643659 4.2891755,89.354074 4.1329221,90.075158 4.0374232,90.80627199999999 4.0,91.54394549999999 4.0192576,92.284756 4.0949232,93.0251907 4.2277659,93.761473 4.4195996,94.489374 4.6733666,95.203988 4.9933099,95.89943699999999 5.3842849,96.570859 5.8493719,97.220581 6.3921759,97.852678 7.0176239,98.471543 7.7321149,99.08219799999999 8.5436449,99.690738 9.4617359,100.304979 10.4967349,100.93539799999999 11.6573389,101.596445 12.945242899999998,102.30705 14.3672179,103.07906 15.937877899999998,103.91454999999999 17.6655479,104.80959999999999 19.5476579,105.7524 21.572407899999998,106.72491 23.7291079,107.70908 26.0275779,108.69593 28.5029479,109.69136 31.2010579,110.70797999999999 34.1802479,111.76083 37.5195379,112.87001 41.3147379,114.06015 45.6178579,115.34409 50.385717899999996,116.69817 55.4904579,118.0726 60.7714679,119.4178 66.13018790000001,120.70889 71.5739079,121.95061 77.1456879,123.15574 82.8773379,124.33344 88.7822779,125.4888 94.8465179,126.62225 101.0292979,127.72808 107.2875279,128.79905 113.5879279,129.83085 119.9100279,130.82223 126.2485279,131.77473 132.60962790000002,132.69122 139.00012790000002,133.57415 145.42382790000002,134.42543 151.88122790000003,135.24649 158.36952790000004,136.03841 164.88262790000002,136.80169999999998 171.4137279,137.53603999999999 177.95762790000003,138.24121 184.51062790000003,138.91728 191.07102790000002,139.56455 197.6389279,140.18350999999998 204.2157279,140.77483999999998 210.80322790000002,141.33929 217.40242790000002,141.87754999999999 224.0135279,142.39023 230.6357279,142.87788 237.26752790000003,143.341 243.9067279,143.77996 250.55052790000002,144.19467 257.19712790000005,144.58497 263.8448279,144.95074 270.4927279,145.29192999999998 277.1403279,145.6085 283.78762789999996,145.90046999999998 290.4351279,146.16781 297.0830279,146.41040999999998 303.7311279,146.62815 310.37892789999995,146.82091 317.02532790000004,146.98854 323.6690279,147.13092 330.3080279,147.24792 336.9404279,147.3391 343.5646279,147.40377999999998 350.1793279,147.44128 356.7841279,147.45096 363.3790279,147.43218000000002 369.96432789999994,147.38433 376.54112789999994,147.30675 383.1107279,147.19898 389.67422789999995,147.06072 396.2323279,146.89168999999998 402.7855279,146.69157 409.33382789999996,146.46009 415.8769279,146.19696 422.41422789999996,145.90191 428.94472790000003,145.5747 435.4676279,145.21501999999998 441.9825279,144.82256999999998 448.4893279,144.39702 454.9883279,143.93801 461.4803279,143.44513 467.9663279,142.91795 474.44792789999997,142.356 480.9267279,141.75921 487.4041279,141.12775 493.8815279,140.46176 500.35952789999993,139.76139999999998 506.83902789999996,139.02684 513.3201279,138.25826 519.8029279000001,137.45588 526.2872279000001,136.62005 532.7732279,135.7513 539.2611279,134.85017 545.7519279,133.91709 552.2468279000001,132.95247 558.7473279000001,131.95658 565.2558279000001,130.92964 571.7746279,129.87178 578.3067279,128.78365 584.8548279,127.66642 591.4210279000001,126.52136999999999 598.0070279,125.34988999999999 604.6138279,124.15347 611.2418279000001,122.93377 617.8907279,121.69261 624.5597279000001,120.43216 631.2476279,119.15548 637.9523279,117.86603 644.6715279000001,116.56745 651.4018279000001,115.26356999999999 658.1396279,113.95838 664.8803279000001,112.65603 671.6189279,111.36075 678.3497279000001,110.07619 685.0680279000001,108.80499 691.7701279,107.54948999999999 698.4537279000001,106.31170999999999 705.1177279000001,105.0934 711.7621279000001,103.89607 718.3881279000001,102.72097 724.9977279000001,101.569148 731.5937279,100.441242 738.1781279,99.337819 744.7526279,98.259541 751.3181279,97.20716 757.8755279000001,96.181505 764.4247279000001,95.183476 770.9654279,94.214029 777.4969279000001,93.274203 784.0183279,92.3651756 790.5288279,91.4880994 797.0277279000001,90.644075 803.5147279,89.834154 809.9895279,89.05934099999999 816.4519279,88.320604 822.9021279000001,87.618876 829.3399279,86.955156 835.7653279000001,86.330518 842.1776279000001,85.74603499999999 848.5762279,85.202777 854.9599279,84.70179499999999 861.3276279,84.244113 867.6778279,83.830742 874.0085279000001,83.463186 880.3171279000001,83.14345499999999 886.6000279000001,82.873492 892.8527279000001,82.655103 899.0703278999999,82.489912 905.2471279000001,82.37931599999999 911.3769279,82.32489699999999 917.4530279,82.329892 923.4691279,82.39762499999999 929.4189279000001,82.53091599999999 935.2967279000001,82.732069 941.0975279,83.002876 946.8160279,83.344939 952.4461279000001,83.76022499999999 957.9804279000001,84.250101 963.4112279,84.815083 968.7308279,85.454815 973.9305279,86.167495 978.9907279,86.947048 983.8763279000001,87.78281199999999 988.5467279,88.660544 992.9634279,89.56344299999999 997.0779279000001,90.46919799999999 1000.8412279,91.3528092 1003.8063279,92.08653" stroke="black" stroke-width="2.0" /></svg>