<?xml version="1.0" encoding="utf-8" ?>
<svg baseProfile="full" height="163.59751" version="1.1" width="1011.98771464" xmlns="http://www.w3.org/2000/svg" xmlns:ev="http://www.w3.org/2001/xml-events" xmlns:xlink="http://www.w3.org/1999/xlink"><defs /><polygon fill="none" points="1003.98771464,122.0167 1000.59121464,120.987572 996.43341464,119.659079 991.9863146399999,118.176381 987.23981464,116.556401 982.22011464,114.829227 976.96641464,113.030364 971.50491464,111.196 965.8458146400001,109.34351 959.9988146400001,107.47748 953.97401464,105.60155 947.7806146400001,103.71758 941.42921464,101.82484 934.93421464,99.92213 928.31421464,98.00819 921.5912146400001,96.08331 914.78701464,94.15163 907.92131464,92.21719 901.01121464,90.28295 894.06971464,88.35082 887.1062146400001,86.42302000000001 880.12721464,84.50177 873.13711464,82.58862 866.13761464,80.68442 859.12811464,78.78927 852.10721464,76.90245 845.07471464,75.02333 838.03181464,73.15164 830.9810146400001,71.28745 823.9260146400001,69.43122 816.87141464,67.58427 809.82071464,65.74826999999999 802.77621464,63.924549999999996 795.7389146400001,62.11409 788.7086146400001,60.31756 781.68381464,58.53528 774.66291464,56.767160000000004 767.64461464,55.013130000000004 760.62851464,53.273300000000006 753.6147146400001,51.54795 746.60421464,49.83753999999999 739.59841464,48.142700000000005 732.59921464,46.464650000000006 725.60871464,44.804829999999995 718.62911464,43.16472 711.66261464,41.54574000000001 704.71151464,39.94933 697.77821464,38.376900000000006 690.86511464,36.830200000000005 683.97361464,35.311319999999995 677.10431464,33.82213999999999 670.25681464,32.36426999999999 663.43011464,30.93911 656.62211464,29.547880000000006 649.83021464,28.19157 643.05161464,26.87048 636.2836146400001,25.58471 629.5240146400001,24.334439999999987 622.7706146400001,23.11993000000001 616.0214146400001,21.94149999999999 609.2747146400001,20.79950000000001 602.52891464,19.694300000000013 595.7829146400001,18.626000000000005 589.0359146400001,17.594300000000004 582.28711464,16.599499999999992 575.5364146400001,15.64139999999999 568.78391464,14.720199999999991 562.02981464,13.836100000000002 555.27471464,12.989199999999997 548.5193146400001,12.180000000000007 541.76391464,11.40849999999999 535.00861464,10.674999999999997 528.2532146400001,9.979700000000008 521.49731464,9.3228 514.74011464,8.704399999999993 507.98071464000003,8.124600000000001 501.21831464,7.583299999999994 494.45241464,7.080200000000005 487.68251463999997,6.615400000000008 480.90871463999997,6.188599999999994 474.13111463999996,5.799800000000005 467.35021464,5.448899999999995 460.56661464,5.135999999999996 453.78101463999997,4.861000000000004 446.99381464,4.6240999999999985 440.20551464,4.4251000000000005 433.41631464,4.264099999999999 426.62631464,4.141100000000009 419.83551464,4.056100000000001 413.04381463999994,4.0090999999999894 406.25111463999997,4.0 399.45771463999995,4.028700000000001 392.66391464000003,4.095300000000009 385.87021464,4.1995000000000005 379.07751463999995,4.341400000000007 372.28651463999995,4.5208999999999975 365.49841464,4.737899999999996 358.71431464,4.992800000000003 351.93501464,5.285500000000013 345.16151464,5.616399999999999 338.39481464,5.9853999999999985 331.63551463999994,6.392699999999991 324.88451463999996,6.838400000000007 318.14271464,7.322800000000001 311.41071464,7.84620000000001 304.68941464,8.4088 297.97941464,9.010999999999996 291.28161464,9.65310000000001 284.59671463999996,10.335099999999997 277.92551463999996,11.057500000000005 271.26881463999996,11.820700000000002 264.62781463999994,12.625 258.00351464000005,13.47059999999999 251.39741464000002,14.3579 244.81061464,15.28710000000001 238.24481464000002,16.258399999999995 231.70171464,17.272599999999997 225.18291464,18.33 218.69031464,19.430999999999997 212.22561464,20.5762 205.79061464,21.765699999999995 199.38741464,23.00000999999999 193.01791464000001,24.27977 186.68401464000002,25.60553 180.38771464,26.977829999999997 174.13071464,28.397109999999998 167.91481464,29.863780000000006 161.74191464,31.37831 155.61511464,32.941 149.53831464,34.55176 143.51621464000002,36.21012 137.55411464000002,37.91516 131.65791464,39.665890000000005 125.83461463999998,41.4619 120.09091464,43.30248999999999 114.43371463999999,45.18657 108.86931464,47.11267000000001 103.40385463999999,49.07902 98.04479463999999,51.08359 92.80148464,53.12326 87.68439464,55.19358 82.70421463999999,57.28904 77.87114464,59.40348 73.19615463999999,61.53079 68.69118463999999,63.66392 64.36724464,65.79472000000001 60.23294464,67.91474 56.29368464,70.01587 52.553084639999994,72.0912 49.014424639999994,74.13413 45.678854640000004,76.13793000000001 42.54441464,78.09663 39.60592464,80.00559999999999 36.85574464,81.86179 34.28640464,83.66398000000001 31.89021464,85.41150999999999 29.65836464,87.10412 27.58110464,88.7421 25.64807464,90.3264 23.84875464,91.85846000000001 22.17318464,93.34038 20.61301464,94.77498 19.160404640000003,96.16495 17.807744640000003,97.51273 16.54776464,98.82065 15.37354464,100.0909 14.278604640000001,101.32555 13.25689264,102.52658 12.30306264,103.69588999999999 11.41404464,104.83536000000001 10.58750864,105.94675000000001 9.82094364,107.03165 9.11174064,108.0915 8.45725064,109.12761 7.85483264,110.14121 7.30189064,111.13342 6.79590164,112.105309 6.33442964,113.057844 5.91551864,113.991878 5.53835764,114.908138 5.20212464,115.807579 4.90586124,116.691346 4.64856884,117.56068 4.42998324,118.41671 4.25341184,119.259289 4.12280374,120.086794 4.04014831,120.896851 4.00036791,121.6905089 4.0,122.476523 4.05603955,123.262634 4.18666174,124.049493 4.4027695399999995,124.828628 4.77582844,125.559706 5.2852156400000005,126.227971 5.88165164,126.849211 6.5432786400000005,127.437871 7.26048764,128.001715 8.02797764,128.54624 8.84327664,129.076597 9.70505764,129.597172 10.614472639999999,130.109983 11.57286764,130.61714899999998 12.58202364,131.120667 13.64525264,131.621373 14.76631464,132.1201 15.94921464,132.61793 17.19807464,133.11631 18.51746464,133.61668 19.91341464,134.11935 21.39282464,134.62436 22.963274639999998,135.13183 24.63308464,135.64201 26.41130464,136.15535 28.307784639999998,136.6726 30.333194640000002,137.195 32.49917464,137.72449 34.81878464,138.26376 37.30798464,138.81371000000001 39.98460463999999,139.37416000000002 42.86725464,139.94473 45.97462464,140.52484 49.324384640000005,141.11381 52.932504640000005,141.71112 56.81408464,142.31678 60.98350464,142.9291 65.44956464,143.54431 70.21228464,144.15796 75.26265464,144.76545 80.58557463999999,145.36298 86.16635464,145.94803 91.99021463999999,146.51776 98.03618463999999,147.06953 104.27801464,147.6016 110.68741463999999,148.11351 117.23781464,148.60587 123.90621463999999,149.07796 130.67061464,149.52865 137.51191464000001,149.95741 144.41441464,150.36437 151.36761464000003,150.75025 158.36581464,151.11589 165.40441464,151.46206 172.47861464000002,151.78958 179.58391464000002,152.09939 186.71561464,152.39251000000002 193.86941464,152.66993 201.04101464,152.93211 208.22711464,153.17932 215.42521464,153.41189 222.63351464000002,153.6302 229.85111464,153.83467000000002 237.07811464000002,154.02578 244.31471464000003,154.204 251.56121464,154.36986 258.81731464,154.52384999999998 266.08231464,154.66648 273.35511463999995,154.79825 280.63431464,154.91966 287.91801464,155.03100999999998 295.20481464,155.1323 302.49331463999994,155.22352999999998 309.78271463999994,155.30472 317.07271463999996,155.37586 324.36311463999994,155.437 331.65451463999995,155.48814 338.94731464,155.52939 346.24201464,155.56083 353.53861464,155.5826 360.83701463999995,155.59478000000001 368.13671464,155.59751 375.43681463999997,155.59088 382.73631464,155.57501 390.03401464,155.54977 397.32891464,155.51495 404.62021464,155.47029 411.90761463999996,155.41558 419.19091463999996,155.35057 426.47031463999997,155.27504 433.74611464,155.18876 441.01901463999997,155.09155 448.28941464,154.98332 455.55721464,154.86399 462.82231463999995,154.73347 470.08411464,154.59168 477.34191463999997,154.43855 484.59441463999997,154.27404 491.84021464,154.09781 499.07761464,153.90913 506.30461463999995,153.70721 513.5189146399999,153.49133 520.7179146400001,153.26078 527.89891464,153.01491 535.05871464,152.75309 542.19431464,152.47456 549.30311464,152.17791 556.38411464,151.86156 563.4377146400001,151.52393 570.4653146400001,151.16341 577.47021464,150.7783 584.4563146400001,150.36683 591.4291146400001,149.92726 598.39451464,149.45911999999998 605.35771464,148.96259 612.32281464,148.43786 619.2933146400001,147.88512 626.27181464,147.30456 633.25991464,146.69644 640.25841464,146.06107 647.26731464,145.39907 654.28711464,144.71127 661.31811464,143.99851 668.36141464,143.26159 675.41791464,142.50129 682.4894146400001,141.71833 689.5775146400001,140.91343 696.68431464,140.08744 703.81111464,139.24155 710.9580146400001,138.3771 718.1243146400001,137.49561 725.30751464,136.59879 732.50431464,135.68855 739.71011464,134.76709 746.91921464,133.83786 754.12671464,132.90508 761.32741464,131.972972 768.5169146400001,131.045678 775.69111464,130.127253 782.84611464,129.221637 789.97861464,128.332404 797.08551464,127.462199 804.1645146400001,126.613338 811.21381464,125.787986 818.23221464,124.988158 825.21921464,124.215736 832.17451464,123.472473 839.0983146400001,122.7600564 845.99061464,122.08014911 852.8508146400001,121.4343784 859.67841464,120.824327 866.47241464,120.251526 873.23181464,119.717452 879.95481464,119.223871 886.63831464,118.772973 893.27701464,118.366912 899.86441464,118.007694 906.3925146400001,117.697095 912.8521146400001,117.436694 919.2340146399999,117.229362 925.5300146400001,117.07865100000001 931.73401464,116.987469 937.8412146400001,116.958096 943.8483146400001,116.99225 949.75221464,117.091201 955.54571464,117.255707 961.2167146400001,117.485605 966.75031464,117.779591 972.1307146400001,118.13526 977.34231464,118.550954 982.37201464,119.025222 987.2099146400001,119.555304 991.85011464,120.137154 996.28621464,120.763319 1000.5078146400001,121.4239142 1003.98771464,122.0167" stroke="black" stroke-width="2.0" /></svg>