<?xml version="1.0" encoding="utf-8" ?>
<svg baseProfile="full" height="154.50314" version="1.1" width="1011.997114901" xmlns="http://www.w3.org/2000/svg" xmlns:ev="http://www.w3.org/2001/xml-events" xmlns:xlink="http://www.w3.org/1999/xlink"><defs /><polygon fill="none" points="1003.997114901,114.8733 1000.746814901,113.844227 996.700914901,112.495283 992.3020149010001,110.965525 987.544914901,109.273237 982.477314901,107.457288 977.1704149010001,105.565184 971.6758149010001,103.64212 966.0153149010001,101.70872 960.204914901,99.77194 954.258014901,97.83691 948.1840149010001,95.9057 941.9919149010001,93.97677 935.693714901,92.04813 929.304714901,90.11789 922.842614901,88.1857 916.324614901,86.25459000000001 909.7663149010001,84.32746 903.180914901,82.40634 896.579014901,80.49247 889.9680149010001,78.58772 883.3529149010001,76.69423 876.736614901,74.81351000000001 870.1196149010001,72.94642999999999 863.5005149010001,71.09324 856.8768149010001,69.25328 850.246814901,67.42576 843.609914901,65.61023 836.9671149010001,63.80659 830.3203149010001,62.01503 823.672714901,60.236380000000004 817.027414901,58.47227 810.387414901,56.72439 803.755114901,54.99429 797.1327149010001,53.2834 790.522214901,51.59302 783.925014901,49.924549999999996 777.341714901,48.279669999999996 770.7727149010001,46.659940000000006 764.217214901,45.066680000000005 757.674014901,43.50107 751.141514901,41.964119999999994 744.617214901,40.45661000000001 738.0987149010001,38.97861999999999 731.584014901,37.53013 725.0712149010001,36.11119000000001 718.5586149009999,34.72192000000001 712.044714901,33.36251 705.528414901,32.03323 699.008514901,30.734210000000004 692.484514901,29.465360000000004 685.955814901,28.22658 679.4223149009999,27.01787999999999 672.8841149010001,25.83926000000001 666.3415149010001,24.690820000000002 659.7950149010001,23.572670000000002 653.245514901,22.485039999999998 646.693514901,21.42819 640.1394149010001,20.40236 633.5834149010001,19.407750000000007 627.025214901,18.444519999999997 620.464514901,17.5128 613.9008149010001,16.61269 607.333314901,15.744150000000005 600.7614149010001,14.907049999999998 594.1849149010001,14.101299999999995 587.603714901,13.326800000000006 581.0178149010001,12.5835 574.427814901,11.871499999999997 567.834214901,11.190600000000003 561.2379149010001,10.5411 554.639514901,9.923000000000002 548.039214901,9.336299999999994 541.4371149010001,8.78110000000001 534.832814901,8.257500000000007 528.225814901,7.7654 521.614914901,7.3049000000000035 514.999114901,6.875699999999995 508.37721490099995,6.477500000000006 501.748614901,6.10990000000001 495.11311490099996,5.772600000000011 488.47091490099996,5.465100000000007 481.822614901,5.187200000000004 475.169414901,4.938500000000005 468.5127149009999,4.718900000000005 461.853914901,4.5283000000000015 455.194414901,4.366900000000001 448.53501490099995,4.234799999999993 441.87621490099997,4.132000000000005 435.21841490099996,4.058599999999998 428.561414901,4.0146000000000015 421.904914901,4.0 415.24851490099996,4.015000000000001 408.592214901,4.0595 401.93611490099994,4.133499999999998 395.280614901,4.236999999999995 388.626714901,4.370100000000008 381.97541490099997,4.532600000000002 375.328114901,4.724699999999999 368.68611490099994,4.9465 362.050514901,5.198599999999999 355.42221490099996,5.481200000000001 348.801614901,5.794700000000006 342.18881490099994,6.139499999999998 335.583614901,6.5160999999999945 328.985514901,6.924700000000001 322.39411490099997,7.365700000000004 315.80931490099994,7.839500000000001 309.231414901,8.346199999999996 302.66091490099996,8.885999999999996 296.09881490099997,9.45920000000001 289.54631490099996,10.0659 283.00491490099995,10.706299999999999 276.476114901,11.381 269.96101490099994,12.090599999999995 263.460814901,12.835499999999996 256.976114901,13.616399999999999 250.507514901,14.433700000000002 244.055414901,15.288209999999992 237.620014901,16.180409999999995 231.202114901,17.11099 224.80231490100002,18.080550000000002 218.421814901,19.089609999999993 212.061714901,20.138670000000005 205.723414901,21.228139999999996 199.408614901,22.3587 193.119214901,23.531130000000005 186.857114901,24.746120000000005 180.62431490100002,26.004310000000004 174.422614901,27.306240000000003 168.25411490099998,28.65245 162.121314901,30.04379 156.02661490100002,31.481189999999998 149.97271490100002,32.96546000000001 143.962314901,34.497240000000005 137.998114901,36.07705 132.083014901,37.70546 126.221014901,39.383219999999994 120.416214901,41.11076999999999 114.673714901,42.888149999999996 108.998614901,44.71498 103.39650490100001,46.59062 97.87477490100001,48.51469999999999 92.442614901,50.48598 87.110394901,52.50206 81.889084901,54.55941 76.790004901,56.65383 71.826834901,58.78118 67.014914901,60.935680000000005 62.36921490100001,63.10986 57.902884901,65.29516000000001 53.627224901,67.48284 49.555934901,69.66305 45.703414901,71.82334 42.080404901,73.95045999999999 38.69156490100001,76.03244000000001 35.536414901,78.06015 32.613804900999995,80.02711 29.919274900999998,81.92748 27.443724901,83.75709 25.174064901,85.51408 23.094704901,87.19872 21.190494901,88.81352 19.448144901,90.3619 17.854604901000002,91.84703999999999 16.396974901,93.2721 15.062824900999999,94.64037 13.840368901,95.95522 12.718696901,97.22004 11.689304901,98.43827 10.746975900999999,99.61335 9.886610901000001,100.74829 9.103005901,101.84577 8.390993901,102.90825 7.745558901000001,103.93795 7.161906901,104.93693999999999 6.635509901000001,105.907135 6.162149901,106.850299 5.738901901,107.768014 5.364330901,108.661904 5.036821901,109.533804 4.754643101,110.385633 4.516601001,111.218967 4.323135601,112.033884 4.174739001,112.829313 4.071399621,113.603964 4.012562401,114.3602032 4.0,115.1053493 4.042780341,115.8475179 4.159834401,116.591316 4.382230301,117.325947 4.7697279009999995,118.006991 5.277093901000001,118.635067 5.869341901,119.222809 6.527985901,119.783542 7.2469169010000005,120.32313500000001 8.022791901,120.847386 8.853972901,121.363006 9.741275901,121.874341 10.687955901,122.383614 11.697451901,122.893547 12.774903900999998,123.405747 13.927117900999999,123.920962 15.161714901,124.440199 16.487174901000003,124.96485 17.912734901,125.49686 19.449164901,126.03798 21.109854901000002,126.58856 22.909874901000002,127.14874 24.865594900999998,127.71862 26.994484901,128.29838999999998 29.315084901,128.8887 31.847034901,129.49117999999999 34.611344900999995,130.10915 37.633364901,130.74499 40.940354901000006,131.39717000000002 44.555084901,132.06257 48.492234901,132.73686 52.756764901000004,133.41525000000001 57.346684901,134.09395 62.257224901,134.76828 67.471824901,135.43141 72.959454901,136.07683 78.680784901,136.69979 84.599164901,137.29846 90.687474901,137.87166 96.920094901,138.41774 103.27126490100001,138.93615 109.717614901,139.42756 116.240714901,139.89371 122.827414901,140.33584 129.466514901,140.75451 136.148614901,141.15057 142.865414901,141.52516 149.611214901,141.87974 156.381714901,142.21564 163.174214901,142.53369 169.985914901,142.83466 176.81461490100003,143.11941000000002 183.65801490100003,143.38883 190.514514901,143.64383 197.382514901,143.88519 204.26071490100003,144.11337 211.147914901,144.32881 218.04301490100002,144.53198 224.945014901,144.72336 231.852814901,144.90345 238.765814901,145.07268 245.683114901,145.2313 252.604314901,145.37951 259.528914901,145.51751000000002 266.456714901,145.64551 273.38761490099995,145.76371 280.321614901,145.87234 287.25891490099997,145.97162 294.199514901,146.06176 301.14351490099995,146.14299 308.090814901,146.21554 315.04091490099995,146.27962 321.993614901,146.33546 328.94811490099994,146.38328 335.903814901,146.42323 342.860114901,146.45525 349.81621490099997,146.47928 356.77181490099997,146.49527 363.726514901,146.50314 370.67991490099996,146.50285 377.63171490099995,146.49434 384.58211490099995,146.47754 391.53071490099995,146.45234 398.477714901,146.41862 405.423014901,146.37626 412.366614901,146.32513 419.308414901,146.26512 426.248414901,146.19609 433.186814901,146.11792 440.123414901,146.03049 447.058214901,145.93365 453.99101490099997,145.82727 460.92151490099997,145.71121 467.849414901,145.58535 474.77411490099996,145.44956 481.695114901,145.30372 488.611614901,145.14765 495.522714901,144.98079 502.42741490099996,144.80245 509.3243149009999,144.61196 516.2116149010001,144.40866 523.087414901,144.19194 529.949714901,143.9612 536.796014901,143.71588 543.623914901,143.45517 550.4316149010001,143.17776 557.218114901,142.88225 563.983714901,142.56728 570.729514901,142.23141 577.457614901,141.87319 584.171114901,141.49111 590.8736149010001,141.08363 597.569714901,140.65026 604.263114901,140.19117 610.957214901,139.70653 617.6545149010001,139.19652 624.357214901,138.66133 631.066614901,138.10115 637.783414901,137.51625 644.508014901,136.90701 651.240414901,136.27422 657.981014901,135.61867 664.730314901,134.94115 671.489114901,134.24246 678.258114901,133.52332 685.038714901,132.78449 691.832214901,132.02668 698.639914901,131.25079 705.4625149010001,130.45789000000002 712.299714901,129.64917 719.150714901,128.82594 726.013614901,127.98962 732.885714901,127.14178 739.763414901,126.28422 746.6427149010001,125.41989 753.5199149010001,124.552437 760.3913149010001,123.685508 767.253914901,122.822688 774.1047149010001,121.967491 780.9412149010001,121.123347 787.761114901,120.29351 794.562514901,119.480437 801.343714901,118.686116 808.103814901,117.912421 814.842214901,117.161121 821.558814901,116.433883 828.254014901,115.7322911 834.9286149010001,115.0578482 841.5830149010001,114.4120223 848.2174149010001,113.796299 854.831114901,113.212176 861.423014901,112.661147 867.991614901,112.144688 874.534814901,111.664276 881.050114901,111.221955 887.534314901,110.820167 893.983914901,110.461237 900.395114901,110.147333 906.763814901,109.880436 913.085414901,109.662405 919.354914901,109.496005 925.566514901,109.384496 931.713514901,109.330731 937.788914901,109.337077 943.7854149010001,109.405375 949.695014901,109.53749 955.5072149010001,109.735707 961.208914901,110.001385 966.785514901,110.33467 972.222714901,110.734461 977.5033149010001,111.1986 982.602314901,111.722925 987.4918149010001,112.300732 992.146614901,112.923536 996.543414901,113.5825 1000.660714901,114.2673136 1003.997114901,114.8733" stroke="black" stroke-width="2.0" /></svg>