<?xml version="1.0" encoding="utf-8" ?>
<svg baseProfile="full" height="175.33094" version="1.1" width="1011.994690948" xmlns="http://www.w3.org/2000/svg" xmlns:ev="http://www.w3.org/2001/xml-events" xmlns:xlink="http://www.w3.org/1999/xlink"><defs /><polygon fill="none" points="1003.994690948,127.4543 1000.417190948,126.196335 996.076490948,124.586945 991.4698909479999,122.81384200000001 986.5941909479999,120.911574 981.490890948,118.92392000000001 976.201590948,116.89292 970.740590948,114.85082 965.105190948,112.80508 959.293590948,110.75637 953.306590948,108.70574 947.148190948,106.65287000000001 940.826690948,104.59523 934.354690948,102.53005 927.749690948,100.45474 921.031990948,98.37031 914.221690948,96.28086 907.3377909479999,94.18985 900.397290948,92.09970000000001 893.414190948,90.01272 886.3992909479999,87.93226 879.3604909479999,85.86110000000001 872.3032909479999,83.80112 865.229790948,81.7533 858.1402909479999,79.71756 851.035090948,77.69344000000001 843.9150909479999,75.68066 836.7824909479999,73.67920000000001 829.639790948,71.68924000000001 822.490590948,69.71146000000002 815.3377909479999,67.74705 808.183990948,65.79706 801.0310909479999,63.86237 793.880490948,61.94368 786.732790948,60.04154 779.588690948,58.156490000000005 772.4481909479999,56.28909 765.3115909479999,54.43988 758.179190948,52.60941000000001 751.051190948,50.79817 743.927690948,49.00672 736.809190948,47.23583000000001 729.696690948,45.48648 722.591990948,43.7598 715.497490948,42.05706000000001 708.416190948,40.37962 701.3516909479999,38.729020000000006 694.3074909479999,37.10763 687.285590948,35.51791 680.286790948,33.96197000000001 673.3104909479999,32.44153 666.3546909479999,30.958030000000008 659.416490948,29.512630000000016 652.4920909479999,28.105850000000004 645.577890948,26.73750000000001 638.671190948,25.407500000000013 631.7694909479999,24.116000000000014 624.870890948,22.863100000000003 617.9739909479999,21.649200000000008 611.077990948,20.47460000000001 604.1822909480001,19.339699999999993 597.286690948,18.24459999999999 590.390690948,17.189400000000006 583.494090948,16.1742 576.5966909480001,15.199300000000008 569.698190948,14.264800000000008 562.7984909479999,13.370800000000003 555.8971909479999,12.517600000000002 548.994290948,11.704999999999998 542.089390948,10.933300000000003 535.181990948,10.202399999999997 528.271790948,9.512299999999996 521.358090948,8.863299999999995 514.440390948,8.255300000000005 507.518290948,7.688100000000006 500.59149094800006,7.161500000000004 493.660190948,6.675600000000003 486.724590948,6.230000000000004 479.785290948,5.8248999999999995 472.84309094800005,5.460100000000011 465.89909094800004,5.135499999999993 458.953990948,4.8515000000000015 452.008290948,4.607900000000015 445.06239094800003,4.404899999999998 438.116090948,4.24260000000001 431.169290948,4.120999999999995 424.22149094800005,4.040099999999995 417.27219094800006,4.0 410.321090948,4.000399999999999 403.36849094800004,4.041300000000007 396.414990948,4.122400000000013 389.46159094800004,4.243600000000001 382.509490948,4.4047999999999945 375.560590948,4.605900000000005 368.616390948,4.846999999999994 361.678190948,5.1285000000000025 354.74689094800004,5.450599999999994 347.822990948,5.8134000000000015 340.90679094800004,6.217300000000009 333.998090948,6.662400000000005 327.096690948,7.149000000000001 320.202890948,7.6773000000000025 313.31729094800005,8.24730000000001 306.441090948,8.859100000000012 299.575790948,9.51270000000001 292.72359094800004,10.208000000000013 285.886590948,10.9452 279.067190948,11.724800000000002 272.26699094800006,12.547200000000004 265.48739094800004,13.413000000000011 258.729190948,14.3228 251.992690948,15.277200000000008 245.278190948,16.276700000000005 238.586090948,17.322000000000003 231.917390948,18.413300000000007 225.273590948,19.551000000000016 218.656590948,20.73530000000001 212.06879094800001,21.966099999999997 205.513190948,23.243800000000007 198.99259094800001,24.568700000000007 192.50969094799999,25.9414 186.06699094799998,27.362300000000005 179.666690948,28.831670000000003 173.310690948,30.349990000000005 167.001290948,31.91765000000001 160.741790948,33.534850000000006 154.53619094799998,35.20140000000001 148.389390948,36.91668 142.306990948,38.679670000000016 136.295190948,40.489260000000016 130.36089094800002,42.34483 124.51109094799999,44.24539 118.752690948,46.18957 113.09199094799999,48.1756 107.535390948,50.20138 102.090350948,52.26424 96.766630948,54.36018 91.574930948,56.48392 86.526110948,58.629180000000005 81.630490948,60.78914999999999 76.899040948,62.957440000000005 72.343100948,65.12696 67.97261094799998,67.2898 63.794880948,69.43799 59.814060948,71.56404 56.032310947999996,73.66181 52.450940947999996,75.72586000000001 49.069020948,77.75097000000001 45.882940948,79.73268 42.886600948,81.66755 40.071970948,83.55337 37.431140948,85.38912 34.956700948000005,87.17408 32.640720947999995,88.90765 30.474650948,90.58965 28.449430947999996,92.22041000000002 26.555780948,93.80078 24.784570948,95.33213 23.128070947999998,96.81677 21.579110948,98.2573 20.130550947999996,99.65619000000001 18.775480948000002,101.01584 17.507280948000002,102.33849000000001 16.319720948,103.62629000000001 15.206940948,104.88125 14.163540948000001,106.10528000000001 13.185409948,107.30021 12.269879948000002,108.46774 11.414387948,109.60929 10.616363948,110.72611 9.873242948,111.81929 9.182481948,112.88981000000001 8.541577948,113.93860000000001 7.948080948,114.96649000000001 7.399608948,115.97431 6.893904947999999,116.96279 6.429926948,117.932585 6.007553948,118.88444 5.626374948,119.819338 5.285769948,120.73841 4.985018248,121.642859 4.723368348,122.53392000000001 4.500288648,123.412706 4.316780748,124.279048 4.174408248,125.1312 4.074253568,125.966498 4.016187188,126.7844475 4.0,127.59217670000001 4.031355738,128.3996919 4.122146848,129.21105599999999 4.294031848,130.02080899999999 4.580254748,130.811243 5.019424948,131.54695 5.5647129479999995,132.233342 6.176217948,132.891589 6.8466999479999995,133.525342 7.572829948000001,134.135277 8.349879948,134.726989 9.171776948,135.309513 10.036999948,135.886397 10.947429948,136.457513 11.905204948,137.022828 12.912678948,137.58311 13.972247948,138.13986 15.086230948,138.69495 16.256870948,139.25046 17.487690948,139.80724 18.783170948,140.3654 20.148210948,140.92514 21.588100947999997,141.48674 23.108570947999997,142.05066 24.715790948,142.61757 26.416400948,143.18843 28.217530947999997,143.7646 30.126860947999997,144.34806 32.15298094799999,144.94109 34.306840948,145.54449 36.600730948,146.15847 39.047900948,146.78324 41.66234094799999,147.41898 44.458670948,148.06596000000002 47.451890948,148.72461 50.657470948,149.3958 54.091700947999996,150.08051 57.771180948,150.77766 61.710060948,151.48514 65.918370948,152.20023 70.40106094800001,152.9198 75.158350948,153.64089 80.188340948,154.36111 85.487360948,155.07703 91.045030948,155.78453000000002 96.84378094799999,156.47975 102.861140948,157.15962000000002 109.073590948,157.82237 115.459590948,158.46622 121.997290948,159.08865 128.663890948,159.6878 135.437490948,160.26261 142.299690948,160.81293 149.236090948,161.33888000000002 156.235090948,161.84 163.286190948,162.31601 170.380690948,162.76697000000001 177.511590948,163.19322 184.674190948,163.59533 191.865190948,163.97386 199.08179094800002,164.32940000000002 206.32109094799998,164.6626 213.58049094799998,164.97415 220.857490948,165.2648 228.149890948,165.53526 235.455590948,165.78589 242.772290948,166.01696 250.098290948,166.22876 257.43149094800003,166.42163 264.76999094800004,166.59591 272.11219094800003,166.75191 279.456390948,166.88962 286.80139094800006,167.00889 294.14629094800006,167.1096 301.490390948,167.19161 308.8334909480001,167.25483 316.17559094800004,167.29914 323.516990948,167.3245 330.85779094800006,167.33094 338.197790948,167.3185 345.53649094800005,167.28722 352.8728909480001,167.23715 360.205790948,167.16835 367.53379094800005,167.08084 374.854890948,166.97409 382.166790948,166.84729000000002 389.46679094800004,166.69963 396.751890948,166.53038 404.018690948,166.33885 411.263590948,166.12441 418.48239094800005,165.88639 425.6717909480001,165.62333 432.830190948,165.33339 439.957590948,165.01475 447.056090948,164.66553 454.129290948,164.28378 461.182590948,163.86739 468.222690948,163.41428000000002 475.257190948,162.92404 482.292790948,162.39719 489.33499094800004,161.83424 496.388090948,161.23568 503.455190948,160.60203 510.5383909480001,159.9339 517.6384909479999,159.23196000000002 524.755290948,158.49718000000001 531.888690948,157.7307 539.038790948,156.93366 546.2058909479999,156.10722 553.390490948,155.25252 560.593090948,154.37071 567.8146909479999,153.4629 575.0564909479999,152.53025 582.3192909479999,151.57403 589.603290948,150.59562 596.9083909479999,149.59651 604.2336909479999,148.57829 611.5776909479999,147.5427 618.9381909479999,146.4916 626.312690948,145.42735 633.6981909479999,144.35323 641.091590948,143.27275 648.489690948,142.18946 655.889190948,141.10697 663.286690948,140.02887 670.678490948,138.95878 678.060890948,137.89997 685.4305909479999,136.854613 692.784590948,135.824532 700.1207909479999,134.811414 707.4377909479999,133.81681 714.734890948,132.842144 722.011990948,131.88872 729.269490948,130.95773100000002 736.5080909479999,130.05027 743.728390948,129.16740800000002 750.9309909479999,128.3102087 758.116390948,127.4797286 765.284990948,126.6770169 772.437090948,125.903114 779.572990948,125.15904400000001 786.692690948,124.445775 793.7960909479999,123.764266 800.8825909479999,123.115472 807.9517909479999,122.500342 815.0026909479999,121.91981200000001 822.034190948,121.374799 829.045190948,120.866279 836.034090948,120.39550200000001 842.999090948,119.96374 849.938090948,119.57221 856.8489909479999,119.22206200000001 863.7291909479999,118.914366 870.576290948,118.650141 877.386990948,118.430891 884.1571909479999,118.258488 890.8816909479999,118.134645 897.554090948,118.06084100000001 904.167390948,118.03827700000001 910.714290948,118.067929 917.1864909479999,118.15195 923.576190948,118.29323500000001 929.875590948,118.494112 936.077790948,118.75630100000001 942.176590948,119.080922 948.1659909480001,119.468851 954.0391909479999,119.921177 959.788490948,120.438276 965.406290948,121.019644 970.885190948,121.66392900000001 976.2176909479999,122.36874900000001 981.393790948,123.13032 986.402090948,123.94362000000001 991.231590948,124.80264 995.8716909479999,125.700582 1000.3119909479999,126.6297572 1003.994690948,127.4543" stroke="black" stroke-width="2.0" /></svg>