<?xml version="1.0" encoding="utf-8" ?>
<svg baseProfile="full" height="95.304311" version="1.1" width="1012.009022168" xmlns="http://www.w3.org/2000/svg" xmlns:ev="http://www.w3.org/2001/xml-events" xmlns:xlink="http://www.w3.org/1999/xlink"><defs /><polygon fill="none" points="1004.009022168,79.50224 1000.880922168,78.6182583 996.359922168,77.287019 991.197722168,75.719424 985.783922168,74.057525 980.2373221680001,72.358301 974.6361221679999,70.666208 969.027422168,69.00798 963.433322168,67.39735999999999 957.852122168,65.84045 952.266222168,64.33426 946.659622168,62.87182 941.022122168,61.448 935.349722168,60.05942 929.643622168,58.70326 923.907022168,57.37623 918.143522168,56.07497 912.3575221680001,54.796130000000005 906.553822168,53.53665 900.736822168,52.29563 894.909722168,51.07289 889.075122168,49.86804 883.234922168,48.68046 877.389922168,47.509389999999996 871.5402221679999,46.354240000000004 865.6859221679999,45.21468 859.827022168,44.09039 853.9635221679999,42.981080000000006 848.095522168,41.886449999999996 842.223222168,40.80621 836.346822168,39.74016 830.466522168,38.68818 824.582522168,37.650130000000004 818.695222168,36.6259 812.805222168,35.615399999999994 806.913022168,34.61853 801.019022168,33.63538 795.1239221679999,32.66628 789.227822168,31.71161 783.331122168,30.77169 777.4337221679999,29.84684 771.5356221679999,28.937350000000002 765.6366221679999,28.043490000000006 759.7364221680001,27.165399999999998 753.834722168,26.303150000000002 747.931422168,25.45677 742.026122168,24.626309999999997 736.1188221680001,23.81185 730.209422168,23.013450000000006 724.297722168,22.231180000000002 718.3837221680001,21.4651 712.4674221680001,20.715210000000006 706.548922168,19.981480000000005 700.628222168,19.263920000000006 694.705522168,18.562530000000002 688.780822168,17.87731 682.854522168,17.208260000000003 676.926622168,16.5554 670.9975221679999,15.918819999999997 665.067322168,15.298649999999995 659.136222168,14.69501000000001 653.2040221679999,14.10803 647.2709221680001,13.53782000000001 641.336722168,12.984480000000005 635.401422168,12.448120000000003 629.464522168,11.928809999999999 623.526122168,11.426500000000004 617.585822168,10.941130000000001 611.643822168,10.472620000000006 605.699822168,10.020890000000009 599.754222168,9.585889999999992 593.807022168,9.167569999999998 587.858522168,8.765869999999993 581.909022168,8.380759999999995 575.958822168,8.012290000000007 570.008122168,7.660529999999994 564.0571221680001,7.3255300000000005 558.1057221679999,7.007339999999999 552.153822168,6.706020000000009 546.201222168,6.421610000000001 540.2475221679999,6.154139999999998 534.2924221679999,5.903630000000007 528.3354221679999,5.669830000000005 522.376222168,5.452420000000004 516.414622168,5.251069999999999 510.45062216800005,5.065470000000005 504.48432216799995,4.895309999999995 498.51592216800003,4.7402799999999985 492.545922168,4.600070000000002 486.574722168,4.474400000000003 480.603022168,4.363229999999987 474.63122216799997,4.266679999999994 468.65972216800003,4.184849999999997 462.688822168,4.117840000000001 456.718522168,4.065759999999997 450.749022168,4.028689999999997 444.780022168,4.006740000000008 438.811322168,4.0 432.84272216799997,4.008480000000006 426.874022168,4.032129999999995 420.904922168,4.070920000000001 414.935522168,4.124790000000004 408.965922168,4.193700000000007 402.996122168,4.277609999999996 397.026422168,4.3764599999999945 391.057222168,4.490210000000005 385.088922168,4.618960000000001 379.12182216800005,4.762929999999997 373.15632216800003,4.922320000000013 367.192422168,5.097369999999998 361.23032216800004,5.288269999999997 355.270122168,5.495260000000002 349.31162216800004,5.71857 343.35472216799997,5.9583999999999975 337.399422168,6.214919999999992 331.445322168,6.48827 325.492722168,6.778580000000005 319.54132216799997,7.085980000000006 313.591422168,7.410590000000013 307.643122168,7.752530000000007 301.696722168,8.111909999999995 295.752422168,8.488900000000001 289.810622168,8.88382 283.87162216800004,9.297029999999992 277.935822168,9.72887999999999 272.00322216800004,10.179699999999997 266.074322168,10.64985999999999 260.14932216799997,11.139690000000002 254.22822216799997,11.649560000000008 248.311422168,12.17989 242.399022168,12.731160000000003 236.491222168,13.303830000000005 230.588022168,13.898389999999992 224.689522168,14.515299999999996 218.795822168,15.155040000000014 212.906922168,15.81812 207.022922168,16.505149999999993 201.144122168,17.21676 195.271222168,17.953540000000004 189.40502216800002,18.71606 183.546522168,19.50484 177.69692216800001,20.320330000000006 171.85782216799998,21.163240000000002 166.030222168,22.03468 160.21492216800002,22.935859999999998 154.41192216800002,23.86806 148.62082216800002,24.83267 142.840622168,25.831159999999997 137.070222168,26.86526 131.309922168,27.936819999999997 125.56232216800001,29.047290000000004 119.831922168,30.1976 114.125522168,31.388129999999997 108.451522168,32.61875 102.81726216800001,33.89036 97.22312216799999,35.205619999999996 91.662312168,36.56899 86.12110216800001,37.98697 80.57951216800001,39.46867 75.025982168,41.023990000000005 69.481572168,42.65481 64.003602168,44.35054 58.676772168,46.08771 53.573132168,47.84428 48.672272168000006,49.6298 43.867682168,51.4884 38.972322168000005,53.50824 33.759742168,55.82428 28.504682168,58.366960000000006 24.077492168000003,60.699020000000004 20.695032168,62.63234 17.946132168,64.34671 15.508992167999999,66.01686000000001 13.134567168,67.83165 10.589881168,70.04652300000001 8.441286168000001,72.158122 7.054446168,73.634643 6.084887168,74.727048 5.380781168,75.607346 4.860533068,76.367188 4.479956768,77.053222 4.215780168,77.692293 4.056750028,78.302151 4.0,78.8963947 4.050173638,79.48729083 4.210977268,80.0848488 4.480981568,80.694636 4.865456968,81.320548 5.377467168,81.964195 6.038413168,82.621134 6.875440168,83.270014 7.937292168000001,83.880303 9.314998167999999,84.423608 11.130262168000002,84.862134 13.488222168,85.17887400000001 16.385312168,85.477975 19.817372168,85.87763100000001 23.757152168,86.348425 28.060032168000003,86.793047 32.658372168,87.103684 37.605112168000005,87.266394 42.943482167999996,87.304311 48.651392168,87.258975 54.593642167999995,87.173998 60.598312168,87.05293 66.54729216800001,86.894927 72.407152168,86.699284 78.213212168,86.465362 84.015792168,86.196314 89.850032168,85.895848 95.735752168,85.567995 101.676512168,85.217713 107.659122168,84.850278 113.664122168,84.468423 119.675922168,84.074175 125.684222168,83.669353 131.683622168,83.255476 137.67442216799998,82.833711 143.661022168,82.40485 149.648222168,81.969538 155.63972216800002,81.52848 161.637922168,81.08247 167.64372216799998,80.632396 173.657122168,80.1792495 179.67642216800002,79.7240707 185.69962216800002,79.2675475 191.723222168,78.8102832 197.746422168,78.352685 203.770222168,77.895014 209.793022168,77.437739 215.813822168,76.981292 221.832522168,76.526014 227.84922216799998,76.072196 233.864322168,75.620097 239.878122168,75.169978 245.890722168,74.7221 251.90242216800002,74.276726 257.913422168,73.834121 263.923722168,73.394551 269.93372216800003,72.958269 275.94342216800004,72.525408 281.953022168,72.096044 287.96242216800005,71.670254 293.97172216800004,71.24812 299.980922168,70.829722 305.990122168,70.415145 311.999222168,70.004473 318.00802216799997,69.597795 324.016622168,69.19523 330.024822168,68.79691 336.032522168,68.403 342.039822168,68.01364 348.04672216800003,67.62898 354.053122168,67.24916 360.059122168,66.87431000000001 366.064822168,66.50459000000001 372.070222168,66.14012 378.075522168,65.781 384.080722168,65.42728 390.086022168,65.07902 396.091322168,64.73628 402.096722168,64.39911000000001 408.10222216799997,64.06757 414.107822168,63.74172 420.113522168,63.421620000000004 426.11922216799996,63.10734 432.124822168,62.798950000000005 438.13032216799996,62.49653 444.135722168,62.20018 450.14102216799995,61.90999 456.146022168,61.62604 462.15092216799997,61.34841 468.15562216800004,61.077200000000005 474.160322168,60.81248 480.16492216800003,60.55435 486.169522168,60.30287 492.174122168,60.05809 498.179022168,59.82004 504.183922168,59.588750000000005 510.18902216799995,59.36426 516.194322168,59.1466 522.199722168,58.935810000000004 528.205122168,58.73192 534.2106221680001,58.53498 540.215922168,58.34501 546.221122168,58.162099999999995 552.226022168,57.98635 558.230622168,57.81788 564.234822168,57.65677 570.238622168,57.503150000000005 576.242122168,57.357110000000006 582.2452221679999,57.21875 588.2480221679999,57.08819 594.250522168,56.96552 600.252922168,56.850840000000005 606.2552221679999,56.7442 612.2575221679999,56.64568 618.259822168,56.55532 624.262022168,56.47318 630.264122168,56.39934 636.266022168,56.33385 642.267722168,56.276759999999996 648.268922168,56.22815 654.269422168,56.18808 660.269122168,56.15672 666.267922168,56.134249999999994 672.265722168,56.120870000000004 678.2624221680001,56.11676 684.258022168,56.122119999999995 690.2526221679999,56.13713 696.246322168,56.16199 702.239322168,56.19688 708.231822168,56.24199 714.223922168,56.297399999999996 720.215922168,56.363150000000005 726.2077221679999,56.439319999999995 732.199322168,56.52594 738.1907221680001,56.62307 744.181622168,56.730760000000004 750.1719221679999,56.84906 756.161222168,56.977999999999994 762.149122168,57.11773 768.135322168,57.26856 774.119522168,57.43081 780.1016221680001,57.6048 786.081422168,57.79088 792.0590221680001,57.98936 798.034622168,58.200590000000005 804.008222168,58.4249 809.9803221679999,58.662639999999996 815.950922168,58.91415 821.919922168,59.17976 827.887322168,59.45982 833.852622168,59.754630000000006 839.815122168,60.06449 845.7741221680001,60.38969 851.7285221679999,60.73053 857.677422168,61.08755 863.620222168,61.46149 869.5568221679999,61.8531 875.487622168,62.26315 881.413722168,62.69248 887.3365221680001,63.14195 893.257922168,63.61255 899.1787221679999,64.10547 905.097922168,64.62179 911.011922168,65.16235 916.915322168,65.72776 922.800222168,66.31826000000001 928.657322168,66.93459 934.479622168,67.58023 940.266222168,68.25968 946.022422168,68.97803 951.758922168,69.741221 957.490822168,70.555873 963.224022168,71.426785 968.941622168,72.354971 974.603222168,73.336585 980.153122168,74.362899 985.563722168,75.42792 990.868922168,76.537225 996.105722168,77.694188 1000.8062221680001,78.7655321 1004.009022168,79.50224" stroke="black" stroke-width="2.0" /></svg>