<?xml version="1.0" encoding="utf-8" ?>
<svg baseProfile="full" height="137.57169000000002" version="1.1" width="1011.99429772" xmlns="http://www.w3.org/2000/svg" xmlns:ev="http://www.w3.org/2001/xml-events" xmlns:xlink="http://www.w3.org/1999/xlink"><defs /><polygon fill="none" points="1003.99429772,77.7189 1000.58759772,77.36293640000001 996.27649772,76.8404775 991.5369977199999,76.19551100000001 986.38379772,75.44471800000001 980.8681977199999,74.610888 975.06969772,73.722004 969.0654977199999,72.810699 962.91319772,71.894149 956.6605977199999,70.97958100000001 950.34069772,70.071425 943.9676977199999,69.17009 937.54869772,68.27244800000001 931.0914977199999,67.37495000000001 924.6048977199999,66.47402 918.09879772,65.56682 911.5820977199999,64.65359000000001 905.0614977199999,63.73518000000001 898.54119772,62.81208000000001 892.0229977199999,61.884460000000004 885.5062977199999,60.95222000000001 878.9894977199999,60.01529000000001 872.4714977199999,59.073690000000006 865.95119772,58.12749000000001 859.42829772,57.176820000000006 852.90269772,56.22187000000001 846.3745977199999,55.262890000000006 839.84429772,54.300160000000005 833.31229772,53.333980000000004 826.7788977199999,52.364630000000005 820.24429772,51.39240000000001 813.70879772,50.41756000000001 807.17259772,49.44055 800.63609772,48.46210000000001 794.09959772,47.48301000000001 787.56339772,46.50408 781.02819772,45.52613 774.4943977199999,44.54999 767.9629977199999,43.5765 761.43449772,42.60643 754.90959772,41.64041000000001 748.3888977199999,40.679100000000005 741.87269772,39.7231 735.3612977199999,38.773 728.85479772,37.829350000000005 722.3530977199999,36.892700000000005 715.85609772,35.963550000000005 709.3634977199999,35.04240000000001 702.87509772,34.12970000000001 696.39049772,33.22594000000001 689.90939772,32.33158 683.43119772,31.447050000000004 676.9555977199999,30.5728 670.4817977199999,29.709210000000006 664.00949772,28.85644 657.53829772,28.014660000000006 651.06789772,27.18406000000001 644.59799772,26.364830000000005 638.12869772,25.55717 631.6597977199999,24.761290000000002 625.1915977199999,23.977420000000002 618.72399772,23.205810000000007 612.25729772,22.446690000000004 605.79139772,21.700290000000003 599.32639772,20.966840000000005 592.8622977199999,20.246550000000006 586.39879772,19.53963000000001 579.93579772,18.846290000000003 573.47319772,18.166720000000005 567.01059772,17.501030000000007 560.54779772,16.849310000000003 554.08479772,16.21168 547.62159772,15.588220000000007 541.15799772,14.979059999999997 534.6940977200001,14.384310000000006 528.23019772,13.804100000000012 521.76629772,13.238560000000007 515.30259772,12.687880000000007 508.83929772,12.152230000000017 502.37649772000003,11.631800000000013 495.91429772000004,11.126770000000008 489.45279772000004,10.637299999999996 482.99179772,10.163579999999996 476.53149772,9.705760000000012 470.07169772,9.264009999999999 463.61249772,8.83850000000001 457.15379772,8.429400000000001 450.69559772,8.03688000000001 444.23819772,7.661110000000008 437.78159772,7.302270000000007 431.32599772,6.960550000000012 424.87169772000004,6.636110000000002 418.41889772,6.329170000000005 411.96789772,6.040019999999998 405.51879772,5.768890000000013 399.07159772000006,5.516070000000013 392.62649772000003,5.281790000000001 386.18339772,5.066310000000001 379.74219772000004,4.869889999999998 373.30259772,4.692760000000007 366.86459772,4.535180000000011 360.42829772,4.397379999999998 353.99369772000006,4.279620000000008 347.56119772000005,4.182130000000001 341.13129772,4.105170000000001 334.70459772000004,4.048970000000011 328.28189772,4.013770000000008 321.86419772,4.0 315.45199772,4.008250000000004 309.04609772,4.03913 302.64679772,4.0932300000000055 296.25429772000007,4.171130000000005 289.86849772000005,4.273420000000016 283.48919772,4.400680000000008 277.11609772,4.553490000000011 270.74919772000004,4.732380000000006 264.38849772000003,4.937910000000002 258.03449772,5.170600000000007 251.68789772,5.430940000000007 245.34979772,5.719430000000003 239.02119772,6.036510000000007 232.70379772,6.382990000000007 226.39889772,6.759930000000011 220.10779771999998,7.168350000000004 213.83159772,7.609269999999995 207.57119772,8.083690000000004 201.32739772,8.59257000000001 195.10099771999998,9.137010000000004 188.89279771999998,9.71838000000001 182.70429772,10.338010000000011 176.53679771999998,10.997200000000007 170.39219771999998,11.697130000000016 164.27259772,12.43889 158.18019771999997,13.223690000000005 152.11759772,14.053290000000004 146.08729771999998,14.929519999999997 140.09149772,15.85407 134.13229772,16.82858000000001 128.21159772000001,17.85459000000001 122.33179772,18.933960000000006 116.49639772,20.068700000000007 110.71019772000001,21.26039 104.97889772,22.510110000000005 99.30899772000001,23.818340000000006 93.70832772,25.18585000000001 88.18615772,26.61428 82.75237772,28.10458 77.41689772000001,29.65676 72.18937772000001,31.269940000000005 67.08123771999999,32.943090000000005 62.10976772,34.67353000000001 57.29622772,36.45505000000001 52.66250772,38.27841 48.229047720000004,40.13275000000001 44.01984772,42.00750000000001 40.06025772,43.88846 36.368817719999996,45.759190000000004 32.95319772,47.604130000000005 29.81293772,49.411080000000005 26.946567719999997,51.16944000000001 24.346987719999998,52.869 21.99952772,54.502500000000005 19.88373772,56.06647000000001 17.97777772,57.5611 16.26505772,58.989250000000006 14.730057720000001,60.353260000000006 13.35646072,61.65552000000001 12.12773572,62.898880000000005 11.02790972,64.08672000000001 10.04211572,65.2227 9.15814272,66.31059 8.36746572,67.35405 7.662106720000001,68.35657 7.03444972,69.321359 6.4774147200000005,70.25139 5.98452472,71.149372 5.55037872,72.017733 5.1718777199999995,72.85845900000001 4.84634572,73.673184 4.57206852,74.463487 4.34992682,75.231899 4.17991002,75.981018 4.06061864,76.70938600000001 4.0,77.41498 4.01086195,78.1130541 4.10737922,78.81848000000001 4.32733942,79.52331500000001 4.63826952,80.222575 5.02322472,80.922234 5.4664907199999995,81.627666 5.97986372,82.33208300000001 6.5638057199999995,83.039291 7.21085372,83.75815 7.92394672,84.48969600000001 8.711747719999998,85.23214 9.58402372,85.98599100000001 10.548343719999998,86.757363 11.61118772,87.553987 12.78307472,88.37998 14.07837772,89.23696000000001 15.512667720000001,90.12622 17.10219772,91.04868 18.86318772,92.00500000000001 20.81138772,92.9961 22.96300772,94.02458 25.34079772,95.09419000000001 27.97523772,96.20597000000001 30.89677772,97.35910000000001 34.13135772,98.55062000000001 37.69627772,99.77593 41.599297719999996,101.03007000000001 45.83958772,102.30283 50.39768772,103.57864000000001 55.23473772,104.84146000000001 60.30431772,106.07944 65.57069772,107.2868 71.00868772,108.45753 76.59223772,109.58662000000001 82.29609772,110.67138 88.09918772,111.71166 93.98655772000001,112.70822000000001 99.94614772000001,113.66123 105.96689772,114.57157000000001 112.03899772,115.44087 118.15449772000001,116.27146 124.30759772,117.06536 130.49379771999998,117.82361 136.70899771999999,118.54739000000001 142.94959771999999,119.23807000000001 149.21279772,119.89718 155.49609772,120.52635000000001 161.79789771999998,121.12669 168.11659772,121.69915 174.45089772,122.24472 180.79969771999998,122.76444000000001 187.16179772,123.25939000000001 193.53639772,123.73066 199.92289772,124.1791 206.32049772,124.60544 212.72859772,125.01042000000001 219.14609772,125.39479 225.57229772,125.75933 232.00609771999999,126.10480000000001 238.44649772,126.43181000000001 244.89269772,126.74068 251.34369772,127.03169 257.79909771999996,127.30516 264.25839772,127.5614 270.72139772,127.80075 277.18789772,128.02354 283.65789772000005,128.23011 290.13159772,128.42075 296.60879772000004,128.59574 303.08949772,128.75539 309.57359772,128.89999 316.06099772,129.02982 322.55129772,129.14518 329.04439772,129.24634 335.53989772,129.33347 342.03769772000004,129.40676000000002 348.53749772000003,129.46638000000002 355.03909772000003,129.51250000000002 361.54239772,129.54531 368.04719772000004,129.56498 374.55339772,129.57169000000002 381.06099772,129.56559000000001 387.56979772000005,129.54676 394.07979772,129.51531 400.59069772000004,129.47135 407.10259772,129.41498 413.61519772,129.34629999999999 420.12829772000003,129.26542 426.64179772000006,129.17244 433.15539772000005,129.06737 439.66909771999997,128.95021 446.18269772,128.82097 452.69589772,128.67965 459.20879772000006,128.52624 465.72119772,128.36076 472.23299772,128.18319000000002 478.74409772,127.99354000000001 485.25439772000004,127.79176000000001 491.76399772,127.5778 498.27269772000005,127.3516 504.78039772000005,127.11313000000001 511.28709772,126.86233000000001 517.79269772,126.59915000000001 524.2970977199999,126.32356000000001 530.80029772,126.03547 537.3021977199999,125.73482 543.80259772,125.42151000000001 550.3014977199999,125.09544 556.7988977199999,124.75654 563.29449772,124.40471000000001 569.78829772,124.03986 576.2802977199999,123.66191 582.7701977199999,123.27077 589.25799772,122.86629 595.74359772,122.44835 602.2269977199999,122.01683 608.70809772,121.57159000000001 615.1868977199999,121.11249000000001 621.66359772,120.6394 628.1379977199999,120.15219 634.61029772,119.65076 641.0805977199999,119.13504 647.54899772,118.60498000000001 654.01559772,118.06051000000001 660.48049772,117.50156000000001 666.94399772,116.92806 673.4060977199999,116.33993000000001 679.8671977199999,115.73712 686.32739772,115.11971 692.78689772,114.48779 699.24599772,113.84146000000001 705.70489772,113.18083000000001 712.1638977199999,112.50599 718.6232977199999,111.81702000000001 725.08309772,111.11404 731.54389772,110.3972 738.00559772,109.66674 744.46849772,108.92291 750.93259772,108.16596000000001 757.39789772,107.39614 763.86449772,106.61373 770.33199772,105.81901 776.8005977199999,105.01232 783.2701977199999,104.19403 789.74119772,103.36447000000001 796.21449772,102.52393000000001 802.69089772,101.67268000000001 809.17179772,100.81092000000001 815.65869772,99.93888000000001 822.1528977199999,99.05713 828.65509772,98.16646 835.1646977199999,97.26783 841.6804977200001,96.36231000000001 848.19989772,95.45115000000001 854.7196977199999,94.53580000000001 861.23609772,93.6187 867.7458977199999,92.70279000000001 874.24629772,91.79088 880.7355977199999,90.8857 887.21219772,89.98983000000001 893.67539772,89.10564000000001 900.12469772,88.23485000000001 906.55979772,87.37900300000001 912.9804977199999,86.539575 919.38699772,85.71800300000001 925.77939772,84.91567 932.1561977199999,84.134029 938.5124977199999,83.37488900000001 944.83899772,82.640411 951.12339772,81.93299900000001 957.3490977199999,81.25648600000001 963.49159772,80.61703700000001 969.51829772,80.02095100000001 975.39269772,79.47395200000001 981.06969772,78.98482800000001 986.4835977199999,78.5644304 991.56679772,78.2193211 996.27189772,77.9585007 1000.5775977199999,77.79133299 1003.99429772,77.7189" stroke="black" stroke-width="2.0" /></svg>