<?xml version="1.0" encoding="utf-8" ?>
<svg baseProfile="full" height="182.42213" version="1.1" width="1011.98861931" xmlns="http://www.w3.org/2000/svg" xmlns:ev="http://www.w3.org/2001/xml-events" xmlns:xlink="http://www.w3.org/1999/xlink"><defs /><polygon fill="none" points="1003.98861931,106.37830000000001 1000.32421931,105.46377770000001 995.89721931,104.27874500000001 991.22441931,102.98162400000001 986.29161931,101.62904800000001 981.11851931,100.26176400000001 975.72831931,98.89798900000001 970.1190193099999,97.54898800000001 964.2619193099999,96.20758000000001 958.1327193100001,94.85541 951.73031931,93.47438000000001 945.09141931,92.05310000000001 938.27581931,90.59891 931.34011931,89.12212000000001 924.32691931,87.62963000000002 917.25761931,86.12409000000001 910.14131931,84.60684 902.98571931,83.07921 895.7982193099999,81.54247000000001 888.58551931,79.99776000000001 881.3536193099999,78.44635000000001 874.10781931,76.88960000000002 866.85251931,75.32876000000002 859.5915193100001,73.76488 852.32771931,72.19889 845.06331931,70.63181 837.7999193100001,69.06485 830.5387193099999,67.49915000000001 823.28071931,65.93577000000002 816.02651931,64.37570000000001 808.77631931,62.81977000000001 801.53031931,61.26856000000001 794.2891193099999,59.72261000000001 787.0533193099999,58.18250000000001 779.82381931,56.64885000000001 772.6015193100001,55.12232000000001 765.38781931,53.60368000000001 758.18351931,52.09396000000001 750.98941931,50.594170000000005 743.8056193099999,49.105210000000014 736.63171931,47.62786000000001 729.46731931,46.16286000000001 722.3113193099999,44.71081000000001 715.16271931,43.272120000000015 708.02081931,41.84718000000001 700.8852193099999,40.43647 693.75601931,39.04051000000001 686.63351931,37.659920000000014 679.51851931,36.29534000000001 672.41201931,34.94759000000002 665.31471931,33.617660000000015 658.22721931,32.30648000000001 651.1496193099999,31.014870000000016 644.08141931,29.74363000000001 637.02221931,28.493430000000018 629.9710193100001,27.26491 622.92661931,26.058520000000016 615.88841931,24.87463000000001 608.8560193100001,23.71368000000001 601.82961931,22.576170000000005 594.8099193099999,21.462680000000006 587.7977193099999,20.373830000000012 580.7945193099999,19.310320000000004 573.8019193099999,18.27327000000001 566.82141931,17.26404000000001 559.85421931,16.283930000000012 552.90151931,15.334150000000008 545.96421931,14.415880000000001 539.04291931,13.530210000000011 532.13831931,12.67822000000001 525.25061931,11.861100000000008 518.3800193100001,11.080070000000006 511.52591930999995,10.336280000000002 504.6877193099999,9.63084000000002 497.86431931,8.964790000000022 491.05401930999994,8.339160000000007 484.25511931,7.754920000000013 477.46571931,7.212440000000015 470.68381931,6.7118500000000125 463.90761931000003,6.25330000000001 457.13521931,5.837000000000003 450.36471931,5.463200000000015 443.59411931,5.132199999999997 436.82151931,4.844400000000007 430.04501931,4.599300000000014 423.26331931,4.396600000000021 416.47521930999994,4.235800000000012 409.68021931,4.11630000000001 402.87791931,4.037900000000008 396.06861931,4.0 389.25271931,4.002400000000009 382.43111931,4.044600000000017 375.60451931,4.126400000000004 368.77351931000004,4.247600000000006 361.93881931,4.40770000000002 355.10101930999997,4.606500000000011 348.26071931,4.8437000000000126 341.41851931,5.118900000000011 334.57501931,5.432000000000002 327.73111931,5.7830000000000155 320.88821931,6.171600000000012 314.04761930999996,6.597700000000017 307.21121931,7.060960000000009 300.38081931,7.561149999999998 293.55881931,8.098390000000009 286.74711931,8.67307000000001 279.94721931,9.28558000000001 273.16051931,9.93628000000001 266.38811931,10.625550000000018 259.63071930999996,11.353790000000004 252.88871931,12.121430000000004 246.16311930999998,12.928950000000015 239.45461931,13.776780000000002 232.76451931,14.66531000000002 226.09431930999997,15.594850000000008 219.44571931000002,16.565640000000002 212.82051930999998,17.578010000000006 206.22111931,18.632540000000006 199.64961931,19.729760000000013 193.10851931,20.87012 186.60001931,22.05398000000001 180.12671930999997,23.28160000000001 173.69131931,24.55340000000001 167.29691931,25.869910000000004 160.94741931,27.23141000000001 154.64711931,28.63792000000001 148.40051931,30.08921000000001 142.21261931,31.584860000000006 136.08941930999998,33.12472000000001 130.03801931,34.70826000000001 124.06671931,36.334310000000016 118.18381931,38.00110000000001 112.39841931000001,39.70629000000001 106.72011931,41.44763000000002 101.16090931,43.22232000000001 95.73327931000001,45.02635000000001 90.44982931,46.85472000000001 85.32211931,48.70177000000001 80.36123931,50.561720000000015 75.57964931000001,52.42812000000001 70.98940931000001,54.29334000000001 66.60033931,56.14928000000001 62.41869931,57.98811000000001 58.44740931,59.80325000000001 54.68870931,61.58963000000001 51.143319309999995,63.34201000000001 47.80901931,65.05554000000001 44.680319309999994,66.72631000000001 41.748799309999995,68.35164 39.00467931,69.93043 36.43861931,71.46312 34.04063931,72.95049 31.80007931,74.39357000000001 29.70604931,75.79367 27.747689310000002,77.15235000000001 25.91449931,78.47132 24.196709310000003,79.75261 22.58623931,80.99878000000001 21.07588931,82.212 19.65896931,83.39406000000001 18.32917931,84.54646000000001 17.08056931,85.67058000000002 15.90751931,86.76767000000001 14.80473931,87.83893 13.76727031,88.88551000000001 12.79171331,89.90878000000001 11.876861309999999,90.91063000000001 11.02123531,91.89286000000001 10.22299031,92.85718000000001 9.48007431,93.80513 8.79033831,94.73812000000001 8.151613309999998,95.65744000000001 7.56175631,96.56425100000001 7.01868931,97.45961000000001 6.52041131,98.34446500000001 6.06478431,99.21926800000001 5.64941431,100.08359100000001 5.272802309999999,100.93702 4.93812051,101.78032000000002 4.64964311,102.61493500000002 4.41052331,103.44227000000001 4.22148781,104.26215700000002 4.08398737,105.07304400000001 4.00889183,105.8727731 4.0,106.6630195 4.07218907,107.45323300000001 4.30072161,108.22881300000002 4.67241361,108.96433900000001 5.13919931,109.66799800000001 5.67633531,110.34677500000001 6.27440131,111.00644100000001 6.920619309999999,111.65501 7.6123593099999995,112.29531200000001 8.34932131,112.92936800000001 9.13169131,113.55913100000001 9.95945531,114.1868 10.83265231,114.814609 11.753371309999999,115.44355800000001 12.724474310000002,116.07437900000001 13.748999310000002,116.70798 14.830149310000001,117.34549000000001 15.97125931,117.98829 17.17574931,118.63813 18.44703931,119.29716 19.78883931,119.96766000000001 21.20661931,120.65070000000001 22.70684931,121.34700000000001 24.29653931,122.05733000000001 25.98325931,122.78261 27.77519931,123.52390000000001 29.68113931,124.28250000000001 31.71055931,125.06004000000001 33.87372931,125.85871 36.18211931,126.68126000000001 38.649499309999996,127.52957 41.29095931,128.40471000000002 44.12208930999999,129.30753 47.15838931,130.23867 50.41466931,131.19849 53.90460931,132.18729000000002 57.640859309999996,133.20551 61.63549930999999,134.25241 65.89713931,135.32509000000002 70.42810931000001,136.41948000000002 75.22384931,137.53062 80.27425931,138.65355 85.56738931,139.78415 91.09123931,140.91785000000002 96.82932931,142.04936 102.76071931,143.17368000000002 108.86251931000001,144.2867 115.11301931,145.3857 121.49411931,146.46844000000002 127.98861931,147.53235 134.57961931,148.57548000000003 141.25161931,149.59665 147.99151930999997,150.59548 154.78911931,151.57199000000003 161.63621931,152.52572 168.52551931,153.45634 175.45041931,154.36376 182.40531931,155.2482 189.38581931,156.11007 196.38861930999997,156.94968 203.41111931,157.76714 210.45081931,158.56265000000002 217.50581931,159.33651 224.57451931,160.08906000000002 231.65591930999997,160.82073000000003 238.74921931,161.53189 245.85371931,162.22285 252.96831931,162.89393 260.09211931,163.54542 267.22381931,164.17765 274.36201931,164.79092 281.50541931,165.38538 288.65281931,165.96095000000003 295.80321931,166.51755 302.95611930999996,167.05515 310.11131931,167.57374000000002 317.26881931,168.07333 324.42901931,168.55396000000002 331.59241930999997,169.01578 338.75921931,169.45894 345.92941930999996,169.8836 353.10271931,170.28987 360.27841931,170.67786 367.45551931,171.04770000000002 374.63291931,171.3994 381.80941931,171.73275 388.98411931,172.04748 396.15661931,172.34337 403.32651931000004,172.6202 410.49401931,172.87777 417.65951931,173.11588 424.82381931000003,173.33438 431.98731931,173.53322000000003 439.15031931,173.71236000000002 446.31241931,173.87174000000002 453.47291931,174.0113 460.63081931,174.13099 467.78441931,174.23073 474.93191931,174.31035 482.07151931,174.36922 489.20191931,174.40669 496.32221931,174.42213 503.43221931,174.41492 510.53201930999995,174.38445000000002 517.62231931,174.33011 524.70391931,174.25136 531.7778193099999,174.14791000000002 538.84421931,174.0195 545.9025193099999,173.8659 552.95181931,173.68689 559.99041931,173.48228 567.01621931,173.25195000000002 574.02631931,172.99541 581.0175193099999,172.71128000000002 587.98601931,172.39812 594.9279193099999,172.05459000000002 601.83871931,171.67947 608.71381931,171.2717 615.5485193100001,170.83036 622.33791931,170.35402000000002 629.0784193100001,169.84007000000003 635.76881931,169.28575 642.40991931,168.68826 649.0046193100001,168.04471 655.55751931,167.35205000000002 662.0746193099999,166.60698000000002 668.56351931,165.80712 675.03151931,164.95181000000002 681.48521931,164.04041 687.93051931,163.07211 694.37271931,162.04596 700.8167193099999,160.96089 707.26681931,159.81578000000002 713.72741931,158.6107 720.2038193100001,157.34694000000002 726.70211931,156.02561 733.22921931,154.64753000000002 739.79341931,153.21316000000002 746.4037193099999,151.72256000000002 753.07091931,150.17575000000002 759.80571931,148.57513 766.61481931,146.92534 773.49871931,145.23290000000003 780.4512193099999,143.50663 787.4580193099999,141.75793000000002 794.49621931,140.00065 801.5378193099999,138.24790000000002 808.55901931,136.51000000000002 815.54381931,134.79518000000002 822.4834193099999,133.10956000000002 829.37641931,131.45732 836.22731931,129.84089 843.04401931,128.26086 849.83261931,126.71755000000002 856.59621931,125.21190000000001 863.3354193099999,123.74540000000002 870.04871931,122.31998000000002 876.7320193099999,120.93802000000001 883.38041931,119.60261000000001 889.9897193099999,118.31688000000001 896.55721931,117.08351 903.08101931,115.90477100000001 909.56031931,114.782587 915.99481931,113.71851600000001 922.38191931,112.71399500000001 928.71531931,111.770767 934.98541931,110.89071000000001 941.17991931,110.075595 947.28471931,109.327482 953.28461931,108.65027400000001 959.16361931,108.04745600000001 964.90621931,107.52125900000001 970.4987193100001,107.07271600000001 975.9281193099999,106.70478080000001 981.1810193099999,106.42169893 986.2447193099999,106.22539200000001 991.10911931,106.11667910000001 995.77201931,106.10523460000002 1000.2456193099999,106.202431 1003.98861931,106.37830000000001" stroke="black" stroke-width="2.0" /></svg>