<?xml version="1.0" encoding="utf-8" ?>
<svg baseProfile="full" height="175.96859" version="1.1" width="1011.99053453" xmlns="http://www.w3.org/2000/svg" xmlns:ev="http://www.w3.org/2001/xml-events" xmlns:xlink="http://www.w3.org/1999/xlink"><defs /><polygon fill="none" points="1003.99053453,101.96410999999999 1000.36593453,101.05112439999999 995.9712345300001,99.87527299999999 991.3268345299999,98.60014799999999 986.42773453,97.28484999999999 981.29483453,95.966236 975.94893453,94.66078599999999 970.3858345299999,93.377749 964.5804345299999,92.10852399999999 958.51543453,90.83661 952.1959345299999,89.54569 945.6597345299999,88.22708999999999 938.95913453,86.88708 932.1429345299999,85.53236999999999 925.2474345300001,84.16659999999999 918.29243453,82.79096999999999 911.28943453,81.40737999999999 904.24833453,80.01774999999999 897.17783453,78.62371999999999 890.08483453,77.22657 882.97513453,75.82728999999999 875.85343453,74.42666 868.72403453,73.02535999999999 861.59063453,71.62391 854.45603453,70.22274999999999 847.32253453,68.82257999999999 840.19173453,67.42425 833.06503453,66.02855 825.94303453,64.63613 818.8262345300001,63.24760999999999 811.71453453,61.863449999999986 804.6076345299999,60.48404999999999 797.50553453,59.109809999999996 790.40793453,57.74109999999999 783.31473453,56.378339999999994 776.22593453,55.021909999999984 769.1415345300001,53.67223999999999 762.06153453,52.32976999999999 754.98603453,50.99494999999999 747.91523453,49.668269999999985 740.8494345299999,48.35018999999999 733.78883453,47.04120999999999 726.73403453,45.74182999999999 719.68523453,44.45267999999999 712.64273453,43.17437999999999 705.60653453,41.90751999999999 698.5764345299999,40.652649999999994 691.5519345299999,39.410289999999996 684.53253453,38.18089999999999 677.51753453,36.96489 670.5060345300001,35.76251999999998 663.49773453,34.57405999999999 656.4925345300001,33.39982999999998 649.49043453,32.24019 642.49173453,31.095519999999993 635.49713453,29.966249999999988 628.5074345300001,28.852929999999986 621.5233345299999,27.75627 614.54533453,26.67698 607.57363453,25.615719999999982 600.60833453,24.573099999999997 593.64903453,23.54970999999999 586.69553453,22.54607 579.74703453,21.562669999999983 572.80293453,20.599850000000004 565.8629345300001,19.657989999999998 558.9268345300001,18.73747999999999 551.99463453,17.83874999999999 545.06673453,16.96222999999999 538.14353453,16.10839 531.22563453,15.277749999999983 524.31383453,14.47099999999999 517.40853453,13.68880999999999 510.51023453,12.931839999999994 503.61903452999996,12.200729999999993 496.73513453,11.496079999999992 489.85833453,10.818489999999997 482.98853453,10.168509999999984 476.12553453000004,9.546759999999992 469.26943453,8.953839999999985 462.42063453,8.390409999999989 455.57963453,7.857109999999992 448.74733453,7.354579999999999 441.92463453,6.883459999999985 435.11303453,6.444439999999986 428.31363453,6.038489999999982 421.52733452999996,5.666640000000001 414.75453453,5.329909999999984 407.99523453,5.029219999999995 401.24883453,4.765519999999995 394.51453453,4.539719999999988 387.79113452999997,4.352649999999997 381.07713452999997,4.204769999999996 374.37163453,4.09644999999999 367.67363452999996,4.028059999999996 360.98253452999995,4.0 354.29793452999996,4.012679999999989 347.61963453,4.0665599999999955 340.94763453,4.161999999999992 334.28203453000003,4.299279999999996 327.62273452999995,4.4786 320.96963453,4.700219999999987 314.32253453,4.964379999999991 307.68093453,5.271349999999984 301.04433452999996,5.6214200000000005 294.41223453,6.014749999999992 287.78423453,6.451289999999986 281.16033453,6.930959999999999 274.54043453,7.453689999999995 267.92513453000004,8.019379999999984 261.31503453,8.627899999999983 254.71113453,9.279139999999984 248.11473453,9.973169999999996 241.52743453,10.710099999999997 234.95103453000002,11.489919999999998 228.38793453,12.312579999999997 221.84053452999999,13.17789999999998 215.31173452999997,14.085719999999995 208.80453452999998,15.036479999999983 202.32173453000001,16.030879999999996 195.86563453,17.069569999999985 189.43843453,18.153199999999984 183.04183453,19.28239999999998 176.67743453,20.45779999999999 170.34693452999997,21.680139999999994 164.05273452999998,22.949979999999982 157.79773452999999,24.267719999999983 151.58503452999997,25.633489999999995 145.41873453,27.047219999999996 139.30293453,28.508889999999994 133.24363453,30.01854999999999 127.24743453,31.575689999999994 121.32233453,33.17918999999999 115.47633453,34.82736999999999 109.71863453000002,36.51827999999999 104.05973453,38.250399999999985 98.51167453000001,40.02125999999999 93.08695453,41.82732999999999 87.79764453000001,43.66414999999999 82.65523453000002,45.52672 77.67283453000002,47.409629999999986 72.86500453,49.30581999999999 68.24545453,51.20692999999999 63.82526453,53.10418999999999 59.612014529999996,54.98923999999999 55.61249453,56.85495999999999 51.832794529999994,58.69369 48.27579453,60.49774999999999 44.939914529999996,62.26049999999999 41.81921453,63.97690999999999 38.905394529999995,65.64424999999999 36.19003453,67.26172 33.66319453,68.82894999999999 31.313494530000003,70.34615 29.12869453,71.81416999999999 27.096264530000003,73.23436999999998 25.20386453,74.60857999999999 23.44074453,75.9395 21.79769453,77.22984999999998 20.266074530000004,78.48185999999998 18.83771453,79.69745999999999 17.504884529999998,80.87843999999998 16.26026453,82.02647999999999 15.09698453,83.14320999999998 14.00869453,84.2302 12.99089053,85.28927999999999 12.04121653,86.32262999999999 11.157083530000001,87.33228999999999 10.33564653,88.32012999999999 9.57395553,89.28782999999999 8.86905353,90.23689999999999 8.218042529999998,91.16873 7.61812353,92.084544 7.06662353,92.985463 6.56104953,93.87248799999999 6.09976353,94.746337 5.68172353,95.60748999999998 5.306082529999999,96.45635499999999 4.97365223,97.29335699999999 4.68558613,98.11913399999999 4.44274523,98.93448599999999 4.24681833,99.739887 4.10089583,100.53476199999999 4.01612493,101.3174619 4.0,102.08949549999998 4.04954958,102.86204799999999 4.23589203,103.628588 4.56788843,104.36276399999998 4.99939953,105.06801499999999 5.49834253,105.75483299999999 6.06144153,106.42368099999999 6.68077653,107.07813099999998 7.35065453,107.723569 8.06643553,108.36625199999999 8.82765153,109.00865099999999 9.635807530000001,109.651597 10.49247253,110.29609599999999 11.40029153,110.94309499999999 12.362686530000001,111.59357999999999 13.383325529999999,112.24877 14.466104529999999,112.91014999999999 15.61507453,113.57959999999999 16.834374529999998,114.25941999999999 18.12807453,114.95245999999999 19.50101453,115.66125 20.960174530000003,116.3868 22.513384530000003,117.12995 24.169094530000002,117.89160999999999 25.936354530000003,118.67273999999999 27.82487453,119.47444999999999 29.84500453,120.29808 32.007954530000006,121.14545999999999 34.32624453,122.01912999999999 36.81507453,122.92155 39.491824529999995,123.85414 42.37441453,124.81799 45.48050453,125.81387 48.82646453,126.84215999999999 52.42635453,127.90306999999999 56.291724529999996,128.99680999999998 60.43189453,130.12145999999998 64.85020452999998,131.27213999999998 69.54118453000001,132.44239 74.49112453000001,133.62502 79.68171453000001,134.81348 85.09617453000001,136.00268 90.71820453000001,137.18699999999998 96.52759453000002,138.36082 102.50172453,139.51928999999998 108.61833453000001,140.65888999999999 114.85873453,141.77763 121.20723453,142.87355 127.64873453,143.94502999999997 134.16883453,144.99115999999998 140.75453453,146.01173 147.39513452999998,147.00721 154.08203453,147.97758 160.80793452999998,148.92238999999998 167.56653452999998,149.84147 174.35233453,150.73492 181.16093453,151.60308999999998 187.98913453,152.44642 194.83473453,153.26511 201.69563452999998,154.05937 208.57053453,154.82943999999998 215.45793453,155.57567 222.35733453,156.29844 229.26813453,156.99818 236.18993453,157.67532 243.12233453,158.33024999999998 250.06433453,158.96336 257.01483453,159.57502 263.97233452999996,160.16558999999998 270.93533453,160.73541 277.90213452999996,161.28439 284.87133452999996,161.81234 291.84203453,162.3191 298.81353452999997,162.80453999999997 305.78553452999995,163.26855999999998 312.75833452999996,163.71108999999998 319.73223453,164.13210999999998 326.70763452999995,164.53168 333.68483453,164.90985999999998 340.66363452999997,165.26668 347.64363453,165.60217 354.62423452999997,165.91634 361.60473453,166.2092 368.58383453,166.48063 375.56073453,166.7303 382.53463453,166.95791 389.50493452999996,167.16316999999998 396.47123453,167.3458 403.43343453,167.50554 410.39143453,167.6421 417.34533453,167.75525 424.29513453,167.84473 431.24043453,167.91028 438.18053453,167.95164999999997 445.11463453,167.96859 452.04153453,167.96089 458.95983453,167.92831999999999 465.86783453,167.87025999999997 472.76343453,167.78559 479.64433453,167.67318999999998 486.50783452999997,167.53199999999998 493.35113452999997,167.36102 500.17103453000004,167.15935 506.96403452999994,166.92613999999998 513.72683453,166.66017 520.45663453,166.35939 527.15233453,166.02166999999997 533.8141345299999,165.64494 540.44353453,165.22705 547.04333453,164.76581 553.61753453,164.25889 560.17113453,163.70434 566.70923453,163.10181 573.23703453,162.45113999999998 579.7593345299999,161.75205 586.28063453,161.00412999999998 592.8054345300001,160.20684 599.3380345300001,159.35948 605.8828345300001,158.46151 612.44403453,157.51386 619.0262345299999,156.51818 625.63363453,155.47607 632.2701345300001,154.38916999999998 638.93933453,153.25914 645.64483453,152.08772 652.38983453,150.87673999999998 659.17703453,149.62849 666.00823453,148.34577 672.88333453,147.03181999999998 679.80043453,145.69045 686.75583453,144.326 693.7435345299999,142.94344 700.7553345299999,141.54818 707.78193453,140.14503 714.81513453,138.73816 721.8481345299999,137.33146 728.87603453,135.92849 735.8952345299999,134.53246 742.90413453,133.14623 749.9024345299999,131.77206999999999 756.89033453,130.41127999999998 763.86773453,129.065 770.83403453,127.73442999999999 777.78853453,126.42079 784.7302345300001,125.12534 791.65783453,123.84938 798.56983453,122.59437999999999 805.46513453,121.36204 812.3431345299999,120.1539 819.20393453,118.97139999999999 826.0478345299999,117.81584 832.87593453,116.68844999999999 839.68963453,115.59027999999999 846.4898345299999,114.5222 853.27693453,113.48504999999999 860.05063453,112.47982999999999 866.80953453,111.507583 873.55173453,110.56943399999999 880.27463453,109.66662299999999 886.97533453,108.80093099999999 893.65073453,107.97424899999999 900.29783453,107.188345 906.91383453,106.444864 913.49593453,105.745318 920.0410345299999,105.09113199999999 926.54343453,104.48380699999998 932.99473453,103.924882 939.38393453,103.41578899999999 945.69783453,102.95772269999999 951.92133453,102.5525728 958.03453453,102.20320639999998 964.0131345299999,101.9117687 969.8319345299999,101.6792282 975.4668345299999,101.50741299999999 980.89553453,101.40221389999999 986.0994345299999,101.36736479999999 991.06563453,101.4039823 995.78913453,101.51833529999999 1000.2770345299999,101.71887229999999 1003.99053453,101.96410999999999" stroke="black" stroke-width="2.0" /></svg>