<?xml version="1.0" encoding="utf-8" ?>
<svg baseProfile="full" height="194.67302" version="1.1" width="1011.98665886" xmlns="http://www.w3.org/2000/svg" xmlns:ev="http://www.w3.org/2001/xml-events" xmlns:xlink="http://www.w3.org/1999/xlink"><defs /><polygon fill="none" points="1003.98665886,117.05900000000001 1000.24715886,116.07467580000001 995.7562588600001,114.817451 991.05415886,113.477314 986.1255588600001,112.12518700000001 980.97485886,110.79147900000001 975.60625886,109.48380300000001 970.00785886,108.20403600000002 964.1577588600001,106.94118000000002 958.0430588600001,105.67920000000001 951.67185886,104.40148 945.07925886,103.09981000000002 938.31135886,101.77925000000002 931.4117588600001,100.44457000000001 924.41435886,99.09794000000001 917.34045886,97.74001000000001 910.2051588600001,96.37226000000001 903.0224588600001,94.99598000000002 895.80425886,93.61204000000001 888.56005886,92.22097000000001 881.29745886,90.82375000000002 874.02245886,89.42143000000002 866.73975886,88.01477000000001 859.45275886,86.60431000000001 852.16345886,85.19030000000001 844.8728588600001,83.77279000000001 837.58135886,82.35175000000001 830.28935886,80.92707000000001 822.9965588599999,79.49858 815.7023588600001,78.06603000000001 808.4059588599999,76.62930000000001 801.1064588600001,75.18859 793.80315886,73.74418000000001 786.49575886,72.2964 779.18405886,70.84563000000001 771.8682588600001,69.39229 764.54875886,67.93686000000001 757.2261588599999,66.47974000000002 749.9013588600001,65.02143000000001 742.57535886,63.56242000000001 735.24935886,62.103260000000006 727.9247588600001,60.64455000000002 720.6032588600001,59.18696000000001 713.28615886,57.73130000000001 705.9747588600001,56.27838000000001 698.66985886,54.82894000000002 691.37175886,53.38365 684.0807588600001,51.94308000000002 676.79655886,50.50777000000001 669.5186588600001,49.07816000000001 662.24675886,47.65468000000001 654.98085886,46.23781000000001 647.72075886,44.82806000000002 640.46695886,43.425980000000024 633.2200588600001,42.03214000000001 625.98055886,40.64720000000001 618.74935886,39.271970000000024 611.52705886,37.907420000000016 604.31425886,36.55445000000002 597.11115886,35.213930000000005 589.91775886,33.88667000000001 582.73405886,32.57345000000001 575.55965886,31.274990000000017 568.39435886,29.99202000000001 561.23785886,28.725250000000003 554.09015886,27.475430000000017 546.9516588600001,26.243340000000003 539.8225588600001,25.029780000000017 532.7034588600001,23.83556 525.5952588600001,22.66152000000001 518.49865886,21.508770000000013 511.41455886,20.378530000000012 504.3438588599999,19.271980000000013 497.28755886,18.190320000000014 490.24645886,17.13467 483.22155886,16.106100000000012 476.21375886,15.105900000000005 469.22405886,14.13560000000001 462.25395885999995,13.19710000000002 455.30525886,12.292400000000015 448.37995886,11.423300000000012 441.48085885999996,10.591600000000014 434.61045886,9.799200000000013 427.7719588599999,9.047900000000013 420.96795885999995,8.340300000000013 414.19965886,7.679200000000009 407.46715886,7.067100000000011 400.76895885999994,6.506200000000007 394.10275886,5.998800000000017 387.46485886,5.546800000000005 380.85115885999994,5.151800000000009 374.25705886,4.8142 367.67905886,4.534200000000013 361.11325886,4.3122000000000185 354.55665885999997,4.148700000000005 348.00605885999994,4.04440000000001 341.45875886,4.0 334.91225885999995,4.015800000000013 328.36445885999996,4.0911000000000115 321.8138588599999,4.225500000000011 315.25935885999996,4.41840000000002 308.70055885999994,4.66940000000001 302.13735885999995,4.978000000000009 295.57035886,5.3437000000000126 289.00035885999995,5.766100000000009 282.42855886,6.244800000000012 275.85605885999996,6.7793000000000205 269.28445886,7.369100000000003 262.71535886,8.013700000000014 256.15075886,8.712300000000013 249.59255886,9.464800000000011 243.04315886,10.271100000000004 236.50495886000002,11.131100000000004 229.98015886000002,12.044700000000006 223.47155886000002,13.011700000000019 216.98145886,14.031600000000012 210.51285886,15.104700000000008 204.06835886000002,16.231300000000005 197.65055886000002,17.411660000000012 191.26195886000002,18.64610000000002 184.90495886000002,19.934780000000018 178.58165886,21.277910000000006 172.29465886000003,22.67580000000001 166.04695886,24.128710000000012 159.84175886,25.63667000000001 153.68275886,27.19949000000001 147.57385886,28.816710000000015 141.51955886000002,30.487950000000012 135.52535886,32.21282000000002 129.59745886000002,33.99045000000001 123.74285886,35.81942000000001 117.96885886000001,37.69773000000001 112.28325886000002,39.62315000000001 106.69525886000001,41.593570000000014 101.21521886000001,43.60601000000001 95.85404886,45.656490000000005 90.62230886,47.74019000000001 85.53015886000001,49.85175000000001 80.58895886,51.98564000000002 75.81100886,54.13499000000001 71.20787886000001,56.29183000000001 66.78912886,58.44772000000001 62.56171886,60.59443000000001 58.53191886,62.72447000000001 54.70554886,64.82993000000002 51.08597886,66.90282000000002 47.67314886,68.93595000000002 44.46350886,70.92349000000002 41.45132886,72.86155000000002 38.630748860000004,74.74784000000001 35.99453886,76.58058000000001 33.533858859999995,78.35868 31.238658859999997,80.08186 29.09814886,81.75067000000001 27.101368859999997,83.36636000000001 25.23881886,84.93114000000001 23.50195886,86.44733000000001 21.88246886,87.91704000000001 20.37221886,89.34229000000002 18.96337886,90.72506000000001 17.648428860000003,92.06731 16.42029886,93.37102000000002 15.27245886,94.63810000000001 14.20025886,95.87065000000001 13.19996586,97.07074000000001 12.26779786,98.24029000000002 11.400007859999999,99.38109000000001 10.59293886,100.49480000000001 9.84307286,101.58296000000001 9.14705486,102.64700000000002 8.50170686,103.68826000000001 7.904032860000001,104.70796000000001 7.351506860000001,105.70724000000001 6.8431878600000005,106.68707 6.37848186,107.64826300000001 5.95661186,108.591508 5.57664786,109.51742600000001 5.23754486,110.42657600000001 4.93860716,111.31940600000001 4.68000976,112.19655500000002 4.46173026,113.05935600000001 4.28378726,113.90943700000001 4.14738626,114.746097 4.05404466,115.56473400000002 4.00442282,116.36363080000001 4.0,117.15384445000001 4.05847108,117.94958550000001 4.20438386,118.74907900000001 4.46943776,119.53410300000002 4.84573946,120.29421400000001 5.29854086,121.03652800000002 5.81221386,121.76701200000001 6.38241886,122.487119 7.00620186,123.19779400000002 7.68019986,123.90256400000001 8.40059686,124.60618200000002 9.166823860000001,125.31094900000001 9.98027386,126.01785600000001 10.84233986,126.72810700000001 11.755099860000001,127.44292000000002 12.72137886,128.16349000000002 13.74410086,128.89123 14.82619886,129.6278 15.97057886,130.37510000000003 17.18127886,131.13442 18.46349886,131.90648000000002 19.82291886,132.69209 21.26562886,133.49218000000002 22.79818886,134.30785 24.42755886,135.14042 26.161158859999997,135.99154000000001 28.006848859999998,136.86329 29.972998859999997,137.75844 32.069318859999996,138.67994000000002 34.30809886,139.62942 36.70277886,140.60813000000002 39.26739885999999,141.61721 42.01624886,142.65764000000001 44.96352886,143.73027000000002 48.12303886,144.83596 51.50837886,145.97582 55.13334886,147.14951000000002 59.00939886,148.3547 63.143348859999996,149.58777 67.53647886,150.84410000000003 72.18504886000001,152.11872000000002 77.08285886,153.40720000000002 82.22302886,154.7045 87.59379886,156.00441 93.17761886000001,157.30064000000002 98.95311886,158.58753000000002 104.89815886000001,159.8608 110.99285886,161.11648000000002 117.21795886,162.34993000000003 123.55455886000001,163.5573 129.98575886,164.73586 136.49775886,165.88411000000002 143.08115886000002,167.00154 149.72835886000001,168.08780000000002 156.43185886,169.1427 163.18405886,170.16633000000002 169.97735886,171.15904 176.80435886,172.12127 183.65845886,173.05264 190.53435886000003,173.95251000000002 197.42805886000002,174.82048 204.33645886,175.65640000000002 211.25845886000002,176.46034 218.19375886000003,177.23258 225.14285886,177.97367 232.10565886,178.68414 239.08125886,179.36447 246.06865886,180.01513 253.06575886000002,180.63652000000002 260.07025886,181.22895 267.07965886,181.79217 274.09175885999997,182.32584000000003 281.10495885999995,182.82968 288.11825885999997,183.30347 295.13075886,183.74703 302.14245886,184.16024000000002 309.15325886,184.54296 316.16305886,184.89508 323.17135885999994,185.21647000000002 330.17745886,185.50699000000003 337.18025886,185.76649 344.17815885999994,185.99484 351.16965885999997,186.19176000000002 358.15265886,186.35637000000003 365.12485886,186.48771000000002 372.08395886,186.58483 379.02735886,186.64687 385.95205885999997,186.67302 392.85525886,186.66252000000003 399.73375886,186.61429 406.58525885999995,186.52647000000002 413.40865886,186.39722 420.20375886,186.22473000000002 426.97175885999997,186.00719000000004 433.71465886,185.74277 440.43575885999996,185.42957 447.13865885999996,185.06632000000002 453.82765886,184.65285 460.50685885999997,184.18899000000002 467.18035885999996,183.67441000000002 473.85255886,183.10865 480.52785886,182.49106 487.21065885999997,181.82087 493.90595886,181.09776 500.61855886,180.32306 507.35285885999997,179.49828000000002 514.11275886,178.62496000000002 520.90155886,177.70469000000003 527.72215886,176.73911 534.5766588600001,175.72999000000002 541.4666588599999,174.67928 548.39345886,173.58928000000003 555.35805886,172.46251 562.3610588600001,171.30169 569.40245886,170.1097 576.48185886,168.88966000000002 583.59835886,167.64492 590.75025886,166.37887 597.93555886,165.09422 605.1512588600001,163.79351000000003 612.3941588600001,162.47945 619.66035886,161.15492 626.94545886,159.82298 634.2446588600001,158.48680000000002 641.55235886,157.14955 648.86305886,155.8135 656.1716588600001,154.48047000000003 663.47375886,153.15217 670.7658588600001,151.83015 678.04515886,150.51578 685.30955886,149.21033 692.5576588600001,147.91495 699.7888588600001,146.63108 707.00295886,145.36017 714.20055886,144.10356000000002 721.38245886,142.86246 728.55005886,141.63802 735.7052588600001,140.43128000000002 742.8502588599999,139.24308000000002 749.98715886,138.07374000000002 757.11725886,136.92354 764.24115886,135.79286000000002 771.3587588600001,134.68221 778.46915886,133.59218 785.5708588599999,132.52347 792.66185886,131.47703 799.7400588600001,130.45427 806.80415886,129.4566 813.85345886,128.4853 820.88765886,127.54154000000001 827.9072588600001,126.62639000000001 834.91325886,125.74082500000002 841.9065588600001,124.88561600000001 848.88775886,124.06146600000001 855.85635886,123.269157 862.81115886,122.50953700000001 869.75025886,121.78350000000002 876.67095886,121.09197700000001 883.57005886,120.43628500000001 890.4439588600001,119.81805800000001 897.28915886,119.23884600000001 904.10195886,118.700083 910.8786588600001,118.20308100000001 917.61535886,117.74906240000001 924.30615886,117.33936550000001 930.94165886,116.97533311000001 937.5095588600001,116.65813100000001 943.99525886,116.38860170000001 950.38215886,116.16790670000002 956.65105886,115.99868500000001 962.78015886,115.88295300000001 968.74745886,115.82152 974.5322588600001,115.81490300000002 980.11485886,115.86691200000001 985.47715886,115.98031900000001 990.6047588600001,116.1555294 995.4900588600001,116.3978378 1000.13765886,116.71698490000001 1003.98665886,117.05900000000001" stroke="black" stroke-width="2.0" /></svg>