<?xml version="1.0" encoding="utf-8" ?>
<svg baseProfile="full" height="195.49235" version="1.1" width="1011.991499847" xmlns="http://www.w3.org/2000/svg" xmlns:ev="http://www.w3.org/2001/xml-events" xmlns:xlink="http://www.w3.org/1999/xlink"><defs /><polygon fill="none" points="1003.991499847,119.1062 1000.1691998470001,117.997883 995.566899847,116.591897 990.734399847,115.087692 985.663599847,113.546676 980.371199847,112.000713 974.867099847,110.464798 969.136499847,108.94432 963.153199847,107.42479 956.9037998470001,105.88695 950.402199847,104.31325 943.691999847,102.70054999999999 936.824099847,101.05849 929.842899847,99.39511 922.778799847,97.71486 915.647799847,96.02023 908.461899847,94.31406 901.231999847,92.59897000000001 893.967499847,90.87722 886.676599847,89.15067 879.366099847,87.42083 872.042299847,85.689 864.7105998469999,83.9563 857.375599847,82.22363999999999 850.0406998469999,80.49208 842.708799847,78.76303 835.3816998469999,77.03775 828.060799847,75.31733 820.746599847,73.6027 813.4387998469999,71.89457 806.137299847,70.19344000000001 798.841599847,68.49977 791.551599847,66.81407 784.267199847,65.13686000000001 776.988599847,63.46867 769.715699847,61.81009 762.448999847,60.16178000000001 755.188499847,58.52437 747.934499847,56.898500000000006 740.687199847,55.28482 733.4467998470001,53.68397 726.213599847,52.096590000000006 718.987799847,50.52345 711.7693998469999,48.96528000000001 704.558199847,47.42277 697.354199847,45.89660000000001 690.156999847,44.38741 682.966099847,42.89580000000001 675.781199847,41.422290000000004 668.6017998469999,39.96736 661.427799847,38.53152 654.2588998470001,37.115269999999995 647.095099847,35.71916 639.9364998469999,34.343729999999994 632.783099847,32.989549999999994 625.6352998469999,31.65727000000001 618.4929998470001,30.34750000000001 611.356499847,29.060879999999997 604.2256998470001,27.798000000000002 597.100799847,26.559470000000005 589.9817998469999,25.345870000000005 582.868599847,24.157790000000006 575.761399847,22.995890000000003 568.6602998469999,21.86081 561.565399847,20.75322 554.477199847,19.673770000000005 547.395999847,18.623099999999994 540.3221998470001,17.6019 533.2562998469999,16.611000000000004 526.198799847,15.65100000000001 519.149899847,14.72290000000001 512.109899847,13.827300000000008 505.078799847,12.96499999999999 498.056499847,12.136700000000005 491.04299984700003,11.343100000000007 484.038099847,10.585000000000008 477.042099847,9.863 470.055599847,9.177899999999994 463.079299847,8.53070000000001 456.114399847,7.922000000000011 449.162499847,7.35260000000001 442.22529984700003,6.823499999999996 435.304399847,6.335799999999992 428.401099847,5.891000000000005 421.515699847,5.490399999999994 414.64809984699997,5.1351999999999975 407.797499847,4.82650000000001 400.96259984700004,4.5656999999999925 394.141599847,4.3536 387.332699847,4.190599999999989 380.534199847,4.076999999999998 373.744699847,4.013400000000004 366.962599847,4.0 360.18659984699997,4.0375000000000085 353.415599847,4.1263000000000005 346.648499847,4.266599999999997 339.884399847,4.458300000000008 333.12269984700004,4.7012 326.362899847,4.995100000000008 319.604699847,5.340000000000003 312.848199847,5.7357000000000085 306.093499847,6.182200000000009 299.340899847,6.679200000000009 292.59119984700004,7.2265000000000015 285.845299847,7.823899999999995 279.104499847,8.471100000000007 272.37029984699996,9.1678 265.64459984700005,9.913600000000002 258.929499847,10.708399999999997 252.226799847,11.552499999999995 245.53849984700003,12.445899999999995 238.866399847,13.3887 232.212099847,14.381100000000004 225.577099847,15.423000000000002 218.963199847,16.514800000000008 212.372299847,17.6567 205.806899847,18.84899999999999 199.269899847,20.091669999999993 192.764199847,21.384649999999993 186.29329984700001,22.72779 179.860899847,24.121430000000004 173.470699847,25.566010000000006 167.12619984699998,27.06183999999999 160.830599847,28.609120000000004 154.587099847,30.207949999999997 148.398799847,31.858360000000005 142.27029984700002,33.56008 136.207499847,35.31218 130.217199847,37.113150000000005 124.30719984699999,38.96078 118.485799847,40.852630000000005 112.76299984699999,42.78645 107.149399847,44.75930000000001 101.655869847,46.76732000000001 96.292809847,48.80596 91.069999847,50.87024000000001 85.99832984700001,52.95491 81.09000984699999,55.053380000000004 76.35685984700001,57.15791 71.808889847,59.26025 67.453529847,61.35229 63.296989847,63.42718 59.344559847,65.4782 55.598939847,67.49868000000001 52.059559847,69.48265 48.72255984700001,71.42522 45.581709847,73.32294 42.630699846999995,75.17365000000001 39.862559847,76.97547 37.269139847,78.72702000000001 34.841229846999994,80.4276 32.568839847,82.07723 30.441619847000002,83.67658 28.450029847,85.22729000000001 26.585779847,86.7316 24.840829847,88.19159 23.207279847,89.60921 21.677469846999998,90.98636 20.244049847,92.32491999999999 18.900029847,93.62672 17.638829846999997,94.89357000000001 16.454949847,96.12735 15.344519847,97.33013 14.303849847,98.50383000000001 13.329247847,99.65017 12.417129847,100.77075 11.564012847,101.86703 10.766559847,102.94033999999999 10.021594847,103.99193 9.326108847,105.02295000000001 8.677274847,106.03447 8.073185847000001,107.02745 7.513153847,108.00280000000001 6.996425847,108.96131 6.522095847,109.903713 6.089146847,110.83068 5.696480847,111.742838 5.343030847,112.640756 5.029067847,113.524891 4.755635947,114.395942 4.523417447,115.254976 4.331720247,116.102733 4.177977247,116.937785 4.063903207,117.757144 4.002399847,118.561885 4.0,119.3603533 4.047813097,120.163725 4.197648047,120.969485 4.469686147,121.75999 4.837586047,122.531516 5.278730847,123.28788 5.772536847,124.038168 6.319561847,124.779945 6.921375847,125.511557 7.571716847,126.238986 8.263717847,126.968438 8.997804847000001,127.700565 9.776377847,128.434756 10.602071847000001,129.17061 11.476975846999999,129.90917000000002 12.402777847,130.65227 13.380943847000001,131.40204 14.412739847,132.16082 15.500849847,132.92984 16.649159847,133.70968 17.861789847,134.50095 19.143189847000002,135.30439 20.498049846999997,136.12083 21.931359847,136.95128 23.448389847,137.797 25.054709846999998,138.65951 26.756199846999998,139.54078 28.559339847,140.44321 30.472599847,141.36847 32.505899846999995,142.3178 34.669929847,143.29244 36.975989847,144.29369 39.435949847,145.32288 42.062049847000004,146.38142 44.866789847,147.47096 47.862999847,148.59338 51.064319847,149.74919 54.483699847000004,150.93746 58.131859847,152.15636999999998 62.016439846999994,153.40326 66.141769847,154.67495 70.509629847,155.96828 75.12100984700001,157.27968 79.97374984700001,158.60383000000002 85.059919847,159.93464 90.366329847,161.26576 95.876269847,162.59139 101.572439847,163.90666 107.43779984700001,165.20591000000002 113.453799847,166.48352 119.60129984699999,167.73475 125.862699847,168.95608 132.223499847,170.14533 138.672599847,171.30081 145.199299847,172.42097 151.792899847,173.50471 158.44299984699998,174.55133999999998 165.139799847,175.56062 171.874499847,176.53201 178.639799847,177.46426 185.429599847,178.35644000000002 192.239599847,179.20796 199.066999847,180.01851 205.910599847,180.78807 212.770099847,181.51699 219.644699847,182.20571 226.532599847,182.85458 233.431199847,183.46395 240.336799847,184.03415 247.24509984699998,184.56531 254.151499847,185.0564 261.051499847,185.50603999999998 267.941399847,185.91299 274.817799847,186.27613000000002 281.677899847,186.59445 288.519299847,186.86701 295.34009984700003,187.09246000000002 302.139499847,187.26924 308.91759984699996,187.3958 315.675899847,187.47068000000002 322.41659984700004,187.49235 329.142999847,187.45924000000002 335.859299847,187.37023 342.569799847,187.22553 349.278599847,187.02550000000002 355.989499847,186.77035 362.706199847,186.46014 369.432099847,186.09482 376.170599847,185.67424 382.92489984699995,185.19884 389.69829984700004,184.67007 396.49389984699997,184.08945 403.314599847,183.45846 410.16319984700004,182.77859 417.041999847,182.05132 423.953499847,181.27818000000002 430.899699847,180.46095 437.882499847,179.60184 444.903199847,178.70326 451.96239984700003,177.76778000000002 459.059899847,176.79819 466.19459984699995,175.79752000000002 473.364799847,174.76906 480.56769984700003,173.71571 487.800399847,172.63956000000002 495.06049984699996,171.54263 502.345599847,170.42698000000001 509.65389984699993,169.29468 516.983999847,168.14779000000001 524.334699847,166.98835 531.705299847,165.81808 539.094699847,164.63819 546.5010998470001,163.44998 553.922399847,162.25485 561.355599847,161.05429 568.797399847,159.84995 576.243699847,158.64356 583.689999847,157.43694 591.131999847,156.23189000000002 598.566599847,155.03006 605.991099847,153.83296 613.403999847,152.64194 620.804799847,151.45818 628.193399847,150.28273000000002 635.570799847,149.11644 642.938199847,147.95989 650.296399847,146.8136 657.646299847,145.67816 664.988199847,144.55416 672.322599847,143.44224 679.649299847,142.34306 686.968299847,141.25732 694.279199847,140.18572 701.581899847,139.129 708.8761998470001,138.08785 716.162099847,137.06295 723.439499847,136.05496 730.708499847,135.06453 737.9691998469999,134.09229 745.2218998469999,133.13889 752.466499847,132.205 759.702899847,131.29131 766.9308998470001,130.3985 774.150199847,129.52727 781.360199847,128.67832900000002 788.560499847,127.85238 795.750299847,127.050256 802.929299847,126.272812 810.0971998470001,125.52086800000001 817.2538998470001,124.795209 824.399599847,124.096593 831.5346998470001,123.42575000000001 838.659399847,122.783366 845.773799847,122.170095 852.876699847,121.586641 859.9662998470001,121.03374600000001 867.0400998470001,120.512172 874.094699847,120.0226742 881.125999847,119.5662672 888.130099847,119.14451187 895.103499847,118.7589209 902.042999847,118.4108711 908.946099847,118.10161000000001 915.810399847,117.832216 922.631999847,117.60326500000001 929.4020998469999,117.41509 936.106999847,117.267878 942.729399847,117.161519 949.249099847,117.09608300000001 955.644599847,117.07392300000001 961.894399847,117.097233 967.9784998470001,117.167036 973.8797998470001,117.283732 979.580699847,117.450073 985.0615998469999,117.66817400000001 990.3041998470001,117.938003 995.297499847,118.2683123 1000.048899847,118.6779062 1003.991499847,119.1062" stroke="black" stroke-width="2.0" /></svg>