<?xml version="1.0" encoding="utf-8" ?>
<svg baseProfile="full" height="173.68762" version="1.1" width="1012.002977295" xmlns="http://www.w3.org/2000/svg" xmlns:ev="http://www.w3.org/2001/xml-events" xmlns:xlink="http://www.w3.org/1999/xlink"><defs /><polygon fill="none" points="1004.002977295,120.6611 1000.663677295,119.555728 996.5462772950001,118.10450300000001 992.1115772950001,116.457155 987.3461772950001,114.627644 982.272377295,112.64468500000001 976.942277295,110.55157 971.423277295,108.40472 965.785277295,106.25165 960.080977295,104.12617 954.330777295,102.04913 948.524977295,100.02423 942.6482772950001,98.04427000000001 936.6889772950001,96.10302 930.640277295,94.196 924.500077295,92.3194 918.2695772950001,90.46868 911.9530772950001,88.63946000000001 905.557977295,86.82773 899.095077295,85.03024 892.576177295,83.24712 886.0121772950001,81.47951 879.412577295,79.72799 872.785377295,77.9925 866.136677295,76.27261 859.4707772950001,74.56869 852.7909772950001,72.88139000000001 846.0997772950001,71.21108000000001 839.398677295,69.55791 832.688277295,67.92176 825.968577295,66.30233000000001 819.239577295,64.69931 812.5014772950001,63.11242000000001 805.755077295,61.54151 799.001377295,59.98646 792.241777295,58.44727000000001 785.477677295,56.92419000000001 778.7103772950001,55.41761000000001 771.940677295,53.92786000000001 765.168777295,52.455110000000005 758.3946772950001,50.99949000000001 751.617877295,49.561009999999996 744.837477295,48.13954000000001 738.052777295,46.734880000000004 731.2635772950001,45.34688 724.469977295,43.97549000000001 717.672377295,42.62071 710.871777295,41.28266000000001 704.0694772950001,39.961510000000004 697.2666772950001,38.65778 690.464677295,37.372060000000005 683.663877295,36.10485 676.864777295,34.8566 670.067277295,33.62767000000001 663.2708772950001,32.41836000000001 656.4747772950001,31.22887 649.678377295,30.059259999999995 642.880977295,28.909540000000007 636.082377295,27.779820000000015 629.2822772950001,26.67020000000001 622.480977295,25.580870000000004 615.6788772950001,24.512010000000004 608.8763772950001,23.46390000000001 602.0743772950001,22.436970000000002 595.273377295,21.431660000000008 588.4738772950001,20.448400000000007 581.676477295,19.4876 574.881477295,18.5497 568.0892772950001,17.635099999999994 561.3001772950001,16.744100000000003 554.514377295,15.877300000000005 547.732277295,15.035399999999996 540.954377295,14.218900000000005 534.1812772950001,13.428500000000014 527.413577295,12.664699999999996 520.652077295,11.928300000000007 513.897377295,11.219700000000017 507.150577295,10.539900000000003 500.411977295,9.889900000000011 493.682177295,9.270300000000006 486.96097729499996,8.682100000000005 480.24857729499996,8.126100000000008 473.544377295,7.603099999999998 466.847977295,7.113699999999994 460.158577295,6.658500000000004 453.47567729499997,6.237899999999996 446.798477295,5.852400000000003 440.126177295,5.502200000000016 433.45807729499995,5.188000000000017 426.793277295,4.910000000000011 420.130977295,4.6688000000000045 413.47027729499996,4.464500000000001 406.810777295,4.297300000000007 400.15237729499995,4.167100000000005 393.495077295,4.074100000000016 386.839477295,4.0184 380.18627729499997,4.0 373.536677295,4.0190000000000055 366.891977295,4.075800000000001 360.253177295,4.1708 353.621477295,4.304400000000015 346.997377295,4.477100000000007 340.38177729499995,4.689099999999996 333.774877295,4.9410000000000025 327.17697729500003,5.233100000000007 320.588477295,5.565900000000013 314.009777295,5.939900000000009 307.44147729499997,6.355500000000006 300.884077295,6.813200000000009 294.33837729500004,7.313400000000016 287.805377295,7.8566 281.285877295,8.443200000000004 274.780877295,9.073900000000009 268.29117729499995,9.749100000000013 261.817577295,10.469600000000014 255.360377295,11.2359 248.920077295,12.048600000000008 242.496877295,12.908300000000011 236.091277295,13.815700000000007 229.703877295,14.771299999999997 223.33567729499998,15.775599999999997 216.987777295,16.829000000000008 210.661477295,17.932000000000002 204.35847729499997,19.085000000000008 198.080377295,20.28840000000001 191.829077295,21.543080000000003 185.605877295,22.84953 179.412177295,24.208399999999997 173.24927729499998,25.620310000000003 167.11817729499998,27.085880000000003 161.020477295,28.605800000000002 154.958377295,30.180580000000006 148.934377295,31.810500000000005 142.951577295,33.495630000000006 137.013277295,35.23583000000001 131.123877295,37.03135 125.28817729499998,38.882549999999995 119.511577295,40.7894 113.799777295,42.75144 108.158677295,44.76778 102.59477729499999,46.837559999999996 97.114957295,48.960040000000006 91.726037295,51.13409 86.43441729499999,53.35813 81.24606729499999,55.63022000000001 76.16870729499999,57.94827000000001 71.216727295,60.307610000000004 66.410047295,62.699290000000005 61.770937295,65.11080000000001 57.320887295000006,67.52759 53.078227295000005,69.93646000000001 49.052787295,72.32792 45.245657295,74.69555 41.651827295,77.03542 38.262967294999996,79.34536 35.077747295,81.61985000000001 32.108717295000005,83.84208000000001 29.370407295,85.98981 26.869387295000003,88.04328000000001 24.601107295,89.98977000000001 22.553437295000002,91.82589 20.707117295,93.55935000000001 19.037567295000002,95.20326 17.521017295,96.77138000000001 16.136767295,98.27627000000001 14.867547295000001,99.72881000000001 13.699122295,101.13829000000001 12.619307295,102.51243000000001 11.619069295,103.85452000000001 10.693588295,105.1627 9.839922295000001,106.4324 9.055376295,107.65835 8.336674295,108.83608000000001 7.679724295,109.96270000000001 7.079767295,111.03707 6.532025295,112.059624 6.037186295,113.031963 5.597959295,113.95807 5.214347295,114.843587 4.885162795,115.694466 4.608965395,116.516405 4.384540395,117.31467400000001 4.211149795,118.09412800000001 4.088684535,118.859302 4.017788315,119.614536 4.0,120.364141 4.037840395,121.11252110000001 4.132125595,121.862712 4.281753195,122.615762 4.486649495,123.37213200000001 4.747783195,124.13172800000001 5.0670822950000005,124.893778 5.447383295,125.65661700000001 5.892368295,126.417348 6.406440295,127.171328 6.994431295,127.91144200000001 7.661270295,128.629963 8.412369295,129.32555200000002 9.253521295,129.998766 10.190709295,130.650871 11.229888295,131.28417000000002 12.376596295,131.90251 13.635280295000001,132.51196000000002 15.008187295,133.12185 16.493567295,133.74621000000002 18.087857295,134.40098 19.799427295,135.09019 21.640117295,135.81383 23.621747295000002,136.5705 25.755987295,137.35708 28.054927295,138.16869 30.533517295,138.99924000000001 33.214877295,139.8428 36.130547295,140.6982 39.314887295000005,141.56808 42.805207295,142.45579 46.638497295,143.36548 50.844247294999995,144.30217 55.429897295,145.27044 60.373757295000004,146.2629 65.626477295,147.26197000000002 71.120157295,148.24926 76.792937295,149.21086 82.61529729499999,150.14103 88.58525729499999,151.04022 94.700777295,151.90965 100.95425729499999,152.75053 107.330977295,153.564 113.80857729499999,154.35073 120.361877295,155.10903000000002 126.968777295,155.83719000000002 133.612177295,156.5346 140.280977295,157.20163000000002 146.970477295,157.83944 153.68047729499997,158.44918 160.411277295,159.03167000000002 167.16187729499998,159.58765 173.930977295,160.11784 180.71607729500002,160.62294 187.514077295,161.10349000000002 194.321777295,161.55953 201.136677295,161.99110000000002 207.956777295,162.39829 214.78087729499998,162.78125 221.608277295,163.1402 228.439177295,163.47538 235.273777295,163.78696000000002 242.11197729499997,164.07512 248.95347729499997,164.33999 255.79747729499996,164.58172000000002 262.642977295,164.80045 269.48857729499997,164.99629 276.332477295,165.16898 283.173077295,165.31793 290.008677295,165.44259 296.837577295,165.54239 303.657977295,165.61683 310.468377295,165.66541 317.266877295,165.68762 324.05207729499995,165.68256 330.823177295,165.64923 337.579877295,165.58662 344.322577295,165.49375 351.052077295,165.3696 357.769877295,165.21317 364.47817729499997,165.02346 371.179077295,164.80004 377.874077295,164.54267000000002 384.564277295,164.25111 391.250077295,163.92513000000002 397.93127729500003,163.56452000000002 404.607277295,163.16911 411.276577295,162.73875 417.937777295,162.27322 424.589777295,161.77217000000002 431.232177295,161.23518 437.865377295,160.6618 444.49067729499995,160.05148 451.10967729500004,159.40358 457.725277295,158.71732 464.340477295,157.99229 470.95937729499997,157.22930000000002 477.58567729500004,156.42931000000002 484.223277295,155.5932 490.876377295,154.72177 497.548977295,153.81576 504.245277295,152.87586000000002 510.969677295,151.90271 517.726777295,150.89773 524.5199772950001,149.86323000000002 531.3511772950001,148.80187 538.220577295,147.71668 545.1265772950001,146.61113 552.0652772950001,145.48912 559.0308772950001,144.35509000000002 566.015377295,143.21363 573.009777295,142.06825 580.006577295,140.92192 586.999377295,139.77738 593.983577295,138.6371 600.955977295,137.50327000000001 607.915077295,136.37782 614.860777295,135.2624 621.7940772950001,134.15821 628.7164772950001,133.06602 635.629077295,131.98658 642.5325772950001,130.92065000000002 649.427677295,129.869054 656.314877295,128.832624 663.1942772950001,127.81222700000001 670.065777295,126.80875 676.9293772950001,125.82309000000001 683.784677295,124.856121 690.631577295,123.90870000000001 697.469977295,122.981661 704.2998772950001,122.075818 711.1213772950001,121.19196670000001 717.934577295,120.3308877 724.739577295,119.49334400000001 731.536677295,118.680085 738.325977295,117.89185400000001 745.107577295,117.129394 751.8814772950001,116.39344600000001 758.647577295,115.68475000000001 765.4059772950001,115.004041 772.1564772950001,114.352051 778.898877295,113.72951900000001 785.633077295,113.137248 792.3585772950001,112.57606200000001 799.074977295,112.046772 805.7817772950001,111.550184 812.478377295,111.087089 819.164077295,110.65826 825.838177295,110.26448 832.4995772950001,109.90681000000001 839.147077295,109.58663 845.778777295,109.30527000000001 852.392377295,109.06401000000001 858.9851772950001,108.86408 865.554177295,108.70664000000001 872.095977295,108.59279000000001 878.6067772950001,108.52456000000001 885.083177295,108.50449 891.522177295,108.53496 897.9209772950001,108.61815 904.277277295,108.7561 910.589177295,108.95064 916.8547772950001,109.20364000000001 923.0719772950001,109.51705000000001 929.2388772950001,109.89269 935.3533772950001,110.33216 941.4136772950001,110.836917 947.417977295,111.408102 953.361777295,112.045422 959.234077295,112.747 965.0178772950001,113.50957700000001 970.6921772950001,114.32838600000001 976.232477295,115.197041 981.6037772950001,116.106205 986.7622772950001,117.04304 991.6653772950001,117.992895 996.2762772950001,118.941513 1000.5620772950001,119.874505 1004.002977295,120.6611" stroke="black" stroke-width="2.0" /></svg>