<?xml version="1.0" encoding="utf-8" ?>
<svg baseProfile="full" height="148.04017" version="1.1" width="1011.995156777" xmlns="http://www.w3.org/2000/svg" xmlns:ev="http://www.w3.org/2001/xml-events" xmlns:xlink="http://www.w3.org/1999/xlink"><defs /><polygon fill="none" points="1003.995156777,97.14765999999999 1000.543656777,96.73256369999999 996.222956777,96.20916679999999 991.509256777,95.63341999999999 986.398056777,95.00447999999999 980.901956777,94.32488199999999 975.042856777,93.597906 968.866156777,92.82878699999999 962.4396567770001,92.02432199999998 955.8319567770001,91.19078499999999 949.092156777,90.33201399999999 942.247356777,89.45044699999998 935.320856777,88.54897399999999 928.336156777,87.63062599999999 921.315456777,86.69798999999999 914.275456777,85.75192999999999 907.2250567770001,84.79199999999999 900.164156777,83.81669999999998 893.086556777,82.82535999999999 885.989956777,81.81929999999998 878.878256777,80.80084999999998 871.761956777,79.77268999999998 864.6508567770001,78.73513999999999 857.5474567770001,77.68686 850.445956777,76.62541999999999 843.335256777,75.54935999999998 836.207256777,74.45951 829.0607567769999,73.35779999999998 821.9007567770001,72.24679999999998 814.7341567770001,71.12780999999998 807.564056777,70.00115 800.389156777,68.86649999999999 793.205256777,67.72366999999998 786.009656777,66.57334999999999 778.802856777,65.41675999999998 771.5887567770001,64.25537999999999 764.371056777,63.08985999999999 757.151056777,61.92017999999999 749.927156777,60.74589999999999 742.695756777,59.56693999999999 735.4546567770001,58.384019999999985 728.2042567770001,57.19828999999999 720.947156777,56.011079999999986 713.6872567770001,54.82329999999999 706.428756777,53.635769999999994 699.1757567770001,52.44939999999999 691.931656777,51.26551999999999 684.6969567770001,50.085399999999986 677.469656777,48.90987999999999 670.245456777,47.73890999999999 663.0210567770001,46.57160999999999 655.7960567770001,45.407409999999985 648.573056777,44.246329999999986 641.356056777,43.08946999999999 634.1484567770001,41.93826999999999 626.9524567770001,40.79397999999998 619.7693567770001,39.65768999999999 612.599356777,38.530309999999986 605.441856777,37.41256999999999 598.2951567770001,36.30503999999999 591.157256777,35.20789999999998 584.026356777,34.12127999999998 576.901256777,33.04535 569.780956777,31.980349999999987 562.664756777,30.926579999999987 555.5525567770001,29.884379999999993 548.444456777,28.85414999999999 541.340956777,27.836389999999994 534.242256777,26.831559999999982 527.1490567769999,25.840179999999975 520.061856777,24.862729999999985 512.981256777,23.89969999999998 505.90785677699995,22.95158999999998 498.84235677699996,22.018899999999988 491.785456777,21.102279999999993 484.737356777,20.202439999999996 477.69855677699996,19.320069999999987 470.668956777,18.45581 463.648456777,17.610269999999986 456.6366567769999,16.78404999999998 449.63315677699995,15.977699999999984 442.63745677699995,15.19171999999999 435.649156777,14.426609999999982 428.668156777,13.68289 421.694856777,12.961079999999995 414.729656777,12.261759999999981 407.77335677699995,11.58547999999999 400.82695677699996,10.932839999999985 393.891456777,10.304569999999984 386.96805677699996,9.701499999999996 380.057156777,9.124459999999985 373.15895677699996,8.574189999999987 366.273456777,8.051439999999985 359.4002567769999,7.5568799999999925 352.53865677699997,7.091189999999983 345.687656777,6.65500999999999 338.84685677699997,6.248989999999992 332.016456777,5.8738099999999775 325.197756777,5.530169999999998 318.392356777,5.2187999999999874 311.60275677699997,4.940389999999994 304.832156777,4.695599999999985 298.084156777,4.485199999999992 291.36185677699996,4.310639999999978 284.665856777,4.173549999999992 277.994456777,4.075479999999985 271.344256777,4.017549999999986 264.713156777,4.0 258.10235677699995,4.022909999999982 251.516556777,4.086319999999986 244.962756777,4.191069999999982 238.447256777,4.339149999999989 231.974456777,4.532449999999983 225.546356777,4.772739999999985 219.164056777,5.061789999999988 212.82775677700002,5.401379999999989 206.537256777,5.793209999999988 200.291856777,6.238929999999996 194.09125677699998,6.739879999999999 187.93645677700002,7.297039999999981 181.83005677699998,7.911149999999978 175.775556777,8.582679999999982 169.777756777,9.312479999999994 163.83975677700002,10.101959999999977 157.963156777,10.952519999999978 152.147756777,11.865659999999991 146.39275677700002,12.842569999999995 140.698756777,13.883589999999998 135.068556777,14.988439999999983 129.50715677700003,16.15622999999998 124.021256777,17.385609999999986 118.61865677700001,18.676069999999996 113.30645677700001,20.027119999999982 108.090856777,21.437909999999988 102.977056777,22.90723 97.96975677700001,24.433749999999975 93.073936777,26.01605999999998 88.294606777,27.65215999999998 83.636456777,29.339479999999995 79.10364677700001,31.074939999999984 74.700146777,32.855209999999985 70.43204677700001,34.676599999999986 66.306956777,36.53407999999999 62.332586777,38.42136999999999 58.515786776999995,40.33133999999999 54.861756777,42.25642999999999 51.373766777,44.18915999999999 48.054436777,46.12234999999999 44.905596777,48.04872999999999 41.927226776999994,49.96123999999999 39.117226777,51.85340999999999 36.471746777,53.719709999999985 33.986816777,55.555159999999994 31.657976777,57.35504999999999 29.479696776999997,59.11529999999998 27.445326777,60.832729999999984 25.547326777,62.50513999999998 23.777536776999998,64.13128999999998 22.128066776999997,65.71112 20.592336776999996,67.24591999999998 19.163706777,68.73725999999999 17.835346776999998,70.18665999999999 16.600076776999998,71.59512999999998 15.451336777,72.96376999999998 14.384546777,74.29500999999999 13.395362776999999,75.59156999999999 12.478697777,76.85524999999998 11.629275777,78.08721999999999 10.842173777,79.28859999999999 10.112567776999999,80.45997999999999 9.436058777,81.60167999999999 8.808724777,82.71399 8.227550777000001,83.79763999999999 7.690341777,84.85410999999999 7.193033777,85.88390999999999 6.730850777000001,86.88660999999999 6.302676777,87.86339699999999 5.906064777,88.81521199999999 5.538929777,89.74268799999999 5.206021777,90.64900599999999 4.907972277,91.53604299999999 4.646338977,92.40623899999999 4.427121877,93.26083899999999 4.253909177,94.09757199999999 4.125938677,94.91478199999999 4.041658657,95.71453599999998 4.0,96.50154089999998 4.001077609,97.2824819 4.046547867,98.06408839999999 4.139713077,98.85024099999998 4.285339377,99.64195099999999 4.489017177,100.43692999999999 4.754530777,101.22969299999998 5.077993777,102.01631199999999 5.456577777,102.79489499999998 5.892692777000001,103.562362 6.3865097770000006,104.31595199999998 6.945240777,105.04767999999999 7.573889777,105.750509 8.270953776999999,106.42173499999998 9.035059777,107.05871199999999 9.866778777,107.65915999999999 10.764854777,108.22536999999998 11.726680777,108.76094999999998 12.750130777,109.27033999999999 13.836018777000001,109.75948999999999 14.985316777000001,110.23582999999999 16.200086777,110.70686999999998 17.482516777,111.18082999999999 18.836626777,111.66237999999998 20.267836777,112.15399999999998 21.782656777,112.65632 23.388666776999997,113.16915999999999 25.094626777,113.69227999999998 26.910656776999996,114.22529999999999 28.847926776999998,114.76754 30.918476777,115.31796999999999 33.135546777,115.87574999999998 35.514296777,116.44018999999999 38.071676777,117.01047999999999 40.825886776999994,117.58559999999999 43.796976777,118.16471999999999 47.006536777,118.7473 50.476076777,119.33314999999999 54.224476777,119.92256999999998 58.266166777,120.51565 62.609186777,121.10874999999999 67.25128677699999,121.69685999999999 72.17955677700002,122.27508999999999 77.374666777,122.83981999999999 82.820506777,123.38982999999999 88.50877677700001,123.92423 94.428046777,124.44169999999998 100.560366777,124.94163999999998 106.882056777,125.42434999999999 113.36595677700001,125.88979999999998 119.984456777,126.33729 126.712556777,126.76701999999999 133.531156777,127.18011999999999 140.427156777,127.57756999999998 147.389756777,127.96017999999998 154.410356777,128.32904 161.482456777,128.68556999999998 168.600856777,129.03141999999997 175.760356777,129.36838 182.955756777,129.69832 190.181956777,130.02263 197.433056777,130.34229 204.703056777,130.65827 211.985356777,130.97119999999998 219.275056777,131.28083999999998 226.570656777,131.58686 233.874056777,131.88916 241.188056777,132.18847 248.51265677700002,132.48587999999998 255.84335677700003,132.78234999999998 263.172656777,133.07792999999998 270.495056777,133.37127999999998 277.81025677699995,133.66111 285.12295677699996,133.94653999999997 292.43935677699994,134.22824 299.762156777,134.50727999999998 307.089556777,134.78458999999998 314.416856777,135.06019999999998 321.738956777,135.33319999999998 329.05215677699994,135.60271 336.354156777,135.86786999999998 343.643756777,136.12790999999999 350.921256777,136.38209999999998 358.18805677699993,136.62977999999998 365.44635677699995,136.87057 372.69815677699995,137.10426999999999 379.945056777,137.33069 387.18835677699997,137.54960999999997 394.42885677699996,137.7608 401.666956777,137.96402 408.902556777,138.159 416.135656777,138.34553999999997 423.36575677699994,138.52344 430.592756777,138.69251 437.816456777,138.85257 445.03675677699994,139.00343999999998 452.253456777,139.14493 459.46665677699997,139.27686 466.676256777,139.39902999999998 473.882356777,139.51121999999998 481.08485677699997,139.61321999999998 488.283856777,139.70480999999998 495.47955677699997,139.78579 502.67195677699993,139.85595 509.86125677699994,139.91507 517.047656777,139.963 524.231056777,139.99961 531.411756777,140.02476 538.589756777,140.03832999999997 545.765056777,140.04017 552.937756777,140.03015 560.107556777,140.00813 567.274556777,139.97388999999998 574.4383567770001,139.92721999999998 581.5982567770001,139.86787999999999 588.753356777,139.79566999999997 595.902756777,139.71036999999998 603.044956777,139.61178999999998 610.1784567770001,139.4997 617.301856777,139.37351999999998 624.4137567770001,139.23252 631.5135567770001,139.07601 638.600756777,138.90330999999998 645.6751567770001,138.7137 652.737256777,138.5065 659.7875567770001,138.28103 666.8268567770001,138.03673999999998 673.855856777,137.77313999999998 680.8749567770001,137.48976 687.8845567770001,137.18615 694.884156777,136.86193999999998 701.8722567770001,136.51682 708.8463567770001,136.1505 715.803856777,135.76214 722.744356777,135.35044 729.669256777,134.91401 736.582156777,134.45162 743.487056777,133.96292 750.386856777,133.44774999999998 757.2834567770001,132.90601999999998 764.177656777,132.3378 771.0691567770001,131.74345 777.956156777,131.12344 784.8358567770001,130.47823 791.705056777,129.80748 798.561456777,129.1104 805.4044567770001,128.3861 812.2345567770001,127.63368999999999 819.054156777,126.85228 825.867356777,126.04074999999999 832.6805567770001,125.19769 839.501056777,124.32270999999999 846.333256777,123.41671999999998 853.178056777,122.48113999999998 860.032456777,121.51775999999998 866.892756777,120.52754999999999 873.758356777,119.51064999999998 880.632656777,118.46662999999998 887.522256777,117.39529999999999 894.431756777,116.29827999999999 901.359856777,115.17832999999999 908.2993567770001,114.03918999999999 915.2385567770001,112.88402999999998 922.166556777,111.71499999999999 929.074856777,110.53394999999999 935.956256777,109.34287999999998 942.799056777,108.14611999999998 949.580756777,106.95021899999999 956.2699567770001,105.763364 962.8256567770001,104.59430299999998 969.191456777,103.45309499999999 975.3025567770001,102.35146099999999 981.101156777,101.30177099999999 986.546956777,100.315891 991.615656777,99.39878199999998 996.2907567770001,98.55105899999998 1000.574656777,97.77171469999999 1003.995156777,97.14765999999999" stroke="black" stroke-width="2.0" /></svg>