<?xml version="1.0" encoding="utf-8" ?>
<svg baseProfile="full" height="135.12596" version="1.1" width="1012.03643528" xmlns="http://www.w3.org/2000/svg" xmlns:ev="http://www.w3.org/2001/xml-events" xmlns:xlink="http://www.w3.org/1999/xlink"><defs /><polygon fill="none" points="1004.03643528,94.78224 1000.7663352799999,94.6303149 996.6579352800001,94.3546996 992.1495352799999,93.96575010000001 987.2213352800001,93.474044 981.88973528,92.897494 976.2086352800001,92.255927 970.25193528,91.579946 964.08973528,90.89464100000001 957.7865352800001,90.208938 951.39463528,89.52857 944.94403528,88.856063 938.44673528,88.189017 931.9124352800001,87.523183 925.3514352799999,86.854137 918.77433528,86.177436 912.1911352799999,85.49067600000001 905.60933528,84.793682 899.0338352800001,84.08614 892.46623528,83.36743 885.90513528,82.63665 879.34713528,81.89308 872.78833528,81.1367 866.22633528,80.36767 859.65973528,79.58624 853.0883352799999,78.79283000000001 846.51323528,77.98799 839.93633528,77.1722 833.35923528,76.34572 826.7829352800001,75.50874999999999 820.2078352799999,74.66138000000001 813.63343528,73.80363 807.05883528,72.93546 800.48233528,72.05678 793.90243528,71.16782 787.31803528,70.26894 780.72863528,69.36057 774.13433528,68.44324 767.53593528,67.51755 760.93503528,66.58423 754.33343528,65.64391 747.73303528,64.69681 741.1352352800001,63.74297 734.54053528,62.78232 727.9487352799999,61.814730000000004 721.3591352799999,60.839920000000006 714.77013528,59.857530000000004 708.1794352799999,58.86716 701.5846352799999,57.86895 694.9835352800001,56.86339 688.37463528,55.85105 681.7569352799999,54.83261 675.13013528,53.80883 668.49453528,52.78061 661.85113528,51.74891 655.2013352800001,50.71463 648.54703528,49.67824 641.88973528,48.64009 635.2308352800001,47.600519999999996 628.57143528,46.55984 621.91263528,45.518319999999996 615.25513528,44.47621 608.59953528,43.43371 601.94603528,42.39119 595.29513528,41.34919 588.64703528,40.308279999999996 582.00213528,39.269000000000005 575.36093528,38.23194 568.7236352799999,37.19766 562.09073528,36.16673 555.4628352799999,35.13973 548.8402352799999,34.11728000000001 542.22333528,33.100030000000004 535.61223528,32.08861 529.00693528,31.083600000000004 522.40743528,30.085570000000004 515.81343528,29.09508000000001 509.22453528,28.11264 502.64013528,27.138740000000013 496.05983527999996,26.17383000000001 489.48333528,25.218360000000004 482.91053528,24.27279999999999 476.34163527999993,23.337660000000014 469.77703528,22.413479999999993 463.21733528,21.500829999999993 456.66333527999996,20.60029 450.11603528,19.712559999999996 443.57643527999994,18.83868000000001 437.04523528,17.97967 430.52283528,17.13651 424.00953527999997,16.310159999999996 417.50533527999994,15.501499999999993 411.00983527999995,14.71141 404.52283528,13.94071000000001 398.04363528,13.190180000000012 391.57203527999997,12.460609999999988 385.10783527999996,11.75278999999999 378.65113528,11.067550000000011 372.20233527999994,10.405690000000007 365.76193527999993,9.768079999999998 359.33093528,9.155530000000013 352.91003528,8.569119999999998 346.50073527999996,8.010360000000006 340.10433527999993,7.480860000000007 333.72243527999996,6.982140000000001 327.35693528,6.515720000000002 321.00993528,6.08305 314.68353528,5.68553 308.38003527999996,5.324730000000002 302.10143528,5.0027900000000045 295.84873528,4.721860000000007 289.62213527999995,4.483940000000004 283.42113528,4.2909700000000015 277.24423528,4.1448099999999926 271.08943528,4.047309999999996 264.95423528,4.0 258.83663528,4.00385 252.73573528000003,4.0598600000000005 246.65083528000002,4.169020000000003 240.58243528,4.332319999999996 234.53153528,4.5507200000000125 228.49963528,4.825110000000009 222.48903528,5.156589999999994 216.50113528,5.5463299999999975 210.53713528000003,5.9954600000000084 204.59763528,6.505120000000005 198.68253528,7.076490000000007 192.79143528,7.710750000000004 186.92373528000002,8.408899999999988 181.07923528,9.171690000000012 175.25793528,9.99991 169.45993528,10.894310000000004 163.68573528,11.855620000000002 157.93623528,12.88449 152.21223528000002,13.98133 146.51453528,15.146410000000003 140.84383528,16.380070000000003 135.20053528000003,17.682689999999994 129.58493528000002,19.05471 123.99733528,20.496650000000002 118.44013528,22.008650000000003 112.91843528000001,23.58999 107.43973528000001,25.2389 102.01406528,26.95245 96.65354528,28.727310000000003 91.37019528,30.56219 86.17295528000001,32.45665 81.06752528,34.41075 76.05678528,36.42506 71.14294528,38.500460000000004 66.33490528,40.63521 61.64999528,42.82265 57.11087528,45.051410000000004 52.74207528,47.30668 48.56680528,49.57423 44.599645280000004,51.84335 40.84538528,54.10622 37.30167528,56.3575 33.96365528,58.593360000000004 30.840935279999997,60.80205 27.956985279999998,62.957719999999995 25.330835280000002,65.0313 22.96632528,67.00035 20.85322528,68.85391 18.97164528,70.59531 17.29290528,72.23725 15.788285279999998,73.79442 14.43278528,75.28052 13.205707279999999,76.7074 12.09013128,78.08511 11.071627280000001,79.42126 10.14083628,80.71717 9.29219028,81.96932 8.52108328,83.17275000000001 7.822499280000001,84.32319 7.19066628,85.418221 6.61925828,86.45746 6.10213328,87.442206 5.63978628,88.37450700000001 5.23571928,89.258625 4.89024688,90.100662 4.60233968,90.906987 4.37075128,91.683601 4.19457238,92.435987 4.07352452,93.16915300000001 4.00815139,93.8877567 4.0,94.5962713 4.05185522,95.2991853 4.1663600800000005,96.00036 4.34231438,96.700799 4.57891948,97.40030900000001 4.87667098,98.097926 5.23720728,98.79172700000001 5.66320628,99.478512 6.1582732799999995,100.153299 6.72672428,100.808577 7.37319828,101.433576 8.10354228,102.02121100000001 8.92559128,102.570901 9.84840728,103.082936 10.882324279999999,103.558618 12.038897279999999,104.00096500000001 13.330491279999999,104.41594 14.76899528,104.81454 16.36265528,105.21636000000001 18.11512528,105.64788 20.04310528,106.11722 22.16575528,106.62398 24.495975279999996,107.16362000000001 27.038525279999998,107.72648 29.79276528,108.29815 32.76640528,108.86226 35.99558528,109.40981 39.53101528,109.94219 43.433045279999995,110.46291000000001 47.76767528,110.97756 52.58820528,111.49510000000001 57.88810528,112.02445 63.57798528,112.55543 69.51575528,113.07041000000001 75.56575528,113.55642 81.65880528,114.00901 87.80514528,114.43172 94.03535528,114.8309 100.36973528,115.21222 106.81513528,115.58080000000001 113.36113528,115.9413 119.97973528,116.2962 126.63963528000001,116.6446 133.31593528,116.98570000000001 139.99193528,117.31923 146.65983528,117.64545 153.32063528,117.96502000000001 159.98023528,118.27874 166.64413528,118.58726 173.31543528000003,118.89115000000001 179.99603528,119.1909 186.68533528,119.48687000000001 193.38143528000003,119.77938 200.08073528,120.0683 206.78033528,120.35328 213.47813528,120.63401 220.17243528,120.9102 226.86283528,121.1816 233.54923528,121.44801 240.23253528,121.70925 246.91373528,121.96525 253.59373528,122.21595 260.27303527999993,122.46127 266.95203528,122.70114000000001 273.63073528,122.93544 280.30893527999996,123.16409 286.98633527999993,123.38695 293.66223527999995,123.60387 300.33633527999996,123.81467 307.00863528,124.0192 313.67913527999997,124.21729 320.34813527999995,124.4088 327.01593527999995,124.59357 333.68323528,124.77148 340.35083528,124.94251 347.01923528,125.10679 353.68893527999995,125.26443 360.36023528,125.41554 367.03293528,125.56024 373.70713528,125.69862 380.38243528,125.83078 387.05823528,125.95681 393.73393527999997,126.07667000000001 400.40913528,126.19026 407.08353528,126.29751 413.75693528,126.39833 420.42933528,126.49265 427.10093528,126.58039 433.77193528,126.66149 440.44303527999995,126.73589 447.11443528,126.80363 453.78653527999995,126.86478 460.45953528,126.9194 467.13343527999996,126.96754 473.80813528,127.00927999999999 480.48343528,127.04466 487.15873528,127.07374 493.83373528,127.09654 500.50763528,127.11294000000001 507.18023528000003,127.1228 513.8511352799999,127.12595999999999 520.52013528,127.12229 527.18743528,127.11164 533.8528352799999,127.09385 540.5168352799999,127.06880000000001 547.1797352799999,127.03635 553.8418352799999,126.99647 560.50333528,126.94912 567.16453528,126.89426 573.82543528,126.83186 580.48583528,126.7619 587.14573528,126.68433 593.8048352799999,126.59913 600.46263528,126.50622 607.11903528,126.40543 613.77343528,126.29658 620.4256352799999,126.17949 627.07543528,126.05396999999999 633.72253528,125.91986 640.3668352799999,125.77696 647.00823528,125.62511 653.64643528,125.46405 660.28133528,125.29351 666.9129352799999,125.11318 673.54103528,124.92278999999999 680.16533528,124.72203999999999 686.78563528,124.51065 693.40183528,124.28834 700.01373528,124.05483000000001 706.6209352799999,123.80978 713.2236352799999,123.55286000000001 719.82173528,123.28374 726.41533528,123.00208 733.00493528,122.70752999999999 739.59073528,122.39973 746.17333528,122.07836 752.75313528,121.74321 759.3305352799999,121.39413 765.90553528,121.03098 772.47803528,120.65362 779.04803528,120.26193 785.61483528,119.85578 792.17803528,119.43506 798.73703528,118.99953 805.2916352799999,118.54896000000001 811.84163528,118.08307 818.38743528,117.6016 824.92923528,117.10426000000001 831.46763528,116.59072 838.00343528,116.06074 844.53623528,115.51411 851.06563528,114.95069000000001 857.5901352799999,114.37040999999999 864.10793528,113.77326000000001 870.61643528,113.15923000000001 877.1135352800001,112.52792 883.5984352799999,111.87875 890.07163528,111.21102 896.5349352799999,110.52385 902.99153528,109.81627 909.44333528,109.08769000000001 915.8871352799999,108.33834 922.31323528,107.56925 928.7060352799999,106.78232 935.0448352799999,105.97886 941.30873528,105.15527 947.4814352799999,104.306941 953.5515352799999,103.42950400000001 959.51173528,102.519367 965.35613528,101.575643 971.07753528,100.598852 976.66803528,99.590613 982.10823528,98.569753 987.3265352799999,97.581716 992.21723528,96.673108 996.70583528,95.883756 1000.79013528,95.2348937 1004.03643528,94.78224" stroke="black" stroke-width="2.0" /></svg>