<?xml version="1.0" encoding="utf-8" ?>
<svg baseProfile="full" height="135.80468" version="1.1" width="1011.95080163" xmlns="http://www.w3.org/2000/svg" xmlns:ev="http://www.w3.org/2001/xml-events" xmlns:xlink="http://www.w3.org/1999/xlink"><defs /><polygon fill="none" points="1003.95080163,99.86882 1000.87300163,99.6213399 997.07770163,99.2308382 992.95760163,98.722634 988.45590163,98.10658 983.55720163,97.403253 978.29300163,96.629311 972.7165016299999,95.809443 966.8762016300001,94.970207 960.81180163,94.123351 954.56100163,93.276009 948.15100163,92.433225 941.59390163,91.594986 934.9006016300001,90.756896 928.0900016300001,89.914245 921.18940163,89.0625 914.23340163,88.19973 907.25350163,87.32786 900.2720016300001,86.44821 893.30100163,85.56087 886.34170163,84.66466 879.38780163,83.75826 872.43280163,82.84106 865.4723016300001,81.91271 858.50430163,80.97315 851.5288016300001,80.02262 844.54810163,79.0616 837.5647016300001,78.09053 830.58070163,77.10973 823.59700163,76.11944 816.61380163,75.11976 809.63050163,74.11066 802.64560163,73.09208 795.65750163,72.06413 788.66500163,71.027 781.66730163,69.98093 774.66390163,68.92621 767.6548016300001,67.86321000000001 760.6404016299999,66.79235 753.62120163,65.71402 746.59770163,64.62859 739.57020163,63.53639 732.53870163,62.43771 725.50300163,61.33283 718.46300163,60.221979999999995 711.41790163,59.10538999999999 704.36710163,57.98336 697.31030163,56.85626 690.24700163,55.72448 683.1771016299999,54.58843 676.10060163,53.44855 669.01760163,52.30533 661.92860163,51.15926 654.8341016300001,50.01079 647.73490163,48.8604 640.63230163,47.70861 633.52760163,46.556000000000004 626.42270163,45.403189999999995 619.3197016299999,44.250859999999996 612.22080163,43.09974 605.12840163,41.9508 598.04440163,40.80504 590.97020163,39.663399999999996 583.90690163,38.52671 576.85480163,37.395739999999996 569.81410163,36.27116999999999 562.78430163,35.1536 555.76470163,34.04353999999999 548.7546016299999,32.94145999999999 541.75350163,31.847849999999994 534.76110163,30.763239999999996 527.77710163,29.688149999999993 520.80160163,28.62316 513.83480163,27.568839999999994 506.87690163,26.52583 499.92830163,25.494839999999996 492.98950163,24.476640000000003 486.06090163,23.471940000000004 479.14300163,22.481489999999994 472.23630163,21.506 465.34130163,20.546179999999993 458.45850163,19.602769999999992 451.58850163000005,18.67667 444.73180163,17.768839999999997 437.88890163,16.880250000000004 431.06030162999997,16.011799999999994 424.24640163,15.164410000000004 417.44780163,14.33896 410.66480163,13.536299999999997 403.89790163,12.75743 397.14750163,12.0034 390.41440163000004,11.275239999999997 383.69880163,10.573970000000003 377.00160163000004,9.900559999999999 370.32310163,9.255979999999994 363.66410163,8.64116 357.02550163,8.057380000000009 350.40850163,7.506159999999994 343.81520163,6.9890199999999965 337.24810163,6.507409999999993 330.71040163,6.062749999999994 324.20540163,5.6563699999999955 317.73720163,5.289590000000004 311.30940162999997,4.964470000000006 304.92430163,4.683199999999999 298.58280163,4.447800000000001 292.28430163,4.260100000000008 286.02710163,4.12182 279.80830162999996,4.034639999999996 273.62440163,4.0 267.47180163,4.018689999999992 261.34770162999996,4.091399999999993 255.25020163000002,4.21893 249.17770163,4.402069999999995 243.12920163,4.641670000000005 237.10440162999998,4.93853 231.10340163,5.293369999999996 225.12680163000002,5.706740000000011 219.17540162999998,6.17916000000001 213.25000162999999,6.711109999999991 207.35180163,7.303030000000007 201.48230163,7.955259999999996 195.64290163,8.66816 189.83480163,9.442220000000006 184.05870163,10.277990000000003 178.31430163000002,11.176090000000002 172.60110163000002,12.13730000000001 166.91760163,13.16252 161.26240163,14.252480000000006 155.63430163,15.407330000000002 150.03380163,16.626989999999992 144.46200163,17.91113999999999 138.92130163,19.25918 133.41520163,20.67018999999999 127.94810163000001,22.143299999999996 122.52540163,23.67747 117.15350163000001,25.27121000000001 111.83910163,26.922480000000007 106.58950163,28.62872 101.41254163,30.387410000000003 96.31718163,32.19643000000001 91.31278163,34.05297 86.40866163,35.953509999999994 81.61371163,37.89388 76.93670163,39.869780000000006 72.38814163,41.87689 67.97950163,43.90953 63.72189163,45.96078 59.62492163,48.022980000000004 55.69642163,50.088339999999995 51.94372163,52.149139999999996 48.37269163,54.19725 44.98657163,56.22476 41.78554163,58.2245 38.76708163,60.190580000000004 35.92999163,62.118219999999994 33.275401630000005,64.00115 30.803231630000003,65.83232000000001 28.510361630000002,67.60558 26.39027163,69.31659 24.433761630000003,70.96318 22.630671630000002,72.54633 20.968981630000002,74.06977 19.435681629999998,75.53838999999999 18.01818163,76.95738 16.70489163,78.33176 15.485461630000001,79.66617 14.350751630000001,80.96481 13.29323663,82.23095 12.307838630000001,83.46567 11.39108963,84.66832 10.540169630000001,85.83746 9.75235763,86.97144 9.024755630000001,88.06883 8.35419663,89.12866 7.73726063,90.150498 7.17038563,91.134483 6.65193063,92.082115 6.18281463,92.997167 5.76279263,93.88407 5.390788629999999,94.747284 5.06539763,95.591061 4.78518333,96.419364 4.54884603,97.235861 4.35531673,98.043957 4.20381243,98.846853 4.09387013,99.6476012 4.02548105,100.4485749 4.0,101.246577 4.01965247,102.035803 4.08704003,102.81088199999999 4.20524153,103.566697 4.37794663,104.298186 4.60963013,105.000142 4.90578853,105.666986 5.27327163,106.29249 5.71877863,106.871645 6.243036630000001,107.407089 6.84584763,107.903007 7.527694629999999,108.36328 8.289509630000001,108.791718 9.132320629999999,109.192331 10.05666163,109.569676 11.06152263,109.92932 12.142487630000002,110.27847 13.28997363,110.62607 14.50183163,110.9756 15.783371630000001,111.326 17.13990163,111.67591999999999 18.57645163,112.0238 20.09770163,112.36806 21.708181630000002,112.70737 23.413181630000004,113.04103 25.22054163,113.36958 27.14407163,113.69539 29.203381630000003,114.02116 31.419141630000002,114.34756 33.81613163,114.67522 36.42466163,115.00489999999999 39.281561630000006,115.3376 42.43001163,115.67453 45.91531163,116.01703 49.77445163,116.36574 54.03121163,116.71766 58.68530163,117.06732 63.70315163,117.40872 69.02853163,117.73752999999999 74.61555163,118.05352 80.45377163,118.35858 86.53943163,118.65338 92.86066163,118.93898 99.39554163,119.21701999999999 106.11110163,119.48978 112.96630163,119.7583 119.92070163,120.02197 126.93880163,120.28058 133.99400162999999,120.53448 141.07090163,120.78453 148.16460163,121.03157 155.27380163,121.2758 162.39700163,121.51733 169.53230163,121.75623 176.67770163,121.99259 183.83060163000002,122.22648000000001 190.98850163,122.45785000000001 198.14910163,122.68655 205.31010163,122.91244 212.46990163,123.13539 219.62670163,123.35529 226.77940163,123.57203 233.92700163,123.78537 241.06860163,123.99489 248.20420163,124.2002 255.33370163,124.40089 262.45770163,124.59658999999999 269.57720163,124.78692 276.69320163,124.97158 283.80720163,125.15048999999999 290.92030163,125.3237 298.03320163,125.49122 305.14650163,125.65308 312.26030163,125.80929 319.37430163000005,125.95984 326.48840163,126.10472 333.60170163000004,126.24387999999999 340.71410163,126.37724 347.82530163,126.50474 354.93530162999997,126.62631999999999 362.04440163000004,126.74190999999999 369.15290163,126.85147 376.26140162999997,126.95494 383.37060162999995,127.05235 390.48110163,127.14377 397.59290163,127.22928 404.70610163,127.30893999999999 411.82040163,127.38282 418.93530162999997,127.45098999999999 426.05010163000003,127.5135 433.16370163,127.57034999999999 440.27540163000003,127.62141 447.38460162999996,127.66653 454.49120163000003,127.70555 461.59520163,127.73834 468.69710163,127.76476 475.79760163000003,127.78465 482.89780163,127.79791 489.99890163,127.80454 497.10160163,127.80467999999999 504.20650163,127.79843 511.31340163,127.7859 518.4221016299999,127.76721 525.53170163,127.74248 532.64110163,127.71182 539.74880163,127.67525 546.85350163,127.63257 553.95410163,127.58354 561.0502016300001,127.52792 568.14180163,127.46548 575.2292016299999,127.39597 582.31330163,127.31916 589.39540163,127.2348 596.47680163,127.14278 603.55820163,127.0431 610.6399016299999,126.93572 617.7214016300001,126.82063 624.80160163,126.69785 631.87880163,126.56739 638.9507016299999,126.42929 646.01460163,126.28329 653.0684016299999,126.12883 660.11080163,125.96527 667.14160163,125.792 674.16140163,125.60836 681.17170163,125.4137 688.1746016300001,125.20732 695.17330163,124.98875 702.17030163,124.75794 709.16720163,124.51491 716.16470163,124.25971 723.1626016299999,123.99239 730.15960163,123.71307999999999 737.1538016300001,123.42193 744.14220163,123.11887 751.12270163,122.80351 758.09420163,122.47543999999999 765.05630163,122.13417 772.01010163,121.77921 778.95710163,121.40998 785.90020163,121.02593 792.84200163,120.62695 799.78420163,120.2131 806.7274016299999,119.78450000000001 813.67100163,119.34133 820.6133016299999,118.88388 827.55130163,118.41243 834.48210163,117.92679 841.40300163,117.42653 848.31260163,116.91116 855.21050163,116.38014 862.09700163,115.83287 868.97350163,115.26885 875.84120163,114.68802 882.70110163,114.09038 889.5535016299999,113.47597999999999 896.3985016299999,112.84488999999999 903.23510163,112.19723 910.0581016299999,111.53336999999999 916.85480163,110.85448 923.60540163,110.16257 930.28450163,109.460294 936.8639016300001,108.747466 943.31950163,108.021243 949.6326016300001,107.279066 955.79060163,106.518841 961.78190163,105.740193 967.58770163,104.945459 973.1842016300001,104.138777 978.5475016299999,103.329283 983.64850163,102.546905 988.4488016299999,101.82321999999999 992.91810163,101.180231 997.05040163,100.6320186 1000.86790163,100.1828385 1003.95080163,99.86882" stroke="black" stroke-width="2.0" /></svg>