<?xml version="1.0" encoding="utf-8" ?>
<svg baseProfile="full" height="138.33101000000002" version="1.1" width="1011.9370194" xmlns="http://www.w3.org/2000/svg" xmlns:ev="http://www.w3.org/2001/xml-events" xmlns:xlink="http://www.w3.org/1999/xlink"><defs /><polygon fill="none" points="1003.9370194,109.85650000000001 1000.7981194000001,109.45961090000002 996.8936194,108.88130900000002 992.6372194,108.16523500000001 987.9994194000001,107.320237 983.0000194,106.37107400000001 977.6996194000001,105.35002300000001 972.1618194,104.29900500000001 966.4216194,103.25084100000001 960.4989194,102.21188900000001 954.4122194,101.18351500000001 948.1758194000001,100.16514700000002 941.7996194000001,99.15382000000001 935.2966194,98.14547000000002 928.6859194,97.13594 921.9940194000001,96.12123000000001 915.2522194000001,95.10037000000001 908.4881194000001,94.07562000000001 901.7213194000001,93.04837 894.9630194,92.01867000000001 888.2154194000001,90.98530000000001 881.4746194,89.94693000000001 874.7362194000001,88.90277 867.9973194,87.85225000000001 861.2565194000001,86.79502000000001 854.5135194000001,85.73094 847.7695194,84.66008000000001 841.0258194,83.58263000000001 834.2834194000001,82.49872 827.5425194000001,81.40840000000001 820.8031194000001,80.31164000000001 814.0644194000001,79.20830000000001 807.3252194,78.09825000000001 800.5842194,76.98153 793.8404194000001,75.85831000000002 787.0932194000001,74.72881000000001 780.3424194,73.5933 773.5880194,72.45214000000001 766.8307194,71.30572000000001 760.0712194,70.15443000000002 753.3101194000001,68.99856000000001 746.5477194,67.83832000000001 739.7840194,66.67389 733.0188194000001,65.50539 726.2514194,64.33287000000001 719.4808194,63.15635000000001 712.7059194000001,61.97592000000001 705.9258194,60.79189000000001 699.1400194,59.60461000000001 692.3485194,58.41454000000001 685.5519194000001,57.222220000000014 678.7509194,56.02825000000001 671.9470194,54.83334000000001 665.1419194,53.638210000000015 658.3373194000001,52.44349000000001 651.5349194,51.249770000000005 644.7357194000001,50.05756000000001 637.9407194,48.86736000000001 631.1507194000001,47.67959000000001 624.3660194,46.494640000000004 617.5868194000001,45.312860000000015 610.8132194,44.134720000000016 604.0450194,42.960750000000004 597.2824194000001,41.79145000000001 590.5255194,40.62736000000001 583.7744194,39.46900000000001 577.0294194,38.31691000000001 570.2907194000001,37.17162000000002 563.5585194,36.03372 556.8330194000001,34.903820000000024 550.1143194,33.782520000000005 543.4023194000001,32.670400000000015 536.6968194000001,31.568000000000012 529.9975194000001,30.475870000000015 523.3041194,29.394500000000008 516.6160194,28.324380000000005 509.93281939999997,27.26597000000001 503.2542194,26.21975000000002 496.5804194,25.186240000000012 489.91161939999995,24.165990000000008 483.2484194,23.15959000000001 476.5917194,22.167660000000012 469.9424194,21.19085000000001 463.3020194,20.22999 456.67151939999997,19.28625000000001 450.05171939999997,18.360730000000004 443.44341940000004,17.454490000000007 436.8467194,16.568550000000016 430.2619194,15.703850000000003 423.6888194,14.861320000000006 417.1272194,14.041810000000012 410.5765194,13.24618000000001 404.0367194,12.475280000000012 397.5076194,11.729950000000002 390.9892194,11.01106 384.48171940000003,10.319450000000003 377.9852194,9.65600000000002 371.50011939999996,9.021500000000017 365.0271194,8.417300000000012 358.5672194,7.844700000000017 352.12241939999996,7.3052000000000135 345.6947194,6.800200000000004 339.28721939999997,6.331000000000003 332.9030194,5.899000000000015 326.54591939999995,5.505500000000012 320.2195194,5.152600000000007 313.9263194,4.842700000000008 307.6674194,4.578000000000017 301.44281939999996,4.360500000000002 295.2511194,4.192200000000014 289.0899194,4.075000000000017 282.95611940000003,4.010600000000011 276.8463194,4.0 270.75801939999997,4.043900000000008 264.6892194,4.1432000000000215 258.63851940000006,4.298700000000011 252.6051194,4.511300000000006 246.5886194,4.782100000000014 240.5893194,5.111700000000013 234.6078194,5.501000000000005 228.6450194,5.950400000000016 222.70201939999998,6.460600000000014 216.78001940000001,7.032100000000014 210.8806194,7.665400000000005 205.0053194,8.360800000000012 199.15551939999997,9.11890000000001 193.3317194,9.94031000000001 187.53321939999998,10.825660000000013 181.75851939999998,11.775970000000015 176.0053194,12.792440000000013 170.27041939999998,13.876320000000007 164.5514194,15.02797000000001 158.84771940000002,16.247280000000003 153.1610194,17.53370000000001 147.4950194,18.886130000000023 141.8554194,20.302810000000008 136.2498194,21.782200000000017 130.68511940000002,23.32377000000001 125.1669194,24.927140000000023 119.6994194,26.59213000000001 114.28521939999999,28.318790000000007 108.9260194,30.10744000000001 103.6245894,31.958320000000015 98.3862994,33.87065000000001 93.2185494,35.84249000000001 88.1304194,37.870670000000004 83.1324794,39.951290000000014 78.23650939999999,42.08133000000001 73.4532294,44.25778000000001 68.7916494,46.47723000000001 64.25907939999999,48.73605000000001 59.8620594,51.03033000000001 55.611059399999995,53.35388000000001 51.5206094,55.696640000000016 47.60616939999999,58.045740000000016 43.8814594,60.38694000000001 40.359449399999995,62.706880000000005 37.05300939999999,64.99275 33.9699694,67.23196000000002 31.111519400000002,69.41376000000001 28.4725294,71.53030000000001 26.0440894,73.5772 23.816769400000002,75.5515 21.7797394,77.45055 19.920249400000003,79.27303 18.2241794,81.01934000000001 16.6769094,82.69133000000001 15.2672094,84.29074000000001 13.987259400000001,85.81840000000001 12.828716400000001,87.27557000000002 11.782644399999999,88.66428 10.8398384,89.98726 9.991188399999999,91.24775000000001 9.2279524,92.44933 8.541898400000001,93.59612000000001 7.9251664,94.69470000000001 7.3704854,95.75185000000002 6.8713574,96.77337000000001 6.4220574,97.76415000000001 6.0175754,98.72836000000001 5.6535384,99.66950000000001 5.3261344,100.59055200000002 5.0320324,101.49406900000001 4.7683241,102.38221800000001 4.5349236,103.25492200000001 4.3374449,104.10796800000001 4.1810965,104.93815900000001 4.0701734,105.74360300000001 4.00853541,106.523261 4.0,107.27661700000002 4.0486863,108.00344000000001 4.1593547,108.70362700000001 4.3377929,109.37706870000001 4.5912697,110.0235597 4.9246028,110.64411880000002 5.3360014,111.241893 5.8240694,111.819528 6.388404400000001,112.37896800000001 7.0292824,112.92148800000001 7.7472404,113.44764400000001 8.542425399999999,113.95710300000002 9.4134384,114.44834200000001 10.3555834,114.91818400000001 11.3677904,115.36297800000001 12.4581844,115.78014900000001 13.6367024,116.167398 14.914659400000001,116.52299300000001 16.3048194,116.84640300000001 17.821369400000002,117.13934800000001 19.4798794,117.40746700000001 21.297249400000002,117.66289400000001 23.2922194,117.92728100000001 25.4878894,118.21602800000001 27.9102294,118.53013100000001 30.5825594,118.86783300000002 33.5213494,119.22402400000001 36.7356494,119.58949500000001 40.23096939999999,119.95069000000001 44.02401939999999,120.29221000000001 48.1519694,120.60837000000001 52.6573594,120.89858000000001 57.577459399999995,121.16459 62.930009399999996,121.41227 68.6953494,121.65297000000001 74.8067894,121.89092000000001 81.1654494,122.12207000000001 87.66889939999999,122.3435 94.24257940000001,122.55435000000001 100.8594994,122.75587000000002 107.5252194,122.95023 114.24561940000001,123.13952 121.02151939999999,123.32579000000001 127.84821939999999,123.51101000000001 134.7147194,123.69705000000002 141.6059194,123.88423000000002 148.50841939999998,124.07184000000001 155.4124194,124.25921000000001 162.3121194,124.44579000000002 169.2057194,124.63113000000001 176.0953194,124.81495000000001 182.98461939999999,124.99744000000001 189.8767194,125.17892 196.7731194,125.35972000000001 203.6740194,125.54008000000002 210.57791939999998,125.72025000000001 217.4823194,125.90040000000002 224.38351939999998,126.08024 231.2784194,126.25900000000001 238.16501939999998,126.43592000000001 245.0425194,126.61030000000001 251.9111194,126.78142000000001 258.7722194,126.94865000000001 265.6280194,127.11139000000001 272.4814194,127.26956000000001 279.3349194,127.42338000000001 286.1902194,127.57310000000001 293.0486194,127.71890000000002 299.91041939999997,127.86097000000001 306.77541940000003,127.99951000000001 313.6429194,128.13465000000002 320.51141939999997,128.26643 327.3797194,128.3947 334.2468194,128.51935000000003 341.1122194,128.64023 347.9756194,128.75724000000002 354.8369194,128.87026000000003 361.69661940000003,128.97918 368.55531940000003,129.08393 375.41381939999997,129.18451000000002 382.2726194,129.28098 389.1321194,129.37337000000002 395.9924194,129.46172 402.8535194,129.54606 409.7150194,129.62644 416.5765194,129.70287000000002 423.4374194,129.77534000000003 430.29691940000004,129.84374000000003 437.1548194,129.90793000000002 444.01091940000003,129.96781000000001 450.8652194,130.02324000000002 457.71791939999997,130.07412 464.5695194,130.12032 471.4208194,130.16173 478.2724194,130.19833 485.1252194,130.23022000000003 491.9795194,130.25753000000003 498.8355194,130.28036 505.6932194,130.29882 512.5522194,130.31302 519.4121194,130.32308 526.2720194000001,130.32909 533.1309194,130.33101000000002 539.9880194000001,130.32865 546.8426194,130.3218 553.6945194000001,130.31026000000003 560.5433194000001,130.29384000000002 567.3891194,130.27234 574.2322194000001,130.24556 581.0730194,130.2133 587.9120194000001,130.17544 594.7497194,130.13187000000002 601.5861194000001,130.08249 608.4214194000001,130.0272 615.2554194,129.9659 622.0876194,129.89851000000002 628.9175194000001,129.82492000000002 635.7443194,129.74502 642.5674194000001,129.6585 649.3862194,129.56504 656.2003194,129.46431 663.0096194,129.35598000000002 669.8141194000001,129.23972 676.6142194,129.11520000000002 683.4102194000001,128.98209000000003 690.2027194,128.84013000000002 696.9922194000001,128.68913 703.7790194,128.52892000000003 710.5633194000001,128.35932000000003 717.3451194,128.18016 724.1244194000001,127.99126000000001 730.9010194000001,127.79246 737.6745194000001,127.58358000000001 744.4446194000001,127.36442000000001 751.2113194,127.13479000000001 757.9746194,126.89446000000001 764.7349194000001,126.64323000000002 771.4924194,126.38086000000001 778.2479194000001,126.10714000000002 785.0018194,125.82195000000002 791.7549194000001,125.52530000000002 798.5074194000001,125.21719000000002 805.2595194000002,124.89763 812.0112194000001,124.56665000000001 818.7624194000001,124.22428000000001 825.5127194,123.8705 832.2616194,123.50517 839.0083194,123.12815 845.7522194000001,122.73928000000001 852.4922194,122.33844 859.2273194,121.92552 865.9563194000001,121.50047 872.6791194,121.06327000000002 879.3970194000001,120.61380000000001 886.1125194000001,120.15187000000002 892.8297194,119.67713100000002 899.5536194,119.18926300000001 906.2865194000001,118.68863100000002 913.0225194000001,118.17635200000001 919.7478194000001,117.65424600000001 926.4402194,117.124835 933.0723194000001,116.58891200000001 939.6224194,116.04272000000002 946.0800194,115.48165900000001 952.4447194,114.90084100000001 958.7207194000001,114.297261 964.8962194000001,113.67468600000001 970.9318194000001,113.040619 976.7710194,112.40571400000002 982.3442194,111.79337400000001 987.5702194,111.23215100000002 992.3863194,110.74190620000002 996.7750194,110.3411446 1000.7639194,110.04037410000001 1003.9370194,109.85650000000001" stroke="black" stroke-width="2.0" /></svg>