<?xml version="1.0" encoding="utf-8" ?>
<svg baseProfile="full" height="138.99475999999999" version="1.1" width="1012.07287478" xmlns="http://www.w3.org/2000/svg" xmlns:ev="http://www.w3.org/2001/xml-events" xmlns:xlink="http://www.w3.org/1999/xlink"><defs /><polygon fill="none" points="1004.07287478,114.84349999999999 1000.85967478,114.3135159 996.8685747799999,113.560645 992.51517478,112.64831699999999 987.76977478,111.59393999999999 982.6746747799999,110.43568499999999 977.31947478,109.21718499999999 971.78047478,107.98578499999999 966.0867747799999,106.76922499999999 960.24887478,105.57204499999999 954.2734747799999,104.39583999999999 948.16157478,103.24022 941.9114747799999,102.09998999999999 935.52647478,100.96772999999999 929.01877478,99.83618999999999 922.41077478,98.69888999999999 915.73267478,97.55497999999999 909.0119747800001,96.40754999999999 902.27037478,95.25867 895.5224747799999,94.10916999999999 888.77507478,92.95863 882.03007478,91.80645999999999 875.2878747799999,90.65212 868.54867478,89.49499999999999 861.81187478,88.33438 855.07637478,87.16946999999999 848.34077478,85.99977999999999 841.60367478,84.82534 834.86447478,83.64627999999999 828.12267478,82.46278999999998 821.37867478,81.27519999999998 814.63327478,80.08390999999999 807.8876747800001,78.88922 801.14277478,77.69125999999999 794.39907478,76.49006999999999 787.65697478,75.28559999999999 780.91587478,74.07774999999998 774.17517478,72.86631999999999 767.43377478,71.65109999999999 760.69047478,70.43215999999998 753.9440747799999,69.20966999999999 747.19407478,67.98387 740.44007478,66.75504 733.6818747799999,65.52355 726.91987478,64.28977999999998 720.15467478,63.05419999999999 713.3867747800001,61.81722999999999 706.61717478,60.57928999999999 699.84647478,59.340819999999994 693.07577478,58.10223999999999 686.30567478,56.86399999999999 679.53727478,55.626549999999995 672.77137478,54.39035999999999 666.0087747800001,53.15598999999999 659.25027478,51.924009999999996 652.49627478,50.69494 645.74717478,49.469300000000004 639.00317478,48.24754 632.26417478,47.03008999999999 625.53017478,45.81738 618.8008747800001,44.60974999999999 612.0758747799999,43.407589999999985 605.3551747800001,42.21124999999999 598.63857478,41.02109999999999 591.92587478,39.83752 585.21707478,38.660899999999984 578.51207478,37.49162 571.81077478,36.330089999999984 565.11327478,35.176869999999994 558.41997478,34.032529999999994 551.7311747800001,32.89769 545.04747478,31.772989999999993 538.36977478,30.659069999999986 531.69897478,29.556609999999992 525.03617478,28.466329999999985 518.38247478,27.389089999999996 511.73857478,26.32589 505.10457477999995,25.27758999999999 498.48007478,24.24499 491.86427478,23.228799999999993 485.25577478,22.22963999999999 478.65257478,21.24808999999999 472.05247478,20.28452999999999 465.45357478,19.339029999999994 458.85487478000005,18.411699999999996 452.25627478,17.50278999999999 445.65867477999996,16.612700000000004 439.06397478,15.74190999999999 432.47477478,14.890999999999991 425.89487478,14.060699999999983 419.32797478,13.252599999999987 412.77727478,12.468699999999984 406.24457478000005,11.710699999999989 399.73077478,10.980299999999986 393.23577478,10.278699999999986 386.75847478000003,9.607500000000002 380.29697478,8.96769999999998 373.84887478,8.360399999999998 367.41277478,7.7864999999999895 360.98827478,7.247100000000003 354.57617478000003,6.743300000000005 348.17857478,6.276299999999992 341.79847478000005,5.847199999999987 335.43987478,5.457099999999997 329.10737478,5.108099999999993 322.80447478,4.802499999999995 316.53347478,4.542599999999993 310.29497478,4.330699999999993 304.08817478,4.168599999999984 297.91137478,4.058399999999992 291.76137478000004,4.001799999999989 285.63487477999996,4.0 279.52907478,4.053799999999981 273.44197477999995,4.163999999999987 267.37177478,4.331499999999991 261.31767478,4.557299999999984 255.27897478,4.842199999999991 249.25597478,5.187099999999987 243.24897478,5.59259999999999 237.25867478,6.059399999999997 231.28577478,6.587900000000005 225.33107478,7.1785 219.39577478,7.83189999999999 213.48077478000002,8.54849999999999 207.58727478000003,9.328499999999991 201.71567478,10.172499999999985 195.86617478,11.081099999999992 190.03817478000002,12.054900000000004 184.23047478,13.094699999999989 178.44167478,14.201399999999992 172.67027478000003,15.375569999999996 166.91597478,16.61703999999999 161.17967478,17.925609999999992 155.46387478,19.30064999999999 149.77217478,20.74115999999998 144.10937478000002,22.245989999999992 138.48067478,23.814679999999996 132.89067478,25.446899999999985 127.34327478,27.14234999999998 121.84167478000002,28.900749999999988 116.38837478,30.721959999999996 110.98657478000001,32.60615999999999 105.64137478,34.553009999999986 100.35957478,36.56117999999999 95.14940478000001,38.628339999999994 90.02025478000002,40.7512 84.98248478000001,42.92711999999999 80.04511478,45.15429999999999 75.21483478,47.43121999999998 70.49622478,49.75659999999999 65.89240477999999,52.129349999999995 61.409784779999995,54.546479999999995 57.06243478,56.99982999999999 52.86949478,59.47635999999999 48.85145478,61.959559999999996 45.02797478,64.43234999999999 41.41603478,66.88102999999998 38.02448478,69.29457 34.85436478,71.66458999999999 31.90073478,73.98528999999999 29.15622478,76.25225999999999 26.618324780000002,78.45688999999999 24.28677478,80.58655999999999 22.158054779999997,82.62951999999999 20.22345478,84.57780999999999 18.47044478,86.42808 16.88799478,88.18121 15.463324779999999,89.84190999999998 14.181704779999999,91.41698 13.02848278,92.91380999999998 11.99003878,94.33966999999998 11.05412678,95.70131999999998 10.20981978,97.00496 9.44622978,98.25707 8.75367378,99.46283 8.12431278,100.62566999999999 7.551505779999999,101.74801 7.02944278,102.83176999999999 6.552946779999999,103.87862999999999 6.117366779999999,104.890198 5.71851278,105.868061 5.35280378,106.81374699999999 5.02204868,107.727239 4.7321371800000005,108.608189 4.4870060800000005,109.45785299999999 4.28927598,110.278386 4.14094221,111.07234199999999 4.04384376,111.84240999999999 4.0,112.591291 4.0118821,113.321654 4.082672301,114.0361487 4.21655918,114.73744629999999 4.41805188,115.4280826 4.68652098,116.108995 5.02004608,116.77987999999999 5.41774978,117.439612 5.87957578,118.08611499999999 6.4060847800000005,118.716124 6.9982137799999995,119.324828 7.656926779999999,119.905351 8.38269378,120.44810999999999 9.17728478,120.944949 10.04654378,121.394442 10.99766378,121.79624 12.03897078,122.15061599999999 13.18004578,122.45892699999999 14.431724779999998,122.72438999999999 15.80584478,122.95340399999999 17.31420478,123.157794 18.96612478,123.35849499999999 20.770634779999998,123.57783799999999 22.74601478,123.819536 24.910454780000002,124.082944 27.277534779999996,124.36478399999999 29.85356478,124.65811299999999 32.63918478,124.95194 35.639844780000004,125.23185 38.88440478,125.48424999999999 42.42082478,125.70580999999999 46.30878478,125.89636999999999 50.61861478,126.05747 55.42243478,126.19453999999999 60.76337478,126.32047999999999 66.60281478,126.44595 72.81484478,126.56743999999999 79.23024478,126.68061999999999 85.71171478000001,126.78303 92.20923478,126.87456999999999 98.74170478,126.95742999999999 105.33207478,127.03451999999999 111.99367478,127.10870999999999 118.72917478000001,127.18288 125.52837478000001,127.25993 132.37097478,127.34115 139.23707478000003,127.42609999999999 146.11127478,127.51426 152.98367478000003,127.60516999999999 159.84957477999998,127.69838999999999 166.70997478,127.79359 173.56867478,127.89058 180.42927478000001,127.98922999999999 187.29387478,128.08938 194.16367478,128.19084999999998 201.03857478,128.29346999999999 207.91727478,128.39701 214.79777478,128.50117 221.67807478,128.60550999999998 228.55657478,128.7096 235.43247478,128.81301 242.30507478,128.91532 249.17457478,129.01612 256.04147478,129.11504 262.90667478,129.21189999999999 269.77077478,129.30668 276.63437478000003,129.39935 283.49797478,129.48989 290.36167478000004,129.57826999999997 297.22537478,129.66445 304.08887478,129.74840999999998 310.95197478,129.83006999999998 317.81427478,129.90936 324.67547478,129.98617 331.53557478,130.0604 338.39437478,130.13198 345.25207478000004,130.20081 352.10857478,130.26679 358.96437478,130.32986 365.81947478,130.38999 372.67427478,130.4472 379.52887478,130.50146999999998 386.38357478,130.55281 393.23847478,130.60121999999998 400.09377478,130.6467 406.94947478,130.68926 413.80577478000004,130.7289 420.66267478000003,130.76567 427.52017478000005,130.7996 434.37837478,130.83075 441.23707478,130.85915 448.09617478,130.88486 454.95557478,130.90792 461.81507478,130.92836 468.67447478,130.94621 475.53337478000003,130.96139 482.39177478,130.97383 489.24927478,130.98345999999998 496.10587478,130.9902 502.96147478,130.994 509.81577478,130.99475999999999 516.66887478,130.99242999999998 523.52057478,130.98692 530.37087478,130.97812 537.21977478,130.96593 544.06727478,130.95024999999998 550.91347478,130.93095 557.75827478,130.90795 564.6018747800001,130.88112999999998 571.4443747800001,130.85039 578.28577478,130.81561 585.12617478,130.77672 591.96567478,130.73359 598.80387478,130.68615 605.64087478,130.63428 612.47617478,130.57790999999997 619.3094747800001,130.51692 626.14037478,130.45123 632.96827478,130.38061 639.7928747799999,130.30476 646.61377478,130.22337 653.4307747800001,130.13612999999998 660.2436747800001,130.04274999999998 667.05247478,129.94290999999998 673.85717478,129.83632999999998 680.65787478,129.72269999999997 687.4548747800001,129.6018 694.2483747800001,129.47343 701.03877478,129.33737 707.82637478,129.19339 714.61187478,129.04127999999997 721.39567478,128.88081 728.17847478,128.71177 734.96087478,128.5341 741.74327478,128.34783 748.52587478,128.15297999999999 755.30867478,127.94958999999999 762.09137478,127.73769999999999 768.87337478,127.51735 775.65397478,127.28859 782.43257478,127.05129 789.2084747800001,126.80528999999999 795.9815747800001,126.55037999999999 802.75197478,126.28638 809.5201747799999,126.01307 816.28667478,125.73022999999999 823.05257478,125.43776 829.8186747799999,125.13571999999999 836.5856747800001,124.82422899999999 843.3540747799999,124.50337499999999 850.1242747800001,124.17326999999999 856.89637478,123.834031 863.67037478,123.48588799999999 870.44637478,123.129207 877.22467478,122.764359 884.0055747800001,122.39170299999999 890.78977478,122.011591 897.57787478,121.624332 904.36867478,121.23017099999998 911.15767478,120.829518 917.93667478,120.423019 924.69407478,120.011558 931.4155747799999,119.595294 938.08747478,119.172508 944.69917478,118.74125099999999 951.24227478,118.29961499999999 957.70897478,117.84659099999999 964.07307478,117.384694 970.28087478,116.91911599999999 976.26417478,116.457473 981.9516747800001,116.020197 987.27607478,115.63230429999999 992.19377478,115.30938119999999 996.69507478,115.0655302 1000.8013747800001,114.90997666999999 1004.07287478,114.84349999999999" stroke="black" stroke-width="2.0" /></svg>