<?xml version="1.0" encoding="utf-8" ?>
<svg baseProfile="full" height="176.01273" version="1.1" width="1011.98999815" xmlns="http://www.w3.org/2000/svg" xmlns:ev="http://www.w3.org/2001/xml-events" xmlns:xlink="http://www.w3.org/1999/xlink"><defs /><polygon fill="none" points="1003.98999815,132.9344 1000.06649815,131.92616800000002 995.36189815,130.617616 990.42339815,129.165161 985.23069815,127.59882200000001 979.79029815,125.94336400000002 974.11269815,124.223319 968.20139815,122.46257000000001 962.0595981499999,120.66842000000001 955.69189815,118.84315000000001 949.1016981500001,116.98807000000001 942.29239815,115.10117000000001 935.27409815,113.17846000000002 928.06669815,111.21694000000001 920.7026981500001,109.21578000000001 913.2207981500001,107.18055000000001 905.6554981500001,105.11850000000001 898.03259815,103.03449 890.36679815,100.93032000000002 882.66259815,98.80638000000002 874.92259815,96.66357000000002 867.1499981500001,94.50308000000001 859.34869815,92.32629 851.52319815,90.13482000000002 843.67789815,87.93042000000001 835.8163981499999,85.71464 827.94119815,83.48877000000002 820.05369815,81.25381000000002 812.1542981499999,79.01056000000001 804.2434981499999,76.76013 796.3230981500001,74.50412 788.39629815,72.24455 780.4678981500001,69.98387 772.54399815,67.72497000000001 764.63139815,65.47112000000001 756.73589815,63.22545000000001 748.86199815,60.99071000000001 741.0132981500001,58.769310000000004 733.19209815,56.563260000000014 725.39949815,54.37435000000001 717.63679815,52.20448000000002 709.9051981499999,50.05560000000001 702.20649815,47.929680000000005 694.54259815,45.82874000000001 686.91579815,43.75479 679.3285981500001,41.710380000000015 671.7836981500001,39.69890000000001 664.28489815,37.72382 656.8361981500001,35.78863 649.44249815,33.89672 642.1088981500001,32.051400000000015 634.84019815,30.25670000000001 627.63859815,28.51740000000001 620.50299815,26.83720000000001 613.42979815,25.21900000000001 606.4127981500001,23.664900000000003 599.44349815,22.176500000000004 592.5122981500001,20.75460000000001 585.60959815,19.39760000000001 578.7270981500001,18.104000000000013 571.85729815,16.87270000000001 564.99329815,15.703000000000017 558.12899815,14.594400000000007 551.2587981500001,13.546800000000019 544.37779815,12.55940000000001 537.48199815,11.630600000000001 530.5685981500001,10.759 523.63549815,9.943400000000011 516.68169815,9.182700000000011 509.70739815,8.476200000000006 502.71349815,7.823099999999997 495.70129815,7.223000000000013 488.67189815,6.675700000000006 481.62579815000004,6.180800000000019 474.56329815000004,5.737800000000021 467.48399815000005,5.346500000000006 460.38719815,5.006300000000024 453.27199815000006,4.716700000000031 446.13789815,4.477000000000004 438.98519815000003,4.286300000000011 431.81479815,4.144100000000009 424.62879815,4.04940000000002 417.43009815,4.001600000000025 410.22219815,4.0 403.00879815,4.044700000000006 395.79289815000004,4.135899999999992 388.57699815,4.273700000000019 381.36299815,4.458300000000008 374.15219815,4.689600000000013 366.94499815000006,4.967799999999997 359.74199815000003,5.292800000000014 352.54379815000004,5.6648 345.35129815,6.0837999999999965 338.16569815,6.549600000000012 330.98849815000005,7.062399999999997 323.82159815,7.6218000000000075 316.66689815,8.228099999999998 309.52619815,8.881500000000017 302.40139815000003,9.582000000000008 295.29399815000005,10.32980000000002 288.20539815,11.125100000000018 281.13709815,11.967800000000011 274.09039815000006,12.85820000000001 267.06719815,13.796500000000009 260.06949815,14.782700000000006 253.09989814999997,15.816800000000015 246.16109815,16.898600000000016 239.25619815,18.027900000000017 232.38849815,19.205000000000013 225.56109815,20.430000000000007 218.77699815,21.70320000000001 212.03909814999997,23.024600000000007 205.34979815,24.394200000000012 198.71169815,25.8121 192.12779815,27.27810000000001 185.60189814999998,28.791700000000006 179.13809815,30.352100000000007 172.74129814999998,31.958200000000005 166.41629815,33.60882000000001 160.16909814999997,35.30255000000001 154.00609815,37.03787000000001 147.93439815,38.81276 141.96119814999997,40.62469 136.09379815,42.47072 130.33939815000002,44.34786000000001 124.70609815000002,46.25324000000002 119.20199815,48.18341000000001 113.83479815000001,50.134400000000014 108.61149815000002,52.101870000000005 103.53795815000001,54.08137000000001 98.61995815,56.06867000000001 93.86296815,58.05927000000001 89.27160815,60.04838000000001 84.84908815,62.03116 80.59702815000001,64.00299000000001 76.51559815,65.95970000000001 72.60475815,67.89770000000001 68.86387815,69.81340000000002 65.29125815,71.70332000000002 61.88391815,73.56438 58.63767814999999,75.39398 55.547388149999996,77.19022000000001 52.60798815,78.95232000000001 49.81414815,80.68 47.16000815,82.37313 44.639258149999996,84.03178000000001 42.24534815,85.65621000000002 39.97157815,87.24688 37.81127815,88.80443000000001 35.75849815,90.32974000000002 33.807918150000006,91.82377000000001 31.954428150000002,93.28738000000001 30.19302815,94.72140000000002 28.518848150000004,96.12663 26.927208150000002,97.50387 25.413578150000003,98.85394000000001 23.973618150000004,100.17766 22.60338815,101.47597 21.29982815,102.75019 20.060038150000004,104.00162 18.88114815,105.23148 17.760338150000003,106.44092 16.69487815,107.63098000000001 15.68212815,108.80266000000002 14.71954815,109.95685 13.80472715,111.09443000000002 12.93536015,112.21617 12.109809149999998,113.32282000000001 11.32757515,114.41505000000001 10.58817315,115.49347 9.89099715,116.55862000000002 9.23534315,117.61099000000002 8.62042915,118.65105000000001 8.04541515,119.67921000000001 7.50941315,120.69586000000001 7.01150115,121.70137000000001 6.55073415,122.69608000000001 6.126247149999999,123.68028800000002 5.73814915,124.654121 5.38695615,125.617804 5.07297915,126.57179900000001 4.79638965,127.516749 4.55729305,128.45343000000003 4.35645795,129.382492 4.19760685,130.30312400000003 4.08495393,131.21290900000002 4.0206439,132.1086893 4.0,132.99206386 4.02275208,133.87303400000002 4.11120315,134.757136 4.28142095,135.639307 4.55377335,136.50495 4.98251675,137.31769 5.54275815,138.06513900000002 6.17788715,138.77274 6.875051149999999,139.44654100000002 7.62559515,140.091586 8.42249415,140.713107 9.26157715,141.31615000000002 10.14040715,141.90439700000002 11.05825615,142.480082 12.01418915,143.04565000000002 13.008048149999999,143.60278 14.04090815,144.15203000000002 15.11389815,144.69399 16.22813815,145.22939000000002 17.38473815,145.75908 18.58534815,146.28362 19.83231815,146.80309 21.12817815,147.31767000000002 22.475628150000002,147.82758 23.877548150000003,148.33316000000002 25.336958150000005,148.83486000000002 26.85706815,149.33329 28.44123815,149.82928 30.09294815,150.32386000000002 31.815778150000003,150.81839000000002 33.61345815,151.31444000000002 35.490758150000005,151.81252 37.45324815,152.31249000000003 39.50688815,152.81424 41.658078149999994,153.31766000000002 43.913658149999996,153.8227 46.28093815,154.32935 48.76775815,154.83774 51.38254815,155.34817 54.13452815,155.8612 57.03399815,156.37712000000002 60.09204815,156.89547000000002 63.32011815,157.41567 66.72966815,157.93709 70.33186815,158.45904000000002 74.13711814999999,158.98087 78.15469815,159.50206 82.39263815,160.02215 86.85766815000001,160.53923 91.55402815000001,161.05051 96.48306815000001,161.553 101.64373815,162.04373 107.03399815,162.51999 112.65319815000001,162.97971 118.50279815,163.42233000000002 124.57879815,163.84858 130.86599815,164.25963000000002 137.33549815,164.65721000000002 143.94189815,165.04359000000002 150.62439815,165.41931 157.31969815,165.77247 163.97919815,166.08780000000002 170.57369814999998,166.35216000000003 177.09239814999998,166.55451000000002 183.54129815,166.68526000000003 189.93949815,166.73945 196.31079814999998,166.73408 202.67489815,166.69261 209.04689814999998,166.6379 215.43819815,166.59287 221.85579815,166.58092000000002 228.30289815,166.62614000000002 234.77899814999998,166.74206 241.28389815,166.91395 247.82019814999998,167.12223 254.39399815000002,167.34692 261.01459815,167.56745 267.69539815,167.76244 274.45469815,167.9092 281.31559815,167.99114000000003 288.30139815,168.01273 295.43149815000004,167.98252000000002 302.71979815000003,167.90998000000002 310.17189815,167.80602000000002 317.78239815000006,167.68343000000002 325.53099815,167.55694 333.38289815,167.43503 341.30129815,167.31556 349.25559815,167.19526000000002 357.22329815,167.07063 365.19129815,166.93802 373.15599815,166.79364 381.12329815000004,166.63422 389.10269815,166.45963 397.10169815,166.2707 405.12459815000005,166.06831 413.17259815,165.85342000000003 421.24379815000003,165.62709 429.33299815000004,165.39049 437.43199815,165.14423000000002 445.53359815,164.88801 453.63219815,164.62145 461.72399815,164.34413 469.80759815,164.05558000000002 477.88329815000003,163.75525000000002 485.95309815,163.44262 494.02009815,163.11753000000002 502.08659815000004,162.78004 510.15409815000004,162.43024 518.22279815,162.06827 526.2923981499999,161.69428000000002 534.36139815,161.30849 542.42749815,160.91102 550.48849815,160.50162 558.54269815,160.08001000000002 566.58939815,159.64583000000002 574.62799815,159.19874000000002 582.6590981500001,158.73832000000002 590.6835981500001,158.26418 598.70279815,157.77607 606.7175981500001,157.27398 614.72819815,156.75795 622.73419815,156.22803000000002 630.73439815,155.68436 638.7270981500001,155.12708 646.7099981499999,154.55621000000002 654.6802981500001,153.97097000000002 662.63509815,153.37045 670.5718981499999,152.75376 678.48789815,152.12007 686.38049815,151.46857 694.2469981500001,150.79847 702.0857981500001,150.10882 709.89839815,149.39834000000002 717.68929815,148.66544000000002 725.46629815,147.90818000000002 733.24039815,147.12419 741.0259981500001,146.31067000000002 748.8392981500001,145.4669 756.69279815,144.59560000000002 764.59149815,143.70051 772.53259815,142.786413 780.5047981499999,141.859257 788.48789815,140.926221 796.45559815,139.995237 804.3846981500001,139.073802 812.2582981500001,138.168497 820.06559815,137.28492400000002 827.80159815,136.42774300000002 835.4660981500001,135.60072200000002 843.06109815,134.806667 850.58669815,134.048135 858.0414981499999,133.327674 865.4222981500001,132.64776360000002 872.72469815,132.0107529 879.94329815,131.41923200000002 887.07239815,130.87648000000002 894.10649815,130.385465 901.04019815,129.948673 907.86899815,129.568105 914.5883981500001,129.24544300000002 921.19419815,128.983252 927.68199815,128.78416600000003 934.04739815,128.650149 940.2863981500001,128.582492 946.39539815,128.581928 952.37139815,128.649704 958.2121981500001,128.78716300000002 963.91699815,128.994986 969.48649815,129.273282 974.92159815,129.62139100000002 980.22199815,130.03710900000002 985.38499815,130.517492 990.40659815,131.05908900000003 995.2826981500001,131.659454 1000.01049815,132.3178451 1003.98999815,132.9344" stroke="black" stroke-width="2.0" /></svg>