<?xml version="1.0" encoding="utf-8" ?>
<svg baseProfile="full" height="122.24187" version="1.1" width="1011.93520761" xmlns="http://www.w3.org/2000/svg" xmlns:ev="http://www.w3.org/2001/xml-events" xmlns:xlink="http://www.w3.org/1999/xlink"><defs /><polygon fill="none" points="1003.93520761,91.18324 1000.86270761,90.2352827 996.8556076100001,88.93334399999999 992.33010761,87.403534 987.36730761,85.701691 982.14680761,83.92220499999999 976.8260076099999,82.152148 971.44040761,80.43082 965.96350761,78.7517 960.37720761,77.10625999999999 954.67910761,75.49073 948.88100761,73.9037 942.99770761,72.34287 937.04420761,70.80487 931.0347076099999,69.28560999999999 924.98150761,67.78374 918.89430761,66.29975999999999 912.78170761,64.83358 906.6500076100001,63.38453 900.50350761,61.95174 894.34530761,60.5353 888.1777076100001,59.13546 882.00280761,57.75232999999999 875.82220761,56.385949999999994 869.63730761,55.03629 863.44880761,53.70354 857.25750761,52.38794 851.06340761,51.08967 844.86660761,49.80883 838.6668076100001,48.54548 832.4634076100001,47.29958 826.25590761,46.07094 820.04400761,44.85939 813.82760761,43.664809999999996 807.6070076100001,42.48712 801.3824076100001,41.326299999999996 795.15450761,40.18237 788.92390761,39.0555 782.69100761,37.945899999999995 776.45620761,36.85371 770.21950761,35.77906 763.98080761,34.72203999999999 757.74000761,33.682719999999996 751.4966076100001,32.661089999999994 745.25030761,31.657049999999998 739.00090761,30.67049 732.74810761,29.701359999999994 726.49200761,28.749589999999998 720.23260761,27.815149999999996 713.97020761,26.89800000000001 707.7049076100001,25.998170000000002 701.43700761,25.115679999999998 695.16670761,24.250569999999996 688.8941076100001,23.40285999999999 682.6194076099999,22.57257 676.3425076100001,21.759689999999992 670.06340761,20.96423999999999 663.78210761,20.1862 657.4984076100001,19.42555999999999 651.21240761,18.682299999999998 644.92420761,17.956429999999997 638.6338076100001,17.24794 632.34140761,16.556840000000008 626.04730761,15.88315999999999 619.75180761,15.22690999999999 613.45520761,14.5882 607.15790761,13.967179999999999 600.86010761,13.36403 594.5619076099999,12.778869999999998 588.2633076100001,12.211860000000001 581.9645076099999,11.663129999999995 575.66540761,11.132800000000003 569.36570761,10.620989999999992 563.0655076099999,10.127750000000006 556.7646076100001,9.653109999999998 550.46280761,9.197109999999995 544.1601076100001,8.759809999999987 537.8565076100001,8.34123000000001 531.5519076100001,7.94144 525.24630761,7.560479999999998 518.93970761,7.198399999999992 512.63210761,6.855239999999995 506.32380760999996,6.531049999999993 500.01470761,6.225880000000004 493.70510761,5.939749999999989 487.39520761,5.67273999999999 481.08510761,5.4248699999999985 474.77530761,5.196190000000001 468.46600761,4.986839999999987 462.15750761000004,4.79701 455.85010761,4.626909999999995 449.54400761000005,4.476739999999992 443.23950761,4.3466999999999985 436.93650761,4.236980000000003 430.63540761,4.147769999999994 424.33610761000006,4.079279999999997 418.03870761,4.031679999999994 411.74340761,4.005189999999985 405.45000761,4.0 399.15860761000005,4.016300000000001 392.86910761,4.054310000000001 386.58140761,4.114209999999986 380.29550761,4.196219999999997 374.01110761,4.300520000000006 367.72830761,4.427239999999998 361.44710761,4.5765499999999975 355.16770761000004,4.748559999999998 348.89020761,4.94341 342.61510761,5.161239999999992 336.34290761,5.402149999999992 330.07410761000006,5.666290000000004 323.80930761,5.953980000000001 317.54900761000005,6.265599999999992 311.29380761,6.601529999999997 305.04400761000005,6.962149999999994 298.80000761,7.347839999999991 292.56180761,7.758970000000005 286.32970761,8.195939999999993 280.10380761,8.659169999999989 273.88420761000003,9.149110000000007 267.67110761000004,9.66619 261.46490761,10.210840000000005 255.26580761,10.783479999999997 249.07420761,11.384529999999998 242.89040761,12.014420000000001 236.71510761,12.67367999999999 230.54870760999998,13.362899999999996 224.39200761,14.082629999999995 218.24550761,14.83341 212.11020761,15.615769999999998 205.98660761,16.430199999999985 199.87580760999998,17.27735 193.77880761,18.158119999999997 187.69680760999998,19.073369999999997 181.63080761,20.023939999999996 175.58210760999998,21.01061999999999 169.55190761,22.03416999999999 163.54160761,23.095460000000003 157.55290760999998,24.19572000000001 151.58710761,25.336159999999992 145.64570761,26.517959999999988 139.73030760999998,27.74226 133.84220760999997,29.010139999999993 127.98300761,30.32298 122.15530761,31.682319999999997 116.36210761,33.08945 110.60690761000001,34.545399999999994 104.89400761,36.050869999999996 99.22820761000001,37.606809999999996 93.61596761,39.21512 88.06441761,40.87732999999999 82.58120760999999,42.594300000000004 77.17427761,44.366249999999994 71.85261761000001,46.19365 66.62775761,48.07727 61.512747610000005,50.0163 56.52119761,52.00825 51.66742761,54.04929 46.97577761,56.13308 42.48347761,58.24507 38.23026761,60.3639 34.24893761,62.466249999999995 30.56904761,64.53368 27.21693761,66.5461 24.20084761,68.48393 21.50811761,70.33418999999999 19.11547761,72.0892 17.00309761,73.73992 15.14781761,75.28093 13.521504610000001,76.7131 12.094241610000001,78.04222 10.83776361,79.27729 9.73209761,80.43462 8.76335361,81.530278 7.91775361,82.574607 7.18156561,83.574746 6.54164161,84.536029 5.98587161,85.462693 5.50343161,86.358249 5.08631961,87.224509 4.73550251,88.057452 4.45241551,88.855054 4.23695841,89.618336 4.08903051,90.3496222 4.00935072,91.0516983 4.0,91.7274499 4.06495391,92.379734 4.21067621,93.011427 4.44087421,93.627115 4.75410921,94.233113 5.15116261,94.835186 5.63538861,95.438822 6.21264461,96.04957399999999 6.891145610000001,96.673251 7.68060161,97.315782 8.588732610000001,97.982041 9.62030961,98.673249 10.795332609999999,99.38779199999999 12.13758661,100.12105299999999 13.665143610000001,100.864389 15.382757610000002,101.60656 17.28054761,102.33988 19.35072761,103.07073 21.61466761,103.81418 24.11525761,104.57526999999999 26.908567610000002,105.35782 30.065507609999997,106.16466 33.66232761,106.99389 37.74359761,107.83129 42.28558761,108.64939 47.187147610000004,109.41746 52.313647610000004,110.11644 57.58373761,110.74809 62.99096761,111.3186 68.53931761000001,111.83010999999999 74.22551761,112.28474 80.03632761,112.68501 85.94818761,113.03311 91.93579761000001,113.33024 97.97753761,113.57871 104.05720761,113.78196 110.16550761,113.94425 116.29950761,114.06934 122.45880761000001,114.15932 128.64260761,114.21616 134.84990760999997,114.24187 141.07930760999997,114.23856 147.32920761,114.20833999999999 153.59770761,114.15292 159.88300761,114.07379 166.18350761,113.97251 172.49760761,113.85069 178.82350760999998,113.70997 185.15980761,113.55198999999999 191.50500761,113.37787 197.85800761,113.18836999999999 204.21770761,112.98423 210.58360761,112.76622 216.95500761,112.53509 223.33180761,112.29159 229.71410760999999,112.03646 236.10200761,111.77032 242.49550761,111.4938 248.89450760999998,111.20751999999999 255.29890761000001,110.9121 261.70820761,110.6082 268.12210761,110.29646 274.54000761,109.97752 280.96120761000003,109.65181 287.38510761,109.31963999999999 293.81150761,108.98133 300.24010761,108.63719 306.67070761,108.28753 313.10330761,107.93263999999999 319.53800761,107.57282000000001 325.97520761000004,107.20836 332.41510761,106.8396 338.85780761,106.46685 345.30360761000003,106.09046 351.75220761,105.71078 358.20380761,105.32815 364.65820761000003,104.94292 371.11510761,104.55547 377.57420761000003,104.16609 384.03520761,103.77496 390.49780761,103.38222999999999 396.96170761,102.98806 403.42660761,102.59261 409.89230761000005,102.19601 416.35860761000004,101.79843 422.82530761,101.40002 429.29230761,101.000924 435.75950761,100.601354 442.22660761000003,100.201515 448.69360761,99.80161799999999 455.16030761,99.40187399999999 461.62660761000006,99.002495 468.09220761,98.60369 474.55710761,98.20567299999999 481.02100761,97.808652 487.48390761,97.412818 493.94550761000005,97.01834 500.40580761,96.625384 506.86470761000004,96.234112 513.3222076100001,95.844685 519.77850761,95.45725999999999 526.2334076100001,95.071992 532.68730761,94.689032 539.1402076100001,94.308521 545.59230761,93.930566 552.0437076100001,93.555264 558.49440761,93.182717 564.9445076100001,92.81303 571.39390761,92.446311 577.84260761,92.0826701 584.29030761,91.7222191 590.73690761,91.36507519999999 597.18210761,91.0114103 603.62580761,90.6614617 610.06770761,90.31546759999999 616.50790761,89.973663 622.94610761,89.636278 629.38240761,89.303543 635.81690761,88.975683 642.24960761,88.65292 648.68060761,88.33546799999999 655.11010761,88.02350299999999 661.5382076100001,87.71719 667.96500761,87.416699 674.39050761,87.122196 680.81490761,86.833852 687.23810761,86.551836 693.66020761,86.276319 700.0812076100001,86.007475 706.50090761,85.745503 712.91950761,85.49061999999999 719.3367076100001,85.243045 725.7524076100001,85.002995 732.16640761,84.770691 738.57850761,84.546351 744.98840761,84.33019399999999 751.39570761,84.122451 757.80020761,83.92348 764.20150761,83.733715 770.5995076099999,83.553587 776.9938076100001,83.383523 783.38450761,83.223946 789.77130761,83.075275 796.1542076100001,82.937926 802.53330761,82.81232399999999 808.90860761,82.698925 815.27990761,82.598188 821.64720761,82.510572 828.01040761,82.436533 834.36930761,82.376526 840.72380761,82.331002 847.07350761,82.300464 853.41820761,82.285596 859.75710761,82.287117 866.08940761,82.305731 872.4141076100001,82.342131 878.72980761,82.396987 885.03500761,82.470996 891.32790761,82.56550899999999 897.60630761,82.682333 903.8675076100001,82.823221 910.1084076100001,82.989847 916.3258076100001,83.18378799999999 922.51600761,83.40671999999999 928.6749076100001,83.661476 934.79840761,83.951193 940.88260761,84.278804 946.92360761,84.64702199999999 952.91740761,85.058448 958.85640761,85.515996 964.72640761,86.021841 970.50740761,86.576791 976.1749076100001,87.180121 981.68980761,87.828627 986.98540761,88.513485 991.98750761,89.220816 996.6152076100001,89.932282 1000.76330761,90.6213293 1003.93520761,91.18324" stroke="black" stroke-width="2.0" /></svg>