<?xml version="1.0" encoding="utf-8" ?>
<svg baseProfile="full" height="167.51301" version="1.1" width="1011.8915426" xmlns="http://www.w3.org/2000/svg" xmlns:ev="http://www.w3.org/2001/xml-events" xmlns:xlink="http://www.w3.org/1999/xlink"><defs /><polygon fill="none" points="1003.8915426,130.1341 1000.8576426,128.988699 997.1643425999999,127.489328 993.2123425999999,125.77886000000001 988.9497425999999,123.850207 984.3472426000001,121.70955000000001 979.4103426,119.37301000000001 974.1836426,116.88462000000001 968.7553426000001,114.31423000000001 963.2237425999999,111.72855000000001 957.6486426,109.17425 952.0328426,106.66972000000001 946.3439426,104.20435 940.5527426,101.76217 934.6400425999999,99.33208 928.5986426,96.90804 922.4322426,94.48741000000001 916.1495426,92.06816 909.7627426,89.6487 903.2881426,87.22798 896.7445425999999,84.80773 890.1500425999999,82.3931 883.5209426,79.98875000000001 876.8715426,77.59835000000001 870.2136426,75.22461000000001 863.5570425999999,72.87197 856.9141426,70.54745 850.3010426,68.25922 843.7370426,66.01613 837.2434426,63.82741 830.8393426,61.70454000000001 824.5334426000001,59.65842000000001 818.3240426,57.69559000000001 812.2010426,55.819190000000006 806.1479426,54.02996999999999 800.1435425999999,52.32678 794.1653426,50.70351000000001 788.1920425999999,49.1524 782.2025425999999,47.666740000000004 776.1753425999999,46.240719999999996 770.0870426,44.86922 763.9119426,43.5476 757.6220426,42.268330000000006 751.1920426,41.01971 744.6023425999999,39.79043 737.8417426,38.569829999999996 730.9114426,37.34798000000001 723.8295426,36.116110000000006 716.6346425999999,34.86963 709.3731426,33.61294000000001 702.0868426,32.35126000000001 694.8093426,31.08838 687.5641426,29.826400000000007 680.3641425999999,28.565500000000014 673.2123426,27.3052 666.1054426,26.0488 659.0394426,24.801299999999998 652.0107426,23.56750000000001 645.0160426,22.352100000000007 638.0524426000001,21.159800000000004 631.1173425999999,19.99520000000001 624.2084425999999,18.861800000000002 617.3245426,17.760899999999992 610.4646425999999,16.694000000000003 603.6282426,15.662400000000005 596.8152426,14.667600000000007 590.0256426,13.710800000000006 583.2600425999999,12.793399999999991 576.5190425999999,11.917000000000002 569.8027425999999,11.08290000000001 563.1106426,10.292500000000004 556.4413426,9.546899999999994 549.7927426,8.847300000000004 543.1623426,8.1948 536.5467426,7.59020000000001 529.9425426,7.034000000000006 523.3460426,6.525500000000008 516.7533426,6.064700000000002 510.1604426,5.651200000000017 503.5631426,5.284999999999997 496.9569426,4.966200000000001 490.33694259999993,4.694900000000004 483.69864259999997,4.4702000000000055 477.0380426,4.290800000000019 470.35284260000003,4.1554 463.64164259999995,4.062600000000003 456.9048426,4.011299999999991 450.14384259999997,4.0 443.36184259999993,4.027499999999989 436.5629426,4.093199999999996 429.7509426,4.196699999999993 422.9292426,4.3374999999999915 416.10084259999996,4.515299999999996 409.2685426,4.729399999999998 402.4342426,4.979399999999998 395.5998426,5.264800000000008 388.7666426,5.58550000000001 381.9359426,5.9417000000000115 375.10904259999995,6.333500000000001 368.28684259999994,6.760900000000007 361.4703426,7.224000000000004 354.66044259999995,7.723000000000013 347.85764259999996,8.257900000000006 341.0628426,8.829000000000008 334.27644259999994,9.436399999999992 327.4992426,10.0805 320.7317426,10.761400000000009 313.9743426,11.479299999999995 307.22764259999997,12.234500000000011 300.4920426,13.027200000000008 293.7681426,13.857700000000008 287.0568426,14.726299999999995 280.3588426,15.633200000000002 273.6750426,16.578599999999994 267.0065426,17.562700000000007 260.3545426,18.585600000000014 253.7202426,19.647999999999996 247.10514260000002,20.75 240.51074260000001,21.8921 233.9384426,23.0745 227.3900426,24.2975 220.8671426,25.561400000000006 214.3715426,26.86670000000001 207.90464260000002,28.214 201.4678426,29.60390000000001 195.06214260000002,31.036930000000012 188.6884426,32.51366 182.3477426,34.034729999999996 176.0414426,35.6007 169.7717426,37.211920000000006 163.5413426,38.86847999999999 157.3536426,40.57021000000002 151.2125426,42.31672999999999 145.1226426,44.108140000000006 139.0889426,45.94462 133.1166426,47.82609000000001 127.2111426,49.75211 121.3774426,51.721990000000005 115.6210426,53.73506999999999 109.9477426,55.79088 104.3629426,57.888720000000006 98.8717226,60.02757 93.4785826,62.20616 88.1887126,64.42309 83.01232259999999,66.67541 77.9650626,68.95684 73.06576259999999,71.25811 68.3338326,73.56786000000001 63.787282600000005,75.87453000000001 59.439012600000005,78.16927000000001 55.2942626,80.44563000000001 51.3521326,82.69924 47.607412599999996,84.92741000000001 44.0540826,87.12798000000001 40.6972126,89.29232 37.5515626,91.40364 34.630982599999996,93.44293 31.9415026,95.39431 29.4794526,97.24794 27.2341626,99.00342 25.1866726,100.66949 23.3138626,102.25797 21.593532600000003,103.78058 20.0062026,105.24784 18.535282600000002,106.66887 17.1667626,108.05154 15.888702599999998,109.40124 14.6928726,110.71853 13.5748786,112.0005 12.5320106,113.24275 11.561846599999999,114.44078 10.6615106,115.59101000000001 9.827426599999999,116.69120000000001 9.0553706,117.74057 8.3410956,118.7398 7.6850306,119.6928 7.0886166,120.60611 6.5509436,121.48642000000001 6.0700266,122.339991 5.6435566,123.17246 5.269307599999999,123.988854 4.9453366,124.79367500000001 4.6700783,125.59100600000001 4.4423938,126.384626 4.2616005,127.178112 4.127476,127.97456 4.0401055,128.772682 4.0,129.56861800000001 4.0082305,130.3587187 4.0664443,131.139458 4.1769117,131.907307 4.3426082,132.658617 4.5673414999999995,133.389484 4.8559379,134.095595 5.2144176,134.772141 5.6466206,135.417654 6.152686600000001,136.035461 6.7331176,136.629008 7.3889506,137.201657 8.1215686,137.756845 8.9324046,138.298248 9.8224086,138.829993 10.7911286,139.356888 11.835063600000002,139.884682 12.9462596,140.41976 14.1234026,140.96409 15.3712926,141.51638 16.694452599999998,142.07479 18.0969326,142.63709 19.5824426,143.20082 21.1547926,143.76364 22.8189326,144.32383000000002 24.582832600000003,144.88093 26.4604326,145.43649 28.4695826,145.99252 30.6305526,146.55078 32.968042600000004,147.11347 35.511872600000004,147.68334000000002 38.2974726,148.26389 41.3652526,148.85964 44.7541026,149.47584 48.4902526,150.11371 52.5822526,150.76597 57.011962600000004,151.42113 61.73862260000001,152.06654 66.71724259999999,152.69213 71.9274926,153.29361 77.37527259999999,153.86981 83.0643626,154.41942 88.9903526,154.9413 95.13763259999999,155.43468000000001 101.4768126,155.89902 107.9699426,156.33202 114.57964259999999,156.73167 121.2740426,157.09744 128.0313426,157.43026 134.8418426,157.73211 141.7046426,158.00482 148.61884260000002,158.24992 155.58214260000003,158.46904 162.59074260000003,158.66385 169.6389426,158.83612 176.71964260000001,158.98723 183.8261426,159.11774 190.95284260000003,159.22831 198.0949426,159.31964 205.2492426,159.39253 212.4136426,159.44782 219.5873426,159.48611 226.7694426,159.50773 233.9595426,159.51301 241.15684260000003,159.50227 248.3608426,159.47586 255.5710426,159.43411 262.7868426,159.37737 270.0079426,159.30594 277.23404259999995,159.22011 284.46524259999995,159.1202 291.7015426,159.00648 298.94344259999997,158.87927000000002 306.1912426,158.73885 313.44574259999996,158.58556000000002 320.7070426,158.41977 327.9749426,158.24187 335.2489426,158.05225000000002 342.5280426,157.85133000000002 349.81074259999997,157.63955 357.0953426,157.41733 364.37964259999995,157.1847 371.6621426,156.94149000000002 378.94144259999996,156.6875 386.21664259999994,156.4225 393.4875426,156.1463 400.75394259999996,155.85866000000001 408.0163426,155.55935 415.2755426,155.24825 422.53254259999994,154.92539 429.7883426,154.59078 437.0443426,154.24439 444.30184259999993,153.88622 451.56244259999994,153.51621 458.8278426,153.1343 466.0999426,152.74064 473.38014259999994,152.3357 480.66934259999994,151.92008 487.9676426,151.49437 495.2747426,151.05922 502.5893426,150.61533 509.9098426,150.16346000000001 517.2337425999999,149.70425 524.5580426,149.23760000000001 531.8797426,148.76323 539.1957426,148.28085000000002 546.5029426,147.79019 553.7979425999999,147.29101 561.0775425999999,146.7831 568.3384426,146.26624 575.5777426,145.73959 582.7933426,145.20183 589.9844426,144.65159 597.1514425999999,144.08742 604.2958426,143.50781 611.4202426,142.91116 618.5281425999999,142.2958 625.6241425999999,141.66054 632.7133425999999,141.0054 639.8006426,140.33048 646.8914425999999,139.635843 653.9909425999999,138.921451 661.1047426,138.187215 668.2383426,137.432966 675.3979426,136.658738 682.5884426,135.866037 689.8128426,135.057136 697.0708426,134.234693 704.3593426,133.40179700000002 711.6720426,132.56199900000001 718.9992426,131.71930600000002 726.3279425999999,130.8780968 733.6442426,130.04260775 740.9366426,129.2166774 748.1960426,128.403747 755.4162426,127.606848 762.5935426,126.82861600000001 769.7266426,126.071319 776.8161425999999,125.33697000000001 783.8638425999999,124.62769300000001 790.8716426,123.945614 797.8411426,123.29279100000001 804.7742426,122.671216 811.6726426,122.082828 818.5380426,121.529515 825.3720425999999,121.01304400000001 832.1756426,120.53487 838.9494426,120.09639 845.6930426,119.69899000000001 852.4058426,119.34403 859.0865426,119.03284000000001 865.7333426,118.76667 872.3440426,118.54708000000001 878.9153426,118.37613 885.4430426,118.25580000000001 891.9224426,118.18782 898.3479426,118.17367 904.7137426,118.21456 911.0134426,118.3118 917.2399426,118.46818 923.3859426,118.68637000000001 929.4442425999999,118.96841 935.4077426,119.31572 941.2698426,119.72907000000001 947.0241426,120.209075 952.6637426,120.75666000000001 958.1822426,121.372074 963.5737426000001,122.054817 968.8334426,122.803697 973.9563426,123.616084 978.9298426,124.485456 983.7320426,125.40223 988.3377426000001,126.354682 992.7231426,127.33009200000001 996.8657426,128.315169 1000.7458426,129.2961354 1003.8915426,130.1341" stroke="black" stroke-width="2.0" /></svg>