<?xml version="1.0" encoding="utf-8" ?>
<svg baseProfile="full" height="170.19055" version="1.1" width="1011.8827121" xmlns="http://www.w3.org/2000/svg" xmlns:ev="http://www.w3.org/2001/xml-events" xmlns:xlink="http://www.w3.org/1999/xlink"><defs /><polygon fill="none" points="1003.8827121,129.2279 1000.8560121,128.04104999999998 997.1450121000001,126.48659 993.1547121000001,124.711968 988.8394121000001,122.707261 984.1679121,120.47315 979.1401121000001,118.02151 973.8001121000001,115.39643000000001 968.2470121,112.67423000000001 962.5942121,109.92984000000001 956.9110121000001,107.21483 951.2018121,104.54731000000001 945.4349121,101.91515000000001 939.5828121000001,99.30292 933.6285121,96.70045 927.5667121,94.1028 921.4020121000001,91.50774000000001 915.1429121,88.91324 908.8001121,86.31757000000002 902.3868121,83.71941000000001 895.9180121,81.12001000000001 889.4093121000001,78.5239 882.8774121,75.93609000000001 876.3400121000001,73.36176 869.8153121000001,70.80655000000002 863.3206121000001,68.28115 856.8746121,65.8001 850.4986121000001,63.37817000000001 844.2152121,61.02955 838.0465121000001,58.76716000000002 832.0085121000001,56.60338 826.0993121,54.545730000000006 820.3000121000001,52.59467000000001 814.5793121,50.746240000000014 808.8961121000001,48.99408000000001 803.1994121,47.330330000000004 797.4321121,45.73817000000001 791.5441121,44.19443000000001 785.4930121,42.67902000000001 779.2462121,41.174260000000004 772.7854121000001,39.66469000000001 766.1166121000001,38.13793 759.2766121,36.59033000000001 752.3176121,35.02914 745.2965121000001,33.46265000000001 738.2695121,31.898500000000013 731.2871121,30.342940000000013 724.3909121,28.8005 717.6101121,27.280000000000015 710.9574120999999,25.7975 704.4315121000001,24.36550000000001 698.0204121,22.992800000000003 691.7044121,21.685500000000005 685.4575121,20.44760000000001 679.2487121,19.28150000000001 673.0477121,18.182000000000002 666.8297121,17.141400000000004 660.5756121000001,16.154200000000003 654.2707121,15.215900000000005 647.9057121000001,14.323499999999996 641.4764121000001,13.474500000000006 634.9850121000001,12.667500000000004 628.4372121,11.901700000000005 621.8393121,11.176100000000005 615.1983121,10.4897 608.5210121,9.841099999999997 601.8150121,9.228700000000003 595.0875121,8.650700000000015 588.3459121,8.105800000000002 581.5965121000002,7.594399999999993 574.8438121,7.117199999999997 568.0904121,6.674700000000001 561.3376121,6.2672000000000025 554.5843121,5.894900000000007 547.8281121000001,5.557900000000004 541.0649121000001,5.256000000000014 534.2910121000001,4.988399999999999 527.5040121,4.754300000000001 520.7028121000001,4.552900000000008 513.8879121,4.383500000000012 507.0614121,4.245500000000007 500.2266121,4.138200000000012 493.3884121,4.061300000000017 486.5510121,4.01509999999999 479.7173121,4.0 472.8891121,4.016300000000001 466.0666121,4.064200000000014 459.2490121,4.144100000000009 452.43401209999996,4.256200000000007 445.6186121,4.4007000000000005 438.8001121,4.5774000000000115 431.9772121,4.786000000000016 425.1500121,5.026399999999995 418.3196121,5.298100000000005 411.4884121,5.60090000000001 404.6601121,5.934200000000004 397.8390121,6.297900000000013 391.0283121,6.692300000000017 384.2292121,7.117699999999999 377.4413121,7.574500000000015 370.6624121,8.063400000000016 363.8884121,8.585100000000011 357.1139121,9.140500000000003 350.3331121,9.730000000000004 343.54361209999996,10.353700000000003 336.74671209999997,11.011200000000017 329.9477121,11.701700000000002 323.1560121,12.423800000000014 316.38461209999997,13.175600000000003 309.6496121,13.955300000000008 302.9636121,14.763800000000003 296.3313121,15.602800000000002 289.7489121,16.475100000000012 283.2059121,17.384599999999992 276.6848121,18.336200000000005 270.1617121,19.336100000000002 263.6084121,20.388000000000005 257.0038121,21.491500000000016 250.3381121,22.644199999999998 243.6147121,23.841499999999996 236.8520121,25.07520000000001 230.0844121,26.334100000000007 223.3579121,27.6092 216.7108121,28.899900000000002 210.1626121,30.209000000000003 203.71681209999997,31.541690000000017 197.3632121,32.90539000000001 191.0808121,34.30977 184.8417121,35.76323000000001 178.62221209999998,37.269580000000005 172.4077121,38.830960000000005 166.19221209999998,40.4477 159.9787121,42.117930000000015 153.77891209999999,43.83739 147.6105121,45.60226 141.48951209999998,47.41048000000001 135.42781209999998,49.260670000000005 129.43331210000002,51.15218 123.51031210000001,53.08518000000001 117.6601121,55.060580000000016 111.88421210000001,57.07945000000001 106.1849121,59.14246 100.5650921,61.24977000000001 95.02805210000001,63.401120000000006 89.57843210000001,65.59594000000001 84.2268521,67.83229 78.99160210000001,70.10421000000001 73.89601210000001,72.40189000000001 68.9652721,74.71257 64.2232021,77.02306 59.6853121,79.32445000000001 55.3552321,81.61217 51.228222099999996,83.88479000000001 47.2946121,86.14311000000001 43.5466921,88.38719 39.9982821,90.60408000000001 36.67990209999999,92.76701 33.6194321,94.84623 30.8297421,96.81841 28.3068721,98.67222000000001 26.0324021,100.41338 23.9755221,102.05756000000001 22.1043821,103.62183 20.391002099999998,105.12168 18.8120821,106.57042000000001 17.348662100000002,107.97930000000001 15.9848721,109.35711 14.709292099999999,110.70613 13.5173171,112.02201000000001 12.4075941,113.29709000000001 11.3792031,114.52332000000001 10.430087100000001,115.69421 9.5565511,116.80592 8.7534841,117.85731000000001 8.015967100000001,118.84975 7.3458221,119.78893000000001 6.7442041,120.683205 6.2092291,121.540935 5.7379401,122.36972 5.3272911,123.17624900000001 4.9745991,123.96638700000001 4.6777406,124.74534600000001 4.4352352,125.51786700000001 4.2462894,126.28838900000001 4.1108389,127.061226 4.029064,127.83938 4.0,128.6208683 4.0231795,129.4025307 4.0990276,130.181111 4.2288081,130.953123 4.4146269,131.71471400000001 4.6594876,132.46150500000002 4.9674011,133.18839400000002 5.3435611000000005,133.88931300000002 5.7934431,134.558894 6.3192791,135.198666 6.9229661,135.811951 7.6070761000000005,136.402151 8.374758100000001,136.972945 9.2295351,137.528525 10.1748721,138.073921 11.2132731,138.615442 12.344507099999998,139.161254 13.5627451,139.72177 14.8654421,140.30316 16.2592121,140.90479 17.7503721,141.52462 19.3439321,142.15936 21.043612099999997,142.80466 22.8526621,143.45556 24.7762921,144.10754 26.8264521,144.75799 29.0249821,145.40748 31.397572099999998,146.05856 33.9757521,146.71456 36.798562100000005,147.37968 39.912742099999996,148.05918 43.3700221,148.7595 47.2132821,149.48707000000002 51.4571421,150.2394 56.0814521,151.0023 61.027672100000004,151.75754 66.2203621,152.48866 71.6085721,153.18722 77.1912421,153.85327 82.9811221,154.48856 88.98388210000002,155.09468 95.1930921,155.67308 101.5846921,156.22513 108.11821210000001,156.74961000000002 114.75201210000002,157.24362000000002 121.4515121,157.70574 128.1931121,158.13612 134.96701209999998,158.53629 141.77561210000002,158.90841 148.62301209999998,159.25445000000002 155.5112121,159.57625000000002 162.4396121,159.87560000000002 169.40461209999998,160.15424000000002 176.3997121,160.41372 183.41731209999998,160.65452000000002 190.4506121,160.87682 197.4941121,161.08093 204.54331209999998,161.26722 211.5954121,161.43618 218.6485121,161.58822 225.7021121,161.72339 232.75571209999998,161.84157 239.80951209999998,161.94268 246.86411209999997,162.02662 253.92031210000002,162.0933 260.9796121,162.14263 268.0435121,162.17487 275.1135121,162.19055 282.1909121,162.19022 289.27661209999997,162.1744 296.3714121,162.14363 303.4757121,162.09843 310.5896121,162.03934 317.7131121,161.96691 324.8459121,161.8817 331.9876121,161.78429 339.13751210000004,161.67528 346.2946121,161.55525 353.45801209999996,161.42482 360.6262121,161.28457 367.79791209999996,161.13466 374.9716121,160.97511 382.14611210000004,160.80593 389.3200121,160.62713 396.4921121,160.43873 403.6613121,160.24076 410.8265121,160.03324 417.98681209999995,159.81593 425.1413121,159.58842 432.2896121,159.35029 439.4313121,159.10111 446.5664121,158.84046 453.6950121,158.5679 460.8177121,158.28298 467.93501209999994,157.98538 475.0478121,157.67502000000002 482.1572121,157.35184 489.2647121,157.01577 496.3718121,156.6667 503.48041209999997,156.30451 510.59261210000005,155.92905000000002 517.7108121000001,155.5402 524.8374121,155.13838 531.9740121000001,154.72432 539.1215121,154.2988 546.2803121000001,153.86262 553.4496121,153.41669000000002 560.6282121,152.96192000000002 567.8137121,152.49933000000001 575.0031121000001,152.02937 582.1926121000001,151.55162 589.3781121000001,151.06564 596.5547121000001,150.57105 603.7170121000001,150.06755 610.8593121,149.55487 617.9755121000001,149.03286 625.0593121,148.50097 632.1053121,147.95712 639.1103121000001,147.39882 646.0734121,146.82349 652.9958121000001,146.22852 659.8805121,145.61117000000002 666.7321121000001,144.96859 673.5572121,144.29795000000001 680.3631121000001,143.59823 687.1576121,142.86931 693.9483121,142.11095 700.7430121,141.32278 707.5496121,140.50426000000002 714.3762121000001,139.65469000000002 721.2314121,138.773268 728.1237121,137.860437 735.0592121000001,136.918271 742.0406121000001,135.949447 749.0665121,134.957322 756.1313121000001,133.946036 763.2246121000001,132.920576 770.3314121000001,131.886823 777.4339121,130.851652 784.5160121,129.8220417 791.5644121000001,128.80447270000002 798.5686121,127.804826 805.5210121000001,126.828339 812.4166121000001,125.879609 819.2528121,124.962784 826.0287121000001,124.082137 832.7439121,123.241701 839.3991121000001,122.445143 845.9954121000001,121.695807 852.5345121,120.99675 859.0188121,120.35079200000001 865.4506121000001,119.76054300000001 871.8311121,119.228497 878.1602121000001,118.75708 884.4370121000001,118.34862000000001 890.6593121000001,118.00527000000001 896.8244121,117.72896 902.9288121,117.52141 908.9680121,117.38522 914.9368121,117.32372000000001 920.8295121,117.33968 926.6404121,117.43528 932.3638121,117.61204000000001 937.9944121000001,117.87082000000001 943.5267121,118.21237 948.9560121000001,118.638 954.2798121000001,119.14874 959.4974121000001,119.74521 964.6099121000001,120.42786100000001 969.6194121000001,121.19686800000001 974.5256121,122.049216 979.3184121,122.97745300000001 983.9783121,123.971404 988.4813121000001,125.01846 992.8020121,126.10323000000001 996.9077121000001,127.204732 1000.7621121,128.29949470000003 1003.8827121,129.2279" stroke="black" stroke-width="2.0" /></svg>