<?xml version="1.0" encoding="utf-8" ?>
<svg baseProfile="full" height="113.92078" version="1.1" width="1011.990173602" xmlns="http://www.w3.org/2000/svg" xmlns:ev="http://www.w3.org/2001/xml-events" xmlns:xlink="http://www.w3.org/1999/xlink"><defs /><polygon fill="none" points="1003.990173602,69.78663999999999 1000.3961736020001,68.87364269999999 995.144973602,67.445404 989.7778736020001,65.927719 984.539173602,64.441363 979.242173602,62.95871699999999 973.7581736019999,61.468081999999995 968.2150736020001,60.01378199999999 962.652873602,58.602959999999996 957.115673602,57.242189999999994 951.6031736020001,55.92597999999999 946.084973602,54.64131999999999 940.542273602,53.37846999999999 934.968573602,52.13069999999999 929.3694736020001,50.89453999999999 923.7558736020001,49.67022999999999 918.136473602,48.45815999999999 912.5170736020001,47.25805999999999 906.9007736020001,46.06893999999999 901.287273602,44.88952999999999 895.6749736020001,43.71967999999999 890.062173602,42.559679999999986 884.447673602,41.40988999999999 878.830673602,40.27077999999999 873.2106736019999,39.14287999999999 867.587473602,38.026529999999994 861.961273602,36.92164 856.332273602,35.82809999999999 850.700773602,34.74577999999999 845.067073602,33.67457999999999 839.4316736019999,32.61439999999999 833.7947736020001,31.56532999999999 828.156873602,30.528249999999993 822.5179736020001,29.504209999999993 816.8781736020001,28.494259999999997 811.2376736020001,27.49940999999999 805.5964736020001,26.52067999999999 799.954373602,25.559059999999988 794.311373602,24.61560999999999 788.667273602,23.691459999999992 783.022073602,22.78779999999999 777.375473602,21.905759999999994 771.7273736020001,21.04650999999999 766.077573602,20.211189999999988 760.4256736020001,19.40093999999999 754.7715736020001,18.61668999999999 749.115173602,17.858709999999995 743.456173602,17.12715999999999 737.794473602,16.422169999999994 732.129773602,15.743869999999994 726.4618736020001,15.09239999999999 720.7902736020001,14.46790999999999 715.114773602,13.870499999999986 709.434773602,13.299479999999988 703.750273602,12.753519999999995 698.0610736020001,12.231279999999991 692.367273602,11.731449999999995 686.668973602,11.25269999999999 680.966573602,10.793739999999993 675.260673602,10.353269999999995 669.551773602,9.930049999999987 663.840473602,9.523549999999993 658.1272736020001,9.133559999999996 652.412473602,8.759859999999989 646.6965736020001,8.402259999999991 640.9795736020001,8.060509999999994 635.261673602,7.734399999999987 629.5429736020001,7.42367999999999 623.8232736020001,7.128109999999985 618.102573602,6.847409999999989 612.380573602,6.581269999999996 606.6574736020001,6.329369999999997 600.933073602,6.091399999999993 595.2073736020001,5.867069999999998 589.480673602,5.656059999999982 583.752973602,5.458069999999992 578.0243736020001,5.272809999999993 572.2952736020001,5.100049999999996 566.5656736020001,4.939829999999986 560.835873602,4.792169999999999 555.105873602,4.657109999999989 549.3757736020001,4.5346899999999835 543.645573602,4.4249499999999955 537.915373602,4.327909999999989 532.184973602,4.243619999999993 526.4542736020001,4.172099999999986 520.723273602,4.1132399999999905 514.991773602,4.066799999999986 509.2596736020001,4.032599999999988 503.52707360200003,4.01039999999999 497.79397360200005,4.0 492.060373602,4.001179999999991 486.326473602,4.013729999999981 480.592473602,4.037440000000004 474.85837360200003,4.0721499999999935 469.124473602,4.11797 463.39097360200003,4.175049999999999 457.657973602,4.243549999999999 451.925373602,4.323629999999994 446.19347360200004,4.41543999999999 440.46207360200003,4.519139999999979 434.731173602,4.6348799999999954 429.00067360200006,4.762839999999983 423.27047360200004,4.90303999999999 417.540573602,5.055419999999984 411.810673602,5.219889999999978 406.08097360200003,5.396360000000001 400.351373602,5.584739999999982 394.621973602,5.784939999999992 388.89277360200003,5.99687999999999 383.16397360200006,6.22045 377.435673602,6.455589999999994 371.708073602,6.702449999999992 365.98127360200004,6.961179999999992 360.255373602,7.231989999999989 354.53047360200003,7.515059999999991 348.80667360200005,7.810559999999988 343.083973602,8.118699999999997 337.36217360200004,8.439649999999993 331.641373602,8.77360999999999 325.921473602,9.120659999999987 320.202373602,9.480839999999993 314.483973602,9.854159999999986 308.766473602,10.240639999999992 303.049873602,10.640289999999993 297.334173602,11.053139999999992 291.619473602,11.479199999999992 285.90607360200005,11.918469999999992 280.193973602,12.371129999999987 274.48357360200004,12.83751999999999 268.774873602,13.31792999999999 263.068073602,13.812709999999996 257.363173602,14.322159999999997 251.660273602,14.84662999999999 245.959473602,15.38644999999999 240.260573602,15.941929999999992 234.563673602,16.51334999999999 228.868773602,17.100959999999993 223.175873602,17.704979999999992 217.485173602,18.325669999999988 211.796673602,18.963249999999988 206.11057360200002,19.617939999999997 200.427173602,20.289999999999992 194.74657360199998,20.97988999999999 189.069173602,21.68826999999999 183.395173602,22.415789999999994 177.725073602,23.163099999999993 172.05897360199998,23.930859999999996 166.39727360199998,24.719719999999988 160.740273602,25.530329999999992 155.088173602,26.36332999999999 149.441173602,27.219379999999987 143.799273602,28.09917999999999 138.162373602,29.00341999999999 132.530173602,29.932849999999988 126.902373602,30.88826999999999 121.278973602,31.87115999999999 115.660973602,32.883399999999995 110.050273602,33.92665999999999 104.450073602,35.00239999999999 98.864183602,36.11178999999999 93.297533602,37.25582999999999 87.75296360200001,38.43611999999999 82.228783602,39.65531999999999 76.718563602,40.91720999999999 71.21119360200001,42.22693999999999 65.692583602,43.59185999999999 60.160933602,45.02032999999999 54.640133602,46.514799999999994 49.180253602,48.06903999999999 43.848043602,49.66983999999999 38.672523602,51.318389999999994 33.592243601999996,53.046429999999994 28.459663602,54.92302999999999 23.203203602,57.01640999999999 18.064123602000002,59.29207999999999 13.509018602,61.56860799999999 9.764524601999998,63.81443499999999 6.913002602000001,65.980064 5.449740602,67.366464 4.615703102,68.34853299999999 4.156934102,69.1342294 4.0,69.776802096 4.147811902,70.40474629999999 4.610259102,71.164318 5.454861602,72.098491 6.893181602,73.378772 9.707782602,75.37277499999999 13.513077602000001,77.474696 18.079243602,79.54036199999999 23.312693602,81.60979999999999 28.655443602,83.48244999999999 33.864253602,85.13403 39.010403602,86.63077999999999 44.248133602,88.03725999999999 49.641263601999995,89.38291 55.159373601999995,90.66978999999999 60.733703602,91.88678999999999 66.314143602,93.02950999999999 71.878573602,94.10127 77.431443602,95.11001999999999 82.987883602,96.06208999999998 88.55893360200001,96.96186999999999 94.150313602,97.81248 99.762363602,98.61609999999999 105.390573602,99.37374 111.029573602,100.08533 116.675073602,100.75095999999999 122.32427360199999,101.371 127.97587360200001,101.94603 133.629673602,102.47680999999999 139.28667360199998,102.96427 144.947673602,103.40939999999999 150.613273602,103.81311 156.283973602,104.17629 161.960073602,104.49978999999999 167.641673602,104.78450999999998 173.328673602,105.03214 179.021073602,105.24475999999999 184.71847360200002,105.42443999999999 190.420673602,105.57327999999998 196.126873602,105.69336999999999 201.83657360200002,105.78683 207.548773602,105.85540999999999 213.262773602,105.89985999999999 218.978173602,105.92078 224.69437360199998,105.91875999999999 230.41117360200002,105.89438999999999 236.12837360199998,105.8483 241.84597360200002,105.78107 247.563973602,105.69333999999999 253.282773602,105.58579 259.00227360200006,105.45915 264.722673602,105.31414999999998 270.443973602,105.15150999999999 276.166173602,104.97194999999999 281.889173602,104.77619999999999 287.61267360200003,104.565 293.336673602,104.33896999999999 299.06077360200004,104.09852 304.784973602,103.84401 310.50917360200003,103.57582 316.233173602,103.29432 321.956973602,102.99989 327.680673602,102.6929 333.404273602,102.37370999999999 339.127673602,102.04271999999999 344.8511736020001,101.70031999999999 350.574673602,101.34693999999999 356.298373602,100.98301 362.02207360200003,100.60895 367.746073602,100.22519999999999 373.47007360200007,99.83218 379.19417360200003,99.43032 384.918173602,99.02005 390.64207360200004,98.60171 396.365773602,98.17549 402.089273602,97.74161 407.81237360200004,97.30026999999998 413.535273602,96.85167999999999 419.25777360200004,96.39603 424.980073602,95.93354 430.702173602,95.46439 436.424173602,94.98879 442.14617360200003,94.50704999999999 447.86827360200004,94.01952999999999 453.59067360200004,93.52662999999998 459.313173602,93.02871999999999 465.03607360200004,92.52619999999999 470.75937360200004,92.01943999999999 476.482973602,91.50885 482.20687360200003,90.99481999999999 487.931073602,90.47771999999999 493.65547360200003,89.95786 499.380173602,89.43536999999999 505.10487360200005,88.91041999999999 510.829673602,88.38314 516.554473602,87.85369999999999 522.279173602,87.32224 528.003973602,86.7889 533.7286736020001,86.25384 539.453273602,85.71718999999999 545.177773602,85.17916 550.902273602,84.64005999999999 556.6267736020001,84.10022 562.3512736020001,83.55999 568.075673602,83.01969999999999 573.8001736020001,82.47968999999999 579.524573602,81.9403 585.248973602,81.40185 590.9732736020001,80.86470999999999 596.6976736020001,80.32918 602.421873602,79.79552999999999 608.145973602,79.263993 613.870073602,78.734787 619.593973602,78.20814299999999 625.317673602,77.68428499999999 631.041273602,77.163439 636.764773602,76.64582899999999 642.4881736020001,76.13167999999999 648.2113736020001,75.62121599999999 653.934473602,75.11468599999999 659.657473602,74.61236699999999 665.380473602,74.114533 671.103373602,73.62145999999998 676.8262736020001,73.133423 682.549173602,72.650696 688.272073602,72.173555 693.994973602,71.70227399999999 699.717973602,71.23712799999998 705.441073602,70.77841599999999 711.164173602,70.32646999999999 716.887473602,69.88162462 722.6107736020001,69.44421489999999 728.334173602,69.0145764 734.057573602,68.59304499999999 739.780973602,68.17995599999999 745.504373602,67.775646 751.227673602,67.38045299999999 756.950773602,66.99475199999999 762.6737736020001,66.61894699999999 768.3965736020001,66.253441 774.1191736019999,65.89863299999999 779.841773602,65.55492299999999 785.564373602,65.22270499999999 791.287173602,64.90237599999999 797.010273602,64.59432799999999 802.733973602,64.29898699999998 808.4583736019999,64.016866 814.183373602,63.74849899999999 819.9087736020001,63.49442599999999 825.634273602,63.25519399999999 831.359273602,63.03134899999999 837.0832736020001,62.823435999999994 842.805173602,62.63200199999999 848.524273602,62.45771499999999 854.239973602,62.30144999999999 859.9523736020001,62.16407999999999 865.662173602,62.046465999999995 871.3704736020001,61.94946599999999 877.079373602,61.87394799999999 882.791373602,61.82080799999999 888.509173602,61.79103999999999 894.234473602,61.78585599999999 899.965973602,61.80651399999999 905.699973602,61.85423199999999 911.429473602,61.93011599999999 917.145273602,62.03507799999999 922.835673602,62.170050999999994 928.4922736020001,62.337706999999995 934.116973602,62.54162499999999 939.722673602,62.78583599999999 945.332873602,63.07527799999999 950.982073602,63.41641299999999 956.6942736020001,63.81620499999999 962.3631736020001,64.27158999999999 968.014473602,64.78776399999998 973.6803736019999,65.37178799999998 979.109773602,65.99785499999999 984.321673602,66.66365299999998 989.5797736019999,67.40333799999999 995.024073602,68.244176 1000.323473602,69.13316669999999 1003.990173602,69.78663999999999" stroke="black" stroke-width="2.0" /></svg>