<?xml version="1.0" encoding="utf-8" ?>
<svg baseProfile="full" height="196.15293000000003" version="1.1" width="1011.991800146" xmlns="http://www.w3.org/2000/svg" xmlns:ev="http://www.w3.org/2001/xml-events" xmlns:xlink="http://www.w3.org/1999/xlink"><defs /><polygon fill="none" points="1003.991800146,96.07608 1000.446300146,95.84349 995.993000146,95.46660030000001 991.143400146,94.968883 985.9159001459999,94.36193300000001 980.3469001459999,93.66031500000001 974.4933001459999,92.878495 968.422400146,92.038246 962.1953001459999,91.157859 955.866800146,90.24607300000001 949.4819001459999,89.310163 943.0702001459999,88.35548 936.645900146,87.38392300000001 930.2176001459999,86.395357 923.790700146,85.3892 917.3676001459999,84.36441 910.9475001459999,83.31975 904.528000146,82.25499 898.1071001459999,81.17037 891.683200146,80.06615000000001 885.2554001459999,78.94272000000001 878.8231001459999,77.80055 872.3864001459999,76.64028 865.945300146,75.46269000000001 859.5001001459999,74.26857000000001 853.051000146,73.05875 846.598100146,71.83406000000001 840.1418001459999,70.59534000000001 833.6825001459999,69.34335 827.2202001459999,68.07871 820.755200146,66.80199 814.2872001459999,65.51376 807.8158001459999,64.21452000000001 801.340700146,62.904740000000004 794.8611001459999,61.58491 788.376200146,60.25564 781.8854001459999,58.917680000000004 775.3886001459999,57.57182000000001 768.8856001459999,56.21891000000001 762.3766001459999,54.85987 755.862200146,53.49568000000001 749.3430001459999,52.12736000000001 742.820000146,50.755860000000006 736.294300146,49.38217000000001 729.767100146,48.00726000000001 723.2396001459999,46.63214000000001 716.713100146,45.257850000000005 710.189200146,43.885450000000006 703.669300146,42.516020000000005 697.1550001459999,41.150980000000004 690.647600146,39.79191 684.148400146,38.44033 677.6585001459999,37.097730000000006 671.1790001459999,35.76556000000001 664.710600146,34.44523 658.254400146,33.1381 651.8107001459999,31.845749999999995 645.380100146,30.570049999999995 638.9625001459999,29.312820000000002 632.5576001459999,28.07578000000001 626.164900146,26.860560000000007 619.783400146,25.66873000000001 613.412100146,24.50179 607.0496001459999,23.361090000000004 600.694500146,22.24748000000001 594.3457001459999,21.16167 588.002000146,20.104370000000003 581.662500146,19.07632000000001 575.326000146,18.078279999999992 568.991800146,17.111030000000014 562.6590001459999,16.175360000000012 556.326800146,15.271900000000002 549.994800146,14.400940000000006 543.6625001459998,13.56277 537.3297001459999,12.757710000000003 530.996200146,11.986090000000004 524.661900146,11.248280000000008 518.327100146,10.544630000000012 511.991800146,9.875520000000009 505.656300146,9.24130000000001 499.320800146,8.642240000000001 492.985500146,8.078649999999996 486.650100146,7.5508000000000095 480.314700146,7.058970000000002 473.97880014599997,6.603420000000014 467.642200146,6.184430000000006 461.304300146,5.802180000000007 454.964800146,5.45665000000001 448.623500146,5.147829999999999 442.280400146,4.875720000000015 435.935500146,4.640320000000003 429.589300146,4.441660000000013 423.242200146,4.27976000000001 416.894900146,4.154629999999997 410.54790014599996,4.066290000000009 404.20160014600003,4.014740000000003 397.856000146,4.0 391.510800146,4.02206000000001 385.165500146,4.0809699999999935 378.819000146,4.176760000000002 372.470100146,4.309510000000003 366.117300146,4.478930000000005 359.75950014600005,4.684349999999995 353.396000146,4.925089999999997 347.02680014599997,5.200490000000002 340.65200014600003,5.509839999999997 334.272700146,5.852379999999997 327.89030014599996,6.227340000000012 321.506500146,6.634190000000004 315.123200146,7.072870000000009 308.741700146,7.543340000000001 302.363200146,8.045550000000006 295.988400146,8.57947 289.617900146,9.145080000000007 283.251900146,9.742380000000011 276.890200146,10.371460000000013 270.533000146,11.03246 264.180300146,11.72551 257.832600146,12.45071 251.490400146,13.208160000000007 245.154300146,13.997910000000005 238.825300146,14.82002 232.50420014600002,15.674730000000011 226.192000146,16.562430000000006 219.889500146,17.483490000000003 213.59760014600002,18.438299999999998 207.31680014600002,19.427229999999994 201.047700146,20.450670000000002 194.790800146,21.509110000000007 188.546900146,22.6032 182.317000146,23.733530000000002 176.102400146,24.900639999999996 169.904500146,26.104980000000012 163.725100146,27.34693 157.566200146,28.627070000000003 151.430000146,29.946489999999997 145.318600146,31.30628 139.234200146,32.707510000000006 133.17850014599998,34.151180000000004 127.153600146,35.63824 121.16150014600001,37.169740000000004 115.204600146,38.746680000000005 109.28560014600001,40.369890000000005 103.407670146,42.04001000000001 97.57389014600001,43.757470000000005 91.789230146,45.52349 86.064830146,47.339180000000006 80.418590146,49.202920000000006 74.873640146,51.11007000000001 69.456110146,53.05331 64.191840146,55.02492 59.098560146,57.01948000000001 54.184120146,59.033680000000004 49.448970146,61.06597000000001 44.891640146,63.116420000000005 40.544650146,65.17628 36.486350146,67.2098 32.792340146,69.16966000000001 29.496800145999998,71.01874000000001 26.587500146,72.74093 24.016590146,74.3431 21.724750146,75.84355000000001 19.659140146,77.26163 17.777630146,78.61419000000001 16.047970145999997,79.91475 14.448280146,81.17653 12.975609146,82.40988 11.637846146000001,83.61189 10.440952146,84.77324 9.383094146,85.88497000000001 8.454767146,86.941924 7.641903146000001,87.943033 6.929290146,88.89017000000001 6.308156146,89.785182 5.7739041460000005,90.631735 5.3196671460000005,91.43637600000001 4.938798946,92.20606500000001 4.625923446,92.94727300000001 4.377174646,93.665825 4.190212046,94.366999 4.064221326,95.055727 4.000000955,95.7368302 4.0,96.41531 4.064218536,97.096413 4.190207446,97.78514 4.377168346,98.486315 4.625915246,99.20486600000001 4.938788846,99.946073 5.319654146,100.715761 5.773890146,101.52040000000001 6.308139146,102.366952 6.929271146,103.26196300000001 7.641881145999999,104.20909800000001 8.454741146,105.210206 9.383065146,106.26716 10.440919145999999,107.37889 11.637808146000001,108.54023000000001 12.975568145999999,109.74225 14.448240145999998,110.9756 16.047920146,112.23738 17.777580146,113.53794 19.659090146,114.89049 21.724680145999997,116.30857 24.016520145999998,117.80901 26.587420146,119.41118 29.496710145999998,121.13337 32.792240146,122.98245 36.486230146000004,124.9423 40.544530146,126.97582 44.891510146,129.03568 49.448830146000006,131.08613 54.183980146,133.11842000000001 59.098410146000006,135.13262 64.191690146,137.12718 69.455960146,139.09879 74.873480146,141.04204000000001 80.41843014599999,142.94919000000002 86.064660146,144.81292 91.78906014600001,146.62862 97.573720146,148.39464 103.407500146,150.11211 109.285500146,151.78222 115.204400146,153.40543 121.161300146,154.98237 127.153400146,156.51387 133.178400146,158.00094 139.234000146,159.4446 145.318500146,160.84584 151.42980014600002,162.20562999999999 157.566000146,163.52505000000002 163.72500014599999,164.80518999999998 169.904300146,166.04714 176.102200146,167.25148000000002 182.31680014600002,168.41859 188.546700146,169.54893 194.790600146,170.64302 201.047500146,171.70146 207.316600146,172.7249 213.597400146,173.71383000000003 219.88940014599999,174.66864 226.19180014600002,175.5897 232.503900146,176.4774 238.825000146,177.33211 245.154100146,178.15421 251.490100146,178.94396 257.83240014600005,179.70141 264.180200146,180.42662 270.532900146,181.11967 276.890300146,181.78068000000002 283.252000146,182.40978 289.618100146,183.0071 295.988500146,183.57272 302.363100146,184.10665 308.741400146,184.60885000000002 315.122700146,185.07931000000002 321.50570014600004,185.51796000000002 327.889300146,185.92477 334.271600146,186.29968000000002 340.65090014599997,186.64217000000002 347.026000146,186.95147 353.395800146,187.22685 359.760000146,187.46761 366.118600146,187.67308 372.472100146,187.84261 378.821500146,187.97554000000002 385.16810014600003,188.07156 391.513000146,188.13069000000002 397.857100146,188.15293000000003 404.200900146,188.13827 410.545100146,188.08667000000003 416.889700146,187.99808000000002 423.23470014599997,187.87245000000001 429.579800146,187.70977 435.924900146,187.51013 442.269600146,187.27365 448.613600146,187.00043 454.956900146,186.69058 461.299200146,186.3442 467.64060014600005,185.96139 473.980900146,185.54226 480.32010014599996,185.08698 486.658200146,184.59574 492.995300146,184.06875 499.331300146,183.50619 505.666400146,182.90825999999998 512.0006001460001,182.27512000000002 518.3338001459999,181.60697 524.666300146,180.90403 530.9982001459999,180.16669000000002 537.329600146,179.39535 543.6609001459999,178.59037 549.992100146,177.75213000000002 556.3238001459999,176.88099 562.656100146,175.97728 568.989500146,175.04137 575.324500146,174.07391 581.661800146,173.07571000000002 588.002100146,172.04755 594.346300146,170.99019 600.6955001459999,169.90438 607.0507001459999,168.79082 613.4132001459999,167.65018 619.784300146,166.48331000000002 626.1654001459999,165.29156 632.557900146,164.0764 638.9625001459999,162.8394 645.379900146,161.58219000000003 651.810400146,160.3065 658.254000146,159.01413 664.710400146,157.70698000000002 671.178800146,156.38662 677.6585001459999,155.05443 684.148500146,153.71181 690.6477001459999,152.36022 697.155200146,151.00114 703.6695001459999,149.63611 710.1893001459999,148.26668 716.7132001459998,146.89428 723.239700146,145.52 729.767100146,144.1449 736.2944001459999,142.76999 742.820000146,141.3963 749.3430001459999,140.02481 755.862100146,138.65648 762.3766001459999,137.29229 768.8856001459999,135.93325 775.3886001459999,134.58034 781.8854001459999,133.23448000000002 788.376200146,131.89652 794.8611001459999,130.56725 801.340700146,129.24742 807.8158001459999,127.93764 814.2872001459999,126.6384 820.755200146,125.35017 827.2202001459999,124.07345000000001 833.6825001459999,122.80881000000001 840.1418001459999,121.55682 846.598100146,120.3181 853.051000146,119.09341 859.5001001459999,117.88359 865.945300146,116.68947 872.3864001459999,115.51188 878.8231001459999,114.35161000000001 885.2554001459999,113.20944 891.683200146,112.08601 898.1071001459999,110.98179 904.528000146,109.89717 910.9475001459999,108.83241000000001 917.3676001459999,107.78775 923.790700146,106.76296 930.2176001459999,105.756803 936.645900146,104.768237 943.0702001459999,103.79668000000001 949.4819001459999,102.841997 955.866800146,101.906087 962.1953001459999,100.99430100000001 968.422400146,100.11391400000001 974.4933001459999,99.27366500000001 980.3469001459999,98.491845 985.9159001459999,97.790227 991.143400146,97.183277 995.993000146,96.6855597 1000.446300146,96.30867 1003.991800146,96.07608" stroke="black" stroke-width="2.0" /></svg>