<?xml version="1.0" encoding="utf-8" ?>
<svg baseProfile="full" height="105.70149" version="1.1" width="1011.98684914" xmlns="http://www.w3.org/2000/svg" xmlns:ev="http://www.w3.org/2001/xml-events" xmlns:xlink="http://www.w3.org/1999/xlink"><defs /><polygon fill="none" points="1003.98684914,66.14242 1000.49984914,65.3401513 995.19684914,64.010047 989.68754914,62.549357 984.35144914,61.11919400000001 978.98804914,59.702344000000004 973.50894914,58.30881600000001 967.9580491400001,56.963307 962.39124914,55.674980000000005 956.83144914,54.44309 951.27044914,53.25918 945.6911491400001,52.112280000000005 940.0835491400001,50.993120000000005 934.4458491400001,49.894040000000004 928.78394914,48.80957000000001 923.10734914,47.738640000000004 917.42354914,46.68108 911.73774914,45.63617000000001 906.05244914,44.60273 900.36784914,43.579260000000005 894.68254914,42.564930000000004 888.99544914,41.55931 883.30574914,40.562020000000004 877.61314914,39.57279 871.91764914,38.59140000000001 866.2198491400001,37.61777000000001 860.52024914,36.65203 854.81924914,35.69431 849.11714914,34.74474000000001 843.41424914,33.80339 837.71064914,32.87036 832.00634914,31.945730000000005 826.30124914,31.0298 820.5953491399999,30.122960000000006 814.88864914,29.225630000000002 809.1813491400001,28.338210000000004 803.47334914,27.461130000000004 797.76504914,26.594820000000006 792.05654914,25.739759999999997 786.34814914,24.896780000000007 780.63984914,24.066740000000003 774.93164914,23.25052 769.22364914,22.448970000000003 763.51544914,21.66292 757.80684914,20.893190000000004 752.0975491400001,20.14056 746.38714914,19.405460000000005 740.67534914,18.68804 734.9620491400001,17.988470000000007 729.24684914,17.30695 723.52974914,16.64365 717.81064914,15.998780000000004 712.08944914,15.372530000000005 706.3661491400001,14.765060000000005 700.64084914,14.176360000000003 694.9134491399999,13.606349999999999 689.18414914,13.054970000000004 683.45284914,12.522150000000003 677.71974914,12.007830000000006 671.9847491400001,11.511940000000003 666.2479491400001,11.034410000000001 660.50954914,10.575150000000008 654.76944914,10.133990000000004 649.02764914,9.710740000000001 643.28434914,9.305200000000006 637.53934914,8.917180000000002 631.7927491400001,8.546480000000003 626.0445491400001,8.192910000000005 620.2946491399999,7.856280000000005 614.54294914,7.536360000000002 608.7895491400001,7.232779999999998 603.03424914,6.945110000000007 597.27714914,6.672910000000002 591.5182491400001,6.415760000000006 585.75764914,6.173220000000008 579.99544914,5.944860000000006 574.23184914,5.730270000000004 568.46704914,5.5290099999999995 562.70104914,5.340800000000009 556.93424914,5.165510000000005 551.16664914,5.0030200000000065 545.39834914,4.853200000000001 539.62964914,4.715920000000004 533.8604491399999,4.591040000000007 528.09074914,4.478450000000002 522.32084914,4.377990000000004 516.5505491399999,4.289560000000002 510.77984914000007,4.213060000000006 505.00884914,4.148400000000002 499.23744913999997,4.095510000000004 493.46584914,4.054310000000008 487.69394914000003,4.024709999999999 481.92174914,4.006630000000001 476.14944914,4.0 470.37694913999997,4.004740000000005 464.60444914000004,4.020780000000002 458.83184914000003,4.048140000000004 453.05934914,4.086820000000003 447.28694914,4.136820000000007 441.51464914,4.198140000000002 435.74254914000005,4.270790000000005 429.97064914000003,4.354770000000002 424.19904914,4.45008 418.42754914,4.556730000000002 412.65644914,4.67474 406.88554914,4.804130000000001 401.11494913999996,4.944950000000006 395.34474914,5.097210000000004 389.57484913999997,5.260940000000005 383.80544914,5.436189999999996 378.03644914,5.622959999999999 372.26794914,5.821290000000005 366.50004914,6.031240000000004 360.73274914,6.2528700000000015 354.96614913999997,6.486270000000005 349.20024914,6.7315300000000065 343.43494913999996,6.988730000000004 337.67054914000005,7.257940000000005 331.90684914,7.539250000000003 326.14394913999996,7.832750000000004 320.38184914,8.13852 314.62054914000004,8.456670000000003 308.86004914,8.787310000000005 303.10054914,9.130530000000007 297.34194914,9.486449999999998 291.58444914,9.855170000000001 285.82804914,10.236780000000003 280.07304914,10.631390000000003 274.31944913999996,11.039140000000003 268.56744914,11.460320000000003 262.81734914000003,11.895230000000005 257.06894914,12.344180000000001 251.32264914,12.807480000000005 245.57814914000002,13.285440000000001 239.83574914,13.778390000000002 234.09524914,14.286620000000006 228.35664914,14.810450000000003 222.62004914,15.350160000000002 216.88534914,15.906030000000001 211.15284914,16.478330000000007 205.42274914,17.067320000000002 199.69514914,17.67326 193.97044914,18.29641000000001 188.24894914,18.937220000000003 182.53124914,19.596449999999997 176.81744914,20.274840000000005 171.10804914,20.973170000000003 165.40324913999999,21.692190000000004 159.70314914,22.432680000000005 154.00814914,23.195390000000003 148.31804914,23.98104 142.63324914,24.790300000000002 136.95354914,25.623830000000005 131.27914914000002,26.482340000000008 125.60994914,27.36652 119.94594914,28.277160000000002 114.28754914000001,29.216040000000007 108.63644914,30.185360000000003 102.99540913999999,31.187129999999996 97.36804914,32.22309 91.75915914000001,33.29469 86.17391914000001,34.40357 80.61460914000001,35.55263000000001 75.07857914000002,36.745870000000004 69.55831914000001,37.98843 64.04164914,39.287090000000006 58.51942913999999,40.652150000000006 53.006389139999996,42.09223 47.546929139999996,43.607150000000004 42.20965914,45.18656 37.05347913999999,46.82448000000001 32.053559140000004,48.544970000000006 27.09827914,50.40675 22.02685914,52.51662 17.05539914,54.875960000000006 12.90399414,57.15871 9.80299414,59.195873000000006 7.54626914,61.026462 6.07959314,62.483162 5.15512414,63.594735 4.56049974,64.48677 4.18849104,65.243035 4.0,65.9133641 4.02643103,66.5248347 4.30979584,67.161461 4.82548604,67.87048 5.59272714,68.662824 6.71299414,69.60934400000001 8.49363914,70.847575 11.24422014,72.384242 14.80605914,73.967108 19.425269139999997,75.657937 24.87261914,77.34797 30.32022914,78.79711 35.54859914,80.02826 40.75730914,81.13141 46.08765914,82.15464 51.592079139999996,83.12157 57.22657914,84.03536 62.91615914,84.89008 68.60704914,85.68571 74.27563914000001,86.42822000000001 79.92699914,87.1263 85.57730914000001,87.78575000000001 91.23869914000001,88.41063 96.91812914,89.00418 102.61728914,89.56899 108.33274914,90.10699 114.05924914,90.61919 119.79224914000001,91.10662 125.52854914000001,91.57049 131.26624913999999,92.01216 137.00464914,92.43308 142.74404914,92.83444 148.48524914,93.21688 154.22874914000002,93.58096 159.97484914,93.92721 165.72384914,94.25616000000001 171.47554914,94.56831 177.22964914,94.86415 182.98604914,95.14405000000001 188.74424914,95.40834000000001 194.50394914,95.65739 200.26504914000003,95.89153 206.02714914,96.11113 211.79014914,96.31655 217.55384914,96.50807 223.31804914,96.68569000000001 229.08274914,96.84934 234.84764914000002,96.99895000000001 240.61284914,97.13446 246.37794914,97.25579 252.14304914,97.36289000000001 257.90804914,97.45569 263.67274914,97.53404 269.43714914,97.59772000000001 275.20104914,97.64652 280.96454914,97.68022 286.72764914000004,97.69862 292.49024914,97.70149 298.25254914000004,97.68862 304.01434914,97.65982 309.77584914,97.61504000000001 315.53714914,97.55431 321.29824914000005,97.47768 327.05914914,97.38516000000001 332.81994914,97.27679 338.58064914,97.15261000000001 344.34124914,97.01264 350.10174914,96.85693 355.86214914,96.68558 361.62254914,96.49881 367.38294914,96.2968 373.14324914,96.07975 378.90344914,95.84787 384.66344913999995,95.60137 390.42334914,95.34043 396.18304914,95.06526000000001 401.94244914,94.77609000000001 407.70144913999997,94.4732 413.46024914,94.15690000000001 419.21864913999997,93.82748000000001 424.97684913999996,93.48525000000001 430.73494914,93.13050000000001 436.49304914000004,92.76353 442.25144914000003,92.38462 448.01024914000004,91.99406 453.76974914,91.59230000000001 459.53024913999997,91.18015 465.29204914,90.75845000000001 471.05524914,90.32804 476.81994914,89.88977 482.58624914,89.44451000000001 488.35424914,88.99311 494.12364914,88.53645 499.89454914000004,88.0754 505.66664914,87.61067 511.43974914,87.1426 517.21364914,86.67151 522.98814914,86.19771 528.76314914,85.72151 534.53844914,85.24322000000001 540.31394914,84.76314 546.08954914,84.28158 551.86504914,83.79886 557.64044914,83.31527 563.4156491399999,82.83118 569.19054914,82.34694 574.96524914,81.86289000000001 580.73964914,81.3794 586.51374914,80.8968 592.2874491399999,80.41546 598.06084914,79.93572 603.83404914,79.45792 609.60684914,78.9824 615.37954914,78.50938000000001 621.15194914,78.03908 626.92414914,77.57168 632.69614914,77.1074 638.46794914,76.64644 644.23964914,76.189008 650.01114914,75.735304 655.78244914,75.285533 661.55354914,74.839903 667.32444914,74.398633 673.09514914,73.96194700000001 678.8657491399999,73.530069 684.63614914,73.103222 690.40634914,72.681627 696.1764491399999,72.265506 701.94654914,71.855079 707.71664914,71.45056600000001 713.4867491399999,71.052181 719.2570491399999,70.660117 725.02744914,70.274556 730.79794914,69.895685 736.5686491399999,69.523692 742.33934914,69.158767 748.1101491400001,68.80109900000001 753.88074914,68.450879 759.65124914,68.10830200000001 765.42124914,67.773622 771.19084914,67.447191 776.9599491399999,67.1293615 782.72854914,66.8204844 788.49674914,66.5209068 794.26454914,66.23097324 800.03234914,65.9510258 805.8001491399999,65.6814048 811.56834914,65.4224058 817.33714914,65.174237 823.10654914,64.937105 828.87644914,64.71122 834.6464491400001,64.49679800000001 840.41624914,64.294058 846.1851491399999,64.103221 851.95244914,63.924533000000004 857.71754914,63.758485 863.48004914,63.605689000000005 869.24024914,63.466746 874.99874914,63.342246 880.75674914,63.232775000000004 886.51584914,63.138926000000005 892.27814914,63.06127600000001 898.0451491399999,63.000287 903.8163491399999,62.956407000000006 909.58954914,62.930086 915.36064914,62.92175 921.12354914,62.931764 926.8706491400001,62.960507 932.59784914,63.008725000000005 938.3086491399999,63.077321000000005 944.01484914,63.16737800000001 949.7362491399999,63.280328000000004 955.4996491400001,63.418359 961.26974914,63.583549000000005 967.0145491400001,63.777889 972.77894914,64.005901 978.4074491399999,64.26395 983.85834914,64.55342300000001 989.29714914,64.888096 994.95684914,65.295231 1000.41694914,65.7717557 1003.98684914,66.14242" stroke="black" stroke-width="2.0" /></svg>