<?xml version="1.0" encoding="utf-8" ?>
<svg baseProfile="full" height="171.14657" version="1.1" width="1012.02001227" xmlns="http://www.w3.org/2000/svg" xmlns:ev="http://www.w3.org/2001/xml-events" xmlns:xlink="http://www.w3.org/1999/xlink"><defs /><polygon fill="none" points="1004.02001227,117.316 1000.67131227,116.179368 996.5580122700001,114.658882 992.1153122700001,112.910135 987.34681227,110.986605 982.36921227,108.98734 977.30091227,107.00355 972.17331227,105.09031 966.95381227,103.24958000000001 961.60871227,101.46794 956.1137122700001,99.73668 950.4558122700001,98.04975 944.6317122700001,96.39767 938.6461122700001,94.77007 932.5144122700001,93.15676 926.2635122700001,91.55068 919.92311227,89.95478 913.51871227,88.37278 907.06941227,86.80626000000001 900.58681227,85.25453 894.07491227,83.71611 887.5361122700001,82.19021000000001 880.9728122700001,80.67611 874.38781227,79.17315 867.7844122700001,77.68068 861.1657122700001,76.1984 854.5348122700001,74.72641999999999 847.8940122700001,73.26477 841.24521227,71.81331 834.58981227,70.37178 827.92851227,68.93984 821.2616122700001,67.51724000000002 814.5896122700001,66.10382 807.9129122700001,64.69946 801.2318122700001,63.30401 794.5469122700001,61.91738 787.8586122700001,60.539440000000006 781.1676122700001,59.17024000000001 774.47431227,57.80993 767.77911227,56.45863 761.08271227,55.116460000000004 754.3853122700001,53.78356000000001 747.6873122700001,52.46003 740.9893122700001,51.14601999999999 734.29131227,49.841809999999995 727.5938122700001,48.54767 720.8967122700001,47.26387 714.2002122700001,45.99064 707.50411227,44.72821999999999 700.80851227,43.47681 694.1131122700001,42.23661000000001 687.41771227,41.007810000000006 680.72251227,39.790620000000004 674.02731227,38.58525 667.3324122700001,37.39193999999999 660.6380122700001,36.21095000000001 653.9443122700001,35.04252000000001 647.25171227,33.88699000000001 640.5606122700001,32.744780000000006 633.8712122700001,31.61632999999999 627.18371227,30.502040000000008 620.4981122700001,29.402320000000003 613.81451227,28.317520000000002 607.13281227,27.24803 600.45281227,26.194199999999995 593.7744122700001,25.156410000000008 587.0977122700001,24.13510000000001 580.42281227,23.130700000000004 573.74981227,22.14367 567.07941227,21.17446000000001 560.4119122700001,20.22357000000001 553.74801227,19.29149000000001 547.08851227,18.3789 540.43371227,17.486559999999997 533.7840122700001,16.615200000000016 527.1395122700001,15.765500000000003 520.50011227,14.938000000000002 513.86551227,14.133500000000012 507.23521227,13.352500000000006 500.60871227,12.595699999999994 493.98571227,11.863600000000005 487.36641227,11.1571 480.75161226999995,10.476800000000011 474.14261227,9.823499999999996 467.54091227000004,9.1982 460.94881227,8.601400000000012 454.36861226999997,8.03439999999999 447.80261227,7.498800000000003 441.25221227000003,6.996299999999991 434.71791227,6.5286000000000115 428.19961227,6.097000000000008 421.69621227,5.703100000000006 415.20621227,5.348199999999991 408.72721227,5.033500000000004 402.25711227,4.759600000000006 395.79411227,4.527000000000001 389.33711227000003,4.3359999999999985 382.88561227,4.187300000000008 376.43951227,4.081300000000013 369.99921227,4.0186999999999955 363.56581227000004,4.0 357.14041227,4.025999999999996 350.72391227,4.097200000000015 344.31721227,4.214400000000012 337.92051226999996,4.3781999999999925 331.53401227,4.589400000000012 325.15761227,4.848600000000005 318.79091227000004,5.156500000000008 312.43351227,5.513300000000001 306.08471227,5.919300000000007 299.74371226999995,6.375 293.40971227,6.880600000000001 287.08151227,7.4365999999999985 280.75801227,8.043599999999998 274.43791226999997,8.7016 268.12011227,9.410399999999996 261.80391227,10.1695 255.48931227,10.978499999999997 249.17631226999998,11.837100000000007 242.86571227,12.744699999999995 236.55861227,13.700700000000012 230.25651227,14.705100000000002 223.96111227,15.757500000000007 217.67441226999998,16.857600000000005 211.39881227,18.004980000000003 205.13701226999999,19.199110000000005 198.89171227,20.439480000000003 192.66591227,21.72636 186.46211226999998,23.060270000000003 180.28241227,24.44184 174.12791227,25.871730000000014 167.99971227,27.350700000000003 161.89821227,28.879590000000007 155.82411227,30.45921 149.77871227,32.09017 143.76421227,33.77288 137.78291227,35.50751000000001 131.83791227,37.29403000000001 125.93331227,39.1327 120.07361227,41.02395 114.26411227,42.96782999999999 108.51021227,44.96399000000001 102.81771227,47.01169 97.19359227,49.110609999999994 91.64680227,51.26047 86.18769227,53.45986 80.82741227,55.7062 75.57756226999999,57.99588000000001 70.45171226999999,60.32535000000001 65.46645226999999,62.68965000000001 60.639292270000006,65.08145999999999 55.98676227,67.49166 51.52414227,69.91033999999999 47.27204227,72.32583 43.25470227,74.7214 39.49225227,77.07811000000001 35.99585227,79.37838 32.768222269999995,81.60901000000001 29.807432269999996,83.76055 27.104982269999997,85.82591000000001 24.64596227,87.80145 22.411192269999997,89.68694 20.38046227,91.48490000000001 18.53961227,93.19844 16.87710227,94.82881 15.380302270000001,96.37719 14.03523227,97.84583 12.827213270000001,99.2382 11.741717269999999,100.55874 10.76524927,101.8126 9.88631927,103.00623 9.09426827,104.14642 8.37938127,105.23948 7.73316527,106.29102 7.14971827,107.30509 6.62554527,108.28385 6.1575492700000005,109.228554 5.74268827,110.140083 5.37788027,111.019187 5.06000327,111.86666100000001 4.78632207,112.684759 4.55430947,113.478215 4.36131847,114.252512 4.20498477,115.013287 4.08595266,115.764515 4.013850408,116.5048848 4.0,117.23327233 4.05666085,117.9497838 4.19880527,118.65553700000001 4.44098607,119.352754 4.77539597,120.042758 5.186900270000001,120.723102 5.667475270000001,121.395838 6.208955270000001,122.065834 6.804126269999999,122.738397 7.45440727,123.415639 8.162972270000001,124.099152 8.93286827,124.79074800000001 9.767423269999998,125.492193 10.672035269999999,126.204615 11.65304527,126.929259 12.71743427,127.66778000000001 13.87290527,128.42243000000002 15.12808227,129.19636 16.494412269999998,129.99299000000002 17.987382269999998,130.81534 19.62479227,131.66688 21.42642227,132.5515 23.41426227,133.47225 25.61261227,134.43002 28.04551227,135.42439000000002 30.73398227,136.45342 33.69297227,137.51387 36.93135227,138.60297 40.45955227,139.72031 44.29363227,140.8613 48.44193227,142.01746 52.90020227,143.17828 57.65262227,144.33297 62.67850227,145.47267 67.95491227000001,146.5885 73.45126227,147.67217 79.13249226999999,148.71786 84.96581226999999,149.72334 90.92705227,150.68880000000001 96.99790226999998,151.61299 103.16053226999999,152.49528 109.39811227,153.33614 115.69571227,154.13714 122.04151227,154.89973 128.42611227,155.62383 134.84181227,156.30951 141.28281227,156.95731 147.74561227,157.56810000000002 154.22861226999999,158.14301 160.73191226999998,158.6832 167.25461227,159.18977999999998 173.79571227,159.66383000000002 180.35341227,160.10644 186.92501227,160.51871 193.50751227,160.90147000000002 200.09791227,161.25467 206.69311227,161.57815 213.29081227,161.8718 219.88891227,162.13556 226.48571227,162.36944 233.07981227,162.5734 239.67031227,162.74713 246.25671227,162.89016 252.83871227,163.00206 259.41691227,163.08239 265.99181226999997,163.13071 272.56461227,163.14657 279.13691227,163.12973 285.71011226999997,163.08041 292.28511227,162.99889 298.86281227,162.88542 305.44341227,162.74026 312.02691226999997,162.56365 318.61301227,162.35586 325.20081227,162.11714 331.78991227,161.84769 338.37981227,161.54772 344.97031226999997,161.21739 351.56161227,160.85689 358.15421227,160.46636 364.74871227,160.04592 371.34611227,159.59577000000002 377.94761227000004,159.1166 384.55461227,158.60922 391.16841227,158.07441 397.79051227,157.51295 404.42261227,156.92557 411.06631227,156.31298 417.72351227,155.6759 424.39601227,155.01542 431.08561227,154.33318 437.79341227,153.63089000000002 444.52041227,152.91036 451.26671226999997,152.17347 458.03211226999997,151.42222 464.81581227,150.6587 471.61631227000004,149.88502 478.43191227,149.10265 485.26061227,148.31269 492.10031227,147.51625 498.94921227000003,146.71443 505.80521227,145.90838 512.66641227,145.09923 519.5307122700001,144.28813 526.39641227,143.47621 533.26141227,142.66435 540.12431227,141.85336 546.9837122700001,141.044 553.8387122700001,140.23701 560.68851227,139.43308000000002 567.5326122700001,138.63285 574.37101227,137.83695 581.20371227,137.04596 588.0311122700001,136.26038 594.85321227,135.48071 601.67041227,134.70745 608.4831122700001,133.94109 615.29131227,133.18213 622.0955122700001,132.43104 628.89591227,131.68833 635.69271227,130.95444 642.48621227,130.22975 649.2767122700001,129.51458 656.06421227,128.80928 662.8489122700001,128.11417 669.6309122700001,127.42959 676.4103122700001,126.755891 683.1871122700001,126.093414 689.96131227,125.44251 696.73291227,124.803562 703.50171227,124.176961 710.26781227,123.56309900000001 717.03091227,122.96237 723.7908122700001,122.37516600000001 730.54731227,121.801882 737.3002122700001,121.24291 744.0492122700001,120.698677 750.79401227,120.169678 757.5346122700001,119.656406 764.2708122700001,119.15934200000001 771.00291227,118.678959 777.7310122700001,118.2157181 784.4553122700001,117.7700761 791.17641227,117.3424743 797.8945122700001,116.93329010000001 804.60981227,116.54288340000001 811.32221227,116.171627 818.0314122700001,115.81990400000001 824.7369122700001,115.48810300000001 831.4379122700001,115.176615 838.13331227,114.885873 844.8222122700001,114.616577 851.50381227,114.369518 858.1775122700001,114.145464 864.84301227,113.945161 871.5004122700001,113.76934 878.14981227,113.618718 884.7915122700001,113.493959 891.42551227,113.395674 898.05111227,113.324473 904.66701227,113.280953 911.2716122700001,113.265685 917.86261227,113.279216 924.43691227,113.322092 930.98961227,113.394805 937.51471227,113.497718 944.00461227,113.631037 950.4501122700001,113.795046 956.83221227,113.990768 963.11641227,114.21844 969.2565122700001,114.476809 975.2017122700001,114.765195 980.90021227,115.09080300000001 986.30521227,115.45907700000001 991.38431227,115.871024 996.11881227,116.3301171 1000.50031227,116.8387879 1004.02001227,117.316" stroke="black" stroke-width="2.0" /></svg>