<?xml version="1.0" encoding="utf-8" ?>
<svg baseProfile="full" height="217.05058" version="1.1" width="1012.02839677" xmlns="http://www.w3.org/2000/svg" xmlns:ev="http://www.w3.org/2001/xml-events" xmlns:xlink="http://www.w3.org/1999/xlink"><defs /><polygon fill="none" points="1004.02839677,150.1394 1000.16099677,148.510403 995.70269677,146.439965 991.18089677,144.190852 986.5710967699999,141.830913 981.89709677,139.43894 977.17259677,137.07698 972.37759677,134.7903 967.47499677,132.58862 962.43449677,130.45767 957.2281967700001,128.38547 951.83039677,126.36241 946.2183967699999,124.37483 940.3731967699999,122.40563 934.2834967699999,120.43736 927.9517967699999,118.45322999999999 921.39269677,116.44757 914.62339677,114.42387 907.66259677,112.38485999999999 900.52749677,110.33153999999999 893.23169677,108.26410999999999 885.7875967699999,106.18464999999999 878.20859677,104.09549999999999 870.5095967699999,101.99886 862.70599677,99.89677999999999 854.8128967700001,97.79220999999998 846.8436967700001,95.68826999999999 838.80999677,93.5874 830.72079677,91.49125 822.58259677,89.40064 814.40009677,87.31604999999999 806.17869677,85.238 797.92419677,83.16711 789.6430967699999,81.10408 781.34219677,79.04986 773.0280967699999,77.00619999999999 764.70549677,74.97482 756.37789677,72.95701 748.04699677,70.95367 739.71299677,68.96529 731.3751967699999,66.99185999999999 723.03339677,65.03323999999999 714.68809677,63.0895 706.3407967699999,61.160889999999995 697.99399677,59.24785 689.6505967699999,57.35112999999998 681.31369677,55.472049999999996 672.98539677,53.611869999999996 664.66729677,51.77168999999999 656.36019677,49.9524 648.06399677,48.15469999999999 639.77829677,46.3792 631.50249677,44.6263 623.23669677,42.896399999999986 614.9811967699999,41.19030000000001 606.7368967699999,39.50859999999999 598.50499677,37.8519 590.28699677,36.2213 582.08409677,34.61789999999999 573.89769677,33.042699999999996 565.72829677,31.49669999999999 557.57659677,29.980799999999988 549.44279677,28.495899999999992 541.3269967699999,27.0428 533.22949677,25.622299999999996 525.15119677,24.235400000000013 517.09319677,22.883100000000013 509.05729677,21.566400000000016 501.04539676999997,20.286299999999983 493.05979677,19.043999999999983 485.10249676999996,17.841199999999986 477.17539676999996,16.67949999999999 469.27969676999993,15.56019999999998 461.41619677,14.484700000000004 453.58559676999994,13.454199999999986 445.7880967699999,12.469699999999989 438.02429677,11.532399999999996 430.29509677,10.643399999999986 422.60199676999997,9.803699999999992 414.94669676999996,9.014399999999995 407.33149677,8.276499999999999 399.75859676999994,7.591000000000008 392.23099677,6.959800000000001 384.75179676999994,6.384799999999984 377.32439676999996,5.867499999999978 369.95239677,5.409500000000008 362.63939676999996,5.0120000000000005 355.38929676999993,4.676399999999973 348.20509676999995,4.405099999999976 341.08799676999996,4.200499999999977 334.03759677,4.064799999999991 327.05169677,4.0 320.12689677,4.007800000000003 313.25889677,4.090100000000007 306.44319676999993,4.247500000000002 299.67569677,4.480499999999978 292.95329676999995,4.7894000000000005 286.27299676999996,5.175000000000011 279.63259677,5.637799999999999 273.03009677,6.1784999999999854 266.46399676999994,6.797200000000004 259.93369677,7.4938999999999965 253.43879677,8.268399999999986 246.97939677,9.120800000000003 240.55609677,10.050799999999981 234.16979677,11.058399999999978 227.82169677,12.143299999999982 221.51239677,13.305599999999998 215.24219677000002,14.545299999999997 209.01099677,15.862499999999983 202.81819677,17.257599999999996 196.66289676999997,18.73060000000001 190.54469677,20.28049999999999 184.46479677,21.90549999999999 178.42549677,23.603799999999993 172.43069677,25.372899999999987 166.48529677,27.209699999999998 160.59539677,29.111199999999997 154.76779677,31.074300000000008 149.00989677,33.0954 143.32909677,35.17049999999999 137.73319677,37.295 132.22949677000003,39.46419999999999 126.82609676999999,41.67389999999999 121.53109677,43.919499999999985 116.35189677000001,46.19619999999999 111.29539677,48.49849999999999 106.36769677,50.82131 101.57430677,53.159319999999994 96.92067677,55.507369999999995 92.41180677,57.85997999999999 88.05172676999999,60.211579999999984 83.84324677000001,62.55669 79.78794676999999,64.89021 75.88692677,67.20773999999999 72.14071677000001,69.50527999999998 68.54883677,71.77902 65.10963677000001,74.02548999999999 61.82044677,76.24167999999999 58.67758677,78.42510999999999 55.67713677,80.57395 52.81524677,82.68682999999999 50.08769677,84.76257 47.489816770000004,86.80023 45.01661677,88.79914 42.662816770000006,90.75895 40.42295677,92.6796 38.29182677,94.56132 36.26479677,96.40465 34.337256769999996,98.21017 32.50461677,99.97858 30.762276770000003,101.71062 29.10575677,103.40710999999999 27.53063677,105.06895 26.032656770000003,106.69707 24.60777677,108.29247 23.25264677,109.85624999999999 21.96422677,111.38953 20.73956677,112.89334 19.57578677,114.36867 18.47010677,115.81645999999999 17.41981677,117.23760999999999 16.42234677,118.63300999999998 15.47518677,120.0035 14.57593677,121.34991 13.72243177,122.67300999999999 12.91316177,123.97345999999999 12.14682977,125.25184999999999 11.422099769999999,126.50883999999999 10.73762277,127.74506 10.092051770000001,128.96116999999998 9.48405377,130.15780999999998 8.912321769999998,131.33562 8.37558177,132.49521 7.87259377,133.63719 7.40215877,134.76215 6.96315177,135.87063999999998 6.55519477,136.96313999999998 6.1786217699999995,138.03976 5.83366277,139.10032999999999 5.51999177,140.144861 5.23693477,141.173881 4.98368927,142.188338 4.75941907,143.18947599999998 4.56331277,144.178754 4.39463237,145.157789 4.25285107,146.128256 4.13942167,147.090912 4.05738816,148.045882 4.00984306,148.993564 4.0,149.9346167 4.031330559,150.8699486 4.10772172,151.800716 4.23366897,152.72834699999999 4.41479097,153.654367 4.66423457,154.575027 5.00252917,155.479651 5.43248477,156.362278 5.93606877,157.22413699999998 6.50039277,158.067543 7.119390770000001,158.895492 7.786572769999999,159.711121 8.49719977,160.51686 9.250150770000001,161.31396999999998 10.04442377,162.10372999999998 10.87875177,162.88757999999999 11.75188077,163.66696 12.664171770000001,164.44256 13.61657677,165.21478 14.610026770000001,165.98411 15.64541677,166.75112 16.72358677,167.51644 17.845276769999998,168.28084 19.01141677,169.04502 20.22383677,169.8093 21.48462677,170.57395 22.79600677,171.33929 24.160276770000003,172.10574 25.57981677,172.87377 27.05709677,173.64398 28.59465677,174.41709 30.19508677,175.19396 31.86151677,175.97519 33.59785677,176.76099 35.408286770000004,177.5516 37.29719677,178.3473 39.269246769999995,179.14842 41.32930677,179.95541 43.482446769999996,180.76881 45.73391677,181.5893 48.08910677,182.41778 50.55355677,183.25528 53.133616769999996,184.1019 55.83634677,184.95694 58.66908677,185.8195 61.63947677,186.68858 64.75551677,187.563 68.02572677,188.44153 71.45945677,189.32292 75.06740677,190.20608 78.86200677,191.09078 82.85612677,191.97757 87.06196677,192.86722 91.48999677,193.76071 96.14746677,194.65938 101.03653677000001,195.5649 106.15229677,196.47834999999998 111.48399677,197.39457 117.01709677,198.30525999999998 122.73559677,199.20179 128.62419677000003,200.07575 134.67319677,200.91949 140.88059677,201.7274 147.24859677,202.49846 153.77659677,203.23266999999998 160.45969677,203.93018 167.28809677,204.59127 174.24539677,205.21644 181.30979677000002,205.80412 188.45919677,206.35047 195.67339677,206.85219 202.93519677,207.30671999999998 210.23179677000002,207.71213999999998 217.55469677,208.06699 224.89859676999998,208.36969 232.25969677,208.61871 239.63579676999998,208.81261 247.02579677,208.95003 254.43049677000002,209.02963 261.85169676999993,209.05058 269.29169676999993,209.01328999999998 276.75249677,208.91827999999998 284.23549676999994,208.76603 291.74189677,208.557 299.27219677,208.29162 306.82659677,207.97039999999998 314.40559677,207.59389 322.01019676999994,207.16264 329.64189676999996,206.67717 337.30279677,206.1379 344.99559677,205.54518 352.72379677,204.89945999999998 360.49119677,204.20193999999998 368.30199676999996,203.45395 376.16019676999997,202.65681999999998 384.06989676999996,201.81188 392.03529676999995,200.92046 400.06059676999996,199.98399999999998 408.1501967699999,199.00460999999999 416.30729677,197.98498999999998 424.53419676999994,196.92815 432.83169676999995,195.83747 441.19899677,194.71677 449.63349676999997,193.57031999999998 458.13079676999996,192.40187 466.68519676999995,191.21429 475.28969677,190.01067 483.93649676999996,188.79433999999998 492.61659676999994,187.56889 501.32019677,186.3381 510.03679677,185.10563 518.75609677,183.87429 527.4697967699999,182.64652 536.1716967699999,181.42448 544.8569967699999,180.21003 553.5231967699999,179.00476 562.1694967699999,177.80996 570.79619677,176.62672 579.40369677,175.45604 587.99269677,174.29892999999998 596.56369677,173.15636 605.11729677,172.0293 613.65409677,170.91868 622.17479677,169.82535 630.6797967699999,168.74991 639.1695967699999,167.69299999999998 647.6445967699999,166.65523 656.1048967699999,165.63720999999998 664.55069677,164.63958 672.98219677,163.66297 681.39919677,162.70801 689.80169677,161.77534 698.1898967699999,160.86558 706.56359677,159.97934999999998 714.92279677,159.11726 723.26759677,158.27990599999998 731.59799677,157.467885 739.91389677,156.681816 748.21479677,155.92232099999998 756.50029677,155.19002899999998 764.76979677,154.485565 773.02229677,153.809551 781.25709677,153.162631 789.4728967699999,152.54557499999999 797.66879677,151.95916599999998 805.84389677,151.404153 813.9972967699999,150.8812524 822.12839677,150.39115089999999 830.23619677,149.9344995 838.31969677,149.5119155 846.37649677,149.12401699999998 854.4035967699999,148.771411 862.39699677,148.454667 870.3519967699999,148.174299 878.26299677,147.93084199999998 886.12439677,147.724832 893.9299967699999,147.556679 901.67379677,147.426649 909.3495967700001,147.334817 916.94999677,147.279875 924.46169677,147.258941 931.86569677,147.26894099999998 939.13829677,147.30663099999998 946.25369677,147.36924299999998 953.18419677,147.456694 959.9013967699999,147.569022 966.37949677,147.705453 972.59839677,147.86786899999998 978.5485967699999,148.070524 984.2327967699999,148.326866 989.66199677,148.646888 994.85319677,149.052427 999.8383967699999,149.5745599 1004.02839677,150.1394" stroke="black" stroke-width="2.0" /></svg>