<?xml version="1.0" encoding="utf-8" ?>
<svg baseProfile="full" height="240.06819000000002" version="1.1" width="1011.94823607" xmlns="http://www.w3.org/2000/svg" xmlns:ev="http://www.w3.org/2001/xml-events" xmlns:xlink="http://www.w3.org/1999/xlink"><defs /><polygon fill="none" points="1003.94823607,164.0144 999.47663607,162.013112 994.43653607,159.489839 989.43193607,156.798371 984.42633607,154.040574 979.41883607,151.30401 974.38573607,148.65213 969.27803607,146.12318 964.0571360700001,143.70704999999998 958.69373607,141.38483 953.16163607,139.14202 947.43733607,136.96372 941.49923607,134.82944 935.32943607,132.7175 928.91713607,130.60522 922.25983607,128.475 915.35663607,126.32148999999998 908.20953607,124.14039 900.82503607,121.92675 893.2141360700001,119.67667 885.38883607,117.39321 877.36143607,115.08126999999999 869.14243607,112.74511999999999 860.73993607,110.38784 852.15933607,108.01032000000001 843.40843607,105.61272 834.49863607,103.19565999999999 825.4452360700001,100.76034999999999 816.2669360699999,98.30966 806.98223607,95.8487 797.60763607,93.38219999999998 788.15663607,90.91395999999999 778.63913607,88.44669999999999 769.06243607,85.98216 759.4339360700001,83.5219 749.76243607,81.06764 740.05703607,78.62124 730.32793607,76.18494 720.58413607,73.76177999999999 710.83363607,71.35459999999999 701.08223607,68.9658 691.3343360700001,66.59728999999999 681.59273607,64.25051 671.85983607,61.9267 662.13843607,59.626900000000006 652.43143607,57.352599999999995 642.7423360700001,55.10499999999999 633.0747360700001,52.8856 623.43213607,50.6961 613.81753607,48.538399999999996 604.2338360699999,46.4139 594.68333607,44.324200000000005 585.1681360700001,42.2706 575.69023607,40.2547 566.2515360699999,38.277799999999985 556.8542360700001,36.341599999999985 547.5004360700001,34.44730000000001 538.19223607,32.596299999999985 528.93183607,30.790099999999995 519.72163607,29.030400000000014 510.56393607,27.31869999999998 501.46143607,25.65639999999999 492.41653607,24.044899999999984 483.43193607,22.48569999999998 474.51013607,20.98060000000001 465.65363607,19.53109999999998 456.86473607,18.138800000000003 448.14583607000003,16.805000000000007 439.49903607000005,15.530900000000003 430.92653607,14.31789999999998 422.43053606999996,13.167299999999983 414.01343607,12.080599999999976 405.67723607,11.058599999999984 397.42413607,10.102199999999982 389.25643607,9.212299999999999 381.17613607,8.389899999999983 373.18573607,7.635999999999996 365.28753607,6.9512 357.48373607,6.335999999999984 349.77633607,5.7905999999999835 342.16753607,5.315799999999996 334.65953607,4.912899999999979 327.25443607,4.582799999999992 319.95403607000003,4.326099999999997 312.76023606999996,4.143100000000004 305.67453607,4.0338999999999885 298.69813607000003,4.0 291.83063606999997,4.042999999999978 285.07003606999996,4.164500000000004 278.41313607,4.365800000000007 271.85543607,4.6477999999999895 265.39213607,5.011599999999987 259.01833607000003,5.457099999999997 252.73013607000001,5.983399999999989 246.52423607000003,6.590000000000003 240.39753607,7.276399999999995 234.34773607000002,8.041999999999973 228.37263607,8.886400000000009 222.47073607000002,9.808399999999978 216.64113607,10.806600000000003 210.88313607,11.879400000000004 205.19693607000002,13.025200000000012 199.58283606999998,14.242400000000004 194.04143607,15.529299999999978 188.57373607,16.883999999999986 183.18073607,18.3048 177.86343607,19.789500000000004 172.62293607,21.336399999999998 167.45983607000002,22.943399999999997 162.37493607000002,24.608599999999996 157.36893607,26.329399999999993 152.44253607000002,28.102599999999995 147.59743607000001,29.924300000000017 142.83553607,31.790599999999984 138.15903606999998,33.697400000000016 133.57063607,35.64019999999999 129.07293607,37.61479999999999 124.66873607,39.6172 120.36053607,41.6439 116.15043607,43.691 112.04023606999999,45.754999999999995 108.03113607,47.8322 104.12403606999999,49.919200000000004 100.31949607,52.01299999999999 96.61802607,54.11070000000001 93.01975607,56.2098 89.52445606999999,58.307900000000004 86.13148607,60.40249999999999 82.83984607,62.4915 79.64822606999999,64.57294999999999 76.55515607,66.645 73.55923607,68.70616 70.65882606999999,70.75506 67.85209607000002,72.79042999999999 65.13704607,74.81114 62.51147607,76.81618999999999 59.97310607,78.80470999999999 57.51951607,80.77595 55.14849607,82.72937 52.85800607,84.66457999999999 50.64594607,86.58123 48.510146070000005,88.47903 46.44843607,90.35773999999999 44.45858607,92.21719999999999 42.538376070000005,94.05727999999999 40.68556607,95.87791 38.89797607,97.67907 37.17373607,99.46082999999999 35.51102607,101.2233 33.90801607,102.96664999999999 32.36287607,104.69109 30.87376607,106.39686999999999 29.43886607,108.08424 28.05639607,109.75351 26.72458607,111.40499 25.44171607,113.03899999999999 24.206256070000002,114.65587 23.01696607,116.25593 21.87273607,117.83946 20.77246607,119.4067 19.71506607,120.95786 18.699476070000003,122.49312 17.72462607,124.01266 16.789486070000002,125.51664 15.89301607,127.00519 15.03419607,128.47848 14.21201607,129.93665 13.42571607,131.37977 12.67476007,132.80792 11.958555070000001,134.22128 11.27645407,135.62011 10.627772069999999,137.00475 10.01180707,138.37557999999999 9.427851069999999,139.73305 8.87520007,141.07759 8.353161069999999,142.4097 7.86106107,143.72987 7.39825007,145.03858 6.964197070000001,146.33634 6.55893307,147.62342 6.18272707,148.89974999999998 5.83586107,150.16493 5.51859107,151.41833 5.23110307,152.65911 4.9734900699999995,153.88628 4.74587807,155.098718 4.54849217,156.295753 4.38135237,157.477724 4.24437697,158.645852 4.13751247,159.802063 4.06084077,160.948874 4.0146775,162.089342 4.0,163.2268071 4.01914658,164.36386059999998 4.07502587,165.502255 4.17090417,166.642991 4.31050867,167.786212 4.50007337,168.930057 4.74782877,170.07129899999998 5.062825070000001,171.205985 5.4610990699999995,172.323791 5.96317807,173.410099 6.56295907,174.4626 7.23670707,175.48672 7.97202507,176.4864 8.76212907,177.46499 9.60016607,178.42585 10.48272007,179.37112 11.40802507,180.30236 12.374095070000001,181.22124 13.378728070000001,182.1295 14.42081607,183.02832999999998 15.50045607,183.91835 16.61771607,184.80021 17.77261607,185.67461 18.96504607,186.54234 20.19478607,187.40422999999998 21.46159607,188.26115 22.76603607,189.11347 24.10904607,189.96138 25.49158607,190.80512 26.91466607,191.64496 28.37934607,192.48122 29.88694607,193.31411 31.43895607,194.14378 33.03688607,194.97045 34.68229607,195.79435 36.376806069999994,196.61576 38.122046069999996,197.43502 39.91966607,198.25251 41.77133607,199.06869 43.67869607,199.88409000000001 45.64337607,200.69932 47.66706607,201.51504 49.75205607,202.3314 51.90101607,203.14830999999998 54.116786069999996,203.96569 56.40229607,204.78348 58.76066607,205.60163 61.19510607,206.42013 63.70902607,207.23901 66.30592607,208.05831999999998 68.98947607,208.87816999999998 71.76351607,209.69873 74.63226606999999,210.51987 77.60020606999998,211.34129000000001 80.67194606999999,212.16267 83.85224606999999,212.98371 87.14595607,213.80408 90.55802607,214.62351 94.09346607,215.44173999999998 97.75729607,216.25857 101.55459607,217.07371999999998 105.49063607,217.88629 109.57073606999998,218.69513 113.79963606999999,219.49903 118.18223607,220.29667999999998 122.72253606999999,221.08675 127.42453606999999,221.8679 132.29153607,222.63884 137.32673607,223.39792 142.53263607,224.14308 147.91053607,224.87209 153.46033607,225.58273 159.18063607,226.27278 165.06863607,226.94008 171.12003607000003,227.58246 177.32963607,228.19666 183.69063607,228.779 190.19483607,229.32587999999998 196.83303607,229.8338 203.59493607000002,230.29951 210.47033607,230.71984 217.44913607,231.09087999999997 224.52203606999998,231.40846 231.68103607000003,231.66866 238.92033607,231.8677 246.23623607000002,232.00193000000002 253.62813607,232.06819000000002 261.09673607,232.06538 268.64283607,231.99299000000002 276.26663607,231.85054 283.96843607,231.6376 291.74793607,231.35384 299.60453607,230.999 307.53803607000003,230.57295 315.54883607,230.07564 323.63803607000006,229.50702 331.80733607,228.86704 340.05943607,228.15562999999997 348.39823607,227.37301 356.82833607,226.51990999999998 365.35503607,225.59711 373.98463607,224.60532999999998 382.72393607,223.54533 391.58103607,222.41785 400.56453607,221.22487 409.68203607,219.9697 418.93843606999997,218.65645999999998 428.33543607,217.2903 437.87063607,215.87763 447.53673607,214.42543 457.32253607,212.93868 467.21433607,211.42231999999998 477.19663607,209.88188 487.25153607,208.32344 497.35993607,206.75357 507.50173607,205.17838999999998 517.65933607,203.60323 527.81813607,202.03286 537.9675360699999,200.47147999999999 548.10063607,198.92265 558.2138360700001,197.38916 568.30533607,195.87286 578.37293607,194.37543 588.41463607,192.89853 598.42833607,191.44379 608.41153607,190.01283 618.36213607,188.60726 628.27853607,187.22863999999998 638.16003607,185.87838 648.0069360699999,184.5577 657.82013607,183.26773 667.6014360700001,182.00938 677.3525360699999,180.78313 687.07413607,179.58938 696.76613607,178.42858999999999 706.4271360700001,177.30137 716.05513607,176.20837 725.64713607,175.15046999999998 735.20053607,174.12905 744.7134360700001,173.145425 754.1848360700001,172.200752 763.61453607,171.296063 773.0032360700001,170.43225999999999 782.35173607,169.609781 791.65943607,168.82877299999998 800.92423607,168.089463 810.1427360700001,167.39214099999998 819.31013607,166.737114 828.4207360700001,166.124994 837.46843607,165.557041 846.44763607,165.034433 855.35323607,164.558152 864.1805360699999,164.1289887 872.9249360700001,163.7472368 881.58153607,163.41223449999998 890.14393607,163.1231116 898.60513607,162.87890099999998 906.95733607,162.678446 915.19153607,162.518573 923.29413607,162.394089 931.24753607,162.299911 939.03163607,162.231176 946.6255360700001,162.18504 954.00843607,162.162265 961.16083607,162.16347 968.06603607,162.189147 974.71493607,162.25367599999998 981.11353607,162.38357 987.28083607,162.60026299999998 993.24113607,162.93166399999998 999.02953607,163.4243693 1003.94823607,164.0144" stroke="black" stroke-width="2.0" /></svg>