<?xml version="1.0" encoding="utf-8" ?>
<svg baseProfile="full" height="335.7596" version="1.1" width="1011.996254703" xmlns="http://www.w3.org/2000/svg" xmlns:ev="http://www.w3.org/2001/xml-events" xmlns:xlink="http://www.w3.org/1999/xlink"><defs /><polygon fill="none" points="1003.996254703,159.8798 997.847654703,158.48710699999998 990.4031547029999,156.804466 982.573954703,155.03078 974.358554703,153.16484 965.764854703,151.21185 956.8127547029999,149.17691 947.528854703,147.06316999999999 937.938954703,144.87328 928.067754703,142.61181 917.945554703,140.28609 907.609254703,137.90512999999999 897.0999547029999,135.47724 886.456054703,133.00841 875.708454703,130.50275 864.878154703,127.96230999999999 853.979354703,125.38923999999999 843.025254703,122.78607999999998 832.0291547029999,120.15536999999998 821.003554703,117.49948999999998 809.960454703,114.81995999999998 798.909654703,112.11774 787.859454703,109.39338999999998 776.815954703,106.64699999999999 765.782054703,103.87803999999998 754.7552547029999,101.08457999999999 743.726254703,98.26298 732.678854703,95.40775 721.590354703,92.51205999999999 710.4358547029999,89.57354999999998 699.200754703,86.59499999999998 687.883654703,83.58309999999999 676.4986547029999,80.54885999999999 665.0747547029999,77.50557999999998 653.645054703,74.46362999999998 642.238354703,71.43173999999999 630.877954703,68.41710999999998 619.581754703,65.4255 608.362654703,62.462599999999995 597.231854703,59.53429999999999 586.1997547029999,56.64609999999999 575.275254703,53.802899999999994 564.4665547029999,51.009399999999985 553.7808547029999,48.26999999999998 543.224754703,45.589299999999994 532.804754703,42.97109999999999 522.5263547029999,40.41899999999998 512.394854703,37.9362 502.41455470299996,35.52619999999999 492.589554703,33.19200000000001 482.923354703,30.936399999999992 473.418654703,28.761299999999977 464.07785470299996,26.66859999999997 454.90285470299995,24.660599999999988 445.895954703,22.740099999999984 437.05975470299995,20.90919999999997 428.396854703,19.169599999999974 419.90945470299994,17.521999999999963 411.59895470299995,15.968400000000003 403.463154703,14.511400000000009 395.496454703,13.152499999999975 387.69035470299997,11.892499999999984 380.03465470299994,10.731099999999998 372.51785470299995,9.667699999999996 365.128654703,8.701099999999997 357.85705470299996,7.829199999999986 350.694154703,7.0502999999999645 343.63195470299996,6.362799999999993 336.663354703,5.765599999999978 329.781954703,5.2575999999999965 322.98185470299995,4.837499999999977 316.258654703,4.503699999999981 309.608954703,4.254499999999979 303.029954703,4.088399999999979 296.519754703,4.003899999999987 290.076954703,4.0 283.700754703,4.075299999999999 277.39085470299995,4.228800000000007 271.146954703,4.459499999999991 264.96825470299996,4.766500000000008 258.85415470300006,5.1489999999999725 252.803954703,5.6059999999999945 246.81655470299998,6.136599999999987 240.89115470299998,6.739899999999977 235.027454703,7.414099999999991 229.225554703,8.157699999999977 223.486054703,8.96889999999999 217.810154703,9.845799999999997 212.199254703,10.786699999999968 206.65505470300002,11.789499999999975 201.179554703,12.852499999999992 195.774954703,13.973700000000008 190.44345470300001,15.151199999999989 185.187254703,16.382800000000003 180.00855470300002,17.66639999999998 174.90935470300002,18.99969999999996 169.891754703,20.38039999999998 164.957754703,21.806599999999975 160.109154703,23.276599999999974 155.347254703,24.788399999999996 150.673254703,26.34019999999998 146.087654703,27.930199999999985 141.59085470300002,29.55649999999997 137.183154703,31.217299999999994 132.864754703,32.91059999999999 128.635954703,34.63419999999999 124.49695470300001,36.385999999999996 120.448054703,38.1639 116.489254703,39.96559999999998 112.620554703,41.788899999999984 108.841754703,43.631699999999995 105.152954703,45.49209999999999 101.553834703,47.36839999999998 98.04404470300001,49.25889999999998 94.622864703,51.16199999999999 91.28939470300001,53.076199999999986 88.042534703,55.00009999999999 84.88100470300002,56.932299999999984 81.803494703,58.87139999999998 78.808794703,60.81609999999999 75.895724703,62.76509999999999 73.06307470300001,64.7169 70.30961470300001,66.67014999999999 67.634024703,68.62364 65.03498470299999,70.57609999999998 62.511074703,72.52633999999999 60.060874703,74.47323999999999 57.683154703,76.41582999999999 55.376694703,78.35325999999999 53.140134703,80.28478999999999 50.972034703,82.20976999999998 48.870884702999994,84.12763 46.835114702999995,86.03787999999999 44.863114702999994,87.94009 42.953274703,89.83390999999999 41.103944702999996,91.71901999999999 39.313724703,93.59508999999998 37.581384703,95.46173999999998 35.905744702999996,97.31850999999999 34.285664703,99.16496 32.720034703,101.00062 31.207714703,102.82503 29.747614703000004,104.63773999999998 28.338614703,106.4383 26.979584703,108.22629999999998 25.669414703,110.00133 24.407054703,111.76301999999998 23.191494703,113.51105999999999 22.021634703000004,115.24534999999999 20.896264703000003,116.96592999999999 19.814164703000003,118.67296999999999 18.774104703,120.36674 17.774814703,122.04758999999999 16.815094703,123.71591999999998 15.893734703,125.37219999999999 15.009574703,127.01693999999999 14.161514703,128.65064999999998 13.348716703000001,130.27385999999998 12.570927702999999,131.88692999999998 11.828075703,133.48989999999998 11.120151703,135.08259999999999 10.447184703,136.66461999999999 9.809203703000001,138.23541 9.206210703,139.79425999999998 8.638159703,141.34038999999999 8.104938702999998,142.87291 7.606354703,144.39092 7.142124703,145.8935 6.711867702999999,147.37973 6.3151757029999995,148.84866 5.951769703,150.29927999999998 5.621218703,151.73118 5.322944703,153.14451 5.0562987029999995,154.53992 4.820625603,155.9184 4.615311203,157.28124 4.439820903,158.629954 4.293728703,159.96624699999998 4.176742603,161.29198799999998 4.088727533,162.609205 4.029729133,163.92009099999999 4.0,165.22701959999998 4.0,166.5325804 4.029729133,167.839509 4.088727533,169.15039499999997 4.176742603,170.467612 4.293728703,171.793353 4.439820903,173.12964599999998 4.615311203,174.47835999999998 4.820625603,175.8412 5.0562987029999995,177.21967999999998 5.322944703,178.61508999999998 5.621218703,180.02841999999998 5.951769703,181.46032 6.3151757029999995,182.91093999999998 6.711867702999999,184.37986999999998 7.142124703,185.8661 7.606354703,187.36867999999998 8.104938702999998,188.88669 8.638159703,190.41921 9.206210703,191.96534 9.809203703000001,193.52418999999998 10.447184703,195.09498 11.120151703,196.677 11.828075703,198.2697 12.570927702999999,199.87267 13.348716703000001,201.48574 14.161514703,203.10895 15.009574703,204.74266 15.893734703,206.38739999999999 16.815094703,208.04368 17.774814703,209.71201 18.774104703,211.39285999999998 19.814164703000003,213.08662999999999 20.896264703000003,214.79367 22.021634703000004,216.51425 23.191494703,218.24854 24.407054703,219.99658 25.669414703,221.75826999999998 26.979584703,223.5333 28.338614703,225.32129999999998 29.747614703000004,227.12186 31.207714703,228.93456999999998 32.720034703,230.75897999999998 34.285664703,232.59463999999997 35.905744702999996,234.44108999999997 37.581384703,236.29786000000001 39.313724703,238.16451 41.103944702999996,240.04057999999998 42.953274703,241.92568999999997 44.863114702999994,243.81950999999998 46.835114702999995,245.72172 48.870884702999994,247.63196999999997 50.972034703,249.54983 53.140134703,251.47481 55.376694703,253.40634 57.683154703,255.34377 60.060874703,257.28636 62.511074703,259.23326 65.03498470299999,261.1835 67.634024703,263.13595999999995 70.30961470300001,265.08945 73.06307470300001,267.04269999999997 75.895724703,268.9945 78.808794703,270.9435 81.803494703,272.8882 84.88100470300002,274.8273 88.042534703,276.7595 91.28939470300001,278.6834 94.622864703,280.5976 98.04404470300001,282.5007 101.553834703,284.3912 105.152954703,286.2675 108.841754703,288.12789999999995 112.620554703,289.97069999999997 116.489254703,291.794 120.448054703,293.59569999999997 124.49695470300001,295.3736 128.635954703,297.1254 132.864754703,298.849 137.183154703,300.54229999999995 141.59085470300002,302.2031 146.087654703,303.82939999999996 150.673254703,305.4194 155.347254703,306.97119999999995 160.109154703,308.483 164.957754703,309.953 169.891754703,311.37919999999997 174.90935470300002,312.7599 180.00855470300002,314.0932 185.187254703,315.3768 190.44345470300001,316.60839999999996 195.774954703,317.78589999999997 201.179554703,318.9071 206.65505470300002,319.9701 212.199254703,320.9729 217.810154703,321.9138 223.486054703,322.7907 229.225554703,323.6019 235.027454703,324.3455 240.89115470299998,325.0197 246.81655470299998,325.623 252.803954703,326.1536 258.85415470300006,326.6106 264.96825470299996,326.99309999999997 271.146954703,327.3001 277.39085470299995,327.5308 283.700754703,327.6843 290.076954703,327.7596 296.519754703,327.7557 303.029954703,327.6712 309.608954703,327.50509999999997 316.258654703,327.2559 322.98185470299995,326.9221 329.781954703,326.50199999999995 336.663354703,325.994 343.63195470299996,325.3968 350.694154703,324.7093 357.85705470299996,323.93039999999996 365.128654703,323.0585 372.51785470299995,322.0919 380.03465470299994,321.0285 387.69035470299997,319.8671 395.496454703,318.6071 403.463154703,317.2482 411.59895470299995,315.7912 419.90945470299994,314.23760000000004 428.396854703,312.59000000000003 437.05975470299995,310.85040000000004 445.895954703,309.0195 454.90285470299995,307.099 464.07785470299996,305.091 473.418654703,302.9983 482.923354703,300.8232 492.589554703,298.56759999999997 502.41455470299996,296.23339999999996 512.394854703,293.8234 522.5263547029999,291.3406 532.804754703,288.7885 543.224754703,286.1703 553.7808547029999,283.4896 564.4665547029999,280.7502 575.275254703,277.95669999999996 586.1997547029999,275.1135 597.231854703,272.2253 608.362654703,269.29699999999997 619.581754703,266.3341 630.877954703,263.34249 642.238354703,260.32786 653.645054703,257.29597 665.0747547029999,254.25402 676.4986547029999,251.21074 687.883654703,248.17649999999998 699.200754703,245.1646 710.4358547029999,242.18605 721.590354703,239.24754 732.678854703,236.35184999999998 743.726254703,233.49661999999998 754.7552547029999,230.67502 765.782054703,227.88155999999998 776.815954703,225.1126 787.859454703,222.36621 798.909654703,219.64185999999998 809.960454703,216.93964 821.003554703,214.26011 832.0291547029999,211.60423 843.025254703,208.97352 853.979354703,206.37036 864.878154703,203.79728999999998 875.708454703,201.25685 886.456054703,198.75118999999998 897.0999547029999,196.28235999999998 907.609254703,193.85447 917.945554703,191.47350999999998 928.067754703,189.14779 937.938954703,186.88631999999998 947.528854703,184.69643 956.8127547029999,182.58268999999999 965.764854703,180.54774999999998 974.358554703,178.59475999999998 982.573954703,176.72881999999998 990.4031547029999,174.955134 997.847654703,173.272493 1003.996254703,171.8798" stroke="black" stroke-width="2.0" /></svg>