<?xml version="1.0" encoding="utf-8" ?>
<svg baseProfile="full" height="369.802" version="1.1" width="1011.99632067" xmlns="http://www.w3.org/2000/svg" xmlns:ev="http://www.w3.org/2001/xml-events" xmlns:xlink="http://www.w3.org/1999/xlink"><defs /><polygon fill="none" points="1003.99632067,175.901 997.63552067,174.17195800000002 989.8977206700001,172.06637 981.7186206700001,169.83865 973.09562067,167.48861000000002 964.03482067,165.01859000000002 954.55162067,162.4332 944.6717206700001,159.73973 934.4300206700001,156.94755 923.86642067,154.06585 913.02172067,151.10323 901.93082067,148.06682 890.62392067,144.96439 879.13312067,141.80504000000002 867.4921206700001,138.59838000000002 855.73412067,135.35318 843.8884206700001,132.07628 831.9776206700001,128.77269 820.0168206700001,125.44537000000001 808.01582067,122.09647000000001 795.9847206700001,118.72854000000001 783.9353206700001,115.34456000000002 771.8803206700001,111.94786 759.83162067,108.54078000000001 747.7954206700001,105.12365000000001 735.77112067,101.69491000000002 723.75142067,98.25107000000001 711.7234206700001,94.78919 699.67802067,91.31127000000002 687.6156206700001,87.82263000000002 675.54742067,84.33169000000002 663.4947206700001,80.8491 651.48342067,77.38440000000001 639.53852067,73.94610000000002 627.68292067,70.54210000000002 615.9367206700001,67.17940000000002 604.31702067,63.86570000000002 592.8371206700001,60.6087 581.50762067,57.41470000000001 570.3359206700001,54.28890000000001 559.32722067,51.23550000000003 548.48622067,48.258500000000026 537.81782067,45.36170000000001 527.32752067,42.5487 517.0206206700001,39.822400000000016 506.90212066999993,37.185700000000026 496.97652066999996,34.641999999999996 487.24742067,32.19390000000001 477.71802067,29.84340000000003 468.39042066999997,27.591500000000025 459.26602067,25.439400000000006 450.34542067,23.389399999999995 441.62902067,21.443299999999994 433.11682067,19.602300000000014 424.80842067000003,17.866600000000005 416.70272066999996,16.23570000000001 408.79692067,14.710700000000031 401.08462067,13.29310000000001 393.55552066999996,11.983100000000007 386.19732067,10.779899999999998 378.99642066999996,9.682500000000005 371.93842066999997,8.689099999999996 365.00942066999994,7.79770000000002 358.19712066999995,7.005300000000034 351.49022067,6.309499999999986 344.87822067,5.708300000000008 338.35132067,5.200000000000017 331.90032067,4.783500000000004 325.51662066999995,4.457700000000017 319.19282067,4.2202000000000055 312.92352067,4.068399999999997 306.70492067,4.0 300.53452066999995,4.0131999999999834 294.41132066999995,4.105899999999991 288.33512067,4.276700000000005 282.30702067,4.523899999999998 276.32812067,4.846499999999992 270.39922067,5.243700000000018 264.52072067,5.714500000000015 258.69282066999995,6.258100000000013 252.91532067,6.87360000000001 247.18782067,7.560300000000012 241.50992066999999,8.31710000000001 235.88132067,9.14270000000002 230.30272066999999,10.035500000000013 224.77502066999998,10.994 219.29972067,12.016500000000008 213.87862066999998,13.101300000000009 208.51412066999998,14.246400000000023 203.20842066999998,15.450199999999995 197.96402066999997,16.71090000000001 192.78342067,18.027000000000015 187.66842067,19.39670000000001 182.62112066999998,20.818100000000015 177.64302066999997,22.289600000000036 172.73582066999998,23.8091 167.90102066999998,25.375 163.14002066999998,26.985400000000027 158.45452066999997,28.638300000000015 153.84572067,30.33189999999999 149.31502067,32.06420000000003 144.86342066999998,33.833 140.49212067,35.636300000000006 136.20192067,37.472200000000015 131.99392067,39.33870000000002 127.86872067,41.23400000000004 123.82692066999999,43.15620000000001 119.86862067,45.10340000000002 115.99402067000001,47.07400000000001 112.20302067,49.066100000000006 108.49512067,51.078 104.87042067,53.10790000000003 101.32846067,55.15400000000001 97.86906067,57.2145 94.49182067000001,59.28750000000001 91.19624067000001,61.371300000000005 87.98175067,63.46420000000002 84.84763067,65.56450000000001 81.79327067000001,67.67060000000001 78.81816067,69.78110000000001 75.92165067,71.89470000000001 73.10293067,74.01010000000001 70.36106067000001,76.12630000000001 67.69496067,78.242 65.10347067000001,80.35640000000001 62.58532067,82.46830000000001 60.139210670000004,84.57685000000001 57.76389067,86.68116 55.45811067,88.78027000000002 53.22055067,90.87328000000002 51.04989067,92.95941 48.944730670000006,95.03791000000001 46.90369067,97.10809 44.92533067000001,99.16933000000002 43.00822067000001,101.22106000000001 41.15096067,103.26279000000001 39.352390670000005,105.29403 37.61155067000001,107.31431 35.92743067,109.32317000000002 34.29905067,111.32010000000001 32.72541067,113.30465000000001 31.20548067,115.27635000000002 29.73824067,117.23476000000001 28.32264067,119.17946000000002 26.95760067,121.11006 25.642050669999996,123.02619000000001 24.37494067,124.92746000000001 23.15518067,126.81359 21.98158067,128.68445 20.85292067,130.54009000000002 19.76793067,132.38066 18.72534067,134.20642 17.72390067,136.0177 16.76237067,137.81490000000002 15.83955067,139.59848000000002 14.954260669999998,141.36892 14.10541067,143.12673 13.292276669999998,144.87243 12.51465467,146.60627000000002 11.77245767,148.32826 11.06565967,150.03812000000002 10.394261669999999,151.73539 9.75825667,153.41945 9.15760767,155.08952000000002 8.592225670000001,156.74477000000002 8.06195267,158.38428000000002 7.5665486699999995,160.00708 7.10568267,161.61224 6.67893067,163.19882 6.28586867,164.76583000000002 5.92613767,166.31238000000002 5.59921067,167.83826000000002 5.30443067,169.34383 5.04109067,170.82991 4.80848877,172.29767 4.60597377,173.748571 4.43297797,175.18429400000002 4.28904587,176.606703 4.17385617,178.017827 4.0872435,179.41985200000002 4.02922005,180.815129 4.0,182.2061942 4.0,183.59580580000002 4.02922005,184.986871 4.0872435,186.382148 4.17385617,187.784173 4.28904587,189.195297 4.43297797,190.617706 4.60597377,192.05342900000002 4.80848877,193.50433 5.04109067,194.97209 5.30443067,196.45817000000002 5.59921067,197.96374 5.92613767,199.48962 6.28586867,201.03617 6.67893067,202.60318 7.10568267,204.18976 7.5665486699999995,205.79492000000002 8.06195267,207.41772 8.592225670000001,209.05723 9.15760767,210.71248 9.75825667,212.38255 10.394261669999999,214.06661000000003 11.06565967,215.76388 11.77245767,217.47374000000002 12.51465467,219.19573 13.292276669999998,220.92957 14.10541067,222.67527 14.954260669999998,224.43308000000002 15.83955067,226.20352 16.76237067,227.9871 17.72390067,229.78430000000003 18.72534067,231.59558 19.76793067,233.42134000000001 20.85292067,235.26191 21.98158067,237.11755000000002 23.15518067,238.98841000000002 24.37494067,240.87454000000002 25.642050669999996,242.77581 26.95760067,244.69194000000002 28.32264067,246.62254000000001 29.73824067,248.56724000000003 31.20548067,250.52564999999998 32.72541067,252.49735 34.29905067,254.4819 35.92743067,256.47883 37.61155067000001,258.48769000000004 39.352390670000005,260.50797 41.15096067,262.53921 43.00822067000001,264.58094 44.92533067000001,266.63267 46.90369067,268.69391 48.944730670000006,270.76409 51.04989067,272.84259000000003 53.22055067,274.92872 55.45811067,277.02173 57.76389067,279.12084000000004 60.139210670000004,281.22515 62.58532067,283.3337 65.10347067000001,285.4456 67.69496067,287.56 70.36106067000001,289.6757 73.10293067,291.7919 75.92165067,293.9073 78.81816067,296.0209 81.79327067000001,298.1314 84.84763067,300.2375 87.98175067,302.3378 91.19624067000001,304.4307 94.49182067000001,306.5145 97.86906067,308.58750000000003 101.32846067,310.648 104.87042067,312.6941 108.49512067,314.72400000000005 112.20302067,316.7359 115.99402067000001,318.728 119.86862067,320.6986 123.82692066999999,322.6458 127.86872067,324.568 131.99392067,326.4633 136.20192067,328.3298 140.49212067,330.1657 144.86342066999998,331.96900000000005 149.31502067,333.7378 153.84572067,335.4701 158.45452066999997,337.1637 163.14002066999998,338.8166 167.90102066999998,340.427 172.73582066999998,341.9929 177.64302066999997,343.51239999999996 182.62112066999998,344.9839 187.66842067,346.4053 192.78342067,347.775 197.96402066999997,349.0911 203.20842066999998,350.3518 208.51412066999998,351.5556 213.87862066999998,352.7007 219.29972067,353.7855 224.77502066999998,354.808 230.30272066999999,355.7665 235.88132067,356.65930000000003 241.50992066999999,357.48490000000004 247.18782067,358.24170000000004 252.91532067,358.9284 258.69282066999995,359.5439 264.52072067,360.0875 270.39922067,360.55830000000003 276.32812067,360.95550000000003 282.30702067,361.2781 288.33512067,361.5253 294.41132066999995,361.6961 300.53452066999995,361.78880000000004 306.70492067,361.802 312.92352067,361.7336 319.19282067,361.58180000000004 325.51662066999995,361.3443 331.90032067,361.0185 338.35132067,360.602 344.87822067,360.0937 351.49022067,359.49250000000006 358.19712066999995,358.7967 365.00942066999994,358.0043 371.93842066999997,357.1129 378.99642066999996,356.1195 386.19732067,355.0221 393.55552066999996,353.8189 401.08462067,352.50890000000004 408.79692067,351.0913 416.70272066999996,349.5663 424.80842067000003,347.9354 433.11682067,346.1997 441.62902067,344.3587 450.34542067,342.4126 459.26602067,340.36260000000004 468.39042066999997,338.2105 477.71802067,335.9586 487.24742067,333.60810000000004 496.97652066999996,331.16 506.90212066999993,328.6163 517.0206206700001,325.9796 527.32752067,323.2533 537.81782067,320.4403 548.48622067,317.5435 559.32722067,314.5665 570.3359206700001,311.5131 581.50762067,308.3873 592.8371206700001,305.1933 604.31702067,301.9363 615.9367206700001,298.62260000000003 627.68292067,295.2599 639.53852067,291.8559 651.48342067,288.4176 663.4947206700001,284.9529 675.54742067,281.47031 687.6156206700001,277.97937 699.67802067,274.49073 711.7234206700001,271.01281 723.75142067,267.55093 735.77112067,264.10708999999997 747.7954206700001,260.67835 759.83162067,257.26122 771.8803206700001,253.85414000000003 783.9353206700001,250.45744000000002 795.9847206700001,247.07346 808.01582067,243.70553 820.0168206700001,240.35663 831.9776206700001,237.02931 843.8884206700001,233.72572000000002 855.73412067,230.44882 867.4921206700001,227.20362 879.13312067,223.99696 890.62392067,220.83761 901.93082067,217.73518 913.02172067,214.69877000000002 923.86642067,211.73615 934.4300206700001,208.85445 944.6717206700001,206.06227 954.55162067,203.36880000000002 964.03482067,200.78341 973.09562067,198.31339 981.7186206700001,195.96335000000002 989.8977206700001,193.73563000000001 997.63552067,191.630042 1003.99632067,189.901" stroke="black" stroke-width="2.0" /></svg>