<?xml version="1.0" encoding="utf-8" ?>
<svg baseProfile="full" height="400.9937" version="1.1" width="1011.9995918892" xmlns="http://www.w3.org/2000/svg" xmlns:ev="http://www.w3.org/2001/xml-events" xmlns:xlink="http://www.w3.org/1999/xlink"><defs /><polygon fill="none" points="1003.9995918892,190.5002 997.4134918892,188.41205 989.3916918892,185.86152 980.8911918892,183.16415 971.9031918892,180.31656 962.4309918892001,177.31336000000002 952.4875918892,174.15804 942.0943918892,170.86057 931.2784918892,167.43228000000002 920.0758918892,163.88426 908.5327918892001,160.2301 896.7005918892,156.48587 884.6298918892,152.66906 872.3628918892,148.79496 859.9291918892,144.8745 847.3523918892,140.91486 834.6585918892,136.92346 821.8765918892,132.90859 809.0356918892,128.87969 796.1595918892,124.84569 783.2643918891999,120.81312 770.3580918892001,116.78589000000001 757.4432918892,112.76522 744.5225918892,108.75166 731.6000918892,104.74618000000001 718.6811918892,100.75011 705.7737918892001,96.76530000000001 692.8914918892,92.79520000000001 680.0541918892,88.8451 667.2877918892,84.9222 654.6204918891999,81.0365 642.0764918891999,77.19860000000001 629.6743918892,73.41740000000001 617.4277918892,69.6997 605.3463918891999,66.0515 593.4395918892,62.47840000000002 581.7181918891999,58.98650000000001 570.1934918892,55.58130000000003 558.8766918892001,52.26820000000001 547.7772918892,49.05330000000001 536.9024918892,45.94150000000002 526.2571918892,42.9366 515.8443918892,40.04110000000003 505.66529188920003,37.256699999999995 495.7203918892,34.585200000000015 486.01059188920004,32.02790000000002 476.53599188920003,29.58529999999999 467.29659188920004,27.25720000000001 458.29139188920004,25.043500000000023 449.51879188920003,22.94520000000003 440.97729188920005,20.963300000000004 432.6649918892,19.097700000000003 424.5797918892,17.347399999999993 416.7185918892,15.710999999999984 409.0769918892,14.187999999999988 401.64629188920003,12.779500000000013 394.4134918892,11.485000000000014 387.3635918892,10.3031 380.4800918892,9.231499999999983 373.7460918892,8.26830000000001 367.1451918892,7.41070000000002 360.66279188920004,6.655299999999983 354.2855918892,5.99860000000001 348.00129188920005,5.438199999999995 341.7984918892,4.9719000000000335 335.6662918892,4.59820000000002 329.59439188920004,4.3163000000000125 323.5729918892,4.124499999999983 317.5942918892,4.02000000000001 311.65299188920005,4.0 305.74559188920006,4.062100000000015 299.87069188920003,4.204200000000014 294.0282918892,4.424200000000013 288.2203918892,4.720100000000002 282.4498918892,5.090300000000013 276.7194918892,5.533799999999985 271.03049188920005,6.050000000000011 265.3829918892,6.6381000000000085 259.7760918892,7.297800000000024 254.2075918892,8.02879999999999 248.6746918892,8.831199999999995 243.1737918892,9.704700000000003 237.7025918892,10.648200000000003 232.2615918892,11.6601 226.85379188919998,12.73830000000001 221.48469188919998,13.879999999999995 216.16189188919998,15.081500000000005 210.8950918892,16.338600000000014 205.6947918892,17.647700000000015 200.5690918892,19.0077 195.5201918892,20.41900000000001 190.5456918892,21.883200000000016 185.6391918892,23.403099999999995 180.7906918892,24.983100000000007 175.98739188919998,26.629199999999997 171.2128918892,28.34620000000001 166.45269188919997,30.131100000000004 161.7015918892,31.976700000000022 156.9645918892,33.87180000000001 152.2569918892,35.80029999999999 147.6026918892,37.7422 143.0322918892,39.67410000000001 138.5811918892,41.57900000000001 134.2794918892,43.45919999999998 130.1397918892,45.32329999999999 126.16109188920001,47.18299999999999 122.3340918892,49.051199999999994 118.6449918892,50.942200000000014 115.0770918892,52.871099999999984 111.61279188920001,54.854900000000015 108.2313918892,56.90790000000001 104.9089918892,59.032099999999986 101.62725188920001,61.2252 98.37345188920001,63.481899999999996 95.14042188920001,65.79390000000001 91.92618188920001,68.14859999999999 88.73393188920001,70.52950000000001 85.5718518892,72.9159 82.4549818892,75.2904 79.4013218892,77.6461 76.4239718892,79.98 73.53110188920002,82.2913 70.7268518892,84.5815 68.0122518892,86.85360000000001 65.3860618892,89.11160000000001 62.8454718892,91.36070000000001 60.3863218892,93.60530000000001 58.0032418892,95.8473 55.691691889199994,98.08700000000002 53.4481318892,100.32447 51.2697718892,102.55917000000001 49.1544318892,104.79022 47.1004118892,107.01642000000001 45.1063718892,109.23633000000001 43.171211889199995,111.4483 41.2941218892,113.65058 39.4747718892,115.84186000000001 37.71286188919999,118.02113000000001 36.0078918892,120.18748000000001 34.3592218892,122.34013000000002 32.7660918892,124.47841 31.2276318892,126.60177 29.7428718892,128.70972 28.3107818892,130.80187999999998 26.9302818892,132.87794000000002 25.600231889200003,134.93766 24.319571889200002,136.98072000000002 23.0871518892,139.00695000000002 21.901771889200003,141.01631 20.7621918892,143.00894 19.6671618892,144.98503 18.6154218892,146.94491 17.605721889199998,148.88895 16.6368618892,150.81758000000002 15.7076418892,152.7313 14.8169318892,154.63062000000002 13.963661889199999,156.51608000000002 13.1472778892,158.38813 12.3675658892,160.24694 11.624411889200001,162.09238 10.9177498892,163.92409 10.2475328892,165.74149 9.613702889199999,167.54385000000002 9.016163889200001,169.33033 8.4547638892,171.09997 7.9292798892,172.85179 7.4394028892,174.58478 6.9847348892,176.29791 6.5647888892,177.99021000000002 6.1791268892,179.66062 5.8272648892,181.30851 5.5085508892,182.93395 5.2222348892,184.53755 4.9675463892,186.12039000000001 4.7437379892,187.68389000000002 4.5501310892,189.22973100000002 4.3861450892,190.75982000000002 4.2513220892,192.27624400000002 4.1453487892,193.781258 4.0680765192,195.277286 4.0195435892,196.766929 4.0,198.2529979 4.0098092692,199.738541 4.0487420692,201.226665 4.1164718892,202.720261 4.2128926892,204.221995 4.3380928892,205.734348 4.4923326892,207.259631 4.6760234892,208.79999 4.8897066892,210.35739 5.1340298892,211.93359 5.4097208892,213.5301 5.7175438892,215.14812 6.0582618892,216.78844 6.4325638892,218.45131 6.8409918892,220.13634000000002 7.2839618892,221.84251 7.761962889199999,223.56883000000002 8.2754238892,225.31428 8.8246808892,227.07784 9.4099838892,228.85848000000001 10.0315068892,230.65525 10.689365889200001,232.46727 11.3836308892,234.29374 12.1143568892,236.13407 12.8816078892,237.9878 13.6854898892,239.85474 14.5261918892,241.73497 15.4041118892,243.62889 16.3202118892,245.53707 17.275621889199996,247.46009 18.2715118892,249.39847 19.3090718892,251.3527 20.3895218892,253.32319 21.514081889200003,255.31026 22.683971889200002,257.31416 23.900361889200003,259.33499 25.164361889200002,261.37271 26.477031889200003,263.42707 27.8392718892,265.49767 29.252091889200003,267.58396 30.716511889200003,269.68539 32.2335518892,271.80138 33.804211889200005,273.93134 35.429491889199994,276.07463 37.1103818892,278.23064 38.8478918892,280.39876 40.6430418892,282.57837 42.496881889200004,284.76889 44.410531889199994,286.96982 46.3852918892,289.18072 48.4225018892,291.40117 50.5235018892,293.63068 52.6895318892,295.86867 54.9218218892,298.1145 57.2214818892,300.36740000000003 59.5895418892,302.6266 62.0269218892,304.8911 64.5344118892,307.1599 67.1128818892,309.4318 69.7632618892,311.7056 72.4864218892,313.97990000000004 75.2831818892,316.2533 78.1542818892,318.5246 81.1003918892,320.7923 84.12214188920001,323.05490000000003 87.2201218892,325.31100000000004 90.3949218892,327.5591 93.6472318892,329.7979 96.9776118892,332.0259 100.3864718892,334.2416 103.8740818892,336.4434 107.4404918892,338.6296 111.0856918892,340.7985 114.8093918892,342.9484 118.61109188920001,345.0775 122.49069188920001,347.1838 126.44769188920002,349.2654 130.48159188920002,351.3203 134.59179188919998,353.34659999999997 138.7774918892,355.3424 143.0379918892,357.3058 147.37229188919997,359.23490000000004 151.7797918892,361.1281 156.2594918892,362.9835 160.81019188919998,364.7995 165.43089188919998,366.57410000000004 170.11989188919998,368.3059 174.8755918892,369.99289999999996 179.6962918892,371.6337 184.5801918892,373.2264 189.5253918892,374.7692 194.5298918892,376.2602 199.59159188919998,377.6979 204.70819188919998,379.08050000000003 209.8773918892,380.4063 215.0965918892,381.674 220.3633918892,382.8818 225.67569188919998,384.028 231.0315918892,385.111 236.4295918892,386.12940000000003 241.8685918892,387.0817 247.34789188919999,387.9667 252.86749188919998,388.7832 258.4274918892,389.53020000000004 264.0279918892,390.207 269.6687918892,390.8129 275.3493918892,391.3472 281.0686918892,391.80899999999997 286.82529188920006,392.1974 292.6174918892,392.5117 298.4432918892,392.75030000000004 304.3016918892,392.9116 310.1927918892,392.9933 316.1184918892,392.9937 322.0818918892,392.91020000000003 328.0881918892,392.7404 334.14419188920004,392.4811 340.2588918892,392.1304 346.4420918892,391.6874 352.7040918892,391.1508 359.0560918892,390.5186 365.5097918892,389.7884 372.0780918892,388.9571 378.7752918892,388.0209 385.6175918892,386.97720000000004 392.6219918892,385.82349999999997 399.8052918892,384.5579 407.1829918892,383.1785 414.76899188920004,381.6847 422.5730918892,380.077 430.6005918892,378.35580000000004 438.8544918892,376.5197 447.3371918892,374.56730000000005 456.0504918892,372.4986 464.9959918892,370.3141 474.1750918892,368.0152 483.5890918892,365.6019 493.23829188920007,363.0739 503.1225918892,360.4315 513.2413918892,357.6759 523.5938918892,354.8087 534.1790918892001,351.8317 544.9945918892,348.7471 556.0357918892,345.5585 567.2959918892001,342.2704 578.7658918892,338.889 590.4344918892,335.4198 602.2899918892,331.8684 614.3214918892,328.2407 626.5189918891999,324.5426 638.8733918892001,320.7797 651.3717918891999,316.95889999999997 663.9956918892,313.0888 676.7204918891999,309.1803 689.5157918892,305.2447 702.3526918892,301.2905 715.2089918892,297.32329000000004 728.0705918892,293.34661 740.9302918892,289.36209 753.7810918892,285.37208 766.6120918892001,281.38030000000003 779.4079918892,277.39175 792.1502918892,273.41239 804.8179918892,269.44805 817.3903918892,265.5045 829.8469918892,261.58751 842.1682918892,257.70497 854.3326918892,253.87119 866.3140918892,250.10240000000002 878.0826918892001,246.41468 889.6078918892,242.8116 900.8703918891999,239.28164 911.8658918892,235.81011 922.6024918892,232.38713 933.0882918892,229.0274 943.3155918892,225.75406 953.2627918892,222.58816000000002 962.8918918892,219.53651000000002 972.1562918892,216.60438 981.0131918892,213.79860000000002 989.4371918892,211.12434000000002 997.4222918892,208.58548000000002 1003.9995918892,206.5002" stroke="black" stroke-width="2.0" /></svg>