<?xml version="1.0" encoding="utf-8" ?>
<svg baseProfile="full" height="102.15002" version="1.1" width="1011.993306824" xmlns="http://www.w3.org/2000/svg" xmlns:ev="http://www.w3.org/2001/xml-events" xmlns:xlink="http://www.w3.org/1999/xlink"><defs /><polygon fill="none" points="1003.993306824,49.07501 1000.640706824,48.9540626 996.580206824,48.8037578 992.291706824,48.6404654 987.7535068239999,48.4625798 982.9436068240001,48.2683341 977.8413068240001,48.055853 972.4297068239999,47.823266 966.700306824,47.568911 960.658806824,47.291661 954.331606824,46.991352 947.7712068239999,46.668915 941.050406824,46.325035 934.245806824,45.960468 927.426406824,45.576051 920.644606824,45.172354999999996 913.931706824,44.749313 907.299506824,44.306075 900.742106824,43.840927 894.242406824,43.35302 887.782406824,42.842918999999995 881.3469068239999,42.311150999999995 874.922706824,41.758174 868.498406824,41.184414 862.063906824,40.590297 855.611006824,39.976283 849.132506824,39.342894 842.622506824,38.69075 836.076906824,38.020619999999994 829.492806824,37.33342 822.8689068240001,36.630269999999996 816.206006824,35.91256 809.506606824,35.18194 802.775406824,34.440349999999995 796.019306824,33.689949999999996 789.245306824,32.9329 782.460106824,32.17127 775.669906824,31.40711 768.879606824,30.64238 762.094006824,29.878989999999998 755.316306824,29.11869 748.549606824,28.36317 741.795506824,27.613989999999998 735.055306824,26.87258 728.329106824,26.1403 721.616506824,25.41838 714.916306824,24.707959999999996 708.226506824,24.0101 701.544406824,23.32577 694.866806824,22.65525 688.190906824,21.99793 681.5140068239999,21.353189999999998 674.834006824,20.72048 668.149206824,20.099279999999997 661.4583068239999,19.48913 654.760106824,18.889609999999998 648.0542068240001,18.30034 641.340306824,17.72098 634.618706824,17.151209999999995 627.889906824,16.59075 621.155006824,16.039339999999996 614.415406824,15.496760000000002 607.673006824,14.962809999999998 600.930006824,14.43732 594.188906824,13.920689999999993 587.4521068240001,13.413939999999997 580.7214068239999,12.918059999999997 573.9984068240001,12.433989999999994 567.2842068240001,11.962650000000004 560.5796068239999,11.504909999999995 553.884906824,11.06158 547.200106824,10.633469999999996 540.525106824,10.221339999999998 533.859106824,9.82593 527.201106824,9.447960000000002 520.549706824,9.088139999999996 513.9034068240001,8.747160000000001 507.26020682399997,8.425719999999998 500.61770682400004,8.124469999999995 493.973406824,7.84301 487.324906824,7.579889999999999 480.670106824,7.333659999999995 474.006906824,7.102879999999999 467.33360682399996,6.8861399999999975 460.648406824,6.682020000000001 453.949906824,6.489129999999996 447.237006824,6.306049999999999 440.50840682399996,6.131379999999993 433.763306824,5.963709999999999 427.001106824,5.801589999999997 420.221306824,5.643590000000003 413.42360682400005,5.4882300000000015 406.608106824,5.334060000000001 399.775206824,5.17971 392.94110682400003,5.026180000000004 386.121906824,4.8759099999999975 379.315406824,4.730959999999996 372.518406824,4.5933199999999985 365.726806824,4.46499 358.93570682399996,4.3479600000000005 352.139406824,4.244230000000002 345.331106824,4.155860000000004 338.503506824,4.084969999999998 331.677406824,4.03398 324.888806824,4.005090000000003 318.147506824,4.0 311.463006824,4.020209999999999 304.844806824,4.066959999999995 298.302006824,4.140810000000002 291.841006824,4.2395700000000005 285.463706824,4.360219999999998 279.16760682399996,4.5 272.946706824,4.656409999999994 266.792106824,4.827259999999995 260.692506824,5.010659999999994 254.634306824,5.20496 248.601806824,5.408790000000003 242.57690682400002,5.6210299999999975 236.538706824,5.840740000000004 230.46270682399998,6.067219999999999 224.31990682400001,6.299959999999999 218.074206824,6.538679999999999 211.680106824,6.7833399999999955 205.077306824,7.03416 198.332906824,7.287149999999997 191.872806824,7.530789999999996 185.722906824,7.769779999999997 179.851706824,8.00947 174.22130682399998,8.254370000000002 168.793206824,8.508399999999995 163.530206824,8.77514 158.396406824,9.058039999999998 153.357406824,9.360659999999996 148.378706824,9.686929999999997 143.42450682400002,10.041440000000001 138.45590682399998,10.429850000000002 133.42700682400002,10.859499999999997 128.28030682399998,11.340489999999996 122.93730682399999,11.887549999999997 117.278806824,12.524070000000002 111.100706824,13.291380000000004 104.661506824,14.177709999999998 99.052146824,15.024809999999995 94.122046824,15.818839999999994 89.679986824,16.56498 85.584756824,17.27185 81.733106824,17.94782 78.04557682400001,18.600369999999998 74.45573682400001,19.236449999999998 70.901406824,19.862969999999997 67.315586824,20.487679999999997 63.612726824,21.120669999999997 59.659676824,21.777749999999997 55.188436824,22.49082 49.490156823999996,23.35325 44.409796824,24.15088 40.472986824,24.85231 37.051486824,25.56132 33.866866824,26.334069999999997 30.728456824000002,27.2293 27.414556824,28.349359999999997 23.393556824,29.99869 18.659736824,32.435230000000004 15.913806824,34.138980000000004 13.955231824,35.50278 12.403660824,36.681 11.120082824,37.734970000000004 10.030970824,38.69963 9.091461824,39.597207 8.272417824000001,40.442645999999996 7.553935824,41.246498 6.921891823999999,42.01654 6.365983824,42.758722 5.878558824,43.477739 5.453877824,44.177411 5.087650824,44.860923 4.776717824,45.531009 4.518849824,46.190073999999996 4.312614024,46.840292999999996 4.157296724,47.483688 4.052870284,48.1221987 4.0,48.7577418 4.0,49.3922782 4.052870284,50.0278213 4.157296724,50.666332 4.312614024,51.309727 4.518849824,51.959946 4.776717824,52.619011 5.087650824,53.289097 5.453877824,53.972609 5.878558824,54.672281 6.365983824,55.391298 6.921891823999999,56.13348 7.553935824,56.903521999999995 8.272417824000001,57.707374 9.091461824,58.552813 10.030970824,59.45039 11.120082824,60.415049999999994 12.403660824,61.46902 13.955231824,62.64724 15.913806824,64.01104 18.659736824,65.71479 23.393556824,68.15133 27.414556824,69.80066 30.728456824000002,70.92072 33.866866824,71.81595 37.051486824,72.5887 40.472986824,73.29771 44.409796824,73.99914 49.490156823999996,74.79677 55.188436824,75.6592 59.659676824,76.37227 63.612726824,77.02935 67.315586824,77.66234 70.901406824,78.28705 74.45573682400001,78.91356999999999 78.04557682400001,79.54965 81.733106824,80.2022 85.584756824,80.87817 89.679986824,81.58503999999999 94.122046824,82.33118 99.052146824,83.12521000000001 104.661506824,83.97231 111.100706824,84.85864 117.278806824,85.62594999999999 122.93730682399999,86.26247000000001 128.28030682399998,86.80953 133.42700682400002,87.29052 138.45590682399998,87.72017 143.42450682400002,88.10857999999999 148.378706824,88.46309 153.357406824,88.78936 158.396406824,89.09198 163.530206824,89.37487999999999 168.793206824,89.64162 174.22130682399998,89.89564999999999 179.851706824,90.14054999999999 185.722906824,90.38024 191.872806824,90.61923 198.332906824,90.86287 205.077306824,91.11586 211.680106824,91.36668 218.074206824,91.61134 224.31990682400001,91.85006 230.46270682399998,92.08279999999999 236.538706824,92.30928 242.57690682400002,92.52899 248.601806824,92.74123 254.634306824,92.94506 260.692506824,93.13936000000001 266.792106824,93.32276 272.946706824,93.49361 279.16760682399996,93.65002 285.463706824,93.7898 291.841006824,93.91045 298.302006824,94.00921 304.844806824,94.08306 311.463006824,94.12980999999999 318.147506824,94.15002 324.888806824,94.14492999999999 331.677406824,94.11604 338.503506824,94.06505 345.331106824,93.99416 352.139406824,93.90579 358.93570682399996,93.80206 365.726806824,93.68503 372.518406824,93.5567 379.315406824,93.41906 386.121906824,93.27411000000001 392.94110682400003,93.12384 399.775206824,92.97031 406.608106824,92.81595999999999 413.42360682400005,92.66179 420.221306824,92.50643 427.001106824,92.34843000000001 433.763306824,92.18630999999999 440.50840682399996,92.01864 447.237006824,91.84397 453.949906824,91.66089 460.648406824,91.46799999999999 467.33360682399996,91.26388 474.006906824,91.04714 480.670106824,90.81636 487.324906824,90.57013 493.973406824,90.30700999999999 500.61770682400004,90.02555000000001 507.26020682399997,89.7243 513.9034068240001,89.40286 520.549706824,89.06188 527.201106824,88.70205999999999 533.859106824,88.32409 540.525106824,87.92868 547.200106824,87.51655 553.884906824,87.08843999999999 560.5796068239999,86.64511 567.2842068240001,86.18736999999999 573.9984068240001,85.71603 580.7214068239999,85.23196 587.4521068240001,84.73608 594.188906824,84.22933 600.930006824,83.7127 607.673006824,83.18721 614.415406824,82.65325999999999 621.155006824,82.11068 627.889906824,81.55927 634.618706824,80.99881 641.340306824,80.42904 648.0542068240001,79.84968 654.760106824,79.26041000000001 661.4583068239999,78.66089 668.149206824,78.05074 674.834006824,77.42954 681.5140068239999,76.79683 688.190906824,76.15209 694.866806824,75.49477 701.544406824,74.82425 708.226506824,74.13991999999999 714.916306824,73.44206 721.616506824,72.73164 728.329106824,72.00972 735.055306824,71.27744 741.795506824,70.53603 748.549606824,69.78685 755.316306824,69.03133 762.094006824,68.27103 768.879606824,67.50764 775.669906824,66.74291 782.460106824,65.97874999999999 789.245306824,65.21712 796.019306824,64.46007 802.775406824,63.70967 809.506606824,62.96808 816.206006824,62.23746 822.8689068240001,61.51975 829.492806824,60.8166 836.076906824,60.129400000000004 842.622506824,59.45927 849.132506824,58.807126 855.611006824,58.173736999999996 862.063906824,57.559723 868.498406824,56.965606 874.922706824,56.391846 881.3469068239999,55.838869 887.782406824,55.307101 894.242406824,54.797 900.742106824,54.309093 907.299506824,53.843945 913.931706824,53.400707 920.644606824,52.977665 927.426406824,52.573969 934.245806824,52.189552 941.050406824,51.824985 947.7712068239999,51.481105 954.331606824,51.158668 960.658806824,50.858359 966.700306824,50.581109 972.4297068239999,50.326754 977.8413068240001,50.094167 982.9436068240001,49.8816859 987.7535068239999,49.6874402 992.291706824,49.5095546 996.580206824,49.3462622 1000.640706824,49.1959574 1003.993306824,49.07501" stroke="black" stroke-width="2.0" /></svg>