<?xml version="1.0" encoding="utf-8" ?>
<svg baseProfile="full" height="72.2745" version="1.1" width="1011.97772481" xmlns="http://www.w3.org/2000/svg" xmlns:ev="http://www.w3.org/2001/xml-events" xmlns:xlink="http://www.w3.org/1999/xlink"><defs /><polygon fill="none" points="1003.97772481,34.13725 1000.44652481,33.8913594 996.16392481,33.5914478 991.6279248100001,33.271751 986.80662481,32.92965100000001 981.66622481,32.562292 976.17262481,32.166723000000005 970.2967248100001,31.740223 964.0219248100001,31.280877 957.3558248100001,30.788501000000004 950.3557248100001,30.26659 943.3867248100001,29.742516000000002 936.5414248100001,29.224238000000003 929.73332481,28.706169000000003 922.8997248100001,28.184387 915.99632481,27.656312 908.99552481,27.120706000000002 901.90422481,26.578995000000003 894.86642481,26.042854000000002 887.8996248100001,25.513804 880.97782481,24.989999 874.08372481,24.470279 867.20302481,23.95371 860.32332481,23.439550000000004 853.4345248100001,22.92718 846.5281248100001,22.41618 839.5971248100001,21.90623 832.63672481,21.397170000000003 825.64362481,20.888980000000004 818.6164248100001,20.3818 811.55602481,19.87591 804.46532481,19.371770000000005 797.3498248100001,18.870040000000003 790.23492481,18.373040000000003 783.1351248100001,17.88234 776.0446248100001,17.398090000000003 768.9581248100001,16.92049 761.8716248100001,16.449830000000002 754.78102481,15.98641 747.68202481,15.53057 740.5722248100001,15.082730000000002 733.45202481,14.643550000000001 726.3398248100001,14.214739999999999 719.24002481,13.7971 712.15272481,13.391160000000003 705.0768248100001,12.99735 698.01102481,12.616060000000001 690.9536248100001,12.2472 683.90302481,11.890530000000002 676.85772481,11.54581 669.81522481,11.212800000000001 662.77392481,10.891280000000002 655.73222481,10.58107 648.6889248100001,10.282 641.6427248100001,9.993890000000004 634.5922248100001,9.716610000000003 627.5365248100001,9.450010000000002 620.47432481,9.19396 613.4047248100001,8.948340000000002 606.3267248100001,8.713020000000004 599.2394248100001,8.48788 592.1419248100001,8.272420000000004 585.03362481,8.065940000000001 577.91462481,7.867740000000001 570.7850248100001,7.677120000000002 563.64942481,7.493500000000001 556.5224248100001,7.316490000000002 549.4029248100001,7.145310000000002 542.2892248100001,6.97917 535.1791248100001,6.8172600000000045 528.07012481,6.65878 520.95912481,6.502940000000002 513.84322481,6.348930000000003 506.71852480999996,6.19594 499.58502480999994,6.043280000000003 492.46662481,5.891580000000001 485.37002480999996,5.74164 478.29592481000003,5.594160000000002 471.24412481,5.449800000000003 464.21452481,5.309210000000004 457.20432480999995,5.172970000000003 450.20942481,5.041640000000001 443.22562481,4.915770000000002 436.24722481,4.795900000000003 429.26772481,4.682570000000002 422.27902480999995,4.576330000000002 415.27202481,4.477750000000004 408.23692480999995,4.387430000000002 401.16072481,4.306010000000004 394.03482481,4.233920000000001 386.95632481,4.172090000000001 379.95322481,4.120390000000004 373.01852481,4.078379999999999 366.14972480999995,4.0456900000000005 359.33502481,4.021930000000001 352.56462480999994,4.006789999999999 345.82602481,4.0 339.10132481,4.001380000000005 332.37072480999996,4.010809999999999 325.61022481,4.028310000000001 318.79122481,4.054010000000002 311.87982481,4.088210000000004 304.83912481,4.131390000000003 297.74012480999994,4.183280000000003 290.87782481,4.240870000000001 284.24922481,4.302849999999999 277.83182481,4.368260000000003 271.61812481,4.436170000000001 265.56452480999997,4.506209999999999 259.65232481,4.5779 253.85432481,4.650970000000001 248.13612481,4.725340000000003 242.46472481,4.8010100000000016 236.80012481000003,4.878130000000002 231.09892481,4.9569399999999995 225.31012481000002,5.03783 219.39172481,5.121040000000001 213.23792481,5.207660000000001 206.74172481000002,5.298739999999999 199.71202481,5.396580000000004 193.12242481,5.491330000000005 187.26942481,5.583220000000001 181.93032481,5.677379999999999 176.99202481000003,5.776350000000001 172.37922481,5.881550000000001 168.02752481000002,5.994150000000001 163.86702481000003,6.115660000000002 159.85692481,6.247130000000002 155.97332481,6.389270000000003 152.17202481,6.543780000000002 148.45562481000002,6.710750000000001 144.76192481,6.893410000000003 141.06172481000002,7.0942200000000035 137.36652481000002,7.313690000000001 133.61462481,7.557010000000002 129.76662481,7.82921 125.82652481,8.13297 121.65212480999999,8.483910000000002 117.25852481,8.887330000000002 112.35722481,9.380750000000003 106.77262481,10.001809999999999 99.60946481,10.893620000000002 94.51968481,11.57921 90.43144481,12.147480000000002 86.89571481,12.643830000000001 83.66456480999999,13.09598 80.64499481,13.513030000000004 77.77190481,13.90135 74.91627481,14.275720000000003 72.13556480999999,14.625960000000003 69.38875481,14.954979999999999 66.56388480999999,15.272460000000002 63.57747481,15.581290000000003 60.317324809999995,15.882080000000002 56.53782481,16.176 51.37511480999999,16.46953 46.05835481,16.6994 43.102314809999996,16.84609 40.91960481,16.981800000000003 38.82110481,17.14449 36.84854481,17.33395 35.07133481,17.54081 33.40216481,17.77082 31.84420481,18.02025 30.28098481,18.30737 28.642314810000002,18.651160000000004 26.90108481,19.06803 24.98673481,19.59189 22.95920481,20.226390000000002 20.61344481,21.06903 17.38132481,22.43262 12.033764810000001,25.244039 9.99853981,26.540488000000003 8.69266781,27.477441000000002 7.58293281,28.368735 6.60386281,29.263378000000003 5.82502381,30.089492 5.19887781,30.878532 4.73176571,31.600635 4.40773101,32.238287 4.15787841,32.919959000000006 4.0,33.7142386 4.0,34.5602614 4.15787841,35.354541 4.40773101,36.036213000000004 4.73176571,36.673865 5.19887781,37.395968 5.82502381,38.185008 6.60386281,39.011122 7.58293281,39.905765 8.69266781,40.797059000000004 9.99853981,41.734012 12.033764810000001,43.030461 17.38132481,45.84188 20.61344481,47.205470000000005 22.95920481,48.04811 24.98673481,48.682610000000004 26.90108481,49.20647 28.642314810000002,49.62334 30.28098481,49.967130000000004 31.84420481,50.25425 33.40216481,50.50368 35.07133481,50.73369 36.84854481,50.94055 38.82110481,51.13001 40.91960481,51.292699999999996 43.102314809999996,51.42841 46.05835481,51.575100000000006 51.37511480999999,51.804970000000004 56.53782481,52.0985 60.317324809999995,52.39242 63.57747481,52.69321 66.56388480999999,53.00204 69.38875481,53.319520000000004 72.13556480999999,53.64854 74.91627481,53.99878 77.77190481,54.37315 80.64499481,54.76147 83.66456480999999,55.178520000000006 86.89571481,55.63067 90.43144481,56.12702 94.51968481,56.69529 99.60946481,57.380880000000005 106.77262481,58.272690000000004 112.35722481,58.89375 117.25852481,59.38717 121.65212480999999,59.79059 125.82652481,60.14153 129.76662481,60.44529 133.61462481,60.71749 137.36652481000002,60.96081 141.06172481000002,61.180279999999996 144.76192481,61.38109 148.45562481000002,61.56375 152.17202481,61.730720000000005 155.97332481,61.88523 159.85692481,62.027370000000005 163.86702481000003,62.15884 168.02752481000002,62.28035 172.37922481,62.39295 176.99202481000003,62.49815 181.93032481,62.597120000000004 187.26942481,62.691280000000006 193.12242481,62.78317 199.71202481,62.87792 206.74172481000002,62.97576000000001 213.23792481,63.06684 219.39172481,63.15346 225.31012481000002,63.236670000000004 231.09892481,63.31756 236.80012481000003,63.396370000000005 242.46472481,63.47349 248.13612481,63.54916 253.85432481,63.62353 259.65232481,63.696600000000004 265.56452480999997,63.76829000000001 271.61812481,63.83833 277.83182481,63.90624 284.24922481,63.971650000000004 290.87782481,64.03363 297.74012480999994,64.09121999999999 304.83912481,64.14311000000001 311.87982481,64.18629 318.79122481,64.22049 325.61022481,64.24619 332.37072480999996,64.26369 339.10132481,64.27312 345.82602481,64.2745 352.56462480999994,64.26771000000001 359.33502481,64.25257 366.14972480999995,64.22881000000001 373.01852481,64.19612000000001 379.95322481,64.15411 386.95632481,64.10241 394.03482481,64.04058 401.16072481,63.96849 408.23692480999995,63.88707 415.27202481,63.79675 422.27902480999995,63.698170000000005 429.26772481,63.591930000000005 436.24722481,63.4786 443.22562481,63.35873 450.20942481,63.23286 457.20432480999995,63.10153 464.21452481,62.965289999999996 471.24412481,62.8247 478.29592481000003,62.68034 485.37002480999996,62.53286 492.46662481,62.38292 499.58502480999994,62.23122 506.71852480999996,62.07856 513.84322481,61.92557 520.95912481,61.77156 528.07012481,61.61572 535.1791248100001,61.45724 542.2892248100001,61.29533000000001 549.4029248100001,61.12919 556.5224248100001,60.95801 563.64942481,60.781000000000006 570.7850248100001,60.59738 577.91462481,60.406760000000006 585.03362481,60.208560000000006 592.1419248100001,60.00208 599.2394248100001,59.78662 606.3267248100001,59.56148 613.4047248100001,59.32616 620.47432481,59.08054 627.5365248100001,58.82449 634.5922248100001,58.55789 641.6427248100001,58.280609999999996 648.6889248100001,57.99250000000001 655.73222481,57.693430000000006 662.77392481,57.38322 669.81522481,57.0617 676.85772481,56.72869 683.90302481,56.383970000000005 690.9536248100001,56.027300000000004 698.01102481,55.65844 705.0768248100001,55.277150000000006 712.15272481,54.883340000000004 719.24002481,54.4774 726.3398248100001,54.059760000000004 733.45202481,53.63095 740.5722248100001,53.191770000000005 747.68202481,52.743930000000006 754.78102481,52.288090000000004 761.8716248100001,51.82467 768.9581248100001,51.35401 776.0446248100001,50.87641 783.1351248100001,50.392160000000004 790.23492481,49.90146 797.3498248100001,49.40446 804.46532481,48.90273 811.55602481,48.39859 818.6164248100001,47.892700000000005 825.64362481,47.38552 832.63672481,46.87733 839.5971248100001,46.36827 846.5281248100001,45.858320000000006 853.4345248100001,45.34732 860.32332481,44.83495 867.20302481,44.32079 874.08372481,43.804221 880.97782481,43.284501000000006 887.8996248100001,42.760696 894.86642481,42.231646 901.90422481,41.695505000000004 908.99552481,41.153794000000005 915.99632481,40.618188 922.8997248100001,40.090113 929.73332481,39.568331 936.5414248100001,39.050262000000004 943.3867248100001,38.531984 950.3557248100001,38.00791 957.3558248100001,37.485999 964.0219248100001,36.993623 970.2967248100001,36.534277 976.17262481,36.107777 981.66622481,35.712208000000004 986.80662481,35.344848999999996 991.6279248100001,35.002749 996.16392481,34.683052200000006 1000.44652481,34.383140600000004 1003.97772481,34.13725" stroke="black" stroke-width="2.0" /></svg>