<?xml version="1.0" encoding="utf-8" ?>
<svg baseProfile="full" height="85.33711000000001" version="1.1" width="1011.98371871" xmlns="http://www.w3.org/2000/svg" xmlns:ev="http://www.w3.org/2001/xml-events" xmlns:xlink="http://www.w3.org/1999/xlink"><defs /><polygon fill="none" points="1003.98371871,58.765010000000004 1000.65141871,58.6495942 995.8049187099999,58.437333 990.3388187099999,58.1650482 984.6401187099999,57.8531375 978.8479187099999,57.515499000000005 973.0241187099999,57.163472000000006 967.19731871,56.798702000000006 961.3602187099999,56.421534 955.5051187099999,56.036314000000004 949.64101871,55.64746100000001 943.77941871,55.255660000000006 937.92111871,54.860376 932.0617187099999,54.46134300000001 926.2008187099999,54.058948 920.34421871,53.653544000000004 914.49711871,53.243649000000005 908.6581187099999,52.826873000000006 902.81931871,52.40129400000001 896.97281871,51.969086000000004 891.11841871,51.534116000000004 885.26441871,51.100368 879.42321871,50.666101000000005 873.60131871,50.22545 867.79711871,49.772013 862.00181871,49.30243300000001 856.2057187099999,48.823305000000005 850.4032187099999,48.343340000000005 844.5938187099999,47.87163 838.78161871,47.41194 832.9704187099999,46.95792 827.16091871,46.501920000000005 821.35041871,46.03605 815.53281871,45.555600000000005 809.70291871,45.06299 803.8590187099999,44.56186 798.0032187099999,44.056200000000004 792.1414187099999,43.54959 786.28071871,43.04223 780.4251187099999,42.533190000000005 774.57601871,42.02127 768.73161871,41.50509 762.88811871,40.98413000000001 757.04231871,40.458870000000005 751.1926187099999,39.929990000000004 745.3392187099998,39.39828000000001 739.4834187099999,38.86457 733.6275187099999,38.329040000000006 727.7727187099999,37.7916 721.91981871,37.252100000000006 716.0683187099999,36.71028 710.21731871,36.16597 704.36551871,35.61931 698.5125187099999,35.07054000000001 692.6582187099999,34.51997 686.8031187099999,33.96794 680.9484187099999,33.414680000000004 675.09491871,32.85996 669.24321871,32.30348000000001 663.39341871,31.74489 657.54481871,31.183780000000002 651.6967187099999,30.62 645.8479187099999,30.054120000000005 639.9978187099999,29.48683 634.14611871,28.918880000000005 628.29261871,28.351030000000005 622.43781871,27.783940000000005 616.5821187099999,27.217720000000003 610.72591871,26.652340000000002 604.8696187099999,26.087750000000007 599.01341871,25.52391 593.1575187099999,24.96076 587.30191871,24.398450000000004 581.44681871,23.837180000000004 575.59231871,23.277189999999997 569.73851871,22.718690000000002 563.88571871,22.161910000000006 558.03411871,21.607170000000004 552.18381871,21.054850000000002 546.33471871,20.505320000000005 540.4867187099999,19.958960000000005 534.6394187099999,19.416120000000006 528.79251871,18.87707000000001 522.9457187099999,18.341940000000008 517.09871871,17.810860000000005 511.25171871000003,17.283950000000004 505.40491871,16.76137 499.55881870999997,16.243320000000004 493.71381871,15.730229999999999 487.87021871,15.222660000000005 482.02811871,14.721130000000002 476.18751871,14.226160000000007 470.34811871,13.738220000000005 464.50931871,13.257680000000008 458.67091871,12.784710000000004 452.83261871,12.319470000000003 446.99411871,11.862150000000007 441.15541871,11.412939999999999 435.31661871,10.972070000000002 429.47781871,10.539860000000004 423.63921871,10.116670000000006 417.80121871,9.702860000000008 411.96421871,9.298820000000006 406.12901870999997,8.90493 400.29591871,8.521930000000005 394.46541871,8.150680000000001 388.63741871,7.792040000000007 382.81171871,7.446840000000002 376.98781871,7.115890000000007 371.16491871,6.799710000000005 365.34241871,6.498480000000008 359.51981871000004,6.212389999999999 353.69691871000003,5.94164 347.87361871,5.686460000000004 342.04981871,5.447080000000007 336.22571870999997,5.223870000000005 330.40201871,5.017170000000007 324.57911871,4.827340000000007 318.75811871,4.654730000000008 312.94001871,4.4998800000000045 307.12571871,4.363840000000003 301.31541870999996,4.247720000000001 295.50901871,4.152620000000006 289.70561870999995,4.079620000000006 283.90431871000004,4.029580000000003 278.10391870999996,4.002920000000003 272.30441871000005,4.0 266.50621871,4.021190000000004 260.71011871,4.0668700000000015 254.91791871,4.13767 249.13031870999998,4.234589999999997 243.34771871,4.358640000000001 237.56941871,4.510870000000004 231.79411871,4.692290000000007 226.02011871,4.903580000000005 220.24741871,5.145150000000008 214.47741871000002,5.417370000000005 208.71291871,5.720480000000002 202.95781871,6.055100000000003 197.21471871000003,6.422900000000006 191.48291871,6.825780000000002 185.75861871,7.265920000000008 180.03521871,7.745429999999999 174.30701871000002,8.264220000000009 168.57391871,8.82108000000001 162.84221871000003,9.414090000000002 157.12441871,10.041180000000004 151.43371871,10.704800000000006 145.77491871,11.410240000000009 140.14321870999999,12.163830000000004 134.52521871000002,12.972340000000003 128.90541871,13.837000000000003 123.27791871000001,14.755500000000005 117.64781871000001,15.723690000000005 112.03061871000001,16.73783000000001 106.44071871000001,17.79961 100.88302871,18.9129 95.35295871000001,20.08305 89.84248871000001,21.31402 84.34973871,22.60743 78.88069871,23.963130000000007 73.44671871,25.38208000000001 68.05597871,26.867980000000003 62.710588709999996,28.425920000000005 57.409998709999996,30.061300000000003 52.157488709999996,31.777980000000007 46.96163871,33.57835 41.83621871,35.4654 36.797688709999996,37.44122 31.874728710000003,39.50959 27.127288710000002,41.66511 22.625938710000003,43.8843 18.39782871,46.14988 14.57466871,48.39856 11.59295671,50.348055 9.43218071,51.917224000000004 7.79505571,53.233377000000004 6.51039471,54.39684200000001 5.56094771,55.426614 4.89250351,56.31266 4.43169591,57.075338 4.14245151,57.75043 4.0,58.376003600000004 4.00162147,58.9833281 4.15134191,59.5989414 4.45186961,60.23946 4.92689311,60.910243 5.61366671,61.588775000000005 6.57109171,62.25508000000001 7.8509837099999995,62.911682000000006 9.48747671,63.609152 11.62410171,64.380124 14.48480871,65.234316 18.20859871,66.13510600000001 22.612088710000002,66.993608 27.49130871,67.761865 32.69143871,68.423 38.099288709999996,68.98303 43.62983871,69.45999 49.232588709999995,69.86552 54.88155871,70.20865 60.569218709999994,70.4985 66.29242871,70.74309000000001 72.04813871,70.95038 77.83274871,71.12733 83.64112871,71.28091 89.46683871,71.41654 95.30382871,71.53696000000001 101.14720871000002,71.64472 106.99351871,71.74166 112.84091871000001,71.82818 118.68991871,71.9046 124.54261871,71.9718 130.40131871,72.03301 136.26671871000002,72.09202 142.13771871,72.15257 148.01171871,72.21588 153.88681871000003,72.28035 159.76171871,72.34422 165.63631871,72.40589 171.51091871,72.46555000000001 177.38591871,72.52453 183.26161871,72.58419 189.13791871,72.64579 195.01481871000001,72.70984 200.89201871,72.77629 206.76921871000002,72.84508 212.64601871,72.91616 218.52201871,72.98960000000001 224.39701871,73.06558000000001 230.27111871,73.14432000000001 236.14481871,73.22602 242.01891871,73.31079 247.89401871,73.39834 253.77071871,73.48829 259.64901870999995,73.58022 265.52861871000005,73.67375 271.40921871,73.76861000000001 277.29011871,73.86473000000001 283.17101871000006,73.96207000000001 289.05181871,74.06055 294.93251871,74.16014 300.81311871,74.2608 306.69381870999996,74.36251 312.57461871,74.46524000000001 318.45561871,74.56896 324.33661871,74.67364 330.21781871,74.77903 336.09921871,74.8848 341.98061871,74.99063000000001 347.86231871,75.09618 353.74441871,75.20115 359.62681871,75.30543 365.50951871,75.40901 371.39231871,75.51189 377.27491871,75.61406000000001 383.15671871,75.71551000000001 389.03711871,75.81598 394.91591871,75.91508 400.79301870999996,76.01240000000001 406.66871871,76.10756 412.54361871,76.20015000000001 418.41851871,76.28998 424.29391871,76.37713 430.17001871,76.46166000000001 436.04651871000004,76.54364000000001 441.92291871,76.62314 447.79811871,76.70008 453.67141871,76.77397 459.54231870999996,76.84427000000001 465.41091871,76.91043 471.27791871,76.97192000000001 477.14431871,77.02825 483.01121871,77.07948 488.87941871,77.12588000000001 494.74911871,77.16773 500.62001870999995,77.20531 506.49141871,77.23886 512.3618187100001,77.26833 518.2306187099999,77.29322 524.0971187099999,77.31302000000001 529.96151871,77.32725 535.82421871,77.3354 541.6862187099999,77.33711000000001 547.5485187099999,77.33245000000001 553.41161871,77.32158000000001 559.2756187099999,77.30466000000001 565.14031871,77.28184 571.0051187099999,77.25325000000001 576.86911871,77.21877 582.73181871,77.17815 588.59321871,77.13113 594.45351871,77.07744000000001 600.3135187099999,77.01684 606.17411871,76.94928 612.03591871,76.87497 617.8991187099999,76.79415 623.76301871,76.70707 629.62681871,76.61397000000001 635.48901871,76.51485 641.34831871,76.40912 647.2044187099999,76.29611 653.0576187099999,76.17514 658.90891871,76.04551000000001 664.76011871,75.90678 670.6128187099999,75.75935000000001 676.4679187099999,75.6038 682.3257187099999,75.44075000000001 688.1855187099999,75.27082 694.0461187099999,75.09453 699.90591871,74.91186 705.76441871,74.72263000000001 711.6215187099999,74.52666 717.4779187099999,74.32375 723.3349187099999,74.11375000000001 729.1936187099999,73.89684 735.05391871,73.67327 740.9149187099999,73.44335000000001 746.77461871,73.20742 752.6302187099999,72.96543 758.4802187099999,72.71665 764.3253187099999,72.4602 770.16831871,72.1951 776.01381871,71.9205 781.86681871,71.63809 787.72781871,71.35119 793.5925187099999,71.06348 799.45091871,70.7788 805.2891187099999,70.49608 811.09551871,70.20481000000001 816.8642187099999,69.89362 822.59521871,69.55125000000001 828.29381871,69.17241 833.96911871,68.77615 839.6298187099999,68.387495 845.28371871,68.03112 850.93821871,67.72668 856.59871871,67.460363 862.27111871,67.20445000000001 867.96271871,66.930835 873.6827187099999,66.616175 879.4398187099999,66.265533 885.23641871,65.894094 891.06721871,65.518104 896.9195187099999,65.147652 902.7811187099999,64.78115600000001 908.6453187099999,64.41554400000001 914.51081871,64.048125 920.3789187099999,63.67883500000001 926.2496187099999,63.30832 932.12181871,62.937274 937.99391871,62.566285 943.86461871,62.195873000000006 949.73341871,61.82593000000001 955.59961871,61.455311 961.46261871,61.083329000000006 967.3195187099999,60.712716 973.1623187099999,60.348009000000005 978.97781871,59.99654 984.74811871,59.66626900000001 990.4486187099999,59.3611535 995.9259187099999,59.085480700000005 1000.68561871,58.882817700000004 1003.98371871,58.765010000000004" stroke="black" stroke-width="2.0" /></svg>