<?xml version="1.0" encoding="utf-8" ?>
<svg baseProfile="full" height="122.1612730502" version="1.1" width="1012.0507953" xmlns="http://www.w3.org/2000/svg" xmlns:ev="http://www.w3.org/2001/xml-events" xmlns:xlink="http://www.w3.org/1999/xlink"><defs /><polygon fill="none" points="1004.0507953,109.1618 1000.1660953,108.1945 995.4775953000001,107.036701 990.5476953,105.830623 985.3576952999999,104.573452 979.8896953,103.26283000000001 974.1280953,101.89727 968.0625953,100.47672 961.6909953,99.00328 955.0238953,97.48207 948.0885953000001,95.92131 940.9289953,94.32828 933.5976952999999,92.70919 926.1485953,91.06931 918.6308953,89.41197 911.0833953,87.73786 903.5312953,86.04457 895.9849953,84.32906 888.4458953,82.59460999999999 880.9142953,80.84591 873.3899953,79.08757 865.8723953,77.3241 858.3605953,75.55991 850.8534953000001,73.79928000000001 843.3491953,72.04641 835.8458953,70.30541 828.3411953,68.58028 820.8322953,66.87495 813.3161953,65.19331 805.7893953,63.53917 798.2481953,61.91591 790.6893953,60.32359 783.1106953,58.76069 775.5098952999999,57.22581 767.8853953,55.717670000000005 760.2359953,54.23504 752.5607953,52.77682 744.8593953000001,51.341950000000004 737.1317953,49.929469999999995 729.3784953,48.538470000000004 721.6004952999999,47.16811 713.7992953,45.81761999999999 705.9768953,44.486270000000005 698.1358953,43.173280000000005 690.2791953,41.877039999999994 682.4093953,40.595380000000006 674.5288952999999,39.32603999999999 666.6393952999999,38.066649999999996 658.7423953,36.814750000000004 650.8385953000001,35.56778999999999 642.9286953,34.32312 635.0124953,33.07802000000001 627.0894953,31.82969 619.1588953,30.57520000000001 611.2189953000001,29.311549999999997 603.2678953,28.03560999999999 595.3028952999999,26.74548 587.3212953,25.443349999999995 579.3227953,24.132590000000008 571.3094953,22.817049999999995 563.2864953,21.50108 555.2612953,20.189480000000003 547.2443953000001,18.887460000000004 539.2485952999999,17.60055 531.2888953,16.33449999999999 523.3818953,15.09505 515.5456953,13.887900000000002 507.7986953,12.71820000000001 500.1588953,11.5912 492.6435953,10.515299999999996 485.2654953,9.501500000000007 478.03149529999996,8.558599999999998 470.9442953,7.6936000000000035 464.00259530000005,6.911900000000003 457.2026953,6.217499999999987 450.5386953,5.613500000000002 444.0035953,5.102400000000003 437.5893953,4.68610000000001 431.2873953,4.366200000000006 425.0887953,4.144200000000012 418.98429530000004,4.0216000000000065 412.9647953,4.0 407.0209953,4.0811999999999955 401.1435953,4.266999999999996 395.3231953,4.550699999999992 389.5509953,4.917899999999989 383.8192953,5.354799999999997 378.12089530000003,5.848399999999998 372.44959530000006,6.386400000000009 366.79959529999996,6.956999999999994 361.1657953,7.548599999999993 355.5434953,8.149899999999988 349.9281953,8.749899999999997 344.3159953,9.337299999999999 338.7031953,9.9011 333.0865953,10.429900000000004 327.46289529999996,10.912499999999994 321.8294953,11.337299999999999 316.1836953,11.692399999999992 310.5233953,11.965699999999998 304.8465953,12.144900000000007 299.1515953,12.219899999999996 293.4369953,12.195799999999991 287.7021953,12.083799999999997 281.9466953,11.89540000000001 276.1703953,11.642300000000006 270.37389529999996,11.336500000000001 264.5579953,10.990099999999998 258.7241953,10.615700000000004 252.8742953,10.226099999999988 247.01089530000002,9.834400000000002 241.1367953,9.45389999999999 235.25559529999998,9.097899999999996 229.3711953,8.779899999999998 223.4881953,8.513199999999998 217.6113953,8.3112 211.74639530000002,8.186700000000002 205.8986953,8.152100000000004 200.0745953,8.218599999999995 194.2799953,8.389200000000002 188.51769529999999,8.662199999999999 182.78589530000002,9.035999999999987 177.0781953,9.509799999999998 171.3841953,10.0839 165.68909530000002,10.759999999999991 159.9734953,11.541699999999992 154.21209530000002,12.435199999999995 148.3718953,13.447999999999993 142.41759530000002,14.579369999999997 136.3265953,15.823499999999996 130.09749530000002,17.168599999999998 123.7584953,18.593450000000004 117.37419530000001,20.065000000000012 111.04419530000001,21.53956000000001 104.8868953,22.969099999999997 99.01288530000001,24.31804000000001 93.4877953,25.603919999999988 88.3087253,26.863160000000008 83.43552530000001,28.128950000000003 78.8159753,29.43083 74.3962453,30.790809999999993 70.1361553,32.20917 66.0228353,33.676140000000004 62.062585299999995,35.17627 58.2720053,36.69001 54.670105299999996,38.19633 51.273275299999995,39.67672 48.09445529999999,41.124390000000005 45.1320753,42.540499999999994 42.3737153,43.929 39.8026353,45.294889999999995 37.4013953,46.64343000000001 35.1534653,47.97967 33.0439353,49.30836000000001 31.0596953,50.63388 29.1893053,51.96031 27.421705300000003,53.29148 25.7429953,54.62977 24.1428453,55.97435 22.6149853,57.32166 21.1556253,58.66621 19.7623153,60.00156 18.433065300000003,61.32106 17.165895300000003,62.61861 15.958725300000001,63.88904 14.814285300000002,65.12749 13.737378300000001,66.33081999999999 12.7293333,67.49844999999999 11.7892403,68.63137 10.9149983,69.73141 10.1039523,70.80080000000001 9.3532793,71.8419 8.6602093,72.85708 8.0221433,73.8486 7.4367163000000005,74.81861 6.901817299999999,75.76911 6.4156033,76.70197 5.9764913,77.61894 5.5831513,78.52164 5.2344983,79.41158 4.9296827,80.29022 4.6680837,81.15889999999999 4.4493065,82.01894 4.2731813,82.87159 4.13976654,83.71809 4.049357225,84.55965 4.0024975,85.39750000000001 4.0,86.23286 4.042972522,87.06701 4.1324936,87.90117000000001 4.2679684,88.73601 4.4484234,89.57194 4.673179,90.40929 4.9418217,91.2483 5.2541833,92.08915 5.6103233,92.93193 6.010521300000001,93.77664 6.4552673,94.62319 6.9452563000000005,95.47135 7.4813893,96.32077 8.0647633,97.17090999999999 8.6966733,98.02104 9.3786023,98.87013999999999 10.1122113,99.71689 10.8993103,100.55955 11.7418213,101.39586 12.6417113,102.22292 13.6008863,103.037 14.621025300000001,103.83333999999999 15.7033453,104.605892 16.848225300000003,105.347065 18.0561453,106.050232 19.3293653,106.713263 20.6702853,107.334969 22.081255300000002,107.914715 23.5645853,108.452587 25.1226553,108.949577 26.758065300000002,109.407808 28.4738553,109.830792 30.2741053,110.223381 32.1658953,110.587696 34.1586153,110.923676 36.262955299999994,111.231574 38.4909653,111.512186 40.8560453,111.767147 43.3727653,111.999351 46.0562253,112.213571 48.9206753,112.41732 51.9769253,112.621959 55.2279153,112.843686 58.666185299999995,113.090942 62.2780153,113.3526176 66.0455353,113.6117781 69.9517953,113.8476273 73.9876953,114.0361999 78.1601853,114.15026698 82.5018953,114.1612730502 87.0687053,114.06444314 91.92453530000002,113.8683655 97.1348053,113.5862473 102.7505053,113.2423651 108.76879530000001,112.875568 115.1055953,112.497721 121.63009530000001,112.100307 128.2023953,111.672851 134.7089953,111.204277 141.08099529999998,110.6837 147.29419529999998,110.100397 153.3588953,109.44303 159.3092953,108.702687 165.18909530000002,107.891968 171.0354953,107.02972199999999 176.8796953,106.133774 182.7485953,105.221983 188.6654953,104.313101 194.6510953,103.42753 200.7230953,102.58802 206.8959953,101.81971 213.17979530000002,101.13603 219.5817953,100.53501 226.10909529999998,100.01368 232.7684953,99.5688 239.56629529999998,99.19675 246.5079953,98.89337 253.5978953,98.65387 260.83869530000004,98.47265 268.23099529999996,98.34312 275.7724953,98.25758 283.45739530000003,98.20708 291.2753953,98.18129 299.2113953,98.16855 307.24449530000004,98.15612 315.3497953,98.13711 323.50289530000003,98.1133 331.6814953,98.08721 339.8658953,98.06145000000001 348.0400953,98.0386 356.19159529999996,98.02121 364.3120953,98.01177 372.3967953,98.01267 380.4445953,98.02621 388.4577953,98.05465 396.44179529999997,98.1002 404.4050953,98.16513 412.3586953,98.25094 420.3139953,98.35639 428.2805953,98.47969 436.26619530000005,98.61909 444.2773953,98.77285 452.31859529999997,98.9392 460.39279530000005,99.11631 468.5009953,99.30229 476.64239530000003,99.49512 484.8141953,99.69272 493.0110953,99.89289 501.22599529999997,100.09331 509.44929529999996,100.29184 517.6702953,100.48905 525.8789952999999,100.68735 534.0670953,100.88920999999999 542.2276952999999,101.09706 550.3551953,101.31332 558.4458953000001,101.54034 566.4969953,101.78043 574.5072953,102.03587 582.4767953,102.30888 590.4064953000001,102.60165 598.2985953,102.91637 606.1561953,103.2552 613.9832953,103.61806 621.7842953,104.00079 629.5631953,104.398863 637.3241953,104.807885 645.0710953,105.223528 652.8075953,105.641519 660.5375953,106.057623 668.2645953,106.467622 675.9921953,106.867293 683.7238953,107.252394 691.4632953,107.618644 699.2138953,107.961702 706.9790952999999,108.277231 714.7621953,108.564344 722.5655953,108.826987 730.3900953,109.069461 738.2355953,109.29608999999999 746.1006953000001,109.511233 753.9822953,109.719289 761.8763953,109.924687 769.7772953,110.131867 777.6778953,110.34525 785.5700953,110.569195 793.4441953,110.807951 801.2895953,111.065591 809.0949952999999,111.345418 816.8491953,111.643838 824.5439953,111.952887 832.1740953,112.264915 839.7365953000001,112.572725 847.2312953,112.869581 854.6598953,113.149191 862.0258953,113.4056559 869.3345953,113.6334054 876.5923953,113.8271192 883.8072953000001,113.9816374 890.9883953,114.09186188 898.1459953,114.152646904 905.2915952999999,114.158684926 912.4368953,114.10657711 919.5852953,113.9980035 926.7271953,113.8356541 933.8393953,113.6229284 940.8868953,113.3642896 947.8257953,113.065414 954.6073953,112.733074 961.1852953,112.374307 967.5235953,111.994893 973.6013953,111.599964 979.4102953,111.19401 984.9516953,110.780779 990.2331953,110.363295 995.2666953,109.943929 1000.0662953000001,109.524504 1004.0507953,109.1618" stroke="black" stroke-width="2.0" /></svg>