<?xml version="1.0" encoding="utf-8" ?>
<svg baseProfile="full" height="108.56522149999999" version="1.1" width="1012.03652608" xmlns="http://www.w3.org/2000/svg" xmlns:ev="http://www.w3.org/2001/xml-events" xmlns:xlink="http://www.w3.org/1999/xlink"><defs /><polygon fill="none" points="1004.03652608,100.23988 1000.8896260800001,99.4406237 997.09002608,98.489225 993.09092608,97.503938 988.87372608,96.482726 984.41882608,95.423767 979.7065260800001,94.325692 974.71812608,93.187957 969.4386260800001,92.01136 963.8597260800001,90.798727 957.9847260800001,89.55572 951.83412608,88.29155 945.44882608,87.01673 938.8847260800001,85.73957 932.2030260800001,84.46701 925.4617260800001,83.20371 918.7089260800001,81.95145 911.97822608,80.70893000000001 905.2869260800001,79.47185999999999 898.6372260800001,78.23411 892.02112608,76.99334 885.4303260800001,75.74936 878.85732608,74.50211 872.29542608,73.25166 865.7388260800001,71.99815 859.18232608,70.74187 852.62122608,69.48322999999999 846.0518260800001,68.22273 839.47062608,66.96103 832.87512608,65.69890000000001 826.2631260800001,64.43725 819.63322608,63.17716 812.98462608,61.919819999999994 806.31732608,60.666599999999995 799.63192608,59.418910000000004 792.9298260800001,58.17717 786.2126260800001,56.94109 779.48192608,55.71031 772.73952608,54.484500000000004 765.9869260800001,53.26328 759.22582608,52.0463 752.45782608,50.83314 745.6845260800001,49.62343 738.9086260800001,48.416940000000004 732.13342608,47.21358 725.35812608,46.01249 718.58152608,44.81277 711.80472608,43.61391999999999 705.03162608,42.41591 698.26342608,41.21851 691.50132608,40.02279 684.7461260800001,38.8303 677.99862608,37.64256 671.25952608,36.46109 664.52932608,35.28734 657.8086260800001,34.122780000000006 651.09782608,32.9688 644.39732608,31.82679999999999 637.70732608,30.69811 631.0280260800001,29.584060000000008 624.3596260800001,28.485929999999996 617.7021260800001,27.40498000000001 611.0554260800001,26.34244000000001 604.4195260800001,25.299509999999998 597.79422608,24.27726 591.1794260800001,23.27637999999999 584.5749260800001,22.297389999999993 577.98022608,21.340770000000006 571.39462608,20.406980000000004 564.8172260800001,19.496449999999996 558.2470260800001,18.60959000000001 551.6827260800001,17.746800000000007 545.12292608,16.90847000000001 538.5658260800001,16.09496 532.00962608,15.306659999999994 525.45232608,14.543949999999995 518.89162608,13.807230000000004 512.32502608,13.096890000000002 505.74992607999997,12.413359999999997 499.16322607999996,11.75703 492.56222608,11.127700000000004 485.94462608,10.52498 479.30902607999997,9.948529999999991 472.65472608,9.398110000000003 465.98182607999996,8.873569999999987 459.29142608,8.374769999999998 452.58552607999997,7.901669999999996 445.86672608,7.454189999999997 439.13892608,7.032300000000006 432.40672607999994,6.635949999999994 425.67562608,6.265060000000005 418.95202608,5.919530000000009 412.24322607999994,5.599180000000004 405.55702608,5.30377 398.90182608,5.033229999999989 392.28552608,4.789269999999988 385.71442608,4.5742699999999985 379.19182608,4.390370000000004 372.71942607999995,4.239489999999989 366.29662607999995,4.123380000000012 359.92112607999996,4.043689999999998 353.58942608,4.002030000000005 347.29612607999996,4.0 341.03492608,4.039289999999994 334.79802608,4.1217200000000105 328.57662608,4.249319999999997 322.36042607999997,4.424400000000006 316.13762608,4.649659999999997 309.89492607999995,4.928290000000004 303.61672608,5.264119999999991 297.28522608,5.660359999999997 290.88172608,6.116129999999998 284.39032607999997,6.629679999999993 277.79812608,7.199100000000001 271.09622608,7.821950000000001 264.29032607999994,8.494020000000006 257.52912607999997,9.195309999999992 250.85762608,9.914379999999994 244.25272607999997,10.647230000000008 237.68752608,11.390900000000002 231.13102608,12.143319999999989 224.54762608,12.903229999999994 217.89452608,13.67013999999999 211.12052608,14.444149999999993 204.36872608,15.202970000000008 197.83912607999997,15.924320000000009 191.55922607999997,16.62778 185.52782607999998,17.337239999999994 179.72612608,18.07338 174.12582608,18.854389999999995 168.69402608,19.69704 163.39572608,20.617909999999995 158.19412608,21.63472 153.04972608,22.767880000000005 147.91762608,24.02855000000001 142.75462608,25.39832 137.53462608,26.850040000000007 132.25252608,28.348550000000003 126.92792608,29.84880000000001 121.60712608,31.297219999999996 116.35882608,32.63783000000001 111.26152608,33.82179000000001 106.38552607999999,34.816460000000006 101.78066607999999,35.61144 97.47688608,36.26208 93.46754608,36.85983000000001 89.71744608,37.47208 86.18392607999999,38.148619999999994 82.82503608,38.930330000000005 79.60111608,39.85615 76.47142608,40.96286 73.38308608,42.24965 70.28490608,43.70169 67.13066608000001,45.30483 63.87671608,47.04095 60.48248608000001,48.88174 56.91533608,50.780750000000005 53.161446080000005,52.66497999999999 49.254866080000006,54.46416 45.28563608,56.16488 41.34817608,57.77085 37.52177608,59.29428 33.863066079999996,60.75239 30.406156080000002,62.164010000000005 27.16582608,63.54898 24.150386080000004,64.93916 21.42326608,66.32840999999999 19.03695608,67.67593 16.977706079999997,68.95202 15.19831608,70.14587 13.660285080000001,71.25435999999999 12.32465108,72.28523 11.15602908,73.25009 10.12631608,74.15988 9.21421008,75.02363 8.40362408,75.84862 7.68229908,76.64068 7.04080008,77.40454 6.47180608,78.14411 5.96961008,78.86265 5.52977308,79.56294 5.14887608,80.24735 4.82434328,80.91801 4.55432278,81.57679 4.33760368,82.22539 4.17356748,82.86541 4.0621672,83.49835 4.00393191,84.12568999999999 4.0,84.74887 4.05217607,85.3694 4.16164258,85.98877 4.32733998,86.60828 4.54850478,87.22913 4.82500978,87.85247 5.15734108,88.47939 5.54660408,89.11094 5.99455608,89.74821 6.50366608,90.392236 7.07721808,91.04410899999999 7.71943908,91.704898 8.435692079999999,92.37566 9.23271808,93.057383 10.118965079999999,93.75088099999999 11.10496908,94.456581 12.203788079999999,95.174099 13.43126408,95.901383 14.80556608,96.632968 16.34425608,97.35638 18.05924608,98.048232 19.97145608,98.685551 22.103486080000003,99.2452435 24.467446080000002,99.7053186 27.063546080000002,100.0548037 29.895646080000002,100.3047171 32.99396608000001,100.4737123 36.39879608,100.5605894 40.15415608,100.56522149999999 44.30445608,100.4952129 48.88616608,100.3724462 53.91182608,100.242482984 59.35092608,100.16710727 65.13885608000001,100.15508025 71.18470608,100.18663513 77.40010608,100.230855404 83.73522608,100.25384196 90.17121608000001,100.25243213 96.68688608000001,100.241903564 103.25495608,100.2389230567 109.84312608,100.2574943 116.42162608000001,100.29267807 122.96872608000001,100.33271692 129.47172608,100.3661302 135.92592607999998,100.3819388 142.33452608,100.3696648 148.70732607999997,100.31914996 155.06052608,100.22023424 161.41582608,100.067213 167.79502607999999,99.8659932 174.21602608,99.6240579 180.69322608,99.348962 187.23672607999998,99.048644 193.85232607999998,98.731682 200.54052608,98.407491 207.29582607999998,98.086219 214.10682607999996,97.773887 220.96072608,97.471527 227.82922608,97.180495 234.68032608,96.902083 241.52222607999997,96.635833 248.36342608,96.381341 255.21092608,96.138305 262.07052608,95.90652 268.94422608,95.685928 275.80772607999995,95.477269 282.65112608,95.280715 289.47452608000003,95.096109 296.27942608,94.923264 303.06842608,94.761974 309.84572607999996,94.611946 316.61572608,94.472415 323.38262608,94.342468 330.14992608,94.22123 336.92062608,94.10784699999999 343.69752608,94.00148899999999 350.48282608,93.901337 357.27802607999996,93.806582 364.08442607999996,93.71642 370.90272608,93.630046 377.73322607999995,93.546657 384.57562608,93.465447 391.42912607999995,93.385606 398.29242608,93.306324 405.16372608,93.226787 412.04052607999995,93.146531 418.92052607999995,93.065943 425.80162608,92.985542 432.68192608,92.90584199999999 439.55992607999997,92.827354 446.43412608,92.750582 453.30362607999996,92.676027 460.16762608,92.604181 467.02562608,92.535531 473.87752608,92.470558 480.72332608,92.409738 487.56332607999997,92.353542 494.39812608,92.302437 501.22852608,92.25689 508.05572608,92.217343 514.8810260800001,92.183908 521.70542608,92.156435 528.52992608,92.13477 535.35552608,92.118766 542.1827260800001,92.10827499999999 549.0120260799999,92.103155 555.84392608,92.103261 562.6786260800001,92.108452 569.5160260800001,92.118586 576.35602608,92.13352 583.1984260800001,92.153109 590.0427260800001,92.177209 596.8883260800001,92.20567 603.73442608,92.238344 610.58012608,92.275113 617.4245260800001,92.316034 624.26692608,92.36121 631.10662608,92.410743 637.9434260800001,92.464736 644.77712608,92.523292 651.60782608,92.586517 658.43562608,92.654515 665.26112608,92.727396 672.0848260800001,92.805272 678.90752608,92.888259 685.73022608,92.976478 692.55412608,93.070056 699.38072608,93.169126 706.2114260800001,93.273827 713.0480260800001,93.384161 719.8919260800001,93.499894 726.74422608,93.620766 733.60542608,93.746511 740.47572608,93.876851 747.3543260800001,94.011491 754.23082608,94.149936 761.10092608,94.291787 767.96612608,94.436776 774.82882608,94.58464599999999 781.6916260800001,94.735159 788.5579260800001,94.888088 795.4312260800001,95.043222 802.30822608,95.200191 809.17042608,95.358366 816.0124260800001,95.518247 822.83092608,95.680793 829.62412608,95.846974 836.39122608,96.01776 843.13252608,96.19413 849.84952608,96.377067 856.5449260800001,96.567572 863.22192608,96.766667 869.88522608,96.975411 876.5400260800001,97.194907 883.19272608,97.426322 889.85082608,97.670907 896.52262608,97.93002 903.2179260800001,98.205154 909.94742608,98.496881 916.7165260800001,98.799336 923.51592608,99.103524 930.31922608,99.3994943 937.0838260800001,99.6767478 943.75402608,99.9250689 950.2682260800001,100.1355852 956.56642608,100.30183692 962.60042608,100.4229266 968.34232608,100.5032504 973.78332608,100.5479681 978.9282260800001,100.5621587 983.7905260800001,100.5504785 988.38812608,100.5170141 992.74062608,100.4652579 996.8679260800001,100.3981478 1000.7891260800001,100.31813377 1004.03652608,100.23988" stroke="black" stroke-width="2.0" /></svg>