<?xml version="1.0" encoding="utf-8" ?>
<svg baseProfile="full" height="161.51807" version="1.1" width="1013.045938" xmlns="http://www.w3.org/2000/svg" xmlns:ev="http://www.w3.org/2001/xml-events" xmlns:xlink="http://www.w3.org/1999/xlink"><defs /><polygon fill="none" points="1005.045938,137.53799999999998 1001.762038,136.5500253 997.715738,135.38805299999999 993.351138,134.202533 988.625938,132.99764199999998 983.504338,131.781694 977.9668379999999,130.56228499999997 972.0180379999999,129.34740399999998 965.692938,128.145894 959.0579379999999,126.96507999999999 952.2001379999999,125.80787999999998 945.207938,124.67048999999999 938.150938,123.54157999999998 931.066638,122.40640999999998 923.969238,121.26139999999998 916.8686379999999,120.10629999999998 909.7731379999999,118.94061999999998 902.689438,117.76362999999998 895.621938,116.57435999999998 888.5737379999999,115.37155999999999 881.545738,114.15374999999999 874.537438,112.91915999999998 867.546638,111.66574999999997 860.569338,110.39115999999999 853.600138,109.09292999999998 846.632538,107.77029999999998 839.660438,106.42366999999999 832.6784379999999,105.05351999999998 825.6820379999999,103.66042999999998 818.667138,102.24510999999998 811.630538,100.80838999999997 804.569738,99.35125 797.4829379999999,97.87483999999998 790.369138,96.38051999999998 783.228038,94.86982999999998 776.060338,93.34457999999998 768.867638,91.80677999999997 761.652538,90.25873999999999 754.418638,88.70299999999997 747.1706379999999,87.14191999999997 739.913638,85.57652999999998 732.6524380000001,84.00752999999999 725.3912379999999,82.43547999999998 718.133738,80.86081999999999 710.8829380000001,79.28387999999998 703.641138,77.70484999999998 696.410338,76.12380999999999 689.191538,74.54068999999998 681.9855379999999,72.95531999999997 674.792438,71.36742999999998 667.611738,69.77660999999998 660.442638,68.18234999999997 653.2835379999999,66.58400999999999 646.132538,64.98084999999998 638.987138,63.372009999999975 631.844538,61.756499999999974 624.701238,60.13325999999998 617.5537380000001,58.50134999999999 610.3993380000001,56.85997999999998 603.236238,55.20849999999999 596.063138,53.54641999999998 588.879338,51.87340999999998 581.685038,50.189289999999986 574.481238,48.49408999999997 567.2694379999999,46.78796999999999 560.0520379999999,45.071329999999975 552.8323379999999,43.344729999999984 545.614238,41.60894999999998 538.402238,39.864969999999985 531.2019379999999,38.11394999999999 524.019138,36.35729999999998 516.8604379999999,34.59639999999999 509.732738,32.83309999999997 502.643438,31.069099999999978 495.59973799999995,29.30949999999997 488.60803799999996,27.563299999999984 481.67323799999997,25.839499999999973 474.79923799999995,24.14619999999998 467.989038,22.490999999999985 461.244538,20.880599999999987 454.566938,19.32119999999999 447.95653799999997,17.81829999999998 441.413138,16.37679999999999 434.93593799999996,15.00109999999998 428.523738,13.695099999999982 422.174738,12.462399999999974 415.886938,11.306099999999972 409.658238,10.228899999999967 403.485838,9.233399999999989 397.36713799999995,8.321899999999971 391.299338,7.496499999999969 385.27943799999997,6.759299999999996 379.304338,6.111999999999995 373.370838,5.556399999999968 367.476438,5.091700000000003 361.61923799999994,4.714100000000002 355.796538,4.419599999999974 350.005338,4.204599999999999 344.241538,4.0656999999999925 338.501038,4.0 332.77883799999995,4.004799999999989 327.069638,4.077899999999971 321.36763799999994,4.217199999999991 315.666138,4.421299999999974 309.958138,4.688999999999993 304.23573799999997,5.019299999999987 298.49003799999997,5.411999999999978 292.711038,5.867299999999972 286.887538,6.385699999999986 281.006538,6.9684999999999775 275.052938,7.61779999999996 269.00843799999996,8.336499999999972 262.851638,9.12869999999998 256.555438,10.000099999999975 250.08583800000002,10.958499999999972 243.398038,12.017299999999963 236.442538,13.19419999999998 229.171838,14.509399999999985 221.86643800000002,15.921099999999981 214.963038,17.34059999999998 208.343138,18.78189999999998 201.920838,20.257099999999994 195.621738,21.778999999999982 189.375238,23.363399999999984 183.11313800000002,25.028399999999976 176.760038,26.797399999999982 170.216138,28.705399999999983 163.339638,30.805799999999977 156.045038,33.14289999999998 149.54283800000002,35.32229999999997 143.752338,37.34019999999998 138.552338,39.21440999999999 133.81263800000002,40.97411999999997 129.432038,42.64447999999999 125.338538,44.243919999999974 121.475738,45.78796999999999 117.79853800000001,47.289539999999974 114.27803800000001,48.75672999999999 110.87543800000002,50.202719999999985 107.569038,51.63474999999998 104.34964800000002,53.05517999999998 101.183648,54.47770999999999 98.041188,55.915479999999974 94.903638,57.37739999999998 91.760498,58.86913999999999 88.58168800000001,60.406439999999975 85.329508,62.01008999999998 81.96252800000002,63.704519999999974 78.42577800000001,65.52349999999998 74.60705800000001,67.53476999999998 70.290708,69.87099999999998 64.991058,72.84883999999998 59.803598,75.91645999999997 56.322478000000004,78.07912999999999 53.407588,79.96385999999998 50.883958,81.65499999999997 48.435218,83.35223999999998 46.037698,85.07059999999998 43.646558,86.84264999999999 41.215978,88.70569999999998 38.688788,90.71074999999999 35.966998000000004,92.94938999999998 32.868268,95.59959999999998 28.974937999999998,99.08387999999998 22.607688,105.15086999999998 19.976248,107.79225999999998 18.073058,109.76530999999999 16.497228,111.45143999999998 15.131817999999999,112.96035999999998 13.911689999999998,114.35476999999999 12.824084,115.64207999999998 11.851574000000001,116.83586999999999 10.949847,117.98617999999999 10.102302,119.11349999999999 9.345651,120.16592999999997 8.633272999999999,121.20556999999998 7.9942779999999996,122.18801999999998 7.41909,123.12296999999998 6.9064630000000005,124.00732999999998 6.4510190000000005,124.84468999999999 6.0284974,125.67795999999998 5.622987,126.54599999999998 5.2391133,127.45419999999999 4.8867022,128.39939599999997 4.5788399,129.36987499999998 4.3290552,130.346136 4.1479939,131.30199499999998 4.039917,132.206763 4.0,133.03671099999997 4.017009,133.78464 4.0791149,134.458599 4.1781787,135.07606199999998 4.3103286,135.65388099999998 4.4892404,136.24815999999998 4.7143279,136.8398471 4.98535018,137.4215315 5.2998456,137.9864074 5.6495201,138.5257366 6.067062,139.08810699999998 6.538167,139.64807799999997 7.065176,140.20692799999998 7.65055,140.76546499999998 8.295428,141.323006 9.003523,141.880914 9.777409,142.43919799999998 10.598823,142.98442799999998 11.527353,143.55293999999998 12.551826,144.13178299999998 13.683449,144.722345 14.881876,145.30114199999997 16.092308,145.84458999999998 17.598338,146.471727 19.313598,147.12968399999997 20.947088,147.7086 23.028897999999998,148.38833 25.999678,149.25511999999998 30.937018,150.43793 37.360878,151.5281 42.538498000000004,152.07645 47.233588,152.35466 51.815548,152.45911999999998 56.356858,152.43471 64.139668,152.20364999999998 70.043518,151.97064999999998 74.978808,151.80512 79.444928,151.69696 83.60459800000001,151.62905999999998 87.54620800000001,151.5914 91.408578,151.57745999999997 95.193138,151.58384999999998 98.927738,151.60775999999998 102.71826800000001,151.64806 106.542638,151.70326999999997 110.43523800000001,151.77256999999997 114.449738,151.85589 118.64443800000001,151.95361999999997 123.03763800000002,152.06515 127.699538,152.19090999999997 132.700638,152.33079999999998 138.219638,152.48669999999998 144.510338,152.65997 151.860638,152.84669 159.020738,153.00368999999998 165.62633800000003,153.12651 171.893438,153.2248 177.929238,153.30378 183.81673800000002,153.36704999999998 189.627638,153.41714 195.41873800000002,153.45582 201.22443800000002,153.48432999999997 207.086538,153.50368999999998 213.042338,153.51469999999998 219.131538,153.51807 225.399838,153.51441999999997 231.895038,153.50437 238.655238,153.48864999999998 245.717938,153.46820999999997 253.113138,153.44438 260.401638,153.42033999999998 267.502438,153.39691999999997 274.465938,153.37382999999997 281.33173800000003,153.35081 288.134138,153.32761 294.898938,153.30402999999998 301.648538,153.27987 308.403038,153.25492999999997 315.180038,153.22902 321.99493799999993,153.20194999999998 328.86163799999997,153.17349 335.791838,153.14343999999997 342.79533799999996,153.11157999999998 349.879238,153.07769 357.049538,153.04153 364.309438,153.00285 371.65773799999994,152.96142999999998 379.08493799999997,152.91708999999997 386.48143799999997,152.87033 393.82993799999997,152.82126 401.142638,152.76979999999998 408.430138,152.71586 415.701838,152.65935 422.965938,152.60016 430.229838,152.5382 437.499938,152.47337 444.781438,152.40555999999998 452.079138,152.33468 459.397138,152.26058999999998 466.738938,152.18321999999998 474.10583799999995,152.10244999999998 481.50183799999996,152.01816 488.92663799999997,151.93027999999998 496.343938,151.83917999999997 503.738438,151.74499999999998 511.113838,151.64771 518.4737379999999,151.54726999999997 525.821738,151.44369999999998 533.160838,151.33699 540.493938,151.22714 547.823638,151.11415999999997 555.1521379999999,150.99803999999997 562.481538,150.87878999999998 569.813338,150.75638999999998 577.149238,150.63085999999998 584.490338,150.50218999999998 591.837538,150.37041 599.191438,150.23549999999997 606.5526379999999,150.09750999999997 613.921038,149.95642999999998 621.2965379999999,149.8123 628.678638,149.66514999999998 636.066738,149.51502999999997 643.4596379999999,149.36205999999999 650.8563379999999,149.20658999999998 658.256138,149.04897999999997 665.657938,148.88959999999997 673.0610379999999,148.72880999999998 680.464838,148.56697999999997 687.868638,148.40446999999998 695.2718379999999,148.24165 702.674138,148.07887 710.074938,147.91648999999998 717.4741379999999,147.75486999999998 724.8713379999999,147.59435 732.2666380000001,147.43530399999997 739.659838,147.27806199999998 747.051038,147.12297399999997 754.440438,146.970385 761.828138,146.820429 769.214238,146.672195 776.598438,146.524442 783.980138,146.37594099999998 791.358538,146.22546899999998 798.732138,146.071814 806.099738,145.91377899999998 813.459238,145.750182 820.808538,145.579862 828.145338,145.401682 835.466838,145.21453599999998 842.770238,145.017351 850.052238,144.80909599999998 857.309538,144.588787 864.5384379999999,144.35586099999998 871.736138,144.11228599999998 878.901438,143.86100699999997 886.034638,143.60484599999998 893.137538,143.34649799999997 900.213438,143.08853699999997 907.266738,142.83342799999997 914.3032380000001,142.583545 921.329838,142.34119399999997 928.3549380000001,142.108647 935.387938,141.88817099999997 942.439638,141.681132 949.507938,141.476136 956.5470379999999,141.25342999999998 963.465838,140.99587499999998 970.1470380000001,140.69167399999998 976.478938,140.336212 982.3840379999999,139.93165599999998 987.8310379999999,139.48455299999998 992.828438,139.00406999999998 997.413638,138.5024565 1001.6366380000001,137.9888485 1005.045938,137.53799999999998" stroke="black" stroke-width="2.0" /></svg>