<?xml version="1.0" encoding="utf-8" ?>
<svg baseProfile="full" height="141.96131" version="1.1" width="1011.9995422502" xmlns="http://www.w3.org/2000/svg" xmlns:ev="http://www.w3.org/2001/xml-events" xmlns:xlink="http://www.w3.org/1999/xlink"><defs /><polygon fill="none" points="1003.9995422502,83.53064 1000.8258422502,81.60113100000001 996.9675422501999,79.39868200000001 992.8754422502,77.22797100000001 988.5267422502,75.09956700000001 983.8987422501999,73.02679 978.9747422502,71.01732000000001 973.7450422502,69.07305000000001 968.2062422501999,67.19413 962.3633422501999,65.37812000000001 956.2317422501999,63.618860000000005 949.8380422502,61.90545 943.2198422501999,60.22148000000001 936.4236422501999,58.54464 929.4973422502,56.856120000000004 922.4784422501999,55.162130000000005 915.4276422501999,53.479890000000005 908.4032422502,51.825500000000005 901.3770422502,50.19424 894.3252422502,48.58288 887.2868422501999,47.00245 880.3034422502,45.46389 873.3757422502,43.96862 866.5015422501999,42.51727 859.6742422502,41.10958000000001 852.8837422501999,39.74439000000001 846.1183422501999,38.418940000000006 839.3678422501999,37.13014000000001 832.6237422502,35.875370000000004 825.8787422502,34.65243000000001 819.1263422502,33.459450000000004 812.3611422502,32.294810000000005 805.5784422501999,31.15715 798.7742422501999,30.045310000000008 791.9456422502,28.958320000000008 785.0902422501999,27.895400000000002 778.2067422501999,26.855890000000002 771.2943422502,25.839320000000008 764.3537422502,24.84533000000001 757.3862422502,23.87368 750.3943422502,22.924270000000007 743.3811422501999,21.99730000000001 736.3497422501999,21.09316000000001 729.3032422502,20.21218000000001 722.2442422501999,19.35466000000001 715.1755422502,18.520790000000005 708.0994422502,17.710750000000004 701.0184422502,16.924630000000008 693.9344422501999,16.162490000000005 686.8494422502,15.424340000000015 679.7653422502,14.710139999999996 672.6835422501999,14.019829999999999 665.6057422502,13.353300000000004 658.5330422502,12.710399999999993 651.4666422501999,12.090980000000002 644.4074422502,11.494829999999993 637.3564422502,10.92174 630.3139422502001,10.371480000000005 623.2807422502,9.843920000000011 616.2569422501999,9.339100000000002 609.2426422502,8.857020000000006 602.2375422502,8.397670000000005 595.2412422502,7.96105 588.2529422502,7.547110000000018 581.2717422502,7.155850000000001 574.2963422502,6.787220000000005 567.3254422502,6.441200000000009 560.3572422501999,6.11778000000001 553.3898422502,5.816970000000012 546.4211422501999,5.538760000000011 539.4487422501999,5.283209999999997 532.4700422501999,5.050370000000001 525.4820422501999,4.840330000000009 518.4815422501999,4.653210000000001 511.46504225020004,4.489190000000008 504.4288422502,4.34845 497.3686422502,4.23124 490.2803422502,4.137640000000005 483.16064225020006,4.067790000000002 476.0072422502,4.021839999999997 468.8191422502,4.0 461.5966422502,4.002470000000017 454.3410422502,4.029440000000008 447.0684422502,4.080960000000005 439.8210422502,4.156530000000004 432.5953422502001,4.255800000000008 425.38514225020003,4.378540000000001 418.18014225020005,4.524650000000008 410.9730422502,4.694140000000004 403.75054225020006,4.887250000000009 396.5019422502,5.104309999999998 389.2427422502,5.344890000000007 382.0398422502,5.606399999999994 374.9092422502,5.887520000000009 367.86274225020003,6.186960000000013 360.91604225020006,6.503339999999994 354.0711422502,6.835880000000003 347.3302422502,7.183720000000008 340.69234225020006,7.54619000000001 334.14964225020003,7.923000000000002 327.6929422502,8.314070000000015 321.31054225020006,8.719580000000008 314.9892422502,9.139930000000007 308.7142422502,9.575820000000007 302.4701422502,10.028160000000014 296.2408422502,10.498080000000016 290.0097422502,10.986950000000007 283.75244225020003,11.497019999999992 277.4468422502,12.030609999999996 271.0644422502,12.590920000000011 264.5682422502,13.182350000000014 257.9138422502,13.810500000000005 251.0367422502,14.483710000000002 243.8670422502,15.213470000000015 236.9719422502,15.945710000000005 230.4330422502,16.67097000000001 224.2113422502,17.391720000000007 218.23654225020002,18.11448 212.4610422502,18.843860000000006 206.8604422502,19.581970000000005 201.37914225019998,20.335590000000003 195.97684225019998,21.11030000000001 190.6108422502,21.912890000000004 185.2340422502,22.75182000000001 179.8019422502,23.63635 174.2510422502,24.58039 168.52144225019998,25.599270000000004 162.4995422502,26.720930000000003 155.9755422502,27.99745 148.74164225020002,29.49076000000001 142.4663422502,30.851660000000003 137.0107422502,32.077890000000004 132.2101422502,33.18531 127.81584225019999,34.21896000000001 123.73904225019999,35.19228000000001 119.9496422502,36.10732000000001 116.3475422502,36.984570000000005 112.91974225019999,37.824580000000005 109.5984422502,38.642010000000006 106.3430422502,39.44529 103.11414225019999,40.242810000000006 99.8927722502,41.038030000000006 96.6653322502,41.83305000000001 93.44155225019999,42.62422000000001 90.1298322502,43.43251 86.66223225019999,44.27248 83.1037922502,45.12592 79.24384225019999,46.03971000000001 74.92423225019999,47.04458 69.8776822502,48.190200000000004 63.0577722502,49.71484 58.8620222502,50.68399000000001 55.5062122502,51.50011000000001 52.6416722502,52.23764 50.0569622502,52.94330000000001 47.6180022502,53.65010000000001 45.169682250200005,54.40487 42.7277822502,55.20779 40.2159222502,56.09093000000001 37.5763022502,57.086690000000004 34.6764422502,58.266690000000004 31.3588022502,59.73498000000001 27.176572250200003,61.778000000000006 20.3390222502,65.61296000000002 17.835422250199997,67.18562 15.7615522502,68.57862 13.939789250199999,69.88891000000001 12.5930022502,70.92366000000001 11.486834250200001,71.8262 10.4849602502,72.69433000000001 9.5899392502,73.52033 8.7095052502,74.39131900000001 7.969299250200001,75.180829 7.230350250200001,76.03746000000001 6.6108412502,76.826255 6.0520222502,77.614456 5.5771342502,78.36584300000001 5.2076352502,79.026559 4.8775340501999995,79.702634 4.5596636502,80.480531 4.2814752502,81.36578700000001 4.0819791902,82.34346500000001 4.0,83.3768544 4.0558170402,84.4090005 4.2316889502,85.383229 4.4888041502,86.263565 4.7881754502,87.03609 5.1023972502,87.70736400000001 5.4578902502,88.36554100000001 5.9094622502,89.101533 6.418244250200001,89.839871 7.0465962502,90.659462 7.7157362502,91.45160700000001 8.4722452502,92.273212 9.2699322502,93.074641 10.1116592502,93.86375000000001 11.029607250200002,94.67128000000001 12.1240912502,95.57560000000001 13.501415250199999,96.64072 14.974822250199999,97.70761 16.6233922502,98.82934 19.5253122502,100.65745000000001 24.4168522502,103.41552 29.8164822502,106.04972000000001 33.56978225020001,107.64345 36.697352250200005,108.83333 39.4922622502,109.79767000000001 42.1305822502,110.62843000000001 44.6809522502,111.36375000000001 47.2319522502,112.03841 49.7776122502,112.65697 52.453102250200004,113.25504000000001 55.4214022502,113.86511 58.8884922502,114.52014 63.30259225020001,115.29024000000001 70.1910722502,116.4286 75.26891225019999,117.28018 79.64494225019999,118.0342 83.55529225019998,118.72045 87.1954922502,119.36742000000001 90.71649225019999,119.99866 94.08336225019998,120.60559 97.3990022502,121.20490000000001 100.7023922502,121.80213 103.98590225019998,122.39448 107.2821422502,122.98647 110.6849422502,123.59335000000002 114.1743422502,124.20964000000001 117.7885422502,124.83984000000001 121.5924422502,125.49229000000001 125.6019422502,126.16577000000001 129.94264225019998,126.87575000000001 134.6324422502,127.61707000000001 139.8093422502,128.3999 145.74304225019998,129.24494 152.6047422502,130.14287000000002 159.8054422502,130.98568 166.3873422502,131.66579000000002 172.6005422502,132.22815 178.58744225019998,132.69638 184.44934225019998,133.08436 190.2657422502,133.39997 196.0963422502,133.64653 202.0092422502,133.8247 208.04684225019997,133.93143 214.2735422502,133.96131 220.7613422502,133.90513 227.5827422502,133.74916000000002 234.7891422502,133.47547 241.7499422502,133.10384 248.3627422502,132.65219000000002 254.7043422502,132.12795 260.8422422502,131.53604 266.83504225020005,130.88197 272.7241422502,130.17035 278.5465422502,129.40397000000002 284.32184225020006,128.58631 290.0728422502,127.71937 295.82514225020003,126.80378000000002 301.58954225020005,125.84186 307.3836422502,124.83451 313.2291422502,123.78149 319.13424225020003,122.68487 325.1148422502,121.54527000000002 331.18424225020004,120.36393000000001 337.3558422502,119.1423 343.6388422502,117.88300000000001 350.0439422502,116.58885000000001 356.58284225020003,115.26309 363.25944225020004,113.91127 370.0707422502,112.54111 377.0208422502,111.15979000000002 384.0835422502,109.77805000000001 391.2142422502001,108.40554 398.27914225020004,107.06768 405.2941422502,105.76061000000001 412.2760422502,104.4805 419.2391422502,103.22416000000001 426.1963422502,101.98889 433.15824225020003,100.77244 440.13444225020004,99.57293000000001 447.13444225020004,98.38853 454.1665422502,97.21779000000001 461.2356422502,96.05982 468.3496422502,94.91332 475.5112422502,93.77791 482.67264225020006,92.66096800000001 489.79434225020003,91.568184 496.87904225020003,90.49852100000001 503.9310422502,89.45072900000001 510.9561422502,88.423507 517.9597422502,87.415942 524.9469422501999,86.427338 531.9223422502,85.457113 538.8900422502,84.5047936 545.8535422501999,83.57000189 552.8161422502,82.6524491 559.7806422502,81.751929 566.7494422502,80.868312 573.7246422502,80.00154500000001 580.7078422502,79.15164200000001 587.7002422502,78.318686 594.7026422502,77.502819 601.7154422501999,76.704239 608.7387422502,75.923198 615.7721422502,75.15999400000001 622.8145422502,74.41497000000001 629.8648422501999,73.688505 636.9211422502,72.98102 643.9815422502,72.29310000000001 651.0440422501999,71.62549000000001 658.1070422501999,70.97888 665.1690422501999,70.35391000000001 672.2287422502,69.75123 679.2850422501999,69.17141000000001 686.3372422502,68.61500000000001 693.3845422502,68.08254000000001 700.4266422502,67.57452 707.4631422501999,67.09142 714.4941422502,66.6337 721.5197422502,66.20179 728.5403422502,65.79614000000001 735.5566422502,65.41716 742.5694422501999,65.06526000000001 749.5798422501999,64.74086 756.5890422502,64.44439 763.5984422501999,64.1765 770.6088422502,63.938120000000005 777.6207422502,63.73026 784.6338422502,63.55393000000001 791.6478422501999,63.410180000000004 798.6614422502,63.30003000000001 805.6734422502,63.224500000000006 812.6816422502,63.1846 819.6837422501999,63.18128 826.6769422502,63.21544000000001 833.6579422502,63.28793 840.6229422502,63.39949 847.5681422501999,63.55078 854.4887422502,63.74234 861.3801422502,63.97457000000001 868.2377422502,64.24796 875.0587422502,64.56311000000001 881.8423422502,64.92062 888.5898422502,65.32117000000001 895.3038422502,65.76553000000001 901.9890422502,66.25466 908.6511422502,66.78974000000001 915.2975422502,67.37222 921.9373422502,68.00393 928.5808422502,68.6871 935.2403422502,69.42454000000001 941.9295422502,70.22074 948.6499422502,71.08984000000001 955.3710422502,72.04769 962.0286422501999,73.10347 968.5322422501999,74.257013 974.7838422502,75.498046 980.6995422502,76.808526 986.2264422502,78.167277 991.3474422502,79.553748 996.0785422502,80.94788000000001 1000.4559422502,82.336297 1003.9995422502,83.53064" stroke="black" stroke-width="2.0" /></svg>