<?xml version="1.0" encoding="utf-8" ?>
<svg baseProfile="full" height="189.13976" version="1.1" width="1012.1628566" xmlns="http://www.w3.org/2000/svg" xmlns:ev="http://www.w3.org/2001/xml-events" xmlns:xlink="http://www.w3.org/1999/xlink"><defs /><polygon fill="none" points="1004.1628566,148.6175 1001.2027566,147.349894 997.5814566000001,146.056653 993.5811566,144.878085 989.0171566,143.711067 983.7706566,142.422461 977.9750566,140.98120600000001 971.9370566000001,139.476977 965.8976566,137.99057000000002 959.8854566,136.54483000000002 953.8273566,135.11725 947.6670566,133.68470000000002 941.3749566,132.23000000000002 934.9553566000001,130.74265 928.4479566,129.22406 921.8992566000001,127.68442 915.3459566,126.13254 908.8116566000001,124.57436000000001 902.3060566,123.01258000000001 895.8254566,121.44696 889.3589566,119.87697 882.8965566,118.30303 876.4309566000001,116.72619 869.9573566,115.14808000000001 863.4734566000001,113.571 856.9797566000001,111.99788000000001 850.4790566,110.43100000000001 843.9761566000001,108.86916000000001 837.4751566000001,107.31040000000002 830.9793566,105.75254000000001 824.4915566000001,104.19328000000002 818.0134566,102.63014000000001 811.5464566,101.06048000000001 805.0909566000001,99.4816 798.6464566,97.89198 792.2119566,96.29118 785.7858566,94.67874 779.3665566000001,93.05409 772.9520566,91.41658000000001 766.5398566,89.76544000000001 760.1273566000001,88.09983 753.7114566,86.41875000000002 747.2889566000001,84.72154 740.8563566,83.00889000000001 734.4113566,81.28206000000002 727.9527566,79.54264 721.4806566000001,77.79255 714.9963566,76.0341 708.5023566000001,74.26997000000001 702.0025566,72.50323 695.5020566000001,70.7373 689.0075566,68.97519000000001 682.5257566,67.21700000000001 676.0623566,65.46163 669.6207566,63.70756 663.2027566,61.95279000000001 656.8083566,60.19493 650.4361566000001,58.43118000000001 644.0827566,56.6583 637.7436566000001,54.87266000000001 631.4125566000001,53.070170000000005 625.0817566000001,51.24825 618.7436566000001,49.40745000000001 612.3928566000001,47.54910000000001 606.0261566,45.67530000000001 599.6428566000001,43.78890000000001 593.2443566000001,41.89320000000001 586.8347566000001,39.9928 580.4208566000001,38.092699999999994 574.0116566000002,36.198800000000006 567.6186566,34.31760000000001 561.2546566000001,32.457300000000004 554.9304566000001,30.627500000000012 548.6534566000001,28.8369 542.4279566000001,27.092600000000004 536.2552566,25.400400000000005 530.1345566000001,23.765400000000014 524.0624566,22.191399999999987 518.0340566,20.681600000000017 512.0424565999999,19.238799999999998 506.0795566,17.865100000000012 500.1359566,16.562299999999993 494.2027566,15.329500000000024 488.2725566,14.164200000000022 482.33935660000003,13.06480000000002 476.3980566,12.030000000000001 470.4442566,11.058899999999994 464.4748566,10.150900000000007 458.4872566,9.305900000000008 452.4801566,8.523899999999998 446.4530566,7.8052000000000135 440.4062566,7.150100000000009 434.3412566,6.559200000000004 428.2599566,6.032000000000011 422.1637566,5.567800000000005 416.0540566,5.165600000000012 409.9314566,4.8245000000000005 403.79635659999997,4.543399999999991 397.6487566,4.321399999999983 391.4882566,4.157499999999999 385.31375660000003,4.050700000000006 379.1241566,4.0 372.9173566,4.004600000000011 366.6912566,4.063699999999983 360.44415660000004,4.176700000000011 354.1755566,4.343100000000021 347.88695659999996,4.562100000000015 341.5811566,4.832999999999998 335.2628566,5.1547999999999945 328.9383566,5.526099999999985 322.6158566,5.945600000000013 316.3051566,6.411000000000001 310.0172566,6.9202999999999975 303.76435660000004,7.47320000000002 297.55635659999996,8.072299999999984 291.3994566,8.720200000000006 285.2966566,9.419500000000028 279.24785660000003,10.173200000000008 273.2499566,10.984200000000016 267.2977566,11.855999999999995 261.38365660000005,12.792500000000018 255.4981566,13.798600000000022 249.6293566,14.87899999999999 243.7645566,16.03540000000001 237.8933566,17.267600000000016 232.0078566,18.575199999999995 226.1035566,19.9572 220.1789566,21.412200000000013 214.2356566,22.9379 208.2792566,24.530600000000007 202.3187566,26.185500000000005 196.3673566,27.896400000000014 190.4402566,29.658500000000018 184.5499566,31.469899999999996 178.7045566,33.32970000000002 172.90725659999998,35.238000000000014 167.1575566,37.19640000000001 161.4508566,39.207800000000006 155.7791566,41.27640000000001 150.1311566,43.4084 144.4922566,45.6113 138.8508566,47.8912 133.2032566,50.25074000000001 127.55505659999999,52.689200000000014 121.9213566,55.20111 116.32665659999999,57.77579 110.8038566,60.397270000000006 105.39075659999999,63.04506000000001 100.1236366,65.69942 95.0166666,68.35238000000001 90.05896659999999,71.00850000000001 85.2222266,73.68251 80.4651566,76.39836000000001 75.7334766,79.19083 70.9541966,82.11098000000001 66.0239366,85.23531 60.8442666,88.64223000000001 55.4237166,92.34437000000001 49.9875366,96.1968 44.93755659999999,99.89903000000001 40.5562266,103.20598000000001 36.8778966,106.06649000000002 33.737736600000005,108.59916000000001 30.9813666,110.91554000000001 28.4993666,113.09723000000001 26.212716600000004,115.20799 24.061576600000002,117.30312 21.9944166,119.44058000000001 19.956016599999998,121.69652 17.8786566,124.16539 15.7581666,126.86139 13.735337600000001,129.58578 11.987839600000001,132.04065 10.5628596,134.09681 9.391343599999999,135.8143 8.4033276,137.27617 7.5556036,138.54549 6.8314676,139.66945700000002 6.2147586,140.68406000000002 5.6910906,141.615126 5.2493316,142.481121 4.8812623,143.295556 4.5810019,144.068622 4.3445371999999995,144.808267 4.169403218,145.520906 4.0544958,146.21191000000002 4.0,146.885962 4.007431,147.547335 4.07980325,148.2001356 4.22189194,148.8485502 4.4366944,149.4965237 4.7234223,150.14714 5.0825475,150.803075 5.5160996,151.466691 6.027579599999999,152.139994 6.6218406000000005,152.824407 7.3047556,153.52025500000002 8.082223599999999,154.22565600000001 8.9581996,154.934699 9.9421056,155.64158 11.052189599999998,156.343064 12.3096506,157.035238 13.7376196,157.71361100000001 15.359156599999999,158.373987 17.1938066,159.01458 19.2537666,159.64010000000002 21.5435166,160.26849 24.0731966,160.92538000000002 26.8705266,161.61270000000002 29.9619366,162.32355 33.3644166,163.04548 37.0817066,163.76012 41.1083966,164.44476 45.4478966,165.0773 50.122756599999995,165.65101 55.1537266,166.17058 60.5481366,166.6476 66.2901266,167.10316 72.3308466,167.56963000000002 78.58829659999999,168.07217 84.9698566,168.59864000000002 91.39357659999999,169.13037 97.8034766,169.65016 104.1761566,170.14381 110.5202566,170.60042 116.8662566,171.01882 123.2436566,171.4058 129.67475660000002,171.76772 136.1750566,172.11042 142.7518566,172.4395 149.4035566,172.76043 156.1179566,173.07805000000002 162.87055660000001,173.39313 169.61025659999999,173.70369 176.3394566,174.0103 183.0709566,174.31396 189.8146566,174.61556000000002 196.5710566,174.91554000000002 203.3092566,175.21290000000002 210.0225566,175.50639 216.7107566,175.79383 223.3749566,176.07311 230.0171566,176.34217 236.6402566,176.59905 243.2482566,176.84182 249.84575660000002,177.06859 256.43875660000003,177.2775 263.0334566,177.46856 269.6354566,177.6445 276.2490566,177.80824 282.8775566,177.96265 289.5225566,178.11062 296.1846566,178.25501 302.8629566,178.39872 309.5551566,178.54465000000002 316.2574566,178.6956 322.9651566,178.85202 329.6740566,179.01213 336.3807566,179.17406 343.0829566,179.33593000000002 349.77895659999996,179.49595 356.4683566,179.6523 363.1512566,179.80323 369.8290566,179.94702 376.5035566,180.08195 383.1777566,180.20705 389.8541566,180.3227 396.5346566,180.42941000000002 403.2207566,180.52767 409.9130566,180.61793 416.6117566,180.70069 423.3163566,180.77638000000002 430.0256566,180.84547 436.7378566,180.90843 443.4504566,180.96563 450.1607566,181.01655 456.8660566,181.06011 463.5642566,181.09525000000002 470.2533566,181.12093000000002 476.9320566,181.1361 483.59915659999996,181.13976 490.2538566,181.13092 496.89575659999997,181.10860000000002 503.52475660000005,181.07184 510.14105660000007,181.01975000000002 516.7451566000001,180.95179000000002 523.3379566000001,180.86752 529.9207566,180.7665 536.4951566000001,180.64827 543.0630566000001,180.51234 549.6269566000001,180.35821 556.1895566000001,180.18532000000002 562.7538566,179.99309 569.3233566,179.78087 575.9019566,179.54849000000002 582.4934566000001,179.29795000000001 589.1003566,179.03189 595.7241566,178.75298 602.3651566,178.46402 609.0223566000001,178.16787 615.6934566000001,177.86752 622.3748566,177.56607 629.0614566,177.26669 635.7470566000001,176.97259 642.4242566,176.68456 649.0865566,176.39956 655.7290566,176.11414000000002 662.3490566000002,175.82485 668.9450566,175.52823 675.5177566,175.22085 682.0691566,174.89923000000002 688.6027566,174.55988000000002 695.1236566000001,174.19922 701.6382566,173.81409000000002 708.1528566000001,173.40374 714.6718566,172.96822 721.1979566000001,172.50763 727.7316566000001,172.02222 734.2711566000002,171.51236 740.8128566,170.97866000000002 747.3510566,170.42193 753.8777566,169.84329 760.3834566,169.24359 766.8588566000001,168.62153 773.2982566000001,167.97501 779.6991566,167.30172000000002 786.0624566000001,166.59914 792.3922566,165.86444 798.6952566000001,165.0944 804.9807566000001,164.28536 811.2609566000001,163.43316000000002 817.5504566000001,162.53754 823.8626566,161.60357000000002 830.2072566,160.63711 836.5904566000002,159.64472 843.0143566,158.63383000000002 849.4766566000001,157.612873 855.9701566000001,156.59136 862.4828566,155.579587 868.9984566,154.58655100000001 875.5001566000001,153.620159 881.9709566,152.687935 888.3946566000001,151.796829 894.7561566,150.953058 901.0414566000001,150.161978 907.2387566000001,149.4285715 913.3439566000001,148.75836950000001 919.3647566000001,148.1554801 925.3185566000001,147.62286880000002 931.2315566,147.163181 937.1381566,146.779516 943.0801566,146.47383100000002 949.0856566,146.240513 955.1443566,146.07321000000002 961.2007566000001,145.96532100000002 967.1578566000001,145.90849500000002 972.9016566,145.906618 978.3519566000001,145.985999 983.4784566,146.163963 988.2843566,146.447831 992.7866566000001,146.842321 997.0013566,147.353609 1000.9455566,147.9828058 1004.1628566,148.6175" stroke="black" stroke-width="2.0" /></svg>