<?xml version="1.0" encoding="utf-8" ?>
<svg baseProfile="full" height="189.31457999999998" version="1.1" width="1012.6401066" xmlns="http://www.w3.org/2000/svg" xmlns:ev="http://www.w3.org/2001/xml-events" xmlns:xlink="http://www.w3.org/1999/xlink"><defs /><polygon fill="none" points="1004.6401066,114.6776 1001.3571066,112.912527 997.1646066,111.042919 992.6896066,109.072062 987.8555065999999,107.035052 982.7022066000001,104.892082 977.3407066,102.71175 971.7711065999999,100.53336 965.9658066,98.33502 959.9653066,96.11419000000001 953.8276066,93.89084 947.5672066,91.66968 941.1892066,89.44176999999999 934.7531065999999,87.21285 928.3506066,85.01977 922.0092066,82.89997 915.6738065999999,80.85869 909.2670066,78.856 902.7627066,76.84776 896.2003066,74.81222 889.6437066,72.77436 883.1159066,70.76762 876.5935066,68.80936 870.0316065999999,66.89149 863.4054065999999,64.99804 856.7191066,63.120999999999995 850.0034066000001,61.263439999999996 843.2873066,59.43652 836.5818065999999,57.64729 829.8797066,55.89744999999999 823.1646066,54.18265 816.4260065999999,52.49791 809.6622065999999,50.84054999999999 802.8803065999999,49.21041000000001 796.0898066,47.61009 789.2960065999999,46.04178999999999 782.4994066,44.506479999999996 775.6956066,43.00377999999999 768.8794065999999,41.53165 762.0476066,40.088229999999996 755.2002065999999,38.67228 748.3392065999999,37.28327999999999 741.4687065999999,35.921980000000005 734.5928066,34.58951999999999 727.7164066,33.287049999999994 720.8447065999999,32.01578000000001 713.9813065999999,30.777379999999994 707.1251066,29.573059999999998 700.2699065999999,28.4032 693.4042066,27.267380000000003 686.5139065999999,26.162869999999998 679.5909065999999,25.0852 672.6374066,24.03129 665.6665065999999,22.999520000000004 658.7012065999999,21.990809999999996 651.7619066,21.01137 644.8545065999999,20.066699999999997 637.9702066,19.16013000000001 631.0860066,18.293180000000007 624.1708066,17.461749999999995 617.2033065999999,16.657200000000003 610.1796065999999,15.872569999999996 603.1153065999999,15.102760000000004 596.0457065999999,14.34599999999999 589.0083066,13.61 582.0208065999999,12.903800000000004 575.0797066,12.233800000000002 568.1627066,11.604299999999995 561.2329066,11.014599999999987 554.2597066,10.456299999999999 547.2292066,9.921900000000008 540.1465066000001,9.405199999999994 533.0375066,8.901299999999992 525.9386066,8.412899999999993 518.8733065999999,7.946699999999993 511.8458066,7.507899999999992 504.8428066,7.100599999999986 497.83550660000003,6.726299999999995 490.7950066,6.380200000000002 483.70900660000007,6.05619999999999 476.58390660000003,5.749200000000002 469.44680660000006,5.454599999999999 462.33910660000004,5.173900000000003 455.2887066,4.915599999999998 448.29970660000004,4.68719999999999 441.3544066,4.495699999999999 434.4156066,4.346299999999999 427.4398066,4.235600000000005 420.4015066,4.155199999999994 413.2998066,4.096899999999991 406.1615066,4.052399999999992 399.0385066,4.017399999999995 391.97560660000005,4.0 384.98740660000004,4.009900000000002 378.05980660000006,4.055899999999994 371.1539066,4.146500000000003 364.2188066,4.281300000000002 357.22160660000003,4.452299999999994 350.1565066,4.6507000000000005 343.04940660000005,4.866 335.9554066,5.091700000000003 328.9234066,5.334400000000002 321.97040660000005,5.603400000000008 315.08290660000006,5.908599999999993 308.22180660000004,6.2597999999999985 301.33970660000006,6.657699999999991 294.41010660000006,7.0966999999999985 287.43500660000007,7.569400000000002 280.4473066,8.066299999999998 273.50280660000004,8.582399999999993 266.6377066,9.125 259.85030659999995,9.7046 253.1051066,10.334199999999996 246.3415066,11.023200000000003 239.51300659999998,11.766499999999994 232.6160066,12.552699999999987 225.6969066,13.363799999999998 218.8450066,14.184899999999999 212.1260066,15.025649999999999 205.54180659999997,15.904170000000008 199.04210659999998,16.844189999999998 192.54020659999998,17.866169999999997 185.9648066,18.96701999999999 179.3037066,20.130979999999994 172.61720659999997,21.328279999999992 166.0205066,22.53654999999999 159.5855066,23.76635999999999 153.3043066,25.04141 147.10990660000002,26.394329999999997 140.91280659999998,27.84191 134.6703066,29.377039999999994 128.4092066,30.97511 122.2234066,32.601389999999995 116.1990066,34.25255999999999 110.3473066,35.947680000000005 104.6200066,37.719390000000004 98.9457666,39.588589999999996 93.2997366,41.54746999999999 87.72246659999999,43.56518 82.3033066,45.60440999999999 77.1013766,47.66404 72.1070166,49.767210000000006 67.2671366,51.94792 62.535106600000006,54.208279999999995 57.92951660000001,56.51107 53.5238766,58.79302 49.4004966,61.01851 45.5789666,63.199059999999996 42.0299866,65.36336 38.706236600000004,67.53392 35.577096600000004,69.69396 32.6459566,71.80512 29.9302766,73.82399000000001 27.4523866,75.73167000000001 25.213316600000002,77.54464999999999 23.1933766,79.28595 21.3679866,80.97717 19.7097566,82.63293 18.1905566,84.25223 16.7916266,85.82797 15.499866599999999,87.35191999999999 14.305364599999999,88.81617 13.202114599999998,90.2154 12.1938746,91.55071 11.2818616,92.82732 10.4634876,94.05180999999999 9.7345146,95.23085999999999 9.0902356,96.3708 8.525476600000001,97.47739 8.027629600000001,98.55637 7.5810846,99.61216999999999 7.1733556,100.64744999999999 6.7943966,101.66366 6.4360745999999995,102.66146 6.0918196,103.64104 5.7563676,104.60228 5.4266799,105.54458199999999 5.1107968,106.464216 4.8202374,107.35773499999999 4.56371344,108.223821 4.3480063,109.06250299999999 4.1787481,109.87461499999999 4.0610458,110.661453 4.0,111.42456299999999 4.0011824,112.165629 4.0711411,112.886419 4.2180242,113.588779 4.4524554,114.27467659999999 4.7883087,114.9464514 5.2210306,115.6128004 5.7132576,116.289731 6.228252599999999,116.98834 6.7640476,117.706357 7.3269946,118.438526 7.9251556,119.179063 8.5688346,119.921886 9.2709716,120.661136 10.0403436,121.39613299999999 10.8806626,122.130794 11.7955036,122.869813 12.787992599999999,123.6187 13.8598996,124.38394 15.010666599999999,125.17268 16.2434466,125.98853 17.565546599999998,126.83248999999999 18.984976599999996,127.70554 20.5107666,128.60901 22.153746599999998,129.54504 23.9274966,130.51611 25.8477866,131.52338 27.932966599999997,132.56752 30.2043066,133.64865 32.6862766,134.76619 35.4063966,135.92327 38.3933966,137.12739 41.673486600000004,138.38809 45.264486600000005,139.71591999999998 49.1748566,141.11047 53.4017566,142.56123 57.932086600000005,144.05481 62.750516600000005,145.57734 67.8356766,147.11268 73.1588266,148.64368000000002 78.69070659999998,150.15539 84.4060366,151.63681 90.28935659999999,153.08127 96.3383366,154.48901999999998 102.5447666,155.86556000000002 108.8772066,157.21419 115.2812066,158.53014000000002 121.7147066,159.7978 128.17290659999998,161.00733 134.68960660000002,162.15868999999998 141.3050066,163.26745 148.0267066,164.34864 154.8191066,165.41095 161.61930660000002,166.4466 168.3916066,167.4409 175.1417066,168.38551 181.9115066,169.28041000000002 188.74320659999998,170.13817 195.6468066,170.97014000000001 202.59350659999998,171.78341 209.5243066,172.57377 216.4004066,173.32695 223.2240066,174.03294 230.03430659999998,174.68605 236.8919066,175.29262 243.83680660000002,175.86811 250.8698066,176.42563 257.9457066,176.97523 264.9889066,177.51175999999998 271.9520066,178.01826 278.83250660000004,178.48152 285.6664066,178.89193 292.5133066,179.25079 299.4189066,179.56931 306.4022066,179.85761 313.4513066,180.125 320.52290660000006,180.37712 327.5704066,180.60802999999999 334.57190660000003,180.81038 341.53170660000006,180.97802000000001 348.47760660000006,181.10592 355.44840660000006,181.19636 362.46860660000004,181.25612 369.5419066,181.29182 376.64860660000005,181.31029999999998 383.7488066,181.31457999999998 390.80840660000007,181.29883 397.81570660000006,181.25641000000002 404.78060660000006,181.18087 411.73220660000004,181.06612 418.7081066,180.91325999999998 425.73200660000003,180.72818 432.8077066,180.51734 439.9174066,180.28819 447.02270660000005,180.04611 454.0868066,179.78689 461.0935066,179.50414999999998 468.04730660000007,179.19113 474.97110660000004,178.84044 481.89950660000005,178.4491 488.8584066,178.02045 495.8566066,177.55901999999998 502.8847066,177.07067 509.9139066,176.56202000000002 516.9092066,176.03284 523.8513065999999,175.47826 530.7398066,174.89229 537.5918066,174.26761 544.4388065999999,173.59746 551.3120065999999,172.88267 558.2267066,172.12721 565.1797066,171.33706 572.1482066,170.52076 579.0935066,169.684 585.9863066,168.82375 592.8182066,167.93423 599.6004065999999,167.00740000000002 606.3621066,166.03316999999998 613.1413065999999,165.00737 619.9648065999999,163.93264 626.8408066000001,162.81441999999998 633.7574066,161.66182 640.6820066,160.48585 647.5785066,159.28911 654.4293065999999,158.06883 661.2372066,156.81896999999998 668.0234065999999,155.53017 674.8230066,154.19542 681.6648066,152.81581 688.5607066,151.39616999999998 695.5039066,149.94557 702.4672066,148.4759 709.4174066,146.99174 716.3354065999999,145.49223 723.2183065999999,143.97318 730.0788066,142.4277 736.9408066,140.85524 743.8257066,139.26205 750.7484066,137.65618 757.7168066,136.04737 764.7293066,134.4407 771.7717066,132.83584 778.8176066,131.2346 785.8294066,129.64168 792.7699066,128.07043 799.6269066,126.53689 806.4157066,125.05035 813.1743065999999,123.613905 819.9462066,122.218962 826.7485065999999,120.855007 833.5647066,119.518126 840.3468066,118.212841 847.0494066,116.957605 853.6650066,115.767605 860.2207066,114.65058784 866.7643065999999,113.603329 873.3256066,112.614227 879.9001066,111.676356 886.4509065999999,110.789455 892.9375066,109.965911 899.3458066000001,109.217503 905.6871066,108.551281 911.9800065999999,107.966826 918.2268065999999,107.462076 924.4119066,107.036684 930.5110066,106.69541699999999 936.5049066,106.444615 942.3820066,106.2888 948.1340065999999,106.232199 953.7542066,106.27808 959.2361066,106.42921799999999 964.5676066,106.689245 969.7305066,107.059684 974.7134066,107.54592699999999 979.5348066,108.158275 984.2265065999999,108.89914 988.7667065999999,109.747468 993.0903066,110.70647 997.2492066,111.856138 1001.3570066,113.153226 1004.6401066,114.6776" stroke="black" stroke-width="2.0" /></svg>