<?xml version="1.0" encoding="utf-8" ?>
<svg baseProfile="full" height="116.04277" version="1.1" width="1011.994021216" xmlns="http://www.w3.org/2000/svg" xmlns:ev="http://www.w3.org/2001/xml-events" xmlns:xlink="http://www.w3.org/1999/xlink"><defs /><polygon fill="none" points="1003.994021216,82.84658 1000.8158212159999,82.2000567 996.5545212159999,81.3375 991.6608212159999,80.351743 986.277921216,79.270945 980.548221216,78.122116 974.562221216,76.923135 968.4106212159999,75.69199400000001 962.162421216,74.442344 955.855821216,73.18203 949.5168212159999,71.91686 943.1646212159999,70.65129 936.810821216,69.38822 930.459121216,68.12899 924.109521216,66.87414000000001 917.761621216,65.6242 911.415421216,64.37972 905.071021216,63.14126 898.728521216,61.90943 892.388421216,60.68484000000001 886.0508212159999,59.46799 879.7161212159999,58.25939 873.384221216,57.059490000000004 867.0550212159999,55.86873 860.7283212159999,54.687520000000006 854.403721216,53.51623 848.080821216,52.35513 841.759121216,51.20441000000001 835.438321216,50.064280000000004 829.1182212159999,48.934940000000005 822.798421216,47.81662000000001 816.4788212159999,46.70956 810.1594212159999,45.61399 803.840121216,44.53018 797.520821216,43.45834000000001 791.2016212159999,42.39867000000001 784.882521216,41.35138 778.563321216,40.31664 772.244121216,39.29465 765.924721216,38.2856 759.605021216,37.289660000000005 753.2849212159999,36.30700000000001 746.9642212159999,35.33778000000001 740.642621216,34.38206 734.320221216,33.43989 727.996821216,32.511320000000005 721.672221216,31.596410000000006 715.346321216,30.69522 709.018921216,29.8078 702.690121216,28.93421 696.3596212159999,28.074520000000007 690.0273212159999,27.228790000000004 683.693321216,26.397019999999998 677.357321216,25.579210000000003 671.0196212159999,24.77538 664.679921216,23.98552 658.338521216,23.209650000000003 651.995321216,22.44778 645.650621216,21.69993000000001 639.304521216,20.966120000000004 632.9572212159999,20.246390000000005 626.6089212159999,19.540760000000006 620.259921216,18.849370000000008 613.910221216,18.172330000000002 607.560121216,17.50976 601.209621216,16.86178000000001 594.8588212159999,16.228480000000005 588.5077212159999,15.609980000000007 582.156221216,15.006370000000004 575.804321216,14.417750000000012 569.451921216,13.844210000000004 563.098921216,13.285830000000004 556.7450212159999,12.742650000000012 550.390221216,12.214690000000004 544.0344212159999,11.701980000000006 537.6777212159999,11.204570000000004 531.3200212159999,10.722480000000004 524.961421216,10.255769999999998 518.6020212159999,9.804479999999998 512.242021216,9.36864 505.881621216,8.94832000000001 499.521021216,8.543580000000006 493.160521216,8.15455 486.80032121600004,7.781469999999999 480.44072121600004,7.424520000000001 474.081921216,7.083920000000006 467.724121216,6.75985 461.367521216,6.452520000000007 455.012221216,6.162130000000005 448.65852121600005,5.888850000000005 442.306421216,5.632890000000003 435.956221216,5.394419999999997 429.607821216,5.173690000000008 423.26162121600004,4.970990000000015 416.91762121600004,4.786609999999996 410.57592121600004,4.6208600000000075 404.236621216,4.47402000000001 397.900021216,4.346379999999996 391.566021216,4.238230000000016 385.23492121600003,4.149860000000004 378.906621216,4.081559999999996 372.581421216,4.033619999999999 366.259221216,4.006320000000002 359.94032121600003,4.0 353.624921216,4.014989999999997 347.313021216,4.05162 341.00502121600005,4.110210000000009 334.701121216,4.191109999999995 328.40172121600006,4.294749999999993 322.106921216,4.421530000000004 315.81722121600006,4.571880000000007 309.532821216,4.746189999999999 303.25392121600004,4.944909999999993 296.98082121600004,5.168509999999998 290.71362121600004,5.417450000000002 284.452221216,5.692210000000003 278.19682121600005,5.993250000000003 271.947221216,6.321000000000012 265.703421216,6.6758099999999985 259.465521216,7.058070000000001 253.233621216,7.468139999999991 247.007921216,7.90643 240.788921216,8.373409999999993 234.577721216,8.869550000000004 228.375821216,9.395220000000009 222.185421216,9.950769999999991 216.008521216,10.536890000000014 209.84632121599998,11.154570000000007 203.698721216,11.804940000000002 197.564521216,12.48921 191.44142121599998,13.208470000000005 185.328521216,13.963300000000004 179.226221216,14.754020000000011 173.136721216,15.580750000000009 167.063721216,16.44368 161.01092121599999,17.34375 154.980621216,18.282089999999997 148.974121216,19.259970000000003 142.991521216,20.27877 137.033321216,21.339780000000005 131.100521216,22.444160000000004 125.195021216,23.592890000000004 119.31952121599998,24.78698 113.47762121599999,26.027430000000003 107.67372121599999,27.314920000000008 101.913231216,28.649980000000006 96.203281216,30.03376 90.553171216,31.466840000000005 84.973901216,32.94892 79.47823121599998,34.480410000000006 74.079501216,36.06206 68.79040121599999,37.693690000000004 63.625721216,39.375020000000006 58.60881121600001,41.10325 53.769031216,42.87068 49.137361215999995,44.6697 44.738491216,46.496230000000004 40.585451216,48.34575 36.686691216,50.21219000000001 33.058631216,52.082370000000004 29.717131216000002,53.937110000000004 26.669501216,55.75804 23.911821216,57.532340000000005 21.427821215999998,59.25207 19.194781216000003,60.9132 17.195051216000003,62.50962 15.416591216,64.03083000000001 13.844256216000002,65.4684 12.458698216,66.81935 11.239151216,68.08834 10.162836216,69.28537 9.208404216000002,70.4212 8.357785216,71.50556 7.596933216,72.54689 6.918927216,73.550977 6.320549216,74.51864400000001 5.798568216,75.448176 5.348555215999999,76.337525 4.964833916,77.185455 4.644687316,77.991692 4.3892460159999995,78.759435 4.197453416,79.495694 4.068135546,80.208718 4.001487265,80.907111 4.0,81.599941 4.066840136,82.2944265 4.203947416,82.9917715 4.416257016,83.690174 4.711938916,84.38452000000001 5.1019872159999995,85.064778 5.596493216,85.718649 6.1971172160000005,86.344053 6.901848216,86.942257 7.705543216000001,87.516058 8.598817216,88.070468 9.578177216,88.61081200000001 10.655871216000001,89.14068 11.848195216,89.665512 13.174341216,90.19424000000001 14.655571216,90.740334 16.317371215999998,91.31201800000001 18.190751216,91.912993 20.310431216,92.548409 22.714631215999997,93.22601 25.451891216,93.9526 28.572231216,94.73159 32.111681216,95.5641 36.081531216,96.44358 40.453381216000004,97.35011 45.170931216,98.26019000000001 50.180811215999995,99.15440000000001 55.423701216,100.01608 60.844421216,100.8331 66.401281216,101.59784 72.06581121599999,102.30667 77.826771216,102.96031 83.677671216,103.56258 89.605211216,104.11779 95.58954121599999,104.62886 101.61379121599998,105.09604 107.67032121599999,105.52032 113.761021216,105.90385 119.889621216,106.24988 126.05392121599999,106.56164000000001 132.245021216,106.84204 138.451021216,107.09184 144.66392121599998,107.31076 150.88242121599998,107.49882 157.110621216,107.65654 163.353321216,107.78543 169.612121216,107.88712000000001 175.884321216,107.96318 182.16392121599998,108.01458 188.44542121599997,108.04118 194.725821216,108.04277 201.005121216,108.01917 207.28562121599998,107.97039000000001 213.569721216,107.89689 219.858821216,107.79914 226.153121216,107.67766 232.451521216,107.53290000000001 238.75272121599997,107.3652 245.056021216,107.17481000000001 251.36102121599998,106.96201 257.668221216,106.72702000000001 263.97832121600004,106.47019 270.292021216,106.19189 276.60922121600004,105.89256 282.92982121600005,105.57263 289.253021216,105.23254 295.57832121600006,104.87273 301.90622121600006,104.49355 308.23762121600004,104.09531000000001 314.574521216,103.67826000000001 320.919621216,103.24291 327.274821216,102.79032000000001 333.64112121600004,102.32169 340.01822121600003,101.83831 346.404621216,101.34158000000001 352.797921216,100.83258000000001 359.19612121600005,100.31193 365.598021216,99.78020000000001 372.003121216,99.2379 378.41192121600005,98.68547000000001 384.825321216,98.12344 391.24442121600003,97.55244 397.66992121600003,96.97311 404.102421216,96.38613000000001 410.54192121600005,95.79220000000001 416.988721216,95.19205000000001 423.44232121600004,94.58644000000001 429.902321216,93.97615 436.367921216,93.36201 442.83812121600005,92.74485 449.311721216,92.125406 455.787521216,91.504301 462.264421216,90.882157 468.741621216,90.25958200000001 475.218121216,89.63717700000001 481.693321216,89.01553 488.166621216,88.395217 494.63732121600003,87.776804 501.105321216,87.160842 507.570121216,86.54787 514.0316212160001,85.938393 520.489721216,85.33288900000001 526.944221216,84.73183300000001 533.394921216,84.13569600000001 539.8419212160001,83.5449432 546.2850212159999,82.9600364 552.7242212159999,82.3814333 559.1595212159999,81.80958700000001 565.590821216,81.24494800000001 572.018321216,80.68796 578.4418212159999,80.139071 584.8615212159999,79.598726 591.277421216,79.06737 597.689621216,78.545445 604.098221216,78.033387 610.5032212159999,77.531633 616.904921216,77.040615 623.303321216,76.56076300000001 629.698621216,76.092507 636.091021216,75.63627100000001 642.480621216,75.192441 648.867521216,74.761356 655.252021216,74.34335300000001 661.633921216,73.938771 668.013421216,73.547951 674.3904212159999,73.171235 680.764921216,72.80896 687.136921216,72.46148000000001 693.506321216,72.12913 699.872821216,71.81226000000001 706.2365212159999,71.51126000000001 712.5970212159999,71.22652000000001 718.954421216,70.95846 725.3085212159999,70.70748 731.659221216,70.47397000000001 738.0065212159999,70.25833 744.3503212159999,70.06095 750.6907212159999,69.88222 757.027521216,69.72252 763.3610212159999,69.58224 769.690921216,69.46174 776.017421216,69.36138 782.3405212160001,69.28152 788.660121216,69.22252 794.9762212159999,69.18475000000001 801.288821216,69.16857 807.597921216,69.17434 813.9036212159999,69.2024 820.2057212159999,69.25309 826.5042212159999,69.32671 832.7991212159999,69.42357 839.090321216,69.54397 845.3777212159999,69.68822 851.6614212159999,69.85664 857.941221216,70.04951 864.2170212159999,70.26718 870.4887212159999,70.51 876.755821216,70.77835 883.018021216,71.07260000000001 889.274721216,71.39309 895.5250212159999,71.74015 901.7681212159999,72.11410000000001 908.0030212159999,72.5153 914.2285212159999,72.944244 920.443921216,73.401467 926.648121216,73.887477 932.840521216,74.40277400000001 939.020221216,74.94785 945.186021216,75.523266 951.3316212159999,76.129341 957.445021216,76.765626 963.508521216,77.430764 969.499821216,78.122427 975.386221216,78.836674 981.112121216,79.565957 986.609621216,80.299508 991.808321216,81.024393 996.585521216,81.717912 1000.8059212159999,82.3528866 1003.994021216,82.84658" stroke="black" stroke-width="2.0" /></svg>