<?xml version="1.0" encoding="utf-8" ?>
<svg baseProfile="full" height="116.08551999999999" version="1.1" width="1012.165757" xmlns="http://www.w3.org/2000/svg" xmlns:ev="http://www.w3.org/2001/xml-events" xmlns:xlink="http://www.w3.org/1999/xlink"><defs /><polygon fill="none" points="1004.165757,83.00654999999999 1001.070957,82.37496039999999 996.964757,81.56488699999998 992.2677570000001,80.61843999999999 987.058957,79.58317199999999 981.466457,78.44881699999999 975.592857,77.251707 969.527457,76.03069899999998 963.345557,74.795904 957.099757,73.55177599999999 950.828557,72.30219999999998 944.5585570000001,71.05205 938.297957,69.80848999999999 932.036657,68.57445999999999 925.760957,67.34465999999999 919.473257,66.11375999999998 913.1926569999999,64.88216999999999 906.933857,63.657939999999996 900.692957,62.447079999999985 894.4489570000001,61.25025999999999 888.181357,60.061149999999984 881.885157,58.87470999999999 875.5722569999999,57.689379999999986 869.262257,56.508819999999986 862.965657,55.33709999999999 856.680957,54.176039999999986 850.3965569999999,53.024649999999994 844.101957,51.87977999999999 837.794457,50.73944999999999 831.480057,49.60318999999999 825.170757,48.47314999999999 818.8751570000001,47.352889999999995 812.5945569999999,46.24481999999999 806.323557,45.15003999999999 800.051657,44.06763999999999 793.771257,42.995479999999986 787.4810570000001,41.93233999999999 781.185657,40.87807999999999 774.895457,39.83413999999999 768.618957,38.80380999999999 762.358457,37.78963999999999 756.110057,36.79308999999999 749.863657,35.81451999999999 743.607457,34.85167999999999 737.334457,33.90171999999999 731.044257,32.96280999999999 724.743157,32.03404999999999 718.4431569999999,31.11623999999999 712.155157,30.212619999999987 705.883657,29.325959999999988 699.6264570000001,28.457989999999988 693.375057,27.60960999999999 687.116557,26.779569999999985 680.8411570000001,25.964679999999987 674.545057,25.16245999999999 668.231157,24.37118999999999 661.909057,23.59002999999999 655.592257,22.820599999999985 649.290457,22.06613999999999 643.0064570000001,21.32911999999999 636.736657,20.611189999999993 630.471157,19.913249999999984 624.1966570000001,19.233819999999987 617.9038569999999,18.569869999999995 611.589357,17.918949999999995 605.256457,17.27928999999999 598.915257,16.64976999999999 592.5798570000001,16.03152999999999 586.260157,15.427509999999984 579.958857,14.83999999999999 573.671757,14.270569999999992 567.3878569999999,13.720249999999993 561.091557,13.187909999999988 554.770957,12.669999999999987 548.421857,12.163409999999985 542.048757,11.665599999999984 535.664857,11.174649999999986 529.2905569999999,10.690989999999985 522.9425570000001,10.219039999999993 516.627257,9.76290999999999 510.341057,9.325849999999988 504.071057,8.910449999999997 497.796257,8.517599999999987 491.496757,8.143609999999981 485.16225699999995,7.784299999999988 478.79335699999996,7.436099999999996 472.402757,7.095889999999983 466.014457,6.7620000000000005 459.654157,6.4385099999999795 453.335157,6.130929999999978 447.057757,5.843879999999984 440.81055699999996,5.581299999999985 434.571057,5.346289999999996 428.312957,5.136919999999989 422.01955699999996,4.948789999999988 415.686457,4.77785999999999 409.323057,4.620329999999981 402.95295699999997,4.472809999999981 396.606657,4.336969999999994 390.303157,4.218139999999991 384.04535699999997,4.121139999999983 377.82165699999996,4.050419999999988 371.607057,4.010169999999988 365.369257,4.0 359.086057,4.015049999999988 352.751957,4.050269999999983 346.38015699999994,4.100239999999999 340.003857,4.159379999999999 333.666157,4.228689999999986 327.39255699999995,4.31510999999999 321.18445699999995,4.4255799999999965 315.02205699999996,4.567069999999987 308.866957,4.746639999999985 302.67315699999995,4.9639899999999955 296.412157,5.2130499999999955 290.08135699999997,5.486530000000002 283.708557,5.775189999999995 277.352057,6.070249999999987 271.070357,6.375859999999989 264.884957,6.701559999999986 258.781757,7.057729999999992 252.71725700000002,7.456319999999991 246.62575700000002,7.905299999999997 240.45375700000002,8.400089999999992 234.18385700000002,8.931819999999988 227.84445700000003,9.48681999999998 221.514857,10.047999999999988 215.284357,10.615099999999998 209.18595700000003,11.200209999999998 203.196957,11.818899999999985 197.25155700000002,12.490659999999991 191.25765700000002,13.227019999999982 185.151157,14.022239999999996 178.928257,14.861379999999983 172.662157,15.717049999999986 166.489157,16.567789999999988 160.492757,17.42443 154.66245700000002,18.30959999999999 148.920757,19.25408999999999 143.147657,20.281869999999984 137.255157,21.38635999999999 131.243557,22.540469999999992 125.229157,23.693049999999992 119.389457,24.81823999999999 113.78665699999999,25.94433999999999 108.357757,27.117909999999988 102.96131700000001,28.395099999999992 97.446947,29.790989999999987 91.781307,31.27136999999999 86.116677,32.74815999999999 80.71615700000001,34.16115999999999 75.650917,35.55946999999999 70.801577,37.02969999999999 65.953067,38.66799999999999 60.909347,40.50183999999999 55.670497,42.46730999999999 50.541377,44.40182999999999 45.804437,46.26436999999999 41.440577,48.125119999999995 37.308536999999994,50.06624999999999 33.328517,52.09890999999999 29.536766999999998,54.17527999999999 26.034107000000002,56.22340999999999 22.900696999999997,58.19366999999999 20.152746999999998,60.05824999999999 17.770706999999998,61.81685999999999 15.721417,63.485339999999994 13.961577,65.07774999999998 12.448115,66.603 11.142843000000001,68.05586 10.014216000000001,69.43122999999999 9.036118,70.72836 8.186636,71.94933999999999 7.446194,73.101413 6.798484,74.19305699999998 6.231171,75.22774399999999 5.733565,76.207343 5.29588,77.133996 4.9118952,78.00973099999999 4.5893611,78.83443199999999 4.3345504,79.61236299999999 4.14989101,80.350512 4.0373127,81.05628099999998 4.0,81.736853 4.0436745,82.39929489999999 4.17816184,83.05103775999999 4.4146973,83.69837129999999 4.7547404,84.33908899999999 5.199929,84.963135 5.752505,85.55467399999999 6.417111,86.11340399999999 7.198176,86.64844699999999 8.096049,87.17502099999999 9.10328,87.716855 10.224139000000001,88.288366 11.478681,88.89285199999999 12.891508,89.534066 14.494657,90.217958 16.330987,90.952801 18.449717,91.74597499999999 20.897216999999998,92.602432 23.696416999999997,93.51776 26.835137,94.45902 30.285256999999998,95.37626999999999 34.074217000000004,96.2357 38.291067,97.07194999999999 42.943097,97.95439999999999 47.803397,98.90088999999999 52.618917,99.79487999999999 57.372757,100.54844 62.229247,101.16394999999999 67.33532699999999,101.72303 72.712007,102.31318999999999 78.19702699999999,102.96414999999999 83.633297,103.60206 89.008627,104.16077999999999 94.433887,104.61264999999999 100.030217,104.9968 105.843557,105.36193999999999 111.798957,105.75267 117.74355700000001,106.15430999999998 123.597457,106.52456999999998 129.381657,106.83026 135.189457,107.05966999999998 141.10965700000003,107.23700999999998 147.177357,107.39039999999999 153.35515700000002,107.54888 159.540657,107.71762999999999 165.658657,107.87389999999999 171.696857,107.99636999999998 177.698557,108.06691999999998 183.73775700000002,108.08551999999999 189.867557,108.06772 196.10205700000003,108.03023999999999 202.40675700000003,107.9913 208.706757,107.95591999999999 214.945557,107.91111 221.109857,107.84333999999998 227.223957,107.73946999999998 233.341757,107.59168999999999 239.515257,107.40717999999998 245.77045700000002,107.19617 252.103057,106.97052 258.472657,106.74310999999999 264.819957,106.51444 271.107957,106.27604999999998 277.33045699999997,106.0188 283.50805699999995,105.73292 289.68355699999995,105.41107999999998 295.899857,105.05684 302.181157,104.67672999999999 308.530157,104.27888999999999 314.92425699999995,103.87349999999999 321.318957,103.46659 327.67635699999994,103.05456999999998 333.980357,102.63195999999999 340.234957,102.19227 346.462557,101.72808999999998 352.697157,101.23679999999999 358.966357,100.72205 365.28425699999997,100.18880999999999 371.650357,99.64347 378.048157,99.09383999999999 384.44935699999996,98.54354 390.83075699999995,97.99052999999999 397.180657,97.43167999999999 403.49875699999996,96.86300999999999 409.794857,96.27989 416.086057,95.68137999999999 422.387057,95.07103 428.706757,94.45303999999999 435.047957,93.83228999999999 441.407557,93.21426 447.77705699999996,92.60131899999999 454.14755699999995,91.991013 460.51275699999997,91.380282 466.86895699999997,90.76583099999999 473.215157,90.14417699999998 479.552757,89.51423999999999 485.884857,88.87953999999999 492.214857,88.244025 498.546657,87.611595 504.88465699999995,86.986121 511.23295700000006,86.36977099999999 517.594157,85.75997799999999 523.967257,85.153556 530.348657,84.54758299999999 536.731257,83.93941179999999 543.1053569999999,83.32784579999999 549.4630569999999,82.71660259999999 555.801557,82.11018289999998 562.123657,81.51249599999998 568.437457,80.92691599999999 574.7556569999999,80.35574299999999 581.091057,79.79713499999998 587.449857,79.24819299999999 593.8306570000001,78.70665 600.224157,78.17084299999999 606.613357,77.64019499999999 612.979757,77.11831999999998 619.3135570000001,76.610036 625.614557,76.119238 631.8914570000001,75.64903499999998 638.161057,75.201512 644.442957,74.77455599999999 650.749457,74.36443299999999 657.084357,73.96800499999999 663.441957,73.58264999999999 669.8071570000001,73.20665 676.161957,72.84201999999999 682.495857,72.49201 688.806857,72.15926999999999 695.101857,71.84595999999999 701.395157,71.55326 707.701657,71.27922 714.028757,71.02130999999999 720.375457,70.77735999999999 726.7320569999999,70.54548999999999 733.081757,70.3256 739.410557,70.12078999999999 745.7139569999999,69.93418 751.996157,69.76849999999999 758.269857,69.62608999999999 764.551157,69.50639999999999 770.849557,69.40723999999999 777.165457,69.32656999999999 783.490057,69.26239999999999 789.8067570000001,69.21443 796.1021569999999,69.18551 802.372157,69.17868999999999 808.621557,69.19693 814.8629569999999,69.24246 821.1098569999999,69.31451999999999 827.3688569999999,69.41165999999998 833.639857,69.53241999999999 839.915657,69.67546999999999 846.187857,69.84097999999999 852.452957,70.02956999999999 858.712457,70.24202 864.972757,70.47886 871.238257,70.73961999999999 877.507857,71.02340999999998 883.773857,71.32916999999999 890.026257,71.65729999999999 896.261257,72.00981999999999 902.483857,72.38923 908.705557,72.79708 914.935057,73.23223599999999 921.172657,73.69274499999999 927.410357,74.177073 933.635457,74.68553999999999 939.833557,75.21845599999999 945.9921569999999,75.77755199999999 952.113157,76.367437 958.213757,76.993309 964.2946569999999,77.653414 970.3035570000001,78.33931799999999 976.1746569999999,79.05114199999998 981.892557,79.79492299999998 987.4118569999999,80.53474599999998 992.556157,81.22232499999998 997.1356569999999,81.86656699999999 1001.103957,82.52125039999999 1004.165757,83.00654999999999" stroke="black" stroke-width="2.0" /></svg>