<?xml version="1.0" encoding="utf-8" ?>
<svg baseProfile="full" height="169.30056" version="1.1" width="1012.02566792" xmlns="http://www.w3.org/2000/svg" xmlns:ev="http://www.w3.org/2001/xml-events" xmlns:xlink="http://www.w3.org/1999/xlink"><defs /><polygon fill="none" points="1004.02566792,111.2542 1000.5516679200001,110.26204899999999 996.35496792,109.060478 991.9372679200001,107.792017 987.2807679200001,106.450997 982.36856792,105.031875 977.18616792,103.529729 971.72416792,101.94101599999999 965.98176792,100.26464999999999 959.97136792,98.50332 953.72276792,96.66492 947.2855679200001,94.76438999999999 940.72056792,92.82463999999999 934.0887679200001,90.87016 927.44276792,88.92322 920.8213679200001,87.00179 914.24746792,85.11869999999999 907.72836792,83.28171 901.25716792,81.49417 894.81826792,79.75335 888.39586792,78.05267 881.97636792,76.38623 875.54796792,74.74888 869.10016792,73.1361 862.6238679200001,71.54382999999999 856.1111679200001,69.96848 849.55566792,68.40679 842.9517679200001,66.85585999999999 836.29586792,65.31312 829.58526792,63.776289999999996 822.81966792,62.24346 816.0001679200001,60.713029999999996 809.13036792,59.18379 802.2161679200001,57.654959999999996 795.26536792,56.12697 788.28606792,54.60189999999999 781.28606792,53.08190999999999 774.27236792,51.56902 767.25166792,50.065059999999995 760.2298679200001,48.57169999999999 753.2121679200001,47.0904 746.20286792,45.62245 739.20556792,44.16892 732.2231679200002,42.730689999999996 725.25766792,41.30846 718.3103679200001,39.902770000000004 711.38186792,38.51398999999999 704.47196792,37.14233 697.5798679200001,35.788 690.7044679200001,34.45175999999999 683.84466792,33.13454 676.99926792,31.837270000000004 670.16736792,30.56087000000001 663.34776792,29.30628 656.53966792,28.07441 649.7420679200001,26.866199999999992 642.95416792,25.68257 636.1749679200001,24.524469999999994 629.4037679200001,23.39282 622.6397679199999,22.288569999999993 615.88226792,21.212649999999996 609.13046792,20.16601 602.38356792,19.14958999999999 595.64126792,18.164119999999997 588.9028679200001,17.20988 582.1681679200001,16.287090000000006 575.4366679200001,15.395980000000009 568.70796792,14.536789999999996 561.9816679200001,13.709769999999992 555.2572679200001,12.915179999999992 548.53426792,12.153269999999992 541.8122679200001,11.424319999999994 535.09076792,10.728599999999986 528.3693679200001,10.066400000000002 521.64746792,9.438099999999991 514.9245679200001,8.843900000000005 508.20016791999996,8.28410000000001 501.47376792,7.759199999999993 494.74476792,7.269099999999995 488.01286792,6.813900000000004 481.27756792,6.393200000000007 474.53866792,6.007000000000005 467.79606792000004,5.65509999999999 461.04966792,5.337399999999988 454.29946792,5.053799999999995 447.54566792,4.804299999999998 440.78846792,4.5886 434.02806792,4.406599999999997 427.26506792,4.258399999999995 420.49986792,4.1436999999999955 413.73316791999997,4.0625 406.96556792,4.014599999999987 400.19796791999994,4.0 393.43126792,4.018899999999988 386.66646792,4.0719999999999885 379.90476792,4.159899999999993 373.14736791999997,4.283299999999997 366.39546792,4.442799999999991 359.65056792,4.638900000000007 352.91406792,4.872299999999996 346.18736792,5.143299999999996 339.47196791999994,5.452500000000001 332.76956792,5.800399999999996 326.08176792,6.187299999999993 319.41026792,6.613599999999991 312.75666792,7.079599999999985 306.12296792,7.585499999999996 299.51066792,8.131699999999995 292.92166791999995,8.718900000000005 286.35696792,9.348300000000009 279.81676792,10.02109999999999 273.30056792,10.738700000000009 266.80686792,11.502409999999998 260.33366792,12.313770000000005 253.87826791999998,13.17443999999999 247.43716791999998,14.085829999999987 241.00666791999998,15.047820000000002 234.58326792,16.05999 228.16376792,17.121979999999994 221.74536791999998,18.23348 215.32546792,19.39425 208.90176792,20.60405 202.47206791999997,21.86265999999999 196.03506792,23.17036999999999 189.59196791999997,24.528109999999998 183.14746792,25.936089999999993 176.71056792,27.393489999999986 170.29356792,28.898350000000008 163.91266792,30.447420000000008 157.58656792,32.03618999999999 151.33646792,33.65902 145.18276792,35.31178 139.13756792,36.994429999999994 133.20156792,38.70957 127.36626792,40.46213999999999 121.61626792000001,42.25941 115.92986791999999,44.11121 110.27976792000001,46.030379999999994 104.63216792,48.03373 98.94470792,50.14028 93.18120792,52.35053 87.34917792,54.64082 81.51518792000002,56.96126 75.80045792000001,59.240019999999994 70.33573792,61.42809 65.18312792,63.52092999999999 60.33967791999999,65.53362999999999 55.76933792,67.48986 51.424927919999995,69.41561999999999 47.27432792,71.32932 43.331287919999994,73.22637 39.637137919999994,75.08439 36.23181792,76.87550999999999 33.13494792,78.57714 30.34192792,80.17713 27.830907919999998,81.67349 25.577957920000003,83.07704 23.55564792,84.40762 21.73286792,85.68377 20.08168792,86.92085 18.57877792,88.13141999999999 17.20525792,89.32582 15.94583792,90.51268 14.78258792,91.69736 13.69819792,92.8791 12.68179792,94.0525 11.726422920000001,95.20962 10.82714092,96.34179999999999 9.98002792,97.44127999999999 9.18722692,98.50153 8.45539692,99.51935 7.78651692,100.49555 7.17965392,101.432982 6.6325809200000005,102.335293 6.14265992,103.206307 5.70730292,104.049714 5.32420192,104.86895799999999 4.99142762,105.667206 4.70748272,106.447369 4.47131632,107.212138 4.28233842,107.964028 4.14043702,108.705431 4.04600745,109.438665 4.0,110.166033 4.00399588,110.889884 4.06021047,111.6126807 4.16914202,112.33671 4.32950742,113.063858 4.540614919999999,113.795839 4.8023937199999995,114.534247 5.11533792,115.280576 5.48046892,116.03622299999999 5.89930692,116.802469 6.37383392,117.58042499999999 6.90643392,118.37093999999999 7.49977092,119.174427 8.15655992,119.990588 8.87912492,120.81797 9.66861192,121.65328 10.523703919999999,122.49043 11.442701920000001,123.32224 12.42802792,124.14442 13.482541920000001,124.95351 14.60950792,125.74712 15.813547920000001,126.52450999999999 17.10210792,127.2873 18.48537792,128.03812 19.97454792,128.77877 21.58287792,129.51132 23.326167920000003,130.23829 25.22312792,130.96296 27.29510792,131.68953 29.56427792,132.42334 32.05408792,133.16867 34.79486792,133.92557 37.81881792,134.69344999999998 41.155407919999995,135.47187 44.82581792,136.26154 48.837937919999995,137.06631 53.18612792,137.89651 57.86219792,138.77031 62.86297791999999,139.69182 68.17203792,140.65323 73.75335792,141.64248 79.55442792000001,142.64432 85.51497791999999,143.64151999999999 91.57960792,144.6156 97.70872792,145.55068 103.88591792,146.43493 110.12046792000001,147.26282 116.43336792000001,148.04142000000002 122.84296792,148.78031 129.36336792,149.48879 136.00286791999997,150.17613 142.76276792,150.85175999999998 149.63456792,151.52532 156.59866791999997,152.20634 163.62476791999998,152.89761 170.68176792,153.59256 177.74096791999997,154.28406999999999 184.77826792,154.96547999999999 191.77406792,155.63079 198.71456791999998,156.27476000000001 205.59066792,156.89296 212.39776792,157.48119 219.13586791999998,158.03505 225.80926792,158.55067 232.42626792,159.02465 238.99826792,159.45386 245.54006791999998,159.83526 252.06946792,160.16567 258.6076679199999,160.44218999999998 265.17686791999995,160.66757 271.79626792,160.84765 278.48076792,160.98796 285.24076792,161.09395 292.08176791999995,161.17121 299.00316792,161.22563 305.99716792,161.26355999999998 313.04896792,161.28887 320.14166792,161.30056 327.25916792,161.29714 334.38666792,161.27724999999998 341.51106791999996,161.23962999999998 348.62166792,161.18316 355.70946792,161.10679 362.76806792,161.00957 369.79286792,160.89063 376.78166791999996,160.74912 383.73396792,160.58422000000002 390.65096791999997,160.3951 397.53576791999996,160.18089 404.39286791999996,159.94064 411.22806792,159.67356999999998 418.04746792,159.37977 424.85646792,159.05946 431.65976792,158.71281 438.46136792,158.33994 445.26476792,157.94095 452.07266791999996,157.51594 458.88726791999994,157.06499 465.71026792,156.5882 472.54246792,156.08569 479.38436792,155.55763 486.23556792,155.00421 493.09516792,154.42573 499.96156792,153.82251 506.83236792,153.19499 513.70476792,152.54336999999998 520.57596792,151.86754 527.4434679200001,151.16733 534.30516792,150.44259 541.15926792,149.69314 548.00446792,148.91881 554.83956792,148.11939 561.6639679200001,147.29465 568.4772679200001,146.44433 575.27956792,145.56811 582.07096792,144.66566 588.8523679200001,143.73658 595.6245679200001,142.78041 602.38886792,141.79662 609.1468679200001,140.78491 615.9009679200001,139.7472 622.65316792,138.68659 629.40566792,137.60618 636.16026792,136.50913 642.9184679200001,135.39862 649.6816679200001,134.27787 656.4510679200001,133.15015 663.2275679200001,132.01881 670.01186792,130.88724 676.8044679200001,129.75889 683.60566792,128.63727 690.4154679200001,127.52597 697.2336679200001,126.42859999999999 704.0598679200001,125.34884 710.89316792,124.29004 717.73226792,123.25402 724.57556792,122.24228 731.42106792,121.25628999999999 738.26676792,120.297541 745.1102679200001,119.36751 751.9490679200001,118.467652 758.7805679200001,117.59939299999999 765.60176792,116.764121 772.40976792,115.963172 779.20136792,115.197824 785.97326792,114.46928 792.72206792,113.778667 799.4444679200001,113.127017 806.1368679200001,112.515265 812.7959679200001,111.94410309999999 819.4192679200002,111.41383739999999 826.0060679200001,110.92457639999999 832.5568679200001,110.4762989 839.07366792,110.068905 845.55976792,109.702263 852.0192679200001,109.37625299999999 858.4579679200001,109.090807 864.88206792,108.84594899999999 871.29946792,108.64183 877.71886792,108.478773 884.15026792,108.35731299999999 890.60536792,108.27824799999999 897.0971679200001,108.242704 903.64126792,108.252211 910.25506792,108.307887 916.95216792,108.406814 923.7326679200002,108.544428 930.5799679200001,108.715268 937.45846792,108.912617 944.3134679200001,109.128428 951.07566792,109.353683 957.6698679200001,109.57933799999999 964.02896792,109.799981 970.1077679200001,110.01360799999999 975.88406792,110.21905699999999 981.35356792,110.4157967 986.52406792,110.6037573 991.41106792,110.7831695 996.03336792,110.9544413 1000.41126792,111.11807019999999 1004.02566792,111.2542" stroke="black" stroke-width="2.0" /></svg>