<?xml version="1.0" encoding="utf-8" ?>
<svg baseProfile="full" height="141.15397000000002" version="1.1" width="1012.09389779" xmlns="http://www.w3.org/2000/svg" xmlns:ev="http://www.w3.org/2001/xml-events" xmlns:xlink="http://www.w3.org/1999/xlink"><defs /><polygon fill="none" points="1004.09389779,95.60016 1000.63939779,94.88100850000001 996.30969779,94.003899 991.56789779,93.01094 986.41709779,91.936599 980.88659779,90.766516 975.00849779,89.518033 968.84179779,88.213541 962.4586977900001,86.864152 955.92359779,85.47983 949.2889977899999,84.0701 942.59199779,82.64507 935.8559977900001,81.21603 929.09379779,79.7884 922.31689779,78.35792000000001 915.53919779,76.92025000000001 908.77019779,75.48073 902.00509779,74.04910000000001 895.22489779,72.63063 888.4097977900001,71.21929 881.55669779,69.80764 874.68139779,68.39271 867.8065977900001,66.9794 860.9423977900001,65.57317 854.08429779,64.17632 847.2186977900001,62.78662 840.33919779,61.40069 833.45069779,60.017320000000005 826.5683977900001,58.638470000000005 819.70629779,57.26948 812.8671977900001,55.9143 806.04309779,54.57455 799.21869779,53.248470000000005 792.38369779,51.93247 785.5384977900001,50.62476 778.69369779,49.32565 771.8662977900001,48.039120000000004 765.0656977900001,46.77048 758.29049779,45.52302 751.52859779,44.29796 744.7611977900001,43.0929 737.97499779,41.90312 731.1669977900001,40.72551000000001 724.3449977900001,39.558800000000005 717.52609779,38.4046 710.72499779,37.267810000000004 703.94629779,36.15209 697.18439779,35.05938 690.4242977900001,33.98975000000001 683.6480977900001,32.93941 676.8462977900001,31.904109999999996 670.01909779,30.881119999999996 663.17779779,29.86922 656.34159779,28.87025 649.52599779,27.88920999999999 642.7354977900001,26.929810000000003 635.9641977900001,25.994250000000008 629.19649779,25.08314 622.4125977900001,24.193180000000012 615.60029779,23.319779999999994 608.75789779,22.45969000000001 601.89459779,21.610940000000014 595.02999779,20.77367000000001 588.18359779,19.952259999999995 581.36359779,19.150830000000013 574.56669779,18.372010000000003 567.77849779,17.617180000000005 560.97629779,16.8848 554.1419977900001,16.169669999999996 547.2697977900001,15.467430000000007 540.36759779,14.774990000000003 533.45749779,14.090680000000006 526.5692977900001,13.417880000000011 519.7223977900001,12.763350000000003 512.91989779,12.132249999999999 506.15039779000006,11.528170000000003 499.38879779,10.953119999999998 492.60569779,10.403459999999995 485.78369779,9.873559999999998 478.92119779,9.358950000000007 472.03309779000006,8.856280000000012 465.15139779000003,8.36451000000001 458.30819779000007,7.889669999999995 451.51839779000005,7.438590000000005 444.77849779,7.016509999999997 438.06869779000004,6.627560000000003 431.35609779000004,6.2729499999999945 424.61159779,5.947610000000012 417.82249779000006,5.646350000000012 410.99469779000003,5.364710000000002 404.15399779,5.098849999999999 397.34029779,4.849810000000005 390.58149779,4.624660000000006 383.88269779,4.429760000000002 377.22879779000004,4.2705899999999986 370.58599779,4.151899999999998 363.91309779000005,4.071829999999991 357.18499779,4.024050000000003 350.40039779000006,4.002300000000005 343.58459779000003,4.0 336.78829779,4.012609999999995 330.05949779,4.046530000000004 323.41409779,4.110529999999997 316.83799779000003,4.212950000000006 310.29089779000003,4.362470000000002 303.71549779000003,4.5618300000000005 297.07059779,4.804259999999999 290.34779779,5.081189999999992 283.57749779000005,5.381749999999997 276.82949779000006,5.695539999999994 270.1731977900001,6.0279000000000025 263.63069779000006,6.390360000000001 257.18029779,6.795630000000003 250.76439778999998,7.258170000000007 244.30619779,7.783100000000005 237.75689779,8.363010000000003 231.11549778999998,8.985640000000004 224.43939779,9.63194 217.83269779,10.288749999999993 211.36439779,10.965630000000004 205.03289779,11.678920000000005 198.78179778999998,12.450029999999998 192.51419779000003,13.2984 186.14869779,14.221850000000003 179.66839779,15.205780000000004 173.14019779,16.22063 166.70629778999998,17.237669999999994 160.46349779,18.265140000000002 154.40379779,19.327700000000007 148.44409779,20.460719999999995 142.45759779,21.69089000000001 136.36019779,23.01020000000001 130.16949779,24.385009999999994 124.02599779,25.75533 118.10449779,27.101209999999995 112.44479779,28.455280000000002 106.97159779,29.86921000000001 101.54529778999999,31.39564999999999 96.05074779,33.03354 90.49344779,34.73606 85.02318779,36.41335 79.83356778999999,38.03182 74.95968779,39.642410000000005 70.31358779,41.320600000000006 65.75242779000001,43.135540000000006 61.171157789999995,45.08469 56.589137789999995,47.10454 52.155247790000004,49.080740000000006 48.03563779,50.965430000000005 44.26761779,52.7825 40.80926779,54.57282 37.60022779,56.36155 34.603267790000004,58.14276 31.80619779,59.900130000000004 29.207197790000002,61.61437 26.80776779,63.273590000000006 24.604487789999997,64.87459 22.58739779,66.41678 20.74270779,67.90148 19.057357789999998,69.33249 17.52144779,70.71646 16.12401779,72.05969 14.853727789999999,73.36765 13.69967879,74.64501 12.651155789999999,75.89464000000001 11.69644679,77.11504 10.82520679,78.3043 10.028668790000001,79.46116 9.29929879,80.58489 8.63054579,81.67517000000001 8.01671279,82.73219 7.453558790000001,83.75802 6.93801479,84.75531000000001 6.467355790000001,85.72579300000001 6.03899379,86.670615 5.65038579,87.59060600000001 5.29899779,88.486427 4.98264039,89.358569 4.70384729,90.206328 4.46731639,91.029734 4.27621229,91.830586 4.13296793,92.611706 4.03995421,93.376498 4.0,94.128775 4.01687679,94.87275460000001 4.095866699,95.61320937 4.24308429,96.35439600000001 4.46181019,97.095343 4.75614539,97.831671 5.13173179,98.555739 5.5937437899999995,99.258055 6.14098379,99.938557 6.76885879,100.60152000000001 7.47054479,101.252464 8.23619579,101.898498 9.054016789999999,102.54774 9.92297379,103.20323400000001 10.84771379,103.865672 11.83350279,104.53600800000001 12.88636479,105.215585 14.013299790000001,105.9063 15.222167789999999,106.61031 16.52106779,107.3294 17.91855779,108.0655 19.42327779,108.8208 21.04322779,109.59765 22.785327789999997,110.39750000000001 24.658307790000002,111.21645000000001 26.67288779,112.04768 28.842697790000003,112.8829 31.188237790000002,113.71278000000001 33.74086779,114.53488 36.53608779,115.36387 39.604627789999995,116.22227000000001 42.95217779,117.13929 46.535867790000005,118.12268 50.29482779,119.1243 54.192647789999995,120.08763 58.25381779,120.96745 62.55469779,121.77466 67.16024779,122.55878 72.07478779,123.37729 77.19092778999999,124.25426 82.38166779000001,125.12938 87.60474778999999,125.94112 92.92452779,126.65208 98.44962779,127.28799000000001 104.23879778999999,127.89428000000001 110.24579779,128.51456000000002 116.31369778999999,129.14523 122.32939778999999,129.73902 128.29119779,130.25952 134.29189779,130.6903 140.43909779,131.0564 146.78129779,131.38938 153.27479779,131.72008 159.78799779,132.05164000000002 166.22469779,132.35590000000002 172.57649779000002,132.60886 178.91109779,132.793 185.32809779000002,132.91524 191.88889779,132.99474 198.59259778999999,133.05144 205.35899779,133.10339 212.07749779,133.14314000000002 218.69619778999999,133.15397000000002 225.22859778999998,133.12088 231.74079779000002,133.03162 238.31429778999998,132.8908 244.99709779,132.71008 251.79139779,132.50294 258.64299779,132.28472 265.46539779,132.05667 272.20669779,131.80918 278.86239779000005,131.53181999999998 285.46889779,131.21314999999998 292.08929779000005,130.84811000000002 298.77559779,130.44243 305.55019779,130.00415 312.40099779,129.54411 319.27829779,129.07379 326.12349779000004,128.59285 332.90679779000004,128.09572 339.62919779000003,127.57509 346.31949779000007,127.0219 353.02449779,126.43175 359.78229779000003,125.80814000000001 366.61049779000007,125.15675 373.50319779,124.48582 380.42949779,123.80534 387.34709779,123.11808 394.22949779000004,122.42191 401.06949779,121.71299 407.87809779,120.98575 414.68119779,120.23608 421.5044977900001,119.46677 428.36269779,118.68271 435.25889779000005,117.89027 442.18309779000003,117.09729 449.11559779000004,116.30729 456.03919779,115.51769 462.94429779,114.72478000000001 469.82939779000003,113.92402 476.70029779000004,113.11087 483.56759779000004,112.28664 490.44019779,111.45586 497.3246977900001,110.62341 504.22489779,109.79451 511.14199779,108.97313 518.07389779,108.15725 525.01599779,107.34360000000001 531.96159779,106.52912 538.90159779,105.71106 545.8260977900001,104.889982 552.72989779,104.071208 559.6140977900001,103.259755 566.48579779,102.459839 573.35809779,101.67474 580.2457977900001,100.90356700000001 587.1566977900001,100.14304800000001 594.0887977900001,99.390872 601.03019779,98.645745 607.95929779,97.908249 614.85599779,97.18373700000001 621.7118977900001,96.4777049 628.53099779,95.79417910000001 635.32909779,95.135955 642.1298977900001,94.502545 648.9527977900001,93.889301 655.80589779,93.292212 662.6851977900001,92.70828 669.5741977900001,92.135796 676.45169779,91.577332 683.30489779,91.037002 690.13279779,90.517914 696.94489779,90.022306 703.75919779,89.55020400000001 710.5904977900001,89.09845200000001 717.44319779,88.664221 724.31129779,88.24533600000001 731.17769779,87.840836 738.02389779,87.453849 744.84119779,87.088296 751.63149779,86.747382 758.4067977899999,86.433578 765.18339779,86.146315 771.9704977900001,85.883424 778.76739779,85.64315 785.5637977900001,85.42416 792.3435977900001,85.22788 799.0973977900001,85.05777 805.82529779,84.91698 812.53659779,84.80829 819.24509779,84.73191 825.96029779,84.68632000000001 832.68419779,84.67012 839.4124977900001,84.68214 846.1376977900001,84.72261 852.85609779,84.79225 859.56809779,84.89181 866.2771977900001,85.02164 872.9858977900001,85.18134 879.6924977900001,85.37037000000001 886.3917977899999,85.58831 893.0783977899999,85.83595600000001 899.74959779,86.11451 906.40609779,86.425085 913.04909779,86.767631 919.6757977899999,87.14144 926.27919779,87.54575 932.84719779,87.980455 939.36249779,88.445108 945.80449779,88.94006 952.15739779,89.467562 958.41149779,90.029075 964.54299779,90.620384 970.49889779,91.233947 976.2282977899999,91.872585 981.7176977900001,92.540113 986.9545977900001,93.197813 991.88549779,93.808249 996.4567977900001,94.40583600000001 1000.66109779,95.06730780000001 1004.09389779,95.60016" stroke="black" stroke-width="2.0" /></svg>