<?xml version="1.0" encoding="utf-8" ?>
<svg baseProfile="full" height="142.07028" version="1.1" width="1012.07176469" xmlns="http://www.w3.org/2000/svg" xmlns:ev="http://www.w3.org/2001/xml-events" xmlns:xlink="http://www.w3.org/1999/xlink"><defs /><polygon fill="none" points="1004.07176469,99.80159 1001.09266469,98.593928 997.1947646899999,97.404562 992.95286469,96.152885 988.31666469,94.88195900000001 983.24516469,93.50504500000001 977.8925646900001,92.062105 972.31816469,90.62864 966.4898646900001,89.20105000000001 960.45706469,87.77705 954.30936469,86.38017 948.0574646900001,85.0194 941.65636469,83.67628 935.10676469,82.33239 928.47686469,80.98988 921.82916469,79.66476 915.17536469,78.36301 908.4952646900001,77.07277 901.77436469,75.77624 895.01056469,74.45946 888.20826469,73.12386000000001 881.3739646900001,71.77766 874.51606469,70.42891 867.64416469,69.07984 860.76566469,67.72937 853.88396469,66.37582 846.9996646899999,65.01907 840.11186469,63.66086 833.21986469,62.30294 826.3229646899999,60.94652000000001 819.42146469,59.590990000000005 812.51686469,58.23557 805.61156469,56.879720000000006 798.7091646900001,55.52416 791.81346469,54.17105000000001 784.92866469,52.822700000000005 778.05956469,51.481550000000006 771.2102646899999,50.1503 764.38146469,48.83138 757.57006469,47.526410000000006 750.76906469,46.23625 743.9695646900001,44.96025 737.16686469,43.697250000000004 730.36146469,42.44709 723.55936469,41.21059000000001 716.77066469,39.990050000000004 710.00166469,38.78869 703.25116469,37.60846000000001 696.5104646899999,36.45004 689.76396469,35.31253000000001 682.9962646900001,34.19198 676.20076469,33.08473000000001 669.38126469,31.98881 662.5528646900001,30.903940000000006 655.73806469,29.833370000000002 648.95256469,28.782930000000007 642.19906469,27.756560000000007 635.4683646899999,26.756320000000002 628.73956469,25.782210000000006 621.9885646900001,24.829679999999996 615.2013646900001,23.893249999999995 608.37676469,22.969260000000006 601.52786469,22.05577000000001 594.68076469,21.153830000000013 587.8604646900001,20.26960000000001 581.07786469,19.408540000000016 574.3295646900001,18.574070000000006 567.59876469,17.767930000000007 560.8591646900001,16.988470000000007 554.0890646900001,16.23021 547.28016469,15.488790000000009 540.4380646899999,14.761330000000001 533.58376469,14.046480000000003 526.7468646899999,13.347470000000015 519.94716469,12.67034000000001 513.18826469,12.019480000000001 506.45896469,11.397720000000007 499.73426469000003,10.806390000000007 492.98406469,10.241950000000003 486.19036469,9.698880000000003 479.35176469,9.172950000000014 472.48526469,8.66116000000001 465.62606468999996,8.162679999999995 458.81086469,7.683719999999994 452.05636469,7.231549999999999 445.35816469,6.811539999999994 438.69316469,6.42783 432.02226469000004,6.081980000000016 425.30856469,5.768349999999998 418.53436469,5.48069000000001 411.70446469,5.213580000000007 404.84896469,4.962180000000004 398.01826468999997,4.726399999999998 391.25136469,4.514099999999999 384.55806469,4.332579999999993 377.92256469,4.187979999999996 371.30616469,4.085830000000001 364.65816469,4.025379999999998 357.94406469,4.0 351.15786469,4.002990000000011 344.32566469,4.027140000000003 337.50716469,4.066389999999998 330.76346469,4.126280000000008 324.11796469,4.216070000000016 317.55636469,4.344630000000009 311.03306469,4.521360000000016 304.47946469,4.751230000000007 297.84086469,5.028080000000003 291.10136469,5.343090000000004 284.29286469,5.684250000000006 277.49966469000003,6.038179999999997 270.81296469,6.4079300000000075 264.26496469,6.805660000000003 257.83106469000006,7.245190000000008 251.44276469000002,7.743050000000011 245.00406469,8.308400000000006 238.44676469,8.935390000000012 231.76186469,9.611410000000006 225.01736469,10.314160000000001 218.35066469,11.023390000000006 211.85906469000003,11.746780000000001 205.54276469,12.502550000000014 199.33046469,13.315650000000005 193.09856469000002,14.212549999999993 186.73226469000002,15.196290000000005 180.19456469,16.253 173.56296469000003,17.34688 167.03166469,18.434870000000004 160.74136469,19.520200000000017 154.68426469000002,20.631050000000002 148.75456469,21.80989000000001 142.78966469000002,23.094859999999997 136.67026469,24.486300000000014 130.40176469,25.951480000000004 124.15846469,27.41671000000001 118.17406469,28.84474 112.50016468999999,30.26791 107.03766469,31.745829999999998 101.60936468999999,33.344660000000005 96.06642469,35.07384999999999 90.41824469,36.881119999999996 84.87946468999999,38.64835000000001 79.70908468999998,40.324740000000006 74.92996468999999,41.971070000000005 70.41599469,43.67761000000001 65.98623469,45.52904 61.50418469,47.52373 56.99424469,49.57475 52.65732469,51.5235 48.70289469,53.330650000000006 45.132454689999996,55.080600000000004 41.846574690000004,56.87335 38.72013469,58.794830000000005 35.64267469,60.844950000000004 32.59099469,62.95501000000001 29.63114469,64.99487 26.886454689999997,66.87277 24.423814689999997,68.62212 22.225364689999996,70.30451000000001 20.249424689999998,71.97776 18.44845469,73.6718 16.790584690000003,75.37578 15.26696469,77.06115 13.877780690000002,78.69241 12.62503469,80.23959 11.51558669,81.69697000000001 10.54513769,83.07592 9.70181269,84.39191000000001 8.97284669,85.66006 8.34703869,86.89391 7.81301669,88.10407000000001 7.3505386900000005,89.29179 6.94115369,90.452667 6.57076369,91.580172 6.228310690000001,92.667073 5.90510569,93.706614 5.59445069,94.69338400000001 5.2913426900000005,95.623819 4.99239319,96.496408 4.70586699,97.31744400000001 4.45195019,98.103102 4.24525059,98.86923010000001 4.09632113,99.63023150000001 4.01342399,100.3974828 4.0,101.16564000000001 4.05874701,101.922324 4.19427839,102.655491 4.41330859,103.35258300000001 4.72507339,103.99963500000001 5.14207069,104.58020400000001 5.67374769,105.08386 6.31059069,105.526444 7.037031690000001,105.93086100000001 7.83169669,106.324713 8.66358269,106.742338 9.51251869,107.20433100000001 10.38222969,107.707334 11.28008069,108.244162 12.216515690000001,108.804854 13.20628969,109.37644300000001 14.26980469,109.94337 15.42324469,110.50121 16.67535469,111.05874 18.034314690000002,111.62854 19.50612469,112.22804000000001 21.09053469,112.88107000000001 22.778894689999998,113.61046 24.56922469,114.40752 26.46375469,115.2472 28.47074469,116.09645 30.612984689999998,116.91627 32.935524689999994,117.67499000000001 35.48941469,118.38755 38.33030469,119.08901 41.50496469,119.83255 45.00063469,120.68235000000001 48.736954690000005,121.61630000000001 52.63211469,122.55677 56.67092469,123.42782000000001 60.93866469,124.20167000000001 65.54396469,124.92738 70.54252469,125.67093 75.83360468999999,126.48724000000001 81.21007469,127.32152 86.56915469,128.09533 91.96827468999999,128.75961 97.55335468999999,129.33383 103.42117469,129.86984 109.54286468999999,130.41884 115.73046468999999,130.98705 121.83026468999999,131.52218 127.83306469,131.98313000000002 133.84796469000003,132.34986 140.00826469,132.64714 146.38096469,132.90890000000002 152.92626469,133.16947 159.49196469000003,133.43601 165.96026469,133.67881 172.31826469,133.87176 178.64086469,133.99525 185.04206469000002,134.05474 191.59526469000002,134.07028 198.30546469,134.06347 205.08696469,134.05532 211.81546469,134.03964000000002 218.43156469,133.99848 224.94986469,133.91535 231.44426469,133.77595000000002 238.00766469,133.58359000000002 244.69696469000002,133.35021 251.51676469,133.09035 258.40536469,132.82167 265.25986469,132.54723 272.01776469000004,132.25699 278.67396469000005,131.93954 285.27136469,131.58201 291.88476469,131.17761000000002 298.57616469,130.73168 305.37336469,130.25254 312.26186469000004,129.75229000000002 319.17976469,129.24449 326.05336468999997,128.72957 332.84596469,128.20147 339.55936469,127.65188 346.22886469,127.07027000000001 352.91136469,126.45107 359.65366469,125.79795 366.47806469,125.11728000000001 373.37906469,124.41872000000001 380.31986469,123.71429 387.24896469,123.00737000000001 394.13276469,122.29526000000001 400.96096469,121.57318000000001 407.74426469,120.83441 414.51066469,120.07398 421.28886469,119.29506 428.09726469000003,118.50305 434.94316469,117.70478 441.82196468999996,116.90848 448.71876469,116.11792 455.61826469000005,115.33009000000001 462.50956469,114.5411 469.38666469,113.74652 476.24816469,112.94212 483.09706469,112.12985 489.93866469,111.31518 496.77986469,110.5034 503.62886469,109.69962100000001 510.49566469000007,108.907465 517.38676469,108.124088 524.30256469,107.34529900000001 531.23616469,106.567626 538.17326469,105.78836100000001 545.0941646900001,105.008212 551.98456469,104.23363 558.84106469,103.47056500000001 565.6703646899999,102.72365400000001 572.48936469,101.996278 579.3200646900001,101.287531 586.17716469,100.5932253 593.06416469,99.910178 599.97206469,99.236351 606.87946469,98.571335 613.76226469,97.919425 620.60816469,97.285844 627.41796469,96.6744 634.20506469,96.087719 640.99296469,95.52602 647.80306469,94.985166 654.6456646900001,94.46123 661.5185646900001,93.951212 668.40666469,93.45308800000001 675.28736469,92.968355 682.14546469,92.50075600000001 688.97826469,92.053177 695.79446469,91.62769300000001 702.61296469,91.22477400000001 709.45116469,90.841485 716.31536469,90.47485900000001 723.1996646900001,90.12255300000001 730.08576469,89.78313 736.9510646900001,89.45922 743.78356469,89.15504 750.58476469,88.87409000000001 757.36836469,88.61921000000001 764.15506469,88.39031 770.9582646900001,88.1849 777.77906469,88.00082 784.60566469,87.83627 791.41806469,87.69196000000001 798.2023646900001,87.57145 804.95776469,87.47804000000001 811.6947646899999,87.41475 818.43146469,87.38210000000001 825.1802646900001,87.37817000000001 831.94416469,87.40106 838.71606469,87.44906 845.4839646900001,87.52245 852.23946469,87.62258 858.97986469,87.75078 865.70736469,87.90816000000001 872.42676469,88.09526000000001 879.14386469,88.31267 885.86536469,88.56086 892.59426469,88.83888 899.3246646900001,89.14485 906.04056469,89.47686 912.72546469,89.836319 919.37496469,90.226568 925.9966646900001,90.65100000000001 932.59386469,91.110127 939.14786469,91.60207700000001 945.62426469,92.126906 952.0049646900001,92.690799 958.29736469,93.3006 964.49316469,93.955178 970.5321646900001,94.64655400000001 976.35536469,95.377238 981.96606469,96.153653 987.3399646900001,96.933727 992.34276469,97.667715 996.84266469,98.36994700000001 1000.8464646900001,99.1364513 1004.07176469,99.80159" stroke="black" stroke-width="2.0" /></svg>