<?xml version="1.0" encoding="utf-8" ?>
<svg baseProfile="full" height="151.90515" version="1.1" width="1012.1279404" xmlns="http://www.w3.org/2000/svg" xmlns:ev="http://www.w3.org/2001/xml-events" xmlns:xlink="http://www.w3.org/1999/xlink"><defs /><polygon fill="none" points="1004.1279404,98.50992 1001.2481404000001,97.08115199999999 997.4949404,95.601732 993.2799404000001,94.16796799999999 988.5354404000001,92.718307 983.3177404,91.17782899999999 977.9554404,89.63923 972.5303404,88.18442999999999 966.9369404,86.78116999999999 961.1681404000001,85.40593 955.2973404000002,84.06553 949.3682404000001,82.76240999999999 943.3821404000001,81.48966999999999 937.3383404000001,80.2408 931.2471404,79.01189 925.1226404000001,77.80201 918.9739404000001,76.60973999999999 912.8044404000001,75.4327 906.6160404000001,74.26889 900.4112404000001,73.11664999999999 894.1944404000001,71.97484 887.9693404000001,70.84339 881.7386404,69.72225999999999 875.5039404000001,68.61112999999999 869.2654404000001,67.50966 863.0228404000001,66.41743 856.7750404000001,65.33392 850.5204404000001,64.25836 844.2582404000001,63.189659999999996 837.9889404,62.12689999999999 831.7145404,61.069399999999995 825.4380404000001,60.017199999999995 819.1619404,58.97102999999999 812.8873404000001,57.93147999999999 806.6141404000001,56.89891999999999 800.3410404000001,55.873349999999995 794.0667404000001,54.854369999999996 787.7899404,53.84157999999999 781.5095404000001,52.83463999999999 775.2249404,51.83316 768.9357404000001,50.836659999999995 762.6424404,49.84469 756.3463404,48.85692999999999 750.0492404,47.873219999999996 743.7533404000001,46.89407 737.4600404000001,45.920249999999996 731.1696404,44.95240999999999 724.8817404,43.99105999999999 718.5948404000001,43.03641999999999 712.3076404,42.08826 706.0189404000001,41.14627999999999 699.7280404000002,40.21025999999999 693.4346404000001,39.280049999999996 687.1388404,38.35556999999999 680.8410404,37.43678 674.5418404000001,36.52368999999999 668.2419404000001,35.61635999999999 661.9425404000001,34.71483999999999 655.6445404000001,33.81945999999999 649.3486404,32.93073 643.0547404000001,32.049099999999996 636.7623404000001,31.174919999999986 630.4702404000001,30.308459999999982 624.1768404000001,29.449619999999996 617.8812404,28.59809 611.5831404,27.753609999999995 605.2829404,26.916039999999995 598.9818404000001,26.08533 592.6814404,25.261870000000002 586.3832404000001,24.446460000000002 580.0880404000001,23.639839999999992 573.7962404000001,22.842709999999997 567.5079404,22.055669999999992 561.2226404000002,21.279219999999995 554.9396404,20.513679999999994 548.6581404,19.759330000000006 542.3773404000001,19.016469999999998 536.0961404000001,18.285359999999997 529.8134404000001,17.56617 523.5285404,16.858769999999993 517.2412404,16.16305 510.9522404,15.47896999999999 504.66274039999996,14.80655999999999 498.3746404,14.146059999999991 492.0898404,13.498419999999996 485.8096404,12.864749999999987 479.53474040000003,12.246110000000002 473.2654404,11.643469999999994 467.0011404,11.057729999999992 460.7411404,10.489590000000007 454.4848404,9.939689999999999 448.2315404,9.40867999999999 441.9807404,8.897199999999984 435.7321404,8.405929999999998 429.4854404,7.935549999999992 423.2409404,7.486799999999988 416.9993404,7.060429999999997 410.7618404,6.657209999999992 404.53004039999996,6.277929999999998 398.3059404,5.923649999999995 392.0907404,5.595829999999992 385.8845404,5.295869999999994 379.6863404,5.02512999999999 373.49404039999996,4.784909999999996 367.30464040000004,4.576179999999994 361.1160404,4.399169999999984 354.9273404,4.254089999999991 348.73964040000004,4.141210000000001 342.55514039999997,4.060759999999988 336.3777404,4.0132699999999915 330.2105404,4.0 324.0543404,4.022269999999992 317.9076404,4.081419999999994 311.7668404,4.178839999999994 305.6264404,4.315489999999997 299.48244040000003,4.491079999999982 293.33404040000005,4.705089999999984 287.18404039999996,4.95684 281.0387404,5.245440000000002 274.9072404,5.570969999999988 268.7959404,5.935389999999998 262.70644039999996,6.341029999999989 256.6353404,6.790499999999994 250.5748404,7.286739999999995 244.51474040000002,7.830979999999997 238.4496404,8.422639999999987 232.3802404,9.060540000000003 226.3137404,9.742719999999991 220.2633404,10.467209999999994 214.2411404,11.235209999999995 208.2514404,12.049499999999995 202.2903404,12.913879999999992 196.3460404,13.833289999999991 190.4029404,14.810389999999998 184.4522404,15.844419999999985 178.4955404,16.93293 172.54504039999998,18.071299999999994 166.6210404,19.255679999999984 160.7378404,20.487260000000006 154.8966404,21.769969999999986 149.0862404,23.11050999999999 143.2858404,24.515640000000005 137.4801404,25.986270000000005 131.6696404,27.51912999999999 125.87104040000001,29.10633999999999 120.11314039999999,30.740790000000004 114.41414040000001,32.42340999999999 108.77254040000001,34.16077 103.1691104,35.96436999999999 97.5803204,37.84164999999999 92.0025304,39.79100999999999 86.45679039999999,41.801989999999996 80.9821804,43.86253999999999 75.6032904,45.97348999999999 70.31542040000001,48.146539999999995 65.0927004,50.39916999999999 59.9219904,52.73616 54.8272804,55.144119999999994 49.863290400000004,57.59918999999999 45.0760104,60.09327 40.4756904,62.63363 36.0578804,65.22785999999999 31.8541804,67.85279 27.9300204,70.45631999999999 24.3514504,72.98084999999999 21.1506404,75.38331 18.3269204,77.64151 15.8924304,79.732 13.8466474,81.62518999999999 12.1507154,83.31773999999999 10.7508984,84.83675 9.5871584,86.22148999999999 8.6108254,87.50502 7.7856364,88.711547 7.0774444,89.857343 6.462358399999999,90.945173 5.9243424,91.971784 5.4505414000000005,92.934624 5.0304043,93.83397799999999 4.6690661,94.670199 4.3803623,95.447887 4.1699926,96.17678699999999 4.04151739,96.86725 4.0,97.52907549999999 4.05450606,98.17181369999999 4.22063868,98.8057865 4.505566,99.44181909999999 4.9020955,100.087003 5.3991744,100.741101 5.9888444,101.39881899999999 6.6782024,102.05937399999999 7.4740034,102.724604 8.3811274,103.400871 9.4068164,104.100156 10.572987399999999,104.830247 11.9118064,105.59823399999999 13.4644964,106.413406 15.2822104,107.28752899999999 17.430850399999997,108.23446 19.9795204,109.26974 22.9801104,110.41265 26.453520400000002,111.65822 30.374440399999997,112.96020999999999 34.721810399999995,114.27386 39.5059804,115.59286 44.6820204,116.91814 50.1282304,118.2298 55.7261404,119.49831999999999 61.428560399999995,120.71582 67.2320804,121.88776999999999 73.12195039999999,123.0188 79.0688904,124.10884999999999 85.0479404,125.15487999999999 91.0480604,126.15655 97.0702504,127.11605999999999 103.11744039999999,128.03616 109.1903404,128.91926999999998 115.2877404,129.76749999999998 121.4069404,130.58277999999999 127.5442404,131.36701 133.6954404,132.12181999999999 139.8561404,132.84755 146.0239404,133.54431 152.19824039999997,134.21244 158.3796404,134.8526 164.5692404,135.46574999999999 170.76794040000001,136.05284 176.9759404,136.61476 183.1932404,137.15242999999998 189.41944039999998,137.66681 195.6537404,138.15882 201.8951404,138.62939 208.1419404,139.07909999999998 214.3928404,139.50805 220.64634039999999,139.91631 226.9010404,140.30398 233.1555404,140.67109 239.4092404,141.01747 245.6624404,141.34293 251.9166404,141.64736 258.17424040000003,141.93071 264.4381404,142.19358 270.7095404,142.43697 276.9879404,142.66178 283.2710404,142.86888 289.55454039999995,143.05878 295.8348404,143.2308 302.1098404,143.3841 308.37984040000003,143.5179 314.6470404,143.63146 320.9151404,143.72456 327.1872404,143.79782 333.4647404,143.85192 339.7468404,143.88748999999999 346.0310404,143.90515 352.3137404,143.90501 358.5919404,143.88647 364.86484040000005,143.84891 371.13374039999997,143.79171 377.40144039999996,143.71423 383.6723404,143.61642999999998 389.9493404,143.49901 396.2325404,143.36275999999998 402.5200404,143.20855 408.8070404,143.0373 415.0869404,142.84903 421.35494040000003,142.64231 427.6095404,142.41550999999998 433.8521404,142.16692999999998 440.0875404,141.89472 446.3228404,141.59775 452.56464040000003,141.27694 458.81624039999997,140.93356 465.07774040000004,140.56904 471.34604040000005,140.18505 477.61474039999996,139.78305 483.8772404,139.36271 490.1295404,138.92309 496.37084039999996,138.46307 502.6032404,137.98132999999999 508.83174040000006,137.47645 515.0624404,136.94835999999998 521.2993404,136.39788 527.5435404,135.82601 533.7930404000001,135.23408 540.0433404000001,134.62363 546.2877404000001,133.99506 552.5209404000001,133.34735 558.7403404,132.67923 564.9458404000001,131.98917999999998 571.1397404,131.27542 577.3263404,130.53656 583.5097404,129.77229 589.6923404,128.9826 595.8749404000001,128.16763 602.0567404000001,127.32773999999999 608.2354404000001,126.46341999999999 614.4087404,125.57482999999999 620.5761404000001,124.66189 626.7385404,123.72425999999999 632.8988404,122.76129999999999 639.0612404000001,121.77242999999999 645.2310404000001,120.75877 651.4125404,119.72222 657.6088404000001,118.66481999999999 663.8221404000001,117.58887999999999 670.0529404,116.49683999999999 676.3006404,115.39090999999999 682.5622404000001,114.27344 688.8327404,113.14723 695.1050404000001,112.01550999999999 701.3701404000001,110.88224 707.6202404000001,109.75289 713.8514404,108.63265999999999 720.0639404000001,107.52592999999999 726.2620404,106.43632 732.4525404000001,105.36590799999999 738.6416404000001,104.314573 744.8313404,103.282473 751.0205404000001,102.270372 757.2045404,101.27962699999999 763.3765404000001,100.312901 769.5332404000001,99.3733797 775.6757404000001,98.4635345 781.8092404,97.58519299999999 787.9429404000001,96.73915099999999 794.0846404,95.92401 800.2370404000001,95.138559 806.3967404000001,94.382347 812.5546404000002,93.655744 818.6996404,92.96171199999999 824.8263404000002,92.304046 830.9363404000001,91.68569099999999 837.0376404,91.10884499999999 843.1418404000001,90.573394 849.2549404,90.077885 855.3759404000001,89.621494 861.4958404,89.204039 867.6028404000001,88.8278 873.6910404000001,88.49619 879.7625404000001,88.21207999999999 885.8267404000001,87.97757 891.8920404,87.79258999999999 897.9577404,87.65682 904.0134404,87.57015999999999 910.0440404000001,87.53495 916.0426404,87.55556999999999 922.0143404,87.63631 927.9708404,87.78036999999999 933.9101404,87.98886999999999 939.8086404000001,88.26181 945.6334404,88.602864 951.3786404000001,89.02176 957.0714404000001,89.529629 962.7280404,90.13011399999999 968.2931404,90.81548 973.6808404000001,91.584757 978.9114404000001,92.465071 984.0875404000001,93.45986599999999 989.1338404,94.469336 993.7541404000001,95.43072699999999 997.7481404,96.394672 1001.2032404,97.5509417 1004.1279404,98.50992" stroke="black" stroke-width="2.0" /></svg>