<?xml version="1.0" encoding="utf-8" ?>
<svg baseProfile="full" height="180.1267" version="1.1" width="1012.1911205" xmlns="http://www.w3.org/2000/svg" xmlns:ev="http://www.w3.org/2001/xml-events" xmlns:xlink="http://www.w3.org/1999/xlink"><defs /><polygon fill="none" points="1004.1911205,117.9622 1001.5891205,116.06110699999999 997.8979205,114.461934 993.9203205,112.893433 989.6164205,111.38652499999999 984.8341205,109.80518699999999 979.7514205000001,108.15753699999999 974.5097205000001,106.54509 969.0309205,104.9592 963.2865205,103.36417999999999 957.3773205,101.77565 951.3755205,100.22234 945.2560205,98.69973999999999 938.9883205,97.18415999999999 932.6091205,95.66574 926.1934205000001,94.16023 919.7724205000001,92.68293 913.3207205,91.23219 906.8036205000001,89.78993 900.2206205,88.34187 893.6085205,86.886 887.0050205,85.43616 880.4180205,84.00285 873.8265204999999,82.58811 867.2036204999999,81.18316999999999 860.5387205,79.77998 853.8406205,78.37462 847.1303205,76.96968 840.4236205000001,75.56991 833.7258204999999,74.17793 827.0325204999999,72.79393999999999 820.3360205,71.41588999999999 813.6311205000001,70.0419 806.9151205000001,68.67060999999998 800.1878205,67.30105999999999 793.4515205,65.93241 786.7103205,64.56414000000001 779.9699205000001,63.19613 773.2374205,61.82966999999999 766.5166205,60.4676 759.8072205,59.11204 753.1047205,57.76427999999999 746.4011205,56.424049999999994 739.6898205,55.08912999999999 732.9687205,53.757850000000005 726.2399205,52.42939 719.5098204999999,51.10404 712.7853205,49.78385999999999 706.0698205,48.4708 699.3624205000001,47.16596999999999 692.6582205,45.86968 685.9496205,44.58067999999999 679.2319205,43.296949999999995 672.5040205,42.01715999999999 665.7693205,40.74078999999999 659.0352205,39.46834999999999 652.3091205,38.20214 645.5943205,36.94426999999999 638.8896205000001,35.695949999999996 632.1889205000001,34.457570000000004 625.4831204999999,33.22801 618.7652205,32.00466 612.0338204999999,30.785659999999993 605.2934205,29.57020999999999 598.5543205,28.358649999999997 591.8303205000001,27.15428 585.1311205000001,25.96231999999999 578.4607205000001,24.786959999999993 571.8174205,23.631289999999993 565.1945205000001,22.497349999999997 558.5831205000001,21.3853 551.9776205,20.2949 545.3767205,19.22663999999999 538.7831205,18.181639999999987 532.2036205,17.1618 525.6459205,16.170599999999993 519.1140204999999,15.211799999999997 512.6074205,14.288399999999996 506.1213205,13.402599999999993 499.6474205,12.556099999999986 493.1760205,11.748400000000004 486.7010205,10.978499999999997 480.2208205,10.246099999999998 473.7378205,9.551200000000009 467.25852050000003,8.894300000000001 460.7910205,8.2774 454.3391205,7.702500000000001 447.9015205,7.1714000000000055 441.47182050000004,6.685099999999991 435.0387205,6.244799999999998 428.58912050000004,5.8489 422.1146205,5.494199999999992 415.61352050000005,5.178399999999996 409.0913205,4.898899999999983 402.56062049999997,4.65379999999999 396.03752049999997,4.443899999999999 389.5321205,4.271900000000002 383.0462205,4.139799999999994 376.5744205,4.049700000000001 370.1036205,4.0035000000000025 363.61872050000005,4.0 357.1116205,4.036999999999992 350.5831205,4.1118999999999915 344.0437205,4.221999999999994 337.51282050000003,4.365099999999984 331.0101205,4.5434999999999945 324.5446205,4.760899999999992 318.11422050000004,5.020999999999987 311.7066205,5.328199999999995 305.3011205,5.685599999999994 298.8800205,6.0916 292.4368205,6.543899999999994 285.9769205,7.039200000000008 279.5182205,7.572999999999993 273.0856205,8.144400000000005 266.6941205,8.756199999999993 260.3453205,9.412599999999998 254.02802050000003,10.118799999999993 247.7201205,10.880200000000002 241.40032050000002,11.697299999999998 235.0609205,12.567599999999985 228.7091205,13.487099999999998 222.3674205,14.449100000000001 216.0648205,15.45129999999999 209.81642050000002,16.496799999999993 203.61872050000002,17.591099999999997 197.45182050000003,18.74324 191.28422050000003,19.960049999999995 185.0943205,21.241029999999995 178.8817205,22.581169999999986 172.6683205,23.97018 166.49432050000001,25.398229999999998 160.38902050000002,26.86578999999999 154.3564205,28.379329999999996 148.37712050000002,29.950819999999993 142.41702050000004,31.591580000000008 136.4540205,33.303129999999996 130.49292049999997,35.079239999999984 124.5654205,36.90563 118.7160205,38.772429999999986 112.96562049999999,40.682649999999995 107.3045205,42.64847999999999 101.7000305,44.687749999999994 96.12529049999999,46.80703 90.58834049999999,48.99799 85.13276049999999,51.237989999999996 79.81578049999999,53.51025 74.6569505,55.82095999999999 69.6335905,58.193329999999996 64.6991505,60.65267 59.835990499999994,63.19453 55.0831705,65.78287999999999 50.52080049999999,68.36643000000001 46.21036049999999,70.92515999999999 42.1591605,73.46575999999999 38.3438305,76.00356 34.7520605,78.52574 31.4051905,80.99169 28.333890500000003,83.35454 25.5577605,85.5907 23.0679405,87.70029 20.8381005,89.69333 18.8380705,91.58169 17.0443005,93.37033 15.439090499999999,95.05899 14.0055715,96.64742 12.7274325,98.13802 11.5944645,99.53811999999999 10.5943915,100.85915 9.7133305,102.11299 8.938346500000002,103.31036999999999 8.2582105,104.46051 7.660201499999999,105.57109 7.1285795,106.64697 6.6511415,107.68987 6.2185215,108.699835 5.8232645000000005,109.676193 5.4592955,110.61824399999999 5.1216799,111.525577 4.812708,112.39703999999999 4.5436872,113.23189699999999 4.3226703,114.032474 4.15522624,114.802702 4.0460314,115.547158 4.0,116.270696 4.0232404,116.97838999999999 4.12411895,117.6757308 4.3139359,118.3688988 4.5955113,119.06223399999999 4.963338,119.755552 5.4103855,120.443738 5.931767499999999,121.12155 6.5279635,121.78911599999999 7.1987205,122.447879 7.9424425,123.100623 8.7562015,123.75195599999999 9.6408745,124.406305 10.603935499999999,125.06628699999999 11.6543335,125.735109 12.8020535,126.41700999999999 14.057738500000001,127.11760699999999 15.4334605,127.842806 16.945300500000002,128.59672 18.6115605,129.38412 20.4519205,130.21137 22.486990499999997,131.08677 24.7407805,132.01484 27.241470500000002,132.99474 30.0204005,134.02332 33.1140105,135.09619 36.5663405,136.21672999999998 40.415280499999994,137.39298 44.670990499999995,138.63182 49.3025605,139.92171 54.2545605,141.23408 59.484180499999994,142.5459 64.9771705,143.85102 70.70469049999998,145.14783 76.60720049999999,146.42998 82.6192905,147.68114 88.7069405,148.88952999999998 94.8769105,150.05462 101.1453605,151.18677 107.5044205,152.29449 113.9176205,153.37969999999999 120.3440205,154.43336 126.76442049999999,155.44781 133.18272050000002,156.41992 139.6160205,157.35303 146.07992050000001,158.25203 152.58602050000002,159.12106 159.14132050000003,159.96436 165.7434205,160.78654999999998 172.3776205,161.59113 179.0163205,162.37978999999999 185.6292205,163.14675 192.20152050000002,163.88368 198.7365205,164.58459 205.2534205,165.24617 211.7758205,165.87125 218.3174205,166.46368999999999 224.88052050000002,167.02615 231.4556205,167.56001 238.0285205,168.06367 244.5915205,168.53485999999998 251.1449205,168.97204 257.6974205,169.37424 264.2620205,169.74273 270.8478205,170.08035999999998 277.4564205,170.38956 284.08232050000004,170.67248999999998 290.7135205,170.9302 297.33962049999997,171.16147999999998 303.9579205,171.36506 310.5733205,171.53996 317.19872050000004,171.68549 323.8496205,171.8039 330.5346205,171.89917 337.2521205,171.97522 343.9904205,172.03602 350.7275205,172.08388 357.4425205,172.11551 364.1243205,172.1267 370.7715205,172.11348999999998 377.39272050000005,172.07202999999998 384.0024205,172.00055 390.6135205,171.89989 397.23292050000003,171.77101 403.8620205,171.61489 410.4966205,171.43259 417.1288205,171.22414 423.7524205,170.98865999999998 430.3646205,170.72521 436.96572050000003,170.43274 443.5590205,170.11017999999999 450.1499205,169.75736999999998 456.7424205,169.37472 463.33952050000005,168.96269 469.9426205,168.52176 476.55152050000004,168.05250999999998 483.1653205,167.55552 489.7823205,167.03137999999998 496.4005205,166.48076 503.0174205,165.9044 509.6301205,165.30297 516.2355205,164.67617 522.8311205,164.02330999999998 529.4147205,163.34367 535.9847205,162.63651 542.5400205000001,161.90106 549.0802205,161.1363 555.6054205,160.34107 562.1165205,159.51409999999998 568.6153205,158.65404 575.1040204999999,157.75956 581.5858205000001,156.83023 588.0636205000001,155.8659 594.5409205000001,154.86634999999998 601.0211204999999,153.83123 607.5078205000001,152.76035 614.0050205,151.65488 620.5165205000001,150.51646 627.0460205,149.34675 633.5968204999999,148.14745 640.1719205,146.9204 646.7728205000001,145.66806 653.3977205,144.3936 660.0414205,143.10099 666.6950205,141.79507 673.3470205,140.48223 679.9882205,139.17034 686.6136205,137.86651999999998 693.2227204999999,136.57695999999999 699.8192205,135.30667 706.4085205,134.05728 712.9942205,132.82876 719.5776205000001,131.62151 726.1577205,130.4363 732.7319205,129.27444 739.2977205000001,128.13765 745.8547205,127.027365 752.4046205,125.944665 758.9508205000001,124.890239 765.4973205,123.86386399999999 772.0462205,122.865167 778.5975205000001,121.89411899999999 785.1493205,120.951009 791.6983205,120.03672499999999 798.2424205,119.152401 804.7816205,118.2988912 811.3180205,117.4767861 817.8543205000001,116.68629999999999 824.3908205,115.927641 830.9236205,115.20144599999999 837.4446205,114.508782 843.9448205000001,113.852384 850.4209205000001,113.23572899999999 856.8771205,112.66154 863.3242205,112.131526 869.7722205,111.64464 876.2207205,111.19964999999999 882.6589205,110.79606199999999 889.0686205,110.43642899999999 895.4387205,110.126237 901.7698204999999,109.870254 908.0716205,109.671458 914.3500205,109.52992499999999 920.6003205000001,109.44558599999999 926.8079205,109.41966 932.9551205,109.456845 939.0269205,109.561589 945.0112205,109.73793699999999 950.9030205,109.99014799999999 956.7047205,110.322103 962.4073205,110.735237 967.9626205000001,111.225774 973.3108205000001,111.79672 978.4656205,112.470922 983.5015205000001,113.250115 988.3893205,114.055298 992.9629205,114.849977 997.1328205000001,115.715469 1000.9652205,116.80570499999999 1004.1911205,117.9622" stroke="black" stroke-width="2.0" /></svg>