<?xml version="1.0" encoding="utf-8" ?>
<svg baseProfile="full" height="175.62279999999998" version="1.1" width="1012.08156709" xmlns="http://www.w3.org/2000/svg" xmlns:ev="http://www.w3.org/2001/xml-events" xmlns:xlink="http://www.w3.org/1999/xlink"><defs /><polygon fill="none" points="1004.08156709,111.36149999999999 1001.20756709,109.83634799999999 997.36506709,108.441104 993.1742670900001,107.07015399999999 988.5759670900001,105.71348499999999 983.51106709,104.27179699999999 978.2005670899999,102.79496599999999 972.72916709,101.35816999999999 967.02256709,99.93943999999999 961.10136709,98.51971999999999 955.06566709,97.11864 948.9535670900001,95.74877 942.73836709,94.39838999999999 936.41706709,93.05304999999998 930.03656709,91.71207 923.64536709,90.38826999999999 917.25186709,89.08820999999999 910.8323670899999,87.80499999999999 904.3703670900001,86.52418999999999 897.87276709,85.23522 891.36306709,83.93893 884.85676709,82.64518 878.35206709,81.36108999999999 871.8336670900001,80.08746 865.28826709,78.81849 858.71296709,77.54955999999999 852.11546709,76.27839 845.50816709,75.00632999999999 838.89976709,73.73516999999998 832.29386709,72.46572999999998 825.68996709,71.19798999999999 819.08606709,69.93161999999998 812.4812670900001,68.66647999999999 805.87516709,67.40256 799.2684670900001,66.13963999999999 792.66236709,64.87706999999999 786.05786709,63.61419999999999 779.4563670900001,62.35040999999999 772.8589670900001,61.085919999999994 766.26556709,59.82205999999999 759.67486709,58.55999999999999 753.08426709,57.30069999999999 746.49056709,56.04438999999999 739.89126709,54.790139999999994 733.28626709,53.537229999999994 726.67786709,52.28533999999999 720.07036709,51.03472999999999 713.4684670900001,49.78685999999999 706.87436709,48.543279999999996 700.28776709,47.30502 693.70546709,46.072599999999994 687.1225670900001,44.84559999999999 680.53486709,43.62267 673.9408670900001,42.402829999999994 667.34156709,41.18554 660.7403670900001,39.9708 654.14176709,38.759579999999985 647.5484670899999,37.55310999999999 640.96076709,36.35217999999999 634.3765670900001,35.15710999999999 627.79116709,33.967690000000005 621.20056709,32.782809999999984 614.60316709,31.601550000000003 608.00136709,30.423630000000003 601.4005670900001,29.24933999999999 594.8095670900001,28.08019 588.23596709,26.919889999999995 581.68406709,25.772029999999987 575.15406709,24.639449999999997 568.64306709,23.524329999999992 562.14486709,22.427909999999983 555.65416709,21.350329999999985 549.1683670900001,20.29200999999999 542.68796709,19.253889999999984 536.2163670900001,18.237309999999994 529.75946709,17.24445999999999 523.32226709,16.27870999999999 516.90676709,15.343169999999986 510.51196709,14.440389999999994 504.13386709,13.572469999999996 497.76606709000004,12.740839999999992 491.40236709000004,11.945329999999998 485.03886709,11.185699999999997 478.67416708999997,10.462299999999999 472.30916709,9.77539999999999 465.94736709,9.125900000000001 459.59216709000003,8.514799999999994 453.24466709,7.943399999999997 446.90336709,7.412399999999991 440.56376709,6.922399999999982 434.21876709000003,6.4739 427.86096709,6.065599999999989 421.48596709000003,5.695699999999988 415.09376709000003,5.3626000000000005 408.68856709,5.064800000000005 402.27866709000006,4.801199999999994 395.87416709,4.572499999999991 389.48106709,4.380199999999988 383.10016709,4.2257999999999925 376.72736709000003,4.110499999999988 370.35356709,4.035499999999985 363.96836709,4.0 357.56596709,4.002299999999991 351.14736709,4.040499999999994 344.72036709,4.112799999999993 338.29926709,4.217399999999984 331.89966709000004,4.355800000000002 325.52946709,4.530999999999992 319.18766709000005,4.745800000000003 312.86526709000003,5.003799999999998 306.54616709,5.307699999999983 300.21466709,5.656899999999993 293.86396709,6.049300000000002 287.49776709,6.482399999999984 281.13036709,6.95259999999999 274.78406709,7.4580999999999875 268.47556709,8.001299999999986 262.20876709000004,8.586099999999988 255.97556709,9.217100000000002 249.75656709,9.900099999999995 243.52866709,10.637 237.27926709,11.425849999999997 231.01026709,12.263169999999988 224.73886708999999,13.143109999999993 218.49426709,14.060739999999996 212.29906709,15.01778999999999 206.15716708999997,16.018899999999988 200.05566709000001,17.071369999999987 193.96656708999998,18.1841 187.86086709,19.359289999999987 181.72726708999997,20.59413999999998 175.57526708999998,21.881519999999995 169.43586709000002,23.210469999999987 163.34596709,24.576819999999984 157.32256708999998,25.983699999999985 151.35996709,27.43889999999999 145.43356709,28.95398 139.51536708999998,30.53501999999999 133.59686709,32.18096 127.69326708999999,33.88414 121.84006708999999,35.632850000000005 116.06826708999999,37.42465999999999 110.38056709,39.26638 104.75396708999999,41.17291 99.15284708999998,43.15839 93.56805709,45.22198999999999 88.03231708999999,47.346609999999984 82.61268709,49.50507999999999 77.35594708999999,51.69357999999999 72.24643709,53.93473999999999 67.22003709,56.27054999999999 62.20703709,58.72290999999999 57.21614709,61.26366999999999 52.35140709,63.81647999999999 47.74766709,66.32699 43.451117090000004,68.80060999999999 39.43482709,71.26969 35.65783709,73.75038999999998 32.11663709,76.22334999999998 28.83303709,78.65053999999999 25.83065709,80.99233 23.11735709,83.22041999999999 20.68241709,85.32015999999999 18.50657709,87.28975999999999 16.575887090000002,89.13176999999999 14.87487709,90.84664 13.38203409,92.43806 12.075761089999999,93.91470999999999 10.93712709,95.29175 9.94453609,96.58653 9.07820109,97.81455999999999 8.32161509,98.98879 7.6599420899999995,100.11949999999999 7.07611809,101.21239999999999 6.55694209,102.26818499999999 6.09265509,103.28513899999999 5.67543609,104.260956 5.29868909,105.19383699999999 4.9570299900000006,106.08294599999999 4.65467309,106.92784599999999 4.40225229,107.730998 4.20610999,108.498089 4.07060409,109.23592199999999 4.00003115,109.951574 4.0,110.6523149 4.078810829,111.34597667999999 4.24613959,112.0403097 4.5033772899999995,112.737207 4.85156609,113.43319799999999 5.29249409,114.118709 5.82716209,114.786074 6.45592909,115.438103 7.17669809,116.080512 7.9836450899999996,116.72214699999999 8.86674109,117.375569 9.82585209,118.04820199999999 10.87155109,118.741965 12.016798089999998,119.459077 13.277449090000001,120.20246399999999 14.67334709,120.976293 16.22794709,121.78662999999999 17.96786709,122.64153999999999 19.92192709,123.55140999999999 22.116917089999998,124.52892999999999 24.57612709,125.57894999999999 27.32228709,126.69113999999999 30.380727089999997,127.84863999999999 33.799477089999996,129.03913999999997 37.65147709,130.27933 41.98669709,131.59721 46.75352709,133.00189999999998 51.80658709,134.43678 57.04145709,135.84317 62.477107090000004,137.21012 68.15464709,138.56062 74.03815709,139.90595 80.01504709,141.22625 86.00944708999998,142.49391 92.03076709,143.70096 98.13960708999998,144.86353 104.36526709,146.00166 110.67656708999999,147.12512999999998 116.99836708999999,148.22375 123.28446708999999,149.28038999999998 129.53976709,150.28689 135.80846709,151.2467 142.13076709,152.1729 148.51796708999998,153.07524999999998 154.94876709,153.9586 161.38446709,154.81813 167.80126708999998,155.64681 174.19746708999998,156.44068 180.59106709,157.19933 187.00366709,157.92734 193.44496708999998,158.62903 199.91056709,159.30716999999999 206.38266709,159.96208 212.84326708999998,160.59001 219.28566709,161.18752999999998 225.71476709,161.75244999999998 232.14636709,162.28413999999998 238.59776709,162.78599 245.07716709,163.26184 251.58246709,163.71472 258.10036708999996,164.14683 264.61216709,164.55669 271.10636709000005,164.94092999999998 277.58126709000004,165.29688 284.04506709,165.62241 290.51376709000004,165.91717 297.00196709000005,166.18427 303.51636709,166.42691 310.05496709000005,166.64798 316.60706709000004,166.85002 323.15666709000004,167.03261999999998 329.69246709,167.1934 336.21066709,167.33023 342.71426709,167.44120999999998 349.21276709000006,167.52487 355.71716709000003,167.58206 362.23346709000003,167.61423 368.76206709,167.62279999999998 375.29756709000003,167.60917 381.82946709000004,167.57405 388.34746709,167.51576 394.84676709,167.43223 401.32746709,167.32143 407.79496709,167.18122 414.25876709000005,167.01027 420.72736709000003,166.80931999999999 427.20536709000004,166.5794 433.69316709000003,166.32163 440.18666709000007,166.03737999999998 446.67826709,165.72747999999999 453.16126709,165.39132999999998 459.63246709,165.028 466.09286709,164.63639999999998 472.54706709,164.21516 479.00286709,163.76337999999998 485.46736709,163.28194 491.94376709000005,162.77217 498.43166709,162.23570999999998 504.92636709,161.67458 511.41936709,161.09037 517.90226709,160.48251 524.3694670900001,159.8499 530.81816709,159.19124 537.2484670900001,158.50499 543.66316709,157.78952999999998 550.06566709,157.04379 556.45846709,156.26689 562.84316709,155.45803999999998 569.22006709,154.61651999999998 575.58906709,153.74181 581.94986709,152.83375999999998 588.30366709,151.8921 594.65266709,150.91635 601.00056709,149.90576 607.35226709,148.85962999999998 613.71336709,147.7789 620.0886670900001,146.66521 626.48196709,145.52032 632.8956670900001,144.34623 639.33136709,143.14513 645.78886709,141.91938 652.2660670900001,140.6718 658.7584670900001,139.40568 665.25926709,138.12491 671.75986709,136.83452 678.2530670900001,135.54161 684.7352670900001,134.25304 691.2062670900001,132.97487999999998 697.6696670900001,131.7124 704.13096709,130.46816 710.59416709,129.24172 717.06006709,128.03298999999998 723.5264670900001,126.84239 729.98876709,125.67096 736.44146709,124.52095999999999 742.88216709,123.39464999999998 749.3119670899999,122.29365999999999 755.73546709,121.21901799999999 762.15956709,120.170616 768.5894670900001,119.147183 775.02656709,118.14794699999999 781.4685670900001,117.17273499999999 787.90956709,116.222157 794.3435670900001,115.29814099999999 800.7687670900001,114.40240399999999 807.18706709,113.53606599999999 813.60436709,112.69960699999999 820.0265670900001,111.8923487 826.45406709,111.1138165 832.88086709,110.36426209999999 839.29536709,109.64494699999999 845.68656709,108.959711 852.05286709,108.312294 858.40176709,107.705406 864.74866709,107.139866 871.10386709,106.61350499999999 877.46486709,106.12476299999999 883.81546709,105.673266 890.13376709,105.263256 896.41036709,104.90114999999999 902.65096709,104.592158 908.8716670900001,104.33834499999999 915.0817670900001,104.13828899999999 921.27726709,103.990854 927.44156709,103.897246 933.5527670900001,103.86264 939.58706709,103.89165999999999 945.52506709,103.989954 951.36826709,104.16515199999999 957.13956709,104.42433199999999 962.8411670900001,104.766077 968.4002670899999,105.180162 973.72556709,105.67115799999999 978.84196709,106.27001899999999 983.84866709,106.974706 988.68856709,107.69361199999999 993.16226709,108.404778 997.23176709,109.20940099999999 1000.9867670900001,110.221002 1004.08156709,111.36149999999999" stroke="black" stroke-width="2.0" /></svg>