<?xml version="1.0" encoding="utf-8" ?>
<svg baseProfile="full" height="144.11218" version="1.1" width="1012.201832" xmlns="http://www.w3.org/2000/svg" xmlns:ev="http://www.w3.org/2001/xml-events" xmlns:xlink="http://www.w3.org/1999/xlink"><defs /><polygon fill="none" points="1004.201832,107.57249999999999 1001.556332,106.55888599999999 998.3548319999999,105.079179 994.415032,103.56796599999998 989.667232,101.856535 984.4535319999999,99.99744199999999 979.126532,98.129143 973.763932,96.33689 968.276632,94.59849999999999 962.6386319999999,92.88551 956.903232,91.20139999999999 951.112432,89.55093 945.2714319999999,87.92778999999999 939.376632,86.32423999999999 933.435532,84.73546999999999 927.461932,83.16060999999999 921.4656319999999,81.59916999999999 915.449132,80.04871 909.411332,78.50585999999998 903.353232,76.96780999999999 897.279432,75.43270999999999 891.196432,73.9005 885.108532,72.37170999999998 879.0177319999999,70.84625 872.923332,69.32334 866.8242319999999,67.80201 860.7203319999999,66.28146999999998 854.612232,64.76116999999999 848.5013319999999,63.24092999999999 842.389232,61.72077999999999 836.277232,60.20075999999999 830.166732,58.68091999999999 824.059132,57.16210999999999 817.955432,55.64575999999999 811.8573319999999,54.13338999999999 805.766532,52.62655999999999 799.684632,51.12714999999999 793.612132,49.63714999999999 787.5485319999999,48.158269999999995 781.491732,46.691869999999994 775.438932,45.23886999999999 769.3877319999999,43.79966999999999 763.3375319999999,42.374949999999984 757.289132,40.96572999999999 751.245032,39.57343999999999 745.208532,38.20033999999998 739.181432,36.84900999999999 733.163632,35.52158999999999 727.1530319999999,34.21973999999999 721.145632,32.944659999999985 715.1371320000001,31.696219999999983 709.1245319999999,30.473919999999993 703.106532,29.277629999999988 697.0834319999999,28.10756999999998 691.0570319999999,26.96429999999998 685.029932,25.848979999999997 679.0037319999999,24.76276999999999 672.9787319999999,23.70662999999999 666.954032,22.68128999999999 660.927732,21.687209999999993 654.8971319999999,20.724119999999985 648.860432,19.791419999999988 642.816632,18.888659999999987 636.765632,18.015519999999995 630.7079319999999,17.171829999999986 624.644932,16.357579999999984 618.577432,15.572799999999987 612.506132,14.81744999999998 606.430632,14.091409999999982 600.350632,13.39452 594.264832,12.726389999999995 588.1723319999999,12.086289999999991 582.072632,11.473519999999994 575.9655319999999,10.8874 569.851532,10.327309999999997 563.731332,9.792689999999993 557.605632,9.283109999999994 551.475232,8.798129999999986 545.3401319999999,8.337289999999982 539.200432,7.900099999999995 533.055532,7.486099999999979 526.905232,7.094699999999989 520.749432,6.725699999999989 514.5891320000001,6.378599999999992 508.426132,6.05319999999999 502.26263200000005,5.7490999999999985 496.101832,5.4665999999999855 489.945932,5.206699999999984 483.79593200000005,4.970499999999987 477.652032,4.758899999999983 471.51263200000005,4.572799999999987 465.37563200000005,4.412999999999997 459.23843200000005,4.279399999999995 453.099732,4.171899999999994 446.95893200000006,4.090299999999999 440.816432,4.034399999999991 434.67363200000005,4.004299999999986 428.53243200000003,4.0 422.394132,4.022199999999998 416.25923200000005,4.070999999999998 410.12753200000003,4.147099999999995 403.99823200000003,4.250799999999984 397.86973200000006,4.382300000000001 391.74083200000007,4.541299999999993 385.61093200000005,4.7276999999999845 379.47983200000004,4.941099999999992 373.347932,5.1815 367.21623200000005,5.4484999999999815 361.08533200000005,5.7420999999999935 354.95583200000004,6.06219999999999 348.827632,6.408699999999996 342.700232,6.78149999999998 336.573032,7.180699999999987 330.44553200000007,7.606259999999992 324.31833200000005,8.057949999999991 318.19283200000007,8.535619999999994 312.0714320000001,9.03895 305.957132,9.567879999999988 299.852932,10.123239999999996 293.759732,10.706109999999995 287.677432,11.317709999999991 281.604032,11.959419999999994 275.536532,12.632390000000001 269.472432,13.336910000000003 263.41093200000006,14.073039999999978 257.352932,14.840619999999987 251.301332,15.639269999999982 245.259932,16.46906 239.231432,17.330859999999987 233.21693199999999,18.225779999999986 227.215532,19.15518999999999 221.224432,20.120649999999998 215.24093200000002,21.122959999999992 209.263432,22.162409999999994 203.29273199999997,23.238989999999987 197.331232,24.35230999999999 191.382732,25.50215999999999 185.449832,26.689089999999993 179.532432,27.914129999999986 173.628132,29.17886999999999 167.732632,30.484989999999996 161.842932,31.832989999999995 155.959932,33.22230999999999 150.088832,34.651369999999986 144.238632,36.11824999999999 138.416932,37.62345999999998 132.625732,39.169229999999985 126.861232,40.75931999999999 121.11503199999999,42.39797 115.38303199999999,44.086859999999994 109.669732,45.824859999999994 103.988582,47.60811999999999 98.356492,49.43457999999999 92.779992,51.30734999999999 87.252242,53.23392999999999 81.75763199999999,55.22398999999999 76.29363199999999,57.28029999999999 70.884142,59.39493999999999 65.574432,61.553189999999994 60.394542,63.75523999999999 55.33009200000001,66.02044999999998 50.335282,68.37947 45.395512000000004,70.83787999999998 40.577442000000005,73.35712999999998 35.994851999999995,75.88619999999999 31.695942,78.42536 27.648642,81.00895999999999 23.832812,83.62704 20.318721999999998,86.18968 17.220272,88.59640999999999 14.637771999999998,90.77241 12.556477000000001,92.68866999999999 10.893604999999999,94.37064 9.553206,95.87021999999999 8.458017,97.23384999999999 7.550704,98.49721699999999 6.785578,99.68184099999999 6.135388,100.788063 5.579446,101.812992 5.0999309,102.75835699999999 4.6978928,103.62539299999999 4.3851493999999995,104.41976999999999 4.16371527,105.153966 4.0342189,105.84036699999999 4.0,106.48983 4.069575,107.11210609999999 4.25998744,107.7169302 4.5864157,108.31456839999998 5.0425238,108.910901 5.6148050000000005,109.501555 6.300167,110.07982499999999 7.112344,110.64660299999998 8.064466,111.20845599999998 9.168728999999999,111.78205 10.453689,112.38186099999999 11.970638999999998,113.01540999999999 13.788592999999999,113.69427199999998 15.995852,114.43500999999999 18.697872,115.24731899999999 21.981692000000002,116.13542299999999 25.897732,117.10052499999999 30.411462,118.11393 35.370922,119.13166 40.612892,120.10681 46.05533200000001,121.01355 51.714392000000004,121.86392 57.561322000000004,122.67813 63.483222000000005,123.45675999999999 69.397792,124.18331999999998 75.321512,124.85386999999999 81.322292,125.48347999999999 87.424262,126.09035999999999 93.580202,126.68446999999999 99.715232,127.25677999999999 105.80273199999999,127.79641 111.87113199999999,128.29881 117.972632,128.7715 124.134032,129.22537 130.345132,129.66879 136.56353199999998,130.10268 142.754932,130.52002 148.912532,130.9152 155.055332,131.28503 161.213732,131.63303 167.406332,131.96525 173.633932,132.28683999999998 179.879832,132.60138999999998 186.120832,132.90687 192.34333199999998,133.19982 198.546032,133.47744 204.738332,133.73782 210.934232,133.98203999999998 217.14253200000002,134.21218 223.364832,134.42999 229.59603199999998,134.63694999999998 235.826132,134.83285999999998 242.047932,135.01608 248.259032,135.18510999999998 254.462032,135.33861 260.66363200000006,135.47583 266.870832,135.59777 273.08743200000004,135.70571999999999 279.313232,135.80089999999998 285.544232,135.88445 291.773732,135.95657 297.996832,136.01623999999998 304.21193200000005,136.06243999999998 310.421032,136.09419 316.62923200000006,136.11059 322.843732,136.11218 329.068932,136.10058999999998 335.306232,136.07744 341.553432,136.04442 347.80483200000003,136.00307999999998 354.053032,135.95332 360.293532,135.89400999999998 366.52473200000003,135.82402 372.74863200000004,135.74217 378.970232,135.64737 385.195832,135.53994 391.43003200000004,135.42113999999998 397.67413200000004,135.29228 403.92683200000005,135.15474 410.18363200000005,135.00993 416.438332,134.85793999999999 422.686132,134.69771 428.92483200000004,134.52808 435.15443200000004,134.34787 441.377232,134.15585 447.597432,133.95131999999998 453.818332,133.73438 460.04163200000005,133.50525 466.26713200000006,133.26417999999998 472.49293200000005,133.01151 478.715732,132.74731 484.932132,132.47082 491.140732,132.18108999999998 497.34143200000005,131.87711 503.535832,131.5578 509.727132,131.22217 515.918632,130.87018999999998 522.1125319999999,130.50222 528.3097319999999,130.11871 534.509332,129.72017 540.7092319999999,129.30721 546.906532,128.87987999999999 553.099032,128.43777 559.286132,127.98039 565.468132,127.50713999999999 571.647032,127.01731999999998 577.825432,126.51066999999999 584.005932,125.98764 590.190032,125.44882999999999 596.3781319999999,124.89491999999998 602.569632,124.32667 608.762932,123.74474999999998 614.956232,123.14929 621.147832,122.54032999999998 627.336532,121.91788 633.521132,121.28192999999999 639.700932,120.63238999999999 645.875332,119.96875999999999 652.044232,119.29046999999998 658.207732,118.59688999999999 664.366232,117.88735 670.5204319999999,117.161233 676.6712319999999,116.41835099999999 682.819832,115.65863399999999 688.967132,114.88199499999999 695.114332,114.088332 701.262532,113.277683 707.4134320000001,112.450864 713.568532,111.60889399999999 719.730132,110.75274399999999 725.9004319999999,109.883337 732.0820319999999,109.00187499999998 738.2763319999999,108.11067549999999 744.482532,107.21261609999999 750.696932,106.31098999999999 756.9135319999999,105.40951 763.1240319999999,104.51239199999999 769.321232,103.62398199999998 775.499432,102.74832699999999 781.654532,101.88913899999999 787.784232,101.04996799999999 793.8881319999999,100.234799 799.968532,99.447413 806.030232,98.69120899999999 812.080132,97.96919499999998 818.125632,97.28255999999999 824.170932,96.63145999999999 830.216332,96.01651999999999 836.257932,95.43875999999999 842.289632,94.90016999999999 848.307332,94.40351999999999 854.311632,93.95118 860.3071319999999,93.54521999999999 866.300932,93.18668 872.295932,92.87581999999999 878.288632,92.61317999999999 884.2696319999999,92.39962999999999 890.227732,92.23831999999999 896.158632,92.13333999999999 902.0663319999999,92.08850999999999 907.960732,92.10676 913.847132,92.18905 919.720032,92.33597999999999 925.5639319999999,92.54867999999999 931.360832,92.83274999999999 937.0997319999999,93.19456999999998 942.776432,93.63985 948.394332,94.17338999999998 953.965632,94.80085 959.502532,95.52910999999999 964.972632,96.35974999999999 970.2868319999999,97.28329 975.406632,98.30798499999999 980.4605320000001,99.479603 985.594132,100.79834999999999 990.527032,102.114786 994.815132,103.373094 998.427332,104.652284 1001.603032,106.118287 1004.201832,107.57249999999999" stroke="black" stroke-width="2.0" /></svg>