<?xml version="1.0" encoding="utf-8" ?>
<svg baseProfile="full" height="157.82359" version="1.1" width="1012.1692156" xmlns="http://www.w3.org/2000/svg" xmlns:ev="http://www.w3.org/2001/xml-events" xmlns:xlink="http://www.w3.org/1999/xlink"><defs /><polygon fill="none" points="1004.1692156,116.1091 1001.3116156,114.387627 997.3971156000001,113.056382 993.1398156,111.52365499999999 988.2755156000001,109.97366099999999 982.6967156000001,108.284921 976.7473156,106.55617 970.5001156000001,104.87027 963.8616156,103.17992 956.9504156,101.48898 949.9076156,99.83148 942.7429156,98.20483999999999 935.4460156,96.59431 928.0448156,94.99453 920.5782156,93.40668 913.0751156000001,91.83048 905.5501156,90.26683 898.0019156000001,88.71476 890.4201156,87.16917 882.8117156000001,85.62521 875.2140155999999,84.08465 867.6712156,82.56244000000001 860.1901156,81.07364 852.7365156000001,79.62335 845.2613156,78.19676 837.7417156000001,76.77322000000001 830.1900156,75.33879 822.6422156,73.89818 815.1221156,72.46875 807.6322156000001,71.06419 800.1579156,69.6877 792.6859156,68.32315 785.2137156000001,66.95306 777.7494156000001,65.56294 770.3039156,64.15762 762.8801156,62.75647 755.4732156,61.37759 748.0713156,60.03399999999999 740.6651156,58.71418 733.2533156000001,57.39743 725.8422156,56.064339999999994 718.4439156000001,54.70221 711.0655156,53.32561 703.7050156,51.955830000000006 696.3521156,50.61234999999999 688.9893156,49.3086 681.6030156,48.032070000000004 674.1887156,46.76235 666.7514156000001,45.48029 659.3049156000001,44.17062 651.8628156,42.840990000000005 644.4303156000001,41.50941999999999 637.0041156,40.192440000000005 629.5728156,38.90424 622.1240156,37.64232999999999 614.6559156000001,36.390879999999996 607.1786156000001,35.13537000000001 599.7148156000001,33.86338000000001 592.2931156000001,32.576570000000004 584.9301156,31.29813999999999 577.6242156000001,30.04991000000001 570.3583156000001,28.85006 563.1026156,27.70912 555.8312156000001,26.60781999999999 548.5361156,25.518640000000005 541.2280155999999,24.416509999999988 533.9368156,23.279840000000007 526.6999156,22.114169999999987 519.5348156,20.953709999999987 512.4349156000001,19.829250000000002 505.3729156,18.766729999999995 498.3034156,17.783389999999997 491.1859156,16.857979999999998 484.0075156,15.956299999999999 476.78811559999997,15.046999999999997 469.5824156,14.102399999999989 462.46521559999996,13.125500000000002 455.47951559999996,12.163700000000006 448.62191559999997,11.258899999999997 441.85271559999995,10.444299999999998 435.10291559999996,9.746300000000005 428.2936156,9.152100000000004 421.37621559999997,8.6186 414.34611559999996,8.102599999999995 407.25241559999995,7.5615999999999985 400.19881559999993,6.968899999999991 393.28211559999994,6.367900000000006 386.5341156,5.814999999999998 379.93111559999994,5.354599999999991 373.4097156,5.024299999999997 366.8800156,4.834599999999995 360.26941559999995,4.740099999999998 353.5480156,4.688199999999995 346.7380156,4.622299999999996 339.92271559999995,4.486599999999996 333.21601559999993,4.292899999999989 326.6807156,4.110399999999984 320.3166156,4.0 314.0786156,4.0137 307.88961559999996,4.192700000000002 301.6658156,4.509199999999993 295.3580156,4.901399999999995 288.96281559999994,5.301299999999998 282.53091559999996,5.632800000000003 276.16391559999994,5.852900000000005 269.9511156,6.027699999999996 263.9185156,6.236699999999999 258.0429156,6.5488 252.2674156,7.027500000000003 246.5118156,7.687899999999999 240.7100156,8.46690000000001 234.83641559999998,9.288200000000003 228.9122156,10.064399999999992 223.0103156,10.706600000000009 217.2340156,11.229399999999998 211.6438156,11.729399999999998 206.24351560000002,12.293500000000009 201.00011560000002,12.998899999999992 195.8553156,13.908899999999988 190.7348156,14.992299999999986 185.58771560000002,16.166660000000007 180.4005156,17.339339999999993 175.19901560000002,18.406369999999995 170.05061560000001,19.28604 165.0427156,20.04137 160.2194156,20.779479999999992 155.58141559999999,21.593099999999993 151.1037156,22.5642 146.7415156,23.753519999999995 142.4289156,25.11403999999999 138.1185156,26.557720000000003 133.7917156,27.98705000000001 129.4587156,29.29567 125.1601156,30.39175999999999 120.97181560000001,31.320129999999992 116.9471156,32.19314 113.1007156,33.10772 109.4246156,34.146879999999996 105.8972156,35.38553999999999 102.4697356,36.82915 99.08174559999999,38.40339 95.6912956,40.02417 92.2752256,41.59761 88.8301156,43.022999999999996 85.3797756,44.22565 81.9931156,45.269670000000005 78.71974560000001,46.26208 75.5775956,47.29863 72.5650356,48.46834 69.66713560000001,49.861990000000006 66.8307656,51.51513 63.9756256,53.399980000000006 61.0231556,55.47756999999999 57.8952856,57.68158999999999 54.5253656,59.89428 50.926945599999996,62.030069999999995 47.201415600000004,64.14368999999999 43.436955600000005,66.33895 39.6796256,68.75408 35.9076556,71.45868999999999 32.124145600000006,74.41681 28.428535600000004,77.49679 24.980245600000003,80.53759 21.8648156,83.45269 19.083335599999998,86.21913 16.6291456,88.82342 14.514255599999998,91.22316000000001 12.7273256,93.39128 11.2476646,95.34470999999999 10.0368726,97.13289 9.051480600000001,98.80356 8.2576636,100.39433 7.6198806,101.93099 7.0896235999999995,103.42042 6.630859599999999,104.85719 6.2178515999999995,106.231082 5.8321636,107.532034 5.4611035999999995,108.753152 5.0966224,109.891802 4.7488979,110.94968399999999 4.4485598,111.935013 4.21554181,112.860163 4.062581,113.737788 4.0,114.579664 4.0387846,115.3968015 4.1931661,116.2000887 4.4780514,116.9908781 4.9001319,117.738383 5.4687716,118.397238 6.182970599999999,118.952424 7.0235416,119.437534 7.9606476,119.899232 8.9490046,120.398144 9.9650266,120.962439 11.017579600000001,121.578661 12.1215986,122.225092 13.299360599999998,122.8723 14.5827656,123.484607 15.9948356,124.053918 17.5453956,124.600797 19.239195600000002,125.156452 21.068075600000004,125.766755 23.0045956,126.47926 25.0298656,127.27017 27.133995600000002,128.07761 29.3180856,128.82882 31.603115600000002,129.44789 34.017725600000006,129.91388 36.5754356,130.28619 39.281825600000005,130.64515 42.1268056,131.09739 45.0800656,131.74734999999998 48.1261256,132.56253 51.263695600000005,133.45019 54.505655600000004,134.29815 57.8849256,134.98696 61.4291456,135.50677 65.14240559999999,135.94364 69.0064356,136.4068 72.9684156,137.02419 76.9622556,137.8161 80.9510156,138.66767 84.9263156,139.45835 88.90814560000001,140.07575 92.9342656,140.46269999999998 97.0281356,140.69946 101.19869560000001,140.89176 105.4400156,141.15426 109.7276156,141.6069 114.0354156,142.26035 118.3551156,143.01402 122.6928156,143.76018 127.0693156,144.39009 131.52041559999998,144.80475 136.0796156,145.02269 140.7676156,145.13025 145.5912156,145.22607 150.53681559999998,145.42541 155.5671156,145.82283999999999 160.6458156,146.36586 165.7536156,146.95582 170.8904156,147.49089 176.07731560000002,147.86823 181.35121560000002,148.04508 186.74131559999998,148.08915 192.2614156,148.08634999999998 197.9040156,148.13461999999998 203.6339156,148.33357 209.4024156,148.67256 215.1778156,149.0652 220.9521156,149.42302999999998 226.7415156,149.65855 232.58461559999998,149.71423 238.5208156,149.63639 244.5729156,149.49685 250.74131559999998,149.37574 256.9977156,149.35981 263.2907156,149.46649 269.57961559999995,149.62784 275.8487156,149.77077 282.10821559999994,149.82359 288.3924156,149.72724 294.7446156,149.50537 301.19301559999997,149.21666 307.74411559999993,148.92543999999998 314.37741559999995,148.70269 321.04581559999997,148.58156 327.70491559999994,148.51342 334.33421559999994,148.43952 340.9376156,148.302 347.54291559999996,148.04689 354.19261559999995,147.67631 360.9185156,147.23611 367.73271559999995,146.77695 374.62331559999996,146.35496 381.55171559999997,146.01362 388.4726156,145.72561 395.3607156,145.44356 402.2149156,145.12014 409.05611559999994,144.70839999999998 415.9237156,144.19322 422.85251559999995,143.60806 429.85801559999993,142.99304999999998 436.9332156,142.39289 444.04521559999995,141.85092 451.1466156,141.35904 458.2074156,140.87894 465.22191559999993,140.37136999999998 472.2074156,139.79656 479.20161559999997,139.12904 486.24451559999994,138.39035 493.3577156,137.61325 500.5399156,136.83483 507.7642156,136.0953 514.9827156,135.40121 522.1584156,134.72184 529.2789156,134.02347 536.3543156,133.27152 543.4160156,132.43795 550.5043156,131.53614 557.6483156,130.59429 564.8615156000001,129.64382 572.1399156000001,128.71975 579.4606156,127.83574999999999 586.7953156000001,126.97104999999999 594.1210156000001,126.10104 601.4216156,125.200551 608.6890156000001,124.25252499999999 615.9267156,123.276369 623.1471156,122.30022699999999 630.3696156,121.350883 637.6212156,120.452866 644.9276156,119.603757 652.2975156,118.779191 659.7191156,117.955339 667.1575156,117.110165 674.5640156,116.2421399 681.9099156,115.3792768 689.1985156,114.547831 696.4618156,113.769795 703.7538156,113.053027 711.1169156,112.37459199999999 718.5590156,111.708822 726.0474156,111.032268 733.5131156000001,110.336483 740.9024156,109.64861499999999 748.2121156,108.99663199999999 755.4849156,108.40302 762.7970156,107.873995 770.2071156000001,107.385745 777.7203156,106.91273699999999 785.2766156,106.43242699999999 792.7753156,105.94962 800.1686156000001,105.49418 807.4854156,105.09076 814.8177156,104.75514 822.2624155999999,104.47254 829.8401156,104.21901 837.4657156000001,103.97281 844.9899156,103.74043999999999 852.3579156000001,103.55277 859.6389156,103.43567999999999 866.9814156000001,103.39641 874.4821155999999,103.41102 882.0927156,103.4502 889.6272156,103.50395 896.9791156000001,103.60262 904.2126156,103.77762 911.4749156,104.03625 918.8251156,104.3592 926.1733156,104.72439 933.3887156,105.13991 940.4535156,105.62861 947.4221156,106.204607 954.2969156,106.866248 961.0120156,107.61233899999999 967.5109156,108.455019 973.7778156,109.407222 979.8071156,110.479034 985.5894155999999,111.661142 991.0907156000001,112.912832 996.1733156000001,114.133415 1000.6183156,115.36863749999999 1004.1692156,116.1091" stroke="black" stroke-width="2.0" /></svg>