<?xml version="1.0" encoding="utf-8" ?>
<svg baseProfile="full" height="138.47976" version="1.1" width="1012.9018891" xmlns="http://www.w3.org/2000/svg" xmlns:ev="http://www.w3.org/2001/xml-events" xmlns:xlink="http://www.w3.org/1999/xlink"><defs /><polygon fill="none" points="1004.9018891,110.6689 1001.7967891,109.42065 998.0908890999999,107.960499 994.2422891,106.47802899999999 990.2408890999999,104.97312299999999 986.0762890999999,103.4459 981.7371890999999,101.89679899999999 977.2120891,100.32668 972.4892891,98.73696 967.5571891,97.12977 962.4049891,95.50816999999999 957.0234891,93.87631999999999 951.4061890999999,92.23975999999999 945.5507891,90.60311999999999 939.4608891,88.96708 933.1447890999999,87.33127999999999 926.6158891,85.69454999999999 919.8921891,84.05472999999999 912.9962890999999,82.4084 905.9537891,80.7508 898.7921891,79.07576999999999 891.5377890999999,77.38085 884.2164890999999,75.67224999999999 876.9012890999999,73.96815999999998 869.6100891,72.27378999999999 862.3241890999999,70.58582999999999 855.0276891,68.90169 847.7073890999999,67.21945 840.3720891,65.54225 833.0711891,63.88243999999999 825.8114891,62.24247 818.5932890999999,60.62325999999999 811.4140891,59.02505999999999 804.2689891,57.44758999999999 797.1517890999999,55.88994999999999 790.0566891,54.35117999999999 782.9784890999999,52.830499999999994 775.9127891,51.32726999999999 768.8555890999999,49.840999999999994 761.8031890999999,48.371359999999996 754.7527891,46.91810999999999 747.7016891,45.48116 740.6478890999999,44.06052 733.5896891,42.65629999999999 726.5258891,41.268739999999994 719.4557891,39.89814 712.3790891,38.544929999999994 705.2957891,37.209599999999995 698.2066891,35.89274 691.1126891,34.59501999999999 684.0151890999999,33.31715 676.9155891,32.059859999999986 669.8151891,30.823840000000004 662.7153891,29.609759999999994 655.6171890999999,28.41825999999999 648.5220890999999,27.24996 641.4309890999999,26.10544 634.3449891,24.98527 627.2650891,23.889979999999994 620.1923890999999,22.820089999999993 613.1275890999999,21.77606999999999 606.0716891,20.75838999999999 599.0253891,19.76746999999999 591.9893890999999,18.803839999999994 584.9642891,17.868089999999995 577.9503890999999,16.960759999999993 570.9474891,16.082369999999997 563.9552891,15.233379999999997 556.9731891,14.41422 550.0004891,13.625289999999993 543.0358891,12.86699999999999 536.0779891,12.139709999999994 529.1253890999999,11.443809999999985 522.1758891,10.77964999999999 515.2275890999999,10.147599999999997 508.2779891,9.548199999999994 501.3244891,8.9816 494.3642891,8.44789999999999 487.3950891,7.946399999999997 480.4149891,7.476599999999991 473.4226891,7.0381 466.4174891,6.630300000000005 459.39888909999996,6.252999999999986 452.3672891,5.905900000000003 445.3234891,5.588400000000007 438.2687891,5.3004999999999995 431.2052891,5.0416000000000025 424.1354891,4.811499999999995 417.0623891,4.609799999999993 409.9898891,4.436099999999996 402.9221891,4.289999999999992 395.86378909999996,4.171999999999983 388.81888910000004,4.083600000000004 381.7909891,4.02579999999999 374.78288910000003,4.0 367.79668910000004,4.007199999999997 360.83408909999997,4.04849999999999 353.8960891,4.124899999999997 346.98298910000005,4.237399999999994 340.0947891,4.3870000000000005 333.2307891,4.57459999999999 326.3898891,4.801199999999994 319.5703891,5.067699999999988 312.7704891,5.375199999999992 305.98758910000004,5.724699999999999 299.2193891,6.116499999999988 292.4637891,6.550700000000006 285.7187891,7.0275999999999925 278.98278910000005,7.547499999999985 272.2541891,8.1109 265.5317891,8.7179 258.81438909999997,9.369 252.10108910000002,10.064599999999999 245.3912891,10.80498 238.6850891,11.590239999999994 231.9837891,12.42031 225.2895891,13.294969999999992 218.6057891,14.213799999999992 211.9366891,15.176140000000004 205.2875891,16.181089999999983 198.66468910000003,17.227450000000005 192.0748891,18.314930000000004 185.5255891,19.444739999999996 179.0235891,20.618079999999992 172.5748891,21.835979999999992 166.18478910000002,23.09930999999999 159.8581891,24.408799999999985 153.59908910000001,25.76504 147.4108891,27.168509999999998 141.2965891,28.619959999999992 135.2581891,30.120549999999994 129.29628910000002,31.671599999999984 123.4098891,33.27459999999999 117.59738910000002,34.93127999999999 111.8560891,36.643609999999995 106.1823891,38.41381 100.57365910000001,40.24294999999999 95.03312910000001,42.128330000000005 89.57207910000001,44.06406999999999 84.20835910000001,46.041259999999994 78.9643191,48.048259999999985 73.86431910000002,50.07141999999999 68.93233910000001,52.09666999999999 64.1946191,54.11749999999999 59.6804091,56.12961 55.4147791,58.12504999999999 51.4138891,60.09451999999999 47.683289099999996,62.02934 44.2186991,63.922619999999995 41.0087291,65.76901999999998 38.0405191,67.55751 35.2963991,69.27869 32.7546791,70.93026 30.393799100000003,72.51374999999999 28.192269099999997,74.03965 26.1325291,75.52780999999999 24.205939100000002,76.98961 22.407999099999998,78.42942 20.734849099999998,79.84737 19.181459099999998,81.24158 17.7411991,82.60960999999999 16.406029099999998,83.94933999999999 15.1671791,85.25935999999999 14.0156791,86.53904999999999 12.9441241,87.78743999999999 11.9511521,88.99994 11.0348081,90.17389 10.1914221,91.30919999999999 9.4167431,92.40710999999999 8.7065251,93.4695 8.0567991,94.49853999999999 7.4639891,95.4964 6.9249471,96.46521999999999 6.4369420999999996,97.40699 5.9976421,98.32356999999999 5.6050761,99.21669 5.2576123,100.08789999999999 4.95392737,100.938661 4.6929859,101.770282 4.4740228,102.583979 4.2965319,103.380866 4.1602589,104.161975 4.0652002,104.92826299999999 4.0116078,105.68061999999999 4.0,106.419884 4.0311798,107.146846 4.1062616,107.862259 4.2267091,108.566848 4.3943866,109.26131799999999 4.6116276,109.94636729999999 4.88132856,110.62269368 5.2064058,111.2910471 5.5871828,111.95231299999999 6.0234511,112.607276 6.5154041,113.25655099999999 7.063606099999999,113.90057399999999 7.6689601,114.53958899999999 8.332678099999999,115.173611 9.056235099999999,115.802376 9.8412901,116.42525699999999 10.6895671,117.04114999999999 11.602646100000001,117.648305 12.5816061,118.24408199999999 13.626450100000001,118.82462299999999 14.735925100000001,119.38480899999999 15.9132591,119.92149599999999 17.1651791,120.43312399999999 18.4992291,120.91837 19.923759099999998,121.37633 21.448019099999996,121.80686999999999 23.0820791,122.21108 24.8368891,122.59191 26.7240891,122.95524999999999 28.756039100000002,123.31121999999999 30.9457891,123.67617999999999 33.3079491,124.06895999999999 35.8606591,124.49051999999999 38.6240991,124.93383 41.620829099999995,125.38709999999999 44.8782091,125.83283 48.4306991,126.25961 52.3159591,126.66422999999999 56.570349099999994,127.0445 61.222909099999995,127.40026 66.2869691,127.73535999999999 71.7514991,128.06025 77.5780891,128.38880999999998 83.7033591,128.71714 90.0443291,129.03454 96.51732910000001,129.33058 103.0593891,129.59643 109.6428891,129.82546 116.2766891,130.01512 122.98028910000001,130.16802 129.7681891,130.28699999999998 136.64808910000002,130.37475999999998 143.61978910000002,130.43412 150.6731891,130.46818 157.7877891,130.47976 164.9389891,130.46901 172.1062891,130.43556 179.2754891,130.37921999999998 186.43818910000002,130.29991 193.5927891,130.19754 200.7438891,130.07193999999998 207.90208909999998,129.92299 215.0788891,129.75155999999998 222.2817891,129.55882 229.5134891,129.34602 236.77138910000002,129.11461 244.0477891,128.86627 251.32928909999998,128.60298999999998 258.5972891,128.32693999999998 265.8299891,128.03746999999998 273.00978910000003,127.73101 280.12548910000004,127.40396999999999 287.17168910000004,127.05278999999999 294.1479891,126.67398 301.0587891,126.26397999999999 307.91238910000004,125.81909999999999 314.7203891,125.33542 321.4974891,124.81134999999999 328.2584891,124.25001999999999 335.0164891,123.6549 341.7827891,123.02932999999999 348.56748910000005,122.37665 355.3793891,121.70026999999999 362.22588909999996,121.00371999999999 369.1131891,120.290765 376.0459891,119.565422 383.02768910000003,118.83204699999999 390.0596891,118.09536899999999 397.1419891,117.36052099999999 404.2719891,116.63305799999999 411.4452891,115.918611 418.6552891,115.218764 425.8948891,114.531983 433.1577891,113.85651399999999 440.4377891,113.190467 447.7296891,112.53182699999999 455.0284891,111.878475 462.3302891,111.2282032 469.6314891,110.57872682 476.9296891,109.92769569999999 484.2227891,109.272702 491.5096891,108.611284 498.7898891,107.940929 506.06378910000006,107.25907 513.3321891,106.56427099999999 520.5967890999999,105.858025 527.8587890999999,105.142281 535.1195891,104.418993 542.3799890999999,103.69012599999999 549.6411891,102.957656 556.9038890999999,102.22357299999999 564.1685891,101.489888 571.4359891,100.75862599999999 578.7062890999999,100.03183 585.9796891,99.31156999999999 593.2562891,98.59993 600.5359891,97.89900999999999 607.8185890999999,97.21079999999999 615.1033890999998,96.53635999999999 622.3895891,95.87639999999999 629.6761891,95.2316 636.9617890999999,94.60269 644.2444890999999,93.99041 651.5225891,93.39546999999999 658.7937890999999,92.81860999999999 666.0555890999999,92.26055 673.3053891,91.722 680.5401891,91.20365 687.7568891,90.70616999999999 694.9522890999999,90.23019 702.1228891,89.77641999999999 709.2653891,89.34615 716.3772891,88.94081 723.4570890999998,88.56172 730.5038890999999,88.21007999999999 737.5176891,87.88701999999999 744.4991891,87.5936 751.4498891,87.33081999999999 758.3715890999999,87.09966999999999 765.2668891,86.90109 772.1390890999999,86.73606 778.9916891,86.60557 785.8289891,86.51066999999999 792.6556890999999,86.45246999999999 799.4769891,86.43216 806.2988891,86.45105999999998 813.1278891,86.51057999999999 819.9702891,86.61142 826.8310891,86.75375 833.7129891,86.9378 840.6166890999999,87.16377999999999 847.5402891,87.43181999999999 854.4797891,87.74189999999999 861.4288891,88.09375999999999 868.3783890999999,88.48686 875.3170890999999,88.92027999999999 882.2314891,89.39268 889.1062890999999,89.9023 895.9249891,90.44689 902.6700890999999,91.02382999999999 909.3231890999999,91.6335 915.8648890999999,92.28184999999999 922.2766891,92.97422999999999 928.5420891,93.71461 934.6469890999999,94.50559999999999 940.5801890999999,95.3485 946.3331890999999,96.2435 951.9006891,97.18979999999999 957.2799891,98.18530999999999 962.4718891,99.22411 967.4799890999999,100.29932 972.3097891,101.404854 976.9675890999999,102.53536 981.4605891,103.68619 985.7962891,104.85333499999999 989.9825890999999,106.03334799999999 994.0268891,107.22328599999999 997.9368890999999,108.420639 1001.7195891,109.623272 1004.9018891,110.6689" stroke="black" stroke-width="2.0" /></svg>