<?xml version="1.0" encoding="utf-8" ?>
<svg baseProfile="full" height="155.3205" version="1.1" width="1012.02350543" xmlns="http://www.w3.org/2000/svg" xmlns:ev="http://www.w3.org/2001/xml-events" xmlns:xlink="http://www.w3.org/1999/xlink"><defs /><polygon fill="none" points="1004.02350543,106.29180000000001 1000.41480543,105.127125 995.69320543,103.78157900000001 990.4997054300001,102.37945300000001 984.8145054299999,100.947545 978.73560543,99.50261700000001 972.3674054300001,98.08605600000001 965.7184054300001,96.69592700000001 958.8396054299999,95.32814 951.79290543,93.98941 944.57690543,92.6714 937.1905054299999,91.35323000000001 929.70610543,90.02762000000001 922.2118054299999,88.71251000000001 914.7330054299999,87.41965 907.25020543,86.13807 899.7471054299999,84.84793 892.2181054299999,83.53697000000001 884.66130543,82.21214 877.07770543,80.88440000000001 869.4718054299999,79.55938 861.8515054300001,78.23465000000002 854.22560543,76.90733 846.60300543,75.5759 838.9888054300001,74.23989 831.38380543,72.89819000000001 823.78490543,71.55137 816.1905054299999,70.20412000000002 808.60360543,68.86237000000001 801.03220543,67.53061000000001 793.4852054300001,66.20389 785.9657054300001,64.8738 778.4706054300001,63.53125000000001 770.9907054299999,62.17531000000001 763.5165054299999,60.81567000000001 756.04200543,59.463200000000015 748.5649054300001,58.127890000000015 741.08790543,56.806080000000016 733.61500543,55.48635000000001 726.15030543,54.15718000000001 718.69690543,52.80971000000001 711.2537054300001,51.450680000000006 703.8159054299999,50.09202000000001 696.37540543,48.74512000000001 688.92210543,47.41843000000001 681.44960543,46.10578000000001 673.95930543,44.796510000000005 666.46010543,43.48116000000001 658.96850543,42.153310000000005 651.49960543,40.82094000000001 644.05940543,39.49727 636.64390543,38.19357000000001 629.24050543,36.91856 621.8354054299999,35.66676000000001 614.42620543,34.422880000000006 607.02410543,33.17355000000002 599.6538054299999,31.907920000000004 592.34590543,30.62951000000001 585.1143054300001,29.363100000000003 577.94990543,28.130830000000017 570.82320543,26.950330000000008 563.68850543,25.830640000000002 556.50370543,24.75316000000001 549.24820543,23.69358000000001 541.9259054300001,22.63031000000001 534.56820543,21.544870000000017 527.22610543,20.436920000000015 519.93240543,19.33017000000001 512.6874054299999,18.24546000000001 505.46150543000005,17.19844000000002 498.19720543,16.198390000000003 490.83440543,15.234490000000008 483.34780543,14.291370000000015 475.76000543,13.35869000000001 468.15120543,12.432150000000007 460.63380543000005,11.526440000000008 453.26970543,10.667850000000016 446.05210543,9.873110000000011 438.92170543000003,9.151730000000015 431.77930543,8.504800000000017 424.53010543,7.912220000000019 417.13140543,7.352660000000014 409.61010543000003,6.808329999999998 402.07780543,6.26700000000001 394.68180543,5.747 387.48930543,5.280799999999999 380.48000543,4.891000000000005 373.57260543,4.594800000000006 366.64470543,4.3969000000000165 359.59050543,4.273200000000003 352.36580542999997,4.196300000000008 345.01010542999995,4.13630000000002 337.66360543,4.066600000000008 330.48770543,4.008400000000009 323.54080543,4.0 316.78890543,4.072600000000008 310.13700543,4.254900000000006 303.45580543,4.55210000000001 296.64870542999995,4.933900000000008 289.68800543,5.362400000000008 282.63750543,5.788899999999998 275.65620543,6.177400000000006 268.88380543,6.563290000000009 262.34950543,6.99539 256.00070543000004,7.51870000000001 249.73310543,8.175449999999998 243.42380543000002,8.95947000000001 236.99870543,9.828210000000013 230.45760543,10.724990000000005 223.89340543,11.576420000000013 217.46860543,12.357280000000017 211.28470543,13.127170000000007 205.34040543,13.950080000000014 199.57100543,14.88757000000001 193.87140543,15.98593000000001 188.13510542999998,17.214680000000016 182.31020543,18.513500000000008 176.41410543,19.801150000000007 170.54470543000002,20.985410000000016 164.84110543,22.074150000000003 159.37010543,23.147840000000002 154.11900543,24.284570000000002 149.02940543,25.559900000000013 144.00970543,27.006680000000003 138.97570543,28.570360000000008 133.89540543,30.171720000000008 128.79540543000002,31.709410000000005 123.76390543,33.09104000000001 118.91540543,34.3604 114.29740543,35.61249000000001 109.89850543,36.933650000000014 105.67620543,38.40368000000001 101.55731543,40.04088 97.46862543,41.77659 93.37465543,43.52362 89.27816543,45.17953000000001 85.22194542999999,46.65157000000001 81.29200543,47.97938000000001 77.54120543,49.26622000000001 73.97625543,50.60512000000001 70.57894542999999,52.08212 67.30378543,53.75023000000001 64.07059543,55.56306000000001 60.81330543,57.448240000000006 57.48596543,59.31540000000001 54.06818543,61.05629000000001 50.60188543,62.647270000000006 47.15253543,64.18531000000002 43.742845429999996,65.78903000000001 40.35188543,67.60058000000001 36.89398543,69.72086000000002 33.30240543,72.13860000000001 29.67048543,74.69652 26.27262543,77.14681000000002 23.268935430000003,79.43525000000001 20.62082543,81.62567000000001 18.23655543,83.78012000000001 16.05877543,85.87100000000001 14.09121543,87.82321000000002 12.34929043,89.57913 10.85182943,91.16000000000001 9.58528643,92.6209 8.519535430000001,94.00769000000001 7.62584843,95.35328000000001 6.87094443,96.66756400000001 6.22721643,97.946178 5.6756074299999995,99.18193600000001 5.201572430000001,100.36746400000001 4.79452763,101.49707300000001 4.46120073,102.57193300000002 4.21384963,103.59910300000001 4.05896901,104.58675900000001 4.0,105.54291470000001 4.03917094,106.4749314 4.18016713,107.37596300000001 4.43058573,108.21240200000001 4.79968993,108.95281000000001 5.2983654300000005,109.570051 5.91528543,110.07355600000001 6.61431043,110.508503 7.35758443,110.919813 8.10422543,111.35280200000001 8.814189429999999,111.84817500000001 9.48164043,112.404881 10.11753943,113.00278700000001 10.733989430000001,113.621312 11.34395743,114.23987600000001 11.96120143,114.838029 12.60036643,115.39529800000001 13.277304430000001,115.89077200000001 14.009104429999999,116.30328 14.803305430000002,116.62973000000001 15.65694543,116.88553000000002 16.566275429999997,117.08764000000001 17.52671543,117.25482000000001 18.532175430000002,117.40869 19.57426543,117.57500000000002 20.64119543,117.78477000000001 21.71756543,118.07326 22.797105430000002,118.45162 23.88296543,118.90879000000001 24.97978543,119.42960000000001 26.09386543,119.99513 27.23339543,120.58260000000001 28.40895543,121.16526 29.63409543,121.71202000000001 30.926205430000003,122.18684 32.300425430000004,122.56813000000001 33.76230543,122.86708000000002 35.31635543,123.10143000000001 36.966345430000004,123.29426000000001 38.71420543,123.47647 40.55792543,123.69000000000001 42.48835543,123.99129 44.49364543,124.42412000000002 46.57286543,124.97496000000001 48.72779543,125.61205000000001 50.96297543,126.29173 53.28799543,126.95881000000001 55.72083543,127.54658 58.28684543,127.99834000000001 61.00214543,128.33158 63.87851543,128.59002 66.92316543,128.83298000000002 70.13294543,129.14172000000002 73.48772543,129.61201 76.96736543,130.24779 80.56001543,130.98364 84.26153543,131.73601000000002 88.08217543,132.40731 92.04927543000001,132.91289 96.18496543,133.28191 100.50101543000001,133.58834000000002 104.99550543000001,133.92493000000002 109.64360543,134.4027 114.40810543,135.04919 119.26530543000001,135.78456 124.20920543000001,136.51334 129.25800543,137.13281 134.45110543,137.5876 139.82480543000003,137.93375 145.40870543,138.25167000000002 151.22050543,138.64022 157.26190542999998,139.17949000000002 163.52850543,139.84179 170.00550543,140.56584 176.66290543,141.27483 183.45450543,141.91232000000002 190.33600543,142.47061000000002 197.28630543,142.94998 204.31270543,143.3538 211.43910543,143.69049 218.67160543,143.97056 225.98540543,144.20456000000001 233.32200543,144.40629 240.61410543000002,144.60198000000003 247.81510543,144.82075 254.90150543,145.08981 261.87040543,145.41635000000002 268.73600543000003,145.75979 275.52450543,146.07575 282.27200543000004,146.3228 289.02430543,146.47044 295.82280542999996,146.54275 302.68950543,146.58242 309.62300543000003,146.63409000000001 316.59600543,146.74176 323.56570543,146.90393 330.50460543,147.08055000000002 337.40850543,147.23161000000002 344.29550543,147.31852 351.20210543,147.3205 358.16250543,147.26369 365.19340543,147.18281000000002 372.29040543,147.11466000000001 379.42590543,147.09434000000002 386.56060543,147.11578000000003 393.66930543,147.14649 400.74730543000004,147.15414 407.80960543,147.10709 414.88690543,146.99012000000002 422.00800542999997,146.82559 429.18610543,146.64191 436.41700542999996,146.46914 443.67770543,146.33583000000002 450.93510543,146.23689000000002 458.16900542999997,146.14588 465.37620543,146.03616 472.57050542999997,145.88133 479.77960543,145.66748 487.03000543,145.4121 494.33410542999997,145.13816000000003 501.68850543,144.87021000000001 509.07250543,144.63171 516.45670543,144.41954 523.82320543,144.21346 531.17000543,143.99275 538.51130543,143.73651 545.87400543,143.43448 553.28140543,143.09910000000002 560.74160543,142.74650000000003 568.24560543,142.39428 575.76570543,142.05917 583.26740543,141.73724 590.73190543,141.41258 598.16040543,141.0687 605.57270543,140.68947 612.99920543,140.27433000000002 620.46000543,139.83763 627.95680543,139.39556000000002 635.47150543,138.96573 642.97020543,138.55517 650.42710543,138.14949000000001 657.83860543,137.73133 665.22230543,137.28267 672.61400543,136.79099000000002 680.04680543,136.26603 687.53060543,135.72393 695.04790543,135.18343000000002 702.5542054299999,134.65997000000002 710.0062054299999,134.14367000000001 717.39350543,133.61588 724.73910543,133.05637000000002 732.09520543,132.44746 739.5156054299999,131.79382 747.02070543,131.11005 754.58770543,130.41570000000002 762.1510054299999,129.72759000000002 769.6514054300001,129.03881 777.08030543,128.33398 784.47690543,127.59402000000001 791.91280543,126.80715000000001 799.43380543,125.97929 807.0279054299999,125.12427000000001 814.61810543,124.26129 822.11580543,123.39165000000001 829.50130543,122.50173000000001 836.82410543,121.57095000000001 844.17450543,120.58569000000001 851.60500543,119.55199 859.0907054300001,118.48788 866.5342054299999,117.41207000000001 873.85870543,116.31842 881.0639054300001,115.18863400000001 888.21060543,114.01094200000001 895.37030543,112.808548 902.5904054299999,111.61417300000001 909.8838054299999,110.449961 917.19990543,109.31757400000001 924.41800543,108.22749900000001 931.4249054300001,107.21701560000001 938.21990543,106.32016446000002 944.87940543,105.54650480000001 951.43940543,104.888777 957.8525054300001,104.348583 964.04910543,103.946481 969.99810543,103.69966500000001 975.7067054299999,103.614648 981.2167054299999,103.69266700000001 986.51430543,103.91791 991.44910543,104.272637 996.03700543,104.82366 1000.45650543,105.51639990000001 1004.02350543,106.29180000000001" stroke="black" stroke-width="2.0" /></svg>