<?xml version="1.0" encoding="utf-8" ?>
<svg baseProfile="full" height="194.26336999999998" version="1.1" width="1012.05436785" xmlns="http://www.w3.org/2000/svg" xmlns:ev="http://www.w3.org/2001/xml-events" xmlns:xlink="http://www.w3.org/1999/xlink"><defs /><polygon fill="none" points="1004.05436785,133.0545 1000.69296785,132.406355 996.7518678499999,131.238993 992.42516785,129.81793399999998 987.62496785,128.33319799999998 982.45696785,126.83140099999999 977.0476678499999,125.334876 971.4521678499999,123.83960699999999 965.66906785,122.34253999999999 959.69646785,120.84376999999999 953.53826785,119.34436 947.2061678499999,117.84615 940.7184678499999,116.3487 934.09686785,114.84979999999999 927.36536785,113.34629999999999 920.5495678499999,111.83411 913.67446785,110.30940999999999 906.76206785,108.77420999999998 899.83076785,107.23203999999998 892.89446785,105.68552999999999 885.96276785,104.13628999999999 879.0403678499999,102.58488 872.1273678499999,101.0307 865.2210678499999,99.47200999999998 858.31696785,97.90653999999999 851.4087678499999,96.33201999999999 844.4907678499999,94.74834999999999 837.5614678499999,93.15708999999998 830.6241678499999,91.56089 823.6857678499999,89.96195999999999 816.7514678499999,88.36067999999999 809.8222678499999,86.75639999999999 802.8952678499999,85.14767999999998 795.96546785,83.53375999999999 789.02986785,81.91478999999998 782.08806785,80.29151999999999 775.1419678499999,78.66514999999998 768.19466785,77.03643 761.2480678499999,75.40566999999999 754.30256785,73.77288999999999 747.35766785,72.13797 740.4118678499999,70.50129999999999 733.46426785,68.86353 726.51396785,67.22541999999999 719.5607678499999,65.5877 712.60496785,63.95061999999999 705.64796785,62.31435999999998 698.69196785,60.67930999999999 691.73996785,59.04608999999999 684.7954678499999,57.416 677.8601678499999,55.79057999999999 670.93426785,54.17099999999999 664.01616785,52.557990000000004 657.1028678499999,50.95172999999998 650.19186785,49.35186 643.2820678499999,47.75824999999999 636.37426785,46.17118999999998 629.47066785,44.59133 622.57426785,43.01996999999999 615.6867678499999,41.45846999999999 608.80766785,39.90772 601.9345678499999,38.36819999999999 595.06376785,36.83985 588.19176785,35.32187999999998 581.31826785,33.813929999999985 574.44566785,32.316299999999984 567.5795678499999,30.829899999999995 560.72776785,29.357 553.89706785,27.901600000000002 547.0915678499999,26.46729999999998 540.31336785,25.056899999999985 533.56206785,23.672799999999995 526.83606785,22.317099999999996 520.13446785,20.992199999999983 513.45806785,19.700599999999994 506.80896785000004,18.444999999999993 500.19046785,17.228399999999993 493.60606785,16.054199999999994 487.05696785000004,14.925999999999988 480.54106785,13.846499999999992 474.05396785000005,12.817999999999998 467.58826785,11.842399999999984 461.13636785,10.920199999999994 454.69316785,10.051299999999998 448.25676785,9.235899999999987 441.82856785,8.474899999999991 435.41276784999997,7.769499999999979 429.01526785,7.121399999999994 422.63856785,6.5327000000000055 416.28126785,6.005099999999985 409.93766785,5.539899999999989 403.59816785000004,5.13839999999999 397.25116785,4.800099999999986 390.88876785,4.5230999999999995 384.50896785,4.305800000000005 378.11586785,4.146800000000013 371.71966784999995,4.044799999999981 365.33406785,4.0 358.96836785,4.0142999999999915 352.62396785,4.089499999999987 346.29496785000003,4.227599999999995 339.96846785,4.4307999999999765 333.62796785,4.699399999999997 327.26326785000003,5.0309999999999775 320.87436785,5.422999999999988 314.47206785000003,5.871899999999982 308.07786785,6.373400000000004 301.71636785,6.927499999999995 295.40066785,7.537499999999994 289.12996785,8.20729999999999 282.89106785,8.942599999999999 276.65936784999997,9.749399999999994 270.40926785,10.627599999999987 264.12576785,11.575099999999992 257.80656784999996,12.587400000000002 251.46286785,13.658199999999994 245.11756785,14.78179999999999 238.79026785,15.956799999999987 232.49106785,17.183499999999995 226.22056785,18.46369999999999 219.97046785,19.8005 213.73086784999998,21.195399999999992 207.49716785,22.648399999999995 201.27056785000002,24.158199999999994 195.05826785000002,25.722099999999998 188.87016785,27.338499999999982 182.71256785,29.007199999999997 176.58736785,30.729399999999984 170.49176785000003,32.50729999999999 164.42076785,34.34246999999998 158.37266785,36.23523999999999 152.34966785,38.18442999999999 146.35836785,40.187569999999994 140.40746785000002,42.242969999999985 134.50336785000002,44.35052999999999 128.64856785,46.51123999999999 122.84266785,48.72697999999998 117.08486785000001,50.998739999999984 111.37806785,53.32577999999998 105.72886785,55.70569999999999 100.14691785000001,58.13545999999998 94.64249785000001,60.61304 89.22440785,63.13669999999999 83.89986785,65.70459 78.67633785,68.3133 73.56363785,70.95724999999999 68.57339785,73.62907999999999 63.72199785,76.31951 59.03726785,79.01267999999999 54.55375785,81.68571 50.303687849999996,84.31566 46.30169785,86.89106999999998 42.54178785,89.41123999999999 39.007367849999994,91.87946 35.69317785,94.28048999999999 32.62083785,96.57699 29.814897849999998,98.73019 27.289647849999998,100.72757999999999 25.03555785,102.59616999999999 23.02038785,104.37049999999999 21.20951785,106.08116 19.57010785,107.74949 18.06497785,109.37307999999999 16.66854785,110.93878 15.365577850000001,112.43182999999999 14.14596785,113.83963 13.002654849999999,115.15456999999999 11.93861785,116.38264999999998 10.95851885,117.53876 10.06145985,118.63698 9.24382485,119.68945 8.50099585,120.70629999999998 7.82809485,121.69574999999999 7.219719850000001,122.66269999999999 6.67125185,123.6094 6.17897285,124.53678 5.7395888500000005,125.44498499999999 5.349959849999999,126.33375 5.00704445,127.20262699999999 4.71069545,128.050152 4.46374025,128.87515299999998 4.26784785,129.67875299999997 4.1241916100000005,130.463523 4.03417818,131.232902 4.0,131.990946 4.02516907,132.74233099999998 4.11486852,133.4924443 4.27170675,134.245263 4.49639585,135.00188799999998 4.79104915,135.76108299999999 5.15841185,136.518495 5.60022885,137.268227 6.11572185,138.01001599999998 6.70248185,138.745509 7.356444850000001,139.477142 8.07158785,140.208348 8.840296850000001,140.94338199999999 9.66172785,141.682321 10.541044849999999,142.42154399999998 11.48461485,143.15675 12.500387850000001,143.88296 13.59867985,144.59432999999999 14.79232785,145.28612999999999 16.09258785,145.96371 17.51046785,146.63800999999998 19.056797850000002,147.32415 20.73929785,148.04336999999998 22.55865785,148.82147999999998 24.51940785,149.66407999999998 26.630717849999996,150.56199999999998 28.905647849999998,151.50109999999998 31.366857849999995,152.46302 34.050667849999996,153.43777999999998 36.99827785,154.43459 40.25299785,155.46726999999998 43.84480785,156.55067 47.77311785,157.68492999999998 52.016997849999996,158.85213 56.55217785,160.03313 61.37493785,161.21713 66.48802785000001,162.4015 71.87598785,163.58288 77.49868785,164.75372 83.30695785,165.90123999999997 89.26286785,167.01619 95.34968785000001,168.09561 101.55709785,169.14046 107.86546785000002,170.15152999999998 114.24526785,171.12772999999999 120.67136785000001,172.06475 127.13516785000002,172.96029 133.64666785,173.81539999999998 140.21796785,174.63622999999998 146.84006785,175.42839999999998 153.47666785,176.19463 160.07526785,176.92834 166.60306785,177.61673 173.05656785,178.2507 179.45666785000003,178.82734 185.82646785,179.36837 192.16526785,179.90375999999998 198.44696785,180.46027999999998 204.62586785000002,181.05446 210.66636785,181.65586 216.57136785000003,182.22138999999999 222.37486785000002,182.71607 228.13466785000003,183.10959 233.92436785,183.39705999999998 239.80656785,183.61141999999998 245.82346785,183.78864 251.99206785,183.96778 258.29446785000005,184.18914999999998 264.68686785,184.45584 271.13266785,184.74425 277.61406785,185.02949999999998 284.13466785,185.28677 290.71806785,185.5009 297.38586785,185.67703999999998 304.14446785,185.82278 310.98056785,185.94599 317.85886784999997,186.05392 324.73486785,186.14506999999998 331.57926785,186.21372 338.38306785,186.25475999999998 345.15596785,186.26336999999998 351.92226785,186.23738999999998 358.70396785,186.17928999999998 365.51246785,186.09188 372.34756785,185.97805 379.19696785,185.84076 386.04186784999996,185.68000999999998 392.86816785,185.49381 399.66936785,185.28010999999998 406.44596785000005,185.03673999999998 413.20536785,184.76167999999998 419.95616785,184.45435999999998 426.70346785,184.11464999999998 433.44826785,183.74254 440.18796785,183.33822999999998 446.91656785,182.90171999999998 453.62886785,182.43198999999998 460.32326785,181.92775999999998 467.00166785,181.38747 473.66956785,180.80925 480.33496785,180.19197 487.00506785,179.53606 493.68446785000003,178.84221 500.37496785,178.1113 507.07586785,177.34453 513.7843678500001,176.54313 520.4992678499999,175.70794999999998 527.22226785,174.83951 533.95786785,173.93791 540.7134678499999,173.00286 547.4984678499999,172.03553 554.3202678499999,171.03877 561.1827678499999,170.01608 568.0859678499999,168.97164999999998 575.02576785,167.91020999999998 581.9946678499999,166.83515 588.98396785,165.74933 595.98376785,164.65582999999998 602.98356785,163.55789 609.97266785,162.45953 616.94336785,161.36584 623.89226785,160.28136999999998 630.8207678499999,159.20991999999998 637.7338678499999,158.15439999999998 644.6389678499999,157.1154 651.54056785,156.09235999999999 658.4402678499999,155.08521 665.33646785,154.09432999999999 672.22476785,153.12078 679.1013678499999,152.16643 685.96506785,151.23295 692.8176678499999,150.32155999999998 699.6636678499999,149.43305999999998 706.5086678499999,148.56709999999998 713.3565678499999,147.72286 720.2085678499999,146.89987 727.06336785,146.09796 733.91746785,145.31752999999998 740.76856785,144.55944 747.6164678499999,143.82433999999998 754.46346785,143.11264 761.3140678499999,142.42422499999998 768.17206785,141.758015 775.0388678499999,141.11298699999998 781.9127678499999,140.488382 788.7899678499999,139.883929 795.66576785,139.30043899999998 802.5375678499998,138.738803 809.40436785,138.199729 816.2669678499999,137.683665 823.12636785,137.190719 829.9833678499999,136.72099699999998 836.8377678499999,136.274644 843.6886678499999,135.85178499999998 850.5331678499999,135.452561 857.3656678499999,135.077196 864.1785678499999,134.726575 870.9630678499999,134.40424099999998 877.71026785,134.114274 884.41076785,133.8604537 891.0573678499999,133.6461965 897.6490678499999,133.474458 904.1916678499999,133.347886 910.69696785,133.2690793 917.18236785,133.24086559999998 923.67116785,133.2658654 930.18616785,133.3361898 936.73446785,133.4352744 943.3007678499999,133.5455447 949.84746785,133.64871349999999 956.3166678499999,133.7272506 962.64756785,133.7724127 968.8057678499999,133.7827829 974.78516785,133.7580845 980.59846785,133.6993536 986.22726785,133.6270146 991.5300678499999,133.5754395 996.3306678499999,133.5621742 1000.60006785,133.4430496 1004.05436785,133.0545" stroke="black" stroke-width="2.0" /></svg>