<?xml version="1.0" encoding="utf-8" ?>
<svg baseProfile="full" height="174.84738" version="1.1" width="1012.03267761" xmlns="http://www.w3.org/2000/svg" xmlns:ev="http://www.w3.org/2001/xml-events" xmlns:xlink="http://www.w3.org/1999/xlink"><defs /><polygon fill="none" points="1004.03267761,122.7191 1000.71657761,121.7578391 996.4475776099999,120.619523 991.6595776099999,119.394063 986.4408776099999,118.078014 980.9523776099999,116.72619 975.3079776099999,115.383485 969.5097776099999,114.057324 963.5270776099999,112.7332 957.34557761,111.39788999999999 950.97877761,110.04187 944.47427761,108.66496 937.88987761,107.27735 931.2727776099999,105.88788 924.65397761,104.50179 918.04557761,103.1203 911.44297761,101.7416 904.8380776099999,100.36397 898.2265776099999,98.98665 891.60867761,97.6097 884.9883776099999,96.23411999999999 878.3743776099999,94.86176999999999 871.77847761,93.49360999999999 865.20827761,92.12682 858.6633776099999,90.75653 852.13487761,89.37734999999999 845.60987761,87.99034999999999 839.0798776099999,86.60037 832.5418776099999,85.21351 825.99857761,83.83379 819.4543776099999,82.45769999999999 812.91037761,81.07992999999999 806.36407761,79.6944 799.8096776099999,78.29748 793.24097761,76.89071999999999 786.6552776099999,75.47682999999999 780.0527776099999,74.05927 773.43707761,72.64093 766.8126776099999,71.22251 760.1831776099999,69.80425 753.55117761,68.38615999999999 746.9181776099999,66.96811 740.2847776099999,65.55008 733.6515776099999,64.13201 727.01847761,62.713789999999996 720.3851776099999,61.29521 713.7516776099999,59.876070000000006 707.11957761,58.45639999999999 700.49167761,57.03658 693.87267761,55.61734 687.26787761,54.200450000000004 680.68027761,52.78894 674.10877761,51.385180000000005 667.54857761,49.990700000000004 660.9911776099999,48.60607 654.42717761,47.228750000000005 647.8515776099999,45.854749999999996 641.26497761,44.481139999999996 634.6735776099999,43.10616 628.0890776099999,41.72984000000001 621.5228776099999,40.35687 614.97967761,38.992549999999994 608.4570776099999,37.64059999999999 601.94607761,36.303290000000004 595.4315776099999,34.98083 588.90007761,33.66954999999999 582.34647761,32.36636999999999 575.77537761,31.07003999999999 569.2009776099999,29.78116 562.6459776099999,28.503299999999996 556.1296776099999,27.24445 549.6587776099999,26.01115999999999 543.22797761,24.807399999999987 536.82067761,23.634989999999988 530.41107761,22.4927 523.97517761,21.373900000000006 517.5005776099999,20.272299999999987 510.98817761000004,19.184200000000004 504.45307761,18.1079 497.92357761000005,17.045199999999994 491.42827761,16.004800000000003 484.98277760999997,14.995099999999994 478.58877760999997,14.021799999999999 472.23607761,13.088699999999989 465.90447761,12.197400000000002 459.57247761,11.345200000000006 453.22907761,10.529799999999994 446.87417761,9.75030000000001 440.51917761,9.007100000000008 434.18627761000005,8.3022 427.89927761,7.6418000000000035 421.66947761,7.032899999999998 415.49387761,6.480500000000006 409.35747761,5.988399999999984 403.23407761,5.5597000000000065 397.09197761,5.192400000000006 390.90897761,4.880899999999997 384.67637761,4.6203 378.40057760999997,4.406599999999997 372.10467761,4.235699999999994 365.82297761,4.107600000000005 359.58047761000006,4.0275999999999925 353.38477761,4.0 347.22717761,4.028999999999996 341.08427761,4.119200000000006 334.92217761,4.2716000000000065 328.71437761000004,4.481799999999993 322.45037761000003,4.744700000000009 316.13767761,5.054000000000002 309.80417760999995,5.402299999999997 303.49157761,5.786900000000003 297.23087761000005,6.212299999999999 291.03357761,6.683499999999995 284.89347761000005,7.206599999999995 278.78897761,7.7886999999999915 272.69117761,8.4328 266.58017761,9.137900000000002 260.44867761,9.90209999999999 254.30287761,10.72189999999999 248.16177761,11.59259999999999 242.04707761,12.513199999999998 235.96957761000002,13.485299999999995 229.92867761000002,14.511700000000005 223.91297761,15.597199999999987 217.90357761,16.745899999999992 211.88557761,17.957899999999995 205.85447761,19.231399999999994 199.81667761000003,20.562200000000004 193.78867761,21.94449999999999 187.78867761,23.37607 181.82537761,24.85741999999999 175.89717761,26.39157 169.99277761000002,27.983739999999997 164.09777761,29.63723999999999 158.20557761,31.351709999999997 152.32067761000002,33.12374 146.45817761,34.946709999999996 140.63817760999999,36.81627999999999 134.87217761,38.732870000000005 129.16017761,40.700379999999996 123.49207760999998,42.72577 117.85507761,44.81364000000001 112.24597761,46.96396999999999 106.67257761,49.17241 101.15263761,51.4319 95.70271761,53.73966 90.32882760999999,56.09739999999999 85.02692761,58.51077000000001 79.78980761,60.98398999999999 74.62181761,63.513769999999994 69.54152760999999,66.08919 64.57807761000001,68.69631 59.75774761,71.32695999999999 55.09537761,73.97713999999999 50.59778761,76.64373 46.27907761,79.31316000000001 42.166507610000004,81.96059 38.291637609999995,84.55713 34.68603761,87.07801 31.37043761,89.5015 28.34927761,91.81214 25.61520761,94.00148 23.15242761,96.06654999999999 20.93841761,98.00945999999999 18.948187609999998,99.83585 17.16094761,101.5499 15.55914761,103.15386 14.124947610000001,104.65131 12.84028161,106.04814999999999 11.690241610000001,107.35394 10.660488610000002,108.58069 9.736594610000001,109.73988 8.90554161,110.84158 8.156126610000001,111.89426999999999 7.4798486099999995,112.90557 6.8719096099999994,113.881666 6.32876561,114.825887 5.847006609999999,115.739863 5.42297961,116.624414 5.05271261,117.480088 4.73453401,118.30651499999999 4.47160221,119.103081 4.26556451,119.872294 4.11724541,120.618503 4.027888159,121.34693299999999 4.0,122.0633916 4.038172935,122.77441247 4.14751351,123.4868029 4.32834041,124.204591 4.58197191,124.929143 4.91128151,125.658768 5.319169609999999,126.387427 5.8072436100000004,127.109934 6.37582561,127.82585999999999 7.02358561,128.53580699999998 7.747311610000001,129.24157300000002 8.54184561,129.94664999999998 9.40518161,130.654775 10.344093610000002,131.367393 11.36743961,132.085902 12.48542261,132.81203 13.70960961,133.54791 15.053127609999999,134.29615 16.53174761,135.05998 18.16329761,135.84391 19.96671761,136.65439 21.96039761,137.50048 24.164287610000002,138.38813 26.60362761,139.31615 29.30521761,140.2812 32.29743761,141.27848 35.61705761,142.30784 39.298157610000004,143.37267 43.35398761,144.47559 47.76267761,145.60886 52.47899761,146.74806 57.46378761,147.87093 62.71113761,148.97036 68.21243761,150.05011 73.92151760999998,151.11178999999998 79.76009761,152.14414 85.67134760999998,153.13036 91.64801761,154.06308 97.71962761,154.94919 103.89906760999999,155.80052 110.16077761,156.62464 116.44937760999998,157.41796 122.72897761,158.17031 129.00187761,158.87615 135.30337760999998,159.53697 141.66677761000003,160.16296 148.09667761,160.76288 154.56427761,161.34231 161.02287761,161.89694 167.44787761,162.41857 173.84467761,162.90174 180.24577761,163.34462 186.68837761,163.7541 193.18917761,164.13825 199.73967761,164.50385 206.30547761,164.85442 212.84967761000001,165.18478 219.35487761,165.48902999999999 225.82487761000002,165.76256 232.28177761,166.0025 238.74977761000002,166.21071 245.23807761,166.38973 251.73857761000002,166.5416 258.22627761,166.66781 264.67017761000005,166.76487 271.05837761,166.82661000000002 277.40087761,166.84738 283.72797761,166.82139 290.08667761,166.74625 296.51897761,166.62952 303.04517761,166.48065 309.65817761,166.31043 316.31867761,166.13094999999998 322.96597761,165.9451 329.55757761,165.74628 336.08127761000003,165.52728 342.55137761000003,165.28044 349.00517761000003,164.99871000000002 355.48477761,164.6831 362.01457761,164.33813 368.59687761000004,163.96947 375.20987761,163.58449000000002 381.80887761,163.18904 388.35217761,162.7791 394.82217761000004,162.34786 401.22497761,161.88763 407.58637761,161.38939 413.94887761,160.84651 420.35247761000005,160.2617 426.82257761,159.64005 433.36707761,158.98839999999998 439.97417760999997,158.31618 446.61167761,157.63204000000002 453.24477761,156.93727 459.85107761,156.23092 466.42167761,155.5108 472.95997761,154.77351 479.48037761,154.01793 485.99897761,153.24934 492.52797761000005,152.47413 499.07587761,151.6992 505.64707761,150.932 512.2418776100001,150.17651 518.85677761,149.42896 525.48677761,148.68475999999998 532.1247776099999,147.93943 538.7619776099999,147.18871 545.38907761,146.43225 552.00097761,145.6757 558.5972776099999,144.92467 565.18297761,144.18411 571.76767761,143.45832 578.36387761,142.74715 584.98007761,142.0451 591.6179776099999,141.34693 598.27217761,140.64804 604.93027761,139.94476 611.5764776099999,139.23899 618.20097761,138.53718 624.8027776099999,137.84497 631.38907761,137.16703 637.9748776099999,136.50678 644.5775776099999,135.86244 651.20737761,135.22995 657.8656776099999,134.60605 664.5440776099999,133.9883 671.22517761,133.376 677.8910776099999,132.77267 684.5332776099999,132.182116 691.1524776099999,131.607188 697.7584776099999,131.04989799999998 704.3671776099999,130.509767 710.99117761,129.98380500000002 717.63517761,129.469469 724.29597761,128.964823 730.96237761,128.468895 737.62177761,127.983326 744.26797761,127.51015 750.90257761,127.050819 757.5346776099999,126.606214 764.17647761,126.17544 770.83337761,125.75662299999999 777.49997761,125.348491 784.16007761,124.950414 790.7914776099999,124.56468 797.3828776099999,124.196642 803.9407776099999,123.850766 810.4884776099999,123.5305908 817.0608776099999,123.2351656 823.6801776099999,122.95747949999999 830.3439776099999,122.690859 837.02177761,122.4297535 843.6672776099999,122.176868 850.2564776099999,121.9416438 856.79667761,121.7322382 863.3227776099999,121.55411099999999 869.8749776099999,121.40302299999999 876.47237761,121.272033 883.1080776099999,121.15477299999999 889.75457761,121.049398 896.38677761,120.958567 902.99057761,120.884812 909.56247761,120.83038499999999 916.1097776099999,120.7974 922.6491776099999,120.787942 929.20237761,120.802196 935.77857761,120.838047 942.36807761,120.893125 948.94117761,120.964676 955.44977761,121.049584 961.83997761,121.148574 968.07807761,121.266541 974.1556776099999,121.407916 980.0822776099999,121.57648499999999 985.84167761,121.7696351 991.2918776099999,121.9740779 996.24097761,122.1752107 1000.61547761,122.41525709999999 1004.03267761,122.7191" stroke="black" stroke-width="2.0" /></svg>