<?xml version="1.0" encoding="utf-8" ?>
<svg baseProfile="full" height="182.74854" version="1.1" width="1012.1878891" xmlns="http://www.w3.org/2000/svg" xmlns:ev="http://www.w3.org/2001/xml-events" xmlns:xlink="http://www.w3.org/1999/xlink"><defs /><polygon fill="none" points="1004.1878891,139.7199 1000.8580890999999,138.8750088 996.5805891,137.788246 991.8672891,136.633992 986.7207891,135.437513 981.1576891,134.188136 975.2417891,132.870967 969.0777891,131.485748 962.7799891,130.05433 956.4398891,128.59575999999998 950.1031891,127.11937999999999 943.7722891,125.6249 937.4389891,124.10985 931.0990891,122.57269 924.7532891,121.01293 918.4063891000001,119.43122 912.0675891,117.82873 905.7459891000001,116.20572999999999 899.4481891,114.56182999999999 893.1781891,112.89604 886.9371891,111.20679 880.7241891000001,109.49188 874.5356891,107.74859 868.3670891,105.97467 862.2141891,104.16811 856.0729891,102.32694 849.9401891,100.44980999999999 843.8122891,98.53647 837.6868891,96.58695 831.5619891,94.60146 825.4360891,92.58063999999999 819.3063890999999,90.52534 813.1692891,88.43598 807.0193891,86.31248 800.8502891,84.15502000000001 794.6563891000001,81.96562 788.4356891000001,79.74769 782.1894891,77.50603999999998 775.9227891,75.24687999999999 769.6428891,72.97690999999999 763.3576891,70.70293 757.0751891,68.43184999999998 750.8030891000001,66.17054 744.5487891,63.925539999999984 738.3167890999999,61.70233 732.1086891,59.50519 725.9230891000001,57.337239999999994 719.7560890999999,55.200469999999996 713.6034891,53.09572 707.4615891,51.02387999999999 701.3281891,48.98618999999999 695.2018891,46.98424 689.0822891,45.01983 682.9692891,43.094620000000006 676.8619891000001,41.209999999999994 670.7589891,39.3672 664.6580891,37.567099999999996 658.5568891,35.81039999999999 652.4528891,34.0972 646.3446891,32.427499999999995 640.2312891,30.80189999999999 634.1124891,29.220799999999997 627.9885891,27.6849 621.8602891,26.19489999999999 615.7277891,24.751599999999996 609.5909891,23.355400000000003 603.4491891,22.0069 597.3015891,20.7063 591.1468891000001,19.453699999999998 584.9844891,18.248900000000006 578.8137891,17.091899999999995 572.6345891,15.982699999999994 566.4470891,14.921399999999991 560.2516891,13.90809999999999 554.0488891,12.942999999999998 547.8394891,12.02640000000001 541.6243891,11.158299999999997 535.4048891000001,10.338999999999999 529.1820891,9.568900000000014 522.9568891,8.848199999999991 516.7298891,8.17749999999998 510.50078909999996,7.556999999999988 504.26898909999994,6.986999999999995 498.0333891,6.467700000000008 491.7926891,5.998699999999985 485.5460891,5.5797999999999774 479.29328910000004,5.210700000000003 473.0342891,4.891199999999998 466.7694891,4.621000000000009 460.4994891,4.399900000000002 454.2244891,4.227499999999992 447.9446891,4.1036 441.6597891,4.027899999999988 435.3692891,4.0 429.0724891,4.01939999999999 422.76858910000004,4.0852999999999895 416.4571891,4.197100000000006 410.1381891,4.353999999999985 403.81158910000005,4.555199999999985 397.4774891,4.800099999999986 391.1363891,5.087799999999987 384.7886891,5.417500000000018 378.43528910000003,5.7882999999999925 372.0770891,6.199299999999994 365.7153891,6.649900000000002 359.35148910000004,7.139599999999973 352.98718909999997,7.668000000000006 346.6243891,8.234700000000004 340.2653891,8.838999999999999 333.9125891,9.480799999999988 327.5677891,10.160500000000013 321.2321891,10.8784 314.90628910000004,11.634999999999991 308.5899891,12.43089999999998 302.2826891,13.266300000000001 295.98398910000003,14.1417 289.6935891,15.057299999999998 283.41148910000004,16.0133 277.13798909999997,17.009900000000002 270.8732891,18.047399999999996 264.6181891,19.125899999999987 258.37338910000005,20.245400000000004 252.1399891,21.40599999999999 245.9189891,22.607699999999994 239.7115891,23.850899999999996 233.5184891,25.135999999999996 227.3399891,26.463499999999996 221.1762891,27.833699999999993 215.0274891,29.247 208.8939891,30.70389999999999 202.7762891,32.204499999999996 196.67558910000002,33.748900000000006 190.5933891,35.337299999999985 184.53138909999998,36.97019999999999 178.4921891,38.6477 172.47848910000002,40.36977 166.49318910000002,42.136589999999984 160.53868910000003,43.94901 154.6157891,45.808319999999995 148.7238891,47.71621999999999 142.86138910000003,49.674459999999996 137.0282891,51.68388999999999 131.2271891,53.74437 125.4630891,55.85482999999999 119.74278910000001,58.014340000000004 114.0713891,60.223389999999995 108.4508891,62.48348 102.88086910000001,64.79708999999998 97.3619891,67.16605 91.9011691,69.58937 86.51136910000001,72.06285 81.2088591,74.58153999999999 76.0020291,77.14572000000001 70.8868291,79.76147 65.85121910000001,82.43856 60.901249099999994,85.17478 56.0800591,87.94505999999998 51.4551491,90.70873 47.0687491,93.44900999999999 42.8999091,96.18782999999999 38.887419099999995,98.96607999999999 34.994249100000005,101.75611 31.3022491,104.42844 27.9482091,106.84582 25.015469099999997,109.01691 22.4685591,111.02529999999999 20.2331791,112.94826 18.2429091,114.82244999999999 16.4578891,116.64044 14.8588491,118.38292 13.4319011,120.03119 12.1658971,121.5752 11.050201099999999,123.01769 10.0689161,124.36824999999999 9.2054771,125.63799 8.444890099999999,126.83748 7.7731870999999995,127.97677 7.1758131,129.06545 6.6415111,130.109162 6.1615901,131.11096700000002 5.7288901,132.072781 5.3372851,132.996148 4.9830492,133.882102 4.6735658,134.729291 4.4168734,135.538806 4.21762484,136.314326 4.0792215,137.060508 4.0051592,137.782316 4.0,138.48483099999999 4.0703161,139.1733516 4.22592437,139.8537073 4.4750496,140.53090269999998 4.8153727,141.20472 5.2434681,141.869809 5.7550201,142.517065 6.3495691,143.14569 7.0268051,143.759065 7.7841281,144.362407 8.6156861,144.96343099999999 9.5165861,145.56864199999998 10.492659100000001,146.175343 11.5529501,146.778369 12.7090091,147.37132499999998 13.976759099999999,147.946349 15.378279099999999,148.498268 16.9401291,149.034744 18.694689099999998,149.571495 20.6780091,150.13562 22.918499100000002,150.76838999999998 25.4365991,151.48495 28.2448791,152.26990999999998 31.355229100000003,153.09319 34.814179100000004,153.93076 38.6941491,154.78907999999998 43.0465491,155.67875999999998 47.8479091,156.59848 53.0081191,157.52351 58.433559100000004,158.43151 64.0804291,159.31315 69.92048910000001,160.16407999999998 75.92254910000001,160.98185999999998 82.0547391,161.76637 88.28423910000001,162.51945 94.57951910000001,163.24338 100.9157491,163.93637999999999 107.27878910000001,164.59678 113.66588910000002,165.22462 120.0793891,165.82182 126.5194891,166.39052999999998 132.9836891,166.93262 139.4674891,167.44924 145.9671891,167.94137 152.4802891,168.4101 159.0048891,168.85645 165.54028910000002,169.28119999999998 172.0860891,169.68513 178.6424891,170.06907999999999 185.2098891,170.43397 191.78778910000003,170.78077 198.37488910000002,171.11042 204.9687891,171.42373999999998 211.56688910000003,171.72095000000002 218.16758910000001,172.00204 224.7704891,172.26704999999998 231.3762891,172.51613 237.9865891,172.74974 244.6022891,172.96848 251.2238891,173.17292 257.8515891,173.36364 264.4846891,173.54108 271.1223891,173.70562999999999 277.7637891,173.85766 284.4073891,173.99756 291.05168910000003,174.12553 297.6954891,174.24145 304.3384891,174.34515 310.9812891,174.43648 317.62498910000005,174.51533999999998 324.27148910000005,174.58198 330.92168910000004,174.63685999999998 337.5759891,174.68043 344.2340891,174.71312 350.8949891,174.7353 357.5574891,174.74707999999998 364.2208891,174.74854 370.88458909999997,174.73975 377.5485891,174.72079 384.2129891,174.69172 390.8777891,174.65255 397.5428891,174.60331 404.2078891,174.54402 410.8720891,174.47467999999998 417.5349891,174.39524 424.1961891,174.30553 430.8560891,174.20542999999998 437.5153891,174.09474999999998 444.1752891,173.97337 450.8370891,173.84148 457.5015891,173.6994 464.1688891,173.54748999999998 470.83848910000006,173.3861 477.5091891,173.21556999999999 484.1796891,173.03584999999998 490.8486891,172.84681 497.5155891,172.6483 504.1798891,172.44016 510.84138909999996,172.22221 517.5001891000001,171.99421 524.1562891,171.75585999999998 530.8097891,171.50691 537.4608891,171.24707999999998 544.1095891,170.97613 550.7563891,170.69398999999999 557.4017891000001,170.40062 564.0468891,170.09593 570.6926891,169.77982 577.3408891,169.45231 583.9922891,169.11371 590.6466891,168.76441 597.3025891,168.40489 603.9576891,168.03569 610.6084890999999,167.65691999999999 617.2521891,167.26792 623.8871891,166.86793 630.5130891,166.45611 637.1307891,166.03154999999998 643.7418891,165.59347 650.3470891000001,165.14123 656.9455891,164.67431 663.5356891,164.1923 670.1140891,163.69477999999998 676.6776891000001,163.18067 683.2250891,162.64845 689.7570891,162.09646 696.2762891000001,161.52284 702.7875891000001,160.92605 709.2960891,160.30586 715.8058891,159.66228 722.3204891,158.99536999999998 728.8426891,158.30524 735.3743890999999,157.59284 741.9183891,156.85971999999998 748.4779891,156.10742 755.0568891,155.33737 761.6593891,154.55121 768.2874891,153.75155 774.9381891,152.94172 781.6035891,152.12578 788.2707891,151.30849999999998 794.9258891000001,150.49507 801.5587891,149.690206 808.1632891,148.898056 814.7375891,148.122185 821.2824891,147.365766 827.8016891,146.631633 834.3009891,145.922326 840.7879891,145.239624 847.2683891,144.583638 853.7434890999999,143.954591 860.2102891,143.35315599999998 866.6626891,142.781073 873.0971891,142.240924 879.5152891,141.734893 885.9228891,141.264488 892.3268891,140.829419 898.7320891,140.4290904 905.1405891,140.06315419999999 911.5517891000001,139.73144226 917.9625891000001,139.4338941 924.3671891,139.170672 930.7577891,138.94383059999998 937.1248891,138.7564118 943.4583891,138.611204 949.7470891,138.510646 955.9794891,138.456766 962.1427891000001,138.45134099999999 968.2216891,138.495749 974.1986890999999,138.590621 980.0554890999999,138.73555919999998 985.7545891,138.9229664 991.1875891000001,139.1350628 996.2148891,139.3524618 1000.7310891,139.5587541 1004.1878891,139.7199" stroke="black" stroke-width="2.0" /></svg>