<?xml version="1.0" encoding="utf-8" ?>
<svg baseProfile="full" height="299.6958" version="1.1" width="1012.003961217" xmlns="http://www.w3.org/2000/svg" xmlns:ev="http://www.w3.org/2001/xml-events" xmlns:xlink="http://www.w3.org/1999/xlink"><defs /><polygon fill="none" points="1004.003961217,189.1355 998.9852612169999,185.81136600000002 992.930461217,182.70025 986.763461217,179.74182000000002 980.456761217,176.87409 973.9452612169999,174.05049 967.186061217,171.22613 960.1690612169999,168.36572 952.905761217,165.4588 945.409861217,162.50302 937.712261217,159.50576 929.884361217,156.49611000000002 921.973461217,153.52681 913.9275612170001,150.61785 905.651761217,147.69531 897.094961217,144.64903 888.238561217,141.43795 879.041261217,138.10824000000002 869.441461217,134.69922000000003 859.386661217,131.1975 848.839261217,127.58027000000001 837.799761217,123.8266 826.347861217,119.93479 814.619661217,115.95237 802.698661217,111.93491 790.6043612169999,107.90418000000001 778.3860612169999,103.87648 766.1369612169999,99.88669000000002 753.888761217,95.95888000000001 741.568361217,92.07919 729.1240612170001,88.2201 716.648061217,84.39510000000001 704.277361217,80.65350000000001 691.984961217,77.00740000000002 679.606761217,73.41000000000001 667.101261217,69.81700000000001 654.684561217,66.2604 642.6051612169999,62.83360000000002 630.8624612169999,59.575800000000015 619.2822612169999,56.458 607.7192612169999,53.4299 596.135461217,50.46860000000001 584.573361217,47.577500000000015 573.079761217,44.765600000000006 561.6794612169999,42.03629999999998 550.3877612169999,39.39320000000001 539.233061217,36.84440000000001 528.2572612170001,34.400800000000004 517.482561217,32.0727 506.8728612169999,29.85929999999999 496.34166121699997,27.747800000000012 485.811461217,25.712000000000018 475.303761217,23.736699999999985 464.947061217,21.827799999999996 454.889761217,20.01910000000001 445.166661217,18.33790000000002 435.712261217,16.789500000000004 426.41656121700004,15.360300000000024 417.210961217,14.028500000000008 408.090461217,12.782100000000014 399.102561217,11.618700000000018 390.297961217,10.548100000000005 381.679461217,9.577800000000025 373.207661217,8.709699999999998 364.81806121700004,7.937900000000013 356.467661217,7.2456000000000245 348.160261217,6.61930000000001 339.943261217,6.048800000000028 331.887361217,5.535599999999988 324.038161217,5.090599999999995 316.405661217,4.720800000000025 308.974761217,4.430499999999995 301.718961217,4.217999999999989 294.617361217,4.078300000000013 287.65696121699995,4.006900000000002 280.83056121699997,4.0 274.13606121699996,4.053600000000017 267.577361217,4.1632999999999925 261.163961217,4.3241999999999905 254.908961217,4.531400000000019 248.826661217,4.781000000000006 242.925861217,5.0756000000000085 237.203161217,5.419900000000013 231.646361217,5.817900000000009 226.237561217,6.273400000000009 220.956361217,6.788900000000012 215.78456121700003,7.361500000000007 210.710761217,7.9868000000000166 205.72876121700003,8.66070000000002 200.836361217,9.37899999999999 196.034661217,10.137400000000014 191.326361217,10.933600000000013 186.712861217,11.766400000000004 182.19446121700003,12.634699999999981 177.770661217,13.537199999999984 173.43986121700001,14.473000000000013 169.200261217,15.441400000000016 165.049761217,16.442499999999995 160.985561217,17.47659999999999 157.004561217,18.54400000000001 153.10306121700003,19.64519999999999 149.27736121700002,20.7808 145.523361217,21.950800000000015 141.837761217,23.1541 138.217961217,24.389199999999988 134.661961217,25.654899999999998 131.168661217,26.9495 127.73706121699999,28.2714 124.367161217,29.61930000000001 121.058661217,30.992400000000004 117.811361217,32.3905 114.624561217,33.81330000000003 111.497361217,35.260700000000014 108.428461217,36.7328 105.41656121700001,38.22940000000003 102.460301217,39.750699999999995 99.55852121699999,41.29650000000001 96.710121217,42.8665 93.91411121699998,44.4606 91.169601217,46.07860000000002 88.47574121699999,47.72030000000001 85.831791217,49.38560000000001 83.237061217,51.07420000000002 80.690861217,52.78570000000002 78.192381217,54.52010000000001 75.740781217,56.2773 73.335171217,58.0574 70.974651217,59.8605 68.658171217,61.6867 66.38432121700001,63.53550000000001 64.151891217,65.40590000000002 61.959941216999994,67.29690000000001 59.807811217,69.2073 57.695071217,71.1357 55.62147121699999,73.08080000000001 53.587031216999996,75.04100000000001 51.592351217,77.01540000000001 49.638021216999995,79.00340000000001 47.724461217,81.00450000000001 45.851961217,83.01820000000001 44.020681216999996,85.0443 42.230691217,87.0826 40.481981217,89.1328 38.77452121699999,91.19484000000001 37.108301217,93.26835000000001 35.483231217,95.35322000000001 33.899221217000004,97.44935000000001 32.356151217000004,99.5567 30.853871217000002,101.67529 29.392231217000003,103.80519 27.970851217,105.94625 26.589391217,108.09819 25.247551217,110.26063 23.945131217,112.43312 22.682001217,114.61511 21.458061217,116.80599000000001 20.273331217,119.00509000000001 19.128511217000003,121.21196 18.024631217,123.42651000000001 16.962591217000003,125.64895000000001 15.943141217,127.87973000000001 14.966971217000001,130.1196 14.034691217,132.36955 13.146868217000002,134.63081 12.303406217000001,136.90435000000002 11.503744217000001,139.19066 10.747464217,141.49008 10.034298217,143.80280000000002 9.364113217,146.12889 8.736889217,148.46823 8.152708217,150.82059 7.6113082169999995,153.18560000000002 7.111581217,155.56310000000002 6.652293217,157.95323000000002 6.232213217,160.35652000000002 5.850127217,162.77382 5.504859217,165.20642 5.195291217,167.65599 4.920410417,170.12472 4.679997717,172.61492 4.474652717,175.12729000000002 4.305206517,177.65999 4.172529417,180.208312 4.077325357,182.764545 4.019910327,185.318018 4.0,187.855515 4.016651687,190.362088 4.070495027,192.82295000000002 4.163652417,195.227736 4.297526917,197.571467 4.473018017,199.85335 4.690814917,202.07561 4.951635617,204.24248 5.256348217,206.35947000000002 5.605064217,208.43199 5.997319217,210.46415000000002 6.432849217,212.45907 6.9115522170000006,214.41912000000002 7.433439217,216.34605000000002 7.998596216999999,218.24104 8.607117216999999,220.10487 9.258519217,221.93802 9.951873217,223.74092000000002 10.686410216999999,225.51406 11.461538217,227.25793000000002 12.276844217,228.97302000000002 13.132096217,230.65984 14.027231217,232.31888 14.961831217,233.95107000000002 15.935031217,235.5576 16.945941217,237.13949000000002 17.993691217,238.69750000000002 19.077401217000002,240.23222 20.196151217,241.74402 21.348971217000003,243.2331 22.535181217,244.6993 23.754841217,246.14199000000002 25.008221217,247.56059 26.295731217,248.95459 27.617971217,250.32352 28.975741217,251.66697000000002 30.370041217,252.98457 31.801981217,254.27618 33.271951217,255.54284 34.779991217,256.78586 36.326071217,258.00642 37.910021217,259.20551 39.531531217,260.38401 41.190101217,261.54266 42.885001216999996,262.68204000000003 44.615891217,263.80226 46.383071216999994,264.90299000000005 48.187001216999995,265.98396 50.028241216999994,267.04491 51.907521216999996,268.08564 53.825721216999995,269.10597 55.783951216999995,270.10577 57.783511217,271.08522 59.825601217,272.04534 61.911231216999994,272.98725 64.04123121699999,273.91204 66.21611121699999,274.82073 68.43602121699999,275.71433 70.70061121699999,276.59379 73.009131217,277.45974 75.36139121699999,278.31111 77.757621217,279.14619000000005 80.19828121699999,279.9633 82.68413121699999,280.76077 85.216311217,281.53696 87.796411217,282.29024000000004 90.426561217,283.01913 93.109011217,283.72303 95.845961217,284.40168 98.639621217,285.05476 101.492131217,285.68187 104.40556121699998,286.28255 107.381861217,286.85627999999997 110.42276121699999,287.40244 113.53026121699999,287.92029 116.70676121700001,288.40903000000003 119.95456121699999,288.86789 123.276261217,289.2961 126.674761217,289.69280000000003 130.153161217,290.05740000000003 133.715161217,290.3888 137.364461217,290.68600000000004 141.104661217,290.948 144.938961217,291.1736 148.870261217,291.36170000000004 152.900461217,291.51099999999997 157.03156121700002,291.6191 161.266261217,291.682 165.609761217,291.6958 170.06976121700004,291.6558 174.658161217,291.5565 179.392061217,291.3931 184.29206121700003,291.1643 189.379161217,290.87030000000004 194.67226121700003,290.5117 200.185461217,290.09069999999997 205.924861217,289.6093 211.892061217,289.06351 218.092161217,288.44759 224.53776121700002,287.75454 231.254761217,286.97566 238.281161217,286.10492999999997 245.65316121700002,285.13969000000003 253.39296121700002,284.08073 261.496061217,282.93299 269.93706121699995,281.69484 278.700761217,280.35919 287.80206121699996,278.91361 297.28966121699995,277.34663 307.199161217,275.65636 317.513961217,273.85229000000004 328.15756121699997,271.94553 339.078861217,269.93007 350.319761217,267.78226 362.00446121699997,265.48881 374.21196121699995,263.071 386.884061217,260.57538 399.889961217,258.01137 413.20176121699996,255.34984 426.90916121699996,252.5627 441.045461217,249.66263 455.48146121699995,246.69269 469.99096121699995,243.69725 484.359861217,240.72198 498.515961217,237.81596000000002 512.616361217,234.98671000000002 526.898661217,232.18331 541.363461217,229.36981 555.743961217,226.58361000000002 569.875561217,223.87951 583.829261217,221.26081 597.691561217,218.7024 611.410361217,216.20201 624.860961217,213.78648 637.958561217,211.48215000000002 650.6857612169999,209.30402 663.133261217,207.25131000000002 675.4856612169999,205.30217000000002 687.8714612169999,203.4075 700.189861217,201.54124000000002 712.1889612169999,199.73558 723.7696612169999,198.04154400000002 735.022661217,196.472679 746.065961217,195.00788 756.928761217,193.630281 767.570861217,192.337515 777.945561217,191.135651 788.025761217,190.0279342 797.807461217,189.01501620000002 807.317261217,188.094551 816.600361217,187.259879 825.668061217,186.49398200000002 834.455561217,185.78315700000002 842.861761217,185.128875 850.853161217,184.55635900000001 858.485461217,184.082319 865.850561217,183.69853 873.0061612169999,183.352165 879.9540612169999,182.99383400000002 886.6657612170001,182.604518 893.145661217,182.24321500000002 899.460361217,181.972959 905.7176612169999,181.838753 912.020861217,181.813385 918.406261217,181.839281 924.8298612169999,181.863923 931.2133612169999,181.896575 937.5274612169999,181.97441 943.794161217,182.12239 950.037061217,182.331559 956.2450612169999,182.587144 962.385861217,182.89040500000002 968.438761217,183.25479900000002 974.4035612170001,183.708737 980.3151612170001,184.30049 986.2446612169999,185.06947200000002 992.276761217,186.042498 998.504861217,187.251799 1004.003961217,189.1355" stroke="black" stroke-width="2.0" /></svg>