<?xml version="1.0" encoding="utf-8" ?>
<svg baseProfile="full" height="286.2631" version="1.1" width="1012.6491710800001" xmlns="http://www.w3.org/2000/svg" xmlns:ev="http://www.w3.org/2001/xml-events" xmlns:xlink="http://www.w3.org/1999/xlink"><defs /><polygon fill="none" points="1003.99917108,172.71949999999998 1004.6491710800001,167.47600999999997 1002.69047108,165.19306199999997 999.16657108,164.55185999999998 995.6297710800001,163.75328699999997 992.03277108,162.84365499999998 988.23107108,161.94889999999998 984.26687108,160.99884999999998 980.14627108,159.96909 975.84157108,158.87589999999997 971.33577108,157.72872999999998 966.62787108,156.51826 961.71567108,155.23136 956.5895710799999,153.85721999999998 951.23577108,152.3852 945.6375710799999,150.80590999999998 939.77757108,149.11717 933.64297108,147.32061 927.22837108,145.41507 920.53037108,143.39358 913.54017108,141.24767999999997 906.24487108,138.97350999999998 898.63497108,136.57191999999998 890.7092710799999,134.04674999999997 882.47747108,131.40404999999998 873.96127108,128.65386999999998 865.19117108,125.80066999999998 856.18747108,122.83905999999999 846.94747108,119.76064999999998 837.46247108,116.57058999999998 827.74357108,113.28493999999998 817.8255710799999,109.92377999999998 807.74967108,106.50597999999998 797.5557710799999,103.05012999999998 787.28317108,99.57422999999999 776.97247108,96.09666999999997 766.65747108,92.63615999999998 756.34747108,89.20581999999997 746.0234710799999,85.80751999999998 735.66757108,82.42865999999998 725.30397108,79.06295999999999 714.9979710800001,75.72293999999998 704.80347108,72.44039999999998 694.72387108,69.23539999999998 684.72207108,66.10939999999998 674.76487108,63.04929999999999 664.84867108,60.04839999999999 654.99597108,57.11019999999998 645.22567108,54.24589999999998 635.5295710800001,51.46029999999999 625.87577108,48.74989999999998 616.2348710800001,46.100399999999965 606.61317108,43.50219999999999 597.05557108,40.95659999999998 587.62057108,38.482999999999976 578.32707108,36.10479999999998 569.14687108,33.8322 560.01907108,31.661099999999976 550.89447108,29.56839999999997 541.76777108,27.536899999999974 532.6778710799999,25.559799999999967 523.68617108,23.650199999999984 514.8236710799999,21.830799999999982 506.08047107999994,20.114599999999996 497.41517108,18.505799999999965 488.78127108,16.991299999999967 480.15857108,15.555800000000005 471.55497108000003,14.189199999999971 463.00317108,12.888599999999997 454.53667107999996,11.66379999999998 446.17067108,10.524599999999992 437.90317108,9.477399999999989 429.71927108,8.524899999999974 421.60397108,7.665099999999995 413.54977107999997,6.896299999999968 405.55587108,6.217899999999986 397.62637108,5.629799999999989 389.76327108,5.133099999999985 381.96127108,4.728399999999965 374.20837108,4.416300000000007 366.48757108,4.195899999999995 358.78807108,4.059799999999996 351.11587108,4.0 343.49277108,4.008399999999966 335.95357107999996,4.0797999999999774 328.52717107999996,4.224399999999974 321.21857108,4.455299999999966 314.01177108,4.784999999999997 306.87447108000003,5.224699999999984 299.77157108,5.769699999999972 292.68457107999996,6.4085999999999785 285.61347107999995,7.128999999999991 278.57617108,7.917299999999983 271.60087108,8.769199999999984 264.70837107999995,9.688399999999973 257.90827107999996,10.679099999999977 251.20007108,11.746099999999984 244.57677108,12.89269999999999 238.03127107999998,14.119499999999988 231.55847107999998,15.426699999999983 225.15487108000002,16.814599999999956 218.81857108,18.28219999999999 212.54867108,19.825699999999983 206.34607108,21.440699999999993 200.21357108,23.12209999999999 194.15547107999998,24.864899999999977 188.17717108,26.66519999999997 182.28457108,28.51909999999998 176.48367108000002,30.422499999999985 170.78047107999998,32.371099999999984 165.18087108,34.36239999999998 159.68967108,36.39519999999996 154.30977108,38.46879999999999 149.04247107999998,40.582299999999975 143.88757108,42.73419999999999 138.84397108,44.9207 133.91107108,47.13749999999999 129.08837108,49.380499999999984 124.37557107999999,51.64559999999999 119.77257107999999,53.92689999999999 115.28087108,56.21749999999999 110.90387108,58.509399999999985 106.64577108,60.79439999999998 102.51216107999998,63.06639999999997 98.50833107999999,65.32539999999997 94.63573108,67.57369999999999 90.89242108,69.81469999999997 87.27419108000001,72.05229999999999 83.77427107999999,74.28791999999997 80.38496108,76.51778999999999 77.10102108,78.73664999999997 73.91917108,80.93867999999998 70.83747108,83.11779999999997 67.85544108000002,85.26912999999999 64.97450108000001,87.39231999999998 62.19474108000001,89.48861999999998 59.51470108,91.55981999999999 56.93189108000001,93.60805999999998 54.44306108,95.63562999999998 52.043831080000004,97.64348999999999 49.72938108,99.63077999999999 47.49563108,101.59637999999998 45.33906108,103.53899999999997 43.256581080000004,105.45734999999998 41.24544108,107.35015999999999 39.30398108,109.21716999999998 37.431441080000006,111.05943999999998 35.626721079999996,112.87819999999999 33.888391080000005,114.67474999999999 32.214811080000004,116.45040999999998 30.60418108,118.20649999999998 29.054591079999998,119.94420999999997 27.56396108,121.66415999999998 26.13025108,123.36676999999999 24.75154108,125.05244999999998 23.42596108,126.72152999999997 22.15174108,128.37436999999997 20.92719108,130.01126999999997 19.75086108,131.63257 18.62194108,133.23875999999998 17.53971108,134.83030999999997 16.50338108,136.40762999999998 15.51216108,137.97114 14.56523108,139.52119999999996 13.66175908,141.05813999999998 12.80093208,142.58227999999997 11.98217908,144.09383999999997 11.204901079999999,145.59314999999998 10.46842408,147.08066 9.77202608,148.55689999999998 9.114963079999999,150.02245999999997 8.49649108,151.47799999999998 7.91594508,152.92419999999998 7.37357208,154.36146 6.87026708,155.78979999999999 6.40692408,157.20891999999998 5.98437808,158.61827 5.603363079999999,160.01709999999997 5.26447908,161.40451 4.96815158,162.77947199999997 4.71404538,164.14071199999998 4.50080248,165.487318 4.32692728,166.819405 4.19099948,168.13796699999997 4.09178575,169.444719 4.02832486,170.741998 4.0,172.03271429999998 4.00661849,173.3203467 4.0487108,174.60853099999997 4.12755908,175.90021499999997 4.24489518,177.19760499999998 4.40282568,178.502176 4.60375958,179.81461699999997 4.85031158,181.13473399999998 5.145161079999999,182.46131699999998 5.4900180800000005,183.79234 5.88469208,185.12584999999999 6.32865608,186.46005 6.82130008,187.79327999999998 7.36197708,189.12410999999997 7.95006508,190.45128 8.58504008,191.77380999999997 9.26692308,193.09109999999998 9.99627708,194.40278999999998 10.77374008,195.70841 11.60000208,197.00741 12.475793079999999,198.29908999999998 13.401876080000001,199.58263999999997 14.37893108,200.85726999999997 15.40681108,202.12363 16.48489108,203.38309999999998 17.61230108,204.63707999999997 18.78793108,205.88702999999998 20.010321079999997,207.13441999999998 21.27762108,208.38074999999998 22.588711080000003,209.62664999999998 23.94499108,210.87059 25.348491080000002,212.11075 26.801501079999998,213.34524 28.30673108,214.57218 29.86733108,215.78965999999997 31.48696108,216.99595 33.16816108,218.19194 34.91211108,219.38074999999998 36.719651080000006,220.56574999999998 38.591111080000005,221.75055999999998 40.52614108,222.93901999999997 42.523401080000006,224.13518999999997 44.581931080000004,225.34136999999998 46.703511080000006,226.55586999999997 48.89064108000001,227.77635999999998 51.14627108,229.00045 53.474061080000006,230.22567999999998 55.878561080000004,231.44959999999998 58.36496108,232.67066 60.93769108,233.88977999999997 63.601011080000006,235.10836999999998 66.35911108,236.32792999999998 69.21593107999999,237.55005 72.17491108,238.77637 75.23951108,240.00784999999996 78.41377107999999,241.24458999999996 81.70172108,242.48665 85.10722108,243.73417999999998 88.63392108,244.98737999999997 92.28545107999999,246.2459 96.06617107999999,247.50735999999998 99.98119108,248.76880999999997 104.03657108,250.02713999999997 108.23987108,251.27918999999997 112.59997107999999,252.52344999999997 117.12537108,253.76227 121.82297108,254.99866999999998 126.69667108,256.2359 131.74647108,257.47673999999995 136.96977108,258.71851 142.36407108,259.95527 147.92697108,261.18084999999996 153.65787108,262.38919 159.55777107999998,263.57524 165.62777108,264.73455 171.86877108000002,265.86253 178.28157108,266.95462999999995 184.86707108,268.00813999999997 191.62467107999998,269.02196 198.55257107999998,269.99528 205.64707108,270.92742999999996 212.90287107999998,271.81673 220.31117108,272.66108999999994 227.85937108000002,273.4586 235.53167108,274.2056 243.31597108,274.8945 251.20967108,275.518 259.22147108,276.07 267.36627108,276.5524 275.64957108,276.9727 284.06137107999996,277.3384 292.57447107999997,277.6535 301.16087108,277.9108 309.80477108,278.1022 318.50567108,278.22049999999996 327.27357108,278.2631 336.11967108,278.2303 345.05427108,278.1221 354.08607107999995,277.9397 363.21817108,277.6875 372.44467108,277.37109999999996 381.74897108000005,276.9962 391.11117108,276.56239999999997 400.52247108,276.06539999999995 409.98877108,275.50039999999996 419.52777108000004,274.8666 429.14997108,274.1704 438.84747108,273.42089999999996 448.59257108,272.62606 458.35277108,271.78319999999997 468.10677108,270.88624999999996 477.84737108,269.92836 487.58187108,268.90337 497.33527108,267.80424 507.15167107999997,266.62082999999996 517.08947108,265.35003 527.18087108,264.00855 537.39907108,262.62441 547.65277108,261.2256 557.85517108,259.80469999999997 567.99267108,258.3379 578.12477108,256.79612 588.3343710800001,255.17505 598.65847108,253.48771 609.07187108,251.75637999999998 619.51237108,249.99146 629.94837108,248.18801 640.3945710800001,246.33414999999997 650.89117108,244.42539999999997 661.45457108,242.46936 672.06277108,240.48003 682.67277108,238.46378999999996 693.26307108,236.41588 703.84377108,234.32694999999998 714.43977108,232.195 725.0632710799999,230.02510999999998 735.70757108,227.82608 746.34967108,225.60972999999998 756.95197108,223.39079999999998 767.46767108,221.18165 777.85977108,218.98489999999998 788.11147108,216.79908999999998 798.21157108,214.62792 808.12607108,212.48433 817.80127108,210.38894 827.20427108,208.37178 836.34567108,206.45349 845.25507108,204.63057999999998 853.9380710800001,202.87731999999997 862.37147108,201.17512 870.51807108,199.51794999999998 878.34027108,197.90749 885.80857108,196.35215999999997 892.93257108,194.89708 899.76967108,193.58489999999998 906.3966710799999,192.43104999999997 912.86417108,191.38296999999997 919.17817108,190.37811999999997 925.31717108,189.37725999999998 931.2640710799999,188.39789 937.01727108,187.46820999999997 942.58397108,186.60447 947.96657108,185.80012999999997 953.1615710799999,185.04560999999998 958.1638710799999,184.33616999999998 962.97437108,183.67459999999997 967.59917108,183.06309 972.04537108,182.50228499999997 976.31777108,181.991852 980.4232710800001,181.532166 984.38087108,181.134267 988.21277108,180.811256 991.90807108,180.524565 995.42527108,180.172746 998.88817108,179.85548599999998 1002.40407108,179.71069699999998 1004.5001710800001,177.884179 1003.99917108,172.71949999999998" stroke="black" stroke-width="2.0" /></svg>