<?xml version="1.0" encoding="utf-8" ?>
<svg baseProfile="full" height="162.03658000000001" version="1.1" width="1011.995845673" xmlns="http://www.w3.org/2000/svg" xmlns:ev="http://www.w3.org/2001/xml-events" xmlns:xlink="http://www.w3.org/1999/xlink"><defs /><polygon fill="none" points="1003.995845673,79.01829000000001 999.834945673,78.6284329 994.784345673,78.1638532 989.4445456729999,77.70381 983.787545673,77.245373 977.797945673,76.774358 971.4879456729999,76.275294 964.893945673,75.740633 958.054245673,75.16417000000001 950.993545673,74.537165 943.7116456729999,73.85307200000001 936.204145673,73.117953 928.487545673,72.343641 920.609245673,71.54732000000001 912.651445673,70.74795200000001 904.711445673,69.94662000000001 896.866145673,69.135896 889.1631456729999,68.30692 881.622945673,67.44996 874.244345673,66.55930000000001 867.012945673,65.66495 859.9167456729999,64.81091 852.949645673,64.03240000000001 846.1114456729999,63.308890000000005 839.397145673,62.588260000000005 832.7930456729999,61.82213000000001 826.277545673,60.986900000000006 819.826345673,60.118520000000004 813.424745673,59.261480000000006 807.067545673,58.45920000000001 800.759645673,57.72962000000001 794.509745673,57.03708 788.318645673,56.340120000000006 782.179545673,55.59850000000001 776.0779456729999,54.782410000000006 769.9961456729999,53.91062000000001 763.9282456729999,53.01778 757.8824456729999,52.14012000000001 751.8805456729999,51.31415000000001 745.954945673,50.54608 740.129445673,49.79834000000001 734.406545673,49.03105000000001 728.771145673,48.20555 723.1943456729999,47.283220000000014 717.6327456729999,46.250530000000005 712.038745673,45.133570000000006 706.3719456729999,43.96291000000001 700.598245673,42.77300000000001 694.690945673,41.604560000000006 688.6355456729999,40.488620000000004 682.4326456729999,39.40834000000001 676.087345673,38.33460000000001 669.6085456729999,37.23444000000001 663.009145673,36.07129000000001 656.3017456729999,34.82780000000001 649.485945673,33.528830000000006 642.5477456729999,32.20492000000001 635.457145673,30.887380000000007 628.162445673,29.605250000000012 620.605545673,28.354160000000007 612.7496456729999,27.111360000000012 604.600445673,25.855970000000006 596.230745673,24.573670000000007 587.7604456729999,23.281610000000008 579.272445673,22.010960000000004 570.7823456729999,20.78305000000001 562.238645673,19.606280000000005 553.570845673,18.463280000000005 544.7622456729999,17.333270000000006 535.872645673,16.203550000000014 527.033445673,15.080700000000007 518.345345673,14.00106000000001 509.810845673,12.992170000000016 501.35064567300003,12.069600000000008 492.833945673,11.22714000000002 484.167445673,10.435910000000007 475.34524567299997,9.672190000000015 466.47084567300004,8.920500000000018 457.709245673,8.197300000000013 449.140345673,7.534780000000012 440.736545673,6.953800000000015 432.391145673,6.465090000000004 423.97944567300004,6.048800000000014 415.442445673,5.674369999999996 406.811045673,5.313630000000003 398.21034567300006,4.950320000000005 389.762345673,4.611930000000001 381.489145673,4.331120000000013 373.325445673,4.134309999999999 365.145745673,4.032120000000006 356.843245673,4.0 348.387745673,4.007940000000005 339.847645673,4.023620000000008 331.367645673,4.041390000000007 323.035645673,4.091510000000014 314.83814567300004,4.203890000000001 306.67984567300005,4.404500000000013 298.44114567300005,4.686480000000003 290.06894567300003,5.0229499999999945 281.608645673,5.3809200000000175 273.201145673,5.7385300000000115 264.958545673,6.118670000000009 256.88314567299994,6.552360000000007 248.88844567299998,7.070370000000011 240.855745673,7.672870000000003 232.736045673,8.332930000000005 224.583445673,9.013630000000006 216.541245673,9.68974 208.71024567299997,10.382960000000011 201.080945673,11.125370000000018 193.565045673,11.948490000000007 186.06704567299997,12.848730000000003 178.573845673,13.798550000000006 171.16684567299998,14.759160000000008 163.977045673,15.71115000000001 157.066445673,16.671290000000006 150.412545673,17.663460000000008 143.94684567299998,18.707260000000005 137.61964567299998,19.78986000000001 131.44374567300002,20.88374000000001 125.478945673,21.956250000000004 119.794845673,22.99643000000001 114.411845673,24.022560000000006 109.304345673,25.055710000000005 104.42574567300001,26.11529000000001 99.729845673,27.19964000000001 95.196805673,28.28932000000001 90.83109567300001,29.362770000000005 86.65009567300001,30.398950000000013 82.673655673,31.392000000000003 78.906865673,32.354670000000006 75.33848567300001,33.300430000000006 71.949485673,34.241440000000004 68.718215673,35.18744000000001 65.62369567299999,36.13709000000001 62.652195673,37.08288000000001 59.796585673,38.01718000000001 57.053585673,38.93274000000001 54.421915673,39.82321000000001 51.902115673,40.68873000000001 49.493135673,41.53623000000001 47.190205673,42.37250000000001 44.986515673,43.20371000000001 42.874405673,44.035360000000004 40.845925672999996,44.872060000000005 38.891705673,45.712830000000004 37.003545673,46.55268000000001 35.175955673000004,47.38656000000001 33.40532567300001,48.209590000000006 31.689345673000002,49.017210000000006 30.026535673,49.80534 28.418625673000005,50.575 26.870375673,51.334720000000004 25.384245673,52.09291000000001 23.960735673000002,52.85714 22.599125673,53.634220000000006 21.297995673,54.43041000000001 20.054635673,55.25032000000001 18.859885673,56.08917000000001 17.703445673,56.93829000000001 16.576925672999998,57.78939000000001 15.473485673,58.63449000000001 14.387515673000001,59.46601000000001 13.314593673,60.27687 12.259103673,61.06848000000001 11.238471673,61.85642000000001 10.268402673,62.65666000000001 9.361898672999999,63.48409000000001 8.530026673,64.35287000000001 7.7817956729999995,65.27562 7.116308673,66.25178000000001 6.527654673,67.27279000000001 6.011013673,68.33027000000001 5.562434673,69.41592700000001 5.178590673,70.52136100000001 4.856499273,71.63831300000001 4.592468573,72.76257000000001 4.382308073,73.892678 4.221918673,75.027337 4.107308573,76.165361 4.034594363,77.30566800000001 4.0,78.4472772 4.0,79.58930280000001 4.034594363,80.730912 4.107308573,81.87121900000001 4.221918673,83.00924300000001 4.382308073,84.14390200000001 4.592468573,85.27401 4.856499273,86.398267 5.178590673,87.515219 5.562434673,88.620653 6.011013673,89.70631 6.527654673,90.76379000000001 7.116308673,91.7848 7.7817956729999995,92.76096000000001 8.530026673,93.68371 9.361898672999999,94.55249 10.268402673,95.37992 11.238471673,96.18016 12.259103673,96.9681 13.314593673,97.75971000000001 14.387515673000001,98.57057 15.473485673,99.40209000000002 16.576925672999998,100.24719 17.703445673,101.09829 18.859885673,101.94741 20.054635673,102.78626 21.297995673,103.60617 22.599125673,104.40236000000002 23.960735673000002,105.17944000000001 25.384245673,105.94367 26.870375673,106.70186000000001 28.418625673000005,107.46158000000001 30.026535673,108.23124000000001 31.689345673000002,109.01937000000001 33.40532567300001,109.82699000000001 35.175955673000004,110.65002000000001 37.003545673,111.4839 38.891705673,112.32375000000002 40.845925672999996,113.16452000000001 42.874405673,114.00122000000002 44.986515673,114.83287000000001 47.190205673,115.66408000000001 49.493135673,116.50035 51.902115673,117.34785000000001 54.421915673,118.21337 57.053585673,119.10384 59.796585673,120.0194 62.652195673,120.9537 65.62369567299999,121.89949000000001 68.718215673,122.84914 71.949485673,123.79514 75.33848567300001,124.73615000000001 78.906865673,125.68191000000002 82.673655673,126.64458000000002 86.65009567300001,127.63763 90.83109567300001,128.67381 95.196805673,129.74726 99.729845673,130.83694 104.42574567300001,131.92129 109.304345673,132.98087 114.411845673,134.01402000000002 119.794845673,135.04015 125.478945673,136.08033 131.44374567300002,137.15284 137.61964567299998,138.24672 143.94684567299998,139.32932 150.412545673,140.37312 157.066445673,141.36529000000002 163.977045673,142.32543 171.16684567299998,143.27742 178.573845673,144.23803 186.06704567299997,145.18785000000003 193.565045673,146.08809000000002 201.080945673,146.91120999999998 208.71024567299997,147.65362 216.541245673,148.34684000000001 224.583445673,149.02295 232.736045673,149.70365 240.855745673,150.36371000000003 248.88844567299998,150.96621 256.88314567299994,151.48422 264.958545673,151.91791 273.201145673,152.29805 281.608645673,152.65566 290.06894567300003,153.01363000000003 298.44114567300005,153.3501 306.67984567300005,153.63208 314.83814567300004,153.83269 323.035645673,153.94507 331.367645673,153.99519 339.847645673,154.01296000000002 348.387745673,154.02864 356.843245673,154.03658000000001 365.145745673,154.00446 373.325445673,153.90227000000002 381.489145673,153.70546000000002 389.762345673,153.42465 398.21034567300006,153.08626 406.811045673,152.72295000000003 415.442445673,152.36221 423.97944567300004,151.98778 432.391145673,151.57149 440.736545673,151.08278 449.140345673,150.5018 457.709245673,149.83928 466.47084567300004,149.11608 475.34524567299997,148.36439000000001 484.167445673,147.60067 492.833945673,146.80944 501.35064567300003,145.96698 509.810845673,145.04441 518.345345673,144.03552000000002 527.033445673,142.95588 535.872645673,141.83303 544.7622456729999,140.70331000000002 553.570845673,139.57330000000002 562.238645673,138.43030000000002 570.7823456729999,137.25353 579.272445673,136.02562 587.7604456729999,134.75497000000001 596.230745673,133.46291000000002 604.600445673,132.18061 612.7496456729999,130.92522 620.605545673,129.68242 628.162445673,128.43133 635.457145673,127.14920000000001 642.5477456729999,125.83166 649.485945673,124.50775000000002 656.3017456729999,123.20878 663.009145673,121.96529000000001 669.6085456729999,120.80214000000001 676.087345673,119.70198 682.4326456729999,118.62824 688.6355456729999,117.54796000000002 694.690945673,116.43202000000001 700.598245673,115.26358 706.3719456729999,114.07367 712.038745673,112.90301000000001 717.6327456729999,111.78605000000002 723.1943456729999,110.75336 728.771145673,109.83103000000001 734.406545673,109.00553000000001 740.129445673,108.23824 745.954945673,107.49050000000001 751.8805456729999,106.72243 757.8824456729999,105.89646 763.9282456729999,105.01880000000001 769.9961456729999,104.12596 776.0779456729999,103.25417000000002 782.179545673,102.43808000000001 788.318645673,101.69646 794.509745673,100.99950000000001 800.759645673,100.30696 807.067545673,99.57738 813.424745673,98.77510000000001 819.826345673,97.91806000000001 826.277545673,97.04968000000001 832.7930456729999,96.21445 839.397145673,95.44832000000001 846.1114456729999,94.72769000000001 852.949645673,94.00418 859.9167456729999,93.22567000000001 867.012945673,92.37163000000001 874.244345673,91.47728000000001 881.622945673,90.58662000000001 889.1631456729999,89.72966000000001 896.866145673,88.90068400000001 904.711445673,88.08996 912.651445673,87.288628 920.609245673,86.48926 928.487545673,85.69293900000001 936.204145673,84.91862700000001 943.7116456729999,84.183508 950.993545673,83.49941500000001 958.054245673,82.87241 964.893945673,82.29594700000001 971.4879456729999,81.76128600000001 977.797945673,81.26222200000001 983.787545673,80.79120700000001 989.4445456729999,80.33277000000001 994.784345673,79.87272680000001 999.834945673,79.40814710000001 1003.995845673,79.01829000000001" stroke="black" stroke-width="2.0" /></svg>