<?xml version="1.0" encoding="utf-8" ?>
<svg baseProfile="full" height="189.88545999999997" version="1.1" width="1012.002263392" xmlns="http://www.w3.org/2000/svg" xmlns:ev="http://www.w3.org/2001/xml-events" xmlns:xlink="http://www.w3.org/1999/xlink"><defs /><polygon fill="none" points="1004.002263392,165.97529999999998 1000.260363392,164.689463 995.700063392,163.12421299999997 990.863163392,161.46827899999997 985.7394633920001,159.71630999999996 980.324563392,157.855574 974.612763392,155.89466999999996 968.606563392,153.83830999999998 962.318463392,151.68097999999998 955.762363392,149.42627999999996 948.952463392,147.08811999999998 941.906863392,144.67703999999998 934.651863392,142.19965999999997 927.2199633920001,139.66349999999997 919.641763392,137.07433999999998 911.9389633920001,134.43604999999997 904.1275633920001,131.75690999999998 896.226463392,129.04783999999998 888.257563392,126.31626999999997 880.2388633920001,123.56409999999997 872.1801633919999,120.79163999999997 864.084363392,118.00337999999996 855.9521633920001,115.20516999999998 847.784463392,112.40081999999998 839.585163392,109.59031999999998 831.360963392,106.77396999999996 823.1210633920001,103.95308999999997 814.873663392,101.12916999999997 806.6247633920001,98.30293999999998 798.378163392,95.47458999999998 790.1361633920001,92.64444999999998 781.9014633920001,89.81288999999998 773.676463392,86.98030999999997 765.463463392,84.14719999999997 757.2645633920001,81.31402999999997 749.081663392,78.48133999999997 740.916663392,75.65139999999998 732.773163392,72.82840999999998 724.6568633920001,70.01730999999997 716.575663392,67.22358999999997 708.5378633920001,64.45239999999998 700.5506633919999,61.70839999999998 692.6198633920001,58.99549999999998 684.750363392,56.317599999999985 676.946763392,53.67889999999997 669.213963392,51.08319999999998 661.5569633920001,48.53449999999998 653.9803633920001,46.03699999999998 646.488763392,43.59589999999997 639.0867633920001,41.215899999999976 631.778463392,38.90109999999997 624.567563392,36.65599999999998 617.454363392,34.48559999999998 610.435763392,32.39349999999999 603.505463392,30.38179999999997 596.655463392,28.451699999999988 589.876763392,26.603199999999987 583.1605633920001,24.835699999999974 576.498263392,23.14869999999999 569.881263392,21.542 563.3010633920001,20.01509999999996 556.749763392,18.56639999999996 550.219663392,17.19429999999997 543.7031633920001,15.897299999999973 537.192463392,14.674399999999991 530.679663392,13.524399999999986 524.158063392,12.445099999999968 517.622763392,11.433899999999994 511.070763392,10.489199999999983 504.501263392,9.609399999999965 497.91516339199995,8.793699999999973 491.31446339199994,8.04159999999996 484.70116339199996,7.353199999999987 478.077863392,6.728399999999965 471.44686339199995,6.166799999999995 464.810763392,5.668499999999966 458.171963392,5.2339999999999804 451.531863392,4.863999999999976 444.89156339199997,4.559099999999972 438.251063392,4.319899999999961 431.60986339199997,4.146799999999985 424.966863392,4.040099999999967 418.32056339199994,4.0 411.669263392,4.026999999999987 405.01046339199996,4.1214999999999975 398.341463392,4.2835999999999785 391.65946339199996,4.512999999999977 384.961463392,4.808899999999994 378.24466339199995,5.1711999999999705 371.50616339199996,5.599399999999974 364.74336339199994,6.092899999999958 357.955063392,6.650099999999981 351.142563392,7.269299999999959 344.309563392,7.948299999999989 337.4621633919999,8.684999999999974 330.60766339199995,9.4786 323.752463392,10.328799999999973 316.901663392,11.235499999999973 310.058963392,12.198399999999992 303.226663392,13.21769999999998 296.406663392,14.293399999999963 289.600263392,15.425799999999981 282.80846339199996,16.61499999999998 276.03186339199993,17.861099999999965 269.27136339199996,19.163899999999956 262.52856339199997,20.52249999999998 255.80616339200003,21.93599999999998 249.10806339200002,23.403099999999966 242.438463392,24.922999999999973 235.801363392,26.49539999999999 229.200263392,28.119799999999998 222.637963392,29.795799999999957 216.117263392,31.522899999999964 209.64026339199998,33.300599999999974 203.209263392,35.128299999999996 196.826263392,37.00539999999998 190.493463392,38.93079999999998 184.214863392,40.90269999999997 177.996363392,42.91819999999997 171.845663392,44.973899999999986 165.77176339200003,47.06649999999998 159.782263392,49.19439999999997 153.882463392,51.35659999999997 148.075063392,53.55249999999997 142.361663392,55.78099999999998 136.745763392,58.038599999999974 131.23326339200003,60.32079999999998 125.83256339200001,62.621699999999976 120.552963392,64.93559999999998 115.402663392,67.25881999999999 110.387063392,69.58790999999998 105.50926339200001,71.92011999999997 100.770663392,74.25195999999997 96.17344339200001,76.57785999999999 91.72126339200001,78.89124999999999 87.418233392,81.18516999999997 83.268563392,83.45351999999997 79.276043392,85.69240999999998 75.442613392,87.89861999999998 71.768253392,90.06942999999997 68.251263392,92.20277999999998 64.889083392,94.29803999999997 61.67762339200001,96.35558999999998 58.61140339200001,98.37630999999998 55.684103392000004,100.36141999999998 52.888803392,102.31199999999997 50.21847339200001,104.22732999999997 47.66730339200001,106.10576999999998 45.230413392,107.94545999999997 42.903393392000005,109.74459999999998 40.682093392,111.50172999999998 38.563503392,113.21726999999998 36.544433392,114.89325999999997 34.620773392000004,116.53212999999997 32.787873391999995,118.13646999999997 31.040893392,119.70888999999997 29.374883391999997,121.25183999999997 27.784133392,122.76626999999996 26.263263392,124.25200999999997 24.807803392,125.70861999999997 23.413953392,127.13552999999997 22.078343392,128.53213 20.797973392,129.89792999999997 19.571613392,131.23366 18.401093392,132.54276 17.287663392,133.82887999999997 16.231693391999997,135.09545999999997 15.232973392,136.34572999999997 14.290863392,137.58262999999997 13.404470391999999,138.80888 12.572248392,140.02618999999999 11.791719392000001,141.23469999999998 11.060484392,142.43445999999997 10.376332391999998,143.62557999999999 9.737233392,144.80822999999998 9.141322392,145.98263999999998 8.586892392,147.14905999999996 8.072367392,148.30774999999997 7.595903392,149.45847999999998 7.155396392,150.60030999999998 6.7489773920000005,151.73205 6.374977392,152.85242999999997 6.031868392,153.96004999999997 5.718221392,155.05348999999998 5.432677392,156.13134099999996 5.173920391999999,157.19220399999998 4.940726992,158.23484799999997 4.732836492,159.25955299999998 4.550581392,160.26809799999998 4.394110792,161.26267099999998 4.263462792,162.245716 4.158643092,163.21986399999997 4.079689022,164.18788299999997 4.026721842,165.15266989999998 4.0,166.11724929999997 4.003479362,167.08169699999996 4.050255762,168.03829599999997 4.154814692,168.97830799999997 4.331886792,169.89306999999997 4.596809892,170.77377799999996 4.965924692,171.61126499999997 5.4544273919999995,172.39639699999998 6.057023392,173.12460399999998 6.757650392,173.79310699999996 7.539595392,174.39818699999998 8.384992392000001,174.93510199999997 9.278551391999999,175.402371 10.215727392,175.81049599999997 11.193358392,176.17323999999996 12.207383391999999,176.50601999999998 13.252533392,176.82627999999997 14.322473392,177.15259999999998 15.415053392,177.49032999999997 16.531683391999998,177.83486999999997 17.674233391999998,178.18085999999997 18.845103392,178.52227999999997 20.047363391999998,178.85241999999997 21.284963392,179.16375999999997 22.561983392,179.45077999999998 23.881143392000002,179.71409999999997 25.244953392000003,179.95544999999998 26.655903392,180.17689 28.116353392,180.38084999999998 29.628343391999998,180.57031999999998 31.193373392,180.74890999999997 32.813103392,180.91849999999997 34.490193391999995,181.07822 36.22763339200001,181.22691999999998 38.028833392,181.36338999999998 39.897763392,181.48628999999997 41.83922339200001,181.59417999999997 43.859063392,181.68562999999997 45.96406339200001,181.76001999999997 48.161673392000004,181.81710999999999 50.460063392,181.85685999999998 52.868103392,181.87944 55.39523339200001,181.88545999999997 58.05132339200001,181.87570999999997 60.847013392,181.85000999999997 63.793843392,181.80795999999998 66.904063392,181.74949999999998 70.19061339200002,181.67506999999998 73.667013392,181.58544999999998 77.34716339200001,181.47945999999996 81.24547339200001,181.35447999999997 85.377253392,181.20743999999996 89.75959339200001,181.03474999999997 94.41247339200001,180.83384999999998 99.356203392,180.60495999999998 104.60776339200001,180.34994999999998 110.177463392,180.07260999999997 116.06566339199999,179.77533999999997 122.26326339200001,179.45785999999998 128.75436339200002,179.12006999999997 135.519563392,178.76148999999998 142.537663392,178.38015 149.788163392,177.97331999999997 157.256163392,177.53875999999997 164.93006339200002,177.08088999999998 172.79386339200002,176.60765999999998 180.825263392,176.12761999999998 188.99776339200002,175.64317599999998 197.28606339200002,175.15342399999997 205.668963392,174.65717299999997 214.128363392,174.154814 222.645363392,173.64785999999998 231.199363392,173.138052 239.77146339200002,172.62862599999997 248.35126339200002,172.123609 256.938463392,171.626423 265.540763392,171.13793699999997 274.16356339199996,170.65596899999997 282.804663392,170.17846699999998 291.454663392,169.70436199999997 300.102963392,169.235122 308.74396339199996,168.77256899999998 317.377363392,168.31817199999998 326.00686339199996,167.87240799999998 334.63616339199996,167.43507599999998 343.267663392,167.00602099999998 351.90246339199996,166.58508379999998 360.54086339199995,166.171858 369.18216339199995,165.76590219999997 377.824863392,165.36681799999997 386.46666339199993,164.97456499999998 395.105963392,164.58954599999998 403.741463392,164.21216499999997 412.37306339199995,163.84277799999998 421.00076339199995,163.48163399999999 429.625063392,163.12891999999997 438.24676339199993,162.784812 446.86686339199997,162.449438 455.485963392,162.12272899999996 464.10376339199996,161.80458499999997 472.719563392,161.494938 481.331463392,161.19389299999997 489.93856339199993,160.90191899999996 498.541163392,160.61949099999998 507.140963392,160.34703399999998 515.740663392,160.08462899999998 524.3422633920001,159.83193799999998 532.945763392,159.588643 541.5497633919999,159.35449599999998 550.151963392,159.129643 558.752263392,158.91449599999999 567.352963392,158.70941599999998 575.959363392,158.51456499999998 584.576363392,158.328952 593.204363392,158.15111999999996 601.8384633920001,157.97970699999996 610.469163392,157.81409099999996 619.087963392,157.65602099999998 627.693463392,157.507638 636.2915633920001,157.37091799999996 644.893163392,157.24627399999997 653.506763392,157.13186899999997 662.1338633920001,157.02576999999997 670.769463392,156.92629499999998 679.4051633920001,156.83370799999997 688.036363392,156.74934699999997 696.663463392,156.674503 705.291763392,156.60985099999996 713.9272633920001,156.55459299999998 722.574863392,156.50772999999998 731.2376633920001,156.468204 739.916263392,156.43423499999997 748.605963392,156.40361 757.296563392,156.37409899999997 765.974163392,156.34333199999998 774.6288633920001,156.30874199999997 783.258163392,156.26777499999997 791.865463392,156.21884699999998 800.453563392,156.16270899999998 809.0195633920001,156.10047899999998 817.555163392,156.03375099999997 826.048663392,155.96552999999997 834.485663392,155.89902999999998 842.8502633920001,155.83718999999996 851.1243633920001,155.78228 859.288063392,155.73631999999998 867.3209633920001,155.70226999999997 875.2073633919999,155.68526999999997 882.9380633920001,155.69001999999998 890.5073633920001,155.71979999999996 897.9065633920001,155.77638999999996 905.122763392,155.86117 912.1437633920001,155.97861399999996 918.9638633920001,156.13472599999997 925.583963392,156.334275 932.008663392,156.58130799999998 938.244563392,156.87900399999998 944.299163392,157.22928 950.177663392,157.63237599999997 955.8818633920001,158.08792599999998 961.413763392,158.59874099999996 966.7808633920001,159.16985899999997 971.9953633920001,159.80365899999998 977.066763392,160.49659699999998 981.999363392,161.24458899999996 986.794863392,162.04594399999996 991.453763392,162.898769 995.980063392,163.80014699999998 1000.3761633920001,164.78196299999996 1004.002263392,165.97529999999998" stroke="black" stroke-width="2.0" /></svg>