<?xml version="1.0" encoding="utf-8" ?>
<svg baseProfile="full" height="183.75747" version="1.1" width="1012.0007016724" xmlns="http://www.w3.org/2000/svg" xmlns:ev="http://www.w3.org/2001/xml-events" xmlns:xlink="http://www.w3.org/1999/xlink"><defs /><polygon fill="none" points="1004.0007016724,145.9455 1002.1176016724,144.243042 999.3734016724001,143.645801 996.5775016724001,142.877509 993.7177016724,141.957988 990.5942016724001,141.090912 987.1188016724001,140.206058 983.2668016724001,139.18498400000001 979.0252016724,138.01508800000002 974.3683016724001,136.738631 969.2774016724001,135.36947 963.7785016724001,133.89396000000002 957.9442016724001,132.3129 951.8661016724001,130.64723 945.6228016724001,128.91559 939.2711016724,127.12849000000001 932.8461016724001,125.29049 926.3625016724001,123.40447 919.8320016724001,121.47565 913.2692016724001,119.50999000000002 906.6860016724,117.51153000000001 900.0859016724,115.48146000000001 893.4637016724,113.41902 886.8133016724,111.32529000000001 880.1356016724001,109.20402000000001 873.4389016724001,107.06099 866.7340016724,104.90008 860.0255016724001,102.72265000000002 853.3110016724,100.52790000000002 846.5838016724001,98.31487000000001 839.8391016724,96.08415000000001 833.0762016724,93.83770000000001 826.2982016724001,91.57849000000002 819.5103016724,89.30915000000002 812.7171016724001,87.03195000000001 805.9226016724,84.74901000000001 799.1305016724001,82.46171000000001 792.3434016724,80.1705 785.5635016724001,77.8755 778.7918016724,75.57656 772.0280016724,73.27515000000001 765.2718016724,70.97498000000002 758.5236016724001,68.68017000000002 751.7849016724001,66.39507 745.0578016724,64.12368000000001 738.3460016724,61.86919 731.6536016724001,59.63488000000001 724.9851016724,57.424120000000016 718.3457016724001,55.24065 711.7384016724001,53.08895000000001 705.1635016724,50.972650000000016 698.6182016724,48.894340000000014 692.0973016724,46.85568000000002 685.5941016724,44.856700000000004 679.1025016724001,42.89660000000001 672.6173016724001,40.974800000000016 666.1338016724001,39.09100000000001 659.6482016724001,37.24520000000001 653.1578016724001,35.43700000000001 646.6624016724,33.6665 640.1642016724,31.93430000000002 633.6672016724001,30.241500000000002 627.1778016724,28.590100000000007 620.7016016724001,26.983400000000003 614.2418016724,25.424000000000007 607.7988016724,23.914100000000005 601.3704016724,22.45520000000002 594.9525016724001,21.048000000000016 588.5407016724,19.692300000000003 582.1326016724001,18.3883 575.7267016724,17.13620000000003 569.3235016724001,15.937000000000012 562.9246016724001,14.791600000000017 556.5319016724001,13.701400000000007 550.1462016724,12.667399999999986 543.7675016724,11.690699999999993 537.3945016724001,10.77200000000002 531.0252016724,9.912000000000006 524.6572016724,9.110500000000002 518.2885016724,8.367700000000013 511.9172016724,7.683400000000006 505.5421016724,7.0578000000000145 499.1619016724,6.4912000000000205 492.77570167240003,5.983400000000017 486.3829016724,5.53400000000002 479.9826016724,5.142799999999994 473.5741016724,4.809699999999992 467.15680167240004,4.53430000000003 460.7299016724,4.3163000000000125 454.2925016724,4.155000000000001 447.84350167239995,4.049800000000005 441.3816016724,4.0 434.90500167240003,4.0052000000000305 428.4121016724,4.064400000000006 421.9022016724,4.176600000000008 415.3753016724,4.340599999999995 408.8329016724,4.5552000000000135 402.2775016724,4.819099999999992 395.7122016724,5.1314000000000135 389.1397016724,5.491600000000005 382.5619016724,5.8992000000000075 375.9801016724,6.353700000000032 369.3947016724,6.85450000000003 362.8059016724,7.401199999999989 356.21430167240004,7.993500000000012 349.6210016724,8.630799999999994 343.0278016724,9.3125 336.4370016724,10.038000000000011 329.85090167239997,10.807299999999998 323.2712016724,11.620200000000011 316.69920167239997,12.476800000000026 310.1356016724,13.377200000000016 303.58050167240003,14.321400000000011 297.03410167239997,15.309600000000017 290.49680167239995,16.34190000000001 283.9690016724,17.418199999999985 277.4513016724,18.53870000000002 270.9444016724,19.703400000000016 264.4492016724,20.912400000000005 257.96630167240005,22.165700000000015 251.49660167239998,23.463300000000004 245.04110167239998,24.805300000000003 238.6008016724,26.1918 232.1769016724,27.622800000000012 225.77080167239998,29.098400000000012 219.3840016724,30.61850000000001 213.0184016724,32.18350000000001 206.6760016724,33.79350000000001 200.3589016724,35.4487 194.0695016724,37.149100000000004 187.8096016724,38.8952 181.5803016724,40.68780000000001 175.3810016724,42.52800000000002 169.2104016724,44.41720000000001 163.0675016724,46.356150000000014 156.9538016724,48.344690000000014 150.87350167239998,50.381630000000015 144.83350167240002,52.465090000000004 138.8411016724,54.59436000000001 132.9011016724,56.769880000000015 127.0157016724,58.99291000000001 121.18460167239999,61.26521000000001 115.40870167239999,63.587620000000015 109.6915016724,65.95971000000002 104.03900167239999,68.37983000000001 98.4596216724,70.84601 92.9616016724,73.35650000000001 87.5527016724,75.9093 82.2404616724,78.50223000000001 77.0353916724,81.13184000000001 71.9516216724,83.79193000000001 67.00551167239999,86.47409 62.2147316724,89.17001000000002 57.5949916724,91.87144 53.158481672399994,94.56995 48.917171672399995,97.25457 44.8889616724,99.9077 41.0931116724,102.50805 37.545511672399996,105.03617 34.2566516724,107.47764000000001 31.227331672400002,109.82207000000001 28.449321672400004,112.06368 25.9103316724,114.19907 23.5970516724,116.22548 21.493831672400002,118.14245000000001 19.583571672399998,119.95285000000001 17.8532216724,121.66487000000001 16.2904016724,123.28738000000001 14.8812016724,124.82829000000001 13.6112606724,126.29484000000001 12.466619672399998,127.69345000000001 11.434051672399999,129.02985 10.5008456724,130.31043 9.655514672399999,131.54159 8.8880826724,132.72933 8.1900486724,133.87899000000002 7.5546886724,134.99513000000002 6.9780086724,136.08007800000001 6.4574596724,137.133708 5.9908496724,138.154573 5.5758126724,139.14082200000001 5.2095806724,140.09081700000002 4.8892674724,141.003488 4.6158463724,141.879345 4.3915992724,142.72213000000002 4.2172376724,143.537633 4.0931243024,144.332448 4.0200878324,145.11351570000002 4.0,145.88814134 4.0361258624,146.6629187 4.1327902724,147.43772700000002 4.2962646723999995,148.208917 4.5351383724,148.970787 4.8604025724,149.71491600000002 5.2850516724,150.42961300000002 5.8141716724,151.1082 6.4419906724,151.752387 7.1602076724,152.364797 7.9576356723999995,152.94872900000001 8.8200456724,153.508281 9.7430416724,154.046645 10.7317406724,154.56645300000002 11.7919516724,155.071395 12.929795672400001,155.56669100000002 14.1513716724,156.05955 15.463791672400001,156.55469000000002 16.876281672399998,157.05191000000002 18.3993516724,157.55069 20.0450516724,158.05069 21.8276616724,158.55198000000001 23.766031672400004,159.05567000000002 25.8842816724,159.56426000000002 28.210721672400002,160.08192000000003 30.7767316724,160.61529000000002 33.6121216724,161.17109000000002 36.7426616724,161.74791000000002 40.1906816724,162.34116 43.9794116724,162.94572 48.1376916724,163.55835000000002 52.6874016724,164.17736000000002 57.630211672399994,164.80147 62.9423616724,165.42656000000002 68.5778516724,166.04402000000002 74.4835516724,166.64709000000002 80.6150316724,167.23092 86.9302616724,167.79144000000002 93.3921716724,168.32657 99.9711116724,168.83542 106.6407016724,169.31803000000002 113.3788016724,169.7752 120.16920167239999,170.20701000000003 127.0015016724,170.61371 133.8724016724,170.99623000000003 140.7813016724,171.35659 147.7250016724,171.69713000000002 154.6963016724,172.02 161.6860016724,172.32600000000002 168.6876016724,172.61505 175.6984016724,172.88727 182.7193016724,173.1431 189.7520016724,173.38340000000002 196.7968016724,173.60906 203.8528016724,173.82091 210.91820167240002,174.01952 217.9913016724,174.20531 225.07060167240002,174.37871 232.1551016724,174.54016000000001 239.24430167239998,174.68998000000002 246.33830167239998,174.82845 253.43750167239997,174.95586 260.5433016724,175.07256 267.6563016724,175.17912 274.7765016724,175.27616 281.9021016724,175.36429 289.0304016724,175.44403 296.1583016724,175.51523 303.28410167239997,175.57755 310.4077016724,175.63067 317.53020167240004,175.67429 324.6539016724,175.70849 331.7802016724,175.73357000000001 338.9098016724,175.7498 346.0426016724,175.75747 353.1780016724,175.75677000000002 360.3149016724,175.74781000000002 367.45280167239997,175.73068 374.5911016724,175.7055 381.72960167239995,175.67233000000002 388.86810167240003,175.63118 396.0062016724,175.582 403.1436016724,175.52476000000001 410.2797016724,175.45944 417.4142016724,175.38593 424.54650167240004,175.30407000000002 431.6764016724,175.21368 438.80360167239996,175.11459000000002 445.9280016724,175.00661000000002 453.0493016724,174.8895 460.1672016724,174.763 467.28120167239996,174.62684000000002 474.3906016724,174.48077 481.49470167239997,174.32446000000002 488.59320167239997,174.15746000000001 495.6866016724,173.97931 502.77570167240003,173.78952 509.8624016724,173.58766 516.9484016724001,173.37372000000002 524.0355016724001,173.14789000000002 531.1251016724001,172.91034000000002 538.2181016724,172.66127 545.3153016724,172.40091 552.4168016724,172.12962000000002 559.5218016724,171.84784000000002 566.6285016724,171.55603000000002 573.7344016724,171.25465 580.8366016724,170.94366000000002 587.9329016724,170.62261 595.0221016724001,170.291 602.1041016724,169.94830000000002 609.1797016724,169.59398000000002 616.2495016724001,169.22767000000002 623.3135016724001,168.84910000000002 630.3706016724001,168.45802 637.4189016724001,168.05422000000002 644.4557016724001,167.63705000000002 651.4783016724,167.20545 658.4843016724001,166.75838000000002 665.4712016724001,166.29482000000002 672.4369016724,165.81366 679.3809016724,165.31337000000002 686.3048016724,164.79218 693.2129016724001,164.24817000000002 700.1118016724,163.6793 707.0089016724,163.08486000000002 713.9107016724001,162.46511 720.8215016724001,161.82037 727.7437016724001,161.15115 734.6786016724001,160.45842000000002 741.6282016724,159.74359 748.5969016724001,159.00788 755.5908016724001,158.25230000000002 762.6177016724,157.47840000000002 769.6803016724001,156.68987 776.7718016724001,155.891758 783.8751016724,155.09043 790.9653016724001,154.29324 798.0218016724001,153.50705200000002 805.0346016724001,152.73736000000002 812.0041016724001,151.988304 818.9369016724,151.262378 825.8388016724001,150.56138900000002 832.7123016724,149.887414 839.5570016724001,149.242796 846.3717016724,148.63011500000002 853.1568016724,148.051804 859.9143016724001,147.51006600000002 866.6482016724001,147.00646700000001 873.3629016724001,146.5417978 880.0641016724,146.1168237 886.7573016724001,145.731984 893.4448016724,145.3864838 900.1207016724001,145.0795491 906.7723016724001,144.81111900000002 913.3841016724,144.583717 919.9444016724001,144.40021800000002 926.4444016724,144.262563 932.8727016724001,144.17082200000002 939.2105016724,144.124391 945.4286016724001,144.122653 951.4741016724,144.16465100000002 957.2782016724001,144.24851 962.7899016724001,144.37668100000002 967.9962016724,144.55085200000002 972.8894016724001,144.756324 977.4152016724,144.9629453 981.5184016724,145.1621098 985.2035016724001,145.39805990000002 988.5176016724001,145.69746370000001 991.5154016724,145.98944268 994.2701016724001,146.1618062 996.8775016724001,146.21640140000002 999.4584016724001,146.4909695 1001.9859016724,146.99070500000002 1004.0007016724,145.9455" stroke="black" stroke-width="2.0" /></svg>