<?xml version="1.0" encoding="utf-8" ?>
<svg baseProfile="full" height="184.17615" version="1.1" width="1011.996337016" xmlns="http://www.w3.org/2000/svg" xmlns:ev="http://www.w3.org/2001/xml-events" xmlns:xlink="http://www.w3.org/1999/xlink"><defs /><polygon fill="none" points="1003.996337016,132.1858 1002.033037016,130.285727 999.045737016,129.361765 995.960537016,128.322817 992.7519370159999,127.253315 989.201037016,126.240871 985.212237016,125.161002 980.804437016,123.940512 976.009037016,122.616715 970.8017370160001,121.21438 965.1627370159999,119.72188 959.143537016,118.14022 952.842837016,116.49195 946.3458370159999,114.79663 939.714537016,113.06494 933.004837016,111.30473 926.261037016,109.52165 919.510837016,107.71787 912.764137016,105.89162 906.020037016,104.04088 899.274337016,102.16336 892.5208370160001,100.25708 885.7534370159999,98.32238000000001 878.9689370159999,96.36063 872.166937016,94.37391 865.348937016,92.36462 858.518037016,90.33562 851.679037016,88.29001 844.837137016,86.22975 837.997037016,84.15604 831.162037016,82.06975 824.334237016,79.97113999999999 817.513837016,77.85965999999999 810.699137016,75.73408 803.886537016,73.59265 797.070637016,71.43441 790.246437016,69.25939 783.4100370159999,67.06796 776.558737016,64.86094 769.6918370159999,62.64098000000001 762.813737016,60.41296 755.9346370159999,58.183629999999994 749.069937016,55.96164 742.2365370159999,53.75699999999999 735.445237016,51.57827999999999 728.700937016,49.43173 722.0020370159999,47.32142 715.3434370159999,45.24956 708.720037016,43.2178 702.1275370159999,41.22802 695.563237016,39.28236 689.024737016,37.38305 682.510637016,35.53196 676.018537016,33.73058999999999 669.545237016,31.980199999999996 663.0870370160001,30.281999999999996 656.639937016,28.6366 650.2002370160001,27.043800000000005 643.765037016,25.5038 637.332037016,24.016900000000007 630.899337016,22.583600000000004 624.4657370159999,21.204400000000007 618.030337016,19.8793 611.591737016,18.6083 605.148637016,17.391800000000003 598.699637016,16.229699999999994 592.243237016,15.122099999999989 585.778337016,14.068399999999997 579.304237016,13.06859999999999 572.820437016,12.122500000000002 566.327137016,11.230000000000004 559.824637016,10.390900000000002 553.313037016,9.605399999999989 546.792637016,8.873100000000008 540.263037016,8.194000000000003 533.723837016,7.5678999999999945 527.174537016,6.994499999999988 520.614337016,6.473199999999991 514.0424370159999,6.003600000000006 507.458037016,5.585099999999983 500.860137016,5.217399999999998 494.247837016,4.899600000000007 487.620737016,4.6311000000000035 480.97883701599994,4.411100000000005 474.32293701599997,4.238599999999991 467.654637016,4.113000000000028 460.97563701599995,4.033600000000007 454.287337016,4.0 447.590337016,4.0116999999999905 440.884437016,4.068299999999994 434.168837016,4.169299999999993 427.44253701599996,4.314099999999996 420.70523701599996,4.501800000000003 413.95773701599995,4.731700000000018 407.20223701599997,5.002900000000011 400.441737016,5.3145000000000095 393.679537016,5.666299999999993 386.917737016,6.057999999999993 380.157337016,6.4898000000000025 373.397837016,6.961699999999993 366.63793701599997,7.473699999999994 359.87613701600003,8.025499999999994 353.112737016,8.616699999999994 346.349037016,9.246799999999993 339.587637016,9.915200000000013 332.832037016,10.621399999999994 326.08493701599997,11.365800000000007 319.34783701599997,12.148600000000002 312.620937016,12.970199999999991 305.90313701599996,13.831299999999999 299.193337016,14.731899999999996 292.49083701599994,15.672299999999993 285.79603701599996,16.65249999999999 279.109737016,17.672299999999993 272.43353701599995,18.731700000000004 265.768937016,19.8309 259.117137016,20.97 252.47933701600002,22.149 245.856337016,23.368300000000005 239.24913701600002,24.628199999999993 232.65853701600003,25.9289 226.085537016,27.270899999999997 219.530937016,28.65440000000001 212.99583701600002,30.07979999999999 206.481437016,31.5475 199.989037016,33.057649999999995 193.520137016,34.61059 187.076537016,36.20671 180.660337016,37.846360000000004 174.27413701600003,39.52976000000001 167.920637016,41.25706000000001 161.602437016,43.02882000000001 155.321537016,44.84577999999999 149.07903701600003,46.70888000000001 142.875637016,48.619060000000005 136.71353701600003,50.576719999999995 130.596537016,52.58148 124.53093701600001,54.63217999999999 118.52393701599999,56.72797 112.58213701599999,58.868750000000006 106.710737016,61.054640000000006 100.91356701599999,63.285799999999995 95.196987016,65.56108 89.57113701600001,67.87724999999999 84.049447016,70.22921 78.648337016,72.61170999999999 73.385317016,75.01865000000001 68.277217016,77.44263000000001 63.341217016,79.87534 58.596727015999996,82.30618 54.062437016000004,84.72247999999999 49.755097016,87.11064999999999 45.691827016,89.45519 41.886137016,91.73993 38.344907016,93.95154 35.071327016,96.08079000000001 32.062627016,98.12035 29.308537016,100.06609 26.794487015999998,101.91862 24.503497015999997,103.68212 22.416177016,105.36188 20.512537016,106.96379 18.774967015999998,108.49441 17.190117016000002,109.95989 15.745847015999999,111.36477 14.430387016000001,112.7128 13.232379016,114.00742 12.141603016,115.25203 11.148681016,116.4509 10.244177016,117.60893 9.419289016,118.73107 8.666170015999999,119.82191 7.978018016,120.88565 7.350217016,121.92563 6.780660016000001,122.943171 6.267951016,123.937765 5.810672016,124.907942 5.407022016,125.851879 5.054669016,126.767841 4.751909416,127.654371 4.499867316,128.511487 4.298794116,129.342152 4.148342216,130.151077 4.048464706,130.94386400000002 4.0,131.7267208 4.0051373,132.5064862 4.066604836,133.288007 4.187576416,134.07198 4.373206016,134.857211 4.630616516,135.640429 4.968716216,136.415607 5.396781016,137.173969 5.916254016,137.911315 6.523345016,138.627019 7.212692016,139.320873 7.977197016,139.993167 8.808426016,140.644871 9.705035016,141.278219 10.671813016,141.896541 11.713957015999998,142.50409 12.836597016,143.10639 14.044147016,143.71062 15.341897015999999,144.32234 16.738427016,144.9427 18.243397016000003,145.57289 19.867457016,146.21476 21.622577016,146.87122 23.523747015999998,147.54533 25.589977016,148.23881 27.842747015999997,148.9535 30.305787016,149.69168 33.004977016,150.45609000000002 35.968397016,151.24814 39.223617016,152.06842 42.795317016,152.9176 46.70479701599999,153.79564 50.966557015999996,154.69861 55.582267016,155.62084 60.542737016,156.55633 65.828047016,157.49699 71.404977016,158.43438 77.235437016,159.36151 83.280057016,160.27121 89.498247016,161.15772 95.85489701600001,162.0171 102.321867016,162.84571 108.878237016,163.64148 115.511937016,164.40434 122.214237016,165.13564 128.97553701599998,165.83713 135.785737016,166.51036 142.635037016,167.15586 149.51523701600001,167.77431 156.41943701600002,168.36654 163.342437016,168.93277 170.281437016,169.47313 177.235737016,169.98798 184.20623701600002,170.47809 191.19353701600002,170.94459 198.19633701600003,171.38854 205.21223701600002,171.81087 212.23823701600003,172.21192 219.272037016,172.5919 226.312437016,172.95105999999998 233.359237016,173.28972 240.41253701600002,173.60828 247.472137016,173.90709 254.53773701600005,174.18653 261.608537016,174.4469 268.683637016,174.68839 275.762437016,174.91119 282.844437016,175.11547000000002 289.929237016,175.30143 297.016837016,175.46922999999998 304.106737016,175.619 311.198737016,175.7509 318.292237016,175.86505 325.386937016,175.96149 332.482037016,176.04018 339.576437016,176.10109 346.668837016,176.1442 353.758037016,176.16934 360.843337016,176.17615 367.924937016,176.16431 375.00363701599997,176.13344999999998 382.081437016,176.08332000000001 389.15973701599995,176.01405 396.238637016,175.92586 403.317237016,175.81896 410.393237016,175.6936 417.46343701599994,175.54955999999999 424.525137016,175.38625000000002 431.57653701600003,175.20308 438.616337016,174.99946 445.64403701599997,174.77472 452.658837016,174.52801 459.658937016,174.25846 466.640737016,173.96529 473.600037016,173.64786 480.531437016,173.30489 487.43053701599996,172.93406 494.294537016,172.53300000000002 501.122437016,172.09937 507.91453701599994,171.63082 514.672537016,171.12522 521.399137016,170.58059 528.0981370159999,169.99483 534.773937016,169.3657 541.4322370159999,168.69091 548.079137016,167.96951 554.721137016,167.20124 561.3643370159999,166.38565 568.015237016,165.52213 574.680037016,164.61011 581.365737016,163.65064 588.078737016,162.64547 594.825737016,161.59633 601.612737016,160.50497000000001 608.445637016,159.3734 615.328637016,158.20491 622.262037016,157.00386 629.2417370159999,155.77566000000002 636.2582370160001,154.52686 643.298137016,153.265 650.347837016,151.99777 657.395337016,150.73261 664.4305370159999,149.4766 671.445637016,148.23605 678.435237016,147.01533 685.397237016,145.81773 692.3331370159999,144.64587 699.2471370159999,143.50175000000002 706.1452370159999,142.38608 713.031537016,141.299035 719.9077370159999,140.24117 726.773037016,139.21341 733.6251370159999,138.217159 740.462037016,137.254152 747.283737016,136.325865 754.0920370160001,135.433498 760.8905370159999,134.577858 767.682537016,133.759043 774.470237016,132.9771878 781.2542370159999,132.23263125 788.0336370160001,131.5258892 794.807637016,130.85763400000002 801.575837016,130.228476 808.339137016,129.638933 815.099237016,129.089379 821.857437016,128.57989 828.613237016,128.110594 835.364037016,127.681729 842.106437016,127.293952 848.837337016,126.948553 855.5566370160001,126.64673 862.2661370159999,126.389501 868.9685370159999,126.177068 875.665637016,126.009258 882.357337016,125.885966 889.041937016,125.807136 895.714137016,125.7727 902.365237016,125.782455 908.983637016,125.836735 915.558337016,125.937071 922.0812370159999,126.084823 928.544537016,126.279618 934.9290370159999,126.518372 941.2021370159999,126.797055 947.318837016,127.113549 953.223237016,127.465502 958.862137016,127.849013 964.2020370160001,128.260855 969.231537016,128.69619699999998 973.929637016,129.135133 978.244037016,129.55118099999999 982.141837016,129.949164 985.645737016,130.377557 988.808337016,130.858321 991.6889370160001,131.30722400000002 994.361637016,131.6138181 996.9120370159999,131.7989245 999.4303370160001,132.25732514 1001.9013370160001,133.0370901 1003.996337016,132.1858" stroke="black" stroke-width="2.0" /></svg>