<?xml version="1.0" encoding="utf-8" ?>
<svg baseProfile="full" height="179.32177000000001" version="1.1" width="1011.998314465" xmlns="http://www.w3.org/2000/svg" xmlns:ev="http://www.w3.org/2001/xml-events" xmlns:xlink="http://www.w3.org/1999/xlink"><defs /><polygon fill="none" points="1003.998314465,138.3846 1000.3726144650001,136.772906 995.8025144650001,135.441282 991.071714465,134.129594 986.081814465,132.855088 980.830314465,131.566082 975.329814465,130.26440000000002 969.560614465,128.945696 963.5088144650001,127.59548000000001 957.185214465,126.20902000000001 950.603814465,124.79253 943.7689144650001,123.34907000000001 936.683714465,121.87767000000001 929.358114465,120.37617 921.8091144650001,118.83845000000001 914.060414465,117.25768000000001 906.138614465,115.63551000000001 898.070714465,113.97866 889.881914465,112.29284000000001 881.5950144650001,110.58159 873.227614465,108.84774 864.791714465,107.09677 856.296114465,105.33528000000001 847.747014465,103.5678 839.152314465,101.79479 830.524014465,100.01674000000001 821.876914465,98.23435 813.221214465,96.44702000000001 804.559514465,94.65257000000001 795.888214465,92.84921 787.204414465,91.03728000000001 778.509214465,89.21800000000002 769.806314465,87.39265 761.098414465,85.56148 752.385214465,83.72402 743.663114465,81.8798 734.929514465,80.02993000000001 726.185314465,78.17651000000001 717.434914465,76.32204 708.683914465,74.46713 699.935614465,72.61109000000002 691.189614465,70.75257 682.443214465,68.89096 673.694714465,67.02720000000001 664.9445144650001,65.16279 656.195614465,63.29959000000001 647.452014465,61.43900000000001 638.717414465,59.582170000000005 629.9949144650001,57.73012 621.287114465,55.88401 612.596014465,54.04518 603.9234144650001,52.21491000000002 595.270614465,50.39439 586.638614465,48.58474000000001 578.028814465,46.78717000000002 569.443014465,45.002880000000005 560.8830144650001,43.23321 552.350614465,41.47970000000001 543.847214465,39.74388999999999 535.373814465,38.02720000000001 526.930914465,36.33080000000001 518.519514465,34.65610000000001 510.14131446500005,33.00450000000001 501.79851446500004,31.377300000000005 493.493914465,29.776500000000013 485.229814465,28.204000000000008 477.008014465,26.66170000000001 468.829814465,25.151300000000006 460.696214465,23.674400000000006 452.60851446500004,22.23230000000001 444.569414465,20.826400000000007 436.582114465,19.4581 428.650814465,18.129300000000015 420.780314465,16.842 412.97651446500004,15.598400000000012 405.245714465,14.400600000000011 397.594814465,13.251199999999997 390.030014465,12.154100000000014 382.55691446500003,11.113100000000003 375.180414465,10.13130000000001 367.90441446500006,9.211700000000008 360.730914465,8.358599999999996 353.65831446500005,7.575800000000015 346.682014465,6.866299999999995 339.795014465,6.2327999999999975 332.989614465,5.676600000000008 326.258514465,5.198299999999989 319.59491446500004,4.7988 312.99281446500004,4.4787000000000035 306.44681446500005,4.239100000000008 299.951614465,4.079599999999999 293.501914465,4.0 287.09201446500003,4.000200000000007 280.71621446500006,4.080600000000004 274.368414465,4.240400000000022 268.045314465,4.477499999999992 261.746614465,4.789299999999997 255.475414465,5.173500000000018 249.23741446499997,5.6276000000000295 243.040214465,6.1510000000000105 236.890514465,6.743799999999993 230.793914465,7.406100000000009 224.755014465,8.137699999999995 218.777414465,8.938900000000018 212.863814465,9.811200000000014 207.014714465,10.756 201.22921446499998,11.775199999999998 195.50471446499998,12.8707 189.838414465,14.042900000000003 184.227514465,15.291700000000006 178.670314465,16.616800000000012 173.165214465,18.018100000000004 167.711314465,19.4949 162.30861446499998,21.045100000000005 156.958014465,22.666300000000007 151.661714465,24.3557 146.423014465,26.109899999999996 141.245914465,27.9255 136.135414465,29.79820000000001 131.09681446500002,31.723400000000012 126.136314465,33.696 121.26031446500001,35.711 116.475514465,37.76310000000001 111.789214465,39.84685000000002 107.20811446500001,41.95621 102.738674465,44.08542000000001 98.387234465,46.22992000000001 94.158804465,48.38556 90.05695446500002,50.54834000000001 86.08389446500001,52.71448000000001 82.24081446500001,54.88014 78.528254465,57.04138000000002 74.94607446500001,59.19441000000002 71.493424465,61.3357 68.16872446500001,63.461920000000006 64.969794465,65.56917 61.894614465,67.65326 58.941144465,69.71017 56.107144465000005,71.73620000000001 53.390094465000004,73.72824000000001 50.787744465,75.68465 48.297434464999995,77.60468 45.915784465,79.48797 43.638974465000004,81.33447000000001 41.462814465,83.14445 39.383174464999996,84.91846000000001 37.396284465,86.65733 35.498414465,88.36185 33.685824464999996,90.03283 31.954794465,91.67107 30.301614465,93.27741 28.722854465,94.85276 27.215554465,96.3983 25.776764465000003,97.91528 24.403494464999998,99.40497 23.092754465000002,100.86860000000001 21.841654464999998,102.30741 20.647374465,103.72255000000001 19.507274465000002,105.11503 18.418994465,106.48548 17.380344465,107.83441 16.389324465,109.16221 15.444034465,110.4692 14.542644464999999,111.75568000000001 13.683445465,113.02190000000002 12.864863464999999,114.26818 12.085914465,115.49515000000001 11.345628465,116.7037 10.642903465,117.89487 9.976565465,119.06972 9.345418465,120.22939000000001 8.748274465,121.37499 8.183978465,122.50767 7.652049465,123.62849 7.153540465000001,124.73828 6.689689465000001,125.83739 6.261628465,126.92582 5.870327465,128.00332 5.516555465,129.06938200000002 5.200842465,130.123386 4.923450365,131.164576 4.684114165,132.191719 4.482023865,133.204003 4.316197665,134.201708 4.185689565,135.18595200000001 4.089736255,136.158496 4.027867215,137.121618 4.0,138.0780599 4.006450073,139.0310186 4.047131875,139.983725 4.121903165,140.938797 4.231053565,141.898211 4.375204365,142.863313 4.555201265,143.83477200000002 4.771989765,144.812487 5.026462465,145.795455 5.319309465,146.781661 5.651146465,147.76854400000002 6.022537465,148.75358 6.4339884650000005,149.73436 6.885991465,150.70865 7.379092465,151.6744 7.913960465000001,152.62978 8.491465465000001,153.5732 9.112498465,154.50319000000002 9.777760465,155.41818 10.488016465000001,156.31642 11.244110464999999,157.19592 12.046962465,158.05445 12.897558465000001,158.88952 13.796942465,159.69832 14.745804465,160.47856000000002 15.743964465,161.22965 16.791064464999998,161.9512 17.886684465000002,162.64273 19.030304465,163.30374 20.221284465,163.93364 21.458824465,164.53178 22.742814465000002,165.09794 24.074334465,165.63269 25.454564465,166.13674 26.884684465,166.61098 28.365794465,167.05645 29.898904465,167.47442 31.484884464999997,167.8664 33.125694465,168.23346 34.824324465000004,168.57629 36.583904464999996,168.89585 38.407634465,169.19344 40.298774465,169.47078000000002 42.260464465,169.73015 44.295994465,169.97347 46.409544465,170.20009000000002 48.605864465,170.40879 50.890214465,170.59833 53.268444465,170.76744000000002 55.747274465,170.91484 58.334524465,171.03943 61.039124465,171.14082000000002 63.870734465000005,171.21899000000002 66.83944446499999,171.2744 69.95551446500001,171.30810000000002 73.228874465,171.32177000000001 76.669084465,171.31496 80.285894465,171.28544 84.08927446500002,171.23087 88.08977446500002,171.14883 92.298984465,171.0369 96.72905446500002,170.89295 101.39122446500001,170.71515 106.295114465,170.50211000000002 111.44791446500001,170.25292000000002 116.853614465,169.96598 122.511414465,169.63963 128.415614465,169.27298000000002 134.555214465,168.86489 140.91741446499998,168.4109 147.49351446499998,167.905 154.284114465,167.3401 161.300614465,166.71464 168.55071446499997,166.03423 176.02951446499998,165.30778 183.71531446499998,164.54476 191.57941446499999,163.74979000000002 199.596914465,162.92682000000002 207.75041446499998,162.07937 216.02511446499997,161.21101000000002 224.400714465,160.32611 232.85081446499998,159.43014 241.34901446499998,158.53032000000002 249.879414465,157.63363 258.43941446499997,156.74561 267.03471446500004,155.86695 275.666814465,154.99502 284.32831446500006,154.12785 293.004214465,153.26549 301.68101446500003,152.41095 310.353814465,151.5669 319.025914465,150.73492000000002 327.703714465,149.91400000000002 336.38841446500004,149.10242 345.074314465,148.299105 353.749914465,147.50473 362.405614465,146.722564 371.03781446500005,145.95561 379.64941446500006,145.20619200000002 388.24691446500003,144.47500300000002 396.83631446500004,143.761807 405.422114465,143.066515 414.006914465,142.38912000000002 422.592714465,141.729238 431.181614465,141.08633 439.775714465,140.459856 448.377514465,139.849153 456.988214465,139.2532751 465.607314465,138.671345 474.232014465,138.1026191 482.858214465,137.54700780000002 491.482814465,137.005226 500.104214465,136.47792800000002 508.723114465,135.965621 517.341114465,135.468331 525.958714465,134.985774 534.575014465,134.51774500000002 543.187514465,134.06419 551.7930144649999,133.625733 560.390114465,133.20325 568.978714465,132.797524 577.560414465,132.409145 586.137114465,132.038141 594.7101144650001,131.684439 603.2798144650001,131.348006 611.845614465,131.028954 620.407114465,130.727647 628.9637144650001,130.44447200000002 637.515114465,130.179808 646.0613144650001,129.93403 654.604014465,129.707491 663.146814465,129.50051000000002 671.695314465,129.313178 680.2541144649999,129.14406000000002 688.823114465,128.99115 697.3970144650001,128.852517 705.966114465,128.727446 714.521914465,128.617525 723.060914465,128.524508 731.584114465,128.44994300000002 740.094414465,128.39437500000003 748.5922144650001,128.35788000000002 757.0742144650001,128.34054 765.535114465,128.34338000000002 773.972914465,128.36876 782.391614465,128.419093 790.799914465,128.49591500000002 799.206214465,128.597678 807.613914465,128.722224 816.020914465,128.867481 824.421014465,129.03207600000002 832.805114465,129.214782 841.161914465,129.414635 849.480914465,129.632727 857.757014465,129.870882 865.989014465,130.13013 874.171814465,130.408302 882.289114465,130.702159 890.3163144650001,131.010855 898.235114465,131.338176 906.039014465,131.687856 913.723614465,132.058546 921.270714465,132.445369 928.651814465,132.845884 935.8454144650001,133.26395200000002 942.844114465,133.702914 949.641214465,134.159064 956.218114465,134.625988 962.554514465,135.104266 968.644914465,135.59937100000002 974.493114465,136.10722 980.096414465,136.614925 985.446614465,137.123926 990.533414465,137.63752580000002 995.376814465,138.0738013 1000.059114465,138.48098496 1003.998314465,138.3846" stroke="black" stroke-width="2.0" /></svg>