<?xml version="1.0" encoding="utf-8" ?>
<svg baseProfile="full" height="187.780505" version="1.1" width="1012.1254585" xmlns="http://www.w3.org/2000/svg" xmlns:ev="http://www.w3.org/2001/xml-events" xmlns:xlink="http://www.w3.org/1999/xlink"><defs /><polygon fill="none" points="1004.1254585,172.5686 1001.5905585,170.715449 998.4373585000001,168.750892 994.9400585000001,166.822881 991.0796585,164.826315 986.9069585,162.76827600000001 982.4883585000001,160.69078 977.8753585,158.62118 973.0656585,156.55789000000001 968.0145585000001,154.47926 962.6754585000001,152.36264 957.0129585000001,150.18845 951.0219585000001,147.94492 944.7476585000001,145.64009000000001 938.2634585000001,143.30121 931.6441585000001,140.95501000000002 924.9493585,138.62085000000002 918.2126585,136.30755 911.4387585000001,134.01413 904.6209585,131.7369 897.7523585,129.47233 890.8260584999999,127.21697 883.8353585000001,124.9675 876.7737585000001,122.72063 869.6386585,120.47261 862.4423585000001,118.22242 855.2174585,115.97501 848.0085585,113.74328 840.8365585,111.53959 833.6855585000001,109.36541 826.5088585,107.21037 819.2641585,105.05627000000001 811.9474585,102.89381 804.5992585,100.72695 797.2852585,98.5754 790.0387585000001,96.45707 782.8483585,94.37654 775.6649585000001,92.32562 768.4345585,90.28438 761.1352585,88.23822000000001 753.7841585000001,86.18319000000001 746.4363585,84.12909 739.1431585,82.09662000000002 731.9189585,80.09837 724.7427585,78.13669000000002 717.5662585,76.20285 710.3463585000001,74.27844999999999 703.0691585,72.3506 695.7534585000001,70.4149 688.4499585000001,68.4781 681.2071585,66.5605 674.0406585000001,64.6772 666.9347585,62.8343 659.8467585,61.0295 652.7268585,59.246300000000005 645.5460585000001,57.466300000000004 638.3012585,55.677400000000006 631.0189585,53.8742 623.7466585,52.065200000000004 616.5172585,50.26819999999999 609.3355585,48.495000000000005 602.1804585,46.75059999999999 595.0081585,45.0321 587.7762585,43.32480000000001 580.4674585,41.6164 573.0949585000001,39.901399999999995 565.7054585,38.181700000000006 558.3634585000001,36.47309999999999 551.1044585000001,34.793800000000005 543.9261585,33.152799999999985 536.7932585000001,31.5514 529.6438585000001,29.982 522.4220585,28.426600000000008 515.1066585,26.8724 507.7198585,25.314999999999998 500.3319585,23.760199999999998 493.0355585,22.22970000000001 485.8814585,20.747000000000014 478.8678585,19.323399999999992 471.95395849999994,17.960800000000006 465.0693585,16.653500000000008 458.1502585,15.387100000000004 451.17485849999997,14.152500000000003 444.1704585,12.949300000000022 437.2143585,11.784599999999983 430.41285849999997,10.67749999999998 423.82785849999993,9.653300000000002 417.45755849999995,8.724899999999991 411.2583585,7.896199999999993 405.1609585,7.16810000000001 399.0809585,6.534899999999993 392.9494585,5.983100000000007 386.7275585,5.502899999999983 380.4095585,5.087799999999987 374.0294585,4.733300000000014 367.6602585,4.438900000000018 361.3692585,4.213899999999995 355.18375849999995,4.065899999999999 349.0955585,4.0 343.0676585,4.0214 337.0405585,4.134399999999999 330.95655849999997,4.3352999999999895 324.7819585,4.619400000000013 318.5122585,4.9813000000000045 312.17915849999997,5.412499999999994 305.8505585,5.903399999999976 299.59085849999997,6.454800000000006 293.4270585,7.070399999999978 287.35135849999995,7.75630000000001 281.3273585,8.522300000000001 275.2966585,9.378000000000014 269.2100585,10.325000000000017 263.0467585,11.360600000000005 256.82105850000005,12.476200000000006 250.5869585,13.65470000000002 244.42105850000002,14.883199999999988 238.3691585,16.160799999999995 232.4347585,17.493899999999996 226.58805850000002,18.89590000000001 220.77235850000002,20.385899999999992 214.9283585,21.97460000000001 209.0231585,23.664300000000026 203.0569585,25.448399999999992 197.06865850000003,27.30770000000001 191.1269585,29.21969999999999 185.27855850000003,31.176500000000004 179.5299585,33.18220000000002 173.8532585,35.25280000000001 168.1933585,37.41229999999999 162.49985850000002,39.6737 156.7593585,42.0351 151.0029585,44.47479999999999 145.30725850000002,46.953299999999984 139.7483585,49.446299999999994 134.3459585,51.9568 129.0703585,54.5094 123.85475849999999,57.145700000000005 118.62325849999999,59.89750000000001 113.33985849999999,62.77080000000001 108.02605849999999,65.7401 102.7655085,68.74570000000001 97.65359849999999,71.7439 92.72170849999999,74.73175 87.9441185,77.73792999999999 83.2583885,80.80906 78.6091985,83.97065 73.98952849999999,87.21435 69.4430785,90.49494 65.0482085,93.75335 60.8522685,96.96852 56.8503185,100.15516000000001 53.0054085,103.35066 49.2735885,106.58093000000001 45.6474385,109.83185 42.1583885,113.05393000000001 38.8607485,116.18204 35.7985285,119.1868 32.9746685,122.07580000000002 30.3689185,124.87347 27.9515385,127.60492 25.694678500000002,130.27405 23.5848685,132.86952000000002 21.616888499999998,135.37347 19.788568500000004,137.76797 18.1000385,140.04327 16.5488285,142.19668000000001 15.1283385,144.22982000000002 13.8294005,146.14754 12.6426025,147.95698 11.5622765,149.66798 10.5821135,151.29127 9.6947785,152.83702 8.8928595,154.31442 8.1693365,155.73154 7.5178775,157.09556 6.9330625,158.41251 6.4101575,159.687 5.9448975,160.92266 5.5333524999999995,162.12241 5.1718595,163.28869 4.8580407,164.42281400000002 4.5926477,165.52412 4.3762807,166.592678 4.20900658,167.62941800000002 4.09065678,168.635758 4.0210252,169.613372 4.0,170.564042 4.02765395,171.489571 4.10431161,172.39173300000002 4.231212,173.2720448 4.4142168999999996,174.130301 4.6608228,174.965066 4.9779916,175.774378 5.3718245,176.555605 5.8412915,177.296635 6.3782385,177.975657 6.9759945000000005,178.572354 7.6301505,179.06721100000001 8.3388055,179.439686 9.1025575,179.672855 9.9224655,179.779388 10.7995025,179.780505 11.734161499999999,179.698743 12.725265499999999,179.56125500000002 13.7679285,179.403949 14.8544785,179.265049 15.9864685,179.151997 17.1688885,179.062929 18.4080185,178.994221 19.712028500000002,178.939943 21.0920485,178.89118 22.5623085,178.837241 24.1344485,178.773963 25.8197785,178.699152 27.6308885,178.60999900000002 29.5814285,178.502888 31.685768500000002,178.373201 33.9612385,178.216326 36.429528499999996,178.028262 39.114008500000004,177.804888 42.0384385,177.542272 45.2244585,177.236254 48.688458499999996,176.878109 52.4435285,176.45565 56.5056885,175.953015 60.9086985,175.355531 65.6991385,174.665245 70.90832849999998,173.89892 76.5205285,173.0861753 82.46136849999999,172.2331327 88.6389085,171.332571 94.98535849999999,170.37907 101.46856849999999,169.396491 108.08065849999998,168.416247 114.8378585,167.457534 121.7467585,166.505179 128.77285849999998,165.54019 135.83805850000002,164.55762000000001 142.8790585,163.582655 149.8946585,162.638017 156.9418585,161.73355 164.0876585,160.85219 171.3506585,159.97371 178.68395850000002,159.08537 186.0009585,158.19740000000002 193.25615850000003,157.33033 200.46435850000003,156.4972 207.6882585,155.69917 214.9859585,154.91996 222.36985850000002,154.14466000000002 229.7975585,153.36374 237.1898585,152.58469 244.50165850000002,151.82585 251.74175850000003,151.09980000000002 258.96555850000004,150.41283 266.2468585,149.75557 273.6276585,149.11277 281.1022585,148.47262 288.6107585,147.82899 296.0740585,147.19268 303.4539585,146.57798 310.7595585,145.99454 318.04015849999996,145.44717 325.35875849999996,144.92728 332.75155849999993,144.42148 340.21725849999996,143.91852 347.7130585,143.41016 355.1725585,142.90235 362.5565585,142.40923 369.8632585,141.94199 377.1237585,141.50906 384.3910585,141.10933 391.70725849999997,140.72983 399.08815849999996,140.3578 406.5201585,139.98144000000002 413.96025849999995,139.59413 421.36255850000003,139.2062 428.7059585,138.83073000000002 435.9940585,138.47895 443.2532585,138.1598 450.5207585,137.86896000000002 457.82295849999997,137.59307 465.17015849999996,137.31898 472.5553585,137.03383 479.95545849999996,136.73133 487.34705849999995,136.42132 494.71765849999997,136.11569 502.0663585,135.82569 509.4028585,135.5606 516.7418585,135.31596000000002 524.0925585,135.08 531.4581585,134.84103 538.8345585000001,134.58753000000002 546.2122585,134.31594 553.5792585,134.03712000000002 560.9231585,133.7634 568.2314585,133.50689 575.4916585000001,133.27638000000002 582.6963585000001,133.06179 589.8497585,132.84594 596.9674585,132.61192 604.0766585,132.34288 611.2129585,132.03251 618.4076585,131.69167 625.6806585,131.33349 633.0383585000001,130.97255 640.4718585,130.62196 647.9566585000001,130.28017 655.4563585000001,129.94096000000002 662.9237585,129.59847 670.3052585,129.24927 677.5598585,128.90555 684.6839585,128.58476000000002 691.7070585,128.3013 698.6852585,128.0675 705.6881585,127.88536 712.7600585,127.74704 719.9049585,127.64521 727.0797585000001,127.57258999999999 734.2041585000001,127.52771000000001 741.2192585,127.52009000000001 748.1176585000001,127.55894 754.9342585,127.65299 761.7349585000001,127.80816000000002 768.5780585000001,128.02066 775.4861585000001,128.28481 782.4403585000001,128.59318000000002 789.3814585,128.93899 796.2541585,129.32522 803.0441585,129.75798 809.7750585,130.24533 816.4993585,130.79421 823.2609585,131.40301 830.0699585,132.06662 836.8983585000001,132.77608 843.6913585,133.52546999999998 850.4119585000001,134.31726 857.0564585000001,135.15719 863.6492585,136.05321 870.2222585000001,137.0088 876.7919585000001,138.0241 883.3572585000001,139.097 889.9038585,140.22469999999998 896.4171585,141.40562 902.8875585000001,142.63868 909.3100585000001,143.92337 915.6841585000001,145.25992 922.0132585000001,146.64944 928.3015584999999,148.09398000000002 934.5431585,149.59415 940.7179585000001,151.14666 946.7935585,152.74398 952.7294585000001,154.37461000000002 958.4842585,156.02484 964.0374585000001,157.68576000000002 969.4008585,159.35749 974.6074585,161.04747 979.7034585,162.76899600000002 984.7160585,164.527116 989.5482585000001,166.277728 994.0078585000001,167.937239 997.9489585,169.465687 1001.3943585000001,171.021778 1004.1254585,172.5686" stroke="black" stroke-width="2.0" /></svg>