<?xml version="1.0" encoding="utf-8" ?>
<svg baseProfile="full" height="101.95837000000002" version="1.1" width="1012.00218563" xmlns="http://www.w3.org/2000/svg" xmlns:ev="http://www.w3.org/2001/xml-events" xmlns:xlink="http://www.w3.org/1999/xlink"><defs /><polygon fill="none" points="1004.00218563,87.86192000000001 1002.61568563,86.38539200000001 1000.4544856299999,85.65206 997.07788563,84.80482800000001 993.0378856299999,83.67381400000001 988.50858563,82.627407 983.04138563,81.42834800000001 977.35688563,80.16657400000001 971.7851856299999,78.96003600000002 966.12868563,77.76120000000002 960.3824856299999,76.55456000000001 954.63308563,75.35084 948.8873856299999,74.14614000000002 943.15198563,72.93929000000001 937.4127856299999,71.72674 931.6680856300001,70.50811000000002 925.92188563,69.28667000000002 920.17598563,68.06606000000002 914.42988563,66.84896 908.68248563,65.63545 902.93278563,64.42491000000001 897.18028563,63.21681000000001 891.42488563,62.01035000000001 885.6671856300001,60.804670000000016 879.90838563,59.59904000000002 874.15058563,58.39283000000001 868.39548563,57.185400000000016 862.64438563,55.975960000000015 856.8973856299999,54.76354000000001 851.1540856299999,53.54718000000001 845.4135856300001,52.32630000000002 839.67508563,51.10041000000002 833.93758563,49.869020000000006 828.20018563,48.63179000000001 822.46208563,47.38908000000001 816.7226856299999,46.14150000000001 810.9816856299999,44.88976000000001 805.23918563,43.63464000000001 799.49558563,42.377240000000015 793.75128563,41.118890000000015 788.00728563,39.861030000000014 782.26458563,38.60512000000001 776.52438563,37.35282000000001 770.78788563,36.10652000000001 765.05608563,34.868800000000014 759.32968563,33.642150000000015 753.60938563,32.42905000000001 747.8954856299999,31.232020000000013 742.1880856299999,30.054050000000018 736.48648563,28.89804000000001 730.78938563,27.766770000000015 725.09488563,26.66286000000001 719.40048563,25.588460000000012 713.7043856299999,24.54417000000001 708.0049856300001,23.53034000000001 702.3012856299999,22.547430000000006 696.59288563,21.596000000000004 690.87958563,20.676630000000017 685.16168563,19.78938000000001 679.43928563,18.93404000000001 673.71188563,18.11030000000001 667.97868563,17.317850000000007 662.23868563,16.556320000000014 656.49028563,15.824640000000016 650.7328856299999,15.121030000000005 644.9661856299999,14.443730000000016 639.1906856300001,13.791070000000019 633.4074856299999,13.161410000000018 627.6183856299999,12.553450000000012 621.82508563,11.96687 616.02898563,11.401560000000003 610.2306856299999,10.857330000000019 604.43058563,10.333940000000013 598.62838563,9.831120000000013 592.82358563,9.348510000000005 587.01578563,8.885750000000016 581.20498563,8.44250000000001 575.3914856299999,8.01843000000001 569.57598563,7.613250000000022 563.75938563,7.226820000000018 557.94278563,6.859620000000007 552.12668563,6.512310000000014 546.3116856299999,6.185510000000008 540.49778563,5.8798300000000125 534.68498563,5.595870000000019 528.87288563,5.33408 523.06108563,5.094800000000006 517.24938563,4.87833000000002 511.43768563000003,4.6850000000000165 505.62598562999995,4.515140000000017 499.81418562999994,4.369070000000022 494.00258563,4.246970000000019 488.19118562999995,4.14897000000002 482.37988563,4.075160000000011 476.56858563,4.025670000000005 470.75708562999995,4.000610000000023 464.94498562999996,4.0 459.13188563,4.023540000000011 453.31778562999995,4.070900000000023 447.50268563000003,4.141720000000021 441.68668562999994,4.235660000000024 435.87018563,4.352370000000008 430.05358563,4.491550000000018 424.23708563,4.652950000000018 418.42078563,4.836340000000007 412.60458563,5.04149000000001 406.78808562999996,5.268170000000012 400.97078562999997,5.51615000000001 395.15218562999996,5.784920000000014 389.33208563,6.073910000000012 383.51078563,6.382520000000014 377.68908562999997,6.710130000000007 371.86788563,7.056090000000012 366.04878563,7.420270000000002 360.23268563,7.803120000000007 354.42008563,8.20517000000001 348.61098562999996,8.626950000000008 342.80478562999997,9.069060000000007 337.00048563,9.53191000000001 331.19678562999997,10.01530000000001 325.39308563,10.518830000000008 319.58938563,11.042110000000008 313.78588563,11.584670000000003 307.98358563,12.14606000000002 302.18338563,12.726330000000004 296.38628563,13.325750000000014 290.59258563000003,13.94462 284.80268563,14.58329000000002 279.01638562999995,15.242100000000008 273.23318563,15.921330000000012 267.45288562999997,16.62118000000001 261.67558563,17.34181000000001 255.90118563,18.083360000000013 250.13008563000002,18.84598000000001 244.36258563,19.629840000000016 238.59908563000002,20.435180000000017 232.83948563,21.26225000000001 227.08398563,22.111310000000017 221.33238563,22.982670000000013 215.58438563,23.876560000000005 209.84028563,24.793140000000008 204.10048563,25.73253000000001 198.36558563,26.694810000000018 192.63678563000002,27.68021000000001 186.91488563000001,28.689440000000012 181.20058563,29.723340000000007 175.49418563000003,30.782790000000013 169.79528563000002,31.868740000000017 164.10368563000003,32.98188000000001 158.41918563000002,34.122760000000014 152.74178563,35.29188000000001 147.07188563,36.489730000000016 141.40978563000002,37.71682000000001 135.75618563000003,38.973720000000014 130.11198563,40.26093000000001 124.47788563,41.57899000000001 118.85508562999999,42.92879000000001 113.24478563,44.31149000000001 107.64808563,45.728240000000014 102.06624563,47.18026000000001 96.50073563,48.66929000000001 90.95317563,50.19714000000001 85.42523563,51.76561000000001 79.91884562999999,53.376820000000016 74.43600563,55.03324000000001 68.97854563,56.737380000000016 63.54870563,58.492140000000006 58.150485630000006,60.300590000000014 52.78972563,62.16511000000001 47.47350563,64.08870000000002 42.20645563,66.07625000000002 36.99191563,68.13498000000001 31.856675629999998,70.27078 26.86351563,72.47141000000002 22.02972563,74.72610000000002 17.27394563,77.07838000000001 13.16352463,79.30796000000001 10.28071763,81.06132600000001 8.176693629999999,82.50904000000001 6.54957163,83.81514700000001 5.44971363,84.92676700000001 4.74912053,85.81655100000002 4.31138193,86.55094300000002 4.07070674,87.19828300000002 4.0,87.80578364000002 4.10312093,88.4092006 4.38026893,89.03055 4.85438163,89.67691100000002 5.57792663,90.31912200000001 6.64978463,90.90826000000001 8.20345563,91.43003300000001 10.34653863,91.96718800000001 13.30328663,92.53276400000001 17.231425629999997,93.04764300000001 22.01206563,93.43601300000002 27.29596563,93.69273400000002 32.85056563,93.84538900000001 38.53577563,93.928272 44.28018563,93.95837000000002 50.05818563,93.94937600000002 55.86114563,93.90921700000001 61.68111563,93.84484700000002 67.51230563,93.76037900000001 73.35330563000001,93.659315 79.20612563,93.54520800000002 85.07102563000001,93.421771 90.94417562999999,93.292786 96.81893563,93.16010700000001 102.69090562999999,93.02327100000001 108.55998563,92.88160300000001 114.42958562999999,92.734952 120.30328563,92.58448000000001 126.18228563,92.43158400000002 132.06518563000003,92.27764200000001 137.94918563000002,92.12311400000002 143.83248563,91.96783700000002 149.71388563000002,91.81161300000001 155.59378563,91.65431000000001 161.47288563,91.49637200000001 167.35198563,91.338457 173.23128563,91.18122900000002 179.11098563000002,91.025293 184.99108563000001,90.87077400000001 190.87148563,90.717588 196.75208563,90.56564800000001 202.63288563,90.41487000000001 208.51388563,90.265223 214.39508563,90.11672500000002 220.27628563000002,89.96940200000002 226.15718563000001,89.82328100000001 232.03748563000002,89.67842300000001 237.91698563000003,89.53502600000002 243.79568563,89.39331700000001 249.67368563,89.25352000000001 255.55148563,89.115851 261.42948563,88.98037900000001 267.30838563,88.84690870000001 273.18818562999996,88.71522300000001 279.06868563,88.58511030000001 284.94968563,88.45636910000002 290.83028562999993,88.32898250000001 296.71008563,88.20319520000001 302.58898562999997,88.07926560000001 308.46698562999995,87.95744558000001 314.34448563,87.83797902 320.22208563,87.7209528 326.10038563,87.60618730000002 331.97958563,87.4934819 337.85958563,87.38264120000001 343.74008562999995,87.27347530000002 349.62048562999996,87.16589270000001 355.50018563,87.06010030000002 361.37888562999996,86.95635820000001 367.25658562999996,86.85492100000002 373.13358562999997,86.75603800000002 379.01048563,86.65991700000001 384.88798563,86.56644400000002 390.76648563,86.47534600000002 396.64608562999996,86.38635300000001 402.52668563,86.29919900000002 408.40788562999995,86.21362500000001 414.28898563,86.12957200000001 420.16928563,86.04728600000001 426.04868562999997,85.96703500000001 431.92708562999997,85.88908400000001 437.80468562999994,85.81369300000001 443.68178563,85.74107200000002 449.55908562999997,85.67111900000002 455.43698563000004,85.60361200000001 461.31568562999996,85.53832700000001 467.19538563000003,85.47504400000001 473.07608562999997,85.41354500000001 478.95768562999996,85.35362500000001 484.83998562999994,85.29509800000001 490.72288563,85.23778300000001 496.60628563,85.18149600000001 502.49008562999995,85.12605400000001 508.37418563000006,85.07127400000002 514.25848563,85.01699700000002 520.14308563,84.96307200000001 526.0277856299999,84.90934700000001 531.9126856299999,84.85567100000002 537.79778563,84.80189400000002 543.68328563,84.74791800000001 549.56898563,84.693768 555.45478563,84.63949200000002 561.34038563,84.58513500000001 567.2261856299999,84.53073800000001 573.11178563,84.47636000000001 578.99678563,84.42220300000001 584.88088563,84.36856300000001 590.76388563,84.315734 596.64598563,84.26401100000001 602.52718563,84.21368500000001 608.40798563,84.165028 614.28838563,84.11826500000001 620.16838563,84.07361600000002 626.04788563,84.03130000000002 631.92648563,83.99153900000002 637.80348563,83.95457000000002 643.67848563,83.92075400000002 649.55138563,83.890516 655.42248563,83.86427600000002 661.2927856299999,83.84245500000002 667.16378563,83.82545700000001 673.0371856300001,83.81309800000001 678.9141856299999,83.80446400000001 684.7948856300001,83.79859100000002 690.67878563,83.794514 696.56418563,83.79126500000001 702.44858563,83.78768900000001 708.32988563,83.78223300000002 714.2061856299999,83.7733 720.07658563,83.75930200000002 725.9407856299999,83.73865900000001 731.7990856299999,83.70985200000001 737.65208563,83.67149500000001 743.5004856300001,83.62222600000001 749.34518563,83.56068300000001 755.18728563,83.48550000000002 761.0277856299999,83.39593400000001 766.8681856300001,83.29261800000002 772.71028563,83.176353 778.5559856299999,83.04791800000001 784.40778563,82.90809500000002 790.26798563,82.75842000000002 796.13728563,82.60135600000001 802.01418563,82.43949500000001 807.89468563,82.27552400000002 813.77278563,82.11233400000002 819.64238563,81.953494 825.50028563,81.80267300000001 831.34598563,81.66341600000001 837.18178563,81.53906500000001 843.01168563,81.43150800000001 848.8388856299999,81.34158900000001 854.6651856299999,81.27017500000001 860.4909856300001,81.21815500000001 866.31598563,81.18618400000001 872.1395856299999,81.17467100000002 877.96188563,81.18401200000001 883.78318563,81.21456700000002 889.6042856299999,81.26627800000001 895.42598563,81.33881900000002 901.24908563,81.43187000000002 907.0743856299999,81.54523100000002 912.90098563,81.67898200000002 918.7253856299999,81.83317800000002 924.54138563,82.00816800000001 930.34318563,82.20711100000001 936.12948563,82.43441600000001 941.90398563,82.69436100000001 947.67108563,82.98953800000001 953.43108563,83.32167500000001 959.17978563,83.69238500000002 964.91668563,84.10381400000001 970.6482856299999,84.55881000000001 976.36898563,85.05969400000001 982.03398563,85.60488700000002 987.59428563,86.19131800000001 992.91558563,86.844215 997.3130856299999,87.51543900000001 1000.96498563,87.82083666000001 1004.00218563,87.86192000000001" stroke="black" stroke-width="2.0" /></svg>