<?xml version="1.0" encoding="utf-8" ?>
<svg baseProfile="full" height="179.27871" version="1.1" width="1012.007155284" xmlns="http://www.w3.org/2000/svg" xmlns:ev="http://www.w3.org/2001/xml-events" xmlns:xlink="http://www.w3.org/1999/xlink"><defs /><polygon fill="none" points="1004.007155284,111.8886 1001.848555284,110.201528 998.716755284,109.675421 995.5498552839999,108.894306 992.225055284,108.025534 988.5640552839999,107.183241 984.5340552839999,106.28295899999999 980.167055284,105.29723299999999 975.4735552839999,104.262182 970.4218552839999,103.19497199999999 965.004355284,102.087856 959.2859552839999,100.9486 953.350255284,99.80762999999999 947.2211552839999,98.68372 940.8986552839999,97.56209 934.4597552839999,96.42672999999999 928.051055284,95.30377 921.759955284,94.25003 915.578155284,93.29781 909.4524552839999,92.40705 903.3320552839999,91.50173 897.1677552839999,90.50864999999999 890.901955284,89.41051999999999 884.479055284,88.2426 877.858455284,87.05087999999999 871.028355284,85.86833999999999 864.026055284,84.69381 856.947655284,83.52873 849.936955284,82.37713 843.0933552839999,81.22706 836.4139552839999,80.05172 829.816855284,78.81390999999999 823.187155284,77.49141 816.4734552839999,76.09045 809.727055284,74.63999999999999 803.103955284,73.1887 796.762555284,71.74975 790.737755284,70.30129 784.975955284,68.80878999999999 779.378555284,67.22824 773.8215552839999,65.53093 768.1949552839999,63.71826 762.419255284,61.80119 756.449255284,59.80683 750.2944552839999,57.78592 744.031355284,55.77115 737.749755284,53.76204 731.516655284,51.748749999999994 725.370255284,49.71377 719.3191552839999,47.6421 713.3433552839999,45.55342 707.412955284,43.47399999999999 701.4924552839999,41.42661 695.539755284,39.43169999999999 689.5073552839999,37.50279999999999 683.3591552839999,35.62929 677.079155284,33.79924 670.6748552839999,32.00710000000001 664.184155284,30.254059999999996 657.673355284,28.551339999999996 651.1993552839999,26.919939999999997 644.782055284,25.372470000000007 638.406455284,23.912269999999992 632.026555284,22.53635 625.5715552839999,21.232380000000006 618.979055284,19.97851 612.217555284,18.757959999999997 605.297755284,17.560379999999995 598.2876552839999,16.3831 591.295255284,15.24221 584.394855284,14.162050000000008 577.604755284,13.156559999999999 570.895755284,12.231520000000003 564.200855284,11.386600000000001 557.441355284,10.608000000000004 550.562755284,9.879900000000006 543.544255284,9.190700000000007 536.407555284,8.531599999999997 529.2226552839999,7.900599999999997 522.064555284,7.309399999999997 514.9712552840001,6.768500000000003 507.941855284,6.284300000000002 500.940855284,5.8607000000000085 493.91105528400004,5.494799999999998 486.80775528400005,5.177599999999998 479.61275528400006,4.901700000000005 472.338655284,4.660299999999992 465.031855284,4.448499999999996 457.74845528400004,4.270499999999998 450.51865528400003,4.132999999999996 443.342555284,4.0412000000000035 436.19315528400006,4.0 429.02495528400004,4.010099999999994 421.80195528400003,4.066299999999998 414.511755284,4.163200000000003 407.16895528400005,4.294299999999993 399.815455284,4.4543000000000035 392.498555284,4.645299999999992 385.24135528400006,4.872899999999987 378.04085528400003,5.142399999999995 370.870655284,5.460199999999986 363.690355284,5.828099999999992 356.470555284,6.242999999999995 349.200355284,6.700599999999994 341.88925528400006,7.195699999999988 334.566255284,7.723299999999995 327.260855284,8.2838 319.989955284,8.878699999999995 312.75735528399997,9.510499999999993 305.554855284,10.181799999999996 298.370655284,10.894300000000001 291.19665528400003,11.648600000000002 284.02885528400003,12.445389999999989 276.86735528400004,13.284790000000001 269.714855284,14.166740000000004 262.574255284,15.091099999999997 255.44845528399998,16.057699999999997 248.340255284,17.066309999999987 241.25145528399997,18.117119999999986 234.18135528399998,19.210809999999995 227.12645528399997,20.348539999999986 220.080655284,21.531809999999993 213.04015528399998,22.760809999999992 206.009555284,24.033879999999996 199.002855284,25.347430000000003 192.04165528399997,26.69744 185.14115528399998,28.084770000000006 178.299255284,29.514139999999998 171.49755528400001,30.993679999999998 164.708355284,32.52991 157.92035528399998,34.121039999999994 151.149955284,35.758399999999995 144.439555284,37.42823999999999 137.831555284,39.1258 131.336155284,40.8565 124.933255284,42.63287 118.58985528400001,44.46446999999999 112.30275528400001,46.34598 106.110155284,48.259080000000004 100.077855284,50.18239 94.248615284,52.114349999999995 88.618705284,54.06699 83.15484528400002,56.05797 77.83270528400001,58.08786 72.669845284,60.138009999999994 67.714355284,62.177969999999995 63.015355283999995,64.18876 58.586265284,66.17036999999999 54.412025283999995,68.13116 50.467155284,70.07603 46.741515284,71.99199999999999 43.243215284,73.85758 39.984325284,75.65132 36.971765284,77.36685 34.196695284,79.01093999999999 31.639295284,80.5934 29.276505284,82.12409 27.085305283999997,83.60692 25.047805284,85.0395 23.151295284,86.41852 21.385455284,87.74107 19.741465284,89.00608 18.214435283999997,90.21878 16.798795284,91.38656 15.487355284,92.51607 14.272375284,93.61311 13.146272284,94.6826 12.102134284,95.72834 11.133874284000001,96.75310999999999 10.235953284,97.75926 9.403340284,98.74879 8.631479284000001,99.72343 7.916431284,100.68468 7.258241284,101.63421 6.6598222840000005,102.573605 6.123309283999999,103.503928 5.650018284,104.42588599999999 5.240544284,105.339912 4.894773884,106.24614 4.610557184,107.142946 4.384216584,108.028596 4.212329484,108.903014 4.092119024,109.767341 4.021654494,110.623626 4.0,111.4746758 4.027411754,112.3239742 4.106137804,113.173761 4.240482784,114.023893 4.436221184,114.872897 4.700570284,115.717787 5.042132284,116.55368 5.468951284,117.374549 5.980427284,118.178901 6.572250284,118.967123 7.238968284,119.739715 7.973695284,120.497315 8.768232284,121.240723 9.620066284,121.97071 10.532159284,122.68809999999999 11.507898284,123.39394999999999 12.550969284,124.08972 13.665371284,124.7773 14.855735284,125.45917 16.128205284,126.13829 17.489535284,126.81842 18.946535284,127.50439 20.505375284,128.20246 22.170805284,128.92007 23.949665283999998,129.65961 25.851805284,130.41915 27.888885284,131.19608 30.076115283999997,131.9875 32.435145284,132.79147 34.993315284,133.61264 37.780485283999994,134.46015 40.825545284,135.34573 44.148305284,136.28271 47.753525284,137.27053 51.636315284,138.29375 55.798665284,139.33483 60.270465284,140.38375 65.09660528399999,141.44965 70.300985284,142.54503 75.85100528400001,143.67452 81.66566528400001,144.81547999999998 87.681375284,145.94061 93.89505528400001,147.03649000000001 100.338135284,148.11214999999999 107.00895528400001,149.17862 113.847655284,150.2375 120.772355284,151.27271 127.740555284,152.27026 134.760955284,153.22575999999998 141.861555284,154.14613 149.051655284,155.03825 156.31475528399997,155.90561 163.62165528399998,156.7458 170.953055284,157.55588 178.304255284,158.33481 185.681655284,159.08397 193.091455284,159.80574 200.535655284,160.50212 208.012355284,161.17459 215.516155284,161.82393 223.037855284,162.45062 230.565155284,163.05493 238.086055284,163.63542999999999 245.597355284,164.19001 253.107055284,164.71731 260.633655284,165.21726 268.195455284,165.6935 275.797255284,166.15013 283.42755528400005,166.59042 291.059755284,167.01535 298.670255284,167.42113 306.254055284,167.80407 313.82445528400007,168.1615 321.410255284,168.49325 329.035055284,168.80382 336.702355284,169.0976 344.39345528399997,169.37829 352.070355284,169.64659999999998 359.70275528400003,169.89713 367.286855284,170.12462 374.844455284,170.32467 382.419055284,170.49541 390.050755284,170.64261 397.75165528400004,170.77324 405.500655284,170.89406 413.24255528400005,171.00979 420.91925528400003,171.11444999999998 428.50915528400003,171.19921 436.027655284,171.25623 443.522355284,171.27871 451.05385528400006,171.26921 458.65745528400004,171.23669999999998 466.33135528400004,171.19069 474.03155528400004,171.14133 481.68345528400005,171.09038999999999 489.23625528400004,171.02694 496.68395528400004,170.93966999999998 504.059255284,170.81759 511.4251552840001,170.65297999999999 518.8424552839999,170.45301999999998 526.337055284,170.22929 533.8937552839999,169.99518999999998 541.4512552839999,169.76488999999998 548.929255284,169.53625 556.2876552839999,169.29449 563.534755284,169.02456999999998 570.7178552839999,168.71084 577.913155284,168.34427 585.183355284,167.93413 592.548055284,167.49457 599.9746552839999,167.04393 607.374955284,166.60152 614.6524552839999,166.16233 621.773355284,165.70785 628.763955284,165.21809 635.697255284,164.67079999999999 642.676955284,164.05234 649.780355284,163.36945 657.019455284,162.63702999999998 664.322055284,161.88065999999998 671.531655284,161.12933999999998 678.5073552839999,160.37857 685.215755284,159.60820999999999 691.702355284,158.79437 698.059555284,157.9092 704.4013552839999,156.94031999999999 710.802055284,155.90338 717.2655552839999,154.82664 723.717355284,153.75319 730.013455284,152.7298 736.0200552839999,151.74603 741.705655284,150.76055 747.1096552839999,149.73318 752.303255284,148.62457 757.3742552839999,147.39486 762.422255284,146.03678 767.536555284,144.56554 772.7948552839999,142.99889 778.265755284,141.3627 784.004055284,139.69819999999999 790.030655284,138.0347 796.323755284,136.36508 802.820355284,134.68219 809.4090552839999,132.98457 815.950555284,131.29324 822.361655284,129.66029 828.644855284,128.11867 834.869055284,126.68186 841.147155284,125.33968999999999 847.576755284,124.05502 854.206355284,122.79741 861.015155284,121.547439 867.908755284,120.312479 874.770055284,119.11889599999999 881.490555284,117.9898 887.9959552839999,116.948787 894.296555284,116.019666 900.484055284,115.212966 906.7058552839999,114.525483 913.083755284,113.91767399999999 919.613055284,113.34919099999999 926.128655284,112.8007215 932.453055284,112.3053092 938.545155284,111.892542174 944.4497552839999,111.56986959999999 950.187155284,111.3265144 955.723655284,111.1532879 961.009755284,111.0475356 966.0194552840001,111.0084935 970.748155284,111.0310117 975.188055284,111.1030665 979.3270552839999,111.213087 983.165955284,111.3708011 986.722255284,111.59914719999999 990.0172552839999,111.885411865 993.079955284,112.1140377 995.974955284,112.1955734 998.8360552839999,112.3715967 1001.7157552839999,112.892713 1004.007155284,111.8886" stroke="black" stroke-width="2.0" /></svg>