<?xml version="1.0" encoding="utf-8" ?>
<svg baseProfile="full" height="205.17112" version="1.1" width="1011.9991849249" xmlns="http://www.w3.org/2000/svg" xmlns:ev="http://www.w3.org/2001/xml-events" xmlns:xlink="http://www.w3.org/1999/xlink"><defs /><polygon fill="none" points="1003.9991849249,135.1848 999.7021849248999,132.42968 994.0637849248999,130.492523 988.2739849249,128.666113 982.1911849249,126.863503 975.9083849249,125.05311999999999 969.3707849248999,123.25205 962.5424849248999,121.41023 955.4552849249,119.5097 948.1396849249,117.56159 940.6098849249,115.56308999999999 932.8811849248999,113.50142 924.9737849249,111.37723 916.9257849249,109.20967999999999 908.7972849249,107.01181 900.6287849249,104.77082 892.4135849249,102.46628 884.1357849249,100.10557 875.8272849248999,97.71707 867.5589849249,95.31953999999999 859.3713849249,92.9014 851.2479849249,90.4378 843.1496849248999,87.9223 835.0747849249,85.37182999999999 827.0702849249,82.81482 819.1955849249,80.25804 811.4657849249,77.68499 803.8491849248999,75.06709999999998 796.2898849249,72.39277999999999 788.7600849249,69.67888 781.2768849249,66.95833999999999 773.8983849248999,64.26783 766.6935849248999,61.613820000000004 759.7049849248999,58.98993 752.9500849248999,56.38494 746.4205849249,53.80278999999999 740.0730849249,51.284139999999994 733.8480849249,48.86212999999999 727.6751849248999,46.56012999999999 721.4731849248999,44.39430999999999 715.1674849248999,42.34528 708.7103849248999,40.373419999999996 702.0796849249,38.44676999999999 695.2879849249,36.54060999999999 688.3888849248999,34.64569999999999 681.4410849249,32.7852 674.4805849249,30.9829 667.5158849249,29.2547 660.5287849249,27.60889999999999 653.4854849248999,26.04039999999999 646.3573849249,24.538200000000003 639.1241849249,23.093900000000005 631.7752849248999,21.70129999999999 624.3106849249,20.356099999999984 616.7369849249,19.054599999999994 609.0671849249001,17.79339999999999 601.3208849248999,16.5694 593.5236849249,15.381799999999984 585.6987849249,14.23899999999999 577.8602849248999,13.1494 570.0124849249,12.120099999999994 562.1499849248999,11.155900000000003 554.2639849249,10.255999999999986 546.3475849248999,9.418599999999998 538.3967849249,8.642299999999992 530.4107849249,7.926099999999991 522.3912849249,7.268900000000002 514.3432849249,6.669700000000006 506.2751849249,6.127499999999969 498.1986849249,5.641500000000008 490.1246849249,5.214100000000002 482.0570849249,4.8489999999999895 473.9914849249,4.549499999999995 465.9150849249,4.3185 457.81278492490003,4.153500000000008 449.67868492490004,4.04910000000001 441.51938492490007,4.0 433.3544849249,4.000799999999998 425.20878492490004,4.053299999999979 417.09628492490003,4.163000000000011 409.0173849249,4.335700000000003 400.9592849249,4.576499999999982 392.9040849249,4.885099999999994 384.84288492490003,5.2572999999999865 376.7793849249,5.688199999999995 368.7296849249,6.17289999999997 360.71398492490005,6.7117999999999824 352.7421849249001,7.308999999999983 344.8114849249,7.9691999999999865 336.9074849249,8.697199999999995 329.0136849249,9.491399999999985 321.1258849249,10.346199999999996 313.25498492490004,11.254000000000005 305.4252849249,12.207499999999996 297.6617849249,13.207799999999992 289.9740849249,14.259799999999984 282.3562849249,15.37039999999999 274.7899849249,16.545299999999997 267.25998492490004,17.780599999999993 259.7689849249,19.067999999999984 252.33708492489998,20.395799999999994 244.9977849249,21.7556 237.77538492489998,23.1511 230.6727849249,24.5908 223.6746849249,26.085499999999996 216.7543849249,27.640100000000004 209.89788492489998,29.244699999999995 203.1138849249,30.884100000000004 196.43128492489998,32.538399999999996 189.8894849249,34.19789999999999 183.5119849249,35.86824 177.2996849249,37.55955 171.23698492489999,39.28425 165.3004849249,41.04513 159.4785849249,42.831559999999996 153.77618492489998,44.62862 148.2106849249,46.418499999999995 142.8060849249,48.19113999999999 137.5770849249,49.950019999999995 132.5238849249,51.70214999999999 127.63678492490001,53.45627 122.90008492490001,55.21834 118.2990849249,56.981819999999985 113.8287849249,58.73591999999999 109.49108492490001,60.46844 105.29258492490001,62.16703 101.2424249249,63.82755999999999 97.3450549249,65.45531 93.5978049249,67.05713999999999 89.99333492490001,68.64034 86.5217349249,70.21203999999999 83.17076492490001,71.77328 79.9301149249,73.31872999999999 76.79370492490001,74.84221 73.75832492490001,76.33736999999999 70.8224649249,77.79804999999999 67.9864749249,79.22077999999999 65.25245492490001,80.61003 62.6198449249,81.97208 60.0856149249,83.31312 57.6453149249,84.63907999999999 55.293714924899994,85.95551999999999 53.024264924899995,87.26563999999999 50.828614924899995,88.56656 48.7001549249,89.85421 46.6340749249,91.12445 44.6268249249,92.37325999999999 42.675794924899996,93.59679 40.7792949249,94.79196999999999 38.938874924900006,95.96088999999999 37.1566649249,97.10871 35.4334049249,98.24045 33.7687749249,99.36086 32.1617649249,100.47438 30.610904924899998,101.58515 29.1138549249,102.69622999999999 27.6655249249,103.80644 26.2610349249,104.91333999999999 24.8964449249,106.0144 23.5685849249,107.10705 22.2748249249,108.18876 21.0130549249,109.25703999999999 19.782814924900002,110.3107 18.588374924900002,111.35299 17.4339749249,112.38817 16.322804924899998,113.42039 15.2572049249,114.45371 14.2389349249,115.49204 13.2692089249,116.53917999999999 12.3452129249,117.5963 11.4592049249,118.66075 10.604124924899999,119.7293 9.773849924899999,120.79853 8.9630489249,121.86483 8.167101924899999,122.92448999999999 7.390078924900001,123.97664999999999 6.6561129249,125.02815 5.9895719249,126.087285 5.4120489249,127.16253499999999 4.9430564249,128.262581 4.5883889249,129.391763 4.3327898249,130.546504 4.1604618249,131.722344 4.0567477649,132.914615 4.0077360869,134.118356 4.0,135.3282498 4.0291483049,136.536608 4.1153960249,137.730303 4.2831502249,138.896121 4.5571657249,140.021602 4.9632912249,141.09471299999998 5.5247049249,142.105116 6.229914924900001,143.05507 7.0501869249,143.951921 7.9547999249,144.802219 8.911532924900001,145.61208 9.9048829249,146.38904 10.9314389249,147.14233 11.9875209249,147.88201 13.0688809249,148.61914 14.170814924899998,149.3653 15.2920249249,150.12369999999999 16.4352449249,150.88841 17.603804924899997,151.65275 18.801604924899998,152.40962 20.0331849249,153.15147 21.303864924899997,153.87028 22.6181049249,154.56072 23.9769549249,155.22445 25.3808449249,155.86417 26.830034924899998,156.48281 28.3245249249,157.08355 29.8639049249,157.66988 31.4473249249,158.24565 33.074884924900005,158.81407 34.7476849249,159.37789 36.4666949249,159.94025 38.2326449249,160.50473 40.0459749249,161.07546 41.906694924899995,161.65714 43.814604924899996,162.25387999999998 45.7708849249,162.86407 47.7775449249,163.48379 49.8371649249,164.10862 51.9530649249,164.73362 54.1295749249,165.35325 56.3723649249,165.96144999999999 58.687454924899995,166.55590999999998 61.079804924899996,167.14087 63.553994924899996,167.72181 66.1140749249,168.30509 68.76304492490002,168.89815 71.50213492490002,169.5096 74.3312749249,170.14507 77.25187492490001,170.80049 80.2665049249,171.46948 83.37925492490001,172.14469 86.59663492490002,172.81770999999998 89.9287449249,173.47946 93.3879949249,174.12809 96.98594492490001,174.77064 100.73291492490002,175.41584999999998 104.6363849249,176.0741 108.6984849249,176.75743 112.9159849249,177.47062 117.28568492490001,178.2044 121.80788492490001,178.94666 126.4884849249,179.68381 131.3427849249,180.40224999999998 136.39268492489998,181.10312 141.6567849249,181.79863999999998 147.14508492489998,182.50317 152.85168492489998,183.2326 158.75368492489997,183.98854 164.8293849249,184.75233 171.06988492489998,185.50289 177.4878849249,186.21948 184.11518492489998,186.90010999999998 190.9769849249,187.56321 198.07478492489997,188.22982 205.3752849249,188.91832 212.8249849249,189.61621 220.3920849249,190.29654 228.0820849249,190.93365 235.9377849249,191.51734 243.99718492489998,192.06631 252.2586849249,192.60269 260.6661849249,193.1445 269.1391849249,193.67792 277.63818492490003,194.17667999999998 286.17978492490005,194.61784 294.8238849249,194.99881 303.6109849249,195.3417 312.52808492490004,195.66998999999998 321.50178492490005,195.99887999999999 330.4534849249,196.30957 339.36168492490003,196.57682 348.26538492490005,196.77898 357.2365849249,196.91721 366.3125849249,197.01107 375.47058492490004,197.08107 384.62818492490004,197.13934999999998 393.7088849249,197.17112 402.6948849249,197.15796 411.62448492490006,197.08338 420.56158492490005,196.9484 429.5333849249,196.76837999999998 438.5121849249,196.56028 447.41988492490003,196.33615 456.18438492490003,196.08053999999998 464.7935849249,195.77128 473.2878849249,195.38645 481.7430849249,194.91441 490.22188492490005,194.36678 498.74598492490003,193.75946 507.29338492490007,193.11149 515.8069849249,192.43338 524.2388849248999,191.71967 532.5700849248999,190.96251 540.8073849248999,190.15294 548.9731849248999,189.28812 557.0847849249,188.37266 565.1475849249,187.41224 573.1569849249,186.41338 581.0976849248999,185.37981 588.9440849248999,184.31282 596.6616849249,183.21564 604.2107849248999,182.09319 611.5551849249,180.94069 618.6907849249,179.73619 625.6503849248999,178.45362 632.4933849248999,177.06225999999998 639.3016849249,175.52897 646.1651849249,173.84819 653.1462849249,172.03046 660.2685849249,170.09735 667.5043849249,168.08856 674.7784849248999,166.05886999999998 682.0321849249,164.05666 689.2550849249,162.11594 696.4841849249,160.25716 703.7931849249,158.47815 711.2403849249,156.74537999999998 718.8373849249,155.02996 726.5358849249,153.31368 734.2325849249,151.60617 741.8515849249,149.9525 749.3864849249,148.38606 756.8924849248999,146.92511 764.4597849249,145.55691 772.1440849249,144.242342 779.9371849249,142.949903 787.7579849248999,141.662805 795.5077849249,140.41041099999998 803.1543849248999,139.231165 810.7340849249,138.150039 818.3252849249,137.165001 825.9752849248999,136.245326 833.6673849248999,135.3650048 841.3241849248999,134.51393579999998 848.8779849249,133.720169 856.3281849248999,133.011819 863.7313849248999,132.404138 871.1461849249,131.87454 878.5687849248999,131.390487 885.9294849249,130.930486 893.1547849249,130.52108199999998 900.2414849249,130.20102 907.2459849249,129.99334199999998 914.2238849249,129.875735 921.1779849248999,129.81541099999998 928.0649849249,129.795314 934.8483849249,129.829516 941.5248849249,129.933481 948.1085849248999,130.113154 954.6079849249,130.369096 961.0244849249,130.702314 967.3605849249,131.11484000000002 973.6217849249,131.614034 979.8131849248999,132.218018 985.9435849249,132.96996099999998 992.0706849249,133.90567199999998 998.3244849248999,134.7396623 1003.9991849249,135.1848" stroke="black" stroke-width="2.0" /></svg>