<?xml version="1.0" encoding="utf-8" ?>
<svg baseProfile="full" height="155.3614" version="1.1" width="1011.995083011" xmlns="http://www.w3.org/2000/svg" xmlns:ev="http://www.w3.org/2001/xml-events" xmlns:xlink="http://www.w3.org/1999/xlink"><defs /><polygon fill="none" points="1003.995083011,106.1899 1001.8127830110001,104.258136 998.513983011,103.246648 995.119483011,102.152019 991.543083011,101.098383 987.592183011,100.07938999999999 983.242683011,98.98864999999999 978.572583011,97.829566 973.605183011,96.64104999999999 968.294983011,95.42051 962.627783011,94.15484 956.648583011,92.84741 950.4120830109999,91.50753999999999 943.951183011,90.13826 937.296883011,88.74096999999999 930.4930830110001,87.31897 923.5871830110001,85.87723 916.615083011,84.41859 909.599083011,82.94462999999999 902.555583011,81.45804999999999 895.499883011,79.96123 888.443483011,78.45515 881.392083011,76.93903999999999 874.3440830110001,75.41094 867.295383011,73.8701 860.2453830110001,72.31744 853.198583011,70.75489999999999 846.1628830110001,69.18365 839.144583011,67.60355 832.1474830110001,66.01381 825.172683011,64.41302999999999 818.218983011,62.799139999999994 811.283483011,61.169619999999995 804.361483011,59.52157999999999 797.446183011,57.853269999999995 790.529483011,56.16380999999999 783.602183011,54.45204 776.654083011,52.71667999999999 769.676883011,50.95914 762.671583011,49.184439999999995 755.6502830109999,47.400619999999996 748.636783011,45.61881999999999 741.6583830110001,43.852019999999996 734.734783011,42.11140999999999 727.876483011,40.40540999999999 721.085383011,38.73988999999999 714.357283011,37.11883999999999 707.6850830110001,35.545249999999996 701.059883011,34.02148 694.470683011,32.54943 687.905483011,31.129719999999992 681.3534830110001,29.76048 674.805583011,28.440039999999996 668.2543830110001,27.167249999999996 661.693583011,25.941459999999992 655.118683011,24.761470000000003 648.525283011,23.625349999999997 641.9091830110001,22.531229999999994 635.266283011,21.47735 628.592483011,20.462000000000003 621.8842830110001,19.482899999999987 615.140183011,18.53765999999999 608.360983011,17.62415 601.549783011,16.740499999999997 594.712183011,15.885379999999998 587.854183011,15.058889999999991 580.981083011,14.261299999999991 574.0967830110001,13.49266 567.204183011,12.752839999999992 560.304983011,12.041699999999992 553.400283011,11.359379999999987 546.490983011,10.705969999999994 539.5772830110001,10.08153999999999 532.659483011,9.486119999999985 525.737583011,8.919679999999985 518.812083011,8.382189999999994 511.884583011,7.873679999999993 504.95708301100007,7.394199999999998 498.03258301100004,6.943899999999999 491.113983011,6.523510000000002 484.20268301100003,6.133799999999994 477.29908301100005,5.775599999999997 470.40228301100007,5.4495000000000005 463.51018301100004,5.155900000000003 456.621083011,4.894999999999996 449.734483011,4.666700000000006 442.85118301100005,4.471199999999996 435.973283011,4.308499999999995 429.10388301100005,4.1791999999999945 422.245083011,4.084099999999992 415.39758301100005,4.02409999999999 408.56068301100004,4.0 401.73228301100005,4.012499999999989 394.909583011,4.062099999999987 388.090783011,4.148799999999994 381.274583011,4.272400000000005 374.46128301100003,4.433199999999985 367.651783011,4.631 360.846983011,4.866299999999995 354.047483011,5.139200000000002 347.25318301100003,5.450000000000003 340.463183011,5.799199999999999 333.676283011,6.186799999999991 326.890883011,6.612649999999988 320.10568301100005,7.076669999999993 313.319183011,7.578739999999996 306.530183011,8.118719999999996 299.738283011,8.696240000000003 292.94448301100005,9.310689999999994 286.151783011,9.961259999999996 279.364983011,10.64694 272.58968301100003,11.367419999999996 265.82938301100006,12.123379999999997 259.08508301099994,12.915779999999998 252.354683011,13.745919999999998 245.633783011,14.614940000000004 238.919283011,15.52288999999999 232.211283011,16.46933999999999 225.513083011,17.45335999999999 218.830883011,18.47394 212.170583011,19.53134999999999 205.53478301099997,20.626479999999987 198.922783011,21.760729999999995 192.330883011,22.935609999999997 185.75678301099998,24.151329999999987 179.202483011,25.407110000000003 172.674383011,26.701219999999992 166.182483011,28.032089999999997 159.73708301099998,29.39985999999999 153.345583011,30.805179999999993 147.01288301099999,32.24893 140.742683011,33.73246 134.539483011,35.2569 128.409183011,36.822779999999995 122.358983011,38.43016999999999 116.396183011,40.07982999999999 110.52678301099999,41.77262999999999 104.75548301100001,43.50929999999999 99.086613011,45.28970999999999 93.526953011,47.111909999999995 88.085803011,48.97245999999999 82.774353011,50.866569999999996 77.607413011,52.787479999999995 72.603273011,54.72589999999999 67.780913011,56.67095 63.158793011,58.612269999999995 58.752933010999996,60.53981999999999 54.57424301099999,62.443769999999994 50.628653011,64.31518 46.920743011,66.14482999999998 43.452503011,67.92362 40.221173011,69.64428 37.220783010999995,71.30426 34.442273011,72.9041 31.872913010999998,74.44512999999999 29.497683011,75.92944 27.301503011,77.36005 25.270133011,78.74047999999999 23.389673011,80.07401999999999 21.646823011,81.36377999999999 20.029283010999997,82.61274999999999 18.527443011,83.82453 17.133623011,85.00242999999999 15.840613011,86.14896999999999 14.641483011,87.26615 13.529578011,88.35567999999999 12.498947011,89.41909 11.544713010999999,90.45832999999999 10.661812011,91.47574999999999 9.845165011,92.47385 9.089959011000001,93.45512 8.391778011,94.42192 7.7469470110000005,95.37646 7.154338011,96.32020399999999 6.614088011,97.25338599999999 6.126381010999999,98.175283 5.691141011,99.08457999999999 5.307841011,99.97965199999999 4.975430111,100.85879 4.693007011,101.71988599999999 4.459967111,102.56159299999999 4.275088911,103.384878 4.137149211,104.19227799999999 4.045417221,104.987342 4.0,105.77439269999999 4.002101845,106.55850799999999 4.052755671,107.344376 4.152773411,108.134962 4.304250111,108.93202199999999 4.510430511,109.73602299999999 4.775457711,110.54580899999999 5.103957011,111.35803299999999 5.499389011,112.167812 5.961700011,112.972225 6.489567011,113.76898399999999 7.080986011,114.55604699999999 7.733429011,115.331724 8.444055011,116.09479599999999 9.211616011,116.84513 10.038408011000001,117.58402 10.927298011000001,118.31299 11.881172011,119.03365 12.902702011,119.74771999999999 13.993987011,120.45702999999999 15.157733011,121.16283 16.398723011,121.86546999999999 17.722153011,122.56555 19.133503011000002,123.26407999999999 20.638473011,123.96271999999999 22.243253011,124.66371 23.956563011,125.36805 25.789173010999995,126.07587 27.753013011,126.78751 29.861183010999998,127.50363999999999 32.128163011,128.22539999999998 34.57079301099999,128.95373 37.207683011,129.68957999999998 40.057983011,130.43452 43.140323011,131.1911 46.472263011,131.96062 50.069883010999995,132.74054999999998 53.945373011,133.52764 58.107433011,134.31884 62.562053011,135.11025999999998 67.308033011,135.89669999999998 72.33523301100001,136.67313 77.627073011,137.43447 83.16177301100001,138.17441 88.91491301100001,138.8878 94.865133011,139.57161 100.992383011,140.2244 107.273783011,140.84596 113.685083011,141.43679 120.20318301100001,141.99599999999998 126.807383011,142.52303 133.481383011,143.01819999999998 140.213183011,143.48156 146.993583011,143.91319 153.81588301099998,144.31357 160.67628301099998,144.68361 167.571483011,145.02445 174.49808301099998,145.33737 181.453083011,145.62365 188.433583011,145.88434999999998 195.437283011,146.12053 202.462183011,146.33332 209.50668301099998,146.52376999999998 216.569083011,146.69275 223.647383011,146.8412 230.73878301099998,146.97 237.84078301099998,147.07972999999998 244.95168301099997,147.17073 252.070883011,147.24338 259.19908301099997,147.29808 266.33688301100005,147.33548 273.48358301100006,147.35632999999999 280.63608301100004,147.3614 287.78938301100004,147.35142 294.937783011,147.32602 302.077483011,147.28422 309.20668301100005,147.22507 316.32608301100004,147.1476 323.437983011,147.05123 330.544183011,146.93572 337.64558301100004,146.80082 344.741883011,146.64634 351.832283011,146.47197 358.915383011,146.27718 365.99048301100004,146.06142 373.056783011,145.82414 380.113983011,145.56481 387.162483011,145.28289 394.20398301100005,144.9778 401.24158301100005,144.64888 408.27968301100003,144.29534999999998 415.324183011,143.91694 422.380083011,143.51457 429.450383011,143.08936 436.53648301100003,142.64252 443.63768301100004,142.17538 450.752083011,141.68903999999998 457.878283011,141.18439 465.01558301100005,140.6623 472.164283011,140.12358 479.325183011,139.56905 486.498983011,138.99966999999998 493.68498301100004,138.41656 500.881083011,137.82097 508.083983011,137.21420999999998 515.2892830110001,136.59699999999998 522.492683011,135.96940999999998 529.689983011,135.33149 536.877683011,134.68329 544.052583011,134.02465 551.211783011,133.35465 558.3531830109999,132.67217 565.475283011,131.97607 572.5772830110001,131.26518 579.658783011,130.53819 586.720083011,129.79367 593.761783011,129.03016 600.785383011,128.24612 607.792383011,127.4401 614.785783011,126.6111 621.769983011,125.75814 628.750883011,124.87993 635.7363830109999,123.97492 642.735483011,123.04254999999999 649.756283011,122.08434 656.804383011,121.10231999999999 663.882583011,120.09890999999999 670.990683011,119.07717 678.125183011,118.04164 685.277783011,116.99797 692.4352830109999,115.95263299999999 699.579883011,114.91281199999999 706.692583011,113.886123 713.7605830110001,112.879322 720.779283011,111.897776 727.7508830109999,110.945591 734.683083011,110.02510799999999 741.583583011,109.137385 748.458383011,108.28363499999999 755.312083011,107.46529199999999 762.147883011,106.6836278 768.968683011,105.93919149999999 775.7779830110001,105.2324172 782.5795830110001,104.56374699999999 789.377983011,103.933331 796.176783011,103.34052399999999 802.978383011,102.78470999999999 809.7834830109999,102.26543199999999 816.591783011,101.7824 823.401783011,101.33549099999999 830.211283011,100.92461399999999 837.017283011,100.549697 843.8162830110001,100.21110399999999 850.6049830110001,99.90959 857.380383011,99.645843 864.1400830110001,99.42058499999999 870.880783011,99.234977 877.5976830110001,99.090249 884.284483011,98.98760899999999 890.935083011,98.92926399999999 897.548583011,98.91799599999999 904.1289830110001,98.956418 910.682583011,99.045267 917.208983011,99.183472 923.699383011,99.369737 930.139883011,99.60382399999999 936.519183011,99.88626099999999 942.829183011,100.217063 949.054983011,100.594094 955.165083011,101.013212 961.1222830109999,101.471081 966.9069830110001,101.966937 972.511983011,102.49674399999999 977.8857830110001,103.04396799999999 982.941183011,103.60370599999999 987.6785830110001,104.222743 992.189983011,104.913546 996.489283011,105.5795613 1000.5549830110001,106.0547199 1003.995083011,106.1899" stroke="black" stroke-width="2.0" /></svg>