<?xml version="1.0" encoding="utf-8" ?>
<svg baseProfile="full" height="285.84069999999997" version="1.1" width="1012.1920484" xmlns="http://www.w3.org/2000/svg" xmlns:ev="http://www.w3.org/2001/xml-events" xmlns:xlink="http://www.w3.org/1999/xlink"><defs /><polygon fill="none" points="1004.1920484,169.6996 999.0691483999999,168.07507 992.8597484000001,166.38768000000002 986.3556484,164.63513 979.5596484,162.80935000000002 972.4698483999999,160.90279 965.0908484,158.92062 957.4234483999999,156.87393 949.4755484,154.76098000000002 941.2663484,152.58039000000002 932.8194483999999,150.33258 924.1556484,148.02492 915.2933484,145.67278000000002 906.2506484,143.28871 897.0422484000001,140.88054 887.6793484,138.44679000000002 878.1755484,135.97500000000002 868.5449484,133.45843000000002 858.7999484,130.90656 848.9547484,128.33100000000002 839.0283483999999,125.73801 829.0438484,123.13273000000001 819.0229484,120.52433 808.9739484,117.92320000000001 798.8891484000001,115.33386 788.7582484,112.75055000000002 778.5798484,110.16698000000001 768.3612484,107.58028000000002 758.1167484,104.99106 747.8659484,102.40126000000001 737.6290484,99.81003 727.4118483999999,97.21095000000001 717.2029484,94.59457000000002 706.9842484,91.96005000000001 696.7509484,89.31473 686.5161484,86.66879 676.2997484,84.02327000000001 666.1092484,81.37220000000002 655.9370484,78.70790000000001 645.7679483999999,76.0323 635.5931484,73.35320000000002 625.4131484,70.68000000000002 615.2353483999999,68.01690000000002 605.0689484000001,65.36550000000001 594.9226484,62.72700000000002 584.8058484,60.0989 574.7272484,57.47640000000001 564.6944483999999,54.85470000000001 554.7118484,52.23650000000001 544.7789484,49.63140000000001 534.8932484,47.0487 525.0520484,44.49310000000003 515.2633484,41.96300000000002 505.5488484,39.459 495.94084839999994,36.9862 486.4693484,34.55790000000002 477.14984839999994,32.18670000000003 467.9857484,29.880899999999997 458.9736484,27.642799999999994 450.1163484,25.471600000000024 441.4244484,23.36790000000002 432.9137484,21.334400000000016 424.5996484,19.38020000000003 416.49334839999995,17.51600000000002 408.6021484,15.749800000000022 400.9295484,14.0882 393.47134839999995,12.542900000000003 386.2114484,11.124799999999993 379.12574839999996,9.840600000000023 372.1852484,8.694900000000018 365.3610484,7.686500000000024 358.63014839999994,6.809000000000026 351.97404839999996,6.057700000000011 345.37764839999994,5.429300000000012 338.8285484,4.921500000000009 332.31734839999996,4.529800000000023 325.8369484,4.248700000000014 319.3831484,4.073500000000024 312.95394839999994,4.0 306.54964839999997,4.024599999999992 300.17124839999997,4.145800000000008 293.8197484,4.362600000000015 287.49644839999996,4.673700000000025 281.20274839999996,5.078300000000013 274.94014839999994,5.575600000000037 268.7097484,6.165700000000015 262.5121484,6.848700000000008 256.34694840000003,7.625100000000003 250.2134484,8.495200000000011 244.1103484,9.457799999999992 238.03744840000002,10.510700000000014 231.9962484,11.651200000000017 225.9891484,12.8767 220.0200484,14.18440000000001 214.09334840000002,15.572100000000006 208.21304840000002,17.03830000000002 202.3828484,18.580900000000014 196.60604840000002,20.198000000000008 190.88574839999998,21.887100000000004 185.2254484,23.645500000000027 179.6288484,25.469799999999992 174.10024840000003,27.35650000000001 168.6442484,29.3022 163.2656484,31.303699999999992 157.9692484,33.35759999999999 152.7597484,35.46070000000003 147.6413484,37.609200000000016 142.6184484,39.79990000000001 137.6944484,42.030100000000004 132.8717484,44.29730000000001 128.1520484,46.599200000000025 123.5356484,48.933100000000024 119.0228484,51.2946 114.61464840000001,53.67810000000003 110.31294840000001,56.077800000000025 106.1201484,58.48730000000002 102.0392884,60.90150000000001 98.0732984,63.31760000000001 94.2231684,65.73370000000001 90.4883984,68.14850000000001 86.8672684,70.561 83.35650840000001,72.9693 79.95270839999999,75.36880000000001 76.6536384,77.75450000000001 73.4578884,80.12120000000002 70.3645384,82.46355000000001 67.3738584,84.77809 64.4870584,87.06474000000001 61.70373839999999,89.32453000000001 59.0221584,91.55905000000001 56.4396284,93.77028 53.9526584,95.96017 51.555828399999996,98.12826 49.243818399999995,100.27233000000001 47.0123584,102.38981000000001 44.8579784,104.47793 42.777778399999995,106.53394 40.7694884,108.55546000000001 38.8336584,110.54296000000001 36.9712384,112.49878000000001 35.1820084,114.42565000000002 33.4649984,116.32654000000001 31.818668400000004,118.20449 30.2411584,120.06256 28.728598400000003,121.90229000000002 27.274748400000004,123.72253 25.8742184,125.52151 24.5224984,127.29718000000001 23.2158084,129.04734000000002 21.9508984,130.76973 20.7250884,132.46223 19.5398284,134.12492 18.4005484,135.76083 17.3115984,137.37342 16.2762384,138.96628 15.296858400000001,140.54304000000002 14.3752384,142.10732000000002 13.512653399999998,143.66266000000002 12.706561399999998,145.2109 11.9496354,146.75119 11.2350574,148.28216 10.556809399999999,149.80217000000002 9.9095354,151.30941 9.2884434,152.80191000000002 8.689233399999999,154.27765 8.1086004,155.73462 7.5507154,157.1719 7.0241154,158.58961 6.5363413999999995,159.98829 6.0939674,161.36873 5.7027524,162.73197000000002 5.3677794,164.07921000000002 5.0930192000000005,165.41177000000002 4.8748124,166.73103 4.7049249,168.03831 4.5757306,169.33477000000002 4.4802193,170.62146 4.411916,171.89936 4.3648135,173.16932400000002 4.3333153,174.432163 4.3121878,175.68860700000002 4.2965192,176.93932900000001 4.28168413,178.18494900000002 4.26331404,179.42604 4.23727072,180.66313100000002 4.199623956,181.89671520000002 4.14818422,183.12681600000002 4.0909953,184.350697 4.0397935,185.564828 4.0058368,186.766061 4.0,187.951571 4.0329032,189.11881 4.11506152,190.265444 4.25705642,191.38930100000002 4.4697337,192.48832000000002 4.7644358,193.56048 5.1532818,194.60376000000002 5.6467354,195.61708000000002 6.2328694,196.60791 6.8875474,197.58784 7.5850494,198.5685 8.297570400000001,199.56159000000002 8.9978284,200.57755 9.6826104,201.6149 10.3622354,202.66587 11.0480134,203.72233 11.7521794,204.77595000000002 12.4879764,205.81813 13.2698064,206.83998 14.1133114,207.83237 15.027328399999998,208.79117000000002 16.0090784,209.71996000000001 17.0544484,210.62296 18.158698400000002,211.50454000000002 19.3162384,212.36924000000002 20.5203484,213.2219 21.763048400000002,214.06755 23.0396884,214.90924 24.351038400000004,215.74734 25.6983384,216.5822 27.082958400000003,217.41434 28.506488400000002,218.24444 29.9707684,219.07342 31.477958400000002,219.90244 33.0300384,220.73245000000003 34.6285884,221.5641 36.2752084,222.39801 37.9714084,223.2349 39.7186484,224.07549 41.51825839999999,224.92058 43.3714284,225.77093000000002 45.2799084,226.62664 47.246148399999996,227.48723 49.272788399999996,228.35217 51.3627184,229.22087000000002 53.519118399999996,230.09273000000002 55.7455884,230.96710000000002 58.0461084,231.84352 60.424718399999996,232.72220000000002 62.8856284,233.60358000000002 65.4332084,234.48815000000002 68.0720884,235.37649000000002 70.8071584,236.26932 73.64361840000001,237.16752000000002 76.5870584,238.07245 79.6431884,238.98579 82.8176284,239.90951 86.1158084,240.8459 89.54284840000001,241.79766 93.1038584,242.76634 96.80466840000001,243.75101 100.65146840000001,244.75028 104.6509484,245.76248 108.8105484,246.78579000000002 113.13864840000001,247.81909000000002 117.6434484,248.86267 122.3325484,249.91691000000003 127.21204840000001,250.98218000000003 132.2864484,252.05849 137.5593484,253.14373 143.0335484,254.23454 148.7125484,255.32734 154.6005484,256.41862000000003 160.70204840000002,257.50679 167.01944840000002,258.59148 173.5512484,259.67225 180.29164839999999,260.74807 187.23204840000002,261.81468 194.3645484,262.86668000000003 201.68364839999998,263.89901000000003 209.1871484,264.90899 216.8701484,265.89777000000004 224.7212484,266.86693 232.72124839999998,267.81724 240.8470484,268.74342 249.07874840000002,269.63785 257.4019484,270.4936 265.80854839999995,271.30545 274.2932484,272.06989 282.8530484,272.7837 291.4869484,273.44475 300.19394839999995,274.05484 308.97154839999996,274.6169 317.81504839999997,275.13396 326.7166484,275.60857 335.6637484,276.04284 344.6374484,276.43893 353.6143484,276.79658 362.57614839999997,277.10901 371.5171484,277.36898 380.44414839999996,277.57024 389.36924839999995,277.713 398.29564839999995,277.80169 407.21434839999995,277.84069999999997 416.10544839999994,277.83227 424.9520484,277.7712 433.7510484,277.65102 442.5131484,277.46541 451.25754839999996,277.21389 459.99444839999995,276.90384 468.71774839999995,276.54354 477.4057484,276.14117 486.02974839999996,275.69522 494.5715484,275.19801 503.0262484,274.64183 511.40004839999995,274.01934 519.7042484,273.32672 527.9482484,272.56143 536.1396483999999,271.72093 544.2838484,270.80244000000005 552.3858484,269.80213000000003 560.4516484,268.71544 568.4891484,267.53735 576.5079483999999,266.26246000000003 584.5221484,264.88588000000004 592.5541484,263.40094 600.6368484,261.7975 608.8156484,260.06394 617.1415484,258.20550000000003 625.6474483999999,256.24014 634.3362484,254.19632000000001 643.1711484,252.10741000000002 652.0920484,249.98708 661.0458484000001,247.84227 669.9932484,245.67783 678.9155484,243.51219 687.8160484,241.37355000000002 696.7164484,239.28572000000003 705.6520483999999,237.25976 714.6466484,235.28320000000002 723.7014483999999,233.3443 732.7945484,231.43784 741.9001483999999,229.57255 751.0139484,227.75826 760.1556483999999,225.99913 769.3531484,224.28554 778.6118484,222.60374000000002 787.9080484,220.94589000000002 797.2061484000001,219.32104 806.4957483999999,217.7443 815.7965483999999,216.22340000000003 825.1362484,214.74702000000002 834.5187483999999,213.29907 843.9209483999999,211.86992 853.3088484,210.46016 862.6501484,209.07129 871.9156484,207.69684 881.0815484,206.32312000000002 890.1309484,204.93878 899.0508484,203.53991000000002 907.8292484,202.12437 916.4576484,200.68936000000002 924.9353484000001,199.23253 933.2650484000001,197.77146000000002 941.4364483999999,196.339 949.4235484,194.95282 957.1956484,193.61668 964.7320483999999,192.34255000000002 972.0331484,191.14001100000002 979.0942484000001,189.984036 985.9016483999999,188.87649900000002 992.4821483999999,187.870638 998.8460484,186.93869700000002 1004.1920484,186.2196" stroke="black" stroke-width="2.0" /></svg>