<?xml version="1.0" encoding="utf-8" ?>
<svg baseProfile="full" height="275.30863999999997" version="1.1" width="1011.1305683999999" xmlns="http://www.w3.org/2000/svg" xmlns:ev="http://www.w3.org/2001/xml-events" xmlns:xlink="http://www.w3.org/1999/xlink"><defs /><polygon fill="none" points="1003.1305683999999,171.19789999999998 997.7706684,170.120813 992.2166683999999,168.205018 986.4215684,167.06574999999998 980.4693684,165.78605 974.3177684,164.43268999999998 967.9117683999999,163.09751999999997 961.2562684,161.68856 954.3556684,160.19713 947.2143684,158.6705 939.8557684,157.09557999999998 932.2986684,155.42095 924.5372684,153.65372 916.5704683999999,151.85461999999998 908.4277684,150.04130999999998 900.1432683999999,148.15669 891.7181684,146.15508999999997 883.1303684,144.07988 874.3824683999999,141.99922999999998 865.5136684,139.91155999999998 856.5530683999999,137.75421 847.4899684,135.48194999999998 838.2949684,133.13366 828.9699684,130.77325 819.5587684,128.41684999999998 810.1017684,126.02004 800.6032683999999,123.53608 791.0386683999999,120.9823 781.4007684,118.41170999999999 771.7174683999999,115.86694999999999 762.0352684,113.32274 752.3771684,110.73250999999999 742.7339684,108.07059 733.0806684,105.37488999999998 723.4096684,102.69782 713.7390684,100.06905999999998 704.1037683999999,97.45600999999999 694.5291683999999,94.81540999999999 685.0229684,92.12475999999998 675.5704683999999,89.42571 666.1543684,86.77040999999998 656.7618683999999,84.19814999999998 647.4002684,81.67910999999998 638.0855683999999,79.15969999999999 628.8343684,76.59079999999999 619.6485683999999,73.9776 610.5141683999999,71.3746 601.4138683999998,68.8356 592.3338683999999,66.39099999999999 583.2795684,63.99559999999998 574.2608683999999,61.58889999999998 565.2865684,59.113299999999995 556.3505683999999,56.564599999999984 547.4301684,53.996099999999984 538.5003684,51.462899999999976 529.5382684,49.010399999999976 520.5428684,46.6155 511.53186840000006,44.228699999999975 502.53386839999996,41.80299999999997 493.5791684,39.322 484.6731684,36.83309999999997 475.8029684,34.386799999999994 466.9402684,32.02600000000001 458.0633684,29.747599999999977 449.1835684,27.511599999999987 440.3436684,25.284399999999977 431.6104684,23.049499999999995 423.0326684,20.84899999999999 414.61646840000003,18.7346 406.3358684,16.744399999999985 398.1448684,14.897999999999996 390.0153684,13.183699999999988 381.9535684,11.590799999999973 373.9946684,10.114299999999986 366.1908684,8.762 358.5670684,7.565599999999989 351.10126840000004,6.549700000000001 343.73716840000003,5.732699999999966 336.39396840000006,5.122399999999999 329.0024684,4.686399999999992 321.5379684,4.385799999999989 314.02586840000004,4.183099999999996 306.54326840000004,4.047499999999985 299.1719684,4.0 291.9400684,4.076899999999995 284.8251684,4.310999999999979 277.7650684,4.731500000000011 270.68666840000003,5.326699999999988 263.5540684,6.062899999999985 256.3802684,6.900499999999994 249.2312684,7.795599999999979 242.1952684,8.750599999999991 235.3142684,9.799399999999991 228.5772684,10.979199999999992 221.9315684,12.329199999999986 215.3050684,13.847700000000003 208.6584684,15.498099999999994 202.0033684,17.230499999999978 195.4034684,18.984499999999997 188.95166840000002,20.749300000000005 182.6976684,22.557299999999998 176.63876840000003,24.448499999999996 170.7355684,26.466799999999978 164.9257684,28.613799999999998 159.1711684,30.852199999999982 153.47236840000002,33.13130000000001 147.86536840000002,35.3895 142.4159684,37.60519999999997 137.1720684,39.808400000000006 132.1428684,42.03699999999998 127.3122684,44.332599999999985 122.6428684,46.71870000000001 118.08826839999999,49.1704 113.6223684,51.650199999999984 109.2383684,54.11409999999998 104.9450684,56.51649999999999 100.7752884,58.850899999999996 96.7596784,61.1442 92.9104784,63.426 89.2276584,65.72669999999998 85.7013084,68.0726 82.30232840000001,70.45689999999999 79.0030484,72.85589999999999 75.78556839999999,75.2432 72.6393784,77.59103999999998 69.56051839999999,79.8727 66.56356840000001,82.08497 63.6708284,84.24681999999999 60.8955784,86.37881999999999 58.2443984,88.50122999999998 55.719848400000004,90.63333999999999 53.3170184,92.78788999999998 51.013528400000006,94.95479 48.7878384,97.11822999999998 46.6229984,99.26204 44.505668400000005,101.36998999999999 42.4254684,103.42623999999999 40.3782084,105.41972999999999 38.3788084,107.3595 36.444018400000004,109.26069 34.5863284,111.13798 32.8149384,113.0054 31.136628400000003,114.87622999999999 29.5546384,116.76158999999998 28.055848400000002,118.65843999999998 26.621428400000003,120.55652999999998 25.235258400000003,122.44541999999998 23.883428400000003,124.31465999999999 22.553978400000002,126.15391 21.2366684,127.95317 19.927778399999998,129.70632 18.6430984,131.42102 17.4003484,133.10832 16.2142684,134.77908 15.0972384,136.44387999999998 14.0597564,138.11299 13.109293399999999,139.79547 12.2378904,141.49151 11.4312814,143.19635 10.676762400000001,144.90461 9.962924399999999,146.61041999999998 9.2794504,148.30750999999998 8.6170054,149.98934 7.9692343999999995,151.64976 7.3455664,153.28664999999998 6.7609364,154.90048 6.2283854,156.49258999999998 5.7592994,158.06493 5.3637234,159.61998 5.049252,161.16051 4.8097623,162.68902 4.6327795,164.20745 4.5068318000000005,165.71741 4.4213296,167.22017 4.3664208,168.71674299999998 4.3328834,170.20791699999998 4.3120474,171.69425999999999 4.29574002,173.176156 4.27624887,174.653822 4.24629968,176.127324 4.199044913,177.59659222 4.13300695,179.060051 4.0648284,180.511271 4.0142739,181.94350599999999 4.0,183.350855 4.0397555,184.728131 4.15064293,186.07072699999998 4.3494287,187.374474 4.6529023,188.63550999999998 5.0782907,189.85013999999998 5.6412174,191.01570999999998 6.3246953999999995,192.14287 7.0877104,193.25132 7.8875494,194.36041999999998 8.6798654,195.48911999999999 9.4392404,196.64488 10.1796504,197.81365 10.9202704,198.97903 11.6810054,200.12474 12.482559400000001,201.23458 13.3466314,202.29233 14.2954984,203.28214 15.3347584,204.20359 16.4518284,205.07211999999998 17.632428400000002,205.9042 18.860918400000003,206.71690999999998 20.1198884,207.52819 21.389908400000003,208.35696 22.6560084,209.21589 23.9211984,210.09756 25.1924384,210.99043999999998 26.4774884,211.88243999999997 27.7849884,212.76092 29.124518400000003,213.6127 30.5067784,214.42398 31.942078400000003,215.18278999999998 33.430918399999996,215.89371999999997 34.9692484,216.56861999999998 36.5523584,217.22019999999998 38.174678400000005,217.86223999999999 39.8296184,218.50974 41.50932840000001,219.17911999999998 43.2049284,219.88744 44.9137884,220.63826999999998 46.639848400000005,221.42208 48.3879584,222.22795 50.1637384,223.04387 51.9737084,223.85676999999998 53.8254184,224.65242999999998 55.72764840000001,225.41528 57.6888384,226.13266 59.7106584,226.80964 61.7924384,227.45698 63.9329284,228.08674 66.1299884,228.71254 68.3804084,229.34975 70.6795384,230.01581 73.0218384,230.72782999999998 75.40734839999999,231.48489999999998 77.8397184,232.27589999999998 80.32353839999999,233.08808 82.8644984,233.90698999999998 85.4697384,234.71641 88.14811839999999,235.49812 90.90961839999999,236.23548 93.75920839999999,236.93272 96.69921839999999,237.60325 99.7310184,238.26269 102.8544884,238.92925 106.06736839999999,239.62416 109.36486839999999,240.37076 112.74476839999998,241.17307 116.2100684,242.01495 119.7651684,242.87684000000002 123.41706839999999,243.73624999999998 127.1757684,244.56759 131.0551684,245.34479 135.0662684,246.0693 139.2156684,246.76163 143.5079684,247.44639999999998 147.94326840000002,248.15287999999998 152.5157684,248.91487 157.2175684,249.74353 162.0464684,250.61388999999997 167.00476840000002,251.49435999999997 172.10056840000001,252.34902 177.35056840000001,253.13921 182.7738684,253.85884 188.38336840000002,254.53722 194.1842684,255.21033999999997 200.1700684,255.92066 206.3204684,256.69933 212.61716840000003,257.51931 219.0515684,258.33672 225.62966839999999,259.10371 232.3749684,259.77893 239.31316840000002,260.37969 246.45596840000002,260.94858 253.79366840000003,261.53427999999997 261.2888684,262.17622 268.9000684,262.84452999999996 276.6069684,263.48613 284.4185684,264.0465 292.37236839999997,264.49658999999997 300.50116840000004,264.87369 308.8086684,265.22866 317.2581684,265.61476999999996 325.7850684,266.0319 334.3478684,266.42623 342.9484684,266.74224 351.6317684,266.93832999999995 360.44906840000004,267.04131 369.4111684,267.10095 378.4743684,267.17016 387.5514684,267.25685999999996 396.5860684,267.30863999999997 405.5825684,267.27088 414.60186840000006,267.10055 423.7164684,266.82099999999997 432.94776840000003,266.48202 442.2485684,266.13864 451.51616839999997,265.80664 460.68136840000005,265.43827999999996 469.74866840000004,264.98129 478.7861684,264.39032 487.8787684,263.68059 497.0518684,262.89903 506.2518684,262.10143 515.3576684,261.31462 524.2842684,260.48968 533.0399683999999,259.56665999999996 541.7095684,258.48411999999996 550.4180683999999,257.22874 559.2405683999999,255.83943999999997 568.1612683999999,254.37306999999998 577.0619684,252.89405 585.7962684,251.38770999999997 594.3137684,249.79771 602.6588684,248.05777 610.9469684,246.11753 619.3131684,244.00736999999998 627.8531684,241.78277 636.6119683999999,239.52024999999998 645.5658684,237.27182 654.6538684,235.01790999999997 663.8201684,232.72645999999997 673.0248684,230.37106 682.2615684,227.98471 691.5520683999999,225.6188 700.9423684,223.31754999999998 710.4759683999999,221.0744 720.1480683999999,218.84866999999997 729.8925684,216.61054 739.6149684,214.3818 749.2818683999999,212.22021999999998 758.9388683999999,210.16483 768.6658684,208.19978999999998 778.4778683999999,206.27381 788.2969684,204.35493 798.0180684,202.47951999999998 807.6265683999999,200.70725 817.1977684,199.06435 826.7981684,197.50163999999998 836.3971683999999,195.96132999999998 845.8917683999999,194.44174999999998 855.2413683999999,193.01156999999998 864.5084684,191.71829 873.7663684,190.52525 882.9834684,189.36808 892.0523683999999,188.24772 900.9462683999999,187.24099099999998 909.7449684,186.38626599999998 918.4957684,185.620816 927.1257684,184.88697399999998 935.5555684,184.23223199999998 943.8155684,183.716749 951.9516683999999,183.309654 959.9236684,182.96755 967.6930683999999,182.731655 975.2912683999999,182.629046 982.7267684,182.62431099999998 989.9825684,182.742929 997.0811683999999,183.02866 1003.1305683999999,183.3879" stroke="black" stroke-width="2.0" /></svg>