<?xml version="1.0" encoding="utf-8" ?>
<svg baseProfile="full" height="358.3815" version="1.1" width="1011.0437737" xmlns="http://www.w3.org/2000/svg" xmlns:ev="http://www.w3.org/2001/xml-events" xmlns:xlink="http://www.w3.org/1999/xlink"><defs /><polygon fill="none" points="1003.0437737,200.13460000000003 996.2064737000001,198.10905000000002 988.0633737,196.18491000000003 979.7494737000001,194.23813 971.2969737000001,192.29483000000002 962.7405737,190.29928 954.0746737000001,188.2022 945.3174737,186.09910000000002 936.5447737000001,183.94878000000003 927.7433737000001,181.66902000000002 918.8536737000001,179.33761 909.9055737000001,177.03733000000003 900.9613737,174.68987 891.9925737,172.19841000000002 882.9172737,169.61116 873.7250737,167.03333000000003 864.4872737000001,164.46283000000003 855.2359737,161.80227000000002 845.9140737,158.99029000000002 836.4491737,156.08688 826.8489737,153.18584000000004 817.1972737,150.29073 807.5413737,147.32669 797.8477737000001,144.22955000000002 788.0517737,141.03911 778.1485737,137.83910000000003 768.2120737,134.67382000000003 758.3178737000001,131.49392 748.4774737,128.22862000000003 738.6409737,124.86959000000002 728.7684737,121.48030000000001 718.8712737000001,118.13820000000001 709.0155737,114.85190000000003 699.2629737000001,111.57010000000002 689.6407737000001,108.23830000000001 680.1305737,104.87030000000001 670.6969737000001,101.53290000000001 661.3107737,98.29120000000002 651.9679737,95.15570000000001 642.6962737000001,92.06490000000002 633.5310737,88.95710000000003 624.5030737000001,85.79940000000002 615.6027737,82.64760000000001 606.7956737000001,79.56930000000003 598.0322737,76.62010000000004 589.2735737,73.79210000000003 580.5160737000001,71.01040000000003 571.7758736999999,68.20230000000004 563.0836737000001,65.31040000000002 554.4488737,62.36300000000003 545.8511737,59.428300000000036 537.2531737,56.567500000000024 528.6077737,53.81850000000003 519.8975737000001,51.136900000000026 511.13927370000005,48.46150000000003 502.3792737,45.73860000000002 493.6772737,42.95690000000002 485.05597370000004,40.18030000000002 476.50137370000004,37.469600000000014 467.9698737,34.87210000000002 459.4143737,32.384299999999996 450.83407370000003,29.954300000000018 442.27677370000004,27.540100000000024 433.8333737,25.1173 425.58697370000004,22.72550000000001 417.5567737,20.430000000000007 409.71087370000004,18.273800000000023 401.98457370000006,16.281900000000007 394.3151737,14.444300000000027 386.68667370000003,12.738200000000006 379.12887370000004,11.151700000000005 371.70917370000006,9.680500000000023 364.50107370000006,8.344400000000036 357.5227737,7.177500000000009 350.7379737,6.199300000000022 344.07697370000005,5.42270000000002 337.4465737,4.854000000000042 330.7623737,4.463600000000014 323.98217370000003,4.21520000000001 317.1128737,4.074399999999997 310.2188737,4.005100000000027 303.4048737,4.0 296.7390737,4.09220000000002 290.2290737,4.312400000000025 283.8363737,4.689600000000013 277.48797370000005,5.249600000000015 271.1050737,5.982000000000028 264.6434737,6.860900000000015 258.10407369999996,7.8539000000000385 251.54077370000002,8.917500000000018 245.0504737,10.030400000000014 238.7021737,11.21520000000001 232.5077737,12.501800000000003 226.4343737,13.926900000000018 220.4132737,15.526700000000005 214.3681737,17.295800000000042 208.2593737,19.20830000000001 202.0958737,21.22090000000003 195.94317370000002,23.27080000000001 189.9056737,25.33220000000003 184.0474737,27.42560000000003 178.3738737,29.58620000000002 172.8490737,31.86110000000002 167.4047737,34.28470000000004 161.97627369999998,36.84530000000004 156.5392737,39.50920000000002 151.1139737,42.218800000000044 145.76657369999998,44.90470000000002 140.5856737,47.55420000000004 135.61417369999998,50.192500000000024 130.85107369999997,52.85850000000002 126.2678737,55.60110000000003 121.8099737,58.44760000000002 117.4228737,61.38410000000002 113.0782737,64.38000000000002 108.7726737,67.38860000000003 104.52697369999999,70.35230000000001 100.39294369999999,73.25160000000002 96.4121237,76.10360000000003 92.5996537,78.93620000000001 88.95321369999999,81.7843 85.4566537,84.68290000000002 82.07140369999999,87.63560000000001 78.7637637,90.62620000000001 75.5134637,93.62950000000001 72.3114137,96.61180000000002 69.15960369999999,99.53540000000001 66.0850437,102.38750000000003 63.118883700000005,105.18110000000001 60.278693700000005,107.93530000000001 57.5721437,110.67320000000002 55.0005437,113.41990000000003 52.550673700000004,116.19100000000002 50.1922537,118.97920000000002 47.90021370000001,121.77088000000002 45.655483700000005,124.54837000000002 43.443923700000006,127.29081000000002 41.2561637,129.97554000000002 39.1021537,132.59347000000002 37.0078137,135.15538000000004 34.99297369999999,137.67615 33.0716037,140.17255000000003 31.2534637,142.66250000000002 29.5440337,145.16371000000004 27.9288337,147.68027 26.383923699999997,150.20483000000002 24.8890237,152.72728 23.4269537,155.23512000000002 21.9831937,157.71389000000002 20.5462337,160.14808000000002 19.1234937,162.53179000000003 17.7405537,164.87326000000002 16.4192237,167.18398000000002 15.1771137,169.47719 14.0287577,171.76744000000002 12.984794699999998,174.06948000000003 12.0361347,176.38871000000003 11.165120700000001,178.72302000000002 10.3562607,181.06766000000002 9.595696700000001,183.41537000000002 8.8708447,185.75654000000003 8.1704327,188.07964 7.4946456999999995,190.37477 6.8593117,192.63827000000003 6.2791777,194.87004000000002 5.7667437,197.07258000000002 5.3328657,199.25044000000003 4.9865167,201.40978 4.7231921,203.55676000000003 4.5293171,205.69586 4.3922661000000005,207.83004000000003 4.3002166,209.96089 4.2418808,212.088758 4.20635417,214.21281600000003 4.1830637,216.33113000000003 4.16180056,218.44076300000003 4.13282286,220.53790740000002 4.0878395,222.61790900000003 4.0357927,224.67312400000003 4.0,226.69507600000003 4.0022341,228.67764400000002 4.06224933,230.616789 4.19813518,232.51014000000004 4.4268002,234.35661000000002 4.7645359,236.1561 5.2276387,237.90922 5.8211297,239.62032000000002 6.5138937,241.30301000000003 7.2681847,242.97060000000002 8.0460447,244.63424000000003 8.8107077,246.30240000000003 9.5555327,247.96937000000003 10.3005597,249.61936000000003 11.0666987,251.23825000000002 11.874801699999999,252.81380000000001 12.7458967,254.33535 13.7016937,255.79340000000002 14.7589637,257.18334000000004 15.908573699999998,258.51824 17.1338737,259.81479 18.4169837,261.08877 19.7381337,262.35537 21.0752537,263.62925 22.4084737,264.92049000000003 23.739033699999997,266.22015 25.0755837,267.51402 26.4277737,268.78849 27.8062637,270.03061 29.2227637,271.22810000000004 30.690293699999998,272.36909 32.2193637,273.44693 33.8067137,274.47311 35.4452137,275.46317 37.1267537,276.43286 38.841933700000006,277.39839 40.579773700000004,278.37658000000005 42.32743370000001,279.3849 44.0745437,280.43483000000003 45.8237037,281.51769 47.580873700000005,282.62046000000004 49.3530037,283.72966 51.148073700000005,284.83146000000005 52.9752237,285.91172000000006 54.8449037,286.95585 56.768683700000004,287.94957 58.751403700000004,288.89282000000003 60.791003700000005,289.79823 62.8844437,290.67954000000003 65.0277037,291.55143000000004 67.21540370000001,292.42978000000005 69.44053369999999,293.33184 71.6941137,294.27618 73.9700137,295.27243 76.2709437,296.31084000000004 78.6016437,297.37851 80.9680637,298.46145 83.3775837,299.54470000000003 85.83926369999999,300.61224000000004 88.36425369999999,301.64689 90.96400369999999,302.63522 93.6425237,303.58447 96.40098369999998,304.50822 99.2393237,305.42153 102.1557237,306.34124 105.1458737,307.28625 108.2023737,308.27753 111.3181737,309.32603 114.4940737,310.41928 117.7333737,311.54039 121.0417737,312.67081 124.4276737,313.79042000000004 127.90367369999998,314.87747 131.4856737,315.91367 135.18367369999999,316.9075 139.0039737,317.87782000000004 142.94977369999998,318.84603000000004 147.0200737,319.83656 151.2070737,320.87713 155.4980737,321.9845 159.8874737,323.14020000000005 164.3748737,324.3174 168.9659737,325.48710000000005 173.6744737,326.61850000000004 178.52407369999997,327.6843 183.5359737,328.69500000000005 188.7242737,329.6785 194.09387370000002,330.6668 199.63547369999998,331.696 205.3222737,332.79330000000004 211.1285737,333.93370000000004 217.0415737,335.07630000000006 223.06537369999998,336.1789 229.22547369999998,337.20000000000005 235.5614737,338.1344 242.10117369999998,339.0188 248.8510737,339.89500000000004 255.78437370000003,340.8088 262.8404737,341.77610000000004 269.9677737,342.7488 277.14857370000004,343.6725 284.4053737,344.4959 291.79647370000004,345.1965 299.37197370000007,345.81530000000004 307.1441737,346.4039 315.0704737,347.01700000000005 323.0569737,347.66880000000003 331.03097370000006,348.3012 338.98037370000003,348.8535 346.9535737,349.2712 355.03807370000004,349.54910000000007 363.2917737,349.73810000000003 371.70677370000004,349.89520000000005 380.1921737,350.0762 388.61757370000004,350.26120000000003 396.9240737,350.3815 405.1410737,350.3736 413.3719737,350.1856 421.7421737,349.83810000000005 430.3193737,349.3849 439.08087370000004,348.892 447.8945737,348.4148 456.6155737,347.92 465.1958737,347.35120000000006 473.6817737,346.651 482.1868737,345.7916 490.80167370000004,344.8106 499.5313737,343.76410000000004 508.27827370000006,342.7225 516.8773737,341.70050000000003 525.2424737,340.64 533.3987737,339.476 541.4523737000001,338.1394 549.5521737,336.61030000000005 557.7973737000001,334.9232 566.1922737000001,333.136 574.6213737,331.334 582.8953737,329.53860000000003 590.9156737,327.7001 598.6992737,325.7531 606.3438737,323.6213 614.0023737,321.28287 621.8138737,318.77009000000004 629.8788737,316.13389 638.2422737,313.4546 646.8654737,310.77029000000005 655.6720737,308.05509 664.5903737,305.27164000000005 673.5692737,302.39253 682.6064736999999,299.46478 691.7380737,296.55057 701.0358737,293.70084 710.5675737,290.89927 720.3257737,288.09116 730.2020737,285.24461 740.0414737,282.40774000000005 749.7956737000001,279.66649 759.5458737000001,277.06579 769.4185737,274.56645000000003 779.4254737000001,272.09571000000005 789.4211737,269.6254 799.2432737,267.23176 808.8975737000001,264.99436000000003 818.5232737,262.92489 828.2124737,260.93818 837.8933737,258.96234000000004 847.4048736999999,257.02672 856.7213737000001,255.22758000000002 865.9683737,253.60608000000002 875.2475737,252.08734 884.4864737,250.59101 893.5315737000001,249.15284000000003 902.3943737,247.87940000000003 911.2312737000001,246.79179000000002 920.1034737,245.78526000000002 928.8814737,244.80289000000002 937.4861737,243.94199000000003 946.0282737,243.26546000000002 954.5657737,242.69422000000003 962.9812737,242.20388000000003 971.2649737,241.89432000000002 979.5160737000001,241.75146 987.7126737000001,241.75233000000003 995.8878737,241.99512000000001 1003.0437737,242.36460000000002" stroke="black" stroke-width="2.0" /></svg>