<?xml version="1.0" encoding="utf-8" ?>
<svg baseProfile="full" height="285.77395" version="1.1" width="1012.1946662" xmlns="http://www.w3.org/2000/svg" xmlns:ev="http://www.w3.org/2001/xml-events" xmlns:xlink="http://www.w3.org/1999/xlink"><defs /><polygon fill="none" points="1004.1946662,160.68930000000003 998.7158662,159.36072000000001 992.3058662,158.02552000000003 985.6652662,156.62987000000004 978.7482662000001,155.25052000000002 971.5549662,153.85155000000003 964.1246662,152.39035 956.4768662,150.85750000000002 948.6257662,149.29523000000003 940.6114662000001,147.70250000000001 932.4643662,146.01912000000004 924.1758662000001,144.25150000000002 915.7418662,142.47540000000004 907.1956662000001,140.70154000000002 898.5667662000001,138.85558000000003 889.8425662000001,136.90000000000003 880.9970662000001,134.89699000000002 872.0398662,132.91414000000003 863.0118662,130.92082000000002 853.9283662,128.84346000000002 844.7618662,126.65932000000002 835.4833662,124.42584000000002 826.1037662,122.20682000000002 816.6685662,119.98853000000003 807.2039662000001,117.71456000000002 797.6974662,115.34750000000003 788.1211662,112.92462000000003 778.4738662,110.50419000000002 768.7911662,108.11050000000002 759.1131662,105.70456000000003 749.4529662000001,103.23766000000002 739.7925662,100.70397000000003 730.1127662,98.14950000000003 720.4155662000001,95.62649000000002 710.7298662000001,93.14394000000001 701.0907662000001,90.66311000000003 691.5200662,88.14248000000002 682.0179662,85.58150000000003 672.5688662,83.03036000000002 663.1570662,80.54070000000003 653.7752662,78.13360000000002 644.4351662,75.76290000000003 635.1520662,73.37450000000003 625.9395662000001,70.92750000000002 616.7916662,68.45170000000003 607.6926662,66.00350000000003 598.6240662,63.63590000000002 589.5765662,61.356500000000025 580.5572662,59.10810000000002 571.5744662000001,56.82960000000001 562.6343662,54.46950000000001 553.7240661999999,52.048700000000025 544.8204662,49.62340000000003 535.8994662,47.24910000000003 526.9428662,44.957100000000025 517.9567662000001,42.708500000000015 508.9614661999999,40.45410000000004 499.9883662,38.14910000000003 491.0622662,35.79800000000003 482.18326619999993,33.45330000000004 473.3345662,31.16440000000003 464.48646619999994,28.96780000000004 455.6250662,26.843300000000028 446.7701662,24.751000000000033 437.9717662,22.658300000000025 429.2971662,20.56080000000003 420.78326619999996,18.510200000000026 412.4271662,16.554600000000022 404.19546619999994,14.729200000000048 396.0425662,13.04540000000003 387.94876619999997,11.489200000000011 379.9278662,10.05110000000002 372.02166619999997,8.726600000000047 364.2809662,7.529800000000023 356.7190662,6.492400000000032 349.3053662,5.637200000000007 341.97716619999994,4.982400000000041 334.6518662,4.528800000000047 327.26886619999993,4.239900000000034 319.8137662,4.078400000000016 312.32336619999995,4.006300000000039 304.88156619999995,4.0 297.5608662,4.088000000000022 290.3780661999999,4.304700000000025 283.3019662,4.682700000000011 276.26446619999996,5.247000000000014 269.1973662,5.978300000000019 262.07406619999995,6.842900000000014 254.9177662,7.79940000000002 247.80356619999998,8.80710000000002 240.8152662,9.878600000000034 233.9839662,11.04770000000002 227.29016620000002,12.352600000000024 220.6751662,13.830300000000022 214.0686662,15.470000000000027 207.43986619999998,17.23430000000002 200.8086662,19.070800000000048 194.2466662,20.921300000000002 187.8434662,22.78570000000002 181.6393662,24.696600000000018 175.6248662,26.694500000000033 169.7559662,28.82080000000002 163.9711662,31.06820000000002 158.2385662,33.39790000000002 152.5643662,35.75750000000005 146.98966620000002,38.08600000000001 141.5817662,40.3725 136.3826662,42.64870000000002 131.3967662,44.95290000000003 126.6055662,47.32690000000002 121.9680662,49.787600000000026 117.43976620000001,52.307000000000045 112.9972662,54.84730000000003 108.6356662,57.36410000000002 104.3664662,59.81360000000002 100.22494619999999,62.19630000000002 96.2394562,64.53960000000002 92.42067619999999,66.87310000000002 88.7675362,69.22740000000002 85.2682362,71.62660000000002 81.8919762,74.06020000000004 78.6121362,76.50450000000002 75.4115462,78.93320000000001 72.2802262,81.31850000000003 69.2153462,83.63449000000003 66.2341662,85.88138000000004 63.3583962,88.07834000000003 60.600526200000004,90.24581000000002 57.96655620000001,92.40397000000003 55.4587762,94.57204000000002 53.07062620000001,96.76084000000003 50.7790462,98.95910000000002 48.5631362,101.15129000000003 46.4064062,103.32148000000004 44.2959362,105.45362000000003 42.2216662,107.53211000000003 40.1809562,109.54727000000003 38.1898562,111.50940000000001 36.264556199999994,113.43340000000003 34.4171262,115.33366000000002 32.6564462,117.22396000000003 30.9890262,119.11741000000004 29.4172162,121.02443000000002 27.9266162,122.94091000000003 26.4987762,124.85681000000002 25.1179162,126.76196000000002 23.770456199999998,128.64611000000002 22.444726199999998,130.49914 21.130726199999998,132.31124000000003 19.8261162,134.07719000000003 18.5473662,135.80515000000003 17.3116962,137.50590000000003 16.1334462,139.19009000000003 15.0245962,140.86809000000002 13.9953452,142.54998000000003 13.0524862,144.24447000000004 12.1871662,145.95125000000002 11.3853082,147.66568 10.6344082,149.38250000000002 9.923239200000001,151.09594000000004 9.241653200000002,152.79981000000004 8.5804772,154.48769000000001 7.9338882,156.15358000000003 7.3120601999999995,157.79561000000004 6.729848199999999,159.41433000000004 6.2001942,161.01113000000004 5.7343852,162.58805000000004 5.3423832,164.14762000000002 5.031446900000001,165.69267000000002 4.7948197,167.22569000000001 4.6200814999999995,168.74864000000002 4.4958376,170.26309000000003 4.4115687,171.77031000000002 4.3574857,173.27129200000002 4.324423,174.76680100000002 4.3037619,176.25737700000002 4.287376,177.74337700000004 4.26759632,179.22498700000003 4.23718945,180.70223900000002 4.189351196,182.17502770000002 4.12361551,183.64148900000004 4.0572753,185.09508900000003 4.0099092,186.52922800000002 4.0,187.93814700000001 4.0451396,189.31679300000002 4.16229241,190.66068400000003 4.3681082,191.965774 4.6792834,193.22831000000002 5.1129793,194.44472000000002 5.683730199999999,195.61284000000003 6.3713792,196.74450000000002 7.1350922,197.85903000000002 7.9325772,198.97538000000003 8.7200612,200.11192000000003 9.475098200000001,201.27448000000004 10.2124742,202.44882 10.9511192,203.61901000000003 11.7106752,204.76922000000002 12.5115692,205.88372000000004 13.375213200000001,206.94678000000002 14.3234162,207.94319000000002 15.3606662,208.87350000000004 16.474376200000002,209.75294000000002 17.650416200000002,210.59761000000003 18.873306200000002,211.42419 20.1258562,212.25018000000003 21.3888662,213.09400000000002 22.6476662,213.96786000000003 23.9053562,214.86440000000005 25.1688862,215.77230000000003 26.446006200000003,216.67971000000003 27.7453362,217.57427 29.0764062,218.44308 30.4498462,219.27268000000004 31.8760762,220.05112000000003 33.355916199999996,220.78234000000003 34.8852562,221.47798000000003 36.4593262,222.15053000000003 38.0725062,222.81350000000003 39.718186200000005,223.48157000000003 41.3884962,224.17077000000003 43.0744362,224.89800000000002 44.7726462,225.66815000000003 46.4869762,226.47211000000004 48.2222562,227.29915000000003 49.9841362,228.13753000000003 51.779116200000004,228.97446000000002 53.6147062,229.79607000000001 55.4996462,230.58721000000003 57.4427962,231.33429 59.4464362,232.04059 61.5098262,232.71673000000004 63.6315662,233.37454000000002 65.8094762,234.02734000000004 68.0402662,234.69017000000002 70.31929620000001,235.37998000000002 72.6406562,236.11460000000002 75.0032362,236.89642000000003 77.4105962,237.71485 79.8672662,238.55751000000004 82.3789062,239.41040000000004 84.9524762,240.25778000000003 87.5966562,241.08204000000003 90.3217162,241.86515000000003 93.1337362,242.60686000000004 96.03497619999999,243.31999000000002 99.0267762,244.01960000000003 102.10908620000001,244.72321000000002 105.2798662,245.45118000000002 108.5344662,246.22685 111.86916620000001,247.06152000000003 115.2861662,247.94152000000003 118.7899662,248.84822000000003 122.3868662,249.76017000000002 126.0863662,250.65302000000003 129.90166620000002,251.49974000000003 133.8454662,252.29156 137.9249662,253.04662000000002 142.1449662,253.78811000000002 146.5068662,254.54356 151.0065662,255.34548 155.6354662,256.21793 160.3897662,257.14347000000004 165.2706662,258.0924 170.2845662,259.03084 175.4453662,259.92076000000003 180.7731662,260.73888000000005 186.2827662,261.50741000000005 191.9819662,262.25981 197.86876619999998,263.03548 203.9267662,263.87557000000004 210.13496619999998,264.77392000000003 216.4814662,265.68916 222.9666662,266.57544 229.60806620000002,267.38493000000005 236.4337662,268.10925000000003 243.4618662,268.78676 250.6920662,269.46324000000004 258.09816620000004,270.18773000000004 265.63586619999995,270.96062 273.27556619999996,271.73186000000004 281.01376619999996,272.44801 288.87796619999995,273.06118000000004 296.90756619999996,273.58443 305.11916619999994,274.06589 313.49406619999996,274.55825000000004 321.9733662,275.09432000000004 330.5005662,275.63283 339.0580661999999,276.11824 347.6733662,276.49807000000004 356.4024662,276.76785 365.27666619999997,276.97387000000003 374.27736619999996,277.16769 383.3303662,277.38798 392.3567662,277.59905000000003 401.3337662,277.74518 410.29816619999997,277.77395 419.3272662,277.67556 428.4700662,277.49536 437.71316619999993,277.28604 446.97376619999994,277.09277000000003 456.15556619999995,276.88866 465.22826619999995,276.62077 474.2309662,276.23762 483.25066619999996,275.72028 492.34686619999997,275.10812000000004 501.50586619999996,274.45191 510.63456620000005,273.80322 519.6137662000001,273.14483 528.4052662,272.41769 537.0566662,271.56163000000004 545.6794662,270.52947000000006 554.3843662,269.34277000000003 563.2061662,268.04905 572.0831662,266.71354 580.8679662000001,265.37146 589.4521662,263.9775 597.8310662,262.47115 606.0810662000001,260.78522000000004 614.3340662,258.90595 622.7086662,256.88116 631.2790662,254.77487000000002 640.0629662000001,252.66665000000003 649.0141662,250.57307000000003 658.0731662000001,248.46422 667.1902662,246.30412 676.3380662,244.08339000000004 685.5223662,241.85014 694.7735662,239.65559000000002 704.1423662,237.53532 713.6587662000001,235.46214000000003 723.2986662,233.39596000000003 732.9792662,231.31444000000002 742.6186662,229.25918000000001 752.2081662,227.28474000000003 761.8115662,225.42114000000004 771.4964662000001,223.63353000000004 781.2513662000001,221.87170000000003 790.9795662,220.11454000000003 800.5969662,218.41566000000003 810.1182662,216.83146000000002 819.6313662,215.37220000000002 829.1836662,213.97718000000003 838.7217662,212.59188000000003 848.1458662,211.23581000000001 857.4404662000001,209.97833000000003 866.6809662000001,208.85431000000003 875.9204662000001,207.81297000000004 885.0996662000001,206.79763000000003 894.1138662000001,205.83334000000002 902.9629662,204.99502 911.7340662,204.29833000000002 920.4471662000001,203.67221000000004 929.0095662,203.07842000000002 937.3638662000001,202.58108000000001 945.5615662,202.22476000000003 953.6338662,201.95883000000003 961.5231662000001,201.75195000000002 969.2057662000001,201.65901000000002 976.7221662000001,201.68938000000003 984.0610662,201.80685000000003 991.2162662000001,202.07304000000002 998.2256662,202.47347000000002 1004.1946662,202.84930000000003" stroke="black" stroke-width="2.0" /></svg>