<?xml version="1.0" encoding="utf-8" ?>
<svg baseProfile="full" height="173.90075" version="1.1" width="1011.998954232" xmlns="http://www.w3.org/2000/svg" xmlns:ev="http://www.w3.org/2001/xml-events" xmlns:xlink="http://www.w3.org/1999/xlink"><defs /><polygon fill="none" points="1003.998954232,113.2032 1001.5665542319999,111.69941 998.2278542319999,111.28768199999999 994.875054232,110.67235 991.355954232,110.109988 987.5092542319999,109.62144599999999 983.3202542319999,109.083435 978.8397542319999,108.495966 974.078954232,107.919833 969.011054232,107.35069899999999 963.641654232,106.733716 958.025254232,106.054687 952.217154232,105.36796 946.243854232,104.717546 940.124754232,104.072015 933.893354232,103.379873 927.5888542319999,102.63902999999999 921.240754232,101.90171 914.8678542319999,101.21547 908.4856542319999,100.56235 902.1051542319999,99.8911 895.729554232,99.15742 889.3527542319999,98.38085 882.9723542319999,97.61261999999999 876.595354232,96.90288 870.234454232,96.25341999999999 863.8838542319999,95.61871 857.506754232,94.94856 851.0358542319999,94.19900999999999 844.435454232,93.37432 837.7981542319999,92.50878999999999 831.3541542319999,91.65689 825.347154232,90.83408 819.8293542319999,89.99133 814.711854232,89.08076 809.868554232,88.05707 805.164154232,86.87092999999999 800.455254232,85.50139999999999 795.615054232,83.94519 790.530954232,82.19906 785.107554232,80.27359999999999 779.307554232,78.22001 773.220854232,76.10771 767.0072542319999,73.96885 760.800454232,71.81730999999999 754.6708542319999,69.64551999999999 748.6214542319999,67.43189999999998 742.609754232,65.18126 736.5893542319999,62.91000999999999 730.514954232,60.63507 724.3398542319999,58.37490999999999 718.019854232,56.13861 711.535854232,53.90740999999999 704.903854232,51.665859999999995 698.184854232,49.41033999999999 691.4878542319999,47.15317 684.923754232,44.939769999999996 678.5339542319999,42.81582 672.296054232,40.801339999999996 666.144154232,38.89913 659.9787542319999,37.09947 653.696254232,35.368219999999994 647.224454232,33.670469999999995 640.5337542319999,31.982619999999997 633.659254232,30.294129999999996 626.718154232,28.616479999999996 619.8384542319999,26.98957 613.077954232,25.441799999999986 606.425454232,23.98326 599.815354232,22.611710000000002 593.1444542319999,21.309799999999996 586.3260542319999,20.048090000000002 579.3212542319999,18.804909999999992 572.157654232,17.56836 564.9493542319999,16.339939999999984 557.8501542319999,15.150759999999991 550.938754232,14.035319999999999 544.2085542319999,13.01039999999999 537.5938542319999,12.081800000000001 530.9866542319999,11.246899999999997 524.272954232,10.483100000000007 517.3770542319999,9.766400000000004 510.27415423200006,9.077899999999985 503.015754232,8.402500000000003 495.737854232,7.740299999999991 488.568054232,7.1166999999999945 481.553954232,6.5519999999999925 474.673054232,6.058399999999992 467.850554232,5.6434 460.984054232,5.300799999999995 453.996454232,5.014699999999991 446.85435423200005,4.77109999999999 439.581254232,4.556600000000003 432.268854232,4.361299999999986 425.025554232,4.194999999999993 417.903654232,4.072000000000003 410.896954232,4.003600000000006 403.952154232,4.0 396.986454232,4.0638000000000005 389.933754232,4.186000000000007 382.76785423200005,4.356899999999982 375.510954232,4.564900000000009 368.23915423200003,4.798099999999991 361.040354232,5.060199999999995 353.95375423200005,5.361299999999986 346.968754232,5.712099999999992 340.034054232,6.125 333.074754232,6.60499999999999 326.036854232,7.146999999999991 318.906554232,7.7424000000000035 311.717454232,8.378 304.548854232,9.04119999999999 297.470454232,9.73469999999999 290.501654232,10.467700000000008 283.616054232,11.25269999999999 276.750354232,12.104799999999997 269.83605423200004,13.027299999999997 262.839654232,14.015069999999994 255.77395423200002,15.056189999999987 248.703054232,16.131680000000003 241.708154232,17.234250000000003 234.822654232,18.370439999999988 228.02685423199998,19.55431 221.257154232,20.806539999999984 214.43455423199998,22.136989999999997 207.519054232,23.54086000000001 200.52915423199997,25.000889999999984 193.547754232,26.488179999999986 186.67005423199998,27.99181999999999 179.927054232,29.52055 173.28635423199998,31.09576 166.67095423199999,32.74301 160.015654232,34.4688 153.31185423199997,36.26317999999999 146.61585423199998,38.0988 140.019954232,39.95396000000001 133.566554232,41.83243999999999 127.233554232,43.75502 120.95365423199999,45.749579999999995 114.674454232,47.82248 108.406054232,49.95728 102.222014232,52.118019999999994 96.206694232,54.28529999999999 90.38145423200001,56.467369999999995 84.712254232,58.68929 79.151174232,60.964749999999995 73.704144232,63.274989999999995 68.434974232,65.57669999999999 63.426864232,67.83393 58.713924232000004,70.04433 54.280924232000004,72.2221 50.094264232,74.37722 46.144274232,76.49177999999999 42.448874232,78.53433999999999 39.030734232,80.47629 35.899864232,82.31457999999999 33.041364232,84.06074 30.427974232,85.72913 28.029664232,87.33143 25.819724232,88.86931 23.779464232,90.34065 21.894344231999998,91.74328 20.151594231999997,93.07639 18.541514232,94.34315 17.055234232,95.55 15.682674232,96.7034 14.413594232,97.80932999999999 13.238297232,98.87316999999999 12.146790232,99.89943 11.129008232,100.89148 10.176658232000001,101.85188 9.282860232,102.78260999999999 8.441768232,103.685366 7.650392232,104.562432 6.919973232,105.421509 6.264010232,106.27116199999999 5.691780232,107.118173 5.209406232,107.96788699999999 4.820015132,108.8239 4.517587832,109.682704 4.291874032,110.538997 4.134382332,111.390226 4.038603982,112.2358474 4.0,113.07683379999999 4.016104242,113.9155069 4.087039922,114.755056 4.2149904320000005,115.59775599999999 4.403752032,116.44449499999999 4.658560232,117.29453199999999 4.985833832,118.145004 5.391954232,118.990945 5.877470232,119.830761 6.439077232000001,120.66542899999999 7.071869232,121.49635599999999 7.769083232,122.325457 8.521873232,123.155228 9.324993232,123.98607 10.182132232,124.81398 11.098720232000002,125.63409999999999 12.081514232000002,126.44109999999999 13.139226232,127.22912 14.283244232000001,127.99203 15.524104232000001,128.73027 16.870384232,129.45080000000002 18.330644232,130.16249 19.911824232,130.87669 21.616034232,131.60789 23.443224232,132.36473999999998 25.399764232,133.14168 27.494384232,133.93017 29.741114231999997,134.72061 32.165774232,135.5043 34.806184232,136.2852 37.705154232,137.07801 40.90387423200001,137.90259 44.420034232,138.78141 48.234914232,139.70844 52.319754232,140.65273 56.67281423200001,141.58240999999998 61.357854232,142.48835 66.45990423200001,143.39835 72.003284232,144.34561 77.862804232,145.33318 83.86176423200001,146.30477 89.94121423200001,147.21379 96.187944232,148.05725999999999 102.69342423200001,148.87523 109.438554232,149.70429 116.267354232,150.54288 123.049254232,151.34609999999998 129.779154232,152.08155 136.55065423199997,152.74824999999998 143.44625423199997,153.38144 150.47195423199997,154.01529 157.54495423199998,154.66779 164.570254232,155.31151 171.52165423199997,155.91523999999998 178.442654232,156.45713999999998 185.41055423199998,156.94661 192.472154232,157.41281 199.623054232,157.88348 206.80425423199998,158.37538 213.950254232,158.86858999999998 221.038654232,159.33753 228.091554232,159.76067999999998 235.16325423199999,160.13301 242.29835423199998,160.4753 249.508554232,160.8101 256.768254232,161.15897999999999 264.022054232,161.52471 271.22965423200003,161.88616 278.383354232,162.22277 285.50605423200005,162.51641999999998 292.640554232,162.76533 299.819354232,162.98853 307.050754232,163.2062 314.316954232,163.43841 321.577154232,163.69243999999998 328.797854232,163.95022 335.969054232,164.19179 343.10375423200003,164.3987 350.23435423200004,164.55905 357.39405423200003,164.6856 364.59845423200005,164.79744 371.84285423200004,164.91389999999998 379.100754232,165.05288 386.33515423200004,165.21014 393.52415423200006,165.36587 400.665654232,165.50101999999998 407.77675423200003,165.59751 414.88875423200005,165.64776 422.02855423200003,165.66755999999998 429.206354232,165.67602 436.41415423200004,165.69276 443.62495423200005,165.73554 450.803954232,165.79814 457.93175423200006,165.85979 465.00815423200004,165.90041 472.05005423200004,165.90075 479.088654232,165.85057 486.152054232,165.76529 493.252154232,165.66521 500.382654232,165.57141 507.5179542320001,165.50468999999998 514.621154232,165.46454 521.6685542319999,165.42887 528.657254232,165.37545 535.6029542319999,165.28283 542.5375542319999,165.13389999999998 549.4964542319999,164.93883 556.4983542319999,164.71911 563.5420542319999,164.49748 570.604454232,164.298 577.643854232,164.13168 584.6258542319999,163.97822 591.540254232,163.81333999999998 598.3993542320001,163.6135 605.235754232,163.35632999999999 612.0924542319999,163.04207 618.9960542319999,162.69236 625.946754232,162.33155 632.915454232,161.98635 639.845554232,161.67717 646.683154232,161.38627 653.411554232,161.0845 660.048354232,160.7437 666.6400542319999,160.33566 673.2535542319999,159.84814 679.942454232,159.3001 686.7230542319999,158.71715999999998 693.567254232,158.13089 700.3977542319999,157.57372999999998 707.123654232,157.03831 713.703554232,156.49406 720.148154232,155.90994 726.507154232,155.25395 732.8582542319999,154.50854999999999 739.2675542320001,153.69391 745.758954232,152.84055999999998 752.305954232,151.98784999999998 758.8275542319999,151.17762 765.2281542320001,150.40138 771.4727542319999,149.61959 777.587054232,148.79036 783.6421542319999,147.8681 789.744954232,146.82329 795.991654232,145.66557999999998 802.431054232,144.41819999999998 809.040354232,143.12437 815.702854232,141.83348999999998 822.280054232,140.54645 828.698254232,139.24434 834.949054232,137.90044 841.0719542319999,136.50465 847.1278542319999,135.09163999999998 853.176254232,133.69933 859.277754232,132.36507 865.487654232,131.09903 871.823254232,129.86326 878.248854232,128.6204 884.6703542319999,127.34796 890.999154232,126.08464 897.2341542319999,124.88181999999999 903.4560542319999,123.77086 909.7826542319999,122.737831 916.2517542319999,121.736111 922.759354232,120.73597199999999 929.122754232,119.767547 935.2958542319999,118.88919399999999 941.382854232,118.12695 947.495154232,117.449664 953.5692542319999,116.816203 959.3963542319999,116.22894699999999 964.878454232,115.73741299999999 970.074554232,115.361154 975.032554232,115.05762299999999 979.6998542319999,114.779343 984.016054232,114.545132 987.993954232,114.40714399999999 991.667454232,114.331966 995.071754232,114.1956294 998.321454232,114.0876883 1001.534754232,114.318424 1003.998954232,113.2032" stroke="black" stroke-width="2.0" /></svg>