<?xml version="1.0" encoding="utf-8" ?>
<svg baseProfile="full" height="479.46899999999994" version="1.1" width="1012.2081253" xmlns="http://www.w3.org/2000/svg" xmlns:ev="http://www.w3.org/2001/xml-events" xmlns:xlink="http://www.w3.org/1999/xlink"><defs /><polygon fill="none" points="1004.2081253,235.36869999999996 1002.1718253,239.12039999999996 1001.2666253,238.94694999999996 1000.8400253,237.17092999999997 1000.6496253,234.51629999999997 1000.5943253,231.28347999999997 1000.6161253,227.64365999999995 1000.6743253,223.71647999999996 1000.7358253,219.59989999999996 1000.7706253,215.38467999999997 1000.7497253,211.16255999999996 1000.6438253,207.03103999999996 1000.4234253000001,203.09568999999996 1000.0592253,199.46971999999997 999.5265253,196.25824999999998 998.8287253,193.44670999999997 997.9849253,190.95062999999996 997.0137252999999,188.68385999999998 995.9326253,186.56232999999997 994.7571253,184.50540999999998 993.4999253000001,182.44654999999997 992.1674253,180.38300999999996 990.7641253,178.33479999999997 989.2948253,176.32181999999995 987.7643253,174.36384999999996 986.1776253,172.48060999999996 984.5322253,170.69267999999997 982.8187253,169.01912 981.0250253,167.47651999999997 979.1356252999999,166.08029999999997 977.1308253000001,164.84629999999996 974.9957253,163.77749999999997 972.7319253000001,162.85199999999998 970.3445253,162.04699999999997 967.8421253,161.33999999999997 965.2390253,160.70689999999996 962.5457253000001,160.12809999999996 959.7580253,159.59329999999997 956.8706253,159.09009999999995 953.8793253,158.60349999999997 950.7815253,158.11509999999998 947.5787253,157.60709999999997 944.2733253,157.06179999999995 940.8645253,156.45709999999997 937.3463253,155.76549999999997 933.7026253,154.95839999999998 929.9029253,154.03099999999995 925.9112253,152.98829999999998 921.6903253,151.84059999999997 917.2070252999999,150.60759999999996 912.4416253,149.29709999999994 907.3802253,147.90169999999995 902.0058253000001,146.41049999999996 896.2912253000001,144.80839999999995 890.1967253,143.07709999999997 883.6741253,141.19529999999997 876.6665253,139.13719999999995 869.1057253,136.88019999999997 860.9155253,134.41209999999998 852.0272253,131.72999999999996 842.3971253,128.82799999999997 832.0025253,125.69229999999999 820.8335252999999,122.31159999999997 808.9343253,118.69419999999997 796.4623253,114.87309999999997 783.5681253,110.83089999999996 770.1410253,106.46169999999995 755.8896253,101.71129999999997 740.7908253,96.66889999999998 725.1319253,91.46709999999996 709.1125253,86.17679999999996 692.9189253,80.84259999999995 676.8990253,75.55229999999997 661.3270253,70.36279999999996 646.2730253000001,65.30519999999996 631.7756253,60.46849999999995 617.9061253,55.945899999999966 604.6068253,51.77479999999994 591.6651253,47.927599999999956 578.8465253,44.33149999999998 565.9783253,40.92379999999994 552.9425252999999,37.65319999999997 539.7040253,34.46859999999995 526.3382253000001,31.343799999999987 513.0173253,28.298599999999965 499.9669253,25.37459999999996 487.38872530000003,22.627599999999973 475.3211253,20.105099999999965 463.6610253,17.813699999999955 452.29312530000004,15.717499999999973 441.2057253,13.781699999999972 430.4712253,11.993399999999951 420.1671253,10.370999999999981 410.31582530000003,8.930999999999926 400.89962529999997,7.677999999999997 391.8772253,6.614300000000014 383.1888253,5.740599999999972 374.7653253,5.0563999999999965 366.5355253,4.557499999999948 358.4465253,4.226099999999974 350.4739253,4.045099999999934 342.6166253,4.0 334.88982530000004,4.081399999999974 327.3057253,4.290499999999952 319.86132530000003,4.629999999999939 312.5421253,5.102800000000002 305.3251253,5.710899999999981 298.1900253,6.448899999999924 291.1276253,7.310299999999984 284.1385253,8.288099999999986 277.2322253,9.375099999999918 270.4199253,10.569700000000012 263.7058253,11.87379999999996 257.0862253,13.290299999999945 250.55122530000003,14.82359999999997 244.08702530000002,16.474799999999988 237.6851253,18.24049999999997 231.34362529999999,20.115999999999957 225.06752530000003,22.094799999999964 218.8675253,24.171499999999952 212.7533253,26.347699999999975 206.72742530000002,28.627899999999954 200.7850253,31.019499999999965 194.91562530000002,33.53159999999997 189.10422530000002,36.167899999999975 183.3391253,38.92839999999998 177.6128253,41.812299999999965 171.92252530000002,44.816899999999976 166.2685253,47.93829999999997 160.6522253,51.17169999999996 155.0766253,54.51139999999995 149.5453253,57.95059999999995 144.06372530000002,61.482099999999946 138.63832530000002,65.09879999999995 133.2768253,68.79309999999998 127.9868253,72.55619999999996 122.7769253,76.37899999999996 117.65652530000001,80.25309999999996 112.6348253,84.17019999999997 107.7204253,88.12159999999997 102.92139530000001,92.09899999999996 98.24646530000001,96.09749999999997 93.7020653,100.11439999999996 89.2919253,104.14849999999998 85.0176153,108.19979999999995 80.87938530000001,112.26839999999996 76.87638530000001,116.35509999999996 73.00680530000001,120.46189999999996 69.26805530000001,124.59099999999998 65.6543953,128.74249999999995 62.1583853,132.91279999999998 58.7738353,137.09779999999995 55.4957053,141.29269999999997 52.3188753,145.49109999999996 49.237125299999995,149.68249999999995 46.2470553,153.85199999999998 43.347975299999995,157.98119999999994 40.541545299999996,162.04999999999995 37.8370353,166.04539999999997 35.2444953,169.96378999999996 32.7688953,173.80660999999998 30.4113753,177.57894999999996 28.1698453,181.28720999999996 26.0399353,184.93501999999995 24.0181753,188.52355999999997 22.101905300000002,192.05236999999997 20.289155299999997,195.52002999999996 18.5834853,198.92715999999996 16.9909653,202.27888999999996 15.5149953,205.58318999999997 14.1572223,208.84993999999995 12.9173913,212.08983999999998 11.7862233,215.30890999999997 10.7517023,218.50838999999996 9.8038973,221.68693999999996 8.9343823,224.84116999999998 8.1359483,227.96597999999997 7.4060773,231.05705999999998 6.7464893,234.11288999999996 6.1584653,237.13354999999996 5.6427973,240.12026999999998 5.1999746,243.07527999999996 4.8296076,246.00094999999996 4.529689,248.89878999999996 4.29825924,251.77035999999995 4.13366845,254.61745999999997 4.0345844,257.44205 4.0,260.24626299999994 4.0292438,263.03239699999995 4.12199413,265.80290599999995 4.27835784,268.560413 4.5011274,271.30727799999994 4.796422,274.04504399999996 5.1708742,276.77464699999996 5.6308623,279.49647999999996 6.1780463,282.21056 6.8116793,284.91653999999994 7.531085299999999,287.61357 8.3356043,290.30028999999996 9.2250233,292.97459 10.2027313,295.63244 11.274354299999999,298.27009999999996 12.4467373,300.88516999999996 13.7284003,303.47650999999996 15.127635300000001,306.04589 16.6420453,308.60301999999996 18.2645753,311.15838999999994 19.9858753,313.72047999999995 21.7932753,316.29528999999997 23.6780153,318.88203 25.644095299999996,321.47247 27.6987253,324.05924999999996 29.8518653,326.63707999999997 32.1167453,329.20351999999997 34.5024653,331.76424999999995 37.0124653,334.32950999999997 39.6484353,336.9086199999999 42.4092153,339.50949999999995 45.2917453,342.13660999999996 48.2985153,344.78803999999997 51.434455299999996,347.46126 54.7062553,350.15473 58.12299529999999,352.86853999999994 61.6949453,355.60567999999995 65.4326653,358.37066999999996 69.3475753,361.16839999999996 73.45182530000001,364.00428999999997 77.75704530000002,366.88662 82.2721453,369.8259 87.00102530000001,372.83189999999996 91.9399353,375.91159999999996 97.08353530000001,379.0592 102.42831530000001,382.26159999999993 107.9717253,385.50519999999995 113.71362530000002,388.7775 119.65682530000001,392.06669999999997 125.8081253,395.3622 132.1800253,398.6558 138.7868253,401.9478 145.6352253,405.24159999999995 152.7211253,408.5372 160.0300253,411.82579999999996 167.5498253,415.09169999999995 175.2780253,418.32239999999996 183.22332530000003,421.5122 191.39332530000001,424.66249999999997 199.7829253,427.7723 208.3716253,430.8341 217.1368253,433.83299999999997 226.06712530000001,436.75649999999996 235.1655253,439.59869999999995 244.43452530000002,442.3608 253.85822530000002,445.0415 263.4002253,447.6328 273.0241253,450.1182 282.7172253,452.4856 292.4908253,454.73209999999995 302.35222530000004,456.86789999999996 312.2744253,458.9004 322.19532530000004,460.82759999999996 332.0489253,462.6286 341.7936253,464.2845 351.4130253,465.7827 360.9127253,467.11209999999994 370.31892530000005,468.26329999999996 379.6767253,469.2288 389.0411253,470.01109999999994 398.4638253,470.6196 407.99202529999997,471.05999999999995 417.6697253,471.3384 427.5288253,471.46899999999994 437.5758253,471.46799999999996 447.7843253,471.35209999999995 458.10222530000004,471.1285 468.4675253,470.8026 478.81372530000004,470.38109999999995 489.07652529999996,469.8596 499.2040253,469.2283 509.1589253,468.47909999999996 518.9233253000001,467.5992 528.5159253,466.56789999999995 537.9922253,465.36019999999996 547.4379253,463.95179999999993 556.9414253,462.33719999999994 566.5719253,460.51249999999993 576.3786253000001,458.4738 586.3971253,456.21849999999995 596.6615253,453.7437 607.2056253,451.04729999999995 618.0598253,448.12809999999996 629.2404253,444.9894 640.7379253,441.64469999999994 652.5103253000001,438.11439999999993 664.4923253,434.42459999999994 676.5990253,430.60889999999995 688.7226253,426.7038 700.7361253,422.7537 712.5294253000001,418.84009999999995 724.0563253,415.06499999999994 735.3230253,411.4967 746.3544253,408.15139999999997 757.1850253,405.02639999999997 767.8547252999999,402.1098999999999 778.3960253,399.3791 788.8335253,396.8116 799.1564253,394.36249999999995 809.2805253,391.98569999999995 819.0732253,389.66369999999995 828.4317252999999,387.4136 837.3140252999999,385.24679999999995 845.7139253,383.16839999999996 853.6222253,381.18569999999994 861.0288253,379.30679999999995 867.9473253000001,377.5578 874.4329253000001,375.96919999999994 880.5571253,374.55289999999997 886.3872253,373.303 891.9667253,372.18839999999994 897.3195253,371.1816 902.4587253,370.26189999999997 907.3913253,369.41149999999993 912.1193253,368.6135 916.6421253,367.85479999999995 920.9589253,367.12530999999996 925.0731253,366.42959999999994 929.0002253,365.79247 932.7625253,365.23303999999996 936.3851253,364.76446 939.8921253,364.39345999999995 943.2998253,364.10247 946.6151253,363.86652999999995 949.8394252999999,363.6647899999999 952.9707253,363.47968999999995 956.0061253,363.29463 958.9471253,363.09076999999996 961.7973253,362.85175999999996 964.5612252999999,362.56447 967.2432253000001,362.21818999999994 969.8374253000001,361.79306999999994 972.3291253,361.25842 974.7104253,360.58563999999996 976.9780253,359.74656999999996 979.1325253,358.71387999999996 981.1888253000001,357.49275 983.1661253,356.10835 985.0778253,354.58630999999997 986.9329253,352.95516999999995 988.7337253000001,351.24325 990.4654253,349.45239999999995 992.1092252999999,347.57156 993.6482253,345.58572 995.0662252999999,343.47472999999997 996.3551253,341.22207 997.5168253,338.82282999999995 998.5512253,336.27154999999993 999.4550253000001,333.56102999999996 1000.2212253,330.68229999999994 1000.8502253,327.61458999999996 1001.3583253,324.31499999999994 1001.7698253,320.71826 1002.1246252999999,316.7186 1002.4984253,312.12208999999996 1003.0753252999999,306.48681999999997 1004.2081253,299.6387" stroke="black" stroke-width="2.0" /></svg>