<?xml version="1.0" encoding="utf-8" ?>
<svg baseProfile="full" height="676.9853" version="1.1" width="1012.005244729" xmlns="http://www.w3.org/2000/svg" xmlns:ev="http://www.w3.org/2001/xml-events" xmlns:xlink="http://www.w3.org/1999/xlink"><defs /><polygon fill="none" points="1004.005244729,307.6508 1001.912544729,298.31907 1000.1964447290001,288.03295 998.704044729,278.18263 997.2084447289999,268.90805 995.6214447289999,260.21796 993.871144729,252.02933000000002 991.915344729,244.23510000000002 989.749444729,236.74970000000002 987.367744729,229.5113 984.767944729,222.46929999999998 982.000744729,215.5681 979.145644729,208.7783 976.2912447289999,202.10590000000002 973.497244729,195.59310000000002 970.7772447289999,189.28879999999998 968.1340447289999,183.21959999999999 965.5652447289999,177.3944 963.055044729,171.8097 960.567244729,166.4597 958.072744729,161.343 955.5515447289999,156.46060000000003 952.991644729,151.8127 950.3835447289999,147.4074 947.694644729,143.3095 944.878044729,139.57760000000002 941.881544729,136.24460000000002 938.643744729,133.3351 935.088144729,130.875 931.177644729,128.8272 926.927644729,127.10340000000002 922.368444729,125.62379999999999 917.561744729,124.30720000000002 912.558744729,123.0882 907.362544729,121.9185 901.9709447289999,120.7363 896.379244729,119.46780000000001 890.588144729,118.06650000000002 884.599144729,116.49770000000001 878.405744729,114.7176 871.976944729,112.69630000000001 865.2495447289999,110.45850000000002 858.154044729,108.0529 850.631344729,105.5428 842.6576447289999,102.9365 834.224444729,100.21720000000002 825.329044729,97.36589999999998 815.972844729,94.37490000000003 806.170844729,91.24310000000003 795.953444729,87.97609999999997 785.3645447289999,84.59100000000001 774.4588447289999,81.11009999999999 763.300344729,77.56400000000002 751.970644729,73.99189999999999 740.569044729,70.41089999999997 729.1721447289999,66.76330000000002 717.7787447289999,62.964 706.316644729,59.004999999999995 694.742944729,54.96070000000003 683.095444729,50.9212 671.467744729,46.93299999999999 659.949944729,43.02710000000002 648.605544729,39.24720000000002 637.456544729,35.647699999999986 626.493644729,32.26710000000003 615.6865447289999,29.12669999999997 604.982544729,26.235500000000002 594.307144729,23.595000000000027 583.593444729,21.171400000000006 572.817644729,18.919500000000028 562.002144729,16.806899999999985 551.190944729,14.831700000000012 540.414444729,13.005299999999977 529.685144729,11.334900000000005 519.0049447289999,9.824600000000032 508.37524472900003,8.477900000000034 497.79934472900004,7.29830000000004 487.281344729,6.290099999999995 476.82444472900005,5.458500000000015 466.430644729,4.8081000000000245 456.09964472900003,4.343999999999994 445.8225447290001,4.072500000000048 435.578844729,4.0 425.34104472900003,4.123400000000004 415.09444472900003,4.421199999999999 404.848144729,4.870299999999986 394.633144729,5.451900000000023 384.48244472900006,6.161600000000021 374.417844729,6.996700000000033 364.450944729,7.953899999999976 354.59714472900004,9.026700000000005 344.887044729,10.204999999999984 335.36444472900007,11.48090000000002 326.06744472900004,12.877100000000041 317.000044729,14.428899999999999 308.135444729,16.171699999999987 299.43064472900005,18.12050000000005 290.8542447290001,20.268500000000017 282.393444729,22.606900000000053 274.051444729,25.126899999999978 265.83394472900005,27.830300000000022 257.735644729,30.72539999999998 249.739644729,33.824900000000014 241.81814472899998,37.130600000000015 233.95034472900002,40.626900000000035 226.133444729,44.289999999999964 218.384044729,48.09319999999997 210.730244729,52.029600000000016 203.190344729,56.1019 195.77024472899998,60.31849999999997 188.46454472899998,64.6834 181.267344729,69.19190000000003 174.178644729,73.8356 167.204244729,78.60359999999997 160.354444729,83.48759999999999 153.640044729,88.47920000000005 147.071444729,93.5695 140.661444729,98.75340000000003 134.420144729,104.03379999999999 128.350944729,109.41890000000001 122.448744729,114.9188 116.696444729,120.52780000000001 111.08174472900001,126.2287 105.60084472899999,131.996 100.259694729,137.8022 95.07068472899999,143.6261 90.043794729,149.4485 85.186354729,155.2521 80.505374729,161.02300000000002 76.006844729,166.74980000000002 71.69424472899999,172.4232 67.568304729,178.0346 63.625404728999996,183.5739 59.860954729,189.0293 56.270594729,194.3893 52.850484728999994,199.6439 49.600914728999996,204.78730000000002 46.522574729,209.817 43.614254728999995,214.73090000000002 40.873284729,219.5286 38.298894729,224.21120000000002 35.891564729,228.78320000000002 33.649274729,233.25130000000001 31.568304729,237.6232 29.643664729,241.90730000000002 27.861604729,246.10770000000002 26.201774729,250.22292 24.646774729000004,254.24952000000002 23.181914729000002,258.18336 21.794614729,262.01998000000003 20.474214729,265.75512000000003 19.216224729,269.38737000000003 18.021774729,272.91842 16.891604729,276.35035 15.825754728999998,279.68547 14.823684729,282.92632000000003 13.884367729,286.07564 13.006521729,289.13628 12.189938728999998,292.11098 11.434483729,295.00336 10.739364729,297.818 10.103393729,300.55999 9.525184729,303.23465 9.003286729,305.8473 8.536278729,308.40315 8.122732728999999,310.90722 7.7577817289999995,313.36389 7.432816729,315.77599 7.140045729000001,318.14486 6.872590729000001,320.47074000000003 6.624342729,322.75306 6.389871729,324.99071000000004 6.164369729000001,327.18221 5.943617729,329.32593 5.723956729,331.42026 5.5022667290000005,333.46371 5.275935729,335.45504 5.042836728999999,337.39329000000004 4.805808129,339.27816 4.578715129,341.111887 4.374794029,342.899652 4.205204229,344.648629 4.079843729,346.36733100000004 4.008161511,348.06536800000003 4.0,349.75354980000003 4.063956549,351.444237 4.193734729,353.150371 4.377309229,354.883383 4.602305329,356.65297300000003 4.854842329,358.466811 5.118444729,360.32968 5.3796867289999994,362.24231000000003 5.639334729,364.20271 5.900991728999999,366.2084 6.1688737289999995,368.25668 6.447824729000001,370.3448 6.743322729000001,372.47021 7.061507729000001,374.63069 7.409225729,376.82467 7.794120729,379.05144 8.224787728999999,381.31146 8.710058729,383.60661 9.254108729,385.93977 9.859411729000001,388.31394 10.528700729,390.73205 11.264947729,393.19685000000004 12.071312728999999,395.71083 12.951063729,398.27601 13.907427729,400.8937 14.942234728999999,403.56577 16.054754729,406.29625 17.243174729,409.08956 18.504574728999998,411.95026 19.834674729,414.88292 21.227544729,417.89201 22.679834729000003,420.97953 24.200014729000003,424.14108 25.800344729000003,427.37104 27.495434729000003,430.66398000000004 29.302854729000003,434.01512 31.243894729,437.42098 33.334594729,440.885 35.578044729,444.41919 37.974524728999995,448.03633 40.521294729,451.7487 43.211074728999996,455.56690000000003 46.040294728999996,459.4945 49.015334729,463.528 52.14426472899999,467.6635 55.436964728999996,471.8982 58.905314729,476.2315 62.55922472899999,480.6655 66.40705472900001,485.2024 70.455814729,489.8423 74.710514729,494.5833 79.175344729,499.4216 83.85413472900001,504.35249999999996 88.75038472899999,509.3719 93.867114729,514.4766 99.203064729,519.6639 104.749944729,524.9272 110.491144729,530.2532 116.412444729,535.6136 122.511944729,540.9735000000001 128.798844729,546.3056 135.289344729,551.5971 141.98794472900002,556.8536 148.88844472899999,562.0787 155.975044729,567.2687 163.230244729,572.4092 170.638444729,577.4832 178.184944729,582.4754 185.859544729,587.3685 193.659344729,592.145 201.589044729,596.7916 209.657044729,601.3029 217.866544729,605.6822 226.215644729,609.931 234.698144729,614.0478 243.30894472900002,618.0278000000001 252.047144729,621.8674 260.91594472900005,625.5654 269.91794472900006,629.1269 279.048744729,632.5576 288.296744729,635.8604 297.64674472900003,639.032 307.08604472900004,642.0659 316.604744729,644.957 326.195344729,647.7024 335.84984472900004,650.3005 345.560344729,652.7502999999999 355.31764472900005,655.0509 365.109144729,657.2024 374.91664472900004,659.204 384.71804472900004,661.0516 394.496944729,662.7291 404.248844729,664.2203 413.980344729,665.5123 423.703744729,666.5998 433.435444729,667.48 443.196644729,668.1493 453.010944729,668.6128 462.89154472900003,668.8863 472.836344729,668.9853 482.82834472900004,668.9199 492.850644729,668.6859 502.896244729,668.2769000000001 512.9686447290001,667.687 523.0751447289999,666.9147 533.218244729,665.9601 543.3944447289999,664.8233 553.597644729,663.4983 563.830644729,661.9737 574.1091447289999,660.2351 584.461644729,658.2774999999999 594.919744729,656.1081 605.5112447289999,653.7352000000001 616.257644729,651.1728 627.152444729,648.4495999999999 638.139944729,645.6102000000001 649.1235447290001,642.6707 660.0511447289999,639.5855 670.9646447289999,636.2831000000001 681.978444729,632.7364 693.164544729,628.9908 704.4897447289999,625.1332 715.8597447289999,621.2581 727.2250447289999,617.4382 738.585644729,613.7039 749.912044729,610.0381 761.120244729,606.436 772.110344729,602.9302 782.813744729,599.563 793.195544729,596.3657000000001 803.2517447289999,593.3652999999999 813.000244729,590.5771 822.459244729,587.9886 831.6263447289999,585.5709 840.486244729,583.3009999999999 849.016944729,581.1594 857.194344729,579.1301 864.9987447289999,577.2036 872.4244447289999,575.3848 879.480744729,573.6775 886.1847447289999,572.0768 892.553444729,570.5571 898.601044729,569.0935 904.341444729,567.6709000000001 909.794544729,566.3171 914.9887447289999,565.0751 919.955644729,563.9743 924.725744729,563.0074 929.321744729,562.0765 933.7567447289999,561.0865 938.037144729,559.9635000000001 942.1304447289999,558.6495 945.954544729,557.092 949.451444729,555.2371 952.579144729,553.0209 955.323444729,550.3817 957.751644729,547.3206 959.934144729,543.845 961.933244729,539.9585999999999 963.812644729,535.6737 965.646144729,531.0318 967.513344729,526.1206 969.434044729,520.9825000000001 971.4003447289999,515.6309 973.404844729,510.0797 975.443744729,504.33590000000004 977.520744729,498.3895 979.643244729,492.2105 981.7992447290001,485.7754 983.9673447289999,479.0643 986.1200447289999,472.0573 988.223244729,464.73580000000004 990.260344729,457.0779 992.233344729,449.05355000000003 994.1472447289999,440.62326 996.016144729,431.73528 997.888544729,422.33945 999.838944729,412.40572000000003 1001.9561447289999,401.93638 1004.005244729,392.4108" stroke="black" stroke-width="2.0" /></svg>