<?xml version="1.0" encoding="utf-8" ?>
<svg baseProfile="full" height="142.0105" version="1.1" width="1011.995921934" xmlns="http://www.w3.org/2000/svg" xmlns:ev="http://www.w3.org/2001/xml-events" xmlns:xlink="http://www.w3.org/1999/xlink"><defs /><polygon fill="none" points="1003.995921934,104.84360000000001 1000.632421934,104.46031 996.438921934,103.9197072 991.9335219339999,103.296558 987.103321934,102.56663200000001 981.9436219339999,101.74055500000001 976.4974219339999,100.82882400000001 970.810821934,99.83986300000001 964.924521934,98.77861200000001 958.872621934,97.65020000000001 952.684821934,96.46205200000001 946.389321934,95.22244200000002 940.009921934,93.93777000000001 933.5632219339999,92.61298000000001 927.058421934,91.25224000000001 920.504921934,89.86030000000001 913.9145219339999,88.4424 907.297821934,87.00183000000001 900.6595219339999,85.53996000000001 893.996821934,84.05705 887.305921934,82.55465000000001 880.587921934,81.03595000000001 873.849721934,79.5052 867.1003219339999,77.96511000000001 860.343721934,76.4167 853.578721934,74.85983000000002 846.8008219339999,73.29461 840.0087219339999,71.72274000000002 833.206721934,70.14724000000001 826.4038219339999,68.57216 819.608721934,67.00120000000001 812.8250219339999,65.43677000000001 806.051021934,63.88002000000001 799.281121934,62.33049000000001 792.511221934,60.78706000000001 785.741521934,59.24947000000001 778.9761219339999,57.71836000000001 772.221521934,56.19591000000001 765.482721934,54.68503000000001 758.760921934,53.18787000000001 752.054121934,51.705830000000006 745.358021934,50.23921000000001 738.6681219339999,48.78746000000001 731.981321934,47.35021000000001 725.295621934,45.92741000000001 718.610421934,44.51924000000001 711.9258219339999,43.125980000000006 705.242821934,41.74809000000002 698.563221934,40.38613000000001 691.889421934,39.04080000000002 685.223821934,37.71333 678.568021934,36.40516000000001 671.921921934,35.117440000000016 665.284221934,33.85107000000001 658.6524219339999,32.60658000000001 652.023621934,31.38376000000001 645.3957219339999,30.18238000000001 638.767421934,29.00233 632.138121934,27.84369000000001 625.5078219339999,26.706670000000017 618.877321934,25.591690000000014 612.247921934,24.49924 605.621221934,23.42988000000001 598.999521934,22.384220000000013 592.385221934,21.36322 585.7797219339999,20.368110000000016 579.182921934,19.399900000000017 572.593221934,18.459390000000013 566.007721934,17.54719 559.422921934,16.663150000000016 552.835521934,15.806600000000003 546.2439219339999,14.977010000000007 539.6469219339999,14.17404000000002 533.045021934,13.397480000000002 526.439221934,12.647490000000005 519.831521934,11.924480000000017 513.2247219340001,11.228960000000015 506.62232193400007,10.561440000000005 500.028521934,9.922500000000014 493.44742193400003,9.31338000000001 486.880721934,8.735630000000015 480.327821934,8.190550000000002 473.785321934,7.679210000000012 467.247321934,7.202490000000012 460.707321934,6.760000000000005 454.16042193400006,6.350589999999997 447.605021934,5.97338000000002 441.041821934,5.627650000000017 434.474621934,5.312880000000007 427.908821934,5.029550000000015 421.349021934,4.778700000000015 414.79872193400007,4.561400000000006 408.25992193400003,4.37830000000001 401.73352193400007,4.230200000000011 395.219221934,4.117800000000003 388.71532193400003,4.041499999999999 382.218921934,4.0020000000000095 375.72572193400003,4.0 369.23002193400004,4.036100000000019 362.726921934,4.109700000000004 356.21532193400003,4.220000000000013 349.69782193400005,4.366000000000014 343.18132193400004,4.546500000000009 336.676621934,4.760600000000011 330.19332193400004,5.009920000000008 323.735721934,5.296300000000002 317.302821934,5.621910000000014 310.88822193400006,5.989200000000011 304.48132193400005,6.399760000000001 298.073121934,6.853120000000004 291.658721934,7.34845 285.237821934,7.884670000000014 278.814321934,8.460370000000012 272.39532193400004,9.075000000000017 265.987321934,9.728790000000018 259.594921934,10.421990000000008 253.221321934,11.154939999999996 246.867821934,11.928200000000018 240.53462193399997,12.74266 234.220021934,13.599540000000005 227.920621934,14.500280000000004 221.631821934,15.446550000000002 215.348721934,16.438840000000013 209.069321934,17.476520000000008 202.795321934,18.558400000000006 196.531921934,19.68266 190.287321934,20.848140000000015 184.068521934,22.055040000000005 177.880921934,23.30376000000001 171.727521934,24.59499000000001 165.610021934,25.92979000000001 159.528721934,27.309510000000003 153.48342193399998,28.735690000000005 147.473021934,30.210030000000017 141.49632193399998,31.733840000000015 135.55462193399998,33.30738000000001 129.652221934,34.93002000000001 123.796021934,36.600300000000004 117.993921934,38.31757 112.250321934,40.08256 106.56602193399999,41.89697 100.938841934,43.76259000000001 95.371291934,45.67774000000001 89.875051934,47.63696000000001 84.470001934,49.63152000000001 79.180561934,51.65395000000001 74.02798193399998,53.698690000000006 69.02810193399999,55.76057000000001 64.19398193399999,57.833650000000006 59.54315193400001,59.90807000000001 55.096071934,61.97063000000001 50.872081934,64.00748000000002 46.888681934000005,66.00578000000002 43.157931934,67.95320000000001 39.683721934,69.83973 36.464841934,71.65929 33.496461933999996,73.40747000000002 30.768381934,75.08144000000001 28.266001934,76.68083000000001 25.973301934,78.20821000000001 23.873011933999997,79.66731000000001 21.947281934,81.06233 20.178771933999997,82.39776 18.553111934,83.67888 17.059191933999998,84.91051000000002 15.686741933999999,86.09623 14.425951934,87.23896 13.267403933999999,88.34133000000001 12.203043934,89.40628000000001 11.225978934,90.43783 10.328963934,91.44034 9.504989934000001,92.41796000000001 8.747632933999999,93.37454000000001 8.051203934,94.31352000000001 7.412233934,95.237812 6.8302769340000005,96.14884 6.305366934,97.04654900000001 5.837309934,97.929944 5.425389934,98.79754600000001 5.068227934,99.647727 4.764251134,100.47861800000001 4.512735134,101.288402 4.312298734,102.077807 4.161375034,102.849501 4.058896684,103.60728900000001 4.004727105,104.35577190000001 4.0,105.1003038 4.045909424,105.845994 4.143042934,106.59597400000001 4.293411834,107.35201400000001 4.500389334,108.114489 4.768430234,108.881989 5.102601934,109.650647 5.506797934,110.41488400000001 5.981151934,111.17158700000002 6.524335934,111.918428 7.134169934000001,112.65335700000001 7.807778934,113.37473200000001 8.541871934,114.081466 9.335660934,114.77371500000001 10.192469934,115.45286000000002 11.116193934000002,116.1205 12.110812934,116.77839000000002 13.180053934,117.42851 14.326991933999999,118.07297000000001 15.556231934000001,118.7125 16.874331934,119.34684000000001 18.288391934,119.97600000000001 19.806001934,120.60050000000001 21.435411933999998,121.22163 23.186751933999997,121.84077 25.073521933999995,122.45790000000001 27.111031934,123.07305000000001 29.316401933999998,123.68692000000001 31.708591933999998,124.30108000000001 34.308571934,124.91609000000001 37.138661934,125.53054 40.219341934,126.14285000000001 43.568341933999996,126.75218000000001 47.202051934,127.35640000000001 51.133191934,127.95041 55.367691934,128.5292 59.905811934,129.0886 64.741651934,129.62354 69.85899193399999,130.12956000000003 75.23454193399999,130.60419000000002 80.841951934,131.04479 86.65126193399999,131.4495 92.633541934,131.81859000000003 98.763781934,132.15264000000002 105.017821934,132.45264 111.37332193399999,132.72073 117.811521934,132.95842000000002 124.31682193399999,133.16672 130.877621934,133.34723 137.48642193400002,133.50165 144.137721934,133.63167 150.827021934,133.73914000000002 157.551221934,133.82595 164.307021934,133.89391 171.090621934,133.94482000000002 177.896721934,133.98055 184.720021934,134.00227 191.556921934,134.0105 198.406321934,134.00575 205.269721934,133.98861 212.14942193399997,133.96025 219.045421934,133.92204 225.955421934,133.87543000000002 232.87472193399998,133.82164 239.798221934,133.76085 246.723021934,133.69288 253.648521934,133.61757 260.576521934,133.53483 267.50922193400004,133.44499000000002 274.44772193400007,133.34853 281.391121934,133.24596000000003 288.33722193400007,133.13776000000001 295.283521934,133.02397000000002 302.228721934,132.9044 309.17362193400004,132.77886 316.120721934,132.64712 323.07352193400004,132.50941 330.03412193400004,132.36648000000002 337.002321934,132.21916000000002 343.975521934,132.06834 350.94912193400006,131.9146 357.918621934,131.7575 364.881721934,131.59640000000002 371.838121934,131.43059 378.78952193400005,131.25937000000002 385.73902193400005,131.08248 392.689121934,130.90006 399.641221934,130.71230000000003 406.59572193400004,130.51939000000002 413.551821934,130.32152000000002 420.508421934,130.11871000000002 427.464521934,129.91094 434.41952193400004,129.69818 441.37292193400003,129.48041 448.32442193400004,129.25758000000002 455.274221934,129.02958 462.22302193400003,128.79631 469.17162193400003,128.55765000000002 476.121421934,128.31348000000003 483.073821934,128.0639 490.02892193400004,127.80919000000002 496.98592193400003,127.54964000000001 503.94282193400005,127.28563000000001 510.89632193400007,127.01741000000001 517.843721934,126.74452000000001 524.783721934,126.46631000000001 531.7170219340001,126.18205 538.645921934,125.89092000000001 545.574221934,125.59248000000001 552.5052219339999,125.28703000000002 559.440821934,124.97501000000001 566.381421934,124.65693000000002 573.325821934,124.33332000000001 580.271821934,124.00446000000001 587.2175219339999,123.67030000000001 594.1615219339999,123.33078 601.1031219339999,122.98580000000001 608.042221934,122.63524000000001 614.979221934,122.27899000000001 621.914821934,121.91688 628.850321934,121.54875000000001 635.787021934,121.1744 642.7270219339999,120.79385 649.6713219339999,120.40748 656.620321934,120.01575000000001 663.573221934,119.61918000000001 670.528521934,119.21829000000001 677.484421934,118.81320000000001 684.439821934,118.40384 691.394821934,117.99007 698.350621934,117.57172000000001 705.308921934,117.14879 712.2714219339999,116.72165000000001 719.239121934,116.29070000000002 726.2121219339999,115.85639 733.190221934,115.41918000000001 740.172521934,114.97945000000001 747.158321934,114.53760400000002 754.1466219339999,114.09402000000001 761.136321934,113.64915500000001 768.1264219340001,113.203641 775.1162219339999,112.758142 782.105021934,112.31331000000002 789.092521934,111.869713 796.0775219340001,111.42769500000001 803.058021934,110.98761900000001 810.030321934,110.549925 816.990521934,110.11549600000001 823.935521934,109.685933 830.865221934,109.26274900000001 837.781721934,108.84725100000001 844.6882219339999,108.440043 851.5859219339999,108.04137500000002 858.472721934,107.65164700000001 865.3444219339999,107.27175100000001 872.196821934,106.90350300000001 879.028021934,106.54871600000001 885.838221934,106.20899200000001 892.628121934,105.88554400000001 899.396421934,105.5795135 906.1403219339999,105.29214370000001 912.855421934,105.02511240000001 919.536521934,104.78022331000001 926.177421934,104.55930210000001 932.770721934,104.36457080000001 939.307321934,104.19821490000001 945.7757219339999,104.06205150000001 952.1595219339999,103.95743200000001 958.437021934,103.8854622 964.576721934,103.84741380000001 970.536221934,103.8443608 976.274621934,103.8804429 981.7639219339999,103.95868560000001 986.975021934,104.0740961 991.8679219339999,104.22044280000001 996.4172219339999,104.3994042 1000.620521934,104.6149541 1003.995921934,104.84360000000001" stroke="black" stroke-width="2.0" /></svg>