<?xml version="1.0" encoding="utf-8" ?>
<svg baseProfile="full" height="111.62683" version="1.1" width="1012.0002063995" xmlns="http://www.w3.org/2000/svg" xmlns:ev="http://www.w3.org/2001/xml-events" xmlns:xlink="http://www.w3.org/1999/xlink"><defs /><polygon fill="none" points="1004.0002063995,80.6455 1000.7975063995,80.4436965 996.6337063994999,80.133595 992.0016063995,79.754116 986.9393063995,79.293522 981.5181063995001,78.763697 975.8509063995,78.172765 970.0077063995001,77.525547 964.0294063995001,76.829879 957.9549063995,76.094407 951.8186063995,75.326731 945.6477063995,74.533046 939.4595063995,73.715328 933.2596063995,72.873634 927.0446063995,72.008397 920.8122063995,71.121324 914.5638063995001,70.21462 908.3027063995,69.29025 902.0316063995001,68.34991 895.7523063995001,67.39513 889.4657063995,66.42701 883.1721063995001,65.4464 876.8716063995,64.45409 870.5635063995,63.45093 864.2473063995001,62.437870000000004 857.9228063995,61.41592 851.5898063995,60.386089999999996 845.2485063995,59.3494 838.8997063995,58.30691 832.5445063995,57.2598 826.1846063995,56.20912 819.8217063995,55.155469999999994 813.4567063995,54.09928 807.0899063995,53.04084999999999 800.7210063995001,51.98052 794.3500063995,50.91887 787.9776063995001,49.85664 781.6055063995001,48.79473 775.2358063995,47.73415 768.8707063995,46.67608 762.5118063995,45.62157 756.1597063995,44.57156 749.8144063995001,43.52682 743.4751063995001,42.487919999999995 737.1410063995,41.45523 730.8104063995,40.42908 724.4816063995,39.409749999999995 718.1527063995,38.39734 711.8222063995,37.39165 705.4902063994999,36.39264 699.1581063995001,35.40045 692.8286063995,34.415459999999996 686.5051063995,33.438689999999994 680.1901063995,32.471619999999994 673.8841063995,31.51549 667.5858063995,30.571239999999996 661.2920063995,29.639519999999997 654.9989063995,28.720129999999997 648.7034063995001,27.812380000000005 642.4041063995,26.91581 636.1010063995001,26.03015 629.7954063995,25.155389999999997 623.4898063995,24.29206 617.1863063995,23.441019999999995 610.8866063995001,22.603049999999996 604.5917063995,21.77885 598.3020063995,20.96902 592.0177063995,20.17416 585.7383063995001,19.394840000000002 579.4629063995001,18.631569999999996 573.1903063995001,17.884819999999998 566.9186063995,17.155030000000004 560.6459063995001,16.442260000000005 554.3708063995001,15.746200000000002 548.0926063995,15.066569999999999 541.8113063995,14.403189999999995 535.5275063995001,13.755939999999995 529.2427063995,13.124989999999997 522.9586063995001,12.510929999999988 516.6767063995001,11.914410000000004 510.3985063994999,11.336069999999992 504.12560639950004,10.776499999999999 497.85940639949996,10.236339999999998 491.6007063995,9.716430000000003 485.3492063995,9.217549999999989 479.1036063995,8.74042 472.86130639949994,8.285669999999996 466.61890639949996,7.853809999999996 460.3727063995,7.444499999999991 454.12070639949997,7.0571000000000055 447.86260639949995,6.691119999999998 441.60010639949996,6.346129999999988 435.3367063995,6.021839999999997 429.07690639949993,5.7187899999999985 422.8241063995,5.438140000000004 416.58000639949995,5.180949999999996 410.3446063995,4.9482 404.1162063995,4.740769999999998 397.89200639949996,4.559090000000012 391.66920639949996,4.403040000000004 385.4456063995,4.272459999999995 379.22000639949994,4.167270000000002 372.9916063995,4.0874199999999945 366.7606063995,4.032899999999998 360.52750639949994,4.003750000000011 354.29420639949996,4.0 348.06300639949995,4.021650000000008 341.8373063995,4.068660000000008 335.62070639949997,4.141360000000006 329.41620639949997,4.240890000000007 323.2246063995,4.368510000000001 317.04460639949997,4.525459999999995 310.8733063995,4.713079999999991 304.7060063995,4.932159999999996 298.53880639949995,5.182410000000004 292.36910639949997,5.463440000000006 286.1963063995,5.774820000000005 280.0210063995,6.11605999999999 273.8455063995,6.487009999999998 267.67280639949996,6.887919999999994 261.5063063995,7.318950000000001 255.34990639950001,7.780200000000008 249.2078063995,8.271740000000008 243.0833063995,8.794349999999994 236.97670639950002,9.349369999999993 230.8847063995,9.938460000000006 224.8011063995,10.56367999999999 218.7168063995,11.226569999999995 212.6253063995,11.926569999999998 206.5259063995,12.66234999999999 200.4238063995,13.43177 194.3302063995,14.232299999999995 188.25750639950002,15.063990000000004 182.2127063995,15.928429999999992 176.19700639950003,16.827929999999995 170.2059063995,17.765499999999996 164.23200639950002,18.743249999999996 158.27110639949998,19.76213 152.3234063995,20.822449999999996 146.3926063995,21.92385 140.48510639949998,23.06653 134.6056063995,24.251510000000003 128.75660639950001,25.480109999999996 122.9381063995,26.75401 117.14940639950001,28.07479 111.3899063995,29.44386 105.65960639949999,30.86255 99.9593163995,32.33194 94.2928163995,33.852169999999994 88.6680363995,35.422109999999996 83.0965163995,37.03966 77.5912863995,38.70422 72.1634363995,40.415780000000005 66.82189639949999,42.17434 61.5803963995,43.978300000000004 56.4650763995,45.82065 51.5110663995,47.689479999999996 46.757246399500005,49.57315 42.237456399500005,51.45945 37.9773063995,53.33499 34.0115663995,55.17873 30.380786399500003,56.96076 27.106886399500002,58.656909999999996 24.1872363995,60.25949 21.5961263995,61.769279999999995 19.2969863995,63.191649999999996 17.2589863995,64.53223 15.458036399500001,65.79292 13.8691293995,66.97570999999999 12.4666003995,68.08492 11.227144399499998,69.13005 10.1276973995,70.12248 9.1473793995,71.072312 8.268742399499999,71.987895 7.4795753995,72.876397 6.7775683995,73.74363 6.1625173995,74.591517 5.6328503995,75.419581 5.1850783995,76.226443 4.8143521995,77.01034299999999 4.5173859995,77.768075 4.2904413995,78.500108 4.1296861995,79.210598 4.0328355895,79.905401 4.0,80.59145991 4.0332547895,81.2765552 4.1322454995,81.96673 4.2981293995,82.665716 4.5348469995,83.375119 4.8484313995,84.093498 5.2456823995,84.81454099999999 5.7314153994999995,85.53061 6.3076213995,86.238135 6.9742393995,86.934333 7.7292493995000005,87.617403 8.5692203995,88.287216 9.4955523995,88.945474 10.519112399499999,89.594551 11.653571399499999,90.237487 12.9144063995,90.8783 14.3174263995,91.52217999999999 15.8804063995,92.17162 17.6255263995,92.82553 19.5774563995,93.48363 21.7640963995,94.14815999999999 24.219306399500002,94.82154 26.9836163995,95.50161 30.095056399500002,96.18565 33.58282639950001,96.87132 37.4611363995,97.54916 41.719326399500005,98.20633 46.332036399500005,98.83351 51.2688363995,99.42224999999999 56.4845063995,99.96694 61.9305063995,100.46602 67.5597963995,100.9178 73.3278963995,101.32371 79.2005263995,101.68601 85.1531363995,102.00565 91.17108639950001,102.28492 97.24906639950001,102.52729 103.3823263995,102.73689999999999 109.5630063995,102.91812 115.7806063995,103.07432 122.0258063995,103.20731 128.2921063995,103.31894 134.57580639949998,103.41111 140.8750063995,103.48513 147.1886063995,103.54223999999999 153.51600639950001,103.5837 159.85680639950002,103.61078 166.2105063995,103.62473 172.57560639949997,103.62683 178.9496063995,103.61833 185.3303063995,103.59997 191.7162063995,103.57219 198.1071063995,103.53546 204.5040063995,103.49023 210.9084063995,103.4373 217.3212063995,103.37759 223.7421063995,103.31203 230.1700063995,103.24157 236.6031063995,103.16678 243.0396063995,103.08798 249.4783063995,103.00548 255.91830639949998,102.91958 262.35900639949995,102.83046999999999 268.8002063994999,102.73816 275.2416063995,102.64264 281.6831063995,102.54389 288.12460639949995,102.44192 294.56620639949995,102.33678 301.00840639949996,102.22859 307.45180639949996,102.11743 313.89730639949994,102.0034 320.34580639949996,101.88665 326.7980063995,101.76754 333.2536063995,101.64645999999999 339.71180639949995,101.52378999999999 346.1707063995,101.39996 352.6279063995,101.27501 359.0817063995,101.14854 365.5316063995,101.02013 371.9781063995,100.88931 378.42280639949996,100.75564 384.86790639949993,100.61909 391.31520639949997,100.47996 397.76570639949995,100.3386 404.2196063995,100.19536 410.67650639949994,100.05059 417.13530639949994,99.90442999999999 423.59480639949993,99.7569 430.05390639949997,99.60799 436.5115063995,99.4577 442.96640639949993,99.30601999999999 449.4178063995,99.15275 455.8655063995,98.99752 462.30990639949994,98.83997 468.75250639949996,98.67971 475.1951063995,98.51637 481.64000639949995,98.34998 488.08860639949995,98.18092 494.54100639949996,98.00961 500.9963063995,97.83651 507.45200639949996,97.6621 513.9051063995,97.48633 520.3537063995001,97.3087 526.7968063994999,97.12863999999999 533.2349063995,96.94556 539.6699063995001,96.75882999999999 546.1045063995,96.56824 552.5408063995001,96.37404 558.9801063995,96.17654999999999 565.4228063995,95.9761 571.8683063995,95.77306 578.3151063995,95.56761 584.7617063995001,95.35968 591.2071063995,95.14916 597.6505063995,94.93594 604.0913063995,94.71992 610.5294063995,94.50093 616.9651063995001,94.27881 623.3991063995,94.05338 629.8326063995,93.82442 636.2671063995,93.59172 642.7045063995,93.35532 649.1457063995001,93.11559 655.5908063995,92.87299 662.0385063995,92.62798 668.4864063995001,92.38107 674.9317063995001,92.13226 681.3727063995001,91.88113 687.8091063995001,91.62717 694.2421063995,91.36982 700.6746063995,91.10855 707.1096063995001,90.84349 713.5487063995,90.575065 719.9922063995,90.303796 726.4387063995,90.03025199999999 732.8852063995,89.75482099999999 739.3295063995,89.47731399999999 745.7706063995001,89.197405 752.2093063995,88.914699 758.6479063995,88.628813 765.0892063995001,88.340099 771.5355063995,88.049382 777.9873063995001,87.757548 784.4440063995,87.465538 790.9040063995001,87.173854 797.3654063995,86.882384 803.8269063995,86.590959 810.2874063995,86.299398 816.7461063995,86.007727 823.2029063995,85.71635 829.6575063995001,85.425693 836.1102063995,85.136169 842.5612063995001,84.848112 849.0102063995,84.561776 855.4559063995001,84.277445 861.8961063995001,83.995487 868.3286063995,83.716789 874.7521063995,83.442502 881.1669063995,83.17371299999999 887.5744063995,82.911276 893.9760063995,82.65565099999999 900.3720063995,82.40728 906.7622063995,82.166712 913.1443063995,81.934875 919.5142063995,81.712853 925.8657063995,81.5020418 932.1949063995,81.3049785 938.5036063995,81.1242905 944.7980063995001,80.96129619999999 951.0769063995,80.8151593 957.3254063995,80.68534666 963.5165063995,80.57386522 969.6136063995,80.4837472 975.5712063994999,80.4197685 981.3326063995,80.38681389999999 986.8257063995001,80.38516179999999 991.9592063995001,80.4119635 996.6315063995,80.4648266 1000.7891063995,80.55372291 1004.0002063995,80.6455" stroke="black" stroke-width="2.0" /></svg>