<?xml version="1.0" encoding="utf-8" ?>
<svg baseProfile="full" height="96.05418" version="1.1" width="1012.03030687" xmlns="http://www.w3.org/2000/svg" xmlns:ev="http://www.w3.org/2001/xml-events" xmlns:xlink="http://www.w3.org/1999/xlink"><defs /><polygon fill="none" points="1004.02480687,57.33071 1001.0486068700001,56.979186600000006 997.44980687,56.554125500000005 993.65480687,56.105895000000004 989.64370687,55.632161 985.39560687,55.130424000000005 980.8884068699999,54.598111 976.10130687,54.032748000000005 971.01680687,53.43227400000001 965.62510687,52.795527 959.9297068699999,52.122933 953.9550068699999,51.417366 947.80290687,50.690863 941.7479068700001,49.975844 935.76760687,49.269632 929.80800687,48.565845 923.82940687,47.859774 917.80340687,47.14808000000001 911.71310687,46.42873 905.5541068699999,45.701190000000004 899.3661068700001,44.970150000000004 893.21280687,44.24315 887.0791068699999,43.518480000000004 880.9503068700001,42.79442 874.81510687,42.06971 868.66560687,41.34347 862.49760687,40.61522000000001 856.3100068699999,39.88492000000001 850.10830687,39.153240000000004 843.9127068700001,38.4225 837.72320687,37.69249000000001 831.53530687,36.96251000000001 825.3457068700001,36.23198000000001 819.15160687,35.5004 812.9517068700001,34.76740000000001 806.7484068699999,34.03311 800.55120687,33.298460000000006 794.35980687,32.56374 788.17330687,31.829630000000005 781.99070687,31.09681 775.81120687,30.365980000000004 769.63410687,29.63784 763.45870687,28.913130000000002 757.2846068700001,28.192570000000003 751.11150687,27.476920000000003 744.93900687,26.766760000000005 738.76710687,26.062450000000005 732.59600687,25.364390000000007 726.4259068700001,24.672970000000007 720.25720687,23.988600000000005 714.09050687,23.311710000000005 707.92660687,22.642740000000003 701.76630687,21.98214 695.61070687,21.33046000000001 689.46030687,20.68837 683.31540687,20.0565 677.1754068700001,19.435420000000008 671.03950687,18.825650000000003 664.90620687,18.22766 658.77340687,17.641869999999997 652.63880687,17.0687 646.49940687,16.508110000000002 640.3527068699999,15.959080000000007 634.1971068700001,15.420480000000005 628.03180687,14.891260000000003 621.85700687,14.370450000000005 615.67400687,13.857150000000004 609.48470687,13.350510000000007 603.29240687,12.84977 597.10090687,12.35463 590.91400687,11.866509999999998 584.73470687,11.387100000000004 578.56510687,10.918030000000009 572.40610687,10.460830000000001 566.25810687,10.016930000000002 560.12040687,9.587680000000006 553.99140687,9.174390000000002 547.86900687,8.778120000000001 541.75070687,8.399010000000004 535.6343068699999,8.03692000000001 529.51790687,7.691749999999999 523.40030687,7.363430000000001 517.28020687,7.051950000000005 511.15680687,6.757300000000001 505.02990687,6.479510000000005 498.89930687000003,6.218600000000002 492.76510687,5.974340000000005 486.62760687,5.746360000000003 480.48690687,5.5342800000000025 474.34310687,5.337710000000008 468.19630687,5.156290000000006 462.04670687,4.989600000000003 455.89420687,4.83728 449.73890687,4.698929999999997 443.58090687000004,4.574179999999998 437.42000687,4.462690000000002 431.25640687,4.364100000000008 425.09010687,4.2780600000000035 418.92130687,4.2042200000000065 412.75010687,4.142229999999998 406.57650687,4.091730000000005 400.40100687,4.0523800000000065 394.22350687,4.023990000000005 388.04460687,4.006530000000005 381.86450687,4.0 375.68380687,4.004380000000005 369.50300687,4.019680000000001 363.32290687,4.0458500000000015 357.14410687,4.082889999999999 350.96760687,4.130770000000005 344.79440687000005,4.189720000000001 338.62510687,4.2603400000000065 332.46030687,4.34328 326.30050687,4.439150000000005 320.14560687,4.548590000000004 313.99570687,4.672230000000006 307.85030687,4.810690000000001 301.70910687,4.9646100000000075 295.57110687,5.134530000000005 289.43590687,5.320750000000004 283.30300687,5.523560000000003 277.17220687,5.743250000000003 271.04350687,5.980090000000004 264.91710687,6.234360000000002 258.79340687,6.506300000000003 252.67300687,6.7961600000000075 246.55670687,7.104290000000006 240.44530687,7.431370000000001 234.33970687000001,7.778130000000004 228.24050687,8.14531000000001 222.14820687,8.533650000000002 216.06320687,8.943870000000004 209.98590686999998,9.376700000000007 203.91650687,9.832870000000007 197.85500686999998,10.313110000000002 191.80160687,10.818160000000006 185.75620687,11.348750000000003 179.71900687000002,11.905630000000002 173.68980686999998,12.489550000000008 167.66870687,13.101240000000004 161.65550687,13.741460000000004 155.65020687,14.41095 149.65240687000002,15.110500000000002 143.66240687,15.840970000000006 137.68040686999998,16.603250000000003 131.70710687000002,17.398180000000004 125.74380687,18.22654 119.79170687,19.089040000000004 113.85280687000001,19.986280000000008 107.92920687,20.91879 102.02337687,21.88698 96.13826687000001,22.891650000000006 90.27769687,23.934470000000005 84.44600687,25.017010000000006 78.64790687000001,26.14058 72.88884687,27.30692 67.17837687,28.519710000000003 61.53288686999999,29.781300000000005 55.974496869999996,31.091590000000004 50.52939687,32.448370000000004 45.234816869999996,33.85293 40.14365687,35.30454 35.31092687,36.79444000000001 30.78069687,38.30856 26.579626870000002,39.831720000000004 22.77228687,41.34604 19.492366869999998,42.79471 16.777736870000002,44.124120000000005 14.55260687,45.32283 12.72284787,46.40674 11.20088887,47.39954 9.90868687,48.33466 8.78200187,49.252347 7.79953087,50.150617000000004 6.9638928700000005,51.006005 6.26116687,51.814145 5.67406987,52.579321 5.18819987,53.307621000000005 4.79281637,54.004925 4.48041947,54.676458000000004 4.24622777,55.32681 4.08782769,55.960082 4.00503503,56.5800743 4.0,57.1904915 4.07738775,57.795188200000005 4.23906387,58.398266400000004 4.48348827,59.003538000000006 4.81156287,59.614417 5.22684587,60.234065 5.73571787,60.865408 6.34772887,61.510916 7.07589287,62.171857 7.93600687,62.846234 8.94173687,63.523345000000006 10.09347987,64.177974 11.40874487,64.811828 12.93607887,65.467032 14.73615687,66.16325 16.87725687,66.896955 19.439416870000002,67.65599 22.511556870000003,68.42332 26.13952687,69.17287 30.28950687,69.88459 34.934156869999995,70.55923 40.063076869999996,71.18823 45.60623687,71.76732 51.43960687,72.30642 57.431196869999994,72.83085 63.48841687,73.35097 69.55313687,73.85601 75.59619687,74.3371 81.61850687,74.78818000000001 87.64322686999999,75.20920000000001 93.69255687,75.6055 99.77915687,75.98194000000001 105.90550687,76.34275000000001 112.06460687,76.69062000000001 118.24670687,77.02609000000001 124.44340687,77.34967 130.64760687,77.66197 136.85430687,77.96379 143.05980687000002,78.25604 149.26250687,78.53970000000001 155.46230687000002,78.81586 161.66090687000002,79.0855 167.86040687000002,79.34918 174.06220687,79.6074 180.26770686999998,79.8606 186.47740687,80.10925 192.69170687000002,80.35375 198.91030687,80.59451 205.13250687000001,80.83193 211.35720687,81.06628 217.58340687,81.29755 223.81000687,81.52566 230.03640686999998,81.75059 236.26220687,81.97228 242.48720687,82.19072 248.71160687,82.40588 254.93560687000002,82.61776 261.15970687000004,82.82645 267.38460686999997,83.03239 273.61090687,83.23608 279.83910687,83.43799 286.06970687,83.63863 292.30310687,83.83848 298.53970687,84.03802 304.77970687,84.23775 311.02350687,84.43806000000001 317.26680687,84.63884 323.50680687,84.83997000000001 329.74430687,85.04144 335.98060687,85.24328 342.21770687000003,85.44550000000001 348.45770687,85.64814000000001 354.70130687,85.85119 360.93770687,86.05391 367.16270687,86.25448 373.37450687,86.4509 379.57220687,86.64121 385.75610687,86.82355000000001 391.92720687,86.99606 398.08740687,87.15697 404.23950687,87.30448000000001 410.38730687000003,87.43722 416.53420687,87.55538 422.68320687,87.65958 428.83640687,87.7504 434.99520687,87.82841 441.16000687,87.89414000000001 447.33070687,87.94813 453.50610687,87.99091 459.68450687,88.02293 465.86360687,88.04411 472.04180687,88.05418 478.21780687,88.05286000000001 484.39100686999996,88.0399 490.56100686999997,88.01503 496.72820687,87.97801 502.89330687,87.92855 509.05750687,87.86643000000001 515.22230687,87.79174 521.38880687,87.70476000000001 527.5576068700001,87.60576 533.72920687,87.49502000000001 539.90340687,87.37282 546.0796068699999,87.23946000000001 552.25690687,87.09524 558.4340068700001,86.94047 564.60920687,86.77510000000001 570.78150687,86.59881 576.95010687,86.41129000000001 583.1149068699999,86.21222 589.27610687,86.00126 595.43460687,85.77804 601.59160687,85.54219 607.7488068700001,85.2933 613.90840687,85.03146000000001 620.07190687,84.75724 626.24040687,84.47120000000001 632.4141068700001,84.17398 638.59290687,83.86621 644.7759068700001,83.54857 650.96140687,83.22181 657.14730687,82.88667000000001 663.33090687,82.5434 669.51000687,82.19157 675.6833068699999,81.83068 681.85040687,81.46021 688.01130687,81.07956 694.1674068699999,80.68812 700.3205068699999,80.28518 706.47330687,79.87 712.62910687,79.44264 718.79120687,79.00443 724.96190687,78.55689000000001 731.14270687,78.10157000000001 737.3344068700001,77.6401 743.5370068699999,77.17421 749.7494068699999,76.70570000000001 755.96990687,76.23644 762.19600687,75.76774 768.42500687,75.29979 774.65510687,74.83258000000001 780.88510687,74.36603 787.1144068699999,73.90005 793.34300687,73.43448000000001 799.57180687,72.96911 805.80200687,72.50369 812.03100687,72.03832 818.25530687,71.57325 824.4745068699999,71.10852 830.6895068700001,70.64409 836.90210687,70.17981 843.11540687,69.71547000000001 849.33330687,69.25077 855.56010687,68.78542 861.77900687,68.32067 867.97850687,67.85738 874.1587068700001,67.395542 880.32330687,66.934871 886.4797068700001,66.474822 892.63870687,66.014583 898.81480687,65.553067 905.02520687,65.088987 911.21790687,64.62623 917.34200687,64.168601 923.4001068700001,63.715902 929.40810687,63.266943000000005 935.39360687,62.819672000000004 941.39570687,62.371156 947.46780687,61.917405 953.64530687,61.455789 959.66210687,61.006175000000006 965.39930687,60.577455 970.83050687,60.171603000000005 975.95100687,59.788967 980.77030687,59.428841000000006 985.30580687,59.089914 989.5790068700001,58.770602000000004 993.61180687,58.4692455 997.42580687,58.1842344 1001.04130687,57.914063600000006 1004.03030687,57.69071" stroke="black" stroke-width="2.0" /></svg>