<?xml version="1.0" encoding="utf-8" ?>
<svg baseProfile="full" height="95.3001" version="1.1" width="1012.02573157" xmlns="http://www.w3.org/2000/svg" xmlns:ev="http://www.w3.org/2001/xml-events" xmlns:xlink="http://www.w3.org/1999/xlink"><defs /><polygon fill="none" points="1004.0185315699999,56.77987 1001.1110315699999,56.442111000000004 997.5961315699999,56.0337448 993.89063157,55.603166 989.9751315699999,55.148117 985.82873157,54.666163000000005 981.42973157,54.154767 976.75693157,53.611447 971.79203157,53.034049 966.5233315699999,52.421196 960.95133157,51.772933 955.09603157,51.091564000000005 949.05473157,50.38839 943.1150315699999,49.696881000000005 937.25783157,49.014856 931.4280315699999,48.335904 925.5846315699999,47.655255 919.6976315699999,46.969433 913.7473315699999,46.27617 907.7256315699999,45.5745 901.64563157,44.865970000000004 895.58843157,44.16008 889.5588315699999,43.45741 883.54013157,42.75609 877.5195315699999,42.05466 871.48763157,41.352090000000004 865.43833157,40.647710000000004 859.3691315699999,39.941280000000006 853.28103157,39.23298 847.1890315699999,38.52456000000001 841.10543157,37.817370000000004 835.02563157,37.11077 828.94593157,36.4042 822.86343157,35.697230000000005 816.7763315699999,34.98951 810.6839315699999,34.28087 804.58773157,33.571340000000006 798.49423157,32.861630000000005 792.4031315699999,32.15177 786.3129315699999,31.44181 780.22253157,30.731810000000003 774.1315315699999,30.021890000000003 768.03963157,29.31222 761.94693157,28.603 755.8542315699999,27.89451 749.76243157,27.187070000000002 743.67273157,26.48147 737.5861315699999,25.778790000000004 731.5036315699999,25.08007 725.4258315699999,24.386359999999996 719.35303157,23.698659999999997 713.2857315699999,23.01793 707.22363157,22.345110000000005 701.16693157,21.681109999999997 695.11493157,21.02666 689.06753157,20.38228 683.02383157,19.748419999999996 676.98313157,19.12554 670.9444315699999,18.514070000000004 664.90653157,17.914429999999996 658.8682315699999,17.327039999999997 652.82783157,16.75231 646.78383157,16.19037 640.73483157,15.640480000000004 634.67993157,15.101730000000003 628.6185315699998,14.573300000000003 622.55083157,14.054380000000002 616.47723157,13.544200000000004 610.39873157,13.042029999999997 604.3168315699999,12.547170000000001 598.23343157,12.0591 592.15053157,11.578390000000006 586.06993157,11.106079999999999 579.9928315699999,10.643140000000002 573.9202315699999,10.190539999999999 567.8529315699999,9.749180000000003 561.79103157,9.319950000000006 555.73453157,8.903690000000005 549.6830315699999,8.50121 543.63593157,8.113230000000001 537.59253157,7.7403500000000065 531.5523315699999,7.3832200000000014 525.51503157,7.0424600000000055 519.47993157,6.7187000000000054 513.4469315700001,6.412610000000001 507.41553157,6.12482 501.38553157,5.855980000000002 495.35683157,5.606490000000001 489.32913157,5.376250000000006 483.30193156999997,5.165120000000002 477.27473157,4.9729600000000005 471.24673157,4.799620000000004 465.21693157000004,4.6449599999999975 459.18433157000004,4.508880000000005 453.14743157000004,4.391240000000003 447.10483157,4.291760000000004 441.05523157000005,4.209350000000001 434.99763157,4.142690000000002 428.93143157000003,4.090499999999999 422.85683157,4.051450000000003 416.77413157,4.024239999999999 410.68443157,4.007539999999999 404.58913157,4.0 398.49033157,4.000390000000003 392.39013157,4.008569999999999 386.29033157000003,4.0249900000000025 380.19263157,4.050100000000008 374.09793157,4.0843400000000045 368.00713157,4.128149999999998 361.92033157000003,4.1819500000000005 355.83773157,4.246189999999999 349.75863157000003,4.321290000000005 343.68253157,4.4076299999999975 337.60873157000003,4.505539999999996 331.53683157,4.615330000000007 325.46653157000003,4.737340000000003 319.39773156999996,4.871860000000005 313.33053157,5.01923 307.26513157,5.1797499999999985 301.20183157,5.353720000000003 295.14123157000006,5.541550000000001 289.08393157,5.743780000000001 283.03033157,5.961000000000006 276.98063157,6.193770000000008 270.93513157,6.44267 264.89383157,6.708269999999999 258.85673156999997,6.9911499999999975 252.82373157,7.291899999999998 246.79453157,7.611090000000004 240.76913156999998,7.949350000000003 234.74733157,8.307290000000002 228.72943157,8.685500000000005 222.71573157,9.084570000000006 216.70683157000002,9.50506 210.70313157,9.947520000000004 204.70573157,10.412470000000006 198.71543157,10.900440000000003 192.73333157000002,11.412149999999997 186.76003157,11.948420000000006 180.79583157000002,12.51014 174.84073157,13.098190000000002 168.89423157000002,13.713520000000003 162.95543157,14.357110000000006 157.02313157,15.030009999999997 151.09553157,15.733350000000002 145.17113157,16.4681 139.24853157,17.23493 133.32793157,18.034370000000003 127.41013157,18.866799999999998 121.49713157000001,19.73245 115.59213157,20.631319999999995 109.69913157,21.56319 103.82327157,22.52758 97.97041157000001,23.524190000000004 92.14579157,24.55482 86.35119157000001,25.622460000000004 80.58472157,26.730690000000003 74.84114157,27.8839 69.11658157000001,29.08753 63.41899157,30.345290000000002 57.77018157,31.65725 52.20378157,33.01935 46.762071569999996,34.42785000000001 41.48321157,35.88579 36.38989157,37.39716 31.491731570000002,38.96595000000001 26.79014157,40.596630000000005 22.373781570000002,42.283550000000005 18.55793157,43.92399 15.50169157,45.40223 13.10948657,46.691190000000006 11.22797357,47.814452 9.70741057,48.829436 8.435701569999999,49.804432000000006 7.38473357,50.724076000000004 6.53394357,51.569464 5.84552757,52.349686 5.28970457,53.077355000000004 4.84614787,53.763174 4.50159037,54.415639 4.24789627,55.041558 4.08091967,55.646593 4.0,56.235714800000004 4.00801657,56.8136134 4.11094321,57.3851754 4.30951947,57.9560057 4.60361337,58.531652 4.99732267,59.1176 5.49946657,59.719731 6.1248065700000005,60.344717 6.896101570000001,61.000163 7.84611857,61.693448000000004 9.01182357,62.424169 10.40439857,63.165822000000006 12.06963257,63.923368 14.13384157,64.758186 16.75099157,65.694456 20.07308157,66.725863 24.14672157,67.79572 28.716561570000003,68.80089000000001 33.51023157,69.69906 38.50046157,70.49811 43.69692157,71.20527 49.09956157,71.82937 54.692631569999996,72.38175 60.44108157,72.87441 66.30383157,73.31417 72.24356157,73.70945 78.23119157000001,74.07147 84.24892157000001,74.41227 90.28764157,74.73661 96.34108157000001,75.04597 102.40499157,75.34197 108.47723157,75.62636 114.55733157,75.90051 120.64513157,76.16549 126.74033157,76.42239000000001 132.84243157,76.67229 138.95093157,76.91628 145.06483157,77.15545 151.18333157,77.3909 157.30543157,77.62369000000001 163.42973157,77.85438 169.55543157,78.08293 175.68153157,78.30931 181.80743157,78.53346 187.93283157,78.75538 194.05743157,78.97503 200.18113157000002,79.19239 206.30423157,79.40748 212.42713157,79.62032 218.55003157000002,79.83105 224.67343157000002,80.03978000000001 230.79743157,80.24666 236.92233157,80.4518 243.04833157000002,80.65532 249.17533157,80.85735 255.30343157,81.058 261.43253157,81.2574 267.56263157,81.45575 273.69363157000004,81.65325 279.82533157,81.85008 285.95773157,82.04646 292.09073157,82.24257 298.22403157,82.43862 304.35773157,82.63481 310.49153157,82.83129 316.62533156999996,83.02806 322.75923157,83.22507999999999 328.89293157000003,83.4223 335.02683157,83.61968999999999 341.16073157,83.81721 347.29493157,84.01481 353.42963156999997,84.21246000000001 359.56483157,84.4101 365.69943157,84.6074 371.83323157,84.80401 377.96693157,84.99958000000001 384.10143157000005,85.19378 390.23613157,85.38622000000001 396.36743157,85.57643 402.49323157,85.76399 408.61113157,85.9484 414.71903156999997,86.12821 420.81513157,86.3014 426.89883157,86.46599 432.97013157000004,86.62004 439.02993157000003,86.76166 445.07973157,86.88898 451.12203157,87.00016 457.15993156999997,87.09339 463.19713157,87.16810000000001 469.23653157,87.22518 475.28073157,87.26558 481.33133157,87.29025 487.38923157,87.3001 493.45453157000003,87.29605000000001 499.52633157,87.27903 505.60343157,87.24998 511.68343157,87.20953 517.7642315699999,87.15748 523.84393157,87.09351000000001 529.92133157,87.01731000000001 535.99563157,86.92859 542.0663315699999,86.82703000000001 548.13373157,86.71232 554.1984315699999,86.58414 560.2615315699999,86.44225 566.32403157,86.28681 572.3872315699999,86.11814000000001 578.45163157,85.93654000000001 584.51803157,85.74231 590.5865315699999,85.53576000000001 596.65743157,85.31722 602.73043157,85.08699 608.80513157,84.84542 614.88113157,84.59266 620.9578315699999,84.32882000000001 627.0348315699999,84.05397 633.11173157,83.76820000000001 639.18813157,83.4716 645.26383157,83.16426 651.33863157,82.84627 657.4122315699999,82.5177 663.48453157,82.17867000000001 669.5557315699999,81.82932 675.62603157,81.46977 681.69563157,81.10014 687.7652315699999,80.72053 693.83543157,80.33103 699.90703157,79.93172 705.98113157,79.52265 712.05893157,79.10415 718.1413315699999,78.67707 724.22913157,78.24237 730.32273157,77.80101 736.42203157,77.354 742.5269315699999,76.90238000000001 748.63653157,76.4472 754.7500315699999,75.98958 760.8659315699999,75.53047000000001 766.9830315699999,75.07024 773.10033157,74.60909000000001 779.2173315699999,74.14723000000001 785.3338315699999,73.68478 791.45043157,73.22188 797.56763157,72.75862000000001 803.6867315699999,72.29504 809.8062315699999,71.8314 815.92103157,71.36814 822.0305315699999,70.90534 828.1354315699999,70.443 834.23733157,69.98104000000001 840.3389315699999,69.51928000000001 846.4438315699999,69.05751000000001 852.55673157,68.59539 858.6716315699999,68.13342 864.76843157,67.67309 870.8446315699999,67.21448000000001 876.90223157,66.75735399999999 882.94683157,66.301224 888.9874315699999,65.845325 895.03643157,65.388631 901.1102315699999,64.92983100000001 907.2155315699999,64.468321 913.27253157,64.01015100000001 919.25693157,63.557215 925.17563157,63.109085 931.04723157,62.664425 936.9010315699999,62.221085 942.7774315699999,61.776063 948.73113157,61.325293 954.79593157,60.866301 960.6933315699999,60.420207000000005 966.3070315699999,59.99579 971.61493157,59.594691000000005 976.61533157,59.217003000000005 981.31953157,58.86184 985.7460315699999,58.527781000000004 989.91643157,58.213177 993.8526315699999,57.9163406 997.5761315699999,57.635649900000004 1001.10643157,57.369601700000004 1004.02573157,57.14967" stroke="black" stroke-width="2.0" /></svg>