<?xml version="1.0" encoding="utf-8" ?>
<svg baseProfile="full" height="98.25993" version="1.1" width="1012.02980951" xmlns="http://www.w3.org/2000/svg" xmlns:ev="http://www.w3.org/2001/xml-events" xmlns:xlink="http://www.w3.org/1999/xlink"><defs /><polygon fill="none" points="1004.02980951,60.90662 1001.00860951,60.54448119999999 997.34970951,60.105847499999996 993.4837095099999,59.64230499999999 989.3878095099999,59.151115 985.0371095099999,58.629265999999994 980.40480951,58.073542999999994 975.4642095099999,57.480692 970.1907095099999,56.847752 964.5670095099999,56.172619 958.59030951,55.454927 952.28190951,54.697199999999995 945.6947095099999,53.905775999999996 938.91410951,53.090933 932.1523095099999,52.278209 925.42970951,51.470132 918.69450951,50.660489999999996 911.91440951,49.845479999999995 905.0953095099999,49.025859999999994 898.3111095099999,48.210539999999995 891.55290951,47.398559999999996 884.80300951,46.58788 878.04830951,45.77701999999999 871.28010951,44.965039999999995 864.49440951,44.15154 857.69140951,43.33667 850.87620951,42.521159999999995 844.0576095099999,41.70654999999999 837.24340951,40.89469 830.43950951,40.08721 823.6497095099999,39.285439999999994 816.8755095099999,38.49047999999999 810.11650951,37.70313 803.37030951,36.923989999999996 796.63290951,36.15317999999999 789.89970951,35.389979999999994 783.1668095099999,34.633669999999995 776.4309095099999,33.88356999999999 769.6888095099999,33.13906999999999 762.93840951,32.39963 756.17760951,31.664789999999996 749.4051095099999,30.934099999999997 742.6202095099999,30.207129999999996 735.82340951,29.483459999999997 729.01640951,28.762819999999998 722.2021095099999,28.04506 715.38470951,27.33014 708.5697095099999,26.618159999999996 701.76370951,25.90934 694.9738095099999,25.204899999999995 688.2056095099999,24.507179999999998 681.46200951,23.818329999999996 674.74390951,23.14018999999999 668.04980951,22.474369999999993 661.3760095099999,21.82221 654.7171095099999,21.184869999999997 648.0657095099999,20.56300999999999 641.41430951,19.955669999999998 634.75700951,19.361579999999996 628.0897095099999,18.779679999999992 621.41000951,18.209069999999997 614.7169095099999,17.649019999999993 608.01160951,17.098909999999997 601.29690951,16.55829 594.57680951,16.027289999999994 587.85530951,15.506519999999995 581.1354095099999,14.996569999999998 574.41940951,14.497929999999997 567.70870951,14.011009999999999 561.00400951,13.536159999999995 554.3050095099999,13.07367 547.6110095099999,12.6237 540.92030951,12.18605999999999 534.23130951,11.760480000000001 527.5418095099999,11.346679999999992 520.84940951,10.944379999999995 514.15130951,10.5533 507.4446095100001,10.173159999999996 500.72560951,9.803639999999994 493.99100950999997,9.443979999999996 487.23880951,9.09308 480.46860951,8.749879999999997 473.68200951,8.413419999999995 466.88220951,8.082809999999995 460.07460950999996,7.757199999999997 453.26630951,7.43582 446.46600951,7.118809999999996 439.68180951,6.808259999999997 432.91970951,6.506429999999995 426.18370951,6.215440000000001 419.47590951,5.937249999999992 412.79660951,5.673679999999997 406.14420951,5.426429999999996 399.51560951,5.197049999999997 392.90690951,4.986319999999999 386.31410951000004,4.794640000000001 379.73350951,4.62247 373.16170951000004,4.470309999999991 366.59520950999996,4.3386799999999965 360.03090951,4.228169999999999 353.46580951000004,4.139389999999992 346.89680950999997,4.072679999999998 340.32170951,4.027569999999997 333.73890951,4.003529999999991 327.14790951000003,4.0 320.54880951,4.016449999999992 313.94280951,4.052329999999998 307.33190951,4.107059999999997 300.71930951,4.1800699999999935 294.10830951,4.2714 287.50230951000003,4.381639999999997 280.90370951,4.51135 274.31470951,4.661110000000001 267.73670951,4.8314299999999974 261.17050951,5.02286999999999 254.61630951,5.2359599999999915 248.07380951000002,5.4712299999999985 241.54260951,5.729129999999991 235.02200951,6.010069999999992 228.51110951,6.314520000000002 222.00930951,6.6429100000000005 215.51570951000002,6.995709999999995 209.02920951000002,7.373419999999996 202.54880951,7.776530000000001 196.07370951,8.205709999999996 189.60390951,8.661769999999997 183.14140951000002,9.145469999999996 176.68960951,9.657339999999998 170.25360951000002,10.197759999999995 163.83980951,10.766839999999995 157.45620951,11.364440000000002 151.11180951,11.990169999999999 144.81600951000001,12.644689999999997 138.57590951,13.329839999999997 132.39510951,14.047599999999996 126.27430951000001,14.800109999999997 120.21140951000001,15.589659999999995 114.20230951000002,16.418819999999997 108.24060951000001,17.29047 102.31828951,18.207869999999993 96.42934951000001,19.173149999999993 90.58677951,20.18381999999999 84.82822951,21.232189999999996 79.20978951000001,22.30561999999999 73.79378951000001,23.39051 68.62297951000001,24.48314 63.70720951,25.584889999999994 59.03488951,26.699219999999997 54.58380951,27.830759999999998 50.32973951,28.984719999999996 46.26988951,30.162199999999995 42.43077951,31.35391 38.847329509999994,32.54353 35.54474951,33.71333 32.530069510000004,34.84872 29.79312951,35.94028 27.31310951,36.98464 25.06838951,37.989489999999996 23.03503951,38.96473999999999 21.18832951,39.91784 19.50548951,40.854299999999995 17.96650951,41.7782 16.55419951,42.6926 15.254119509999999,43.598479999999995 14.05465951,44.492639999999994 12.94630851,45.37193 11.92096751,46.23401 10.97163851,47.07812 10.09310151,47.91242 9.28169651,48.74675 8.534725510000001,49.586209999999994 7.85222851,50.42627999999999 7.23362051,51.261089999999996 6.676839510000001,52.08715599999999 6.17921251,52.902668999999996 5.73796651,53.706896 5.35050151,54.499801999999995 5.01453941,55.281799 4.72818451,56.053585999999996 4.48995931,56.81605 4.29881641,57.570206 4.15414961,58.31716899999999 4.05581093,59.05813499999999 4.00413795,59.794391999999995 4.0,60.5273257 4.04486007,61.2584514 4.13962161,61.988897599999994 4.28336881,62.718663 4.47552181,63.447368999999995 4.71606681,64.17435 5.0055073100000005,64.898602 5.34483451,65.61872299999999 5.73550951,66.332805 6.179452510000001,67.038309 6.67902351,67.731889 7.23699651,68.409156 7.85648451,69.064379 8.54081251,69.690099 9.293218509999999,70.27691899999999 10.11488151,70.82197099999999 11.004053509999999,71.33373999999999 11.95767151,71.82391 12.97590551,72.29804999999999 14.06335951,72.75374 15.22569951,73.18781999999999 16.46988951,73.59658999999999 17.80546951,73.97649 19.247009509999998,74.32655 20.81364951,74.64686999999999 22.53010951,74.93845999999999 24.42860951,75.20411 26.551049510000002,75.45026 28.949989509999998,75.69068 31.68613951,75.94646 34.82778951,76.22462 38.43383951,76.52564 42.51787951,76.8463 47.01411951,77.17908 51.80047951,77.5159 56.797599510000005,77.85512 62.02797951,78.20034 67.53936951,78.55393 73.36624951,78.91711 79.50834951,79.28893 85.90401951000001,79.66487 92.45485951,80.03856999999999 99.07538951000001,80.40502 105.71540951000001,80.76167 112.36360951,81.1083 119.02300951000001,81.44539 125.69630951,81.77342 132.38610951,82.0928 139.09410951,82.40393 145.82140951,82.70716999999999 152.56870951000002,83.00286 159.33610951000003,83.29137 166.12280951,83.57339999999999 172.92780951,83.84984 179.74890951,84.12155999999999 186.58370951,84.38941 193.42880951,84.65424 200.28010951,84.9169 207.13290951000002,85.17817 213.98230951,85.43796 220.82400951,85.69525999999999 227.65520951000002,85.94909999999999 234.47440951000002,86.19854 241.28120951,86.44272 248.07660951000003,86.68082 254.86270951000003,86.91207 261.64240951000005,87.13597999999999 268.41900951,87.35265 275.19490951,87.56224 281.97190951000005,87.76491 288.75120951,87.96076 295.53310951000003,88.14988 302.31750951,88.33234 309.10340951,88.50816999999999 315.88960951,88.67721 322.67490951,88.83919999999999 329.45810951,88.99391 336.23810951,89.14111 343.01410951,89.28056 349.78520951,89.41205 356.55070951000005,89.53536 363.31020951,89.65021 370.06330951,89.75622 376.81010951,89.853 383.55110951,89.94019 390.28720950999997,90.01741999999999 397.01950951,90.08430999999999 403.74950951,90.14050999999999 410.47900951,90.18572 417.20990951,90.22005999999999 423.94310951,90.24374999999999 430.67950951,90.25697 437.41910951,90.25993 444.16140951,90.25282 450.90540950999997,90.23584 457.64940951,90.2092 464.39160950999997,90.17283 471.13040951,90.12646 477.86500951,90.06983 484.59500951,90.00267 491.32080951,89.92471 498.04340951,89.83565999999999 504.76420951000006,89.73521 511.48530951,89.62322999999999 518.20860951,89.49995999999999 524.9358095099999,89.36576 531.66760951,89.22094 538.40470951,89.06585999999999 545.14690951,88.90087 551.89380951,88.72634 558.6441095099999,88.54263 565.39640951,88.34976999999999 572.14920951,88.14761999999999 578.9008095099999,87.93602999999999 585.6497095099999,87.71486999999999 592.39420951,87.48402 599.1327095099999,87.24336 605.86350951,86.99279 612.5851095099999,86.73207 619.2966095099999,86.46065999999999 625.9977095099999,86.17799 632.6890095099999,85.88345 639.37210951,85.57639999999999 646.0490095099999,85.25616 652.7230095099999,84.92197999999999 659.3976095099999,84.5732 666.07690951,84.21015 672.7646095099999,83.83358 679.4634095099999,83.44425 686.1755095099999,83.04298 692.9026095099999,82.6306 699.6454095099999,82.208 706.40410951,81.77613 713.17820951,81.3359 719.9669095099999,80.88821999999999 726.7690095099999,80.43397999999999 733.5833095099999,79.97413 740.4082095099999,79.50961 747.2420095099999,79.04142999999999 754.08280951,78.5706 760.9284095099999,78.09805 767.77690951,77.62429 774.62670951,77.14967999999999 781.47720951,76.67457999999999 788.32810951,76.19924999999999 795.1799095099999,75.72395999999999 802.03370951,75.24891 808.89120951,74.77422999999999 815.7539095099999,74.29979999999999 822.61990951,73.82558999999999 829.4815095099999,73.35195 836.34040951,72.87861 843.1998095099999,72.40516 850.06410951,71.93114 856.92290951,71.45711 863.7639095099998,70.98384999999999 870.58380951,70.511679 877.3838095099999,70.040603 884.16920951,69.57033899999999 890.94940951,69.100321 897.7378095099999,68.62969799999999 904.5524095099998,68.157319 911.4036095099999,67.682511 918.2178095099999,67.210374 924.98570951,66.741537 931.7387095099999,66.273787 938.52890951,65.803511 945.34600951,65.331389 951.97400951,64.872367 958.3230095099999,64.432647 964.33870951,64.015993 969.99870951,63.623954999999995 975.30540951,63.256375 980.2760095099999,62.912057999999995 984.9353095099999,62.589299 989.3104095099999,62.286213 993.42830951,62.000933599999996 997.3143095099999,61.731710899999996 1000.9914095099999,61.476953099999996 1004.02720951,61.266619999999996" stroke="black" stroke-width="2.0" /></svg>