<?xml version="1.0" encoding="utf-8" ?>
<svg baseProfile="full" height="95.57034" version="1.1" width="1012.0257083" xmlns="http://www.w3.org/2000/svg" xmlns:ev="http://www.w3.org/2001/xml-events" xmlns:xlink="http://www.w3.org/1999/xlink"><defs /><polygon fill="none" points="1004.0191083000001,56.958909999999996 1001.0874083000001,56.6150279 997.5431083,56.1993381 993.8062083,55.761138 989.8572083,55.298156 985.6753083,54.807953 981.2388083,54.288 976.5265083,53.735847 971.5204083000001,53.149406 966.2097083000001,52.527416 960.5959083,51.8701 954.7007083000001,51.180009999999996 948.6242083000001,50.468899 942.6487083,49.769766 936.7527083,49.080052 930.8814083,48.393333 924.9945083,47.704837 919.0627083,47.01111 913.0671083,46.30992 907.0009083,45.60043 900.8847082999999,44.88501 894.7977083000001,44.17293 888.7354083,43.46368 882.6818083000001,42.755449999999996 876.6246083,42.0468 870.5548083000001,41.33676 864.4671083000001,40.624700000000004 858.3595083,39.91043 852.2340083,39.19425 846.1104083,38.47844 839.9945083,37.76359 833.8816083,37.04907 827.7682083000001,36.334329999999994 821.6515082999999,35.61896 815.5297083,34.902649999999994 809.4022083000001,34.18522 803.2726083,33.466989999999996 797.1471083,32.74868 791.0246083,32.03045 784.9037083,31.31253 778.7837083,30.595200000000002 772.6639083000001,29.87877 766.5441083000001,29.16356 760.4245083000001,28.44999 754.3054083000001,27.73845 748.1876083000001,27.02947 742.0720083000001,26.32383 735.9592083,25.622389999999996 729.8500083,24.926029999999997 723.7448082999999,24.23556 717.6439083,23.551810000000003 711.5475083,22.87556 705.4558083,22.207590000000003 699.3686083,21.54864 693.2859083,20.899279999999997 687.2072083,20.259929999999997 681.1320083,19.631 675.0594083,19.01287 668.9885083,18.405930000000005 662.9180083,17.810500000000005 656.8464083,17.226950000000002 650.7721083000001,16.655570000000004 644.6932082999999,16.096159999999998 638.6085083,15.547889999999995 632.5171083,15.009919999999994 626.4190083000001,14.481500000000004 620.3144083000001,13.961889999999997 614.2044083,13.450409999999998 608.0905083,12.94643 601.9749082999999,12.44934 595.8602083000001,11.959130000000002 589.7487083,11.47699 583.6424083,11.00421 577.5425083000001,10.542030000000004 571.4496083,10.091639999999998 565.3640083,9.654159999999997 559.2852083,9.23066 553.2123083,8.822189999999999 547.1440083000001,8.42962 541.0788083,8.053220000000003 535.0154083,7.693170000000002 528.9529083000001,7.349650000000004 522.8904083,7.022879999999994 516.8276083000001,6.713100000000004 510.7639083,6.420549999999999 504.6994083,6.145489999999995 498.63430830000004,5.888179999999998 492.5686083,5.648620000000001 486.5027083,5.4266799999999975 480.43630830000006,5.222209999999997 474.3693083,5.035060000000001 468.3011083,4.865079999999999 462.2312083,4.712129999999995 456.1587083,4.576070000000001 450.0825083,4.45673 444.0015083,4.353589999999997 437.9149083,4.265709999999999 431.82200830000005,4.192169999999997 425.7226083,4.132029999999993 419.6168083,4.08437 413.5051083,4.04824 407.38830830000006,4.0227 401.2677083,4.006799999999998 395.1447083,4.0 389.0207083,4.002490000000002 382.89710830000007,4.014510000000001 376.7748083,4.036290000000001 370.6546083,4.068089999999998 364.5370083,4.110109999999999 358.4225083,4.162610000000001 352.31110830000006,4.2257900000000035 346.20270830000004,4.299939999999999 340.09730830000007,4.385469999999998 333.9947083,4.482810000000001 327.8948083,4.592389999999995 321.79760830000004,4.714649999999999 315.7030083,4.850020000000001 309.61120830000004,4.998919999999998 303.52200830000004,5.161790000000003 297.4356083,5.33905 291.3520083,5.531149999999997 285.2714083,5.7385499999999965 279.1940083,5.9617 273.11980830000005,6.201029999999996 267.0490083,6.457010000000004 260.98190830000004,6.730050000000006 254.9185083,7.020620000000001 248.8592083,7.3291499999999985 242.8042083,7.656269999999999 236.75380829999997,8.002700000000004 230.70850829999998,8.369140000000002 224.66850829999998,8.75631 218.63440830000002,9.164889999999993 212.6065083,9.595559999999999 206.58550830000001,10.049009999999996 200.5719083,10.52588 194.5662083,11.026870000000002 188.56880829999997,11.552689999999998 182.5799083,12.10409 176.5994083,12.681840000000001 170.6269083,13.286729999999999 164.6617083,13.91959 158.7030083,14.581289999999996 152.74970829999998,15.272739999999999 146.8005083,15.994900000000001 140.8545083,16.748649999999998 134.9119083,17.53474 128.97360830000002,18.353810000000003 123.0418083,19.20635 117.11920830000001,20.09267 111.2097083,21.012839999999997 105.3179083,21.96674 99.4494583,22.95409 93.6092383,23.975860000000004 87.7987583,25.034389999999995 82.01507830000001,26.1328 76.2511883,27.27512 70.4998683,28.46704 64.7687583,29.71305 59.086338299999994,31.012539999999998 53.4989583,32.359 48.0640083,33.743269999999995 42.8295583,35.16561 37.814698299999996,36.63127 33.016528300000004,38.147639999999996 28.4193183,39.72395 24.033828300000003,41.36723 20.096538300000002,43.00728 16.8676783,44.50646 14.3229283,45.81226 12.3162023,46.95583 10.7007173,47.985091 9.351563299999999,48.960053 8.1968303,49.910244 7.2300642999999996,50.807852 6.435147300000001,51.64073 5.7837873,52.416319 5.2529663,53.144702 4.8263474,53.834807 4.4929563,54.493985 4.2459415,55.128308 4.08179327,55.742945 4.0,56.3425113 4.00312456,56.9314039 4.09667543,57.5141802 4.2817508,58.095875 4.5575136,58.681354 4.9266632,59.275254 5.3957073,59.882283 5.9756423000000005,60.507413 6.683105299999999,61.155778 7.5414753,61.831624 8.5785903,62.533815 9.808081300000001,63.241731 11.244915299999999,63.939456 12.963580299999999,64.67314999999999 15.0716183,65.480027 17.6876983,66.362286 20.9320783,67.30229 24.840828300000002,68.25135 29.246688300000002,69.14194 33.980728299999996,69.95311 39.0189283,70.68565 44.3428483,71.34197 49.914958299999995,71.93137 55.6788683,72.47108 61.5680783,72.97591 67.52442829999998,73.44551 73.5064983,73.8802 79.49482830000001,74.28289 85.49214830000001,74.65811 91.5094683,75.01029 97.55380830000001,75.3434 103.62708830000001,75.66113 109.7260083,75.96667 115.8445083,76.26138 121.9770083,76.54608999999999 128.1188083,76.82167 134.26600829999998,77.0891 140.4156083,77.34943 146.56560829999998,77.60373 152.7150083,77.85316 158.86340829999997,78.09882 165.01160829999998,78.34119 171.1599083,78.58037 177.30880829999998,78.81647000000001 183.4585083,79.04959 189.6095083,79.27982 195.76160829999998,79.50726 201.91500829999998,79.73199 208.0696083,79.9541 214.2252083,80.17369 220.3818083,80.3909 226.53920829999998,80.60584 232.6973083,80.81866 238.8562083,81.02947 245.0158083,81.23843 251.17610829999998,81.44566 257.3373083,81.65129 263.49940829999997,81.85548 269.6625083,82.05838 275.82660830000003,82.26016 281.9916083,82.46097 288.1577083,82.66096999999999 294.3247083,82.86033 300.4925083,83.05919 306.6611083,83.25772 312.8302083,83.45605 318.9997083,83.6543 325.1694083,83.85261 331.33890830000007,84.05107 337.5081083,84.24981 343.67650829999997,84.44895 349.84380830000003,84.64859 356.0096083,84.84885 362.1734083,85.04948 368.3347083,85.24956 374.49300830000004,85.44807 380.64770830000003,85.64399 386.79800830000005,85.83632 392.94320830000004,86.02404 399.0823083,86.20615000000001 405.21450830000003,86.38166 411.3388083,86.54952 417.4544083,86.70851 423.5611083,86.8574 429.6591083,86.99499 435.7492083,87.12009 441.83250830000003,87.23154 447.9107083,87.32817 453.9860083,87.4088 460.0609083,87.47251 466.1379083,87.5197 472.2190083,87.55118999999999 478.3056083,87.5678 484.3984083,87.57034 490.4976083,87.55959 496.6025083,87.53638 502.7121083,87.50152 508.8246083000001,87.45578 514.9377083,87.39922 521.0497083,87.33143 527.1593083,87.25204 533.2656083,87.16067 539.3680083,87.05692 545.4667082999999,86.94042 551.5620083,86.81077 557.6548083,86.66758 563.7464083,86.51080999999999 569.8379083,86.34074 575.9303083,86.15771 582.0242082999999,85.96200999999999 588.1204083,85.75397 594.2192083000001,85.53388 600.3209083,85.30208 606.4254083,85.05888 612.5328082999999,84.80458 618.6426083,84.53942 624.7545083,84.26363 630.8681083,83.97747 636.9827083,83.68118 643.0976083,83.37504 649.2118083,83.05933 655.3245082999999,82.73433 661.4346083,82.40022 667.5412083000001,82.05681 673.6440083,81.70385 679.7428083,81.34105 685.8384083000001,80.96811 691.9315083,80.58466 698.0237083000001,80.19033999999999 704.1168083,79.78473 710.2131083,79.3676 716.3149083,78.93983 722.4241083000001,78.50267 728.5419083,78.05741 734.6687083,77.6054 740.8045083,77.14804 746.9485083,76.6868 753.0993083000001,76.22321 759.2543083,75.7588 765.4086083,75.29438 771.5625083,74.82999 777.7174083,74.36557 783.8726083,73.90123 790.0263083000001,73.43716 796.1789083,72.97339 802.3317083,72.50987 808.4863083,72.04653 814.6397082999999,71.58356 820.7882083,71.12115 826.9319083,70.65923 833.0719083,70.19761 839.2106083,69.73606 845.3511083,69.27423999999999 851.4980082999999,68.81173 857.6494083,68.3486 863.7849083,67.88638 869.9004083,67.4254 875.9973083,66.965626 882.0804082999999,66.50672399999999 888.1582083,66.048107 894.2425083,65.58892 900.3490083,65.128028 906.4890083,64.66462200000001 912.5886082999999,64.20431099999999 918.6169083000001,63.749438999999995 924.5795083,63.299606 930.4939082999999,62.853491 936.3888083,62.408947 942.3041082999999,61.962974 948.2941083000001,61.511515 954.3943083,61.051897 960.3321083000001,60.604673 965.9881083,60.17883 971.3384083000001,59.77613 976.3804083,59.396757 981.1247083000001,59.03989 985.5893083,58.704153 989.7957083,58.387918 993.7659083,58.0895128 997.5213083000001,57.8073191 1001.0818083,57.5398348 1004.0257083,57.31871" stroke="black" stroke-width="2.0" /></svg>