<?xml version="1.0" encoding="utf-8" ?>
<svg baseProfile="full" height="100.66361" version="1.1" width="1012.0147398" xmlns="http://www.w3.org/2000/svg" xmlns:ev="http://www.w3.org/2001/xml-events" xmlns:xlink="http://www.w3.org/1999/xlink"><defs /><polygon fill="none" points="1004.0054398000001,58.73822 1001.0315398,58.4069311 997.4361398000001,58.0064416 993.6455398,57.584256 989.6402398,57.138212 985.3993398000001,56.666000000000004 980.9015398000001,56.16525 976.1263398,55.633701 971.0570398000001,55.069485 965.6840397999999,54.471583 960.0115398,53.840461000000005 954.0639398000001,53.178849 947.9546398000001,52.499364 941.9502398000001,51.831577 936.0184398,51.171821 930.1065398000001,50.514143000000004 924.1755398,49.85411 918.1975398,49.188518 912.1551398,48.51535 906.0434398000001,47.83393 899.8975398,47.1481 893.7869398,46.46579 887.6980398,45.78587 881.6158398,45.10705 875.5290398,44.42845 869.4299398,43.749590000000005 863.3143398000001,43.07040000000001 857.1814398,42.391180000000006 851.0342398,41.71266 844.8789398,41.03511 838.7219398,40.357820000000004 832.5681398,39.679860000000005 826.4213398,39.00017 820.2838398,38.317550000000004 814.1565398,37.63067 808.0393398,36.93808 801.9307398,36.23817 795.8278398000001,35.52972 789.7281398,34.81242 783.6295398000001,34.08613 777.5304398000001,33.35079 771.4300398,32.6064 765.3283398000001,31.853040000000004 759.2257398,31.09085 753.1232398,30.320100000000004 747.0227398000001,29.541580000000003 740.9256398000001,28.75794 734.8330398,27.972170000000002 728.7454398,27.18721 722.6630398000001,26.40591 716.5855398,25.631060000000005 710.5121398000001,24.865380000000002 704.4418398,24.11152 698.3728398,23.37184 692.3038398,22.64689 686.2336398,21.936420000000005 680.1613398000001,21.240180000000002 674.0861398000001,20.558000000000007 668.0078398,19.88971 661.9262398,19.2352 655.8414398,18.594380000000008 649.7538398,17.96716 643.6641398,17.35349 637.5725398,16.753260000000004 631.4794398,16.166360000000005 625.3848398000001,15.59263 619.2886398,15.031930000000003 613.1905398000001,14.484079999999999 607.0897398000001,13.948880000000003 600.9857398,13.42613 594.8775398,12.91554 588.7645398,12.416670000000003 582.6465398,11.929119999999998 576.5237398,11.4525 570.3967398000001,10.986489999999996 564.2668398000001,10.530750000000005 558.1355398,10.085 552.0047398,9.648970000000006 545.8770398,9.222810000000003 539.7543398,8.807749999999999 533.6383398,8.405160000000002 527.5300398,8.016370000000002 521.4295397999999,7.642620000000001 515.3367398,7.285139999999998 509.25093979999997,6.94509 503.1705398,6.6236200000000025 497.09383979999996,6.321660000000001 491.01883979999997,6.039230000000003 484.94373979999995,5.77608 478.8674398,5.5319999999999965 472.7888398,5.306820000000002 466.7073398,5.100360000000002 460.62253979999997,4.912490000000005 454.5345398,4.743090000000002 448.44363979999997,4.592019999999998 442.3503398,4.459000000000003 436.2550398,4.343679999999999 430.15793979999995,4.24568 424.05883979999993,4.164620000000006 417.9576398,4.100130000000007 411.8539398,4.051810000000003 405.74693979999995,4.019310000000004 399.6358398,4.002229999999997 393.51973979999997,4.0 387.39783979999993,4.011780000000002 381.2698398,4.036760000000008 375.13573979999995,4.074100000000001 368.9959398,4.122959999999999 362.8512398,4.182479999999998 356.70293979999997,4.25179 350.5526398,4.330030000000001 344.4023398,4.416890000000002 338.2536398,4.5129499999999965 332.10833979999995,4.6188900000000075 325.96723979999996,4.735350000000004 319.8314398,4.8629900000000035 313.70133979999997,5.002470000000002 307.5769398,5.154440000000001 301.45813979999997,5.319559999999996 295.3445398,5.498449999999998 289.23543979999994,5.691670000000002 283.1305398,5.899730000000005 277.02953979999995,6.123170000000002 270.9319398,6.3625200000000035 264.8378397999999,6.618300000000005 258.7469398,6.891039999999997 252.6592398,7.181260000000002 246.5748398,7.489510000000003 240.4940398,7.816450000000003 234.4170398,8.162779999999998 228.3445398,8.52917 222.2771398,8.91628 216.2156398,9.324740000000006 210.1610398,9.75515 204.11443979999999,10.208120000000001 198.0770398,10.684219999999996 192.05023979999999,11.18441 186.03473979999998,11.709809999999997 180.03103979999997,12.26155 174.03903979999998,12.84084 168.05813980000002,13.44887 162.0873398,14.086940000000006 156.1252398,14.756380000000007 150.1699398,15.458620000000003 144.21963979999998,16.19509 138.2733398,16.967060000000004 132.3316398,17.77565 126.3964398,18.621769999999998 120.4711398,19.506079999999997 114.5601398,20.428960000000004 108.6694398,21.390439999999998 102.80594980000001,22.39018 96.9776398,23.428069999999998 91.1896598,24.506330000000005 85.4408198,25.628639999999997 79.7235598,26.799979999999998 74.0246898,28.026880000000002 68.3346898,29.31565 62.665219799999996,30.668000000000003 57.0518998,32.07885 51.5500098,33.53596 46.224159799999995,35.02877 41.119869800000004,36.55847 36.2519298,38.13007 31.614639800000003,39.750690000000006 27.1912998,41.42913 23.0196198,43.161190000000005 19.342899799999998,44.848600000000005 16.3391898,46.36831 13.9518458,47.68889 12.047772799999999,48.84424 10.4982448,49.879895000000005 9.1940428,50.856886 8.0762158,51.802956 7.1400508,52.693899 6.3685308,53.52138 5.735044800000001,54.293378000000004 5.2180848,55.019817 4.8023392,55.709409 4.4775027000000005,56.369357 4.2371631,57.005647 4.07810176,57.623425000000005 4.0,58.2273383 4.005547505,58.82187633 4.09956603,59.411772500000005 4.2814914,60.002183 4.5506503,60.598028 4.9097462,61.204115 5.3650388,61.825474 5.9269898,62.467617000000004 6.6113558,63.136605 7.4403368,63.838419 8.4411918,64.575628 9.630484800000001,65.334824 11.013965800000001,66.094526 12.6501088,66.886711 14.6418998,67.75892300000001 17.1113498,68.731229 20.1896198,69.80962 23.9496898,70.96296 28.254079800000003,72.11356 32.8786598,73.20819 37.758789799999995,74.23704000000001 42.8665098,75.1916 48.166879800000004,76.06738 53.6234498,76.86501 59.2054598,77.58983 64.8922098,78.24718 70.6661498,78.84314 76.5114998,79.38575 82.4153998,79.88455 88.36834979999999,80.34681 94.36235980000001,80.77673 100.3901398,81.17877 106.4452398,81.55773 112.5223398,81.91722 118.6170398,82.25858 124.7257398,82.58299 130.8450398,82.89175 136.97243980000002,83.18622 143.1060398,83.46784 149.24443979999998,83.73808 155.38693980000002,83.99846 161.53343980000002,84.25034 167.6843398,84.49444 173.83973980000002,84.73141 179.9994398,84.96188000000001 186.1636398,85.18648 192.33183979999998,85.40584 198.5039398,85.62058 204.6793398,85.83134000000001 210.85743979999998,86.03866 217.0378398,86.24277000000001 223.2199398,86.44382 229.4033398,86.64195000000001 235.5875398,86.83733000000001 241.7725398,87.03011000000001 247.9578398,87.22045 254.14353979999999,87.40852 260.32933979999996,87.59446 266.51553979999994,87.77834 272.70183979999996,87.96017 278.8883398,88.13998000000001 285.0751398,88.31781000000001 291.2622398,88.49366 297.4494398,88.66758 303.6369398,88.83958 309.8247398,89.00970000000001 316.0128398,89.17809 322.20133979999997,89.34493 328.39043979999997,89.51041000000001 334.5803398,89.67472000000001 340.77133979999996,89.83805000000001 346.9637398,90.00059 353.1582398,90.16254 359.3550398,90.32407 365.55283979999996,90.48517 371.74803979999996,90.64564 377.94103979999994,90.80544 384.1330398,90.9645 390.32543979999997,91.12279000000001 396.52043979999996,91.28028 402.7175398,91.43688 408.90723979999996,91.59216 415.0857398,91.74464 421.2506398,91.89204000000001 427.40083979999997,92.03216 433.53613979999994,92.16283 439.6573398,92.28195 445.76593979999996,92.38746 451.8646398,92.47731999999999 457.9569398,92.54955 464.0468398,92.60356 470.1376398,92.64007000000001 476.2322398,92.65985 482.3323398,92.66361 488.43903979999993,92.65205 494.5527397999999,92.6259 500.6727398,92.58586 506.7978398,92.53265999999999 512.9259397999999,92.46674 519.0549397999999,92.38803 525.1834398000001,92.29644 531.3104398,92.19186 537.4353398000001,92.07419 543.5578398000001,91.94335000000001 549.6785398000001,91.7992 555.7979398000001,91.64162 561.9174398,91.47062 568.0382398,91.28656000000001 574.1611398000001,91.0899 580.2869398,90.88106 586.4157398,90.66049 592.5477398,90.42865 598.6825398,90.18601000000001 604.8196398,89.93306000000001 610.9579398000001,89.67021 617.0966397999999,89.39746 623.2348398,89.11472 629.3719398,88.82188000000001 635.5073398,88.51886 641.6408398,88.20553000000001 647.7722398,87.88179 653.9017398,87.54751 660.0293398,87.20257000000001 666.1554398000001,86.84697 672.2803398000001,86.48074 678.4045398000001,86.10390000000001 684.5282398,85.71648 690.6518398000001,85.3185 696.7756398,84.90998 702.9001398,84.49094 709.0256398,84.06141 715.1525398000001,83.62171000000001 721.2812398000001,83.1723 727.4119398,82.71367000000001 733.5451398,82.24629 739.6808398000001,81.77065 745.8193398000001,81.28724 751.9607398,80.79654 758.1050398,80.29907 764.2523398,79.79549 770.4027398,79.2866 776.5566398000001,78.77319 782.7140398,78.25607 788.8754398,77.73601000000001 795.0412398,77.21381 801.2119398000001,76.69025 807.3879398,76.1661 813.5634398000001,75.6422 819.7334398,75.11878 825.8987397999999,74.59557 832.0612398000001,74.07222 838.2234398,73.5483 844.3887397999999,73.02333 850.5609398,72.49676 856.7329398,71.96902 862.8880398,71.44146 869.0234398,70.91441 875.1403398000001,70.38787 881.2432398,69.86155000000001 887.3401398000001,69.33489 893.4422398,68.807 899.5640398,68.276711 905.7220398000001,67.7427 911.8568398,67.21014 917.9223398,66.682986 923.9225398000001,66.16085000000001 929.8734398,65.642258 935.8027397999999,65.124766 941.7487398,64.604934 947.7639398,64.078097 953.8869398,63.540743 959.8591398000001,63.015527 965.5566398,62.513434000000004 970.9535398,62.036907 976.0448398000001,61.586534 980.8395398000001,61.161668 985.3543398,60.760945 989.6100398,60.382653000000005 993.6280398,60.02497 997.4294398000001,59.6861045 1001.0340398000001,59.3643708 1004.0147398,59.098020000000005" stroke="black" stroke-width="2.0" /></svg>