<?xml version="1.0" encoding="utf-8" ?>
<svg baseProfile="full" height="167.16846829999997" version="1.1" width="1012.744609" xmlns="http://www.w3.org/2000/svg" xmlns:ev="http://www.w3.org/2001/xml-events" xmlns:xlink="http://www.w3.org/1999/xlink"><defs /><polygon fill="none" points="1004.744609,144.46609999999998 1002.506309,141.7661 999.8672089999999,138.71199 997.1642089999999,135.72161999999997 994.3942089999999,132.79385 991.553509,129.92766999999998 988.6383089999999,127.12221999999998 985.644409,124.37676999999998 982.566709,121.69075999999998 979.4001089999999,119.06376999999998 976.1384089999999,116.49552999999997 972.774909,113.98596999999998 969.3018089999999,111.53516999999998 965.710309,109.14345999999998 961.9903089999999,106.81137999999999 958.130009,104.53974999999998 954.115609,102.32972999999998 949.932509,100.18095999999998 945.568109,98.08861999999999 941.009609,96.04708 936.243209,94.05052999999998 931.255009,92.09281999999997 926.0314089999999,90.16731999999998 920.5604089999999,88.26679999999998 914.833409,86.38331 908.848309,84.50817999999998 902.612909,82.63225999999999 896.143209,80.75235999999998 889.455609,78.87520999999998 882.572409,77.00884999999998 875.521209,75.16131999999999 868.333909,73.34018999999998 861.044509,71.55195999999998 853.686709,69.80162999999999 846.2919089999999,68.09242999999998 838.8876089999999,66.42572999999999 831.495809,64.80111999999998 824.132609,63.21647999999999 816.8081090000001,61.66831999999998 809.526809,60.152039999999985 802.2878089999999,58.66211999999999 795.086009,57.19469999999998 787.9155089999999,55.74899999999998 780.7705090000001,54.324899999999985 773.6460089999999,52.92239999999998 766.537209,51.541199999999975 759.439809,50.18169999999998 752.3498089999999,48.84389999999998 745.263409,47.528199999999984 738.177309,46.23489999999998 731.088109,44.96449999999999 723.9931089999999,43.71749999999997 716.889509,42.49459999999998 709.7747089999999,41.29649999999998 702.646709,40.12389999999999 695.503209,38.976899999999986 688.3427089999999,37.85419999999999 681.163709,36.75409999999998 673.9649089999999,35.67539999999998 666.745209,34.61659999999998 659.503909,33.57639999999998 652.2404089999999,32.55329999999999 644.9545089999999,31.546199999999985 637.645909,30.553699999999978 630.315109,29.574600000000004 622.962409,28.607399999999984 615.588709,27.651099999999985 608.195109,26.704199999999986 600.783109,25.765799999999984 593.354109,24.83529999999999 585.9101089999999,23.913099999999986 578.4531089999999,22.999799999999965 570.985309,22.095899999999972 563.509609,21.201699999999988 556.0289089999999,20.31789999999998 548.5463090000001,19.445099999999968 541.0655089999999,18.583699999999993 533.590209,17.73429999999999 526.1244089999999,16.897500000000008 518.6723089999999,16.07389999999998 511.2383090000001,15.263899999999978 503.82700900000003,14.468199999999968 496.442909,13.687799999999982 489.089909,12.925099999999986 481.77080900000004,12.18259999999998 474.48730900000004,11.462499999999977 467.240109,10.76679999999999 460.028909,10.0976 452.852409,9.45659999999998 445.70870900000006,8.845399999999984 438.595109,8.265500000000003 431.50790900000004,7.718599999999981 424.4430090000001,7.2058999999999855 417.395509,6.72909999999996 410.36000900000005,6.289499999999975 403.330209,5.888599999999968 396.299209,5.527399999999972 389.26110900000003,5.205399999999997 382.210809,4.922099999999972 375.14480900000007,4.677099999999967 368.060809,4.470100000000002 360.95790900000003,4.300999999999988 353.83660900000007,4.169599999999974 346.699009,4.075799999999987 339.548409,4.019299999999987 332.389909,4.0 325.230009,4.017399999999981 318.07670900000005,4.071099999999973 310.93930900000004,4.160199999999975 303.828409,4.283999999999992 296.75580900000006,4.442699999999974 289.733109,4.640699999999981 282.770209,4.882499999999993 275.874609,5.172099999999972 269.052209,5.51339999999999 262.3069090000001,5.909699999999987 255.64110900000003,6.3641999999999825 249.055809,6.879599999999982 242.55070899999998,7.458699999999965 236.124809,8.103899999999982 229.77590899999998,8.817700000000002 223.501309,9.602299999999985 217.297809,10.46029999999999 211.16140900000002,11.39409999999998 205.087909,12.406199999999984 199.072909,13.498899999999992 193.111909,14.672099999999972 187.199909,15.925699999999978 181.33150899999998,17.25999999999999 175.50040900000002,18.67579999999998 169.699809,20.17459999999997 163.922209,21.758599999999973 158.15930899999998,23.430999999999983 152.401809,25.195599999999985 146.64150899999999,27.058300000000003 140.878309,29.02419999999998 135.123209,31.095199999999977 129.398409,33.267799999999966 123.737109,35.532799999999995 118.180709,37.87489999999998 112.77440899999999,40.27299999999998 107.562009,42.702599999999975 102.580249,45.13859999999998 97.855439,47.56639999999997 93.385569,49.991999999999976 89.142439,52.43429999999999 85.085439,54.92069999999998 81.167619,57.48779999999999 77.334599,60.183119999999974 73.513679,63.050289999999976 69.633799,66.11895999999999 65.64106899999999,69.40540999999999 61.509139,72.89620999999998 57.261069,76.52350999999999 52.989498999999995,80.15069999999999 48.852568999999995,83.62917999999998 44.976428999999996,86.88871999999999 41.400929,89.92345999999998 38.116329,92.75836999999997 35.093809,95.42767999999998 32.300709,97.96543999999999 29.706509,100.40254999999999 27.278629,102.77005999999997 24.984829,105.08983999999998 22.828719,107.34322999999998 20.829338999999997,109.49183999999998 18.997329,111.50522999999998 17.327699000000003,113.37244999999999 15.809279,115.09657999999999 14.440356,116.68449999999999 13.210079,118.15168999999997 12.10305,119.51556999999998 11.104526,120.79164999999998 10.201831,121.99286999999998 9.384461,123.12977999999998 8.643818,124.21096999999997 7.972883,125.24344999999998 7.365922,126.23303999999999 6.818242,127.18456999999998 6.326001,128.10209999999998 5.886059,128.98909999999998 5.4958643,129.84853999999999 5.1533649,130.68299 4.8569424,131.49469999999997 4.6053616,132.28565999999998 4.3977344,133.05762 4.2334943,133.81217999999998 4.1123811,134.55075 4.0344351,135.27465999999998 4.0,135.98511 4.0097339000000005,136.68321999999998 4.0646322,137.37006999999997 4.1660612,138.04666999999998 4.3158062,138.71402999999998 4.5161387,139.37311 4.7699078,140.02492999999998 5.0796634,140.67051999999998 5.4455868,141.31098999999998 5.867795,141.94734999999997 6.346889,142.58050999999998 6.883951,143.21129 7.480561,143.84041 8.138822000000001,144.46850999999998 8.861398,145.09609999999998 9.651562,145.72355 10.513242,146.35105 11.451053,146.97848 12.470299,147.60527 13.576855,148.2302 14.776839,148.850936 16.075789,149.463415 17.476869,150.060771 18.983359,150.63498199999998 20.609129,151.18317699999997 22.372069000000003,151.70468599999998 24.292299,152.20148799999998 26.391649,152.680454 28.692729,153.15674199999998 31.217719000000002,153.656838 33.979389,154.19303399999998 36.972058999999994,154.75379399999997 40.171018999999994,155.319842 43.535368999999996,155.86627099999998 47.018398999999995,156.36606999999998 50.582088999999996,156.79374399999998 54.209728999999996,157.126713 57.914688999999996,157.348089 61.73529899999999,157.4683318 65.715419,157.5092359 69.900989,157.4964595 74.337899,157.46409899999998 79.063739,157.460671 84.089599,157.54415519999998 89.393649,157.7186338 94.940029,157.95405759999997 100.690819,158.20794949999998 106.618609,158.42804431 112.715109,158.5790419 118.979109,158.66405229999998 125.407909,158.69177929999998 131.996509,158.6731418 138.737809,158.6213996 145.622309,158.55219612999997 152.637909,158.48349394 159.770409,158.43399714999998 167.003909,158.40962112 174.322409,158.40788020999997 181.71000899999999,158.42573754999998 189.15170899999998,158.45978435199999 196.634209,158.50632516 204.145909,158.56146232999998 211.677509,158.62151889999998 219.221409,158.6845195 226.77090900000002,158.7490273 234.32010899999997,158.8136017 241.864009,158.87680989999998 249.398609,158.93723599999998 256.920809,158.99348669999998 264.42860900000005,159.0441951 271.920809,159.0880212 279.39720900000003,159.12364979999998 286.85820900000004,159.1497863 294.30560900000006,159.16515059999998 301.74140900000003,159.16846829999997 309.168909,159.1585567 316.59170900000004,159.1356793 324.01330900000005,159.10121299999997 331.436709,159.05654429999998 338.864709,159.00304739999999 346.29960900000003,158.9420918 353.743709,158.8750484 361.198509,158.80329509999999 368.665409,158.7282214 376.145609,158.65123179999998 383.639709,158.57374869999998 391.14800900000006,158.49721412 398.670409,158.42309017999997 406.206709,158.3528571 413.75580900000006,158.28756879999997 421.316909,158.2272784 428.88850900000006,158.1718977 436.46920900000003,158.12133559999998 444.057409,158.0754974 451.651209,158.03428459999998 459.24850900000007,157.99759419999998 466.84710900000005,157.965319 474.444409,157.93734669999998 482.037909,157.91356029999997 489.624809,157.89383779999997 497.202109,157.87805189999997 504.766609,157.86607049999998 512.3153090000001,157.85739279999999 519.845109,157.85008169999998 527.353709,157.84187169999998 534.839109,157.83053569999998 542.300209,157.8138895 549.7363089999999,157.78979289999998 557.147209,157.7561491 564.533309,157.71090189999998 571.8956089999999,157.6520306 579.2352089999999,157.577543 586.553909,157.48546749999997 593.854009,157.373842 601.137909,157.240705 608.408709,157.084194 615.669609,156.90505599999997 622.923909,156.706595 630.174209,156.49219 637.423009,156.26519599999997 644.672209,156.028959 651.9238089999999,155.786827 659.179009,155.54216399999999 666.438909,155.298351 673.704209,155.05879299999998 680.975409,154.826925 688.252409,154.60620699999998 695.5351089999999,154.40012399999998 702.822709,154.21218299999998 710.114209,154.04542899999998 717.408309,153.89858199999998 724.703609,153.768037 731.9988089999999,153.65015 739.292509,153.541272 746.583309,153.43775 753.870109,153.33593799999997 761.151609,153.23219799999998 768.426709,153.122909 775.6941089999999,153.004474 782.952909,152.87331799999998 790.201909,152.725901 797.440109,152.55871599999998 804.666609,152.368296 811.880509,152.152628 819.081109,151.91555499999998 826.267609,151.66239199999998 833.4391089999999,151.398407 840.594509,151.12881599999997 847.732909,150.85877399999998 854.853109,150.59336499999998 861.953809,150.33759799999999 869.033709,150.09639199999998 876.091409,149.87456899999998 883.1256089999999,149.67683999999997 890.1347089999999,149.50779999999997 897.1172089999999,149.37191199999998 904.071609,149.273496 910.995809,149.21391699999998 917.882709,149.179534 924.715509,149.15216399999997 931.468609,149.11445899999998 938.110509,149.05049699999998 944.606309,148.94652299999998 950.921409,148.791632 957.0251089999999,148.57831699999997 962.894209,148.30695999999998 968.516109,147.98557999999997 973.888009,147.62221999999997 979.014309,147.22412999999997 983.904109,146.79761 988.569309,146.34804999999997 993.023209,145.87994999999998 997.279509,145.39705999999998 1001.351909,144.90247999999997 1004.744609,144.46609999999998" stroke="black" stroke-width="2.0" /></svg>