<?xml version="1.0" encoding="utf-8" ?>
<svg baseProfile="full" height="126.12931" version="1.1" width="1012.2180026" xmlns="http://www.w3.org/2000/svg" xmlns:ev="http://www.w3.org/2001/xml-events" xmlns:xlink="http://www.w3.org/1999/xlink"><defs /><polygon fill="none" points="1004.2180026,104.4944 1001.6204026,103.052356 998.4876026,101.344903 995.1945026,99.586996 991.7257026,97.77578 988.0643025999999,95.90854999999999 984.1922026,93.98297 980.0903026,91.99741 975.7391026,89.95145 971.1203026,87.84655000000001 966.2190026,85.68705 961.0265026,83.48124 955.5451026,81.24266 949.7927026,78.99033 943.8063026,76.74283 937.6354025999999,74.51653999999999 931.3347026,72.32536999999999 924.9576026,70.179 918.5501026,68.08197 912.1467026,66.0335 905.7683026,64.02792 899.4223026,62.056419999999996 893.1054025999999,60.11503 886.8118026,58.203289999999996 880.5363026,56.32093 874.2741026,54.46785 868.0210026,52.64414 861.7730025999999,50.850030000000004 855.5265026,49.085879999999996 849.2782026,47.35224 843.0251026,45.64973 836.7647026,43.97913 830.4944026,42.34136 824.2123025999999,40.73741999999999 817.9163026,39.16843999999999 811.6050025999999,37.63568000000001 805.2771026,36.14048 798.9315025999999,34.68405 792.5681026,33.26611 786.1868026,31.885809999999992 779.7879026,30.54231 773.3718026,29.23478999999999 766.9388025999999,27.962450000000004 760.4898026000001,26.72452 754.0255026,25.52024 747.5469026,24.348860000000002 741.0551026,23.20962999999999 734.5514026,22.10181999999999 728.0373026,21.02470000000001 721.5144025999999,19.97752 714.9845025999999,18.959550000000007 708.4497026,17.97005999999999 701.9119026,17.008309999999994 695.3733026,16.074340000000007 688.8356026,15.169299999999993 682.3003026,14.294340000000005 675.7685026,13.450569999999999 669.2410026,12.639020000000002 662.7184026,11.860659999999996 656.2011026,11.116429999999994 649.6890026,10.407229999999998 643.1819026000001,9.733900000000006 636.6793026,9.097270000000009 630.1805026,8.498159999999999 623.6843026,7.9373800000000045 617.1896026,7.415729999999996 610.6947025999999,6.93401999999999 604.1979026,6.493099999999998 597.6971026,6.093400000000003 591.1905026,5.733739999999997 584.6763026,5.412579999999991 578.1530025999999,5.128410000000002 571.6195026,4.879789999999986 565.0747025999999,4.6652600000000035 558.5180026,4.483400000000003 551.9488025999999,4.332899999999995 545.3668025999999,4.212199999999996 538.7721026,4.11999999999999 532.1650026,4.0549000000000035 525.5459026,4.0154 518.9158026,4.0 512.2758025999999,4.007300000000001 505.6272026,4.035800000000009 498.9718026,4.084000000000003 492.3113026,4.151799999999994 485.64720259999996,4.2393 478.98100259999995,4.346900000000005 472.3141026,4.474699999999999 465.6477026,4.622929999999997 458.9829026,4.79182999999999 452.3208026,4.981590000000011 445.6620026,5.192390000000003 439.00750259999995,5.424419999999998 432.3578026,5.677840000000003 425.7134026,5.952830000000006 419.0747026,6.2495600000000024 412.4418026,6.568190000000001 405.81500259999996,6.908919999999995 399.19430259999996,7.271929999999998 392.57960259999993,7.657689999999988 385.97100259999996,8.066760000000002 379.3685026,8.499740000000003 372.7721026,8.957189999999997 366.1819026,9.439689999999999 359.5977026,9.94784 353.0196026,10.482199999999992 346.4475026,11.043359999999993 339.8814026,11.631920000000008 333.32110259999996,12.248450000000005 326.76650259999997,12.893570000000011 320.21760259999996,13.567859999999996 313.6742026,14.271929999999998 307.1362026,15.0064 300.6035026,15.771839999999997 294.0757026,16.568179999999998 287.55250259999997,17.394779999999997 281.03370259999997,18.251000000000005 274.51860259999995,19.13624 268.0067026,20.04988 261.49750259999996,20.99136 254.9902026,21.96011 248.48410260000003,22.955609999999993 241.9783026,23.977349999999987 235.4720026,25.024829999999994 228.96410260000002,26.097610000000003 222.4537026,27.19525 215.93950260000003,28.317350000000005 209.4203026,29.463520000000003 202.8948026,30.633430000000004 196.3620026,31.827839999999995 189.8231026,33.04965999999999 183.2832026,34.30143000000001 176.7509026,35.58485 170.2388026,36.900699999999986 163.7626026,38.24875 157.34080260000002,39.62765999999999 150.99390259999998,41.03509 144.7411026,42.468329999999995 138.5908026,43.92685 132.5375026,45.41305 126.5649026,46.93223 120.6472026,48.49264 114.74990260000001,50.10606 108.82730260000001,51.78883 102.8190226,53.5641 96.6454226,55.460969999999996 90.2783526,57.48809 83.8646226,59.59404 77.5672526,61.71494 71.7185326,63.7278 66.34600259999999,65.61752 61.2655826,67.44614 56.1848726,69.32287 50.664732599999994,71.43181 45.9678926,73.3267 41.9436526,75.06226 37.970922599999994,76.8973 33.2539126,79.24144 27.8256426,82.15128 24.4060526,84.09919 21.8215126,85.64169 19.7292926,86.94366 17.9599526,88.08905 16.4236326,89.12264 15.0663926,90.07145 13.8530286,90.95322 12.7591826,91.78029 11.7672286,92.56162 10.863980600000001,93.30402 10.0393156,94.01272 9.2852956,94.691914 8.595600600000001,95.344982 7.9651366,95.974709 7.3897596,96.583421 6.866081599999999,97.173087 6.3913286000000005,97.745387 5.9632336,98.301774 5.5799566,98.843514 5.2400256,99.371719 4.942292,99.887372 4.685899,100.391349 4.4702565,100.884439 4.29502646,101.367353 4.16011443,101.84073599999999 4.0656676,102.305183 4.0120793,102.76124 4.0,103.209414 4.0303561,103.6501811 4.1043772,104.0839922 4.22363339,104.5112773 4.3895813,104.9325199 4.6022846,105.34841709999999 4.8617558,105.75967299999999 5.1683451,106.166957 5.5227486,106.570909 5.9260296,106.972158 6.3796486,107.371328 6.8855146000000005,107.76905 7.4460505999999995,108.165975 8.0642826,108.562787 8.7439696,108.96021999999999 9.4897706,109.359077 10.307483600000001,109.760262 11.2043856,110.164807 12.1897136,110.573931 13.2753976,110.989104 14.477182599999999,111.412157 15.8164326,111.845447 17.3232826,112.292132 19.0422626,112.756643 21.043802599999996,113.24557 23.450292599999997,113.769481 26.4876626,114.343623 30.820512599999997,115.01113 36.9350826,115.66001 41.8941326,115.95206999999999 46.7355526,116.084 52.4746426,116.15138 58.049922599999995,116.25171 63.2888626,116.40344999999999 68.65408260000001,116.58955 74.4213826,116.79665 80.7459326,116.99907999999999 87.4503526,117.16311 94.0676626,117.28681 100.71897260000001,117.39117 107.39410260000001,117.49432 113.9659026,117.60165 120.4778026,117.70948 126.96530260000002,117.81374 133.4550026,117.91031 139.9663026,117.99486 146.5114026,118.06276 153.0954026,118.10906 159.7164026,118.12931 166.3691026,118.12448 173.0485026,118.09787 179.7501026,118.05299 186.47000260000002,117.99346 193.20470260000002,117.92299 199.9514026,117.84537 206.70810260000002,117.76442 213.4704026,117.6825 220.2285026,117.59996 226.9827026,117.51686 233.7343026,117.43325 240.48450259999998,117.34919 247.2343026,117.26472 253.98470260000002,117.1799 260.73640259999996,117.09479 267.4899026,117.00944 274.24570259999996,116.92392 281.00410259999995,116.83828 287.7651026,116.75259 294.52860259999994,116.66692 301.2945026,116.58133 308.0597026,116.49593 314.8232026,116.41075 321.5853026,116.32576 328.3464026,116.24095 335.1070026,116.15629 341.86730259999996,116.07175 348.62760259999993,115.98731 355.38810259999997,115.90295 362.1491026,115.81866 368.91060259999995,115.7344 375.67280259999995,115.65016 382.43570259999996,115.56591 389.1994025999999,115.48165 395.96380259999995,115.39734 402.7288026,115.31298 409.49440259999994,115.22854 416.2602026,115.14404 423.0259026,115.05948 429.79150259999994,114.97488 436.55710259999995,114.89024 443.3228026,114.80557999999999 450.0886026,114.72091 456.85460259999996,114.63624 463.62050259999995,114.55158 470.38630259999996,114.466936 477.15190259999997,114.382331 483.9174026,114.29777 490.68280259999995,114.213263 497.4482026,114.128821 504.2137026,114.044453 510.9794026,113.960163 517.7454025999999,113.875932 524.5112025999999,113.79174 531.2765026,113.707568 538.0415026,113.62339 544.8060025999999,113.539183 551.5702025999999,113.454922 558.3342025999999,113.370581 565.0979026,113.286135 571.8617026,113.201558 578.6257026,113.116824 585.3901026,113.03190599999999 592.1551026,112.946777 598.9208026,112.861411 605.6856025999999,112.775806 612.4487026,112.689978 619.2101026,112.604008 625.9695025999999,112.517982 632.7267026,112.43198699999999 639.4820026,112.346109 646.2354025999999,112.260429 652.9872026,112.175031 659.7377026,112.089995 666.4873025999999,112.005399 673.2367026,111.921322 679.9865026,111.837841 686.7374026,111.755031 693.4904026,111.672968 700.2463026,111.591726 707.0063026,111.511374 713.7708025999999,111.43181799999999 720.5322026,111.352845 727.2872026,111.274172 734.0360026,111.195483 740.7787026,111.11645899999999 747.5162026,111.036776 754.2496026,110.956109 760.9805026,110.874126 767.7107026,110.790492 774.4427026,110.704863 781.1790026,110.616889 787.9228026,110.526208 794.6776026,110.432446 801.4373026,110.335359 808.1785025999999,110.235025 814.8963025999999,110.132079 821.5876026,110.027734 828.2513025999999,109.923176 834.8874026,109.819542 841.4972025999999,109.71791999999999 848.0834026,109.619354 854.6496026,109.524855 861.2007026,109.435404 867.7428026,109.35197 874.2828026,109.275521 880.8290026,109.207042 887.3911026000001,109.14755099999999 893.9801026,109.098127 900.6087026,109.059936 907.2916026,109.034061 914.0367026,109.015856 920.7581025999999,108.994158 927.4375025999999,108.957408 934.1154025999999,108.89393 940.8439026,108.791174 947.4922025999999,108.639785 953.9169026,108.435548 960.0496026,108.179058 965.8490026,107.87944399999999 971.3024025999999,107.547036 976.4172026,107.190583 981.2123025999999,106.817073 985.7124026,106.431886 989.9435026,106.03908 993.9311026,105.641674 997.6989026,105.2418983 1001.2682026,104.8413913 1004.2180026,104.4944" stroke="black" stroke-width="2.0" /></svg>