<?xml version="1.0" encoding="utf-8" ?>
<svg baseProfile="full" height="135.00403" version="1.1" width="1012.05494876" xmlns="http://www.w3.org/2000/svg" xmlns:ev="http://www.w3.org/2001/xml-events" xmlns:xlink="http://www.w3.org/1999/xlink"><defs /><polygon fill="none" points="1004.05494876,91.04787 1001.25604876,89.545349 997.89484876,87.780075 994.37974876,85.97920500000001 990.69884876,84.142283 986.83944876,82.269327 982.78864876,80.36102 978.53334876,78.41898 974.06104876,76.44606 969.3610487599999,74.44678 964.42554876,72.42775 959.2513487599999,70.39811 953.84224876,68.36991 948.21124876,66.35683 942.38174876,64.36923 936.38304876,62.41548 930.24744876,60.50201 924.0072487599999,58.63266 917.69204876,56.80827 911.32614876,55.026610000000005 904.92694876,53.28251 898.50384876,51.56915 892.05814876,49.88396 885.5901487599999,48.22645000000001 879.10014876,46.59615 872.58884876,44.99266 866.05714876,43.41561 859.50604876,41.86467 852.93714876,40.33955 846.3522487600001,38.83999000000001 839.75324876,37.36576 833.14244876,35.916650000000004 826.52264876,34.492470000000004 819.89664876,33.09306 813.26764876,31.718250000000005 806.63904876,30.367890000000003 800.01464876,29.041940000000004 793.39784876,27.74174 786.79174876,26.469539999999995 780.19854876,25.227419999999995 773.61994876,24.017259999999993 767.05694876,22.84079 760.50994876,21.69957000000001 753.9785487600001,20.59499000000001 747.46204876,19.52838 740.9591487600001,18.500920000000008 734.46794876,17.51374 727.98594876,16.567899999999995 721.51044876,15.664450000000002 715.03784876,14.804419999999993 708.56444876,13.988839999999996 702.08564876,13.218779999999995 695.5968487600001,12.49409 689.0937487599999,11.812579999999997 682.57254876,11.17204000000001 676.03004876,10.570350000000005 669.46374876,10.005529999999993 662.8716487600001,9.47565999999999 656.25234876,8.97887 649.60504876,8.513329999999996 642.92964876,8.07723 636.22684876,7.668759999999992 629.4981487599999,7.286090000000016 622.74554876,6.927379999999999 615.97224876,6.590760000000003 609.18214876,6.274299999999997 602.38004876,5.976060000000004 595.57124876,5.695050000000009 588.7609487599999,5.432199999999995 581.95344876,5.188550000000006 575.15224876,4.965100000000007 568.36034876,4.7627800000000065 561.57984876,4.582430000000002 554.8121487599999,4.424890000000005 548.05794876,4.2908999999999935 541.31724876,4.181219999999996 534.58944876,4.096559999999997 527.87304876,4.037649999999999 521.1661487599999,4.005210000000005 514.4662487600001,4.0 507.76994876000003,4.022810000000007 501.07344875999996,4.074469999999991 494.37234876,4.1547900000000055 487.66274876,4.2623999999999995 480.94124876,4.395900000000012 474.20484876,4.553899999999999 467.45134876,4.735040000000012 460.67914876,4.937930000000009 453.88724876000003,5.161150000000006 447.07544876,5.403230000000008 440.24394876,5.662680000000009 433.39384876,5.937920000000005 426.52714876000005,6.227289999999996 419.64644876,6.529100000000014 412.75504876,6.841540000000009 405.85724876,7.162750000000003 398.95814876000003,7.491020000000006 392.06294876000004,7.82659000000001 385.17644876,8.170770000000005 378.30264876,8.524860000000004 371.44474876,8.890200000000007 364.60504876,9.26812000000001 357.78514875999997,9.659940000000006 350.98584876,10.067020000000014 344.20724876,10.490710000000007 337.44864876,10.932389999999998 330.70874876,11.393479999999997 323.98574876000004,11.875430000000009 317.27694876,12.379750000000016 310.57934875999996,12.908029999999997 303.88894876,13.461940000000013 297.20144876,14.042990000000003 290.51254875999996,14.65167000000001 283.81864876000003,15.288250000000005 277.11714875999996,15.952939999999998 270.40654876,16.64591 263.68594876000003,17.367229999999992 256.95554875999994,18.116910000000004 250.21674876,18.894790000000015 243.47144876000002,19.70062 236.72314876,20.533950000000004 229.97594876000002,21.394140000000007 223.23504875999998,22.280380000000008 216.50674876,23.191630000000004 209.79794876,24.126620000000003 203.11664876,25.083880000000008 196.47094876,26.06187 189.86684876,27.059780000000003 183.30404876,28.077669999999998 176.77634876,29.116630000000008 170.27214876000002,30.178710000000002 163.77444875999998,31.267160000000004 157.26024876,32.38653 150.69974876,33.54316 144.05804876,34.74754 137.31594876,36.010690000000004 130.52954876,37.32977 123.77144876,38.69709 116.97624876,40.13206 110.29264876,41.60799000000001 103.87114876,43.09125 97.80176876,44.555330000000005 92.11691876,45.982130000000005 86.78275876000001,47.37036 81.73767876000001,48.72841 76.91329876,50.069300000000005 72.24013876000001,51.40907 67.64523876,52.76749 63.04356876,54.170970000000004 58.318548760000006,55.65983 53.27040876,57.30820000000001 47.50999876,59.29229000000001 41.74922876,61.47424 35.74011876,64.0426 30.96107876,66.32639 27.432958759999998,68.15159 24.66145876,69.67223 22.380998759999997,70.98924 20.43979876,72.16453000000001 18.74829876,73.23576 17.25004876,74.22710000000001 15.90726876,75.15496 14.69340876,76.03102 13.58911176,76.8639 12.57977476,77.66016 11.654144760000001,78.42493 10.803355759999999,79.16232000000001 10.02031276,79.87567 9.29926476,80.56776 8.63549776,81.240897 8.02512476,81.897076 7.4649177600000005,82.53800000000001 6.95219576,83.165154 6.48472676,83.779847 6.060667759999999,84.38324 5.67850176,84.976376 5.33700576,85.560199 5.035214760000001,86.135572 4.7724012600000005,86.70329100000001 4.54805676,87.264098 4.36188216,87.818691 4.21378096,88.367734 4.10385808,88.911865 4.03242345,89.451704 4.0,89.987865 4.00733741,90.5209553 4.0554318982,91.051593333 4.14517413,91.5804251 4.27625396,92.108152 4.44825436,92.635468 4.66099896,93.163048 4.91454626,93.69156000000001 5.20918876,94.221677 5.54545976,94.754079 5.92414376,95.289471 6.34629576,95.828587 6.81326576,96.372207 7.32673876,96.921166 7.88877676,97.47637 8.501887759999999,98.03882 9.16909876,98.609629 9.89407476,99.190055 10.68125376,99.781541 11.53604876,100.385761 12.46511276,101.00469100000001 13.47671576,101.64070000000001 14.581288760000001,102.29668000000001 15.79220876,102.97622 17.127038759999998,103.68393 18.60943876,104.42579 20.27239876,105.20989 22.16376876,106.04749000000001 24.356578759999998,106.95482 26.968108759999996,107.95561000000001 30.19071876,109.08124000000001 34.36180876,110.36603000000001 39.993598760000005,111.80666 46.39725876,113.09773000000001 52.67589876,114.13405 58.34482876,115.00609 63.671858760000006,115.80887 68.86626876000001,116.57331 74.05170876000001,117.31546 79.31689876,118.04465 84.73430876,118.76613 90.36628876,119.48157 96.26275876,120.18843000000001 102.44853876,120.87818 108.89954876,121.53506 115.55014876,122.14638000000001 122.32504876,122.70558 129.15234876,123.21003 135.97394876,123.66098 142.75374876,124.06290000000001 149.47834876000002,124.42232000000001 156.15564876000002,124.74687 162.80754876,125.04264 169.45384876,125.31231 176.11024876,125.55778000000001 182.78834876,125.78059 189.49634876000002,125.982 196.23834876,126.16308000000001 203.01474876,126.32477 209.82174876,126.46789000000001 216.65414876,126.59292 223.50714875999998,126.70027 230.37614876,126.79042000000001 237.25704876,126.86393000000001 244.14614876000002,126.92139 251.04034876,126.96344 257.93694876,126.99075 264.83374876,127.00403 271.72904876,127.004 278.62174876,126.99139 285.51114875999997,126.96694 292.39724876,126.93138 299.28054876,126.88545 306.16174876,126.82987 313.04244876,126.76538000000001 319.92374876,126.69274999999999 326.80694876,126.61275 333.69304876,126.52615 340.58284876,126.4337 347.47714876000003,126.33618000000001 354.37664876,126.23436000000001 361.28164876,126.12902 368.19274876000003,126.02092 375.10984876000003,125.91087 382.03324876,125.79964000000001 388.96264876000004,125.68804 395.89804876,125.57687 402.83884876,125.46693 409.78464876000004,125.35897 416.73484876,125.2531 423.68884876,125.14919 430.64604876,125.04712 437.60604876,124.94674 444.56814876,124.84792 451.53204876,124.75052 458.49594876,124.65443 465.45904876,124.55951999999999 472.42174876,124.46562 479.38454876000003,124.3726 486.34784876000003,124.28030000000001 493.31194876,124.18857 500.27574876,124.09728000000001 507.23804875999997,124.00630000000001 514.19864876,123.91546 521.1571487599999,123.82452 528.1135487600001,123.73324 535.0675487599999,123.6414 542.0190487599999,123.54877 548.96824876,123.45510999999999 555.91494876,123.3602 562.8594487600001,123.26378 569.8018487600001,123.16565 576.7423487599999,123.06555 583.68124876,122.96325 590.61894876,122.85853 597.55574876,122.75113 604.4922487599999,122.64083000000001 611.42884876,122.52739 618.36614876,122.41068 625.3043487599999,122.29055 632.24364876,122.16686 639.18414876,122.03949 646.12554876,121.9083 653.06774876,121.77318 660.01014876,121.63398000000001 666.95214876,121.49061 673.89284876,121.34294 680.8315487599999,121.19087 687.76694876,121.0343 694.6978487599999,120.87313 701.62294876,120.70728 708.54044876,120.53664 715.44904876,120.36070000000001 722.3471487600001,120.17869 729.23404876,119.98983 736.1090487600001,119.79335 742.97194876,119.58847 749.82294876,119.37440000000001 756.66254876,119.15037000000001 763.49164876,118.91559000000001 770.3115487599999,118.66923 777.12364876,118.4105 783.92984876,118.13853 790.73244876,117.85246000000001 797.53394876,117.5514 804.3371487600001,117.23439 811.14544876,116.90057 817.96164876,116.54938000000001 824.78814876,116.18041 831.62584876,115.79325 838.4751487599999,115.38755 845.33494876,114.96304 852.20324876,114.51949 859.07724876,114.05679 865.95264876,113.57495 872.8242487599999,113.07408000000001 879.68584876,112.55445 886.53024876,112.01646 893.3495487600001,111.4607 900.13494876,110.88789 906.87704876,110.29872 913.56364876,109.68727000000001 920.1751487600001,109.04036 926.6870487599999,108.34623 933.0719487599999,107.59551 939.30134876,106.78159000000001 945.34854876,105.90074 951.19044876,104.95204000000001 956.80904876,103.93724 962.19414876,102.86433000000001 967.34344876,101.74537000000001 972.2608487599999,100.591047 976.95444876,99.41037200000001 981.43444876,98.21082100000001 985.7128487599999,96.99849 989.8019487600001,95.778293 993.71404876,94.55415500000001 997.46124876,93.32919100000001 1001.05484876,92.105853 1004.05494876,91.04787" stroke="black" stroke-width="2.0" /></svg>