<?xml version="1.0" encoding="utf-8" ?>
<svg baseProfile="full" height="149.75659000000002" version="1.1" width="1012.4115724" xmlns="http://www.w3.org/2000/svg" xmlns:ev="http://www.w3.org/2001/xml-events" xmlns:xlink="http://www.w3.org/1999/xlink"><defs /><polygon fill="none" points="1004.4115724,126.57600000000001 1000.7759724,125.48067300000001 996.3957723999999,124.174659 991.7982723999999,122.81980700000001 986.9655724,121.41324700000001 981.8797724,119.952404 976.5233724,118.43530600000001 970.8812724,116.861022 964.9428723999999,115.23027 958.7050724,113.54619000000001 952.1766724,111.81516 945.3812724,110.04530000000001 938.3559723999999,108.24352 931.1455723999999,106.41668000000001 923.7981724,104.57085000000001 916.3595723999999,102.71034 908.8684724,100.83692 901.3526724,98.94936000000001 893.8280724,97.04794000000001 886.3039724,95.13813 878.7878724,93.22557 871.2856724,91.31547 863.8017724,89.41258 856.3387723999999,87.52120000000001 848.8975724,85.64511000000002 841.4778724,83.78769 834.0776723999999,81.95183 826.6936724,80.14006 819.3211723999999,78.35457 811.9541724,76.59720000000002 804.5853724,74.86957000000001 797.2063724,73.17236 789.8091724,71.50223 782.3874724,69.85465000000002 774.9356724,68.22541000000001 767.4498723999999,66.61054000000001 759.9269724,65.00635000000001 752.3653724,63.40935 744.7648724,61.816280000000006 737.1268723999999,60.224080000000015 729.4541724,58.62996000000001 721.7513723999999,57.03135 714.0249723999999,55.42599000000001 706.2830723999999,53.811930000000004 698.5356724,52.18786 690.7929723999999,50.55669 683.0634723999999,48.924130000000005 675.3544724,47.295670000000015 667.6717723999999,45.67645 660.0199723999999,44.07123 652.4022724,42.484350000000006 644.8204723999999,40.91980000000001 637.2751724,39.38117000000001 629.7660724,37.87168 622.2916724,36.394270000000006 614.8495723999999,34.95158000000001 607.4363724,33.54599000000002 600.0480724,32.179680000000005 592.6800724,30.853350000000006 585.3283723999999,29.566030000000012 577.9889724,28.316720000000004 570.6581724,27.104529999999997 563.3318724,25.928600000000003 556.0063724,24.788300000000007 548.6777724,23.6828 541.3421724,22.611700000000013 533.9957723999999,21.57440000000001 526.6344724,20.57050000000001 519.2542724,19.599500000000006 511.8509724,18.66130000000001 504.4201724,17.755600000000015 496.9574724,16.88210000000001 489.45857240000004,16.039500000000018 481.92007240000004,15.226300000000009 474.34007240000005,14.441100000000006 466.7177724,13.682400000000015 459.0536724,12.949100000000001 451.3499724,12.240000000000009 443.6104724,11.554000000000002 435.84057240000004,10.890100000000018 428.0476724,10.247200000000007 420.2405724,9.624300000000005 412.43027240000004,9.020500000000013 404.62887240000003,8.43480000000001 396.8502724,7.866800000000012 389.1080724,7.320200000000014 381.4138724,6.800500000000014 373.77717240000004,6.313000000000017 366.2051724,5.862300000000019 358.7032724,5.452500000000015 351.2748724,5.087400000000002 343.9215724,4.770400000000009 336.6437724,4.504300000000001 329.4403724,4.291899999999998 322.3094724,4.135599999999997 315.2480724,4.037599999999998 308.2523724,4.0 301.31797240000003,4.02500000000002 294.4403724,4.113900000000001 287.61547240000004,4.266700000000014 280.8393724,4.4835000000000065 274.1083724,4.764300000000006 267.4186724,5.109300000000005 260.7663724,5.518900000000002 254.1478724,5.993800000000007 247.5592724,6.534500000000008 240.9967724,7.14200000000001 234.4564724,7.817300000000017 227.9345724,8.561800000000005 221.4269724,9.376800000000003 214.9293724,10.264200000000002 208.4376724,11.22590000000001 201.94717240000003,12.264100000000013 195.4534724,13.380800000000008 188.9538724,14.576200000000014 182.45057240000003,15.849400000000017 175.9506724,17.198300000000017 169.4662724,18.619200000000006 163.01417240000004,20.107100000000003 156.6152724,21.654799999999994 150.2938724,23.253699999999995 144.07627240000002,24.8985 137.98497240000003,26.58935000000001 132.03427240000002,28.32727 126.23207239999999,30.113850000000014 120.5802724,31.951150000000013 115.07707239999999,33.84172000000001 109.71747239999999,35.7886 104.4943724,37.79536000000002 99.3996124,39.86559000000001 94.4260324,41.99861 89.57021239999999,44.190460000000016 84.8318824,46.43612000000002 80.21312239999999,48.72962 75.7176424,51.06425 71.3510424,53.435199999999995 67.12496239999999,55.83582000000001 63.0561424,58.25434 59.1625424,60.67542 55.4597924,63.08221000000001 51.9587624,65.45840000000001 48.667922399999995,67.78920000000001 45.58898239999999,70.06544000000001 42.713772399999996,72.28469000000001 40.02917239999999,74.44871 37.52039239999999,76.56145000000001 35.172742400000004,78.62793 32.9725124,80.65358 30.9073324,82.64388000000001 28.966222400000003,84.60417000000001 27.1374824,86.54010000000001 25.402252400000002,88.45693 23.7468824,90.35262 22.1645824,92.21859 20.6524624,94.04285000000002 19.209292400000002,95.81319 17.8338824,97.51950000000001 16.524232400000002,99.15512000000001 15.2804124,100.71641000000001 14.111445400000001,102.20171 13.0221234,103.61384000000001 12.0122464,104.95823000000001 11.0791534,106.24114 10.219144400000001,107.46876 9.4282334,108.64688000000001 8.7025394,109.78067000000001 8.0384624,110.87477000000001 7.4327634,111.93323000000001 6.882581399999999,112.95965000000001 6.3854194,113.9572 5.9391314,114.92869 5.5418894000000005,115.87660000000001 5.1921661,116.803171 4.8887079,117.71042000000001 4.6305173,118.600165 4.416837848,119.474072 4.2471423,120.33367000000001 4.1211256,121.180379 4.0387008,122.015527 4.0,122.84037000000001 4.0053788,123.65610400000001 4.055426,124.463886 4.150978,125.26484400000001 4.2931401000000005,126.06009340000001 4.48329031,126.8507445 4.721828,127.63739500000001 5.0075269,128.419808 5.3392803,129.197572 5.7162204,129.970152 6.1376874,130.736883 6.6032014,131.496956 7.1124393999999995,132.249399 7.6652114000000005,132.99305700000002 8.261443400000001,133.72657 8.9011514,134.448337 9.5844174,135.156484 10.3113654,135.848822 11.082125399999999,136.522797 11.896791400000001,137.17543 12.7553724,137.80327 13.6577264,138.40229 14.6034824,138.96785 15.591922400000001,139.49459000000002 16.6218824,139.97635 17.6916224,140.40631000000002 18.7998024,140.77997000000002 19.945682400000003,141.09560000000002 21.1283724,141.35171 22.3468024,141.54694 23.5996724,141.68014 24.885542400000002,141.7503 26.2027724,141.75659000000002 27.5495524,141.69833 28.9239824,141.57500000000002 30.3241124,141.38614 31.750482400000003,141.13077 33.2065224,140.80723 34.6962824,140.4137 36.2244424,139.94833 37.796412399999994,139.40922 39.418502399999994,138.79451 41.09811239999999,138.10251 42.843962399999995,137.33186 44.666402399999996,136.48186900000002 46.577732399999995,135.55293600000002 48.592622399999996,134.54731800000002 50.728452399999995,133.470278 53.005632399999996,132.331898 55.4474124,131.149518 58.0760824,129.936834 60.9106124,128.693475 63.9691024,127.41793260000001 67.2674624,126.10863350000001 70.8172424,124.763676 74.62349239999999,123.380267 78.6834724,121.95372700000001 82.9876624,120.47869 87.52180239999998,118.965084 92.2646524,117.432658 97.1900124,115.90369000000001 102.2720224,114.40074000000001 107.4913724,112.94405 112.83607239999999,111.54520000000001 118.2958724,110.2099 123.8614724,108.94267 129.5261724,107.74692 135.28597240000002,106.62493 141.14127240000002,105.57798000000001 147.0973724,104.60654000000001 153.16597240000002,103.71043 159.3667724,102.88832000000001 165.72527240000002,102.13381000000001 172.2668724,101.43867 179.0140724,100.79444000000001 185.9843724,100.19194 193.18607240000003,99.62082000000001 200.61347240000003,99.06918 208.2394724,98.52415 216.01697240000001,97.98344 223.89207240000002,97.45478 231.8122724,96.94589 239.7300724,96.4637 247.60707240000002,96.01402000000002 255.4146724,95.60145 263.1347724,95.22945000000001 270.7585724,94.90053 278.2854724,94.61652000000001 285.7213724,94.37880000000001 293.0781724,94.18854000000002 300.37227240000004,94.04695000000001 307.6244724,93.95535000000001 314.8581724,93.91215 322.0947724,93.91320000000002 329.3531724,93.95466000000002 336.6495724,94.03305 343.9982724,94.14504000000001 351.4110724,94.28734 358.8978724,94.45657000000001 366.4656724,94.64919 374.11847240000003,94.86134000000001 381.8568724,95.0888 389.6770724,95.32690000000001 397.5705724,95.57052000000002 405.52327240000005,95.81403 413.5161724,96.05380000000001 421.5291724,96.29125 429.54417240000004,96.52866 437.5460724,96.76838000000001 445.5225724,97.01283000000001 453.4646724,97.26441000000001 461.3661724,97.52555000000001 469.2240724,97.79865000000001 477.0376724,98.08612000000001 484.80917239999997,98.39035000000001 492.5428724,98.71381000000001 500.2451724,99.05902 507.92447240000007,99.42853000000001 515.5907723999999,99.82346000000001 523.2529724,100.24338 530.9185723999999,100.68788 538.5937724,101.15653 546.2833724,101.64888 553.9910724,102.16446 561.7189724,102.70271000000001 569.4676723999999,103.26299 577.2366724,103.84453 585.0235723999999,104.44644000000001 592.8246723999999,105.06763000000001 600.6344723999999,105.70688000000001 608.4459724,106.36267000000001 616.2514723999999,107.03200000000001 624.0444724,107.71078000000001 631.8197723999999,108.39499 639.5740723999999,109.08080000000001 647.3053723999999,109.76454000000001 655.0133724,110.44274000000001 662.6988724,111.11211 670.3643724,111.76956000000001 678.0133724,112.41211000000001 685.6506724,113.03693000000001 693.2826723999999,113.64128000000001 700.9166723999999,114.22246000000001 708.5613724,114.77796000000001 716.2260724,115.30826 723.9185724,115.81626 731.6450723999999,116.30477 739.4099724,116.776492 747.2157724,117.23405500000001 755.0629723999999,117.680034 762.9499723999999,118.11696800000001 770.8727723999999,118.547359 778.8249724,118.973674 786.7975724,119.39832200000001 794.7788724,119.823632 802.7549724,120.25181800000001 810.7097723999999,120.68438300000001 818.6275724,121.11871400000001 826.4965723999999,121.55064200000001 834.3090723999999,121.97633900000001 842.0610724000001,122.392339 849.7521724,122.795518 857.3848724,123.18306500000001 864.9645724,123.552423 872.4989724,123.90123500000001 879.9981723999999,124.22727200000001 887.4744724,124.528362 894.9423724,124.802311 902.4187724,125.046817 909.9233724,125.25984600000001 917.4700723999999,125.44338 925.0520723999999,125.6012833 932.6380723999999,125.7372418 940.1725723999999,125.85496300000001 947.5812724,125.9582254 954.7819723999999,126.05075910000001 961.6986723999999,126.13535010000001 968.2792724,126.21240750000001 974.5014723999999,126.28219510000001 980.3647723999999,126.34522650000001 985.8832723999999,126.40212960000001 991.0788724,126.45355570000001 995.9764723999999,126.50012674000001 1000.6016723999999,126.54240973 1004.4115724,126.57600000000001" stroke="black" stroke-width="2.0" /></svg>