<?xml version="1.0" encoding="utf-8" ?>
<svg baseProfile="full" height="114.24710099999999" version="1.1" width="1012.5784227" xmlns="http://www.w3.org/2000/svg" xmlns:ev="http://www.w3.org/2001/xml-events" xmlns:xlink="http://www.w3.org/1999/xlink"><defs /><polygon fill="none" points="1004.5784227,99.79506999999998 1001.8121227,99.01028699999999 998.4661227,98.07090399999998 994.9357227,97.09143999999999 991.2009227,96.06831299999999 987.2395227,94.99774499999998 983.0276227,93.87591999999998 978.5400227,92.69927999999999 973.7522227000001,91.46504199999998 968.6435227000001,90.17202999999998 963.2020227,88.82191999999999 957.4323227000001,87.42080999999999 951.3642227,85.98087999999998 945.0577227,84.51987999999999 938.6878227,83.07900999999998 932.3763227,81.6839 926.0629227000001,80.31888 919.7016227,78.97245999999998 913.2784227,77.64048999999999 906.9082227,76.34493999999998 900.6135227,75.08783999999999 894.3771227000001,73.86340999999999 888.1815227,72.66640999999998 882.0118227,71.49234999999999 875.8555227,70.33733999999998 869.7012227,69.19794999999999 863.5394227,68.07113999999999 857.3617227000001,66.95417999999998 851.1610227,65.84460999999999 844.9313227,64.74022 838.6678227,63.639009999999985 832.3671227000001,62.539189999999984 826.0271227000001,61.43916999999998 819.6470227000001,60.33759999999999 813.2279227,59.23334999999999 806.7727227,58.125559999999986 800.2915227,57.01464999999999 793.8255227,55.907209999999985 787.3786226999999,54.80408999999999 780.9451227,53.70454999999998 774.5203227,52.607939999999985 768.0996227,51.513699999999986 761.6792227000001,50.421379999999985 755.2555227,49.33057999999999 748.8258227,48.24102999999999 742.3873227,47.152509999999985 735.9382227,46.06486999999999 729.4767227,44.97808999999999 723.0017227000001,43.892189999999985 716.5133227000001,42.80739999999999 710.0286227,41.72678999999999 703.5561227000001,40.65200999999998 697.0950227000001,39.58320999999999 690.6440227,38.52088999999999 684.2020227,37.46559999999999 677.7677227,36.41789999999999 671.3402227,35.378369999999975 664.9184227000001,34.34758999999998 658.5013227000001,33.326139999999995 652.0880227,32.31460999999999 645.6777227000001,31.313609999999983 639.2696227,30.32375999999998 632.8628227,29.345679999999987 626.4568227000001,28.379989999999978 620.0507227,27.42734999999999 613.6439227000001,26.488399999999984 607.2360227,25.563809999999975 600.8263227000001,24.654239999999987 594.4145227,23.760029999999986 588.0002227,22.88127999999999 581.5832227,22.018069999999994 575.1634227000001,21.170509999999993 568.7408227,20.338709999999992 562.3154227000001,19.522789999999986 555.8876227000001,18.722909999999985 549.4574227,17.939199999999985 543.0253227,17.171829999999986 536.5917227000001,16.42094999999999 530.1572227,15.68674 523.7223227000001,14.969379999999987 517.2879227000001,14.26903999999999 510.85482269999994,13.585889999999992 504.42382269999996,12.92013999999999 497.99602269999997,12.272059999999996 491.5723227,11.64251999999999 485.15362269999997,11.032479999999993 478.74052269999993,10.442889999999991 472.33352269999995,9.874659999999977 465.9330227,9.328679999999977 459.5390227,8.80580999999998 453.15162269999996,8.306889999999981 446.77052269999996,7.83274999999999 440.3955227,7.384199999999979 434.02602269999994,6.962049999999991 427.6615227,6.567069999999987 421.3010227,6.200069999999997 414.94382269999994,5.86184999999999 408.58852269999994,5.5531899999999865 402.2342227,5.274909999999977 395.87922269999996,5.027139999999989 389.5224227,4.80889999999998 383.16252269999995,4.619089999999986 376.79822269999994,4.456659999999985 370.4285227,4.3205799999999925 364.05242269999997,4.2098199999999935 357.66892269999994,4.123379999999983 351.2771227,4.060259999999985 344.87612269999994,4.019459999999995 338.46532269999994,4.0 332.0441227,4.000889999999984 325.6117227,4.021149999999992 319.1677227,4.059779999999989 312.7117227,4.115799999999993 306.2432227,4.188189999999977 299.7622227,4.27615999999999 293.2686227,4.381299999999982 286.76372269999996,4.506739999999979 280.2493227,4.655629999999988 273.72842269999995,4.831079999999986 267.20492269999994,5.0361799999999874 260.68362269999994,5.273899999999983 254.17042270000002,5.54707999999998 247.67182269999998,5.858379999999983 241.1952227,6.210249999999988 234.7486227,6.604809999999986 228.34072270000001,7.043899999999979 221.98032270000002,7.52897999999999 215.67652270000002,8.061089999999979 209.4384227,8.64085999999999 203.27462269999998,9.268519999999995 197.1939227,9.944969999999984 191.2018227,10.673979999999986 185.2978227,11.459969999999984 179.4762227,12.307759999999988 173.72692270000002,13.222859999999997 168.03612270000002,14.211719999999985 162.3865227,15.282129999999981 156.7572227,16.443709999999996 151.12332270000002,17.708309999999983 145.45582270000003,19.084389999999985 139.7311227,20.575349999999986 133.9351227,22.182779999999994 128.06572269999998,23.905089999999987 122.1356227,25.735499999999988 116.1751227,27.660119999999992 110.23262270000001,29.656699999999987 104.3714927,31.69511999999999 98.6604927,33.74434999999998 93.1391127,35.796649999999985 87.78899270000001,37.86740999999999 82.5488627,39.98934999999999 77.32062270000002,42.215169999999986 71.9714427,44.617359999999984 66.4277927,47.24514999999999 60.7940027,50.06294999999999 55.3875027,52.90793999999999 50.5440927,55.57624999999999 46.353132699999996,57.99570999999999 42.6802427,60.22357999999999 39.3707027,62.338129999999985 36.2984427,64.41318999999999 33.3533627,66.52776999999999 30.4101227,68.79534999999998 27.2331727,71.46311999999999 23.2459627,75.11688999999998 18.9674227,79.22831 15.990662700000001,82.09178999999999 13.878266700000001,84.13101999999998 12.2541847,85.73940999999999 10.9368117,87.09101999999999 9.8325287,88.27201999999998 8.8882657,89.33021 8.0710207,90.29497999999998 7.358867699999999,91.18577699999999 6.736526700000001,92.01620899999999 6.1929767,92.79620299999999 5.720079699999999,93.533256 5.3117443,94.23318599999999 4.9633935000000005,94.90060899999999 4.67161445,95.53926099999998 4.4339278,96.15221399999999 4.2486336,96.74203299999999 4.114712,97.31088499999998 4.0317665,97.86062099999998 4.0,98.39284599999999 4.0202235,98.90895699999999 4.0938963,99.41018899999999 4.2232036,99.89764689999998 4.4111819,100.37232749999998 4.66187937,100.83514949999999 4.9784331,101.28710449999998 5.3615086000000005,101.729261 5.8124367,102.16248399999999 6.3336077,102.587426 6.9285996999999995,103.00451499999998 7.6023947,103.41392399999998 8.3617027,103.81550299999999 9.2154507,104.20864899999998 10.1755097,104.59207299999998 11.2577537,104.96336199999999 12.4836007,105.31813899999999 13.882041700000002,105.648322 15.491332700000001,105.93834399999999 17.3549427,106.15648399999999 19.5165327,106.24710099999999 22.0518127,106.14783299999999 25.013522700000003,105.80984999999998 28.3631527,105.275196 32.052422699999994,104.71628799999999 36.113982699999994,104.22484099999998 40.5689627,103.79207199999999 45.4204727,103.39467899999998 50.6446327,102.99160899999998 56.183182699999996,102.52056999999999 61.9628027,101.93656299999999 67.9268627,101.259802 74.0248127,100.52656219999999 80.22360270000001,99.77823709999998 86.5120227,99.04605299999999 92.8780327,98.32801699999999 99.30584270000001,97.61559799999999 105.7775227,96.89984999999999 112.2749227,96.17540999999999 118.7839227,95.44562799999999 125.2933227,94.71491199999998 131.7943227,93.98738699999998 138.28092270000002,93.26684599999999 144.7497227,92.55672099999998 151.2001227,91.86008799999999 157.63402270000003,91.17965899999999 164.0548227,90.51696999999999 170.4656227,89.87254999999999 176.8694227,89.24692999999999 183.2687227,88.64070999999998 189.66592269999998,88.05453999999999 196.0629227,87.48911999999999 202.4614227,86.94518999999998 208.8629227,86.42344999999999 215.2685227,85.92364999999998 221.67922270000003,85.44489999999999 228.09592270000002,84.98634999999999 234.5194227,84.54717 240.95022269999998,84.12652999999999 247.38882270000002,83.72361999999998 253.8355227,83.33764 260.2905227,82.96778999999998 266.7538227,82.61327999999999 273.2252227,82.27331999999998 279.7045227,81.94712999999999 286.1913227,81.63392999999999 292.6848227,81.33291999999999 299.18452269999995,81.04332 305.6893227,80.76433999999999 312.1983227,80.49545999999998 318.7103227,80.23676999999999 325.22462269999994,79.98844999999999 331.7403227,79.75067999999999 338.25652269999995,79.52360999999999 344.7727227,79.30741999999998 351.2883227,79.10222999999999 357.80272269999995,78.90820999999998 364.31542269999994,78.72546999999999 370.8263227,78.55416 377.3349227,78.39439999999999 383.84112269999997,78.24631 390.3449227,78.11001999999999 396.84612269999997,77.98562999999999 403.3449227,77.87326999999999 409.8413227,77.77303999999998 416.33572269999996,77.68496999999999 422.8281227,77.60905 429.3189227,77.54527999999999 435.80812269999996,77.49367999999998 442.2962227,77.45423999999998 448.7835227,77.42695999999998 455.27012269999994,77.41185999999999 461.75652269999995,77.40893999999999 468.2430227,77.41823 474.7300227,77.43972999999998 481.2179227,77.47345999999999 487.7071227,77.51945999999998 494.19812269999994,77.57773999999999 500.6913227,77.64833999999999 507.18722269999995,77.73127999999998 513.6864227,77.82637999999999 520.1893227,77.93314999999998 526.6962227,78.05109999999999 533.2075227,78.17973999999998 539.7234227,78.31857999999998 546.2438227,78.46710999999999 552.7689227000001,78.62482999999999 559.2984227000001,78.79123999999999 565.8322227000001,78.96579999999999 572.3698227,79.14801999999999 578.9110227,79.33733999999998 585.4552227,79.53325999999998 592.0016227000001,79.73521 598.5497227,79.94265999999999 605.0985227,80.15504999999999 611.6471227000001,80.37194999999998 618.1946227,80.59333999999998 624.7404227000001,80.81927999999999 631.2838227,81.04983999999999 637.8246227,81.28506999999999 644.3625227,81.52505999999998 650.8977227,81.76987999999999 657.4301227000001,82.01961999999999 663.9603227,82.27436999999999 670.4887227,82.53422999999998 677.0160227,82.79930999999999 683.5432227000001,83.06973999999998 690.0712227,83.34562999999999 696.6013227000001,83.62714 703.1350227,83.91440999999999 709.6737227,84.20760999999999 716.2190227,84.50684999999999 722.7721227000001,84.81222999999999 729.3335227,85.12379999999999 735.9034227000001,85.44161999999999 742.4761227,85.76543999999998 749.0415227000001,86.09477999999999 755.6005227,86.42967999999999 762.1549227,86.77022999999998 768.7070227,87.11656999999998 775.2597227,87.46884999999999 781.8164227,87.82727999999999 788.3807227,88.19210999999999 794.9491227,88.56315 801.5011227,88.93927 808.0304227,89.32001999999999 814.5321227000001,89.70454999999998 821.0027227,90.09163999999998 827.4406227000001,90.48017999999999 833.8459227000001,90.86916499999998 840.2201227,91.25774799999999 846.5662227,91.64517699999999 852.8887227,92.03081199999998 859.1932227000001,92.41411299999999 865.4867227,92.79462399999998 871.7774227000001,93.17196999999999 878.0749227,93.54584299999999 884.3904227,93.91599599999999 890.7369227,94.28223499999999 897.1295227,94.64441299999999 903.5858227,95.002423 910.1225227,95.35647699999998 916.6313227,95.70342699999999 923.0525226999999,96.04418799999999 929.4120227000001,96.38402799999999 935.7509227,96.72887699999998 942.1266227000001,97.08566499999999 948.6148227,97.46291199999999 955.0417227,97.85461299999999 961.1652227,98.24741199999998 966.9370226999999,98.63559499999998 972.3440227,99.01505599999999 977.3963227,99.38344899999998 982.1164227,99.73970249999999 986.5325227000001,100.08357379999998 990.6735227,100.41531519999998 994.5672227,100.73545112999999 998.2392227,101.04463689999999 1001.7121227,101.34357349999999 1004.5784227,101.59506999999999" stroke="black" stroke-width="2.0" /></svg>