<?xml version="1.0" encoding="utf-8" ?>
<svg baseProfile="full" height="120.47035100000001" version="1.1" width="1012.143073" xmlns="http://www.w3.org/2000/svg" xmlns:ev="http://www.w3.org/2001/xml-events" xmlns:xlink="http://www.w3.org/1999/xlink"><defs /><polygon fill="none" points="1004.143073,102.66003 1001.463773,101.992144 998.2210729999999,101.187814 994.7967729999999,100.343155 991.169973,99.453843 987.3170729999999,98.515078 983.212173,97.521651 978.827273,96.468129 974.1337729999999,95.349266 969.105973,94.16077100000001 963.7262729999999,92.9006 957.993773,91.57089 951.944273,90.18225000000001 945.9168729999999,88.81305 940.027273,87.48781 934.198673,86.18736 928.373973,84.89759000000001 922.5095729999999,83.60775000000001 916.572873,82.30962 910.541473,80.99739 904.406973,79.6682 898.2726729999999,78.34342000000001 892.2129729999999,77.03899 886.2093729999999,75.75111 880.2459729999999,74.47651 874.308773,73.21244 868.385973,71.95659 862.467273,70.70702 856.5435729999999,69.46212 850.607173,68.22057000000001 844.651573,66.9813 838.671273,65.74355 832.6619729999999,64.50677999999999 826.6205729999999,63.27075 820.545173,62.03551 814.4353729999999,60.801390000000005 808.2923729999999,59.56904000000001 802.118673,58.33944 795.919773,57.113910000000004 789.724773,55.89802 783.543173,54.693360000000006 777.3709729999999,53.49884 771.2045729999999,52.31346 765.040573,51.13633 758.8760729999999,49.96663000000001 752.708473,48.803650000000005 746.5358729999999,47.64674 740.356273,46.495340000000006 734.168273,45.34897 727.970973,44.20721 721.763573,43.069720000000004 715.5458729999999,41.936220000000006 709.3227729999999,40.80738 703.1065729999999,39.685190000000006 696.897173,38.56958 690.6934729999999,37.46103000000001 684.494473,36.360200000000006 678.2989729999999,35.26771000000001 672.106373,34.18423 665.915573,33.110420000000005 659.725873,32.04697 653.536473,30.99458 647.346873,29.953950000000006 641.1564729999999,28.92581 634.964573,27.910899999999998 628.770973,26.90997 622.575073,25.923770000000005 616.3765729999999,24.953100000000006 610.175173,23.998720000000006 603.970873,23.061450000000008 597.763273,22.142020000000002 591.552473,21.240790000000004 585.338673,20.358030000000014 579.121773,19.493989999999997 572.9019729999999,18.648939999999996 566.679273,17.82314000000001 560.454073,17.016850000000005 554.226373,16.23035 547.996373,15.463899999999995 541.764473,14.717770000000002 535.530773,13.992230000000006 529.295673,13.28755000000001 523.0593729999999,12.604 516.8223729999999,11.94183000000001 510.5848730000001,11.301320000000004 504.34737300000006,10.682720000000003 498.11017300000003,10.086349999999996 491.87397300000003,9.512900000000002 485.63897299999996,8.963190000000012 479.405473,8.438030000000012 473.173873,7.938210000000012 466.94417300000003,7.464519999999993 460.716473,7.0177300000000145 454.49077300000005,6.598609999999994 448.26687300000003,6.2079100000000125 442.04447300000004,5.846400000000017 435.82347300000004,5.514840000000007 429.603273,5.2139800000000065 423.383373,4.944590000000005 417.16337300000004,4.707449999999994 410.942573,4.503340000000009 404.72017300000005,4.33305 398.495273,4.197360000000003 392.26707300000004,4.0965499999999935 386.034873,4.0307300000000055 379.798373,4.0 373.55727300000007,4.004500000000007 367.311773,4.044349999999994 361.061973,4.1196800000000025 354.80867300000006,4.2305900000000065 348.55267299999997,4.377189999999999 342.294873,4.559540000000013 336.03677300000004,4.7776700000000005 329.77997300000004,5.031600000000012 323.526173,5.321250000000006 317.277473,5.646540000000002 311.036273,6.007300000000001 304.804973,6.403289999999998 298.586473,6.834429999999998 292.38407300000006,7.302270000000007 286.20087300000006,7.809160000000006 280.039173,8.357420000000005 273.900673,8.949359999999999 267.78647300000006,9.587279999999993 261.69687300000004,10.273510000000002 255.631973,11.010430000000014 249.590873,11.800460000000001 243.57247299999997,12.646140000000003 237.57497299999997,13.550150000000002 231.59627299999997,14.51531 225.633673,15.54467000000001 219.683773,16.64152 213.743073,17.80946 207.80727299999998,19.052440000000004 201.87147299999998,20.37485000000001 195.92917299999996,21.77718 189.97287299999996,23.25192 183.996973,24.790050000000008 177.998073,26.381690000000006 171.975473,28.01594 165.93067299999998,29.680760000000006 159.868473,31.362950000000012 153.79627299999999,33.04825000000001 147.725773,34.72649000000001 141.677373,36.40948999999999 135.67157299999997,38.11524 129.72707300000002,39.861219999999996 123.860473,41.66414 118.085973,43.53973 112.415873,45.502590000000005 106.859973,47.566140000000004 101.426163,49.741690000000006 96.107073,52.00963 90.863263,54.323130000000006 85.631543,56.647780000000004 80.322943,58.960840000000005 74.810343,61.258190000000006 69.00841299999999,63.61307 63.392103,65.94123 57.697203,68.46454 52.429173,71.0472 48.068013,73.39797 44.335923,75.52715 40.983663,77.50202 37.826583,79.39122 34.693983,81.26961 31.340543000000004,83.25492 27.066493,85.69334 23.510813000000002,87.66664 20.447833000000003,89.39867000000001 16.056542999999998,92.00751 12.86712,94.029634 11.040472999999999,95.268405 9.663161,96.261673 8.557210999999999,97.11133000000001 7.641245,97.864135 6.870953,98.54568400000001 6.219155,99.171954 5.668224,99.753569 5.2063950000000006,100.297833 4.825097,100.810739 4.5189477,101.296352 4.284218,101.758477 4.11898604,102.200706 4.0236893,102.624643 4.0,103.0303626 4.0501775,103.41837910000001 4.1783077,103.79090154000001 4.3888593,104.15036450000001 4.6827301,104.4987187 5.0631673,104.838819 5.535254,105.17255800000001 6.107492,105.502202 6.792953,105.830354 7.611806,106.160306 8.59536,106.496388 9.797249,106.845625 11.3132,107.219407 13.398902999999999,107.651377 17.684283,108.36708200000001 21.923103,108.952832 25.287313,109.357451 30.673013,109.98989900000001 34.794403,110.512029 38.558903,110.990003 42.348333,111.444044 46.406443,111.87138300000001 50.994093,112.24333 56.410953000000006,112.47035100000001 62.633823,112.42127400000001 68.738253,112.113873 74.938663,111.616913 81.110483,111.01915600000001 87.17009300000001,110.388504 93.239973,109.72817500000001 99.393263,109.040655 105.663573,108.332865 111.901673,107.630644 118.097673,106.938981 124.284373,106.257444 130.486473,105.58658700000001 136.722373,104.927918 143.005873,104.2836308 149.26667299999997,103.66442625 155.491873,103.0745673 161.69517299999998,102.513873 167.889973,101.978646 174.086973,101.465158 180.29457299999999,100.970025 186.518973,100.49012 192.764073,100.022514 199.03147299999998,99.564434 205.32007299999998,99.11324400000001 211.627773,98.66715400000001 217.931773,98.227635 224.22587299999998,97.795184 230.51327299999997,97.369641 236.79687299999998,96.95088100000001 243.07927299999997,96.538813 249.362473,96.133376 255.64867299999997,95.734542 261.939173,95.342307 268.23537300000004,94.95669600000001 274.53817300000003,94.577758 280.848173,94.205561 287.163073,93.84036 293.471773,93.48288000000001 299.774273,93.13317 306.071573,92.79126000000001 312.364473,92.45715 318.654273,92.13084 324.941673,91.81233 331.22767300000004,91.50165 337.512973,91.19882 343.798273,90.90387 350.084073,90.61684 356.370773,90.33778000000001 362.658773,90.06674000000001 368.94847300000004,89.80379 375.239773,89.54899 381.532973,89.30241000000001 387.828073,89.06413 394.124773,88.83422 400.42287300000004,88.61277 406.72227300000003,88.39985 413.022373,88.19559000000001 419.322873,88.00011 425.623373,87.81355 431.92377300000004,87.63606 438.223673,87.46775 444.523073,87.30876 450.821873,87.15922 457.11987300000004,87.01925 463.417073,86.88897 469.713773,86.76851 476.009773,86.65798000000001 482.305473,86.55751000000001 488.60087300000004,86.46722 494.896473,86.38724 501.192473,86.31768 507.48917300000005,86.25866 513.787073,86.21008 520.0865729999999,86.17164 526.3877729999999,86.14304 532.6909729999999,86.12400000000001 538.996273,86.11420000000001 545.303573,86.11335 551.6128729999999,86.12117 557.9240729999999,86.13734000000001 564.236873,86.16158 570.550873,86.19357 576.865773,86.23302000000001 583.181073,86.27962 589.496073,86.33305 595.8102729999999,86.393 602.1227729999999,86.45917 608.432873,86.53126 614.739573,86.6095 621.042373,86.69438 627.3406729999999,86.7864 633.634273,86.88605000000001 639.922973,86.99384 646.206973,87.11025000000001 652.4865729999999,87.23579000000001 658.762373,87.37096 665.034873,87.51628 671.3049729999999,87.67227 677.573973,87.83944 683.8428729999999,88.01835 690.113173,88.20955000000001 696.386673,88.41363 702.6650729999999,88.63117 708.9504729999999,88.86269 715.244873,89.10772 721.5499729999999,89.36534 727.866373,89.63458 734.1787729999999,89.91376 740.478773,90.20139 746.7668729999999,90.49640000000001 753.044773,90.79778 759.314173,91.10455 765.5776729999999,91.41576 771.8381729999999,91.73052 778.099373,92.04797 784.365373,92.36728000000001 790.640673,92.68766000000001 796.9307729999999,93.00832 803.240473,93.32846 809.540773,93.64574 815.808573,93.959322 822.040173,94.269773 828.234073,94.57774 834.3906729999999,94.88394 840.511673,95.18915 846.600973,95.494202 852.6632729999999,95.799982 858.704973,96.107437 864.7338729999999,96.417581 870.758873,96.731511 876.790673,97.05042300000001 882.841473,97.375642 888.925573,97.708661 895.059473,98.051184 901.262873,98.405202 907.5462729999999,98.772245 913.766973,99.143657 919.876073,99.51497400000001 925.8915729999999,99.88577500000001 931.844073,100.256608 937.775673,100.62889200000001 943.741373,101.00496700000001 949.814473,101.388358 956.0495729999999,101.78129200000001 962.068373,102.159183 967.718673,102.51260400000001 972.9916729999999,102.8412643 977.902473,103.1463464 982.478173,103.4297281 986.749773,103.69351834 990.748573,103.9397941 994.503673,104.1704757 998.041373,104.3872808 1001.384873,104.5917194 1004.143073,104.76003" stroke="black" stroke-width="2.0" /></svg>