<?xml version="1.0" encoding="utf-8" ?>
<svg baseProfile="full" height="149.75003" version="1.1" width="1012.4076975" xmlns="http://www.w3.org/2000/svg" xmlns:ev="http://www.w3.org/2001/xml-events" xmlns:xlink="http://www.w3.org/1999/xlink"><defs /><polygon fill="none" points="1004.4076975,112.3615 1000.9694975000001,111.26452 996.7977975000001,109.932354 992.3831975,108.52129500000001 987.7033975,107.023943 982.7365975,105.43303700000001 977.4638975,103.74222300000001 971.8732975,101.94730000000001 965.9652975,100.04802000000001 959.7594975000001,98.05035000000001 953.3016975,95.96861000000001 946.6649975,93.82831 939.9344975,91.66638 933.1887975000001,89.51926 926.4880975000001,87.41689000000001 919.8692975,85.38055 913.3471975000001,83.42306 906.9176975,81.55038 900.5616975,79.76339000000002 894.2519975,78.05557000000002 887.9638975,76.41566 881.6759975,74.83407 875.3695974999999,73.30266 869.0277975,71.81443000000002 862.6353975000001,70.36326 856.1784975,68.94366000000001 849.6445975,67.5507 843.0222975,66.17988 836.3020975000001,64.82704000000001 829.4759975000001,63.48836000000001 822.5385975,62.16033 815.4873975,60.839780000000005 808.3238975,59.52391000000001 801.0541975000001,58.210420000000006 793.6892975000001,56.898230000000005 786.2422975000001,55.58811000000001 778.7267975000001,54.28098000000001 771.1567975,52.97758000000001 763.5466975,51.678540000000005 755.9313975,50.387800000000006 748.3275975,49.10607 740.7237975,47.8293 733.1091975,46.553610000000006 725.4896975,45.27784 717.8977975,44.00536000000001 710.3424975,42.735600000000005 702.8298975,41.46762 695.3647975,40.20096000000001 687.9499975000001,38.938670000000016 680.5867975000001,37.68476 673.2748975000001,36.442840000000004 666.0128975,35.21616 658.7978975000001,34.007610000000014 651.6263975,32.8198 644.4934975000001,31.655060000000006 637.3936975000001,30.51553 630.3206975,29.403170000000003 623.2669975,28.319810000000004 616.2246975,27.26719 609.1847975,26.24702000000002 602.1371975000001,25.260990000000007 595.0709975000001,24.31020000000001 587.9756975,23.392030000000005 580.8422975000001,22.502870000000016 573.6629975000001,21.639340000000004 566.4320975,20.798300000000012 559.1449975,19.976780000000005 551.7993975,19.171940000000006 544.3948975000001,18.381050000000016 536.9332975000001,17.601500000000016 529.4191975,16.830780000000004 521.8599975,16.066510000000008 514.2660975,15.306420000000003 506.6507975,14.548460000000006 499.03049749999997,13.790770000000009 491.4237975,13.03419000000001 483.8472975,12.284200000000013 476.3144975,11.546300000000016 468.83529749999997,10.825700000000012 461.4168975,10.1267 454.06299749999994,9.453299999999999 446.7749975,8.809200000000004 439.55189749999994,8.19720000000001 432.3904975,7.620100000000008 425.28599749999995,7.080399999999997 418.23189749999995,6.580299999999994 411.2201975,6.122 404.24189749999994,5.7076000000000136 397.2862975,5.339200000000005 390.3424975,5.0172000000000025 383.4007975,4.740600000000001 376.45329749999996,4.508400000000009 369.4935975,4.3202 362.5172975,4.1754999999999995 355.5212975,4.074100000000001 348.5043975,4.015600000000006 341.46689749999996,4.0 334.4112975,4.027000000000001 327.3415975,4.096299999999999 320.2640975,4.2076000000000136 313.18669750000004,4.360299999999995 306.1193975,4.553399999999996 299.0736975,4.785800000000009 292.0623975,5.057299999999998 285.09729749999997,5.369399999999999 278.1870975,5.723700000000008 271.33759749999996,6.121899999999997 264.5520975,6.5652999999999935 257.8312975,7.055400000000006 251.17409750000002,7.593500000000006 244.5771975,8.181300000000007 238.03619750000001,8.82050000000001 231.54479750000002,9.512900000000002 225.0957975,10.260900000000007 218.6805975,11.067000000000007 212.2891975,11.934399999999997 205.91059750000002,12.86667 199.53219750000002,13.868310000000008 193.1399975,14.943030000000007 186.7235975,16.091480000000004 180.27889750000003,17.313060000000007 173.8088975,18.60579 167.32479750000002,19.965760000000003 160.8456975,21.386800000000008 154.3982975,22.860180000000014 148.0158975,24.374980000000008 141.7341975,25.924600000000012 135.5798975,27.50885000000001 129.5669975,29.129310000000004 123.6994975,30.788970000000006 117.9730975,32.492140000000006 112.3783975,34.24437 106.9017975,36.05250000000001 101.5267975,37.92474 96.2355575,39.86862000000001 91.01794749999999,41.882850000000005 85.87902749999999,43.959320000000005 80.83734749999999,46.084010000000006 75.9215275,48.23745000000001 71.1655575,50.39636 66.60217750000001,52.54290000000001 62.255957499999994,54.66899 58.1411375,56.767860000000006 54.2621975,58.833980000000004 50.6160575,60.86309000000001 47.199457499999994,62.84888000000001 44.007597499999996,64.78504000000001 41.0304575,66.66859 38.2553075,68.49884 35.6683575,70.27657 33.2558375,72.00343000000001 31.0045275,73.68155000000002 28.9020975,75.31333000000001 26.9366975,76.90173000000001 25.092827500000002,78.45538 23.3577675,79.98149000000001 21.724377500000003,81.48119 20.187897500000002,82.95218000000001 18.7439675,84.39085 17.3876975,85.79367 16.113437499999996,87.15807000000001 14.916867499999999,88.48161 13.800488499999998,89.75951 12.764566499999999,90.99001000000001 11.8062735,92.17427 10.921480500000001,93.31481000000001 10.1056985,94.41474000000001 9.354556500000001,95.47725 8.6640135,96.50543 8.0304515,97.50219000000001 7.4506815,98.47017000000001 6.9219355,99.4118 6.4418375,100.32925 6.0083655,101.22451000000001 5.619828500000001,102.09937000000001 5.2748329,102.95548000000001 4.9722611,103.79432100000001 4.7112541,104.61726900000001 4.49119674,105.42559 4.31170927,106.22046300000001 4.1726428,107.002994 4.0740803,107.774225 4.0163425,108.53515200000001 4.0,109.286737 4.0258912,110.029915 4.0951492,110.765613 4.2092378,111.49475980000001 4.37000057,112.21830080000001 4.5794145,112.9372221 4.8376424,113.652552 5.1442125,114.36525800000001 5.4989875,115.076221 5.9021515,115.78625000000001 6.3541975,116.496088 6.8559265,117.206411 7.4084455,117.917833 8.0131755,118.63089400000001 8.6718565,119.346046 9.3865505,120.063629 10.1596455,120.783832 10.9938355,121.506636 11.8920755,122.23172400000001 12.8574855,122.95835000000001 13.8931595,123.68515000000001 15.0018075,124.40987000000001 16.1851775,125.12892000000001 17.4429475,125.83687 18.773697499999997,126.52714 20.1812775,127.19619 21.6711075,127.84155000000001 23.2487275,128.46137 24.9200275,129.05478 26.691697500000004,129.6225 28.5721375,130.16751 30.5730975,130.69585 32.7104875,131.21359 35.0021975,131.72158000000002 37.4692075,132.22028 40.136427499999996,132.71066000000002 43.033177499999994,133.19457 46.193457499999994,133.67527 49.655047499999995,134.15828000000002 53.455727499999995,134.65265 57.6246275,135.172 62.1772675,135.72375 67.10888750000001,136.30515 72.38277749999999,136.91013 77.9341175,137.53064 83.68974750000001,138.15859 89.5848875,138.77855 95.5653075,139.36848 101.5963475,139.90795 107.6692975,140.37911 113.79969750000001,140.77409 120.0079975,141.09666 126.3103975,141.35060000000001 132.7170975,141.53931 139.23149750000002,141.66615000000002 145.8474975,141.73487 152.5479975,141.75003 159.3030975,141.71696 166.0743975,141.63599 172.8278975,141.50324 179.5392975,141.31547 186.19379750000002,141.06995 192.7859975,140.76417 199.3184975,140.39552 205.8012975,139.96093000000002 212.2504975,139.45803 218.6842975,138.88862 225.1191975,138.25495 231.5702975,137.55878 238.05099750000002,136.80156 244.57389750000002,135.98452 251.15019750000002,135.10877 257.79039750000004,134.17542 264.5034975,133.18566 271.2975975,132.14091000000002 278.1787975,131.04296 285.1515975,129.89411 292.2178975,128.69734 299.3766975,127.45652000000001 306.62339749999995,126.17656000000001 313.9497975,124.86246000000001 321.3457975,123.51786000000001 328.8005975,122.14652000000001 336.3029975,120.752499 343.84139749999997,119.34010400000001 351.4040975,117.913803 358.97959749999995,116.47815600000001 366.5566975,115.03774000000001 374.1246975,113.59707200000001 381.6732975,112.16053090000001 389.1933975,110.73230000000001 396.6766975,109.31632800000001 404.1155975,107.91628700000001 411.5035975,106.53589000000001 418.8356975,105.179873 426.1082975,103.852787 433.3195975,102.558632 440.4694975,101.30090000000001 447.5588975,100.08266 454.5899975,98.90655000000001 461.5659975,97.77494 468.49109749999997,96.68991000000001 475.3699975,95.65334000000001 482.2081975,94.66699 489.0120975,93.73253 495.7882975,92.85159000000002 502.54439749999995,92.02583000000001 509.2881974999999,91.25657000000001 516.0274975,90.54243000000001 522.7688975,89.88116000000001 529.5185975,89.27080000000001 536.2818975,88.70965000000001 543.0637975,88.19619 549.8685975000001,87.72910000000002 556.7000975000001,87.30719 563.5612975,86.92940000000002 570.4549975000001,86.59475 577.3831975,86.30235 584.3470975,86.05134000000001 591.3473974999999,85.8409 598.3839975000001,85.67019 605.4559975,85.53838 612.5616975,85.44454 619.6996975,85.38758000000001 626.8684975000001,85.36637 634.0665975000001,85.37966 641.2926975,85.42618000000002 648.5455975000001,85.50456000000001 655.8237975000001,85.61340000000001 663.1263975,85.75124000000001 670.4522975,85.91656 677.8003975,86.10779000000001 685.1698975,86.32333 692.5600975,86.56154000000001 699.9703975,86.82075 707.4000975,87.09927 714.8488975,87.39622 722.3158975,87.71144000000001 729.7997975000001,88.04477 737.2986975,88.396 744.8101975,88.76487 752.3312975000001,89.15109000000001 759.8584975,89.55429000000001 767.3877975,89.97404 774.9144975,90.40984 782.4336975,90.86114 789.9396975000001,91.32729 797.4265975,91.80759 804.8881975,92.30126000000001 812.3176975,92.80842000000001 819.7088975,93.33145 827.0560975,93.87302 834.3546975,94.43571 841.6010975,95.02196 848.7924975000001,95.63416000000001 855.9269975,96.27457000000001 863.0031974999999,96.94536000000001 870.0206975,97.64863000000001 876.9792975,98.38639 883.8797975,99.16061 890.7230975,99.97321000000001 897.5105975,100.82607 904.2441975,101.72107000000001 910.9260975,102.65635400000001 917.5558975,103.61641 924.1266975,104.58230800000001 930.6248975,105.53499500000001 937.0318975,106.455824 943.3258975000001,107.32729400000001 949.4832975,108.13386100000001 955.4817975000001,108.862695 961.3012975,109.50748200000001 966.9271975,110.07171100000001 972.3519975,110.560916 977.5738975,110.98111200000001 982.5953975,111.33841000000001 987.4221975,111.6387505 992.0616975,111.88773660000001 996.5228975,112.0905426 1000.8150975000001,112.2518778 1004.4076975,112.3615" stroke="black" stroke-width="2.0" /></svg>