<?xml version="1.0" encoding="utf-8" ?>
<svg baseProfile="full" height="102.02762999999999" version="1.1" width="1012.02053634" xmlns="http://www.w3.org/2000/svg" xmlns:ev="http://www.w3.org/2001/xml-events" xmlns:xlink="http://www.w3.org/1999/xlink"><defs /><polygon fill="none" points="1004.02053634,78.45085999999999 1000.91343634,77.660902 997.17143634,76.729993 993.24483634,75.77718499999999 989.11803634,74.80222499999999 984.77503634,73.805296 980.19963634,72.78722199999999 975.37693634,71.74974699999999 970.29493634,70.695888 964.94693634,69.63033399999999 959.3346363400001,68.55985999999999 953.47203634,67.49360999999999 947.3888363400001,66.44117 941.1282363400001,65.40643999999999 934.7396363400001,64.39025999999998 928.2726363400001,63.39112999999999 921.7712363400001,62.40510999999999 915.27013634,61.42603 908.79223634,60.44581999999999 902.34803634,59.45481999999999 895.9369363400001,58.446169999999995 889.5529363400001,57.42123999999999 883.19033634,56.382479999999994 876.8437363400001,55.33227999999999 870.50833634,54.273009999999985 864.1797363400001,53.20707999999999 857.85373634,52.13691999999999 851.52653634,51.06496999999999 845.19473634,49.993759999999995 838.8551363400001,48.92585999999999 832.50483634,47.863929999999996 826.1413363400001,46.810729999999985 819.76213634,45.76907999999999 813.3654363400001,44.74192999999999 806.9492363400001,43.73232999999999 800.51233634,42.74334999999999 794.05373634,41.77577999999999 787.57363634,40.82784999999999 781.0720363400001,39.89764999999999 774.54953634,38.98328999999999 768.00693634,38.082879999999996 761.44543634,37.19451999999999 754.86643634,36.31634999999999 748.2717363400001,35.44646999999999 741.6635363400001,34.58300999999999 735.0443363400001,33.72411999999999 728.41703634,32.86793999999999 721.78463634,32.01266999999999 715.15093634,31.156499999999987 708.5195363400001,30.29768999999999 701.89483634,29.43455999999999 695.28073634,28.566889999999994 688.68083634,27.697509999999994 682.09763634,26.829519999999988 675.53313634,25.96587999999999 668.98853634,25.109419999999993 662.46423634,24.26281999999999 655.96023634,23.42862999999999 649.47573634,22.60924999999999 643.00933634,21.806989999999992 636.5592363400001,21.024039999999992 630.12283634,20.26249999999999 623.69723634,19.52440999999999 617.2788363400001,18.811759999999992 610.8637363400001,18.126499999999993 604.44713634,17.470589999999994 598.0240363400001,16.845609999999994 591.58943634,16.250389999999996 585.13903634,15.682559999999995 578.66913634,15.139869999999988 572.17683634,14.620129999999989 565.65963634,14.12124999999999 559.1159363400001,13.64112999999999 552.54483634,13.177719999999994 545.94603634,12.729 539.3202363400001,12.292929999999984 532.66903634,11.867479999999986 525.9947363400001,11.45059999999998 519.30073634,11.04025999999999 512.59133634,10.634419999999992 505.87193633999993,10.231069999999988 499.14863634,9.828329999999994 492.42813634,9.426539999999989 485.71623633999997,9.027699999999996 479.01773634,8.633829999999989 472.33613634,8.246809999999982 465.67423634,7.868470000000002 459.03363634,7.500489999999985 452.41493634,7.144509999999983 445.81793633999996,6.802049999999994 439.24143634,6.474569999999986 432.68363634,6.163470000000004 426.14153634,5.870099999999994 419.61173634,5.595779999999991 413.08983634,5.341829999999987 406.57063634,5.109589999999997 400.04813634,4.9003999999999905 393.51603633999997,4.714649999999992 386.96863634,4.551669999999987 380.40143634,4.410830000000004 373.81133633999997,4.29155999999999 367.19653633999997,4.193329999999989 360.55653634,4.115659999999991 353.89253634,4.058039999999991 347.20713634,4.019939999999991 340.50453633999996,4.000799999999998 333.79073633999997,4.0 327.07343633999994,4.016829999999999 320.36163633999996,4.050499999999985 313.66603634,4.100099999999983 306.99863633999996,4.1646300000000025 300.37213634,4.2430399999999935 293.79973634,4.336169999999996 287.29173634,4.447339999999983 280.85483633999996,4.5797899999999885 274.49183634,4.7365199999999845 268.20283634,4.920339999999982 261.98493633999993,5.133929999999992 255.83333634000002,5.379909999999995 249.74123634,5.660909999999987 243.70043634,5.97963 237.70103634000003,6.338969999999989 231.73183634,6.742129999999989 225.77993634,7.192660000000004 219.83113634,7.694709999999986 213.86893634,8.253119999999996 207.87423634,8.873719999999992 201.82483634,9.563630000000003 195.69453634,10.327789999999993 189.46003634000002,11.162919999999986 183.10953634,12.062639999999988 176.64683634000002,13.017299999999992 170.09573634,14.01281999999999 163.50343634,15.030050000000003 156.93983634000003,16.04542 150.48983634,17.033919999999995 144.23693634,17.99103999999999 138.23023634,18.938029999999998 132.47903634000002,19.896959999999993 126.96753634000001,20.888029999999986 121.66673634000001,21.92989999999999 116.54173634000001,23.040609999999987 111.55453634000001,24.238899999999994 106.66493634,25.545879999999997 101.82905634000001,26.986879999999992 96.99492634,28.570969999999996 92.11563634000001,30.267699999999998 87.17026634000001,32.03141999999999 82.17077634,33.79993999999999 77.16686634,35.49571999999999 72.24397634,37.07635 67.47888634,38.58577999999999 62.90004634,40.08096999999999 58.500966340000005,41.616749999999996 54.25498634,43.24611999999999 50.12360634,45.01657999999999 46.06723634,46.92823999999999 42.061826339999996,48.95868999999999 38.100036339999996,51.08026999999999 34.19036634,53.25693999999999 30.356646339999998,55.44279999999999 26.63505634,57.58730999999999 23.12031634,59.66320999999999 20.06183634,61.56519999999999 17.55401634,63.21833999999999 15.498596339999999,64.64629 13.78912734,65.89571 12.34882534,67.00876 11.116176339999999,68.0196 10.04760834,68.95255999999999 9.11281134,69.824677 8.29027834,70.64814799999999 7.56437134,71.432008 6.9234693400000005,72.183139 6.35879734,72.90692899999999 5.86365834,73.60770299999999 5.43292034,74.289019 5.06267134,74.953864 4.74998514,75.604807 4.49275364,76.244102 4.28958284,76.87377299999999 4.13972354,77.49568 4.04303865,78.11157499999999 4.0,78.7231525 4.011716134,79.3320983 4.07958271,79.94007439999999 4.20276694,80.548317 4.37983514,81.15777999999999 4.60998554,81.76933199999999 4.89300114,82.38377499999999 5.22922434,83.00186099999999 5.61956034,83.624297 6.0654983399999995,84.25174999999999 6.569166340000001,84.88484399999999 7.13341234,85.524149 7.76191734,86.17015099999999 8.45936034,86.82320999999999 9.23163834,87.48347999999999 10.086155340000001,88.15075999999999 11.03221534,88.82425099999999 12.08150334,89.50209999999998 13.248624340000001,90.18054 14.55149634,90.85234 16.01078634,91.50353999999999 17.64710634,92.10829 19.49302634,92.63941 21.602596339999998,93.07557999999999 24.04375634,93.39683 26.89537634,93.59877999999999 30.24403634,93.72604 34.17878634,93.84729999999999 38.717046339999996,93.95581999999999 43.720386340000005,94.02523 48.92540634,94.02762999999999 54.11593634,93.94380999999998 59.23722634,93.76227999999999 64.32973634,93.47640999999999 69.43333634,93.0782 74.57864634,92.55700999999999 79.78802634000002,91.90005 85.07650634000001,91.10486999999999 90.45778634,90.20394999999999 95.94440634000001,89.24068799999999 101.54667634,88.264732 107.27143634000001,87.33101599999999 113.11743634,86.46427399999999 119.07773634,85.65747199999998 125.14413634,84.90087999999999 131.30763634,84.183196 137.55863634,83.49161099999999 143.88733634000002,82.81191199999999 150.28363634000002,82.12861299999999 156.73753634,81.425356 163.24073634,80.694075 169.78643634,79.938024 176.36763634000002,79.1614379 182.97703633999998,78.368777 189.60743634,77.564674 196.25163634,76.75388099999999 202.90243634,75.941212 209.55283634,75.13135299999999 216.19603634,74.328077 222.82623634,73.53465899999999 229.43863634000002,72.75418199999999 236.02953634,71.98952999999999 242.59613634000002,71.24337999999999 249.13693634,70.518216 255.65113634,69.81633799999999 262.13913633999994,69.13987999999999 268.60183634,68.49082999999999 275.04133634,67.87106 281.46013633999996,67.28233999999999 287.86173634,66.72639999999998 294.25023633999996,66.20491999999999 300.63033634,65.71956999999999 307.00753634,65.27197999999999 313.38773634,64.86177999999998 319.77623633999997,64.48666 326.17763633999994,64.14438999999999 332.59603634,63.83279999999999 339.03493633999994,63.54984999999999 345.49693634,63.293519999999994 351.98433633999997,63.06182999999999 358.49853634,62.852819999999994 365.04043634,62.66449999999999 371.61003633999997,62.494879999999995 378.20653634,62.34191999999999 384.82823634,62.20354999999999 391.47263634,62.07764999999999 398.13633634,61.962039999999995 404.81493634,61.854499999999994 411.50323633999994,61.75362999999999 418.19593634,61.66018 424.88873634,61.57518999999999 431.57753634,61.499689999999994 438.25903634,61.434659999999994 444.93063634,61.381069999999994 451.59023634,61.33984999999999 458.23653634,61.31188999999999 464.86873633999994,61.29807999999999 471.48663633999996,61.299279999999996 478.09073634,61.316329999999994 484.68193634,61.35009999999999 491.26193634,61.40141999999999 497.83273633999994,61.47115999999999 504.39683634,61.560219999999994 510.95753633999993,61.66895999999999 517.51783634,61.79611999999999 524.08053634,61.94017999999999 530.64833634,62.099599999999995 537.2232363400001,62.27286999999999 543.80713634,62.45846999999999 550.40163634,62.65486999999999 557.00783634,62.86052999999999 563.62663634,63.07387999999999 570.25863634,63.293339999999986 576.90383634,63.51725999999999 583.56223634,63.74400999999999 590.23313634,63.97188999999999 596.91573634,64.19917999999998 603.60853634,64.42412999999999 610.30993634,64.64526999999998 617.01803634,64.86241999999999 623.73113634,65.07578 630.44803634,65.28555999999999 637.1672363399999,65.49197999999998 643.8880363400001,65.69527 650.60953634,65.89567 657.33133634,66.09342999999998 664.05323634,66.28880999999998 670.77513634,66.48205999999999 677.4973363400001,66.67345999999999 684.22023634,66.86327999999999 690.9446363400001,67.05179999999999 697.67143634,67.23933 704.4019363400001,67.42613999999999 711.1372363400001,67.61255 717.8713363400001,67.7987 724.59843634,67.98472999999998 731.3184363400001,68.17096 738.03143634,68.35767999999999 744.7382363400001,68.54523999999999 751.44013634,68.73397 758.1386363400001,68.92421999999999 764.83623634,69.11635999999999 771.5353363400001,69.31075999999999 778.23923634,69.50784599999999 784.9515363400001,69.70802199999999 791.67643634,69.91174 798.40743634,70.119131 805.11743634,70.32964999999999 811.79953634,70.543449 818.4496363400001,70.760971 825.06543634,70.982722 831.64613634,71.20924 838.19283634,71.44110099999999 844.7079363400001,71.67891999999999 851.19533634,71.923357 857.66023634,72.17512799999999 864.10893634,72.43501499999999 870.54903634,72.70387899999999 876.98973634,72.98267899999999 883.44133634,73.27249799999998 889.91593634,73.57457 896.42743634,73.89032099999999 902.9922363400001,74.22142199999999 909.62893634,74.56964299999999 916.33443634,74.934546 922.98863634,75.30848099999999 929.58483634,75.68964999999999 936.1633363400001,76.079066 942.78023634,76.47897599999999 949.4633363400001,76.89009499999999 955.97723634,77.29665999999999 962.21213634,77.690581 968.12373634,78.068317 973.69593634,78.42815499999999 978.93323634,78.76971269999999 983.85213634,79.09346269999999 988.47533634,79.40036246 992.8276363400001,79.6915952 996.9337363400001,79.96840949999999 1000.8169363400001,80.2320278 1004.02053634,80.45085999999999" stroke="black" stroke-width="2.0" /></svg>