<?xml version="1.0" encoding="utf-8" ?>
<svg baseProfile="full" height="109.34239600000001" version="1.1" width="1012.4738385" xmlns="http://www.w3.org/2000/svg" xmlns:ev="http://www.w3.org/2001/xml-events" xmlns:xlink="http://www.w3.org/1999/xlink"><defs /><polygon fill="none" points="1004.4738385,87.31689 1001.3866385000001,86.72917 997.6428385,86.017263 993.6807385000001,85.26485 989.4760385000001,84.467476 985.0019385,83.620286 980.2302385,82.71818 975.1331385000001,81.75618 969.6863385,80.73006000000001 963.8755385000001,79.63748 957.7048385,78.47963 951.2076385,77.26323 944.4674385000001,76.00438 937.7679385000001,74.75662 931.1378385,73.52557 924.5105385,72.29912 917.8380385,71.06881 911.0894385,69.82943 904.3048385000001,68.58885000000001 897.5918385,67.36697 890.9376385,66.16123 884.3251385000001,64.96825 877.7398385,63.7852 871.1691385,62.60963 864.6025385,61.43947 858.0306385,60.27292 851.4457385000001,59.10847 844.8414385000001,57.94489 838.2125385000002,56.78116 831.5553385000001,55.616519999999994 824.8676385,54.450480000000006 818.1484385000001,53.28279 811.3987385,52.1135 804.6209385000001,50.94295 797.8195385000001,49.771860000000004 790.9996385000001,48.60155 784.1753385000001,47.43496 777.3581385,46.27456 770.5435385000001,45.120090000000005 763.7276385,43.97139 756.9066385000001,42.82833 750.0771385,41.6909 743.2476385000001,40.56099 736.4294385000001,39.440990000000006 729.6246385000001,38.33168 722.8347385000001,37.23377 716.0609385000001,36.14788 709.3041385,35.07457 702.5646385000001,34.01429 695.8425385,32.967690000000005 689.1376385000001,31.935720000000003 682.4494385,30.91934 675.7771385000001,29.919450000000005 669.1199385000001,28.936930000000004 662.4765385000001,27.972579999999994 655.8457385,27.027200000000008 649.2257385000001,26.101529999999997 642.6150385,25.196309999999997 636.0113385000001,24.31224999999999 629.4126385000001,23.450059999999993 622.8165385000001,22.61041999999999 616.2202385,21.794039999999995 609.6211385000001,21.001599999999996 603.0160385,20.23384 596.4016385000001,19.490859999999998 589.7753385000001,18.771410000000003 583.1344385,18.074129999999997 576.4772385000001,17.397720000000007 569.8021385000001,16.740930000000006 563.1081385000001,16.102580000000003 556.3949385000001,15.481499999999997 549.6623385,14.876589999999993 542.9110385,14.286749999999998 536.1422385000001,13.710909999999998 529.3575385,13.148049999999998 522.5594385,12.597120000000004 515.7507385,12.05713 508.9350385000001,11.527070000000009 502.1164385,11.005989999999997 495.29963849999996,10.493890000000007 488.4885385,9.992279999999994 481.6868385,9.502750000000006 474.8973385,9.026809999999998 468.1223385,8.565870000000004 461.3632385,8.121290000000002 454.62123849999995,7.694339999999997 447.8965385,7.2862400000000065 441.18903850000004,6.898130000000009 434.4980385,6.531120000000001 427.8222385,6.186269999999993 421.1597385,5.864629999999991 414.5084385,5.567220000000006 407.86543850000004,5.295079999999999 401.2276385,5.049199999999999 394.5913385,4.829970000000003 387.9535385,4.637029999999996 381.3116385,4.4700500000000005 374.6636385,4.328749999999999 368.0080385,4.212910000000008 361.34393850000004,4.122299999999996 354.6712385,4.056730000000002 347.9899385,4.016030000000001 341.3009385,4.0 334.6058385,4.008440000000007 327.90663850000004,4.041110000000003 321.2059385,4.097740000000002 314.5070385,4.178039999999996 307.8138385,4.281620000000004 301.1307385,4.408079999999998 294.46243849999996,4.5575800000000015 287.8130385,4.730910000000009 281.1856385,4.92886 274.5820385,5.1521999999999935 268.00333850000004,5.401680000000013 261.44943850000004,5.678069999999991 254.9195385,5.982169999999996 248.4119385,6.314819999999997 241.9238385,6.67692000000001 235.4521385,7.0694600000000065 228.99243850000002,7.493539999999996 222.5399385,7.950410000000005 216.0889385,8.441479999999999 209.6326385,8.968340000000012 203.1637385,9.532849999999996 196.6743385,10.138049999999993 190.1631385,10.788969999999992 183.6397385,11.489890000000003 177.1255385,12.243500000000012 170.65333850000002,13.050309999999996 164.2643385,13.90827999999999 158.0049385,14.812719999999999 151.92123850000002,15.756749999999997 146.0519385,16.736940000000004 140.41193850000002,17.757090000000005 134.99143850000002,18.823090000000008 129.7662385,19.942459999999997 124.70483850000001,21.124430000000004 119.77163850000001,22.380440000000007 114.9275385,23.725049999999996 110.1294385,25.177329999999998 105.3270385,26.763490000000004 100.4562385,28.51795 95.43975850000001,30.459599999999995 90.2182685,32.58786 84.7798585,34.87529 79.1998885,37.24516 73.6620585,39.58578 68.3512285,41.85753 63.3374185,44.07463 58.6059385,46.273450000000004 54.1026585,48.50006 49.7622085,50.79495 45.544268499999994,53.15665 41.4447285,55.56265 37.4866385,57.97678 33.710828500000005,60.35215 30.1636985,62.63819 26.880808499999997,64.7984 23.887078499999998,66.84622 21.2366885,68.76454 18.939718499999998,70.53012 16.951198499999997,72.14573 15.2178285,73.62555 13.7086625,74.97967 12.3886515,76.22658 11.2268385,77.38419 10.1985375,78.46747 9.2847135,79.48831 8.4707405,80.45607 7.7452875,81.37819 7.0994874999999995,82.26062 6.526343499999999,83.108219 6.0203035,83.925007 5.5769485,84.714331 5.1927734999999995,85.479026 4.8650233,86.22152200000001 4.5915757,86.943917 4.3708549,87.648048 4.2017711,88.335538 4.0836799,89.007835 4.0163592,89.666247 4.0,90.311967 4.035213,90.946098 4.1230494,91.56967 4.2650391,92.1836658 4.46324907,92.78903201 4.7196181,93.3865905 5.033291,93.976591 5.4029498,94.55896800000001 5.8277255,95.133465 6.3071505,95.699618 6.841124499999999,96.256732 7.4298945,96.803837 8.0740275,97.339642 8.7744035,97.862453 9.5321935,98.370076 10.3488345,98.859674 11.2259845,99.327577 12.1654515,99.76902 13.1690445,100.17777 14.238331500000001,100.545613 15.374188499999999,100.861636 16.5760285,101.111236 17.841308499999997,101.275732 19.174468499999996,101.34239600000001 20.5875785,101.304574 22.096168499999997,101.156726 23.7202985,100.89583400000001 25.486258499999998,100.524275 27.428838499999998,100.055256 29.5943285,99.523019 32.0398385,98.980114 34.820378500000004,98.441847 37.9846785,97.912448 41.5573185,97.394574 45.5125785,96.884486 49.7664185,96.365418 54.2136685,95.802942 58.7945485,95.156075 63.5073485,94.432607 68.3626585,93.6612776 73.37656849999999,92.87643982 78.5731885,92.1190623 83.9869085,91.431112 89.6519385,90.810881 95.5922185,90.233342 101.8121285,89.667022 108.2807385,89.075002 114.9305385,88.445746 121.6843385,87.792512 128.4708385,87.130007 135.2349385,86.471893 141.9428385,85.829582 148.58203849999998,85.211913 155.15913849999998,84.625434 161.6956385,84.073124 168.21553849999998,83.552153 174.73863849999998,83.059432 181.2799385,82.59252000000001 187.8506385,82.14948 194.4577385,81.72879 201.1040385,81.32921 207.7874385,80.94981 214.5022385,80.59028 221.2420385,80.25078 228.00083850000001,79.93136 234.7732385,79.63198 241.5546385,79.35249 248.34063849999998,79.09267 255.1281385,78.85222 261.9142385,78.63079 268.6970385,78.42797 275.4755385,78.24332 282.2490385,78.07635 289.01783850000004,77.92659 295.7830385,77.79353 302.5462385,77.67668 309.3097385,77.57552 316.0765385,77.48932 322.8490385,77.41725 329.62933849999996,77.35848 336.4193385,77.31221 343.2201385,77.27763 350.0328385,77.25396 356.8579385,77.2404 363.6955385,77.23614 370.5452385,77.24037 377.4063385,77.25226 384.27753850000005,77.27097 391.1572385,77.29566 398.0430385,77.32545999999999 404.9324385,77.35947 411.82243850000003,77.39718 418.7098385,77.43919 425.59193849999997,77.48631 432.4666385,77.53938 439.3321385,77.59921 446.1871385,77.66661 453.03063849999995,77.74235 459.8621385,77.82725 466.6816385,77.92206 473.48943849999995,78.02759 480.2863385,78.14461 487.0732385,78.2739 493.8518385,78.41627 500.6237385,78.57251 507.3914385,78.74346 514.1572385,78.92925 520.9235385000001,79.12926 527.6925385000001,79.34282 534.4661385,79.56927 541.2459385000001,79.80796000000001 548.0332385,80.05823000000001 554.8293385000001,80.31942000000001 561.6350385000001,80.59084 568.4509385000001,80.87181 575.2773385,81.16164 582.1144385,81.45959 588.9620385000001,81.76494 595.8196385000001,82.07693 602.6864385,82.39477 609.5615385000001,82.71771 616.4435385,83.045391 623.3313385,83.377685 630.2237385000001,83.714455 637.1196385000001,84.055563 644.0180385000001,84.400876 650.9179385,84.750257 657.8183385000001,85.103572 664.7185385,85.460686 671.6175385,85.82146900000001 678.5148385000001,86.185789 685.4095385,86.553519 692.3012385000001,86.924531 699.1892385,87.298702 706.0732385,87.675909 712.9526385,88.055568 719.8270385000001,88.436161 726.6960385000001,88.81606 733.5587385000001,89.193636 740.4145385,89.567262 747.2624385,89.935318 754.1013385000001,90.296194 760.9301385,90.648289 767.7477385,90.990017 774.5525385000001,91.319811 781.3433385000001,91.636128 788.1184385,91.9374502 794.8764385000001,92.2222935 801.6154385000001,92.4892088 808.3338385000001,92.73694006 815.0299385000001,92.9667761 821.7026385,93.1820586 828.3515385000001,93.3861512 834.9773385,93.5823702 841.5809385,93.7739815 848.1641385,93.964203 854.7296385000001,94.156214 861.2802385,94.353163 867.8197385000001,94.55819 874.3524385,94.774446 880.8831385,95.005114 887.4176385,95.253446 893.9621385,95.5228 900.5236385000001,95.816678 907.1101385,96.138627 913.7285385,96.486127 920.3754385000001,96.847926 927.0325385,97.211095 933.6667385000001,97.561808 940.2320385,97.886105 946.6736385,98.171052 952.9357385000001,98.40604 958.9680385,98.584388 964.7341385,98.70804 970.2168385000001,98.783159 975.4136385,98.816183 980.3328385000001,98.813225 984.9887385000001,98.779788 989.3988385000001,98.720652 993.5814385,98.639888 997.5550385,98.540918 1001.3368385000001,98.42660000000001 1004.4738385,98.31689" stroke="black" stroke-width="2.0" /></svg>