<?xml version="1.0" encoding="utf-8" ?>
<svg baseProfile="full" height="112.05105" version="1.1" width="1012.3035668" xmlns="http://www.w3.org/2000/svg" xmlns:ev="http://www.w3.org/2001/xml-events" xmlns:xlink="http://www.w3.org/1999/xlink"><defs /><polygon fill="none" points="1004.3035668,89.18338 1001.3116667999999,88.345301 997.7112668,87.355777 993.9364668000001,86.340525 989.9719668,85.298667 985.8018668000001,84.22960499999999 981.4092668,83.133202 976.7779668,82.010025 971.8929668000001,80.86168 966.7426667999999,79.69121 961.3217668000001,78.50362 955.6343668000001,77.30635 949.6981668,76.10903 943.5458668,74.91857999999999 937.2197668,73.7392 930.7668668,72.57341 924.2327668,71.42152999999999 917.6575668,70.28144 911.0714667999999,69.14857 904.4929668,68.0161 897.9284668,66.87694 891.3765668,65.73058 884.8349668,64.57846 878.3013668000001,63.422039999999996 871.7740668,62.262789999999995 865.2510668,61.102199999999996 858.7307668000001,59.94176 852.2117668,58.783 845.6924668,57.627469999999995 839.1717668,56.47674 832.6485668,55.332409999999996 826.1219668,54.19612 819.5909668,53.06953 813.0550668,51.95433 806.5136668,50.852239999999995 799.9663668,49.76493 793.4131668,48.69291 786.8540668,47.63597 780.2893667999999,46.593889999999995 773.7191667999999,45.56641 767.1435667999999,44.55332 760.5626668,43.55437 753.9767668000001,42.569340000000004 747.3858667999999,41.597970000000004 740.7901668,40.64005 734.1898668,39.695319999999995 727.5850668,38.763549999999995 720.9758668000001,37.84449 714.3625668,36.93792 707.7452668,36.04358 701.1241668,35.161229999999996 694.4992668,34.29069 687.8707668000001,33.43184 681.2388668,32.58455 674.6035668,31.748709999999996 667.9649668,30.9242 661.3232667999999,30.110889999999998 654.6785668,29.308649999999993 648.0309668,28.517380000000003 641.3806668,27.736940000000004 634.7276668000001,26.967209999999994 628.0722668,26.208070000000006 621.4145668,25.45939 614.7545668,24.721050000000005 608.0926668,23.992920000000012 601.4288667999999,23.274869999999993 594.7632668,22.566779999999994 588.0960668,21.86851999999999 581.4273668,21.17994999999999 574.7572667999999,20.50093000000001 568.0855668,19.831320000000005 561.4123668,19.17098 554.7375668,18.51973000000001 548.0609668,17.877439999999993 541.3823668,17.24394000000001 534.7015668,16.619070000000008 528.0182668,16.00265999999999 521.3321668,15.394540000000006 514.6428668000001,14.794550000000001 507.9498668,14.2025 501.2528668,13.61824 494.55116680000003,13.04200999999999 487.8447668,12.474559999999997 481.1335668,11.916669999999996 474.4184668,11.369200000000006 467.7002668,10.832999999999998 460.9806668,10.308980000000005 454.2614668,9.79804 447.54506680000003,9.30113 440.83426679999997,8.81917 434.1322668,8.353110000000001 427.4426668,7.903869999999998 420.76926679999997,7.472349999999992 414.1163668,7.059429999999992 407.4884668,6.66592 400.8902668,6.292639999999992 394.3265668,5.941069999999996 387.80076679999996,5.613250000000008 381.3149668,5.311059999999998 374.8700668,5.036210000000011 368.4654668,4.790300000000002 362.0994668,4.574809999999999 355.76926679999997,4.391140000000007 349.4713668,4.240709999999993 343.2011668,4.1248899999999935 336.95316679999996,4.045119999999997 330.7210668,4.002939999999995 324.4978668,4.0 318.2754668,4.0381300000000095 312.0447668,4.119409999999988 305.79556679999996,4.246189999999999 299.5161668,4.420940000000002 293.1947668,4.643979999999999 286.8206668,4.91461000000001 280.3857668,5.232219999999998 273.8840668,5.596130000000002 267.3125668,6.005539999999996 260.67146679999996,6.4593300000000085 253.9648668,6.955939999999998 247.2015668,7.493200000000002 240.4323668,8.06496 233.69086679999998,8.665599999999998 226.9551668,9.294249999999991 220.19966680000002,9.950770000000006 213.44436679999998,10.630700000000004 206.77366679999997,11.322559999999996 200.2205668,12.020070000000004 193.81076679999998,12.725099999999998 187.5533668,13.445480000000003 181.4427668,14.189520000000002 175.4622668,14.965879999999999 169.5877668,15.783819999999992 163.7891668,16.6537 158.0305668,17.587630000000004 152.2690668,18.600499999999997 146.45496680000002,19.7055 140.5444668,20.90898 134.5097668,22.214799999999997 128.3449668,23.622289999999992 122.0736668,25.122889999999998 115.7572668,26.696579999999997 109.4944668,28.310699999999997 103.40566679999999,29.923679999999997 97.60222680000001,31.505759999999995 92.1286968,33.06896 86.9546768,34.64153 82.01459679999999,36.25797 77.2273268,37.95906 72.5028468,39.78127 67.7747468,41.743449999999996 63.0188768,43.85063 58.2577168,46.08659 53.5627468,48.4067 49.0423068,50.74364 44.7860968,53.04133 40.8215868,55.27377 37.1373668,57.43609 33.7054768,59.53492 30.4934168,61.582390000000004 27.4676068,63.59554 24.6007568,65.60168 21.946326799999998,67.56857 19.5816168,69.42114000000001 17.5219768,71.11502 15.7316968,72.6484 14.178256800000002,74.03371 12.8277328,75.29266 11.6448348,76.44884 10.6010438,77.52159 9.6745848,78.52583 8.8489408,79.47301 8.1114818,80.372 7.4524398000000005,81.22978 6.8641808,82.05195499999999 6.3406858,82.843076 5.8771888,83.606907 5.4699168,84.346602 5.1158982,85.064845 4.8128286,85.763947 4.5589728,86.445924 4.35309483,87.11255799999999 4.1944113,87.765445 4.0825628,88.406036 4.0176026,89.035664 4.0,89.655581 4.0306602,90.266977 4.1109624,90.8710093 4.24281934,91.4688254 4.4285686,92.0615791 4.6687087,92.6502717 4.9625831,93.235698 5.3100268,93.818529 5.7113768,94.399327 6.1674708,94.978541 6.6796618,95.556506 7.2498468,96.133421 7.8805248,96.709322 8.574858800000001,97.284028 9.3367728,97.85707 10.1710578,98.427558 11.0834978,98.993999 12.0809728,99.55398 13.1715028,100.103669 14.3640668,100.636989 15.6678368,101.144231 17.0900668,101.609796 18.6391068,102.01516 20.337086799999998,102.34984 22.213156799999997,102.60628 24.3022468,102.78229999999999 26.6451968,102.88874 29.289036799999998,102.96296 32.2863268,103.06844 35.6717568,103.223 39.4394668,103.41969 43.5285868,103.63764 47.8394268,103.84273 52.2858868,103.99422 56.8513168,104.05105 61.605596799999994,103.99832 66.64845679999999,103.84428 72.0819068,103.5997 77.9840568,103.28562 84.3320968,102.94158 90.95979679999999,102.58973 97.6775768,102.23557 104.3661668,101.88002 111.0047668,101.519987 117.6195668,101.15403 124.2346668,100.781721 130.86816679999998,100.40288699999999 137.53256679999998,100.017632 144.2346668,99.626384 150.97526679999999,99.229942 157.7484668,98.829521 164.54136680000002,98.426708 171.3305668,98.023631 178.1185668,97.620889 184.9121668,97.21882 191.70276679999998,96.818684 198.4798668,96.421842 205.2424668,96.02906899999999 211.99156680000002,95.640962 218.7290668,95.257914 225.4565668,94.880301 232.1756668,94.508503 238.88756679999997,94.142912 245.5936668,93.783927 252.2949668,93.431956 258.9926668,93.087414 265.6874668,92.750727 272.3801668,92.4223294 279.0713668,92.1026614 285.7616668,91.7921729 292.4514668,91.4913208 299.1409668,91.2005684 305.8303668,90.9203843 312.5197668,90.651057 319.2090668,90.392492 325.8985668,90.14455 332.5880668,89.907088 339.2779668,89.679962 345.9684668,89.463028 352.6597668,89.256144 359.35216679999996,89.059165 366.0460668,88.871948 372.7419668,88.694352 379.44026679999996,88.526235 386.1414668,88.367457 392.8461668,88.217881 399.55506679999996,88.07737 406.2688668,87.945788 412.9881668,87.822824 419.71376680000003,87.707865 426.44616679999996,87.600267 433.1856668,87.499389 439.9324668,87.404588 446.6867668,87.315221 453.4484668,87.230641 460.21726679999995,87.1502 466.9927668,87.073246 473.7745668,86.999124 480.56176680000004,86.927177 487.3536668,86.856744 494.1491668,86.787163 500.9469668,86.717772 507.74596679999996,86.647934 514.5444668,86.577628 521.3412668000001,86.507432 528.1351668,86.437949 534.9250668,86.369776 541.7103668,86.303508 548.4902668,86.239733 555.2642668,86.179035 562.0319668,86.121992 568.7934668,86.069178 575.5484668,86.021162 582.2973668,85.978507 589.0403667999999,85.941774 595.7778668,85.911521 602.5106668,85.888306 609.2394668,85.872624 615.9651668,85.864412 622.6886668,85.863308 629.4108668,85.868953 636.1327668,85.88099 642.8552668000001,85.899069 649.5793668,85.922842 656.3061668,85.951961 663.0365668000001,85.986086 669.7717667999999,86.024875 676.5127667999999,86.067988 683.2605668,86.115089 690.0165668,86.165839 696.7818668,86.219901 703.5575668,86.276939 710.3449668000001,86.336625 717.1450668,86.398701 723.9491668,86.462837 730.7407668,86.528617 737.5199668,86.595775 744.2879667999999,86.66406 751.0466668,86.733232 757.7983668,86.803058 764.5458668,86.873313 771.2927668,86.943781 778.0427668,87.014249 784.8005668,87.084512 791.5710668,87.154368 798.3600668,87.22361599999999 805.1609668000001,87.291925 811.9339668,87.358989 818.6703667999999,87.425758 825.3670668,87.493366 832.0228668000001,87.562926 838.6387668000001,87.635525 845.2171668000001,87.712236 851.7620668,87.794119 858.2788668,87.882237 864.7745668,87.97767 871.2572668,88.08153 877.7366668,88.19498899999999 884.2239668000001,88.319304 890.7320668,88.455851 897.2758668,88.606171 903.8729668,88.772027 910.5430668,88.95488 917.2996668,89.153328 924.0703668,89.362308 930.7888667999999,89.576473 937.5014668,89.794034 944.2680667999999,90.013741 950.9524668,90.227997 957.4000668,90.429148 963.5422668,90.614356 969.3424668,90.7834527 974.7925668,90.9372089 979.9031668,91.0768666 984.6951668,91.2038442 989.1939668,91.3195554 993.4260668000001,91.4253154 997.4171668,91.52230229999999 1001.1906668,91.61154949 1004.3035668,91.68338" stroke="black" stroke-width="2.0" /></svg>