<?xml version="1.0" encoding="utf-8" ?>
<svg baseProfile="full" height="105.395715" version="1.1" width="1012.2675588" xmlns="http://www.w3.org/2000/svg" xmlns:ev="http://www.w3.org/2001/xml-events" xmlns:xlink="http://www.w3.org/1999/xlink"><defs /><polygon fill="none" points="1004.2675588,86.24775 1001.2220587999999,85.649881 997.6167588,84.94121899999999 993.9067588,84.210936 990.0859588,83.457752 986.1479588,82.680298 982.0858588,81.877117 977.8925588,81.046663 973.5603587999999,80.187305 969.0813588,79.297338 964.4475588,78.374996 959.6507588,77.41847999999999 954.6828588,76.42599999999999 949.5360587999999,75.39581 944.2035588,74.3263 938.6795588,73.21611999999999 932.9602588,72.06423 927.0444587999999,70.87015 920.9345588,69.63406 914.6371588,68.35709 908.1645587999999,67.04142999999999 901.5355587999999,65.69066 894.8465588,64.3249 888.2478588,62.97610999999999 881.7165588,61.64095999999999 875.2267588,60.315439999999995 868.7567588,58.99634 862.2879588,57.68111999999999 855.8047588,56.36780999999999 849.2933588,55.05497999999999 842.7426588,53.741719999999994 836.1433588,52.427609999999994 829.4886588,51.11284 822.7751588,49.798359999999995 816.0648588,48.49782999999999 809.4052588,47.221619999999994 802.7893588,45.969379999999994 796.2075587999999,44.73992 789.6506588,43.531319999999994 783.1103587999999,42.341879999999996 776.5796588,41.170159999999996 770.0524588,40.01496 763.5234588,38.87529 756.9883587999999,37.75037 750.4434587999999,36.63957 743.8860587999999,35.54245999999999 737.3140588,34.45874 730.7263588,33.388279999999995 724.1225588,32.331089999999996 717.5033587999999,31.287329999999997 710.8700588,30.257259999999995 704.2250587999999,29.241299999999995 697.5715588,28.240090000000002 690.9130587999999,27.254739999999998 684.2526588,26.286389999999997 677.5929587999999,25.336099999999995 670.9361587999999,24.404829999999997 664.2841587999999,23.493449999999996 657.6380588,22.602729999999994 650.9989588,21.733400000000003 644.3670588,20.886089999999996 637.7425588,20.061359999999993 631.1250587999999,19.259749999999997 624.5135587999999,18.481709999999993 617.9070588,17.727679999999992 611.3037588,16.998059999999995 604.7017588,16.29323000000001 598.0985588,15.613349999999997 591.4919587999999,14.957739999999987 584.8797588,14.325450000000004 578.2603588,13.715620000000001 571.6320588,13.12742999999999 564.9939588,12.560100000000006 558.3452588,12.012879999999996 551.6852587999999,11.485079999999996 545.0140587999999,10.975999999999999 538.3315587999999,10.484980000000007 531.6384588,10.011380000000003 524.9355588,9.554549999999992 518.2240588,9.113879999999995 511.50565880000005,8.688749999999985 504.7820588,8.278539999999992 498.05575880000004,7.882829999999984 491.3288588,7.50215 484.60355880000003,7.1373200000000026 477.8814588,6.789119999999997 471.1640588,6.458269999999999 464.4525588,6.145489999999995 457.74795880000005,5.851460000000003 451.0508588,5.57683999999999 444.3615588,5.322270000000003 437.6802588,5.088359999999994 431.0067588,4.875720000000001 424.3407588,4.684929999999994 417.6815588,4.516589999999994 411.0281588,4.371279999999999 404.37955880000004,4.249589999999998 397.7342588,4.152000000000001 391.0911588,4.078429999999997 384.44885880000004,4.028689999999997 377.80645880000003,4.002599999999987 371.1631588,4.0 364.5182588,4.020739999999989 357.8712588,4.064679999999996 351.2218588,4.131699999999995 344.5697588,4.221649999999997 337.91515880000003,4.334409999999991 331.25815880000005,4.469840000000005 324.5989588,4.62782 317.93835880000006,4.808179999999993 311.2767588,5.010769999999994 304.6152588,5.235420000000005 297.9546588,5.482169999999996 291.2968588,5.752129999999994 284.6441588,6.046629999999993 278.00025880000004,6.366949999999989 271.3696588,6.7142399999999895 264.7576588,7.089479999999995 258.1705588,7.493520000000004 251.6152588,7.927019999999985 245.09875879999998,8.391159999999985 238.6253588,8.888009999999994 232.1952588,9.419869999999989 225.8051588,9.989249999999998 219.4481588,10.599019999999996 213.1144588,11.252520000000004 206.79095879999997,11.953689999999995 200.4613588,12.707159999999988 194.1083588,13.516189999999995 187.7213588,14.38212999999999 181.2986588,15.305269999999993 174.8488588,16.284350000000003 168.3911588,17.31604 161.95545879999997,18.394589999999994 155.58075879999998,19.51168 149.3117588,20.657780000000002 143.18675879999998,21.83063 137.2213588,23.033789999999996 131.41065880000002,24.27335999999999 125.7358588,25.557830000000003 120.1682588,26.898199999999996 114.67095880000001,28.3086 109.19925880000001,29.807539999999996 103.6969088,31.4202 98.09239880000001,33.17279 92.3261388,35.06455 86.4007588,37.06587 80.4152188,39.107389999999995 74.56638880000001,41.09269 69.03553880000001,43.00016 63.8679788,44.867309999999996 59.0212388,46.74326 54.4203988,48.680279999999996 49.983288800000004,50.72435 45.64997880000001,52.87605 41.395858800000006,55.11606 37.225298800000004,57.41382 33.1677488,59.72541 29.2720688,61.995099999999994 25.5936788,64.18462 22.2672788,66.27256 19.4529388,68.16987999999999 17.126258800000002,69.84929 15.1806488,71.33851999999999 13.5409068,72.66672 12.1424978,73.86689 10.9348548,74.96682 9.8816128,75.98722 8.9568108,76.94324 8.1415778,77.84612 7.4219148,78.704393 6.7872448,79.524709 6.2294668,80.31233999999999 5.7423238,81.071557 5.3209738,81.805882 4.9616871,82.51827 4.6616423000000005,83.211237 4.4187796,83.88695899999999 4.23170204,84.547349 4.0996111,85.194113 4.0222714,85.828796 4.0,86.452827 4.0336806,87.067548 4.1248033,87.6742486 4.275534103,88.2741976 4.4877617,88.8685285 4.7604745,89.45782 5.0925278,90.042372 5.4833758,90.622306 5.9330288,91.197552 6.4420348,91.767826 7.0114728,92.332595 7.6429778,92.891019 8.3387608,93.44185999999999 9.1016648,93.983363 9.935204800000001,94.513066 10.8436328,95.02753 11.8319578,95.52191599999999 12.9059118,95.989359 14.0717208,96.419968 15.3354688,96.799269 16.701518800000002,97.10575 18.1730788,97.311202 19.7678788,97.395715 21.5146488,97.34213 23.4522088,97.134294 25.6337888,96.763148 28.133118800000002,96.241508 31.0512288,95.63091399999999 34.4945488,94.97932899999999 38.5210888,94.28856999999999 43.06565880000001,93.563266 47.914408800000004,92.80484299999999 52.844498800000004,91.996177 57.79017880000001,91.095265 62.8352388,90.08228299999999 68.08016880000001,88.96083589999999 73.6075988,87.7420339 79.45951880000001,86.45614499999999 85.5878888,85.152299 91.86374880000001,83.847241 98.16076880000001,82.54014 104.3927588,81.22080199999999 110.5236588,79.879291 116.5504588,78.531915 122.4800588,77.19879 128.3243588,75.89692 134.09935879999998,74.64081 139.8244588,73.44315 145.5220588,72.31549 151.21825879999997,71.26901 156.9432588,70.31478999999999 162.72855879999997,69.45273 168.6015588,68.67099999999999 174.5852588,67.95852 180.69895879999999,67.30494999999999 186.95565879999998,66.70003 193.36075879999999,66.13317 199.9080588,65.59306 206.5765588,65.0677 213.33115879999997,64.55078 220.13555879999998,64.04508 226.9575588,63.55354 233.7720588,63.078359999999996 240.5615588,62.62097 247.3164588,62.18212 254.0349588,61.762 260.72195880000004,61.360519999999994 267.3847588,60.97825999999999 274.0300588,60.61609 280.66325880000005,60.274989999999995 287.2889588,59.956039999999994 293.9108588,59.660419999999995 300.5316588,59.38934999999999 307.1533588,59.14413999999999 313.7771588,58.925239999999995 320.4039588,58.73204 327.0347588,58.56393 333.6701588,58.420289999999994 340.31095880000004,58.300509999999996 346.9575588,58.20399999999999 353.61055880000004,58.130179999999996 360.2702588,58.07845999999999 366.9369588,58.048249999999996 373.6108588,58.03899 380.2918588,58.050079999999994 386.98005880000005,58.080949999999994 393.6751588,58.131 400.3769588,58.19964999999999 407.0850588,58.28627999999999 413.7990588,58.39037 420.5185588,58.511469999999996 427.24305880000003,58.64913 433.9722588,58.80291 440.70585880000004,58.972339999999996 447.44365880000004,59.15697 454.1851588,59.35632 460.9303588,59.56994999999999 467.6789588,59.79736 474.43075880000004,60.0381 481.18565880000006,60.291689999999996 487.9435588,60.55766 494.7043588,60.83552999999999 501.4680588,61.12482 508.23455880000006,61.425039999999996 515.0039588,61.735369999999996 521.7762588,62.05476 528.5516588,62.38213 535.3301588,62.71639999999999 542.1116588,63.05649 548.8962587999999,63.401309999999995 555.6840587999999,63.74977 562.4748587999999,64.10078 569.2687587999999,64.45322999999999 576.0657588,64.80604 582.8657587999999,65.15808 589.6685587999999,65.50825999999999 596.4743588,65.85544999999999 603.2828588,66.19855 610.0940588,66.53666 616.9076588,66.87036 623.7231588,67.20076999999999 630.5402588,67.529 637.3580588,67.85615999999999 644.1759588,68.18336 650.9929588,68.51171 657.8080587999999,68.8423 664.6201587999999,69.17621 671.4278588,69.51452 678.2297587999999,69.85829 685.0245587999999,70.20855999999999 691.8103588,70.56636999999999 698.5856588,70.9327 705.3485587999999,71.30856 712.0972588,71.6942 718.8305588,72.08824 725.5478588,72.48906 732.2493588,72.89513 738.9361587999999,73.30497 745.6098588,73.71718 752.2726587999999,74.1304 758.9276587999999,74.54334 765.5784588,74.95477 772.2293588,75.3635 778.8854587999999,75.76835 785.5524588,76.1682 792.2369588,76.56192999999999 798.9463588,76.94842 805.6890588,77.32652999999999 812.4743588,77.69591 819.3090587999999,78.05780999999999 826.1366588,78.41048599999999 832.9101588,78.752972 839.6324587999999,79.086884 846.3094588,79.413918 852.9493588,79.735821 859.5630587999999,80.05439 866.1633588,80.371488 872.7655588,80.68907399999999 879.3877588,81.009248 886.0514587999999,81.33431 892.7822587999999,81.66685199999999 899.6018588,82.009423 906.3587587999999,82.355744 912.9575588,82.70141199999999 919.3787588,83.044905 925.6092588,83.384926 931.6418587999999,83.720455 937.4737587999999,84.05072799999999 943.1058588,84.375203 948.5421587999999,84.693527 953.7881588,85.005496 958.8509588,85.31102899999999 963.7383587999999,85.61013299999999 968.4587587999999,85.90288699999999 973.0204588,86.18941699999999 977.4317588,86.469882 981.7007588,86.744469 985.8352588,87.013373 989.8426588,87.2768016 993.7300587999999,87.53496109999999 997.5039588,87.78805849999999 1001.1706588,88.03629649999999 1004.2675588,88.24775" stroke="black" stroke-width="2.0" /></svg>