<?xml version="1.0" encoding="utf-8" ?>
<svg baseProfile="full" height="119.21058000000001" version="1.1" width="1012.04956163" xmlns="http://www.w3.org/2000/svg" xmlns:ev="http://www.w3.org/2001/xml-events" xmlns:xlink="http://www.w3.org/1999/xlink"><defs /><polygon fill="none" points="1004.04956163,93.57558 1001.1829616299999,92.85265100000001 997.72036163,91.989159 994.07336163,91.091176 990.22346163,90.155972 986.15036163,89.180774 981.83246163,88.16293300000001 977.24816163,87.100206 972.37726163,85.991212 967.20406163,84.836102 961.72206163,83.637493 955.94006163,82.40157 949.8888616300001,81.13894 943.64296163,79.86596 937.44496163,78.62871 931.30806163,77.42474 925.1815616299999,76.23945 919.02856163,75.06146000000001 912.82356163,73.88182 906.55346163,72.69379 900.26056163,71.50108 894.0190616299999,70.31582 887.81856163,69.13631000000001 881.64726163,67.96065 875.49476163,66.78722 869.35246163,65.61467 863.21266163,64.44184 857.06886163,63.26782 850.9156616299999,62.091860000000004 844.7485616299999,60.91342 838.56416163,59.73218 832.36016163,58.548 826.13526163,57.36095 819.88916163,56.17134 813.6230616299999,54.979710000000004 807.33906163,53.78681 801.04076163,52.59368 794.73276163,51.40194 788.4194616299999,50.21379 782.10506163,49.0314 775.79286163,47.85681 769.4860616299999,46.69194 763.1869616299999,45.538579999999996 756.89726163,44.39839 750.61846163,43.27291 744.35116163,42.163540000000005 738.09566163,41.07157000000001 731.85166163,39.998200000000004 725.61836163,38.94451000000001 719.3943616299999,37.91149 713.17816163,36.90006 706.96746163,35.91107 700.75966163,34.945310000000006 694.5517616299999,34.00261 688.3413616299999,33.08144 682.12616163,32.18026 675.90406163,31.297590000000007 669.67346163,30.431999999999995 663.4329616299999,29.582120000000003 657.18126163,28.74663000000001 650.91756163,27.924250000000015 644.6412616299999,27.113709999999998 638.3518616299999,26.313810000000004 632.04956163,25.523349999999994 625.7344616299999,24.741160000000008 619.4071616299999,23.966099999999997 613.0687616299999,23.197050000000004 606.7201616299999,22.432909999999993 600.3632616299999,21.672630000000012 593.99946163,20.91591000000001 587.63056163,20.163539999999998 581.2580616299999,19.416380000000004 574.88336163,18.675290000000004 568.50786163,17.94109999999999 562.13296163,17.214640000000003 555.75996163,16.496719999999996 549.3899616299999,15.78813000000001 543.02416163,15.089650000000006 536.66356163,14.40203000000001 530.3092616299999,13.726020000000005 523.96206163,13.06232 517.62286163,12.411639999999991 511.29236163,11.774659999999997 504.9712616300001,11.152019999999993 498.66016163000006,10.54441 492.35976163000004,9.953150000000008 486.07046163,9.380030000000005 479.79266163,8.826830000000001 473.52656163,8.295270000000002 467.27226163,7.787060000000011 461.02956163000005,7.303830000000005 454.79836163000004,6.847239999999999 448.57816163,6.418869999999998 442.36856163000004,6.020300000000006 436.16876163,5.653100000000009 429.97826163,5.318820000000002 423.79586163000005,5.0190000000000055 417.62086163,4.755189999999999 411.45186163,4.528930000000003 405.28776163000003,4.34178 399.12706163000007,4.19529 392.96856163000007,4.089889999999997 386.81096163,4.0249900000000025 380.65316163,4.0 374.49416163000006,4.014360000000011 368.33316163,4.067540000000008 362.16946163,4.159019999999998 356.00236163000005,4.288330000000002 349.83136163,4.454970000000003 343.65616163,4.658500000000004 337.47636163000004,4.898439999999994 331.29186163,5.174359999999993 325.10266163,5.485789999999994 318.90876163,5.832269999999994 312.71046163000005,6.213340000000002 306.50806163000004,6.628510000000006 300.30206163,7.0773200000000145 294.09296163000005,7.5599300000000085 287.88206163,8.077600000000004 281.67036163,8.631640000000004 275.45966163,9.223320000000001 269.25156163,9.853859999999997 263.04826163000007,10.524420000000006 256.85186163,11.236090000000004 250.66496163000002,11.989890000000003 244.49016163000002,12.786730000000006 238.33066162999998,13.627440000000007 232.18926163,14.512699999999995 226.06946162999998,15.443100000000001 219.97466163,16.41909000000001 213.90826163,17.440960000000004 207.87406163,18.50887 201.87576163,19.62281999999999 195.91696163,20.782790000000006 190.00016162999998,21.989220000000003 184.12476163,23.24314000000001 178.28776163,24.5462 172.48316162999998,25.900810000000007 166.70286163,27.31022 160.93606163,28.778720000000007 155.16936163,30.311799999999998 149.38636162999998,31.916150000000002 143.56746163,33.59406 137.69616163,35.342470000000006 131.76306163,37.155879999999996 125.76716162999999,39.02561 119.71736163,40.938990000000004 113.63366163,42.87892000000001 107.54826163,44.8239 101.50314163,46.749120000000005 95.54499163,48.638580000000005 89.69538163,50.5015 83.93361163,52.36092 78.20273163,54.25127 72.41041163,56.21833 66.48327163,58.29565 60.47159163,60.47205 54.58431163,62.67325 49.09570163,64.78942 44.136881630000005,66.76038 39.61516163,68.61418 35.36918163,70.41210000000001 31.21492163,72.23417 26.87938163,74.21685 22.071221629999997,76.60254 17.96777163,78.90536 15.25488163,80.58503 13.242189629999999,81.92436000000001 11.67075563,83.04497 10.388858630000001,84.024024 9.31297063,84.905147 8.39420563,85.714241 7.60164563,86.46794200000001 6.91454263,87.17765800000001 6.31839063,87.851614 5.80276963,88.495973 5.36007363,89.115526 4.98473543,89.714102 4.67273973,90.29485 4.42130563,90.860427 4.22869173,91.413137 4.09408159,91.955028 4.01753555,92.487979 4.0,93.0137662 4.043377804,93.53412855 4.14990493,94.0508447 4.31912603,94.5657451 4.55043093,95.080577 4.84421373,95.597031 5.20188163,96.116804 5.62593763,96.641658 6.12014263,97.173496 6.6897926299999995,97.714439 7.34214663,98.26692700000001 8.08710963,98.833868 8.938311630000001,99.41883200000001 9.91488463,100.026347 11.044549629999999,100.662331 12.36918263,101.334692 13.95539563,102.053894 15.91382163,102.831447 18.40985163,103.66123 21.772041629999997,104.51433 26.14719163,105.27079 30.92492163,105.89566 35.80870163,106.52842 40.84436163,107.17171 46.07191163,107.80654 51.51731163,108.40688 57.18346163,108.93734 63.06265163,109.38286000000001 69.14016163,109.7601 75.36438163,110.09287 81.63815163,110.40937 87.83423163,110.71096 93.86606162999999,110.96296000000001 99.71563163,111.13683 105.41366163,111.21058000000001 111.02006163,111.17507 116.59626163,111.04462000000001 122.19106163,110.83353 127.84396163,110.55412 133.58706163,110.21835 139.44466162999998,109.83903000000001 145.43146163,109.43107 151.54866163,109.01243 157.77956163000002,108.60393 164.09006163,108.214 170.44336163,107.83766 176.80696163000002,107.46848 183.15476163,107.09941 189.46876163000002,106.72308 195.73826162999998,106.33197 201.96026163,105.9185 208.13816163,105.47551 214.27976163,105.00213000000001 220.39336163000002,104.50202 226.48626162999997,103.97877 232.56516163,103.43583100000001 238.63586163,102.8766 244.70366163,102.304432 250.77336162999998,101.722688 256.84926163,101.13475700000001 262.93506163,100.54408600000001 269.03406163000005,99.954204 275.14896163000003,99.368736 281.28226163000005,98.791422 287.43566163,98.22613 293.61056163000006,97.676857 299.80756163000007,97.14774 306.02686163000004,96.643019 312.26816163000007,96.16499 318.53026163000004,95.71256 324.81216163000005,95.28427500000001 331.11286163000005,94.878641 337.43096163,94.4941222 343.76526163000005,94.1291452 350.11456163,93.7821003 356.47726163000004,93.4513438 362.85206163000004,93.1351999 369.23746163000004,92.8319642 375.63186163,92.539907 382.03356163,92.257274 388.44096163,91.982296 394.85236163,91.713187 401.26596163000005,91.448149 407.68006163,91.18546500000001 414.09276163000004,90.92485500000001 420.50276163000007,90.667216 426.90886163000005,90.413473 433.30996163000003,90.164534 439.70526163,89.92129200000001 446.09416163000003,89.68462600000001 452.47616163000004,89.455399 458.85126163,89.23446 465.21916163000003,89.022645 471.58026163000005,88.820777 477.93486163000006,88.62967 484.28356163,88.45012700000001 490.62706163,88.282949 496.96626163,88.12893 503.30226163000003,87.988867 509.63646163,87.863396 515.9699616300001,87.752275 522.30416163,87.654981 528.6398616299999,87.570998 534.97796163,87.499825 541.3192616299999,87.440963 547.66446163,87.393922 554.01386163,87.358215 560.36786163,87.333357 566.7267616299999,87.31886300000001 573.09056163,87.314248 579.4591616299999,87.319025 585.83246163,87.332704 592.20996163,87.354791 598.59126163,87.384789 604.97566163,87.422194 611.36256163,87.466453 617.75106163,87.5169 624.14066163,87.572849 630.53096163,87.633613 636.9214616300001,87.698504 643.3119616299999,87.766834 649.7024616299999,87.837916 656.09296163,87.911064 662.48346163,87.98559300000001 668.87426163,88.060822 675.26576163,88.136067 681.6584616299999,88.210648 688.05296163,88.283884 694.44996163,88.355096 700.85036163,88.42360000000001 707.25516163,88.488747 713.6652616299999,88.55059 720.08156163,88.609862 726.5041616299999,88.66732400000001 732.93076163,88.723713 739.35246163,88.77972 745.76896163,88.836105 752.18136163,88.893642 758.59126163,88.953102 765.0004616299999,89.015262 771.41126163,89.080907 777.82626163,89.150829 784.24826163,89.225837 790.67126163,89.30663200000001 797.0800616299999,89.39377 803.4703616300001,89.4879 809.83806163,89.589405 816.1794616299999,89.697456 822.49256163,89.81088100000001 828.77656163,89.928554 835.03216163,90.049402 841.26116163,90.172406 847.46676163,90.29660200000001 853.65316163,90.421074 859.82576163,90.544946 865.99076163,90.667377 872.15586163,90.787549 878.3297616299999,90.904658 884.5225616299999,91.017893 890.7458616299999,91.126428 897.01336163,91.22939600000001 903.3405616299999,91.325862 909.73876163,91.415234 916.09956163,91.498275 922.3795616299999,91.577821 928.60096163,91.65737800000001 934.79856163,91.74046 941.0203616299999,91.830799 947.33096163,91.932699 953.6810616299999,92.048935 959.78416163,92.176249 965.5759616299999,92.311768 971.03486163,92.452608 976.16226163,92.5964782 980.9727616299999,92.74166650000001 985.48866163,92.8869538 989.73466163,93.0315003 993.7353616299999,93.1747464 997.51436163,93.3163323 1001.09316163,93.4560386 1004.04956163,93.57558" stroke="black" stroke-width="2.0" /></svg>