<?xml version="1.0" encoding="utf-8" ?>
<svg baseProfile="full" height="92.66069999999999" version="1.1" width="1012.05096527" xmlns="http://www.w3.org/2000/svg" xmlns:ev="http://www.w3.org/2001/xml-events" xmlns:xlink="http://www.w3.org/1999/xlink"><defs /><polygon fill="none" points="1004.05096527,68.57037 1001.2627652699999,67.508093 997.89496527,66.251136 994.34796527,64.958051 990.60356527,63.627043 986.64196527,62.256592 982.44176527,60.845710999999994 977.98076527,59.394324 973.23736527,57.903819999999996 968.1927652700001,56.37782 962.83456527,54.82315 957.16236527,53.250919999999994 951.19376527,51.67725 944.96966527,50.11897999999999 938.5483652700001,48.58936 932.00156527,47.100179999999995 925.4487652700001,45.66947 918.88756527,44.285799999999995 912.29296527,42.93335 905.72056527,41.61277 899.1947652700001,40.318769999999994 892.70846527,39.046859999999995 886.25266527,37.79602 879.81956527,36.565479999999994 873.40216527,35.35472 866.99426527,34.163419999999995 860.59066527,32.99144 854.18656527,31.83882 847.77786527,30.705779999999997 841.36126527,29.592679999999994 834.9337652700001,28.50004 828.49336527,27.428509999999996 822.03826527,26.378899999999994 815.56756527,25.352129999999995 809.08086527,24.34924 802.57856527,23.3714 796.0616652699999,22.41943 789.5316652700001,21.49331 782.9899652700001,20.592899999999993 776.4379652700001,19.717999999999996 769.87696527,18.8684 763.30836527,18.043839999999996 756.73316527,17.244059999999998 750.1525652700001,16.468749999999993 743.5675652699999,15.717589999999994 736.9792652699999,14.990229999999997 730.38846527,14.286319999999996 723.79596527,13.60546 717.20256527,12.947249999999997 710.60896527,12.311289999999993 704.01566527,11.697139999999997 697.42316527,11.104499999999994 690.83176527,10.533619999999999 684.24176527,9.984879999999997 677.65326527,9.458649999999999 671.06636527,8.955269999999999 664.48116527,8.475099999999998 657.8976652700001,8.018489999999993 651.31556527,7.58578 644.73476527,7.177299999999995 638.15496527,6.793399999999998 631.57596527,6.43441 624.99726527,6.100669999999994 618.41836527,5.792529999999992 611.83876527,5.510319999999993 605.25796527,5.254420000000003 598.67506527,5.025049999999993 592.08956527,4.821600000000004 585.50076527,4.643119999999989 578.9080652700001,4.488630000000001 572.31096527,4.357199999999992 565.70876527,4.247869999999992 559.10116527,4.159710000000004 552.48756527,4.091769999999997 545.86776527,4.043129999999991 539.24116527,4.012860000000003 532.60766527,4.0 525.96686527,4.00363999999999 519.31856527,4.022829999999999 512.6625652700001,4.056619999999995 505.99866527,4.104069999999993 499.32676527,4.164249999999996 492.64686527000003,4.236449999999991 485.95876527,4.32011 479.26276527000005,4.414649999999995 472.55916527,4.5194899999999905 465.84846527,4.6340199999999925 459.13116527,4.757649999999991 452.40826527,4.8897500000000065 445.68066527,5.0297100000000015 438.94966527,5.176889999999993 432.21636527,5.330629999999992 425.48256527,5.490279999999991 418.74966527,5.655169999999991 412.01976527000005,5.82461 405.29476526999997,5.997930000000004 398.57686527,6.174599999999991 391.86816526999996,6.3553599999999975 385.17056527,6.541460000000001 378.48526527,6.734159999999996 371.81306527,6.934719999999999 365.15436527,7.14439999999999 358.50896527,7.364429999999999 351.87636527,7.596069999999997 345.25556527000003,7.840579999999996 338.64516527,8.099240000000002 332.04326527,8.373339999999999 325.44776527,8.664199999999994 318.85596527,8.973169999999996 312.26476527,9.301679999999998 305.67066527,9.651179999999997 299.06976527,10.023139999999998 292.45786527,10.41827 285.83176527,10.836849999999991 279.18926527,11.279139999999998 272.52926527,11.745350000000002 265.85206527,12.235610000000001 259.15886527,12.749940000000002 252.45206527000002,13.28828 245.73596527,13.850349999999999 239.02466527,14.43495 232.31356527000003,15.042389999999997 225.60236527,15.67268 218.91056527,16.32381 212.24636527,16.99469 205.62036527,17.683899999999994 199.04346527,18.389789999999998 192.52546526999998,19.110729999999997 186.06676527000002,19.846089999999997 179.65826527,20.596359999999997 173.28266527000002,21.3632 166.91516527,22.149459999999998 160.52186527,22.95946 154.05836527000002,23.7994 147.46506527,24.67893 140.93106527,25.57723 134.62996527,26.473049999999994 128.45676527,27.38281 122.33426527,28.32018 116.16126527,29.304129999999994 109.79756527,30.362849999999995 103.06786527000001,31.53513999999999 96.96888527,32.64587 91.42692527000001,33.69317 86.32106527,34.68864 81.54355527000001,35.64578 76.99761527000001,36.57904 72.59435527000001,37.50364 68.24369527,38.43702 63.83874527,39.402139999999996 59.22245527,40.4355 54.09322527,41.610569999999996 48.000025269999995,43.07053 44.00353527,44.12554 39.99775527,45.30432 35.66159527,46.74435 29.721035269999998,49.013169999999995 25.292455269999998,50.924209999999995 22.605365269999997,52.17964 20.35549527,53.29427999999999 18.467665269999998,54.280989999999996 16.83818527,55.17652 15.405395270000001,56.003139999999995 14.12912527,56.77567 12.98178627,57.504459999999995 11.94344727,58.19716 11.00050527,58.858703999999996 10.14156127,59.493607 9.357797269999999,60.105416 8.64231827,60.696949 7.98956527,61.27056399999999 7.39510927,61.828179999999996 6.85530627,62.371471 6.36721127,62.90186 5.92848227,63.420528999999995 5.53721427,63.92854 5.19184527,64.426906 4.89119697,64.91653099999999 4.63446357,65.398145 4.42112397,65.87240399999999 4.25086117,66.34007199999999 4.12366212,66.801885 4.0398351,67.258498 4.0,67.71045419999999 4.00506398,68.1582205 4.056229735,68.60228921 4.15450377,69.0432857 4.29949927,69.4819931 4.49084277,69.919176 4.72843427,70.355431 5.01250887,70.79140199999999 5.34366127,71.227773 5.72287027,71.665266 6.1513532699999995,72.104469 6.6307972699999995,72.546088 7.16338927,72.99090799999999 7.751856269999999,73.439762 8.39961627,73.893599 9.11079127,74.35341 9.89066627,74.820442 10.74586727,75.296155 11.68457127,75.782185 12.71733127,76.280576 13.85687727,76.79343 15.12167527,77.324138 16.53703527,77.877088 18.13901527,78.458179 19.983395270000003,79.07629 22.16910527,79.74724 24.90155527,80.50296 27.32559527,81.1026 34.62965527,82.51877999999999 39.550105269999996,83.14014 43.880045270000004,83.48492 48.107575270000005,83.67826 54.51354527,83.82963 59.83119527,83.94135 64.64426527,84.0476 69.25256527,84.15029 73.81727527000001,84.24991 78.45102527000002,84.34603999999999 83.25071527,84.43733 88.31315527000001,84.52115 93.74242527000001,84.59277 99.65007527,84.64395999999999 106.29716527000001,84.66069999999999 112.92246527,84.63164 119.26046527000001,84.56728 125.47996527000001,84.47619999999999 131.69686527000002,84.36438 137.99716526999998,84.2371 144.44466527000003,84.10003 151.12876527,83.95924 157.74316527000002,83.82961999999999 164.26956527,83.7139 170.75836527,83.60887 177.24826527,83.51174 183.76816527,83.42007 190.33896527000002,83.33158999999999 196.97316526999998,83.2441 203.68446527,83.15527 210.42026527000002,83.06392 217.10816527,82.97077 223.76006526999998,82.87593 230.38696527000002,82.77949 236.99816527,82.68155 243.60206527,82.58221 250.20556527,82.48159 256.81486527,82.37980999999999 263.43486527,82.277 270.06956527,82.17331 276.72196527,82.06893 283.39396527,81.96403 290.08656527,81.85883 296.79946527000004,81.75354999999999 303.53356527,81.64842 310.26026527000005,81.54406999999999 316.97566527,81.44057 323.68266527000003,81.33779 330.38426527,81.23563 337.08286527,81.13399 343.78066527000004,81.03278 350.47936527,80.9319 357.18066527,80.83127999999999 363.88576527000004,80.73082 370.59556527,80.63046 377.31086526999997,80.53012 384.03186527,80.42974 390.75856526999996,80.32925 397.49076527,80.22859 404.22826527,80.12771 410.96756527,80.02660999999999 417.70346527,79.92537 424.43706527,79.82401 431.16896527,79.72252 437.89986526999996,79.62093 444.63046527,79.51924 451.36126527,79.41745999999999 458.09266527,79.31562 464.82506527000004,79.21373 471.55856527000003,79.1118 478.29346527,79.00985 485.02966527,78.90791 491.76726527,78.80599 498.50616527,78.70412 505.24526527,78.60234 511.98376527,78.500663 518.7219652699999,78.39907099999999 525.4601652700001,78.297538 532.19856527,78.196039 538.93726527,78.094551 545.67636527,77.99305 552.41596527,77.891515 559.15526527,77.789934 565.89416527,77.688289 572.63276527,77.586555 579.37116527,77.484709 586.10976527,77.382725 592.84866527,77.28057799999999 599.58816527,77.17824399999999 606.32676527,77.075722 613.06396527,76.973034 619.79926527,76.87024699999999 626.53246527,76.76742899999999 633.26346527,76.664647 639.99236527,76.561965 646.7192652699999,76.459447 653.4444652699999,76.357154 660.16836527,76.255143 666.89136527,76.15347299999999 673.61426527,76.052199 680.3375652699999,75.95137299999999 687.0623652700001,75.85105 693.78946527,75.751279 700.52016527,75.65211 707.2555652699999,75.553585 713.99326527,75.455658 720.7245652700001,75.358227 727.44856527,75.261061 734.1651652700001,75.16392499999999 740.87486527,75.066575 747.57836527,74.968764 754.27716527,74.870238 760.97266527,74.770738 767.6671652699999,74.67 774.36316527,74.56774899999999 781.06356527,74.463703 787.77186527,74.357568 794.4917652700001,74.249037 801.22546527,74.13782499999999 807.9465652700001,74.024166 814.64206527,73.908688 821.30906527,73.792329 827.9459652700001,73.675992 834.55296527,73.560531 841.13166527,73.44675099999999 847.68486527,73.335415 854.21706527,73.22724699999999 860.73346527,73.122946 867.24076527,73.023191 873.74686527,72.928656 880.2611652700001,72.840019 886.79436527,72.757984 893.3587652699999,72.683292 899.96896527,72.616751 906.64156527,72.559165 913.35896527,72.507718 920.0114652699999,72.45481699999999 926.60656527,72.391876 933.18176527,72.31027 939.79206527,72.200752 946.4831652700001,72.053108 953.0225652700001,71.864554 959.27376527,71.636387 965.1857652699999,71.37563999999999 970.74006527,71.090802 975.9420652700001,70.788978 980.81096527,70.475741 985.37236527,70.155294 989.6540652699999,69.830727 993.68316527,69.50427719999999 997.4846652699999,69.1775455 1001.0815652699999,68.8516693 1004.05096527,68.57037" stroke="black" stroke-width="2.0" /></svg>