<?xml version="1.0" encoding="utf-8" ?>
<svg baseProfile="full" height="101.963966" version="1.1" width="1013.013301" xmlns="http://www.w3.org/2000/svg" xmlns:ev="http://www.w3.org/2001/xml-events" xmlns:xlink="http://www.w3.org/1999/xlink"><defs /><polygon fill="none" points="1005.013301,87.71891 1002.3021009999999,87.12301 999.020001,86.409487 995.553001,85.665126 991.880101,84.887006 987.977401,84.07198799999999 983.818701,83.21681699999999 979.3757009999999,82.31833999999999 974.619701,81.37391 969.525001,80.38206 964.0745009999999,79.3436 958.268201,78.26307 952.135701,77.1505 945.876501,76.04387 939.749701,74.98612999999999 933.6860009999999,73.96124999999999 927.6245009999999,72.95589 921.5199009999999,71.95998999999999 915.3399009999999,70.96592 909.064901,69.96824 902.7385009999999,68.97126999999999 896.483301,67.99216999999999 890.2897009999999,67.02821 884.141001,66.07576999999999 878.022701,65.13167 871.922601,64.19312 865.829901,63.25761999999999 859.735701,62.32293 853.631901,61.38699 847.512201,60.447959999999995 841.371001,59.504129999999996 835.2041009999999,58.55398999999999 829.008801,57.59615999999999 822.7833009999999,56.62946999999999 816.5275009999999,55.65290999999999 810.242901,54.665729999999996 803.932501,53.667379999999994 797.6009009999999,52.65812 791.253601,51.63972999999999 784.9098009999999,50.616429999999994 778.574801,49.59026999999999 772.244701,48.561809999999994 765.916001,47.53162 759.585801,46.500389999999996 753.2513009999999,45.468869999999995 746.910501,44.43787 740.5623009999999,43.40839999999999 734.2168009999999,42.38327999999999 727.8796009999999,41.36456 721.5505009999999,40.353339999999996 715.228801,39.35067999999999 708.913401,38.35751 702.602901,37.37470999999999 696.2952009999999,36.402559999999994 689.9889009999999,35.44065 683.6823009999999,34.48854999999999 677.374401,33.54587999999999 671.064001,32.612309999999994 664.7504009999999,31.687509999999996 658.4329009999999,30.771229999999996 652.1111009999998,29.86321999999999 645.784901,28.963279999999997 639.4542009999999,28.071219999999997 633.1193010000001,27.186909999999983 626.7807009999999,26.31022999999999 620.4391009999999,25.44108 614.095301,24.579399999999993 607.750401,23.725139999999996 601.405901,22.878339999999994 595.0629009999999,22.039829999999995 588.722901,21.211039999999997 582.386701,20.393429999999995 576.0552009999999,19.58838 569.728901,18.797259999999994 563.408401,18.021389999999997 557.093901,17.262049999999988 550.785401,16.520489999999995 544.482801,15.797939999999983 538.185801,15.095579999999984 531.893901,14.414590000000004 525.606401,13.756089999999986 519.322601,13.121219999999994 513.041301,12.511099999999985 506.761501,11.926819999999992 500.481801,11.36936999999999 494.201001,10.838489999999993 487.91790100000003,10.333219999999997 481.631601,9.852679999999992 475.341201,9.395959999999988 469.04600100000005,8.962199999999996 462.74530100000004,8.55055999999999 456.438601,8.160200000000003 450.12550100000004,7.790309999999991 443.80570100000006,7.440070000000006 437.47900100000004,7.108679999999993 431.14540100000005,6.795339999999996 424.804901,6.4992599999999925 418.457701,6.219639999999984 412.104101,5.95568999999999 405.744501,5.706619999999987 399.379501,5.471799999999988 393.00960100000003,5.251599999999982 386.63540100000006,5.046769999999995 380.25760099999997,4.858019999999996 373.87690100000003,4.68607999999999 367.49440100000004,4.531679999999994 361.11100100000004,4.3955199999999905 354.728001,4.278310000000005 348.34650100000005,4.18074 341.967901,4.103480000000005 335.593701,4.0471900000000005 329.22540100000003,4.01249 322.864801,4.0 316.513401,4.0102799999999945 310.173201,4.043890000000005 303.84610100000003,4.10132999999999 297.533901,4.183569999999989 291.23900100000003,4.292619999999985 284.962801,4.430639999999997 278.70650100000006,4.599710000000002 272.47080100000005,4.801879999999997 266.255601,5.039189999999991 260.06060099999996,5.313640000000007 253.88520100000002,5.627269999999996 247.728101,5.982109999999992 241.587801,6.3802499999999895 235.46220100000002,6.823819999999998 229.34900100000002,7.315039999999982 223.245501,7.856259999999992 217.148501,8.449929999999995 211.05450100000002,9.098699999999994 204.95950100000002,9.805409999999995 198.85900100000003,10.572339999999997 192.74920100000003,11.398740000000004 186.62770100000003,12.282959999999989 180.49460100000002,13.22305999999999 174.35180100000002,14.216710000000006 168.203401,15.261089999999996 162.056001,16.35284 155.918101,17.48792999999999 149.80050100000003,18.662969999999987 143.71640100000002,19.88194999999999 137.67740100000003,21.15169999999999 131.692901,22.478939999999994 125.770101,23.870199999999997 119.914201,25.331859999999992 114.12840100000001,26.87021 108.41430100000001,28.49150999999999 102.772201,30.201849999999993 97.198521,32.000389999999996 91.67379100000001,33.88211999999999 86.157421,35.85085999999999 80.584431,37.92229 74.854681,40.13195999999999 68.981131,42.490429999999996 63.254671,44.89430999999999 57.41725099999999,47.46345999999999 52.023301000000004,49.95366999999999 47.353461,52.210829999999994 43.249921,54.28509999999999 39.511981,56.26186999999999 35.960671,58.231939999999994 32.397761,60.318039999999996 28.441401,62.79916999999999 24.139151,65.82479 20.199741,69.04673 16.250920999999998,72.73474999999999 13.976816,75.05331 12.337767,76.82188 11.040811,78.29069 9.965909,79.56487 9.051172999999999,80.69945 8.260277,81.72708999999999 7.569793,82.66911999999999 6.963718,83.54031499999999 6.430631,84.351382 5.9621987,85.110287 5.5521581,85.82318099999999 5.195794,86.494847 4.8895268,87.12910099999999 4.6306872,87.728979 4.417333,88.296922 4.2481269,88.834919 4.1222674,89.344613 4.039481,89.827275 4.0,90.283806 4.0045470000000005,90.714834 4.0543807,91.12077599999999 4.1513774,91.501769 4.298134,91.85764909999999 4.498134,92.1879256 4.7559949,92.49171659999999 5.07783788,92.76765171 5.4700809,93.0147499 5.937165,93.2337901 6.4850069999999995,93.4254199 7.122167,93.5898184 7.860926,93.726647 8.719093,93.834937 9.723495,93.912893 10.916744000000001,93.95751999999999 12.373135,93.963966 14.241505,93.924448 16.911851,93.829612 21.775820999999997,93.725939 26.802440999999998,93.74782499999999 32.326081,93.81100699999999 36.921921,93.83126899999999 41.423781,93.82888299999999 46.216501,93.811554 51.636161,93.78454599999999 57.919191,93.75854799999999 63.909481,93.74574999999999 69.800681,93.741041 75.876421,93.739905 82.223381,93.737741 88.48466099999999,93.73203199999999 94.731961,93.723906 101.051951,93.71463109999999 107.46900099999999,93.7055714 113.845501,93.6976861 120.176301,93.690789 126.490301,93.6846011 132.809301,93.6788646 139.149201,93.67333239999999 145.51960100000002,93.66775969999999 151.923901,93.6619006 158.34950100000003,93.65552609999999 164.75850100000002,93.64860879999999 171.15720100000001,93.64124439999999 177.553101,93.63353079999999 183.95190100000002,93.6255662 190.357801,93.6174499 196.77330100000003,93.6092838 203.19930100000002,93.60117269999999 209.63180100000002,93.59322069999999 216.05740100000003,93.58546949999999 222.47690100000003,93.5779015 228.89190100000002,93.5704976 235.304001,93.56323909999999 241.714501,93.5561079 248.12470100000002,93.54908599999999 254.535501,93.5421557 260.947901,93.53529959999999 267.362501,93.5285004 273.77990100000005,93.52174099999999 280.200301,93.51500449999999 286.624001,93.508274 293.051101,93.5015329 299.481401,93.4947646 305.914401,93.48795279999999 312.346501,93.4810897 318.776901,93.4741787 325.206001,93.4672238 331.634201,93.46022889999999 338.061901,93.45319819999999 344.489501,93.44613589999999 350.917201,93.43904599999999 357.345301,93.4319328 363.773901,93.4248006 370.203301,93.41765369999999 376.633501,93.4104965 383.064601,93.4033333 389.496501,93.3961688 395.929201,93.3890074 402.362701,93.38185379999999 408.796601,93.37471249999999 415.230301,93.3675856 421.663701,93.36047199999999 428.096901,93.35337009999999 434.530201,93.3462787 440.963501,93.3391963 447.396901,93.33212169999999 453.830601,93.3250535 460.264401,93.3179904 466.698301,93.31093139999999 473.13210100000003,93.3038754 479.565601,93.2968212 485.99910100000005,93.2897675 492.43260100000003,93.2827128 498.866201,93.27565589999999 505.300001,93.26859529999999 511.733801,93.26153029999999 518.167101,93.2544619 524.599701,93.24739059999999 531.031601,93.2403171 537.4629009999999,93.2332419 543.8934009999999,93.2261654 550.3233009999999,93.21908819999999 556.752701,93.2120107 563.181801,93.2049332 569.610601,93.1978561 576.039501,93.1907796 582.468801,93.18370399999999 588.898601,93.1766294 595.3295009999999,93.169556 601.7617009999999,93.1624839 608.195201,93.1554137 614.626901,93.1483485 621.056001,93.1412886 627.482401,93.13423309999999 633.905901,93.1271814 640.326701,93.1201323 646.745001,93.11308489999999 653.161201,93.10603789999999 659.575701,93.0989898 665.9894009999999,93.091939 672.4029009999999,93.0848839 678.817201,93.0778225 685.233401,93.0707528 691.652701,93.06367259999999 698.0765009999999,93.0565795 704.5062009999999,93.049471 710.936601,93.0423526 717.357901,93.03523709999999 723.7693009999999,93.02812859999999 730.170101,93.0210304 736.560601,93.01394529999999 742.941301,93.0068754 749.313401,92.9998224 755.678601,92.99278709999999 762.0388009999999,92.9857701 768.396801,92.97877129999999 774.755501,92.97179009999999 781.1186009999999,92.9648254 787.490201,92.9578756 793.874901,92.95093849999999 800.278101,92.94401149999999 806.7030009999999,92.9370941 813.112501,92.9302249 819.487001,92.92341479999999 825.824201,92.9166554 832.123701,92.90993689999999 838.386901,92.9032476 844.617001,92.8965745 850.818501,92.88990319999999 856.9975009999999,92.883218 863.161401,92.87650149999999 869.3192009999999,92.86973499999999 875.481301,92.86289749999999 881.659701,92.85596579999999 887.868401,92.84891359999999 894.124001,92.84171079999999 900.445701,92.8343225 906.8463009999999,92.82671959999999 913.1905009999999,92.81907079999999 919.4219009999999,92.81148791 925.5561009999999,92.80399646 931.622901,92.79660012999999 937.664901,92.78928529 943.738301,92.78202239999999 949.9187009999999,92.77476401999999 956.2684009999999,92.76748857 962.4047009999999,92.76066225 968.158101,92.75444784999999 973.519101,92.74881943 978.503701,92.74372629999999 983.140901,92.73910948 987.4640009999999,92.73491077999999 991.505901,92.73107707 995.2973010000001,92.72756166699999 998.865801,92.72432442399999 1002.2355009999999,92.721331107 1005.013301,92.71891" stroke="black" stroke-width="2.0" /></svg>