<?xml version="1.0" encoding="utf-8" ?>
<svg baseProfile="full" height="205.76202999999998" version="1.1" width="1012.2594085" xmlns="http://www.w3.org/2000/svg" xmlns:ev="http://www.w3.org/2001/xml-events" xmlns:xlink="http://www.w3.org/1999/xlink"><defs /><polygon fill="none" points="1004.2594085,147.74439999999998 1000.6281084999999,146.664157 996.2638085,145.35199699999998 991.6961084999999,143.96247999999997 986.9105085,142.48881599999999 981.8930085,140.92402099999998 976.6309085,139.26125 971.1152085,137.49430999999998 965.3417084999999,135.61845 959.3150085,133.63136999999998 953.0508084999999,131.53450999999998 946.5781084999999,129.33544999999998 939.9355085,127.05117999999999 933.1647085,124.70297999999998 926.3063085,122.31323999999998 919.3951085,119.90329999999999 912.4562085,117.49174999999998 905.5036085,115.09333999999998 898.5389084999999,112.71830999999999 891.5555085,110.36855999999997 884.5466085,108.04046999999998 877.5065085,105.73052999999999 870.4303084999999,103.43564999999998 863.3140085,101.15302999999999 856.1549085,98.88024999999999 848.9510085,96.61517999999998 841.7018085,94.35603999999998 834.4078085,92.10139999999998 827.0711085,89.85015999999999 819.6951085,87.60164999999998 812.2850085,85.35555 804.8475085,83.11198999999998 797.3910085,80.87152999999998 789.9248084999999,78.63656999999999 782.4575084999999,76.41169999999998 774.9966085,74.20136999999998 767.5489084999999,72.00970999999998 760.1198085,69.84044999999999 752.7140084999999,67.69693999999998 745.3352084999999,65.58213999999998 737.9860084999999,63.49863999999998 730.6681085,61.44866999999998 723.3824084999999,59.43412999999998 716.1288085,57.45661999999999 708.9068085,55.517459999999986 701.7148084999999,53.61773999999998 694.5508084999999,51.75832999999999 687.4125085,49.939509999999984 680.2975084999999,48.16099999999999 673.2032085,46.422599999999974 666.1267085,44.72399999999999 659.0650085,43.06479999999999 652.0147085,41.44469999999998 644.9723084999999,39.863399999999984 637.9338084999999,38.32069999999999 630.8953084999999,36.81619999999998 623.8523084999999,35.34959999999998 616.8001085,33.920799999999986 609.7337084999999,32.52959999999999 602.6476084999999,31.175799999999995 595.5359084999999,29.85939999999998 588.3925085,28.57969999999999 581.2118085,27.334099999999992 573.9890084999998,26.120199999999983 566.7207085,24.935699999999997 559.4046085,23.778299999999987 552.0394085,22.646199999999993 544.6256085,21.537499999999966 537.1649085,20.45059999999998 529.6608084999999,19.383899999999983 522.1184084999999,18.33589999999998 514.5449085,17.30539999999999 506.9492085,16.2911 499.3423085,15.291999999999973 491.7366085,14.307199999999966 484.1455085,13.339899999999972 476.5811085,12.396199999999993 469.0541085,11.48229999999998 461.57360850000003,10.603699999999975 454.14740850000004,9.765699999999981 446.7817085,8.972599999999971 439.4813085,8.228700000000003 432.24960849999997,7.537499999999994 425.08900850000003,6.90209999999999 418.0008085,6.325199999999995 410.9853085,5.809299999999979 404.0419085,5.356400000000008 397.1696085,4.968299999999999 390.3666085,4.646499999999975 383.6312085,4.390599999999978 376.9605085,4.199199999999962 370.3504085,4.0709999999999695 363.7957085,4.004899999999992 357.29000850000006,4.0 350.8259085,4.05559999999997 344.3954085,4.171399999999977 337.9892085,4.347399999999993 331.5973085,4.5841000000000065 325.2085085,4.882199999999983 318.8103085,5.243300000000005 312.3885085,5.669399999999968 305.9271085,6.163399999999967 299.40760850000004,6.72909999999996 292.8079085,7.3714999999999975 286.1021085,8.095699999999994 279.2642085,8.905299999999983 272.2714085,9.804100000000005 265.1064085,10.795599999999979 257.7597085,11.882399999999961 250.2333085,13.064899999999966 242.5463085,14.340199999999982 234.7529085,15.697499999999991 226.9878085,17.109199999999987 219.2107085,18.577099999999973 211.4939085,20.081699999999984 203.9965085,21.584399999999988 196.80200850000003,23.059699999999978 189.9688085,24.49079999999998 183.5196085,25.887799999999984 177.43380850000003,27.270699999999977 171.6684085,28.658999999999992 166.1737085,30.071199999999976 160.8996085,31.525299999999973 155.7981085,33.039799999999985 150.8223085,34.634799999999984 145.9248085,36.33419999999998 141.05340850000002,38.159199999999984 136.1558085,40.11519999999999 131.1910085,42.20339999999999 126.13100850000001,44.41959999999999 120.96540850000001,46.749999999999986 115.70780850000001,49.16612999999998 110.4028085,51.62159999999999 105.12630850000001,54.05328999999999 99.9740585,56.391029999999986 95.04068850000002,58.57700999999999 90.39954850000001,60.620739999999984 86.06359850000001,62.57581999999999 82.00285850000002,64.49649 78.17237850000001,66.43335999999998 74.52383850000001,68.43596999999998 71.00602850000001,70.55323999999999 67.56109849999999,72.81012999999999 64.14455849999999,75.21821999999999 60.7290585,77.78171999999998 57.3048485,80.49191999999998 53.8832285,83.32003999999998 50.4988385,86.21218999999998 47.2073685,89.09566999999998 44.071648499999995,91.91208999999998 41.1280885,94.62919999999998 38.386638500000004,97.23474999999999 35.841308500000004,99.72939999999998 33.4782885,102.12069999999999 31.2810785,104.41922999999998 29.2331885,106.63637999999997 27.3192885,108.78333999999998 25.5248985,110.87088999999999 23.8301385,112.90955999999998 22.2200185,114.90090999999998 20.688298500000002,116.83734999999999 19.2332685,118.70727 17.8543685,120.49966999999998 16.5502385,122.20692999999999 15.3180085,123.82583999999999 14.155538499999999,125.35666999999998 13.069251499999998,126.80107999999998 12.0623715,128.16470999999999 11.1332965,129.45538 10.2783275,130.68117999999998 9.4930775,131.84962 8.7731535,132.96740999999997 8.114473499999999,134.04041999999998 7.5133805,135.07372999999998 6.966675500000001,136.07174999999998 6.4716015,137.03829 6.0258135,137.97669 5.627349499999999,138.88989299999997 5.2745885,139.780485 4.9662315,140.65077799999997 4.7012703,141.50285 4.4789733,142.338585 4.29887129,143.159707 4.16075114,143.96781499999997 4.064654,144.764401 4.0108801,145.55088099999998 4.0,146.328613 4.0328732,147.09892 4.1106756,147.86311059999997 4.23493723,148.6225016 4.4072419,149.3783915 4.6273066,150.13176099999998 4.8943080000000005,150.883379 5.2077588,151.633918 5.5674835,152.38397099999997 5.9735995,153.13404999999997 6.426510500000001,153.88458699999998 6.9268985,154.635934 7.4757235,155.38834899999998 8.074236500000001,156.14198699999997 8.7239775,156.89686999999998 9.4267935,157.65285599999999 10.1848385,158.40959299999997 11.0005805,159.16645 11.876787499999999,159.92242 12.8164875,160.67598999999998 13.8228835,161.42495 14.8991885,162.16611999999998 16.048288499999998,162.89498999999998 17.272228499999997,163.60522999999998 18.571658499999998,164.2885 19.9498485,164.94084999999998 21.413198499999996,165.56347 22.9684885,166.15936999999997 24.6226985,166.73406999999997 26.3829685,167.29656999999997 28.256528499999998,167.86060999999998 30.2507785,168.44637999999998 32.373878500000004,169.07905 34.6361285,169.76879 37.048368499999995,170.51772 39.6205585,171.32640999999998 42.361158499999995,172.19328 45.2764185,173.11388 48.3701385,174.08025999999998 51.6442385,175.08075 55.1005885,176.10004999999998 58.7446785,177.12087 62.5864285,178.13353999999998 66.63674850000001,179.13279 70.9072385,180.11288 75.4112685,181.06777 80.1664185,181.99141999999998 85.19773850000001,182.8793 90.5350585,183.73897 96.20291850000001,184.58758999999998 102.21017850000001,185.44803 108.53430850000001,186.34895 115.1104085,187.30433999999997 121.8509085,188.29367 128.6667085,189.29052 135.4827085,190.26977 142.2485085,191.21047 148.9411085,192.09678 155.5623085,192.91742 162.13480850000002,193.66526 168.6898085,194.34238999999997 175.2533085,194.95360999999997 181.8458085,195.50216999999998 188.4824085,195.99017999999998 195.17270850000003,196.41886 201.9208085,196.78882 208.7241085,197.10029999999998 215.5737085,197.35303 222.45860850000003,197.54608 229.36840850000002,197.67875999999998 236.29400850000002,197.75074999999998 243.2277085,197.76202999999998 250.16310850000002,197.71278999999998 257.09550850000005,197.60341999999997 264.0216085,197.43440999999999 270.93980849999997,197.20624999999998 277.8499085,196.91941999999997 284.7533085,196.5743 291.6529085,196.1711 298.5532085,195.70979999999997 305.4601085,195.19009999999997 312.3813085,194.61153 319.32560850000004,193.97510999999997 326.3019085,193.28267 333.3179085,192.53598999999997 340.3807085,191.73685999999998 347.4961085,190.88714 354.66940850000003,189.98886 361.9043085,189.04426999999998 369.2034085,188.05589999999998 376.5679085,187.02669999999998 383.9970085,185.96004 391.4883085,184.85985999999997 399.0368085,183.73065 406.6353085,182.57754999999997 414.2743085,181.40585 421.9431085,180.21929999999998 429.6322085,179.02121 437.33290850000003,177.81481 445.03800850000005,176.60314 452.7416085,175.38906999999998 460.4392085,174.17526999999998 468.1280085,172.96411999999998 475.8063085,171.75780999999998 483.4741085,170.55826 491.13270850000004,169.36714999999998 498.7847085,168.18597 506.4343085,167.01594999999998 514.0865085,165.85771999999997 521.7461084999999,164.71056 529.4167085,163.57375 537.1007084999999,162.44673999999998 544.7990085,161.32921 552.5116085,160.22100999999998 560.2368084999999,159.12214999999998 567.9720084999999,158.032851 575.7129084999999,156.953487 583.4540085,155.884596 591.1884085,154.826865 598.9081085,153.78111199999998 606.6038084999999,152.748281 614.2659084999999,151.73056499999998 621.8860085,150.732126 629.4580085,149.756903 636.9782084999999,148.80837663999998 644.4446085,147.88960419999998 651.8572085,147.00325999999998 659.2176085,146.151692 666.5286084999999,145.336977 673.7948084999999,144.56097699999998 681.0214084999999,143.825405 688.2153084999999,143.13187499999998 695.3839085,142.48196599999997 702.5360085,141.877275 709.6813085,141.31912699999998 716.8294085,140.806582 723.9882084999999,140.337979 731.1645084999999,139.911939 738.3635085,139.52730699999998 745.5889084999999,139.18310799999998 752.8430085,138.878495 760.1266084999999,138.61271 767.4387085,138.38502999999997 774.7765084999999,138.19474 782.1357085,138.04109999999997 789.5096085,137.92325999999997 796.8901085,137.84027999999998 804.2670085,137.79106 811.6286084999999,137.77481999999998 818.9644085,137.79211999999998 826.2666085,137.84359999999998 833.5302085,137.92977 840.7529085,138.05106999999998 847.9349085,138.20794999999998 855.0788084999999,138.40088999999998 862.1891085,138.63046999999997 869.2725085,138.89743099999998 876.3376085,139.202735 883.3948085,139.547623 890.4568085,139.93369299999998 897.5383085,140.36299 904.6568085,140.838123 911.8319084999999,141.360638 919.0742084999999,141.92714299999997 926.3754085,142.53174499999997 933.7048084999999,143.166125 941.0095084999999,143.819302 948.2177085,144.478087 955.2482084999999,145.12835399999997 962.0244084999999,145.75831399999998 968.4919085,146.36204099999998 974.6239084999999,146.93667499999998 980.4155084999999,147.48139899999998 985.8764084999999,147.9967922 991.0249084999999,148.4842723 995.8832085,148.945686 1000.4750085,149.3830361 1004.2594085,149.74439999999998" stroke="black" stroke-width="2.0" /></svg>