<?xml version="1.0" encoding="utf-8" ?>
<svg baseProfile="full" height="113.87975" version="1.1" width="1012.2165161" xmlns="http://www.w3.org/2000/svg" xmlns:ev="http://www.w3.org/2001/xml-events" xmlns:xlink="http://www.w3.org/1999/xlink"><defs /><polygon fill="none" points="1004.2165161,89.28823 1000.9182161000001,88.86365599999999 996.9433161000001,88.33684699999999 992.7693161000001,87.765802 988.3793161000001,87.145442 983.7563161,86.470184 978.8838161000001,85.734042 973.7479161000001,84.93086 968.3393161,84.054738 962.6571161,83.100712 956.7127161000001,82.065737 950.5344161,80.95015 944.1666161,79.76295 937.6619161,78.5208 931.0737161000001,77.24288 924.4489161,75.94865 917.8235161,74.65599 911.2193161,73.38009 904.6434161000001,72.133 898.0902161,70.92228 891.5482161,69.74555000000001 885.0075161,68.59781 878.4591161,67.47453 871.8956161000001,66.37147 865.3106161000001,65.2847 858.6987161,64.21049 852.0559161000001,63.14529 845.3792161000001,62.08569 838.6670161000001,61.02844 831.9190161,59.97038 825.1363161,58.908519999999996 818.3219161000001,57.839999999999996 811.4801161,56.762139999999995 804.6173161,55.67247999999999 797.7413161000001,54.5695 790.8600161,53.455909999999996 783.9805161,52.335809999999995 777.1084161,51.213179999999994 770.2488161,50.0918 763.4052161000001,48.97524 756.5804161,47.866859999999996 749.7758161,46.769800000000004 742.9920161000001,45.686949999999996 736.2287161,44.621 729.4845161000001,43.57445 722.7571161,42.5496 716.0435161,41.54862 709.3397161,40.57353 702.6411161,39.62628 695.9423161,38.707390000000004 689.2387161,37.81382 682.5264161,36.94213 675.8019161000001,36.08899 669.0628161000001,35.25118 662.3070161,34.425560000000004 655.5334161000001,33.60905 648.7413161000001,32.79862 641.9310161,31.991279999999996 635.1035161,31.1841 628.2604161,30.374199999999995 621.4044161,29.558729999999997 614.5388161000001,28.73492999999999 607.6679161,27.90012 600.7968161,27.0518 593.9308161,26.190160000000006 587.0743161,25.318949999999987 580.2309161000001,24.442030000000003 573.4035161,23.563180000000003 566.5938161,22.685999999999993 559.8030161,21.813940000000002 553.0314161,20.95031 546.2785161,20.098240000000004 539.5432161000001,19.26074 532.8237161000001,18.44068 526.1173161,17.6408 519.4209161,16.863770000000002 512.7307161,16.11218000000001 506.0421161,15.388580000000005 499.3501161,14.69534999999999 492.64931609999996,14.032599999999988 485.9355161,13.398679999999999 479.20481609999996,12.792020000000008 472.45411609999996,12.211169999999996 465.6811161,11.654780000000002 458.8842161,11.121539999999996 452.0626161,10.61023999999999 445.2164161,10.119679999999988 438.3464161,9.648710000000008 431.45431609999997,9.196200000000005 424.54291609999996,8.761019999999988 417.6158161,8.342069999999993 410.67781610000003,7.938239999999993 403.7344161,7.548420000000007 396.7922161,7.171890000000005 389.8575161,6.809769999999986 382.93561609999995,6.4636799999999965 376.0308161,6.135139999999993 369.1460161,5.8255300000000005 362.2834161,5.536159999999995 355.4440161,5.268230000000003 348.62771609999993,5.022880000000001 341.8335161,4.801189999999991 335.0598161,4.604200000000006 328.3037161,4.432919999999996 321.5618161,4.288390000000007 314.8297161,4.171640000000011 308.10231609999994,4.083790000000008 301.37371609999997,4.025999999999996 294.63741609999994,4.0 287.8886161,4.008449999999996 281.1248161,4.054249999999996 274.3461161,4.1403099999999995 267.5547161,4.2695599999999985 260.75571610000003,4.444850000000002 253.9568161,4.6688000000000045 247.1681161,4.943729999999988 240.4021161,5.2715299999999985 233.6733161,5.65352 226.9981161,6.090360000000004 220.39351610000003,6.581959999999995 213.8772161,7.127459999999999 207.46641610000003,7.725239999999999 201.17731609999998,8.372959999999992 195.02331610000002,9.06904999999999 189.0079161,9.814260000000004 183.12261610000002,10.610619999999997 177.34951610000002,11.461479999999995 171.6642161,12.371839999999992 166.0367161,13.348739999999992 160.4306161,14.401960000000003 154.80151610000001,15.545179999999988 149.09271610000002,16.79637000000001 143.23841610000002,18.164810000000003 137.1888161,19.648799999999994 130.93091610000002,21.234880000000004 124.51161610000001,22.889350000000007 118.05771610000001,24.553129999999996 111.7614161,26.150019999999998 105.8174161,27.61072 100.3541761,28.8983 95.40631610000001,30.055840000000003 90.9098761,31.162599999999998 86.76742610000001,32.27906 82.8871661,33.45327 79.1876161,34.73041 75.5901161,36.156299999999995 72.0084661,37.74629 68.37214610000001,39.498439999999995 64.63423610000001,41.39995 60.781196099999995,43.41392999999999 56.8513061,45.466269999999994 52.9429661,47.44834 49.1945261,49.27364 45.7090661,50.9456 42.504936099999995,52.49971 39.5588561,53.97453 36.835846100000005,55.40432 34.3011461,56.81858 31.923766099999998,58.24389 29.6766361,59.706269999999996 27.5343661,61.23363 25.4604861,62.84822 23.432306099999998,64.54903 21.4581461,66.30492 19.5677661,68.05973 17.7933161,69.7533 16.1527561,71.3436 14.656526099999999,72.81246999999999 13.3131101,74.16216 12.1130691,75.40697 11.0409211,76.56298 10.0812271,77.64468 9.2207581,78.66394 8.4486281,79.63025999999999 7.7559271,80.55138 7.135421099999999,81.43363 6.5812431,82.282184 6.0886461,83.101379 5.6537911,83.89486099999999 5.2735971,84.665744 4.9456229,85.416722 4.6679741,86.15015199999999 4.4392411,86.86812499999999 4.2584504,87.57252199999999 4.12503447,88.265055 4.0388151,88.947314 4.0,89.62079 4.0091931,90.286915 4.0674184,90.9470846 4.17616139,91.6026901 4.3371714,92.255096 4.5502458,92.905164 4.8142733,93.553376 5.1285778,94.200096 5.4928951,94.845575 5.9073511,95.489951 6.3724491,96.133236 6.8890681,96.775296 7.4584771,97.415826 8.0823491,98.054306 8.7627871,98.689942 9.5023591,99.32158 10.3041291,99.947585 11.1716881,100.565668 12.1091661,101.172629 13.1211951,101.76399 14.2127651,102.33344 15.3888761,102.87203 16.6537361,103.36698 18.0107261,103.80195 19.470606099999998,104.16806 21.0499661,104.46133999999999 22.7692461,104.68008999999999 24.6530161,104.82721 26.7304761,104.91454 29.035806100000002,104.97026 31.6064361,105.04146 34.4758961,105.14638 37.6643561,105.28366 41.1664661,105.44519 44.9441861,105.61379 48.937446099999995,105.76363 53.095156100000004,105.86321 57.4137561,105.87975 61.947386099999996,105.80515 66.76863610000001,105.64842 71.95367610000001,105.4231 77.56479610000001,105.15362999999999 83.60277610000001,104.88081 89.96938610000001,104.62279 96.5283761,104.37218 103.16803610000001,104.11613 109.83781610000001,103.84017 116.5344161,103.54315 123.26031610000001,103.23032 130.0174161,102.90709 136.8064161,102.57909 143.6267161,102.25216999999999 150.4769161,101.93238 157.3542161,101.625875 164.2547161,101.33582799999999 171.1743161,101.061724 178.1095161,100.802764 185.05761610000002,100.558087 192.0162161,100.326776 198.9837161,100.107865 205.9592161,99.900353 212.9425161,99.70316199999999 219.93331609999998,99.515111 226.9314161,99.334999 233.9366161,99.161622 240.9483161,98.99377 247.96601610000002,98.830228 254.98901610000001,98.669774 262.0164161,98.511185 269.04731609999993,98.353233 276.08051609999995,98.19469099999999 283.11491609999996,98.03433 290.1492161,97.870926 297.18181609999993,97.703258 304.2113161,97.53011599999999 311.2360161,97.350761 318.2543161,97.166371 325.26501609999997,96.978606 332.2672160999999,96.789111 339.26031609999995,96.59951099999999 346.24381609999995,96.411411 353.2178161,96.22639699999999 360.18241609999995,96.046032 367.1381161,95.871863 374.0858161,95.705418 381.02641609999995,95.548211 387.9613161,95.401747 394.8919161,95.267528 401.8201161,95.147052 408.7480161,95.04169399999999 415.6777161,94.951163 422.6112161,94.874049 429.5503161,94.808937 436.49651609999995,94.754417 443.45121609999995,94.709081 450.4154161,94.671521 457.3901161,94.640321 464.37581609999995,94.614059 471.3729161,94.59129899999999 478.3817161,94.570595 485.40201609999997,94.550485 492.4334161,94.529495 499.4755161,94.50613799999999 506.52731609999995,94.478925 513.5877161000001,94.447109 520.6556161000001,94.411131 527.7299161000001,94.37154699999999 534.8095161,94.328915 541.8932161,94.2838 548.9800161,94.236769 556.0689161,94.188393 563.1588161000001,94.139242 570.2487161,94.08989 577.3376161000001,94.040908 584.4246161000001,93.992868 591.5087161000001,93.94633999999999 598.5890161,93.901892 605.6648161,93.860087 612.7351161,93.821479 619.7992161000001,93.786602 626.8566161000001,93.755982 633.9069161,93.730139 640.9498161,93.709591 647.9853161000001,93.694849 655.0134161000001,93.686422 662.0344161,93.684816 669.0486161000001,93.690534 676.0566161,93.70408 683.0591161,93.725955 690.0569161000001,93.756664 697.0510161000001,93.79671499999999 704.0425161,93.84662 711.0326160999999,93.906578 718.0226161,93.975388 725.0134161,94.051474 732.0056161,94.133256 738.9996161,94.219152 745.9954161,94.307573 752.9928161,94.396925 759.9912161000001,94.485608 766.9898161,94.572017 773.9875161,94.654544 780.9829161,94.731581 787.9742161,94.801528 794.9595161,94.862791 801.9364161000001,94.913796 808.9025161000001,94.953134 815.8554161000001,94.981078 822.7934161000001,94.998975 829.7162161,95.008186 836.6241161,95.010054 843.5185161,95.005903 850.4020161000001,94.997036 857.2775161,94.984735 864.1495161,94.970266 871.0228161000001,94.954882 877.9037161,94.939832 884.7991161,94.926377 891.7172161000001,94.915794 898.6674161000001,94.909403 905.6607161000001,94.908574 912.7077161000001,94.913487 919.8045161,94.921451 926.8957161000001,94.929211 933.9931161,94.933547 941.0437161,94.93126 947.9492161000001,94.919591 954.6339161,94.896576 961.0331161,94.86169 967.1062161,94.81662299999999 972.8390161000001,94.763397 978.2360161,94.703806 983.3134161,94.639347 988.0932161000001,94.571226 992.5997161,94.500395 996.8569161,94.42759 1000.8877161,94.353381 1004.2165161,94.28823" stroke="black" stroke-width="2.0" /></svg>