<?xml version="1.0" encoding="utf-8" ?>
<svg baseProfile="full" height="106.024636" version="1.1" width="1012.1869964" xmlns="http://www.w3.org/2000/svg" xmlns:ev="http://www.w3.org/2001/xml-events" xmlns:xlink="http://www.w3.org/1999/xlink"><defs /><polygon fill="none" points="1004.1869964,86.74547000000001 1001.2440964,86.165023 997.6802964,85.458943 993.9150964,84.709191 989.9264964,83.91075500000001 985.6906964,83.058076 981.1823963999999,82.145162 976.3764964000001,81.16586000000001 971.2506963999999,80.114418 965.7905964,78.98649 959.9965964,77.78065000000001 953.8932964,76.5005 947.5415964,75.15822 941.1922964,73.81011000000001 934.9210964,72.47680000000001 928.6591963999999,71.14814000000001 922.3547963999999,69.81759000000001 915.9706964,68.48207000000001 909.5704964,67.15975 903.2627964,65.87731000000001 897.0317964,64.63372000000001 890.8563964,63.42352000000001 884.7185964,62.24159 878.6030964,61.083580000000005 872.4966963999999,59.94579 866.3881964,58.82502000000001 860.2675964,57.71847 854.1264964,56.62370000000001 847.9580964,55.53857000000001 841.7563964,54.46121000000001 835.5170964,53.390010000000004 829.2374964,52.32361000000001 822.9163964,51.26093000000001 816.5541963999999,50.20112 810.1534964,49.143620000000006 803.7189964,48.088190000000004 797.2572964,47.03516000000001 790.7758964000001,45.986140000000006 784.2812964,44.942870000000006 777.7812964,43.907230000000006 771.2800963999999,42.88049 764.7797964,41.863600000000005 758.2859963999999,40.85802 751.8013964,39.86475000000001 745.3279964000001,38.88461 738.8669964,37.91832000000001 732.4185964,36.96642 725.9822964,36.02935 719.5567963999999,35.10743000000001 713.1400964,34.20089000000001 706.7294963999999,33.30984 700.3214964,32.43430000000001 693.9121964000001,31.573480000000004 687.4981964,30.726000000000006 681.0766964000001,29.890560000000008 674.6451964,29.06593000000001 668.2019964,28.250970000000002 661.7456964,27.444620000000008 655.2756964,26.645880000000005 648.7918964,25.853800000000007 642.2944964000001,25.067499999999995 635.7846964,24.28617 629.2641964,23.50904 622.7350964000001,22.735420000000005 616.2004964,21.96466000000001 609.6637964,21.196200000000005 603.1293964,20.429530000000014 596.6016963999999,19.664900000000003 590.0849964,18.90467000000001 583.5828964,18.15146 577.0980964,17.407770000000014 570.6323964,16.67595 564.1871964,15.95823 557.7627964,15.25670000000001 551.3592964,14.573329999999999 544.9755964,13.909999999999997 538.6104964000001,13.268460000000005 532.2618964000001,12.650410000000008 525.9271964,12.057490000000001 519.6032964000001,11.491270000000014 513.2865964,10.953339999999997 506.97279639999994,10.445250000000016 500.6570964,9.968540000000004 494.33449640000003,9.522960000000012 488.0005964,9.106499999999997 481.6515964,8.717160000000007 475.2842964,8.353020000000015 468.8962964,8.012230000000002 462.4858964,7.692980000000006 456.05189640000003,7.393470000000008 449.5940964,7.111900000000006 443.1131964,6.846500000000006 436.6103964,6.595460000000003 430.08799639999995,6.356960000000001 423.5492964,6.129159999999999 416.9982964,5.910180000000011 410.4401964,5.6981600000000014 403.8808964,5.491219999999998 397.3272964,5.288200000000003 390.7858964,5.091070000000016 384.2621964,4.902590000000004 377.7604964,4.72542 371.2840964,4.562089999999998 364.83489640000005,4.415040000000005 358.4138964,4.286600000000007 352.0211964,4.179020000000008 345.65559640000004,4.094470000000015 339.3153964,4.0350500000000125 332.9977964,4.0028600000000125 326.6994964,4.0 320.4161964,4.028560000000013 314.1427964,4.090740000000011 307.8735964,4.188810000000018 301.60199639999996,4.325190000000006 295.3206964,4.501239999999996 289.0232964,4.716570000000004 282.7046964,4.970720000000014 276.3611964,5.263270000000006 269.9903964,5.593770000000006 263.5914964,5.961740000000006 257.1652964,6.366560000000007 250.7144964,6.807470000000009 244.2433964,7.2834800000000115 237.7581964,7.793340000000001 231.26719640000002,8.335490000000007 224.7803964,8.908060000000006 218.3094964,9.508800000000008 211.8678964,10.135130000000004 205.4697964,10.784160000000014 199.13019640000002,11.453239999999994 192.8622964,12.144549999999995 186.6724964,12.863150000000005 180.5601964,13.614450000000005 174.5186964,14.40428 168.5363964,15.239040000000003 162.5970964,16.125980000000013 156.6801964,17.073520000000002 150.7605964,18.091639999999998 144.8101964,19.18795 138.80809639999998,20.365849999999995 132.74569639999999,21.62684 126.6287964,22.969460000000012 120.4793964,24.38794 114.3370964,25.87108 108.25739639999999,27.40194000000001 102.3053764,28.95891000000001 96.5441264,30.52808000000001 91.0026164,32.11872 85.6656264,33.75014000000001 80.4904064,35.44868 75.41615639999999,37.248560000000005 70.38249640000001,39.184360000000005 65.3751564,41.27465000000001 60.4382264,43.51247000000001 55.6651764,45.858670000000004 51.1683264,48.24681 47.0210564,50.60633000000001 43.2028764,52.912620000000004 39.6435664,55.18120000000001 36.259466399999994,57.44903000000001 32.956626400000005,59.773430000000005 29.6078464,62.25206000000001 25.960786400000003,65.10122000000001 21.812326400000003,68.47861 18.1970564,71.45642000000001 15.560296399999999,73.61322000000001 13.5704204,75.25222000000001 11.9936194,76.59192 10.6945154,77.74419 9.5970774,78.76839000000001 8.6554314,79.699297 7.8399414,80.559027 7.1304213999999995,81.362587 6.5125734,82.12067800000001 5.9759844,82.841243 5.5129364,83.530382 5.1176604999999995,84.19291100000001 4.7858628,84.83273600000001 4.5144054,85.45309200000001 4.3011005,86.056723 4.14457491,86.64600800000001 4.0441892,87.223054 4.0,87.789771 4.0127601,88.34793810000001 4.083958,88.89925690000001 4.21589354,89.4454037 4.410225,89.98783300000001 4.6658586,90.52737 4.9819858,91.06460100000001 5.3585394,91.599956 5.7961634,92.133705 6.296225399999999,92.665943 6.860852400000001,93.19655700000001 7.493013400000001,93.72516800000001 8.1966304,94.251036 8.976744400000001,94.77291600000001 9.839727400000001,95.28881600000001 10.7935444,95.79561500000001 11.8480514,96.288415 13.0152154,96.759426 14.3089664,97.195997 15.7437764,97.577059 17.329716400000002,97.867151 19.0796464,98.024636 21.0255364,98.019101 23.2043964,97.827132 25.653276400000003,97.449443 28.409866400000002,96.941281 31.532426400000002,96.43147300000001 35.0907264,95.99408100000001 39.133286399999996,95.641745 43.6689264,95.3742 48.642916400000004,95.16600500000001 53.9458364,94.957425 59.4727664,94.67561 65.1668564,94.322918 70.98600640000001,93.933197 76.90285639999999,93.545516 82.9130864,93.19913000000001 89.0250464,92.90062900000001 95.24020639999999,92.630807 101.55064639999999,92.36826500000001 107.93729640000001,92.091019 114.3742964,91.792235 120.83799640000001,91.47810000000001 127.3094964,91.15530600000001 133.7746964,90.83042800000001 140.2253964,90.509763 146.65899639999998,90.19924250000001 153.0781964,89.9044478 159.4906964,89.62984730000001 165.9061964,89.37415 172.33299639999998,89.1338396 178.77739640000001,88.9055075 185.24389639999998,88.6858064 191.7350964,88.4714127 198.25169640000001,88.259003 204.7922964,88.04524500000001 211.3533964,87.827675 217.92799639999998,87.606549 224.4950964,87.38312400000001 231.0532964,87.15800300000001 237.6058964,86.931623 244.1559964,86.70442600000001 250.70619639999998,86.476865 257.2588964,86.24940400000001 263.8160964,86.022519 270.3794964,85.79670200000001 276.9503964,85.57245900000001 283.52609640000003,85.350437 290.0941964,85.13160300000001 296.6532964,84.916545 303.2032964,84.70579000000001 309.7447964,84.499836 316.2783964,84.29908900000001 322.8048964,84.10391800000001 329.32479639999997,83.91469400000001 335.8388964,83.731785 342.3479964,83.555563 348.8526964,83.38639500000001 355.3538964,83.224654 361.8521964,83.070712 368.34849640000004,82.92494300000001 374.8435964,82.787727 381.33829640000005,82.65944300000001 387.83339639999997,82.54047700000001 394.3297964,82.431218 400.8284964,82.33206200000001 407.33029639999995,82.243386 413.8360964,82.16499200000001 420.34669640000004,82.096092 426.8627964,82.035871 433.3846964,81.98351500000001 439.9127964,81.938209 446.4471964,81.89913700000001 452.9877964,81.86547800000001 459.5343964,81.83640600000001 466.0865964,81.811093 472.6437964,81.78870400000001 479.2053964,81.76840100000001 485.7701964,81.74934200000001 492.3371964,81.730682 498.9051964,81.71157500000001 505.47249640000007,81.69117800000001 512.0376964,81.66920900000001 518.5990964,81.646624 525.1554964,81.62454100000001 531.7057963999999,81.604072 538.2489964,81.58632 544.7845964,81.57237900000001 551.3121964,81.563337 557.8315964000001,81.56026800000001 564.3427964,81.56424100000001 570.8460964,81.576316 577.3418964,81.597548 583.8308964,81.628989 590.3139964,81.671688 596.7921964000001,81.72669900000001 603.2667964000001,81.79508100000001 609.7392964000001,81.877694 616.2111964000001,81.974158 622.6839964,82.08363600000001 629.1589964,82.205301 635.6374964,82.338328 642.1205964,82.481897 648.6092964,82.635192 655.1045964,82.79739000000001 661.6072964,82.96767 668.1181964000001,83.14520300000001 674.6377964,83.329155 681.1665964,83.51868200000001 687.7049963999999,83.712934 694.2532964000001,83.91104700000001 700.8116964,84.112148 707.3801963999999,84.315358 713.9566963999999,84.51987700000001 720.5268964,84.724675 727.0881964,84.92909300000001 733.6416964,85.132592 740.1887964,85.334642 746.7312964,85.53473000000001 753.2710964,85.732348 759.8103964,85.92699800000001 766.3520964,86.11818500000001 772.8987963999999,86.305419 779.4539964,86.488206 786.0210963999999,86.666049 792.5953964,86.83821800000001 799.1518963999999,87.00349600000001 805.6843964,87.161224 812.1885963999999,87.311386 818.6614964,87.455156 825.1012964,87.59385800000001 831.5080964,87.728812 837.8832964,87.86133000000001 844.2296964000001,87.992711 850.5510964,88.124246 856.8526964,88.257227 863.1408964000001,88.39295320000001 869.4230964,88.53274660000001 875.7079964,88.6779734 882.0056963999999,88.8300657 888.3277963999999,88.99055240000001 894.6876964,89.1610981 901.1008964,89.34355335800001 907.5856964,89.53989490000001 914.1382964000001,89.7490245 920.6302963999999,89.96313660000001 927.0518964,90.17798060000001 933.4378964,90.391001 939.8378964,90.600226 946.3187964,90.80404300000001 952.8130964000001,90.99638200000001 959.0553964,91.16678 964.9810964,91.314436 970.5638964,91.440987 975.8031964,91.54866100000001 980.7134963999999,91.63983400000001 985.3177964,91.716761 989.6419963999999,91.781462 993.7121964,91.83568700000001 997.5529964,91.880919 1001.1870964,91.91840900000001 1004.1869964,91.94547" stroke="black" stroke-width="2.0" /></svg>