<?xml version="1.0" encoding="utf-8" ?>
<svg baseProfile="full" height="122.44832" version="1.1" width="1012.201115" xmlns="http://www.w3.org/2000/svg" xmlns:ev="http://www.w3.org/2001/xml-events" xmlns:xlink="http://www.w3.org/1999/xlink"><defs /><polygon fill="none" points="1004.201115,96.11829999999999 1001.229315,95.27376299999999 997.638615,94.26252799999999 993.855415,93.20796399999999 989.860415,92.106449 985.632715,90.95425999999999 981.150315,89.747778 976.3912149999999,88.48383999999999 971.335815,87.16029999999999 965.969715,85.7769 960.288915,84.33643 954.3063149999999,82.84609999999999 948.058215,81.3183 941.6029149999999,79.76809 935.0839149999999,78.22846 928.616915,76.72359999999999 922.153115,75.23864999999999 915.654415,73.76182 909.1008149999999,72.28566 902.5713149999999,70.82484 896.100915,69.38508999999999 889.679015,67.96482999999999 883.2961149999999,66.56306999999998 876.9435149999999,65.17904999999999 870.613615,63.812239999999996 864.299515,62.462309999999995 857.9952149999999,61.12908999999999 851.695015,59.812619999999995 845.3943149999999,58.51308999999999 839.0884149999999,57.23082999999999 832.7737149999999,55.96634999999999 826.446615,54.72027 820.1044149999999,53.493399999999994 813.744615,52.286649999999995 807.365315,51.101099999999995 800.9650149999999,49.93790999999999 794.543115,48.79726999999999 788.099415,47.677949999999996 781.6338149999999,46.57866999999999 775.146715,45.498169999999995 768.638515,44.43518999999999 762.109915,43.38848999999999 755.562115,42.35684 748.996215,41.33900999999999 742.4137149999999,40.33379999999999 735.816515,39.33998999999999 729.206715,38.356399999999994 722.5866149999999,37.38185 715.9589149999999,36.415179999999985 709.326515,35.455239999999996 702.692615,34.50090999999999 696.060515,33.55167999999999 689.4331149999999,32.60880999999999 682.812815,31.673779999999994 676.201415,30.74799 669.600515,29.83278 663.010915,28.92936999999999 656.4332149999999,28.03891999999999 649.8674149999999,27.162519999999986 643.3132149999999,26.301179999999988 636.769915,25.45582999999999 630.2362149999999,24.627369999999985 623.710515,23.816639999999992 617.1910149999999,23.024419999999992 610.675215,22.25148999999999 604.160515,21.498569999999987 597.643615,20.766170000000002 591.121715,20.053459999999987 584.592015,19.359129999999993 578.052515,18.681969999999993 571.501315,18.02078999999999 564.937115,17.374489999999994 558.358915,16.741979999999998 551.766315,16.122230000000002 545.159115,15.514240000000001 538.5378149999999,14.917019999999994 531.903115,14.329639999999998 525.2565149999999,13.751169999999988 518.599915,13.18070999999999 511.935415,12.617379999999997 505.266115,12.06035 498.595215,11.50891999999999 491.92611500000004,10.964089999999985 485.262015,10.427849999999992 478.60571500000003,9.902190000000004 471.959715,9.388999999999996 465.32581500000003,8.890140000000002 458.706015,8.407389999999992 452.101515,7.942489999999992 445.513315,7.497079999999997 438.942115,7.0727799999999945 432.388215,6.671129999999991 425.851815,6.293610000000001 419.332515,5.941680000000005 412.82981500000005,5.616749999999996 406.342915,5.320199999999986 399.870715,5.053359999999984 393.41201500000005,4.816819999999993 386.965615,4.610469999999992 380.530315,4.434149999999988 374.104615,4.287749999999988 367.68691500000006,4.171179999999993 361.27551500000004,4.084379999999996 354.86861500000003,4.027309999999986 348.46441500000003,4.0 342.060715,4.002469999999988 335.655415,4.034839999999988 329.246215,4.097219999999993 322.830415,4.189819999999997 316.40551500000004,4.312860000000001 309.96861500000006,4.466650000000001 303.516615,4.651569999999992 297.04631500000005,4.868020000000001 290.554815,5.1164699999999925 284.040115,5.397360000000006 277.501415,5.711099999999988 270.939315,6.05807999999999 264.355615,6.438589999999991 257.753515,6.852799999999988 251.13761499999998,7.300719999999998 244.51411499999998,7.7821500000000015 237.89051499999997,8.296679999999995 231.275615,8.843609999999998 224.679715,9.421959999999984 218.11391499999996,10.030460000000005 211.59011499999997,10.667529999999985 205.121015,11.331299999999999 198.719115,12.020139999999998 192.396415,12.737650000000002 186.16051499999998,13.490599999999986 180.01381499999997,14.285659999999993 173.954715,15.129419999999996 167.977815,16.02852 162.075215,16.989819999999995 156.236415,18.02064 150.448715,19.128839999999983 144.698215,20.31940999999999 138.97291499999997,21.593729999999994 133.263715,22.953019999999995 127.56431500000001,24.398389999999992 121.871515,25.93056999999999 116.184715,27.54979 110.506215,29.25546 104.84111499999999,31.04598999999999 99.197405,32.91803999999999 93.580705,34.86367 87.983815,36.87676999999999 82.383955,38.95751999999999 76.741125,41.11384999999999 71.00998500000001,43.37123999999999 65.244065,45.74164 59.661395,48.163329999999995 54.535265,50.522839999999995 50.031395,52.724639999999994 46.148975,54.75129999999999 42.759795,56.65035999999999 39.744595000000004,58.470319999999994 37.013214999999995,60.252449999999996 34.497615,62.034299999999995 32.144955,63.853919999999995 29.910395,65.75656 27.748195000000003,67.80622 25.575545,70.08731 23.310405000000003,72.63790999999999 20.985035000000003,75.32714999999999 18.761204999999997,77.85839999999999 16.770485,80.03068999999999 15.046125,81.82688999999999 13.555812999999999,83.34787999999999 12.266243,84.66784999999999 11.140854000000001,85.83972 10.14977,86.90016999999999 9.271001,87.87411999999999 8.48826,88.77917 7.789376000000001,89.62809 7.165104,90.430487 6.608321,91.193766 6.11351,91.923779 5.676382,92.62525 5.293622,93.30206799999999 4.9627046,93.957495 4.681774,94.594314 4.4495517,95.21494299999999 4.26528283,95.82152099999999 4.12870505,96.41596999999999 4.0400389,97.00006099999999 4.0,97.575453 4.0098348,98.143739 4.0713816,98.7064935 4.1871674,99.26531032999999 4.359927,99.8218211 4.5899815,100.377511 4.8773145,100.93374999999999 5.222626,101.49186599999999 5.627355,102.05318399999999 6.093733,102.619057 6.624895,103.190895 7.225034,103.770202 7.89963,104.35860299999999 8.655791,104.957882 9.502713,105.570003 10.452355,106.19710699999999 11.520378999999998,106.84144699999999 12.7274,107.505119 14.100354000000001,108.18925399999999 15.672815,108.891758 17.479115,109.60109999999999 19.556874999999998,110.29442999999999 21.962145000000003,110.94586 24.729955,111.52283 27.850735,112.00586999999999 31.317725,112.42013 35.189865,112.79464999999999 39.543065,113.12874 44.452365,113.42299 49.940835,113.68379999999999 55.895694999999996,113.92893 62.035845,114.16295 68.086345,114.34683 73.92738500000002,114.44832 79.586035,114.44639 85.176675,114.32865 90.819285,114.10364 96.60159499999999,113.78018999999999 102.58007500000001,113.36601999999999 108.767215,112.87208999999999 115.132615,112.30757 121.634415,111.68056999999999 128.229115,111.00175999999999 134.87641499999998,110.2834 141.54301499999997,109.53829999999999 148.20511499999998,108.77887999999999 154.850315,108.016493 161.47581499999998,107.259694 168.083115,106.511607 174.673715,105.774346 181.24891499999998,105.050007 187.81011499999997,104.34066499999999 194.358615,103.648383 200.89541499999999,102.97520999999999 207.42161499999997,102.32315 213.93821499999999,101.693321 220.44591499999999,101.085939 226.945615,100.501177 233.438315,99.9392122 239.92511499999998,99.40022934 246.406915,98.88441909999999 252.88511499999998,98.39198169999999 259.36071499999997,97.92312799999999 265.835215,97.478083 272.309915,97.05708399999999 278.786415,96.660387 285.26601500000004,96.28826699999999 291.75061500000004,95.941018 298.241915,95.618962 304.741615,95.322442 311.251815,95.051375 317.774215,94.804312 324.310515,94.57955399999999 330.862015,94.37541499999999 337.429815,94.190209 344.014715,94.022247 350.61741500000005,93.86982599999999 357.238015,93.73122799999999 363.876615,93.604715 370.53281499999997,93.488525 377.206015,93.380871 383.895115,93.27993799999999 390.59891500000003,93.18388599999999 397.315715,93.090852 404.043415,92.99895199999999 410.77961500000004,92.90666599999999 417.517415,92.814077 424.25111499999997,92.72164599999999 430.982715,92.62973099999999 437.713915,92.538688 444.446215,92.44887899999999 451.181315,92.36067 457.919615,92.274436 464.655515,92.19063799999999 471.385915,92.10969 478.110315,92.03197499999999 484.828315,91.95786799999999 491.54001500000004,91.887738 498.245415,91.82195399999999 504.944815,91.760876 511.63891500000005,91.704837 518.3282149999999,91.654085 525.013115,91.60885599999999 531.694215,91.569389 538.3721149999999,91.53592099999999 545.047115,91.508693 551.719615,91.487945 558.3902149999999,91.473919 565.059215,91.466859 571.726915,91.46700799999999 578.393715,91.47461399999999 585.0599149999999,91.48992199999999 591.725815,91.513182 598.391715,91.544643 605.0577149999999,91.58455599999999 611.724215,91.63301899999999 618.391315,91.68972699999999 625.059415,91.75431099999999 631.728615,91.82640599999999 638.3995150000001,91.905644 645.072215,91.991661 651.747215,92.084093 658.424815,92.18257799999999 665.105615,92.286755 671.789915,92.396262 678.478215,92.510739 685.171015,92.629826 691.869015,92.753166 698.572615,92.880398 705.2825149999999,93.01116499999999 711.999315,93.14525599999999 718.723315,93.28281899999999 725.454715,93.424049 732.191715,93.56910599999999 738.9246149999999,93.717962 745.652115,93.870763 752.375515,94.027715 759.096415,94.189033 765.817115,94.354947 772.539915,94.525703 779.267615,94.701562 786.002315,94.88277599999999 792.730515,95.069161 799.442915,95.260623 806.135515,95.45718 812.804415,95.658655 819.4464149999999,95.864589 826.0604149999999,96.074541 832.6465149999999,96.288128 839.2064149999999,96.50502399999999 845.7433149999999,96.724959 852.261315,96.94772499999999 858.766315,97.17317299999999 865.265015,97.40121199999999 871.7656149999999,97.631811 878.2779149999999,97.865005 884.8129149999999,98.10089099999999 891.383715,98.3396418 898.0055150000001,98.5815104 904.6954149999999,98.82681939999999 911.3864149999999,99.0728386 917.986215,99.316058112 924.5078149999999,99.5568727 930.981115,99.7963118 937.450915,100.03596169999999 943.978715,100.27804499999999 950.638015,100.52523 957.183015,100.76833099999999 963.402115,100.99944199999999 969.257115,101.21712 974.741915,101.42112499999999 979.8706149999999,101.61196 984.667615,101.790523 989.1618149999999,101.95786899999999 993.382015,102.11506999999999 997.355915,102.263138 1001.108415,102.40300099999999 1004.201115,102.5183" stroke="black" stroke-width="2.0" /></svg>