<?xml version="1.0" encoding="utf-8" ?>
<svg baseProfile="full" height="107.53454" version="1.1" width="1012.1120199" xmlns="http://www.w3.org/2000/svg" xmlns:ev="http://www.w3.org/2001/xml-events" xmlns:xlink="http://www.w3.org/1999/xlink"><defs /><polygon fill="none" points="1004.1120199,83.02892 1001.1053198999999,82.52162 997.4625199,81.90704000000001 993.6117198999999,81.25742100000001 989.5301198999999,80.568931 985.1928198999999,79.837377 980.5733198999999,79.05833000000001 975.6456198999999,78.22737000000001 970.3864199,77.34064000000001 964.7810198999999,76.39565 958.8306198999999,75.39263000000001 952.5623198999999,74.33618 946.1268199,73.25164000000001 939.8178199,72.18838000000001 933.5843199,71.13758000000001 927.3646199,70.08869000000001 921.1129199,69.03381 914.7957198999999,67.96711 908.3924198999999,66.88487 901.9182198999999,65.78946 895.4994199,64.70267000000001 889.1451198999999,63.62740000000001 882.8402199,62.56248000000001 876.5718198999999,61.50704 870.3286198999999,60.460480000000004 864.1010199,59.422450000000005 857.8804198999999,58.39285000000001 851.6597198999999,57.37176 845.4327198999999,56.35949000000001 839.1940199,55.356550000000006 832.9395199,54.36366 826.6659199,53.381730000000005 820.3709199,52.41187 814.0534199,51.45541 807.7132199,50.513870000000004 801.3513198999999,49.588910000000006 794.9699198999999,48.68099 788.5717199,47.78884 782.1591199,46.911010000000005 775.7345198999999,46.04598 769.3000198999999,45.192170000000004 762.8575198999999,44.34796 756.4086199,43.51165 749.9549198999999,42.681520000000006 743.4977199,41.855790000000006 737.0378198999999,41.03266 730.5762199,40.21029000000001 724.1134198999999,39.3868 717.6498198999999,38.56027 711.1853199,37.72878000000001 704.7199198999999,36.890350000000005 698.2531198999999,36.04329 691.7841199,35.18786000000001 685.3123198999999,34.325 678.8371199,33.45570000000001 672.3583198999999,32.580960000000005 665.8758199,31.701840000000004 659.3897198999999,30.81942 652.9002199,29.934790000000007 646.4081199,29.049110000000006 639.9140199,28.163560000000004 633.4189199,27.27933000000001 626.9240199,26.397670000000005 620.4306199,25.519830000000006 613.9405198999999,24.647099999999995 607.4553199,23.780780000000007 600.9772198999999,22.92219 594.5081198999999,22.072820000000007 588.0500198999999,21.23433 581.6042199,20.408290000000008 575.1717198999999,19.59620000000001 568.7530198999999,18.799480000000003 562.3482198999999,18.019470000000013 555.9571199,17.25742000000001 549.5788199,16.51455 543.2125199,15.792019999999994 536.8566198999999,15.09093 530.5094199,14.412350000000004 524.1687199,13.757319999999993 517.8322198999999,13.12688 511.4968199,12.522050000000007 505.15951989999996,11.943860000000015 498.8166199,11.393160000000009 492.4647199,10.869230000000002 486.1008199,10.370710000000003 479.7226199,9.896320000000017 473.32811990000005,9.44484 466.9161199,9.015110000000007 460.48601990000003,8.605990000000006 454.0377199,8.216400000000007 447.57181990000004,7.845250000000007 441.08971990000003,7.491460000000004 434.59331990000004,7.153980000000004 428.0853199,6.831739999999996 421.56911990000003,6.52367000000001 415.0489199,6.22869 408.52951989999997,5.945710000000005 402.0164199,5.6736800000000045 395.51561990000005,5.412880000000001 389.0324199,5.166030000000006 382.5714199,4.935959999999994 376.1357199,4.7253800000000155 369.7278199,4.5368700000000075 363.34891990000006,4.372860000000003 356.99951990000005,4.235720000000015 350.6792199,4.127690000000001 344.3867199,4.0509600000000034 338.12001990000005,4.007690000000011 331.87641990000003,4.0 325.6527199,4.030050000000003 319.44471990000005,4.100020000000001 313.2477199,4.212220000000002 307.05661990000004,4.369039999999998 300.8652199,4.572990000000004 294.6670199,4.824740000000006 288.4562199,5.122969999999995 282.2280199,5.466370000000012 275.9784199,5.853639999999999 269.7046199,6.283510000000007 263.4047199,6.754630000000006 257.0782199,7.265570000000011 250.72541990000002,7.814750000000004 244.3482199,8.400430000000014 237.94971990000002,9.020610000000005 231.5346199,9.673069999999996 225.1089199,10.355289999999997 218.68011990000002,11.064460000000011 212.2569199,11.79749000000001 205.8496199,12.550979999999996 199.4694199,13.32181 193.12771990000002,14.111909999999995 186.8338199,14.926320000000004 180.59441990000002,15.770120000000006 174.4135199,16.648280000000014 168.2927199,17.56577 162.2316199,18.527510000000007 156.22811990000002,19.538489999999996 150.27851990000002,20.60385000000001 144.3798199,21.729130000000012 138.5317199,22.919810000000012 132.73571990000002,24.180790000000002 126.99521990000001,25.516379999999998 121.31541990000001,26.930120000000002 115.70281990000001,28.424730000000004 110.1650199,30.00202000000001 104.7104199,31.66280000000001 99.3473199,33.4058 94.07210990000002,35.22572 88.85439990000002,37.12508000000001 83.6359099,39.120000000000005 78.32289990000001,41.245450000000005 72.7664899,43.56179000000001 66.86711989999999,46.1004 61.004629900000005,48.67271 55.0703399,51.29346 49.7114999,53.65655000000001 45.1695399,55.69509000000001 41.2458599,57.526030000000006 37.7396199,59.250750000000004 34.5012599,60.94867000000001 31.4093999,62.69623 28.3353699,64.59611000000001 25.0701099,66.82304 21.5355299,69.43388 18.3005499,71.93063000000001 15.749339899999999,73.92502 13.761122899999998,75.50113 12.1693979,76.80764 10.853736900000001,77.93858 9.7410219,78.94777 8.7857239,79.867748 7.9579719,80.719571 7.237243899999999,81.517662 6.608927899999999,82.272374 6.0623389,82.99143000000001 5.5895288999999995,83.680783 5.1845349,84.345156 4.8428914,84.98839000000001 4.5613081,85.61369 4.3374563,86.223786 4.16982764,86.82106300000001 4.05764861,87.40765300000001 4.0008375,87.98551 4.0,88.5564732 4.05646183,89.1223272 4.17225879,89.68484140000001 4.3478774,90.24539510000001 4.5819235,90.804815 4.8736108,91.36377 5.2228419,91.922808 5.6301839000000005,92.48235700000001 6.0968719,93.042721 6.6248459,93.60406 7.2168229,94.166348 7.8764019,94.72931700000001 8.608213899999999,95.29235100000001 9.4181229,95.85432200000001 10.3134929,96.413329 11.3035019,96.96624200000001 12.3994859,97.507936 13.6151509,98.029926 14.9661799,98.51787900000001 16.467819900000002,98.94706000000001 18.131859900000002,99.279178 19.9859799,99.48314 22.0698499,99.53454 24.4263299,99.420716 27.097809899999998,99.164124 30.133449900000002,98.856228 33.6033399,98.606762 37.5632399,98.439987 42.0268399,98.36092000000001 46.939929899999996,98.353117 52.1923699,98.37018900000001 57.6888899,98.342718 63.4087499,98.23988100000001 69.3474199,98.06849100000001 75.4818999,97.84097600000001 81.76433990000001,97.57536300000001 88.12290990000001,97.291523 94.49141990000001,97.007057 100.8323199,96.73826100000001 107.1390199,96.499245 113.4284199,96.29349500000001 119.72041990000001,96.114689 126.0305199,95.95644300000001 132.3702199,95.81257000000001 138.7470199,95.676905 145.16371990000002,95.54320100000001 151.6187199,95.40508100000001 158.1050199,95.256449 164.6122199,95.096637 171.13021990000001,94.92909900000001 177.6510199,94.757413 184.16871989999999,94.585137 190.6793199,94.415763 197.1809199,94.252708 203.6737199,94.099304 210.1599199,93.958236 216.64241990000002,93.829308 223.12411989999998,93.71146 229.60721990000002,93.603662 236.0941199,93.5049 242.5863199,93.414173 249.0855199,93.33049000000001 255.59281990000002,93.25286200000001 262.1089199,93.18030200000001 268.6344199,93.11181900000001 275.1693199,93.04642100000001 281.7136199,92.983109 288.2667199,92.920879 294.8276199,92.85872 301.39511990000005,92.79562100000001 307.9675199,92.730625 314.54301990000005,92.663718 321.11981990000004,92.59563800000001 327.6964199,92.527147 334.2714199,92.45900400000001 340.8436199,92.391965 347.4121199,92.32678 353.97601990000004,92.264195 360.5348199,92.20495000000001 367.0882199,92.14977900000001 373.63591990000003,92.09940900000001 380.1779199,92.054561 386.7145199,92.015952 393.2459199,91.984297 399.7729199,91.960306 406.2962199,91.944677 412.81651990000006,91.937448 419.3349199,91.937629 425.8521199,91.94415000000001 432.3688199,91.95594200000001 438.88571989999997,91.971942 445.4031199,91.99108600000001 451.92171989999997,92.01231 458.44161990000003,92.03455000000001 464.9632199,92.056741 471.4866199,92.077814 478.0120199,92.09670100000001 484.5392199,92.112328 491.0681199,92.123624 497.5987199,92.12951100000001 504.1305199,92.128915 510.66331990000003,92.12111300000001 517.1966199,92.106807 523.7300199,92.08704700000001 530.2634199,92.06289000000001 536.7963199,92.03539 543.3286199,92.00560200000001 549.8602199,91.974581 556.3909199,91.943381 562.9206198999999,91.913053 569.4494199,91.88465000000001 575.9772198999999,91.859221 582.5042199,91.837817 589.0304198999999,91.82148600000001 595.5560198999999,91.81127500000001 602.0812199,91.808234 608.6062198999999,91.813319 615.1315199,91.82651 621.6573199,91.847189 628.1839199,91.874728 634.7119198999999,91.90850300000001 641.2416198999999,91.947891 647.7736198999999,91.99226800000001 654.3083198999999,92.041014 660.8464199,92.09350400000001 667.3885199,92.149118 673.9352198999999,92.207232 680.4872198999999,92.26722000000001 687.0452199,92.32845800000001 693.6101199,92.390316 700.1827198999999,92.45216 706.7638199,92.513363 713.3521198999999,92.57352300000001 719.9336198999999,92.632456 726.5051199,92.690105 733.0669198999999,92.74644400000001 739.6199198999999,92.80145200000001 746.1653199,92.85511000000001 752.7045198999999,92.907402 759.2397199,92.958314 765.7731199,93.00783200000001 772.3075199,93.05594500000001 778.8462198999999,93.102641 785.3927199,93.147909 791.9511199,93.191737 798.5259199,93.234111 805.1097199,93.27494200000001 811.6693199,93.31437100000001 818.1984199,93.353661 824.6943199,93.394216 831.1562199,93.437404 837.5844199,93.484558 843.9807198999999,93.536983 850.3480198999999,93.59596 856.6906198999999,93.662762 863.0136199,93.738663 869.3232198999999,93.824965 875.6270198999999,93.92301 881.9334198999999,94.03421300000001 888.2523199,94.16009000000001 894.5948199,94.302295 900.9739198999999,94.46267300000001 907.4047198999999,94.643129 913.9009199,94.841565 920.4633198999999,95.051201 927.0224198999999,95.262403 933.5633198999999,95.46715 940.1294198999999,95.659231 946.6334198999999,95.828748 952.9665199,95.96692800000001 959.0621199,96.069001 964.8720198999999,96.13642800000001 970.3733199,96.17340800000001 975.5629199,96.18434400000001 980.4511199,96.173384 985.0557198999999,96.144199 989.3979199,96.099917 993.4995198999999,96.043148 997.3819199,95.976044 1001.0651199,95.900367 1004.1120199,95.82892000000001" stroke="black" stroke-width="2.0" /></svg>