<?xml version="1.0" encoding="utf-8" ?>
<svg baseProfile="full" height="105.839264" version="1.1" width="1012.7674066" xmlns="http://www.w3.org/2000/svg" xmlns:ev="http://www.w3.org/2001/xml-events" xmlns:xlink="http://www.w3.org/1999/xlink"><defs /><polygon fill="none" points="1004.7674066,89.65752 1001.7271066,88.7652788 998.0697065999999,87.711073 994.2367065999999,86.628544 990.2127065999999,85.516547 985.9813065999999,84.374182 981.5255066,83.200958 976.8283066,81.997037 971.8738066,80.76356100000001 966.6490066,79.50308000000001 961.1465066,78.22008000000001 955.3677065999999,76.92151000000001 949.3269065999999,75.61646 943.0526066,74.31154000000001 936.5833066,73.01156 929.9629065999999,71.71998 923.2360065999999,70.43835 916.4432065999999,69.16579 909.6161065999999,67.89884 902.7757065999999,66.63155 895.9309066,65.35937000000001 889.0847065999999,64.08371000000001 882.2394065999999,62.80659000000001 875.3973065999999,61.530030000000004 868.5601065999999,60.255970000000005 861.7294066,58.98626 854.9063066,57.72272000000001 848.0917066,56.46708 841.2863065999999,55.221000000000004 834.4904065999999,53.98606 827.7040066,52.76379000000001 820.9268066,51.55563000000001 814.1582066,50.36296000000001 807.3976065999999,49.18712000000001 800.6438066,48.02935000000001 793.8957065999999,46.89014 787.1525066,45.769420000000004 780.4131066,44.66711 773.6765065999999,43.583130000000004 766.9417066,42.517410000000005 760.2078066,41.46989000000001 753.4736065999999,40.44051 746.7382066,39.42922000000001 740.0004066,38.43601000000001 733.2592066,37.46083000000001 726.5135065999999,36.50367 719.7622066,35.564530000000005 713.0040065999999,34.64341000000001 706.2377065999999,33.740320000000004 699.4623065999999,32.855230000000006 692.6764066,31.987530000000007 685.8792066,31.13633 679.0698065999999,30.30073000000001 672.2477066,29.479890000000005 665.4125065999999,28.672970000000007 658.5640065999999,27.879150000000003 651.7020066,27.097629999999995 644.8270065999999,26.327630000000006 637.9392065999999,25.568380000000005 631.0392066,24.81911000000001 624.1280066,24.079080000000005 617.2065066,23.347550000000012 610.2762065999999,22.623810000000006 603.3385066,21.90713000000001 596.3951066,21.19716000000001 589.4477066,20.494500000000002 582.4979066,19.799900000000008 575.5474065999999,19.114090000000004 568.5978065999999,18.43780000000001 561.6506066,17.77176 554.7074065999999,17.11666000000001 547.7697066000001,16.473200000000006 540.8390066,15.842039999999997 533.9167066,15.22384000000001 527.0043066,14.619240000000005 520.1030066,14.028840000000002 513.2142066,13.453249999999997 506.3391066,12.893040000000013 499.4790066,12.348740000000006 492.63500660000005,11.820810000000009 485.80750660000007,11.309560000000005 478.9966066,10.815280000000016 472.20160660000005,10.338190000000012 465.42130660000004,9.87848000000001 458.6539066,9.436330000000012 451.89720660000006,9.011880000000005 445.1483066,8.605260000000001 438.4038066,8.2166 431.6599066,7.846050000000005 424.9122066,7.493760000000009 418.1554066,7.159890000000004 411.3841066,6.844660000000005 404.59180660000004,6.548300000000012 397.77140660000003,6.270980000000009 390.9160066,6.012170000000012 384.0203066,5.771209999999996 377.0812066,5.547570000000007 370.09750660000003,5.340770000000006 363.0704066,5.150360000000006 356.0190066,4.9762699999999995 348.9920066,4.81889000000001 341.98510660000005,4.677120000000002 334.98610659999997,4.549820000000011 327.9809066,4.4358900000000006 320.9526066,4.334310000000002 313.8956066,4.244320000000016 306.8856066,4.165990000000008 299.95750660000004,4.09884000000001 293.1309066,4.045600000000007 286.4185066,4.011200000000002 279.82620660000003,4.0 273.35380660000004,4.015740000000008 266.99670660000004,4.061710000000005 260.74700659999996,4.140879999999996 254.59420659999998,4.256039999999999 248.52580659999998,4.409930000000003 242.52800659999997,4.605380000000011 236.58520659999996,4.84545 230.6805066,5.133590000000012 224.79550659999998,5.4738100000000145 218.9095066,5.870900000000006 212.9989066,6.330730000000003 207.0364066,6.860650000000007 200.98880659999998,7.469849999999994 194.81840659999997,8.163750000000007 188.4935066,8.942160000000001 181.99700659999996,9.802710000000005 175.3335066,10.738990000000001 168.53850659999998,11.738209999999995 161.6858066,12.77940000000001 154.88600659999997,13.833789999999993 148.26650659999999,14.873590000000007 141.92400659999998,15.899150000000006 135.88770659999997,16.92407 130.1408066,17.963760000000008 124.6435066,19.034130000000005 119.3466066,20.151660000000007 114.1967066,21.334329999999994 109.1372066,22.603279999999998 104.1051266,23.985520000000008 99.0255466,25.50997000000001 93.8231366,27.181940000000004 88.4512666,28.990720000000003 82.9129566,30.90317000000001 77.2884866,32.85186 71.7375966,34.77557000000001 66.4194766,36.66414 61.4313966,38.51865 56.8086566,40.34456 52.5454066,42.148480000000006 48.622716600000004,43.929120000000005 45.013436600000006,45.68278000000001 41.6814266,47.412800000000004 38.5910666,49.126050000000006 35.710786600000006,50.83097 33.0137066,52.536860000000004 30.4772966,54.25374 28.081276600000002,55.99341000000001 25.7947466,57.774480000000004 23.6047166,59.596830000000004 21.527576600000003,61.42920000000001 19.587856600000002,63.2256 17.7995666,64.94677 16.1620666,66.57077000000001 14.679682599999998,68.08589 13.3503876,69.49357 12.1603456,70.80472 11.0937126,72.03185 10.1360496,73.18639 9.2751196,74.27808 8.5008186,75.31503000000001 7.8048736,76.30396 7.1805236,77.25046 6.6222376,78.15919000000001 6.1254906,79.03408 5.6865804,79.878483 5.3024901,80.69525 4.9707826,81.48685400000001 4.68951693,82.25544500000001 4.4571857999999995,83.002908 4.2726695,83.730908 4.1352024,84.440926 4.0443507,85.13429000000001 4.0,85.812196 4.002352,86.475734 4.0519302999999995,87.12590300000001 4.1495959,87.76362400000001 4.2965736,88.38976000000001 4.4944904999999995,89.00512160000001 4.74543039,89.61048466000001 5.051383899999999,90.2065062 5.4117274,90.793306 5.8252656,91.37069100000001 6.2911626,91.938282 6.8089006,92.49549300000001 7.3782516000000005,93.04150800000001 7.9992486,93.575247 8.6721666,94.095313 9.3974926,94.599929 10.175907599999999,95.086848 11.008237600000001,95.553239 11.8954086,95.995525 12.838354599999999,96.40917900000001 13.837882599999999,96.78843900000001 14.8944466,97.125926 16.007816599999998,97.41213400000001 17.1764466,97.634747 18.398216599999998,97.779514 19.678516600000002,97.839264 21.0274866,97.81031200000001 22.457926600000004,97.689836 23.9861766,97.476831 25.6334166,97.17384200000001 27.427386600000002,96.790164 29.404676600000002,96.347752 31.6121466,95.885452 34.1010666,95.421266 36.9279366,94.959118 40.151216600000005,94.504669 43.8163166,94.064859 47.9318066,93.64504600000001 52.4546966,93.242804 57.317966600000005,92.841209 62.484556600000005,92.430459 67.92480660000001,92.021315 73.59882660000001,91.62785500000001 79.4661466,91.26532300000001 85.4971966,90.94438000000001 91.6697066,90.6528392 97.9609866,90.3690406 104.3490266,90.0683029 110.8145066,89.72850892000001 117.3423066,89.35060010000001 123.9194066,88.94331460000001 130.5352066,88.51588000000001 137.1814066,88.07780100000001 143.85290659999998,87.638689 150.5476066,87.20816500000001 157.26730659999998,86.79571700000001 164.0158066,86.405997 170.79690659999997,86.03698200000001 177.61300659999998,85.68619600000001 184.4652066,85.35118200000001 191.3530066,85.029481 198.2743066,84.71862 205.22530659999998,84.416111 212.2006066,84.120056 219.1941066,83.8305 226.20040659999998,83.547847 233.21450659999996,83.27245400000001 240.23210659999998,83.004638 247.2495066,82.744674 254.2635066,82.492795 261.27180660000005,82.2492 268.2727066,82.01405100000001 275.2650066,81.78748300000001 282.2483066,81.569603 289.22300659999996,81.36049700000001 296.1897066,81.160233 303.1501066,80.968867 310.10600660000006,80.78640800000001 317.0600066,80.61258600000001 324.0140066,80.447006 330.97000660000003,80.289292 337.9295066,80.139082 344.89370660000003,79.996025 351.8636066,79.859779 358.83980660000003,79.73001000000001 365.82280660000004,79.60639 372.8125066,79.48859 379.80890660000006,79.3763 386.8114066,79.26920000000001 393.81920660000003,79.16696 400.8310066,79.06927 407.8455066,78.97583 414.8611066,78.88656 421.87600660000004,78.80171 428.8892066,78.72148000000001 435.8996066,78.64611000000001 442.9063066,78.57582000000001 449.90900660000005,78.51081 456.9072066,78.4513 463.9011066,78.39748 470.8908066,78.34956 477.87690660000004,78.30774000000001 484.8600066,78.27223000000001 491.8412066,78.24321 498.8217066,78.22091 505.80280660000005,78.20551 512.7863066,78.19706000000001 519.7738066,78.19512 526.7667066,78.19917000000001 533.7659066,78.20873 540.7723066,78.22328 547.7865065999999,78.24233000000001 554.8086066,78.26537 561.8386065999999,78.29188 568.8761066,78.32136 575.9206066,78.35328000000001 582.9710066,78.38712000000001 590.0262065999999,78.42234 597.0846065999999,78.45840000000001 604.1444066,78.49478 611.2035066,78.53107 618.2596066,78.56767 625.3110065999999,78.60520000000001 632.3561066,78.64428000000001 639.3937066,78.68555 646.4228066,78.72961000000001 653.4429065999999,78.77708000000001 660.4537066,78.82857 667.4551065999999,78.88469 674.4476065999999,78.94604000000001 681.4316066,79.01324000000001 688.4081066,79.08688000000001 695.3783066,79.16758 702.3436065999999,79.25594000000001 709.3056065999999,79.35258 716.2663066,79.45792 723.2269066,79.57226 730.1885066,79.695908 737.1517065999999,79.82916700000001 744.1165066,79.97233 751.0826066,80.12568300000001 758.0493065999999,80.2895 765.0154066,80.46404000000001 771.9793065999999,80.64954300000001 778.9388065999999,80.846225 785.8915066,81.054275 792.8344066,81.27385000000001 799.7644065999999,81.505075 806.6778065999999,81.748024 813.5707066,82.00207 820.4405066,82.26542 827.2857066,82.53623400000001 834.1063065999999,82.812758 840.9035066,83.09332500000001 847.6798066,83.376356 854.4389066,83.660357 861.1854066,83.943909 867.9254066,84.22566 874.6658065999999,84.504309 881.4149066,84.778588 888.1824065999999,85.047251 894.9794066,85.309043 901.8187065999999,85.56268 908.7154065999999,85.80699 915.6813066,86.043542 922.7114065999999,86.275878 929.7668066,86.506735 936.8152065999999,86.73921700000001 943.7802065999999,86.97485 950.5750065999999,87.21423700000001 957.1189066,87.45715700000001 963.3486065999999,87.701606 969.2312066,87.944365 974.7605066,88.183113 979.9480065999999,88.41642200000001 984.8153066,88.643528 989.3878065999999,88.86411890000001 993.6922066,89.0781778 997.7538066,89.2858619 1001.5961066,89.4874279 1004.7674066,89.65752" stroke="black" stroke-width="2.0" /></svg>