<?xml version="1.0" encoding="utf-8" ?>
<svg baseProfile="full" height="116.28762" version="1.1" width="1012.153079" xmlns="http://www.w3.org/2000/svg" xmlns:ev="http://www.w3.org/2001/xml-events" xmlns:xlink="http://www.w3.org/1999/xlink"><defs /><polygon fill="none" points="1004.153079,95.141 1001.106879,94.84886 997.437579,94.48049800000001 993.586079,94.07442400000001 989.5356790000001,93.625899 985.2692790000001,93.129553 980.769079,92.579383 976.0183790000001,91.968841 971.0030790000001,91.291047 965.714779,90.539232 960.153979,89.707482 954.3357790000001,88.791829 948.293079,87.79280800000001 942.073879,86.72079000000001 935.733079,85.59175 929.325379,84.424 922.898179,83.23617 916.486879,82.04529000000001 910.112379,80.86577000000001 903.7809790000001,79.70896 897.487079,78.58124000000001 891.220879,77.47982 884.9739790000001,76.40046000000001 878.7385790000001,75.3392 872.508179,74.29241 866.2769790000001,73.25665000000001 860.039979,72.22865 853.792879,71.20529 847.5320790000001,70.18356 841.2548790000001,69.16056 834.9591790000001,68.13346000000001 828.643679,67.09952000000001 822.307679,66.05605 815.951579,65.00048000000001 809.576579,63.930310000000006 803.1845790000001,62.84315000000001 796.778579,61.73772 790.360979,60.615680000000005 783.934279,59.479200000000006 777.500579,58.330490000000005 771.061879,57.17172 764.619979,56.00506 758.176279,54.83268000000001 751.732079,53.656670000000005 745.288479,52.479110000000006 738.8462790000001,51.30205000000001 732.4060790000001,50.127460000000006 725.9681790000001,48.95729000000001 719.5325789999999,47.793420000000005 713.099279,46.6377 706.6678790000001,45.491910000000004 700.2376790000001,44.35774000000001 693.808079,43.23586000000001 687.378679,42.12603000000001 680.949079,41.02799000000001 674.518579,39.94149 668.0868790000001,38.866260000000004 661.653279,37.80205 655.217479,36.74862 648.778779,35.70570000000001 642.3367790000001,34.67305000000001 635.890779,33.65044 629.4402790000001,32.63761000000001 622.984679,31.63431 616.5234790000001,30.640320000000003 610.0559790000001,29.655389999999997 603.581579,28.679270000000002 597.0995790000001,27.711759999999998 590.609579,26.752750000000006 584.111079,25.802189999999996 577.6040790000001,24.860070000000007 571.088879,23.926440000000014 564.5659790000001,23.001379999999997 558.036379,22.085000000000008 551.5011790000001,21.17747 544.9618790000001,20.27897 538.420279,19.389740000000003 531.878679,18.510019999999997 525.3391790000001,17.640100000000004 518.804779,16.780280000000005 512.278379,15.930900000000008 505.7631789999999,15.092290000000006 499.26257899999996,14.264950000000013 492.780179,13.451120000000017 486.31867900000003,12.654110000000003 479.880579,11.877080000000007 473.467379,11.123040000000003 467.080179,10.394819999999996 460.719679,9.695120000000003 454.38577899999996,9.026470000000003 448.07817900000003,8.391310000000004 441.795879,7.791940000000011 435.537679,7.230580000000003 429.301879,6.709390000000013 423.086279,6.230469999999997 416.88867899999997,5.795879999999997 410.70617899999996,5.407690000000002 404.535779,5.067980000000006 398.37397899999996,4.778470000000013 392.21737899999994,4.538070000000005 386.06297900000004,4.344610000000003 379.907379,4.196010000000001 373.747679,4.090280000000007 367.58067900000003,4.0255499999999955 361.40337900000003,4.0 355.21277899999995,4.01191 349.005779,4.059580000000011 342.779279,4.1413900000000154 336.530179,4.255740000000003 330.255379,4.401070000000004 323.95147899999995,4.575829999999996 317.615179,4.778500000000008 311.24307899999997,5.007549999999995 304.831379,5.261449999999996 298.376479,5.538890000000009 291.87497899999994,5.840360000000004 285.32477900000004,6.167200000000008 278.726579,6.520700000000005 272.125179,6.899540000000016 265.566379,7.301680000000005 259.042379,7.7279100000000085 252.54297899999997,8.179330000000007 246.056379,8.657290000000017 239.568879,9.16349000000001 233.064779,9.700050000000005 226.525779,10.269599999999997 219.938279,10.874710000000007 213.39757899999998,11.50742000000001 206.96027899999999,12.161929999999998 200.64567899999997,12.835520000000002 194.47007899999997,13.530470000000008 188.43937899999997,14.254860000000008 182.548379,15.017020000000002 176.78377899999998,15.825400000000002 171.126379,16.688900000000004 165.552779,17.617329999999995 160.035379,18.622020000000006 154.54237899999998,19.716700000000003 149.035979,20.91713 143.475179,22.231650000000002 137.82647899999998,23.664230000000003 132.067779,25.216970000000003 126.192379,26.88779000000001 120.214079,28.667320000000004 114.173679,30.535680000000013 108.141479,32.46069 102.21034900000001,34.39981 96.477889,36.32117000000001 90.999379,38.230140000000006 85.772659,40.147600000000004 80.761819,42.10228000000001 75.913059,44.129070000000006 71.164509,46.25825000000001 66.471559,48.50844000000001 61.814249,50.89007 57.195339,53.40297000000001 52.639459,56.033100000000005 48.189778999999994,58.74269000000001 43.880769,61.48015 39.717599,64.21204 35.683088999999995,66.92320000000001 31.743779,69.61318 27.850219,72.29523 23.980949000000003,74.99679 20.501669,77.51145000000001 17.726429,79.60118 15.534829,81.31129 13.760373000000001,82.74903 12.291084999999999,83.99553 11.04698,85.10635 9.976016999999999,86.11696 9.043719,87.05065 8.226376,87.923439 7.507109,88.746804 6.873555,89.529274 6.316470000000001,90.277388 5.828838,90.99629200000001 5.405296,91.69013600000001 5.0417511,92.36233700000001 4.7351192,93.015765 4.4831429,93.652878 4.2842725999999995,94.275822 4.13758783,94.886505 4.0427527,95.486658 4.0,96.077889 4.0101433,96.6617216 4.07461736,97.23964120000001 4.19552947,97.813131 4.3740346,98.3835128 4.6091119,98.951724 4.900132,99.51854800000001 5.247092,100.084654 5.650599,100.650609 6.111879,101.21687700000001 6.632816,101.783809 7.216021,102.351617 7.864932,102.920338 8.583964,103.489761 9.378698,104.059315 10.256146999999999,104.62788 11.225086000000001,105.19347400000001 12.296446,105.752705 13.483702,106.2998 14.802959,106.82481200000001 16.271849,107.310246 17.906849,107.72661000000001 19.740369,108.04525000000001 21.827249000000002,108.24058000000001 24.240539000000002,108.28762 27.074469,108.17844000000001 30.450709,107.96268 34.513439000000005,107.71875 39.326359,107.453608 44.736159,107.167405 50.402209,106.85786 56.089099,106.512304 61.825369,106.116162 67.722099,105.66922100000001 73.85186900000001,105.17560300000001 80.218869,104.647102 86.724569,104.10572900000001 93.233309,103.574055 99.663809,103.06902600000001 105.99997900000001,102.601116 112.27437900000001,102.171971 118.528179,101.77516800000001 124.79387900000002,101.40483300000001 131.096779,101.056026 137.455179,100.72441 143.880079,100.406035 150.374779,100.097206 156.93267899999998,99.794471 163.53867899999997,99.49593700000001 170.15627899999998,99.202256 176.758179,98.913655 183.355379,98.6286517 189.956979,98.34587810000001 196.56947899999997,98.06408660000001 203.194079,97.7822436 209.80937899999998,97.5004945 216.409479,97.2196272 222.995079,96.94063960000001 229.567079,96.664513 236.126579,96.39221400000001 242.674579,96.124696 249.212179,95.862902 255.740679,95.60776800000001 262.261279,95.360219 268.77527899999995,95.12118000000001 275.284179,94.891571 281.789379,94.67231500000001 288.29247899999996,94.464336 294.795079,94.268566 301.298879,94.08594400000001 307.805779,93.917367 314.317479,93.762776 320.835579,93.62131500000001 327.361479,93.492113 333.896079,93.374308 340.440279,93.267044 346.994579,93.169465 353.559279,93.08071600000001 360.134279,92.999936 366.719479,92.92626 373.314079,92.858817 379.917379,92.796729 386.528179,92.739109 393.144879,92.68506400000001 399.765879,92.633696 406.38897899999995,92.584114 413.011979,92.536033 419.632679,92.49008900000001 426.24927899999994,92.446989 432.860179,92.40743 439.464379,92.37210200000001 446.060879,92.34168600000001 452.649079,92.316856 459.22877900000003,92.298276 465.799979,92.286606 472.362979,92.282498 478.918479,92.286603 485.46737899999994,92.29957 492.010679,92.322052 498.550079,92.35470500000001 505.08707899999996,92.398193 511.623879,92.45282800000001 518.1622790000001,92.517989 524.704079,92.59291400000001 531.2506790000001,92.676845 537.803279,92.769024 544.3629790000001,92.86869300000001 550.930379,92.975087 557.5061790000001,93.08743600000001 564.090379,93.204959 570.682979,93.32686600000001 577.2837790000001,93.45235500000001 583.892279,93.580611 590.5074790000001,93.71081000000001 597.128379,93.84211300000001 603.7535790000001,93.973674 610.3813790000002,94.104723 617.0101790000001,94.234908 623.6383790000001,94.364001 630.2649790000002,94.491781 636.888879,94.618035 643.5093790000001,94.74255400000001 650.126179,94.865136 656.7390790000001,94.985585 663.3479790000001,95.10370800000001 669.953379,95.21932000000001 676.555779,95.332239 683.155879,95.442288 689.754979,95.549289 696.354279,95.65307100000001 702.955179,95.753461 709.5596790000001,95.850341 716.169479,95.943961 722.785879,96.03471900000001 729.409879,96.12300900000001 736.0413790000001,96.209215 742.670479,96.29359600000001 749.2921790000001,96.376486 755.9076790000001,96.458292 762.5184790000001,96.53942400000001 769.1262790000001,96.62029600000001 775.733679,96.7013251 782.3435790000001,96.7829361 788.959179,96.8655605 795.5844790000001,96.94963960000001 802.2131790000001,97.0354911 808.823879,97.1231906 815.411379,97.2126897 821.9727790000001,97.3037831 828.506779,97.3962869 835.013579,97.4900413 841.494779,97.58491183000001 847.953379,97.68078907 854.393779,97.7775886 860.8215790000002,97.8752508 867.2434790000001,97.9737406 873.667779,98.07304780000001 880.1038790000001,98.17318800000001 886.562979,98.2742034 893.057979,98.3761655 899.6037790000001,98.47917770000001 906.211479,98.5832742 912.778979,98.686766 919.2611790000001,98.78896 925.6742790000001,98.89013100000001 932.048979,98.990786 938.429879,99.091654 944.8780790000001,99.193726 951.4491790000001,99.297914 957.8609790000002,99.399765 963.9536790000001,99.49673100000001 969.6945790000001,99.58826300000001 975.079679,99.674266 980.1226790000001,99.75493200000001 984.8467790000001,99.83060800000001 989.2788790000001,99.901705 993.4464790000001,99.96864500000001 997.3753790000001,100.031829 1001.089479,100.09162500000001 1004.153079,100.141" stroke="black" stroke-width="2.0" /></svg>