<?xml version="1.0" encoding="utf-8" ?>
<svg baseProfile="full" height="195.96109" version="1.1" width="1012.1771311" xmlns="http://www.w3.org/2000/svg" xmlns:ev="http://www.w3.org/2001/xml-events" xmlns:xlink="http://www.w3.org/1999/xlink"><defs /><polygon fill="none" points="1004.1771311,139.6091 999.9752311,138.687644 994.9723311,137.571844 989.7912311,136.394869 984.4214311,135.151925 978.8522311,133.837899 973.0730311,132.44741 967.0738311,130.97489000000002 960.8459311,129.41476 954.3824311000001,127.76157 947.6793310999999,126.01094 940.7352311,124.16300000000001 933.5517311000001,122.22118 926.1344311,120.19129000000001 918.4929311,118.08177 910.6408311,115.90377 902.5960311,113.67107 894.3797311,111.39813000000001 886.0174311000001,109.09471 877.5365311,106.76959 868.9647311,104.43151 860.3282311,102.08878999999999 851.6510311,99.74892 842.9535311,97.41835 834.2517311,95.10226 825.5571311,92.80449999999999 816.8766311,90.52758 808.2120311,88.27271999999999 799.5609311,86.03995 790.9168311000001,83.82801 782.2725311,81.63490999999999 773.6221311,79.45888 764.9605311,77.29848 756.2838311,75.15258 747.5891310999999,73.02037 738.8749310999999,70.90128 730.1404311,68.79505999999999 721.3863311,66.70173000000001 712.6143311,64.62159 703.8274310999999,62.55519000000001 695.0298311,60.503370000000004 686.2265311,58.467349999999996 677.4220311,56.44837000000001 668.6200310999999,54.447500000000005 659.8237310999999,52.46558 651.0352311,50.503280000000004 642.2560311,48.56107 633.4869311,46.63922000000001 624.7278311,44.737880000000004 615.9780311,42.857 607.2360311,40.996399999999994 598.4997311000001,39.1558 589.7663311,37.33489999999999 581.0339310999999,35.5343 572.3029311,33.7552 563.5764311,31.999300000000005 554.8598311,30.2688 546.1614311,28.5663 537.4912311,26.894599999999997 528.8619311,25.2569 520.2873311,23.65650000000001 511.7830311000001,22.096599999999995 503.3652311,20.58040000000001 495.0502311,19.11099999999999 486.8535311,17.69290000000001 478.78573109999996,16.33279999999999 470.85183109999997,15.035899999999998 463.05203109999997,13.805800000000005 455.3829311,12.645199999999988 447.8382311,11.555900000000008 440.40953110000004,10.538899999999984 433.0870311,9.595100000000002 425.8594311,8.724999999999994 418.7147311,7.929200000000009 411.6399311,7.208100000000002 404.62153109999997,6.562700000000007 397.6452311,5.993799999999993 390.6957311,5.502199999999988 383.7591311,5.085000000000008 376.8230311,4.739100000000008 369.8770311,4.4617999999999824 362.91203110000004,4.2509000000000015 355.9203311,4.104600000000005 348.8959311,4.021500000000003 341.8340311,4.0 334.7314311,4.039199999999994 327.58663110000003,4.137699999999995 320.39983110000003,4.294200000000018 313.1733311,4.5075999999999965 305.9115311,4.776100000000014 298.62093109999995,5.0978999999999814 291.3105311,5.471299999999985 283.9916311,5.897899999999993 276.67773109999996,6.380300000000005 269.38393110000004,6.920900000000017 262.1271311,7.521200000000022 254.92523109999996,8.181999999999988 247.7964311,8.903400000000005 240.7592311,9.684699999999992 233.8309311,10.524099999999976 227.02783110000001,11.419399999999996 220.3645311,12.36760000000001 213.8533311,13.36529999999999 207.5041311,14.408500000000004 201.3245311,15.49329999999999 195.31963109999998,16.615300000000005 189.4927311,17.773299999999992 183.8417311,18.969400000000007 178.3578311,20.206999999999994 173.0283311,21.489900000000006 167.8375311,22.82260000000001 162.7687311,24.210399999999993 157.8039311,25.659599999999998 152.9245311,27.177499999999995 148.1112311,28.7731 143.3428311,30.4546 138.5985311,32.22240000000001 133.8639311,34.073499999999996 129.1318311,36.00279999999999 124.4022311,38.0022 119.6828311,40.05969999999999 114.98863109999999,42.1593 110.34173109999999,44.28135999999999 105.7692311,46.40298 101.3005111,48.50018 96.9644011,50.55042 92.78720109999999,52.54396000000001 88.7855211,54.48308 84.9643911,56.37291999999999 81.3210311,58.21992 77.8479111,60.03099 74.53502110000001,61.812929999999994 71.37146109999999,63.57140000000001 68.34693109999999,65.30968 65.4521511,67.03025000000001 62.6787711,68.73528 60.0192311,70.4266 57.4666711,72.10579 55.0148611,73.77422 52.6581111,75.43309 50.3912311,77.08343 48.20915109999999,78.72535 46.106771099999996,80.35695000000001 44.0797611,81.97605 42.1244711,83.5805 40.2377311,85.16822 38.4167311,86.73722000000001 36.6589211,88.28569 34.9619511,89.81196 33.3235811,91.31457 31.741691099999997,92.79223999999999 30.2142211,94.2439 28.7391711,95.66869 27.3145711,97.06592 25.9386111,98.43536 24.6106911,99.77948 23.3307711,101.102 22.0986511,102.40611 20.913921100000003,103.69455 19.7760211,104.96965 18.684231099999998,106.23339999999999 17.637681100000002,107.4875 16.635401100000003,108.73336 15.6763311,109.97219000000001 14.7593411,111.20498 13.8838361,112.43148 13.049885100000001,113.65001000000001 12.2572941,114.85919 11.505607099999999,116.05808 10.7941961,117.24605 10.1223241,118.42273 9.489196100000001,119.58797 8.8940001,120.74175 8.3359281,121.88419999999999 7.8142011,123.01552 7.3280811,124.13598999999999 6.8768820999999996,125.24596 6.4599771,126.3458 6.076806100000001,127.43593 5.7268721,128.51676 5.4097531,129.58877 5.1250986,130.6524 4.8726314,131.70815 4.6521519,132.756482 4.4635382,133.7979 4.3067489,134.832901 4.181825929,135.861993 4.08889782,136.885693 4.028184,137.904529 4.0,138.919042 4.0047641,139.929787 4.0430049,140.937338 4.11537105,141.9422925 4.22262799,142.9452691 4.3650400000000005,143.94673 4.5421417,144.946871 4.7535340999999995,145.945821 4.998936,146.943658 5.2781761,147.940412 5.5911840999999995,148.936061 5.9379901,149.930527 6.318714099999999,150.923678 6.733568099999999,151.915318 7.1828501,152.90518 7.6669411,153.89294 8.186308100000002,154.87816 8.741496099999999,155.86033 9.3331291,156.83884 9.9619081,157.81295 10.6286061,158.78177 11.3340651,159.74428 12.0791901,160.69927 12.8649401,161.64533 13.6923141,162.58079 14.562341100000001,163.50375 15.476051100000001,164.41197 16.4344511,165.30287 17.4384911,166.17347 18.489001100000003,167.02048 19.5866011,167.84286 20.7317511,168.64193 21.9247611,169.41938 23.1657911,170.17717 24.454761100000002,170.91764 25.7913311,171.64349 27.174841100000002,172.35791 28.6042411,173.06456 30.0780111,173.76769000000002 31.594141099999998,174.47201 33.1519711,175.1793 34.7524111,175.88819999999998 36.3964111,176.59707 38.084961099999994,177.30408 39.819071099999995,178.00728 41.5998211,178.70453 43.4283911,179.39353 45.30612109999999,180.0718 47.2345711,180.73669 49.2156111,181.3854 51.25150109999999,182.01489 53.34505109999999,182.62193 55.4997711,183.20304 57.7200611,183.75459 60.0107211,184.27469 62.376761099999996,184.76276000000001 64.8237311,185.21813 67.35780109999999,185.64007 69.9858011,186.02778999999998 72.7153611,186.38043 75.5549011,186.69707 78.5137111,186.97678000000002 81.6019811,187.21866 84.8312411,187.42208 88.21593109999999,187.58742 91.7724811,187.7159 95.5188611,187.80986000000001 99.4740911,187.87324 103.6572611,187.91236 108.0854311,187.93669 112.7713311,187.95321 117.7228311,187.96109 122.94283109999999,187.9586 128.42763109999999,187.94389 134.1676311,187.91507000000001 140.14753109999998,187.87025 146.3492311,187.80759 152.75633109999998,187.72532 159.3592311,187.62162 166.1578311,187.49461 173.1549311,187.3424 180.35153110000002,187.16306 187.74703110000002,186.95461 195.3380311,186.71514 203.1190311,186.44278 211.0812311,186.13591 219.2132311,185.79475 227.5016311,185.42132 235.9315311,185.01823 244.4874311,184.58865 253.1531311,184.13619 261.9132311,183.66486 270.75293109999996,183.17895 279.65953110000004,182.68295 288.6220311,182.18143 297.6325311,181.679 306.6855311,181.18023 315.7790311,180.68853000000001 324.9120311,180.20367 334.0836311,179.72462000000002 343.2924311,179.25032 352.5370311,178.7797 361.8159311,178.31167 371.1270311,177.84511 380.4685311,177.3789 389.8378311,176.91189 399.2324311,176.44292000000002 408.6495311,175.97084999999998 418.08613110000005,175.49506 427.5394311,175.01595 437.0068311,174.534 446.4858311,174.04966000000002 455.97453110000004,173.5634 465.47103109999995,173.07567 474.9736311,172.5869 484.48133110000003,172.09751 493.9930311,171.60792 503.5081311,171.11852 513.0262311000001,170.62965 522.5471311,170.14136 532.0707311,169.65357 541.5968310999999,169.16618 551.1252311000001,168.67909 560.6560311,168.19222 570.1889311,167.70547 579.7239311000001,167.21874 589.2608311,166.73194 598.7997311,166.24498 608.3404310999999,165.75774 617.8830311,165.27019 627.4272311,164.78237000000001 636.9727311,164.29431 646.5192311000001,163.80608 656.0662311,163.31773 665.6130311,162.82934 675.1587311,162.34099 684.7026311,161.85274 694.2434311000001,161.3647 703.7802311,160.87696 713.3115311,160.3896 722.8361311,159.90268 732.3529311000001,159.41623 741.8610311,158.93024 751.3596311,158.44474 760.8482311,157.9597 770.3265311,157.47512 779.7942310999999,156.99098 789.2515311,156.50723 798.6984311,156.02383 808.1354311,155.54074 817.5625311,155.05795 826.9775311,154.57562000000001 836.3751311,154.09405 845.7469311,153.61373 855.0817311,153.13528 864.3656311,152.65944 873.5828310999999,152.187076 882.7156311,151.719133 891.7452311,151.256602 900.6529311,150.800487 909.4199311,150.35177 918.0256310999999,149.911502 926.4409311,149.481125 934.6310311,149.06239 942.5601310999999,148.657095 950.1961311,148.266842 957.5146311,147.892864 964.5010311,147.535883 971.1534311,147.195994 977.4800311,146.872771 983.4956311,146.56546600000001 989.2180311,146.27315 994.6670311,145.994822 999.8623311,145.729469 1004.1771311,145.5091" stroke="black" stroke-width="2.0" /></svg>