<?xml version="1.0" encoding="utf-8" ?>
<svg baseProfile="full" height="104.126997" version="1.1" width="1012.2611232" xmlns="http://www.w3.org/2000/svg" xmlns:ev="http://www.w3.org/2001/xml-events" xmlns:xlink="http://www.w3.org/1999/xlink"><defs /><polygon fill="none" points="1004.2611232,85.2398 1001.4324232,84.672105 998.0053232,83.98595 994.3817232,83.262448 990.5391232000001,82.49745 986.4524232,81.686347 982.0939232,80.824153 977.4347232,79.905721 972.4467232000001,78.92620000000001 967.1070232000001,77.88187 961.4050232000001,76.77155 955.3530232,75.59856 949.0461232,74.38207 942.8494232,73.19186 936.7589232000001,72.02576 930.7030232000001,70.86889 924.6286232,69.71000000000001 918.4956232,68.54036 912.2754232000001,67.35344 905.9533232000001,66.14518000000001 899.6136232,64.93062 893.3560232000001,63.729780000000005 887.1635232,62.54127 881.0201232,61.3638 874.9120232,60.19643000000001 868.8274232,59.038560000000004 862.7559232000001,57.88985 856.6883232000001,56.750260000000004 850.6169232000001,55.61999 844.5348232,54.49947 838.4362232,53.3894 832.3161232,52.290710000000004 826.1707232000001,51.20459 819.9971232,50.132490000000004 813.7936232000001,49.07609 807.5594232000001,48.03736 801.2951232,47.01843 795.0026232,46.02008 788.6844232000001,45.041320000000006 782.3428232,44.081010000000006 775.9805232000001,43.13793 769.5999232,42.21083 763.2034232,41.298370000000006 756.7934232000001,40.399190000000004 750.3723232,39.511860000000006 743.9424232,38.63492 737.5060232000001,37.76688000000001 731.0651232,36.90621 724.6219232000001,36.05137 718.1784232,35.20078 711.7365232,34.352850000000004 705.2979232,33.50598 698.8644232,32.65886 692.4371232000001,31.812220000000003 686.0169232000001,30.96765 679.6046232,30.126689999999996 673.2005232,29.29085 666.8048232,28.46159 660.4177232000001,27.640340000000002 654.0389232,26.8285 647.6681232,26.0274 641.3047232000001,25.23836 634.9480232000001,24.462680000000006 628.5969232,23.7016 622.2504232,22.956350000000015 615.9071232000001,22.22815 609.5656232000001,21.518190000000004 603.2241232000001,20.827669999999998 596.8809232000001,20.15719 590.5343232000001,19.505920000000003 584.1831232000001,18.872799999999998 577.8260232000001,18.25681 571.4622232,17.656949999999995 565.0907232000001,17.072239999999994 558.7111232000001,16.501729999999995 552.3229232000001,15.944500000000005 545.9259231999999,15.399619999999999 539.5201232000001,14.866189999999989 533.1058232,14.343310000000002 526.6833232,13.830089999999998 520.2534232,13.32566 513.8167232,12.829150000000013 507.37452320000006,12.339690000000004 500.9280232,11.856470000000002 494.4785232,11.37951000000001 488.0274232,10.909770000000009 481.57582319999995,10.448190000000011 475.1249232,9.995739999999998 468.6758232,9.553349999999995 462.2296232,9.121949999999998 455.78702319999996,8.702450000000013 449.34912319999995,8.295760000000001 442.91662319999995,7.902739999999994 436.4903232,7.5242800000000045 430.0708232,7.161209999999997 423.6588232,6.81438 417.2547232,6.4846 410.8590232,6.172660000000008 404.47202319999997,5.8793600000000055 398.0942232,5.605420000000009 391.7258232,5.351379999999992 385.3668232,5.117720000000006 379.01712319999996,4.9048700000000025 372.67632319999996,4.713280000000012 366.3438232,4.543390000000002 360.0187232,4.39564 353.6999232,4.270480000000006 347.3862232,4.168360000000007 341.0761232,4.089749999999995 334.7677232,4.035130000000009 328.4593232,4.005030000000005 322.1487232,4.0 315.8333232,4.020610000000005 309.5106232,4.0674900000000065 303.17772319999995,4.14134 296.8315232,4.2428799999999995 290.4693232,4.37285 284.0895232,4.532020000000003 277.6915232,4.721170000000001 271.2756232,4.94104999999999 264.8435232,5.192400000000006 258.3976232,5.475849999999994 251.9420232,5.791970000000006 245.4815232,6.1411700000000025 239.0225232,6.523690000000002 232.57212319999996,6.9395800000000065 226.1387232,7.388660000000002 219.7317232,7.870499999999993 213.3607232,8.384410000000003 207.03652319999998,8.929400000000001 200.76942319999998,9.50430999999999 194.56882319999997,10.108999999999995 188.4369232,10.744830000000007 182.3680232,11.413929999999993 176.34992319999998,12.119250000000008 170.3639232,12.864810000000006 164.3853232,13.65598 158.3823232,14.499950000000013 152.31402319999998,15.40646000000001 146.13082319999998,16.38767 139.79952319999998,17.453630000000004 133.51942319999998,18.57315 127.37192320000001,19.729860000000002 121.2863232,20.935029999999998 115.1663232,22.20804000000001 108.8976232,23.576240000000013 102.81392319999999,24.967020000000005 97.1777632,26.32603000000001 91.9673432,27.683370000000004 87.0757832,29.084900000000005 82.3696932,30.586870000000005 77.6892832,32.26966 72.8050332,34.24509 67.4478732,36.6283 61.7437032,39.34552 56.0899832,42.13913000000001 50.6421332,44.856440000000006 46.247123200000004,47.10680000000001 42.6359932,49.06018 39.5429932,50.85587 36.7992732,52.585010000000004 34.294713200000004,54.317209999999996 31.9476832,56.12188 29.6822732,58.09404 27.383383199999997,60.41333 24.7488532,63.4307 21.4136832,67.41845 18.147503200000003,71.05249 15.6927332,73.49222 13.7879572,75.26416 12.2581972,76.66676 10.9840122,77.84651 9.8971872,78.87727000000001 8.9562122,79.800987 8.134124199999999,80.643814 7.4124842,81.423197 6.778200200000001,82.151419 6.2217262,82.837493 5.7359942,83.488266 5.3157402000000005,84.109089 4.9570736,84.70425 4.6571958,85.277268 4.4142148,85.831086 4.2270286,86.368223 4.0952601,86.89087500000001 4.0192352,87.401005 4.0,87.900402 4.0393807,88.3907485 4.1400941,88.8736703 4.30590925,89.3507941 4.5398637,89.8236323 4.8421322,90.293318 5.2134881,90.760807 5.6558242,91.22693100000001 6.172264200000001,91.692406 6.7673632,92.157822 7.4474412,92.62361 8.2210882,93.089966 9.099954199999999,93.556702 10.0999812,94.022949 11.243363200000001,94.48653 12.5617122,94.942582 14.101010200000001,95.38023 15.9274332,95.77368200000001 18.1238532,96.058936 20.8185532,96.126997 24.1722332,95.841671 28.1477232,95.17788300000001 32.5614532,94.406676 37.404733199999995,93.67858100000001 42.6716232,93.00088 48.323783199999994,92.37558200000001 54.2864632,91.79839700000001 60.4631032,91.25986400000001 66.7785832,90.755118 73.1690432,90.277529 79.5849632,89.81675820000001 85.99542319999999,89.3644494 92.3789432,88.92642120000001 98.72600320000001,88.51059980000001 105.0397232,88.123791 111.3343232,87.769506 117.6280232,87.444205 123.9355232,87.143617 130.2676232,86.86382400000001 136.63122319999997,86.601129 143.02952319999997,86.351962 149.46082319999996,86.112819 155.91932319999998,85.880253 162.39452319999998,85.652542 168.87572319999998,85.43114800000001 175.35402319999997,85.21779000000001 181.8229232,85.014073 188.2779232,84.82148600000001 194.7169232,84.641409 201.13982319999997,84.475137 207.5487232,84.323846 213.9470232,84.187658 220.3383232,84.06573900000001 226.72582319999998,83.957254 233.1125232,83.861407 239.50082319999999,83.77742500000001 245.89292319999998,83.70456200000001 252.29082319999998,83.642083 258.6960232,83.58926600000001 265.10972319999996,83.54539700000001 271.53292319999997,83.50976200000001 277.96612319999997,83.481649 284.40972320000003,83.460342 290.86342319999994,83.44512 297.32692319999995,83.435254 303.79932319999995,83.430008 310.2795232,83.428701 316.76622319999996,83.430955 323.25812319999994,83.436481 329.75422319999996,83.444988 336.2527232,83.45618 342.7498232,83.46975400000001 349.24552320000004,83.485409 355.74062319999996,83.502848 362.23572319999994,83.521775 368.7313232,83.541893 375.2278232,83.562907 381.7256232,83.584519 388.2243232,83.60643 394.72182319999996,83.628335 401.2179232,83.649934 407.7127232,83.670942 414.2063232,83.691299 420.6990232,83.711153 427.1910232,83.730656 433.6824232,83.749964 440.17342319999995,83.76923000000001 446.6640232,83.788608 453.15452319999997,83.808251 459.64482319999996,83.82831300000001 466.1351232,83.84894700000001 472.62532319999997,83.870307 479.1155232,83.892546 485.6057232,83.915817 492.0958232,83.940273 498.5858232,83.966068 505.07572319999997,83.99335500000001 511.56522320000005,84.022291 518.0544232000001,84.053049 524.5432232,84.085806 531.0313232,84.120735 537.5188232,84.158012 544.0055232000001,84.197811 550.4913232,84.240307 556.9762232,84.285674 563.4600232000001,84.334086 569.9426232,84.385716 576.4239232,84.440737 582.9039232,84.499322 589.3824232,84.561643 595.8593232,84.627872 602.3346232000001,84.698179 608.8081232,84.772711 615.2798232000001,84.851339 621.7497232000001,84.933781 628.2180232000001,85.019754 634.6848232000001,85.10897700000001 641.1506232,85.201172 647.6157232,85.296062 654.0807232000001,85.393373 660.5463232000001,85.492835 667.0131232,85.594178 673.4821232,85.697134 679.9540232,85.80144 686.4302232,85.906831 692.9115232,86.013046 699.3994232,86.11982400000001 705.8947232,86.226895 712.3860232,86.333899 718.8670232000001,86.440765 725.3370232000001,86.547543 731.7961232000001,86.654291 738.2448232,86.761075 744.6842232,86.867968 751.1156232000001,86.975053 757.5413232,87.08242 763.9635232,87.190166 770.3853232000001,87.298398 776.8102232,87.407233 783.2421232,87.516796 789.6855232,87.627225 796.1456232,87.73867 802.6279232,87.851293 809.1122232000001,87.964833 815.5629232,88.078986 821.9757232,88.194104 828.3494232,88.31057080000001 834.6844232,88.4287882 840.9830232,88.5491765 847.2490232,88.6721778 853.4876232,88.79825960000001 859.7057232000001,88.9279209 865.9111232,89.0617005 872.1136232000001,89.20018798 878.3241232,89.3440377 884.5555232,89.4939873 890.8226232000001,89.6508827 897.1431232,89.8157104 903.5374232,89.9896401 910.0034232,90.17314350000001 916.3896232000001,90.36130200000001 922.6719232,90.552238 928.8752232,90.745605 935.0376232000001,90.941633 941.2108232,91.141126 947.4637232,91.34554800000001 953.8739232,91.556684 960.1395232000001,91.76384900000001 966.0486232000001,91.95978000000001 971.5785232000001,92.143625 976.7358232,92.315507 981.5431232000001,92.476095 986.0302232,92.626306 990.2283232000001,92.767124 994.1675232,92.899503 997.8751232000001,93.024321 1001.3759232,93.14236700000001 1004.2611232,93.2398" stroke="black" stroke-width="2.0" /></svg>