<?xml version="1.0" encoding="utf-8" ?>
<svg baseProfile="full" height="96.43786999999999" version="1.1" width="1012.06089166" xmlns="http://www.w3.org/2000/svg" xmlns:ev="http://www.w3.org/2001/xml-events" xmlns:xlink="http://www.w3.org/1999/xlink"><defs /><polygon fill="none" points="1004.06089166,69.9567 1000.6051916600001,69.58612299999999 996.44019166,69.129268 992.06639166,68.637479 987.46649166,68.106957 982.6231916600001,67.533592 977.5199916600001,66.913062 972.14339166,66.24104899999999 966.48509166,65.51359399999998 960.54579166,64.727655 954.33929166,63.88184699999999 947.89609166,62.978185999999994 941.2608916600001,62.02603299999999 934.48499166,61.03868999999999 927.6189916600001,60.03081999999999 920.7074916600001,59.01700999999999 913.7835916600001,58.01052999999999 906.86659166,57.0226 899.9614916600001,56.06183999999999 893.06329166,55.129189999999994 886.16579166,54.22023999999999 879.2639916600001,53.330619999999996 872.35349166,52.45612999999999 865.43089166,51.59270999999999 858.49339166,50.736369999999994 851.53929166,49.883219999999994 844.5674916600001,49.02942999999999 837.57819166,48.17119999999999 830.5720916600001,47.30481999999999 823.55099166,46.42661 816.5177916600001,45.53300999999999 809.47629166,44.62053999999999 802.43139166,43.68585999999999 795.3884916600001,42.727869999999996 788.35219166,41.75058999999999 781.3259916600001,40.758669999999995 774.31279166,39.75665999999999 767.31429166,38.74895999999999 760.3310916600001,37.73978999999999 753.36349166,36.73318999999999 746.4102916600001,35.73302999999999 739.46989166,34.74300999999999 732.53959166,33.766679999999994 725.61629166,32.807449999999996 718.69559166,31.868619999999993 711.7725916600001,30.95340999999999 704.8415916600001,30.065009999999994 697.89599166,29.205999999999996 690.9293916600001,28.374759999999988 683.93679166,27.56781999999999 676.91399166,26.781899999999993 669.8578916600001,26.013769999999987 662.76669166,25.26030999999999 655.6394916600001,24.51845999999999 648.47709166,23.785209999999992 641.2812916600001,23.057579999999994 634.0557916600001,22.332659999999997 626.8055916600001,21.607609999999994 619.53739166,20.87964999999999 612.2594916600001,20.146159999999995 604.98179166,19.40462999999999 597.7154916600001,18.653319999999994 590.47159166,17.895239999999994 583.2586916600001,17.135499999999986 576.08359166,16.37892999999999 568.9502916600001,15.629979999999996 561.8613916600001,14.892769999999992 554.81699166,14.171049999999987 547.8159916600001,13.46824999999999 540.85529166,12.78752999999999 533.93069166,12.131799999999991 527.03639166,11.503789999999988 520.16549166,10.906099999999995 513.30989166,10.341259999999991 506.45989166000004,9.811809999999994 499.60499166,9.320219999999992 492.73339166,8.866209999999988 485.83489166,8.44693999999999 478.90039166,8.05968999999999 471.92229166,7.701949999999989 464.89419166,7.3712699999999955 457.81149166,7.065309999999997 450.67089166,6.781729999999996 443.47139165999994,6.518179999999987 436.21379165999997,6.27225 428.90139166,6.0414599999999865 421.54009166,5.8232599999999906 414.13879166,5.615009999999998 406.70919166,5.413979999999995 399.26579166,5.21754 391.82509166,5.026029999999992 384.40179165999996,4.842590000000001 377.00829165999994,4.670359999999988 369.65409166,4.512259999999998 362.34619165999993,4.371009999999984 355.08889166,4.24915 347.88449166,4.148989999999998 340.73299166,4.07271999999999 333.63259166,4.02239999999999 326.57959165999995,4.0 319.56909165999997,4.007439999999988 312.59459166,4.046689999999998 305.64829166,4.119739999999993 298.72099166,4.228539999999995 291.80319166,4.372669999999985 284.88569165999996,4.550039999999996 277.96049166,4.758669999999995 271.02029166,4.996679999999998 264.05839166,5.262259999999998 257.06919166,5.553609999999992 250.04739166000002,5.868949999999984 242.98879166,6.20644999999999 235.88969166,6.564219999999992 228.74729166000003,6.94028999999999 221.55989166,7.33256999999999 214.32669166000002,7.738829999999993 207.04779166,8.156679999999994 199.72489166000003,8.583709999999982 192.36389166,9.021289999999993 184.98769166,9.474429999999991 177.64069166000002,9.946829999999999 170.38589166,10.44021999999999 163.29699166,10.954129999999992 156.44709166,11.48601999999999 149.89769166,12.032219999999995 143.68629166000002,12.597359999999995 137.80849166000002,13.193579999999997 132.23039166,13.831559999999989 126.90719166,14.520949999999992 121.79109165999999,15.271229999999996 116.83499166,16.09272999999999 111.99219165999999,16.997609999999995 107.21499166,18.001239999999996 102.45164165999999,19.124149999999993 97.64200165999999,20.384739999999987 92.73539166,21.77895999999999 87.71790166,23.287899999999993 82.62923166,24.871619999999993 77.57264166,26.465039999999995 72.69233166,28.005149999999993 68.09277166,29.47934999999999 63.80209166,30.89665999999999 59.80217166,32.273149999999994 56.05656166000001,33.62622999999999 52.52574166,34.972069999999995 49.17362166,36.316179999999996 45.97922166,37.64507 42.938051660000006,38.94142999999999 40.053581660000006,40.18818999999999 37.331021660000005,41.37087999999999 34.77330166,42.47918999999999 32.379341659999994,43.507419999999996 30.14392166,44.45412999999999 28.058581659999998,45.321279999999994 26.11478166,46.123329999999996 24.30503166,46.88837999999999 22.62012166,47.63780999999999 21.050121660000002,48.38636999999999 19.58522166,49.14413999999999 18.21613166,49.91779 16.934321660000002,50.711679999999994 15.732131659999999,51.528319999999994 14.604931659999998,52.36482999999999 13.550368659999998,53.21422999999999 12.56556766,54.07121999999999 11.64739566,54.931929999999994 10.79271666,55.793589999999995 9.99854066,56.65419999999999 9.26209566,57.51234999999999 8.58086066,58.36702999999999 7.95258066,59.21755999999999 7.37525366,60.063509999999994 6.84713266,60.90458999999999 6.36670366,61.74068399999999 5.93267566,62.57175899999999 5.54397266,63.39786599999999 5.19971666,64.21911899999999 4.89922246,65.03568299999999 4.6419913600000005,65.84776399999998 4.42770546,66.65559999999999 4.25622696,67.459462 4.1275992200000005,68.25964599999999 4.04205019,69.056474 4.0,69.85029399999999 4.00207145,70.64148089999999 4.0491049,71.4304368 4.14188938,72.21751379999999 4.27959166,73.002534 4.46088076,73.785061 4.68465166,74.564595 4.95000256,75.340571 5.25621466,76.112348 5.60273466,76.87919799999999 5.98916566,77.64029799999999 6.415253659999999,78.394712 6.880882659999999,79.14137399999998 7.38606366,79.879072 7.93093966,80.60641799999999 8.51577266,81.321822 9.14095066,82.02346 9.80697966,82.70920999999998 10.51448666,83.37662999999999 11.26421566,84.02288999999999 12.05702766,84.64464 12.893897659999999,85.23799 13.77590266,85.79831999999999 14.704211659999999,86.32015999999999 15.68006166,86.79696999999999 16.70471166,87.22089 17.77975166,87.58375 18.90861166,87.88295 20.09575166,88.11798999999999 21.34618166,88.28862 22.66552166,88.39496 24.05994166,88.43786999999999 25.53610166,88.41936 27.10082166,88.34338 28.76052166,88.21687999999999 30.52039166,88.05044 32.38755166,87.84763999999998 34.371271660000005,87.60605 36.48069166,87.32377 38.72439166,86.99999 41.10989166,86.63565 43.64342166,86.23401999999999 46.33020166,85.80135999999999 49.17627166,85.34729999999999 52.19179166,84.88502 55.39605166,84.43141999999999 58.82223166,83.99772999999999 62.51245166,83.58191 66.51795166,83.17921 70.89815166,82.78229999999999 75.71427166,82.37952999999999 81.00747166,81.95316 86.76140166,81.49112699999999 92.90166166,81.000745 99.32261165999999,80.49425099999999 105.93129166,79.983409 112.68279165999999,79.475089 119.55489166,78.97180999999999 126.52679166,78.475546 133.57889166,77.987978 140.69489166000002,77.51042699999999 147.86209166,77.04381699999999 155.07299166,76.58865999999999 162.32519166,76.14476099999999 169.61799166000003,75.710838 176.94989166,75.28544699999999 184.31849166,74.86715199999999 191.71959166000002,74.45451999999999 199.14799166000003,74.046134 206.59699166000001,73.64061199999999 214.05889166,73.23768399999999 221.52599166000002,72.83873899999999 228.99159166,72.4452551 236.44979166000002,72.05863959999999 243.89559166,71.6802269 251.32509166,71.31127319999999 258.73519166000005,70.95295599999999 266.12369165999996,70.60637689999999 273.48949166,70.272566 280.83209166,69.95248899999999 288.15209166,69.64705599999999 295.45059165999993,69.35712899999999 302.72959166,69.08353399999999 309.99189165999996,68.826979 317.24029165999997,68.58750199999999 324.47789166,68.36489399999999 331.70729166,68.15897299999999 338.93109166,67.96958799999999 346.15179165999996,67.79661399999999 353.37179166,67.639951 360.59319166,67.49952499999999 367.81829166,67.375281 375.04909166,67.267186 382.28749166,67.175229 389.53549166,67.09941599999999 396.79469166,67.03976899999999 404.06699166,66.99633 411.35399166,66.96896199999999 418.65709166,66.95679299999999 425.97769165999995,66.958767 433.31679166,66.973823 440.67509165999996,67.00088699999999 448.05339166,67.038873 455.45179165999997,67.08667299999999 462.87039165999994,67.14316399999998 470.30879166,67.20719799999999 477.76649166,67.277604 485.24249166,67.35318699999999 492.73569166,67.432728 500.24459165999997,67.514985 507.76709165999995,67.59871899999999 515.30119166,67.683267 522.84169166,67.76851199999999 530.37649166,67.854283 537.90579166,67.94054899999999 545.43139166,68.027294 552.9549916600001,68.114505 560.47829166,68.202165 568.0026916600001,68.290258 575.52959166,68.378766 583.05999166,68.46766899999999 590.59529166,68.556947 598.1358916600001,68.646575 605.67369166,68.736419 613.2041916600001,68.826287 620.72669166,68.915808 628.24119166,69.00459099999999 635.7473916600001,69.092249 643.2454916600001,69.1784 650.73589166,69.26266899999999 658.21919166,69.34468299999999 665.69629166,69.424072 673.1680916600001,69.50047199999999 680.6358916600001,69.57351899999999 688.10119166,69.642851 695.56549166,69.708103 703.0308916600001,69.768913 710.49929166,69.825013 717.9727916600001,69.87674399999999 725.45279166,69.92466599999999 732.94039166,69.969338 740.4357916600001,70.011316 747.93899166,70.05115699999999 755.44909166,70.089418 762.96489166,70.12665899999999 770.48429166,70.16343799999999 778.0049916600001,70.200313 785.52379166,70.23783999999999 793.0370916600001,70.27656999999999 800.54059166,70.317045 808.02969166,70.35980599999999 815.4994916600001,70.40554499999999 822.94609166,70.45509499999999 830.36669166,70.509277 837.75979166,70.5688984 845.12499166,70.63475209999999 852.46269166,70.70762119999999 859.77449166,70.78828419999999 867.0629916600001,70.8775206 874.33129166,70.9761193 881.5838916600001,71.08488759999999 888.82579166,71.2046613 896.0629916600001,71.33631779999999 903.30239166,71.48078955999999 910.55119166,71.63842437999999 917.80939166,71.8058971 925.05969166,71.9782278 932.26669166,72.14998949999999 939.37959166,72.3155613 946.33849166,72.46957769999999 953.08219166,72.60745999999999 959.55729166,72.726188 965.72759166,72.82606899999999 971.5783916600001,72.908823 977.11129166,72.976379 982.33859166,73.03064499999999 987.27839166,73.073394 991.95149166,73.106203 996.37929166,73.130445 1000.58259166,73.14729399999999 1004.06089166,73.15669999999999" stroke="black" stroke-width="2.0" /></svg>