<?xml version="1.0" encoding="utf-8" ?>
<svg baseProfile="full" height="210.70543999999998" version="1.1" width="1012.212706" xmlns="http://www.w3.org/2000/svg" xmlns:ev="http://www.w3.org/2001/xml-events" xmlns:xlink="http://www.w3.org/1999/xlink"><defs /><polygon fill="none" points="1004.212706,152.01039999999998 1000.586006,150.661129 996.194506,149.03446099999996 991.557206,147.325305 986.6509060000001,145.52647599999997 981.4513059999999,143.63080799999997 975.9354060000001,141.63175999999999 970.083506,139.52438999999998 963.883906,137.30683 957.338306,134.98233 950.469606,132.56151999999997 943.325906,130.06312999999997 935.973606,127.51052999999997 928.4850060000001,124.92820999999998 920.928006,122.33820999999998 913.3570060000001,119.75733999999997 905.807406,117.19550999999997 898.293606,114.65556999999998 890.8138060000001,112.13623999999999 883.361506,109.63650999999999 875.931106,107.15565999999998 868.5172060000001,104.69313999999997 861.115306,102.24860999999999 853.7211060000001,99.82187999999996 846.331006,97.41294999999997 838.9415060000001,95.02195999999998 831.5498060000001,92.64920999999998 824.153306,90.29514999999998 816.749906,87.96034999999998 809.3378060000001,85.64555999999997 801.915806,83.35162999999999 794.482706,81.07951999999997 787.038206,78.82961999999998 779.582206,76.60200999999996 772.115106,74.39683999999998 764.637206,72.21431999999997 757.149206,70.05473999999998 749.6522060000001,67.91840999999997 742.1473060000001,65.80574999999997 734.6360060000001,63.71719999999998 727.119906,61.65323999999997 719.6011060000001,59.614429999999984 712.0816060000001,57.60131999999999 704.5640060000001,55.61453999999998 697.050706,53.65469999999998 689.5447060000001,51.722699999999975 682.048106,49.820299999999975 674.562906,47.94899999999997 667.090106,46.110399999999984 659.630206,44.30569999999997 652.183306,42.53589999999997 644.7488060000001,40.802199999999985 637.325506,39.10519999999998 629.911806,37.445699999999974 622.505506,35.82429999999998 615.104106,34.241499999999974 607.704206,32.69779999999997 600.302406,31.193599999999975 592.8945060000001,29.729199999999977 585.476106,28.304199999999966 578.0436060000001,26.91709999999999 570.594006,25.56659999999998 563.125306,24.251499999999965 555.6358060000001,22.97079999999997 548.125006,21.723899999999986 540.592906,20.509899999999988 533.0404060000001,19.328299999999984 525.469406,18.178799999999967 517.8824060000001,17.060799999999972 510.282906,15.974199999999968 502.675406,14.918599999999998 495.06500600000004,13.893999999999977 487.45790600000004,12.900799999999975 479.859906,11.942499999999967 472.276906,11.023399999999981 464.71420600000005,10.147399999999976 457.176706,9.318099999999987 449.6690060000001,8.538999999999987 442.19520600000004,7.813399999999973 434.758906,7.144299999999987 427.36350600000003,6.534299999999973 420.011906,5.985899999999987 412.706406,5.5014999999999645 405.44930600000004,5.082999999999998 398.242306,4.7321999999999775 391.08670600000005,4.4506999999999834 383.983806,4.238499999999959 376.93340600000005,4.093799999999959 369.933306,4.01479999999998 362.979506,4.0 356.066206,4.04789999999997 349.186206,4.15749999999997 342.33060600000005,4.327899999999971 335.489206,4.5586999999999875 328.649906,4.8501999999999725 321.799106,5.202899999999971 314.920706,5.618199999999973 307.996306,6.098199999999991 301.00390600000003,6.645999999999958 293.9170060000001,7.265899999999988 286.703706,7.963799999999992 279.33030600000006,8.745699999999971 271.76870600000007,9.61839999999998 263.999906,10.588099999999969 256.060406,11.6541 248.244306,12.77589999999995 240.570706,13.945599999999985 232.975506,15.168299999999988 225.385606,16.453099999999978 217.71330600000002,17.814299999999974 209.856806,19.271299999999968 202.134206,20.764099999999956 194.834106,22.228699999999975 187.998006,23.65239999999997 181.614506,25.048599999999993 175.628006,26.437999999999974 169.96860600000002,27.840999999999994 164.56650599999998,29.278399999999976 159.35530599999998,30.771899999999974 154.270206,32.34619999999998 149.244306,34.03229999999998 144.199706,35.87189999999997 139.035706,37.90999999999997 133.646006,40.181899999999985 127.948406,42.71319999999997 121.927106,45.49329999999998 115.711006,48.428599999999975 109.608206,51.32599999999998 103.964106,53.97768999999998 98.960826,56.27671999999997 94.60120599999999,58.23107999999998 90.823976,59.94536999999997 87.530256,61.52300999999997 84.625446,63.030619999999985 82.037156,64.51133999999998 79.711676,65.99523999999998 77.609416,67.50509999999997 75.70104599999999,69.05982999999998 73.96483599999999,70.67662999999997 72.381276,72.36881999999997 70.916136,74.12852999999997 69.535206,75.94106999999997 68.20968599999999,77.79214999999998 66.914156,79.66708999999999 65.62538599999999,81.55021999999998 64.321576,83.42443999999998 62.982036,85.27098999999997 61.587146,87.06937999999997 60.11858599999999,88.79756999999998 58.56337599999999,90.43606999999997 56.929565999999994,91.98481999999997 55.231836,93.45131999999998 53.484206,94.84382999999997 51.699805999999995,96.17111999999997 49.890716,97.44218999999998 48.067856,98.66608999999997 46.24105599999999,99.85180999999997 44.419086,101.00813999999997 42.609716,102.14367999999999 40.819886,103.26681999999997 39.055786,104.38577999999998 37.32298599999999,105.50866999999997 35.626586,106.64352999999997 33.971296,107.79849999999998 32.361636000000004,108.98189999999997 30.801986,110.20239999999998 29.296776,111.46919999999997 27.850606,112.79230999999999 26.468436,114.18280999999998 25.150556,115.65027999999998 23.883986,117.19535999999998 22.655716,118.81286999999998 21.455416000000003,120.49155999999998 20.275576,122.21330999999998 19.111636,123.95375999999997 17.962016000000002,125.68483999999998 16.827446000000002,127.37877999999998 15.710046,129.01205999999996 14.612936000000001,130.56797999999998 13.550202000000002,132.03828 12.539207000000001,133.42352999999997 11.588621,134.72938 10.701589,135.96340999999998 9.878218,137.13345999999999 9.117084,138.24692 8.416084999999999,139.31042999999997 7.772918,140.32983 7.185338,141.31024999999997 6.6512839999999995,142.25612999999998 6.168950000000001,143.17137999999997 5.736808,144.05941799999997 5.353623,144.92327399999996 5.0184522000000005,145.76564899999997 4.7306433000000006,146.58897299999998 4.4898389,147.39545399999997 4.29597913,148.18712399999998 4.14931224,148.96587699999998 4.0504118,149.733501 4.000203,150.49171399999997 4.0,151.242193 4.0515584,151.98661199999998 4.15714691,152.7266714 4.3194541,153.46412459999996 4.5391766,154.20053899999996 4.8156400999999995,154.93724499999996 5.1486601,155.675493 5.538564,156.41648299999997 5.986188,157.16138299999997 6.492884999999999,157.91134499999998 7.060561,158.66751499999998 7.691713999999999,159.43103699999998 8.389507,160.20305599999998 9.157844,160.98470199999997 10.001477,161.77706199999997 10.926113,162.58111499999998 11.938521,163.39761 13.046587,164.22686999999996 14.259216,165.06837 15.585836,165.92001999999997 17.035035999999998,166.77688999999998 18.612036000000003,167.62946999999997 20.327586000000004,168.47097999999997 22.201266,169.30068999999997 24.254756,170.12084 26.511575999999998,170.93923999999998 28.998286000000004,171.77389999999997 31.749386,172.65963999999997 34.809956,173.62982999999997 38.22654599999999,174.69771999999998 42.040886,175.87342999999998 46.276246,177.16153999999997 50.917806,178.55593 55.89651599999999,180.03600999999998 61.098825999999995,181.56481999999997 66.416896,183.08395 71.779956,184.53886999999997 77.173626,185.89184999999998 82.648236,187.12048 88.314936,188.22961999999998 94.296516,189.26439 100.69997599999999,190.27458 107.57850599999999,191.31525999999997 114.854806,192.42247999999998 122.347706,193.56305999999998 129.867506,194.68928999999997 137.274306,195.76196999999996 144.50010600000002,196.75601999999998 151.540106,197.65862999999996 158.433406,198.46464999999998 165.246306,199.17675999999997 172.041506,199.80680999999998 178.867806,200.36423999999997 185.762506,200.85564999999997 192.752506,201.28567999999996 199.85370600000002,201.65769999999998 207.06790600000002,201.97434999999996 214.380706,202.23720999999998 221.767806,202.44406999999998 229.20460599999998,202.59224999999998 236.66840599999998,202.67977999999997 244.13920599999997,202.70543999999998 251.60020600000001,202.66859999999997 259.03810599999997,202.56910999999997 266.443806,202.40715999999998 273.81140600000003,202.18311999999997 281.13900600000005,201.89740999999998 288.427506,201.55030999999997 295.68130600000006,201.14189999999996 302.907306,200.67190999999997 310.11520600000006,200.13962999999998 317.31720600000006,199.54532999999998 324.52540600000003,198.89099999999996 331.750606,198.17852999999997 339.00200600000005,197.40968999999998 346.28800600000005,196.58619999999996 353.61520600000006,195.70980999999998 360.98940600000003,194.78239999999997 368.4145060000001,193.80605999999997 375.89290600000004,192.78312999999997 383.42540600000007,191.71638 391.01040600000005,190.60897999999997 398.644406,189.46468999999996 406.321106,188.28782999999999 414.032006,187.08319999999998 421.76780600000006,185.85526 429.520306,184.60830999999996 437.28220600000003,183.34656999999999 445.047906,182.07411999999997 452.81290600000005,180.79485999999997 460.574306,179.51246999999998 468.33050600000007,178.23041999999998 476.081406,176.95188999999996 483.828306,175.67985 491.573906,174.41701999999998 499.32250600000003,173.16588 507.079406,171.92872999999997 514.851406,170.70659999999998 522.6440060000001,169.49809999999997 530.461506,168.30182999999997 538.306306,167.11661999999998 546.1790060000001,165.94158 554.0788060000001,164.77604999999997 562.002606,163.61963999999998 569.945506,162.47219499999997 577.900506,161.33381999999997 585.858906,160.20484699999997 593.8097060000001,159.08583699999997 601.7402060000001,157.97755399999997 609.636606,156.88120099999998 617.4851060000001,155.80126499999997 625.275406,154.74387299999998 633.0009060000001,153.71440879999997 640.6583059999999,152.71750779999996 648.247206,151.75713799999997 655.769906,150.836696 663.2312059999999,149.95911399999997 670.637406,149.12697399999996 677.997106,148.34261699999996 685.320206,147.60824799999997 692.618506,146.92604799999998 699.905106,146.29828299999997 707.1953060000001,145.72728899999998 714.5049060000001,145.21249999999998 721.8484060000001,144.75038599999996 729.237406,144.33772999999997 736.681506,143.97166399999998 744.1875060000001,143.64954699999998 751.759506,143.36886399999997 759.398206,143.12712499999998 767.100906,142.92177999999998 774.860506,142.75014999999996 782.6658060000001,142.60933999999997 790.500506,142.49621999999997 798.344006,142.40738999999996 806.1712060000001,142.33926999999997 813.955006,142.29130999999998 821.672806,142.26755999999997 829.309206,142.27196999999998 836.855906,142.30805999999998 844.310406,142.37897999999998 851.675506,142.48763999999997 858.9580060000001,142.63683999999998 866.1686060000001,142.82936999999998 873.3208060000001,143.068246 880.4312060000001,143.35676999999998 887.519206,143.69878199999997 894.607406,144.09886099999997 901.7225060000001,144.56262299999997 908.8956059999999,145.09610399999997 916.156506,145.69697999999997 923.5173060000001,146.35642299999998 930.9647060000001,147.062404 938.455606,147.79875099999998 945.9168060000001,148.545146 953.2514060000001,149.27873899999997 960.3557059999999,149.97868099999997 967.1455060000001,150.63541899999998 973.573206,151.24614199999996 979.623606,151.81123699999998 985.303406,152.33311249999997 990.6328060000001,152.81519419999998 995.637906,153.26125489999998 1000.346906,153.67501319999997 1004.212706,154.01039999999998" stroke="black" stroke-width="2.0" /></svg>