<?xml version="1.0" encoding="utf-8" ?>
<svg baseProfile="full" height="97.680524" version="1.1" width="1012.1777856" xmlns="http://www.w3.org/2000/svg" xmlns:ev="http://www.w3.org/2001/xml-events" xmlns:xlink="http://www.w3.org/1999/xlink"><defs /><polygon fill="none" points="1004.1777856,80.36042 1001.3367856,79.8486725 997.8960856,79.22816 994.2601856,78.571563 990.4071856,77.87477600000001 986.3127856,77.13322600000001 981.9507856,76.34194000000001 977.2939855999999,75.495748 972.3168856,74.589698 966.9995855999999,73.619848 961.3349856,72.584535 955.3386856,71.48619400000001 949.0924856,70.33962000000001 942.9329856,69.20795000000001 936.8706856,68.09502 930.8358856,66.98985 924.7761856000001,65.88467 918.6517856,64.77424 912.4349856,63.65569000000001 906.1398856,62.533970000000004 899.9132856,61.437110000000004 893.7620856,60.36645 887.6668856,59.317820000000005 881.6109856,58.28773000000001 875.5801856,57.273210000000006 869.5620855999999,56.271770000000004 863.5460856,55.28125 857.5229856,54.299800000000005 851.4846855999999,53.32584000000001 845.4245856,52.35804 839.3368856000001,51.39526000000001 833.2172856000001,50.43661 827.0625855999999,49.481390000000005 820.8708856,48.52911 814.6418856,47.579530000000005 808.3768855999999,46.632600000000004 802.0788856,45.68856000000001 795.7524856,44.747870000000006 789.4038856000001,43.81125000000001 783.0593855999999,42.88233 776.7266856,41.961940000000006 770.4017856,41.04918000000001 764.0809856,40.14323 757.7611856,39.24335000000001 751.4394856,38.348870000000005 745.1136855999999,37.45919000000001 738.7816856,36.57377 732.4419856000001,35.69212 726.0933856,34.81384 719.7351856,33.938550000000006 713.3742856,33.066950000000006 707.0218856,32.20029 700.6776855999999,31.338260000000005 694.3409856,30.48095 688.0107856,29.628960000000006 681.6861856,28.782880000000006 675.3663856000001,27.943340000000006 669.0508856,27.11097000000001 662.7388856,26.286410000000004 656.4300856,25.470320000000008 650.1240856,24.663340000000005 643.8203855999999,23.866170000000004 637.5189856000001,23.079480000000004 631.2195856,22.303950000000007 624.9221855999999,21.54030000000001 618.6267856000001,20.789220000000007 612.3334855999999,20.051440000000007 606.0425855999999,19.32766000000001 599.7542855999999,18.618610000000004 593.4688855999999,17.924800000000005 587.1868856,17.246640000000014 580.9082856,16.58449000000001 574.6331855999999,15.938710000000015 568.3615856,15.309640000000002 562.0932856000001,14.697600000000008 555.8277856,14.102909999999994 549.5648856,13.525869999999998 543.3037856,12.966790000000003 537.0438856,12.425950000000014 530.7842856,11.903660000000002 524.5241856,11.40019000000001 518.2622856,10.915850000000006 511.99758560000004,10.45093 505.7285856,10.005740000000003 499.4537856,9.58054 493.1718856,9.174980000000005 486.8815856,8.788340000000005 480.58188559999996,8.419930000000008 474.27228560000003,8.069069999999996 467.9522856,7.73509 461.62218559999997,7.417360000000002 455.2820856,7.115240000000014 448.9327856,6.828090000000003 442.5753856,6.555290000000014 436.2110856,6.296220000000005 429.84188559999996,6.050230000000013 423.46958559999996,5.816690000000008 417.0967856,5.5949700000000036 410.7262856,5.384410000000003 404.3610856,5.184359999999998 398.0045856,4.9944400000000115 391.6600856,4.815910000000017 385.3302856,4.650570000000016 379.0171856,4.500140000000002 372.7221856,4.366309999999999 366.4459856,4.250690000000006 360.1885856,4.1548700000000025 353.9494856,4.080380000000005 347.7277856,4.028739999999999 341.5217856,4.001440000000002 335.32938559999997,4.0 329.14798559999997,4.025919999999999 322.9744856,4.080780000000004 316.8051856,4.16619 310.6359856,4.283839999999998 304.4621856,4.435530000000014 298.2783856,4.622990000000016 292.0796856,4.84675 285.86198559999997,5.1069300000000055 279.6222856,5.403660000000002 273.3590856,5.737090000000009 267.07218559999995,6.107290000000006 260.7625856,6.514260000000007 254.4330856,6.957850000000008 248.08768560000001,7.437730000000002 241.73228559999998,7.95335 235.37418559999998,8.50388000000001 229.0223856,9.088189999999997 222.6870856,9.704810000000009 216.3798856,10.351950000000002 210.11318559999998,11.027480000000011 203.9001856,11.728950000000012 197.7538856,12.454679999999996 191.6845856,13.207640000000012 185.6948856,13.992530000000002 179.7806856,14.81450000000001 173.9322856,15.679389999999998 168.1348856,16.593880000000006 162.3691856,17.565830000000005 156.6111856,18.60481 150.8308856,19.72251 144.9936856,20.927430000000008 139.0706856,22.22216000000001 133.04588560000002,23.606750000000005 126.9195856,25.077120000000008 120.71428560000001,26.622760000000007 114.4990856,28.219370000000005 108.30158560000001,29.851430000000008 102.22583560000001,31.482160000000007 96.35653560000002,33.087990000000005 90.70982560000002,34.67911 85.2274756,36.2858 79.79971560000001,37.95501000000001 74.2570256,39.75636000000001 68.40338560000001,41.75449000000001 62.5327856,43.83193000000001 56.692505600000004,45.94473000000001 50.866885599999996,48.07338 45.8367256,49.945510000000006 41.4937356,51.624970000000005 37.604775599999996,53.208490000000005 33.9769456,54.78121 30.4310856,56.43827 26.7085256,58.34899000000001 22.4514256,60.815630000000006 18.4903256,63.40406 15.6494556,65.41695000000001 13.577739600000001,66.97025000000001 11.971371600000001,68.24544 10.664668599999999,69.34508000000001 9.5693916,70.32415 8.6341836,71.21482300000001 7.8266805999999995,72.037566 7.1252376,72.806251 6.5147326,73.530765 5.9842816,74.218446 5.5258896,74.874921 5.1336405,75.504626 4.8031716,76.111147 4.5313391,76.697445 4.3159981,77.26601600000001 4.1558664,77.81900900000001 4.0504467,78.358311 4.0,78.885619 4.0055646,79.4024933 4.0690249,79.9104094 4.1932388,80.41080996000001 4.3809258,80.9052217 4.632141,81.395341 4.947281,81.882782 5.3277886,82.369089 5.776233599999999,82.855783 6.2964786,83.344419 6.8939556,83.836639 7.5761036,84.33423400000001 8.3530526,84.83921500000001 9.2386996,85.353904 10.2524686,85.881026 11.4222856,86.423782 12.7897826,86.98572800000001 14.4194256,87.569743 16.4114856,88.172697 18.9067256,88.765513 22.1204856,89.27594400000001 26.110735599999998,89.581134 30.4650456,89.674717 35.0043556,89.680524 39.7767056,89.610528 44.8251756,89.456742 50.1730856,89.208072 55.7977056,88.85310100000001 61.6210556,88.394571 67.56707560000001,87.861331 73.57936560000002,87.291146 79.63489560000001,86.723209 85.74504560000001,86.185826 91.92310560000001,85.67663900000001 98.17305560000001,85.18758700000001 104.4893856,84.710909 110.8573856,84.240453 117.25788560000001,83.775153 123.6502856,83.31648200000001 130.0327856,82.86299600000001 136.4157856,82.412413 142.8071856,81.96263300000001 149.20918559999998,81.511975 155.59948559999998,81.06045540000001 161.9729856,80.60820840000001 168.3304856,80.15764080000001 174.6728856,79.71143570000001 181.0016856,79.272219 187.31838559999997,78.84256500000001 193.6249856,78.425008 199.9236856,78.02204900000001 206.21678559999998,77.63615200000001 212.50688559999998,77.268495 218.79628559999998,76.918265 225.0872856,76.584518 231.3815856,76.26634 237.68088559999998,75.96285 243.9864856,75.67318800000001 250.2993856,75.39651400000001 256.6206856,75.132003 262.9506856,74.878842 269.2897856,74.636224 275.6381856,74.40334800000001 281.9954856,74.179418 288.36118559999994,73.963638 294.7345856,73.755211 301.1145856,73.553341 307.49988559999997,73.357258 313.8887856,73.16668800000001 320.2798856,72.981813 326.6720856,72.802823 333.06418560000003,72.629901 339.4552856,72.46321900000001 345.84478559999997,72.302941 352.23208559999995,72.149224 358.6167856,72.002219 364.9987856,71.862071 371.3779856,71.728921 377.7547856,71.60290400000001 384.1292856,71.484154 390.5021856,71.372803 396.8741856,71.268984 403.24608559999996,71.172827 409.6189856,71.08439700000001 415.9940856,71.003327 422.3720856,70.929096 428.7539856,70.86118900000001 435.1402856,70.799092 441.5313856,70.74229100000001 447.9274856,70.69027700000001 454.3287856,70.64253500000001 460.7350856,70.598555 467.1460856,70.55782 473.5612856,70.51981400000001 479.9799856,70.484018 486.40148559999994,70.44991300000001 492.8245856,70.416978 499.2480856,70.38468900000001 505.6705856,70.35253 512.0905856,70.32051 518.5064856,70.28969000000001 524.9170856000001,70.26122000000001 531.3210856,70.23628000000001 537.7177856,70.21600000000001 544.1062856,70.20152 550.4861856,70.19398000000001 556.8570856,70.19447000000001 563.2189856,70.20412 569.5716856,70.22401 575.9155856,70.25523000000001 582.2510856,70.29887000000001 588.5786856,70.35599 594.8991855999999,70.427672 601.2134855999999,70.515 607.5226855999999,70.618982 613.8278856,70.73923300000001 620.1304856,70.874128 626.4315856,71.02200900000001 632.7321856,71.181231 639.0334856000001,71.350153 645.3363856,71.527139 651.6418856,71.710553 657.9508856,71.898756 664.2641855999999,72.090106 670.5824855999999,72.282953 676.9066856,72.475638 683.2372856000001,72.666492 689.5750856,72.85383200000001 695.9205856,73.035961 702.2742856,73.21116900000001 708.6366856,73.377893 715.0080856000001,73.53623300000001 721.3885856,73.687245 727.7779856,73.83200000000001 734.1756856,73.97157200000001 740.5810855999999,74.107042 746.9929856,74.239491 753.4101856,74.370007 759.8310855999999,74.49967600000001 766.2535856,74.629587 772.6757856,74.76082000000001 779.0949856,74.894451 785.5084856000001,75.03154 791.9134856000001,75.173134 798.3066856,75.32025300000001 804.6846856,75.47389000000001 811.0439855999999,75.634698 817.3816856,75.80237100000001 823.6962856,75.976443 829.9873856,76.15648800000001 836.2558856,76.34212000000001 842.5034856,76.532995 848.7331856,76.728819 854.9488856,76.92934600000001 861.1555856,77.134381 867.3591855999999,77.34377900000001 873.5665855999999,77.557451 879.7859855999999,77.775366 886.0265856,77.997552 892.2992856,78.22410500000001 898.6164856,78.45519300000001 904.9921856,78.69105400000001 911.3793856000001,78.928736 917.6913856,79.161381 923.9392856,79.38555020000001 930.1491856,79.5985182 936.3604856000001,79.7979282 942.6269856,79.9814819 948.9957856000001,80.14590150000001 955.2232855999999,80.28121780000001 961.1690856,80.38429227 966.7946856,80.45801585000001 972.0889856,80.5062644 977.0594855999999,80.5329146 981.7244856,80.54150130000001 986.1070856,80.5350815 990.2318856,80.51622040000001 994.1231855999999,80.4870351 997.8030856,80.44925938 1001.2922856,80.40430947 1004.1777856,80.36042" stroke="black" stroke-width="2.0" /></svg>