<?xml version="1.0" encoding="utf-8" ?>
<svg baseProfile="full" height="93.541331" version="1.1" width="1012.8562594" xmlns="http://www.w3.org/2000/svg" xmlns:ev="http://www.w3.org/2001/xml-events" xmlns:xlink="http://www.w3.org/1999/xlink"><defs /><polygon fill="none" points="1004.8562594,81.57874 1002.0439594000001,81.0584475 998.6356594,80.432265 995.0305593999999,79.77517 991.2058594,79.083918 987.1357594,78.35495499999999 982.7919594,77.58450599999999 978.1442594,76.768793 973.1632594,75.90445199999999 967.8240594,74.98928599999999 962.1135594,74.02346399999999 956.0416594,73.011191 949.6542594,71.962609 943.2052593999999,70.92048 936.8722594,69.91278 930.5756594,68.92582 924.2553594,67.94963 917.8670594,66.97721999999999 911.3821594,66.00425 904.8760594,65.04195 898.4594594,64.10576999999999 892.1124594,63.19109 885.8160594,62.29339999999999 879.5539594,61.4088 873.3122594,60.53386999999999 867.0790594,59.66553 860.8440594,58.800999999999995 854.5986594,57.93774 848.3353594,57.07338 842.0481594,56.205729999999996 835.7325594,55.33277 829.3851594,54.452619999999996 823.0043594,53.56354999999999 816.5898594,52.66404 810.1434594,51.75273 803.6685594,50.82854 797.1706594,49.891389999999994 790.6550594,48.94332 784.1269594,47.9867 777.5913594,47.02384 771.0522594,46.05703 764.5134594,45.08848999999999 757.9781594,44.12037 751.4490593999999,43.15471999999999 744.9279594,42.19349999999999 738.4164594,41.23855 731.9154594,40.29165 725.4252594,39.354429999999994 718.9456594,38.428459999999994 712.4758594,37.51519 706.0147594,36.616009999999996 699.5605594000001,35.732079999999996 693.1114594,34.863519999999994 686.6658594,34.01 680.2222594,33.17121 673.7792594,32.34687 667.3357594,31.536759999999994 660.8904594,30.74064 654.4425593999999,29.958329999999997 647.9911593999999,29.189669999999992 641.5355593999999,28.434509999999996 635.0750594,27.692719999999994 628.6093593999999,26.96419999999999 622.1379594,26.248869999999997 615.6606594,25.546659999999996 609.1774594,24.857499999999995 602.6883594,24.181359999999998 596.1935593999999,23.518079999999998 589.6932594000001,22.86725 583.1875593999999,22.228479999999998 576.6767593999999,21.60132 570.1610594,20.985359999999993 563.6405594,20.380179999999996 557.1157594,19.785339999999998 550.5865594,19.20040999999999 544.0532594,18.62495 537.5161594,18.05854 530.9753594,17.50072999999999 524.4311594,16.95107 517.8837593999999,16.409140000000008 511.3332594,15.874470000000002 504.7798594,15.346630000000005 498.22385940000004,14.825289999999995 491.6654594,14.310629999999989 485.1048594,13.803009999999986 478.5423594,13.302769999999995 471.9783594,12.810259999999985 465.4134594,12.325850000000003 458.8481594,11.849899999999991 452.2832594,11.382769999999994 445.71935940000003,10.924819999999997 439.1573594,10.476429999999993 432.5982594,10.037969999999987 426.04295940000003,9.609800000000007 419.49265940000004,9.192270000000008 412.9483594,8.785759999999996 406.4113594,8.390619999999998 399.8829594,8.00721999999999 393.3643594,7.636289999999988 386.85655940000004,7.27870999999999 380.3600594,6.9353399999999965 373.8750594,6.606999999999999 367.4014594,6.294479999999993 360.9386594,5.9985499999999945 354.4860594,5.71996 348.0422594,5.459459999999993 341.60595939999996,5.2177799999999905 335.1753594,4.9956399999999945 328.7482594,4.7938000000000045 322.3223594,4.613010000000003 315.8948594,4.454049999999995 309.4627594,4.317719999999994 303.0224594,4.204890000000006 296.5704594,4.116269999999986 290.1035594,4.052289999999999 283.6196594,4.013369999999995 277.1178594,4.0 270.59805939999995,4.012659999999997 264.0615594,4.0518399999999986 257.5107594,4.117990000000006 250.94925940000002,4.211529999999996 244.3817594,4.3327699999999965 237.8145594,4.481940000000009 231.2546594,4.659109999999998 224.7105594,4.864199999999997 218.1913594,5.096959999999996 211.7072594,5.356909999999985 205.2687594,5.6433999999999855 198.88655939999998,5.956239999999994 192.5694594,6.298989999999989 186.3204594,6.676479999999998 180.13685940000002,7.093519999999998 174.0114594,7.555040000000005 167.9329594,8.066329999999994 161.8861594,8.63324999999999 155.8519594,9.262540000000001 149.8072594,9.961979999999997 143.7304594,10.737899999999996 137.6105594,11.59505999999999 131.4504594,12.536739999999995 125.2685594,13.563529999999986 119.0993594,14.672160000000005 112.99175939999999,15.854590000000002 107.0046594,17.097939999999994 101.19855940000001,18.386219999999994 95.6184694,19.714729999999996 90.2605694,21.095190000000002 85.08021939999999,22.548569999999998 80.0071294,24.106099999999998 74.9469394,25.81253999999999 69.8108094,27.71154 64.58864940000001,29.821679999999994 59.3864094,32.109309999999994 54.4125294,34.473769999999995 49.8723794,36.787769999999995 45.8194194,38.99014 42.1686894,41.09784 38.8099694,43.15534999999999 35.639059399999994,45.218619999999994 32.5487694,47.363049999999994 29.390289399999997,49.72103 25.816709399999997,52.63504999999999 21.4961594,56.496039999999994 17.8039894,59.99914 15.2195194,62.51782 13.307931400000001,64.43959 11.798110399999999,66.01765 10.5538394,67.37536 9.501605399999999,68.57840999999999 8.597524400000001,69.66575999999999 7.8133083999999995,70.6625 7.1296614,71.585779 6.5328694,72.447921 6.0128904,73.25807499999999 5.5622226,74.02324899999999 5.1751916,74.74893399999999 4.847496631,75.43951799999999 4.5759032,76.09855999999999 4.358038,76.728988 4.1922497,77.333232 4.0775182999999995,77.913324 4.0133996,78.470976 4.0,79.007631 4.0379779,79.524506 4.1285716,80.022621 4.2736567,80.502822 4.47584,80.9657943 4.7386019,81.4120736 5.0662509,81.8420629 5.4607783,82.2562674 5.9225554,82.655103 6.4527704,83.038643 7.0535204,83.40657999999999 7.727886399999999,83.758166 8.4800664,84.092098 9.3155544,84.40634299999999 10.2413864,84.697848 11.266441400000001,84.962075 12.4017364,85.19223099999999 13.6605494,85.377952 15.057759400000002,85.50300999999999 16.606539400000003,85.541331 18.308839400000004,85.451403 20.1708394,85.186827 22.2153694,84.709811 24.458329399999997,84.001015 26.903889399999997,83.089641 29.5617994,82.0755155 32.4875994,81.0958236 35.7410594,80.195376 39.377629400000004,79.38158399999999 43.4602594,78.661233 48.0504994,78.037765 53.1819794,77.505146 58.8068594,77.040476 64.7917794,76.62907 70.9648894,76.25755 77.1784794,75.89779899999999 83.36818939999999,75.51490199999999 89.53709939999999,75.105142 95.6969694,74.692572 101.8583194,74.30175899999999 108.0308594,73.95660799999999 114.2245594,73.664234 120.4485594,73.415624 126.7097594,73.201168 133.0128594,73.011133 139.3597594,72.835526 145.7496594,72.664024 152.1783594,72.48595499999999 158.63865940000002,72.29093999999999 165.1206594,72.077215 171.6154594,71.849983 178.1157594,71.614706 184.61595939999998,71.37684999999999 191.1122594,71.14180999999999 197.6029594,70.91490999999999 204.0876594,70.70137 210.56825940000002,70.5056 217.04705940000002,70.32798 223.52645940000002,70.16749999999999 230.0085594,70.02319 236.4950594,69.89411 242.98765939999998,69.77932 249.4877594,69.67791 255.9964594,69.58896 262.5146594,69.51156999999999 269.0429594,69.44484 275.5819594,69.38786999999999 282.1317594,69.33973999999999 288.69225939999995,69.29952999999999 295.2631594,69.26632 301.84385940000004,69.23919 308.4333594,69.21718999999999 315.0308594,69.19976 321.63505940000005,69.18663 328.2450594,69.17756 334.85995940000004,69.17227 341.4787594,69.17051 348.1005594,69.172 354.7231594,69.17648 361.34445939999995,69.18366 367.9649594,69.19328999999999 374.58535939999996,69.20508 381.2063594,69.21875 387.82835939999995,69.23405 394.4511594,69.2507 401.0722594,69.26841 407.69085939999997,69.28692 414.3066594,69.30624 420.9194594,69.32667 427.5290594,69.34857 434.1352594,69.37227 440.7380594,69.39809 447.3374594,69.42639 453.9336594,69.45748999999999 460.52665939999997,69.49172999999999 467.11675940000003,69.52944 473.7043594,69.57096 480.2896594,69.61662 486.8732594,69.66675 493.4556594,69.72169 500.0374594,69.78179 506.6192594,69.84737 513.2017594,69.9186 519.7856594,69.99530999999999 526.3715594,70.07728999999999 532.9597593999999,70.16432 539.5506594,70.25619999999999 546.1443594000001,70.35271999999999 552.7408594000001,70.45366 559.3400594,70.55879999999999 565.9418594,70.66794 572.5458594,70.78085 579.1515594,70.89729 585.7583594,71.01705 592.3654594,71.13989 598.9721594,71.26556 605.5773594,71.39384 612.1799594,71.52466 618.7789594000001,71.65843 625.3734594,71.795683 631.9627594,71.936933 638.5464594,72.082696 645.1241594,72.233493 651.6959594,72.38984099999999 658.2618594,72.552262 664.8221594,72.72128 671.3772594000001,72.897421 677.9279594000001,73.08121799999999 684.4749594,73.27320999999999 691.0193594,73.473944 697.5623594,73.683978 704.1052594,73.903881 710.6496594,74.133954 717.1971594,74.372914 723.7486594,74.618915 730.3049593999999,74.870086 736.8660594,75.124532 743.4315594000001,75.380332 750.0007594,75.63553499999999 756.5722594,75.888167 763.1441594,76.136234 769.7141594,76.377726 776.2793594,76.61063399999999 782.8365593999999,76.83295199999999 789.3819594,77.042701 795.9115594,77.237934 802.4206594,77.416763 808.9045594,77.577559 815.3586594,77.72132599999999 821.7797594,77.850912 828.1666594,77.969177 834.5193594,78.07892799999999 840.8398594,78.182909 847.1311594,78.2838 853.3975594000001,78.384226 859.6449594,78.486772 865.8799594,78.594008 872.1108594,78.70852099999999 878.3470594,78.832954 884.5993594,78.970058 890.8804594000001,79.122754 897.2050594000001,79.294212 903.5902594,79.487961 910.0561594,79.707094 916.6181594,79.948151 923.1952594,80.200575 929.7053594,80.453109 936.1924594,80.6995433 942.7202594,80.9343655 949.2846593999999,81.14918899999999 955.6427593999999,81.3292728 961.7022594,81.4699981 967.4183594,81.574411216 972.7786593999999,81.64733765999999 977.7925594,81.69366769999999 982.4816594,81.7178595 986.8728594,81.7237471 990.9941594000001,81.71452359999999 994.8724594,81.6928039 998.5323593999999,81.66071348999999 1001.9960594,81.6199772 1004.8562594,81.57874" stroke="black" stroke-width="2.0" /></svg>