<?xml version="1.0" encoding="utf-8" ?>
<svg baseProfile="full" height="168.09677000000002" version="1.1" width="1012.2038117" xmlns="http://www.w3.org/2000/svg" xmlns:ev="http://www.w3.org/2001/xml-events" xmlns:xlink="http://www.w3.org/1999/xlink"><defs /><polygon fill="none" points="1004.2038117,132.1065 1000.5546116999999,131.011308 996.1652117,129.702186 991.5661117,128.340102 986.7400117,126.921315 981.6689117,125.44211700000001 976.3349117,123.89905300000001 970.7214117,122.289263 964.8144116999999,120.61099000000002 958.6057117,118.86424000000001 952.0959117,117.05170000000001 945.2974116999999,115.17861 938.2339116999999,113.25158000000002 930.9372117,111.27853000000002 923.4439117,109.26795000000001 915.7914117,107.22781 908.0134117,105.16442 900.1352117,103.08152000000001 892.1729116999999,100.98193 884.1397116999999,98.86944000000001 876.0490116999999,96.74789000000001 867.9136116999999,94.62095000000002 859.7458117,92.49213 851.5568117,90.36462 843.3568117,88.24131000000001 835.1547117,86.12470000000002 826.9579117,84.01691000000001 818.7723117,81.91963000000001 810.6022116999999,79.83416000000001 802.4507116999999,77.76140000000001 794.3191116999999,75.70212000000001 786.2083117,73.65747000000002 778.1184117,71.62850000000002 770.0492117,69.61618000000001 762.0004117,67.62138 753.9711116999999,65.64484 745.9602117,63.687250000000006 737.9662117,61.74917000000002 729.9874116999999,59.83113 722.0219116999999,57.93355000000001 714.0673116999999,56.05681000000001 706.1211116999999,54.20123000000001 698.1803117,52.36703 690.2424117,50.55407000000001 682.3054116999999,48.76221000000001 674.3683117,46.991500000000016 666.4305116999999,45.24215000000001 658.4926117,43.514550000000014 650.5557117,41.80924 642.6217117,40.126930000000016 634.6933117,38.46842000000001 626.7738116999999,36.834660000000014 618.8674116999999,35.22667000000001 610.9787117,33.645580000000024 603.1130117,32.0925 595.2761117,30.56920000000001 587.4730117,29.078300000000013 579.7076116999999,27.622500000000016 571.9825116999999,26.204000000000008 564.2995116999999,24.82480000000001 556.6590117,23.48650000000002 549.0607117,22.190500000000014 541.5036117,20.938100000000006 533.9858116999999,19.730300000000014 526.5045117,18.568100000000015 519.0565117,17.4521 511.63801169999994,16.383200000000016 504.24451170000003,15.362000000000009 496.8712117,14.388900000000007 489.5134117,13.462900000000005 482.16681170000004,12.58280000000002 474.8275117,11.747800000000012 467.4919117,10.957000000000022 460.1563117,10.209600000000009 452.8177117,9.50500000000001 445.47291170000005,8.842700000000008 438.1191117,8.222400000000007 430.7536117,7.643600000000006 423.3739117,7.106099999999998 415.97761170000007,6.609800000000021 408.5625117,6.154499999999999 401.12651170000004,5.74020000000003 393.6679117,5.367300000000014 386.1861117,5.0367999999999995 378.6825117,4.749900000000025 371.1601117,4.507500000000022 363.62451169999997,4.310900000000004 356.08261170000003,4.161100000000019 348.5440117,4.0589999999999975 341.0197117,4.005200000000002 333.5224117,4.0 326.06651170000004,4.0434999999999945 318.6671117,4.1351999999999975 311.34001170000005,4.274300000000011 304.10081170000007,4.459500000000006 296.9649117,4.689700000000016 289.9447117,4.966100000000026 283.0469117,5.289900000000003 276.2729117,5.662099999999995 269.62041170000003,6.0839 263.08351170000003,6.555999999999997 256.6543117,7.079700000000017 250.3231117,7.656400000000019 244.07861169999998,8.287600000000012 237.90881169999997,8.975500000000011 231.8003117,9.722600000000014 225.73881169999999,10.532100000000014 219.7090117,11.408000000000015 213.69401169999998,12.355100000000022 207.67521169999998,13.379500000000007 201.6314117,14.48860000000002 195.53931169999998,15.68780000000001 189.3809117,16.97720000000001 183.1484117,18.355100000000007 176.8467117,19.8164 170.49561169999998,21.3515 164.1314117,22.945500000000024 157.80601169999997,24.57810000000002 151.5823117,26.22460000000001 145.52471169999998,27.869100000000017 139.6778117,29.510700000000014 134.05981169999998,31.152600000000007 128.66961170000002,32.800770000000014 123.4949117,34.462410000000006 118.51691170000001,36.14571000000001 113.7141117,37.85944000000002 109.06401170000001,39.61299000000001 104.54401170000001,41.416520000000006 100.1314417,43.27917000000002 95.8064517,45.19959 91.5584517,47.17062 87.3857817,49.18202000000002 83.29399169999999,51.220380000000006 79.2942217,53.269580000000005 75.4014217,55.31357000000001 71.63209169999999,57.34378000000001 68.00025169999999,59.35380000000001 64.5161617,61.33764000000001 61.186041700000004,63.29009000000002 58.01227170000001,65.20702000000001 54.99390170000001,67.08537000000001 52.127681700000004,68.92324 49.411421700000005,70.72018000000001 46.8410517,72.47762 44.4098617,74.19812000000002 42.1098817,75.88485000000001 39.9327417,77.5412 37.8702617,79.17056000000001 35.9146717,80.77622000000001 34.0587517,82.36131 32.2959117,83.92875000000001 30.6201517,85.4813 29.0260917,87.0215 27.5075817,88.55172000000002 26.0562817,90.07336000000001 24.6654517,91.58624 23.3301117,93.08891000000001 22.0464917,94.57899 20.811671699999998,96.05353000000002 19.6232617,97.50931000000001 18.479181699999998,98.94313000000001 17.3775617,100.35200000000002 16.3166317,101.73331000000002 15.297531699999999,103.08467000000002 14.3242117,104.40439 13.399066699999999,105.69207000000002 12.5230857,106.94824000000001 11.6963237,108.17401000000001 10.918216699999999,109.37084000000002 10.1878207,110.54037000000001 9.5039817,111.68431000000001 8.865445699999999,112.80440000000002 8.270935699999999,113.90234000000001 7.719204700000001,114.97974 7.2090677,116.03817000000001 6.7394217,117.07910000000001 6.3092597,118.10392000000002 5.9176757,119.11396 5.563867699999999,120.11045000000001 5.2471426999999995,121.09457 4.9669128,122.06745000000001 4.7226954,123.03013200000001 4.5141145,123.98364400000001 4.3408993,124.92895600000001 4.2028844693,125.86700900000001 4.1000112,126.79871500000002 4.0323292,127.72496400000001 4.0,128.646632 4.0033007,129.56458700000002 4.0426301,130.479694 4.11851613,131.3928257 4.23162212,132.30486190000002 4.3822074,133.216206 4.5695174,134.126203 4.7928086,135.034042 5.051485,135.93887800000002 5.3450866999999995,136.83982400000002 5.6732837,137.73594200000002 6.035864699999999,138.626237 6.4327367,139.50964000000002 6.8639227,140.38500100000002 7.3295587,141.25107200000002 7.8298947000000005,142.10649700000002 8.3652997,142.94979 8.9362627,143.77931 9.543403699999999,144.59326000000001 10.1874777,145.38961 10.8693867,146.16613 11.5901947,146.92029000000002 12.3511457,147.64925000000002 13.1536817,148.34978 13.9994707,149.01818 14.8904417,149.65024 15.8288117,150.24105 16.8171517,150.78492 17.8582217,151.2774 18.9544117,151.71985 20.1082417,152.11501 21.3223617,152.4661 22.5995317,152.77699 23.9424817,153.05253000000002 25.3537217,153.29885000000002 26.8352117,153.52386 28.3878417,153.73784 30.010821699999997,153.95387000000002 31.705001699999997,154.17999 33.4744517,154.41682 35.323321699999994,154.6645 37.2556317,154.92301 39.2751517,155.19213000000002 41.38533170000001,155.47139 43.589341700000006,155.76003 45.8901417,156.05702000000002 48.29077170000001,156.36102000000002 50.7949217,156.67041 53.407881700000004,156.98339 56.137761700000006,157.29805000000002 58.9944317,157.61258 61.9883017,157.9249 65.1307417,158.23238 68.43400170000001,158.53162 71.91094170000001,158.81826 75.57533169999999,159.08678 79.44228170000001,159.33028000000002 83.5290117,159.54175 87.8555117,159.71869 92.4426617,159.86025 97.31071170000001,159.9666 102.4774717,160.03954000000002 107.9556117,160.08277 113.7499117,160.09677000000002 119.8555117,160.07954 126.2570117,160.03002 132.92831169999997,159.94844 139.83551169999998,159.83657 146.94141169999997,159.69768000000002 154.2119117,159.53631000000001 161.62231169999998,159.35668 169.1543117,159.1587 176.7912117,158.94118 184.51781169999998,158.70293 192.3219117,158.44273 200.1945117,158.15928000000002 208.1311117,157.85121 216.1310117,157.51847 224.19401169999998,157.16250000000002 232.3193117,156.78497000000002 240.5052117,156.38765 248.7492117,155.97251 257.0479117,155.54165 265.39691170000003,155.09733 273.79071170000003,154.642 282.2226117,154.17824000000002 290.6850117,153.7088 299.1690117,153.23653000000002 307.6649117,152.76441 316.16231170000003,152.29493000000002 324.65181170000005,151.82996000000003 333.1257117,151.37116 341.5781117,150.92010000000002 350.0050117,150.47820000000002 358.4040117,150.04677 366.77441170000003,149.62698 375.1169117,149.21991 383.4339117,148.82656 391.72901170000006,148.44784 400.0075117,148.08461 408.2758117,147.73765 416.5412117,147.40627 424.8103117,147.08836000000002 433.0888117,146.78185000000002 441.3814117,146.48469 449.6918117,146.19490000000002 458.02271170000006,145.9105 466.3760117,145.62953000000002 474.7522117,145.35003 483.1510117,145.07008000000002 491.5709117,144.78772 500.00921170000004,144.50102 508.4619117000001,144.20816000000002 516.9245117,143.90896 525.3924116999999,143.60491000000002 533.8617117,143.29756 542.3292117,142.98843000000002 550.7922116999999,142.67904000000001 559.2485116999999,142.37086000000002 567.6966117,142.065369 576.1355117,141.763977 584.5650117,141.468082 592.9852116999999,141.17904800000002 601.3969117,140.898213 609.8015117,140.626823 618.2007116999999,140.36534500000002 626.5958116999999,140.11375900000002 634.9882117,139.872049 643.3791117,139.640208 651.7693117,139.41824200000002 660.1597117,139.206165 668.5506117,139.00399900000002 676.9426116999999,138.81177200000002 685.3357116999999,138.62951900000002 693.7300117,138.457279 702.1252117,138.295096 710.5209116999999,138.14290400000002 718.9166117,137.99968900000002 727.3120117,137.86395100000001 735.7065117,137.73418 744.1000117,137.608868 752.4922116999999,137.48650500000002 760.8830117,137.36558000000002 769.2725117,137.244586 777.6607117,137.12201100000001 786.0477117,136.99634700000001 794.4337117,136.866084 802.8192117,136.729711 811.2045117,136.58609900000002 819.5890117,136.436678 827.9699116999999,136.28395400000002 836.3419117,136.130477 844.6973117,135.97882900000002 853.0260116999999,135.831599 861.3159117,135.69134200000002 869.5531116999999,135.560538 877.7223117,135.441539 885.8074117,135.33651300000002 893.7919116999999,135.247396 901.6597116999999,135.175845 909.3952116999999,135.122496 916.9824117,135.07989500000002 924.4023117,135.03650100000002 931.6343117,134.98220700000002 938.6588117,134.908588 945.4586116999999,134.809017 952.0200116999999,134.678661 958.3342117,134.514688 964.3975117,134.319152 970.2124117,134.096525 975.7856117,133.850875 981.1270116999999,133.585786 986.2479116999999,133.30436500000002 991.1607117,133.00927900000002 995.8779116999999,132.7028013 1000.4117117,132.38685890000002 1004.2038117,132.1065" stroke="black" stroke-width="2.0" /></svg>