<?xml version="1.0" encoding="utf-8" ?>
<svg baseProfile="full" height="113.7954" version="1.1" width="1012.1971619" xmlns="http://www.w3.org/2000/svg" xmlns:ev="http://www.w3.org/2001/xml-events" xmlns:xlink="http://www.w3.org/1999/xlink"><defs /><polygon fill="none" points="1004.1971619,94.90105 1001.2435618999999,94.1218835 997.6721619,93.188795 993.9061618999999,92.215571 989.9258619,91.198863 985.7097618999999,90.135257 981.2354619,89.021486 976.4808618999999,87.85479 971.4263619,86.63350299999999 966.0587618999999,85.357919 960.3762618999999,84.03146 954.3960619,82.66198 948.1599619,81.26259 941.7320619,79.84956 935.2178619,78.44649 928.7285618999999,77.07618 922.2230619,75.72834999999999 915.6869619,74.39876 909.2035619,73.10269 902.7858619,71.84067999999999 896.4215619,70.60834 890.0944618999999,69.40086 883.7904619,68.21408 877.4974619,67.04435 871.2049619,65.88848999999999 864.9038619,64.74365 858.5865618999999,63.60731 852.2465619,62.47719 845.8785619,61.35127 839.4788619,60.22775 833.0447619,59.10505 826.5752619,57.981829999999995 820.0708619,56.85697 813.5338619,55.72962 806.9681618999999,54.599199999999996 800.3825619,53.46594999999999 793.8042619,52.334579999999995 787.2338619,51.206399999999995 780.6651619,50.08157 774.0926618999999,48.960379999999994 767.5115619,47.84325 760.9208619,46.731269999999995 754.3392619,45.62887 747.7731619,44.53826 741.2237619,43.46081 734.6914619,42.39769 728.1758619,41.349959999999996 721.6758619,40.318509999999996 715.1896619,39.30415 708.7147619,38.307539999999996 702.2481618999999,37.32928 695.7861619,36.36936 689.3253619,35.426739999999995 682.8628619,34.50037 676.3961618999999,33.589279999999995 669.9230619,32.69257 663.4418618999999,31.80943 656.9512619,30.939119999999996 650.4501618999999,30.08093000000001 643.9380618999999,29.234220000000008 637.4148619,28.398430000000005 630.8807618999999,27.573009999999996 624.3364618999999,26.757469999999998 617.7831619,25.951369999999997 611.2224619,25.154300000000006 604.6562619,24.365920000000003 598.0870619,23.586039999999997 591.5173619,22.815349999999995 584.9492619,22.0548 578.3846619,21.30530999999999 571.8249619,20.567719999999994 565.2713619,19.84285 558.7245619,19.131439999999998 552.1849619,18.43419 545.6528619,17.751779999999997 539.1279619000001,17.084819999999993 532.6097619,16.433899999999994 526.0974619,15.799580000000006 519.5899618999999,15.182389999999998 513.0856619,14.582830000000001 506.5830619000001,14.001410000000007 500.07996190000006,13.438580000000002 493.57416190000004,12.894119999999987 487.06396190000004,12.367289999999997 480.54766190000004,11.857399999999998 474.0239619,11.363749999999996 467.49196190000004,10.885719999999992 460.95096190000004,10.42268 454.4007619,9.974049999999991 447.8412619,9.539259999999985 441.2728619,9.117749999999987 434.6962619,8.708999999999989 428.1124619,8.312470000000005 421.52286190000007,7.927660000000003 414.92926190000003,7.5540400000000005 408.33366190000004,7.191109999999995 401.7384619,6.838390000000004 395.1464619,6.496379999999988 388.56026190000006,6.167229999999989 381.9822619,5.8532399999999996 375.41476190000003,5.5566499999999905 368.85986190000006,5.279669999999996 362.3194619,5.024410000000003 355.79516190000004,4.792950000000005 349.2885619,4.587299999999999 342.80096190000006,4.409419999999997 336.3335619,4.261169999999993 329.8872619,4.144369999999995 323.46296190000004,4.0608 317.0612619,4.012129999999999 310.68276190000006,4.0 304.32756190000003,4.026009999999999 297.9961619,4.091570000000004 291.68876190000003,4.197500000000005 285.40556190000007,4.344379999999987 279.1460619,4.532799999999995 272.9095619,4.763379999999998 266.69486190000003,5.036760000000001 260.50056190000004,5.353639999999999 254.3247619,5.714780000000005 248.1651619,6.120990000000006 242.0193619,6.573229999999995 235.88446190000002,7.072510000000008 229.7572619,7.6200099999999935 223.63416189999998,8.21705999999999 217.5112619,8.865140000000011 211.3841619,9.56595999999999 205.2480619,10.321449999999999 199.0977619,11.13364 192.9283619,12.003150000000005 186.73776189999998,12.92949999999999 180.5276619,13.911659999999998 174.3033619,14.94784 168.07436189999999,16.035349999999994 161.85406189999998,17.170420000000007 155.6593619,18.348159999999993 149.51076189999998,19.56318999999999 143.4298619,20.816280000000006 137.43396189999999,22.11245000000001 131.53346190000002,23.457019999999986 125.7331619,24.855619999999988 120.0329619,26.31425 114.4290619,27.83937999999999 108.9146619,29.438119999999998 103.4803019,31.118419999999993 98.1151619,32.88738 92.8090019,34.746779999999994 87.5520619,36.69814 82.3346919,38.744119999999995 77.1470519,40.88869 71.9801519,43.14084 66.8430319,45.50841 61.7758219,47.98312 56.844451899999996,50.53768 52.12569189999999,53.12898 47.6846819,55.702239999999996 43.5296519,58.22338 39.6178319,60.69464 35.8852519,63.14005 32.2553819,65.60043999999999 28.6295519,68.14086999999999 24.8663019,70.87585 21.1678619,73.68522 18.122661899999997,76.09389999999999 15.7621019,78.01675 13.8915359,79.58718 12.3671939,80.92066 11.0901759,82.09218 9.9988199,83.14713 9.053626900000001,84.1142 8.2280979,85.012572 7.5037088999999995,85.855683 6.8670819000000005,86.653354 6.3083199,87.41300799999999 5.8199759,88.140419 5.3963979,88.840195 5.0332989999999995,89.516091 4.7274648,90.171238 4.4765574,90.80829 4.27898396,91.429545 4.1338124,92.037027 4.0407244,92.632559 4.0,93.21781299999999 4.0125325,93.794365 4.0798756,94.3637323 4.204328464,94.92742286 4.3880579,95.48691649999999 4.6306423,96.043464 4.9316782,96.59814899999999 5.2914859,97.151948 5.7111049000000005,97.705747 6.1923319,98.26035399999999 6.737787899999999,98.81650499999999 7.3510428999999995,99.374847 8.0367849,99.935918 8.8010749,100.500092 9.6516889,101.06747299999999 10.598593900000001,101.63771 11.6545859,102.209637 12.836075899999999,102.780583 14.163849899999999,103.344967 15.6629419,103.89135999999999 17.358671899999997,104.39639 19.2838219,104.827811 21.499551900000004,105.15825 24.080011900000002,105.36259 27.0983819,105.43993999999999 30.6225019,105.46065 34.7253319,105.51653999999999 39.4011419,105.60947999999999 44.504841899999995,105.71459999999999 49.7969819,105.79093999999999 55.0872519,105.7954 60.321951899999995,105.69814 65.5223719,105.49097 70.7138819,105.16714999999999 75.9215119,104.717745 81.17112189999999,104.131644 86.4905419,103.41506799999999 91.9063819,102.603731 97.44003190000001,101.740415 103.10541190000001,100.875255 108.9054619,100.060993 114.8295619,99.310175 120.8621619,98.614172 126.9862619,97.962276 133.1843619,97.341988 139.43906189999998,96.7393 145.7333619,96.139027 152.0521619,95.5251471 158.38196190000002,94.88244988 164.71306189999999,94.2113494 171.03906189999998,93.522578 177.35536190000002,92.82688 183.6596619,92.134726 189.9513619,91.45625 196.23206190000002,90.801249 202.50506190000002,90.179223 208.77546189999998,89.598685 215.0487619,89.061009 221.3295619,88.563912 227.6220619,88.105239 233.92986190000002,87.68296099999999 240.2561619,87.295149 246.60336189999998,86.939951 252.97376189999997,86.615565 259.3686619,86.320224 265.7889619,86.05217499999999 272.23516190000004,85.809663 278.70666190000003,85.590919 285.20256190000003,85.394145 291.72106190000005,85.217507 298.25956190000005,85.05912599999999 304.81486190000004,84.917079 311.3828619,84.78993 317.9596619,84.67782 324.5418619,84.58112 331.1260619,84.50017 337.7098619,84.4353 344.2907619,84.38677 350.8671619,84.35486 357.43756190000005,84.3398 364.00116190000006,84.34182 370.55736190000005,84.36113 377.1063619,84.39794 383.6483619,84.45246 390.1842619000001,84.52493 396.7153619,84.61558 403.2433619,84.72466 409.77016190000006,84.85228 416.2981619,84.997484 422.82936190000004,85.158915 429.36556190000005,85.335235 435.9084619,85.525104 442.4594619,85.727182 449.01976190000005,85.940119 455.5901619,86.162553 462.17156190000003,86.393106 468.76436190000004,86.630381 475.3689619,86.872957 481.98516190000004,87.119391 488.6129619,87.368213 495.2517619,87.617929 501.90086190000005,87.867019 508.5591619,88.11401599999999 515.2255619,88.35833 521.8987619,88.59995599999999 528.5775619,88.83890099999999 535.2597619000001,89.075142 541.9398619,89.30854 548.6178619,89.539162 555.2948619,89.767107 561.9719619,89.99247199999999 568.6502619,90.215349 575.3305619,90.435832 582.0131619,90.65398499999999 588.6933619,90.869709 595.3688619,91.083001 602.0388619,91.2939 608.7026619,91.502518 615.3595619,91.709773 622.0086618999999,91.917076 628.6495619,92.125841 635.2815618999999,92.337469 641.9042618999999,92.553356 648.5173619,92.774885 655.1202619,93.003428 661.7130619,93.240347 668.2953619,93.486993 674.8670619000001,93.744705 681.4281619,94.0148141 687.9787619,94.2986393 694.5188619,94.5974919 701.0486619,94.91267524 707.5684619,95.2453668 714.0783619,95.5942148 720.5789619,95.95546999999999 727.0702619,96.32531399999999 733.5525619,96.699953 740.0258619,97.075619 746.4900619,97.448566 752.9449619,97.81508 759.3903619,98.171469 765.8258619000001,98.51407499999999 772.2509619,98.839276 778.6652619,99.143485 785.0680619,99.423161 791.4586618999999,99.67481 797.8363618999999,99.89499599999999 804.2001619,100.080341 810.5491619,100.228409 816.8828619,100.340346 823.2013618999999,100.41819 829.5059618999999,100.46394599999999 835.7985619,100.47957199999999 842.0820619,100.466957 848.3603618999999,100.427915 854.6379618999999,100.364173 860.9203619,100.277369 867.2141619,100.16904699999999 873.5267619,100.040658 879.8667619,99.893562 886.2443619,99.729024 892.6708619,99.54822 899.1600619,99.352242 905.7274619,99.142094 912.3794618999999,98.918613 918.9836618999999,98.68659 925.5063619,98.44780899999999 931.9815619,98.20159699999999 938.4581618999999,97.946491 945.0020619000001,97.680048 951.6231619,97.401882 958.0249619,97.125008 964.1060618999999,96.8549 969.8346619,96.594127 975.2069619,96.343997 980.2369619,96.104906 984.9482618999999,95.8766753 989.3678619,95.6587995 993.5232619,95.4506167 997.4403619,95.2514114 1001.1430619,95.060473 1004.1971619,94.90105" stroke="black" stroke-width="2.0" /></svg>