<?xml version="1.0" encoding="utf-8" ?>
<svg baseProfile="full" height="90.263822" version="1.1" width="1012.1920454" xmlns="http://www.w3.org/2000/svg" xmlns:ev="http://www.w3.org/2001/xml-events" xmlns:xlink="http://www.w3.org/1999/xlink"><defs /><polygon fill="none" points="1004.1920454,74.92692000000001 1001.4481453999999,74.36315180000001 998.1285454,73.68601400000001 994.6250454,72.977163 990.9171454,72.233461 986.9820454000001,71.45150000000001 982.7948454,70.62769100000001 978.3292454,69.758458 973.5591454,68.84060400000001 968.4617454,67.87195100000001 963.0235453999999,66.852348 957.2477454,65.78507900000001 951.1667454,64.6787 945.0341453999999,63.579780000000014 939.0344454,62.51890000000001 933.0949453999999,61.48043000000001 927.1604454,60.45244000000001 921.1891454,59.42575000000001 915.1508454,58.39320000000001 909.0262454,57.349540000000005 902.8159454,56.29277000000001 896.6356454,55.241230000000016 890.5196454,54.20145000000001 884.4523454,53.171620000000004 878.4200453999999,52.15029000000001 872.4111454,51.13628000000001 866.4153454,50.12870000000001 860.4238454,49.12691000000001 854.4290454,48.13047000000001 848.4244454,47.139160000000004 842.4045454,46.15297000000001 836.3646454,45.17209000000001 830.3015454,44.196900000000014 824.2126453999999,43.22802000000001 818.0968454,42.26626000000001 811.9538454,41.31266000000001 805.7851453999999,40.36846000000001 799.5930454,39.43505000000001 793.3811453999999,38.51321000000001 787.1530454,37.603330000000014 780.9121454,36.70575000000001 774.6614453999999,35.82072000000001 768.4038454,34.94842000000001 762.1419453999999,34.08897000000001 755.8779454,33.24244000000001 749.6137454,32.40884000000001 743.3510454,31.58810000000001 737.0911454,30.780110000000008 730.8350454,29.98474000000001 724.5834454,29.20177000000001 718.3366454,28.43095000000001 712.0947454,27.67202000000001 705.8575454,26.924650000000007 699.6243454,26.188530000000007 693.3945454000001,25.463530000000006 687.1672454,24.749660000000006 680.9418453999999,24.04695000000001 674.7175454,23.355430000000013 668.4938454,22.675120000000007 662.2702453999999,22.00610000000001 656.0460454,21.34841000000001 649.8209453999999,20.702120000000015 643.5944454,20.067310000000006 637.3662454,19.44407000000001 631.1359454,18.832480000000004 624.9033453999999,18.232650000000014 618.6681454,17.644680000000008 612.4302454,17.068680000000015 606.1895453999999,16.50478000000001 599.9458453999999,15.953080000000007 593.6992454,15.41351000000001 587.4497454,14.885900000000007 581.1973454,14.370070000000005 574.9421454000001,13.865850000000009 568.6843454,13.373070000000013 562.4238453999999,12.89155000000001 556.1610454,12.421130000000005 549.8961454,11.961630000000014 543.6291454,11.512900000000009 537.3605454,11.074760000000005 531.0905454,10.647040000000018 524.8194454,10.229590000000016 518.5476454,9.822220000000002 512.2754454,9.424780000000013 506.00334539999994,9.037090000000006 499.7317454,8.659050000000008 493.4611454,8.29104000000001 487.1918454,7.933750000000003 480.92424539999996,7.587870000000009 474.6586454,7.254069999999999 468.39544539999997,6.933020000000013 462.13484539999996,6.625380000000021 455.8771454,6.331830000000011 449.6223454,6.0530000000000115 443.37084539999995,5.7895500000000055 437.1225454,5.542130000000014 430.8777454,5.311360000000008 424.6363454,5.097890000000007 418.39844539999996,4.9023400000000095 412.16404539999996,4.725350000000006 405.9330454,4.567520000000002 399.7054454,4.429430000000011 393.48104539999997,4.31110000000001 387.2597454,4.2122300000000195 381.0412454,4.132540000000006 374.8252454,4.071750000000009 368.6111454,4.029570000000007 362.3985454,4.005740000000003 356.1866454,4.0 349.9748454,4.012079999999997 343.7622454,4.041740000000004 337.54774539999994,4.088740000000016 331.3305454,4.152870000000007 325.1093454,4.233919999999998 318.88284539999995,4.331680000000006 312.6498454,4.445980000000006 306.4086454,4.576650000000001 300.15794539999996,4.723610000000008 293.8960454,4.887520000000009 287.6221454,5.069609999999997 281.33594539999996,5.271070000000009 275.03824539999994,5.493110000000016 268.7300454,5.736920000000012 262.4135454,6.003640000000004 256.0915454,6.2943500000000085 249.77014540000002,6.609940000000009 243.4496454,6.9515400000000085 237.1351454,7.319960000000023 230.83354540000002,7.715820000000008 224.55134540000003,8.13964 218.2952454,8.591760000000008 212.0726454,9.072340000000011 205.8911454,9.58135 199.7584454,10.118740000000003 193.68084540000004,10.68637000000001 187.6598454,11.287350000000004 181.6919454,11.925200000000011 175.7685454,12.603890000000007 169.87714540000002,13.328100000000013 164.0010454,14.10341000000001 158.11904540000003,14.93666000000001 152.2048454,15.836420000000011 146.22734540000002,16.810860000000012 140.1623454,17.864500000000007 134.0015454,18.99934000000001 127.8258454,20.19973000000001 121.7129454,21.447260000000014 115.60784539999999,22.74958000000001 109.45594539999999,24.116240000000012 103.4331754,25.504500000000007 97.6666754,26.885300000000008 92.1700054,28.272070000000014 86.8789154,29.69696000000001 81.6814354,31.207220000000007 76.41251539999999,32.87553000000001 70.8363454,34.79252000000001 65.0815154,36.90281000000001 59.5467054,39.02374000000001 53.803515399999995,41.28061000000001 48.560835399999995,43.37426000000001 44.179185399999994,45.17823000000001 40.3605254,46.81862000000001 36.8637354,48.40015000000001 33.491095400000006,50.02213000000001 29.994455400000003,51.83682000000001 25.738805400000004,54.28983000000001 21.5558254,56.97883000000001 16.9903554,60.14460000000001 14.1007024,62.232870000000005 12.1766184,63.68970000000001 10.714500399999999,64.85659000000001 9.5335764,65.85361 8.5485764,66.73692100000001 7.7120324,67.53773500000001 6.9946584000000005,68.27541000000001 6.3771274,68.96290100000002 5.8461004,69.60937200000001 5.3921144000000005,70.22159400000001 5.0083667,70.804743 4.6899954,71.36289800000002 4.4336239,71.899348 4.23708371,72.41681500000001 4.0992494,72.917596 4.0199581,73.403675 4.0,73.87680800000001 4.0411779,74.3385882 4.14644703,74.79050790000001 4.3197808,75.2340508 4.5627768,75.67101810000001 4.8761036,76.10329200000001 5.2618214,76.53265900000001 5.7235744,76.96089200000002 6.2669044,77.38983100000002 6.8997984,77.821481 7.6335914,78.258142 8.4845024,78.702588 9.476341399999999,79.158353 10.6456464,79.63019400000002 12.052321399999999,80.12488800000001 13.8044574,80.65247200000002 16.1230354,81.225947 19.4972654,81.83144300000001 24.6757454,82.26014400000001 29.9836154,82.263822 34.6629954,82.142205 39.2835654,81.960846 44.1535654,81.720419 49.5290554,81.413999 55.5874054,81.038936 61.691885400000004,80.64659600000002 67.61909539999999,80.25606400000001 73.6268154,79.85342700000001 79.8343054,79.43336500000001 86.0400154,79.01301000000001 92.1923254,78.60058900000001 98.3576254,78.19648000000001 104.5674454,77.80366800000002 110.8213454,77.425796 117.1055454,77.06152900000001 123.4072454,76.708053 129.71544540000002,76.362277 136.0215454,76.02091300000001 142.31924540000003,75.68051860000001 148.6047454,75.33754490000001 154.8765454,74.98836121000001 161.13534540000003,74.631009 167.3827454,74.26851990000002 173.62034540000002,73.90478100000001 179.84994540000002,73.54363400000001 186.07324540000002,73.18889000000001 192.2922454,72.84433600000001 198.5087454,72.513748 204.7246454,72.20090400000001 210.94214540000002,71.90847400000001 217.1629454,71.63568800000002 223.3887454,71.38113200000001 229.62084540000004,71.14341600000002 235.8603454,70.92116700000001 242.1081454,70.71302100000001 248.3649454,70.51762000000001 254.63104540000003,70.33360900000001 260.9066454,70.15962800000001 267.19164539999997,69.99431600000001 273.4856454,69.83630400000001 279.7880454,69.684217 286.0978454,69.53667200000001 292.41404539999996,69.39228200000001 298.73494539999996,69.24965200000001 305.0590454,69.10739000000001 311.3842454,68.96473 317.70864539999997,68.82258100000001 324.03064539999997,68.682122 330.3487454,68.54452 336.66184539999995,68.41093400000001 342.9689454,68.28250700000001 349.26924539999993,68.160369 355.5624454,68.04563600000002 361.84814539999996,67.939411 368.12644539999997,67.842781 374.3975454,67.75682700000002 380.66194540000004,67.68261800000002 386.9201454,67.62121900000001 393.1731454,67.573689 399.4219454,67.54109400000002 405.6678454,67.524495 411.91244539999997,67.524382 418.1570454,67.54007100000001 424.40294539999996,67.57075400000001 430.6512454,67.61562800000002 436.9030454,67.6739 443.1589454,67.74478200000001 449.4198454,67.827483 455.6861454,67.92121500000002 461.9581454,68.02518400000001 468.2361454,68.13859300000001 474.5200454,68.260637 480.80994539999995,68.39050300000001 487.10544539999995,68.52736900000001 493.40614539999996,68.67040500000002 499.71134539999997,68.81877100000001 506.0202453999999,68.97161400000002 512.3321454,69.12810100000002 518.6458454,69.28743700000001 524.9608454,69.448828 531.2761454,69.61148100000001 537.5911454,69.774606 543.9051453999999,69.93741000000001 550.2178454,70.09910800000002 556.5284453999999,70.258913 562.8368454,70.416047 569.1426454,70.56973200000002 575.4454454,70.71919600000001 581.7452453999999,70.863673 588.0418453999999,71.00239800000001 594.3353454,71.13461300000002 600.6255454,71.25956300000001 606.9128453999999,71.37652000000001 613.1971454,71.485487 619.4788454,71.58733300000002 625.7580453999999,71.682979 632.0351453999999,71.77334 638.3105454,71.85933000000001 644.5846454,71.941861 650.8580453999999,72.02184500000001 657.1311453999999,72.100192 663.4046454,72.17781000000001 669.6793454,72.25561200000001 675.9558454,72.33450800000001 682.2349454,72.41541600000001 688.5176454,72.49925400000001 694.8047454,72.586948 701.0973453999999,72.67943100000001 707.3965454,72.77761000000001 713.7034454,72.88164900000001 720.0187454000001,72.990975 726.3428454,73.104972 732.6675454,73.22285800000002 738.9837454,73.34381200000001 745.2919454,73.46719200000001 751.5933454,73.592374 757.8895454,73.71874500000001 764.1821454,73.84570400000001 770.4737454,73.9726617 776.7666454,74.09903450000002 783.0638454,74.22424620000001 789.3689453999999,74.34772230000002 795.6854454,74.4688871 802.0088453999999,74.58699810000002 808.3140453999999,74.7009905 814.5949454,74.8106302 820.8488454,74.91604243 827.0744454,75.01738517000001 833.2718454,75.11483720000001 839.4424453999999,75.20859320000001 845.5889454,75.29885870000001 851.7151454,75.38584750000001 857.8259453999999,75.46977830000002 863.9274454,75.55087320000001 870.0267454,75.62935670000002 876.1323454,75.7054559 882.2539453999999,75.77940050000001 888.4026454,75.85142460000002 894.5915454,75.92176920000001 900.8356454,75.99068500000001 907.1409454000001,76.05825200000001 913.3952454,76.12178100000001 919.5635454,76.17794800000001 925.6624454,76.22409 931.7207453999999,76.25769900000002 937.7796453999999,76.276172 943.8948453999999,76.27646700000001 950.1380453999999,76.254613 956.3149453999999,76.20783800000001 962.1923454,76.138309 967.7335454,76.050279 972.9317454,75.94786400000001 977.7986453999999,75.83457140000002 982.3559454,75.71322320000002 986.6294454,75.5860188 990.6456454,75.45463910000001 994.4297454,75.32035640000001 998.0051454,75.18413020000001 1001.3923454000001,75.0466832 1004.1920454,74.92692000000001" stroke="black" stroke-width="2.0" /></svg>