<?xml version="1.0" encoding="utf-8" ?>
<svg baseProfile="full" height="177.53284" version="1.1" width="1012.06590182" xmlns="http://www.w3.org/2000/svg" xmlns:ev="http://www.w3.org/2001/xml-events" xmlns:xlink="http://www.w3.org/1999/xlink"><defs /><polygon fill="none" points="1004.06590182,130.2887 1000.10960182,129.128139 995.35010182,127.72851 990.36420182,126.258216 985.1359018200001,124.71198 979.6503018200001,123.08469 973.89440182,121.37179 967.85940182,119.56984 961.5431018200001,117.67735 954.95320182,115.69569 948.1101018200001,113.63045 941.04640182,111.49298999999999 933.8012018200001,109.29819 926.41580182,107.06218 918.92890182,104.80075 911.37270182,102.52784 903.76890182,100.25446 896.12790182,97.98755 888.45360182,95.72936999999999 880.74910182,93.48107999999999 873.0175018200001,91.24375 865.26160182,89.01836 857.48400182,86.8058 849.6870018200001,84.60687999999999 841.87270182,82.42228 834.04290182,80.25262000000001 826.1990018199999,78.09837999999999 818.34210182,75.95998 810.4732018200001,73.83771 802.59270182,71.73179999999999 794.7010018200001,69.64242 786.79810182,67.56993 778.88480182,65.51486 770.9623018200001,63.477869999999996 763.03230182,61.459720000000004 755.09690182,59.46131000000001 747.15900182,57.48362999999999 739.22170182,55.52775 731.28890182,53.59483999999999 723.36470182,51.686130000000006 715.45370182,49.80291 707.56110182,47.94649 699.69210182,46.11823 691.85220182,44.32003 684.04580182,42.55462 676.27570182,40.8244 668.5436018199999,39.13136 660.84960182,37.47713 653.19300182,35.86301999999999 645.57170182,34.29007 637.98270182,32.75908 630.42200182,31.270700000000005 622.88490182,29.8253 615.36570182,28.4234 607.8578018200001,27.065200000000004 600.35390182,25.751000000000005 592.8460018200001,24.480400000000003 585.32660182,23.251499999999993 577.78980182,22.062399999999997 570.23080182,20.911500000000004 562.64590182,19.7975 555.0330018200001,18.719399999999993 547.39100182,17.6764 539.72050182,16.667900000000003 532.02330182,15.693299999999994 524.3030018200001,14.752200000000002 516.56460182,13.8446 508.81480181999996,12.970200000000006 501.06180182,12.128900000000002 493.31530182,11.320999999999998 485.58440182000004,10.548500000000004 477.87700182000003,9.813299999999998 470.19850182000005,9.117199999999997 462.55300182,8.461600000000004 454.94250182,7.8476 447.36770182000004,7.276200000000003 439.82760182,6.748100000000008 432.31970182000003,6.264200000000002 424.84050182000004,5.8248999999999995 417.38480182,5.431100000000001 409.94660182,5.083399999999983 402.51850182000004,4.7823999999999955 395.09200182,4.529200000000017 387.65850182,4.324200000000005 380.21200182,4.168000000000006 372.74890182,4.061299999999989 365.26850182,4.00500000000001 357.77330182000003,4.0 350.26820182000006,4.046999999999997 342.76170182,4.1466000000000065 335.26470182,4.299199999999999 327.79130182,4.5047 320.35750182000004,4.7623999999999995 312.98160182000004,5.071200000000005 305.68290182000004,5.429400000000001 298.48100182,5.834599999999995 291.39490182000003,6.285700000000006 284.43870182,6.783800000000014 277.61860182,7.3300000000000125 270.93510182,7.9254999999999995 264.38370182,8.571300000000008 257.95680182,9.268900000000002 251.64410182,10.019900000000007 245.43340182,10.826300000000003 239.31130181999998,11.690600000000003 233.26300181999997,12.616099999999989 227.27260182,13.606700000000004 221.32310182,14.667100000000005 215.39580181999997,15.803600000000003 209.46970181999998,17.0235 203.52120182,18.336400000000012 197.52250182,19.75399999999999 191.44200181999997,21.283 185.25430182,22.923600000000008 178.94650181999998,24.672399999999996 172.52320182,26.5197 166.01150181999998,28.447400000000002 159.46530181999998,30.4268 152.96350181999998,32.41969 146.60050182,34.385189999999994 140.46320182,36.30801000000001 134.59900182,38.19187000000001 129.01920181999998,40.04616999999999 123.71240182,41.8832 118.65540182,43.71630999999999 113.82040182,45.558930000000004 109.17890182,47.4243 104.70340182,49.32567 100.36728182,51.27651 96.14225182,53.27844999999999 92.00509181999999,55.31363 87.94581181999999,57.35910999999999 83.96538181999999,59.388580000000005 80.07297181999999,61.373810000000006 76.28299181999999,63.287009999999995 72.61546182,65.11465 69.09112181999998,66.86739 65.72038182,68.55907 62.505381820000004,70.20304999999999 59.44294182,71.81154000000001 56.526741820000005,73.39527000000001 53.74886182,74.96357 51.10072182,76.52414 48.573211820000004,78.07851 46.158101820000006,79.6237 43.848661820000004,81.15677 41.63919182,82.67498 39.52472182,84.17585 37.50083182,85.65714 35.563401819999996,87.11691 33.708621820000005,88.5535 31.93283182,89.96554 30.23256182,91.35192 28.60444182,92.71179000000001 27.045201820000003,94.04481999999999 25.55164182,95.35398 24.12112182,96.64334 22.751571820000002,97.91579 21.44118182,99.17329000000001 20.18827182,100.41712 18.991081819999998,101.64803 17.84779182,102.8664 16.756451820000002,104.07239 15.714991820000002,105.26598 14.72242182,106.44624 13.779958820000001,107.61058 12.88809382,108.75726 12.04644382,109.88538 11.25408482,110.99468999999999 10.50977482,112.08539999999999 9.812115819999999,113.15798000000001 9.159656819999999,114.2131 8.55096682,115.25156 7.9846808199999995,116.27421 7.45952282,117.28197 6.9743298199999995,118.27573 6.52805682,119.2564 6.11978182,120.22489 5.748710819999999,121.18206 5.41417182,122.128793 5.11562482,123.065922 4.85265012,123.994276 4.6249584200000005,124.914667 4.43238632,125.827898 4.27490062,126.734762 4.15260288,127.636051 4.0657341867,128.53256199999998 4.0146839,129.425098 4.0,130.31448 4.02240297,131.2015536 4.08279943,132.0871957 4.18166992,132.972188 4.31838162,133.857022 4.49233102,134.742093 4.70309082,135.627742 4.95039532,136.514254 5.2341288200000005,137.401859 5.554315819999999,138.290729 5.91111582,139.180981 6.30481482,140.072663 6.7358258200000005,140.965755 7.20467882,141.860155 7.71202282,142.75567 8.258618819999999,143.65199 8.84533782,144.54869 9.473148819999999,145.44519 10.143115819999998,146.34071 10.856377819999999,147.23428 11.61412882,148.12464 12.417585820000001,149.01022 13.26794482,149.88907 14.16632182,150.75879 15.113651820000001,151.6164 16.11060182,152.45829 17.15737182,153.2801 18.25394182,154.07752 19.40114182,154.84904 20.59998182,155.59398 21.85140182,156.31195 23.15630182,157.00283 24.51560182,157.66689 25.93029182,158.30482 27.40153182,158.91776 28.93076182,159.50747 30.519961820000002,160.07629 32.172491820000005,160.62586 33.89315182,161.15661 35.68730182,161.66897 37.56086182,162.16357 39.52035182,162.64119 41.572881820000006,163.10296 43.726081820000005,163.55035 45.98797182,163.98537 48.366571820000004,164.41071 50.869351820000006,164.82999 53.50220182,165.24799000000002 56.26814182,165.67075 59.16891182,166.1001 62.20683182,166.53163999999998 65.38299182,166.95949 68.69720181999999,167.37655 72.14939181999999,167.77463 75.74256181999999,168.14461 79.48622182,168.47649 83.39993181999999,168.76041 87.51114181999999,168.99447 91.85068182,169.18032 96.45176181999999,169.32053 101.34722182,169.41944 106.56290182,169.4844 112.10880182,169.52204 117.98070182,169.53284 124.16120182,169.51816 130.62040181999998,169.48146 137.31890182,169.42846 144.21580182,169.36697 151.27690182,169.30646000000002 158.48380182,169.25738 165.83590182,169.22424 173.33640182,169.20432 180.98670181999998,169.19411 188.78500182,169.18959 196.72630182,169.18625 204.80100181999998,169.17902 212.99500182,169.16329000000002 221.29080181999998,169.13821000000002 229.67060181999997,169.10412 238.11650182,169.06144 246.61130182,169.01069 255.13920181999998,168.95247999999998 263.68590182,168.88745 272.23930182000004,168.8163 280.78950182000005,168.73973 289.32880182,168.65846 297.85210182000003,168.57316 306.35680182,168.48451 314.84220182,168.39279 323.30880182000004,168.29733 331.75740182000004,168.1973 340.18910182,168.09192000000002 348.60530182,167.98038 357.00730182000007,167.86187999999999 365.39710182000005,167.73561999999998 373.77680182,167.60079000000002 382.14860182,167.45659 390.51500182,167.30219 398.87890182000007,167.13674 407.24340182000003,166.95942 415.61160182000003,166.77011 423.98650182,166.57019 432.37040182,166.36117000000002 440.76480182,166.14457 449.17060182000006,165.92196 457.58800182,165.69493 466.01650182000003,165.46509 474.45470182,165.23412 482.90070182000005,165.00369 491.35170182,164.77553 499.80410182,164.55136 508.25370182,164.33291 516.69580182,164.12051 525.12630182,163.91261 533.5422018200001,163.70756 541.94200182,163.50366 550.32490182,163.29922 558.6915018200001,163.09253 567.04350182,162.88189 575.38350182,162.66556 583.7152018200001,162.4418 592.0434018200001,162.20883 600.37390182,161.96481 608.7135018199999,161.7079 617.0698018200001,161.43752 625.44900182,161.15460000000002 633.85540182,160.86021 642.2911018200001,160.55547 650.75610182,160.24163 659.24780182,159.92006 667.76150182,159.59224 676.28970182,159.25979 684.82240182,158.92446 693.3473018200001,158.58811 701.84970182,158.2527 710.31310182,157.91996 718.7209018200001,157.58841 727.06020182,157.25444 735.32260182,156.91447 743.50400182,156.56498 751.60360182,156.20253 759.62390182,155.82377 767.57000182,155.42539 775.44960182,155.00407 783.27200182,154.55646 791.0490018200001,154.07905 798.79370182,153.56813 806.52160182,153.0197 814.24940182,152.43121 821.9929018199999,151.80356 829.76470182,151.13806 837.57400182,150.43617 845.42700182,149.69957 853.3261018200001,148.93033 861.2700018200001,148.13094999999998 869.25290182,147.3045 877.26470182,146.4547 885.29060182,145.58596 893.31130182,144.70334 901.3031018199999,143.8125 909.23920182,142.91968 917.09000182,142.03321 924.82200182,141.162815 932.3998018200001,140.317911 939.78930182,139.506967 946.95990182,138.73705 953.88700182,138.013511 960.55320182,137.339353 966.94930182,136.713585 973.07490182,136.133625 978.93560182,135.596426 984.54150182,135.098754 989.90520182,134.637378 995.04040182,134.209197 999.96130182,133.811302 1004.06590182,133.4887" stroke="black" stroke-width="2.0" /></svg>