<?xml version="1.0" encoding="utf-8" ?>
<svg baseProfile="full" height="89.27453" version="1.1" width="1012.1386219" xmlns="http://www.w3.org/2000/svg" xmlns:ev="http://www.w3.org/2001/xml-events" xmlns:xlink="http://www.w3.org/1999/xlink"><defs /><polygon fill="none" points="1004.1386219,69.09075 1001.1044219,68.54098 997.4352219,67.881354 993.5657219,67.191861 989.4754219,66.469898 985.1425219,65.712779 980.5441219,64.917899 975.6578219,64.082998 970.4644218999999,63.20661 964.9517218999999,62.28872 959.1206219,61.331659 952.9921219,60.34111 946.6134218999999,59.32597 940.0797219,58.29992 933.5977219,57.29245 927.1497218999999,56.29732 920.6873218999999,55.30374 914.1765218999999,54.303219999999996 907.6204219,53.292910000000006 901.1210219,52.285219999999995 894.6839219,51.28013 888.2957219,50.2772 881.9448219,49.27628 875.6210219,48.27737 869.3154218999999,47.280609999999996 863.0202219,46.286280000000005 856.7284219,45.29481 850.4342219,44.30676 844.1322219,43.32284 837.8182218999999,42.34391 831.4885218999999,41.37097 825.1403218999999,40.40521 818.7715218999999,39.44794 812.3809219,38.500659999999996 805.9683219,37.56503 799.5341219000001,36.642739999999996 793.0799218999999,35.73432 786.6075219,34.83946 780.1184218999999,33.9578 773.6147219,33.08898 767.0979219,32.2326 760.5699219,31.38825 754.0325219,30.555509999999998 747.4875218999999,29.73391 740.9366219,28.92299 734.3816218999999,28.122260000000004 727.8242219,27.331229999999998 721.2662219,26.549370000000003 714.7092219,25.77617 708.1549219,25.01108 701.6049218999999,24.253570000000003 695.0607219,23.503670000000007 688.5234219,22.762289999999993 681.9941219,22.030359999999995 675.4732219,21.308800000000005 668.9614219,20.59847 662.4587218999999,19.900199999999998 655.9650219,19.21479 649.4800218999999,18.54298 643.0032219,17.885530000000003 636.5337218999999,17.243119999999998 630.0707219,16.616459999999996 623.6128219,16.006209999999996 617.1585219,15.413019999999996 610.7064219,14.837530000000001 604.2543219,14.280390000000004 597.8004219,13.742069999999998 591.3425219,13.222070000000002 584.8789218999999,12.719640000000005 578.4083218999999,12.234069999999996 571.9294219,11.764679999999998 565.4415219,11.3108 558.9440218999999,10.871820000000007 552.4366219,10.447120000000005 545.9194219,10.03611 539.3929218999999,9.638199999999998 532.8576219,9.252839999999999 526.3146218999999,8.879450000000006 519.7653219,8.517490000000002 513.2113219,8.166420000000002 506.65462189999994,7.825670000000002 500.09772189999995,7.494759999999992 493.5429219,7.173900000000003 486.99242189999995,6.863990000000008 480.44822189999996,6.56586999999999 473.9117219,6.280389999999997 467.38402189999994,6.008340000000004 460.86582189999996,5.750500000000002 454.35752189999994,5.50761 447.8591219,5.2804 441.3704219,5.069569999999999 434.8907219,4.875800000000012 428.41902189999996,4.699790000000007 421.95412189999996,4.54222 415.4943219,4.4037600000000054 409.0377219,4.2851 402.5822219,4.186970000000002 396.1252219,4.109780000000001 389.6643219,4.053169999999994 383.19762189999994,4.016719999999992 376.7235219,4.0 370.24122189999997,4.00260999999999 363.7497219,4.024149999999992 357.2491219,4.064239999999998 350.73952189999994,4.122469999999993 344.2216219,4.198430000000002 337.6967219,4.2916799999999995 331.16652189999996,4.401780000000002 324.63302189999996,4.528239999999997 318.0989219,4.670540000000003 311.56732189999997,4.828130000000002 305.04182189999995,5.000410000000002 298.52642189999995,5.186869999999999 292.02502189999996,5.387930000000011 285.54092189999994,5.60445 279.0763219,5.837299999999999 272.6326219,6.087329999999994 266.2103219,6.355400000000003 259.8093219,6.64237 253.42842190000002,6.94914 247.0658219,7.2766400000000075 240.7191219,7.625869999999999 234.3850219,7.997850000000007 228.05962190000002,8.393740000000001 221.73832190000002,8.814769999999996 215.4158219,9.262300000000003 209.08592190000002,9.737859999999998 202.74182190000002,10.243139999999997 196.37612190000002,10.779910000000001 189.9842219,11.349440000000001 183.5678219,11.952480000000001 177.1351219,12.589099999999995 170.7009219,13.258489999999995 164.28652190000003,13.95881 157.9192219,14.687129999999996 151.6301219,15.439460000000004 145.4503219,16.21452 139.3988219,17.0167 133.4780219,17.851749999999996 127.67782190000001,18.726319999999994 121.97882190000001,19.64821 116.3544219,20.6267 110.7717219,21.67324 105.19012190000001,22.802500000000002 99.55954190000001,24.03257 93.8345819,25.371389999999998 88.0130619,26.811029999999995 82.1564519,28.325380000000003 76.39293190000001,29.867379999999997 70.8680219,31.40428 65.6428419,32.94559 60.6969019,34.51526 55.9709019,36.14437 51.389261899999994,37.86938 46.8868419,39.700320000000005 42.449841899999996,41.6079 38.1170319,43.54146 33.966171900000006,45.4328 30.0867919,47.21076 26.5454319,48.8297 23.385581900000002,50.33315 20.658341900000003,51.74973 18.3449119,53.07867 16.3726819,54.323570000000004 14.6725819,55.48913 13.2027189,56.57474 11.922924900000002,57.58896 10.7998179,58.54248 9.8079569,59.444810000000004 8.9282029,60.30376 8.1460559,61.125639 7.4504079,61.915574 6.832652899999999,62.677752 6.2860679,63.415645 5.8053829,64.13217 5.386468900000001,64.829811 5.0261206000000005,65.51071 4.7219017999999995,66.176744 4.4720338,66.829578 4.2753194,67.470711 4.13109519,68.101517 4.03920578,68.723271 4.0,69.337184 4.0143477,69.9444227 4.08367954,70.5461419 4.20994667,71.1434946 4.3934163999999996,71.7373605 4.6326815,72.328247 4.9268141,72.916517 5.2754109,73.502399 5.6785609,74.085987 6.1368379,74.667225 6.6513069,75.245883 7.223543899999999,75.821519 7.8556789,76.393421 8.5504559,76.96052399999999 9.311302900000001,77.521286 10.1424339,78.073505 11.0489539,78.614033 12.0369659,79.13835399999999 13.1136369,79.639901 14.2871219,80.108964 15.5660719,80.530907 16.9581819,80.88324 18.4739119,81.13815 20.1410319,81.27453 22.0008119,81.26928 24.1119219,81.09649 26.5595519,80.733458 29.4706619,80.18101 33.0066719,79.478565 37.2892619,78.62521100000001 42.224551899999994,77.657368 47.4276219,76.679839 52.5592519,75.784805 57.59583189999999,74.995608 62.7058019,74.280589 68.0513819,73.601489 73.7642219,72.926033 79.90598190000001,72.224415 86.3687419,71.4862327 92.9307519,70.74133243 99.4201819,70.0194841 105.77372190000001,69.336784 112.01332190000001,68.696293 118.1804219,68.094544 124.3081219,67.529028 130.42262190000002,66.998446 136.54502190000002,66.502477 142.69182189999998,66.041618 148.8753219,65.617075 155.1034219,65.230673 161.3800219,64.883056 167.7062219,64.570846 174.0823219,64.289901 180.5075219,64.03591 186.97982190000002,63.804365 193.49602190000002,63.590556 200.0514219,63.389568 206.6401219,63.196358000000004 213.2548219,63.0082 219.8886219,62.825593 226.5349219,62.649238 233.1861219,62.479843 239.83662189999998,62.318033 246.48762190000002,62.164264 253.1320219,62.019162 259.76652190000004,61.883245 266.38892189999996,61.756989000000004 272.9977219,61.640839 279.5921219,61.535215 286.17202189999995,61.440514 292.7381219,61.357122000000004 299.29172189999997,61.285413 305.8348219,61.225761 312.36972189999994,61.178281 318.89912189999995,61.142628 325.42522189999994,61.118427 331.95002189999997,61.105318 338.47542189999996,61.102959 345.00302189999996,61.111015 351.5341219,61.129163 358.0700219,61.157087 364.6116219,61.194474 371.15972189999997,61.241012999999995 377.7149218999999,61.296394 384.2774219,61.360307 390.8474219,61.432437 397.4248218999999,61.512464 404.0092219,61.600065 410.60002189999994,61.694868 417.1968219,61.79634 423.7987219,61.903902 430.40542189999996,62.016969 437.0163219,62.134954 443.6309219,62.257267 450.2488219,62.383316 456.86972189999994,62.512505000000004 463.4932219,62.644238 470.1191219,62.77792 476.74712189999997,62.912952 483.37712189999996,63.048737 490.00892189999996,63.184676 496.64252189999996,63.320171 503.27792189999997,63.454626 509.9150219,63.587517 516.5539219,63.718768 523.1946218999999,63.848456999999996 529.8370219,63.976664 536.4811219000001,64.103466 543.1268219,64.22894099999999 549.7738218999999,64.353167 556.4221219,64.476222 563.0715218999999,64.598181 569.7216219,64.71912 576.3722219,64.839117 583.0229219,64.958245 589.6735219,65.076581 596.3235219,65.194198 602.9725219000001,65.31117 609.6200218999999,65.427577 616.2657219,65.543531 622.9093219,65.65916200000001 629.5504219,65.77459999999999 636.1891218999999,65.889978 642.8253219000001,66.00543 649.4594219,66.121094 656.0914219,66.23710700000001 662.7219219,66.353609 669.3514219,66.470742 675.9805219,66.588651 682.6099219,66.707483 689.2405219,66.82738599999999 695.8733219000001,66.948512 702.5095219,67.07101800000001 709.1502218999999,67.19503 715.7967219,67.320409 722.4478219,67.44683599999999 729.0937219,67.573825 735.7327219,67.70104 742.3652218999999,67.82819 748.9923219,67.954994 755.6151219,68.08118 762.2355219,68.206483 768.8554218999999,68.330647 775.4775219,68.453421 782.1046219,68.574561 788.7403218999999,68.693824 795.3876219,68.810959 802.0292218999999,68.925355 808.6499219,69.036524 815.2454219,69.144786 821.8129219,69.250846 828.3511219,69.355426 834.8601219,69.459252 841.3414219,69.563051 847.7977218999999,69.667555 854.2330219,69.773501 860.6524218999999,69.8816351 867.0621219,69.9927244 873.4695219,70.1075613 879.8833219,70.2269784 886.3134219,70.3518632 892.7714219,70.4831784 899.2706219,70.6219868 905.8266219000001,70.76947371 912.4505218999999,70.92573397 919.0469219,71.0861411 925.5812219,71.2471335 932.0843219,71.4068508 938.6023219,71.563861 945.1967219,71.7169511 951.7373219,71.860457 958.0369218999999,71.988488 964.0365218999999,72.100212 969.7070219,72.196634 975.0434219,72.279233 980.0568218999999,72.349642 984.7671219,72.409445 989.1978219,72.460086 993.3736219,72.50283400000001 997.3182219,72.538776 1001.0533219,72.568836 1004.1386219,72.59075" stroke="black" stroke-width="2.0" /></svg>