<?xml version="1.0" encoding="utf-8" ?>
<svg baseProfile="full" height="139.601637" version="1.1" width="1013.549819" xmlns="http://www.w3.org/2000/svg" xmlns:ev="http://www.w3.org/2001/xml-events" xmlns:xlink="http://www.w3.org/1999/xlink"><defs /><polygon fill="none" points="1005.549819,123.21950000000001 1002.310719,122.3476734 998.3834189999999,121.28830500000001 994.229119,120.164939 989.823919,118.97063700000001 985.142519,117.69796500000001 980.1595189999999,116.33933000000002 974.851719,114.88764800000001 969.2025189999999,113.33750900000001 963.2084189999999,111.68698 956.8874189999999,109.94003000000001 950.2874189999999,108.10939000000002 943.482819,106.21934000000002 936.5582189999999,104.29950000000001 929.592219,102.37842 922.645619,100.47954000000001 915.755419,98.61917000000001 908.9344189999999,96.80641000000001 902.173919,95.04400000000001 895.452119,93.32718000000001 888.747219,91.64773000000001 882.040619,89.99846000000001 875.316019,88.37311000000001 868.559419,86.76620000000001 861.758119,85.17281000000001 854.901619,83.58853 847.9811189999999,82.00942 840.989519,80.43196 833.9223189999999,78.85304000000001 826.7774189999999,77.27006 819.5558189999999,75.68092000000001 812.262119,74.08414 804.904919,72.47894000000002 797.4969189999999,70.86602000000002 790.057019,69.24965 782.628619,67.63989000000001 775.210819,66.03712000000002 767.793519,64.43967 760.367619,62.84622000000001 752.925819,61.25579000000001 745.482219,59.67199000000001 738.0617189999999,58.10067000000001 730.667119,56.5429 723.299119,54.999340000000004 715.9571189999999,53.47031000000001 708.6391189999999,51.955830000000006 701.341719,50.45569000000002 694.060719,48.969570000000004 686.792519,47.497360000000015 679.533819,46.03908000000001 672.2823189999999,44.59490000000001 665.0363189999999,43.165130000000005 657.794419,41.75019 650.556119,40.35063000000001 643.321519,38.96712000000001 636.0911189999999,37.60044000000002 628.866219,36.25144000000002 621.648519,34.92109000000002 614.4403189999999,33.61042000000002 607.244519,32.32053000000002 600.0645189999999,31.052600000000012 592.903619,29.808180000000007 585.764419,28.58877000000001 578.648519,27.395700000000005 571.556619,26.23008 564.4886189999999,25.092850000000013 557.4436189999999,23.98481000000001 550.4199189999999,22.90660000000001 543.4151189999999,21.858800000000016 536.4259189999999,20.84190000000001 529.4487189999999,19.856300000000005 522.478919,18.902400000000014 515.511319,17.980400000000003 508.540119,17.0908 501.558719,16.233800000000002 494.560219,15.40870000000001 487.538719,14.614000000000019 480.48971900000004,13.848400000000012 473.409919,13.110900000000015 466.297619,12.400500000000008 459.152219,11.71650000000001 451.97501900000003,11.058300000000003 444.768919,10.425200000000004 437.53841900000003,9.817000000000007 430.289819,9.233100000000007 423.03161900000003,8.673200000000008 415.773519,8.137 408.527319,7.624100000000013 401.306019,7.134100000000004 394.122719,6.669300000000007 386.98831900000005,6.233200000000011 379.910519,5.829100000000011 372.89411900000005,5.459600000000009 365.94151899999997,5.1273000000000195 359.052619,4.83420000000001 352.22551899999996,4.582300000000018 345.456519,4.373300000000015 338.74041900000003,4.208800000000011 332.070619,4.090699999999998 325.439319,4.020400000000009 318.83751900000004,4.0 312.255019,4.031500000000008 305.68041900000003,4.117200000000011 299.101019,4.259500000000017 292.504719,4.458200000000005 285.88121900000004,4.713300000000004 279.223119,5.024600000000007 272.524719,5.392200000000017 265.783519,5.816000000000017 258.999419,6.2960000000000065 252.175519,6.831700000000012 245.318519,7.422300000000007 238.438319,8.066300000000012 231.548819,8.761600000000016 224.66731900000002,9.505300000000005 217.814319,10.293600000000012 211.012719,11.12190000000001 204.286819,11.984800000000007 197.660819,12.879300000000015 191.15351900000002,13.80840000000002 184.77431900000002,14.776300000000006 178.524919,15.787300000000002 172.40111900000002,16.845900000000015 166.39421900000002,17.95710000000001 160.49221900000003,19.126300000000015 154.68061900000004,20.359400000000008 148.94341900000003,21.66200000000002 143.26741900000002,23.036800000000014 137.643819,24.48538000000002 132.068119,26.008800000000008 126.539519,27.60738000000002 121.060619,29.280460000000005 115.637119,31.026260000000022 110.277319,32.841690000000014 104.99196900000001,34.72231000000001 99.793859,36.662430000000015 94.697799,38.6555 89.717939,40.69441000000002 84.866959,42.77160000000001 80.15570899999999,44.87935000000002 75.593039,47.01239000000001 71.188619,49.17106000000001 66.954879,51.352900000000005 62.904469,53.55194 59.047849,55.759910000000005 55.391569,57.96751000000002 51.939848999999995,60.16370000000001 48.696439,62.33478000000001 45.656109,64.47291000000001 42.807669000000004,66.57554000000002 40.137609,68.64338000000001 37.632079,70.67908000000001 35.277989000000005,72.68638000000001 33.063399000000004,74.66967000000001 30.977749,76.63372000000001 29.009749,78.58479000000001 27.137128999999998,80.53509000000001 25.343289,82.48829 23.622439,84.43553 21.975109,86.35996 20.403859,88.24241 18.910279,90.06638000000001 17.493758999999997,91.82069000000001 16.160659,93.49558000000002 14.920475999999999,95.08514000000001 13.773954999999999,96.59134 12.717234,98.01982000000001 11.744712,99.37732000000001 10.850431,100.67057000000001 10.0287,101.90582 9.274342,103.08866 8.582773,104.22404000000002 7.949982,105.31627 7.372497,106.36914000000002 6.847321,107.38597000000001 6.371889100000001,108.36967000000001 5.9440089,109.32278000000001 5.56182415,110.24758000000001 5.2237755,111.14606 4.9285707,112.02002000000002 4.6751598,112.87105000000001 4.462715,113.70057000000001 4.290617,114.509882 4.15844,115.30014700000001 4.065949,116.072421 4.013091,116.827662 4.0,117.56674800000002 4.026993,118.29048000000002 4.094584,118.999592 4.203489,119.69476200000001 4.354645,120.37661500000002 4.549229,121.04572900000001 4.7886851,121.70264000000002 5.0747612,122.34785070000001 5.4095534,122.98182810000002 5.7953975,123.60498940000001 6.2327433,124.21738180000001 6.72067,124.81868600000001 7.258465,125.40840800000001 7.845634,125.98586600000002 8.48188,126.55016700000002 9.167071,127.10017800000001 9.901227,127.63448500000001 10.684485,128.151337 11.517074000000001,128.648582 12.399265999999999,129.123578 13.331326,129.573078 14.313424999999999,129.993088 15.345524,130.378672 16.427208999999998,130.72371600000002 17.557409,131.02060500000002 18.734369,131.260179 19.960259,131.437228 21.241868999999998,131.551037 22.587398999999998,131.601637 24.006779,131.590106 25.511979,131.519258 27.117458999999997,131.394775 28.840569,131.22702600000002 30.701649,131.03401100000002 32.722798999999995,130.837314 34.925859,130.641364 37.333319,130.446235 39.966859,130.251616 42.844418999999995,130.05642600000002 45.976719,129.858206 49.364968999999995,129.652289 53.003119,129.43077 56.888208999999996,129.181248 61.035609,128.891107 65.47112899999999,128.55330500000002 70.218959,128.16081200000002 75.296689,127.70641300000001 80.708309,127.18363400000001 86.435949,126.590967 92.441489,125.94178300000002 98.67761899999999,125.25817700000002 105.10047899999999,124.566781 111.682319,123.89238100000001 118.406919,123.24131883000001 125.257519,122.6136737 132.21701900000002,122.00886500000001 139.268419,121.42562800000002 146.39611900000003,120.86202300000001 153.586519,120.31547200000001 160.82901900000002,119.78305100000001 168.11541900000003,119.26363200000002 175.438119,118.75715300000002 182.78961900000002,118.26346900000001 190.162519,117.782345 197.549619,117.31345800000001 204.944319,116.856407 212.34021900000002,116.410936 219.73171900000003,115.97786200000002 227.11411900000002,115.55827300000001 234.483819,115.15316000000001 241.838319,114.76342700000001 249.17591900000002,114.38989900000001 256.495919,114.033325 263.79881900000004,113.694399 271.085619,113.373765 278.35861900000003,113.07203000000001 285.62061900000003,112.78979000000001 292.87531900000005,112.52763000000002 300.12761900000004,112.28614000000002 307.38281900000004,112.06592 314.64711900000003,111.86680000000001 321.926419,111.68697000000002 329.22561900000005,111.52455 336.548519,111.37767000000001 343.898119,111.24447 351.276119,111.12309 358.683419,111.01167000000001 366.119519,110.90830000000001 373.582619,110.81106000000001 381.06981900000005,110.71799000000001 388.576619,110.62709000000001 396.097419,110.53634000000001 403.62491900000003,110.44373000000002 411.150619,110.34755000000001 418.665919,110.24891000000001 426.16291900000004,110.15033000000001 433.635819,110.05431000000002 441.07991899999996,109.96327000000001 448.492319,109.87953000000002 455.87131899999997,109.80536000000001 463.216619,109.74292000000001 470.529219,109.69430000000001 477.811119,109.66156000000001 485.065619,109.64671000000001 492.297019,109.65172000000001 499.510519,109.67861 506.712319,109.72941000000002 513.909619,109.80510000000001 521.109419,109.90393 528.3181189999999,110.02379 535.5413189999999,110.16260000000001 542.783819,110.31831000000001 550.049819,110.48885000000001 557.342719,110.67212 564.665219,110.86597 572.0193189999999,111.0682 579.406019,111.27651000000002 586.825419,111.48853000000001 594.2769189999999,111.70179000000002 601.758619,111.91374000000002 609.2677189999999,112.12178000000002 616.8004189999999,112.32455000000002 624.3530189999999,112.522 631.921419,112.71416 639.502119,112.90107 647.091419,113.08278000000001 654.685819,113.25937200000001 662.282019,113.43092600000001 669.877019,113.597541 677.4677189999999,113.75932800000001 685.051619,113.91640900000002 692.6260189999999,114.068914 700.1887189999999,114.21698500000001 707.737719,114.36077600000002 715.271019,114.501046 722.787019,114.63959500000001 730.284419,114.778304 737.762119,114.91903500000001 745.2193189999999,115.06362000000001 752.6554189999999,115.21386900000002 760.070319,115.37156100000001 767.463819,115.538452 774.8363189999999,115.716272 782.1881189999999,115.90672900000001 789.519919,116.11151100000001 796.8326189999999,116.33229200000001 804.127319,116.57073300000002 811.405219,116.828128 818.6679189999999,117.10313900000001 825.917319,117.393308 833.1556189999999,117.696222 840.384919,118.00951400000001 847.6080189999999,118.330858 854.8275189999999,118.657964 862.0467189999999,118.98856700000002 869.268619,119.32042100000001 876.4971189999999,119.65129000000002 883.735819,119.97893400000001 890.989119,120.30109900000001 898.2615189999999,120.61550600000001 905.557919,120.91983 912.882719,121.21183900000001 920.230019,121.48959900000001 927.5735189999999,121.75067800000001 934.8661189999999,121.99223400000001 942.0445189999999,122.21145800000001 949.037719,122.40609820000002 955.777519,122.57488970000001 962.209219,122.71794750000001 968.301519,122.8370945 974.047319,122.93487890000002 979.4557189999999,123.01398970000001 984.545719,123.0769879 989.340719,123.12617543000002 993.8652189999999,123.16355316 998.143619,123.19082687000001 1002.198319,123.20943600000001 1005.549819,123.21950000000001" stroke="black" stroke-width="2.0" /></svg>