<?xml version="1.0" encoding="utf-8" ?>
<svg baseProfile="full" height="136.96202" version="1.1" width="1012.5939639" xmlns="http://www.w3.org/2000/svg" xmlns:ev="http://www.w3.org/2001/xml-events" xmlns:xlink="http://www.w3.org/1999/xlink"><defs /><polygon fill="none" points="1004.5939639,113.4761 1001.4843639,112.676557 997.7159638999999,111.705319 993.7315638999999,110.675684 989.5081638999999,109.581198 985.0207639,108.414838 980.2437639,107.16926 975.1524638999999,105.837301 969.7273639,104.412919 963.9591639,102.89272 957.8572639,101.27813 951.4588639,99.57804 944.8318638999999,97.81177 938.0607639,96.00623 931.2299638999999,94.18903 924.4100639,92.38429 917.6489638999999,90.60964 910.9696639,88.87567 904.3733639,87.18674 897.8436639,85.54142 891.3586638999999,83.93268 884.8991639,82.35339 878.4489639,80.79742 871.9941638999999,79.25945999999999 865.5227639,77.7348 859.0244638999999,76.21925999999999 852.4906638999998,74.7091 845.9144639,73.20099 839.2906638999999,71.69198 832.6162638999999,70.17951 825.8899639,68.66143 819.1132638999999,67.13604000000001 812.2899638999999,65.60213 805.4271639,64.05909 798.5345639,62.5072 791.6232639,60.94981 784.7035639,59.391510000000004 777.7846638999999,57.8367 770.8747639,56.28946 763.9803638999999,54.75356 757.1071638999999,53.23241 750.2591639,51.729029999999995 743.4393639,50.246129999999994 736.6493639,48.78601999999999 729.8897639,47.35074 723.1599639,45.94198999999999 716.4585639,44.56124 709.7829638999999,43.20970999999999 703.1299639,41.88843999999999 696.4955639,40.597939999999994 689.8759638999999,39.33749 683.2674638999999,38.106179999999995 676.6667639,36.90321999999999 670.0707639,35.72789 663.4763638999999,34.57957999999999 656.8806639,33.45772000000001 650.2809639,32.36183 643.6746638999999,31.291510000000002 637.0591638999999,30.246399999999994 630.4321639,29.226209999999995 623.7912638999999,28.2307 617.1342639,27.25967 610.4590639,26.313000000000002 603.7635638999999,25.390599999999992 597.0456639,24.492239999999995 590.3038639,23.616770000000002 583.5367639,22.7628 576.7434638999999,21.928970000000007 569.9235639,21.113989999999987 563.0771639,20.31657 556.2049638999999,19.53546999999999 549.3079639,18.769459999999995 542.3879638999999,18.01733 535.4474638999999,17.277910000000006 528.4891639,16.550039999999996 521.5167639,15.83256 514.5345639,15.124370000000013 507.5471639,14.424369999999996 500.5601639,13.731499999999997 493.5791639,13.046300000000002 486.6093639,12.371399999999994 479.65536390000005,11.709599999999995 472.72086390000004,11.063300000000012 465.8090639,10.435099999999991 458.9224639,9.827300000000008 452.0629639,9.242099999999994 445.23176390000003,8.681600000000003 438.4294639,8.147599999999997 431.6562639,7.642099999999999 424.9116639,7.166700000000006 418.1948639,6.723199999999991 411.5044639,6.3130999999999915 404.83866390000003,5.937899999999999 398.1954639,5.599100000000007 391.5723639,5.296300000000002 384.9668639,5.028099999999995 378.3760639,4.7934999999999945 371.7965639,4.591200000000001 365.22466390000005,4.420199999999994 358.6562639,4.279399999999995 352.08706390000003,4.168000000000006 345.5120639,4.085099999999997 338.9258639,4.029899999999998 332.3227639,4.0017 325.6961639,4.0 319.0389639,4.024199999999993 312.3432639,4.073999999999998 305.6001639,4.149000000000001 298.7997639,4.249200000000002 291.9318639,4.375799999999998 284.9890639,4.531100000000009 277.9680639,4.71759999999999 270.8905639,4.9369000000000085 263.8623639,5.1875 256.8878639,5.4698999999999955 249.9477639,5.785700000000006 243.0186639,6.1370000000000005 236.0729639,6.526700000000005 229.0776639,6.958600000000004 222.0185639,7.4361999999999995 215.0597639,7.949399999999997 208.27336390000002,8.491900000000001 201.6907639,9.059000000000012 195.33476389999998,9.6494 189.20936390000003,10.269499999999994 183.2976639,10.927000000000007 177.57056390000002,11.6297 171.9920639,12.386299999999991 166.5219639,13.206599999999995 161.1155639,14.102910000000008 155.7223639,15.091319999999996 150.28096390000002,16.19341999999999 144.7174639,17.430350000000004 138.96276390000003,18.81868 132.96596390000002,20.37307 126.7128639,22.098989999999986 120.25756390000001,23.979560000000006 113.7523639,25.961209999999994 107.4328639,27.954639999999998 101.5298939,29.86479 96.17378390000002,31.653570000000002 91.3387739,33.362880000000004 86.9179739,35.04763 82.7989439,36.76044999999999 78.8790039,38.555499999999995 75.05687390000001,40.49359 71.22680390000001,42.62252000000001 67.3027039,44.98235 63.2256139,47.604029999999995 58.986683899999996,50.483709999999995 54.6712139,53.53936 50.4749839,56.596090000000004 46.6018439,59.503969999999995 43.1138939,62.22298 39.979543899999996,64.77372 37.1420139,67.19498999999999 34.546253899999996,69.52708 32.1453639,71.80821 29.9001839,74.07591 27.775223899999997,76.37071 25.718993899999997,78.73236 23.698053899999998,81.15857 21.726463899999995,83.58464000000001 19.847873900000003,85.91067 18.1005639,88.05745999999999 16.4971339,89.99609 15.0391139,91.73391 13.7308239,93.29502 12.5601889,94.71033 11.510515900000001,96.00708 10.566341900000001,97.20684 9.714708900000002,98.32624 8.9450889,99.37819999999999 8.2489949,100.37282 7.6195869,101.31811 7.0513329,102.22055 6.5397509,103.08543 6.0812059000000005,103.91714 5.6727539,104.719352 5.3120332999999995,105.495195 4.9971711,106.247354 4.7267209,106.978162 4.49961435,107.689661 4.3151276,108.383666 4.1728587,109.061797 4.0727166,109.725526 4.014919,110.376198 4.0,111.015061 4.0288288,111.643289 4.1026394999999996,112.261999 4.2230761,112.872279 4.3922548,113.475201 4.61285095,114.07185062 4.8872864,114.6633187 5.215699799999999,115.250593 5.5981679,115.834544 6.0352609,116.415951 6.5280479,116.995503 7.0781168999999995,117.573803 7.6876169,118.151365 8.3593159,118.728593 9.0966769,119.305751 9.9039529,119.882912 10.786308900000002,120.459867 11.7499279,121.03598099999999 12.8021179,121.609951 13.9512819,122.1794 15.2066139,122.740177 16.5770039,123.285155 18.0688539,123.802596 19.6954139,124.28201 21.4828139,124.7178 23.4638539,125.10629 25.6786739,125.44879 28.1760639,125.7582 31.016183899999998,126.06994 34.2631239,126.41779 37.9564239,126.80129 42.0847939,127.2085 46.5660339,127.61681 51.273953899999995,127.99811 56.1109139,128.32759 61.0651939,128.59188 66.1696239,128.78818 71.45193390000001,128.91306 76.9258839,128.96202 82.5811639,128.9307 88.37734390000001,128.81617 94.26696390000001,128.61774 100.2138839,128.33684 106.1992639,127.97570999999999 112.22356390000002,127.53906 118.2968639,127.03723 124.4283639,126.48167 130.6265639,125.88455 136.8979639,125.25898000000001 143.2479639,124.61926 149.6793639,123.98105699999999 156.19276390000002,123.361441 162.78526390000002,122.771822 169.4510639,122.20911 176.18346390000002,121.667916 182.9749639,121.142408 189.81766389999999,120.626359 196.7028639,120.113206 203.6215639,119.596118 210.5644639,119.069087 217.5228639,118.532479 224.48916390000002,117.989181 231.4565639,117.44206199999999 238.41916390000003,116.893932 245.3721639,116.347513 252.3119639,115.805424 259.23576389999994,115.270169 266.1419639,114.7441329 273.02996390000004,114.2295826 279.9000639,113.7286744 286.7533639,113.2434648 293.5921639,112.775926 300.4193639,112.327963 307.2387639,111.901406 314.0547639,111.49685099999999 320.8713639,111.11333 327.6922639,110.749839 334.5203639,110.405439 341.3584639,110.079247 348.2085639,109.770421 355.07226390000005,109.478155 361.9508639,109.201672 368.8449639,108.940214 375.7545639,108.693037 382.67946390000003,108.459406 389.6185639,108.238589 396.5704639,108.02985699999999 403.53296389999997,107.832475 410.5034639,107.645811 417.4791639,107.469885 424.4575639,107.30494 431.4363639,107.151201 438.4139639,107.008867 445.3888639,106.878122 452.3600639,106.759133 459.3267639,106.65205399999999 466.2888639,106.557031 473.2461639,106.474201 480.19916390000003,106.403697 487.1487639,106.345654 494.0958639,106.30020999999999 501.0421639,106.267507 507.98936390000006,106.247673 514.9396639,106.240268 521.8947638999999,106.244287 528.8565639,106.258714 535.8264638999999,106.282532 542.8056638999999,106.314725 549.7951639,106.354273 556.7954639,106.400147 563.8071638999999,106.451311 570.8304638999999,106.506717 577.8650639,106.565303 584.9107638999999,106.625997 591.9666639,106.68771 599.0319638999999,106.749343 606.1053638999999,106.809789 613.1852638999999,106.86827 620.2701639,106.924711 627.3587639,106.979126 634.4496639,107.031529 641.5417638999999,107.08194 648.6342639,107.130379 655.7263638999999,107.176868 662.8173638999999,107.221433 669.9068639,107.2641 676.9945639,107.304897 684.0802639,107.343852 691.1640638999999,107.380994 698.2462638999999,107.416355 705.3269639,107.44996499999999 712.4067639,107.482068 719.4859638999999,107.513512 726.5645638999999,107.545245 733.6421639,107.578214 740.7182638999999,107.613364 747.7918639,107.651635 754.8614638999999,107.693963 761.9255638999999,107.741274 768.9822639,107.794483 776.0292639,107.85449 783.0639639,107.922175 790.0836638999999,107.998395 797.0851638999999,108.083977 804.0652639,108.179716 811.0204639,108.286219 817.9479639,108.403374 824.8465639,108.530865 831.7164638999999,108.668408 838.5594639,108.815754 845.3783639,108.972703 852.1777639,109.139109 858.9630639,109.314886 865.7411639,109.500017 872.5201639,109.694565 879.3097639,109.898679 886.1207639,110.112606 892.9660639,110.336712 899.8605639,110.571498 906.8216638999999,110.817622 913.8664639,111.075303 920.9276639,111.340783 927.9280639,111.609539 934.9117638999999,111.881649 941.9454638999999,112.158204 948.9568638999999,112.43483499999999 955.7287638999999,112.701472 962.1793639,112.954003 968.2627639,113.1907476 973.9669639,113.4114913 979.3027639,113.6168889 984.2935639,113.8080494 988.9679639,113.98625532 993.3557638999999,114.1527979 997.4854639,114.3088916 1001.3831639,114.4556382 1004.5939639,114.5761" stroke="black" stroke-width="2.0" /></svg>