<?xml version="1.0" encoding="utf-8" ?>
<svg baseProfile="full" height="104.968761" version="1.1" width="1012.1154698" xmlns="http://www.w3.org/2000/svg" xmlns:ev="http://www.w3.org/2001/xml-events" xmlns:xlink="http://www.w3.org/1999/xlink"><defs /><polygon fill="none" points="1004.1154698,87.03254 1000.9806698,86.3761364 997.1837698,85.58661099999999 993.1722698,84.75901 988.9239698,83.889875 984.4150698000001,82.97566 979.6211698000001,82.012963 974.5194698,80.998938 969.0915698,79.931962 963.3291697999999,78.812623 957.2411698,77.644988 950.8617698,76.43791 944.2542698000001,75.20515 937.6008698,73.9812 931.0070698000001,72.78483 924.4134698,71.60446999999999 917.7763698,70.43187 911.0803698,69.2641 904.4303698000001,68.11891 897.8482698,66.99909 891.3170698,65.90068 884.8212698,64.82006 878.3475698,63.754129999999996 871.8842698000001,62.70017 865.4215698,61.65582 858.9506698,60.61896 852.4642698,59.58774 845.9560698,58.56052 839.4211698,57.53586 832.8556698000001,56.5125 826.2571698,55.4894 819.6244698,54.46571 812.9580698,53.44077 806.2597698000001,52.41416 799.5334698,51.38576 792.8000698,50.35854 786.0835698000001,49.33629 779.3799698,48.31851999999999 772.6848698,47.304689999999994 765.9943698000001,46.29434 759.3048698,45.287049999999994 752.6131698,44.282469999999996 745.9162698,43.28030999999999 739.2116698,42.280319999999996 732.4969698,41.282309999999995 725.7703698,40.28615 719.0301698000001,39.29175 712.2897698,38.30125 705.5636698,37.31688 698.8523698,36.3389 692.1558698,35.36811 685.4739698,34.40559 678.8062698000001,33.4524 672.1521698,32.509539999999994 665.5106698,31.577979999999997 658.8807698,30.658649999999994 652.2611698000001,29.75246 645.6505698000001,28.860249999999994 639.0473698000001,27.982889999999998 632.4495698000001,27.12119 625.8552698,26.275959999999998 619.2623698000001,25.447989999999997 612.6682698000001,24.638079999999995 606.0706698,23.84700999999999 599.4665698,23.07549999999999 592.8533698000001,22.323089999999993 586.2286698,21.588459999999998 579.5908698,20.87035999999999 572.9383698,20.167569999999998 566.2703698,19.47892999999999 559.5863698,18.80333999999999 552.8865698,18.139709999999994 546.1714698,17.487009999999998 539.4421698000001,16.844219999999993 532.7003698000001,16.210369999999998 525.9481698000001,15.584499999999991 519.1885698,14.965699999999998 512.4246698000001,14.353079999999991 505.6603698,13.74579 498.90016980000007,13.143149999999991 492.1483698,12.54625999999999 485.4087698,11.95729999999999 478.68436980000007,11.37836 471.9773698,10.811419999999998 465.28926980000006,10.258349999999993 458.62086980000004,9.720950000000002 451.9721698,9.200890000000001 445.34276980000004,8.699789999999993 438.73136980000004,8.219159999999988 432.1361698,7.760499999999993 425.55496980000004,7.325220000000002 418.98456980000003,6.914739999999995 412.42176980000005,6.530459999999991 405.86226980000004,6.173779999999994 399.30156980000004,5.846059999999994 392.73496980000004,5.547389999999993 386.15816980000005,5.277029999999996 379.56796980000007,5.034279999999995 372.96206980000005,4.818519999999992 366.3390698,4.629199999999997 359.6983698,4.465789999999998 353.0403698,4.327790000000007 346.3666698,4.214680000000001 339.67976980000003,4.12594 332.98316980000004,4.061000000000007 326.2814698,4.0192499999999995 319.5803698,4.0 312.8865698000001,4.002509999999987 306.2076698,4.025919999999999 299.5520698,4.069429999999997 292.9284698,4.134439999999998 286.3442698,4.224119999999999 279.8045698,4.341530000000006 273.31256980000006,4.489559999999997 266.8696698,4.670940000000002 260.4755698,4.888329999999996 254.12846979999998,5.144289999999998 247.8254698,5.441410000000005 241.56206980000002,5.782299999999992 235.3330698,6.16968 229.1320698,6.606439999999992 222.9514698,7.095719999999986 216.7827698,7.640989999999988 210.61646979999998,8.246159999999989 204.4413698,8.915669999999992 198.2450698,9.653899999999993 192.01486979999999,10.460130000000007 185.7411698,11.331189999999992 179.41836980000002,12.263359999999992 173.0456698,13.252049999999997 166.62716980000002,14.291549999999987 160.17296979999998,15.374740000000003 153.69916980000002,16.492909999999995 147.2283698,17.63865 140.7879698,18.816190000000006 134.4048698,20.032749999999993 128.1037698,21.29469999999999 121.90636980000001,22.60736999999999 115.83096979999999,23.975 109.8920698,25.40074 104.10080980000001,26.886670000000002 98.4647998,28.433500000000002 92.97910979999999,30.041729999999994 87.6125698,31.71964 82.3106198,33.48611 76.99370979999999,35.374069999999996 71.55434980000001,37.431309999999996 65.9372098,39.686569999999996 60.2507298,42.09939 54.7866398,44.53357999999999 49.8532198,46.82722 45.5607098,48.930519999999994 41.8144798,50.88804999999999 38.4851098,52.7573 35.4670398,54.58921 32.679639800000004,56.43007 30.0581498,58.32862 27.5414998,60.34641 25.0364598,62.544129999999996 22.4981798,64.88835 20.0241098,67.19399999999999 17.7594298,69.25501 15.7575098,71.00604999999999 14.019430799999999,72.48695 12.525268800000001,73.76673 11.2336228,74.90138999999999 10.1090208,75.92845 9.124136799999999,76.87353 8.2585608,77.754533 7.4969978,78.58437599999999 6.8278528000000005,79.37267 6.2422478,80.126785 5.7333298,80.852524 5.2958068,81.554566 4.9256152,82.23676999999999 4.619688,82.90239 4.3757944,83.554227 4.19242787,84.194745 4.06873482,84.826159 4.0044733,85.450504 4.0,86.0697019 4.05628284,86.68560529999999 4.17486042,87.300023 4.3553971,87.91378879999999 4.5952292,88.52650299999999 4.8921591,89.137577 5.2445278,89.746278 5.6511338,90.351707 6.1111798,90.95276199999999 6.6242208,91.548102 7.190132800000001,92.13608099999999 7.8090808,92.71468399999999 8.4814918,93.281424 9.208022799999998,93.83322 9.9895228,94.366225 10.8269708,94.875602 11.7213898,95.35522 12.673693799999999,95.797236 13.6844518,96.191538 14.753489799999999,96.524969 15.8792298,96.780303 17.057709799999998,96.93500499999999 18.287129800000002,96.968761 19.5748898,96.873829 20.9312998,96.645324 22.3694098,96.281284 23.9059198,95.785079 25.5624198,95.169438 27.3671898,94.46316399999999 29.3576098,93.722222 31.5785198,93.020004 34.069729800000005,92.381878 36.8683998,91.820644 40.0032598,91.345034 43.4829198,90.95222199999999 47.2860098,90.61774 51.3647698,90.28685399999999 55.6707798,89.871785 60.196119800000005,89.30738699999999 64.96381980000001,88.60289999999999 69.9971798,87.7850788 75.3137998,86.8968412 80.9187198,86.001702 86.7918898,85.151596 92.8896898,84.35048499999999 99.16396979999999,83.592466 105.5725698,82.866041 112.08696979999999,82.160023 118.6872698,81.471621 125.3528698,80.798656 132.0636698,80.138384 138.8004698,79.48756399999999 145.5452698,78.84255399999999 152.2824698,78.19940799999999 158.9989698,77.55476399999999 165.6850698,76.91221 172.3345698,76.27866 178.9444698,75.66055 185.5149698,75.06378 192.0489698,74.4938 198.55176980000002,73.95567 205.03116980000001,73.45419 211.49666979999998,72.99188 217.95776980000002,72.56600999999999 224.4227698,72.17332 230.8987698,71.81078 237.3920698,71.47551 243.9080698,71.16477 250.4511698,70.87588 257.0245698,70.6062 263.63096980000006,70.35311 270.27146980000003,70.11394999999999 276.9463698,69.88606999999999 283.6545698,69.66674 290.3934698,69.4532 297.15936980000004,69.24262999999999 303.94686980000006,69.03219 310.74916980000006,68.8198 317.55926980000004,68.60651999999999 324.37096980000007,68.39415 331.1786698,68.18449 337.97796980000004,67.97928999999999 344.76506980000005,67.78022999999999 351.5371698,67.58897999999999 358.29246980000005,67.40711 365.02976980000005,67.23616 371.74896980000005,67.07760999999999 378.4505698,66.93290999999999 385.1358698,66.80346 391.8070698000001,66.69063 398.46676980000007,66.59582 405.1186698,66.52038999999999 411.76666980000005,66.46497 418.4149698,66.42841 425.0669698,66.40931 431.72596980000003,66.40635 438.3945698,66.41819 445.07506980000005,66.44352 451.7692698,66.48103 458.47866980000003,66.5294 465.20416980000005,66.58731 471.9461698,66.65339 478.7047698,66.72627 485.47946980000006,66.80456 492.2692698000001,66.88681 499.0724698,66.97158 505.8869698000001,67.05736999999999 512.7034698,67.14329 519.5137698,67.22959 526.3199698,67.3168 533.1244697999999,67.40541999999999 539.9292698,67.49597 546.7361698,67.58896 553.5468698000001,67.68491 560.3627698,67.78433 567.1785698000001,67.88764 573.9866698000001,67.99519 580.7862698,68.10746 587.5766698,68.22489 594.3574698000001,68.34794 601.1284698000001,68.47707 607.8895698,68.61270999999999 614.6410698000001,68.75531 621.3829698,68.9053 628.1158698,69.06311 634.8402698,69.22916 641.5567698,69.4039 648.2661698,69.58776 654.9695698,69.78119 661.6678698000001,69.98463 668.3624698000001,70.19856 675.0544698,70.42344 681.7455698,70.65977 688.4372698,70.90803 695.1313698,71.16875999999999 701.8297698,71.44248999999999 708.5345698,71.7297 715.2478698,72.02981 721.9711698,72.34161999999999 728.7057698000001,72.66386 735.4522698000001,72.99524 742.2104697999999,73.33440999999999 748.9799698,73.68001 755.7596698,74.03059999999999 762.5475698000001,74.3847 769.3413698,74.7408 776.1380698,75.09733 782.9340698000001,75.45268 789.7251698,75.80524 796.5064698,76.15334999999999 803.2727698,76.49538 810.0183698,76.83001 816.7380698,77.157808 823.4283698,77.48001099999999 830.0875698,77.797934 836.7157698,78.112932 843.3145698,78.426399 849.8869698000001,78.739766 856.4375698,79.054501 862.9721698000001,79.372123 869.4979698000001,79.69421 876.0235698,80.022426 882.5590698,80.358541 889.1160698000001,80.704475 895.7084698,81.062341 902.3519698,81.434512 909.0651698,81.823339 915.8479698,82.227144 922.5823698,82.635297 929.2599698,83.04351199999999 935.9224698,83.450712 942.6289698,83.856917 949.3867698,84.258837 955.9519698,84.63870899999999 962.2276698,84.989964 968.1697698,85.311674 973.7636698,85.604871 979.0153698,85.871612 983.9432698,86.1144007 988.5713698000001,86.3358076 992.9258698,86.53827 997.0319698,86.7239961 1000.9137698000001,86.8949374 1004.1154698,87.03254" stroke="black" stroke-width="2.0" /></svg>