<?xml version="1.0" encoding="utf-8" ?>
<svg baseProfile="full" height="117.93595000000002" version="1.1" width="1012.2577654" xmlns="http://www.w3.org/2000/svg" xmlns:ev="http://www.w3.org/2001/xml-events" xmlns:xlink="http://www.w3.org/1999/xlink"><defs /><polygon fill="none" points="1004.2577654,98.24440000000001 1001.2050654,97.61760600000001 997.5096654,96.85476000000001 993.6074654,96.04432600000001 989.4763654000001,95.18088800000001 985.0924654,94.25846000000001 980.4306654000001,93.27061200000001 975.4664654000001,92.21077600000001 970.1784654,91.07285800000001 964.5536654,89.85229600000001 958.5941654000001,88.54768000000001 952.3264654000001,87.16287000000001 945.8070654,85.70970000000001 939.1938654,84.22539 932.6593654000001,82.75189 926.1451654000001,81.27941000000001 919.6009654000001,79.79982000000001 912.9924654,78.30867 906.3673654,76.82015000000001 899.8160654000001,75.35760000000002 893.3243654,73.91852000000002 886.8759654,72.49861000000001 880.4570654,71.09413 874.0555654,69.70186000000001 867.6608654,68.31897000000001 861.2638654,66.94298 854.8565654,65.57169000000002 848.4319654000001,64.20318000000002 841.9842654,62.83579000000001 835.5087654,61.468060000000015 829.0016654,60.098790000000015 822.4604654,58.72702000000002 815.8838654000001,57.35203000000001 809.2719654,55.97337000000001 802.6261654,54.590890000000016 795.9525654,53.20538000000001 789.2912654,51.82473000000002 782.6522654,50.45061000000001 776.0314654,49.081730000000015 769.4247654000001,47.71683000000001 762.8277654,46.35464000000001 756.2365654,44.99388000000001 749.6468654,43.63330000000001 743.0542654,42.27161000000001 736.4544654000001,40.90749000000002 729.8430654,39.53963000000002 723.2152654,38.16663000000001 716.5662654,36.78709000000001 709.8920654000001,35.39972000000001 703.2261654000001,34.011070000000004 696.5952654000001,32.62732000000001 690.0029654000001,31.253080000000026 683.4511654,29.893260000000012 676.9410654000001,28.552380000000014 670.4726654000001,27.234550000000013 664.0452654000001,25.94353000000001 657.6570654000001,24.68279000000001 651.3059654,23.45549000000001 644.9889654,22.26454000000001 638.7023654000001,21.11268000000001 632.4422654000001,20.00245000000001 626.2038654,18.93631000000002 619.9821654,17.916630000000026 613.7713654,16.94577000000001 607.5652654,16.02609000000001 601.3571654,15.16000000000001 595.1401654000001,14.347770000000011 588.9082654,13.586340000000021 582.6560654000001,12.87260000000002 576.3787654,12.20365000000001 570.0723654,11.576750000000018 563.7332654,10.989310000000017 557.3587654,10.438800000000015 550.9466654,9.922770000000014 544.4954654000001,9.438790000000026 538.0047654,8.984430000000017 531.4748654,8.557260000000014 524.9068654,8.154780000000017 518.3031654,7.774460000000019 511.66726539999996,7.413700000000006 505.00366539999993,7.069850000000017 498.3181654,6.74045000000001 491.6168654,6.425370000000015 484.90526539999996,6.125680000000017 478.1884654,5.842380000000006 471.47116539999996,5.57641000000001 464.7572654,5.328640000000007 458.05016539999997,5.099880000000013 451.3528654,4.890870000000007 444.6673654,4.702310000000011 437.9955654,4.5348200000000105 431.33826539999995,4.389020000000016 424.69606539999995,4.265480000000025 418.0688654,4.164720000000017 411.4560654,4.087280000000021 404.85666539999994,4.033690000000007 398.2689654,4.004460000000023 391.69126539999996,4.0 385.1220654,4.020660000000007 378.55996539999995,4.066840000000013 372.0038654,4.138930000000016 365.4527654,4.237350000000021 358.9057654,4.362520000000018 352.36246539999996,4.514880000000019 345.8222654,4.694880000000012 339.28496540000003,4.902950000000018 332.7504654,5.139540000000011 326.2187654,5.405080000000012 319.6902654,5.700020000000023 313.1651654,6.024750000000012 306.6442654,6.379690000000011 300.12816539999994,6.765240000000006 293.6180654,7.182270000000003 287.11516539999997,7.632130000000018 280.62096539999993,8.116190000000017 274.13696539999995,8.635740000000013 267.6648654,9.192070000000015 261.2060654,9.786390000000011 254.76256540000003,10.419890000000024 248.3360654,11.09369000000001 241.92846540000002,11.808840000000018 235.54156540000002,12.56635 229.1773654,13.36714000000002 222.8378654,14.212080000000014 216.52506540000002,15.10193000000001 210.24096540000002,16.037410000000023 203.98756540000002,17.019130000000004 197.7668654,18.047390000000007 191.57936540000003,19.12139000000002 185.42226540000001,20.240460000000013 179.2897654,21.404680000000013 173.1730654,22.614930000000015 167.06016540000002,23.873070000000013 160.93576540000004,25.182060000000007 154.7807654,26.546210000000016 148.5715654,27.971400000000017 142.28566540000003,29.46353000000002 135.91296540000002,31.025660000000016 129.46206539999997,32.65636000000001 122.96336539999999,34.348020000000005 116.4710654,36.08559000000002 110.0596654,37.84676000000001 103.81331540000001,39.60442000000001 97.8105154,41.33566000000001 92.08421539999999,43.04667000000001 86.5995654,44.763860000000015 81.2812354,46.52493000000002 76.02547539999999,48.38039000000001 70.7094554,50.38194000000001 65.2699554,52.552320000000016 59.7690354,54.862690000000015 54.411505399999996,57.21289000000001 49.454885399999995,59.46979000000001 45.02671539999999,61.57552000000001 41.0749954,63.55269000000001 37.498175399999994,65.44565 34.2016254,67.29992000000001 31.1047854,69.16122000000001 28.134115400000002,71.08198000000002 25.2046654,73.13107000000001 22.3184654,75.30757000000001 19.6459054,77.45358000000002 17.3287054,79.40126000000001 15.3652454,81.10463000000001 13.7107344,82.58877000000001 12.3073014,83.90082000000001 11.1012284,85.08203000000002 10.052852399999999,86.16226000000002 9.1338774,87.16265000000001 8.323898400000001,88.09843000000001 7.6079064,88.98090000000002 6.9746454,89.81861900000001 6.4155434,90.61827900000002 5.9239994,91.38519400000001 5.4949014,92.12368200000002 5.124299300000001,92.83731300000001 4.8091703,93.52909100000001 4.5472632,94.20158 4.33698451,94.85701000000002 4.17732575,95.49734500000001 4.0678189,96.12434800000001 4.0085173,96.73963000000002 4.0,97.34468600000001 4.0434003,97.94094000000001 4.1404613,98.52977650000001 4.29361931,99.11257670000002 4.5047019,99.69068930000002 4.7731870999999995,100.26527500000002 5.0988159,100.83734900000002 5.4819764,101.40781300000002 5.9237024,101.977472 6.4257004,102.54704100000001 6.990411399999999,103.11714 7.6211024,103.68827900000001 8.3220014,104.26082600000001 9.0984814,104.83494400000001 9.9573064,105.41047900000001 10.906941400000001,105.98677400000001 11.9579324,106.562323 13.1232764,107.13415400000001 14.4185654,107.696661 15.8611554,108.23937700000002 17.4664354,108.74286600000002 19.2547854,109.18250000000002 21.2664954,109.53768000000001 23.5501854,109.78709 26.1573154,109.91625000000002 29.1372954,109.93595000000002 32.5410154,109.89070000000001 36.3850554,109.77971000000001 40.6131354,109.57921000000002 45.1006754,109.26934000000001 49.7118854,108.83743800000002 54.372935399999996,108.27233700000001 59.112635399999995,107.55731100000001 64.03196539999999,106.68337100000001 69.2380954,105.64206500000002 74.82674540000001,104.42917800000001 80.8370554,103.06389000000001 87.16910539999999,101.60113800000002 93.6344554,100.09931900000001 100.0843054,98.60733920000001 106.4599654,97.15283000000001 112.7799654,95.73911000000001 119.0784654,94.35770800000002 125.3818654,93.00171100000001 131.7095654,91.66611400000001 138.0746654,90.34755400000002 144.48336540000003,89.04419100000001 150.9347654,87.75568000000001 157.4199654,86.48321000000001 163.9242654,85.23020000000001 170.4337654,84.00090000000002 176.9375654,82.79886000000002 183.4280654,81.62683000000001 189.9011654,80.48681000000002 196.3559654,79.38019000000001 202.7944654,78.30776000000002 209.2215654,77.26969000000001 215.64356540000003,76.26437000000001 222.06616540000002,75.28968000000002 228.49436540000002,74.34375000000001 234.9323654,73.42487000000001 241.38396540000002,72.53151000000001 247.8519654,71.66227 254.3388654,70.81588000000002 260.8462654,69.99117000000001 267.37516539999996,69.18707 273.9258654,68.40261000000001 280.49786539999997,67.63686000000001 287.0899654,66.88897000000001 293.69996539999994,66.15816000000001 300.32516539999995,65.44368000000001 306.9615654,64.74487000000002 313.60496539999997,64.06171 320.2514654,63.394810000000014 326.89786539999994,62.744720000000015 333.5414654,62.111910000000016 340.1802654,61.49674000000001 346.81306539999997,60.89952000000002 353.4391654,60.32046000000002 360.05856539999996,59.75972000000001 366.6719654,59.21742000000001 373.28046539999997,58.69362000000001 379.88596540000003,58.18835000000001 386.49106539999997,57.70164000000001 393.0987654,57.23346000000001 399.71276539999997,56.78382000000001 406.3376654,56.35269000000002 412.97826539999994,55.939430000000016 419.63896539999996,55.542600000000014 426.3234654,55.160770000000014 433.0339654,54.79258000000001 439.77206540000003,54.43672000000001 446.5376654,54.091890000000014 453.3297654,53.756850000000014 460.14106539999995,53.43059000000001 466.9418654,53.11308000000001 473.73116539999995,52.80287000000001 480.5156654,52.498170000000016 487.3030654,52.19716000000002 494.1023654,51.897990000000014 500.9219654,51.598860000000016 507.7272654,51.30010000000001 514.4913654,51.006090000000015 521.2041654000001,50.72385000000001 527.8581654,50.460000000000015 534.4483654,50.22071000000001 540.9715654,50.01161000000001 547.4266654,49.837910000000015 553.8139654000001,49.70441000000002 560.1354654,49.615560000000016 566.3940654,49.57554000000001 572.5938654,49.58834000000001 578.7395654000001,49.65783000000001 584.8369654,49.78787000000001 590.8922654,49.98235000000001 596.9126654,50.24531000000001 602.9056654000001,50.58103000000001 608.8798654000001,50.99298000000001 614.8442654,51.47796000000001 620.8073654000001,52.030510000000014 626.7769654000001,52.64539000000001 632.7601654,53.31756000000001 638.7637654,54.04203000000001 644.7935654,54.81381000000001 650.8551654,55.62783000000001 656.9535654000001,56.478850000000016 663.0930654,57.36136000000001 669.2773654000001,58.269610000000014 675.5097654,59.19741000000002 681.7922654000001,60.13822000000002 688.1265654000001,61.08496000000001 694.5128654,62.030090000000015 700.9505654000001,62.96551000000001 707.4376654,63.88291000000001 713.9707654000001,64.77906000000002 720.5454654,65.65558000000001 727.1571654,66.51441000000001 733.8008654,67.35758000000001 740.4714654,68.18724000000002 747.1635654,69.00565 753.8714654,69.81511 760.5894654000001,70.61802000000002 767.3118654,71.41680000000001 774.0327654,72.21390000000001 780.7461654,73.01175 787.4464654,73.81280000000001 794.1277654,74.61943000000002 800.7846654000001,75.43396000000001 807.4116654000001,76.25854000000001 814.0042654000001,77.09263000000001 820.5598654,77.93333000000001 827.0775654,78.77793000000001 833.5579654000001,79.62401000000001 840.0036654,80.46946000000001 846.4182654,81.31241000000001 852.8068654,82.15124000000002 859.1757654,82.98456000000002 865.5326654,83.81117000000002 871.8863654,84.63002000000002 878.2472654000001,85.44022000000001 884.6270654000001,86.24101000000002 891.0394654,87.03170000000001 897.5002654000001,87.81171 904.0280654000001,88.58050000000001 910.6439654000001,89.33847600000001 917.3619654,90.089425 924.1120654,90.82931200000002 930.8002654000001,91.55224600000001 937.4714654,92.26752900000001 944.1923654,92.98655300000001 950.8988654000001,93.70674900000002 957.3723654,94.40845000000002 963.5369654,95.08450700000002 969.3535654,95.72948000000001 974.8131654,96.34112300000001 979.9265654000001,96.91948000000001 984.7155654000001,97.46596800000002 989.2066654,97.98270500000001 993.4273654,98.47206950000002 997.4039654000001,98.93645271000001 1001.1606654000001,99.37812370000002 1004.2577654,99.74440000000001" stroke="black" stroke-width="2.0" /></svg>