<?xml version="1.0" encoding="utf-8" ?>
<svg baseProfile="full" height="154.98234" version="1.1" width="1013.261161" xmlns="http://www.w3.org/2000/svg" xmlns:ev="http://www.w3.org/2001/xml-events" xmlns:xlink="http://www.w3.org/1999/xlink"><defs /><polygon fill="none" points="1005.261161,121.09509999999999 1001.738861,120.01087899999999 997.503961,118.71858399999999 993.069161,117.37843299999999 988.418361,115.98743499999999 983.535061,114.542734 978.402761,113.04182799999998 973.006261,111.48289499999998 967.333061,109.86524999999999 961.375861,108.18993999999999 955.135361,106.4605 948.6235610000001,104.68323999999998 941.863861,102.86571999999998 934.887461,101.01634999999999 927.7300610000001,99.14388 920.427761,97.25628999999999 913.0132609999999,95.35985 905.511361,93.45826999999998 897.936461,91.55265999999999 890.296261,89.64428999999998 882.597661,87.73478999999999 874.848061,85.82575999999999 867.0547610000001,83.91875999999999 859.225161,82.01530999999999 851.366561,80.11683999999998 843.4860610000001,78.22466999999999 835.590561,76.34003999999999 827.6866610000001,74.46406999999999 819.780461,72.59772999999998 811.8778609999999,70.74188999999998 803.984061,68.89726999999999 796.103761,67.06486999999998 788.240761,65.24661999999998 780.397761,63.444349999999986 772.576761,61.65963999999999 764.778761,59.89387999999999 757.004061,58.148209999999985 749.252261,56.42358999999999 741.521961,54.7208 733.811361,53.040429999999986 726.117761,51.38295999999998 718.4379610000001,49.748699999999985 710.7680610000001,48.13786999999999 703.103361,46.550559999999976 695.439161,44.98644999999999 687.771061,43.444659999999985 680.095961,41.924509999999984 672.411561,40.42555999999999 664.716761,38.947599999999994 657.0115609999999,37.49062999999998 649.296861,36.05482999999998 641.5748609999999,34.64058999999999 633.8487610000001,33.24847 626.122661,31.87916 618.401961,30.533509999999993 610.6930610000001,29.212459999999993 603.003161,27.91704999999999 595.340061,26.64900999999999 587.7102610000001,25.410929999999993 580.1182610000001,24.205069999999992 572.566861,23.033299999999983 565.057061,21.897109999999984 557.588261,20.797699999999992 550.158361,19.735899999999987 542.764061,18.71259999999998 535.400461,17.72829999999999 528.062061,16.7834 520.741661,15.878399999999985 513.431261,15.013599999999997 506.121561,14.189399999999978 498.801961,13.405899999999988 491.462361,12.661299999999997 484.093861,11.953299999999984 476.68926100000004,11.279999999999987 469.24296100000004,10.63969999999999 461.75136100000003,10.030799999999985 454.212461,9.451999999999998 446.626461,8.90209999999999 438.99596099999997,8.379899999999992 431.32576100000006,7.8844999999999885 423.62336100000005,7.414599999999979 415.898961,6.969399999999993 408.165561,6.547699999999992 400.438461,6.148600000000002 392.73386100000005,5.773999999999987 385.066261,5.427699999999987 377.44696100000004,5.112999999999985 369.88496100000003,4.8326999999999884 362.38636099999997,4.589499999999987 354.955061,4.385699999999986 347.592661,4.223099999999988 340.298961,4.103499999999983 333.072061,4.028699999999986 325.90876099999997,4.0 318.80446100000006,4.018899999999988 311.753461,4.086899999999986 304.749161,4.20559999999999 297.784361,4.376199999999983 290.852461,4.5989999999999895 283.94826100000006,4.874099999999984 277.06766100000004,5.201799999999977 270.208061,5.582399999999993 263.367361,6.016199999999984 256.54486099999997,6.503599999999992 249.740761,7.044799999999995 242.95616099999998,7.64009999999999 236.19296099999997,8.289499999999975 229.454061,8.992899999999992 222.743261,9.750199999999992 216.064861,10.560999999999993 209.424061,11.424399999999991 202.826661,12.339500000000001 196.279161,13.306199999999976 189.78936099999999,14.324799999999996 183.366561,15.395499999999984 177.02116099999998,16.517599999999987 170.763761,17.689799999999977 164.605561,18.91019999999999 158.55716099999998,20.17609999999999 152.62886099999997,21.484579999999994 146.83046099999999,22.8343 141.169061,24.226319999999987 135.64766099999997,25.661879999999982 130.265961,27.142389999999992 125.021161,28.66937999999999 119.90856099999999,30.244559999999993 114.922461,31.869849999999985 110.056161,33.54735999999998 105.302861,35.27946999999999 100.655271,37.06748999999999 96.107791,38.90720999999999 91.658481,40.79220999999998 87.30846100000001,42.71512999999999 83.061161,44.66777999999998 78.921541,46.64127999999998 74.894501,48.62680999999998 70.986391,50.614729999999994 67.206761,52.593429999999984 63.566241000000005,54.550349999999995 60.074451,56.47321999999998 56.738391,58.35112999999999 53.561941000000004,60.17534999999999 50.549601,61.94121999999999 47.703951,63.64790999999999 45.022311,65.29654999999998 42.498571,66.88943999999998 40.124721,68.42949999999999 37.89184100000001,69.91991999999999 35.790771,71.36398999999999 33.812491,72.76488999999998 31.948391,74.12566999999999 30.190361,75.44921 28.530141000000004,76.73975999999999 26.958181000000003,78.00600999999999 25.466361,79.25542999999999 24.048051,80.49339999999998 22.697641,81.72371999999999 21.410251000000002,82.94899999999998 20.181541,84.17089999999999 19.007520999999997,85.39043999999998 17.884560999999998,86.6081 16.809931,87.82330999999999 15.784501,89.03169 14.809222,90.22890999999998 13.884056999999999,91.41201999999998 13.00832,92.57905999999998 12.180932,93.72885 11.400597,94.86069999999998 10.665920999999999,95.97434999999999 9.975493,97.06978999999998 9.327937,98.14720999999999 8.721944,99.20692999999999 8.156292,100.24936999999998 7.629859,101.27497 7.141629,102.28425999999999 6.69069,103.27774 6.276242,104.25593999999998 5.8975901,105.21937999999999 5.5541439,106.16859 5.2454181,107.10404999999999 4.9710295,108.02626999999998 4.7306966,108.93570999999999 4.5242397,109.83285 4.3515811,110.71810999999998 4.212747,111.59193399999998 4.10787,112.45473099999998 4.037193,113.306902 4.001076,114.148834 4.0,114.98090099999999 4.034578,115.80346999999999 4.105569,116.61689499999999 4.213887,117.421528 4.360621,118.21770999999998 4.5470575,119.00578499999999 4.7747062,119.78608999999999 5.0453338,120.55896939999998 5.36099155,121.3247706 5.7229786,122.08389639999999 6.131023,122.83678599999999 6.584869,123.58379399999998 7.084435,124.32518099999999 7.629799,125.06111099999998 8.221181,125.79163799999999 8.858931,126.51670299999999 9.54351,127.23611199999999 10.275466999999999,127.94951699999999 11.055412,128.656388 11.883974,129.355978 12.761753,130.047273 13.689239,130.72893699999997 14.666713,131.39923 15.694101,132.05594 16.770771,132.69624 17.895260999999998,133.31659 19.066391,133.91373 20.286191,134.48723999999999 21.557471000000003,135.03752 22.883221,135.56539999999998 24.266611,136.07226999999997 25.711001000000003,136.56018999999998 27.219991,137.03208999999998 28.797451000000002,137.49195999999998 30.447561000000004,137.94513999999998 32.174951,138.39659999999998 33.984801000000004,138.84656999999999 35.882681000000005,139.29426999999998 37.874441000000004,139.7388 39.966281,140.17911999999998 42.164761000000006,140.61410999999998 44.476911,141.04255999999998 46.910141,141.46313999999998 49.472291000000006,141.87444 52.171951,142.27504 55.018911,142.66357 58.025261,143.03886 61.207001,143.40024999999997 64.58241100000001,143.74737 68.17106100000001,144.08025999999998 71.993301,144.39955999999998 76.069281,144.70689 80.416951,145.00537 85.048461,145.29813 89.96740100000001,145.58247999999998 95.16860100000001,145.85372999999998 100.63869100000001,146.10674999999998 106.35866100000001,146.33641999999998 112.307861,146.53786 118.463161,146.70653 124.797261,146.83835 131.281261,146.92990999999998 137.888761,146.97854999999998 144.599361,146.98234 151.40196099999997,146.9398 158.29746099999997,146.84965999999997 165.298861,146.71382 172.42116099999998,146.53828 179.676461,146.32988999999998 187.073161,146.09643 194.61386099999999,145.84688 202.294161,145.59162999999998 210.100661,145.34197999999998 218.01186099999998,145.10253999999998 226.00396099999998,144.87223999999998 234.054461,144.64958 242.14196099999998,144.4328 250.247861,144.21992999999998 258.356861,144.00886 266.45676100000003,143.79736 274.539261,143.58311999999998 282.599661,143.36377 290.636861,143.1369 298.653161,142.90004 306.65416100000004,142.65063999999998 314.64836099999997,142.38703999999998 322.644761,142.10988999999998 330.65126100000003,141.82016 338.674661,141.51881999999998 346.720761,141.20689 354.794161,140.88540999999998 362.898361,140.55546999999999 371.035661,140.21822999999998 379.20696100000004,139.87492999999998 387.412161,139.52692 395.64956100000006,139.17559999999997 403.915861,138.82252 412.206361,138.46913999999998 420.515661,138.11613 428.838361,137.76378 437.166561,137.41245999999998 445.491461,137.06262999999998 453.815961,136.71419999999998 462.143161,136.3671 470.47096100000005,136.02148 478.79136100000005,135.67772 487.102861,135.33594 495.404261,134.99623 503.695361,134.65866 511.97606099999996,134.3233 520.246861,133.99044999999998 528.508361,133.66054 536.760661,133.33396 545.004361,133.01112999999998 553.239561,132.69243999999998 561.466561,132.37831999999997 569.6855610000001,132.06916999999999 577.896661,131.76539 586.1000610000001,131.46739 594.295561,131.17557 602.4833610000001,130.890354 610.663461,130.612125 618.835561,130.34123699999998 626.999861,130.078006 635.1562610000001,129.822743 643.304861,129.575754 651.445961,129.33734099999998 659.579761,129.10780699999998 667.706361,128.887448 675.826361,128.676561 683.9401610000001,128.47544 692.048061,128.284379 700.150661,128.103671 708.248661,127.93359199999999 716.342561,127.77361899999998 724.432861,127.62210699999999 732.520061,127.47733499999998 740.604361,127.33759099999999 748.6860610000001,127.20116599999999 756.7649610000001,127.06635999999999 764.841061,126.93147799999998 772.914261,126.794829 780.9841610000001,126.65472899999999 789.050261,126.50950099999999 797.112161,126.35747399999998 805.1691609999999,126.19698899999999 813.220261,126.02719399999998 821.263961,125.85055599999998 829.296961,125.67042 837.314261,125.490152 845.3093610000001,125.31311199999999 853.274261,125.14263199999999 861.1996610000001,124.98197099999999 869.074961,124.83427299999998 876.888961,124.70251599999999 884.629961,124.589458 892.285661,124.497593 899.844261,124.42910199999999 907.294161,124.38576699999999 914.6237610000001,124.36357699999999 921.8185609999999,124.349111 928.860661,124.32931099999999 935.731361,124.29279599999998 942.412161,124.23007399999999 948.887061,124.13366399999998 955.143161,123.99811499999998 961.1715610000001,123.82110099999998 966.969161,123.60652699999999 972.5375610000001,123.359467 977.882861,123.084527 983.013261,122.78580199999999 987.9389610000001,122.46687699999998 992.670761,122.13085499999998 997.219661,121.78040779999999 1001.596661,121.41782029999999 1005.261161,121.09509999999999" stroke="black" stroke-width="2.0" /></svg>