<?xml version="1.0" encoding="utf-8" ?>
<svg baseProfile="full" height="211.72009000000003" version="1.1" width="1012.2621539" xmlns="http://www.w3.org/2000/svg" xmlns:ev="http://www.w3.org/2001/xml-events" xmlns:xlink="http://www.w3.org/1999/xlink"><defs /><polygon fill="none" points="1004.2621539,167.75650000000002 1000.0348539,166.53182900000002 995.0132539,165.05267700000002 989.8264539,163.49699700000002 984.4655539,161.859201 978.9218539000001,160.13337700000002 973.1866539,158.31334 967.2519539000001,156.39276 961.1108539,154.36525000000003 954.7581539,152.22468000000003 948.1907539,149.96592 941.4074539,147.58877 934.4090539,145.09674 927.1992539,142.49589000000003 919.7855539000001,139.79517 912.1786539000001,137.00651000000002 904.3930539,134.14486000000002 896.4465539,131.22713000000002 888.3618539000001,128.26629000000003 880.1647539,125.27363000000003 871.8821538999999,122.26090000000002 863.5412539,119.23983000000003 855.1680539,116.22163000000002 846.7864539000001,113.21662000000003 838.4175539,110.23387000000002 830.0787539,107.28109 821.7840539000001,104.36445000000002 813.5437539000001,101.48867000000003 805.3645539,98.65711000000003 797.2500539,95.87187000000002 789.2009539000001,93.13467000000003 781.2160539,90.44704000000003 773.2921539,87.80982000000002 765.4248539,85.22328000000002 757.6079539,82.68720000000002 749.8345539000001,80.20097000000001 742.0963539,77.76365000000003 734.3838539000001,75.37404000000002 726.6867539,73.03075000000003 718.9934539,70.73221000000002 711.2909539000001,68.47670000000002 703.5649539000001,66.26240000000001 695.7993539,64.08720000000002 687.9779539,61.94560000000003 680.0869539,59.83030000000002 672.1160539,57.734500000000025 664.0577539000001,55.652300000000025 655.9090539000001,53.578800000000015 647.6709539000001,51.50980000000003 639.3499539000001,49.442100000000025 630.9586539000001,47.37370000000003 622.5159539,45.303800000000024 614.0474539,43.23300000000003 605.5851539000001,41.16320000000002 597.1662539000001,39.09770000000003 588.8292539,37.04510000000002 580.6044539000001,35.02210000000002 572.5116539,33.043300000000045 564.5608539000001,31.119799999999998 556.7543539000001,29.259900000000016 549.0881539000001,27.46920000000003 541.5537539000001,25.75180000000003 534.1393539000001,24.110000000000014 526.8301539,22.545300000000026 519.6099539,21.058700000000016 512.4605539,19.65070000000003 505.36235389999996,18.321800000000025 498.2941539,17.07280000000003 491.23325389999997,15.903100000000023 484.1585539,14.807300000000026 477.0520539,13.779600000000016 469.89815389999995,12.815200000000033 462.6835539,11.909900000000022 455.3976539,11.060600000000022 448.03195389999996,10.26430000000002 440.5813539,9.518700000000024 433.0438539,8.821500000000015 425.4217539,8.170900000000017 417.7220539,7.564900000000023 409.9570539,7.001600000000025 402.14475389999996,6.47920000000002 394.30915389999996,5.995500000000021 386.47785389999996,5.552300000000031 378.6771539,5.155600000000021 370.9290539,4.811000000000007 363.2517539,4.523000000000025 355.6593539,4.295300000000026 348.16165390000003,4.130800000000022 340.7650539,4.031800000000004 333.4727539,4.0 326.2854539,4.036700000000025 319.20155389999996,4.1428000000000225 312.2175539,4.31940000000003 305.3288539,4.567000000000036 298.5296539,4.886400000000009 291.8133539,5.278400000000033 285.1746539,5.743000000000023 278.6088539,6.279899999999998 272.11215389999995,6.889200000000017 265.6810539,7.570900000000023 259.31245390000004,8.325200000000024 253.0036539,9.1524 246.75225389999997,10.052800000000047 240.5561539,11.026900000000012 234.41355389999998,12.075300000000027 228.32275389999998,13.19840000000002 222.28245389999998,14.39700000000002 216.2913539,15.671600000000012 210.34855389999998,17.023000000000025 204.4530539,18.45210000000003 198.60435389999998,19.95950000000002 192.8015539,21.54570000000004 187.0442539,23.2089 181.3323539,24.94640000000001 175.66695389999998,26.75540000000001 170.0499539,28.632600000000025 164.4841539,30.5745 158.97265389999998,32.57730000000001 153.5195539,34.63670000000002 148.12925389999998,36.74800000000002 142.80715389999997,38.907400000000024 137.5613539,41.11280000000002 132.4023539,43.36110000000002 127.3417539,45.648000000000025 122.3921539,47.96770000000002 117.5659539,50.31350000000002 112.8746539,52.67780000000002 108.32825389999999,55.05290000000002 103.9349239,57.43090000000002 99.7006239,59.80440000000003 95.6298939,62.16760000000002 91.72606390000001,64.52140000000003 87.98563390000001,66.87100000000002 84.3999839,69.22370000000002 80.95769390000001,71.58866000000002 77.6460539,73.97634000000002 74.4517939,76.39853000000002 71.35766389999999,78.86283000000003 68.3445439,81.36616000000002 65.4001339,83.90040000000002 62.5183539,86.45308000000003 59.6981539,89.00779000000003 56.9424739,91.54501000000002 54.256973900000006,94.04354000000004 51.6486639,96.48228000000002 49.1258439,98.84329000000002 46.7017639,101.11984000000002 44.3855439,103.31256000000002 42.1803139,105.42532000000003 40.0851739,107.46383000000003 38.0967439,109.43457000000002 36.2102839,111.34424000000003 34.4204239,113.19936000000001 32.7216339,115.00606000000002 31.108483900000003,116.77001000000001 29.5758239,118.49641000000003 28.118833900000002,120.19001000000003 26.733043900000002,121.85510000000002 25.412383900000002,123.49559000000002 24.1495539,125.11427000000002 22.9387039,126.71258000000003 21.7752139,128.29096 20.6553539,129.84912000000003 19.576053899999998,131.38626000000002 18.5347239,132.90127 17.5291239,134.39290000000003 16.5572539,135.85989 15.617323899999999,137.30108 14.7082239,138.71532000000002 13.8325269,140.10095 12.9932169,141.45693000000003 12.1921579,142.78311000000002 11.430361900000001,144.07996000000003 10.708238900000001,145.34838000000002 10.0257749,146.58951000000002 9.382681900000001,147.80467000000002 8.778490900000001,148.99523000000002 8.2126389,150.16262000000003 7.6845119,151.30824 7.1934939,152.43348000000003 6.738988900000001,153.53967000000003 6.3204439,154.62809000000001 5.9373609,155.69999 5.5893099,156.75655000000003 5.2759329,157.79891000000003 4.9969514,158.82815000000002 4.7521735,159.84531 4.5414943999999995,160.851412 4.3649026,161.84742300000002 4.22248405,162.83429200000003 4.1144277,163.81294800000003 4.0410313,164.78429900000003 4.0027089,165.74925000000002 4.0,166.70869900000002 4.0335804,167.663552 4.1042755,168.61472600000002 4.21307673,169.56315880000002 4.36106645,170.5097905 4.5482946,171.45516800000001 4.7741382,172.39950400000004 5.0381225,173.34294100000002 5.3399228999999995,174.28554900000003 5.6793519,175.22733300000002 6.056349900000001,176.16821900000002 6.4709709,177.10805900000003 6.9233809,178.04661800000002 7.4138489,178.98356700000002 7.9427339,179.91847 8.510485899999999,180.85077 9.1176319,181.77978000000002 9.764766900000001,182.70466000000002 10.4525439,183.62437000000003 11.1816549,184.53768000000002 11.9528149,185.44312000000002 12.7667319,186.33894000000004 13.6240749,187.22308000000004 14.5254339,188.09311000000002 15.471253899999999,188.94618000000003 16.4617839,189.77899000000002 17.4969739,190.5877 18.576523899999998,191.36843000000002 19.700603899999997,192.11963000000003 20.8695239,192.84073 22.083553900000002,193.53134000000003 23.3429639,194.19121 24.6479739,194.82033 25.9988839,195.41886000000002 27.3960639,195.98724 28.840023900000002,196.52612000000002 30.3314939,197.03646000000003 31.8718039,197.51933000000002 33.463723900000005,197.97521000000003 35.1106239,198.40444000000002 36.8161739,198.80747000000002 38.584353899999996,199.18483000000003 40.4194839,199.53724000000003 42.3261739,199.86563 44.309333900000006,200.17123000000004 46.3740739,200.45566000000002 48.5255639,200.72110000000004 50.7687739,200.97041000000002 53.1081439,201.20737000000003 55.5469239,201.43694000000002 58.0870539,201.66385000000002 60.7313539,201.88729000000004 63.48282390000001,202.10453 66.3443239,202.31239000000002 69.31886390000001,202.50715000000002 72.4100539,202.68458000000004 75.6229039,202.83984000000004 78.9649539,202.96739000000002 82.4478739,203.06109000000004 86.0876939,203.11932000000002 89.9024339,203.14623000000003 93.9115439,203.14792000000003 98.1352239,203.13301 102.5927039,203.11366000000004 107.29915390000001,203.10660000000001 112.2624539,203.12431000000004 117.48455390000001,203.16674000000003 122.9612539,203.23138000000003 128.6828539,203.31397000000004 134.63435389999998,203.40827000000002 140.7984539,203.50612 147.15905389999998,203.59749000000002 153.70605389999997,203.67063000000002 160.44045389999997,203.71301000000003 167.37385389999997,203.72009000000003 174.5186539,203.69259000000002 181.88525389999998,203.63175 189.4805539,203.53937000000002 197.30615389999997,203.41807000000003 205.3557539,203.27147000000002 213.61285389999998,203.10354 222.0528539,202.91535000000002 230.64785389999997,202.70735000000002 239.3683539,202.48032000000003 248.18485389999998,202.23530000000002 257.0697539,201.97356000000002 265.9985539,201.69648000000004 274.9512539,201.40547000000004 283.91305389999997,201.10192000000004 292.8746539,200.78708000000003 301.8324539,200.46204000000003 310.7888539,200.12770000000003 319.74985389999995,199.78483000000003 328.7219539,199.43417000000002 337.7105539,199.07651 346.71995389999995,198.71266000000003 355.7538539,198.34349000000003 364.81455389999996,197.96990000000002 373.9036539,197.59287 383.0213539,197.21342 392.16715389999996,196.83266000000003 401.3391539,196.45176000000004 410.5340539,196.07190000000003 419.7478539,195.69360000000003 428.9768539,195.31676000000002 438.2173539,194.94124000000002 447.4661539,194.56686000000002 456.72085389999995,194.19344 465.9791539,193.82076 475.2392539,193.44861000000003 484.50005389999995,193.07672000000002 493.76065389999997,192.70482 503.02085389999996,192.33264000000003 512.2808539,191.95988000000003 521.5410539000001,191.58650000000003 530.8019539000001,191.21255000000002 540.0640539000001,190.83810000000003 549.3275539000001,190.46320000000003 558.5928539,190.08794000000003 567.8600539,189.71237000000002 577.1294539,189.33657000000002 586.4008539,188.96063000000004 595.6744539,188.58461000000003 604.9502539,188.20861000000002 614.2278539000001,187.83268 623.5072539,187.45684000000003 632.7881539000001,187.08108000000001 642.0701539,186.70539000000002 651.3529539,186.32978000000003 660.6358539,185.95424000000003 669.9185539000001,185.57879000000003 679.2002539,185.20341000000002 688.4803539000001,184.82814000000002 697.7580539,184.45297000000002 707.0325539,184.07792000000003 716.3030539,183.70302 725.5686539,183.32828000000003 734.8286539000001,182.95372000000003 744.0826539000001,182.57936 753.3300539,182.20521000000002 762.5707539,181.83127000000002 771.8044539,181.45754000000002 781.0311539,181.08401000000003 790.2509539000001,180.71067000000002 799.4640539000001,180.33749000000003 808.6708539,179.96447000000003 817.8713539,179.59162600000002 827.0637539,179.219072 836.2440539,178.847032 845.4058539000001,178.47581900000003 854.5406539,178.10583000000003 863.6378539,177.737544 872.6853539,177.371507 881.6693539000001,177.00832300000002 890.5749539000001,176.64863400000002 899.3867539000001,176.29310300000003 908.0893539000001,175.94239100000001 916.6648539,175.59714300000002 925.0868539,175.25825200000003 933.3202539,174.92696600000002 941.3262539,174.604698 949.0675539,174.29283200000003 956.5124539000001,173.99255100000002 963.6389539,173.70472100000003 970.4379539,173.42975 976.9124539000001,173.16757200000004 983.0733539,172.91779200000002 988.9364539000001,172.67981600000002 994.5197539,172.45294400000003 999.8425539000001,172.23643700000002 1004.2621539,172.05650000000003" stroke="black" stroke-width="2.0" /></svg>