<?xml version="1.0" encoding="utf-8" ?>
<svg baseProfile="full" height="101.280014" version="1.1" width="1012.7456254" xmlns="http://www.w3.org/2000/svg" xmlns:ev="http://www.w3.org/2001/xml-events" xmlns:xlink="http://www.w3.org/1999/xlink"><defs /><polygon fill="none" points="1004.7456254,87.40925 1001.9542254,86.8725836 998.5698254,86.22116 994.9884254,85.530885 991.1867254,84.797096 987.1382253999999,84.014512 982.8139254,83.177274 978.1828254,82.27911 973.2145254,81.31377 967.8833254,80.275884 962.1762254,79.162491 956.1046253999999,77.975351 949.7426254,76.72867 943.4536254,75.49511 937.2716254,74.28356 931.1176254,73.08057 924.9326254,71.8767 918.6723254,70.66562 912.3064254,69.44404 905.8906254,68.22527 899.5686254,67.0385 893.3242254,65.88028 887.1355253999999,64.74553 880.9841254,63.62998 874.8542254,62.53008 868.7324254,61.44278 862.6072254,60.365449999999996 856.4686254,59.29585 850.3080254,58.23204 844.1186254,57.172349999999994 837.8946254,56.11541 831.6320254,55.06011 825.3284253999999,54.005610000000004 818.9830254,52.95137 812.5972254,51.89713 806.1745254,50.84299 799.7206254,49.78946 793.2427253999999,48.73791 786.7619254,47.69227 780.2898254,46.65491 773.8211254,45.62538 767.3509254,44.60339 760.8751254,43.58876 754.3901254,42.581430000000005 747.8981254,41.58224 741.4155254,40.59416 734.9451254,39.618050000000004 728.4873254,38.65437 722.0418254,37.70346 715.6075254,36.76556 709.1828254,35.84082 702.7652254,34.92928 696.3518253999999,34.03065 689.9400254,33.14418 683.5273254,32.26915 677.1118254,31.404880000000006 670.6917254,30.55079 664.2657254000001,29.706319999999998 657.8329254,28.87099 651.3926253999999,28.04434 644.9446254,27.226 638.4890254,26.415599999999998 632.0263254,25.61284 625.5572254,24.817449999999994 619.0830254,24.02920000000001 612.6054254,23.2479 606.1262254000001,22.47341 599.6478254,21.70573999999999 593.1727254,20.945849999999993 586.7027254,20.195120000000003 580.2396253999999,19.454859999999996 573.7846254,18.726339999999993 567.3388254,18.01075 560.9028254,17.309240000000003 554.4766254,16.622889999999998 548.0604254,15.952749999999995 541.6537254,15.299810000000008 535.2557254,14.665030000000002 528.8654254,14.04934 522.4815254,13.453630000000004 516.1024254,12.878770000000003 509.72602539999997,12.325649999999996 503.3501254,11.795110000000008 496.9723254,11.287449999999993 490.5902254,10.801810000000003 484.2020254,10.337220000000002 477.8061254,9.89276000000001 471.4012254,9.467550000000003 464.98622539999997,9.060729999999992 458.5607254,8.671480000000003 452.12432540000003,8.29898 445.67712539999997,7.942460000000011 439.2195254,7.601129999999998 432.7523254,7.27422 426.2767254,6.960949999999997 419.79422539999996,6.660560000000004 413.30662540000003,6.3722800000000035 406.8163254,6.095339999999993 400.3260254,5.82911 393.8384254,5.57441 387.3560254,5.332970000000003 380.8810254,5.106469999999987 374.4154254,4.89658 367.96082540000003,4.704900000000009 361.5184254,4.533000000000001 355.08932539999995,4.382409999999993 348.67422539999995,4.25461 342.2735254,4.151049999999998 335.88732539999995,4.07316999999999 329.5156254,4.022359999999992 323.15792539999995,4.0 316.8136254,4.007450000000006 310.4819254,4.04607 304.1616254,4.117230000000006 297.8516254,4.222129999999993 291.55082539999995,4.361460000000008 285.2583254,4.535820000000001 278.9735254,4.745859999999993 272.6957254,4.99221 266.4248254,5.275509999999997 260.1602254,5.596430000000012 253.9021254,5.955610000000007 247.65032539999999,6.353719999999996 241.4051254,6.791409999999999 235.1668254,7.26930999999999 228.9357254,7.788049999999998 222.71252539999998,8.348249999999993 216.4980254,8.950479999999999 210.2928254,9.595309999999998 204.0980254,10.283249999999995 197.9148254,11.014960000000002 191.7446254,11.79146 185.5888254,12.613829999999993 179.4492254,13.483100000000007 173.3274254,14.400239999999997 167.2252254,15.366159999999994 161.14422539999998,16.38170000000001 155.0864254,17.447640000000007 149.0536254,18.564939999999993 143.0480254,19.735550000000003 137.0717254,20.96172 131.12702539999998,22.245559999999998 125.2158254,23.589130000000004 119.34002539999999,24.994370000000004 113.50152539999999,26.463140000000003 107.7020254,27.997220000000006 101.94325539999998,29.598119999999994 96.2254654,31.264090000000003 90.5396754,32.99274 84.8636154,34.78648 79.16057539999998,36.65369999999999 73.3799854,38.614340000000006 67.5151754,40.69063 61.6826154,42.86213 56.104335400000004,45.055820000000004 50.9956554,47.17896 46.434705400000006,49.18145 42.3336354,51.08394 38.563235399999996,52.93399 35.0002054,54.78837 31.517355400000003,56.7215 27.9332354,58.86636 23.974195400000003,61.50125 20.1060354,64.43276 17.149645399999997,66.92334 14.954675400000001,68.90662 13.2494404,70.53725 11.8621224,71.93498 10.696890400000001,73.17006 9.6976704,74.28462 8.8291834,75.30563 8.0678604,76.25138 7.3972154,77.13487 6.8053094,77.965725 6.2832714,78.751234 5.8243944,79.497097 5.4235548,80.207849 5.0768325,80.887156 4.78125133,81.53803 4.5346041,82.162967 4.3353325,82.764059 4.1824491,83.34307 4.0754895,83.901493 4.0144918,84.440596 4.0,84.961455 4.0330913,85.464977 4.1154329999999995,85.951919 4.249372,86.4229004 4.4380735,86.8784058 4.68572391,87.31878799 4.9973463,87.7443986 5.3757554,88.1564907 5.8233294,88.556627 6.3437674,88.946235 6.9423724,89.326655 7.6264814,89.699191 8.406151399999999,90.065167 9.2952494,90.425997 10.3132564,90.783271 11.488337399999999,91.138891 12.8628664,91.495257 14.5035724,91.855473 16.5183454,92.223052 19.0654654,92.596716 22.3772054,92.94494 26.4754654,93.181562 30.8062654,93.27215 35.208725400000006,93.280014 39.8098754,93.21735100000001 44.7245154,93.080304 50.0489954,92.859658 55.8065954,92.545951 61.855925400000004,92.13831 67.98349540000001,91.643309 74.0391954,91.072128 79.9836454,90.43212 85.8698554,89.727039 91.7688854,88.975062 97.72912539999999,88.1998447 103.7759554,87.42920002 109.9091254,86.6923515 116.1101254,85.993694 122.3587254,85.32562300000001 128.6370254,84.679367 134.9299254,84.045289 141.2257254,83.413126 147.5164254,82.772182 153.7980254,82.111436 160.0702254,81.421546 166.33592539999998,80.705462 172.5986254,79.97094799999999 178.86142539999997,79.225766 185.1273254,78.477692 191.3992254,77.734551 197.67942539999999,77.00424 203.9705254,76.29473 210.2745254,75.61305 216.5926254,74.95994 222.9256254,74.3339 229.27432539999998,73.73348 235.63902539999998,73.1572 242.01992539999998,72.6036 248.4171254,72.07123 254.8305254,71.55863 261.25952540000003,71.06435 267.7035254,70.58691999999999 274.1616254,70.12486 280.6328254,69.67669 287.1155254,69.24091 293.60832539999996,68.81601 300.1090254,68.40049 306.6157254,67.99284 313.1260254,67.59227 319.6378254,67.19931 326.1493254,66.81459 332.6591254,66.4387 339.1657254,66.07224 345.6681254,65.71574 352.1656254,65.36975 358.6576254,65.03477000000001 365.1439254,64.71131 371.6243254,64.39984 378.0992254,64.10082 384.56892539999996,63.81471 391.03422539999997,63.54194 397.4960254,63.28296 403.9555254,63.03819 410.4141254,62.807990000000004 416.8731254,62.59214 423.3339254,62.39028 429.79742539999995,62.20205 436.26452539999997,62.02712 442.7357254,61.86513 449.2115254,61.71578 455.69212539999995,61.57873 462.1776254,61.45369 468.6676254,61.34033 475.16192540000003,61.23835 481.6597254,61.14743 488.1602254,61.06727 494.66242539999996,60.99753 501.1650254,60.937889999999996 507.6664253999999,60.888059999999996 514.1652253999999,60.84823 520.6597254000001,60.81924 527.1488254,60.80194 533.6312254,60.79714 540.1062254,60.805679999999995 546.5732254,60.82836 553.0319254,60.865970000000004 559.4820254,60.919309999999996 565.9236254,60.98917 572.3570254,61.07633 578.7828254,61.18158 585.2014254,61.3057 591.6140254,61.4495 598.0214254,61.61378 604.4251254000001,61.79938 610.8265254,62.00672 617.2272254,62.234210000000004 623.6288254,62.479699999999994 630.0325253999999,62.74104 636.4395254,63.01608 642.8509253999999,63.302670000000006 649.2674254,63.59864 655.6897254,63.90182 662.1183254,64.21 668.5536254,64.52097 674.9957254,64.83248 681.4446254000001,65.14228 687.9000254,65.44807 694.3617254,65.74756 700.8291254,66.03841 707.3013254,66.31833 713.7775254000001,66.58704 720.2564254,66.84689 726.7366254000001,67.10043 733.2168254,67.35019 739.6955254000001,67.59873 746.1713254,67.8486 752.6425254,68.10231999999999 759.1075254,68.36240000000001 765.5646254000001,68.63136 772.0120254,68.91164 778.4481254,69.20569 784.8710254,69.51588000000001 791.2789253999999,69.84458000000001 797.6698253999999,70.19405 804.0420254,70.56654 810.3935253999999,70.96373 816.7232253999999,71.38469 823.0310254000001,71.82766000000001 829.3177254,72.29099 835.5853254,72.77312 841.8367254,73.27267 848.0758254,73.78835 854.3072254,74.31902 860.5369254,74.8637 866.7713254,75.42152 873.0184254,75.99178 879.2872254,76.57391 885.5878254,77.16751 891.9323254,77.772334 898.3345254,78.388312 904.8104254,79.015543 911.3179254,79.648165 917.7354253999999,80.271569 924.0714254,80.88372 930.3561254,81.484844 936.6337254,82.076497 942.9644254,82.661474 949.4253254,83.243465 955.8039254,83.800295 961.8661254,84.31119 967.5701253999999,84.775382 972.9082254,85.195299 977.8937254,85.57484 982.5514254,85.918385 986.9100254,86.230226 990.9987254,86.514288 994.8453254,86.7740386 998.4747254,87.0124778 1001.9093254,87.2321782 1004.7456254,87.40925" stroke="black" stroke-width="2.0" /></svg>