<?xml version="1.0" encoding="utf-8" ?>
<svg baseProfile="full" height="111.94083" version="1.1" width="1012.1456364" xmlns="http://www.w3.org/2000/svg" xmlns:ev="http://www.w3.org/2001/xml-events" xmlns:xlink="http://www.w3.org/1999/xlink"><defs /><polygon fill="none" points="1004.1456364,91.0556 1001.2415364,90.618193 997.7286363999999,90.082305 994.0219364,89.508794 990.1005363999999,88.893067 985.9417363999999,88.229935 981.5213363999999,87.513638 976.8148364,86.737991 971.7998364,85.89674099999999 966.4600363999999,84.984251 960.7917364,83.996665 954.8119363999999,82.9336 948.5671364,81.80076 942.2367363999999,80.63274 936.0056364,79.46879 929.8100364,78.30245 923.5963363999999,77.12871 917.3255364,75.94516999999999 910.9751363999999,74.75287 904.6468364,73.5763 898.3947363999999,72.42958 892.2001363999999,71.30909 886.0464364,70.21049 879.9192363999999,69.13003 873.8061363999999,68.06448 867.6964363999999,67.01098999999999 861.5808364,65.96707 855.4513364,64.93045 849.3009364,63.89915 843.1240363999999,62.87137 836.9159363999999,61.84551999999999 830.6734364,60.82023 824.3944363999999,59.79429 818.0783363999999,58.76672 811.7262364,57.736760000000004 805.3408364,56.70388 798.9330364,55.66898 792.5410363999999,54.63795999999999 786.1666363999999,53.61116 779.8050364,52.587810000000005 773.4517364,51.56724 767.1029363999999,50.54887 760.7550363999999,49.532160000000005 754.4049363999999,48.51669 748.0502364,47.50206 741.6885364,46.48797 735.3180363999999,45.47417 728.9373363999999,44.460499999999996 722.5453363999999,43.44682999999999 716.1416363999999,42.433139999999995 709.7271364,41.41962 703.3172364,40.40877 696.9175363999999,39.40168 690.5267363999999,38.39895 684.1441363999999,37.40127 677.7685364,36.40934 671.3991364,35.423849999999995 665.0351363999999,34.445519999999995 658.6758363999999,33.47506 652.3204364,32.51319 645.9683363999999,31.56064 639.6190363999999,30.61815 633.2719364,29.68647 626.9264364,28.76634 620.5824364,27.858530000000002 614.2392364,26.963799999999992 607.8968364,26.082939999999994 601.5547364,25.216710000000006 595.2129363999999,24.365620000000007 588.8712363999999,23.529830000000004 582.5297363999999,22.709459999999993 576.1882363999999,21.90464999999999 569.8465363999999,21.115539999999996 563.5047364,20.342250000000007 557.1624363999999,19.584919999999997 550.8196363999999,18.84366 544.4760363999999,18.118619999999993 538.1315364,17.409919999999985 531.7858364,16.717699999999994 525.4387363999999,16.042069999999995 519.0899363999999,15.383189999999999 512.7393364,14.741169999999997 506.38643640000004,14.116159999999994 500.0311364,13.50828 493.6729364,12.917560000000009 487.3117364,12.343969999999999 480.9473364,11.787489999999991 474.5797364,11.24812 468.2089364,10.725850000000008 461.8352364,10.220669999999998 455.45863640000005,9.732609999999994 449.0795364,9.261669999999995 442.69843640000005,8.807879999999997 436.3158364,8.37124999999999 429.9321364,7.951800000000006 423.5482364,7.54956 417.16483639999996,7.164529999999999 410.78283639999995,6.796729999999997 404.4031364,6.446179999999998 398.0268364,6.113110000000006 391.6549364,5.7988 385.2885364,5.504779999999997 378.92863639999996,5.232559999999992 372.5759364,4.983609999999999 366.23133640000003,4.759410000000003 359.8955364,4.56138 353.5689364,4.390939999999986 347.2523364,4.249449999999996 340.9460364,4.138289999999998 334.65033639999996,4.058790000000002 328.3657364,4.012259999999998 322.09223640000005,4.0 315.83013639999996,4.023289999999989 309.57943639999996,4.0833900000000085 303.34013639999995,4.181550000000001 297.11223640000003,4.31862000000001 290.89573640000003,4.494499999999988 284.6903364,4.708920000000006 278.49563639999997,4.961640000000003 272.31083639999997,5.252459999999999 266.13513639999996,5.581209999999999 259.9672364,5.9477700000000056 253.8058364,6.352079999999987 247.64933639999998,6.794129999999996 241.4958364,7.273959999999988 235.3434364,7.791710000000009 229.1897364,8.347589999999997 223.0321364,8.94189 216.8680364,9.575019999999995 210.6942364,10.247470000000007 204.5072364,10.959879999999998 198.3036364,11.713120000000004 192.08103640000002,12.508520000000004 185.8413364,13.347109999999986 179.5906364,14.22927 173.3393364,15.15455 167.10243640000002,16.12151999999999 160.89893640000003,17.127650000000003 154.7509364,18.16931000000001 148.6827364,19.243289999999988 142.7164364,20.353740000000002 136.8637364,21.507800000000003 131.12623639999998,22.71325999999999 125.4978364,23.978679999999997 119.9662364,25.31366 114.51483640000001,26.729249999999993 109.1225364,28.23854 103.76404640000001,29.857569999999996 98.4091064,31.60105 93.0276464,33.46917 87.5982664,35.45709 82.11016640000001,37.556039999999996 76.56578640000001,39.75205999999999 70.9960464,42.04702 65.4946864,44.44519 60.2100564,46.91603 55.2920864,49.40212 50.8353064,51.841120000000004 46.8399364,54.18718 43.2179464,56.447309999999995 39.8636664,58.65835 36.6766864,60.87077 33.5524164,63.15406 30.3468464,65.62734999999999 26.7372964,68.58807999999999 22.241706399999998,72.44127 17.9908064,76.0578 15.302116400000001,78.27476 13.3314274,79.89488 11.7951214,81.19015999999999 10.5368394,82.29208 9.4757654,83.265186 8.5651774,84.145768 7.7756214,84.95636999999999 7.0873434,85.712066 6.4865134,86.423498 5.9631604,87.098512 5.509964399999999,87.743102 5.1215214,88.361989 4.793871,88.958989 4.5241976,89.537269 4.3106331,90.099513 4.152137515,90.648057 4.0484354,91.184982 4.0,91.712192 4.0080831,92.2314805 4.07479474,92.7445938 4.20318687,93.2532915 4.3950794,93.7593107 4.6501997,94.26424 4.9690611,94.769582 5.3531984,95.276811 5.8052554,95.78742 6.3291514,96.302971 6.9303593999999995,96.82514499999999 7.6163414,97.35580399999999 8.3972184,97.897057 9.2868304,98.451343 10.3044474,99.0215 11.4776424,99.610777 12.8472264,100.222548 14.4756864,100.85879 16.4582464,101.513272 18.9277164,102.150614 22.1065864,102.700904 26.1215564,103.054019 30.6763164,103.22321 35.5900164,103.3468 40.8401764,103.42951 46.3800264,103.45783 52.1313764,103.41762 57.9883564,103.29611 63.8640064,103.0865 69.71344640000001,102.786847 75.5249564,102.39615 81.3190164,101.912183 87.1371464,101.344065 93.0150864,100.719993 98.9762464,100.071805 105.0302364,99.435452 111.1707364,98.84048 117.3835364,98.28918999999999 123.6544364,97.778507 129.9702364,97.30456099999999 136.3195364,96.862809 142.6929364,96.448149 149.0832364,96.055047 155.4862364,95.67763599999999 161.89993639999997,95.310923 168.3232364,94.952242 174.7547364,94.599242 181.19283639999998,94.249567 187.6353364,93.9008706 194.0795364,93.5508129 200.5227364,93.1970771 206.9613364,92.8374558 213.3919364,92.4722451 219.8114364,92.1046316 226.21733640000002,91.737909 232.6077364,91.3753 238.9811364,91.019946 245.33683639999998,90.674904 251.6743364,90.343148 257.9938364,90.02757199999999 264.2961364,89.730998 270.5820364,89.456187 276.8533364,89.20585 283.1119364,88.982664 289.36003639999996,88.789292 295.60063640000004,88.628399 301.8367364,88.502681 308.0721364,88.414671 314.31053640000005,88.364141 320.5554364,88.34892599999999 326.8098364,88.36688099999999 333.07643640000003,88.41590599999999 339.3576364,88.493923 345.6553364,88.598862 351.97113640000003,88.728644 358.3062364,88.881164 364.6613364,89.054283 371.03683639999997,89.245812 377.4325364,89.45351 383.8479364,89.675068 390.2818364,89.908112 396.73263640000005,90.1502 403.1982364,90.398818 409.6759364,90.651671 416.1629364,90.908175 422.6552364,91.168365 429.1440364,91.432075 435.62993639999996,91.699502 442.1147364,91.970906 448.6003364,92.24654 455.0880364,92.52665209999999 461.57803640000003,92.8114353 468.0641364,93.10080213 474.54473640000003,93.3948422 481.0191364,93.69370669999999 487.4874364,93.9975571 493.9497364,94.306566 500.4064364,94.620916 506.85803639999995,94.940791 513.3055363999999,95.265892 519.7496363999999,95.595321 526.1911364,95.92814299999999 532.6306364,96.263421 539.0686364,96.60021499999999 545.5056363999998,96.937586 551.9419363999999,97.274587 558.3779364,97.610268 564.8136364,97.943677 571.2492364,98.273854 577.6847363999999,98.599838 584.1199364,98.920662 590.5548363999999,99.235355 596.9889364,99.542946 603.4221363999999,99.842458 609.8537363999999,100.13301 616.2834363999999,100.414239 622.7107364,100.685975 629.1355364,100.948052 635.5575364,101.200313 641.9769363999999,101.442605 648.3937364,101.674781 654.8082363999999,101.896699 661.2208363999999,102.108216 667.6319364,102.309195 674.0423364,102.499496 680.4526364,102.67898 686.8638364,102.847506 693.2767363999999,103.004929 699.6926364,103.1511 706.1127363999999,103.28587 712.5383363999999,103.40901 718.9705363999999,103.52025 725.4097363999999,103.61923999999999 731.8563364,103.70564999999999 738.3100364,103.77915 744.7700363999999,103.83938 751.2351363999999,103.886 757.7037363999999,103.91866 764.1736364,103.93704 770.6424364,103.94083 777.1070364,103.92974 783.5639364,103.90352 790.0093364,103.86196 796.4390364,103.80487 802.8483363999999,103.73214 809.2326363999999,103.64373 815.5875364,103.53999999999999 821.9103364,103.42143 828.2003364,103.2885 834.4580363999999,103.14164 840.6855363999999,102.981237 846.8865364,102.807602 853.0657363999999,102.620972 859.2292364,102.421492 865.3844363999999,102.20920699999999 871.5400364,101.984047 877.7058364,101.745817 883.8938363999999,101.49417199999999 890.1173364,101.22859199999999 896.3922363999999,100.948353 902.7373363999999,100.652474 909.1733363999999,100.339832 915.6034364,100.015982 921.9296363999999,99.68756499999999 928.1742363999999,99.35522 934.3738363999998,99.018576 940.5782363999999,98.676316 946.8535363999999,98.326035 953.2679363999999,97.965129 959.5305364,97.611215 965.4574364,97.275185 971.0215364,96.958752 976.2247363999999,96.662001 981.0853364,96.384047 985.6298363999999,96.123522 989.8872363999999,95.87888699999999 993.8861363999999,95.648611 997.6529363999999,95.431257 1001.2115363999999,95.225522 1004.1456364,95.0556" stroke="black" stroke-width="2.0" /></svg>