<?xml version="1.0" encoding="utf-8" ?>
<svg baseProfile="full" height="126.99186" version="1.1" width="1012.3578372" xmlns="http://www.w3.org/2000/svg" xmlns:ev="http://www.w3.org/2001/xml-events" xmlns:xlink="http://www.w3.org/1999/xlink"><defs /><polygon fill="none" points="1004.3578372,104.275 1001.3744372,103.808265 997.7717372,103.232399 993.9779371999999,102.611484 989.9734372,101.939916 985.7369371999999,101.211327 981.2460371999999,100.418582 976.4781372,99.553899 971.4126372,98.609172 966.0343372,97.57663 960.3391372,96.450004 954.3405371999999,95.22627 948.0767372,93.90873 941.6081371999999,92.51107999999999 935.0421372,91.06112 928.5257372,89.59833 922.0194372,88.12156999999999 915.4809371999999,86.62858 908.9157372,85.12809 902.4088372,83.64699 895.9584371999999,82.18976 889.5519371999999,80.75422 883.1784371999998,79.33811 876.8281372,77.93955 870.4926371999999,76.55695 864.1644372,75.18904 857.8369372,73.83476 851.5042371999999,72.49331000000001 845.1615372,71.16406 838.8044371999999,69.84662 832.4293372,68.54077 826.0335372,67.24646999999999 819.6147371999999,65.96387999999999 813.1719371999999,64.69334 806.7043371999999,63.435359999999996 800.2125371999999,62.19057 793.6978372,60.95872 787.1617372,59.738710000000005 780.6062371999999,58.52941 774.0331371999999,57.32967 767.4445371999999,56.13831 760.8427372,54.95418 754.2300372,53.77609 747.6088371999999,52.60286 740.9817372,51.43331 734.3514372,50.26627 727.7206371999999,49.100559999999994 721.0922372,47.93504 714.4691372,46.76857 707.8544372,45.60004 701.2510371999999,44.4284 694.6617372,43.25427 688.0884371999999,42.0805 681.5326372,40.91001 674.9951371999999,39.74556 668.4762371999999,38.58977 661.9756371999999,37.44512999999999 655.4927372,36.31398999999999 649.0264372,35.1986 642.5750372,34.101060000000004 636.1366371999999,33.02342 629.7087372,31.967600000000004 623.2885371999998,30.93549 616.8727372,29.928889999999996 610.4576371999999,28.94959 604.0391371999999,27.99936000000001 597.6129372,27.079340000000002 591.1747371999999,26.18753000000001 584.7215372,25.32105999999999 578.2504372,24.477180000000004 571.7593372,23.653189999999995 565.2469371999999,22.84651000000001 558.7122372,22.05458 552.1551372,21.274900000000002 545.5764372,20.505020000000002 538.9772371999999,19.742499999999993 532.3598371999999,18.984970000000004 525.7271372,18.23008 519.0829372,17.475539999999995 512.4317372,16.719120000000004 505.7791372,15.958669999999998 499.1312372,15.192440000000005 492.49403720000004,14.422569999999993 485.8727372,13.653719999999993 479.2715372,12.890450000000001 472.69373720000004,12.137139999999988 466.1417372,11.397950000000009 459.6171372,10.676850000000002 453.1205372,9.97760000000001 446.6519372,9.30373999999999 440.2105372,8.658680000000004 433.79493720000005,8.045639999999992 427.4030372,7.467729999999989 421.0321372,6.927939999999992 414.6790372,6.429209999999998 408.3399372,5.974399999999989 402.0104372,5.566599999999994 395.68603720000004,5.207400000000007 389.3626372,4.896200000000007 383.0367372,4.632200000000012 376.7054372,4.4148 370.36653720000004,4.243399999999994 364.0181372,4.117399999999989 357.6590372,4.0364 351.2885372,4.0 344.9067372,4.007799999999989 338.51393720000004,4.0595 332.1112372,4.154700000000005 325.7005372,4.292900000000003 319.2841372,4.4735999999999905 312.8649372,4.696200000000005 306.44653719999997,4.960099999999997 300.0331372,5.264499999999998 293.62943720000004,5.609099999999998 287.2390372,5.994100000000003 280.8652372,6.41955999999999 274.5100372,6.885720000000006 268.17453720000003,7.392740000000003 261.8593372,7.940860000000001 255.5638372,8.530370000000005 249.2868372,9.161659999999998 243.0264372,9.835250000000002 236.7798372,10.551789999999997 230.5437372,11.312110000000004 224.3139372,12.117259999999987 218.0854372,12.968519999999998 211.8526372,13.867429999999999 205.6088372,14.8159 199.3465372,15.816159999999996 193.0590372,16.870509999999996 186.7446372,17.980410000000006 180.40873720000002,19.146159999999995 174.0636372,20.366439999999997 167.7293372,21.638049999999993 161.4323372,22.95563 155.2047372,24.311769999999996 149.0815372,25.698080000000004 143.0951372,27.113740000000007 137.2628372,28.56402 131.58593720000002,30.056070000000005 126.05493720000001,31.598740000000006 120.65273720000002,33.202650000000006 115.3564372,34.88052999999999 110.13903720000002,36.64787 104.96883720000001,38.524069999999995 99.8072472,40.53089 94.60758720000001,42.66363 89.3363872,44.89432 83.98576720000001,47.17994 78.5801972,49.45886 73.18522720000001,51.67579 67.90551719999999,53.849709999999995 62.8393172,56.01283 58.058157200000004,58.18884 53.6020672,60.3922 49.4822972,62.61913 45.672907200000004,64.84297000000001 42.1164772,67.06 38.746387199999994,69.28663 35.492067199999994,71.55491 32.271037199999995,73.91816 28.9617572,76.47533 25.313877199999997,79.45736 21.299427199999997,82.93346 17.9472972,85.95966 15.4952772,88.22274 13.6295312,89.98741 12.1390662,91.44848 10.9023672,92.71238 9.850527199999998,93.83801 8.9415812,94.86081 8.148218199999999,95.80376 7.451722200000001,96.682617 6.838763200000001,97.508737 6.2995722,98.290582 5.8268532,99.034666 5.4151012000000005,99.746125 5.0601568,100.429104 4.7589118,101.087009 4.5091135,101.722691 4.3092329,102.338574 4.1583816,102.936754 4.0562665,103.51907 4.0031766,104.087168 4.0,104.642541 4.048274,105.186581 4.1502753,105.7206078 4.30916194,106.2459152 4.5287933,106.7638729 4.8108656,107.2764018 5.156399,107.785642 5.5674442,108.29373 6.0472132,108.802876 6.6002822000000005,109.315472 7.2329162,109.834204 7.9535692000000004,110.362222 8.773633199999999,110.903363 9.708627199999999,111.4625 10.7800382,112.046069 12.0182642,112.662913 13.467075200000002,113.325575 15.1886672,114.051816 17.2570272,114.863025 19.715417199999997,115.761462 22.5253672,116.68203 25.473757199999998,117.49492000000001 28.3531272,118.11255 31.158447199999998,118.53659999999999 33.9843572,118.80552 36.9090772,118.95089 40.009147199999994,118.99186 43.3745572,118.94234 47.1213272,118.81777 51.393517200000005,118.64779 56.2958572,118.50415 61.6924572,118.45505 67.2281972,118.46014 72.61071720000001,118.44435 77.7681572,118.34049 82.7965872,118.09618 87.8504672,117.69939 93.05832720000001,117.15628 98.5242472,116.46731 104.3183972,115.636006 110.4355372,114.679175 116.7970372,113.617891 123.30023720000001,112.480382 129.8447372,111.300317 136.3527372,110.110294 142.78023720000002,108.937077 149.11653719999998,107.800149 155.3789372,106.7124974 161.6042372,105.6774622 167.8296372,104.685195 174.08433720000002,103.725914 180.3914372,102.791407 186.76763720000002,101.874604 193.22313720000002,100.969357 199.7601372,100.070357 206.3715372,99.173221 213.0413372,98.277515 219.7286372,97.391038 226.39773720000002,96.521148 233.0631372,95.66851 239.7385372,94.834 246.4349372,94.01901 253.1241372,93.22963 259.77913720000004,92.47144 266.39483720000004,91.74709 272.96853719999996,91.05881 279.4997372,90.4085 285.9895372,89.79775 292.44053720000005,89.22799 298.8571372,88.70045 305.24493720000004,88.21633 311.6104372,87.77602 317.9600372,87.37810999999999 324.2995372,87.02116 330.6339372,86.70389 336.96793720000005,86.42519 343.30543720000003,86.18409 349.6502372,85.97974 356.0054372,85.81139 362.3737372,85.67835 368.75743719999997,85.58003 375.1584372,85.51586 381.5781372,85.48531 388.0173372,85.48789 394.4765372,85.5231 400.9556372,85.59043 407.4540372,85.68935 413.9708372,85.81891999999999 420.5051372,85.9778 427.0561372,86.16459 433.6230372,86.37783999999999 440.2048372,86.61607000000001 446.80073719999996,86.87778 453.4098372,87.1614 460.0313372,87.46536 466.66433720000003,87.78804 473.3080372,88.12779 479.9615372,88.48294 486.6240372,88.85181 493.2945372,89.23268 499.9724372,89.62381 506.6567372,90.02346 513.3467372,90.43032 520.0416372,90.84369 526.7407371999999,91.26292 533.4435371999999,91.68735 540.1493371999999,92.11634000000001 546.8576371999999,92.54923 553.5682371999999,92.98537 560.2805371999999,93.4241 566.9944372,93.8648 573.7097372,94.30681 580.4262372,94.7495 587.1439371999999,95.19223 593.8628372,95.63437 600.5830371999999,96.07531 607.3046372,96.514424 614.0279372,96.951439 620.7531372,97.386445 627.4801372,97.819546 634.2090372,98.250846 640.9399372,98.680442 647.6725372,99.108428 654.4068371999999,99.534895 661.1426371999999,99.959932 667.8795372,100.383621 674.6172371999999,100.806042 681.3553372,101.227274 688.0935371999999,101.647388 694.8310372,102.066456 701.5675372,102.484543 708.3021372,102.901654 715.0344372,103.31688 721.7633372,103.728595 728.4881372,104.135153 735.2077372,104.534907 741.9207372,104.926216 748.6261371999999,105.307449 755.3222371999999,105.6769847 762.0075371999999,106.033222 768.6804371999999,106.3745813401 775.3391372,106.699511 781.9818372,107.0064928 788.6064372,107.2940473 795.2111371999999,107.56074 801.7937371999999,107.805187 808.3520371999999,108.026155 814.8844372,108.223844 821.3899372,108.399531 827.8694372,108.55453 834.3247371999998,108.690146 840.7587371999999,108.807655 847.1758371999999,108.908295 853.5813372,108.993256 859.9816372,109.063677 866.3842371999999,109.12064 872.7980372,109.165174 879.2333371999999,109.198254 885.7017371999999,109.220804 892.2172371999999,109.233703 898.7956371999999,109.23779 905.4559372,109.233871 912.1797371999999,109.222601 918.8174372,109.204644 925.3659372,109.180563 931.8599372,109.150716 938.3497371999999,109.115227 944.9038372,109.073922 951.5889371999999,109.026425 958.1073372,108.975168 964.2787371999999,108.922258 970.0693372,108.86874 975.4783372,108.815361 980.5242371999999,108.762617 985.2350372,108.710805 989.6419371999999,108.660089 993.7756372,108.610544 997.6646372,108.562186 1001.3346372,108.515001 1004.3578372,108.475" stroke="black" stroke-width="2.0" /></svg>