<?xml version="1.0" encoding="utf-8" ?>
<svg baseProfile="full" height="137.92991" version="1.1" width="1012.8336855" xmlns="http://www.w3.org/2000/svg" xmlns:ev="http://www.w3.org/2001/xml-events" xmlns:xlink="http://www.w3.org/1999/xlink"><defs /><polygon fill="none" points="1004.8336855,116.9574 1001.6764855,115.79200700000001 997.8931855,114.41855000000001 993.9458855,113.012258 989.8219855000001,111.571972 985.5078855,110.096754 980.9896855000001,108.586021 976.2531855,107.03972 971.2845855,105.45859000000002 966.0715855,103.84443 960.6048855,102.20054 954.8794855000001,100.53210000000001 948.8977854999999,98.84564 942.6709855,97.14507 936.2180855,95.43325000000002 929.5643855000001,93.71272 922.7404855,91.98519 915.7799855,90.25116 908.7162855,88.5095 901.5801855,86.75738000000001 894.3969854999999,84.99568000000001 887.1873855,83.23145000000001 879.9697855,81.47169000000001 872.7602855,79.72274000000002 865.5719855,77.99012 858.4148855000001,76.27851000000001 851.2959855,74.59169 844.2191855,72.93264 837.1857855000001,71.30357000000001 830.1945854999999,69.70601 823.2421855,68.14093 816.3230855,66.6088 809.4297855000001,65.10969 802.5529855,63.64332 795.6822855,62.20804000000001 788.8077855,60.800140000000006 781.9209855,59.416030000000006 775.0141855,58.05248 768.0808855,56.70651 761.1154855,55.375400000000006 754.1133855,54.05664 747.0709855,52.747910000000005 739.9859855,51.447080000000014 732.8569855000001,50.152190000000004 725.6841854999999,48.86148 718.4689854999999,47.57336000000001 711.2145855,46.286450000000016 703.9257855,44.999570000000006 696.6087855,43.71228000000001 689.2702855,42.42603000000001 681.9167855000001,41.14267000000001 674.5543855,39.86399 667.1888855000001,38.59173000000001 659.8259855,37.327510000000004 652.4704855,36.07287000000001 645.1271855,34.82924 637.7999854999999,33.59794000000001 630.4925855,32.38019 623.2081855,31.17706000000001 615.9492855,29.98955000000001 608.7181855,28.81853000000001 601.5164854999999,27.66479000000001 594.3455855,26.52940000000001 587.2060855,25.414000000000016 580.0979854999999,24.32010000000001 573.0207855,23.24909000000001 565.9734854999999,22.20223 558.9543855000001,21.180660000000003 551.9613855,20.185450000000003 544.9919854999999,19.21757000000001 538.0430855,18.278000000000006 531.1114855000001,17.367500000000007 524.1931855,16.48700000000001 517.2839855,15.637400000000014 510.3791855,14.819400000000016 503.47378549999996,14.034000000000006 496.5620855,13.281600000000012 489.6391855,12.561300000000003 482.70088549999997,11.872200000000007 475.7439855,11.213300000000018 468.76608550000003,10.583900000000014 461.7661855,9.9833 454.7437855,9.411100000000005 447.6998855,8.866800000000012 440.6364855,8.349900000000005 433.55658550000004,7.860100000000017 426.4645855,7.397200000000012 419.3658855,6.960600000000014 412.2671855,6.5501000000000005 405.1761855,6.165300000000002 398.10168550000003,5.805900000000008 391.0523855,5.473500000000016 384.03538549999996,5.170400000000015 377.05638550000003,4.8984999999999985 370.1189855,4.659500000000008 363.2254855,4.455200000000005 356.3765855,4.286900000000017 349.5716855,4.156000000000006 342.8091855,4.063700000000011 336.0860855,4.011300000000006 329.39858549999997,4.0 322.7419855,4.031100000000009 316.11048550000004,4.1059999999999945 309.4976855,4.226200000000006 302.8960855,4.393400000000014 296.2972855,4.609500000000011 289.6920855,4.8767 283.0707855,5.196600000000018 276.42618550000003,5.570000000000007 269.7536855,5.998100000000008 263.0516855,6.4816 256.32158549999997,7.021400000000014 249.5681855,7.617800000000017 242.7998855,8.270800000000008 236.02858550000002,8.979700000000008 229.2695855,9.742800000000017 222.5411855,10.558000000000007 215.8645855,11.421700000000016 209.2619855,12.32990000000001 202.7566855,13.277500000000003 196.3702855,14.2607 190.11598550000002,15.280200000000008 183.99368550000003,16.338700000000003 177.9929855,17.440200000000004 172.0959855,18.590430000000012 166.2787855,19.79652 160.51208549999998,21.067910000000012 154.7607855,22.416880000000006 148.9820855,23.858710000000002 143.1323855,25.40504 137.1818855,27.063050000000004 131.1223855,28.834680000000006 124.9736855,30.712900000000005 118.79068550000001,32.67775 112.6628855,34.69452000000001 106.7018855,36.71717000000001 101.0156755,38.69838 95.67794549999999,40.62159 90.68928550000001,42.50704000000002 85.9996455,44.38645000000001 81.5428455,46.295910000000006 77.2487955,48.27562 73.0434055,50.35892 68.8707055,52.559820000000016 64.7065955,54.87886 60.5590255,57.29869000000001 56.4681755,59.779990000000005 52.499545499999996,62.26395000000001 48.7306055,64.69283000000001 45.213125500000004,67.03421 41.9599755,69.27673000000001 38.9607955,71.42207 36.1948555,73.47845000000001 33.6393255,75.45604 31.2721555,77.36532 29.0733855,79.21632000000001 27.020695500000002,81.02204 25.0898755,82.79661000000002 23.2694955,84.54174 21.5554855,86.25070000000001 19.9456555,87.91385000000001 18.4367255,89.52252000000001 17.0233155,91.07108000000001 15.701915499999998,92.55548000000002 14.4772935,93.97055 13.3489315,95.31679000000001 12.3120115,96.59832 11.3602275,97.82054000000001 10.4871305,98.98901000000001 9.686698499999999,100.10895000000001 8.9535415,101.1851 8.2829425,102.22164000000001 7.6708245,103.22228000000001 7.1136894999999996,104.19026000000001 6.6085545,105.12845 6.152889500000001,106.03936 5.744565,106.92523000000001 5.3818059,107.78803 5.0631524,108.629534 4.78743064,109.45133100000001 4.5537279,110.25485400000001 4.361375,111.041402 4.2099326,111.812162 4.0991842,112.568222 4.0291322,113.31058700000001 4.0,114.040192 4.0122382,114.757913 4.066537,115.464578 4.1638442,116.16097500000001 4.3053907,116.84786500000001 4.4927247999999995,117.52598830000001 4.7277579,118.1960748 5.0126798,118.8588419 5.3480292,119.514775 5.7331195,120.16409300000001 6.1675284999999995,120.80687200000001 6.6511115,121.443048 7.1839825,122.07240200000001 7.7664985,122.694541 8.3992465,123.30887200000001 9.0830285,123.914568 9.818849499999999,124.51051600000001 10.6078935,125.09525300000001 11.451490499999998,125.666876 12.3510595,126.22293400000001 13.308026499999999,126.760272 14.323681500000001,127.274831 15.3989555,127.76139400000001 16.534065499999997,128.21324700000002 17.7279955,128.62179 18.9807955,128.97911 20.2976855,129.28202 21.685265500000003,129.52823 23.151105500000003,129.71605 24.703875500000002,129.84469 26.3535155,129.91494 28.1114655,129.92991 29.990825500000003,129.89637 32.0066555,129.82245 34.1758555,129.70525 36.5171555,129.53812 39.0499855,129.31375000000003 41.793465499999996,129.02461 44.7656655,128.6635 47.9814755,128.224604 51.4504455,127.70493 55.1751755,127.105884 59.15448550000001,126.43331500000001 63.3870555,125.69548200000001 67.86683550000001,124.906191 72.5858355,124.085463 77.54287550000001,123.25845100000001 82.7570755,122.45287800000001 88.2706055,121.677036 94.1280355,120.918839 100.36204550000001,120.16273000000001 106.9717855,119.39026840000001 113.9031855,118.5924988 121.0663855,117.77983920000001 128.3603855,116.965102 135.6921855,116.159574 142.9926855,115.37130300000001 150.2243855,114.60450100000001 157.3801855,113.85993300000001 164.4755855,113.13668600000001 171.5296855,112.43452500000001 178.5581855,111.75372700000001 185.5738855,111.09497200000001 192.5865855,110.45931100000001 199.6036855,109.84812500000001 206.63008549999998,109.26309900000001 213.6683855,108.705177 220.7201855,108.17358 227.78688549999998,107.66738000000001 234.86928550000002,107.18565000000001 241.9684855,106.72751000000001 249.0846855,106.29209 256.2183855,105.87853000000001 263.36938549999996,105.48596 270.5374855,105.11354 277.7220855,104.76041000000001 284.92208550000004,104.42572000000001 292.1363855,104.10859 299.3632855,103.80815000000001 306.6010855,103.52352 313.8474855,103.25406000000001 321.1004855,102.99956 328.35868550000004,102.75984000000001 335.6206855,102.5347 342.8854855,102.32392000000002 350.15268549999996,102.12727000000001 357.4219855,101.94448 364.6934855,101.77530000000002 371.96778550000005,101.61946 379.2455855,101.47668 386.5282855,101.34670000000001 393.8174855,101.22924 401.1149855,101.12403 408.4232855,101.03081 415.74488549999995,100.94903000000001 423.08198550000003,100.87786 430.4362855,100.81649000000002 437.8087855,100.76410000000001 445.19998549999997,100.71987000000001 452.6097855,100.68296000000001 460.0372855,100.65254000000002 467.4810855,100.62774 474.93908550000003,100.60770000000001 482.40828550000003,100.59152 489.8852855,100.57831 497.36568550000004,100.56716 504.84468549999997,100.55715000000001 512.3165855,100.54780000000001 519.7760855,100.54022 527.2186855,100.53585000000001 534.6409854999999,100.53612000000001 542.0402855,100.54244 549.4148855,100.55616 556.7640855000001,100.57863 564.0877855,100.61114 571.3869855,100.65497 578.6629855,100.71139000000001 585.9182854999999,100.78166000000002 593.1556855,100.86705 600.3789855000001,100.96883000000001 607.5923855,101.08829 614.8006855,101.22572000000001 622.0085855,101.38019000000001 629.2203854999999,101.5507 636.4399854999999,101.73628000000001 643.6708854999999,101.93596000000001 650.9163855,102.14880000000001 658.1791855,102.37384 665.4617855,102.61011 672.7664855,102.85664000000001 680.0947855,103.11242000000001 687.4482855,103.37642000000001 694.8277855,103.64758 702.2339855,103.92479 709.6669855,104.20696000000001 717.1260855,104.49346000000001 724.6070855,104.78381 732.0751855,105.07636000000001 739.5229855,105.37049 746.9538855,105.66598 754.3722855000001,105.96269000000001 761.7828855,106.26048 769.1913855,106.55926000000001 776.6037855000001,106.85897 784.0269855,107.15957 791.4686855,107.46106 798.9371854999999,107.76344 806.4075855,108.06541000000001 813.8335855,108.36561 821.2073855,108.665947 828.5243855,108.96857100000001 835.7825855,109.27562300000001 842.9824855,109.589228 850.1264855,109.91150100000002 857.2187855,110.24455800000001 864.2650854999999,110.59053600000001 871.2727855,110.95162300000001 878.2506855,111.33009200000001 885.2086855,111.728344 892.1586855,112.14896300000001 899.1135855,112.59478100000001 906.0885855,113.06895300000001 913.0993854999999,113.572496 920.1511855,114.100109 927.2296855,114.644007 934.2995854999999,115.194485 941.3064855,115.74024 948.1820855,116.26930100000001 954.8544855,116.770413 961.2593855,117.23537400000001 967.3535855,117.6623354 973.1192854999999,118.05241550000001 978.5575855,118.40799827000001 983.6816855000001,118.7320768 988.5113855,119.02780530000001 993.0692855,119.2982333 997.3783854999999,119.546171 1001.4607855,119.774139 1004.8336855,119.9574" stroke="black" stroke-width="2.0" /></svg>