<?xml version="1.0" encoding="utf-8" ?>
<svg baseProfile="full" height="156.25125" version="1.1" width="1012.2729691" xmlns="http://www.w3.org/2000/svg" xmlns:ev="http://www.w3.org/2001/xml-events" xmlns:xlink="http://www.w3.org/1999/xlink"><defs /><polygon fill="none" points="1004.2729691,124.8701 1000.6944690999999,124.04558 996.3815691,123.046244 991.8514691,121.989971 987.0842691,120.871135 982.0592690999999,119.683683 976.7555690999999,118.421291 971.1529691,117.07767 965.2349691,115.64713 958.9917690999999,114.12537999999999 952.4249691,112.51082 945.5522691,110.80675 938.4054691,109.02265 931.0262690999999,107.17178 923.4612690999999,105.26958 915.7553690999999,103.33184 907.9452690999999,101.37283 900.0537691,99.40355 892.0905690999999,97.42863 884.0625690999999,95.44837 875.9770690999999,93.46287 867.8417691,91.4722 859.6645691,89.47641999999999 851.4536691,87.47555 843.2172691,85.46959 834.9636691,83.45851 826.7012691,81.44224 818.4382691,79.42069000000001 810.1825690999999,77.39373 801.9418691,75.36119 793.7231691,73.32419999999999 785.5315691,71.28686 777.3709690999999,69.25341 769.2435691,67.22766999999999 761.1504690999999,65.21305 753.0915690999999,63.21261 745.0654691,61.22901 737.0698690999999,59.2646 729.1012691,57.3214 721.1554690999999,55.40115 713.2270691,53.50536000000001 705.3099691,51.63532000000001 697.3970691,49.791979999999995 689.4815690999999,47.974689999999995 681.5582691,46.182190000000006 673.6234691,44.41363 665.6752690999999,42.66857 657.7131691,40.94695 649.7386691,39.24905 641.7545690999999,37.575509999999994 633.7656691,35.92724 625.7783691,34.30548 617.8005691,32.71168 609.8419691,31.14747 601.9133691,29.61466 594.0264691,28.115719999999996 586.1916691,26.654899999999998 578.4164691,25.236099999999993 570.7056691,23.862499999999997 563.0615690999999,22.536500000000004 555.4842690999999,21.260000000000005 547.9720691,20.034599999999998 540.5214691,18.861199999999997 533.1273690999999,17.740700000000004 525.7838691,16.673599999999993 518.4833690999999,15.660600000000002 511.2176691,14.701900000000009 503.9770691,13.798199999999994 496.7512691,12.94959999999999 489.5297691,12.153999999999996 482.3025691,11.4084 475.0606691,10.709799999999987 467.7952691,10.055899999999994 460.4979691,9.444399999999987 453.16076910000004,8.873199999999997 445.77586909999997,8.340400000000002 438.3356691,7.844300000000004 430.8327691,7.383299999999991 423.2598691,6.955699999999993 415.6099691,6.560100000000006 407.8760691,6.194999999999993 400.05146909999996,5.8589000000000055 392.12976910000003,5.550699999999992 384.1064691,5.270499999999998 375.9813691,5.0184 367.7593691,4.794499999999999 359.4511691,4.599199999999996 351.0742691,4.432299999999998 342.6534691,4.293900000000008 334.2203691,4.183599999999998 325.8125691,4.100499999999997 317.4719691,4.043400000000005 309.2423691,4.0105000000000075 301.1663691,4.0 293.2819691,4.011499999999998 285.61506909999997,4.0504999999999995 278.1746691,4.122399999999999 270.9573691,4.231199999999987 263.9515691,4.380099999999999 257.14066909999997,4.571700000000007 250.50516910000002,4.808499999999995 244.0243691,5.0926000000000045 237.67646910000002,5.426400000000001 231.4396691,5.812600000000003 225.2917691,6.254499999999993 219.2098691,6.755600000000001 213.17046910000002,7.320700000000002 207.14816910000002,7.955399999999997 201.1154691,8.667100000000005 195.0417691,9.462299999999999 188.9021691,10.342000000000013 182.6865691,11.30489999999999 176.4035691,12.346100000000007 170.0830691,13.456400000000002 163.7777691,14.6207 157.5589691,15.81819999999999 151.5064691,17.024900000000002 145.69466910000003,18.2226 140.1693691,19.413600000000002 134.9378691,20.605500000000006 129.98376910000002,21.80709999999999 125.28056910000001,23.027 120.7981691,24.273799999999994 116.50656910000001,25.555999999999997 112.3773691,26.882099999999994 108.3842691,28.26109000000001 104.5024691,29.702960000000004 100.7083291,31.21875 96.9788691,32.814629999999994 93.29685909999999,34.489149999999995 89.6534591,36.23825000000001 86.0474991,38.05472 82.4849191,39.92765 78.97795909999999,41.842110000000005 75.5440391,43.78004 72.2034791,45.72820999999999 68.9715691,47.68006 65.85613910000001,49.63196000000001 62.859259099999996,51.5826 59.97891909999999,53.532579999999996 57.210439099999995,55.48388 54.5475491,57.439530000000005 51.9831291,59.40326999999999 49.50929909999999,61.37653999999999 47.11927909999999,63.35646 44.80876909999999,65.33876000000001 42.5753391,67.31822 40.4178491,69.28890999999999 38.335979099999996,71.24449000000001 36.329819099999995,73.17847 34.3995891,75.08449999999999 32.54533910000001,76.95662 30.766809100000003,78.78951 29.063289100000002,80.57861 27.433589100000003,82.32046 25.8759391,84.01588 24.3883091,85.668 22.968519099999998,87.27946 21.6141991,88.85246 20.322759100000003,90.38892 19.0914291,91.89057 17.9173391,93.35898 16.7975091,94.79567 15.7290291,96.20202 14.7113591,97.57835 13.745947099999999,98.92437 12.833224099999999,100.24046 11.9728361,101.52753 11.163917099999999,102.78683 10.4052971,104.01975 9.6956421,105.22778 9.0335521,106.41241 8.4176261,107.57514 7.8465051,108.71739 7.3188961,109.84053 6.8335911,110.94589 6.389477100000001,112.03469 5.9855371,113.10811 5.6208551,114.16725 5.2946111,115.21316999999999 5.0060876,116.24686 4.7546587,117.26925 4.5397937,118.281235 4.36105261,119.283668 4.21808499,120.277361 4.1106283,121.263093 4.0385068,122.241616 4.0016315,123.213658 4.0,124.179924 4.0336978,125.141106 4.1028998,126.097884 4.20787275,127.0509271 4.34894326,128.0008604 4.5257449,128.947361 4.7372575,129.88919199999998 4.9825613,130.825099 5.2608594,131.753836 5.5714701,132.674161 5.9138181,133.584818 6.2874331,134.484536 6.6919421,135.372014 7.127068100000001,136.24591 7.5926321,137.104835 8.0885491,137.94734 8.6148311,138.77188 9.1715901,139.57686 9.7590441,140.36055 10.3775211,141.12109 11.0274681,141.8565 11.7094621,142.56459 12.4242251,143.24302 13.1726381,143.88915 13.955765099999999,144.50009 14.7748791,145.07262 15.6314991,145.60307 16.5274291,146.08732 17.464809099999997,146.52069 18.445619100000002,146.90061 19.4713091,147.22856000000002 20.5433591,147.50634 21.6633591,147.73587 22.8329491,147.91926 24.0537791,148.05893 25.327329100000004,148.1578 26.654839100000004,148.21949 28.0369591,148.24864 29.4734391,148.25125 30.9633591,148.23393 32.5092091,148.1978 34.1151991,148.14163 35.7859491,148.06422 37.5265091,147.96435 39.34238909999999,147.84091 41.23961909999999,147.69288 43.2248191,147.51949 45.3053191,147.32023 47.489269099999994,147.09508 49.7858691,146.84458 52.2057491,146.57009 54.761569099999996,146.27398 57.4684491,145.95856 60.341949099999994,145.62247 63.398479099999996,145.26326 66.6552591,144.87817 70.1304991,144.46413 73.84390909999999,144.01758999999998 77.8166891,143.53444 82.0714791,143.00999 86.6335891,142.43999 91.5272291,141.82144 96.7690591,141.15288 102.36109909999999,140.43544 108.2824691,139.67433 114.4847691,138.88102 120.8996691,138.07208 127.45286909999999,137.26585 134.0785691,136.479786 140.7310691,135.728487 147.39126910000002,135.022984 154.06846910000002,134.371143 160.7997691,133.776562 167.6353691,133.232438 174.6218691,132.73025 181.80066910000002,132.262295 189.20646910000002,131.821105 196.8621691,131.399 204.77086910000003,130.98779000000002 212.90676910000002,130.581325 221.2236691,130.182003 229.6701691,129.793996 238.19456910000002,129.421136 246.7496691,129.06668000000002 255.2958691,128.73318 263.8031691,128.4224575 272.25196910000005,128.13567419999998 280.6328691,127.8734601 288.9453691,127.6360607 297.1972691,127.42348527 305.4035691,127.2356428 313.5853691,127.0718463 321.7643691,126.9299519 329.9594691,126.8078132 338.1866691,126.7034793 346.45946910000004,126.6151247 354.7887691,126.5409916 363.18276910000003,126.479341 371.64666910000005,126.428411 380.1824691,126.386385 388.7881691,126.351365 397.4577691,126.321356 406.1804691,126.294273 414.94116909999997,126.268818 423.72396910000003,126.24549 432.51516910000004,126.225008 441.30286910000007,126.208072 450.07786910000004,126.19536 458.83336909999997,126.187523 467.5649691,126.185191 476.2706691,126.18897199999999 484.9509691,126.199461 493.6082691,126.21724999999999 502.2473691,126.242936 510.8749691,126.277023 519.4987690999999,126.319147 528.1254691,126.368523 536.7610691,126.42438 545.4102691,126.485951 554.0770691,126.5524661 562.7640691,126.6231449 571.4732690999999,126.6971921 580.2052690999999,126.7737929 588.9597690999999,126.8521096 597.7349691,126.931281 606.5283691,127.0104247 615.3360690999999,127.0889117 624.1540690999999,127.1666269 632.9789691,127.2435183 641.8074690999999,127.3195389 650.6370691,127.3946464 659.4654691,127.46880406 668.2909691,127.54197956 677.1123690999999,127.61414542 685.9287691,127.6852785 694.7400690999999,127.7553599 703.5463691,127.8243742 712.3481691,127.8923334 721.1462691,127.9593717 729.9414691,128.0256608 738.7340690999999,128.0913703 747.5243691,128.1566684 756.3124690999999,128.2217215 765.0983690999999,128.2866945 773.8818691,128.3517508 782.6624691,128.4170523 791.4396691,128.482759 800.2126691,128.54903000000002 808.9806691,128.616028 817.7420690999999,128.68408 826.4944691000001,128.753647 835.2334691,128.825177 843.9537690999999,128.899102 852.6481690999999,128.975824 861.3085691,129.055718 869.9256691,129.139122 878.4892690999999,129.226335 886.9883691,129.317611 895.4117691,129.41315400000002 903.7477691,129.513117 911.9843690999999,129.617013 920.1005690999999,129.721464 928.0598690999999,129.822311 935.8152691,129.915718 943.3167691,129.998446 950.5193691,130.068086 957.3886691,130.123199 963.9054691,130.164131 970.0679690999999,130.192615 975.8877690999999,130.210393 981.3840690999999,130.219047 986.5798690999999,130.21996000000001 991.4988691,130.214317 996.1645691,130.203115 1000.5989691,130.18719 1004.2729691,130.1701" stroke="black" stroke-width="2.0" /></svg>