<?xml version="1.0" encoding="utf-8" ?>
<svg baseProfile="full" height="107.21916800000001" version="1.1" width="1012.457043" xmlns="http://www.w3.org/2000/svg" xmlns:ev="http://www.w3.org/2001/xml-events" xmlns:xlink="http://www.w3.org/1999/xlink"><defs /><polygon fill="none" points="1004.457043,88.20015000000001 1001.446743,87.45891800000001 997.883743,86.585024 994.217643,85.689789 990.442843,84.77212 986.552943,83.83086600000001 982.541243,82.864823 978.400843,81.872742 974.124243,80.85334 969.703943,79.8053 965.131843,78.72732 960.400043,77.61814000000001 955.500543,76.47656 950.425743,75.30153000000001 945.168543,74.09221000000001 939.722943,72.8481 934.084843,71.56909000000002 928.2521429999999,70.2557 922.225943,68.90917000000002 916.0116429999999,67.53164000000001 909.619243,66.12634000000001 903.064443,64.69766000000001 896.369343,63.251310000000004 889.622743,61.80718 882.947243,60.391630000000006 876.320943,58.999810000000004 869.720643,57.62677000000001 863.126743,56.26852000000001 856.522743,54.92181000000001 849.894943,53.584120000000006 843.231943,52.253490000000006 836.524943,50.92858000000001 829.767743,49.608650000000004 822.972243,48.29647000000001 816.211643,47.00636000000001 809.493443,45.73964000000001 802.809843,44.494780000000006 796.151243,43.26964 789.5078430000001,42.061760000000014 782.871443,40.86889000000001 776.234843,39.68913000000001 769.592043,38.52081000000001 762.9382429999999,37.362500000000004 756.269543,36.21297000000001 749.583443,35.071220000000004 742.878143,33.93642000000001 736.153143,32.80795000000001 729.409343,31.685370000000006 722.648643,30.568450000000013 715.874243,29.45712000000001 709.090643,28.351520000000008 702.303843,27.25200000000001 695.5205430000001,26.160140000000013 688.7468429999999,25.07923000000001 681.9879430000001,24.01252000000001 675.248143,22.963000000000008 668.530543,21.933450000000008 661.837343,20.926400000000015 655.169643,19.944159999999997 648.5278430000001,18.988860000000017 641.911343,18.062420000000003 635.318943,17.166600000000003 628.748543,16.303050000000013 622.197243,15.473309999999998 615.661743,14.678820000000016 609.137843,13.921000000000006 602.620743,13.20122000000002 596.1053430000001,12.519739999999999 589.586843,11.874859999999998 583.0611429999999,11.264830000000003 576.524643,10.688040000000015 569.974243,10.142990000000012 563.407143,9.628280000000004 556.821543,9.142560000000003 550.215643,8.684580000000011 543.588543,8.253110000000007 536.939743,7.846940000000018 530.2694429999999,7.464910000000003 523.578443,7.105850000000018 516.868143,6.768590000000003 510.140543,6.451960000000014 503.39854299999996,6.154769999999999 496.645543,5.876190000000008 489.884743,5.616350000000011 483.119043,5.375470000000007 476.351043,5.153720000000021 469.58284299999997,4.951250000000002 462.81624300000004,4.768160000000009 456.05234299999995,4.604520000000008 449.292243,4.460390000000004 442.536443,4.335800000000006 435.78484299999997,4.230770000000007 429.037243,4.1453400000000045 422.293043,4.079510000000013 415.550943,4.033320000000003 408.809543,4.006799999999998 402.066843,4.0 395.320743,4.01276 388.569043,4.044560000000004 381.810143,4.094880000000003 375.04274300000003,4.163210000000021 368.26604299999997,4.249020000000002 361.47954300000004,4.351820000000004 354.683243,4.471070000000012 347.87764300000003,4.606240000000014 341.063743,4.756760000000014 334.242843,4.922050000000013 327.416743,5.101500000000016 320.587943,5.294460000000001 313.75894300000004,5.50027 306.93324299999995,5.718190000000007 300.114443,5.947690000000009 293.306743,6.190870000000004 286.51484300000004,6.4516100000000165 279.743143,6.733770000000021 272.99584300000004,7.041070000000005 266.277243,7.377100000000013 259.59144299999997,7.7453000000000145 252.942043,8.14894000000001 246.332943,8.591110000000015 239.76744300000001,9.074730000000002 233.248743,9.60250000000002 226.779943,10.176910000000007 220.363843,10.800269999999998 214.002843,11.474660000000014 207.699343,12.201980000000006 201.455443,12.983860000000007 195.272243,13.820720000000009 189.147443,14.712339999999998 183.07374299999998,15.659250000000014 177.03984300000002,16.663050000000013 171.03034300000002,17.72653000000001 165.025743,18.853989999999996 159.001743,20.05162 152.928143,21.328050000000005 146.76764300000002,22.692310000000006 140.486743,24.148840000000007 134.067043,25.69823000000001 127.51194299999999,27.335040000000006 120.854743,29.04487000000001 114.163743,30.802040000000012 107.541343,32.56980000000001 101.104613,34.30723000000001 94.947613,35.99947 89.080563,37.668200000000006 83.44627299999999,39.34906000000001 77.951173,41.08785000000001 72.478563,42.933960000000006 66.954773,44.91295000000001 61.410653,47.01276000000001 55.988793,49.171940000000006 50.890893,51.294880000000006 46.261123,53.318220000000004 42.095063,55.24183000000001 38.319663,57.09233000000001 34.855183,58.902350000000006 31.631282999999996,60.705630000000006 28.586643,62.53880000000001 25.654322999999998,64.45139 22.833043,66.44763 20.230053,68.42955 17.931713000000002,70.28553000000001 15.937953,71.96879000000001 14.223769,73.47772 12.751854,74.83532000000001 11.477999,76.07098 10.366368,77.20885000000001 9.390042999999999,78.26731000000001 8.528967999999999,79.26015000000001 7.768056,80.19794 7.095802,81.08883 6.503328,81.939288 5.983716,82.754523 5.53155,83.53878300000001 5.1425906999999995,84.29559800000001 4.8135478,85.027939 4.541913,85.73833900000001 4.3258456,86.428988 4.164091,87.101797 4.0559281,87.758458 4.001139,88.40048700000001 4.0,89.029261 4.0532917,89.64604800000001 4.1623304,90.25203180000001 4.3290229,90.8483432 4.55589017,91.43607150000001 4.8438771,92.0159565 5.1916095,92.58818600000001 5.598094,93.152714 6.062856,93.70927700000001 6.585904,94.25736800000001 7.167708,94.79620100000001 7.80919,95.32465400000001 8.511725,95.84118600000001 9.277149999999999,96.34372 10.107772999999998,96.829479 11.00637,97.294746 11.976157,97.73451600000001 13.020702,98.141992 14.143704,98.50781900000001 15.348493000000001,98.81894100000001 16.636983,99.05686700000001 18.009323000000002,99.196774 19.476853,99.21916800000001 21.062443,99.10772800000001 22.797863,98.84411100000001 24.728543,98.409513 26.921152999999997,97.79023600000001 29.474873,96.994577 32.525903,96.066894 36.204793,95.01485600000001 40.548983,93.863393 45.366862999999995,92.697398 50.309693,91.617951 55.169942999999996,90.66742930000001 59.975563,89.82261600000001 64.82303300000001,89.02991300000001 69.785263,88.23921000000001 74.911123,87.400231 80.216263,86.458977 85.672183,85.38369 91.237803,84.21041400000001 96.882763,82.99153000000001 102.594513,81.78104200000001 108.382443,80.62845000000002 114.266143,79.54502000000001 120.261843,78.51898000000001 126.382143,77.53839 132.63474300000001,76.59120000000001 139.020743,75.66493000000001 145.532343,74.74663000000001 152.150443,73.82301000000001 158.842943,72.88211000000001 165.571543,71.92669000000001 172.30254300000001,70.96883000000001 179.01004300000002,70.01975000000002 185.676643,69.08928 192.293543,68.18564 198.859543,67.31562000000001 205.38064300000002,66.48473000000001 211.868043,65.69568000000001 218.333743,64.94599000000001 224.788143,64.23281 231.240143,63.553650000000005 237.697843,62.90637000000001 244.167943,62.28907000000001 250.65634300000002,61.70007000000001 257.168043,61.13787000000001 263.706843,60.60110000000001 270.275643,60.08854000000001 276.87634299999996,59.59904 283.509543,59.13154000000001 290.174843,58.68502 296.87024299999996,58.25852000000001 303.592743,57.85110000000001 310.337543,57.46197000000001 317.099543,57.091190000000005 323.87424300000004,56.739050000000006 330.657143,56.405750000000005 337.444843,56.09145000000001 344.233943,55.79621000000001 351.022043,55.52006000000001 357.807243,55.26296000000001 364.588143,55.02483000000001 371.363943,54.80557 378.134543,54.60505000000001 384.900443,54.42313000000001 391.662443,54.25965000000001 398.42224300000004,54.114450000000005 405.181943,53.98739000000001 411.944243,53.878150000000005 418.711643,53.785880000000006 425.486643,53.70967000000001 432.27094300000005,53.64862000000001 439.066143,53.60184 445.873343,53.56845000000001 452.69304300000005,53.54757000000001 459.525643,53.538320000000006 466.370843,53.53979000000001 473.227943,53.55109000000001 480.09584299999995,53.571290000000005 486.973043,53.59946000000001 493.857243,53.634620000000005 500.74594299999995,53.675810000000006 507.63624300000004,53.722080000000005 514.524543,53.77338000000001 521.407943,53.83072000000001 528.283643,53.89513000000001 535.149643,53.96764 542.004143,54.04927000000001 548.846043,54.14101000000001 555.674443,54.24385000000001 562.4890429999999,54.35877000000001 569.2900430000001,54.48675000000001 576.077943,54.62876000000001 582.853743,54.78578000000001 589.618743,54.95879000000001 596.374643,55.14879000000001 603.123543,55.35681000000001 609.868143,55.58377 616.6108429999999,55.82976000000001 623.354043,56.09445000000001 630.099643,56.37755000000001 636.8490429999999,56.67876000000001 643.603543,56.99777000000001 650.363943,57.334270000000004 657.130543,57.68795000000001 663.903443,58.05844000000001 670.682243,58.44539000000001 677.466143,58.84839000000001 684.254043,59.26702000000001 691.044443,59.70079000000001 697.835143,60.14920000000001 704.623943,60.61169000000001 711.4081430000001,61.08765000000001 718.185243,61.57650000000001 724.953643,62.07768000000001 731.712443,62.590680000000006 738.4615429999999,63.11506000000001 745.2018429999999,63.65044 751.934543,64.19650000000001 758.661943,64.75300000000001 765.387043,65.31980000000001 772.113443,65.89681 778.8457430000001,66.48404000000001 785.589143,67.08162000000002 792.349743,67.68975 799.1347430000001,68.30875 805.952243,68.93909000000001 812.811043,69.58146 819.700943,70.23510000000002 826.5473430000001,70.89299000000001 833.340143,71.5541 840.0831430000001,72.21870000000001 846.782643,72.88733 853.447443,73.56081 860.088543,74.24025 866.719543,74.92707000000001 873.356443,75.62299000000002 880.018143,76.33016 886.727043,77.05119 893.510043,77.78931 900.368743,78.54509000000002 907.122143,79.29864 913.7096429999999,80.04267000000002 920.1130430000001,80.77445 926.3205429999999,81.491883 932.326143,82.193505 938.128143,82.878375 943.728443,83.545995 949.131543,84.19621400000001 954.343643,84.82914600000001 959.372343,85.445102 964.2258429999999,86.044532 968.912643,86.62797700000002 973.4413430000001,87.19603500000001 977.8203430000001,87.74933700000001 982.057843,88.28852200000001 986.161643,88.81422900000001 990.139243,89.327081 993.997743,89.827684 997.7435429999999,90.31661910000001 1001.3830429999999,90.79444190000001 1004.457043,91.20015000000001" stroke="black" stroke-width="2.0" /></svg>