<?xml version="1.0" encoding="utf-8" ?>
<svg baseProfile="full" height="96.87523" version="1.1" width="1011.993190408" xmlns="http://www.w3.org/2000/svg" xmlns:ev="http://www.w3.org/2001/xml-events" xmlns:xlink="http://www.w3.org/1999/xlink"><defs /><polygon fill="none" points="1003.993190408,76.87332 1001.197190408,76.2922906 997.814290408,75.59366800000001 994.243790408,74.861483 990.4653904080001,74.092438 986.456490408,73.282983 982.192790408,72.429422 977.6492904080001,71.52815100000001 972.801990408,70.57608300000001 967.631890408,69.57135600000001 962.130690408,68.514418 956.308490408,67.409467 950.2212904080001,66.26917 944.1891904080001,65.15399000000001 938.264990408,64.07255 932.3815904080001,63.011660000000006 926.488790408,61.961650000000006 920.548290408,60.915420000000005 914.532190408,59.86793000000001 908.423590408,58.816230000000004 902.263190408,57.76726000000001 896.171190408,56.74091000000001 890.1390904080001,55.73496000000001 884.150590408,54.74600000000001 878.191690408,53.77113000000001 872.250490408,52.80787000000001 866.316390408,51.854040000000005 860.380490408,50.907770000000006 854.434790408,49.96743000000001 848.4726904080001,49.03159000000001 842.488590408,48.09902000000001 836.477790408,47.16868000000001 830.4369904079999,46.23969000000001 824.3638904080001,45.31139 818.257690408,44.383280000000006 812.1186904080001,43.45508 805.948990408,42.52671000000001 799.7522904080001,41.598380000000006 793.5540904080001,40.673860000000005 787.3719904080001,39.75602000000001 781.2017904080001,38.84442000000001 775.039390408,37.938660000000006 768.881090408,37.038410000000006 762.7235904080001,36.143420000000006 756.563990408,35.2535 750.3997904080001,34.36851000000001 744.228790408,33.48838000000001 738.0491904080001,32.6131 731.8594904079999,31.74273000000001 725.658590408,30.877360000000003 719.4458904080001,30.01718000000001 713.2315904080001,29.163860000000007 707.027090408,28.319170000000007 700.831990408,27.48327000000001 694.645290408,26.656540000000007 688.466190408,25.839720000000007 682.2935904080001,25.033590000000004 676.1266904080001,24.238920000000007 669.964390408,23.456480000000006 663.805990408,22.687070000000006 657.6505904080001,21.93144000000001 651.497390408,21.190410000000007 645.3453904080001,20.46477 639.193990408,19.755300000000005 633.042190408,19.06284000000001 626.889390408,18.388180000000006 620.734790408,17.732170000000004 614.5775904080001,17.09564000000001 608.416990408,16.47944000000001 602.2524904080001,15.884420000000006 596.0831904080001,15.31094000000001 589.9086904080001,14.758140000000004 583.7285904080001,14.224950000000014 577.542490408,13.710350000000005 571.3503904080001,13.21329 565.151990408,12.732760000000013 558.9472904080001,12.26773 552.736390408,11.817200000000014 546.5193904079999,11.380129999999994 540.296590408,10.955529999999996 534.068390408,10.542370000000005 527.835190408,10.13964 521.597490408,9.746330000000015 515.355990408,9.361429999999999 509.1113904079999,8.983910000000009 502.864690408,8.612769999999998 496.616590408,8.247430000000008 490.368090408,7.8888800000000145 484.119890408,7.53840000000001 477.872790408,7.197270000000003 471.62749040799997,6.866749999999996 465.384690408,6.548119999999997 459.144890408,6.242620000000002 452.90889040799993,5.95150000000001 446.677190408,5.67598000000001 440.45029040799994,5.417270000000016 434.228690408,5.1765800000000155 428.012890408,4.955090000000013 421.803390408,4.7539799999999985 415.600490408,4.574390000000008 409.40449040799996,4.417470000000009 403.215790408,4.284350000000003 397.03469040799996,4.176010000000005 390.861590408,4.093010000000007 384.696590408,4.035730000000015 378.53969040799996,4.004600000000011 372.390590408,4.0 366.24889040799997,4.022360000000006 360.114090408,4.072090000000017 353.985090408,4.149619999999999 347.86099040799996,4.255410000000012 341.74059040799995,4.389930000000007 335.622490408,4.553690000000017 329.504890408,4.747250000000008 323.386090408,4.971180000000004 317.263990408,5.226130000000012 311.13639040799995,5.512810000000002 305.00069040799997,5.831960000000009 298.85429040799994,6.184350000000009 292.694290408,6.569780000000009 286.51839040799996,6.987490000000008 280.324990408,7.436660000000003 274.11329040799995,7.9164499999999975 267.883290408,8.425920000000005 261.636490408,8.96399000000001 255.39409040799998,9.52770000000001 249.168090408,10.114630000000005 242.954890408,10.723749999999995 236.74989040800003,11.354190000000017 230.547890408,12.005210000000005 224.342790408,12.676260000000013 218.127590408,13.366950000000003 211.89589040799999,14.07688000000001 205.678290408,14.801370000000006 199.49949040799999,15.5364 193.36769040800002,16.28347000000001 187.286590408,17.047140000000006 181.254890408,17.832490000000007 175.266090408,18.645050000000005 169.30959040800002,19.49092000000001 163.370690408,20.37704 157.430290408,21.31141000000001 151.464390408,22.30358000000001 145.44479040800002,23.36234000000001 139.349690408,24.49222000000001 133.219790408,25.685690000000008 127.166590408,26.918840000000003 121.165290408,28.19333000000001 115.16889040800001,29.516810000000007 109.114290408,30.902170000000005 103.075600408,32.331230000000005 97.26706040799999,33.75524 91.70842040800001,35.18737000000001 86.339200408,36.66152000000001 81.046780408,38.22818 75.658240408,39.966710000000006 69.95631040800001,41.96584000000001 64.425430408,44.034240000000004 59.084360408,46.12283000000001 53.473580408,48.380300000000005 48.287290408,50.50769000000001 43.990510408,52.321810000000006 40.24837040799999,53.96171000000001 36.803750408,55.539060000000006 33.441380408,57.161010000000005 29.857470408,59.00663 25.508320408,61.447500000000005 21.914810408,63.55901000000001 17.678260408,66.00507 14.085390408,67.98791700000001 11.969076408,69.16829600000001 10.422065408,70.07410200000001 9.196452408,70.83763400000001 8.187491408,71.512837 7.340138408,72.127609 6.621676408,72.69853800000001 6.011130408,73.23645800000001 5.494424408,73.74895900000001 5.061890408,74.241663 4.706901208,74.718946 4.425071908,75.184368 4.213803908,75.64096400000001 4.072035748,76.09143900000001 4.000150592,76.5383261 4.0,76.9841226 4.072730228,77.43119870000001 4.216606508,77.88153500000001 4.430924608,78.33704 4.716456608,78.799682 5.0755044080000005,79.271589 5.512098408,79.75517 6.032391408,80.25325900000001 6.645334408,80.769343 7.363830408,81.307884 8.206753408,81.87488 9.202722408,82.47883200000001 10.397772408,83.13265200000001 11.873132408,83.857826 13.794964408,84.695019 16.595680408,85.73415600000001 21.475270408,87.05838 26.558360408,87.83959 31.689880408,88.28631 36.065260408,88.5621 40.32826040799999,88.74851000000001 44.776470407999994,88.85752000000001 49.64394040799999,88.87523 55.123800407999994,88.76197 61.182900407999995,88.47382 67.33734040799999,88.04376 73.436920408,87.52850000000001 79.62390040800001,86.96672000000001 85.762370408,86.409884 91.871750408,85.856448 97.996390408,85.295044 104.15569040800001,84.716397 110.34609040800001,84.115142 116.556090408,83.49471600000001 122.775490408,82.860545 128.996490408,82.217989 135.213290408,81.572237 141.42259040800002,80.92824700000001 147.623190408,80.290704 153.816390408,79.66402400000001 160.005090408,79.05162200000001 166.192690408,78.453496 172.381790408,77.86878940000001 178.574290408,77.2967205 184.771890408,76.7365745 190.97539040799998,76.18769610000001 197.18529040800001,75.649484 203.401390408,75.121384 209.622990408,74.60294900000001 215.849290408,74.09408900000001 222.07949040800003,73.59481500000001 228.312790408,73.10513 234.548490408,72.625028 240.785990408,72.154494 247.024790408,71.693504 253.264290408,71.24202700000001 259.504090408,70.80002400000001 265.743790408,70.367451 271.98309040799995,69.944254 278.221690408,69.530376 284.45949040799997,69.125754 290.69619040799995,68.730321 296.931790408,68.34400300000001 303.1663904079999,67.966724 309.39979040799994,67.59844100000001 315.63229040799996,67.239317 321.863790408,66.88958600000001 328.09449040799996,66.54948 334.32439040799994,66.21925000000002 340.55369040799997,65.89911000000001 346.78239040799997,65.58931000000001 353.01049040799995,65.29008 359.23829040799995,65.00167 365.465590408,64.7243 371.692790408,64.45821000000001 377.91969040799995,64.20365000000001 384.14659040799995,63.96085000000001 390.373390408,63.730050000000006 396.60039040799995,63.51149000000001 402.82749040799996,63.30541000000001 409.054890408,63.11202000000001 415.282590408,62.93124 421.510790408,62.762890000000006 427.739490408,62.60680000000001 433.968690408,62.462790000000005 440.198590408,62.33070000000001 446.42919040799995,62.210330000000006 452.66059040799996,62.10153000000001 458.892790408,62.004110000000004 465.125890408,61.917910000000006 471.359990408,61.842760000000006 477.595190408,61.778470000000006 483.83139040799995,61.72489000000001 490.068790408,61.68184000000001 496.30739040799995,61.649150000000006 502.547290408,61.62666000000001 508.788590408,61.61417000000001 515.0311904079999,61.611470000000004 521.275290408,61.618280000000006 527.520790408,61.634330000000006 533.767790408,61.65937000000001 540.016290408,61.69313000000001 546.266090408,61.73534000000001 552.517190408,61.78573000000001 558.769490408,61.84404000000001 565.022990408,61.910000000000004 571.277290408,61.98333000000001 577.5324904080001,62.06378000000001 583.788190408,62.151050000000005 590.044290408,62.24488000000001 596.300490408,62.345000000000006 602.556590408,62.451130000000006 608.8122904080001,62.562990000000006 615.067190408,62.680350000000004 621.3212904080001,62.80301000000001 627.574290408,62.93077000000001 633.8263904080001,63.06340000000001 640.0774904080001,63.200720000000004 646.327790408,63.34252000000001 652.577490408,63.48861000000001 658.826990408,63.63877000000001 665.076490408,63.79283000000001 671.326590408,63.95060000000001 677.577890408,64.11188000000001 683.8308904080001,64.27649000000001 690.0863904079999,64.44425000000001 696.345190408,64.61498 702.6080904080001,64.78852 708.8761904080001,64.96473 715.1495904080001,65.14382 721.419390408,65.3259 727.6823904080001,65.5112 733.938490408,65.70006000000001 740.1881904080001,65.89285000000001 746.432390408,66.08992 752.6722904080001,66.29164 758.9091904080001,66.49841 765.145090408,66.71062 771.3820904080001,66.92869300000001 777.622690408,67.153074 783.8697904080001,67.384229 790.1264904080001,67.622651 796.3945904080001,67.86879 802.6519904080001,68.122133 808.887390408,68.38244200000001 815.0969904080001,68.64924500000001 821.278690408,68.921896 827.431490408,69.19981600000001 833.556090408,69.482499 839.6540904080001,69.769513 845.7285904080001,70.06049900000001 851.7835904080001,70.355174 857.824290408,70.65332900000001 863.8567904079999,70.95483 869.888590408,71.259617 875.928090408,71.56770700000001 881.985190408,71.87920100000001 888.071290408,72.19428300000001 894.199390408,72.513238 900.384990408,72.83645700000001 906.629990408,73.163606 912.8161904080001,73.48715600000001 918.912590408,73.80324700000001 924.9336904080001,74.1105 930.905690408,74.40823300000001 936.865690408,74.696263 942.8628904080001,74.97475700000001 948.9630904080001,75.244144 955.1655904080001,75.501349 961.1305904080001,75.73121800000001 966.770790408,75.9326178 972.0717904080001,76.1077776 977.040490408,76.25952860000001 981.695590408,76.3907963 986.061590408,76.5043239 990.164390408,76.60255260000001 994.029290408,76.6875928 997.679690408,76.7612407 1001.136790408,76.82501363 1003.993190408,76.87332" stroke="black" stroke-width="2.0" /></svg>