<?xml version="1.0" encoding="utf-8" ?>
<svg baseProfile="full" height="135.51125000000002" version="1.1" width="1012.2693796" xmlns="http://www.w3.org/2000/svg" xmlns:ev="http://www.w3.org/2001/xml-events" xmlns:xlink="http://www.w3.org/1999/xlink"><defs /><polygon fill="none" points="1004.2693796,110.47200000000001 1000.6741796,109.902028 996.3304796,109.218832 991.7566796,108.50587900000001 986.9333796,107.761182 981.8415795999999,106.982971 976.4638795999999,106.169936 970.7872796,105.32159700000001 964.8068796,104.43880100000001 958.5300795999999,103.52432300000001 951.9815796,102.58343500000001 945.2069796000001,101.622049 938.2643796,100.64379000000001 931.2142795999999,99.65127000000001 924.1115796,98.64564 916.9983796,97.62617 909.9011796,96.58995 902.8292796,95.53188 895.7765796,94.44714 888.7306796,93.33597 881.6803796,92.19951 874.6159796,91.03906 867.5292796,89.85603 860.4132795999999,88.65211000000001 853.2626796,87.42921000000001 846.0734796,86.18958 838.8433796,84.93584000000001 831.5719796,83.67101000000001 824.2604795999999,82.39855 816.9124796,81.12242 809.5335795999999,79.84701000000001 802.1318796,78.57719 794.7174795999999,77.31627 787.3013795999999,76.06344000000001 779.8931795999999,74.81712 772.5007796,73.57542000000001 765.1303796,72.33622 757.7867795999999,71.09718000000001 750.4728796,69.85577 743.1901796000001,68.60927000000001 735.9388796,67.35479000000001 728.7174796,66.08926000000001 721.5234796,64.80945 714.3531796,63.511900000000004 707.2014796,62.19297 700.0621795999999,60.84881000000001 692.9279796,59.47785000000001 685.7913795999999,58.08115000000001 678.6459795999999,56.660000000000004 671.4859796000001,55.215810000000005 664.3065796,53.75014 657.1038795999999,52.26474000000001 649.8747796,50.761590000000005 642.6169796,49.24289000000001 635.3294796,47.7111 628.0119796,46.16900000000001 620.6653796,44.61964000000002 613.2919796,43.06643 605.8950796,41.51304000000002 598.4791796,39.96345000000001 591.0499795999999,38.42098 583.6133795999999,36.888369999999995 576.1751796,35.36832000000001 568.7410796,33.86343000000001 561.3162796,32.37622 553.9060796,30.909090000000006 546.5154795999999,29.464320000000015 539.1488796,28.044050000000013 531.8107796,26.65028000000001 524.5049796,25.284870000000012 517.2351796,23.949510000000004 510.00457960000006,22.64573 502.8161796,21.37494000000001 495.67257959999995,20.138590000000008 488.5756796,18.938900000000004 481.52647959999996,17.777990000000003 474.52487959999996,16.657690000000002 467.5697796,15.579600000000013 460.6591796,14.545080000000013 453.79027959999996,13.555350000000004 446.95987959999997,12.611509999999996 440.1637796,11.714570000000009 433.3972796,10.865500000000011 426.65537959999995,10.065200000000004 419.93207959999995,9.314700000000002 413.22117959999997,8.615100000000012 406.5157796,7.967400000000012 399.8080796,7.373000000000005 393.09027960000003,6.831700000000012 386.35537959999994,6.34190000000001 379.59737959999995,5.901800000000009 372.81137959999995,5.510400000000004 365.99367959999995,5.1662000000000035 359.1415796,4.868400000000008 352.2536796,4.615899999999996 345.32997959999994,4.407899999999998 338.3718796,4.243500000000012 331.38227959999995,4.121600000000001 324.36567959999996,4.0412000000000035 317.3282796,4.001100000000008 310.2778796,4.0 303.2241796,4.0364 296.1782796,4.1089000000000055 289.1514796,4.218900000000005 282.1535796,4.368300000000005 275.19267959999996,4.559100000000001 268.2749796,4.792700000000011 261.4052796,5.070599999999999 254.58637960000001,5.394100000000009 247.8198796,5.764499999999998 241.10607960000002,6.183000000000007 234.4439796,6.650800000000004 227.83147960000002,7.1691000000000145 221.2657796,7.7393 214.7428796,8.362899999999996 208.2582796,9.0415 201.8064796,9.776899999999998 195.3819796,10.571200000000005 188.9823796,11.42625000000001 182.61047960000002,12.343410000000006 176.2744796,13.322890000000001 169.9869796,14.363800000000012 163.7650796,15.463910000000013 157.62847960000002,16.619529999999997 151.5988796,17.825609999999998 145.6982796,19.077690000000004 139.94197960000002,20.375380000000007 134.33427960000003,21.71999000000001 128.8709796,23.114120000000014 123.54157959999999,24.56164000000001 118.33177959999999,26.06772000000001 113.2241796,27.639020000000016 108.1991796,29.283900000000017 103.23476959999999,31.012900000000002 98.30677959999998,32.83662000000001 93.3980496,34.75222000000001 88.51551959999999,36.74408000000001 83.6921596,38.784670000000006 78.9821296,40.835480000000004 74.4500796,42.85570000000001 70.1510996,44.832620000000006 66.1063696,46.77235 62.3109096,48.685930000000006 58.746509599999996,50.58608000000001 55.3900396,52.48563000000001 52.2180496,54.39435 49.2114496,56.310140000000004 46.3566196,58.227520000000005 43.643579599999995,60.14103000000001 41.0647296,62.045300000000005 38.6139996,63.93518 36.2862696,65.80587 34.0769696,67.65295 31.981809600000002,69.47246000000001 29.996679600000004,71.26096000000001 28.1174096,73.01556 26.3364796,74.73651000000001 24.6437696,76.42596 23.0335296,78.08170000000001 21.502729600000002,79.69873000000001 20.0492596,81.27126000000001 18.670799600000002,82.79419000000001 17.3642696,84.26398 16.1258296,85.67888 14.9549096,87.03779 13.8566676,88.34006000000001 12.8325346,89.58784 11.880985599999999,90.78486000000001 10.9990826,91.93540000000002 10.1833396,93.04375 9.430189599999999,94.11399 8.7362266,95.14982 8.098318599999999,96.15461 7.513649600000001,97.13140000000001 6.979729600000001,98.08289 6.4943805999999995,99.01149000000001 6.055725600000001,99.91939 5.6621596,100.80855000000001 5.3123386,101.68076400000001 5.0051517,102.53764600000001 4.7397155,103.38069 4.5153555,104.21127800000001 4.3315993,105.030693 4.18817068,105.840145 4.0849869,106.640777 4.0221597000000004,107.433688 4.0,108.219937 4.0190264,109.000563 4.0799784,109.77659200000001 4.18383475,110.5490568 4.33181001,111.3189918 4.5241945999999995,112.086956 4.7599294,112.852801 5.0380959,113.616251 5.3580036,114.37694400000001 5.7191676000000005,115.134426 6.1212896,115.88813900000001 6.564248600000001,116.63740800000001 7.0480846,117.381422 7.5729966,118.11921600000001 8.139330600000001,118.849646 8.747576599999999,119.571352 9.3983636,120.282723 10.092453599999999,120.98184900000001 10.8307336,121.66646 11.6142046,122.33385000000001 12.443962599999999,122.98078000000001 13.3211786,123.60340000000001 14.2470516,124.19705 15.222759600000002,124.75615 16.249349600000002,125.27394000000001 17.3276596,125.74231 18.4592196,126.15496 19.647409600000003,126.51096000000001 20.8961496,126.81025000000001 22.2096696,127.05324 23.5925496,127.24109 25.049649600000002,127.37598 26.5859896,127.4616 28.2065396,127.50375 29.9158196,127.51125 31.7189796,127.49186 33.6243296,127.44498 35.641299599999996,127.36899 37.7799496,127.26263 40.050889600000005,127.12531000000001 42.4652096,126.95744 45.0343196,126.76099 47.7701496,126.54 50.6855696,126.30137 53.7957496,126.05569 57.1206896,125.81652000000001 60.6846796,125.58777 64.51382960000001,125.36648000000001 68.63513959999999,125.14746000000001 73.07476959999998,124.92239000000001 77.8552196,124.67848000000001 82.9916096,124.39844000000001 88.4893096,124.07574000000001 94.3403496,123.71561 100.52209959999999,123.32788000000001 107.00177959999999,122.92661000000001 113.7425796,122.52196 120.69897959999999,122.11508 127.81797959999999,121.70594 135.04547960000002,121.29383 142.3324796,120.87726 149.6408796,120.45393100000001 156.9465796,120.020807 164.2389796,119.578365 171.5140796,119.133037 178.7700796,118.691553 186.0074796,118.260402 193.2290796,117.845853 200.43937960000002,117.45400000000001 207.6453796,117.090698 214.8548796,116.758128 222.07557960000003,116.454468 229.3139796,116.177819 236.5758796,115.926387 243.8662796,115.698458 251.1890796,115.492366 258.5475796,115.306476 265.94387959999995,115.139156 273.3791796,114.98876600000001 280.85347959999996,114.85363500000001 288.3654796,114.732056 295.9128796,114.622273 303.4917796,114.522475 311.09687959999997,114.431042 318.7224796,114.347656 326.36297959999996,114.272436 334.0136796,114.20547400000001 341.67007959999995,114.14683600000001 349.3283796,114.09656600000001 356.98547959999996,114.054687 364.63877959999996,114.021208 372.2863796,113.996122 379.9269796,113.979416 387.56007959999994,113.971069 395.18547959999995,113.971057 402.8038796,113.979358 410.41627959999994,113.99585300000001 418.0243796,114.019694 425.62947959999997,114.049711 433.2328796,114.084739 440.83597960000003,114.123619 448.4397796,114.165192 456.0452796,114.208301 463.6535796,114.25178700000001 471.2652796,114.29449000000001 478.88137959999995,114.335244 486.5022796,114.372877 494.1286796,114.406214 501.7609796,114.43407 509.3995795999999,114.455352 517.0445796,114.47006800000001 524.6961795999999,114.478953 532.3545796,114.482757 540.0194796,114.482234 547.6908796,114.478143 555.3683796,114.47124500000001 563.0516795999999,114.46230800000001 570.7401796,114.452101 578.4333796,114.441401 586.1304796,114.43098300000001 593.8305796,114.421628 601.5328795999999,114.414118 609.2362796,114.40917400000001 616.9395796,114.40675300000001 624.6418795999999,114.406271 632.3423796,114.40713600000001 640.0404796,114.408754 647.7356796,114.410533 655.4277796,114.411883 663.1166796,114.412214 670.8024796,114.410938 678.4852796,114.40746800000001 686.1656796,114.40121900000001 693.8440796,114.391605 701.5213795999999,114.37804100000001 709.1984795999999,114.359964 716.8761796,114.33713700000001 724.5554796,114.309551 732.2366796,114.277202 739.9199796,114.240086 747.6053796,114.198198 755.2925796,114.151539 762.9807796,114.100108 770.6691795999999,114.04391100000001 778.3566796,113.98295900000001 786.0415796,113.917264 793.7223796,113.84685 801.3969796,113.77174400000001 809.0631796,113.692024 816.7185796,113.60836 824.3613796000001,113.52184700000001 831.9898796,113.43357400000001 839.6031796,113.344617 847.2004796,113.256033 854.7816796,113.168862 862.3468796000001,113.08412600000001 869.8965796,113.00283 877.4318795999999,112.92596400000001 884.9539796,112.854506 892.4644796,112.789421 899.9655796000001,112.73167000000001 907.4593796,112.68215500000001 914.9456796,112.63980400000001 922.4102796,112.60118700000001 929.8218796,112.562849 937.1349796,112.52157600000001 944.2943796,112.474579 951.2431796,112.419694 957.9299795999999,112.355587 964.3173796,112.282849 970.3873796,112.203275 976.1387796,112.118481 981.5814796,112.02981700000001 986.7319795999999,111.93837230000001 991.6098795999999,111.84500440000001 996.2359796000001,111.7503794 1000.6305795999999,111.6550084 1004.2693796,111.572" stroke="black" stroke-width="2.0" /></svg>