<?xml version="1.0" encoding="utf-8" ?>
<svg baseProfile="full" height="134.85493" version="1.1" width="1012.4046944" xmlns="http://www.w3.org/2000/svg" xmlns:ev="http://www.w3.org/2001/xml-events" xmlns:xlink="http://www.w3.org/1999/xlink"><defs /><polygon fill="none" points="1004.4046944,109.97489999999999 1000.9100944,108.950662 996.6962944,107.723562 992.2685944000001,106.44357199999999 987.6090944,105.10688499999999 982.6991944,103.709823 977.5210944,102.249152 972.0591944,100.72255 966.3027944,99.12929 960.2493944,97.47111 953.9089944,95.75331 947.3083944,93.98545999999999 940.4886944000001,92.18037 933.4984944,90.3522 926.3878944,88.51474999999999 919.2017944,86.67992 911.9749944000001,84.85643 904.7285944,83.04924 897.4692944000001,81.25949 890.1949944,79.48622999999999 882.9029944,77.72842 875.5912944,75.98516 868.2579944,74.25568 860.9019944,72.53934 853.5225944,70.83563 846.1195944000001,69.14414 838.6933944,67.46461 831.2450944000001,65.79687 823.7760944,64.14089 816.2887944,62.49674 808.7858944000001,60.86462 801.2709944000001,59.24482999999999 793.7478944000001,57.638099999999994 786.2203944,56.04564 778.6915944,54.468579999999996 771.1641944,52.90792 763.6403944,51.36455 756.1220944,49.83922 748.6102944,48.33258 741.1057944,46.84513999999999 733.6088944,45.377329999999986 726.1191944000001,43.929479999999984 718.6361944,42.501810000000006 711.1586944000001,41.09448999999999 703.6849944,39.70757999999999 696.2131944000001,38.34106 688.7411944,36.99471 681.2674944,35.668350000000004 673.7908944000001,34.36188 666.3106944,33.07531 658.8265944000001,31.808699999999988 651.3387944,30.56219999999999 643.8478944,29.336039999999997 636.3547944,28.130499999999998 628.8610944000001,26.94592 621.3685944,25.78268 613.8795944000001,24.641229999999993 606.3968944000001,23.52203 598.9235944,22.425600000000003 591.4629944000001,21.35302999999999 584.0176944000001,20.30578 576.5898943999999,19.285200000000003 569.1811944000001,18.292500000000004 561.7925944000001,17.328779999999995 554.4243944000001,16.395030000000006 547.0763944,15.492159999999998 539.7480944,14.620979999999989 532.4381944,13.78224999999999 525.1451944,12.976669999999999 517.8668944,12.20490000000001 510.60089439999996,11.467590000000001 503.34419439999994,10.765399999999985 496.09349439999994,10.098699999999994 488.8454944,9.467399999999998 481.59769439999997,8.870900000000006 474.3477944,8.3091 467.09409439999996,7.781700000000001 459.8354944,7.288499999999999 452.5712944,6.829399999999993 445.3012944,6.4044999999999845 438.02589439999997,6.013599999999997 430.7456944,5.656800000000004 423.46229439999996,5.334099999999992 416.17739439999997,5.04549999999999 408.8933944,4.790999999999997 401.6130944,4.570599999999999 394.33979439999996,4.384399999999999 387.0767944,4.233400000000003 379.8269944,4.118600000000001 372.59269439999997,4.0408999999999935 365.3760944,4.001099999999994 358.1786944,4.0 351.00169439999996,4.038399999999996 343.8461944,4.116899999999987 336.7123944,4.236199999999997 329.60069439999995,4.396999999999991 322.5106944,4.599900000000005 315.4419944,4.845699999999994 308.3937944,5.134900000000002 301.36489439999997,5.468400000000003 294.3541944,5.846599999999995 287.36029439999993,6.269499999999994 280.3822944,6.737099999999998 273.41929439999996,7.249499999999983 266.4704944,7.8067999999999955 259.5351944,8.408899999999988 252.61279439999998,9.055999999999997 245.7028944,9.748199999999997 238.80519440000003,10.485599999999991 231.9191944,11.26822 225.04499440000004,12.096310000000003 218.18229440000002,12.969939999999994 211.3313944,13.889240000000001 204.49219440000002,14.854320000000001 197.66509440000002,15.865439999999992 190.85289440000003,16.923969999999997 184.06409440000002,18.030889999999985 177.31349440000002,19.185819999999993 170.6212944,20.386859999999984 164.01199440000002,21.63051 157.51269440000002,22.911739999999995 151.1511944,24.224279999999993 144.9531944,25.563639999999992 138.93279440000003,26.930459999999997 133.08919440000003,28.32764999999999 127.4116944,29.7598 121.88259439999999,31.232969999999995 116.48019439999999,32.75466 111.17969439999999,34.33403999999999 105.95389440000001,35.98231 100.7726144,37.71297999999999 95.60732440000001,39.53013 90.4579844,41.41749999999999 85.36524440000001,43.34237999999999 80.4033344,45.257639999999995 75.66035439999999,47.112260000000006 71.20817439999999,48.88754 67.06848439999999,50.59636 63.2248344,52.257419999999996 59.6434144,53.890609999999995 56.2867244,55.51463 53.1203644,57.14611 50.1150344,58.79524 47.2497244,60.45867 44.5122344,62.12949999999999 41.8961444,63.79953 39.3984944,65.45976999999999 37.018164399999996,67.10102 34.7546544,68.71443 32.607264400000005,70.29202 30.5745744,71.82699 28.6541844,73.31401 26.841954400000002,74.75228999999999 25.131474400000002,76.14975999999999 23.5168044,77.51344 21.9923844,78.84822 20.5527844,80.15749 19.1925544,81.44362 17.9062344,82.70832999999999 16.6884744,83.95286999999999 15.5349444,85.17763 14.446484400000001,86.37959 13.423883400000001,87.55617 12.4662624,88.7064 11.571776400000001,89.83033999999999 10.738118400000001,90.92865 9.9628224,92.00234 9.2434314,93.05264 8.577607400000002,94.08081999999999 7.9631784,95.08818 7.3981674,96.07601 6.8808004,97.04554999999999 6.4095064,97.99798 5.9829144,98.93441999999999 5.5998394000000005,99.85594 5.2592795,100.76353 4.9604076,101.658157 4.7025623,102.540716 4.48524354,103.412064 4.30810867,104.273021 4.1709703000000005,105.12437 4.0737961,105.966865 4.0167106,106.801238 4.0,107.628204 4.0241184,108.448464 4.0896979,109.26271299999999 4.1975622,110.071645 4.34874318,110.8759638 4.5443467,111.6763182 4.7840438,112.472668 5.0667165999999995,113.264494 5.3914373,114.05118999999999 5.7574594,114.83206 6.1642014,115.606307 6.6112264,116.373021 7.0982364,117.131166 7.6250544,117.879559 8.191621399999999,118.616851 8.7979804,119.34150299999999 9.4442774,120.051752 10.1307434,120.74557999999999 10.8576934,121.42067 11.6255094,122.07436 12.434631399999999,122.70357 13.2855364,123.30472999999999 14.1787174,123.87373 15.1146544,124.40576 16.093764399999998,124.89520999999999 17.116344400000003,125.33555 18.1828744,125.72055 19.2951044,126.04885999999999 20.4552444,126.32057999999999 21.665654399999998,126.536 22.928774399999998,126.69575 24.2471344,126.80087 25.623214400000002,126.85306 27.0593544,126.85493 28.557524400000002,126.81031999999999 30.1190244,126.72479 31.7460644,126.60219 33.4437844,126.44107 35.2181244,126.23955 37.0755944,125.99602999999999 39.0233144,125.70931 41.0691044,125.37888 43.221554399999995,125.00518 45.490244399999995,124.58995 47.8859644,124.13677 50.42084439999999,123.65169 53.1088944,123.14395999999999 55.9671844,122.62662 59.01472439999999,122.10669999999999 62.2705444,121.58095 65.7545144,121.043921 69.4864244,120.487794 73.4846344,119.901534 77.7641544,119.26983299999999 82.3345344,118.573082 87.2006844,117.80415599999999 92.3617144,116.971542 97.8095644,116.089984 103.53306439999999,115.18006 109.5241944,114.26465499999999 115.77559439999999,113.35242 122.27249439999999,112.44551899999999 128.9928944,111.54572879999999 135.9078944,110.654164 142.9840944,109.771002 150.18579440000002,108.895271 157.4782944,108.024856 164.83119440000002,107.160752 172.2187944,106.308427 179.6203944,105.47296 187.0209944,104.658625 194.41179440000002,103.868875 201.7900944,103.106391 209.15919440000002,102.373046 216.5260944,101.668483 223.89729440000002,100.99123 231.2787944,100.33998 238.6751944,99.71358 246.0903944,99.11101 253.52759440000003,98.53137 260.98859439999995,97.97385 268.4744944,97.43773999999999 275.9852944,96.92237 283.5199944,96.42716 291.07639439999997,95.95154 298.6510944,95.495 306.2394944,95.05703 313.8361944,94.63753 321.4358944,94.23698999999999 329.0343944,93.85588999999999 336.6283944,93.49462 344.2155944,93.15349 351.7944944,92.83277 359.3649944,92.53263 366.92739439999997,92.25323 374.4832944,91.99472 382.03499439999996,91.75721 389.5859944,91.54081 397.1403944,91.34567 404.7034944,91.17194 412.2812944,91.01951 419.8797944,90.88725 427.5036944,90.7739 435.15689439999994,90.67823 442.8417944,90.59903 450.5595944,90.53509 458.3101944,90.48516 466.0918944,90.44799 473.90159439999996,90.42227 481.73459439999993,90.40665 489.58459439999996,90.39972999999999 497.44329439999996,90.40006 505.3012944,90.40615 513.1474944,90.41741999999999 520.9716944,90.43558999999999 528.7656944,90.46271999999999 536.5233944,90.50076 544.2404944,90.55161 551.9150944,90.61708999999999 559.5465944,90.69895 567.1364944000001,90.79891 574.6872944,90.91865 582.2033944000001,91.05987999999999 589.6902944,91.2243 597.1546944,91.41372 604.6047944000001,91.63 612.0495944,91.87428 619.4986944000001,92.14483999999999 626.9601944000001,92.43943 634.4411944000001,92.75583999999999 641.9479944000001,93.09183999999999 649.4855944,93.44515 657.0580944000001,93.81342 664.6681944000001,94.19417999999999 672.3176944,94.58485999999999 680.0066944000001,94.9827 687.7343944,95.38480999999999 695.4977944000001,95.78811 703.2928944,96.18936 711.1135944,96.58570999999999 718.9531944,96.97712 726.8050944000001,97.36464 734.6634944,97.74938999999999 742.5231944000001,98.13252 750.3797944,98.51523 758.2295944000001,98.89874999999999 766.0694944,99.28434 773.8971944000001,99.67328 781.7113944,100.06687 789.5111944000001,100.46643 797.2964944,100.87331 805.0679944,101.288868 812.8267944,101.713892 820.5746944,102.147447 828.3129944000001,102.588291 836.0431944,103.035189 843.7666944000001,103.486918 851.4846944000001,103.942255 859.1983944,104.39998399999999 866.9087944,104.85888899999999 874.6170944,105.317752 882.3240944,105.775354 890.0307944,106.230474 897.7379944,106.681884 905.4462944,107.128351 913.1549944000001,107.568829 920.8502944,108.00229399999999 928.4984944,108.426779 936.0478944,108.839468 943.4354944,109.237105 950.5953944000001,109.616517 957.4689944,109.975128 964.0141944000001,110.31142129999999 970.2119944000001,110.6252105 976.0632944000001,110.9172957 981.5813944,111.18904959 986.7866944,111.44210629999999 991.7025944,111.6781591 996.3529944000001,111.89884289999999 1000.7611944,112.10567449999999 1004.4046944,112.2749" stroke="black" stroke-width="2.0" /></svg>