<?xml version="1.0" encoding="utf-8" ?>
<svg baseProfile="full" height="175.084392" version="1.1" width="1013.083133" xmlns="http://www.w3.org/2000/svg" xmlns:ev="http://www.w3.org/2001/xml-events" xmlns:xlink="http://www.w3.org/1999/xlink"><defs /><polygon fill="none" points="1005.083133,159.7595 1002.037933,158.609866 998.352933,157.238009 994.463433,155.812875 990.347933,154.330366 985.983033,152.786389 981.3434329999999,151.177162 976.403633,149.49972 971.139733,147.7527 965.5330329999999,145.93756 959.575733,144.06017 953.278533,142.13258 946.6781329999999,140.17127 939.834333,138.19118 932.818533,136.20619 925.702833,134.22704 918.5488330000001,132.25948 911.400833,130.30333000000002 904.281533,128.35250000000002 897.193433,126.3983 890.1277329999999,124.43805 883.075733,122.47082 876.0300329999999,120.49588 868.984133,118.51281 861.932733,116.52141 854.871133,114.52176 847.796033,112.51420999999999 840.704633,110.49937 833.5956329999999,108.47819000000001 826.468333,106.45190000000001 819.323233,104.42206 812.1620330000001,102.39057 804.987433,100.35965999999999 797.803333,98.33184 790.6141329999999,96.30953000000001 783.423833,94.29499 776.235733,92.29028000000001 769.052833,90.2973 761.877533,88.31777000000001 754.7115329999999,86.35323000000001 747.556133,84.40505 740.4118329999999,82.47442 733.279033,80.56238 726.157233,78.66982 719.0457329999999,76.79748000000001 711.943033,74.94596 704.8475329999999,73.11576000000001 697.7568329999999,71.30709 690.668933,69.51941000000001 683.581833,67.75196 676.493833,66.00408 669.4030329999999,64.27515000000001 662.3081329999999,62.56461 655.2077330000001,60.87194000000001 648.100433,59.19670000000001 640.9851329999999,57.53840000000001 633.860933,55.896699999999996 626.7268329999999,54.27120000000001 619.582233,52.661699999999996 612.426333,51.06790000000001 605.258833,49.48949999999999 598.0793329999999,47.9264 590.887533,46.3784 583.683533,44.84530000000001 576.467733,43.3271 569.240633,41.823899999999995 562.003333,40.3356 554.757033,38.86240000000001 547.5032329999999,37.40440000000001 540.243933,35.961900000000014 532.981133,34.53500000000001 525.717333,33.1242 518.455433,31.729600000000005 511.198433,30.351700000000022 503.949733,28.990899999999982 496.712633,27.647800000000018 489.49043299999994,26.325099999999992 482.285533,25.02510000000001 475.09973299999996,23.75030000000001 467.934333,22.502899999999983 460.789933,21.284999999999997 453.666433,20.0985 446.56333299999994,18.945099999999996 439.479633,17.826600000000013 432.413833,16.744399999999985 425.363833,15.699999999999989 418.327133,14.694900000000018 411.300833,13.7303 404.28153299999997,12.807800000000015 397.265433,11.928300000000007 390.249133,11.092199999999991 383.229833,10.299599999999998 376.205333,9.550700000000006 369.174533,8.8459 362.136733,8.185699999999997 355.09223299999996,7.570799999999991 348.042033,7.0017 340.98763299999996,6.479099999999988 333.931633,6.003600000000006 326.877233,5.57589999999999 319.828333,5.196699999999993 312.78953299999995,4.866299999999995 305.76623299999994,4.585200000000015 298.764133,4.354000000000013 291.790333,4.176199999999994 284.851433,4.056700000000006 277.95323299999995,4.0 271.100833,4.010300000000001 264.29863299999994,4.091399999999993 257.550033,4.247000000000014 250.858033,4.480099999999993 244.22483300000002,4.793900000000008 237.65193299999999,5.191100000000006 231.140633,5.6740999999999815 224.69143300000002,6.245499999999993 218.30463300000002,6.907500000000027 211.979933,7.662000000000006 205.71703300000001,8.511300000000006 199.515133,9.4572 193.37493300000003,10.501800000000003 187.29753300000002,11.64670000000001 181.284433,12.893900000000002 175.336733,14.245000000000005 169.455533,15.701899999999995 163.641933,17.266100000000023 157.897033,18.939400000000006 152.22193299999998,20.723399999999998 146.618033,22.619 141.087633,24.6259 135.63263300000003,26.744100000000003 130.25483300000002,28.973600000000005 124.955733,31.314600000000013 119.73663300000001,33.76750000000001 114.59873300000001,36.333200000000005 109.543033,39.0125 104.57047299999999,41.8066 99.681773,44.716300000000004 94.876243,47.7394 90.15098300000001,50.8746 85.500983,54.1228 80.91929300000001,57.4876 76.397023,60.97646 71.928263,64.60262 67.525063,68.37003 63.221423,72.26093 59.068872999999996,76.23363 55.125923,80.22697 51.444283,84.17065000000001 48.051023,88.00356 44.932852999999994,91.70672 42.055763,95.29199 39.380863000000005,98.78637 36.870262999999994,102.22512 34.487973,105.65098 32.197953,109.11832000000001 29.959223,112.70487 27.701183,116.54138 25.290733,120.74536 22.763883,125.03405000000001 20.390813,128.80358 18.318663,131.8592 16.518223,134.34696 14.951580000000002,136.42804 13.586155000000002,138.21974 12.385121999999999,139.80119 11.319218,141.22414 10.366674,142.52333000000002 9.511298,143.72301 8.740885,144.84072 8.046081000000001,145.88955 7.419620999999999,146.87956 6.855799,147.81861 6.350104,148.71303 5.898962,149.56792000000002 5.4995529,150.387529 5.1496775,151.175395 4.8476628,151.934513 4.5922932,152.667443 4.3827639000000005,153.376395 4.2186498,154.063289 4.0998898,154.729814 4.026783,155.377458 4.0,156.00755 4.020603,156.62128 4.0900859,157.219726 4.2104321,157.80387100000002 4.3841945,158.37462 4.6146099,158.9328185 4.9057581,159.4792629 5.2626703,160.0147308 5.6886858,160.5401932 6.185053,161.056732 6.753768,161.565269 7.3977889999999995,162.066564 8.121164,162.5612 8.92921,163.04955900000002 9.828759999999999,163.531754 10.828489000000001,164.00751400000001 11.939313,164.475976 13.174803,164.93529 14.551384,165.381896 16.087563000000003,165.809106 17.799843000000003,166.204347 19.702742999999998,166.547974 21.835623,166.821159 24.250973,167.004577 27.006003,167.084392 30.160333,167.069103 33.780963,166.992871 37.884592999999995,166.846698 42.396933000000004,166.605039 47.163242999999994,166.247304 52.021893000000006,165.76112 56.887353000000004,165.135655 61.775953,164.358431 66.737173,163.420929 71.804063,162.31445 76.984803,161.034105 82.251353,159.5857287 87.535563,157.984827 92.76904300000001,156.245056 97.911703,154.375971 102.952523,152.37954 107.905733,150.247948 112.805833,147.97076 117.68943300000001,145.53972 122.588333,142.94551 127.53023300000001,140.17815000000002 132.539333,137.22799 137.635133,134.08722 142.83113300000002,130.75238000000002 148.130633,127.22798 153.52293300000002,123.53144 158.978533,119.69783000000001 164.459733,115.77661 169.933233,111.82007 175.373233,107.87705 180.763033,103.98930000000001 186.095233,100.18973 191.370833,96.50237000000001 196.597333,92.94348 201.787533,89.52304000000001 206.958033,86.2462 212.12153300000003,83.11059 217.28373299999998,80.10898 222.44923300000002,77.23518 227.622533,74.48411 232.807733,71.85168 238.008433,69.3346 243.228333,66.93034000000002 248.470933,64.63698 253.739633,62.45325000000001 259.037633,60.37839000000001 264.36833299999995,58.4122 269.735033,56.55499999999999 275.141233,54.807500000000005 280.59023299999996,53.17100000000001 286.085633,51.6473 291.6313329999999,50.2388 297.230933,48.9483 302.888833,47.7792 308.609433,46.734899999999996 314.397833,45.8142 320.259433,45.013000000000005 326.19933299999997,44.327900000000014 332.222333,43.75550000000001 338.33303299999994,43.292500000000004 344.53523299999995,42.935500000000005 350.83233299999995,42.681200000000004 357.227233,42.525800000000004 363.721433,42.4653 370.31553299999996,42.4953 377.00843299999997,42.61070000000001 383.797333,42.8057 390.677333,43.0737 397.641033,43.40690000000001 404.677933,43.7967 411.775733,44.235200000000006 418.922433,44.7204 426.107033,45.2513 433.319033,45.826800000000006 440.54873299999997,46.4452 447.787333,47.10510000000001 455.027533,47.80460000000001 462.26323299999996,48.542 469.489533,49.3155 476.703133,50.1233 483.90223299999997,50.963899999999995 491.086133,51.835800000000006 498.25573299999996,52.737700000000004 505.413133,53.668400000000005 512.5614330000001,54.6271 519.703533,55.6135 526.842133,56.6272 533.9796329999999,57.66810000000001 541.118033,58.735600000000005 548.259133,59.82965999999999 555.4045329999999,60.949799999999996 562.555433,62.09572 569.7128329999999,63.26701 576.877433,64.46328 584.049733,65.68404000000001 591.229833,66.92881000000001 598.4176329999999,68.19701 605.6127329999999,69.48802 612.8144329999999,70.80113000000001 620.022333,72.13553 627.2359329999999,73.49037 634.454933,74.86481 641.678933,76.258 648.9077329999999,77.66911999999999 656.141133,79.0973 663.378933,80.54172 670.621133,82.00153 677.867533,83.47589 685.118233,84.96399000000001 692.3733329999999,86.465 699.632933,87.97809 706.897233,89.50248 714.1662329999999,91.03787 721.439533,92.58477 728.716333,94.14363 735.9954329999999,95.71486999999999 743.2749329999999,97.29876 750.5529329999999,98.89551 757.8269329999999,100.5052 765.094033,102.12783 772.350933,103.76325 779.593933,105.41122000000001 786.819133,107.07140000000001 794.0221329999999,108.74331000000001 801.198533,110.42636999999999 808.343433,112.11983000000001 815.4528329999999,113.8214 822.5245329999999,115.52770000000001 829.5585329999999,117.23582 836.556433,118.94338 843.521733,120.64848 850.459333,122.34970000000001 857.375633,124.04605000000001 864.2787329999999,125.73694 871.1781329999999,127.4222 878.084733,129.10201 885.011433,130.77691 891.973133,132.44783 898.987133,134.11613 906.073833,135.78359 913.2545329999999,137.45446 920.534933,139.13559 927.832533,140.81496 935.106233,142.49051 942.403633,144.18062 949.562033,145.85455000000002 956.447033,147.48612 962.972533,149.05624 969.094033,150.550621 974.805233,151.963635 980.1236329999999,153.295835 985.0789329999999,154.5513 989.7050330000001,155.735749 994.0355329999999,156.855401 998.1019329999999,157.91635300000002 1001.9325329999999,158.9242816 1005.083133,159.7595" stroke="black" stroke-width="2.0" /></svg>