<?xml version="1.0" encoding="utf-8" ?>
<svg baseProfile="full" height="82.92848794" version="1.1" width="1012.03123592" xmlns="http://www.w3.org/2000/svg" xmlns:ev="http://www.w3.org/2001/xml-events" xmlns:xlink="http://www.w3.org/1999/xlink"><defs /><polygon fill="none" points="1004.03123592,74.87857 1001.4575359199999,74.1384978 998.34403592,73.26126 995.05803592,72.356774 991.5799359199999,71.423254 987.8878359199999,70.458985 983.9572359199999,69.46249399999999 979.76133592,68.43283 975.27223592,67.370012 970.46333592,66.27571999999999 965.31333592,65.154281 959.81323592,64.01392999999999 953.97653592,62.868129999999994 947.91483592,61.746269999999996 941.9643359199999,60.70469 936.10023592,59.727349999999994 930.25993592,58.794039999999995 924.39653592,57.888999999999996 918.47513592,56.999159999999996 912.47163592,56.113189999999996 906.37403592,55.221129999999995 900.2293359199999,54.321329999999996 894.1523359199999,53.42708 888.1332359200001,52.537319999999994 882.15623592,51.65015 876.20743592,50.76393999999999 870.27523592,49.877289999999995 864.34923592,48.98902 858.42073592,48.09815 852.48213592,47.203849999999996 846.5269359199999,46.30547 840.54983592,45.402539999999995 834.54663592,44.49476 828.51453592,43.581999999999994 822.4516359200001,42.664359999999995 816.3577359199999,41.742149999999995 810.23393592,40.81589999999999 804.08323592,39.886419999999994 797.9259359199999,38.95733 791.78423592,38.03312999999999 785.65363592,37.114439999999995 779.52983592,36.20186999999999 773.40853592,35.29611 767.28643592,34.397929999999995 761.1604359199999,33.508179999999996 755.0279359199999,32.62781 748.88673592,31.757839999999995 742.73513592,30.899389999999997 736.57193592,30.053659999999994 730.39653592,29.221959999999996 724.22143592,28.40733 718.05443592,27.612039999999993 711.89453592,26.83722999999999 705.7403359199999,26.083919999999992 699.5899359199999,25.352939999999997 693.44153592,24.643539999999994 687.2931359199999,23.95411 681.14353592,23.283099999999997 674.99123592,22.62899999999999 668.83513592,21.990329999999993 662.67453592,21.365629999999996 656.5084359199999,20.753500000000003 650.33663592,20.152519999999996 644.1586359199999,19.561329999999998 637.97443592,18.978539999999995 631.7841359199999,18.402799999999992 625.5881359199999,17.832789999999996 619.38683592,17.267159999999997 613.1810359199999,16.704610000000002 606.97173592,16.14381999999999 600.7605359199999,15.583609999999993 594.54983592,15.024289999999993 588.3388359200001,14.467210000000001 582.12713592,13.913779999999996 575.91663592,13.365659999999998 569.7084359199999,12.824370000000002 563.5028359199999,12.291399999999996 557.30023592,11.768239999999992 551.10083592,11.256329999999998 544.90473592,10.757109999999997 538.7118359199999,10.271999999999991 532.5219359199999,9.802399999999992 526.3348359199999,9.349710000000002 520.14993592,8.915299999999988 513.96683592,8.500550000000004 507.78473591999995,8.106809999999996 501.60273592,7.735419999999991 495.42013592,7.38682 489.23613592,7.060239999999993 483.05013592,6.754859999999994 476.86173591999994,6.469859999999997 470.67043591999993,6.204449999999994 464.47603591999996,5.957809999999995 458.27823592,5.729179999999985 452.07713592,5.517749999999992 445.87263592,5.322760000000002 439.66493592,5.143429999999995 433.45433591999995,4.97896999999999 427.24113592,4.828609999999998 421.02583591999996,4.6915599999999955 414.80893592,4.567040000000006 408.59123592,4.454270000000008 402.37353591999994,4.352450000000005 396.15663592,4.261430000000004 389.94133592,4.182159999999996 383.72833592,4.115740000000002 377.51813591999996,4.0632499999999965 371.31113591999997,4.025759999999991 365.10753592,4.004319999999993 358.90763591999996,4.0 352.71123592,4.013859999999994 346.51833591999997,4.046939999999992 340.32863592,4.100290000000001 334.14183591999995,4.174969999999988 327.95733592,4.27203999999999 321.77453592,4.392570000000006 315.59273591999994,4.537629999999993 309.41093591999993,4.708319999999986 303.22823592,4.905760000000001 297.04363592,5.130989999999997 290.85623591999996,5.384839999999997 284.66553591999997,5.668109999999999 278.47143592,5.981569999999991 272.27413592,6.326030000000003 266.07393592,6.702249999999992 259.87173592,7.110979999999998 253.66863592,7.552929999999989 247.46603592,8.02879 241.26573592,8.539169999999984 235.06963592,9.084639999999993 228.88013592,9.665689999999998 222.70003592,10.28273 216.53213592,10.936069999999994 210.37973592,11.62592 204.24623592,12.352399999999989 198.13513592,13.115509999999993 192.04923592,13.915419999999997 185.98843592,14.752639999999992 179.94983592,15.62807999999999 173.92833592,16.543120000000002 167.91593591999998,17.499699999999997 161.90223592,18.500459999999997 155.87403592,19.548859999999998 149.81503591999999,20.649250000000002 143.71183592,21.804579999999994 137.64633591999998,22.99825 131.64583592,24.222519999999996 125.69353592,25.47846 119.76343591999999,26.76961 113.82023592,28.102309999999996 107.81783592000001,29.48635999999999 101.78759592,30.914209999999997 95.93204592,32.343489999999996 90.24366592000001,33.78963999999999 84.64338592,35.28672999999999 78.99082592,36.890409999999996 73.18068592,38.65442 67.74493591999999,40.418549999999996 62.558615919999994,42.207719999999995 57.27659592,44.13812 51.659285919999995,46.31084 47.01257592,48.191629999999996 43.10503592,49.81896 39.600355920000005,51.30601 36.25280592,52.74445 32.793975919999994,54.242889999999996 28.56709592,56.080239999999996 24.90023592,57.67496 22.09366592,58.904219999999995 19.00085592,60.27346 14.242035920000001,62.4175 11.763140920000001,63.59086 10.077938920000001,64.44172999999999 8.78962692,65.138887 7.753196920000001,65.743651 6.8992289200000005,66.285405 6.188806919999999,66.78082599999999 5.598026920000001,67.240462 5.11143792,67.671527 4.71895942,68.079185 4.41412402,68.467366 4.19324332,68.839154 4.05494478,69.197051 4.0,69.54320299999999 4.031441789,69.87946699999999 4.15313122,70.207707 4.3647686199999995,70.53011099999999 4.66695452,70.848773 5.06297892,71.16571499999999 5.55919792,71.48299899999999 6.16601292,71.802945 6.899667920000001,72.12837499999999 7.78542192,72.462925 8.86495892,72.811976 10.21335292,73.184421 11.98939092,73.597698 14.62859592,74.0930348 19.70736592,74.7273447 23.17614592,74.91610562 26.67772592,74.92848794 31.64714592,74.81111082999999 35.69022592,74.6946236 39.497485919999995,74.568383 43.463505919999996,74.4163391 47.91326592,74.21612619999999 53.27322592,73.92485239999999 59.256325919999995,73.524416 64.73352592,73.099637 70.21378592,72.63934599999999 75.99813592,72.138711 82.08481592,71.622382 88.02260591999999,71.13888299999999 93.95531592,70.668717 99.99456592,70.195593 106.17583592,69.70899899999999 112.31483592,69.219196 118.38363592,68.730288 124.42423592,68.241143 130.46883592,67.751314 136.54113592000002,67.26103 142.65693592,66.771233 148.82413592,66.283643 155.02623592,65.801976 161.20043592000002,65.33284 167.35423592,64.87588 173.49933592000002,64.43025 179.64523592,63.995369999999994 185.79893592,63.570879999999995 191.96533592,63.15661 198.14693592,62.75257 204.34423592,62.35897 210.55523592,61.97615999999999 216.77703592,61.60473999999999 222.99933592,61.245729999999995 229.21713592,60.89977999999999 235.43263592,60.56713 241.64773592,60.248039999999996 247.86423592,59.942809999999994 254.08343592,59.65174 260.30663591999996,59.37517999999999 266.53473591999995,59.11351 272.76233592,58.867329999999995 278.98513591999995,58.63719 285.20273592,58.42341 291.41543591999994,58.22635 297.62333592,58.04630999999999 303.82713592,57.88363 310.02763591999997,57.738479999999996 316.22573592,57.61054 322.42213591999996,57.499309999999994 328.61763591999994,57.40432 334.81293592,57.325109999999995 341.00863591999996,57.26121 347.20513592,57.21218 353.40293592,57.177569999999996 359.60243591999995,57.156949999999995 365.80383592,57.14986999999999 372.0074359199999,57.155899999999995 378.21343592,57.1746 384.42183592,57.20554 390.63263592,57.24829 396.84593592,57.302409999999995 403.06133592,57.367459999999994 409.27883591999995,57.44297999999999 415.49823592,57.52831 421.71923591999996,57.62272999999999 427.94173592,57.72552999999999 434.16553592,57.835969999999996 440.39053592,57.95334 446.61653592,58.07688999999999 452.84353591999997,58.205909999999996 459.07133591999997,58.339659999999995 465.29983591999996,58.477419999999995 471.52893592,58.61843999999999 477.75863592,58.762 483.98883591999993,58.90736999999999 490.21933592,59.05382 496.45033592,59.200599999999994 502.68163591999996,59.34699 508.91333591999995,59.492349999999995 515.14533592,59.63681 521.37753592,59.780829999999995 527.60983592,59.92489 533.84233592,60.06945999999999 540.07473592,60.215019999999996 546.30693592,60.362049999999996 552.53883592,60.51101 558.77043592,60.66238 565.00133592,60.816629999999996 571.23143592,60.97423 577.46053592,61.13565 583.68853592,61.301359999999995 589.9150359199999,61.47183 596.13993592,61.647529999999996 602.36293592,61.82890999999999 608.58373592,62.01638 614.80213592,62.209779999999995 621.0180359199999,62.40866 627.23153592,62.612579999999994 633.44253592,62.82106999999999 639.6514359199999,63.033699999999996 645.85843592,63.250029999999995 652.06413592,63.469629999999995 658.26893592,63.69208 664.47353592,63.91694 670.6786359199999,64.14382 676.8852359199999,64.37227999999999 683.09423592,64.60194 689.3068359199999,64.83238 695.5241359199999,65.06320699999999 701.7475359199999,65.294021 707.97663592,65.524373 714.19943592,65.75356099999999 720.4123359199999,65.981327 726.61503592,66.20752999999999 732.80753592,66.432048 738.99023592,66.654777 745.1640359200001,66.87562799999999 751.33053592,67.09453199999999 757.49133592,67.31143 763.64883592,67.526281 769.80573592,67.739055 775.96513592,67.949732 782.1306359199999,68.158306 788.3064359199999,68.364779 794.49713592,68.569164 800.70793592,68.77148 806.93163592,68.971352 813.12793592,69.167537 819.2891359199999,69.36007099999999 825.4134359199999,69.54917599999999 831.50063592,69.735124 837.55253592,69.918227 843.57193592,70.098834 849.5635359199999,70.277322 855.53303592,70.45409699999999 861.4873359200001,70.62959599999999 867.4349359199999,70.804283 873.38543592,70.978659 879.3500359199999,71.153268 885.34183592,71.328706 891.3757359199999,71.505639 897.46973592,71.684822 903.64413592,71.86711 909.82653592,72.050568 915.89663592,72.231535 921.86123592,72.41003099999999 927.74293592,72.586568 933.57543592,72.76201499999999 939.40353592,72.937589 945.28563592,73.114926 951.3005359199999,73.296273 957.4458359199999,73.48142399999999 963.30303592,73.657715 968.7838359199999,73.822513 973.88893592,73.9758706 978.6387359199999,74.11843259999999 983.06273592,74.2511119 987.19313592,74.3748914 991.06093592,74.4907205 994.69463592,74.5994681 998.11963592,74.70190699999999 1001.35833592,74.79871453999999 1004.03123592,74.87857" stroke="black" stroke-width="2.0" /></svg>