<?xml version="1.0" encoding="utf-8" ?>
<svg baseProfile="full" height="173.69158" version="1.1" width="1011.995608928" xmlns="http://www.w3.org/2000/svg" xmlns:ev="http://www.w3.org/2001/xml-events" xmlns:xlink="http://www.w3.org/1999/xlink"><defs /><polygon fill="none" points="1003.995608928,84.84579 999.688508928,84.504842 994.538108928,84.08560689999999 989.179508928,83.63607499999999 983.600208928,83.15356299999999 977.7884089280001,82.63522999999999 971.733408928,82.07813999999999 965.426708928,81.47936 958.863308928,80.836107 952.0433089280001,80.145974 944.9731089280001,79.40821799999999 937.665208928,78.62497499999999 930.137408928,77.799892 922.411908928,76.93792599999999 914.514208928,76.045193 906.471608928,75.12869599999999 898.3105089280001,74.19563 890.056808928,73.24955999999999 881.7355089280001,72.29171 873.370208928,71.32305 864.981908928,70.34425999999999 856.5883089280001,69.35567999999999 848.2034089279999,68.35726 839.837208928,67.34857 831.495608928,66.32871999999999 823.1807089280001,65.29645 814.890708928,64.25001999999999 806.620308928,63.187259999999995 798.360608928,62.105669999999996 790.100708928,61.00449999999999 781.830308928,59.88427999999999 773.540708928,58.745729999999995 765.224908928,57.589729999999996 756.877008928,56.41739 748.4932089280001,55.230059999999995 740.0711089280001,54.02933999999999 731.610108928,52.81716999999999 723.111508928,51.5958 714.578808928,50.36786 706.017508928,49.13631999999999 697.435308928,47.90438999999999 688.841108928,46.67444 680.242908928,45.448159999999994 671.647308928,44.227019999999996 663.059208928,43.01228999999999 654.482308928,41.80497999999999 645.9185089279999,40.605909999999994 637.368408928,39.415659999999995 628.831308928,38.2346 620.304808928,37.06293999999999 611.7853089280001,35.90066999999999 603.267808928,34.747629999999994 594.746108928,33.603269999999995 586.2146089280001,32.46639999999999 577.669008928,31.335919999999994 569.107108928,30.210969999999996 560.528308928,29.090919999999997 551.9338089280001,27.975379999999994 543.326708928,26.864189999999994 534.712208928,25.757419999999996 526.097108928,24.655359999999988 517.490308928,23.558549999999997 508.902408928,22.467699999999994 500.34560892800005,21.38378999999999 491.83240892800006,20.309709999999995 483.37330892800003,19.25018999999999 474.97610892800003,18.20958999999999 466.645608928,17.19175 458.384308928,16.199979999999996 450.192608928,15.237169999999992 442.068808928,14.305819999999997 434.009508928,13.408069999999995 426.009908928,12.545819999999992 418.06370892800004,11.720739999999992 410.163608928,10.93437999999999 402.301108928,10.188179999999988 394.46680892800003,9.482979999999998 386.652808928,8.81855999999999 378.853008928,8.194810000000004 371.06350892800003,7.6118999999999915 363.281908928,7.0701799999999935 355.50780892800003,6.570189999999997 347.74270892800007,6.1125299999999925 339.98960892800005,5.697890000000001 332.253308928,5.326939999999993 324.540208928,5.000309999999999 316.858208928,4.71853999999999 309.21630892800005,4.481979999999993 301.624908928,4.29083 294.09470892800005,4.145769999999999 286.63430892800005,4.0483799999999945 279.249108928,4.0 271.941108928,4.001729999999995 264.709608928,4.05449999999999 257.551808928,4.159179999999992 250.46250892799998,4.316689999999994 243.435108928,4.528040000000004 236.461508928,4.794429999999991 229.53190892799998,5.1173299999999955 222.635408928,5.4985499999999945 215.759608928,5.940349999999995 208.89070892799998,6.445549999999997 202.012908928,7.017609999999991 195.109608928,7.656959999999998 188.17170892800002,8.357139999999987 181.203608928,9.109489999999994 174.224808928,9.903189999999995 167.269508928,10.725049999999996 160.38500892800002,11.55986 153.62690892799998,12.39130999999999 147.052408928,13.208240000000004 140.70730892799997,14.01639999999999 134.61660892799998,14.824369999999988 128.78810892799999,15.639510000000001 123.21810892799999,16.467859999999988 117.895508928,17.314229999999995 112.805708928,18.182410000000004 107.93210892799999,19.07535 103.258098928,19.995379999999997 98.767958928,20.94252999999999 94.450298928,21.911929999999998 90.29890892799999,22.89775999999999 86.31055892799999,23.894129999999997 82.48335892799999,24.895279999999993 78.815618928,25.895819999999993 75.305648928,26.89267999999999 71.95143892799999,27.889009999999992 68.74825892799998,28.888669999999998 65.68932892800001,29.894829999999992 62.766828928,30.910099999999993 59.972578928000004,31.936579999999992 57.298398928000005,32.975989999999996 54.736428928,34.02972 52.279238928000005,35.098639999999996 49.920078928,36.18077999999999 47.653108928,37.272909999999996 45.473198928,38.372119999999995 43.375818928,39.475849999999994 41.356888928,40.58183999999999 39.412678928000005,41.68805999999999 37.539798928,42.79272999999999 35.735068928,43.89427 33.995528928,44.991299999999995 32.318408928,46.08257999999999 30.701098927999997,47.16705999999999 29.141098927999998,48.24379999999999 27.636188928,49.31258999999999 26.184998928,50.376099999999994 24.786738928000002,51.43720999999999 23.440908928,52.49802999999999 22.147098928,53.560019999999994 20.904888928,54.62406999999999 19.713748927999998,55.69063999999999 18.573028928,56.759829999999994 17.481878928,57.83145999999999 16.439268928,58.90512999999999 15.444508928,59.97964999999999 14.498098928,61.05185999999999 13.600097928,62.11899 12.749951927999998,63.179069999999996 11.946710928,64.23071999999999 11.189180927999999,65.27308 10.476045928000001,66.30561 9.805941928,67.32808999999999 9.177521928,68.34048999999999 8.589486928,69.34295999999999 8.040616928,70.33573999999999 7.529779928,71.31917 7.055950928,72.29366999999999 6.618207928,73.2597 6.2157449279999994,74.21773999999999 5.847861928,75.16831699999999 5.513976928,76.11197399999999 5.213617928,77.04927199999999 4.946428828,77.98078799999999 4.712167728,78.90711399999999 4.510711228,79.828858 4.342056928,80.746648 4.206328928,81.661131 4.103784428,82.572981 4.034823448,83.4829 4.0,84.39162909999999 4.0,85.2999509 4.034823448,86.20867999999999 4.103784428,87.11859899999999 4.206328928,88.03044899999999 4.342056928,88.944932 4.510711228,89.86272199999999 4.712167728,90.784466 4.946428828,91.710792 5.213617928,92.642308 5.513976928,93.579606 5.847861928,94.523263 6.2157449279999994,95.47384 6.618207928,96.43187999999999 7.055950928,97.39791 7.529779928,98.37240999999999 8.040616928,99.35584 8.589486928,100.34862 9.177521928,101.35109 9.805941928,102.36349 10.476045928000001,103.38596999999999 11.189180927999999,104.4185 11.946710928,105.46086 12.749951927999998,106.51250999999999 13.600097928,107.57258999999999 14.498098928,108.63972 15.444508928,109.71193 16.439268928,110.78645 17.481878928,111.86012 18.573028928,112.93175 19.713748927999998,114.00094 20.904888928,115.06751 22.147098928,116.13156 23.440908928,117.19354999999999 24.786738928000002,118.25437 26.184998928,119.31548 27.636188928,120.37898999999999 29.141098927999998,121.44778 30.701098927999997,122.52452 32.318408928,123.609 33.995528928,124.70027999999999 35.735068928,125.79730999999998 37.539798928,126.89885 39.412678928000005,128.00351999999998 41.356888928,129.10974 43.375818928,130.21573 45.473198928,131.31946 47.653108928,132.41867 49.920078928,133.5108 52.279238928000005,134.59294 54.736428928,135.66186 57.298398928000005,136.71559 59.972578928000004,137.755 62.766828928,138.78148 65.68932892800001,139.79675 68.74825892799998,140.80291 71.95143892799999,141.80257 75.305648928,142.7989 78.815618928,143.79576 82.48335892799999,144.7963 86.31055892799999,145.79745 90.29890892799999,146.79381999999998 94.450298928,147.77965 98.767958928,148.74905 103.258098928,149.69619999999998 107.93210892799999,150.61622999999997 112.805708928,151.50916999999998 117.895508928,152.37734999999998 123.21810892799999,153.22372000000001 128.78810892799999,154.05207 134.61660892799998,154.86721 140.70730892799997,155.67518 147.052408928,156.48334 153.62690892799998,157.30027 160.38500892800002,158.13171999999997 167.269508928,158.96652999999998 174.224808928,159.78839 181.203608928,160.58209 188.17170892800002,161.33444 195.109608928,162.03462 202.012908928,162.67397 208.89070892799998,163.24603 215.759608928,163.75123 222.635408928,164.19303 229.53190892799998,164.57425 236.461508928,164.89715 243.435108928,165.16353999999998 250.46250892799998,165.37489 257.551808928,165.5324 264.709608928,165.63708 271.941108928,165.68984999999998 279.249108928,165.69158 286.63430892800005,165.64319999999998 294.09470892800005,165.54581 301.624908928,165.40075 309.21630892800005,165.2096 316.858208928,164.97304 324.540208928,164.69126999999997 332.253308928,164.36464 339.98960892800005,163.99369 347.74270892800007,163.57905 355.50780892800003,163.12139 363.281908928,162.6214 371.06350892800003,162.07968 378.853008928,161.49676999999997 386.652808928,160.87302 394.46680892800003,160.2086 402.301108928,159.5034 410.163608928,158.7572 418.06370892800004,157.97084 426.009908928,157.14576 434.009508928,156.28350999999998 442.068808928,155.38576 450.192608928,154.45441 458.384308928,153.4916 466.645608928,152.49982999999997 474.97610892800003,151.48199 483.37330892800003,150.44139 491.83240892800006,149.38187 500.34560892800005,148.30779 508.902408928,147.22388 517.490308928,146.13303 526.097108928,145.03622000000001 534.712208928,143.93416 543.326708928,142.82738999999998 551.9338089280001,141.7162 560.528308928,140.60066 569.107108928,139.48060999999998 577.669008928,138.35566 586.2146089280001,137.22518 594.746108928,136.08830999999998 603.267808928,134.94395 611.7853089280001,133.79091 620.304808928,132.62864 628.831308928,131.45698 637.368408928,130.27591999999999 645.9185089279999,129.08567 654.482308928,127.88659999999999 663.059208928,126.67929 671.647308928,125.46455999999999 680.242908928,124.24341999999999 688.841108928,123.01713999999998 697.435308928,121.78719 706.017508928,120.55526 714.578808928,119.32371999999998 723.111508928,118.09577999999999 731.610108928,116.87441 740.0711089280001,115.66224 748.4932089280001,114.46152 756.877008928,113.27418999999999 765.224908928,112.10184999999998 773.540708928,110.94585 781.830308928,109.8073 790.100708928,108.68708 798.360608928,107.58590999999998 806.620308928,106.50431999999999 814.890708928,105.44156 823.1807089280001,104.39513 831.495608928,103.36286 839.837208928,102.34300999999999 848.2034089279999,101.33431999999999 856.5883089280001,100.3359 864.981908928,99.34732 873.370208928,98.36852999999999 881.7355089280001,97.39986999999999 890.056808928,96.44202 898.3105089280001,95.49595 906.471608928,94.562884 914.514208928,93.64638699999999 922.411908928,92.753654 930.137408928,91.89168799999999 937.665208928,91.066605 944.9731089280001,90.283362 952.0433089280001,89.54560599999999 958.863308928,88.85547299999999 965.426708928,88.21221999999999 971.733408928,87.61344 977.7884089280001,87.05635 983.600208928,86.538017 989.179508928,86.055505 994.538108928,85.6059731 999.688508928,85.18673799999999 1003.995608928,84.84579" stroke="black" stroke-width="2.0" /></svg>