<?xml version="1.0" encoding="utf-8" ?>
<svg baseProfile="full" height="124.99508999999999" version="1.1" width="1012.3671207" xmlns="http://www.w3.org/2000/svg" xmlns:ev="http://www.w3.org/2001/xml-events" xmlns:xlink="http://www.w3.org/1999/xlink"><defs /><polygon fill="none" points="1004.3671207,101.81002 1001.3340207,101.0696323 997.7413207,100.195291 994.0419207,99.297918 990.2293207,98.376229 986.2967206999999,97.42886 982.2367207,96.45437 978.0416207,95.45123699999999 973.7031207,94.417875 969.2126207,93.352643 964.5611207,92.25386499999999 959.7394207,91.11986999999999 954.7383206999999,89.94903 949.5486207,88.73983 944.1621207000001,87.49096 938.5714207,86.20145 932.7712207,84.87079 926.7585207,83.49911999999999 920.5344207,82.08748 914.1045207,80.63802 907.4806207,79.15419 900.6815207,77.64095999999999 893.7750207,76.11278999999999 886.9495207,74.60919999999999 880.1993206999999,73.12653999999999 873.4960206999999,71.65626999999999 866.8154206999999,70.19098 860.1371207,68.72412 853.4436207,67.24971 846.7199207,65.76227999999999 839.9531207,64.25672 833.1326207000001,62.7283 826.2505207,61.17265 819.3404207,59.5948 812.4981207000001,58.01445 805.7261207,56.43047999999999 799.0179207,54.840309999999995 792.3648207,53.24523 785.7580207,51.648329999999994 779.1899207,50.05266999999999 772.6535207000001,48.46125 766.1421207,46.877089999999995 759.6499207,45.303239999999995 753.1713207,43.74275999999999 746.7011207,42.19879999999999 740.2345207,40.674549999999996 733.7670207,39.17331999999999 727.2944207,37.698499999999996 720.8128207,36.25359999999999 714.3185207,34.842259999999996 707.8079207,33.46822999999999 701.2779207000001,32.135329999999996 694.7261206999999,30.84483999999999 688.1512207,29.59527999999999 681.5519207,28.385119999999986 674.9278207,27.212879999999984 668.2783207,26.07718 661.6034207,24.976659999999995 654.9035207,23.910029999999992 648.1794207,22.876000000000005 641.4321206999999,21.873319999999993 634.6632207,20.90079 627.8747207,19.95716999999999 621.0691207,19.041269999999997 614.2492207,18.151889999999995 607.4185207,17.28783 600.5807207,16.447959999999995 593.7395207,15.632350000000002 586.8981207,14.842060000000004 580.0594207,14.07808 573.2253207,13.34129999999999 566.3975207,12.632519999999985 559.5772207,11.952459999999988 552.7649207000001,11.301760000000002 545.9607207,10.680999999999983 539.1642207,10.090739999999997 532.3744207,9.531459999999996 525.5901206999999,9.003629999999987 518.8094207,8.507729999999995 512.0299206999999,8.044209999999993 505.24882069999995,7.6135599999999926 498.46302069999996,7.21602 491.6691207,6.85038999999999 484.8641207,6.514989999999997 478.0456207,6.208179999999999 471.21142069999996,5.928399999999996 464.3599207,5.674079999999989 457.4896207,5.4436899999999895 450.5997207,5.235719999999986 443.6897207,5.048629999999989 436.7598207,4.880879999999991 429.81032070000003,4.7309299999999865 422.8424207,4.597199999999987 415.8574207,4.478079999999991 408.8576207,4.371949999999998 401.8455207,4.277169999999984 394.8242207,4.193429999999992 387.7969207,4.122369999999989 380.7669207,4.065769999999986 373.7378207,4.025359999999992 366.7129207,4.0028799999999904 359.69602069999996,4.0 352.6907207,4.018339999999995 345.7006207,4.05946999999999 338.7294207,4.1248899999999935 331.78092069999997,4.215999999999994 324.85862069999996,4.334149999999994 317.9661207,4.480579999999989 311.1069207,4.656419999999983 304.2845207,4.862709999999993 297.5021207,5.100239999999999 290.7622207,5.369119999999995 284.0656207,5.669339999999991 277.4117207,6.000919999999994 270.79812069999997,6.36399999999999 264.22122069999995,6.758819999999986 257.6763207,7.185770000000005 251.1572207,7.64542999999999 244.65672069999997,8.138580000000005 238.16662069999998,8.666259999999994 231.6771207,9.22981 225.1772207,9.830920000000006 218.6543207,10.47171999999999 212.0937207,11.154839999999993 205.4784207,11.88360999999999 198.7887207,12.662930000000003 192.0059207,13.503929999999997 185.1171207,14.42053 178.12642069999998,15.425779999999989 171.1916207,16.50869 164.3641207,17.669029999999992 157.61582069999997,18.918419999999998 150.9121207,20.27109 144.2114207,21.745059999999995 137.4626207,23.36404999999999 130.61962069999998,25.15535 123.9229207,27.066450000000003 117.5203207,29.051179999999988 111.44742070000001,31.08632 105.7209207,33.15047 100.3423207,35.22426999999999 95.2960307,37.286249999999995 90.5433507,39.32557 86.0348407,41.34298 81.7195207,43.34593999999999 77.5472907,45.346489999999996 73.4677707,47.36085 69.4266107,49.410709999999995 65.3583807,51.526799999999994 61.1717807,53.75711 56.7123207,56.18888 51.6387707,59.02357 46.4776307,62.00245999999999 41.947850700000004,64.72495 37.1912207,67.70918 31.6701707,71.33713 27.707080700000002,74.04410999999999 24.7640707,76.11778 22.407310700000004,77.83214 20.430060700000002,79.31738999999999 18.7219207,80.64273999999999 17.217260699999997,81.84922999999999 15.873790699999999,82.96327 14.6625407,84.00294 13.562743699999999,84.98120999999999 12.558969699999999,85.90776 11.6394317,86.79001 10.7949187,87.63378 10.0180977,88.44377 9.303052699999999,89.22380999999999 8.6449467,89.97707 8.039797700000001,90.70622999999999 7.484302700000001,91.41356999999999 6.9757137,92.10103 6.5117387,92.770314 6.0904757,93.42290499999999 5.7103497,94.06011099999999 5.3700747,94.683098 5.0686192000000005,95.29290599999999 4.8051806,95.89047599999999 4.5791668,96.47666 4.39018336,97.05223699999999 4.2380244,97.61792399999999 4.1226686,98.17438399999999 4.0442791,98.72223699999999 4.003207,99.26206499999999 4.0,99.794421 4.0354145,100.31983299999999 4.1104349,100.83881299999999 4.2262974,101.3518596 4.38452295,101.85946724 4.5864338,102.36218219999999 4.8321062999999995,102.860689 5.1216004,103.35566499999999 5.4552447,103.84776199999999 5.833641699999999,104.337611 6.2576827,104.825836 6.7285727,105.31306 7.2478537,105.799911 7.8174557,106.28704099999999 8.4397527,106.77512399999999 9.117633699999999,107.264878 9.8546107,107.757077 10.6549497,108.252563 11.5238507,108.752275 12.4676987,109.25727099999999 13.4944057,109.768768 14.6139007,110.288186 15.838840699999999,110.817213 17.1856907,111.357891 18.6763907,111.91273 20.341020699999998,112.48487999999999 22.2224107,113.07826 24.3840307,113.69769 26.9240107,114.34819999999999 29.995260700000003,115.03045 33.8438007,115.72749999999999 38.873490700000005,116.37941 45.1593207,116.82525 51.5638207,116.97533999999999 57.381610699999996,116.99508999999999 62.866790699999996,116.9846 68.2274607,116.95074 73.5904707,116.89442 79.0507507,116.81470999999999 84.69046069999999,116.7092 90.5868407,116.57409 96.8121607,116.40411999999999 103.4222407,116.19282999999999 110.42482070000001,115.93432999999999 117.4133207,115.64283999999999 124.12522070000001,115.33415 130.6526207,115.00956 137.0641207,114.66987 143.41242069999998,114.31560999999999 149.74002069999997,113.94725 156.0829207,113.56522 162.47222069999998,113.17004999999999 168.93522069999997,112.76247 175.4957207,112.34346 182.1737207,111.91449 188.98402069999997,111.477626 195.93462069999998,111.03575099999999 202.96122069999998,110.596651 209.8963207,110.17387699999999 216.7546207,109.766829 223.5599207,109.373369 230.3323207,108.991745 237.08872069999998,108.62051 243.8434207,108.25846 250.60852069999999,107.904586 257.3943207,107.558042 264.2089207,107.218122 271.05882069999996,106.88424499999999 277.94842070000004,106.55593999999999 284.8801207,106.23284699999999 291.8540207,105.91470199999999 298.8677207,105.601345 305.9161207,105.29271299999999 312.9919207,104.98899399999999 320.0874207,104.690749 327.1932207,104.39863299999999 334.2937207,104.11352099999999 341.3913207,103.835521 348.4908207,103.56466599999999 355.5942207,103.30110599999999 362.6903207,103.045473 369.77482069999996,102.79810769999999 376.8467207,102.5592205 383.9058207,102.32898639999999 390.9529207,102.1075511 397.9896207,101.89503639 405.01812069999994,101.69154599999999 412.0415207,101.49703369999999 419.0627207,101.3110396 426.0844207,101.1330478 433.1087207,100.962564 440.1375207,100.799112 447.1721207,100.642229 454.2136207,100.49146599999999 461.2627207,100.346381 468.3195207,100.20653999999999 475.3839207,100.071517 482.4554207,99.94088599999999 489.53302069999995,99.814228 496.6152207,99.691126 503.7002207,99.571163 510.7859206999999,99.45405 517.8700206999999,99.340144 524.9505207,99.23000499999999 532.0259206999999,99.124184 539.0951206999999,99.02322199999999 546.1573207,98.927645 553.2120206999999,98.83797399999999 560.2592207,98.754718 567.2991207,98.67837899999999 574.3324207,98.609455 581.3600207000001,98.54843899999999 588.3833207,98.495825 595.4038207,98.452108 602.4237207,98.417791 609.4452206999999,98.393311 616.4708207,98.37844899999999 623.5024207,98.37261799999999 630.5417207,98.375236 637.5899207,98.38572699999999 644.6475207,98.40350799999999 651.7150207,98.427999 658.7921207,98.458608 665.8779206999999,98.494739 672.9714207000001,98.535783 680.0709207,98.58112299999999 687.1742207,98.630129 694.2785207,98.68216199999999 701.3806206999999,98.73657499999999 708.4771207,98.79272599999999 715.5640207,98.85019899999999 722.6387207,98.90876999999999 729.6994207,98.968228 736.7455206999999,99.028376 743.7774207,99.08902499999999 750.7967207,99.149998 757.8059207,99.211131 764.8085207,99.272269 771.8088207,99.33326699999999 778.8125206999999,99.39398899999999 785.8262206999999,99.45430599999999 792.8574206999999,99.51409699999999 799.9151207,99.57324399999999 807.0083207,99.63162299999999 814.0879207,99.68884299999999 821.1134207,99.744878 828.0818207,99.80002499999999 834.9944207,99.85459999999999 841.8555207,99.908929 848.6727207,99.963352 855.4563207,100.018221 862.2192206999999,100.07390699999999 868.9769206999999,100.130805 875.7480207,100.189348 882.5545206999999,100.25002099999999 889.4231206999999,100.31338199999999 896.3859207,100.380094 903.4523207,100.45065799999999 910.4005207,100.52312099999999 917.1491206999999,100.596493 923.6813206999999,100.67031999999999 929.9878206999999,100.74421799999999 936.0660207,100.8178763 941.9176206999999,100.89104809999999 947.5480206999999,100.96354649999999 952.9649207,101.03523299999999 958.1775207,101.1060097 963.1959207,101.17581059999999 968.0304207,101.24459519999999 972.6912207,101.31234239999999 977.1886207,101.3790459 981.5320207,101.4447106 985.7309207,101.50934919999999 989.7937207,101.57298069999999 993.7286207,101.6356277 997.5432207,101.69731589999999 1001.2445207000001,101.75807268 1004.3671207,101.81002" stroke="black" stroke-width="2.0" /></svg>