<?xml version="1.0" encoding="utf-8" ?>
<svg baseProfile="full" height="73.944701" version="1.1" width="1012.2041812" xmlns="http://www.w3.org/2000/svg" xmlns:ev="http://www.w3.org/2001/xml-events" xmlns:xlink="http://www.w3.org/1999/xlink"><defs /><polygon fill="none" points="1004.2041812,57.80108 1001.4648812,57.291159799999996 998.1541812,56.68775 994.6642812,56.066917 990.9762812,55.427771 987.0687812,54.76957 982.9187812,54.091864 978.5022812,53.394712 973.7954812,52.679011 968.7776812,51.946964 963.4362812,51.202681999999996 957.7728812,50.452852 951.8124812,49.707188 945.6220812,48.976804 939.4689812,48.288235 933.3905811999999,47.63751 927.3282812,47.010729999999995 921.2385812,46.39648 915.0904812,45.7849 908.8656812,45.16715 902.6299812000001,44.54241 896.4642812,43.91428 890.3535812,43.28227 884.2836812,42.6464 878.2422812,42.00675 872.2186812,41.363510000000005 866.2034812,40.71697 860.1887812,40.06747 854.1673812,39.41551 848.1333812,38.76164 842.0816812,38.106579999999994 836.0082812,37.451139999999995 829.9100812,36.79631 823.7851812,36.14318 817.6325812,35.49303999999999 811.4525811999999,34.847319999999996 805.2468812,34.20762 799.0182811999999,33.57551 792.7706811999999,32.9516 786.5076812,32.336 780.2369812,31.72917 773.9715812,31.13203 767.7100812,30.544069999999998 761.4498812,29.96471 755.1889812000001,29.39342 748.9255812,28.8297 742.6581812000001,28.27308 736.3857812,27.723139999999997 730.1079811999999,27.17954 723.8320812,26.64256 717.5614812,26.11214 711.2960812,25.587920000000004 705.0351812,25.069499999999998 698.7780812,24.556499999999993 692.5237812,24.048719999999996 686.2712812,23.546060000000004 680.0195812,23.048450000000003 673.7682811999999,22.55578 667.5164811999999,22.06801 661.2637811999999,21.58506 655.0096812,21.106899999999996 648.7540812,20.63348 642.4967812,20.16478 636.2374812,19.70078 629.9764812,19.241459999999996 623.7138812000001,18.78682 617.4498812,18.336869999999998 611.1848812000001,17.89161 604.9193812,17.45107 598.6539812,17.01531 592.3892812,16.584690000000002 586.1258812,16.159670000000006 579.8641812,15.740699999999997 573.6044812,15.328200000000002 567.3470812,14.922600000000003 561.0920811999999,14.524320000000003 554.8396812000001,14.133769999999998 548.5896812,13.751349999999995 542.3419812,13.37746 536.0964812,13.012489999999993 529.8527812,12.65683 523.6104812,12.310850000000002 517.3691812,11.974939999999997 511.1280812,11.649469999999994 504.8867812,11.334819999999993 498.6443812,11.031210000000002 492.4001812,10.738 486.15358119999996,10.454279999999997 479.9039812,10.179129999999994 473.6510812,9.911650000000002 467.3945812,9.650929999999995 461.1342812,9.396070000000002 454.8700812,9.146169999999998 448.6020812,8.90034 442.33038120000003,8.65768 436.0553812,8.417290000000001 429.7773812,8.178279999999994 423.4968812,7.939770000000003 417.21448119999997,7.7008499999999955 410.9310812,7.460650000000001 404.6473812,7.21828 398.3643812,6.973219999999998 392.0829812,6.72672 385.8041812,6.48057 379.5286812,6.236559999999997 373.2571812,5.996450000000003 366.9904812,5.7620099999999965 360.72918119999997,5.534999999999997 354.4738812,5.317140000000002 348.22508120000003,5.1101699999999965 341.9831812,4.915770000000002 335.7486812,4.73565 329.5218812,4.571460000000002 323.30298120000003,4.424849999999999 317.0923812,4.297469999999997 310.89018120000003,4.190899999999999 304.6964812,4.106760000000001 298.51138119999996,4.0464800000000025 292.3350812,4.010739999999998 286.16748119999994,4.0 280.0085812,4.014710000000001 273.8579812,4.055340000000001 267.7152812,4.122339999999994 261.57978119999996,4.216189999999997 255.4505812,4.337379999999996 249.3268812,4.486399999999996 243.2074812,4.663789999999999 237.0910812,4.870099999999994 230.9762812,5.105929999999994 224.8614812,5.371899999999997 218.74498119999998,5.668679999999995 212.6246812,5.997 206.49848120000001,6.35765 200.3641812,6.751399999999997 194.2195812,7.178339999999999 188.06398119999997,7.637909999999998 181.89818119999998,8.12943 175.7249812,8.65202 169.5487812,9.2046 163.37588119999998,9.785809999999998 157.2141812,10.394019999999998 151.0732812,11.027439999999999 144.9636812,11.687919999999998 138.8933812,12.380989999999997 132.8673812,13.112369999999999 126.8869812,13.887830000000001 120.95068119999999,14.71329 115.0543812,15.594939999999994 109.1914812,16.539390000000004 103.3528812,17.55384 97.52808119999999,18.64277 91.7065312,19.80231 85.87690119999999,21.02791 80.02647119999999,22.31581 74.1415212,23.667650000000002 68.2337912,25.109210000000004 62.3906312,26.656779999999998 56.763811200000006,28.29703 51.5096812,29.98961 46.7021412,31.665589999999998 42.2623312,33.28958 38.03810120000001,34.87555999999999 33.83522120000001,36.466759999999994 29.3206512,38.15804 24.2191412,40.08692 19.1238512,42.41262 15.6702612,44.37389 13.4294002,45.83027 11.7655602,47.01488 10.438584200000001,48.035270999999995 9.3386832,48.944178 8.4065672,49.771281 7.606469199999999,50.535072 6.915148199999999,51.247952999999995 6.316722199999999,51.918699 5.7999632000000005,52.553785 5.3567842,53.158149 4.9813316,53.735654 4.6694276,54.289393 4.4182178,54.821888 4.22595659,55.335226 4.0918854,55.831163 4.0161857,56.311192 4.0,56.776602 4.0455229,57.228514499999996 4.15618247,57.6679263 4.3365558,58.0958231 4.5889213,58.514039499999996 4.9147236,58.924833 5.3170382,59.330393 5.8008882,59.732954 6.373765199999999,60.13494 7.0465222,60.539153 7.8349142,60.949067 8.7623762,61.369327999999996 9.865415200000001,61.806703999999996 11.2052212,62.272121999999996 12.8968132,62.785807999999996 15.1997912,63.393482 18.8523912,64.22307 24.4954212,65.208733 29.4802912,65.72076200000001 33.381481199999996,65.905766 37.0601812,65.944701 40.8315912,65.877342 44.9358612,65.709053 49.670831199999995,65.426614 55.4104412,65.00945300000001 61.3357512,64.53966199999999 66.9336112,64.07141 72.63027119999998,63.578706 78.6616612,63.048811 84.78170119999999,62.512477 90.7759112,61.995748999999996 96.7770412,61.493217 102.85774119999999,61.005500999999995 109.0343812,60.538055 115.2855812,60.092872 121.5616812,59.670076 127.81258119999998,59.268932 134.0545812,58.884152 140.3016812,58.5107512 146.5639812,58.144078199999996 152.84588119999998,57.77978909 159.1215812,57.415799899999996 165.37938119999998,57.0536312 171.62158119999998,56.696016 177.8506812,56.345663 184.0689812,56.005257 190.2786812,55.67747 196.48198119999998,55.36497 202.68078119999998,55.070431 208.8769812,54.796271 215.0725812,54.542637 221.2691812,54.308541 227.46808119999997,54.09301 233.6705812,53.895095 239.87778120000002,53.713865 246.0904812,53.5484 252.3094812,53.39779 258.53518119999995,53.261131 264.7678812,53.137522 271.00768120000004,53.026061 277.2545812,52.925846 283.50818119999997,52.835969999999996 289.7678812,52.755522 296.0332812,52.683582 302.3030812,52.619228 308.5764812,52.561600999999996 314.8520812,52.510597 321.1288812,52.466559 327.40568119999995,52.429831 333.68188119999996,52.400751 339.9565812,52.379654 346.2291812,52.36687 352.49928120000004,52.362723 358.7665812,52.367537 365.0306812,52.381633 371.2915812,52.405328 377.54938119999997,52.438941 383.80418119999996,52.48279 390.0563812,52.537196 396.3061812,52.602479 402.5542812,52.678968 408.8012812,52.766945 415.04788119999995,52.866275 421.29488119999996,52.976597 427.5426812,53.097549 433.7917812,53.228772 440.0426812,53.369907999999995 446.2955812,53.520599 452.5508812,53.680485 458.8085812,53.849204 465.0687812,54.026393 471.33148120000004,54.211684 477.5965812,54.404706 483.86388120000004,54.605084 490.1330812,54.812439 496.4037812,55.026385 502.6755812,55.246532 508.9478812,55.472436 515.2201812000001,55.703246 521.4918812,55.937903 527.7627812,56.175348 534.0322812,56.414528 540.3001812,56.654387 546.5661812,56.8938795 552.8302812,57.1319594 559.0921812,57.3675874 565.3519812,57.5997285 571.6095812,57.82735219 577.8651811999999,58.0494327 584.1187812,58.2649481 590.3707812,58.4728804 596.6212812,58.6722143 602.8707812,58.861937 609.1194812,59.041187 615.3678811999999,59.210268 621.6163812,59.370018 627.8653812,59.521281 634.1152811999999,59.664895 640.3663812,59.801698 646.6190812,59.932527 652.8738812,60.058218 659.1311812,60.179608 665.3912812,60.297534999999996 671.6546811999999,60.412836999999996 677.9217812,60.526356 684.1930812,60.638933 690.4688811999999,60.751415 696.7495812,60.864652 703.0357812,60.979499 709.3277812,61.09666 715.6259812,61.215764 721.9252812,61.335868 728.2185811999999,61.455982 734.5062812,61.575265 740.7891812,61.692885 747.0683812,61.80802 753.3450812,61.919854 759.6211812,62.027574 765.8983812,62.130369 772.1789812,62.227425 778.4653812,62.31792 784.7604812,62.401022 791.0573812,62.475769 797.3395812,62.541145 803.6032812,62.59634 809.8448812,62.640724999999996 816.0611812000001,62.674452 822.2504812,62.69794 828.4122811999999,62.711614999999995 834.5473811999999,62.715894999999996 840.6575812,62.711186 846.7460811999999,62.69787 852.8167812,62.676303 858.8747811999999,62.646806999999995 864.9261812,62.609666 870.9780812,62.565124999999995 877.0388812,62.513383 883.1178812,62.454589 889.2262812,62.388838 895.3765811999999,62.316162999999996 901.5834811999999,62.236529 907.8577812,62.149775 914.0941812,62.055329 920.2465812,61.950517 926.3324812,61.831916 932.3821812,61.695848 938.4380811999999,61.538052 944.5570812000001,61.353156 950.7941812,61.134684 956.8894812,60.888352 962.6850812,60.622216 968.1493812,60.342692 973.2777811999999,60.055085999999996 978.0823812,59.763422 982.5845812,59.470596 986.8095811999999,59.178616 990.7830812000001,58.888832 994.5293812,58.6021206 998.0710812,58.3190264 1001.4281812,58.0398663 1004.2041812,57.80108" stroke="black" stroke-width="2.0" /></svg>