<?xml version="1.0" encoding="utf-8" ?>
<svg baseProfile="full" height="126.62618" version="1.1" width="1012.05256889" xmlns="http://www.w3.org/2000/svg" xmlns:ev="http://www.w3.org/2001/xml-events" xmlns:xlink="http://www.w3.org/1999/xlink"><defs /><polygon fill="none" points="1004.05256889,59.87931 1000.55606889,59.767649 996.33686889,59.625871 991.90046889,59.468488 987.22886889,59.293552999999996 982.30416889,59.098914 977.1099688899999,58.882244 971.6334688899999,58.641141999999995 965.8683688899999,58.373295 959.81896889,58.076752 953.5047688899999,57.750305 946.96386889,57.393857999999994 940.24826889,57.008336 933.41436889,56.595447 926.51546889,56.157323999999996 919.59516889,55.696078 912.68356889,55.213384999999995 905.7951688899999,54.710153 898.92946889,54.186436 892.07666889,53.642624999999995 885.2262688899999,53.079539 878.36936889,52.497992999999994 871.4980688899999,51.898821999999996 864.60576889,51.28291 857.6867688899999,50.651219999999995 850.73646889,50.00481 843.7515688899999,49.34486 836.72996889,48.672709999999995 829.6709688899999,47.989869999999996 822.57506889,47.298049999999996 815.44476889,46.59917 808.28386889,45.89534999999999 801.0980688899999,45.18895 793.8945688900001,44.481339999999996 786.68066889,43.772549999999995 779.46526889,43.06259 772.25016889,42.35084 765.0410688899999,41.637069999999994 757.84266889,40.920919999999995 750.65816889,40.20191 743.4897688899999,39.479479999999995 736.33876889,38.753009999999996 729.20556889,38.021789999999996 722.09006889,37.285039999999995 714.99096889,36.54193 707.9065688899999,35.79152 700.83426889,35.03286 693.7707688899999,34.265829999999994 686.71286889,33.49141 679.65816889,32.71066 672.6040688899999,31.92465 665.54896889,31.134509999999995 658.49136889,30.34141 651.4302688899999,29.546590000000002 644.36506889,28.751299999999993 637.2956688899999,27.956879999999998 630.22226889,27.16469 623.1456688899999,26.376170000000002 616.0669688899999,25.592799999999997 608.98776889,24.816089999999996 601.90996889,24.047599999999996 594.83606889,23.288710000000002 587.76816889,22.540370000000003 580.70826889,21.803479999999993 573.65766889,21.07884 566.61736889,20.367220000000003 559.5880688899999,19.669309999999996 552.56986889,18.985769999999995 545.56246889,18.31722 538.56536889,17.6642 531.57746889,17.02726 524.59756889,16.4069 517.6238688899999,15.803580000000004 510.65426889,15.217779999999998 503.68636889,14.649920000000002 496.71726889,14.10022 489.74456889,13.568109999999997 482.76576889,13.05292 475.77916889,12.554019999999994 468.78326889,12.070799999999998 461.77696889,11.602730000000001 454.75966889,11.149279999999997 447.73106888999996,10.709960000000002 440.69156889,10.284289999999999 433.64156889,9.871830000000003 426.58216889,9.47215 419.51496889,9.084819999999993 412.44196889,8.709429999999998 405.36566888999994,8.345579999999998 398.28866888999994,7.9929599999999965 391.21416889,7.651910000000001 384.14456888999996,7.323010000000004 377.08176889,7.006819999999998 370.02726888999996,6.70384 362.98216888999997,6.414540000000002 355.94696889,6.1393699999999995 348.92166889,5.878749999999997 341.90586889,5.63308 334.89866888999995,5.4027499999999975 327.89886888999996,5.188119999999998 320.90456889,4.989559999999997 313.91356888999996,4.807459999999992 306.92336888999995,4.642199999999995 299.93086888999994,4.494179999999993 292.93286888999995,4.363979999999998 285.92726888999994,4.252330000000001 278.91306889,4.159999999999997 271.89046888999997,4.087800000000001 264.86096889,4.036529999999999 257.82706889,4.007010000000001 250.79286889,4.0 243.76326889,4.016219999999997 236.74466889,4.056330000000003 229.74436889,4.120839999999994 222.77086889,4.210189999999997 215.83336889,4.324619999999996 208.94156888999999,4.464219999999997 202.10596888999999,4.628920000000001 195.33616889,4.819459999999999 188.63816889,5.03819 182.01216889,5.287579999999998 175.45326889,5.57011 168.95266888999998,5.88841 162.49766889,6.245400000000004 156.07196889,6.644410000000001 149.65626889,7.089489999999998 143.23396889,7.585749999999997 136.80526889,8.137859999999996 130.38956889000002,8.748579999999997 124.02516889,9.417899999999996 117.76546889000001,10.142269999999996 111.67166888999999,10.91451 105.80306888999999,11.724540000000005 100.20828889,12.562280000000001 94.91014889,13.433689999999999 89.88777888999999,14.355160000000005 85.09400889000001,15.344309999999993 80.47108889,16.421239999999997 75.95499889000001,17.60897 71.48147888999999,18.912509999999997 67.01456889,20.3191 62.55529889,21.805210000000002 58.14144889,23.333459999999995 53.840498890000006,24.85472 49.73352889,26.322709999999994 45.89058889,27.717549999999996 42.343718890000005,29.03326 39.09358889,30.27109 36.12275889,31.43632 33.40577889,32.5359 30.915298890000003,33.57702 28.62520889,34.5665 26.51182889,35.516729999999995 24.556658889999998,36.44882 22.74664889,37.37647 21.07087889,38.30695 19.51904889,39.243359999999996 18.08091889,40.186319999999995 16.746428889999997,41.13508 15.506758889999999,42.08716 14.35820889,43.03466 13.29663889,43.97099 12.316471889999999,44.89259 11.41183489,45.79774 10.57712389,46.6859 9.807236889999999,47.55717 9.09765089,48.41203 8.44441089,49.2512 7.84410189,50.07548 7.293789889999999,50.88575 6.790981889999999,51.682896 6.33357389,52.467777999999996 5.91980989,53.241251 5.54825489,54.004143 5.2177638900000005,54.757256 4.92746129,55.501369 4.67672889,56.237238 4.46519549,56.965605999999994 4.29273439,57.687208 4.15946679,58.402772 4.06577068,59.113033 4.01229802,59.818740999999996 4.0,60.5206674 4.03016316,61.2196242 4.1043308,61.916492999999996 4.22274769,62.612458 4.38480729,63.308858 4.5902164899999995,64.007001 4.83900479,64.70818299999999 5.13151689,65.41370699999999 5.46841289,66.124912 5.85068089,66.843187 6.27965489,67.569997 6.75704089,68.30691 7.28495189,69.055617 7.86595789,69.817965 8.50313789,70.595985 9.200135889999999,71.391922 9.96123089,72.20826 10.79137089,73.04774 11.69618489,73.91334 12.68186289,74.80819 13.75480589,75.73531 14.92074889,76.69718 16.18291889,77.69457 17.53961889,78.72498999999999 18.99267889,79.78444999999999 20.54696889,80.86803 22.20501889,81.96903 23.96713889,83.07974999999999 25.83280889,84.19324 27.80386889,85.30557999999999 29.889378890000003,86.41844999999999 32.104548890000004,87.53640999999999 34.46334889,88.66135 36.981458890000006,89.79492 39.67673889,90.93872999999999 42.56917889,92.0942 45.68029889,93.26226 49.03148889,94.44282 52.64038889,95.63388 56.51446889,96.83015 60.65316889,98.02327 65.05105889000001,99.20420999999999 69.69590889,100.36496 74.57356889,101.50058999999999 79.67654888999999,102.61138 85.01254889,103.70282 90.59248889000001,104.77986 96.41512889,105.84657999999999 102.45842889000001,106.90609 108.67166889,107.95859999999999 114.98526889,108.99087 121.33316889,109.98486 127.66386889,110.9262 133.94436889,111.80481 140.16096889,112.61448 146.31696889000003,113.35188 152.43006889,114.01539 158.53126889,114.60482999999999 164.65706889,115.12663 170.83996889,115.58937 177.10706889,116.00034 183.48076889,116.36603 189.97766889000002,116.69262 196.60686889000002,116.98632 203.36756889,117.25368 210.24596889,117.50057000000001 217.22006889000002,117.72691 224.26636889,117.93069 231.36166888999998,118.11024 238.48416889,118.26422 245.61416889,118.39164 252.73516889,118.49181999999999 259.83356889,118.56438 266.89946889,118.60917 273.92636889,118.62618 280.91076889,118.61553 287.85246888999995,118.57736 294.75376888999995,118.5118 301.61956889,118.41891 308.45696889,118.2987 315.27456888999995,118.15172 322.08026889,117.97889 328.88116889,117.78102 335.68356889,117.55886 342.49296888999993,117.31306000000001 349.31416888999996,117.04427999999999 356.15136888999996,116.75312 363.00796889,116.44017 369.88686888999996,116.10605 376.79006889,115.75138 383.71886889,115.37683 390.67366889,114.98312999999999 397.65436889,114.57105 404.65966889,114.14147 411.68746889,113.69524 418.73526889,113.233 425.80086889,112.75536 432.88176889,112.26294999999999 439.97566889,111.75643 447.08016889,111.23648 454.19306888999995,110.70381 461.31216888999995,110.15912 468.43536888999995,109.60315 475.56066889,109.03663 482.68606888999994,108.46030999999999 489.80976889,107.87492 496.92996889,107.28121999999999 504.04506889,106.67994999999999 511.15346888999994,106.07163 518.25366889,105.45586 525.3443688899999,104.832 532.4245688899999,104.1994 539.49336889,103.55742000000001 546.5500688899999,102.90538000000001 553.5943688899999,102.24261 560.62596889,101.56844 567.64486889,100.88215 574.65136889,100.18304 581.64586889,99.47039000000001 588.62886889,98.74345 595.6011688899999,98.00145 602.56376889,97.24360999999999 609.5178688899999,96.46937 616.46486889,95.68010000000001 623.40636889,94.87805 630.34366889,94.0655 637.2782688899999,93.2447 644.2112688899999,92.41791 651.14396889,91.58741 658.0773688899999,90.75545 665.01256889,89.92434 671.95026889,89.09637 678.8915688899999,88.27384 685.83696889,87.45909999999999 692.7872688900001,86.6545 699.74316889,85.8624 706.7049688899999,85.08517 713.67306889,84.32413 720.64746889,83.57917 727.62816889,82.85009 734.61506889,82.13669 741.60806889,81.43875 748.60696889,80.75609 755.61146889,80.08852 762.62136889,79.43584 769.63616889,78.79787999999999 776.65546889,78.17444 783.67886889,77.56535 790.70566889,76.97041 797.73536889,76.38946 804.76716889,75.8223 811.80056889,75.26863 818.8348688899999,74.72771 825.86996889,74.19872 832.9059688899999,73.68081 839.94336889,73.17311 846.98306889,72.67471 854.02616889,72.18469999999999 861.07436889,71.70215 868.12946889,71.2261 875.1937688899999,70.75556399999999 882.27006889,70.28954399999999 889.3612688899999,69.827013 896.4709688899999,69.366911 903.60316889,68.908146 910.76166889,68.44988599999999 917.9431688899999,67.993072 925.1278688900001,67.540064 932.27936889,67.094239 939.34656889,66.659706 946.2697688899999,66.240859 952.98806889,65.84181 959.44776889,65.465757 965.61196889,65.114097 971.46416889,64.786722 977.00446889,64.48262199999999 982.24356889,64.200265 987.19836889,63.937894 991.88856889,63.693704 996.3348688899999,63.465962999999995 1000.55726889,63.253062 1004.05256889,63.07931" stroke="black" stroke-width="2.0" /></svg>