<?xml version="1.0" encoding="utf-8" ?>
<svg baseProfile="full" height="101.183853" version="1.1" width="1012.6293621" xmlns="http://www.w3.org/2000/svg" xmlns:ev="http://www.w3.org/2001/xml-events" xmlns:xlink="http://www.w3.org/1999/xlink"><defs /><polygon fill="none" points="1004.6293621,84.19984 1001.7599620999999,83.5607824 998.2794620999999,82.78642699999999 994.5947621,81.96758799999999 990.6820620999999,81.09918499999999 986.5151621,80.17558299999999 982.0655621,79.190721 977.3041621,78.13842799999999 972.2038621,77.013078 966.7453621,75.810767 960.9250621,74.531172 954.7671621000001,73.18002999999999 948.3367621,71.77269 941.8915621,70.36913 935.5169621,68.99188 929.1349621,67.62789 922.6861620999999,66.26876999999999 916.1765621,64.92045999999999 909.7667620999999,63.62 903.4669621,62.37197999999999 897.2540621,61.17260999999999 891.1029620999999,60.01481 884.9926621,58.89233999999999 878.9053621,57.799989999999994 872.8256621,56.73334 866.7402621,55.688579999999995 860.6376621000001,54.66237999999999 854.5076621,53.65181 848.3417621,52.65427999999999 842.1324620999999,51.66747999999999 835.8742620999999,50.68935 829.5629621,49.7181 823.1961621,48.752179999999996 816.7736621,47.79029 810.2976621,46.83139 803.7728621,45.87475 797.2066621,44.920359999999995 790.6071621,43.969469999999994 783.9987621,43.02579999999999 777.4054620999999,42.092879999999994 770.8210621000001,41.16989999999999 764.2395621,40.25609999999999 757.6554621,39.35086999999999 751.0641621,38.4537 744.4618621,37.56421999999999 737.8453621,36.68217999999999 731.2272621,35.8094 724.6248621,34.948269999999994 718.0392621,34.09898 711.4706621,33.261579999999995 704.9183621000001,32.436029999999995 698.3809621,31.622249999999994 691.8569621,30.820369999999997 685.3447620999999,30.030569999999997 678.8425620999999,29.253049999999995 672.3488621,28.488 665.8620621,27.73561999999999 659.3805620999999,26.996149999999993 652.9027621,26.269809999999993 646.4270621000001,25.556819999999995 639.9517620999999,24.857439999999997 633.4754621,24.171939999999992 626.9963620999999,23.500569999999996 620.5127620999999,22.843619999999994 614.0231620999999,22.201399999999992 607.5256621,21.574209999999994 601.0186621,20.96233999999999 594.5005621,20.36535 587.9698621,19.78215999999999 581.4255621,19.21172 574.8670620999999,18.65298 568.2938621,18.10494 561.7060620999999,17.566580000000002 555.1038621,17.03694 548.4880621,16.515039999999985 541.8597621,15.999929999999992 535.2202620999999,15.490669999999994 528.5716620999999,14.986339999999998 521.9160621,14.486019999999996 515.2560621,13.98881 508.59486209999994,13.493839999999992 501.93586209999995,13.000299999999996 495.2825621,12.50837 488.6381621,12.019519999999986 482.0051621,11.535229999999984 475.3855621,11.056929999999994 468.7808621,10.585979999999992 462.1916621,10.123689999999996 455.61836209999996,9.671279999999996 449.06066209999994,9.229950000000002 442.51776209999997,8.80082999999999 435.9884621,8.385009999999994 429.47096209999995,7.983539999999991 422.96306209999995,7.597459999999998 416.4621621,7.227759999999989 409.9650621,6.87545999999999 403.4681621,6.541560000000004 396.9674621,6.2268299999999925 390.45936209999996,5.931479999999993 383.94116209999993,5.655709999999985 377.41116209999996,5.399799999999999 370.8684621,5.164069999999995 364.31306209999997,4.948909999999998 357.74626209999997,4.754709999999989 351.17016209999997,4.581889999999987 344.58776209999996,4.430859999999996 338.0033621,4.302009999999996 331.42206209999995,4.195679999999996 324.8500621,4.112160000000003 318.2943621,4.051659999999998 311.7627621,4.014269999999996 305.2637621,4.0 298.8062621,4.009 292.39846209999996,4.04285999999999 286.0458621,4.103520000000003 279.75146209999997,4.192719999999994 273.5156621,4.31210999999999 267.3369621,4.463250000000002 261.21186209999996,4.647679999999994 255.13556210000002,4.866990000000001 249.10146210000002,5.122859999999989 243.1019621,5.417129999999986 237.12816210000003,5.751850000000005 231.1696621,6.129409999999993 225.2147621,6.5525499999999965 219.2501621,7.024550000000005 213.2605621,7.549329999999983 207.2283621,8.131680000000003 201.13236210000002,8.777169999999998 194.95006210000003,9.486639999999994 188.6648621,10.255569999999992 182.2720621,11.07732999999999 175.7818621,11.94238 169.2226621,12.837509999999995 162.6428621,13.7457 156.1095621,14.64685999999999 149.6995621,15.522750000000002 143.4787621,16.378370000000004 137.47576210000003,17.23080999999999 131.6875621,18.097269999999995 126.0918621,18.994389999999996 120.6554621,19.93866 115.3384621,20.947369999999992 110.09546209999999,22.040029999999994 104.8740621,23.24055 99.6118721,24.57538999999999 94.2486321,26.053389999999993 88.75272209999999,27.671119999999995 83.1370621,29.409969999999994 77.4766021,31.22751999999999 71.9015921,33.08556999999999 66.5323821,34.978429999999996 61.4420221,36.90496999999999 56.6592021,38.86568 52.1826021,40.860949999999995 47.9992521,42.87523999999999 44.0785621,44.89345 40.3759321,46.91650999999999 36.8427621,48.95638999999999 33.4279321,51.03473999999999 30.0735221,53.18624 26.6988421,55.47803999999999 23.302292100000003,57.96724 20.2116721,60.431659999999994 17.6703021,62.60914 15.643272099999999,64.44189 13.9698821,66.02841 12.5689691,67.42089999999999 11.3726801,68.66801 10.3351531,69.80364 9.4253441,70.85117 8.6216791,71.82704 7.9085891,72.74332 7.2745531,73.60907 6.7108641,74.43132499999999 6.2108301,75.21561799999999 5.7692651,75.966414 5.3821278,76.687367 5.0462866,77.381508 4.7593445,78.05138699999999 4.5195224,78.69917199999999 4.3255765,79.326724 4.1767441,79.935655 4.0727127,80.527377 4.0136077,81.10313199999999 4.0,81.66402599999999 4.032932,82.21105 4.113967,82.745099 4.2452654,83.26699119999999 4.4296987,83.77748369999999 4.6710112200000005,84.27728689 4.9726970999999995,84.767338 5.3359214999999995,85.24915399999999 5.7622111,85.724243 6.2540291,86.194041 6.8149031,86.659954 7.4496250999999996,87.123402 8.1645471,87.58586 8.9680201,88.048909 9.8710351,88.514281 10.888141099999999,88.983916 12.0387961,89.459989 13.349163099999998,89.944834 14.8538821,90.440484 16.5947321,90.946906 18.6082621,91.456723 20.9407921,91.950368 23.6210221,92.39240699999999 26.6007621,92.74092399999999 29.795322100000003,92.979492 33.209402100000005,93.124664 36.9051321,93.183853 40.9580621,93.159725 45.4615221,93.057543 50.515852100000004,92.891847 56.1527021,92.701122 62.2188721,92.529099 68.4487221,92.36846299999999 74.6333721,92.19685 80.71938209999999,91.988446 86.78529209999999,91.72701699999999 92.9268621,91.422479 99.20564209999999,91.089531 105.64296209999999,90.74660399999999 112.21136209999999,90.41055999999999 118.86046209999999,90.082988 125.52846209999998,89.76275 132.1965621,89.446269 138.8486621,89.12979899999999 145.4587621,88.81013899999999 152.0252621,88.48310599999999 158.5573621,88.144317 165.07056210000002,87.79193699999999 171.57906210000002,87.42629099999999 178.0940621,87.04781899999999 184.62366210000002,86.65705899999999 191.1730621,86.254689 197.7446621,85.84156 204.3374621,85.418734 210.94776210000003,84.9875691 217.56986210000002,84.5498544 224.19896210000002,84.10748092 230.8304621,83.6623259 237.46046210000003,83.21623869999999 244.0854621,82.771028 250.7029621,82.328454 257.3108621,81.890219 263.9075621,81.457968 270.4923621,81.033287 277.0649621,80.6177 283.62566209999994,80.21268099999999 290.17536210000003,79.81965 296.71546209999997,79.439989 303.2479621,79.07504399999999 309.77536209999994,78.725967 316.30026209999994,78.392595 322.8249621,78.074185 329.35176210000003,77.770026 335.8822621,77.479439 342.41816209999996,77.20176799999999 348.9608621,76.936377 355.5112621,76.682649 362.0701621,76.439979 368.6383621,76.207774 375.2158621,75.98544799999999 381.8027621,75.77242 388.39876209999994,75.568113 395.0033621,75.371955 401.6157621,75.18337 408.2346621,75.00180599999999 414.8587621,74.827077 421.4868621,74.659326 428.1177621,74.49869699999999 434.75036209999996,74.34532899999999 441.3836621,74.19935 448.0167621,74.06089999999999 454.6488621,73.93007999999999 461.2792621,73.80700999999999 467.9072621,73.6918 474.5325621,73.58455 481.15466209999994,73.48536999999999 487.7732621,73.39434 494.3881621,73.31156999999999 500.99926209999995,73.23714 507.6065621,73.17115 514.2101620999999,73.11372999999999 520.8102621,73.06508 527.4067620999999,73.02541 534.0000620999999,72.99490999999999 540.5901621,72.97379 547.1775621,72.96225 553.7623621,72.96049 560.3448621,72.96870999999999 566.9254620999999,72.98713 573.5045621,73.01594 580.0824621,73.05537 586.6596621,73.10561999999999 593.2366621,73.16691 599.8139620999999,73.23946 606.3920621,73.32348999999999 612.9715621,73.41884999999999 619.5530620999999,73.52466 626.1371621000001,73.63998 632.7243620999999,73.76388 639.3152621,73.8954 645.9102621000001,74.03359999999999 652.5099621,74.17754 659.1146621,74.326263 665.7248620999999,74.47881799999999 672.3409621,74.634244 678.9633620999999,74.791579 685.5923621,74.94985299999999 692.2283620999999,75.10808999999999 698.8714620999999,75.265306 705.5221621,75.420513 712.1805621,75.57322199999999 718.8465621,75.72430299999999 725.5196621,75.874855 732.1990621,76.025972 738.8789621,76.178647 745.5555621,76.33390899999999 752.2309620999999,76.49292 758.9075621,76.656858 765.5872621,76.826895 772.2617620999999,77.00393 778.9244621,77.188884 785.5715621,77.3827 792.1984621,77.586276 798.8005621,77.800454 805.3730621,78.026012 811.9110621,78.262985 818.4109621,78.509478 824.8711621,78.763368 831.2918621,79.022668 837.6749621,79.285529 844.0239621,79.55023899999999 850.3437620999999,79.815207 856.6406621,80.07895599999999 862.9222621,80.340097 869.1975621,80.597315 875.4770621,80.84933799999999 881.7726620999999,81.09491799999999 888.0983620999999,81.332793 894.4702621,81.561657 900.9076620999999,81.780108 907.4330620999999,81.98664099999999 914.0655621,82.181044 920.6700621,82.36102199999999 927.1781620999999,82.52711199999999 933.6284621,82.682648 940.0756620999999,82.83100999999999 946.5939621,82.975752 953.2110620999999,83.11931399999999 959.5942621,83.25636949999999 965.6235621,83.3850636 971.2708621,83.50493809999999 976.5395620999999,83.61619069999999 981.4504621,83.7193841 986.0330620999999,83.8152367 990.3188620999999,83.90449629999999 994.3385621,83.9878743 998.1202621,84.06601699999999 1001.6891621,84.13949762 1004.6293621,84.19984" stroke="black" stroke-width="2.0" /></svg>