<?xml version="1.0" encoding="utf-8" ?>
<svg baseProfile="full" height="153.43953" version="1.1" width="1012.2072468" xmlns="http://www.w3.org/2000/svg" xmlns:ev="http://www.w3.org/2001/xml-events" xmlns:xlink="http://www.w3.org/1999/xlink"><defs /><polygon fill="none" points="1004.2072468,113.4613 1000.6829468,112.40875799999999 996.4312468,111.14439999999999 991.9613468,109.821649 987.2553468,108.43610299999999 982.2946468,106.983493 977.0620468000001,105.46004699999999 971.5433468,103.863046 965.7300468,102.19161 959.6233468,100.44774 953.2384468,98.63747 946.6082468000001,96.77171 939.7795468,94.86477 932.8050468,92.9322 925.7364468000001,90.98884999999999 918.6185468,89.04713 911.4838468,87.11583999999999 904.3506468,85.19966 897.2225467999999,83.29930999999999 890.0958468,81.41375 882.9665468000001,79.54205999999999 875.8313468,77.68348999999999 868.6877468,75.83751 861.5336468,74.00379 854.3678468,72.18213999999999 847.1898468,70.37259999999999 839.9995468000001,68.57534999999999 832.7977468,66.79077 825.5860468,65.01938999999999 818.3665468,63.2619 811.1421468,61.519149999999996 803.9165468,59.792139999999996 796.6940468,58.082139999999995 789.4786468,56.391 782.2735468,54.72045 775.0813468,53.07198999999999 767.9037468,51.446929999999995 760.7415468,49.84634 753.5949468,48.27110999999999 746.4634468,46.72194999999999 739.3458468,45.19942999999999 732.2400468000001,43.703969999999984 725.1436468,42.23585 718.0533468000001,40.79526999999999 710.9654468,39.38234 703.8752468,37.99708 696.7778468,36.63916999999999 689.6685468000001,35.30735 682.5436467999999,34.00035 675.4000468,32.71713 668.2360467999999,31.45684 661.0505468,30.21880999999999 653.8435468,29.00255999999999 646.6161467999999,27.80775 639.3704468000001,26.63422 632.1095468,25.481920000000002 624.8379467999999,24.350930000000005 617.5608468,23.241460000000004 610.2849468000001,22.15379 603.0176468,21.088279999999997 595.7672468,20.046030000000002 588.5409467999999,19.02959 581.3444468,18.04141 574.1813468,17.083569999999995 567.0537468,16.15782999999999 559.9621468,15.265659999999997 552.9054468,14.408289999999994 545.8814468,13.586769999999987 538.8863468,12.802000000000007 531.9156468,12.054699999999997 524.9631468,11.345699999999994 518.0220468,10.675699999999992 511.0841468,10.04549999999999 504.1399468,9.455799999999996 497.1789468,8.906999999999996 490.1907468,8.397099999999995 483.1668468,7.923999999999992 476.10004680000003,7.485500000000002 468.98494680000005,7.079799999999992 461.8183468,6.705299999999994 454.5989468,6.3603999999999985 447.3276468,6.043299999999988 440.0081468,5.752499999999998 432.6470468,5.486399999999989 425.2536468,5.243200000000002 417.84054679999997,5.02109999999999 410.42334680000005,4.818299999999994 403.0202468,4.6325999999999965 395.6513468,4.463699999999989 388.33464680000003,4.3152999999999935 381.08374680000003,4.191399999999987 373.9075468,4.095500000000001 366.81064680000003,4.030799999999999 359.79434679999997,4.0 352.8567468,4.005599999999987 345.9932468,4.049999999999997 339.19714680000004,4.135599999999997 332.45984680000004,4.264699999999991 325.7709468,4.439800000000005 319.1187468,4.663499999999999 312.4895468,4.9388000000000005 305.8680468,5.269300000000001 299.2369468,5.658799999999999 292.5783468,6.108199999999982 285.8766468,6.617599999999996 279.1191468,7.186700000000002 272.2962468,7.815600000000003 265.4021468,8.504099999999994 258.43474679999997,9.251499999999993 251.3972468,10.056699999999992 244.2980468,10.917299999999997 237.15204680000002,11.829999999999998 229.98064680000002,12.789900000000003 222.8117468,13.790899999999993 215.6789468,14.825059999999993 208.6192468,15.883449999999996 201.6713468,16.956429999999983 194.8709468,18.04029 188.23914680000001,19.140680000000003 181.7799468,20.264909999999986 175.4846468,21.421059999999997 169.33584679999998,22.617949999999993 163.3103468,23.865359999999995 157.38054680000002,25.17434 151.51494680000002,26.55767999999999 145.6796468,28.024609999999996 139.8475468,29.578129999999987 134.0018468,31.219480000000004 128.1364468,32.94753 122.2563468,34.75781999999998 116.37874679999999,36.641549999999995 110.53254679999999,38.58491999999998 104.75714679999999,40.56917999999999 99.0985968,42.573109999999986 93.5994568,44.582689999999985 88.2852968,46.590329999999994 83.1660868,48.59249 78.24062679999999,50.58880999999999 73.5016168,52.58143999999999 68.94932679999998,54.57014999999999 64.5965868,56.54763 60.4608368,58.50203 56.5572068,60.42002999999999 52.894346799999994,62.28945999999999 49.476576800000004,64.10194999999999 46.3005268,65.85579 43.351866799999996,67.55407 40.6118768,69.20193 38.0611068,70.80523 35.6810268,72.36992999999998 33.4547968,73.90171 31.367646800000003,75.40571 29.4068768,76.88650999999999 27.560266799999997,78.34885 25.812616799999997,79.79889 24.1535168,81.23859999999999 22.5774168,82.66563 21.0812368,84.07506 19.6627368,85.46092999999999 18.3194368,86.81754 17.048206800000003,88.14023999999999 15.8459968,89.42546999999999 14.7156468,90.66886 13.6594698,91.86832 12.6763098,93.02453 11.7632188,94.13967 10.9165218,95.21652999999999 10.1323878,96.25813 9.407131799999998,97.26741 8.7373558,98.24717 8.1200058,99.19999 7.5523768,100.12825 7.0321048,101.03408999999999 6.5571458,101.91948 6.1257538,102.78622 5.7364578,103.635937 5.3880398,104.470146 5.0795209,105.29023 4.8101458,106.09748099999999 4.5793718,106.893104 4.3868634,107.678238 4.23248982,108.45396699999999 4.11632613,109.22133 4.0386596,109.98133899999999 4.0,110.73498699999999 4.0010966,111.48326399999999 4.0429608,112.22716799999999 4.12689802,112.96772279999999 4.25453064,113.70599229999999 4.4267201,114.4430288 4.6429054999999995,115.179769 4.9026736,115.917076 5.2058893,116.65576 5.5526798,117.39658499999999 5.9434268,118.14027499999999 6.3787618,118.88751599999999 6.859564799999999,119.63895699999999 7.3869688,120.39520399999999 7.9623628,121.15681099999999 8.5873958,121.92426599999999 9.2639778,122.69796 9.9942718,123.47815 10.7806698,124.26491999999999 11.6257468,125.05803999999999 12.5321538,125.85691999999999 13.502448800000002,126.66037 14.5387868,127.46633999999999 15.6424168,128.27161999999998 16.812876799999998,129.07128 18.0489268,129.85956 19.3532968,130.63348 20.729556799999997,131.39088999999998 22.1811268,132.13004 23.7113768,132.84987 25.323866799999998,133.55034 27.0229068,134.23289 28.8143168,134.90087 30.7065768,135.55944 32.7096868,136.21044999999998 34.8344968,136.85362999999998 37.0931468,137.48866999999998 39.4992168,138.11532 42.067686800000004,138.73343 44.8145468,139.34294 47.755566800000004,139.94391 50.9045268,140.53665 54.2709568,141.12197 57.8572968,141.6996 61.6628368,142.26233 65.68167679999999,142.80015 69.9035868,143.30239999999998 74.32055679999999,143.7588 78.93473679999998,144.16002 83.76681679999999,144.49908 88.8497968,144.77679 94.2153768,144.99704 99.88635679999999,145.16574 105.8640468,145.29224 112.11494679999998,145.38303 118.58194679999998,145.43362 125.19864679999999,145.43953 131.9002468,145.39794999999998 138.6342468,145.30769 145.3664468,145.16861 152.0841468,144.98085 158.7957468,144.74432 165.5230468,144.45999 172.2869468,144.12953 179.1046468,143.75435 185.98964680000003,143.33588 192.9511468,142.87565 199.9937468,142.3756 207.11614680000002,141.83819 214.3118468,141.26578999999998 221.57244680000002,140.66009 228.88984680000002,140.02294 236.2558468,139.35638 243.66264680000003,138.66263 251.10314680000002,137.94397999999998 258.57074680000005,137.20284999999998 266.0596468,136.44165999999998 273.5650468,135.66284 281.08304680000003,134.86879 288.6105468,134.06187 296.1456468,133.24436 303.6876468,132.41843 311.2366468,131.58598 318.79324679999996,130.74792 326.3578468,129.90492 333.9301468,129.05767 341.5100468,128.20691 349.09664680000003,127.35345 356.6889468,126.4981 364.28544680000005,125.64175999999999 371.88424679999997,124.78533999999999 379.4832468,123.92980999999999 387.07984680000004,123.07618199999999 394.6712468,122.22548499999999 402.2542468,121.37879199999999 409.82514679999997,120.53724799999999 417.38074680000005,119.70248 424.9179468,118.876286 432.43454679999996,118.06036399999999 439.9288468,117.25630899999999 447.4000468,116.46561799999999 454.8474468,115.689691 462.2713468,114.92983799999999 469.67224680000004,114.1872911 477.0513468,113.46320798299999 484.4103468,112.7586845 491.75134679999996,112.07476399999999 499.0767468,111.412448 506.3895468,110.77270299999999 513.6931468,110.15593399999999 520.9904468,109.561657 528.2844468000001,108.989357 535.5774468000001,108.438572 542.8717468,107.908892 550.1695468,107.39994999999999 557.4724468000001,106.911417 564.7820468000001,106.44300299999999 572.0997468,105.994447 579.4265468,105.565517 586.7631468000001,105.156004 594.1104468,104.765723 601.4684468,104.39450199999999 608.8374468000001,104.042182 616.2173468,103.70851099999999 623.6078468,103.39317 631.0085468,103.09585 638.4190468,102.81621 645.8386468,102.55395 653.2666468,102.30873 660.7019468,102.08021 668.1437468,101.86806999999999 675.5907468,101.67196 683.0415468,101.49150999999999 690.4947468,101.32638 697.9487468,101.17617 705.4017468000001,101.04052 712.8519468000001,100.91931 720.2975468,100.81313 727.7368468,100.72264999999999 735.1685468000001,100.64855 742.5911467999999,100.59146 750.0038468,100.55201 757.4055468,100.53081 764.7955468,100.52846 772.1732468,100.54553 779.5384468,100.58260999999999 786.8907468,100.64026 794.2301467999999,100.71902 801.5566468,100.81947 808.8706468,100.94211 816.1723468,101.08717999999999 823.4621468,101.25469 830.7405468000001,101.44466999999999 838.0077468000001,101.65713 845.2643468,101.89210999999999 852.5107468,102.14965 859.7475468,102.42978 866.9751468000001,102.73257 874.1940467999999,103.05807 881.4050468,103.40634999999999 888.6085468,103.777487 895.8052468,104.17157499999999 902.9957468,104.588709 910.1804468,105.02909 917.3545468,105.49330099999999 924.5010468,105.98131099999999 931.5908468,106.491925 938.5851468,107.022697 945.4388468,107.57001699999999 952.1063468,108.129376 958.5459468,108.695762 964.7266468,109.26388999999999 970.6321468,109.82919 976.2590468000001,110.38824899999999 981.6125468,110.938684 986.7039468,111.478946 991.5475468,112.00812699999999 996.1596468,112.52578469999999 1000.5563468,113.03180859999999 1004.2072468,113.4613" stroke="black" stroke-width="2.0" /></svg>