<?xml version="1.0" encoding="utf-8" ?>
<svg baseProfile="full" height="121.8965" version="1.1" width="1012.1805164" xmlns="http://www.w3.org/2000/svg" xmlns:ev="http://www.w3.org/2001/xml-events" xmlns:xlink="http://www.w3.org/1999/xlink"><defs /><polygon fill="none" points="1004.1805164,99.55046 1000.8506164,98.5699587 996.8223164,97.391315 992.5745164,96.157274 988.0880164,94.86372300000001 983.3437164,93.506845 978.3243164,92.083578 973.0170164,90.592328 967.4164164,89.03394 961.5303164000001,87.41290000000001 955.3841164,85.73858 949.0251164,84.02634 942.5173163999999,82.29835 935.9275164,80.57835 929.3150164,78.88726 922.7245164,77.24124 916.1830164,75.65103 909.7007164,74.1224 903.2720164,72.65709 896.8795164,71.25224 890.5032164,69.89962 884.1256164,68.59121 877.7314164000001,67.31998 871.3072164,66.07963000000001 864.8412163999999,64.8644 858.3231164,63.668929999999996 851.7439164,62.488170000000004 845.0966164,61.31729000000001 838.3760163999999,60.151669999999996 831.5789163999999,58.98684 824.7048164,57.81853 817.7563164,56.64267 810.7394164,55.455490000000005 803.6643164,54.25361 796.5447164,53.03541 789.3950164,51.8043 782.2286164,50.564730000000004 775.0572163999999,49.32093 767.8905164,48.07687 760.7366163999999,46.83616 753.6014164,45.602070000000005 746.4888164,44.377449999999996 739.4008164,43.16477 732.3375164,41.966120000000004 725.2974164,40.78328 718.2771164,39.617670000000004 711.2718163999999,38.47048 704.2749163999999,37.342620000000004 697.2787164,36.23442 690.2753164,35.144059999999996 683.2581164,34.069320000000005 676.2216163999999,33.008210000000005 669.1616164,31.95895 662.0750164,30.919960000000003 654.9601164,29.889809999999997 647.8164164,28.867289999999997 640.6449164,27.85132 633.4479164,26.841040000000007 626.2295164,25.835719999999995 618.9952164,24.834860000000006 611.7523163999999,23.838089999999994 604.5096163999999,22.845280000000002 597.2771164,21.856950000000012 590.0648164,20.876440000000002 582.8808164,19.907790000000006 575.7313164,18.954700000000003 568.6211163999999,18.0205 561.5528164,17.108190000000008 554.5278164,16.22041 547.5460164,15.359530000000007 540.6058164,14.527660000000012 533.7046164000001,13.726680000000002 526.8387164,12.958290000000005 520.0033164,12.22408 513.1927164,11.525539999999992 506.4003164,10.86412 499.6185164,10.241160000000008 492.8395164,9.656149999999997 486.0565164,9.10723999999999 479.2634164,8.592780000000005 472.4552164,8.111289999999997 465.62761639999997,7.661419999999993 458.7774164,7.241979999999998 451.9021164,6.8518299999999925 445.00021639999994,6.489940000000004 438.0712164,6.155290000000008 431.1157164,5.846930000000015 424.1353164,5.5638799999999975 417.13281639999997,5.305189999999996 410.11221639999997,5.069849999999988 403.07871639999996,4.8568599999999975 396.0387164,4.665570000000002 388.9984164,4.496690000000001 381.9631164,4.351150000000004 374.9373164,4.229779999999991 367.9244164,4.1333099999999945 360.9271164,4.062439999999995 353.94691639999996,4.017810000000011 346.9846164,4.0 340.04001639999996,4.009599999999992 333.11221639999997,4.0471900000000005 326.19921639999995,4.113349999999997 319.2987164,4.208720000000014 312.4072164,4.333969999999994 305.5206164,4.489850000000004 298.63421639999996,4.677270000000007 291.74331639999997,4.897930000000002 284.8451164,5.153960000000012 277.9390164,5.447490000000002 271.0262164,5.780559999999994 264.11001639999995,6.15513 257.1957164,6.5729299999999995 250.29081639999998,7.035439999999994 243.40471639999998,7.54379999999999 236.54851639999998,8.098709999999997 229.73491639999997,8.700400000000002 222.9777164,9.34854 216.29131639999997,10.042270000000002 209.69051639999998,10.780119999999997 203.18971639999998,11.560119999999998 196.8023164,12.380809999999997 190.5361164,13.244100000000003 184.38881639999997,14.153279999999995 178.3501164,15.112539999999996 172.4035164,16.127179999999996 166.52751639999997,17.203879999999998 160.6959164,18.35118 154.8771164,19.58009 149.0332164,20.90401 143.12271639999997,22.330839999999995 137.1131164,23.863940000000014 130.98601639999998,25.503550000000004 124.7421164,27.244250000000008 118.4070164,29.071889999999996 112.0370164,30.961129999999997 105.7174164,32.87528999999999 99.5512764,34.77256 93.6290364,36.635270000000006 87.9875564,38.47034 82.61875640000001,40.293240000000004 77.4908764,42.123720000000006 72.5641264,43.98088 67.8162664,45.87315 63.2508864,47.7975 58.8866364,49.74216 54.7468364,51.68972 50.8522564,53.62071 47.2189064,55.51777 43.8449264,57.372279999999996 40.71500640000001,59.182610000000004 37.8087264,60.95094 35.1048864,62.68125 32.5835964,64.3783 30.2269664,66.04701 28.0190064,67.69244 25.9391864,69.32212 23.9715164,70.93785 22.113066399999997,72.52998 20.3660764,74.08344 18.7319864,75.58364 17.2085464,77.02019 15.7903564,78.38792000000001 14.4792664,79.68411 13.2775714,80.91046 12.180475399999999,82.07273 11.1805184,83.17781 10.269779400000001,84.23246 9.440790400000001,85.24286000000001 8.6868854,86.21446 8.0023184,87.15197 7.3822444,88.05941 6.8225794,88.94019 6.3198754,89.797315 5.871245399999999,90.633429 5.4743034,91.450856 5.1270991,92.251666 4.8280748,93.037717 4.5760247,93.810695 4.3700676,94.572145 4.20962699,95.323499 4.0944184,96.066101 4.024445,96.801228 4.0,97.530109 4.0216769,98.253946 4.09038845,98.9739344 4.20739082,99.6912779 4.3733055,100.40684350000001 4.5868534,101.120653 4.8467999,101.832528 5.1522255999999995,102.542195 5.5024923999999995,103.249278 5.8972194,103.953283 6.3362644,104.653586 6.8197104,105.349408 7.3478594,106.03979 7.921223400000001,106.723559 8.5405284,107.399277 9.2067054,108.065192 9.9208954,108.719154 10.6844484,109.358528 11.4989094,109.98006000000001 12.3660124,110.57972000000001 13.287640399999999,111.15249 14.2657764,111.69206 15.3023664,112.19049 16.399186399999998,112.63765000000001 17.5578064,113.02143000000001 18.7831664,113.33566 20.0833864,113.57939 21.4679964,113.75264 22.9482064,113.85694000000001 24.537246399999997,113.8965 26.250476399999997,113.87987 28.1047564,113.82284 30.116736399999997,113.7525 32.3023864,113.69048000000001 34.6774564,113.63758 37.2530964,113.59151 40.0322964,113.54764 43.007796400000004,113.49821 46.1618464,113.43186 49.4698064,113.33369 52.9117564,113.18541 56.487566400000006,112.96593 60.2211864,112.66852 64.1453364,112.30071 68.2964064,111.87391 72.7130264,111.40574 77.4309264,110.92416 82.4708864,110.4698 87.82608640000001,110.05867 93.4695564,109.67662 99.3619764,109.300122 105.45991640000001,108.89688699999999 111.7262164,108.441665 118.1283164,107.939866 124.6339164,107.4032 131.2133164,106.844775 137.84221639999998,106.278322 144.5037164,105.717546 151.1899164,105.175725 157.9025164,104.665159 164.6499164,104.189902 171.4400164,103.74713 178.2792164,103.33395900000001 185.1715164,102.947618 192.11851639999998,102.585391 199.11911639999997,102.244569 206.1695164,101.92243 213.2629164,101.617196 220.39171639999998,101.328794 227.5490164,101.057238 234.72801639999997,100.802438 241.92271639999998,100.564216 249.1278164,100.3423077 256.33871639999995,100.1363773 263.5515164,99.9460253 270.7631164,99.7707997 277.9713164,99.61020707 285.1746164,99.46372198 292.37261639999997,99.3307963 299.5652164,99.2108675 306.7536164,99.1033673 313.9393164,99.00779250000001 321.12421639999997,98.9237447 328.3098164,98.8508462 335.49771639999994,98.7887299 342.6891164,98.7370384 349.8852164,98.6954216 357.0871164,98.6635354 364.29561640000003,98.64103970000001 371.51141640000003,98.62759750000001 378.7352164,98.6228734 385.96731639999996,98.62653230000001 393.20811639999994,98.6382383 400.4576164,98.6576538 407.71591639999997,98.6844314 414.9828164,98.718047 422.2579164,98.7577929 429.5409164,98.8029465 436.83121639999996,98.8527782 444.12831639999996,98.9065519 451.4314164,98.963525 458.7396164,99.0229491 466.05201639999996,99.0840704 473.3675164,99.1461307 480.68491639999996,99.2083683 488.00291639999995,99.2700195 495.3201164,99.3303196 502.6349164,99.3885046 509.94571640000004,99.4439591 517.2509164,99.49718971 524.5492164,99.549220492 531.8394164,99.60107536 539.1209163999999,99.65377360000001 546.3930164,99.7083288 553.6556164,99.7657485 560.9087164,99.8270344 568.1526163999999,99.89318300000001 575.3879164,99.9651867 582.6154164,100.0440357 589.8362164,100.1307204 597.0516164,100.2262339 604.2633164,100.3315755 611.4729163999999,100.4473726 618.6824164000001,100.572781 625.8934164,100.706603 633.1073164,100.84764 640.3252164,100.994694 647.5480163999999,101.146559 654.7765164,101.30202 662.0109164,101.459856 669.2515163999999,101.618832 676.4982164,101.7777 683.7507164,101.935205 691.0084164,102.090075 698.2704164,102.241035 705.5357164,102.386798 712.8029164,102.526763 720.0706164,102.661928 727.3375164,102.79352300000001 734.6022164,102.922783 741.8637163999999,103.050944 749.1208164,103.17924000000001 756.3726164,103.308904 763.6184164,103.441162 770.8572164,103.577236 778.0884163999999,103.718343 785.3116163999999,103.86569 792.5261164,104.020477 799.7317164,104.183897 806.9281164,104.357095 814.1150164,104.539439 821.2920164,104.72786500000001 828.4580164,104.919139 835.6115164,105.110043 842.7504164,105.297376 849.8724164,105.477971 856.9743164,105.648702 864.0529164,105.806507 871.1043164,105.948399 878.1245164000001,106.071491 885.1092164,106.173018 892.0536164,106.250354 898.9530163999999,106.301038 905.8026163999999,106.322782 912.5965164,106.311933 919.3235164,106.26203 925.9668164,106.166996 932.5050163999999,106.021842 938.9144164,105.822953 945.1705164,105.568284 951.2504164000001,105.257428 957.1347164,104.891634 962.8093164,104.475691 968.2671164,104.016853 973.5075164,103.521934 978.5342164,102.997033 983.3542164,102.447486 987.9765164,101.877885 992.4111164,101.29212700000001 996.6687164,100.693496 1000.7597164,100.0847426 1004.1805164,99.55046" stroke="black" stroke-width="2.0" /></svg>