<?xml version="1.0" encoding="utf-8" ?>
<svg baseProfile="full" height="101.93558999999999" version="1.1" width="1012.1129129" xmlns="http://www.w3.org/2000/svg" xmlns:ev="http://www.w3.org/2001/xml-events" xmlns:xlink="http://www.w3.org/1999/xlink"><defs /><polygon fill="none" points="1004.1129129,80.37924 1001.0138129,79.954972 997.2606129,79.43915 993.2957129,78.89180599999999 989.0967128999999,78.309429 984.6392129,77.688178 979.8984128999999,77.023986 974.8500129,76.312799 969.4739129,75.551025 963.7593128999999,74.736278 957.7121129,73.868482 951.3636129,72.951246 944.7904129,71.995471 938.2619129,71.04145 931.8059129,70.09473999999999 925.3612128999999,69.14778 918.8832129,68.19541 912.3418128999999,67.23455999999999 905.7298129000001,66.26565 899.1519129,65.30539999999999 892.6335128999999,64.35782999999999 886.1589129,63.420609999999996 879.7149129,62.491699999999994 873.2899129,61.56938999999999 866.8738129000001,60.65218999999999 860.4580129,59.73884999999999 854.0352129,58.82829999999999 847.5989129,57.91965999999999 841.1441129,57.01221999999999 834.6668129,56.10543 828.1640129,55.19891 821.6341128999999,54.292469999999994 815.0767129,53.38607999999999 808.4928129,52.47990999999999 801.8846129,51.574299999999994 795.2560129,50.66967999999999 788.6128129,49.76652 781.9751128999999,48.86722999999999 775.3458128999999,47.971819999999994 768.7219129,47.07952999999999 762.1008129,46.18963999999999 755.4800128999999,45.301489999999994 748.8576129,44.41446 742.2320129,43.52796999999999 735.6018128999999,42.64151 728.9660129,41.75458999999999 722.3242129,40.86676999999999 715.6768129,39.97778999999999 709.0331129,39.088519999999995 702.3956129,38.19895999999999 695.7637129,37.30895999999999 689.1367128999999,36.418899999999994 682.5137129,35.52924999999999 675.8942129,34.64046999999999 669.2777129,33.75303999999999 662.6637129,32.86744999999999 656.0519129,31.984199999999987 649.4422129,31.103809999999996 642.8343129,30.226789999999987 636.2282129,29.35369999999999 629.6241129,28.485069999999993 623.0219129,27.621469999999995 616.4220129,26.763459999999995 609.8247129,25.911619999999992 603.2305129,25.06653999999999 596.6397129,24.22885999999999 590.0530128999999,23.399379999999994 583.4708128999999,22.57889999999999 576.8934129,21.768199999999993 570.3211129,20.968059999999987 563.7543129,20.179239999999993 557.1931129,19.40247999999999 550.6376128999999,18.63852 544.0879129,17.888079999999995 537.5440129,17.151849999999996 531.0059128999999,16.43052999999999 524.4734129,15.724819999999994 517.9464129,15.03537 511.42461290000006,14.362849999999995 504.90781290000007,13.707919999999987 498.39561290000006,13.071189999999987 491.88781290000003,12.453039999999987 485.38411290000005,11.85378999999999 478.8842129,11.273759999999982 472.3877129,10.713259999999991 465.8944129,10.172609999999992 459.4039129,9.652119999999996 452.91581290000005,9.152119999999996 446.42981290000006,8.672929999999994 439.94551290000004,8.21486999999999 433.46251290000004,7.778279999999995 426.98031290000006,7.363479999999996 420.49861290000007,6.970809999999986 414.0168129,6.600619999999992 407.53451290000004,6.253249999999994 401.0513129,5.929069999999982 394.5665129,5.628439999999998 388.0801129,5.351789999999994 381.59181290000004,5.099549999999994 375.10191290000006,4.872159999999994 368.6107129,4.670059999999992 362.1187129,4.49369999999999 355.6266129,4.343519999999998 349.13551290000004,4.219949999999997 342.6465129,4.123419999999996 336.16101290000006,4.054339999999996 329.68051290000005,4.013080000000002 323.2069129,4.0 316.7421129,4.015420000000006 310.2881129,4.059619999999995 303.8473129,4.132839999999987 297.42221290000003,4.2354099999999875 291.01501290000004,4.368129999999994 284.62761290000003,4.531829999999999 278.2610129,4.72735999999999 271.9157129,4.955519999999993 265.59171290000006,5.217129999999997 259.28821289999996,5.513019999999983 253.0041129,5.844069999999988 246.7376129,6.211179999999985 240.4867129,6.61533 234.24851289999998,7.057599999999994 228.01991289999998,7.53913 221.7973129,8.061229999999995 215.5764129,8.625339999999994 209.3526129,9.23308999999999 203.1206129,9.886290000000002 196.87471290000002,10.58681 190.6120129,11.335899999999995 184.3337129,12.134289999999993 178.0459129,12.982029999999995 171.7597129,13.878249999999994 165.49091289999998,14.82105 159.2596129,15.807310000000001 153.0895129,16.83270999999999 147.0053129,17.893469999999986 141.0242129,18.990049999999997 135.15001289999998,20.125029999999995 129.37561290000002,21.302699999999994 123.6850129,22.529149999999994 118.0552129,23.812609999999992 112.45641289999999,25.163939999999997 106.8511129,26.59763999999999 101.19146289999999,28.132859999999994 95.4242029,29.778949999999995 89.5273129,31.522529999999996 83.5393129,33.328269999999996 77.5730329,35.13479999999999 71.7924429,36.89511999999999 66.3190329,38.62487999999999 61.193002899999996,40.35182999999999 56.403202900000004,42.10278999999999 51.915802899999996,43.90026999999999 47.6961929,45.74266999999999 43.7120829,47.61366999999999 39.930012899999994,49.505489999999995 36.317662899999995,51.416959999999996 32.8442529,53.35198999999999 29.479622900000003,55.31917999999999 26.189442900000003,57.33877 23.0074329,59.41038999999999 20.141422900000002,61.3968 17.7195629,63.170199999999994 15.6982729,64.71642999999999 14.0041379,66.06808999999998 12.570152899999998,67.26834 11.3389479,68.35381999999998 10.268842900000001,69.35103 9.330381899999999,70.27874 8.502473900000002,71.15044999999999 7.7696829,71.97617299999999 7.1204769,72.763526 6.5460969,73.518453 6.0398139,74.245701 5.5964269,74.94914499999999 5.2119249,75.63201 4.8832478,76.29702699999999 4.6081217,76.946558 4.384947,77.58267699999999 4.2127231,78.207245 4.09100466,78.821962 4.01988435,79.428416 4.0,80.02812499999999 4.03256807,80.62257419999999 4.11944626,81.21325882 4.2622964,81.8016361 4.4604054,82.388866 4.7130711,82.97594799999999 5.0202063,83.56379799999999 5.3823179,84.15325999999999 5.8005129,84.745121 6.2765339,85.34011799999999 6.8128209,85.93893299999999 7.4126028999999996,86.542181 8.0800409,87.15038299999999 8.8204079,87.763914 9.6403399,88.38290599999999 10.548162900000001,89.00708599999999 11.5542999,89.63546299999999 12.671729899999999,90.265768 13.9163359,90.89337699999999 15.306592899999998,91.50921 16.8608929,92.09558999999999 18.5989629,92.62639999999999 20.560122900000003,93.08062 22.7944029,93.43717 25.3565829,93.68011 28.3027529,93.81635999999999 31.7017729,93.89522 35.6271129,93.93558999999999 40.100122899999995,93.92043999999999 45.037152899999995,93.83362 50.2453729,93.66811999999999 55.5159829,93.42863 60.7275929,93.11598 65.8360929,92.71517999999999 70.83490289999999,92.21033999999999 75.7452029,91.58436999999999 80.61043289999999,90.815846 85.4941729,89.89770999999999 90.46352289999999,88.855297 95.57724289999999,87.719871 100.8844129,86.531607 106.4173129,85.345699 112.17831290000001,84.20267999999999 118.1489129,83.106601 124.3030129,82.0568749 130.6091129,81.05036989999999 137.0326129,80.081245 143.5385129,79.141055 150.0940129,78.21908599999999 156.6711129,77.30302099999999 163.2487129,76.38782099999999 169.8124129,75.47916099999999 176.3515129,74.582895 182.85901289999998,73.704212 189.33171289999999,72.847634 195.7696129,72.017068 202.1759129,71.21588999999999 208.5567129,70.44679 214.9191129,69.70958999999999 221.2696129,69.00268 227.6139129,68.32462 233.9572129,67.67419 240.3039129,67.05027999999999 246.6578129,66.45192999999999 253.0223129,65.87831 259.40011289999995,65.32865999999999 265.7934129,64.80232999999998 272.20361290000005,64.29872999999999 278.63201290000006,63.817319999999995 285.0787129,63.35764999999999 291.5436129,62.919259999999994 298.0258129,62.50175999999999 304.5237129,62.104769999999995 311.0349129,61.72798999999999 317.5572129,61.37134999999999 324.08841290000004,61.03479999999999 330.6265129,60.718239999999994 337.1698129,60.42153999999999 343.71671290000006,60.144549999999995 350.2658129,59.887069999999994 356.81621290000004,59.6489 363.36711290000005,59.42979999999999 369.9177129,59.22953 376.4678129,59.04782999999999 383.0173129,58.88441999999999 389.56621290000004,58.73904999999999 396.11501290000007,58.611419999999995 402.6642129,58.50126999999999 409.21471290000005,58.408309999999986 415.7673129,58.332159999999995 422.3231129,58.272389999999994 428.8826129,58.22856999999999 435.4464129,58.20029999999999 442.0151129,58.187169999999995 448.5889129,58.18875999999999 455.16791290000003,58.204679999999996 461.7523129,58.23450999999999 468.34181290000004,58.27784 474.93621290000004,58.33426999999999 481.5350129,58.40335999999999 488.13781290000003,58.48468999999999 494.7437129,58.57782999999999 501.35201290000003,58.68232999999999 507.9615129,58.79776 514.5713129000001,58.92399999999999 521.1803128999999,59.06116999999999 527.7877129,59.209419999999994 534.3929128999999,59.36887999999999 540.9954129,59.53967999999999 547.5948129,59.721959999999996 554.1910129,59.915859999999995 560.7841129,60.121509999999994 567.3740128999999,60.339079999999996 573.9613129,60.56869999999999 580.5463129,60.81053999999999 587.1297129,61.064769999999996 593.7122129,61.33157999999999 600.2949129,61.611169999999994 606.8789129,61.90371999999999 613.4653129,62.209019999999995 620.0555128999999,62.52628999999999 626.6505129,62.85473999999999 633.2514129,63.193549999999995 639.8589129,63.541909999999994 646.4738129,63.89900999999999 653.0967128999999,64.26400999999998 659.7280129,64.63606999999999 666.3681129,65.01432999999999 673.0170128999999,65.39792 679.6750129000001,65.78595999999999 686.3418129,66.17755 693.0172129,66.57175999999998 699.7008129,66.96767 706.3920129,67.36431999999999 713.0870129,67.76075 719.7769129,68.15598 726.4619129,68.54957999999999 733.1432129,68.94118999999999 739.8221128999999,69.33046999999999 746.5002129,69.71705999999999 753.1789129,70.10061999999999 759.8601128999999,70.48082 766.5455129,70.85731999999999 773.2371129,71.22979199999999 779.9327129,71.59766199999999 786.6191129,71.959784 793.2931129,72.31557199999999 799.9524129,72.664504 806.5944129,73.00607799999999 813.2169129,73.34017499999999 819.8182128999999,73.66722899999999 826.3980128999999,73.98776199999999 832.9570129,74.30233899999999 839.4968128999999,74.611561 846.0201129,74.916062 852.5307128999999,75.216507 859.0330128999999,75.51358699999999 865.5325128999999,75.80802899999999 872.0359129,76.10059 878.5507129,76.39206899999999 885.0856129,76.683315 891.6506128999999,76.975235 898.2574129,77.26881499999999 904.9188129,77.565118 911.5895128999999,77.86209199999999 918.1913129,78.154744 924.7377129,78.44197799999999 931.2584128999999,78.72345999999999 937.7978129,78.999423 944.4171129,79.27057599999999 951.0328129,79.531607 957.4088128999999,79.772139 963.4831128999999,79.99048199999999 969.2256129,80.1871788 974.6309129,80.36369789999999 979.7099129000001,80.5219338 984.4822128999999,80.66388749999999 988.9718128999999,80.79147819999999 993.2034129,80.90645359999999 997.2008129,81.010359 1000.9861129,81.10453799999999 1004.1129129,81.17924" stroke="black" stroke-width="2.0" /></svg>