<?xml version="1.0" encoding="utf-8" ?>
<svg baseProfile="full" height="103.57972" version="1.1" width="1012.246221" xmlns="http://www.w3.org/2000/svg" xmlns:ev="http://www.w3.org/2001/xml-events" xmlns:xlink="http://www.w3.org/1999/xlink"><defs /><polygon fill="none" points="1004.246221,84.59899 1001.435121,83.8589268 998.035621,82.970642 994.4498209999999,82.041599 990.657821,81.067993 986.638021,80.045781 982.366821,78.970825 977.8204209999999,77.839191 972.975921,76.647658 967.8153209999999,75.394555 962.330621,74.08098 956.5309209999999,72.71236999999999 950.451021,71.30009 944.1743210000001,69.8657 937.944021,68.46478 931.7623209999999,67.09656 925.5731209999999,65.74759 919.334721,64.40831 913.020621,63.07285 906.719121,61.75935 900.493921,60.479929999999996 894.328321,59.22974 888.205121,58.00414 882.110121,56.7992 876.0308210000001,55.61153 869.956421,54.43821 863.8776210000001,53.2767 857.786521,52.124779999999994 851.6763209999999,50.9805 845.5413209999999,49.84219 839.3774209999999,48.708420000000004 833.1812209999999,47.577980000000004 826.951121,46.44990000000001 820.686621,45.32348 814.3890210000001,44.19825 808.0612209999999,43.07402 801.707721,41.95089 795.334721,40.82996 788.9481209999999,39.71334 782.553521,38.60309 776.155821,37.501180000000005 769.7593209999999,36.40943 763.367921,35.329519999999995 756.9846210000001,34.26302 750.611921,33.21133 744.251621,32.175709999999995 737.9048210000001,31.157320000000006 731.5721209999999,30.15717 725.253421,29.17615 718.948121,28.215070000000004 712.655121,27.274630000000002 706.372621,26.355470000000004 700.098421,25.45807 693.830321,24.58227 687.565821,23.727489999999996 681.303221,22.893190000000004 675.040621,22.078920000000004 668.7764209999999,21.284250000000007 662.509221,20.508799999999994 656.2378209999999,19.752229999999997 649.9611209999999,19.01424 643.678221,18.29455 637.3885210000001,17.59294 631.091421,16.90919000000001 624.786621,16.24311 618.473921,15.59454000000001 612.153421,14.963350000000005 605.8252209999999,14.349400000000003 599.489821,13.752589999999998 593.1477209999999,13.172880000000006 586.7994209999999,12.610250000000008 580.445421,12.064689999999999 574.086421,11.536180000000002 567.723021,11.024680000000004 561.3559210000001,10.530159999999995 554.985621,10.052599999999998 548.613021,9.591949999999997 542.238821,9.148160000000004 535.8637209999999,8.72117999999999 529.488521,8.310950000000005 523.1141210000001,7.917419999999993 516.741321,7.540500000000009 510.37092099999995,7.180120000000002 504.003921,6.836200000000005 497.641121,6.508780000000002 491.283421,6.198460000000011 484.931521,5.9058800000000105 478.58582099999995,5.631700000000009 472.246721,5.376559999999998 465.914221,5.141069999999999 459.588421,4.925849999999997 453.269021,4.731499999999997 446.95562099999995,4.558599999999998 440.647721,4.4077700000000135 434.344521,4.279589999999999 428.04522099999997,4.174670000000006 421.748721,4.093609999999998 415.453821,4.037050000000008 409.159221,4.0056200000000075 402.863221,4.0 396.564221,4.020590000000013 390.26082099999996,4.067210000000003 383.95162100000005,4.13964 377.63602099999997,4.237650000000002 371.313521,4.361040000000003 364.983921,4.509600000000006 358.64762099999996,4.68307999999999 352.305221,4.8812500000000085 345.957721,5.103840000000005 339.606521,5.350549999999998 333.253421,5.621039999999994 326.900721,5.914929999999998 320.550821,6.231769999999997 314.206721,6.571079999999995 307.871721,6.932310000000001 301.54932099999996,7.314849999999993 295.243421,7.718729999999994 288.957221,8.14473000000001 282.693021,8.593699999999998 276.452421,9.066479999999999 270.23572099999996,9.563970000000012 264.042921,10.08708999999999 257.87292099999996,10.63682 251.724021,11.214219999999997 245.59362099999998,11.820440000000005 239.478721,12.456730000000007 233.375421,13.124479999999991 227.279221,13.825240000000008 221.184821,14.560759999999988 215.086521,15.33299000000001 208.977221,16.144170000000003 202.849421,16.996849999999995 196.69462099999998,17.89255 190.505921,18.829849999999993 184.28012099999998,19.806389999999993 178.018721,20.81904 171.727521,21.863690000000005 165.417721,22.93515 159.105521,24.027070000000002 152.812121,25.132040000000003 146.562121,26.24584 140.377121,27.372729999999997 134.270121,28.51878 128.246221,29.690710000000003 122.304121,30.895899999999997 116.43652100000001,32.14241 110.631821,33.43918 104.87432100000001,34.79632 99.144581,36.22384 93.42541100000001,37.72383 87.706281,39.29459 81.983751,40.93291 76.261481,42.63422 70.55143100000001,44.4034 64.892021,46.247240000000005 59.35343099999999,48.158 54.021710999999996,50.11387 48.978111,52.07978 44.257070999999996,54.019310000000004 39.818161,55.92805 35.58563099999999,57.82458 31.463851,59.7448 27.322171,61.75352 23.112000999999996,63.96552 19.454461000000002,66.1476 16.725031,67.97385 14.634611000000001,69.49527 12.965154,70.79831 11.589941,71.94332 10.427348,72.97392 9.427319,73.91799 8.557459999999999,74.794106 7.79572,75.615226 7.126498,76.390781 6.538419,77.127864 6.0230239999999995,77.831966 5.573943,78.507443 5.1863651,79.15782300000001 4.8566877999999996,79.78602000000001 4.5822813,80.39448 4.3613323,80.985294 4.19274434,81.560273 4.0760809,82.121014 4.0115463,82.668949 4.0,83.205386 4.0430087,83.7315458 4.1429425,84.2485939 4.30309899,84.7576819 4.5259055,85.26018930000001 4.811583,85.75778700000001 5.1610209000000005,86.252073 5.576116,86.74459 6.059882,87.236875 6.6166409999999996,87.730513 7.252334,88.227195 7.974988,88.728776 8.795452000000001,89.237364 9.728536,89.755412 10.794861000000001,90.285828 12.023916,90.832057 13.459206,91.397929 15.166331000000001,91.9864 17.237401,92.592604 19.798240999999997,93.190481 23.067560999999998,93.733546 27.060640999999997,94.146214 31.502951,94.465148 36.293121,94.77163 41.399111,95.05522 46.769931,95.29719 52.341531,95.4766 58.04778099999999,95.57263 63.854021,95.57972 69.746581,95.50436 75.71454100000001,95.35577 81.750741,95.14502 87.84607100000001,94.88064 93.98683100000001,94.566888 100.16261100000001,94.207976 106.36732100000002,93.808178 112.600421,93.371438 118.86442100000001,92.901386 125.160821,92.401801 131.49042100000003,91.876685 137.852421,91.330299 144.245021,90.76718 150.664821,90.192154 157.10712099999998,89.610259 163.565621,89.024707 170.02572099999998,88.437098 176.48132099999998,87.848146 182.936421,87.257651 189.39402099999998,86.665498 195.855921,86.071673 202.31782099999998,85.4767322 208.774421,84.8813187 215.22672099999997,84.2856005 221.67552099999997,83.6897788 228.121721,83.094064 234.56612099999998,82.498676 241.009121,81.903844 247.451521,81.309807 253.893521,80.716816 260.335421,80.125128 266.77752100000004,79.535014 273.21982099999997,78.946753 279.66232099999996,78.360633 286.104821,77.776954 292.547221,77.196022 298.98902100000004,76.618157 305.429821,76.043682 311.86912099999995,75.472996 318.306321,74.906646 324.740921,74.34519 331.172621,73.78918 337.601021,73.23916 344.025921,72.69566 350.447121,72.15919 356.864621,71.63028 363.27822100000003,71.10943 369.68812099999997,70.59713 376.094421,70.09387 382.49722099999997,69.60014 388.896921,69.1164 395.293721,68.64314 401.688221,68.18082 408.08062099999995,67.72987 414.471721,67.29049 420.86172100000005,66.86268 427.251121,66.44644 433.640221,66.04178 440.02942099999996,65.64871 446.41892099999995,65.26724 452.809021,64.8974 459.199921,64.5392 465.59162100000003,64.19269 471.984421,63.85788 478.378421,63.534819999999996 484.773421,63.22355 491.169621,62.92409 497.566921,62.63651 503.965121,62.36083 510.36422099999993,62.097120000000004 516.7640210000001,61.845510000000004 523.164421,61.60616 529.565121,61.37923000000001 535.966021,61.16487 542.366921,60.96322 548.767521,60.77445 555.167821,60.5987 561.567321,60.43611 567.966021,60.28685 574.363521,60.15105 580.759721,60.02886 587.154221,59.920410000000004 593.546921,59.82585 599.937321,59.74532 606.3253209999999,59.67895 612.7106210000001,59.62687 619.0929209999999,59.589240000000004 625.472121,59.56621 631.848121,59.55791 638.221121,59.5645 644.5910210000001,59.58612 650.958221,59.62292 657.322921,59.675039999999996 663.685721,59.74265 670.0468209999999,59.825900000000004 676.407021,59.92497 682.766921,60.04002 689.127321,60.17123 695.4890210000001,60.31881 701.852921,60.48295 708.2202209999999,60.66387 714.591721,60.86168 720.9683210000001,61.07638 727.3505210000001,61.308 733.738421,61.556529999999995 740.131721,61.82199 746.530121,62.10434 752.932721,62.40354000000001 759.338421,62.719539999999995 765.745621,63.052220000000005 772.152621,63.40147 778.557321,63.767120000000006 784.957221,64.14896 791.349621,64.54675 797.7313210000001,64.96017 804.0992210000001,65.3889 810.449721,65.83243 816.7800209999999,66.28977 823.0884209999999,66.75989 829.374421,67.24185 835.6390210000001,67.73482 841.883921,68.23809 848.112221,68.75104 854.327821,69.27321 860.535921,69.80423 866.7426210000001,70.34387 872.955021,70.89203 879.181521,71.44877 885.431921,72.01427 891.7175209999999,72.58889 898.051321,73.17317 904.4484209999999,73.76785 910.885621,74.37057 917.2468210000001,74.971918 923.533121,75.573607 929.7705209999999,76.179681 935.997721,76.795559 942.268421,77.428387 948.650621,78.087371 954.9593209999999,78.75538 960.9815209999999,79.40979 966.673721,80.043574 972.023221,80.652688 977.037421,81.235514 981.735721,81.79205400000001 986.1425210000001,82.323271 990.284221,82.830631 994.186021,83.315806 997.871521,83.7805039 1001.362121,84.2263698 1004.246221,84.59899" stroke="black" stroke-width="2.0" /></svg>