<?xml version="1.0" encoding="utf-8" ?>
<svg baseProfile="full" height="101.518445" version="1.1" width="1012.240454" xmlns="http://www.w3.org/2000/svg" xmlns:ev="http://www.w3.org/2001/xml-events" xmlns:xlink="http://www.w3.org/1999/xlink"><defs /><polygon fill="none" points="1004.240454,86.51973 1001.518854,85.9309499 998.2228540000001,85.21929899999999 994.739654,84.468884 991.047554,83.675356 987.1224540000001,82.833852 982.937554,81.939055 978.4644539999999,80.98536999999999 973.674854,79.967342 968.544354,78.88044 963.058754,77.722403 957.223654,76.49526 951.1007539999999,75.21278 945.0513540000001,73.95173 939.119954,72.72259 933.231254,71.51093 927.328754,70.30651999999999 921.368954,69.10213999999999 915.319354,67.8932 909.159954,66.67793999999999 902.979554,65.47603 896.888054,64.30951999999999 890.8651540000001,63.173449999999995 884.891954,62.06323 878.952354,60.974999999999994 873.032554,59.905539999999995 867.120654,58.852059999999994 861.2063539999999,57.812219999999996 855.2805539999999,56.78397 849.335454,55.76557 843.364454,54.755539999999996 837.3620540000001,53.75261999999999 831.323954,52.75579 825.247254,51.76427999999999 819.1301540000001,50.777499999999996 812.972754,49.79514999999999 806.776654,48.817139999999995 800.545254,47.84363999999999 794.2841540000001,46.87508999999999 788.0252539999999,45.915839999999996 781.784154,44.96757999999999 775.556254,44.028929999999995 769.337454,43.098609999999994 763.124254,42.175399999999996 756.913054,41.25817 750.701054,40.345859999999995 744.4856540000001,39.437459999999994 738.264554,38.532019999999996 732.035654,37.62864 725.797554,36.726479999999995 719.548854,35.824709999999996 713.2886540000001,34.92258999999999 707.016354,34.0194 700.737254,33.11533 694.468354,32.213449999999995 688.210954,31.315559999999998 681.964254,30.42324 675.7279540000001,29.538039999999995 669.501054,28.66145999999999 663.282954,27.79499 657.0725540000001,26.940099999999994 650.868954,26.098229999999994 644.6710539999999,25.270799999999994 638.4776539999999,24.459219999999995 632.287554,23.66489 626.099354,22.889199999999988 619.911554,22.133539999999996 613.7226539999999,21.399299999999982 607.531054,20.68786999999999 601.3349539999999,20.000609999999995 595.132654,19.33748999999999 588.922954,18.697019999999995 582.704654,18.077629999999985 576.4769540000001,17.47780999999999 570.2392540000001,16.896079999999998 563.990954,16.330949999999987 557.731954,15.780969999999996 551.462254,15.244679999999988 545.1822540000001,14.720649999999992 538.892354,14.207439999999991 532.593554,13.703609999999998 526.286654,13.207759999999993 519.973254,12.718439999999987 513.654654,12.234249999999989 507.332854,11.753779999999992 501.009954,11.275710000000004 494.687954,10.800239999999988 488.36895400000003,10.329059999999998 482.054354,9.863869999999991 475.745654,9.406359999999992 469.443854,8.958159999999992 463.14975400000003,8.520880000000005 456.86395400000004,8.09608999999999 450.586754,7.68535 444.318154,7.290139999999994 438.058054,6.911960000000008 431.806054,6.552250000000001 425.561454,6.212439999999987 419.323354,5.893950000000004 413.090654,5.598190000000002 406.862054,5.3265499999999975 400.636054,5.080380000000005 394.410854,4.860129999999998 388.185254,4.665499999999994 381.957954,4.496229999999997 375.728054,4.3520599999999945 369.494854,4.232759999999999 363.257754,4.1381099999999975 357.016554,4.0678999999999945 350.771154,4.021929999999998 344.521854,4.0 338.268954,4.001909999999995 332.013154,4.0274499999999875 325.755354,4.07638 319.496654,4.148480000000006 313.238354,4.243489999999994 306.982154,4.3611099999999965 300.729854,4.501119999999986 294.48355399999997,4.664580000000001 288.245354,4.85369 282.017154,5.070599999999999 275.80055400000003,5.317459999999997 269.596954,5.5963899999999995 263.407354,5.909459999999996 257.232654,6.25873 251.073354,6.6462299999999885 244.929754,7.073980000000006 238.802154,7.543989999999994 232.690254,8.05829 226.593754,8.618899999999996 220.512154,9.227879999999999 214.444654,9.887289999999993 208.390454,10.599279999999993 202.348154,11.366019999999992 196.316754,12.188639999999992 190.294654,13.06653999999999 184.280554,13.999039999999994 178.273154,14.985519999999994 172.270954,16.02543999999999 166.272354,17.118349999999992 160.276054,18.263840000000002 154.280254,19.461609999999993 148.283654,20.71203 142.28625399999999,22.017809999999997 136.291254,23.381759999999993 130.304354,24.80590999999999 124.33445400000001,26.291369999999993 118.392954,27.838179999999994 112.493954,29.445159999999994 106.653254,31.10982 100.888024,32.82835 95.21079399999999,34.596329999999995 89.610904,36.4156 84.05114400000001,38.29795 78.467304,40.26722 72.76823399999999,42.367819999999995 66.927974,44.64346 61.098674,47.07086999999999 55.535504,49.562259999999995 50.556994,51.956739999999996 46.206514,54.172869999999996 42.315984,56.24366 38.695824,58.24064 35.159374,60.25296999999999 31.442154,62.430659999999996 27.030213999999997,65.09764999999999 23.393084,67.39537 19.753453999999998,69.82236 15.449323999999999,72.8586 13.072265999999999,74.62832 11.38405,75.95448999999999 10.067675999999999,77.046814 8.989673,77.993926 8.083477,78.840008 7.31066,79.610681 6.646939,80.32231499999999 6.076036,80.986104 5.5866240000000005,81.610091 5.1706551,82.200283 4.8223911,82.761307 4.5378184,83.296818 4.31428553,83.809764 4.15028712,84.302567 4.04535,84.777253 4.0,85.23554 4.0158046,85.6789089 4.0954993,86.1086595 4.243221246,86.52595345499999 4.4636025,86.932088 4.7583117999999995,87.32912999999999 5.1295873,87.719208 5.581565,88.104395 6.120696000000001,88.48683199999999 6.756499,88.86887399999999 7.502846,89.253304 8.380279,89.643666 9.420399,90.044877 10.675077,90.464475 12.238672,90.915581 14.314423999999999,91.42554899999999 17.468194,92.06608 22.812094000000002,92.861357 28.144884,93.29602399999999 32.758523999999994,93.467377 36.883604000000005,93.518445 41.055704,93.497605 45.595333999999994,93.415894 50.852354,93.273744 56.982684,93.084262 62.906124000000005,92.88590099999999 68.84988399999999,92.640766 75.00525400000001,92.30212399999999 80.802674,91.871282 86.402444,91.344065 92.01371400000001,90.73809 97.771614,90.07272499999999 103.75605399999999,89.375181 109.970154,88.682728 116.21275399999999,88.02457299999999 122.36525400000001,87.4067106 128.485354,86.81659409999999 134.616254,86.2441051 140.789154,85.6807078 147.023754,85.118927 153.320654,84.552708 159.593254,83.984737 165.82305399999998,83.418281 172.025454,82.856076 178.212654,82.301006 184.39465399999997,81.75615599999999 190.57905399999999,81.224841 196.771354,80.71062599999999 202.974854,80.217327 209.190554,79.74854099999999 215.41805399999998,79.304564 221.656754,78.884136 227.90585399999998,78.485965 234.16465399999998,78.10873799999999 240.432454,77.751121 246.708654,77.411762 252.992554,77.089292 259.283654,76.782325 265.581054,76.48946 271.884354,76.20929 278.192954,75.94037 284.506254,75.68128999999999 290.823654,75.43059 297.144654,75.18681 303.468754,74.9485 309.795454,74.71436 316.124454,74.4841 322.455254,74.25779 328.787654,74.03550999999999 335.12125399999996,73.81730999999999 341.455654,73.60327 347.79065399999996,73.39345 354.12575400000003,73.18793 360.460754,72.98675 366.79535400000003,72.78999999999999 373.129054,72.59772 379.46165399999995,72.40999 385.792754,72.22685 392.122154,72.04838 398.449454,71.87463 404.774454,71.70564999999999 411.096654,71.5416 417.415954,71.38295 423.73215400000004,71.23021 430.04495399999996,71.08391 436.354454,70.94454999999999 442.660554,70.81264999999999 448.96345399999996,70.68871 455.263354,70.57323 461.560354,70.46672 467.854854,70.36967999999999 474.147154,70.28260999999999 480.437854,70.20600999999999 486.727354,70.14039 493.016354,70.08624 499.305554,70.04408 505.59555400000005,70.01442 511.8872539999999,69.99744999999999 518.181354,69.99264 524.478554,69.99938 530.779354,70.01705999999999 537.0840539999999,70.04508 543.3928539999999,70.08282 549.705954,70.12968 556.0233539999999,70.18503 562.3446540000001,70.24826999999999 568.669754,70.31877 574.998154,70.3959 581.329254,70.47903 587.662254,70.56751 593.996354,70.66069999999999 600.330654,70.75795 606.663754,70.85862 612.994654,70.96249999999999 619.322054,71.07003999999999 625.645254,71.18171 631.9635539999999,71.29798 638.276654,71.41933999999999 644.584354,71.54625 650.886754,71.6792 657.184254,71.81868 663.4772539999999,71.96517 669.766554,72.11916 676.053254,72.28116 682.338554,72.45168 688.6238539999999,72.63125 694.910854,72.82039999999999 701.201554,73.01971 707.4979539999999,73.22972 713.802454,73.45048 720.116854,73.68154 726.442554,73.92239 732.779554,74.1725 739.112054,74.43064 745.432454,74.69588999999999 751.7416539999999,74.96763999999999 758.041454,75.24534 764.333854,75.52846 770.621754,75.81654 776.908454,76.10913 783.197654,76.40581 789.493954,76.70621 795.802254,77.010002 802.1282540000001,77.31687099999999 808.455654,77.625463 814.753554,77.933785 821.0174539999999,78.241222 827.2452539999999,78.54729499999999 833.4368539999999,78.85163 839.5939539999999,79.153947 845.7197540000001,79.454054 851.8186539999999,79.75184 857.896854,80.04726699999999 863.961554,80.340362 870.0214540000001,80.631213 876.0866540000001,80.91997099999999 882.169054,81.206841 888.282154,81.49209499999999 894.442154,81.77606899999999 900.6677540000001,82.059174 906.973354,82.341568 913.230254,82.617561 919.379154,82.885324 925.436154,83.146355 931.4304539999999,83.40263 937.403154,83.65654099999999 943.4081540000001,83.910979 949.517754,84.169598 955.7810539999999,84.435113 961.8271540000001,84.692235 967.5102539999999,84.93468999999999 972.819454,85.161867 977.767854,85.374197 982.3810540000001,85.5726572 986.6895539999999,85.75845079999999 990.724054,85.9328142 994.513154,86.0969216 998.0831539999999,86.2518425 1001.457254,86.3985295 1004.240454,86.51973" stroke="black" stroke-width="2.0" /></svg>