<?xml version="1.0" encoding="utf-8" ?>
<svg baseProfile="full" height="106.99756199999999" version="1.1" width="1012.1659701" xmlns="http://www.w3.org/2000/svg" xmlns:ev="http://www.w3.org/2001/xml-events" xmlns:xlink="http://www.w3.org/1999/xlink"><defs /><polygon fill="none" points="1004.1659701,91.02465 1001.4989701,90.3523992 998.2710701,89.542818 994.8620701,88.692668 991.2513701,87.797618 987.4155701,86.85286099999999 983.3287700999999,85.85317699999999 978.9630701,84.79312499999999 974.2900701,83.66744299999999 969.2840701,82.471819 963.9272701,81.20418699999999 958.2188701,79.8667 952.1906701,78.46924999999999 946.1649701,77.08742 940.2783701,75.75130999999999 934.4532701,74.44189 928.6317701,73.14524999999999 922.7697701,71.85096999999999 916.8338701,70.55131 910.8014701000001,69.24104 904.6662701,67.91855 898.5498701,66.60955999999999 892.5074701,65.32552 886.5202701000001,64.06212 880.5717701,62.81569999999999 874.6481701,61.58319999999999 868.7373701,60.362049999999996 862.8289701,59.15004999999999 856.9138700999999,57.94536999999999 850.9844701000001,56.746489999999994 845.0342701,55.55217 839.0576701,54.36144999999999 833.0507700999999,53.17360999999999 827.0105701,51.988249999999994 820.9354701,50.805209999999995 814.8255701,49.624649999999995 808.6823701,48.44703 802.5091701,47.27313999999999 796.3108701,46.10426 790.1066701,44.94472 783.9127701,43.798249999999996 777.7246701,42.66468999999999 771.5382701,41.543969999999995 765.3497701,40.43610999999999 759.1561700999999,39.34128 752.9545701,38.259739999999994 746.7427701,37.19186 740.5191701,36.138149999999996 734.2913701,35.100649999999995 728.0717701,34.08212999999999 721.8605700999999,33.083239999999996 715.6573701,32.104519999999994 709.4611701,31.146449999999994 703.2704701,30.20940999999999 697.0835701,29.293479999999995 690.8985701,28.39788999999999 684.7138701,27.52172999999999 678.5280700999999,26.664140000000003 672.3398701,25.82432 666.1481700999999,25.001479999999987 659.9520701,24.194879999999998 653.7507701,23.40383 647.5437701,22.627629999999996 641.3306701,21.865650000000002 635.1111701,21.117239999999995 628.8852701,20.3818 622.6530700999999,19.658739999999995 616.4148700999999,18.947489999999988 610.1711701,18.24749 603.9225700999999,17.558189999999996 597.6699701,16.879239999999996 591.4141701,16.211009999999987 585.1557700999999,15.554099999999991 578.8956701,14.909069999999986 572.6341701,14.276509999999988 566.3720701,13.656949999999995 560.1098701000001,13.050969999999992 553.8477700999999,12.459079999999986 547.5864700999999,11.881809999999987 541.3260701,11.319689999999994 535.0670701,10.773219999999995 528.8094701,10.242899999999992 522.5535700999999,9.729219999999998 516.2994701,9.232649999999992 510.04727009999993,8.753679999999989 503.7968701,8.292770000000004 497.5483701,7.850449999999995 491.30167009999997,7.427509999999998 485.0569701,7.024829999999994 478.8140701,6.643289999999993 472.5730701,6.2837399999999946 466.3339701,5.9470699999999965 460.0967701,5.634129999999999 453.8613701,5.345789999999994 447.6276701,5.082920000000001 441.3957701,4.846369999999993 435.16547009999994,4.637009999999989 428.9367701,4.455699999999993 422.7094701,4.303299999999993 416.4835701,4.180679999999981 410.25887009999997,4.088700000000003 404.0352701,4.028239999999997 397.8126701,4.0 391.5907701,4.003839999999997 385.3697701,4.039359999999988 379.1492701,4.1061499999999995 372.9292701,4.203810000000004 366.7095701,4.331969999999998 360.49007009999997,4.490229999999997 354.2705701,4.678219999999996 348.0509701,4.895559999999989 341.8309701,5.1418800000000005 335.61047009999993,5.416839999999993 329.38917009999994,5.720069999999993 323.1668701,6.051230000000004 316.94347009999996,6.40997999999999 310.71857009999997,6.795979999999986 304.49197009999995,7.2089 298.2633701,7.648459999999986 292.0324701,8.114529999999988 285.7993701,8.60709 279.5638701,9.126059999999995 273.3262701,9.671379999999985 267.0870701,10.24297 260.84657009999995,10.840710000000001 254.6057701,11.464470000000006 248.3652701,12.11408999999999 242.1263701,12.789360000000002 235.8901701,13.49006 229.6580701,14.215919999999983 223.43157010000002,14.966629999999995 217.21247010000002,15.741829999999993 211.0025701,16.541129999999995 204.8038701,17.36408 198.6185701,18.21047999999999 192.44887010000002,19.08224 186.29637010000002,19.982280000000003 180.1616701,20.913589999999985 174.0445701,21.879259999999988 167.94387010000003,22.882499999999993 161.8577701,23.926689999999994 155.7836701,25.015389999999996 149.7179701,26.15262 143.6590701,27.34525 137.60907010000003,28.601469999999992 131.5743701,29.928619999999988 125.56517009999999,31.332989999999995 119.5949701,32.819449999999996 113.6806701,34.39114999999999 107.84167009999999,36.049299999999995 102.0988101,37.79284 96.4697001,39.613899999999994 90.9411801,41.50415999999999 85.45970009999999,43.470949999999995 79.9317801,45.5408 74.2064501,47.771179999999994 68.62063009999999,50.04559999999999 63.329010100000005,52.308899999999994 57.9958201,54.714639999999996 52.38545010000001,57.39844999999999 47.7674601,59.73134999999999 43.8608201,61.789199999999994 40.3810001,63.686479999999996 37.118390100000006,65.52114 33.8779301,67.39885 30.3520301,69.50912 25.9123101,72.27695 23.1218401,74.08009999999999 20.2832101,75.95300999999999 16.1712401,78.70706999999999 12.940268099999999,80.91892 11.1057051,82.236031 9.7322291,83.27388699999999 8.6312921,84.15328799999999 7.7178930999999995,84.92871 6.9489701,85.627248 6.2966631,86.26694599999999 5.7433351,86.859387 5.2769921,87.41278 4.8894476000000004,87.933078 4.5751131,88.424791 4.3302948,88.89156299999999 4.15303211,89.33608699999999 4.0426674,89.760781 4.0,90.16753179999999 4.0272719,90.55774749999999 4.12834884,90.93274428999999 4.308571,91.29373469999999 4.5704469,91.64283999999999 4.915961,91.9824309 5.3494461,92.31478899999999 5.8782671,92.642322 6.5136891,92.967627 7.2725571,93.29375399999999 8.181574099999999,93.625023 9.2830511,93.967462 10.6561721,94.33247499999999 12.456653099999999,94.74132399999999 14.7054001,95.18159499999999 20.4015101,96.15339999999999 24.0194401,96.698922 28.764540099999998,97.287999 33.1347101,97.694063 36.9264801,97.96208999999999 40.7016701,98.170465 44.769080100000004,98.34652899999999 49.467460100000004,98.507286 55.496270100000004,98.67962499999999 61.218020100000004,98.827024 66.72390010000001,98.93755499999999 72.4750901,98.99756199999999 78.6583101,98.97254699999999 84.47640009999999,98.84445699999999 90.1896301,98.62533699999999 95.97393009999999,98.322361 101.9344001,97.938194 108.1012701,97.477949 114.37767009999999,96.955226 120.55747009999999,96.39571099999999 126.6934701,95.804735 132.82817010000002,95.187159 138.9921701,94.548402 145.2049701,93.894965 151.47367010000002,93.23497499999999 157.7160701,92.58591299999999 163.9292701,91.95125119999999 170.1292701,91.3279661 176.32887010000002,90.71333779999999 182.53797010000002,90.10501099999999 188.7635701,89.500941 195.00987010000003,88.89936399999999 201.2780701,88.298783 207.5650701,87.69815799999999 213.8421701,87.10009 220.10807010000002,86.50564499999999 226.36677010000002,85.915419 232.6218701,85.330044 238.8766701,84.75020199999999 245.13387010000002,84.176616 251.39587010000002,83.61005899999999 257.66487010000003,83.051352 263.9423701,82.50136499999999 270.2298701,81.961007 276.5227701,81.431703 282.8066701,80.91564 289.0814701,80.41376 295.3477701,79.92694999999999 301.60647009999997,79.45603 307.8588701,79.00179999999999 314.10647009999997,78.56443999999999 320.35057009999997,78.1437 326.5924701,77.73935999999999 332.8332701,77.35119999999999 339.07397009999994,76.97904 345.3153701,76.6227 351.5583701,76.28201999999999 357.80347009999997,75.95685999999999 364.0513701,75.6471 370.30237009999996,75.35261 376.5567701,75.07327 382.8148701,74.809 389.0767701,74.55969999999999 395.3423701,74.32525999999999 401.61147009999996,74.10561999999999 407.8839701,73.90065999999999 414.1593701,73.71009 420.4374701,73.53343 426.71787009999997,73.37021999999999 433.0005701,73.21997999999999 439.2850701,73.08224 445.5712701,72.95649999999999 451.8590701,72.84228999999999 458.1482701,72.73911 464.43877009999994,72.64649 470.73037009999996,72.56392 477.02317009999996,72.49092999999999 483.3169701,72.42701 489.6118701,72.37167 495.90787009999997,72.32441999999999 502.20497009999997,72.28477 508.50317010000003,72.25224 514.8027701,72.22658 521.1036701,72.20766 527.4059701,72.19534999999999 533.7095701,72.18951999999999 540.0144700999999,72.19004 546.3204701,72.19679 552.6275701,72.20963 558.9355701,72.22843 565.2440701,72.25307 571.5529700999999,72.2834 577.8618701,72.3193 584.1705701,72.36062 590.4783700999999,72.40724 596.7851701,72.45902 603.0901701,72.5158 609.3931700999999,72.57749999999999 615.6934701,72.64428 621.9907701,72.71641 628.2847701,72.79414 634.5755701,72.87776 640.8629701,72.96753 647.1473701,73.06370999999999 653.4289701,73.16658 659.7081701,73.27642 665.9856701,73.39348999999999 672.2620701,73.51809999999999 678.5381701,73.65052 684.8150701,73.79104999999998 691.0937700999999,73.94001 697.3755701,74.09769 703.6617701,74.26444 709.9539701,74.44060999999999 716.2533701,74.62675999999999 722.5608700999999,74.82343999999999 728.8736700999999,75.03112999999999 735.1790701,75.24991 741.4757701,75.48021 747.7648700999999,75.72255 754.0477701,75.97746 760.3265700999999,76.24548 766.6035701000001,76.52722999999999 772.8817700999999,76.82334 779.1643700999999,77.13450999999999 785.4554701,77.4615 791.7582701,77.80507 798.0522701,78.16462999999999 804.3212701,78.53966 810.5600701,78.92958999999999 816.7642701,79.33206999999999 822.9314701000001,79.74445 829.0611701,80.16427999999999 835.1543700999999,80.58931 841.2135701,81.01746 847.2429701,81.44686399999999 853.2476701,81.875778 859.2343701,82.302628 865.2106701,82.72595299999999 871.1858701,83.144392 877.1702700999999,83.556654 883.1761700999999,83.961489 889.2175701,84.35765799999999 895.3108701,84.743894 901.4753701,85.11885099999999 907.7322701,85.481144 913.9731701000001,85.82542699999999 920.1035701,86.15085599999999 926.1411701,86.462775 932.1173701,86.766752 938.0750701000001,87.06862199999999 944.0707701,87.37480599999999 950.1796701,87.69295799999999 956.4101701,88.02775899999999 962.3739701,88.36024099999999 967.9741701,88.68329299999999 973.2032700999999,88.99443199999999 978.0763701,89.29263999999999 982.6198701,89.577845 986.8639701,89.850512 990.8390701,90.1113797 994.5736701,90.36129009999999 998.0932700999999,90.60110089999999 1001.4205701,90.83163499999999 1004.1659701,91.02465" stroke="black" stroke-width="2.0" /></svg>