<?xml version="1.0" encoding="utf-8" ?>
<svg baseProfile="full" height="187.41807" version="1.1" width="1012.3318414" xmlns="http://www.w3.org/2000/svg" xmlns:ev="http://www.w3.org/2001/xml-events" xmlns:xlink="http://www.w3.org/1999/xlink"><defs /><polygon fill="none" points="1004.3318414,142.7859 1000.4939414,141.35141099999998 995.8827414,139.636142 991.0587414,137.85141099999998 986.0072414,135.993077 980.7137414,134.057343 975.1654414,132.04112 969.3521414,129.94252 963.2685414,127.76156 956.9165414,125.50094999999999 950.3081414000001,123.16695 943.4661414,120.76927 936.4211414,118.31963999999999 929.2077414,115.8308 921.8614414,113.31529 914.4143414,110.78416999999999 906.8925414,108.24598 899.3132414,105.70609 891.6858414,103.16791 884.0180414,100.63465 876.3170414,98.10933 868.5897414000001,95.59477999999999 860.8422414,93.09353999999999 853.0800414,90.60793000000001 845.3081414000001,88.13994 837.5304414000001,85.69129000000001 829.7503414000001,83.26339999999999 821.9701414000001,80.85743 814.1916414000001,78.47422 806.4156414,76.11439 798.6420414,73.7783 790.8706414000001,71.46654 783.1012413999999,69.17996000000001 775.3340414,66.91950999999999 767.5699414000001,64.68627 759.8100414,62.48142999999999 752.0559414,60.30624999999999 744.3097414,58.162090000000006 736.5737414,56.05035000000001 728.8508414,53.972509999999986 721.1441414,51.93006000000001 713.4570414000001,49.924499999999995 705.7934414,47.957359999999994 698.1573414000001,46.030190000000005 690.5522414,44.14502 682.9807414,42.303700000000006 675.4437414,40.5078 667.9410414,38.75840000000001 660.4714414000001,37.056200000000004 653.0324414,35.401700000000005 645.6207414,33.79549999999999 638.2318414,32.23740000000001 630.8607414,30.727800000000002 623.5012414,29.266400000000004 616.1464414000001,27.853300000000004 608.7884414,26.488299999999995 601.4182414,25.171400000000006 594.0266414,23.901200000000003 586.6052414000001,22.674900000000008 579.1471414,21.48989999999999 571.6469414,20.344099999999997 564.1007414000001,19.235499999999988 556.5063414,18.162599999999998 548.8632414,17.124100000000013 541.1729414,16.118599999999986 533.4389414000001,15.14540000000001 525.6670414,14.203400000000016 517.8655414,13.292100000000005 510.04504139999995,12.410699999999991 502.21844139999996,11.558700000000016 494.4003414,10.737300000000005 486.6042414,9.950400000000002 478.8415413999999,9.201899999999995 471.1214414,8.495100000000008 463.4506414,7.832999999999998 455.8339414,7.218000000000018 448.2742414,6.6521999999999935 440.7724414,6.137399999999985 433.3281414,5.67519999999999 425.9392414,5.266899999999993 418.60254139999995,4.913900000000012 411.31374139999997,4.617199999999997 404.0674414,4.3781999999999925 396.8576414,4.197599999999994 389.67824139999993,4.074899999999985 382.52394139999996,4.009199999999993 375.3899414,4.0 368.27174139999994,4.04679999999999 361.1653414,4.149400000000014 354.0670414,4.307700000000011 346.97344139999996,4.521499999999975 339.8813414,4.7911 332.78804139999994,5.116500000000002 325.69104139999996,5.498100000000022 318.58804139999995,5.936300000000017 311.4769414,6.4313999999999965 304.3561414,6.9839000000000055 297.2240414,7.594500000000011 290.0802414,8.26400000000001 282.9257414,8.993200000000002 275.76314139999994,9.782899999999984 268.5967414,10.633299999999991 261.4325414,11.544600000000003 254.2781414,12.516299999999973 247.1426414,13.547699999999992 240.0367414,14.63730000000001 232.9722414,15.783100000000005 225.9618414,16.982799999999997 219.0189414,18.233099999999993 212.15694140000002,19.530500000000004 205.3895414,20.870900000000006 198.7292414,22.250299999999996 192.1867414,23.668000000000006 185.7659414,25.125100000000003 179.4654414,26.62339999999999 173.2791414,28.165999999999997 167.1975414,29.75630000000001 161.2083414,31.399199999999993 155.2972414,33.1002 149.4480414,34.865700000000004 143.6466414,36.6982 137.88874140000001,38.5963 132.1796414,40.555499999999995 126.5342414,42.5677 120.9748414,44.6211 115.5292414,46.700739999999996 110.2276414,48.789559999999994 105.0990414,50.86972 100.1689814,52.92566000000001 95.4555714,54.954350000000005 90.9614814,56.96061999999999 86.6775514,58.95193999999999 82.5884214,60.93717000000001 78.67606140000001,62.92584000000001 74.92104140000001,64.92522 71.3065114,66.93494 67.82339139999999,68.95066 64.4682214,70.96557 61.240921400000005,72.97126 58.1430114,74.95850999999999 55.1762614,76.91811 52.3421114,78.84169 49.6436914,80.72405 47.0817214,82.56336 44.6531514,84.35978 42.352601400000005,86.11474999999999 40.1735414,87.83046999999999 38.1089214,89.50953 36.1516914,91.15468 34.2950414,92.76867999999999 32.5325514,94.35419999999999 30.858231399999998,95.91382999999999 29.2666014,97.44996 27.7516614,98.96530999999999 26.3051614,100.46329 24.9203314,101.94587 23.5920614,103.41356999999999 22.3164314,104.86587 21.0903114,106.30154999999999 19.911071399999997,107.71898999999999 18.7764014,109.11641 17.6841714,110.49207999999999 16.6323514,111.84443999999999 15.6209014,113.17151 14.653371400000001,114.47066 13.732064399999999,115.74053 12.8579504,116.98087 12.0310634,118.19216 11.2508534,119.37534 10.5164074,120.53163 9.8266224,121.66239999999999 9.1803074,122.7691 8.576260399999999,123.85316 8.0133164,124.91602 7.4903774,125.95904 7.0064344,126.98356 6.5605754,127.99083999999999 6.1519964,128.98208 5.7800014,129.95842 5.4440054,130.92095 5.1435356,131.87071 4.878232,132.80868 4.6478484,133.735815 4.4522537,134.653026 4.29143421,135.561198 4.1654978,136.46119099999999 4.0746782,137.35385 4.0193427,138.240007 4.0,139.12049199999998 4.0173125,139.996139 4.0721101,140.867792 4.1654086,141.736315 4.29843251,142.6026031 4.4724406,143.4675465 4.6873861,144.331699 4.942715,145.19539699999999 5.2380564,146.058909 5.5732104,146.922435 5.9481374,147.786105 6.3629454,148.649974 6.8178833999999995,149.514016 7.3133354,150.37811 7.849810400000001,151.242034 8.427934400000002,152.105442 9.048448400000002,152.96784 9.7121864,153.82858 10.4200704,154.68679 11.173081400000001,155.54135 11.9722304,156.39087 12.8185194,157.23357 13.7128754,158.06725 14.6560714,158.88918 15.6486114,159.69599 16.6905614,160.48358 17.7816914,161.24759 18.9229714,161.98682 20.1158914,162.70157 21.361881399999998,163.39249999999998 22.662301399999997,164.0607 24.018431399999997,164.70776999999998 25.4314914,165.33589 26.902601399999998,165.94798 28.432871399999996,166.54779 30.023401399999997,167.13999 31.676291399999997,167.72731 33.3949614,168.30925 35.1831114,168.88506 37.044691400000005,169.4539 38.9839014,170.01486 41.0052414,170.56697 43.1134814,171.10916 45.3137814,171.64032 47.6116214,172.15926 50.0129914,172.66472 52.5243914,173.15542 55.1530314,173.63004999999998 57.9076314,174.0875 60.798991400000006,174.52704 63.8390914,174.94813 67.0409714,175.3505 70.41867140000001,175.73428 73.9871214,176.10023 77.7617114,176.45 81.75782140000001,176.78627 85.9904414,177.1096 90.4736814,177.41824 95.21966139999999,177.71052 100.2376214,177.9851 105.5332414,178.24123 111.1082414,178.47791999999998 116.95924140000001,178.69234 123.07504139999999,178.88164 129.4377414,179.04347 136.0234414,179.17625999999998 142.8060414,179.27937 149.7609414,179.3532 156.8701414,179.39908 164.1246414,179.41807 171.51824140000002,179.41021 179.04404140000003,179.37567 186.6943414,179.31488000000002 194.4607414,179.22852999999998 202.3346414,179.11756 210.3070414,178.9832 218.36904140000001,178.82699 226.5115414,178.65077 234.7247414,178.45659999999998 242.9987414,178.24676 251.3235414,178.02367 259.6893414,177.78994 268.0865414,177.54826 276.50624139999996,177.30141 284.93964139999997,177.0522 293.3791414,176.80346 301.8174414,176.55802 310.24864139999994,176.31835 318.66704139999996,176.08386000000002 327.06814139999994,175.85213 335.4484414,175.62074 343.80524139999994,175.38727 352.1366414,175.14929999999998 360.44184139999993,174.90448 368.7206414,174.65044 376.97384139999997,174.38484 385.2027414,174.10537 393.40964139999994,173.80971 401.5974414,173.49551 409.7695414,173.16073 417.9300414,172.8067 426.08254139999997,172.43693 434.2299414,172.05497 442.3747414,171.66433999999998 450.5188414,171.26859 458.66324139999995,170.8713 466.8088414,170.47607 474.95574139999997,170.08652 483.1032414,169.70631 491.2505414,169.33912 499.39594139999997,168.98865 507.53714139999994,168.65852 515.6715413999999,168.34915999999998 523.7967414000001,168.05682 531.9110414,167.77742 540.0135414000001,167.5069 548.1039414,167.24121 556.1830414,166.97631 564.2519414000001,166.70815 572.3126414,166.43271 580.3679414000001,166.14595 588.4210414,165.8438 596.4761414,165.52213 604.5380414,165.17674 612.6122414000001,164.80456 620.7045414,164.40708999999998 628.8196414,163.98689 636.9617414,163.5466 645.1337414000001,163.08892 653.3378414,162.61665 661.5749414,162.13274 669.8451414,161.64025 678.1472414,161.1424 686.4786414000001,160.64255 694.8358414,160.14423 703.2135414,159.65107 711.6055414,159.16627 720.0048414,158.6897 728.4057414000001,158.21992 736.8036414000001,157.75538 745.1950414,157.29448 753.5781414,156.83551 761.9520414,156.37673 770.3174414000001,155.91634 778.6759414,155.45247 787.0306414,154.98319 795.3856414,154.50651 803.7466414,154.02032 812.1200414,153.52271 820.5118414000001,153.01312 828.9241413999999,152.491623 837.3556414,151.95851199999998 845.8007414,151.414355 854.2498414,150.860022 862.6892414000001,150.296697 871.1018414000001,149.725884 879.4666414000001,149.149386 887.7606414,148.569263 895.9590413999999,147.987765 904.0367414000001,147.407251 911.9691414,146.831681 919.7331414,146.271682 927.3068414,145.738494 934.6708414000001,145.241585 941.8094414000001,144.788486 948.7109414,144.384752 955.3683414,144.034063 961.7786414000001,143.73693169999999 967.9436414,143.4892409 973.8688414000001,143.2863259 979.5629414,143.123761 985.0361414,142.9974422 990.2996413999999,142.903625 995.3650414,142.83893088 1000.2437414,142.80033446 1004.3318414,142.7859" stroke="black" stroke-width="2.0" /></svg>