<?xml version="1.0" encoding="utf-8" ?>
<svg baseProfile="full" height="277.48558" version="1.1" width="1012.2514547" xmlns="http://www.w3.org/2000/svg" xmlns:ev="http://www.w3.org/2001/xml-events" xmlns:xlink="http://www.w3.org/1999/xlink"><defs /><polygon fill="none" points="1004.2514547,171.0857 998.4695547,169.283053 991.5754546999999,167.110181 984.4274547,164.830279 977.0143546999999,162.436691 969.3267546999999,159.92297 961.3574547,157.28323 953.1034546999999,154.51256999999998 944.5660547,151.60854 935.7503547,148.57694 926.6642547,145.42911 917.3195547,142.17988 907.7308547,138.84739 897.9150546999999,135.45262 887.8912546999999,132.01477 877.6826547,128.54388999999998 867.3134547,125.04827 856.8069547,121.5355 846.1837546999999,118.01201 835.4610547,114.48275 824.6513547,110.95093 813.7616546999999,107.41775 802.7926547,103.88229 791.7378547,100.34134999999999 780.5853546999999,96.79008 769.3271546999999,93.22543 757.9668547,89.64796999999999 746.5210546999999,86.06232 735.0210546999999,82.47741 723.5123547,78.90648 712.0541546999999,75.36663 700.7152547,71.8777 689.5689547,68.4605 678.6840547,65.1375 668.1037546999999,61.9319 657.8401547,58.8565 647.8827547,55.9157 638.2066547000001,53.1078 628.7788546999999,50.42779999999999 619.5614547,47.86880000000001 610.5138546999999,45.42309999999999 601.5934546999999,43.082899999999995 592.7557546999999,40.84039999999999 583.9527546999999,38.688199999999995 575.1350547,36.615700000000004 566.2593546999999,34.60910000000001 557.2905546999999,32.65689999999998 548.2014547,30.750400000000013 538.9733547,28.882899999999978 529.5979547000001,27.05019999999999 520.0796546999999,25.250100000000003 510.4387547,23.48259999999999 500.7131547,21.75030000000001 490.9599547,20.057699999999983 481.25265470000005,18.41119999999998 471.6719547,16.82329999999999 462.28105469999997,15.312099999999987 453.1180547,13.890299999999996 444.1987547,12.565500000000014 435.5230547,11.340899999999976 427.0794547,10.21720000000002 418.8492547,9.193600000000004 410.80925470000005,8.26830000000001 402.9338547,7.439399999999978 395.19565470000003,6.705099999999987 387.56635470000003,6.064300000000003 380.0161547,5.516400000000004 372.51545469999996,5.059299999999979 365.0386547,4.6880999999999915 357.56545470000003,4.399099999999976 350.0804547,4.189400000000006 342.5722547,4.056900000000013 335.0340547,4.0 327.4631547,4.017400000000009 319.86165470000003,4.107699999999994 312.2363547,4.269200000000012 304.5992547,4.5 296.9675547,4.797200000000004 289.36295470000005,5.157499999999999 281.8112547,5.576499999999982 274.34065469999996,6.050200000000018 266.9780547,6.579200000000014 259.7448547,7.163900000000012 252.65645469999998,7.804299999999984 245.7231547,8.5 238.9506547,9.250199999999978 232.3410547,10.053899999999999 225.8939547,10.909999999999997 219.6063547,11.817299999999989 213.4738547,12.774900000000002 207.4911547,13.781599999999997 201.6520547,14.836500000000001 195.9501547,15.939000000000021 190.3785547,17.0882 184.93055470000002,18.283699999999982 179.59955470000003,19.524999999999977 174.3805547,20.811999999999983 169.2703547,22.144000000000005 164.2673547,23.519900000000007 159.3711547,24.9384 154.58205470000001,26.397699999999986 149.90085470000002,27.8956 145.32865470000002,29.429699999999997 140.8666547,30.997299999999996 136.5159547,32.59559999999999 132.27775470000003,34.22149999999999 128.1534547,35.873099999999994 124.14245469999999,37.54900000000001 120.2426547,39.24859999999998 116.4504547,40.9718 112.76155469999999,42.718999999999994 109.1709547,44.491 105.6734547,46.289100000000005 102.26356469999999,48.1148 98.9359547,49.97 95.6852647,51.857 92.5062047,53.7782 89.39361469999999,55.7368 86.3417847,57.735 83.3422947,59.7693 80.3887247,61.8322 77.4779847,63.9144 74.6099847,66.0046 71.7871047,68.09 69.01366469999999,70.1567 66.2953247,72.19049999999999 63.6396947,74.17974 61.0593047,76.12341 58.56356469999999,78.02537999999998 56.1573347,79.89093 53.8421847,81.72613 51.6173547,83.53737 49.4806647,85.33112 47.4290047,87.1138 45.4588347,88.89168 43.566434699999995,90.67090999999999 41.747394699999994,92.45657 39.99508469999999,94.24946 38.30348469999999,96.04899999999999 36.6677347,97.85417000000001 35.083874699999996,99.66364 33.5486647,101.47573999999999 32.0594247,103.28854 30.6139647,105.09989 29.2104447,106.90742 27.8473547,108.70861 26.5233747,110.50083 25.237394700000003,112.28139999999999 23.988434700000003,114.04762 22.7756047,115.79678999999999 21.598084699999998,117.52636 20.4562947,119.23518999999999 19.352074700000003,120.92421999999999 18.2869547,122.59468 17.2620447,124.24786 16.278074699999998,125.88514 15.3354947,127.50788 14.4345247,129.11748 13.575156699999999,130.71528999999998 12.7572367,132.30266 11.9804817,133.8809 11.2444957,135.45108 10.5486287,137.01285000000001 9.8920947,138.56534 9.274080699999999,140.10788 8.6937717,141.63999 8.1503637,143.16137 7.6430857,144.67183 7.1711987,146.1713 6.7340117,147.65982 6.3308847,149.13747999999998 5.9612317,150.60444 5.6245267,152.06094 5.3203047,153.50724 5.0481628,154.94365 4.807764,156.37051 4.598838,157.78818 4.4211831,159.19707 4.27466827,160.5976 4.15923513,161.99021 4.0749012,163.37535499999998 4.0217629,164.753529 4.0,166.125235 4.00988,167.491003 4.0517649,168.851386 4.1261176,170.206966 4.23351136,171.5583557 4.3746303,172.9062039 4.5497747,174.25133 4.7586027,175.594731 5.0008167,176.937364 5.2762157,178.280132 5.5846897,179.623894 5.9262087,180.969461 6.3008197,182.31761 6.708641699999999,183.66908 7.149858699999999,185.02456 7.6247127,186.38472 8.1335017,187.75019 8.6765727,189.12153999999998 9.2543117,190.49931 9.8671387,191.88398999999998 10.515495699999999,193.276 11.1998387,194.67569 11.9206197,196.08334 12.678269700000001,197.49912 13.4731807,198.92308 14.3056747,200.35514999999998 15.1759947,201.79507999999998 16.084214699999997,203.24245 17.0302847,204.69657999999998 18.0138847,206.15659 19.034454699999998,207.62125 20.091074699999997,209.08904 21.1824647,210.55806 22.3068547,212.02602 23.4631047,213.48988 24.6517547,214.94581 25.8737247,216.39011 27.1301747,217.81928 28.4225447,219.23007 29.7526647,220.61955 31.1227947,221.98505 32.535744699999995,223.32423 33.9949747,224.63497 35.5047847,225.91544 37.0704247,227.16403 38.696514699999994,228.38139 40.38582469999999,229.57108 42.1412147,230.73678999999998 43.96573469999999,231.88223 45.862614699999995,233.01119 47.835174699999996,234.12759 49.8867347,235.23559 52.02040469999999,236.33962 54.2388647,237.44446 56.54395469999999,238.55533 58.9361447,239.67782 61.413784699999994,240.81797 63.9721347,241.98203999999998 66.6050447,243.17398 69.30934469999998,244.39207 72.0813647,245.63329 74.9163447,246.89398999999997 77.8085347,248.17009000000002 80.75146469999999,249.45713 83.7382347,250.75047999999998 86.7618147,252.04555 89.8154747,253.33796 92.89295469999999,254.62216999999998 95.9888247,255.88682999999997 99.09978469999999,257.11986 102.2249947,258.3103 105.3661547,259.44822999999997 108.5276547,260.52455 111.71655469999999,261.53068 114.9429547,262.45813 118.2206547,263.29837 121.56515470000001,264.05057999999997 124.9921547,264.72087999999997 128.5184547,265.31469 132.16265470000002,265.83676 135.94525470000002,266.29143999999997 139.8898547,266.68300999999997 144.02315470000002,267.01606 148.3752547,267.296 152.9790547,267.52994 157.8684547,267.72783 163.0743547,267.90429 168.6144547,268.08061 174.4826547,268.27315999999996 180.65365470000003,268.47856 187.08465470000002,268.68914 193.7185547,268.89518999999996 200.4931547,269.08578 207.3515547,269.2498 214.2512547,269.37672 221.16955470000002,269.45709 228.0987547,269.48558 235.0339547,269.45984 241.97185470000002,269.3777 248.9105547,269.23699 255.85015470000002,269.03551 262.7918547,268.77096 269.7387547,268.44083 276.69555470000006,268.04237 283.66855469999996,267.57239 290.6658547,267.02725 297.6978547,266.40259 304.77695470000003,265.69324 311.9186547,264.89288999999997 319.14175470000004,263.99387 326.4699547,262.99087 333.9301547,261.88301 341.5505547,260.6693 349.36095470000004,259.34834 357.3927547,257.91859 365.67905470000005,256.37879 374.25405470000004,254.72839 383.15185470000006,252.96847 392.40415470000005,251.10289 402.0355547,249.14004 412.0575547,247.0951 422.4578547,244.9903 433.19815470000003,242.83909 444.2261547,240.64971 455.4823547,238.43078 466.9050547,236.19045 478.4362547,233.93556 490.0258547,231.67092 501.63605470000005,229.39883 513.2423547000001,227.11887000000002 524.8343547,224.83028000000002 536.4095547,222.53679 547.9672546999999,220.24261 559.5090547,217.95158 571.0378547,215.66715 582.5585547,213.39240999999998 594.0775547,211.13012 605.6032547,208.8827 617.1454547,206.65209 628.7110547,204.4383 640.2966547,202.242 651.8861546999999,200.06612 663.4513546999999,197.91573 674.9524547,195.79779 686.3406547,193.72066 697.5610546999999,191.69343 708.5572546999999,189.72518 719.2777547,187.82757 729.6911547,186.01653 739.7888547,184.3029 749.5784547,182.69254 759.0781546999999,181.187865 768.3120547,179.789121 777.3079547,178.495287 786.0948546999999,177.304759 794.7021546999999,176.215813 803.1593547,175.226933 811.4958546999999,174.336427 819.7377547,173.539292 827.9076546999999,172.8301444 836.0247547,172.2048014 844.1063546999999,171.6600583 852.1675546999999,171.193525 860.2223547,170.803506 868.2835547,170.48891 876.3629547,170.24918399999999 884.4716546999999,170.084262 892.6202546999999,169.994531 900.8188547,169.98080199999998 909.0769546999999,170.043905 917.4016547,170.17963 925.7898547,170.379496 934.2254546999999,170.63394 942.6780547,170.932088 951.1033547,171.261744 959.4459546999999,171.610188 967.6466547,171.9700825 975.6547546999999,172.33807011 983.4312547,172.7110732 990.9496546999999,173.0863701 998.1947547,173.46167499999999 1004.2514547,173.7857" stroke="black" stroke-width="2.0" /></svg>