<?xml version="1.0" encoding="utf-8" ?>
<svg baseProfile="full" height="144.88084" version="1.1" width="1011.991685873" xmlns="http://www.w3.org/2000/svg" xmlns:ev="http://www.w3.org/2001/xml-events" xmlns:xlink="http://www.w3.org/1999/xlink"><defs /><polygon fill="none" points="1003.991685873,70.44042 1001.044085873,69.8427209 997.5604858730001,69.141642 993.982685873,68.427546 990.3054858730001,67.699928 986.5237858730001,66.958273 982.632085873,66.20206400000001 978.624385873,65.43078600000001 974.494785873,64.64394 970.236985873,63.841048 965.8443858730001,63.021679000000006 961.310785873,62.185463 956.629385873,61.33212 951.7941858730001,60.461495 946.7993858730001,59.573600000000006 941.639785873,58.66865 936.311485873,57.74714 930.8121858730001,56.809920000000005 925.141285873,55.858200000000004 919.301285873,54.89372 913.297585873,53.918710000000004 907.139785873,52.93602 900.8416858730001,51.94909 894.466885873,50.96829 888.166185873,50.01589 881.9313858730001,49.08912000000001 875.741785873,48.18357 869.5798858730001,47.295500000000004 863.4307858730001,46.42174 857.2814858730001,45.55953 851.121285873,44.70648 844.940585873,43.86048 838.731785873,43.019670000000005 832.488585873,42.18245 826.2062858730001,41.34740000000001 819.882085873,40.513360000000006 813.515185873,39.67935 807.1068858730001,38.84472000000001 800.694185873,38.013360000000006 794.311985873,37.18977 787.9547858730001,36.37402000000001 781.617185873,35.56620000000001 775.294285873,34.76652 768.9815858730001,33.97522 762.6752858730001,33.192620000000005 756.371785873,32.41912 750.0681858730001,31.655170000000005 743.761685873,30.901300000000006 737.450185873,30.15809000000001 731.131585873,29.426190000000005 724.8045858730001,28.706300000000006 718.4680858730001,27.999220000000008 712.121285873,27.305750000000003 705.763885873,26.626790000000007 699.396185873,25.963160000000002 693.0184858730001,25.314660000000003 686.6314858730001,24.68052 680.235885873,24.059920000000005 673.832285873,23.452060000000003 667.421285873,22.856100000000005 661.0036858730001,22.271210000000004 654.579985873,21.696550000000002 648.150785873,21.131260000000005 641.716885873,20.574489999999997 635.2787858730001,20.02538 628.8371858730001,19.48304000000001 622.392685873,18.94661 615.945985873,18.415210000000002 609.497585873,17.887950000000004 603.048285873,17.36394 596.5983858730001,16.84265 590.148585873,16.324460000000002 583.6991858730001,15.80989000000001 577.2505858730001,15.29947 570.8031858730001,14.793710000000004 564.357285873,14.293120000000009 557.9130858730001,13.798210000000005 551.470985873,13.309489999999997 545.031085873,12.827460000000002 538.593785873,12.352600000000002 532.158985873,11.885410000000007 525.727185873,11.426380000000009 519.2981858730001,10.975990000000003 512.872285873,10.534710000000004 506.449385873,10.10302 500.02968587299995,9.681400000000004 493.613085873,9.270360000000004 487.199585873,8.870490000000004 480.78938587299996,8.482340000000008 474.38218587299997,8.10649 467.978085873,7.743499999999997 461.576785873,7.393919999999994 455.17818587299996,7.058309999999999 448.78218587299995,6.737220000000001 442.388485873,6.431210000000007 435.996885873,6.140810000000016 429.606985873,5.866580000000013 423.218485873,5.609080000000006 416.83098587300003,5.368850000000009 410.444185873,5.1464500000000015 404.057585873,4.942430000000002 397.670785873,4.757310000000004 391.283285873,4.591480000000004 384.894985873,4.445280000000011 378.505685873,4.319050000000004 372.115485873,4.213149999999999 365.724385873,4.1279400000000095 359.332685873,4.063780000000008 352.940785873,4.021010000000004 346.54928587300003,4.0 340.15868587299997,4.001090000000005 333.769885873,4.024609999999996 327.383785873,4.0708800000000025 321.001285873,4.140219999999999 314.623585873,4.232920000000007 308.25198587299997,4.349240000000009 301.887785873,4.489450000000005 295.53258587299996,4.6537600000000054 289.187385873,4.842389999999995 282.853285873,5.055570000000003 276.530385873,5.293509999999998 270.21868587299997,5.556440000000009 263.917885873,5.844620000000006 257.626885873,6.15831 251.34458587299997,6.49785 245.06918587299998,6.863599999999998 238.79878587299999,7.255960000000002 232.53068587299998,7.675429999999999 226.262285873,8.12256 219.990185873,8.597999999999999 213.710585873,9.102490000000003 207.419585873,9.636890000000001 201.112185873,10.202199999999998 194.78418587299998,10.799710000000005 188.43408587300001,11.430720000000008 182.065585873,12.096090000000004 175.686785873,12.79609 169.310985873,13.530210000000004 162.956485873,14.297080000000001 156.645185873,15.094380000000001 150.402485873,15.919270000000004 144.253185873,16.775110000000005 138.21218587299998,17.670960000000008 132.282185873,18.61641000000001 126.455685873,19.621589999999998 120.717885873,20.697589999999998 115.04788587299998,21.85705 109.418485873,23.115030000000004 103.79649587299998,24.490300000000005 98.139855873,25.99884 92.404765873,27.629510000000003 86.562715873,29.358960000000003 80.607775873,31.153320000000008 74.565855873,32.9722 68.52422587299999,34.82865 62.643385873,36.74868000000001 57.105715873,38.72833 52.045765873,40.740210000000005 47.49387587300001,42.73102 43.344945873,44.673590000000004 39.442035873,46.59369 35.609515873,48.5497 31.590005873,50.65737 26.834405873,53.19690000000001 22.562055873000002,55.52217 17.787575873,58.19867000000001 14.505745873,60.09491 12.429934873,61.353570000000005 10.882441873,62.351914 9.644616873,63.206569 8.618145873,63.969042 7.749851873,64.667045 7.007564873,65.317445 6.370375873,65.931422 5.824051873,66.51688 5.358637873,67.0797 4.967112473,67.624458 4.644593273,68.154863 4.387857573,68.674036 4.195059273,69.184717 4.065582433,69.6894043 4.0,70.1904871 4.0,70.69035290000001 4.065582433,71.1914357 4.195059273,71.696123 4.387857573,72.206804 4.644593273,72.725977 4.967112473,73.256382 5.358637873,73.80114 5.824051873,74.36396 6.370375873,74.94941800000001 7.007564873,75.563395 7.749851873,76.213795 8.618145873,76.911798 9.644616873,77.674271 10.882441873,78.528926 12.429934873,79.52727 14.505745873,80.78593000000001 17.787575873,82.68217 22.562055873000002,85.35867 26.834405873,87.68394 31.590005873,90.22347 35.609515873,92.33114 39.442035873,94.28715 43.344945873,96.20725 47.49387587300001,98.14982 52.045765873,100.14063 57.105715873,102.15251 62.643385873,104.13216 68.52422587299999,106.05219 74.565855873,107.90864 80.607775873,109.72752 86.562715873,111.52188000000001 92.404765873,113.25133 98.139855873,114.882 103.79649587299998,116.39054 109.418485873,117.76581 115.04788587299998,119.02379 120.717885873,120.18325000000002 126.455685873,121.25925000000001 132.282185873,122.26443 138.21218587299998,123.20988 144.253185873,124.10573 150.402485873,124.96157 156.645185873,125.78646 162.956485873,126.58376000000001 169.310985873,127.35063 175.686785873,128.08475 182.065585873,128.78475 188.43408587300001,129.45012 194.78418587299998,130.08113 201.112185873,130.67864 207.419585873,131.24395 213.710585873,131.77835 219.990185873,132.28284000000002 226.262285873,132.75828 232.53068587299998,133.20541 238.79878587299999,133.62488000000002 245.06918587299998,134.01724000000002 251.34458587299997,134.38299 257.626885873,134.72253 263.917885873,135.03622000000001 270.21868587299997,135.3244 276.530385873,135.58733 282.853285873,135.82527 289.187385873,136.03845 295.53258587299996,136.22708 301.887785873,136.39139 308.25198587299997,136.5316 314.623585873,136.64792 321.001285873,136.74062 327.383785873,136.80996 333.769885873,136.85623 340.15868587299997,136.87975 346.54928587300003,136.88084 352.940785873,136.85983 359.332685873,136.81706 365.724385873,136.7529 372.115485873,136.66769 378.505685873,136.56179 384.894985873,136.43556 391.283285873,136.28936 397.670785873,136.12353000000002 404.057585873,135.93841 410.444185873,135.73439000000002 416.83098587300003,135.51199 423.218485873,135.27176 429.606985873,135.01425999999998 435.996885873,134.74003 442.388485873,134.44963 448.78218587299995,134.14362 455.17818587299996,133.82253 461.576785873,133.48692 467.978085873,133.13734 474.38218587299997,132.77435 480.78938587299996,132.3985 487.199585873,132.01035000000002 493.613085873,131.61048 500.02968587299995,131.19944 506.449385873,130.77782000000002 512.872285873,130.34613000000002 519.2981858730001,129.90485 525.727185873,129.45445999999998 532.158985873,128.99543 538.593785873,128.52824 545.031085873,128.05338 551.470985873,127.57135000000001 557.9130858730001,127.08263 564.357285873,126.58771999999999 570.8031858730001,126.08713 577.2505858730001,125.58137 583.6991858730001,125.07095 590.148585873,124.55638 596.5983858730001,124.03819000000001 603.048285873,123.5169 609.497585873,122.99289 615.945985873,122.46563 622.392685873,121.93423000000001 628.8371858730001,121.39779999999999 635.2787858730001,120.85546000000001 641.716885873,120.30635000000001 648.150785873,119.74958000000001 654.579985873,119.18429 661.0036858730001,118.60963000000001 667.421285873,118.02474000000001 673.832285873,117.42878 680.235885873,116.82092 686.6314858730001,116.20032 693.0184858730001,115.56618 699.396185873,114.91768 705.763885873,114.25405 712.121285873,113.57509 718.4680858730001,112.88162 724.8045858730001,112.17454000000001 731.131585873,111.45465 737.450185873,110.72274999999999 743.761685873,109.97954 750.0681858730001,109.22567000000001 756.371785873,108.46172000000001 762.6752858730001,107.68822 768.9815858730001,106.90562 775.294285873,106.11432 781.617185873,105.31464 787.9547858730001,104.50682 794.311985873,103.69107 800.694185873,102.86748 807.1068858730001,102.03612 813.515185873,101.20149 819.882085873,100.36748 826.2062858730001,99.53344 832.488585873,98.69839 838.731785873,97.86117 844.940585873,97.02036000000001 851.121285873,96.17436000000001 857.2814858730001,95.32131000000001 863.4307858730001,94.4591 869.5798858730001,93.58534 875.741785873,92.69727 881.9313858730001,91.79172 888.166185873,90.86495000000001 894.466885873,89.91255000000001 900.8416858730001,88.93175000000001 907.139785873,87.94482 913.297585873,86.96213 919.301285873,85.98712 925.141285873,85.02264 930.8121858730001,84.07092 936.311485873,83.1337 941.639785873,82.21219 946.7993858730001,81.30724000000001 951.7941858730001,80.419345 956.629385873,79.54872 961.310785873,78.69537700000001 965.8443858730001,77.859161 970.236985873,77.039792 974.494785873,76.2369 978.624385873,75.45005400000001 982.632085873,74.678776 986.5237858730001,73.922567 990.3054858730001,73.180912 993.982685873,72.453294 997.5604858730001,71.739198 1001.044085873,71.0381191 1003.991685873,70.44042" stroke="black" stroke-width="2.0" /></svg>