<?xml version="1.0" encoding="utf-8" ?>
<svg baseProfile="full" height="193.69814" version="1.1" width="1013.82569" xmlns="http://www.w3.org/2000/svg" xmlns:ev="http://www.w3.org/2001/xml-events" xmlns:xlink="http://www.w3.org/1999/xlink"><defs /><polygon fill="none" points="1005.82569,166.3564 1002.08859,164.629432 997.59189,162.56242500000002 992.8797900000001,160.409127 987.93599,158.16395300000002 982.7443900000001,155.82164 977.28999,153.37771 971.56049,150.82913000000002 965.5481900000001,148.17520000000002 959.25299,145.41871 952.68529,142.5672 945.86829,139.63387 938.8355899999999,136.63633000000002 931.62719,133.59478000000001 924.2869900000001,130.53017 916.85739,127.46236000000002 909.37599,124.40847000000001 901.87239,121.38170000000001 894.3674900000001,118.39246000000001 886.8770900000001,115.44989000000001 879.41309,112.56126 871.98349,109.73202 864.59269,106.96593000000001 857.24169,104.26529000000001 849.92849,101.63112000000001 842.64819,99.06344000000001 835.3933900000001,96.56142 828.15439,94.12357000000002 820.91909,91.74789 813.67289,89.43196000000002 806.39869,87.173 799.07639,84.96737 791.68569,82.80738000000001 784.20799,80.68444000000001 776.62659,78.59083000000001 768.9264900000001,76.51957 761.09529,74.46429 753.1229900000001,72.41929 745.00369,70.37951000000001 736.7361900000001,68.34071 728.32569,66.29960000000001 719.7850900000001,64.25410000000001 711.13649,62.203500000000005 702.41219,60.149100000000004 693.65229,58.096800000000016 684.8942900000001,56.05860000000001 676.16919,54.045500000000004 667.49989,52.06620000000001 658.90179,50.127300000000005 650.38259,48.2334 641.94379,46.3875 633.58069,44.59100000000001 625.2841900000001,42.8442 617.04039,41.14659999999999 608.8316900000001,39.496900000000025 600.63619,37.89320000000001 592.43039,36.33099999999999 584.19349,34.804100000000005 575.90829,33.30709999999999 567.56149,31.8356 559.14359,30.386000000000024 550.64949,28.955400000000026 542.0786899999999,27.541799999999995 533.43609,26.14360000000002 524.7327899999999,24.7603 515.98649,23.392000000000024 507.22129000000007,22.03970000000001 498.46769000000006,20.705299999999994 489.75739000000004,19.39590000000001 481.11649,18.119799999999998 472.56379,16.884100000000018 464.11139000000003,15.69440000000003 455.76519,14.5548 447.52609,13.468400000000003 439.39069,12.4375 431.35199000000006,11.463600000000014 423.40019,10.547800000000024 415.52299,9.691000000000003 407.70609,8.893799999999999 399.93309,8.157100000000014 392.18748999999997,7.480200000000025 384.45599,6.862400000000008 376.72929,6.303300000000007 369.00219000000004,5.803200000000004 361.27279000000004,5.362500000000011 353.54329,4.981999999999999 345.81919,4.662700000000001 338.10979000000003,4.405399999999986 330.42789,4.210499999999996 322.78899,4.078300000000013 315.21119,4.008500000000026 307.71429,4.0 300.31889,4.051500000000004 293.04509,4.163800000000009 285.90719,4.339300000000009 278.91269000000005,4.5800000000000125 272.06349000000006,4.887100000000004 265.35709,5.261599999999987 258.78799,5.704400000000021 252.34809,6.216399999999993 246.02799000000002,6.798500000000018 239.81699000000003,7.4521000000000015 233.70369,8.178899999999999 227.67599,8.981000000000023 221.72149000000002,9.861099999999993 215.82689000000002,10.822599999999994 209.97859,11.869799999999998 204.16179,13.00800000000001 198.36109,14.24199999999999 192.56209,15.57220000000001 186.75519,16.99750000000003 180.93579,18.515899999999988 175.10499000000002,20.123999999999995 169.26919,21.81650000000002 163.44099000000003,23.58590000000001 157.63899,25.422000000000025 151.88659,27.31219999999999 146.21189,29.246800000000007 140.64159,31.221599999999995 135.19709,33.232699999999994 129.89429,35.2766 124.74389,37.35000000000002 119.75249,39.450400000000016 114.92258999999999,41.5754 110.25419,43.72330000000001 105.74486999999999,45.892600000000016 101.39112,48.08230000000002 97.18974,50.29210000000002 93.13579999999999,52.52320000000002 89.22215999999999,54.77800000000002 85.44044,57.06 81.78162,59.37350000000001 78.23638999999999,61.7238 74.79347,64.11380000000001 71.44313999999999,66.54162000000001 68.18092,69.0021 65.00663,71.48698000000002 61.923190000000005,73.98541 58.93553,76.48454000000001 56.04946,78.97038000000002 53.270950000000006,81.42884000000001 50.60873,83.84826000000001 48.069630000000004,86.22135000000002 45.65562,88.54432 43.365230000000004,90.81600000000002 41.19482,93.03702 39.13949,95.20917 37.19372,97.33498 35.351800000000004,99.41735000000001 33.608090000000004,101.45942 31.9572,103.46435 30.39408,105.43529000000001 28.912860000000002,107.37576000000001 27.502560000000003,109.29099000000001 26.15276,111.18458000000001 24.85532,113.05799000000002 23.60386,114.911 22.3933,116.74227000000002 21.21957,118.54968000000001 20.07942,120.33078 18.97015,122.08305000000001 17.889519999999997,123.80419 16.837519999999998,125.49147 15.820177999999999,127.14057000000001 14.842685,128.74876 13.908263,130.31499 13.018697000000001,131.83941000000002 12.174767,133.32293 11.376570999999998,134.76692 10.623759,136.17304000000001 9.9157,137.54307 9.251602,138.87885 8.630594,140.18218000000002 8.051784000000001,141.45483000000002 7.514297,142.69848000000002 7.0172989999999995,143.91474 6.5600171,145.10512 6.1417492,146.27104 5.761871960000001,147.41384 5.4198457,148.53477 5.115217100000001,149.63502 4.8476212,150.71568000000002 4.616783,151.77779 4.422518,152.82232000000002 4.264737,153.85019 4.143442,154.86227 4.058735,155.85937 4.010819,156.84228000000002 4.0,157.811734 4.026695,158.76844200000002 4.09144,159.713084 4.194895,160.646317 4.337855,161.56877500000002 4.521266,162.481078 4.746235,163.383834 5.0140517,164.277643 5.32621,165.163101 5.6844359,166.04080770000002 6.0905805,166.9113208 6.5449637,167.774541 7.046856,168.629827 7.595666,169.476401 8.190953,170.313343 8.832405000000001,171.13957200000002 9.519826,171.95382600000002 10.25312,172.754639 11.032278999999999,173.540308 11.85736,174.30885600000002 12.728471,175.057994 13.645744,175.785064 14.609305999999998,176.48698000000002 15.619245000000001,177.16017 16.675559999999997,177.80045 17.77809,178.40299000000002 18.926499999999997,178.96224 20.121270000000003,179.47531 21.36428,179.94354 22.65756,180.36888000000002 24.00325,180.75372000000002 25.40353,181.10107 26.860560000000003,181.41466 28.376420000000003,181.69921 29.953,181.96064 31.591790000000003,182.20634 33.29525,182.44141000000002 35.06781,182.66615000000002 36.91443,182.88056 38.84042,183.08482 40.851440000000004,183.27932 42.95349,183.46477000000002 45.1528,183.64226000000002 47.45575,183.81339 49.86871000000001,183.98046 52.397890000000004,184.1466 55.04904,184.31604000000002 57.82703,184.49383 60.735749999999996,184.68030000000002 63.77821,184.87128 66.95698999999999,185.06130000000002 70.27499,185.24347 73.73652,185.40933 77.34900999999999,185.54860000000002 81.12540999999999,185.64877 85.08771,185.69814 89.26518999999999,185.69717 93.68966999999999,185.65103000000002 98.39246,185.56811000000002 103.39823,185.46185 108.71248999999999,185.35239 114.30928999999999,185.24968 120.14029,185.14659 126.14528999999999,185.0328 132.26369,184.89624 138.44529,184.72384 144.65969,184.50198 150.90039000000002,184.21626 157.18719000000002,183.8504 163.56719,183.39173 170.09899000000001,182.84127 176.84118999999998,182.20124 183.85189,181.47400000000002 191.18609,180.6637 198.88879,179.77885 206.97789,178.83622 215.42249,177.85901 224.14819,176.86342000000002 233.06149,175.86559300000002 242.06269,174.882113 251.05989000000002,173.927956 259.97909,173.015097 268.76909,172.151979 277.40148999999997,171.343763 285.86689,170.59300100000002 294.17129,169.900414 302.33199,169.26561700000002 310.37469000000004,168.687602 318.32849000000004,168.16387600000002 326.21919,167.691425 334.06819,167.2680357 341.89358999999996,166.89216670000002 349.71099000000004,166.5628234 357.53329,166.27946133 365.37149000000005,166.0419106 373.23458999999997,165.8503131 381.12969000000004,165.7050652 389.06189000000006,165.6067628 397.03399,165.55614450000002 405.04689,165.5540291 413.09879,165.6011919 421.18658999999997,165.6980543 429.30609,165.84484080000001 437.45249,166.0416532 445.61989000000005,166.28844735 453.80189,166.58501030000002 461.99119,166.9309394 470.17989,167.3256241 478.35919,167.76823100000001 486.51999,168.257695 494.65259000000003,168.79271400000002 502.74709,169.37175100000002 510.79328999999996,169.992685 518.78259,170.64823800000002 526.7094900000001,171.32776 534.5716900000001,172.02114600000002 542.36999,172.718964 550.10739,173.41245 557.78949,174.09345100000002 565.42389,174.75433800000002 573.0197900000001,175.387896 580.58849,175.987189 588.14289,176.54542 595.6981900000001,177.05574000000001 603.27129,177.51108000000002 610.8820900000001,177.90453000000002 618.55149,178.23624 626.2988899999999,178.51104 634.1424900000001,178.73351 642.09839,178.90809000000002 650.18109,179.03925 658.40249,179.13165 666.7711899999999,179.19038 675.29169,179.22103 683.96289,179.22994 692.77629,179.22425 701.71479,179.21197 710.75139,179.20157 719.85139,179.19579000000002 728.98059,179.19162 738.10879,179.18571 747.21109,179.17475000000002 756.2684899999999,179.15551000000002 765.26759,179.12491 774.2008900000001,179.08004 783.06609,179.0181 791.86539,178.93644 800.6053899999999,178.83244000000002 809.29629,178.70350000000002 817.9507900000001,178.54791 826.57879,178.36519 835.18649,178.15496000000002 843.7759900000001,177.91685 852.3456900000001,177.65062 860.89059,177.35614 869.40199,177.03354000000002 877.8679900000001,176.68319 886.27419,176.305756 894.6036899999999,175.902252 902.83819,175.47402200000002 910.95839,175.022573 918.9431900000001,174.547652 926.76719,174.048324 934.40249,173.524677 941.8218899999999,172.977787 949.00089,172.409554 955.92029,171.822485 962.56699,171.219859 968.9358900000001,170.606378 975.02969,169.986329 980.85649,169.36316100000002 986.4277900000001,168.739584 991.7570900000001,168.117682 996.8589900000001,167.499032 1001.74779,166.8847997 1005.82569,166.3564" stroke="black" stroke-width="2.0" /></svg>