<?xml version="1.0" encoding="utf-8" ?>
<svg baseProfile="full" height="100.1152" version="1.1" width="1012.06288422" xmlns="http://www.w3.org/2000/svg" xmlns:ev="http://www.w3.org/2001/xml-events" xmlns:xlink="http://www.w3.org/1999/xlink"><defs /><polygon fill="none" points="1004.06288422,71.26366 1001.0422842199999,70.5632957 997.39298422,69.724907 993.5490842199999,68.85096 989.49178422,67.938671 985.2012842199999,66.985265 980.65708422,65.98818700000001 975.8397842200001,64.945434 970.73338422,63.85607 965.32888422,62.720959 959.62908422,61.543688 953.65468422,60.33156 947.4490842199999,59.09598 941.07338422,57.85072 934.60478422,56.61151 928.14278422,55.39705 921.6645842199999,54.20223 915.19558422,53.0309 908.78528422,51.890840000000004 902.4344842200001,50.78085 896.13158422,49.69752 889.86168422,48.63704 883.61198422,47.59611 877.37168422,46.571870000000004 871.1310842199999,45.56181000000001 864.88208422,44.56374 858.61788422,43.575739999999996 852.33278422,42.596090000000004 846.0222842200001,41.62333 839.68328422,40.65616 833.31388422,39.69349 826.9135842200001,38.734440000000006 820.48338422,37.77832 814.02608422,36.82463 807.54578422,35.87312 801.04878422,34.923770000000005 794.54218422,33.97787 788.0328842199999,33.03793 781.52698422,32.106339999999996 775.02948422,31.18535 768.54448422,30.277 762.07508422,29.38319 755.62348422,28.505610000000004 749.19088422,27.6458 742.77768422,26.80514 736.3835842200001,25.984859999999998 730.00708422,25.18609 723.64618422,24.409820000000003 717.29818422,23.656980000000004 710.95958422,22.92843 704.62608422,22.224980000000002 698.2927842199999,21.54705 691.9548842199999,20.89315 685.60818422,20.26126 679.24898422,19.64947 672.8740842200001,19.055980000000005 666.48098422,18.47903 660.06768422,17.91693 653.6327842200001,17.368030000000005 647.17548422,16.830710000000003 640.69558422,16.303400000000003 634.19368422,15.78452 627.67098422,15.272540000000006 621.12958422,14.765920000000001 614.57228422,14.263180000000006 608.00238422,13.762830000000001 601.4244842200001,13.263460000000002 594.84328422,12.765029999999996 588.26328422,12.269179999999999 581.6882842199999,11.777639999999998 575.12178422,11.292050000000003 568.56648422,10.814 562.02458422,10.345019999999998 555.49768422,9.886569999999999 548.98678422,9.440039999999996 542.49258422,9.00674 536.01488422,8.587950000000006 529.55338422,8.18488 523.10698422,7.798700000000004 516.67438422,7.430540000000008 510.25348422,7.081510000000009 503.84218422,6.752680000000012 497.43778422,6.444839999999999 491.03748421999995,6.157630000000012 484.63898422,5.890500000000003 478.24018422,5.642920000000004 471.83928421999997,5.41443000000001 465.43468422,5.204570000000004 459.02498421999996,5.012910000000005 452.60928422,4.8390600000000035 446.18668422,4.682620000000014 439.75658422000004,4.543230000000008 433.31878422,4.420509999999993 426.87328421999996,4.3141099999999994 420.42028422,4.223670000000013 413.96028422,4.148830000000004 407.49408422,4.089219999999997 401.02278422,4.044479999999993 394.54778422000004,4.014620000000008 388.07028422,4.0 381.59158422,4.001040000000003 375.11278422,4.018090000000001 368.63498422000004,4.051540000000003 362.15928421999996,4.101749999999996 355.68658422,4.169049999999999 349.21778422,4.253799999999998 342.75378422,4.356320000000011 336.29528422,4.476940000000013 329.84288422000003,4.615960000000001 323.39738422000005,4.773690000000002 316.95918422,4.95044 310.52878422000003,5.146480000000011 304.10658422,5.362120000000004 297.69288422,5.597529999999992 291.28798422,5.852470000000011 284.89158421999997,6.1266099999999994 278.50338422,6.419610000000006 272.12258422,6.731190000000012 265.74828422,7.061080000000004 259.37908422,7.409030000000008 253.01368422,7.774830000000009 246.64998422,8.15833 240.28598422,8.559370000000008 233.91918422,8.977880000000006 227.54698421999998,9.413810000000005 221.16628422,9.867179999999998 214.77378422,10.338050000000003 208.36548422,10.826540000000001 201.93758422,11.332879999999996 195.48608421999998,11.858319999999999 189.01198422000002,12.405430000000003 182.52288422,12.976370000000003 176.03348422,13.572560000000003 169.56558422,14.194520000000004 163.14668422,14.841729999999998 156.80858422,15.512600000000006 150.58508422,16.20476 144.50548422,16.91988 138.58098422,17.66399 132.80568422,18.443910000000002 127.16148422,19.26737 121.62158422,20.143250000000002 116.15278422,21.082209999999996 110.71528422,22.097600000000007 105.26048422,23.207010000000004 99.72706422,24.431820000000002 94.05393422,25.774899999999995 88.22596422000001,27.21662 82.30584422,28.712759999999996 76.44825422000001,30.1928 70.84246422000001,31.622360000000008 65.58106422,33.03119 60.657274220000005,34.45756 56.01947422,35.938770000000005 51.602494220000004,37.509660000000004 47.35082422,39.17581 43.23449422,40.917880000000004 39.24221422,42.71483 35.37585422000001,44.54343 31.64683422,46.37787 28.07273422,48.1909 24.682394220000003,49.98189000000001 21.61657422,51.72325 19.01251422,53.33179 16.84693422,54.77649 15.02870422,56.07152 13.490429220000001,57.236090000000004 12.173000220000002,58.29539 11.02997522,59.27172 10.02801622,60.181960000000004 9.14323022,61.03864 8.358198219999998,61.851167000000004 7.65996822,62.626751 7.0387352199999995,63.371044 6.48697722,64.088572 5.99887222,64.783031 5.56990722,65.457495 5.19659822,66.11457200000001 4.87630062,66.756511 4.60707842,67.38528600000001 4.38761142,68.002664 4.21713822,68.610255 4.09542701,69.209558 4.02276941,69.801999 4.0,70.3889678 4.02854215,70.9718535 4.11039497,71.5520848 4.24617752,72.1311257 4.43507692,72.71038 4.67682672,73.291188 4.97177442,73.874861 5.32088522,74.462714 5.72577422,75.05609700000001 6.188776219999999,75.656429 6.7130502199999995,76.265229 7.30273322,76.884151 7.96316122,77.515032 8.70118422,78.159929 9.52560622,78.821166 10.44779822,79.501362 11.482569219999998,80.203404 12.649301220000002,80.930261 13.97323822,81.68432 15.485894220000002,82.46542 17.22054422,83.26525000000001 19.21677422,84.06737 21.53473422,84.85602 24.22381422,85.61153 27.292474220000003,86.32456 30.72433422,87.02743 34.529064219999995,87.75450000000001 38.696754219999995,88.49026 43.18403422,89.20922 47.92240422,89.88217 52.840694219999996,90.48131000000001 57.89445422,90.98507000000001 63.08424422,91.38929 68.42381422,91.69813 73.92574422,91.91702000000001 79.60021422,92.0531 85.45169422000001,92.1152 91.47427422000001,92.11279 97.65467421999999,92.0578 103.97193422,91.96517 110.39748422,91.85003 116.90088422,91.71795 123.45388421999999,91.57213 130.03218422,91.41602 136.61688422,91.25318 143.19528422,91.08707 149.76098422,90.92105000000001 156.31438422000002,90.75822 162.86068422,90.60008 169.40558422,90.44589 175.95408422,90.29477 182.50958422000002,90.14588 189.07458422,89.9984 195.65038422,89.85154 202.23688421999998,89.70451 208.83318422,89.55662000000001 215.43448422,89.40775000000001 222.03078422,89.25821 228.62258422,89.10806 235.21118422,88.95735 241.79808422000002,88.80613 248.38428421999998,88.65444000000001 254.97088422000002,88.50234 261.55868422,88.34989 268.14838421999997,88.19715 274.74038422,88.04418 281.33498422,87.89106000000001 287.93248422,87.73785000000001 294.53278422,87.58463 301.13498422,87.4315 307.73558422,87.27862 314.33438422,87.12602 320.93198422,86.97366 327.52858422,86.82152 334.12468422,86.66956 340.72068422,86.51775 347.31678422,86.36608 353.91318422,86.21451 360.51018422000004,86.06301 367.10778422,85.91157 373.70628422,85.76017 380.30558422,85.60877 386.90578422,85.45736 393.50678422,85.30592 400.10858422,85.15442 406.71098422,85.00286 413.31388422,84.85123 419.91678422,84.69954 426.51948422000004,84.5478 433.12208422,84.39601 439.72468422,84.24418 446.32728422,84.09232 452.92998422,83.94042 459.53288421999997,83.78849 466.13588422000004,83.63654 472.73878421999996,83.48458 479.34148422,83.33262 485.94418422,83.18065 492.54678422,83.02869 499.14948422,82.87673000000001 505.75228422,82.72478 512.3552842199999,82.57285 518.95788422,82.42094 525.55998422,82.26906 532.16168422,82.1172 538.7628842199999,81.96536 545.36358422,81.81355 551.96378422,81.66175 558.56378422,81.50997 565.16348422,81.35819000000001 571.76308422,81.20642600000001 578.36278422,81.054659 584.96288422,80.902886 591.5634842200001,80.75110000000001 598.16488422,80.599293 604.76748422,80.447457 611.36948422,80.295628 617.9697842200001,80.143834 624.56818422,79.992081 631.1645842199999,79.84037000000001 637.7590842200001,79.68870100000001 644.35168422,79.537071 650.9427842199999,79.385474 657.53258422,79.233903 664.12178422,79.08234900000001 670.71068422,78.930797 677.30008422,78.779233 683.89078422,78.62764 690.48358422,78.475998 697.0794842199999,78.324284 703.67968422,78.17247400000001 710.2799842200001,78.020661 716.87398422,77.86899700000001 723.46068422,77.717499 730.04008422,77.566172 736.61208422,77.415015 743.17718422,77.264016 749.73638422,77.113155 756.2909842199999,76.962402 762.8423842200001,76.81172000000001 769.39278422,76.661063 775.9444842199999,76.51037600000001 782.50018422,76.359596 789.06318422,76.20865 795.6369842199999,76.057455 802.2254842200001,75.90592 808.8215842200001,75.754211 815.39618422,75.602996 821.9447842200001,75.45237900000001 828.46628422,75.302384 834.96098422,75.153006 841.43058422,75.00420700000001 847.8777842200001,74.85592 854.30688422,74.708052 860.7229842200001,74.56048 867.13268422,74.413057 873.5434842200001,74.265608 879.96438422,74.11792700000001 886.40568422,73.96977700000001 892.87938422,73.820881 899.39938422,73.67092 905.97688422,73.519637 912.52128422,73.369117 918.98718422,73.2204 925.38948422,73.073147 931.7569842199999,72.926695 938.1318842200001,72.780072 944.57228422,72.631944 951.1193842199999,72.48136 957.49818422,72.334649 963.57538422,72.1948735 969.31748422,72.062805 974.71768422,71.9385996 979.78658422,71.8220145 984.54448422,71.7125843 989.0156842199999,71.6097452 993.22588422,71.51291140000001 997.19948422,71.4215183 1000.95928422,71.33504267 1004.06288422,71.26366" stroke="black" stroke-width="2.0" /></svg>