<?xml version="1.0" encoding="utf-8" ?>
<svg baseProfile="full" height="264.06629" version="1.1" width="1012.7365211" xmlns="http://www.w3.org/2000/svg" xmlns:ev="http://www.w3.org/2001/xml-events" xmlns:xlink="http://www.w3.org/1999/xlink"><defs /><polygon fill="none" points="1004.7365211,231.5364 1000.8687211,228.81494899999998 996.3609210999999,225.735829 991.7960211,222.71695799999998 987.1649211,219.75385999999997 982.4578211,216.84226999999998 977.6636211,213.97814 972.7700211,211.15747 967.7629211,208.37631 962.6263211,205.63067999999998 957.3410210999999,202.91640999999998 951.8845211,200.22888999999998 946.2331211000001,197.55740999999998 940.3642211,194.88432 934.2549210999999,192.19029999999998 927.8824211,189.45418999999998 921.2263211000001,186.65276999999998 914.2721211,183.76083999999997 907.0168211,180.75205999999997 899.4762211,177.60233 891.6796211,174.31011999999998 883.6609211000001,170.89318999999998 875.4607211,167.37415 867.1218211,163.77839 858.6862211,160.13203 850.1904211,156.45978 841.6630211,152.78319 833.1222211,149.11953999999997 824.5752211,145.48127999999997 816.0180210999999,141.87595 807.4350211,138.30640999999997 798.7993210999999,134.77060999999998 790.0784211,131.25689999999997 781.2441210999999,127.74939999999998 772.2725211,124.23409999999998 763.1446211,120.69889999999998 753.8483211,117.13399999999999 744.3791211,113.53219999999999 734.7438211,109.88989999999998 724.9625211,106.2075 715.0711211,102.49069999999998 705.1229211,98.75109999999998 695.1863211,95.00749999999996 685.3270211,91.29049999999998 675.5929211,87.62869999999998 666.0132211,84.04259999999996 656.6003211,80.54559999999998 647.3530211000001,77.1448 638.2599210999999,73.8425 629.3017211,70.63769999999997 620.4528211,67.52659999999997 611.6831211,64.50399999999999 602.9573211000001,61.56339999999997 594.2366211,58.69569999999996 585.4861211,55.887099999999975 576.6787211,53.125999999999976 567.7956211000001,50.40379999999999 558.8258211,47.71449999999999 549.7673211,45.05529999999999 540.6287211,42.42580000000001 531.4296211000001,39.82879999999997 522.2017211,37.2696 512.9882210999999,34.756 503.84162110000005,32.297799999999995 494.8195211,29.90719999999999 485.97102110000003,27.603700000000003 477.3270211,25.40349999999998 468.90262110000003,23.316799999999972 460.70042109999997,21.34869999999998 452.7143211,19.500999999999976 444.9323211,17.773200000000003 437.3388211,16.16319999999999 429.9159211,14.668199999999985 422.64492110000003,13.285199999999975 415.5064211,12.010999999999967 408.4808211,10.843099999999964 401.5485211,9.778999999999996 394.69072109999996,8.815799999999996 387.89152110000003,7.948699999999974 381.1385211,7.17349999999999 374.4220211,6.487199999999973 367.7343211,5.887299999999982 361.0700211,5.372099999999961 354.4253211,4.940299999999979 347.79822110000003,4.590699999999998 341.1884211,4.322599999999994 334.5970211,4.135300000000001 328.02662110000006,4.027999999999992 321.4811211,4.0 314.9659211,4.050099999999986 308.48712109999997,4.177399999999977 302.05232110000003,4.38009999999997 295.6697211,4.657299999999992 289.3484211,5.009699999999981 283.0961211,5.4377999999999815 276.9197211,5.941999999999979 270.8248211,6.522199999999998 264.8159211,7.178099999999972 258.8966211,7.909099999999995 253.0695211,8.714499999999987 247.33652110000003,9.593399999999974 241.6989211,10.544699999999978 236.1571211,11.567299999999989 230.71122110000002,12.6601 225.36102110000002,13.821999999999974 220.1056211,15.051699999999983 214.9440211,16.348099999999988 209.8750211,17.70999999999998 204.8972211,19.136299999999977 200.0088211,20.625999999999976 195.20882110000002,22.177699999999987 190.4952211,23.7902 185.8646211,25.463199999999972 181.31232110000002,27.197099999999978 176.8331211,28.99289999999999 172.4204211,30.8527 168.06752110000002,32.779300000000006 163.7667211,34.77659999999997 159.5097211,36.84959999999998 155.2874211,39.00479999999999 151.0897211,41.2499 146.90342110000003,43.5917 142.7152211,46.03290000000001 138.5150211,48.57509999999999 134.2961211,51.217299999999966 130.0566211,53.955599999999976 125.7994211,56.78189999999998 121.5331211,59.68349999999998 117.2725211,62.64159999999998 113.0380211,65.6325 108.8551211,68.6275 104.7513211,71.59589999999997 100.75480110000001,74.50829999999999 96.89705110000001,77.35329999999999 93.1996211,80.1377 89.66908110000001,82.8743 86.30230110000001,85.5795 83.09068110000001,88.27149999999997 80.0228511,90.96979999999996 77.0860511,93.69469999999998 74.2618811,96.45999999999998 71.5301311,99.2696 68.8754511,102.12499999999997 66.2865111,105.0251 63.7551511,107.9665 61.275981099999996,110.94289999999998 58.8459611,113.94539999999998 56.464131099999996,116.96259999999998 54.1312811,119.98029999999999 51.850251099999994,122.98319999999998 49.6281511,125.95989999999998 47.4719711,128.90229999999997 45.38655109999999,131.80438999999998 43.3748611,134.66195 41.438321099999996,137.47244999999998 39.5770911,140.23467 37.790391099999994,142.9484 36.0767411,145.61427999999998 34.4341811,148.23352 32.8604511,150.80778999999998 31.3530811,153.33900999999997 29.9095511,155.82933999999997 28.5272711,158.28102 27.2019911,160.69604999999999 25.9278711,163.07553 24.6998411,165.41974 23.5136311,167.72834 22.365541099999998,170.00054999999998 21.2524111,172.23532 20.171481099999998,174.43142999999998 19.1203211,176.58763 18.0967911,178.70270999999997 17.0990011,180.7756 16.1256011,182.80541 15.1791011,184.79179 14.263590100000002,186.73515999999998 13.3822461,188.63642 12.5374451,190.49689999999998 11.7309191,192.31813999999997 10.9638801,194.10186 10.2371301,195.84986999999998 9.5511511,197.564 8.9061791,199.24608 8.3022631,200.89791 7.7393131,202.52122999999997 7.217141099999999,204.11772 6.7354861,205.68899 6.2940441,207.23658999999998 5.8924810999999995,208.76197 5.530454499999999,210.26653 5.2076184,211.7516 4.9236373,213.21841999999998 4.67819093,214.66818999999998 4.4709808,216.10204 4.301734,217.52104 4.170207,218.92622999999998 4.076188,220.31857 4.0194996,221.699005 4.0,223.068415 4.0175848,224.42765899999998 4.0721882,225.77755599999998 4.1637842,227.11889799999997 4.2923877,228.45244599999998 4.4580555,229.77893999999998 4.66088765,231.0990956 4.901,232.41339799999997 5.1782326,233.719892 5.4922927999999995,235.01520699999998 5.8429741,236.296134 6.2301641,237.55963 6.6538511,238.80278299999998 7.1141241,240.022788 7.6111841,241.21692199999998 8.1453501,242.38251 8.7170631,243.51691 9.3269011,244.61746 9.975587099999998,245.68149 10.6640051,246.70624999999998 11.393217100000001,247.68891 12.1644811,248.6265 12.979281100000001,249.51585999999998 13.839354099999998,250.35363999999998 14.746731100000002,251.13619 15.7037811,251.85951999999997 16.7132611,252.51922 17.7784111,253.11041 18.9009311,253.63134 20.0795611,254.08586 21.3126811,254.47825999999998 22.5984611,254.81285 23.9347511,255.09413999999998 25.3189511,255.32691999999997 26.7477911,255.51644 28.217171099999998,255.66857 29.7218911,255.78994999999998 31.256291100000002,255.88741 32.819591100000004,255.96321999999998 34.4132211,256.01784999999995 36.0387911,256.05192999999997 37.698031099999994,256.06629 39.3928211,256.06201999999996 41.12527109999999,256.04046 42.8976611,256.00329999999997 44.7125711,255.95254999999997 46.572881100000004,255.89067999999997 48.48180109999999,255.82061 50.4430311,255.74581999999998 52.460751099999996,255.67046 54.539811099999994,255.59938999999997 56.6856611,255.53780999999998 58.903171099999994,255.48713999999998 61.1970911,255.44687 63.5725811,255.41627999999997 66.03528109999999,255.39441 68.5913311,255.38001999999997 71.2473911,255.37147 74.0106511,255.36664 76.8888111,255.36283999999998 79.89003110000002,255.35656 83.0231011,255.34420999999998 86.2983811,255.32489999999999 89.7273811,255.2987 93.32249110000001,255.26581 97.09685110000001,255.22666999999998 101.0642411,255.182 105.2387211,255.13294 109.6342211,255.08079999999998 114.26322110000001,255.02632 119.13692110000001,254.97026 124.26492110000001,254.91371999999998 129.65472110000002,254.85813 135.31122109999998,254.80534999999998 141.2377211,254.7577 147.4370211,254.71797999999998 153.9135211,254.68955999999997 160.6777211,254.67575 167.7455211,254.67595 175.1327211,254.68708999999998 182.8536211,254.70493 190.9191211,254.72375 199.3354211,254.73612999999997 208.1021211,254.73277 217.2104211,254.70714999999998 226.64342109999998,254.65926 236.37642110000002,254.59033 246.3782211,254.50244999999998 256.6131211,254.39847999999998 267.0438211,254.28200999999999 277.63442110000005,254.15724999999998 288.3535211,254.02879 299.1776211,253.9015 310.0925211,253.78029999999998 321.0933211,253.66717999999997 332.17682110000004,253.56088 343.3396211,253.45994 354.5771211,253.36278 365.88422110000005,253.26779 377.2548211,253.17327999999998 388.6819211,253.0775 400.1579211,252.97868 411.6742211,252.87510999999998 423.2213211,252.76703999999998 434.7892211,252.6563 446.36712109999996,252.54480999999998 457.9436211,252.43447999999998 469.5070211,252.32725 481.04532109999997,252.22501999999997 492.5459211,252.12965999999997 503.9967211,252.04295 515.3855211,251.96574999999999 526.7024211,251.89431 537.9426211,251.8236 549.1055211,251.74874 560.1950211,251.66503999999998 571.2185211000001,251.56792 582.1871211,251.4529 593.1151211,251.31552 604.0200211,251.15124999999998 614.9226210999999,250.95656 625.8430211,250.73385 636.7969211,250.48743 647.7945211,250.22170999999997 658.8406211,249.94128999999998 669.9340211,249.65103 681.0673211,249.35608 692.2267211000001,249.06189999999998 703.3914211,248.77415 714.5350211,248.49775 725.6298211,248.23210999999998 736.6544211,247.97451999999998 747.5948211,247.72216999999998 758.4435211,247.47217999999998 769.1992211,247.22171999999998 779.8661211,246.96794999999997 790.4529211,246.70803999999998 800.9727211,246.43914999999998 811.4422211,246.15874 821.8749211,245.86926 832.2622211,245.57710999999998 842.5713211,245.28933999999998 852.7473210999999,245.01324 862.7209210999999,244.75585999999998 872.4169211,244.52334 881.7652211,244.32034 890.7095211,244.14969 899.2126211,244.01236999999998 907.2572210999999,243.90760999999998 914.8450210999999,243.81878999999998 922.0026210999999,243.71090999999998 928.7749211,243.55739 935.2117211,243.33936 941.3616211,243.04282999999998 947.2695210999999,242.65659 952.9760211,242.17075999999997 958.5180210999999,241.57649999999998 963.9295211,240.872988 969.2396210999999,240.06319 974.4736211000001,239.148274 979.6533211000001,238.12777 984.7993211,236.999664 989.9309211,235.76038599999998 995.0673211,234.4047 1000.2280211,232.92548599999998 1004.7365211,231.5364" stroke="black" stroke-width="2.0" /></svg>