<?xml version="1.0" encoding="utf-8" ?>
<svg baseProfile="full" height="105.98623" version="1.1" width="1012.005913472" xmlns="http://www.w3.org/2000/svg" xmlns:ev="http://www.w3.org/2001/xml-events" xmlns:xlink="http://www.w3.org/1999/xlink"><defs /><polygon fill="none" points="1004.005913472,73.31018 1000.886813472,72.7695492 997.110913472,72.11436400000001 993.124113472,71.421735 988.904813472,70.687798 984.4305134719999,69.908434 979.678013472,69.079438 974.626113472,68.196866 969.2584134719999,67.257611 963.568713472,66.260305 957.567713472,65.206548 951.2910134719999,64.10231 944.827913472,62.963890000000006 938.424913472,61.83648 932.0758134719999,60.720740000000006 925.7243134720001,59.60858 919.329113472,58.49461 912.862513472,57.37603 906.381813472,56.26476 899.974913472,55.1775 893.625913472,54.11153 887.3181134719999,53.063140000000004 881.036813472,52.029090000000004 874.7697134719999,51.00662 868.506113472,49.993320000000004 862.236813472,48.98709000000001 855.954113472,47.98608 849.6515134719999,46.988690000000005 843.3238134719999,45.99354 836.9671134719999,44.999430000000004 830.578913472,44.00542 824.1582134719999,43.01077000000001 817.705613472,42.014939999999996 811.223313472,41.01768 804.715613472,40.01897 798.1883134719999,39.01927 791.6534134719999,38.02113 785.1231134719999,37.02758000000001 778.592813472,36.03902000000001 772.0575134719999,35.05584 765.5202134719999,34.07961 758.9931134719999,33.11332 752.4791134719999,32.15846 745.980213472,31.21633 739.4972134719999,30.28812 733.030413472,29.37487 726.579613472,28.47752 720.1437134720001,27.596899999999998 713.721013472,26.73375 707.309413472,25.888720000000006 700.905813472,25.06239 694.507313472,24.254600000000003 688.110813472,23.464580000000005 681.713813472,22.6916 675.314313472,21.934970000000007 668.9101134719999,21.194090000000003 662.500013472,20.468400000000003 656.082513472,19.75739 649.6569134719999,19.06062 643.222513472,18.377660000000006 636.779313472,17.708130000000004 630.3272134719999,17.05169 623.866813472,16.408030000000004 617.3989134719999,15.776850000000003 610.924813472,15.157910000000001 604.4459134719999,14.550960000000003 597.964213472,13.955930000000002 591.481613472,13.37341 584.9997134719999,12.804200000000002 578.520213472,12.249020000000002 572.044313472,11.70861 565.572913472,11.183620000000005 559.106913472,10.67472 552.646813472,10.182520000000004 546.193013472,9.707619999999999 539.7456134720001,9.250580000000014 533.304413472,8.811949999999996 526.869113472,8.39227000000001 520.439213472,7.992050000000006 514.013913472,7.611809999999991 507.59231347199994,7.25206 501.17311347199995,6.913269999999997 494.755213472,6.595510000000004 488.337213472,6.298310000000001 481.918213472,6.021209999999996 475.49711347199997,5.763779999999997 469.073113472,5.525580000000005 462.645413472,5.306200000000004 456.21341347199996,5.105239999999995 449.776413472,4.922320000000013 443.33411347199996,4.7570400000000035 436.88621347199995,4.609040000000007 430.43241347199995,4.477940000000004 423.972613472,4.3633800000000065 417.506913472,4.264980000000008 411.035313472,4.182370000000006 404.55801347199997,4.1152000000000015 398.075613472,4.0631699999999995 391.58821347199995,4.026440000000008 385.096613472,4.005290000000002 378.601213472,4.0 372.103013472,4.010869999999997 365.60271347199995,4.038150000000002 359.101413472,4.082120000000003 352.600213472,4.143019999999993 346.100513472,4.221100000000007 339.603513472,4.3165599999999955 333.11091347199994,4.429630000000003 326.624113472,4.560469999999995 320.144913472,4.7092600000000004 313.67511347199996,4.876140000000007 307.216713472,5.061220000000006 300.771613472,5.264610000000005 294.34191347199993,5.487160000000003 287.929513472,5.73039 281.536013472,5.995840000000001 275.162313472,6.285020000000003 268.809213472,6.599429999999998 262.477013472,6.940529999999995 256.165513472,7.30980000000001 249.874213472,7.708690000000004 243.602513472,8.1387 237.349113472,8.601309999999998 231.112713472,9.09805 224.891413472,9.630499999999998 218.68331347199998,10.200290000000003 212.486013472,10.809120000000007 206.296913472,11.45879 200.113113472,12.151020000000003 193.93101347200002,12.885370000000002 187.746713472,13.659880000000001 181.55591347200001,14.472730000000006 175.353713472,15.322220000000002 169.134813472,16.206810000000004 162.893213472,17.12507 156.622413472,18.07578 150.315213472,19.057990000000004 143.965813472,20.073480000000004 137.577013472,21.125170000000004 131.16171347200003,22.214280000000002 124.744413472,23.339870000000005 118.36011347200001,24.49848 112.05231347200001,25.684129999999996 105.86881347200001,26.888670000000005 99.856583472,28.103570000000005 94.045783472,29.332120000000003 88.424253472,30.589790000000008 82.94552347199999,31.898490000000002 77.538683472,33.28775 72.11343347200001,34.790130000000005 66.615413472,36.42062 61.082013472,38.16597 55.652233472000006,39.97423 50.520483472,41.76568 45.827613472,43.48532 41.571663472000004,45.13032 37.680183472,46.722120000000004 34.072733471999996,48.28828 30.675543471999998,49.85878 27.419513472,51.4688 24.254333472,53.160250000000005 21.289973472,54.8852 18.702793472,56.514320000000005 16.536313472,57.96918 14.720323472,59.25437 13.190369472,60.39687 11.885654471999999,61.427890000000005 10.757589472,62.37346 9.771664472000001,63.252390000000005 8.903370471999999,64.078235 8.134953472,64.861008 7.453297472,65.608273 6.848524472,66.325905 6.3130954720000005,67.018583 5.841213472,67.690113 5.428414472,68.34366 5.071289472,68.981919 4.767289472,69.607223 4.514596972,70.221643 4.312036072,70.827054 4.159021372,71.425197 4.055536492,72.017724 4.002139686,72.60625160000001 4.0,73.1924004 4.050597412,73.7778295 4.153420672,74.364104 4.307426372,74.952676 4.512194072,75.544951 4.767898272,76.142337 5.075304472,76.74627000000001 5.435795472,77.35826 5.851425472,77.97992500000001 6.3250154720000005,78.613039 6.860289472,79.259583 7.462073472,79.921809 8.136578472,80.602322 8.891799471999999,81.304181 9.738094472,82.031016 10.689004472,82.78717 11.762425472,83.57781 12.982148472,84.40887000000001 14.379503472,85.28633 15.992903471999998,86.21327000000001 17.859573472,87.1815 20.027863472,88.17565 22.543383472,89.17157 25.399213472,90.13336000000001 28.534633472,91.04241 31.921133472,91.92604 35.578763472,92.79573 39.52558347200001,93.64347000000001 43.772773472000004,94.45819 48.31749347200001,95.22506 53.133163472,95.9253 58.162293472,96.53785 63.343303472,97.04717 68.629553472,97.44586000000001 73.99827347200001,97.73284000000001 79.461063472,97.91082 85.068443472,97.98623 90.882283472,97.97481 96.949273472,97.89598000000001 103.28433347200001,97.7749 109.83631347200001,97.64093 116.36271347200001,97.5047 122.835913472,97.36345 129.320613472,97.21241 135.862913472,97.04693 142.440613472,96.86377 148.932813472,96.66304 155.34701347200001,96.44191000000001 161.714013472,96.19865 168.064613472,95.93517 174.42391347199998,95.65379 180.811213472,95.35681 187.240813472,95.04672 193.72151347200003,94.72631 200.256413472,94.39875 206.841213472,94.06776 213.42571347199998,93.73811 219.980913472,93.41193000000001 226.51681347200002,93.08927 233.04221347200001,92.77024 239.565013472,92.45504 246.09171347199998,92.14391 252.62791347200002,91.83716 259.17821347200004,91.53519 265.74631347199994,91.23844 272.33461347199994,90.94744 278.935013472,90.66318000000001 285.51681347199997,90.38755 292.078313472,90.12115 298.621613472,89.86439 305.149713472,89.61765 311.666813472,89.38092 318.17691347199997,89.15334 324.683613472,88.93398 331.18991347199994,88.72193 337.698713472,88.51632000000001 344.212213472,88.3163 350.73221347199996,88.12103 357.260213472,87.92968 363.797113472,87.74145 370.34361347199996,87.55553 376.899713472,87.37112 383.46501347199995,87.18744000000001 390.038913472,87.00370000000001 396.620013472,86.81911000000001 403.206613472,86.63291000000001 409.796613472,86.44455 416.387413472,86.25463 422.97721347199996,86.06421 429.56401347199994,85.87432 436.14621347199994,85.68598 442.722713472,85.50019 449.292313472,85.31794000000001 455.854413472,85.14023 462.408513472,84.968 468.95431347199997,84.80221 475.49211347199997,84.64378 482.02201347199997,84.49364 488.54471347199996,84.3527 495.060913472,84.22185 501.571813472,84.102 508.07861347200003,83.99394000000001 514.582813472,83.89723000000001 521.085713472,83.81054 527.588413472,83.73251 534.0919134719999,83.66181 540.597213472,83.59712 547.1050134719999,83.53710000000001 553.615913472,83.48043 560.130213472,83.42577 566.648513472,83.37181000000001 573.170713472,83.3172 579.697013472,83.260605 586.227313472,83.20068500000001 592.761213472,83.136095 599.298413472,83.065488 605.838313472,82.98752400000001 612.380313472,82.90167600000001 618.9236134719999,82.80887 625.467913472,82.710188 632.0125134719999,82.60671 638.557013472,82.499518 645.1013134719999,82.389695 651.6451134719999,82.278321 658.1882134719999,82.166475 664.730513472,82.055233 671.272213472,81.94567 677.8132134719999,81.83886 684.3539134719999,81.735872 690.894513472,81.637776 697.435413472,81.545642 703.976913472,81.46054000000001 710.5197134719999,81.38315300000001 717.0641134719999,81.312606 723.610513472,81.247624 730.158813472,81.186937 736.709113472,81.129272 743.2610134720001,81.073355 749.814113472,81.017915 756.367613472,80.961675 762.9209134719999,80.903366 769.4728134719999,80.841716 776.022213472,80.775464 782.567613472,80.703353 789.107613472,80.62414 795.640413472,80.536596 802.164113472,80.439511 808.676713472,80.331819 815.176413472,80.213607 821.662113472,80.085595 828.133713472,79.948492 834.591713472,79.80298 841.037513472,79.649709 847.473213472,79.489299 853.9019134719999,79.322329 860.3272134719999,79.149345 866.7535134719999,78.970855 873.186113472,78.787327 879.6311134719999,78.59919500000001 886.095613472,78.40685400000001 892.587513472,78.210665 899.1161134719999,78.010953 905.691713472,77.80801100000001 912.277013472,77.602593 918.807513472,77.394435 925.2972134720001,77.180716 931.7747134719999,76.95813100000001 938.282113472,76.722735 944.854113472,76.470498 951.310713472,76.20603700000001 957.5410134719999,75.93298300000001 963.4951134720001,75.654696 969.146513472,75.374849 974.4889134719999,75.09623500000001 979.529713472,74.82081000000001 984.284513472,74.549847 988.7729134719999,74.2841111 993.016213472,74.024005 997.0351134719999,73.7696832 1000.849513472,73.5211369 1004.005913472,73.31018" stroke="black" stroke-width="2.0" /></svg>