<?xml version="1.0" encoding="utf-8" ?>
<svg baseProfile="full" height="133.49000999999998" version="1.1" width="1012.005239711" xmlns="http://www.w3.org/2000/svg" xmlns:ev="http://www.w3.org/2001/xml-events" xmlns:xlink="http://www.w3.org/1999/xlink"><defs /><polygon fill="none" points="1004.005239711,85.60499 1001.0576397109999,84.7237351 997.5021397109999,83.677182 993.764239711,82.596239 989.827239711,81.479026 985.6734397109999,80.323897 981.2845397109999,79.129668 976.643239711,77.89595800000001 971.734339711,76.623669 966.547739711,75.31562 961.0824397109999,73.97729 955.350339711,72.61758 949.381839711,71.24866 943.225039711,69.88026 936.9378397109999,68.51910000000001 930.592639711,67.17256 924.2498397109999,65.84391 917.8979397109999,64.52086 911.5892397109999,63.20443 905.342039711,61.88893 899.1565397109999,60.56653 893.0243397109999,59.236290000000004 886.936339711,57.90084 880.884139711,56.56279 874.860439711,55.224720000000005 868.858339711,53.88924 862.871839711,52.55901 856.895039711,51.23674 850.923039711,49.9252 844.950839711,48.62729 838.9742397109999,47.34598 832.9891397109999,46.08441 826.991839711,44.8458 820.978939711,43.63357 814.9474397109999,42.451249999999995 808.894639711,41.302569999999996 802.818039711,40.191390000000006 796.716039711,39.11977 790.587839711,38.08539 784.4333397109999,37.08532 778.2523397109999,36.116640000000004 772.0451397109999,35.1764 765.812239711,34.26164 759.5543397109999,33.36938 753.2725397109999,32.4966 746.968239711,31.64027 740.6431397109999,30.797310000000003 734.2993397109999,29.964619999999996 727.9391397109999,29.13908 721.565439711,28.317570000000003 715.181239711,27.49693 708.789939711,26.67405 702.3953397109999,25.84583 696.0013397109999,25.01108 689.610739711,24.172220000000003 683.226239711,23.332029999999996 676.849839711,22.493240000000007 670.4831397109999,21.65849 664.1275397109999,20.83035000000001 657.783639711,20.011290000000002 651.4520397109999,19.203699999999998 645.1326397109999,18.409909999999996 638.825039711,17.632130000000004 632.5284397109999,16.872530000000012 626.241839711,16.133200000000002 619.9637397109999,15.416179999999997 613.692239711,14.723460000000003 607.4250397109998,14.057000000000002 601.1598397109999,13.418679999999995 594.8940397109999,12.808989999999994 588.6253397109999,12.226830000000007 582.351839711,11.671099999999996 576.071939711,11.140749999999997 569.784139711,10.634780000000006 563.487239711,10.15222 557.1805397109999,9.692139999999995 550.8631397109999,9.253630000000001 544.5347397109999,8.835819999999998 538.1951397109999,8.437820000000002 531.8446397109999,8.058800000000005 525.4835397109999,7.697879999999998 519.112539711,7.354230000000001 512.732739711,7.02700999999999 506.34533971099995,6.715360000000004 499.951939711,6.418500000000009 493.55423971100004,6.136399999999995 487.15373971099996,5.869599999999991 480.751839711,5.618600000000001 474.349939711,5.38391 467.949039711,5.165999999999997 461.55023971099996,4.965340000000012 455.15443971099995,4.782380000000003 448.76233971100004,4.617540000000005 442.374539711,4.471250000000012 435.991639711,4.343919999999997 429.613839711,4.2359500000000025 423.24153971100003,4.147729999999996 416.874639711,4.079639999999998 410.51313971099995,4.032060000000001 404.157039711,4.005369999999999 397.805939711,4.0 391.45963971099997,4.016630000000006 385.11813971099997,4.055970000000002 378.781239711,4.118750000000006 372.449139711,4.205700000000007 366.12173971100003,4.317549999999997 359.799339711,4.454999999999998 353.481939711,4.618790000000004 347.170039711,4.809610000000006 340.863739711,5.028170000000003 334.563439711,5.275170000000003 328.269639711,5.5512800000000055 321.982739711,5.85718 315.70333971099996,6.193540000000013 309.431939711,6.560990000000004 303.169239711,6.960160000000002 296.91583971100005,7.391350000000003 290.67223971100003,7.853989999999996 284.438439711,8.347399999999993 278.214139711,8.870929999999987 271.998639711,9.423990000000003 265.791139711,10.006029999999996 259.590239711,10.616550000000004 253.394239711,11.255120000000005 247.201239711,11.921390000000002 241.008739711,12.615079999999992 234.814239711,13.335989999999995 228.61443971100002,14.084030000000013 222.406139711,14.859179999999995 216.185239711,15.661559999999994 209.947539711,16.49139000000001 203.688239711,17.349019999999996 197.40203971100001,18.234980000000007 191.08593971099998,19.149789999999996 184.74143971100003,20.0933 178.37553971100002,21.06452 172.000639711,22.061469999999993 165.634939711,23.08104000000001 159.301639711,24.11905 153.027639711,25.170300000000005 146.841739711,26.231930000000006 140.765439711,27.309130000000003 134.806139711,28.40947 128.95943971100002,29.541580000000003 123.211739711,30.71521 117.542739711,31.94151 111.925939711,33.233560000000004 106.328239711,34.607279999999996 100.709029711,36.08163 95.022919711,37.65889 89.246679711,39.318760000000005 83.396319711,41.02628 77.535299711,42.729949999999995 71.774359711,44.401810000000005 66.236459711,46.077099999999994 61.011669710999996,47.78876 56.148309711,49.556940000000004 51.658919710999996,51.38893 47.522589711,53.26067 43.674769711,55.14969 40.030969711,57.061499999999995 36.498769711,59.02214 32.966019711,61.08287 29.253239711000003,63.35001 24.940279711,66.10673 20.161059711000004,69.29741 16.710819711,71.66294 14.362159711,73.30017000000001 12.600944711,74.57273 11.196753711,75.638169 10.032258711,76.57251600000001 9.043364710999999,77.416306 8.191389711,78.193734 7.451230711,78.920496 6.805723711000001,79.607442 6.242704711,80.262458 5.753339711,80.89151 5.331142711,81.49928 4.971352611,82.08956 4.670543311,82.665514 4.426369111,83.229865 4.237408811,83.785027 4.103076891,84.333206 4.023592401,84.8764931 4.0,85.4169382 4.034009441,85.9566187 4.125416811,86.4975389 4.273025611,87.041574 4.476475611,87.590577 4.736240711,88.146449 5.053645711,88.711204 5.430938711,89.287054 5.871429711,89.87649400000001 6.379712711,90.48243 6.962014711,91.108337 7.626726711,91.758504 8.385234710999999,92.438378 9.253257711,93.15512 10.253088711,93.918491 11.417508711,94.742374 12.796979710999999,95.64742 14.472889711,96.66544 16.575199711,97.84262 19.279659711,99.21988 22.728809711,100.75768 26.569299711000003,102.20468 30.335609711,103.41273 34.106499711,104.47768 38.050209711,105.47631 42.321269711,106.46157 47.093439711,107.48492 52.536029711,108.60426 58.604569711,109.85339 64.88116971100001,111.14229 70.966299711,112.34783999999999 76.757549711,113.41760000000001 82.369769711,114.35171 87.982389711,115.1853 93.72898971100001,115.95744 99.696499711,116.69674 105.912239711,117.42576 112.318439711,118.15062 118.731839711,118.84754000000001 125.126339711,119.51016 131.56173971099997,120.14088000000001 137.97563971099999,120.7298 144.29323971099998,121.26766 150.519239711,121.75343 156.676039711,122.18746 162.79593971100002,122.57347 168.908439711,122.9178 175.03723971099998,123.22588999999999 181.20083971100001,123.50243 187.412939711,123.75165 193.682339711,123.97752 200.01233971099998,124.18393 206.399539711,124.37473 212.835139711,124.55194 219.308439711,124.71508 225.799639711,124.86335 232.27623971100002,124.99588 238.74363971100001,125.11277 245.209039711,125.2141 251.678639711,125.29983 258.157839711,125.3699 264.649839711,125.42414 271.136139711,125.46227999999999 277.60383971100003,125.48423 284.052139711,125.49001 290.481239711,125.47967 296.892639711,125.45325 303.288539711,125.41076 309.672439711,125.35226 316.047939711,125.27826999999999 322.418339711,125.18941000000001 328.786539711,125.08628999999999 335.155239711,124.96951 341.52673971099995,124.83963 347.902939711,124.69722 354.285439711,124.54283000000001 360.675539711,124.37703 367.07413971100004,124.20038 373.48183971099996,124.01345 379.898839711,123.81684 386.325039711,123.61114 392.759939711,123.39698 399.202739711,123.17500000000001 405.65213971099996,122.94585000000001 412.106539711,122.71000000000001 418.56443971100003,122.46747 425.02443971099996,122.21821 431.485239711,121.96221 437.945739711,121.69942 444.405139711,121.42982 450.86263971100004,121.15336 457.31783971100003,120.86998 463.770239711,120.57965999999999 470.21983971099996,120.28231 476.666539711,119.97788 483.110539711,119.6663 489.552139711,119.34747 495.992039711,119.02131 502.43083971100003,118.68771000000001 508.869439711,118.34658 515.308839711,117.99817 521.7499397109999,117.64287 528.1934397109999,117.28110000000001 534.639939711,116.91326000000001 541.0899397109999,116.53977 547.543739711,116.16106 554.0017397109999,115.77758 560.463839711,115.38975 566.930039711,114.99806000000001 573.400139711,114.60294 579.8738397109998,114.2049 586.350639711,113.80441 592.829939711,113.40197 599.310939711,112.99809 605.792739711,112.5933 612.2744397109999,112.1879 618.755039711,111.78187 625.2336397109999,111.37509 631.7098397109999,110.96746 638.1831397109999,110.55886 644.653339711,110.14914999999999 651.1204397109999,109.73821000000001 657.5845397109999,109.32586 664.0460397109999,108.91195 670.505339711,108.49631 676.9632397109999,108.07874 683.420539711,107.65904 689.878339711,107.237 696.3378397109999,106.81239 702.8004397109999,106.38497 709.2678397109999,105.95451 715.741439711,105.52095 722.222139711,105.08434 728.699739711,104.6455 735.168639711,104.20492 741.629039711,103.76274000000001 748.081739711,103.31901 754.527639711,102.87381 760.968539711,102.42715 767.406139711,101.97902 773.843039711,101.52936 780.2820397109999,101.07811 786.7263397109999,100.62515 793.1798397109999,100.17033 799.646539711,99.71348 806.122739711,99.25498 812.578839711,98.79717 819.008339711,98.34099 825.409039711,97.88703 831.780439711,97.43579 838.123439711,96.98765 844.4401397109999,96.54288 850.733839711,96.10166 857.0093397109999,95.66407 863.2721397109999,95.230147 869.529139711,94.799812 875.7884397109999,94.372938 882.059439711,93.949327 888.352839711,93.52871 894.681239711,93.110749 901.059139711,92.695031 907.5026397109999,92.28103300000001 913.9455397109999,91.872119 920.309939711,91.47098 926.611439711,91.074383 932.879539711,90.67836 939.1566397109999,90.278164 945.499739711,89.867955 951.930939711,89.443886 958.176339711,89.022194 964.130239711,88.610367 969.7621397109999,88.211997 975.065439711,87.829019 980.050039711,87.462125 984.7344397109999,87.111187 989.1417397109999,86.775586 993.295939711,86.4544466 997.220139711,86.1467893 1000.9360397109999,85.8516166 1004.005239711,85.60499" stroke="black" stroke-width="2.0" /></svg>