<?xml version="1.0" encoding="utf-8" ?>
<svg baseProfile="full" height="166.12265" version="1.1" width="1012.04932123" xmlns="http://www.w3.org/2000/svg" xmlns:ev="http://www.w3.org/2001/xml-events" xmlns:xlink="http://www.w3.org/1999/xlink"><defs /><polygon fill="none" points="1004.04932123,130.433 1000.57512123,129.22359999999998 996.3755212300001,127.75772099999999 991.95132123,126.20874199999999 987.28412123,124.569442 982.3561212300001,122.83273999999999 977.1524212300001,120.992336 971.66312123,119.04370999999999 965.8879212300001,116.98552 959.84022123,114.82140999999999 953.55272123,112.56179999999999 947.07832123,110.22619999999999 940.48192123,107.84431 933.82672123,105.44744999999999 927.16582123,103.06351 920.5364212300001,100.71436 913.95852123,98.41494999999999 907.43522123,96.17374 900.9554212300001,93.99363 894.49812123,91.87010999999998 888.04332123,89.79329999999999 881.57342123,87.75432999999998 875.07332123,85.74547999999999 868.5299212300001,83.75997 861.93182123,81.79175 855.26942123,79.83546999999999 848.53512123,77.88633999999999 841.72372123,75.94018999999999 834.83232123,73.99342999999999 827.86132123,72.04319999999998 820.8146212300001,70.08736999999999 813.70042123,68.12471 806.5313212300001,66.15502 799.3248212300001,64.17927 792.10132123,62.202659999999995 784.87952123,60.23394999999999 777.6755212300001,58.28130999999999 770.50242123,56.35196999999998 763.37012123,54.45209999999999 756.2859212300001,52.58686 749.2539212300001,50.76044999999999 742.27582123,48.97613999999999 735.35112123,47.23643999999999 728.47702123,45.543199999999985 721.64922123,43.897729999999996 714.8617212300001,42.30087999999999 708.10692123,40.75318999999999 701.37602123,39.25496 694.6591212300001,37.80552 687.9473212300001,36.401759999999996 681.2326212300001,35.04053999999999 674.50812123,33.719139999999996 667.76762123,32.435159999999996 661.00582123,31.186509999999984 654.21832123,29.97139999999999 647.40142123,28.7881 640.5523212300001,27.63539999999999 633.66912123,26.511899999999997 626.7506212300001,25.41669999999999 619.79692123,24.348799999999983 612.80892123,23.30749999999999 605.78882123,22.291999999999987 598.74002123,21.3018 591.66672123,20.337099999999992 584.57282123,19.398299999999992 577.46242123,18.486199999999997 570.3390212300001,17.601299999999995 563.20612123,16.744 556.06672123,15.914599999999993 548.9236212300001,15.113299999999995 541.77942123,14.340499999999992 534.63602123,13.596099999999993 527.49542123,12.880199999999988 520.35902123,12.192899999999995 513.22792123,11.533999999999992 506.10302123,10.90339999999999 498.98482122999997,10.300999999999988 491.87342122999996,9.72659999999999 484.76892123,9.1802 477.67102122999995,8.661599999999993 470.57902122999997,8.170699999999982 463.49222123,7.707300000000004 456.40932122999993,7.2714 449.32902122999997,6.862700000000004 442.24952122999997,6.481199999999987 435.16892122999997,6.126799999999989 428.08492122999996,5.7993999999999915 420.99492123,5.498999999999995 413.89612123,5.225399999999993 406.78522122999993,4.9787000000000035 399.65872122999997,4.758999999999986 392.51282123,4.566400000000002 385.34422122999996,4.401199999999989 378.15112122999994,4.263799999999989 370.93342122999996,4.154499999999999 363.69242123,4.073799999999991 356.43162122999996,4.022199999999998 349.15582122999996,4.0 341.87202123,4.007499999999993 334.58892123,4.044899999999984 327.31692123,4.112099999999984 320.06782122999994,4.208999999999989 312.85502123,4.335199999999986 305.69242123,4.489899999999992 298.59482123,4.672299999999993 291.57692123,4.883499999999984 284.65032123,5.127300000000005 277.82212122999994,5.40740000000001 271.09532122999997,5.727299999999985 264.46942122999997,6.089799999999997 257.94142123,6.4979999999999905 251.50572123,6.954699999999988 245.15542123,7.4624999999999915 238.88192123000002,8.024599999999992 232.67572123000002,8.64409999999998 226.52592123,9.324399999999997 220.42082123,10.06949999999999 214.34772123,10.883999999999986 208.29242123,11.7731 202.23932123,12.743200000000002 196.17112123,13.801199999999994 190.07172123,14.950399999999988 183.93252123,16.19189999999999 177.75452123,17.524699999999996 171.54922123,18.945499999999996 165.33922123000002,20.447399999999988 159.15872123000003,22.01939999999999 153.05052123000002,23.64609999999999 147.06332123,25.310299999999998 141.24172123,27.004499999999993 135.60982123,28.72959999999999 130.17152123,30.48975999999999 124.91762123000001,32.29172999999999 119.83062123,34.14461999999999 114.88812123000001,36.05973 110.06452123000001,38.05087999999999 105.33152123,40.13513999999999 100.65790123000001,42.333989999999986 96.00758123,44.66632999999999 91.34939123,47.13652999999999 86.66901123,49.739869999999996 81.97215123000001,52.459469999999996 77.28754123000002,55.26227999999999 72.66757123000001,58.10427 68.17656123,60.95694999999999 63.866071229999996,63.800139999999985 59.769211229999996,66.61861999999999 55.90212122999999,69.40235999999999 52.26776123,72.14581999999999 48.86116122999999,74.84346 45.67359122999999,77.48492999999999 42.691891229999996,80.06441999999998 39.90086123,82.58035999999998 37.28512123,85.03375 34.83007123,87.42706999999999 32.52231123,89.76362 30.34980123,92.04706999999999 28.30183123,94.28120999999999 26.36568123,96.4703 24.52165123,98.61358999999999 22.76258123,100.69448 21.09148123,102.68785999999999 19.51369123,104.57082 18.03162123,106.32969 16.643111230000002,107.96139 15.342971230000002,109.47095999999999 14.134261230000002,110.86793999999999 13.020761230000002,112.16535999999999 11.99926023,113.37713 11.06355923,114.51614 10.20675323,115.59365 9.42244023,116.61887999999999 8.70505923,117.59934999999999 8.04982623,118.54122 7.45263523,119.44968 6.91000123,120.32912999999999 6.4190042300000005,121.183335 5.97721823,122.015525 5.58266123,122.828525 5.23373723,123.62482399999999 4.92920403,124.40664799999999 4.66814033,125.176007 4.44992643,125.93474499999999 4.27423073,126.68457599999999 4.14100439,127.427117 4.050483861,128.163919 4.00320054,128.896494 4.0,129.62634309999999 4.042071351,130.35498592 4.1305859,131.0838737 4.26490573,131.813855 4.44401793,132.545507 4.6672565299999995,133.27934 4.93427243,134.015808 5.24501323,134.75530999999998 5.59971223,135.498189 5.998883230000001,136.244729 6.44332623,136.995147 6.9341332300000005,137.749582 7.4727032300000005,138.508077 8.06076723,139.27055 8.70040623,140.036758 9.39408923,140.80624 10.14469923,141.57825 10.955569230000002,142.35165 11.830496230000001,143.12472 12.773738230000001,143.89500999999998 13.789944230000001,144.65892 14.884011229999999,145.41137 16.06075123,146.14504 17.32415123,146.84956 18.67943123,147.51596 20.13647123,148.14256999999998 21.70672123,148.72987 23.40270123,149.28067 25.237821229999998,149.80150999999998 27.22575123,150.30461 29.379431229999998,150.81071 31.71042123,151.34642 34.22976123,151.91744 36.94432123,152.51912 39.854431229999996,153.14319999999998 42.953731229999995,153.77774 46.22921123,154.40713 49.66466122999999,155.01321 53.25194123,155.57725 57.00236123,156.08168 60.950191229999994,156.52082 65.13956123,156.89735 69.61913123000001,157.21436 74.43693123000001,157.47629 79.62526122999999,157.69104 85.17192123000001,157.86795999999998 91.01615123,158.0027 97.07749122999999,158.08872 103.28114123,158.12265 109.58102123,158.1036 115.95832123,158.03073999999998 122.40052123000001,157.90312 128.89722123,157.72018 135.44152122999998,157.48156 142.02992123,157.18697 148.66332123,156.83598 155.34712123000003,156.42786 162.09152122999998,155.96301 168.90912123,155.44654 175.81042123,154.88481 182.80332123,154.28484 189.89272123,153.65453 197.07942123,153.00290999999999 204.35952122999998,152.34022 211.72342123,151.67633999999998 219.15762123000002,151.01462999999998 226.64702123,150.35657 234.13732123,149.707 241.60172123,149.06813 249.05262123,148.43877999999998 256.50142123,147.81790999999998 263.95802123,147.20463999999998 271.43152123,146.59821 278.92962123,145.99801 286.43242123,145.40562 293.90102122999997,144.82399999999998 301.33112122999995,144.25332 308.72052123,143.69367 316.06822122999995,143.14641999999998 323.37392123,142.61397 330.63812122999997,142.09859 337.86202123,141.60243 345.04722123,141.12752999999998 352.19602122999993,140.67583 359.31112122999997,140.24920699999998 366.39572123,139.849469 373.45332123,139.478391 380.48812123,139.13772799999998 387.50452122999997,138.82924 394.50742123,138.55471599999998 401.50212122999994,138.315995 408.49432122999997,138.114848 415.49002122999997,137.95107 422.49452123,137.823018 429.51262123,137.729121 436.54822122999997,137.667889 443.60512122999995,137.637888 450.68602123,137.637722 457.79332122999995,137.66601 464.92862123,137.721364 472.09292123,137.80238 479.28642123,137.907612 486.50842122999995,138.035565 493.75762123,138.184678 501.03182123,138.35331499999998 508.32772123,138.53974599999998 515.6417212299999,138.74202599999998 522.9702212300001,138.958035 530.31012123,139.185603 537.65852123,139.422531 545.01272123,139.66660199999998 552.37072123,139.91558799999999 559.7306212300001,140.167263 567.09102123,140.419404 574.4508212300001,140.66979999999998 581.8093212300001,140.91626 589.16632123,141.15661 596.52182123,141.38868 603.87632123,141.61032 611.2306212300001,141.81968 618.58552123,142.01626 625.9417212300001,142.19994 633.2994212300001,142.37062 640.65872123,142.52814999999998 648.01942123,142.67240999999999 655.38122123,142.80326 662.74332123,142.92057 670.10472123,143.0242 677.4644212300001,143.11400999999998 684.82072123,143.18989 692.17222123,143.25171 699.51682123,143.29937999999999 706.85232123,143.3328 714.1765212299999,143.35157999999998 721.48742123,143.35488999999998 728.78342123,143.34188999999998 736.06352123,143.31174 743.32732123,143.26363999999998 750.5746212299999,143.19679 757.80612123,143.11039 765.02252123,143.00365 772.2252212300001,142.87577 779.41612123,142.72592 786.59722123,142.55326 793.77132123,142.35691 800.9413212300001,142.13593 808.1107212300001,141.88943999999998 815.28342123,141.61819 822.46282123,141.32453999999998 829.65162123,141.01086999999998 836.85212123,140.67961 844.0659212300001,140.33323199999998 851.2938212299999,139.974242 858.53612123,139.605214 865.7923212300001,139.228789 873.0613212300001,138.847681 880.34132123,138.464669 887.62952123,138.082599 894.9227212300001,137.70437099999998 902.21672123,137.332924 909.5066212300001,136.97058199999998 916.7823212300001,136.61381 924.0223212300001,136.256363 931.19382123,135.892786 938.25532123,135.51866099999998 945.16122123,135.130808 951.86662123,134.72740199999998 958.3322212300001,134.308157 964.52992123,133.87641 970.44622123,133.436925 976.0798212300001,132.993599 981.4377212300001,132.54945899999998 986.5324212300001,132.106776 991.37902123,131.66719899999998 995.99432123,131.2318875 1000.3947212300001,130.8016299 1004.04932123,130.433" stroke="black" stroke-width="2.0" /></svg>