<?xml version="1.0" encoding="utf-8" ?>
<svg baseProfile="full" height="202.68300000000002" version="1.1" width="1013.176331" xmlns="http://www.w3.org/2000/svg" xmlns:ev="http://www.w3.org/2001/xml-events" xmlns:xlink="http://www.w3.org/1999/xlink"><defs /><polygon fill="none" points="1005.176331,180.24310000000003 1002.059131,178.70135400000004 998.335031,176.89523200000002 994.463431,175.05843000000002 990.4339309999999,173.19049600000002 986.235431,171.29123100000004 981.856331,169.36080000000004 977.284431,167.39984000000004 972.507431,165.40966000000003 967.513331,163.39242000000002 962.290931,161.35134000000002 956.8305310000001,159.29107000000002 951.125231,157.21744000000004 945.174131,155.13259000000002 938.981431,153.03529000000003 932.556731,150.92351000000002 925.914231,148.79418000000004 919.073631,146.64304000000004 912.058931,144.46443000000002 904.897531,142.25111000000004 897.617631,139.99735000000004 890.2440310000001,137.70882000000003 882.801231,135.39453000000003 875.352831,133.07582000000002 867.930431,130.76414000000003 860.515131,128.45518000000004 853.0905309999999,126.14551000000003 845.643631,123.83266000000003 838.186231,121.52200000000002 830.762831,119.22886000000003 823.377531,116.95600000000002 816.029431,114.70454000000004 808.714331,112.47465000000004 801.425731,110.26563000000003 794.155331,108.07550000000003 786.895531,105.90154000000003 779.639531,103.74134000000002 772.381831,101.59282000000002 765.117431,99.45419000000003 757.842531,97.32397000000003 750.5538310000001,95.20091000000002 743.249231,93.08404000000003 735.927231,90.97266000000002 728.587231,88.86632000000002 721.229831,86.76480000000002 713.856131,84.66820000000003 706.468531,82.57684000000002 699.070331,80.49136000000001 691.665131,78.41310000000003 684.256331,76.34350000000003 676.846931,74.28390000000002 669.439331,72.23560000000002 662.0360310000001,70.19980000000002 654.638531,68.17740000000002 647.248331,66.16930000000002 639.866531,64.17630000000003 632.4936309999999,62.19900000000003 625.129731,60.237900000000025 617.774931,58.29350000000002 610.428531,56.36600000000003 603.089731,54.45560000000003 595.7572309999999,52.56270000000002 588.430031,50.68760000000003 581.1072310000001,48.83060000000003 573.788231,46.99240000000003 566.4728309999999,45.17350000000002 559.160931,43.374600000000015 551.852931,41.59650000000002 544.549531,39.84000000000003 537.251431,38.10590000000005 529.959931,36.39510000000001 522.676431,34.70850000000004 515.402631,33.04720000000003 508.14043100000004,31.412100000000038 500.892031,29.804200000000037 493.659631,28.225400000000008 486.445431,26.678600000000046 479.251631,25.166300000000035 472.08003099999996,23.69130000000004 464.932631,22.25600000000003 457.811031,20.86280000000002 450.717031,19.51400000000001 443.65213100000005,18.211600000000033 436.617631,16.957600000000014 429.614931,15.754000000000019 422.64523099999997,14.602300000000014 415.709631,13.504400000000032 408.80913100000004,12.46150000000003 401.94453100000004,11.475100000000026 395.11683100000005,10.546400000000034 388.326731,9.676300000000026 381.574231,8.865600000000029 374.858531,8.115100000000012 368.178331,7.425300000000021 361.531831,6.7967000000000155 354.916531,6.229900000000015 348.329531,5.725300000000033 341.76753099999996,5.283700000000039 335.22673100000003,4.905600000000021 328.702831,4.591800000000006 322.191331,4.343200000000024 315.686931,4.160800000000023 309.184031,4.045900000000017 302.676731,4.0 296.15883099999996,4.025400000000019 289.626731,4.12590000000003 283.08003099999996,4.30570000000003 276.521431,4.569000000000017 269.95673100000005,4.919800000000038 263.395431,5.361600000000038 256.850031,5.89730000000003 250.335831,6.528700000000043 243.87113100000002,7.256500000000045 237.47553100000002,8.080000000000013 231.170031,8.996700000000033 224.97543100000001,10.003000000000014 218.911531,11.093400000000031 212.996031,12.261700000000019 207.244231,13.500400000000042 201.66793099999998,14.80170000000004 196.27683100000002,16.16020000000003 191.07313100000002,17.57480000000004 186.049731,19.046400000000034 181.193431,20.577600000000047 176.488031,22.172500000000014 171.914931,23.83710000000005 167.45473099999998,25.57910000000004 163.087331,27.408500000000032 158.791031,29.33800000000005 154.542731,31.38450000000003 150.31523099999998,33.56790000000001 146.073731,35.90280000000001 141.783331,38.4025 137.41023099999998,41.081800000000044 132.921331,43.95580000000004 128.285831,47.037900000000036 123.477631,50.33600000000004 118.482531,53.84520000000002 113.30873100000001,57.53810000000003 108.000431,61.352800000000016 102.646371,65.18920000000003 97.373521,68.94860000000003 92.286731,72.59530000000002 87.425241,76.13730000000002 82.78170100000001,79.60840000000003 78.32257100000001,83.05699000000003 73.998461,86.53429000000003 69.767331,90.06994000000003 65.614731,93.67160000000003 61.550841,97.32566000000003 57.605610999999996,100.99787000000002 53.820701,104.63828000000002 50.241651,108.19132000000003 46.900560999999996,111.61725000000003 43.801621,114.90228000000003 40.932590999999995,118.04899000000003 38.274501,121.06818000000003 35.80689100000001,123.97404000000003 33.510281000000006,126.78163000000004 31.367221000000004,129.50576000000004 29.362461,132.16063000000003 27.473061,134.76301 25.669041000000004,137.32106000000002 23.938581000000003,139.81795000000002 22.282721,142.22301000000004 20.706781,144.50670000000002 19.214180999999996,146.65076000000002 17.804150999999997,148.65040000000002 16.474111,150.51033000000004 15.232451,152.23720000000003 14.083746999999999,153.84278000000003 13.024989999999999,155.34163000000004 12.050355999999999,156.74767000000003 11.15342,158.07307000000003 10.328053,159.32814000000002 9.568743000000001,160.52152000000004 8.870671999999999,161.66045000000003 8.229685,162.75101000000004 7.642231,163.79832000000002 7.105289,164.80674000000002 6.616302,165.78002000000004 6.1731184,166.72139000000004 5.7739405999999995,167.63364 5.4172864,168.51923000000002 5.1019546,169.38032000000004 4.8269988999999995,170.21882000000002 4.5917081,171.03645100000003 4.3955912,171.83474100000004 4.2383677,172.61507900000004 4.119962,173.37872500000003 4.040505,174.12683300000003 4.000333,174.86046700000003 4.0,175.58061400000003 4.040293,176.28819800000002 4.122247,176.98409100000003 4.247177,177.66912500000004 4.4167107,178.34410100000002 4.6328391,179.00980100000004 4.8979781,179.66700080000004 5.21505095,180.31648012000002 5.5865791,180.95903440000004 6.0127553,181.59541400000003 6.493657,182.22625400000004 7.029724,182.85206900000003 7.621749,183.473248 8.270869999999999,184.09004700000003 8.978567,184.70256900000004 9.746659000000001,185.31072900000004 10.577283,185.91420500000004 11.472871,186.51237200000003 12.436072999999999,187.10419200000004 13.46963,187.68807000000004 14.576124,188.261635 15.757541,188.82143500000004 17.014481,189.36250600000002 18.345101,189.87790700000002 19.750331,190.36182000000002 21.237721,190.81182000000004 22.816211000000003,191.22631 24.495951,191.60483000000002 26.288661,191.94876000000002 28.208201,192.26230000000004 30.271721,192.55382000000003 32.500411,192.83403000000004 34.916051,193.10373000000004 37.541861000000004,193.36032000000003 40.402770999999994,193.60084000000003 43.524401,193.82210000000003 46.931400999999994,194.02100000000002 50.645641,194.19517000000002 54.685221,194.34394000000003 59.067671,194.46864000000002 63.816761,194.56731000000002 68.95123099999999,194.63670000000002 74.477491,194.67503000000002 80.38963100000001,194.68300000000002 86.67406100000001,194.66359000000003 93.303081,194.61867000000004 100.23053100000001,194.55139000000003 107.39823100000001,194.46715000000003 114.74603100000002,194.37015000000002 122.215731,194.26015000000004 129.75373100000002,194.13663000000003 137.316631,193.99917000000002 144.87523099999999,193.84732000000002 152.416231,193.68054000000004 159.94213100000002,193.49815000000004 167.465731,193.30186000000003 174.99943100000002,193.09522000000004 182.552731,192.88188000000002 190.13233100000002,192.66558000000003 197.74173100000002,192.45025000000004 205.381531,192.23999000000003 213.04893099999998,192.03817000000004 220.739731,191.84470000000002 228.44983100000002,191.65865000000002 236.17523100000003,191.47905000000003 243.912431,191.30487000000002 251.658231,191.13508000000002 259.409631,190.96860000000004 267.164331,190.80437000000003 274.92013099999997,190.64127000000002 282.675331,190.47821000000002 290.428831,190.31406000000004 298.179531,190.14771100000002 305.927031,189.97802500000003 313.671331,189.80431500000003 321.412531,189.62724500000002 329.150631,189.44774100000004 336.88573099999996,189.26672500000004 344.617931,189.08511900000002 352.347131,188.90384400000002 360.073231,188.72381900000002 367.796331,188.54596100000003 375.516331,188.37118600000002 383.232931,188.20040700000004 390.946231,188.03453700000003 398.655831,187.87448600000002 406.36163100000005,187.72115900000003 414.063331,187.57529000000002 421.760731,187.43716700000002 429.453831,187.30700200000004 437.14243100000004,187.18500500000002 444.826831,187.07138600000002 452.50703100000004,186.96635000000003 460.183431,186.87010400000003 467.856431,186.78285100000002 475.526431,186.704797 483.194031,186.63615000000001 490.859931,186.57711600000002 498.524831,186.52790700000003 506.189631,186.48873600000002 513.855331,186.45966700000002 521.522931,186.44034400000004 529.193231,186.43034000000003 536.867231,186.42923600000003 544.5456310000001,186.43661300000002 552.229331,186.45205300000003 559.919131,186.47514300000003 567.615731,186.50546900000003 575.319831,186.54261700000004 583.032031,186.58617300000003 590.753031,186.63572300000004 598.483331,186.69085000000004 606.223531,186.75113700000003 613.974031,186.81630700000002 621.735031,186.88646700000004 629.506031,186.961788 637.2861310000001,187.04243400000001 645.0735310000001,187.12855900000002 652.866031,187.22030700000002 660.660831,187.31780700000002 668.4541310000001,187.421172 676.2421310000001,187.53049500000003 684.019931,187.64584800000003 691.782431,187.76727500000004 699.523831,187.89479700000004 707.238131,188.02839600000001 714.918931,188.16704900000002 722.561131,188.30793200000002 730.161531,188.44812600000003 737.718631,188.58483500000003 745.232631,188.71539 752.705331,188.83723500000002 760.139831,188.94791500000002 767.5405310000001,189.04505200000003 774.913131,189.12631700000003 782.264331,189.18940100000003 789.6023309999999,189.23197300000004 796.936331,189.251639 804.2769310000001,189.24589500000002 811.635931,189.21291000000002 819.024931,189.15575600000003 826.4515309999999,189.07938300000004 833.918931,188.98889000000003 841.425431,188.889595 848.964431,188.78706700000004 856.5235309999999,188.68709700000002 864.085031,188.59560700000003 871.625931,188.51848700000002 879.118831,188.461383 886.533331,188.42944300000002 893.837831,188.42706600000002 901.0012310000001,188.45769100000004 907.995131,188.52331600000002 914.795031,188.61140200000003 921.384431,188.69412200000002 927.755631,188.74742900000004 933.908131,188.75209000000004 939.846131,188.69311500000003 945.5769310000001,188.55906400000003 951.1099310000001,188.34137500000003 956.455731,188.03377900000004 961.625131,187.63561 966.629531,187.15441400000003 971.478931,186.59782900000002 976.183031,185.97264800000002 980.7503310000001,185.28492800000004 985.188931,184.54008100000001 989.506131,183.74295600000002 993.708731,182.89790500000004 997.8029310000001,182.008843 1001.794531,181.07930190000002 1005.176331,180.24310000000003" stroke="black" stroke-width="2.0" /></svg>