<?xml version="1.0" encoding="utf-8" ?>
<svg baseProfile="full" height="202.03658000000001" version="1.1" width="1013.206944" xmlns="http://www.w3.org/2000/svg" xmlns:ev="http://www.w3.org/2001/xml-events" xmlns:xlink="http://www.w3.org/1999/xlink"><defs /><polygon fill="none" points="1005.206944,175.3793 1001.611444,173.46820400000001 997.2819440000001,171.179649 992.741744,168.794498 987.975744,166.306895 982.969144,163.71158 977.709244,161.00448 972.186544,158.18357 966.397044,155.24993 960.345444,152.20908 954.047944,149.07231000000002 947.534344,145.85788 940.843744,142.58983 934.018544,139.29358 927.099044,135.99304 920.1198440000001,132.70845 913.1057440000001,129.45489 906.0704440000001,126.24170000000001 899.015844,123.07229000000001 891.936544,119.94487000000001 884.8272440000001,116.85663 877.683444,113.80528000000001 870.5016439999999,110.78903 863.279044,107.80657000000001 856.013944,104.85704 848.705444,101.94002 841.353944,99.05554 833.960944,96.20405 826.5290440000001,93.38638999999999 819.062244,90.60383 811.565844,87.85801 804.046244,85.15089 796.511444,82.4849 788.968844,79.86322 781.4246440000001,77.28865 773.883544,74.7634 766.3484440000001,72.2889 758.821144,69.8662 751.301644,67.4958 743.788844,65.1776 736.2800440000001,62.9114 728.771344,60.6965 721.2574440000001,58.53189999999999 713.731844,56.41640000000001 706.186544,54.348699999999994 698.6119440000001,52.3271 690.998044,50.348600000000005 683.336044,48.4093 675.618744,46.505799999999994 667.840544,44.6353 659.997844,42.7954 652.0890440000001,40.98430000000002 644.1147440000001,39.200500000000005 636.0784440000001,37.44309999999999 627.985944,35.711600000000004 619.8466440000001,34.005799999999994 611.6727440000001,32.3262 603.479644,30.67350000000002 595.285744,29.049300000000017 587.1089440000001,27.458699999999993 578.9640440000001,25.9075 570.862344,24.400299999999987 562.811944,22.9409 554.817644,21.532299999999992 546.881344,20.17670000000001 539.0023440000001,18.875799999999998 531.177744,17.630899999999997 523.402344,16.442500000000024 515.669344,15.311499999999995 507.97004400000003,14.238099999999974 500.29404400000004,13.222799999999978 492.629944,12.265000000000015 484.967444,11.363 477.298244,10.514900000000011 469.615944,9.719600000000014 461.915844,8.976300000000009 454.195444,8.284300000000002 446.45374400000003,7.643500000000017 438.692044,7.053600000000017 430.913544,6.514499999999998 423.12354400000004,6.026399999999995 415.329444,5.589100000000002 407.540744,5.202500000000015 399.76884400000006,4.866299999999995 392.026344,4.581400000000002 384.325144,4.350099999999998 376.674544,4.174900000000008 369.08164400000004,4.057600000000008 361.551144,4.0 354.086044,4.0031999999999925 346.687444,4.0685 339.35454400000003,4.197000000000003 332.085544,4.389700000000005 324.87734400000005,4.647500000000008 317.725544,4.971599999999995 310.624944,5.363100000000003 303.569544,5.823599999999999 296.552444,6.354600000000005 289.56774400000006,6.957099999999997 282.611244,7.632199999999983 275.68064400000003,8.380499999999984 268.77574400000003,9.203000000000003 261.89774400000005,10.100100000000026 255.049544,11.072100000000006 248.23574399999998,12.119100000000003 241.462044,13.240499999999997 234.73584400000001,14.435399999999987 228.065344,15.70229999999998 221.459844,17.038900000000012 214.92914399999998,18.442700000000002 208.483344,19.910300000000007 202.132744,21.437899999999985 195.887544,23.021899999999988 189.75694399999998,24.662200000000013 183.746044,26.359800000000007 177.856344,28.11609999999999 172.086344,29.9332 166.43224399999997,31.8134 160.888444,33.75969999999998 155.44804399999998,35.7757 150.103144,37.8656 144.84524399999998,40.031800000000004 139.665644,42.27430000000001 134.556944,44.592900000000014 129.512644,46.988200000000006 124.526644,49.46089999999998 119.59364399999998,52.0119 114.708744,54.6426 109.86764399999998,57.3545 105.066114,60.14959999999999 100.300274,63.029700000000005 95.566044,65.9892 90.869134,69.009 86.23065399999999,72.0584 81.684664,75.09740000000001 77.27266399999999,78.08012000000001 73.03895399999999,80.97201 69.019394,83.76688999999999 65.228414,86.46953 61.664864,89.08945999999999 58.318644,91.63818 55.175334,94.12742 52.219044000000004,96.5681 49.435214,98.96536 46.811374,101.31932 44.336234,103.63052 41.999544,105.89996 39.792084,108.12886 37.705574,110.31863 35.732563999999996,112.47072 33.866344,114.5866 32.100904,116.66772 30.430794,118.71552 28.851104,120.73134999999999 27.354594000000002,122.71771 25.929033999999998,124.67837 24.564353999999998,126.61444 23.252983999999998,128.52463 21.989154,130.40604 20.768444000000002,132.25488 19.587374,134.06713 18.443094000000002,135.83906000000002 17.333213999999998,137.56759 16.256244000000002,139.25026 15.217293999999999,140.88366 14.223113,142.46559 13.277592,143.99612000000002 12.382576,145.47669 11.538578000000001,146.90956 10.745274,148.29738 10.001838,149.64294 9.307169,150.949 8.660035,152.21825 8.059179,153.45323 7.503371,154.65631 6.991454,155.82969 6.522364,156.97543000000002 6.095143800000001,158.09541000000002 5.7089514999999995,159.19137 5.3630636,160.26493 5.0568770999999995,161.31757 4.7899094,162.35069000000001 4.5617988,163.36556 4.3723046,164.3634 4.2213085,165.34533 4.108816,166.312398 4.034959,167.265618 4.0,168.205936 4.004341999999999,169.134261 4.048528,170.051465 4.133259,170.958394 4.2594053,171.85587 4.4280186,172.744703 4.6403566,173.625697 4.8979058,174.499654 5.202413147,175.3673887 5.5553951999999995,176.2295369 5.956459300000001,177.085895 6.404865,177.93594 6.900066,178.779027 7.441696,179.614369 8.029544,180.441026 8.663548,181.257877 9.343779999999999,182.063603 10.070429,182.856648 10.84379,183.63518200000001 11.664251,184.39706 12.532267000000001,185.139758 13.448341,185.86031 14.41299,186.55523 15.426703999999999,187.2204 16.489874,187.85096 17.602744,188.44118 18.765414,188.98477 19.979404,189.47993 21.247324,189.92827 22.571934,190.33195 23.956104,190.69377 25.402744,191.01738 26.914694,191.30756 28.494543999999998,191.57054 30.144404,191.81444 31.865824,192.04869 33.662144,192.27619 35.537984,192.4959 37.498164,192.70669 39.547654,192.90729 41.691613999999994,193.09638 43.935414,193.27251 46.284674,193.43422 48.745504,193.57999 51.324734,193.70831 54.030504,193.8177 56.873134,193.90674 59.865933999999996,193.97397 63.024354,194.01778 66.365284,194.03658000000001 69.906634,194.02888000000002 73.666514,193.99349 77.661574,193.92983 81.904144,193.83838 86.399044,193.71783 91.144364,193.56153 96.13384400000001,193.36138 101.36003399999998,193.1081 106.81994399999999,192.7909 112.521244,192.40097 118.477644,191.93748 124.70074399999999,191.40233 131.198544,190.79992 137.97274399999998,190.13794000000001 145.015744,189.42825 152.308044,188.68754 159.815444,187.93662 167.489944,187.18461 175.280544,186.42776 183.14244399999998,185.66032 191.040844,184.875004 198.95484399999998,184.063032 206.878244,183.214109 214.819244,182.320449 222.792044,181.382949 230.809644,180.40381 238.883244,179.385353 247.023044,178.330116 255.23724399999998,177.240957 263.532144,176.1211554 271.91194400000006,174.9745228 280.37824400000005,173.805502 288.929744,172.619266 297.56164400000006,171.421785 306.265144,170.219873 315.027644,169.019322 323.83454400000005,167.821302 332.67234400000007,166.625927 341.52924400000006,165.433024 350.39504400000004,164.24213 359.26164400000005,163.05248 368.122944,161.86305 376.974944,160.67253 385.815644,159.47933 394.64524400000005,158.28163 403.465944,157.07731 412.28174400000006,155.86433 421.09774400000003,154.6425 429.91814400000004,153.41256 438.745944,152.1754 447.583144,150.93205 456.430344,149.68376 465.287144,148.4319 474.15164400000003,147.17807 483.021044,145.92401999999998 491.891044,144.67171 500.75624400000004,143.42324 509.61014400000005,142.18092000000001 518.445344,140.94795 527.254644,139.72814 536.030744,138.52523 544.7665440000001,137.34283 553.455444,136.18437 562.0908440000001,135.05312 570.6664440000001,133.95211 579.1764440000001,132.88418000000001 587.615644,131.85188 595.978844,130.85756 604.261744,129.90329 612.460244,128.99129 620.571044,128.12521 628.592844,127.3086 636.525544,126.54452 644.3705440000001,125.83566 652.130244,125.18436 659.8080440000001,124.59269 667.407944,124.06253000000001 674.9348440000001,123.59561 682.394044,123.19358 689.791044,122.85804999999999 697.132244,122.59065000000001 704.423944,122.39307 711.672944,122.26652 718.8852440000001,122.21030999999999 726.066244,122.22354 733.221144,122.30555 740.354544,122.45588000000001 747.470944,122.67429000000001 754.574444,122.96071 761.6690440000001,123.31528 768.758544,123.73826 775.846444,124.23011 782.936144,124.79142999999999 790.0310440000001,125.423 797.1343439999999,126.12573 804.249044,126.90068 811.3782440000001,127.7488 818.524944,128.66996 825.691144,129.66374 832.877744,130.72962 840.0849440000001,131.86691000000002 847.311344,133.07470999999998 854.5544440000001,134.35182 861.810744,135.69672 869.075144,137.10745 876.3412440000001,138.58161 883.6015440000001,140.11629 890.8470440000001,141.70802 898.0678439999999,143.35284000000001 905.252844,145.0462 912.390144,146.78376 919.4638440000001,148.56223 926.4539440000001,150.37707 933.337444,152.22217 940.089444,154.09005 946.685444,155.97234 953.102644,157.8602 959.3217440000001,159.74478 965.328844,161.61739 971.116744,163.47064 976.684044,165.2989 982.033544,167.098089 987.171244,168.865458 992.105044,170.599302 996.844344,172.29875 1001.398944,173.963563 1005.206944,175.3793" stroke="black" stroke-width="2.0" /></svg>