<?xml version="1.0" encoding="utf-8" ?>
<svg baseProfile="full" height="264.34726" version="1.1" width="1012.2602554" xmlns="http://www.w3.org/2000/svg" xmlns:ev="http://www.w3.org/2001/xml-events" xmlns:xlink="http://www.w3.org/1999/xlink"><defs /><polygon fill="none" points="1004.2602554,227.4274 1000.3044554,224.79769000000002 995.6589554,221.783713 990.9176554000001,218.78879 986.0719554,215.81093 981.1118554000001,212.84801000000002 976.0261554,209.89772 970.8018554,206.95756 965.4236554,204.0247 959.8737554,201.09597 954.1309554,198.16771 948.1701554,195.23457000000002 941.9657553999999,192.2846 935.4918554000001,189.30277 928.7221553999999,186.27295 921.6317554,183.17799 914.2006554,180.00022 906.4195554,176.72264 898.2977554,173.33179 889.8624554,169.83047 881.1505554,166.23594 872.2084553999999,162.56946 863.0885554,158.85426 853.8442554000001,155.11354 844.5252554,151.36842000000001 835.1732554,147.63637 825.8194554,143.93016 816.4831554,140.25752 807.1711554,136.62123 797.8789554,133.01943 788.5929554,129.44652 779.2990554,125.89630000000001 769.9850554,122.36330000000001 760.6409554,118.8433 751.2584554,115.33250000000001 741.8312554,111.828 732.3553554,108.32790000000001 722.8284553999999,104.83080000000001 713.2508554,101.3364 703.6253554,97.8452 693.9570554000001,94.35850000000002 684.2534554,90.87960000000001 674.5239554,87.41290000000001 664.7803554000001,83.96340000000001 655.0365554,80.537 645.3083554,77.14009999999999 635.6132554000001,73.7793 625.9701554000001,70.46179999999998 616.3984554,67.19430000000003 606.9181553999999,63.98400000000001 597.5486554,60.83710000000002 588.3073554,57.761300000000006 579.2059554,54.765900000000016 570.2495554000001,51.85770000000002 561.4380553999999,49.0411 552.7670554,46.31850000000003 544.2288554,43.690799999999996 535.8134554,41.15780000000001 527.5090554,38.71860000000001 519.3022554,36.371700000000004 511.1788554,34.11530000000002 503.12335540000004,31.947599999999994 495.11975540000003,29.866800000000012 487.1522554,27.869499999999988 479.2089554,25.951899999999995 471.2814554,24.1113 463.3646554,22.346000000000004 455.4568554,20.655399999999986 447.5591554,19.039200000000022 439.67565540000004,17.497900000000016 431.81335540000003,16.0325 423.98155540000005,14.643700000000024 416.19215540000005,13.332900000000024 408.4586554,12.100799999999992 400.7961554,10.948199999999986 393.22035539999996,9.87560000000002 385.7462554,8.88639999999998 378.3848554,7.9846 371.1429554,7.172900000000027 364.0235554,6.453000000000031 357.0267554,5.8256999999999834 350.15035539999997,5.2911 343.3903554,4.849199999999996 336.7415554,4.499599999999987 330.1975554,4.241799999999984 323.7514554,4.075400000000002 317.3958554,4.0 311.1228554,4.015600000000006 304.92435539999997,4.122299999999996 298.79205540000004,4.3204000000000065 292.71785539999996,4.610400000000027 286.6946554,4.9909000000000106 280.71735540000003,5.460500000000025 274.7817554,6.017700000000019 268.8846554,6.661500000000018 263.0239554,7.391100000000023 257.19835539999997,8.2055 251.4073554,9.10420000000002 245.6511554,10.086299999999994 239.9306554,11.15100000000001 234.2474554,12.297300000000007 228.6037554,13.524299999999982 223.0023554,14.830700000000007 217.4463554,16.2149 211.93955540000002,17.67530000000002 206.48605540000003,19.2098 201.0900554,20.81620000000001 195.75635540000002,22.491800000000012 190.4896554,24.234800000000007 185.2943554,26.043800000000005 180.1743554,27.91760000000002 175.1328554,29.854600000000005 170.17235540000001,31.853400000000022 165.29505540000002,33.912600000000026 160.5025554,36.030699999999996 155.7960554,38.206199999999995 151.1761554,40.43770000000001 146.6434554,42.72380000000001 142.19895540000002,45.06299999999999 137.8436554,47.45360000000002 133.5780554,49.89440000000002 129.40195540000002,52.3844 125.3149554,54.92320000000001 121.3159554,57.510400000000004 117.4036554,60.14620000000002 113.5767554,62.830899999999986 109.8334554,65.5652 106.17225540000001,68.3502 102.59125540000001,71.18720000000002 99.08861540000001,74.0779 95.6612554,77.02270000000001 92.30449540000001,80.01839999999999 89.0148654,83.0609 85.7901954,86.1447 82.6294654,89.2635 79.5326454,92.41 76.5004754,95.57560000000001 73.53448540000001,98.7515 70.6375154,101.9303 67.81295539999999,105.1054 65.06400539999999,108.27010000000001 62.3934754,111.41760000000001 59.8037154,114.5412 57.296485399999995,117.63470000000001 54.8729254,120.6922 52.5335454,123.7084 50.278265399999995,126.6789 48.10779539999999,129.60000000000002 46.0230854,132.46937000000003 44.0240054,135.28577 42.109525399999995,138.04883 40.277955399999996,140.75885 38.5271454,143.41667 36.8546454,146.02348 35.2577954,148.58075 33.7338454,151.09013 32.2800254,153.55335000000002 30.8935654,155.97224 29.5717754,158.34861999999998 28.312035399999996,160.6843 27.1117954,162.98106 25.9666954,165.24016 24.8697254,167.46176 23.8146254,169.64536 22.7959854,171.79007000000001 21.8091254,173.89475 20.849995399999997,175.95815 19.915085400000002,177.97904 19.0013254,179.95623 18.106085399999998,181.88871 17.2270754,183.77568000000002 16.3623254,185.61652 15.5101454,187.41091 14.6710254,189.15912 13.849794399999999,190.86271 13.0509304,192.52373 12.2779764,194.14451 11.5336924,195.72744 10.8202014,197.27498 10.1391214,198.78955000000002 9.4916674,200.27349 8.8787384,201.72909 8.300988400000001,203.15848 7.7588864,204.56372 7.2527564,205.94675 6.7828214,207.30939 6.3492284,208.65336000000002 5.9520754,209.98029 5.5914294,211.29171 5.2673404,212.58906000000002 4.9798568,213.87371000000002 4.7290352,215.14697 4.5149472,216.41006000000002 4.33768841,217.664174 4.19738383,218.910435 4.0941935,220.14993 4.0283175,221.38370700000002 4.0,222.612782 4.0095343,223.838142 4.0572664,225.060755 4.1436,226.281572 4.269000508,227.50153104 4.4337261,228.720821 4.6372098,229.937197 4.8788098,231.148001 5.1579989,232.350669 5.474361399999999,233.542711 5.827591399999999,234.721687 6.2174904,235.885195 6.6439714,237.03084900000002 7.1070554,238.15626 7.6068774,239.25902 8.143692399999999,240.33668 8.7178754,241.38673 9.329934399999999,242.40657000000002 9.980518400000001,243.39350000000002 10.6704294,244.34469 11.4006374,245.25712000000001 12.1722994,246.12759 12.9867824,246.95265 13.8456914,247.72854 14.7509054,248.45116000000002 15.704615400000002,249.11597 16.7094054,249.71792 17.7682254,250.25142 18.8828454,250.71501 20.052685399999998,251.11396000000002 21.276895399999997,251.45433 22.5543654,251.74262000000002 23.8836254,251.98594 25.2626854,252.19226 26.6888154,252.37065 28.1582854,252.53152 29.6660854,252.68696 31.2063554,252.84951 32.7777054,253.0229 34.3810754,253.20646 36.0174954,253.39933000000002 37.688075399999995,253.60045 39.394045399999996,253.80855 41.1367954,254.02214 42.917925399999994,254.23946 44.7392854,254.45850000000002 46.6031054,254.67695 48.512065400000004,254.8922 50.4694454,255.10127 52.479265399999996,255.30079 54.546555399999995,255.48696 56.6774054,255.65578 58.8773854,255.80581 61.1518554,255.93701000000001 63.5066854,256.0494 65.9482754,256.14308 68.4835854,256.21828 71.12006540000002,256.27543000000003 73.86556540000001,256.31519000000003 76.7281454,256.33861 79.7156454,256.34726 82.8354554,256.34316 86.09596540000001,256.32766000000004 89.50641540000001,256.30224 93.07652540000001,256.26905 96.8165354,256.23111 100.73731540000001,256.19253000000003 104.85065540000001,256.15877 109.1694554,256.13572 113.7066554,256.12477 118.4747554,256.12555 123.4854554,256.13716 128.74955540000002,256.15808000000004 134.2762554,256.18596 140.0731554,256.21745 146.1469554,256.24799 152.5036554,256.27164 159.1514554,256.28112 166.1005554,256.27198 173.3602554,256.24267 180.93675539999998,256.19178 188.8321554,256.11814000000004 197.0438554,256.02084 205.5642554,255.89936 214.3808554,255.75374 223.47545540000002,255.58482 232.82395540000002,255.39414 242.39705540000003,255.18401 252.1623554,254.95735000000002 262.0858554,254.71768 272.1349554,254.46891 282.2804554,254.21523000000002 292.4985554,253.96092000000002 302.7723554,253.71024 313.0928554,253.46689 323.4565554,253.23066 333.86085540000005,252.99951000000001 344.3036554,252.77133 354.78275540000004,252.54396 365.2965554,252.31517 375.8437554,252.08268 386.42315540000004,251.84417000000002 397.03415540000003,251.59727 407.6763554,251.33957 418.3498554,251.06987 429.0545554,250.78941 439.7902554,250.49973 450.5563554,250.20239 461.3517554,249.89901 472.1753554,249.59125 483.0252554,249.28078 493.8995554,248.96933 504.7958554,248.65866 515.7113554,248.35024 526.6429554,248.04423 537.5878554,247.74046 548.5432554,247.43875 559.5062554,247.13892 570.4744554,246.84078 581.4452554,246.54413 592.4162554000001,246.24877 603.3852554,245.9545 614.3502554,245.66103 625.3087554,245.36774 636.2580554000001,245.07389 647.1946554,244.77873 658.1145554,244.48157 669.0129554,244.18173000000002 679.8848554,243.87857 690.7246554,243.57147 701.5261554,243.25985 712.2830554,242.94322 722.9890554,242.62136 733.6399554,242.29423 744.2329554,241.96174000000002 754.7672554000001,241.62376 765.2435554,241.28011 775.6641554,240.93058000000002 786.0324554,240.57489 796.3534554,240.21274 806.6330554,239.84377 816.8771554,239.46907000000002 827.0828554,239.09327000000002 837.2324554,238.72189 847.2949554,238.36072000000001 857.2285554,238.01564000000002 866.9838554,237.69216 876.5095554,237.395135 885.7566554,237.128346 894.6838554,236.894337 903.2598554,236.694352 911.4655554,236.524757 919.2977553999999,236.360231 926.7737554,236.173369 933.9225554000001,235.94343600000002 940.7779554,235.65466 947.3743554,235.294697 953.7450554000001,234.853422 959.9212554,234.323686 965.9315554,233.70801 971.7998554000001,233.011114 977.5460554,232.23661 983.1870554,231.387228 988.7377554,230.46497300000001 994.2110554000001,229.471237 999.6182554,228.4068828 1004.2602554,227.4274" stroke="black" stroke-width="2.0" /></svg>