<?xml version="1.0" encoding="utf-8" ?>
<svg baseProfile="full" height="351.0799" version="1.1" width="1013.073306" xmlns="http://www.w3.org/2000/svg" xmlns:ev="http://www.w3.org/2001/xml-events" xmlns:xlink="http://www.w3.org/1999/xlink"><defs /><polygon fill="none" points="1005.073306,269.5692 1000.317106,265.51682200000005 994.800406,260.954472 989.235306,256.49754 983.603706,252.13105000000002 977.886306,247.84115000000003 972.062506,243.61468000000002 966.109006,239.43876000000003 959.999006,235.30032000000003 953.701306,231.18556 947.181606,227.07519000000002 940.409506,222.93994000000004 933.356906,218.74920000000003 925.999606,214.47230000000002 918.322406,210.07949000000002 910.3266060000001,205.54436000000004 902.040706,200.84874000000002 893.518406,196.00132000000002 884.817806,191.04040000000003 875.999806,186.00933000000003 867.1224060000001,180.95068000000003 858.235006,175.90251 849.3754060000001,170.89572000000004 840.5676060000001,165.95300000000003 831.8223059999999,161.08860000000004 823.137906,156.30960000000002 814.502306,151.6166 805.893406,147.00480000000002 797.281206,142.46410000000003 788.636506,137.97800000000004 779.935706,133.53130000000004 771.160206,129.11220000000003 762.296506,124.71160000000003 753.336606,120.32370000000003 744.278706,115.9454 735.1280059999999,111.57710000000003 725.8977060000001,107.22270000000003 716.609506,102.88950000000003 707.294306,98.58850000000001 697.990406,94.33450000000002 688.735406,90.14840000000004 679.558506,86.04980000000003 670.479606,82.05330000000001 661.510406,78.16870000000003 652.655606,74.40190000000004 643.9136060000001,70.75570000000002 635.278106,67.23010000000002 626.739106,63.82360000000003 618.283306,60.533300000000025 609.895006,57.3554 601.556106,54.28550000000004 593.248606,51.317500000000024 584.957906,48.44410000000002 576.672706,45.65990000000002 568.384506,42.960800000000035 560.087906,40.34390000000002 551.7799060000001,37.80760000000001 543.4601060000001,35.3511 535.130706,32.97430000000003 526.796506,30.677700000000016 518.464806,28.46260000000001 510.14510599999994,26.330400000000026 501.849206,24.282700000000034 493.590006,22.322700000000026 485.379106,20.455100000000016 477.225806,18.683500000000038 469.137706,17.010400000000004 461.12010599999996,15.438000000000017 453.176806,13.96720000000002 445.310006,12.598900000000015 437.52050599999995,11.33299999999997 429.808106,10.169399999999996 422.17140600000005,9.107799999999997 414.60830599999997,8.147400000000061 407.11590600000005,7.287500000000023 399.690806,6.527500000000032 392.33040600000004,5.86710000000005 385.033006,5.3063999999999965 377.79760600000003,4.845400000000041 370.624006,4.484199999999987 363.512606,4.222900000000038 356.464406,4.0615999999999985 349.48050600000005,4.0 342.562706,4.038099999999986 335.713006,4.175299999999993 328.933606,4.411100000000033 322.226906,4.744700000000023 315.595406,5.175099999999986 309.041506,5.701100000000054 302.568006,6.321200000000033 296.178006,7.033600000000035 289.87460599999997,7.836600000000033 283.659406,8.728300000000047 277.53260600000004,9.707200000000057 271.493106,10.771999999999991 265.539106,11.921600000000069 259.667706,13.155300000000068 253.875506,14.473000000000042 248.158706,15.87450000000004 242.51290600000002,17.360600000000005 236.93340600000002,18.932300000000026 231.415006,20.591000000000008 225.952406,22.339 220.539906,24.17900000000003 215.17130600000002,26.11450000000002 209.840106,28.14990000000003 204.539306,30.290200000000027 199.260706,32.54050000000001 193.995006,34.901400000000024 188.735706,37.371800000000036 183.479706,39.94930000000002 178.227406,42.62930000000003 172.983006,45.40500000000003 167.754806,48.26680000000002 162.555106,51.201700000000045 157.399706,54.193700000000035 152.307706,57.22440000000003 147.302406,60.28 142.405806,63.353800000000035 137.633306,66.44170000000003 132.994106,69.54180000000002 128.492806,72.65440000000001 124.13000600000001,75.78140000000002 119.903706,78.92620000000002 115.80980600000001,82.09340000000003 111.84290600000001,85.28850000000003 107.996806,88.51840000000001 104.264546,91.79050000000001 100.637756,95.11070000000004 97.10596600000001,98.47850000000003 93.660946,101.89140000000003 90.296756,105.34590000000003 87.00931600000001,108.83680000000004 83.79616600000001,112.35760000000002 80.65619600000001,115.90050000000002 77.58939600000001,119.45700000000002 74.59653600000001,123.01970000000003 71.678966,126.58180000000004 68.83844599999999,130.13520000000003 66.076956,133.67130000000003 63.396396,137.18130000000002 60.798466000000005,140.65640000000002 58.284406,144.08800000000002 55.854976,147.46820000000002 53.510546000000005,150.79020000000003 51.253606000000005,154.0482 49.086626,157.23870000000002 47.010315999999996,160.36040000000003 45.02398600000001,163.413 43.125996,166.39770000000004 41.314036,169.3163 39.585376000000004,172.17119000000002 37.937066,174.96496000000002 36.366046,177.70049 34.869226,180.38074000000003 33.443625999999995,183.00865000000002 32.086336,185.58711000000002 30.794576,188.11893000000003 29.565646,190.60686 28.394096,193.05395000000001 27.271796,195.46295000000003 26.191676,197.83542000000003 25.147696,200.17192 24.134686,202.47231000000002 23.148235999999997,204.73591000000002 22.184556,206.96174000000002 21.240415999999996,209.14864000000003 20.313095999999998,211.29541000000003 19.400275999999998,213.40093000000002 18.500036,215.46423000000001 17.610765999999998,217.48455 16.732246,219.46115000000003 15.868996000000001,221.39280000000002 15.025784000000002,223.27905 14.206267,225.12033000000002 13.413178,226.91767000000002 12.648541,228.67251000000002 11.913818000000001,230.38658000000004 11.210044,232.06172000000004 10.537929,233.69985000000003 9.897945,235.30292000000003 9.290385,236.87284000000002 8.715418,238.41146000000003 8.173132,239.92059000000003 7.663557,241.40195000000003 7.186701,242.85720000000003 6.742559,244.28790000000004 6.3311340000000005,245.69555000000003 5.9524492,247.08158000000003 5.606558,248.44734000000003 5.2935518,249.79414000000003 5.013569110000001,251.12322000000003 4.7668018,252.43576000000002 4.5535023,253.73292000000004 4.3739896,255.01578000000003 4.2286568,256.28543 4.1179782,257.54291 4.042517,258.78923000000003 4.002934,260.025415 4.0,261.252447 4.034605,262.47132500000004 4.1077737,263.68305000000004 4.2206808,264.888634 4.3746721,266.089113 4.5712871,267.28555500000004 4.8122873,268.47907200000003 5.09969097,269.6708347 5.435052300000001,270.862145 5.8178254,272.05451800000003 6.247165,273.24943900000005 6.722341,274.44833200000005 7.242707,275.65256400000004 7.807669000000001,276.863447 8.416649,278.082235 9.069048,279.31012200000004 9.764199,280.54823000000005 10.501318000000001,281.79759 11.279443,283.05912 12.097364,284.33358000000004 12.95354,285.62156000000004 13.846006000000001,286.9234 14.772269,288.23914 15.729196,289.56842 16.712896,290.91044000000005 17.718616,292.26382 18.742756,293.62581 19.786696,294.99111000000005 20.853026,296.35404 21.944665999999998,297.70895 23.065005999999997,299.05033000000003 24.217866,300.37287000000003 25.407636,301.67151 26.639336,302.94145000000003 27.918756,304.17810000000003 29.252626,305.37707 30.648736,306.53418000000005 32.112836,307.64840000000004 33.646936,308.72266 35.253046,309.76002000000005 36.933375999999996,310.76343 38.690326,311.73584000000005 40.526356,312.68024 42.443956,313.59974 44.445426,314.49762000000004 46.532706000000005,315.37744000000004 48.706986,316.24312000000003 50.968326000000005,317.09902 53.314916,317.95003 55.742366000000004,318.8016 58.246446000000006,319.65693 60.827806,320.51422 63.487806000000006,321.37099 66.22805600000001,322.22468000000003 69.05080600000001,323.07271000000003 71.959316,323.91256000000004 74.958426,324.74193 78.05527599999999,325.55876 81.26028600000001,326.3614 84.58603600000001,327.15054000000003 88.04427600000001,327.93001000000004 91.646686,328.70436 95.404246,329.47874 99.325896,330.25907 103.416496,331.05197000000004 107.673906,331.86416 112.09010599999999,332.69429 116.65440600000001,333.53369000000004 121.353906,334.37221 126.174606,335.19873 131.103406,336.00162 136.129706,336.76916000000006 141.24720599999998,337.4898 146.456106,338.15225000000004 151.76430599999998,338.74523 157.190706,339.25717000000003 162.764506,339.68427 168.519806,340.03413 174.492906,340.31550000000004 180.72270600000002,340.53823 187.24930600000002,340.71445 194.111206,340.86 201.339106,340.99628 208.943406,341.1513 216.905106,341.34002000000004 225.18410599999999,341.55775000000006 233.725006,341.79634 242.462206,342.04532000000006 251.327206,342.29268 260.257206,342.52579000000003 269.201206,342.73226 278.124506,342.90046 287.010006,343.01967 295.857606,343.0799 304.683506,343.07132 313.519006,342.98581 322.401406,342.82423000000006 331.365106,342.58930000000004 340.442406,342.28296 349.662806,341.90665 359.053606,341.46154 368.63910599999997,340.94878000000006 378.439306,340.36987 388.46790599999997,339.72704 398.729706,339.02374000000003 409.216606,338.26515000000006 419.907006,337.45627 430.773806,336.6003 441.789106,335.70092 452.925706,334.76229 464.15850600000005,333.78889000000004 475.465806,332.78531000000004 486.830406,331.75604000000004 498.240206,330.70533 509.688806,329.63705000000004 521.174406,328.55439 532.6953060000001,327.46016000000003 544.247606,326.35738000000003 555.825606,325.24933000000004 567.421206,324.13955000000004 579.024306,323.03179 590.622706,321.93 602.2022059999999,320.83829000000003 613.7469060000001,319.76028 625.2411060000001,318.69458000000003 636.672606,317.63702 648.033506,316.58315000000005 659.320206,315.52834 670.5327060000001,314.46779000000004 681.6745060000001,313.39659 692.7520059999999,312.30964 703.774706,311.20168 714.754606,310.06864 725.702506,308.91478 736.622306,307.74787000000003 747.510006,306.57642000000004 758.3539059999999,305.40959000000004 769.135706,304.25712000000004 779.8304059999999,303.12905 790.4088059999999,302.03540000000004 800.838306,300.98574 811.085206,299.98792000000003 821.1191060000001,299.03536 830.922806,298.11095 840.493406,297.19832 849.838106,296.28237 858.971406,295.34929 867.9127060000001,294.38624000000004 876.684506,293.38114 885.311706,292.32227 893.8209059999999,291.19787 902.240606,289.9957 910.6010060000001,288.70355 918.931306,287.32056 927.250006,285.85452000000004 935.5616060000001,284.31526 943.857406,282.71515 952.115506,281.06946000000005 960.302006,279.395863 968.3762059999999,277.70801500000005 976.3009059999999,276.015464 984.045606,274.326838 991.587206,272.649632 998.909406,270.990065 1005.073306,269.5692" stroke="black" stroke-width="2.0" /></svg>