<?xml version="1.0" encoding="utf-8" ?>
<svg baseProfile="full" height="155.13378" version="1.1" width="1012.04104954" xmlns="http://www.w3.org/2000/svg" xmlns:ev="http://www.w3.org/2001/xml-events" xmlns:xlink="http://www.w3.org/1999/xlink"><defs /><polygon fill="none" points="1004.04104954,105.31869999999999 1000.48254954,104.245088 996.2069495400001,102.97021299999999 991.73414954,101.65409799999999 987.05044954,100.29509399999999 982.1423495399999,98.891977 976.99764954,97.44420099999999 971.6064495400001,95.952248 965.9633495400001,94.41805 960.06904954,92.84546999999999 953.93334954,91.24082 947.57724954,89.61277999999999 941.03144954,87.97039 934.33134954,86.32256999999998 927.5135495400001,84.6775 920.6115495399999,83.04176 913.65294954,81.4198 906.65694954,79.81358999999999 899.63274954,78.22263 892.58134954,76.64555999999999 885.5023495400001,75.08139 878.3953495400001,73.52923999999999 871.26034954,71.98821999999998 864.09774954,70.45752999999999 856.9080495400001,68.93637 849.69224954,67.42402999999999 842.45144954,65.9198 835.18744954,64.42304999999999 827.90224954,62.93318999999999 820.59804954,61.44964999999999 813.27764954,59.97194999999999 805.94434954,58.49963999999999 798.60144954,57.032439999999994 791.25244954,55.571169999999995 783.90044954,54.11713999999999 776.54844954,52.67162999999999 769.19894954,51.23584999999999 761.85434954,49.810919999999996 754.51674954,48.39789999999999 747.18784954,46.99779999999999 739.86914954,45.61151999999999 732.56184954,44.23991999999999 725.2668495400001,42.88376999999999 717.98494954,41.5438 710.71644954,40.220659999999995 703.4614495400001,38.91494999999999 696.21994954,37.62722999999998 688.99164954,36.35812999999999 681.77624954,35.10822999999999 674.57304954,33.878119999999996 667.38134954,32.66830999999999 660.20044954,31.47932 653.0291495399999,30.311639999999997 645.8663495400001,29.165719999999993 638.71074954,28.04200999999999 631.56094954,26.94095 624.4153495400001,25.86296 617.27224954,24.808459999999997 610.12964954,23.777869999999993 602.98564954,22.771609999999995 595.83804954,21.789869999999993 588.68504954,20.832319999999996 581.52534954,19.89860999999999 574.35774954,18.988469999999992 567.18184954,18.101679999999988 559.99734954,17.238089999999985 552.8045495399999,16.39761 545.60414954,15.580159999999992 538.39724954,14.78573999999999 531.18554954,14.014349999999993 523.97084954,13.266049999999993 516.7558495400001,12.540880000000001 509.54334953999995,11.838909999999998 502.33654954,11.160219999999995 495.13914954,10.505319999999983 487.95444954,9.875569999999996 480.78514954,9.272299999999987 473.63314954000003,8.696759999999983 466.50004954,8.150109999999998 459.38654954000003,7.6333899999999915 452.29284954,7.147609999999986 445.21874954000003,6.693699999999993 438.16324954000004,6.272539999999992 431.12504954,5.885009999999994 424.10234954000003,5.531930000000003 417.09274954000006,5.214199999999991 410.09344954,4.932599999999994 403.10124953999997,4.687999999999988 396.11244954000006,4.481099999999998 389.12364954000003,4.311499999999981 382.13204954,4.1788999999999845 375.13534954,4.082999999999998 368.13204954,4.023399999999981 361.12104954,4.0 354.10224954000006,4.012599999999992 347.07564954000003,4.060999999999993 340.04244954,4.144899999999993 333.00414954,4.264099999999999 325.96294954,4.418199999999985 318.92194954,4.607099999999988 311.88454954,4.830100000000002 304.85504954000004,5.086799999999997 297.83824954,5.3769399999999905 290.83954954,5.702399999999983 283.86454954000004,6.065739999999991 276.91824954,6.469359999999995 270.00544954000003,6.915519999999987 263.13064954,7.406300000000002 256.29804953999997,7.943639999999988 249.51124954,8.529299999999992 242.77394954,9.164889999999986 236.08894954,9.851839999999996 229.45934953999998,10.591440000000006 222.88734953999997,11.38481999999999 216.37504954,12.23296999999998 209.92444953999998,13.136759999999995 203.53694954,14.09689999999999 197.21374953999998,15.113789999999995 190.95424953999998,16.187349999999995 184.75404954,17.318029999999993 178.60544954,18.507169999999988 172.49774953999997,19.757059999999996 166.41704954,21.071169999999995 160.34664954,22.454379999999986 154.26604953999998,23.913269999999997 148.15084954,25.455619999999996 141.97834954,27.085419999999985 135.73904954,28.802589999999995 129.43974954,30.602189999999993 123.10704954,32.4727 116.78814954,34.39488999999999 110.54804954000001,36.34218999999999 104.46124954,38.2833 98.59995954,40.190659999999994 93.01230954,42.06274999999999 87.70452954,43.91227999999999 82.65578954,45.75630999999999 77.83264954,47.61391 73.19767954,49.49980999999999 68.72710954,51.41427999999999 64.41886954,53.348479999999995 60.28454954000001,55.28723999999999 56.341469540000006,57.21183999999999 52.60616954,59.103049999999996 49.092919540000004,60.94523999999999 45.80773954000001,62.72995999999999 42.744629540000005,64.45451 39.89078954,66.11965 37.23053954,67.72814 34.74756954,69.28366 32.42617954,70.79021999999999 30.251889539999997,72.25178 28.21150954,73.67227 26.29113954,75.05936 24.47986954,76.42120999999999 22.772409539999998,77.76029 21.16585954,79.07551999999998 19.65741954,80.36415 18.243369539999996,81.62315 16.91876954,82.85007999999999 15.678409539999999,84.04302999999999 14.522309539999998,85.19842 13.45001654,86.31433999999999 12.45803554,87.39160999999999 11.541587540000002,88.43238 10.695612539999999,89.43936 9.915249540000001,90.41538999999999 9.196046540000001,91.36323999999999 8.53403754,92.28551999999999 7.92574754,93.18460999999999 7.368163539999999,94.06272999999999 6.85870054,94.92187 6.39515954,95.763853 5.97569354,96.59035999999999 5.59877054,97.40292299999999 5.26315154,98.202968 4.96786314,98.991818 4.71218844,99.77072299999999 4.49565014,100.540866 4.31800774,101.303383 4.17925674,102.05937899999999 4.07963374,102.809936 4.01962794,103.55613899999999 4.0,104.29907999999999 4.02180914,105.03988639999999 4.08633266,105.77972949999999 4.19360104,106.519768 4.34282014,107.26108099999999 4.53347694,108.00469899999999 4.76534224,108.75161299999999 5.03845444,109.50279699999999 5.35311154,110.259211 5.70986754,111.021817 6.10953754,111.79158399999999 6.55320254,112.56949599999999 7.04222654,113.356557 7.57826554,114.15378799999999 8.16329154,114.962227 8.79960654,115.78291999999999 9.48986154,116.61689999999999 10.23705554,117.46512999999999 11.04452354,118.32848999999999 11.91587054,119.20759 12.854834539999999,120.10267999999999 13.86499854,121.01332 14.94926954,121.93794 16.108969539999997,122.87324999999998 17.342809539999998,123.81351999999998 18.651729539999998,124.75377999999999 20.039359540000003,125.69057999999998 21.50874954,126.62042 23.06241954,127.5402 24.702689539999998,128.44768 26.43243954,129.34219 28.256449540000002,130.22537 30.18321954,131.10174999999998 32.223719540000005,131.97467 34.38931954,132.8449 36.69282954,133.71317 39.14858954,134.58025999999998 41.77232954,135.44698 44.58063954,136.31409 47.58972954,137.18219 50.81282954,138.05147 54.255749540000004,138.92137 57.91297954,139.78821 61.774069540000006,140.64037 65.82401954,141.46373 70.04640954,142.24437 74.43008954,142.96987 78.97767954000001,143.63017 83.71360954000001,144.21954 88.67427954,144.7423 93.89325954,145.20539 99.39290954,145.61687 105.16994953999999,145.98714999999999 111.18014954,146.322 117.35394954,146.61127 123.61824954,146.84407 129.90874954,147.01211999999998 136.17904954,147.10985 142.40464953999998,147.13378 148.58224954,147.08139 154.72764954,146.94996 160.87364953999997,146.73782 167.05674954,146.44858 173.30914954,146.08588 179.65814953999998,145.65273 186.12624954,145.15204 192.72984953999998,144.5873 199.47674954,143.96325 206.36344954,143.28662 213.37304953999998,142.56448999999998 220.48334954,141.80216 227.67114954,141.00544 234.91354954,140.18078 242.18934954,139.33492999999999 249.47964954,138.47472 256.76844954,137.60682 264.04344954000004,136.73754 271.29574954000003,135.87272 278.52044954,135.01771 285.71574954,134.17728 292.88344954,133.35572 300.02834954,132.55686 307.15824954,131.78409 314.28264954,131.03746999999998 321.41034954,130.31358 328.54884954000005,129.60902 335.70434954,128.92059 342.88174954,128.24522 350.08494954,127.57996 357.31614954,126.92195 364.57664954,126.26839999999999 371.86614954000004,125.61658 379.18264954000006,124.96383999999999 386.52294954,124.3076 393.88194954,123.64538999999999 401.25284954,122.97484999999999 408.62734954,122.29400999999999 415.99644954000007,121.60440999999999 423.35264954,120.91 430.68974954000004,120.21463 438.00304954,119.52195999999999 445.28974954,118.83545 452.54784954,118.15835999999999 459.77734954,117.49373999999999 466.97914954000004,116.84441999999999 474.15544954,116.2131 481.30954954,115.60230999999999 488.44614954,115.01445899999999 495.57074954,114.4519 502.68984954,113.916929 509.81134954000004,113.411368 516.9429495400001,112.93366699999999 524.09134954,112.480926 531.26254954,112.05036899999999 538.46114954,111.63930599999999 545.6911495400001,111.24510799999999 552.9552495400001,110.86517099999999 560.2549495400001,110.496905 567.59064954,110.137711 574.9615495400001,109.784978 582.36534954,109.436077 589.79834954,109.08836799999999 597.2550495400001,108.739211 604.72864954,108.385987 612.2109495400001,108.027238 619.6937495400001,107.66492699999999 627.16994954,107.30162999999999 634.63364954,106.93985699999999 642.08014954,106.582038 649.50574954,106.23051009999999 656.90834954,105.8875068 664.28644954,105.55516359999999 671.63994954,105.23551977 678.9697495400001,104.9305289 686.27754954,104.64207139999999 693.56614954,104.3719713 700.8392495400001,104.12201499999999 708.10124954,103.893892 715.35724954,103.687834 722.61174954,103.50287599999999 729.86904954,103.33807999999999 737.13264954,103.19255899999999 744.40594954,103.065473 751.6916495400001,102.956014 758.99194954,102.86339799999999 766.3089495400001,102.78685899999999 773.64384954,102.72564 780.99764954,102.67898799999999 788.37074954,102.64614599999999 795.76314954,102.62634899999999 803.17424954,102.618816 810.6027495400001,102.622734 818.04724954,102.63716099999999 825.5059495400001,102.66109499999999 832.97694954,102.69350999999999 840.45814954,102.733363 847.94694954,102.77959 855.44094954,102.831109 862.93724954,102.886828 870.43284954,102.94564199999999 877.92454954,103.00644199999999 885.40894954,103.06811699999999 892.88244954,103.12955799999999 900.34144954,103.18966599999999 907.78214954,103.247473 915.19764954,103.30463699999999 922.5702495400001,103.36528 929.8697495399999,103.433324 937.05664954,103.51219499999999 944.08614954,103.60461199999999 950.9130495400001,103.712413 957.49764954,103.83641499999999 963.8103495400001,103.97519399999999 969.83634954,104.12589299999999 975.57384954,104.28591999999999 981.0295495400001,104.45306269999999 986.21624954,104.62549609999999 991.14944954,104.80174579999999 995.8460495400001,104.98063789999999 1000.32324954,105.1612478 1004.04104954,105.31869999999999" stroke="black" stroke-width="2.0" /></svg>