<?xml version="1.0" encoding="utf-8" ?>
<svg baseProfile="full" height="151.4582" version="1.1" width="1012.5041678" xmlns="http://www.w3.org/2000/svg" xmlns:ev="http://www.w3.org/2001/xml-events" xmlns:xlink="http://www.w3.org/1999/xlink"><defs /><polygon fill="none" points="1004.5041678,118.6649 1000.9365678,117.7814544 996.7068678,116.73734300000001 992.3468677999999,115.664845 987.8491678,114.562445 983.2056678,113.42855800000001 978.4079677999999,112.26154700000001 973.4471678,111.059734 968.3144678,109.821431 963.0006678,108.54498000000001 957.4967677999999,107.22879 951.7940678,105.87146 945.8848677999999,104.47179 939.7625678,103.029 933.4226678,101.5428 926.8636678,100.01362 920.0875678000001,98.44282000000001 913.1013678,96.83285000000001 905.9178678,95.1875 898.5563678,93.51198000000001 891.0418678,91.81275 883.4025677999999,90.09685 875.6683678,88.37149 867.8684678,86.64365000000001 860.0305678,84.91973000000002 852.1791678,83.20528000000002 844.3347678,81.50485 836.5130678,79.82181 828.7249678,78.1584 820.9764678,76.5158 813.2693677999999,74.89421 805.6010678,73.29296 797.9654678,71.7106 790.3545677999999,70.14525 782.7608678,68.59511 775.1774678,67.05858 767.5983678,65.53424 760.0178678,64.02081000000001 752.4308678000001,62.51715 744.8329678,61.022240000000004 737.2198678,59.5352 729.5880678,58.05524 721.9343678,56.58168 714.2560678,55.113960000000006 706.5509678,53.6516 698.8172678,52.19421 691.0539678,50.7411 683.2609678,49.29151000000002 675.4388678,47.84483 667.5892678,46.40062 659.7148678000001,44.95857000000001 651.8193678,43.518550000000005 643.9072678,42.08059 635.9844678,40.64489999999999 628.0576678,39.211830000000006 620.1347678000001,37.781940000000006 612.2243678000001,36.35592 604.3359678,34.9346 596.4795678,33.51971 588.6639678,32.115669999999994 580.8957678,30.72715000000001 573.1800678,29.358310000000003 565.5200678,28.01285 557.9172678,26.694010000000006 550.3718677999999,25.40462000000001 542.8825678000001,24.147130000000004 535.4471678000001,22.923680000000004 528.0622678000001,21.736130000000003 520.7236678,20.586119999999994 513.4260678,19.475100000000012 506.16386780000005,18.404399999999995 498.9303678,17.375100000000003 491.7192678,16.3866 484.5249678,15.437699999999992 477.3424678,14.527300000000011 470.1670678,13.654800000000009 462.99486779999995,12.819299999999998 455.8221678,12.020399999999995 448.64576780000004,11.25760000000001 441.4627678,10.530600000000007 434.2708678,9.839300000000009 427.0679678,9.183400000000006 419.85256780000003,8.563000000000002 412.62316780000003,7.978099999999998 405.3791678,7.428799999999995 398.1198678,6.915200000000013 390.8456678,6.438600000000008 383.5575678,6.000199999999992 376.2582678,5.601599999999991 368.95126780000004,5.244200000000006 361.6416678,4.929299999999998 354.3356678,4.658500000000004 347.0405678,4.4328 339.76486780000005,4.253399999999999 332.5179678,4.121099999999998 325.3099678,4.036600000000007 318.15146780000003,4.0 311.05366779999997,4.011399999999995 304.0273678,4.0704000000000065 297.0834678,4.176800000000014 290.2307678,4.3315000000000055 283.47376779999996,4.53540000000001 276.8132678,4.789200000000008 270.2468678,5.0937000000000126 263.7697678,5.449500000000015 257.37496780000004,5.857700000000008 251.05406779999998,6.319299999999998 244.7968678,6.835800000000006 238.5923678,7.409099999999995 232.4279678,8.041600000000003 226.2899678,8.7363 220.1630678,9.496899999999997 214.0301678,10.32820000000001 207.87176780000001,11.2363 201.6649678,12.228499999999997 195.3848678,13.310200000000009 189.0127678,14.482000000000014 182.5428678,15.7423 175.9862678,17.085300000000004 169.3737678,18.499899999999997 162.7577678,19.968670000000003 156.2094678,21.467910000000003 149.8099678,22.971909999999994 143.63056780000002,24.47233 137.70606780000003,25.974270000000004 132.0389678,27.486310000000003 126.6127678,29.01894 121.40086780000001,30.583789999999993 116.3726678,32.193470000000005 111.4954678,33.861850000000004 106.7361678,35.60466000000001 102.0601778,37.43997 97.4317278,39.376760000000004 92.8248678,41.411100000000005 88.22857780000001,43.53338000000001 83.64700780000001,45.726820000000004 79.0996678,47.966229999999996 74.6198278,50.22255 70.2486578,52.474320000000006 66.02754780000001,54.70004 61.9918078,56.878870000000006 58.1661378,58.993370000000006 54.5631478,61.03116 51.186487799999995,62.98579000000001 48.036907799999994,64.85871 45.10562779999999,66.65611000000001 42.37778779999999,68.38586000000001 39.836587800000004,70.05607 37.465347799999996,71.67441 35.2485778,73.2478 33.1722978,74.78238 31.224117800000002,76.28355 29.3931578,77.75602 27.6682478,79.20485 26.0357978,80.63622000000001 24.485597800000004,82.05349000000001 23.0105078,83.4574 21.605307800000002,84.84693 20.265797799999998,86.22008 18.9883278,87.57442 17.7694778,88.90753000000001 16.6059378,90.21725 15.498007799999998,91.50024 14.4494418,92.75255 13.4616218,93.97240000000001 12.5341348,95.15959000000001 11.6655358,96.31488 10.853844800000001,97.43955 10.0968598,98.53518 9.3923398,99.60348 8.738124800000001,100.64615 8.1321908,101.66489 7.5726848,102.66129000000001 7.0579358,103.63689000000001 6.5864618,104.59312 6.1569648,105.53133 5.7683257999999995,106.45278 5.4195987,107.35864000000001 5.1100027,108.25003000000001 4.8389178,109.12797900000001 4.6058802,109.99347800000001 4.41057911,110.84745600000001 4.2528557,111.6908 4.1327042,112.52436300000001 4.0502749,113.348965 4.0058796,114.165405 4.0,114.97446500000001 4.0332994,115.77691800000001 4.1066382,116.573539 4.2210943,117.365106 4.3779886999999995,118.1524163 4.5788982,118.9362876 4.8245914,119.717297 5.1144453,120.495579 5.447934399999999,121.27115 5.8247458000000005,122.043931 6.2447668,122.81374600000001 6.7080678,123.580312 7.2148988,124.343221 7.7656808,125.101926 8.3609998,125.855717 9.0016008,126.603689 9.6883828,127.344707 10.4223888,128.077358 11.2047958,128.79989 12.0368898,129.51013 12.9200378,130.20539000000002 13.855633799999998,130.88238 14.8450278,131.53697 15.8893878,132.16409 16.9895578,132.75747 18.146447799999997,133.31082 19.3633778,133.82299 20.6446478,134.29474 21.9949678,134.7275 23.419477800000003,135.12362000000002 24.923697800000003,135.48672 26.5135078,135.82215 28.1950478,136.13764 29.9744578,136.44408 31.8589778,136.75088 33.8586878,137.05923 35.9847978,137.36931 38.2492778,137.68147 40.6646378,137.99625 43.2434178,138.31448 45.997597799999994,138.63748 48.9377178,138.96724 52.0719478,139.30667 55.405397799999996,139.65997000000002 58.9403178,140.02873 62.676277799999994,140.40627 66.60983780000001,140.78266 70.7370678,141.14549 75.05812780000001,141.48009 79.5845278,141.76942 84.3481678,141.99869 89.3967478,142.17175 94.7814278,142.30017 100.5479378,142.40147 106.7171678,142.50226 113.25966780000002,142.62246 120.1042678,142.7587 127.1580678,142.90321 134.3261678,143.04671000000002 141.53206780000002,143.17964 148.7311678,143.29317 155.91486780000002,143.37931 163.1069678,143.43361 170.3397678,143.4582 177.64006780000003,143.45577 185.0281678,143.42881 192.5179678,143.37981 200.1144678,143.31149 207.8131678,143.22684 215.5990678,143.12766 223.45436780000003,143.01398 231.3612678,142.88584 239.3028678,142.74337 247.26336780000003,142.58683 255.2286678,142.41652 263.1865678,142.2328 271.1271678,142.03608 279.04276780000004,141.82674 286.9277678,141.60517 294.77896780000003,141.37171 302.5948678,141.12667 310.3760678,140.87019 318.12446780000005,140.60161 325.8418678,140.31984 333.5304678,140.02382 341.1925678,139.71247 348.83036780000003,139.38473 356.44636779999996,139.03951 364.0430678,138.67573 371.6232678,138.29227 379.1897678,137.88801 386.7453678,137.46177 394.2932678,137.01238 401.83656779999995,136.53857 409.3786678,136.03925 416.9231678,135.51556 424.4734678,134.97021 432.0325678,134.40595 439.6031678,133.82554 447.1877678,133.2318 454.7882678,132.62758 462.40626779999997,132.0158 470.04306779999996,131.39945 477.6996678,130.78158000000002 485.3763678,130.16535 493.0734678,129.55397 500.79046780000004,128.95075 508.52666780000004,128.358966 516.2806678,127.77928200000001 524.0505678,127.209868 531.8342678,126.648774 539.6293678,126.09404 547.4332678000001,125.543694 555.2430678000001,124.99576400000001 563.0555678000001,124.44828100000001 570.8673678,123.89929000000001 578.6749678,123.346852 586.4743678,122.789058 594.2616678,122.224039 602.0326678,121.64997 609.7830677999999,121.065404 617.5089678,120.472413 625.2072678,119.875152 632.8756678,119.2776774 640.5124678,118.68390377 648.1169678,118.0975976 655.6887678,117.522377 663.2283678,116.96171700000001 670.7367677999999,116.418959 678.2154678,115.897321 685.6664678,115.399917 693.0924678,114.929773 700.4962678,114.489845 707.8815678000001,114.082983 715.2517678,113.710188 722.6105678,113.370461 729.9617678000001,113.06276700000001 737.3090678,112.786139 744.6563678,112.539675 752.0077678,112.322539 759.3673678,112.133955 766.7395678,111.973209 774.1288678000001,111.839644 781.5402678,111.732663 788.9788678,111.65172700000001 796.4499678000001,111.59635300000001 803.9595678000001,111.56612100000001 811.5137678,111.560711 819.1177678,111.580062 826.7734677999999,111.62420800000001 834.4794678,111.693154 842.2299677999999,111.786815 850.0150678,111.904949 857.8203678,112.04709100000001 865.6269678,112.21249300000001 873.4117678,112.40007800000001 881.1484678,112.608417 888.8086678000001,112.835735 896.3630678000001,113.079954 903.7830678,113.338763 911.0424678,113.60976600000001 918.1197678,113.89083000000001 924.9995678,114.18001100000001 931.6722678000001,114.47552300000001 938.1334678,114.77577500000001 944.3823678,115.07938 950.4217678,115.385153 956.2564678,115.692098 961.8932678,115.99938900000001 967.3395678,116.306352 972.6036678,116.612438 977.6942677999999,116.917212 982.6197678,117.22032800000001 987.3887678,117.52151500000001 992.0093678,117.8205671 996.4895678,118.1173283 1000.8368677999999,118.4116848 1004.5041678,118.6649" stroke="black" stroke-width="2.0" /></svg>