<?xml version="1.0" encoding="utf-8" ?>
<svg baseProfile="full" height="132.49927000000002" version="1.1" width="1011.995384394" xmlns="http://www.w3.org/2000/svg" xmlns:ev="http://www.w3.org/2001/xml-events" xmlns:xlink="http://www.w3.org/1999/xlink"><defs /><polygon fill="none" points="1003.995384394,82.79851000000001 1000.554084394,82.265044 996.396684394,81.62533 992.018984394,80.957362 987.401784394,80.25912600000001 982.525984394,79.528749 977.373484394,78.764717 971.929784394,77.96620100000001 966.187284394,77.13351600000001 960.149484394,76.26870000000001 953.836184394,75.37615000000001 947.2876843939999,74.46238000000001 940.5606843940001,73.53348000000001 933.7173843940001,72.59489 926.8166843939999,71.65104000000001 919.907084394,70.70464000000001 913.0218843939999,69.75633 906.1780843939999,68.80459 899.376784394,67.84620000000001 892.608584394,66.87955000000001 885.8633843939999,65.90473 879.132184394,64.92198 872.407084394,63.93159000000001 865.6813843939999,62.93399000000001 858.949084394,61.92971000000001 852.205184394,60.91939000000001 845.445484394,59.903830000000006 838.6667843939999,58.883950000000006 831.866684394,57.86084000000001 825.0436843939999,56.835750000000004 818.197384394,55.81013000000001 811.3281843939999,54.785570000000014 804.437884394,53.76388000000001 797.528984394,52.74674 790.605084394,51.73447000000001 783.669284394,50.72692000000001 776.724584394,49.723850000000006 769.7731843939999,48.72495000000001 762.817384394,47.72986 755.858584394,46.738130000000005 748.8981843939999,45.74927000000001 741.936884394,44.76270000000001 734.975084394,43.77781 728.012684394,42.793890000000005 721.0491843939999,41.810210000000005 714.083684394,40.82594000000001 707.1147843939999,39.84023000000001 700.140784394,38.85215000000001 693.159384394,37.86117 686.169184394,36.86717000000001 679.176184394,35.87115000000001 672.193384394,34.875130000000006 665.2210843940001,33.879250000000006 658.257984394,32.88351000000001 651.302484394,31.887800000000006 644.3521843939999,30.891940000000005 637.404184394,29.895630000000004 630.454984394,28.898500000000006 623.5001843939999,27.900080000000003 616.535084394,26.89981000000001 609.553884394,25.897020000000005 602.563584394,24.892820000000007 595.598784394,23.893240000000006 588.667384394,22.90227 581.773384394,21.923550000000006 574.919284394,20.960369999999998 568.106384394,20.015740000000008 561.334784394,19.092370000000003 554.6033843939999,18.192729999999997 547.9103843940001,17.319050000000004 541.252784394,16.47336 534.626684394,15.657570000000007 528.027884394,14.873450000000005 521.4508843939999,14.12267 514.8897843939999,13.406890000000004 508.337884394,12.727760000000004 501.787684394,12.086920000000006 495.231084394,11.484400000000008 488.66108439399994,10.917780000000008 482.071284394,10.384640000000019 475.45648439400003,9.88273000000001 468.812084394,9.409930000000003 462.13468439400003,8.96423 455.421884394,8.543670000000006 448.67218439399994,8.146370000000019 441.885584394,7.770420000000016 435.062884394,7.413940000000011 428.206684394,7.075030000000012 421.320584394,6.751780000000011 414.410184394,6.442240000000012 407.482284394,6.14443 400.545284394,5.856460000000013 393.608584394,5.578940000000003 386.680884394,5.314940000000007 379.769884394,5.067510000000013 372.881884394,4.839550000000017 366.02238439399997,4.633790000000005 359.195484394,4.452840000000009 352.40438439400003,4.29910000000001 345.650984394,4.174859999999995 338.93638439399996,4.082250000000002 332.260784394,4.023320000000012 325.623584394,4.0 319.02328439400003,4.014170000000007 312.45788439399996,4.067660000000018 305.924384394,4.162310000000005 299.41968439399994,4.299820000000011 292.940284394,4.480550000000008 286.482884394,4.704120000000003 280.04438439399996,4.970259999999996 273.62158439399997,5.2787600000000054 267.211684394,5.629530000000003 260.811684394,6.022540000000006 254.41868439400002,6.457860000000011 248.029884394,6.9356400000000065 241.642384394,7.456100000000006 235.253484394,8.019590000000008 228.86038439400002,8.626490000000018 222.45998439400003,9.277310000000014 216.04968439400002,9.972639999999998 209.626284394,10.713170000000005 203.186884394,11.499690000000001 196.728584394,12.333120000000008 190.250984394,13.214240000000018 183.758184394,14.143200000000007 177.25938439400002,15.11930000000001 170.768484394,16.14075000000001 164.304484394,17.204610000000002 157.890084394,18.306659999999994 151.55108439400001,19.441590000000005 145.31278439400003,20.60636000000001 139.191084394,21.802840000000003 133.18828439400002,23.03477000000001 127.296784394,24.307440000000007 121.500784394,25.627810000000004 115.778084394,27.004700000000007 110.101084394,28.449340000000007 104.43558439399999,29.97612000000001 98.740174394,31.599990000000005 92.983124394,33.31562000000001 87.17507439399999,35.09809000000001 81.380244394,36.90350000000001 75.710934394,38.67443000000001 70.293474394,40.38993000000001 65.20859439399999,42.06514000000001 60.482664394,43.71656000000001 56.107234394,45.35830000000001 52.056784394,47.000870000000006 48.30332439399999,48.64262000000001 44.818184394,50.27580000000001 41.571384394,51.89743000000001 38.535014394,53.50760000000001 35.684464394,55.10810000000001 32.998554393999996,56.701710000000006 30.459244394,58.29181000000001 28.050934394,59.882340000000006 25.755514394,61.47989000000001 23.569734393999997,63.078990000000005 21.513474394,64.65360000000001 19.609684394,66.17091 17.869124394000004,67.60583000000001 16.287364394,68.94678 14.855824394,70.19264000000001 13.569943394000001,71.34929000000001 12.416523394,72.42821 11.380022394000001,73.44137 10.446211394,74.39925000000001 9.603049394000001,75.31060000000001 8.840626394000001,76.18256000000001 8.150872394,77.021022 7.527225394,77.83082800000001 6.964353394,78.616039 6.4579213939999995,79.38008500000001 6.004420394,80.12590900000001 5.601020394,80.85606800000001 5.245472394,81.57282000000001 4.936030594,82.27818500000001 4.671389894,82.97400200000001 4.450649694,83.66197000000001 4.273286794,84.343691 4.139143294,85.02070200000001 4.048426474,85.694505 4.001722656,86.36660420000001 4.0,87.0385282 4.043408684,87.7116508 4.130722494,88.387022 4.260994994,89.06560800000001 4.433659394,89.748332 4.648498994,90.43609400000001 4.905629994,91.12978000000001 5.205495394,91.83027600000001 5.5488693940000005,92.538477 5.936870394,93.25529800000001 6.370987394,93.981677 6.8531093940000005,94.71858300000001 7.385577394,95.46701100000001 7.971237393999999,96.22798200000001 8.613517394,97.00253000000001 9.316507394,97.79165 10.085061394,98.59629000000001 10.924891394,99.41718 11.842635394,100.25469000000001 12.845852394,101.10849 13.942791394,101.97699 15.141694394,102.85631000000001 16.449074394,103.73866000000001 17.868654394,104.61197000000001 19.409054394,105.46796 21.079834394,106.29982000000001 22.888564393999996,107.10125000000001 24.840524394,107.86823000000001 26.940024393999998,108.60130000000001 29.194494394,109.30829 31.619874394,110.00131 34.236824393999996,110.68138 37.068564394,111.34653 40.141324394,111.99462000000001 43.483984394,112.62339 47.126994394,113.23075 51.09990439399999,113.81519 55.426374394,114.37664000000001 60.124064394,114.91583 65.203914394,115.43366 70.651634394,115.93506000000001 76.418144394,116.43104000000001 82.420184394,116.93795 88.55490439399999,117.45071000000002 94.732164394,117.94374 100.899214394,118.39406000000001 107.047384394,118.78346 113.20188439399999,119.1102 119.391984394,119.38616000000002 125.64118439399999,119.62304 131.967484394,119.83238 138.382784394,120.02603000000002 144.891484394,120.21655000000001 151.48878439400002,120.41731000000001 158.159084394,120.64150000000001 164.87858439400003,120.8903 171.624884394,121.15566000000001 178.379584394,121.42913000000001 185.12908439400002,121.70229 191.865184394,121.96694000000001 198.584584394,122.21525000000001 205.28928439400002,122.43965 211.98548439400003,122.63562 218.680284394,122.80502000000001 225.380284394,122.95045000000002 232.09108439400003,123.07443 238.81738439400002,123.17940000000002 245.56348439400003,123.26778 252.332484394,123.34198 259.12698439400003,123.40442000000002 265.94858439399997,123.45756 272.798084394,123.5039 279.67548439399997,123.54599 286.579384394,123.58645000000001 293.50768439399997,123.62794000000001 300.45718439399997,123.67319 307.42328439399995,123.72487000000001 314.400884394,123.78362000000001 321.38498439399996,123.84799000000001 328.37118439399995,123.91643 335.355784394,123.98738 342.33568439399994,124.05928 349.30848439399995,124.13058000000001 356.272484394,124.19974 363.226384394,124.26525000000001 370.169984394,124.32562000000001 377.10328439399996,124.37938000000001 384.027084394,124.42507 390.942784394,124.46124 397.852484394,124.48646000000001 404.758684394,124.49927000000001 411.664584394,124.49884 418.573084394,124.48607000000001 425.486984394,124.46218000000002 432.408384394,124.42838 439.339084394,124.38586000000001 446.280284394,124.33583000000002 453.232784394,124.27952000000002 460.19678439399996,124.21814 467.172184394,124.15296000000001 474.158184394,124.08523000000001 481.153484394,124.01624000000001 488.156384394,123.94729000000001 495.164584394,123.87969000000001 502.175284394,123.81477000000001 509.18488439399994,123.75364000000002 516.190084394,123.69572000000001 523.187684394,123.63947 530.175084394,123.58335000000001 537.1504843939999,123.52585 544.112284394,123.46544 551.059784394,123.40064000000001 557.992584394,123.32995 564.910884394,123.25192000000001 571.8153843939999,123.16508000000002 578.707284394,123.06798 585.588284394,122.95917 592.460484394,122.8372 599.326484394,122.70058 606.189384394,122.54784000000001 613.052484394,122.37825000000001 619.919284394,122.19237000000001 626.7922843939999,121.99086 633.673984394,121.77438000000001 640.565984394,121.54358000000002 647.469484394,121.29914 654.385484394,121.04174 661.314084394,120.77209000000002 668.254884394,120.49094000000001 675.207184394,120.19907 682.1693843940001,119.89727 689.1395843939999,119.58642 696.1151843939999,119.26741000000001 703.0929843939999,118.94118 710.069184394,118.60844 717.039784394,118.26830000000001 724.001184394,117.9193 730.9498843939999,117.55998000000001 737.883184394,117.1889 744.798384394,116.80463 751.693684394,116.40575000000001 758.567184394,115.99089000000001 765.417884394,115.55866 772.244684394,115.10772 779.047284394,114.63671000000001 785.825384394,114.14431 792.579084394,113.62919000000001 799.309084394,113.09002000000001 806.0159843939999,112.52549 812.700984394,111.93504000000001 819.365684394,111.31946 826.012184394,110.67956000000001 832.6431843940001,110.01607000000001 839.261484394,109.3296 845.870584394,108.62069000000001 852.474484394,107.88977000000001 859.077484394,107.13714 865.6844843939999,106.36299000000001 872.3008843939999,105.56741000000001 878.932784394,104.75033 885.586784394,103.91155 892.270284394,103.0507 898.991784394,102.16724 905.760484394,101.26043000000001 912.585384394,100.32964000000001 919.466284394,99.37573 926.386684394,98.40190000000001 933.313084394,97.41404 940.195084394,96.42071100000001 946.970584394,95.43250900000001 953.572884394,94.46093900000001 959.940684394,93.516762 966.0290843939999,92.60766100000001 971.8154843939999,91.73790100000001 977.295284394,90.909064 982.475984394,90.12082400000001 987.372784394,89.37165 992.004484394,88.659332 996.391284394,87.98135900000001 1000.553284394,87.3351528 1003.995384394,86.79851000000001" stroke="black" stroke-width="2.0" /></svg>