<?xml version="1.0" encoding="utf-8" ?>
<svg baseProfile="full" height="182.93883" version="1.1" width="1012.08246911" xmlns="http://www.w3.org/2000/svg" xmlns:ev="http://www.w3.org/2001/xml-events" xmlns:xlink="http://www.w3.org/1999/xlink"><defs /><polygon fill="none" points="1004.08246911,129.6684 1000.24976911,128.23712799999998 995.66596911,126.54294999999999 990.89626911,124.80039299999999 985.9301691100001,123.00796999999999 980.75736911,121.16462999999999 975.3689691100001,119.26998999999999 969.75746911,117.32454999999999 963.9186691100001,115.33008 957.8523691099999,113.28990999999999 951.5640691100001,111.20929999999998 945.0658691100001,109.09463 938.37516911,106.95214999999999 931.5121691100001,104.78815999999999 924.49836911,102.60864 917.35466911,100.41864999999999 910.09946911,98.22185999999999 902.7466691100001,96.02006999999999 895.30466911,93.81377999999998 887.77916911,91.60412 880.17636911,89.39253 872.5033691100001,87.18056999999999 864.76806911,84.96986999999999 856.97886911,82.76217999999999 849.1452691100001,80.55930999999998 841.27696911,78.36312 833.38446911,76.17549 825.47836911,73.99830999999999 817.56966911,71.83346999999999 809.66936911,69.68279 801.78836911,67.54802 793.9369691100001,65.43214 786.12326911,63.33989 778.35276911,61.27552999999999 770.62916911,59.24258999999999 762.95406911,57.24392999999999 755.32706911,55.28179999999999 747.74646911,53.357939999999985 740.20886911,51.473609999999994 732.70936911,49.6297 725.24206911,47.82678 717.79986911,46.06515999999999 710.3742691100001,44.34495 702.9559691100001,42.66610999999999 695.53456911,41.02763999999999 688.1008691100001,39.426469999999995 680.64686911,37.85969999999999 673.1664691100001,36.32487999999999 665.6547691100001,34.81994999999999 658.1083691100001,33.34319999999998 650.5256691100001,31.893299999999996 642.9065691100001,30.46929999999999 635.25286911,29.07029999999999 627.56796911,27.695999999999998 619.85776911,26.346199999999996 612.12976911,25.020799999999994 604.39376911,23.72019999999999 596.66106911,22.445399999999992 588.94286911,21.19969999999998 581.24846911,19.986800000000002 573.58506911,18.809699999999992 565.95816911,17.671099999999996 558.37106911,16.573099999999997 550.82566911,15.51769999999999 543.32196911,14.506299999999996 535.85876911,13.540199999999984 528.4332691100001,12.62039999999999 521.04146911,11.747799999999984 513.67836911,10.923099999999991 506.33766911,10.147199999999998 499.01216910999995,9.420599999999993 491.69436910999997,8.742799999999988 484.37816911,8.112399999999994 477.05806910999996,7.528599999999997 469.73006911,6.99069999999999 462.39116910999996,6.498099999999994 455.03906910999996,6.050399999999968 447.67306911,5.647300000000001 440.29306911,5.288700000000006 432.90046910999996,4.974199999999968 425.49756911,4.703899999999976 418.08796911,4.477399999999989 410.67626910999996,4.294599999999974 403.26836911,4.155200000000008 395.87106910999995,4.0589999999999975 388.49076911,4.006999999999977 381.13296911,4.0 373.80156911,4.038799999999981 366.49936911,4.123899999999992 359.22796911,4.255999999999972 351.98786910999996,4.435599999999994 344.77846911,4.6632000000000176 337.59816911,4.939499999999981 330.44436910999997,5.265199999999993 323.31376910999995,5.640999999999991 316.20196911,6.06789999999998 309.10396911,6.546899999999994 302.01356911,7.079399999999978 294.92436911,7.666699999999992 287.83116911,8.3095 280.73056911,9.008399999999995 273.62156910999994,9.7641 266.50516911,10.576799999999992 259.38456911,11.44659999999999 252.26536911000002,12.373199999999983 245.15516911,13.355799999999988 238.06386911,14.392999999999986 231.00326911000002,15.482899999999987 223.98676911,16.622799999999984 217.02916911,17.809499999999986 210.14626911,19.03909999999999 203.35376911000003,20.306999999999988 196.66726911,21.60969999999999 190.09816911000001,22.947099999999992 183.65076911,24.32029999999999 177.32316911,25.73139999999998 171.10886911,27.183399999999992 164.99786910999998,28.680099999999996 158.97716911,30.225999999999985 153.03166911,31.826899999999995 147.14486911,33.487999999999985 141.30646911000002,35.21028 135.51796911000002,36.991029999999995 129.79126911000003,38.82410999999999 124.14776911,40.69963999999999 118.61566911000001,42.604389999999995 113.22686911000001,44.52257 108.01266911,46.43723999999999 103.00063911000001,48.33184999999999 98.21249911000001,50.197289999999995 93.65782911000001,52.03945999999999 89.32952911000001,53.86855999999999 85.21108911,55.69601999999999 81.28197911000001,57.53368999999999 77.52050911,59.39348 73.90414911,61.28152999999999 70.41524911,63.19509999999998 67.04440910999999,65.12826999999999 63.78805911,67.07284999999999 60.646349109999996,69.01902 57.621459109999996,70.95604 54.716299109999994,72.87298999999999 51.933779109999996,74.75979999999998 49.27807910999999,76.61004999999999 46.75049911,78.42078999999998 44.34873911,80.19113999999999 42.06819911,81.92159 39.90302911,83.61356999999998 37.84679911,85.26901999999998 35.892909110000005,86.89017999999999 34.03495911,88.47937999999999 32.26682911,90.03897999999998 30.58276911,91.57126 28.97748911,93.07843999999999 27.445299110000004,94.56307999999999 25.979169110000004,96.02847 24.573689110000004,97.47635999999999 23.22504911,98.90697999999999 21.93044911,100.31953999999999 20.68771911,101.71255 19.49496911,103.08425 18.35044911,104.43279999999999 17.25236911,105.75649999999999 16.19891911,107.05390999999999 15.19080911,108.32315999999999 14.231089110000001,109.56237999999999 13.32123011,110.77108999999999 12.46141111,111.94973999999999 11.65099811,113.09942 10.88886811,114.22153999999999 10.17363911,115.31770999999999 9.50382211,116.38960999999999 8.87791511,117.43889999999999 8.29446711,118.46722 7.75211711,119.47614999999999 7.24961111,120.46717999999998 6.7858201099999995,121.44172999999999 6.359742109999999,122.40114 5.97050311,123.34669 5.61736111,124.27958 5.299703109999999,125.200953 5.01704271,126.11190799999999 4.76902111,127.01348899999999 4.55540701,127.90670599999999 4.37609741,128.79253999999997 4.23112051,129.67194999999998 4.12064006,130.54588 4.04496181,131.415268 4.0045422,132.281058 4.0,133.144204 4.03213141,134.00568439999998 4.10192485,134.86651189999998 4.20992311,135.72756199999998 4.35552621,136.58933299999998 4.5381654099999995,137.452227 4.75745171,138.316591 5.01316111,139.18272 5.30522311,140.050858 5.63371411,140.92119699999998 5.99884711,141.793871 6.40097111,142.66895 6.84056411,143.546435 7.31823211,144.426247 7.83470511,145.30821 8.39083211,146.19203 8.98758211,147.07729 9.62602811,147.96339999999998 10.30734211,148.84956 11.03277611,149.73476 11.80363311,150.61765 12.62123111,151.49654999999998 13.48684311,152.36929999999998 14.401619109999999,153.23322 15.366459110000001,154.08496 16.38188911,154.9204 17.44800911,155.73498 18.56574911,156.52705999999998 19.73645911,157.29667 20.961359110000004,158.04419 22.241529110000002,158.77041 23.57792911,159.47661 24.97137911,160.16465 26.42257911,160.83708 27.932169110000004,161.49723999999998 29.50075911,162.14941 31.12976911,162.79675 32.82214911,163.43878 34.58114911,164.07453999999998 36.41023911,164.70295 38.31310911,165.32283999999999 40.29369911,165.93289 42.35621911,166.53169 44.50522911,167.11766 46.74567911,167.6891 49.082999109999996,168.24412999999998 51.52325911,168.78072 54.07335911,169.29664 56.741639109999994,169.78988999999999 59.53884911,170.26014999999998 62.47703911,170.70782 65.56916910999999,171.13378 68.82855911000001,171.5396 72.26852911000002,171.92784 75.90115911000001,172.30246 79.73522911,172.66924999999998 83.77411911000002,173.0322 88.01690911,173.38618 92.45966911000001,173.72349 97.09688911,174.0353 101.92447911,174.31184 106.94376911,174.54277 112.16336911,174.72214 117.59376911,174.84839 123.24446911000001,174.92065 129.12406911,174.93883 135.23896911000003,174.9039 141.59276911,174.81822 148.18516911,174.6859 155.01076910999998,174.51317999999998 162.05826911,174.30644999999998 169.31206911,174.06783 176.75306911,173.79941 184.36016911000002,173.50409 192.11156911,173.18554 199.98676911,172.84801 207.96806911000002,172.49611 216.04116911,172.13285 224.19246911000002,171.75950999999998 232.40866911,171.37733 240.67686911,170.98761 248.98516911000002,170.59168999999997 257.32286910999994,170.19086 265.68066911,169.78641 274.05096911,169.37956 282.42786911,168.97145999999998 290.80736910999997,168.56318 299.18716910999996,168.15571 307.56716910999995,167.74991 315.94836910999993,167.34611999999998 324.33246911,166.94405999999998 332.72056911,166.54345 341.11396910999997,166.144 349.51336911,165.74544 357.91936911,165.3475 366.33236911,164.94994 374.75266911,164.55249999999998 383.17996910999994,164.15496 391.61406910999995,163.75709 400.05436911,163.35869 408.50016910999994,162.95954999999998 416.95036911,162.55964 425.40416911,162.15905999999998 433.86056911,161.75791999999998 442.31886911,161.35630999999998 450.77856911,160.95432 459.23886911,160.55205999999998 467.69956910999997,160.1496 476.16026910999994,159.74702 484.62066911,159.34439999999998 493.08076910999995,158.94180999999998 501.54036911,158.53932 509.99966910999996,158.13698 518.45876911,157.7348 526.91776911,157.33274999999998 535.3768691100001,156.93081999999998 543.83616911,156.52897 552.29566911,156.12718999999998 560.75556911,155.72546 569.21576911,155.32376 577.6765691100001,154.92207 586.1377691100001,154.52036999999999 594.59946911,154.11864 603.06166911,153.71687 611.5243691100001,153.31503999999998 619.9874691100001,152.91315 628.4509691100001,152.51121 636.91466911,152.10923 645.37826911,151.70723999999998 653.84156911,151.30522 662.3049691100001,150.90318 670.7685691099999,150.50112 679.23216911,150.09903 687.6954691100001,149.69696 696.1578691100001,149.29489999999998 704.6193691100001,148.89289 713.07966911,148.49093 721.5383691100001,148.08903999999998 729.99546911,147.68724 738.45066911,147.28554 746.90366911,146.88396 755.35436911,146.48251 763.80266911,146.08121 772.2484691100001,145.68005 780.6914691100001,145.27907 789.1317691099999,144.87825999999998 797.5691691100001,144.47763 806.00366911,144.077195 814.43506911,143.676955 822.86276911,143.27692299999998 831.28486911,142.877155 839.69896911,142.47775099999998 848.10146911,142.078855 856.4879691100001,141.68065199999998 864.8532691099999,141.283369 873.19116911,140.88726799999998 881.4951691100001,140.492648 889.75786911,140.09983499999998 897.97146911,139.70917799999998 906.12786911,139.321048 914.21706911,138.935938 922.21906911,138.554888 930.10106911,138.179545 937.82166911,137.811969 945.3355691099999,137.454378 952.60006911,137.108874 959.5791691100001,136.777191 966.2498691100001,136.460413 972.6044691100001,136.158874 978.64676911,135.872356 984.3884691100001,135.60027549999998 989.84566911,135.3418396 995.03686911,135.0961568 999.9807691100001,134.8623094 1004.08246911,134.6684" stroke="black" stroke-width="2.0" /></svg>