<?xml version="1.0" encoding="utf-8" ?>
<svg baseProfile="full" height="219.79324" version="1.1" width="1012.2775682" xmlns="http://www.w3.org/2000/svg" xmlns:ev="http://www.w3.org/2001/xml-events" xmlns:xlink="http://www.w3.org/1999/xlink"><defs /><polygon fill="none" points="1004.2775682,159.295 999.8997682,157.65072899999998 994.6659682,155.69672 989.2225682,153.67798 983.5577682,151.59177 977.6605682000001,149.43576 971.5210682000001,147.20828 965.1318682000001,144.90866999999997 958.4888682,142.53763999999998 951.5930682,140.09772999999998 944.4514682,137.59275 937.0772682,135.02684 929.4878682000001,132.40502999999998 921.7045682,129.73301999999998 913.7511682,127.01673 905.6524682,124.26182999999999 897.4317682000001,121.47362999999999 889.1108682,118.65981 880.7107682000001,115.82928999999999 872.2520682,112.99079999999998 863.7541682000001,110.15259999999998 855.2344682,107.32222999999999 846.7081682,104.50634 838.1875682000001,101.71055999999999 829.6821682000001,98.93946999999999 821.1983682,96.19658999999999 812.7398681999999,93.48441 804.3074682,90.80446999999998 795.8997682,88.15746999999999 787.5138682,85.54368999999998 779.1474682,82.96342999999999 770.7983682,80.41711 762.4646682,77.90519999999998 754.1445682,75.42827999999999 745.8368682,72.98694999999998 737.5400682000001,70.58191999999998 729.2533682,68.21394999999998 720.9758682,65.88382999999999 712.7070682000001,63.592399999999984 704.4464682,61.34059999999998 696.1938682000001,59.129299999999986 687.9493682000001,56.959199999999996 679.7129682000001,54.83079999999998 671.4846682000001,52.74469999999998 663.2641682,50.70139999999998 655.0511682,48.70129999999999 646.8455682,46.745099999999994 638.6468682000001,44.832999999999984 630.4545682,42.96559999999998 622.2682682000001,41.14319999999999 614.0871682,39.36629999999998 605.9106682,37.6353 597.7380681999999,35.95049999999998 589.5686681999999,34.311499999999995 581.4014682000001,32.71769999999998 573.2352682000001,31.168299999999988 565.0682682,29.662699999999973 556.8984682,28.19999999999999 548.7234682000001,26.779599999999988 540.5404682,25.400499999999994 532.3461682,24.062099999999987 524.1368682000001,22.763499999999993 515.9087681999999,21.504099999999994 507.6570682,20.282999999999987 499.3769682,19.099699999999984 491.0633682,17.95319999999998 482.71336820000005,16.842899999999986 474.32706820000004,15.768699999999995 465.9077682,14.730699999999985 457.4615682,13.729299999999995 448.9984682,12.765299999999996 440.5314682,11.83959999999999 432.0767682,10.952999999999975 423.6534682,10.106499999999983 415.28286820000005,9.301099999999991 406.98776820000006,8.537299999999988 398.7915682,7.815899999999971 390.7153682,7.142199999999974 382.7737682,6.523200000000003 374.9743682,5.964300000000009 367.31916820000004,5.4698999999999955 359.8056682,5.043099999999981 352.4280682,4.686499999999995 345.17806820000004,4.4021999999999935 338.0454682,4.191799999999972 331.01906820000005,4.057199999999995 324.0862682,4.0 317.23396820000005,4.022199999999998 310.44826820000003,4.125999999999976 303.71456820000003,4.314099999999968 297.0178682,4.588599999999985 290.34486820000006,4.948399999999992 283.6850682,5.391999999999996 277.0307682,5.918299999999988 270.3766682,6.5265999999999735 263.71996820000004,7.215899999999976 257.0601682,7.9853999999999985 250.3995682,8.8339 243.74266819999997,9.75970000000001 237.09666819999998,10.760500000000008 230.4710682,11.83359999999999 223.8778682,12.97509999999997 217.3307682,14.180699999999973 210.8452682,15.444699999999983 204.4376682,16.761200000000002 198.12476819999998,18.124599999999987 191.9221682,19.534400000000005 185.8417682,20.99139999999997 179.8916682,22.496199999999988 174.0765682,24.049299999999988 168.39856819999997,25.651100000000014 162.8574682,27.302099999999996 157.4515682,29.002599999999973 152.1778682,30.753199999999993 147.0330682,32.55340000000001 142.0147682,34.40189999999998 137.1193682,36.29769999999999 132.34326819999998,38.240099999999984 127.68226820000001,40.228599999999986 123.1322682,42.263099999999994 118.68906820000001,44.34379999999999 114.3481682,46.47079999999998 110.10556820000001,48.64499999999998 105.9571682,50.86709999999999 101.89863820000001,53.13769999999998 97.92361819999999,55.45139999999999 94.0277082,57.79549999999999 90.2116182,60.154899999999984 86.4800682,62.51259999999999 82.8405582,64.85009999999998 79.30194820000001,67.14908999999999 75.8747782,69.39533999999999 72.57297820000001,71.58905999999999 69.40532820000001,73.73541999999999 66.37488819999999,75.84058999999999 63.4807382,77.91108999999999 60.7193382,79.95338 58.0855982,81.97364999999998 55.573588199999996,83.97768999999998 53.1770582,85.97072999999999 50.88909819999999,87.95433999999999 48.7026982,89.92664999999998 46.611618199999995,91.88592999999999 44.6102882,93.8307 42.693708199999996,95.75973999999998 40.8573582,97.67199999999998 39.0971682,99.56659999999998 37.409388199999995,101.44282 35.7905982,103.30004 34.2376482,105.13773999999998 32.7476482,106.95550999999999 31.317888200000002,108.75300999999999 29.945888200000002,110.52996999999999 28.6292182,112.28621999999999 27.363728200000004,114.02255 26.1441082,115.74005 24.9659882,117.43887999999998 23.825768200000002,119.11851999999999 22.7204982,120.77785999999999 21.6476782,122.41547999999999 20.605208200000003,124.02972999999999 19.591278199999998,125.61891999999997 18.6043082,127.18141999999999 17.6428582,128.71578 16.7056582,130.22074999999998 15.792838199999998,131.69509 14.9082382,133.13733 14.055239199999999,134.54688 13.236101199999998,135.92394 12.4522382,137.26925 11.7044392,138.58395 10.9930422,139.86938999999998 10.3180722,141.12704 9.679339200000001,142.35843999999997 9.076517200000001,143.56511 8.5092012,144.74859999999998 7.976948200000001,145.91037 7.4793082,147.05184 7.0158462,148.17439 6.5861602,149.27933 6.1898932,150.36789 5.8267402,151.44126999999997 5.4964592,152.50061 5.1988733,153.54699 4.9338791,154.58147 4.7014484,155.60503999999997 4.5016343,156.61869 4.33457564,157.623362 4.2005023900000005,158.619984 4.0997419,159.609467 4.032726,160.592716 4.0,161.57063 4.0022326,162.544117 4.0402287,163.514095 4.1149444,164.481504 4.22750531,165.4473138 4.3791289,166.4125144 4.569952,167.37782299999998 4.7994013,168.34371 5.067043,169.31058099999998 5.3725852,170.278785 5.7158672,171.24861299999998 6.0968462,172.220294 6.5155861999999996,173.193995 6.9722552,174.16981399999997 7.4671092,175.14777199999997 8.0004852,176.12779999999998 8.572791200000001,177.10974 9.184490199999999,178.09329 9.8360892,179.07806 10.528114200000001,180.06343999999999 11.2610882,181.04869 12.0354972,182.03279999999998 12.8517502,183.01450999999997 13.7101242,183.99226 14.610698199999998,184.96409999999997 15.5532682,185.92768999999998 16.5372482,186.88017 17.5617182,187.81842999999998 18.6266582,188.7411 19.7325782,189.64795999999998 20.8798982,190.53894 22.068998200000003,191.41419 23.3001782,192.27403999999999 24.573708200000002,193.11908999999997 25.889848200000003,193.95019 27.248898200000003,194.7685 28.6512082,195.57550999999998 30.097268200000002,196.37297999999998 31.588048200000003,197.16124 33.124828199999996,197.93919999999997 34.709028200000006,198.70560999999998 36.3421082,199.45913 38.0256582,200.19831 39.7613882,200.92157999999998 41.5511482,201.62723999999997 43.39699819999999,202.31342 45.30118819999999,202.97807999999998 47.2662582,203.61897 49.2950982,204.23361999999997 51.391008199999995,204.81924999999998 53.5578382,205.37273 55.8001682,205.89079999999998 58.1238682,206.373 60.5357682,206.82103999999998 63.0432182,207.23713999999998 65.6540282,207.62415 68.3762782,207.98577 71.2179982,208.32684999999998 74.18652820000001,208.65371 77.2876782,208.97459999999998 80.5242582,209.29992 83.8961582,209.63477 87.40257820000001,209.97393 91.04209820000001,210.31009 94.8133882,210.63457 98.7164582,210.93726999999998 102.75438820000001,211.20668999999998 106.9354682,211.43023 111.27336820000001,211.60159 115.7839682,211.71971 120.48506820000001,211.78376999999998 125.3961682,211.79324 130.53856820000001,211.74805999999998 135.93466819999998,211.64903999999999 141.6072682,211.49830999999998 147.57696819999998,211.30008999999998 153.8590682,211.06162 160.4584682,210.79231 167.3691682,210.49568 174.57686819999998,210.17388999999997 182.05946819999997,209.83042 189.78906819999997,209.46997 197.7356682,209.09828 205.87226819999998,208.72178 214.1776682,208.34520999999998 222.6327682,207.96864 231.2169682,207.59132 239.9095682,207.21229 248.6901682,206.83040999999997 257.5399682,206.4443 266.4422682,206.05240999999998 275.38326820000003,205.65301 284.35276820000007,205.24417 293.34426820000004,204.82378999999997 302.35496820000003,204.38956 311.38636820000005,203.93928 320.4426682,203.47323999999998 329.5278682,202.99293 338.64526820000003,202.49991 347.7973682,201.99580999999998 356.9859682,201.48232 366.2121682,200.96121999999997 375.4761682,200.43442 384.7769682,199.90386999999998 394.11306820000004,199.37167 403.4815682,198.83999999999997 412.8787682,198.31081 422.30016820000003,197.78438999999997 431.74186820000006,197.26042999999999 441.1998682,196.73861 450.67106820000004,196.21856 460.15246820000004,195.69987999999998 469.6417682,195.18213999999998 479.1370682,194.66488999999999 488.6367682,194.14763 498.1399682,193.62984999999998 507.6462682,193.11101 517.1555682,192.59081999999998 526.6680682,192.06939999999997 536.1837682,191.54689 545.7027682,191.02345 555.2250682,190.49922999999998 564.7506682,189.97437 574.2794682,189.44904 583.8113682000001,188.92338999999998 593.3463681999999,188.39758999999998 602.8840682000001,187.87178999999998 612.4245682000001,187.34615 621.9672682,186.82068999999998 631.5120682,186.29538 641.0583682,185.77021 650.6056682,185.24516999999997 660.1533682,184.72025 669.7005682,184.19546 679.2465682000001,183.67078999999998 688.7903682000001,183.14625999999998 698.3309682,182.62187 707.8673682000001,182.09766 717.3981682,181.57366 726.9224682,181.04995 736.4393682,180.52658 745.9479682,180.00360999999998 755.4477682,179.48109 764.9381682000001,178.95905 774.4189682,178.43751999999998 783.8897682,177.91652 793.3506682,177.39607999999998 802.8016682,176.87617999999998 812.2430682,176.35684999999998 821.6737682,175.83810999999997 831.0904682,175.32017199999999 840.4869682,174.80335699999998 849.8544681999999,174.28814899999998 859.1818681999999,173.77515799999998 868.4558681999999,173.265112 877.6612682,172.758838 886.7817682,172.257231 895.8003682,171.76122999999998 904.6997682,171.27178199999997 913.4623682,170.789844 922.0663681999999,170.31662699999998 930.4830682,169.85370799999998 938.6805682,169.40284499999999 946.6274682,168.965759 954.2965681999999,168.54395599999998 961.6670682,168.13857399999998 968.7282682,167.750206 975.4797682000001,167.37887099999998 981.9288682,167.024171 988.0877682,166.68543549999998 993.9713682,166.36183649999998 999.5962682,166.0524702 1004.2775682,165.795" stroke="black" stroke-width="2.0" /></svg>