<?xml version="1.0" encoding="utf-8" ?>
<svg baseProfile="full" height="197.64306" version="1.1" width="1012.1691689" xmlns="http://www.w3.org/2000/svg" xmlns:ev="http://www.w3.org/2001/xml-events" xmlns:xlink="http://www.w3.org/1999/xlink"><defs /><polygon fill="none" points="1004.1691689,146.8595 1000.0632689,145.309256 995.1407689,143.459629 990.0051689000001,141.540282 984.6440689000001,139.547914 979.0461689,137.479767 973.2020689,135.33399 967.1059689000001,133.1101 960.7567689,130.80956 954.1606689,128.43644 947.3325689000001,125.99795999999999 940.2953689000001,123.50402 933.0760689,120.96591 925.7041689,118.3954 918.2084689000001,115.80373999999999 910.6143689,113.20075 902.9416689,110.59405000000001 895.2033689000001,107.98871 887.4088689,105.38856 879.5667689,102.79709 871.6850689,100.21746999999999 863.7709689000001,97.65247 855.8304689,95.10445999999999 847.8686689000001,92.57541 839.8893689,90.06683999999998 831.8950689000001,87.57982 823.8872689000001,85.11504 815.8658689000001,82.67274 807.8295689000001,80.2528 799.7758689000001,77.85468999999999 791.7012689,75.47739 783.6032689000001,73.11988 775.4804689000001,70.7815 767.3329689,68.46199 759.1620689,66.16147 750.9703689000002,63.88041 742.7620689,61.61964999999999 734.5429689,59.38034999999999 726.3198689000001,57.164 718.1012689,54.97238 709.8968689,52.80750999999999 701.7174689000001,50.67161999999999 693.5742689,48.56830000000001 685.4763689,46.50280000000001 677.4302689,44.4798 669.4400689,42.502999999999986 661.5074689,40.5753 653.6323689000001,38.698999999999984 645.8126689000001,36.876000000000005 638.0448689000001,35.10749999999999 630.3237689,33.3943 622.6431689,31.7372 614.9954689000001,30.136399999999995 607.3719689000001,28.59219999999999 599.7630689,27.1049 592.1588689,25.6725 584.5507689000001,24.292199999999994 576.9315689,22.961399999999998 569.2950689,21.678200000000004 561.6363689000001,20.440699999999993 553.9515689000001,19.247499999999988 546.2379689,18.097399999999993 538.4940689,16.989499999999992 530.7195689,15.922999999999973 522.9154689000001,14.897300000000001 515.0841689,13.911900000000003 507.22966890000004,12.966499999999996 499.3570689,12.060900000000004 491.4725689,11.196100000000001 483.5822689,10.374099999999999 475.6921689,9.596499999999992 467.8078689,8.865000000000009 459.9349689,8.180999999999983 452.0785689,7.545899999999989 444.24376889999996,6.960700000000003 436.43496889999994,6.426299999999998 428.6565689,5.9436999999999784 420.91246889999996,5.513499999999993 413.20616889999997,5.136099999999999 405.54086889999996,4.812000000000012 397.91946889999997,4.541499999999985 390.3444689,4.32480000000001 382.81696889999995,4.162199999999984 375.3367689,4.053899999999999 367.90256889999995,4.0 360.5118689,4.000699999999995 353.16126890000004,4.05619999999999 345.8462689,4.166799999999995 338.5616689,4.333100000000002 331.30126889999997,4.555700000000002 324.05816889999994,4.835400000000021 316.8244689,5.173399999999987 309.59136889999996,5.571300000000008 302.3489689,6.030799999999999 295.0865689,6.554000000000002 287.7960689,7.142399999999981 280.47316889999996,7.797699999999992 273.1182689,8.520899999999983 265.7366689,9.312900000000013 258.3385689,10.173399999999987 250.93956889999998,11.101400000000012 243.56026889999998,12.094600000000014 236.2258689,13.149100000000004 228.9645689,14.25970000000001 221.8066689,15.420000000000016 214.7824689,16.622199999999992 207.92016889999996,17.858100000000007 201.24476889999997,19.119199999999992 194.7754689,20.40249999999999 188.51726889999998,21.712399999999988 182.4604689,23.054999999999993 176.58636889999997,24.437600000000003 170.87106889999998,25.8686 165.2871689,27.3579 159.80496889999998,28.916799999999995 154.39236889999998,30.559399999999997 149.0135689,32.30029999999999 143.63306889999998,34.1438 138.2278689,36.0878 132.78946889999997,38.125699999999995 127.3261689,40.2436 121.8644689,42.4191 116.4484689,44.620999999999995 111.1354689,46.81179999999999 105.98696890000001,48.951980000000006 101.0584689,51.00788 96.3920289,52.97725999999999 91.99838890000001,54.88123999999999 87.86295890000001,56.743509999999986 83.9601689,58.58694 80.26132890000001,60.43281 76.7377389,62.300110000000004 73.3603489,64.19547999999999 70.1075189,66.11648 66.96636889999999,68.05801 63.93021890000001,70.01274 60.99665890000001,71.97153999999999 58.1656989,73.92431 55.4382789,75.86081 52.815958900000005,77.77113 50.3028689,79.64864999999999 47.9026689,81.49103 45.6153089,83.29795999999999 43.4381689,85.07051999999999 41.3671189,86.81061 39.3971589,88.52068 37.52300890000001,90.20338999999998 35.7393489,91.86152 34.0409989,93.49783 32.4231189,95.11504 30.8811389,96.71575999999999 29.410888899999996,98.30249 28.0080089,99.87764 26.6653389,101.44309999999999 25.376038899999998,102.99949999999998 24.1348089,104.54626999999999 22.937498899999998,106.08189999999999 21.7808189,107.60424 20.6621389,109.11071999999999 19.579268900000002,110.59853999999999 18.530378900000002,112.06491 17.5138089,113.50721 16.528098900000003,114.92309 15.5735389,116.31034 14.6541189,117.66698 13.772953900000001,118.99213 12.9318729,120.28591 12.1317639,121.54906 11.3728639,122.78272 10.6549629,123.98831 9.9775679,125.16735 9.340016899999998,126.32142999999999 8.7415539,127.45215999999999 8.1813949,128.56108 7.6587619,129.64971 7.1729149,130.71949 6.7231679,131.77183 6.3089029,132.80803 5.9295789,133.82935 5.5847379,134.837 5.2740119,135.83211 4.9971227,136.81579 4.7538875,137.789094 4.5442219,138.753033 4.3681438,139.70860199999998 4.22577745,140.656766 4.11735931,141.598479 4.043245,142.534682 4.003918,143.466319 4.0,144.39434 4.0322643,145.31971099999998 4.1016525,146.2434256 4.20928082,147.1665101 4.3556617,148.089785 4.5402472,149.013666 4.7625583,149.93848 5.0222774999999995,150.86449 5.3192349,151.791904 5.6533979,152.720865 6.024861899999999,153.651454 6.4338419,154.583678 6.8806659,155.51747 7.3657719,156.452671 7.8896939,157.38902 8.4530609,158.32614 9.056581900000001,159.26351 9.7010379,160.20046 10.3872639,161.13612 11.1161259,162.06938 11.8884939,162.99887 12.705200900000001,163.92291 13.566989900000001,164.83943 14.4744489,165.74590999999998 15.4279089,166.63933 16.4273589,167.51608 17.472408899999998,168.37216999999998 18.5632889,169.20558 19.7006089,170.01551999999998 20.8849589,170.80135 22.116858899999997,171.56267 23.396898899999997,172.29928 24.725698899999998,173.01125 26.104018899999996,173.69894 27.5328889,174.36306 29.013628899999997,175.00464 30.5482389,175.62503 32.1399189,176.22514999999999 33.7924689,176.80579 35.510078899999996,177.36789 37.297268900000006,177.91258 39.1589589,178.44119999999998 41.100388900000006,178.95541 43.12709890000001,179.45727 45.2447689,179.94933 47.459048900000006,180.43484 49.7750689,180.91782999999998 52.1968989,181.40337 54.7265789,181.89774 57.3645889,182.40525 60.1125789,182.92355 62.9718989,183.44861 65.9436689,183.97561 69.0293289,184.49889 72.23150890000001,185.01206 75.55523889999999,185.50802 79.0097289,185.97894 82.6103289,186.41771 86.3758089,186.82384 90.32633890000001,187.19909 94.4828889,187.54581000000002 98.86537890000001,187.86723999999998 103.48951890000001,188.16795 108.36156890000001,188.45304 113.4779689,188.72042 118.8277689,188.96457 124.3934689,189.17974 130.15246889999997,189.36021 136.0803689,189.50065999999998 142.1546689,189.59634 148.3600689,189.64306 154.6917689,189.63692 161.16006889999997,189.57497999999998 167.78276889999998,189.45745 174.5772689,189.28524 181.5595689,189.05947 188.74266889999998,188.78177 196.1344689,188.45461 203.7350689,188.08175 211.5338689,187.66773 219.5115689,187.21402999999998 227.6453689,186.72158 235.9104689,186.19191 244.2813689,185.62712 252.7328689,185.02969 261.24196889999996,184.40241 269.7884689,183.74819 278.35626890000003,183.06989 286.93346890000004,182.37022 295.51286889999994,181.65162 304.09226889999997,180.91617 312.67396890000003,180.16557 321.26276889999997,179.40138 329.8630689,178.62518 338.47866889999995,177.83859999999999 347.11306890000003,177.0433 355.76926890000004,176.24102 364.4495689,175.43357 373.1558689,174.62283 381.8895689,173.81079 390.6515689,172.99951 399.4418689,172.19116 408.26016889999994,171.38796 417.1051689,170.591 425.9751689,169.80009 434.8677689,169.01502 443.77996890000003,168.23559 452.70816890000003,167.46164 461.6482689,166.69307 470.5956689,165.92976 479.5451689,165.17168 488.4908689,164.4188 497.4265689,163.67111 506.3456689,162.92865 515.2412689,162.19222 524.1076689,161.46396 532.9406689,160.74602 541.7376689,160.04036 550.4974689000001,159.34878 559.2202689000001,158.67289 567.9076689000001,158.0142 576.5624689,157.37407 585.1884689000001,156.75376699999998 593.7907689,156.154469 602.3753689,155.577306 610.9494689,155.023189 619.5201689,154.491637 628.0935689,153.98165 636.6745689,153.49235199999998 645.2666689,153.022983 653.8721689,152.57287399999998 662.4920689,152.141439 671.1261689,151.728152 679.7729689,151.332543 688.4294689000001,150.954181 697.0913689000001,150.592663 705.7530689000001,150.247604 714.4077689000001,149.919018 723.0493689,149.607778 731.6730689,149.314785 740.2757689000001,149.040845 748.8557689,148.786681 757.4128689,148.552951 765.9483689,148.34026599999999 774.4647689,148.149208 782.9660689000001,147.98035 791.4572689000001,147.8342784 799.9449689,147.7116097 808.4369689,147.6129477 816.9413689,147.5373835 825.4644689,147.4825062 834.0092689,147.4458745 842.5758689,147.4250405 851.1609689000001,147.4175181 859.7578689000001,147.4207649 868.3566689,147.432178 876.9440689,147.4491064 885.5036689000001,147.4688783 894.0164689000001,147.4888446 902.4614689000001,147.5064343 910.8161689,147.5192649 919.0549689000001,147.5255084 927.1468689000001,147.5237354 935.0576689000001,147.5128215 942.7533689,147.4920028 950.2037689,147.4608995 957.3844689,147.4195176 964.2791689000001,147.3686453 970.8818689,147.3096696 977.1952689000001,147.2438915 983.2281689,147.1724631 988.9928689,147.0963806 994.5040689000001,147.01649079999999 999.7771689000001,146.9335058 1004.1691689,146.8595" stroke="black" stroke-width="2.0" /></svg>