<?xml version="1.0" encoding="utf-8" ?>
<svg baseProfile="full" height="113.06791" version="1.1" width="1012.00683386" xmlns="http://www.w3.org/2000/svg" xmlns:ev="http://www.w3.org/2001/xml-events" xmlns:xlink="http://www.w3.org/1999/xlink"><defs /><polygon fill="none" points="1004.00683386,82.62486 1000.76663386,81.8551319 996.93433386,80.948713 992.99503386,80.02145399999999 988.9432338600001,79.072422 984.77293386,78.100657 980.47823386,77.10518 976.0527338600001,76.085008 971.49003386,75.039166 966.78353386,73.966714 961.92683386,72.866773 956.9136338600001,71.73855999999999 951.7381338600001,70.58145999999999 946.39503386,69.39502999999999 940.88023386,68.17914 935.1910338600001,66.93402 929.32673386,65.66035 923.2890338600001,64.35938999999999 917.08283386,63.033069999999995 910.71673386,61.684079999999994 904.2033338599999,60.31594 897.55973386,58.933049999999994 890.80753386,57.54074 884.04593386,56.160070000000005 877.33953386,54.804289999999995 870.66713386,53.469049999999996 864.0101338600001,52.15069 857.35233386,50.846199999999996 850.68013386,49.55315 843.98173386,48.26958 837.2471338600001,46.99404 830.46853386,45.72549 823.65483386,44.46611 816.8765338600001,43.22912 810.14423386,42.01643 803.45523386,40.82741 796.8046338600001,39.66128 790.18683386,38.51766 783.5968338600001,37.39637 777.02963386,36.29729 770.48083386,35.2204 763.94613386,34.16576 757.4214338600001,33.13349 750.90283386,32.12379 744.38673386,31.136919999999996 737.86963386,30.173209999999997 731.3480338600001,29.233069999999998 724.8185338600001,28.31695 718.2781338600001,27.425379999999997 711.7236338600001,26.558969999999995 705.15183386,25.71837 698.5599338600001,24.904059999999994 691.94523386,24.114639999999994 685.3056338600001,23.348010000000002 678.6398338600001,22.6021 671.94663386,21.87489 665.2257338600001,21.16438 658.4772338600001,20.468609999999998 651.70203386,19.785600000000002 644.9016338600001,19.113410000000002 638.07833386,18.450109999999995 631.23503386,17.79377000000001 624.37543386,17.142489999999995 617.50413386,16.494389999999996 610.6262338600001,15.847650000000002 603.7479338600001,15.200469999999996 596.87563386,14.552039999999991 590.01533386,13.904849999999996 583.17213386,13.261959999999988 576.3499338600001,12.626320000000007 569.55173386,12.000720000000001 562.77953386,11.387789999999995 556.0343338600001,10.790009999999995 549.31633386,10.209710000000001 542.6248338600001,9.649090000000001 535.95843386,9.110230000000001 529.31493386,8.595120000000009 522.69153386,8.105670000000003 516.0844338600001,7.643739999999994 509.48973385999994,7.211169999999996 502.90223385999997,6.809790000000007 496.31673386,6.44059 489.72813386,6.102450000000005 483.1320338599999,5.7940599999999876 476.52483385999994,5.514200000000002 469.90343385999995,5.261740000000003 463.26553386,5.035629999999998 456.60943385999997,4.8348199999999935 449.93413386,4.658329999999992 443.23943385999996,4.505169999999993 436.52583386,4.374359999999996 429.79473385999995,4.26491 423.04813385999995,4.175779999999989 416.28923385999997,4.10593999999999 409.52173386,4.0542799999999914 402.75033385999996,4.019680000000008 395.98043385999995,4.001440000000002 389.21703385999996,4.0 382.46433385999995,4.015899999999988 375.72523386,4.049660000000003 369.00173386,4.101730000000003 362.29473385999995,4.172600000000003 355.60423385999997,4.2627099999999984 348.92943386,4.372540000000001 342.26833386,4.502589999999998 335.61813385999994,4.653369999999995 328.97543385999995,4.825489999999988 322.33553386,5.019599999999997 315.69313386,5.236460000000008 309.04183386,5.476929999999996 302.37433386,5.742020000000011 295.68223385999994,6.032600000000002 288.95813386,6.3490699999999975 282.1963338599999,6.691749999999999 275.39353385999993,7.060919999999996 268.54883385999995,7.456729999999993 261.66403385999996,7.879159999999999 254.74873386000002,8.327660000000009 247.84743386,8.799049999999994 240.96203386,9.292689999999993 234.07853386,9.809119999999993 227.18013385999998,10.3493 220.26613386,10.913059999999987 213.40043386000002,11.494659999999996 206.61123386,12.09075 199.92073386,12.698499999999996 193.34923386,13.319209999999998 186.90983386000002,13.957180000000008 180.60803386,14.616609999999994 174.44313386000002,15.301569999999998 168.40993386,16.015950000000004 162.49993386,16.76365 156.70243385999999,17.548569999999998 151.00513386,18.37478999999999 145.39463386,19.24664 139.85623386,20.1689 134.37473386000002,21.146900000000002 128.93353386,22.186799999999998 123.51463386,23.295790000000004 118.09823386,24.482549999999996 112.66173386,25.757669999999997 107.17883386,27.134459999999997 101.61731386,28.62979 95.94318386,30.25367 90.14967386,31.996229999999997 84.28307386,33.827639999999995 78.45198386,35.69384 72.80644386,37.53938 67.45874386,39.360209999999995 62.441143860000004,41.17274 57.73524386,42.99887 53.30111386,44.86181 49.096583859999996,46.77348 45.09483386,48.71776 41.28317386,50.6746 37.65709386,52.6243 34.21629386,54.54802 30.962093860000003,56.42846 27.89520386,58.251059999999995 25.01529386,60.01909 22.36429386,61.722899999999996 19.99960386,63.32375999999999 17.93181386,64.79674 16.12811386,66.14222 14.55142386,67.37105 13.17416086,68.49737 11.96480786,69.53903 10.89574786,70.51195 9.94534986,71.42875 9.096977859999999,72.29923 8.33780586,73.131113 7.6578798599999995,73.93051799999999 7.04941486,74.702387 6.50627686,75.450783 6.023625859999999,76.1791 5.59764386,76.890224 5.22534886,77.586653 4.90445846,78.270588 4.63329066,78.944001 4.41069716,79.60869699999999 4.23602166,80.266358 4.10907796,80.918585 4.03014796,81.566942 4.0,82.21298399999999 4.01989743,82.8583022 4.09015868,83.5043503 4.20949996,84.152278 4.37700366,84.803144 4.59223576,85.45796 4.85521626,86.11771 5.16640686,86.783369 5.5267168600000005,87.455915 5.93752486,88.13634 6.40071586,88.825662 6.91874386,89.52493 7.494704860000001,90.235223 8.13245086,90.957647 8.83672086,91.693306 9.61331986,92.44326099999999 10.46931886,93.20842999999999 11.41329286,93.98939 12.455515860000002,94.78603 13.607994860000002,95.59689 14.88393386,96.41781 16.295703860000003,97.23949999999999 17.851953860000002,98.04539 19.568183859999998,98.82193 21.462963860000002,99.55767 23.55125386,100.24203 25.84284386,100.86957 28.345823860000003,101.44621 31.07878386,101.99262 34.072363859999996,102.51593 37.35877386,103.01013999999999 40.96938386,103.46806 44.92966386,103.88184 49.25072386,104.24409 53.91813386,104.54978 58.88618386,104.79579 64.09675386,104.97077 69.48912385999999,105.06375 75.01850386,105.06791 80.67718386,104.97904 86.50185386,104.79986 92.54117386,104.54605 98.83518386,104.23832999999999 105.40493386,103.90447 112.23463386,103.57021 119.04783386000001,103.25138 125.70293386,102.95246 132.25203386,102.66883999999999 138.73713386,102.39683 145.19173386,102.13338999999999 151.64413386,101.87589 158.11803386,101.62197 164.63373385999998,101.36946 171.20833386,101.11626 177.85593386,100.86036 184.58693386,100.59977 191.40783386,100.33252999999999 198.31273386,100.05703 205.18473386,99.77617 211.98743385999998,99.49074999999999 218.73613386000002,99.20157 225.44443386,98.9097 232.12393386,98.61619 238.78473386000002,98.32211 245.43563386,98.02855 252.08413386,97.73665 258.73673386,97.44758 265.39903386,97.16257999999999 272.07553385999995,96.88297 278.76953386,96.61013 285.48383385999995,96.34550999999999 292.21963386,96.09066 298.97753385999994,95.8472 305.75673386,95.61679 312.55533385999996,95.40042 319.37123385999996,95.19761 326.20233386,95.00768 333.04663386,94.82995 339.90243386,94.66368 346.76803385999995,94.50814 353.64203385999997,94.36254 360.52303386,94.2261 367.40983385999994,94.09801999999999 374.3016338599999,93.97749 381.19753385999996,93.86367 388.09703385999995,93.75574999999999 394.99973385999994,93.65287 401.90533386,93.55418 408.81383385999993,93.45888 415.72533386,93.36654 422.64003385999996,93.277 429.55773386,93.19006999999999 436.47853385999997,93.10558 443.40233385999994,93.02336 450.32893385999995,92.94324 457.25803386,92.86502999999999 464.18933386,92.78858 471.12253386,92.71370999999999 478.05713385999996,92.64024 484.99253386,92.56799699999999 491.92843386,92.496816 498.86383385999994,92.426521 505.7983338599999,92.356944 512.7310338599999,92.288158 519.66123386,92.22070099999999 526.5881338600001,92.15516199999999 533.5111338600001,92.092126 540.42963386,92.032172 547.3430338600001,91.97588 554.2507338600001,91.923824 561.15233386,91.876571 568.0474338600001,91.834688 574.93543386,91.798732 581.8160338600001,91.76926 588.6890338600001,91.746821 595.5540338600001,91.731957 602.41083386,91.725209 609.2592338600001,91.726912 616.0989338600001,91.735768 622.92993386,91.749691 629.75213386,91.766605 636.56533386,91.784449 643.3695338599999,91.801178 650.16483386,91.81476599999999 656.95123386,91.82319799999999 663.72873386,91.824479 670.4976338600001,91.816627 677.2580338600001,91.797674 684.01003386,91.765666 690.75403386,91.718661 697.49013386,91.654727 704.21873386,91.571945 710.9401338600001,91.469101 717.65503386,91.347523 724.36433386,91.209095 731.06923386,91.055675 737.7715338600001,90.889093 744.4731338600001,90.711154 751.17643386,90.523638 757.88403386,90.328303 764.59923386,90.126892 771.32523386,89.921137 778.06613386,89.712767 784.82633386,89.503518 791.61043386,89.295139 798.42413386,89.089411 805.27313386,88.888155 812.16413386,88.692446 819.09053386,88.50184899999999 825.98273386,88.317287 832.82783386,88.138032 839.63003386,87.962935 846.3957338600001,87.790829 853.13333386,87.620538 859.85343386,87.450859 866.5686338600001,87.280556 873.29363386,87.108329 880.0460338600001,86.932791 886.8463338600001,86.752419 893.71873386,86.565508 900.61603386,86.37225 907.3915338600001,86.175937 914.0184338600001,85.977265 920.4803338600001,85.777175 926.7659338600001,85.576512 932.86833386,85.37600499999999 938.7847338600001,85.17626 944.51503386,84.977771 950.06183386,84.78093 955.4293338599999,84.586039 960.62313386,84.39332399999999 965.64963386,84.20295 970.5157338600001,84.01502599999999 975.22853386,83.829622 979.79523386,83.646773 984.22293386,83.4664892 988.51863386,83.2887582 992.68893386,83.11355379999999 996.7403338600001,82.9408373 1000.67883386,82.7705617 1004.00683386,82.62486" stroke="black" stroke-width="2.0" /></svg>