<?xml version="1.0" encoding="utf-8" ?>
<svg baseProfile="full" height="170.94667" version="1.1" width="1012.08241196" xmlns="http://www.w3.org/2000/svg" xmlns:ev="http://www.w3.org/2001/xml-events" xmlns:xlink="http://www.w3.org/1999/xlink"><defs /><polygon fill="none" points="1004.08241196,125.33030000000001 1000.09771196,124.38095740000001 995.34551196,123.22883800000001 990.41611196,122.01075700000001 985.30001196,120.721676 979.98811196,119.35638 974.47251196,117.909609 968.7470119599999,116.37626300000001 962.8081119599999,114.75169000000001 956.65601196,113.03205000000001 950.29611196,111.215 943.73891196,109.30310000000001 936.99811196,107.30452000000001 930.09091196,105.23013 923.0370119599999,103.09307000000001 915.8569119599999,100.90818000000002 908.5708119599999,98.69134000000001 901.19691196,96.45866000000001 893.75101196,94.22328000000002 886.24901196,91.99219000000001 878.70591196,89.77123 871.1354119599999,87.5657 863.5492119599999,85.38021 855.95731196,83.21868 848.3673119599999,81.08426 840.7846119599999,78.97937000000002 833.2124119599999,76.90573 825.65171196,74.86441 818.1011119599999,72.85585 810.55731196,70.87999 803.01521196,68.93626 795.46721196,67.02350000000001 787.90571196,65.13898 780.32381196,63.279680000000006 772.7157119599999,61.44293000000001 765.0768119599999,59.62637000000001 757.40351196,57.82796000000002 749.6934119599999,56.04594 741.9453119599999,54.27884000000002 734.1594119599999,52.52544 726.3372119599999,50.78482000000001 718.48161196,49.05633000000002 710.5974119599999,47.33958000000001 702.69061196,45.63448000000001 694.7691119599999,43.94138000000001 686.84111196,42.26254 678.9140119599999,40.6011 670.9948119599999,38.95993 663.08921196,37.341690000000014 655.20241196,35.74878000000001 647.3385119599999,34.18332000000001 639.50081196,32.6472 631.69191196,31.14209000000001 623.9135119599999,29.669410000000013 616.16661196,28.230390000000014 608.45121196,26.826070000000016 600.7671119599999,25.457350000000005 593.11311196,24.125000000000014 585.48811196,22.82980000000002 577.89071196,21.5728 570.31961196,20.354600000000005 562.7733119599999,19.17620000000001 555.25031196,18.038300000000007 547.7492119599999,16.94170000000001 540.26821196,15.88730000000001 532.8058119599999,14.875800000000012 525.36021196,13.908000000000001 517.9296119599999,12.984800000000007 510.51231196,12.10690000000001 503.10641196,11.275199999999998 495.70991196,10.490499999999997 488.32101196,9.753000000000014 480.93791196,9.062200000000004 473.55881196,8.417300000000012 466.18181196,7.817900000000009 458.80501196,7.263400000000004 451.42611196,6.753500000000017 444.04311196,6.287600000000012 436.65341195999997,5.8655000000000115 429.25481196,5.486800000000002 421.84451196000003,5.15130000000002 414.41991196000004,4.859000000000009 406.97791196000003,4.609500000000011 399.51561196,4.403100000000009 392.02961196,4.239500000000007 384.51671196,4.118200000000002 376.97471196000004,4.038600000000002 369.40251195999997,4.0 361.80051196,4.001700000000014 354.17011196,4.043000000000006 346.51441196,4.123200000000011 338.83781196,4.241400000000013 331.14631196000005,4.396400000000014 323.44721196,4.587199999999996 315.74961196,4.812400000000011 308.06381196,5.070300000000003 300.40121196,5.3592000000000155 292.77441196,5.677500000000009 285.19641196,6.0274 277.67881196,6.412300000000016 270.23151196000003,6.835800000000006 262.86211196,7.300899999999999 255.57691196000002,7.810300000000012 248.38031196,8.366400000000013 241.27521196,8.971400000000003 234.26331195999998,9.627200000000002 227.34541195999998,10.33550000000001 220.52111196,11.098000000000013 213.78921196,11.916000000000011 207.14801196000002,12.791000000000011 200.59521196,13.724100000000007 194.12821196,14.71650000000001 187.74471196,15.768500000000003 181.44261196,16.879900000000006 175.22021196,18.050300000000007 169.07581196,19.27970000000002 163.00771196,20.56780000000002 157.01461196,21.9144 151.09501196,23.3194 145.24781196,24.782600000000002 139.47431196000002,26.30376000000001 133.78081196,27.881420000000006 128.17841196,29.51225000000001 122.68171196,31.191100000000006 117.30731196,32.911190000000005 112.07281196,34.66438000000001 106.99441196000001,36.44161 102.08650196,38.23347000000001 97.36050196,40.031040000000004 92.82539196,41.831080000000014 88.48354196000001,43.63560000000001 84.33017196,45.44784 80.35624196,47.27172 76.55049196,49.111580000000004 72.90071196,50.97158 69.39474196,52.85215000000001 66.02406196000001,54.75053000000001 62.78375196,56.662530000000004 59.671041960000004,58.582930000000005 56.68439196,60.50588000000002 53.822681960000004,62.425210000000014 51.08471196,64.33483000000001 48.469371960000004,66.22871 45.97596196000001,68.10117 43.602051960000004,69.94805000000001 41.343701960000004,71.76663 39.19610196000001,73.55529000000001 37.15393196,75.31322 35.21171196,77.04024000000001 33.36397196,78.73659 31.60542196,80.40282000000002 29.930981960000004,82.03971000000001 28.335881960000002,83.64812 26.815601960000002,85.22907000000001 25.364581960000002,86.78454 23.976221960000004,88.31709000000001 22.64566196,89.82758000000001 21.369461960000002,91.31547 20.145001960000002,92.77932000000001 18.97019196,94.21724 17.84315196,95.62724 16.76202196,97.00745 15.72493196,98.35636000000001 14.73026196,99.67274 13.78032296,100.95493 12.878386959999998,102.20198 12.025872960000001,103.41433 11.22293796,104.59325000000001 10.46895696,105.74046000000001 9.762851959999999,106.85795000000002 9.10331396,107.94775000000001 8.48894296,109.01191000000001 7.918344960000001,110.05241000000001 7.39019096,111.07112000000001 6.90324396,112.06984000000001 6.45638896,113.05022000000001 6.04863896,114.01385 5.67913996,114.96221000000001 5.34717796,115.89666700000001 5.05217476,116.818548 4.79369196,117.729094 4.57143026,118.629491 4.38523106,119.52087800000001 4.23507926,120.404356 4.1211085,121.281 4.04360707,122.15186600000001 4.00302774,123.018005 4.0,123.88047 4.0353463,124.74033360000001 4.11009068,125.598691 4.22463726,126.45643700000001 4.37822766,127.31405500000001 4.5701934600000005,128.171929 4.80006486,129.03038300000003 5.06755306,129.889684 5.37253796,130.75003600000002 5.71505596,131.611589 6.09529796,132.474425 6.5135989599999995,133.338558 6.97043496,134.203923 7.4664249599999994,135.070366 8.00232396,135.93763 8.579020960000001,136.80533 9.197541959999999,137.67294 9.85903796,138.53975 10.56477896,139.40484 11.31614396,140.26704 12.11459396,141.12483 12.96163996,141.97631 13.858794959999999,142.81911000000002 14.80749196,143.65026 15.808971960000001,144.46607 16.86415196,145.262 17.97340196,146.03255000000001 19.13741196,146.774 20.35785196,147.48602 21.63638196,148.16887 22.974581960000002,148.82334 24.373971960000002,149.45081000000002 25.83598196,150.05339 27.36207196,150.63409000000001 28.953741960000002,151.19698 30.61266196,151.7474 32.34158196,152.28999000000002 34.14535196,152.82532 36.02953196,153.35340000000002 38.000151960000004,153.87432 40.06376196,154.38829 42.22737196,154.89566000000002 44.49838196,155.39698 46.88448196,155.89309 49.393371959999996,156.38515 52.03233196,156.87482 54.80763196,157.36435 57.72375196,157.85621 60.78489196,158.34872000000001 63.995211960000006,158.83719000000002 67.35845196000001,159.31602 70.87876196,159.77869 74.56196196,160.21789 78.41785196000001,160.62539 82.46363196,160.99215 86.72602196000001,161.31361 91.23648196,161.59215 96.02804196,161.83201000000003 101.13136195999999,162.03991000000002 106.56631196000001,162.22638 112.32981196,162.40112 118.39581196,162.56098 124.72111196,162.70013 131.25091196,162.81287 137.92731196,162.89412000000002 144.70051196,162.93979000000002 151.53731196,162.94667 158.42681195999998,162.91204000000002 165.37961196,162.83466 172.41161196000002,162.71505000000002 179.53601196,162.55372 186.76331196,162.35113 194.10031196,162.10779000000002 201.54911196,161.82447000000002 209.10611196,161.50234 216.76221196,161.14264 224.50631196,160.74651 232.32731196,160.31533000000002 240.21401196,159.85079000000002 248.15591196,159.35479 256.14311196000006,158.82943 264.16641196,158.27694000000002 272.21811196,157.69962 280.29181196,157.09984 288.38231196,156.47991000000002 296.48631196,155.84214 304.60191196,155.18873000000002 312.72881196,154.52173000000002 320.86791196,153.84282000000002 329.01941195999996,153.15363000000002 337.18361196,152.4558 345.36041196,151.75104000000002 353.54901196000003,151.04109 361.74861196,150.32776 369.95801196,149.61290000000002 378.17541196,148.89839 386.39891196,148.18617 394.62601195999997,147.47820000000002 402.85391196,146.7765 411.07951196,146.08302 419.29951196,145.39919 427.51111196,144.7261 435.71181196,144.06479000000002 443.89961196,143.41621 452.07331196,142.78129 460.23191196,142.16086 468.37501196,141.55575000000002 476.50251196,140.96671 484.61511196,140.39444 492.71361196,139.83964 500.79941196000004,139.30295 508.87431195999994,138.78498000000002 516.9402119599999,138.28585 524.99931196,137.80529 533.0536119599999,137.34300000000002 541.1051119599999,136.89872 549.1558119599999,136.47219 557.20781196,136.0632 565.26321196,135.67151 573.3239119599999,135.296944 581.3920119599999,134.93932 589.46971196,134.598476 597.5589119599999,134.274268 605.66191196,133.966567 613.78071196,133.674801 621.9172119599999,133.39722600000002 630.0725119599999,133.131912 638.2469119599999,132.876933 646.44011196,132.63036 654.65101196,132.39025600000002 662.87801196,132.154676 671.1182119599999,131.921671 679.36841196,131.68929000000003 687.62431196,131.45559000000003 695.8809119599999,131.218642 704.1324119599999,130.976548 712.37251196,130.728273 720.59481196,130.47632800000002 728.79391196,130.224133 736.96501196,129.975029 745.1043119599999,129.732263 753.2088119599999,129.498974 761.27621196,129.278188 769.3050119599999,129.072815 777.2943119599998,128.885654 785.24401196,128.71939300000003 793.1546119599999,128.576623 801.02701196,128.45984700000002 808.8628119599999,128.371222 816.66381196,128.30870800000002 824.4319119599999,128.26710000000003 832.16921196,128.24125400000003 839.8778119599999,128.226163 847.56001196,128.216937 855.21811196,128.208795 862.85451196,128.197044 870.47171196,128.17706700000002 878.07231196,128.144304 885.65891196,128.09423600000002 893.23441196,128.022367 900.8017119599999,127.92420600000001 908.3637119599999,127.79553700000001 915.9201119599999,127.63754100000001 923.45891196,127.45638600000001 930.9538119599999,127.25885500000001 938.36621196,127.05211500000001 945.64921196,126.843439 952.7521119599999,126.639757 959.6274119599999,126.446779 966.2383119599999,126.26634990000001 972.56401196,126.0984131 978.5979119599999,125.9425164 984.34341196,125.7979641 989.81091196,125.6639348 995.01481196,125.5395656 999.97121196,125.4240065 1004.08241196,125.33030000000001" stroke="black" stroke-width="2.0" /></svg>