<?xml version="1.0" encoding="utf-8" ?>
<svg baseProfile="full" height="157.67094" version="1.1" width="1012.493027" xmlns="http://www.w3.org/2000/svg" xmlns:ev="http://www.w3.org/2001/xml-events" xmlns:xlink="http://www.w3.org/1999/xlink"><defs /><polygon fill="none" points="1004.493027,126.8096 1000.8592269999999,125.658092 996.493427,124.286741 991.925727,122.866096 987.140927,121.39336300000001 982.123627,119.865971 976.8587269999999,118.281812 971.3329269999999,116.63958 965.536327,114.93924 959.464227,113.18260000000001 953.1200269999999,111.37399 946.518627,109.52007 939.684727,107.62783 932.650227,105.70483 925.450827,103.75869 918.122827,101.79618 910.698927,99.82242000000001 903.204927,97.84015 895.658127,95.85048 888.069527,93.85637 880.449327,91.86119 872.8067269999999,89.86812 865.150427,87.88003 857.487627,85.89953 849.824727,83.92889 842.166827,81.97004000000001 834.5177269999999,80.02457000000001 826.880127,78.09373 819.2554269999999,76.17846 811.6440269999999,74.27937 804.0449269999999,72.39678 796.456327,70.53078 788.8758270000001,68.68134 781.301427,66.84854000000001 773.7317270000001,65.03261 766.165627,63.23387 758.602527,61.45275000000001 751.042327,59.68981000000001 743.485327,57.94566999999999 735.932327,56.22108 728.384327,54.516850000000005 720.843127,52.83388000000001 713.3106270000001,51.17312 705.789227,49.53559 698.281627,47.92236000000001 690.7908269999999,46.33467 683.3189269999999,44.77368 675.867027,43.24034 668.435427,41.73537999999999 661.023427,40.259339999999995 653.6296269999999,38.812569999999994 646.251527,37.39527 638.886227,36.00753 631.529727,34.649330000000006 624.177427,33.32054000000001 616.823927,32.02099000000001 609.4629269999999,30.75043000000001 602.0874269999999,29.508579999999995 594.6893269999999,28.294780000000003 587.261327,27.107010000000002 579.797227,25.9431 572.292827,24.801400000000015 564.745327,23.680200000000013 557.154227,22.578199999999995 549.5208269999999,21.49459999999999 541.848527,20.4285 534.143427,19.379400000000004 526.413827,18.346900000000005 518.670527,17.331000000000003 510.926827,16.3318 503.198127,15.349400000000003 495.501727,14.384900000000002 487.85392699999994,13.442800000000005 480.26782699999995,12.5287 472.75222699999995,11.647599999999997 465.31262699999996,10.803600000000003 457.951127,10.000200000000007 450.667227,9.240100000000012 443.457927,8.525800000000004 436.318427,7.859399999999994 429.24202699999995,7.242699999999999 422.220627,6.6773000000000025 415.24492699999996,6.1648 408.30402699999996,5.706999999999994 401.38602699999996,5.305700000000002 394.477927,4.962000000000003 387.566927,4.674199999999999 380.641827,4.439700000000002 373.693227,4.256699999999995 366.71302699999995,4.123400000000004 359.694827,4.038300000000007 352.633627,4.0 345.526127,4.007199999999997 338.370927,4.058599999999998 331.168527,4.152800000000013 323.921827,4.288300000000007 316.635827,4.463300000000004 309.318527,4.6758000000000095 301.980327,4.9236000000000075 294.63422699999995,5.204800000000006 287.29452699999996,5.521000000000001 279.975127,5.875200000000007 272.688327,6.269900000000007 265.44562699999994,6.707300000000004 258.256827,7.1895000000000095 251.13042700000003,7.718100000000007 244.073327,8.294699999999992 237.091227,8.9204 230.188727,9.59620000000001 223.368827,10.323099999999997 216.633927,11.101600000000005 209.98522700000004,11.932400000000001 203.42322700000003,12.8159 196.94772700000001,13.752500000000012 190.558527,14.742999999999995 184.254927,15.788699999999992 178.03542700000003,16.890500000000003 171.897627,18.049800000000005 165.838927,19.267799999999994 159.856027,20.5458 153.94532700000002,21.885400000000004 148.103027,23.288300000000007 142.327227,24.7569 136.62152700000001,26.2928 130.99392699999999,27.896020000000007 125.45682699999999,29.564549999999997 120.025227,31.29455 114.716027,33.08030000000001 109.546127,34.914460000000005 104.53172699999999,36.7885 99.686677,38.69318 95.02094699999999,40.621060000000014 90.531997,42.57056 86.204757,44.54567 82.016717,46.55488 77.94079699999999,48.610870000000006 73.945097,50.72886000000001 69.997347,52.911820000000006 66.09091699999999,55.14416 62.24887699999999,57.392610000000005 58.516817,59.60994000000001 54.94850699999999,61.745000000000005 51.589107,63.75565 48.473206999999995,65.62779 45.613397,67.37861000000001 42.995017,69.03196 40.593697,70.61046 38.38419699999999,72.13356 36.343697,73.61746 34.45271700000001,75.07571999999999 32.694987000000005,76.51983000000001 31.057067000000004,77.95989 29.527947,79.40505999999999 28.098617,80.86399 26.758467000000003,82.34369000000001 25.490677,83.84613000000002 24.281067,85.37021 23.118647,86.91257 21.994937,88.46767 20.903377000000003,90.02817999999999 19.839057,91.58541 18.798437,93.12996000000001 17.779047,94.65245 16.779257,96.14420000000001 15.798197,97.59778 14.840696999999999,99.00744 13.916039,100.37012 13.030432,101.68535 12.187496,102.95431 11.389047,104.17916 10.635705999999999,105.36251 9.927332,106.5072 9.263325,107.61606 8.642828,108.69181 8.064861,109.73706 7.528415000000001,110.75422 7.032506,111.74552 6.576213,112.71303 6.1587,113.65866 5.779235,114.58417 5.4371938,115.49116000000001 5.1320683,116.38116000000001 4.8634697,117.255539 4.6311316,118.115616 4.43491254,118.962609 4.2748005000000004,119.797674 4.1509168,120.621905 4.0635229,121.43635400000001 4.013028,122.242033 4.0,123.03992600000001 4.0251783,123.83100300000001 4.0894919000000005,124.616226 4.1940797,125.396561 4.3403186,126.1729901 4.52985483,126.9465248 4.7638289,127.7180161 5.0417353,128.487824 5.3630277,129.25616100000002 5.7273760000000005,130.023157 6.134649,130.788855 6.584899,131.553204 7.078354,132.31605 7.615403000000001,133.077123 8.196589,133.836016 8.822599,134.592163 9.494253,135.344809 10.212484,136.092966 10.978318999999999,136.83537 11.792843999999999,137.57041 12.657155,138.29606 13.57229,139.00976 14.539127,139.70833 15.558227,140.38781 16.629637000000002,141.04325 17.752647,141.66864 18.927187,142.25922 20.155397,142.81382 21.439727,143.33196 22.782747,143.81355 24.187117,144.2591 25.655707,144.66982000000002 27.191687,145.04779000000002 28.798597,145.3962 30.480667,145.71958 32.243517,146.02156 34.094737,146.30217 36.043017,146.56127 38.098206999999995,146.79896 40.27143699999999,147.01585 42.575196999999996,147.21318 45.023297,147.39325 47.630687,147.5598 50.412786999999994,147.71875 53.384217,147.87906 56.556476999999994,148.05355 59.937386999999994,148.24939 63.532367,148.46283 67.34332699999999,148.68699 71.370227,148.91204 75.615157,149.125 80.089657,149.30948 84.82466699999999,149.44951 89.865877,149.54472 95.26082699999999,149.60111 101.04829699999999,149.62893 107.23642699999999,149.64501 113.77612699999999,149.66108 120.573527,149.67094 127.519327,149.66548 134.514727,149.63541 141.49142700000002,149.57208 148.42032700000001,149.46755000000002 155.31092700000002,149.3139 162.20642700000002,149.10501 169.161727,148.84393 176.22512700000001,148.53528 183.437327,148.18363 190.830827,147.79424 198.426227,147.37388 206.225927,146.93173000000002 214.207827,146.4771 222.236927,146.0191 230.169227,145.56629 238.03932700000001,145.11706 245.878927,144.66992 253.71402700000002,144.22372000000001 261.565727,143.77759 269.451327,143.33091000000002 277.383627,142.88328 285.371627,142.43459000000001 293.419127,141.98503 301.472527,141.53798 309.475927,141.09686 317.43982700000004,140.66138 325.37492699999996,140.23121 333.290127,139.80612 341.193527,139.38596 349.091527,138.97067 356.98972699999996,138.56025 364.89232699999997,138.15478000000002 372.802527,137.7544 380.72272699999996,137.35931 388.65382700000004,136.96978000000001 396.595827,136.586151 404.54742699999997,136.208794 412.50652699999995,135.838097 420.47022699999997,135.47425 428.43642700000004,135.117362 436.403027,134.767516 444.368727,134.424767 452.332427,134.089147 460.29362699999996,133.76066600000001 468.252327,133.439314 476.208827,133.125065 484.164027,132.817873 492.11902699999996,132.517683 500.07562699999994,132.224426 508.035927,131.938018 516.002427,131.65823 523.977127,131.384678 531.961527,131.116992 539.956227,130.854827 547.961527,130.597858 555.9766269999999,130.345779 564.000427,130.098299 572.0308269999999,129.855146 580.065327,129.616061 588.1005269999999,129.380798 596.1322270000001,129.14912600000002 604.155927,128.920824 612.166127,128.695938 620.157927,128.475663 628.1272270000001,128.261482 636.071327,128.054811 643.988227,127.857004 651.8774269999999,127.6693561 659.739227,127.4931074 667.5746270000001,127.3294537 675.3860269999999,127.1795551 683.176327,127.04454770000001 690.9494269999999,126.9255571 698.709927,126.82371275 706.463227,126.74015543 714.2156269999999,126.67501320000001 721.9728269999999,126.6264506 729.739827,126.5924486 737.520527,126.5710119 745.318127,126.5601511 753.135027,126.5578673 760.972327,126.5621406 768.8304269999999,126.5709217 776.708827,126.5821275 784.6058270000001,126.5936403 792.518727,126.6033106 800.443527,126.6089655 808.375527,126.6084891 816.309027,126.6014186 824.238727,126.58899480000001 832.1603269999999,126.5725438 840.070027,126.55339070000001 847.965227,126.5328516 855.843727,126.5122286 863.7044269999999,126.49280540000001 871.546927,126.4758463 879.3714269999999,126.4625965 887.1790269999999,126.4542838 894.971327,126.45212240000001 902.750927,126.4573183 910.520327,126.4708462 918.275527,126.4918463 925.9941269999999,126.5185204 933.635627,126.5489694 941.145327,126.5812464 948.461927,126.61347020000001 955.5255269999999,126.6439716 962.287427,126.6717043 968.719027,126.6966367 974.812327,126.71895761 980.573727,126.73889985000001 986.0191269999999,126.75670848 991.168627,126.77262054 996.044627,126.78685463000001 1000.669327,126.79960669500001 1004.493027,126.8096" stroke="black" stroke-width="2.0" /></svg>