<?xml version="1.0" encoding="utf-8" ?>
<svg baseProfile="full" height="151.02128" version="1.1" width="1012.1115884" xmlns="http://www.w3.org/2000/svg" xmlns:ev="http://www.w3.org/2001/xml-events" xmlns:xlink="http://www.w3.org/1999/xlink"><defs /><polygon fill="none" points="1004.1115884,95.39079 1000.5503883999999,94.5664671 996.2621883999999,93.58221999999999 991.7640884,92.559575 987.0391884,91.496162 982.0705884,90.38980099999999 976.8421883999999,89.23873999999999 971.3401884,88.041989 965.5552884,86.799775 959.4859883999999,85.514133 953.1415884,84.18955 946.5464883999999,82.83269999999999 939.7370884,81.45031999999999 932.7571883999999,80.04926999999999 925.6520883999999,78.63593999999999 918.4639884,77.21535 911.2272883999999,75.79051 903.9651884,74.36197 896.6882883999999,72.92866 889.4002884,71.49144999999999 882.1035883999999,70.05186 874.8008884,68.61142 867.4944883999999,67.17160999999999 860.1865884,65.73389 852.8792884,64.29969 845.5744884,62.87039999999999 838.2737884,61.44736999999999 830.9788884,60.0319 823.6909883999999,58.625249999999994 816.4114883999999,57.22864 809.1411883999999,55.843219999999995 801.8811883999999,54.470099999999995 794.6318883999999,53.110299999999995 787.3939884,51.76463 780.1676884,50.43384999999999 772.9530884,49.118669999999995 765.7497884,47.81972 758.5573884,46.537609999999994 751.3751884,45.272879999999994 744.2021884,44.026039999999995 737.0370884,42.79756 729.8786884,41.58786 722.7251884,40.39735999999999 715.5748884,39.22644 708.4255883999999,38.07545 701.2748884,36.94471999999999 694.1206884,35.83407 686.9606884,34.74267 679.7930884,33.669729999999994 672.6164883999999,32.61449 665.4294884,31.57629 658.2313884,30.554479999999998 651.0212884,29.548469999999995 643.7990884,28.557739999999995 636.5645884,27.58176999999999 629.3181883999999,26.620109999999997 622.0603884,25.672319999999985 614.7921884,24.73801999999999 607.5148883999999,23.81684 600.2300884,22.908479999999997 592.9394884,22.013169999999988 585.6448884,21.131619999999998 578.3481883999999,20.264539999999997 571.0509883999999,19.412629999999993 563.7551884,18.57656999999999 556.4624884,17.75703 549.1746884,16.95465 541.8934884,16.170059999999992 534.6205884,15.403859999999995 527.3575883999999,14.656629999999993 520.1062884,13.92891999999999 512.8681884,13.221259999999987 505.64498840000005,12.534149999999997 498.4380884,11.868109999999987 491.2488884,11.223969999999994 484.07838840000005,10.602620000000002 476.9270884,10.004899999999992 469.79488840000005,9.431599999999989 462.6812884,8.88346 455.5853884,8.361149999999995 448.50598840000004,7.865339999999989 441.4410884,7.396679999999989 434.38868840000004,6.955780000000004 427.3463884,6.543299999999988 420.3109884,6.159869999999984 413.2793884,5.806150000000002 406.2477884,5.482849999999985 399.21218840000006,5.190669999999997 392.16838839999997,4.929910000000007 385.1132884,4.7006899999999945 378.0450884,4.503190000000004 370.96298840000003,4.337679999999992 363.86738840000004,4.204449999999994 356.7600884,4.103819999999999 349.64408840000004,4.036060000000006 342.5236884,4.00139999999999 335.4043884,4.0 328.29308840000004,4.031909999999996 321.1977884,4.097009999999997 314.1272884,4.195049999999995 307.0917884,4.325559999999996 300.10158839999997,4.487989999999996 293.1670884,4.682929999999999 286.2961884,4.911919999999995 279.4931884,5.176379999999995 272.7594884,5.477670000000003 266.09408840000003,5.817099999999996 259.4934884,6.196060000000003 252.9525884,6.616010000000003 246.4643884,7.0785999999999945 240.0203884,7.585719999999995 233.61098839999997,8.139579999999995 227.2245884,8.742779999999996 220.8484884,9.398449999999997 214.4681884,10.110340000000008 208.06678839999998,10.883039999999994 201.6250884,11.722089999999994 195.1215884,12.630700000000004 188.53918839999997,13.607279999999989 181.8701884,14.648469999999989 175.1185884,15.748709999999988 168.30208839999997,16.89936999999999 161.45378839999998,18.088219999999993 154.62238839999998,19.29943 147.8681884,20.517389999999992 141.24898839999997,21.74136 134.80228839999998,22.976759999999985 128.5452884,24.23012999999999 122.4803884,25.508639999999986 116.59968839999999,26.819820000000007 110.8884884,28.171559999999985 105.3283884,29.57213 99.8987584,31.02923 94.5841184,32.54120999999999 89.3828684,34.09942999999999 84.3054684,35.69203999999999 79.37056840000001,37.30447 74.60106839999999,38.92299 70.0215184,40.543839999999996 65.6556084,42.16323 61.5217084,43.77495999999999 57.6299684,45.37210999999999 53.9818584,46.94823999999999 50.5732784,48.497989999999994 47.3981884,50.018049999999995 44.4425884,51.508689999999994 41.6883884,52.97229999999999 39.1169184,54.41224999999999 36.710628400000004,55.83219 34.453688400000004,57.23581999999999 32.3321284,58.62665 30.3338184,60.007999999999996 28.448128399999998,61.383039999999994 26.6623784,62.75595 24.9639784,64.12943999999999 23.346328399999997,65.50139999999999 21.8065884,66.86626999999999 20.3435684,68.2166 18.9562384,69.54464 17.642838400000002,70.84352 16.4006184,72.10793 15.2291684,73.33332999999999 14.1326284,74.51588 13.1114254,75.65512 12.1632084,76.75272999999999 11.2843614,77.81138999999999 10.4708604,78.83416 9.718720399999999,79.82412 9.0242104,80.78421 8.3839504,81.71719 7.7949364,82.62556 7.2545374,83.51162 6.7604744,84.37743999999999 6.3107944,85.22492 5.9038474,86.05578399999999 5.5382584,86.87160899999999 5.2129104,87.67385399999999 4.926926,88.46387299999999 4.6796548,89.24293 4.4706653,90.01221799999999 4.2997409,90.77287299999999 4.16687897,91.52599099999999 4.07229661,92.27263599999999 4.01643991,93.01386 4.0,93.750714 4.02393584,94.48426579999999 4.08950595,95.21561369999999 4.19809343,95.9458944 4.3496236,96.676148 4.5434352,97.407305 4.7791519000000005,98.140243 5.056669,98.8758 5.3761404,99.61478299999999 5.737974400000001,100.357975 6.1428274,101.10614 6.5916154,101.860028 7.0855154,102.620368 7.6259784,103.387873 8.214742399999999,104.16322199999999 8.853846399999998,104.947047 9.545639399999999,105.73991 10.2927834,106.54222999999999 11.098237399999999,107.35427999999999 11.965205399999999,108.17599 12.8970274,109.00688 13.8969614,109.84575 14.9677784,110.69036 16.1110984,111.53690999999999 17.3265284,112.37957 18.615708400000003,113.21395999999999 19.983278400000003,114.03829999999999 21.4337284,114.85122 22.9711984,115.65207 24.5995784,116.44134 26.322758399999998,117.22125 28.145318399999997,117.99636 30.0736584,118.77421 32.1158084,119.55914999999999 34.2798884,120.34973 36.5742884,121.14376 39.007728400000005,121.93848 41.5891984,122.73055 44.328058399999996,123.51595999999999 47.2342084,124.28998 50.3186684,125.04718 53.59447840000001,125.78134 57.0790384,126.48669 60.7975884,127.16496 64.7792584,127.8231 69.0531184,128.47188 73.6430584,129.12748 78.5578984,129.81315 83.7772884,130.55342 89.25209840000001,131.33986 94.9212284,132.14686 100.72841840000001,132.94603999999998 106.63868839999999,133.71029 112.6427884,134.42527 118.7390884,135.09019999999998 124.9261884,135.70533999999998 131.2033884,136.27122 137.5702884,136.78865 144.0275884,137.25871 150.5765884,137.68273 157.2198884,138.06233 163.9610884,138.40126999999998 170.80288839999997,138.70569999999998 177.7456884,138.98243 184.7868884,139.23886 191.92018839999997,139.48302 199.13538839999998,139.72357 206.4173884,139.96962 213.7473884,140.22587 221.1060884,140.48925 228.47598839999998,140.75594 235.84178839999998,141.02213999999998 243.19108839999998,141.28413999999998 250.5140884,141.53842 257.8038884,141.78164999999998 265.05618840000005,142.01069 272.2694884,142.22262 279.4444884,142.41468 286.5841884,142.58426 293.6935884,142.72883 300.7796884,142.8459 307.8513884,142.93305 314.9186884,142.99013 321.9908884,143.01895 329.0762884,143.02128 336.1818884,142.99878999999999 343.3139884,142.9531 350.47768840000003,142.88578 357.6770884,142.79841 364.9150884,142.69259 372.19348840000004,142.56999 379.51278840000003,142.43234999999999 386.8719884,142.28148 394.2686884,142.11933 401.69868840000004,141.94792999999999 409.1561884,141.76934 416.63438840000003,141.58427999999998 424.1266884,141.39264 431.6271884,141.19429 439.1305884,140.98909 446.6323884,140.77691 454.12888840000005,140.55761 461.6170884,140.33104 469.09498840000003,140.09704 476.5610884,139.85543 484.0148884,139.60603 491.45648840000007,139.3486 498.8866884,139.08292 506.30728840000006,138.80872 513.7203884,138.52581 521.1281884,138.23423 528.5326884,137.93399 535.9355883999999,137.62516 543.3383884,137.30775 550.7424884,136.98182 558.1487884,136.64740999999998 565.5580884,136.30458 572.9710883999999,135.95337999999998 580.3880883999999,135.59389 587.8091884,135.22619 595.2341884,134.85038 602.6628883999999,134.46654999999998 610.0946884,134.07479999999998 617.5286884,133.67509 624.9642884,133.2673 632.4004884,132.85130999999998 639.8364884,132.42703 647.2714884,131.99435 654.7044884,131.55318 662.1344883999999,131.10343 669.5606884,130.64502 676.9820884,130.17786999999998 684.3974883999999,129.7019 691.8060883999999,129.21706999999998 699.2067883999999,128.72331 706.5983884,128.22057 713.9799883999999,127.70861 721.3504884,127.18684999999999 728.7091883999999,126.65469999999999 736.0555884,126.11155 743.3893883999999,125.55681 750.7104883999999,124.98983 758.0189884,124.41001 765.3150884,123.8167 772.5993884000001,123.20924 779.8724884,122.58697 787.1353884,121.94919999999999 794.3890883999999,121.29522 801.6346884,120.62431 808.8738884,119.93575 816.1079884,119.22952 823.3385884,118.50604 830.5669883999999,117.76575 837.7941884,117.00909 845.0210883999999,116.23652 852.2484883999999,115.44848999999999 859.4767884,114.64549 866.7064884,113.82803 873.9375884,112.99662 881.1701884,112.15181 888.4040884,111.29415999999999 895.6387884,110.42425999999999 902.8736884,109.54274 910.1077884,108.65007 917.3341883999999,107.746 924.5332884,106.83136999999999 931.6727884,105.90887 938.7101883999999,104.98288199999999 945.5974884,104.059077 952.2864884,103.143807 958.7343884,102.24342299999999 964.9107883999999,101.363891 970.8008884,100.509542 976.4029884,99.682828 981.7245883999999,98.88474199999999 986.7786884,98.11524899999999 991.5811883999999,97.373632 996.1494884,96.658761 1000.5007883999999,95.9692804 1004.1115884,95.39079" stroke="black" stroke-width="2.0" /></svg>