<?xml version="1.0" encoding="utf-8" ?>
<svg baseProfile="full" height="180.71382" version="1.1" width="1012.540359" xmlns="http://www.w3.org/2000/svg" xmlns:ev="http://www.w3.org/2001/xml-events" xmlns:xlink="http://www.w3.org/1999/xlink"><defs /><polygon fill="none" points="1004.540359,137.1967 1000.684559,136.029869 996.051559,134.636267 991.2041589999999,133.188 986.126859,131.681784 980.8042589999999,130.114576 975.221959,128.483849 969.368159,126.78797999999999 963.235059,125.0268 956.822059,123.20219999999999 950.1378589999999,121.31889 943.202959,119.38389 936.045859,117.40543 928.699859,115.39251999999999 921.200159,113.35399 913.579359,111.29755 905.8640589999999,109.22886 898.071859,107.15093999999999 890.212459,105.06576 882.294059,102.97556999999999 874.324759,100.88263 866.312959,98.78913 858.266759,96.6972 850.1940589999999,94.60887 842.102459,92.52604 833.9992589999999,90.45045999999999 825.890859,88.38371 817.783659,86.32720999999998 809.683059,84.28218999999999 801.5940589999999,82.24969999999999 793.5206589999999,80.23088999999999 785.4660589999999,78.22765999999999 777.432659,76.24185 769.421659,74.27506 761.433759,72.32862999999999 753.468759,70.40370999999999 745.525759,68.50121 737.602859,66.62187999999999 729.697959,64.76629999999999 721.8078589999999,62.93486999999999 713.928959,61.12786999999999 706.056959,59.345470000000006 698.1867589999999,57.58770999999999 690.3133589999999,55.853849999999994 682.431959,54.14237999999999 674.5391589999999,52.45193999999999 666.6319589999999,50.781379999999984 658.7085589999999,49.12977999999998 650.7678589999999,47.49641 642.809659,45.88073 634.8348589999999,44.28238 626.845159,42.701179999999994 618.843259,41.13710999999999 610.832859,39.59031999999999 602.818659,38.06111 594.806259,36.54999999999998 586.8014589999999,35.05879999999999 578.809359,33.59 570.834459,32.1456 562.8803589999999,30.7277 554.949759,29.338099999999997 547.044959,27.978300000000004 539.1673589999999,26.649799999999985 531.3177589999999,25.35389999999998 523.4961589999999,24.091499999999996 515.7022589999999,22.863799999999998 507.93475900000004,21.671499999999995 500.192359,20.51549999999999 492.472959,19.396199999999993 484.77445900000004,18.313999999999993 477.095059,17.268899999999988 469.432859,16.260999999999996 461.786159,15.29049999999998 454.153259,14.357500000000002 446.53255900000005,13.462299999999999 438.92255900000004,12.605199999999996 431.321659,11.786399999999986 423.728559,11.006299999999982 416.141659,10.26509999999999 408.559759,9.563399999999987 400.981359,8.901499999999999 393.40525900000006,8.279799999999994 385.830459,7.698700000000002 378.256459,7.1584 370.68365900000003,6.659500000000008 363.113559,6.20229999999998 355.547959,5.787199999999984 347.98975900000005,5.414699999999982 340.442559,5.085199999999986 332.91075900000004,4.798999999999978 325.399159,4.5563999999999965 317.913559,4.357600000000019 310.46005900000006,4.202399999999983 303.045159,4.091000000000008 295.67595900000003,4.022899999999993 288.359959,4.0 281.105159,4.026299999999992 273.91885900000005,4.105400000000003 266.808259,4.240600000000001 259.779559,4.434699999999992 252.838559,4.689999999999998 245.990459,5.008499999999998 239.239759,5.391400000000004 232.590359,5.840000000000003 226.045259,6.35469999999998 219.607259,6.935899999999975 213.278259,7.583499999999987 207.05975899999999,8.297200000000004 200.952659,9.076300000000003 194.957659,9.920000000000002 189.07515899999999,10.828499999999977 183.304459,11.80279999999999 177.642359,12.843799999999987 172.084159,13.952799999999996 166.62385899999998,15.131499999999988 161.254659,16.381799999999984 155.969059,17.706199999999995 150.758859,19.10759999999999 145.615659,20.589399999999998 140.531659,22.15209999999999 135.501959,23.7949 130.525159,25.515699999999995 125.602859,27.311999999999998 120.739159,29.179900000000004 115.94085899999999,31.11439999999999 111.216259,33.10919999999999 106.57535899999999,35.157 102.02890899999998,37.24910999999999 97.58784899999999,39.37638 93.263029,41.530379999999994 89.06315899999998,43.7041 84.99404899999999,45.8913 81.058939,48.08655999999999 77.258909,50.28524 73.59329899999999,52.48355999999998 70.06059899999998,54.67913999999999 66.660099,56.869569999999996 63.391789,59.05144 60.255719,61.220759999999984 57.251529000000005,63.3733 54.37812900000001,65.50489 51.63360900000001,67.61166999999999 49.015729,69.68983999999999 46.523389,71.73505999999999 44.154089,73.74423999999999 41.903859000000004,75.71565999999999 39.767819,77.64866999999998 37.740609000000006,79.54334 35.816728999999995,81.40026999999999 33.99069899999999,83.22039 32.257209,85.00487999999999 30.611179,86.75502999999999 29.047839,88.47222 27.562679,90.15784 26.150638999999998,91.81380999999999 24.803708999999998,93.44360999999999 23.514899,95.04948999999999 22.278809,96.63219 21.091229,98.19134 19.948749,99.72592999999999 18.848499,101.23455999999999 17.787979,102.71575999999999 16.764929000000002,104.16816999999999 15.777249,105.59065999999999 14.823959,106.98203999999998 13.908722,108.34002 13.035021,109.66328999999999 12.204708,110.95178999999999 11.418519,112.20627999999999 10.676452,113.42801999999999 9.978036,114.61855999999999 9.322518,115.77958 8.708998,116.91281 8.136514,118.01993999999999 7.604106,119.10265999999999 7.110848,120.16252999999999 6.655883,121.20107999999999 6.2384319999999995,122.21972 5.857809,123.21981 5.5134246000000005,124.20258999999999 5.2047909,125.16927999999999 4.9315258,126.12098999999999 4.6933534,127.05878999999999 4.49010738,127.983685 4.321733,128.89664499999998 4.188291,129.798591 4.0899617,130.69041299999998 4.0270515,131.572972 4.0,132.44710999999998 4.00939,133.31365399999999 4.05596,134.17342399999998 4.140619,135.027241 4.2644666,135.875935 4.4288159,136.7203534 4.6351873900000005,137.5613648 4.8841836,138.399642 5.175235,139.23555199999998 5.5078908,140.069369 5.881883,140.901289 6.297111,141.731431 6.753634,142.559826 7.251654,143.386416 7.791515,144.211042 8.373691,145.03342899999998 8.998776,145.85316999999998 9.667479,146.6697 10.380602999999999,147.48227 11.139035,148.28992 11.943718,149.09141 12.795613000000001,149.88519 13.695655,150.66931 14.644679,151.44136 15.643329000000001,152.19835 16.691919,152.93662 17.790249000000003,153.65167 18.938049,154.33924 20.136819,154.99882 21.388538999999998,155.6311 22.695199,156.23726 24.058809,156.81904 25.481348999999998,157.37887999999998 26.964799,157.92005999999998 28.511148999999996,158.4469 30.122389,158.96492999999998 31.800698999999998,159.48049 33.549769,159.99568 35.374139,160.51021 37.27868900000001,161.02378 39.268609000000005,161.53603999999999 41.349379,162.04663 43.52678900000001,162.55519999999999 45.806869,163.06135999999998 48.195909,163.5648 50.700479,164.06526 53.327379,164.56258 56.083459000000005,165.05678 58.975989,165.54757999999998 62.013739,166.03332999999998 65.206379,166.51191 68.564399,166.98095 72.099479,167.43783 75.825019,167.87968999999998 79.757419,168.30348999999998 83.918699,168.70647 88.337809,169.08963 93.045639,169.45705999999998 98.067669,169.81467999999998 103.41610899999999,170.17099 109.07985899999998,170.53716 115.016359,170.91352999999998 121.16215899999999,171.28723 127.445259,171.64346 133.799059,171.96759 140.174059,172.24659 146.544459,172.46935 152.910259,172.62623 159.296659,172.70819999999998 165.748859,172.71382 172.313559,172.64864 179.03375899999998,172.51756999999998 185.949259,172.32518 193.094159,172.07661 200.492559,171.77855 208.150259,171.44044 216.047859,171.07065 224.150659,170.67098 232.417959,170.24317 240.80615899999998,169.78960999999998 249.27205899999998,169.31318 257.776359,168.81697 266.285859,168.30407 274.775059,167.77731 283.22745900000007,167.23916 291.63475900000003,166.69158 299.99715900000007,166.13599 308.321859,165.57327999999998 316.62215900000007,165.00356 324.91165900000004,164.42633999999998 333.201259,163.8412 341.49975900000004,163.24783 349.813759,162.64606999999998 358.14765900000003,162.0359 366.503659,161.41744 374.881459,160.791 383.27845900000005,160.15708 391.68955900000003,159.51636 400.107059,158.86978 408.52075900000006,158.21847 416.918859,157.56467999999998 425.290959,156.91192999999998 433.62905900000004,156.26354999999998 441.928059,155.62263 450.18495900000005,154.99197999999998 458.39955900000007,154.37413999999998 466.57325900000006,153.77142 474.70985900000005,153.1859 482.81475900000004,152.61952 490.895359,152.07405 498.960659,151.5512 507.02125900000004,151.05262 515.089459,150.5786 523.176659,150.12675 531.292659,149.69456 539.445259,149.27965 547.640759,148.87974 555.883359,148.49263 564.175459,148.11617999999999 572.5171589999999,147.74824999999998 580.9060589999999,147.38675 589.3372589999999,147.029604 597.803059,146.67475199999998 606.293059,146.320198 614.794059,145.96505399999998 623.293259,145.611054 631.7800589999999,145.260249 640.2457589999999,144.914567 648.684159,144.575808 657.091159,144.245637 665.464859,143.925592 673.805259,143.617089 682.114559,143.32144599999998 690.396259,143.039895 698.6560589999999,142.77361 706.9010589999999,142.523721 715.1397589999999,142.290279 723.379959,142.071359 731.628259,141.864894 739.8896589999999,141.668883 748.167759,141.481363 756.464559,141.300399 764.780759,141.124065 773.115359,140.950445 781.4657589999999,140.777627 789.827659,140.603712 798.195159,140.42682 806.560759,140.24512 814.915359,140.058328 823.2498589999999,139.869284 831.555659,139.681176 839.824759,139.49711399999998 848.0497589999999,139.320104 856.2239589999999,139.153023 864.341559,138.998604 872.397259,138.859418 880.386459,138.737867 888.3054589999999,138.636179 896.1510589999999,138.55640599999998 903.920659,138.500427 911.6117589999999,138.46851999999998 919.2171589999999,138.453545 926.719859,138.446409 934.094759,138.438658 941.311959,138.422699 948.3395589999999,138.392067 955.147859,138.34165199999998 961.7121589999999,138.269004 968.016859,138.176286 974.056559,138.0663799 979.833759,137.94194249999998 985.3561589999999,137.8053411 990.634959,137.6586347 995.683259,137.5035839 1000.514959,137.34167789999998 1004.540359,137.1967" stroke="black" stroke-width="2.0" /></svg>