<?xml version="1.0" encoding="utf-8" ?>
<svg baseProfile="full" height="187.55856" version="1.1" width="1012.7875987" xmlns="http://www.w3.org/2000/svg" xmlns:ev="http://www.w3.org/2001/xml-events" xmlns:xlink="http://www.w3.org/1999/xlink"><defs /><polygon fill="none" points="1004.7875987,138.5891 1000.6594987,137.349098 995.6977986999999,135.863526 990.5051986999999,134.31438500000002 985.0649986999999,132.697561 979.3612987,131.00917800000002 973.3796987,129.24593 967.1087987,127.40555 960.5425987,125.48745 953.6834987,123.49352 946.5448987,121.42873 939.1511986999999,119.30054 931.5344987000001,117.11828 923.7322986999999,114.89244 915.7837987,112.63367 907.7259987,110.35174 899.5896987,108.05455 891.3986987,105.74923000000001 883.1724987,103.44344000000001 874.9283987,101.14421 866.6807987,98.85768999999999 858.4408986999999,96.58909 850.2167987,94.34261000000001 842.0128986999999,92.12143 833.8307987,89.92783 825.6687986999999,87.76319000000001 817.5222987,85.62812 809.3838987,83.52248 801.2431987,81.44552 793.0875987,79.39511 784.9048987,77.36662 776.6846987,75.35551 768.4188987,73.35781 760.1011987,71.37008 751.7275987,69.3894 743.2964987,67.41333999999999 734.8088987,65.44003000000001 726.2687987,63.468180000000004 717.6830987,61.49708000000001 709.0621987,59.52669999999999 700.4197987,57.55767 691.7725986999999,55.59222000000001 683.1366987,53.63604000000001 674.5257987,51.69498 665.9508987,49.77422 657.4204986999999,47.87818 648.9402987,46.01060000000001 640.5139987,44.174530000000004 632.1425987,42.372420000000005 623.8253986999999,40.60612999999999 615.5598987000001,38.87711 607.3416986999999,37.1863 599.1651986999999,35.53450000000001 591.0232987,33.92179999999999 582.9096986999999,32.34740000000001 574.8185986999999,30.81070000000001 566.7454987,29.311399999999992 558.6867987,27.8493 550.6396986999999,26.42439999999999 542.6021987,25.036999999999992 534.5731986999999,23.6875 526.5521987,22.3763 518.5397987,21.10419999999999 510.53689869999994,19.871800000000007 502.54559869999997,18.680099999999996 494.5682987,17.529899999999998 486.6079987,16.422200000000004 478.6674987,15.358100000000007 470.7484987,14.3386 462.8521987,13.364400000000003 454.97919870000004,12.43610000000001 447.1290987,11.554299999999998 439.3011987,10.719499999999996 431.4940987,9.932200000000023 423.7057987,9.192700000000002 415.9336987,8.50139999999999 408.17469869999996,7.858699999999999 400.4252987,7.265000000000015 392.6812987,6.720699999999994 384.93869870000003,6.225900000000024 377.1946987,5.780400000000014 369.4478987,5.384100000000018 361.6982987,5.037300000000016 353.9475987,4.740000000000009 346.1987987,4.492399999999975 338.45639869999997,4.294700000000006 330.7261987,4.146800000000013 323.0153987,4.048699999999997 315.3324987,4.0 307.6868987,4.0002999999999815 300.08889869999996,4.0488 292.5496987,4.144800000000004 285.0804987,4.290699999999987 277.6915987,4.490100000000012 270.39119869999996,4.745800000000003 263.1857987,5.060599999999994 256.0801987,5.436399999999992 249.0775987,5.875200000000007 242.1801987,6.378300000000024 235.3889987,6.946900000000028 228.7038987,7.581700000000012 222.1241987,8.28370000000001 215.64849869999998,9.053200000000004 209.27509869999997,9.89070000000001 203.00149869999998,10.796700000000001 196.8251987,11.771299999999997 190.7436987,12.814599999999984 184.7550987,13.925799999999995 178.85719869999997,15.104299999999995 173.0472987,16.349599999999995 167.3230987,17.661199999999994 161.6814987,19.039 156.1198987,20.482799999999997 150.6352987,21.9927 145.2247987,23.5689 139.88669869999998,25.21010000000001 134.6224987,26.913899999999998 129.4371987,28.676299999999998 124.3384987,30.492400000000004 119.33589870000002,32.35560000000001 114.4404987,34.25850000000001 109.6633987,36.193 105.0155987,38.150000000000006 100.5068487,40.1207 96.1454887,42.09658999999999 91.9385587,44.07306000000001 87.8888287,46.04784000000001 83.9950987,48.01979 80.2534087,49.988659999999996 76.65804870000001,51.954840000000004 73.2022187,53.91911 69.87812869999999,55.88113 66.6795787,57.838930000000005 63.602418699999994,59.78952000000001 60.6437187,61.72932 57.8011887,63.654399999999995 55.0726387,65.56083 52.4558087,67.44481999999999 49.948208699999995,69.30294 47.5490287,71.13227 45.257778699999996,72.93090000000001 43.0723687,74.69798 40.9896087,76.43341000000001 39.00563869999999,78.13765000000001 37.11622869999999,79.81151 35.3170387,81.45606000000001 33.6037187,83.0725 31.9720287,84.66212 30.4179287,86.22622 28.9375387,87.76612 27.527258699999997,89.28309 26.1831687,90.77871 24.8991887,92.25613 23.6694487,93.71813 22.4891387,95.16648 21.354288699999998,96.60219000000001 20.2615287,98.02564000000001 19.207948700000003,99.43683 18.191008699999998,100.83538999999999 17.2084087,102.2208 16.2581087,103.59239 15.3382287,104.94949 14.4490127,106.29031 13.5935297,107.61191 12.7740527,108.91222 11.9919677,110.19003000000001 11.2480147,111.44479 10.5424647,112.6764 9.8752647,113.88511 9.2461477,115.07138 8.654712700000001,116.23585 8.1004827,117.37925 7.5829487,118.50238 7.1016037,119.60606 6.6559647,120.69113 6.2455867000000005,121.75842 5.8700817,122.80877000000001 5.5291212000000005,123.84298 5.2224492,124.86184 4.949884,125.86612 4.71132554,126.85655 4.5067594,127.83386 4.3362621,128.79874 4.2000066,129.751874 4.0982681,130.693922 4.0314315,131.625531 4.0,132.547337 4.004605,133.459965 4.0460191000000005,134.36404 4.1251705,135.260184 4.2431619000000005,136.149024 4.4012929000000005,137.031197 4.6010878,137.9073572 4.8443245600000004,138.7781824 5.1321921,139.644453 5.4642595,140.507084 5.8400476999999995,141.366936 6.2592417000000005,142.224805 6.721677700000001,143.081418 7.2273167,143.937445 7.776233700000001,144.793493 8.3685927,145.650106 9.0046277,146.507755 9.684612699999999,147.366835 10.408832700000001,148.227642 11.1775387,149.09036 11.9908917,149.95504 12.848891700000001,150.82153 13.7512907,151.68949 14.6974687,152.55829 15.6862887,153.42695 16.7159187,154.29409 17.783588700000003,155.15781 18.885708700000002,156.01562 20.0210787,156.86484000000002 21.1904187,157.70275 22.3945787,158.52665 23.6346087,159.33386000000002 24.9118287,160.12177 26.2279487,160.88789 27.5852387,161.62986 28.9866387,162.34547 30.4360687,163.03267 31.938548700000002,163.68965 33.4987287,164.31661 35.120618699999994,164.91523 36.808658699999995,165.48739 38.5677387,166.03515 40.4032287,166.56085000000002 42.3209787,167.06725 44.327258699999994,167.55765 46.428618699999994,168.0361 48.63162869999999,168.50762 50.9423787,168.9785 53.365628699999995,169.45668 55.90349869999999,169.95206000000002 58.55427869999999,170.47521 61.317168699999996,171.027 64.1918987,171.60282 67.1774387,172.19647 70.2726887,172.8003 73.4776887,173.40531 76.7951687,174.00136 80.2326687,174.57733000000002 83.8052687,175.12162 87.5332887,175.63022 91.4380287,176.10523 95.5419487,176.54919999999998 99.86716870000001,176.96524 104.4324287,177.35739999999998 109.2474987,177.73084 114.3097987,178.08567 119.60889870000001,178.41598 125.1260987,178.7153 130.8366987,178.97733 136.7122987,179.19630999999998 142.7249987,179.3674 148.8519987,179.48674 155.07979869999997,179.55128000000002 161.4074987,179.55856 167.8444987,179.50744 174.40109869999998,179.39735 181.0871987,179.22762 187.9109987,178.99752 194.8790987,178.70641 201.9952987,178.3539 209.25969869999997,177.94003 216.6684987,177.46515 224.21609869999997,176.9298 231.8955987,176.33504 239.69919869999998,175.68252999999999 247.6179987,174.97453000000002 255.64209869999996,174.21392 263.7610987,173.40415000000002 271.9643987,172.54921000000002 280.24079869999997,171.65355 288.5796987,170.72204 296.9704987,169.75987 305.40339869999997,168.77244000000002 313.86959870000004,167.76513 322.3608987,166.74241 330.86969869999996,165.70846 339.3892987,164.66746 347.91359869999997,163.62354 356.4369987,162.58078 364.95509869999995,161.54313 373.4640987,160.51445 381.9610987,159.49843 390.4439987,158.49862000000002 398.91149870000004,157.51843 407.36319869999994,156.56113 415.79929869999995,155.62906 424.21999869999996,154.72271 432.6264987,153.84232 441.01999870000003,152.98805000000002 449.4025987,152.16003 457.7764987,151.35837 466.1447987,150.58316 474.5106987,149.83449 482.87829869999996,149.11244 491.2516987,148.417087 499.6360987,147.748555 508.03679869999996,147.106961 516.4596987,146.491788 524.9099987,145.901565 533.3915986999999,145.334857 541.9067987,144.79033 550.4569987,144.266732 559.0415987,143.762878 567.6587987,143.277631 576.3050987,142.809897 584.9749987,142.358607 593.6614986999999,141.922715 602.3556987000001,141.501191 611.0471987,141.093203 619.7250987,140.699804 628.3805987,140.323006 637.0069986999999,139.964651 645.6002987,139.626403 654.1584987,139.3097727 662.6816987,139.0161425 671.1720987,138.746796 679.6336987,138.50295226 688.0721987000001,138.2858017 696.4952987,138.0965443 704.9120987,137.9364311 713.3336986999999,137.8059841 721.7707987,137.7027396 730.2327987,137.6236149 738.7271987,137.56559000000001 747.2597987,137.525658 755.8343987,137.500778 764.4532987,137.487847 773.1160987,137.48367 781.8206987,137.484951 790.5621987,137.488287 799.3332987,137.490186 808.1239986999999,137.487142 816.9221987000001,137.478 825.7157986999999,137.464818 834.4929987,137.449898 843.2432987,137.435525 851.9568987,137.423936 860.6250987,137.417303 869.2401987,137.417708 877.7958987,137.427134 886.2864986999999,137.44745 894.7075987000001,137.480411 903.0555986999999,137.527652 911.3275987,137.5902504 919.5149987,137.6658852 927.5954987,137.7507098 935.5345987,137.840872 943.2905986999999,137.9326394 950.8199987,138.0225805 958.0825987,138.10779060000002 965.0481987000001,138.18693580000001 971.7011987000001,138.2601192 978.0395986999999,138.3276521 984.0708986999999,138.3899285 989.8085987000001,138.4473768 995.2692987,138.50042611 1000.4713987,138.54948705 1004.7875987,138.5891" stroke="black" stroke-width="2.0" /></svg>