<?xml version="1.0" encoding="utf-8" ?>
<svg baseProfile="full" height="122.77363" version="1.1" width="1012.05763477" xmlns="http://www.w3.org/2000/svg" xmlns:ev="http://www.w3.org/2001/xml-events" xmlns:xlink="http://www.w3.org/1999/xlink"><defs /><polygon fill="none" points="1004.05763477,82.65137 1001.2636347700001,82.034244 997.88373477,81.28954 994.31723477,80.505843 990.54363477,79.679045 986.54043477,78.80463 982.2831347700001,77.87776 977.7464347700001,76.893495 972.9057347700001,75.847211 967.74113477,74.735366 962.24253477,73.5567 956.4184347700001,72.31393 950.31643477,71.01813 944.25163477,69.73678 938.30313477,68.48665 932.4014347700002,67.25318 926.49443477,66.02567 920.5421347700001,64.79624 914.5149347700001,63.559309999999996 908.3940347700001,62.31172 902.2124347700001,61.0608 896.0991347700001,59.83296 890.0498347700001,58.627300000000005 884.0479347700001,57.44046 878.0791347700001,56.26963 872.1312347700001,55.11249 866.19353477,53.9671 860.25693477,52.83186 854.3134347700001,51.705459999999995 848.3560347700001,50.58686 842.37923477,49.47529 836.3781347700001,48.370189999999994 830.34943477,47.27127 824.2905347700001,46.17845 818.20033477,45.091919999999995 812.0789347700002,44.01211 805.9280347700001,42.9397 799.75063477,41.87562 793.55113477,40.820989999999995 787.3341347700001,39.77694 781.10393477,38.744499999999995 774.8644347700001,37.724619999999994 768.61933477,36.718120000000006 762.37153477,35.72576 756.12393477,34.74819 749.87873477,33.78597 743.6377347700001,32.83956 737.40213477,31.909330000000004 731.1730347700001,30.99559 724.95083477,30.098570000000002 718.7355347700001,29.21841 712.5266347700001,28.355219999999996 706.32353477,27.509049999999995 700.12483477,26.679879999999997 693.92903477,25.86752 687.7346347700001,25.07145 681.54013477,24.291160000000005 675.34443477,23.526179999999997 669.1463347700001,22.776069999999997 662.94513477,22.040420000000005 656.7400347700001,21.31882999999999 650.5303347700001,20.61095999999999 644.3157347700001,19.916459999999987 638.09583477,19.23500999999999 631.87073477,18.56631999999999 625.6403347700001,17.9101 619.40483477,17.26610000000001 613.16483477,16.634049999999988 606.9206347700001,16.013729999999995 600.6730347700001,15.404899999999998 594.4230347700001,14.807500000000005 588.17133477,14.221949999999993 581.91883477,13.648740000000004 575.66603477,13.08833 569.4135347700001,12.541209999999992 563.16203477,12.007810000000006 556.9117347700001,11.488579999999999 550.66313477,10.98393 544.41633477,10.494290000000007 538.1715347700001,10.020059999999987 531.92883477,9.561629999999994 525.6882347700001,9.119399999999999 519.44963477,8.693749999999994 513.21273477,8.285049999999998 506.97743477,7.89367 500.74323477,7.519990000000007 494.50983477,7.164320000000004 488.27673477,6.826809999999995 482.04373477,6.50757999999999 475.81053476999995,6.206760000000003 469.57693477000004,5.924459999999996 463.34273477,5.660839999999993 457.10783477,5.416020000000003 450.87233477,5.190150000000003 444.63623477,4.983380000000011 438.39963477,4.7958500000000015 432.16273477,4.6277100000000075 425.92563477,4.479119999999995 419.68873477,4.350219999999993 413.45233477,4.241160000000008 407.21683477,4.152079999999998 400.98273477,4.083109999999991 394.75053477,4.034459999999996 388.52083477,4.00658 382.29403476999994,4.0 376.07063476999997,4.015249999999995 369.85083477,4.052849999999992 363.63503477,4.113299999999995 357.42323477,4.197109999999995 351.21553477000003,4.3048 345.01203476999996,4.436880000000002 338.81253477,4.593850000000003 332.61683476999997,4.776229999999998 326.42493477,4.984529999999992 320.23623476999995,5.219300000000004 314.05053477,5.481049999999996 307.86723477,5.770350000000008 301.68593477,6.08775 295.50583477,6.43383 289.32663477,6.80913000000001 283.14793477,7.214179999999999 276.96983477,7.649529999999999 270.79233476999997,8.115679999999998 264.61583477,8.613160000000008 258.44093477,9.14245000000001 252.26833477,9.704000000000008 246.09903476999997,10.29825000000001 239.93423477,10.925600000000003 233.77523477,11.586380000000005 227.62373476999997,12.280910000000006 221.48133477,13.009420000000006 215.35013476999998,13.772109999999998 209.23213477000002,14.56908 203.12973477,15.400390000000002 197.04533477,16.26612 190.98153477,17.167659999999998 184.94053477,18.107209999999995 178.92353476999997,19.087069999999997 172.93083477,20.109629999999996 166.96203477,21.177390000000003 161.01573477,22.293 155.09003477000002,23.459320000000005 149.18203476999997,24.679410000000004 143.28863477,25.95594 137.40763477,27.290730000000003 131.53863477000002,28.685249999999996 125.68283477000001,30.1406 119.84313477,31.65739 114.02413477,33.23571 108.23203477000001,34.87495 102.47423477000001,36.57383 96.75906477000001,38.32914 91.08471477000002,40.134069999999994 85.42648477000002,41.98774 79.73438477,43.89889 73.92759477,45.889129999999994 68.05506477,47.95156 62.31227477,50.03584 56.48308477,52.2388 50.924044769999995,54.438410000000005 46.04954477,56.45608 41.74771477,58.31064 37.80648477,60.07607 34.019814769999996,61.838629999999995 30.13189477,63.72525 25.57055477,66.05948000000001 21.058604770000002,68.56913 16.47986477,71.37962 13.72786277,73.19859 11.85770277,74.51578 10.42904677,75.588789 9.273746769999999,76.515645 8.310543769999999,77.34375 7.493694769999999,78.099934 6.79482477,78.801042 6.19516977,79.458457 5.68179577,80.080304 5.24556477,80.67264 4.87997407,81.240146 4.5804576699999995,81.786556 4.34395747,82.31493 4.16866707,82.827852 4.053891894,83.327565 4.0,83.8160715 4.0084571,84.2952276 4.08193483,84.7668175 4.22249617,85.2328389 4.42965827,85.69565 4.70379947,86.157568 5.04663327,86.62093 5.46134077,87.088212 5.95284777,87.562172 6.528305769999999,88.046043 7.1978947699999996,88.543808 7.97618877,89.060648 8.88456677,89.6037 9.955806769999999,90.183499 11.243716769999999,90.816992 12.84644277,91.53488 14.97574477,92.40369 18.21601477,93.609499 23.38553477,95.33248 28.50562477,96.82848 33.25125477,98.11187 37.48963477,99.20384 41.70969477,100.23911 46.16637477,101.27357 51.07781477,102.3389 56.607294769999996,103.43587 62.67314477,104.51407 68.85798477000002,105.50169 75.05699477,106.40625 81.17520477000001,107.2436 87.16937477,108.02718 93.09881477,108.75875 99.00561477000001,109.43373 104.91783477,110.04488 110.85233477000001,110.58561 116.82093477000001,111.06083 122.83293477000001,111.4784 128.89483477,111.84599 135.01013476999998,112.17124 141.17923477,112.46195 147.39843477,112.72623 153.65973476999997,112.97247 159.95103476999998,113.20856 166.25763477,113.43547 172.56703477,113.65074 178.86913477,113.85204 185.15673477,114.03721 191.42543476999998,114.20428 197.67333477,114.35141 203.90143476999998,114.47687 210.11283476999998,114.57923 216.31233476999998,114.6589 222.50423476999998,114.71706 228.69233476999997,114.75486000000001 234.88013477,114.77337 241.07063477,114.77363 247.26643477,114.75663 253.46973477,114.72337 259.68243477,114.67479 265.90583476999996,114.61188 272.14093477,114.53559 278.38833477,114.44691 284.64823477,114.34681 290.92033477,114.23632 297.20383477,114.11646999999999 303.49753476999996,113.98830000000001 309.79973477,113.85285 316.10853477,113.71041 322.42203477,113.56091 328.73863477,113.40428 335.05693477,113.24042 341.37533477,113.06928 347.69303477,112.89077 354.00883477,112.70482 360.32203476999996,112.51136 366.63213477,112.3103 372.93863477,112.10156 379.24143477,111.88507 385.54043477,111.66072 391.83583477,111.42842999999999 398.12783477,111.18808 404.41713476999996,110.93957 410.70433477,110.68287 416.99013477,110.41856 423.27543476999995,110.1474 429.56063477000004,109.87016 435.84653476999995,109.58761 442.13343477,109.30053 448.42183477,109.00969 454.71203477,108.71588 461.00423477,108.41987 467.29863477,108.12246 473.59533477,107.82444 479.89433477,107.52662000000001 486.19553477,107.2298 492.49873477,106.9348 498.80393477,106.64243 505.11053477,106.3535 511.41823477,106.06857 517.7266347700001,105.78707 524.0352347700001,105.50824 530.34353477,105.23125 536.6512347700001,104.95533 542.9579347700001,104.67968 549.26333477,104.40350000000001 555.5672347700001,104.12598 561.86923477,103.84634 568.1692347700001,103.56377 574.46703477,103.27747 580.76243477,102.98665 587.05533477,102.69051999999999 593.34573477,102.38826 599.6335347700001,102.07909000000001 605.9187347700001,101.7622 612.2014347700001,101.43728 618.4817347700001,101.10506000000001 624.7599347700001,100.76644 631.03613477,100.42232 637.31083477,100.07357 643.58443477,99.72108 649.8572347700001,99.36572 656.12983477,99.00836 662.40273477,98.64988 668.6765347700001,98.29113 674.9520347700001,97.93297 681.22973477,97.57627 687.51063477,97.22189 693.79543477,96.87068 700.0851347700001,96.5235 706.38053477,96.18122 712.68283477,95.84446 718.9925347700001,95.51344 725.31013477,95.18836999999999 731.6350347700001,94.86949 737.95763477,94.557519 744.2741347700002,94.252808 750.5856347700001,93.95549199999999 756.89373477,93.665687 763.2001347700001,93.3835 769.5071347700001,93.109033 775.81713477,92.842379 782.13303477,92.583636 788.45803477,92.332905 794.78093477,92.090846 801.08763477,91.858158 807.37383477,91.635098 813.63563477,91.421353 819.87013477,91.215996 826.07583477,91.018042 832.25273477,90.826481 838.4023347700002,90.64029 844.52713477,90.45844 850.6308347700001,90.279895 856.7181347700001,90.103612 862.7952347700001,89.928537 868.86893477,89.753597 874.9475347700001,89.577687 881.04053477,89.399654 887.1588347700001,89.218281 893.31533477,89.032254 899.52463477,88.840133 905.8038347700001,88.640328 912.0965347700001,88.434939 918.29993477,88.230389 924.42493477,88.029559 930.49783477,87.834616 936.55633477,87.647285 942.65153477,87.469061 948.8519347700001,87.301441 955.09973477,87.149725 961.0815347700001,87.022917 966.7377347700001,86.919896 972.05383477,86.83803 977.03653477,86.774458 981.70443477,86.726451 986.08213477,86.691581 990.19563477,86.667767 994.0702347700001,86.653269 997.7295347700001,86.64664 1001.1947347700001,86.646689 1004.05763477,86.65137" stroke="black" stroke-width="2.0" /></svg>