<?xml version="1.0" encoding="utf-8" ?>
<svg baseProfile="full" height="153.92206" version="1.1" width="1012.08400454" xmlns="http://www.w3.org/2000/svg" xmlns:ev="http://www.w3.org/2001/xml-events" xmlns:xlink="http://www.w3.org/1999/xlink"><defs /><polygon fill="none" points="1004.08400454,98.09146 1000.37510454,97.1664821 995.9057045400001,96.054875 991.21420454,94.89156 986.2835045400001,93.672842 981.0970045400001,92.395223 975.6399045400001,91.055719 969.90100454,89.652348 963.87580454,88.184787 957.56970454,86.6552 951.00200454,85.06911 944.2079045400001,83.43621999999999 937.2329045399999,81.76933 930.1262045400001,80.08205 922.93450454,78.3873 915.6970045400001,76.69599 908.44140454,75.01613 901.18230454,73.35246 893.92120454,71.70634 886.6554045400001,70.07714999999999 879.3819045399999,68.4642 872.0983045400001,66.86692 864.8027045399999,65.28487999999999 857.4935045400001,63.71771 850.16960454,62.165169999999996 842.8301045400001,60.62712 835.4747045400001,59.1035 828.10360454,57.594359999999995 820.71730454,56.09983 813.3169045400001,54.620129999999996 805.9039045400001,53.155559999999994 798.48020454,51.7065 791.04830454,50.27357 783.61040454,48.857549999999996 776.16860454,47.459219999999995 768.72490454,46.07927 761.28100454,44.71837 753.83850454,43.3771 746.39850454,42.056 738.9624045400001,40.75558 731.53090454,39.476259999999996 724.10480454,38.21845 716.68460454,36.9825 709.2707045400001,35.768719999999995 701.86310454,34.577389999999994 694.4618045400001,33.408730000000006 687.0666045400001,32.2628 679.67710454,31.13959 672.29270454,30.03904 664.9125045400001,28.961079999999995 657.53550454,27.90561000000001 650.16060454,26.87250999999999 642.7861045400001,25.861680000000007 635.41050454,24.872959999999992 628.03180454,23.906220000000005 620.64810454,22.961309999999997 613.25680454,22.038079999999994 605.8555045400001,21.136399999999995 598.44130454,20.256110000000007 591.01120454,19.39690999999999 583.5626045399999,18.558130000000006 576.09370454,17.739099999999993 568.60360454,16.93929 561.09220454,16.158239999999992 553.56050454,15.395589999999999 546.01050454,14.651060000000001 538.44500454,13.924440000000004 530.86810454,13.21557 523.28490454,12.524339999999995 515.7013045400001,11.850700000000003 508.12450454000003,11.194589999999991 500.56230454,10.55601999999999 493.02340454000006,9.935179999999988 485.51620454,9.334149999999994 478.04750454,8.75564 470.62170454,8.202119999999994 463.24180454000003,7.675769999999986 455.90880454000006,7.178520000000006 448.62220454000004,6.712130000000002 441.38010454000005,6.278180000000006 434.17940454000006,5.878140000000002 427.01550454000005,5.5134100000000075 419.88310454,5.185329999999993 412.77550454,4.895290000000003 405.68520454000003,4.644729999999996 398.60360454000005,4.435169999999999 391.52080454000003,4.267790000000005 384.42760454,4.14173000000001 377.31600454000005,4.055769999999995 370.17960454000007,4.008839999999992 363.01390454000006,4.0 355.81570454,4.028360000000006 348.5838045400001,4.093040000000002 341.31900454000004,4.19314 334.02400454,4.327640000000002 326.70370454000005,4.49539 319.36520454,4.69507999999999 312.01800454,4.925160000000005 304.67360454000004,5.1838499999999925 297.34580454,5.4690900000000084 290.04980454,5.7799400000000105 282.79970454000005,6.1185199999999895 275.60660454000003,6.4872999999999905 268.47860454,6.888580000000005 261.42070454,7.324519999999993 254.43520454,7.797179999999997 247.52220454,8.308589999999995 240.67990454,8.860770000000002 233.90470453999998,9.455770000000001 227.19140454,10.095789999999994 220.53370454,10.783140000000003 213.92410454,11.520399999999995 207.35380454,12.310449999999989 200.81330454,13.156509999999997 194.29170454,14.062029999999993 187.77890453999998,15.027940000000001 181.26930453999998,16.053330000000003 174.76260454,17.13655 168.26370454000002,18.27499999999999 161.78300454,19.46495 155.33570454,20.701339999999988 148.94130453999998,21.977779999999996 142.62310453999999,23.288309999999996 136.40410454,24.63136999999999 130.30310454,26.006199999999993 124.33440454,27.411969999999997 118.50770453999999,28.84782 112.82920453999999,30.312920000000005 107.30180453999999,31.8065 101.92595453999999,33.32785 96.70023453999998,34.87602 91.62650453999998,36.445899999999995 86.71762454,38.026979999999995 81.99399453999999,39.605799999999995 77.47746453999999,41.167759999999994 73.18642453999999,42.699479999999994 69.13216453999999,44.19771 65.31269454,45.66762 61.715574540000006,47.115429999999996 58.32360454,48.54741 55.11820454,49.969409999999996 52.081284540000006,51.38673 49.196054540000006,52.80344 46.44834454,54.21698 43.828614540000004,55.620999999999995 41.330704540000006,57.009029999999996 38.95031454,58.374829999999996 36.68391454,59.71277 34.52814454,61.01801 32.479464539999995,62.28669 30.533924539999997,63.515919999999994 28.68722454,64.70376999999999 26.93468454,65.84917 25.272004539999998,66.95483999999999 23.696354539999998,68.03105 22.20507454,69.08686 20.79523454,70.12903 19.463574540000003,71.1625 18.20658454,72.19086 17.02052454,73.21656999999999 15.90152454,74.24134 14.84573454,75.26617999999999 13.850808540000001,76.28936999999999 12.91601154,77.3064 12.03981454,78.314 11.220136539999999,79.3101 10.45465054,80.29346 9.74099254,81.26344999999999 9.07687054,82.21983 8.460134539999999,83.16264 7.88881154,84.09214 7.36112154,85.00868 6.87548254,85.91275 6.43050454,86.80484 6.02498854,87.68549999999999 5.65791854,88.55532 5.32845454,89.41486 5.03592684,90.264709 4.77983184,91.105451 4.55983084,91.937671 4.37574884,92.761955 4.22757674,93.578887 4.11547689,94.38905799999999 4.0397909,95.193066 4.00105168,95.991519 4.0,96.785045 4.03760643,97.5742939 4.11508325,98.3599521 4.23297144,99.14290199999999 4.39063434,99.92424799999999 4.58755554,100.70505899999999 4.82344014,101.48636 5.09820054,102.269145 5.41194854,103.05439 5.76498554,103.843063 6.15780354,104.63613 6.59108754,105.434566 7.06571054,106.239362 7.582741540000001,107.051525 8.14345254,107.872086 8.749312539999998,108.7021 9.40199554,109.54264 10.10337054,110.39478 10.85548154,111.25959999999999 11.66051254,112.13813 12.520713540000001,113.03129 13.438275540000001,113.93982 14.415124539999999,114.86413999999999 15.45259454,115.80411 16.55091454,116.75878 17.70840454,117.72592 18.921874539999997,118.70192 20.191854539999998,119.68375 21.52001454,120.66848999999999 22.907684539999998,121.65308999999999 24.355994539999998,122.63456 25.866164539999996,123.61031 27.43989454,124.57843 29.07994454,125.53807 30.790954539999998,126.48981 32.579574539999996,127.43528 34.45135454,128.37456 36.41168454,129.30705 38.466534540000005,130.23203 40.622424540000004,131.14858 42.88650454,132.05554999999998 45.26657454,132.9515 47.77105454,133.8346 50.40887454,134.70257 53.18934454,135.55249 56.12174454,136.38067 59.215434540000004,137.18306 62.48290454,137.9581 65.93774454,138.70566 69.59272454,139.42635 73.45828454,140.12199999999999 77.54040454,140.79608 81.83763454,141.45427 86.33837453999999,142.10074 91.02381454,142.72623 95.87355453999999,143.31778 100.87057453999999,143.86254 106.00690454,144.34816999999998 111.28910454,144.76421 116.73630453999999,145.10966 122.36950454,145.38745 128.20960454,145.60096 134.27580454,145.75438 140.58290454000002,145.85336 147.13750454,145.90568 153.93190454,145.92206 160.93770454,145.91617 168.10600454,145.89396 175.38340454,145.85322 182.72070454,145.79179 190.07860454000001,145.70784 197.43090453999997,145.59975 204.76570453999997,145.46600999999998 212.08520453999998,145.30513 219.40070454,145.11749 226.72350454,144.90449999999998 234.06370454,144.66751 241.43010454,144.40779 248.83030454,144.1266 256.27050453999993,143.82522 263.75570454,143.50497 271.28970454,143.16728 278.87450454000003,142.81367 286.51050454000006,142.4458 294.19640454,142.06552 301.92860454000004,141.67486 309.70150454000003,141.27603 317.50750454000007,140.87059 325.33890454000004,140.4591 333.18860454000003,140.042 341.05030454,139.61971 348.91830454,139.19263 356.78810454000006,138.76114 364.65580454,138.32555 372.51870454000004,137.88614 380.37480454,137.44314 388.22330454,136.99673 396.06410454,136.54705 403.89810454,136.09416 411.72700454,135.63810999999998 419.55310454,135.17899 427.37860454,134.71699 435.20530454,134.2523 443.03490454,133.78512999999998 450.86870454,133.3157 458.70760454000003,132.84425 466.55260454,132.37104 474.40410454000005,131.89633 482.26230454,131.42041999999998 490.12710454,130.94360999999998 497.99840454,130.46624 505.87540454000003,129.98865 513.7572045400001,129.51117 521.64280454,129.03397 529.53120454,128.5572 537.42140454,128.08096999999998 545.3124045400001,127.60543 553.20320454,127.13071 561.0929045400001,126.65692 568.98060454,126.1842 576.8655045400001,125.71267 584.74670454,125.24244999999999 592.62340454,124.77365999999999 600.49490454,124.30641 608.36030454,123.84082 616.2191045400001,123.37673 624.07050454,122.91366 631.9144045400001,122.45105 639.7505045400001,121.98835 647.57890454,121.52501 655.39980454,121.06044 663.2137045400001,120.59407 671.02120454,120.12531 678.82310454,119.65357 686.6205045400001,119.17823 694.41460454,118.69866999999999 702.2068045400001,118.21424999999999 709.99860454,117.72438 717.79180454,117.22912 725.58790454,116.72905 733.3878045399999,116.22482 741.19220454,115.71706999999999 749.00150454,115.20648 756.81550454,114.69377 764.63370454,114.17967 772.45540454,113.66495 780.27910454,113.15039 788.10330454,112.63682 795.9258045400001,112.12509 803.74430454,111.61606 811.55600454,111.11046 819.35790454,110.60803 827.14740454,110.10811 834.92260454,109.61001999999999 842.6816045400001,109.11305999999999 850.42340454,108.6165 858.14700454,108.11961 865.85200454,107.621628 873.5386045399999,107.121799 881.2069045400001,106.619337 888.8578045400001,106.11345 896.49240454,105.603328 904.11200454,105.088143 911.7179045400001,104.56737199999999 919.3031045399999,104.042349 926.84480454,103.515924 934.30480454,102.99203 941.63340454,102.47538899999999 948.77610454,101.97102 955.68030454,101.48365799999999 962.30270454,101.01695 968.6177045400001,100.572677 974.61720454,100.151293 980.30600454,99.752357 985.69700454,99.374863 990.80780454,99.0174962 995.65780454,98.6788166 1000.26690454,98.3573675 1004.08400454,98.09146" stroke="black" stroke-width="2.0" /></svg>