<?xml version="1.0" encoding="utf-8" ?>
<svg baseProfile="full" height="152.76532" version="1.1" width="1012.08136227" xmlns="http://www.w3.org/2000/svg" xmlns:ev="http://www.w3.org/2001/xml-events" xmlns:xlink="http://www.w3.org/1999/xlink"><defs /><polygon fill="none" points="1004.08136227,113.45960000000001 1000.43826227,112.58162610000001 996.0385622699999,111.52437800000001 991.4081622699999,110.41529700000001 986.52786227,109.250358 981.37876227,108.02569700000001 975.94356227,106.73798000000001 970.2096622700001,105.38496500000001 964.1714622699999,103.96629600000001 957.83596227,102.48451000000001 951.22706227,100.94613000000001 944.38746227,99.36244 937.37166227,97.74788000000001 930.2364622700001,96.1174 923.03416227,94.48459000000001 915.8056622700001,92.86027000000001 908.57706227,91.25161000000001 901.35806227,89.66196000000001 894.14456227,88.09030000000001 886.92966227,86.53313 879.70726227,84.98714000000001 872.47226227,83.44923 865.22066227,81.91658000000001 857.94956227,80.38655 850.65696227,78.85672000000001 843.34226227,77.32486 836.00556227,75.78895 828.64856227,74.24718000000001 821.2739622700001,72.69798 813.8858622700001,71.14001000000002 806.48956227,69.57219 799.0916622699999,67.99396000000002 791.69876227,66.40764000000001 784.31636227,64.81707 776.94866227,63.22592000000001 769.5987622700001,61.63753000000001 762.26846227,60.05500000000001 754.9587622700001,58.48113000000001 747.6693622700001,56.91845000000001 740.39906227,55.36921000000001 733.14566227,53.835440000000006 725.90586227,52.31891000000001 718.67556227,50.82123000000001 711.4498622699999,49.34379000000001 704.22276227,47.88786 696.98756227,46.45400000000001 689.73806227,45.04048 682.46906227,43.645190000000014 675.17656227,42.266270000000006 667.8574622699999,40.90207000000001 660.5099622700001,39.55118 653.1333622699999,38.21238000000001 645.7279622699999,36.88465000000001 638.29576227,35.56718000000001 630.83986227,34.25936 623.36486227,32.96077000000001 615.87666227,31.671210000000002 608.38276227,30.390640000000005 600.89196227,29.119299999999996 593.41366227,27.859200000000016 585.95616227,26.61424000000001 578.52616227,25.38806000000001 571.1290622700001,24.183970000000016 563.7685622700001,23.004940000000005 556.44716227,21.853560000000016 549.16626227,20.732150000000004 541.9256622700001,19.642719999999997 534.72436227,18.587060000000008 527.56026227,17.566720000000004 520.43056227,16.58311000000002 513.33126227,15.63748000000001 506.25776226999994,14.731009999999998 499.20486227,13.86466 492.16706227000003,13.038000000000011 485.13966227,12.250000000000014 478.11816226999997,11.499700000000004 471.09886227,10.786300000000011 464.07816227,10.109000000000009 457.05326227,9.467399999999998 450.02126227,8.8609 442.98006226999996,8.289200000000008 435.92776227,7.7520000000000095 428.86276226999996,7.249100000000013 421.78406227,6.780300000000011 414.69096227,6.345399999999998 407.58296227,5.944400000000002 400.46026227,5.577300000000008 393.32346227,5.244700000000009 386.17386227000003,4.948100000000011 379.01356226999997,4.689000000000007 371.84596227,4.468900000000019 364.67526227,4.289200000000008 357.50666227,4.151300000000006 350.34636227,4.0563999999999965 343.20136227,4.0057000000000045 336.07946227,4.0 328.98906227000003,4.040000000000006 321.93916227,4.126300000000015 314.93916227,4.258800000000008 307.99836227,4.437500000000014 301.12636227,4.66200000000002 294.33196227,4.932200000000009 287.62136227,5.24860000000001 280.99696227,5.61160000000001 274.45786227,6.0216000000000065 268.00066227,6.4794000000000125 261.61946227,6.985600000000005 255.30676226999998,7.541200000000018 249.05326227,8.147600000000011 242.84856227,8.80670000000002 236.68056227,9.520600000000002 230.53586227,10.292300000000012 224.39936227,11.125500000000017 218.25406227,12.024799999999999 212.08016227000002,12.996100000000013 205.85466226999998,14.046830000000014 199.55016227,15.185900000000004 193.13656227,16.417660000000012 186.59246227,17.74175000000001 179.91106227,19.15431000000001 173.10576226999999,20.64597000000002 166.21616226999998,22.199760000000012 159.31086227,23.79011 152.48246227,25.384260000000012 145.83236226999998,26.956900000000005 139.42956227,28.50806 133.29516227,30.046819999999997 127.41796227,31.586180000000013 121.76916227,33.14111 116.31116227000001,34.72797000000001 111.00236227,36.36473000000001 105.79786227,38.07194000000001 100.64877227000001,39.87261000000001 95.50847227,41.77145 90.36351227,43.74910000000001 85.24525227000001,45.767700000000005 80.22644227,47.77160000000001 75.40402227,49.70188 70.86369227,51.54665000000001 66.63721226999999,53.32444000000001 62.715512270000005,55.05734000000001 59.07149227,56.76619000000001 55.67298227,58.46911000000001 52.48877227,60.181160000000006 49.491762269999995,61.90613000000001 46.66118227,63.63867000000001 43.981312270000004,65.37374 41.43983227,67.10696000000002 39.026732270000004,68.83446 36.73374227,70.55281000000001 34.55391227,72.25893 32.48130227,73.95001000000002 30.51068227,75.62354000000002 28.637322270000002,77.27734000000001 26.85402227,78.91142000000002 25.15145227,80.52680000000001 23.52515227,82.11985000000001 21.97392227,83.68361000000002 20.497692269999998,85.20995 19.09614227,86.69129000000001 17.76783227,88.12187 16.51004227,89.49816000000001 15.32175227,90.81829 14.207882269999999,92.08147000000001 13.16988027,93.28993000000001 12.20590127,94.44767000000002 11.31256127,95.55927000000001 10.48592927,96.62935 9.72205827,97.66219000000001 9.017223269999999,98.66172 8.36803027,99.63145 7.77145227,100.57453000000001 7.22483627,101.49375 6.7258752699999995,102.39163 6.2725922700000005,103.27042 5.86331027,104.13213100000002 5.49662927,104.978615 5.17140827,105.81155500000001 4.88674357,106.632502 4.64196077,107.442902 4.43660127,108.24411300000001 4.27041877,109.037422 4.14337734,109.82406700000001 4.05565505,110.60525000000001 4.0076513,111.38215500000001 4.0,112.15596400000001 4.03358877,112.92787220000001 4.10957147,113.6991057 4.22841137,114.47062700000001 4.3892346700000004,115.24287600000001 4.59129597,116.01617800000001 4.83410417,116.79079800000001 5.11740127,117.566934 5.44114927,118.344721 5.80551727,119.12422300000001 6.21087827,119.90542300000001 6.65780527,120.688219 7.147072270000001,121.47239900000001 7.67965527,122.25762600000002 8.25673927,123.04340900000001 8.87971727,123.82907 9.55019927,124.61367000000001 10.27000827,125.39601 11.04117327,126.17446000000001 11.86591427,126.94694000000001 12.74659727,127.71071 13.685666269999999,128.46223 14.685512269999998,129.19691 15.74828227,129.90881000000002 16.875522269999998,130.59033 18.069222269999997,131.23505 19.333542270000002,131.8419 20.67315227,132.4111 22.09284227,132.94374000000002 23.597522270000002,133.44218 25.19210227,133.91045 26.88137227,134.35488 28.66984227,134.78476 30.56194227,135.21185 32.56431227,135.63954 34.684902269999995,136.06599 36.93157227,136.48883 39.31186227,136.90518 41.832922270000005,137.3116 44.50168227,137.70416 47.32574227,138.07853 50.31356227,138.42996 53.47488227,138.75319000000002 56.82368227,139.04330000000002 60.38101227,139.30075 64.17211227,139.53009 68.22435227,139.73896000000002 72.56528227,139.93959 77.21896226999999,140.15076000000002 82.19893227,140.39833000000002 87.50240227,140.69183 93.11249227,141.02119000000002 99.00195227,141.37022000000002 105.14086227,141.71741 111.50606227,142.04388 118.07596227,142.34568000000002 124.82516226999999,142.62192000000002 131.72566227,142.87262 138.75016227,143.09875 145.87436227,143.30218000000002 153.07976227,143.48563000000001 160.35556227,143.65216 167.69636227,143.8034 175.09656227,143.94045 182.55006227,144.06451 190.04996227,144.17690000000002 197.58846226999998,144.27902 205.15736227,144.37238000000002 212.74786227,144.45789000000002 220.35146226999998,144.53482000000002 227.96026227,144.60222000000002 235.56766227,144.65916 243.16806227,144.70476000000002 250.75676227,144.73818 258.33036227,144.75862 265.88636227,144.76532 273.42356227,144.75754 280.94156227,144.73455 288.44116227,144.69566 295.92386227000003,144.64012000000002 303.39226227,144.56723 310.84976227,144.47663 318.30026227,144.37001 325.74706227,144.24977 333.19336227,144.11825000000002 340.64166227,143.97778 348.09436227000003,143.8307 355.55326227,143.67936 363.01996227,143.52611000000002 370.49556227000005,143.37334 377.98076227,143.22346000000002 385.47596226999997,143.07889 392.98106227,142.9421 400.49566227,142.81558 408.01886227,142.70177 415.54936227,142.60188 423.08606227,142.51595 430.62756227,142.44394 438.17286227,142.38582000000002 445.72076227,142.34154 453.27026227,142.31106 460.82056227000004,142.29430000000002 468.37066227,142.29121 475.91976227,142.30171 483.46736226999997,142.32572000000002 491.01266227,142.36317 498.55516227000004,142.41395 506.09436227000003,142.47799 513.6299622700001,142.55448 521.1616622700001,142.64137 528.68936227,142.73644000000002 536.21286227,142.83749 543.73236227,142.94234 551.24786227,143.0488 558.75946227,143.15471000000002 566.26756227,143.25789 573.77256227,143.35619 581.27486227,143.44745 588.7749622700001,143.52953000000002 596.27356227,143.60028 603.7713622699999,143.65755000000001 611.26906227,143.69949 618.7673622699999,143.72557 626.2666622700001,143.73565000000002 633.76706227,143.72957000000002 641.26826227,143.70718 648.76996227,143.66833 656.27126227,143.61288000000002 663.7712622700001,143.54069 671.26846227,143.45164 678.76136227,143.34563 686.24816227,143.22258000000002 693.7265622699999,143.08241 701.19416227,142.92510000000001 708.64856227,142.75060000000002 716.08676227,142.55843000000002 723.50676227,142.34776 730.90686227,142.11777 738.28606227,141.86767 745.6441622699999,141.59665 752.98126227,141.3039 760.29806227,140.98859000000002 767.5959622700001,140.64988 774.87666227,140.2869 782.14256227,139.89872 789.3963622699999,139.48438000000002 796.6413622700001,139.04285000000002 803.88136227,138.573 811.12046227,138.07385000000002 818.3627622700001,137.54538000000002 825.61126227,136.98781000000002 832.8677622700001,136.40143 840.1332622699999,135.78660000000002 847.4072622699999,135.14378000000002 854.6882622700001,134.47354 861.9736622700001,133.77659 869.2595622700001,133.05379000000002 876.54096227,132.30621000000002 883.81156227,131.53507000000002 891.06426227,130.74182000000002 898.2907622700001,129.9281 905.48206227,129.09572000000003 912.62766227,128.24529 919.7113622700001,127.37491000000001 926.71066227,126.4835 933.59826227,125.57134 940.3443622699999,124.63996 946.91936227,123.69200000000001 953.29636227,122.730929 959.45316227,121.76099300000001 965.3755622699999,120.78816200000001 971.05766227,119.81795000000001 976.50076227,118.85463700000001 981.7106622700001,117.901407 986.69646227,116.96052700000001 991.46926227,116.03353200000001 996.04106227,115.12138700000001 1000.42406227,114.22461910000001 1004.08136227,113.45960000000001" stroke="black" stroke-width="2.0" /></svg>