<?xml version="1.0" encoding="utf-8" ?>
<svg baseProfile="full" height="138.95421" version="1.1" width="1012.03789832" xmlns="http://www.w3.org/2000/svg" xmlns:ev="http://www.w3.org/2001/xml-events" xmlns:xlink="http://www.w3.org/1999/xlink"><defs /><polygon fill="none" points="1004.03789832,95.35309000000001 1000.62469832,94.55696100000002 996.49799832,93.59284300000002 992.1486983199999,92.57484900000001 987.55689832,91.49803000000001 982.70269832,90.35735700000001 977.56739832,89.14807 972.1363983199999,87.86623 966.4023983199999,86.50965000000001 960.3703983199999,85.07899 954.06349832,83.57920000000001 947.52699832,82.02113 940.82259832,80.42225 934.0166983199999,78.80219000000001 927.1701983199999,77.17956000000001 920.33129832,75.56986 913.5312983199999,73.98428000000001 906.7835983199999,72.42954 900.0856983199999,70.90823 893.42449832,69.41816000000001 886.7871983199999,67.95538 880.16239832,66.51644 873.54019832,65.09836000000001 866.91189832,63.69855000000001 860.2701983199998,62.31478000000001 853.60839832,60.94509000000001 846.92139832,59.58780000000001 840.2046983199999,58.24150000000001 833.45519832,56.90500000000001 826.67059832,55.577380000000005 819.85029832,54.25792000000001 812.9944983199999,52.94617000000001 806.10539832,51.64190000000001 799.1860983199999,50.34519000000001 792.24109832,49.05653000000001 785.27459832,47.776610000000005 778.29079832,46.50601000000001 771.2935983199999,45.245270000000005 764.28649832,43.994820000000004 757.27289832,42.75504000000001 750.2557983199999,41.52621000000001 743.2378983199999,40.30856000000001 736.2213983199999,39.10223000000001 729.20849832,37.90727000000001 722.2006983199999,36.723690000000005 715.19939832,35.55143000000001 708.20549832,34.39034000000001 701.2195983199999,33.240260000000006 694.24189832,32.10143000000001 687.27269832,30.97465000000001 680.31189832,29.860770000000016 673.3595983199999,28.760620000000003 666.41589832,27.67501 659.48079832,26.604760000000013 652.5542983199999,25.55067000000001 645.63649832,24.513520000000014 638.72739832,23.494090000000014 631.8268983199999,22.493160000000017 624.93509832,21.511470000000003 618.0519983199999,20.54977000000001 611.17739832,19.608810000000005 604.3114983199999,18.689300000000003 597.45409832,17.79198000000001 590.60539832,16.917620000000014 583.7651983199999,16.066990000000004 576.93369832,15.240840000000006 570.11069832,14.439940000000021 563.29629832,13.66501000000001 556.4904983199999,12.91680000000001 549.6929983199999,12.196010000000015 542.9036983199999,11.503370000000018 536.1226983199999,10.839570000000009 529.34959832,10.205300000000008 522.5842983199999,9.601270000000014 515.82659832,9.028160000000014 509.07639831999995,8.486640000000008 502.33319832,7.977380000000011 495.59709832,7.500720000000001 488.86749832000004,7.056280000000015 482.14399832,6.643650000000008 475.42559832,6.262370000000004 468.71129832,5.912030000000016 461.99939832,5.592220000000012 455.28839832,5.302530000000004 448.57609832,5.0426100000000105 441.86029832,4.812100000000001 435.13839832,4.610720000000015 428.40729832,4.438180000000003 421.66379832,4.294280000000015 414.90429832,4.1788600000000145 408.12459832,4.091790000000017 401.32039832,4.033050000000017 394.48689832,4.002520000000018 387.61999832,4.0 380.71729832,4.025300000000016 373.77789832,4.078250000000011 366.80259832,4.158660000000012 359.79439831999997,4.266260000000017 352.75779832000006,4.400670000000005 345.69989832000005,4.561390000000017 338.62969832,4.747730000000004 331.55819832,4.958820000000003 324.49869832,5.193540000000013 317.46569832,5.450550000000021 310.47539832,5.72826000000002 303.54459832000003,6.024890000000013 296.69019832,6.339490000000012 289.92619831999997,6.6742300000000085 283.26099832,7.031810000000007 276.69769832000003,7.414740000000009 270.23529831999997,7.825460000000007 263.86929832,8.266350000000003 257.59239832000003,8.739860000000007 251.39529832000002,9.248530000000002 245.26689832,9.795140000000004 239.19459832,10.38273000000001 233.16419832000003,11.014780000000002 227.15989832,11.695330000000013 221.16429832,12.429140000000004 215.15729832000002,13.221969999999999 209.11609832,14.080850000000012 203.01349832000002,15.014620000000008 196.81729832,16.031000000000006 190.49719832,17.13014000000001 184.03479832,18.308710000000005 177.42919832,19.55919 170.70319832,20.867830000000012 163.90949832,22.213070000000002 157.13169832000003,23.56571000000001 150.47439832,24.892970000000005 144.03689832000003,26.18301000000001 137.86889832000003,27.44777000000002 131.97219832000002,28.703820000000007 126.32099832,29.96914000000001 120.87579831999999,31.26224000000002 115.59079831999999,32.602540000000005 110.41599832,34.01156000000002 105.29649832,35.51498000000001 100.16850832,37.14324000000001 94.96618831999999,38.90919000000001 89.65650832,40.80427000000001 84.26036832,42.79761000000001 78.86725831999999,44.82759000000001 73.62471831999999,46.82108000000001 68.66209832,48.75659000000001 64.02953832,50.64096000000001 59.72170832,52.49031000000001 55.70785832,54.32329000000001 51.949758319999994,56.15730000000001 48.414078319999994,57.99510000000001 45.07911832,59.82757000000001 41.93092832,61.645210000000006 38.95932832,63.43930000000001 36.15598832,65.20216000000002 33.51378832,66.92708000000002 31.026128319999998,68.60843000000001 28.68634832,70.24177 26.48516832,71.82868 24.41468832,73.37659000000001 22.47721832,74.88293000000002 20.67695832,76.33957000000001 19.01381832,77.73862000000001 17.48189832,79.07546 16.071158320000002,80.34909 14.77609832,81.55858 13.59432032,82.70464000000001 12.51757232,83.79258000000002 11.53609832,84.82893000000001 10.64081432,85.81979000000001 9.82365932,86.77061 9.07764332,87.68624000000001 8.39682032,88.57089 7.776179320000001,89.42823000000001 7.2115233199999995,90.26142000000002 6.69935332,91.07322300000001 6.23676332,91.86606900000001 5.82136032,92.642104 5.45119732,93.403249 5.12471732,94.15123500000001 4.84071522,94.88764300000001 4.59830962,95.61393400000001 4.39691892,96.331472 4.23625182,97.041554 4.11630255,97.745423 4.0373558174,98.444297 4.0,99.13938300000001 4.0051504,99.83190450000001 4.05407662,100.5231198 4.14747192,101.21424160000001 4.28450962,101.906277 4.46450502,102.60015000000001 4.68710672,103.296739 4.95227572,103.99688400000001 5.260274320000001,104.701407 5.61166332,105.41110900000001 6.00730632,106.12678700000001 6.44838532,106.84922800000001 6.93641332,107.579215 7.47326932,108.31752200000001 8.06122532,109.06490400000001 8.70298732,109.82207600000001 9.401736320000001,110.58968000000002 10.16117332,111.36824000000001 10.98554032,112.15805 11.87962232,112.95904000000002 12.84865832,113.77056000000002 13.89810732,114.59094 15.03309832,115.41696 16.25734832,116.24284000000002 17.572098320000002,117.05978 18.98227832,117.86175 20.495338320000002,118.64508000000001 22.11824832,119.40671 23.85715832,120.14483000000001 25.71772832,120.86004000000001 27.70632832,121.55671000000001 29.83259832,122.24451 32.110918319999996,122.93167000000001 34.557268320000006,123.61759 37.189108319999995,124.30061 40.024708319999995,124.97854000000001 43.08175832,125.64850000000001 46.375558319999996,126.30690000000001 49.91713832,126.94959 53.71008832,127.57217 57.74744832,128.16922 62.01726832,128.72999000000002 66.50124832,129.24169 71.18098832,129.69267000000002 76.04852832,130.07329000000001 81.11689831999999,130.37582 86.42535831999999,130.59966000000003 92.01981832,130.75334 97.93818832,130.84894000000003 104.19449832,130.90414 110.75589831999999,130.93856 117.54829832,130.95421 124.48469832,130.94902000000002 131.48239832,130.92193 138.47669832,130.87274000000002 145.42939832000002,130.80175000000003 152.32949832,130.70936 159.19119832,130.59581000000003 166.04129832,130.46228000000002 172.90399832,130.31045 179.79809832,130.14188000000001 186.73739832,129.95815 193.73059832,129.76097000000001 200.78079832,129.55225000000002 207.88479832000002,129.33414 215.03429832,129.10818 222.21979832000002,128.87521 229.42299832,128.63638 236.61079832000001,128.39341000000002 243.78679832,128.14681000000002 250.95739832,127.89702000000001 258.12799831999996,127.64447000000001 265.30279832,127.38961 272.48529832,127.13296000000001 279.67779832,126.87504000000001 286.88139832,126.61644000000001 294.08329832000004,126.35824000000001 301.27419832000004,126.10141000000002 308.45579832000004,125.84647000000001 315.63039832,125.5935 322.80029832,125.34225 329.96749832,125.09249000000001 337.13389832,124.84398000000002 344.30099832,124.59651000000001 351.46999832000006,124.34987000000001 358.64199831999997,124.10386000000001 365.81799832,123.85828000000001 372.99839832000004,123.61296000000002 380.18359832000004,123.36771000000002 387.37379832,123.12236000000001 394.56879832000004,122.87675000000002 401.76829832,122.63073000000001 408.97159832,122.38416000000001 416.17789832,122.13703000000001 423.38659832,121.88941000000001 430.59519832,121.64142000000001 437.80269832,121.39314000000002 445.00939832,121.14459000000001 452.21599832000004,120.89580000000001 459.42259831999996,120.64680000000001 466.62969832,120.39761000000001 473.83729832,120.14828000000001 481.04569832,119.89884 488.25469832,119.64932000000002 495.46379832,119.39980000000001 502.67229832,119.15034000000001 509.88029832,118.90097 517.08809832,118.65169 524.29579832,118.40251 531.5036983199999,118.15342000000001 538.71179832,117.90442000000002 545.92009832,117.65552000000001 553.1286983199999,117.40672 560.3375983199999,117.15802000000001 567.54669832,116.90943000000001 574.7558983199999,116.66097 581.96499832,116.41262 589.17399832,116.16442 596.3825983199999,115.91637000000001 603.5904983199999,115.66847000000001 610.79739832,115.42075000000001 618.0030983199999,115.17316000000001 625.20729832,114.92564000000002 632.40999832,114.67816 639.6109983199999,114.43065000000001 646.8105983199999,114.18305000000001 654.0086983199999,113.93529000000001 661.2055983199999,113.68733 668.40159832,113.43908 675.59709832,113.19047 682.7924983199999,112.94144000000001 689.98849832,112.69191000000001 697.18549832,112.44179000000001 704.38439832,112.191 711.58589832,111.93952000000002 718.79059832,111.68751 725.9986983199999,111.43518 733.20539832,111.18294 740.40879832,110.93107 747.60949832,110.67979000000001 754.8084983199999,110.42927 762.0069983199999,110.179708 769.20679832,109.93126900000001 776.40959832,109.68411400000001 783.61709832,109.438421 790.82019832,109.19472400000001 798.0125983199999,108.953455 805.1911983199999,108.714933 812.35269832,108.47920300000001 819.4942983199999,108.24561100000001 826.61429832,108.01337900000001 833.7119983199999,107.78171 840.7876983199999,107.549789 847.8423983199999,107.31678500000001 854.8781983199999,107.08185300000001 861.8979983199999,106.844125 868.90559832,106.60271100000001 875.90559832,106.35669000000001 882.90339832,106.10510500000001 889.9050983199999,105.846946 896.91809832,105.58114400000001 903.9505983199999,105.30655200000001 911.01129832,105.02204800000001 918.10119832,104.72716700000001 925.20519832,104.422244 932.29059832,104.10848000000001 939.3088983199999,103.787986 946.2009983199999,103.46366700000002 952.90409832,103.138935 959.36119832,102.81729600000001 965.5307983199999,102.50183600000001 971.39299832,102.19472300000001 976.94499832,101.897236 982.19579832,101.60996300000001 987.16099832,101.33300740000001 991.85999832,101.06615860000001 996.3129983199999,100.80901600000001 1000.54009832,100.56107840000001 1004.03789832,100.35309000000001" stroke="black" stroke-width="2.0" /></svg>