<?xml version="1.0" encoding="utf-8" ?>
<svg baseProfile="full" height="115.56395" version="1.1" width="1012.1009868" xmlns="http://www.w3.org/2000/svg" xmlns:ev="http://www.w3.org/2001/xml-events" xmlns:xlink="http://www.w3.org/1999/xlink"><defs /><polygon fill="none" points="1004.1009868,87.52655 1001.2092868,86.7701142 997.7159868,85.864193 994.0360867999999,84.919217 990.1505867999999,83.931857 986.0390868000001,82.898664 981.6798868,81.816233 977.0512868000001,80.681507 972.1330867999999,79.49227 966.9101868,78.247895 961.3772868,76.9504 955.5446868,75.60573 949.4457868,74.22473 943.1510868,72.82433 936.8916868,71.45400000000001 930.6892868,70.11524 924.4927868,68.79398 918.2646868,67.47955 911.9792868000001,66.16407000000001 905.6321868,64.84405 899.3179868,63.53667 893.0584868,62.24606 886.8416868,60.970510000000004 880.6569868,59.70867 874.4951867999999,58.45944 868.3482868,57.22201 862.2093868,55.99577 856.0721868,54.78035 849.9314868,53.57555 843.7827868,52.3814 837.6222868,51.198069999999994 831.4469868,50.02596 825.2547868,48.865610000000004 819.0441867999999,47.71774 812.8145868,46.58328 806.5660868,45.46328 800.2998868000001,44.35893 794.0178868,43.27084000000001 787.7220867999999,42.19906 781.4144868,41.14358 775.0967868,40.104350000000004 768.7706868,39.08128 762.4377868,38.07424 756.0994868,37.08305 749.7569867999999,36.1075 743.4112868,35.14734 737.0632867999999,34.202290000000005 730.7139867999999,33.272040000000004 724.3636868,32.35624 718.0130868,31.45453 711.6622868,30.56653 705.3114867999999,29.6918 698.9605868,28.829970000000003 692.6094867999999,27.980940000000004 686.2579868,27.144769999999994 679.9056868,26.321490000000004 673.5526868,25.51119 667.1986868,24.71391 660.8436868,23.92972000000001 654.4874867999999,23.158699999999996 648.1299868,22.400930000000002 641.7713868,21.65647 635.4114868,20.925430000000006 629.0502868,20.20787 622.6879868,19.50389 616.3244868,18.81358 609.9600868,18.13704 603.5946868,17.47435 597.2285868,16.825630000000004 590.8617868,16.191029999999998 584.4946868,15.570689999999999 578.1271868,14.964769999999987 571.7593868,14.37342000000001 565.3915867999999,13.796779999999998 559.0236868,13.235 552.6556867999999,12.688209999999998 546.2877867999999,12.156559999999999 539.9197868,11.640169999999998 533.5518867999999,11.139199999999988 527.1838868,10.653760000000005 520.8157868000001,10.183989999999994 514.4475868,9.73003 508.07908679999997,9.292000000000002 501.7101868,8.870049999999992 495.3407868,8.464299999999994 488.9708868,8.074910000000003 482.6002868,7.702030000000008 476.2290868,7.3458300000000065 469.8572868,7.006460000000004 463.4850868,6.684089999999998 457.1124868,6.378879999999995 450.7397868,6.091000000000008 444.3670868,5.820610000000002 437.99488679999996,5.567889999999991 431.6231868,5.332980000000006 425.2525868,5.116070000000008 418.88348679999996,4.9173000000000116 412.5162868,4.7368199999999945 406.15138679999995,4.574799999999996 399.78948679999996,4.431420000000003 393.4311868,4.307200000000009 387.07688679999995,4.202910000000003 380.7271868,4.119310000000013 374.38258679999996,4.057140000000004 368.0434868,4.0171299999999945 361.71018680000003,4.0 355.38298679999997,4.006479999999996 349.0621868,4.0372799999999955 342.7479868,4.093099999999993 336.4403868,4.174639999999997 330.1396868,4.282589999999999 323.8457868,4.417649999999995 317.5586868,4.5804899999999975 311.27838679999996,4.771820000000005 305.0047868,4.9923200000000065 298.7377868,5.242639999999994 292.4771868,5.523229999999998 286.2230868,5.834499999999991 279.9753868,6.176820000000006 273.7340868,6.550580000000011 267.49928679999994,6.956180000000003 261.27068679999996,7.394009999999994 255.04858679999998,7.864489999999989 248.83268679999998,8.368009999999998 242.62308679999998,8.904979999999995 236.41968679999997,9.47581000000001 230.2225868,10.080929999999995 224.03158679999999,10.72075000000001 217.8467868,11.395700000000005 211.6681868,12.106220000000008 205.4956868,12.852740000000011 199.32928679999998,13.635869999999997 193.16998679999998,14.457530000000006 187.0204868,15.320059999999998 180.88518679999999,16.22547 174.77008679999997,17.175399999999996 168.68278679999997,18.17102 162.63238679999998,19.21298 156.62888679999998,20.301329999999993 150.6832868,21.43553 144.8050868,22.61439 138.99718679999998,23.83737 133.2553868,25.105399999999996 127.56898679999999,26.42098 121.9219868,27.78844 116.29258680000001,29.21418 110.6533868,30.707240000000006 104.9690868,32.280170000000005 99.1949868,33.94862 93.2961368,35.71676 87.2911168,37.5677 81.2745168,39.458 75.4106668,41.32326 69.86068680000001,43.14703 64.6851968,44.96135 59.8660968,46.80356 55.3530568,48.71011 51.0877668,50.712489999999995 47.0129968,52.804750000000006 43.0723968,54.97102 39.206966800000004,57.20917 35.3479368,59.53123 31.4007168,61.96925 27.2019868,64.59889 22.688136800000002,67.50124 18.9015068,70.07414 16.1879268,72.01814 14.1512168,73.54383 12.542033799999999,74.81107 11.2177908,75.91158 10.0981518,76.89651 9.134925800000001,77.796453 8.297171800000001,78.6311 7.5639188,79.41392 6.9203638000000005,80.154571 6.3557418000000006,80.860261 5.8620728,81.536544 5.4333728,82.187827 5.065158,82.817687 4.7541087,83.429103 4.4978548,84.024608 4.2948306,84.606399 4.14418695,85.176434 4.04574713,85.73649 4.0,86.288227 4.00813144,86.8332382 4.07209726,87.3731012 4.19443132,87.9094317 4.3755561,88.4439002 4.6150342,88.978121 4.9132434,89.513654 5.271402800000001,90.052055 5.6916318,90.594927 6.1770668,91.143971 6.7320508,91.701043 7.3624298,92.268231 8.075988800000001,92.847941 8.883124800000001,93.44301300000001 9.7978728,94.056881 10.8395318,94.693758 12.035281799999998,95.358835 13.4243968,96.058292 15.0643468,96.798219 17.0339368,97.57833 19.4382468,98.38146 22.434846800000003,99.17714000000001 26.0931868,99.91205 30.247346800000003,100.58648 34.7918768,101.28012 39.6992068,101.98977 44.9155768,102.69262 50.3677668,103.36197 55.9784968,103.97036 61.6972968,104.50168 67.5078468,104.95783 73.4014568,105.34467000000001 79.37670680000001,105.67027 85.4380268,105.94371 91.5840768,106.17248000000001 97.80932680000001,106.36407 104.1050868,106.52665 110.4602868,106.6678 116.8643868,106.79084 123.3074868,106.89814 129.7793868,106.99231 136.2700868,107.0761 142.7697868,107.15242 149.26918679999997,107.22424000000001 155.7595868,107.29454 162.2328868,107.36399 168.6824868,107.42891 175.10418679999998,107.48523 181.4954868,107.52901 187.8561868,107.55648 194.1876868,107.56395 200.49358679999997,107.54783 206.7784868,107.50462 213.0488868,107.43334 219.31068679999998,107.33601 225.5694868,107.21474 231.83018679999998,107.07155 238.0970868,106.90841 244.37398679999998,106.72729 250.6640868,106.53014 256.97018679999996,106.3189 263.2945868,106.09559 269.6387868,105.86223 276.0038868,105.6209 282.3903868,105.37378 288.7981868,105.12306 295.22638679999994,104.87104 301.6735868,104.62009 308.1374868,104.37252 314.6153868,104.12917 321.10448679999996,103.88975 327.6020868,103.65397 334.0989868,103.42174 340.5916868,103.19274 347.08188679999995,102.96649 353.5712868,102.74249 360.0611868,102.52026000000001 366.55268679999995,102.29935 373.0466868,102.07929 379.5438868,101.85964 386.0435868,101.63998 392.5404868,101.42007 399.0336868,101.1995 405.52358680000003,100.97784 412.01078679999995,100.75481 418.4957868,100.53053 424.97908679999995,100.30514 431.46138679999996,100.07881 437.94298679999997,99.85168 444.4243868,99.62392 450.9059868,99.39567 457.38798679999996,99.16711 463.8708868,98.93838 470.3547868,98.70966 476.8399868,98.48111 483.3264868,98.25289 489.81458680000003,98.02517 496.3042868,97.79812 502.79558679999997,97.57192 509.2884868,97.34669 515.7828868,97.122309 522.2787868,96.898519 528.7758868000001,96.67506900000001 535.2739868,96.451706 541.7728867999999,96.228181 548.2720868,96.004246 554.7713868,95.779655 561.2701868,95.554162 567.7680868,95.327527 574.2644868,95.09951 580.7588867999999,94.869872 587.2505868000001,94.63838 593.7387868,94.404803 600.2229868000001,94.168914 606.7021867999999,93.930499 613.1756868,93.689814 619.6427868000001,93.447701 626.1032868,93.205033 632.5567867999999,92.96267 639.0033867999999,92.721457 645.4433868,92.482226 651.8770867999999,92.245799 658.3050867999999,92.012984 664.7283868,91.784581 671.1477868000001,91.561379 677.5646868,91.344163 683.9802867999999,91.133712 690.3962868,90.930806 696.8145868,90.736223 703.2369868,90.550751 709.6657868,90.375015 716.1031868,90.208657 722.5506868,90.050963 729.0094868,89.901232 735.4803868,89.758773 741.9634867999999,89.6229 748.4583868,89.492931 754.9583868,89.368293 761.4500868,89.248515 767.9342868,89.132831 774.4136867999999,89.020463 780.8910868,88.910629 787.3699868,88.802548 793.8542868,88.695431 800.3484867999999,88.588482 806.8457868,88.481098 813.3235868,88.3734311 819.7770868,88.2659361 826.2039868,88.1590571 832.6031868,88.0532031 838.9753868,87.9487492 845.3223868,87.8460395 851.6473868,87.7453907 857.9546868,87.6470964 864.2498868,87.55143214 870.5394868,87.45866045 876.8315868,87.3690368 883.1352868,87.2828158 889.4613868,87.2002586 895.8221867999999,87.1216406 902.2321868,87.0472622 908.7054868,86.9775693 915.1588868,86.9147918 921.5396868,86.8609949 927.8680867999999,86.8174249 934.1782868,86.7853165 940.5183867999999,86.7660945 946.9521867999999,86.7616379 953.3379868,86.7738945 959.4669868000001,86.8026858 965.2880868,86.8458146 970.7797867999999,86.9006021 975.9427867999999,86.9645944 980.7912868,87.0357041 985.3464868,87.1122342 989.6323868,87.1928415 993.6733868,87.2764792 997.4923868000001,87.3623372 1001.1107867999999,87.44979065 1004.1009868,87.52655" stroke="black" stroke-width="2.0" /></svg>