<?xml version="1.0" encoding="utf-8" ?>
<svg baseProfile="full" height="113.341467" version="1.1" width="1012.2871868" xmlns="http://www.w3.org/2000/svg" xmlns:ev="http://www.w3.org/2001/xml-events" xmlns:xlink="http://www.w3.org/1999/xlink"><defs /><polygon fill="none" points="1004.2871868,89.98907 1001.4290868,89.450693 998.0479868,88.812791 994.5710868,88.155703 990.9931868,87.47829 987.3081868,86.77935 983.5098868,86.05756 979.5916867999999,85.31155 975.5465868,84.53981999999999 971.3670867999999,83.74083 967.0454867999999,82.91293 962.5739868,82.05442 957.9443868,81.16356 953.1487867999999,80.23859999999999 948.1795867999999,79.27783 943.0297868,78.27967 937.6937868,77.24271999999999 932.1673868,76.16593 926.4491868,75.0487 920.5412868,73.8911 914.4497868,72.69404 908.1862868,71.45949 901.7701868,70.19099 895.3526867999999,68.9189 889.0294868,67.66372 882.7717868,66.42123 876.5550867999999,65.18796 870.3587868000001,63.96118 864.1652868,62.73876 857.9595868,61.51913 851.7287868,60.30116999999999 845.4620868,59.084239999999994 839.1504868,57.86819 832.7871868,56.65339 826.3676868,55.440749999999994 819.8925868,54.232209999999995 813.4293868,53.04204 807.0100868,51.87744 800.6255868,50.737809999999996 794.2656868,49.62101 787.9208868,48.524 781.5828868,47.44405 775.2448867999999,46.37871 768.9005867999999,45.32576999999999 762.5449868,44.28323 756.1739868,43.249249999999996 749.7842868,42.22217 743.3734867999999,41.20048 736.9404867999999,40.18281999999999 730.4848867999999,39.16797 724.0074867999999,38.15483999999999 717.5102868,37.14253 710.9963868,36.13027 704.4700868,35.11745 697.9388868,34.10444999999999 691.4079868,33.093509999999995 684.8766867999999,32.08654 678.3523868,31.08672 671.8386867999999,30.096580000000003 665.3380867999999,29.118480000000005 658.8525867999999,28.154619999999994 652.3831868,27.207040000000006 645.9302868,26.277649999999994 639.4938868,25.36824 633.0729868,24.480450000000005 626.6661868,23.615849999999995 620.2713868,22.77588 613.8859868,21.96195 607.5067868,21.175390000000007 601.1301867999999,20.41744 594.7520867999999,19.68775000000001 588.3691868,18.984439999999992 581.9783868,18.305639999999997 575.5770868,17.649600000000007 569.1632867999999,17.014619999999994 562.7351868000001,16.39907000000001 556.2915867999999,15.801369999999991 549.8315868,15.219959999999986 543.3549868,14.653329999999997 536.8617868,14.099989999999991 530.3527868,13.558459999999997 523.8290868,13.027280000000005 517.2923868,12.505009999999999 510.74498679999994,11.99024 504.1895868,11.481539999999995 497.62958679999997,10.97806 491.0681868,10.48097 484.5080868,9.991889999999998 477.95188679999995,9.5124 471.40158679999996,9.044049999999999 464.8591868,8.588319999999996 458.3259868,8.146659999999997 451.8031868,7.720460000000003 445.2914868,7.311059999999998 438.7911868,6.919780000000003 432.3025868,6.547889999999995 425.82538679999993,6.196619999999996 419.35898679999997,5.867159999999998 412.90268679999997,5.56071 406.45528679999995,5.27843 400.01538679999993,5.021469999999994 393.58168679999994,4.790869999999998 387.15298679999995,4.58762999999999 380.72858679999996,4.412739999999999 374.3077868,4.267239999999987 367.8903868,4.152169999999998 361.47638679999994,4.068579999999997 355.0658868,4.0175100000000015 348.6593868,4.0 342.2576868,4.017089999999996 335.8616868,4.069779999999994 329.47268679999996,4.15907 323.0919868,4.285889999999995 316.72138679999995,4.451139999999995 310.3627868,4.65567999999999 304.0181868,4.900279999999995 297.6899868,5.185549999999992 291.38038679999994,5.511660000000006 285.09098679999994,5.878709999999998 278.8224868,6.2867999999999995 272.5750868,6.736060000000009 266.3480868,7.226680000000002 260.1402868,7.7589399999999955 253.94978680000003,8.333219999999997 247.77408680000002,8.950009999999992 241.6101868,9.609939999999995 235.45438679999998,10.313829999999996 229.3023868,11.062679999999986 223.1491868,11.85772 216.9891868,12.700450000000004 210.8160868,13.592680000000001 204.6224868,14.536569999999998 198.4002868,15.534419999999997 192.1426868,16.587259999999986 185.84848680000002,17.69492000000001 179.5227868,18.855999999999995 173.1778868,20.067499999999995 166.8332868,21.32454 160.51538680000002,22.62021 154.2562868,23.94572000000001 148.0905868,25.291619999999995 142.04368680000002,26.652869999999993 136.1198868,28.02915 130.30638679999998,29.424040000000005 124.5769868,30.84464 118.8942868,32.30171 113.20908680000001,33.810469999999995 107.4558868,35.39263 101.5424168,37.08078999999999 95.37409679999999,38.91943 89.3934568,40.79534 83.7505168,42.66569 78.3335068,44.56742 73.0162668,46.549080000000004 67.6457968,48.680080000000004 61.9946968,51.07867999999999 56.1995568,53.722519999999996 51.2440668,56.14612 47.0355768,58.34122 43.3614768,60.38125 40.0495668,62.33842 36.972546799999996,64.27713 34.024366799999996,66.26593 31.089976800000002,68.40209999999999 27.9738468,70.88646 24.128936799999998,74.25204 19.6044568,78.37797 16.3374968,81.29409 14.0736408,83.27302 12.3632088,84.79057 10.988419799999999,86.0496 9.8426978,87.14276 8.8671398,88.119504 8.0257908,89.009445 7.2950928,89.831826 6.6588198,90.599938 6.1053968,91.323398 5.6263787999999995,92.009428 5.2155381,92.663623 4.8682870000000005,93.290431 4.5813103,93.893473 4.35232554,94.47575499999999 4.1799319,95.03983 4.0635211,95.587902 4.0032404,96.121921 4.0,96.643646 4.0555275,97.15470739999999 4.1724767,97.6566582 4.35456851,98.1510282 4.6044581,98.63933589999999 4.9223082,99.12297 5.3090708,99.603165 5.7668517999999995,100.081032 6.2990358,100.55759 6.9105108,101.033765 7.6080407999999995,101.510393 8.4008238,101.988177 9.3013808,102.46759399999999 10.3269488,102.948691 11.5017318,103.43060799999999 12.860588800000002,103.910447 14.454866800000001,104.38032199999999 16.3589068,104.818823 18.6687668,105.169966 21.549506800000003,105.341467 25.1833568,105.214417 29.515486799999998,104.795227 34.4133668,104.31175 39.858556799999995,103.823497 45.773096800000005,103.329406 52.0241268,102.82323 58.4739268,102.292487 65.0403368,101.734781 71.6011268,101.16430799999999 78.11109680000001,100.589758 84.61403680000001,100.012027 91.1428268,99.432907 97.6830168,98.858471 104.17510680000001,98.2986173 110.6270868,97.7552204 117.0491868,97.2222954 123.4490868,96.692304 129.8325868,96.15804 136.2037868,95.612537 142.5654868,95.049007 148.9186868,94.460808 155.2631868,93.84145 161.5980868,93.188643 167.9241868,92.510457 174.24298679999998,91.816497 180.5562868,91.116271 186.8666868,90.41919899999999 193.1768868,89.734631 199.49028679999998,89.071879 205.81068679999998,88.440221 212.1417868,87.84521 218.48648680000002,87.28498 224.8469868,86.75685 231.2253868,86.25818 237.6230868,85.78637 244.0413868,85.33884 250.48088679999998,84.91302 256.9418868,84.50631 263.4243868,84.11612 269.92748679999994,83.73983 276.45028679999996,83.37478 282.9909868,83.0183 289.5472868,82.6677 296.11668679999997,82.32024 302.6955868,81.97321 309.2803868,81.6242 315.8671868,81.27355 322.45258679999995,80.92299 329.0337868,80.57421 335.6082868,80.22888999999999 342.1743868,79.88864 348.7304868,79.55505 355.27578679999993,79.22968 361.8095868,78.91402 368.33208679999996,78.60952999999999 374.8434868,78.31764 381.3446868,78.03975 387.8369868,77.77722 394.32208679999997,77.53141 400.80198679999995,77.30367 407.27908679999996,77.09528 413.75628679999994,76.90625 420.23578679999997,76.73512 426.71998679999996,76.58042 433.21068679999996,76.44069 439.7092868,76.31449 446.21708679999995,76.20036999999999 452.7349868,76.0969 459.26368679999996,76.00265999999999 465.80328679999997,75.91619 472.3538868,75.83604 478.9150868,75.76076 485.48608679999995,75.68888 492.0656868,75.6189 498.6525868,75.54933 505.2449868,75.47868 511.84058680000004,75.40611 518.4374867999999,75.33246 525.0335868000001,75.2589 531.6273868,75.18654 538.2174868,75.11653 544.8024868,75.04999 551.3814868000001,74.98802 557.9537868,74.93173999999999 564.5187868,74.88222999999999 571.0761868,74.84057999999999 577.6257868,74.80786 584.1677867999999,74.78511999999999 590.7024868,74.77342 597.2302867999999,74.77381 603.7520867999999,74.78734 610.2686868,74.81497999999999 616.7808868,74.8573 623.2894868,74.91474 629.7950867999999,74.98778 636.2981867999999,75.07686 642.7989868,75.18245 649.2977867999999,75.30499999999999 655.7944868,75.44498 662.2890868,75.60285 668.7813868000001,75.77905 675.2709868,75.97403 681.7573868,76.18824 688.2399868,76.42209 694.7180867999999,76.676 701.1907868,76.95036999999999 707.6570868,77.24554 714.1159868,77.56094999999999 720.5672867999999,77.89525 727.0108868,78.24707 733.4476867999999,78.61511 739.8787868,78.99808999999999 746.3060868,79.39479 752.7316867999999,79.80404 759.1584868,80.22473 765.5898867999999,80.65579 772.0297868,81.09624 778.4828868,81.54509999999999 784.9541868,82.00148 791.4497868,82.46453 797.9761867999999,82.93343999999999 804.5408868,83.40741 811.1116867999999,83.88302999999999 817.6310867999999,84.35583 824.0953867999999,84.82545999999999 830.5051867999999,85.29185 836.8634868,85.75514 843.1752868,86.21562 849.4477868,86.67372 855.6899868,87.13002 861.9125868,87.58523 868.1280868,88.04020299999999 874.3509868,88.495932 880.5983868,88.953592 886.8899868,89.414569 893.2493868,89.880525 899.7050868,90.353469 906.2545868,90.833142 912.6837868,91.30381 918.9309868,91.760977 924.9844868,92.203786 930.8379868,92.631812 936.4901868,93.044966 941.9431868,93.443417 947.2015868,93.82751999999999 952.2719867999999,94.197765 957.1619868,94.554721 961.8796868,94.899004 966.4339868,95.231253 970.8331868,95.552103 975.0858868,95.862179 979.2000867999999,96.162083 983.1837868,96.45239099999999 987.0441867999999,96.733647 990.7882868,97.0063639 994.4225868,97.2710238 997.9532868,97.5280762 1001.3860867999999,97.7779412 1004.2871868,97.98907" stroke="black" stroke-width="2.0" /></svg>