<?xml version="1.0" encoding="utf-8" ?>
<svg baseProfile="full" height="222.25883" version="1.1" width="1013.259392" xmlns="http://www.w3.org/2000/svg" xmlns:ev="http://www.w3.org/2001/xml-events" xmlns:xlink="http://www.w3.org/1999/xlink"><defs /><polygon fill="none" points="1005.259392,146.7611 1000.9173920000001,145.717303 995.6935920000001,144.461115 990.2203920000001,143.144389 984.478792,141.762555 978.450692,140.311101 972.118992,138.78588 965.4705920000001,137.18358 958.498092,135.50233 951.203792,133.74258 943.601692,131.90807 935.714992,130.00536 927.573992,128.04285 919.212492,126.03004999999999 910.6637920000001,123.97649 901.956092,121.89056 893.110392,119.77776 884.145692,117.64142 875.0810920000001,115.48464 865.935592,113.31029999999998 856.7270920000001,111.12093999999999 847.471592,108.91859 838.182992,106.70473999999999 828.8728920000001,104.48024999999998 819.549592,102.24525 810.2184920000001,99.99919 800.8820920000001,97.74081 791.5395920000001,95.4699 782.1893920000001,93.18790999999999 772.8296920000001,90.89638 763.4588920000001,88.59689 754.0753920000001,86.29104 744.6775920000001,83.98046 735.264092,81.6668 725.833292,79.35175999999998 716.383992,77.03705999999998 706.9145920000001,74.72446 697.424092,72.41548999999999 687.912392,70.10981 678.3808920000001,67.80654999999999 668.832592,65.50522 659.272192,63.205659999999995 649.705592,60.90805999999999 640.1406920000001,58.613 630.586592,56.32137999999999 621.0536920000001,54.034459999999996 611.5539920000001,51.75381999999999 602.100192,49.481329999999986 592.705092,47.22139999999999 583.3797920000001,44.98169999999999 574.133892,42.76959999999998 564.975592,40.59179999999999 555.911692,38.454599999999985 546.9476920000001,36.36319999999999 538.087792,34.3224 529.335092,32.33619999999999 520.691692,30.408299999999997 512.1588919999999,28.5415 503.736892,26.738100000000003 495.42549199999996,25.000499999999988 487.223492,23.330299999999994 479.128092,21.728899999999996 471.134592,20.197100000000006 463.237492,18.73539999999997 455.43029199999995,17.34389999999999 447.705592,16.022599999999983 440.055492,14.771500000000003 432.47169199999996,13.590399999999988 424.945092,12.479399999999998 417.46649199999996,11.438499999999976 410.026192,10.467799999999983 402.613792,9.567699999999974 395.219092,8.73769999999999 387.83399199999997,7.976599999999991 380.452392,7.282999999999987 373.070892,6.656499999999994 365.68819199999996,6.096799999999973 358.30539200000004,5.603599999999972 350.925592,5.176899999999989 343.554292,4.816800000000001 336.199092,4.522999999999996 328.869492,4.2952999999999975 321.576792,4.132899999999978 314.33369200000004,4.034999999999968 307.154092,4.0 300.052392,4.026499999999999 293.042592,4.115100000000012 286.135292,4.267600000000016 279.33739199999997,4.484899999999982 272.65219199999996,4.767799999999994 266.080192,5.116800000000012 259.619992,5.532199999999989 253.268092,6.014199999999988 247.01999199999997,6.563199999999995 240.869992,7.179699999999968 234.81169199999997,7.8641999999999825 228.83799199999999,8.617700000000013 222.941692,9.44119999999998 217.114792,10.336299999999994 211.349292,11.3048 205.636692,12.349099999999993 199.968292,13.471199999999982 194.336392,14.6695 188.736792,15.94119999999998 183.168692,17.28279999999998 177.63489199999998,18.689899999999994 172.141192,20.15719999999999 166.69629199999997,21.678499999999985 161.31109199999997,23.246499999999997 155.99869199999998,24.852999999999994 150.773292,26.48939999999999 145.649092,28.150899999999993 140.63759199999998,29.834399999999988 135.746992,31.53689999999999 130.982392,33.255999999999986 126.34659200000002,34.989599999999996 121.840192,36.73599999999999 117.46239200000001,38.49369999999999 113.21089200000002,40.26169999999999 109.082692,42.03899999999999 105.074172,43.825 101.181402,45.61909999999999 97.40120200000001,47.420199999999994 93.73128200000001,49.22699999999999 90.16985199999999,51.03752 86.715482,52.849959999999996 83.366842,54.66221999999999 80.122602,56.4722 76.981362,58.277829999999994 73.94155200000002,60.07706999999999 71.001422,61.86798 68.159002,63.64878 65.41215199999999,65.4178 62.758511999999996,67.17357999999999 60.195572,68.9148 57.720672,70.64031999999999 55.33105199999999,72.34919 53.023962,74.04039999999999 50.797002,75.71227999999999 48.647912,77.36312 46.574442,78.99144 44.574352000000005,80.59598 42.645352,82.17566999999998 40.785171999999996,83.72966999999998 38.991492,85.25733 37.262032,86.75819 35.594462,88.23192 33.986502,89.67837999999999 32.435902,91.09754 30.940421999999998,92.48947999999999 29.497902000000003,93.85452 28.106541999999997,95.19551999999999 26.764892000000003,96.51715999999999 25.471482,97.82357999999999 24.224882,99.11834999999999 23.023632,100.40455 21.866301999999997,101.6848 20.751452,102.96135 19.677682,104.23612 18.643591999999998,105.51074999999999 17.647812000000002,106.78658999999999 16.689442,108.06390999999999 15.768712,109.34052 14.885785,110.61422999999999 14.040573,111.88329999999999 13.23283,113.1463 12.46218,114.40214 11.728169000000001,115.64993999999999 11.030291,116.88904 10.368012,118.11895999999999 9.740795,119.33933999999999 9.148109,120.54992999999999 8.589443,121.75057999999999 8.064313,122.94122999999999 7.572268,124.12186 7.1129,125.29252 6.685839,126.45326999999999 6.290766,127.60425 5.9274070000000005,128.74559 5.5955395,129.87745999999999 5.29499389,131.00002999999998 5.0256543,132.11352 4.787461,133.21812 4.5804122,134.31405999999998 4.4045664,135.40157 4.2600447,136.48087999999998 4.147034,137.55223999999998 4.065791,138.61589999999998 4.016644,139.672099 4.0,140.721111 4.016352,141.763199 4.06628,142.798634 4.1504650000000005,143.827698 4.2696928,144.85067899999999 4.4248715,145.867875 4.6170388,146.879595 4.8473812,147.88616399999998 5.1172515,148.8879205 5.4281374,149.88522369999998 5.7806063000000005,150.87844099999998 6.1743286,151.867894 6.609049,152.85383299999998 7.084614,153.836437 7.600962,154.815808 8.158112,155.791968 8.756149,156.764852 9.395218,157.734297 10.075505,158.70003499999999 10.79722,159.66167 11.560580999999999,160.61867999999998 12.365788,161.57038 13.212992,162.51588999999998 14.102260000000001,163.45413 15.03353,164.38378 16.006552,165.30325 17.020832,166.21061 18.075532000000003,167.10362 19.170181999999997,167.98072 20.305352,168.84211 21.481741999999997,169.68832 22.699992,170.52004 23.960752,171.33819 25.264642000000002,172.14388 26.612312000000003,172.93849999999998 28.004392000000003,173.7237 29.441561999999998,174.50151 30.924562,175.27425 32.454772,176.04339 34.034302000000004,176.80908 35.665482,177.57141 37.350752,178.33051999999998 39.092712,179.08653999999999 40.894152,179.83965999999998 42.758022,180.59011999999998 44.687431999999994,181.3382 46.685672000000004,182.08423 48.756222,182.82864 50.902682,183.57193999999998 53.128802,184.31473 55.438421999999996,185.05775 57.835741999999996,185.80169999999998 60.326132,186.54679 62.915562,187.29313 65.61039199999999,188.0409 68.417352,188.79038 71.34357200000001,189.5419 74.396512,190.29595 77.583892,191.05318 80.913582,191.81444 84.39349200000001,192.58086 88.031322,193.35388999999998 91.834372,194.13546 95.809212,194.92799 99.961352,195.73462999999998 104.294852,196.55930999999998 108.812092,197.40628999999998 113.51459200000001,198.27535 118.401992,199.16326999999998 123.47149200000001,200.06592999999998 128.717492,200.97834 134.132092,201.89473999999998 139.70589199999998,202.80874999999997 145.42839199999997,203.71362 151.289892,204.60246 157.282692,205.4685 163.401492,206.30608 169.64189199999998,207.11102 176.000392,207.87936 182.47459199999997,208.60724 189.064292,209.29092 195.771392,209.92675 202.60139199999998,210.5111 209.56369199999997,211.0405 216.67169199999998,211.51459 223.93959199999998,211.9354 231.381192,212.30509999999998 239.009292,212.62607 246.83449199999998,212.90102 254.864992,213.13321 263.10419199999995,213.32655 271.54909200000003,213.48591 280.18839199999996,213.61717 288.999792,213.72746 297.948192,213.82506 306.98479199999997,213.91921 316.049992,214.01454999999999 325.08619200000004,214.10408 334.04749200000003,214.17953 342.901592,214.23335 351.629192,214.25883 360.22239199999996,214.25011 368.682892,214.20198 377.01989199999997,214.10969 385.24859200000003,213.96868999999998 393.389092,213.77441 401.465692,213.52190000000002 409.507192,213.20584 417.544992,212.82497999999998 425.60849199999996,212.38187 433.72389200000003,211.87863 441.91529199999997,211.31698 450.20429199999995,210.69844999999998 458.610592,210.02452 467.151092,209.29688 475.839792,208.51761 484.686492,207.68948 493.695492,206.81626 502.863492,205.90303999999998 512.1782919999999,204.95614999999998 521.620492,203.97992 531.169292,202.97737999999998 540.804292,201.9517 550.506292,200.90615 560.258192,199.84392 570.045292,198.76807 579.855992,197.68142 589.6817920000001,196.58649 599.517992,195.48543 609.363192,194.38002 619.2187920000001,193.27109 629.086692,192.15867 638.967892,191.04282999999998 648.8629920000001,189.92367 658.7716920000001,188.80142 668.693292,187.67633 678.626292,186.54877 688.5684920000001,185.41917 698.5171920000001,184.28803 708.468792,183.15595 718.4191920000001,182.02347 728.3643920000001,180.89096 738.3004920000001,179.75875 748.223792,178.62715 758.130792,177.49644 768.018492,176.36688999999998 777.8838920000001,175.23871 787.724392,174.11211 797.537492,172.98726 807.3211920000001,171.86433 817.073092,170.7439 826.788992,169.6277 836.4607920000001,168.51799 846.0776920000001,167.41729999999998 855.625492,166.32847999999998 865.088192,165.25453 874.447492,164.19856 883.684792,163.16362999999998 892.780892,162.15270999999998 901.7174920000001,161.1685 910.4771920000001,160.21317 919.042292,159.285594 927.390492,158.383009 935.497292,157.50354 943.3394920000001,156.645995 950.8972920000001,155.809619 958.1564920000001,154.99392799999998 965.1097920000001,154.199577 971.758492,153.428 978.110692,152.679846 984.178792,151.955111 989.9778920000001,151.25333799999999 995.524092,150.57377599999998 1000.8338920000001,149.9154973 1005.259392,149.3611" stroke="black" stroke-width="2.0" /></svg>