<?xml version="1.0" encoding="utf-8" ?>
<svg baseProfile="full" height="138.28766000000002" version="1.1" width="1012.05385708" xmlns="http://www.w3.org/2000/svg" xmlns:ev="http://www.w3.org/2001/xml-events" xmlns:xlink="http://www.w3.org/1999/xlink"><defs /><polygon fill="none" points="1004.05385708,102.77579 1000.57355708,101.774761 996.40565708,100.595446 992.06105708,99.388663 987.52725708,98.15379300000001 982.7916570799999,96.890519 977.8416570799999,95.598965 972.6655570799999,94.27988 967.25325708,92.934859 961.59745708,91.56662 955.6956570799999,90.1793 949.5517570799999,88.77844 943.1779570799999,87.36785 936.59305708,85.94936 929.8207570799999,84.52426 922.88835708,83.09297000000001 915.82415708,81.65475 908.6553570799999,80.20741000000001 901.4055570799999,78.74716000000001 894.09275708,77.27191 886.73135708,75.78484 879.3347570799999,74.28969000000001 871.9153570799999,72.78999 864.4843570799999,71.28908 857.0512570799999,69.78994 849.62385708,68.29522 842.20825708,66.80718999999999 834.80865708,65.32772 827.42745708,63.85831 820.0654570799999,62.400110000000005 812.72175708,60.953880000000005 805.39365708,59.52008 798.0771570799999,58.09883 790.76755708,56.689400000000006 783.46035708,55.290710000000004 776.15195708,53.90186 768.8393570799999,52.522040000000004 761.5203570799999,51.15061 754.1929570799999,49.78705 746.85635708,48.43098 739.5099570799999,47.08211 732.1540570799999,45.740320000000004 724.7895570799999,44.405550000000005 717.4180570799999,43.07792 710.0417570799999,41.75761 702.6638570799998,40.444950000000006 695.2876570799999,39.140539999999994 687.9168570799999,37.84583000000001 680.55465708,36.56245 673.20365708,35.29191 665.8659570799999,34.03559999999999 658.5433570799999,32.79482 651.2369570799999,31.570750000000004 643.9476570799999,30.36448 636.6757570799999,29.177000000000007 629.42115708,28.009209999999996 622.18325708,26.861920000000012 614.96135708,25.7359 607.7541570799999,24.631820000000005 600.55995708,23.550300000000007 593.37685708,22.49185 586.20325708,21.456739999999996 579.03765708,20.44529999999999 571.8787570799999,19.457880000000003 564.72595708,18.4949 557.57845708,17.55681 550.4361570799999,16.644109999999998 543.29885708,15.757320000000007 536.16695708,14.897009999999995 529.04095708,14.063739999999996 521.92155708,13.258120000000005 514.80975708,12.48075 507.70695707999994,11.732240000000004 500.61465708000003,11.01321 493.53455708,10.32435000000001 486.46845708,9.66664999999999 479.41755708,9.041049999999998 472.38285708,8.448459999999997 465.36495707999995,7.8896799999999985 458.36405708,7.365519999999989 451.38005708000003,6.876689999999996 444.41235708,6.423900000000003 437.46015708000004,6.007850000000005 430.52235707999995,5.629199999999997 423.59755708,5.288620000000009 416.68395708,4.9868100000000055 409.77965708000005,4.724459999999993 402.88215708,4.5023100000000085 395.98905708,4.321029999999993 389.09745707999997,4.18056 382.20535708,4.080460000000002 375.31065708,4.020380000000003 368.41185708,4.0 361.50795708,4.019050000000007 354.59805708,4.077269999999999 347.68185708,4.174430000000001 340.75945708,4.310270000000003 333.83125708,4.484549999999999 326.89805708,4.696990000000014 319.96115708,4.947289999999995 313.02225708,5.235109999999992 306.08345708,5.560029999999998 299.14715708,5.921610000000001 292.21655708,6.320310000000006 285.29525708,6.758099999999999 278.38745708,7.237020000000001 271.49775708,7.758960000000002 264.63085708,8.325640000000007 257.79195708000003,8.938640000000007 250.98615708,9.5993 244.21905708,10.308779999999999 237.49615708,11.067989999999995 230.82295708,11.877620000000007 224.20515708,12.738100000000003 217.64815707999998,13.649600000000007 211.15715708,14.612070000000003 204.73715708,15.62518 198.39315707999998,16.68835999999999 192.12835708,17.800870000000003 185.94095708,18.962559999999996 179.82305707999998,20.174580000000006 173.76155708,21.439459999999997 167.73835708000001,22.761359999999996 161.73095708,24.146380000000008 155.71085707999998,25.603040000000007 149.64285708,27.143010000000004 143.48455708,28.7778 137.20125708,30.512640000000005 130.78005708,32.34646000000001 124.23795708,34.26834000000001 117.63185708,36.25359 111.05965708,38.26244 104.64745708000001,40.24468999999999 98.51975708,42.15217 92.75817708000001,43.97467 87.36091708000001,45.73754 82.27332708,47.47486 77.42417708,49.22278 72.73896708,51.01251 68.16351708,52.8458 63.693237079999996,54.70227 59.36353708,56.546130000000005 55.23090708,58.33354 51.350547080000005,60.024170000000005 47.76238708,61.60191 44.474487079999996,63.07904 41.46673708,64.47316000000001 38.70903708,65.80108 36.170547080000006,67.07729 33.82336708,68.31364 31.643987080000002,69.5195 29.61214708,70.70265 27.710627080000002,71.86964 25.92379708,73.02667 24.23775708,74.17916 22.643517080000002,75.32918000000001 21.135187079999998,76.47630000000001 19.708417080000004,77.61849000000001 18.35945708,78.75292999999999 17.08462708,79.87654 15.88001708,80.98643 14.74328708,82.07936000000001 13.67665008,83.15094 12.680479080000001,84.19871 11.75314908,85.22197 10.89200308,86.22107 10.093959080000001,87.19701 9.35586608,88.15107 8.674691079999999,89.0847 8.04762608,89.99939 7.47212608,90.8966 6.94593008,91.77777 6.4670530799999995,92.64424 6.03378108,93.497319 5.64465508,94.338218 5.29845508,95.168102 4.99419208,95.988075 4.73109558,96.799193 4.50860448,97.602469 4.32636348,98.398887 4.18422128,99.189407 4.08223216,99.974974 4.02066235,100.756532 4.0,101.535029 4.02097098,102.3114358 4.08453121,103.0867417 4.19078878,103.861614 4.33867778,104.636231 4.52730338,105.410676 4.75601108,106.18497 5.0243655799999996,106.95907 5.3321350800000005,107.732863 5.67928008,108.50616 6.06594608,109.278689 6.49246008,110.050082 6.95933308,110.81986 7.46725608,111.587412 8.01710908,112.351972 8.60996808,113.11259 9.24711108,113.86807 9.93002908,114.61697 10.66043908,115.35746 11.44028608,116.08731 12.27175708,116.80373 13.15727208,117.50325 14.09946708,118.18152 15.10117708,118.83308 16.165307079999998,119.45103 17.29472708,120.02665 18.49310708,120.55261 19.766547080000002,121.02835999999999 21.12222708,121.45502 22.56823708,121.83491000000001 24.113587080000002,122.17222 25.76812708,122.47382 27.54228708,122.75069 29.446277079999998,123.01983 31.48953708,123.30279999999999 33.68444708,123.60679999999999 36.04438708,123.93263 38.58133708,124.28037 41.304557079999995,124.64907 44.21926708,125.03643 47.32605708,125.43856 50.62274708,125.85016999999999 54.10954708,126.26513 57.79700708,126.67762 61.70665708,127.08524 65.86230708,127.48667 70.28682708000001,127.87995000000001 74.99818708,128.26241 80.00264708,128.63039 85.28600708,128.97862 90.81566708,129.29898 96.55157708,129.58316 102.45610708,129.82404 108.50475708,130.01605999999998 114.68855708000001,130.15708999999998 121.00125708,130.24733 127.43555708,130.28766000000002 133.98305708,130.27958999999998 140.63495708000002,130.22531 147.38175708,130.12765000000002 154.21395708,129.99003 161.12215708,129.81606 168.09785707999998,129.60766 175.13275708,129.36633 182.21915708,129.09383 189.34995708,128.79208 196.51875708,128.4632 203.72035707999999,128.10938 210.95055707999998,127.73272 218.20605708,127.33419 225.48355708,126.91436 232.77995707999997,126.47382 240.09255707999998,126.01319 247.41865708,125.53311 254.75605707999998,125.03427 262.10245708,124.51731000000001 269.45615707999997,123.98294 276.81555708,123.43181 284.17945707999996,122.8646 291.54695708,122.28198 298.91725708,121.68459 306.29015708000003,121.07306 313.66555708,120.44832 321.04365708,119.81198 328.42465708000003,119.1657 335.80895708,118.51116 343.19685708,117.85004 350.58855708,117.18402 357.98455708,116.5148 365.38525708000003,115.84405 372.79105708,115.17347 380.20235708,114.50476 387.61965708,113.83961 395.04355707999997,113.17975 402.47465708000004,112.52687 409.91335707999997,111.882578 417.36015708,111.247335 424.81515708,110.62105 432.27815708,110.003647 439.74855708,109.395074 447.22565708,108.7953 454.70825708,108.204314 462.19495708000005,107.622121 469.68405708,107.048743 477.17355707999997,106.484217 484.66105708000003,105.928591 492.14405708,105.381925 499.61955708,104.844287 507.0843570800001,104.315763 514.53535708,103.796971 521.9697570799999,103.2891701 529.3854570799999,102.79358827 536.7810570799999,102.3113807 544.1558570799999,101.843633 551.50985708,101.391368 558.8434570799999,100.955552 566.15785708,100.537104 573.45465708,100.13690700000001 580.7359570799999,99.755812 588.0046570799999,99.394654 595.26385708,99.054262 602.5172570799999,98.735468 609.7693570799998,98.438969 617.02425708,98.164391 624.28565708,97.910933 631.5567570799999,97.677856 638.83995708,97.464466 646.13695708,97.27010800000001 653.44915708,97.094155 660.7767570799999,96.935998 668.1197570799999,96.795035 675.47725708,96.670668 682.8473570799999,96.562292 690.2279570799999,96.46929 697.61565708,96.391025 705.00665708,96.32684 712.3963570799999,96.276363 719.78055708,96.23998 727.15575708,96.218171 734.51925708,96.211381 741.86945708,96.220034 749.2053570799999,96.244538 756.52695708,96.285293 763.83495708,96.34270000000001 771.1309570799999,96.417174 778.41725708,96.509148 785.69675708,96.61908700000001 792.9733570799999,96.74749800000001 800.25155708,96.894943 807.5366570799999,97.062041 814.8344570799999,97.249228 822.1490570799999,97.45671300000001 829.4826570799999,97.684673 836.8353570799999,97.933233 844.20505708,98.20244 851.5874570799999,98.492222 858.9758570799999,98.802363 866.36135708,99.132466 873.73265708,99.481932 881.07685708,99.84994 888.3790570799999,100.235439 895.6232570799999,100.637152 902.7928570799999,101.053598 909.87095708,101.481698 916.8403570799999,101.9090102 923.68305708,102.3202485 930.3807570799999,102.70172305 936.9166570799999,103.0416816 943.27565708,103.3305364 949.4459570799999,103.5609556 955.4185570799999,103.7278308 961.18835708,103.830542 966.75385708,103.874549 972.11745708,103.865814 977.28435708,103.80995 982.2614570799999,103.7121296 987.0568570799999,103.57705 991.67925708,103.4089291 996.1376570799999,103.2115265 1000.44105708,102.9881756 1004.05385708,102.77579" stroke="black" stroke-width="2.0" /></svg>