<?xml version="1.0" encoding="utf-8" ?>
<svg baseProfile="full" height="138.59462000000002" version="1.1" width="1012.01986376" xmlns="http://www.w3.org/2000/svg" xmlns:ev="http://www.w3.org/2001/xml-events" xmlns:xlink="http://www.w3.org/1999/xlink"><defs /><polygon fill="none" points="1004.01986376,96.16299000000001 1000.3688637600001,95.306385 995.96946376,94.273126 991.35236376,93.18751900000001 986.50246376,92.04579600000001 981.40566376,90.84444500000001 976.05066376,89.58058000000001 970.4312637600001,88.25247 964.54896376,86.86021000000001 958.41656376,85.40656000000001 952.06116376,83.89773000000001 945.5254637600001,82.34427000000001 938.85996376,80.76003 932.11576376,79.15929000000001 925.33846376,77.55515000000001 918.56416376,75.95839000000001 911.81666376,74.37675000000002 905.10686376,72.81486000000001 898.43426376,71.27434000000001 891.7919637599999,69.75432 885.17296376,68.25353000000001 878.57106376,66.77092 871.9807637600001,65.30562 865.39716376,63.856930000000006 858.81566376,62.424290000000006 852.23226376,61.00731000000001 845.64356376,59.60571000000001 839.0463637600001,58.21935000000001 832.4379637600001,56.84819000000001 825.81626376,55.49235000000001 819.17926376,54.15201000000001 812.52566376,52.82751000000001 805.85456376,51.51926 799.1654637600001,50.22772000000001 792.4583637600001,48.95258000000001 785.73366376,47.69313000000001 778.99166376,46.448640000000005 772.23306376,45.21844000000001 765.45866376,44.00182 758.66926376,42.79812000000001 751.86596376,41.60669000000001 745.05026376,40.42687000000001 738.22336376,39.258030000000005 731.3869637600001,38.099560000000004 724.54296376,36.950840000000014 717.69326376,35.81128 710.8398637600001,34.680310000000006 703.98536376,33.557350000000014 697.13186376,32.44219000000001 690.28166376,31.335910000000013 683.43656376,30.239869999999996 676.59816376,29.155350000000013 669.76766376,28.08360000000002 662.9463637599999,27.025800000000004 656.13496376,25.98306000000001 649.3339637600001,24.95647000000001 642.5439637600001,23.94704 635.76486376,22.955730000000003 628.9965637600001,21.983460000000008 622.23876376,21.031110000000012 615.49106376,20.099509999999995 608.75246376,19.189470000000014 602.02216376,18.301770000000005 595.2990637600001,17.437020000000018 588.58216376,16.595610000000008 581.8705637600001,15.777950000000018 575.16376376,14.984459999999999 568.46096376,14.215570000000014 561.7616637599999,13.471720000000005 555.0654637600001,12.753400000000013 548.37206376,12.061090000000007 541.68116376,11.395280000000014 534.99266376,10.756470000000007 528.30656376,10.145190000000014 521.62296376,9.56195000000001 514.9418637599999,9.007289999999998 508.26366376000004,8.48172000000001 501.58856376,7.985780000000005 494.91706376,7.51973000000001 488.24966376000003,7.08344000000001 481.58616376000003,6.676750000000013 474.92656376,6.2994699999999995 468.27046376000004,5.951420000000013 461.61706376,5.632400000000004 454.96556376,5.342240000000018 448.31466376000003,5.080759999999998 441.66286376000005,4.84781000000001 435.00866376000005,4.643240000000006 428.35006376,4.466950000000011 421.68466376000003,4.318850000000012 415.01006376000004,4.198900000000009 408.32346376,4.107100000000003 401.62176376,4.043480000000002 394.90146376,4.007920000000013 388.15976376,4.0 381.39456376000004,4.019310000000019 374.60516376000004,4.065460000000002 367.79146376,4.1380300000000005 360.95486376,4.236570000000015 354.09786376,4.360590000000016 347.22406376000004,4.5094899999999996 340.33856376000006,4.682590000000005 333.44746376,4.879100000000008 326.55836376,5.098090000000013 319.67996376,5.338490000000007 312.82166376000004,5.599090000000004 305.99426376,5.878550000000004 299.20866376,6.175670000000011 292.47586376000004,6.491980000000012 285.80416376,6.830500000000001 279.19856376,7.194130000000001 272.66166376,7.5856700000000075 266.19326376000004,8.007800000000003 259.79116375999996,8.4632 253.45136376,8.954530000000005 247.16836375999998,9.484550000000013 240.93516376,10.05614 234.74376376,10.672420000000002 228.58466376,11.336780000000005 222.44726376,12.053060000000002 216.31956376,12.825570000000013 210.18806375999998,13.659360000000007 204.03746375999998,14.560320000000004 197.85006376,15.533890000000014 191.60886376,16.57963000000001 185.30226376000002,17.694789999999998 178.92606376,18.875190000000018 172.48436375999998,20.11466 165.99096376,21.40440000000001 159.47096376,22.732610000000008 152.95986376,24.08451000000001 146.50216376,25.44847 140.13936376,26.82646000000001 133.89926376,28.22381 127.79586376,29.64704000000002 121.83286376000001,31.10350000000001 116.00546376000001,32.60132 110.30296376000001,34.14943000000001 104.71056376,35.75764000000001 99.21036376,37.43558000000001 93.78777376000001,39.18459000000001 88.43954376,41.00030000000001 83.17340376,42.87478000000001 78.00600376000001,44.79639 72.96122376,46.75275000000001 68.06895376000001,48.73368000000001 63.36068376,50.72626000000001 58.86442376,52.715740000000004 54.60090376,54.68747000000001 50.58276376,56.62928 46.819453759999995,58.53570000000001 43.31293376,60.40392000000001 40.05703376,62.232060000000004 37.03999376,64.01921000000002 34.24673376,65.76533 31.66066376,67.47105 29.264853759999998,69.13750000000002 27.042623759999998,70.76522 24.97904376,72.34864 23.06463376,73.87854000000002 21.29226376,75.34619 19.65453376,76.74514 18.142843759999998,78.07188000000001 16.74757376,79.32575 15.46045376,80.51011000000001 14.28361376,81.64053000000001 13.21766876,82.73484 12.259065759999999,83.80766 11.39973976,84.86839 10.60654776,85.90278 9.84230376,86.88787 9.097016759999999,87.81794000000001 8.39545476,88.71408000000001 7.75826376,89.59734 7.18804976,90.478796 6.67295876,91.358169 6.203393759999999,92.23235600000001 5.7723597600000005,93.09675000000001 5.38117876,93.945519 5.03489276,94.77474600000001 4.73624656,95.583403 4.48665706,96.37228900000001 4.28702926,97.143286 4.13831186,97.898926 4.04190282,98.64217900000001 4.0,99.37638890000001 4.015986112,100.10533806000001 4.0934022,100.83350170000001 4.22996386,101.56608100000001 4.42230246,102.30789700000001 4.66777476,103.06322700000001 4.96384246,103.835768 5.30731676,104.628343 5.6933317599999995,105.442284 6.113998759999999,106.276346 6.563247759999999,107.125792 7.046357759999999,107.984502 7.57190576,108.847272 8.151055759999998,109.710751 8.79592276,110.57222000000002 9.51549976,111.42530000000001 10.31897276,112.26044 11.214401760000001,113.06569 12.20912676,113.82831 13.311308760000001,114.54292000000001 14.52422376,115.22575 15.84690376,115.90136000000001 17.27086376,116.60151 18.790733760000002,117.34337000000001 20.41050376,118.12286 22.133373759999998,118.93201 23.96175376,119.75969 25.89835376,120.59190000000001 27.94879376,121.41254 30.12565376,122.20466 32.44866376,122.95989 34.94068376,123.67906 37.628713760000004,124.36369 40.54485376,125.01607000000001 43.727513759999994,125.64028 47.21829376,126.24303 51.05341376,126.83544 55.24267376,127.43499000000001 59.74422376,128.04748 64.47822376,128.64487000000003 69.35707376000002,129.19368 74.32095376000001,129.66462 79.36445376,130.03439 84.54738376000002,130.29083 89.95918376,130.44898 95.68533376,130.52949 101.79262376000001,130.55843000000002 108.28866376,130.57156 115.09396376000001,130.5847 122.08476376,130.59394 129.09446376,130.59462000000002 136.10796376000002,130.5824 143.04006376,130.55343 149.86226376,130.50447000000003 156.59126375999998,130.43249 163.26636376000002,130.33665000000002 169.92586376,130.21901000000003 176.59986376,130.08148 183.31166376,129.92587 190.07786375999999,129.75394 196.90856376,129.56766 203.80576376,129.36928 210.76336375999998,129.16112 217.77006376,128.94439 224.78726376,128.72089 231.77736376,128.49252 238.74946376,128.25973 245.71166376,128.02296 252.67126376,127.78265 259.63416376,127.53927 266.60506376000006,127.29333000000001 273.58786376,127.04537 280.58506376,126.79599 287.59806376,126.54580000000001 294.62386376,126.29563 301.63996376,126.04695000000001 308.64346376000003,125.80053000000001 315.63746376,125.55640000000001 322.62466376000003,125.31427000000001 329.60786376,125.07387 336.58916376,124.83494000000002 343.57056376,124.59722000000001 350.55376376000004,124.36048000000001 357.54026376,124.12449000000001 364.53106376,123.88904000000001 371.52696376,123.65390000000001 378.52866376,123.41888 385.53626376,123.1838 392.54976376,122.94846000000001 399.56876376,122.71270000000001 406.59276376,122.47636 413.62076376,122.23936 420.65096376,122.0018 427.67946376000003,121.76387000000001 434.70636376000004,121.52559000000001 441.73226376,121.28699 448.75776376000005,121.04809 455.78326376,120.80893 462.80926376,120.56952000000001 469.83596376,120.32990000000001 476.86356376,120.09012000000001 483.89216376,119.8502 490.92196376000004,119.61019000000002 497.95256376000003,119.37013000000002 504.98266376000004,119.13012 512.01216376,118.89020000000001 519.0413637600001,118.65038000000001 526.07036376,118.41066000000001 533.09926376,118.17105000000001 540.12836376,117.93157000000001 547.15766376,117.69222 554.1871637600001,117.45301 561.21686376,117.21397 568.24676376,116.97511 575.27666376,116.73645 582.30646376,116.498 589.33596376,116.25979000000001 596.36506376,116.02184000000001 603.39336376,115.78416000000001 610.42056376,115.54678000000001 617.44636376,115.30963000000001 624.47056376,115.07261000000001 631.4930637599999,114.83563000000001 638.5137637600001,114.59859 645.53266376,114.36139 652.5498637600001,114.12393 659.56556376,113.88611 666.58016376,113.6478 673.5937637600001,113.40891 680.60696376,113.16931000000001 687.6202637600001,112.92890000000001 694.63426376,112.68755000000002 701.64966376,112.44514000000001 708.66706376,112.20156 715.68736376,111.95699 722.71106376,111.71180000000001 729.73816376,111.46636000000001 736.76796376,111.22108 743.79606376,110.97651 750.82236376,110.73303000000001 757.84806376,110.49099000000001 764.87456376,110.25073 771.90376376,110.01256000000001 778.93156376,109.77701200000001 785.9522637599999,109.54466000000001 792.96306376,109.31597000000001 799.96076376,109.091406 806.94206376,108.87141000000001 813.9037637600001,108.65564900000001 820.84306376,108.442835 827.75846376,108.23161200000001 834.64946376,108.020622 841.51636376,107.808502 848.3605637600001,107.59389300000001 855.18436376,107.375426 861.99076376,107.15172500000001 868.78356376,106.92139300000001 875.56766376,106.68300400000001 882.34836376,106.43508600000001 889.13226376,106.176106 895.92646376,105.904447 902.73956376,105.61838200000001 909.58046376,105.316291 916.45486376,104.99830700000001 923.35646376,104.665839 930.26576376,104.32106100000001 937.1497637599999,103.96698400000001 943.96416376,103.60740200000001 950.6573637600001,103.24666 957.17626376,102.88925700000001 963.4742637600001,102.538847 969.5196637600001,102.197776 975.29656376,101.867541 980.80136376,101.548938 986.03936376,101.24222400000001 991.0214637600001,100.9472808 995.76166376,100.6637391 1000.2758637600001,100.391084 1004.01986376,100.16299000000001" stroke="black" stroke-width="2.0" /></svg>