<?xml version="1.0" encoding="utf-8" ?>
<svg baseProfile="full" height="96.6632" version="1.1" width="1011.997866567" xmlns="http://www.w3.org/2000/svg" xmlns:ev="http://www.w3.org/2001/xml-events" xmlns:xlink="http://www.w3.org/1999/xlink"><defs /><polygon fill="none" points="1003.997866567,67.95069000000001 1000.851066567,67.2046306 996.5756665669999,66.221756 991.683066567,65.138363 986.430266567,64.020402 980.981766567,62.90556 975.370466567,61.799523 969.6230665669999,60.704943 963.769666567,59.623766 957.841566567,58.558363 951.866066567,57.51173 945.864266567,56.485380000000006 939.8495665669999,55.479110000000006 933.826866567,54.491200000000006 927.794466567,53.519400000000005 921.749666567,52.561890000000005 915.690866567,51.617050000000006 909.617566567,50.683440000000004 903.530266567,49.75976 897.4305665669999,48.84489000000001 891.3210665669999,47.93829 885.203966567,47.039860000000004 879.081166567,46.14941 872.954566567,45.26673 866.8251665669999,44.39152 860.6940665669999,43.52344 854.5618665669999,42.66211 848.428666567,41.807320000000004 842.294566567,40.95909 836.159766567,40.117470000000004 830.024266567,39.28247 823.8879665669999,38.45413 817.7508665669999,37.63246 811.612866567,36.81748 805.4739665669999,36.0092 799.334066567,35.207620000000006 793.1928665669999,34.41274000000001 787.050566567,33.62454 780.907166567,32.84306 774.762766567,32.06829 768.6175665669999,31.30028 762.471766567,30.539049999999996 756.325766567,29.784640000000003 750.1797665669999,29.03711 744.0343665669999,28.296670000000006 737.889666567,27.563629999999996 731.746066567,26.838300000000004 725.603566567,26.12097 719.462466567,25.411929999999998 713.322566567,24.711450000000006 707.183766567,24.01979 701.0460665669999,23.337220000000002 694.9092665669999,22.66397 688.7728665669999,22.000260000000004 682.636766567,21.346200000000003 676.5006665669999,20.701860000000003 670.3643665669999,20.067349999999998 664.227766567,19.44278 658.090766567,18.828249999999997 651.953466567,18.223870000000005 645.815766567,17.62977 639.677866567,17.046070000000007 633.5397665669999,16.472890000000007 627.401766567,15.910399999999996 621.264066567,15.358790000000006 615.126666567,14.818289999999998 608.9898665669999,14.289130000000007 602.853766567,13.771520000000002 596.718266567,13.265680000000003 590.5835665669999,12.771799999999999 584.449466567,12.290109999999999 578.315966567,11.820789999999995 572.183166567,11.364060000000002 566.050666567,10.920110000000001 559.918466567,10.489080000000001 553.7864665669999,10.07105 547.654466567,9.666130000000003 541.5225665669999,9.274410000000003 535.390466567,8.895980000000002 529.258166567,8.530940000000001 523.1257665669999,8.179390000000005 516.993166567,7.841430000000003 510.86026656700005,7.517160000000004 504.727266567,7.206690000000002 498.594066567,6.910119999999999 492.460766567,6.627519999999997 486.327366567,6.358969999999999 480.193966567,6.104550000000003 474.060566567,5.864319999999999 467.92716656700003,5.638360000000006 461.793766567,5.426729999999999 455.660466567,5.229519999999994 449.52716656700005,5.046780000000005 443.393966567,4.878600000000006 437.260766567,4.725050000000003 431.127666567,4.586180000000006 424.994566567,4.462000000000003 418.86146656700004,4.352550000000001 412.728466567,4.2578299999999984 406.59536656700004,4.177860000000003 400.462366567,4.1126700000000085 394.329266567,4.062260000000002 388.196266567,4.026670000000003 382.063066567,4.005909999999993 375.929966567,4.0 369.796666567,4.008970000000005 363.663466567,4.032870000000003 357.530466567,4.07179 351.398266567,4.125810000000001 345.26746656700004,4.194969999999998 339.139066567,4.27937 333.014066567,4.379340000000006 326.89316656700004,4.495389999999993 320.77646656700006,4.628009999999996 314.66396656700005,4.777720000000009 308.55496656700006,4.945040000000006 302.44886656700004,5.13035 296.345366567,5.333970000000001 290.244666567,5.556170000000002 284.14766656700004,5.797229999999999 278.05546656700005,6.057430000000004 271.969666567,6.337429999999998 265.891266567,6.638070000000006 259.82086656700005,6.960210000000004 253.758566567,7.304729999999999 247.704066567,7.67248 241.656766567,8.064170000000004 235.616366567,8.4805 229.582566567,8.922159999999998 223.55506656699998,9.389830000000003 217.533766567,9.884100000000004 211.518866567,10.405480000000004 205.510366567,10.954440000000005 199.508666567,11.53145 193.514166567,12.136989999999997 187.52766656699998,12.771660000000004 181.549566567,13.43607 175.580766567,14.130810000000004 169.62186656699998,14.856470000000002 163.673666567,15.613750000000003 157.736666567,16.40345 151.81096656699998,17.22638 145.896266567,18.083399999999997 139.992966567,18.97531 134.10196656699998,19.902700000000003 128.22566656700002,20.86596 122.36746656700001,21.865500000000004 116.531566567,22.902590000000004 110.722166567,23.97871 104.943466567,25.095170000000003 99.19988656700001,26.25387 93.496036567,27.45738 87.83670656700001,28.708060000000003 82.227006567,30.00831 76.673996567,31.361020000000003 71.187066567,32.76820000000001 65.77783656700001,34.231320000000004 60.462136567,35.753 55.259276567,37.33408 50.19097656700001,38.97359 45.282346567,40.67012 40.558636567,42.41915 36.050736567,44.21131 31.817046567,46.02194 27.923116566999997,47.81336 24.414926567,49.55175 21.304276567,51.212559999999996 18.571916567000002,52.782430000000005 16.203656567,54.24928 14.182106567000002,55.59849 12.467813567,56.8279 11.011779567000001,57.952692 9.763724567,58.995162 8.681289567,59.974317 7.732856567000001,60.904962 6.904888567,61.800137 6.195330567,62.665562 5.600034567,63.500713000000005 5.110663567,64.30358000000001 4.717368867,65.07186899999999 4.415011367,65.80314100000001 4.197401067,66.50205 4.059522407,67.17699780000001 4.0,67.8376973 4.021658517,68.4949977 4.124268067,69.158464 4.308047667,69.834438 4.577999767,70.526419 4.942596867,71.233274 5.410859567,71.945765 5.990636567,72.655798 6.687534567,73.360209 7.502880567,74.057721 8.433555566999999,74.75112 9.480665566999999,75.447095 10.664644567,76.14956000000001 12.014538567000002,76.862649 13.565440567000001,77.591863 15.355426567,78.34217 17.425656567,79.11035 19.815126567,79.88894 22.557736567,80.67139 25.693946566999998,81.44942 29.257016567,82.20759 33.255066567,82.93111 37.673546567,83.60527 42.467496567,84.21919 47.58276656700001,84.77276 52.96754656700001,85.26765 58.562046567,85.71173 64.31070656700001,86.1122 70.16729656700001,86.47325000000001 76.100326567,86.80139 82.089856567,87.10066 88.116166567,87.37412 94.158756567,87.62427 100.201356567,87.84965 106.23676656699999,88.0481 112.266766567,88.21809999999999 118.297866567,88.35977 124.334466567,88.47374 130.377666567,88.56054 136.426566567,88.62066 142.480066567,88.65468 148.53866656699998,88.6632 154.604266567,88.64685 160.679366567,88.60692 166.76656656699998,88.54511 172.867766567,88.46309 178.98456656699997,88.36261 185.117866567,88.24583 191.268366567,88.11518000000001 197.43586656699998,87.97311 203.61976656699997,87.82213 209.81866656699998,87.66439 216.030366567,87.50181 222.252166567,87.33636 228.480266567,87.17004 234.71076656699998,87.00431 240.94016656699998,86.83977 247.16646656700001,86.67694 253.389066567,86.51628 259.60846656700005,86.35818 265.82606656700005,86.20275000000001 272.043166567,86.04998 278.260866567,85.89989 284.48026656700006,85.75251 290.70216656700006,85.60768 296.927266567,85.46495 303.155766567,85.32383 309.387366567,85.18384 315.621766567,85.04452 321.857866567,84.9056 328.095066567,84.76701 334.332766567,84.62869 340.570566567,84.49059 346.808066567,84.35262 353.045166567,84.21481 359.281966567,84.0772 365.51836656700004,83.93985 371.754366567,83.80283 377.990266567,83.66618 384.22616656700006,83.52992 390.462066567,83.394 396.698266567,83.25842 402.934666567,83.12312 409.17136656700006,82.98808 415.40836656700003,82.85328 421.645766567,82.71868 427.88336656700005,82.58426 434.121166567,82.44999 440.35896656700004,82.31584000000001 446.59676656700003,82.1818 452.834466567,82.04793000000001 459.071766567,81.91425 465.308766567,81.78081 471.545466567,81.64765 477.781666567,81.51481 484.017566567,81.38233 490.253166567,81.25025 496.488466567,81.1186 502.723666567,80.98743 508.95876656700005,80.85677 515.1941665670001,80.72658 521.4296665669999,80.59682000000001 527.6655665669999,80.46744 533.901866567,80.33838 540.138566567,80.2096 546.3757665669999,80.08105 552.613366567,79.95268 558.851366567,79.82444000000001 565.089766567,79.69629 571.3283665669999,79.56817 577.567066567,79.44008 583.805766567,79.31205 590.044366567,79.18412000000001 596.2828665669999,79.05633 602.521066567,78.92871 608.758966567,78.80131 614.9964665669999,78.67417 621.233666567,78.54732 627.4703665669999,78.4208 633.706566567,78.29466 639.942366567,78.16889 646.177666567,78.0434 652.412666567,77.918092 658.647166567,77.792839 664.8813665669999,77.66753 671.115166567,77.542049 677.348866567,77.416283 683.582466567,77.290116 689.816066567,77.163432 696.049766567,77.036116 702.283666567,76.908098 708.5179665669999,76.779447 714.752666567,76.650252 720.987866567,76.520607 727.223666567,76.390603 733.4599665669999,76.260334 739.696766567,76.129895 745.933866567,75.99938 752.1713665670001,75.868885 758.408866567,75.738496 764.646466567,75.608199 770.8838665669999,75.477919 777.1209665669999,75.34758000000001 783.357766567,75.217107 789.594166567,75.086422 795.8300665669999,74.955448 802.065666567,74.824107 808.300866567,74.69232 814.535766567,74.560037 820.770566567,74.42732000000001 827.005166567,74.294264 833.239866567,74.160962 839.474666567,74.027506 845.709766567,73.89399 851.945366567,73.760507 858.181466567,73.627149 864.418366567,73.493893 870.655666567,73.360379 876.892966567,73.226192 883.1288665669999,73.090933 889.361666567,72.954211 895.5891665669999,72.815654 901.8087665669999,72.67490000000001 908.017266567,72.531261 914.212366567,72.383238 920.3926665669999,72.22921 926.558566567,72.067554 932.711166567,71.89663 938.8531665669999,71.714768 944.986566567,71.519578 951.106566567,71.307703 957.197966567,71.076177 963.235966567,70.822754 969.188466567,70.545945 975.0201665669999,70.242176 980.699266567,69.906532 986.200766567,69.535692 991.497466567,69.129052 996.441966567,68.7013072 1000.7856665669999,68.2845604 1003.997866567,67.95069000000001" stroke="black" stroke-width="2.0" /></svg>