<?xml version="1.0" encoding="utf-8" ?>
<svg baseProfile="full" height="262.004" version="1.1" width="1011.997701513" xmlns="http://www.w3.org/2000/svg" xmlns:ev="http://www.w3.org/2001/xml-events" xmlns:xlink="http://www.w3.org/1999/xlink"><defs /><polygon fill="none" points="1003.997701513,124.57730000000001 998.7890015130001,123.07382900000002 992.539001513,121.28142500000001 986.0132015130001,119.42344000000001 979.1969015130001,117.49743000000001 972.0773015130001,115.50178000000001 964.645801513,113.43609000000001 956.899101513,111.30173 948.8425015130001,109.10242000000001 940.490201513,106.84433000000001 931.863101513,104.53524000000002 922.9861015130001,102.18387000000001 913.8861015130001,99.79919000000001 904.588701513,97.38956000000002 895.115401513,94.96203 885.4849015130001,92.52263000000002 875.7163015130001,90.07730000000001 865.829201513,87.63184000000001 855.8426015130001,85.19169000000002 845.774401513,82.76178000000002 835.6407015130001,80.34640000000002 825.455201513,77.94907 815.228701513,75.57249000000002 804.9688015130001,73.21853000000002 794.679901513,70.88823000000001 784.364501513,68.58231 774.024801513,66.30149000000002 763.6631015130001,64.04644 753.281601513,61.817830000000015 742.882701513,59.61631 732.4686015130001,57.44249000000001 722.041701513,55.296980000000005 711.6044015130001,53.18036000000001 701.1591015130001,51.09316000000001 690.7081015130001,49.03605000000002 680.2544015130001,47.00996000000002 669.801501513,45.015940000000015 659.3539015130001,43.055130000000005 648.9165015130001,41.12875000000001 638.495101513,39.23808000000001 628.0959015130001,37.38441 617.7259015129999,35.56907000000001 607.392401513,33.79336000000001 597.103201513,32.058620000000005 586.8655015130001,30.366980000000012 576.685201513,28.72080000000001 566.566201513,27.12190000000001 556.510901513,25.571900000000014 546.5202015130001,24.072100000000006 536.5936015130001,22.62320000000001 526.729601513,21.226100000000017 516.925301513,19.88120000000002 507.176901513,18.58880000000002 497.480001513,17.349300000000014 487.829901513,16.162400000000005 478.223901513,15.028000000000006 468.66080151299997,13.946200000000005 459.14110151299997,12.917200000000022 449.66690151299997,11.94120000000001 440.24140151299997,11.018900000000016 430.869301513,10.150500000000008 421.55640151299997,9.336500000000015 412.309301513,8.577400000000011 403.135601513,7.873200000000011 394.04310151299995,7.2246000000000095 385.039401513,6.63300000000001 376.130401513,6.099800000000016 367.32090151299997,5.626000000000005 358.614501513,5.212300000000013 350.01370151299994,4.859000000000009 341.519901513,4.566400000000002 333.13390151299996,4.3344000000000165 324.85560151299995,4.162900000000022 316.68440151299995,4.051600000000022 308.619101513,4.0 300.65810151299996,4.007800000000003 292.800201513,4.074600000000004 285.045801513,4.200900000000004 277.396601513,4.386500000000012 269.855501513,4.6314000000000135 262.426101513,4.935100000000006 255.11250151300004,5.2967000000000155 247.919301513,5.715500000000006 240.85090151300003,6.189800000000005 233.91180151300003,6.7183000000000135 227.10590151300002,7.298900000000003 220.436801513,7.929600000000008 213.90770151300003,8.608100000000007 207.52090151299998,9.331900000000019 201.278101513,10.098600000000019 195.180701513,10.905900000000003 189.228901513,11.752200000000016 183.422401513,12.63600000000001 177.759601513,13.555400000000006 172.23860151300002,14.508900000000011 166.85660151300002,15.494600000000005 161.610701513,16.510900000000007 156.49730151300002,17.556100000000015 151.513001513,18.628800000000012 146.654501513,19.727400000000003 141.919801513,20.85090000000001 137.307101513,21.997500000000016 132.815201513,23.165600000000012 128.443101513,24.35350000000001 124.189601513,25.55920000000002 120.053501513,26.78070000000001 116.033501513,28.0163 112.12780151300001,29.263800000000003 108.334801513,30.52148000000001 104.652301513,31.787480000000002 101.078281513,33.060220000000015 97.610621513,34.33915000000002 94.246981513,35.62423000000001 90.984361513,36.91546000000001 87.81941151299999,38.212950000000006 84.748551513,39.51682000000001 81.768111513,40.82723 78.874371513,42.14437000000001 76.063701513,43.468350000000015 73.332721513,44.79887000000002 70.678491513,46.13550000000001 68.098411513,47.47767000000002 65.59014151299999,48.824770000000015 63.151551513,50.176140000000004 60.780671513,51.53109000000002 58.475661513,52.88889 56.234761513,54.248810000000006 54.056291513000005,55.610140000000015 51.938781513,56.972210000000004 49.881531513000006,58.33470000000001 47.883781513,59.69745000000002 45.944571513,61.06037000000002 44.062781513000004,62.42346000000002 42.237181513,63.786770000000004 40.466461513000006,65.15038000000001 38.749281513,66.51443 37.084261513,67.87908000000002 35.470041513,69.24452000000001 33.905271513,70.61096 32.388591512999994,71.9786 30.918721512999998,73.34769000000001 29.494401513,74.71846000000002 28.114421513,76.09118000000001 26.778061512999997,77.46632000000001 25.484931513,78.84435000000002 24.234751513,80.22564000000001 23.027271513,81.61038 21.862291513,82.99867 20.739621513,84.39052000000001 19.659061512999997,85.78581000000001 18.620421513000004,87.18438 17.623461513000002,88.58598 16.667931513,89.9903 15.753501513000002,91.39688000000001 14.879681513,92.80441000000002 14.045811513000002,94.21146000000002 13.251161513000001,95.61679000000001 12.494913513000002,97.01941000000002 11.776223513000001,98.41848000000002 11.094228513000001,99.81335000000001 10.448064512999998,101.20350000000002 9.836877513000001,102.58853 9.259839513,103.96815000000001 8.716150513,105.34218000000001 8.205047513,106.71051000000001 7.725811513,108.07310000000001 7.277765513,109.42997000000001 6.860283513,110.78122000000002 6.472787513,112.12696000000001 6.114752513,113.46737000000002 5.785704513,114.80267 5.485224513,116.13308 5.212947513,117.45890000000001 4.9685645130000005,118.78042 4.751823513,120.09798800000002 4.562529313,121.41195200000001 4.400546813,122.72270300000001 4.265801713,124.03065500000001 4.158283513,125.33624800000001 4.078047823,126.63995200000001 4.025220173,127.94226600000002 4.0,129.24372290000002 4.002641397,130.54489160000003 4.033101883,131.84635600000001 4.091121583,133.148671 4.176510613,134.452356 4.289152313,135.757899 4.428999113,137.06575500000002 4.596069113,138.376352 4.790443313,139.690089 5.012263513000001,141.00734 5.261730513,142.32845 5.539102513,143.65373000000002 5.844693513,144.98349000000002 6.178873512999999,146.31797 6.542065513,147.6574 6.934745513,149.00198 7.357444513,150.35186000000002 7.810742513,151.70714 8.295267512999999,153.06789 8.811698513,154.43411 9.360756513,155.80573 9.943203513,157.18263000000002 10.559839513,158.56458 11.211493513,159.95128 11.899014513000001,161.34229000000002 12.623264513,162.73707000000002 13.385104513000002,164.13491 14.185371513,165.53498000000002 15.024881513,166.93621000000002 15.904351513,168.33736000000002 16.824441513,169.73697 17.785611513,171.13387 18.788161513,172.5277 19.832341513000003,173.91816 20.918361513,175.30505 22.046441513,176.6882 23.216741513,178.06756000000001 24.429471512999996,179.44314000000003 25.684811513,180.81506000000002 26.983011512999997,182.18355000000003 28.324351512999996,183.54898000000003 29.709231513,184.91186000000002 31.138461513,186.27259 32.613241513,187.63143000000002 34.134821513,188.98862000000003 35.704501513,190.34439 37.323611513,191.69895000000002 38.993481513,193.0525 40.715471513,194.40522 42.490921513,195.75726000000003 44.321151513,197.10875000000001 46.207431513,198.45977 48.15094151300001,199.81037000000003 50.152761513,201.16052000000002 52.213781513,202.51013 54.334671513,203.85903000000002 56.516171513,205.20684 58.759761513,206.55283 61.067101513000004,207.89623 63.439921513,209.23626000000002 65.880071513,210.57214000000002 68.38952151299999,211.90312 70.970411513,213.2285 73.625121513,214.54760000000002 76.35635151299999,215.85983000000002 79.167141513,217.16468000000003 82.061021513,218.46188 85.04172151299998,219.75163000000003 88.113031513,221.03418 91.278711513,222.30981000000003 94.542391513,223.57874 97.907451513,224.84115000000003 101.37686151300001,226.09716 104.95290151299999,227.34683 108.637501513,228.58958 112.432801513,229.8237 116.340601513,231.0474 120.36270151299999,232.2587 124.50060151299999,233.4556 128.755501513,234.6361 133.128401513,235.7981 137.62040151300002,236.93990000000002 142.232601513,238.0594 146.966101513,239.155 151.82260151300002,240.2251 156.804501513,241.26850000000002 161.91500151300002,242.28360000000004 167.15800151300002,243.2691 172.537101513,244.22320000000002 178.05550151300002,245.1443 183.716001513,246.0309 189.520901513,246.88100000000003 195.47160151300002,247.69320000000002 201.56890151300001,248.4658 207.81210151300002,249.19710000000003 214.200201513,249.88490000000002 220.731301513,250.5268 227.402801513,251.12030000000001 234.211601513,251.663 241.15390151300002,252.1528 248.22560151300002,252.58790000000002 255.422201513,252.9667 262.739001513,253.2879 270.171401513,253.55040000000002 277.715101513,253.7536 285.366601513,253.89690000000002 293.122801513,253.9804 300.98220151299995,254.00400000000002 308.94430151299997,253.96790000000001 317.010601513,253.87210000000002 325.182701513,253.716 333.461701513,253.4991 341.848501513,253.2213 350.343101513,252.88230000000001 358.944801513,252.4821 367.65220151299997,252.0209 376.46270151299996,251.4991 385.372801513,250.91750000000002 394.377701513,250.27710000000002 403.47130151299996,249.57920000000001 412.646001513,248.82550000000003 421.893901513,248.0163 431.207401513,247.15210000000002 440.57980151299995,246.2332 450.005301513,245.26010000000002 459.47940151299997,244.2332 468.998601513,243.15300000000002 478.560901513,242.0198 488.165901513,240.834 497.81480151299996,239.5954 507.51040151300003,238.3041 517.2573015130001,236.9597 527.0601015130001,235.5625 536.9224015130001,234.11290000000002 546.8471015130001,232.6113 556.8358015130001,231.0585 566.888801513,229.45530000000002 577.005301513,227.80301000000003 587.1828015130001,226.10319 597.417201513,224.35776 607.7029015130001,222.56911000000002 618.0324015130001,220.73936 628.398101513,218.8699 638.792501513,216.96208000000001 649.208901513,215.01723 659.640901513,213.0367 670.082801513,211.02178 680.5297015130001,208.97372000000001 690.977201513,206.89368000000002 701.421801513,204.78272 711.860501513,202.64179000000001 722.2911015130001,200.47154 732.711101513,198.27253000000002 743.118201513,196.04534 753.510101513,193.79059 763.8844015130001,191.5089 774.2390015130001,189.20094 784.5714015130001,186.86737 794.8794015130001,184.50889 805.160901513,182.12622000000002 815.413401513,179.72007000000002 825.6326015129999,177.29155000000003 835.810601513,174.84254 845.936601513,172.37583 855.9970015130001,169.89502000000002 865.975601513,167.40447 875.854701513,164.9092 885.615101513,162.41478 895.237301513,159.92707000000001 904.7022015130001,157.45212 913.9912015130001,154.99605000000003 923.0827015130001,152.56604000000002 931.951001513,150.1706 940.569301513,147.81883000000002 948.912501513,145.51959000000002 956.9600015130001,143.28075 964.697501513,141.10856 972.1199015130001,139.006709 979.230401513,136.97654200000002 986.037801513,135.01759700000002 992.554801513,133.128169 998.796201513,131.30573900000002 1003.997701513,129.77730000000003" stroke="black" stroke-width="2.0" /></svg>