<?xml version="1.0" encoding="utf-8" ?>
<svg baseProfile="full" height="182.10292" version="1.1" width="1012.0449493" xmlns="http://www.w3.org/2000/svg" xmlns:ev="http://www.w3.org/2001/xml-events" xmlns:xlink="http://www.w3.org/1999/xlink"><defs /><polygon fill="none" points="1004.0449493,125.25320000000002 1000.1906493,124.00795000000002 995.6228493,122.53665000000002 990.9175493,121.02610000000001 986.0677493,119.47455000000002 981.0666493,117.88026000000002 975.9070492999999,116.24154000000001 970.5823492999999,114.55678000000002 965.0858493,112.82453000000002 959.4115492999999,111.04358000000002 953.5546493,109.21304000000002 947.5112492999999,107.33249000000002 941.2795493,105.40211000000002 934.8599492999999,103.42285000000003 928.2559493,101.39658000000001 921.4746493,99.32628000000003 914.5273493,97.21617000000003 907.4298493,95.07182000000002 900.2029493,92.90020000000001 892.8710493,90.71010000000001 885.4595493,88.51135000000002 877.9934493,86.31350000000002 870.4952493,84.12536000000003 862.9851493,81.95474000000002 855.4792493,79.80818000000002 847.9900493,77.69091000000003 840.5258493,75.60685000000002 833.0910493,73.55865000000003 825.6861492999999,71.54782000000003 818.3083492999999,69.57490000000003 810.9513493000001,67.63953000000002 803.6057493,65.74064000000003 796.2595493,63.87591000000003 788.9007493,62.04094000000002 781.5188493,60.23144000000002 774.1052493,58.44369000000003 766.6527493,56.67444000000002 759.1556493,54.92086000000002 751.6102493,53.18058000000002 744.0144492999999,51.45161000000003 736.3682493,49.73238000000002 728.6739493,48.021750000000026 720.9361492999999,46.31901000000002 713.1620492999999,44.62394000000002 705.3614493,42.93676000000002 697.5469492999999,41.25856000000002 689.7312493,39.59330000000001 681.9258493,37.94573000000001 674.1406493,36.32012000000002 666.3837493,34.72027000000001 658.6613493,33.14950000000002 650.9784493000001,31.61060000000002 643.3379493,30.106000000000023 635.7415493000001,28.637700000000024 628.1894493,27.207200000000014 620.6807492999999,25.815900000000028 613.2131493,24.464800000000025 605.7836493,23.15470000000002 598.3879493,21.886100000000027 591.0218493,20.659200000000027 583.6816493,19.47380000000001 576.3639493000001,18.32980000000002 569.0655492999999,17.22750000000002 561.7837493,16.167000000000016 554.5161493,15.14870000000002 547.2606493,14.172800000000024 540.0154493,13.239800000000017 532.7787493000001,12.350300000000033 525.5494493,11.50490000000002 518.3263493,10.704000000000022 511.10854929999994,9.948500000000024 503.89554929999997,9.239000000000019 496.6868493,8.576000000000022 489.4822493,7.959300000000013 482.2813493,7.388600000000025 475.0834493,6.863300000000024 467.88764929999996,6.383200000000016 460.6927493,5.947800000000001 453.4970493,5.556800000000038 446.2990493,5.209900000000033 439.0965493,4.9068000000000325 431.8873493,4.647200000000026 424.6687493,4.431100000000015 417.4379493,4.258400000000023 410.1915493,4.128900000000016 402.9260493,4.042800000000028 395.6374493,4.0 388.3221493,4.000200000000007 380.9778493,4.043100000000038 373.60364930000003,4.128399999999999 366.2003493,4.255700000000047 358.7702493,4.4246000000000265 351.31744929999996,4.634400000000028 343.8480493,4.8846000000000345 336.3695493,5.17410000000001 328.8916493,5.501800000000031 321.42544929999997,5.866100000000017 313.9836493,6.265400000000014 306.5800493,6.69740000000003 299.2294493,7.160200000000003 291.9470493,7.655200000000036 284.7455493,8.185800000000029 277.6341493,8.755400000000009 270.6190493,9.366800000000026 263.7036493,10.022900000000021 256.88914930000004,10.726100000000017 250.17444930000002,11.478900000000024 243.5574493,12.283600000000021 237.03414930000002,13.142500000000027 230.60014930000003,14.057900000000018 224.24974930000002,15.032400000000024 217.97684930000003,16.068500000000014 211.7748493,17.16910000000003 205.6363493,18.33710000000002 199.55384930000002,19.57540000000003 193.5175493,20.88270000000003 187.51654930000004,22.255600000000015 181.5394493,23.69150000000002 175.5739493,25.188400000000016 169.6069493,26.74520000000001 163.62374930000001,28.361600000000024 157.60844930000002,30.03780000000002 151.5430493,31.775500000000022 145.4108493,33.581290000000024 139.2045493,35.467040000000026 132.92744930000003,37.44263000000002 126.5958493,39.51453000000002 120.2405493,41.68425000000002 113.90774929999999,43.946800000000025 107.6561493,46.28982000000002 101.5517293,48.693890000000025 95.65890929999999,51.13454000000003 90.0323693,53.585410000000024 84.7108193,56.02154000000003 79.71488930000001,58.42198000000002 75.0488393,60.771030000000025 70.7042093,63.05822000000002 66.6641793,65.27764000000002 62.9072493,67.42687000000002 59.4100793,69.50599000000003 56.1493293,71.51672000000002 53.1027893,73.46180000000001 50.251379299999996,75.34461000000002 47.5791093,77.16938000000002 45.0704493,78.94082000000003 42.7108393,80.66367000000002 40.4870393,82.34249000000003 38.3871693,83.98150000000001 36.4006893,85.58453000000002 34.5182893,87.15509000000003 32.7317293,88.69631000000001 31.033739299999997,90.21105000000003 29.417879299999996,91.70184000000002 27.878149299999997,93.17115000000001 26.407169299999996,94.62206000000002 24.9985993,96.05648000000002 23.647949299999997,97.47473000000002 22.3519693,98.87597000000002 21.1082193,100.25864000000001 19.9146493,101.62078000000002 18.769439300000002,102.96034000000002 17.6707993,104.27539000000002 16.6168793,105.56427000000002 15.6066393,106.82541000000002 14.6426393,108.05688000000002 13.726918300000001,109.25781000000002 12.860028300000002,110.42844000000002 12.0415773,111.56974000000002 11.270583299999998,112.68307000000001 10.545739300000001,113.77001000000001 9.8655853,114.83226000000002 9.2286173,115.87151000000001 8.6333633,116.88944000000002 8.0784263,117.88764000000002 7.562508299999999,118.86766000000001 7.0844313,119.83094000000003 6.6431363,120.77886000000002 6.2376933,121.71271000000002 5.8672983,122.63373000000001 5.5312693,123.54306800000002 5.2290523,124.44184100000003 4.9602134,125.33110400000002 4.7244408,126.21187500000002 4.5215445,127.08513700000002 4.351458,127.95185000000002 4.214241,128.81295300000002 4.11008401,129.66937700000003 4.039315289,130.52205200000003 4.00240952,131.371915 4.0,132.21992100000003 4.03289397,133.06705470000003 4.10193078,133.91429970000002 4.2068867,134.76234900000003 4.3471322,135.61171000000002 4.5222113,136.46283900000003 4.7318292,137.31614900000002 4.9758413,138.17201000000003 5.254243300000001,139.030751 5.5671663,139.89266000000003 5.9148683,140.75797900000003 6.297735299999999,141.62690000000003 6.7162743,142.49956400000002 7.1711133,143.37605000000002 7.6630003,144.25635000000003 8.1928003,145.14038000000002 8.761489300000001,146.02794000000003 9.3701513,146.91872 10.0199663,147.81220000000002 10.7121973,148.70770000000002 11.448163300000001,149.60429000000002 12.229205300000002,150.50069000000002 13.0566343,151.39528 13.9316533,152.28596000000002 14.8552593,153.17002000000002 15.8280693,154.04409 16.8501993,154.90396 17.921839300000002,155.7461 19.0441893,156.56934 20.2185293,157.37297 21.4460493,158.15652000000003 22.7279393,158.91984000000002 24.0654093,159.66316 25.459779299999997,160.38717000000003 26.9126193,161.09311000000002 28.425889299999998,161.78287000000003 30.0022593,162.45898000000003 31.6457893,163.12274000000002 33.361689299999995,163.77421 35.155859299999996,164.41342000000003 37.034979299999996,165.04044000000002 39.0066193,165.65545000000003 41.0794193,166.25869000000003 43.2632593,166.85056000000003 45.5693793,167.43163000000004 48.0105993,168.00277000000003 50.6014293,168.56524000000002 53.358039299999994,169.12085000000002 56.2983593,169.67179000000002 59.4450193,170.21740000000003 62.825609299999996,170.75480000000002 66.4719193,171.28016000000002 70.4200093,171.78837000000001 74.7094793,172.27275000000003 79.3813493,172.72464000000002 84.47348930000001,173.13322000000002 90.0126093,173.48573000000002 96.00279929999999,173.76853000000003 102.41297929999999,173.96939000000003 109.1700493,174.08081 116.1657493,174.10292 123.2791493,174.04444 130.4041493,173.92063000000002 137.4689493,173.74979000000002 144.44164930000002,173.55008000000004 151.3266493,173.33781000000002 158.15904930000002,173.12658000000002 164.99304930000002,172.91914000000003 171.8794493,172.71096000000003 178.86114930000002,172.49741000000003 185.9736493,172.27375 193.2443493,172.03501000000003 200.6890493,171.77592000000004 208.30794930000002,171.49136000000001 216.0833493,171.17982 223.99124930000002,170.84329000000002 232.0060493,170.48435 240.1019493,170.10602000000003 248.2545493,169.71158000000003 256.4415493,169.30446 264.6441493,168.88811 272.8472493,168.46591 281.04004929999996,168.04102 289.2160493,167.61641000000003 297.37314929999997,167.19478000000004 305.5130493,166.77858000000003 313.6415493,166.36919 321.7652493,165.96585000000002 329.8900493,165.56760000000003 338.0209493,165.17351000000002 346.1622493,164.78270000000003 354.3173493,164.39434000000003 362.4890493,164.00761000000003 370.6791493,163.62175000000002 378.8888493,163.23602000000002 387.1182493,162.84971000000002 395.3666493,162.46214000000003 403.63264929999997,162.07267000000002 411.91374929999995,161.68080000000003 420.20694929999996,161.28670000000002 428.5096493,160.89068000000003 436.8193493,160.49304 445.1339493,160.09407000000002 453.45154929999995,159.69407 461.7707493,159.29331000000002 470.0900493,158.89203000000003 478.4085493,158.49049000000002 486.7256493,158.08892000000003 495.04094929999997,157.68752 503.3543493,157.28650000000002 511.66604930000005,156.88600000000002 519.9765493,156.48602000000002 528.2862493,156.08648000000002 536.5954493,155.68730000000002 544.9046493000001,155.28841000000003 553.2141493,154.88975000000002 561.5244493,154.49124 569.8359493,154.0928 578.1490493,153.69438000000002 586.4639493,153.29589 594.7813493,152.89727000000002 603.1013493,152.49844000000002 611.4244493,152.09934 619.7494492999999,151.70004000000003 628.0714493,151.30077000000003 636.3902492999999,150.90156000000002 644.7061493,150.50241000000003 653.0198493,150.10330000000002 661.3321493,149.70420000000001 669.6443492999999,149.30508000000003 677.9575493,148.90589000000003 686.2733493,148.50656000000004 694.5935493,148.10703 702.9174493,147.70734000000002 711.2339493,147.30803000000003 719.5397492999999,146.90927000000002 727.8336492999999,146.51112 736.1151493,146.11358 744.3846493,145.71664 752.6431493,145.32025000000002 760.8926493,144.92430000000002 769.1357492999999,144.52866000000003 777.3757492999999,144.13318 785.6169493,143.73765000000003 793.8641493,143.34183000000002 802.1231492999999,142.94544100000002 810.4002492999999,142.54816700000003 818.7012493,142.14974500000002 827.0203493,141.75044300000002 835.3230493,141.35192100000003 843.6109493,140.95410400000003 851.8959493,140.55642100000003 860.1943492999999,140.15809000000002 868.5067492999999,139.75908900000002 876.7651493,139.36267400000003 884.9363493,138.97044100000002 892.9919493,138.58375900000001 900.9038493,138.20397800000003 908.6458493,137.832353 916.1956493,137.46995300000003 923.5371493,137.117555 930.6601493,136.77564400000003 937.5598493,136.44445600000003 944.2353492999999,136.12402600000001 950.6895493,135.81422700000002 956.9272493,135.51481600000002 962.9553493000001,135.22546800000003 968.7817492999999,134.94580100000002 974.4151492999999,134.67540300000002 979.8643493,134.413845 985.1383493,134.16069470000002 990.2461493,133.91552600000003 995.1962493,133.67792450000002 999.9970493,133.44749170000003 1004.0449493,133.25320000000002" stroke="black" stroke-width="2.0" /></svg>