<?xml version="1.0" encoding="utf-8" ?>
<svg baseProfile="full" height="171.78436" version="1.1" width="1012.1067504" xmlns="http://www.w3.org/2000/svg" xmlns:ev="http://www.w3.org/2001/xml-events" xmlns:xlink="http://www.w3.org/1999/xlink"><defs /><polygon fill="none" points="1004.1067504,128.8657 999.9712504,128.6778536 995.0340504,128.4320061 989.9080504,128.1518643 984.5844504,127.83404499999999 979.0554504,127.474944 973.3153503999999,127.07080199999999 967.3612504,126.61781599999999 961.1939504000001,126.11230799999998 954.8197504000001,125.55094999999999 948.2510504,124.93112399999998 941.5061504,124.25144399999999 934.6059504,123.51144299999999 927.5729504000001,122.71133999999999 920.4283504,121.851868 913.1911504,120.93401699999998 905.8762504,119.95871899999999 898.4924503999999,118.92654999999999 891.0444504000001,117.83798999999999 883.5359504,116.69373999999999 875.9704504,115.49462999999999 868.3515504000001,114.24161 860.6823504,112.93574999999998 852.9658504,111.57820999999998 845.2047504,110.1702 837.4011504,108.71298999999999 829.5570504,107.20785999999998 821.6735504000001,105.65607999999999 813.7514504,104.05888999999999 805.7909503999999,102.41747999999998 797.7913503999999,100.73294999999999 789.7518504,99.00614999999999 781.6716504,97.23798 773.5505504,95.42948999999999 765.3890504,93.58192 757.1878504,91.69671 748.9488504,89.77551 740.6740504,87.82022999999998 732.3666504,85.83302999999998 724.0302504000001,83.81633 715.6695504,81.77283999999999 707.2896504,79.70554999999999 698.8968504,77.61777999999998 690.4971504,75.5136 682.0958504,73.39743999999999 673.6973504,71.27351999999999 665.3046504,69.14578999999999 656.9198504000001,67.01793999999998 648.5439504000001,64.89335 640.1768504,62.77513999999998 631.8175504000001,60.666099999999986 623.4637504000001,58.56878999999998 615.1123504000001,56.48546999999999 606.7590504000001,54.41816999999999 598.3987504,52.36851999999999 590.0265504,50.336359999999985 581.6391504,48.32083999999999 573.2352504,46.321539999999985 564.8154503999999,44.33852 556.3824504,42.37227999999999 547.9406504,40.423749999999984 539.4967504,38.49427999999999 531.0591504,36.585589999999996 522.6382504000001,34.69973999999998 514.2460504,32.83905999999999 505.89595040000006,31.006089999999986 497.6023504,29.203959999999995 489.3785504,27.438999999999993 481.2349504,25.71849999999999 473.1788504,24.048299999999983 465.21515039999997,22.433399999999992 457.34645040000004,20.87809999999999 449.5732504,19.385599999999997 441.89445040000004,17.95859999999999 434.3076504,16.599099999999993 426.8090504,15.30879999999999 419.3943504,14.088999999999999 412.05815040000005,12.940499999999986 404.7946504,11.864299999999986 397.59765039999996,10.860899999999987 390.4615504,9.929199999999994 383.3811504,9.067999999999998 376.3508504,8.275999999999996 369.3655504,7.552299999999988 362.4197504,6.896199999999993 355.50805040000006,6.307099999999991 348.6250504,5.784499999999994 341.76515040000004,5.3282999999999845 334.9227504,4.938399999999987 328.0917504,4.615099999999984 321.2663504,4.358699999999985 314.4401504,4.170099999999991 307.60645039999997,4.050099999999986 300.75815040000003,4.0 293.8886504,4.020799999999994 286.9929504,4.113299999999995 280.0689504,4.278299999999987 273.1176504,4.516699999999986 266.1427504,4.829299999999989 259.1516504,5.216399999999993 252.1547504,5.677899999999994 245.1656504,6.213099999999983 238.20125040000002,6.820299999999989 231.2808504,7.496899999999997 224.42545040000002,8.239499999999992 217.6572504,9.04349999999998 210.99825040000002,9.903399999999976 204.46925040000002,10.81319999999998 198.08925040000003,11.767599999999987 191.8710504,12.766499999999994 185.81675040000002,13.812399999999997 179.9196504,14.90819999999998 174.1674504,16.057699999999983 168.54365040000002,17.265299999999982 163.0292504,18.53689999999999 157.6030504,19.87949999999998 152.2421504,21.30149999999999 146.92215040000002,22.809499999999986 141.62415040000002,24.403999999999982 136.3395504,26.083299999999994 131.0696504,27.842399999999998 125.8260504,29.672679999999986 120.62965039999999,31.561369999999997 115.5092504,33.49143999999998 110.49915039999999,35.44252999999999 105.63445039999999,37.39256999999999 100.94770039999999,39.32097999999999 96.4645804,41.22206 92.19238039999999,43.10255999999998 88.12253039999999,44.972819999999984 84.23817039999999,46.84491999999999 80.5187604,48.73194999999998 76.9423704,50.64717999999999 73.4851604,52.59516999999998 70.12935039999999,54.57128999999999 66.86608040000002,56.56742999999999 63.693050400000004,58.57262 60.6125904,60.57364999999999 57.6299104,62.556 54.7514504,64.50496 51.98387040000001,66.40753999999998 49.33586040000001,68.25822 46.812390400000005,70.05688999999998 44.4133004,71.80554 42.1352004,73.50738999999999 39.972780400000005,75.16631999999998 37.9197804,76.78638999999998 35.9696304,78.37165999999999 34.1158004,79.92600999999999 32.352050399999996,81.45307 30.6725104,82.95624999999998 29.0717504,84.43866999999999 27.5442804,85.90334999999999 26.0836304,87.35318 24.684520399999997,88.78984999999999 23.3429504,90.214 22.0557904,91.62541999999999 20.8205004,93.02338999999998 19.634890399999996,94.40678999999999 18.4969904,95.77434 17.404930399999998,97.12465999999999 16.356890399999997,98.45645999999999 15.352650399999998,99.76802999999998 14.3944304,101.05734999999999 13.483526399999999,102.32333 12.620311399999999,103.56567999999999 11.8044844,104.78465999999999 11.035325400000001,105.98091 10.311854400000001,107.15532999999999 9.632953400000002,108.30895 8.997446400000001,109.44288999999999 8.4041604,110.55832999999998 7.8519604,111.65642 7.3397784,112.73832999999999 6.8666264,113.80519 6.4316094,114.8581 6.0339314,115.89811999999999 5.6728944,116.92629 5.3479073999999995,117.94359999999999 5.0584813,118.95101299999999 4.8042332,119.94946999999999 4.5848854,120.93987999999999 4.4002676,121.92313399999999 4.2503185,122.90010999999998 4.13508883,123.871675 4.0547454,124.83869099999998 4.00957671,125.802022 4.0,126.76254399999999 4.0265705,127.72114499999999 4.08999299,128.67873699999998 4.19097692,129.6361698 4.329249,130.59359899999998 4.5041958,131.550828 4.7153595,132.50761 4.9624272000000005,133.463642 5.2452204,134.418559 5.5636854,135.37193299999998 5.9178923999999995,136.323263 6.3080254,137.271966 6.7343794,138.21737 7.1973644000000006,139.15869999999998 7.6974964,140.09506 8.235403400000001,141.02543 8.8118214,141.94863999999998 9.4275974,142.86333 10.0836894,143.76794999999998 10.7811654,144.66073 11.5212024,145.53961999999999 12.3050854,146.40224999999998 13.1342044,147.24591999999998 14.0100404,148.06751 14.9341604,148.86338999999998 15.908180399999999,149.62942999999999 16.9337504,150.36086999999998 18.012280399999998,151.05472999999998 19.144740399999996,151.71193 20.332010399999998,152.33398 21.5748504,152.92273999999998 22.8739104,153.48048 24.2295904,154.00995999999998 25.642000399999997,154.51457 27.1108604,154.9984 28.635340399999997,155.46647 30.2141804,155.92442 31.8486504,156.37433 33.5418904,156.81581 35.2972404,157.24841999999998 37.11827040000001,157.67179 39.008710400000005,158.08554999999998 40.97250040000001,158.48941 43.0137504,158.88314 45.13674040000001,159.26666 47.3459104,159.64004999999997 49.6458904,160.00359 52.041570400000005,160.35789 54.538080400000005,160.70394 57.1408704,161.04219 59.8559104,161.37075 62.6895304,161.68707999999998 65.64847040000001,161.98823 68.74023039999999,162.27083 71.9733804,162.53101999999998 75.3582104,162.76436999999999 78.9080704,162.96574999999999 82.6411804,163.13038 86.5807104,163.25888999999998 90.75223039999999,163.35484 95.1817404,163.42405 99.8923104,163.47566 104.8976504,163.52355 110.1928504,163.58038 115.75465039999999,163.64319 121.5454504,163.70450999999997 127.51925039999999,163.75506 133.6283504,163.78436 139.83245040000003,163.78136 146.1058504,163.73477 152.4425504,163.63289999999998 158.85975040000002,163.46436 165.3922504,163.22944999999999 172.0762504,162.93515 178.9467504,162.58902999999998 186.0357504,162.20006999999998 193.3700504,161.77961 200.96655040000002,161.34251999999998 208.82465040000002,160.90756 216.9232504,160.48581 225.2307504,160.08006 233.70975040000002,159.69254999999998 242.3199504,159.32502 251.0208504,158.97862999999998 259.7745504,158.65388 268.5480504,158.35064999999997 277.3150504,158.06825999999998 286.05665039999997,157.80553999999998 294.7620504,157.56101999999998 303.4274504,157.33298 312.0563504,157.11988 320.6552504,156.92193 329.23005040000004,156.73993 337.7860504,156.57470999999998 346.3273504,156.42716 354.85735040000003,156.29817 363.37865039999997,156.18869999999998 371.8932504,156.09971 380.40215040000004,156.03218999999999 388.9057504,155.98712999999998 397.40375040000004,155.96553 405.89495039999997,155.96837 414.3777504,155.99501999999998 422.85075040000004,156.04138999999998 431.3135504,156.10297 439.7662504,156.17529 448.20995039999997,156.25388999999998 456.6463504,156.33438999999998 465.07815039999997,156.41241 473.5085504,156.48361 481.9416504,156.54362999999998 490.3824504,156.58809 498.8365504,156.61256 507.31065040000004,156.61256 515.8120504000001,156.58614 524.3473504000001,156.53492 532.9224504,156.46078999999997 541.5419504,156.36563999999998 550.2095504,156.25139 558.9273504,156.12002999999999 567.6965504000001,155.97366 576.5166504,155.81444 585.3856504,155.64468 594.2997504,155.46679 603.2535504,155.28333999999998 612.2394504,155.09684 621.2489504,154.9092 630.2725504,154.72211 639.2999504000001,154.53731 648.3207504,154.35649999999998 657.3238504,154.18141 666.2980504000001,154.0137 675.2319504,153.85497999999998 684.1144504,153.70677999999998 692.9345504,153.57050999999998 701.6815504000001,153.44749 710.3454504,153.33836 718.9176504000001,153.23884999999999 727.3928504,153.14221999999998 735.7690504,153.04210999999998 744.0471504000001,152.93257 752.2303504,152.80801 760.3238504,152.66319 768.3346504,152.49316 776.2710504,152.29312 784.1424504,152.05841999999998 791.9597504000001,151.78440999999998 799.7345504,151.46638 807.4798503999999,151.09950999999998 815.2090504,150.68169 822.9340504,150.21402 830.6644504,149.69768 838.4076504,149.13375 846.1686504,148.52337999999997 853.9503504,147.86775999999998 861.7533504,147.16832 869.5758504,146.42668999999998 877.4133504,145.64487 885.2589504000001,144.8252 893.1029504,143.9705 900.9332504,143.08400999999998 908.7356503999999,142.16944999999998 916.4914504000001,141.2308 924.1743504,140.27301 931.7499504,139.30237 939.1792504,138.32614199999998 946.4226504,137.352082 953.4431503999999,136.387832 960.2108504,135.44023299999998 966.7056504000001,134.51428199999998 972.9196504,133.613172 978.8541504000001,132.738697 984.5172504,131.891573 989.9207504,131.071736 995.0789503999999,130.278589 1000.0072504,129.51119719999997 1004.1067504,128.8657" stroke="black" stroke-width="2.0" /></svg>