<?xml version="1.0" encoding="utf-8" ?>
<svg baseProfile="full" height="132.23324" version="1.1" width="1012.003404968" xmlns="http://www.w3.org/2000/svg" xmlns:ev="http://www.w3.org/2001/xml-events" xmlns:xlink="http://www.w3.org/1999/xlink"><defs /><polygon fill="none" points="1004.003404968,74.12834 1001.2343049680001,73.72210039999999 997.8837049680001,73.22479709999999 994.3465049680001,72.69296399999999 990.6019049680001,72.12228599999999 986.626604968,71.50782799999999 982.395304968,70.844026 977.8814049680001,70.124769 973.059104968,69.34366 967.906804968,68.494586 962.4135049680001,67.57277199999999 956.5877049680001,66.576469 950.4894049680001,65.513054 944.463004968,64.444029 938.5552049680001,63.38269999999999 932.694304968,62.32083999999999 926.826304968,61.25281999999999 920.9100049680001,60.17518999999999 914.914704968,59.086589999999994 908.821004968,57.98810999999999 902.6708049680001,56.89219 896.594004968,55.82454 890.5820049680001,54.78175999999999 884.617704968,53.75865999999999 878.6865049680001,52.75071 872.775904968,51.75386999999999 866.875204968,50.76452999999999 860.975004968,49.77936999999999 855.067304968,48.795289999999994 849.145404968,47.809439999999995 843.203404968,46.819089999999996 837.2370049680001,45.82169 831.242604968,44.81482 825.218304968,43.7962 819.1631049680001,42.76371999999999 813.077704968,41.71545999999999 806.964304968,40.64968 800.8267049680001,39.56501999999999 794.669604968,38.462439999999994 788.498004968,37.34506999999999 782.3293049680001,36.218509999999995 776.1698049680001,35.08642999999999 770.015204968,33.95051999999999 763.8618049680001,32.81258 757.7062049680001,31.67443999999999 751.545304968,30.538019999999996 745.3765049680001,29.40535 739.2033049680001,28.27953999999999 733.037604968,27.165229999999994 726.8803049680001,26.065049999999992 720.7314049680001,24.981359999999995 714.5905049680001,23.916469999999997 708.4567049679999,22.872539999999994 702.3287049680001,21.851679999999995 696.2051049680001,20.855349999999994 690.084604968,19.883989999999997 683.9661049680001,18.937949999999994 677.848704968,18.017609999999998 671.7313049680001,17.123379999999997 665.6132049680001,16.25569999999999 659.493504968,15.415029999999994 653.371704968,14.601859999999995 647.247104968,13.816699999999997 641.1192049680001,13.060079999999992 634.987504968,12.33254999999999 628.851704968,11.634679999999996 622.7116049680001,10.967059999999996 616.5669049680001,10.330299999999994 610.417404968,9.725009999999997 604.2633049679999,9.15182 598.104404968,8.611220000000003 591.9411049680001,8.102979999999988 585.773404968,7.626679999999993 579.601604968,7.181899999999999 573.425904968,6.768199999999993 567.2464049680001,6.385159999999999 561.063504968,6.032359999999997 554.8773049680001,5.709350000000001 548.688004968,5.415719999999993 542.4960049680001,5.151020000000003 536.301404968,4.914819999999992 530.104504968,4.706689999999995 523.905604968,4.5261799999999965 517.705004968,4.372860000000003 511.502804968,4.246289999999988 505.2994049679999,4.146010000000004 499.095104968,4.071619999999996 492.890104968,4.022959999999998 486.68470496799995,4.0 480.478904968,4.00269999999999 474.273104968,4.031019999999984 468.06740496799995,4.084919999999997 461.861904968,4.164349999999985 455.656904968,4.269289999999984 449.45250496799997,4.399669999999986 443.24870496799997,4.55547 437.04580496799997,4.736630000000005 430.843804968,4.943119999999993 424.642904968,5.174889999999991 418.443104968,5.4318899999999815 412.24460496800003,5.714089999999999 406.047304968,6.021449999999987 399.851504968,6.353869999999986 393.656904968,6.71083999999999 387.46360496799997,7.091529999999992 381.271304968,7.495109999999997 375.07990496799994,7.9207799999999935 368.88910496799997,8.367709999999988 362.69870496799996,8.83511999999999 356.508204968,9.322189999999992 350.317404968,9.82813999999999 344.125904968,10.352179999999997 337.933004968,10.893529999999991 331.738504968,11.451429999999995 325.54150496799997,12.02510999999999 319.341704968,12.61381999999999 313.138304968,13.216799999999992 306.930604968,13.833309999999997 300.71790496799997,14.462659999999993 294.49940496799996,15.104779999999991 288.274804968,15.76021999999999 282.044004968,16.429479999999998 275.807304968,17.113069999999993 269.570904968,17.810809999999996 263.34210496799994,18.522329999999997 257.119904968,19.24819999999999 250.90260496800002,19.989039999999996 244.68840496800001,20.74552 238.475204968,21.51838999999999 232.260404968,22.30843999999999 226.041104968,23.116559999999993 219.820704968,23.942829999999994 213.61490496800002,24.78559 207.428504968,25.64452999999999 201.26550496800002,26.519419999999997 195.129904968,27.410999999999994 189.023804968,28.321409999999993 182.94610496800001,29.253229999999995 176.89310496800002,30.20944999999999 170.85820496800002,31.193559999999998 164.83250496800002,32.209599999999995 158.80400496800002,33.26227999999999 152.758104968,34.357209999999995 146.67680496800003,35.49844999999999 140.546004968,36.684079999999994 134.425304968,37.896539999999995 128.360304968,39.12009 122.331804968,40.35184999999999 116.311804968,41.591179999999994 110.26340496799999,42.83958 104.144304968,44.099419999999995 98.080104968,45.33886999999999 92.15099496799999,46.53751 86.298714968,47.703829999999996 80.398244968,48.85883 74.37811496799999,50.014269999999996 68.68402496799999,51.10643999999999 63.214124968,52.18308999999999 57.617194968,53.33976 51.756794968,54.63862999999999 46.890244968,55.804719999999996 42.800514968,56.859109999999994 39.138734967999994,57.871829999999996 35.650164968000006,58.908159999999995 32.056214968000006,60.063129999999994 27.667964968000003,61.622409999999995 23.743654968,63.15933 20.372414968,64.538275 15.695894968,66.457795 12.729512968,67.69161499999998 10.857525968000001,68.52351399999999 9.455887967999999,69.197924 8.336678968,69.78566599999999 7.415203968,70.31821 6.645361968,70.81274599999999 5.999251967999999,71.279933 5.458901968,71.727004 5.012377968,72.15923099999999 4.651749068,72.580699 4.371978268,72.994766 4.170305068,73.4043566 4.045945178,73.8121728 4.0,74.22087096 4.033041728,74.6330028 4.142462468,75.05074959999999 4.326923168,75.47626699999999 4.586859968,75.91185399999999 4.924514368,76.36008899999999 5.344159968,76.824002 5.852582968,77.307317 6.459942968,77.814813 7.181316968,78.35292899999999 8.039537968,78.93083299999999 9.070878967999999,79.562533 10.337851967999999,80.27158 11.964032968000001,81.10378 14.264724968000001,82.17442399999999 18.545934967999997,83.93760499999999 22.687764968000003,85.38896 26.667344968000002,86.54124999999999 31.474914968000004,87.70275 35.433334968000004,88.55145999999999 39.237064968,89.31017 43.219814968,90.07047 47.664144968,90.90538 52.907504968,91.91108 58.903334967999996,93.13573 64.663844968,94.35584 70.538734968,95.57256 76.454234968,96.69488999999999 82.05100496799999,97.59881999999999 87.565814968,98.33906999999999 93.166964968,98.98747 98.962214968,99.60101 105.00010496799999,100.23507 111.200104968,100.92362 117.304504968,101.63631 123.342304968,102.36617 129.371004968,103.11072999999999 135.43280496800003,103.86628999999999 141.55740496800001,104.62743999999999 147.756004968,105.38587 153.92940496800003,106.11972 160.050404968,106.81851999999999 166.14250496800003,107.48573999999999 172.22540496800002,108.12589 178.31440496800002,108.74271999999999 184.42150496800002,109.33937999999999 190.554804968,109.91853 196.719004968,110.48245999999999 202.915004968,111.03313 209.13980496800002,111.57198 215.387804968,112.09902 221.637404968,112.61241 227.875404968,113.11117999999999 234.106104968,113.59582 240.333504968,114.06674 246.560704968,114.52429 252.790804968,114.96875 259.026204968,115.40034999999999 265.26870496799995,115.81924999999998 271.52000496799997,116.22559 277.780804968,116.61945 284.042004968,117.00028999999999 290.294404968,117.36767 296.53860496799996,117.72174999999999 302.775404968,118.06269999999999 309.006304968,118.39075 315.232804968,118.70634999999999 321.45660496799997,119.01002 327.678804968,119.30227 333.900804968,119.58358 340.12360496799994,119.85443 346.348104968,120.11527999999998 352.575004968,120.36658 358.805004968,120.60875999999999 365.03860496799996,120.84224999999999 371.276004968,121.06748999999999 377.517504968,121.28487999999999 383.76310496799994,121.49484 390.012704968,121.69778 396.266104968,121.89410999999998 402.522804968,122.08422999999999 408.782204968,122.26847999999998 415.04380496799996,122.44676 421.307004968,122.61868 427.571304968,122.78389999999999 433.836104968,122.94206 440.100904968,123.09281 446.36540496799995,123.23579999999998 452.629104968,123.37069 458.891704968,123.49712 465.152804968,123.61477 471.412304968,123.72328999999999 477.669804968,123.82235 483.92510496799997,123.91163 490.178104968,123.99079 496.428704968,124.0595 502.67670496799997,124.11744999999999 508.92210496800004,124.16429 515.164904968,124.19955999999999 521.404904968,124.22270999999999 527.642204968,124.23324 533.8768049680001,124.23058999999999 540.1087049680001,124.21426 546.338104968,124.18370999999999 552.565004968,124.13841 558.789604968,124.07784 565.012104968,124.00146 571.232804968,123.90874 577.4519049680001,123.79915 583.6698049680001,123.67213999999998 589.886704968,123.52716999999998 596.103104968,123.36368999999999 602.319404968,123.18115 608.536004968,122.97907 614.753504968,122.75797 620.972404968,122.51886999999999 627.193204968,122.26279 633.4163049680001,121.99077 639.642204968,121.70382999999998 645.8710049680001,121.40302 652.103004968,121.08937 658.3384049680001,120.76392999999999 664.577404968,120.42775 670.820004968,120.08188 677.0661049680001,119.72739999999999 683.3158049680001,119.36537999999999 689.5689049680001,118.9969 695.8252049680001,118.62303999999999 702.084404968,118.24492 708.346304968,117.86344 714.6101049680001,117.47755 720.8751049680001,117.085 727.1401049680001,116.68352999999999 733.404004968,116.27091999999999 739.665504968,115.84492 745.923304968,115.40332999999998 752.175804968,114.94398 758.421404968,114.4647 764.658204968,113.9634 770.884504968,113.43799999999999 777.098204968,112.88648 783.2974049680001,112.30689999999998 789.479804968,111.69736 795.6433049679999,111.05604 801.785504968,110.38121 807.904304968,109.67142999999999 813.997704968,108.92777 820.0653049680001,108.15292 826.107304968,107.34947 832.125104968,106.51979999999999 838.120904968,105.66610999999999 844.0978049680001,104.79038 850.059604968,103.89438999999999 856.011104968,102.97971 861.957904968,102.04769999999999 867.906204968,101.09952 873.863604968,100.1361 879.838304968,99.15817999999999 885.839904968,98.16624999999999 891.879404968,97.16059999999999 897.9693049680001,96.14126999999999 904.1236049680001,95.10813999999999 910.274304968,94.07343999999999 916.339004968,93.04614 922.3257049680001,92.01917 928.254504968,90.98362 934.1561049680001,89.92871 940.072204968,88.84129 946.0581049680001,87.70452999999999 952.155604968,86.50242 958.083504968,85.28511999999999 963.707504968,84.08366699999999 969.0047049679999,82.910356 973.9750049680001,81.772497 978.6327049680001,80.67360199999999 982.999404968,79.61459699999999 987.099604968,78.594797 990.957804968,77.612597 994.5973049680001,76.665926 998.0395049680001,75.75253199999999 1001.3036049680001,74.8701504 1004.003404968,74.12834" stroke="black" stroke-width="2.0" /></svg>