<?xml version="1.0" encoding="utf-8" ?>
<svg baseProfile="full" height="132.26740999999998" version="1.1" width="1012.2691443" xmlns="http://www.w3.org/2000/svg" xmlns:ev="http://www.w3.org/2001/xml-events" xmlns:xlink="http://www.w3.org/1999/xlink"><defs /><polygon fill="none" points="1004.2691443,79.04231999999999 1000.3836443,78.6376993 995.7081443,78.15439579999999 990.8077443000001,77.65205799999998 985.6652443,77.12953999999999 980.2635443,76.58580199999999 974.5870443,76.02003199999999 968.6227443,75.43180399999999 962.3631443,74.82130899999999 955.8091443000001,74.18962599999999 948.9736442999999,73.53884199999999 941.8826443,72.87067799999998 934.5705442999999,72.18644199999999 927.0761443,71.48730499999999 919.4386443,70.773986 911.6923443,70.04642599999998 903.8627443,69.30351399999999 895.9637443,68.54381999999998 888.0026442999999,67.76836999999999 879.9860443,66.97887999999999 871.9202443,66.17715999999999 863.8114443,65.36499999999998 855.6652442999999,64.54425999999998 847.4866443,63.716779999999986 839.2803442999999,62.88436999999999 831.0500443000001,62.04881999999999 822.7988443,61.21186999999999 814.5292443000001,60.37519999999999 806.2426443,59.540429999999986 797.9399443,58.70899999999999 789.6214443,57.88125999999999 781.2877443,57.05710999999999 772.9399443,56.23642999999999 764.5791443,55.41915999999999 756.2071443,54.605249999999984 747.8257443,53.79468999999999 739.4373443000001,52.98748999999999 731.0444443,52.18367999999999 722.6499443,51.38332999999999 714.2573443,50.58651999999999 705.8700443,49.79336999999999 697.4918442999999,49.00390999999999 689.1266443,48.217479999999995 680.7773443,47.43303999999999 672.4460442999999,46.64948999999999 664.1340442999999,45.86566999999999 655.8417443,45.08034999999999 647.5686443000001,44.292239999999985 639.3137442999999,43.499999999999986 631.0750443000001,42.70221999999999 622.8498443,41.89743999999999 614.6347443,41.08410999999999 606.4256442999999,40.26059999999999 598.2177443,39.425339999999984 590.0058443,38.57794999999999 581.7852442999999,37.71877999999999 573.5521443,36.84825999999999 565.3035443,35.966849999999994 557.0372443,35.07515999999999 548.7518443,34.173839999999984 540.4468443,33.26366999999999 532.1226442999999,32.34553999999999 523.7805443,31.420439999999992 515.4227443,30.48950999999999 507.05254429999997,29.553969999999993 498.67414429999997,28.61520999999999 490.2922443,27.674629999999986 481.9115443,26.73360999999999 473.53604429999996,25.79345999999999 465.1693443,24.855459999999987 456.8146443,23.920799999999993 448.47464429999997,22.99062999999999 440.1515443,22.06602999999999 431.8471443,21.148009999999992 423.56274429999996,20.23751999999999 415.2990443,19.33543999999999 407.0567443,18.442579999999992 398.8355443,17.55975999999999 390.6357443,16.68840999999999 382.4580443,15.830389999999987 374.3042443,14.98766999999998 366.1771443,14.162249999999986 358.0803443,13.356160000000003 350.0185443,12.571449999999984 341.9967443,11.810119999999984 334.0209443,11.074149999999989 326.0974443,10.365439999999992 318.2331443,9.68576999999999 310.43504429999996,9.036799999999985 302.7104443,8.420029999999983 295.0659443,7.83735999999999 287.5046443,7.29155999999999 280.0247443,6.784999999999997 272.6197443,6.319580000000002 265.2792443,5.896929999999983 257.9897443,5.5185499999999905 250.73444429999998,5.1858999999999895 243.4965443,4.8985099999999875 236.26814430000002,4.654219999999995 229.0531443,4.451289999999986 221.86724429999998,4.288129999999995 214.7365443,4.163009999999986 207.69584429999998,4.073829999999987 200.7854443,4.018309999999985 194.0434443,4.0 187.4917443,4.027119999999982 181.13584429999997,4.106039999999993 174.96924429999999,4.2416199999999975 168.9780443,4.437769999999986 163.1437443,4.697919999999982 157.4452443,5.0254699999999985 151.8600443,5.424059999999983 146.3664443,5.893909999999991 140.9493443,6.430989999999994 135.6022443,7.031049999999993 130.3255443,7.6894399999999905 125.1250443,8.40088999999999 120.01124429999999,9.15930999999999 114.9978443,9.957869999999986 110.09994429999999,10.789079999999984 105.3329443,11.6451 100.7112143,12.518799999999985 96.24795429999999,13.409009999999995 91.9524343,14.3168 87.8292343,15.242539999999991 83.87904429999999,16.18603999999999 80.0995743,17.14670999999999 76.4863043,18.12370999999999 73.03321429999998,19.115999999999993 69.7332843,20.122489999999992 66.57901430000001,21.14204999999999 63.5626443,22.17354999999999 60.6764943,23.215909999999987 57.9130243,24.268129999999992 55.2649843,25.329239999999984 52.7255543,26.39828999999999 50.289124300000005,27.473279999999995 47.9511843,28.55158999999999 45.7076543,29.630799999999986 43.554724300000004,30.708749999999988 41.4887843,31.783519999999996 39.5063543,32.853399999999986 37.6040543,33.91689999999999 35.7785843,34.972739999999995 34.026744300000004,36.01983999999999 32.3454043,37.05725999999999 30.7315143,38.08423999999999 29.1821243,39.10017999999999 27.694494300000002,40.10557999999999 26.266384300000002,41.104089999999985 24.8958743,42.09929999999999 23.581114300000003,43.09404999999999 22.320344300000002,44.09056999999999 21.111844299999998,45.09055999999999 19.9538843,46.09529999999999 18.8447243,47.10568999999999 17.7826443,48.122359999999986 16.765904300000003,49.14566999999999 15.7931543,50.17512999999999 14.864474300000001,51.207809999999995 13.9798223,52.24080999999999 13.1387553,53.271879999999996 12.3405693,54.29924999999999 11.5843933,55.32161999999999 10.8692633,56.337999999999994 10.1941743,57.347669999999994 9.5581213,58.35012999999999 8.9601283,59.34506999999999 8.399264299999999,60.33229999999999 7.8746573,61.311719999999994 7.3855053,62.28335999999999 6.9310783,63.247269999999986 6.5107253,64.20358999999999 6.1238753,65.15249999999999 5.7700363,66.09419 5.4488012999999995,67.0289 5.1598462000000005,67.95688999999999 4.9029293,68.87843999999998 4.6778961,69.79382999999999 4.4846791,70.70337799999999 4.32330114,71.60740499999999 4.19387806,72.506244 4.0966237,73.400246 4.0318552,74.289773 4.0,75.17520299999998 4.0016044,76.05693099999999 4.0373446,76.935375 4.1080397,77.81097199999999 4.21466758,78.68418719999998 4.35831866,79.5555146 4.5392287,80.42539899999998 4.7569717,81.29419899999999 5.0112444,82.162218 5.3018783,83.02970799999999 5.6288333,83.896869 5.9921863,84.763849 6.3921323,85.63073399999999 6.8289763,86.49754999999999 7.3031293,87.36425299999999 7.8151063,88.230719 8.3655223,89.09673 8.9550843,89.96197 9.5845923,90.82597999999999 10.254920299999998,91.68817999999999 10.967014299999999,92.54776999999999 11.7218653,93.40377999999998 12.520489300000001,94.25495999999998 13.363888300000001,95.09974999999999 14.252997300000002,95.93621999999999 15.1886243,96.76198 16.171324300000002,97.57413999999999 17.2013643,98.36919999999999 18.2793543,99.14517 19.406774300000002,99.90261999999998 20.5851443,100.64262 21.8158943,101.36658999999999 23.1003343,102.07639999999999 24.4396943,102.77445999999999 25.834974300000003,103.46379999999999 27.287004300000003,104.14822999999998 28.796314300000002,104.83238999999999 30.363264299999997,105.52158999999999 31.9896043,106.21757 33.6780643,106.91952999999998 35.4314543,107.62646 37.2526443,108.33716999999999 39.1445643,109.05024999999999 41.1102643,109.76407999999999 43.1528643,110.47681999999999 45.2756743,111.18635999999998 47.4822043,111.89033999999998 49.7763843,112.58614 52.1626343,113.27087 54.6462243,113.94134999999999 57.2336643,114.59473999999999 59.9327343,115.22968999999999 62.7520243,115.84506999999999 65.7009443,116.43972 68.78976429999999,117.01244999999999 72.0296243,117.56214999999999 75.43263429999999,118.08777999999998 79.01173429999999,118.58849999999998 82.78049429999999,119.06378 86.75261429999999,119.51354999999998 90.9413343,119.93845999999999 95.35852429999998,120.34019999999998 100.01351429999998,120.72193999999999 104.9113443,121.08881 110.05154429999999,121.44533999999999 115.4298443,121.78916999999998 121.03654429999999,122.11643999999998 126.85684429999999,122.42329999999998 132.8725443,122.70607999999999 139.06494429999998,122.96160999999998 145.4176443,123.18731999999999 151.9214443,123.38128999999998 158.5773443,123.54237999999998 165.39544429999998,123.67239999999998 172.38424429999998,123.77539999999999 179.5473443,123.85613999999998 186.88104429999999,123.92027999999999 194.3716443,123.97443999999999 201.9935443,124.02622 209.7069443,124.08310999999998 217.4658443,124.14323999999999 225.2323443,124.19899 232.98204429999998,124.24282 240.7043443,124.26740999999998 248.40244429999998,124.26568999999998 256.0924443,124.23061999999999 263.8015443,124.15843999999998 271.55734429999995,124.05224999999999 279.38134429999997,123.91582999999999 287.28894429999997,123.75303 295.2881443,123.56799999999998 303.37864429999996,123.36534999999999 311.55054429999996,123.14965999999998 319.7879443,122.92239999999998 328.0747443,122.6839 336.3959443,122.43451999999999 344.7382443,122.17465999999999 353.08994429999996,121.90472 361.4414443,121.62508999999999 369.7854443,121.33613 378.1168443,121.03814 386.43254429999996,120.73137 394.7320443,120.41597999999999 403.01674429999997,120.09206999999999 411.2899443,119.75965 419.5560443,119.41866999999999 427.8189443,119.06911 436.0820443,118.71094 444.3479443,118.34418 452.6187443,117.96880999999999 460.8957443,117.58488999999999 469.1799443,117.19246999999999 477.4713443,116.79163 485.7697443,116.3825 494.0739443,115.96520999999998 502.38224429999997,115.53996999999998 510.69234429999995,115.10696999999999 519.0015443,114.66622999999998 527.3078442999999,114.21766 535.6094443,113.76113 543.9053443,113.29650999999998 552.1949443,112.82363 560.4780443,112.34228999999999 568.7553443,111.85226999999999 577.0276442999999,111.35332 585.2965442999999,110.84513999999999 593.5639443,110.32740999999999 601.8323442999999,109.79973999999999 610.1048443,109.26177999999999 618.3847443,108.71370999999999 626.6748442999999,108.15603999999999 634.9776443,107.58933999999999 643.2951443,107.01417 651.6288443,106.43116999999998 659.9796443,105.84099999999998 668.3481443,105.24434 676.7341443,104.64196999999999 685.1371443,104.03466999999999 693.5559443,103.42329999999998 701.9886443,102.80877 710.4330443,102.19197999999999 718.8863442999999,101.57333999999999 727.3457443,100.95298999999999 735.8086443,100.33104999999999 744.2723443,99.70764 752.7346443,99.08287999999999 761.1929443,98.45684999999999 769.6453442999999,97.82967 778.0897443,97.20140999999998 786.5241443,96.57216 794.9468443000001,95.94197999999999 803.3562443000001,95.31093999999999 811.7507443000001,94.67903999999999 820.1288443,94.04599999999999 828.4882443,93.41148999999999 836.8262443000001,92.77523 845.1395443,92.13698999999998 853.4245443,91.49659999999999 861.6771442999999,90.85391999999999 869.8927443,90.20888 878.0667443,89.56145 886.1938443,88.911644 894.2689443,88.25953099999998 902.2865443,87.60522099999999 910.2410443,86.94901199999998 918.1213443,86.29279799999999 925.9026443,85.640143 933.5486443,84.99557999999999 941.0156443000001,84.36416999999999 948.2587443,83.750959 955.2374443,83.16044 961.9205443000001,82.59588399999998 968.2916443,82.058641 974.3486442999999,81.54874099999999 980.0999443,81.06536799999999 985.5597443,80.60719199999998 990.7458442999999,80.17261799999999 995.6772443,79.75995339999999 1000.3732443,79.36751679999999 1004.2691443,79.04231999999999" stroke="black" stroke-width="2.0" /></svg>