<?xml version="1.0" encoding="utf-8" ?>
<svg baseProfile="full" height="142.60446" version="1.1" width="1012.04364214" xmlns="http://www.w3.org/2000/svg" xmlns:ev="http://www.w3.org/2001/xml-events" xmlns:xlink="http://www.w3.org/1999/xlink"><defs /><polygon fill="none" points="1004.04364214,87.1896 1000.63044214,86.689217 996.50694214,86.081092 992.16444214,85.436388 987.58304214,84.751453 982.7422421399999,84.022431 977.62244214,83.24543299999999 972.20664214,82.41684599999999 966.4836421399999,81.53383 960.45294214,80.595054 954.12994214,79.60164 947.55114214,78.55825 940.7712421399999,77.47337 933.85304214,76.3574 926.85894214,75.22112 919.85474214,74.07625999999999 912.85144214,72.92578 905.8789421399999,71.77581 898.9433421399999,70.62852 892.03704214,69.48328 885.1515421400001,68.33896 878.27944214,67.19457 871.41414214,66.04926 864.54974214,64.90232 857.6813421400001,63.75314 850.80474214,62.60124999999999 843.91614214,61.44629 837.01294214,60.28802 830.09304214,59.12632 823.15494214,57.961209999999994 816.19814214,56.792849999999994 809.22294214,55.621509999999994 802.23034214,54.44763999999999 795.22764214,53.27263 788.23524214,52.09994999999999 781.25334214,50.929649999999995 774.2797421399999,49.76134 767.31214214,48.594629999999995 760.34814214,47.42917 753.3857421399999,46.26457 746.4225421399999,45.10048 739.4564421399999,43.93653 732.48534214,42.772389999999994 725.50704214,41.607679999999995 718.51934214,40.44207 711.52014214,39.2752 704.5167421399999,38.108309999999996 697.52804214,36.94468 690.55624214,35.78594 683.60264214,34.634049999999995 676.6683421399999,33.490829999999995 669.75374214,32.35804 662.85914214,31.23735 655.98454214,30.13035 649.12974214,29.038560000000004 642.29404214,27.963409999999996 635.47664214,26.90627 628.67644214,25.86845000000001 621.89214214,24.85119999999999 615.12204214,23.855729999999994 608.3644421399999,22.883219999999994 601.61734214,21.934780000000003 594.87864214,21.011179999999996 588.14624214,20.112340000000003 581.41874214,19.238119999999995 574.6943421399999,18.388419999999996 567.9717421400001,17.563180000000003 561.24974214,16.762389999999996 554.52714214,15.986069999999998 547.80314214,15.234269999999995 541.07674214,14.507059999999996 534.34754214,13.804569999999998 527.61474214,13.126909999999995 520.87824214,12.474249999999998 514.13774214,11.846769999999992 507.3930421399999,11.244659999999996 500.64424213999996,10.668119999999988 493.89164214,10.117220000000003 487.13544214,9.591740000000001 480.37564213999997,9.09142 473.61244214,8.616010000000003 466.84584213999995,8.16525 460.07574214,7.738889999999998 453.30194214,7.336640000000003 446.52434214,6.958250000000007 439.74264214,6.603449999999995 432.95654213999995,6.271979999999999 426.16544214,5.963579999999993 419.36904214,5.677980000000005 412.56664214,5.414929999999998 405.75764214,5.174189999999996 398.94124214,4.955519999999993 392.11684213999996,4.758879999999991 385.28394213999997,4.584440000000001 378.44244213999997,4.432380000000009 371.59274214,4.302869999999999 364.73574214,4.19610999999999 357.87274213999996,4.1122900000000016 351.00544213999996,4.051559999999995 344.13604214,4.014089999999996 337.26724214,4.0 330.40214213999997,4.009359999999987 323.54414214,4.042209999999997 316.69724213999996,4.09854 309.86574213999995,4.178269999999998 303.05414214,4.281269999999992 296.26744213999996,4.4075599999999895 289.51034214,4.5582100000000025 282.78614214,4.734569999999991 276.09714213999996,4.93795999999999 269.44434213999995,5.169620000000009 262.82784214,5.430809999999994 256.24644214,5.722759999999994 249.69814214,6.04674 243.18004214,6.404079999999993 236.68844214,6.796189999999996 230.21904214,7.224580000000003 223.76624214,7.690910000000002 217.32434214,8.197000000000003 210.88624213999998,8.744929999999997 204.44414214000003,9.33702000000001 197.98954214,9.975920000000002 191.51564214,10.664269999999988 185.02274214000002,11.404030000000006 178.52034214000003,12.196110000000004 172.02674214,13.039919999999995 165.56874214,13.933059999999998 159.18034214,14.871139999999997 152.89964214,15.847849999999994 146.76544214,16.857010000000002 140.80524214000002,17.899599999999992 135.02454214000002,18.980109999999996 129.41204213999998,20.104709999999997 123.94594214,21.281310000000005 118.59754214,22.51974 113.33254214,23.832399999999993 108.11124214,25.235280000000003 102.88666214000001,26.749760000000002 97.60046214,28.39953 92.20131214,30.18788 86.68232214000001,32.096999999999994 81.10352214,34.08093 75.59947214,36.0632 70.33737214,37.99098 65.41712214,39.86663 60.85676214000001,41.70728 56.63123214,43.53373 52.69997214,45.366049999999994 49.02247214,47.21509 45.56832214000001,49.072709999999994 42.31530214,50.92979 39.24634214,52.77882 36.34789214,54.613569999999996 33.608802139999995,56.428799999999995 31.01968214,58.2201 28.572412139999997,59.98373 26.25732214,61.71973 24.066022139999998,63.43232 22.00990214,65.10786999999999 20.106402139999997,66.72241 18.36415214,68.2553 16.77879214,69.69615 15.33765214,71.04397 14.034297139999998,72.30091999999999 12.860567139999999,73.47426999999999 11.80310214,74.57464 10.84847014,75.61239 9.98484114,76.59658 9.20228414,77.53482 8.49261214,78.43345 7.84912014,79.29772 7.2663211400000005,80.132051 6.73973214,80.940162 6.26569514,81.725234 5.84123714,82.490013 5.46396514,83.236895 5.13198314,83.96799899999999 4.84383134,84.68521799999999 4.59843964,85.390273 4.39510014,86.084743 4.23344634,86.770104 4.1134471,87.447754 4.035410517,88.119046 4.0,88.785307 4.00826382,89.4478717 4.06167126,90.1081091 4.16108124,90.7674522 4.30573784,91.427342 4.49508144,92.089168 4.72895324,92.754296 5.0075790399999995,93.424092 5.33156714,94.099952 5.70192114,94.78332999999999 6.12005914,95.475763 6.587859140000001,96.178904 7.10770814,96.894558 7.68257814,97.624718 8.31611814,98.37161 9.012774140000001,99.137748 9.777930139999999,99.925983 10.618079139999999,100.73956 11.540986140000001,101.58215 12.555795139999999,102.45779999999999 13.67293814,103.37081 14.90344214,104.32507 16.256772140000002,105.32275 17.736452139999997,106.36137 19.34771214,107.43558 21.09928214,108.53849 22.994302140000002,109.65967 25.029502139999998,110.78685 27.19897214,111.91014 29.50349214,113.02776 31.95964214,114.14768 34.58738214,115.2742 37.40785214,116.40955 40.44491214,117.55569 43.72419214000001,118.71391 47.27054214,119.88406 51.10200214,121.06318 55.218162140000004,122.24333999999999 59.58993214,123.40826 64.17402214,124.53417999999999 68.92210214,125.59868 73.79395214,126.58521999999999 78.77147214,127.48477 83.86824213999999,128.29596 89.11654214,129.02596 94.54620214,129.68334 100.17981214000001,130.27580999999998 106.02684214,130.81092999999998 112.07874214,131.29410000000001 118.31794214,131.72589 124.72204214000001,132.1078 131.26484214,132.44321 137.91854214,132.73739999999998 144.65534214000002,132.99736000000001 151.44944214,133.23146 158.27914214,133.44889 165.12704214,133.6533 171.97974214,133.8426 178.82704214,134.01466 185.66214214,134.16753 192.48184214,134.29941 199.28614214,134.40861 206.07834214000002,134.49349999999998 212.86464214,134.55342 219.65184214,134.58984 226.44634214,134.60446 233.25334214,134.59888999999998 240.07764214,134.57474 246.92344214000002,134.53356 253.79404214000002,134.47691 260.69204213999996,134.40638 267.61934214,134.32356 274.57704213999995,134.23011 281.56544213999996,134.12774000000002 288.58374213999997,134.0182 295.6303421399999,133.90334000000001 302.70264213999997,133.78503999999998 309.79664213999996,133.66517 316.89314213999995,133.54475 323.97644214,133.42410999999998 331.05024213999997,133.30320999999998 338.11794213999997,133.18205 345.18264214,133.06063 352.24684213999996,132.93893 359.31274213999995,132.81697 366.38214214,132.69476 373.45654213999995,132.57232 380.53674214,132.44966 387.62344214,132.32684 394.71684214,132.20388 401.81654213999997,132.08083 408.91814214,131.95782 416.01534214,131.83497 423.10894213999995,131.71224 430.19974213999996,131.5896 437.28864214,131.46704 444.37654214,131.34451 451.46394214,131.22199 458.55174214,131.09946 465.64034214,130.97689 472.73024214,130.85424999999998 479.82194214,130.73153 486.91594213999997,130.6087 494.01234213999993,130.48574 501.11144213999995,130.36263 508.21344214,130.23936 515.3160421399999,130.11599 522.41574214,129.99263000000002 529.5126421399999,129.86934 536.60704214,129.74618 543.69944214,129.6232 550.79034214,129.50044 557.88054214,129.37795 564.97084214,129.25578 572.06214214,129.13397 579.1558421399999,129.01255 586.25294214,128.89156 593.35464214,128.77105 600.45384214,128.6512 607.54494214,128.53214 614.6262421399999,128.41336 621.6960421399999,128.29362 628.75314214,128.17164 635.7963421399999,128.04612 642.82474214,127.91582 649.83764214,127.77947 656.8347421399999,127.63584 663.81574214,127.48372 670.78064214,127.32188 677.7295421399999,127.14914999999999 684.66304214,126.96431999999999 691.58154214,126.76623000000001 698.4859421399999,126.55369 705.37704214,126.32553999999999 712.2558421399999,126.08066 719.1234421400001,125.81807 725.98044214,125.53682 732.8270421399999,125.23599999999999 739.66364214,124.91468 746.49014214,124.57195999999999 753.30614214,124.20696 760.11124214,123.81882999999999 766.90464214,123.40673 773.68544214,122.96987 780.4525421399999,122.50747 787.20444214,122.01882 793.9397421399999,121.50323 800.6567421399999,120.96007 807.35354214,120.38879 814.02834214,119.78943 820.6801421399999,119.16269 827.30884214,118.50923 833.91544214,117.82959 840.5017421399999,117.1242 847.0706421399999,116.39332 853.62554214,115.6371 860.17114214,114.85548 866.71254214,114.04823999999999 873.2562421399999,113.21495999999999 879.80924214,112.35496 886.3798421399999,111.46736 892.97744214,110.55093 899.61314214,109.60414 906.29924214,108.62505 913.04864214,107.61225 919.86484214,106.56702 926.7345421399999,105.49348 933.62604214,104.39905 940.48844214,103.29459 947.25674214,102.19367 953.8590421399999,101.1112 960.2280421400001,100.06099999999999 966.31404214,99.052437 972.09144214,98.09043 977.5547421399999,97.17663999999999 982.71164214,96.310427 987.5783421399999,95.489729 992.17454214,94.711731 996.5216421399999,93.973305 1000.64064214,93.271292 1004.04364214,92.6896" stroke="black" stroke-width="2.0" /></svg>