<?xml version="1.0" encoding="utf-8" ?>
<svg baseProfile="full" height="134.68769" version="1.1" width="1012.479352" xmlns="http://www.w3.org/2000/svg" xmlns:ev="http://www.w3.org/2001/xml-events" xmlns:xlink="http://www.w3.org/1999/xlink"><defs /><polygon fill="none" points="1004.479352,110.1467 1000.4432519999999,109.147635 995.5095519999999,107.92594199999999 990.2407519999999,106.620736 984.597352,105.22207499999999 978.5382519999999,103.71968 972.025752,102.10403 965.033652,100.36841 957.5604519999999,98.51229 949.6474519999999,96.54572999999999 941.386152,94.49207 932.8970519999999,92.38261 924.300752,90.24892 915.694252,88.11668 907.1352519999999,86.00164 898.6384519999999,83.90889999999999 890.191652,81.83662999999999 881.780252,79.78231 873.391752,77.74403 865.015852,75.7204 856.644052,73.71053 848.269752,71.71399 839.8880519999999,69.73079999999999 831.495552,67.76140999999998 823.090652,65.80669999999999 814.673552,63.86794 806.2461519999999,61.946819999999995 797.812052,60.0454 789.3758519999999,58.165879999999994 780.941652,56.310309999999994 772.512852,54.480529999999995 764.0923519999999,52.67818 755.681952,50.90473 747.283152,49.161429999999996 738.8965519999999,47.449389999999994 730.522252,45.769549999999995 722.159452,44.122699999999995 713.8068519999999,42.50953 705.4628519999999,40.930599999999984 697.124752,39.38625999999999 688.790052,37.87610000000001 680.456652,36.39948 672.1221519999999,34.95585 663.784552,33.54473 655.4421519999999,32.165670000000006 647.092952,30.818299999999994 638.7354519999999,29.50228 630.3682519999999,28.217339999999993 621.989752,26.963229999999996 613.599052,25.73975 605.194752,24.546750000000003 596.7759519999998,23.384069999999994 588.3420519999999,22.251419999999996 579.892852,21.14851 571.428552,20.07513999999999 562.950152,19.031139999999994 554.459152,18.016419999999997 545.957352,17.030929999999998 537.447552,16.074639999999988 528.9329519999999,15.147549999999995 520.417152,14.249690000000001 511.904552,13.381100000000004 503.399952,12.541699999999992 494.90855200000004,11.732199999999992 486.435052,10.954399999999993 477.98305200000004,10.2102 469.55495199999996,9.501400000000004 461.15205199999997,8.829700000000003 452.774652,8.19659999999999 444.422052,7.603300000000004 436.09245200000004,7.051299999999998 427.783452,6.541799999999995 419.491352,6.075999999999993 411.211852,5.655199999999994 402.939752,5.2805000000000035 394.669252,4.953099999999992 386.395052,4.673199999999994 378.113752,4.440999999999988 369.82365200000004,4.257099999999994 361.52475200000003,4.121999999999986 353.21865199999996,4.0360999999999905 344.908752,4.0 336.600452,4.013999999999996 328.300452,4.078499999999991 320.017552,4.193399999999997 311.761652,4.358699999999999 303.54425200000003,4.573699999999988 295.377852,4.838899999999995 287.273952,5.157199999999989 279.240952,5.531899999999993 271.283652,5.9658000000000015 263.403952,6.461799999999997 255.60135200000002,7.022599999999997 247.873052,7.650899999999993 240.213952,8.349800000000002 232.617652,9.122199999999992 225.076052,9.971599999999995 217.57935200000003,10.901799999999994 210.116652,11.91749999999999 202.67545199999998,13.023699999999991 195.241752,14.223910000000004 187.803652,15.5171 180.35285199999998,16.90133999999999 172.88545200000002,18.374220000000008 165.401752,19.932509999999994 157.906852,21.571839999999995 150.410252,23.286829999999995 142.93015200000002,25.07710999999999 135.497352,26.944829999999996 128.154652,28.88762 120.952952,30.89806 113.94615200000001,32.964240000000004 107.18405200000001,35.070899999999995 100.70807200000002,37.20175999999999 94.540322,39.35112999999998 88.65975200000001,41.53143 83.01251200000002,43.76711999999999 77.52682200000001,46.09353 72.122272,48.54544 66.769972,51.12323 61.530601999999995,53.780919999999995 56.530482,56.43049 51.902012,58.97344999999999 47.730132000000005,61.36092 44.006942,63.60573999999999 40.673762,65.73991 37.667201999999996,67.79619 34.932751999999994,69.80362 32.426762,71.78753 30.114952,73.77081999999999 27.968052,75.77520999999999 25.944651999999998,77.81468 24.012102,79.88468999999999 22.156242,81.96321999999999 20.375002000000002,84.01667 18.672092,86.00926999999999 17.051472000000004,87.91215 15.519882,89.70754 14.098796,91.38951 12.797366,92.96414999999999 11.61358,94.44268 10.540981,95.83703 9.571867,97.15823 8.698686,98.4159 7.914591,99.61825999999999 7.2136119999999995,100.7723 6.590652,101.88392999999999 6.041432,102.95823999999999 5.562404,103.99956 5.1506812,105.011685 4.8039608000000005,105.997905 4.52047373,106.961145 4.2989391,107.90401299999999 4.1385333,108.828868 4.0388714,109.737865 4.0,110.63300199999999 4.0224016,111.516156 4.1070124,112.38912099999999 4.255254,113.25363449999999 4.46908224,114.11141633 4.7501721,114.9638015 5.0968418,115.810299 5.50685,116.649751 5.978437,117.48079299999999 6.510262,118.301822 7.101343,119.11095399999999 7.751021,119.905965 8.458919999999999,120.684229 9.224921,121.442627 10.049127,122.177442 10.931837,122.884214 11.873506,123.55756699999999 12.874695000000001,124.19097 13.936006,124.77645 15.057972000000001,125.30418 16.240922,125.76196999999999 17.484802000000002,126.13477 18.792302,126.41268 20.170832,126.59586999999999 21.629222,126.68627 23.177522,126.68769 24.826821999999996,126.60710999999999 26.588682,126.4567 28.473802,126.25694 30.489031999999998,126.03980999999999 32.635562,125.82632 34.909071999999995,125.61582 37.298152,125.40532999999999 39.784152,125.1903 42.343162,124.96459 44.949542,124.72073999999999 47.580192,124.45026999999999 50.218062,124.143936 52.854362,123.791697 55.48954199999999,123.3823 58.132402,122.90743699999999 60.788622000000004,122.365449 63.451941999999995,121.757852 66.103202,121.090555 68.712092,120.374766 71.242512,119.6263 73.66055200000001,118.863098 75.941422,118.102019 78.07254200000001,117.356399 80.052322,116.635032 81.87500200000001,115.93213 83.529632,115.225702 85.018732,114.4979942 86.35069200000001,113.7355388 87.534792,112.92736 88.579162,112.063627 89.48993200000001,111.13464499999999 90.277142,110.13521999999999 90.970622,109.07859099999999 91.60015200000001,107.98116399999999 92.191492,106.85866999999999 92.767842,105.726857 93.35065200000001,104.60185899999999 93.95993200000001,103.50031 94.614182,102.43921 95.32520200000002,101.43357999999999 96.09263200000001,100.4932 96.914762,99.62574 97.790292,98.83753 98.71848200000001,98.13396 99.69918200000001,97.51973 100.72916200000002,97.0021 101.798232,96.59412999999999 102.896422,96.30968 104.01484200000002,96.16324999999999 105.14515200000001,96.16964 106.275152,96.33024 107.38865200000001,96.63632999999999 108.468952,97.08072999999999 109.497252,97.65821 110.458952,98.36462999999999 111.36305200000001,99.19342999999999 112.224652,100.13597999999999 113.05945200000001,101.18005 113.885052,102.30694 114.720652,103.48821 115.58355200000001,104.691498 116.486952,105.892573 117.446852,107.068985 118.483052,108.200408 119.619752,109.269122 120.87995200000002,110.257271 122.269052,111.139825 123.79415200000001,111.88461699999999 125.470652,112.45155799999999 127.321652,112.846616 129.368852,113.133274 131.623952,113.39199819999999 134.110052,113.640709 136.85495200000003,113.8718746 139.880652,114.07521267 143.195652,114.23781869999999 146.789352,114.34531989999999 150.634652,114.3839539 154.703652,114.3422509 158.994152,114.21130124999999 163.528152,113.9854663 168.33265200000002,113.6603425 173.43785200000002,113.23281589999999 178.877252,112.702096 184.68665199999998,112.07129599999999 190.902652,111.349761 197.559152,110.556339 204.682352,109.723593 212.28185200000001,108.892063 220.342052,108.07844399999999 228.81725200000002,107.293358 237.613752,106.54866299999999 246.362552,105.87251599999999 255.001952,105.261665 263.617752,104.702604 272.275652,104.18508 281.025852,103.70085 289.890652,103.24359 298.69075200000003,102.81635 307.362652,102.41512 315.93145200000004,102.03466 324.423852,101.67429999999999 332.862052,101.33404 341.265052,101.01415999999999 349.64885200000003,100.71513999999999 358.027152,100.43772 366.411852,100.18280999999999 374.81235200000003,99.95148999999999 383.236552,99.74503999999999 391.69055199999997,99.56487 400.17825200000004,99.41253999999999 408.701752,99.28962999999999 417.26145199999996,99.19554 425.856852,99.12741 434.486852,99.08215 443.150052,99.05662 451.84425200000004,99.04755999999999 460.566652,99.05162999999999 469.313952,99.0654 478.082252,99.08538 486.866752,99.10799999999999 495.66225199999997,99.12964 504.462952,99.14667 513.262352,99.15652 522.054552,99.16087999999999 530.834352,99.16252999999999 539.5981519999999,99.16425 548.343452,99.16877 557.0687519999999,99.17877999999999 565.7739519999999,99.19695 574.459852,99.2259 583.128252,99.26823999999999 591.7822519999999,99.32656999999999 600.425752,99.40347 609.0638519999999,99.50148 617.7018519999999,99.62122 626.345252,99.76156 634.998352,99.92134 643.6647519999999,100.09940999999999 652.3476519999999,100.29460999999999 661.049252,100.50577999999999 669.770952,100.73174999999999 678.513552,100.9713 687.2769519999999,101.22318 696.0601519999999,101.4861 704.861452,101.75871 713.678152,102.03998999999999 722.507052,102.33021 731.344452,102.62993 740.186752,102.93965 749.0296519999999,103.25986999999999 757.868752,103.59107999999999 766.699452,103.93369 775.517052,104.288113 784.3164519999999,104.654707 793.0924519999999,105.033791 801.840052,105.425636 810.5537519999999,105.83026 819.229352,106.245526 827.864752,106.668167 836.460752,107.095097 845.0201519999999,107.52343499999999 853.548052,107.950486 862.0518519999999,108.373729 870.5407519999999,108.790782 879.026252,109.199367 887.5219519999999,109.597275 896.043952,109.98231299999999 904.611152,110.352245 913.243552,110.705908 921.9418519999999,111.046008 930.663552,111.374974 939.321752,111.69389 947.794952,112.00272 955.9522519999999,112.30071699999999 963.6832519999999,112.58619 970.9284519999999,112.856687 977.677952,113.11125799999999 983.9531519999999,113.3501742 989.790952,113.5743676 995.233352,113.7850548 1000.3220519999999,113.98351489999999 1004.479352,114.1467" stroke="black" stroke-width="2.0" /></svg>