<?xml version="1.0" encoding="utf-8" ?>
<svg baseProfile="full" height="134.58969000000002" version="1.1" width="1012.4755215" xmlns="http://www.w3.org/2000/svg" xmlns:ev="http://www.w3.org/2001/xml-events" xmlns:xlink="http://www.w3.org/1999/xlink"><defs /><polygon fill="none" points="1004.4755215,110.1444 1001.0955215,109.307761 997.0031215,108.294482 992.6815215,107.224086 988.1077215,106.09080300000001 983.2574215,104.888536 978.1061215,103.61116000000001 972.6319215000001,102.25309 966.8184215,100.81019 960.6612215,99.28121 954.1746215000001,97.66961 947.3992215000001,95.98549 940.3983215000001,94.24518 933.2456215000001,92.46785 926.0135215,90.67244000000001 918.7625214999999,88.87493 911.5342215000001,87.08655 904.3483215,85.31306000000001 897.2048215,83.55523000000001 890.0945215,81.81150000000001 883.0090215,80.08042 875.9407215000001,78.36085 868.8833215,76.65191 861.8314214999999,74.95296 854.7806215,73.26362 847.7271215,71.58372 840.6682215000001,69.91332 833.6019215,68.25269 826.5271215,66.60231 819.4437215,64.96288000000001 812.3521215,63.33527 805.2540214999999,61.72058 798.1516215,60.120070000000005 791.0477215000001,58.53506 783.9448215,56.96679000000001 776.8451215,55.416380000000004 769.7503215,53.88487000000001 762.6620215,52.373180000000005 755.5812215,50.882149999999996 748.5086215,49.412530000000004 741.4448215000001,47.96497000000001 734.3897215,46.54005000000001 727.3431215,45.13829000000001 720.3045215000001,43.760120000000015 713.2729215,42.40593000000001 706.2472215,41.076040000000006 699.2260215000001,39.77069 692.2076215,38.48968000000001 685.1908215000001,37.23264 678.1741215000001,35.9992 671.1563215,34.789060000000006 664.1362215,33.60192000000001 657.1126214999999,32.437520000000006 650.0846215,31.295640000000006 643.0510214999999,30.176060000000007 636.0110215000001,29.078620000000015 628.9638215,28.00313 621.9085215,26.94948000000001 614.8443215000001,25.917540000000002 607.7707215,24.90722000000001 600.6871215,23.918440000000004 593.5928215,22.951040000000006 586.4876215,22.004850000000005 579.3715215,21.079690000000014 572.2448215000001,20.17546 565.1079215000001,19.292060000000006 557.9616215,18.42943000000001 550.8072215,17.58753 543.6458215,16.76634 536.4793215000001,15.96584 529.3097215,15.186059999999998 522.1390215,14.426990000000004 514.9701215,13.688700000000011 507.80552150000005,12.971100000000007 500.6484215,12.274299999999997 493.5020215,11.599000000000004 486.3688215,10.946400000000011 479.25102150000004,10.317800000000005 472.1500215,9.713999999999999 465.0669215,9.136200000000002 458.0020215,8.585300000000004 450.9552215,8.062000000000012 443.9259215,7.567300000000017 436.9130215,7.1019000000000005 429.9150215,6.666499999999999 422.9298215,6.261800000000008 415.9550215,5.888600000000011 408.9877215,5.547700000000006 402.0246215,5.2398000000000025 395.06212150000005,4.9654000000000025 388.09722150000005,4.724700000000013 381.1277215,4.517700000000005 374.15222150000005,4.34490000000001 367.17022149999997,4.206300000000013 360.1822215,4.102500000000006 353.18942150000004,4.033600000000007 346.1939215,4.0 339.1988215,4.001900000000006 332.2081215,4.039500000000004 325.2264215,4.112899999999996 318.2593215,4.221999999999994 311.3132215,4.3666999999999945 304.39502150000004,4.546700000000001 297.5121215,4.7620000000000005 290.6720215,5.014300000000006 283.88012150000003,5.305599999999998 277.1405215,5.637600000000006 270.4554215,6.012200000000007 263.8257215,6.430899999999994 257.2509215,6.895400000000009 250.7296215,7.407300000000006 244.25902150000002,7.9683000000000135 237.8358215,8.580200000000005 231.4556215,9.244900000000001 225.1132215,9.964400000000012 218.80302150000003,10.741200000000006 212.5183215,11.57780000000001 206.2519215,12.47720000000001 199.99582150000003,13.442600000000013 193.7416215,14.474450000000004 187.48282150000003,15.571889999999996 181.2148215,16.733729999999994 174.9351215,17.958540000000013 168.64352150000002,19.244510000000005 162.34202150000002,20.58931000000001 156.03492150000002,21.989940000000004 149.72912150000002,23.443250000000006 143.43652150000003,24.94999 137.17592150000002,26.51151 130.9717215,28.126800000000003 124.8535215,29.79231 118.8531215,31.502060000000014 113.0021215,33.248030000000014 107.3296215,35.02080000000001 101.85981149999999,36.810460000000006 96.6085615,38.61216999999999 91.5702315,40.431110000000004 86.7189815,42.27906 82.0176515,44.17313 77.4214915,46.13589 72.8817515,48.18764 68.3775315,50.3301 63.9335915,52.542350000000006 59.6137415,54.78022 55.5002615,56.98480000000001 51.6659915,59.100930000000005 48.1564715,61.1062 44.9667415,63.00878 42.063851500000006,64.82712000000001 39.4094515,66.58107000000001 36.9682615,68.28894 34.7103515,69.96698 32.611101500000004,71.62969000000001 30.6503715,73.29043 28.811511499999998,74.96206000000001 27.0726715,76.65541 25.4088715,78.37319000000001 23.805181499999996,80.10873000000001 22.254751499999998,81.8475 20.756321500000002,83.56977 19.311631499999997,85.25454 17.923061499999996,86.88338 16.5921915,88.44299000000001 15.3266515,89.92539000000001 14.139794499999999,91.32885 13.0365185,92.65736000000001 12.0162055,93.91734 11.075623499999999,95.11580000000001 10.210510500000002,96.25946 9.416390499999999,97.35444000000001 8.6889675,98.40614000000001 8.0243065,99.41933 7.418889500000001,100.39812 6.8696275,101.34613 6.3738385,102.26652 5.929216500000001,103.16207 5.5338015,104.03523 5.1859465,104.888188 4.8842945,105.72290100000001 4.6277522,106.54113000000001 4.4154729,107.344479 4.2468423,108.13441300000001 4.1214682,108.912288 4.0391747,109.679366 4.0,110.43683200000001 4.0041991,111.18581300000001 4.05225,111.92739300000001 4.1448654000000005,112.66262300000001 4.2830094,113.39253620000001 4.46792155,114.11816397 4.7006119,114.8402913 4.9800286,115.558548 5.304749,116.27217 5.673605500000001,116.98030100000001 6.0856545,117.681971 6.540153500000001,118.376087 7.0365415,119.061406 7.5744185,119.73651100000001 8.1535395,120.39978500000001 8.7737965,121.049369 9.435212499999999,121.68312 10.1379325,122.29855500000001 10.8822115,122.89278200000001 11.6684035,123.46241900000001 12.496951499999998,124.003482 13.368366499999999,124.51126000000001 14.2831995,124.98012 15.242011499999998,125.40332000000001 16.2453015,125.77272 17.2934615,126.07844 18.3883315,126.31308 19.5348915,126.47608 20.7392315,126.56791000000001 22.0085315,126.58969 23.351221499999998,126.54362 24.777201499999997,126.43371 26.2979715,126.26691000000001 27.9266315,126.05499 29.677231499999998,125.81750000000001 31.5643715,125.57665 33.6050715,125.33673 35.8177415,125.09807 38.2207615,124.86073 40.8307515,124.62421 43.660321499999995,124.38695 46.7163715,124.14552 50.0008815,123.893668 53.5167315,123.620986 57.2808615,123.312397 61.3294115,122.959271 65.70644150000001,122.558695 70.4593915,122.109165 75.6321215,121.612373 81.2485315,121.07629800000001 87.28995149999999,120.51166500000001 93.69707149999999,119.92322800000001 100.3888215,119.314977 107.29072149999999,118.688781 114.3556215,118.045535 121.5459215,117.388293 128.8243215,116.72031700000001 136.1570215,116.04460900000001 143.5163215,115.36366600000001 150.8820215,114.6793131 158.24242150000003,113.99265960000001 165.59322150000003,113.3053672 172.9327215,112.620052 180.2595215,111.93930900000001 187.57262150000003,111.26566000000001 194.8717215,110.601555 202.1567215,109.949371 209.42802150000003,109.31133 216.6861215,108.68864 223.9317215,108.081899 231.1651215,107.491686 238.3872215,106.918577 245.5984215,106.363139 252.7994215,105.82594 259.9910215,105.30754200000001 267.17402150000004,104.808508 274.3490215,104.329398 281.5170215,103.87078 288.6787215,103.43321 295.8352215,103.01726000000001 302.9873215,102.62351000000001 310.1360215,102.25246 317.2823215,101.904 324.4271215,101.57775000000001 331.5716215,101.27335000000001 338.71682150000004,100.99045000000001 345.8639215,100.7287 353.0141215,100.48779 360.1687215,100.26739 367.3289215,100.0672 374.4963215,99.88694000000001 381.6721215,99.72633 388.85812150000004,99.58510000000001 396.0557215,99.46302 403.2667215,99.35984 410.49282150000005,99.27522 417.73582150000004,99.20792 424.9971215,99.15634 432.27772150000004,99.11885000000001 439.5781215,99.09382000000001 446.8985215,99.0796 454.23852150000005,99.07449 461.59742150000005,99.07677000000001 468.9739215,99.0847 476.3661215,99.0965 483.77182150000004,99.11035000000001 491.1880215,99.12444 498.6116215,99.13691 506.0385215,99.14592 513.4645215,99.1506 520.8855215000001,99.15226000000001 528.2980215,99.15247000000001 535.6994215,99.15283000000001 543.0876215000001,99.15487 550.4610215,99.16016 557.8190215,99.17020000000001 565.1613215,99.18651 572.4884215000001,99.21056 579.8013215,99.24384 587.1017214999999,99.2878 594.3916215,99.3439 601.6737215,99.41362000000001 608.9514214999999,99.49835 616.2281215,99.59831 623.5072215,99.71281 630.7916215,99.84118000000001 638.0838215,99.98274 645.3860215000001,100.13683 652.6998215,100.30279 660.0268215,100.47994 667.3678215,100.66760000000001 674.7235215,100.86508 682.0941215,101.07167000000001 689.4793215000001,101.28663 696.8784215000001,101.50919 704.2902215,101.73859 711.7132215,101.97418 719.1455215000001,102.21609000000001 726.5849215000001,102.46465 734.0292215,102.72015 741.4761215,102.98291 748.9230215,103.2532 756.3674215,103.53131 763.8064215,103.81748 771.2372215,104.11196000000001 778.6569215000001,104.41496500000001 786.0625215,104.72668900000001 793.4508215000001,105.047312 800.8188215,105.376987 808.1632215,105.71579600000001 815.4813215,106.062765 822.7714215,106.41593800000001 830.0329215,106.77341100000001 837.2668215,107.133384 844.4750215,107.494157 851.6605215,107.854123 858.8276215,108.211764 865.9813215,108.565633 873.1280215,108.914345 880.2748214999999,109.256561 887.4302215,109.59096500000001 894.6037215,109.91624800000001 901.8065215,110.231082 909.0510214999999,110.53426400000001 916.3454215,110.826677 923.6797215,111.110213 931.0209215,111.386086 938.3138215,111.654847 945.4860215,111.916489 952.4586214999999,112.170615 959.1585215,112.41655800000001 965.5328215000001,112.652816 971.5573215000001,112.87814900000001 977.2307215000001,113.092163 982.5663215000001,113.2950402 987.5856215,113.4873082 992.3133215,113.6696659 996.7748215,113.84287470000001 1000.9944215,114.0076933 1004.4755215,114.1444" stroke="black" stroke-width="2.0" /></svg>