<?xml version="1.0" encoding="utf-8" ?>
<svg baseProfile="full" height="317.7724" version="1.1" width="1011.993974149" xmlns="http://www.w3.org/2000/svg" xmlns:ev="http://www.w3.org/2001/xml-events" xmlns:xlink="http://www.w3.org/1999/xlink"><defs /><polygon fill="none" points="1003.993974149,155.8862 997.080374149,155.800398 989.612374149,155.399988 982.458774149,154.716208 975.455374149,153.806395 968.510874149,152.748034 961.595474149,151.619029 954.7330741489999,150.50283100000001 947.991074149,149.442937 941.428774149,148.405191 935.0665741490001,147.348543 928.895774149,146.2346 922.888974149,145.02761 917.009074149,143.71351 911.228174149,142.30172 905.533574149,140.804 899.925074149,139.2341 894.4130741490001,137.60825 889.0158741490001,135.94437 883.7563741490001,134.25053 878.651674149,132.52512000000002 873.7101741490001,130.76561 868.933374149,128.96897 864.318074149,127.13183000000001 859.859174149,125.25011 855.5525741490001,123.31843 851.393474149,121.33104 847.375474149,119.28195 843.4918741490001,117.16487000000001 839.735674149,114.97305 836.0998741489999,112.7008 832.5779741489999,110.34747 829.165074149,107.91343 825.8578741489999,105.39902000000001 822.654374149,102.80458999999999 819.553574149,100.13059000000001 816.553874149,97.37899 813.638774149,94.56461 810.7834741490001,91.70814 807.962974149,88.82884 805.1518741489999,85.94474000000001 802.3243741489999,83.0729 799.4530741489999,80.22976 796.5086741490001,77.43152 793.459474149,74.69445 790.2805741489999,72.02467 786.962574149,69.41236 783.4973741489999,66.84747 779.877174149,64.32109 776.095474149,61.82536 772.147474149,59.35354000000001 768.032374149,56.90023000000001 763.754474149,54.4618 759.326474149,52.03670000000001 754.7664741489999,49.63040000000001 750.087574149,47.2578 745.299374149,44.9341 740.407974149,42.672 735.4141741489999,40.48179999999999 730.312174149,38.37129999999999 725.087374149,36.3455 719.715674149,34.40610000000001 714.169774149,32.544399999999996 708.4234741490001,30.749300000000005 702.451474149,29.010800000000003 696.231274149,27.31960000000001 689.746874149,25.667400000000015 682.993874149,24.04729999999998 675.976374149,22.459000000000003 668.7013741489999,20.9058 661.178974149,19.390199999999993 653.4216741490001,17.912900000000008 645.443274149,16.473299999999995 637.257574149,15.074700000000007 628.880374149,13.724800000000016 620.330774149,12.431600000000003 611.629974149,11.202600000000018 602.8003741489999,10.045299999999997 593.862574149,8.9692 584.831874149,7.983499999999992 575.717274149,7.096199999999982 566.519974149,6.314300000000003 557.2356741489999,5.641699999999986 547.856374149,5.0808999999999855 538.371074149,4.634999999999991 528.764674149,4.307000000000016 519.018874149,4.0963999999999885 509.115474149,4.0 499.037774149,4.0149000000000115 488.770974149,4.137799999999999 478.30427414900004,4.362899999999996 467.636574149,4.682199999999995 456.780274149,5.0855999999999995 445.76467414900003,5.563199999999995 434.630174149,6.110400000000027 423.423974149,6.721800000000002 412.197774149,7.391799999999989 401.00227414899996,8.121700000000004 389.878974149,8.916899999999998 378.857574149,9.782299999999992 367.955574149,10.724100000000021 357.176674149,11.750799999999998 346.51017414899997,12.8716 335.933374149,14.095100000000002 325.421374149,15.42240000000001 314.955974149,16.851699999999994 304.52627414899996,18.381 294.128974149,20.004500000000007 283.771574149,21.711600000000004 273.473074149,23.489499999999992 263.26377414899997,25.3245 253.182174149,27.203699999999998 243.272474149,29.112899999999996 233.580274149,31.038299999999992 224.147474149,32.97410000000001 215.00477414899999,34.91860000000001 206.170574149,36.87010000000001 197.654174149,38.8301 189.455574149,40.8036 181.566674149,42.7954 173.974274149,44.809799999999996 166.663874149,46.849000000000004 159.623074149,48.9131 152.840574149,51.0012 146.306574149,53.1122 140.011774149,55.244 133.947474149,57.39429 128.104474149,59.56076 122.47367414899999,61.74127 117.04607414899999,63.93235 111.813574149,66.12779 106.770174149,68.32106999999999 101.91099414899999,70.50583999999999 97.23185414899999,72.67614 92.728954149,74.82742 88.398664149,76.95625 84.236994149,79.05957000000001 80.239454149,81.13468 76.401134149,83.17936 72.717644149,85.19349 69.184824149,87.17931000000002 65.797484149,89.13917000000001 62.549724149,91.07532 59.435284149000005,92.98992999999999 56.447794149,94.88491 53.581194149000005,96.76138 50.829804149000005,98.62 48.18820414900001,100.46136000000001 45.651264149,102.28599 43.214104149,104.09440000000001 40.872104149,105.88701 38.620704149000005,107.66391 36.455564149000004,109.42485 34.372694149,111.16953000000001 32.368404149,112.89765 30.439254149,114.60891000000001 28.582014149,116.30306999999999 26.793844148999998,117.97999000000002 25.073304149,119.64033 23.419254149,121.28497999999999 21.830364149,122.91485 20.305184149,124.53079 18.842184148999998,126.13365 17.439744149,127.72421 16.096574149,129.30355 14.812744149,130.87409 13.588510149000001,132.43837 12.423904149,133.99874 11.318777148999999,135.55727000000002 10.272845149,137.11588 9.285726149,138.67628 8.360380149,140.23962 7.5068221489999996,141.80616 6.734854149,143.37629 6.053185149,144.9506 5.4696631490000005,146.5299 4.991478249,148.11513200000002 4.622199949,149.706652 4.351272749,151.301798 4.165226949,152.898034 4.051833949,154.49390400000001 4.0,156.0889205 4.0,157.6834795 4.051833949,159.278496 4.165226949,160.874366 4.351272749,162.470602 4.622199949,164.065748 4.991478249,165.657268 5.4696631490000005,167.2425 6.053185149,168.8218 6.734854149,170.39611 7.5068221489999996,171.96624 8.360380149,173.53278 9.285726149,175.09612 10.272845149,176.65652 11.318777148999999,178.21513 12.423904149,179.77366 13.588510149000001,181.33403 14.812744149,182.89831 16.096574149,184.46885 17.439744149,186.04819 18.842184148999998,187.63875000000002 20.305184149,189.24161 21.830364149,190.85755 23.419254149,192.48742000000001 25.073304149,194.13207 26.793844148999998,195.79241 28.582014149,197.46933 30.439254149,199.16349 32.368404149,200.87475 34.372694149,202.60287 36.455564149000004,204.34755 38.620704149000005,206.10849000000002 40.872104149,207.88539 43.214104149,209.678 45.651264149,211.48641 48.18820414900001,213.31104 50.829804149000005,215.1524 53.581194149000005,217.01102 56.447794149,218.88749 59.435284149000005,220.78247000000002 62.549724149,222.69708 65.797484149,224.63323 69.184824149,226.59309 72.717644149,228.57891 76.401134149,230.59304 80.239454149,232.63772 84.236994149,234.71283 88.398664149,236.81615 92.728954149,238.94498 97.23185414899999,241.09626 101.91099414899999,243.26656000000003 106.770174149,245.45133 111.813574149,247.64461 117.04607414899999,249.84005000000002 122.47367414899999,252.03113000000002 128.104474149,254.21164 133.947474149,256.37811 140.011774149,258.52840000000003 146.306574149,260.66020000000003 152.840574149,262.7712 159.623074149,264.8593 166.663874149,266.9234 173.974274149,268.9626 181.566674149,270.977 189.455574149,272.9688 197.654174149,274.9423 206.170574149,276.90229999999997 215.00477414899999,278.8538 224.147474149,280.7983 233.580274149,282.7341 243.272474149,284.6595 253.182174149,286.56870000000004 263.26377414899997,288.4479 273.473074149,290.28290000000004 283.771574149,292.0608 294.128974149,293.7679 304.52627414899996,295.3914 314.955974149,296.9207 325.421374149,298.35 335.933374149,299.6773 346.51017414899997,300.9008 357.176674149,302.02160000000003 367.955574149,303.0483 378.857574149,303.9901 389.878974149,304.8555 401.00227414899996,305.65070000000003 412.197774149,306.3806 423.423974149,307.05060000000003 434.630174149,307.662 445.76467414900003,308.2092 456.780274149,308.6868 467.636574149,309.0902 478.30427414900004,309.4095 488.770974149,309.6346 499.037774149,309.7575 509.115474149,309.7724 519.018874149,309.67600000000004 528.764674149,309.4654 538.371074149,309.1374 547.856374149,308.6915 557.2356741489999,308.13070000000005 566.519974149,307.4581 575.717274149,306.6762 584.831874149,305.7889 593.862574149,304.8032 602.8003741489999,303.7271 611.629974149,302.5698 620.330774149,301.3408 628.880374149,300.0476 637.257574149,298.6977 645.443274149,297.2991 653.4216741490001,295.8595 661.178974149,294.3822 668.7013741489999,292.8666 675.976374149,291.3134 682.993874149,289.7251 689.746874149,288.105 696.231274149,286.4528 702.451474149,284.7616 708.4234741490001,283.0231 714.169774149,281.228 719.715674149,279.3663 725.087374149,277.4269 730.312174149,275.40110000000004 735.4141741489999,273.29060000000004 740.407974149,271.10040000000004 745.299374149,268.8383 750.087574149,266.5146 754.7664741489999,264.142 759.326474149,261.7357 763.754474149,259.3106 768.032374149,256.87217 772.147474149,254.41886 776.095474149,251.94704000000002 779.877174149,249.45131 783.4973741489999,246.92493000000002 786.962574149,244.36004 790.2805741489999,241.74773 793.459474149,239.07795 796.5086741490001,236.34088 799.4530741489999,233.54264 802.3243741489999,230.6995 805.1518741489999,227.82765999999998 807.962974149,224.94356 810.7834741490001,222.06426 813.638774149,219.20779 816.553874149,216.39341000000002 819.553574149,213.64181 822.654374149,210.96781000000001 825.8578741489999,208.37338 829.165074149,205.85897 832.5779741489999,203.42493000000002 836.0998741489999,201.0716 839.735674149,198.79935 843.4918741490001,196.60753 847.375474149,194.49045 851.393474149,192.44136 855.5525741490001,190.45397 859.859174149,188.52229 864.318074149,186.64057 868.933374149,184.80343 873.7101741490001,183.00679 878.651674149,181.24728 883.7563741490001,179.52187 889.0158741490001,177.82803 894.4130741490001,176.16415 899.925074149,174.5383 905.533574149,172.9684 911.228174149,171.47068000000002 917.009074149,170.05889 922.888974149,168.74479 928.895774149,167.5378 935.0665741490001,166.423857 941.428774149,165.367209 947.991074149,164.329463 954.7330741489999,163.269569 961.595474149,162.153371 968.510874149,161.02436600000001 975.455374149,159.966005 982.458774149,159.056192 989.612374149,158.372412 997.080374149,157.972002 1003.993974149,157.8862" stroke="black" stroke-width="2.0" /></svg>