<?xml version="1.0" encoding="utf-8" ?>
<svg baseProfile="full" height="161.21931" version="1.1" width="1012.02407232" xmlns="http://www.w3.org/2000/svg" xmlns:ev="http://www.w3.org/2001/xml-events" xmlns:xlink="http://www.w3.org/1999/xlink"><defs /><polygon fill="none" points="1004.02407232,111.3046 1000.16197232,110.35305579999999 995.5083723199999,109.20513299999999 990.62457232,107.998763 985.49357232,106.729541 980.09947232,105.393248 974.4288723199999,103.986232 968.47277232,102.505955 962.23007232,100.95174999999999 955.71067232,99.32574 948.9394723199999,97.63394 941.95527232,95.88763999999999 934.80347232,94.10106999999999 927.5306723199999,92.28909999999999 920.17847232,90.46561 912.77897232,88.64215999999999 905.3517723199999,86.82717 897.90257232,85.02523 890.42877232,83.2363 882.92737232,81.45916 875.3961723199999,79.69275999999999 867.8334723199999,77.93623 860.23847232,76.18887 852.61107232,74.45013 844.95227232,72.71968999999999 837.26357232,70.99734999999998 829.54767232,69.28312 821.8081723199999,67.57719999999999 814.04967232,65.87995999999998 806.27787232,64.19193999999999 798.49917232,62.51396999999999 790.7202723199999,60.84795 782.94707232,59.196149999999996 775.1840723199999,57.560599999999994 767.4350723199999,55.943059999999996 759.70257232,54.34499999999999 751.9880723199999,52.76765999999999 744.29207232,51.21207 736.61417232,49.67899 728.95287232,48.16904 721.3060723199999,46.68262 713.6704723199999,45.22 706.04207232,43.78130999999999 698.4161723199999,42.36644 690.78767232,40.97441999999998 683.1524723199999,39.603939999999994 675.50707232,38.253889999999984 667.84897232,36.923339999999996 660.17627232,35.611509999999996 652.48807232,34.31778999999999 644.78427232,33.04169999999999 637.0654723199999,31.782909999999987 629.33337232,30.541219999999996 621.5904723199999,29.31653 613.84007232,28.108869999999996 606.08657232,26.91838 598.33517232,25.745419999999996 590.5910723199999,24.591459999999998 582.85907232,23.458459999999988 575.14307232,22.348219999999998 567.44607232,21.262339999999995 559.77057232,20.20228999999999 552.11827232,19.16937999999999 544.48997232,18.16476999999999 536.8860723199999,17.189499999999995 529.30617232,16.244519999999994 521.7492723199999,15.330649999999991 514.2138723200001,14.44865 506.69777232,13.599239999999995 499.19847232,12.78304 491.71327232,12.000349999999997 484.23977232000004,11.2513 476.77627232000003,10.536299999999983 469.32157232,9.855399999999989 461.87487232,9.209199999999996 454.43557232000006,8.597999999999999 447.00397232,8.022300000000001 439.58047232,7.482599999999991 432.16607232,6.979299999999995 424.76207232,6.512999999999991 417.37027232,6.084199999999981 409.99287232000006,5.693299999999994 402.63227232,5.340900000000005 395.29147232,5.027399999999986 387.97297232,4.753900000000002 380.67897232,4.5212999999999965 373.41097232000004,4.3304999999999865 366.16997232000006,4.18219999999998 358.95647232,4.077199999999991 351.77037232000004,4.016199999999984 344.61137232,4.0 337.47847232,4.0291 330.37037232,4.104299999999995 323.28537232,4.226299999999995 316.22137232,4.395799999999994 309.17597231999997,4.613699999999994 302.14637232,4.880899999999997 295.12987232000006,5.198299999999989 288.12457231999997,5.56689999999999 281.12997232000004,5.987799999999993 274.14687232,6.4619 267.17707232000004,6.990099999999984 260.22367232000005,7.572999999999993 253.29087232,8.211199999999991 246.38377232,8.904899999999998 239.50887232,9.653999999999996 232.67297231999999,10.458399999999997 225.88397232,11.317139999999995 219.15037231999997,12.229280000000003 212.48087231999997,13.193339999999992 205.88437231999998,14.207499999999982 199.36987232,15.269699999999986 192.94457232,16.379009999999994 186.61137232,17.53560999999999 180.36867231999997,18.740229999999983 174.21137232,19.994299999999996 168.13147231999997,21.29994999999998 162.11837232,22.660099999999986 156.15937232,24.07862 150.23957231999998,25.560309999999987 144.34527232,27.10907999999999 138.46887232,28.726829999999993 132.61047231999999,30.41364999999999 126.77747232,32.16747999999998 120.98407232,33.98368999999998 115.25107232,35.854879999999994 109.60407232,37.770889999999994 104.07177232000001,39.7192 98.68315232,41.68572 93.46520231999999,43.655739999999994 88.44036232,45.61502999999999 83.62516232,47.55077999999999 79.02960232000001,49.452279999999995 74.65752232,51.31184 70.50890231999999,53.126 66.58160232,54.89211999999999 62.87084232,56.608059999999995 59.36928232,58.27243999999999 56.067622320000005,59.88470999999999 52.95516232,61.44504999999999 50.02216232,62.95505999999999 47.25958232,64.41807 44.656602320000005,65.83796999999998 42.20183232,67.21864 39.88403232,68.56378 37.69265232,69.87679 35.61801232,71.16068999999999 33.65132232,72.41814 31.784612319999997,73.65153 30.01065232,74.86298 28.32284232,76.05447 26.714822319999996,77.22962999999999 25.181132319999996,78.39312 23.71783232,79.54796999999999 22.32190232,80.69591 20.990822319999996,81.83769 19.72230232,82.97335999999999 18.514052319999998,84.10252 17.36372232,85.22448999999999 16.26888232,86.33846 15.22845232,87.44247999999999 14.24347232,88.53325999999998 13.31392432,89.60857999999999 12.43883832,90.66729 11.61669732,91.70893 10.84569632,92.73355 10.123926319999999,93.74153999999999 9.44948032,94.73347999999999 8.820529319999999,95.71011999999999 8.23536032,96.67223999999999 7.69239932,97.62071999999999 7.19022532,98.5564 6.72757132,99.48015 6.30332232,100.39282999999999 5.91651932,101.29529 5.5663483199999995,102.188339 5.25214232,103.07280399999999 4.97337642,103.949474 4.72966642,104.81913399999999 4.52076772,105.68256 4.34657702,106.540523 4.20713522,107.393795 4.10263237,108.24315499999999 4.033415721,109.089395 4.0,109.93332799999999 4.00308193,110.7757958 4.04354066,111.6176776 4.1216383,112.45975499999999 4.23668542,113.30259899999999 4.38810572,114.146715 4.57550472,114.99256 4.79865592,115.84054599999999 5.05748932,116.691041 5.3520853200000005,117.544372 5.68266632,118.400821 6.04959532,119.26061999999999 6.453373320000001,120.12395099999999 6.894635320000001,120.990933 7.37415332,121.86161 7.89283332,122.73594999999999 8.45171332,123.61380999999999 9.051963319999999,124.49492 9.69487332,125.37884 10.38184432,126.26495 11.114370319999999,127.15236999999999 11.89400132,128.03991 12.72229932,128.92599 13.60076132,129.80852 14.53071232,130.68482 15.51314232,131.55145 16.54851232,132.40404 17.636962320000002,133.23811999999998 18.77984232,134.0522 19.978742320000002,134.84577 21.235162319999997,135.6187 22.550482319999997,136.37122 23.92602232,137.10412 25.363062319999997,137.81878999999998 26.86298232,138.51739 28.42738232,139.20297 30.05836232,139.87944 31.75949232,140.54853 33.53549232,141.20999999999998 35.391512320000004,141.86352 37.333152319999996,142.5088 39.36652232,143.14556 41.49821232000001,143.77353 43.73529232,144.39249 46.08529232000001,145.00231 48.556162320000006,145.60296 51.156132320000005,146.19460999999998 53.89354232,146.77773 56.77701232,147.35269 59.817532320000005,147.91809999999998 63.027172320000005,148.47178 66.41825232,149.01127 70.00296232,149.53392 73.79336232,150.03696 77.80171232000001,150.51775999999998 82.04112232,150.97388 86.52545232,151.40155 91.26686232,151.79575 96.27392232,152.15111 101.54981232,152.46222999999998 107.09067232,152.72406999999998 112.88427232000001,152.93243999999999 118.90997232,153.0846 125.13987232,153.17974999999998 131.54097231999998,153.21931 138.08007232,153.20693 144.72667232,153.14822999999998 151.45827231999996,153.05025999999998 158.26277231999998,152.92063 165.13857231999998,152.76181 172.08677232,152.57226 179.10807232,152.35029 186.20297232,152.09416 193.37187232,151.80208 200.61447231999998,151.47222 207.93007232,151.10280999999998 215.31737231999998,150.69367 222.77447232,150.2462 230.29917232,149.76202999999998 237.88887232,149.24301 245.54057232,148.69115 253.25107232,148.10866 261.01667232000005,147.49797999999998 268.83347232,146.86167999999998 276.69717232,146.20258 284.60297232000005,145.52361 292.54597232000003,144.82791 300.52087232,144.11874 308.52207232,143.39944 316.54397232,142.67247 324.58147232,141.93950999999998 332.62967232,141.20215 340.68437232,140.46201 348.74197232000006,139.72063 356.79907232,138.97951999999998 364.85337232000006,138.24013 372.90267232,137.50386 380.94567232,136.77204999999998 388.98157232,136.04595 397.01007232,135.3268 405.03167232000004,134.61574 413.04697232000007,133.91362999999998 421.05687232,133.22071 429.06227232,132.53708999999998 437.06387232,131.86289 445.06207232,131.19826 453.05767232,130.54333 461.05097232,129.89827 469.04247232,129.26323 477.03227232,128.63839 485.02067232,128.02391999999998 493.00777232,127.42002 500.99357232,126.82686 508.97817232,126.24465 516.96137232,125.67357 524.9430723199999,125.11375999999998 532.92307232,124.56539 540.90137232,124.02862999999999 548.87777232,123.50362 556.85197232,122.99052999999999 564.82387232,122.48952 572.7932723199999,122.00074 580.75987232,121.52435 588.72357232,121.06050499999999 596.68397232,120.609365 604.6408723199999,120.17108099999999 612.5939723199999,119.745792 620.54307232,119.333587 628.48827232,118.93453799999999 636.4295723199999,118.54870799999999 644.36737232,118.17615199999999 652.3022723199999,117.81691799999999 660.2348723199999,117.47105099999999 668.1661723199999,117.138595 676.0971723199999,116.819588 684.02917232,116.51407499999999 691.9636723199999,116.22209699999999 699.90217232,115.94370199999999 707.84657232,115.678911 715.79867232,115.42690599999999 723.76007232,115.185994 731.7316723199999,114.954455 739.71387232,114.73057399999999 747.7066723199999,114.512639 755.70927232,114.29893899999999 763.72057232,114.08776499999999 771.73867232,113.87740699999999 779.76127232,113.666164 787.78547232,113.45234199999999 795.8076723199999,113.23426699999999 803.82377232,113.01028799999999 811.82937232,112.77946899999999 819.81977232,112.543815 827.7901723199999,112.306103 835.73607232,112.0690758 843.65297232,111.8354239 851.53657232,111.607773 859.38277232,111.38866929999999 867.18757232,111.18056739999999 874.9471723199999,110.98581899999999 882.6579723199999,110.806664 890.31677232,110.6452221 897.92027232,110.50348709999999 905.46567232,110.38332079999999 912.94937232,110.28622999999999 920.3611723199999,110.213117 927.6818723199999,110.164661 934.88537232,110.14122099999999 941.94077232,110.142703 948.8164723199999,110.16847299999999 955.48267232,110.21735299999999 961.91487232,110.287447 968.09797232,110.3761249 974.02627232,110.48075739999999 979.7017723199999,110.59891379999999 985.13137232,110.728421 990.32537232,110.8673826 995.29587232,111.01417119999999 1000.05617232,111.16740569999999 1004.02407232,111.3046" stroke="black" stroke-width="2.0" /></svg>