<?xml version="1.0" encoding="utf-8" ?>
<svg baseProfile="full" height="214.34897999999998" version="1.1" width="1012.1004634" xmlns="http://www.w3.org/2000/svg" xmlns:ev="http://www.w3.org/2001/xml-events" xmlns:xlink="http://www.w3.org/1999/xlink"><defs /><polygon fill="none" points="1004.1004634,174.9657 1000.6504634,173.700766 996.4881634,172.177169 992.1121634,170.578269 987.5041633999999,168.897861 982.6457634,167.129726 977.5192634,165.268046 972.1098634,163.30807 966.4080634000001,161.24711 960.4136633999999,159.08585 954.1401634,156.82996 947.6190634,154.4913 940.8974634,152.08613 934.0297634,149.63269 927.0703634,147.14888 920.0669634,144.64999 913.0554633999999,142.14705 906.0573633999999,139.64588 899.0789634,137.14702 892.1164634,134.64773 885.1651634,132.14497 878.2204634,129.63591 871.2784634,127.11783 864.3354634,124.58815 857.3884634,122.04443 850.4347634,119.48436000000001 843.4713634,116.90702999999999 836.4961633999999,114.3129 829.5073634,111.70282 822.5043633999999,109.07794 815.4872634,106.43979999999999 808.4572634,103.79030999999999 801.4164634,101.13176 794.3676634,98.46665 787.3141634,95.79746 780.2590634,93.12662 773.2053633999999,90.45655 766.1561634,87.78965 759.1142633999999,85.12825 752.0824634,82.47464 745.0633634,79.83116 738.0590634,77.2002 731.0713634,74.58399999999999 724.1013634,71.9845 717.1499633999999,69.4037 710.2175634,66.84299999999999 703.3041634,64.304 696.4093634,61.7881 689.5328634,59.29679999999999 682.6748633999999,56.831900000000005 675.8355634,54.395300000000006 669.0158634000001,51.989000000000004 662.2169633999999,49.61489999999999 655.4403633999999,47.275000000000006 648.6876634,44.971599999999995 641.9607634,42.70689999999999 635.2602634,40.48309999999998 628.5864634,38.3022 621.9386634,36.16559999999998 615.3153634,34.07470000000001 608.7147634,32.03030000000001 602.1340634000001,30.0334 595.5706634,28.08510000000001 589.0237634,26.18780000000001 582.4959633999999,24.344899999999996 575.9930634,22.560400000000016 569.5237633999999,20.838700000000017 563.0990634,19.184499999999986 556.7321633999999,17.60239999999999 550.4374634,16.096900000000005 544.2277634,14.673999999999978 538.1088634,13.339699999999993 532.0787634,12.097399999999993 526.1293634,10.948800000000006 520.2481634,9.894900000000007 514.4183634000001,8.935900000000004 508.6201634,8.072600000000023 502.8295634,7.305900000000008 497.02016340000006,6.634500000000003 491.1675634,6.051500000000004 485.25146340000003,5.550699999999978 479.2556634,5.127399999999994 473.1682634,4.7774 466.98276340000007,4.496999999999986 460.6993634,4.282499999999999 454.32666340000003,4.1299999999999955 447.88256340000004,4.035699999999991 441.3885634,4.0 434.86376340000004,4.023799999999994 428.3242634,4.107500000000016 421.7817634,4.251000000000005 415.24376340000003,4.453800000000001 408.7134634,4.715400000000017 402.1894634,5.035499999999985 395.6669634,5.413899999999984 389.14046340000004,5.850200000000001 382.60626340000005,6.343900000000019 376.06166340000004,6.8947 369.5053634,7.502299999999991 362.93776340000005,8.166300000000007 356.3604634,8.885899999999992 349.7765634,9.66040000000001 343.1901634,10.489200000000011 336.60496340000003,11.371899999999982 330.0242634,12.308099999999996 323.4505634,13.297499999999985 316.8860634,14.339699999999993 310.3319634,15.434499999999986 303.7894634,16.581500000000005 297.2586634,17.780599999999993 290.7398634,19.03189999999998 284.23346340000006,20.335399999999993 277.7399634,21.691099999999977 271.26026340000004,23.098900000000015 264.79516340000004,24.558600000000013 258.3457634,26.070299999999975 251.9132634,27.633499999999998 245.4991634,29.248199999999997 239.1051634,30.914500000000004 232.7330634,32.63229999999999 226.3847634,34.4016 220.0622634,36.222200000000015 213.7675634,38.093800000000016 207.5029634,40.0162 201.2705634,41.989000000000004 195.0727634,44.01170000000002 188.9113634,46.084299999999985 182.7882634,48.20679999999999 176.7044634,50.3793 170.66066339999998,52.6019 164.6572634,54.875 158.6942634,57.1991 152.77126339999998,59.574799999999996 146.8880634,62.003 141.04686339999998,64.48479999999999 135.25236339999998,67.0198 129.5117634,69.6066 123.8346634,72.2421 118.2319634,74.922 112.7160634,77.64061 107.30026339999999,80.39121 101.9975934,83.16601 96.8201634,85.95759 91.77415339999999,88.76176 86.8584234,91.578 82.0662834,94.40893999999999 77.3871234,97.25994 72.81135339999999,100.13690999999999 68.34747339999998,103.03514 64.0251234,105.93442 59.8858234,108.80301 55.971263400000005,111.60462 52.312773400000005,114.30624 48.92475340000001,116.88691 45.7964734,119.34549999999999 42.9013234,121.69355999999999 40.2089234,123.94712 37.6904534,126.12293 35.320423399999996,128.23687999999999 33.0768434,130.30371 30.9408034,132.33714 28.8959334,134.35017 26.9279734,136.35574 25.028733399999997,138.36271 23.199693399999997,140.3699 21.449413399999997,142.367 19.789893400000004,144.33717 18.2327534,146.26077 16.7860234,148.11948999999998 15.452503400000001,149.89944 14.229843400000002,151.59243 13.1118404,153.1957 12.0899544,154.71061 11.1547434,156.14125 10.296792400000001,157.4932 9.5072724,158.77263 8.7783614,159.98575 8.1070704,161.13808 7.4935844,162.23522 6.9365344,163.28325 6.4337824,164.28806 5.9830004,165.255005 5.5819714000000005,166.18891 5.2287334,167.094041 4.9216403,167.974187 4.6593929,168.832725 4.4410431,169.672697 4.2659987,170.496871 4.13402893,171.307809 4.04527601,172.107919 4.0002771,172.89951 4.0,173.684847 4.04589692,174.4662046 4.13994766,175.2459178 4.2830337,176.02573 4.4741434,176.806297 4.7126114999999995,177.58798 4.9982438,178.370907 5.3312634,179.154957 5.7122694,179.939713 6.1421984,180.7244 6.6222854,181.507793 7.1540064,182.288096 7.7390024,183.062771 8.3789464,183.828322 9.075344399999999,184.580013 9.829716399999999,185.31255 10.6453294,186.0239 11.5262614,186.71312 12.476943400000001,187.37925 13.5021724,188.02142 14.6071334,188.63882 15.7973934,189.23081 17.0789134,189.79704 18.4579534,190.3375 19.9410134,190.85282 21.534633399999997,191.34445 23.245113399999997,191.81513999999999 25.0779934,192.2694 27.037293399999996,192.71435 29.1243634,193.16072 31.3393834,193.62075 33.6912334,194.09688 36.1912534,194.58819 38.8503434,195.09296 41.6785334,195.60851 44.684913400000006,196.13112999999998 47.8784934,196.65623 51.270533400000005,197.17861 54.8794534,197.6931 58.7335234,198.19642 62.8615634,198.6888 67.2922434,199.17132 72.0511634,199.6458 77.1536534,200.11504 82.59340339999999,200.58262 88.3413734,201.04631 94.35541339999999,201.49915 100.5884734,201.93482 107.0028634,202.34879 113.57666339999999,202.73884 120.2909634,203.10401 127.12546339999999,203.44395 134.0601634,203.75892 141.0761634,204.04981 148.1572634,204.31804 155.2906634,204.56554 162.4679634,204.79408 169.6832634,205.00425 176.9314634,205.19657 184.2078634,205.37161 191.5082634,205.53003999999999 198.8292634,205.67261 206.1681634,205.80012 213.5229634,205.91324 220.8915634,206.01236 228.27226339999999,206.09788 235.6631634,206.17019 243.06266340000002,206.22974 250.46916339999999,206.27694 257.88126339999997,206.31225 265.2974634,206.33594 272.7168634,206.34815 280.13906340000005,206.34897999999998 287.5638634,206.33858 294.99146340000004,206.31706 302.4225634,206.28455 309.85826340000006,206.24117 317.29946340000004,206.18717 324.7465634,206.12286 332.19866340000004,206.04855 339.6543634,205.96458 347.1111634,205.87129 354.5656634,205.76906 362.0136634,205.65803 369.4515634,205.53739 376.8767634,205.40617 384.28846340000007,205.26337999999998 391.6870634,205.10802999999999 399.0744634,204.93908 406.45366340000004,204.75548 413.8291634,204.55671999999998 421.2049634,204.34316 428.5850634,204.11526 435.9725634,203.87345 443.3700634,203.61818 450.77976340000004,203.34987999999998 458.2033634,203.06902 465.64186340000003,202.77636 473.09586340000004,202.47289 480.5653634,202.15968 488.0497634000001,201.83782 495.5479634,201.50843 503.05806340000004,201.1727 510.57776340000004,200.83174 518.1043633999999,200.48603 525.6359634,200.1358 533.1710633999999,199.78124 540.7086634,199.42253 548.2485634,199.05981 555.7910634,198.69321 563.3370633999999,198.32287 570.8873633999999,197.94909 578.4427634,197.5722 586.0034633999999,197.19253 593.5693633999999,196.81044 601.1404633999999,196.4263 608.7159634,196.04049 616.2951634,195.65338 623.8772634,195.26529 631.4613634,194.87654 639.0468634,194.48747 646.6329633999999,194.09839 654.2189634,193.70963 661.8041634,193.32148999999998 669.3881634,192.93417 676.9704634,192.54787 684.5506634,192.16276 692.1287634,191.779 699.7046634,191.39677 707.2785633999999,191.01622 714.8505634,190.63747 722.4209634,190.26062 729.9898634,189.88576 737.5572634,189.51301 745.1230634,189.14247 752.6872634,188.77424 760.2495633999999,188.40843999999998 767.8098633999999,188.04512 775.3678634,187.68435 782.9238634000001,187.32614 790.4777634,186.97053 798.0300634,186.61755 805.5809634,186.26721 813.1311634,185.91962999999998 820.6799634,185.57515 828.2256633999999,185.2342 835.7649633999999,184.897282 843.2933634,184.56493799999998 850.8049633999999,184.23775899999998 858.2925634,183.916268 865.7486633999999,183.599248 873.1681633999999,183.283954 880.5481634,182.967566 887.8887633999999,182.647248 895.1919634,182.320152 902.4621634,181.983402 909.7054634,181.634137 916.9237634,181.270144 924.1058634,180.890149 931.2269633999999,180.493825 938.2509633999999,180.08189 945.1342634,179.656106 951.8313634,179.219136 958.2996634,178.774314 964.5070634,178.325819 970.4365634,177.877611 976.0841634,177.432712 981.4553634,176.993291 986.5614634,176.560811 991.4173634,176.136188 996.0392634,175.7199327 1000.4439634,175.3122644 1004.1004634,174.9657" stroke="black" stroke-width="2.0" /></svg>