<?xml version="1.0" encoding="utf-8" ?>
<svg baseProfile="full" height="54.477372" version="1.1" width="1012.0096775210001" xmlns="http://www.w3.org/2000/svg" xmlns:ev="http://www.w3.org/2001/xml-events" xmlns:xlink="http://www.w3.org/1999/xlink"><defs /><polygon fill="none" points="1004.0096775210001,34.4584 1001.0546775209999,34.356035 997.2743775209999,34.204904 993.017377521,34.007577 988.216477521,33.750504 982.869077521,33.421029 977.1117775209999,33.020714 971.176777521,32.577115 965.243777521,32.123453999999995 959.355277521,31.682152 953.4681775209999,31.251506 947.552477521,30.822235999999997 941.606477521,30.387099999999997 935.652577521,29.946316999999997 929.710577521,29.508431 923.7861775209999,29.081494 917.871077521,28.67058 911.952877521,28.27237 906.0228775209999,27.881749999999997 900.0767775209999,27.493879999999997 894.114777521,27.104129999999998 888.141677521,26.70902 882.163677521,26.309779999999996 876.185477521,25.909139999999997 870.209977521,25.509719999999998 864.237877521,25.113989999999998 858.2680775209999,24.72399 852.298577521,24.339959999999998 846.327877521,23.961479999999998 840.3544775209999,23.588189999999997 834.377777521,23.21973 828.3970775209999,22.8557 822.412377521,22.495179999999998 816.4238775209999,22.13704 810.4318775209999,21.78015 804.437077521,21.423389999999998 798.4400775209999,21.065769999999997 792.441877521,20.707089999999997 786.442977521,20.34754 780.443577521,19.987309999999997 774.443977521,19.62654 768.443777521,19.26543 762.442977521,18.90438 756.442377521,18.54395 750.443477521,18.184789999999996 744.448577521,17.82756 738.4610775209999,17.4731 732.4840775209999,17.12339 726.5190775209999,16.78092 720.5660775209999,16.44802 714.623077521,16.126939999999998 708.686577521,15.819410000000001 702.752677521,15.522639999999999 696.8182775209999,15.231179999999998 690.881477521,14.939569999999996 684.941577521,14.642419999999998 678.9990775209999,14.334769999999999 673.0550775209999,14.017429999999997 667.110677521,13.69566 661.167377521,13.374789999999997 655.226677521,13.060199999999998 649.290377521,12.757169999999999 643.360477521,12.469679999999997 637.439477521,12.20055 631.5298775209999,11.952489999999997 625.634377521,11.72814 619.756077521,11.52985 613.8974775209999,11.352989999999998 608.058877521,11.184839999999998 602.2372775209999,11.0124 596.426377521,10.822769999999998 590.616877521,10.60296 584.7961775209999,10.346059999999998 578.952577521,10.061429999999998 573.0785775209999,9.761330000000001 567.171377521,9.458599999999997 561.233077521,9.165349999999997 555.270077521,8.883659999999999 549.289377521,8.610909999999997 543.2987775209999,8.344389999999997 537.305977521,8.081449999999997 531.317977521,7.821859999999997 525.338877521,7.5675399999999975 519.369077521,7.320309999999999 513.4057775210001,7.081809999999994 507.443377521,6.852939999999997 501.47757752100006,6.633339999999997 495.508277521,6.422719999999998 489.538877521,6.220869999999998 483.57657752100005,6.028129999999997 477.62747752100006,5.846589999999999 471.692277521,5.678600000000003 465.766277521,5.526350000000001 459.839177521,5.391620000000003 453.89887752100003,5.272529999999996 447.937777521,5.164999999999999 441.955277521,5.0649799999999985 435.95717752100006,4.968409999999999 429.955777521,4.870829999999998 423.965577521,4.7671199999999985 418.00137752100005,4.6522700000000015 412.078077521,4.5215299999999985 406.209177521,4.376329999999996 400.399377521,4.233719999999998 394.640977521,4.112159999999996 388.915077521,4.02908 383.1921775210001,4.0 377.43907752100006,4.02131 371.63267752100006,4.077449999999999 365.76337752100005,4.152099999999997 359.83737752100006,4.227809999999998 353.875877521,4.293519999999994 347.90197752100005,4.352930000000001 341.93067752100006,4.41169 335.96817752100003,4.475569999999998 330.01247752100005,4.549430000000001 324.057477521,4.63382 318.098677521,4.7280799999999985 312.13277752100004,4.831559999999996 306.15837752100003,4.943550000000002 300.17527752100006,5.0629399999999976 294.18457752100005,5.188359999999996 288.18847752100004,5.318359999999998 282.190377521,5.451519999999995 276.194277521,5.587609999999998 270.203877521,5.727999999999994 264.221877521,5.874159999999996 258.249777521,6.027569999999997 252.288277521,6.189719999999994 246.336677521,6.36215 240.393377521,6.546390000000002 234.455377521,6.744039999999998 228.518977521,6.956569999999999 222.580677521,7.1842700000000015 216.639677521,7.426849999999998 210.698377521,7.68393 204.762077521,7.954989999999999 198.835477521,8.240949999999998 192.913477521,8.544080000000001 186.988677521,8.864389999999997 181.066777521,9.200789999999998 175.148677521,9.554589999999997 169.221477521,9.926059999999996 163.284377521,10.31158 157.350577521,10.709459999999996 151.42127752099998,11.1208 145.498177521,11.54578 139.601777521,11.985419999999998 133.736177521,12.44753 127.876977521,12.937779999999997 122.010477521,13.455379999999998 116.139477521,13.998629999999999 110.263377521,14.56599 104.374277521,15.154449999999997 98.46632752100001,15.760760000000001 92.592667521,16.37743 86.836297521,17.01205 81.148167521,17.697689999999998 75.401777521,18.4244 69.568997521,19.15151 63.760267521,19.874869999999998 58.151677520999996,20.607979999999998 52.753087521000005,21.39952 47.474787521,22.210089999999997 42.440517521000004,23.027279999999998 37.532497521,23.877689999999998 32.880187520999996,24.73152 28.243477521,25.74505 23.927847521,26.740899999999996 20.110477521,27.817529999999998 16.785217521,28.93472 14.033227521,30.006617999999996 11.831438520999999,31.021158999999997 10.070174521,32.019813 8.622976521,32.958597 7.441638521,33.805797999999996 6.471534521,34.595000999999996 5.686880521,35.36311499999999 5.072763521000001,36.114675 4.614694621,36.832708 4.293116821,37.512753 4.090803541,38.163640699999995 4.0,38.7971925 4.022354301,39.426657399999996 4.156079121,40.063167 4.402083321,40.712928 4.770619321,41.376808 5.278188521000001,42.044458 5.937756521,42.682922 6.757707521,43.254348 7.755841521,43.730857 8.986619521,44.126628 10.501981521000001,44.538661 12.306072520999999,44.968685 14.492387521,45.318940999999995 17.300077521,45.601563999999996 20.857707521000002,45.825271 25.276757520999997,45.996806 30.331097521,46.144444 35.707377521,46.20763 41.385587521,46.203593999999995 47.213747520999995,46.189856999999996 53.075637521,46.200955 58.990487521,46.238444 64.954927521,46.288193 70.929187521,46.340976999999995 76.889867521,46.389671 82.83777752099999,46.427659 88.789457521,46.453106999999996 94.755687521,46.468441 100.734577521,46.476205 106.712677521,46.477372 112.676177521,46.468894 118.619177521,46.447187 124.543677521,46.409988999999996 130.455977521,46.364805 136.361077521,46.32361 142.262477521,46.298096 148.161877521,46.289527 154.06007752099998,46.285075 159.958077521,46.270928 165.856477521,46.237443 171.756977521,46.192795 177.663177521,46.149927 183.580877521,46.121196 189.516577521,46.108188 195.473077521,46.103476 201.449077521,46.099238 207.438577521,46.090486 213.434877521,46.078896 219.433077521,46.067088 225.429477521,46.057179 231.422177521,46.048043 237.41037752100002,46.037279999999996 243.394477521,46.022679 249.373777521,46.006473 255.339777521,45.995428 261.27447752100005,45.996372 267.15307752100006,46.008496 272.962677521,46.011116 278.713277521,45.98151 284.434477521,45.900135999999996 290.16537752100004,45.775392 295.932577521,45.633987 301.74507752100004,45.504037 307.594777521,45.404277 313.467377521,45.327422 319.351877521,45.261821999999995 325.241377521,45.195550999999995 331.13337752100006,45.11656 337.02947752100005,45.016386 342.933177521,44.89945 348.847077521,44.773047999999996 354.772877521,44.644562 360.711177521,44.521479 366.661577521,44.40976 372.622677521,44.30775 378.59247752100003,44.211524 384.56837752100006,44.117123 390.54717752100004,44.020571 396.52517752100005,43.918273 402.499477521,43.808713999999995 408.468277521,43.691069999999996 414.431977521,43.564488999999995 420.392477521,43.428081999999996 426.353477521,43.281265999999995 432.31917752100003,43.125712 438.292277521,42.96401 444.27447752100005,42.7988 450.265777521,42.632788 456.264477521,42.468461999999995 462.268277521,42.306304 468.275077521,42.145875 474.283477521,41.986716 480.292277521,41.828351 486.301277521,41.67027 492.30977752100006,41.511814 498.31707752100004,41.35227 504.32117752100004,41.190947 510.3198775210001,41.027179 516.309977521,40.860638 522.2887775209999,40.693591 528.255577521,40.529502 534.2117775209999,40.371744 540.160877521,40.223611 546.108177521,40.087917999999995 552.059877521,39.963256099999995 558.020077521,39.8458671 563.9903775209999,39.731998499999996 569.9703775209999,39.6179114 575.956677521,39.5001713 581.945277521,39.3788337 587.932677521,39.2562235 593.9174775209999,39.1346725 599.8997775209999,39.01647364 605.8811775209999,38.90376489 611.8641775209999,38.797044899999996 617.8507775209999,38.6956582 623.841577521,38.598946 629.8358775209999,38.5062662 635.8321775210001,38.4170227 641.828177521,38.331128199999995 647.8224775209999,38.248877799999995 653.814477521,38.1705591 659.805077521,38.0964447 665.7960775209999,38.0267735 671.789677521,37.961387 677.787177521,37.899803999999996 683.7882775209999,37.841552 689.790777521,37.786166 695.791177521,37.73325 701.7851775209999,37.683506 707.7700775210001,37.638605999999996 713.745477521,37.600218999999996 719.713077521,37.569984999999996 725.6770775209999,37.549472 731.6426775209999,37.53871 737.614277521,37.536201999999996 743.594677521,37.540395 749.584577521,37.54973 755.582977521,37.562656 761.587477521,37.578313 767.594977521,37.596627 773.602777521,37.61756 779.607977521,37.641067 785.6077775209999,37.667125999999996 791.5998775209999,37.696438 797.582977521,37.730557 803.557277521,37.77108 809.524777521,37.819603 815.488477521,37.877705 821.452877521,37.945668999999995 827.4218775209999,38.0220731 833.398477521,38.1053765 839.384777521,38.194026 845.3816775209999,38.286456699999995 851.388977521,38.3817279 857.3971775209999,38.4797085 863.4026775209999,38.580425999999996 869.411577521,38.684070899999995 875.408577521,38.790499499999996 881.3779775209999,38.90168456 887.312877521,39.02295458 893.214277521,39.159868599999996 899.090277521,39.3180159 904.9555775209999,39.5031578 910.8304775209999,39.7161914 916.732777521,39.9476762 922.672077521,40.186499 928.6492775209999,40.422197 934.651777521,40.652533999999996 940.6533775209999,40.878409999999995 946.646777521,41.101563999999996 952.591477521,41.3238 958.493777521,41.549835 964.4021775209999,41.786029 970.3757775209999,42.037385 976.3087775209999,42.295683 982.250877521,42.558029 987.839977521,42.803891 992.822277521,43.021046 997.186177521,43.209678 1001.014977521,43.373967 1003.979677521,43.5004" stroke="black" stroke-width="2.0" /></svg>