<?xml version="1.0" encoding="utf-8" ?>
<svg baseProfile="full" height="140.37346" version="1.1" width="1012.4711513220001" xmlns="http://www.w3.org/2000/svg" xmlns:ev="http://www.w3.org/2001/xml-events" xmlns:xlink="http://www.w3.org/1999/xlink"><defs /><polygon fill="none" points="1004.4711513220001,91.74535999999999 1000.572751322,91.08474899999999 995.775951322,90.27487099999999 990.642951322,89.41187699999999 985.180551322,88.49764099999999 979.4262513220001,87.53982299999998 973.4458513220001,86.55529299999999 967.312751322,85.56470999999999 961.089351322,84.58646999999999 954.817751322,83.61563 948.517651322,82.62194 942.1815513220001,81.56885 935.773851322,80.43561 929.2549513220001,79.24179999999998 922.605351322,78.01800999999999 915.8338513220001,76.7922 908.965651322,75.56788999999999 902.025151322,74.34340999999999 895.032451322,73.11586999999999 888.002251322,71.88440999999999 880.9460513220001,70.65090999999998 873.8728513220001,69.41702999999998 866.789651322,68.18409 859.7015513220001,66.95364 852.6129513220001,65.72734 845.528051322,64.50672999999999 838.450151322,63.29355999999999 831.3796513220001,62.08968999999999 824.313651322,60.89637999999999 817.2462513220001,59.71414999999999 810.170251322,58.54113999999999 803.081451322,57.37484999999999 795.9785513220002,56.21327999999999 788.8632513220001,55.05510999999999 781.737751322,53.89967999999999 774.6038513220001,52.74627999999999 767.462651322,51.59413999999999 760.3151513220001,50.44271999999999 753.163651322,49.29185999999999 746.0118513220001,48.141679999999994 738.8646513220001,46.99291999999999 731.725851322,45.84753999999999 724.595951322,44.707269999999994 717.4725513220001,43.57326999999999 710.351851322,42.44538999999999 703.231351322,41.322759999999995 696.111051322,40.20488999999999 688.9933513220001,39.09185999999999 681.881151322,37.98479999999999 674.7769513220001,36.88497999999999 667.682551322,35.79356999999999 660.5987513220001,34.71181999999999 653.5250513220001,33.64109999999999 646.4594513220001,32.582519999999995 639.398351322,31.536770000000004 632.338251322,30.50323999999999 625.2771513220001,29.481030000000004 618.2148513220001,28.469499999999982 611.152651322,27.46857999999999 604.0932513220001,26.478989999999982 597.0400513220001,25.50163999999998 589.9976513220001,24.53761999999999 582.969651322,23.588889999999992 575.955951322,22.65759 568.9521513220001,21.745249999999984 561.949851322,20.852339999999984 554.9425513220001,19.977079999999987 547.931051322,19.11797999999999 540.9235513220001,18.274449999999987 533.932951322,17.448719999999994 526.966051322,16.64569999999999 520.018551322,15.869259999999983 513.0757513220001,15.121739999999988 506.119051322,14.400049999999993 499.13805132199997,13.698529999999991 492.134151322,13.012599999999992 485.120151322,12.339619999999982 478.112251322,11.682309999999987 471.120951322,11.044539999999998 464.150251322,10.429379999999995 457.197851322,9.838979999999992 450.259651322,9.27458 443.330951322,8.737309999999994 436.40705132200003,8.228319999999982 429.483551322,7.747579999999999 422.558251322,7.294060000000002 415.631851322,6.866879999999995 408.707451322,6.465459999999979 401.78935132199996,6.090549999999993 394.880251322,5.7433699999999845 387.981051322,5.4250299999999925 381.090751322,5.136439999999979 374.20865132200004,4.878249999999994 367.335251322,4.651059999999987 360.472851322,4.455529999999996 353.62455132199995,4.29271 346.791751322,4.164249999999981 339.973351322,4.071799999999996 333.165151322,4.016939999999991 326.361651322,4.0 319.560251322,4.020079999999993 312.76275132200004,4.076229999999995 305.97475132200003,4.167599999999979 299.203851322,4.295329999999993 292.454751322,4.461729999999989 285.728551322,4.669099999999986 279.022751322,4.9195899999999995 272.333851322,5.214219999999997 265.659651322,5.553579999999997 258.999651322,5.9381799999999885 252.354951322,6.368539999999996 245.727351322,6.845339999999993 239.118351322,7.369289999999992 232.52915132200002,7.941109999999995 225.96045132199998,8.561589999999981 219.413451322,9.231799999999993 212.89005132199998,9.952749999999995 206.392651322,10.725339999999989 199.923951322,11.55082999999999 193.481551322,12.433059999999983 187.057551322,13.372629999999987 180.657951322,14.363159999999993 174.295051322,15.40743999999998 167.961251322,16.511629999999997 161.65595132200002,17.668149999999983 155.399451322,18.875019999999978 149.19505132199998,20.142269999999996 143.034351322,21.47162999999999 136.922751322,22.860219999999998 130.866351322,24.310069999999996 124.863851322,25.82123999999999 118.92215132199999,27.38825 113.05605132199999,29.00857999999998 107.277751322,30.68249999999999 101.595651322,32.411269999999995 96.016071322,34.19373999999999 90.54806132200001,36.02302999999999 85.20722132200001,37.89016999999999 80.016651322,39.784119999999994 75.001091322,41.69876999999999 70.172891322,43.634559999999986 65.53569132199999,45.582559999999994 61.102841321999996,47.52251999999999 56.895971322,49.44017999999999 52.929941322,51.33013 49.207341322,53.18667999999999 45.720841322,54.998349999999995 42.461231321999996,56.742079999999994 39.432251322,58.416199999999996 36.637781321999995,60.04082 34.071101322000004,61.64921999999999 31.688241322,63.22841999999999 29.437711322,64.72055999999999 27.313231321999996,66.11860999999999 25.327371321999998,67.45260999999999 23.483181322,68.74428999999999 21.776601322,70.0071 20.199761321999997,71.24949 18.742491322,72.47336999999999 17.395231322,73.67938 16.147501322,74.86578999999999 14.988401322000001,76.02915999999999 13.908595322,77.16684999999998 12.900701322000002,78.27770999999998 11.960008322,79.3628 11.082653321999999,80.42299999999999 10.265079322,81.45886999999999 9.504462322,82.47091999999999 8.803126322,83.46152 8.164291322,84.43500999999999 7.588201322,85.39621999999999 7.0663543220000005,86.34779699999999 6.588780322,87.28901699999999 6.1479103219999995,88.21695999999999 5.738574322,89.12735199999999 5.364109322,90.01534 5.030169322,90.87856599999999 4.739993422,91.717361 4.495430922,92.53364299999998 4.297733222,93.33022199999999 4.148104522,94.11040799999999 4.048105642,94.87784699999999 4.0,95.6364957 4.007113247,96.39072189999999 4.071302582,97.1455099 4.189320822,97.90594999999999 4.358148322,98.67658399999999 4.5754080219999995,99.461469 4.838885422,100.264146 5.145970322,101.08742899999999 5.492930321999999,101.93292299999999 5.8739613219999995,102.80022699999999 6.281535322,103.685565 6.719523322000001,104.57982499999999 7.200866322,105.472343 7.741475322,106.35365999999999 8.360050322,107.21672 9.060727322,108.06464999999999 9.832200321999998,108.90713 10.660197322,109.75229999999999 11.542190322,110.59948999999999 12.482084322,111.44440999999999 13.484781322,112.28267 14.556591322,113.11014999999999 15.702771322,113.92600999999999 16.926121322,114.73219999999999 18.228021322000004,115.53063999999999 19.609401322,116.32041 21.074061322,117.09431 22.627191321999998,117.84338 24.275821322,118.55758999999999 26.029571322,119.22747999999999 27.895991322,119.86307 29.878821321999997,120.49103 31.978171321999998,121.14732 34.189011322,121.87494999999998 36.519441322,122.67117999999999 38.993691322000004,123.49083999999999 41.637341322,124.29303999999999 44.467271322,125.06506999999999 47.500991322,125.79948999999999 50.757151322,126.49767 54.253551322,127.17038 57.99538132199999,127.83645999999999 61.979481322,128.48707 66.21021132199999,129.10165 70.694121322,129.66664 75.43210132200001,130.18077999999997 80.414301322,130.64676 85.623991322,131.06047999999998 91.047761322,131.41532999999998 96.675771322,131.71133 102.490401322,131.95274 108.465951322,132.14148999999998 114.574251322,132.27733 120.796251322,132.35476 127.125751322,132.37346 133.551251322,132.34004 140.057251322,132.25698 146.636851322,132.1272 153.27645132199999,131.95740999999998 159.95905132200002,131.7455 166.688351322,131.4897 173.462051322,131.19967 180.263151322,130.87876 187.080651322,130.52384999999998 193.918651322,130.12875 200.788951322,129.69492 207.69705132200002,129.22797 214.64005132199998,128.7335 221.616951322,128.21205999999998 228.63765132199998,127.66583 235.708551322,127.10137999999999 242.826451322,126.5265 249.977951322,125.94859999999998 257.145251322,125.36984999999999 264.31395132200004,124.79081 271.473251322,124.21161 278.615551322,123.63051999999999 285.733851322,123.04459999999999 292.821151322,122.45096999999998 299.87155132199996,121.84635999999999 306.884251322,121.22605999999999 313.867551322,120.58448999999999 320.837851322,119.91584999999999 327.816151322,119.22317 334.816051322,118.51767999999998 341.839551322,117.81216999999998 348.87735132200004,117.11581999999999 355.918751322,116.42303 362.961751322,115.72446 370.01445132199996,115.01004999999999 377.091651322,114.27620999999999 384.203751322,113.52712 391.35105132200005,112.76848999999999 398.523751322,112.00621999999998 405.70805132199996,111.24261999999999 412.892851322,110.47854 420.07165132200004,109.71446999999999 427.240951322,108.95178999999999 434.398151322,108.19300999999999 441.540251322,107.44068999999999 448.66405132200003,106.69739999999999 455.768051322,105.96563699999999 462.853951322,105.24750599999999 469.926851322,104.54471799999999 476.992951322,103.85748799999999 484.054051322,103.18517399999999 491.106451322,102.52763099999999 498.141251322,101.88588399999999 505.151151322,101.26406999999999 512.136951322,100.66641999999999 519.108151322,100.09631699999998 526.079251322,99.553767 533.061851322,99.03557799999999 540.0612513220001,98.538913 547.0768513220002,98.06156399999999 554.104951322,97.602616 561.143051322,97.16147279999998 568.1902513220001,96.73740249999999 575.247551322,96.32950933999999 582.3154513220001,95.93678429999999 589.394051322,95.5582506 596.482151322,95.19300799999999 603.5780513220001,94.84055299999999 610.679551322,94.500598 617.784351322,94.17285799999999 624.8895513220001,93.857327 631.9937513220001,93.55467699999998 639.097451322,93.26560699999999 646.2029513220001,92.99068 653.313751322,92.72947099999999 660.4322513220001,92.48084999999999 667.558951322,92.243732 674.692951322,92.017209 681.832351322,91.80084899999999 688.975551322,91.59431299999999 696.120851322,91.397258 703.2668513220001,91.209555 710.412651322,91.03130999999999 717.5577513220001,90.86262599999999 724.702051322,90.70355699999999 731.845051322,90.55397699999999 738.984751322,90.413721 746.117851322,90.28265599999999 753.2396513220001,90.16147199999999 760.345851322,90.052061 767.4335513220001,89.956352 774.500851322,89.87624899999999 781.547151322,89.813948 788.5740513220001,89.77176999999999 795.585151322,89.75200799999999 802.585951322,89.75635999999999 809.5816513220001,89.78495699999999 816.5762513220001,89.837729 823.5719513220001,89.91461299999999 830.570451322,90.01494999999998 837.5739513220001,90.13751299999998 844.585651322,90.28109699999999 851.609651322,90.44445099999999 858.6471513220001,90.625705 865.6897513220001,90.82250599999999 872.7197513220001,91.03214299999999 879.7125513220001,91.25433299999999 886.654251322,91.49419599999999 893.5497513220001,91.75780599999999 900.421451322,92.051446 907.295251322,92.37518599999999 914.168151322,92.722528 920.9986513220001,93.08469199999999 927.7139513220001,93.45549499999998 934.2592513220001,93.85559299999998 940.6473513220001,94.315412 946.9449513220001,94.86241 953.232651322,95.48706429999999 959.5463513220001,96.1565945 965.8643513220001,96.83265159999999 972.1136513220001,97.490811 978.2017513220001,98.124675 984.0421513220001,98.72920799999999 989.5705513220001,99.300384 994.756251322,99.83545099999999 999.597651322,100.33440499999999 1003.531151322,100.73935999999999" stroke="black" stroke-width="2.0" /></svg>