<?xml version="1.0" encoding="utf-8" ?>
<svg baseProfile="full" height="131.6644" version="1.1" width="1012.001348092" xmlns="http://www.w3.org/2000/svg" xmlns:ev="http://www.w3.org/2001/xml-events" xmlns:xlink="http://www.w3.org/1999/xlink"><defs /><polygon fill="none" points="1004.001348092,73.3914 1000.601148092,73.0056003 996.3747480919999,72.51631060000001 991.7828480919999,71.972458 986.795248092,71.36728000000001 981.405248092,70.69632100000001 975.651148092,69.96065300000001 969.625848092,69.17016100000001 963.443948092,68.340181 957.201148092,67.485246 950.9475480919999,66.614802 944.689048092,65.735303 938.421348092,64.854814 932.1436480919999,63.982051000000006 925.8584480919999,63.125840000000004 919.571248092,62.28557000000001 913.2851480919999,61.450410000000005 906.9973480919999,60.608360000000005 900.699448092,59.74701 894.3786480919999,58.86258000000001 888.026648092,57.960710000000006 881.6436480919999,57.048790000000004 875.2393480919999,56.13533000000001 868.829648092,55.22358 862.4259480919999,54.311150000000005 856.031448092,53.39433000000001 849.6414480919999,52.46864000000001 843.246548092,51.53242 836.839848092,50.58655 830.418848092,49.632600000000004 823.9856480919999,48.67277000000001 817.544748092,47.70931 811.1000480919998,46.74414 804.653448092,45.778960000000005 798.205548092,44.815090000000005 791.756048092,43.85287 785.305148092,42.89237 778.853148092,41.933730000000004 772.400648092,40.97711 765.948748092,40.02273 759.498548092,39.070840000000004 753.0517480919999,38.121750000000006 746.609848092,37.17598000000001 740.1745480919999,36.23460000000001 733.7464480919999,35.298660000000005 727.325948092,34.369110000000006 720.9127480919999,33.44682 714.5060480919999,32.53258000000001 708.1042480919999,31.627090000000003 701.705548092,30.730960000000003 695.3077480919999,29.844390000000004 688.908848092,28.96705 682.507648092,28.09868 676.103648092,27.239100000000008 669.696848092,26.388220000000004 663.2880480919999,25.546039999999998 656.878448092,24.71264 650.4701480919999,23.888200000000005 644.065448092,23.073500000000003 637.666148092,22.26977 631.273448092,21.478160000000003 624.8882480919999,20.699730000000002 618.5104480919999,19.935460000000006 612.139848092,19.18625 605.775248092,18.45295 599.4153480919999,17.73628 593.058348092,17.036480000000005 586.702848092,16.35358 580.347748092,15.687640000000002 573.992248092,15.03876000000001 567.635848092,14.407090000000004 561.2782480919999,13.792790000000004 554.919548092,13.196090000000005 548.560148092,12.617210000000007 542.200548092,12.05642000000001 535.8410480919999,11.513970000000008 529.482048092,10.990100000000005 523.1237480919999,10.485050000000001 516.7659480919999,9.999020000000009 510.40874809199994,9.532229999999998 504.05184809199994,9.084879999999998 497.694948092,8.657110000000003 491.337648092,8.248860000000008 484.97944809200004,7.860029999999995 478.620048092,7.490520000000004 472.259048092,7.1402300000000025 465.89594809199997,6.809080000000009 459.530348092,6.496980000000008 453.16174809200004,6.203850000000003 446.789848092,5.929580000000001 440.414348092,5.673940000000016 434.03514809200004,5.436719999999994 427.652648092,5.217680000000016 421.267348092,5.01661 414.880148092,4.833309999999997 408.492148092,4.667550000000006 402.104748092,4.519120000000015 395.719548092,4.388090000000005 389.33804809199995,4.275030000000001 382.961048092,4.180520000000001 376.58934809199997,4.105140000000006 370.223048092,4.049489999999992 363.86224809199996,4.014220000000009 357.50664809200003,4.0 351.155848092,4.007470000000012 344.809348092,4.037210000000002 338.466648092,4.0896900000000045 332.12764809199996,4.16537000000001 325.792348092,4.264709999999994 319.460748092,4.388030000000015 313.131448092,4.5355300000000085 306.801548092,4.707480000000004 300.466348092,4.904179999999997 294.12054809200004,5.124720000000011 287.76054809199996,5.367059999999995 281.384948092,5.629040000000018 274.99534809200003,5.908420000000007 268.595348092,6.203770000000006 262.18964809199997,6.514170000000007 255.78394809200003,6.838680000000011 249.384548092,7.176419999999993 242.997548092,7.528230000000008 236.626948092,7.895989999999998 230.274348092,8.281650000000013 223.939048092,8.687250000000006 217.619748092,9.11460000000001 211.317248092,9.565270000000012 205.034348092,10.040630000000007 198.776148092,10.542000000000002 192.547848092,11.072050000000004 186.352348092,11.634070000000008 180.189548092,12.231490000000008 174.056848092,12.867750000000008 167.950748092,13.545420000000007 161.86844809200002,14.266570000000002 155.808448092,15.033170000000005 149.770148092,15.84704 143.753648092,16.70944 137.758948092,17.62138000000001 131.78544809200002,18.58395 125.83234809199999,19.59832 119.899348092,20.665820000000004 113.99044809200001,21.78725 108.113948092,22.96235 102.282298092,24.189660000000003 96.510508092,25.46806 90.80942809199999,26.799240000000005 85.181988092,28.186370000000004 79.624198092,29.634060000000005 74.127218092,31.148450000000004 68.692628092,32.733720000000005 63.347188091999996,34.38612 58.138988092,36.09258 53.127138092,37.83202 48.367498092,39.584830000000004 43.887878092,41.34810000000001 39.682618092,43.126780000000004 35.741828092000006,44.919790000000006 32.08938809200001,46.703050000000005 28.761258092,48.440580000000004 25.776248092,50.10531 23.122818092000003,51.69809000000001 20.764328092,53.228120000000004 18.663188092,54.69366000000001 16.790708092000003,56.08803 15.122148092000002,57.40789000000001 13.636583092000002,58.657140000000005 12.315184092,59.84028000000001 11.142601092,60.961310000000005 10.104568092000001,62.027260000000005 9.184662092,63.04766000000001 8.366859091999999,64.03237100000001 7.632624092,64.990477 6.969046092,65.92326700000001 6.368254092,66.82646500000001 5.830402092,67.692987 5.363137092,68.518122 4.967585692,69.30409900000001 4.641703292,70.056132 4.3830098920000005,70.78020000000001 4.189791892,71.482256 4.061669752,72.168076 4.0,72.84339510000001 4.00835913,73.5142216 4.089678252,74.1868685 4.241664692,74.866861 4.463425292,75.559011 4.756110992,76.26765800000001 5.1224650920000006,76.99655800000001 5.566152091999999,77.74830800000001 6.0902740920000005,78.52287700000001 6.6940700920000005,79.31461 7.374356092,80.11498300000001 8.133055092,80.92328400000001 8.973168092,81.744861 9.901717091999998,82.59124700000001 10.931181092,83.46889 12.076413092,84.38131 13.352798092000002,85.33037 14.776358092,86.31750000000001 16.365328092,87.3464 18.138658092,88.42060000000001 20.118618092,89.53628 22.332748092000003,90.68537 24.820188092000002,91.86151000000001 27.630538092000002,93.07382000000001 30.801788092,94.3379 34.338798092,95.64805000000001 38.217128092,96.97632 42.403838092,98.29679 46.898428091999996,99.60061 51.715588092,100.89085 56.839298092,102.16845 62.212158092,103.42138 67.760878092,104.63074 73.419288092,105.78416000000001 79.145618092,106.87813 84.931098092,107.91679 90.783818092,108.90579 96.70774809199999,109.84960000000001 102.699568092,110.75177 108.74784809200001,111.61481 114.83684809200001,112.43860000000001 120.952948092,113.22261 127.086348092,113.96716 133.230748092,114.67315 139.383948092,115.34097 145.545748092,115.97064 151.717948092,116.56236000000001 157.904548092,117.11654000000001 164.110148092,117.63493 170.337548092,118.12003 176.586848092,118.57415 182.855648092,118.99940000000001 189.13984809200002,119.39713 195.437248092,119.76831000000001 201.747948092,120.11404999999999 208.074348092,120.43568 214.42014809199998,120.73533 220.787048092,121.01558 227.174048092,121.27894 233.577548092,121.52775 239.992248092,121.76304 246.413848092,121.98524 252.83894809199998,122.1948 259.265848092,122.3922 265.693448092,122.57742999999999 272.120548092,122.75027 278.545648092,122.91052 284.967248092,123.05786 291.38374809199996,123.19153 297.793848092,123.31064 304.19624809199996,123.41432 310.589948092,123.50165000000001 316.974748092,123.57148000000001 323.350748092,123.62262000000001 329.719548092,123.65390000000001 336.082948092,123.6644 342.443548092,123.65398 348.80414809200005,123.62261000000001 355.167848092,123.57022 361.538048092,123.49709000000001 367.916948092,123.40442 374.30534809200003,123.29356000000001 380.702448092,123.16591 387.105648092,123.02251000000001 393.512448092,122.86372 399.92084809199997,122.68984 406.32934809200003,122.50116 412.73704809199995,122.29778 419.143348092,122.07953 425.547748092,121.84622000000002 431.949948092,121.59768 438.349648092,121.33371 444.747048092,121.05412000000001 451.142248092,120.75869 457.535548092,120.44722 463.927348092,120.11964 470.318148092,119.77601000000001 476.708348092,119.41637 483.098348092,119.04078000000001 489.488148092,118.64929000000001 495.878148092,118.24196 502.268448092,117.81885 508.659048092,117.38002 515.050148092,116.92561 521.441748092,116.45581 527.833748092,115.97082 534.2264480919999,115.47081 540.6196480919999,114.95598000000001 547.013448092,114.42652000000001 553.4079480919999,113.8826 559.8030480919999,113.32445 566.1988480919999,112.75242 572.595848092,112.16688 578.9941480919999,111.56821 585.394548092,110.95675 591.797648092,110.33283 598.204248092,109.69676000000001 604.615648092,109.04884000000001 611.0327480919999,108.38947 617.456848092,107.71948 623.8887480919999,107.03982 630.3288480919999,106.35147 636.7772480919999,105.65546 643.2337480919999,104.95288000000001 649.6977480919999,104.24484000000001 656.1680480919999,103.53254000000001 662.643548092,102.81685 669.122648092,102.09813 675.604148092,101.3767 682.0870480919999,100.65285 688.570448092,99.92684 695.0534480919999,99.19893 701.5355480919999,98.46935 708.0164480919999,97.73837 714.4957480919999,97.00655 720.973148092,96.27477 727.448348092,95.54391000000001 733.9207480919999,94.81485 740.3896480919999,94.08849000000001 746.854448092,93.36575 753.314048092,92.64754 759.7677480919999,91.93476000000001 766.214648092,91.22819000000001 772.6544480919999,90.52849 779.0875480919999,89.83627000000001 785.5149480919999,89.15208 791.937848092,88.4764 798.358548092,87.80967000000001 804.7794480919999,87.15225000000001 811.2033480919999,86.50439 817.630548092,85.86615 824.056448092,85.238 830.471948092,84.62081 836.864948092,84.01687000000001 843.2301480919999,83.43017 849.573448092,82.86383500000001 855.9119480919999,82.319996 862.2704480919999,81.79713100000001 868.6639480919999,81.289201 875.089448092,80.79105700000001 881.5236480919999,80.29903300000001 887.9302480919999,79.816231 894.2855480919999,79.352338 900.5875480919999,78.91549 906.853648092,78.51180000000001 913.1124480919999,78.136509 919.383748092,77.77422700000001 925.6722480919999,77.409852 931.9671480919999,77.029486 938.2482480919999,76.63261 944.503048092,76.23201300000001 950.732448092,75.840096 956.949548092,75.468005 963.1649480919999,75.12080800000001 969.3430480919999,74.799389 975.3931480919999,74.50636800000001 981.1945480919999,74.2445775 986.640548092,74.0153758 991.681248092,73.8174764 996.317848092,73.64753250000001 1000.5788480919999,73.501564 1004.001348092,73.3914" stroke="black" stroke-width="2.0" /></svg>