<?xml version="1.0" encoding="utf-8" ?>
<svg baseProfile="full" height="91.8219" version="1.1" width="1012.01135297" xmlns="http://www.w3.org/2000/svg" xmlns:ev="http://www.w3.org/2001/xml-events" xmlns:xlink="http://www.w3.org/1999/xlink"><defs /><polygon fill="none" points="1004.01135297,53.452799999999996 1001.02855297,53.1870664 997.2651529699999,52.8466003 993.09375297,52.462435799999994 988.45235297,52.02659799999999 983.30165297,51.532591999999994 977.6713529699999,50.980138 971.79925297,50.390719999999995 966.0087529699999,49.798092999999994 960.19245297,49.193436999999996 954.29005297,48.572281999999994 948.41005297,47.948308999999995 942.56295297,47.326454999999996 936.71285297,46.707046 930.8416529699999,46.092344999999995 924.9490529699999,45.486053999999996 919.0467529700001,44.887373999999994 913.14465297,44.29172199999999 907.2466529699999,43.693878999999995 901.35135297,43.08821 895.45285297,42.472629999999995 889.5463529699999,41.84967999999999 883.63045297,41.22253 877.70705297,40.594739999999994 871.7814529699999,39.96857 865.85875297,39.34283 859.94115297,38.71557 854.0277529699999,38.084559999999996 848.1151529699999,37.447829999999996 842.19895297,36.80566999999999 836.27695297,36.15915 830.34915297,35.509589999999996 824.41765297,34.85853 818.48555297,34.20728 812.55515297,33.55691999999999 806.62775297,32.908379999999994 800.7029529700001,32.262429999999995 794.7800529699999,31.619379999999996 788.85785297,30.979209999999995 782.9358529699999,30.34191 777.0133529699999,29.707499999999996 771.09015297,29.076029999999996 765.16615297,28.447559999999996 759.2415529699999,27.822189999999996 753.3167529699999,27.200029999999995 747.39225297,26.581289999999996 741.46855297,25.966419999999996 735.54615297,25.355879999999996 729.62535297,24.750099999999996 723.70605297,24.149509999999996 717.78825297,23.554529999999996 711.87185297,22.965529999999998 705.9562529699999,22.382909999999995 700.04095297,21.806989999999992 694.12545297,21.237829999999995 688.20925297,20.675349999999995 682.2920529699999,20.119429999999994 676.37355297,19.570029999999996 670.4539529699999,19.02705999999999 664.5331529700001,18.490489999999994 658.6115529699999,17.96029 652.68945297,17.43642 646.76745297,16.919019999999996 640.84595297,16.408519999999996 634.92535297,15.905359999999995 629.00585297,15.409989999999993 623.08765297,14.922839999999994 617.1708529699999,14.444339999999997 611.2552529699999,13.974879999999999 605.3408529699999,13.514869999999995 599.4273529699999,13.064699999999995 593.5144529699999,12.624569999999999 587.60185297,12.19462 581.6894529699999,11.775009999999995 575.7769529699999,11.365879999999997 569.8642529699999,10.967379999999991 563.95105297,10.579679999999996 558.03755297,10.202939999999998 552.1234529699999,9.837299999999992 546.20875297,9.482889999999998 540.29345297,9.139729999999993 534.37755297,8.807839999999999 528.46115297,8.487239999999993 522.54415297,8.177959999999999 516.62665297,7.880000000000003 510.70875297,7.5933999999999955 504.79035297,7.318179999999998 498.87155297,7.054339999999996 492.95255297000006,6.80189 487.03325297000004,6.560789999999997 481.11365297,6.330999999999996 475.19365297,6.112499999999997 469.27315297,5.905259999999998 463.35205297,5.709240000000001 457.43005297,5.524409999999996 451.50695297,5.350729999999999 445.58255297,5.188109999999995 439.65665297000004,5.036349999999999 433.72915297000003,4.8952699999999965 427.80015297000006,4.764699999999998 421.86995297000004,4.64443 415.93875297,4.534300000000002 410.00705297,4.434129999999996 404.07555297,4.343730000000001 398.14485297000004,4.263010000000001 392.21555297000003,4.192289999999993 386.28795297000005,4.131989999999995 380.36205297,4.082519999999995 374.43745297,4.044269999999997 368.51385297,4.017569999999999 362.59095297,4.0027199999999965 356.66945297,4.0 350.74985297,4.009719999999994 344.83335297,4.032409999999992 338.92025297000004,4.068829999999998 333.01055297,4.11974 327.10315297,4.185879999999997 321.19695297000004,4.267659999999992 315.29045297,4.364919999999998 309.38285297000004,4.4774499999999975 303.47385297000005,4.605019999999996 297.56355297,4.747329999999998 291.65195297,4.903790000000001 285.73845297,5.0737999999999985 279.82205297,5.256759999999993 273.90155297000007,5.45203999999999 267.97555297,5.658639999999991 262.04435297000003,5.875419999999991 256.10955297,6.1011199999999945 250.17405297,6.334579999999995 244.24165297,6.576029999999996 238.31505296999998,6.826740000000001 232.39555297,7.08800999999999 226.48325297,7.3611999999999895 220.57695296999998,7.647619999999996 214.67585297,7.948419999999999 208.77965296999997,8.264709999999994 202.88905297,8.59756999999999 197.00505296999998,8.948229999999995 191.12905296999998,9.318379999999998 185.26195297,9.70975 179.40485297,10.124069999999996 173.55815296999998,10.563099999999991 167.72235296999997,11.028749999999995 161.89745297,11.522979999999997 156.08315297,12.047789999999999 150.27875296999997,12.605149999999995 144.48335297,13.196419999999996 138.69615296999999,13.822529999999993 132.91615297,14.48444 127.14265297,15.183109999999992 121.37505297,15.91959 115.61455297,16.69494999999999 109.86375297000001,17.50996 104.12765297000001,18.365019999999994 98.41246297,19.260639999999995 92.72385297000001,20.199289999999998 87.06348297000001,21.184469999999997 81.42893297,22.220339999999997 75.81405297,23.311919999999997 70.21358297,24.465149999999998 64.63315297,25.684529999999995 59.09131297,26.971299999999996 53.61817297,28.322689999999994 48.25079296999999,29.73625 43.00826297,31.224599999999995 37.87518297,32.81048 32.851982969999995,34.50973 28.022022970000002,36.30454999999999 23.51774297,38.159009999999995 19.43438297,40.05486 15.85693297,41.93416 12.88732497,43.693335 10.62701697,45.20038699999999 8.93431297,46.496306999999995 7.59669897,47.687008 6.51645897,48.777379999999994 5.6729949699999995,49.719339 5.0471499699999995,50.525364999999994 4.59231727,51.238231999999996 4.27562667,51.889536 4.07994424,52.5005987 4.0,53.087324499999994 4.04132699,53.6637669 4.20939517,54.24413869999999 4.50449267,54.841978 4.93834077,55.47157 5.5374789700000004,56.149910999999996 6.34426197,56.894262 7.39280297,57.698786999999996 8.721476970000001,58.55167599999999 10.39918097,59.501912 12.570455970000001,60.602483 15.39885297,61.847986999999996 18.942452969999998,63.199102999999994 23.04289297,64.53729999999999 27.627742970000003,65.78936999999999 32.71661297,67.00294 38.04710296999999,68.14012 43.41836297,69.16256 48.85886297,70.09081 54.429482969999995,70.95524999999999 60.11525296999999,71.77077 65.86426297,72.53577 71.63571297,73.24965 77.40786297,73.91552999999999 83.17917297000001,74.53917 88.96065297000001,75.12611 94.76115297000001,75.68063 100.58418297,76.20636999999999 106.42765297000001,76.70648 112.28505297000001,77.18265 118.15015297000001,77.63528 124.01845297000001,78.0649 129.88785297,78.47225 135.75785297,78.85807 141.62925296999998,79.22268 147.50295297,79.56635 153.37975297,79.88933 159.26105296999998,80.19198 165.14775297,80.47534999999999 171.04055297,80.74070999999999 176.93935297,80.9893 182.84395297,81.22229999999999 188.75355297,81.44073 194.66765296999998,81.64544 200.58535297,81.8373 206.50635297,82.01718 212.43005297,82.18584 218.35625296999999,82.34384 224.28495297,82.49176 230.21645296999998,82.63018 236.15125297,82.75972 242.08955296999997,82.8811 248.03105297,82.99501 253.97495297,83.10216 259.91995296999994,83.20309 265.86475297000004,83.29766 271.80845297,83.38557 277.75045297,83.46652999999999 283.69085297000004,83.54028 289.62975297,83.60642999999999 295.56725296999997,83.6646 301.50325297,83.71437999999999 307.43745297,83.75537 313.36965297,83.78712 319.29965297000007,83.80913 325.22765297,83.82087999999999 331.15405297,83.8219 337.07975297,83.81188 343.00515297000004,83.79087 348.93085297,83.7589 354.85735297,83.71601 360.78475297000006,83.66232 366.71325297000004,83.59812 372.64285297000004,83.52369999999999 378.57365297,83.43939999999999 384.50565297,83.34552 390.43865296999996,83.24234 396.37265297000005,83.13011 402.30735297,83.00912 408.24275297,82.87961 414.17865297000003,82.74171 420.11485297,82.59546 426.05115297000003,82.44091999999999 431.98745297000005,82.27812 437.92365297,82.10713 443.85965297000007,81.92797999999999 449.79515297,81.74072 455.73025297,81.54541 461.66475297,81.34205 467.59865297,81.13060999999999 473.53195297,80.91104999999999 479.46455297000006,80.68330999999999 485.39655297,80.44735 491.32805297,80.20312 497.25905297,79.95054999999999 503.18985297000006,79.68960999999999 509.12055297000006,79.42025 515.0513529700002,79.14256 520.98235297,78.85670999999999 526.9137529699999,78.56282999999999 532.8454529699999,78.26109 538.77755297,77.95164 544.70995297,77.63463 550.64255297,77.31022999999999 556.57515297,76.97861 562.5076529699999,76.63991 568.4399529699999,76.29427 574.37185297,75.94181999999999 580.30345297,75.58268 586.23505297,75.21697 592.16675297,74.84478999999999 598.0988529699999,74.46625 604.03195297,74.08145999999999 609.96635297,73.69057 615.90265297,73.29411999999999 621.84125297,72.89272 627.78245297,72.48698999999999 633.72635297,72.07758 639.67295297,71.66512999999999 645.6220529699999,71.25028999999999 651.57345297,70.83373 657.52675297,70.41611999999999 663.48135297,69.99778 669.4367529699999,69.57871999999999 675.3923529699999,69.15901 681.34785297,68.73864 687.3032529699999,68.31761 693.25805297,67.89596 699.2119529699999,67.47369 705.16485297,67.0508 711.11665297,66.62746999999999 717.06735297,66.20423 723.01685297,65.78166999999999 728.9649529699999,65.36039 734.9116529699999,64.94099 740.8567529699999,64.52404999999999 746.8000529699999,64.11018 752.7412529699999,63.69998 758.68025297,63.294014999999995 764.61675297,62.892748 770.55085297,62.496559 776.48255297,62.105816999999995 782.4123529699999,61.72087499999999 788.3407529699999,61.342076 794.26855297,60.969752 800.19665297,60.604223999999995 806.12635297,60.245805999999995 812.0587529699999,59.894684999999996 817.99355297,59.550931 823.92885297,59.214693999999994 829.8611529699999,58.886213999999995 835.78535297,58.56627099999999 841.69865297,58.256786999999996 847.60245297,57.95963999999999 853.5028529699999,57.676491 859.4095529699999,57.408198999999996 865.33165297,57.15226199999999 871.27125297,56.905356 877.22315297,56.664423 883.17415297,56.427124 889.10905297,56.196051999999995 895.02065297,55.976268999999995 900.91155297,55.772392999999994 906.7931529699999,55.588466 912.68185297,55.422585 918.58725297,55.266808 924.5073529699999,55.113116 930.42815297,54.953728 936.3280529699999,54.785607 942.19785297,54.614343 948.05145297,54.445771199999996 953.92595297,54.285042999999995 959.8626529699999,54.136430999999995 965.74125297,54.0035569 971.57705297,53.8851276 977.48165297,53.778382099999995 983.1564529699999,53.68767269999999 988.35195297,53.614680699999994 993.0309529699999,53.5571676 997.23105297,53.51217741 1001.01545297,53.47701918 1004.01135297,53.452799999999996" stroke="black" stroke-width="2.0" /></svg>