<?xml version="1.0" encoding="utf-8" ?>
<svg baseProfile="full" height="122.10643999999999" version="1.1" width="1012.03151764" xmlns="http://www.w3.org/2000/svg" xmlns:ev="http://www.w3.org/2001/xml-events" xmlns:xlink="http://www.w3.org/1999/xlink"><defs /><polygon fill="none" points="1004.03151764,73.4018 1000.7886176399999,72.98423389999999 996.60281764,72.44001709999999 991.9231176399999,71.824928 986.78721764,71.154929 981.26061764,70.41835499999999 975.42481764,69.631856 969.4059176399999,68.815694 963.29821764,67.96645799999999 957.11801764,67.077482 950.86031764,66.15097599999999 944.5282176399999,65.192287 938.1335176399999,64.21028899999999 931.69571764,63.215489999999996 925.23831764,62.21666999999999 918.78031764,61.22086999999999 912.3339176399999,60.23383 905.90141764,59.258979999999994 899.4736176399999,58.29785 893.0322176399999,57.34833999999999 886.56451764,56.40392 880.0733176399999,55.459509999999995 873.5765176399999,54.51249999999999 867.09361764,53.5622 860.63151764,52.60659999999999 854.1837176399999,51.64188999999999 847.7345176399999,50.665479999999995 841.2717176399999,49.67766999999999 834.7904176399999,48.679959999999994 828.2934176399999,47.675 821.78771764,46.66601 815.27981764,45.65606 808.77481764,44.647999999999996 802.27641764,43.64434999999999 795.7865176399999,42.64675 789.3052176399999,41.65639999999999 782.83041764,40.674139999999994 776.35841764,39.70042999999999 769.8853176399999,38.7347 763.4088176399999,37.7763 756.92901764,36.82489999999999 750.4479176399999,35.88048 743.9686176399999,34.943619999999996 737.49301764,34.0151 731.0208176399999,33.095389999999995 724.5498176399999,32.184709999999995 718.07611764,31.282739999999997 711.59641764,30.388459999999995 705.1095176399999,29.500989999999994 698.6167176399999,28.61979999999999 692.12151764,27.744679999999995 685.6292176399999,26.876509999999996 679.14381764,26.016859999999994 672.66781764,25.167139999999996 666.2020176399999,24.32849999999999 659.7458176399999,23.501839999999994 653.2974176399999,22.687779999999997 646.8554176399999,21.886839999999992 640.41871764,21.09957999999999 633.98651764,20.326629999999994 627.5580176399999,19.568589999999993 621.1330176399999,18.82585999999999 614.71121764,18.098829999999992 608.29231764,17.38783999999999 601.8761176399998,16.693289999999998 595.46251764,16.015559999999994 589.0515176399999,15.355129999999996 582.6436176399999,14.712489999999995 576.2392176399999,14.088179999999994 569.83941764,13.482759999999992 563.44541764,12.896829999999994 557.05811764,12.331199999999988 550.67761764,11.786659999999998 544.3031176399999,11.263909999999996 537.9329176399999,10.76361 531.5644176399999,10.286259999999999 525.19481764,9.831679999999999 518.82201764,9.399450000000002 512.44451764,8.989229999999992 506.06151764,8.600759999999994 499.67281764,8.233769999999993 493.27851764,7.887749999999997 486.87781764,7.561969999999988 480.46861764,7.2556299999999965 474.04801764,6.967929999999981 467.61161764,6.697980000000001 461.15501764000004,6.444100000000006 454.67551764,6.203979999999987 448.17351764,5.975379999999987 441.65211764000003,5.756099999999989 435.11761764000005,5.544079999999994 428.57851764000003,5.339049999999986 422.04261764,5.142189999999999 415.51691764000003,4.954679999999996 409.00741764,4.777609999999996 402.51861764,4.612089999999995 396.05421764,4.460359999999994 389.61661764,4.325489999999988 383.20731764,4.210429999999988 376.82681764,4.1180300000000045 370.47471764000005,4.050999999999988 364.14911764,4.011200000000002 357.84551764,4.0 351.55621764,4.0188500000000005 345.27061764,4.069330000000008 338.97521764000004,4.152979999999985 332.65551764,4.268239999999992 326.30191764,4.4115799999999865 319.91091764,4.5793000000000035 313.48531764,4.767420000000001 307.03501764,4.972049999999996 300.57301764000005,5.192019999999999 294.10941764,5.427179999999993 287.65121763999997,5.677459999999996 281.20191764,5.9428199999999975 274.76191764,6.223759999999999 268.33111764,6.521469999999994 261.91051764,6.83717 255.50211764,7.172030000000007 249.10851764,7.527020000000007 242.73061764,7.9024 236.36291764,8.298419999999993 229.99341764,8.715890000000002 223.60271764,9.156179999999992 217.16921764000003,9.618699999999997 210.68991764,10.098509999999997 204.19131764,10.58804 197.73051764000002,11.077259999999995 191.38121764000002,11.564499999999995 185.18691764,12.065289999999997 179.14571764000002,12.597339999999996 173.22251764,13.179129999999994 167.36141764,13.825139999999998 161.51161764000003,14.537659999999995 155.64211764,15.316769999999991 149.74061764,16.160999999999994 143.81331764,17.066849999999995 137.87371764,18.030689999999993 131.93351764,19.04889 126.00161764,20.117919999999998 120.08471764,21.23567 114.18931764,22.401769999999992 108.32211764,23.615739999999995 102.48998764000001,24.87697999999999 96.70217764,26.185309999999994 90.97194764,27.539629999999995 85.31622764,28.937419999999996 79.75456764,30.377469999999995 74.30567764000001,31.86010999999999 68.98535764,33.38496 63.808817639999994,34.95117 58.796867639999995,36.555519999999994 53.97398764,38.190949999999994 49.366017639999995,39.848769999999995 45.000287639999996,41.518719999999995 40.89911764,43.18786999999999 37.077987639999996,44.842999999999996 33.550427639999995,46.46956999999999 30.321807640000003,48.05269 27.38613764,49.58067 24.73143764,51.044979999999995 22.33996764,52.439859999999996 20.188557640000003,53.763369999999995 18.25430764,55.01890999999999 16.51790764,56.211749999999995 14.960127640000001,57.345909999999996 13.56162164,58.42518 12.305045640000001,59.454229999999995 11.17722664,60.44024999999999 10.16474764,61.39057 9.254796639999999,62.3116 8.43599464,63.20871999999999 7.69892164,64.08643599999999 7.038120640000001,64.948106 6.45014064,65.795197 5.93177064,66.62785099999999 5.47959764,67.44553199999999 5.08986464,68.247446 4.75969154,69.032015 4.48938874,69.796577 4.27857704,70.541277 4.12655427,71.26844 4.033274603,71.98162199999999 4.0,72.68521779999999 4.029928817,73.3844704 4.12772539,74.0848419 4.29572724,74.78807099999999 4.53772084,75.49289399999999 4.86002194,76.195042 5.27078064,76.88596299999999 5.77530164,77.56042199999999 6.37294464,78.223957 7.05983564,78.885143 7.82723964,79.555663 8.659111639999999,80.250941 9.54483664,80.97973499999999 10.489745639999999,81.73738999999999 11.50207864,82.51642199999999 12.59326564,83.307631 13.78043964,84.10067 15.086687640000001,84.88848999999999 16.533037640000003,85.67554 18.14302764,86.46992999999999 19.942847640000004,87.28220999999999 21.955307639999997,88.12536 24.19741764,89.00497999999999 26.686117640000003,89.91399999999999 29.434847639999997,90.84245999999999 32.46276764,91.78227 35.80617764,92.73225 39.503327639999995,93.69389 43.57629764,94.66799 48.015327639999995,95.64871 52.784067639999996,96.62208 57.837857639999996,97.57812999999999 63.146037639999996,98.51281 68.67888764,99.42312 74.39933764,100.30819 80.26864764,101.16655 86.25118764,101.99654 92.31875764,102.79890999999999 98.45140764000001,103.57418999999999 104.63181764000001,104.32233 110.84401764,105.04378 117.07401764000001,105.73758 123.30831764000001,106.40146999999999 129.53381764,107.0334 135.73881764,107.6305 141.91641764000002,108.18813 148.06661764,108.70217 154.19581764,109.16931 160.31551764000002,109.58930999999998 166.44081764,109.96396999999999 172.59091764000001,110.29485 178.78961764000002,110.58388 185.06061764,110.83945 191.41701764,111.07372 197.85731764,111.29924 204.36221764,111.52781999999999 210.90141764,111.76095 217.44821764,111.99435 223.98351764,112.22390999999999 230.49641764,112.44587999999999 236.98321764000002,112.65700999999999 243.44521764,112.85439 249.88791764,113.03527 256.32121764,113.19706 262.75781764000004,113.33922 269.20841764,113.4641 275.67961764,113.57414 282.17391764,113.67169999999999 288.68931764,113.75890999999999 295.22041764,113.83663999999999 301.75991764,113.90539999999999 308.29831764,113.96571 314.82461764,114.01808 321.32721764,114.06143 327.79801764,114.09210999999999 334.23471764,114.10643999999999 340.64041764,114.10086999999999 347.02281764,114.07202 353.39281764,114.01874 359.76061764,113.94157 366.13461764,113.84097 372.52141764,113.71734 378.92631764,113.57112 385.35291764,113.40387 391.80311764,113.21798999999999 398.27701764000005,113.01593 404.77261764,112.80033 411.28601764,112.57376 417.81201764,112.33753999999999 424.34571764000003,112.09224999999999 430.88271764,111.83849999999998 437.41931764,111.57686999999999 443.95251764,111.30781999999999 450.47981764,111.03094999999999 456.99951763999997,110.74543 463.51041764,110.45044999999999 470.01201764,110.14515 476.50441764,109.82869 482.98831764000005,109.50032999999999 489.46431764,109.15941999999998 495.93371764,108.80527 502.39741763999996,108.43718999999999 508.85711764,108.05449999999999 515.3141176400001,107.65697 521.7698176399999,107.24458999999999 528.22531764,106.81736 534.6813176399999,106.37528 541.1386176399999,105.91837 547.5977176399999,105.44684 554.05891764,104.96100999999999 560.52281764,104.46121 566.98981764,103.94772999999999 573.4603176399999,103.42089999999999 579.93481764,102.88113 586.41371764,102.32891 592.89731764,101.76471 599.3857176399999,101.18903 605.87911764,100.60239 612.3779176399999,100.00541 618.88241764,99.39878999999999 625.3935176399999,98.78316 631.91271764,98.15915999999999 638.44131764,97.52738 644.9809176399999,96.88861999999999 651.5309176399999,96.2439 658.08941764,95.59445 664.65231764,94.94169 671.21401764,94.28733 677.76931764,93.63354999999999 684.3160176399999,92.98240999999999 690.85461764,92.33560999999999 697.38831764,91.6946 703.9226176399999,91.05976 710.4616176399999,90.43021999999999 717.0064176399999,89.80525 723.5551176399999,89.18440999999999 730.1032176399999,88.56765999999999 736.6449176399999,87.95611 743.17721764,87.35119 749.69991764,86.75401 756.2159176399999,86.16544999999999 762.7299176399999,85.58559 769.2458176399999,85.01375999999999 775.7649176399999,84.44945 782.2861176399999,83.89235 788.80581764,83.342632 795.3201176399999,82.80139899999999 801.82571764,82.269836 808.3205176399999,81.749031 814.80321764,81.24006299999999 821.27331764,80.74430699999999 827.73141764,80.263151 834.17881764,79.797911 840.61741764,79.34966299999999 847.0499176399999,78.91886699999999 853.47941764,78.50585699999999 859.9093176399999,78.110959 866.3436176399999,77.733903 872.78571764,77.373594 879.2385176399999,77.02893599999999 885.7042176399999,76.69878899999999 892.18351764,76.381577 898.6745176399999,76.075649 905.17261764,75.779579 911.67051764,75.49341899999999 918.15891764,75.218121 924.6268176399999,74.954883 931.0648176399999,74.70666999999999 937.47111764,74.477015 943.8500176399999,74.2686456 950.19861764,74.0828602 956.4963176399999,73.92123269999999 962.7197176399999,73.78833809999999 968.8694176399999,73.6894844 974.9461176399999,73.6181707 980.86971764,73.55785429999999 986.50431764,73.50583329999999 991.7431176399999,73.46735821 996.5098176399999,73.44113277999999 1000.7581176399999,73.41416518999999 1004.03151764,73.4018" stroke="black" stroke-width="2.0" /></svg>