<?xml version="1.0" encoding="utf-8" ?>
<svg baseProfile="full" height="101.86995" version="1.1" width="1012.02343227" xmlns="http://www.w3.org/2000/svg" xmlns:ev="http://www.w3.org/2001/xml-events" xmlns:xlink="http://www.w3.org/1999/xlink"><defs /><polygon fill="none" points="1004.02343227,63.23285 1000.9737322699999,62.8774881 997.13523227,62.4241058 992.89433227,61.915274 988.1942322699999,61.341623 983.0011322699999,60.6959 977.3451322699999,59.978412999999996 971.3763322699999,59.206252 965.42053227,58.423446 959.4574322699999,57.630573999999996 953.4412322699999,56.824696 947.4665322699999,56.021968 941.5182322699999,55.22444 935.56953227,54.432621 929.6069322699999,53.648864 923.62983227,52.87607 917.6449322699999,52.11137 911.6571322699999,51.34938 905.6681322699999,50.58428 899.67663227,49.81046 893.6790322699999,49.02775 887.6731322699999,48.239329999999995 881.65913227,47.44876 875.63973227,46.65979 869.61923227,45.87335 863.60063227,45.08766 857.58443227,44.30052 851.5687322699999,43.50944 845.5497322699999,42.7132 839.52443227,41.91261 833.4927322699999,41.10895 827.45673227,40.303869999999996 821.42083227,39.49922 815.3890322699999,38.69669 809.3633322699999,37.897710000000004 803.34383227,37.10341 797.32883227,36.31445 791.3161322699999,35.53071 785.3040322699999,34.75203 779.2912322699999,33.97829 773.27693227,33.20943 767.26073227,32.44546 761.24273227,31.686449999999997 755.2234322699999,30.932519999999997 749.2038322699999,30.183889999999998 743.1851322699999,29.44108 737.16803227,28.704699999999995 731.15323227,27.975319999999996 725.1409322699999,27.253480000000003 719.1309322699999,26.53967 713.12303227,25.83433 707.1163322699999,25.13789 701.1100322699999,24.45071 695.1028322699999,23.77283 689.0938322699999,23.10396 683.08253227,22.44381 677.0684322699999,21.79217 671.05173227,21.148829999999997 665.0326322699999,20.513620000000003 659.0117322699999,19.886430000000004 652.9900322699999,19.26713 646.96873227,18.65587 640.9488322699999,18.053329999999995 634.9311322699999,17.460209999999996 628.91623227,16.87719 622.9043322699999,16.30493 616.89523227,15.744029999999995 610.8886322699999,15.19509 604.88393227,14.65867 598.88013227,14.135239999999996 592.8764322699999,13.624839999999999 586.87203227,13.127339999999997 580.86633227,12.642649999999996 574.85893227,12.170699999999997 568.8497322699999,11.711440000000003 562.83863227,11.26482 556.8260322699999,10.83081 550.81213227,10.409410000000001 544.79753227,10.00074 538.78273227,9.605040000000002 532.7681322699999,9.222529999999999 526.75383227,8.853430000000003 520.74013227,8.497949999999996 514.7269322699999,8.156280000000002 508.71423226999997,7.828630000000004 502.70193227000004,7.515180000000001 496.68973227,7.21602 490.67723227000005,6.931039999999996 484.66423226999996,6.660080000000001 478.65043227,6.403010000000002 472.63543226999997,6.159690000000005 466.61883227,5.929990000000004 460.60043227,5.71378 454.57973227,5.510919999999999 448.55633227,5.3212799999999945 442.53003227000005,5.144689999999997 436.50083227,4.98095 430.46893227,4.829889999999999 424.43483227,4.691309999999994 418.39943227000003,4.565060000000003 412.36373227,4.450940000000003 406.32903226999997,4.348780000000005 400.29713227,4.258420000000001 394.26943227,4.1802999999999955 388.24653227,4.115259999999999 382.22763227,4.0641199999999955 376.21103227000003,4.027700000000003 370.19433227,4.006360000000001 364.17633227,4.0 358.15743227,4.008490000000002 352.13993227,4.0316899999999976 346.12733227,4.069980000000001 340.12213226999995,4.124549999999999 334.12423227000005,4.1966699999999975 328.13133227000003,4.287640000000003 322.13893227,4.398249999999997 316.14303227,4.527769999999997 310.14143227,4.675239999999995 304.13413227,4.839669999999998 298.12323227,5.020060000000001 292.11073226999997,5.21584 286.09733227,5.42653 280.08193227,5.651759999999996 274.06173227,5.891109999999998 268.03393227,6.143629999999995 261.99853227,6.408039999999993 255.95833227000003,6.682870000000001 249.91973227000003,6.966699999999996 243.88983227,7.260240000000003 237.87333227,7.565660000000001 231.87093227,7.885290000000005 225.88013227,8.221579999999996 219.89603227,8.576250000000002 213.91573227,8.950090000000003 207.93933227000002,9.343740000000004 201.96983226999998,9.75761 196.01273227000001,10.192819999999998 190.07243226999998,10.65186 184.15063227,11.13747 178.24633227,11.65251 172.35623227,12.199689999999997 166.47723227,12.780680000000004 160.60803227,13.396839999999997 154.74883227,14.049390000000002 148.90193227,14.739359999999998 143.06993226999998,15.468159999999997 137.25413227,16.237429999999996 131.45443226999998,17.04898 125.66913226999999,17.904799999999994 119.89633227,18.80657 114.13543227,19.75535 108.38843227,20.751819999999995 102.65926227,21.79623 96.95379227000001,22.889159999999997 91.27746227,24.03277 85.63351227,25.22963 80.02300227,26.48267 74.44536226999999,27.79546 68.90351227000001,29.173339999999996 63.40858227,30.62032 57.979342270000004,32.13753 52.64068227,33.72286 47.419332270000005,35.374610000000004 42.326882270000006,37.09928 37.35722227,38.909409999999994 32.55121227,40.80438 28.04167227,42.73817 23.96581227,44.65815 20.34492227,46.568619999999996 17.171382270000002,48.4371 14.48814227,50.18168 12.30862727,51.76771 10.58609727,53.18833 9.21765527,54.482565 8.09939327,55.7042 7.14355227,56.867487 6.31715027,57.931979 5.62491727,58.87062 5.07585127,59.697732 4.65339847,60.442617999999996 4.34156037,61.128915 4.13035047,61.774008 4.015808743,62.3912973 4.0,62.9922022 4.09129298,63.587888899999996 4.29267297,64.1890633 4.60443367,64.80496 5.03404527,65.444356 5.59599327,66.11537799999999 6.308657269999999,66.821625 7.17988527,67.550082 8.22188027,68.291524 9.46043527,69.069521 10.94520627,69.926048 12.75375327,70.873101 14.980272270000002,71.909241 17.71834227,73.041855 20.97832227,74.23597 24.72762227,75.40658 29.07130227,76.55473 33.98780227,77.71239 39.17957227,78.80794 44.45605227,79.79981 49.865272270000006,80.7098 55.45832227,81.56581 61.19739227,82.37720999999999 67.01206227,83.13821 72.84974227000001,83.84681 78.68530227000001,84.50602 84.52186227,85.12223 90.37535227,85.70137 96.25630226999999,86.24805 102.16750227,86.76607 108.10373227,87.25844000000001 114.05473227,87.72605 120.01253227,88.16899 125.97243227,88.58768 131.93333227,88.98286999999999 137.89693227,89.35537 143.86473227,89.70584 149.83783227,90.03488999999999 155.81613227,90.34308 161.79893227000002,90.63099 167.78583227000001,90.89939 173.77753227,91.1491 179.77563227,91.38096 185.78213227,91.59607 191.79893227000002,91.79614000000001 197.82593226999998,91.98297 203.86143227,92.15829 209.90203227,92.32357 215.94423227,92.47913 221.98653227,92.62501 228.02943227,92.76134 234.07543227,92.88834 240.12723227,93.00692 246.18553226999998,93.11816999999999 252.24893226999998,93.22316000000001 258.31383227000003,93.32281 264.37543227,93.41668 270.43113227000003,93.50358 276.48043227,93.58239 282.52523227,93.65203 288.56873227,93.71209999999999 294.61293227,93.76271 300.65823227,93.80393000000001 306.70323227,93.83585 312.74553227,93.85807 318.78323227,93.86974000000001 324.81593226999996,93.86995 330.84463227,93.85784 336.87153227,93.83288999999999 342.89873227,93.79521 348.92723227,93.74497 354.95723227,93.68235 360.98833227,93.60752 367.01993227,93.52067 373.05213227,93.42199 379.08543227,93.31166 385.12103227,93.18992 391.15993227,93.0574 397.20253227,92.91481999999999 403.24863227000003,92.76294 409.29723227,92.60242 415.34713227000003,92.43337 421.39723227,92.25567000000001 427.44653227,92.06922 433.49453227,91.87392 439.54073227,91.66965 445.58493227,91.45629 451.62713227,91.23372 457.66773227,91.0018 463.70713227,90.76051 469.74573226999996,90.50989 475.78393227000004,90.24998 481.82193227,89.98085 487.86023227000004,89.70254 493.89883227,89.41508999999999 499.93793227,89.11856 505.97783227,88.813 512.01833227,88.49852 518.05963227,88.17531 524.10173227,87.84359 530.1445322699999,87.50354 536.1880322699999,87.15539 542.23203227,86.79934 548.27653227,86.4356 554.3212322699999,86.06439 560.3659322699999,85.68593 566.41063227,85.30039 572.45523227,84.90796 578.49973227,84.50879 584.5443322699999,84.10304 590.58943227,83.69087 596.6353322699999,83.27242 602.6825322699999,82.8478 608.7318322699999,82.4172 614.78373227,81.98109 620.8389322699999,81.54014000000001 626.89763227,81.09502 632.9601322699999,80.64641 639.02633227,80.19501 645.09613227,79.74155999999999 651.1690322699999,79.28678 657.24433227,78.83143 663.31913227,78.37611 669.3929322699998,77.92099 675.46633227,77.46609 681.54003227,77.01148 687.6145322699999,76.5572 693.69023227,76.10334 699.7650322699999,75.65014 705.83763227,75.19779 711.9078322699999,74.7466 717.9754322699999,74.29716 724.0402322699999,73.85011 730.10203227,73.40606 736.16093227,72.965627 742.2169322699999,72.529421 748.26993227,72.098041 754.3202322699999,71.672085 760.3679322699999,71.25210799999999 766.41323227,70.838551 772.45623227,70.43183 778.49733227,70.032358 784.53653227,69.640546 790.5742322699999,69.256808 796.6105322699999,68.881554 802.6458322699999,68.515195 808.6802322699999,68.158173 814.71363227,67.811189 820.74483227,67.475117 826.7713322699999,67.150883 832.78963227,66.839485 838.79643227,66.542415 844.79213227,66.261346 850.78113227,65.99776299999999 856.7721322699999,65.752954 862.77553227,65.526128 868.7971322699999,65.31441699999999 874.8345322699998,65.115089 880.87753227,64.925634 886.90973227,64.746116 892.9203322699999,64.580468 898.90823227,64.432593 904.8828322699999,64.306096 910.86103227,64.201333 916.8565322699999,64.1105263 922.8714322699999,64.0246906 928.89503227,63.934874 934.90513227,63.8348598 940.88563227,63.7294277 946.8427322699999,63.6257718 952.80593227,63.5305811 958.8261322699999,63.4497018 964.88873227,63.384332 970.91513227,63.3332785 976.9511322699999,63.29398309 982.7042322699999,63.26573329 987.99273227,63.24703691 992.7712322699999,63.236123792 997.07043227,63.231156857 1000.94973227,63.230619216 1004.02343227,63.23285" stroke="black" stroke-width="2.0" /></svg>