<?xml version="1.0" encoding="utf-8" ?>
<svg baseProfile="full" height="101.98562999999999" version="1.1" width="1012.05240077" xmlns="http://www.w3.org/2000/svg" xmlns:ev="http://www.w3.org/2001/xml-events" xmlns:xlink="http://www.w3.org/1999/xlink"><defs /><polygon fill="none" points="1004.05240077,68.06795 1001.04020077,67.6550678 997.24700077,67.1293439 993.0522007699999,66.540458 988.39620077,65.87759299999999 983.24040077,65.132205 977.6084007699999,64.30434299999999 971.64920077,63.41414399999999 965.7084007699999,62.515896999999995 959.7643007699999,61.610482 953.7560007699999,60.692674 947.77780077,59.780843999999995 941.8298007699999,58.878130999999996 935.88340077,57.98309999999999 929.9226007699999,57.096349999999994 923.9439007699999,56.21961999999999 917.95190077,55.35088 911.95070077,54.48607 905.9430007699999,53.62087 899.9299007699999,52.751039999999996 893.91110077,51.875949999999996 887.88680077,50.997389999999996 881.85850077,50.117369999999994 875.82870077,49.238 869.80090077,48.35977 863.7772007699999,47.481449999999995 857.75790077,46.601499999999994 851.7415007699999,45.71808 845.72500077,44.83001 839.70640077,43.93733999999999 833.6857007699999,43.040499999999994 827.66550077,42.14028999999999 821.6499007699999,41.23862 815.64200077,40.338989999999995 809.64280077,39.444759999999995 803.6513007699999,38.55893999999999 797.6644007699999,37.68356 791.6789007699999,36.81831 785.69230077,35.962529999999994 779.7026007699999,35.11565999999999 773.70870077,34.27726 767.70990077,33.44696999999999 761.70630077,32.62455 755.69880077,31.809829999999998 749.68870077,31.00276999999999 743.6779007700001,30.20384 737.6677007699999,29.413719999999998 731.6590007699999,28.63300999999999 725.65250077,27.862259999999992 719.64840077,27.10196 713.6463007699999,26.352549999999994 707.64560077,25.61442999999999 701.64540077,24.887919999999994 695.64420077,24.173039999999993 689.64100077,23.46938 683.63500077,22.776579999999996 677.62570077,22.09433 671.61290077,21.42232 665.5969007699999,20.760319999999993 659.57820077,20.1081 653.55740077,19.465479999999992 647.53570077,18.832449999999994 641.5142007699999,18.209479999999992 635.4937007699999,17.59713 629.47460077,16.9959 623.4574007699999,16.406259999999996 617.44210077,15.828689999999995 611.42860077,15.263599999999997 605.41640077,14.71139999999999 599.4049007699999,14.172460000000001 593.39350077,13.646859999999997 587.38150077,13.134569999999997 581.36860077,12.635589999999993 575.35440077,12.149909999999991 569.3388007699999,11.677579999999992 563.32190077,11.218599999999995 557.30380077,10.773040000000002 551.28480077,10.340949999999992 545.26540077,9.922459999999994 539.24580077,9.517779999999995 533.2265007699999,9.127109999999995 527.20740077,8.750639999999997 521.18870077,8.388559999999998 515.17030077,8.041039999999995 509.15210077000006,7.708269999999999 503.13370077,7.3904 497.11490077,7.087529999999994 491.09520077,6.799539999999993 485.07450077000004,6.526299999999992 479.05250077,6.267669999999995 473.02910077000007,6.023519999999998 467.00410077000004,5.7937299999999965 460.97770077,5.578169999999993 454.94980077,5.376729999999988 448.92050077,5.189300000000003 442.89010077,5.015799999999992 436.85870077,4.856159999999996 430.82640077,4.710319999999996 424.79350077,4.578220000000002 418.75990077,4.459789999999998 412.72600077000004,4.354949999999988 406.69180077,4.263649999999998 400.65760077,4.185809999999989 394.62330077,4.12144 388.58930077,4.070589999999996 382.55560077,4.033329999999992 376.52250077,4.0097200000000015 370.49030077,4.0 364.45970077,4.004660000000001 358.43190077,4.024180000000001 352.40850077000005,4.059010000000001 346.39160077,4.109869999999994 340.38210077,4.177960000000006 334.37960077,4.2645299999999935 328.38220077,4.37086 322.38650077000005,4.497799999999991 316.38940077,4.6449500000000015 310.38860077000004,4.811629999999994 304.38320077000003,4.997199999999999 298.37340077000005,5.200919999999989 292.35990077,5.421979999999998 286.34290077,5.659500000000001 280.32220077000005,5.912659999999995 274.29710077000004,6.180639999999997 268.26740077,6.462679999999999 262.23350077000003,6.757999999999996 256.19750077000003,7.065759999999997 250.16250076999998,7.385109999999997 244.13240076999998,7.716409999999996 238.11010077,8.060919999999996 232.09720076999997,8.41995 226.09380077,8.794869999999996 220.09950077,9.187169999999995 214.11400077,9.598379999999999 208.13800077,10.029969999999992 202.17320077,10.483299999999993 196.22180077,10.960099999999997 190.28590076999998,11.462749999999993 184.36670077,11.993689999999994 178.46500077,12.555369999999996 172.58080077,13.150209999999994 166.71350077,13.780389999999997 160.86250077,14.448109999999993 155.02690077,15.155589999999997 149.20540076999998,15.905019999999993 143.39690077,16.697889999999994 137.60100076999998,17.535339999999998 131.81830077,18.418389999999995 126.04990077,19.347969999999997 120.29800077000002,20.325249999999997 114.56490077000001,21.351749999999996 108.85270077,22.428929999999994 103.16364077000001,23.55818 97.49977077000001,24.740999999999993 91.86307077,25.979299999999995 86.25505077000001,27.275079999999996 80.67675077,28.63037 75.12902077,30.047529999999995 69.61617077,31.53082 64.14971077,33.083909999999996 58.74781077,34.707699999999996 53.43394077,36.40004999999999 48.23323077,38.15782 43.154290769999996,39.985949999999995 38.180810769999994,41.89895 33.33630077,43.901199999999996 28.76812077,45.93955 24.65187077,47.94094 21.003520769999998,49.92849 17.763110769999997,51.90612 14.987540769999999,53.769769999999994 12.727442770000001,55.46809 10.943858769999999,57.00299 9.536045770000001,58.40218899999999 8.39871377,59.719491 7.43132677,60.981606 6.58355077,62.144938999999994 5.85147277,63.167305999999996 5.2588317700000005,64.05528899999999 4.79651647,64.842732 4.44819467,65.558539 4.20228367,66.22343599999999 4.0529610562,66.85263499999999 4.0,67.4582444 4.049377398,68.0511356 4.21102287,68.6422135 4.48558797,69.240842 4.87671897,69.854888 5.39520377,70.491085 6.057298770000001,71.152774 6.87478777,71.830559 7.85431977,72.50792299999999 9.01997377,73.199708 10.41025577,73.953181 12.090458770000001,74.78832299999999 14.144880769999999,75.701945 16.67454077,76.693119 19.74463077,77.752347 23.336490769999997,78.81421999999999 27.493520769999996,79.84080999999999 32.27306077,80.86437 37.45001077,81.84904 42.76218077,82.74149 48.18348077,83.54744 53.77266077,84.29248 59.51643076999999,84.99146999999999 65.35181077,85.64303 71.22437077000001,86.24575 77.10229077000001,86.80243 82.97926077000001,87.31881999999999 88.86632077,87.80019999999999 94.77342077,88.25023999999999 100.70493077,88.67204 106.65940077,89.06826 112.63080077000001,89.44063 118.61300077,89.79012 124.60180077000001,90.11786 130.59490077,90.42514 136.59180077,90.71315 142.59290077,90.98264999999999 148.59890076999997,91.23436 154.61060077,91.46903 160.62910077,91.68751999999999 166.65520077,91.89108 172.68880076999997,92.08107 178.72940076999998,92.25877 184.77560076999998,92.42539 190.82580077,92.58148 196.87880077,92.72747 202.93340077,92.86377999999999 208.98900077,92.99083 215.04540077000001,93.10884999999999 221.10250076999998,93.21798 227.16090076999998,93.31836999999999 233.22150076999998,93.41023 239.28520077,93.494 245.35260076999998,93.57032 251.42310077,93.63982 257.49590077,93.70309 263.56940077,93.76033 269.64240077,93.81138 275.71430077,93.85611 281.78510077000004,93.89436 287.85510077000004,93.92604999999999 293.92450077000007,93.9511 299.99370077000003,93.96945 306.06270077000005,93.98103 312.13130077,93.98562999999999 318.19880077,93.98282 324.26390077,93.97218 330.32450077000004,93.95327 336.37810077,93.92536999999999 342.42300077000004,93.88701 348.45960077000007,93.83668 354.49000077000005,93.77283 360.51790077,93.69435999999999 366.54730077000005,93.60173 372.58090077,93.49566999999999 378.62010077,93.37691 384.66510077000004,93.24625 390.71530077,93.10454 396.77000077,92.95267 402.82800077,92.79155 408.88820077,92.62200999999999 414.94920077,92.44423 421.01000077,92.25806 427.06960077,92.06335 433.12770077,91.85997 439.18380077,91.64775999999999 445.23790077,91.42656 451.29020077,91.19619999999999 457.34130077000003,90.9565 463.39180077000003,90.70747 469.44230077000003,90.44932 475.49340077,90.18223 481.54530077000004,89.90639999999999 487.59840077,89.62204 493.65270077,89.32936 499.70840077,89.02856 505.76510077,88.71987999999999 511.82280076999996,88.40351 517.88120077,88.07961 523.94000077,87.74833 529.99920077,87.40984 536.05870077,87.06428 542.1183007699999,86.71179 548.1780007699999,86.35254 554.23790077,85.98665 560.2981007699999,85.6143 566.35870077,85.23571 572.4198007699999,84.85114999999999 578.48170077,84.46086 584.5444007699999,84.06509 590.60830077,83.66409 596.6736007699999,83.25809 602.7405007699999,82.84734999999999 608.80950077,82.43213 614.88070077,82.01290999999999 620.9544007699999,81.59031 627.03070077,81.16493 633.10940077,80.7374 639.19040077,80.30836 645.27320077,79.87845 651.35740077,79.44834 657.44230077,79.01867999999999 663.52720077,78.58995999999999 669.6115007699999,78.16248 675.69460077,77.736548 681.77630077,77.312439 687.8564007699999,76.89043099999999 693.93470077,76.47078499999999 700.01150077,76.053753 706.0869007699999,75.639578 712.16140077,75.22858 718.23520077,74.821218 724.30810077,74.41798 730.38010077,74.019368 736.45040077,73.625902 742.51830077,73.238113 748.58280077,72.856545 754.64250077,72.48174999999999 760.69590077,72.11437699999999 766.7420007699999,71.75532299999999 772.7803007699999,71.40548 778.81130077,71.065686 784.83620077,70.736734 790.8570007699999,70.41937899999999 796.8764007699999,70.11434899999999 802.89790077,69.822356 808.9258007699999,69.543961 814.96280077,69.278731 821.00760077,69.0259528 827.05380077,68.78508099999999 833.09050077,68.5559246 839.10650077,68.3408475 845.0992007699999,68.14347406 851.07570077,67.96706499999999 857.0529007700001,67.814503 863.0522007699999,67.6843754 869.08550077,67.571231 875.15010077,67.4696203 881.22700077,67.37424709999999 887.2858007699999,67.2850218 893.30550077,67.2090322 899.28320077,67.15336669999999 905.23270077,67.1247102 911.1807007699999,67.12454969999999 917.1491007699999,67.1428907 923.1440007699999,67.168091 929.1544007699999,67.1881815 935.15330077,67.1949142 941.11980077,67.19480469999999 947.0584007699999,67.197666 952.9999007700001,67.21315799999999 958.99890077,67.2502431 965.07730077,67.3103063 971.13920077,67.3897737 977.17450077,67.4853339 982.9045007699999,67.5886814 988.16220077,67.693461 992.90520077,67.7961438 997.16730077,67.8950187 1001.00970077,67.98951407999999 1004.05240077,68.06795" stroke="black" stroke-width="2.0" /></svg>