<?xml version="1.0" encoding="utf-8" ?>
<svg baseProfile="full" height="111.8913" version="1.1" width="1012.04345808" xmlns="http://www.w3.org/2000/svg" xmlns:ev="http://www.w3.org/2001/xml-events" xmlns:xlink="http://www.w3.org/1999/xlink"><defs /><polygon fill="none" points="1004.04345808,73.03609 1000.91655808,72.5940707 996.9944580800001,72.031771 992.6810580800001,71.403236 987.92645808,70.69810700000001 982.70335808,69.908602 977.04135808,69.035168 971.0576580800001,68.094263 964.9241580800001,67.116266 958.7802580800001,66.128861 952.6647580800001,65.144279 946.5894580800001,64.16937200000001 940.5284580800001,63.202695000000006 934.46355808,62.24383 928.3852580800001,61.29383 922.29255808,60.35345 916.18845808,59.41937 910.07565808,58.48728 903.9559580800001,57.55269 897.8303580800001,56.61225 891.69945808,55.667370000000005 885.5650580800001,54.7208 879.4301580800001,53.77556 873.29935808,52.83403 867.17675808,51.894580000000005 861.0636580800001,50.95396 854.95765808,50.00839 848.85295808,49.05409 842.7430580800001,48.09033 836.62465808,47.11816 830.49875808,46.13928 824.37045808,45.15621 818.2462580800001,44.17276 812.1303580800001,43.19286 806.02375808,42.2199 799.92435808,41.25659 793.8285580800001,40.303430000000006 787.73325808,39.35976 781.6361580800001,38.42506 775.53545808,37.4989 769.43025808,36.58099000000001 763.3203580800001,35.671150000000004 757.20635808,34.769310000000004 751.0895580800001,33.87552 744.9716580800001,32.99019 738.85415808,32.11403 732.7381580800001,31.247710000000005 726.62455808,30.39181 720.51365808,29.546860000000002 714.4052580800001,28.71333 708.2988580800001,27.891630000000006 702.1936580800001,27.08211 696.08835808,26.28488 689.98205808,25.499670000000002 683.87375808,24.726220000000005 677.76285808,23.964280000000002 671.64905808,23.213680000000004 665.53225808,22.474250000000005 659.4123580800001,21.745849999999997 653.28985808,21.028380000000006 647.1652580800001,20.321880000000007 641.0392580800001,19.62675 634.9124580800001,18.94348 628.78575808,18.272520000000007 622.65985808,17.61435 616.5356580800001,16.969450000000002 610.41405808,16.338260000000005 604.2960580800001,15.721269999999997 598.1827580800001,15.118920000000003 592.07475808,14.531759999999998 585.9722580800001,13.960239999999999 579.87455808,13.40477 573.7804580800001,12.86569 567.6878580800001,12.343330000000002 561.59435808,11.83793 555.49635808,11.349760000000003 549.39015808,10.878889999999998 543.2716580800001,10.424320000000002 537.1387580800001,9.984570000000005 530.99055808,9.55827 524.8280580800001,9.144180000000006 518.6542580800001,8.741140000000001 512.4736580800001,8.348060000000004 506.29275808,7.963940000000008 500.11995807999995,7.58802 493.96355808000004,7.22214000000001 487.82965808,6.869690000000006 481.72105808,6.533830000000009 475.63755808,6.217460000000003 469.57635808000003,5.923249999999996 463.53195808000004,5.653770000000009 457.49645807999997,5.411500000000004 451.45915808,5.198859999999996 445.40795808,5.01554999999999 439.33285808,4.858029999999999 433.22755808,4.72272000000001 427.08905808000003,4.606089999999995 420.91845808,4.504580000000004 414.72135807999996,4.414580000000001 408.50745808,4.3323899999999895 402.29145808,4.2542800000000085 396.09035808,4.179460000000006 389.91595808,4.112259999999992 383.77065808,4.057310000000001 377.64795808,4.019049999999993 371.53455808,4.000160000000008 365.41855808,4.0 359.29505808,4.017600000000002 353.16615808,4.052009999999996 347.03985808,4.102930000000015 340.92395808000003,4.17201 334.82175808,4.261169999999993 328.73115808,4.3723600000000005 322.64585808,4.507050000000007 316.55845808,4.664699999999996 310.46435808,4.844369999999998 304.36165808,5.045079999999999 298.25085808,5.26576 292.13395808,5.50536000000001 286.01185808,5.762839999999997 279.88515808,6.03716 273.75305807999996,6.327370000000002 267.61515808,6.632639999999995 261.47265808000003,6.952130000000011 255.32805808,7.284930000000003 249.18565808,7.630160000000004 243.05025808,7.988500000000002 236.92535808,8.361350000000002 230.81295808000002,8.750170000000011 224.71375808000002,9.156500000000001 218.62755808,9.58213 212.55455808,10.02892 206.49615808000001,10.498650000000005 200.45385808,10.99304 194.43015807999998,11.514319999999998 188.42695808,12.06512 182.44575808000002,12.64808 176.48745807999998,13.265800000000006 170.55265808,13.920789999999997 164.64085808,14.615570000000005 158.75085808,15.352730000000001 152.88005808,16.13503 147.02545808,16.964839999999995 141.18485808,17.84332 135.35735808,18.77131 129.54425808,19.74935 123.74825808,20.77785 117.97315807999999,21.857890000000005 112.22235807999999,22.990810000000003 106.49865807999998,24.17796 100.80440807999999,25.420700000000004 95.14153807999999,26.72068 89.51217808,28.079720000000002 83.91848807999999,29.49953 78.36267808,30.981680000000004 72.84818807999999,32.52859 67.38491808,34.14407 61.99035808,35.82947 56.688038080000005,37.58277 51.50545808,39.3986 46.46892808,41.27273 41.59128808,43.206500000000005 36.87757808,45.20384 32.38704808,47.24808 28.24167808,49.281580000000005 24.541848079999998,51.25207 21.288218080000004,53.1674 18.43257808,55.026070000000004 15.961878080000002,56.782970000000006 13.866000080000001,58.4113 12.12034708,59.91585 10.683245079999999,61.301950000000005 9.49859408,62.59162 8.511667079999999,63.815516 7.660504080000001,64.99323100000001 6.90104508,66.110208 6.215625080000001,67.13983400000001 5.61812608,68.069051 5.12245108,68.90863900000001 4.72444388,69.677878 4.41700198,70.393861 4.19480668,71.07023600000001 4.05547295,71.718026 4.0,72.3466793 4.033473567,72.96508591 4.16395258,73.5823213 4.39150598,74.205989 4.7165789799999995,74.842127 5.14402608,75.495698 5.68202108,76.169653 6.338790080000001,76.861543 7.114377080000001,77.557289 8.01233808,78.250532 9.04323408,78.955943 10.224666079999999,79.70356100000001 11.58953408,80.503823 13.18099008,81.355678 15.05208808,82.257302 17.262328080000003,83.21882 19.85617808,84.23776000000001 22.85838808,85.277 26.340438080000002,86.31136000000001 30.41095808,87.36904 35.01882808,88.44909 39.953568080000004,89.48621 45.079978080000004,90.44678 50.427758080000004,91.34491 56.01520808,92.19991 61.78335808,93.01534000000001 67.64826808000001,93.78208000000001 73.54602808,94.49617 79.44554808,95.15985 85.34981807999999,95.77918 91.27502807999998,96.35949 97.23173807999999,96.90479 103.22307808,97.41831 109.24445808,97.9025 115.28735808,98.35863 121.34435807999999,98.78784999999999 127.40995808,99.19158 133.48085808,99.57136 139.55565808,99.92797 145.63425808,100.26173 151.71765808,100.57301 157.80815808,100.8623 163.90845808,101.13079 170.01995807999998,101.38015 176.14245807999998,101.61201 182.27425807999998,101.82791 188.41225808,102.02884 194.55465808,102.21532 200.70075808,102.3879 206.85165808,102.54719 213.00915808,102.69408 219.17445808,102.82974 225.34715807999999,102.95531 231.52535808,103.07191 237.70635808,103.18016 243.88795807999998,103.28007 250.06935807999997,103.37163000000001 256.25145808,103.45486 262.43625807999996,103.53001 268.62495808,103.59765 274.81725808,103.65836 281.01155808,103.71269 287.20495808,103.7608 293.39525807999996,103.80219 299.58195808,103.8363 305.76565808,103.8626 311.94845807999997,103.88068 318.13115808000003,103.89031 324.31255808,103.8913 330.48915808,103.88345000000001 336.65575808,103.86596 342.80905808,103.83681 348.94885808,103.79384999999999 355.07895808,103.73492 361.20575808,103.65866 367.33555808,103.56576 373.47205808,103.45721 379.61655808,103.33401 385.76765808,103.19711000000001 391.92315808,103.04715 398.08145808,102.88469 404.24105807999996,102.71032 410.40135807999997,102.52451 416.56185808,102.32739000000001 422.72225808,102.11899 428.88225808,101.89936 435.04185808,101.66853 441.20115807999997,101.42652000000001 447.36015808,101.17337 453.51925808,100.90908999999999 459.67875808,100.63373 465.83915807999995,100.34748 472.00075808,100.05058 478.16365808,99.74328 484.32795808,99.42585 490.49365808,99.09854 496.66045808,98.76162 502.82815808000004,98.41538 508.99625807999996,98.06009 515.16435808,97.69586000000001 521.33195808,97.32275 527.49905808,96.9408 533.6654580800001,96.55004 539.83115808,96.15049 545.9966580800001,95.74218 552.1620580800001,95.32511 558.32795808,94.89929000000001 564.4949580800001,94.46502 570.66375808,94.02279 576.83475808,93.57306 583.00845808,93.11633 589.1851580800001,92.65307 595.36545808,92.18378 601.5492580800001,91.70896 607.7370580800001,91.22912 613.92885808,90.7448 620.12465808,90.25658 626.32425808,89.76505 632.5274580800001,89.27082 638.7337580800001,88.7745 644.9425580800001,88.27674 651.15305808,87.77818 657.36455808,87.27947 663.5758580800001,86.78116 669.78625808,86.28362 675.99505808,85.78723 682.20175808,85.29234 688.4061580800001,84.7993 694.60805808,84.30841000000001 700.80765808,83.82000000000001 707.0051580800001,83.33436 713.2009580800001,82.851871 719.39535808,82.373065 725.5882580800001,81.898487 731.7792580800001,81.42870500000001 737.9677580800001,80.964307 744.15275808,80.505895 750.33315808,80.05409 756.5074580800001,79.609525 762.6740580800001,79.17299 768.83195808,78.745424 774.98115808,78.32771 781.12245808,77.920663 787.25745808,77.525041 793.38865808,77.141558 799.51945808,76.77089000000001 805.65395808,76.41368800000001 811.7964580800001,76.070136 817.94805808,75.739701 824.10375808,75.422036 830.25325808,75.117035 836.38225808,74.826055 842.48255808,74.553079 848.5583580800001,74.30183 854.6253580800001,74.075566 860.7090580800001,73.8751986 866.8303580800001,73.695321 872.99285808,73.5297712 879.18065808,73.3726591 885.35925808,73.2209926 891.4967580800001,73.08154013000001 897.58245808,72.96248218 903.62685808,72.8711907 909.6578580800001,72.8120131 915.7053580800001,72.7760852 921.7829580800001,72.7506426 927.88585808,72.7227352 933.99025808,72.6813808 940.06955808,72.6308175 946.1188580800001,72.5816045 952.1570580800001,72.5439027 958.22555808,72.5272065 964.35825808,72.5343003 970.51535808,72.5634625 976.56715808,72.611441 982.33285808,72.673031 987.66585808,72.7430236 992.51635808,72.8175341 996.90495808,72.8938589 1000.88225808,72.97034167 1004.04345808,73.03609" stroke="black" stroke-width="2.0" /></svg>