<?xml version="1.0" encoding="utf-8" ?>
<svg baseProfile="full" height="92.08352" version="1.1" width="1012.06107614" xmlns="http://www.w3.org/2000/svg" xmlns:ev="http://www.w3.org/2001/xml-events" xmlns:xlink="http://www.w3.org/1999/xlink"><defs /><polygon fill="none" points="1004.06107614,63.093979999999995 1001.1648761399999,62.7124428 997.5069761399999,62.225951099999996 993.44457614,61.67960899999999 988.90957614,61.06218 983.85107614,60.36410599999999 978.2821761399999,59.584171999999995 972.42547614,58.751943999999995 966.65837614,57.92387899999999 960.87497614,57.088750999999995 954.9963761399999,56.23899599999999 949.11277614,55.391425 943.27067614,54.55510199999999 937.42957614,53.725972999999996 931.5665761399999,52.90263999999999 925.6762761399999,52.08613999999999 919.76717614,51.27656999999999 913.8487761399999,50.4717 907.9272761399999,49.66873999999999 902.00567614,48.864459999999994 896.0837761399999,48.05723 890.16077614,47.24831999999999 884.23657614,46.43934999999999 878.31227614,45.63208999999999 872.38937614,44.827549999999995 866.46977614,44.02426 860.55327614,43.220189999999995 854.63867614,42.41306 848.7228761399999,41.600789999999996 842.8029761399999,40.78332999999999 836.8777761399999,39.961619999999996 830.9490761399999,39.136939999999996 825.0205761399999,38.310979999999994 819.09737614,37.48647 813.18247614,36.66636999999999 807.27657614,35.85330999999999 801.37797614,35.04953 795.4834761399999,34.25578999999999 789.59007614,33.47147 783.69557614,32.695989999999995 777.79797614,31.928849999999997 771.8963761399999,31.169639999999994 765.9900761399999,30.418049999999994 760.0792761399999,29.67383999999999 754.16477614,28.93683999999999 748.24787614,28.207069999999995 742.33007614,27.48501999999999 736.41237614,26.771249999999995 730.49577614,26.06629999999999 724.5807761399999,25.370649999999998 718.66737614,24.68471999999999 712.75557614,24.008919999999996 706.8448761399999,23.343619999999994 700.93457614,22.689119999999996 695.02357614,22.045399999999994 689.11107614,21.41214999999999 683.1965761399999,20.78909999999999 677.27967614,20.175969999999992 671.36017614,19.572539999999996 665.43817614,18.978579999999994 659.51377614,18.39390999999999 653.5876761399999,17.81834 647.66047614,17.251839999999994 641.7327761399999,16.69469999999999 635.80507614,16.147289999999998 629.8778761399999,15.609939999999995 623.9512761399999,15.082989999999988 618.02557614,14.566749999999999 612.1007761399999,14.061519999999994 606.17657614,13.56758 600.25287614,13.085219999999993 594.3293761399999,12.614589999999993 588.4057761400001,12.155769999999997 582.48177614,11.708859999999994 576.5571761399999,11.273939999999996 570.63207614,10.851119999999995 564.7062761399999,10.440499999999993 558.77977614,10.042199999999994 552.85277614,9.65632999999999 546.92517614,9.282989999999991 540.99717614,8.922269999999997 535.0688761399999,8.574249999999992 529.14027614,8.238999999999997 523.2113761399999,7.916589999999992 517.2821761399999,7.607109999999992 511.35257614,7.31062 505.42247613999996,7.027189999999997 499.49167614000004,6.756879999999995 493.56017614,6.4996499999999955 487.62777614000004,6.255389999999991 481.69437614,6.024019999999993 475.76007613999997,5.805439999999997 469.82467614,5.599579999999996 463.88847614,5.406329999999997 457.95147614,5.225629999999995 452.01387614,5.057369999999992 446.07577614,4.901519999999991 440.13737613999996,4.7580799999999925 434.19887614000004,4.627069999999996 428.26017614,4.508479999999999 422.32147614,4.402339999999988 416.38257614,4.308639999999997 410.44357614,4.227399999999996 404.50437614000003,4.158609999999996 398.56477614000005,4.102289999999996 392.62457614000004,4.058339999999994 386.68397614,4.026699999999998 380.74297614000005,4.007269999999991 374.80197614,4.0 368.86147614000004,4.005089999999996 362.92207614,4.022919999999992 356.98467614000003,4.053829999999998 351.05047614,4.0981999999999985 345.12057614,4.156679999999994 339.19547614,4.230239999999995 333.27487614,4.319849999999995 327.35757614,4.426489999999994 321.44177614,4.550689999999996 315.52557614,4.6921800000000005 309.60767614,4.8505699999999905 303.68717614,5.025509999999997 297.76367614,5.216499999999996 291.83677614000004,5.422699999999999 285.90647614000005,5.643169999999998 279.97267614,5.876959999999997 274.03517614000003,6.123169999999995 268.09437614000007,6.381179999999993 262.15117614,6.650449999999999 256.20737614,6.930379999999992 250.26537614,7.220429999999993 244.32797614,7.521099999999997 238.39717614,7.833679999999994 232.47377614,8.159509999999997 226.55757614000004,8.49998 220.64747614000004,8.856399999999994 214.74297614000002,9.229959999999998 208.84427614,9.621769999999998 202.95257614000002,10.032889999999995 197.06957614,10.464659999999995 191.19737614000002,10.919189999999993 185.33767614,11.398729999999993 179.49177614,11.90545999999999 173.66077614,12.441600000000001 167.84527614,13.009529999999991 162.04497614000002,13.611709999999995 156.25877614,14.250699999999995 150.48467614,14.929099999999991 144.72037613999998,15.64860999999999 138.96467614000002,16.410129999999995 133.21767614,17.21439999999999 127.48057614,18.061989999999994 121.75607613999999,18.95366 116.04677613999999,19.890829999999994 110.35457613999999,20.87503999999999 104.68087614,21.907909999999994 99.02632614,22.991149999999998 93.39145614,24.126609999999992 87.77719614,25.316079999999992 82.18487613999999,26.56123999999999 76.61625613999999,27.863699999999994 71.07508614,29.226719999999993 65.56964614,30.654819999999994 60.11222614,32.15107999999999 54.71862614,33.71678999999999 49.40675614,35.35198 44.185846139999995,37.06165 39.04384614,38.858869999999996 33.98751614,40.757889999999996 29.13625614,42.732049999999994 24.670276140000002,44.72248 20.61938614,46.75807 16.95781614,48.83483999999999 13.87006414,50.79588999999999 11.49010814,52.55864 9.71140014,54.122043999999995 8.32493114,55.5819 7.16474514,56.97863699999999 6.197084139999999,58.191545999999995 5.44376914,59.180111999999994 4.88609504,60.00778199999999 4.48265034,60.732108 4.20735314,61.388164999999994 4.04735941,61.998357999999996 4.0,62.57876889999999 4.07260362,63.14293623 4.27766284,63.70421519999999 4.61808334,64.27476899999999 5.10546214,64.865804 5.7653731399999995,65.487808 6.6328311399999995,66.14315099999999 7.7328091400000005,66.810618 9.11988114,67.501545 10.88772314,68.29384999999999 13.17536714,69.21174099999999 16.14275614,70.23197599999999 19.844656139999998,71.321315 24.063006140000002,72.342304 28.83872614,73.26462 34.18319614,74.15946 39.68610614,74.97175999999999 45.16140614,75.67519999999999 50.71972614,76.30033 56.43222614,76.87683 62.25843613999999,77.41458 68.13085614,77.91144 74.00365614,78.36838999999999 79.85913614,78.78954999999999 85.70552613999999,79.18036 91.55861614,79.54467 97.42833613999998,79.88543 103.31785614,80.20509999999999 109.22357614,80.50563 115.13887614000001,80.7879 121.05847614,81.05261999999999 126.97977614,81.30060999999999 132.90227614,81.53284 138.82727614,81.75010999999999 144.75577614000002,81.95306 150.68777614,82.14229999999999 156.62297614000002,82.31841 162.56027614,82.48192 168.49937614,82.63329999999999 174.44057614,82.77305 180.38517614000003,82.90169 186.33527614000002,83.02 192.29207614000003,83.12931 198.25557614000002,83.23102999999999 204.22397614000002,83.32650999999998 210.19427614,83.41678999999999 216.16347614,83.50161 222.13017614,83.58045999999999 228.09427614,83.65288 234.05737614,83.71848999999999 240.02167614,83.77758 245.98837614,83.8307 251.95807614000003,83.87837999999999 257.93027614000005,83.92112999999999 263.90397614,83.95912 269.87797614000004,83.99233 275.85127614,84.02072 281.82297614000004,84.04426 287.79247614,84.06273999999999 293.75947614000006,84.07573 299.72467614000004,84.08279999999999 305.68927614,84.08352 311.65477614,84.07764999999999 317.62217613999997,84.06528999999999 323.59067614,84.04657999999999 329.55797614,84.02167 335.52027614,83.99033999999999 341.47457614,83.95109 347.42037614,83.9022 353.35967614000003,83.84192999999999 359.29667614,83.76886999999999 365.23627614,83.68348 371.18137614,83.58693 377.13287614,83.48040999999999 383.08937614,83.36507999999999 389.04837614,83.24148 395.00757613999997,83.1097 400.96567614,82.96983 406.92247614,82.82193 412.87807614,82.66605999999999 418.83297614,82.50225999999999 424.78757614,82.33059 430.74217613999997,82.1511 436.69707614000004,81.96383 442.65237614,81.76884 448.60837613999996,81.56618 454.56487614,81.35589999999999 460.52217614,81.13808 466.47997614,80.91288999999999 472.43847614000003,80.68047999999999 478.39757614,80.44104999999999 484.35717614000004,80.19476 490.31717614,79.94179 496.27747614000003,79.68231 502.23797614,79.41650999999999 508.19857614,79.14456 514.15917614,78.86657 520.1195761399999,78.58259 526.0797761399999,78.29267999999999 532.0398761399999,77.9969 537.99977614,77.69530999999999 543.9595761399999,77.38794999999999 549.9194761399999,77.07486999999999 555.87967614,76.75613 561.84027614,76.43185 567.80167614,76.10231999999999 573.7638761399999,75.76783999999999 579.7271761399999,75.42872 585.69157614,75.08525999999999 591.65727614,74.73777 597.6242761399999,74.38655999999999 603.59267614,74.03193999999999 609.5622761399999,73.67425999999999 615.53327614,73.31398 621.5054761399999,72.951638 627.4787761399999,72.587747 633.4529761399999,72.22284099999999 639.4279761399999,71.857451 645.40337614,71.49211199999999 651.37897614,71.127364 657.3543761399999,70.763739 663.32917614,70.40164299999999 669.30327614,70.041365 675.27617614,69.68318199999999 681.24797614,69.327367 687.21847614,68.97418499999999 693.18787614,68.623897 699.1562761399999,68.27675699999999 705.12397614,67.93301399999999 711.0911761399999,67.592939 717.05827614,67.25686999999999 723.02517614,66.925163 728.99177614,66.598187 734.95777614,66.276318 740.92247614,65.959943 746.88527614,65.64945599999999 752.84507614,65.345258 758.80097614,65.04779299999998 764.75167614,64.75779899999999 770.69677614,64.476124 776.6363761399999,64.20357999999999 782.57087614,63.94095049999999 788.5015761399999,63.688995199999994 794.43017614,63.44845709999999 800.3587761399999,63.220069099999996 806.29037614,63.00454917 812.2274761399999,62.802034199999994 818.17097614,62.611910599999995 824.11827614,62.433595 830.06377614,62.266570699999995 835.9996761399999,62.1112171 841.92087614,61.969913999999996 847.8286761399999,61.84515199999999 853.73067614,61.739298999999995 859.6400761399999,61.653772999999994 865.56917614,61.58564 871.5213761399999,61.530764999999995 877.4900761399999,61.485018999999994 883.45827614,61.444900999999994 889.4063761399999,61.412918 895.3254761399999,61.394597 901.21907614,61.395275999999996 907.10217614,61.419937999999995 912.99607614,61.466657 918.91297614,61.526771 924.85017614,61.591075999999994 930.79017614,61.650107999999996 936.7049761399999,61.700188 942.58257614,61.747932999999996 948.4381761399999,61.800979 954.31367614,61.867194999999995 960.26487614,61.95344299999999 966.17157614,62.057939999999995 972.03377614,62.1787613 977.95767614,62.3166605 983.60007614,62.461506699999994 988.7327761399999,62.60437029999999 993.3312761399999,62.74134419999999 997.44367614,62.871034699999996 1001.13967614,62.9933857 1004.06107614,63.093979999999995" stroke="black" stroke-width="2.0" /></svg>