<?xml version="1.0" encoding="utf-8" ?>
<svg baseProfile="full" height="107.25789" version="1.1" width="1012.1445753" xmlns="http://www.w3.org/2000/svg" xmlns:ev="http://www.w3.org/2001/xml-events" xmlns:xlink="http://www.w3.org/1999/xlink"><defs /><polygon fill="none" points="1004.1445753,70.77839 1000.9473753,70.2570592 996.7203753,69.567031 991.8871753000001,68.77745800000001 986.5437753000001,67.90506 980.8621753,66.97977600000002 974.9517753,66.020894 968.8580753,65.035146 962.6254753000001,64.028468 956.2966753,63.006268000000006 949.9067753,61.97276500000001 943.4805752999999,60.93265600000001 937.0351753000001,59.89078000000001 930.5794753,58.85077000000001 924.1147753,57.81436000000001 917.6393753000001,56.78088000000001 911.1527753,55.749430000000004 904.6554753,54.71929000000001 898.1491753,53.68999000000001 891.6361753000001,52.66167000000001 885.1187753,51.63461000000001 878.5986753000001,50.60906000000001 872.0779753,49.585240000000006 865.5582753,48.56334000000001 859.0409753,47.54351000000001 852.5273753,46.52588 846.0185753000001,45.5108 839.5153753,44.499010000000006 833.0182753000001,43.49128 826.5275753,42.48834000000001 820.0433753000001,41.49087 813.5653753000001,40.499520000000004 807.0933753,39.51489000000001 800.6266753,38.53755 794.1644753,37.56777000000001 787.7059753,36.60566000000001 781.2502753,35.65126000000001 774.7962753,34.70463000000001 768.3429753000001,33.76581000000001 761.8891753,32.83483000000001 755.4334753,31.911710000000014 748.9745753000001,30.996430000000004 742.5112753000001,30.088760000000008 736.0430753,29.188420000000008 729.5701753000001,28.295240000000007 723.0932753000001,27.40912000000001 716.6140753,26.53009000000001 710.1347753,25.658240000000006 703.6584753000001,24.793740000000007 697.1884753,23.93719 690.7280753,23.090350000000008 684.2799752999999,22.25504 677.8459753000001,21.433000000000007 671.4271753,20.62582000000001 665.0240753,19.83498000000001 658.6365753,19.061850000000007 652.2639753000001,18.307710000000007 645.9047753000001,17.573580000000007 639.5576753,16.86017000000001 633.2210753,16.168160000000007 626.8933753,15.49822000000001 620.5727753,14.851030000000009 614.2572753,14.227250000000005 607.9450753,13.627580000000009 601.6339753,13.052710000000012 595.3217753,12.502710000000008 589.0064753,11.976920000000007 582.6862753,11.474620000000002 576.3594753,10.995160000000006 570.0243753000001,10.537920000000007 563.6793753000001,10.102290000000004 557.3232753000001,9.68771000000001 550.9546753,9.293620000000011 544.5723753000001,8.919190000000008 538.1757753,8.56334000000001 531.7646753000001,8.225000000000009 525.3392753,7.903110000000005 518.9005753,7.596620000000016 512.4499753,7.304490000000008 505.98947530000004,7.025660000000002 499.5215753,6.759159999999994 493.04927530000003,6.504770000000008 486.57467529999997,6.262650000000008 480.0996753,6.032939999999996 473.6253753,5.815740000000005 467.1523753,5.611130000000003 460.68087529999997,5.419160000000005 454.2102753,5.239879999999999 447.7395753,5.073270000000008 441.2675753,4.919169999999994 434.7935753,4.777380000000008 428.31697529999997,4.64773000000001 421.83767529999994,4.530030000000011 415.3559753,4.424140000000008 408.8722753,4.329870000000014 402.3875753,4.247079999999997 395.9031753,4.175750000000008 389.42007529999995,4.1161300000000125 382.9391753,4.068480000000008 376.4613753,4.033080000000012 369.9868753,4.010170000000002 363.5161753,4.0 357.0489753,4.00282 350.58537529999995,4.018890000000013 344.1247753,4.048530000000014 337.6671753,4.092120000000008 331.2129753,4.150050000000007 324.7625753,4.222680000000011 318.3170753,4.310380000000009 311.8775753,4.4135100000000165 305.4455753,4.532380000000003 299.0231753,4.667390000000012 292.6121753,4.819559999999996 286.21447529999995,4.990180000000009 279.8313753,5.180510000000012 273.46417529999997,5.3918000000000035 267.1135753,5.625250000000008 260.7802753,5.882069999999999 254.4643753,6.163449999999997 248.16617530000002,6.470529999999997 241.88537530000002,6.804460000000013 235.6216753,7.166330000000009 229.3747753,7.557260000000014 223.14387530000002,7.978370000000012 216.9282753,8.430780000000006 210.72687530000002,8.915660000000003 204.5385753,9.434170000000009 198.36217530000002,9.987460000000006 192.1966753,10.576310000000007 186.0416753,11.201390000000004 179.8973753,11.863290000000006 173.76447530000002,12.562550000000009 167.6445753,13.299610000000001 161.5392753,14.07482000000001 155.4512753,14.888400000000011 149.3833753,15.740500000000004 143.33857530000003,16.631570000000004 137.3191753,17.562300000000008 131.3265753,18.533390000000004 125.36177529999999,19.54563000000001 119.42467529999999,20.599880000000006 113.5149753,21.69711000000001 107.6312753,22.838400000000007 101.77201529999999,24.025030000000008 95.93721529999999,25.25977000000001 90.1341253,26.546080000000003 84.3777653,27.88542000000001 78.6899953,29.27678000000001 73.09776529999999,30.71656 67.6308153,32.198690000000006 62.3187753,33.71508000000001 57.1883653,35.256260000000005 52.261305300000004,36.812450000000005 47.5626053,38.38013000000001 43.137395299999994,39.95561000000001 39.0329553,41.52485 35.2779553,43.07019000000001 31.8754053,44.57645000000001 28.807085299999997,46.03363 26.0450153,47.43479000000001 23.5637753,48.77153000000001 21.3369553,50.03920000000001 19.3371453,51.237170000000006 17.5375953,52.36759000000001 15.9135653,53.43467000000001 14.4444753,54.453210000000006 13.1160753,55.441370000000006 11.916804299999999,56.40872 10.8352413,57.35969000000001 9.859688299999998,58.29605000000001 8.9785413,59.218300000000006 8.1840543,60.123430000000006 7.4738883000000005,61.004670000000004 6.8434793,61.859277000000006 6.2872983,62.68728200000001 5.8000453,63.49001500000001 5.3771123,64.269363 5.0147115,65.027398 4.7098881,65.766203 4.4604793,66.487801 4.2650791,67.19412600000001 4.12301822,67.88704000000001 4.0343713,68.56834500000001 4.0,69.23982400000001 4.021644,69.90328360000001 4.10207618,70.5606101 4.2450016999999995,71.2138407 4.4513199,71.86503200000001 4.7203113,72.51594700000001 5.0522551,73.16803100000001 5.4483913,73.82240900000001 5.9108603,74.479826 6.4426463,75.140505 7.0474473,75.803886 7.7293863,76.46815900000001 8.492325300000001,77.12948 9.3384143,77.78070000000001 10.2698083,78.41365400000001 11.2947283,79.02570300000001 12.4226843,79.61603400000001 13.6634303,80.18574500000001 15.026955300000001,80.739232 16.5240353,81.28630000000001 18.1689753,81.84188 19.9856353,82.41147000000001 22.0050753,82.99653 24.2648653,83.59888000000001 26.8094253,84.22093000000001 29.6893053,84.86633 32.9605753,85.53815 36.67880529999999,86.23195000000001 40.8718153,86.93659000000001 45.5104053,87.63541000000001 50.5038453,88.31227000000001 55.7490853,88.96172000000001 61.1977353,89.58708000000001 66.83152530000001,90.18604 72.6289653,90.75606 78.5653353,91.29552000000001 84.61469530000001,91.80397 90.7522553,92.2822 96.95659529999999,92.73223 103.2115853,93.15716 109.5076753,93.56063 115.84007530000001,93.94445 122.2049753,94.30965 128.59817529999998,94.65734 135.0157753,94.98875000000001 141.45377530000002,95.30516 147.9080753,95.60795 154.3749753,95.89854000000001 160.8506753,96.17808000000001 167.33177530000003,96.44649000000001 173.81547530000003,96.7035 180.2993753,96.94886000000001 186.78197530000003,97.18236 193.2618753,97.4038 199.73877530000001,97.61305000000002 206.2126753,97.80996 212.6840753,97.99444 219.15367530000003,98.16645 225.6220753,98.32595 232.08987530000002,98.47287 238.55767530000003,98.60715 245.0258753,98.72873000000001 251.49507530000002,98.83754 257.96557530000007,98.93351000000001 264.43767529999997,99.01671 270.91167529999996,99.08733000000001 277.3877753,99.14554000000001 283.86587529999997,99.19152 290.34597529999996,99.22545000000001 296.82787529999996,99.24752000000001 303.3112753,99.25789 309.7958753,99.25672 316.28107529999994,99.24392 322.7663753,99.21932000000001 329.2509753,99.18277 335.73397529999994,99.13411 342.21447529999995,99.07319000000001 348.69137529999995,98.99987000000002 355.1632753,98.91404 361.6291753,98.81547 368.0878753,98.70368 374.5390753,98.57816 380.9828753,98.43838000000001 387.4201753,98.28381 393.8521753,98.11389 400.28097529999997,97.92803 406.70897529999996,97.72563000000001 413.13897529999997,97.50664 419.5738753,97.27178 426.0158753,97.02183000000001 432.46667529999996,96.75756000000001 438.9276753,96.47977 445.3994753,96.18926 451.8823753,95.88689000000001 458.37607529999997,95.57352 464.8799753,95.24991 471.3931753,94.91675000000001 477.9145753,94.57476000000001 484.4431753,94.22466 490.9775753,93.86721 497.51657529999994,93.50316000000001 504.0583753,93.1333 510.60147529999995,92.75824 517.1442753,92.37789000000001 523.6850753,91.99195 530.2225753000001,91.60013000000001 536.7557753,91.20211 543.2835753,90.7976 549.8051753000001,90.38626000000001 556.3201753000001,89.96778 562.8280753,89.54188 569.3290753,89.10832 575.8238753,88.66684000000001 582.3137753000001,88.21712000000001 588.8007753,87.75881000000001 595.2873753,87.29151 601.7766753000001,86.81472000000001 608.2723753,86.32799 614.7783753,85.83162 621.2974753000001,85.32656 627.8310753000001,84.81387000000001 634.3791753,84.29477 640.9401753000001,83.77058000000001 647.5109753,83.2428 654.0868753,82.71305000000001 660.6616753,82.18311000000001 667.2293753000001,81.65494000000001 673.7853753,81.13036000000001 680.3267753,80.61108300000001 686.8522753000001,80.098628 693.3619753,79.59438600000001 699.8578753,79.09961000000001 706.3430753,78.615424 712.8219753000001,78.142205 719.2986753,77.67934500000001 725.7765753000001,77.22622000000001 732.2586753,76.78227700000001 738.7468753,76.34701700000001 745.2428753,75.919998 751.7473753,75.50082300000001 758.2606753,75.089144 764.7822753,74.684666 771.3111753000001,74.287136 777.8462753000001,73.896321 784.3855753,73.51200600000001 790.9269753,73.13399000000001 797.4677753000001,72.76209200000001 804.0049753000001,72.39614200000001 810.5351753,72.036304 817.0548753,71.68409700000001 823.5613753,71.341352 830.0520753000001,71.0098408 836.5249753,70.69127088 842.9786753000001,70.38728590000001 849.4120753,70.0994663 855.8243753,69.8293333 862.2152753,69.578438 868.5848753000001,69.34843900000001 874.9336753,69.14095900000001 881.2627753,68.957583 887.5734753,68.79986500000001 893.8678753,68.66934300000001 900.1482753,68.56755600000001 906.4171753,68.496043 912.6778753,68.45570900000001 918.9332753000001,68.44655700000001 925.1864753,68.46857800000001 931.4408753,68.52183400000001 937.6991753000001,68.605975 943.9611753,68.71902600000001 950.2205753000001,68.85851000000001 956.4650753000001,69.021674 962.6749753,69.20541 968.8191753000001,69.406057 974.8558753000001,69.619325 980.7376753,69.84050540000001 986.4138753000001,70.0644285 991.7732753,70.28206440000001 996.6399753000001,70.4818719 1000.9095753,70.6567466 1004.1445753,70.78839" stroke="black" stroke-width="2.0" /></svg>