<?xml version="1.0" encoding="utf-8" ?>
<svg baseProfile="full" height="102.2351" version="1.1" width="1012.05200568" xmlns="http://www.w3.org/2000/svg" xmlns:ev="http://www.w3.org/2001/xml-events" xmlns:xlink="http://www.w3.org/1999/xlink"><defs /><polygon fill="none" points="1004.05200568,72.91072 1001.1232056800001,72.4528546 997.42940568,71.86913 993.3353056799999,71.213953 988.77650568,70.474276 983.70680568,69.639151 978.14210568,68.707255 972.26800568,67.707443 966.46260568,66.707287 960.64860568,65.69836699999999 954.7496056800001,64.672032 948.85360568,63.648182999999996 942.99670568,62.63608 937.14260568,61.63185 931.27040568,60.634429999999995 925.37460568,59.645179999999996 919.46170568,58.663529999999994 913.5396056799999,57.6862 907.61500568,56.70953 901.6923056799999,55.72962 895.7741056799999,54.74571 889.86010568,53.76119 883.94830568,52.77942 878.0350056799999,51.80347 872.11520568,50.83467 866.18550568,49.87092 860.24490568,48.90997 854.2953056800001,47.949960000000004 848.34100568,46.98989 842.3868056800001,46.0308 836.43600568,45.07409 830.49080568,44.120909999999995 824.55150568,43.17219 818.61780568,42.228939999999994 812.68860568,41.29224 806.7630056799999,40.363119999999995 800.83950568,39.44253 794.91670568,38.53084 788.99370568,37.62791 783.06950568,36.73361 777.14370568,35.847879999999996 771.21590568,34.97069 765.2860056799999,34.10204999999999 759.3543056799999,33.242 753.42130568,32.39064 747.48770568,31.54817 741.55420568,30.715040000000002 735.6211056799999,29.891709999999996 729.6889056800001,29.078609999999998 723.7576056799999,28.276160000000004 717.8271056799999,27.484719999999996 711.8970056799999,26.704639999999998 705.96670568,25.93625 700.03570568,25.17982 694.10310568,24.43528 688.16830568,23.702379999999998 682.23090568,22.980889999999995 676.2909056799999,22.270619999999994 670.34820568,21.571399999999997 664.40310568,20.883069999999996 658.45600568,20.2055 652.50760568,19.53861 646.55880568,18.882490000000004 640.6102056799999,18.237669999999994 634.6623056799999,17.604679999999995 628.71560568,16.984029999999997 622.77020568,16.376199999999997 616.82600568,15.781659999999995 610.8829056799999,15.200849999999996 604.94060568,14.634210000000003 598.99840568,14.082099999999997 593.0558056799999,13.544589999999992 587.1125056799999,13.02167 581.16790568,12.513300000000001 575.2220056799999,12.019499999999994 569.27460568,11.540280000000003 563.32560568,11.07564 557.37530568,10.625629999999994 551.42370568,10.190279999999994 545.47130568,9.769680000000001 539.5183056799999,9.36392999999999 533.5649056799999,8.973149999999997 527.61110568,8.597439999999992 521.65710568,8.236919999999998 515.70270568,7.8916599999999875 509.74790568,7.561769999999996 503.79250568,7.247340000000008 497.83610568,6.948399999999992 491.87860567999996,6.664789999999996 485.91980567999997,6.396329999999992 479.95940568,6.142809999999997 473.99750568,5.90406999999999 468.03390568,5.6799099999999925 462.06880567999997,5.470160000000007 456.10220568,5.274639999999991 450.13440568,5.093189999999993 444.16540568,4.925709999999995 438.19560567999997,4.772189999999995 432.22510567999996,4.63257999999999 426.25410568,4.506869999999992 420.28270568,4.395009999999999 414.31120567999994,4.296979999999991 408.33960568,4.212729999999993 402.36820567999996,4.142229999999998 396.39710568,4.085519999999988 390.42650568,4.042790000000011 384.45670567999997,4.014219999999995 378.48810568,4.0 372.52130567999995,4.000410000000002 366.55660567999996,4.015999999999991 360.59480568,4.047380000000004 354.63600568,4.0951299999999975 348.68080568,4.159849999999992 342.72930568,4.242080000000001 336.78090568,4.3423799999999915 330.83480568,4.461330000000004 324.88930567999995,4.599469999999997 318.94270568,4.756699999999995 312.99420568,4.932549999999992 307.04370567999996,5.1265300000000025 301.09180568,5.3381200000000035 295.14010568,5.566939999999988 289.18910567999995,5.812839999999994 283.23850568,6.0756899999999945 277.28710567999997,6.355429999999998 271.33280568,6.651879999999991 265.37480568,6.964529999999996 259.41450568,7.292739999999995 253.45540568,7.635710000000003 247.50310568,7.993179999999995 241.56220568,8.36694 235.63480568,8.759259999999998 229.71960568,9.172600000000003 223.81240568,9.60933 217.90890568,10.070449999999994 212.00690568000002,10.556280000000001 206.10710568,11.066929999999992 200.21320568000002,11.602339999999998 194.33000568,12.163409999999999 188.46050568,12.7519 182.60440568,13.369880000000002 176.75890568,14.019680000000001 170.91900568,14.703069999999997 165.08180568,15.420539999999995 159.24800568,16.172130000000003 153.42180568,16.95733 147.61070568000002,17.775959999999998 141.82150568,18.630200000000002 136.05710568,19.5231 130.31610567999996,20.458259999999996 124.59330568,21.43979999999999 118.88300568,22.47067 113.18420567999999,23.55243 107.50190568,24.685499999999998 101.84656568,25.869030000000002 96.23219567999999,27.10335 90.66829567999999,28.392509999999994 85.15578568,29.742289999999997 79.68776567999998,31.160359999999997 74.25096568,32.656369999999995 68.83697568,34.23863 63.454865680000005,35.91036 58.13185568,37.66817 52.910565680000005,39.50104 47.83844568000001,41.399429999999995 42.92546568,43.378389999999996 38.128865680000004,45.474 33.41663568,47.70992 28.86225568,50.05206 24.616435680000002,52.42675 20.756345680000003,54.82662 17.27540568,57.2446 14.22449568,59.595029999999994 11.75770968,61.69553 9.91838268,63.448305 8.51128068,64.991571 7.35387268,66.420851 6.38293568,67.668272 5.60492968,68.695418 5.01729498,69.554452 4.58357558,70.303749 4.27735118,70.980335 4.08439955,71.607831 4.0,72.20288289999999 4.02819326,72.778986 4.18116628,73.3491318 4.46297928,73.925632 4.87942508,74.519508 5.44800168,75.141488 6.19722668,75.799596 7.15009668,76.484102 8.333326679999999,77.182844 9.80113068,77.938416 11.645591679999999,78.809625 13.98776568,79.787058 16.963365680000003,80.848188 20.57185568,81.943843 24.66571568,82.94516999999999 29.38890568,83.86135999999999 34.703515679999995,84.75905 40.15287568,85.56338 45.57824568,86.24804 51.12544568,86.85079999999999 56.87014568,87.407 62.75147568,87.92668 68.68021568,88.40561 74.59821568,88.8439 80.48735568,89.2458 86.36389568,89.6173 92.25047568,89.96323 98.16048568,90.28739999999999 104.09730567999999,90.59298 110.05440567999999,90.88229 116.02150567999999,91.15588 121.99110568,91.41414 127.95930567999999,91.65765999999999 133.92560568000002,91.88716 139.89140568000002,92.10294999999999 145.85810568,92.30514 151.82660568,92.49383 157.79740568000003,92.66909 163.77080568,92.83131 169.74700568000003,92.98107 175.72610568000002,93.11896 181.70860568,93.24558999999999 187.69480568,93.36164 193.68490568,93.46788 199.67860568000003,93.56508 205.67540568,93.65402 211.67470568,93.73532 217.67560568000002,93.80933 223.67800567999998,93.87636 229.68160568000002,93.93675 235.68670568000002,93.99082999999999 241.69360568000002,94.03895 247.70210568000002,94.08147 253.71210568,94.11876 259.72310568,94.1511 265.73450568,94.17845 271.74550567999995,94.20071 277.75530567999994,94.21773999999999 283.76310567999997,94.22937999999999 289.76800568,94.2351 295.76970568,94.23419 301.76820567999994,94.22594 307.76400567999997,94.20966 313.75780567999993,94.18487999999999 319.75020567999997,94.15125 325.74120568,94.10844 331.73070567999997,94.05611999999999 337.71820568,93.99394 343.70360567999995,93.92148 349.68690568,93.83834999999999 355.66900568,93.74413999999999 361.65060567999996,93.63866 367.63300567999994,93.5222 373.61690567999995,93.39509 379.60290568,93.25765 385.59160567999993,93.11027999999999 391.58310568,92.95358999999999 397.57740568,92.78823 403.57410567999995,92.61486 409.57240568,92.43406999999999 415.57150568,92.24597 421.57060567999997,92.05049 427.56930567999996,91.84758 433.56700567999997,91.63717 439.56360567999997,91.4192 445.55890567999995,91.1936 451.55300567999996,90.96029999999999 457.54610568,90.71921 463.53850568,90.47035 469.53050568,90.21381 475.52240567999996,89.94967 481.51450568,89.67801 487.50680568,89.39894 493.49950567999997,89.11252999999999 499.49280568,88.81888 505.48650568,88.51809 511.48080568,88.21028 517.47560568,87.89565 523.47090568,87.5744 529.46680568,87.24673 535.46310568,86.91284999999999 541.4601056800001,86.57296 547.45760568,86.22726 553.45570568,85.87594 559.45450568,85.51921999999999 565.4540056799999,85.15731 571.45420568,84.79042 577.4553056799999,84.41877 583.45700568,84.0426 589.4595056799999,83.66211 595.46260568,83.27754999999999 601.46640568,82.889119 607.47080568,82.497079 613.47560568,82.10195399999999 619.48080568,81.704511 625.4864056800001,81.305525 631.49230568,80.90576899999999 637.4984056799999,80.50601999999999 643.50480568,80.107051 649.51130568,79.709638 655.51790568,79.314555 661.5246056799999,78.922373 667.53120568,78.53326799999999 673.5377056799999,78.147367 679.5440056799999,77.7648 685.5499056799999,77.385694 691.5554056799999,77.010176 697.5603056799999,76.638374 703.56460568,76.270416 709.56820568,75.90648999999999 715.57100568,75.547112 721.5726056799999,75.192904 727.57290568,74.844492 733.5713056799999,74.502505 739.56730568,74.167577 745.56020568,73.8403402 751.54940568,73.5214292 757.53390568,73.21148029999999 763.51310568,72.9111999682 769.48640568,72.6213295 775.45400568,72.3425797 781.4168056799999,72.0756349 787.37590568,71.821159 793.33320568,71.57979999999999 799.29080568,71.352204 805.25170568,71.139015 811.21890568,70.940515 817.19320568,70.756214 823.17200568,70.585612 829.14870568,70.428277 835.11360568,70.28450099999999 841.05980568,70.157125 846.98760568,70.049373 852.90540568,69.964316 858.82850568,69.904343 864.77310568,69.866893 870.7451056799999,69.847285 876.73860568,69.840772 882.73460568,69.842891 888.70900568,69.8554 894.64910568,69.884564 900.5571056800001,69.936561 906.44920568,70.01743499999999 912.35050568,70.126283 918.27750568,70.252959 924.2308056799999,70.386243 930.1935056799999,70.514288 936.13540568,70.630809 942.03880568,70.743236 947.91470568,70.861143 953.80160568,70.99456599999999 959.76250568,71.152976 965.7441056800001,71.335178 971.67480568,71.536216 977.64330568,71.756417 983.32630568,71.98051459999999 988.51280568,72.19666169999999 993.16920568,72.4001766 997.3385056799999,72.5899944 1001.08780568,72.766815 1004.05200568,72.91072" stroke="black" stroke-width="2.0" /></svg>