<?xml version="1.0" encoding="utf-8" ?>
<svg baseProfile="full" height="102.77871" version="1.1" width="1012.2199556" xmlns="http://www.w3.org/2000/svg" xmlns:ev="http://www.w3.org/2001/xml-events" xmlns:xlink="http://www.w3.org/1999/xlink"><defs /><polygon fill="none" points="1004.2199556,72.47127 1001.1022556,71.9076532 996.9038556,71.147801 992.0166556,70.26244 986.5791556,69.27752100000001 980.8401556000001,68.23967300000001 974.9338556,67.174777 968.8911556,66.089094 962.7381556,64.987909 956.5017556,63.87660100000001 950.2077556,62.760267000000006 943.8786556,61.643130000000006 937.5322556,60.528330000000004 931.1804556,59.41787000000001 924.8290556000001,58.31284000000001 918.4797556,57.21407000000001 912.1328556000001,56.12228 905.7872556,55.03791000000001 899.4404556000001,53.96112000000001 893.0896556,52.891220000000004 886.7324556000001,51.827220000000004 880.3677556000001,50.76829000000001 873.9947556,49.71374 867.6139556,48.66301 861.2265556,47.615680000000005 854.8345556,46.571490000000004 848.4409556,45.53045 842.0488556,44.49344000000001 835.6604556000001,43.46153 829.2775556,42.435680000000005 822.9012556,41.41671000000001 816.5319556000001,40.405350000000006 810.1693556000001,39.402210000000004 803.8127556000001,38.407810000000005 797.4604556,37.42246 791.1111556000001,36.44606 784.7633556000001,35.47847 778.4158556000001,34.51959 772.0674556,33.56935000000001 765.7174556000001,32.62769 759.3650556,31.6946 753.0095556000001,30.7701 746.6506556,29.854170000000003 740.2882556000001,28.946780000000004 733.9225556,28.047920000000005 727.5541556000001,27.157630000000005 721.1839556000001,26.276020000000003 714.8134556,25.403200000000005 708.4441556,24.539360000000002 702.0782556000001,23.684720000000006 695.7178556,22.840020000000003 689.3650556,22.006750000000004 683.0213556,21.186380000000007 676.6882556,20.38033 670.3665556000001,19.589930000000003 664.0570556,18.816450000000003 657.7598556,18.06112000000001 651.4752556000001,17.325080000000007 645.2027556,16.60935 638.9419556,15.914830000000002 632.6918556,15.242350000000002 626.4510556000001,14.592700000000008 620.2178556,13.966650000000001 613.9902556000001,13.364930000000001 607.7657556,12.78829000000001 601.5415556,12.23744 595.3146556,11.712299999999999 589.0823556,11.211930000000002 582.8424556000001,10.735360000000007 576.5931556,10.281730000000003 570.3330556000001,9.850200000000001 564.0611556000001,9.439979999999998 557.7771556,9.05033000000001 551.4807556000001,8.680520000000008 545.1722556000001,8.329799999999992 538.8523556,7.997379999999993 532.5213556000001,7.682460000000006 526.1801556,7.384220000000013 519.8293556000001,7.101850000000013 513.4699556,6.834510000000009 507.1030556,6.581370000000007 500.7296556,6.341590000000011 494.3510556,6.11469000000001 487.9681556,5.90046000000001 481.5818556,5.6987100000000055 475.19285560000003,5.509230000000002 468.8016556,5.331800000000001 462.4083556,5.16619 456.0131556,5.012170000000012 449.6158556,4.869510000000005 443.2164556,4.738020000000006 436.8147556,4.617590000000007 430.4108556,4.5080799999999925 424.0049556,4.409360000000007 417.5976556,4.321299999999994 411.1893556,4.243770000000012 404.78095559999997,4.176659999999998 398.37335559999997,4.119860000000003 391.9673556,4.073610000000002 385.5637556,4.0382100000000065 379.1631556,4.013940000000005 372.7659556,4.001109999999997 366.37225559999996,4.0 359.9820556,4.010890000000003 353.5953556,4.034090000000006 347.21165560000003,4.069890000000001 340.8308556,4.118700000000004 334.45305559999997,4.1809100000000115 328.0785556,4.256910000000005 321.7081556,4.347110000000001 315.34285559999995,4.451859999999996 308.98385559999997,4.57153000000001 302.63285559999997,4.706460000000007 296.29165559999996,4.857290000000006 289.9621556,5.025289999999998 283.6458556,5.211770000000001 277.34395559999996,5.418040000000005 271.05745559999997,5.645350000000008 264.7872556,5.894940000000005 258.5336556,6.168059999999997 252.2969556,6.465910000000008 246.0771556,6.789690000000007 239.8743556,7.140600000000006 233.68815560000002,7.519840000000002 227.5182556,7.92859 221.3639556,8.368049999999997 215.22455559999997,8.839430000000007 209.0992556,9.343970000000006 202.9870556,9.8829 196.88665559999998,10.457350000000005 190.7975556,11.068080000000002 184.7193556,11.715770000000006 178.6523556,12.401060000000008 172.5971556,13.124540000000003 166.5548556,13.886730000000007 160.52685559999998,14.688070000000003 154.5152556,15.528880000000001 148.5220556,16.40950000000001 142.5496556,17.330500000000008 136.59955559999997,18.29261000000001 130.67275560000002,19.296580000000006 124.76965560000001,20.343230000000005 118.8902556,21.433450000000008 113.0340556,22.56823 107.1998556,23.748650000000005 101.38629560000001,24.976000000000006 95.59380560000001,26.253090000000007 89.82887560000002,27.583290000000005 84.1039956,28.968310000000002 78.43698560000001,30.40791 72.8499856,31.899670000000008 67.36785560000001,33.439040000000006 62.0162456,35.01954 56.8195056,36.6332 51.799145599999996,38.271570000000004 46.984365600000004,39.9337 42.4278056,41.61639 38.1855656,43.30406000000001 34.2949256,44.97605 30.7652656,46.61367 27.5821756,48.203430000000004 24.7254656,49.72973 22.175905599999997,51.176410000000004 19.9080456,52.53515 17.8921156,53.804500000000004 16.0973756,54.98794000000001 14.4952756,56.103790000000004 13.0652066,57.17709000000001 11.7911716,58.219590000000004 10.656816599999999,59.23579 9.6451136,60.227230000000006 8.7399436,61.19415000000001 7.9339026,62.13064000000001 7.2223916,63.031135000000006 6.597997599999999,63.895445 6.0531736,64.72569100000001 5.5812926,65.52479400000001 5.1769136,66.29581 4.8357684,67.041662 4.5546669,67.765056 4.3313992,68.468466 4.16466537,69.15415800000001 4.0540428,69.82423200000001 4.0,70.480664 4.0039648,71.125361 4.0684633,71.7602177 4.19735936,72.38718905 4.3952514,73.0084004 4.6627209,73.626124 4.999629,74.242344 5.4070996000000004,74.85867 5.8874386,75.476309 6.4440615999999995,76.095946 7.0813486,76.717464 7.8042546,77.339425 8.617316599999999,77.95808500000001 9.522411599999998,78.565742 10.5224796,79.15371400000001 11.6291706,79.71855500000001 12.855977600000001,80.258573 14.2172336,80.774758 15.7284556,81.273273 17.408455600000003,81.769143 19.285645600000002,82.276668 21.400005599999997,82.79778 23.8008456,83.33344000000001 26.5480456,83.88519000000001 29.7092556,84.45580000000001 33.3550356,85.04717000000001 37.5465656,85.6507 42.2814256,86.24858 47.4512656,86.81899 52.8831956,87.34894 58.459515599999996,87.84315000000001 64.1559556,88.30665 69.96495560000001,88.73981 75.8779056,89.1434 81.88528560000002,89.51869 87.9769756,89.86745 94.1425356,90.19192000000001 100.3715456,90.49481 106.6539556,90.7792 112.9804556,91.04746 119.34295560000001,91.3007 125.7336556,91.54014000000001 132.1458556,91.76709000000001 138.5732556,91.98301000000001 145.01085559999999,92.18946 151.4546556,92.38806 157.9015556,92.58044000000001 164.3494556,92.76713000000001 170.79675559999998,92.94771 177.24205560000001,93.12176000000001 183.68425559999997,93.28886 190.1227556,93.44863000000001 196.5569556,93.60067000000001 202.9869556,93.74461000000001 209.4127556,93.8801 215.8349556,94.00688000000001 222.2538556,94.12473 228.6700556,94.23343 235.0839556,94.33276000000001 241.49615559999998,94.42249000000001 247.90725559999998,94.50240000000001 254.31755559999996,94.57226 260.7278556,94.63189 267.1386556,94.68133 273.55015560000004,94.72065 279.9625556,94.74994000000001 286.3759556,94.76926 292.79005559999996,94.77871 299.20465559999997,94.77834 305.61935559999995,94.76824 312.0332556,94.74837000000001 318.4459556,94.71844 324.8566556,94.67812 331.2645556,94.62710000000001 337.6689556,94.56507 344.0692556,94.49171 350.4644556,94.40674 356.8540556,94.30986 363.2371556,94.20070000000001 369.6133556,94.0788 375.9829556,93.94371000000001 382.34615560000003,93.79494 388.7041556,93.63201000000001 395.0581556,93.45439 401.41005559999996,93.26157 407.7620556,93.05301 414.1167556,92.82886 420.4762556,92.58987 426.8424556,92.33679000000001 433.2169556,92.07041000000001 439.6007556,91.79149000000001 445.9943556,91.50086 452.3980556,91.19932 458.8116556,90.88774000000001 465.2346556,90.56687000000001 471.66615559999997,90.23744 478.1055556,89.90018 484.55185559999995,89.55583 491.0041556,89.20517000000001 497.46125559999996,88.84896 503.9219556,88.48801 510.38505560000004,88.12298 516.8489556000001,87.75392000000001 523.3126556,87.38069 529.7749556,87.00316000000001 536.2349556,86.62118000000001 542.6918556,86.2346 549.1450556000001,85.84327 555.5938556,85.44702000000001 562.0381556000001,85.04568 568.4777556000001,84.63906 574.9129556,84.22694 581.3444556000001,83.80908000000001 587.7732556000001,83.38521 594.2008556000001,82.95504 600.6288556000001,82.51824 607.0596556,82.07446900000001 613.4953556,81.62398200000001 619.9378556,81.167776 626.3879556,80.70696000000001 632.8455556,80.24271900000001 639.3096556,79.776313 645.7781556,79.30908600000001 652.2479556000001,78.842455 658.7152556000001,78.37791200000001 665.1755556,77.91701 671.6256556000001,77.46125 678.0633556,77.01202500000001 684.4878556000001,76.57063000000001 690.8991556000001,76.13825700000001 697.2985556,75.71601600000001 703.6886556000001,75.30493700000001 710.0726556000001,74.90579100000001 716.4541556,74.518299 722.8362556000001,74.14190400000001 729.2214556,73.776104 735.6116556000001,73.42044390000001 742.0082556,73.07451280000001 748.4117556,72.7379358 754.8224556,72.41037080000001 761.2397556000001,72.09152970000001 767.6630556000001,71.7812193 774.0911556,71.4792654 780.5229556,71.185496 786.9570556,70.899741 793.3917556,70.621831 799.8254556,70.351595 806.2560556000001,70.088874 812.6816556,69.834113 819.0998556000001,69.588744 825.5086556,69.35426700000001 831.9055556000001,69.132154 838.2882556000001,68.923849 844.6544556,68.730754 851.0015556000001,68.554229 857.3271556,68.39560300000001 863.6290556000001,68.25658700000001 869.9057556,68.13926500000001 876.1573556000001,68.045651 882.3848556,67.97769600000001 888.5904556,67.93731500000001 894.7774556,67.926417 900.9501556000001,67.946944 907.1137556,68.000857 913.2742556000001,68.088836 919.4368556000001,68.21017400000001 925.6057556000001,68.364175 931.7842556,68.5502 937.9741556,68.767404 944.1735556,69.01413600000001 950.3735556,69.28826500000001 956.5589556000001,69.587162 962.7085556000001,69.907404 968.7970556,70.244764 974.7973556000001,70.594677 980.6819556000002,70.952456 986.4189556000001,71.31300800000001 991.8783556000001,71.66409300000001 996.8091556,71.9853618 1001.0593556000001,72.2637809 1004.2199556,72.47127" stroke="black" stroke-width="2.0" /></svg>