<?xml version="1.0" encoding="utf-8" ?>
<svg baseProfile="full" height="177.90881" version="1.1" width="1011.9997399921" xmlns="http://www.w3.org/2000/svg" xmlns:ev="http://www.w3.org/2001/xml-events" xmlns:xlink="http://www.w3.org/1999/xlink"><defs /><polygon fill="none" points="1003.9997399921,125.7924 1000.5732399921,124.87972189999999 996.2557399921,123.738197 991.5341399921,122.499366 986.4145399921,121.16538899999999 980.9153399921,119.741501 975.0728399921001,118.237461 968.9330399921,116.664937 962.5428399921,115.035236 955.9530399921,113.36023 949.2117399921001,111.6506 942.3569399921,109.91444 935.4204399921,108.15849 928.4286399921,106.38802 921.4004399920999,104.60638999999999 914.3477399921001,102.81572 907.2787399921001,101.01775 900.1998399921,99.21367 893.1148399921001,97.40411 886.0253399920999,95.58923 878.9318399921,93.76924 871.8348399921,91.94441 864.7344399921,90.11498 857.6311399921,88.28116 850.5248399921,86.44336 843.4159399920999,84.60257999999999 836.3046399921,82.76001 829.1916399921,80.91694 822.0779399920999,79.07471 814.9649399921001,77.23473999999999 807.8540399921,75.39837 800.7468399921,73.56676999999999 793.6446399921,71.74104 786.5487399921001,69.92227 779.4601399921,68.11148 772.3797399921,66.30963 765.3082399921001,64.51765 758.2463399920999,62.736399999999996 751.1943399921,60.96672 744.1525399921001,59.20936999999999 737.1212399921,57.46508 730.1002399921,55.73453000000001 723.0894399921001,54.01836999999999 716.0885399921,52.31719 709.0971399921,50.63154999999999 702.1147399921,48.96199 695.1407399921,47.308980000000005 688.1741399921,45.67299 681.2141399921,44.054460000000006 674.2596399921,42.45371 667.3101399921,40.87061999999999 660.3680399921,39.305170000000004 653.4386399921,37.75958 646.5247399921,36.236450000000005 639.6273399920999,34.73764 632.7462399921,33.264579999999995 625.8798399921001,31.818420000000003 619.0255399921,30.400090000000006 612.1803399920999,29.010220000000004 605.3416399921,27.649240000000006 598.5102399921001,26.315759999999997 591.6872399921,25.01178 584.8738399921,23.736999999999995 578.0744399921,22.49329999999999 571.2914399921,21.28280000000001 564.5246399921,20.107100000000003 557.7728399921,18.967200000000005 551.0349399921,17.864199999999997 544.3100399921,16.798900000000003 537.5971399921,15.772499999999994 530.8959399921,14.785399999999996 524.2055399921001,13.838399999999993 517.5254399921,12.932100000000005 510.85493999209996,12.066900000000004 504.1931399921,11.243599999999986 497.5391399921,10.462699999999998 490.89203999209997,9.724899999999991 484.2509399921,9.030599999999993 477.6145399921,8.380700000000004 470.98213999210003,7.775199999999998 464.3526399921,7.214299999999994 457.7252399921,6.698099999999997 451.09923999209997,6.226799999999997 444.47383999209995,5.800699999999992 437.84833999209997,5.419799999999995 431.2220399921,5.084599999999995 424.5939399921,4.7952999999999975 417.9616399921,4.552199999999985 411.32203999210003,4.354600000000005 404.6749399921,4.201099999999997 398.02143999209994,4.090699999999998 391.3638399921,4.023600000000002 384.7037399921,4.0 378.04193999209997,4.019899999999993 371.3786399921,4.083299999999994 364.7131399921,4.1902999999999935 358.04443999209997,4.340699999999998 351.3729399921,4.533699999999996 344.7014399921,4.768899999999988 338.0298399921,5.0471 331.3572399921,5.367899999999992 324.6849399921,5.730499999999992 318.0158399921,6.1347999999999985 311.3523399921,6.5809 304.69683999209997,7.068799999999996 298.0507399921,7.5985999999999905 291.4156399921,8.170599999999993 284.7927399921,8.7851 278.18373999209996,9.442400000000006 271.5902399921,10.142899999999997 265.01413999209996,10.886899999999997 258.4573399921,11.674500000000009 251.9217399921,12.50609999999999 245.4090399921,13.382199999999997 238.9209399921,14.303399999999996 232.4592399921,15.270499999999984 226.0258399921,16.2842 219.6227399921,17.345299999999995 213.25173999209997,18.454399999999993 206.91483999209999,19.61229999999999 200.6135399921,20.8194 194.34963999209998,22.076499999999996 188.1234399921,23.385199999999998 181.93423999209998,24.746449999999996 175.7830399921,26.16037999999999 169.6718399921,27.627200000000002 163.6032399921,29.147220000000004 157.57953999209997,30.720650000000006 151.6032399921,32.34774 145.67763999209998,34.02883 139.8062399921,35.763969999999986 133.9931399921,37.55292 128.2427399921,39.3951 122.55953999210001,41.28967999999999 116.94913999210002,43.236090000000004 111.4179399921,45.23339999999999 105.97293999210001,47.28005 100.62119999210002,49.37386000000001 95.3699499921,51.51210999999999 90.2272899921,53.69203999999999 85.2021299921,55.91027 80.3033799921,58.162499999999994 75.5394699921,60.44368999999999 70.9179999921,62.74831 66.44821999210001,65.0702 62.142529992099995,67.40088 58.01409999209999,69.72968 54.0744999921,72.04498000000001 50.332089992099995,74.33538 46.7920999921,76.59094999999999 43.4565999921,78.80344 40.323699992099996,80.96611 37.387899992099996,83.074 34.6408699921,85.12393 32.0726199921,87.11431999999999 29.6756499921,89.044 27.445799992100003,90.90975 25.3788599921,92.70756 23.468909992100002,94.43422 21.708009992100003,96.08809 20.086539992099997,97.66928 18.594029992099998,99.17958999999999 17.219739992100003,100.62358 15.952139992100001,102.00757999999999 14.7798999921,103.33829 13.6926659921,104.62212 12.681251992100002,105.86492 11.737689992100002,107.07188 10.8551499921,108.24761 10.0297169921,109.39614 9.2610139921,110.52001 8.549304992100001,111.61997 7.8947729921,112.69569 7.2971729921,113.74624 6.7556579921,114.770524 6.2687329921,115.767493 5.8343079921,116.736356 5.4498069921,117.676648 5.1123889921,118.588229 4.8207900921,119.471062 4.5746957921,120.326617 4.3731252921,121.158196 4.2150708921,121.97006 4.0999466921,122.766982 4.0278846321,123.55412079999999 4.0,124.3371043 4.0186929321,125.1217171 4.0878427221,125.91041799999999 4.2129779921,126.702848 4.4011902921,127.496528 4.6602156920999995,128.28681799999998 4.9930131921,129.07107 5.3996189921,129.84837299999998 5.8797969921,130.617716 6.4330079921,131.377946 7.058329992099999,132.127744 7.7543599920999995,132.86559 8.5190869921,133.589722 9.349721992100001,134.298076 10.2424719921,134.98821 11.1941169921,135.65791 12.2081179921,136.30734 13.2903789921,136.93761 14.447719992100001,137.55023 15.688009992100001,138.14736 17.020309992100003,138.73206 18.454949992099998,139.30871 20.0033999921,139.88359 21.6778899921,140.46575 23.4916799921,141.06531 25.4630199921,141.68515 27.6130899921,142.32595 29.9645199921,142.98783 32.5396899921,143.66998 35.3579799921,144.3703 38.4317999921,145.08519 41.76261999209999,145.80975 45.3394099921,146.53885 49.1428999921,147.26918 53.157439992099995,148.00200999999998 57.38824999209999,148.74286 61.8580499921,149.49414 66.59183999209999,150.25736999999998 71.6133899921,151.03386 76.9412699921,151.82435999999998 82.58196999210001,152.62853 88.51998999210001,153.44407 94.7131399921,154.26479999999998 101.1094599921,155.08314 107.6634399921,155.89330999999999 114.33853999210001,156.69018 121.10053999210001,157.4691 127.9191399921,158.22644 134.7700399921,158.95974999999999 141.63693999209997,159.66779 148.5125399921,160.35045 155.39763999209998,161.00835 162.2960399921,161.64175 169.2087399921,162.25051 176.13393999209998,162.83420999999998 183.06713999209998,163.39207 190.0058399921,163.92317 196.9509399921,164.42753 203.9039399921,164.90566 210.86563999209997,165.35804 217.8371399921,165.78511 224.81873999209998,166.18731 231.8107399921,166.56511 238.81343999209997,166.91908999999998 245.8269399921,167.24983 252.8514399921,167.55792 259.88683999209997,167.84395 266.9333399921,168.10849 273.99083999209995,168.35215 281.0592399921,168.57551999999998 288.13873999209994,168.77922999999998 295.2290399921,168.9639 302.33043999209997,169.13017 309.4428399921,169.27868999999998 316.5658399921,169.41014 323.6991399921,169.52519 330.84173999210003,169.62448 337.9925399921,169.70841 345.15073999209994,169.77728 352.3153399921,169.83141999999998 359.4854399921,169.87116 366.6603399921,169.89684 373.8392399921,169.90881 381.0214399921,169.9074 388.2063399921,169.89275 395.3933399921,169.86491999999998 402.5819399921,169.82398 409.7714399921,169.76998 416.96133999209997,169.70301 424.1510399921,169.62313 431.33993999209997,169.53042 438.5275399921,169.42482 445.71313999209997,169.30614 452.89613999209996,169.17419 460.0758399921,169.0288 467.2515399921,168.86979 474.4225399921,168.69701 481.5880399921,168.51028 488.74713999209996,168.30937 495.8990399921,168.0938 503.0431399921,167.86308 510.1787399921,167.61673 517.3054399921,167.35426999999999 524.4225399920999,167.07522 531.5299399920999,166.7791 538.6272399921,166.46545 545.7141399921001,166.13369999999998 552.7905399921,165.78327 559.8561399921,165.41359 566.9107399921,165.02408 573.9542399921,164.61417 580.9864399920999,164.18331 588.0072399921,163.73093 595.0164399920999,163.25646 602.0139399921001,162.7593 608.9997399921,162.23886 615.9738399921,161.69454 622.9359399921001,161.12576 629.8863399920999,160.53193 636.8249399921,159.91244999999998 643.7517399920999,159.26682 650.6670399921,158.5947 657.5712399921,157.89575 664.4647399920999,157.1696 671.3486399921001,156.41586999999998 678.2240399921,155.63411 685.0921399921,154.82381999999998 691.9545399921,153.98447 698.8130399920999,153.11545999999998 705.6696399921,152.21611 712.5268399921,151.28581 719.3887399921,150.32387 726.2604399920999,149.33013 733.1473399921,148.30546 740.0537399921,147.25087 746.9835399921,146.16746999999998 753.9394399921,145.0565 760.9233399921001,143.91956 767.9356399920999,142.75933 774.9735399921001,141.57924 782.0314399921,140.38337 789.1010399921,139.1769 796.1728399921,137.96576 803.2366399921,136.75607 810.2820399921,135.55398 817.2981399921,134.365624 824.2740399921,133.196939 831.1990399921,132.054032 838.0637399921001,130.943623 844.8610399921,129.87187899999998 851.5852399921,128.84421 858.2326399921,127.865296 864.8011399921,126.93914 871.2896399921,126.069288 877.6977399921,125.25996289999999 884.0249399920999,124.51546877 890.2707399921001,123.8396125 896.4346399921001,123.235715 902.5163399921,122.706626 908.5154399921,122.254767 914.4313399921,121.88271 920.2630399921,121.593199 926.0099399921,121.38852899999999 931.6716399921,121.270549 937.2482399921,121.24070999999999 942.7398399921,121.3001 948.1461399921001,121.44933999999999 953.4651399921,121.688544 958.6937399921001,122.01740699999999 963.8285399921,122.435154 968.8655399921,122.940499 973.8003399921,123.5311583 978.6250399921,124.2027308 983.3278399921,124.9493596 987.8951399921,125.763896 992.3129399921,126.637843 996.5651399921001,127.560232 1000.6333399921,128.518174 1003.9997399921,129.3674" stroke="black" stroke-width="2.0" /></svg>