<?xml version="1.0" encoding="utf-8" ?>
<svg baseProfile="full" height="122.17308" version="1.1" width="1012.09125541" xmlns="http://www.w3.org/2000/svg" xmlns:ev="http://www.w3.org/2001/xml-events" xmlns:xlink="http://www.w3.org/1999/xlink"><defs /><polygon fill="none" points="1004.09125541,87.68172 1000.95565541,87.0815818 997.02435541,86.323801 992.70225541,85.483842 987.93855541,84.54974 982.70315541,83.513082 977.0206554100001,82.375941 971.00105541,81.158771 964.80525541,79.895015 958.5747554100001,78.615813 952.3841554100001,77.33935 946.2365554099999,76.07055 940.11335541,74.8121 933.9999554100001,73.56768 927.88605541,72.34185 921.7662554100001,71.13544999999999 915.63855541,69.93934999999999 909.50065541,68.74293 903.3496554100001,67.53532 897.18145541,66.30893 890.99175541,65.06615 884.77925541,63.81179 878.5457554100001,62.55149 872.29685541,61.290499999999994 866.03975541,60.030699999999996 859.78055541,58.77298999999999 853.5235554100001,57.517939999999996 847.2717554100001,56.2662 841.02685541,55.01941 834.79045541,53.77934 828.56415541,52.54774 822.3490554100001,51.32637 816.14555541,50.117 809.9520554100001,48.92113 803.76595541,47.739959999999996 797.58275541,46.574 791.3985554100001,45.422270000000005 785.21015541,44.283699999999996 779.01535541,43.15741 772.81285541,42.04271 766.60255541,40.9391 760.3850554100001,39.84625 754.16215541,38.76399 747.93645541,37.69247 741.71075541,36.6326 735.48705541,35.58534 729.26645541,34.5515 723.04975541,33.53179 716.83665541,32.526759999999996 710.6264554100001,31.536879999999996 704.41755541,30.5625 698.20785541,29.603739999999995 691.99515541,28.660130000000002 685.77785541,27.73113 679.55525541,26.816309999999994 673.32695541,25.91532 667.09325541,25.02790999999999 660.85525541,24.153920000000006 654.61465541,23.293279999999996 648.37355541,22.446119999999993 642.13435541,21.613359999999986 635.89875541,20.796050000000008 629.66775541,19.995190000000008 623.44205541,19.211650000000006 617.22165541,18.446240000000003 611.00585541,17.699690000000004 604.79345541,16.97265999999999 598.58295541,16.265680000000003 592.37265541,15.578680000000006 586.16105541,14.911459999999991 579.94725541,14.26388999999999 573.73045541,13.635859999999994 567.5104554100001,13.027320000000003 561.28735541,12.43826 555.06145541,11.868700000000004 548.83355541,11.31871000000001 542.6046554100001,10.788479999999993 536.37525541,10.278270000000006 530.14605541,9.78828 523.91705541,9.318690000000004 517.6883554100001,8.86967 511.45965541000004,8.441379999999995 505.23045541,8.033960000000008 499.00015540999993,7.647490000000005 492.76785541,7.281790000000001 486.53305541,6.936549999999997 480.29525541,6.61148 474.05415540999996,6.306309999999996 467.80965540999995,6.020789999999991 461.56175541,5.754660000000001 455.31065541,5.5076799999999935 449.05685540999997,5.279609999999991 442.80075540999997,5.07038 436.54275541,4.879930000000002 430.28345541,4.708219999999997 424.02315541,4.555189999999996 417.76235541,4.4207799999999935 411.50125540999994,4.304940000000002 405.24045541,4.20759000000001 398.98005541,4.128680000000003 392.72055541,4.068309999999997 386.46225541,4.026639999999986 380.20565540999996,4.003799999999998 373.95135541,4.0 367.70025541,4.015810000000002 361.45385540999996,4.051959999999994 355.21455541,4.109129999999993 348.98505541,4.188040000000001 342.76765541,4.289810000000003 336.56115540999997,4.415769999999995 330.36145540999996,4.5673499999999905 324.16125540999997,4.745859999999993 317.95255541,4.9506099999999975 311.73165541,5.179910000000007 305.49955540999997,5.431889999999996 299.26185540999995,5.704670000000007 293.02625541,5.9979100000000045 286.79725541,6.312179999999998 280.57555541,6.648200000000003 274.35785541,7.006829999999994 268.13975541,7.3882600000000025 261.92005541,7.792169999999999 255.70105541,8.217979999999997 249.48915541,8.664990000000003 243.29215541,9.13422 237.11515541,9.627749999999992 230.95945541,10.147869999999998 224.82345540999998,10.697029999999998 218.70365541,11.277140000000003 212.59725541,11.889660000000006 206.50335541,12.535939999999997 200.42215541000002,13.217150000000004 194.35485541,13.934239999999988 188.30155541,14.688150000000007 182.26125541,15.479959999999991 176.23165541,16.310950000000005 170.21005541000002,17.18217 164.19655541,18.093999999999994 158.19475541,19.046189999999996 152.21215541,20.037779999999998 146.25885541,21.06868999999999 140.34335541,22.141279999999995 134.46975541,23.25864 128.63785541,24.424479999999996 122.84425541,25.64284 117.08585541000001,26.916849999999997 111.36335541,28.248759999999997 105.68055541,29.639939999999996 100.04444541,31.090899999999998 94.46354541,32.603049999999996 88.94420541,34.178839999999994 83.48975541,35.821149999999996 78.10087541,37.53339999999999 72.77755541,39.319759999999995 67.52597541,41.18363 62.36018541,43.125119999999995 57.30045541,45.14045 52.371125410000005,47.22202 47.59743541,49.36139 42.99714541,51.55363 38.57853541000001,53.79605 34.36750541,56.07743 30.43120541,58.35848 26.84159541,60.58454999999999 23.63568541,62.72405 20.79737541,64.77468 18.29852541,66.72363 16.122415410000002,68.5446 14.248705410000001,70.22985 12.65287141,71.79415 11.30409941,73.24837 10.170393409999999,74.60419 9.21648141,75.88174 8.40846341,77.10108 7.69763941,78.272712 7.049053410000001,79.388815 6.4437804100000005,80.435683 5.88561541,81.40351199999999 5.39549841,82.29401 4.98013971,83.118335 4.63938061,83.888893 4.37148281,84.616707 4.17520803,85.311106 4.05069579,85.980066 4.0,86.630693 4.02769095,87.2697467 4.14169454,87.9042135 4.34739651,88.5403099 4.64386781,89.18158199999999 5.03267101,89.829908 5.51779041,90.484948 6.10405641,91.142326 6.79332241,91.789954 7.58455241,92.416563 8.481344409999998,93.033279 9.48539441,93.666449 10.603915409999999,94.338662 11.85618841,95.048394 13.26795341,95.788302 14.87294541,96.553492 16.70865541,97.350659 18.80655541,98.18258 21.191435409999997,99.02905 23.90517541,99.86158 27.04582541,100.67659 30.72380541,101.51228 34.92897540999999,102.37603 39.51937541,103.21619 44.38009541,103.99557 49.54618541,104.71946 55.05868541,105.40782999999999 60.85958541,106.06911 66.82784541,106.6914 72.85726541000001,107.26662999999999 78.89069540999999,107.7949 84.92889541000001,108.28232 90.99883541,108.73578 97.11819541,109.16072 103.29083541,109.56153 109.50575540999999,109.94146 115.74455541,110.30102 121.99275541000002,110.64027 128.24195541,110.95976999999999 134.48985541000002,111.26034 140.73745541,111.54223 146.98675541,111.80542 153.23975541,112.04989 159.49835541,112.27572 165.76445540999998,112.48379 172.03915541,112.67525 178.32295541,112.85123 184.61545541,113.01283 190.91615541,113.16107 197.22435541000002,113.29691 203.53935540999998,113.42135999999999 209.86085541,113.53533 216.18775541,113.63931 222.51835541000003,113.73364 228.84975541,113.81866 235.17825541,113.89455 241.50155540999998,113.96083999999999 247.82055541000003,114.01687 254.13945541,114.06201999999999 260.46605540999997,114.09617 266.80685540999997,114.12111 273.16385541,114.13914 279.53355540999996,114.15254999999999 285.90775541,114.16301 292.27845540999994,114.17012 298.64275541,114.17308 305.00335541,114.1711 311.36695540999995,114.16378 317.73825540999997,114.15182 324.11435541,114.13607 330.48475541,114.11743 336.83295540999995,114.09493 343.14655540999996,114.06359 349.42305541,114.01808 355.66915541,113.9532 361.89905540999996,113.86569 368.12695541,113.75596999999999 374.36315540999993,113.62478999999999 380.61385541,113.47288999999999 386.88185540999996,113.30145999999999 393.16705541,113.11269999999999 399.46725541,112.90901 405.77835541,112.6929 412.09425540999996,112.46592 418.40885541,112.22756 424.71775541,111.97709 431.01795540999996,111.71375 437.30815541,111.43674 443.58815541,111.14520999999999 449.85965540999996,110.83824 456.12545541,110.51485 462.38975540999996,110.1747 468.65655541,109.81859 474.92895541,109.44745 481.20945541,109.06222 487.49965541,108.6639 493.80025541,108.25352 500.11115541,107.8322 506.43145541,107.4011 512.75955541,106.96117 519.09345541,106.51294 525.43155541,106.05689 531.77245541,105.59352 538.11475541,105.12332 544.4574554100001,104.64677 550.7994554100001,104.16433 557.14025541,103.67649 563.4791554100001,103.18421 569.8160554100001,102.68902 576.1509554099999,102.19239999999999 582.48415541,101.69586 588.8161554100001,101.20085 595.14755541,100.70882 601.47945541,100.2212 607.8130554100001,99.73935 614.14945541,99.26372 620.48935541,98.79409 626.83295541,98.33027 633.1798554100001,97.8721 639.52895541,97.41946 645.8787554099999,96.972264 652.2272554100001,96.530463 658.57165541,96.094106 664.9094554100001,95.663941 671.23895541,95.241049 677.5593554100001,94.82643399999999 683.87095541,94.42102 690.17535541,94.025663 696.4747554100001,93.641159 702.77255541,93.268257 709.0729554100001,92.90746899999999 715.38055541,92.55775799999999 721.69865541,92.217437 728.0295554100001,91.884889 734.37435541,91.558547 740.7328554100001,91.236893 747.1036554100001,90.918452 753.4841554100001,90.60179099999999 759.87025541,90.285642 766.25775541,89.969383 772.64325541,89.652562 779.0243554100001,89.334684 785.3994554100001,89.015203 791.7682554099999,88.693534 798.13105541,88.369046 804.48945541,88.0410602 810.84525541,87.70879117999999 817.19795541,87.37133349999999 823.5416554100001,87.0280215 829.86525541,86.678523 836.15365541,86.325644 842.39625541,85.979772 848.59125541,85.6517 854.74555541,85.35130699999999 860.87245541,85.086026 866.98345541,84.857979 873.08285541,84.668741 879.16705541,84.520122 885.22675541,84.414207 891.25495541,84.353883 897.25615541,84.34204199999999 903.2462554100001,84.381767 909.25195541,84.474441 915.30005541,84.60721699999999 921.4017554100001,84.761055 927.5479554100001,84.915488 933.70805541,85.051339 939.84545541,85.171918 945.94685541,85.292608 952.02565541,85.428997 958.12065541,85.596308 964.2659554100001,85.799069 970.42545541,86.032142 976.47705541,86.28574 982.24845541,86.546355 987.59685541,86.8025947 992.4715554100001,87.0484292 996.89025541,87.2813977 1000.90055541,87.5011811 1004.09125541,87.68172" stroke="black" stroke-width="2.0" /></svg>