<?xml version="1.0" encoding="utf-8" ?>
<svg baseProfile="full" height="152.02231" version="1.1" width="1012.05129302" xmlns="http://www.w3.org/2000/svg" xmlns:ev="http://www.w3.org/2001/xml-events" xmlns:xlink="http://www.w3.org/1999/xlink"><defs /><polygon fill="none" points="1004.05129302,102.62265000000001 1000.47929302,101.88229740000001 996.0880930200001,100.95858100000001 991.37779302,99.951085 986.32659302,98.85147 980.9266930199999,97.653906 975.1954930200001,96.358186 969.18099302,94.974967 962.95059302,93.52365300000001 956.57559302,92.02689000000001 950.11569302,90.50602 943.61049302,88.97761000000001 937.08469302,87.45426 930.54809302,85.94516000000002 923.99609302,84.45482000000001 917.41849302,82.97607 910.81029302,81.49779000000001 904.17349302,80.01013 897.51639302,78.50713 890.8463930199999,76.9942 884.16689302,75.47894000000001 877.47679302,73.96802000000001 870.7720930199999,72.46405000000001 864.05019302,70.96287000000001 857.31059302,69.45999 850.5551930199999,67.95145000000001 843.78759302,66.43659000000001 837.0126930199999,64.91795 830.2376930199999,63.39865 823.47159302,61.88241000000001 816.72249302,60.37375000000001 809.99359302,58.87655 803.2832930200001,57.39352000000001 796.58569302,55.925700000000006 789.89459302,54.47202000000001 783.20499302,53.03143000000001 776.51369302,51.60324000000001 769.81889302,50.18712000000001 763.12039302,48.78307000000001 756.41959302,47.39143000000001 749.71949302,46.01286000000001 743.0233930200001,44.64874000000001 736.33429302,43.300610000000006 729.6534930199999,41.96978000000001 722.98139302,40.657270000000004 716.31729302,39.36391000000001 709.6592930200001,38.09029000000001 703.00439302,36.8368 696.34879302,35.603350000000006 689.6891930200001,34.38908000000001 683.02329302,33.193190000000016 676.34989302,32.015150000000006 669.66919302,30.854600000000005 662.98219302,29.711400000000012 656.29129302,28.58559000000001 649.60009302,27.47745000000002 642.91229302,26.388200000000012 636.23119302,25.319500000000005 629.55859302,24.272800000000004 622.89579302,23.24936000000001 616.24259302,22.250270000000015 609.59839302,21.276470000000003 602.96119302,20.328760000000017 596.32849302,19.40758000000001 589.69779302,18.512740000000008 583.06709302,17.644050000000007 576.4349930200001,16.80143000000001 569.8002930199999,15.984850000000009 563.16259302,15.19438000000001 556.52179302,14.430150000000012 549.87829302,13.692340000000016 543.23279302,12.981180000000009 536.58589302,12.29692 529.93809302,11.63976000000001 523.28989302,11.009890000000013 516.6411930200001,10.40749000000001 509.99229302,9.832710000000006 503.34279302,9.285690000000017 496.69239302,8.766509999999997 490.04089302,8.275040000000004 483.38779302,7.811149999999998 476.73239302,7.374680000000012 470.07419302,6.965490000000003 463.41249302000006,6.5834600000000165 456.74649302,6.228459999999998 450.07529302,5.900380000000013 443.39829302,5.598990000000015 436.71519302,5.324010000000001 430.02629301999997,5.075180000000003 423.33289302,4.852240000000009 416.63659301999996,4.654960000000017 409.93979301999997,4.483069999999998 403.24559302,4.3363000000000085 396.55739302,4.214700000000008 389.87809302000005,4.119230000000016 383.20819302,4.05098000000001 376.54689301999997,4.010990000000007 369.89179302,4.0 363.24199302,4.018349999999998 356.59839302,4.066320000000005 349.96419302000004,4.144230000000007 343.34309301999997,4.253100000000003 336.73519302,4.3945500000000095 330.13679301999997,4.570310000000006 323.53999302,4.781930000000003 316.93619302,5.028670000000005 310.32059302000005,5.308750000000018 303.69329302,5.6202300000000065 297.05849302,5.961330000000018 290.42169302,6.331460000000007 283.78679302,6.730350000000001 277.15539302,7.157790000000006 270.52749302,7.613740000000007 263.90489302000003,8.09817000000001 257.29219302,8.610810000000015 250.69669302,9.151130000000009 244.12749302,9.720120000000009 237.59089302,10.320530000000005 231.08859302,10.955410000000015 224.61879302,11.627989999999997 218.17719302,12.340630000000004 211.76039302,13.095010000000002 205.36669302,13.892679999999999 198.99539302000002,14.735020000000006 192.64669302,15.622870000000006 186.32049302,16.55693000000001 180.01639302,17.537959999999998 173.73359302,18.56678000000001 167.47269302,19.643890000000013 161.23789302,20.76910000000001 155.03709302000001,21.941330000000008 148.88139302,23.159080000000003 142.78259302,24.423460000000006 136.74779302,25.73719 130.77949302000002,27.103650000000002 124.87579302,28.526840000000007 119.03409302,30.00979000000001 113.25609302000001,31.553810000000013 107.54769302000001,33.15876 101.91894302,34.822900000000004 96.38243302000001,36.54436000000001 90.94895302,38.32270000000001 85.62526302,40.15798000000001 80.41463302000001,42.05073000000001 75.31787302,44.00189 70.34021302000001,46.01106 65.49806302,48.072680000000005 60.815673020000006,50.17562000000001 56.32029302000001,52.30442000000001 52.037223020000006,54.44126000000001 47.98590302,56.57050000000001 44.17477302,58.68169 40.601463020000004,60.76796000000001 37.25936302,62.82345000000001 34.14882302,64.83676 31.273633020000002,66.79259000000002 28.633623019999998,68.67670000000001 26.223433019999998,70.48199 24.031793020000002,72.21399000000001 22.03973302,73.88215000000001 20.22529302,75.49193000000001 18.56888302,77.04224 17.05488302,78.53129000000001 15.670223019999998,79.95833 14.40697302,81.32878000000001 13.25904402,82.65043 12.219276019999999,83.92925000000001 11.281025020000001,85.16722000000001 10.43720102,86.36566 9.680107020000001,87.52773 9.00246602,88.65740000000001 8.394597019999999,89.75894000000001 7.839524020000001,90.8349 7.32333302,91.88396 6.83587802,92.902388 6.36999002,93.88570100000001 5.92874902,94.829671 5.52316802,95.733107 5.15996302,96.598335 4.84276752,97.429347 4.57359722,98.23072 4.35379372,99.007101 4.18461292,99.763017 4.06762603,100.502848 4.00503692,101.230906 4.0,101.951564 4.057013529,102.66946236000001 4.18030052,103.38914030000001 4.36905882,104.11319700000001 4.62260442,104.843101 4.94140782,105.57940900000001 5.32670202,106.321466 5.77995502,107.066865 6.302008020000001,107.810586 6.89176702,108.54432500000001 7.546729020000001,109.264975 8.263831020000001,109.97779500000001 9.03881102,110.691483 9.86831702,111.41614600000001 10.75585802,112.15356600000001 11.70733302,112.9025 12.72932702,113.66099000000001 13.828893019999999,114.42682 15.012643019999999,115.20086 16.286873019999998,115.98534000000001 17.657563019999998,116.78226000000001 19.13290302,117.58872000000001 20.72379302,118.39863000000001 22.444613020000002,119.2047 24.315593019999998,120.00015 26.36006302,120.79010000000001 28.60008302,121.58802 31.05248302,122.40998 33.73265302,123.25778000000001 36.653913020000005,124.12346000000001 39.82425302,124.99597 43.260493020000006,125.86546000000001 47.00134302,126.73139 51.09149302,127.60136 55.559853020000006,128.48446 60.39721302,129.38115 65.55743302,130.276 70.97121302,131.15203000000002 76.56991302000002,131.99662 82.31420302000001,132.80498 88.20184302000001,133.57877000000002 94.23547302,134.3205 100.40889302000001,135.03231 106.70399302,135.71597000000003 113.09169302,136.3711 119.54269302,136.99559 126.03339302,137.58849 132.54809302,138.14993 139.07829302000002,138.67943 145.62049302,139.17556000000002 152.17499302,139.63718 158.74589301999998,140.06357000000003 165.33899302,140.45631 171.95849302000002,140.81804 178.60569302,141.15131000000002 185.27939302000001,141.45843000000002 191.97689302,141.74114 198.69499302,142.00106 205.43079301999998,142.23988000000003 212.18109302000002,142.45897000000002 218.94349302,142.65890000000002 225.71699302,142.84019 232.50179302,143.0034 239.29899302,143.14947 246.10949302,143.27962000000002 252.93409301999998,143.39508 259.77299302,143.49711000000002 266.62559302,143.58696 273.49069302,143.66590000000002 280.36619301999997,143.73521 287.24909302,143.796 294.13689302,143.84895 301.02749302,143.89469000000003 307.91999302,143.93385 314.81249302000003,143.96656000000002 321.69799302,143.99256000000003 328.56349301999995,144.01157 335.39059302,144.02231 342.16449302,144.01848 348.88289302000004,143.99253 355.55559302,143.93723 362.20149302,143.84792000000002 368.84009302000004,143.72500000000002 375.48539302,143.5693 382.14699301999997,143.38153 388.82979302,143.16341 395.53539302,142.91784 402.26239302,142.64796 409.00589302,142.35689000000002 415.75909302,142.04581000000002 422.51629302,141.71476 429.27309302,141.36374 436.02699302,140.99273 442.77699302,140.60164 449.52379301999997,140.19027 456.26949302,139.75833 463.01779302,139.30585000000002 469.77209302,138.83351 476.53489302,138.34205 483.30789302,137.83232 490.09169302,137.3052 496.88599302,136.76166 503.68939301999995,136.20277000000002 510.49959301999996,135.62959 517.31409302,135.04261 524.13069302,134.44214 530.9480930200001,133.82843 537.7656930200001,133.20169 544.58329302,132.56205 551.40159302,131.9096 558.22209302,131.24438 565.04629302,130.56672 571.87609302,129.87727 578.71279302,129.17667 585.5573930200001,128.46561000000003 592.4106930199999,127.74483000000001 599.27299302,127.01507000000001 606.14459302,126.27715 613.02509302,125.53200000000001 619.91419302,124.78081 626.8110930199999,124.02480000000001 633.7149930200001,123.26521000000001 640.62459302,122.50336000000001 647.53849302,121.74056 654.4549930200001,120.97819000000001 661.37229302,120.21749000000001 668.2883930200001,119.45923 675.20169302,118.70405000000001 682.11069302,117.95256 689.01449302,117.20530000000001 695.91239302,116.46281 702.8037930200001,115.72558000000001 709.68859302,114.99413000000001 716.5665930199999,114.26938000000001 723.4373930200001,113.55247 730.2996930200001,112.84458000000001 737.15209302,112.14693600000001 743.99239302,111.460778 750.81819302,110.78737600000001 757.62629302,110.12802300000001 764.41409302,109.48434800000001 771.17999302,108.858147 777.92419302,108.25102100000001 784.6489930199999,107.66439100000001 791.35779302,107.099535 798.05599302,106.55761700000001 804.7502930200001,106.039736 811.44839302,105.54640900000001 818.15289302,105.07683 824.85669302,104.630531 831.5427930200001,104.20762500000001 838.18999302,103.811396 844.79119302,103.4482557 851.3603930200001,103.12356020000001 857.93079302,102.84142800000001 864.5429930199999,102.59751512000001 871.2145930199999,102.38170740000001 877.92889302,102.18444160000001 884.63409302,101.9989834 891.2728930200001,101.8343801 897.82399302,101.7042473 904.30239302,101.62039 910.75119302,101.587607 917.21289302,101.58833800000001 923.70519302,101.60033200000001 930.21849302,101.60092 936.71869302,101.578558 943.17229302,101.548635 949.56309302,101.52975 955.89199302,101.53931600000001 962.16679302,101.58646300000001 968.3675930200001,101.66695920000001 974.43499302,101.77436300000001 980.28559302,101.90111470000001 985.8378930199999,102.0401518 991.0437930200001,102.18686910000001 995.89319302,102.33777740000001 1000.39979302,102.49033480000001 1004.05129302,102.62265000000001" stroke="black" stroke-width="2.0" /></svg>