<?xml version="1.0" encoding="utf-8" ?>
<svg baseProfile="full" height="93.756365" version="1.1" width="1012.1726668" xmlns="http://www.w3.org/2000/svg" xmlns:ev="http://www.w3.org/2001/xml-events" xmlns:xlink="http://www.w3.org/1999/xlink"><defs /><polygon fill="none" points="1004.1726668,77.70632 1001.4382668,77.17942950000001 997.9796668,76.50826500000001 994.1271667999999,75.754464 989.8041668,74.900811 984.9413668000001,73.93070800000001 979.5222668,72.83730100000001 973.7246668,71.65393900000001 968.0143668000001,70.479055 962.3027668,69.30015300000001 956.4862668,68.101371 950.6490668,66.90573 944.8682668,65.73157 939.0908668000001,64.56834 933.2848668,63.41006 927.4401668,62.255160000000004 921.5658668,61.105250000000005 915.6766668,59.9615 909.7831668,58.82414000000001 903.8918668,57.692460000000004 898.0045668,56.56551 892.1209668,55.4438 886.2403668000001,54.32822 880.3617668,53.219660000000005 874.4846668,52.118950000000005 868.6082668,51.02628000000001 862.7314667999999,49.94156000000001 856.8528668,48.864610000000006 850.9707668,47.79520000000001 845.0834668,46.732760000000006 839.1909668,45.67669 833.2947667999999,44.62671 827.3985667999999,43.58285 821.5067667999999,42.54636000000001 815.6228668,41.51997000000001 809.7477668,40.50612 803.8800668,39.50685000000001 798.0166668,38.523300000000006 792.1537668,37.554750000000006 786.2885668,36.600210000000004 780.4188668,35.658840000000005 774.5432668,34.729940000000006 768.6609668,33.81293000000001 762.7720668000001,32.90735000000001 756.8771668,32.012840000000004 750.9779668,31.129180000000005 745.0761668,30.25670000000001 739.1734668,29.39612000000001 733.2710668000001,28.548080000000006 727.3698668,27.71319000000001 721.4699668000001,26.891960000000005 715.5715667999999,26.084860000000006 709.6740668,25.29227000000001 703.7765668,24.51456000000001 697.8777668,23.751850000000005 691.9764667999999,23.003700000000002 686.0718668000001,22.269600000000004 680.1632668,21.54909 674.2505668,20.84174000000001 668.3336668000001,20.147180000000006 662.4130667999999,19.465050000000005 656.4893668,18.795050000000003 650.5636668000001,18.136920000000003 644.6371668,17.490920000000003 638.7106668,16.857650000000007 632.7849668,16.23769 626.8604668,15.63157000000001 620.9374668,15.039820000000006 615.0157667999999,14.462919999999997 609.0953668000001,13.901330000000002 603.1754668,13.355490000000003 597.2555668,12.825690000000009 591.3348668,12.311820000000012 585.4128668,11.813750000000013 579.4892668,11.331390000000013 573.5636668,10.864630000000005 567.6359668,10.413390000000007 561.7062668,9.977599999999995 555.7745668,9.557200000000009 549.8411668,9.152140000000003 543.9064668000001,8.762470000000008 537.9707668000001,8.388270000000006 532.0342668000001,8.029620000000008 526.0971668,7.686580000000006 520.1596668,7.359220000000008 514.2218668,7.047610000000006 508.2836668,6.751810000000006 502.34526680000005,6.471869999999996 496.4064668,6.20778 490.4672668,5.959420000000009 484.52736680000004,5.72666000000001 478.5868668,5.509370000000004 472.6452668,5.307410000000004 466.70246679999997,5.120660000000015 460.75816679999997,4.948990000000009 454.81196680000005,4.792280000000005 448.8634668,4.650390000000002 442.9124668,4.523110000000003 436.9588668,4.410210000000006 431.0027668,4.311480000000003 425.0446668,4.226680000000002 419.0850668,4.155600000000007 413.1250668,4.097999999999999 407.16556679999997,4.053670000000011 401.2081668,4.022359999999992 395.25406680000003,4.004270000000005 389.30366680000003,4.0 383.3561668,4.010170000000002 377.4093668,4.035409999999999 371.4605668,4.075959999999995 365.5080668,4.131420000000006 359.5526668,4.201280000000011 353.5975668,4.285000000000011 347.6479668,4.382559999999998 341.7084668,4.495729999999995 335.7800668,4.626620000000003 329.86096679999997,4.777389999999997 323.9459668,4.949910000000017 318.02926679999996,5.1439900000000165 312.10756680000003,5.358649999999997 306.18006679999996,5.592830000000006 300.24886680000003,5.845420000000004 294.3175668,6.115800000000007 288.3880668,6.403800000000004 282.45966680000004,6.709350000000001 276.5297668,7.032489999999996 270.5941668,7.372640000000004 264.6503668,7.728260000000006 258.69906679999997,8.097610000000003 252.7439668,8.478710000000007 246.7916668,8.870640000000009 240.8480668,9.275019999999998 234.9169668,9.693880000000007 228.9990668,10.129370000000009 223.09326679999998,10.583740000000006 217.1976668,11.059070000000006 211.31166679999998,11.557330000000007 205.4357668,12.080349999999996 199.5716668,12.629930000000002 193.7215668,13.208330000000004 187.8870668,13.818080000000009 182.0686668,14.461770000000008 176.2660668,15.142040000000009 170.4785668,15.861290000000004 164.7053668,16.621550000000006 158.9467668,17.424780000000005 153.2029668,18.272900000000007 147.4748668,19.16759000000001 141.7631668,20.110290000000006 136.0677668,21.102520000000005 130.3875668,22.145970000000005 124.7208668,23.242480000000008 119.0663668,24.39342 113.4251668,25.599510000000002 107.8005668,26.86088000000001 102.19879680000001,28.176990000000004 96.62783680000001,29.54829000000001 91.0947768,30.977790000000006 85.6035468,32.46916000000001 80.15501680000001,34.02675000000001 74.7475368,35.65562 69.38073680000001,37.36076 64.0589968,39.14571 58.7913668,41.012150000000005 53.5910268,42.95955 48.4761268,44.987660000000005 43.4734568,47.100150000000006 38.6149468,49.29683000000001 33.9272768,51.58005 29.407656799999998,53.966590000000004 25.0350568,56.481350000000006 20.9024668,59.06846 17.1999968,61.611450000000005 13.9398918,64.10156 11.355850799999999,66.29138 9.543639800000001,68.05905200000001 8.1675378,69.6786 7.0081188,71.20824 6.0481418,72.490407 5.3211028,73.515707 4.7885324,74.370805 4.4086648,75.11437000000001 4.15684928,75.781182 4.021324,76.392964 4.0,76.9646266 4.10016947,77.50768210000001 4.3398655999999995,78.03247520000001 4.7300904,78.5478806 5.2795098,79.058643 6.0089118,79.56246 6.9416208,80.037287 8.1011118,80.45120800000001 9.5652098,80.86819600000001 11.4424238,81.423614 13.877401800000001,82.093759 17.094566800000003,82.800757 21.077846799999996,83.494544 25.4938468,84.02202600000001 30.6303068,84.41741300000001 36.3494968,84.761913 42.0438168,85.02057 47.6743268,85.197489 53.4448068,85.322981 59.393306800000005,85.421861 65.37980680000001,85.500133 71.3653168,85.56019500000001 77.3607768,85.60522300000001 83.3217468,85.638022 89.2729668,85.66154700000001 95.2364368,85.678363 101.22278680000001,85.69094100000001 107.22956680000001,85.701699 113.2337668,85.71185100000001 119.23586680000001,85.721474 125.2422668,85.730604 131.25226679999997,85.739258 137.2564668,85.747062 143.25546680000002,85.75308700000001 149.25086679999998,85.756365 155.24486679999998,85.755927 161.2395668,85.751214 167.2367668,85.742641 173.2368668,85.730765 179.23896680000001,85.71614600000001 185.2413668,85.69917500000001 191.2421668,85.679578 197.24056679999998,85.656917 203.2368668,85.63074900000001 209.2325668,85.600713 215.2293668,85.566968 221.2282668,85.529888 227.2290668,85.48985400000001 233.23056680000002,85.447221 239.23126680000001,85.40197900000001 245.2303668,85.35388400000001 251.22816680000003,85.30267900000001 257.22586679999995,85.24811600000001 263.22556679999997,85.19037700000001 269.2283668,85.130072 275.2342668,85.06784400000001 281.2419668,85.00434 287.2492668,84.93972600000001 293.2541668,84.873424 299.2556668,84.80478600000001 305.25366679999996,84.733158 311.2486668,84.65792400000001 317.24146679999996,84.578574 323.2323668,84.494618 329.2213668,84.405574 335.20796679999995,84.31093100000001 341.19156680000003,84.21005000000001 347.17206680000004,84.10226 353.1496668,83.98688200000001 359.1246668,83.86329400000001 365.0978668,83.731266 371.0702668,83.59072400000001 377.0429668,83.441586 383.01746679999997,83.283798 388.9948668,83.11784800000001 394.97616680000004,82.94460600000001 400.9612668,82.764973 406.9497668,82.579858 412.9403668,82.389759 418.93206680000003,82.194703 424.9239668,81.99469 430.91536679999996,81.789714 436.9057668,81.57976400000001 442.8949668,81.364823 448.8828668,81.144867 454.8696668,80.91986200000001 460.8558668,80.689806 466.8417668,80.454808 472.8277668,80.214994 478.8142668,79.970495 484.80136680000004,79.72144300000001 490.78916680000003,79.46797500000001 496.7778668,79.210229 502.7672668,78.94834900000001 508.7573668,78.68248240000001 514.7478668,78.4128039 520.7388668,78.1394966 526.7302668,77.8627414 532.7220668,77.58271640000001 538.7143668,77.299597 544.7072668,77.0135554 550.7010668,76.724761 556.6959668000001,76.43338100000001 562.6922668,76.13962000000001 568.6902667999999,75.843736 574.6899668,75.545997 580.6912668,75.246679 586.6939668,74.946066 592.6977668000001,74.64445 598.7019668,74.342132 604.7060668,74.03941900000001 610.7090668,73.736717 616.7103668,73.434707 622.7093668,73.13411400000001 628.7055667999999,72.83565200000001 634.6987667999999,72.540025 640.6887668,72.24792500000001 646.6757668,71.960035 652.6599668,71.677028 658.6416667999999,71.39953600000001 664.6214667999999,71.127932 670.5996668,70.862452 676.5767668,70.60333700000001 682.5529668,70.35083 688.5286668,70.105176 694.5040668,69.86662700000001 700.4793668,69.63543200000001 706.4546667999999,69.41185 712.4300668000001,69.196246 718.4054668,68.98914 724.3805668,68.791065 730.3549667999999,68.60256100000001 736.3278668,68.424166 742.2984668,68.25642300000001 748.2654668,68.099868 754.2278668,67.95503400000001 760.1839668,67.822528 766.1326667999999,67.70326 772.0736668,67.59821000000001 778.0070668000001,67.5083 783.9340668000001,67.43447 789.8564668,67.37764000000001 795.7768668,67.33877000000001 801.6984668,67.31881000000001 807.6253668,67.31872000000001 813.5610668,67.33838 819.5056668,67.37678 825.4544668,67.43283000000001 831.3982668,67.50536 837.3256668,67.59502 843.2307668000001,67.70506 849.1169668,67.839055 854.9962668000001,68.00079000000001 860.8882668,68.19220100000001 866.8085668,68.409236 872.7602668000001,68.64640200000001 878.7319668,68.89744200000001 884.6983667999999,69.157042 890.6339668,69.42856800000001 896.5295668,69.71856000000001 902.3929668,70.034113 908.2473668,70.38219000000001 914.1214668,70.75969500000001 920.0297668,71.156363 925.9666668,71.560226 931.9050668,71.957903 937.8073668000001,72.345253 943.6606668,72.730664 949.4872668,73.12504100000001 955.3429668,73.54165300000001 961.2918668,73.991416 967.1714668000001,74.45901 973.0002668,74.94089600000001 978.9086668000001,75.44359200000001 984.4877668,75.927993 989.4954668,76.370154 993.9339668,76.76788640000001 997.8734668000001,77.1255127 1001.3964668,77.44898160000001 1004.1726668,77.70632" stroke="black" stroke-width="2.0" /></svg>