<?xml version="1.0" encoding="utf-8" ?>
<svg baseProfile="full" height="142.71671999999998" version="1.1" width="1012.0757247" xmlns="http://www.w3.org/2000/svg" xmlns:ev="http://www.w3.org/2001/xml-events" xmlns:xlink="http://www.w3.org/1999/xlink"><defs /><polygon fill="none" points="1004.0757247,102.69933999999999 1000.7512247000001,101.95636359999999 996.6293247000001,101.02483699999999 992.1604247,100.001976 987.3106247000001,98.87664299999999 982.0613247,97.64065099999999 976.4277247,96.293482 970.4741247000001,94.84915099999999 964.2976247,93.334488 957.9980247,91.77951999999999 951.6493247000001,90.20929999999998 945.2872247,88.6395 938.9263247,87.08003 932.5694247,85.53778999999999 926.2077247,84.0166 919.8262247,82.51186999999999 913.4156247,81.01236999999999 906.9753247000001,79.50833999999999 900.5140247,77.99238 894.0443247000001,76.46632 887.5727247,74.93795 881.0981247,73.41351999999999 874.6120247000001,71.89705 868.1040247,70.38623999999999 861.5705247000001,68.87673999999998 855.0158247,67.36595 848.4525247,65.85373999999999 841.8951247,64.34456 835.3529247,62.843259999999994 828.8297247,61.35330999999999 822.3240247000001,59.87675999999999 815.8321247000001,58.41439 809.3498247,56.96677999999999 802.8731247000001,55.53452999999999 796.3982247,54.117799999999995 789.9219247000001,52.71583999999999 783.4419247000001,51.32798999999999 776.9570247,49.953759999999996 770.4667247000001,48.59289999999999 763.9714247,47.24531999999999 757.4724247,45.9111 750.9719247,44.59053999999999 744.4727247,43.28442999999999 737.9768247,41.99390999999999 731.4856247000001,40.71994999999999 724.9996247,39.46331999999999 718.5184247,38.22466999999999 712.0410247000001,37.004459999999995 705.5653247,35.803020000000004 699.0887247000001,34.620479999999986 692.6084247,33.456349999999986 686.1225247,32.30995 679.6298247000001,31.18079999999999 673.1301247000001,30.068569999999994 666.6241247,28.97309 660.1132247,27.894310000000004 653.5999247,26.83233 647.0874247,25.787629999999993 640.5786247,24.761529999999993 634.0759247000001,23.755399999999995 627.5807247,22.77042999999999 621.0935247,21.80767999999999 614.6142247,20.868079999999992 608.1420247,19.95242999999998 601.6751247000001,19.06143999999999 595.2114247000001,18.19542 588.7490247,17.35427 582.2863247,16.53794999999998 575.8223247,15.746459999999999 569.3562247,14.9799 562.8878247,14.238410000000002 556.4171247,13.522179999999992 549.9447247,12.831459999999993 543.4713247,12.166519999999991 536.9976247,11.527629999999988 530.5239247000001,10.915009999999995 524.0503247,10.328879999999984 517.5768247000001,9.769429999999986 511.1030247,9.236829999999998 504.62832470000006,8.731229999999996 498.1520247,8.252739999999989 491.67322470000005,7.801109999999994 485.1912247,7.376049999999992 478.7053247,6.977249999999998 472.2151247,6.604449999999986 465.72032470000005,6.257379999999998 459.22072470000006,5.935809999999989 452.7161247,5.639499999999998 446.2067247,5.368250000000003 439.6927247,5.121889999999993 433.17442470000003,4.900289999999998 426.6527247,4.703279999999992 420.12842470000004,4.530739999999994 413.60262470000004,4.38248999999999 407.0767247,4.258369999999985 400.55232470000004,4.158209999999983 394.0307247,4.082049999999995 387.51222470000005,4.030139999999989 380.9956247,4.002709999999993 374.4784247,4.0 367.95852470000005,4.021919999999994 361.43792470000005,4.068189999999987 354.92352470000003,4.138449999999992 348.4263247,4.232609999999994 341.9565247,4.353279999999998 335.5163247,4.504039999999989 329.09932470000007,4.688590000000005 322.69162470000003,4.909999999999997 316.2786247,5.167580000000001 309.85092470000006,5.459699999999984 303.4055247,5.784539999999993 296.9451247,6.140209999999982 290.4737247,6.525229999999993 283.9931247,6.9383299999999934 277.50202470000005,7.37836999999999 270.9975247,7.8441999999999865 264.4790247,8.334159999999983 257.95142469999996,8.84608999999999 251.4255247,9.377319999999983 244.9160247,9.927069999999986 238.4346247,10.49754999999999 231.9878247,11.091449999999995 225.5764247,11.711799999999982 219.1982247,12.36153999999999 212.8524247,13.043199999999999 206.5413247,13.75887999999999 200.26982470000002,14.510339999999985 194.0440247,15.30019999999999 187.86822469999998,16.132019999999983 181.7435247,17.009479999999982 175.6689247,17.936409999999995 169.6413247,18.91615999999999 163.65762469999999,19.951579999999993 157.7147247,21.045579999999987 151.8093247,22.201129999999992 145.9383247,23.42044 140.0998247,24.704489999999993 134.2927247,26.053979999999996 128.5176247,27.469379999999987 122.7761247,28.95106 117.07262469999999,30.499409999999997 111.4140247,32.113939999999985 105.8100247,33.79302999999999 100.27225469999999,35.53402 94.8126947,37.33557999999998 89.4391747,39.19835 84.15441469999999,41.12414 78.95692469999999,43.116009999999996 73.84291470000001,45.17797999999999 68.81648469999999,47.31112999999999 63.895504700000004,49.509919999999994 59.1084447,51.76190999999999 54.4894947,54.04872999999999 50.0729447,56.349749999999986 45.885004699999996,58.65292999999999 41.93417470000001,60.95372999999999 38.2167747,63.25055999999999 34.7349547,65.53351999999998 31.5025247,67.78126999999999 28.5323847,69.96893 25.828604699999996,72.07612999999999 23.384124699999997,74.09222 21.181924699999996,76.01335999999999 19.2023947,77.83838999999999 17.425684699999998,79.56770999999999 15.8313047,81.20401 14.399034700000001,82.75188 13.112079699999999,84.21399 11.9573827,85.59195 10.929625699999999,86.89165999999999 10.020930700000001,88.12473999999999 9.2204227,89.30411 8.5156367,90.44174 7.8836597,91.54522999999999 7.3043697000000005,92.61447 6.7644137,93.644928 6.2558807,94.630906 5.7863437,95.567703 5.3665227,96.455951 5.0010384000000005,97.30028599999999 4.6914487000000005,98.106658 4.4381267,98.88112199999999 4.2412807,99.62941 4.10152585,100.35686299999999 4.02026073,101.06851499999999 4.0,101.7692704 4.04477349,102.46413969999999 4.16014383,103.1583534 4.3476227000000005,103.85508999999999 4.6066297,104.55524899999999 4.9382649999999995,105.25849899999999 5.344980700000001,105.962886 5.8300567,106.664046 6.3966537,107.35394299999999 7.046040700000001,108.02076399999999 7.7760227,108.66506199999999 8.5809947,109.300041 9.4518177,109.94509799999999 10.3850257,110.61264899999999 11.388310700000002,111.29969799999999 12.4721837,112.00077499999999 13.6501267,112.70929999999998 14.9352747,113.42475999999999 16.3389247,114.15142999999999 17.8706647,114.89292999999999 19.5419347,115.64415 21.3686947,116.39466999999999 23.3753747,117.13228 25.601014699999997,117.85279 28.0922747,118.57225 30.8874647,119.31483999999999 34.0034447,120.08551999999999 37.4398947,120.86811999999999 41.188244700000006,121.64371 45.2668447,122.4001 49.7301647,123.14161999999999 54.6189747,123.87819999999999 59.9121947,124.61386999999999 65.5234847,125.33305999999999 71.34173469999999,126.01930999999999 77.27523469999998,126.66377 83.28790469999998,127.26692 89.39170469999999,127.83426 95.5985947,128.37088 101.9069947,128.88101 108.2985247,129.36795 114.7431247,129.83162 121.2148247,130.27060999999998 127.6965247,130.68451 134.1811247,131.07362 140.6683247,131.43786 147.15982469999997,131.77682 153.6585247,132.09013 160.1686247,132.37774 166.69372470000002,132.64112 173.23622469999998,132.88213 179.7964247,133.10258 186.3728247,133.30406 192.9634247,133.48769 199.5662247,133.65456999999998 206.1796247,133.80579999999998 212.8020247,133.94234 219.4328247,134.06489 226.07222470000002,134.17414 232.7216247,134.27082 239.3825247,134.35599 246.0550247,134.43095 252.7369247,134.49705 259.42392470000004,134.55543999999998 266.1108247,134.60601 272.7933247,134.64808 279.4684247,134.68101 286.13432470000004,134.70411 292.7903247,134.71636999999998 299.4367247,134.71671999999998 306.07492470000005,134.70412 312.7066247,134.67768999999998 319.33242470000005,134.63684999999998 325.9507247,134.58105999999998 332.5577247,134.50978999999998 339.14872470000006,134.42182 345.7234247,134.31520999999998 352.2860247,134.18794 358.8462247,134.03808999999998 365.4150247,133.86627 371.99952470000005,133.67451 378.60122470000005,133.465 385.2164247,133.23986 391.8392247,132.99993999999998 398.46492470000004,132.74563999999998 405.0907247,132.47734 411.71562470000003,132.19526 418.33942470000005,131.89936 424.9619247,131.58954 431.5833247,131.26572 438.2034247,130.9278 444.8223247,130.57569 451.4403247,130.20927 458.0576247,129.82844999999998 464.6745247,129.43325 471.2913247,129.02379 477.90832470000004,128.6002 484.5258247,128.16258 491.1441247,127.71105 497.76352470000006,127.24571999999999 504.38432470000004,126.76670999999999 511.0068247,126.27417 517.6313247,125.76840999999999 524.2581247,125.24978999999999 530.8874247,124.71862999999999 537.5198247,124.17528999999999 544.1553247,123.62011 550.7944247,123.05342999999999 557.4374247,122.47559999999999 564.0846247000001,121.88703999999998 570.7362247,121.28827999999999 577.3926247,120.67983999999998 584.0536247000001,120.06226999999998 590.7195247000001,119.43611999999999 597.3901247,118.80194999999999 604.0654247,118.16033999999999 610.7450247,117.51200999999999 617.4287247000001,116.85828 624.1162247,116.20062999999999 630.8068247,115.54056999999999 637.4999247000001,114.87961999999999 644.1946247000001,114.21932 650.8900247,113.56124 657.5847247,112.90692999999999 664.2775247,112.25746899999999 670.9674247,111.61347599999999 677.6533247,110.97552599999999 684.3346247000001,110.34416499999999 691.0108247000001,109.71991 697.6818247,109.103253 704.3477247000001,108.49465799999999 711.0088247,107.89466999999999 717.6650247,107.30419799999999 724.3159247,106.724274 730.9604247000001,106.15597199999999 737.5969247,105.60040199999999 744.2229247,105.058696 750.8358247000001,104.532006 757.4321247,104.021498 764.0086247,103.52862789999999 770.5635247000001,103.05500509999999 777.0973247,102.60205911 783.6124247,102.1710615 790.1131247000001,101.76316809999999 796.6058247000001,101.379464 803.0984247,101.02101099999999 809.6008247,100.688571 816.1192247,100.38105099999999 822.6496247,100.09703499999999 829.1762247,99.835473 835.6735247,99.596904 842.1237247,99.38675099999999 848.5306247,99.21064899999999 854.9199247,99.07367099999999 861.3343247,98.97748499999999 867.8073247000001,98.91470199999999 874.3411247,98.876606 880.9013247,98.85417199999999 887.4241247000001,98.84553999999999 893.8644247,98.86183899999999 900.2178247,98.91447699999999 906.5154246999999,99.014192 912.8101247000001,99.15965299999999 919.1414247,99.332837 925.5200247,99.513623 931.9245247,99.68081799999999 938.3105247000001,99.829803 944.6457247000001,99.97637099999999 950.9236247,100.13733699999999 957.1606247000001,100.32890599999999 963.3769247,100.55713499999999 969.5452247,100.81616299999999 975.5804247,101.09652 981.3642247,101.38616699999999 986.7911247000001,101.674534 991.8119247,101.95553159999999 996.4284247,102.22595879999999 1000.6698247,102.48459039999999 1004.0757247,102.69933999999999" stroke="black" stroke-width="2.0" /></svg>