<?xml version="1.0" encoding="utf-8" ?>
<svg baseProfile="full" height="152.28513" version="1.1" width="1012.2944836" xmlns="http://www.w3.org/2000/svg" xmlns:ev="http://www.w3.org/2001/xml-events" xmlns:xlink="http://www.w3.org/1999/xlink"><defs /><polygon fill="none" points="1004.2944836,107.64710000000001 1000.8475836,106.89501480000001 996.6942836000001,105.97695200000001 992.3349836,104.99939800000001 987.7541836,103.95673300000001 982.9370836,102.84317100000001 977.8709836,101.65306000000001 972.5471836,100.381387 966.9638836,99.02452400000001 961.1296836,97.58122 955.0670836,96.05379 948.8152836,94.45005 942.4239835999999,92.78761000000002 935.9444836,91.08831 929.4225836,89.37387000000001 922.8934836000001,87.66374000000002 916.3788836000001,85.97386 909.8863836,84.31614 903.4100836,82.69871 896.9329836000001,81.12238 890.4382836000001,79.57602 883.9129836,78.04768000000001 877.3481836000001,76.52631000000001 870.7384836,75.00158000000002 864.0831836,73.46381000000001 857.3859836,71.90402 850.6555836,70.31449 843.9029836,68.69645 837.1366836,67.05861000000002 830.3631836000001,65.40966 823.5872836000001,63.75793000000001 816.8111836,62.11124000000001 810.0353836,60.47688000000001 803.2579836000001,58.861610000000006 796.4756836,57.26982 789.6857836,55.70091000000001 782.8857836,54.15368000000001 776.0739836,52.62698000000001 769.2485836,51.119800000000005 762.4083836000001,49.63120000000001 755.5522836,48.160320000000006 748.6797836000001,46.706390000000006 741.7906836000001,45.268730000000005 734.8850836,43.84671000000001 727.9633835999999,42.43977000000001 721.0264836000001,41.047430000000006 714.0758836,39.669280000000015 707.1130836,38.30494 700.1401836,36.9542 693.1595836,35.61776000000002 686.1733836,34.29707000000002 679.1838836000001,32.993610000000004 672.1935836,31.70881 665.2048836,30.444119999999998 658.2202836,29.200950000000006 651.2424836,27.980670000000018 644.2738836,26.78464000000001 637.3172836,25.614160000000012 630.3752836,24.470490000000012 623.4504836000001,23.354820000000018 616.5456836000001,22.268310000000014 609.6633836,21.212030000000013 602.8062836,20.187000000000012 595.9766836000001,19.194190000000006 589.1766836,18.234530000000007 582.4069836000001,17.30874 575.6669836,16.417360000000002 568.9554836,15.560790000000011 562.2698836000001,14.739300000000014 555.6070836000001,13.953090000000017 548.9627836000001,13.202300000000008 542.3318836000001,12.487060000000014 535.7086836,11.807500000000019 529.0864836000001,11.163790000000006 522.4573836000001,10.556160000000006 515.8128836000001,9.984920000000002 509.14318360000004,9.450510000000008 502.4368836,8.953540000000004 495.6817836,8.493490000000008 488.8662836,8.067850000000021 481.9812836,7.674060000000011 475.0197836,7.309700000000021 467.9777836,6.972600000000014 460.8546836,6.660200000000003 453.6539836,6.370400000000018 446.3839836,6.1007000000000176 439.08328359999996,5.849300000000014 431.8125836,5.6148000000000025 424.55338359999996,5.392800000000008 417.2787836,5.17880000000001 409.9776836,4.969200000000001 402.7446836,4.762900000000016 395.6269836,4.562400000000011 388.64528359999997,4.378600000000006 381.80358359999997,4.222100000000012 375.09298359999997,4.101700000000008 368.49498359999996,4.025200000000012 361.9841836,4.0 355.52848359999996,4.033299999999997 349.09008359999996,4.132199999999997 342.62968359999996,4.294200000000018 336.1143836,4.513700000000014 329.51808359999995,4.785200000000003 322.8217836,5.103500000000011 316.0147836,5.46220000000001 309.09728359999997,5.85390000000001 302.0829836,6.269600000000011 294.9995836,6.703000000000017 287.87998359999995,7.153800000000018 280.75638359999994,7.622500000000002 273.6585836,8.109400000000008 266.6125836,8.614640000000009 259.6401836,9.138290000000012 252.7584836,9.680390000000017 245.9799836,10.242760000000004 239.3107836,10.830970000000008 232.7491836,11.450990000000004 226.2871836,12.108890000000017 219.91198359999999,12.810960000000009 213.60638360000002,13.563970000000012 207.3496836,14.375500000000017 201.1173836,15.254050000000007 194.8824836,16.203900000000004 188.62198360000002,17.22426 182.3196836,18.31370000000001 175.9663836,19.469880000000003 169.5606836,20.688980000000015 163.1100836,21.96506000000001 156.6322836,23.289620000000014 150.15518360000002,24.652 143.7147836,26.04847000000001 137.3460836,27.48084 131.0796836,28.950580000000002 124.94008360000001,30.45862000000001 118.9461836,32.00547 113.1110836,33.59125 107.4428836,35.21579000000001 101.94559360000001,36.87865000000001 96.62158360000001,38.57912 91.4711836,40.316680000000005 86.4909336,42.09147 81.67478360000001,43.9042 77.0151336,45.75612000000001 72.5035136,47.64891000000001 68.1310936,49.58468000000001 63.889033600000005,51.56593000000001 59.7686336,53.59557000000001 55.7614936,55.676930000000006 51.859593600000004,57.813520000000004 48.061553599999996,60.00278000000001 44.3882736,62.226200000000006 40.878933599999996,64.45077 37.5766336,66.63626000000001 34.5142636,68.74501000000001 31.7064136,70.74961000000002 29.1495536,72.63556 26.829933599999997,74.40077000000001 24.7315236,76.05555000000001 22.8315636,77.61492000000001 21.1061436,79.09368 19.5336336,80.50478000000001 18.0954336,81.85917 16.7757736,83.16611 15.560313599999999,84.43417000000001 14.4341536,85.67206000000002 13.3864366,86.88453000000001 12.409423599999998,88.07318000000001 11.497067600000001,89.23778000000001 10.6441846,90.37729000000002 9.8460286,91.49047 9.0981436,92.57625000000002 8.3998126,93.63226 7.7548826,94.65516000000001 7.1647896,95.64422 6.6291716,96.60042000000001 6.1468026,97.52564000000001 5.7161436,98.42214500000001 5.3356536,99.29229400000001 5.0039608,100.138433 4.7199576,100.96281300000001 4.4828569,101.76756400000001 4.292225743,102.55470100000001 4.1480166,103.32613200000002 4.0506,104.08368100000001 4.0008089,104.82911600000001 4.0,105.564176 4.0501404,106.290615 4.153933,107.01024350000002 4.31499401,107.72498730000001 4.5364463,108.43698750000001 4.8177516,109.148491 5.1582842,109.86153 5.5580226,110.577904 6.0174106,111.29917400000001 6.537190600000001,112.02660800000001 7.1181666,112.76106600000001 7.760829599999999,113.50278700000001 8.4647596,114.25104800000001 9.227668600000001,115.003628 10.0455596,115.75667000000001 10.9193046,116.50739300000001 11.8517106,117.25368900000001 12.8454886,117.99363000000001 13.9034336,118.72574 15.0287836,119.44927000000001 16.225813600000002,120.16461000000001 17.5008736,120.87367 18.8624336,121.57846 20.3203836,122.28019 21.8863436,122.98026000000002 23.5738736,123.68034 25.3986036,124.38245 27.3782536,125.0891 29.5315636,125.80327000000001 31.877843600000002,126.52716000000001 34.4411036,127.25933 37.2463936,127.99663000000001 40.316553600000006,128.73464 43.6695036,129.46805 47.3162236,130.19165 51.2602436,130.90200000000002 55.5030636,131.59998000000002 60.0564736,132.28867000000002 64.9375836,132.96623 70.15500360000001,133.63034000000002 75.70298360000001,134.27945 81.55699360000001,134.91357000000002 87.67226360000001,135.53511 93.98728360000001,136.14958000000001 100.43205360000002,136.76567 106.9390836,137.39453 113.45338360000001,138.03569000000002 119.93538360000001,138.67260000000002 126.35948360000002,139.28932 132.7138836,139.87212 138.9990836,140.40931 145.22628360000002,140.89083 151.4152836,141.30754000000002 157.5949836,141.65105 163.79838360000002,141.92439000000002 170.0544836,142.14052 176.38628359999998,142.31214 182.81028360000002,142.45208000000002 189.3355836,142.57384000000002 195.9621836,142.69201 202.6781836,142.82232000000002 209.45848360000002,142.97941 216.2710836,143.16124000000002 223.08928360000002,143.35698000000002 229.8944836,143.5557 236.6768836,143.74678 243.4352836,143.92006 250.17648359999998,144.06575 256.9154836,144.1744 263.6728836,144.24316000000002 270.4683836,144.27795 277.3178836,144.28513 284.2332836,144.27117 291.22228359999997,144.24279 298.2876836,144.20714 305.4262836,144.17188000000002 312.6286836,144.14272 319.8813836,144.11938 327.1680836,144.10058 334.46978359999997,144.08496000000002 341.7654836,144.07109000000003 349.0328836,144.05755 356.2486836,144.04293 363.39078359999996,144.02354000000003 370.4431836,143.99176 377.3985836,143.94017000000002 384.2575836,143.86194 391.0263836,143.75076 397.71668359999995,143.60059 404.3440836,143.40545 410.9280836,143.16088000000002 417.48858359999997,142.86885 424.0430836,142.53253 430.60728359999996,142.15472 437.1946836,141.73799000000002 443.8174836,141.28480000000002 450.4861836,140.79761000000002 457.2098836,140.27894 463.9959836,139.73151000000001 470.8499836,139.15832 477.77538359999994,138.56273000000002 484.77308359999995,137.94854 491.8410836,137.32009 498.9740836,136.68232 506.1628836,136.04071000000002 513.3949835999999,135.39918 520.6562836,134.75771 527.9339836,134.1157 535.2163836,133.4724 542.4930836,132.82696 549.7555836,132.17836 556.9967836,131.52551 564.2116836,130.86718000000002 571.3964836,130.20207 578.5493836,129.52878 585.6696836,128.84582 592.7585836000001,128.1516 599.8180836,127.44444000000001 606.8517836,126.72256000000002 613.8642836000001,125.98571000000001 620.8602836000001,125.23585000000001 627.8441836000001,124.47511000000002 634.8198836,123.70561000000001 641.7906836,122.92948000000001 648.7598836,122.14887000000002 655.7301836,121.36597 662.7039836,120.58298 669.6832836,119.80218 676.6698835999999,119.02588 683.6650836000001,118.25646 690.6699836,117.49634400000001 697.6851836000001,116.74803200000001 704.7108836000001,116.01407400000001 711.7471836000001,115.29663400000001 718.7932836,114.59641900000001 725.8483836,113.913846 732.9109836,113.24935300000001 739.9797836,112.60339400000001 747.0527836,111.976431 754.1279836000001,111.36893300000001 761.2026836000001,110.78137000000001 768.2743836000001,110.214205 775.3400836000001,109.66789000000001 782.3963836,109.14286100000001 789.4398836,108.63953110000001 796.4669835999999,108.15828150000002 803.4736836,107.69946007000001 810.4561836,107.26362150000001 817.4109836,106.8526463 824.3367836,106.46873500000001 831.2335836000001,106.11392000000001 838.1033836,105.79010400000001 844.9494836000001,105.49910100000001 851.7766836,105.242692 858.5911836,105.02250000000001 865.3999836,104.83799300000001 872.2094836,104.68720400000001 879.0251836,104.568274 885.8519836,104.479449 892.6940836,104.41905600000001 899.5548836,104.385473 906.4371836,104.377121 913.3414836000001,104.39369800000001 920.2591836,104.436935 927.1692836000001,104.50848900000001 934.0382836,104.60945500000001 940.8229836,104.74008400000001 947.4745836,104.899583 953.9438836,105.08608000000001 960.1873836000001,105.29659900000001 966.1741836,105.52689500000001 971.8891836,105.77271400000001 977.3295836000001,106.030314 982.5015836,106.29654900000001 987.4168836,106.56886000000002 992.0902836,106.84521160000001 996.5379836,107.1240104 1000.7762836,107.404024 1004.2944836,107.64710000000001" stroke="black" stroke-width="2.0" /></svg>