<?xml version="1.0" encoding="utf-8" ?>
<svg baseProfile="full" height="312.7543" version="1.1" width="1012.0000009563767" xmlns="http://www.w3.org/2000/svg" xmlns:ev="http://www.w3.org/2001/xml-events" xmlns:xlink="http://www.w3.org/1999/xlink"><defs /><polygon fill="none" points="1004.0000009563767,163.0214 998.2836009563767,159.04901999999998 991.9248009563767,154.89534 985.7036009563767,151.06144999999998 979.5917009563766,147.44862 973.5894009563767,144.02051 967.6869009563767,140.75254999999999 961.8915009563766,137.61768 956.2263009563766,134.6087 950.7079009563766,131.73149999999998 945.3428009563767,128.98887 940.1261009563766,126.37476 935.0679009563765,123.86273 930.2007009563766,121.4435 925.4991009563767,119.19117 920.8788009563766,117.16252 916.3094009563767,115.23075 911.8076009563767,113.18811 907.3225009563766,110.99192 902.7240009563766,108.76920999999999 897.8957009563766,106.59980999999999 892.7766009563767,104.44405 887.3278009563767,102.24897 881.5534009563767,99.9647 875.5076009563767,97.58532 869.2394009563767,95.15177999999999 862.7613009563767,92.69828 856.0353009563767,90.23404000000001 849.0111009563767,87.74316999999999 841.6579009563766,85.21361999999999 833.9743009563767,82.6458 825.9643009563766,80.047 817.6168009563767,77.41919999999999 808.9085009563767,74.7583 799.8243009563766,72.0607 790.3618009563767,69.32759999999999 780.5170009563767,66.56129999999999 770.2796009563766,63.759 759.6602009563767,60.917100000000005 748.7026009563766,58.045100000000005 737.4505009563767,55.160099999999986 725.9360009563767,52.27340000000001 714.2015009563767,49.395099999999985 702.3075009563767,46.53849999999997 690.3275009563766,43.7218 678.3173009563767,40.967299999999994 666.3042009563767,38.286899999999974 654.3112009563766,35.6866 642.3686009563766,33.17239999999998 630.5148009563767,30.7526 618.7806009563767,28.436799999999977 607.1795009563766,26.230799999999988 595.7101009563767,24.13669999999999 584.3674009563766,22.1541 573.1573009563766,20.284899999999993 562.0785009563767,18.53540000000001 551.1060009563766,16.90780000000001 540.2066009563766,15.39840000000001 529.3487009563767,14.002199999999988 518.5067009563767,12.713699999999989 507.6621009563766,11.528500000000008 496.80290095637656,10.44380000000001 485.92130095637657,9.455899999999986 475.01030095637657,8.559599999999989 464.0748009563766,7.746700000000004 453.1464009563766,7.010700000000014 442.2683009563766,6.351300000000009 431.4791009563766,5.7697 420.81470095637656,5.268000000000001 410.3104009563766,4.8476 399.9995009563766,4.508800000000008 389.9093009563766,4.253000000000014 380.0532009563766,4.08359999999999 370.4330009563766,4.000399999999985 361.05060095637657,4.0 351.9109009563766,4.076499999999982 343.0197009563766,4.220499999999987 334.3839009563766,4.423599999999993 326.01410095637664,4.6795999999999935 317.9245009563766,4.982400000000013 310.1297009563766,5.325799999999987 302.6415009563766,5.703399999999988 295.4679009563766,6.108599999999996 288.6140009563766,6.534300000000002 282.0822009563766,6.973800000000011 275.86950095637656,7.423299999999983 269.9635009563766,7.882499999999993 264.3437009563766,8.35159999999999 258.9867009563766,8.8296 253.8742009563766,9.309699999999992 248.9972009563766,9.783999999999992 244.3516009563766,10.246100000000013 239.9347009563766,10.6935 235.7401009563766,11.137099999999975 231.7537009563766,11.588999999999999 227.9572009563766,12.05880000000002 224.3315009563766,12.553599999999989 220.8573009563766,13.07480000000001 217.5144009563766,13.6019 214.2852009563766,14.111400000000003 211.1558009563766,14.584299999999985 208.1148009563766,15.005099999999999 205.15260095637657,15.360899999999987 202.2615009563766,15.642899999999997 199.43870095637658,15.867999999999995 196.6827009563766,16.06820000000002 193.98980095637657,16.271900000000016 191.3555009563766,16.504099999999994 188.7738009563766,16.787499999999994 186.23840095637658,17.143400000000014 183.7423009563766,17.593099999999993 181.27610095637658,18.149399999999986 178.8262009563766,18.799800000000005 176.3799009563766,19.527799999999985 173.9257009563766,20.316900000000004 171.4537009563766,21.15010000000001 168.95510095637658,22.00890000000001 166.42250095637658,22.872900000000016 163.84980095637658,23.71950000000001 161.2347009563766,24.5308 158.58100095637658,25.312000000000012 155.8936009563766,26.073999999999984 153.1770009563766,26.82929999999999 150.43520095637658,27.5908 147.6719009563766,28.372900000000016 144.8897009563766,29.190799999999996 142.0903009563766,30.060000000000002 139.27270095637658,30.986099999999993 136.4346009563766,31.967799999999983 133.57470095637657,33.0034 130.69300095637658,34.09019999999998 127.7906009563766,35.2251 124.8703009563766,36.403699999999986 121.93640095637659,37.62099999999998 118.9957009563766,38.875 116.05470095637659,40.166 113.1194009563766,41.494200000000006 110.19450095637659,42.860600000000005 107.2837009563766,44.2663 104.3893009563766,45.71289999999999 101.5125909563766,47.202200000000005 98.6536609563766,48.73320000000001 95.8132409563766,50.30370000000002 92.9932809563766,51.91040000000001 90.1972809563766,53.55080000000001 87.4293109563766,55.2244 84.6926509563766,56.93090000000001 81.9896609563766,58.6704 79.3215909563766,60.44189999999999 76.6895309563766,62.2436 74.09480095637659,64.0735 71.53903095637659,65.9295 69.0243109563766,67.81 66.55255095637659,69.714 64.1253009563766,71.6404 61.7438209563766,73.5883 59.4092309563766,75.5566 57.122500956376605,77.54459999999999 54.8844209563766,79.5511 52.69567095637661,81.5752 50.55676095637661,83.61610999999999 48.4680609563766,85.67258 46.4298609563766,87.74363 44.4423709563766,89.82825 42.505690956376604,91.92548 40.619930956376606,94.03429 38.785150956376604,96.15368 37.0013409563766,98.28267000000001 35.2684409563766,100.42031999999999 33.5863009563766,102.56576 31.9547609563766,104.71815 30.373630956376598,106.87664 28.842660956376598,109.04044 27.3616109563766,111.20877999999999 25.9301609563766,113.38094 24.5479809563766,115.55621 23.2147109563766,117.73393 21.9300809563766,119.91326 20.6938609563766,122.09325 19.5058109563766,124.27302 18.365620956376603,126.45175 17.2729709563766,128.62869 16.2275209563766,130.80312 15.228890956376599,132.97439 14.2767009563766,135.14189 13.3705079563766,137.30506 12.509552956376599,139.46337 11.6929029563766,141.61626 10.9197159563766,143.76316 10.1896029563766,145.90344 9.5023689563766,148.03652 8.8577899563766,150.16188 8.2555889563766,152.27901 7.6954199563766,154.38736 7.1769119563766,156.48646 6.6996519563766,158.57587999999998 6.2628259563766004,160.65517 5.8653969563766,162.72375 5.5068209563766,164.78091 5.1871729563766,166.82617 4.9065033563766,168.85944 4.6645193563766,170.88078 4.4605610563766,172.889234 4.2941849563766,174.88262699999999 4.1652077563766,176.859408 4.0733405763766,178.819896 4.0183061763766,180.766123 4.0,182.70164517999999 4.0185933263766,184.631284 4.0744825763766,186.559573 4.1683445563766,188.4895 4.3010390563766,190.422452 4.4734574563766,192.35819 4.6863830563766005,194.29489 4.9405872563766,196.2304 5.2369129563765995,198.16375 5.5759219563766,200.09458 5.9580249563766,202.02231 6.3836169563766,203.94622999999999 6.8530119563766,205.86569 7.3665249563766,207.78019 7.9243979563766,209.68914999999998 8.5268419563766,211.59196 9.1741079563766,213.48796 9.8664029563766,215.37653 10.6037979563766,217.25709 11.3863789563766,219.12902 12.214307956376599,220.99171 13.0880749563766,222.84471 14.0083609563766,224.68768 14.975780956376598,226.5203 15.990480956376599,228.34226 17.052520956376597,230.1532 18.1619809563766,231.9527 19.3189709563766,233.7403 20.5236409563766,235.51547 21.7761609563766,237.27764 23.0767309563766,239.02614 24.425560956376597,240.76026 25.8229209563766,242.47952 27.2691009563766,244.18389 28.7644109563766,245.87333 30.3091609563766,247.54775999999998 31.903650956376598,249.20704 33.548200956376604,250.851 35.2430709563766,252.47939 36.98878095637661,254.09188 38.7859509563766,255.68812 40.6352509563766,257.26770999999997 42.53738095637661,258.83026 44.493110956376604,260.3753 46.5032409563766,261.90255 48.5686009563766,263.41201 50.689990956376604,264.90364999999997 52.8681709563766,266.37742 55.103830956376605,267.83322 57.39780095637661,269.27088 59.751040956376606,270.69024 62.1644909563766,272.09111 64.63901095637661,273.47325 67.1755709563766,274.83623 69.77545095637659,276.17931999999996 72.44003095637659,277.50169 75.1707209563766,278.80252 77.9689909563766,280.08106 80.8364209563766,281.33677 83.7746609563766,282.56909 86.7854509563766,283.7776 89.8703009563766,284.9627 93.0300409563766,286.1246 96.2647509563766,287.2635 99.5749809563766,288.3769 102.9628509563766,289.4609 106.43210095637659,290.51210000000003 109.98690095637659,291.5296 113.63090095637659,292.5137 117.36640095637661,293.46479999999997 121.19410095637659,294.3826 125.1127009563766,295.2671 129.11900095637662,296.116 133.2114009563766,296.92449999999997 137.3918009563766,297.6877 141.66620095637657,298.4011 146.0468009563766,299.0606 150.5496009563766,299.672 155.18450095637658,300.25260000000003 159.9479009563766,300.8215 164.81730095637658,301.3991 169.75130095637658,301.9885 174.7184009563766,302.5484 179.7170009563766,303.0331 184.7790009563766,303.3974 189.9712009563766,303.6184 195.36930095637658,303.7363 201.0406009563766,303.80920000000003 207.0326009563766,303.9097 213.35990095637658,304.0689 220.03630095637658,304.25350000000003 227.1042009563766,304.4148 234.64350095637658,304.52570000000003 242.7357009563766,304.6015 251.4154009563766,304.6651 260.6642009563766,304.7177 270.4712009563766,304.7488 280.8503009563766,304.7543 291.78180095637657,304.7357 303.1954009563766,304.68629999999996 315.0106009563766,304.5939 327.1536009563766,304.45 339.5613009563766,304.248 352.19330095637656,303.9808 365.0328009563766,303.6415 378.0698009563766,303.2244 391.2889009563766,302.7305 404.6696009563766,302.1613 418.2074009563766,301.5179 431.8914009563766,300.8061 445.6707009563766,300.0353 459.4558009563766,299.2143 473.17150095637663,298.3396 486.79060095637664,297.4036 500.3149009563766,296.3988 513.7480009563766,295.3218 527.0932009563767,294.169 540.3738009563766,292.9344 553.6351009563767,291.6099 566.9293009563767,290.1912 580.2880009563767,288.6775 593.7418009563767,287.06579999999997 607.3253009563766,285.3553 621.0609009563767,283.5468 634.9659009563766,281.63967 649.0612009563766,279.63235 663.3706009563767,277.52549 677.9092009563766,275.32621 692.6478009563767,273.05384 707.5024009563766,270.73100999999997 722.3925009563767,268.37413000000004 737.2177009563766,266.00313 751.8367009563767,263.64456 766.1075009563767,261.31505 779.9581009563766,259.01295 793.3563009563767,256.73311 806.2946009563766,254.46285 818.8096009563767,252.18374 830.9544009563766,249.88173999999998 842.7743009563766,247.54874 854.2931009563766,245.18254 865.5349009563766,242.77702 876.5420009563767,240.32470999999998 887.3261009563766,237.83445 897.8566009563766,235.31664999999998 908.1415009563767,232.75896 918.2156009563766,230.17104999999998 928.0331009563768,227.57062 937.6088009563766,224.94081 946.9382009563766,222.30211 956.0009009563767,219.66119 964.7949009563766,217.01952 973.3041009563766,214.38188 981.5354009563767,211.71607 989.5267009563767,208.98916 997.3203009563767,206.13995 1004.0000009563767,203.5114" stroke="black" stroke-width="2.0" /></svg>