<?xml version="1.0" encoding="utf-8" ?>
<svg baseProfile="full" height="216.83436" version="1.1" width="1011.998915639" xmlns="http://www.w3.org/2000/svg" xmlns:ev="http://www.w3.org/2001/xml-events" xmlns:xlink="http://www.w3.org/1999/xlink"><defs /><polygon fill="none" points="1003.998915639,131.4484 999.7694156389999,129.03769 994.790415639,126.28706999999999 989.697815639,123.56916999999999 984.486115639,120.88447 979.1489156389999,118.23357999999999 973.6766156389999,115.61715 968.055115639,113.03098 962.276915639,110.46025 956.342815639,107.89390999999999 950.2549156389999,105.32744 944.016115639,102.75541 937.6350156389999,100.17273999999999 931.128415639,97.57781 924.517215639,94.98006999999998 917.8117156389999,92.39515999999999 911.020815639,89.82992999999999 904.155615639,87.29547 897.217215639,84.80474999999998 890.202615639,82.36010999999999 883.109915639,79.96179999999998 875.938215639,77.61052999999998 868.685415639,75.30720999999998 861.346715639,73.05211999999999 853.9154156389999,70.84382999999998 846.384715639,68.67936 838.748415639,66.55578 831.001515639,64.46963 823.140215639,62.417199999999994 815.162315639,60.3951 807.0670156389999,58.40042 798.854915639,56.43042999999999 790.528315639,54.48304999999999 782.091515639,52.556799999999996 773.550415639,50.65083 764.911515639,48.765219999999985 756.1804156389999,46.89975 747.364415639,45.053839999999994 738.475415639,43.22749999999999 729.528015639,41.42339999999999 720.535015639,39.645099999999985 711.506015639,37.895499999999984 702.447215639,36.17659999999999 693.3617156390001,34.48949999999999 684.253315639,32.83409999999999 675.128915639,31.211099999999988 665.997015639,29.621599999999987 656.866515639,28.067099999999982 647.744915639,26.550399999999996 638.6368156389999,25.07379999999999 629.5443156389999,23.638599999999983 620.4710156389999,22.2457 611.421815639,20.895899999999997 602.402915639,19.5903 593.421315639,18.331000000000003 584.4796156389999,17.121999999999986 575.574415639,15.966399999999993 566.701415639,14.864199999999983 557.860115639,13.815699999999993 549.050515639,12.822899999999976 540.265915639,11.888100000000009 531.494415639,11.011099999999999 522.7269156389999,10.189099999999996 513.959115639,9.419999999999987 505.1918156390001,8.702199999999976 496.43021563900004,8.034899999999993 487.678515639,7.420399999999972 478.932315639,6.8613 470.182815639,6.355799999999988 461.428315639,5.899099999999976 452.67481563900003,5.488799999999998 443.92991563900006,5.125699999999995 435.199815639,4.8108 426.48861563900005,4.545600000000007 417.798415639,4.331299999999999 409.128715639,4.169299999999993 400.476715639,4.060699999999997 391.839015639,4.0049999999999955 383.216015639,4.0 374.61341563900004,4.043899999999979 366.037115639,4.138299999999987 357.488115639,4.284699999999987 348.965615639,4.481499999999983 340.47141563900004,4.725200000000001 332.010215639,5.013299999999987 323.590515639,5.343999999999994 315.22361563900006,5.715199999999982 306.92411563900004,6.124499999999983 298.708215639,6.569400000000002 290.592915639,7.048599999999993 282.59321563900005,7.5615999999999985 274.72121563900004,8.108400000000017 266.98661563900004,8.690699999999993 259.396615639,9.309499999999986 251.956515639,9.966099999999983 244.66991563899998,10.661599999999993 237.539315639,11.396600000000007 230.56591563899997,12.172199999999975 223.749315639,12.98939999999999 217.088115639,13.84869999999998 210.580215639,14.750199999999978 204.223815639,15.69380000000001 198.016915639,16.67909999999999 191.95751563899998,17.705799999999982 186.042715639,18.77369999999999 180.268815639,19.882199999999997 174.632515639,21.029799999999994 169.131215639,22.214299999999994 163.763515639,23.433199999999985 158.52861563899998,24.684099999999987 153.42581563899998,25.965799999999987 148.453515639,27.277599999999993 143.609615639,28.6186 138.891015639,29.987499999999983 134.29501563899998,31.382499999999993 129.819215639,32.8013 125.46151563900001,34.24159999999999 121.219915639,35.701199999999986 117.092915639,37.178200000000004 113.07921563900001,38.6712 109.17711563900001,40.1785 105.38481563900001,41.69869999999999 101.70053563900001,43.230299999999986 98.12213563899999,44.77195999999999 94.647295639,46.32289999999999 91.273245639,47.88217999999999 87.996905639,49.447869999999995 84.815545639,51.01753999999998 81.72694563900001,52.58892999999999 78.729745639,54.16136999999999 75.822475639,55.73514999999999 73.003175639,57.310599999999994 70.269325639,58.88753999999999 67.618205639,60.46494999999999 65.04724563900001,62.04172999999999 62.554055639000005,63.616839999999996 60.136505639000006,65.18941999999998 57.79262563900001,66.75885 55.520435639000006,68.32451999999999 53.317955639000004,69.88586 51.18340563900001,71.44252999999999 49.115255639000004,72.99441999999999 47.111915639,74.54151999999999 45.171735639000005,76.08382999999999 43.29302563900001,77.62137 41.474095639,79.15401999999999 39.713265639,80.68145999999999 38.00893563900001,82.20335 36.359545639000004,83.71938 34.763585639,85.22924999999998 33.219585639,86.73266 31.726315639,88.22949 30.282735639,89.71977 28.887785639,91.20353 27.540345638999998,92.68084999999999 26.239335639,94.15179999999998 24.983625639,95.61649 23.772105639,97.07500999999999 22.603775639000002,98.52736999999999 21.477765639,99.97332 20.393265639,101.41261999999999 19.349475638999998,102.84503 18.345585639,104.27035 17.380795639,105.68839 16.454325639,107.09897999999998 15.565375639,108.50196 14.713185638999999,109.89719 13.896991639,111.28456 13.116188639,112.66404999999999 12.370596639,114.03587999999999 11.660047639,115.40033999999999 10.984275639,116.75770999999999 10.342639639,118.10789999999999 9.734348639,119.45063999999999 9.158648638999999,120.78567999999999 8.614843639,122.11277999999999 8.102573639,123.43173999999999 7.621636639,124.74244999999999 7.171799639,126.04485999999999 6.752806638999999,127.33892999999999 6.364343638999999,128.62462 6.006083639,129.90179999999998 5.677745639,131.17021 5.379173639,132.42954999999998 5.110181639,133.67973999999998 4.870539939,134.920964 4.660005539,136.15336499999998 4.478441339,137.37608799999998 4.325880839,138.58718299999998 4.202487739,139.78506199999998 4.108226439,140.96974899999998 4.042996759,142.142718 4.006819541,143.3066699 4.0,144.4654158 4.023214069,145.62344 4.077510599,146.784392 4.164335139,147.95062299999998 4.285404139,149.12317199999998 4.4425339390000005,150.301651 4.637425139,151.484116 4.871559839,152.66783099999998 5.1464586390000004,153.850981 5.463059639,155.03269999999998 5.821592639,156.21209 6.222252639000001,157.38795 6.665566639,158.55893999999998 7.152439639,159.72379999999998 7.683385639,160.8815 8.258103639,162.03121 8.876201639,163.17201999999997 9.537299639,164.30295999999998 10.241285638999999,165.42310999999998 10.988178639000001,166.53157 11.778011638999999,167.62736999999998 12.610599639,168.70991999999998 13.485409639,169.7792 14.401855638999999,170.83524 15.359615639,171.87807999999998 16.358695639,172.90771999999998 17.399105639,173.92414 18.480815639,174.92730999999998 19.603735639,175.91713 20.767745638999997,176.89351 21.972605639,177.85629 23.218005639,178.80528999999999 24.503515639,179.74029 25.829095639000002,180.66123 27.195355639,181.56831 28.602955639,182.46177999999998 30.052525639000002,183.34196 31.544695639,184.20918 33.080065639,185.06384 34.659195639,185.90641 36.282875639000004,186.73716 37.952245639,187.55612 39.668465639000004,188.36329 41.43271563900001,189.15875 43.24619563900001,189.94257 45.11011563900001,190.7149 47.02594563900001,191.47591 48.995395639,192.22582999999997 51.020155639,192.96493999999998 53.10192563900001,193.69360999999998 55.242365639000006,194.41222 57.443445639000004,195.12064999999998 59.707495639,195.81828 62.037025639,196.50446 64.434765639,197.17856999999998 66.90365563900001,197.84020999999998 69.446725639,198.48962999999998 72.066965639,199.12725 74.76724563900001,199.7536 77.550495639,200.36864 80.420185639,200.97111999999998 83.38024563900001,201.55957999999998 86.435095639,202.13268 89.589405639,202.69046 92.847535639,203.23375 96.21342563900001,203.76339 99.691115639,204.27796 103.28533563900001,204.77423 107.00171563900001,205.24886999999998 110.84621563900001,205.70009 114.82531563900001,206.12688 118.94531563900001,206.5283 123.212415639,206.90350999999998 127.63281563900001,207.25167 132.213315639,207.57089 136.96081563899997,207.85872999999998 141.883415639,208.11271 146.990415639,208.33033999999998 152.29221563899998,208.50991 157.799615639,208.65058 163.523315639,208.75189 169.47311563899999,208.81358999999998 175.65881563899998,208.83436 182.090815639,208.81273 188.781315639,208.74768 195.74361563899998,208.63985 202.99061563899997,208.49151999999998 210.53381563899998,208.30648 218.380115639,208.09103 226.52681563899998,207.85417999999999 234.958415639,207.6048 243.65201563899998,207.34853999999999 252.583615639,207.09131 261.73251563900004,206.83875 271.085615639,206.59571 280.63371563900006,206.35990999999999 290.359215639,206.12521999999998 300.23301563900003,205.88858 310.21801563900004,205.64908 320.274715639,205.40383 330.374815639,205.14805 340.505815639,204.87651 350.67231563900003,204.58373999999998 360.888515639,204.26833 371.160615639,203.93194999999997 381.486315639,203.577 391.863115639,203.20615999999998 402.287915639,202.82227999999998 412.755715639,202.42828 423.25891563900007,202.02622 433.788115639,201.61793999999998 444.332015639,201.20531999999997 454.87781563900006,200.79 465.410515639,200.37221 475.914315639,199.95042 486.38241563900004,199.51878 496.821815639,199.07300999999998 507.234515639,198.61459 517.610215639,198.14397 527.941515639,197.65792 538.2323156389999,197.15246 548.496715639,196.6232 558.7542156389999,196.0695 569.010215639,195.49582999999998 579.2571156390001,194.90198999999998 589.500115639,194.28152 599.7586156389999,193.63304 610.044815639,192.96113 620.3599156390001,192.26873999999998 630.702615639,191.55705999999998 641.071315639,190.82726 651.464215639,190.08038 661.881915639,189.31583 672.331315639,188.53269999999998 682.819015639,187.73788 693.339215639,186.94162 703.876815639,186.14758 714.417715639,185.35699 724.950515639,184.5718 735.467615639,183.79394 745.964715639,183.02503 756.4397156389999,182.26486 766.8836156389999,181.50991 777.277515639,180.75731 787.6018156389999,180.0052 797.841715639,179.24993999999998 807.9918156389999,178.48525 818.054615639,177.7073 828.030215639,176.91646 837.913115639,176.11326 847.695515639,175.29775999999998 857.369215639,174.46963 866.927615639,173.62788999999998 876.365715639,172.77371 885.673215639,171.91217 894.832315639,171.04833 903.819915639,170.18572999999998 912.6109156389999,169.32611 921.189815639,168.46501 929.545215639,167.60611999999998 937.6622156389999,166.74699999999999 945.5380156389999,165.88952 953.1598156389999,165.0429 960.517615639,164.20377 967.6087156389999,163.37206999999998 974.4306156389999,162.5451 980.989715639,161.71814 987.291815639,160.89405 993.338415639,160.06275 999.143315639,159.20515 1003.998915639,158.4384" stroke="black" stroke-width="2.0" /></svg>