<?xml version="1.0" encoding="utf-8" ?>
<svg baseProfile="full" height="143.69156" version="1.1" width="1011.998376653" xmlns="http://www.w3.org/2000/svg" xmlns:ev="http://www.w3.org/2001/xml-events" xmlns:xlink="http://www.w3.org/1999/xlink"><defs /><polygon fill="none" points="1003.998376653,103.79740000000001 1000.299076653,102.04717200000002 995.869876653,100.07862000000002 991.2336766530001,98.15835000000001 986.375276653,96.23622000000002 981.327376653,94.22826000000002 976.117376653,92.14372000000002 970.6856766530001,90.06800000000001 964.949976653,87.98760000000001 958.931276653,85.84345000000002 952.7073766530001,83.65772000000001 946.302676653,81.45732000000001 939.728476653,79.24749000000001 933.017976653,77.03711000000001 926.212176653,74.84046000000001 919.327376653,72.67329000000001 912.377876653,70.53058000000001 905.421976653,68.42863000000001 898.4592766530001,66.40452000000002 891.439676653,64.44535000000002 884.347976653,62.53044000000001 877.213576653,60.654080000000015 870.0805766530001,58.829110000000014 862.975776653,57.067490000000014 855.9080766530001,55.374600000000015 848.876576653,53.74979000000002 841.874376653,52.190570000000015 834.898776653,50.68653000000001 827.984676653,49.220770000000016 821.212676653,47.78650000000001 814.669676653,46.411760000000015 808.385276653,45.145910000000015 802.338476653,44.018790000000024 796.4905766530001,43.007300000000015 790.812876653,42.021610000000024 785.279576653,40.97872000000001 779.862976653,39.81648000000001 774.511976653,38.57381000000002 769.153376653,37.33129000000001 763.693676653,36.166790000000006 758.0135766530001,35.13632000000001 751.998476653,34.20525000000001 745.563676653,33.315940000000026 738.702176653,32.40704000000001 731.5045766530001,31.461950000000016 724.0935766530001,30.488800000000012 716.581676653,29.493010000000012 709.0412766530001,28.47427000000002 701.4894766530001,27.425210000000007 693.893276653,26.345560000000006 686.213676653,25.25675000000001 678.4316766530001,24.184190000000015 670.552676653,23.13309000000001 662.603676653,22.096840000000014 654.627476653,21.074550000000016 646.6521766530001,20.074320000000014 638.6716766530001,19.10093000000002 630.663676653,18.151280000000014 622.6272766530001,17.221080000000015 614.592076653,16.309280000000015 606.617476653,15.417940000000002 598.7848766530001,14.55353000000001 591.154876653,13.744180000000014 583.7124766530001,13.021260000000012 576.386476653,12.388830000000013 569.1104766530001,11.787990000000022 561.855976653,11.152490000000014 554.618876653,10.461700000000008 547.3809766530001,9.7667 540.097576653,9.121800000000022 532.708976653,8.544500000000014 525.169976653,8.021000000000015 517.461776653,7.537500000000023 509.60017665299995,7.080600000000004 501.64677665299996,6.637400000000014 493.696276653,6.209300000000013 485.796476653,5.819000000000003 477.91377665299996,5.483500000000021 469.98577665299996,5.194500000000005 462.00317665299997,4.934300000000022 454.014276653,4.695100000000011 446.06207665299996,4.485800000000012 438.146876653,4.314900000000009 430.24617665299996,4.183300000000017 422.348476653,4.088300000000004 414.458776653,4.027900000000017 406.598376653,4.0 398.802976653,4.002700000000019 391.108376653,4.043500000000009 383.525676653,4.134800000000013 376.04217665299996,4.286900000000017 368.63707665299995,4.504500000000007 361.29157665299994,4.791500000000013 353.988876653,5.128300000000024 346.714576653,5.463300000000004 339.459576653,5.7468000000000075 332.218476653,5.973600000000019 324.985076653,6.1702000000000226 317.74937665299996,6.363500000000016 310.49777665299996,6.580700000000007 303.212376653,6.849700000000013 295.871876653,7.190500000000014 288.463276653,7.597300000000018 280.99367665299997,8.05810000000001 273.48927665299993,8.564500000000024 265.978876653,9.114900000000006 258.485076653,9.708500000000015 251.024376653,10.347300000000004 243.606276653,11.035170000000008 236.234576653,11.775710000000018 228.91137665300002,12.570300000000003 221.640376653,13.419550000000015 214.427276653,14.32404000000001 207.27717665300003,15.284680000000009 200.193676653,16.30236000000002 193.179676653,17.377070000000018 186.240376653,18.50758000000002 179.38387665300002,19.691970000000012 172.620476653,20.928360000000012 165.96277665300002,22.21441 159.424776653,23.546960000000013 153.02007665300002,24.92285000000001 146.76057665300002,26.33899000000001 140.65527665300002,27.792070000000024 134.71347665300001,29.277010000000004 128.951476653,30.785500000000013 123.39027665299999,32.30694000000001 118.05137665299999,33.83115000000001 112.948376653,35.352900000000005 108.08287665299999,36.86962000000001 103.448416653,38.38021000000002 99.03408665299999,39.87737000000001 94.84374665299998,41.331950000000006 90.904176653,42.717930000000024 87.241526653,44.06990000000002 83.841206653,45.444400000000016 80.65591665299999,46.86638000000002 77.61450665299999,48.27690000000001 74.66451665299999,49.609510000000014 71.776066653,50.81713000000001 68.96071665299999,51.93818000000001 66.238416653,53.04253000000001 63.620616653,54.19100000000002 61.102696653,55.413530000000016 58.655176653,56.67448000000002 56.254146653,57.929110000000016 53.884176653000004,59.133980000000015 51.544706653,60.26450000000001 49.261546652999996,61.353490000000015 47.055716653,62.44345000000001 44.939336653,63.57384000000002 42.917766653,64.78080000000001 40.977786652999995,66.07027000000001 39.096566653000004,67.42073000000002 37.257256653,68.80803000000002 35.448306653,70.20566000000002 33.662806653000004,71.58524000000001 31.902966653,72.92695 30.182946653000002,74.23310000000001 28.514576653,75.51004 26.905826653000002,76.76466000000002 25.361536653,78.00388000000001 23.884176653,79.23440000000002 22.473936653,80.46097000000002 21.128496653,81.68317000000002 19.845536652999996,82.89944000000001 18.622986652999998,84.10818000000002 17.458966652999997,85.30779000000001 16.351656653,86.49671000000001 15.299286653,87.67350000000002 14.300046653,88.83681000000001 13.352181652999999,89.98555000000002 12.454672653,91.11982000000002 11.606641653,92.24049000000001 10.807038653,93.34847000000002 10.055392653,94.44445000000002 9.351244653,95.52906000000002 8.693873653,96.60298000000002 8.081570653,97.66638000000002 7.511875653,98.71876000000002 6.982553653,99.75948000000001 6.494660653,100.78883000000002 6.059665653,101.81088600000001 5.685636653,102.82954500000001 5.356156653,103.84059200000002 5.048067653,104.83670100000002 4.747057853,105.812576 4.478911253,106.77463000000002 4.272764153,107.72956400000001 4.127960653,108.675469 4.038661013,109.61152100000001 4.0,110.53937390000002 4.008636513,111.46268940000002 4.066541913,112.38527000000002 4.180811153,113.30836300000001 4.359939653,114.23045800000001 4.612952853,115.147039 4.942421453,116.05221900000001 5.344034653,116.94136800000001 5.821196652999999,117.80619200000001 6.379965652999999,118.63692100000002 7.012797653,119.43443900000001 7.705074653,120.20488800000001 8.453541653,120.94705200000001 9.257865653,121.65784000000001 10.116839653,122.33622000000001 11.027342653000002,122.98481000000001 11.985380653,123.60665000000002 12.988153652999998,124.20362000000002 14.034606652999999,124.77646000000001 15.124136652999999,125.32619000000001 16.257586652999997,125.85415000000002 17.435976652999997,126.36190000000002 18.660016653,126.85121000000001 19.930006653,127.32413000000001 21.245616653000003,127.78304000000001 22.605676653,128.23071000000002 24.007906653000003,128.67033 25.449286653,129.10372 26.928486653,129.5256 28.444946653000002,129.92837000000003 29.998546653000002,130.30391000000003 31.589866653,130.64351000000002 33.220466653,130.93789 34.893136653,131.17775 36.609986653,131.36784 38.371416653000004,131.52790000000002 40.177376653,131.68097 42.02722665300001,131.85364 43.919516653,132.07663000000002 45.853116653,132.37601 47.832966653,132.73686 49.867716653,133.12819000000002 51.969046653,133.51325000000003 54.152856653,133.84792000000002 56.438586653,134.09525000000002 58.842356653,134.26889 61.378626653000005,134.39994000000002 64.05882665300001,134.53064 66.889146653,134.70283 69.878566653,134.90719 73.042486653,135.11303 76.40733665299999,135.28168000000002 80.00845665299998,135.40365000000003 83.87802665299999,135.4949 88.03277665299998,135.57464000000002 92.475906653,135.64061 97.216356653,135.68185000000003 102.273536653,135.69156 107.657876653,135.66685 113.36217665299999,135.60447000000002 119.36947665299999,135.50128 125.661076653,135.35520000000002 132.223976653,135.16490000000002 139.043776653,134.92983 146.09617665300001,134.65083 153.348576653,134.32831000000002 160.77357665300002,133.95982 168.361776653,133.54237 176.119076653,133.07992000000002 184.039076653,132.58482 192.09047665300002,132.07063000000002 200.226276653,131.54374 208.400376653,131.00889 216.575476653,130.47666 224.734676653,129.96199000000001 232.88237665300002,129.47537 241.02717665300003,129.01746000000003 249.170176653,128.58765 257.307176653,128.18619 265.43557665299994,127.81362000000001 273.555376653,127.46981000000001 281.66507665299997,127.15356000000001 289.75907665299997,126.86230000000002 297.826676653,126.58083000000002 305.852676653,126.28726000000002 313.819476653,125.97301000000002 321.717176653,125.65505000000002 329.546576653,125.35216000000001 337.318776653,125.08184000000001 345.05347665299996,124.86067000000001 352.77857665299996,124.68875000000001 360.52717665299997,124.52283000000001 368.339076653,124.31388000000001 376.25657665299997,124.05453000000001 384.305376653,123.77700000000002 392.483876653,123.51021000000001 400.76997665299996,123.25466000000002 409.132576653,123.00413000000002 417.537476653,122.7579 425.959076653,122.51926000000002 434.38477665299996,122.29120000000002 442.815276653,122.07634000000002 451.263976653,121.87627000000002 459.744876653,121.68822000000002 468.25617665299995,121.50824000000001 476.78467665299996,121.33566000000002 485.32637665299995,121.17283 493.891976653,121.02006000000002 502.48987665299995,120.87295000000002 511.11397665299995,120.727078 519.750176653,120.58196900000002 528.387676653,120.438702 537.020576653,120.29827200000001 545.6484766530001,120.16157800000002 554.2749766530001,120.02814700000002 562.904576653,119.89453700000001 571.5394766530001,119.75764600000001 580.1798766530001,119.61870400000001 588.8233766530001,119.48039100000001 597.466676653,119.34264200000001 606.1089766530001,119.20298000000001 614.752576653,119.05982300000001 623.399576653,118.91360800000001 632.050576653,118.76503600000001 640.704176653,118.61484200000001 649.356876653,118.46378200000001 658.003076653,118.31242700000001 666.633776653,118.16126400000002 675.238076653,118.01238900000001 683.812676653,117.87037100000002 692.3645766530001,117.73897300000002 700.9026766530001,117.61850800000002 709.429076653,117.50857600000002 717.941276653,117.40973000000001 726.438576653,117.32310800000002 734.924076653,117.24981900000002 743.4039766530001,117.19095600000001 751.887676653,117.14716500000002 760.382976653,117.11680600000001 768.8911766530001,117.09761400000001 777.409176653,117.08825800000001 785.935976653,117.08815400000002 794.4735766530001,117.09554300000002 803.018476653,117.10617900000001 811.557276653,117.11656700000002 820.074876653,117.12936000000002 828.565476653,117.14917700000001 837.029276653,117.17776 845.4605766530001,117.21427500000001 853.845476653,117.25876400000001 862.1682766530001,117.31361600000001 870.4161766530001,117.38131900000002 878.577376653,117.46353000000002 886.6395766530001,117.56136900000001 894.587076653,117.67441300000002 902.392476653,117.79994200000002 910.0154766530001,117.93434100000002 917.404976653,118.07103600000002 924.508076653,118.21917200000001 931.3010766530001,118.373337 937.8079766530001,118.45292700000002 944.091276653,118.52939700000002 950.238576653,118.71923300000002 956.3197766530001,118.91268500000001 962.343176653,119.03866800000002 968.244676653,119.14283400000001 973.9455766530001,119.28567800000002 979.430976653,119.51981 984.732576653,119.87549800000001 989.9039766530001,120.34776600000001 994.968176653,120.85349000000001 999.8879766530001,121.32464000000002 1003.998376653,121.69740000000002" stroke="black" stroke-width="2.0" /></svg>