<?xml version="1.0" encoding="utf-8" ?>
<svg baseProfile="full" height="115.55469" version="1.1" width="1011.999381413" xmlns="http://www.w3.org/2000/svg" xmlns:ev="http://www.w3.org/2001/xml-events" xmlns:xlink="http://www.w3.org/1999/xlink"><defs /><polygon fill="none" points="1003.999381413,91.89797 1001.309581413,91.1319632 997.723981413,90.1194143 993.503881413,88.940216 988.631281413,87.594588 983.258381413,86.126246 977.556981413,84.582503 971.642981413,82.999972 965.608681413,81.408309 959.515481413,79.82646 953.3849814130001,78.26253 947.201981413,76.71261 940.974681413,75.17133 934.749381413,73.64964 928.510181413,72.14977 922.222881413,70.65781 915.916981413,69.17548000000001 909.6011814130001,67.70772 903.2513814130001,66.24636000000001 896.881781413,64.7901 890.5171814130001,63.345290000000006 884.159181413,61.91378 877.7862814130001,60.491330000000005 871.3796814130001,59.070229999999995 864.949581413,57.64808 858.5377814130001,56.23077 852.186381413,54.833600000000004 845.902081413,53.46716 839.657481413,52.13279000000001 833.414181413,50.81552 827.153881413,49.496610000000004 820.883581413,48.16298 814.623181413,46.8186 808.376281413,45.47838 802.123081413,44.15265 795.827981413,42.841139999999996 789.470381413,41.53413 783.0598814130001,40.22674 776.635781413,38.92262 770.235081413,37.632310000000004 763.8700814130001,36.362320000000004 757.5300814130001,35.1138 751.198381413,33.884280000000004 744.865781413,32.67238 738.5316814130001,31.47846 732.200081413,30.30426 725.8746814130001,29.151580000000003 719.558381413,28.021990000000002 713.2531814130001,26.916870000000003 706.960081413,25.837379999999996 700.679181413,24.784539999999993 694.4100814130001,23.75941999999999 688.1518814130001,22.76325 681.903481413,21.79719 675.6636814130001,20.862250000000003 669.430681413,19.959099999999992 663.2020814130001,19.088310000000007 656.974581413,18.250140000000002 650.744781413,17.444149999999993 644.509381413,16.66986999999999 638.2652814130001,15.9268 632.009781413,15.21405 625.741381413,14.530740000000009 619.459681413,13.87612 613.165181413,13.249570000000006 606.859981413,12.650540000000007 600.546981413,12.078580000000002 594.2287814130001,11.533450000000002 587.9034814130001,11.014749999999992 581.5634814130001,10.52167 575.1975814130001,10.052040000000005 568.799781413,9.602519999999998 562.373681413,9.170259999999999 555.931381413,8.753979999999999 549.484381413,8.354410000000001 543.0385814130001,7.972070000000002 536.594281413,7.607039999999998 530.1495814130001,7.259039999999999 523.702881413,6.927809999999994 517.252781413,6.6130799999999965 510.79848141299993,6.314670000000007 504.33908141300003,6.03237 497.874581413,5.7660199999999975 491.40638141299996,5.515500000000003 484.93948141299995,5.280789999999996 478.48198141299997,5.062180000000012 472.041181413,4.861350000000002 465.61808141299997,4.6803099999999915 459.206781413,4.520700000000005 452.798981413,4.382730000000009 446.38938141299997,4.26606000000001 439.976981413,4.170469999999995 433.563781413,4.0959800000000115 427.151581413,4.0426900000000074 420.741181413,4.010670000000005 414.332581413,4.0 407.92458141299994,4.010760000000005 401.51518141299994,4.043030000000002 395.101581413,4.096649999999997 388.68158141299995,4.171030000000002 382.254481413,4.265590000000003 375.820381413,4.379730000000009 369.379781413,4.512830000000008 362.932781413,4.664249999999996 356.47928141299997,4.833389999999994 350.019681413,5.019660000000002 343.55568141299995,5.2224000000000075 337.089981413,5.441149999999993 330.62578141299997,5.676190000000005 324.165881413,5.92792 317.71278141299996,6.196730000000002 311.268481413,6.483010000000007 304.834681413,6.787120000000002 298.41278141299995,7.109520000000003 292.004581413,7.451170000000005 285.613181413,7.813079999999999 279.24318141299995,8.196250000000006 272.898781413,8.602320000000006 266.58148141299995,9.033460000000005 260.289481413,9.491960000000006 254.01948141300002,9.97981 247.769681413,10.498590000000007 241.54078141300002,11.04964000000001 235.33438141300002,11.634100000000004 229.148781413,12.253340000000009 222.976781413,12.909360000000007 216.807081413,13.604120000000009 210.634781413,14.337580000000003 204.468781413,15.107820000000004 198.330881413,15.911750000000012 192.240681413,16.75004 186.198081413,17.626809999999992 180.183481413,18.548810000000003 174.168481413,19.520390000000006 168.14018141300002,20.541089999999997 162.107081413,21.60687 156.095781413,22.712680000000006 150.128681413,23.857780000000005 144.212781413,25.044160000000005 138.341381413,26.27604000000001 132.50398141300002,27.55701 126.696781413,28.88906 120.923181413,30.272619999999996 115.19068141300001,31.707530000000006 109.503481413,33.19482 103.86003141299999,34.73687 98.254661413,36.33690000000001 92.688011413,37.994780000000006 87.173661413,39.70763 81.71812141299999,41.477650000000004 76.312461413,43.30982 70.94817141299998,45.20629 65.63056141300001,47.162800000000004 60.395391413000006,49.16259 55.297231413,51.18831 50.376251413000006,53.23002 45.661211413,55.2804 41.181651413000004,57.328540000000004 36.971381413,59.36018 33.06680141299999,61.35519000000001 29.492721412999998,63.29521 26.255081413,65.17094 23.340101412999996,66.97745 20.728311412999997,68.71415 18.409281413000002,70.3794 16.367521413,71.96877 14.579161413000001,73.47985 13.015570413,74.91347 11.648771412999999,76.27249 10.453831413,77.56146 9.411497413,78.78871000000001 8.503828413,79.9633 7.712891413,81.089854 7.023137413,82.168943 6.422582413,83.201165 5.903178413,84.189169 5.457608413,85.13567 5.078431413000001,86.04315700000001 4.758840113,86.915122 4.4948835129999996,87.753533 4.285686713,88.555697 4.133313413,89.321468 4.038020233,90.0573741 4.0,90.77322 4.021530463,91.4793908 4.108814113,92.178063 4.271794813,92.864813 4.523561013,93.531201 4.8622357130000005,94.176355 5.232785413,94.829646 5.638808413,95.466068 6.145438413,96.022383 6.778142412999999,96.494048 7.453835413,96.984119 8.140771413,97.52669 8.868187413000001,98.091954 9.676583413,98.646164 10.585853413,99.189469 11.599936413,99.741309 12.716614413,100.318308 13.945969412999998,100.913246 15.307701413,101.5134 16.824081413000002,102.11433 18.519141413,102.71377 20.419351412999998,103.30906 22.551521413,103.89757 24.940451412999998,104.47788 27.610081412999996,105.04507 30.579911413,105.5845 33.861371413,106.07931 37.472981413,106.51535 41.438751413,106.88274 45.762001413,107.1752 50.414821413000006,107.38723 55.355651413000004,107.51352 60.552701413,107.55469 65.97237141299999,107.51465 71.56715141299999,107.39918 77.293581413,107.21302 83.12011141299999,106.96107 89.01289141299999,106.64789 94.949191413,106.27424 100.94031141299999,105.83968 106.998681413,105.34934 113.114781413,104.80901 119.27668141299999,104.22289 125.479781413,103.59486 131.726381413,102.92843 138.02028141300002,102.22724 144.363581413,101.49536 150.75498141300002,100.73719200000001 157.18988141300002,99.957139 163.657781413,99.160328 170.143381413,98.353028 176.631281413,97.542982 183.111681413,96.737649 189.580781413,95.943171 196.037881413,95.162193 202.48198141300003,94.396229 208.911081413,93.6469 215.322981413,92.916273 221.715881413,92.206547 228.088181413,91.5198087 234.440181413,90.857775 240.777481413,90.2215431 247.111381413,89.611645 253.455581413,89.026844 259.81598141300003,88.465019 266.18728141299994,87.924991 272.55608141299996,87.40743 278.914681413,86.91429 285.26788141299994,86.446679 291.6304814129999,86.003929 298.015181413,85.58317600000001 304.424181413,85.181982 310.849781413,84.799024 317.280881413,84.434787 323.71058141299994,84.089795 330.136081413,83.764277 336.558681413,83.458229 342.98428141299996,83.171482 349.42268141299996,82.903522 355.882781413,82.652317 362.366181413,82.415505 368.865481413,82.191181 375.369581413,81.97923 381.872781413,81.780198 388.376181413,81.594339 394.88508141299997,81.421045 401.403981413,81.259293 407.935381413,81.108131 414.479681413,80.96682 421.036081413,80.83478 427.60228141299996,80.71144 434.174881413,80.59623 440.748981413,80.48859 447.31848141300003,80.38799 453.877781413,80.29478 460.427481413,80.21014 466.976181413,80.13511 473.536681413,80.0692 480.11548141299994,80.01028 486.708181413,79.95625 493.30198141299996,79.90650000000001 499.88668141299996,79.86227 506.458581413,79.82481 513.020181413,79.79475000000001 519.575481413,79.77195 526.1290814130001,79.75623 532.685581413,79.7474 539.250081413,79.74533 545.8278814130001,79.74989 552.423681413,79.7604 559.0362814130001,79.77518 565.6553814130001,79.79242 572.263981413,79.81164 578.8520814130001,79.83506 585.424681413,79.86521 591.9983814130001,79.90334 598.586981413,79.94795 605.191581413,79.99708 611.801081413,80.04953 618.4025814130001,80.10613000000001 624.9883814130001,80.16799 631.556281413,80.23628000000001 638.109081413,80.31216 644.654981413,80.39689 651.205881413,80.4912 657.769281413,80.59404 664.3407814130001,80.70382000000001 670.9048814130001,80.81958 677.447481413,80.94319 683.9679814130001,81.077293 690.4779814130001,81.224143 696.9913814130001,81.383611 703.514881413,81.554823 710.0463814130001,81.736874 716.580281413,81.929563 723.112181413,82.132964 729.639881413,82.34719 736.163081413,82.57241 742.683681413,82.808869 749.2055814130001,83.056806 755.7333814130001,83.315824 762.2711814130001,83.58521 768.822081413,83.864181 775.3872814130001,84.151568 781.9648814130001,84.445876 788.549681413,84.74552800000001 795.1349814130001,85.049964 801.717281413,85.35941 808.297181413,85.674261 814.8773814130001,85.994718 821.458781413,86.320696 828.0394814130001,86.651985 834.616781413,86.988461 841.1912814130001,87.330274 847.767981413,87.677791 854.3514814130001,88.03112 860.934881413,88.389514 867.495981413,88.751523 874.008681413,89.118341 880.468781413,89.494896 886.8999814130001,89.88742 893.338981413,90.2958911 899.790481413,90.7101883 906.2088814130001,91.11685051 912.5298814130001,91.5201077 918.784281413,91.95038840000001 925.056981413,92.390829 931.356681413,92.816868 937.6941814130001,93.259415 944.116181413,93.72649 950.589081413,94.19786500000001 957.053281413,94.674503 963.4991814130001,95.15995600000001 969.890581413,95.649047 976.151081413,96.136591 982.183581413,96.613654 987.8636814130001,97.06564900000001 993.0127814130001,97.478335 997.4557814130001,97.83874300000001 1001.2044814129999,98.146427 1003.999381413,98.37797" stroke="black" stroke-width="2.0" /></svg>