<?xml version="1.0" encoding="utf-8" ?>
<svg baseProfile="full" height="62.99709" version="1.1" width="1012.1292097460001" xmlns="http://www.w3.org/2000/svg" xmlns:ev="http://www.w3.org/2001/xml-events" xmlns:xlink="http://www.w3.org/1999/xlink"><defs /><polygon fill="none" points="1004.1292097460001,39.28195 1001.1257097460001,39.1372844 997.070309746,38.941338 992.332809746,38.711626 987.045809746,38.454577 981.400909746,38.17982 975.494209746,37.892392 969.4043097460001,37.596509 963.205209746,37.295911 956.953009746,36.992984 950.677609746,36.688798 944.387309746,36.383635 938.086709746,36.07774 931.7798097460001,35.771372 925.470209746,35.464849 919.160009746,35.158461 912.8500097460001,34.852357999999995 906.539909746,34.546343 900.2298097460001,34.240128 893.9197097460001,33.933521999999996 887.6095097460001,33.626727 881.299009746,33.320045 874.987809746,33.013701999999995 868.6756097460001,32.707633 862.3627097460001,32.401714999999996 856.049709746,32.095845 849.737409746,31.789894 843.4261097460001,31.483693000000002 837.115009746,31.177098 830.803509746,30.87021 824.4912097460001,30.563223 818.1782097460001,30.256315 811.864609746,29.949509999999997 805.550909746,29.64277 799.2376097460001,29.33607 792.925109746,29.02931 786.613709746,28.72234 780.303309746,28.41507 773.993809746,28.10776 767.6849097460001,27.80077 761.3763097460001,27.49436 755.067709746,27.18828 748.758809746,26.88207 742.448909746,26.57533 736.137809746,26.26811 729.825509746,25.96062 723.512209746,25.653100000000002 717.1987097460001,25.34565 710.885409746,25.03831 704.5728097460001,24.73111 698.261009746,24.42393 691.9499097460001,24.11654 685.6393097460001,23.80878 679.3286097460001,23.50075 673.0176097460001,23.192709999999998 666.7063097460001,22.884900000000002 660.395009746,22.57725 654.0837097460001,22.26953 647.772409746,21.96154 641.4610097460001,21.65319 635.149509746,21.34451 628.8377097460001,21.035510000000002 622.525609746,20.72621 616.2131097460001,20.41668 609.900409746,20.10697 603.587509746,19.79717 597.2748097460001,19.48742 590.9626097460001,19.177819999999997 584.6511097460001,18.86829 578.3405097460001,18.55861 572.0303097460001,18.248540000000002 565.7200097460001,17.93811 559.4093097460001,17.627560000000003 553.0984097460001,17.317159999999998 546.787609746,17.00693 540.477409746,16.696630000000003 534.168109746,16.386 527.8598097460001,16.07512 521.552509746,15.76443 515.245409746,15.454360000000001 508.937809746,15.144960000000001 502.62920974599996,14.835799999999999 496.31980974600003,14.52646 490.01050974599997,14.216859999999997 483.701809746,13.907340000000001 477.393709746,13.598309999999998 471.086009746,13.28999 464.77840974599997,12.982399999999998 458.470609746,12.675519999999999 452.162909746,12.369349999999997 445.855509746,12.063939999999999 439.548509746,11.75931 433.242409746,11.455549999999999 426.937509746,11.15279 420.633809746,10.85116 414.331509746,10.550830000000001 408.030609746,10.25195 401.731709746,9.954699999999999 395.435509746,9.65935 389.142609746,9.366299999999999 382.853109746,9.075990000000001 376.566809746,8.788779999999996 370.283009746,8.504899999999996 364.001109746,8.22456 357.72210974599994,7.947780000000002 351.449209746,7.67512 345.18380974599995,7.407769999999999 338.92380974599996,7.146509999999999 332.66700974599996,6.891559999999998 326.413209746,6.643160000000002 320.164109746,6.401710000000001 313.921409746,6.168010000000002 307.685509746,5.942829999999994 301.455609746,5.726879999999994 295.23040974599996,5.520650000000003 289.009809746,5.3245800000000045 282.794809746,5.13917 276.586909746,4.965179999999997 270.386309746,4.803449999999998 264.19200974599994,4.654779999999995 258.002609746,4.519680000000001 251.817709746,4.39855 245.638809746,4.291820000000001 239.467909746,4.200279999999999 233.30550974599998,4.12491 227.150809746,4.066609999999997 221.00220974599998,4.026029999999999 214.859609746,4.00365 208.724609746,4.0 202.599409746,4.015989999999995 196.484609746,4.0527000000000015 190.378709746,4.111190000000001 184.280009746,4.192120000000003 178.18910974599999,4.29598 172.10940974599998,4.423339999999996 166.04420974599998,4.57546 159.994209746,4.753840000000004 153.95760974599997,4.9598999999999975 147.93310974599999,5.194570000000006 141.92270974599998,5.4585500000000025 135.93120974599998,5.752809999999997 129.962509746,6.079160000000002 124.01800974599999,6.439519999999995 118.097709746,6.835729999999998 112.20390974600001,7.2693200000000004 106.341509746,7.741790000000002 100.51613974600001,8.255329999999997 94.732939746,8.812179999999998 88.99712974600001,9.41479 83.31587974600001,10.065439999999999 77.698479746,10.76632 72.156199746,11.519390000000001 66.704069746,12.326039999999999 61.366279746000004,13.186029999999999 56.171669746,14.099500000000003 51.146299746,15.065650000000002 46.329859746,16.07687 41.771459746000005,17.12436 37.509789746,18.1973 33.584469745999996,19.27942 30.017459746,20.35906 26.810179746000003,21.424139999999998 23.949749746000002,22.46579 21.410489746,23.47807 19.162579746,24.45868 17.173559746000002,25.41023 15.411839746,26.337139999999998 13.848643746,27.24343 12.460196746000001,28.13321 11.225257746,29.00925 10.125972745999999,29.87246 9.146868745999999,30.723225 8.275325746,31.561852000000002 7.502436746,32.388075 6.820365746,33.201187000000004 6.222510746,34.000550000000004 5.703983746,34.786671999999996 5.259476746,35.561288 4.883849446,36.326664 4.574583946,37.082905 4.332093846,37.826311 4.156421846,38.552059 4.046389646,39.2552015 4.0,39.934038199999996 4.017349876,40.6020844 4.107370046,41.27665 4.286646846,41.959049 4.562809746,42.635621 4.9347519460000004,43.291037 5.401678746,43.915468 5.959969746,44.508746 6.604352746,45.071597 7.332347746,45.606187 8.145908746,46.113582 9.048622746,46.597503 10.045223746,47.063536 11.144838746,47.515917 12.359666746,47.958229 13.706685746000002,48.39217 15.207479746,48.820142 16.888419746,49.245149 18.782779746000003,49.667879 20.931919746000002,50.089529 23.383529746,50.51263 26.187979746,50.93691 29.394039746,51.35824 33.045719746,51.76999 37.164169746,52.16721 41.730569746,52.542410000000004 46.695649746,52.88879 51.988399746000006,53.202799999999996 57.530569746000005,53.48283 63.254459746,53.728970000000004 69.112369746,53.9432 75.069129746,54.12959 81.093339746,54.291489999999996 87.164219746,54.43065 93.272569746,54.54929 99.412359746,54.64987 105.57770974600001,54.73462 111.762809746,54.80539 117.96160974600001,54.86374 124.170309746,54.91034 130.388409746,54.94579 136.617509746,54.97107 142.857109746,54.98744 149.104609746,54.99595 155.35710974599996,54.99709 161.614109746,54.99118 167.87700974599997,54.97872 174.14610974599998,54.96043 180.42000974599998,54.93703 186.69590974599998,54.90884 192.97290974599997,54.87583 199.252209746,54.838 205.53630974599997,54.79581 211.82590974599998,54.74997 218.119909746,54.70113 224.416309746,54.64956 230.713309746,54.5954 237.00990974599998,54.53874 243.30540974599998,54.47944 249.60040974599997,54.41731 255.896009746,54.35227 262.193409746,54.28451 268.492309746,54.21428 274.791609746,54.14178 281.09020974599997,54.066919999999996 287.387809746,53.98957 293.685009746,53.90963 299.98250974599995,53.82709 306.280409746,53.74202 312.578209746,53.65445 318.87560974599995,53.56438 325.17290974599996,53.47179 331.47130974600003,53.37663 337.772509746,53.27906 344.076609746,53.17945 350.381909746,53.07817 356.685109746,52.97538 362.985909746,52.87032 369.288109746,52.76271 375.594209746,52.65316 381.90270974599997,52.54221 388.212109746,52.42997 394.523009746,52.31649 400.836509746,52.20203 407.152509746,52.08696 413.46920974599993,51.97156 419.785209746,51.85574 426.100609746,51.73933 432.416509746,51.62226 438.733509746,51.50471 445.05150974599997,51.38686 451.369509746,51.26894 457.68690974599997,51.1512 464.003909746,51.03382 470.32100974599996,50.91669 476.638409746,50.79952 482.956109746,50.68209 489.274009746,50.5645 495.591809746,50.44699 501.909209746,50.32969 508.225809746,50.2124 514.541709746,50.094801000000004 520.857309746,49.976714 527.173009746,49.858423 533.488909746,49.740319 539.804909746,49.62262 546.121009746,49.505059 552.437309746,49.387278 558.754209746,49.269041 565.0716097460001,49.150396 571.3893097460001,49.03144 577.7063097460001,48.912361000000004 584.0221097460001,48.793501 590.337009746,48.675201 596.651909746,48.557524 602.967609746,48.440096 609.284409746,48.322517 615.6022097460001,48.20462 621.920409746,48.086583 628.238709746,47.968613 634.556309746,47.85073 640.872909746,47.732685000000004 647.188809746,47.614202 653.5044097460001,47.495241 659.820209746,47.376125 666.136809746,47.257208 672.454409746,47.138662 678.772909746,47.020339 685.091909746,46.902067 691.410809746,46.783784 697.7289097460001,46.665651 704.0459097460001,46.547849 710.3618097460001,46.43041 716.676709746,46.312975 722.991009746,46.195114 729.305109746,46.076561 735.619809746,45.957617 741.9355097460001,45.838704 748.2525097460001,45.720161 754.5708097460001,45.601933 760.889909746,45.483871 767.208409746,45.365819 773.5253097460001,45.247535 779.839909746,45.128734 786.1524097460001,45.009206 792.463409746,44.889368 798.773609746,44.76992 805.0841097460001,44.65148 811.395409746,44.533847 817.7082097460001,44.416361 824.022809746,44.2984 830.339009746,44.179816 836.656909746,44.0608 842.9759097460001,43.941551 849.295809746,43.822189 855.616009746,43.702768 861.9363097460001,43.583334 868.256409746,43.463944 874.576009746,43.344661 880.8953097460001,43.225544 887.214309746,43.106568 893.533209746,42.9876 899.852009746,42.868501 906.1710097460001,42.749223 912.4899097460001,42.629853 918.8086097460001,42.510491 925.1267097460001,42.391238 931.443109746,42.272201 937.755909746,42.153498 944.062209746,42.035177 950.358809746,41.917157 956.6421097460001,41.799352999999996 962.9027097460001,41.681777 969.108309746,41.564862 975.202509746,41.449575 981.1128097460002,41.337594 986.764709746,41.230764 992.060909746,41.131183 996.803509746,41.0426042 1000.861409746,40.9673548 1003.8672097460001,40.91195" stroke="black" stroke-width="2.0" /></svg>