<?xml version="1.0" encoding="utf-8" ?>
<svg baseProfile="full" height="92.77203189999999" version="1.1" width="1012.2540911" xmlns="http://www.w3.org/2000/svg" xmlns:ev="http://www.w3.org/2001/xml-events" xmlns:xlink="http://www.w3.org/1999/xlink"><defs /><polygon fill="none" points="1004.2540911,81.45664 1001.4520911,80.72694499999999 998.0635910999999,79.853646 994.4892911,78.943305 990.7094910999999,77.992696 986.7022911,76.99844999999999 982.4444911,75.95721999999999 977.9116911,74.86597499999999 973.0810911,73.72249 967.9339911000001,72.52615999999999 962.4614911,71.27905999999999 956.6714910999999,69.98745 950.5969911,68.66300999999999 944.3068911,67.32364999999999 938.0298911,66.01801999999999 931.8047911,64.75215 925.5737911,63.51241999999999 919.2940911,62.289109999999994 912.9416911000001,61.07673 906.6191911,59.89354999999999 900.3738911,58.74632 894.1896911,57.63054999999999 888.0503911,56.54243999999999 881.9421911,55.47881999999999 875.8530911,54.437039999999996 869.7727911,53.41483999999999 863.6922911,52.41033999999999 857.6036911,51.421949999999995 851.5003911,50.44832999999999 845.3765910999999,49.488389999999995 839.2276911,48.541259999999994 833.0501911,47.60625999999999 826.8415911,46.682919999999996 820.6006911000001,45.77094999999999 814.3273911,44.870259999999995 808.0231911,43.980929999999994 801.6908910999999,43.10321999999999 795.3345910999999,42.23749999999999 788.9585911,41.384069999999994 782.5668911,40.54315 776.1632910999999,39.71486999999999 769.7509911,38.899289999999986 763.3329911,38.09637999999999 756.9120911,37.30604999999999 750.4901911,36.52812999999999 744.0691910999999,35.76238999999999 737.6502911,35.008529999999986 731.2345911,34.26619999999999 724.8224911,33.535 718.4139911,32.814479999999996 712.0088911,32.10414999999999 705.6063911,31.40347 699.2052911,30.71188999999999 692.8042911,30.028859999999995 686.4020911,29.35387999999999 679.9976911,28.686479999999996 673.5901911,28.026199999999996 667.1788911,27.37261999999999 660.7632911,26.725309999999993 654.3429911,26.083899999999993 647.9177910999999,25.447999999999993 641.4878911,24.817249999999994 635.0533910999999,24.191329999999994 628.6145911,23.56989999999999 622.1721911,22.95264999999999 615.7269911,22.339299999999994 609.2798910999999,21.729559999999985 602.8319911,21.123179999999998 596.3846910999999,20.520249999999997 589.9390911,19.92161999999999 583.4962911,19.328219999999988 577.0571911,18.740939999999995 570.6224910999999,18.160659999999993 564.1928911,17.58824 557.7686911,17.024519999999995 551.3503910999999,16.470330000000004 544.9379911,15.926459999999992 538.5315910999999,15.393689999999992 532.1309911,14.872799999999998 525.7360911,14.364529999999988 519.3463910999999,13.869629999999987 512.9613910999999,13.388800000000003 506.58049109999996,12.922779999999989 500.2027911,12.472219999999993 493.8276911,12.037049999999994 487.4541911,11.616730000000004 481.0815911,11.210700000000003 474.70909109999997,10.818429999999992 468.33589109999997,10.439369999999997 461.9609911,10.072990000000004 455.5837911,9.718769999999992 449.20319109999997,9.376199999999997 442.8182911,9.044749999999993 436.42829109999997,8.72390999999999 430.0321911,8.41319 423.6288911,8.112079999999992 417.21749109999996,7.820059999999998 410.7968911,7.536659999999998 404.3660911,7.261359999999982 397.9238911,6.993809999999996 391.46929109999996,6.73424 385.00199109999994,6.483080000000001 378.52189109999995,6.2407699999999835 372.03369109999994,6.007919999999999 365.55289109999995,5.785489999999996 359.0795911,5.573830000000001 352.6110911,5.37321 346.14419109999994,5.183899999999994 339.6748911,5.006169999999997 333.19879109999994,4.840319999999991 326.71089109999997,4.68665 320.2213911,4.545829999999995 313.7528911,4.418669999999992 307.3119911,4.30552999999999 300.90519109999997,4.206779999999981 294.5390911,4.1240999999999985 288.21859109999997,4.060309999999987 281.9464911,4.018109999999993 275.7239911,4.0 269.5502911,4.008369999999985 263.42319109999994,4.045469999999995 257.3390911,4.113529999999997 251.29319110000003,4.214739999999992 245.2797911,4.351369999999989 239.29169110000004,4.525769999999994 233.3210911,4.740449999999981 227.3587911,4.998199999999983 221.3943911,5.302089999999993 215.4161911,5.655659999999983 209.4106911,6.062999999999988 203.3624911,6.528949999999995 197.2536911,7.057129999999987 191.0696911,7.645949999999999 184.8034911,8.292179999999988 178.4587911,8.991169999999983 172.05129110000001,9.73617999999999 165.6107911,10.518019999999993 159.18109110000003,11.324829999999992 152.8168911,12.142719999999983 146.57629110000002,12.964489999999984 140.4995911,13.799210000000002 134.59839110000001,14.658759999999987 128.86349109999998,15.555520000000001 123.2718911,16.50255 117.7912911,17.514219999999995 112.3821911,18.60723 106.99689109999998,19.802390000000003 101.5765011,21.126529999999995 96.0510011,22.59391999999999 90.3684211,24.19449999999999 84.5212811,25.900799999999997 78.5703111,27.658329999999992 72.6581811,29.412119999999994 66.9560411,31.175529999999995 61.5868911,32.97037999999999 56.610421099999996,34.80996999999999 52.0361711,36.69854999999999 47.838391099999996,38.61313 43.9482411,40.53357999999999 40.2762011,42.46897999999999 36.7257111,44.44937999999999 33.1800211,46.53137999999999 29.4486211,48.833499999999994 25.0571111,51.702099999999994 20.136661099999998,55.18719999999999 16.673791100000003,57.819199999999995 14.3353811,59.67921 12.5917651,61.13327999999999 11.2008321,62.35333999999999 10.0463941,63.42116999999999 9.0652741,64.38105999999999 8.219358100000001,65.2598 7.483875100000001,66.07490999999999 6.8418571,66.83852999999999 6.2812361,67.55950999999999 5.7932131,68.24448999999998 5.3712801,68.89864999999999 5.0106101,69.52609 4.7076677,70.13016999999999 4.4599508,70.71365999999999 4.26582729,71.27892999999999 4.1244356,71.82799 4.0356349,72.36264 4.0,72.88445999999999 4.0188588,73.39492999999999 4.094379,73.89541 4.22971734,74.38722999999999 4.4286247,74.87181999999999 4.6923466000000005,75.35105399999999 5.0218384,75.82691899999999 5.4192331,76.30136499999999 5.8879851,76.776399 6.433124100000001,77.254167 7.0616751,77.73707599999999 7.7833201,78.227944 8.6114581,78.73022399999999 9.564964100000001,79.248347 10.6712071,79.788281 11.9715091,80.35846899999999 13.5314181,80.971409 15.4591011,81.64563199999999 17.9177611,82.40087299999999 21.0942211,83.215836 24.8838711,83.9391984 28.6523811,84.4031814 32.2336011,84.6524827 35.813761099999994,84.76280929999999 39.533631099999994,84.77203189999999 43.521301099999995,84.7055791 47.913761099999995,84.5911333 52.835411099999995,84.47668420999999 58.259261099999996,84.44416005999999 63.8980811,84.49741092 69.4440811,84.5605669 74.7627811,84.55841389999999 79.8864911,84.43239809999999 84.93803109999999,84.1539268 90.0413011,83.75563639999999 95.29135109999999,83.27711599999999 100.7595611,82.763988 106.4817911,82.277346 112.4402911,81.862662 118.5879911,81.52144 124.86989109999999,81.247053 131.23149109999997,81.028302 137.6249911,80.850533 144.0151911,80.69705599999999 150.38199110000002,80.55036899999999 156.7201911,80.39311099999999 163.03709110000003,80.217306 169.34239110000001,80.027328 175.6443911,79.828328 181.94959110000002,79.625445 188.26319110000003,79.42386499999999 194.5887911,79.228865 200.9287911,79.04584 207.28369110000003,78.880185 213.6529911,78.73414799999999 220.0355911,78.60652999999999 226.4304911,78.495938 232.8366911,78.400949 239.2531911,78.32011399999999 245.67919110000003,78.251965 252.1137911,78.19500799999999 258.5559911,78.147736 265.0051911,78.108621 271.4604911,78.07612599999999 277.92129109999996,78.04869699999999 284.3867911,78.02477499999999 290.85649109999997,78.002788 297.32959109999996,77.98115899999999 303.80579109999996,77.95830699999999 310.28449109999997,77.93290599999999 316.76529109999996,77.90491899999999 323.2477911,77.874704 329.7316911,77.84262199999999 336.21659109999996,77.809034 342.7020911,77.774301 349.1880911,77.73878599999999 355.6740911,77.702851 362.15999109999996,77.66685799999999 368.64549109999996,77.63116799999999 375.1303911,77.59614499999999 381.61449109999995,77.562148 388.0975911,77.529539 394.5796911,77.498679 401.0604911,77.46992599999999 407.53999109999995,77.443635 414.0180911,77.420059 420.4946911,77.39935 426.9697911,77.38165699999999 433.44329109999995,77.367127 439.91539109999997,77.355908 446.3859911,77.348147 452.8552911,77.34399099999999 459.3232911,77.343588 465.7901911,77.34708499999999 472.2559911,77.35462999999999 478.7210911,77.36636999999999 485.1855911,77.382454 491.64979109999996,77.40302999999999 498.1138911,77.428249 504.5782911,77.458261 511.0431911,77.49309899999999 517.5088911,77.53238599999999 523.9757910999999,77.57565799999999 530.4439911,77.62244899999999 536.9136910999999,77.67229499999999 543.3849911,77.724728 549.8579911,77.77928299999999 556.3325911000001,77.835489 562.8088911,77.892879 569.2865911,77.950981 575.7656911,78.009323 582.2458910999999,78.067432 588.7268911,78.12483399999999 595.2084911,78.18105499999999 601.6901911,78.23561899999999 608.1716911000001,78.288078 614.6524911,78.33838399999999 621.1321911,78.386793 627.6105911,78.433568 634.0874911,78.47897699999999 640.5628911,78.52328399999999 647.0369911,78.566756 653.5098911,78.609658 659.9817911,78.65225899999999 666.4532911,78.694825 672.9247910999999,78.737624 679.3969910999999,78.780925 685.8705911,78.824998 692.3464911,78.870114 698.8255911,78.916547 705.3089911000001,78.96457099999999 711.7977910999999,79.014456 718.2924910999999,79.06643799999999 724.7839911,79.12067499999999 731.2683911,79.177354 737.7459911,79.236695 744.2173911,79.29892099999999 750.6836911,79.36425999999999 757.1464911,79.43294399999999 763.6075911,79.505212 770.0692911,79.58131399999999 776.5342910999999,79.661508 783.0056910999999,79.746066 789.4868911,79.835275 795.9786911,79.92939399999999 802.4576911,80.02830399999999 808.9136911,80.13198999999999 815.3424911000001,80.24006499999999 821.7415911,80.35192599999999 828.1099911,80.467002 834.4481911,80.58476399999999 840.7581911,80.704724 847.0431911,80.82643999999999 853.3079911,80.949507 859.5580911,81.073562 865.8007911,81.198275 872.0442910999999,81.323349 878.2980911000001,81.448517 884.5736911,81.57353699999999 890.8837910999999,81.69818799999999 897.2436911,81.82226499999999 903.6709910999999,81.945574 910.1365911,82.067279 916.5150911,82.186245 922.8064911,82.304125 929.0353911,82.422918 935.2398910999999,82.54482999999999 941.4719911000001,82.67241299999999 947.8020911,82.80883899999999 954.2243911,82.95593699999999 960.3919910999999,83.106742 966.2148910999999,83.257942 971.6754910999999,83.40752499999999 976.7809910999999,83.55419789999999 981.5522910999999,83.6972285 986.0165910999999,83.83627019999999 990.2026910999999,83.97122619999999 994.1383911,84.1021516 997.8492911,84.2291875 1001.3583911000001,84.35251969999999 1004.2540911,84.45664" stroke="black" stroke-width="2.0" /></svg>