<?xml version="1.0" encoding="utf-8" ?>
<svg baseProfile="full" height="132.05812" version="1.1" width="1011.993801085" xmlns="http://www.w3.org/2000/svg" xmlns:ev="http://www.w3.org/2001/xml-events" xmlns:xlink="http://www.w3.org/1999/xlink"><defs /><polygon fill="none" points="1003.993801085,64.02906 1000.5625010849999,63.4915545 996.221201085,62.82275 991.459701085,62.092831000000004 986.296901085,61.298359000000005 980.775001085,60.450292000000005 974.9442010849999,59.563264000000004 968.850701085,58.646003 962.548001085,57.704625 956.090801085,56.74489 949.5270010849999,55.773911 942.895401085,54.798968 936.2218010849999,53.825410000000005 929.517001085,52.85595 922.785501085,51.891 916.0317010849999,50.93074 909.260801085,49.975440000000006 902.4786010849999,49.02548 895.690301085,48.0818 888.900001085,47.1453 882.1101010849999,46.21667 875.3214010849999,45.29634 868.533301085,44.384510000000006 861.744601085,43.481030000000004 854.954401085,42.58576000000001 848.162201085,41.69858 841.367701085,40.81944 834.571001085,39.94831 827.7725010849999,39.08523 820.972601085,38.23026 814.171701085,37.383449999999996 807.370301085,36.54486 800.568601085,35.714529999999996 793.7672010849999,34.89253 786.966401085,34.078990000000005 780.166401085,33.27411 773.3675010850001,32.47807 766.569501085,31.691030000000005 759.772301085,30.913130000000002 752.975701085,30.14452 746.1792010849999,29.385260000000002 739.382501085,28.63536 732.585401085,27.89479 725.7875010849999,27.163540000000005 718.988801085,26.44162 712.189401085,25.72905 705.389201085,25.025840000000002 698.588501085,24.332050000000002 691.7874010849999,23.647780000000004 684.986101085,22.973100000000002 678.184801085,22.30811 671.383701085,21.652899999999995 664.582901085,21.007550000000002 657.7826010849999,20.372149999999998 650.9830010850001,19.746790000000004 644.184101085,19.1316 637.386001085,18.526719999999997 630.588801085,17.932270000000003 623.7924010849999,17.34838 616.996701085,16.77516 610.201501085,16.212720000000004 603.406701085,15.661180000000002 596.6121010850001,15.120600000000003 589.817401085,14.59104 583.022801085,14.072569999999999 576.2281010849999,13.565250000000006 569.4337010849999,13.069150000000008 562.639701085,12.58437 555.846401085,12.110990000000001 549.0543010849999,11.64913 542.263801085,11.198979999999999 535.4750010849999,10.760779999999997 528.6883010849999,10.334710000000001 521.903601085,9.920990000000003 515.120801085,9.51979 508.339701085,9.13131 501.560001085,8.75571 494.78130108499994,8.393140000000002 488.003301085,8.04365 481.22580108499994,7.707329999999999 474.448901085,7.384270000000001 467.67250108499996,7.074550000000002 460.897101085,6.778280000000002 454.123001085,6.495540000000005 447.350801085,6.226469999999999 440.581201085,5.971299999999999 433.814601085,5.730330000000002 427.05140108499995,5.503879999999995 420.29190108499995,5.292250000000003 413.536101085,5.095709999999997 406.78390108499997,4.914570000000005 400.03530108499996,4.7490900000000025 393.28970108499993,4.599550000000001 386.54690108499994,4.466140000000003 379.80680108499996,4.349040000000002 373.06910108499994,4.248450000000005 366.334101085,4.164570000000005 359.601801085,4.097580000000001 352.872801085,4.0476699999999965 346.147501085,4.015050000000002 339.426401085,4.0 332.710201085,4.002940000000002 325.999401085,4.024279999999997 319.294501085,4.064419999999998 312.595901085,4.123750000000001 305.904101085,4.2026500000000055 299.2193010849999,4.3015199999999965 292.54190108499995,4.420760000000001 285.87230108499995,4.560879999999997 279.21060108499995,4.722380000000001 272.557101085,4.905769999999997 265.91210108499996,5.111530000000002 259.27570108500004,5.3401700000000005 252.648301085,5.59216 246.030001085,5.868029999999997 239.421101085,6.16836 232.822401085,6.4937400000000025 226.23460108499998,6.844740000000002 219.658901085,7.221870000000003 213.096601085,7.625639999999997 206.549101085,8.056500000000007 200.018201085,8.51522 193.505701085,9.0028 187.013101085,9.520210000000006 180.542201085,10.068400000000004 174.09430108499998,10.648270000000004 167.671001085,11.260649999999998 161.273701085,11.906559999999999 154.904701085,12.587229999999998 148.566901085,13.30377 142.264401085,14.05706 136.001401085,14.847769999999997 129.783201085,15.676339999999996 123.615701085,16.543590000000002 117.50640108500001,17.45069 111.46410108500001,18.3983 105.498401085,19.386490000000002 99.619371085,20.41469 93.837911085,21.48216 88.169041085,22.58867 82.63329108500001,23.73227 77.253931085,24.90889 72.053931085,26.112730000000006 67.05359108500001,27.337179999999996 62.271901085,28.576600000000006 57.726491085,29.82445 53.429861085,31.073200000000007 49.387301085000004,32.315430000000006 45.596871085000004,33.54473 42.055011085,34.75799000000001 38.762771085000004,35.95246 35.719311085,37.1233 32.918011085,38.26559 30.346261085000002,39.37556000000001 27.987221085,40.45102 25.822551085,41.49226 23.833751085,42.50269 22.001871085,43.486180000000004 20.309141085000004,44.44633 18.739641085,45.38632 17.279531085000002,46.30894000000001 15.916841084999998,47.21655 14.641341085,48.111180000000004 13.446605085,48.99573 12.332201085,49.87419 11.298490085000001,50.74871 10.345350085,51.61998 9.471826085,52.48772 8.676027085000001,53.35111 7.955189085,54.209064 7.305834085,55.060409 6.723977085,55.904054 6.205883085,56.738253 5.749250085,57.559445000000004 5.351265085,58.365735 5.008834085,59.156906 4.719089885,59.933756 4.479650285,60.697687 4.288739685,61.45048 4.145261585,62.194175 4.048859445,62.931035 4.0,63.663560600000004 4.000000209,64.39456559999999 4.048860065,65.127092 4.145262585,65.863951 4.288741085,66.607646 4.479652085,67.360439 4.719092185,68.124371 5.008836085,68.90122 5.351268085,69.692392 5.7492540850000005,70.498682 6.205887085,71.319874 6.723981085,72.154073 7.305839085,72.997718 7.955195085,73.849063 8.676034085000001,74.70701 9.471833085,75.57041000000001 10.345357085,76.43815000000001 11.298498085,77.30942 12.332210085,78.18394 13.446615085,79.0624 14.641351085,79.94695 15.916861084999999,80.84158 17.279541084999998,81.74919 18.739661085,82.6718 20.309151085,83.6118 22.001891085,84.57195 23.833761085000003,85.55544 25.822571085000003,86.56587 27.987241085,87.60711 30.346281085,88.68257 32.918031084999996,89.79254 35.719341085,90.93483 38.762791085,92.10567 42.055041085000006,93.30014 45.596891085,94.51339 49.387321085,95.7427 53.429891085,96.98492999999999 57.726541085,98.23367999999999 62.271971085,99.48154 67.053691085,100.72095999999999 72.054061085,101.94542000000001 77.25406108499999,103.14927 82.633381085,104.32588 88.16906108500001,105.46948 93.837811085,106.57596000000001 99.619171085,107.6434 105.498101085,108.67156 111.464001085,109.65972000000001 117.506601085,110.60736 123.61640108499999,111.51453000000001 129.784401085,112.3819 136.003201085,113.21065 142.26640108499998,114.00158 148.569101085,114.75507 154.906501085,115.47177 161.275001085,116.15255 167.671401085,116.79846 174.093801085,117.41076 180.540801085,117.99045 187.011101085,118.53843 193.503301085,119.05562 200.015801085,119.543 206.54700108499998,120.00156000000001 213.09500108499998,120.43233000000001 219.658001085,120.83606 226.234401085,121.21321 232.822601085,121.56425 239.421701085,121.88969 246.030701085,122.19006999999999 252.64900108499998,122.46598 259.276301085,122.718 265.912401085,122.94664 272.557201085,123.1524 279.210501085,123.33578 285.872001085,123.49727 292.54160108499997,123.63737 299.219001085,123.7566 305.903801085,123.85546 312.595701085,123.93436 319.29440108499995,123.99369 325.999401085,124.03383 332.710201085,124.05517 339.4265010849999,124.05812 346.14760108499996,124.04307 352.87290108499997,124.01045 359.60190108499995,123.96054000000001 366.334101085,123.89355 373.06910108499994,123.80967 379.806701085,123.70908 386.54690108499994,123.59199000000001 393.28970108499993,123.45857000000001 400.035201085,123.30903 406.78390108499997,123.14355 413.536001085,122.9624 420.29190108499995,122.76587 427.05140108499995,122.55424000000001 433.814601085,122.32779 440.581201085,122.08682 447.350801085,121.83165 454.123001085,121.56257 460.897101085,121.27984000000001 467.67250108499996,120.98357 474.448901085,120.67385 481.22580108499994,120.35079 488.003301085,120.01447 494.78130108499994,119.66499 501.560001085,119.30241000000001 508.339701085,118.92681 515.120801085,118.53833 521.903601085,118.13713 528.6883010849999,117.72341 535.4750010849999,117.29734 542.263801085,116.85914 549.0543010849999,116.40899 555.846401085,115.94713 562.639701085,115.47373999999999 569.4337010849999,114.98897 576.228201085,114.49287 583.022801085,113.98555 589.817401085,113.46708000000001 596.612001085,112.93752 603.406701085,112.39695 610.201501085,111.8454 616.996701085,111.28297 623.7924010849999,110.70974000000001 630.588801085,110.12584 637.386101085,109.53139 644.184201085,108.92651000000001 650.9831010849999,108.31132 657.782801085,107.68596 664.5831010850001,107.05055999999999 671.383801085,106.40522000000001 678.184901085,105.75002 684.986101085,105.08503999999999 691.787201085,104.41038 698.5882010849999,103.72611 705.388801085,103.03232 712.189001085,102.32910000000001 718.9885010849999,101.61651 725.787301085,100.89455000000001 732.585401085,100.16327000000001 739.382901085,99.42266000000001 746.179901085,98.67274 752.976601085,97.91349 759.7733010850001,97.14492 766.5704010850001,96.36711 773.368001085,95.58017000000001 780.166301085,94.78423000000001 786.9654010849999,93.97943000000001 793.765201085,93.16592 800.565801085,92.34385 807.367001085,91.51333 814.1684010849999,90.67446 820.969701085,89.82731 827.770601085,88.97199 834.570401085,88.10862 841.368401085,87.23733 848.164101085,86.35819000000001 854.9572010850001,85.47117 861.7476010849999,84.57616 868.5360010850001,83.67301 875.323401085,82.7615 882.1113010849999,81.84141 888.900401085,80.91290000000001 895.6901010849999,79.97645 902.4782010849999,79.03274 909.260501085,78.08273 916.031601085,77.12737 922.785601085,76.16709 929.517201085,75.20213 936.221901085,74.23268 942.895501085,73.259145 949.5270010849999,72.284211 956.090701085,71.313234 962.548001085,70.353496 968.850701085,69.412116 974.9442010849999,68.494854 980.775001085,67.607827 986.296901085,66.75976 991.459701085,65.965289 996.221201085,65.23537 1000.5625010849999,64.5665655 1003.993801085,64.02906" stroke="black" stroke-width="2.0" /></svg>