<?xml version="1.0" encoding="utf-8" ?>
<svg baseProfile="full" height="200.24329" version="1.1" width="1011.999823875" xmlns="http://www.w3.org/2000/svg" xmlns:ev="http://www.w3.org/2001/xml-events" xmlns:xlink="http://www.w3.org/1999/xlink"><defs /><polygon fill="none" points="1003.999823875,173.4939 1000.526223875,172.274284 996.467123875,170.677692 992.302823875,168.985455 988.0148238749999,167.264403 983.594823875,165.56059 979.0264238749999,163.898006 974.2759238749999,162.28631 969.2974238749999,160.71191 964.057323875,159.14276 958.536323875,157.55724 952.718123875,155.9391 946.5901238749999,154.27661 940.148123875,152.56225 933.3958238749999,150.79469 926.3343238749999,148.97376 918.966323875,147.0953 911.315123875,145.15753 903.417723875,143.16916 895.296923875,141.13907 886.9645238749999,139.06653 878.4478238749999,136.95035 869.7879238749999,134.7978 861.021423875,132.61879 852.177123875,130.4202 843.2820238749999,128.20750999999998 834.361423875,125.98482999999999 825.431823875,123.75264999999999 816.497423875,121.50923 807.5574238749999,119.25417999999999 798.6131238749999,116.98819 789.668723875,114.71267 780.730723875,112.4297 771.807623875,110.14107 762.904623875,107.84613 754.020423875,105.54245999999999 745.149723875,103.22804 736.289323875,100.90225000000001 727.439523875,98.56528999999999 718.6013238749999,96.21706999999999 709.774023875,93.8569 700.9550238749999,91.48391 692.1421238749999,89.098 683.3355238749999,86.69966000000001 674.5372238749999,84.28954999999999 665.7500238749999,81.86829999999999 656.977423875,79.43661 648.2222238749999,76.99445 639.4842238749999,74.54051 630.7590238749999,72.0726 622.041423875,69.59009999999999 613.3305238749999,67.0941 604.630223875,64.58709999999999 595.948623875,62.07169999999999 587.296423875,59.551 578.686423875,57.02829999999999 570.1280238749999,54.5055 561.623823875,51.981999999999985 553.1702238749999,49.456999999999994 544.7744238749999,46.93820000000001 536.4680238749999,44.441400000000016 528.3021238749999,41.98419999999999 520.3278238749999,39.5745 512.579223875,37.21460000000002 505.072823875,34.911099999999976 497.803923875,32.6874 490.756823875,30.563199999999995 483.911223875,28.546899999999994 477.25742387500003,26.6104 470.792423875,24.717900000000014 464.515423875,22.839700000000022 458.420623875,20.972499999999997 452.494823875,19.152500000000003 446.729223875,17.415399999999977 441.118723875,15.79079999999999 435.655723875,14.296199999999999 430.314723875,12.937599999999975 425.054023875,11.716199999999986 419.820823875,10.62899999999999 414.566823875,9.659199999999998 409.257423875,8.790500000000009 403.87092387499996,8.010999999999996 398.39752387500005,7.312100000000015 392.83432387500005,6.687600000000003 387.183723875,6.131200000000007 381.454423875,5.636600000000016 375.65942387499996,5.202799999999996 369.808823875,4.833100000000002 363.907823875,4.530400000000014 357.95642387500004,4.296500000000009 351.953823875,4.130899999999997 345.902923875,4.0323999999999955 339.81112387499996,4.0 333.68792387499997,4.0338999999999885 327.541523875,4.134700000000009 321.378423875,4.302500000000009 315.203623875,4.537299999999988 309.023223875,4.838899999999995 302.845223875,5.2065000000000055 296.678323875,5.640199999999993 290.529623875,6.141199999999998 284.402823875,6.710800000000006 278.299123875,7.350099999999998 272.219023875,8.059699999999992 266.164423875,8.840000000000003 260.13732387500005,9.691599999999994 254.13782387500004,10.61590000000001 248.16172387499998,11.614900000000006 242.20142387500002,12.690400000000011 236.251223875,13.840399999999988 230.312123875,15.061099999999982 224.391823875,16.3485 218.498823875,17.701600000000013 212.63732387500002,19.120799999999974 206.807323875,20.606599999999986 201.008723875,22.157700000000006 195.244923875,23.771600000000007 189.522223875,25.4452 183.847523875,27.176299999999998 178.225823875,28.963199999999972 172.661123875,30.80419999999998 167.158123875,32.69669999999999 161.723723875,34.637400000000014 156.36582387500002,36.6233 151.089723875,38.65390000000002 145.89652387499999,40.729600000000005 140.784823875,42.84960000000001 135.756123875,45.00919999999999 130.816823875,47.201800000000006 125.976623875,49.42229999999999 121.242323875,51.6695 116.616623875,53.943299999999994 112.099223875,56.243700000000004 107.68992387499999,58.5697 103.389213875,60.9199 99.19754387500001,63.29249999999999 95.11452387500002,65.68589999999999 91.138813875,68.0989 87.26850387500001,70.52839999999999 83.503133875,72.9695 79.84401387500002,75.41593 76.293823875,77.86246999999999 72.854753875,80.30503 69.527633875,82.74016999999999 66.31236387499999,85.16461 63.208653874999996,87.57477 60.216173874999996,89.96687 57.33455387499999,92.33743 54.563193875,94.68375999999999 51.900623875,97.00381 49.344633875,99.29592 46.892423875,101.55819999999999 44.54131387499999,103.78837999999999 42.288753875,105.98416999999999 40.132503875,108.14381 38.070763875,110.26682 36.101063875,112.35341 34.220393875,114.40419 32.425123875,116.4196 30.711343875,118.39939 29.075483875,120.34316999999999 27.514173875,122.25050999999999 26.024623875,124.12137 24.604683875,125.95641 23.252053874999998,127.75654999999999 21.964233875,129.52281 20.738673875,131.25628999999998 19.572693875,132.9578 18.463663875,134.62806 17.409083875,136.26781 16.406513875,137.87777 15.453823875000001,139.45873999999998 14.549373875,141.01166 13.691614875,142.53737 12.879001875,144.03663 12.110016875000001,145.51015999999998 11.383185874999999,146.95848999999998 10.697029874999998,148.38208 10.049984875,149.78163999999998 9.440454875,151.1581 8.866863875,152.51254 8.327751875,153.84624 7.822074875,155.16057999999998 7.3491138750000005,156.45626 6.9083158749999996,157.73334 6.499182875000001,158.99137 6.121247875,160.22953 5.774713875,161.44644 5.4599438750000004,162.64111 5.176902875,163.813469 4.925298475,164.964101 4.704707375,166.09407 4.514669575,167.204769 4.354757575,168.29781599999998 4.224627175,169.37498399999998 4.124056975,170.438158 4.052980705,171.489314 4.011517055,172.5305094 4.0,173.56389671 4.019050785,174.591615 4.069661205,175.615125 4.152998475,176.634942 4.270265175,177.650688 4.425317175,178.659966 4.628080975,179.657537 4.889226375,180.638319 5.219444875,181.59776 5.6294358749999995,182.531403 6.125630875000001,183.427394 6.7107318750000005,184.26655 7.3886308750000005,185.02909 8.164448875,185.69531 9.034034875,186.26495 9.983766875,186.75447 10.997783875,187.18115 12.057042875,187.56345 13.146882875000001,187.91532999999998 14.266893875000001,188.23994 15.418593875000001,188.53958 16.603823875000003,188.81714 17.824883875,189.07614 19.084383875,189.32017 20.384513875,189.55061 21.727293875,189.7682 23.114743875000002,189.97388 24.548823875000004,190.16879 26.031313875000002,190.35432 27.564173875,190.5316 29.150343875,190.70056 30.793223875,190.86104 32.496523875,191.01292 34.264433875,191.15618 36.101693874999995,191.29092 38.013543874999996,191.41715 40.005693875,191.53476 42.084343874999995,191.64372 44.256233875,191.74414 46.528593875,191.83631 48.909273875,191.92043999999999 51.406943874999996,191.99613 54.031083875,192.06285 56.792103874999995,192.12014 59.701373875,192.16766 62.771383875,192.20481999999998 66.01571387499999,192.23046 69.448993875,192.24329 73.08700387500001,192.24199 76.946913875,192.2252 81.04680387500001,192.1917 85.404713875,192.14048 90.03790387500001,192.07084 94.962033875,191.98166 100.19034387500001,191.87093 105.73332387500001,191.73664 111.599223875,191.57698 117.791823875,191.39049 124.308523875,191.17629 131.14052387499999,190.93381 138.272923875,190.6624 145.687123875,190.36186 153.36242387500002,190.03287 161.273923875,189.67725 169.392023875,189.2974 177.684323875,188.89476 186.119023875,188.47054 194.667023875,188.02555999999998 203.305423875,187.55966999999998 212.019723875,187.07247999999998 220.799923875,186.56558 229.629123875,186.04233 238.482523875,185.50536 247.335823875,184.95288 256.174523875,184.38168 264.995123875,183.78786 273.808023875,183.16645499999998 282.638823875,182.511532 291.522023875,181.821954 300.482023875,181.102377 309.524923875,180.359033 318.64282387500003,179.597429 327.823723875,178.822304 337.053923875,178.038539 346.31882387499996,177.249989 355.602923875,176.460075 364.890623875,175.672271 374.169223875,174.889904 383.432823875,174.1157371 392.682523875,173.3516656 401.92182387500003,172.5979151 411.151523875,171.854432 420.369623875,171.121467 429.573023875,170.399788 438.759323875,169.690236 447.92772387499997,168.993541 457.078123875,168.31045799999998 466.21032387500003,167.641794 475.324023875,166.98836599999998 484.419023875,166.350985 493.497623875,165.730336 502.564823875,165.126922 511.626923875,164.540481 520.687223875,163.969895 529.7431238749999,163.41431 538.7870238749999,162.87373 547.8120238749999,162.34987999999998 556.816323875,161.84449999999998 565.8036238749999,161.35886 574.779723875,160.89294 583.7488238749999,160.44641 592.712823875,160.01904 601.6715238749999,159.61067 610.623623875,159.22114 619.5664238749999,158.85034 628.4968238749999,158.49854 637.4120238749999,158.16663 646.3101238749999,157.8555 655.190323875,157.56595 664.053223875,157.29864 672.901523875,157.05414 681.7400238749999,156.83285 690.571723875,156.63423 699.3940238749999,156.45752 708.1985238749999,156.30223999999998 716.9755238749999,156.16977 725.723423875,156.06243 734.450223875,155.98226 743.167223875,155.92888 751.876623875,155.90021 760.5675238749999,155.89431 769.2231238749999,155.91201 777.8356238749999,155.95643 786.4104238749999,156.03052 794.9583238749999,156.13452 803.4809238749999,156.26648 811.966723875,156.4245 820.399123875,156.60961 828.7697238749998,156.82464 837.080223875,157.07201 845.3339238749999,157.35154 853.5267238749999,157.662 861.6480238749999,158.0023 869.683623875,158.37225999999998 877.619323875,158.77161999999998 885.4415238749999,159.20078999999998 893.139723875,159.6608 900.7064238749999,160.15215 908.131423875,160.67351 915.3984238749999,161.22245999999998 922.4893238749999,161.79828 929.392923875,162.40225 936.1056238749999,163.03453 942.6213238749999,163.691304 948.9268238749999,164.36783499999999 955.008923875,165.06457699999999 960.862823875,165.784567 966.4915238749999,166.531852 971.904623875,167.31158399999998 977.1156238749999,168.125552 982.134923875,168.97021999999998 986.968123875,169.842006 991.6195238749999,170.738755 996.093423875,171.66295 1000.3976238749999,172.6222766 1003.999823875,173.4939" stroke="black" stroke-width="2.0" /></svg>