<?xml version="1.0" encoding="utf-8" ?>
<svg baseProfile="full" height="129.99569" version="1.1" width="1011.994922129" xmlns="http://www.w3.org/2000/svg" xmlns:ev="http://www.w3.org/2001/xml-events" xmlns:xlink="http://www.w3.org/1999/xlink"><defs /><polygon fill="none" points="1003.994922129,62.99785 1000.3867221290001,62.95848145 995.9552221289999,62.867141 991.2242221289999,62.7378837 986.190022129,62.5702506 980.8557221289999,62.3655903 975.236522129,62.1244658 969.354122129,61.846992 963.234022129,61.533677 956.904722129,61.185669 950.3950221289999,60.804584 943.733722129,60.392457 936.946922129,59.951422 930.057522129,59.483187 923.084022129,58.989452 916.0408221289999,58.471972 908.9404221289999,57.932627 901.7935221289999,57.373249 894.609022129,56.795139 887.393722129,56.199368 880.152122129,55.586909 872.8873221289999,54.958735000000004 865.601922129,54.315842 858.298222129,53.659218 850.978322129,52.98973 843.643922129,52.3082 836.2967221289999,51.61542 828.938022129,50.91212 821.568722129,50.19883 814.189522129,49.476079999999996 806.800722129,48.74433 799.402122129,48.00412 791.993922129,47.256029999999996 784.576422129,46.500659999999996 777.1500221289999,45.73861 769.715122129,44.97043 762.272422129,44.19659 754.822022129,43.41758 747.3643221289999,42.633880000000005 739.899422129,41.84594 732.427522129,41.054230000000004 724.9488221290001,40.259209999999996 717.4634221289999,39.46136 709.971622129,38.66113 702.474422129,37.85904 694.973122129,37.05565 687.469522129,36.251580000000004 679.9660221290001,35.44749 672.464422129,34.64398 664.9665221289999,33.84162 657.473222129,33.0409 649.985522129,32.24232 642.5036221290001,31.446349999999995 635.0279221289999,30.65347 627.5584221290001,29.864109999999997 620.095022129,29.07871 612.637522129,28.297630000000005 605.186022129,27.521189999999997 597.740322129,26.74975 590.300922129,25.98366 582.867822129,25.22332 575.441522129,24.46918 568.022122129,23.72168 560.609522129,22.98126 553.203522129,22.24832 545.803822129,21.523230000000005 538.410222129,20.806310000000003 531.022722129,20.09791 523.641422129,19.39837 516.2667221290001,18.70807 508.89892212899997,18.02747 501.538322129,17.35705 494.185022129,16.69728 486.839122129,16.0486 479.500422129,15.411459999999998 472.168822129,14.786259999999999 464.844222129,14.173389999999998 457.526822129,13.573269999999994 450.216622129,12.98632 442.914022129,12.412959999999998 435.619122129,11.85369 428.332322129,11.308980000000005 421.05362212899996,10.779319999999998 413.783422129,10.265170000000005 406.521822129,9.767029999999998 399.269022129,9.285420000000002 392.025222129,8.82083 384.790822129,8.373800000000003 377.56592212899994,7.944810000000004 370.351022129,7.534440000000004 363.146422129,7.143259999999998 355.95242212899996,6.771839999999997 348.76952212899994,6.420740000000002 341.597922129,6.090530000000001 334.438222129,5.781849999999999 327.29092212899997,5.495350000000002 320.15642212899996,5.231659999999998 313.03552212899996,4.9913799999999995 305.92882212899997,4.7752200000000045 298.83692212899996,4.583939999999998 291.760622129,4.4182599999999965 284.70062212899995,4.278910000000003 277.65742212899994,4.166620000000002 270.632022129,4.082170000000005 263.625122129,4.026380000000003 256.637822129,4.0 249.671422129,4.003799999999998 242.727022129,4.038629999999998 235.806222129,4.1054400000000015 228.910722129,4.205129999999997 222.042222129,4.338540000000002 215.202622129,4.506589999999996 208.394022129,4.710349999999998 201.618822129,4.95082 194.879422129,5.228919999999995 188.17862212900002,5.545549999999999 181.519622129,5.901780000000002 174.90622212899999,6.2985299999999995 168.342622129,6.736539999999998 161.833522129,7.216499999999996 155.38462212899998,7.7393 149.00222212900002,8.30556 142.693322129,8.915529999999997 136.465322129,9.56933 130.327322129,10.267119999999998 124.28922212900001,11.008419999999994 118.36182212899999,11.792120000000004 112.55632212900001,12.617009999999993 106.88522212900001,13.4816 101.36161212900001,14.383489999999995 95.997562129,15.319510000000001 90.804872129,16.286500000000004 85.79526212900001,17.280839999999998 80.97888212900001,18.298000000000002 76.36318212900001,19.333149999999996 71.953782129,20.38214 67.75464212900002,21.4407 63.766842129000004,22.504240000000003 59.988292129,23.568419999999996 56.41493212900001,24.630209999999998 53.041212129,25.687089999999998 49.859762128999996,26.73661 46.861582129000006,27.776580000000003 44.036972129000006,28.80552 41.37674212900001,29.823079999999997 38.871702129000006,30.828849999999996 36.512512129,31.82236 34.289772129,32.80315 32.194472129,33.771060000000006 30.218642129,34.72694 28.354652128999998,35.67174 26.594952129,36.60628 24.932322128999996,37.53124 23.359942129,38.44722 21.871752128999997,39.35492 20.463392129,40.25553 19.131052129,41.15002 17.871102129,42.03905 16.680042129,42.92304 15.554482129,43.80224 14.491172129,44.67679 13.487780129,45.547070000000005 12.542687129,46.41386 11.653908129,47.27815 10.819240129,48.141 10.036425129000001,49.0035 9.303258129,49.86676 8.617664129,50.731880000000004 7.9786651289999995,51.59949 7.386848129,52.46929 6.843017129,53.340459 6.347920129,54.211777 5.902108129,55.081758 5.505836129,55.948732 5.158995129,56.810934 4.860908729,57.666125 4.609975929,58.511763 4.404206029,59.346764 4.241665229,60.171326 4.120745029,60.986592 4.040342069,61.794439 4.0,62.5973702 4.000004954,63.3985256 4.040356809,64.201458 4.120769629,65.00930600000001 4.241699829,65.82457500000001 4.404250929,66.64913899999999 4.610031629,67.48414199999999 4.860975629,68.32978299999999 5.159074129,69.184976 5.505926129000001,70.04718 5.902211129,70.914154 6.348035128999999,71.784136 6.843144129000001,72.655454 7.386986129,73.52662 7.978815128999999,74.39642 8.617825129,75.26404 9.303431129,76.12915 10.036610129,76.99241 10.819437129,77.85491 11.654118129,78.71776 12.542911129000002,79.58205 13.488017129000001,80.44885 14.491432129000001,81.31912 15.554752129,82.19368 16.680332129,83.07287 17.871402129000003,83.95686 19.131372129,84.8459 20.463722128999997,85.74038999999999 21.872112129,86.641 23.360312129,87.5487 24.932712129,88.46468 26.595362128999998,89.38965 28.355092129,90.32419 30.219112129,91.26899 32.194962129,92.22487 34.290302129,93.19279 36.513062129000005,94.17358 38.872292129,95.16709 41.377362129000005,96.17286999999999 44.037632129,97.19042999999999 46.862282129,98.21937 49.860492129,99.25933 53.041992129,100.30886 56.41576212900001,101.36574 59.989182129,102.42753 63.767782129,103.49172 67.755612129,104.55527000000001 71.954772129,105.61382 76.364152129,106.66279 80.979832129,107.6979 85.796222129,108.71501 90.805912129,109.70928 95.998762129,110.67625000000001 101.363052129,111.61228 106.886922129,112.51422 112.558022129,113.37887 118.363522129,114.2038 124.29092212900001,114.98751 130.328922129,115.72879 136.466822129,116.42654999999999 142.694822129,117.08033 149.00372212899998,117.69028 155.386222129,118.25653 161.835122129,118.77932 168.344222129,119.25928 174.907822129,119.69727 181.521322129,120.09401 188.180322129,120.45023 194.881122129,120.76686000000001 201.62052212900002,121.04494 208.395722129,121.28541 215.204322129,121.48916 222.043922129,121.65719999999999 228.912422129,121.7906 235.808022129,121.89028 242.728722129,121.95707999999999 249.673122129,121.99190999999999 256.639522129,121.99569 263.626822129,121.96931000000001 270.633722129,121.91351 277.659222129,121.82906 284.702322129,121.71676 291.76242212899996,121.5774 298.83872212899996,121.41172 305.930522129,121.22043 313.037222129,121.00426 320.15822212899997,120.76398 327.292622129,120.50028 334.44002212899994,120.21377000000001 341.59972212899993,119.90509 348.77132212899994,119.57488000000001 355.95422212899996,119.22377 363.148222129,118.85235 370.352822129,118.46116 377.56772212899995,118.05079 384.792622129,117.62180000000001 392.027022129,117.17475 399.270822129,116.71017 406.523622129,116.22854 413.785222129,115.7304 421.05542212899996,115.21625 428.334122129,114.68659 435.620922129,114.14188 442.915822129,113.5826 450.21852212899995,113.00924 457.528622129,112.42228 464.846022129,111.82216 472.1706221289999,111.20929000000001 479.502222129,110.58408 486.840922129,109.94694 494.186822129,109.29826 501.540122129,108.63849 508.9007221289999,107.96806 516.268522129,107.28746000000001 523.6432221289999,106.59716 531.0245221289999,105.89761999999999 538.412022129,105.18921 545.805622129,104.47229 553.2053221289999,103.74719 560.611322129,103.01426000000001 568.023922129,102.27383 575.443422129,101.52634 582.8696221289999,100.7722 590.3026221289999,100.01185 597.742122129,99.24576 605.187822129,98.47431 612.639422129,97.69786 620.0969221290001,96.91677 627.560422129,96.13138000000001 635.0299221289999,95.34205 642.505622129,94.5492 649.9874221289999,93.75327 657.4749221289999,92.95472 664.967922129,92.15403 672.4656221289999,91.35167 679.966822129,90.54816 687.470122129,89.74405999999999 694.973522129,88.94 702.4747221289999,88.13662 709.971822129,87.33454 717.463522129,86.53432000000001 724.9488221290001,85.73648 732.427622129,84.94147 739.899522129,84.14976 747.3643221289999,83.36182 754.822022129,82.57811 762.272422129,81.79911 769.715122129,81.02527 777.1500221289999,80.25709 784.576422129,79.49504 791.993922129,78.73967 799.402122129,77.99158 806.800722129,77.25137 814.189522129,76.51962 821.568722129,75.79687 828.937922129,75.08358 836.2967221289999,74.38028 843.643922129,73.68751 850.978322129,73.00597 858.298222129,72.336485 865.601922129,71.679854 872.8873221289999,71.036955 880.152022129,70.40878599999999 887.393522129,69.796348 894.6088221289999,69.200611 901.7934221290001,68.622527 908.9404221289999,68.063149 916.041022129,67.523773 923.084222129,67.006255 930.057622129,66.512501 936.947022129,66.04426699999999 943.733722129,65.603241 950.3950221289999,65.19111699999999 956.904722129,64.81003100000001 963.234022129,64.46202199999999 969.354122129,64.148708 975.236522129,63.8712341 980.8557221289999,63.6301096 986.190022129,63.4254494 991.2242221289999,63.2578163 995.9552221289999,63.128559 1000.3867221290001,63.03721855 1003.994922129,62.99785" stroke="black" stroke-width="2.0" /></svg>