<?xml version="1.0" encoding="utf-8" ?>
<svg baseProfile="full" height="162.00068" version="1.1" width="1011.995772785" xmlns="http://www.w3.org/2000/svg" xmlns:ev="http://www.w3.org/2001/xml-events" xmlns:xlink="http://www.w3.org/1999/xlink"><defs /><polygon fill="none" points="1003.995772785,79.00034 999.8937727849999,78.93875453999999 994.9687727849999,78.8020495 989.820072785,78.6087503 984.443472785,78.3684054 978.836972785,78.0807574 972.999072785,77.746067 966.932672785,77.365286 960.644672785,76.93851199999999 954.143672785,76.466083 947.440472785,75.948455 940.547372785,75.38658699999999 933.478572785,74.781576 926.248472785,74.13474799999999 918.871572785,73.447679 911.362172785,72.72201 903.733772785,71.959621 895.9990727850001,71.162325 888.169672785,70.331971 880.255772785,69.470435 872.266772785,68.57946999999999 864.210572785,67.66085999999999 856.094472785,66.71631 847.9244727849999,65.74735999999999 839.705872785,64.75559 831.443072785,63.74244999999999 823.140172785,62.7093 814.8002727850001,61.657489999999996 806.426272785,60.58830999999999 798.020672785,59.50295 789.585572785,58.40262999999999 781.1228727849999,57.2885 772.634272785,56.16167 764.121372785,55.023239999999994 755.585872785,53.87432 747.0291727849999,52.71598999999999 738.452772785,51.54933 729.8582727849999,50.375449999999994 721.2472727850001,49.195449999999994 712.6222727850001,48.01051 703.986272785,46.82196 695.3433727849999,45.63119999999999 686.697772785,44.43966999999999 678.053172785,43.24876 669.4133727850001,42.059819999999995 660.781472785,40.87414 652.160072785,39.69288999999999 643.551272785,38.517149999999994 634.956272785,37.34791 626.375972785,36.186069999999994 617.811072785,35.03249999999999 609.262172785,33.88804999999999 600.729672785,32.753539999999994 592.213972785,31.629749999999994 583.715272785,30.517459999999993 575.2338727849999,29.417439999999992 566.7698727850001,28.330429999999993 558.3233727850001,27.257159999999992 549.8946727849999,26.198379999999993 541.483672785,25.154799999999994 533.090672785,24.127139999999997 524.715672785,23.116139999999994 516.358972785,22.122519999999994 508.020472785,21.146989999999995 499.70057278499996,20.190269999999998 491.39937278499997,19.25307999999999 483.117072785,18.33616999999999 474.853972785,17.44025 466.61027278499995,16.566039999999994 458.38637278499993,15.714299999999994 450.18247278499996,14.885779999999997 441.998972785,14.081209999999984 433.836372785,13.301320000000004 425.694972785,12.546899999999994 417.57537278499996,11.818719999999999 409.478072785,11.117540000000005 401.40357278499994,10.444119999999998 393.352572785,9.79925999999999 385.325672785,9.183779999999999 377.323672785,8.598469999999992 369.347472785,8.044089999999997 361.397772785,7.521499999999989 353.475672785,7.031530000000004 345.582172785,6.575009999999992 337.718372785,6.152730000000005 329.88557278499997,5.765550000000005 322.085072785,5.414360000000002 314.318372785,5.099980000000002 306.587172785,4.823219999999992 298.89307278499996,4.58493 291.238072785,4.385999999999996 283.624372785,4.227270000000004 276.054172785,4.109479999999991 268.53007278499996,4.033439999999985 261.05477278499995,4.0 253.631472785,4.009889999999999 246.263372785,4.0637399999999815 238.95397278500002,4.162179999999992 231.70727278500001,4.305899999999994 224.52767278500002,4.495369999999994 217.41967278500002,4.730899999999991 210.38827278500003,5.0127800000000065 203.43887278500003,5.341259999999991 196.577272785,5.716359999999995 189.80957278500003,6.137769999999989 183.141872785,6.605109999999996 176.581072785,7.117979999999989 170.134072785,7.6755899999999855 163.80767278500002,8.276759999999996 157.608472785,8.920159999999981 151.543272785,9.604439999999997 145.618972785,10.32781 139.841572785,11.08807999999999 134.216372785,11.882899999999992 128.748572785,12.710099999999997 123.442372785,13.5672 118.301172785,14.451439999999991 113.32707278500001,15.359899999999989 108.521172785,16.290010000000002 103.884052785,17.23926999999999 99.415312785,18.205049999999993 95.113332785,19.184639999999995 90.975532785,20.175489999999996 86.998862785,21.175689999999996 83.179762785,22.183409999999995 79.514042785,23.19682999999999 75.996872785,24.21416999999999 72.623002785,25.233789999999992 69.38721278499999,26.25461999999999 66.284372785,27.275859999999994 63.309182785,28.29668999999999 60.456262785,29.316279999999992 57.720132785,30.33384999999999 55.095392785,31.348719999999993 52.577132784999996,32.36069 50.160742785,33.36977999999999 47.841612784999995,34.375919999999994 45.615232784999996,35.37902 43.477182785000004,36.37894999999999 41.423182785,37.375589999999995 39.449262784999995,38.3689 37.552142785,39.35923 35.728752785,40.346959999999996 33.976092785000006,41.33232999999999 32.291222785,42.315549999999995 30.671282785,43.29676 29.113522785,44.27605 27.615302785,45.25348999999999 26.174592784999998,46.22935999999999 24.789772785,47.20410999999999 23.459172785,48.178149999999995 22.181112785,49.15186 20.953872785,50.12558 19.775772785,51.099599999999995 18.645132785,52.074189999999994 17.560382785,53.0496 16.520512785,54.02606999999999 15.525132785,55.00381999999999 14.573812785,55.982989999999994 13.666075785,56.963699999999996 12.801399785,57.945989999999995 11.979213785,58.92988999999999 11.198910784999999,59.91539999999999 10.459855784999998,60.90248 9.761709784999999,61.89086999999999 9.104556785,62.880089999999996 8.488350785,63.86982999999999 7.912908785,64.85992999999999 7.377971785,65.85041999999999 6.883236785,66.84143999999999 6.428395785,67.83322 6.013153785,68.82605 5.637267785,69.819566 5.300649785,70.81260699999999 5.0033257849999995,71.80364999999999 4.745340785,72.79086099999999 4.526663985,73.772165 4.347121185,74.74531499999999 4.206095785,75.708084 4.102182285,76.659521 4.033874585,77.60076199999999 4.0,78.53472989999999 4.0,79.4659501 4.033874585,80.399918 4.102182285,81.34115899999999 4.206095785,82.29259599999999 4.347121185,83.255365 4.526663985,84.22851499999999 4.745340785,85.209819 5.0033257849999995,86.19703 5.300649785,87.188073 5.637267785,88.181114 6.013153785,89.17463 6.428395785,90.16745999999999 6.883236785,91.15924 7.377971785,92.15025999999999 7.912908785,93.14075 8.488350785,94.13085 9.104556785,95.12058999999999 9.761709784999999,96.10981 10.459855784999998,97.09819999999999 11.198910784999999,98.08528 11.979213785,99.07078999999999 12.801399785,100.05469 13.666075785,101.03698 14.573812785,102.01768999999999 15.525132785,102.99686 16.520512785,103.97461 17.560382785,104.95107999999999 18.645132785,105.92649 19.775772785,106.90108 20.953872785,107.87509999999999 22.181112785,108.84881999999999 23.459172785,109.82253 24.789772785,110.79657 26.174592784999998,111.77132 27.615302785,112.74718999999999 29.113522785,113.72462999999999 30.671282785,114.70391999999998 32.291222785,115.68512999999999 33.976092785000006,116.66835 35.728752785,117.65371999999999 37.552142785,118.64144999999999 39.449262784999995,119.63177999999999 41.423182785,120.62509 43.477182785000004,121.62173 45.615232784999996,122.62165999999999 47.841612784999995,123.62476 50.160742785,124.6309 52.577132784999996,125.63998999999998 55.095392785,126.65196 57.720132785,127.66683 60.456262785,128.68439999999998 63.309182785,129.70399 66.284372785,130.72482 69.38721278499999,131.74606 72.623002785,132.76689 75.996872785,133.78651 79.514042785,134.80385 83.179762785,135.81727 86.998862785,136.82498999999999 90.975532785,137.82519 95.113332785,138.81604 99.415312785,139.79563 103.884052785,140.76141 108.521172785,141.71067 113.32707278500001,142.64078 118.301172785,143.54924 123.442372785,144.43347999999997 128.748572785,145.29057999999998 134.216372785,146.11777999999998 139.841572785,146.9126 145.618972785,147.67287 151.543272785,148.39623999999998 157.608472785,149.08052 163.80767278500002,149.72392 170.134072785,150.32509 176.581072785,150.8827 183.141872785,151.39557 189.80957278500003,151.86291 196.577272785,152.28431999999998 203.43887278500003,152.65942 210.38827278500003,152.98789999999997 217.41967278500002,153.26978 224.52767278500002,153.50531 231.70727278500001,153.69477999999998 238.95397278500002,153.8385 246.263372785,153.93694 253.631472785,153.99079 261.05477278499995,154.00068 268.53007278499996,153.96724 276.054172785,153.8912 283.624372785,153.77340999999998 291.238072785,153.61468 298.89307278499996,153.41575 306.587172785,153.17746 314.318372785,152.90069999999997 322.085072785,152.58632 329.88557278499997,152.23512999999997 337.718372785,151.84794999999997 345.582172785,151.42567 353.475672785,150.96914999999998 361.397772785,150.47917999999999 369.347472785,149.95659 377.323672785,149.40221 385.325672785,148.81689999999998 393.352572785,148.20141999999998 401.40357278499994,147.55656 409.478072785,146.88313999999997 417.57537278499996,146.18196 425.694972785,145.45378 433.836372785,144.69935999999998 441.998972785,143.91947 450.18247278499996,143.11489999999998 458.38637278499993,142.28638 466.61027278499995,141.43464 474.853972785,140.56043 483.117072785,139.66451 491.39937278499997,138.7476 499.70057278499996,137.81041 508.020472785,136.85369 516.358972785,135.87815999999998 524.715672785,134.88454 533.090672785,133.87354 541.483672785,132.84588 549.8946727849999,131.8023 558.3233727850001,130.74352 566.7698727850001,129.67025 575.2338727849999,128.58324 583.715272785,127.48321999999999 592.213972785,126.37092999999999 600.729672785,125.24714 609.262172785,124.11263 617.811072785,122.96817999999999 626.375972785,121.81460999999999 634.956272785,120.65276999999999 643.551272785,119.48353 652.160072785,118.30779 660.781472785,117.12653999999999 669.4133727850001,115.94085999999999 678.053172785,114.75191999999998 686.697772785,113.56101 695.3433727849999,112.36948 703.986272785,111.17872 712.6222727850001,109.99016999999999 721.2472727850001,108.80523 729.8582727849999,107.62522999999999 738.452772785,106.45134999999999 747.0291727849999,105.28469 755.585872785,104.12635999999999 764.121372785,102.97744 772.634272785,101.83900999999999 781.1228727849999,100.71217999999999 789.585572785,99.59805 798.020672785,98.49772999999999 806.426272785,97.41237 814.8002727850001,96.34318999999999 823.140172785,95.29137999999999 831.443072785,94.25823 839.705872785,93.24508999999999 847.9244727849999,92.25331999999999 856.094472785,91.28437 864.210572785,90.33981999999999 872.266772785,89.42121 880.255772785,88.530245 888.169672785,87.66870899999999 895.9990727850001,86.83835499999999 903.733772785,86.04105899999999 911.362172785,85.27866999999999 918.871572785,84.553001 926.248472785,83.865932 933.478572785,83.21910399999999 940.547372785,82.614093 947.440472785,82.05222499999999 954.143672785,81.53459699999999 960.644672785,81.062168 966.932672785,80.63539399999999 972.999072785,80.25461299999999 978.836972785,79.91992259999999 984.443472785,79.63227459999999 989.820072785,79.39192969999999 994.9687727849999,79.1986305 999.8937727849999,79.06192546 1003.995772785,79.00034" stroke="black" stroke-width="2.0" /></svg>