<?xml version="1.0" encoding="utf-8" ?>
<svg baseProfile="full" height="124.04835" version="1.1" width="1011.99811835" xmlns="http://www.w3.org/2000/svg" xmlns:ev="http://www.w3.org/2001/xml-events" xmlns:xlink="http://www.w3.org/1999/xlink"><defs /><polygon fill="none" points="1003.99811835,90.76173 1000.83171835,90.0544319 996.7025183500001,89.141066 992.07301835,88.130578 986.9907183500001,87.038421 981.53301835,85.885045 975.77971835,84.68849900000001 969.81201835,83.463395 963.69901835,82.22133 957.49261835,80.972292 951.22821835,79.72289 944.92401835,78.476 938.5908183500001,77.23303 932.23631835,75.99462 925.8650183500001,74.76088 919.48101835,73.53185 913.08831835,72.30763999999999 906.6916183500001,71.08847 900.29481835,69.87525 893.89971835,68.66885 887.50621835,67.46975 881.11181835,66.27796000000001 874.71371835,65.09270000000001 868.31011835,63.91315 861.90091835,62.73874 855.48751835,61.569230000000005 849.0727183500001,60.404939999999996 842.6590183500001,59.246700000000004 836.24801835,58.09522 829.84041835,56.951040000000006 823.43621835,55.81456 817.03481835,54.685970000000005 810.63531835,53.56535 804.23681835,52.45279 797.8381183500001,51.34835 791.43821835,50.25206 785.03611835,49.163810000000005 778.6311183500001,48.08332 772.22311835,47.01044 765.8128183499999,45.94508 759.40111835,44.887240000000006 752.98971835,43.83714 746.57971835,42.79529 740.17201835,41.76219 733.76671835,40.738209999999995 727.36311835,39.72361 720.96011835,38.718579999999996 714.5563183500001,37.72295 708.15041835,36.73642 701.74181835,35.75876 695.33031835,34.78982 688.91641835,33.8295 682.5010183500001,32.87785 676.0852183500001,31.93517 669.66981835,31.001820000000002 663.2556183500001,30.078139999999998 656.84301835,29.164429999999996 650.4322183500001,28.260949999999994 644.02331835,27.367939999999997 637.6161183500001,26.485709999999997 631.21061835,25.61457 624.80691835,24.75488 618.40531835,23.906990000000008 612.0060183500001,23.071270000000013 605.6094183499999,22.248109999999997 599.21601835,21.438000000000002 592.82581835,20.64143 586.43891835,19.858869999999996 580.05521835,19.09075 573.67421835,18.337490000000003 567.29551835,17.599459999999993 560.91851835,16.876909999999995 554.5428183500001,16.17004 548.16841835,15.479100000000003 541.7950183500001,14.804339999999996 535.42281835,14.14603000000001 529.05191835,13.504470000000012 522.68281835,12.880039999999994 516.3157183500001,12.273110000000003 509.9508183500001,11.684079999999994 503.58851835,11.113330000000005 497.22901835000005,10.561230000000009 490.87261835000004,10.028170000000003 484.51951835,9.514589999999998 478.16981835,9.02095 471.82361835000006,8.547709999999995 465.48081835000005,8.095309999999998 459.14141835,7.664179999999988 452.80521835,7.254750000000001 446.47191835,6.867419999999996 440.14171835,6.502579999999995 433.81451835,6.160640000000001 427.49081835000004,5.84199000000001 421.17071835,5.54704000000001 414.85491835000005,5.276210000000006 408.54381835000004,5.030000000000001 402.2377183500001,4.808930000000004 395.93671835000004,4.613499999999988 389.64051835000004,4.444199999999995 383.34871835,4.301520000000011 377.06061835,4.185929999999999 370.77571835000003,4.097719999999995 364.4936183500001,4.037150000000011 358.21441835,4.004490000000004 351.93841835,4.0 345.66641835,4.023949999999999 339.39921835,4.076629999999994 333.13791835,4.158519999999996 326.88311835,4.270120000000006 320.63491835,4.411929999999998 314.39321835,4.584450000000004 308.15751835000003,4.788199999999989 301.92681835,5.023619999999994 295.70071835,5.290959999999998 289.47901835,5.590450000000004 283.26191835000003,5.922300000000007 277.05011835000005,6.286689999999993 270.84471835,6.683809999999994 264.64701835000005,7.114049999999992 258.45831835,7.577940000000012 252.27971835,8.07602 246.11201835,8.608809999999991 239.95591835,9.176840000000013 233.81171835,9.780689999999993 227.68001834999998,10.421019999999999 221.56121835000002,11.098489999999998 215.45581835,11.813759999999988 209.36401834999998,12.567490000000006 203.28631835,13.360330000000005 197.22341834999997,14.192990000000009 191.17611835,15.066130000000001 185.14601835,15.980310000000003 179.13471835,16.936009999999996 173.14421835,17.933720000000008 167.17701835,18.97435999999999 161.23511835,20.058970000000002 155.32021834999998,21.188550000000006 149.43401835,22.36408 143.57791835,23.586600000000004 137.75341835,24.85732 131.96201835,26.17737000000001 126.20541835,27.547840000000008 120.48501835,28.969749999999998 114.80311835,30.444209999999998 109.16351835,31.97209 103.57144835,33.55361 98.03333835000001,35.18837 92.55704834999999,36.87613 87.15081835,38.61762 81.82202835,40.41337 76.57710834999999,42.26367 71.42249835,44.16845 66.36811835,46.12612 61.42759835,48.13264 56.61684835,50.181659999999994 51.95603835,52.26529 47.474598349999994,54.3712 43.20550835,56.4815 39.17780835,58.57601 35.415088350000005,60.635310000000004 31.93345835,62.640789999999996 28.73667835,64.57717 25.81783835,66.43467 23.17446835,68.20521 20.80618835,69.87719 18.702018350000003,71.44269 16.83985835,72.90082 15.19280835,74.25869 13.73272235,75.53017 12.431822350000001,76.72933 11.26590035,77.86835 10.21491735,78.95727 9.262595350000002,80.00421 8.39897135,81.016004 7.62253535,81.997098 6.93254735,82.948693 6.32700835,83.87042 5.80232235,84.761506 5.35349535,85.621394 4.97458985,86.450014 4.66042645,87.24736 4.40929415,88.013942 4.21898585,88.75369 4.08747651,89.472463 4.01404937,90.1769955 4.0,90.8747569 4.04742325,91.5729327 4.15675935,92.275247 4.33057075,92.98312 4.57380765,93.695703 4.89331715,94.408945 5.2965373499999995,95.115 5.78780435,95.809236 6.36920835,96.489913 7.04162535,97.155449 7.80440235,97.804551 8.65500535,98.436416 9.58865835,99.05102 10.602384350000001,99.64913200000001 11.70495135,100.231533 12.90932635,100.79948 14.231108350000001,101.35519 15.688738350000001,101.90245 17.303048349999997,102.44761 19.096298349999998,102.99877 21.095498349999996,103.55706 23.330928349999997,104.12086 25.832348349999997,104.68861 28.62873835,105.26056 31.75617835,105.83972 35.25903835,106.4251 39.17280835,107.01461 43.512188349999995,107.60807 48.26505835,108.20376999999999 53.38545835,108.79196 58.80237835,109.36437000000001 64.45386835,109.91772 70.29340835,110.44889 76.27390835,110.95577 82.35270835,111.43812 88.49646835,111.89445 94.68097835,112.32283 100.89260835,112.72246 107.12841834999999,113.09376 113.38901835,113.43818 119.67321835,113.7572 125.97801835,114.05227 132.29851835,114.32441 138.63041835,114.57405 144.97091835,114.80166 151.31881835,115.00781 157.67441835,115.19314 164.03831835,115.35837000000001 170.41081835,115.50421 176.79191835,115.63132999999999 183.18101835000002,115.74045 189.57721834999998,115.83214000000001 195.97991835000002,115.90695 202.38871835,115.96540999999999 208.80371835,116.00809 215.22511835,116.03554 221.65331834999998,116.04835 228.08811835,116.04714 234.52931834999998,116.03249 240.97611834999998,116.00503 247.42761835,115.96534 253.88251835,115.91372 260.3403183500001,115.85041 266.80031835,115.77564 273.26281835000003,115.68963 279.72801835000007,115.59262 286.19651835,115.48494 292.66871835,115.36696 299.14481835000004,115.23907 305.62491835,115.10166 312.10871835000006,114.95512 318.59571835,114.79979 325.08561835000006,114.63592 331.57771835000005,114.46374 338.07161835000005,114.28348 344.56681835,114.09539 351.06291835,113.89968999999999 357.55931835000007,113.69642999999999 364.05561835,113.48558 370.55141835000006,113.2671 377.04641835,113.04098 383.54021835000003,112.80717 390.03271835000004,112.56564 396.52361835000005,112.31634 403.01321835000005,112.05919 409.50191835000004,111.79411 415.99061835000003,111.521 422.48001835,111.23974 428.97151835000005,110.9504 435.46601835000007,110.6533 441.96431835000004,110.3488 448.46651835,110.03729 454.97261835,109.71916999999999 461.48201835000003,109.39487 467.99421835000004,109.06475 474.50851835000003,108.72912 481.02491835,108.38824 487.54391835000007,108.04237 494.06621835000004,107.69174 500.59301835,107.33657 507.12571835000006,106.97734 513.6651183500001,106.61479 520.21131835,106.2497 526.76341835,105.8829 533.31981835,105.51527 539.87811835,105.14771999999999 546.43561835,104.78096 552.99031835,104.41553 559.54081835,104.05195 566.0865183500001,103.69068 572.62761835,103.33214 579.1651183500001,102.97668 585.70011835,102.62441 592.23361835,102.27542 598.76631835,101.92979 605.29841835,101.58762 611.83001835,101.24905 618.36081835,100.91422 624.89041835,100.58327 631.4186183500001,100.256354 637.94551835,99.933605 644.47131835,99.615148 650.99631835,99.3011 657.52121835,98.991523 664.04651835,98.686371 670.57231835,98.385593 677.0987183500001,98.089147 683.6256183500001,97.797002 690.15251835,97.50914 696.67871835,97.225625 703.20391835,96.946617 709.72771835,96.672273 716.2500183500001,96.402742 722.77111835,96.138161 729.29131835,95.878658 735.8109183500001,95.62433 742.33001835,95.375267 748.8485183500001,95.131575 755.3657183500001,94.893368 761.88081835,94.660774 768.39261835,94.434032 774.90031835,94.213574 781.4037183500001,93.999828 787.90311835,93.793203 794.39961835,93.594088 800.8946183500001,93.402798 807.38941835,93.219396 813.8843183500001,93.043911 820.37881835,92.87639300000001 826.87121835,92.716919 833.35911835,92.565676 839.84031835,92.423279 846.31451835,92.290422 852.78351835,92.167754 859.25041835,92.055898 865.7203183500001,91.955011 872.1967183500001,91.864357 878.68061835,91.783144 885.1701183499999,91.7106051 891.66091835,91.6461377 898.14851835,91.5900058 904.6323183500001,91.5427537 911.1156183500001,91.5048993 917.60571835,91.4765748 924.1094183499999,91.4558454 930.62811835,91.4400871 937.15661835,91.4266752 943.68281835,91.4137874 950.18561835,91.4007177 956.6356183500001,91.3868329 962.9969183500001,91.3692446 969.23121835,91.3420099 975.3014183500001,91.3001013 981.15461835,91.2418994 986.70641835,91.1685003 991.86731835,91.0804461 996.56481835,90.9783024 1000.76361835,90.8651508 1003.99811835,90.76173" stroke="black" stroke-width="2.0" /></svg>