<?xml version="1.0" encoding="utf-8" ?>
<svg baseProfile="full" height="142.08884" version="1.1" width="1012.1570728" xmlns="http://www.w3.org/2000/svg" xmlns:ev="http://www.w3.org/2001/xml-events" xmlns:xlink="http://www.w3.org/1999/xlink"><defs /><polygon fill="none" points="1004.1570728,83.38383 1001.0950728,82.89573730000001 997.3853728,82.304413 993.4638728000001,81.679332 989.3072728,81.016756 984.8894728,80.312567 980.1830728,79.562366 975.1601728,78.761713 969.7954728000001,77.906577 964.0712728000001,76.99414800000001 957.9854728,76.02407000000001 951.5612728000001,75.000057 944.8544728,73.931004 937.9452728,72.82968 931.0097728000001,71.72418 924.1127728000001,70.62480000000001 917.2021728000001,69.52324 910.2473728000001,68.41464 903.2915728,67.30587 896.3746728000001,66.20329000000001 889.4765728000001,65.10371 882.5808728000001,64.00451000000001 875.6752728,62.90374 868.7516728,61.80012000000001 861.8060728,60.693020000000004 854.8387728,59.58249000000001 847.8599728,58.47014 840.8889728,57.35907 833.9225728000001,56.24871 826.9561728,55.138310000000004 819.9863728,54.027330000000006 813.0113728000001,52.915440000000004 806.0305728000001,51.80254000000001 799.0515728,50.68979 792.0765728,49.57762 785.1043728000001,48.46592 778.1336728,47.35456 771.1634728,46.24345 764.1926728000001,45.13255 757.2207728000001,44.02179 750.2468728,42.91116 743.2707728,41.800470000000004 736.2931728,40.68952 729.3154728000001,39.57824000000001 722.3402728000001,38.4667 715.3709728,37.355160000000005 708.4121728,36.24401 701.4689728000001,35.13382 694.5468728000001,34.026360000000004 687.6501728,32.924780000000005 680.7809728,31.83195 673.9400728,30.750410000000002 667.1262728,29.682389999999998 660.3369728000001,28.629820000000002 653.5683728,27.594380000000008 646.8150727999999,26.577110000000005 640.0723728,25.57777 633.3362728000001,24.596050000000005 626.6037728,23.63183 619.8730728,22.685150000000007 613.1431728,21.756190000000004 606.4139728,20.84527 599.6865728000001,19.95286 592.9622728,19.07959000000001 586.2426728,18.226169999999996 579.5285728000001,17.39325000000001 572.8209728,16.581410000000005 566.1200728,15.791200000000003 559.4263728,15.023130000000009 552.7395728,14.277640000000005 546.0593728,13.555179999999993 539.3853728,12.856150000000014 532.7171728,12.18095000000001 526.0544728,11.530010000000004 519.3968728000001,10.903740000000013 512.7441727999999,10.302570000000003 506.0958728,9.726910000000004 499.45187279999993,9.177180000000007 492.8118728,8.653670000000005 486.17547279999997,8.156570000000002 479.5424728,7.686099999999996 472.91257279999996,7.242440000000002 466.28517279999994,6.825820000000007 459.6599728,6.436440000000005 453.0363728,6.07453000000001 446.4138728,5.74033 439.7923728,5.434200000000004 433.1722728,5.156520000000015 426.5544728,4.907680000000013 419.94067279999996,4.6880900000000025 413.33297279999994,4.49812 406.7340728,4.338150000000013 400.1469728,4.208490000000012 393.5748728,4.109499999999997 387.0187728,4.041540000000012 380.47717279999995,4.004920000000013 373.9464728,4.0 367.4206728,4.027220000000014 360.8916728,4.087150000000008 354.3488728,4.180580000000006 347.77917279999997,4.308000000000007 341.1701728,4.467510000000004 334.51287279999997,4.656559999999999 327.8030728,4.872400000000013 321.0417728,5.1120400000000075 314.2352728,5.372070000000008 307.39627279999996,5.648590000000013 300.5441728,5.937420000000003 293.70177279999996,6.237650000000002 286.8889728,6.551739999999995 280.1194728,6.882310000000004 273.40127279999996,7.232029999999995 266.73697279999993,7.6036200000000065 260.1243728,7.999899999999997 253.55707280000001,8.423910000000006 247.0247728,8.878260000000012 240.51697280000002,9.363699999999994 234.0249728,9.880709999999993 227.5416728,10.429779999999994 221.06147280000002,11.011380000000003 214.58057280000003,11.625969999999995 208.0966728,12.273929999999993 201.60867280000002,12.95554 195.1173728,13.671230000000008 188.6258728,14.421599999999998 182.13947280000002,15.206879999999998 175.6658728,16.026920000000004 169.21517280000003,16.881050000000002 162.7995728,17.768079999999998 156.43287279999998,18.68629 150.12987280000002,19.633640000000007 143.90577280000002,20.610890000000005 137.7716728,21.62097 131.73407279999998,22.666930000000008 125.79527279999999,23.75192 119.9542728,24.879240000000003 114.2073728,26.05236 108.5487728,27.275060000000003 102.9710628,28.551410000000004 97.46685279999998,29.88474 92.03697279999999,31.27471 86.69376279999999,32.717400000000005 81.45885279999999,34.20548 76.3597928,35.72862 71.4245028,37.27774 66.6718828,38.847030000000004 62.110402799999996,40.43220000000001 57.740732799999996,42.03024 53.5582328,43.6392 49.5573928,45.25715 45.7447828,46.876990000000006 42.1382428,48.485240000000005 38.7563728,50.06577000000001 35.611192800000005,51.60341000000001 32.7048428,53.086470000000006 30.0301328,54.50766 27.573292800000004,55.86408 25.320322800000003,57.158120000000004 23.2587128,58.39311000000001 21.374782800000002,59.57166 19.6536528,60.69648000000001 18.0799228,61.770610000000005 16.6384828,62.797360000000005 15.3163628,63.78098 14.104969800000001,64.72894 12.9949888,65.64906 11.9768838,66.5483 11.0413248,67.43259 10.174813799999999,68.3053 9.365332800000001,69.16575 8.6062838,70.01074 7.9019048000000005,70.83705 7.257497799999999,71.64391 6.6746418,72.43253 6.1528948,73.20506 5.6909038,73.96413700000001 5.2870478,74.71253 4.9398146,75.453048 4.6480006,76.18848 4.4108396,76.92160200000001 4.22808638,77.655221 4.09998411,78.392157 4.0249942,79.133719 4.0,79.879572 4.0226281,80.629231 4.09119207,81.38211700000001 4.20457719,82.137535 4.3621625,82.894647 4.5637689,83.65244320000001 4.8096273,84.40969700000001 5.1003623000000005,85.164916 5.4369878,85.916269 5.8209128,86.661508 6.2539578,87.39785 6.7383728,88.121832 7.2768678,88.829126 7.8726308,89.51428800000001 8.5293438,90.170438 9.2511698,90.788844 10.0413998,91.36382900000001 10.899528799999999,91.904143 11.8231128,92.423974 12.8105028,92.936008 13.8658628,93.44208 14.9947928,93.94243 16.203522800000002,94.4376 17.4991428,94.92852 18.8916628,95.41592 20.394362800000003,95.90050000000001 22.023152800000002,96.38346 23.7970928,96.86686 25.738952800000003,97.3541 27.875602800000003,97.85081000000001 30.2379228,98.36599000000001 32.8625528,98.90749 35.7921728,99.47815 39.0687828,100.07987 42.7247028,100.71346 46.7713328,101.37875 51.1934628,102.07621 55.964412800000005,102.81122 61.0773628,103.59089 66.5303928,104.41389000000001 72.3055728,105.27552 78.36765279999999,106.16844 84.6682828,107.08371 91.15276279999999,108.01302 97.7678028,108.94930000000001 104.4709728,109.88755 111.2369728,110.8252 118.0509728,111.76027 124.8990728,112.69078 131.7680728,113.61489 138.64557280000002,114.53097 145.52027280000001,115.43759 152.38257280000002,116.33358000000001 159.2238728,117.21780000000001 166.0379728,118.08777 172.82077280000001,118.94048000000001 179.57077280000001,119.77334 186.2881728,120.58409 192.9753728,121.37076 199.6366728,122.13164 206.27797280000001,122.86526 212.9062728,123.57118 219.5283728,124.25047 226.1502728,124.90412 232.7768728,125.53298000000001 239.41267280000002,126.13774000000001 246.0612728,126.71896000000001 252.7254728,127.27709000000002 259.4074728,127.81254000000001 266.1083728,128.326 272.8284728,128.8183 279.5663728,129.29018 286.3196728,129.74231 293.08447279999996,130.17533 299.85557279999995,130.58985 306.62637279999996,130.98644000000002 313.3894728,131.36471 320.13877279999997,131.72302 326.8700728,132.05978 333.5809728,132.37359 340.27127279999996,132.66318 346.9421728,132.92737 353.5968728,133.16505 360.24007279999995,133.37532 366.87677279999997,133.5582 373.5109728,133.71393 380.1456728,133.84267 386.7828728,133.94449 393.4233728,134.01945 400.06707279999995,134.06756000000001 406.7127728,134.08884 413.3585728,134.08327 420.00267279999997,134.05074000000002 426.6441728,133.99118 433.2828728,133.90449999999998 439.9190728,133.79062 446.55417279999995,133.64941 453.1900728,133.48071000000002 459.82937279999993,133.2844 466.47487279999996,133.06081 473.12867279999995,132.81049000000002 479.79207279999997,132.53396 486.4654728,132.23179 493.1486728,131.90459 499.8402728,131.55302 506.53827279999996,131.17781 513.2397728,130.77957 519.9426728,130.3586 526.6459728000001,129.91515 533.3499728,129.44937 540.0560728,128.96135 546.7666728,128.45103 553.4856728,127.91826 560.2180728000001,127.36292 566.9692728,126.78595000000001 573.7436728000001,126.18872 580.5443728000001,125.57271 587.3731728,124.93955 594.2306728,124.29101 601.1159728,123.62908999999999 608.0264728000001,122.95594 614.9585728000001,122.27351000000002 621.9086728,121.58345 628.8735728,120.88738000000001 635.8504728,120.18691000000001 642.8372728,119.48363 649.8321728,118.77908000000001 656.8338728,118.07473999999999 663.8417728000001,117.37141 670.8548728000001,116.66893 677.8726728,115.96712 684.8944728000001,115.26576 691.9196728000001,114.56463000000001 698.9476728000001,113.86351 705.9779728,113.16217 713.0101728000001,112.46048 720.0437728,111.75853000000001 727.0784728000001,111.05639 734.1136728,110.35417000000001 741.1487728000001,109.65198000000001 748.1834728,108.94991 755.2169728,108.24808 762.2488728000001,107.54655 769.2786728,106.84529 776.3065728,106.14419000000001 783.3327728,105.44315 790.3581728,104.74198 797.3839728,104.04048 804.4114728000001,103.33841000000001 811.4426728000001,102.63554 818.4771728000001,101.93201 825.5078728000001,101.22869 832.5350728,100.52567 839.5617728000001,99.82281 846.5918728,99.11985 853.6235728,98.41712 860.6399728000001,97.71642 867.6349728,97.01826 874.6075728000001,96.32259 881.5610728,95.62894 888.5028728,94.93641 895.4447728,94.24369 902.4028728000001,93.54902 909.3974728,92.850267 916.4158728000001,92.148709 923.3926728000001,91.450995 930.3520728,90.754846 937.3450728,90.055263 944.3083728,89.35870700000001 951.0735728000001,88.68212700000001 957.5586728,88.033805 963.7049728000001,87.41962000000001 969.4866728000001,86.842101 974.9047728,86.301112 979.9764728,85.794898 984.7270728000001,85.32089400000001 989.1847728,84.876256 993.3775727999999,84.45816500000001 997.3317728,84.06397820000001 1001.0712728,83.69129480000001 1004.1570728,83.38383" stroke="black" stroke-width="2.0" /></svg>