<?xml version="1.0" encoding="utf-8" ?>
<svg baseProfile="full" height="299.15887999999995" version="1.1" width="1012.0001930056" xmlns="http://www.w3.org/2000/svg" xmlns:ev="http://www.w3.org/2001/xml-events" xmlns:xlink="http://www.w3.org/1999/xlink"><defs /><polygon fill="none" points="1004.0001930056,219.5365 1001.4224930055999,214.94236099999998 997.2292930056,211.078995 992.8086930055999,207.83746 988.1199930055999,204.92065 983.2566930055999,202.10098 978.2598930055999,199.36667999999997 973.0851930055999,196.71529999999998 967.6963930055999,194.10116 962.0886930055999,191.49154 956.2599930056,188.87828 950.1981930055999,186.25263999999999 943.8847930055999,183.60399999999998 937.3042930055999,180.92275999999998 930.4450930055999,178.20217 923.2960930056,175.43660999999997 915.8461930056,172.62014 908.0859930056,169.74826 900.0103930055999,166.81762999999998 891.6160930056,163.82801999999998 882.8972930056,160.77876999999998 873.8464930055999,157.66579 864.4653930056,154.48444999999998 854.7680930056,151.23549 844.7706930055999,147.92550999999997 834.4821930056,144.55861 823.9092930055999,141.13495999999998 813.0643930056,137.6551 801.9661930056,134.12169 790.6357930055999,130.5383 779.0952930056,126.90930999999999 767.3664930056,123.24022 755.4695930055999,119.53599999999999 743.4208930056,115.80069999999999 731.2304930055999,112.03589999999998 718.9098930055999,108.24049999999998 706.4830930055999,104.41619999999999 693.9827930056,100.5697 681.4380930056,96.70909999999999 668.8708930056,92.84039999999999 656.3024930055999,88.9699 643.7566930055999,85.10399999999998 631.2557930056,81.24689999999998 618.8141930055999,77.39959999999999 606.4394930056,73.5627 594.1398930056,69.7388 581.9279930056,65.9322 569.8229930055999,62.14999999999998 557.8525930055999,58.40209999999999 546.0505930056,54.699899999999985 534.4487930056,51.05299999999997 523.0735930056,47.46969999999999 511.9546930056,43.96029999999999 501.1410930056,40.5419 490.6930930056,37.23609999999999 480.65239300560006,34.064599999999984 471.0196930056,31.037199999999984 461.76839300560005,28.152600000000007 452.8767930056,25.401700000000005 444.3648930056,22.7834 436.27819300560003,20.30509999999998 428.6584930056,17.98169999999999 421.4981930056,15.847199999999987 414.74059300560003,13.918999999999983 408.3120930056,12.197899999999976 402.1381930056,10.6781 396.1539930056,9.347399999999993 390.31079300560003,8.188499999999976 384.5694930056,7.18889999999999 378.8966930056,6.3408000000000015 373.2623930056,5.639700000000005 367.63839300560005,5.081499999999977 362.0017930056,4.653500000000008 356.3378930056,4.3426000000000045 350.6409930056,4.137399999999985 344.9145930056,4.026699999999977 339.17149300560004,4.0 333.4290930056,4.056799999999981 327.6987930056,4.202099999999973 321.98509300560005,4.4410000000000025 316.2850930056,4.77849999999998 310.58929300560004,5.220399999999984 304.88339300560006,5.768200000000007 299.1552930056,6.418599999999998 293.39779300559996,7.168700000000001 287.6087930056,8.014699999999976 281.7917930056,8.95229999999998 275.95439300559997,9.9786 270.1041930056,11.09299999999999 264.2470930056,12.294699999999978 258.3871930056,13.583399999999983 252.5266930056,14.958699999999993 246.6671930056,16.419999999999987 240.81079300560003,17.96629999999999 234.96109300560002,19.596100000000007 229.12299300560002,21.307299999999998 223.3023930056,23.097800000000007 217.5053930056,24.965899999999976 211.7376930056,26.909899999999993 206.00399300560002,28.92829999999998 200.30829300560004,31.019499999999994 194.6542930056,33.18129999999999 189.04609300560003,35.411 183.4884930056,37.7055 177.9867930056,40.060899999999975 172.54659300560002,42.47370000000001 167.1736930056,44.940799999999996 161.87309300560003,47.459 156.6491930056,50.02529999999999 151.5057930056,52.636499999999984 146.4462930056,55.28929999999997 141.47409300560003,57.97999999999999 136.5923930056,60.70490000000001 131.80399300559998,63.46009999999998 127.11179300559999,66.24159999999998 122.5186930056,69.04549999999998 118.02699300559999,71.8674 113.63899300559999,74.70329999999998 109.35669300560001,77.54909999999998 105.18199300559999,80.40139999999997 101.1162030056,83.2568 97.1599430056,86.11250000000001 93.3133130056,88.9656 89.57596300559999,91.81319999999998 85.94737300559999,94.65249999999999 82.42688300559999,97.48049999999999 79.0136030056,100.29429999999998 75.7065030056,103.09129999999999 72.5045830056,105.8693 69.4066630056,108.62639999999999 66.4112130056,111.36059999999999 63.5164330056,114.07069999999999 60.7203030056,116.75519999999999 58.02075300560001,119.41299999999998 55.4156830056,122.04300999999998 52.902843005600005,124.64446999999998 50.4798830056,127.21658999999998 48.14434300560001,129.75878999999998 45.8938530056,132.27061999999998 43.7261630056,134.75177 41.639013005600006,137.20200999999997 39.6300930056,139.62115999999997 37.6970630056,142.00916 35.837603005599995,144.36599 34.0497130056,146.69186 32.3316330056,148.98713999999998 30.6814930056,151.25232 29.097383005599998,153.48793999999998 27.5773530056,155.69459 26.1194030056,157.87288999999998 24.721493005600003,160.02333 23.3814630056,162.14614999999998 22.097253005600002,164.24163 20.8668530056,166.31000999999998 19.6883330056,168.3516 18.5598430056,170.36669 17.4796430056,172.35562 16.446713005600003,174.31897999999998 15.4602930056,176.25739 14.519643005599999,178.17141999999998 13.623952005600001,180.06156 12.772410005600001,181.92828 11.964161005600001,183.77202 11.1984380056,185.59314999999998 10.4751920056,187.39204999999998 9.7945110056,189.16931 9.1562880056,190.92575 8.5602810056,192.66235999999998 8.0061620056,194.38026 7.4935590056,196.08069999999998 7.0220330056,197.76492 6.5902740055999995,199.43379 6.196365005600001,201.08742999999998 5.8385910056,202.72552 5.5154050056,204.34736999999998 5.2253710056,205.95199 4.9671188056,207.53819 4.7393147056,209.10459 4.5408355056000005,210.64975199999998 4.3720533056,212.17269399999998 4.2338182055999996,213.67374999999998 4.1267967056,215.154484 4.0516221356,216.617436 4.0090326586,218.065955 4.0,219.50411108999998 4.0252347156,220.936661 4.0832328656,222.368447 4.1721892056,223.803621 4.2905813056,225.245646 4.4370515056,226.697339 4.6103002056,228.160859 4.8089840056,229.63764999999998 5.0316120055999995,231.12832999999998 5.2764450056,232.63257 5.5414670055999995,234.14892999999998 5.8257960056,235.67515 6.1297760056,237.20893999999998 6.4537500056,238.74813999999998 6.7980210056,240.29076999999998 7.1628710056,241.83507999999998 7.5485730056,243.37957 7.9554140056,244.92302999999998 8.3837130056,246.46454999999997 8.8338410056,248.00351 9.3067700056,249.5392 9.8049750056,251.0699 10.3312190056,252.59375 10.8883070056,254.10888999999997 11.4790950056,255.61353 12.1064930056,257.10585 12.7734800056,258.58409 13.4831090056,260.04648 14.2385230056,261.49127999999996 15.042493005599999,262.91623 15.8968530056,264.3179 16.803443005600002,265.69271 17.7642730056,267.03708 18.781573005600002,268.34739 19.8578230056,269.61993 20.995823005600002,270.85091 22.198313005600003,272.03646 23.4655830056,273.17316999999997 24.7969130056,274.25765 26.191933005600003,275.28625 27.6506930056,276.25495 29.173653005600002,277.15926 30.7618730056,277.99418 32.416273005600004,278.75919 34.136923005599996,279.46109 35.923343005599996,280.10757 37.7743130056,280.70688 39.6875530056,281.26806999999997 41.65925300560001,281.80124 43.6871030056,282.31318999999996 45.7728630056,282.80479 47.91892300560001,283.27666999999997 50.128063005600005,283.72976 52.40352300560001,284.16532 54.7492430056,284.58501 57.169633005600005,284.99037 59.669273005600004,285.38275 62.2527830056,285.76378 64.9246930056,286.13542 67.68924300559999,286.5001 70.55027300559999,286.86007 73.5121230056,287.21481 76.5797730056,287.56284 79.7587730056,287.90247 83.0554730056,288.23184 86.47739300559999,288.54899 90.0330130056,288.85269999999997 93.7313630056,289.14216999999996 97.5819530056,289.41659 101.59472300559999,289.67517999999995 105.7798930056,289.9171 110.1481930056,290.14128 114.71089300559998,290.34659999999997 119.4799930056,290.53206 124.46779300559999,290.69676 129.6871930056,290.83934999999997 135.1511930056,290.9582 140.8719930056,291.05179 146.86079300560002,291.11854 153.1277930056,291.15548 159.6825930056,291.15887999999995 166.53489300560003,291.12481 173.69519300560003,291.04982 181.1718930056,290.93144 188.9699930056,290.7677 197.0902930056,290.55652 205.5309930056,290.29462 214.2907930056,289.97866 223.37109300560002,289.60661 232.76929300560002,289.17974 242.4722930056,288.7012 252.45619300560003,288.17269 262.6957930056,287.59286 273.17269300559997,286.96033 283.87309300559997,286.27646 294.77639300559997,285.54499 305.85359300560003,284.77015 317.0712930056,283.95482 328.3971930056,283.10188 339.8006930056,282.21365 351.25079300560003,281.29211 362.7169930056,280.33909 374.1700930056,279.35498 385.5839930056,278.33975 396.9370930056,277.29258 408.2128930056,276.21145 419.40069300560003,275.09405 430.4940930056,273.93833 441.4870930056,272.74261 452.3739930056,271.50527 463.1514930056,270.22330999999997 473.8217930056,268.89292 484.3921930056,267.51007 494.87189300560004,266.07180999999997 505.26929300560005,264.57553 515.5919930056,263.01863 525.8484930056,261.39829 536.0500930055999,259.71101 546.2109930055999,257.95289 556.3459930056,256.12127999999996 566.4673930055999,254.21397 576.5854930055999,252.22884 586.7115930056,250.16332 596.8621930055999,248.01339 607.0595930055999,245.77414 617.3272930055999,243.44628 627.6783930055999,241.03537 638.1123930056,238.55051999999998 648.6138930056,236.00477999999998 659.1517930055999,233.41573 669.6803930056,230.80662999999998 680.1468930056,228.207643 690.4987930056,225.649506 700.6878930056,223.15947699999998 710.6808930056,220.75721 720.4635930055999,218.455614 730.0348930056,216.262047 739.3988930055999,214.180502 748.5616930056,212.213458 757.5303930056,210.36199299999998 766.3134930056,208.62592999999998 774.9207930055999,207.00433999999998 783.3620930056001,205.49513 791.6444930055999,204.09537 799.7722930056,202.80248999999998 807.7483930056,201.61445999999998 815.5749930056,200.52971 823.2553930055999,199.54647 830.7926930056,198.66261 838.1888930056,197.87566999999999 845.4447930056,197.18314999999998 852.5600930056,196.58288 859.5348930055999,196.07394 866.3700930056,195.6554 873.0680930056,195.326 879.6311930056,195.08451 886.0624930055999,194.92961 892.3649930055999,194.85978 898.5417930056,194.87299 904.5954930055999,194.96684 910.5287930055999,195.13897 916.3434930056,195.38732 922.0411930055999,195.71011 927.6228930056,196.10551999999998 933.0890930055999,196.57432999999997 938.4420930056,197.12066 943.6865930056,197.74851999999998 948.8283930056,198.46222999999998 953.8744930055999,199.26676999999998 958.8337930055999,200.16762999999997 963.7151930056,201.17168999999998 968.5250930056,202.28644 973.2662930056,203.52158 977.9442930055999,204.89802999999998 982.5838930055999,206.44495999999998 987.2205930056,208.17681 991.8324930056,210.110066 996.3226930056,212.46808399999998 1000.9063930056,215.49079799999998 1004.0001930056,219.5365" stroke="black" stroke-width="2.0" /></svg>