<?xml version="1.0" encoding="utf-8" ?>
<svg baseProfile="full" height="133.11405" version="1.1" width="1011.998098005" xmlns="http://www.w3.org/2000/svg" xmlns:ev="http://www.w3.org/2001/xml-events" xmlns:xlink="http://www.w3.org/1999/xlink"><defs /><polygon fill="none" points="1003.998098005,88.61381999999999 1000.7101980049999,87.86261699999999 996.594698005,86.91102599999999 992.112798005,85.86518299999999 987.257098005,84.72219299999999 982.032798005,83.48268599999999 976.4589980049999,82.15118199999999 970.569398005,80.736109 964.406598005,79.24794 958.0166980050001,77.69779999999999 951.441698005,76.09653999999999 944.720898005,74.45518999999999 937.889698005,72.78412999999999 930.9792980049999,71.09259999999999 924.016598005,69.38884999999999 917.023498005,67.67966999999999 910.016198005,65.97039 903.006098005,64.26500999999999 896.0004980049999,62.56672999999999 889.005698005,60.87850999999999 882.027898005,59.20321999999999 875.0715980049999,57.54362 868.138098005,55.90182999999999 861.225498005,54.27916999999999 854.3302980049999,52.67615999999999 847.4530980049999,51.093729999999994 840.600898005,49.534189999999995 833.786598005,48.00135999999999 827.022398005,46.50166999999999 820.3099980049999,45.04059999999999 813.6400980049999,43.62100999999999 806.993498005,42.243219999999994 800.3477980050001,40.902719999999995 793.6862980049999,39.59413999999999 786.998598005,38.313599999999994 780.280598005,37.05864 773.533898005,35.82800999999999 766.761298005,34.62087999999999 759.966198005,33.436429999999994 753.1522980049999,32.27381999999999 746.323498005,31.132529999999996 739.483198005,30.012959999999993 732.633698005,28.91547 725.7767980049999,27.840259999999994 718.912998005,26.787389999999995 712.042498005,25.75676999999999 705.165498005,24.748319999999993 698.282598005,23.761979999999994 691.394498005,22.79773999999999 684.502498005,21.855670000000003 677.607498005,20.935969999999983 670.710398005,20.03886 663.8116980049999,19.16449 656.911698005,18.312989999999985 650.010198005,17.484430000000003 643.1072980050001,16.67886999999999 636.203098005,15.89636999999999 629.297898005,15.137019999999993 622.391998005,14.400919999999985 615.486198005,13.68822999999999 608.580898005,12.999189999999999 601.676498005,12.334019999999995 594.7732980049999,11.69292 587.871698005,11.076099999999997 580.971798005,10.48372999999998 574.073498005,9.91601 567.176898005,9.373109999999997 560.281998005,8.855209999999985 553.388398005,8.362469999999988 546.4959980049999,7.8950399999999945 539.604698005,7.453029999999984 532.714798005,7.036590000000004 525.826798005,6.645849999999996 518.941498005,6.280969999999982 512.059698005,5.9421899999999965 505.18209800499994,5.629819999999995 498.30879800499997,5.344149999999999 491.439398005,5.08547999999999 484.57319800499994,4.854060000000004 477.708898005,4.6500799999999884 470.845698005,4.473609999999994 463.98389800499996,4.324739999999991 457.12409800499995,4.203569999999999 450.26809800499996,4.110189999999989 443.41799800499996,4.044809999999984 436.575098005,4.007919999999984 429.738598005,4.0 422.90539800499994,4.021569999999997 416.070798005,4.073219999999992 409.22819800499997,4.1551000000000045 402.37179800499996,4.266159999999999 395.498298005,4.405149999999992 388.60729800499996,4.570759999999993 381.701298005,4.76160999999999 374.78529800499996,4.976619999999997 367.86479800499995,5.215649999999997 360.943598005,5.478669999999994 354.02439800499997,5.765669999999986 347.108098005,6.076649999999987 340.19449800499996,6.411709999999985 333.283398005,6.770929999999993 326.374598005,7.154389999999992 319.46829800499995,7.562169999999995 312.565098005,7.994319999999988 305.66569800499997,8.450889999999987 298.77099800499997,8.931989999999985 291.881998005,9.43768 284.99969800499997,9.968009999999992 278.125098005,10.523059999999987 271.25929800499995,11.103079999999991 264.403398005,11.708349999999996 257.55809800500003,12.339150000000004 250.724198005,12.995769999999993 243.90239800499998,13.678519999999992 237.093798005,14.38772999999999 230.299498005,15.123689999999996 223.520998005,15.886629999999982 216.76039800499998,16.6768 210.019498005,17.49467999999999 203.30059800499998,18.34071999999999 196.606198005,19.21531999999999 189.93869800500002,20.118859999999998 183.30079800500002,21.051929999999984 176.695398005,22.015119999999996 170.125598005,23.00891999999999 163.594698005,24.033749999999998 157.10659800500002,25.090109999999996 150.666698005,26.178299999999993 144.281198005,27.29818999999999 137.95749800500002,28.44952999999999 131.703898005,29.63246999999999 125.52919800500001,30.84691999999999 119.442398005,32.092299999999994 113.452998005,33.367839999999994 107.572598005,34.67231999999999 101.814658005,36.00346999999999 96.193748005,37.35800999999999 90.72519800500001,38.73272999999999 85.42542800500001,40.12387 80.310058005,41.52652 75.39240800500001,42.935399999999994 70.68478800500002,44.34584999999999 66.19788800500001,45.75252 61.938548005,47.14965999999999 57.909458005000005,48.532289999999996 54.110898005,49.89681999999999 50.540068005,51.23969999999999 47.190548005000004,52.55771999999999 44.053238005000004,53.84875999999999 41.118718005000005,55.112379999999995 38.376808005,56.34815999999999 35.816238005,57.55573999999999 33.424948005000005,58.73494999999999 31.191278005,59.88663 29.104408005,61.012699999999995 27.153518005,62.11494999999999 25.328078005,63.19497 23.618028005,64.25422999999999 22.014228005,65.29413 20.509688004999997,66.31657999999999 19.098538004999998,67.32318 17.775218005,68.31501999999999 16.534448005,69.29292999999998 15.371198005,70.25751 14.280738004999998,71.20925 13.259660004999999,72.14899999999999 12.305057004999998,73.07811 11.413652005,73.99806 10.582079005,74.91038999999999 9.807058005,75.81663999999999 9.085499004999999,76.71829 8.414652005,77.61668999999999 7.793239005,78.51236999999999 7.221037005,79.40494 6.697966005,80.29352899999999 6.223894005,81.17691199999999 5.798510005,82.05365699999999 5.421240005,82.92222899999999 5.091211005,83.781067 4.807407605,84.628231 4.568550605,85.46225299999999 4.373061605,86.28311 4.219420605,87.091844 4.106416105,87.890245 4.033315205,88.680673 4.0,89.46598289999999 4.007078747,90.24949559999999 4.055431705,91.03387199999999 4.146329905,91.82045699999999 4.281886705,92.609839 4.464996505,93.401816 4.699253505,94.19525599999999 4.988828805,94.987877 5.338219005,95.775995 5.750016005,96.555882 6.223496004999999,97.325526 6.757262005,98.08312 7.349533005,98.8269 7.998203005000001,99.55516899999999 8.700894005,100.26629999999999 9.455396005,100.95897 10.262255005,101.63360999999999 11.123445005,102.29151999999999 12.040985005,102.93415999999999 13.016820005,103.56307999999999 14.052638005,104.18007 15.149558005,104.78717999999999 16.309058004999997,105.38601999999999 17.534898005,105.9768 18.831418005,106.55971 20.203268005,107.13524999999998 21.655408004999998,107.70428 23.193118005,108.26822999999999 24.822358005,108.82893999999999 26.551238005,109.387 28.389258005,109.94257999999999 30.346768005,110.49611999999999 32.434998005,111.04844 34.666228004999994,111.60103 37.054258005,112.15525 39.615118005,112.7109 42.365778005,113.26759999999999 45.322848005000004,113.82506 48.502498005,114.38345 51.921318005,114.94238999999999 55.595268005,115.49976999999998 59.53786800500001,116.05349999999999 63.759168005,116.60191999999999 68.265908005,117.14321 73.059118005,117.67398999999999 78.131908005,118.19116 83.471318005,118.69261999999999 89.06071800500001,119.17590999999999 94.878098005,119.63837 100.89819800500001,120.07856 107.09669800500001,120.49588 113.450198005,120.88946999999999 119.935598005,121.25925 126.532698005,121.60597999999999 133.224898005,121.93023 139.997098005,122.23272 146.836198005,122.5146 153.732098005,122.77705999999999 160.67589800500002,123.02091999999999 167.660198005,123.24721 174.67859800500003,123.45705 181.72619800500001,123.65126 188.798698005,123.83055999999999 195.892498005,123.99571 203.004898005,124.14748999999999 210.133398005,124.28647 217.275998005,124.41320999999999 224.430698005,124.52825999999999 231.595698005,124.63215 238.76929800500002,124.7252 245.950198005,124.80767 253.13719800500002,124.87984999999999 260.32949800499995,124.94201999999999 267.52609800499994,124.99436 274.72649800499994,125.03702 281.93019800499997,125.07018 289.136898005,125.094 296.34619800499996,125.10858999999999 303.55759800499993,125.11404999999999 310.77019800499994,125.11046999999999 317.982898005,125.09792999999999 325.19429800499995,125.07648 332.403398005,125.04598999999999 339.610098005,125.00635 346.814698005,124.95739999999999 354.018398005,124.89901 361.222498005,124.83116 368.42639800499995,124.75393 375.62749800499995,124.66744 382.820998005,124.57182999999999 390.000498005,124.46703 397.160198005,124.35172 404.297898005,124.22422999999999 411.414998005,124.08285 418.51629800499995,123.92584 425.6096980049999,123.75199999999998 432.702798005,123.56161 439.800598005,123.35513999999999 446.905898005,123.13310999999999 454.019098005,122.89612 461.138198005,122.64465999999999 468.261398005,122.37898 475.38739800499997,122.0993 482.515698005,121.80582999999999 489.64689800499997,121.49871999999999 496.78189800499996,121.17818 503.921698005,120.8445 511.066998005,120.49797999999998 518.218098005,120.13891999999998 525.374898005,119.76765999999999 532.537198005,119.38453999999999 539.704698005,118.98986 546.877498005,118.58393 554.055698005,118.16704999999999 561.239598005,117.73951 568.429598005,117.30165 575.626098005,116.85385 582.8292980049999,116.39649999999999 590.039098005,115.92998999999999 597.255398005,115.45473999999999 604.478098005,114.97111999999998 611.7072980049999,114.47948 618.942898005,113.98019 626.185398005,113.47358 633.435098005,112.96001999999999 640.692598005,112.44 647.9580980049999,111.91400999999999 655.2320980049999,111.38255 662.5145980049999,110.84612999999999 669.8057980049999,110.30533 677.105098005,109.76075 684.4114980049999,109.21306999999999 691.723098005,108.66302999999999 699.0376980049999,108.11142 706.352598005,107.55913999999999 713.664898005,107.00712999999999 720.971598005,106.45634 728.2695980049999,105.90772 735.555698005,105.36237 742.826398005,104.82145 750.078198005,104.28612 757.307398005,103.75756 764.510298005,103.23767 771.683398005,102.72912 778.823198005,102.23456999999999 785.926498005,101.75654999999999 792.991198005,101.29764999999999 800.021998005,100.86035 807.031698005,100.44662 814.041598005,100.05805 821.0790980049999,99.69317699999999 828.1648980049999,99.34611199999999 835.307598005,99.01112799999999 842.501298005,98.68307899999999 849.7297980049999,98.359696 856.979098005,98.040838 864.242098005,97.72609899999999 871.5178980049999,97.414688 878.806098005,97.105494 886.101798005,96.79753299999999 893.395098005,96.49001899999999 900.674198005,96.182268 907.9288980050001,95.87354699999999 915.1508980049999,95.56309099999999 922.3316980049999,95.250283 929.459598005,94.93472799999999 936.519598005,94.61630099999999 943.490398005,94.295356 950.344098005,93.97264799999999 957.0471980049999,93.64882899999999 963.560998005,93.324829 969.8442980049999,93.002443 975.851598005,92.68444299999999 981.540198005,92.373397 986.876198005,92.07126 991.8392980049999,91.77988099999999 996.422898005,91.50083199999999 1000.633598005,91.23477899999999 1003.998098005,91.01382" stroke="black" stroke-width="2.0" /></svg>