<?xml version="1.0" encoding="utf-8" ?>
<svg baseProfile="full" height="166.35159000000002" version="1.1" width="1011.998968974" xmlns="http://www.w3.org/2000/svg" xmlns:ev="http://www.w3.org/2001/xml-events" xmlns:xlink="http://www.w3.org/1999/xlink"><defs /><polygon fill="none" points="1003.998968974,126.7874 1000.072268974,126.42158950000001 995.3357689740001,126.04765900000001 990.3449689739999,125.69988000000001 985.084968974,125.327038 979.555068974,124.91681100000001 973.754368974,124.469092 967.6843689740001,123.981228 961.350568974,123.45058900000001 954.762168974,122.875296 947.9308689740001,122.254001 940.8713689740001,121.586132 933.6005689740001,120.871638 926.1373689740001,120.11091300000001 918.5013689740001,119.304688 910.7125689740001,118.453693 902.7895689740001,117.55878000000001 894.749568974,116.62094 886.6084689740001,115.64128000000001 878.380168974,114.62096 870.0771689740001,113.56116 861.709968974,112.46305000000001 853.287868974,111.32780000000001 844.819568974,110.15663 836.3124689740001,108.95053 827.7727689740001,107.71020000000001 819.2048689740001,106.43618000000001 810.6123689740001,105.12910000000001 801.998168974,103.78967 793.365068974,102.41858 784.715568974,101.01642000000001 776.0522689740001,99.58379000000001 767.3769689740001,98.12118000000001 758.6911689740001,96.62887 749.9955689740001,95.10701 741.2900689740001,93.55575 732.574568974,91.97551000000001 723.8497689740001,90.36686 715.1170689740001,88.73039 706.377568974,87.06641 697.6315689740001,85.37504000000001 688.8787689740001,83.65633 680.118568974,81.91043 671.350668974,80.13758000000001 662.575068974,78.33806000000001 653.7915689740001,76.51212000000001 644.9999689740001,74.65995000000001 636.199568974,72.78166 627.389468974,70.8774 618.569168974,68.94745 609.7379689740001,66.99211 600.8959689740001,65.01174 592.042368974,63.00658000000001 583.1762689740001,60.976770000000016 574.296068974,58.92242 565.400468974,56.84416 556.4891689740001,54.74295000000001 547.5629689740001,52.62007 538.623968974,50.47717 529.6754689740001,48.31621000000001 520.721468974,46.13946 511.76756897399997,43.94963 502.822168974,41.75026000000001 493.896768974,39.545760000000016 485.005968974,37.34132000000001 476.16756897399995,35.1429 467.402268974,32.9572 458.73306897399993,30.791500000000013 450.186268974,28.65491 441.795868974,26.55890000000001 433.601268974,24.51610000000001 425.64036897399995,22.541399999999996 417.93506897399993,20.6545 410.488968974,18.869200000000006 403.292568974,17.1931 396.32826897399997,15.630600000000001 389.57016897399996,14.1841 382.98506897399994,12.853700000000003 376.535768974,11.638000000000005 370.182768974,10.534400000000005 363.89266897399995,9.533699999999996 357.64256897399997,8.627100000000013 351.418368974,7.808400000000006 345.21396897399995,7.073400000000007 339.028868974,6.419499999999999 332.863468974,5.8459000000000145 326.716568974,5.351799999999997 320.585468974,4.93610000000001 314.466268974,4.598200000000006 308.354868974,4.336799999999997 302.248468974,4.1507000000000005 296.14626897399995,4.038700000000006 290.048968974,4.0 283.95876897399995,4.034000000000006 277.87796897399994,4.140600000000006 271.80826897399993,4.319700000000012 265.750768974,4.571300000000008 259.70596897400003,4.895200000000003 253.674268974,5.291300000000007 247.656568974,5.758800000000008 241.65416897400002,6.29740000000001 235.668568974,6.906400000000005 229.70206897399999,7.585000000000008 223.757168974,8.332400000000007 217.836968974,9.147400000000005 211.944968974,10.028800000000004 206.085068974,10.975200000000001 200.26146897400002,11.985699999999994 194.478368974,13.058700000000002 188.740268974,14.193000000000012 183.05156897400002,15.386800000000008 177.416768974,16.6387 171.840368974,17.947000000000003 166.326768974,19.309799999999996 160.88016897400001,20.72500000000001 155.504868974,22.190300000000008 150.20546897399998,23.703000000000003 144.98636897400002,25.26020000000001 139.851868974,26.858720000000005 134.80676897400002,28.49485 129.85606897399998,30.164500000000004 125.00486897399999,31.86331 120.25836897399999,33.58689000000001 115.62136897399999,35.33106000000001 111.098468974,37.091530000000006 106.693368974,38.86402000000001 102.40909897399999,40.64444 98.248388974,42.42906000000001 94.213068974,44.214259999999996 90.304188974,45.996570000000006 86.52201897399999,47.772800000000004 82.86634897399999,49.54012 79.33642897399999,51.29593 75.930918974,53.037800000000004 72.647858974,54.76360000000001 69.48495897399998,56.47161 66.439718974,58.160529999999994 63.509178974,59.829250000000016 60.690078974,61.47685000000001 57.978838974,63.10262000000001 55.371948974,64.70615000000001 52.865888974,66.28728000000001 50.457048973999996,67.84591 48.141738974,69.382 45.916228974,70.89562000000001 43.776998974,72.38706 41.720788974,73.8568 39.744308974,75.30536000000001 37.844308974,76.73325 36.017568974,78.14098 34.260958974,79.5291 32.571818973999996,80.89835000000001 30.947658974,82.24954 29.386018974000002,83.58339000000001 27.884508974,84.90062 26.440748974,86.20185000000001 25.052498974000002,87.48772000000001 23.718078974,88.75911 22.436038974,90.01701 21.204888974,91.26236 20.023088974,92.49604000000001 18.889098974,93.71887000000001 17.801398974,94.93162000000001 16.758938974000003,96.13516000000001 15.761458974,97.33052 14.808638974,98.51866000000001 13.900044974,99.70044 13.035202974,100.87663 12.213559974,102.04793000000001 11.434560974,103.21495 10.698031974,104.37786 10.003915974000002,105.53675000000001 9.352014974,106.69184000000001 8.742040974,107.84349 8.173655973999999,108.99217 7.646507974,110.13843 7.160131974,111.28279 6.7132339739999995,112.42505 6.304335974,113.56445000000001 5.932165974,114.70001 5.595590974,115.83054 5.293559974,116.954688 5.025066974,118.070992 4.789120174,119.17789400000001 4.585003474,120.27397 4.412234574,121.35847600000001 4.270239974,122.431422 4.158438774,123.493442 4.076329814,124.54568300000001 4.023562844,125.58973200000001 4.0,126.62756850000001 4.005722748,127.6614978 4.040792264,128.693598 4.105433074,129.7254 4.200104874,130.757946 4.325442574,131.791805 4.482195874,132.827058 4.671162674,133.863272 4.893113274,134.899469 5.1486439740000005,135.934131 5.437998974,136.96552 5.761323974,137.99200000000002 6.118739974,139.01202 6.510380974,140.02417 6.936407974,141.02718000000002 7.397045974,142.01987 7.892624974,143.00118 8.423741974,143.96970000000002 8.991167974,144.92374 9.595738974,145.86154 10.238364974,146.78124 10.920025974000001,147.68091 11.641787974,148.55849 12.404754974000001,149.41186 13.209340974,150.2388 14.055398974000001,151.03708 14.942848974,151.80432000000002 15.871688974,152.53804 16.842058974,153.23554000000001 17.854198974,153.89396 18.908418974,154.51035000000002 20.004368974,155.0832 21.141318974,155.6117 22.318538974,156.09488000000002 23.535318974000003,156.53155 24.790948974000003,156.92028 26.084728974,157.2594 27.416348974,157.54774 28.787078974,157.78696 30.198488974,157.97947 31.652128974,158.12797 33.149428974,158.2356 34.691568974,158.30606 36.279428974,158.34371 37.914758974,158.35159000000002 39.600918974,158.3305 41.341698973999996,158.28144 43.141218974000004,158.20581 45.003978974,158.10557 46.934798974,157.98338 48.938848974,157.84184 51.021598974,157.68101000000001 53.189028974,157.5004 55.447678974,157.29965 57.804768974,157.07859000000002 60.268178974,156.83734 62.846598973999996,156.57575 65.549578974,156.29264 68.387598974,155.98667 71.372228974,155.65651 74.51622897399999,155.30086 77.83365897399999,154.91837 81.33979897399999,154.50731000000002 85.051038974,154.06588 88.984788974,153.59251 93.15936897399999,153.08581 97.59346897399999,152.54409 102.305178974,151.96564 107.31086897399999,151.3493 112.624468974,150.69459 118.255668974,150.00139000000001 124.20946897399999,149.27038000000002 130.48626897399998,148.50325 137.081668974,147.70229 143.984868974,146.87064 151.179668974,146.01239 158.64566897400002,145.1319 166.35806897400002,144.23385000000002 174.290168974,143.32312000000002 182.415068974,142.40436 190.70586897400003,141.48204 199.137868974,140.56019 207.688668974,139.64223 216.337268974,138.73121 225.065168974,137.82991 233.856968974,136.94088 242.70126897400002,136.066239 251.59016897400002,135.207195 260.516568974,134.364224 269.472068974,133.537769 278.448568974,132.72872800000002 287.43946897399996,131.938297 296.44126897399997,131.16740900000002 305.451968974,130.416503 314.469968974,129.685709 323.49316897399996,128.975172 332.51906897399994,128.28511 341.54556897399993,127.6157778 350.57056897399997,126.96739600000001 359.592268974,126.3402092 368.608768974,125.734532 377.618268974,125.150683 386.618268974,124.589039 395.607068974,124.050087 404.583668974,123.53427 413.54756897399994,123.041945 422.497968974,122.57332500000001 431.431968974,122.128651 440.345068974,121.708336 449.232868974,121.31403900000001 458.093668974,120.948008 466.929368974,120.612302 475.745268974,120.30849400000001 484.54956897399995,120.037557 493.353468974,119.800458 502.171168974,119.59768000000001 511.0161689739999,119.42719600000001 519.898268974,119.286411 528.8223689740001,119.17287200000001 537.789868974,119.084512 546.8004689740001,119.019518 555.852968974,118.97603000000001 564.9452689740001,118.952488 574.0751689740001,118.947968 583.240768974,118.961582 592.440568974,118.992434 601.672868974,119.03973400000001 610.936368974,119.10269500000001 620.229168974,119.18052200000001 629.549768974,119.27256200000001 638.896968974,119.37821100000001 648.270068974,119.496848 657.668568974,119.627773 667.091668974,119.77022600000001 676.5381689740001,119.923437 686.006668974,120.08676700000001 695.496168974,120.259664 705.0056689740001,120.44157100000001 714.534868974,120.63187500000001 724.0825689740001,120.829925 733.647768974,121.03506200000001 743.2287689740001,121.246712 752.824268974,121.464332 762.433168974,121.68733 772.053768974,121.91494 781.682768974,122.14632900000001 791.3158689740001,122.380806 800.9485689740001,122.617902 810.576468974,122.857099 820.193868974,123.09747200000001 829.792068974,123.337867 839.3590689740001,123.577292 848.881668974,123.815065 858.346168974,124.050477 867.7373689740001,124.28263100000001 877.038268974,124.510557 886.229468974,124.733188 895.289268974,124.94942 904.1940689740001,125.15822800000001 912.9177689740001,125.358664 921.432868974,125.549886 929.7106689740001,125.731167 937.7228689740001,125.9017268 945.443768974,126.06074100000001 952.851468974,126.2076935 959.9298689740001,126.3423887 966.668268974,126.46470020000001 973.0597689740001,126.5744918 979.1051689740001,126.67098770000001 984.816868974,126.75371988 990.2062689740001,126.82614045000001 995.2754689740001,126.88016946 1000.0518689740001,126.86799052 1003.998968974,126.7874" stroke="black" stroke-width="2.0" /></svg>