<?xml version="1.0" encoding="utf-8" ?>
<svg baseProfile="full" height="221.28377" version="1.1" width="1012.04992594" xmlns="http://www.w3.org/2000/svg" xmlns:ev="http://www.w3.org/2001/xml-events" xmlns:xlink="http://www.w3.org/1999/xlink"><defs /><polygon fill="none" points="1004.04992594,128.232 999.35952594,126.90105899999999 993.7209259399999,125.29007399999999 987.82342594,123.59221099999999 981.65562594,121.802465 975.21062594,119.916882 968.48602594,117.93386 961.4835259399999,115.85396999999999 954.20752594,113.67925 946.66532594,111.41255 938.86662594,109.05617 930.8241259399999,106.61283 922.55202594,104.08592999999999 914.0650259399999,101.48047 905.3802259400001,98.80297999999999 896.5161259399999,96.06093999999999 887.49422594,93.26348999999999 878.34162594,90.42206999999999 869.0907259400001,87.55024 859.77252594,84.66185999999999 850.4106259399999,81.76856 841.02112594,78.87841999999999 831.6209259399999,75.9976 822.22912594,73.13311999999999 812.86382594,70.29392999999999 803.53622594,67.48812 794.25092594,64.72099999999999 785.0115259400001,61.99529 775.8237259399999,59.31384 766.69452594,56.68066 757.62862594,54.100279999999984 748.62782594,51.576199999999986 739.69152594,49.110839999999996 730.81932594,46.70617 722.01032594,44.36402 713.26342594,42.08627 704.5768259399999,39.87447999999999 695.94742594,37.72985 687.37192594,35.653099999999995 678.8467259399999,33.64479999999999 670.3681259399999,31.705349999999996 661.93262594,29.83493999999999 653.5369259400001,28.033699999999996 645.17752594,26.30189999999999 636.8509259399999,24.64 628.55322594,23.048599999999993 620.27952594,21.52789999999999 612.0248259399999,20.077799999999996 603.78282594,18.698399999999992 595.54692594,17.3891 587.3109259400001,16.148299999999992 579.07002594,14.974800000000002 570.82122594,13.86739999999999 562.56102594,12.825699999999998 554.28492594,11.848799999999997 545.9872259399999,10.935900000000004 537.66202594,10.08529999999999 529.30492594,9.294899999999998 520.91322594,8.563199999999995 512.48582594,7.8887 504.02332594,7.270099999999985 495.52812593999994,6.706399999999988 487.00302594,6.197199999999995 478.45102594,5.742199999999997 469.87452593999996,5.340900000000005 461.27612594,4.992999999999995 452.65772594,4.69789999999999 444.02142594,4.455099999999987 435.36932594,4.264300000000006 426.70412594,4.125100000000003 418.02962593999996,4.037099999999995 409.34982593999996,4.0 400.66962594,4.012999999999991 391.99452593999996,4.076099999999997 383.32972594,4.1895000000000095 374.67982594,4.3533999999999935 366.04902594,4.567999999999998 357.44122594,4.833300000000008 348.85942594,5.149299999999997 340.30682594,5.515899999999988 331.78722594,5.932699999999997 323.30502594,6.399299999999997 314.86572593999995,6.915099999999995 306.47502593999997,7.479299999999995 298.13942593999997,8.091099999999997 289.86572594,8.749700000000004 281.66102594,9.454700000000003 273.53232593999996,10.205200000000005 265.48672594,11.000199999999992 257.53092594000003,11.8386 249.67142594,12.71889999999999 241.91512594,13.64009999999999 234.26942594,14.601499999999987 226.74262594,15.601699999999994 219.34332594,16.638999999999996 212.07962594000003,17.7115 204.95952594,18.816900000000004 197.99002594,19.952399999999997 191.17752594,21.115499999999997 184.52682594,22.3035 178.04192594000003,23.513499999999993 171.72542594,24.7427 165.57962594,25.988299999999995 159.60712594,27.246899999999997 153.80962594000002,28.51553 148.18832594,29.791219999999996 142.74392594000003,31.072339999999997 137.47552594,32.357389999999995 132.38132594,33.644909999999996 127.45842594,34.93347 122.70332594,36.221990000000005 118.11202594,37.50985 113.68042594,38.79635999999999 109.40372593999999,40.080839999999995 105.27682594,41.36259 101.29455594,42.64098999999999 97.45170594,43.915989999999994 93.74335594,45.18768999999999 90.16454594,46.456109999999995 86.71029594,47.72117 83.37569594,48.98271 80.15587594,50.24055999999999 77.04609593999999,51.49455999999999 74.04241594,52.74512999999999 71.14123594,53.99298 68.33890593999999,55.23871 65.63172594,56.48281 63.01600594,57.72569 60.48812594,58.96768999999999 58.04455594,60.20908 55.68184594,61.45009999999999 53.396685940000005,62.690920000000006 51.18595594000001,63.93158 49.046805940000006,65.17192 46.97659594,66.4117 44.97282594,67.65066999999999 43.033125940000005,68.88856 41.15527594,70.12508 39.33745594,71.36026 37.57858594,72.59469999999999 35.87753594,73.82907 34.23303594,75.06404 32.64371594000001,76.30019999999999 31.10819594,77.53813 29.625055940000003,78.77839 28.192885940000004,80.02148 26.81036594,81.26746 25.47630594,82.51608999999999 24.18956594,83.76709 22.949125940000002,85.02017 21.75395594,86.27503 20.60311594,87.53136 19.495675939999998,88.78885 18.43074594,90.04718 17.40744594,91.30602999999999 16.42492594,92.56509 15.48265594,93.82401999999999 14.580845939999998,95.08239999999999 13.71972694,96.33992 12.89937294,97.59637 12.11977694,98.85162 11.38085594,100.10564 10.682469939999999,101.35844 10.024444939999999,102.61012 9.40658594,103.8608 8.82866594,105.11066 8.289658939999999,106.35964 7.78759694,107.60726 7.3206399399999995,108.85284999999999 6.88710494,110.09559 6.48543294,111.33453 6.11415594,112.56863999999999 5.77206194,113.79675 5.45920394,115.01756 5.17601594,116.2301 4.92278564,117.43378 4.6997101400000005,118.628407 4.50694284,119.814066 4.34463734,120.991115 4.21298564,122.160139 4.11225242,123.321924 4.042808329,124.47743799999999 4.00516293,125.62782399999999 4.0,126.77440299999999 4.02821752,127.9186793 4.09090233,129.062366 4.18828774,130.207313 4.31994564,131.355168 4.48561454,132.50725599999998 4.68516854,133.664568 4.91855954,134.827743 5.18575594,135.997032 5.4866759400000005,137.17224099999999 5.82110794,138.35268 6.18866794,139.53707 6.59064294,140.72259 7.03107194,141.90487 7.51445494,143.07961 8.04561494,144.24269999999999 8.629800939999999,145.39024999999998 9.27276594,146.51859 9.97775494,147.62601999999998 10.743421940000001,148.71356 11.56796894,149.78235999999998 12.44947594,150.83342 13.38582394,151.86760999999998 14.374605939999999,152.88568 15.41300594,153.88826 16.49773594,154.87583 17.625555939999998,155.84872 18.79615594,156.80715999999998 20.01006594,157.75145 21.267865940000004,158.68196 22.57007594,159.59915999999998 23.91725594,160.50364 25.309925940000003,161.3961 26.74864594,162.2774 28.23397594,163.14857 29.766505940000002,164.01082 31.34726594,164.86547 32.977745940000005,165.71397 34.659425940000006,166.5579 36.39367594,167.39902999999998 38.18174594,168.23934 40.02463594,169.08105999999998 41.92304594,169.92669 43.87789594,170.77795 45.89132594,171.63439 47.96588594,172.49516 50.10433594,173.35935 52.30976594,174.22595 54.58564594,175.0939 56.93576594,175.9625 59.36388594,176.83191 61.87392594,177.70246 64.46998594,178.57453999999998 67.15632594000002,179.4486 69.93736594,180.32522999999998 72.81760593999999,181.20506999999998 75.80162594,182.08896 78.89396594,182.97785 82.09920593999999,183.87266 85.42253593999999,184.77337 88.86947593999999,185.67961 92.44563594,186.59102 96.15682594,187.50722 100.00897594,188.42783 104.00829594,189.35253 108.16132594,190.28104 112.47472594,191.21278999999998 116.95522593999999,192.14709 121.60892593999999,193.0832 126.44172593999998,194.02032 131.45852594000002,194.95763 136.66402594000002,195.89389 142.06212594000002,196.82733000000002 147.65582594000003,197.75609 153.44742594,198.67829 159.43842594000003,199.59207 165.62962594,200.49559 172.02022594,201.38700999999998 178.60792594,202.26456000000002 185.38892594,203.12646 192.35792594,203.96994 199.50682594,204.7919 206.82542594,205.58918 214.30082594,206.35834 221.91962594,207.09555 229.66862594000003,207.79729 237.53622594,208.46045999999998 245.51332594000002,209.08239 253.59402594,209.6609 261.77642594,210.19447 270.06082594,210.68327 278.44592593999994,211.12797 286.92892594,211.52934 295.50462594,211.88831 304.16552593999995,212.20596 312.90172594,212.48320999999999 321.70202594,212.71975 330.55572594,212.91514999999998 339.45242593999996,213.0692 348.38252594,213.18191 357.33702594,213.2535 366.30832594,213.28377 375.28962594,213.2719 384.27532593999996,213.21712 393.26082594,213.11873 402.24292594,212.97609999999997 411.21942594,212.7887 420.18832594,212.55640999999997 429.14662594,212.27936 438.08982593999997,211.9578 447.01182594,211.59213 455.90572593999997,211.18292 464.76332593999996,210.72999 473.57742593999996,210.23128 482.34342594,209.68455 491.05872594,209.08760999999998 499.72272594000003,208.43822 508.33682594,207.73412000000002 516.90442594,206.97321 525.43042594,206.15341999999998 533.92252594,205.27237 542.3901259400001,204.32718 550.8450259399999,203.31443 559.3015259399999,202.23023 567.77452594,201.07364 576.27502594,199.84645 584.80832594,198.55093 593.37672594,197.18758 601.9853259399999,195.75495 610.64382594,194.25094 619.36452594,192.67582 628.15692594,191.03189 637.02582594,189.32219 645.97302594,187.54964999999999 654.99972594,185.71724 664.10642594,183.82819 673.29232594,181.88607 682.55392594,179.89521 691.8853259399999,177.86059 701.27872594,175.78766 710.72462594,173.68259999999998 720.21012594,171.55372 729.71522594,169.41195 739.2113259399999,167.26934 748.66472594,165.1363 758.03992594,163.02309 767.30452594,160.94265 776.4375259399999,158.90912 785.42992594,156.93301 794.27922594,155.0204 802.98252594,153.17555 811.53652594,151.40242999999998 819.93922594,149.70525 828.19082594,148.08742999999998 836.29372594,146.5513 844.25112594,145.0984 852.0658259400001,143.72977 859.74042594,142.44617 867.27762594,141.24826 874.6802259399999,140.13648999999998 881.95122594,139.11092 889.0940259399999,138.171572 896.1112259399999,137.318569 903.0049259399999,136.551826 909.77692594,135.871193 916.4293259399999,135.277301 922.9659259399999,134.770737 929.3920259399999,134.351742 935.7139259400001,134.020175 941.93672594,133.775241 948.06282594,133.61607899999998 954.09292594,133.541766 960.02552594,133.552748 965.8601259399999,133.655065 971.60122594,133.855604 977.25762594,134.16108 982.84202594,134.578039 988.37042594,135.10808 993.8589259400001,135.750394 999.3227259399999,136.505337 1004.04992594,137.252" stroke="black" stroke-width="2.0" /></svg>