<?xml version="1.0" encoding="utf-8" ?>
<svg baseProfile="full" height="222.00988" version="1.1" width="1012.04224775" xmlns="http://www.w3.org/2000/svg" xmlns:ev="http://www.w3.org/2001/xml-events" xmlns:xlink="http://www.w3.org/1999/xlink"><defs /><polygon fill="none" points="1004.04224775,133.2785 999.14404775,131.957737 993.24114775,130.371287 987.05204775,128.7140301 980.56634775,126.984048 973.77954775,125.18107300000001 966.69394775,123.306526 959.31634775,121.36294600000001 951.6565477500001,119.353577 943.72524775,117.28249000000001 935.53384775,115.15506 927.09334775,112.97691 918.41344775,110.75088000000001 909.50744775,108.47467 900.39444775,106.14588 891.09884775,103.76676 881.64584775,101.34542 872.06014775,98.89037 862.36624775,96.40866 852.58814775,93.90646000000001 842.74884775,91.38905 832.87114775,88.85993 822.97714775,86.32262 813.08354775,83.78648000000001 803.19674775,81.26345 793.31404775,78.76057 783.43214775,76.27654000000001 773.55204775,73.80955 763.6800477500001,71.35902000000002 753.83024775,68.92626 744.02304775,66.51633000000001 734.27044775,64.14029000000001 724.56564775,61.80606 714.89134775,59.51298 705.23744775,57.25592 695.60594775,55.032799999999995 686.00204775,52.845050000000015 676.42544775,50.69371000000001 666.87164775,48.57752000000001 657.34274775,46.49422000000001 647.85234775,44.444320000000005 638.4152477499999,42.43545 629.03214775,40.476410000000016 619.68874775,38.57087 610.37014775,36.71479000000001 601.0699477500001,34.90428 591.78944775,33.13806000000001 582.53144775,31.416669999999996 573.29744775,29.740539999999996 564.08754775,28.109800000000007 554.90084775,26.524500000000003 545.73554775,24.984099999999998 536.5931477500001,23.486999999999995 527.4827477499999,22.031999999999996 518.41864775,20.621600000000015 509.40954774999994,19.263500000000008 500.45184775,17.96430000000001 491.53424774999996,16.725300000000004 482.64784775000004,15.543400000000005 473.78874775,14.416000000000011 464.95804775,13.341400000000007 456.16214775000003,12.318200000000004 447.41144775000004,11.34620000000001 438.71544775,10.430200000000013 430.07384775,9.576300000000003 421.47784775,8.788700000000006 412.91674774999996,8.065600000000003 404.38634774999997,7.403999999999996 395.88874775,6.802000000000007 387.42824775,6.259399999999999 379.00684774999996,5.776600000000002 370.62444775,5.353100000000012 362.28254775,4.987099999999998 353.98694775,4.676600000000008 345.74704775,4.420700000000011 337.57264775,4.222200000000001 329.46934775000005,4.0841000000000065 321.43964775,4.009200000000007 313.48324775000003,4.0 305.59834775,4.058600000000013 297.78144775,4.186700000000002 290.02894775,4.383200000000016 282.33984775,4.645499999999998 274.71534775,4.971400000000003 267.15884775,5.3583 259.67594775000003,5.803300000000007 252.27464774999999,6.303300000000007 244.96414775,6.856200000000001 237.75294775,7.462000000000003 230.64704774999998,8.120900000000006 223.65044775,8.832700000000003 216.76614775,9.596300000000014 209.99804774999998,10.409800000000004 203.35104775000002,11.271000000000015 196.82994775,12.177499999999995 190.43924775000002,13.127300000000005 184.18214774999998,14.118099999999998 178.06074775,15.1477 172.07594775,16.213400000000007 166.22964775,17.310900000000004 160.52524775,18.43570000000001 154.96674775,19.582800000000006 149.55854775,20.747799999999998 144.30454775,21.929000000000016 139.20624775000002,23.126000000000005 134.26274775,24.33850000000001 129.47154775,25.565900000000013 124.82894775,26.8078 120.33084775,28.063000000000017 115.97404775,29.330079999999995 111.75524775000001,30.607420000000005 107.67124775,31.893320000000003 103.71895775,33.186080000000004 99.89520775,34.48441 96.19714775,35.78832 92.62133775,37.098020000000005 89.16385775,38.413650000000004 85.82045775,39.73536 82.58675775,41.06321000000001 79.45828775000001,42.39726 76.43071775,43.73751 73.50034775,45.083650000000006 70.66392775,46.43518 67.91839775000001,47.791550000000015 65.26087775,49.15214 62.68860775,50.516310000000004 60.19891775,51.88342 57.78922775,53.25282 55.45702775,54.623850000000004 53.19985775,55.99592000000001 51.015927749999996,57.369060000000005 48.904047750000004,58.74419 46.86286775,60.12223 44.89079775,61.50405000000001 42.98614775,62.89044 41.147137750000006,64.28216 39.371897749999995,65.67948000000001 37.658457750000004,67.08174000000001 36.00491775,68.48828 34.40944775,69.8985 32.870297750000006,71.31184000000002 31.385797750000002,72.72781 29.95434775,74.14599000000001 28.57439775,75.56598 27.24429775,76.98721 25.96224775,78.40883000000001 24.72657775,79.82997 23.53575775,81.24974 22.38836775,82.66729000000001 21.28306775,84.08177 20.218627750000003,85.49237000000001 19.19385775,86.89828 18.20760775,88.29874000000001 17.25878775,89.69300000000001 16.34635775,91.08037000000002 15.469607749999998,92.46025 14.62844775,93.83229 13.82277875,95.19628 13.052392750000001,96.55210000000001 12.31700375,97.89971 11.61626575,99.23915000000001 10.94978975,100.57050000000001 10.317156749999999,101.8939 9.71792675,103.20954 9.15164975,104.51762000000001 8.61781375,105.81840000000001 8.11550475,107.11206000000001 7.64372175,108.39866 7.20156475,109.67805000000001 6.78820475,110.94993000000001 6.40285675,112.21387000000001 6.04476775,113.46935 5.71348375,114.71566 5.40965675,115.95174 5.13402475,117.17686 4.88714885,118.39076 4.66947835,119.593529 4.48140195,120.78555200000001 4.32329755,121.96748600000001 4.19557485,123.14020400000001 4.09871528,124.304767 4.033309225,125.462416 4.00009495,126.614564 4.0,127.762797 4.034188797,128.9088966 4.10386447,130.05484330000002 4.20895455,131.20257600000002 4.34903185,132.353709 4.52386225,133.509513 4.7333453500000005,134.670904 4.97745185,135.838413 5.25615575,137.012147 5.56936075,138.19172700000001 5.9168097500000005,139.37622000000002 6.298227750000001,140.56397 6.7158447500000005,141.75152 7.1737917499999995,142.93457 7.67649975,144.10897 8.22874575,145.27081 8.83575875,146.41637 9.502938749999998,147.54240000000001 10.23152375,148.64832 11.019939749999999,149.73508 11.86650775,150.80352 12.769424749999999,151.85435 13.72668775,152.88815 14.736007749999999,153.90535 15.794737750000001,154.90626 16.899727749999997,155.89104 18.04888775,156.86 19.24245775,157.81399 20.48081775,158.75399000000002 21.76429775,159.68112000000002 23.09312775,160.59666 24.46744775,161.50207 25.887277750000003,162.399 27.352477750000002,163.2893 28.862707750000002,164.17509 30.417687750000002,165.05849 32.01847775,165.94006000000002 33.66670775,166.81985 35.36410775,167.6979 37.112477750000004,168.57432 38.91369775,169.44925 40.769787750000006,170.32287000000002 42.68286775,171.19544000000002 44.65530775,172.06724 46.689687750000004,172.93857 48.78870775,173.8098 50.955127749999996,174.68135 53.19180775,175.5537 55.50163775,176.42743000000002 57.887887750000004,177.30285 60.35413775000001,178.18017 62.90410775,179.05962 65.54166775,179.94148 68.27076775,180.82615 71.09548775,181.71407 74.01992775000001,182.60584 77.04823775000001,183.50218 80.18454775,184.40399 83.43330775,185.31157000000002 86.79956775,186.2242 90.28866775,187.14096 93.90619775,188.06084 97.65810775,188.98275 101.55089775,189.90554 105.59174775,190.82806 109.78864775000001,191.74976 114.14954775000001,192.67104 118.68174775,193.59243 123.39144775,194.51454 128.28334775,195.43809 133.35944775,196.36335 138.62074775,197.28719999999998 144.06864775,198.20493 149.70614775,199.11165 155.53924775,200.00245 161.57774775,200.87513 167.83024774999998,201.73275 174.30024774999998,202.57935 180.98274775000002,203.41934 187.86374775,204.25330000000002 194.92624775,205.07464 202.15534774999998,205.87618 209.54124775,206.65127999999999 217.07834775,207.39535 224.76204775,208.10485 232.58894775,208.77643999999998 240.55584775,209.40931 248.65614775,210.00560000000002 256.87704775000003,210.5678 265.20124775,211.09591999999998 273.61284775,211.58612 282.10154775,212.03475 290.66214775,212.43956 299.28924774999996,212.79998 307.97484775,213.11554 316.70944775,213.38463000000002 325.48844775000003,213.60442 334.31444775,213.7725 343.19324774999995,213.89133 352.12444775,213.96721000000002 361.09704775,214.00616000000002 370.09384774999995,214.00988 379.09614775,213.97820000000002 388.08634775,213.90995 397.05234774999997,213.79919999999998 405.99294775,213.63891999999998 414.91594775,213.42476 423.82854775,213.1581 432.73124774999997,212.84113000000002 441.61974775,212.47496999999998 450.49044775000004,212.05924 459.34324775,211.59345000000002 468.17924775,211.07832000000002 476.99624775,210.5158 485.78764775,209.90768 494.54514775,209.25193000000002 503.26364774999996,208.5445 511.94254774999996,207.78093 520.58674775,206.95532 529.2091477499999,206.06046 537.8304477500001,205.09018 546.47244775,204.04629 555.14944775,202.93304 563.86794775,201.75512 572.6288477500001,200.51681000000002 581.4287477500001,199.22294 590.26094775,197.87685 599.1205477499999,196.47761 608.00814775,195.02303 616.9286477500001,193.51148999999998 625.88504775,191.94319000000002 634.87514775,190.31908 643.89644775,188.63725 652.95744775,186.8915 662.08174775,185.07436 671.29634775,183.18976 680.6095477499999,181.25037 690.0059477499999,179.27093000000002 699.4622477500001,177.25929000000002 708.9617477500001,175.22079000000002 718.4932477499999,173.16252 728.03884775,171.09575 737.5698477499999,169.03351 747.05234775,166.98541 756.45634775,164.95866 765.75524775,162.95611000000002 774.9192477500001,160.97493 783.91554775,159.01437 792.72344775,157.09396 801.35604775,155.24308000000002 809.85374775,153.47976 818.25184775,151.79313000000002 826.54564775,150.1643 834.69344775,148.58471 842.64944775,147.06837000000002 850.39984775,145.63353 857.95894775,144.29027 865.35054775,143.03789 872.58234775,141.87135 879.6456477500001,140.78814 886.52294775,139.79228 893.2113477500001,138.900842 899.73004775,138.127613 906.1139477500001,137.482391 912.40274775,136.963477 918.62344775,136.555297 924.7861477499999,136.244177 930.8867477499999,136.01835400000002 936.91244775,135.873671 942.85434775,135.816869 948.7114477499999,135.854631 954.4900477499999,135.993043 960.20084775,136.237342 965.85464775,136.59056800000002 971.46164775,137.056045 977.0324477500001,137.638066 982.57794775,138.34182900000002 988.11134775,139.17107000000001 993.6475477500001,140.12896 999.20164775,141.22014000000001 1004.04224775,142.2785" stroke="black" stroke-width="2.0" /></svg>