<?xml version="1.0" encoding="utf-8" ?>
<svg baseProfile="full" height="162.45762" version="1.1" width="1011.995063208" xmlns="http://www.w3.org/2000/svg" xmlns:ev="http://www.w3.org/2001/xml-events" xmlns:xlink="http://www.w3.org/1999/xlink"><defs /><polygon fill="none" points="1003.995063208,79.22881 1001.489363208,77.833176 998.019363208,77.755884 994.556163208,77.44507 990.939563208,77.16023299999999 987.0628632080001,76.906376 982.9093632080001,76.57426199999999 978.453963208,76.15560099999999 973.673863208,75.68496499999999 968.581163208,75.17231199999999 963.200163208,74.60965999999999 957.546163208,73.991058 951.637063208,73.316007 945.504763208,72.585483 939.186663208,71.798887 932.711663208,70.954545 926.0972632080001,70.05268099999999 919.3608632080001,69.09616 912.523063208,68.08861999999999 905.6040632080001,67.03277 898.6194632080001,65.93078 891.5790632080001,64.78428 884.490363208,63.59477 877.3600632079999,62.36382 870.1936632080001,61.09277 862.9936632079999,59.78233 855.758863208,58.43253 848.4842632080001,57.043499999999995 841.164663208,55.616949999999996 833.797763208,54.15535 826.384063208,52.661849999999994 818.926163208,51.13977 811.427563208,49.59264999999999 803.892163208,48.024409999999996 796.325463208,46.44031999999999 788.736163208,44.84722 781.136763208,43.25296 773.543463208,41.66569 765.971463208,40.09193 758.430763208,38.53674999999999 750.9260632080001,37.004009999999994 743.4577632080001,35.49641 736.024563208,34.01601 728.624263208,32.56464 721.254163208,31.143919999999994 713.911263208,29.75493999999999 706.593763208,28.398509999999995 699.3015632080001,27.075709999999994 692.0356632080001,25.787809999999993 684.797663208,24.536529999999992 677.5875632080001,23.32371 670.4029632080001,22.150779999999997 663.239563208,21.01881999999999 656.091163208,19.928149999999995 648.952063208,18.878169999999997 641.8178632080001,17.868419999999993 634.685763208,16.898709999999994 627.553963208,15.969049999999996 620.421263208,15.079409999999996 613.285963208,14.229619999999997 606.1455632080001,13.419449999999998 598.996563208,12.648669999999996 591.8350632080001,11.916600000000003 584.6578632080001,11.222099999999998 577.462663208,10.564089999999993 570.2484632080001,9.941649999999996 563.0151632080001,9.354 555.763563208,8.8005 548.494163208,8.28058 541.207463208,7.793609999999987 533.903763208,7.338940000000008 526.5831632080001,6.915969999999987 519.2458632080001,6.524109999999993 511.89236320799995,6.162769999999995 504.52306320799994,5.831389999999985 497.138363208,5.529380000000003 489.739163208,5.2561899999999895 482.325863208,5.011319999999998 474.899063208,4.7942099999999925 467.459263208,4.604299999999995 460.007063208,4.441109999999995 452.54336320799996,4.304179999999988 445.069563208,4.193060000000003 437.58756320799995,4.107289999999992 430.09976320799996,4.046520000000001 422.607963208,4.010739999999998 415.11316320799995,4.0 407.615063208,4.014319999999998 400.112563208,4.053669999999997 392.604363208,4.117710000000002 385.090863208,4.205950000000001 377.573863208,4.317869999999999 370.05716320799996,4.452909999999989 362.54496320799996,4.6111899999999935 355.040363208,4.793289999999985 347.544563208,4.999849999999995 340.056863208,5.231529999999992 332.57506320799996,5.48872999999999 325.098063208,5.771439999999998 317.625963208,6.079599999999985 310.160363208,6.413099999999986 302.704063208,6.7720099999999945 295.25936320799997,7.156819999999996 287.82736320799995,7.568119999999993 280.407963208,8.006520000000009 273.00016320799995,8.472499999999997 265.603263208,8.966219999999993 258.21776320800006,9.487729999999999 250.845463208,10.03698 243.488963208,10.614109999999997 236.151063208,11.219470000000001 228.835263208,11.853359999999995 221.544663208,12.516019999999997 214.282863208,13.208020000000005 207.052463208,13.930089999999993 199.855763208,14.683019999999985 192.694363208,15.467499999999994 185.571163208,16.283889999999992 178.491363208,17.13207 171.46306320800002,18.011509999999994 164.495763208,18.922109999999996 157.598363208,19.8647 150.777663208,20.840099999999993 144.038863208,21.848879999999994 137.388663208,22.890299999999996 130.838163208,23.96241 124.401463208,25.062309999999997 118.09586320800001,26.187129999999996 111.940563208,27.333659999999995 105.955163208,28.497709999999998 100.15797320800002,29.675199999999997 94.565593208,30.862959999999994 89.191003208,32.05743 84.042963208,33.25475 79.12827320800001,34.45083999999999 74.453283208,35.64077999999999 70.021593208,36.81942999999999 65.83313320799999,37.983129999999996 61.884213208,39.13084 58.167013208,40.26179 54.670593208,41.37532 51.382483208,42.471059999999994 48.29062320799999,43.548649999999995 45.383223208,44.60756 42.64854320799999,45.647259999999996 40.075023208,46.66753 37.652173207999994,47.66946 35.370083208000004,48.654379999999996 33.219073208000005,49.623369999999994 31.189823208,50.577299999999994 29.273543208,51.516949999999994 27.462603208,52.44355999999999 25.750133208,53.35848 24.129553208000004,54.26285 22.594623208,55.15764999999999 21.139523208,56.0437 19.759093207999996,56.92188999999999 18.449863208,57.79396 17.208893208,58.66149 16.033333208000002,59.52566999999999 14.920393208,60.38736999999999 13.867347208,61.24722 12.871782207999999,62.105729999999994 11.933174208,62.96397999999999 11.051363208,63.823429999999995 10.225600208,64.68562 9.454799208,65.55213 8.737725208,66.42454 8.073116208,67.30442 7.460040208000001,68.19236 6.898265208,69.08708999999999 6.387888208,69.98682099999999 5.929107208,70.889505 5.522065208,71.792855 5.166721208,72.694446 4.862687908,73.591732 4.608329508,74.481842 4.401144908,75.362927 4.238642508,76.234577 4.118637808,77.097498 4.039441748,77.953267 4.0,78.8042163 4.0,79.6534037 4.039441748,80.504353 4.118637808,81.36012199999999 4.238642508,82.22304299999999 4.401144908,83.09469299999999 4.608329508,83.97577799999999 4.862687908,84.865888 5.166721208,85.76317399999999 5.522065208,86.66476499999999 5.929107208,87.56811499999999 6.387888208,88.470799 6.898265208,89.37053 7.460040208000001,90.26526 8.073116208,91.1532 8.737725208,92.03308 9.454799208,92.90549 10.225600208,93.77199999999999 11.051363208,94.63418999999999 11.933174208,95.49364 12.871782207999999,96.35189 13.867347208,97.21039999999999 14.920393208,98.07025 16.033333208000002,98.93195 17.208893208,99.79612999999999 18.449863208,100.66366 19.759093207999996,101.53573 21.139523208,102.41391999999999 22.594623208,103.29997 24.129553208000004,104.19476999999999 25.750133208,105.09913999999999 27.462603208,106.01406 29.273543208,106.94067 31.189823208,107.88032 33.219073208000005,108.83425 35.370083208000004,109.80323999999999 37.652173207999994,110.78815999999999 40.075023208,111.79008999999999 42.64854320799999,112.81036 45.383223208,113.85005999999998 48.29062320799999,114.90897 51.382483208,115.98656 54.670593208,117.08229999999999 58.167013208,118.19583 61.884213208,119.32677999999999 65.83313320799999,120.47449 70.021593208,121.63819000000001 74.453283208,122.81684 79.12827320800001,124.00677999999999 84.042963208,125.20286999999999 89.191003208,126.40019 94.565593208,127.59466 100.15797320800002,128.78242 105.955163208,129.95990999999998 111.940563208,131.12396 118.09586320800001,132.27049 124.401463208,133.39531 130.838163208,134.49521 137.388663208,135.56732 144.038863208,136.60874 150.777663208,137.61752 157.598363208,138.59292 164.495763208,139.53551 171.46306320800002,140.44611 178.491363208,141.32555 185.571163208,142.17373 192.694363208,142.99012 199.855763208,143.77460000000002 207.052463208,144.52753 214.282863208,145.2496 221.544663208,145.9416 228.835263208,146.60426 236.151063208,147.23815 243.488963208,147.84350999999998 250.845463208,148.42064 258.21776320800006,148.96989 265.603263208,149.4914 273.00016320799995,149.98512 280.407963208,150.4511 287.82736320799995,150.8895 295.25936320799997,151.30079999999998 302.704063208,151.68561 310.160363208,152.04452 317.625963208,152.37802 325.098063208,152.68617999999998 332.57506320799996,152.96889 340.056863208,153.22609 347.544563208,153.45776999999998 355.040363208,153.66433 362.54496320799996,153.84643 370.05716320799996,154.00471 377.573863208,154.13975 385.090863208,154.25167 392.604363208,154.33990999999997 400.112563208,154.40395 407.615063208,154.4433 415.11316320799995,154.45762 422.607963208,154.44688 430.09976320799996,154.41109999999998 437.58756320799995,154.35032999999999 445.069563208,154.26456 452.54336320799996,154.15344 460.007063208,154.01650999999998 467.459263208,153.85332 474.899063208,153.66341 482.325863208,153.4463 489.739163208,153.20143000000002 497.138363208,152.92824 504.52306320799994,152.62623000000002 511.89236320799995,152.29485 519.2458632080001,151.93351 526.5831632080001,151.54165 533.903763208,151.11867999999998 541.207463208,150.66401000000002 548.494163208,150.17703999999998 555.763563208,149.65712 563.0151632080001,149.10361999999998 570.2484632080001,148.51596999999998 577.462663208,147.89353 584.6578632080001,147.23552 591.8350632080001,146.54102 598.996563208,145.80894999999998 606.1455632080001,145.03816999999998 613.285963208,144.228 620.421263208,143.37821 627.553963208,142.48856999999998 634.685763208,141.55891 641.8178632080001,140.5892 648.952063208,139.57945 656.091163208,138.52947 663.239563208,137.43880000000001 670.4029632080001,136.30684 677.5875632080001,135.13391 684.797663208,133.92109 692.0356632080001,132.66980999999998 699.3015632080001,131.38191 706.593763208,130.05911 713.911263208,128.70268 721.254163208,127.3137 728.624263208,125.89298 736.024563208,124.44161 743.4577632080001,122.96121 750.9260632080001,121.45361 758.430763208,119.92087000000001 765.971463208,118.36569 773.543463208,116.79193 781.136763208,115.20465999999999 788.736163208,113.6104 796.325463208,112.0173 803.892163208,110.43321 811.427563208,108.86497 818.926163208,107.31784999999999 826.384063208,105.79577 833.797763208,104.30227 841.164663208,102.84066999999999 848.4842632080001,101.41412 855.758863208,100.02508999999999 862.9936632079999,98.67528999999999 870.1936632080001,97.36484999999999 877.3600632079999,96.09379999999999 884.490363208,94.86285 891.5790632080001,93.67334 898.6194632080001,92.52683999999999 905.6040632080001,91.42484999999999 912.523063208,90.369 919.3608632080001,89.36146 926.0972632080001,88.404939 932.711663208,87.503075 939.186663208,86.658733 945.504763208,85.872137 951.637063208,85.14161299999999 957.546163208,84.466562 963.200163208,83.84796 968.581163208,83.285308 973.673863208,82.772655 978.453963208,82.302019 982.9093632080001,81.883358 987.0628632080001,81.551244 990.939563208,81.297387 994.556163208,81.01254999999999 998.019363208,80.701736 1001.489363208,80.624444 1003.995063208,79.22881" stroke="black" stroke-width="2.0" /></svg>