<?xml version="1.0" encoding="utf-8" ?>
<svg baseProfile="full" height="73.8517" version="1.1" width="1011.991691007" xmlns="http://www.w3.org/2000/svg" xmlns:ev="http://www.w3.org/2001/xml-events" xmlns:xlink="http://www.w3.org/1999/xlink"><defs /><polygon fill="none" points="1003.991691007,32.92585 1001.0925910069999,32.702047 997.584791007,32.43278 993.882491007,32.150397999999996 989.965091007,31.853633000000002 985.8098910069999,31.541136 981.393191007,31.211531 976.6906910069999,30.86352 971.680991007,30.496069 966.348691007,30.108705 960.691491007,29.701948 954.727791007,29.277862 948.572791007,28.845179 942.536991007,28.425494 936.5900910070001,28.01605 930.671991007,27.612207 924.7374910069999,27.210478000000002 918.7526910070001,26.808216 912.693691007,26.403496 906.547791007,25.995145 900.354291007,25.585422 894.222091007,25.181432 888.143991007,24.78279 882.1054910070001,24.38865 876.093991007,23.9983 870.0984910069999,23.611150000000002 864.109691007,23.22672 858.119291007,22.84462 852.1201910069999,22.464550000000003 846.106491007,22.086289999999998 840.073291007,21.709690000000002 834.016591007,21.334670000000003 827.933591007,20.96127 821.822591007,20.589550000000003 815.6830910069999,20.21969 809.516091007,19.85194 803.323791007,19.48665 797.1101910069999,19.124180000000003 790.898291007,18.76585 784.699391007,18.4122 778.509791007,18.062910000000002 772.326191007,17.7177 766.145891007,17.37631 759.966091007,17.0385 753.784691007,16.70407 747.599891007,16.37283 741.409891007,16.044620000000002 735.2136910070001,15.71929 729.010391007,15.396730000000002 722.799291007,15.076820000000001 716.5801910069999,14.75947 710.358691007,14.444890000000001 704.143891007,14.13344 697.9351910070001,13.825050000000001 691.7315910069999,13.51979 685.532291007,13.21783 679.336291007,12.91931 673.142791007,12.624379999999999 666.951191007,12.333210000000001 660.760791007,12.045949999999998 654.570891007,11.76277 648.381191007,11.48386 642.191091007,11.20937 636.000191007,10.939510000000002 629.808291007,10.67444 623.614991007,10.414359999999999 617.420291007,10.159460000000003 611.223891007,9.90993 605.0258910069999,9.66599 598.826191007,9.427790000000002 592.6249910070001,9.19531 586.422291007,8.968410000000002 580.218191007,8.746969999999997 574.0127910069999,8.53088 567.8061910069999,8.32 561.598591007,8.11421 555.389891007,7.913399999999999 549.1803910069999,7.71743 542.970191007,7.5261700000000005 536.759291007,7.339510000000001 530.547991007,7.157320000000002 524.336291007,6.979469999999999 518.124391007,6.80584 511.912391007,6.636300000000002 505.7004910069999,6.470720000000004 499.48879100700003,6.309000000000001 493.277491007,6.151209999999999 487.066691007,5.997540000000001 480.856491007,5.848179999999999 474.646991007,5.703289999999999 468.438291007,5.56307 462.230391007,5.427699999999998 456.02349100699996,5.297340000000002 449.81739100699997,5.1721900000000005 443.612391007,5.052409999999998 437.40819100699997,4.938190000000002 431.204991007,4.829709999999999 425.002691007,4.7271300000000025 418.801291007,4.63064 412.600591007,4.5404199999999975 406.400691007,4.4566300000000005 400.201291007,4.379460000000002 394.002491007,4.309050000000003 387.804191007,4.2455099999999995 381.606191007,4.18899 375.408591007,4.139599999999998 369.21129100699994,4.097459999999998 363.014291007,4.062709999999999 356.81769100699995,4.0354600000000005 350.62139100699994,4.015839999999997 344.425591007,4.0039799999999985 338.230191007,4.0 332.03549100699996,4.00403 325.841391007,4.016190000000002 319.648191007,4.0366 313.455891007,4.065380000000001 307.264791007,4.10266 301.07489100699996,4.148560000000003 294.886591007,4.203219999999998 288.699891007,4.266790000000004 282.514891007,4.339449999999999 276.33179100699994,4.42135 270.15049100699997,4.51266 263.970991007,4.61354 257.793191007,4.724149999999998 251.61699100699997,4.844660000000001 245.44229100699997,4.97523 239.26879100699998,5.116040000000002 233.096191007,5.267250000000001 226.924291007,5.4290400000000005 220.75269100699998,5.601580000000002 214.580891007,5.7850699999999975 208.408691007,5.979670000000002 202.23539100699998,6.185600000000001 196.06059100699997,6.403109999999998 189.88429100699997,6.632649999999998 183.70719100699998,6.87463 177.53029100699996,7.129439999999999 171.35529100699998,7.39743 165.184491007,7.678930000000001 159.02069100699998,7.9742 152.86709100699997,8.283470000000001 146.72759100699997,8.607570000000003 140.60469100699999,8.94887 134.49999100699998,9.310009999999998 128.413591007,9.6936 122.344091007,10.102329999999998 116.289191007,10.53894 110.245191007,11.006260000000001 104.207191007,11.5073 98.169891007,12.043870000000002 92.128011007,12.612020000000001 86.074281007,13.206479999999999 79.998141007,13.822400000000002 73.885401007,14.458649999999999 67.738231007,15.13503 61.628731007,15.872030000000002 55.693761007000006,16.675890000000003 50.086671007,17.53403 44.883331007,18.407610000000002 40.001701007,19.276510000000002 35.274701007000004,20.14794 30.451341007,21.051920000000003 25.045451007,22.09715 19.678701007,23.487270000000002 16.182491007,24.750480000000003 13.834819007,25.781363 12.081801007,26.657315 10.683797006999999,27.434231 9.526158007,28.143305 8.546261007,28.80296 7.706223007,29.425011 6.981441007,30.01756 6.3551420069999995,30.586475 5.815518007,31.136206 5.354120007000001,31.670258 4.964897507,32.191497 4.643612407,32.702346000000006 4.3874755069999996,33.204929 4.194930907,33.701167999999996 4.065547887,34.1928791 4.0,34.681838299999995 4.0,35.1698617 4.065547887,35.6588209 4.194930907,36.150532 4.3874755069999996,36.646771 4.643612407,37.149354 4.964897507,37.660203 5.354120007000001,38.181442000000004 5.815518007,38.715494 6.3551420069999995,39.265225 6.981441007,39.83414 7.706223007,40.426689 8.546261007,41.04874 9.526158007,41.708395 10.683797006999999,42.417469 12.081801007,43.194385 13.834819007,44.070337 16.182491007,45.10122 19.678701007,46.36443 25.045451007,47.75455 30.451341007,48.79978 35.274701007000004,49.70376 40.001701007,50.57519 44.883331007,51.44409 50.086671007,52.31767 55.693761007000006,53.17581 61.628731007,53.97967 67.738231007,54.71667 73.885401007,55.39305 79.998141007,56.0293 86.074281007,56.64522 92.128011007,57.23968 98.169891007,57.807829999999996 104.207191007,58.3444 110.245191007,58.845439999999996 116.289191007,59.31276 122.344091007,59.74937 128.413591007,60.158100000000005 134.49999100699998,60.54169 140.60469100699999,60.90283 146.72759100699997,61.24413 152.86709100699997,61.56823 159.02069100699998,61.8775 165.184491007,62.17277 171.35529100699998,62.45427 177.53029100699996,62.722260000000006 183.70719100699998,62.97707 189.88429100699997,63.21905 196.06059100699997,63.44859 202.23539100699998,63.6661 208.408691007,63.872029999999995 214.580891007,64.06663 220.75269100699998,64.25012 226.924291007,64.42266000000001 233.096191007,64.58445 239.26879100699998,64.73566 245.44229100699997,64.87647 251.61699100699997,65.00704 257.793191007,65.12755 263.970991007,65.23816 270.15049100699997,65.33904 276.33179100699994,65.43035 282.514891007,65.51225 288.699891007,65.58491 294.886591007,65.64848 301.07489100699996,65.70313999999999 307.264791007,65.74904000000001 313.455891007,65.78632 319.648191007,65.8151 325.841391007,65.83551 332.03549100699996,65.84767 338.230191007,65.8517 344.425591007,65.84772000000001 350.62139100699994,65.83586 356.81769100699995,65.81624 363.014291007,65.78899 369.21129100699994,65.75424000000001 375.408591007,65.7121 381.606191007,65.66271 387.804191007,65.60619 394.002491007,65.54265 400.201291007,65.47224 406.400691007,65.39507 412.600591007,65.31128000000001 418.801291007,65.22106 425.002691007,65.12457 431.204991007,65.02199 437.40819100699997,64.91351 443.612391007,64.79929 449.81739100699997,64.67951 456.02349100699996,64.55436 462.230391007,64.424 468.438291007,64.28863 474.646991007,64.14841 480.856491007,64.00352000000001 487.066691007,63.85416 493.277491007,63.70049 499.48879100700003,63.542699999999996 505.7004910069999,63.380979999999994 511.912391007,63.2154 518.124391007,63.045860000000005 524.336291007,62.87223 530.547991007,62.694379999999995 536.759291007,62.512190000000004 542.970191007,62.32553 549.1803910069999,62.13427 555.389891007,61.9383 561.598591007,61.73749 567.8061910069999,61.5317 574.0127910069999,61.32082 580.218191007,61.10473 586.422291007,60.88329 592.6249910070001,60.65639 598.826191007,60.42391 605.0258910069999,60.18571 611.223891007,59.941770000000005 617.420291007,59.69224 623.614991007,59.437340000000006 629.808291007,59.177260000000004 636.000191007,58.912189999999995 642.191091007,58.64233 648.381191007,58.36784 654.570891007,58.088930000000005 660.760791007,57.80575 666.951191007,57.51849 673.142791007,57.227320000000006 679.336291007,56.93239 685.532291007,56.63387 691.7315910069999,56.33191 697.9351910070001,56.026650000000004 704.143891007,55.71826 710.358691007,55.40681 716.5801910069999,55.09223 722.799291007,54.774879999999996 729.010391007,54.45497 735.2136910070001,54.13241 741.409891007,53.80708 747.599891007,53.47887 753.784691007,53.14763 759.966091007,52.8132 766.145891007,52.475390000000004 772.326191007,52.134 778.509791007,51.78879 784.699391007,51.4395 790.898291007,51.08585 797.1101910069999,50.72752 803.323791007,50.36505 809.516091007,49.99976 815.6830910069999,49.63201 821.822591007,49.26215 827.933591007,48.89043 834.016591007,48.51703 840.073291007,48.14201 846.106491007,47.76541 852.1201910069999,47.38715 858.119291007,47.00708 864.109691007,46.62498 870.0984910069999,46.24055 876.093991007,45.8534 882.1054910070001,45.46305 888.143991007,45.06891 894.222091007,44.670268 900.354291007,44.266278 906.547791007,43.856555 912.693691007,43.448204000000004 918.7526910070001,43.043484 924.7374910069999,42.641222 930.671991007,42.239493 936.5900910070001,41.83565 942.536991007,41.426206 948.572791007,41.006521 954.727791007,40.573838 960.691491007,40.149752 966.348691007,39.742995 971.680991007,39.355631 976.6906910069999,38.98818 981.393191007,38.640169 985.8098910069999,38.310564 989.965091007,37.998067 993.882491007,37.701302 997.584791007,37.41892 1001.0925910069999,37.149653 1003.991691007,36.92585" stroke="black" stroke-width="2.0" /></svg>