<?xml version="1.0" encoding="utf-8" ?>
<svg baseProfile="full" height="75.57093" version="1.1" width="1012.007402101" xmlns="http://www.w3.org/2000/svg" xmlns:ev="http://www.w3.org/2001/xml-events" xmlns:xlink="http://www.w3.org/1999/xlink"><defs /><polygon fill="none" points="1004.007402101,52.41106 1001.1449021010001,52.121823 997.6806021010001,51.772832 994.0231021010001,51.405623000000006 990.1513021009999,51.018307 986.042302101,50.608823 981.6711021010001,50.175003000000004 977.0126021010001,49.714688 972.0434021010001,49.225966 966.746002101,48.707566 961.1148021010001,48.159467 955.165602101,47.58372 949.0041021010001,46.990956000000004 942.9604021010001,46.412710000000004 937.013202101,45.846349000000004 931.0996021010001,45.285384 925.172402101,44.724915 919.1960021010001,44.161190000000005 913.145002101,43.591440000000006 907.005602101,43.013940000000005 900.800902101,42.430460000000004 894.649802101,41.851960000000005 888.555302101,41.278760000000005 882.502002101,40.70944 876.476702101,40.1428 870.468002101,39.57779 864.466002101,39.013510000000004 858.462102101,38.449200000000005 852.4489021009999,37.88418 846.420202101,37.31792 840.370802101,36.74996 834.296702101,36.179950000000005 828.195002101,35.60768 822.064002101,35.033 815.903302101,34.455940000000005 809.713902101,33.87664 803.498702101,33.295370000000005 797.280202101,32.71434 791.078502101,32.13555 784.889602101,31.55876 778.709502101,30.98376 772.534602101,30.41034 766.361902101,29.83837 760.188502101,29.267740000000003 754.0122021010001,28.698370000000004 747.830802101,28.130240000000004 741.642902101,27.56334 735.447002101,26.99772 729.2423021010001,26.43344 723.0284021010001,25.870620000000002 716.805002101,25.309410000000003 710.577502101,24.750450000000004 704.357402101,24.1949 698.144102101,23.64288 691.936302101,23.094460000000005 685.733102101,22.54972 679.533202101,22.008760000000002 673.3356021010001,21.471690000000002 667.139702101,20.93864 660.9445021010001,20.409730000000003 654.7494021010001,19.8851 648.554002101,19.364910000000002 642.357602101,18.84932 636.160102101,18.338500000000003 629.961202101,17.832640000000005 623.760702101,17.331910000000008 617.558502101,16.83652 611.354802101,16.34668 605.149602101,15.862610000000004 598.943302101,15.384510000000006 592.736302101,14.912660000000002 586.528702101,14.447300000000006 580.320802101,13.988690000000005 574.1131021010001,13.537079999999996 567.905602101,13.092730000000003 561.6986021010001,12.655860000000004 555.492302101,12.22674 549.286802101,11.805590000000002 543.082402101,11.392660000000006 536.879102101,10.988170000000004 530.676902101,10.592370000000003 524.476102101,10.205469999999998 518.276502101,9.827710000000003 512.078302101,9.459310000000002 505.881502101,9.100500000000004 499.68590210100007,8.751489999999997 493.491702101,8.412550000000003 487.29860210100003,8.083940000000005 481.106802101,7.765940000000008 474.91620210100007,7.458820000000003 468.726702101,7.162860000000002 462.53830210100006,6.878320000000002 456.35100210100006,6.60548 450.164602101,6.344610000000003 443.97920210100006,6.0959900000000005 437.794602101,5.859880000000004 431.6109021010001,5.636560000000003 425.428002101,5.426299999999998 419.245702101,5.229370000000003 413.064002101,5.046039999999998 406.882902101,4.876600000000003 400.70230210100004,4.7213000000000065 394.52210210100003,4.5804100000000005 388.342202101,4.454169999999998 382.16270210100004,4.342799999999997 375.98360210100003,4.246560000000002 369.805002101,4.165680000000002 363.626902101,4.100390000000004 357.449402101,4.05095 351.272602101,4.017580000000002 345.09680210100004,4.000520000000002 338.92200210100003,4.0 332.748602101,4.016269999999999 326.57660210100005,4.0495500000000035 320.406502101,4.100070000000002 314.238502101,4.168059999999997 308.07280210100004,4.2537300000000045 301.90990210100006,4.357300000000002 295.75010210100004,4.479109999999999 289.59380210100005,4.619640000000004 283.441302101,4.779420000000002 277.29290210100004,4.9589500000000015 271.148802101,5.158740000000002 265.00910210100005,5.379290000000005 258.873902101,5.621119999999998 252.743202101,5.8847200000000015 246.617002101,6.170609999999996 240.495202101,6.479300000000002 234.377602101,6.811320000000002 228.26390210099999,7.167180000000002 222.154002101,7.5474299999999985 216.04740210100002,7.952590000000001 209.94370210099999,8.383220000000001 203.84260210099998,8.839900000000007 197.743502101,9.32311 191.646102101,9.83307 185.550402101,10.369910000000004 179.456802101,10.933720000000001 173.36580210099999,11.524570000000004 167.27830210099998,12.142490000000002 161.195702101,12.787460000000003 155.119402101,13.459400000000002 149.051202101,14.158500000000004 142.99330210099998,14.88693 136.948402101,15.647730000000003 130.919402101,16.443800000000003 124.909402101,17.277900000000002 118.921802101,18.152630000000002 112.96040210099999,19.0704 107.028902101,20.0334 101.131512101,21.043480000000002 95.27033210100001,22.09905 89.43526210099999,23.19722 83.598862101,24.338910000000002 77.714682101,25.52982 71.71960210099999,26.786170000000002 65.663872101,28.11388 59.603612100999996,29.517570000000003 53.74084210099999,30.961100000000002 48.360052100999994,32.36782 43.489452101,33.70568 38.976912100999996,34.99722 34.620742101000005,36.29047 30.142282101,37.66784 25.000742101,39.33599 19.690612101,41.377720000000004 16.052942101,43.07193 13.682929101,44.32083 11.935450101,45.332462 10.549834101,46.20562 9.406310100999999,46.987896 8.440665101,47.70554 7.614444101,48.374684 6.902824101,49.006061 6.288936101,49.607252 5.760927101,50.183878 5.3103151010000005,50.740274 4.931012701,51.279906000000004 4.618729901,51.805636 4.370605401,52.319905000000006 4.184981501,52.824865 4.061286621,53.322474 4.0,53.814587 4.002697365,54.30302798 4.071459781,54.789657600000005 4.205573901,55.276309000000005 4.404094901,55.764718 4.667220401,56.256587 4.996290301,56.753653 5.393875101,57.257759 5.8639641010000005,57.770937 6.412298100999999,58.295511000000005 7.046898101,58.834227 7.778930101,59.390455 8.624132101,59.96848 9.605296101,60.57397 10.756854101000002,61.214747 12.134069101000001,61.902095 13.833321101000001,62.652804 16.039662100999998,63.489356 19.120792101,64.4115 23.708342101,65.29467 29.017322101,65.83105 33.939682101,66.20826 38.790552100999996,66.54282 43.795762101,66.8448 49.108052101,67.11118 54.806752100999994,67.32605000000001 60.827362101,67.46886 67.025252101,67.54365 73.24780210099999,67.56927999999999 79.470962101,67.57093 85.67840210099999,67.56877 91.880992101,67.56438 98.088112101,67.55559 104.303202101,67.54021 110.52480210099999,67.51663 116.751902101,67.48535000000001 122.983802101,67.44729000000001 129.219902101,67.40344 135.459502101,67.35474 141.702202101,67.30217999999999 147.947502101,67.24675 154.195002101,67.18941000000001 160.44420210099997,67.13106 166.694402101,67.07218 172.944902101,67.01315 179.195002101,66.95438 185.44440210099998,66.89626 191.692702101,66.83917 197.939702101,66.7835 204.185202101,66.72964 210.429302101,66.67792 216.672102101,66.62845 222.91370210099998,66.5813 229.154302101,66.53654 235.394102101,66.49424 241.633202101,66.45447 247.871602101,66.4173 254.109602101,66.38279 260.347302101,66.35102 266.58470210100006,66.32205 272.82200210100007,66.29596000000001 279.05940210100005,66.27280999999999 285.296802101,66.25267 291.534502101,66.23563 297.772402101,66.22173000000001 304.010802101,66.21107 310.24960210100005,66.20367 316.48900210100004,66.19944000000001 322.729002101,66.19825 328.969702101,66.19997000000001 335.211102101,66.20447 341.45320210100004,66.21162000000001 347.69600210100003,66.2213 353.93960210100005,66.23337000000001 360.18400210100003,66.24771 366.42920210100004,66.26418000000001 372.675002101,66.28265999999999 378.921602101,66.30302 385.168902101,66.32512 391.41680210100003,66.34884 397.665302101,66.37405000000001 403.91420210100006,66.40061 410.16370210100007,66.42840000000001 416.41340210100003,66.45724 422.663502101,66.48699 428.91380210100004,66.51747 435.16420210100006,66.54852 441.414802101,66.57997 447.665302101,66.61166 453.91590210100003,66.64343 460.166302101,66.67511999999999 466.416602101,66.70655 472.666702101,66.73756 478.916602101,66.76799 485.166202101,66.79768 491.415502101,66.82646 497.66440210100006,66.85416000000001 503.91290210100004,66.88063 510.16090210100003,66.90568999999999 516.4085021010001,66.92914 522.655502101,66.95077 528.901902101,66.97037 535.147702101,66.98774 541.3927021009999,67.00265999999999 547.636902101,67.01494 553.880302101,67.02435 560.1226021010001,67.0307 566.363902101,67.03377 572.604002101,67.03336 578.8428021010001,67.02927 585.080302101,67.02129 591.316202101,67.00921 597.550402101,66.99282 603.782902101,66.97194 610.0134021010001,66.94639000000001 616.242002101,66.91621 622.468402101,66.88151 628.6929021010001,66.84238 634.915502101,66.79892000000001 641.136502101,66.75121 647.3562021010001,66.69936 653.574902101,66.64345 659.793202101,66.58356 666.011502101,66.5198 672.230402101,66.45223 678.450802101,66.38095 684.673402101,66.30602999999999 690.899102101,66.22755000000001 697.128802101,66.14559 703.3635021010001,66.06021 709.604502101,65.97145 715.852602101,65.87921 722.1050021010001,65.78339 728.3501021010001,65.68403 734.587102101,65.58104 740.8166021010001,65.47427 747.0394021010001,65.36361 753.256902101,65.24889999999999 759.470702101,65.13 765.682802101,65.00674000000001 771.895502101,64.87894 778.1118021010001,64.74641 784.334702101,64.60895 790.5679021010001,64.46631 796.814702101,64.318266 803.0555021010001,64.165136 809.272902101,64.007263 815.4628021010001,63.844759 821.622802101,63.677739 827.751702101,63.506278 833.8501021010001,63.330419 839.9197021010001,63.150161000000004 845.963302101,62.965459 851.9851021009999,62.776224 857.9904021010001,62.582316000000006 863.9854021010001,62.383538 869.977502101,62.179637 875.9755021010001,61.970287 881.989202101,61.755088 888.0301021010001,61.533543 894.111602101,61.305048 900.249202101,61.068862 906.459502101,60.824138000000005 912.654602101,60.574307000000005 918.7566021010001,60.3228 924.778302101,60.069455000000005 930.744902101,59.813520000000004 936.692202101,59.553684000000004 942.667702101,59.287992 948.7345021010001,59.013639 954.9194021010001,58.729309 960.898702101,58.450087 966.560902101,58.181752 971.888402101,57.925795 976.885502101,57.682642 981.5693021010001,57.452034000000005 985.963102101,57.233328 990.0924021010001,57.025697 993.982102101,56.828256 997.655502101,56.640138 1001.1339021010001,56.460525000000004 1004.007402101,56.311060000000005" stroke="black" stroke-width="2.0" /></svg>