<?xml version="1.0" encoding="utf-8" ?>
<svg baseProfile="full" height="91.229492" version="1.1" width="1012.05865293" xmlns="http://www.w3.org/2000/svg" xmlns:ev="http://www.w3.org/2001/xml-events" xmlns:xlink="http://www.w3.org/1999/xlink"><defs /><polygon fill="none" points="1004.05865293,70.25979 1001.17595293,69.890979 997.6837529300001,69.446438 993.99245293,68.97922 990.07985293,68.486984 985.92145293,67.967197 981.49085293,67.417217 976.76125293,66.83447000000001 971.7077529300001,66.21678 966.31195293,65.56293 960.56965293,64.873503 954.50015293,64.15199 948.21835293,63.4127 942.05195293,62.692530000000005 935.97275293,61.98569 929.9152529300001,61.28231 923.83035293,60.574510000000004 917.68145293,59.8558 911.4439529299999,59.120850000000004 905.1272529299999,58.36814 898.87025293,57.61209 892.68635293,56.854690000000005 886.5567529299999,56.09483 880.46535293,55.33157 874.39835293,54.56414 868.34365293,53.79193000000001 862.29105293,53.01449 856.2314529299999,52.231480000000005 850.1571529299999,51.44273 844.06165293,50.64822 837.93965293,49.848060000000004 831.78685293,49.04257 825.60055293,48.23225 819.37935293,47.4178 813.12325293,46.60015 806.83395293,45.7805 800.5150529299999,44.96024 794.18555293,44.14224 787.87325293,43.329930000000004 781.57465293,42.522710000000004 775.28545293,41.71983 769.00195293,40.920660000000005 762.7205529299999,40.124610000000004 756.43855293,39.331160000000004 750.15335293,38.53985 743.86285293,37.75026 737.56545293,36.96204 731.25985293,36.174910000000004 724.94525293,35.388600000000004 718.6212529300001,34.60293 712.28785293,33.81777 705.94855293,33.03336 699.61495293,32.251070000000006 693.28775293,31.47115 686.96555293,30.693870000000004 680.64735293,29.9195 674.33215293,29.148339999999997 668.0191529299999,28.380680000000005 661.70755293,27.61685 655.39685293,26.857190000000003 649.0865529299999,26.10206 642.7762529299999,25.35181 636.46575293,24.606840000000005 630.15505293,23.867530000000002 623.8440529300001,23.13431 617.53285293,22.407600000000002 611.22185293,21.687830000000005 604.9112529299999,20.975459999999998 598.60175293,20.270960000000002 592.29375293,19.574980000000004 585.9877529299999,18.88816 579.68415293,18.21118 573.38315293,17.54466 567.0851529299999,16.889230000000005 560.79005293,16.245510000000003 554.49795293,15.6141 548.20885293,14.995579999999997 541.9225529299999,14.390539999999994 535.63875293,13.79954 529.35725293,13.22314 523.0775529299999,12.661910000000006 516.79915293,12.116390000000003 510.52155293000004,11.587130000000002 504.24405293,11.074659999999994 497.96585293,10.579450000000008 491.68645293,10.101529999999997 485.40515293,9.640870000000007 479.12155293,9.197429999999997 472.83545293,8.771200000000007 466.54655293,8.362170000000006 460.25495293,7.970360000000014 453.96075293,7.5957599999999985 447.66395293,7.238399999999999 441.36515292999997,6.898309999999995 435.06475293,6.575519999999997 428.76335293,6.270040000000009 422.46155293000004,5.981920000000002 416.16045293,5.711169999999996 409.86085293,5.457819999999998 403.56395293,5.221879999999999 397.27085293,5.003590000000003 390.98295293,4.803899999999999 384.70115293,4.62388 378.42615293,4.464569999999995 372.15875293,4.326999999999998 365.89905293,4.21217 359.64725293,4.121079999999992 353.40345293,4.05471 347.16725292999996,4.014020000000002 340.93825293,4.0 334.71585293,4.013620000000003 328.49905293,4.05586000000001 322.28695293000004,4.1277199999999965 316.07835293,4.230220000000003 309.87175293,4.364400000000003 303.66565293,4.531350000000003 297.45835293,4.731989999999996 291.24815293,4.966629999999995 285.03405293,5.235440000000011 278.81535293,5.538620000000009 272.59165293,5.8763700000000085 266.36335293,6.2488500000000045 260.13075293,6.656229999999994 253.89505293,7.098600000000005 247.65765293,7.57602 241.42045293,8.088480000000004 235.18585293,8.635899999999992 228.95655293000002,9.218100000000007 222.73585293,9.834800000000001 216.52715293,10.485610000000008 210.33465292999998,11.170029999999997 204.16245293,11.887420000000006 198.01525293,12.63738 191.89675293,13.420989999999996 185.80825293,14.23995 179.74875293,15.096240000000002 173.71465293,15.992179999999998 167.70055293000001,16.93054 161.69835293,17.9146 155.69825293,18.948299999999996 149.68775293000002,20.036189999999998 143.65445293,21.181440000000002 137.59125293,22.385529999999996 131.49825292999998,23.64862 125.38375293,24.96909 119.26415293,26.343069999999997 113.16425292999999,27.76415 107.11615292999998,29.22332 101.15691293,30.709470000000003 95.31814293,32.21609 89.59596293,33.74944 83.94605293,35.32712 78.28714292999999,36.9797 72.49775292999999,38.75396 66.51108293000001,40.6831 60.514512929999995,42.7158 54.62064293,44.814409999999995 49.28787293,46.80136 44.59292293,48.625299999999996 40.36152293,50.33586 36.38771293,52.00737 32.44965293,53.73535 28.170072930000003,55.70875 23.22448293,58.16371 18.24121293,60.89748 14.984942929999999,62.82531 12.830677929999998,64.18199 11.21459393,65.269682 9.92076693,66.20280600000001 8.84832493,67.034468 7.94187593,67.793851 7.16763093,68.498907 6.50349293,69.161587 5.93432093,69.790337 5.44943493,70.391412 5.04119823,70.969632 4.7041742300000005,71.528837 4.43460483,72.07219 4.23009103,72.602375 4.08940507,73.121743 4.01239974,73.632424 4.0,74.1364173 4.054275007,74.63567493000001 4.17762073,75.1321079 4.36931523,75.6272776 4.62859303,76.122518 4.95585773,76.619058 5.35268693,77.118064 5.82192193,77.620666 6.36786493,78.127979 6.99659793,78.641112 7.71650393,79.161157 8.53907293,79.68914 9.48019793,80.225888 10.56229693,80.771691 11.81787793,81.325442 13.29562593,81.882308 15.06972293,82.42668 17.24319293,82.908803 19.943952930000002,83.218725 23.27635293,83.229492 27.00211293,82.956539 30.751662930000002,82.690599 34.51438293,82.589727 38.34767293,82.601434 42.29559293,82.66807 46.39300293,82.727457 50.66225293,82.70387600000001 55.10290293,82.501077 59.690172929999996,82.053406 64.40480293,81.402411 69.23516292999999,80.620161 74.18121293,79.793638 79.26076293,79.021892 84.51079293,78.387399 89.96447292999999,77.876218 95.64368293,77.447001 101.55242292999999,77.049277 107.66455293,76.62382600000001 113.92645293,76.146718 120.27545292999999,75.62948540000001 126.62055293,75.0892723 132.96885293,74.5359614 139.31155293,73.9808388 145.60255293,73.43832 151.84065293,72.918415 158.03795293000002,72.429079 164.21275293,71.97112 170.38115293,71.541308 176.55625293,71.136842 182.74795293,70.755312 188.96335292999999,70.39460700000001 195.20665293000002,70.052835 201.47885293,69.728271 207.77795293,69.419374 214.09925292999998,69.125625 220.43805293,68.847228 226.78995293,68.58434700000001 233.15085292999999,68.337081 239.51715292999998,68.105478 245.88555293000002,67.889533 252.25325292999997,67.68919600000001 258.61805293,67.50437600000001 264.97805293,67.334949 271.33185292999997,67.18076500000001 277.67865292999994,67.041651 284.01805293,66.917419 290.34995293000003,66.807871 296.67495293,66.712804 302.99385293,66.632017 309.30815293,66.565282 315.61925293,66.512179 321.92865293,66.472221 328.23765292999997,66.444931 334.54745293,66.429847 340.85905293,66.426513 347.17325293,66.43448000000001 353.49075293000004,66.453305 359.81215292999997,66.482545 366.13785293,66.52176 372.46815293,66.57051100000001 378.80325293,66.628354 385.14305293,66.694845 391.48735293,66.76953499999999 397.83585293,66.851969 404.18805293,66.941687 410.54345293,67.038285 416.90125293,67.141576 423.26095293000003,67.251429 429.62195292999996,67.367708 435.98385293,67.490276 442.34635293,67.618998 448.70905293,67.753737 455.07165292999997,67.89435800000001 461.43415293,68.040725 467.79625293000004,68.192704 474.15805293,68.350163 480.51965293,68.51297 486.88105292999995,68.680997 493.24245293,68.854118 499.60425293,69.032209 505.96655293,69.215147 512.32995293,69.402722 518.69465293,69.594565 525.06095293,69.790293 531.42925293,69.98952 537.79945293,70.191856 544.17175293,70.396908 550.54605293,70.60428 556.92225293,70.813575 563.30025293,71.024389 569.67975293,71.236316 576.0603529299999,71.448946 582.44175293,71.661867 588.82335293,71.874663 595.20465293,72.086916 601.58485293,72.298205 607.96345293,72.508111 614.33945293,72.716272 620.71245293,72.922371 627.08185293,73.12610000000001 633.44755293,73.327157 639.8092529300001,73.525248 646.1670529300001,73.7200851 652.52125293,73.9113852 658.87225293,74.0988718 665.2205529299999,74.2822725 671.56685293,74.4613191 677.9120529300001,74.63574635 684.2572529299999,74.805291 690.60355293,74.9696909 696.95245293,75.128684 703.30535293,75.2820066 709.66405293,75.4294293 716.03015293,75.570927 722.40475293,75.706535 728.78845293,75.836274 735.17275293,75.95998900000001 741.5484529299999,76.077545 747.91605293,76.189009 754.27705293,76.294459 760.63305293,76.393972 766.98645293,76.487625 773.33985293,76.575495 779.6964529300001,76.65765400000001 786.06005293,76.734167 792.4347529300001,76.805093 798.81955293,76.870425 805.18755293,76.929927 811.52925293,76.983515 817.84065293,77.030965 824.1191529299999,77.072059 830.36405293,77.106607 836.57635293,77.134432 842.75815293,77.155372 848.91305293,77.169258 855.0462529299999,77.175918 861.1635529299999,77.175158 867.27245293,77.166757 873.38165293,77.150453 879.50115293,77.125936 885.64255293,77.092827 891.8193529299999,77.050663 898.0471529299999,76.998876 904.34445293,76.936755 910.7065529299999,76.86381300000001 916.99565293,76.781682 923.19395293,76.691067 929.3256529299999,76.59206400000001 935.42675293,76.484387 941.5465529300001,76.367277 947.7504529299999,76.239331 954.07465293,76.099425 960.19625293,75.954953 965.99015293,75.810032 971.43495293,75.666586 976.53415293,75.52586720000001 981.30585293,75.3886018 985.7749529299999,75.2551433 989.96855293,75.1256015 993.91335293,74.9999359 997.63425293,74.8780189 1001.15385293,74.75967732 1004.05865293,74.65979" stroke="black" stroke-width="2.0" /></svg>