<?xml version="1.0" encoding="utf-8" ?>
<svg baseProfile="full" height="104.88623000000001" version="1.1" width="1012.04251174" xmlns="http://www.w3.org/2000/svg" xmlns:ev="http://www.w3.org/2001/xml-events" xmlns:xlink="http://www.w3.org/1999/xlink"><defs /><polygon fill="none" points="1004.04251174,80.52223000000001 1000.98201174,80.04030200000001 997.27711174,79.458206 993.3647117400001,78.84509200000001 989.22331174,78.19783600000001 984.8294117400001,77.51309900000001 980.15891174,76.787473 975.18821174,76.01774300000001 969.89791174,75.20135800000001 964.2769117400001,74.33717000000001 958.32971174,73.42645000000002 952.08511174,72.47418000000002 945.6378117400001,71.495 939.2724117399999,70.53151000000001 932.98021174,69.58153000000001 926.7029117400001,68.63543000000001 920.3973117400001,67.68598000000001 914.03311174,66.72786 907.59311174,65.75768000000001 901.11221174,64.77992 894.68971174,63.80927000000001 888.31761174,62.84490000000001 881.98221174,61.88505000000001 875.67131174,60.92825000000001 869.3746117400001,59.97326000000001 863.08321174,59.019030000000015 856.7892117399999,58.064710000000005 850.48601174,57.10961000000001 844.16801174,56.15322000000001 837.83091174,55.195200000000014 831.47101174,54.235360000000014 825.08631174,53.27371000000001 818.67541174,52.31044000000001 812.23861174,51.345940000000006 805.77731174,50.38079000000001 799.29421174,49.415780000000005 792.79351174,48.45164000000001 786.29371174,47.49110000000001 779.80341174,46.53538000000001 773.31961174,45.58400000000001 766.83921174,44.63649000000001 760.3597117400001,43.69243000000001 753.8789117399999,42.751460000000016 747.39481174,41.813280000000006 740.90571174,40.87761000000001 734.4102117399999,39.944240000000015 727.90731174,39.01298000000001 721.39731174,38.08387000000001 714.89141174,37.15848000000001 708.39351174,36.23732000000001 701.9033117399999,35.320310000000006 695.4203117400001,34.407590000000006 688.94411174,33.499610000000004 682.4739117400001,32.59689000000001 676.00941174,31.69991000000001 669.54991174,30.80917000000001 663.09501174,29.925190000000015 656.64411174,29.04847000000001 650.19691174,28.17950000000001 643.7530117399999,27.31880000000001 637.31181174,26.46688000000001 630.8730117399999,25.62425000000001 624.4362117400001,24.79142000000001 618.00111174,23.968910000000008 611.56731174,23.15724000000001 605.13451174,22.356940000000016 598.70251174,21.56849000000001 592.2710117400001,20.79225000000001 585.83981174,20.028470000000013 579.40881174,19.27743000000001 572.97811174,18.53942000000002 566.54741174,17.81473000000001 560.1170117400001,17.10364 553.68691174,16.40646000000001 547.25711174,15.72348000000001 540.8280117400001,15.05501000000001 534.39981174,14.401360000000011 527.97271174,13.762840000000011 521.54701174,13.13976000000001 515.12321174,12.532430000000005 508.70171174,11.941150000000007 502.28291174000003,11.366250000000008 495.86741174,10.808150000000012 489.45561174,10.267510000000001 483.04811173999997,9.745000000000005 476.64511174,9.241270000000014 470.24681174,8.756960000000007 463.85351174000004,8.292690000000007 457.46521174000003,7.849090000000004 451.08181174,7.426750000000013 444.70331174,7.026280000000014 438.32951174,6.648260000000008 431.96011174,6.29328000000001 425.59481174,5.961920000000006 419.23311174,5.65476000000001 412.87461174,5.372380000000007 406.51861174000004,5.115380000000002 400.16461174,4.884320000000017 393.81181174,4.679550000000006 387.45971174000005,4.501280000000008 381.10801174,4.349700000000013 374.75631174,4.225040000000021 368.40451174000003,4.127500000000012 362.05271174,4.057340000000011 355.70081174,4.01476000000001 349.34931174,4.0 342.99841174,4.013280000000009 336.64871174,4.054839999999999 330.30081174000003,4.124860000000012 323.95551174,4.223550000000003 317.61371174,4.351100000000017 311.27641174,4.5076600000000155 304.94481174000003,4.693370000000016 298.62011174,4.908470000000008 292.30381174,5.153960000000012 285.99741174,5.431090000000012 279.70231174,5.741100000000017 273.41961174,6.085190000000011 267.15041174000004,6.464550000000017 260.89561174,6.880340000000018 254.65601174,7.333700000000007 248.43221173999999,7.825770000000006 242.22471174000003,8.357670000000013 236.03411174000001,8.93050000000001 229.86051174,9.545360000000002 223.70431174,10.203350000000015 217.56531174000003,10.905580000000015 211.44371174000003,11.65315000000001 205.33921174,12.447170000000014 199.25171174000002,13.288630000000012 193.18051174000001,14.177400000000006 187.12411174000002,15.112980000000007 181.08001174,16.095070000000007 175.04481174,17.123660000000015 169.01431174,18.199000000000012 162.98311174,19.321700000000007 156.94481174,20.492710000000017 150.89221174000002,21.713510000000007 144.81801174,22.986720000000012 138.72071174,24.315070000000006 132.60541174000002,25.699810000000014 126.48551173999999,27.14021000000001 120.38161174,28.63320000000001 114.32151173999999,30.173150000000014 108.33831174,31.75187000000001 102.46814174,33.35907000000001 96.74375174,34.98737000000001 91.17166173999999,36.641870000000004 85.72322174,38.33807000000001 80.34258173999999,40.101540000000014 74.94667173999999,41.969740000000016 69.44502173999999,43.97688000000001 63.81975174,46.12754000000001 58.17501174,48.37565000000001 52.73019174,50.61920000000001 47.71074174,52.75354000000001 43.17817174,54.75350000000001 39.057411740000006,56.64926000000001 35.245681739999995,58.48513000000001 31.643781739999998,60.30947000000001 28.15302174,62.179490000000015 24.669681739999998,64.17135000000002 21.32477174,66.22575 18.454411739999998,68.10438 16.13110174,69.69925 14.237261740000001,71.05346000000002 12.67483674,72.22716000000001 11.35910474,73.27180000000001 10.23192374,74.22188000000001 9.25445474,75.10025800000001 8.40007074,75.92259100000001 7.64992374,76.70006300000001 6.9902947399999995,77.44094400000002 6.41098474,78.151553 5.90429574,78.83686100000001 5.464368739999999,79.50087800000001 5.08675474,80.14691700000002 4.76811374,80.77778300000001 4.50601414,81.39589800000002 4.29880034,82.00340800000001 4.14550524,82.60225600000001 4.045804152,83.194247 4.0,83.78110170000001 4.00904236,84.3645058 4.07453349,84.94615540000001 4.19686854,85.5274478 4.37454014,86.10926700000002 4.60654214,86.69236300000001 4.89249214,87.27740200000001 5.23259674,87.86497600000001 5.62764674,88.455605 6.07903174,89.04973500000001 6.58879374,89.64772200000002 7.15969474,90.24981000000001 7.79533374,90.85608700000002 8.50029674,91.466407 9.28036874,92.08027500000001 10.142804739999999,92.69664300000001 11.09668474,93.313568 12.15333074,93.92762000000002 13.326718739999999,94.53280300000002 14.633581739999999,95.11857 16.092251740000002,95.66605000000001 17.719631739999997,96.14322000000001 19.54649174,96.52050000000001 21.62166174,96.77437 24.00412174,96.88623000000001 26.75943174,96.86146000000001 29.95882174,96.76727000000001 33.68205174,96.70254000000001 37.96197174,96.68227000000002 42.722771740000006,96.69572000000001 47.78369174,96.71211000000001 52.97060174,96.68695000000001 58.239021740000005,96.57624000000001 63.66577174,96.37490000000001 69.33561174,96.09669000000001 75.30576174,95.76037000000001 81.57125174,95.39600000000002 88.03222174,95.02859000000001 94.56165173999999,94.66133300000001 101.07210174,94.292844 107.53381173999999,93.91881000000001 113.96061174,93.53690300000001 120.37301174,93.148182 126.78681173999999,92.754 133.21361174000003,92.355929 139.66081174,91.95580600000001 146.13151174,91.55576900000001 152.62451174,91.15827900000001 159.13401174,90.766005 165.65131174,90.38091700000001 172.16891174000003,90.00450300000001 178.68051174,89.63811600000001 185.18161174,89.28298000000001 191.66931174,88.94019300000001 198.14251174,88.610741 204.60141174000003,88.29550900000001 211.04771174,87.99512500000002 217.48361174000001,87.70962800000001 223.91121174,87.43896900000001 230.33241174,87.183125 236.74891174,86.94209300000001 243.16251174,86.71589500000002 249.57471174000003,86.50456700000001 255.98671174,86.30816800000001 262.39991174000005,86.12677000000001 268.81531173999997,85.960463 275.23411174,85.80934800000001 281.65691174,85.6735402 288.08461174,85.55316680000001 294.51791174,85.4483639 300.95721174,85.35927640000001 307.40291174,85.28603550000001 313.85521174,85.2283366 320.31451174,85.1854576 326.78091173999996,85.15665790000001 333.25441174,85.14119330000001 339.73521174,85.1383155 346.22321174,85.14727140000001 352.71841173999996,85.16730260000001 359.22071174,85.19764450000001 365.72991174,85.23752660000001 372.24571174,85.28617160000002 378.76781174,85.34279560000002 385.29581174000003,85.4066078 391.82941174,85.47681070000002 398.36801174,85.55260040000002 404.91101174000005,85.6331667 411.45781174,85.7178403 418.00781173999997,85.80634400000001 424.56061174,85.89846600000001 431.11561174,85.99399300000002 437.67241174000003,86.092712 444.23081174,86.19441 450.79041173999997,86.29887400000001 457.35111174,86.40589100000001 463.91271174,86.51525000000001 470.47531174,86.62673800000002 477.03891174,86.74014700000001 483.60341174,86.85526700000001 490.16921174000004,86.97189000000002 496.73651174,87.08980900000002 503.30551174000004,87.20882000000002 509.87661174,87.32873900000001 516.45021174,87.44950500000002 523.0264117400001,87.57109200000001 529.60141174,87.693408 536.17371174,87.81639400000002 542.74341174,87.940025 549.31071174,88.06428000000001 555.87621174,88.189141 562.4405117399999,88.314592 569.00411174,88.44062000000001 575.56811174,88.567214 582.1333117400001,88.69436800000001 588.70091174,88.82207600000001 595.27221174,88.95033800000002 601.84771174,89.079141 608.41941174,89.208257 614.98321174,89.33705100000002 621.5377117400001,89.46463600000001 628.0822117399999,89.590135 634.61621174,89.712686 641.13941174,89.83144300000001 647.6520117399999,89.94557400000001 654.1545117400001,90.05425900000002 660.6476117400001,90.156692 667.1324117400001,90.25207100000002 673.61041174,90.339606 680.08311174,90.41850300000002 686.55261174,90.48797 693.02121174,90.54720700000001 699.49131174,90.595403 705.96611174,90.63173700000002 712.4484117400001,90.65597500000001 718.94121174,90.66890400000001 725.4467117400001,90.67140400000001 731.96621174,90.66434900000002 738.5007117399999,90.64862300000001 745.05031174,90.62511900000001 751.61451174,90.59474600000001 758.18941174,90.558446 764.75731174,90.517278 771.31691174,90.47223100000001 777.8718117400001,90.42425000000001 784.42611174,90.37426900000001 790.9848117399999,90.32320700000001 797.55331174,90.27198000000001 804.12451174,90.22161100000001 810.67311174,90.17286000000001 817.1925117400001,90.12485400000001 823.6785117400001,90.07636600000001 830.12891174,90.02619800000001 836.54341174,89.97317500000001 842.92321174,89.91615000000002 849.27121174,89.85399500000001 855.59151174,89.78558900000002 861.88991174,89.70980800000001 868.17311174,89.625504 874.44941174,89.53148800000001 880.72831174,89.42649800000001 887.02121174,89.309177 893.34081174,89.17802300000001 899.70211174,89.03134700000001 906.12281174,88.867213 912.62131174,88.684183 919.17161174,88.48324600000001 925.66041174,88.26879300000002 932.10321174,88.04154700000001 938.54401174,87.80096900000001 945.04251174,87.54550800000001 951.54291174,87.27806000000001 957.82521174,87.009048 963.82251174,86.74290100000002 969.5005117400001,86.482515 974.8502117400001,86.22970500000001 979.87961174,85.98541100000001 984.60641174,85.74996300000001 989.05321174,85.52328740000002 993.24381174,85.30507630000001 997.20161174,85.09489510000002 1000.94851174,84.8922543 1004.04251174,84.72223000000001" stroke="black" stroke-width="2.0" /></svg>