<?xml version="1.0" encoding="utf-8" ?>
<svg baseProfile="full" height="138.15892000000002" version="1.1" width="1012.02048225" xmlns="http://www.w3.org/2000/svg" xmlns:ev="http://www.w3.org/2001/xml-events" xmlns:xlink="http://www.w3.org/1999/xlink"><defs /><polygon fill="none" points="1004.02048225,101.8194 1000.50598225,101.33477400000001 996.2639822499999,100.744664 991.8018822500001,100.117845 987.10108225,99.450725 982.14278225,98.73954800000001 976.9097822499999,97.98057 971.38808225,97.170371 965.57028225,96.306341 959.45978225,95.38736 953.07588225,94.41466000000001 946.45668225,93.39253000000001 939.65508225,92.32779000000001 932.7289822500001,91.22850000000001 925.73318225,90.10271 918.71338225,88.9574 911.70078225,87.79762000000001 904.71108225,86.626 897.7440822499999,85.44277000000001 890.79168225,84.24724 883.84558225,83.03882000000002 876.89858225,81.81705000000001 869.94448225,80.58160000000001 862.9780822499999,79.33226 855.99518225,78.06897000000001 848.99228225,76.79182 841.96698225,75.50110000000001 834.91778225,74.19725000000001 827.8445822499999,72.88095000000001 820.74788225,71.55307 813.62978225,70.21477 806.49328225,68.86742000000001 799.34288225,67.51267000000001 792.18358225,66.15242 785.01998225,64.78859 777.85638225,63.42296000000001 770.6959822499999,62.05720000000001 763.54148225,60.69285000000001 756.39488225,59.33131000000001 749.25738225,57.97381000000001 742.12958225,56.62149000000001 735.01138225,55.27530000000001 727.90208225,53.93609000000001 720.80008225,52.604580000000006 713.70348225,51.28135 706.60948225,49.96687000000001 699.51478225,48.661460000000005 692.41588225,47.364700000000006 685.30998225,46.07577000000001 678.19488225,44.793980000000005 671.06888225,43.51879 663.93148225,42.24978 656.7824822499999,40.98665 649.62248225,39.729240000000004 642.45308225,38.477530000000016 635.2764822500001,37.23159000000001 628.09558225,35.991640000000004 620.91428225,34.75801000000001 613.73688225,33.53115000000001 606.56878225,32.311620000000005 599.4157822499999,31.10018000000001 592.28368225,29.899020000000007 585.17728225,28.711060000000018 578.0999822499999,27.539000000000016 571.05438225,26.38525 564.04168225,25.25197 557.06208225,24.141090000000005 550.11508225,23.054320000000004 543.19898225,21.993170000000006 536.3114822499999,20.958990000000014 529.44938225,19.95302000000001 522.60888225,18.976360000000014 515.78528225,18.03003000000001 508.97328224999995,17.11500000000001 502.16708224999996,16.23223 495.36008224999995,15.381879999999995 488.54658225000003,14.56289000000001 481.72198225,13.774270000000001 474.88268225,13.015200000000007 468.02618225000003,12.285090000000011 461.15088225,11.583439999999996 454.25658224999995,10.90991000000001 447.34408225,10.26427000000001 440.41538224999994,9.646360000000016 433.47368224999997,9.056100000000015 426.52348225000003,8.493440000000007 419.57048224999994,7.95835000000001 412.62168225,7.450789999999998 405.68518224999997,6.97072 398.76988224999997,6.518270000000015 391.88498225,6.095500000000001 385.03758224999996,5.705300000000008 378.23308225,5.350100000000012 371.47508225,5.032200000000003 364.76508225000003,4.753600000000006 358.10358225,4.516000000000005 351.48908225,4.3211000000000155 344.91928225,4.170600000000007 338.39048225,4.065900000000013 331.89808224999996,4.008500000000012 325.43648225,4.0 318.99908224999996,4.042299999999997 312.57858225,4.137100000000004 306.16638225,4.28670000000001 299.75308225,4.493300000000005 293.32918225,4.7579000000000065 286.88668225,5.080500000000001 280.41928225,5.461200000000005 273.92268225,5.900300000000016 267.39478225,6.398140000000012 260.83518225,6.954720000000009 254.24628224999998,7.569980000000001 247.63278225,8.243470000000002 241.00178225,8.97429000000001 234.36348224999998,9.760970000000015 227.73038224999996,10.601370000000003 221.11748225,11.49260000000001 214.54188225,12.43104000000001 208.02228225,13.41231000000002 201.57778224999998,14.43144000000001 195.22688225,15.485900000000015 188.98038225,16.577430000000007 182.83988225,17.709050000000005 176.79878225,18.884860000000003 170.84488225,20.11012000000001 164.96048224999998,21.391470000000012 159.12348224999997,22.73728 153.30708224999998,24.158150000000006 147.47958225,25.665160000000014 141.61158224999997,27.26382000000001 135.68538224999998,28.956519999999998 129.69688225,30.741979999999998 123.65848224999999,32.613550000000004 117.60108225,34.557490000000016 111.57478225000001,36.55211 105.64438225,38.56863000000001 99.88089224999999,40.57612 94.34201225,42.56318000000001 89.04521225,44.53755 83.97552225000001,46.514860000000006 79.10050224999999,48.515640000000005 74.37878225,50.561310000000006 69.77632224999999,52.658950000000004 65.28659225,54.80163 60.926312249999995,56.97124000000001 56.72682225,59.14088000000001 52.72394225,61.27953000000001 48.95144225,63.35967000000001 45.42905225,65.36563000000001 42.15593225,67.29195000000001 39.11928225,69.13938000000002 36.30096225,70.91205000000001 33.68143225,72.61555000000001 31.24174225,74.25590000000001 28.96447225,75.83898 26.83229225,77.37238 24.82882225,78.86628 22.94784225,80.32249000000002 21.18799225,81.73702 19.547662250000002,83.10434000000001 18.02273225,84.41997 16.60641225,85.68161 15.29225225,86.88857000000002 14.08077225,88.04019000000001 12.968985250000001,89.13912 11.95051725,90.19001 11.01810825,91.19798 10.16471525,92.16795 9.38395025,93.10440000000001 8.670212249999999,94.01132000000001 8.018668250000001,94.89218000000001 7.4251942500000006,95.75007000000001 6.88629125,96.58767300000001 6.39901325,97.40739 5.96089825,98.21134900000001 5.56990725,99.00146400000001 5.22438225,99.77947 4.92300255,100.546958 4.6647605500000004,101.30540300000001 4.44893715,102.05618600000001 4.27508905,102.80061900000001 4.14304085,103.539966 4.05288465,104.275461 4.00498647,105.00832500000001 4.0,105.7397904 4.03886918,106.47111190000001 4.12175435,107.20320960000001 4.24747805,107.936419 4.41504925,108.670968 4.62376655,109.40702100000001 4.87319205,110.14468400000001 5.16313125,110.883998 5.49362225,111.624932 5.86492425,112.367383 6.27752325,113.111153 6.73212425,113.85594 7.22966525,114.601315 7.77132325,115.346692 8.35852625,116.09129 8.99296825,116.83409 9.67663125,117.57374 10.41179625,118.30853 11.20105925,119.03620000000001 12.047338250000001,119.75384000000001 12.953861250000001,120.45764000000001 13.924115250000002,121.14262000000001 14.96174225,121.80227000000001 16.07033225,122.42798 17.25320225,123.00893 18.515942250000002,123.53889000000001 19.86680225,124.01681 21.315192250000003,124.44278000000001 22.87165225,124.81848000000001 24.547842250000002,125.14812 26.35630225,125.43993 28.31001225,125.70827 30.42120225,125.97499 32.70354225,126.25048000000001 35.17158225,126.53291000000002 37.83755225,126.81896 40.71158225,127.10398 43.79954225,127.38171000000001 47.09545225,127.64371 50.59039225,127.88046 54.287282250000004,128.08223 58.21111225,128.2409 62.40491225,128.35529000000002 66.91884225000001,128.42639000000003 71.80516225,128.4573 77.10507225,128.45530000000002 82.81885225,128.43377 88.88207225000001,128.3975 95.19629225,128.34229 101.66891224999999,128.26396 108.24758225000001,128.15869 114.92308225000001,128.02668 121.69458225000001,127.87141000000001 128.55898224999999,127.69682 135.51128224999997,127.50736 142.54358225,127.30796000000001 149.64538224999998,127.10400000000001 156.80288225,126.90124 164.00018225,126.70361000000001 171.22198225,126.51216000000001 178.45558225,126.32766000000001 185.69098225,126.15077000000001 192.92128225,125.98201 200.14268224999998,125.82183 207.35428224999998,125.67058 214.55778225,125.52844 221.75508225,125.39545000000001 228.94808225,125.27167 236.13828225,125.15714000000001 243.32698225,125.05195 250.51528224999998,124.95619 257.70398224999997,124.86994000000001 264.89388225,124.79329000000001 272.08528225,124.72636 279.27848224999997,124.66926000000001 286.47318225,124.62209000000001 293.66938224999996,124.58496000000001 300.86648225,124.55799 308.06378225000003,124.54129 315.26038225,124.53496000000001 322.45548225,124.53914 329.64848225,124.55393000000001 336.83908225,124.57946000000001 344.02678225,124.61583 351.21158224999994,124.66315 358.39338225,124.72154 365.57248224999995,124.7911 372.74918225,124.87195000000001 379.92388224999996,124.96422000000001 387.09738225,125.06802 394.27048225,125.18350000000001 401.44408224999995,125.31078000000001 408.61918224999994,125.44996 415.79728224999997,125.60036000000001 422.97928225,125.76077000000001 430.16618225,125.92995 437.35888225,126.10667000000001 444.55808225,126.28969000000001 451.76408225,126.47776 458.97738225,126.66963000000001 466.19808225,126.86402000000001 473.42628225,127.05964 480.66168224999996,127.25521 487.90408225,127.44941 495.15288225,127.64092000000001 502.40748225,127.82841 509.66698225,128.01064000000002 516.93038225,128.18705 524.19668225,128.35743000000002 531.46478225,128.5216 538.73388225,128.67935 546.0026822499999,128.83048000000002 553.2703822499999,128.97481 560.53578225,129.11215 567.79808225,129.24231 575.0560822499999,129.36512 582.3087822499999,129.48041 589.55528225,129.58800000000002 596.79468225,129.68774000000002 604.0257822499999,129.77946 611.2476822499999,129.86293 618.4596822499999,129.9375 625.6609822500001,130.00246 632.8509822499999,130.05712 640.02948225,130.10077 647.19638225,130.13274 654.3515822500001,130.15234 661.49548225,130.15892000000002 668.62828225,130.1518 675.7506822500001,130.13033000000001 682.86338225,130.09384 689.96718225,130.04168 697.06308225,129.97317 704.15238225,129.88765 711.23638225,129.78451 718.31618225,129.6635 725.3929822499999,129.52442000000002 732.46738225,129.36706 739.5397822499999,129.19125000000003 746.61068225,128.99676 753.67988225,128.78342 760.7471822499999,128.55103000000003 767.81218225,128.29943 774.8739822499999,128.02845000000002 781.93178225,127.73796000000002 788.98418225,127.42784 796.02988225,127.09798 803.06708225,126.74833000000001 810.0940822499999,126.37884000000001 817.1088822500001,125.98937000000001 824.10998225,125.57976000000001 831.09658225,125.14982 838.06808225,124.69938 845.02448225,124.22821 851.9658822499999,123.73606000000001 858.89328225,123.22268000000001 865.80768225,122.68774 872.71068225,122.13089000000001 879.60428225,121.55171000000001 886.49058225,120.94975000000001 893.37248225,120.32445000000001 900.25298225,119.67522000000001 907.13558225,119.00134000000001 914.0216822499999,118.30174000000001 920.9033822499999,117.57579000000001 927.76068225,116.82427000000001 934.56218225,116.04961200000001 941.26818225,115.25590100000001 947.8337822499999,114.448625 954.21438225,113.63419900000001 960.37098225,112.81947100000001 966.27628225,112.01110700000001 971.91738225,111.21429 977.29228225,110.43262800000001 982.40738225,109.668412 987.27358225,108.922908 991.90508225,108.196633 996.31698225,107.48957800000001 1000.5248822499999,106.80138190000001 1004.02048225,106.21940000000001" stroke="black" stroke-width="2.0" /></svg>