<?xml version="1.0" encoding="utf-8" ?>
<svg baseProfile="full" height="110.757329" version="1.1" width="1012.08913843" xmlns="http://www.w3.org/2000/svg" xmlns:ev="http://www.w3.org/2001/xml-events" xmlns:xlink="http://www.w3.org/1999/xlink"><defs /><polygon fill="none" points="1004.08913843,93.59102999999999 1001.2217384300001,93.32299499999999 997.74913843,92.99369 994.0795384300001,92.640113 990.1909384300001,92.259153 986.0587384300001,91.84724999999999 981.6565384300001,91.400392 976.95693843,90.914194 971.93413843,90.384107 966.56833843,89.80588 960.8529384300001,89.17638699999999 954.8040384300001,88.494896 948.50653843,87.768784 942.30063843,87.037205 936.1948384300001,86.30258699999999 930.1197384300001,85.55774799999999 924.0237384300001,84.79705 917.8679384300001,84.01611 911.62603843,83.2118 905.29843843,82.38441999999999 899.0210384300001,81.55233 892.81983843,80.71933 886.67643843,79.88309 880.5752384300001,79.04150999999999 874.50283843,78.19270999999999 868.4477384300001,77.33499 862.3997384300001,76.46678 856.35043843,75.58663 850.29223843,74.69319999999999 844.2189384300001,73.78528 838.12533843,72.86175 832.0074384300001,71.92164 825.8624384300001,70.9641 819.68853843,69.98846 813.48553843,68.99425 807.2547384300001,67.9812 800.9986384300001,66.94935 794.72123843,65.89954999999999 788.42633843,64.8334 782.11773843,63.75252 775.8026384300001,62.659229999999994 769.49613843,61.55723 763.1968384300001,60.44745999999999 756.90213843,59.330569999999994 750.6094384300001,58.207249999999995 744.3166384300001,57.07825 738.0220384300001,55.94437 731.72423843,54.806459999999994 725.42213843,53.665459999999996 719.1151384300001,52.52238 712.80853843,51.37931 706.5068384300001,50.23819999999999 700.2095384300001,49.10003 693.9156384300001,47.96528 687.62443843,46.834059999999994 681.33513843,45.706529999999994 675.04703843,44.58285 668.7597384300001,43.463179999999994 662.4726384300001,42.347719999999995 656.1855384300001,41.23667 649.89803843,40.13025 643.61003843,39.02869999999999 637.32123843,37.93228 631.03183843,36.841249999999995 624.7416384300001,35.755889999999994 618.45103843,34.67651 612.1601384300001,33.60339999999999 605.8693384300001,32.53688999999999 599.57893843,31.477360000000004 593.28933843,30.425569999999993 587.00093843,29.382509999999996 580.7140384300001,28.349140000000006 574.42893843,27.326449999999994 568.14583843,26.315389999999994 561.86503843,25.31689999999999 555.58663843,24.331919999999997 549.31073843,23.36135999999999 543.0374384300001,22.406139999999994 536.76673843,21.46714 530.49883843,20.545269999999988 524.23353843,19.641379999999984 517.9709384300002,18.756349999999998 511.71083842999997,17.891019999999997 505.45303843,17.046249999999986 499.19763843,16.22283999999999 492.94433842999996,15.421399999999991 486.69323842999995,14.642439999999993 480.44413842999995,13.886439999999993 474.19683843,13.15388999999999 467.95123843,12.445269999999994 461.70693843000004,11.76106 455.46383843,11.101739999999992 449.22143843,10.467789999999994 442.97933843,9.859669999999994 436.73723843,9.277879999999996 430.49443843,8.722890000000007 424.25063843000004,8.195189999999997 418.00503843,7.695269999999994 411.75723843,7.223639999999989 405.50633842999997,6.780809999999988 399.25163843,6.367309999999989 392.99263843,5.983879999999999 386.72893842999997,5.631389999999996 380.46023843,5.310729999999992 374.18703843,5.022789999999986 367.90963843,4.768509999999992 361.62893843,4.5488 355.34613843,4.364569999999986 349.06253842999996,4.216729999999998 342.77993843,4.106139999999996 336.50033843,4.033639999999991 330.22603843,4.0 323.95963843,4.0059599999999875 317.70393843,4.052159999999986 311.46213843,4.13915999999999 305.23753843,4.267440000000008 299.03353842999996,4.437449999999998 292.85393842999997,4.650189999999995 286.70183843,4.906899999999993 280.57903843,5.208759999999998 274.48653843,5.556939999999997 268.42443843,5.952610000000007 262.39173843,6.396990000000002 256.38693843,6.891379999999998 250.40763843,7.437209999999993 244.45053843,8.036059999999992 238.51193843,8.689689999999985 232.58723843,9.40012999999999 226.67113842999998,10.169690000000003 220.75753843,11.001049999999992 214.83973843,11.897319999999993 208.90973842999998,12.86211999999999 202.95863843,13.899729999999991 196.97603843,15.01303999999999 190.95253843,16.19968999999999 184.88303843,17.455629999999985 178.76763842999998,18.775419999999997 172.61283842999998,20.151809999999998 166.43133842999998,21.575439999999986 160.24333843,23.03466999999999 154.07523843,24.515689999999992 147.95933843,26.006699999999995 141.92753843,27.511489999999995 136.00013843,29.03945999999999 130.18533843,30.60141999999999 124.48163843,32.209349999999986 118.87983843,33.876529999999995 113.36503843,35.61787999999999 107.91703843,37.4506 102.51072843000001,39.39507 97.11273843000001,41.462089999999996 91.68135843,43.63956999999999 86.17252843000001,45.91347 80.53782843,48.26931999999999 74.73084843000001,50.69313 68.96365843000001,53.11843999999999 63.25467843,55.590329999999994 57.51828843,58.199459999999995 52.30232843,60.72685 47.76181843,63.06742 43.766468429999996,65.23425999999999 40.12772843,67.29549 36.67624843,69.33014999999999 33.23261843,71.44130999999999 29.48755843,73.83672999999999 25.13135843,76.75475 21.361508429999997,79.32930999999999 16.81683843,82.39022 13.90061343,84.32203 11.95342943,85.649372 10.47099243,86.710821 9.27421643,87.61960099999999 8.27834943,88.42785599999999 7.43606943,89.16434699999999 6.71814043,89.846845 6.10528543,90.48723199999999 5.58425643,91.093937 5.14573443,91.673225 4.78313623,92.229939 4.49189633,92.767956 4.26903143,93.290482 4.11288282,93.80025699999999 4.02297971,94.299701 4.0,94.7910318 4.04582007,95.27636059999999 4.16345022,95.7577634 4.35360833,96.23690169999999 4.61514633,96.71493799999999 4.94810513,97.192869 5.353798429999999,97.671568 5.83488543,98.151793 6.39555743,98.63418399999999 7.04185743,99.11922899999999 7.78221043,99.60718899999999 8.62824843,100.097939 9.59615843,100.59065199999999 10.70889843,101.08312 11.999975430000001,101.570208 13.519979430000001,102.039994 15.346778429999999,102.462814 17.589688430000002,102.757329 20.40948843,102.755012 23.98129843,102.231414 28.077738429999997,101.20271 32.32852843,100.137864 36.763198429999996,99.188009 41.45259843,98.30183199999999 46.45857843,97.423825 51.81541843,96.48710439999999 57.48405843,95.41497204999999 63.35374843,94.197302 69.31576843,92.89047199999999 75.29659843,91.55567699999999 81.27859843,90.244551 87.28572843,88.97817099999999 93.33793843000001,87.748519 99.44324843000001,86.548075 105.59723843,85.37172 111.78463843,84.21875 117.98943843,83.09351 124.19883843000001,82.00014999999999 130.40283843,80.942 136.59503843,79.92159 142.77253843,78.94076 148.93533843,78.00074 155.08693842999998,77.10231999999999 161.23293843,76.24530999999999 167.37933843,75.42811999999999 173.53073842999999,74.64921 179.69103843,73.90727 185.86303843,73.20124 192.04823842999997,72.53021999999999 198.24753843,71.89344 204.46043842999998,71.29026999999999 210.68563842999998,70.72023 216.92143843,70.18318 223.16623843,69.67898 229.41853843,69.20742999999999 235.67703843,68.76834 241.94053842999998,68.36143999999999 248.20793842999998,67.98644999999999 254.47813842999997,67.64308 260.75053842999995,67.33098999999999 267.02423842999997,67.04983 273.29873842999996,66.79925 279.57363843,66.57885999999999 285.84863843,66.38828 292.12353843,66.22713999999999 298.39843843,66.09503 304.67323843,65.99157 310.94833843,65.91635 317.22413843,65.86883999999999 323.50093843,65.84853999999999 329.77903842999996,65.85491999999999 336.05873842999995,65.88747 342.34023843,65.94568 348.62393842999995,66.02906999999999 354.90983843,66.13712 361.19823843,66.26935 367.48923843,66.42524999999999 373.78293843,66.60434 380.07933843,66.80611999999999 386.37853843,67.0301 392.68053842999996,67.27579 398.98523843000004,67.54267 405.29263842999995,67.83026 411.60273843,68.13799 417.91533842999996,68.46509999999999 424.23063843,68.81083 430.54863843,69.17443999999999 436.86923843,69.55512999999999 443.19253842999996,69.95215999999999 449.51863842999995,70.36473 455.84753843,70.79209 462.17923843,71.23346 468.51383843,71.68804999999999 474.85153843,72.15508 481.19213843,72.63378 487.53593843,73.12335999999999 493.88303843,73.62303 500.23333842999995,74.13199999999999 506.58713843,74.64949999999999 512.94453843,75.17483 519.30543843,75.70748999999999 525.6700384300001,76.24692999999999 532.03823843,76.79262 538.40983843,77.34403 544.7847384300001,77.9006 551.16263843,78.46176 557.54323843,79.02696999999999 563.9260384300001,79.59562 570.31073843,80.16714999999999 576.6967384300001,80.74095 583.0826384300001,81.31635999999999 589.46833843,81.89282 595.85413843,82.46979999999999 602.2385384300001,83.04661999999999 608.6205384300001,83.62263999999999 614.99913843,84.19722 621.3738384300001,84.76971999999999 627.74403843,85.33950999999999 634.1094384300001,85.906016 640.4699384300001,86.468645 646.82553843,87.026845 653.17653843,87.58007599999999 659.5232384300001,88.127816 665.86643843,88.669563 672.20673843,89.204826 678.5451384300001,89.733131 684.8829384300001,90.25401199999999 691.2212384300001,90.767018 697.5616384300001,91.271701 703.9059384300001,91.767623 710.25583843,92.25439 716.6130384300001,92.73178399999999 722.97873843,93.199592 729.3537384300001,93.657557 735.73813843,94.105378 742.1314384300001,94.54270819999999 748.52583843,94.96872019999999 754.91533843,95.38275139999999 761.30183843,95.78468219999999 767.68793843,96.1744157 774.07653843,96.551867 780.47143843,96.91695399999999 786.87073843,97.269278 793.25773843,97.607677 799.6262384300001,97.931654 805.9708384300001,98.240803 812.28613843,98.534568 818.5677384300001,98.812173 824.81333843,99.072949 831.0223384300001,99.316339 837.19583843,99.54188099999999 843.3362384300001,99.74917099999999 849.44743843,99.93784199999999 855.5347384300001,100.10753799999999 861.6044384300001,100.25788299999999 867.6642384300001,100.388459 873.7229384300001,100.49878 879.79093843,100.588256 885.88013843,100.65616299999999 892.0043384300001,100.70159799999999 898.17973843,100.723429 904.42503843,100.720221 910.76193843,100.69040299999999 917.1347384300001,100.633718 923.41493843,100.55212399999999 929.6221384300001,100.446823 935.79523843,100.318219 941.98693843,100.16573199999999 948.26763843,99.98745299999999 954.5981384300001,99.784155 960.66853843,99.567286 966.40933843,99.34248799999999 971.80143843,99.113895 976.84953843,98.88455599999999 981.5723384300001,98.65656899999999 985.9952384300001,98.431293 990.1452384300001,98.20955599999999 994.04893843,97.991818 997.7312384300001,97.77829899999999 1001.2143384300001,97.569059 1004.08913843,97.39103" stroke="black" stroke-width="2.0" /></svg>