<?xml version="1.0" encoding="utf-8" ?>
<svg baseProfile="full" height="133.024884" version="1.1" width="1012.3177523" xmlns="http://www.w3.org/2000/svg" xmlns:ev="http://www.w3.org/2001/xml-events" xmlns:xlink="http://www.w3.org/1999/xlink"><defs /><polygon fill="none" points="1004.3177523,115.7566 1001.3934523,115.590208 997.8502523000001,115.37913800000001 994.1040523,115.14469100000001 990.1321523,114.88343800000001 985.9092523,114.591356 981.4084523,114.26378100000001 976.6022523,113.89543 971.4655523,113.480547 965.9805523000001,113.013322 960.1446523000001,112.488708 953.9803523,111.90376 947.5456523,111.25930000000001 941.0347523,110.571814 934.6098523000001,109.85826700000001 928.2002523000001,109.111413 921.7499523000001,108.324262 915.2292523,107.49204 908.7671523,106.63082 902.4116523,105.74815000000001 896.1437523000001,104.84324000000001 889.9417523000001,103.91523000000001 883.7873523000001,102.96337000000001 877.6650523000001,101.9869 871.5614523,100.98509000000001 865.4647523000001,99.95726 859.3648523,98.90280000000001 853.2529523000001,97.82113000000001 847.1215523000001,96.71183 840.9643523000001,95.57457000000001 834.7762523,94.40923000000001 828.5534523000001,93.21587000000001 822.2937523,91.99487 815.9963523000001,90.74689000000001 809.6621523,89.47300000000001 803.2940523,88.17471 796.8966523,86.85383 790.4752523,85.51207000000001 784.0350523,84.15111 777.5811523000001,82.77268000000001 771.1306523000001,81.38122000000001 764.6911523,79.97918000000001 758.2588523000001,78.56659 751.8303523000001,77.14351 745.4027523000001,75.71012000000002 738.9736523,74.26665 732.5411523,72.81347000000001 726.1036523,71.35103000000001 719.6676523,69.88157000000001 713.2408523,68.40767 706.8228523,66.93010000000001 700.4129523,65.44949000000001 694.0099523,63.96649 687.6126523,62.48180000000001 681.2199523,60.99611000000001 674.8310523,59.510160000000006 668.4448523,58.02469000000001 662.0606523,56.54046 655.6776523000001,55.05826 649.2953523000001,53.57888000000001 642.9131523000001,52.10314000000001 636.5305523000001,50.63189 630.1472523000001,49.16597 623.7629523,47.70628000000001 617.3773523000001,46.25371000000001 610.9905523000001,44.80917000000001 604.6023523,43.373599999999996 598.2128523,41.94794 591.8221523000001,40.533040000000014 585.4305523,39.129760000000005 579.0382523000001,37.73893000000001 572.6455523000001,36.36142000000001 566.2525523,34.998059999999995 559.8597523000001,33.64971 553.4674523,32.31721 547.0759523,31.00142000000001 540.6857523,29.703180000000017 534.2971523,28.423329999999993 527.9106523,27.1627 521.5267523000001,25.922120000000007 515.1458523,24.702420000000004 508.76865230000004,23.504400000000018 502.3955523,22.32887000000001 496.02725230000004,21.17693 489.6641523,20.050160000000005 483.30675229999997,18.950130000000016 476.95535229999996,17.8784 470.6101523,16.836399999999998 464.2710523,15.825600000000009 457.93795229999995,14.847399999999993 451.61065229999997,13.903200000000012 445.28865229999997,12.994399999999999 438.97165229999996,12.12230000000001 432.6588523,11.288100000000014 426.3495523,10.493200000000016 420.0428523,9.738900000000015 413.7379523,9.02640000000001 407.4334523,8.357100000000003 401.1284523,7.732200000000006 394.8216523,7.152699999999996 388.5124523,6.61930000000001 382.2002523,6.1329000000000065 375.8850523,5.694100000000006 369.5668523,5.303799999999995 363.2460523,4.962800000000001 356.9232523,4.6721 350.59955229999997,4.432299999999998 344.2760523,4.244500000000002 337.9542523,4.109300000000005 331.6358523,4.027600000000007 325.3230523,4.0 319.01785229999996,4.027200000000008 312.7229523,4.109799999999993 306.4411523,4.248200000000011 300.1751523,4.442900000000009 293.9286523,4.694700000000012 287.7045523,5.004800000000003 281.5052523,5.374200000000016 275.3324523,5.804100000000005 269.18695230000003,6.295500000000018 263.06915230000004,6.849400000000003 256.97855230000005,7.467100000000002 250.9145523,8.14970000000001 244.8754523,8.898700000000005 238.85935229999998,9.715500000000006 232.8638523,10.602000000000004 226.88585229999998,11.560100000000006 220.9219523,12.592000000000013 214.9680523,13.700299999999999 209.0195523,14.888000000000005 203.0713523,16.158500000000004 197.1175523,17.514499999999998 191.1534523,18.95568 185.1772523,20.480869999999996 179.19035229999997,22.088049999999996 173.1977523,23.774050000000003 167.20795230000002,25.534320000000008 161.2329523,27.362750000000005 155.28845230000002,29.25151000000001 149.3925523,31.191880000000012 143.5628523,33.17929000000001 137.8091523,35.21288 132.1332523,37.29421000000001 126.5300523,39.42727000000001 120.98815229999998,41.61869 115.49095229999999,43.877970000000005 110.0164523,46.21807 104.5362523,48.656409999999994 99.0140123,51.212500000000006 93.4127623,53.889870000000016 87.7152423,56.67669000000001 81.9338023,59.543690000000005 76.1188423,62.44218 70.37088229999999,65.34925000000001 64.8200123,68.26578 59.5849623,71.17985000000002 54.7460223,74.07203000000001 50.3331523,76.91501000000001 46.302782300000004,79.67043000000001 42.552182300000005,82.34773000000001 38.9623823,84.99199000000002 35.3947723,87.6786 31.633392299999997,90.54971 27.2220423,93.92822000000001 23.2900423,96.93650000000001 18.786322300000002,100.3953 15.2906123,103.09909 13.0688963,104.86361000000001 11.409027300000002,106.24265 10.0841863,107.4029 8.9875863,108.42111100000001 8.0614283,109.33832100000001 7.2706903,110.179316 6.5925183,110.960361 6.0112383000000005,111.692791 5.5157443,112.38487500000001 5.0980211,113.042872 4.752262,113.671664 4.4743241000000005,114.27515500000001 4.26137877,114.856541 4.1116957,115.41849300000001 4.0245169,115.96329100000001 4.0,116.492918 4.0392212,117.00914300000001 4.1442404,117.5135747 4.3182315985,118.00771843400001 4.5644481,118.49294660000001 4.8825635,118.970174 5.2721826,119.43996 5.7339933,119.902578 6.2697783000000005,120.357995 6.8824993,120.805817 7.5764553,121.245191 8.3575353,121.674625 9.233595300000001,122.091706 10.2149953,122.49260100000001 11.315347299999999,122.871183 12.5524643,123.217408 13.949264300000001,123.51415700000001 15.5333023,123.73074600000001 17.3293223,123.809487 19.3638123,123.662402 21.700302299999997,123.193244 24.4036223,122.308485 27.5006223,121.011446 31.004432299999998,119.51458000000001 34.971162299999996,118.008582477 39.3997223,116.506641 44.2272223,115.000676 49.336962299999996,113.46245300000001 54.5967423,111.83763400000001 59.91852230000001,110.072496 65.2879523,108.195841 70.7100723,106.25887 76.1997323,104.31426 81.7828623,102.41408000000001 87.4825923,100.58088000000001 93.30501229999999,98.80321 99.24678229999999,97.06919 105.2934523,95.36856 111.4202523,93.69679000000001 117.6024523,92.0601 123.8178523,90.46504 130.04795229999996,88.91662000000001 136.27805229999998,87.41823000000001 142.4983523,85.97182000000001 148.7033523,84.57798 154.8920523,83.23626000000002 161.0671523,81.94575 167.2330523,80.70659 173.39355229999998,79.51932000000001 179.5520523,78.38467 185.7117523,77.30358000000001 191.8751523,76.27712 198.0445523,75.30653000000001 204.2216523,74.39320000000001 210.4079523,73.53815 216.6044523,72.74063000000001 222.8118523,71.99940000000001 229.0308523,71.3133 235.2617523,70.68123 241.50495229999999,70.10211000000001 247.76075229999998,69.57490000000001 254.0292523,69.09859 260.3102523,68.6722 266.6035523,68.29474000000002 272.90885230000004,67.96525 279.22555229999995,67.68276 285.5530523,67.44630000000001 291.8905523,67.2549 298.2369523,67.10755 304.59115230000003,67.00325000000001 310.95185230000004,66.94106000000001 317.3181523,66.92034000000001 323.68915230000005,66.94049000000001 330.06405229999996,67.00093000000001 336.4422523,67.10102 342.82305230000003,67.24012 349.2061523,67.41760000000001 355.5909523,67.6328 361.9773523,67.88505 368.3649523,68.17372 374.7538523,68.49814 381.1438523,68.85766000000001 387.5351523,69.25165000000001 393.9280523,69.67947000000001 400.3226523,70.1405 406.71945229999994,70.63414 413.1189523,71.15953000000002 419.52185230000003,71.71547000000001 425.9288523,72.30072000000001 432.34055229999996,72.91406 438.75725229999995,73.55423000000002 445.1796523,74.21999000000001 451.6080523,74.91007 458.04275229999996,75.62319 464.4839523,76.35807 470.93205229999995,77.11340000000001 477.3870523,77.88786 483.8489523,78.68009 490.3179523,79.48874 496.7938523,80.31242 503.2765523,81.14973 509.76585229999995,81.99931000000001 516.2614523,82.86041 522.7630523,83.73248000000001 529.2702523000002,84.61496 535.7825523,85.50726 542.2993523,86.4088 548.8202523000001,87.31898000000001 555.3443523000001,88.23716 561.8711523000001,89.16271 568.3996523000001,90.09497 574.9290523000001,91.03329000000001 581.4584523,91.97696 587.9868523000001,92.92531000000001 594.5131523000001,93.87763000000001 601.0361523,94.83319 607.5548523,95.79125 614.0680523,96.75071 620.5748523000001,97.71013 627.0745523,98.66809 633.5668523,99.62323 640.0514523,100.57422 646.5285523,101.51978000000001 652.9984523,102.45868 659.4616523000001,103.38973 665.9189523,104.31177000000001 672.3713523000001,105.22369 678.8200523,106.12441000000001 685.2665523000001,107.01288000000001 691.7123523,107.88807 698.1595523,108.74896000000001 704.6101523000001,109.594572 711.0664523,110.42407800000001 717.5304523000001,111.237183 724.0035523000001,112.03362700000001 730.4866523000001,112.81306500000001 736.9798523000001,113.57506900000001 743.4829523,114.319141 749.9949523000001,115.044714 756.5141523000001,115.75116700000001 763.0385523,116.43782800000001 769.5652523,117.10399050000001 776.0906523,117.74892480000001 782.6108523,118.3718901 789.1211523000001,118.97215050000001 795.6165523,119.548991 802.0912523000001,120.10173300000001 808.5395523000001,120.62970800000001 814.9555523,121.131837 821.3355523,121.606926 827.6773523,122.054011 833.9810523,122.472318 840.2479523000001,122.86121600000001 846.4812523,123.22017100000001 852.6854523,123.54870100000001 858.8660523000001,123.846331 865.0303523000001,124.11255200000001 871.1865523,124.34677900000001 877.3442523000001,124.54830100000001 883.5147523,124.716238 889.7109523,124.849478 895.9476523000001,124.94660900000001 902.2424523000001,125.005829 908.6160523000001,125.024884 915.0872523,125.00161200000001 921.6562523,124.933992 928.2083523,124.82231200000001 934.7154523,124.66759 941.2350523,124.46868900000001 947.7974523,124.22401500000001 954.1975523000001,123.942299 960.3266523000001,123.632525 966.1302523,123.30308500000001 971.5870523000001,122.961252 976.6998523000001,122.612729 981.4858523,122.2617 985.9694523000001,121.91109 990.1774523,121.562871 994.1362523000001,121.21832300000001 997.8704523,120.878241 1001.4025523,120.543087 1004.3177523,120.2566" stroke="black" stroke-width="2.0" /></svg>