<?xml version="1.0" encoding="utf-8" ?>
<svg baseProfile="full" height="131.42712" version="1.1" width="1011.994723453" xmlns="http://www.w3.org/2000/svg" xmlns:ev="http://www.w3.org/2001/xml-events" xmlns:xlink="http://www.w3.org/1999/xlink"><defs /><polygon fill="none" points="1003.994723453,61.71356 1000.4841234529999,61.187772 996.2458234530001,60.555661 991.7864234530001,59.893731 987.087123453,59.199672 982.128823453,58.471247 976.893623453,57.706484 971.367223453,56.903991000000005 965.541423453,56.063389 959.4189234529999,55.18589 953.017623453,54.274947 946.375223453,53.33667 939.543723453,52.37906 932.5809234530001,51.41064 925.542423453,50.439440000000005 918.475223453,49.471990000000005 911.412323453,48.51279 904.3712234530001,47.564080000000004 897.354123453,46.62604 890.355423453,45.69793 883.3692234529999,44.77908 876.390523453,43.86891 869.414823453,42.96696 862.438123453,42.07285 855.457223453,41.18629 848.469323453,40.30709 841.472023453,39.43512 834.4638234529999,38.570350000000005 827.443523453,37.712810000000005 820.410423453,36.8626 813.364723453,36.01993 806.306823453,35.18503 799.238023453,34.358230000000006 792.159923453,33.53976 785.074123453,32.72981 777.982123453,31.928500000000003 770.885523453,31.135979999999996 763.785423453,30.35235 756.683223453,29.577700000000007 749.579923453,28.812110000000004 742.476523453,28.05563 735.374023453,27.30829 728.273123453,26.570130000000006 721.174423453,25.841140000000003 714.078523453,25.121320000000004 706.985923453,24.41064 699.896823453,23.7091 692.8115234530001,23.016819999999996 685.730123453,22.3341 678.652723453,21.661230000000003 671.579223453,20.998470000000005 664.5095234529999,20.346090000000004 657.443623453,19.70436 650.381323453,19.073530000000005 643.3222234530001,18.45386 636.2661234530001,17.845579999999998 629.212623453,17.24895 622.161323453,16.664189999999998 615.111623453,16.091550000000005 608.063023453,15.531260000000003 601.014923453,14.983540000000005 593.9667234530001,14.44849 586.917723453,13.926029999999997 579.8676234530001,13.416080000000001 572.815923453,12.918579999999999 565.7625234530001,12.433490000000006 558.7072234530001,11.960740000000001 551.649923453,11.500300000000003 544.590723453,11.052150000000005 537.5298234530001,10.616260000000004 530.467423453,10.192599999999999 523.4039234530001,9.781170000000003 516.339723453,9.381949999999996 509.275523453,8.994930000000004 502.21192345300005,8.6201 495.149623453,8.257570000000001 488.08952345299997,7.90766 481.032123453,7.570699999999995 473.977923453,7.247010000000003 466.927523453,6.936910000000005 459.88122345299996,6.640699999999995 452.83932345299996,6.358680000000007 445.801823453,6.091149999999999 438.769123453,5.838390000000004 431.74092345300005,5.600680000000004 424.717323453,5.378300000000003 417.698123453,5.171520000000001 410.68302345300003,4.980620000000002 403.671723453,4.805870000000006 396.663723453,4.64752 389.658723453,4.505830000000003 382.656423453,4.3810199999999995 375.656623453,4.273320000000005 368.659323453,4.182980000000001 361.664523453,4.1102399999999975 354.67242345299996,4.055340000000001 347.683323453,4.018509999999999 340.69752345300003,4.0 333.71542345299997,4.000030000000002 326.73782345300003,4.018840000000004 319.76522345300003,4.056640000000002 312.798423453,4.113640000000004 305.838423453,4.19003 298.88622345299996,4.286049999999996 291.942723453,4.402300000000004 285.00912345300003,4.5395500000000055 278.086423453,4.69858 271.175423453,4.88015 264.277023453,5.084980000000002 257.392023453,5.31382 250.520923453,5.567360000000001 243.664423453,5.846310000000003 236.82292345300002,6.151340000000005 229.997023453,6.4831199999999995 223.18692345300002,6.842320000000001 216.392923453,7.2295700000000025 209.615423453,7.645530000000001 202.854423453,8.090829999999997 196.110123453,8.566170000000007 189.383423453,9.072429999999997 182.676223453,9.610410000000002 175.991323453,10.180790000000002 169.33232345300001,10.784080000000003 162.70382345299998,11.420610000000003 156.11092345300003,12.090540000000004 149.559723453,12.79392 143.056823453,13.53201 136.60972345300002,14.306669999999997 130.226123453,15.119369999999996 123.91392345300001,15.971200000000003 117.680823453,16.862840000000006 111.534223453,17.794580000000003 105.481423453,18.766290000000005 99.52920345300001,19.777320000000003 93.691493453,20.8243 87.997223453,21.89991 82.48535345300002,22.99358 77.196573453,24.09299 72.164063453,25.191250000000004 67.403453453,26.290150000000004 62.913923452999995,27.391820000000003 58.684283453,28.49796 54.697913453,29.60982 50.936623453,30.727420000000002 47.389083453,31.84402 44.051353453000004,32.94982 40.921073453,34.03566 37.994313453000004,35.09388 35.264443453,36.11872 32.72207345299999,37.10642 30.355833453,38.05496 28.153103453,38.96401 26.101653453,39.84343 24.192193452999998,40.71067 22.417213453,41.57683 20.769183453,42.44797 19.239923453000003,43.32673 17.820683453,44.213660000000004 16.502443452999998,45.1081 15.277613453,46.0073 14.142963453,46.90379 13.094139453000002,47.79197 12.125610453,48.66878 11.231665453,49.532700000000006 10.406883452999999,50.38319 9.646337453000001,51.22031 8.945655453,52.04444 8.301016452999999,52.8562 7.709114453,53.65628 7.167112453,54.445478 6.672594453,55.224576 6.223525453000001,55.99438 5.818211453,56.755689000000004 5.455270453,57.509291000000005 5.133608453,58.255965 4.852397453,58.996484 4.611064953,59.731614 4.409286953,60.462124 4.246985653,61.18879 4.124334053,61.912406000000004 4.041766983,62.633788 4.0,63.3537932 4.0,64.0733268 4.041766983,64.79333199999999 4.124334053,65.514714 4.246985653,66.23833 4.409286953,66.964996 4.611064953,67.695506 4.852397453,68.430636 5.133608453,69.171155 5.455270453,69.917829 5.818211453,70.671431 6.223525453000001,71.43274 6.672594453,72.202544 7.167112453,72.981642 7.709114453,73.77084 8.301016452999999,74.57092 8.945655453,75.38268 9.646337453000001,76.20681 10.406883452999999,77.04393 11.231665453,77.89442 12.125610453,78.75834 13.094139453000002,79.63515 14.142963453,80.52333 15.277613453,81.41982 16.502443452999998,82.31902 17.820683453,83.21346 19.239923453000003,84.10039 20.769183453,84.97915 22.417213453,85.85029 24.192193452999998,86.71645000000001 26.101653453,87.58369 28.153103453,88.46311 30.355833453,89.37216000000001 32.72207345299999,90.3207 35.264443453,91.3084 37.994313453000004,92.33324 40.921073453,93.39146 44.051353453000004,94.4773 47.389083453,95.5831 50.936623453,96.6997 54.697913453,97.8173 58.684283453,98.92916 62.913923452999995,100.0353 67.403453453,101.13696999999999 72.164063453,102.23587 77.196573453,103.33413 82.48535345300002,104.43354 87.997223453,105.52721 93.691493453,106.60282000000001 99.52920345300001,107.6498 105.481423453,108.66083 111.534223453,109.63254 117.680823453,110.56428 123.91392345300001,111.45591999999999 130.226123453,112.30775 136.60972345300002,113.12045 143.056823453,113.89511 149.559723453,114.6332 156.11092345300003,115.33658 162.70382345299998,116.00650999999999 169.33232345300001,116.64304 175.991323453,117.24633 182.676223453,117.81671 189.383423453,118.35469 196.110123453,118.86095 202.854423453,119.33629 209.615423453,119.78159 216.392923453,120.19755 223.18692345300002,120.5848 229.997023453,120.944 236.82292345300002,121.27578 243.664423453,121.58081 250.520923453,121.85976 257.392023453,122.11330000000001 264.277023453,122.34214 271.175423453,122.54697 278.086423453,122.72854000000001 285.00912345300003,122.88757 291.942723453,123.02482 298.88622345299996,123.14107000000001 305.838423453,123.23709 312.798423453,123.31348 319.76522345300003,123.37048 326.73782345300003,123.40827999999999 333.71542345299997,123.42708999999999 340.69752345300003,123.42712 347.683323453,123.40861000000001 354.67242345299996,123.37178 361.664523453,123.31688 368.659323453,123.24414 375.656623453,123.15379999999999 382.656423453,123.0461 389.658723453,122.92129 396.663723453,122.7796 403.671723453,122.62125 410.68302345300003,122.4465 417.698123453,122.2556 424.717323453,122.04882 431.74092345300005,121.82643999999999 438.769123453,121.58873 445.801823453,121.33597 452.83932345299996,121.06844 459.88122345299996,120.78642 466.927523453,120.49020999999999 473.977923453,120.18011 481.032123453,119.85642000000001 488.08952345299997,119.51946000000001 495.149623453,119.16955 502.21192345300005,118.80702 509.275523453,118.43218999999999 516.339723453,118.04517000000001 523.4039234530001,117.64595 530.467423453,117.23452 537.5298234530001,116.81085999999999 544.590723453,116.37496999999999 551.649923453,115.92681999999999 558.7072234530001,115.46638 565.7625234530001,114.99363 572.815923453,114.50854000000001 579.8676234530001,114.01104000000001 586.917723453,113.50109 593.9667234530001,112.97863000000001 601.014923453,112.44358 608.063023453,111.89586 615.111623453,111.33556999999999 622.161323453,110.76293000000001 629.212623453,110.17817 636.2661234530001,109.58154 643.3222234530001,108.97326000000001 650.381323453,108.35359 657.443623453,107.72276 664.5095234529999,107.08103 671.579223453,106.42865 678.652723453,105.76589 685.730123453,105.09302 692.8115234530001,104.4103 699.896823453,103.71802 706.985923453,103.01648 714.078523453,102.3058 721.174423453,101.58598 728.273123453,100.85699 735.374023453,100.11883 742.476523453,99.37149 749.579923453,98.61501 756.683223453,97.84942 763.785423453,97.07477 770.885523453,96.29114000000001 777.982123453,95.49862 785.074123453,94.69731 792.159923453,93.88736 799.238023453,93.06889 806.306823453,92.24209 813.364723453,91.40719 820.410423453,90.56452 827.443523453,89.71431 834.4638234529999,88.85677 841.472023453,87.992 848.469323453,87.12003 855.457223453,86.24083 862.438123453,85.35427 869.414823453,84.46016 876.390523453,83.55821 883.3692234529999,82.64804000000001 890.355423453,81.72919 897.354123453,80.80108 904.3712234530001,79.86304 911.412323453,78.91433 918.475223453,77.95513 925.542423453,76.98768 932.5809234530001,76.01648 939.543723453,75.04806 946.375223453,74.09045 953.017623453,73.152173 959.4189234529999,72.24123 965.541423453,71.363731 971.367223453,70.523129 976.893623453,69.720636 982.128823453,68.955873 987.087123453,68.227448 991.7864234530001,67.533389 996.2458234530001,66.871459 1000.4841234529999,66.239348 1003.994723453,65.71356" stroke="black" stroke-width="2.0" /></svg>