<?xml version="1.0" encoding="utf-8" ?>
<svg baseProfile="full" height="81.63418" version="1.1" width="1012.02180509" xmlns="http://www.w3.org/2000/svg" xmlns:ev="http://www.w3.org/2001/xml-events" xmlns:xlink="http://www.w3.org/1999/xlink"><defs /><polygon fill="none" points="1004.02180509,55.06997 1001.1449050900001,54.961772 997.66430509,54.826256 993.99120509,54.677761000000004 990.1048050900001,54.514515 985.98260509,54.334475 981.60060509,54.135306 976.93430509,53.914403 971.96160509,53.668978 966.6661050900001,53.396261 961.0438050900001,53.093882 955.11110509,52.760469 948.92440509,52.397154 942.77540509,52.020605 936.72560509,51.635593 930.70950509,51.238910000000004 924.67790509,50.827858 918.59430509,50.4002 912.4333050900001,49.954244 906.19680509,49.49016 900.01010509,49.017721 893.89270509,48.539295 887.82710509,48.054387000000006 881.7984050900001,47.562554 875.79360509,47.063410000000005 869.8016050900001,46.55663 863.81280509,46.04193 857.81850509,45.5191 851.81170509,44.98799 845.7861050900001,44.44852 839.7368050900001,43.90069 833.6597050900001,43.344590000000004 827.55210509,42.78045 821.4125050900001,42.20857 815.24070509,41.62944 809.03810509,41.043679999999995 802.8075050900001,40.45209 796.56110509,39.85619 790.3295050900001,39.25899 784.11240509,38.660470000000004 777.90530509,38.06028 771.70470509,37.45807 765.5071050900001,36.85355 759.30980509,36.24647 753.11020509,35.6366 746.9062050900001,35.02376 740.69630509,34.407799999999995 734.4790050900001,33.78859 728.2535050900001,33.16608 722.01930509,32.54021 715.77650509,31.910999999999998 709.5306050900001,31.279040000000002 703.29220509,30.6454 697.0605050900001,30.010160000000003 690.8342050900001,29.373610000000003 684.61200509,28.73609 678.39290509,28.09795 672.17580509,27.45956 665.95980509,26.8213 659.7444050900001,26.183550000000004 653.52870509,25.546709999999997 647.3124050900001,24.911190000000005 641.09520509,24.27744 634.8766050900001,23.645870000000002 628.6567050900001,23.016959999999997 622.43550509,22.39116 616.21310509,21.76896 609.9896050899999,21.150840000000002 603.76570509,20.537309999999998 597.5416050900001,19.928890000000003 591.31800509,19.326100000000004 585.09530509,18.72945 578.87390509,18.13944 572.6542050900001,17.55659 566.43640509,16.98138 560.22090509,16.41429 554.00760509,15.855780000000003 547.79670509,15.306339999999999 541.5882050900001,14.76641 535.3821050900001,14.236440000000002 529.17820509,13.71689 522.9764050900001,13.208170000000003 516.77650509,12.710740000000001 510.57810508999995,12.225009999999997 504.38080508999997,11.75141 498.18440509,11.290300000000002 491.98840508999996,10.8418 485.79240509,10.405969999999996 479.59620509,9.9829 473.39960509,9.572649999999996 467.20240508999996,9.175310000000003 461.00440509,8.790959999999998 454.80570509,8.419689999999996 448.60610508999997,8.061610000000002 442.40570508999997,7.716810000000002 436.20460509,7.385379999999998 430.00290509,7.067439999999998 423.80080509,6.763080000000002 417.59850509,6.472420000000007 411.39630508999994,6.195549999999997 405.19450509,5.9325800000000015 398.99360508999996,5.6836800000000025 392.79390509,5.449350000000003 386.59580509,5.230240000000002 380.39970509,5.0269600000000025 374.20580509,4.840150000000001 368.01450509,4.67042 361.82610509,4.518390000000004 355.64080509,4.384660000000004 349.45870508999997,4.269829999999999 343.28000509,4.174500000000002 337.10490509,4.099260000000001 330.93350509000004,4.044710000000002 324.76580508999996,4.011429999999997 318.60190508999995,4.0 312.44190509,4.011009999999999 306.28560509,4.045040000000007 300.13300509,4.102640000000001 293.98430509,4.18432 287.83930509,4.290480000000002 281.69820509,4.4215599999999995 275.56100509,4.57799 269.42760509,4.760200000000005 263.29820509,4.968620000000001 257.17250508999996,5.2036799999999985 251.05080508999998,5.465809999999998 244.93290508999996,5.755459999999999 238.81870508999998,6.073060000000005 232.70830508999998,6.419049999999999 226.60150509,6.7938899999999975 220.49840508999998,7.198020000000007 214.39880509,7.631900000000002 208.30260509,8.09599 202.20970509,8.590740000000004 196.12010508999998,9.116330000000005 190.03350508999998,9.672490000000003 183.94970508999998,10.258960000000002 177.86840508999998,10.87547 171.78920509,11.521790000000003 165.71150508999997,12.197690000000001 159.63490509,12.90298 153.55870509,13.63749 147.48230508999998,14.401880000000006 141.40640509,15.198909999999998 135.33390508999997,16.03141 129.26970509,16.901870000000002 123.22090509,17.812310000000004 117.19640509,18.76421 111.20700509,19.75844 105.26470508999999,20.79522 99.38270509,21.873849999999997 93.56701509,22.993250000000003 87.80232509,24.156149999999997 82.05062509,25.370890000000003 76.24924509,26.6532 70.32388509,28.0288 64.28111509000001,29.51144 58.276495090000004,31.07524 52.572495090000004,32.65307 47.37876509,34.171099999999996 42.67144509,35.61254 38.28822509,37.01096 34.03052509,38.42291 29.61415509,39.946740000000005 24.48033509,41.835930000000005 19.29171509,44.0743 15.881085090000001,45.79632 13.598894090000002,47.07217 11.89273009,48.10991 10.52985909,49.00689 9.400137090000001,49.810626 8.44333909,50.54764 7.62293209,51.234357 6.91511309,51.88176 6.3035980899999995,52.497634000000005 5.7768790899999996,53.087754000000004 5.3266770900000004,53.656582 4.94702139,54.207678 4.63367159,54.743976 4.38376739,55.267968 4.19560709,55.781839 4.06852908,56.287562 4.00287074,56.7869893 4.0,57.2819176 4.06228073,57.7741643 4.19029289,58.2655176 4.38292509,58.757626 4.64008209,59.252067000000004 4.96277659,59.750408 5.35318809,60.254268 5.81481209,60.76538 6.35273009,61.28566 6.97404309,61.817302 7.68856909,62.36289 8.509972090000002,62.925567 9.45765209,63.509262 10.56010209,64.119016 11.861212089999999,64.76136 13.43304009,65.444405 15.40258509,66.174873 17.99583509,66.934308 21.639925090000002,67.62763 26.53772509,68.02804 31.66558509,68.1936 36.80098509,68.3523 42.10493509,68.50964 47.68360509,68.65786 53.574665089999996,68.78349 59.69571509,68.86909 65.90912509,68.91083 72.11370509,68.91357 78.27108509,68.88471 84.40429509,68.83158 90.55213509000001,68.75937 96.73859508999999,68.67251 102.97239509,68.57557 109.24480509,68.47304 115.50910508999999,68.36699 121.75650509,68.25763 127.99810509,68.14487 134.24290509,68.02861 140.49730509,67.90877 146.76570508999998,67.78532 153.03570509,67.65856 159.29080508999996,67.52913000000001 165.53280508999998,67.398791 171.76370508999997,67.269834 177.98510508999996,67.144522 184.19890508999998,67.025109 190.40680508999998,66.913835 196.61030508999997,66.812939 202.81110508999998,66.72466 209.01050508999998,66.650965 215.21010508999998,66.591852 221.41100509,66.546487 227.61460509,66.51404600000001 233.82160509,66.493708 240.03300509,66.484661 246.24950508999999,66.48609400000001 252.47160509,66.497197 258.69970509,66.517158 264.93410508999995,66.54516000000001 271.17470509000003,66.58038400000001 277.42160509,66.622003 283.67440508999994,66.669185 289.93280509,66.72108800000001 296.19620509,66.77686700000001 302.46390508999997,66.835667 308.73480509,66.896705 315.00820509,66.95985300000001 321.28290509,67.025309 327.55830509,67.09327400000001 333.83350508999996,67.163948 340.10800509,67.237532 346.38120509,67.314225 352.65260509,67.394228 358.92190509,67.47774100000001 365.18900509,67.56496 371.45350509,67.65610000000001 377.71550509,67.75135 383.97490509,67.85091 390.23200509,67.95499000000001 396.48700509,68.06379 402.74010509,68.17753 408.99180508999996,68.29635 415.24260509,68.41999 421.49290508999997,68.54804 427.74300509,68.68004 433.99340509,68.81558 440.24450509,68.95421 446.49640509,69.09551 452.74950509,69.23903 459.00400508999996,69.38435 465.26010508999997,69.53102 471.51800509,69.67862 477.77780509,69.82669 484.03950509,69.9748 490.30330509,70.12251 496.56910509,70.26938 502.83700509,70.41494 509.10680508999997,70.55881 515.37860509,70.70084 521.6521050900001,70.84099 527.9273050900001,70.97924 534.2038050900001,71.11556 540.4816050900001,71.24991 546.7603050900001,71.38226 553.03960509,71.51259 559.31890509,71.64084 565.59830509,71.76701 571.87750509,71.89105 578.15570509,72.01293 584.43270509,72.13262 590.7078050900001,72.25008 596.98050509,72.36528 603.2503050900001,72.47819 609.5166050900001,72.58871 615.7789050900001,72.69645 622.03670509,72.80086 628.28970509,72.90145 634.5379050900001,72.99771 640.7812050900001,73.08913 647.01980509,73.17522 653.25390509,73.25547 659.48380509,73.32939999999999 665.71030509,73.39652 671.93380509,73.45634 678.15520509,73.50836 684.3754050900001,73.55208999999999 690.59550509,73.58704 696.8165050900001,73.6127 703.03990509,73.62857 709.2670050900001,73.63418 715.49920509,73.6293 721.73750509,73.61383000000001 727.98250509,73.58765 734.2345050900001,73.55063 740.4932050900001,73.50265 746.7581050900001,73.44359 753.02820509,73.37335 759.30220509,73.29181 765.5782050900001,73.19891 771.8541050900001,73.09458000000001 778.1272050900001,72.97878 784.39450509,72.8515 790.65270509,72.71276 796.8981050900001,72.56262 803.12650509,72.40116 809.33390509,72.22852 815.5163050900001,72.04489 821.67140509,71.85045 827.79800509,71.64536 833.89650509,71.42973 839.9683050900001,71.20362 846.01610509,70.96705 852.04350509,70.71997 858.05530509,70.46223 864.05730509,70.19365 870.05620509,69.9139 876.06000509,69.62258 882.07800509,69.31916 888.12050509,69.00295 894.19990509,68.67311000000001 900.33030509,68.32857 906.52810509,67.96800999999999 912.7712050900001,67.59185 918.9391050900001,67.206346 925.03290509,66.81081900000001 931.0786050900001,66.402935 937.1136050900001,65.979331 943.18800509,65.535294 949.36730509,65.06428199999999 955.50840509,64.57576800000001 961.3830050900001,64.088668 966.9492050900001,63.609217 972.19330509,63.141541000000004 977.12050509,62.688005000000004 981.74700509,62.249673 986.09470509,61.826743 990.18720509,61.418876 994.0479050900001,61.025431 997.6988050900001,60.645616000000004 1001.15990509,60.278583 1004.02180509,59.96997" stroke="black" stroke-width="2.0" /></svg>