<?xml version="1.0" encoding="utf-8" ?>
<svg baseProfile="full" height="133.89102" version="1.1" width="1012.005123489" xmlns="http://www.w3.org/2000/svg" xmlns:ev="http://www.w3.org/2001/xml-events" xmlns:xlink="http://www.w3.org/1999/xlink"><defs /><polygon fill="none" points="1004.005123489,83.86912000000001 1000.4759234889999,83.445761 996.2131234889999,82.931517 991.725623489,82.386756 986.9942234889999,81.808588 981.999623489,81.19403700000001 976.724123489,80.540212 971.153923489,79.844594 965.282123489,79.105479 959.114023489,78.322585 952.671423489,77.497777 945.996623489,76.635358 939.146423489,75.74104 932.1814234889999,74.82113000000001 925.158123489,73.88165000000001 918.122023489,72.92741000000001 911.103223489,71.96142 904.1149234889999,70.98459 897.154923489,69.9961 890.213223489,68.99557 883.280523489,67.98301000000001 876.348323489,66.95851 869.409523489,65.92227 862.457623489,64.87459000000001 855.487223489,63.81591 848.4940234889999,62.746790000000004 841.474323489,61.667970000000004 834.4257234889999,60.58034000000001 827.3467234889999,59.48499000000001 820.2369234889999,58.383210000000005 813.097123489,57.27653000000001 805.929423489,56.16669 798.7371234889999,55.05556 791.5247234889999,53.94429000000001 784.296623489,52.833490000000005 777.059023489,51.724090000000004 769.8259234889999,50.61815 762.596623489,49.51549 755.3682234889999,48.415580000000006 748.1380234889999,47.31796000000001 740.904023489,46.22223 733.664423489,45.12807000000001 726.426023489,44.03642000000001 719.1951234889999,42.948170000000005 711.972323489,41.86332 704.757923489,40.78185 697.551823489,39.70373000000001 690.3535234889999,38.62936 683.162823489,37.55932 675.979323489,36.494170000000004 668.803023489,35.4345 661.633723489,34.380900000000004 654.4713234889999,33.33397000000001 647.3161234889999,32.29430000000001 640.168123489,31.262520000000002 633.0275234889999,30.239240000000002 625.8947234890001,29.22509 618.770123489,28.22068000000001 611.654023489,27.22666000000001 604.5470234889999,26.243660000000006 597.449723489,25.272340000000007 590.362723489,24.313590000000005 583.286423489,23.36833 576.221223489,22.43744000000001 569.1674234889999,21.52179000000001 562.125023489,20.62222 555.094123489,19.739530000000002 548.0745234890001,18.87451 541.066323489,18.027929999999998 534.068923489,17.20053 527.082123489,16.39304 520.1054234889999,15.606170000000006 513.138223489,14.840620000000001 506.17992348900003,14.097070000000016 499.22962348900006,13.376180000000005 492.286923489,12.678420000000003 485.350923489,12.004170000000002 478.42132348900003,11.353809999999996 471.497723489,10.727740000000011 464.579623489,10.126360000000005 457.66692348900006,9.550090000000012 450.759323489,8.999350000000007 443.85692348900005,8.474580000000003 436.95952348900005,7.9761900000000026 430.06732348900005,7.504639999999995 423.18032348900005,7.06035 416.29882348900003,6.6437700000000035 409.423223489,6.255330000000015 402.5536234890001,5.89546 395.69072348900005,5.564670000000007 388.83482348900003,5.263629999999992 381.986723489,4.993009999999998 375.14662348900004,4.753479999999996 368.315323489,4.545680000000004 361.493223489,4.370249999999999 354.68082348900003,4.227819999999994 347.878623489,4.118990000000011 341.087223489,4.0443599999999975 334.307023489,4.0045100000000105 327.538423489,4.0 320.782123489,4.031380000000013 314.03832348900005,4.099190000000007 307.307823489,4.203940000000017 300.59082348900006,4.346149999999994 293.887923489,4.5262599999999935 287.19962348900003,4.74466000000001 280.5264234890001,5.001739999999998 273.868423489,5.2978999999999985 267.22562348900004,5.6335300000000075 260.59792348900004,6.009039999999999 253.98522348900002,6.42483 247.387023489,6.881349999999998 240.802823489,7.3790599999999955 234.231923489,7.918430000000001 227.673523489,8.499990000000011 221.126823489,9.124300000000005 214.590723489,9.791940000000011 208.064123489,10.50358 201.545523489,11.259900000000016 195.034223489,12.061840000000004 188.531423489,12.910380000000004 182.041523489,13.806060000000002 175.571823489,14.748840000000001 169.132623489,15.738000000000014 162.736423489,16.772090000000006 156.398123489,17.848850000000013 150.133923489,18.965429999999998 143.95942348900002,20.12119 137.884623489,21.317859999999996 131.91252348900002,22.557840000000006 126.040523489,23.844280000000005 120.261723489,25.18112 114.565523489,26.573230000000002 108.938623489,28.026520000000005 103.365023489,29.548210000000005 97.827353489,31.143300000000004 92.321153489,32.803940000000004 86.867203489,34.512840000000004 81.509383489,36.24443 76.30691348900001,37.96782 71.319503489,39.66483 66.586323489,41.33297 62.122823489,42.97276000000001 57.927423489,44.586220000000004 53.988143489,46.176140000000004 50.289083489,47.74375 46.818753488999995,49.28352 43.567593489000004,50.789100000000005 40.525683489,52.25546000000001 37.682263489,53.678990000000006 35.025763489,55.057430000000004 32.544133489000004,56.38973 30.225173489,57.675790000000006 28.056763488999998,58.916540000000005 26.026223488999996,60.12010000000001 24.124363489,61.29764 22.346153489,62.454440000000005 20.687343489,63.59196 19.142683489,64.70976 17.705553489,65.80671000000001 16.368173489,66.88173 15.124723489,67.93271 13.974209489000001,68.95558 12.913004489,69.94895 11.935595488999999,70.91343 11.036010489,71.85064 10.208485489,72.76259 9.447754489,73.65144000000001 8.749143489,74.51928000000001 8.108572489,75.36811 7.522518488999999,76.19980000000001 6.987967489,77.016064 6.5023574889999995,77.818494 6.063531489,78.608564 5.669698489,79.38763900000001 5.319393489,80.156998 5.011453489,80.91784200000001 4.744990989,81.67131400000001 4.519383589,82.418508 4.334260389,83.160487 4.189499689,83.898294 4.085231099,84.632968 4.021843269,85.365554 4.0,86.0971217 4.020608809,86.8287719 4.083590189,87.56135 4.187854789,88.29537 4.332557189,89.031277 4.517125389,89.76946600000001 4.741238489,90.510282 5.004812089,91.25402700000001 5.307988489,92.00095400000001 5.651133489,92.75126900000001 6.034836489,93.50511800000001 6.459918489,94.262584 6.927437489,95.023672 7.438706488999999,95.78828800000001 7.9953104889999995,96.55621000000001 8.599125488999999,97.32707 9.252345489,98.10028 9.957510489,98.87498000000001 10.717528489,99.64995 11.535700489,100.42347000000001 12.415717489,101.19315 13.361638489,101.95568 14.377793489000002,102.7065 15.468593489,103.4393 16.638073489,104.14534 17.890683489,104.81579 19.234353489,105.44869 20.678573488999998,106.04446 22.233743489,106.60518 23.911103489,107.13546 25.722433489,107.64383000000001 27.679433489,108.14459 29.792773488999998,108.66016 32.073353489,109.20862 34.533073489,109.79059000000001 37.180643489,110.40319000000001 40.019723489,111.0408 43.048073489,111.69488000000001 46.258743489,112.35418000000001 49.644183489,113.00565 53.203753489,113.63573000000001 56.95462348899999,114.23271 60.934333489,114.79646 65.18884348899999,115.33284 69.767483489,115.84938 74.713853489,116.35621 80.043163489,116.8669 85.708693489,117.38837000000001 91.616663489,117.90528 97.671723489,118.39929000000001 103.811403489,118.85554 110.025623489,119.26577 116.335123489,119.63317 122.76042348899999,119.96345000000001 129.31802348899998,120.26221000000001 136.01832348899998,120.53529 142.863923489,120.78899000000001 149.84662348900002,121.03020000000001 156.943923489,121.26633000000001 164.120623489,121.50066000000001 171.340723489,121.73096000000001 178.573623489,121.95490000000001 185.796723489,122.17045000000002 192.995723489,122.37592000000001 200.16462348899998,122.56996000000001 207.305623489,122.75151 214.426823489,122.92063 221.536923489,123.07836 228.643523489,123.22575 235.753323489,123.36374 242.872023489,123.49325 250.004523489,123.61516 257.15482348899997,123.73032 264.325823489,123.83956 271.51982348900003,123.94371000000001 278.73782348900005,124.04357999999999 285.980223489,124.14 293.24592348900006,124.23378 300.53312348900005,124.32577 307.838623489,124.41676000000001 315.158023489,124.50703000000001 322.47612348900003,124.59625 329.787623489,124.68418 337.09562348900005,124.77068 344.403123489,124.85563 351.712623489,124.93888000000001 359.026423489,125.02028000000001 366.346323489,125.09969000000001 373.666923489,125.17687000000001 380.97892348900007,125.25155000000001 388.281423489,125.32357 395.574223489,125.39276000000001 402.857123489,125.45896 410.13052348900004,125.52199000000002 417.395023489,125.58151000000001 424.65112348900004,125.63708 431.899223489,125.68829 439.14002348900004,125.73473000000001 446.37392348900005,125.77596 453.60132348900004,125.81159 460.82282348900003,125.84118000000001 468.038723489,125.86434 475.24962348900004,125.88064 482.455823489,125.88967 489.65772348900003,125.89102 496.85572348900007,125.88426000000001 504.0502234890001,125.869 511.241623489,125.84485000000001 518.4302234889999,125.81165000000001 525.6162234889999,125.76925 532.7998234889999,125.71753000000001 539.981323489,125.65634 547.1607234889999,125.58556000000002 554.3381234889999,125.50505000000001 561.5134234889999,125.41467 568.686723489,125.31429 575.857823489,125.20379 583.0266234889999,125.08302 590.1928234889999,124.95186000000001 597.356223489,124.81019 604.5166234889999,124.65788 611.673523489,124.49478 618.826623489,124.32059000000001 625.975523489,124.13502 633.1199234889999,123.93776 640.259523489,123.7285 647.394023489,123.50696 654.5233234890001,123.27282 661.6471234889999,123.0258 668.7652234889999,122.76559 675.877523489,122.49192000000001 682.983923489,122.20448 690.084323489,121.90298 697.178623489,121.58713 704.266823489,121.25665000000001 711.348823489,120.91122000000001 718.4246234889999,120.55042 725.494123489,120.17384000000001 732.557123489,119.78105 739.613423489,119.37163000000001 746.662923489,118.94518000000001 753.705223489,118.50128000000001 760.740123489,118.03955 767.767223489,117.55958000000001 774.786223489,117.061 781.7966234889999,116.54342 788.798123489,116.00649 795.7901234889999,115.44985 802.7722234889999,114.87315000000001 809.743823489,114.27611 816.704623489,113.65883 823.654423489,113.02152000000001 830.593323489,112.36441 837.521923489,111.68765 844.440823489,110.99139 851.351123489,110.27572 858.253923489,109.54069000000001 865.151023489,108.78633 872.043923489,108.01258 878.934923489,107.21935 885.826323489,106.40649 892.720723489,105.5738 899.621023489,104.72098 906.5306234889999,103.84768 913.451023489,102.95332 920.3746234889999,102.03797 927.280923489,101.10348 934.137423489,100.15368000000001 940.9021234889999,99.19418 947.5275234889999,98.23204 953.965923489,97.27502 960.175423489,96.33084500000001 966.127023489,95.406245 971.806623489,94.505928 977.2125234889999,93.632686 982.351323489,92.78781500000001 987.235023489,91.971529 991.8784234889999,91.183311 996.297723489,90.422182 1000.509023489,89.686898 1004.005123489,89.06912" stroke="black" stroke-width="2.0" /></svg>