<?xml version="1.0" encoding="utf-8" ?>
<svg baseProfile="full" height="91.21679" version="1.1" width="1012.01684954" xmlns="http://www.w3.org/2000/svg" xmlns:ev="http://www.w3.org/2001/xml-events" xmlns:xlink="http://www.w3.org/1999/xlink"><defs /><polygon fill="none" points="1004.01684954,57.594719999999995 1001.0458495400001,57.2743043 997.45154954,56.88860149999999 993.6586495399999,56.483889999999995 989.6464495399999,56.058333 985.39224954,55.609973999999994 980.87184954,55.136821 976.06164954,54.636995999999996 970.94024954,54.108996 965.49324954,53.552127 959.7190495399999,52.96710099999999 953.63704954,52.356787999999995 947.2973495399999,51.726837999999994 940.93904954,51.100539 934.67804954,50.488215 928.45064954,49.882518 922.20924954,49.277832999999994 915.91994954,48.669906 909.5609495399999,48.05568699999999 903.1367495399999,47.434549999999994 896.7507495399999,46.81573999999999 890.41764954,46.200649999999996 884.1233495399999,45.587999999999994 877.8553495399999,44.97667 871.6030495399999,44.36570999999999 865.3571495399999,43.754279999999994 859.10974954,43.141659999999995 852.8538495399999,42.52723999999999 846.58384954,41.910529999999994 840.2950495399999,41.291109999999996 833.98364954,40.66869 827.64734954,40.043079999999996 821.2846495399999,39.41422 814.8956495399999,38.78214 808.48144954,38.14704999999999 802.04514954,37.50930999999999 795.6111495399999,36.87141999999999 789.1914495399999,36.23469 782.78214954,35.598879999999994 776.3797495399999,34.96375999999999 769.98114954,34.32915 763.58354954,33.69490999999999 757.18464954,33.06090999999999 750.7823495399999,32.42708999999999 744.37504954,31.793409999999994 737.96114954,31.159849999999995 731.53994954,30.526449999999997 725.1105495399999,29.893279999999994 718.6727495399999,29.260429999999992 712.22954954,28.628339999999994 705.7923495399999,27.998249999999995 699.36194954,27.370359999999998 692.93714954,26.744779999999995 686.5171495399999,26.121649999999995 680.1007495399999,25.501109999999997 673.6873495399999,24.883339999999997 667.27624954,24.268509999999992 660.86684954,23.656809999999993 654.4585495399999,23.048429999999996 648.0511495399999,22.443569999999994 641.64414954,21.84247 635.2375495399999,21.245329999999996 628.8312495399999,20.652399999999993 622.4252495399999,20.063929999999992 616.0196495399999,19.480159999999998 609.61464954,18.901369999999993 603.21064954,18.327809999999992 596.80804954,17.759819999999998 590.40734954,17.197839999999992 584.0087495399999,16.642329999999994 577.61274954,16.09375999999999 571.2195495399999,15.552579999999999 564.82954954,15.01921999999999 558.44274954,14.494119999999995 552.05944954,13.97771999999999 545.6796495399999,13.470439999999996 539.30354954,12.972699999999996 532.93094954,12.484909999999992 526.56204954,12.007479999999994 520.1967495399999,11.540809999999993 513.8347495400001,11.08529999999999 507.47614954000005,10.641339999999992 501.12044954,10.209319999999991 494.76774954,9.789569999999998 488.41754954000004,9.382309999999997 482.06994954000004,8.9878 475.72454954,8.606279999999991 469.38124954,8.237989999999996 463.03984954000003,7.883169999999993 456.70024954,7.542069999999995 450.36224954,7.214939999999999 444.02584953999997,6.902029999999996 437.69074954,6.603580000000001 431.35684954,6.319849999999995 425.02414954,6.051089999999995 418.69244954,5.797550000000001 412.36174954,5.559489999999997 406.03184954,5.337159999999997 399.70264954,5.13080999999999 393.37424954000005,4.940739999999991 387.04664954,4.767239999999994 380.71984954000004,4.610589999999995 374.39404954,4.471109999999996 368.06934954,4.34908999999999 361.74604954000006,4.244819999999997 355.42434954,4.1586 349.10464954,4.09071999999999 342.78734954,4.041469999999997 336.47274954000005,4.0111399999999975 330.16134954,4.0 323.85364954,4.008330000000001 317.55034954,4.036389999999997 311.25184953999997,4.084439999999994 304.95894954,4.152729999999991 298.67224954,4.241549999999997 292.39244954000003,4.351489999999991 286.12004954,4.483229999999999 279.85514954,4.637479999999989 273.59804954000003,4.8149099999999905 267.34824954,5.01623 261.10564954,5.242139999999992 254.86964953999998,5.493339999999989 248.63934954,5.770479999999992 242.41394954,6.073659999999997 236.19234954,6.402799999999992 229.97374954,6.757849999999998 223.75674954,7.138769999999994 217.54034954000002,7.545569999999998 211.32324954,7.978259999999992 205.10404954,8.436899999999994 198.88144954,8.92165 192.65464954,9.43334999999999 186.42474954000002,9.972919999999995 180.19504954,10.541129999999995 173.97054954000004,11.138469999999998 167.75824954,11.765149999999998 161.56714954,12.421039999999998 155.40764954,13.105620000000002 149.29154954,13.81821 143.22954954,14.559819999999995 137.22694954000002,15.332709999999992 131.28284953999997,16.139619999999994 125.39164954,16.983939999999997 119.54314953999999,17.869739999999993 113.72284954,18.80207 107.91214953999999,19.78712 102.08787954,20.83263999999999 96.22424953999999,21.943999999999996 90.31035954,23.118329999999993 84.36235953999999,24.34653999999999 78.42625953999999,25.612229999999993 72.57283953999999,26.897679999999998 66.86465954,28.200809999999997 61.330679540000006,29.526629999999994 55.972309540000005,30.883669999999995 50.77325954,32.283069999999995 45.72738954,33.73178 40.875919540000005,35.22037999999999 36.29045954,36.72431999999999 32.039189539999995,38.21217 28.16133954,39.655699999999996 24.67608954,41.03824 21.62139954,42.342369999999995 19.00448954,43.54877 16.78223954,44.65241999999999 14.889079540000001,45.662009999999995 13.25630254,46.6014 11.82100554,47.489309999999996 10.54742354,48.32690699999999 9.41731654,49.11227699999999 8.43805654,49.872803 7.61441354,50.653639 6.91656054,51.466677999999995 6.30731754,52.292272999999994 5.76486154,53.10611599999999 5.28848254,53.891639 4.8865079399999996,54.646443 4.56053554,55.37414 4.30949004,56.080591999999996 4.13220334,56.772378499999995 4.02870084,57.45635959999999 4.0,58.139172099999996 4.0424106,58.823215 4.15186824,59.50823 4.32660354,60.19307799999999 4.56663134,60.87559399999999 4.87344254,61.55229799999999 5.24978854,62.217918999999995 5.6994475399999995,62.864689999999996 6.22682954,63.48137 6.83594854,64.05293 7.52305754,64.581267 8.27362854,65.092748 9.06536054,65.623104 9.87880054,66.196943 10.73324054,66.773032 11.66961454,67.287595 12.73075454,67.70378 13.916023540000001,68.09111999999999 15.20514954,68.54959 16.62106954,69.07185 18.219189540000002,69.59964 20.052069539999998,70.12055 22.18528954,70.63578 24.70931954,71.15123 27.74375954,71.68521 31.424939539999997,72.28308 35.866149539999995,72.97403 40.989459540000006,73.72355999999999 46.41780954000001,74.45235 51.78427954,75.09648999999999 57.03021954,75.64401 62.307079540000004,76.11780999999999 67.76134954,76.54332 73.49707954,76.93951999999999 79.54942953999999,77.32257 85.82631953999999,77.69998 92.16638954,78.05941999999999 98.45443954,78.38920999999999 104.65124954,78.68328 110.78174953999999,78.9412 116.88994954,79.16856999999999 123.01094954,79.37087 129.17204954,79.55277 135.39254954000003,79.71853999999999 141.68424954,79.87226 148.04924954,80.01799 154.47934954000002,80.15984 160.94554954,80.30058 167.39844954,80.43874 173.84864954000003,80.57345 180.31054954,80.70384 186.77614954000003,80.82861 193.21704954000003,80.94609 199.63304954,81.05524 206.02984954000001,81.15513999999999 212.41644954,81.2458 218.80204954,81.32865999999999 225.19364954000002,81.40522999999999 231.59644954,81.47697 238.01384954000002,81.54532999999999 244.44694954000002,81.61174 250.89504954,81.67763 257.35534954,81.74439 263.82354954,81.81241 270.29544954,81.88117 276.76764954000004,81.95008 283.23764954,82.01858999999999 289.70364954,82.08614 296.16494954,82.15217999999999 302.62134954,82.2162 309.07354954000004,82.27770999999998 315.52274954,82.33664999999999 321.97014954,82.39313999999999 328.41664954000004,82.44729 334.86324953999997,82.49922 341.31054954,82.54903999999999 347.75914954,82.59685999999999 354.20964954000004,82.64277999999999 360.66234954000004,82.68691999999999 367.11734954,82.72937999999999 373.57494954000003,82.77026 380.03504954000005,82.80967 386.49754954,82.84770999999999 392.96194954,82.88448 399.42794954000004,82.92009999999999 405.89504954,82.95464999999999 412.36254954,82.98812 418.82974953999997,83.02028999999999 425.29614954000004,83.05089 431.76104954000004,83.07968 438.22424954,83.10641 444.68514954,83.13083999999999 451.14364954,83.15271999999999 457.59934954,83.17179999999999 464.05214954,83.18784 470.50194954,83.2006 476.94874954000005,83.20984 483.39264954000004,83.21531999999999 489.83364954,83.21679 496.27194954000004,83.21402 502.70794954,83.20676999999999 509.14174954,83.19480999999999 515.5738495400001,83.17802999999999 522.00444954,83.15637 528.43394954,83.12978 534.86244954,83.09817999999999 541.29034954,83.06152 547.7176495399999,83.01973 554.1446495399999,82.97274999999999 560.5713495399999,82.92051 566.99784954,82.86296999999999 573.4241495399999,82.80004 579.8503495399999,82.73165999999999 586.27624954,82.65778999999999 592.70204954,82.57834 599.12744954,82.49327 605.5523495399999,82.40250999999999 611.9767495399999,82.30597999999999 618.40024954,82.20356 624.8228495399999,82.09513999999999 631.24434954,81.9806 637.66474954,81.85982 644.0839495399999,81.73267 650.50174954,81.59904 656.9182495399999,81.45881 663.33324954,81.31186 669.74684954,81.15807 676.15904954,80.99732 682.56974954,80.8295 688.9790495399999,80.65447 695.38704954,80.47212999999999 701.7936495399999,80.28235 708.1990495399999,80.08498999999999 714.60334954,79.87979 721.0063495399999,79.66638999999999 727.40814954,79.44443999999999 733.80834954,79.21359 740.2069495399999,78.97348 746.60354954,78.72377 752.9977495399999,78.46413 759.38904954,78.19421 765.7771495399999,77.91369 772.1612495399999,77.62226 778.54084954,77.3196 784.91524954,77.0054 791.28354954,76.67938 797.64504954,76.34124 803.9988495399999,75.99073 810.34404954,75.62772 816.6799495399999,75.25271 823.00634954,74.8663 829.3235495399999,74.46906 835.6324495399999,74.06155 841.93394954,73.64426 848.22994954,73.21764999999999 854.5223495399999,72.78215 860.81364954,72.33812999999999 867.10684954,71.88591 873.40534954,71.42577999999999 879.71294954,70.95796 886.0341495399999,70.48264 892.37394954,69.99995 898.73784954,69.50994 905.1321495399999,69.01263999999999 911.5624495399999,68.50641999999999 918.00924954,67.98764 924.4376495399999,67.453396 930.87194954,66.89599999999999 937.28844954,66.31187399999999 943.60054954,65.704122 949.75324954,65.074851 955.6955495399999,64.42772299999999 961.38714954,63.768665999999996 966.8054495399999,63.105284 971.94374954,62.44367799999999 976.80714954,61.788258 981.40814954,61.142022 985.7627495399998,60.506874999999994 989.88894954,59.88391599999999 993.80474954,59.27367399999999 997.52744954,58.676289999999995 1001.07344954,58.091639799999996 1004.01684954,57.594719999999995" stroke="black" stroke-width="2.0" /></svg>