<?xml version="1.0" encoding="utf-8" ?>
<svg baseProfile="full" height="86.3645862397" version="1.1" width="1012.01191446" xmlns="http://www.w3.org/2000/svg" xmlns:ev="http://www.w3.org/2001/xml-events" xmlns:xlink="http://www.w3.org/1999/xlink"><defs /><polygon fill="none" points="1004.01191446,77.66402 1001.2573144599999,76.988067 997.9241144599999,76.174526 994.40541446,75.320938 990.6810144599999,74.42325799999999 986.72811446,73.477087 982.5224144599999,72.477789 978.03841446,71.42074699999999 973.25141446,70.30184399999999 968.14131446,69.11828799999999 962.69811446,67.8699 956.93021446,66.5609 950.88231446,65.20365 944.85661446,63.86732 938.94221446,62.57185 933.0692144599999,61.30198 927.1848144599999,60.04683 921.2484144599999,58.79868 915.2299144599999,57.55253 909.1109144599999,56.30620999999999 902.98471446,55.07993999999999 896.93931446,53.891479999999994 890.95601446,52.7363 885.0181144599999,51.61042 879.11111446,50.51056 873.2227144599999,49.433989999999994 867.34201446,48.37846999999999 861.45981446,47.34213999999999 855.5679144599999,46.32346 849.65931446,45.32121 843.72811446,44.334419999999994 837.76941446,43.36236999999999 831.77941446,42.40459 825.7554144599999,41.460809999999995 819.6961144599999,40.53099999999999 813.6014144599999,39.615339999999996 807.4727144599999,38.71422 801.3128144599999,37.82822 795.12621446,36.95786 788.91721446,36.10339 782.69031446,35.26497 776.4495144599999,34.44263 770.20481446,33.637159999999994 763.9626144599999,32.848729999999996 757.7203144599999,32.076359999999994 751.47551446,31.319149999999993 745.2262144599999,30.576249999999995 738.9710144599999,29.846889999999995 732.7154144599999,29.13112999999999 726.4649144599999,28.428929999999994 720.2201144599999,27.739709999999995 713.98111446,27.062849999999997 707.74791446,26.397659999999995 701.5198144599999,25.743469999999995 695.29591446,25.09978999999999 689.07531446,24.466509999999992 682.85691446,23.84353 676.6400144599999,23.230769999999993 670.4237144599999,22.62816999999999 664.20741446,22.035669999999996 657.99041446,21.45322 651.7722144599999,20.880799999999994 645.55221446,20.31837999999999 639.33011446,19.765949999999997 633.10551446,19.223499999999994 626.8780144599999,18.691049999999997 620.64761446,18.168599999999998 614.4140144599999,17.656169999999996 608.17721446,17.153779999999998 601.93711446,16.661459999999998 595.69411446,16.17795999999999 589.44881446,15.700109999999995 583.20251446,15.224599999999995 576.9568144599999,14.748159999999999 570.71391446,14.267529999999994 564.47651446,13.779549999999986 558.2477144599999,13.281090000000006 552.0312144599999,12.769179999999992 545.83031446,12.244830000000007 539.6471144599999,11.715339999999998 533.4821144599999,11.188279999999992 527.33431446,10.671009999999995 521.20121446,10.170629999999989 515.07901446,9.694039999999987 508.96261446,9.248019999999997 502.84551446,8.839289999999991 496.72021446,8.470739999999992 490.58061446000005,8.136639999999986 484.42241446,7.830150000000003 478.24341446,7.544520000000006 472.04311445999997,7.272969999999987 465.82351446,7.008709999999994 459.58861446000003,6.744879999999995 453.34471446,6.474639999999994 447.10001446,6.194230000000005 440.86211446000004,5.908749999999998 434.63641446,5.6248099999999965 428.42621446000004,5.348830000000007 422.23291446,5.087039999999988 416.05561446,4.845489999999998 409.89191446,4.630079999999992 403.73701446,4.446579999999997 397.58491446,4.299009999999996 391.42951446,4.185169999999985 385.26541446000004,4.101659999999995 379.08871446,4.045150000000007 372.89581446,4.012360000000001 366.68481446000004,4.0 360.45421446,4.0047600000000045 354.20401446,4.023269999999997 347.93511446,4.052359999999993 341.64931445999997,4.0899 335.35391446000006,4.134 329.06621446,4.18262 322.78341446,4.233869999999996 316.49931446000005,4.285889999999995 310.20681446000003,4.336839999999995 303.91621446000005,4.3847200000000015 297.65011446000005,4.4293499999999995 291.41621446,4.477829999999997 285.21901446,4.5386900000000026 279.05971446,4.620199999999997 272.93641446000004,4.730389999999986 266.84441446000005,4.877099999999999 260.77651446000004,5.068169999999995 254.72301446000003,5.311589999999995 248.67181446000004,5.61403 242.60991446000003,5.972849999999994 236.52681446,6.382159999999999 230.41501446,6.835989999999995 224.26971446000002,7.328159999999997 218.08951446000003,7.852019999999996 211.87641446000003,8.400410000000008 205.63601446,8.965530000000001 199.37821446,9.539739999999995 193.11481446,10.121929999999992 186.85671446,10.714739999999992 180.61261446,11.32096 174.38861446,11.943489999999997 168.18851446000002,12.58538 162.01401446000003,13.249769999999998 155.86481446000002,13.939949999999996 149.73821446000002,14.659529999999997 143.63181446000002,15.413710000000002 137.54461446000002,16.208369999999995 131.47741446,17.049129999999998 125.43281446,17.94126 119.41531446,18.88958999999999 113.43081446,19.898439999999994 107.48671446,20.971499999999992 101.59141446,22.111509999999996 95.74941446,23.313539999999996 89.94055446,24.56806999999999 84.11163446,25.873609999999992 78.17046446,27.239039999999996 72.17815446,28.652169999999998 66.42002446000001,30.07962 60.67649446,31.611189999999993 54.79461446,33.331399999999995 49.677084459999996,34.98141999999999 45.36086446,36.49212 41.56871446,37.913799999999995 38.06885446,39.310089999999995 34.66139446,40.75463 31.078004460000002,42.375629999999994 26.67458446,44.53432 22.93608446,46.50729 19.27975446,48.514309999999995 14.90347446,50.953199999999995 12.48082246,52.34685999999999 10.80548946,53.367439999999995 9.50821446,54.2107 8.45248846,54.947379999999995 7.571151459999999,55.611979999999996 6.82577946,56.22432 6.19230846,56.79701 5.654807460000001,57.338719999999995 5.20238646,57.85574 4.82754206,58.35284999999999 4.52520556,58.83387 4.29218876,59.30194 4.12687396,59.759789999999995 4.02906922,60.20984 4.0,60.654399999999995 4.04227732,61.095749999999995 4.15669716,61.536319999999996 4.34223996,61.9786 4.59932946,62.42507 4.93000886,62.87837999999999 5.33813046,63.341499999999996 5.82975346,63.81793 6.41385546,64.31198 7.10356846,64.82930999999999 7.9183914600000005,65.37774999999999 8.88843446,65.96888999999999 10.06340346,66.62143999999999 11.53473546,67.36958999999999 13.50484346,68.28941 16.61289446,69.62610099999999 21.528944459999998,71.580541 25.92786446,73.099627 30.51961446,74.37892099999999 34.18157446,75.189286 37.67140446,75.822482 41.265914460000005,76.35734099999999 45.18052446,76.82648499999999 49.68018446,77.244045 55.10161446,77.6058865 61.20859446,77.86702629999999 67.01746445999999,78.00867869999999 72.88465446000001,78.086654 79.03210446,78.14422119999999 85.08687446,78.21288009999999 91.03958446,78.28405801 97.00268446,78.34071002 103.03561446,78.3645862397 109.14981446,78.33797769 115.32811446000001,78.2602378 121.55171446,78.1387889 127.80361446,77.98195559999999 134.06961446000003,77.7986299 140.33871446,77.597983 146.60341446,77.3892333 152.85971446000002,77.181489 159.10741446,76.98253 165.34761446000002,76.79197599999999 171.58151446000002,76.60601 177.81041446,76.42083199999999 184.03571446000004,76.232658 190.25861446,76.03771499999999 196.48061446,75.832233 202.70311446000002,75.612427 208.92741446000002,75.374928 215.15521446000002,75.11965699999999 221.38771446,74.84806 227.62591446000002,74.56160799999999 233.87021446,74.261789 240.12091446000002,73.950122 246.37761446,73.628151 252.63971446000002,73.29745799999999 258.90611446,72.959662 265.17551446,72.616452 271.44671446,72.269541 277.71871446,71.920642 283.99051446000004,71.571462 290.26131446,71.223703 296.53041446000003,70.87905599999999 302.79741445999997,70.53920099999999 309.06181446,70.205709 315.32321446000003,69.879449 321.58171446,69.56097 327.83741446,69.25080799999999 334.09071446,68.94948199999999 340.34221446000004,68.657506 346.59291446000003,68.375383 352.84381446,68.10361 359.09641446000006,67.84241 365.35191446,67.59003 371.61071446,67.34391 377.87291446,67.10149 384.13781446,66.86024 390.40401446000004,66.61764 396.66941446,66.37120999999999 402.93131446,66.11847 409.18651446,65.85772 415.43191446000003,65.59200999999999 421.66561446000003,65.32624999999999 427.88691446,65.06529 434.09611446,64.81387 440.29471446,64.57660999999999 446.48551446000005,64.35808 452.67211446000005,64.16281 458.85921446000003,63.99469 465.05171446,63.852869999999996 471.25371446,63.734289999999994 477.46801446,63.63594 483.69681446000004,63.554829999999995 489.94091446,63.487959999999994 496.20031446,63.432289999999995 502.47381446,63.384769999999996 508.75901446,63.342459999999996 515.05301446,63.30399 521.35111446,63.26875 527.64621446,63.23616 533.93991446,63.205569999999994 540.23401446,63.17632999999999 546.5301144599999,63.147819999999996 552.82851446,63.1194 559.12371446,63.09066 565.41401446,63.062639999999995 571.69881446,63.036989999999996 577.97791446,63.01535 584.2511144599999,62.99934 590.5183144599999,62.99059 596.77961446,62.99070999999999 603.03551446,63.00131999999999 609.28631446,63.023779999999995 615.53261446,63.05811 621.7751144599999,63.10377 628.0145144599999,63.16025 634.25151446,63.22703 640.48691446,63.30359 646.72161446,63.38942 652.9563144599999,63.48403999999999 659.1922144600001,63.586949999999995 665.43021446,63.697649999999996 671.67131446,63.81568 677.91671446,63.94054 684.1675144599999,64.07177999999999 690.4250144599999,64.20891 696.69051446,64.35146 702.96531446,64.49898999999999 709.25101446,64.65104 715.54501446,64.80727999999999 721.82891446,64.967 728.09951446,65.12988999999999 734.3571144599999,65.2957 740.60251446,65.4642 746.8373144599999,65.6352 753.0632144599999,65.80851 759.28251446,65.98396 765.49801446,66.16139 771.71301446,66.34069 777.93131446,66.52172999999999 784.1571144599999,66.70442 790.3953144599999,66.88868 796.65121446,67.07445999999999 802.93081446,67.26172 809.21401446,67.44979 815.46211446,67.6385 821.6705144599999,67.8291 827.8376144599999,68.02286 833.9636144599999,68.22106 840.05041446,68.42499699999999 846.10141446,68.635952 852.1214144599999,68.855252 858.1163144599999,69.084261 864.09371446,69.324407 870.06201446,69.577214 876.03131446,69.844331 882.0130144599999,70.12758099999999 888.02041446,70.42901599999999 894.06891446,70.75098899999999 900.17661446,71.096257 906.3648144599999,71.468064 912.61971446,71.86583 918.78631446,72.276487 924.85461446,72.695364 930.85191446,73.120688 936.81701446,73.551941 942.80081446,73.989806 948.87041446,74.436284 955.08211446,74.892405 961.11281446,75.332163 966.8079144599999,75.74437999999999 972.1492144599999,76.128282 977.14321446,76.484854 981.81021446,76.816009 986.1767144599999,77.124034 990.27081446,77.41126 994.1199144599999,77.67988609999999 997.7489144599999,77.93191019999999 1001.1803144599999,78.1691062 1004.01191446,78.36402" stroke="black" stroke-width="2.0" /></svg>