<?xml version="1.0" encoding="utf-8" ?>
<svg baseProfile="full" height="140.61826" version="1.1" width="1013.501191" xmlns="http://www.w3.org/2000/svg" xmlns:ev="http://www.w3.org/2001/xml-events" xmlns:xlink="http://www.w3.org/1999/xlink"><defs /><polygon fill="none" points="1005.501191,90.2967 1002.159191,89.8574702 998.194191,89.337378 994.103391,88.801964 989.8787909999999,88.250289 985.511891,87.68135 980.9932909999999,87.094077 976.313191,86.487339 971.4610909999999,85.859948 966.4260909999999,85.210672 961.1968909999999,84.538253 955.761991,83.841441 950.1100909999999,83.119036 944.230691,82.369954 938.114591,81.593311 931.7548909999999,80.788544 925.148191,79.95555 918.2958909999999,79.09487 911.206091,78.20786 903.894991,77.29689 896.387691,76.36548 888.720091,75.41859 881.0641909999999,74.47785 873.489391,73.55193 865.960891,72.6367 858.449391,71.72876 850.930491,70.82538 843.383791,69.9244 835.7924909999999,69.02412000000001 828.1435909999999,68.12336 820.433491,67.22211 812.7535909999999,66.33132 805.140291,65.45533 797.586691,64.59291 790.0849910000001,63.740899999999996 782.627791,62.89599 775.208391,62.055 767.821091,61.21493 760.460391,60.37288 753.121591,59.52606 745.800091,58.67172000000001 738.4921909999999,57.8072 731.194091,56.92986 723.9025909999999,56.03709 716.614891,55.12632 709.3283909999999,54.19496 702.0406909999999,53.24053 694.749691,52.26284 687.452891,51.26417 680.148291,50.24691 672.8339909999999,49.21353 665.508591,48.166540000000005 658.170591,47.10851 650.818991,46.04209 643.453191,44.969969999999996 636.0726909999998,43.89495 628.6771909999999,42.81988 621.2668909999999,41.7477 613.842391,40.68144 606.404291,39.62418 598.9537909999999,38.57873 591.492491,37.54589 584.021891,36.52575 576.5434909999999,35.51832 569.0583909999999,34.5236 561.5677909999999,33.54156 554.0724909999999,32.57215 546.5732909999999,31.615270000000002 539.0707909999999,30.670810000000003 531.565391,29.738620000000004 524.057291,28.818550000000002 516.5465909999999,27.910410000000006 509.033191,27.014000000000003 501.516891,26.129090000000005 493.997091,25.2556 486.473791,24.39362 478.946791,23.543260000000004 471.416491,22.70465999999999 463.883391,21.877970000000005 456.348091,21.0634 448.811591,20.261139999999997 441.275191,19.471419999999995 433.740291,18.69449999999999 426.208591,17.930620000000005 418.682091,17.180049999999994 411.162891,16.44308000000001 403.65349100000003,15.719989999999996 396.156191,15.01128 388.673291,14.317900000000009 381.206391,13.640740000000008 373.75649100000004,12.980620000000002 366.324091,12.33832000000001 358.909091,11.714519999999993 351.51109099999996,11.10987999999999 344.128991,10.525000000000006 336.761291,9.960439999999991 329.405991,9.416749999999993 322.060591,8.89443 314.72239099999996,8.394009999999994 307.387891,7.915990000000008 300.053391,7.460840000000005 292.716191,7.028700000000001 285.376691,6.619699999999995 278.039091,6.23415 270.711191,5.872489999999999 263.404491,5.535210000000006 256.1333910000001,5.222769999999997 248.915091,4.936260000000004 241.765691,4.679990000000004 234.69669100000002,4.458800000000011 227.71479100000002,4.276830000000004 220.82239099999998,4.137680000000003 214.018691,4.044470000000004 207.299791,4.0 200.65979099999998,4.006959999999992 194.09309100000002,4.06841 187.598391,4.187560000000005 181.178591,4.367189999999994 174.83979100000002,4.609590000000011 168.590891,4.916309999999996 162.442891,5.288089999999997 156.407591,5.724739999999997 150.497391,6.225549999999998 144.722891,6.791719999999998 139.088291,7.425039999999996 133.591591,8.127100000000013 128.22669100000002,8.899609999999996 122.98459100000001,9.744510000000005 117.85409100000001,10.664239999999992 112.822991,11.661839999999998 107.87799100000001,12.741140000000001 103.005041,13.906770000000009 98.19242100000001,15.159380000000013 93.439311,16.493440000000007 88.75704100000002,17.8998 84.16700100000001,19.36546 79.697421,20.87379 75.378341,22.410210000000006 71.231741,23.97041 67.267591,25.552549999999997 63.486591,27.155710000000006 59.883321,28.7797 56.44868099999999,30.424859999999995 53.172221,32.09124 50.048061000000004,33.77241 47.074020999999995,35.45868 44.248421,37.14117 41.569431,38.81186 39.034681,40.46376 36.641101,42.090920000000004 34.384871,43.68842 32.261521,45.25237 30.265971,46.779790000000006 28.390151,48.27272 26.621150999999998,49.74244 24.949491000000002,51.196600000000004 23.368481,52.638400000000004 21.872651,54.06819 20.456931,55.48466 19.116211,56.88577 17.845241,58.269420000000004 16.641521,59.631370000000004 15.508131,60.96332 14.445665,62.26024 13.452351,63.52014 12.525286,64.74281 11.661115,65.92912 10.856415,67.08043 10.107903,68.19843 9.412534,69.28485 8.767545,70.34145000000001 8.170459,71.36991 7.61908,72.37183 7.111479,73.34870000000001 6.645973,74.30192 6.2211058999999995,75.23276 5.8356328,76.14242 5.4885040400000005,77.03199000000001 5.1788514,77.90248 4.9059773,78.75481 4.6693464,79.58984 4.468579,80.408355 4.303447,81.211093 4.173872,81.998724 4.079928,82.771872 4.0218419999999995,83.531114 4.0,84.276987 4.014961,85.009988 4.067461,85.73058 4.1584389999999996,86.439194 4.289053,87.136231 4.46071,87.822065 4.6751031,88.497044 4.9342567,89.161496 5.2405867,89.815725 5.59696754,90.4600197 6.0055525,91.0948305 6.466511,91.72089 6.980057,92.338863 7.546703,92.949305 8.167256,93.552666 8.842808,94.149281 9.574731,94.73935900000001 10.36467,95.322959 11.21452,95.899957 12.126387,96.469999 13.102511,97.032426 14.145132,97.58617100000001 15.256241,98.129611 16.437171,98.660358 17.687860999999998,99.174957 19.006740999999998,99.668966 20.397941,100.140666 21.870141,100.59073000000001 23.433450999999998,101.02108 25.099631,101.43549 26.882341,101.8405 28.797410999999997,102.24676 30.863401,102.67089 33.100621000000004,103.13052 35.527620999999996,103.63069 38.161611,104.17343 41.016631000000004,104.75921 44.10186099999999,105.38633 47.420331,106.05033 50.969571,106.7439 54.746671,107.45765 58.759300999999994,108.18263999999999 63.03251099999999,108.91736 67.596141,109.6635 72.47770100000001,110.42254 77.69517100000002,111.19528 83.24514100000002,111.98081 89.09280100000001,112.77222 95.18553100000001,113.55762 101.47292100000001,114.32638 107.923491,115.07123 114.533691,115.79075 121.307991,116.48779 128.24539099999998,117.16551 135.336991,117.82718 142.563691,118.47612000000001 149.894291,119.11565 157.285091,119.74886000000001 164.683091,120.3743 172.042191,120.98263 179.33279100000001,121.56533 186.54149099999998,122.11578 193.66939100000002,122.62894 200.729691,123.10099 207.746091,123.52881 214.74979100000002,123.91465 221.769791,124.26844 228.828891,124.60015 235.944391,124.9195 243.127591,125.23621 250.38319099999998,125.56023 257.708391,125.90167 265.093091,126.26541 272.525191,126.6471 279.992991,127.04123 287.485791,127.44212 294.993691,127.84401 302.508391,128.24114 310.022491,128.62799 317.53029100000003,129.00148000000002 325.026591,129.36047 332.507791,129.70396 339.971191,130.03102 347.415291,130.34084000000001 354.839691,130.63264 362.244891,130.9057 369.632491,131.15936 377.005091,131.39297 384.366191,131.60589 391.720191,131.79748 399.072291,131.96707 406.428991,132.11394 413.797491,132.23796 421.184591,132.34072 428.596391,132.42408 436.03759099999996,132.48983 443.511791,132.53977 451.021391,132.57569999999998 458.567591,132.59949 466.150091,132.61302 473.766991,132.61826 481.414891,132.61721 489.088791,132.61197 496.781791,132.60468 504.485291,132.59752 512.189191,132.59217 519.882791,132.58719 527.5569909999999,132.58005 535.203991,132.56821 542.8177909999999,132.54924 550.3938909999999,132.52077 557.9292909999999,132.48051 565.422391,132.42629 572.872991,132.35597 580.281991,132.26751000000002 587.6512909999999,132.15888999999999 594.984091,132.02815 602.2842909999999,131.87332 609.556791,131.69245 616.806891,131.48468 624.039691,131.24999 631.2593909999999,130.98836 638.4700909999999,130.69972 645.6751909999999,130.38394 652.877691,130.04087 660.080191,129.67036000000002 667.2847909999999,129.2722 674.493191,128.84619 681.706791,128.39213 688.9264909999999,127.90983 696.152791,127.39909 703.3857909999999,126.85977 710.6249909999999,126.29178999999999 717.870191,125.69594000000001 725.121491,125.07339999999999 732.3794909999999,124.42535000000001 739.645391,123.75289000000001 746.920891,123.05709 754.2082909999999,122.33894000000001 761.510391,121.59938 768.8306909999999,120.83926 776.173291,120.05934 783.5428909999999,119.26032000000001 790.945191,118.44278 798.3862909999999,117.6072 805.873691,116.75397000000001 813.415491,115.88313 821.018191,114.994 828.684391,114.08613 836.398391,113.16131 844.074091,112.22997000000001 851.706691,111.29305 859.3134909999999,110.34872 866.915591,109.39457 874.5384909999999,108.42750000000001 882.212591,107.44369 889.8884909999999,106.44951 897.4387909999999,105.46184 904.827891,104.48607 912.0257909999999,103.52688 919.0096909999999,102.5881 925.764691,101.67245 932.283591,100.7817 938.564891,99.916816 944.611591,99.078101 950.429991,98.26537 956.0286909999999,97.47808 961.417291,96.715446 966.606491,95.976527 971.6068909999999,95.26029 976.4290909999999,94.565664 981.083591,93.891569 985.580191,93.236944 989.9283909999999,92.600761 994.1369909999999,91.982037 998.2140909999999,91.379835 1002.167691,90.793272 1005.501191,90.2967" stroke="black" stroke-width="2.0" /></svg>