<?xml version="1.0" encoding="utf-8" ?>
<svg baseProfile="full" height="294.41523" version="1.1" width="1012.01632174" xmlns="http://www.w3.org/2000/svg" xmlns:ev="http://www.w3.org/2001/xml-events" xmlns:xlink="http://www.w3.org/1999/xlink"><defs /><polygon fill="none" points="1004.01632174,239.0189 1001.57462174,234.351567 997.4956217399999,230.367121 993.1708217400001,226.99755 988.56832174,223.94484 983.78822174,220.98415 978.87212174,218.10486 973.7756217399999,215.30324000000002 968.4639217399999,212.53261 962.93332174,209.76013 957.1818217399999,206.97756 951.1976217399999,204.1758 944.96262174,201.34372 938.46162174,198.47131000000002 931.6831217399999,195.55147 924.61632174,192.57823 917.25042174,189.54534 909.57602174,186.44808 901.58822174,183.28300000000002 893.28392174,180.04975000000002 884.65702174,176.74752 875.7004217399999,173.37196 866.41582174,169.91851 856.81752174,166.38834 846.92152174,162.78862 836.7366217399999,159.12375 826.26892174,155.39391 815.53122174,151.5999 804.54212174,147.74503 793.32292174,143.83359000000002 781.89532174,139.87060000000002 770.28082174,135.8621 758.49952174,131.8136 746.5676217399999,127.7297 734.49522174,123.6122 722.29402174,119.4606 709.9876217399999,115.277 697.60862174,111.0693 685.1854217399999,106.8461 672.7395217399999,102.6139 660.2918217399999,98.37960000000001 647.86612174,94.1506 635.48492174,89.9317 623.1627217399999,85.7243 610.90672174,81.5291 598.7248217399999,77.34889999999999 586.6297217399999,73.1884 574.6402217399999,69.05530000000002 562.78372174,64.96019999999999 551.09352174,60.915400000000005 539.60122174,56.9316 528.33272174,53.01759999999999 517.3172217399999,49.18459999999999 506.60292174,45.45090000000002 496.24942174,41.8399 486.29802174,38.37440000000001 476.75002174,35.064599999999984 467.57912174,31.908600000000007 458.76362174,28.896799999999985 450.32282174,26.028400000000005 442.30182174000004,23.312099999999987 434.74242174,20.763599999999997 427.63712174000005,18.4169 420.92912173999997,16.28819999999999 414.54512174000007,14.376000000000005 408.41082174,12.672799999999995 402.46142174000005,11.164500000000004 396.64862174,9.832300000000004 390.93352174000006,8.662700000000001 385.28292174000006,7.64670000000001 379.66682174000005,6.778999999999996 374.05722174000005,6.054699999999997 368.43122174,5.460399999999993 362.77452174000007,4.982599999999991 357.08172174,4.609700000000004 351.35642174000003,4.330699999999979 345.61182174000004,4.1351999999999975 339.86512174,4.023200000000003 334.12802174,4.0 328.40472174000007,4.07080000000002 322.69242174000004,4.240700000000004 316.98122174,4.515199999999993 311.25692174,4.895200000000017 305.50752174,5.377299999999991 299.72592174000005,5.958300000000008 293.90982174000004,6.634399999999999 288.06302174,7.401299999999992 282.19312174000004,8.256399999999985 276.30782174000007,9.199100000000016 270.41292174,10.229199999999992 264.51262174000004,11.346000000000004 258.60932174000004,12.549500000000023 252.70432173999998,13.839000000000027 246.80002173999998,15.213599999999985 240.90012174,16.671900000000022 235.00932174,18.212099999999992 229.13362174,19.832000000000022 223.27942173999998,21.53030000000001 217.45212174,23.30539999999999 211.65662174,25.156000000000006 205.89702173999999,27.080399999999997 200.17702174,29.076700000000017 194.50102174,31.142200000000003 188.87372174,33.2739 183.30052174,35.468199999999996 177.78722174,37.7218 172.33962174,40.0317 166.96292173999998,42.394800000000004 161.66152174,44.8082 156.43932174,47.2688 151.30002173999998,49.773499999999984 146.24692174,52.3185 141.28332174,54.90040000000002 136.41242173999998,57.515300000000025 131.63712174,60.159400000000005 126.96012174,62.828599999999994 122.38422173999999,65.5189 117.91162174,68.2262 113.54462174,70.94639999999998 109.28502174,73.6762 105.13442174,76.41230000000002 101.09335173999999,79.15179999999998 97.16212173999999,81.89190000000002 93.34042174,84.62969999999999 89.62783173999999,87.3622 86.02375174,90.0866 82.52738174,92.79990000000001 79.13776173999999,95.49960000000002 75.85394174,98.1832 72.67478174,100.84890000000001 69.59881173999999,103.4948 66.62427174,106.11929999999998 63.749161740000005,108.72120000000001 60.971471740000005,111.29910000000001 58.289121740000006,113.852 55.69988174,116.379 53.20142174000001,118.8792 50.791311740000005,121.35210000000001 48.46716174,123.797 46.22673174,126.2137 44.067771740000005,128.6018 41.98795174,130.9612 39.984941740000004,133.29149999999998 38.05641174,135.5929 36.20036174,137.8653 34.415031739999996,140.10917999999998 32.69853174,142.32494000000003 31.04894174,144.51307 29.464281739999997,146.67411 27.94256174,148.80862000000002 26.48169174,150.91703 25.07952174,152.99953 23.73396174,155.05631 22.44300174,157.08759 21.20471174,159.09359 20.01721174,161.07457 18.878771739999998,163.03082999999998 17.78833174,164.96291 16.745131739999998,166.87141000000003 15.748411740000002,168.75688000000002 14.797351740000002,170.61979000000002 13.89110574,172.46058 13.02881874,174.27965999999998 12.20971474,176.07738 11.43374174,177.85411 10.70096874,179.61045000000001 10.011264740000001,181.34722 9.364357739999999,183.06542000000002 8.75988574,184.76616 8.197437740000002,186.45068 7.6765367399999995,188.12023 7.19583574,189.77562 6.75341374,191.41693 6.34757274,193.04376000000002 5.97678774,194.65538 5.63965574,196.25074 5.33484674,197.82859 5.06106774,199.3875 4.81724654,200.92598 4.60379614,202.44305 4.42154984,203.93909 4.27112074,205.41568999999998 4.15306104,206.87542 4.06800484,208.32166 4.0168001871,209.75853 4.0,211.19081 4.0159441442,212.62332 4.06270989,214.06016 4.13867744,215.50473 4.24241044,216.95983 4.37254994,218.42756 4.52771344,219.90934 4.70639574,221.40574 4.9068691399999995,222.91637 5.12716574,224.43972 5.36648474,225.97351 5.62523774,227.51546 5.90383374,229.063415 6.20263274,230.615405 6.52196874,232.16968500000002 6.862159739999999,233.724769 7.22352774,235.279451 7.6064187400000005,236.832831 8.01122574,238.3843154 8.43894774,239.9332073 8.89211974,241.477868 9.373559740000001,243.01651 9.886129740000001,244.547374 10.43274174,246.068727 11.01636074,247.578858 11.64002074,249.07608 12.306829740000001,250.55872 13.01998474,252.02511 13.78232274,253.47308 14.595771740000002,254.89924 15.46228174,256.30006000000003 16.38397174,257.672 17.36317174,259.01151000000004 18.402491740000002,260.31495 19.50483174,261.57861 20.67304174,262.79868 21.90749174,263.97177 23.20755174,265.09447 24.572971739999996,266.16311 26.00390174,267.17369 27.500951739999998,268.12171 29.06529174,269.00222 30.69788174,269.81478 32.39854174,270.56625 34.16659174,271.26431 36.000561739999995,271.91715 37.89786174,272.53379 39.85442174,273.12422 41.86774174,273.69511 43.93959174,274.24735 46.07235174,274.78164 48.26876174,275.299 50.53205174,275.8008 52.86609174,276.2888 55.275281740000004,276.76466 57.76414174000001,277.22987 60.33725174,277.6862 62.99909174,278.13576 65.75381174,278.58108 68.60518173999999,279.02453 71.55758174,279.46569999999997 74.61604174,279.90323 77.78614173999999,280.33561 81.07433173999999,280.76116 84.48818174,281.17813 88.03622173999999,281.58557 91.72749174,281.98294 95.57157174,282.36972000000003 99.57838174,282.74542 103.75817174000001,283.10952 108.12172174,283.46124 112.68032174,283.79979000000003 117.44592174,284.12451 122.43092173999999,284.43486 127.64832174,284.72985 133.11112174000002,285.00823 138.83142174,285.26884 144.82052173999998,285.51044 151.08882174,285.73033 157.64592174,285.92507 164.50162174,286.09105 171.66652174,286.22514 179.14902174,286.32512 186.95402174,286.38917 195.08232174,286.41523 203.53212173999998,286.39994 212.30232174,286.3399 221.39432173999998,286.23315 230.80542173999999,286.0809 240.52232174,285.88595 250.52112173999998,285.6493 260.77662174,285.36884 271.27062174,285.04266 281.98922174000006,284.67175 292.91162174000004,284.2593 304.00862174,283.80868 315.24662174,283.32175 326.59352174,282.80038 338.01882174,282.24598000000003 349.49172174,281.65966000000003 360.98162174000004,281.04241 372.45902174,280.39374 383.89842174,279.71283 395.27792174,278.99821 406.58132174,278.24739999999997 417.79802174,277.4578 428.92162174000003,276.62716 439.94602174,275.75362 450.86582174000006,274.83534 461.67782174,273.86927000000003 472.38442174000005,272.85165 482.99292174,271.77873 493.51242174000004,270.64781 503.95152174000003,269.45652 514.31762174,268.20248 524.61952174,266.88311 534.86852174,265.49524 545.0791217399999,264.03539 555.2658217399999,262.50133 565.4413217399999,260.89125 575.61582174,259.20332 585.80062174,257.43533 596.0121217399999,255.58375 606.27302174,253.64431 616.60662174,251.61839 627.0260217399999,249.51192 637.53032174,247.333974 648.1039217399999,245.097133 658.7154217399999,242.81804 669.31842174,240.518565 679.85942174,238.2272489 690.2850217399999,235.973242 700.54642174,233.782349 710.60972174,231.673236 720.4599217399999,229.658408 730.0958217399999,227.74526 739.52122174,225.93796 748.74222174,224.23921 757.76592174,222.65030000000002 766.60102174,221.17126 775.2571217399999,219.80145 783.74402174,218.53907 792.06892174,217.38144 800.2362217399999,216.32613 808.24882174,215.37119 816.10902174,214.51513 823.82002174,213.75627 831.38502174,213.09259 838.80622174,212.52169 846.0844217399999,212.04109 853.21932174,211.64861000000002 860.21092174,211.34334 867.0604217399999,211.12438 873.77002174,210.99055 880.34212174,210.9407 886.77982174,210.97358 893.0862217399999,211.08779 899.26452174,211.28138 905.31732174,211.55202 911.2472217399999,211.8974 917.05642174,212.31552 922.74622174,212.80466 928.31772174,213.36303 933.7716217399999,213.99143 939.11002174,214.69404 944.33742174,215.47503 949.4594217399999,216.33886 954.48292174,217.29072 959.4168217399999,218.33635 964.26972174,219.48288 969.0477217399999,220.73796000000002 973.75342174,222.11137 978.39162174,223.62419 982.9861217399999,225.3063 987.57232174,227.17321 992.1275217399999,229.240728 996.5483217399999,231.729369 1001.04312174,234.884669 1004.01632174,239.0189" stroke="black" stroke-width="2.0" /></svg>