<?xml version="1.0" encoding="utf-8" ?>
<svg baseProfile="full" height="132.81018" version="1.1" width="1012.00302772" xmlns="http://www.w3.org/2000/svg" xmlns:ev="http://www.w3.org/2001/xml-events" xmlns:xlink="http://www.w3.org/1999/xlink"><defs /><polygon fill="none" points="1004.00302772,90.24407000000001 1000.8319277200001,90.27046500000002 996.75072772,90.28574200000001 992.20092772,90.27781300000001 987.23712772,90.23801700000001 981.93602772,90.15818300000001 976.37072772,90.03230800000001 970.61392772,89.85651800000001 964.7268277200001,89.62924000000001 958.75712772,89.35042600000001 952.7327277200001,89.02051600000001 946.6676277199999,88.64033900000001 940.57262772,88.21105800000001 934.45582772,87.73397700000001 928.32222772,87.21038800000001 922.17422772,86.64135700000001 916.01392772,86.02785700000001 909.8429277199999,85.37090800000001 903.66282772,84.67157000000002 897.47492772,83.93093400000001 891.28072772,83.15007500000002 885.08102772,82.32979800000001 878.8770277199999,81.47081000000001 872.66952772,80.57385000000001 866.45942772,79.63964000000001 860.24742772,78.66896000000001 854.03432772,77.66251000000001 847.82072772,76.62084000000002 841.60702772,75.54441000000001 835.39352772,74.43369000000001 829.18052772,73.28913000000001 822.96792772,72.11114 816.75562772,70.90014000000001 810.54352772,69.65658000000002 804.33102772,68.38091000000001 798.11772772,67.07352 791.90302772,65.73479 785.6860277200001,64.36506000000001 779.46592772,62.96489000000001 773.24102772,61.53511000000001 767.0097277199999,60.076450000000015 760.76952772,58.589560000000006 754.5178277199999,57.07493000000001 748.25132772,55.53297000000001 741.96672772,53.96460000000001 735.66162772,52.37149000000001 729.33512772,50.75572000000001 722.98812772,49.119880000000016 716.6232277199999,47.467100000000016 710.2446277199999,45.80108000000001 703.8579277199999,44.12652000000001 697.46892772,42.448520000000016 691.0834277199999,40.77226000000002 684.70762772,39.102950000000014 678.3477277200001,37.445760000000014 672.00972772,35.805800000000005 665.69892772,34.18803000000001 659.41862772,32.596890000000016 653.17062772,31.03621000000001 646.95482772,29.509230000000017 640.76982772,28.018730000000005 634.61312772,26.56693 628.4819277199999,25.155640000000005 622.37342772,23.78661000000001 616.28482772,22.461550000000017 610.2133277199999,21.182150000000007 604.15612772,19.95007000000001 598.11062772,18.76633000000001 592.0742277200001,17.631370000000004 586.04432772,16.54565000000001 580.01802772,15.50966000000001 573.99242772,14.523960000000002 567.9642277199999,13.589000000000013 561.93052772,12.704300000000018 555.88862772,11.868970000000004 549.83582772,11.082310000000021 543.7699277199999,10.34369000000001 537.68862772,9.652630000000016 531.5901277199999,9.008470000000003 525.4725277199999,8.409890000000004 519.3346277200001,7.855500000000021 513.17562772,7.343970000000013 506.99512771999997,6.874020000000016 500.79342771999995,6.444400000000002 494.57092772,6.05389000000001 488.32832771999995,5.701310000000021 482.06632772,5.38545000000002 475.78592771999996,5.105060000000009 469.48802772,4.8588700000000244 463.17402771999997,4.645590000000013 456.84502771999996,4.46426000000001 450.50232772,4.314050000000023 444.14702772,4.194120000000012 437.78062772,4.103590000000011 431.40442772,4.041540000000012 425.01972772,4.007150000000024 418.62792772,4.0 412.23032772,4.01973000000001 405.82802772,4.065950000000015 399.42222771999997,4.1382600000000025 393.01402771999994,4.2362600000000015 386.60432772,4.359690000000015 380.19422771999996,4.508570000000006 373.78452772,4.682910000000021 367.37612771999994,4.882720000000006 360.96972772,5.107970000000009 354.56592772,5.35869000000001 348.16562772,5.635000000000019 341.76912772,5.937140000000014 335.37682771999994,6.265350000000012 328.98902771999997,6.619860000000003 322.60592771999995,7.0009000000000015 316.22732771999995,7.408720000000017 309.85322771999995,7.843520000000012 303.48362772,8.305480000000003 297.11852772,8.794810000000012 290.75782771999997,9.31168000000001 284.40152772,9.856290000000001 278.04982772,10.428820000000002 271.70282772,11.029410000000013 265.36052772,11.658190000000019 259.02322772,12.315290000000005 252.69112772,13.000830000000008 246.36482772,13.714920000000006 240.04442772,14.457740000000015 233.73062772000003,15.22948000000001 227.42392772000002,16.030350000000013 221.12512772,16.860500000000016 214.83482772,17.720090000000013 208.55392772000002,18.609280000000012 202.28352772000002,19.528480000000016 196.02482772000002,20.478120000000004 189.77902772000002,21.458580000000012 183.54762772,22.470200000000006 177.33222772,23.513270000000006 171.13462772,24.58826000000002 164.95672772000003,25.69599000000001 158.80072772,26.837280000000007 152.66852772000001,28.012860000000018 146.56252772000002,29.223400000000012 140.48492772,30.469530000000013 134.43832772000002,31.752440000000007 128.42652772,33.07351000000001 122.45372771999999,34.43381000000001 116.52512772,35.834080000000014 110.64622772,37.27465000000001 104.82332772000001,38.75592000000001 99.06331771999999,40.27924000000001 93.37332772,41.84585000000001 87.76011772,43.45659000000001 82.23009772,45.11187000000001 76.78933771999999,46.81178000000001 71.44717772,48.55700000000001 66.22251772000001,50.34600000000001 61.14168772,52.17276000000001 56.23415772,54.027420000000006 51.52796772,55.89753000000001 47.04820772,57.77101000000001 42.81976772,59.63732000000001 38.86148772,61.484330000000014 35.18193771999999,63.30032000000001 31.77888772,65.07569000000001 28.64227772,66.80398000000001 25.76987772,68.47996 23.16969772,70.09138000000002 20.84181772,71.62487000000002 18.77259772,73.07239000000001 16.93807772,74.43241 15.31068772,75.70901 13.865013719999999,76.91232000000001 12.575766719999999,78.05419 11.42020772,79.14528000000001 10.37927072,80.19455 9.43736472,81.20935000000001 8.58192472,82.19572000000001 7.8062257200000005,83.15877400000001 7.1095947200000005,84.10066100000002 6.4919017199999995,85.02020900000001 5.95182172,85.91479600000001 5.48628172,86.78165400000002 5.09082672,87.61847500000002 4.76221812,88.42306500000001 4.49681832,89.196875 4.29040222,89.94464900000001 4.13964592,90.67246800000001 4.04278072,91.38703130000002 4.0,92.09566330000001 4.01392762,92.80631790000001 4.08976475,93.52358100000001 4.23564732,94.24741200000001 4.46198582,94.97344300000002 4.77424392,95.69513200000002 5.17130072,96.40678400000002 5.65104872,97.10232500000001 6.21090072,97.775124 6.84870272,98.41888700000001 7.566488720000001,99.034 8.368311720000001,99.624069 9.25823872,100.19338200000001 10.239420719999998,100.74733600000002 11.31334472,101.29236700000001 12.48791072,101.83099100000001 13.776847720000001,102.36359000000002 15.19612772,102.89145 16.76413772,103.41756000000001 18.50185772,103.94785000000002 20.434187719999997,104.49106 22.59508772,105.04993000000002 25.02460772,105.62453000000001 27.765037720000002,106.21459000000002 30.85624772,106.82017000000002 34.33152772,107.44400000000002 38.22235772,108.09144 42.55276772,108.7578 47.30970772,109.43193000000001 52.43289772,110.10028000000001 57.83553772,110.75223000000001 63.45183772000001,111.38498000000001 69.25169772,111.99681000000001 75.20784771999999,112.58512000000002 81.29139771999999,113.14841000000001 87.47492772,113.68647000000001 93.73553772,114.20039000000001 100.05618772,114.69103000000001 106.42302772,115.15859 112.82462772,115.60364000000001 119.25202771999999,116.02718000000002 125.69972772,116.43057000000002 132.16522772000002,116.81532000000001 138.64782772,117.18256000000001 145.14682772,117.53328 151.66122772,117.86848 158.19022772000002,118.18919000000001 164.73222772,118.49644 171.28592772,118.79111 177.85002772,119.07381000000001 184.42322772000003,119.34516 191.00432772,119.60579000000001 197.59262772000002,119.85636000000001 204.18722772,120.09752000000002 210.78752771999999,120.32974000000002 217.39302772000002,120.55335000000001 224.00322772,120.76869 230.61762772,120.97612000000001 237.23592772,121.17598000000001 243.85772772,121.36860000000001 250.48262772,121.55423000000002 257.11062772,121.73307000000001 263.74132772,121.90536 270.37462772,122.07130000000001 277.01052771999997,122.23112 283.64872771999995,122.38503000000001 290.28942771999994,122.53321000000001 296.93232772,122.67585000000001 303.57742772,122.81314 310.22462772,122.94526000000002 316.87372772,123.07238000000001 323.52462771999996,123.19466000000001 330.17712772,123.31221000000001 336.83102771999995,123.42513000000001 343.48622772,123.53354000000002 350.14232772,123.63755 356.79912771999994,123.73727000000001 363.45652772,123.83270000000002 370.11402771999997,123.92385000000002 376.77172771999994,124.01071000000002 383.42922772000003,124.09328000000001 390.08662771999997,124.17156000000001 396.74362771999995,124.24553 403.40032771999995,124.31515000000002 410.05672771999997,124.38038 416.71262771999994,124.44117000000001 423.36802772,124.49748000000001 430.02292772,124.54926 436.67742771999997,124.59647000000001 443.33152772,124.63907 449.98512772,124.67703 456.63842772,124.71029000000001 463.29132771999997,124.73883000000001 469.94412772,124.76261000000001 476.59682771999996,124.78163 483.24952772,124.79589000000001 489.90232772,124.80540000000002 496.55522771999995,124.81016000000001 503.20832772,124.81018 509.86162771999994,124.80548000000002 516.51532772,124.79608000000002 523.16922772,124.78201000000001 529.8235277199999,124.76331000000002 536.4780277199999,124.74002000000002 543.13292772,124.71216000000001 549.7881277199999,124.67976000000002 556.44352772,124.64282 563.09912772,124.60137 569.7545277199999,124.55541000000001 576.40972772,124.50496000000001 583.0644277199999,124.45003000000001 589.71842772,124.39053000000001 596.37132772,124.32634000000002 603.02282772,124.25737000000001 609.67272772,124.18351000000001 616.3207277199999,124.10465000000002 622.96652772,124.02063000000001 629.60972772,123.93122000000001 636.2501277199999,123.83616 642.88752772,123.73521000000002 649.52162772,123.62812000000001 656.15212772,123.51464000000001 662.77882772,123.39444 669.40162772,123.26719000000001 676.0201277199999,123.13252000000001 682.63432772,122.99008 689.24382772,122.83951000000002 695.84852772,122.68047000000001 702.44832772,122.51251 709.04292772,122.33521000000002 715.6321277200001,122.14814000000001 722.21582772,121.95087000000001 728.79382772,121.74297000000001 735.36602772,121.524 741.93212772,121.29345 748.49192772,121.05083000000002 755.0453277199999,120.79567000000002 761.59212772,120.52747000000001 768.13222772,120.24576000000002 774.66532772,119.94998000000001 781.1911277199999,119.63958000000001 787.70932772,119.31403 794.21962772,118.97277000000001 800.72152772,118.61529000000002 807.21462772,118.24099000000001 813.6983277200001,117.84914 820.17192772,117.43904 826.63482772,117.01000000000002 833.0861277199999,116.56134000000002 839.5249277199999,116.09239000000001 845.95022772,115.60220000000001 852.3610277199999,115.08974 858.75632772,114.55398000000001 865.13492772,113.99392 871.49582772,113.40861000000001 877.83792772,112.79701000000001 884.16022772,112.15782000000002 890.46212772,111.48970000000001 896.74342772,110.79129 903.00412772,110.06124000000001 909.24462772,109.29816000000001 915.46592772,108.50094000000001 921.66902772,107.66863000000001 927.85582772,106.80018000000001 934.02842772,105.89442000000001 940.1895277199999,104.95018000000002 946.34182772,103.96817000000001 952.48632772,102.95097000000001 958.6211277199999,101.901677 964.74092772,100.82460400000001 970.81462772,99.734829 976.74752772,98.66245500000001 982.4049277199999,97.64589400000001 987.6776277199999,96.721365 992.51452772,95.91082300000001 996.9059277199999,95.229482 1000.86892772,94.67419000000001 1003.99262772,94.27767000000001" stroke="black" stroke-width="2.0" /></svg>