<?xml version="1.0" encoding="utf-8" ?>
<svg baseProfile="full" height="161.62542" version="1.1" width="1012.04469861" xmlns="http://www.w3.org/2000/svg" xmlns:ev="http://www.w3.org/2001/xml-events" xmlns:xlink="http://www.w3.org/1999/xlink"><defs /><polygon fill="none" points="1004.04469861,103.06663999999999 1000.86239861,102.3965092 997.0132986099999,101.58837399999999 992.95369861,100.73889899999999 988.6629986099999,99.84429499999999 984.1199986099999,98.900662 979.30329861,97.90422 974.1937986099999,96.851717 968.77729861,95.74107699999999 963.04969861,94.57233699999999 957.02279861,93.34883199999999 950.73079861,92.07836999999999 944.23179861,90.77257999999999 937.63159861,89.45137 931.07619861,88.14222 924.53099861,86.83632 917.95889861,85.52443 911.3459986099999,84.20195 904.7634986099999,82.88119999999999 898.22299861,81.56306 891.7046986099999,80.24374999999999 885.1917986099999,78.92061 878.67139861,77.59170999999999 872.1341986099999,76.25585 865.57489861,74.9126 858.9915986099999,73.56228999999999 852.3866986099999,72.20611 845.76799861,70.84624 839.15319861,69.48669999999998 832.54149861,68.12767 825.92829861,66.76852 819.31009861,65.40888999999999 812.69099861,64.04992999999999 806.07969861,62.693769999999994 799.47589861,61.34071999999999 792.87869861,59.991049999999994 786.2870986099999,58.64507999999999 779.70019861,57.303189999999994 773.1172986099999,55.96577999999999 766.53789861,54.633289999999995 759.96159861,53.306169999999995 753.38819861,51.984939999999995 746.81779861,50.670109999999994 740.2503986099999,49.36218999999999 733.68599861,48.06165999999999 727.1249986099999,46.76903999999999 720.5671986099999,45.48481999999999 714.01309861,44.209489999999995 707.46259861,42.943569999999994 700.91599861,41.68753999999999 694.37349861,40.44198999999999 687.83529861,39.20756999999999 681.3012986099999,37.98488999999999 674.77159861,36.77458999999999 668.24609861,35.57724999999999 661.7245986099999,34.39345 655.2069986099999,33.22376999999999 648.6928986099999,32.068749999999994 642.1820986099999,30.928929999999994 635.67449861,29.804839999999984 629.16989861,28.697029999999984 622.6683986099999,27.606089999999995 616.17009861,26.532579999999996 609.6751986099999,25.477090000000004 603.18399861,24.440219999999997 596.69689861,23.42259999999999 590.2141986099999,22.424969999999988 583.7360986099999,21.44804999999998 577.26249861,20.492519999999985 570.79349861,19.559039999999996 564.3285986099999,18.648239999999987 557.8674986099999,17.760739999999984 551.40959861,16.89712999999999 544.95419861,16.057879999999983 538.50089861,15.243359999999996 532.04929861,14.453949999999992 525.59919861,13.690039999999996 519.1504986099999,12.952059999999989 512.70349861,12.240439999999992 506.25839861,11.555639999999997 499.81569861,10.898109999999988 493.37589861000004,10.268349999999984 486.93929861000004,9.666820000000001 480.50599861,9.093999999999994 474.07589860999997,8.55028999999999 467.64849861000005,8.036109999999994 461.22309861,7.5518499999999875 454.79889861,7.097920000000002 448.37459861,6.674659999999989 441.94949861,6.282099999999986 435.52319861,5.920259999999985 429.09639861,5.589179999999985 422.67039861,5.288979999999995 416.24629861,5.0200499999999835 409.82399861000005,4.782789999999991 403.40209861,4.577559999999991 396.97839861,4.404470000000003 390.55009861,4.262949999999989 384.11539861,4.152349999999984 377.67319861,4.072069999999982 371.22329861000003,4.02149 364.76609861000003,4.0 358.30369861,4.006909999999991 351.83869861,4.0415299999999945 345.37509861,4.103610000000003 338.91569861,4.193639999999988 332.46229861,4.312129999999982 326.01499861,4.4595999999999805 319.57329861,4.636479999999992 313.13729861,4.8430899999999895 306.70869861,5.07965999999999 300.29059861,5.346409999999992 293.88679861,5.644229999999993 287.50149861,5.974580000000003 281.13829861,6.3388300000000015 274.80029860999997,6.738339999999994 268.49029861,7.175009999999986 262.20929861,7.651129999999995 255.95699861,8.169029999999992 249.73139861,8.731109999999987 243.52999861000004,9.339159999999993 237.35109861,9.99454999999999 231.19419861000003,10.698559999999986 225.05959861,11.452359999999985 218.94839861000003,12.257080000000002 212.86169861000002,13.113839999999996 206.79989861,14.02382 200.76299861,14.988209999999995 194.75119861000002,16.008160000000004 188.76479861,17.08466 182.80439861,18.218609999999984 176.87139861,19.410819999999987 170.96719861000003,20.662059999999983 165.09329861,21.973219999999998 159.25059861000003,23.34527 153.43959861000002,24.779259999999994 147.66039861000002,26.276299999999992 141.91349861000003,27.837349999999986 136.19989861000002,29.463179999999994 130.52119861,31.154349999999994 124.87949861,32.91120999999998 119.27699860999999,34.73410999999999 113.71399860999999,36.62402 108.18859861,38.58264999999999 102.69714861,40.612629999999996 97.23447861,42.71632999999999 91.79885861,44.89284999999999 86.39541861,47.13850999999999 81.03163861,49.44956 75.71090860999999,51.823969999999996 70.43805861,54.257929999999995 65.23604861,56.73783999999999 60.14552860999999,59.241209999999995 55.19701861,61.750969999999995 50.39574861,64.26288 45.767428609999996,66.76764 41.41687861,69.20972 37.462218609999994,71.51236 33.91911861,73.64711 30.69831861,75.65162 27.69327861,77.58339999999998 24.80914861,79.51245999999999 22.05331861,81.45366999999999 19.53110861,83.3367 17.327438609999998,85.07839999999999 15.444908609999999,86.64388 13.83105561,88.04538 12.436656609999998,89.30592999999999 11.229915609999999,90.44843999999999 10.17903661,91.49629999999999 9.25757761,92.46864 8.445271609999999,93.380055 7.7267996100000005,94.24164199999998 7.09053661,95.06195899999999 6.52759261,95.847714 6.03111661,96.604276 5.59581661,97.33603299999999 5.21761461,98.046635 4.89341641,98.73918599999999 4.6209354099999995,99.41637399999999 4.39858561,100.08057899999999 4.22540541,100.73395099999999 4.1010179,101.378479 4.02561998,102.01605199999999 4.0,102.6485101 4.02558746,103.27770059999999 4.10429048,103.905519 4.23609101,104.533728 4.42003561,105.16390399999999 4.6558191099999995,105.79755399999999 4.94377301,106.436156 5.28486261,107.081199 5.6807126100000005,107.73421199999999 6.13367161,108.396796 6.64690361,109.070658 7.22452761,109.757635 7.87181261,110.45971599999999 8.595423610000001,111.17904899999999 9.40375461,111.91790999999999 10.307307609999999,112.67857699999999 11.319050610000001,113.463 12.45446861,114.27201 13.730392609999999,115.1034 15.162308609999998,115.94908 16.775538609999998,116.80207999999999 18.604218609999997,117.65673999999999 20.68122861,118.50567 23.028698610000003,119.34244999999999 25.64911861,120.16923 28.53157861,121.00958999999999 31.686558610000002,121.91512999999999 35.15981861,122.90651 39.00491861,123.97663 43.26655861,125.10199999999999 47.96070861,126.25959999999999 53.068668609999996,127.45327999999999 58.527138609999994,128.69093999999998 64.23978861,129.95564 70.11781861,131.22238 76.10733861,132.47584 82.16903861,133.70549 88.27047861,134.90221 94.38776861,136.05839 100.50795860999999,137.16823 106.63069861,138.22768 112.76499861,139.23685999999998 118.91949860999999,140.19876 125.09889860999999,141.11572999999999 131.30399861,141.98943 137.53219861000002,142.82089 143.78099861,143.61091 150.04869861,144.36046 156.33509861000002,145.07068999999998 162.64079861,145.743 168.96689861000002,146.37891 175.31389861000002,146.97993 181.68219861000003,147.54753 188.07189861,148.08323 194.48219861,148.58853 200.91139861000002,149.06492 207.35649861,149.51382999999998 213.81419861,149.9361 220.28159861000003,150.33204999999998 226.75739861000002,150.70211999999998 233.24119861,151.04683 239.73319861000002,151.36676999999997 246.23389861,151.66261 252.74309861,151.93498 259.26029861,152.18448 265.78499861,152.41169 272.31709861,152.61721999999997 278.85689861000003,152.80165 285.40499861,152.96562999999998 291.96189861,153.10994 298.52719860999997,153.23536 305.09969861,153.34267 311.67719861,153.4325 318.25789861000004,153.505 324.84129861,153.56029 331.42799861,153.5985 338.01979861,153.62 344.61769861000005,153.62542 351.22219861,153.61543 357.83229861,153.59071 364.44669861,153.55169999999998 371.06429861000004,153.49871 377.68469861000005,153.43201 384.30779861,153.35189 390.93379861,153.25862999999998 397.56229861,153.15251999999998 404.19219861,153.03386999999998 410.82149861,152.90287 417.44859861,152.7593 424.07279861,152.60282999999998 430.69429861000003,152.43309 437.31409861000003,152.24983 443.93339861000004,152.05308 450.55319861,151.84288999999998 457.17399861,151.61930999999998 463.79599860999997,151.38245 470.41919861,151.13243999999997 477.04379861,150.86944 483.66949861,150.59357999999997 490.29619861000003,150.30502 496.92349861,150.00394 503.55079861,149.69049 510.17779861,149.36482 516.80379861,149.02695 523.4284986099999,148.67683 530.0516986099999,148.31439 536.6733986099999,147.93959 543.29379861,147.55234 549.91329861,147.15257 556.5322986099999,146.74016 563.1516986099999,146.31515 569.77199861,145.87775 576.39389861,145.42819 583.0176986099999,144.96669 589.6436986099999,144.49351 596.27209861,144.00889999999998 602.9029986099999,143.51309999999998 609.5361986099999,143.00637999999998 616.1716986099999,142.48899999999998 622.80909861,141.9612 629.4483986099999,141.42320999999998 636.0892986099999,140.87529 642.7315986099999,140.31769 649.3750986099999,139.75065 656.0194986099999,139.17444999999998 662.66459861,138.58929999999998 669.31029861,137.9954 675.95659861,137.39292 682.60359861,136.78203 689.25169861,136.16285 695.90129861,135.53553 702.5529986099999,134.90017999999998 709.2074986099999,134.25691999999998 715.86569861,133.60603 722.5280986099999,132.94792999999999 729.19499861,132.28303 735.86629861,131.61178999999998 742.54179861,130.93471 749.2209986099999,130.25229 755.9029986099999,129.56511 762.58669861,128.87363 769.2712986099999,128.1782 775.95639861,127.47905999999999 782.64219861,126.77641 789.3292986099999,126.07042999999999 796.01879861,125.36119 802.71229861,124.64876 809.4118986099999,123.93314 816.11939861,123.21445999999999 822.83549861,122.49298999999999 829.55459861,121.7697 836.26839861,121.04584999999999 842.9804986099999,120.32144 849.69589861,119.59628 856.4123986099999,118.87097999999999 863.11219861,118.14787 869.7902986099999,117.42797999999999 876.4464986099999,116.71176 883.08499861,115.99924999999999 889.71369861,115.29003999999999 896.3446986099999,114.5833 902.99399861,113.87778999999999 909.68169861,113.17175999999999 916.38279861,112.46715599999999 923.03329861,111.769567 929.6499986099999,111.07611999999999 936.26789861,110.38202999999999 942.93869861,109.680764 949.58309861,108.979558 956.02559861,108.29603499999999 962.20039861,107.636934 968.0676986099999,107.00701699999999 973.6122986099999,106.40846599999999 978.8373986099999,105.84149799999999 983.75729861,105.30506899999999 988.39219861,104.797428 992.76449861,104.316503 996.89699861,103.86014229999999 1000.8112986099999,103.4262543 1004.04469861,103.06663999999999" stroke="black" stroke-width="2.0" /></svg>