<?xml version="1.0" encoding="utf-8" ?>
<svg baseProfile="full" height="142.70526" version="1.1" width="1011.99360532" xmlns="http://www.w3.org/2000/svg" xmlns:ev="http://www.w3.org/2001/xml-events" xmlns:xlink="http://www.w3.org/1999/xlink"><defs /><polygon fill="none" points="1003.99360532,79.34974 1000.48700532,79.2212845 996.04530532,78.982559 991.1796053200001,78.64389349999999 985.91920532,78.217632 980.30720532,77.720061 974.40910532,77.173244 968.29980532,76.60592199999999 962.0489053200001,76.032983 955.7167053200001,75.459722 949.34470532,74.889361 942.95110532,74.32221899999999 936.54290532,73.755924 930.12550532,73.187674 923.70330532,72.614537 917.2792053200001,72.033722 910.85550532,71.44424699999999 904.4332053200001,70.845951 898.01290532,70.238629 891.59480532,69.622015 885.1781053200001,68.99580999999999 878.76180532,68.35992999999999 872.3451053200001,67.71456 865.92720532,67.05986 859.50780532,66.39605 853.08680532,65.72336 846.66430532,65.04205999999999 840.24060532,64.35238 833.81600532,63.65454999999999 827.39070532,62.948769999999996 820.96480532,62.23524999999999 814.5383053200001,61.51416 808.1112053200001,60.78569999999999 801.6831053200001,60.050039999999996 795.25400532,59.3074 788.82380532,58.558009999999996 782.3922053200001,57.802099999999996 775.95910532,57.03989 769.5247053200001,56.27164 763.08870532,55.497569999999996 756.6514053200001,54.717949999999995 750.21260532,53.933009999999996 743.77240532,53.143 737.3308053200001,52.34814 730.8878053200001,51.54867 724.44340532,50.74482999999999 717.99760532,49.936859999999996 711.55020532,49.12496999999999 705.1012053200001,48.30942999999999 698.65060532,47.49046 692.19840532,46.66831 685.74440532,45.843239999999994 679.28860532,45.01549 672.83110532,44.18532 666.37190532,43.35299 659.9109053200001,42.51875 653.44830532,41.68287999999999 646.98420532,40.84569 640.51860532,40.00748 634.05200532,39.16856 627.58460532,38.32926 621.1169053200001,37.48992 614.64930532,36.65088 608.18240532,35.8125 601.71670532,34.97516999999999 595.25280532,34.13928 588.7910053200001,33.30519 582.33160532,32.473259999999996 575.87490532,31.643849999999993 569.42080532,30.81729 562.96960532,29.99389 556.52110532,29.17398 550.07510532,28.357889999999998 543.63170532,27.545959999999994 537.19060532,26.73856 530.75190532,25.93604 524.31560532,25.138779999999997 517.88170532,24.347119999999997 511.4503053199999,23.561459999999997 505.02140532,22.782149999999994 498.59520531999993,22.009639999999997 492.17180532,21.244439999999997 485.75120532,20.487029999999997 479.33370532,19.737919999999995 472.91930532,18.997589999999995 466.50820531999995,18.26652 460.10050531999997,17.54520999999999 453.69620532,16.83413999999999 447.29550532,16.133829999999996 440.89850531999997,15.444809999999997 434.50510532,14.76760999999999 428.11530531999995,14.102760000000004 421.72890531999997,13.450760000000002 415.34560531999995,12.812119999999993 408.96530531999997,12.187329999999989 402.58750532,11.576879999999989 396.21200532,10.981379999999987 389.83890532,10.401480000000006 383.46880532,9.837890000000002 377.10250532,9.291330000000002 370.74130532,8.762529999999998 364.38690532,8.252250000000004 358.04130532,7.761260000000007 351.70690532,7.290729999999996 345.38580532,6.842889999999997 339.08000532,6.4200699999999955 332.79080532,6.02449 326.5194053199999,5.65831 320.26660532,5.3235699999999895 314.03280531999997,5.022269999999992 307.81810532,4.756320000000002 301.62240532,4.527509999999992 295.4451053199999,4.337559999999996 289.2850053199999,4.188140000000004 283.14040531999996,4.080939999999998 277.00900531999997,4.01764 270.88810531999997,4.0 264.77440531999997,4.029619999999994 258.66470532,4.10672000000001 252.55660532000002,4.231020000000001 246.44830532,4.402280000000005 240.33880532,4.6203100000000035 234.22810532,4.884910000000005 228.11660532,5.195869999999999 222.00580531999998,5.553009999999986 215.89720532,5.956440000000001 209.79250532,6.406229999999994 203.69370532,6.902420000000006 197.60260532,7.44498999999999 191.52120531999998,8.033860000000004 185.45140532,8.669030000000006 179.39560532000002,9.351200000000006 173.35570532,10.081309999999988 167.33330532,10.860240000000005 161.33020532,11.68889 155.34750532,12.568089999999998 149.38650532,13.498800000000003 143.44870532,14.482249999999993 137.53610532000002,15.51961 131.65120532000003,16.61191 125.79690532000001,17.759999999999998 119.97650532,18.964549999999996 114.19400532,20.22683 108.45460532,21.548519999999996 102.76386532,22.930919999999993 97.12788532,24.374879999999997 91.55315532,25.8808 86.04749532000001,27.449759999999998 80.62102532,29.083259999999996 75.28514532,30.781579999999998 70.05195532,32.543659999999996 64.93402532,34.367459999999994 59.947855319999995,36.25094 55.11480532,38.189319999999995 50.45773532,40.17419999999999 45.99790532,42.19455 41.75776532,44.23844 37.76757532,46.28962 34.05515532,48.32657999999999 30.63662532,50.327729999999995 27.51464532,52.275839999999995 24.68756532,54.15862 22.14733532,55.96518999999999 19.876365319999998,57.68844 17.85018532,59.32611 16.04217532,60.88002 14.432015320000001,62.354169999999996 13.002616320000001,63.7517 11.73635132,65.07571 10.61541132,66.33005 9.62263332,67.51920999999999 8.742158320000001,68.64806999999999 7.96049932,69.721623 7.26887832,70.744867 6.6597623200000005,71.722112 6.12580932,72.65709799999999 5.66009432,73.553179 5.257380319999999,74.41394199999999 4.91333912,75.24426799999999 4.62375982,76.049565 4.38710452,76.832414 4.20381072,77.590105 4.07419192,78.317512 4.003364599,79.017248 4.0,79.7084023 4.08633729,80.405222 4.29151282,81.103681 4.60576272,81.797229 5.00586332,82.484022 5.48007932,83.171157 6.0213293199999995,83.865597 6.63108532,84.57036 7.31122832,85.28884 8.06561532,86.025176 8.90099432,86.78438299999999 9.82478032,87.572749 10.84809732,88.395602 11.98557832,89.257955 13.25404932,90.16587 14.67261532,91.12652 16.26525532,92.14621 18.05977532,93.22982999999999 20.08445532,94.38077 22.364545319999998,95.60007 24.918845320000003,96.88666 27.76132532,98.2407 30.91381532,99.66418999999999 34.40088532,101.15308 38.23298532,102.69717 42.40090532,104.2811 46.87924532,105.8882 51.63614532,107.50067999999999 56.62905532,109.09810999999999 61.80816532,110.66253 67.12905531999999,112.18229 72.56384532,113.65243 78.09589532,115.06929 83.71008532,116.43015 89.39284532,117.7337 95.13300532,118.97994 100.92226532,120.16922 106.75410532000001,121.30161999999999 112.62280532,122.37768 118.52380532,123.39833999999999 124.45360532,124.36496 130.40990532,125.27893 136.39120532,126.14134999999999 142.39610532,126.95336 148.42300532000002,127.71617 154.47070532,128.43106 160.53800532,129.09933999999998 166.62380532,129.72223 172.72740532,130.30095 178.84820532,130.83673 184.98580532,131.33086 191.14020532,131.78465 197.31120532,132.19946 203.49920532000002,132.57672 209.70410532,132.91794 215.92590532,133.22465 222.16400531999997,133.49835 228.41760532,133.7406 234.68560532,133.95295 240.96670532,134.13683 247.25960532000002,134.2932 253.56300532,134.42293 259.87590532,134.52696 266.19750531999995,134.60624 272.52700531999994,134.66173 278.86390531999996,134.69444 285.20770532,134.70526 291.55810532,134.6949 297.91500532,134.66404 304.27810532,134.61338999999998 310.64730531999993,134.54362 317.02230532,134.45546 323.40330532,134.34959 329.79000532,134.22673 336.18250531999996,134.08753000000002 342.58070531999994,133.93262 348.98450532,133.76266999999999 355.39360531999995,133.57833 361.8079053199999,133.38025 368.22690531999996,133.16912 374.65020532,132.94561 381.07750532,132.7103 387.50820531999995,132.46356 393.94210531999994,132.20578 400.37880531999997,131.93733 406.81800532,131.65859999999998 413.25960532,131.36995 419.70350532,131.07178 426.1496053199999,130.76445 432.59780531999996,130.44827 439.04810532,130.12351 445.50050531999995,129.79041999999998 451.95480532,129.44927 458.41080532,129.10031 464.86850531999994,128.74383 471.32740531999997,128.38009 477.78740531999995,128.00936000000002 484.2481053199999,127.63182 490.70930531999994,127.24752 497.17070531999997,126.85650999999999 503.63210531999994,126.45885999999999 510.09340532,126.05461 516.5544053200001,125.64382 523.01500532,125.22652 529.47520532,124.80275999999999 535.9351053199999,124.37258 542.39470532,123.93602 548.85390532,123.4931 555.31290532,123.04384999999999 561.77180532,122.5883 568.2307053200001,122.12647 574.68970532,121.6584 581.14900532,121.1841 587.6087053200001,120.70362 594.0690053200001,120.21710999999999 600.5301053200001,119.7247 606.99190532,119.22653 613.45460532,118.72273999999999 619.9182053200001,118.21348 626.3825053200001,117.6989 632.84770532,117.17914999999999 639.31340532,116.65437 645.7797053200001,116.12465 652.24640532,115.59007 658.71340532,115.05073999999999 665.18070532,114.50674000000001 671.64820532,113.95815999999999 678.11580532,113.40509 684.58350532,112.84761 691.0512053200001,112.2858 697.51890532,111.71968 703.9865053200001,111.1493 710.45410532,110.57469 716.9215053199999,109.99588 723.3889053199999,109.41292 729.85610532,108.82585 736.32320532,108.23468 742.79010532,107.63945 749.2570053200001,107.04019 755.72370532,106.43692 762.19020532,105.82967 768.6565053200001,105.21846 775.1225053200001,104.60332 781.58830532,103.98429 788.05380532,103.36134999999999 794.5188053200001,102.73451 800.9835053200001,102.10376 807.44760532,101.46911 813.91120532,100.83054 820.37410532,100.18806 826.8363053200001,99.54165 833.2976053200001,98.89125 839.75810532,98.23680999999999 846.2175053200001,97.57827 852.67570532,96.91557 859.13270532,96.24866 865.5883053200001,95.57748 872.04220532,94.90191999999999 878.4944053199999,94.22189 884.94450532,93.53728 891.39220532,92.84801999999999 897.83720532,92.154 904.27890532,91.45499 910.71610532,90.75062 917.14640532,90.04059 923.56680532,89.324747 929.9734053200001,88.602993 936.36090532,87.874504 942.72330532,87.137795 949.0532053200001,86.39156 955.3426053200001,85.634726 961.58080532,84.866759 967.7480053200001,84.088638 973.81380532,83.303103 979.7394053200001,82.516317 985.46180532,81.74817 990.88610532,81.024379 995.9187053200001,80.36576 1000.47060532,79.78588599999999 1003.99360532,79.34974" stroke="black" stroke-width="2.0" /></svg>