<?xml version="1.0" encoding="utf-8" ?>
<svg baseProfile="full" height="132.11755" version="1.1" width="1011.999287923" xmlns="http://www.w3.org/2000/svg" xmlns:ev="http://www.w3.org/2001/xml-events" xmlns:xlink="http://www.w3.org/1999/xlink"><defs /><polygon fill="none" points="1003.999287923,74.95969000000001 1000.4247879229999,74.85665250000001 995.901387923,74.65125390000001 990.948087923,74.3536093 985.594487923,73.97982640000001 979.892787923,73.546299 973.917987923,73.07357200000001 967.7470879230001,72.585603 961.4464879230001,72.09241700000001 955.072387923,71.59829300000001 948.661587923,71.10583600000001 942.230587923,70.61488700000001 935.7876879229999,70.123203 929.338987923,69.628241 922.888687923,69.127283 916.438587923,68.618031 909.989387923,68.099957 903.541187923,67.57288400000002 897.094187923,67.03661300000002 890.647987923,66.49092300000001 884.2020879229999,65.93562800000001 877.755887923,65.37081900000001 871.308887923,64.79669000000001 864.860787923,64.21344 858.411387923,63.62128000000001 851.960587923,63.02045000000001 845.508787923,62.411190000000005 839.055887923,61.79369000000001 832.602287923,61.16816000000001 826.147987923,60.53477000000001 819.693087923,59.89372000000001 813.2373879229999,59.24519000000001 806.780987923,58.58934000000001 800.323587923,57.926370000000006 793.865187923,57.25648000000001 787.405687923,56.57990000000001 780.944887923,55.89684000000001 774.482887923,55.20752000000001 768.019587923,54.51216000000001 761.554987923,53.81098000000001 755.088987923,53.10421000000001 748.6217879229999,52.392070000000004 742.1533879230001,51.67477000000001 735.683687923,50.95252000000001 729.212787923,50.22555000000001 722.740587923,49.49407000000001 716.2671879229999,48.758300000000006 709.7925879229999,48.01845000000001 703.316787923,47.27476000000001 696.839687923,46.52743000000001 690.3612879230001,45.776700000000005 683.881387923,45.02277000000001 677.399887923,44.26585000000001 670.916787923,43.50617000000001 664.431787923,42.74392000000001 657.9446879230001,41.97931000000001 651.455387923,41.21258000000001 644.963887923,40.44398000000001 638.4701879229999,39.673750000000005 631.9746879229999,38.90219000000001 625.477587923,38.12957000000001 618.979287923,37.35620000000001 612.480487923,36.58240000000001 605.981687923,35.80850000000001 599.483587923,35.034850000000006 592.986587923,34.261790000000005 586.491187923,33.48965000000001 579.9977879229999,32.71874000000001 573.5065879230001,31.949380000000005 567.017587923,31.181840000000008 560.530987923,30.41642000000001 554.0466879229999,29.653400000000012 547.564687923,28.893080000000005 541.084787923,28.135790000000007 534.607187923,27.38184000000001 528.1316879230001,26.63155000000001 521.658287923,25.88524000000001 515.187187923,25.14325000000001 508.71818792299996,24.40588000000001 502.251587923,23.673480000000012 495.787287923,22.946430000000014 489.325387923,22.22514000000001 482.865987923,21.50999000000001 476.409187923,20.801370000000006 469.954787923,20.099680000000006 463.503087923,19.405300000000004 457.05398792299997,18.718610000000012 450.607487923,18.04001000000001 444.16378792300003,17.36997000000001 437.722787923,16.708960000000012 431.284687923,16.05745000000001 424.849387923,15.41591000000001 418.41718792300003,14.784830000000014 411.988187923,14.164660000000012 405.562387923,13.555880000000009 399.140087923,12.959010000000006 392.721387923,12.374670000000002 386.306387923,11.803520000000013 379.895487923,11.246210000000005 373.48868792300004,10.70338000000001 367.086387923,10.17567000000001 360.688587923,9.663720000000012 354.295687923,9.168160000000015 347.90788792300003,8.689700000000002 341.525287923,8.229110000000006 335.148287923,7.787170000000003 328.776787923,7.3646400000000085 322.410887923,6.962280000000021 316.05058792299997,6.580830000000006 309.69598792299996,6.221030000000013 303.34678792299997,5.8836800000000125 297.00328792299996,5.569850000000017 290.666187923,5.280630000000002 284.336687923,5.017130000000009 278.016187923,4.780440000000013 271.706887923,4.571640000000016 265.411187923,4.391760000000005 259.131987923,4.242210000000014 252.871887923,4.125579999999999 246.633387923,4.044610000000006 240.417987923,4.001910000000009 234.226887923,4.0 228.060887923,4.04131000000001 221.91998792299998,4.128190000000004 215.804287923,4.262800000000013 209.713187923,4.447160000000011 203.645587923,4.683250000000015 197.599787923,4.973140000000015 191.573687923,5.318910000000017 185.564387923,5.722790000000003 179.56868792299997,6.186520000000016 173.584287923,6.710540000000009 167.609987923,7.2951400000000035 161.64628792300002,7.9405 155.694587923,8.646640000000005 149.757887923,9.413410000000013 143.84028792299998,10.241110000000006 137.946387923,11.130820000000014 132.08078792299997,12.083520000000014 126.247987923,13.100000000000009 120.452187923,14.180880000000009 114.697687923,15.326920000000008 108.98968792299999,16.53999000000001 103.333777923,17.82193000000001 97.735837923,19.174150000000004 92.201927923,20.59756000000001 86.738607923,22.092990000000007 81.35483792299999,23.66199000000001 76.061737923,25.30514000000001 70.871707923,27.021480000000004 65.797727923,28.80853000000001 60.854687923,30.663370000000008 56.061807922999996,32.58182000000001 51.439847922999995,34.55644000000001 47.008307923,36.57704000000001 42.784937922999994,38.63176000000001 38.794507923,40.70506000000001 35.065427923,42.77473000000001 31.618577923,44.81652000000001 28.461487923,46.80921000000001 25.593077923000003,48.737840000000006 23.007417923000002,50.59060000000001 20.689777923,52.359080000000006 18.618027923,54.03979000000001 16.766287923,55.63358000000001 15.111767923,57.14444 13.637980923,58.57627000000001 12.328728923,59.93218000000001 11.167331922999999,61.21574000000001 10.137266922999999,62.43122000000001 9.222890923000001,63.583420000000004 8.409959922999999,64.67731 7.687349923,65.71794400000002 7.046910923,66.71006700000001 6.481026923,67.65784900000001 5.982584923,68.565009 5.546044923,69.43528800000001 5.167337923,70.273301 4.842345023,71.08400100000001 4.568710623,71.870817 4.346305523,72.63338300000001 4.174868123,73.36901800000001 4.057373643,74.07744360000001 4.0,74.76939490000001 4.014590313,75.4583704 4.124012123,76.14885000000001 4.336260723,76.84292900000001 4.635445823,77.540097 5.008262923,78.239912 5.445286922999999,78.94693900000001 5.944349923,79.66497000000001 6.507715922999999,80.39657400000002 7.137329922999999,81.14443800000001 7.837326923,81.91163800000001 8.612953923,82.70213700000001 9.470420922999999,83.52050100000001 10.419724923,84.370344 11.472895923,85.25547 12.643387923,86.18031 13.945925923,87.14993000000001 15.398727923000001,88.16858 17.023637923000003,89.23890000000002 18.843347923,90.36214000000001 20.879477923,91.53768000000001 23.150587923,92.76302000000001 25.672247923,94.03545000000001 28.463847923,95.35416000000001 31.551777923,96.71549 34.956667923,98.11152000000001 38.687007922999996,99.53065000000001 42.737017922999996,100.95958000000002 47.091887923,102.38507000000001 51.728657923,103.79046000000001 56.610977923,105.15928000000001 61.696447922999994,106.47926000000001 66.94903792299999,107.7449 72.346157923,108.95309 77.868577923,110.10086000000001 83.497437923,111.18711000000002 89.215877923,112.21282000000002 95.01062792299999,113.18023000000001 100.87184792299999,114.09059000000002 106.79068792300001,114.94532000000001 112.759487923,115.74655000000001 118.771387923,116.49699000000001 124.821487923,117.19961 130.906187923,117.85640000000001 137.022287923,118.46913 143.166987923,119.03976 149.337387923,119.5704 155.531387923,120.06331 161.74708792299998,120.52041 167.982787923,120.94315 174.236987923,121.33297000000002 180.50818792299998,121.69141 186.794987923,122.02001000000001 193.095987923,122.32041000000001 199.40978792299998,122.59396000000001 205.735387923,122.84161 212.071787923,123.06428000000001 218.418087923,123.26293000000001 224.773287923,123.43852000000001 231.136887923,123.59206 237.507987923,123.72453000000002 243.886287923,123.83666000000001 250.27118792299999,123.92907000000001 256.662287923,124.00238000000002 263.059187923,124.05724000000001 269.46158792299997,124.09429 275.869087923,124.11418 282.28138792299995,124.11755000000001 288.698387923,124.10491000000002 295.119687923,124.07673000000001 301.54518792299996,124.03347000000001 307.974687923,123.97560000000001 314.407787923,123.90360000000001 320.844487923,123.81793 327.284387923,123.71909000000001 333.72738792300004,123.60747 340.173287923,123.4834 346.621887923,123.34720000000002 353.07298792299997,123.19920000000002 359.52658792299997,123.03973 365.982487923,122.86912000000001 372.440587923,122.6877 378.90088792299997,122.49579 385.363287923,122.2937 391.827787923,122.08172000000002 398.294387923,121.86014000000002 404.763087923,121.62926000000002 411.23398792300003,121.38936000000001 417.707087923,121.14075000000001 424.182487923,120.8837 430.660187923,120.61853 437.140387923,120.34551000000002 443.622987923,120.06496000000001 450.108087923,119.77718000000002 456.595487923,119.48247 463.08498792299997,119.18115 469.576287923,118.87355000000001 476.06918792299996,118.55997 482.56328792299996,118.24071 489.058187923,117.91586000000001 495.553387923,117.58545000000001 502.04878792299996,117.24950000000001 508.543887923,116.90805 515.038687923,116.56113000000002 521.5328879230001,116.20874 528.026387923,115.85093 534.519187923,115.48770000000002 541.011087923,115.11902 547.502187923,114.74486000000002 553.992487923,114.36517 560.4820879230001,113.97991000000002 566.971087923,113.58902 573.4595879230001,113.19246000000001 579.947787923,112.79016000000001 586.435987923,112.38210000000001 592.9243879229999,111.9683 599.413087923,111.54888000000001 605.902287923,111.12394 612.392087923,110.69359 618.8825879230001,110.25793000000002 625.373687923,109.81707 631.865487923,109.37114000000001 638.357687923,108.92024 644.850387923,108.46446 651.343387923,108.00386 657.836487923,107.5385 664.3296879229999,107.06845000000001 670.822987923,106.59375 677.316187923,106.11448000000001 683.809287923,105.63069000000002 690.302287923,105.14244000000001 696.795087923,104.64974000000001 703.287787923,104.1526 709.7801879230001,103.65105000000001 716.272387923,103.14509000000001 722.7643879230001,102.63474000000001 729.255987923,102.12002000000001 735.7472879229999,101.60093 742.238287923,101.07749000000001 748.728887923,100.54968000000001 755.219087923,100.01751000000002 761.708887923,99.48098000000002 768.198287923,98.94007 774.687187923,98.39478000000001 781.1755879230001,97.84511 787.663487923,97.29104000000001 794.1508879229999,96.73255 800.6375879230001,96.1696 807.1236879229999,95.60216000000001 813.608887923,95.03022000000001 820.0931879230001,94.45373000000001 826.5764879230001,93.87269 833.058587923,93.287 839.539187923,92.69654 846.018387923,92.1012 852.495887923,91.50088000000001 858.971587923,90.89544000000001 865.445387923,90.28478000000001 871.9170879229999,89.66876 878.386487923,89.0472 884.853287923,88.41998000000001 891.3169879229999,87.78695 897.777087923,87.14799000000001 904.232887923,86.50285000000001 910.6829879229999,85.85101 917.124687923,85.19201000000001 923.554587923,84.525529 929.967987923,83.85135400000001 936.359287923,83.16850000000001 942.721387923,82.47488200000001 949.046187923,81.768584 955.324387923,81.04799000000001 961.545087923,80.312217 967.691187923,79.56206 973.737387923,78.79976200000002 979.652387923,78.03049800000001 985.377387923,77.27427700000001 990.810387923,76.55951800000001 995.849087923,75.91315150000001 1000.4230879229999,75.3595092 1003.999287923,74.95969000000001" stroke="black" stroke-width="2.0" /></svg>