<?xml version="1.0" encoding="utf-8" ?>
<svg baseProfile="full" height="136.20596" version="1.1" width="1011.997860137" xmlns="http://www.w3.org/2000/svg" xmlns:ev="http://www.w3.org/2001/xml-events" xmlns:xlink="http://www.w3.org/1999/xlink"><defs /><polygon fill="none" points="1003.997860137,112.05919999999999 1000.750360137,111.015981 996.702960137,109.65879899999999 992.298660137,108.13552299999999 987.5473601369999,106.474904 982.5179601369999,104.72384399999999 977.2851601369999,102.93162399999999 971.882160137,101.13273 966.3123601369999,99.33421999999999 960.5795601369999,97.53779999999999 954.691360137,95.74557999999999 948.659460137,93.95848 942.498760137,92.17594999999999 936.226660137,90.39688999999998 929.863060137,88.62003999999999 923.427160137,86.84724999999999 916.936060137,85.08179999999999 910.404060137,83.32593999999999 903.8418601369999,81.58079 897.256960137,79.84706999999999 890.654460137,78.12602999999999 884.038660137,76.41871999999998 877.412860137,74.72592999999999 870.779560137,73.04816999999998 864.140360137,71.38583 857.496360137,69.73936999999998 850.848460137,68.10917999999998 844.1973601369999,66.49555999999998 837.543660137,64.89880999999998 830.8875601369999,63.31910999999999 824.229260137,61.75661999999999 817.568460137,60.211409999999994 810.904960137,58.68351999999999 804.2382601369999,57.17293999999999 797.567460137,55.679639999999985 790.8919601370001,54.20344999999999 784.210760137,52.74402999999999 777.523760137,51.30112999999999 770.830860137,49.87453999999999 764.132360137,48.46413999999999 757.429060137,47.06987999999998 750.722060137,45.691829999999996 744.0122601369999,44.330349999999996 737.300760137,42.98580999999999 730.5882601369999,41.65854999999999 723.8753601369999,40.34886999999999 717.162560137,39.05702999999998 710.450160137,37.78323999999999 703.738260137,36.527789999999996 697.027060137,35.29097999999999 690.3165601369999,34.07312999999999 683.606960137,32.87455999999999 676.8983601369999,31.695579999999993 670.190860137,30.53649999999999 663.484460137,29.397629999999992 656.779360137,28.279309999999995 650.075660137,27.18186 643.373360137,26.105639999999994 636.672660137,25.050969999999978 629.973560137,24.01818999999999 623.2761601369999,23.00761999999999 616.5804601369999,22.019599999999997 609.886560137,21.05444999999999 603.194560137,20.112529999999992 596.504460137,19.194189999999992 589.8164601369999,18.29978 583.130360137,17.429619999999986 576.4464601369999,16.584059999999994 569.7645601369999,15.763429999999985 563.0849601369999,14.968069999999997 556.4074601369999,14.198269999999994 549.7321601369999,13.454339999999988 543.058960137,12.736589999999978 536.387660137,12.045299999999983 529.718160137,11.380799999999994 523.050360137,10.74329999999999 516.3838601369999,10.133199999999988 509.718560137,9.5505 503.054560137,8.995499999999993 496.39176013699995,8.468499999999992 489.73026013699996,7.969599999999986 483.07036013699997,7.499099999999984 476.412260137,7.057199999999995 469.75626013699997,6.644199999999998 463.10266013699993,6.260199999999983 456.451660137,5.905599999999993 449.80316013699996,5.580699999999993 443.15716013699995,5.285499999999985 436.51336013699995,5.020399999999981 429.871360137,4.785699999999991 423.230760137,4.581399999999988 416.591160137,4.407599999999988 409.95246013699995,4.264499999999998 403.314660137,4.15209999999999 396.67816013699996,4.070499999999981 390.04346013699995,4.019799999999989 383.411060137,4.0 376.781960137,4.011199999999988 370.157160137,4.0538999999999845 363.537260137,4.128299999999996 356.92316013699997,4.2346999999999895 350.315560137,4.373499999999993 343.714760137,4.544899999999998 337.121560137,4.749199999999988 330.53616013699997,4.986699999999985 323.959260137,5.257999999999996 317.391160137,5.563299999999984 310.832760137,5.903299999999987 304.284460137,6.278199999999984 297.74706013699995,6.688499999999991 291.221360137,7.1344999999999885 284.708160137,7.6166999999999945 278.208360137,8.135899999999992 271.72266013699993,8.692399999999992 265.25196013699997,9.286999999999992 258.797160137,9.919999999999987 252.358760137,10.591999999999999 245.937860137,11.303699999999992 239.53516013700002,12.055599999999998 233.151960137,12.848499999999987 226.789260137,13.683019999999999 220.44836013699998,14.559729999999988 214.130660137,15.47914999999999 207.837660137,16.441879999999983 201.57096013700001,17.44874999999999 195.332260137,18.500569999999982 189.123360137,19.598079999999996 182.94596013700001,20.741979999999984 176.801660137,21.93286999999998 170.69256013700002,23.171459999999982 164.62066013700002,24.45868999999999 158.588560137,25.795360000000002 152.598960137,27.18213999999999 146.654660137,28.619499999999988 140.758660137,30.107759999999985 134.914360137,31.647559999999984 129.125760137,33.23954999999998 123.396860137,34.88414999999999 117.73146013700001,36.58151999999998 112.133760137,38.33153 106.608260137,40.13398999999998 101.160990137,41.98836999999999 95.799520137,43.89323999999999 90.53214013700001,45.84622999999999 85.36766013700002,47.84415 80.316120137,49.883599999999994 75.39060013699999,51.96051999999999 70.605970137,54.06882999999999 65.97721013700001,56.20069999999999 61.517930137,58.34729999999999 57.241350137,60.50048999999999 53.160730137,62.652349999999984 49.286430137,64.79398999999998 45.624460137,66.91653 42.176230137000005,69.01196999999999 38.941540137000004,71.07360999999999 35.920850137,73.09436 33.112240137,75.06679999999999 30.510180137,76.98461999999998 28.105620137,78.84331 25.887300137,80.64034999999998 23.844120137,82.37463 21.964300137,84.04605999999998 20.235460137,85.65552 18.645100137,87.20471999999998 17.181070137,88.69599 15.831870137000001,90.13207 14.588070136999999,91.51621999999999 13.442637137,92.85139999999998 12.389157137000002,94.13977999999999 11.421415137,95.38313 10.533317137000001,96.58313999999999 9.718903137,97.74152 8.972412137,98.86004 8.288350137,99.94054999999999 7.6627741369999995,100.98494 7.094128137,101.99546999999998 6.580439137000001,102.97478 6.119332137000001,103.92558599999998 5.708319137,104.85055499999999 5.3449561370000005,105.75219799999999 5.026935137,106.63284099999998 4.752126237,107.494615 4.5188242370000005,108.33934299999999 4.327299237,109.167211 4.178573037,109.976205 4.073364377,110.76314899999998 4.013213577,111.52785479999999 4.0,112.27806609999999 4.041428977,113.02675629999999 4.162444237,113.779923 4.398459637,114.51831099999998 4.786574537,115.20422099999999 5.301897137,115.832106 5.902018137,116.411987 6.567287137,116.959909 7.289315137,117.48498199999999 8.066013136999999,117.99087899999999 8.895156137,118.48140599999999 9.777715137000001,118.95901799999999 10.715516137,119.42629799999999 11.710706136999999,119.88559199999999 12.767107137,120.337004 13.890166137,120.78013499999999 15.086230137,121.21461699999999 16.362430137,121.64020099999999 17.726690137,122.05684299999999 19.187850136999998,122.46482999999999 20.755630137,122.86496 22.440520137,123.25882999999999 24.253580137,123.64927999999999 26.206960137,124.03941999999999 28.316460137,124.42853 30.599790137,124.81456999999999 33.075940137,125.19512999999999 35.764500137,125.5675 38.684100137,125.92878999999999 41.852310137,126.27646999999999 45.289140137000004,126.60864999999998 49.016690137000005,126.92119999999998 53.052620137000005,127.20875 57.405950137000005,127.46605 62.074710137000004,127.68887999999998 67.047190137,127.87508 72.30703013700001,128.02272 77.829700137,128.12811 83.580660137,128.18914999999998 89.52157013700001,128.20596 95.619000137,128.18077 101.850510137,128.11599 108.197660137,128.01290999999998 114.642460137,127.87346999999998 121.168360137,127.7002 127.761360137,127.49615999999999 134.41116013700002,127.26418999999999 141.109260137,127.00612999999998 147.848360137,126.72382999999999 154.621960137,126.41926 161.425060137,126.09449 168.253660137,125.75157999999999 175.10516013699998,125.39209 181.977360137,125.01719999999999 188.868160137,124.62807 195.775960137,124.22590999999998 202.699260137,123.81193999999999 209.636960137,123.38736999999999 216.58826013700002,122.95322999999999 223.55226013700002,122.51037 230.528160137,122.05963999999999 237.515360137,121.601903 244.51296013700002,121.138026 251.520160137,120.668893 258.536460137,120.195343 265.56086013699996,119.717942 272.592560137,119.23717099999999 279.630760137,118.75351699999999 286.67436013699995,118.26747799999998 293.72236013699995,117.77955899999999 300.77356013699995,117.29027399999998 307.826860137,116.80012799999999 314.880860137,116.30954299999999 321.934760137,115.81890099999998 328.987660137,115.328571 336.038760137,114.83890899999999 343.087760137,114.35025699999998 350.134260137,113.862946 357.17816013699996,113.37728999999999 364.21946013699994,112.89354939999998 371.258260137,112.41193639999999 378.29446013699993,111.93266139999999 385.328160137,111.45593569999998 392.359260137,110.98197099999999 399.387760137,110.51098099999999 406.413560137,110.043179 413.436660137,109.57877899999998 420.456860137,109.11800699999999 427.474160137,108.661093 434.48866013699995,108.20826199999999 441.500260137,107.75973499999999 448.50906013699995,107.31573499999999 455.515060137,106.876476 462.51856013699995,106.442174 469.51966013699996,106.013037 476.518460137,105.58923999999999 483.515260137,105.170943 490.50996013699995,104.75831199999999 497.502660137,104.35151299999998 504.493260137,103.95071599999999 511.481860137,103.55608999999998 518.468360137,103.16781099999999 525.452360137,102.78605599999999 532.433960137,102.411036 539.4128601369999,102.04298999999999 546.388960137,101.68213999999999 553.3622601369999,101.32870999999999 560.3327601369999,100.98293 567.300460137,100.64502999999999 574.265360137,100.31521 581.227660137,99.99369999999999 588.1874601369999,99.68068999999998 595.1448601369999,99.37638999999999 602.099860137,99.08098999999999 609.052460137,98.79468999999999 616.0025601369999,98.51768999999999 622.950160137,98.25019999999999 629.894860137,97.99240999999999 636.836660137,97.74452 643.775160137,97.50679999999998 650.7100601369999,97.27953 657.641160137,97.06300999999999 664.568460137,96.85754999999999 671.491660137,96.66344 678.410860137,96.48096999999999 685.326060137,96.31043 692.2371601369999,96.15209999999999 699.1444601369999,96.00627999999999 706.047960137,95.87326999999999 712.9474601369999,95.75334999999998 719.8428601369999,95.64683 726.7339601369999,95.55400999999999 733.620560137,95.47519 740.5022601369999,95.41064999999999 747.3784601369999,95.36068999999999 754.248760137,95.32574 761.112760137,95.30625999999998 767.970060137,95.30272 774.820360137,95.31557 781.663360137,95.34527 788.4989601369999,95.39227 795.326960137,95.45701 802.147360137,95.53997999999999 808.959860137,95.64170999999999 815.764160137,95.7627 822.559860137,95.90348999999999 829.346160137,96.06455 836.122360137,96.24637999999999 842.8875601369999,96.44945999999999 849.640860137,96.67441 856.3809601369999,96.92195999999998 863.106860137,97.19283999999999 869.817260137,97.48769999999999 876.510960137,97.8072 883.186660137,98.15196999999999 889.8426601369999,98.52291999999998 896.4758601369999,98.92119 903.081660137,99.34777999999999 909.653660137,99.80345999999999 916.184360137,100.28871999999998 922.6647601369999,100.80408999999999 929.085260137,101.35152 935.435760137,101.93321999999999 941.706460137,102.55094599999998 947.8877601369999,103.20594399999999 953.9704601369999,103.899076 959.940760137,104.63064299999999 965.777760137,105.39929 971.456560137,106.20186899999999 976.951560137,107.03374099999999 982.234060137,107.888821 987.2719601370001,108.75880299999999 992.037360137,109.634103 996.508460137,110.50293099999999 1000.662260137,111.35064399999999 1003.997860137,112.05919999999999" stroke="black" stroke-width="2.0" /></svg>