<?xml version="1.0" encoding="utf-8" ?>
<svg baseProfile="full" height="157.36291" version="1.1" width="1012.00009596405" xmlns="http://www.w3.org/2000/svg" xmlns:ev="http://www.w3.org/2001/xml-events" xmlns:xlink="http://www.w3.org/1999/xlink"><defs /><polygon fill="none" points="1004.00009596405,131.5303 1000.9586959640501,130.369667 997.2100959640501,128.87950800000002 993.1620959640501,127.21799000000001 988.79819596405,125.40063 984.15549596405,123.466631 979.2916959640501,121.46220000000001 974.24069596405,119.42786000000001 969.00069596405,117.37840000000001 963.5637959640501,115.31341 957.92539596405,113.23293000000001 952.08569596405,111.1376 946.05069596405,109.02659000000001 939.83299596405,106.89889000000001 933.4519959640501,104.75406000000001 926.9340959640501,102.59421 920.30649596405,100.4265 913.59389596405,98.25762 906.81689596405,96.09238000000002 899.9899959640501,93.93355000000001 893.1230959640501,91.78377 886.22439596405,89.64549000000001 879.3010959640501,87.52071000000001 872.3586959640501,85.41087000000002 865.4012959640501,83.31709000000001 858.4320959640501,81.24043 851.45399596405,79.18180000000001 844.46899596405,77.14197000000001 837.4789959640501,75.12149000000002 830.4852959640501,73.12086000000002 823.48879596405,71.14061000000001 816.4903959640501,69.18125 809.49089596405,67.24323000000001 802.49079596405,65.32701000000002 795.49079596405,63.432980000000015 788.4913959640501,61.561560000000014 781.49289596405,59.713200000000015 774.4954959640501,57.88832000000002 767.4995959640501,56.08730000000001 760.50529596405,54.31051000000001 753.5125959640501,52.558310000000006 746.52159596405,50.83109000000002 739.53269596405,49.12929000000001 732.5461959640501,47.45342000000001 725.56259596405,45.80396000000002 718.5827959640501,44.181470000000004 711.60759596405,42.5865 704.63789596405,41.01977000000001 697.67419596405,39.48200000000001 690.7168959640501,37.97383000000001 683.76569596405,36.49580000000002 676.82029596405,35.04839000000001 669.87979596405,33.63201000000001 662.94329596405,32.24692 656.00969596405,30.89320000000002 649.0780959640501,29.57090000000001 642.1476959640501,28.28030000000001 635.2176959640501,27.02130000000001 628.2874959640501,25.79430000000002 621.35659596405,24.599300000000014 614.4243959640501,23.436600000000013 607.4907959640501,22.30600000000001 600.55529596405,21.207800000000006 593.61809596405,20.1421 586.67909596405,19.108800000000016 579.73839596405,18.10820000000001 572.7963959640501,17.14030000000001 565.8531959640501,16.2055 558.9091959640501,15.30380000000001 551.96459596405,14.435400000000016 545.01939596405,13.600500000000011 538.07389596405,12.79910000000001 531.1280959640501,12.031600000000012 524.18199596405,11.297900000000013 517.23559596405,10.598300000000009 510.28919596405007,9.932800000000015 503.34279596404997,9.301600000000022 496.39689596405003,8.70490000000001 489.45159596404994,8.142700000000005 482.50729596405,7.615200000000016 475.56459596405,7.12260000000002 468.62389596404995,6.665199999999999 461.68569596405,6.243100000000027 454.75039596404997,5.8566000000000145 447.81869596405,5.505899999999997 440.89109596404995,5.191099999999992 433.96819596405,4.912600000000012 427.05039596405,4.670500000000018 420.13849596405004,4.465100000000021 413.23289596405,4.296800000000019 406.33419596404997,4.165900000000022 399.44299596405,4.072600000000008 392.55969596405,4.017200000000017 385.68489596405,4.0 378.81899596405,4.0212999999999965 371.96289596404995,4.081600000000009 365.11739596405,4.181100000000015 358.28329596405,4.320200000000014 351.46169596404997,4.499200000000002 344.65379596405,4.718500000000006 337.86079596405,4.978300000000019 331.08379596404995,5.279200000000003 324.32399596404997,5.621900000000011 317.58219596404996,6.00660000000002 310.85919596405,6.434000000000012 304.15559596405,6.90440000000001 297.47199596405,7.41840000000002 290.80909596404996,7.9765000000000015 284.16759596405,8.579200000000014 277.54859596405004,9.227000000000004 270.95309596404996,9.920300000000012 264.38259596405,10.659500000000008 257.83829596404996,11.445000000000007 251.32189596405,12.277200000000008 244.83489596405,13.156800000000004 238.37869596405,14.084400000000002 231.95449596404998,15.060300000000012 225.56369596405,16.08510000000001 219.20719596405002,17.159300000000016 212.88619596405,18.28330000000001 206.60199596405,19.457800000000006 200.35589596404998,20.68310000000001 194.14929596404997,21.959700000000012 187.98359596404998,23.287900000000008 181.86029596404998,24.66800000000002 175.78109596404997,26.10030000000002 169.74829596405002,27.585000000000008 163.76439596404998,29.122100000000003 157.83199596404998,30.71160000000002 151.95419596405,32.35292000000001 146.13429596404998,34.045820000000006 140.37619596405,35.790000000000006 134.68429596405,37.584930000000014 129.06319596405,39.42969000000001 123.51779596405001,41.32303 118.05309596405,43.26340000000002 112.67449596405001,45.24948000000002 107.38829596405,47.27971000000001 102.20076596405,49.35198000000001 97.11787596405,51.463690000000014 92.14545596405002,53.611810000000006 87.28973596405,55.79324000000001 82.55839596405,58.00428000000001 77.95963596405001,60.240080000000006 73.50143596405,62.49495000000002 69.19093596405,64.76261000000001 65.03472596405,67.03681000000002 61.039935964049995,69.31131 57.212795964049995,71.57919000000001 53.55778596405,73.83334000000002 50.07710596405,76.06697000000001 46.77089596404999,78.27401 43.639485964049996,80.44911000000002 40.683045964049995,82.58655000000002 37.90019596405,84.68068000000001 35.28749596405,86.72660000000002 32.839505964050005,88.72055 30.54944596405,90.6601 28.410815964050002,92.54435000000001 26.41634596405,94.37319000000001 24.55790596405,96.14716000000001 22.826925964049998,97.86733000000001 21.21470596405,99.53523000000001 19.71263596405,101.15271000000001 18.31286596405,102.72187000000001 17.00927596405,104.24483000000001 15.79645596405,105.72321000000001 14.66917596405,107.15834000000001 13.62232896405,108.55149000000002 12.65091096405,109.90389000000002 11.75003396405,111.21683000000002 10.91496296405,112.49167000000001 10.14126996405,113.72980000000001 9.42586696405,114.93266000000001 8.76617096405,116.10193000000001 8.159391964049998,117.23953000000002 7.60270296405,118.34749000000001 7.09334496405,119.4278 6.62869496405,120.48238 6.20629696405,121.51308000000002 5.82387396405,122.52160900000001 5.47932796405,123.50956500000001 5.17088496405,124.47837200000001 4.89820916405,125.42868500000002 4.66164346405,126.360229 4.46137236405,127.272164 4.29730156405,128.163337 4.16901226405,129.03247600000003 4.07642708405,129.87897400000003 4.01989628405,130.7056859 4.0,131.5192123 4.01892321405,132.32773500000002 4.08136032405,133.136153 4.19322756405,133.944941 4.36591296405,134.74888800000002 4.62071136405,135.5385 4.98378256405,136.29243000000002 5.47754396405,136.982697 6.077802964049999,137.610479 6.7526929640499995,138.187253 7.48698996405,138.72744300000002 8.27297196405,139.24009 9.10883396405,139.728612 9.992496964049998,140.196591 10.92391396405,140.64686400000002 11.90439796405,141.08206 12.93523896405,141.505252 14.01914596405,141.91801 15.15987596405,142.32105 16.361435964050003,142.71532000000002 17.62800596405,143.10219 18.96388596405,143.48331000000002 20.374765964050003,143.85895000000002 21.86753596405,144.22854 23.44983596405,144.59146 25.13006596405,144.94717 26.91740596405,145.29524 28.82183596405,145.63543 30.854325964050002,145.96793000000002 33.02690596405,146.29356 35.35325596405,146.61399 37.84995596405,146.92941000000002 40.53556596405,147.23787000000002 43.428435964049996,147.53688 46.54606596405,147.82362 49.90506596405,148.09513 53.52084596405,148.34874000000002 57.40872596404999,148.58245 61.585015964049994,148.79340000000002 66.06200596405,148.97701 70.84365596405,149.12878 75.92423596405,149.24495000000002 81.28988596405,149.32324 86.92395596405001,149.36291 92.80897596405,149.36234000000002 98.92128596405,149.32009000000002 105.23229596405,149.23617000000002 111.71289596405,149.11196 118.33829596405,148.94998 125.08959596405,148.752 131.94939596404998,148.51941000000002 138.90129596404998,148.25405 145.93089596405,147.95817000000002 153.02679596405,147.63426 160.18119596404998,147.28447 167.38769596404998,146.91042000000002 174.64019596404998,146.51379 181.93329596405,146.09636 189.26219596405,145.65999000000002 196.62269596405,145.20655000000002 204.01149596405,144.73741 211.42539596404998,144.25367 218.86209596404998,143.75643000000002 226.31909596404998,143.24678 233.79499596404997,142.72582 241.28829596405,142.19465000000002 248.79829596404997,141.65416000000002 256.32409596405,141.10511100000002 263.86499596405,140.548303 271.41999596405,139.98453600000002 278.98829596405,139.414625 286.56909596405,138.83939600000002 294.16129596405,138.259587 301.76399596405,137.67571 309.37609596404997,137.08826100000002 316.99609596404997,136.49775300000002 324.62259596405,135.90471200000002 332.25389596405,135.309685 339.88839596404995,134.713229 347.52409596405,134.115925 355.15929596405,133.518359 362.79269596405,132.921095 370.42319596404997,132.32467450000001 378.04979596404996,131.7296162 385.67219596405,131.136414 393.28989596405,130.54553760000002 400.90289596405,129.95738 408.51139596405,129.372238 416.11509596405,128.79040200000003 423.71389596405004,128.21216600000002 431.30769596405,127.63783000000001 438.89619596405,127.06769400000002 446.47899596405,126.502063 454.05569596405,125.94126000000001 461.62599596405,125.38567800000001 469.18959596404994,124.83572400000001 476.74629596405,124.29179200000002 484.29599596405,123.75426800000001 491.83869596405,123.22352800000002 499.37459596405,122.69994000000001 506.90389596405,122.18386100000001 514.4267959640499,121.675627 521.94359596405,121.17555000000002 529.45449596405,120.68394 536.95939596405,120.20113 544.4583959640499,119.72743000000001 551.9513959640501,119.26317000000002 559.43809596405,118.80869000000001 566.91809596405,118.36432 574.3912959640501,117.93046000000001 581.85729596405,117.50752000000001 589.3158959640501,117.09594000000001 596.7667959640501,116.69611 604.2100959640501,116.30844000000002 611.64549596405,115.93334000000002 619.0732959640501,115.57118000000001 626.49339596405,115.22236000000001 633.90589596405,114.88728 641.31079596405,114.56634000000001 648.70799596405,114.25996 656.0973959640501,113.96852000000001 663.47879596405,113.69244 670.85209596405,113.43211000000001 678.21679596405,113.18793000000001 685.57269596405,112.96033000000001 692.91949596405,112.74976000000001 700.25689596405,112.55669000000002 707.58499596405,112.38155 714.90359596405,112.22481 722.21299596405,112.08688000000001 729.5133959640501,111.96822000000002 736.80499596405,111.86923000000002 744.08809596405,111.79034000000001 751.3625959640501,111.73195000000001 758.62829596405,111.69444000000001 765.88469596405,111.67821 773.13079596405,111.68365000000001 780.36569596405,111.71112000000001 787.5881959640501,111.76100000000001 794.7966959640501,111.83389000000001 801.9899959640501,111.93046000000001 809.1669959640501,112.05141 816.32679596405,112.19737 823.46839596405,112.36898000000001 830.59129596405,112.56685000000002 837.69489596405,112.79160000000002 844.77819596405,113.04394 851.83979596405,113.32453000000001 858.8772959640501,113.63398000000001 865.8879959640501,113.9728 872.86849596405,114.34141000000001 879.8146959640501,114.74025 886.72159596405,115.17041 893.58209596405,115.63307000000002 900.3875959640501,116.12907000000001 907.1280959640501,116.65885000000002 913.79249596405,117.22246000000001 920.36919596405,117.82034000000002 926.84609596405,118.45445000000001 933.2119959640501,119.12642000000001 939.45629596405,119.83720000000001 945.56999596405,120.58715000000001 951.5447959640501,121.37623 957.37019596405,122.20416700000001 963.0328959640501,123.06939200000001 968.51869596405,123.96902600000001 973.8141959640501,124.89912100000001 978.9065959640501,125.85441200000001 983.7805959640501,126.82786200000001 988.42159596405,127.81144 992.8192959640501,128.79673200000002 996.96489596405,129.77275600000002 1000.84809596405,130.7273576 1004.00009596405,131.5303" stroke="black" stroke-width="2.0" /></svg>