<?xml version="1.0" encoding="utf-8" ?>
<svg baseProfile="full" height="255.96627999999998" version="1.1" width="1012.009817603" xmlns="http://www.w3.org/2000/svg" xmlns:ev="http://www.w3.org/2001/xml-events" xmlns:xlink="http://www.w3.org/1999/xlink"><defs /><polygon fill="none" points="1004.009817603,171.82639999999998 999.022117603,170.42372699999999 993.080017603,168.66758299999998 986.9086176029999,166.77310199999997 980.490017603,164.74871499999998 973.811717603,162.59595799999997 966.861717603,160.31771999999998 959.630217603,157.91627999999997 952.112017603,155.39615999999998 944.308417603,152.76550999999998 936.228417603,150.03197999999998 927.8870176029999,147.20398999999998 919.3031176029999,144.29209999999998 910.4993176029999,141.30614999999997 901.500717603,138.25399999999996 892.332917603,135.14325999999997 883.019217603,131.98096999999999 873.581117603,128.77483999999998 864.040617603,125.53335999999999 854.420117603,122.26525999999998 844.741717603,118.97938999999998 835.025517603,115.68478999999998 825.2885176030001,112.38970999999998 815.5443176030001,109.10120999999998 805.803017603,105.82507999999997 796.072117603,102.56614999999998 786.358117603,99.32877999999998 776.666017603,96.11686999999998 766.999917603,92.93385999999998 757.363117603,89.78274999999998 747.7578176029999,86.66624999999998 738.186117603,83.58679999999998 728.649217603,80.54655999999997 719.148117603,77.54749999999999 709.683317603,74.59139999999998 700.2551176029999,71.67989999999998 690.863517603,68.81459999999998 681.5084176029999,65.99679999999998 672.189517603,63.22789999999998 662.906617603,60.50889999999998 653.659517603,57.841199999999986 644.448217603,55.22579999999998 635.2727176029999,52.66379999999998 626.1331176030001,50.15629999999997 617.029417603,47.70459999999997 607.961817603,45.309699999999964 598.930117603,42.9727 589.934317603,40.69449999999998 580.974317603,38.47599999999997 572.050117603,36.31819999999999 563.161917603,34.22189999999998 554.310217603,32.18809999999999 545.495617603,30.217599999999976 536.7188176029999,28.311199999999957 527.980917603,26.470099999999974 519.282717603,24.695300000000003 510.625017603,22.987799999999993 502.008617603,21.348299999999966 493.434017603,19.77789999999999 484.901817603,18.27709999999999 476.413017603,16.84669999999997 467.968717603,15.487499999999983 459.57011760299997,14.200099999999992 451.218917603,12.985199999999992 442.916717603,11.8433 434.66551760299996,10.77539999999999 426.467217603,9.782399999999996 418.323617603,8.865399999999994 410.236817603,8.024999999999977 402.208517603,7.262099999999975 394.24041760299997,6.5771000000000015 386.334217603,5.971199999999982 378.490917603,5.445299999999975 370.710617603,5.000099999999975 362.993417603,4.636299999999977 355.33851760299996,4.35439999999997 347.745317603,4.154399999999981 340.21371760299996,4.036399999999986 332.744417603,4.0 325.33871760299996,4.045099999999991 317.998217603,4.171099999999967 310.725117603,4.377799999999979 303.521617603,4.665399999999977 296.389517603,5.034599999999983 289.330017603,5.48569999999998 282.343617603,6.019199999999984 275.430117603,6.635299999999972 268.589417603,7.333999999999975 261.82101760300003,8.115099999999984 255.12491760299997,8.978099999999984 248.500417603,9.92289999999997 241.947317603,10.94889999999998 235.46491760299998,12.05589999999998 229.052917603,13.242699999999985 222.71151760299998,14.507599999999968 216.441817603,15.848199999999963 210.24561760299997,17.262299999999982 204.125417603,18.7474 198.08411760299998,20.300600000000003 192.125117603,21.919299999999993 186.251617603,23.600899999999967 180.467117603,25.342499999999973 174.774517603,27.141299999999973 169.176717603,28.994099999999975 163.67631760299997,30.897999999999968 158.27591760299998,32.8494 152.978417603,34.84469999999996 147.78691760299998,36.87989999999999 142.704417603,38.950999999999965 137.733617603,41.053799999999995 132.877217603,43.184 128.137917603,45.33829999999999 123.51791760300001,47.51359999999998 119.018617603,49.706899999999976 114.641017603,51.915199999999984 110.385317603,54.13559999999998 106.25101760300001,56.36549999999997 102.237697603,58.60209999999998 98.344437603,60.84269999999998 94.570147603,63.08499999999998 90.91335760300001,65.32629999999997 87.372277603,67.56449999999997 83.94482760300001,69.79749999999997 80.628677603,72.02328999999997 77.421437603,74.23977999999998 74.320747603,76.44476999999998 71.324257603,78.63615999999999 68.429587603,80.81196999999999 65.634287603,82.97034999999997 62.935797603000005,85.10962999999998 60.331497603,87.22831999999997 57.818867603,89.32525999999997 55.395507603,91.39961999999997 53.058867602999996,93.45082999999997 50.806247603,95.47845999999997 48.634877603,97.48223999999998 46.541937603,99.46200999999998 44.524617602999996,101.41776999999998 42.580097603,103.34956999999997 40.705667603,105.25757999999998 38.899017603000004,107.14198999999998 37.158017603000005,109.00290999999999 35.480677603000004,110.84036999999998 33.865057603,112.65436999999997 32.309277603,114.44487999999998 30.811497603,116.21186999999998 29.369887602999995,117.95532999999998 27.982667603,119.67525999999998 26.648057602999998,121.37171999999998 25.364587602999997,123.04486999999997 24.130977602999998,124.69514999999998 22.945817603,126.32317999999998 21.807577603,127.92972999999998 20.714677603,129.51563999999996 19.665537603000004,131.08184999999997 18.658567603,132.62930999999998 17.692227603,134.159 16.765037603,135.67188 15.875567603,137.16893999999996 15.022447603000002,138.65109999999999 14.204487602999999,140.11905 13.420749603,141.57308999999998 12.670453603,143.01319999999998 11.952952603,144.43917 11.267679603000001,145.8506 10.614103603,147.24692999999996 9.991712603,148.62756 9.399979603,149.99177999999998 8.838355603,151.33890999999997 8.306252603,152.66823999999997 7.803038603,153.97911 7.328410603,155.27095999999997 6.883363602999999,156.54381999999998 6.468845603,157.79827999999998 6.085463603,159.03537999999998 5.733587603,160.25645999999998 5.413440603,161.46308999999997 5.125171603,162.65701399999998 4.868910503,163.84009799999998 4.644816803,165.01430899999997 4.453122003,166.181708 4.294164203,167.34444399999998 4.168423103,168.50477299999997 4.076581203,169.66494699999998 4.019871453,170.82566699999998 4.0,171.98643099999998 4.018926801,173.14657699999998 4.078870073,174.30530199999998 4.182319303,175.46164699999997 4.332051803,176.61448299999998 4.531151703,177.76248499999997 4.783031903,178.90411299999997 5.091457603,180.03758499999998 5.460570603,181.16083899999998 5.894479603,182.27173999999997 6.393469603,183.37016999999997 6.955580603,184.45711999999997 7.578760603000001,185.53355999999997 8.260827603,186.60036999999997 8.999405603,187.65837999999997 9.791847603,188.70833 10.635155603,189.75089999999997 11.525881603,190.78668 12.460022603,191.81615 13.432920603000001,192.83970999999997 14.441177603000002,193.85759 15.485017603,194.86990999999998 16.565127603,195.87688999999997 17.682187603,196.87879999999998 18.836867603,197.87597999999997 20.029827603,198.86888999999996 21.261727602999997,199.85807999999997 22.533257602999996,200.84421999999998 23.845087602999996,201.82813 25.197937603,202.81077999999997 26.592547602999996,203.79332 28.029817602999998,204.77676999999997 29.511137602999998,205.76133 31.037977602999998,206.74699999999999 32.611897602999996,207.73377 34.234467603,208.72162999999998 35.907297602999996,209.71057 37.632047603000004,210.70054999999996 39.410377603,211.69152999999997 41.243937603000006,212.68345999999997 43.134367603,213.67627 45.083297603000005,214.66985999999997 47.092577603,215.66409 49.164557603,216.65874999999997 51.301727603,217.65364999999997 53.506627603000005,218.64856999999998 55.78188760300001,219.64330999999999 58.130227603,220.63766999999999 60.554427603,221.63146999999998 63.057367602999996,222.62455999999997 65.641977603,223.61681999999996 68.311317603,224.60816999999997 71.068747603,225.59814999999998 73.917917603,226.58602 76.86253760299999,227.57095999999999 79.90637760300001,228.55208999999996 83.053257603,229.52846999999997 86.307017603,230.49908999999997 89.671527603,231.4629 93.150677603,232.41881999999998 96.748457603,233.36566999999997 100.46913760300001,234.30202999999997 104.316917603,235.22636999999997 108.295917603,236.13707999999997 112.410017603,237.03248999999997 116.662717603,237.91089999999997 121.057417603,238.77059999999997 125.597217603,239.60987999999998 130.285017603,240.42667999999998 135.12351760299998,241.21855 140.114217603,241.98299999999998 145.25801760299998,242.71749 150.554417603,243.41951999999998 156.00191760299998,244.08670999999998 161.59771760299998,244.71642999999997 167.33831760299998,245.30436999999998 173.220117603,245.84563999999997 179.23911760299998,246.33538 185.39221760299998,246.76876999999996 191.676717603,247.14101 198.092017603,247.44756999999998 204.63851760299997,247.68546999999998 211.31701760299998,247.85255999999998 218.12851760299998,247.94680999999997 225.074117603,247.96627999999998 232.155617603,247.90916999999996 239.375517603,247.77400999999998 246.73651760299998,247.56083999999998 254.241017603,247.27049 261.889817603,246.90429999999998 269.681917603,246.46425 277.61431760299996,245.95309999999998 285.681917603,245.37318999999997 293.878517603,244.72519 302.197717603,244.00996999999998 310.63311760299996,243.22884 319.178617603,242.38351 327.828417603,241.47589 336.577317603,240.50717999999998 345.420417603,239.47826999999998 354.352917603,238.39023999999998 363.370317603,237.24437 372.468817603,236.04204999999996 381.645217603,234.7847 390.89641760300003,233.47370999999998 400.219317603,232.11060999999998 409.610817603,230.69709999999998 419.06751760299994,229.23505999999998 428.586217603,227.72642 438.164017603,226.17274999999998 447.798017603,224.57551999999998 457.48611760299997,222.93617999999998 467.22641760299996,221.25621999999998 477.017717603,219.53709999999998 486.85931760299997,217.78035999999997 496.75041760299996,215.98767999999998 506.689817603,214.16090999999997 516.676117603,212.30205999999998 526.707117603,210.41328 536.7804176029999,208.49683999999996 546.893117603,206.55500999999998 557.0414176029999,204.59019999999998 567.221217603,202.60502999999997 577.427317603,200.60231 587.654117603,198.58508999999998 597.895017603,196.55704999999998 608.142017603,194.52254 618.385317603,192.48623999999998 628.6137176029999,190.45318999999998 638.814517603,188.42864999999998 648.974017603,186.41806999999997 659.078717603,184.42681999999996 669.1160176029999,182.45995 679.074517603,180.522148 688.943617603,178.61767299999997 698.714417603,176.75050599999997 708.379217603,174.92536399999997 717.931417603,173.14697099999998 727.366017603,171.41945989999996 736.678817603,169.74638899999997 745.866917603,168.13076999999998 754.927917603,166.57526699999997 763.859017603,165.08275899999998 772.6558176030001,163.656064 781.312717603,162.29773199999997 789.823617603,161.00994999999998 798.182217603,159.79444999999998 806.382317603,158.65338999999997 814.4194176029999,157.59202999999997 822.2917176029999,156.61534999999998 829.998917603,155.72707999999997 837.5426176029999,154.92981999999998 844.9258176029999,154.22526 852.152117603,153.61434999999997 859.225817603,153.099 866.1522176029999,152.68256999999997 872.9390176029999,152.3678 879.595117603,152.15688999999998 886.130917603,152.05175999999997 892.557017603,152.05429999999998 898.884717603,152.16648999999998 905.1246176029999,152.38945999999999 911.285917603,152.72252999999998 917.3773176029999,153.16540999999998 923.406917603,153.71846 929.3829176029999,154.38270999999997 935.313217603,155.15985999999998 941.2056176030001,156.05220999999997 947.068317603,157.05911999999998 952.908817603,158.17684999999997 958.732517603,159.40177999999997 964.543317603,160.73035 970.343417603,162.15888999999999 976.133917603,163.68103799999997 981.913417603,165.28461299999998 987.674617603,166.954704 993.405117603,168.670955 999.0997176029999,170.385238 1004.009817603,171.82639999999998" stroke="black" stroke-width="2.0" /></svg>