<?xml version="1.0" encoding="utf-8" ?>
<svg baseProfile="full" height="124.06587999999999" version="1.1" width="1011.991156165" xmlns="http://www.w3.org/2000/svg" xmlns:ev="http://www.w3.org/2001/xml-events" xmlns:xlink="http://www.w3.org/1999/xlink"><defs /><polygon fill="none" points="1003.991156165,87.85054 1000.634356165,87.87547506 996.074856165,87.841672748 990.989056165,87.7198157 985.6612561649999,87.5082147 980.176856165,87.2094199 974.573056165,86.826653 968.883956165,86.365674 963.136856165,85.832624 957.352956165,85.23344 951.546356165,84.574378 945.723856165,83.86143399999999 939.884956165,83.099325 934.027456165,82.291676 928.150556165,81.442274 922.254756165,80.555216 916.342156165,79.634942 910.4158561649999,78.68529 904.479356165,77.70877 898.535156165,76.70774999999999 892.585356165,75.68454 886.631056165,74.64135999999999 880.672756165,73.58031 874.7102561649999,72.50295 868.743556165,71.41049 862.772356165,70.30413 856.796756165,69.18509 850.816656165,68.05463 844.8319561650001,66.91399 838.842956165,65.76433999999999 832.849656165,64.60659999999999 826.852356165,63.441689999999994 820.8513561650001,62.27055 814.847156165,61.094139999999996 808.840056165,59.913439999999994 802.830856165,58.72944 796.819956165,57.54308999999999 790.808156165,56.355169999999994 784.796056165,55.16646 778.783956165,53.977729999999994 772.772456165,52.78974999999999 766.761856165,51.603249999999996 760.752556165,50.41896 754.744756165,49.237579999999994 748.7386561650001,48.05968999999999 742.734456165,46.885889999999996 736.7322561650001,45.71672999999999 730.7319561649999,44.552769999999995 724.733756165,43.39453999999999 718.737356165,42.24257 712.7427561650001,41.097359999999995 706.7496561649999,39.95936 700.757956165,38.82899 694.7673561649999,37.70664999999999 688.777756165,36.592729999999996 682.788856165,35.487629999999996 676.8002561650001,34.391749999999995 670.811856165,33.30546999999999 664.823156165,32.22916999999999 658.834056165,31.163209999999992 652.844456165,30.107969999999995 646.854256165,29.063829999999996 640.863756165,28.031229999999994 634.8733561649999,27.010599999999997 628.883456165,26.002409999999998 622.894656165,25.007149999999996 616.9079561650001,24.02539 610.923956165,23.058279999999996 604.9433561650001,22.10718 598.966456165,21.17340999999999 592.993756165,20.25824 587.025356165,19.362939999999995 581.061256165,18.488709999999998 575.101256165,17.63673999999999 569.145056165,16.808149999999998 563.1925561649999,16.003849999999986 557.243156165,15.224620000000002 551.296356165,14.471229999999991 545.3515561649999,13.74445 539.4079561650001,13.045019999999994 533.464456165,12.373689999999996 527.520156165,11.73120999999999 521.573756165,11.118229999999997 515.6241561649999,10.53452999999999 509.6704561650001,9.979489999999998 503.711956165,9.452519999999993 497.747856165,8.953069999999997 491.778056165,8.480609999999984 485.802156165,8.034629999999993 479.820156165,7.614630000000005 473.832356165,7.220150000000004 467.838756165,6.850669999999994 461.839856165,6.505649999999989 455.835856165,6.1845599999999905 449.827456165,5.886859999999999 443.814956165,5.61202999999999 437.79895616500005,5.359499999999997 431.78025616499997,5.12872999999999 425.759556165,4.919240000000002 419.737456165,4.730969999999985 413.714656165,4.5640300000000025 407.691556165,4.418520000000001 401.668656165,4.294509999999988 395.646156165,4.192089999999993 389.624356165,4.111349999999987 383.60315616500003,4.052339999999987 377.58275616500003,4.0151699999999835 371.562956165,4.0 365.543956165,4.007019999999997 359.525856165,4.036419999999993 353.508856165,4.088379999999987 347.49305616500004,4.163089999999997 341.47905616500003,4.260709999999989 335.467056165,4.381429999999995 329.45755616499997,4.5255499999999955 323.45095616500004,4.693550000000002 317.447756165,4.88588 311.448156165,5.103009999999998 305.45235616499997,5.345410000000001 299.460656165,5.613529999999997 293.472956165,5.907859999999985 287.489356165,6.228849999999994 281.51005616500004,6.577010000000001 275.535156165,6.952860000000001 269.56485616500004,7.356880000000004 263.599356165,7.789580000000001 257.63915616500003,8.25143 251.684556165,8.742909999999995 245.73615616499998,9.264529999999993 239.794356165,9.816959999999995 233.85975616500002,10.400929999999988 227.932856165,11.01715999999999 222.013956165,11.666359999999997 216.10365616500002,12.349240000000009 210.20205616500002,13.066509999999994 204.309556165,13.818950000000001 198.426756165,14.607379999999992 192.55395616500002,15.432649999999995 186.691756165,16.295569999999998 180.840856165,17.196949999999987 175.001856165,18.137560000000008 169.17565616500002,19.118210000000005 163.362956165,20.139899999999997 157.564856165,21.20367999999999 151.782156165,22.310609999999997 146.015756165,23.461699999999993 140.266456165,24.657959999999996 134.535156165,25.90054 128.823256165,27.190949999999994 123.132856165,28.53067 117.466256165,29.920969999999997 111.826556165,31.36292999999999 106.217156165,32.85744999999999 100.641876165,34.40629 95.104416165,36.0119 89.60748616500001,37.67682 84.15301616500001,39.40370999999999 78.74232616500001,41.19548999999999 73.378756165,43.055809999999994 68.070136165,44.98742 62.828296165000005,46.99101999999999 57.668396165,49.064989999999995 52.607926164999995,51.2074 47.661236165,53.41957 42.835406164999995,55.70489 38.131476165,58.068639999999995 33.561066165,60.514979999999994 29.196776165000003,63.01931 25.154476165,65.51648999999999 21.530536165,67.93020999999999 18.368136165,70.21067 15.653926165,72.33608 13.336154165,74.30511 11.355420164999998,76.1287 9.698292165,77.80427999999999 8.362357164999999,79.308809 7.307661165,80.639298 6.476545165,81.81443999999999 5.815967165,82.86002099999999 5.287079165,83.802061 4.862228165,84.666122 4.523922065,85.47157399999999 4.2681798650000005,86.224599 4.092218165,86.9239367 4.0,87.5823163 4.006082665,88.23030229999999 4.160273265,88.873082 4.481464565,89.506745 4.929970965,90.13072799999999 5.487302165,90.757464 6.152499165,91.402677 6.941433164999999,92.076859 7.8770081649999995,92.793398 8.998188164999998,93.567404 10.359828165,94.41742199999999 12.042003164999999,95.357811 14.132576165,96.391971 16.682546164999998,97.50083099999999 19.656906165,98.64674 23.026416164999997,99.81461999999999 26.831056165,100.99489 31.094366165,102.17057 35.795406165,103.32173999999999 40.863366165,104.42613999999999 46.190026165,105.45767 51.662606165,106.40276 57.208236165,107.26525 62.811196165,108.05619999999999 68.475056165,108.78208 74.20024616500001,109.44865999999999 79.982736165,110.06162 85.81377616500001,110.62612999999999 91.68286616500001,111.14508 97.58097616500001,111.62113 103.501116165,112.05744999999999 109.43855616500001,112.4576 115.39085616500002,112.82525 121.35735616500001,113.16286 127.337756165,113.47234999999999 133.331356165,113.75568 139.337256165,114.01482 145.35455616500002,114.25178 151.382056165,114.46839 157.418456165,114.66592 163.462756165,114.84549 169.514156165,115.00825999999999 175.571856165,115.15541999999999 181.635156165,115.28815999999999 187.703556165,115.40765999999999 193.776656165,115.51481999999999 199.854256165,115.61028999999999 205.93585616500002,115.69474 212.021256165,115.76884 218.110056165,115.83326 224.202056165,115.88866999999999 230.296856165,115.93575 236.394256165,115.97497999999999 242.493956165,116.00672 248.595756165,116.03132 254.69945616500002,116.04914 260.80495616499996,116.06053999999999 266.912056165,116.06587999999999 273.02075616499997,116.06551999999999 279.130856165,116.05978999999999 285.24245616499996,116.04890999999999 291.355456165,116.03309999999999 297.469756165,116.01257999999999 303.58515616500006,115.98755 309.70165616500003,115.95823999999999 315.818956165,115.92483999999999 321.936956165,115.88757999999999 328.05535616500003,115.84663 334.173956165,115.80202 340.292656165,115.75376 346.411256165,115.70186 352.529856165,115.64632 358.648356165,115.58715 364.76665616500003,115.52436999999999 370.885056165,115.45796999999999 377.00345616500005,115.38795999999999 383.122256165,115.31441 389.241256165,115.23741 395.360856165,115.15702999999999 401.48085616500003,115.07336 407.60135616499997,114.98648999999999 413.722356165,114.8965 419.84385616500003,114.80348 425.965556165,114.70751 432.087456165,114.60866999999999 438.209456165,114.50694999999999 444.331456165,114.40235999999999 450.453356165,114.29490999999999 456.575156165,114.18459999999999 462.696856165,114.07142999999999 468.818456165,113.9554 474.939956165,113.83652 481.061456165,113.71476999999999 487.183156165,113.5902 493.30505616500005,113.46285 499.427156165,113.33277 505.54965616500004,113.20002 511.67235616500005,113.06464 517.795356165,112.92667999999999 523.918556165,112.78622 530.0419561650001,112.64328 536.165356165,112.49794 542.288656165,112.35018 548.411756165,112.19998 554.534656165,112.04732 560.657256165,111.89215999999999 566.7795561649999,111.73447999999999 572.901556165,111.57424999999999 579.023356165,111.41143 585.144956165,111.24601 591.266556165,111.07794999999999 597.388256165,110.90727 603.5099561650001,110.734 609.631956165,110.55818 615.7539561650001,110.37980999999999 621.876256165,110.19895 627.998556165,110.01559999999999 634.1208561650001,109.82982 640.242956165,109.64161999999999 646.3648561650001,109.45098999999999 652.4863561650001,109.25788 658.607456165,109.06222 664.727956165,108.86394 670.8478561649999,108.66298 676.9673561650001,108.45926999999999 683.086456165,108.25273999999999 689.205156165,108.04332 695.323656165,107.83095999999999 701.4420561649999,107.61564 707.560456165,107.39735999999999 713.6788561650001,107.17609999999999 719.797256165,106.95187999999999 725.915556165,106.72469 732.0335561649999,106.49452 738.1511561650001,106.2614 744.2681561649999,106.02526999999999 750.384356165,105.786 756.499456165,105.54346 762.6135561650001,105.29749 768.7265561649999,105.04794 774.838556165,104.79466 780.949756165,104.53748999999999 787.060156165,104.27627 793.170056165,104.01088999999999 799.279556165,103.74126 805.388656165,103.46728999999999 811.4972561650001,103.18889999999999 817.6050561650001,102.90602 823.7119561650001,102.61858 829.817256165,102.3265 835.920556165,102.02949 842.0213561649999,101.72712999999999 848.1195561650001,101.419 854.2147561649999,101.10463999999999 860.3070561650001,100.78362999999999 866.396456165,100.45550999999999 872.483056165,100.11984 878.566856165,99.77615 884.647856165,99.42399 890.725656165,99.06293 896.799656165,98.69254 902.869356165,98.31237999999999 908.933556165,97.92132 914.9898561650001,97.51758 921.0348561650001,97.099491 927.063856165,96.665514 933.071156165,96.214147 939.049356165,95.741125 944.990856165,95.23959099999999 950.887356165,94.70300999999999 956.730456165,94.125382 962.513856165,93.501894 968.242056165,92.828406 973.935656165,92.09885 979.628656165,91.30652099999999 985.3202561649999,90.468638 990.884356165,89.632365 996.091956165,88.865028 1000.6558561649999,88.24778859999999 1003.991156165,87.85054" stroke="black" stroke-width="2.0" /></svg>