<?xml version="1.0" encoding="utf-8" ?>
<svg baseProfile="full" height="142.068" version="1.1" width="1011.997417447" xmlns="http://www.w3.org/2000/svg" xmlns:ev="http://www.w3.org/2001/xml-events" xmlns:xlink="http://www.w3.org/1999/xlink"><defs /><polygon fill="none" points="1003.997417447,89.41844 1000.710917447,88.7664546 996.4573174469999,87.854325 991.7032174469999,86.76899900000001 986.5104174469999,85.544103 980.9917174469999,84.22651400000001 975.2743174469999,82.867041 969.435617447,81.50579900000001 963.5045174469999,80.154718 957.500117447,78.81716 951.433917447,77.49436 945.310817447,76.18454 939.1349174469999,74.88393 932.912817447,73.58883 926.653117447,72.29576 920.366517447,71.00281000000001 914.062717447,69.71081000000001 907.749217447,68.42051000000001 901.431517447,67.13218 895.1125174470001,65.84563 888.793217447,64.56058 882.473717447,63.27717 876.154217447,61.99559000000001 869.834717447,60.716010000000004 863.515517447,59.43858 857.196517447,58.16351 850.8780174469999,56.89097 844.5601174469999,55.6212 838.2431174469999,54.35443000000001 831.927117447,53.090900000000005 825.6126174469999,51.830870000000004 819.299917447,50.574600000000004 812.989417447,49.32255 806.681317447,48.07522 800.375917447,46.833090000000006 794.0731174470001,45.59664 787.7731174469999,44.36630000000001 781.475717447,43.14253 775.180917447,41.92572 768.888517447,40.716330000000006 762.598417447,39.51478 756.3105174469999,38.32151 750.0249174469999,37.13698 743.741517447,35.961650000000006 737.460617447,34.795970000000004 731.182117447,33.64056 724.906417447,32.49627 718.6339174469999,31.364060000000002 712.365417447,30.244880000000002 706.1018174469999,29.139740000000003 699.844517447,28.049650000000007 693.594717447,26.975659999999998 687.3540174469999,25.919020000000003 681.1239174469999,24.881540000000015 674.904917447,23.865080000000006 668.6974174469999,22.871340000000004 662.501017447,21.90194000000001 656.314817447,20.958380000000005 650.1375174469999,20.042060000000006 643.967217447,19.154290000000003 637.8019174469999,18.295569999999998 631.639617447,17.465829999999997 625.478517447,16.665040000000005 619.3166174469999,15.893230000000017 613.1520174469999,15.150419999999997 606.982917447,14.436710000000005 600.8074174469999,13.752230000000012 594.623617447,13.096910000000008 588.430117447,12.469850000000008 582.225617447,11.869910000000004 576.009517447,11.296040000000005 569.781817447,10.747240000000005 563.542517447,10.222530000000006 557.292717447,9.720969999999994 551.033617447,9.24163 544.766917447,8.783900000000003 538.4943174470001,8.347679999999997 532.217117447,7.932900000000004 525.936717447,7.539460000000005 519.654017447,7.16722 513.369817447,6.816029999999998 507.084517447,6.485710000000012 500.79861744699997,6.1760599999999926 494.512117447,5.8870000000000005 488.22511744699995,5.61854000000001 481.93751744699995,5.3707100000000025 475.649317447,5.143510000000006 469.36051744699995,4.936959999999999 463.07081744699997,4.751069999999999 456.78011744699995,4.585880000000003 450.488317447,4.441380000000009 444.195017447,4.3174900000000065 437.90031744699996,4.214079999999996 431.604017447,4.13103000000001 425.30631744699997,4.068219999999997 419.00731744699993,4.025530000000003 412.707417447,4.002830000000003 406.40701744699993,4.0 400.106517447,4.016970000000015 393.80631744699997,4.053849999999997 387.50701744699995,4.110770000000002 381.20901744699995,4.187860000000001 374.912617447,4.285240000000002 368.618017447,4.403020000000012 362.325517447,4.541330000000002 356.035317447,4.700300000000013 349.747517447,4.880110000000002 343.462317447,5.081020000000009 337.18001744699995,5.303290000000004 330.900617447,5.547170000000008 324.624617447,5.812910000000002 318.352017447,6.100750000000005 312.083317447,6.410940000000011 305.818717447,6.7437400000000025 299.558617447,7.099540000000005 293.30321744699995,7.478710000000007 287.052817447,7.881630000000001 280.807617447,8.308660000000003 274.56791744699996,8.760180000000005 268.333617447,9.23657 262.105117447,9.738230000000001 255.88251744699997,10.265590000000003 249.666117447,10.819100000000006 243.456317447,11.399199999999993 237.253617447,12.006299999999996 231.05851744699999,12.640810000000002 224.871817447,13.303110000000004 218.694017447,13.993769999999998 212.526317447,14.713580000000007 206.369717447,15.46333 200.225317447,16.243770000000012 194.094517447,17.055600000000013 187.978617447,17.899479999999997 181.879117447,18.77618000000001 175.797717447,19.686980000000005 169.736117447,20.633269999999996 163.695817447,21.616420000000005 157.67841744700002,22.637740000000008 151.685117447,23.698510000000013 145.71751744699998,24.800100000000015 139.777217447,25.94429000000001 133.866417447,27.132890000000003 127.98751744700002,28.367510000000003 122.14311744700001,29.649620000000006 116.33621744700001,30.980540000000005 110.57011744700002,32.36204 104.84911744700001,33.79636000000001 99.177687447,35.28544 93.560667447,36.830850000000005 88.002947447,38.43383000000001 82.510607447,40.096050000000005 77.092287447,41.819430000000004 71.758457447,43.60466 66.52078744699999,45.451040000000006 61.39185744699999,47.35673 56.38836744699999,49.319950000000006 51.532647446999995,51.336110000000005 46.84918744699999,53.39667 42.361327447,55.490140000000004 38.096367447,57.60342 34.095597447,59.715540000000004 30.398457447000002,61.797920000000005 27.027067447,63.82306 23.985407447,65.77206000000001 21.271737447,67.63339 18.872587447,69.3976 16.761367446999998,71.06097 14.904217446999999,72.6257 13.270129447,74.09829 11.839165447000001,75.48575000000001 10.591940446999999,76.79322 9.507946447,78.02574 8.566830447000001,79.18889 7.749581447000001,80.28848 7.039280447,81.33033 6.423246447,82.319857 5.892035447,83.262055 5.436874447,84.161517 5.050612447,85.02245400000001 4.728722447,85.84900300000001 4.466980447,86.64515 4.262961647,87.413278 4.116029647,88.153459 4.025732827,88.8652708 4.0,89.5543894 4.056063477,90.2403759 4.232427447,90.927001 4.558720947,91.595691 5.001549447,92.23925 5.534621447,92.86535 6.146726447,93.488476 6.837288447000001,94.114739 7.609793447,94.748416 8.469757447,95.39525900000001 9.427890447,96.06182 10.496480447,96.756561 11.692694447000001,97.486013 13.039304447000001,98.255402 14.563287447,99.071206 16.296137447,99.94198 18.276877447,100.8775 20.552737447,101.88354000000001 23.167917447,102.9608 26.149207447000002,104.10242000000001 29.495417447,105.29523 33.195627447,106.53005 37.256557447,107.79914000000001 41.672887447,109.0879 46.414167447,110.37839000000001 51.432787446999995,111.65406 56.680797446999996,112.90177 62.11049744699999,114.10875 67.67462744699999,115.26599 73.33558744700001,116.36984000000001 79.072807447,117.42161 84.87839744700001,118.42322 90.74578744700001,119.37645 96.667957447,120.28349 102.637587447,121.14692000000001 108.647317447,121.96921 114.69061744700001,122.7515 120.76211744700001,123.49492000000001 126.857417447,124.2009 132.973317447,124.87117 139.108017447,125.50764000000001 145.26081744700002,126.11189000000002 151.43091744699998,126.68521000000001 157.617517447,127.22889 163.819517447,127.74425000000001 170.035817447,128.23262 176.26481744699998,128.69531 182.505117447,129.13325 188.75561744700002,129.54716000000002 195.015217447,129.93781 201.283417447,130.306 207.559617447,130.65256 213.843617447,130.97833 220.135517447,131.28413 226.43521744699999,131.57072 232.742817447,131.8388 239.05781744700002,132.08912 245.379817447,132.32241 251.708217447,132.53939 258.042117447,132.7408 264.38071744699994,132.92714 270.723117447,133.09863 277.068517447,133.25547 283.416317447,133.39789000000002 289.76591744699994,133.52611000000002 296.11701744699997,133.64037000000002 302.469217447,133.7409 308.82221744699996,133.82789 315.17611744699997,133.9014 321.530617447,133.96147 327.885617447,134.00813 334.24111744699997,134.04140999999998 340.59691744699995,134.06135 346.95311744699995,134.068 353.30951744699996,134.06139000000002 359.666317447,134.04160000000002 366.023417447,134.00871 372.38091744699994,133.96283 378.739017447,133.90404 385.09781744699995,133.83244000000002 391.45761744699996,133.74812 397.818517447,133.65116 404.180917447,133.54167 410.54521744699997,133.41984000000002 416.91141744699996,133.28592 423.27981744699997,133.14016 429.650217447,132.98283 436.022517447,132.81417 442.396417447,132.63446 448.771517447,132.44397 455.14741744699995,132.24294 461.52351744699996,132.03136 467.899017447,131.80909 474.27361744699994,131.57601 480.64671744699996,131.33199000000002 487.017717447,131.07691 493.386217447,130.81065 499.75181744699995,130.53308 506.11391744699995,130.24408 512.472217447,129.94334 518.8264174469999,129.63046 525.176317447,129.30506 531.521917447,128.96671 537.8632174469999,128.61502000000002 544.200317447,128.24956 550.533617447,127.86991 556.863517447,127.47566 563.1904174470001,127.06648000000001 569.514617447,126.64217 575.8364174469999,126.20251999999999 582.1556174469999,125.74733 588.472317447,125.27642 594.786117447,124.78960000000001 601.096617447,124.28673 607.403217447,123.76765 613.705317447,123.23212000000001 620.002317447,122.67979 626.294117447,122.11030000000001 632.580717447,121.52328 638.8623174469999,120.91831 645.139317447,120.29498000000001 651.4126174469999,119.65282 657.683017447,118.9914 663.951917447,118.3109 670.2205174469999,117.61187000000001 676.4905174469999,116.89481 682.763517447,116.16021 689.041417447,115.40854 695.326217447,114.64021 701.619817447,113.85561000000001 707.924817447,113.05528000000001 714.243017447,112.24071 720.5759174469999,111.41379 726.923617447,110.57656 733.285417447,109.73124 739.6593174469999,108.88022000000001 746.042517447,108.02607 752.430817447,107.17153 758.819417447,106.319 765.2038174469999,105.47037 771.580817447,104.62731000000001 777.947917447,103.79136 784.3038174469999,102.96389 790.648117447,102.14614 796.981617447,101.33919 803.305617447,100.54397 809.6217174469999,99.76127000000001 815.931017447,98.991917 822.234217447,98.236779 828.531817447,97.49676000000001 834.823917447,96.772801 841.110317447,96.065878 847.390317447,95.377058 853.663517447,94.70752900000001 859.929117447,94.058462 866.186917447,93.431003 872.436317447,92.826274 878.677017447,92.245371 884.9088174469999,91.689448 891.1312174469999,91.160098 897.3428174469999,90.65909400000001 903.541917447,90.1882136 909.725917447,89.7492189 915.8916174469999,89.34383035 922.035417447,88.9741326 928.1534174469999,88.6434699 934.241617447,88.355266 940.296617447,88.112725 946.314917447,87.918822 952.2929174469999,87.776525 958.223517447,87.689503 964.093417447,87.66119900000001 969.8846174469999,87.694229 975.574617447,87.790144 981.1280174469999,87.949574 986.486117447,88.170229 991.582517447,88.44566590000001 996.341617447,88.7652236 1000.658717447,89.1115645 1003.997417447,89.41844" stroke="black" stroke-width="2.0" /></svg>