<?xml version="1.0" encoding="utf-8" ?>
<svg baseProfile="full" height="102.05728" version="1.1" width="1012.001118291" xmlns="http://www.w3.org/2000/svg" xmlns:ev="http://www.w3.org/2001/xml-events" xmlns:xlink="http://www.w3.org/1999/xlink"><defs /><polygon fill="none" points="1004.001118291,62.16019 1000.688118291,61.7948976 995.803618291,61.2272294 990.399218291,60.546937 985.0126182910001,59.802754 979.550218291,58.987846 973.931318291,58.099393 968.177718291,57.149377 962.369318291,56.155302 956.565418291,55.13168 950.788718291,54.087523 945.028218291,53.025439 939.265318291,51.94524 933.4877182910001,50.8476 927.690018291,49.73447 921.873818291,48.60922 916.046118291,47.47615 910.2141182910001,46.33955 904.383818291,45.20352 898.559818291,44.071889999999996 892.7454182910001,42.94821 886.942718291,41.83605 881.1525182910001,40.739090000000004 875.374818291,39.66081 869.608218291,38.60441 863.850618291,37.5729 858.0988182909999,36.569 852.349518291,35.59371 846.599518291,34.646519999999995 840.8464182910001,33.727000000000004 835.087918291,32.83479 829.322118291,31.96967 823.547418291,31.13148 817.762518291,30.319719999999997 811.966918291,29.53275 806.160118291,28.768730000000005 800.342118291,28.025890000000004 794.513518291,27.30249 788.675018291,26.59682 782.8279182910001,25.907200000000003 776.9738182909999,25.232349999999997 771.114018291,24.5719 765.249818291,23.925510000000003 759.3822182910001,23.292830000000002 753.511918291,22.67349 747.639618291,22.067060000000005 741.765718291,21.47312 735.8903182910001,20.89123 730.0134182910001,20.32119 724.135118291,19.762860000000003 718.255218291,19.21611 712.373818291,18.68081 706.490818291,18.156840000000003 700.6060182909999,17.64405 694.719418291,17.142319999999998 688.8309182910001,16.651490000000003 682.940418291,16.17131 677.047818291,15.701520000000002 671.153218291,15.241869999999999 665.256518291,14.792099999999998 659.358118291,14.351970000000001 653.458018291,13.921239999999997 647.5564182910001,13.499659999999999 641.653718291,13.087049999999998 635.750118291,12.68338 629.845918291,12.288719999999998 623.941218291,11.903089999999999 618.036218291,11.526519999999998 612.130818291,11.15905 606.225218291,10.800710000000002 600.319218291,10.451499999999996 594.4129182910001,10.111460000000001 588.5061182910001,9.780559999999994 582.5987182910001,9.458759999999998 576.690618291,9.146030000000003 570.781818291,8.842319999999994 564.8724182909999,8.547609999999999 558.9623182910001,8.261859999999999 553.0515182910001,7.985040000000005 547.1403182910001,7.717119999999994 541.2287182910001,7.458090000000006 535.316718291,7.207990000000002 529.404618291,6.96687 523.4923182910001,6.734790000000004 517.579918291,6.511779999999995 511.66741829100005,6.297910000000002 505.754918291,6.093209999999999 499.84231829099997,5.897730000000003 493.929618291,5.711509999999997 488.016718291,5.5345999999999975 482.103618291,5.367020000000004 476.190318291,5.208800000000004 470.27681829100004,5.05997 464.363218291,4.920570000000005 458.449518291,4.79063 452.535718291,4.670180000000002 446.622118291,4.559249999999999 440.70861829100005,4.457899999999995 434.795518291,4.366250000000001 428.882818291,4.284460000000003 422.970618291,4.212669999999996 417.058918291,4.151020000000003 411.14781829099996,4.09966 405.237318291,4.05874 399.327418291,4.028390000000002 393.41811829100004,4.008760000000002 387.509218291,4.0 381.600818291,4.002219999999994 375.692918291,4.015550000000005 369.785518291,4.040140000000001 363.878618291,4.07611 357.972418291,4.123579999999997 352.066918291,4.182699999999997 346.162418291,4.2535799999999995 340.258818291,4.336410000000001 334.356418291,4.431449999999998 328.455318291,4.538969999999999 322.55561829100003,4.659230000000001 316.657418291,4.792490000000001 310.76071829100005,4.9390300000000025 304.865618291,5.099090000000004 298.972118291,5.272960000000005 293.08011829099996,5.4609199999999944 287.18981829100005,5.663289999999996 281.301218291,5.880369999999999 275.41441829100006,6.112500000000004 269.529518291,6.35998 263.646818291,6.62312 257.766518291,6.902229999999996 251.888818291,7.197629999999997 246.01411829100002,7.509820000000005 240.14271829100002,7.839380000000006 234.274818291,8.186900000000001 228.41061829100002,8.552930000000003 222.550318291,8.938070000000003 216.694218291,9.342880000000001 210.84231829100003,9.767949999999999 204.994818291,10.21396 199.152018291,10.681669999999997 193.31411829100003,11.171839999999996 187.481518291,11.685220000000001 181.654718291,12.222529999999999 175.83411829100004,12.784489999999998 170.02031829100002,13.37189 164.213918291,13.985840000000003 158.41571829100002,14.627579999999995 152.626518291,15.29835 146.846918291,15.999319999999997 141.077618291,16.731699999999996 135.319518291,17.49671 129.573518291,18.296030000000002 123.84081829099999,19.131570000000004 118.12291829099999,20.00519 112.421218291,20.918670000000006 106.737518291,21.87372 101.073588291,22.872439999999997 95.432318291,23.918 89.816778291,25.013580000000005 84.23045829099999,26.16216 78.677118291,27.36645 73.161328291,28.62981 67.689298291,29.957390000000004 62.267918291,31.354139999999997 56.904498290999996,32.82441 51.607078291,34.372429999999994 46.389398291,36.005700000000004 41.273208290999996,37.73012 36.285578291,39.54677 31.460948291,41.45412 26.863558291000004,43.44778 22.574998291000004,45.504059999999996 18.666228291,47.58576 15.248158291,49.63431 12.428207291,51.55051 10.174809290999999,53.277875 8.419997291,54.81368 7.117338290999999,56.151268 6.165872291,57.307074 5.463766291,58.315871 4.939016091,59.213405 4.544416591,60.031833 4.260159391,60.784091000000004 4.077245291,61.4671274 4.0,62.10371699 4.061669221,62.731487 4.337572891,63.341061 4.796913891,63.930486 5.400056291,64.515345 6.150495291,65.12640300000001 7.082865291,65.785236 8.253574291,66.521267 9.770159290999999,67.380514 11.846999291,68.424781 14.986158290999999,69.76636 19.131408291,71.23417 23.451388291,72.55006 27.799808291,73.74234 32.396548291,74.88021 37.404048290999995,75.99802 42.827028291,77.0899 48.481638291,78.11694 54.177198290999996,79.05463 59.819258291,79.90532 65.419708291,80.68693 71.02570829099999,81.41338 76.670528291,82.09391 82.371328291,82.73494 88.127968291,83.34079 93.92563829099998,83.91338 99.74825829099998,84.45383 105.58361829100001,84.96394000000001 111.42391829099999,85.44618 117.26591829099999,85.90351 123.110718291,86.3387 128.96091829099998,86.75337999999999 134.81801829100002,87.14896 140.683318291,87.52677 146.556718291,87.88809 152.437718291,88.23415 158.324718291,88.56594 164.21621829100002,88.88392 170.11101829100002,89.18853 176.00821829100002,89.4802 181.90711829100002,89.75943000000001 187.807518291,90.02672 193.70951829100002,90.28256999999999 199.613218291,90.52745 205.519018291,90.76175 211.426918291,90.98587 217.337218291,91.2002 223.24951829100002,91.40512 229.163818291,91.60101 235.079818291,91.78826000000001 240.99691829100001,91.96712 246.915018291,92.13766 252.83361829100002,92.29996 258.75261829100003,92.45409 264.672018291,92.60012 270.59161829100003,92.73812 276.511618291,92.86818 282.432018291,92.99038 288.353218291,93.10489 294.275318291,93.2119 300.198418291,93.31164 306.122618291,93.4043 312.04791829100003,93.49009000000001 317.974218291,93.56922 323.901618291,93.64189 329.82981829100004,93.70831 335.758718291,93.76862 341.68831829100003,93.82292 347.61831829100004,93.8713 353.548718291,93.91386 359.47951829100003,93.95071 365.410618291,93.98193 371.34201829100004,94.00764 377.27391829100003,94.02791 383.206218291,94.04287 389.139018291,94.05262 395.072418291,94.05728 401.00641829100005,94.05696 406.940918291,94.05178 412.876018291,94.04185 418.811518291,94.0273 424.74741829100003,94.00823 430.68351829100004,93.98477 436.619718291,93.95697 442.555918291,93.92481000000001 448.49191829100005,93.88826 454.42781829100005,93.84732 460.363518291,93.80195 466.298918291,93.75214 472.234118291,93.69785999999999 478.16931829099997,93.63909 484.104418291,93.57582 490.039618291,93.50806 495.975018291,93.43585999999999 501.910718291,93.35927000000001 507.84661829099997,93.27835999999999 513.782718291,93.19315 519.719018291,93.10372 525.655518291,93.0101 531.5920182909999,92.91236 537.5284182910001,92.81054 543.4645182910001,92.70459 549.400218291,92.59443999999999 555.3354182910001,92.48001 561.270118291,92.36121 567.204218291,92.23796 573.137818291,92.11018 579.0710182910001,91.97779 585.0039182910001,91.8407 590.936518291,91.69884 596.869018291,91.5522 602.801518291,91.40076 608.734118291,91.24453 614.666618291,91.08351 620.599118291,90.9177 626.531518291,90.7471 632.463518291,90.57171 638.395118291,90.39153999999999 644.325918291,90.2065 650.255718291,90.01638 656.184418291,89.82095 662.1118182910001,89.61999 668.0380182910001,89.41327 673.962818291,89.20057 679.886418291,88.98166 685.8089182909999,88.7563 691.7305182910001,88.52429000000001 697.6512182910001,88.28551999999999 703.571318291,88.03993 709.490818291,87.78743 715.409818291,87.52796000000001 721.3283182910001,87.26144 727.246218291,86.98782 733.163618291,86.70701 739.080218291,86.41887 744.995918291,86.12295 750.910218291,85.81871 756.822718291,85.50560999999999 762.7325182909999,85.18314000000001 768.6389182910001,84.85079999999999 774.540818291,84.5081 780.437118291,84.15457 786.326418291,83.78931 792.207718291,83.41084000000001 798.0806182910001,83.01765 803.944818291,82.60818 809.801018291,82.18088 815.649818291,81.73414 821.4926182910001,81.26635 827.331118291,80.77665 833.167418291,80.26561000000001 839.003318291,79.73389 844.8409182910001,79.18213 850.682018291,78.61093 856.528618291,78.02089 862.382718291,77.41269 868.246118291,76.78794 874.119618291,76.14883 880.003218291,75.4977 885.895518291,74.83707 891.794418291,74.16959 897.6962182909999,73.4978 903.597118291,72.82213 909.493818291,72.141901 915.384618291,71.456283 921.268818291,70.76431600000001 927.146918291,70.06497 933.021018291,69.358623 938.8945182909999,68.647091 944.7721182910001,67.932094 950.660018291,67.215188 956.564018291,66.49869100000001 962.471118291,65.790762 968.364118291,65.101074 974.174118291,64.444672 979.832618291,63.839159 985.3262182909999,63.303278 990.712318291,62.8475733 996.0071182910001,62.487223900000004 1000.723018291,62.25902362 1004.001118291,62.16019" stroke="black" stroke-width="2.0" /></svg>