<?xml version="1.0" encoding="utf-8" ?>
<svg baseProfile="full" height="111.85845" version="1.1" width="1011.98719113" xmlns="http://www.w3.org/2000/svg" xmlns:ev="http://www.w3.org/2001/xml-events" xmlns:xlink="http://www.w3.org/1999/xlink"><defs /><polygon fill="none" points="1003.98719113,68.58476 1000.71329113,68.1851723 996.1215911300001,67.55219500000001 990.97059113,66.751069 985.66369113,65.839748 980.2363911300001,64.833048 974.66649113,63.737933000000005 968.9716911300001,62.570736000000004 963.20329113,61.35051 957.40659113,60.092858 951.6064911300001,58.809978 945.80509113,57.50911000000001 939.99329113,56.19274 934.16489113,54.863240000000005 928.3190911300001,53.52422 922.4602911300001,52.180550000000004 916.5975911300001,50.837920000000004 910.74009113,49.5015 904.89429113,48.17578 899.06429113,46.8646 893.25159113,45.571160000000006 887.45529113,44.29820000000001 881.67339113,43.04856000000001 875.90369113,41.825 870.1431911300001,40.63017 864.38899113,39.46663 858.6373911300001,38.33685 852.88509113,37.24192000000001 847.12919113,36.18099 841.36709113,35.15319 835.59679113,34.15774 829.81629113,33.194010000000006 824.02409113,32.26144 818.2188911300001,31.359240000000007 812.39989113,30.485560000000007 806.56679113,29.63839 800.7194911299999,28.81573000000001 794.8587911300001,28.01567 788.98559113,27.236310000000003 783.1014911300001,26.475790000000003 777.2084911300001,25.73276 771.3081911300001,25.00678 765.40209113,24.297490000000003 759.4914911300001,23.60449 753.57739113,22.927330000000005 747.6603911300001,22.265500000000003 741.74109113,21.61849000000001 735.81959113,20.985799999999998 729.8959911300001,20.36719 723.9701911300001,19.762480000000004 718.0422911300001,19.17149 712.11229113,18.594030000000004 706.17999113,18.02993 700.24529113,17.479010000000002 694.30819113,16.94106 688.36859113,16.415869999999998 682.42629113,15.903140000000008 676.4813911300001,15.402570000000004 670.5338911300001,14.913870000000003 664.5839911300001,14.43676 658.63179113,13.970940000000006 652.6774911300001,13.51616 646.72149113,13.072119999999998 640.7641911300001,12.638690000000004 634.8057911300001,12.215890000000002 628.84659113,11.803730000000002 622.88679113,11.402250000000002 616.92649113,11.01146 610.9657911300001,10.63136 605.0045911300001,10.261970000000005 599.04289113,9.903280000000002 593.08059113,9.55529 587.1174911300001,9.217939999999999 581.1536911300001,8.891170000000002 575.1888911300001,8.574930000000002 569.22329113,8.269170000000003 563.2567911300001,7.9738299999999995 557.2894911300001,7.688880000000005 551.32139113,7.414270000000002 545.35289113,7.149950000000004 539.3838911299999,6.895950000000006 533.4145911300001,6.652320000000003 527.44509113,6.419110000000003 521.47539113,6.1963500000000025 515.50569113,5.984099999999998 509.53579113,5.782390000000007 503.56589112999995,5.5912600000000054 497.59579113,5.4107600000000105 491.62549113,5.240920000000003 485.65509112999996,5.081759999999996 479.68429112999996,4.933310000000006 473.71339113,4.795600000000007 467.74219113,4.668639999999996 461.77089113,4.552459999999996 455.79959113,4.447100000000006 449.82839113,4.352580000000003 443.85749112999997,4.2689299999999974 437.88689113,4.196290000000005 431.91679113,4.134810000000002 425.94739112999997,4.084640000000007 419.97869113,4.0459200000000095 414.01069113,4.018810000000002 408.04339113,4.003450000000001 402.07689113,4.0 396.11099113,4.0086000000000155 390.14579113,4.029380000000003 384.18119112999995,4.062489999999997 378.21709113,4.1080499999999915 372.25369113,4.1662000000000035 366.29109113,4.237049999999996 360.32919112999997,4.320760000000007 354.36829113,4.41743000000001 348.40839113,4.527209999999997 342.44989112999997,4.650280000000002 336.49289113,4.786920000000009 330.53739113,4.93741 324.58379113,5.102029999999999 318.63199112999996,5.2810500000000005 312.68209113,5.474739999999997 306.73409112999997,5.68338 300.78799112999997,5.907260000000008 294.84389113000003,6.14667 288.90179113,6.4019500000000065 282.96169113,6.673410000000004 277.02389113,6.961370000000002 271.08849112999997,7.266140000000007 265.15569113000004,7.588050000000003 259.22579113,7.9273800000000065 253.29929113000003,8.284500000000001 247.37639113,8.659950000000002 241.45749113000002,9.054340000000003 235.54289113000002,9.468240000000002 229.63289113000002,9.902260000000005 223.72769113,10.35698 217.82729113000002,10.833000000000006 211.93199113000003,11.330940000000005 206.04189113,11.851520000000008 200.15729113,12.395510000000002 194.27859113000002,12.963650000000001 188.40609113000002,13.55668 182.54059113000002,14.175310000000003 176.68249113000002,14.820250000000001 170.83259113000003,15.492339999999999 164.99189113000003,16.192770000000003 159.16099113,16.922780000000003 153.34089113000002,17.683590000000002 147.53209113000003,18.476420000000005 141.73539113,19.302460000000004 135.95139113000002,20.163050000000005 130.18129113,21.059960000000004 124.42639113,21.995020000000004 118.68839113,22.969960000000007 112.96939113,23.986390000000007 107.27159113,25.045830000000002 101.59790113,26.150510000000004 95.95137113000001,27.303510000000003 90.33510113,28.507850000000005 84.75202112999999,29.766420000000004 79.20494113,31.082030000000003 73.69779113,32.458510000000004 68.23733113,33.900600000000004 62.83260113,35.412060000000004 57.49456113,36.99539 52.23623113,38.65289 47.074501129999994,40.39014 42.027971130000005,42.21159 37.11517113,44.11903 32.36181113,46.11301 27.83680113,48.1831 23.63819113,50.29128 19.84739113,52.38622 16.53707113,54.417010000000005 13.753868129999999,56.32318000000001 11.46132913,58.0703 9.591353130000002,59.657745000000006 8.12011813,61.082876 6.99635613,62.343305 6.14282313,63.456494000000006 5.48950713,64.44788199999999 4.98610413,65.343292 4.59725563,66.16804 4.3061855300000005,66.935839 4.10671663,67.64363660000001 4.0,68.29754390000001 4.0022214,68.9360947 4.17497263,69.5680681 4.54483663,70.182118 5.05943813,70.781008 5.70334713,71.388824 6.48988213,72.027738 7.45384313,72.71941100000001 8.65963313,73.493577 10.22548813,74.394085 12.36052013,75.476116 15.32545113,76.765508 19.00576113,78.128224 22.88208113,79.39653 26.91149113,80.59716 31.254791129999997,81.77431 36.05578113,82.95387 41.33984113,84.12847000000001 46.93098113,85.2519 52.610171130000005,86.28756 58.24987113,87.23052 63.84696113,88.0985 69.45068112999999,88.90749 75.09781113,89.66785 80.80812112999999,90.38661 86.58287113,91.06825 92.40655113,91.71463 98.26110113,92.32658 104.13259113,92.9058 110.01169112999999,93.45479 115.89449113,93.97669 121.78169113,94.47452000000001 127.67559113,94.95005 133.57809113000002,95.40478 139.49019113000003,95.84012 145.41189113,96.2574 151.34229113,96.65794 157.27979113,97.04273 163.22279113000002,97.41228000000001 169.16989113,97.76707 175.12019113000002,98.10761 181.07279113,98.43444 187.02759113000002,98.74813 192.98439113,99.04925 198.94369113000002,99.3383 204.90549113,99.61569 210.87009113000002,99.88186 216.83729113,100.13721000000001 222.80699113000003,100.38215 228.77899113000004,100.61708999999999 234.75289113,100.84242 240.72829113000003,101.05837 246.70469113000001,101.26503 252.68199113,101.4625 258.65979113000003,101.65086 264.63819113,101.83021000000001 270.61699113,102.00066000000001 276.59649113,102.16230000000002 282.57669113,102.31526 288.55789113,102.45973000000001 294.54019113,102.59593000000001 300.52379112999995,102.72409 306.50869113,102.84441000000001 312.49489113,102.95712 318.48229113,103.06243 324.47089113,103.16056 330.46049113,103.2517 336.45089112999995,103.33599000000001 342.44209113,103.41354 348.43379113,103.48445000000001 354.42609113,103.54883000000001 360.41879113,103.60679 366.41199113,103.65845 372.40569113,103.70392000000001 378.39999113,103.7433 384.39479113,103.77671000000001 390.39029113,103.80427 396.38639113,103.8261 402.38329113,103.84231 408.38079113,103.85302999999999 414.37879113,103.85837000000001 420.37729112999995,103.85845 426.37619113,103.85339 432.37529113,103.84328000000001 438.37439112999994,103.82813000000002 444.37339113,103.80793 450.37229112999995,103.78265 456.37099113,103.75227000000001 462.36949113000003,103.71678 468.36779112999994,103.67615 474.36589112999997,103.63037 480.36399113,103.57942 486.36209112999995,103.5233 492.36039113,103.46206000000001 498.35899112999994,103.39573 504.35779113,103.32436000000001 510.35689113,103.24799999999999 516.35619113,103.16671 522.3556911300001,103.08052 528.35509113,102.98948 534.35449113,102.89365000000001 540.35359113,102.79299 546.3522911300001,102.68744000000001 552.35039113,102.5769 558.3478911300001,102.46129 564.34489113,102.34052 570.3411911300001,102.21451 576.33689113,102.08317 582.33229113,101.94641 588.32719113,101.80415 594.3219911300001,101.65635 600.3167911300001,101.50299000000001 606.3113911300001,101.34407 612.30599113,101.17956000000001 618.30049113,101.00945 624.29479113,100.83374 630.2885911300001,100.65241 636.2817911300001,100.46545 642.2741911300001,100.27279 648.26539113,100.0742 654.25539113,99.86944 660.2438911300001,99.65829 666.23089113,99.44051 672.21639113,99.21585 678.20039113,98.98408 684.18299113,98.74497 690.1643911300001,98.49828 696.1446911300001,98.24387 702.12409113,97.98164 708.1024911300001,97.71145 714.08009113,97.4332 720.05689113,97.14677 726.03279113,96.85205 732.00769113,96.54892000000001 737.98149113,96.23718 743.9539911300001,95.91627 749.9244911300001,95.58559 755.89249113,95.24455 761.8570911300001,94.89257 767.8171911300001,94.52911 773.7714911300001,94.15364 779.7184911300001,93.76561000000001 785.65659113,93.36388000000001 791.5847911300001,92.94672 797.50219113,92.51239 803.4087911299999,92.05915 809.30509113,91.58518000000001 815.19199113,91.08868000000001 821.0708911300001,90.56782 826.94369113,90.02193 832.81279113,89.45141000000001 838.68029113,88.85668 844.5485911300001,88.23809 850.42039113,87.59595 856.2981911300001,86.93052 862.18479113,86.24232 868.08259113,85.5332 873.99269113,84.80552 879.91449113,84.06184 885.8459911300001,83.30499 891.78339113,82.53804 897.72149113,81.76358 903.6555911300001,80.9818 909.58279113,80.19219000000001 915.50319113,79.39387 921.41879113,78.58568 927.33429113,77.766397 933.25499113,76.936937 939.1841911299999,76.099541 945.1224911300001,75.256854 951.06779113,74.41196000000001 957.01389113,73.570475 962.94309113,72.743699 968.82199113,71.945209 974.60479113,71.18937100000001 980.24629113,70.494811 985.72799113,69.881041 991.0581911300001,69.36126660000001 996.1745911300001,68.9565975 1000.7152911300001,68.6996373 1003.98719113,68.58476" stroke="black" stroke-width="2.0" /></svg>