<?xml version="1.0" encoding="utf-8" ?>
<svg baseProfile="full" height="91.64178999999999" version="1.1" width="1012.0004012509" xmlns="http://www.w3.org/2000/svg" xmlns:ev="http://www.w3.org/2001/xml-events" xmlns:xlink="http://www.w3.org/1999/xlink"><defs /><polygon fill="none" points="1004.0004012509,59.844739999999994 1000.6587012509001,59.559214499999996 995.7359012509,59.097122799999994 990.2809012509,58.536629 984.7614012509,57.929159999999996 979.1277012509,57.276717999999995 973.3604012509,56.584447 967.5131012509,55.864208999999995 961.6493012509001,55.12602999999999 955.8038012509,54.376715999999995 949.9793012509,53.61906199999999 944.1609012509,52.853038 938.3366012509,52.078627 932.4994012509,51.296504999999996 926.6484012509001,50.508089 920.7873012509,49.71511999999999 914.9224012509001,48.91918 909.0593012509,48.12168 903.1957012509,47.32299999999999 897.3309012509001,46.523709999999994 891.4679012509,45.72489999999999 885.6074012509001,44.927209999999995 879.7489012509001,44.13119999999999 873.8923012509001,43.337419999999995 868.0373012509,42.546389999999995 862.1836012509001,41.75865999999999 856.3309012509001,40.974689999999995 850.4789012509001,40.19476999999999 844.6275012509,39.419219999999996 838.7766012509001,38.64832 832.9262012509001,37.88239999999999 827.0764012509001,37.121779999999994 821.2273012509,36.366809999999994 815.3793012509001,35.617929999999994 809.5323012509,34.87562 803.6865012509,34.14035 797.8418012509001,33.412589999999994 791.9980012509,32.692769999999996 786.1548012509,31.981339999999996 780.3119012509001,31.278689999999994 774.4690012509,30.585029999999993 768.6257012509,29.900399999999994 762.7818012509001,29.224849999999993 756.9371012509,28.55843999999999 751.0914012508999,27.901239999999994 745.2446012509,27.25331 739.3968012509,26.614729999999994 733.5480012509,25.98557999999999 727.6981012509001,25.365869999999994 721.8473012509,24.75560999999999 715.9955012509,24.154779999999995 710.1429012509001,23.563409999999998 704.2893012509,22.981469999999995 698.4347012508999,22.408969999999997 692.5792012509,21.845909999999996 686.7225012509,21.292249999999996 680.8648012509001,20.747909999999997 675.0059012509,20.212779999999995 669.1458012509,19.686769999999996 663.2846012509,19.169799999999995 657.4221012509,18.661769999999997 651.5584012509,18.16257999999999 645.6936012509,17.67214 639.8275012509,17.190369999999994 633.9603012509001,16.717149999999997 628.0920012509,16.25237 622.2225012509,15.795899999999996 616.3520012509,15.347649999999994 610.4804012509001,14.907479999999993 604.6077012509,14.475289999999994 598.7341012509,14.050959999999996 592.8594012509001,13.634369999999997 586.9836012509,13.225459999999998 581.1070012509001,12.824189999999994 575.2294012509001,12.430529999999997 569.3510012509,12.044439999999994 563.4720012509,11.665909999999997 557.5924012509,11.294889999999995 551.7125012509001,10.931359999999998 545.8324012509,10.575299999999999 539.9524012509,10.226719999999993 534.0726012509,9.885849999999998 528.1933012509,9.552919999999993 522.3146012509,9.22818999999999 516.4364012509001,8.91187999999999 510.5589012509,8.60423999999999 504.6819012509,8.305489999999992 498.80550125089997,8.015879999999996 492.9294012509,7.73561999999999 487.0535012509,7.464869999999991 481.1776012509,7.203669999999995 475.30170125089995,6.952089999999998 469.42560125089994,6.710169999999998 463.54920125089996,6.477989999999998 457.6726012509,6.255589999999991 451.7957012509,6.043039999999991 445.91850125089996,5.840389999999992 440.04100125089997,5.6477199999999925 434.1634012509,5.4650999999999925 428.28560125089996,5.292609999999996 422.40770125089995,5.1303199999999975 416.5298012509,4.97833 410.6520012509,4.8367099999999965 404.7744012509,4.705529999999996 398.89700125089996,4.584879999999991 393.0200012509,4.474839999999993 387.1435012509,4.375579999999992 381.2676012509,4.287339999999993 375.3923012509,4.210379999999994 369.51790125089997,4.144969999999994 363.6445012509,4.091359999999995 357.7720012509,4.0497999999999905 351.9007012509,4.020539999999997 346.0307012509,4.00385 340.1621012509,4.0 334.2948012509,4.00927999999999 328.4291012509,4.032019999999989 322.56490125089994,4.0685299999999955 316.7021012509,4.119109999999999 310.8407012509,4.184099999999994 304.9805012509,4.26379 299.1214012509,4.358509999999995 293.2631012509,4.468519999999998 287.4054012509,4.593999999999994 281.5485012509,4.7350899999999925 275.69230125089996,4.8919699999999935 269.8371012509,5.064779999999992 263.9830012509,5.253679999999996 258.13070125089996,5.458809999999993 252.28050125090002,5.680329999999991 246.43310125090002,5.918769999999995 240.58910125090003,6.174839999999996 234.7487012509,6.449239999999996 228.91250125090002,6.742699999999992 223.0806012509,7.055919999999993 217.2531012509,7.3896099999999905 211.43030125090002,7.744489999999992 205.61200125090002,8.121369999999999 199.79850125090002,8.521099999999997 193.9900012509,8.94455 188.1867012509,9.39257 182.3893012509,9.86598999999999 176.59810125090002,10.365639999999999 170.8138012509,10.892359999999996 165.0370012509,11.447379999999995 159.26860125090002,12.03197999999999 153.50920125090002,12.647459999999995 147.7593012509,13.295129999999993 142.01940125090002,13.97625999999999 136.29000125090002,14.692179999999993 130.5719012509,15.44469999999999 124.8663012509,16.235789999999994 119.17490125089999,17.06732999999999 113.4999012509,17.941089999999996 107.8437012509,18.85868 102.20928125089999,19.822139999999997 96.5997012509,20.83468 91.01730125089999,21.89971 85.46364125090001,23.020659999999992 79.9396012509,24.201039999999992 74.4464112509,25.445219999999992 68.9894312509,26.758709999999994 63.5787912509,28.145719999999994 58.2287912509,29.608619999999995 52.9571312509,31.148489999999995 47.7801312509,32.770579999999995 42.704101250899996,34.483709999999995 37.7254612509,36.299229999999994 32.8421712509,38.23226 28.1162412509,40.28484999999999 23.684031250900002,42.41405999999999 19.684851250899996,44.54709999999999 16.2038312509,46.625809999999994 13.2449632509,48.611239999999995 10.7548652509,50.48535699999999 8.7616532509,52.206872999999995 7.3101282509,53.68506599999999 6.2834452509,54.920013 5.5419592509,55.96579499999999 4.9930044509,56.87672599999999 4.5809464509,57.694739999999996 4.2831813509,58.437304 4.0883097909,59.108507599999996 4.0,59.736866799999994 4.0508323309,60.352099499999994 4.3030624509,60.955687999999995 4.7282136509,61.555156999999994 5.2967202509,62.16159 6.0161062509,62.802280999999994 6.9307522508999995,63.50328199999999 8.1216762509,64.30133699999999 9.744235250900001,65.248972 12.1403112509,66.434643 15.6226312509,67.838582 19.606321250900002,69.16598499999999 23.6231812509,70.34584 27.869831250900003,71.45813999999999 32.5576512509,72.54902999999999 37.7799112509,73.62565 43.3581412509,74.64179999999999 49.0234412509,75.55578 54.6212512509,76.36453999999999 60.155541250899994,77.09012999999999 65.6891012509,77.75016 71.2665212509,78.35535999999999 76.9102312509,78.91264 82.61867125090001,79.42622 88.37157125089999,79.8976 94.1486112509,80.32790999999999 99.9352012509,80.71929 105.7232012509,81.07466 111.5111012509,81.39744999999999 117.3024012509,81.69054 123.1010012509,81.95607 128.9095012509,82.19602 134.72930125090002,82.41229999999999 140.5602012509,82.60677 146.40080125090003,82.78120999999999 152.24890125090002,82.93675999999999 158.1023012509,83.07423 163.9597012509,83.19449999999999 169.82000125090002,83.29844999999999 175.6824012509,83.387 181.54680125090002,83.46105 187.4134012509,83.52145999999999 193.2827012509,83.56888 199.15480125090002,83.60397999999999 205.02970125090002,83.62738999999999 210.90760125090003,83.63978 216.7881012509,83.64178999999999 222.6711012509,83.63407 228.5561012509,83.61719 234.44260125090003,83.59146 240.3305012509,83.55717 246.2195012509,83.51460999999999 252.10930125090002,83.46409 257.9999012509,83.40589 263.89130125089997,83.34029999999998 269.7834012509,83.26763 275.67650125089995,83.18813999999999 281.5706012509,83.10211 287.4658012509,83.0098 293.3620012509,82.91148999999999 299.25930125089997,82.80743 305.1575012509,82.69791 311.0566012509,82.58319 316.9565012509,82.46355 322.85690125089997,82.33915999999999 328.75780125089994,82.21015 334.6590012509,82.07659999999998 340.5604012509,81.93862999999999 346.46200125089996,81.79634 352.3638012509,81.64983 358.2658012509,81.4992 364.16810125089995,81.34455 370.0707012509,81.18598 375.9738012509,81.02364999999999 381.8774012509,80.85768999999999 387.78150125089996,80.68825 393.6862012509,80.51549 399.59150125089997,80.33954 405.49730125089997,80.16055999999999 411.4035012509,79.97869999999999 417.3101012509,79.79410999999999 423.2169012509,79.60688999999999 429.12390125089996,79.41711 435.03090125089994,79.22479999999999 440.93800125089996,79.02999 446.8451012509,78.83274 452.75210125089995,78.63306999999999 458.65920125089997,78.43101999999999 464.5663012509,78.22663999999999 470.47360125089995,78.01995 476.3811012509,77.81102 482.2889012509,77.59996 488.1972012509,77.38686999999999 494.1058012509,77.17187 500.0149012509,76.95505999999999 505.9245012509,76.73657 511.8344012509,76.51648999999999 517.7447012509001,76.29494 523.6553012509,76.07203999999999 529.5660012509001,75.84786 535.4768012509,75.62244 541.3876012509,75.39578999999999 547.2984012509,75.16793 553.2092012509,74.93889 559.1199012509,74.70867 565.0306012509001,74.47730999999999 570.9413012509,74.24481 576.8522012509001,74.0112 582.7633012509,73.77651999999999 588.6747012509001,73.54088 594.5865012509,73.30439 600.4987012509001,73.06716 606.4114012509001,72.82929999999999 612.3246012509001,72.59092 618.2382012509,72.35215 624.1524012509001,72.11308 630.0669012509001,71.87384 635.9817012509,71.63449999999999 641.8964012509001,71.39509 647.8110012509001,71.15563 653.7254012509001,70.91613 659.6397012509001,70.6766 665.5541012509001,70.43705 671.4687012509,70.19749999999999 677.3835012509,69.95794 683.2982012509,69.718415 689.2124012509,69.47902599999999 695.1262012509001,69.23989399999999 701.0394012509,69.001138 706.9521012509,68.76287699999999 712.8643012509,68.52523099999999 718.7760012509,68.288315 724.6874012509,68.052245 730.5985012509001,67.817134 736.5096012509,67.58305999999999 742.4207012509,67.35004799999999 748.3319012509,67.118124 754.2432012509,66.887314 760.1545012509001,66.657648 766.0657012509,66.42915599999999 771.9768012509,66.201871 777.8874012509,65.97583 783.7974012509,65.751147 789.7065012509,65.52803399999999 795.6147012509,65.306705 801.5219012509,65.08736999999999 807.4283012509001,64.870238 813.3339012509001,64.65551299999998 819.2392012509001,64.443395 825.1443012509001,64.234062 831.0495012509,64.027581 836.9551012509,63.82399699999999 842.8609012509,63.623357999999996 848.7668012509,63.425718999999994 854.6725012509,63.231137999999994 860.5773012509001,63.03968 866.4807012509,62.85146399999999 872.3822012509,62.666762999999996 878.2818012509,62.485865 884.1797012509,62.30904199999999 890.0769012509,62.13655899999999 895.9744012509001,61.968666999999996 901.8739012509001,61.805575 907.7766012509001,61.64733 913.6820012509,61.493964999999996 919.5885012509001,61.34555099999999 925.4927012509,61.20218499999999 931.3900012509001,61.06401199999999 937.2760012509,60.931501999999995 943.1514012509,60.805288499999996 949.0224012509001,60.685895499999994 954.9016012509001,60.5737628 960.8050012509001,60.4688537 966.7092012509,60.37019299999999 972.6078012509,60.27607749999999 978.4978012509,60.18478089999999 984.2865012509001,60.0968166 989.9726012509,60.012226299999995 995.5879012509,59.93191880999999 1000.6268012509,59.872279799999994 1004.0004012509,59.844739999999994" stroke="black" stroke-width="2.0" /></svg>