<?xml version="1.0" encoding="utf-8" ?>
<svg baseProfile="full" height="117.63747" version="1.1" width="1011.995195263" xmlns="http://www.w3.org/2000/svg" xmlns:ev="http://www.w3.org/2001/xml-events" xmlns:xlink="http://www.w3.org/1999/xlink"><defs /><polygon fill="none" points="1003.995195263,89.84134999999999 1000.599895263,89.278376 995.7694952630001,88.48678699999999 990.3540952630001,87.59909999999999 984.717495263,86.66245799999999 978.9292952630001,85.687918 973.0425952630001,84.68646 967.108495263,83.66790999999999 961.164595263,82.63889999999999 955.229695263,81.60294099999999 949.304095263,80.56042399999998 943.379895263,79.51068 937.4514952630001,78.45344999999999 931.5161952630001,77.38901999999999 925.574495263,76.31817 919.628795263,75.24188 913.6811952630001,74.16094999999999 907.7332952630001,73.07605999999998 901.7857952630001,71.98776 895.8386952630001,70.89645999999999 889.891295263,69.80241999999998 883.943195263,68.70582999999999 877.9940952630001,67.60691999999999 872.043595263,66.50595999999999 866.091795263,65.40324999999999 860.1389952630001,64.29910999999998 854.185395263,63.19391999999999 848.2312952630001,62.08804999999999 842.276995263,60.98183999999999 836.322695263,59.875669999999985 830.3685952630001,58.769859999999994 824.414895263,57.66476999999999 818.461695263,56.56069999999999 812.508995263,55.457919999999994 806.556995263,54.356669999999994 800.605695263,53.25720999999999 794.6551952630001,52.15977999999999 788.7055952630001,51.064629999999994 782.756895263,49.971999999999994 776.808995263,48.882169999999995 770.862095263,47.79549999999999 764.916095263,46.712349999999994 758.970995263,45.63306999999999 753.026895263,44.55803999999999 747.0836952630001,43.48759999999999 741.141395263,42.422129999999996 735.199995263,41.36196999999999 729.259595263,40.30756999999999 723.3200952630001,39.259359999999994 717.381495263,38.21777999999999 711.4436952630001,37.183249999999994 705.506695263,36.15621999999999 699.570395263,35.13708999999999 693.634695263,34.12630999999999 687.699595263,33.124289999999995 681.7649952630001,32.13148999999999 675.830695263,31.148349999999986 669.896895263,30.175329999999988 663.963395263,29.212889999999987 658.0303952630001,28.261469999999996 652.0976952630001,27.321549999999988 646.1655952630001,26.39358999999999 640.233995263,25.47807999999999 634.302995263,24.57562 628.372595263,23.686759999999992 622.4428952630001,22.812079999999995 616.513795263,21.952139999999986 610.585195263,21.107479999999995 604.656995263,20.278659999999988 598.728995263,19.466219999999993 592.8011952630001,18.67063999999999 586.873395263,17.892340000000004 580.945495263,17.13172999999999 575.017395263,16.389200000000002 569.088895263,15.665179999999992 563.160095263,14.960059999999984 557.230695263,14.274270000000001 551.3006952630001,13.608199999999997 545.370095263,12.962239999999994 539.4387952630001,12.336679999999987 533.5066952630001,11.731809999999982 527.573995263,11.147909999999982 521.640495263,10.585289999999986 515.7063952630001,10.044239999999988 509.77169526299997,9.52503999999999 503.836295263,9.027999999999992 497.90049526300004,8.55337999999999 491.964195263,8.10141999999999 486.0275952630001,7.672330000000002 480.090595263,7.26630999999999 474.15309526300007,6.883579999999995 468.215095263,6.524339999999995 462.276495263,6.188799999999986 456.33699526300006,5.877179999999981 450.396495263,5.589609999999979 444.454895263,5.326039999999992 438.511895263,5.08641999999999 432.5676952630001,4.870689999999982 426.622295263,4.678779999999989 420.675695263,4.51066999999999 414.72819526300003,4.366279999999989 408.77999526300005,4.24557999999999 402.831395263,4.1485799999999955 396.882695263,4.0753899999999845 390.934195263,4.026150000000001 384.98609526300004,4.000979999999998 379.038695263,4.0 373.09209526300003,4.023330000000001 367.14659526300005,4.071099999999987 361.202195263,4.143419999999992 355.25899526300003,4.240469999999988 349.31719526300003,4.362439999999992 343.376995263,4.509559999999993 337.438395263,4.68201999999998 331.501695263,4.880039999999994 325.566995263,5.103819999999985 319.634495263,5.353560000000002 313.70429526300006,5.62948999999999 307.776795263,5.9318700000000035 301.851995263,6.260989999999978 295.93019526300003,6.617129999999989 290.011595263,7.000569999999982 284.096295263,7.41158999999999 278.18459526300006,7.850469999999987 272.27659526300005,8.317499999999995 266.372395263,8.813009999999991 260.47239526300007,9.337329999999994 254.576695263,9.890799999999999 248.685595263,10.47377999999999 242.79949526299998,11.086590000000001 236.91859526300001,11.729550000000003 231.043195263,12.403009999999995 225.173895263,13.107469999999992 219.311095263,13.843509999999995 213.455295263,14.611670000000004 207.60699526300002,15.41252999999999 201.76689526299998,16.246599999999987 195.935595263,17.11439999999999 190.113795263,18.016569999999987 184.302395263,18.95402 178.501995263,19.92770999999999 172.71339526300002,20.93855999999998 166.937295263,21.987529999999992 161.17439526299998,23.07553999999999 155.425295263,24.203579999999988 149.690795263,25.3729 143.97199526300003,26.584749999999993 138.269995263,27.84033999999999 132.586195263,29.14081999999999 126.921895263,30.48727999999999 121.278695263,31.88098999999999 115.65849526299999,33.32361999999999 110.062895263,34.81687999999999 104.493395263,36.36248999999999 98.95133526299999,37.96213999999999 93.438125263,39.61778999999999 87.95661526299999,41.332049999999995 82.511365263,43.10716999999999 77.108455263,44.94462999999999 71.75533526299999,46.84511999999999 66.46069526299999,48.80962999999999 61.231985263,50.84130999999999 56.072965263,52.944489999999995 50.983975263,55.124669999999995 45.965265263,57.389039999999994 41.036775262999996,59.74126 36.246385263,62.16976 31.659295263,64.64697999999999 27.343855263,67.14061999999998 23.351125263,69.62593999999999 19.701825262999996,72.08303 16.406125263,74.49389 13.576082263,76.77735999999999 11.316052263,78.80586 9.567628263,80.54600199999999 8.208844263,82.039745 7.150523263,83.33155599999999 6.320844263,84.45840299999999 5.6641672629999995,85.45433399999999 5.142926263,86.35230299999999 4.730020363,87.17782 4.412704863,87.94279099999999 4.182670263,88.650617 4.041446753,89.3133292 4.0,89.9550534 4.097711963,90.58529189999999 4.354969263,91.21763299999999 4.743949963,91.85427599999998 5.246870263,92.49849199999998 5.863884263,93.16233399999999 6.613241263,93.855262 7.519316263,94.58699999999999 8.620296263,95.370268 9.974731262999999,96.22339199999999 11.673141263,97.167418 13.844140262999998,98.22972999999999 16.651885262999997,99.415911 20.118245263,100.65535 24.018775263,101.83738999999998 28.203295262999998,102.93003999999999 32.704775263,103.93835999999999 37.554575263,104.86416999999999 42.733185262999996,105.70631999999999 48.151685263,106.45428999999999 53.703075263,107.09861 59.307155263,107.64299999999999 64.932675263,108.10079999999999 70.589085263,108.48382 76.289685263,108.79969999999999 82.041335263,109.05538999999999 87.843645263,109.25768 93.688755263,109.41273999999999 99.566075263,109.52440999999999 105.466595263,109.59635999999999 111.38359526299999,109.63262999999999 117.31259526299999,109.63747 123.251495263,109.61506999999999 129.200095263,109.56804 135.158295263,109.4982 141.125795263,109.4074 147.101995263,109.29749 153.086195263,109.17039 159.077095263,109.02792 165.073895263,108.87132999999999 171.07539526300002,108.70150999999998 177.080895263,108.51938 183.08979526299998,108.32584 189.101595263,108.12181999999999 195.116095263,107.90823999999999 201.133195263,107.68592 207.152895263,107.45549 213.175195263,107.21749 219.200095263,106.9725 225.22729526299997,106.72107999999999 231.256695263,106.46381 237.288195263,106.20127 243.321495263,105.93401 249.356295263,105.66239999999999 255.392495263,105.38673999999999 261.429795263,105.1073 267.468095263,104.82436999999999 273.50739526300003,104.53823999999999 279.547595263,104.24916999999999 285.58869526300003,103.95745 291.630895263,103.66335 297.674095263,103.3671 303.7184952630001,103.06893 309.763995263,102.76907 315.81059526300004,102.46776999999999 321.858195263,102.16524 327.90679526300005,101.86174 333.956095263,101.55749999999999 340.006095263,101.25276 346.056395263,100.94769 352.10689526300007,100.64245 358.157395263,100.33715 364.20779526300004,100.03193999999999 370.257895263,99.726942 376.307695263,99.422293 382.35699526300004,99.118122 388.405795263,98.814556 394.454095263,98.511726 400.501795263,98.20976599999999 406.548895263,97.908813 412.59539526300006,97.609005 418.641295263,97.31047899999999 424.68669526300005,97.01336799999999 430.73149526300006,96.71780999999999 436.775795263,96.42393899999999 442.81959526300005,96.13188799999999 448.862995263,95.84178599999998 454.90589526300005,95.55373099999998 460.94849526300004,95.267816 466.99079526300005,94.984134 473.032795263,94.702777 479.074495263,94.42383899999999 485.115895263,94.14741299999999 491.156995263,93.873595 497.19779526300005,93.602477 503.238295263,93.334155 509.278495263,93.068728 515.318295263,92.80629699999999 521.3577952630001,92.546961 527.396895263,92.29081899999998 533.435695263,92.03796999999999 539.4741952630001,91.78851399999999 545.512395263,91.542548 551.5501952630001,91.30017 557.5878952630001,91.061477 563.625395263,90.82654539999999 569.662695263,90.59543899999998 575.699795263,90.36822269999999 581.736795263,90.1449617 587.773695263,89.92572127 593.8104952630001,89.71056709999999 599.847095263,89.4995651 605.8834952630001,89.2927814 611.9197952630001,89.09028289999999 617.955795263,88.8921451 623.991595263,88.69845099999999 630.027095263,88.50928199999998 636.062295263,88.324722 642.097295263,88.14485099999999 648.131995263,87.96974999999999 654.166495263,87.79950199999999 660.2007952629999,87.634187 666.2349952630001,87.47388299999999 672.2689952630001,87.318649 678.3029952630001,87.16852499999999 684.3369952630001,87.02355599999999 690.3708952630001,86.883783 696.404795263,86.74924999999999 702.438595263,86.61999999999999 708.472295263,86.49607699999999 714.505795263,86.377524 720.539195263,86.264395 726.572195263,86.15677399999998 732.604995263,86.05475399999999 738.6372952629999,85.958428 744.669295263,85.867887 750.700995263,85.783222 756.732195263,85.70452599999999 762.7631952630001,85.63188899999999 768.793795263,85.56539899999999 774.8242952630001,85.50512499999999 780.8544952630001,85.451123 786.8844952630001,85.40345199999999 792.9143952630001,85.36217199999999 798.943995263,85.327339 804.973395263,85.29901299999999 811.002495263,85.27725299999999 817.0310952630001,85.262142 823.059395263,85.25384 829.0869952630001,85.252518 835.113895263,85.25834499999999 841.1399952630001,85.27149299999999 847.165095263,85.29212999999999 853.188995263,85.32042399999999 859.211595263,85.35654699999999 865.232695263,85.40068199999999 871.2523952629999,85.45301599999999 877.270995263,85.51373799999999 883.288595263,85.58303899999999 889.3056952630001,85.66111299999999 895.322995263,85.74817099999999 901.340795263,85.84451499999999 907.358895263,85.95049099999999 913.376095263,86.06642599999999 919.390595263,86.192623 925.399595263,86.32935099999999 931.399895263,86.47705599999999 937.389995263,86.63667399999999 943.371195263,86.809276 949.347895263,86.99603199999999 955.327295263,87.19827699999999 961.3147952630001,87.417864 967.299495263,87.65654799999999 973.2502952630001,87.915039 979.118895263,88.193366 984.855395263,88.495605 990.4283952630001,88.82723499999999 995.790595263,89.18992019999999 1000.587195263,89.55567079999999 1003.995195263,89.84134999999999" stroke="black" stroke-width="2.0" /></svg>