<?xml version="1.0" encoding="utf-8" ?>
<svg baseProfile="full" height="102.19381" version="1.1" width="1011.993893761" xmlns="http://www.w3.org/2000/svg" xmlns:ev="http://www.w3.org/2001/xml-events" xmlns:xlink="http://www.w3.org/1999/xlink"><defs /><polygon fill="none" points="1003.993893761,67.28718 1000.653193761,67.114693 995.979293761,66.8353711 990.7182937609999,66.475911 985.198093761,66.058107 979.498793761,65.591414 973.675793761,65.08573 967.7807937609999,64.550573 961.854793761,63.991628 955.923493761,63.413281 949.9953937610001,62.818483 944.066693761,62.208484 938.132493761,61.584044 932.190293761,60.946117 926.239493761,60.295896 920.2821937609999,59.634687 914.320693761,58.963458 908.356893761,58.283041 902.391993761,57.594197 896.426393761,56.89761 890.459793761,56.193889999999996 884.491593761,55.48354 878.521093761,54.76712 872.5479937609999,54.04518 866.572193761,53.31829 860.593693761,52.587089999999996 854.612893761,51.85219 848.630293761,51.11403 842.646193761,50.37296 836.6610937610001,49.629270000000005 830.675193761,48.88328 824.688593761,48.13527 818.701293761,47.38554 812.713393761,46.63434 806.7246937609999,45.88194 800.735293761,45.12859 794.745193761,44.37457 788.754493761,43.62014 782.763393761,42.865579999999994 776.771993761,42.11118 770.780493761,41.35723 764.789293761,40.603939999999994 758.798493761,39.851519999999994 752.808393761,39.10016 746.818993761,38.35006 740.830593761,37.6014 734.843093761,36.85436 728.856593761,36.10912 722.870993761,35.36586 716.8862937609999,34.6248 710.9025937609999,33.88617 704.9196937610001,33.15018 698.9374937609999,32.41704 692.9560937609999,31.68699 686.975293761,30.960230000000003 680.994993761,30.236980000000003 675.015293761,29.51746 669.035993761,28.801879999999997 663.0570937609999,28.09046 657.078593761,27.383429999999997 651.100593761,26.68103 645.1232937609999,25.983469999999997 639.146593761,25.290999999999997 633.170793761,24.603860000000005 627.196193761,23.92234 621.2227937609999,23.246849999999995 615.250793761,22.577840000000002 609.2801937610001,21.91574 603.3110937609999,21.26097 597.3433937609999,20.61394 591.376993761,19.975070000000002 585.4116937609999,19.34476 579.447393761,18.723399999999998 573.483793761,18.11126 567.520693761,17.508599999999994 561.557893761,16.91565 555.5954937610001,16.332659999999997 549.633193761,15.75987 543.671093761,15.197539999999996 537.709093761,14.64593 531.747193761,14.105289999999997 525.785593761,13.575889999999994 519.824293761,13.057990000000004 513.863393761,12.551869999999994 507.902693761,12.057789999999997 501.942493761,11.576010000000004 495.982593761,11.106790000000004 490.023093761,10.650390000000002 484.063893761,10.207079999999998 478.104993761,9.777090000000001 472.146193761,9.36065 466.187693761,8.95798 460.229293761,8.569289999999995 454.27099376099994,8.194789999999998 448.312893761,7.834690000000002 442.355093761,7.489220000000003 436.397393761,7.158580000000001 430.44009376099996,6.842999999999996 424.48309376099996,6.5427000000000035 418.5264937609999,6.257919999999999 412.570393761,5.988900000000001 406.614793761,5.735860000000002 400.659793761,5.499029999999998 394.70529376099995,5.278660000000002 388.75149376099995,5.074959999999997 382.79819376099994,4.888179999999998 376.84539376099997,4.718529999999994 370.893293761,4.566239999999993 364.941793761,4.431539999999998 358.99099376099997,4.314640000000004 353.04109376099996,4.215780000000002 347.091993761,4.135159999999999 341.143993761,4.073030000000003 335.19709376099996,4.029600000000002 329.25169376099996,4.005140000000004 323.30769376099994,4.0 317.3654937609999,4.014489999999995 311.42509376099997,4.048949999999991 305.486593761,4.103699999999996 299.550193761,4.179059999999993 293.61579376099996,4.275360000000006 287.68349376099997,4.392920000000004 281.75349376099996,4.532129999999995 275.82569376099997,4.693349999999995 269.90049376099995,4.87697 263.97789376099996,5.083349999999996 258.0582937610001,5.312870000000004 252.141993761,5.56588 246.229193761,5.842759999999998 240.320493761,6.144019999999998 234.416093761,6.470269999999999 228.51639376100002,6.822130000000001 222.621793761,7.200200000000002 216.732493761,7.605080000000001 210.84869376100002,8.037390000000002 204.970793761,8.497729999999997 199.098893761,8.98686 193.233393761,9.505579999999995 187.374893761,10.054659999999998 181.523893761,10.634889999999999 175.68099376100002,11.247 169.84709376100002,11.891730000000003 164.023093761,12.569980000000001 158.209893761,13.283029999999997 152.40859376100002,14.032119999999999 146.61989376100001,14.818530000000003 140.844893761,15.643460000000005 135.084293761,16.508159999999997 129.33899376099998,17.414139999999996 123.610593761,18.36331 117.90089376099999,19.357499999999995 112.212293761,20.398379999999996 106.547393761,21.487470000000002 100.909343761,22.62641 95.30190376099999,23.818080000000002 89.72883376099999,25.06561 84.193623761,26.372 78.69951376099999,27.74008 73.25013376099999,29.173120000000004 67.852123761,30.67573 62.515323761000005,32.25158 57.252073761000005,33.90274 52.07693376100001,35.630039999999994 47.00888376100001,37.437039999999996 42.069873761000004,39.32679 37.281833761,41.29906 32.668993760999996,43.35109 28.289463760999997,45.47121 24.233173760999996,47.62108 20.575083761,49.74793 17.364583761,51.80384 14.635703761,53.738389999999995 12.363899761,55.518249999999995 10.481901761,57.14028 8.945801760999998,58.612907 7.725885761,59.935379999999995 6.770280761,61.115581 6.021614761,62.171549 5.431530761,63.123874 4.965703861,63.994018 4.598897861,64.802639 4.319850361,65.55990800000001 4.123869361,66.263331 4.012846981,66.9182767 4.0,67.5570401 4.133587561,68.1919128 4.444679061,68.817269 4.8924122610000005,69.432574 5.456686761,70.051537 6.139309761,70.691843 6.961059761,71.366859 7.955166761,72.094162 9.179153760999998,72.895905 10.722047760999999,73.798468 12.717477761,74.823374 15.292963761000001,75.966032 18.410323761,77.159882 21.877773761,78.34033 25.669493761,79.50995 29.858603760999998,80.67479 34.504143760999995,81.83423 39.583353761000005,82.9714 44.959623761,84.04952 50.467883761,85.04034999999999 55.99901376100001,85.93945 61.534103761000004,86.7597 67.09805376100002,87.51169999999999 72.709923761,88.2024 78.37827376099999,88.83691 84.10002376099999,89.419 89.86330376099998,89.95104 95.656433761,90.43525 101.470663761,90.87456 107.300493761,91.27241000000001 113.14399376099999,91.63261 119.001993761,91.95847 124.875793761,92.25259 130.765793761,92.51753 136.67159376100003,92.75585 142.59189376100002,92.97013 148.524693761,93.16283 154.467393761,93.33541 160.41789376100002,93.48885 166.37439376100002,93.62418 172.33569376100002,93.74247 178.300993761,93.84479999999999 184.269893761,93.93227 190.242593761,94.00583 196.218993761,94.06618 202.199393761,94.114 208.183693761,94.14998 214.171593761,94.17482 220.16289376100002,94.18919 226.15709376100003,94.19381 232.153893761,94.18919 238.15279376100003,94.17565 244.15339376100002,94.1535 250.15539376100003,94.12302 256.158593761,94.08454 262.16289376099996,94.03835000000001 268.168293761,93.98476 274.174593761,93.92406 280.182093761,93.8565 286.190593761,93.78228 292.200193761,93.70163 298.21089376099997,93.61475 304.222693761,93.52187 310.235293761,93.4232 316.248793761,93.31897000000001 322.262993761,93.20938 328.277793761,93.09456 334.292993761,92.97461 340.30869376100003,92.84965 346.324693761,92.71978 352.340993761,92.58511 358.357693761,92.44575 364.374893761,92.3018 370.392493761,92.15337 376.410793761,92.00059 382.42969376099995,91.84362 388.449393761,91.68261 394.469893761,91.51771 400.491093761,91.34907 406.512993761,91.17687000000001 412.535493761,91.00125 418.558593761,90.82237 424.581993761,90.64036999999999 430.605793761,90.45532 436.62959376099997,90.26726 442.65359376099997,90.07623000000001 448.67759376099997,89.88227 454.70159376099997,89.68544 460.725593761,89.48576 466.749793761,89.28329 472.77409376099996,89.07805 478.798693761,88.87011 484.823593761,88.65956 490.848993761,88.4465 496.874893761,88.23102 502.901293761,88.01323 508.92809376099996,87.79323 514.9553937609999,87.57111 520.983093761,87.34698 527.010993761,87.12095 533.039093761,86.89307 539.067193761,86.66336 545.0952937609999,86.43181 551.123293761,86.19843 557.151093761,85.96322 563.178793761,85.72619 569.206293761,85.48733 575.233793761,85.24665 581.2612937609999,85.00414 587.288793761,84.75982 593.316393761,84.51375 599.3442937609999,84.26596 605.3722937609999,84.01649 611.400593761,83.76539 617.428993761,83.5127 623.4575937609999,83.25848 629.486393761,83.00276 635.515093761,82.74558999999999 641.543793761,82.487 647.5723937610001,82.22700999999999 653.6008937610001,81.96562 659.629293761,81.70285 665.6575937609999,81.43872 671.6860937609999,81.17323 677.714693761,80.9064 683.7435937609999,80.63822 689.772993761,80.36879 695.803093761,80.09824 701.833993761,79.82675 707.865693761,79.55446 713.898193761,79.28155 719.931593761,79.00818 725.965693761,78.73452 732.0003937609999,78.46074 738.035393761,78.18698 744.070193761,77.91331 750.1049937610001,77.63977 756.139793761,77.36637999999999 762.174893761,77.093198 768.2095937610001,76.820273 774.243793761,76.547662 780.277093761,76.275416 786.309593761,76.00365 792.341093761,75.732538 798.371593761,75.462255 804.4011937610001,75.192972 810.429893761,74.924859 816.457993761,74.65808 822.485693761,74.392797 828.513393761,74.129122 834.5410937610001,73.867079 840.569193761,73.606685 846.5973937609999,73.347965 852.625493761,73.090949 858.653393761,72.835672 864.680493761,72.582183 870.706193761,72.330635 876.7304937609999,72.081252 882.7532937609999,71.834251 888.774893761,71.589833 894.796193761,71.348186 900.8180937609999,71.10948 906.8414937609999,70.873707 912.8667937609999,70.640754 918.893393761,70.41054 924.919993761,70.183012 930.944393761,69.958154 936.9638937609999,69.736162 942.9777937609999,69.517444 948.987793761,69.30233199999999 954.997993761,69.091074 961.0144937609999,68.883304 967.034593761,68.676675 973.037193761,68.468904 978.9833937609999,68.25841199999999 984.8183937609999,68.0441589 990.474993761,67.8259178 995.8621937610001,67.6075758 1000.628993761,67.415651 1003.993893761,67.28718" stroke="black" stroke-width="2.0" /></svg>