<?xml version="1.0" encoding="utf-8" ?>
<svg baseProfile="full" height="108.9527" version="1.1" width="1011.998574845" xmlns="http://www.w3.org/2000/svg" xmlns:ev="http://www.w3.org/2001/xml-events" xmlns:xlink="http://www.w3.org/1999/xlink"><defs /><polygon fill="none" points="1003.998574845,67.40476000000001 1000.716874845,67.34358903 996.375074845,67.2123513 991.507374845,67.0070958 986.250374845,66.7315963 980.6982748449999,66.391745 974.940574845,65.99640600000001 969.050974845,65.557169 963.076374845,65.080932 957.0517748450001,64.57240300000001 951.000374845,64.036011 944.931974845,63.47507 938.849074845,62.891266 932.753674845,62.286035000000005 926.647674845,61.660856 920.532874845,61.017229 914.410974845,60.356375 908.283674845,59.679173000000006 902.152174845,58.986478000000005 896.017574845,58.279135000000004 889.8807748449999,57.557971 883.742274845,56.82372 877.6023748450001,56.07686 871.461274845,55.317800000000005 865.318774845,54.54693 859.174474845,53.76458 853.027674845,52.971090000000004 846.877574845,52.166790000000006 840.723174845,51.35229 834.5640748449999,50.52828 828.4001748449999,49.69551 822.231574845,48.854780000000005 816.0590748449999,48.00697 809.883674845,47.15302 803.706574845,46.29430000000001 797.5290748450001,45.432640000000006 791.352174845,44.56989 785.176574845,43.70787 779.003074845,42.848380000000006 772.831974845,41.993170000000006 766.663774845,41.14397 760.498574845,40.30199 754.336474845,39.46775 748.177374845,38.6417 742.020874845,37.82424 735.866474845,37.01576 729.713374845,36.216620000000006 723.5604748449999,35.42714000000001 717.406674845,34.64752 711.250774845,33.87742 705.091974845,33.116400000000006 698.9295748449999,32.36403000000001 692.7633748449999,31.619930000000004 686.5929748450001,30.883740000000003 680.418774845,30.155140000000003 674.241074845,29.433840000000004 668.060474845,28.719660000000005 661.877674845,28.012660000000004 655.693174845,27.31288 649.507574845,26.620400000000004 643.3213748449999,25.93524 637.134874845,25.257450000000006 630.948574845,24.58706 624.762674845,23.924080000000004 618.5774748450001,23.268620000000006 612.393174845,22.620910000000002 606.209774845,21.981210000000004 600.027474845,21.349780000000003 593.846074845,20.72685 587.665674845,20.11267 581.4860748450001,19.507469999999998 575.3071748450001,18.91147 569.128574845,18.324850000000005 562.9502748450001,17.747710000000005 556.7718748450001,17.180120000000002 550.5933748450001,16.622150000000005 544.4146748449999,16.073880000000003 538.235574845,15.535409999999999 532.056074845,15.006810000000002 525.876174845,14.488180000000007 519.695874845,13.979610000000008 513.515274845,13.481210000000004 507.334374845,12.99306 501.153174845,12.515280000000004 494.971874845,12.047960000000003 488.790574845,11.591200000000008 482.609374845,11.145120000000006 476.42847484500004,10.709800000000001 470.247874845,10.285380000000004 464.067874845,9.872039999999998 457.88857484500005,9.470070000000007 451.710174845,9.079730000000005 445.532774845,8.701260000000005 439.35667484500004,8.33495 433.181974845,7.981030000000004 427.008774845,7.639770000000006 420.837374845,7.311430000000001 414.66787484500003,6.996340000000004 408.500374845,6.694880000000005 402.335074845,6.407400000000003 396.171974845,6.13429 390.011074845,5.8759099999999975 383.852274845,5.632629999999999 377.695474845,5.404789999999998 371.540674845,5.192770000000003 365.387574845,4.996890000000008 359.236274845,4.81748000000001 353.08677484500004,4.654860000000006 346.939074845,4.509360000000001 340.793474845,4.381300000000003 334.650174845,4.271010000000004 328.509474845,4.178820000000009 322.37187484500004,4.105080000000008 316.237874845,4.050320000000006 310.107674845,4.015100000000004 303.981674845,4.0 297.859974845,4.005550000000007 291.742974845,4.032319999999999 285.630474845,4.080839999999995 279.522574845,4.15166 273.41937484500005,4.245340000000006 267.320774845,4.3624400000000065 261.22697484500003,4.503529999999998 255.13807484500003,4.669159999999998 249.05437484499998,4.85989 242.97617484500003,5.076270000000001 236.903674845,5.3188300000000055 230.837574845,5.58822 224.778074845,5.885159999999999 218.72577484500002,6.210380000000001 212.681074845,6.564600000000006 206.644574845,6.948500000000003 200.616574845,7.362769999999998 194.597674845,7.808160000000001 188.588474845,8.28566 182.58997484500003,8.796329999999998 176.603074845,9.341180000000008 170.629274845,9.921170000000004 164.669874845,10.537230000000001 158.72667484500002,11.190249999999999 152.801574845,11.881730000000005 146.896574845,12.613460000000003 141.013474845,13.387190000000004 135.15407484500003,14.20458 129.320074845,15.067240000000005 123.513174845,15.976890000000004 117.735474845,16.93587 111.98997484499999,17.946450000000006 106.27967484499999,19.0107 100.60845484499998,20.13044 94.980224845,21.30736000000001 89.400414845,22.544240000000002 83.875604845,23.844030000000004 78.41314484499999,25.209000000000003 73.020874845,26.640690000000006 67.707594845,28.140490000000007 62.485814845,29.71083 57.371204844999994,31.352470000000004 52.381054845,33.06382 47.533514845,34.84141 42.856174845,36.681430000000006 38.390604845,38.57267 34.180284845,40.49534 30.260084844999998,42.426010000000005 26.663894844999998,44.34167 23.420964845,46.21477 20.536844845,48.02018 17.992784845000003,49.742230000000006 15.766364845,51.37474 13.839877845,52.910520000000005 12.185657845,54.34478 10.767881845,55.67931 9.549412844999999,56.920880000000004 8.501902845,58.079416 7.607541845,59.165361000000004 6.8485398449999995,60.187491 6.207750845,61.153294 5.669608845,62.069234 5.220514845,62.940871 4.850328145,63.772587 4.551373745,64.56863799999999 4.317650045,65.333069 4.147391245,66.066677 4.039395435,66.76779300000001 4.0,67.44008021 4.047636715,68.1061541 4.226336845,68.77281500000001 4.567526545,69.418897 5.030113845,70.03790000000001 5.588755845,70.64244500000001 6.234273845,71.248737 6.970349844999999,71.863149 7.802904845,72.492901 8.744752845,73.145909 9.815456845,73.832445 11.042427845,74.563686 12.463114845,75.347271 14.123684845,76.189628 16.075314845,77.094831 18.363614845,78.06203000000001 21.011184845000002,79.0844 24.015974845000002,80.15737 27.399594845000003,81.28308 31.194144845,82.45369000000001 35.403284845,83.65316 39.994674845000006,84.86104 44.914064845,86.05728 50.091234845,87.21954 55.445334845,88.32974 60.909554845,89.37951000000001 66.450684845,90.36947 72.057974845,91.3004 77.72317484499999,92.17306 83.43886484499998,92.98884000000001 89.198674845,93.74976000000001 94.99752484499999,94.45786000000001 100.83111484499999,95.11517 106.695774845,95.72397000000001 112.58837484499999,96.28677 118.50667484499999,96.80631 124.448974845,97.28507 130.41427484499997,97.72507 136.401074845,98.12833 142.40797484499998,98.49693 148.433074845,98.83302 154.474474845,99.13876 160.530274845,99.41570000000002 166.598874845,99.66501 172.67907484500003,99.88793000000001 178.769774845,100.08573 184.87037484500001,100.25972000000002 190.980674845,100.41123 197.10067484500001,100.5415 203.230374845,100.65166 209.36957484500002,100.74281 215.517874845,100.81608 221.674874845,100.87259 227.839674845,100.9135 234.011374845,100.93995000000001 240.188874845,100.9527 246.37127484500002,100.95224999999999 252.557774845,100.93909000000001 258.747874845,100.91374 264.940974845,100.87669 271.136874845,100.82846 277.335474845,100.76956000000001 283.536874845,100.70045999999999 289.741074845,100.62153 295.948174845,100.53313 302.157974845,100.43566000000001 308.370474845,100.32947000000001 314.585574845,100.21494000000001 320.802974845,100.09247 327.022474845,99.96242000000001 333.243774845,99.82506000000001 339.46657484499997,99.68063000000001 345.690774845,99.52931000000001 351.916174845,99.37133 358.142774845,99.20688000000001 364.370674845,99.03618 370.599774845,98.85944 376.830274845,98.67685 383.062274845,98.48865 389.296074845,98.29507000000001 395.53147484500005,98.09635 401.76877484500005,97.89274 408.007674845,97.68449000000001 414.248274845,97.47184 420.490374845,97.25505000000001 426.733674845,97.03437 432.977974845,96.81 439.22307484500004,96.58205000000001 445.468874845,96.35062 451.715074845,96.11583 457.96177484500004,95.87775 464.208874845,95.63651 470.456574845,95.39218 476.70477484500003,95.14486000000001 482.953874845,94.89466 489.203974845,94.64171 495.45517484500004,94.38618 501.707574845,94.12822 507.9611748450001,93.868 514.216074845,93.6057 520.471974845,93.34146 526.728974845,93.07548 532.986774845,92.80793 539.244974845,92.53892 545.503574845,92.2685 551.7623748450001,91.99671000000001 558.021174845,91.72356 564.2799748450001,91.4491 570.538774845,91.17335 576.797674845,90.89633 583.056674845,90.61806 589.316074845,90.33857 595.576074845,90.05793 601.8366748450001,89.77622 608.098174845,89.49355 614.3603748449999,89.21000000000001 620.6232748450001,88.92568 626.886974845,88.64068 633.151074845,88.35511 639.415474845,88.06908 645.679974845,87.78263 651.944274845,87.49573000000001 658.2081748449999,87.20836 664.471774845,86.92047 670.7348748449999,86.63204 676.997674845,86.34302 683.260074845,86.05337 689.5224748449999,85.76304 695.7849748450001,85.47202 702.047774845,85.18034 708.3109748449999,84.88803 714.574674845,84.59514 720.8387748450001,84.30171 727.103074845,84.0078 733.367574845,83.71345000000001 739.631774845,83.41872000000001 745.895374845,83.12359000000001 752.1582748449999,82.82797000000001 758.420174845,82.53175 764.680974845,82.23483 770.9408748449999,81.9371 777.200074845,81.63843 783.4587748450001,81.3387 789.7173748450001,81.03781000000001 795.976274845,80.73576 802.235574845,80.43256000000001 808.4952748449999,80.12822 814.755174845,79.82279 821.014874845,79.5163 827.2736748450001,79.20881 833.531074845,78.90028000000001 839.786474845,78.59049 846.039374845,78.27917000000001 852.289774845,77.96605 858.538174845,77.65083 864.784974845,77.33321600000001 871.0309748450001,77.012905 877.276974845,76.68973700000001 883.523074845,76.363624 889.768674845,76.034513 896.012374845,75.702391 902.252174845,75.36728000000001 908.485774845,75.02886000000001 914.710874845,74.68613 920.9259748449999,74.337991 927.130374845,73.983317 933.324174845,73.620949 939.5073748450001,73.249747 945.676374845,72.86879900000001 951.822574845,72.477551 957.9330748450001,72.075821 963.988074845,71.660358 969.948674845,71.22221900000001 975.755774845,70.755084 981.343174845,70.25553000000001 986.660974845,69.715545 991.6931748449999,69.127142 996.429674845,68.497342 1000.7373748450001,67.8826341 1003.998574845,67.40476000000001" stroke="black" stroke-width="2.0" /></svg>