<?xml version="1.0" encoding="utf-8" ?>
<svg baseProfile="full" height="105.5122" version="1.1" width="1012.001155192" xmlns="http://www.w3.org/2000/svg" xmlns:ev="http://www.w3.org/2001/xml-events" xmlns:xlink="http://www.w3.org/1999/xlink"><defs /><polygon fill="none" points="1004.001155192,66.43201 1000.656355192,66.48717515000001 996.1303551920001,66.51212035 991.075555192,66.47722613 985.716355192,66.37540185 980.134455192,66.2089833 974.393455192,65.98586230000001 968.548255192,65.71603640000001 962.6410551920001,65.405167 956.703555192,65.05820700000001 950.7542551920001,64.680108 944.798655192,64.274302 938.836955192,63.841863000000004 932.869455192,63.383616 926.8964551920001,62.900408000000006 920.9184551920001,62.393109 914.935955192,61.86267900000001 908.9492551920001,61.310138 902.9585551920001,60.736509000000005 896.964055192,60.142805 890.9653551920001,59.53003100000001 884.962455192,58.89918600000001 878.954855192,58.251288 872.9424551920001,57.587386 866.925155192,56.90854900000001 860.9031551920001,56.21587 854.8768551920001,55.510490000000004 848.846555192,54.793510000000005 842.812955192,54.06575000000001 836.7765551920002,53.327890000000004 830.737655192,52.58057000000001 824.696555192,51.824450000000006 818.653355192,51.06018 812.608155192,50.28837 806.5608551920001,49.50963 800.511255192,48.72449 794.4592551920001,47.933490000000006 788.4048551920001,47.137150000000005 782.3479551920001,46.336020000000005 776.288455192,45.53063 770.226455192,44.721540000000005 764.1620551920001,43.909310000000005 758.095355192,43.094440000000006 752.0264551920001,42.27743000000001 745.9557551920001,41.45881 739.8837551920001,40.63911 733.810955192,39.818870000000004 727.737955192,38.99866000000001 721.665555192,38.17906000000001 715.5945551920001,37.36070000000001 709.5258551920001,36.54428 703.4598551920001,35.73055000000001 697.397255192,34.920190000000005 691.337955192,34.11388 685.282255192,33.31224 679.2298551920001,32.515890000000006 673.1804551920001,31.72542 667.133455192,30.941330000000008 661.0885551920001,30.163930000000008 655.045155192,29.393530000000005 649.0028551920001,28.630430000000004 642.961555192,27.874950000000005 636.920855192,27.127410000000005 630.880755192,26.388160000000006 624.841055192,25.657540000000004 618.8018551920001,24.935880000000004 612.763055192,24.223490000000005 606.7248551920001,23.520630000000004 600.6871551920001,22.827590000000008 594.649955192,22.144630000000006 588.613155192,21.472010000000004 582.576855192,20.810010000000005 576.5407551920001,20.158880000000003 570.5048551920002,19.518870000000007 564.4689551920001,18.890180000000008 558.433055192,18.272920000000006 552.3969551920001,17.667230000000004 546.3606551920001,17.07325 540.3240551920001,16.491120000000002 534.2868551920001,15.920960000000001 528.2491551920001,15.36292000000001 522.2107551920001,14.817130000000006 516.171555192,14.283680000000004 510.131555192,13.762600000000006 504.090655192,13.253900000000002 498.04885519199996,12.757600000000004 492.006055192,12.273710000000008 485.962455192,11.80227 479.91785519200005,11.343290000000003 473.872555192,10.896810000000002 467.82645519199997,10.462860000000006 461.77965519199995,10.041520000000006 455.732355192,9.632900000000006 449.684555192,9.237100000000005 443.636455192,8.854200000000006 437.588155192,8.484310000000008 431.539755192,8.127520000000004 425.491455192,7.783930000000005 419.44335519199996,7.45364 413.395555192,7.136850000000003 407.34835519200004,6.833780000000004 401.301655192,6.5446600000000075 395.255655192,6.2697100000000034 389.21035519199995,6.009140000000009 383.165755192,5.763190000000009 377.121955192,5.532060000000001 371.078955192,5.31597 365.036655192,5.1151900000000055 358.99515519199997,4.929980000000008 352.95455519200004,4.760620000000003 346.914955192,4.607380000000006 340.876655192,4.470530000000004 334.839755192,4.35034000000001 328.80465519200004,4.247090000000007 322.771755192,4.1610900000000015 316.74125519200004,4.092830000000006 310.713655192,4.042870000000001 304.689155192,4.011740000000003 298.667855192,4.0 292.649955192,4.008160000000004 286.635655192,4.03678 280.624755192,4.0863800000000055 274.61745519199997,4.157520000000005 268.613755192,4.250790000000002 262.61385519199996,4.366790000000009 256.617755192,4.50609 250.625955192,4.6692800000000005 244.63865519200002,4.8569300000000055 238.656155192,5.069600000000008 232.679055192,5.3079700000000045 226.707755192,5.572880000000005 220.742855192,5.865170000000006 214.784655192,6.185700000000011 208.833655192,6.535270000000011 202.890255192,6.914730000000006 196.954855192,7.3248900000000035 191.02795519199998,7.766760000000005 185.11005519199998,8.24148000000001 179.20185519199998,8.750150000000005 173.304255192,9.29386000000001 167.418055192,9.873660000000008 161.54425519199998,10.490580000000008 155.683955192,11.145890000000001 149.838455192,11.841240000000006 144.00915519199998,12.578250000000004 138.19745519199998,13.358520000000006 132.404655192,14.183570000000003 126.632255192,15.054930000000006 120.881955192,15.974690000000002 115.156255192,16.94527 109.45815519199999,17.968920000000004 103.790975192,19.047660000000008 98.15862519199999,20.183280000000003 92.565785192,21.378360000000008 87.018225192,22.636770000000006 81.52207519199999,23.962050000000005 76.08359519199999,25.35725 70.70922519199999,26.82501 65.40720519199999,28.369170000000004 60.187835192,29.993840000000006 55.06220519199999,31.701810000000002 50.041775191999996,33.494490000000006 45.142635192,35.37342000000001 40.394445192,37.33675000000001 35.835945192,39.373990000000006 31.507175192,41.46743000000001 27.457995192,43.594820000000006 23.751205192,45.720330000000004 20.429345191999996,47.801350000000006 17.502255192,49.80369 14.981025192,51.69586 12.861519192000001,53.44451000000001 11.100600192,55.03737000000001 9.636731192,56.482730000000004 8.423237191999998,57.798106000000004 7.427526192,58.997780000000006 6.615558192,60.094174 5.954714192,61.099974 5.416985192,62.027489 4.981746492,62.88984000000001 4.632431392,63.701649 4.3598868920000005,64.472395 4.162022292,65.199599 4.038770472,65.8789727 4.0,66.53093981 4.075486062,67.1828875 4.320097292,67.826898 4.714959192,68.45372300000001 5.222904192,69.06770700000001 5.831645192,69.687279 6.546340192000001,70.322709 7.378616192,70.98328400000001 8.348418192,71.68011100000001 9.488020192,72.42875500000001 10.849186192,73.249077 12.506960192000001,74.15786 14.555625192,75.16770700000001 17.083115192,76.27679 20.098645192,77.45329000000001 23.516915192,78.65838000000001 27.311485192,79.88439000000001 31.508885192,81.12246 36.111115192,82.35832 41.077365191999995,83.57409000000001 46.322655192,84.74591000000001 51.742655192,85.85087 57.24961519199999,86.87873 62.800105192000004,87.83287000000001 68.392885192,88.72065 74.033755192,89.54688 79.724545192,90.31565 85.462575192,91.0306 91.24065519199999,91.69465000000001 97.05052519200001,92.30957000000001 102.885355192,92.87736000000001 108.740055192,93.40044 114.611555192,93.88159 120.498455192,94.32362 126.401055192,94.72867000000001 132.318955192,95.09864 138.251855192,95.43547000000001 144.198655192,95.74108000000001 150.158155192,96.01743 156.128755192,96.26621 162.109055192,96.48856 168.097755192,96.68560000000001 174.094155192,96.85848000000001 180.097455192,97.00837000000001 186.107255192,97.13648 192.123655192,97.24398000000001 198.146455192,97.3319 204.175855192,97.40122000000001 210.211655192,97.45292 216.253555192,97.48798000000001 222.30105519199998,97.50741000000001 228.35365519200002,97.5122 234.41075519199998,97.50328 240.471655192,97.48119 246.53565519199998,97.44642 252.602555192,97.39943000000001 258.67175519200003,97.34072 264.743255192,97.27078 270.81675519199996,97.19008000000001 276.892355192,97.09911 282.96995519200004,96.99829000000001 289.049855192,96.88801000000001 295.131955192,96.76864 301.21615519200003,96.64056000000001 307.30245519199997,96.50417 313.390655192,96.35985000000001 319.480755192,96.20799000000001 325.572355192,96.04897000000001 331.665455192,95.88306 337.759655192,95.71048 343.854955192,95.53147000000001 349.951355192,95.34625 356.048655192,95.15504000000001 362.146955192,94.95808000000001 368.246355192,94.75559000000001 374.346855192,94.54778 380.448655192,94.3349 386.551855192,94.11722 392.656555192,93.89500000000001 398.762755192,93.66850000000001 404.870355192,93.43798000000001 410.979355192,93.20373000000001 417.08955519200003,92.96600000000001 423.20095519200004,92.72507 429.31325519200004,92.48118000000001 435.426355192,92.23445000000001 441.540055192,91.98499000000001 447.654155192,91.73293000000001 453.768655192,91.47836000000001 459.88365519200005,91.2214 465.99895519200004,90.96216000000001 472.114655192,90.70074 478.23095519199995,90.43725 484.34795519200003,90.1718 490.46565519200004,89.90456 496.58415519199997,89.63566 502.703555192,89.36526 508.82385519199994,89.0935 514.944955192,88.82055 521.066955192,88.54655 527.1895551920001,88.27166 533.3128551920001,87.99602000000002 539.436555192,87.71971 545.560655192,87.44277000000001 551.6849551920001,87.16524000000001 557.8094551920001,86.88714 563.934055192,86.60852 570.0586551920001,86.32942 576.183255192,86.04986000000001 582.3077551920001,85.76987 588.432355192,85.48952 594.5568551920001,85.20886 600.6812551920001,84.928 606.8057551920001,84.64701000000001 612.930255192,84.36599000000001 619.054755192,84.08501000000001 625.179255192,83.80417 631.3039551920001,83.52354000000001 637.428755192,83.24322000000001 643.553755192,82.96323000000001 649.6788551920001,82.68356 655.804255192,82.4042 661.929755192,82.12514 668.0554551920001,81.84637000000001 674.181155192,81.56787 680.3068551920001,81.28963 686.432455192,81.01165 692.5577551920001,80.73394 698.682655192,80.45655000000001 704.8071551920001,80.17955 710.9312551920001,79.90301000000001 717.054955192,79.62697 723.178255192,79.35152000000001 729.301355192,79.07669000000001 735.424255192,78.80254000000001 741.547455192,78.52912 747.6707551920001,78.25637 753.7945551920001,77.98426 759.9186551920001,77.71274 766.0431551920001,77.44177 772.1679551920001,77.17133000000001 778.292855192,76.90137 784.4175551920001,76.63187 790.5417551920001,76.36287200000001 796.6654551920001,76.09450000000001 802.788355192,75.82687100000001 808.9104551920001,75.56009700000001 815.031955192,75.29428700000001 821.152955192,75.02954600000001 827.273855192,74.76597000000001 833.394855192,74.50355900000001 839.5163551920001,74.242188 845.638555192,73.98172600000001 851.761655192,73.722048 857.8855551920001,73.463032 864.0101551920001,73.20456100000001 870.1354551920001,72.94654 876.261155192,72.688973 882.3869551920001,72.431894 888.512555192,72.175342 894.6377551920001,71.919354 900.762255192,71.66396900000001 906.885455192,71.409081 913.007155192,71.15417500000001 919.126755192,70.89867000000001 925.2438551920001,70.641986 931.3578551920001,70.383549 937.4681551920002,70.12282 943.573655192,69.85938800000001 949.6726551920001,69.592894 955.762355192,69.323023 961.8389551920001,69.048843 967.8881551920001,68.765866 973.874855192,68.469406 979.7468551920001,68.156373 985.441155192,67.822339 990.8930551920001,67.462563 996.034555192,67.0798936 1000.638955192,66.71045240000001 1004.001155192,66.43201" stroke="black" stroke-width="2.0" /></svg>