<?xml version="1.0" encoding="utf-8" ?>
<svg baseProfile="full" height="98.57066" version="1.1" width="1011.99439233" xmlns="http://www.w3.org/2000/svg" xmlns:ev="http://www.w3.org/2001/xml-events" xmlns:xlink="http://www.w3.org/1999/xlink"><defs /><polygon fill="none" points="1003.99439233,61.20247 1000.65159233,61.22003553 995.91459233,61.198633463 990.62289233,61.115845629999995 985.14249233,60.9724765 979.50759233,60.773855999999995 973.74099233,60.5277764 967.88929233,60.242787899999996 962.00129233,59.92422 956.10939233,59.57698 950.22569233,59.205254 944.34649233,58.811007 938.4657923299999,58.394673 932.5798923299999,57.95671 926.68719233,57.497702 920.78839233,57.018412999999995 914.88529233,56.519788999999996 908.97939233,56.002804999999995 903.07159233,55.468407 897.16239233,54.917505999999996 891.25159233,54.350963 885.33859233,53.769622 879.42269233,53.174357 873.50349233,52.566068 867.58079233,51.945682 861.65459233,51.314153 855.7250923299999,50.67247 849.79299233,50.02154 843.85859233,49.36199 837.92249233,48.69439 831.98499233,48.01929 826.0460923300001,47.33723 820.10619233,46.64874 814.16489233,45.95433 808.22229233,45.25449 802.27819233,44.549679999999995 796.33229233,43.840329999999994 790.38469233,43.12692 784.4352923299999,42.40989999999999 778.48419233,41.68975 772.5312923299999,40.96695 766.5769923299999,40.241969999999995 760.62119233,39.515249999999995 754.66429233,38.78717999999999 748.70659233,38.058189999999996 742.7482923299999,37.32871 736.78979233,36.59916 730.8315923299999,35.86999 724.8740923299999,35.14163 718.91769233,34.41457 712.96309233,33.68938 707.01029233,32.96662 701.0597923299999,32.24686 695.11139233,31.53062 689.1653923299999,30.818429999999996 683.22139233,30.110789999999998 677.27919233,29.40821 671.33859233,28.711100000000002 665.3990923299999,28.019750000000002 659.4604923300001,27.334399999999995 653.5224923300001,26.65531 647.5848923299999,25.98274 641.6476923299999,25.316959999999995 635.71069233,24.658229999999996 629.77379233,24.00685 623.83719233,23.363079999999997 617.90069233,22.72719 611.96449233,22.09941 606.0285923299999,21.479969999999994 600.0928923299999,20.86911 594.1574923300001,20.267070000000004 588.22219233,19.674059999999997 582.28709233,19.09033 576.3518923299999,18.516080000000002 570.41679233,17.951499999999996 564.48139233,17.39671 558.54579233,16.85181 552.60989233,16.316899999999997 546.67369233,15.792110000000001 540.7369923299999,15.277539999999995 534.79979233,14.773299999999999 528.86199233,14.279519999999998 522.9235923299999,13.796279999999996 516.9845923299999,13.323639999999997 511.0448923299999,12.861629999999998 505.10449232999997,12.410259999999994 499.16349232999994,11.969579999999993 493.22169232999994,11.5396 487.27929233,11.120370000000001 481.33629233,10.711889999999997 475.39259232999996,10.314219999999992 469.44839232999993,9.927389999999995 463.50359233,9.551490000000001 457.55839233,9.18658 451.61279233,8.832749999999997 445.66679233,8.490069999999996 439.72059233,8.158629999999995 433.77429233,7.838500000000003 427.82789232999994,7.529760000000003 421.88159233,7.232509999999998 415.93549233,6.946899999999992 409.98969232999997,6.67315 404.04409233,6.411429999999996 398.09899233,6.161940000000001 392.15429233,5.9248699999999985 386.21009232999995,5.700409999999998 380.26629233,5.488730000000004 374.32289233,5.2900299999999945 368.37999232999994,5.104529999999997 362.43749233,4.932450000000003 356.49549233,4.774029999999996 350.55409233,4.6295 344.61349233,4.4990999999999985 338.67379233,4.383049999999997 332.73519232999996,4.281590000000001 326.79799233,4.194960000000002 320.86249232999995,4.123560000000005 314.92889233,4.0678899999999985 308.99739233,4.028420000000004 303.06809232999996,4.0056299999999965 297.14129232999994,4.0 291.21679233,4.0120099999999965 285.29489233,4.042139999999996 279.37539232999995,4.090859999999999 273.45849232999996,4.158699999999996 267.54399233,4.246169999999999 261.63229233,4.353809999999996 255.72349233,4.482140000000001 249.81769233,4.631659999999997 243.91529233,4.802899999999994 238.01659233000004,4.996369999999999 232.12179233,5.212769999999992 226.23149233,5.4529 220.34599233000003,5.7175299999999964 214.46559233000002,6.007449999999999 208.59069233000002,6.323419999999999 202.72149233,6.6662000000000035 196.85829233,7.0366 191.00159233000002,7.435589999999998 185.15179233,7.864220000000003 179.30929233,8.323509999999999 173.47479233,8.81447 167.64889233000002,9.338099999999997 161.83209233,9.895389999999999 156.02529233,10.487590000000004 150.22939233000002,11.116230000000002 144.44559233,11.782819999999994 138.67479233,12.488829999999993 132.91829233,13.235689999999998 127.17719233,14.024809999999995 121.45319233,14.858249999999998 115.74819233,15.738369999999996 110.06439232999999,16.667479999999998 104.40429232999999,17.647719999999993 98.77047232999999,18.681130000000003 93.16633233,19.77057 87.59652233,20.920199999999994 82.06654233,22.133909999999993 76.58258233,23.415040000000005 71.15142233,24.766509999999997 65.78110233,26.192679999999996 60.47951233,27.699169999999995 55.253052329999996,29.291379999999997 50.106762329999995,30.974489999999996 45.049922329999994,32.75517 40.109202329999995,34.637339999999995 35.32661233,36.615030000000004 30.75193233,38.673 26.445632330000002,40.79391 22.46858233,42.95224 18.85972233,45.11578 15.66533233,47.24343 12.98886933,49.24275 10.84664833,51.03577 9.15295133,52.613951 7.8277813300000005,54.001324999999994 6.80542533,55.219159 6.01683433,56.292826 5.40433433,57.249409 4.92721503,58.116918999999996 4.55686453,58.919129999999996 4.2814469299999995,59.664179999999995 4.09440423,60.3499342 4.0,60.992442 4.01915483,61.6242369 4.21132243,62.246607 4.57606953,62.859759 5.0722263299999995,63.466601 5.6876703299999996,64.086717 6.43562133,64.73604499999999 7.34160033,65.43061 8.447743330000002,66.190484 9.82388033,67.04742999999999 11.595242330000001,68.041285 13.964012330000001,69.216124 17.139432329999998,70.577786 20.99261233,71.99973 25.11825233,73.35083 29.47581233,74.64289 34.15172233,75.89766 39.19289233,77.12326 44.542632329999996,78.30527000000001 50.06470233,79.41432 55.63963233,80.43491 61.208932329999996,81.36995 66.77835232999999,82.23199 72.37261233,83.0303 78.00799233,83.77131 83.69085233,84.45971 89.41691233,85.09882999999999 95.17506233,85.69029 100.95518233,86.23559 106.74989233,86.73680999999999 112.55489233,87.19647 118.36869233,87.61744999999999 124.19249233,88.00223 130.02769232999998,88.3528 135.87479233000002,88.6711 141.73399233,88.95903 147.60459233,89.21848 153.48519233000002,89.45127 159.37409233000002,89.65869 165.27009233,89.84177 171.17199233000002,90.00157 177.07899233,90.13918 182.99059233,90.25571 188.90679233,90.35229 194.82759233000002,90.42998 200.75319233000002,90.48973 206.68369233,90.53246 212.61909233,90.55912000000001 218.55899233,90.57066 224.50329233000002,90.56801 230.45129233,90.55213 236.40249233000003,90.52378999999999 242.35629233,90.48344 248.31239233000002,90.43154 254.27039233000002,90.36851 260.22999233,90.29482 266.19109233,90.21089 272.15359233,90.11719 278.11749233,90.01414 284.08289233,89.90213 290.04999233,89.78152 296.01859233,89.65266 301.98879232999997,89.51592 307.96059233,89.37165999999999 313.93389232999994,89.22025 319.90849232999994,89.06204 325.88419232999996,88.8974 331.86099233,88.72657 337.83859233,88.54975999999999 343.81689233000003,88.36717 349.79589232999996,88.17901 355.77559233,87.98548 361.75589233,87.7868 367.73699233,87.58315999999999 373.71889233,87.37477 379.70169233,87.16185 385.68549233,86.94465 391.67039233,86.72341 397.65649233,86.49838 403.64359233,86.26982 409.63179232999994,86.03799 415.62099233,85.80312 421.61109232999996,85.56549 427.60199233,85.32533 433.59339233,85.08278 439.58519233,84.83795 445.57749233,84.59093 451.56999233,84.34182 457.56279233,84.09072 463.55579233,83.83773 469.54909232999995,83.58295 475.54269232999997,83.32647 481.53679232999997,83.06839 487.53139232999996,82.80884 493.52659232999997,82.54798 499.52239233,82.28594 505.51889233,82.02286 511.51609232999994,81.75889 517.51399233,81.49417 523.51239233,81.22886 529.5114923299999,80.9631 535.5110923299999,80.697 541.51099233,80.43061 547.51129233,80.16397 553.51189233,79.89711 559.5123923299999,79.63005 565.51299233,79.36285 571.5134923300001,79.09552 577.51399233,78.82808 583.51439233,78.56058999999999 589.5144923299999,78.29308 595.51429233,78.02565 601.5136923299999,77.75838999999999 607.5126923299999,77.49136999999999 613.5112923300001,77.22469 619.50949233,76.95842999999999 625.50749233,76.69266999999999 631.50519233,76.42749 637.5027923299999,76.16298 643.50039233,75.89916 649.49799233,75.63602 655.49579233,75.37355 661.49369233,75.11173 667.49179233,74.85055 673.48999233,74.59 679.4882923299999,74.33006999999999 685.48659233,74.07075 691.48469233,73.81205 697.48259233,73.55403 703.48019233,73.29675 709.4773923299999,73.04028 715.4741923299999,72.78469 721.4706923299999,72.53004 727.46699233,72.27638999999999 733.46309233,72.02381 739.4592923299999,71.77235 745.4555923300001,71.52199999999999 751.4521923299999,71.27273 757.44919233,71.024498 763.44649233,70.777276 769.4439923299999,70.531036 775.4415923299999,70.285752 781.4391923300001,70.0414 787.43639233,69.797983 793.43319233,69.55560799999999 799.42929233,69.314402 805.42459233,69.074489 811.4193923299999,68.835989 817.41359233,68.599019 823.4075923299999,68.363692 829.40169233,68.13010299999999 835.39609233,67.89821699999999 841.3911923300001,67.66793799999999 847.38689233,67.439173 853.38329233,67.211837 859.38009233,66.985848 865.37689233,66.76113 871.37349233,66.537649 877.36939233,66.31547 883.3644923300001,66.094663 889.35909233,65.875292 895.35359233,65.657408 901.3487923299999,65.441053 907.34559233,65.226112 913.34439233,65.012158 919.34489233,64.798749 925.34619233,64.58547 931.3461923299999,64.371936 937.3425923299999,64.15782999999999 943.33379233,63.94296 949.3206923299999,63.72708 955.30639233,63.509858 961.29609233,63.290493 967.28609233,63.065346999999996 973.24809233,62.830329 979.12889233,62.582712 984.86689233,62.318931 990.4297923299999,62.0327596 995.80059233,61.7210469 1000.6282923299999,61.4188523 1003.99439233,61.20247" stroke="black" stroke-width="2.0" /></svg>