<?xml version="1.0" encoding="utf-8" ?>
<svg baseProfile="full" height="124.55479" version="1.1" width="1011.994867141" xmlns="http://www.w3.org/2000/svg" xmlns:ev="http://www.w3.org/2001/xml-events" xmlns:xlink="http://www.w3.org/1999/xlink"><defs /><polygon fill="none" points="1003.994867141,89.49481 1000.7553671410001,89.1194606 996.6625671410001,88.6260691 992.163067141,88.06518 987.252767141,87.44022100000001 981.951767141,86.755132 976.307367141,86.015167 970.378967141,85.227688 964.224067141,84.398753 957.900767141,83.533938 951.458667141,82.637842 944.9294671409999,81.713315 938.334967141,80.762889 931.692867141,79.788808 925.015867141,78.79276 918.311367141,77.77591 911.583667141,76.73946000000001 904.835967141,75.68459 898.070667141,74.61235 891.288667141,73.52366 884.490367141,72.41938999999999 877.6756671410001,71.30058 870.844967141,70.1683 863.998767141,69.02369 857.137767141,67.86796 850.262967141,66.70232 843.375667141,65.52775 836.476667141,64.34517 829.566967141,63.1555 822.6472671409999,61.95964 815.718067141,60.75847 808.779967141,59.55281 801.833767141,58.34337000000001 794.8804671409999,57.13096 787.921867141,55.916439999999994 780.960067141,54.70078 773.997567141,53.48501 767.037267141,52.27026 760.0820671409999,51.05771 753.1341671409999,49.84847 746.195367141,48.64355 739.266867141,47.44384 732.349367141,46.250150000000005 725.4430671409999,45.06318 718.5476671409999,43.8836 711.662867141,42.71212 704.788267141,41.54941 697.9235671409999,40.39615 691.0684671409999,39.25303 684.222567141,38.1207 677.3854671409999,36.99982 670.5569671410001,35.890989999999995 663.736667141,34.79473 656.9243671410001,33.71161 650.119667141,32.64214 643.3223671410001,31.58688 636.532267141,30.546349999999997 629.748967141,29.521079999999998 622.972267141,28.511580000000002 616.2020671409999,27.518310000000007 609.4380671409999,26.541740000000004 602.6799671409999,25.582340000000002 595.927767141,24.640559999999994 589.181067141,23.716880000000003 582.439667141,22.811729999999997 575.703367141,21.925539999999998 568.971967141,21.058580000000006 562.244867141,20.21114 555.521667141,19.38346 548.8013671409999,18.575810000000004 542.0833671409999,17.78841 535.366567141,17.021490000000014 528.649767141,16.275220000000004 521.932067141,15.549509999999998 515.2126671410001,14.84424 508.491167141,14.159330000000011 501.76736714099997,13.49475000000001 495.041667141,12.850470000000001 488.314267141,12.226510000000005 481.586267141,11.622920000000008 474.858367141,11.039910000000006 468.131567141,10.477809999999991 461.40666714099996,9.936900000000009 454.684267141,9.417470000000009 447.964767141,8.91976000000001 441.248667141,8.444029999999998 434.536167141,7.9905000000000115 427.82736714099997,7.559429999999992 421.12246714099996,7.15115999999999 414.42166714099994,6.7660199999999975 407.725167141,6.404330000000002 401.033267141,6.066430000000011 394.346267141,5.752629999999996 387.664667141,5.463260000000005 380.98886714099996,5.198669999999993 374.319167141,4.959280000000007 367.656067141,4.745509999999996 360.999667141,4.557750000000013 354.35026714099996,4.396420000000006 347.70786714099995,4.261919999999989 341.07266714099995,4.154620000000008 334.444667141,4.074929999999995 327.82386714099994,4.023250000000004 321.21056714099996,4.0 314.605167141,4.005570000000006 308.00836714099995,4.040350000000004 301.42086714100003,4.104740000000007 294.843567141,4.199079999999995 288.27756714099996,4.3238600000000105 281.723767141,4.47972 275.18336714099996,4.6673100000000005 268.65726714100003,4.887230000000002 262.14626714099995,5.1400799999999975 255.65136714099998,5.426419999999993 249.17326714099997,5.746839999999992 242.71296714099998,6.102080000000001 236.27136714099998,6.492920000000012 229.84976714099997,6.920109999999994 223.449767141,7.384350000000012 217.072667141,7.886250000000004 210.720267141,8.426419999999993 204.39466714099999,9.005700000000004 198.097767141,9.625109999999992 191.83216714099999,10.285629999999998 185.600167141,10.98808000000001 179.404467141,11.73320000000001 173.247567141,12.521619999999999 167.13256714099998,13.354320000000001 161.062767141,14.232529999999997 155.041367141,15.157290000000003 149.07206714099996,16.129430000000013 143.15836714099999,17.14958 137.30376714099998,18.21826 131.512567141,19.336470000000006 125.789967141,20.505030000000005 120.141167141,21.72431999999999 114.571867141,22.994240000000005 109.087767141,24.314300000000003 103.695257141,25.68425 98.40221714100001,27.10385 93.217067141,28.57192 88.148337141,30.086460000000002 83.204177141,31.64468 78.392977141,33.24368 73.724647141,34.8804 69.209327141,36.55045 64.856177141,38.24837 60.672537141,39.96806 56.664457141,41.70336 52.839347141000005,43.447770000000006 49.204227141,45.19344 45.763767140999995,46.93204 42.519227141,48.65559 39.468647141000005,50.35729 36.609527140999994,52.03217 33.938207141,53.67573 31.448677140999997,55.2839 29.132717141,56.85356 26.980447141,58.38265 24.981217141000002,59.87022 23.125987141000003,61.316590000000005 21.406327141000002,62.72228 19.813537140999998,64.08785 18.338797141,65.41408 16.973357141,66.70199 15.708717141,67.95279000000001 14.536837141,69.16789 13.451382141,70.34909999999999 12.447280141,71.49847 11.519471141,72.61791 10.663005141,73.70919 9.873118141,74.77396 9.145290141,75.81376 8.475266141,76.83002 7.859076140999999,77.82408 7.293203140999999,78.79712 6.776115141,79.749785 6.3071261409999995,80.68244200000001 5.885278141000001,81.595502 5.509402141,82.48941 5.178182141000001,83.364635 4.890200641,84.221667 4.643980941,85.061006 4.438017741,85.883155 4.271333441,86.688468 4.143835941,87.477563 4.055411231,88.251964 4.006685371,89.0135963 4.0,89.7652523 4.038900061,90.512057 4.133950541,91.259258 4.307627841,92.005071 4.588147941,92.729412 5.001109141000001,93.404123 5.523649141,94.02846100000001 6.123003141,94.611786 6.783560141,95.167599 7.497666141,95.70476000000001 8.264049141000001,96.22682 9.081096141,96.737597 9.949478141,97.239867 10.871466140999999,97.73605 11.849383141,98.229167 12.886348141,98.721887 13.986592141000001,99.215845 15.155937141,99.7113 16.400977141,100.20849 17.729027141000003,100.70776000000001 19.148177140999998,101.2097 20.667277141,101.71521 22.295937141,102.22561 24.044467141000002,102.74296 25.923947141,103.27036 27.947187141,103.81119 30.130917141,104.36619 32.493867140999996,104.93532 35.054757140999996,105.51794 37.830697140999995,106.11266 40.837247141,106.71771 44.089137141,107.33152 47.602767141,107.95298 51.395077141,108.57909000000001 55.476957141,109.20531 59.849897141,109.82623 64.505297141,110.4363 69.427537141,111.03099 74.599767141,111.60603 80.000657141,112.15596000000001 85.602277141,112.67603 91.374207141,113.16295 97.289157141,113.61536000000001 103.327397141,114.03296 109.47286714100001,114.41505000000001 115.710267141,114.7615 122.025467141,115.07285 128.406967141,115.35028 134.846367141,115.59532 141.337367141,115.80906999999999 147.874367141,115.99269000000001 154.45236714099997,116.14751000000001 161.066867141,116.27508 167.71436714099997,116.37705 174.392167141,116.45489 181.097767141,116.50970000000001 187.829067141,116.5426 194.583967141,116.55479 201.360467141,116.54751 208.156867141,116.52207 214.971767141,116.47955999999999 221.80356714099997,116.42078000000001 228.650967141,116.34653 235.51276714099998,116.2576 242.38766714099998,116.15485 249.274367141,116.03911 256.171967141,115.91122 263.079367141,115.77175 269.99566714099996,115.62115 276.920367141,115.45992 283.852667141,115.28852 290.792467141,115.10744 297.73946714100003,114.91717 304.69356714099996,114.71817 311.65486714099995,114.51088 318.62336714099996,114.29573 325.598967141,114.07316 332.581367141,113.84362 339.57056714099997,113.60755 346.566067141,113.3654 353.567667141,113.11762 360.57486714099997,112.86456000000001 367.587267141,112.60654 374.60476714099997,112.34388 381.626967141,112.07689 388.653667141,111.80589 395.684667141,111.5312 402.719967141,111.25312 409.759367141,110.97196 416.802767141,110.68795 423.850167141,110.40136 430.901467141,110.11242 437.956367141,109.8214 445.014867141,109.52855 452.07676714099995,109.23413000000001 459.141767141,108.93838 466.209767141,108.64147 473.280367141,108.34354 480.353267141,108.04473 487.428267141,107.74517 494.504767141,107.44501 501.582367141,107.1444 508.66066714100003,106.84348 515.7389671410001,106.54239 522.816967141,106.24126 529.894367141,105.94022 536.9707671409999,105.63937 544.046367141,105.33882 551.1211671409999,105.03868 558.195467141,104.73904 565.2696671409999,104.43998 572.344067141,104.14151 579.419367141,103.84355000000001 586.4955671409999,103.54602 593.572767141,103.24885 600.651167141,102.95197 607.730367141,102.65532 614.810167141,102.35885 621.889967141,102.06253 628.969467141,101.76641000000001 636.0480671409999,101.4706 643.125667141,101.17518 650.2019671410001,100.88023 657.276967141,100.58584 664.350767141,100.29208 671.4235671409999,99.99901 678.4955671409999,99.70669 685.566967141,99.41514000000001 692.637967141,99.12438900000001 699.708567141,98.834472 706.778567141,98.545428 713.8478671409999,98.257298 720.916167141,97.970128 727.983167141,97.683998 735.048367141,97.399038 742.111667141,97.11538 749.173067141,96.833148 756.232667141,96.552463 763.290667141,96.273439 770.347567141,95.996184 777.4035671409999,95.720756 784.4592671409999,95.447166 791.514567141,95.17543 798.5693671409999,94.905574 805.6233671409999,94.637628 812.675867141,94.371635 819.726167141,94.107683 826.773467141,93.846013 833.817167141,93.586895 840.856667141,93.33059 847.891867141,93.077352 854.922567141,92.827427 861.948967141,92.58105 868.970567141,92.338453 875.986867141,92.099886 882.996167141,91.865615 889.996667141,91.635918 896.9856671409999,91.41113 903.9597671409999,91.191939 910.914067141,90.97921600000001 917.8423671410001,90.773841 924.7374671409999,90.576691 931.5902671409999,90.3887335 938.3881671409999,90.2113326 945.1125671409999,90.0459378 951.740467141,89.893911 958.245367141,89.7566623 964.590067141,89.6364654 970.7237671409999,89.53544299 976.593467141,89.45489458 982.152367141,89.39744439 987.361667141,89.366664 992.198567141,89.36345730000001 996.657867141,89.3870135 1000.7428671409999,89.43546658 1003.994867141,89.49481" stroke="black" stroke-width="2.0" /></svg>