<?xml version="1.0" encoding="utf-8" ?>
<svg baseProfile="full" height="139.52888" version="1.1" width="1011.9991284895" xmlns="http://www.w3.org/2000/svg" xmlns:ev="http://www.w3.org/2001/xml-events" xmlns:xlink="http://www.w3.org/1999/xlink"><defs /><polygon fill="none" points="1003.9991284895,97.52729 1000.6390284895,97.522336817 996.5020284894999,97.48097025999999 992.0694284895,97.3992219 987.3343284895,97.27725969999999 982.2987284895,97.11397649999999 976.9745284895,96.90741 971.3807284894999,96.65708769999999 965.5392284895,96.362921 959.4765284895,96.024676 953.2229284895,95.64322999999999 946.8072284895001,95.220339 940.2540284895,94.757531 933.5863284894999,94.256209 926.8251284895,93.71815699999999 919.9876284894999,93.14532 913.0861284895,92.539413 906.1300284895,91.90181799999999 899.1282284895,91.233976 892.0879284895,90.537386 885.0153284895,89.81354499999999 877.9149284895,89.06373199999999 870.7903284895,88.28890799999999 863.6447284895,87.49 856.4805284894999,86.66793 849.2995284895,85.82356999999999 842.1028284895,84.95772 834.8912284895,84.07110999999999 827.6653284895,83.16441999999999 820.4257284895,82.23836 813.1733284894999,81.29368 805.9087284894999,80.33112 798.6327284895,79.35143 791.3462284894999,78.35524999999998 784.0497284895,77.34313999999999 776.7436284894999,76.31564 769.4282284894999,75.27328 762.1037284895,74.21658 754.7698284895,73.14603 747.4262284895,72.06210999999999 740.0729284895,70.96531999999999 732.7097284895,69.85616999999999 725.3366284895,68.73521 717.9538284895,67.60301 710.5614284894999,66.46016 703.1599284895,65.30726999999999 695.7497284895,64.14489999999999 688.3310284895,62.973549999999996 680.9038284895,61.79371999999999 673.4680284895,60.60585999999999 666.0233284894999,59.41040999999999 658.5690284895,58.20777 651.1046284895,56.99833999999999 643.6293284895,55.78256999999999 636.1431284895,54.56105999999999 628.6465284894999,53.33445 621.1404284895,52.10352999999999 613.6265284895001,50.86914999999999 606.1069284895,49.632299999999994 598.5844284894999,48.39401999999999 591.0618284895,47.15539999999999 583.5416284894999,45.917469999999994 576.0262284895,44.6812 568.5176284895,43.447509999999994 561.0172284895,42.21725999999999 553.5266284894999,40.99126999999999 546.0465284894999,39.77029999999999 538.5779284895,38.555189999999996 531.1214284895,37.346779999999995 523.6773284894999,36.145869999999995 516.2462284894999,34.953219999999995 508.82812848949993,33.76958 501.42322848949993,32.59564 494.03142848949994,31.432109999999994 486.6528284895,30.279719999999983 479.2875284895,29.139229999999998 471.9357284895,28.011399999999995 464.5977284895,26.89699999999999 457.27412848949996,25.796819999999983 449.96542848949997,24.711629999999985 442.67242848949996,23.642259999999993 435.3957284895,22.58972999999999 428.13602848949995,21.555029999999988 420.8936284895,20.53913 413.66912848949994,19.542969999999997 406.46272848949997,18.567449999999994 399.2747284895,17.613439999999997 392.1053284895,16.681849999999983 384.9547284895,15.773679999999985 377.8235284895,14.889969999999991 370.7124284895,14.031759999999991 363.6223284895,13.200069999999997 356.55442848949997,12.395909999999986 349.5099284895,11.62026999999999 342.4903284895,10.874369999999999 335.4970284895,10.159620000000004 328.5312284895,9.477379999999997 321.5941284895,8.828940000000003 314.6867284895,8.215529999999987 307.8102284895,7.638289999999998 300.9653284895,7.098349999999996 294.1531284895,6.597049999999996 287.3750284895,6.1357599999999906 280.63262848949995,5.715789999999984 273.9277284895,5.338359999999994 267.26262848949995,5.00461 260.6395284895,4.715599999999995 254.06102848950002,4.472849999999994 247.53032848950002,4.278279999999995 241.0514284895,4.13364 234.6284284895,4.040459999999982 228.2660284895,4.0 221.9689284895,4.013289999999998 215.74202848950003,4.081799999999987 209.5890284895,4.20783999999999 203.51162848950003,4.393489999999986 197.50972848950002,4.640589999999989 191.5821284895,4.950829999999996 185.7261284895,5.325789999999984 179.93872848950002,5.766759999999991 174.21762848950002,6.274479999999997 168.5613284895,6.849580000000003 162.9689284895,7.49257999999999 157.4401284895,8.203919999999997 151.9752284895,8.98384999999999 146.5753284895,9.832519999999988 141.2421284895,10.749839999999992 135.97812848950002,11.73545 130.78632848949997,12.788690000000003 125.6700284895,13.90858999999999 120.6326284895,15.093859999999992 115.67792848949999,16.34335999999999 110.8097284895,17.656059999999997 106.0309284895,19.030739999999994 101.3435684895,20.466109999999986 96.7494384895,21.960759999999993 92.24982848949999,23.513019999999997 87.8472584895,25.12003999999999 83.5460784895,26.777900000000002 79.35181848949999,28.48174999999999 75.2706184895,30.22592999999999 71.3086284895,32.004189999999994 67.4722484895,33.810379999999995 63.7678084895,35.638479999999994 60.2006084895,37.48212999999999 56.7744484895,39.33494999999999 53.491508489500006,41.190749999999994 50.3524284895,43.04382 47.3577284895,44.889199999999995 44.5076984895,46.72199 41.801628489500004,48.53730999999999 39.2374884895,50.33069 36.811998489500006,52.09821999999999 34.520738489500005,53.836679999999994 32.359178489499996,55.54382999999999 30.3225784895,57.218199999999996 28.405508489499997,58.85878999999999 26.6020184895,60.46509 24.9059084895,62.03698 23.310908489499997,63.57469999999999 21.8107984895,65.07871999999999 20.400038489499998,66.5497 19.0741384895,67.98809 17.8289284895,69.39411 16.6603884895,70.76791 15.5645984895,72.10968 14.537648489499999,73.41967 13.5757284895,74.69825 12.6750864895,75.94592999999999 11.8322114895,77.16331 11.0445664895,78.35134 10.3097974895,79.51131 9.6253844895,80.64466999999999 8.9887754895,81.75298 8.397466489500001,82.83779999999999 7.8490594895,83.90065999999999 7.3412864895,84.94300999999999 6.872024489499999,85.96627 6.4393014895,86.97173 6.0414414895,87.96058199999999 5.6783014895,88.933422 5.3504694895,89.89022899999999 5.0584004895,90.830648 4.8023459895,91.75411199999999 4.5823149895,92.65994099999999 4.3980583895,93.547423 4.2490659895,94.41587299999999 4.1347467895,95.264719 4.0550053895,96.094856 4.0098618395,96.9104198 4.0,97.7181621 4.0281449395,98.5246299 4.0988251695,99.333069 4.2179342895,100.14311599999999 4.3998016895,100.94923499999999 4.6660863895,101.742127 5.0429704895,102.498375 5.5451454895,103.19688599999999 6.1432934894999995,103.843019 6.8101674894999995,104.447921 7.5320254895000005,105.025268 8.3020034895,105.58326199999999 9.1185004895,106.125346 9.9795334895,106.65526499999999 10.884755489500002,107.17595499999999 11.8353354895,107.68978999999999 12.8323404895,108.19960999999999 13.8775154895,108.70751 14.9736284895,109.21440999999999 16.1236384895,109.7213 17.331148489500002,110.22882999999999 18.6006284895,110.73723 19.9369984895,111.24678999999999 21.345658489499996,111.75791 22.8324584895,112.27114999999999 24.4037884895,112.78732 26.066528489499998,113.30749 27.8280484895,113.83315999999999 29.696158489499997,114.36634 31.6790984895,114.90969 33.7866584895,115.46464999999999 36.0301584895,116.03125 38.4217284895,116.60933999999999 40.9740584895,117.19861999999999 43.699998489500004,117.79861 46.6120084895,118.40861999999998 49.7223784895,119.02797999999999 53.043908489500005,119.65617999999999 56.5902184895,120.29169999999999 60.3731684895,120.93167 64.4013184895,121.57253 68.67899848949999,122.21016999999999 73.20643848949999,122.84026 77.9813484895,123.4588 83.00126848949999,124.06200999999999 88.26047848949999,124.64587 93.7480184895,125.20666999999999 99.4490584895,125.74144999999999 105.3475284895,126.24842 111.4293284895,126.72699999999999 117.6823284895,127.17657 124.09222848949999,127.59693 130.6431284895,127.98866999999998 137.31882848950002,128.35321 144.10332848950003,128.69272 150.98222848950002,129.00837 157.9418284895,129.30050999999997 164.9696284895,129.56984 172.0543284895,129.8174 179.18692848950002,130.04453 186.36062848950002,130.25256 193.5701284895,130.44215 200.81092848950001,130.61386 208.07912848950002,130.76835 215.37142848950003,130.90635 222.6855284895,131.02866 230.01962848950004,131.13601 237.3725284895,131.22901 244.74262848950002,131.30825 252.12862848950002,131.37437 259.52882848950003,131.42798 266.9417284895,131.46976 274.3657284895,131.50029 281.7991284895,131.51990999999998 289.2409284895,131.52888 296.68992848949995,131.52748 304.1456284895,131.51601 311.60742848949997,131.49474999999998 319.0754284895,131.464 326.5496284895,131.42403 334.0300284895,131.37512999999998 341.5166284895,131.31758 349.0091284895,131.25164999999998 356.5070284895,131.17763 364.0097284895,131.09582 371.51662848949996,131.0065 379.0269284895,130.90982 386.5398284895,130.80588 394.0550284895,130.69477 401.5721284895,130.57658999999998 409.0910284895,130.45143 416.61172848949997,130.31937 424.13462848949996,130.18052 431.6598284895,130.03497 439.1877284895,129.88286 446.7181284895,129.72431999999998 454.2509284895,129.55948 461.7860284895,129.38849 469.3229284895,129.21148 476.8610284895,129.02859 484.3998284895,128.83987 491.93872848949997,128.64532 499.47742848949997,128.44492 507.0157284895,128.23865999999998 514.5536284894999,128.02654 522.0912284895,127.80854 529.6288284894999,127.58462 537.1668284895,127.35480999999999 544.7053284895001,127.11913999999999 552.2444284895,126.87764999999999 559.7840284895,126.63037 567.3238284895,126.37736999999998 574.8633284895001,126.11869999999999 582.4019284894999,125.85441999999999 589.9390284895,125.58449999999999 597.4738284895,125.30883 605.0061284894999,125.02729 612.5356284895,124.73978 620.0621284895,124.44617 627.5857284895,124.14631999999999 635.1068284895,123.84011 642.6255284895,123.52741999999999 650.1420284894999,123.20817 657.6561284895,122.88228 665.1674284895,122.54969999999999 672.6751284895,122.21036 680.1783284895,121.86424 687.6758284895,121.51127 695.1662284895,121.15110999999999 702.6482284895,120.78332999999999 710.1205284895,120.40751 717.5820284895,120.02322999999998 725.0316284894999,119.63006999999999 732.4681284895,119.22764 739.8906284895,118.81537999999999 747.2985284895001,118.39259 754.6917284895001,117.95850999999999 762.0704284894999,117.51236999999999 769.4354284894999,117.05337999999999 776.7879284895,116.58071999999999 784.1295284895,116.09367999999999 791.4620284895,115.59188999999999 798.7875284894999,115.07498999999999 806.1084284895,114.5426 813.4271284895,113.99430999999998 820.7465284895,113.42966 828.0694284895001,112.84845999999999 835.3983284894999,112.25111999999999 842.7352284895,111.6381 850.0813284895,111.00992 857.4372284895,110.36717999999999 864.8028284894999,109.71055999999999 872.1773284895,109.04105999999999 879.5594284895,108.35986 886.9469284894999,107.66819 894.3371284895,106.967399 901.7263284894999,106.25915499999999 909.1061284895,105.54642899999999 916.4611284895,104.833097 923.7686284895,104.123706 930.9999284894999,103.423367 938.1221284895,102.738157 945.0998284894999,102.07442499999999 951.8977284895,101.437945 958.4840284894999,100.833855 964.8277284895,100.268125 970.8975284895,99.746083 976.6675284895,99.271164 982.1203284895,98.84608 987.2435284895,98.47320239999999 992.0323284895,98.1525465 996.4923284895,97.88440279999999 1000.6389284894999,97.67046509999999 1003.9991284895,97.52729" stroke="black" stroke-width="2.0" /></svg>