<?xml version="1.0" encoding="utf-8" ?>
<svg baseProfile="full" height="145.36746" version="1.1" width="1011.998087842" xmlns="http://www.w3.org/2000/svg" xmlns:ev="http://www.w3.org/2001/xml-events" xmlns:xlink="http://www.w3.org/1999/xlink"><defs /><polygon fill="none" points="1003.998087842,110.6864 1000.841387842,110.58733314000001 996.9475878420001,110.4334013 992.763087842,110.2336459 988.275087842,109.9869817 983.478287842,109.69192220000001 978.377587842,109.34587400000001 972.986187842,108.947737 967.321987842,108.497399 961.407987842,107.99458100000001 955.2732878420001,107.44021000000001 948.948187842,106.836354 942.458987842,106.185231 935.830087842,105.488831 929.0851878420001,104.74962400000001 922.244887842,103.970337 915.325287842,103.153503 908.338187842,102.30103000000001 901.294287842,101.41475200000001 894.202787842,100.49652 887.070687842,99.54811000000001 879.902987842,98.57106 872.703587842,97.56662 865.475687842,96.53595000000001 858.222187842,95.48025000000001 850.945587842,94.40071 843.6477878420001,93.29846 836.330187842,92.17445000000001 828.994287842,91.02951 821.640887842,89.86448 814.271087842,88.68020000000001 806.885387842,87.47746000000001 799.484187842,86.25705 792.067887842,85.01966 784.636587842,83.76596 777.190587842,82.49667000000001 769.730387842,81.21249 762.256087842,79.91417000000001 754.7682878420001,78.60243 747.267087842,77.27797000000001 739.752987842,75.94143 732.225887842,74.59343000000001 724.685887842,73.23459 717.1327878420001,71.86551 709.566387842,70.48677 701.9862878419999,69.09895 694.392487842,67.70267000000001 686.785087842,66.29862 679.164787842,64.88758000000001 671.532687842,63.47042000000001 663.890187842,62.048080000000006 656.2391878420001,60.621590000000005 648.581787842,59.192060000000005 640.920287842,57.76059000000001 633.257187842,56.32833000000001 625.5948878419999,54.89641000000001 617.935687842,53.465990000000005 610.2822878420001,52.038250000000005 602.637187842,50.61434000000001 595.002687842,49.19544000000001 587.380687842,47.78265000000001 579.772587842,46.37697 572.179587842,44.97932 564.602187842,43.59053 557.040587842,42.211330000000004 549.494887842,40.84244000000001 541.9648878419999,39.48458000000001 534.450387842,38.13849000000002 526.951487842,36.80491000000001 519.4683878420001,35.48461 512.0010878420001,34.17833 504.55008784200004,32.886820000000014 497.115587842,31.6109 489.69798784200003,30.351479999999995 482.297787842,29.109420000000014 474.915287842,27.885590000000008 467.550787842,26.68083 460.20498784200004,25.495970000000014 452.87798784200004,24.331829999999997 445.570487842,23.189330000000012 438.28288784200004,22.069440000000014 431.015587842,20.973130000000012 423.768987842,19.901330000000016 416.54378784200003,18.854960000000005 409.340287842,17.83489 402.158987842,16.842000000000013 395.000587842,15.877350000000007 387.865687842,14.941990000000004 380.75518784200005,14.03701000000001 373.669987842,13.163420000000016 366.61118784200005,12.322239999999994 359.579887842,11.514430000000004 352.577587842,10.741060000000019 345.605387842,10.003400000000013 338.664587842,9.302800000000005 331.75658784200004,8.640400000000014 324.882587842,8.017300000000006 318.043687842,7.434500000000014 311.241087842,6.893200000000007 304.47598784200005,6.3944000000000045 297.74998784200005,5.939400000000006 291.06478784200004,5.52940000000001 284.422087842,5.165500000000009 277.823987842,4.848600000000005 271.27248784200003,4.5797000000000025 264.76998784200003,4.359700000000004 258.31938784199997,4.190400000000011 251.924387842,4.073300000000003 245.589487842,4.009400000000014 239.319287842,4.0 233.118887842,4.045500000000004 226.993387842,4.146800000000013 220.947187842,4.305700000000016 214.981987842,4.523899999999998 209.09768784199997,4.802800000000005 203.292587842,5.143900000000002 197.563287842,5.548500000000004 191.905687842,6.017800000000008 186.31548784199998,6.552500000000009 180.78948784199997,7.1529000000000025 175.325087842,7.819500000000005 169.920387842,8.552700000000016 164.57388784199998,9.352900000000005 159.28458784199998,10.220300000000009 154.052387842,11.154990000000012 148.87798784199998,12.156490000000005 143.76258784200002,13.224330000000009 138.708287842,14.357730000000004 133.717487842,15.55568000000001 128.792987842,16.81696000000001 123.93808784200002,18.140479999999997 119.155487842,19.525239999999997 114.447487842,20.97021000000001 109.81588784200001,22.474320000000006 105.261787842,24.036540000000016 100.78620784200001,25.65570000000001 96.390717842,27.32990000000001 92.07832784200001,29.056480000000008 87.852987842,30.832099999999997 83.719347842,32.65274000000001 79.68237784200001,34.513850000000005 75.74743784200001,36.41062000000001 71.92038784200001,38.33824000000001 68.206847842,40.29146 64.611737842,42.264700000000005 61.139087841999995,44.252210000000005 57.791807842,46.248350000000016 54.57243784199999,48.24788000000001 51.483507841999995,50.24577000000001 48.526647841999996,52.236920000000005 45.70238784199999,54.21636000000001 43.010037841999996,56.17951 40.44772784199999,58.12228000000001 38.013147841999995,60.041230000000006 35.703947842000005,61.933400000000006 33.517187842,63.79608 31.449177842,65.62697 29.495657842,67.42421000000002 27.651837842000003,69.18644 25.912597842,70.91276 24.273267842,72.60259 22.729627842000003,74.25542 21.277397842,75.87089 19.912237841999996,77.44883000000002 18.629717841999998,78.98928000000001 17.425407842,80.49252000000001 16.294907842,81.95903000000001 15.233927842,83.38948 14.238877842,84.78486000000001 13.306677842000001,86.14638000000001 12.434220842,87.47527000000001 11.618434842000001,88.77276 10.856300842,90.04010000000001 10.144895842,91.27851000000001 9.481403842,92.48916 8.863135842000002,93.67324 8.287535842,94.83186 7.752523842,95.96601000000001 7.257256842,97.07631 6.801024842,98.16328 6.382990842,99.22749 6.0022188419999996,100.26950000000001 5.657701842,101.28989200000001 5.348384842,102.289232 5.073178842,103.2681 4.830977342,104.227068 4.620671042,105.16670500000001 4.441158742,106.087573 4.291828442,106.990159 4.172824642,107.87523 4.084250242,108.74419200000001 4.026307082,109.59888600000001 4.0,110.4413794 4.006891456,111.2745295 4.049072992,112.102113 4.1299410420000005,112.92736400000001 4.254160242,113.75093000000001 4.426927142,114.570932 4.659263142,115.38111900000001 4.969919642,116.171974 5.380612842,116.923337 5.909735842,117.61061000000001 6.537233842,118.23689 7.233678842,118.814707 7.985427842,119.35791900000001 8.784099842,119.87748900000001 9.628207842,120.37716300000001 10.516579842,120.86031 11.448453842,121.33032 12.424904842,121.78995 13.447099842,122.24241 14.516317842,122.69092 15.635417842,123.13640000000001 16.807977842,123.57922 18.037857842,124.01985 19.329237841999998,124.45896 20.686587841999998,124.89744 22.114657842,125.33646 23.618407842,125.77749 25.203797842,126.22119 26.877817842000002,126.66742 28.648007842,127.11601 30.522507842,127.56678000000001 32.510117842,128.01966 34.620337842,128.47464000000002 36.863437841999996,128.93197 39.250747841999996,129.39227 41.79458784199999,129.85664000000003 44.508487842,130.32544000000001 47.406497842,130.79725000000002 50.502497842,131.27016 53.809577841999996,131.74184000000002 57.339387842,132.20959 61.102167842,132.67054000000002 65.107607842,133.12198 69.36619784199999,133.56114000000002 73.88679784200001,133.98454 78.673437842,134.38853 83.724807842,134.76971 89.035007842,135.12542000000002 94.59628784200001,135.45417 100.40184784200001,135.75491 106.441987842,136.02646000000001 112.701587842,136.26850000000002 119.161287842,136.48191 125.799087842,136.66887 132.592487842,136.83191 139.51968784199997,136.97141 146.559187842,137.08777 153.69118784199998,137.18191000000002 160.89948784199998,137.25522 168.17258784199998,137.30939 175.50298784199998,137.34555 182.884187842,137.36459000000002 190.309987842,137.36746 197.77448784199998,137.35523 205.27278784199999,137.32906 212.800387842,137.29002 220.353287842,137.23879 227.92838784199998,137.17597 235.52258784199998,137.10221 243.133687842,137.01814000000002 250.760087842,136.92445 258.40048784199996,136.82176 266.054087842,136.71052 273.719987842,136.59118 281.39738784200006,136.46418 289.085087842,136.32997 296.782287842,136.18900000000002 304.487987842,136.04173 312.20108784200005,135.88847 319.920887842,135.72946000000002 327.64658784200003,135.56493 335.377687842,135.39512000000002 343.113787842,135.22025000000002 350.85478784200006,135.04057 358.600687842,134.85628 366.351287842,134.66759000000002 374.10668784200004,134.47469 381.86668784200003,134.27778 389.630887842,134.07706000000002 397.398987842,133.87273000000002 405.17058784200003,133.665 412.94518784200005,133.45404000000002 420.722287842,133.23995 428.501487842,133.02280000000002 436.28258784200005,132.80270000000002 444.06548784200004,132.57971 451.850087842,132.35393 459.63638784200003,132.12543 467.424687842,131.89428 475.214987842,131.66059 483.00738784200007,131.42443 490.801787842,131.1859 498.598087842,130.94510000000002 506.39598784199995,130.70213 514.195287842,130.45709 521.995587842,130.21004 529.796487842,129.96102000000002 537.5976878419999,129.71004 545.3990878420001,129.45710000000003 553.200687842,129.20223000000001 561.002187842,128.94544000000002 568.803887842,128.68672 576.605887842,128.42609 584.4081878420001,128.16356000000002 592.2107878420001,127.89914 600.013587842,127.63287000000001 607.816487842,127.36477000000001 615.6191878420001,127.09485000000001 623.4213878420001,126.82315 631.222687842,126.54966 639.0226878420001,126.27432 646.820987842,125.99708000000001 654.6173878420001,125.71787 662.411587842,125.43663000000001 670.2032878420001,125.15331 677.9923878420001,124.86784 685.778587842,124.58006 693.561487842,124.28981 701.340387842,123.99692 709.114287842,123.70123000000001 716.8823878420001,123.40261000000001 724.6431878420001,123.10091 732.395387842,122.79589000000001 740.137987842,122.48712 747.8705878420001,122.17411000000001 755.5934878420001,121.85637 763.307487842,121.53338000000001 771.014187842,121.20459000000001 778.715387842,120.86957000000001 786.413287842,120.52817900000001 794.1096878420001,120.18035300000001 801.806187842,119.82602800000001 809.5040878420001,119.465146 817.2043878420001,119.09766300000001 824.907887842,118.723707 832.615487842,118.343648 840.327887842,117.95787000000001 848.046087842,117.566754 855.7707878420001,117.17068 863.502787842,116.770137 871.240787842,116.36606300000001 878.9800878420001,115.95966200000001 886.7119878420001,115.552345 894.4240878420001,115.145717 902.101087842,114.741742 909.725087842,114.34283500000001 917.276387842,113.951447 924.734887842,113.569951 932.079687842,113.200782 939.2857878420001,112.847205 946.321887842,112.512612 953.153887842,112.199993 959.748687842,111.91205500000001 966.0702878420001,111.6518351 972.0826878419999,111.421484 977.758587842,111.22184410000001 983.081587842,111.0539818 988.042787842,110.9184987 992.644587842,110.81431160000001 996.900487842,110.74108613 1000.8312878419999,110.6991038 1003.998087842,110.6864" stroke="black" stroke-width="2.0" /></svg>