<?xml version="1.0" encoding="utf-8" ?>
<svg baseProfile="full" height="150.23643" version="1.1" width="1012.01425321" xmlns="http://www.w3.org/2000/svg" xmlns:ev="http://www.w3.org/2001/xml-events" xmlns:xlink="http://www.w3.org/1999/xlink"><defs /><polygon fill="none" points="1004.01425321,120.38850000000001 1000.3737532099999,120.12525120000001 995.93095321,119.7690343 991.21525321,119.35506900000001 986.22305321,118.884077 980.95805321,118.354837 975.43055321,117.766362 969.65435321,117.118802 963.64615321,116.41241500000001 957.4268532100001,115.64834200000001 951.01925321,114.82880200000001 944.44505321,113.95635300000001 937.72525321,113.03342800000001 930.88055321,112.06293600000001 923.93005321,111.048073 916.8890532099999,109.99183000000001 909.7703532099999,108.89661000000001 902.58545321,107.76477000000001 895.34415321,106.59865 888.05415321,105.40044 880.72095321,104.17199000000001 873.34915321,102.91493 865.94305321,101.63091 858.50615321,100.32157000000001 851.0416532099999,98.98851 843.55185321,97.63318000000001 836.03915321,96.25673 828.5050532099999,94.86030000000001 820.95105321,93.44499 813.37815321,92.01183 805.78705321,90.56183000000001 798.1780532099999,89.09589000000001 790.5514532100001,87.61492000000001 782.90785321,86.11985000000001 775.24755321,84.61164000000001 767.5710532100001,83.09127000000001 759.87905321,81.55973 752.17205321,80.01790000000001 744.45095321,78.46667000000001 736.71665321,76.90695000000001 728.96995321,75.33967000000001 721.21205321,73.76584 713.44415321,72.18644 705.66775321,70.60258000000002 697.8843532100001,69.01538000000001 690.0959532100001,67.42607000000001 682.30495321,65.83592 674.5136532099999,64.24627000000001 666.72505321,62.65852000000001 658.94215321,61.07403000000001 651.16735321,59.49405 643.40285321,57.91973000000001 635.65015321,56.352080000000015 627.91045321,54.79203 620.1841532100001,53.24037000000001 612.47155321,51.697840000000014 604.77245321,50.165160000000014 597.08685321,48.643090000000015 589.41455321,47.13235 581.75565321,45.633660000000006 574.10995321,44.14774 566.47745321,42.675290000000004 558.85815321,41.21703000000001 551.25205321,39.773690000000016 543.65915321,38.34598000000001 536.0796532100001,36.93463000000001 528.51385321,35.54036000000001 520.96195321,34.16390000000001 513.42415321,32.805980000000005 505.90105321,31.46744000000001 498.39275320999997,30.14916000000001 490.89965321,28.851960000000005 483.42205321,27.576690000000013 475.96025320999996,26.324140000000014 468.51445320999994,25.095110000000005 461.08515321,23.8904 453.67245321,22.710930000000005 446.27685321,21.557609999999997 438.89875321,20.431330000000003 431.53875321,19.333 424.19745321,18.263400000000004 416.87545321,17.2235 409.57345321,16.214200000000005 402.29235321000004,15.236699999999999 395.03285321,14.292000000000016 387.79615321,13.381100000000004 380.58315321,12.505099999999999 373.39485321,11.6648 366.23265320999997,10.861500000000007 359.09765321,10.09620000000001 351.99125320999997,9.370400000000018 344.91475321,8.685200000000009 337.86965321,8.041700000000006 330.85745321,7.4410000000000025 323.87935321000003,6.884200000000007 316.93735321,6.372600000000006 310.03305321,5.90740000000001 303.16845321,5.489900000000006 296.34565321,5.121200000000002 289.56685321,4.802400000000006 282.83425321,4.534300000000002 276.15045320999997,4.318400000000011 269.51875320999994,4.156400000000005 262.94295321,4.049900000000008 256.42745321,4.0 249.97715321,4.0079000000000065 243.59675321,4.074200000000019 237.29145321,4.2006000000000085 231.06435321,4.389300000000006 224.91665321,4.6425000000000125 218.84765321,4.962100000000007 212.85495321,5.349800000000016 206.93515320999998,5.807300000000012 201.08405320999998,6.335900000000009 195.29845321,6.936000000000007 189.57545321,7.608400000000017 183.91265321,8.353400000000008 178.30795321,9.171900000000008 172.75975320999999,10.064300000000017 167.26705321,11.030900000000003 161.82975320999998,12.071300000000008 156.44865321,13.184700000000007 151.12515320999998,14.370500000000007 145.86165321000001,15.627499999999998 140.66065321,16.95450000000001 135.52575321,18.35030000000002 130.46005321,19.813699999999997 125.46665321,21.343410000000006 120.54825321,22.93789000000001 115.70735321000001,24.59563 110.94595321000001,26.314890000000005 106.26705321000001,28.093180000000004 101.67459321000001,29.927350000000004 97.17315321000001,31.813600000000008 92.76779321000001,33.747600000000006 88.46369321,35.72448 84.26636321000001,37.739270000000005 80.18160321,39.786800000000014 76.21483321000001,41.86151000000001 72.37080321,43.95755000000001 68.65333321000001,46.06899 65.06533321,48.190050000000014 61.60977321,50.31540000000001 58.289423209999995,52.43959000000001 55.10620321,54.55703000000001 52.06093321,56.66233000000001 49.15321321,58.750440000000005 46.38155321,60.81689000000001 43.74408321,62.857940000000006 41.238053210000004,64.87049000000002 38.859723210000006,66.85207 36.60461321,68.80079 34.46767321,70.71533 32.44349321,72.59485000000001 30.526753210000003,74.43883000000001 28.71295321,76.24651 26.99803321,78.01680000000002 25.378073209999997,79.74857 23.849133209999998,81.4408 22.407163209999997,83.09271000000001 21.047993209999998,84.70386000000002 19.76741321,86.27414 18.56191321,87.80402000000001 17.42822321,89.29477 16.36269321,90.74815000000001 15.36152321,92.16616 14.420943209999999,93.55091 13.53730921,94.90455000000001 12.707187209999999,96.22913000000001 11.92735621,97.52667000000001 11.19483421,98.79903000000002 10.506813209999999,100.04779 9.86076821,101.27379 9.25458721,102.47733000000001 8.68644121,103.65834000000001 8.15467621,104.81656000000001 7.657739210000001,105.95159000000001 7.19412921,107.06301 6.76236821,108.15043 6.36098521,109.21352 5.98851321,110.25208 5.64372621,111.266011 5.32784721,112.255813 5.04299021,113.222808 4.79060241,114.168862 4.57167881,115.096151 4.38695731,116.00702500000001 4.23706231,116.90391600000001 4.12261731,117.78929600000001 4.04433445,118.665665 4.00309072,119.5355531 4.0,120.40155216000001 4.03648683,121.26634430000001 4.11418345,122.130993 4.23474541,122.992518 4.40023631,123.84720800000001 4.61320441,124.691084 4.87671431,125.519799 5.19439621,126.32851600000001 5.57050821,127.11178400000001 6.01002521,127.86337900000001 6.51873621,128.576126 7.10200321,129.243612 7.76004021,129.866781 8.491604209999998,130.44866000000002 9.29533221,130.99238000000003 10.16955021,131.50126 11.11201921,131.97899 12.11958121,132.42979 13.18769221,132.85862 14.30979321,133.27144 15.47667321,133.67539000000002 16.68272321,134.07485 17.92976321,134.46951 19.22024321,134.85877000000002 20.55686321,135.24208000000002 21.94254321,135.61894 23.38061321,135.989 24.87485321,136.35207 26.42976321,136.70821 28.05082321,137.05782000000002 29.74493321,137.40176 31.52036321,137.74107 33.38457321,138.07569 35.34517321,138.40515 37.41060321,138.7289 39.59018321,139.04639 41.89415321,139.35697000000002 44.33350321,139.65997000000002 46.91994321,139.95467000000002 49.66556321,140.24036 52.582183210000004,140.51618000000002 55.68273321,140.78017 58.97985321,141.02972 62.48472321,141.26207 66.20735321000001,141.47447 70.15710321000002,141.66446000000002 74.34378321000001,141.83011000000002 78.77975321000001,141.97016000000002 83.47882321,142.08266 88.45186321,142.16545000000002 93.70485321,142.21691 99.23736321000001,142.23643 105.04145321,142.22476 111.10185321000002,142.18375 117.39715321,142.11297000000002 123.89975321000001,142.01148 130.57905321,141.87914 137.40525321,141.71656000000002 144.35365321,141.5249 151.40685321,141.30488 158.55075320999998,141.05661 165.77305321,140.78032000000002 173.06485321,140.4763 180.42045321,140.14484000000002 187.83875321,139.78639 195.32055321,139.40267 202.86605321,138.99602000000002 210.47405321,138.56896 218.14195321,138.12428 225.86535321,137.66505 233.63815320999998,137.19412 241.45365321,136.7133 249.30515321,136.22423 257.18645320999997,135.7286 265.09185321,135.22811000000002 273.01585321,134.72446000000002 280.95375321,134.21916000000002 288.90135321,133.71293 296.85485321,133.20636000000002 304.81095321,132.69998 312.76685320999997,132.19429 320.72025320999995,131.68978 328.66965321,131.18686000000002 336.61365321,130.68603000000002 344.55155320999995,130.18776400000002 352.48285321000003,129.69254 360.40755321,129.20079800000002 368.32575321,128.71295700000002 376.23815321,128.22941400000002 384.14555321,127.750505 392.04915321,127.27635000000001 399.94945321,126.80701400000001 407.84715321,126.342579 415.74245321,125.88314100000001 423.63525321000003,125.42881200000001 431.52545320999997,124.97971700000001 439.41255321,124.53600800000001 447.29595321,124.09791500000001 455.17535320999997,123.665682 463.05045321,123.239542 470.92135321,122.81971700000001 478.78825321,122.40642000000001 486.65125321,121.999852 494.51105321,121.60020100000001 502.36815321,121.2075683 510.22305321,120.8220234 518.07585321,120.44364431000001 525.92665321,120.0725177 533.77545321,119.70873820000001 541.6218532099999,119.35240800000001 549.46565321,119.00363600000001 557.30605321,118.66259900000001 565.14275321,118.329524 572.97545321,118.004636 580.80385321,117.68814800000001 588.62795321,117.38027100000001 596.44785321,117.081208 604.26375321,116.791156 612.0759532100001,116.510299 619.8845532099999,116.238809 627.68955321,115.97686200000001 635.49065321,115.72464000000001 643.28735321,115.48233200000001 651.07895321,115.250129 658.8644532100001,115.02822400000001 666.6427532099999,114.816905 674.41295321,114.61665400000001 682.17425321,114.427969 689.9262532099999,114.25133100000001 697.66885321,114.087209 705.40225321,113.936064 713.1267532100001,113.798347 720.84315321,113.67444900000001 728.55195321,113.564665 736.2536532099999,113.46928600000001 743.9487532100001,113.38860500000001 751.63755321,113.322918 759.31995321,113.27252200000001 766.99615321,113.237712 774.66605321,113.218748 782.32975321,113.215866 789.98755321,113.229307 797.6398532100001,113.259308 805.28705321,113.306115 812.93015321,113.369971 820.5696532100001,113.450991 828.20615321,113.54914000000001 835.83955321,113.66437200000001 843.4692532099999,113.796631 851.09425321,113.94585000000001 858.71325321,114.11194400000001 866.32415321,114.29485100000001 873.92465321,114.49449700000001 881.51165321,114.710772 889.08175321,114.94352400000001 896.63105321,115.19253900000001 904.1542532100001,115.457299 911.64265321,115.73697100000001 919.08385321,116.03050800000001 926.46265321,116.336644 933.7607532100001,116.65391500000001 940.95465321,116.980575 948.01525321,117.314463 954.91075321,117.653097 961.60875321,117.99362300000001 968.07265321,118.33255100000001 974.26495321,118.666234 980.15475321,118.99137 985.7182532100001,119.305316 990.93975321,119.6059469 995.81455321,119.89204330000001 1000.34815321,120.16385930000001 1004.01425321,120.38850000000001" stroke="black" stroke-width="2.0" /></svg>