<?xml version="1.0" encoding="utf-8" ?>
<svg baseProfile="full" height="163.44999" version="1.1" width="1012.00007354176" xmlns="http://www.w3.org/2000/svg" xmlns:ev="http://www.w3.org/2001/xml-events" xmlns:xlink="http://www.w3.org/1999/xlink"><defs /><polygon fill="none" points="1004.00007354176,94.03692000000001 1000.4116735417599,94.00781007 996.0614735417599,93.92139530000001 991.47127354176,93.777111 986.63207354176,93.57649090000001 981.5405735417601,93.3197645 976.19847354176,93.00611400000001 970.6124735417601,92.636486 964.79357354176,92.21230000000001 958.75717354176,91.73344700000001 952.5219735417601,91.200674 946.10737354176,90.61579200000001 939.53087354176,89.98080000000002 932.80967354176,89.297318 925.96107354176,88.56751100000001 919.00137354176,87.79401100000001 911.94447354176,86.979584 904.80187354176,86.12642100000001 897.58447354176,85.23664900000001 890.30177354176,84.31253000000001 882.96207354176,83.35637000000001 875.57157354176,82.37032 868.13547354176,81.35607 860.6583735417599,80.31522000000001 853.1439735417599,79.24940000000001 845.59577354176,78.16021 838.01607354176,77.04921000000002 830.40687354176,75.91772 822.77007354176,74.76696000000001 815.10717354176,73.59818000000001 807.4197735417599,72.41265000000001 799.70947354176,71.21167000000001 791.97757354176,69.99648 784.22517354176,68.76813000000001 776.4532735417599,67.52763000000002 768.66257354176,66.27596000000001 760.85337354176,65.01409000000001 753.02597354176,63.74293000000001 745.18017354176,62.46337000000001 737.3163735417601,61.176280000000006 729.43577354176,59.88270000000001 721.54047354176,58.58380000000001 713.6334735417599,57.28094000000001 705.71877354176,55.975640000000006 697.80137354176,54.66955000000001 689.88597354176,53.36426000000001 681.97687354176,52.06117000000001 674.07717354176,50.761540000000004 666.1890735417601,49.46647000000001 658.31397354176,48.17689000000001 650.45207354176,46.89357000000001 642.60327354176,45.61715000000001 634.76717354176,44.34826 626.94357354176,43.087530000000015 619.1321735417599,41.83557000000001 611.33287354176,40.59302000000001 603.54547354176,39.36050000000001 595.76997354176,38.13864000000001 588.00627354176,36.92803000000001 580.25447354176,35.72926000000001 572.51457354176,34.54292000000001 564.7864735417601,33.369560000000014 557.07017354176,32.20978000000001 549.36567354176,31.064120000000017 541.67307354176,29.933160000000015 533.99227354176,28.81750000000001 526.32337354176,27.717740000000006 518.66647354176,26.63445 511.02147354176,25.568210000000008 503.38837354176,24.51958000000002 495.76727354176,23.489140000000006 488.15827354175997,22.477450000000005 480.56127354176004,21.485140000000015 472.97657354176005,20.512780000000006 465.40427354176,19.56098 457.84457354176,18.63032000000001 450.29787354176,17.72138000000001 442.76427354176,16.834770000000006 435.24427354176004,15.971150000000009 427.73827354176,15.13121000000001 420.24657354176003,14.315630000000013 412.76957354176,13.52506000000001 405.30797354176,12.760170000000016 397.86197354176,12.021590000000018 390.43237354176,11.310020000000009 383.01977354176,10.62624000000001 375.62467354176005,9.971040000000016 368.24797354176,9.345200000000006 360.89047354176,8.749460000000013 353.55297354176,8.184539999999998 346.23657354176,7.651170000000008 338.94227354176,7.150230000000008 331.67117354175997,6.682640000000006 324.42457354176,6.249300000000019 317.20377354176,5.851060000000004 310.01037354176003,5.488710000000012 302.84567354176,5.163040000000009 295.71147354176003,4.875 288.60987354176,4.625820000000019 281.54357354176,4.416650000000004 274.51537354176,4.2485400000000055 267.52867354176,4.122460000000004 260.58727354176,4.039240000000007 253.69487354176,4.0 246.85527354176,4.006500000000003 240.07137354176,4.060380000000009 233.34547354176001,4.163120000000006 226.67957354176,4.316000000000017 220.07487354176,4.5201800000000105 213.53217354176,4.776750000000007 207.05297354176003,5.086820000000003 200.63847354176,5.45138 194.29037354176,5.871220000000008 188.01027354176003,6.346980000000016 181.79987354176,6.879080000000002 175.66147354176,7.46799 169.59807354176,8.114170000000001 163.61377354176,8.817760000000007 157.71327354176,9.57847000000001 151.90187354176,10.395600000000002 146.18497354176,11.268070000000009 140.56827354176,12.195470000000014 135.05677354176,13.17786000000001 129.65447354176,14.215040000000016 124.36397354176,15.306480000000008 119.18707354176,16.451440000000005 114.12487354176,17.64891 109.17857354176,18.897160000000014 104.35047354176001,20.193820000000017 99.64308354176,21.53610000000002 95.05903354176,22.9208 90.60070354176,24.34445000000001 86.27033354176,25.803230000000013 82.07121354176,27.29268000000002 78.00769354176,28.807480000000012 74.08428354176,30.341780000000014 70.30489354176001,31.889410000000005 66.67230354176,33.44427000000001 63.188343541760005,35.00114000000001 59.854373541760005,36.55695000000001 56.66993354176,38.109100000000005 53.63277354176,39.65523 50.73920354176,41.193250000000006 47.98445354176,42.72137000000001 45.363013541760004,44.23811000000001 42.86970354176,45.74238000000001 40.499813541760005,47.23319000000001 38.24841354176,48.709610000000005 36.11043354176,50.17077000000001 34.08072354176,51.61594000000001 32.15403354176,53.04452000000001 30.325183541759998,54.45604000000001 28.589193541759997,55.85009000000001 26.94161354176,57.22608000000001 25.378203541759998,58.58346000000001 23.894843541759997,59.92183000000001 22.48753354176,61.240890000000014 21.15240354176,62.54045000000001 19.885713541759998,63.82045000000001 18.68387354176,65.08090000000001 17.543443541760002,66.32192 16.46178354176,67.54397 15.43703354176,68.74774000000001 14.467363541760001,69.93386000000001 13.55092754176,71.10283000000001 12.685846541760002,72.25509000000001 11.870231541759999,73.39105 11.10218854176,74.51107 10.37983354176,75.61549000000001 9.70130154176,76.70466000000002 9.06478454176,77.77889000000002 8.46927754176,78.83822 7.914431541759999,79.88259000000001 7.39969354176,80.91214000000001 6.92435154176,81.92721 6.48759754176,82.92827000000001 6.08857654176,83.91586000000001 5.72642454176,84.89057600000001 5.40029154176,85.853059 5.10936154176,86.803959 4.85286354176,87.743931 4.63009894176,88.67360300000001 4.44078794176,89.59290800000001 4.28504054176,90.500375 4.16293294176,91.393472 4.07465138176,92.27025 4.02025416176,93.13245250000001 4.0,93.98548697000001 4.01527345176,94.8368741 4.06913031176,95.69208200000001 4.16566154176,96.55298200000001 4.31091824176,97.41725400000001 4.51744234176,98.27904600000001 4.80064184176,99.13077700000001 5.17851454176,99.95730200000001 5.65896754176,100.747573 6.22299654176,101.504366 6.852294541759999,102.23349200000001 7.53595154176,102.94326600000001 8.26701454176,103.63968600000001 9.04394554176,104.32496 9.865194541760001,105.00128000000001 10.72962054176,105.67091 11.63739954176,106.33612000000001 12.58862154176,106.99949000000001 13.583524541760001,107.66353000000001 14.624033541760001,108.32922 15.712623541760001,108.9972 16.85193354176,109.66824000000001 18.04470354176,110.34326000000001 19.293793541760003,111.02335000000001 20.60215354176,111.70981 21.97273354176,112.4042 23.40875354176,113.10808 24.91467354176,113.82215000000001 26.495533541759997,114.54697000000002 28.15674354176,115.28317000000001 29.90409354176,116.03144 31.74378354176,116.79265000000001 33.68241354176,117.56778000000001 35.72700354176,118.35809 37.88503354176,119.16511000000001 40.16454354176,119.99084 42.57474354176,120.83684000000001 45.12605354176,121.70380000000002 47.829323541760004,122.59224 50.69554354176,123.50257 53.73565354176,124.43503000000001 56.960283541760006,125.38979 60.379533541760004,126.36698000000001 64.00315354176,127.36677 67.84070354176,128.38811 71.89976354176,129.42876 76.18471354175999,130.48568 80.69634354176,131.55528 85.43207354176,132.63368000000003 90.38716354176,133.71715 95.55601354176001,134.80154000000002 100.93025354176001,135.88172 106.49787354176,136.95241000000001 112.24447354176,138.00857000000002 118.15507354176,139.04588 124.21587354176,140.06093 130.41497354176,141.05062 136.73967354176003,142.01215000000002 143.17737354176,142.94329 149.71617354175999,143.84246000000002 156.34587354176,144.70877000000002 163.05797354176,145.54162000000002 169.84467354176002,146.34036 176.69787354176,147.10459 183.60947354176,147.83419 190.57137354176,148.52931 197.57577354176,149.19018 204.61587354176,149.81634000000003 211.68597354176,150.40720000000002 218.78187354176,150.9624 225.90107354175998,151.48181 233.04247354176002,151.96543000000003 240.20657354176,152.41352 247.39487354176,152.82682 254.60847354176002,153.20616 261.84847354176,153.55234000000002 269.11587354176004,153.86615 276.41137354176004,154.14838 283.73547354176003,154.39986 291.08867354176004,154.62158 298.47067354176005,154.81461000000002 305.88077354176,154.98003 313.31777354175995,155.11895 320.77977354176,155.23252000000002 328.26417354176,155.32189 335.76827354176004,155.38769000000002 343.28917354176,155.43027 350.82417354176005,155.44999 358.37067354175997,155.44727 365.92607354176005,155.42254000000003 373.48827354176,155.37627 381.05497354176003,155.30877 388.62447354176,155.21999 396.19577354176,155.10981 403.76797354176,154.97814 411.34097354176004,154.82487 418.91537354176,154.64988 426.49207354175996,154.45304000000002 434.07227354176,154.23448000000002 441.65747354176,153.99447 449.24877354176,153.7333 456.84717354176,153.45124 464.45357354176,153.14857 472.06877354176,152.82555000000002 479.69317354175996,152.48249 487.32747354176,152.11982 494.97167354176,151.73804 502.62577354176,151.33767 510.28927354176,150.91925 517.96167354176,150.48334 525.64187354176,150.03052000000002 533.32877354176,149.56130000000002 541.02087354176,149.07592 548.71687354176,148.57459 556.41507354176,148.05757 564.11387354176,147.5251 571.81177354176,146.97747 579.50677354176,146.41495 587.19727354176,145.83755000000002 594.88167354176,145.245 602.55847354176,144.63702 610.22677354176,144.01331000000002 617.8856735417601,143.37356 625.53457354176,142.71746000000002 633.17307354176,142.04466000000002 640.80127354176,141.35479 648.41937354176,140.64742 656.02807354176,139.9221 663.62817354176,139.17833000000002 671.22117354176,138.41558 678.80867354176,137.63327 686.3925735417599,136.83105 693.9747735417601,136.00889 701.55697354176,135.16677 709.14097354176,134.30468000000002 716.72797354176,133.42260000000002 724.31927354176,132.52053 731.91607354176,131.59855000000002 739.51947354176,130.65697 747.13027354176,129.69615000000002 754.74937354176,128.71644 762.37767354176,127.71823 770.01557354176,126.70190000000001 777.66367354176,125.66787000000001 785.32267354176,124.61668 792.99297354176,123.54884000000001 800.6751735417599,122.46491 808.36977354176,121.36543 816.0774735417599,120.25095000000002 823.79857354176,119.12225000000001 831.53357354176,117.98037000000001 839.2820735417599,116.82646000000001 847.04357354176,115.66173 854.81697354176,114.48747 862.6002735417601,113.30520000000001 870.38807354176,112.11704 878.17087354176,110.92582000000002 885.9347735417599,109.73504000000001 893.66187354176,108.54884000000001 901.33157354176,107.37259 908.92227354176,106.21231 916.4125735417599,105.07381000000001 923.78187354176,103.96249 931.01087354176,102.883958 938.0789735417601,101.844766 944.96507354176,100.85100100000001 951.64877354176,99.907757 958.1121735417601,99.01967300000001 964.33707354176,98.19163700000001 970.3065735417599,97.42719900000002 976.0079735417601,96.72824100000001 981.43397354176,96.097362 986.58237354176,95.536893 991.45587354176,95.04673000000001 996.06247354176,94.6273077 1000.41587354176,94.28039600000001 1004.00007354176,94.03692000000001" stroke="black" stroke-width="2.0" /></svg>