<?xml version="1.0" encoding="utf-8" ?>
<svg baseProfile="full" height="168.76709" version="1.1" width="1012.00005270361" xmlns="http://www.w3.org/2000/svg" xmlns:ev="http://www.w3.org/2001/xml-events" xmlns:xlink="http://www.w3.org/1999/xlink"><defs /><polygon fill="none" points="1004.00005270361,96.32424999999999 1000.33925270361,96.30997495999999 995.91515270361,96.23819574 991.26145270361,96.1065237 986.3692527036101,95.9171782 981.23495270361,95.6707412 975.85965270361,95.366571 970.24875270361,95.00570699999999 964.41165270361,94.58954499999999 958.36165270361,94.11781599999999 952.11515270361,93.591039 945.68945270361,93.01077099999999 939.10055270361,92.37880999999999 932.36425270361,91.69655399999999 925.49695270361,90.965943 918.51395270361,90.189432 911.42895270361,89.36968599999999 904.2534527036099,88.508845 896.9980527036099,87.608965 889.67275270361,86.672271 882.2857527036099,85.70106 874.84375270361,84.69752999999999 867.3521527036099,83.66341999999999 859.81565270361,82.60036 852.23855270361,81.51003 844.6243527036099,80.39408999999999 836.97585270361,79.25417999999999 829.2951527036099,78.09168 821.58425270361,76.90786999999999 813.8449527036099,75.70406 806.0789527036101,74.48155999999999 798.2877527036101,73.24174 790.47285270361,71.98588 782.63545270361,70.71511999999998 774.7764527036101,69.43051 766.89675270361,68.13310999999999 758.9967527036099,66.82396 751.07675270361,65.50404999999999 743.13695270361,64.17436 735.17755270361,62.835829999999994 727.1999527036099,61.48956999999999 719.20615270361,60.13681999999999 711.19905270361,58.77898999999999 703.18255270361,57.417649999999995 695.1611527036099,56.05452999999999 687.13965270361,54.69125999999999 679.1221527036099,53.329359999999994 671.1120527036101,51.970209999999994 663.1117527036099,50.61505999999999 655.12305270361,49.26499999999999 647.1469527036099,47.92099999999999 639.18395270361,46.583929999999995 631.2344527036099,45.25458 623.2986527036101,43.93373999999999 615.37655270361,42.62217999999999 607.46845270361,41.32062999999999 599.57425270361,40.02983 591.69385270361,38.750449999999994 583.8272527036099,37.48315999999999 575.9743527036101,36.22861999999999 568.13515270361,34.98749999999999 560.3095527036099,33.76041999999999 552.49775270361,32.54803999999999 544.6995527036099,31.35098999999998 536.9151527036099,30.169929999999994 529.14455270361,29.005539999999982 521.38775270361,27.858469999999983 513.64485270361,26.72936999999999 505.91585270361,25.618899999999996 498.20085270361,24.527669999999986 490.49985270361,23.456329999999994 482.81305270360997,22.405539999999988 475.14035270361,21.37598 467.48215270361,20.36829999999999 459.83845270360996,19.383179999999996 452.20965270360995,18.421269999999993 444.59605270361,17.483199999999997 436.99785270360996,16.569669999999988 429.41555270361,15.681429999999992 421.84955270360996,14.81922999999999 414.30025270361,13.983800000000002 406.76815270361,13.175849999999997 399.25385270361,12.39609999999999 391.75795270361,11.645239999999987 384.28095270360996,10.924089999999993 376.82375270360996,10.233519999999984 369.38705270361,9.574339999999992 361.97165270361,8.947389999999999 354.57845270360997,8.353439999999992 347.20855270361,7.793239999999997 339.86285270361,7.267649999999989 332.54265270361,6.777619999999985 325.24925270361,6.324099999999987 317.98395270361,5.907989999999998 310.74825270361004,5.530139999999989 303.54385270361,5.191349999999986 296.37235270361,4.89246 289.23585270360996,4.634659999999997 282.13685270361,4.419129999999981 275.07825270360996,4.2469799999999935 268.06335270361,4.119169999999997 261.09575270360995,4.036549999999991 254.17915270361,4.0 247.31735270361,4.011089999999982 240.51365270361,4.071469999999991 233.77065270361,4.182599999999994 227.09025270361,4.345749999999981 220.47405270361,4.561999999999983 213.92315270361001,4.83235999999998 207.43865270361002,5.157839999999993 201.02205270361,5.539339999999996 194.67515270361,5.977579999999989 188.39955270361,6.473079999999996 182.19705270361,7.02619 176.06965270361,7.637119999999996 170.02035270361003,8.306209999999993 164.05285270361,9.033460000000005 158.17165270361,9.81850999999999 152.38165270361,10.660529999999994 146.68795270361002,11.558329999999998 141.09585270361,12.51093999999999 135.61045270361,13.518119999999982 130.23595270361,14.579430000000002 124.97525270361,15.694129999999987 119.83035270360999,16.86121999999999 114.80255270360999,18.079469999999986 109.89285270360999,19.347099999999998 105.10325270361,20.66162 100.43610270360999,22.0201 95.89371270360999,23.419219999999996 91.47830270360998,24.85539999999999 87.19167270361,26.32482999999999 83.03604270361,27.82329999999999 79.01455270361,29.345919999999992 75.13067270361,30.88727999999999 71.38743270360999,32.44167999999999 67.78696270361,34.00344999999999 64.33030270361,35.56719999999999 61.01816270361,37.129299999999986 57.85031270361,38.68735999999999 54.824892703610004,40.239189999999994 51.938682703610006,41.78286999999999 49.18741270361001,43.31669999999999 46.566052703610005,44.83930999999999 44.06922270361,46.349549999999994 41.69223270361,47.84660999999999 39.43050270361,49.32969999999999 37.27932270361,50.79807999999999 35.23392270361,52.25111 33.28944270360999,53.68824999999999 31.441062703609997,55.10904999999999 29.68399270361,56.51322 28.01374270361,57.90039999999999 26.42627270361,59.27011999999999 24.91771270361,60.621959999999994 23.484312703609998,61.95559999999999 22.12242270361,63.27082999999999 20.82851270361,64.56752 19.59919270361,65.84566 18.43119270361,67.10528 17.32139270361,68.34652 16.26732270361,69.56975999999999 15.26734270361,70.77565999999999 14.319842703610002,71.96481 13.42317070361,73.13768999999999 12.57566170361,74.29472999999999 11.775634703609999,75.43629999999999 11.02139870361,76.56275 10.31126470361,77.67441 9.64355570361,78.77158999999999 9.016617703609999,79.85458 8.42931070361,80.92348999999999 7.881375703610001,81.97815999999999 7.372438703609999,83.01859999999999 6.90195270361,84.04504999999999 6.46926370361,85.05784 6.07365570361,86.05743 5.71438670361,87.044326 5.39071870361,88.019089 5.10193070361,88.98230199999999 4.84733960361,89.934559 4.62630290361,90.87646199999999 4.43840530361,91.808268 4.28369890361,92.72881299999999 4.16230200361,93.63555799999999 4.07445603361,94.52627999999999 4.02026764361,95.4024307 4.0,96.26924978999999 4.01497829361,97.13432879999999 4.06818254361,98.00341999999999 4.16364250361,98.87862399999999 4.30700380361,99.75782099999999 4.51012400361,100.635189 4.78784370361,101.50375 5.15745870361,102.34956199999999 5.62906870361,103.16074099999999 6.185862703610001,103.93906399999999 6.8090757036100005,104.68969799999999 7.48760070361,105.420475 8.21364470361,106.137722 8.98534770361,106.84370999999999 9.80114870361,107.54048999999999 10.65964170361,108.23021999999999 11.560761703609998,108.91506999999999 12.50447770361,109.59746999999999 13.49071970361,110.27995999999999 14.52098270361,110.96368999999999 15.597532703610002,111.64925 16.72275270361,112.33734 17.89912270361,113.02879999999999 19.12923270361,113.72460999999998 20.41574270361,114.42594 21.761342703609998,115.13418999999999 23.16870270361,115.85096999999999 24.641252703609997,116.57740999999999 26.183442703609998,117.31406 27.80009270361,118.06146 29.496332703609998,118.82023999999998 31.277662703609998,119.59112999999999 33.14995270361,120.375 35.11942270361,121.17285999999999 37.19269270361001,121.98599999999999 39.37681270361,122.81599999999999 41.67946270361001,123.66475999999999 44.109572703610006,124.53338 46.67689270361,125.42249 49.39150270361,126.33260999999999 52.263672703610005,127.26414 55.30361270361,128.21740999999997 58.52134270361,129.1927 61.92653270361001,130.19029999999998 65.52871270361001,131.21044999999998 69.33723270360998,132.25206 73.35963270361,133.31312 77.60079270361,134.39095999999998 82.06256270361,135.48236 86.74391270361,136.58387 91.64196270361,137.69213 96.75287270361,138.80321999999998 102.07004270360999,139.91224 107.58345270361,141.01409 113.28045270361,142.10379999999998 119.14745270360999,143.17699 125.17185270360999,144.23005999999998 131.34205270361002,145.25969999999998 137.64605270361,146.26283 144.07105270361,147.2369 150.60505270361003,148.18000999999998 157.23735270361001,149.09093 163.95915270361002,149.9688 170.76195270361,150.8127 177.63735270361,151.62198 184.57655270361002,152.39629 191.57115270361,153.13558999999998 198.61295270361,153.83998 205.69485270361002,154.50887999999998 212.81075270361,155.14159 219.95605270361003,155.73768 227.12785270361,156.2969 234.32465270361,156.81922 241.54675270361,157.30483999999998 248.79525270361,157.75447 256.07095270361003,158.1689 263.37495270361,158.54892 270.70795270361,158.8953 278.07055270360996,159.20881 285.46325270361,159.49027999999998 292.88635270361,159.74072999999999 300.33955270360997,159.96121 307.82215270360996,160.15281 315.33265270361,160.31664999999998 322.86905270361,160.45389 330.42885270361,160.56565 338.00885270361,160.65251 345.60615270361,160.71479 353.21815270361,160.75285 360.84185270360996,160.76709 368.47505270360995,160.75795 376.11505270360993,160.7259 383.76005270361,160.67118 391.40805270360994,160.59368 399.05805270361,160.49329 406.70945270361,160.36991 414.36215270361,160.22343 422.01665270361,160.05371 429.67405270360996,159.86066 437.33555270360995,159.64445999999998 445.00255270361,159.40541 452.67615270361,159.14377 460.35715270361,158.85983 468.04645270361,158.55383999999998 475.74485270361,158.22608 483.45275270361,157.87687 491.17065270361,157.5067 498.89835270361,157.11606999999998 506.63585270360994,156.70549999999997 514.3824527036099,156.27553999999998 522.13735270361,155.82675999999998 529.89945270361,155.35977 537.66715270361,154.87491 545.4391527036099,154.37241 553.2136527036099,153.85246999999998 560.9890527036099,153.31534 568.76345270361,152.76127 576.53505270361,152.19056 584.30195270361,151.60338 592.06235270361,150.99951 599.81455270361,150.37863 607.55725270361,149.7404 615.2892527036099,149.08449 623.0097527036099,148.41055999999998 630.7181527036099,147.71823999999998 638.41415270361,147.00713 646.09775270361,146.27671999999998 653.76955270361,145.5265 661.43025270361,144.75587 669.0812527036101,143.96421999999998 676.7243527036101,143.15087 684.36165270361,142.31520999999998 691.9953527036099,141.45711 699.6275527036099,140.57649999999998 707.26005270361,139.67329999999998 714.8946527036101,138.74743999999998 722.5328527036099,137.79886 730.17605270361,136.82753 737.82535270361,135.83369 745.48215270361,134.81770999999998 753.14735270361,133.77992999999998 760.82205270361,132.72071 768.50685270361,131.64042 776.20275270361,130.53948 783.91025270361,129.41843 791.63015270361,128.27783 799.36305270361,127.11827 807.10965270361,125.94032999999999 814.87055270361,124.74459999999999 822.64625270361,123.53191999999999 830.43705270361,122.30340999999999 838.2426527036099,121.06035 846.06235270361,119.80411 853.89475270361,118.53614999999999 861.73755270361,117.25820999999999 869.5852527036101,115.97270999999999 877.4278527036099,114.68285999999999 885.25065270361,113.39264 893.03505270361,112.10677 900.75955270361,110.83125999999999 908.40125270361,109.57288999999999 915.93745270361,108.33823 923.3462527036099,107.13337999999999 930.60705270361,105.96461699999999 937.69945270361,104.83903199999999 944.60285270361,103.76302899999999 951.29875270361,102.741823 957.77105270361,101.78006099999999 964.00465270361,100.882565 969.9857527036099,100.05273399999999 975.7044527036101,99.292294 981.1555527036099,98.60379599999999 986.33895270361,97.98965799999999 991.25855270361,97.44989799999999 995.9228527036099,96.9852397 1000.34595270361,96.59811049999999 1004.00005270361,96.32424999999999" stroke="black" stroke-width="2.0" /></svg>