<?xml version="1.0" encoding="utf-8" ?>
<svg baseProfile="full" height="116.67716" version="1.1" width="1011.998265513" xmlns="http://www.w3.org/2000/svg" xmlns:ev="http://www.w3.org/2001/xml-events" xmlns:xlink="http://www.w3.org/1999/xlink"><defs /><polygon fill="none" points="1003.998265513,56.859 1000.764265513,56.1722243 996.882765513,55.372019 992.826565513,54.563779000000004 988.5827655129999,53.748694 984.1381655129999,52.928445 979.480365513,52.105354000000005 974.5975655130001,51.282541 969.480965513,50.464108 964.1254655129999,49.655312 958.532465513,48.862686000000004 952.711865513,48.094042 946.684665513,47.355725 940.4803655129999,46.64829 934.133365513,45.96976 927.679465513,45.31611 921.1519655129999,44.68139 914.5790655129999,44.05793 907.9815655130001,43.43666 901.371365513,42.807500000000005 894.751565513,42.16466 888.122365513,41.50882 881.4834655129999,40.84115 874.834965513,40.16284 868.1769655129999,39.475080000000005 861.5097655129999,38.77913 854.833665513,38.07623 848.149065513,37.367670000000004 841.456565513,36.65477 834.756865513,35.93884 828.050765513,35.22125 821.339165513,34.503370000000004 814.623065513,33.786590000000004 807.903665513,33.07231 801.182065513,32.361959999999996 794.459865513,31.656570000000002 787.738265513,30.95672 781.018465513,30.26293 774.3014655129999,29.5757 767.587965513,28.895490000000002 760.878665513,28.22276 754.1737655129999,27.557930000000002 747.4735655129999,26.901400000000002 740.778065513,26.253550000000004 734.087065513,25.61474 727.400165513,24.98531 720.716765513,24.3656 714.0362655129999,23.755899999999997 707.357565513,23.15652 700.679665513,22.567730000000005 694.001265513,21.989450000000005 687.321465513,21.42127 680.639165513,20.862790000000004 673.953465513,20.313610000000004 667.2639655129999,19.773359999999997 660.569865513,19.24169 653.870865513,18.71824 647.166765513,18.20268 640.457365513,17.694679999999998 633.742765513,17.19393 627.023165513,16.70013 620.298865513,16.212970000000006 613.570365513,15.732169999999996 606.838265513,15.257440000000003 600.103265513,14.788540000000005 593.3663655129999,14.325510000000001 586.6283655130001,13.868609999999997 579.8898655129999,13.418140000000001 573.151765513,12.97437 566.414565513,12.537550000000003 559.678765513,12.107950000000002 552.9450655129999,11.685830000000003 546.213665513,11.271410000000003 539.485065513,10.86495 532.759565513,10.466680000000004 526.037465513,10.076820000000005 519.3187655129999,9.695599999999999 512.6037655130001,9.32322 505.89246551299993,8.95991 499.184865513,8.605880000000006 492.48086551299997,8.26155 485.780565513,7.927440000000004 479.084065513,7.604050000000001 472.391265513,7.291899999999998 465.70236551299996,6.991500000000002 459.017465513,6.703380000000003 452.336665513,6.428020000000004 445.660365513,6.165959999999998 438.98856551299997,5.917680000000004 432.32166551299997,5.683700000000002 425.659865513,5.464500000000001 419.003565513,5.260590000000008 412.353065513,5.0724599999999995 405.708765513,4.900580000000005 399.070965513,4.745370000000001 392.440065513,4.606590000000004 385.81606551299996,4.483690000000003 379.19856551299995,4.376089999999998 372.586565513,4.283210000000004 365.97906551299997,4.204520000000002 359.37436551299993,4.1394400000000005 352.77056551299995,4.087440000000001 346.16526551299995,4.048000000000002 339.555565513,4.020600000000002 332.938465513,4.0047600000000045 326.310265513,4.0 319.666965513,4.005879999999998 313.003865513,4.021970000000003 306.315765513,4.047850000000004 299.597165513,4.083210000000001 292.84216551299994,4.12856 286.04856551299997,4.184980000000003 279.266165513,4.253010000000003 272.522965513,4.333160000000007 265.81446551299996,4.42615 259.133665513,4.532759999999996 252.471565513,4.653850000000006 245.81706551300002,4.790400000000005 239.15706551300002,4.9435199999999995 232.475765513,5.114530000000002 225.754665513,5.305020000000006 218.974365513,5.516820000000003 212.220765513,5.748290000000004 205.574465513,5.99691 199.05626551300003,6.262530000000005 192.68096551300002,6.552080000000004 186.452065513,6.875230000000002 180.36266551300002,7.2408 174.39846551300002,7.656980000000004 168.540365513,8.131890000000006 162.76496551300002,8.67398 157.04566551300002,9.292710000000007 151.351865513,9.99879 145.648965513,10.793320000000001 139.907465513,11.665230000000001 134.107065513,12.60172 128.23836551300002,13.587650000000004 122.30446551300001,14.60454 116.323165513,15.630009999999999 110.32836551300001,16.638130000000004 104.36866551300001,17.600900000000003 98.50319551300001,18.50011 92.783545513,19.363440000000004 87.229315513,20.231230000000004 81.83311551300001,21.141330000000004 76.569535513,22.129240000000003 71.402205513,23.21313 66.30534551299999,24.390960000000007 61.273385513,25.65644 56.318015513,26.998850000000004 51.465115513,28.40224 46.764095513,29.839910000000003 42.289435513,31.27371 38.112445513,32.66498 34.279605513,33.983090000000004 30.804985513,35.20985 27.675575513,36.34 24.864535513,37.40493 22.360355513000002,38.444280000000006 20.150345512999998,39.46885 18.205325513,40.477230000000006 16.486995513,41.465810000000005 14.960905512999998,42.429610000000004 13.606522513,43.35931 12.401818512999998,44.25259 11.325923513,45.11147 10.361376513,45.939260000000004 9.494128513,46.73944 8.712990513000001,47.51529 8.009053513000001,48.269727 7.375202513,49.005346 6.805743513,49.724431 6.296113513,50.429005000000004 5.842670513,51.120875 5.4425375129999995,51.801674000000006 5.093481513,52.472892 4.793832213,53.13591 4.542421413,53.792029 4.3385464129999995,54.442494 4.181949613,55.088517 4.072816243,55.731304 4.011790153,56.372078800000004 4.0,57.0121108 4.037954483,57.652676 4.124397913,58.294926000000004 4.258319213,58.939935 4.439178113,59.588737 4.666874113,60.242344 4.941733513,60.901766 5.264512513,61.568029 5.636417513,62.242187 6.059139513,62.925341 6.534914513,63.618651 7.066595513,64.32334800000001 7.657766513,65.04074800000001 8.312879512999999,65.772253 9.037449513,66.51935 9.838295513,67.28358 10.723855513,68.06645 11.704566513,68.86929 12.793264512999999,69.69287 14.005445513,70.53658 15.358825513000001,71.39684 16.870685512999998,72.26354 18.559515513,73.12246 20.456495513,73.96817 22.596025513,74.79953 25.010105513,75.62442 27.724055513,76.47093000000001 30.765715513,77.4028 34.179875513,78.47356 38.004895513,79.69689 42.248565513,81.07118 46.864395513000005,82.57078 51.744505513,84.14299 56.748695513,85.72006999999999 61.762415513,87.24035 66.725495513,88.66084000000001 71.62904551300001,89.95781 76.508225513,91.12102 81.437675513,92.1473 86.518665513,93.05494 91.848595513,93.87868 97.515085513,94.65129999999999 103.57729551300001,95.40787 110.01816551300001,96.18026 116.721165513,96.96137999999999 123.386465513,97.71463 130.021165513,98.44064 136.70896551299998,99.14797 143.44326551300003,99.83483000000001 150.066765513,100.48509 156.58426551300002,101.09999 163.033365513,101.68406 169.449665513,102.24155 175.86086551300002,102.77555000000001 182.28756551300003,103.28822 188.744765513,103.78101000000001 195.241165513,104.25469 201.779365513,104.70954 208.354965513,105.14529 214.958665513,105.56079 221.580865513,105.95451 228.21276551300002,106.32512 234.846665513,106.67144 241.476165513,106.99246 248.095965513,107.28733 254.70186551300003,107.55532 261.291265513,107.79581999999999 267.86226551299995,108.00832 274.414665513,108.19236000000001 280.948865513,108.34753 287.466765513,108.47344 293.970865513,108.56969000000001 300.46516551299993,108.63582 306.95416551299996,108.6714 313.443465513,108.67716 319.938165513,108.65519 326.44306551299996,108.60759999999999 332.962265513,108.53642 339.499165513,108.44369 346.056865513,108.33144 352.63746551299994,108.20172 359.242965513,108.05661 365.87426551299995,107.89825 372.531765513,107.72885 379.215365513,107.55068 385.923665513,107.36609 392.655065513,107.17753 399.40666551299995,106.98749000000001 406.174865513,106.79855 412.955365513,106.61202 419.74376551299997,106.42714000000001 426.536065513,106.24296 433.328765513,106.05850000000001 440.118465513,105.87276 446.90266551299993,105.68476000000001 453.67886551299995,105.49349000000001 460.44536551299996,105.29796 467.200765513,105.09715 473.943965513,104.89008 480.67456551299995,104.67574 487.39236551299996,104.45313 494.097565513,104.22126 500.791065513,103.97910999999999 507.47376551299993,103.72569999999999 514.1470655129999,103.46048 520.8121655130001,103.18334 527.470565513,102.89419000000001 534.123365513,102.5929 540.771765513,102.27938 547.416865513,101.95349 554.059865513,101.61511 560.7017655129999,101.26411 567.343565513,100.90034 573.986165513,100.52367000000001 580.630665513,100.13393 587.2778655129999,99.73097000000001 593.9286655129999,99.31463 600.583865513,98.88474 607.244265513,98.44113999999999 613.910665513,97.98402 620.5836655129999,97.51396 627.264065513,97.03155000000001 633.9519655129999,96.5374 640.647765513,96.03213 647.351465513,95.51638 654.063065513,94.99081000000001 660.782065513,94.45611 667.508265513,93.91296 674.240865513,93.3621 680.979165513,92.80427 687.722165513,92.24022 694.468765513,91.67076 701.217465513,91.09667999999999 707.9667655129999,90.51876 714.715065513,89.93698 721.4606655129999,89.35064 728.201965513,88.75904 734.9373655129999,88.16147000000001 741.665765513,87.55721 748.3857655129999,86.94554 755.096365513,86.32575 761.796765513,85.69712 768.485865513,85.05893 775.1632655129999,84.41046 781.8281655129999,83.751 788.480265513,83.07983 795.1190655129999,82.39623 801.744565513,81.69947 808.356465513,80.98898 814.955165513,80.26587 821.5411655129999,79.53237 828.1152655129999,78.79064 834.678465513,78.04283000000001 841.231965513,77.29102 847.777065513,76.53726 854.3154655129999,75.78354 860.848765513,75.03184 867.3790655129999,74.28409 873.9084655129999,73.54220000000001 880.439365513,72.80806 886.974165513,72.08356 893.5157655129999,71.37056 900.067165513,70.67095 906.6315655129999,69.9865 913.210065513,69.31425 919.794965513,68.64561 926.367465513,67.97263000000001 932.898565513,67.28862000000001 939.351065513,66.58842200000001 945.682265513,65.868678 951.848965513,65.12793 957.811865513,64.366833 963.541465513,63.591032 969.021465513,62.808045 974.247265513,62.02395 979.2225655130001,61.243391 983.9567655129999,60.469758 988.462265513,59.705423 992.753365513,58.951965 996.8445655129999,58.210362 1000.750465513,57.4811512 1003.998265513,56.859" stroke="black" stroke-width="2.0" /></svg>