<?xml version="1.0" encoding="utf-8" ?>
<svg baseProfile="full" height="127.17831" version="1.1" width="1012.004072281" xmlns="http://www.w3.org/2000/svg" xmlns:ev="http://www.w3.org/2001/xml-events" xmlns:xlink="http://www.w3.org/1999/xlink"><defs /><polygon fill="none" points="1004.004072281,61.95592 1000.6112722810001,61.3223336 996.5232722810001,60.568624 992.231872281,59.788823 987.720372281,58.981635 982.972272281,58.146015999999996 977.971572281,57.281363 972.704972281,56.387789999999995 967.163672281,55.466486 961.3468722810001,54.520154 955.265172281,53.553465 948.9446722810001,52.573222 942.4260722810001,51.58671 935.757372281,50.60082 928.9876722810001,49.62167 922.1610722810001,48.65387 915.312472281,47.700089999999996 908.4642722810001,46.76095 901.625472281,45.8351 894.7933722810001,44.92027 887.962172281,44.01483 881.126472281,43.117329999999995 874.2819722810001,42.22649 867.4249722810001,41.3411 860.552572281,40.46011 853.662772281,39.58253 846.754372281,38.707499999999996 839.826972281,37.83423 832.881072281,36.96207 825.918072281,36.09043 818.9404722810001,35.21886 811.951572281,34.347 804.9557722810001,33.47461 797.9582722810001,32.60181 790.9644722810001,31.730199999999996 783.979172281,30.86189 777.0061722810001,29.99882 770.048672281,29.14284 763.108972281,28.29569 756.188672281,27.458940000000005 749.288672281,26.63409 742.409072281,25.822499999999998 735.549372281,25.025420000000004 728.7084722810001,24.244009999999996 721.884672281,23.479349999999997 715.075372281,22.732449999999993 708.277872281,22.00425 701.488572281,21.295629999999996 694.703672281,20.60669 687.9195722810001,19.936539999999994 681.133172281,19.28427 674.3418722810001,18.649029999999996 667.5431722810001,18.030069999999995 660.735472281,17.42667 653.9169722810001,16.838160000000002 647.0867722810001,16.26392 640.244172281,15.703369999999993 633.3887722810001,15.15596 626.520872281,14.62117 619.6411722810001,14.098509999999997 612.750472281,13.587510000000002 605.850572281,13.08773 598.943372281,12.598790000000001 592.0309722810001,12.120870000000004 585.1154722809999,11.654420000000002 578.1986722810001,11.199870000000004 571.282272281,10.757619999999996 564.3675722810001,10.328049999999998 557.4558722810001,9.91151 550.548072281,9.508329999999994 543.644972281,9.118829999999996 536.747072281,8.743290000000002 529.854872281,8.382000000000005 522.968472281,8.03521 516.087672281,7.70317 509.21237228100006,7.386119999999998 502.342072281,7.084290000000003 495.47607228100003,6.797779999999996 488.61377228099997,6.526399999999995 481.75437228100003,6.269979999999997 474.897072281,6.028309999999998 468.04117228099994,5.801219999999994 461.185572281,5.588529999999999 454.32937228099996,5.3900700000000015 447.471672281,5.205660000000002 440.61137228099994,5.035170000000001 433.74737228099997,4.8784299999999945 426.878472281,4.735309999999998 420.003372281,4.6056700000000035 413.120972281,4.489399999999996 406.229772281,4.386360000000003 399.328372281,4.296439999999997 392.41537228100003,4.21931 385.48967228099997,4.154519999999998 378.550772281,4.101639999999996 371.598572281,4.060209999999998 364.633372281,4.029789999999998 357.656172281,4.009929999999997 350.66817228099995,4.000159999999994 343.671572281,4.0 336.66857228099997,4.008970000000005 329.662172281,4.026539999999997 322.656072281,4.052199999999999 315.653972281,4.085389999999997 308.660572281,4.125549999999997 301.680672281,4.1721199999999925 294.719572281,4.225830000000002 287.782172281,4.289389999999997 280.87257228100003,4.36562 273.994372281,4.457239999999999 267.150072281,4.5668700000000015 260.341872281,4.697049999999997 253.570872281,4.850210000000004 246.837972281,5.028709999999997 240.14327228099998,5.234810000000003 233.486272281,5.470739999999999 226.866172281,5.73865 220.28177228099997,6.040640000000003 213.731072281,6.378820000000005 207.212272281,6.75526 200.72267228099997,7.171999999999997 194.259272281,7.629329999999996 187.81727228100002,8.126019999999997 181.389872281,8.661070000000002 174.968172281,9.233889999999995 168.54107228099997,9.844309999999993 162.09527228099998,10.492640000000002 155.614672281,11.179789999999997 149.08017228100002,11.907490000000003 142.475972281,12.678930000000001 135.803672281,13.496319999999997 129.087872281,14.358890000000002 122.37757228100001,15.261960000000002 115.74387228100001,16.19648 109.270372281,17.149659999999997 103.03878228100001,18.10678 97.11177228100001,19.06172 91.49682228100001,20.031660000000002 86.14660228100001,21.039839999999998 80.988052281,22.112339999999996 75.933642281,23.279379999999996 70.895882281,24.55433 65.843352281,25.923679999999997 60.822842281,27.3515 55.949862280999994,28.77921 51.364412281,30.14248 47.169392281,31.415770000000002 43.381502280999996,32.61034 39.963332281,33.74357 36.863822281,34.83167 34.034512281,35.88796 31.434252281,36.92292 29.029402280999996,37.94479 26.791622281,38.96212 24.699252281,39.98623 22.744542280999998,41.02019 20.926012281,42.05988 19.241822280999997,43.09774 17.687052281,44.12576 16.253512281,45.137280000000004 14.934782280999999,46.12572 13.728763280999999,47.08458 12.628653280999998,48.012 11.625568281,48.90889 10.710617281000001,49.77736 9.875707281,50.61993 9.113783281,51.43913 8.418821281,52.237414 7.785736281,53.017022 7.210262281,53.780009 6.6888492809999995,54.52825 6.218556281,55.263452 5.796977281,55.987182 5.422172281,56.700888 5.092620281,57.405922 4.807177281,58.10356 4.565052981,58.795023 4.365792781,59.481494 4.209272481,60.164138 4.095702081,60.844121 4.025640831,61.5226332 4.0,62.2009062 4.018881321,62.8801518 4.081056601,63.561453 4.185558681,64.24583200000001 4.331776681,64.934274 4.519428281,65.627745 4.748542981,66.327213 5.019456281,67.03365199999999 5.332810281,67.748065 5.689570281,68.47148899999999 6.091038280999999,69.205013 6.538889280999999,69.949786 7.0352102809999995,70.70703 7.582554281,71.478051 8.184006280999998,72.26424 8.843268281,73.06709 9.564756281000001,73.88815 10.353712281,74.72905 11.216310281,75.59135 12.159742281,76.47644 13.192192280999999,77.38521 14.322552280999998,78.31748 15.559492280999999,79.27089 16.909292281,80.23895999999999 18.377962281,81.21342 19.977662281,82.1904 21.720472281,83.16671 23.616612281000002,84.14036 25.674392281,85.11272 27.902482280999997,86.09189 30.316272281,87.09647 32.940542281,88.14227 35.802762281,89.23456 38.931652281,90.37805 42.353702281000004,91.57652 46.086222281,92.83131 50.125302280999996,94.13884999999999 54.429832280999996,95.48764 58.916222280999996,96.85084 63.494572281,98.18081000000001 68.09851228100001,99.43495 72.700962281,100.58483000000001 77.31794228100001,101.61447 82.00844228100001,102.51696 86.85763228100001,103.31331 91.94830228100001,104.04038 97.356032281,104.73667 103.132372281,105.44793999999999 109.263672281,106.2219 115.664072281,107.05862 122.21877228100001,107.93253 128.813872281,108.81495000000001 135.36167228099998,109.67984999999999 141.812272281,110.50719000000001 148.153172281,111.28338 154.40187228099998,111.99986 160.597572281,112.65408 166.782072281,113.25333 172.989672281,113.80494999999999 179.24787228099999,114.3147 185.578672281,114.78729 191.998272281,115.22663 198.515572281,115.63616999999999 205.13147228100001,116.01902000000001 211.837172281,116.37719 218.619972281,116.7105 225.466672281,117.01873 232.363972281,117.30194 239.299472281,117.56045 246.261372281,117.79486 253.238972281,118.006 260.22317228099996,118.19488 267.20617228099997,118.36269 274.182072281,118.51071999999999 281.146272281,118.64038 288.096172281,118.7531 295.030572281,118.85036 301.949972281,118.93364 308.85647228100004,119.00434 315.752772281,119.06302 322.641772281,119.10973 329.526072281,119.14451 336.407772281,119.16737 343.288672281,119.17831 350.170572281,119.17732 357.054572281,119.16438 363.941672281,119.13945000000001 370.832772281,119.10249 377.728072281,119.05346 384.627872281,118.99233000000001 391.531972281,118.91905 398.439872281,118.83358999999999 405.350772281,118.73593 412.26367228099997,118.62603 419.177572281,118.50377 426.091472281,118.36908 433.004472281,118.22183999999999 439.915972281,118.06198 446.825472281,117.88938999999999 453.73237228100004,117.70399 460.636472281,117.50567000000001 467.537572281,117.29436000000001 474.435772281,117.06996000000001 481.330972281,116.83234999999999 488.22357228100003,116.58143999999999 495.113872281,116.31710999999999 502.002272281,116.03924 508.88947228100005,115.74771 515.776172281,115.4425 522.662872281,115.12369000000001 529.550072281,114.79131000000001 536.438072281,114.44543999999999 543.3272722810001,114.08613 550.217672281,113.71345 557.109272281,113.32747 564.0020722810001,112.92827 570.8956722810001,112.51594 577.789972281,112.09057999999999 584.684372281,111.65227999999999 591.5782722810001,111.20118 598.471072281,110.73739 605.361972281,110.26105 612.250072281,109.77225 619.1344722810001,109.27088 626.014572281,108.75681 632.8898722810001,108.2299 639.759972281,107.68997999999999 646.624972281,107.13691 653.4847722810001,106.57050000000001 660.339572281,105.99056 667.189972281,105.39687 674.0363722810001,104.78922 680.8796722810001,104.16734 687.720672281,103.53097 694.560672281,102.8798 701.4007722810001,102.21351999999999 708.2424722810001,101.53179 715.0873722810001,100.83467999999999 721.9369722810001,100.12254 728.7923722810001,99.39577 735.654472281,98.65477999999999 742.5237722810001,97.90002 749.400872281,97.13193 756.285772281,96.35104 763.178172281,95.55788 770.077772281,94.75301 776.9837722810001,93.93707 783.8949722810002,93.11072 790.810272281,92.27465 797.7277722810001,91.42963 804.6457722810001,90.57645 811.5619722810001,89.71585999999999 818.474372281,88.84833 825.381372281,87.97419 832.281872281,87.09376 839.175272281,86.20727 846.0613722810001,85.3149 852.9405722810001,84.41678 859.813572281,83.51295 866.681772281,82.6034 873.546872281,81.68807 880.4108722810001,80.76679999999999 887.2765722810001,79.83939 894.1470722810001,78.90555 901.0257722810001,77.96491 907.916872281,77.01695 914.8213722810001,76.06 921.7286722810001,75.09268 928.6144722810001,74.11558 935.442272281,73.13134 942.1656722810001,72.14445 948.7339722810001,71.160795 955.098272281,70.186935 961.2171722810001,69.229721 967.0648722810001,68.29559 972.631172281,67.38882 977.9176722810001,66.511714 982.933972281,65.665085 987.694372281,64.848717 992.215172281,64.06173 996.513972281,63.302847 1000.607572281,62.5705897 1004.004072281,61.95592" stroke="black" stroke-width="2.0" /></svg>