<?xml version="1.0" encoding="utf-8" ?>
<svg baseProfile="full" height="163.21303" version="1.1" width="1012.114368" xmlns="http://www.w3.org/2000/svg" xmlns:ev="http://www.w3.org/2001/xml-events" xmlns:xlink="http://www.w3.org/1999/xlink"><defs /><polygon fill="none" points="1004.114368,96.58394000000001 1000.319968,95.62759700000001 995.690668,94.50719600000001 990.773368,93.332886 985.571268,92.08814100000001 980.0899680000001,90.781873 974.331768,89.42372800000001 968.2987680000001,88.0164 962.000468,86.56175 955.454768,85.06328 948.686268,83.52731 941.723068,81.96125 934.592868,80.37223 927.320068,78.7669 919.926968,77.1517 912.432768,75.53236000000001 904.851768,73.91342 897.194568,72.29748000000001 889.471168,70.68625 881.6921679999999,69.08136 873.868368,67.48437000000001 866.0098680000001,65.89722 858.125668,64.32220000000001 850.222168,62.76115000000001 842.3035679999999,61.215390000000006 834.371268,59.685700000000004 826.4257680000001,58.172160000000005 818.467368,56.67466 810.497068,55.193180000000005 802.516268,53.7278 794.5272679999999,52.278690000000005 786.5321680000001,50.84628000000001 778.532968,49.431090000000005 770.530968,48.03352000000001 762.526868,46.65386000000001 754.520868,45.29229 746.512568,43.94887000000001 738.501668,42.623520000000006 730.4879679999999,41.31620000000001 722.471468,40.026900000000005 714.4527680000001,38.75565 706.432268,37.50251000000001 698.4107680000001,36.26765000000001 690.3891679999999,35.05136 682.368068,33.853880000000004 674.348168,32.67546 666.3297680000001,31.516320000000007 658.313368,30.376660000000015 650.299268,29.256670000000014 642.287668,28.156560000000013 634.278568,27.07654000000001 626.2720680000001,26.016790000000015 618.268168,24.977490000000003 610.266868,23.958810000000014 602.267868,22.96092 594.271068,21.983949999999993 586.276868,21.02810000000001 578.2856680000001,20.09356000000001 570.298268,19.18059000000001 562.3157679999999,18.28944 554.3396680000001,17.420389999999998 546.371368,16.57387 538.4121680000001,15.750460000000004 530.462668,14.95066 522.522968,14.17492 514.592768,13.423620000000014 506.671068,12.697119999999998 498.756568,11.995700000000014 490.847768,11.319410000000019 482.944568,10.668290000000013 475.047868,10.042470000000009 467.159568,9.442160000000001 459.282868,8.867599999999996 451.42196800000005,8.319090000000017 443.58186800000004,7.797280000000001 435.767268,7.303740000000005 427.98156800000004,6.840080000000015 420.226768,6.407750000000007 412.503868,6.008050000000011 404.812468,5.642200000000017 397.151268,5.311310000000006 389.51796800000005,5.016239999999996 381.91076799999996,4.757509999999996 374.327968,4.5356800000000135 366.768568,4.351299999999995 359.231668,4.204970000000003 351.717068,4.097260000000006 344.224668,4.0287600000000054 336.754768,4.0 329.307968,4.0114400000000074 321.88466800000003,4.063520000000011 314.485568,4.156680000000009 307.111168,4.29131000000001 299.762268,4.467780000000005 292.43966800000004,4.686470000000014 285.144268,4.947810000000004 277.877668,5.252220000000008 270.641568,5.600059999999999 263.438468,5.991590000000002 256.270668,6.4269999999999925 249.141368,6.90637000000001 242.053568,7.42989 235.010668,7.99803 228.01616800000002,8.611140000000006 221.073268,9.269480000000001 214.185168,9.973150000000004 207.35506800000002,10.722150000000013 200.585768,11.516370000000009 193.881268,12.355620000000002 187.246268,13.239460000000008 180.686868,14.167060000000006 174.20976800000003,15.13722 167.82206800000003,16.14836000000001 161.53136800000001,17.19859000000001 155.345368,18.28638000000001 149.27246800000003,19.41019 143.320668,20.568030000000007 137.49746800000003,21.757540000000006 131.80966800000002,22.976000000000013 126.263068,24.2205 120.862668,25.488169999999997 115.61416799999999,26.775990000000007 110.523668,28.080399999999997 105.596468,29.39748 100.836638,30.723160000000007 96.24695799999999,32.053380000000004 91.828408,33.38441 87.581278,34.71372 83.505028,36.03915 79.597908,37.35850000000001 75.856848,38.66966000000001 72.277658,39.970740000000006 68.855108,41.260070000000006 65.583268,42.53627 62.456148,43.798660000000005 59.468208,45.047070000000005 56.613878,46.28122000000001 53.887448,47.500820000000004 51.283138,48.705560000000006 48.795088,49.89522000000001 46.417477999999996,51.06962000000001 44.144557999999996,52.228680000000004 41.970798,53.37247000000001 39.891638,54.50177000000001 37.902928,55.61757000000001 36.000538,56.720690000000005 34.180368,57.811870000000006 32.438448,58.89173000000001 30.770908,59.960820000000005 29.174028,61.01964 27.644247999999997,62.06862000000001 26.178158,63.10817000000001 24.772578,64.13868000000001 23.425247999999996,65.16089 22.134517999999996,66.17579 20.898707999999996,67.18424 19.716088,68.18700000000001 18.584928,69.1847 17.503498,70.17792 16.470108000000003,71.16714 15.483078,72.15281 14.540778000000001,73.13531 13.641651,74.11495000000001 12.784154000000001,75.09203000000001 11.967312,76.06674000000001 11.191410999999999,77.03908000000001 10.45675,78.00906 9.763447,78.97673 9.111476,79.94219000000001 8.500701,80.90555 7.930899,81.86694 7.401785,82.82651000000001 6.913027,83.78444 6.4642610000000005,84.74087 6.055099,85.696 5.685143,86.65 5.353894,87.60267 5.0605668999999995,88.552847 4.8043414,89.499526 4.5844515999999995,90.442006 4.4002225,91.379851 4.2510986,92.31284500000001 4.13666746,93.240965 4.05668096,94.164355 4.0110765,95.083307 4.0,95.99825000000001 4.02383258,96.909745 4.08322424,97.8184896 4.17906016,98.7253311 4.3115521,99.63130000000001 4.4804962,100.537378 4.6859352,101.444367 4.9281437,102.35289200000001 5.207601,103.26339100000001 5.524965,104.1761 5.881042,105.091019 6.276755,106.007879 6.713092,106.926085 7.191051,107.84465 7.711556,108.76212000000001 8.275351,109.67653 8.882952,110.58644000000001 9.534737,111.49125000000001 10.230965999999999,112.39048000000001 10.971775000000001,113.28364 11.757176000000001,114.17032 12.587057000000001,115.05015 13.461188000000002,115.92284000000001 14.379228000000001,116.7882 15.340738,117.64615 16.345208,118.49672000000001 17.392058,119.34012000000001 18.481378,120.17669000000001 19.614818,121.00679000000001 20.794387999999998,121.83083 22.022208,122.64924 23.300538,123.46251000000001 24.631698,124.27119 26.018108,125.07585 27.462258,125.87719000000001 28.966588,126.67593000000001 30.533478,127.47292 32.165127999999996,128.26907 33.864048,129.06492 35.633697999999995,129.86025 37.477728,130.65484 39.399978000000004,131.44847000000001 41.404427999999996,132.24096 43.495218,133.03225 45.676638,133.82236 47.953188,134.61149 50.329567999999995,135.40005000000002 52.810838,136.18868 55.403188,136.97734 58.113518,137.76551 60.948997999999996,138.55258 63.916978,139.33795 67.024858,140.12101 70.280008,140.90121 73.68960799999999,141.67808000000002 77.260558,142.4513 80.999738,143.21975 84.91381799999999,143.98139 89.008508,144.73402000000002 93.28840799999999,145.47537 97.756928,146.20325 102.416438,146.91569 107.268668,147.61101000000002 112.315268,148.28699 117.55606800000001,148.94089 122.989168,149.57010000000002 128.610468,150.17232 134.41406800000001,150.7457 140.39306800000003,151.28892000000002 146.540268,151.80037000000002 152.84736800000002,152.27807 159.30486800000003,152.72051 165.902768,153.12666000000002 172.631168,153.49609 179.481268,153.82885000000002 186.445268,154.12474 193.515468,154.38368 200.683668,154.60595 207.94236800000002,154.79214000000002 215.284368,154.94322 222.703268,155.06016 230.19336800000002,155.14358000000001 237.74926800000003,155.19422 245.36586800000003,155.21303 253.038668,155.20107000000002 260.763868,155.15957 268.538268,155.08964 276.358968,154.99221 284.223568,154.86834 292.12956800000006,154.71913 300.07506800000004,154.54574 308.058168,154.34941 316.077468,154.13128 324.131068,153.89245 332.21706800000004,153.63411000000002 340.332768,153.35750000000002 348.475568,153.06392 356.642168,152.75467 364.829068,152.43047 373.032668,152.09174000000002 381.249168,151.73894 389.474768,151.37253 397.70556799999997,150.99305 405.937768,150.60097000000002 414.167568,150.19622 422.392968,149.7783 430.612968,149.34669000000002 438.828568,148.90076 447.04176800000005,148.4398 455.256368,147.96303 463.47706800000003,147.47024 471.708068,146.96198 479.952268,146.43888 488.211568,145.90163 496.486468,145.35103 504.77636800000005,144.78794 513.0793679999999,144.21319 521.393368,143.62726 529.716668,143.03055 538.047968,142.42346 546.386468,141.80635 554.731868,141.17954 563.084168,140.54335 571.443768,139.89806000000002 579.811068,139.24399 588.186468,138.58145000000002 596.570268,137.91072 604.962668,137.23214000000002 613.364168,136.54602 621.774868,135.85273 630.1942680000001,135.1527 638.6219679999999,134.4464 647.0565680000001,133.73433 655.4964679999999,133.01707 663.939668,132.29514 672.383968,131.56873000000002 680.828068,130.83778 689.271268,130.10215 697.713868,129.36164000000002 706.156968,128.61599 714.602268,127.86495000000001 723.0515680000001,127.10869000000001 731.505868,126.34752 739.965268,125.58185 748.428668,124.81217000000001 756.894368,124.03903 765.359868,123.26278 773.823068,122.48341 782.282368,121.70087000000001 790.736668,120.91508 799.185568,120.12586 807.6291679999999,119.33314 816.067068,118.53704 824.498268,117.73778000000001 832.921268,116.93564 841.333468,116.13097 849.731668,115.32418000000001 858.111168,114.51582 866.465368,113.70661000000001 874.786368,112.89744 883.0647680000001,112.08919 891.2893680000001,111.28249000000001 899.447768,110.47803 907.5262680000001,109.67669000000001 915.509968,108.87961 923.381068,108.088796 931.116568,107.306931 938.690568,106.537029 946.0755680000001,105.782266 953.242868,105.045997 960.164168,104.33154800000001 966.815068,103.641958 973.174068,102.980309 979.222768,102.34932900000001 984.9497680000001,101.750273 990.351968,101.18130000000001 995.4342680000001,100.640302 1000.208968,100.131988 1004.114368,99.72394" stroke="black" stroke-width="2.0" /></svg>