<?xml version="1.0" encoding="utf-8" ?>
<svg baseProfile="full" height="162.81562000000002" version="1.1" width="1012.04601165" xmlns="http://www.w3.org/2000/svg" xmlns:ev="http://www.w3.org/2001/xml-events" xmlns:xlink="http://www.w3.org/1999/xlink"><defs /><polygon fill="none" points="1004.04601165,89.99990000000001 999.5022116499999,89.45541800000001 994.1240116499999,88.80882900000002 988.62551165,88.21205 983.02551165,87.57510700000002 977.31871165,86.82620800000001 971.4773116499999,86.087162 965.49601165,85.38058000000001 959.3636116499999,84.56725200000001 953.0394116499999,83.65403300000001 946.53241165,82.71982600000001 939.8953116499999,81.77257800000001 933.17321165,80.80469400000001 926.3918116499999,79.80494000000002 919.5557116499999,78.76556000000001 912.66291165,77.68720000000002 905.7133116499999,76.57153000000001 898.7088116499999,75.42099000000002 891.65321165,74.24089000000001 884.55311165,73.03850000000001 877.41801165,71.82194000000001 870.26041165,70.59737000000001 863.0914116499999,69.36537000000001 855.91771165,68.12501 848.7406116499999,66.87472000000001 841.5588116499999,65.61436 834.37241165,64.34513000000001 827.18451165,63.06874000000001 820.00081165,61.78612000000001 812.8262116499999,60.495750000000015 805.66321165,59.19543000000001 798.51141165,57.88337000000001 791.3669116499999,56.56478000000001 784.22451165,55.24813000000001 777.07801165,53.94175000000001 769.92201165,52.64854000000001 762.75481165,51.36199000000001 755.57791165,50.07509000000001 748.3956116499999,48.78236000000001 741.2124116499999,47.48637000000001 734.03051165,46.19307000000001 726.8496116499999,44.90801000000001 719.6684116499999,43.63423000000002 712.48491165,42.370970000000014 705.2966116499999,41.117060000000016 698.1005116499999,39.87109000000001 690.8964116499999,38.63094000000001 683.69061165,37.39516000000001 676.49671165,36.16362000000001 669.3311116499999,34.94185000000002 662.2001116499999,33.74099000000001 655.09521165,32.57003000000001 647.99531165,31.433470000000007 640.87931165,30.321520000000007 633.74051165,29.221140000000013 626.58741165,28.121660000000013 619.43971165,27.022610000000007 612.3116116499999,25.93552000000001 605.2053116499999,24.871030000000005 598.11281165,23.83687000000002 591.0222116499999,22.832710000000006 583.92401165,21.85573000000001 576.81241165,20.903660000000002 569.68471165,19.973860000000016 562.54241165,19.062690000000003 555.39061165,18.166820000000016 548.23841165,17.284030000000016 541.09521165,16.417220000000015 533.96611165,15.570930000000018 526.85211165,14.749099999999999 519.7504116499999,13.954540000000009 512.65871165,13.18904000000002 505.57621165000006,12.454480000000004 498.50381165000005,11.75281000000001 491.44141165,11.085570000000004 484.38431165000003,10.45374000000001 477.32201165,9.857870000000005 470.24091165000004,9.295470000000023 463.13631165000004,8.758960000000016 456.02031165,8.241190000000017 448.92161165,7.737620000000021 441.86961165,7.258950000000013 434.86951165000005,6.82210000000002 427.90031165000005,6.441800000000015 420.92121165000003,6.122700000000009 413.9011116500001,5.8474800000000045 406.83941165000005,5.596520000000012 399.76851165,5.352360000000019 392.73721165000006,5.122110000000021 385.76981165,4.929700000000011 378.85941165,4.797290000000018 371.97291165,4.735790000000009 365.07171165000005,4.7190800000000195 358.12911165,4.7127900000000125 351.13071165,4.6821700000000135 344.07391165,4.6128200000000135 336.96311165000003,4.517410000000012 329.80831165,4.411170000000013 322.62521165000004,4.30856 315.43031165,4.216170000000005 308.23341165000005,4.137710000000013 301.03721165,4.076720000000009 293.83871165000005,4.034450000000007 286.63631165000004,4.00942000000002 279.43231165,4.0 272.23291165,4.005200000000016 265.04571165000004,4.027100000000004 257.87671165,4.068610000000021 250.73021165,4.132580000000019 243.60861164999997,4.222020000000015 236.51101165,4.340260000000015 229.43361165,4.490660000000005 222.36961165,4.675670000000011 215.31461165,4.893170000000012 208.27191165,5.139500000000012 201.25381165,5.410750000000007 194.27761165,5.708140000000014 187.35691165,6.0397800000000075 180.49681164999998,6.414050000000003 173.69511165,6.838670000000008 166.94711164999998,7.317140000000023 160.25131165,7.850770000000011 153.61011165,8.4405 147.02921165,9.087030000000013 140.51711165,9.79134000000002 134.08451165,10.553850000000011 127.74351165,11.374150000000014 121.50751165,12.253370000000018 115.39141165,13.196720000000013 109.40871165,14.208580000000012 103.57112165,15.291830000000004 97.88890165,16.449690000000004 92.37057164999999,17.689360000000008 87.02001165,19.01208000000001 81.83618165,20.40963000000002 76.81812165,21.862700000000018 71.98529165000001,23.33647000000002 67.37804165,24.82924 63.013501649999995,26.38302000000001 58.871671649999996,28.018020000000007 54.929491649999996,29.705970000000008 51.184411649999994,31.41358000000001 47.64635165,33.12926000000001 44.31934165,34.85291000000001 41.19965165,36.58485000000001 38.281991649999995,38.32447000000001 35.55934165,40.070630000000016 33.02290165,41.82197000000001 30.66151165,43.574210000000015 28.46310165,45.31985000000001 26.41674165,47.05201000000001 24.51232165,48.764770000000006 22.74055165,50.453350000000015 21.09493165,52.11496000000001 19.56983165,53.74793000000001 18.15920165,55.351090000000006 16.85671165,56.92374000000001 15.655981650000001,58.46555000000001 14.550681650000001,59.976500000000016 13.53463965,61.45681000000001 12.601472650000002,62.90595000000001 11.744872650000001,64.32277000000002 10.95908465,65.70635000000001 10.238832649999999,67.05611000000002 9.57924665,68.37174000000002 8.975818649999999,69.65319000000001 8.42385365,70.90060000000001 7.91769265,72.11423 7.45347565,73.29495000000001 7.03015665,74.44445000000002 6.64624965,75.56422 6.298420650000001,76.65506 5.98329365,77.71763000000001 5.69812765,78.75267000000001 5.44101765,79.76103 5.21027165,80.743531 5.00430295,81.70098600000001 4.82050855,82.633936 4.65579055,83.543057 4.51218025,84.43 4.39664175,85.29505600000002 4.30031545,86.13976100000001 4.19922775,86.96614300000002 4.09634411,87.77400500000002 4.02084585,88.564097 4.0,89.34075740000002 4.06099479,90.1114177 4.20375205,90.8882518 4.35351995,91.68375800000001 4.50321515,92.497645 4.71198485,93.31776700000002 5.01696405,94.12989000000002 5.36951165,94.94784800000001 5.76400365,95.772067 6.21514465,96.59353600000001 6.72515565,97.412045 7.27400265,98.24114100000001 7.867312650000001,99.07355900000002 8.54801665,99.87591100000002 9.30226665,100.66316 10.09715965,101.46378000000001 10.933541649999999,102.27737000000002 11.81602265,103.10034000000002 12.75003465,103.92849000000001 13.74208265,104.75697000000001 14.79978165,105.58063000000001 15.92879165,106.39823000000001 17.13334165,107.21126000000001 18.41781165,108.02162000000001 19.78663165,108.83174000000001 21.24411165,109.64469000000001 22.794091650000002,110.46435000000001 24.43941165,111.29563000000002 26.183701650000003,112.14276000000001 28.034711650000002,113.00689000000001 30.00152165,113.88900000000001 32.09429165,114.79043000000001 34.324731650000004,115.71322 36.706441649999995,116.66061000000002 39.25331164999999,117.63740000000001 41.978201649999995,118.64939000000001 44.891101649999996,119.70320000000001 47.99968165,120.79886000000002 51.31576165,121.92170000000002 54.858951649999995,123.05207000000001 58.65773165,124.18163000000001 62.730281649999995,125.33376000000001 67.06933164999998,126.53688000000001 71.65328165,127.77694000000001 76.48057164999999,129.01136000000002 81.56908165,130.22873 86.91348165,131.44918 92.48183164999999,132.66877 98.25692165,133.86458000000002 104.23491165,135.03609 110.39361165,136.1903 116.69921165,137.32196000000002 123.12031164999999,138.42466000000002 129.63271164999998,139.49432000000002 136.22251165,140.52905 142.88151165,141.52762 149.60191164999998,142.48901 156.37661165,143.41255 163.19861165,144.2983 170.06091164999998,145.14728000000002 176.95641164999998,145.96078 183.87781165,146.74009 190.81861165,147.48477000000003 197.77351165,148.19344 204.73881165,148.86496 211.71211165,149.49838 218.69281164999998,150.09282000000002 225.68191165,150.64753000000002 232.68201165,151.16195000000002 239.69651165000002,151.63751000000002 246.72721165000002,152.07742000000002 253.77391165,152.4848 260.83401165000004,152.86228 267.90301165000005,153.21047000000002 274.9747116500001,153.52943000000002 282.04131165,153.81917 289.09501165,154.07744000000002 296.13371165,154.2994 303.16331165,154.48032 310.19691165,154.61678 317.24721165000005,154.71271000000002 324.31631165000005,154.77449000000001 331.39461165,154.80843000000002 338.46341165,154.81562000000002 345.51221165000004,154.78892000000002 352.54611165,154.72061000000002 359.58481165,154.60423000000003 366.65141165000006,154.44514 373.75311165000005,154.25464 380.87651165000005,154.04483 387.99131165,153.82066000000003 395.07501165,153.57181 402.1271116500001,153.28594 409.16821165,152.95145000000002 416.22751165,152.57047 423.32061165000005,152.15342 430.44371165,151.71208000000001 437.57531165000006,151.25415 444.69481165,150.77511 451.79491165,150.26802 458.88261165,149.72566 465.97311165,149.14696 473.07861165,148.53515000000002 480.20531165000006,147.89389 487.35341165,147.22719 494.51941165000005,146.53903000000003 501.69641165,145.83368000000002 508.87491165000006,145.11538000000002 516.0448116499999,144.38312000000002 523.20161165,143.63202 530.34821165,142.85643000000002 537.49401165,142.05252000000002 544.6492116499999,141.22219 551.8201116500001,140.36859 559.00941165,139.49529 566.21591165,138.60607000000002 573.43551165,137.70495 580.66141165,136.79638 587.88461165,135.88277 595.09691165,134.9616 602.29441165,134.02924000000002 609.47721165,133.08183000000002 616.64851165,132.11686 623.8129116499999,131.13248000000002 630.9763116500001,130.1267 638.14551165,129.10074 645.3256116499999,128.06233 652.51781165,127.02058000000001 659.71851165,125.98396000000001 666.9216116499999,124.95084000000001 674.12371165,123.91426000000001 681.3260116499999,122.86666000000001 688.53371165,121.80476000000002 695.75211165,120.73317000000002 702.9833116499999,119.65774000000002 710.22561165,118.584 717.4746116499999,117.5121 724.7252116499999,116.43997000000002 731.97231165,115.36564000000001 739.2120116499999,114.29020000000001 746.4437116500001,113.21846000000001 753.66991165,112.15496000000002 760.8962116499999,111.10275000000001 768.12651165,110.06025000000001 775.35961165,109.02520000000001 782.58861165,107.99626 789.80431165,106.97590000000001 797.0022116499999,105.96936000000001 804.18451165,104.98102000000002 811.35931165,104.01319000000001 818.53341165,103.06360000000001 825.70751165,102.12976 832.87531165,101.21027000000001 840.02711165,100.30771000000001 847.15831165,99.42726800000001 854.2707116500001,98.57334200000001 861.37171165,97.74822100000002 868.4673116499999,96.94938800000001 875.5567116499999,96.17402400000002 882.63211165,95.420269 889.68141165,94.69119100000002 896.69451165,93.993863 903.66481165,93.33483700000001 910.58931165,92.71960000000001 917.46791165,92.15122400000001 924.30451165,91.63181600000001 931.10621165,91.16318500000001 937.88031165,90.74394860000001 944.6186116499999,90.36822640000001 951.29111165,90.03066444000001 957.8511116499999,89.72868930000001 964.2654116499999,89.49346840000001 970.55761165,89.35441600000001 976.72941165,89.26136910000001 982.72401165,89.20343160000002 988.50261165,89.22845420000002 994.07051165,89.40109840000001 999.47771165,89.72726000000002 1004.04601165,89.99990000000001" stroke="black" stroke-width="2.0" /></svg>