<?xml version="1.0" encoding="utf-8" ?>
<svg baseProfile="full" height="162.13860999999997" version="1.1" width="1012.05971573" xmlns="http://www.w3.org/2000/svg" xmlns:ev="http://www.w3.org/2001/xml-events" xmlns:xlink="http://www.w3.org/1999/xlink"><defs /><polygon fill="none" points="1004.05971573,89.32023 1000.5772157299999,88.9368836 996.38131573,88.4656875 991.9769157300001,87.960094 987.34681573,87.41646499999999 982.47391573,86.830879 977.34191573,86.19923899999999 971.93741573,85.51747499999999 966.25181573,84.781892 960.28541573,83.989695 954.05101573,83.139691 947.5777157299999,82.233255 940.9078157299999,81.274913 934.08991573,80.27100899999999 927.1718157299999,79.22864 920.19471573,78.15467 913.18901573,77.05478 906.1708157300001,75.93284 899.14141573,74.79044999999999 892.09251573,73.62756999999999 885.01601573,72.44413999999999 877.9060157299999,71.24041 870.75901573,70.01706999999999 863.57431573,68.77526999999999 856.3538157300001,67.51668 849.10221573,66.24351 841.82631573,64.95779999999999 834.53251573,63.6613 827.22601573,62.35561 819.91111573,61.04214999999999 812.59091573,59.722159999999995 805.26721573,58.39668999999999 797.9409157299999,57.06665999999999 790.61221573,55.7332 783.2815157299999,54.397619999999996 775.94971573,53.06130999999999 768.61801573,51.72570999999999 761.2881157300001,50.39236999999999 753.9621157299999,49.06285999999999 746.64211573,47.738749999999996 739.33061573,46.42137999999999 732.02931573,45.111929999999994 724.73941573,43.811479999999996 717.46181573,42.521 710.19671573,41.241369999999996 702.94391573,39.97335999999999 695.70271573,38.717659999999995 688.47251573,37.474869999999996 681.2527157300001,36.245599999999996 674.0427157299999,35.030469999999994 666.84221573,33.83011 659.65081573,32.64516999999999 652.46831573,31.47628999999999 645.2944157300001,30.324099999999994 638.12901573,29.18914999999999 630.97201573,28.071989999999992 623.82291573,26.973149999999997 616.68151573,25.893129999999992 609.54731573,24.83243999999999 602.41991573,23.791569999999993 595.29861573,22.770960000000002 588.18321573,21.771019999999993 581.07351573,20.792180000000002 573.96961573,19.83488 566.87171573,18.89958999999999 559.78041573,17.986810000000006 552.69641573,17.097049999999996 545.62041573,16.230909999999994 538.55331573,15.38915 531.4956157299999,14.572519999999997 524.4477157299999,13.781729999999996 517.40951573,13.017449999999997 510.38111573000003,12.28031 503.36201573,11.570939999999993 496.35181573,10.889869999999988 489.35011573,10.237589999999997 482.35641573000004,9.614529999999988 475.37061573,9.021180000000001 468.39261573,8.457999999999998 461.42231573,7.925470000000004 454.45991573,7.424079999999989 447.50551573,6.954340000000002 440.55961572999996,6.516850000000005 433.62251573000003,6.112229999999997 426.69481572999996,5.741109999999992 419.77701573,5.404079999999993 412.86991573,5.1017599999999845 405.97411573,4.834699999999998 399.09051573,4.603489999999994 392.21971573,4.408670000000001 385.36191572999996,4.2508299999999934 378.51641572999995,4.130480000000006 371.68221573,4.048179999999988 364.85731573,4.004480000000001 358.03921573,4.0 351.22481573,4.035399999999996 344.41051573,4.1109500000000025 337.59321573,4.226219999999998 330.77091572999996,4.3807800000000015 323.94251573,4.574179999999998 317.10821573,4.805970000000002 310.26901573000004,5.075670000000002 303.42711573,5.3827 296.58591573,5.72654 289.74891572999996,6.107319999999987 282.91901572999996,6.525310000000005 276.09851573000003,6.980779999999996 269.28921573,7.4739999999999895 262.49201573,8.005250000000004 255.70731573000003,8.574849999999984 248.93491572999997,9.183159999999987 242.17421573000001,9.830519999999993 235.42501572999998,10.517200000000003 228.68721573,11.243409999999983 221.96161573,12.009359999999987 215.24901573,12.815169999999995 208.55071573,13.660879999999992 201.86851573,14.546499999999995 195.20431573,15.47202999999999 188.56091573,16.437820000000002 181.94111572999998,17.44413 175.34841572999997,18.491069999999993 168.78661573,19.578599999999994 162.25971573,20.706489999999988 155.77221573,21.874329999999986 149.32871573,23.081580000000002 142.93471573,24.32844999999999 136.59761572999997,25.61571999999999 130.32651573,26.943529999999996 124.13141573,28.311329999999998 118.02321572999999,29.717909999999996 112.01321572999998,31.161379999999994 106.11231572999999,32.63926 100.33113572999999,34.148559999999996 94.68096573,35.685869999999994 89.18008572999999,37.245729999999995 83.85265573,38.81973 78.72412573,40.397479999999995 73.81708572999999,41.96809 69.14717572999999,43.52378999999999 64.71892573,45.06014999999999 60.52781573,46.574679999999994 56.56358573,48.066269999999996 52.812905730000004,49.534789999999994 49.26168573,50.98078999999999 45.90181573,52.4039 42.733165729999996,53.800239999999995 39.75770573,55.163999999999994 36.97544573,56.489329999999995 34.38271573,57.7715 31.97204573,59.007479999999994 29.73297573,60.19591 27.65318573,61.336909999999996 25.72038573,62.432579999999994 23.92516573,63.489529999999995 22.25767573,64.5146 20.70762573,65.51347 19.265015730000002,66.49079 17.920535729999997,67.45038 16.665715730000002,68.39537 15.492955730000002,69.32834 14.395385730000001,70.25109 13.36667573,71.16288999999999 12.401228730000001,72.06215 11.494226730000001,72.94757 10.64143873,73.81810999999999 9.839555729999999,74.6738 9.08949273,75.52162 8.39370873,76.37043 7.75388373,77.22688 7.17027573,78.09088 6.64166973,78.95736 6.166315730000001,79.822498 5.74228773,80.683622 5.36768573,81.538969 5.04076773,82.38743799999999 4.76002543,83.228422 4.52423433,84.061685 4.33248283,84.887271 4.18419653,85.705441 4.07916271,86.516634 4.01756009,87.32143599999999 4.0,88.120572 4.02758486,88.9149063 4.10191608,89.70546549999999 4.22341543,90.493702 4.39122343,91.281266 4.60491623,92.06962 4.8645314299999995,92.860045 5.17052273,93.65365299999999 5.52372473,94.451371 5.92531873,95.25392 6.3767897300000005,96.06175499999999 6.87986373,96.874978 7.43640373,97.69319899999999 8.04823773,98.515344 8.716875729999998,99.33937999999999 9.44306473,100.16193 10.22612373,100.97784 11.06446673,101.78318 11.95816673,102.58156 12.90812773,103.38013 13.916832730000001,104.18551 14.988545730000002,104.9981 16.12815573,105.81718 17.341065730000004,106.64169999999999 18.633265729999998,107.47028999999999 20.01185573,108.30309 21.48517573,109.14196 23.062565730000003,109.98935 24.75437573,110.84837999999999 26.57182573,111.72312 28.526645730000002,112.61876 30.630305730000003,113.54203 32.893835730000006,114.4998 35.330795730000006,115.49374999999999 37.95461573,116.52338999999999 40.77654573,117.58691999999999 43.80444573,118.68110999999999 47.04194573,119.8015 50.48901573,120.94299 54.14452573,122.10114999999999 58.01195573,123.274 62.10380573,124.46158 66.43452573,125.66338999999999 71.01551572999999,126.87817999999999 75.85242573,128.10378 80.94169572999999,129.33677999999998 86.26741572999998,130.5716 91.80440573,131.79896 97.52374573,133.00943999999998 103.39789572999999,134.19543 109.40641572999999,135.35201999999998 115.53711573,136.4766 121.77931573,137.56732 128.12161573,138.62278 134.55191573,139.64215 141.05841573,140.62517 147.62961572999998,141.57217 154.25501573,142.48408 160.92521573,143.36214 167.63271573,144.20614999999998 174.37091572999998,145.0153 181.13421573,145.78904 187.91781573,146.52703 194.71801573,147.22917 201.53241573,147.89553 208.35941573,148.52634 215.19861572999997,149.12193 222.04981572999998,149.68262 228.91281573,150.20873999999998 235.78741573,150.70060999999998 242.67351573,151.15856 249.57061573,151.58292999999998 256.47871573,151.97404999999998 263.39751573,152.33222999999998 270.32631573000003,152.65767 277.26431573,152.95055 284.21001573,153.21105999999997 291.16121573,153.43939 298.11541573,153.63576999999998 305.06961573,153.80043999999998 312.02041572999997,153.93353 318.96451572999996,154.03452 325.90011573000004,154.10275 332.82641573,154.13764 339.74391572999997,154.13860999999997 346.65431573,154.10505999999998 353.56051573,154.03634 360.46651573,153.93187 367.37661572999997,153.79201 374.29451572999994,153.61745 381.22311572999996,153.40886 388.16441573000003,153.16689 395.11941573,152.89219 402.08841573,152.58544999999998 409.07061573,152.2474 416.06461573,151.87867 423.06931572999997,151.47985 430.08361573,151.05153 437.10701573,150.59431 444.13881573,150.10877 451.17891572999997,149.5955 458.22751573,149.05507 465.28491573,148.48804 472.35131572999995,147.89495 479.42731573,147.27639 486.51291573000003,146.63290999999998 493.60851573,145.9651 500.71421573,145.27353 507.83021573,144.55881 514.95661573,143.82155 522.09361573,143.06243 529.24101573,142.28212 536.39901573,141.48129999999998 543.56741573,140.66068 550.7462157299999,139.82098 557.9350157299999,138.96294 565.13371573,138.08722999999998 572.34191573,137.19444 579.5596157299999,136.28521999999998 586.78641573,135.36016999999998 594.02211573,134.41993 601.26661573,133.46514 608.51951573,132.49644 615.78071573,131.51448 623.05041573,130.51984 630.32871573,129.51312 637.6162157299999,128.49487 644.91351573,127.4656 652.2216157299999,126.42581999999999 659.5418157299999,125.37601000000001 666.87491573,124.3168 674.22131573,123.24898999999999 681.58051573,122.17352 688.9511157300001,121.09146 696.33081573,120.00403999999999 703.71641573,118.9126 711.1040157299999,117.81872 718.48951573,116.7242 725.86951573,115.63081 733.24131573,114.54023 740.60301573,113.45399 747.95331573,112.37352999999999 755.29151573,111.30016 762.61771573,110.23503 769.93171573,109.17916 777.23281573,108.13359 784.51981573,107.09943 791.79131573,106.07784 799.0451157299999,105.07 806.2788157299999,104.07714 813.48971573,103.10081 820.6756157299999,102.14286 827.8355157299999,101.20500999999999 834.9690157299999,100.2888 842.07671573,99.39564999999999 849.15991573,98.526828 856.22081573,97.68348499999999 863.26171573,96.866357 870.28341573,96.075797 877.2850157299999,95.31234699999999 884.26311573,94.57673299999999 891.21251573,93.86980799999999 898.12641573,93.192505 904.99631573,92.545779 911.81201573,91.93228599999999 918.55931573,91.35865299999999 925.21971573,90.831739 931.7718157300001,90.357683 938.19261573,89.9415453 944.45991573,89.5870216 950.55321573,89.29627873999999 956.4557157300001,89.0698745 962.1553157300001,88.9051547 967.64601573,88.7966386 972.92721573,88.7386763 978.00271573,88.7258299 982.87881573,88.753025 987.5639157300001,88.8156288 992.06721573,88.90947609999999 996.39861573,89.0308625 1000.56801573,89.1765169 1004.05971573,89.32023" stroke="black" stroke-width="2.0" /></svg>