<?xml version="1.0" encoding="utf-8" ?>
<svg baseProfile="full" height="162.52904" version="1.1" width="1012.2323028" xmlns="http://www.w3.org/2000/svg" xmlns:ev="http://www.w3.org/2001/xml-events" xmlns:xlink="http://www.w3.org/1999/xlink"><defs /><polygon fill="none" points="1004.2323028,99.73137 1000.7911028,99.0914842 996.6247027999999,98.31585 992.2254027999999,97.495809 987.5706028,96.626954 982.6368027999999,95.704685 977.4010027999999,94.724477 971.8434027999999,93.682347 965.9514028,92.57561799999999 959.7254028,91.404023 953.1858027999999,90.171084 946.3790028,88.88483 939.3700028,87.55597 932.2294028,86.19605 925.0213028,84.81548 917.7945027999999,83.42184999999999 910.5770028,82.01895 903.3743028,80.60629 896.1721028,79.1805 888.9507027999999,77.73924 881.6947028,76.28126 874.3938028,74.80629 867.0427027999999,73.31515 859.6418028,71.80987 852.1982028,70.29386 844.7240027999999,68.77099 837.2324027999999,67.2443 829.7345028,65.71635 822.2391028,64.18925999999999 814.7526028,62.66465 807.2790028,61.14364 799.8199027999999,59.62689 792.3752027999999,58.11524 784.9447028,56.60971 777.5284028,55.11134 770.1262028,53.6212 762.7384027999999,52.14037 755.3653028,50.66993 748.0074028,49.21096 740.6648028,47.76451 733.3376027999999,46.33153 726.0253028,44.91287 718.7269028,43.509319999999995 711.4414028,42.12156 704.1671028,40.75022 696.9022027999999,39.39576 689.6451028,38.05836 682.3949028,36.73826 675.1508028,35.4358 667.9130028,34.151399999999995 660.6818028,32.88557 653.4581027999999,31.638879999999986 646.2432028000001,30.41207 639.0382028,29.206069999999997 631.8438027999999,28.021699999999996 624.6601027999999,26.85973 617.4867028,25.720799999999997 610.3228028,24.605509999999995 603.1671028,23.51437 596.0182027999999,22.447720000000004 588.8746027999999,21.405690000000007 581.7355028,20.388459999999995 574.6005028,19.396289999999993 567.4696028,18.429489999999987 560.3433028,17.488439999999997 553.2227028,16.57356999999999 546.1091028,15.685450000000003 539.0036028,14.8249 531.9075028,13.9927 524.8215028,13.189589999999995 517.7459028,12.416250000000005 510.6810028,11.673339999999996 503.6268028,10.961460000000002 496.58290280000006,10.28116 489.5490028,9.632930000000002 482.52480280000003,9.017269999999996 475.51000280000005,8.434659999999994 468.50420280000003,7.885589999999993 461.5072028,7.370539999999991 454.5188028,6.890010000000004 447.5386028,6.444500000000005 440.5666028,6.034490000000005 433.6030028,5.660509999999988 426.6483028,5.323059999999998 419.70290280000006,5.0226399999999956 412.76800280000003,4.759769999999989 405.8446028,4.534930000000003 398.93400280000003,4.3485999999999905 392.0375028,4.201329999999999 385.1559028,4.093749999999986 378.2889028,4.026440000000008 371.4353028,4.0 364.5934028,4.015029999999996 357.7604028,4.072209999999998 350.9329028,4.172280000000001 344.10670280000005,4.31562000000001 337.27840280000004,4.501850000000005 330.4456028,4.730540000000005 323.60700280000003,5.001270000000005 316.7628028,5.313589999999991 309.9140028,5.667000000000002 303.0631028,6.060879999999997 296.2138028,6.494630000000001 289.3701028,6.968289999999996 282.53550279999996,7.482110000000006 275.7126028,8.036360000000002 268.9034028,8.631299999999996 262.10900280000004,9.267200000000003 255.3300028,9.944400000000002 248.5661028,10.663299999999992 241.8166028,11.424279999999996 235.0812028,12.227630000000005 228.36000280000002,13.073599999999999 221.65360280000002,13.96235999999999 214.9631028,14.894019999999998 208.29010280000003,15.868569999999991 201.63650280000002,16.88592 195.0049028,17.945939999999993 188.3981028,19.0488 181.8194028,20.194649999999996 175.2723028,21.383499999999998 168.76060280000002,22.615179999999995 162.28830280000003,23.889359999999996 155.8596028,25.205519999999993 149.4788028,26.56299 143.1507028,27.961479999999995 136.8823028,29.401399999999995 130.68260279999998,30.88252 124.5620028,32.40379 118.5319028,33.96332000000001 112.6044028,35.55848 106.7914028,37.18596 101.1042228,38.84188 95.5535528,40.52207 90.1537928,42.22154 84.9250228,43.93267 79.8892428,45.64563 75.0665528,47.3497 70.4722228,49.03525 66.11320280000001,50.69652 61.9869128,52.33045 58.084392799999996,53.93578 54.3931228,55.512480000000004 50.8989228,57.06128 47.587912800000005,58.58338 44.4521528,60.07851 41.490172799999996,61.543189999999996 38.702362799999996,62.972319999999996 36.0879028,64.36077 33.6433528,65.70436 31.3624228,67.00032999999999 29.2364828,68.24746 27.2553128,69.44579 25.408022799999998,70.59649999999999 23.6857128,71.70375999999999 22.0809228,72.77417 20.585302799999997,73.8136 19.190382800000002,74.82704 17.888072799999996,75.81869999999999 16.6708228,76.7921 15.5317928,77.75021 14.464812799999999,78.69551 13.464288799999999,79.62993 12.5248808,80.55318 11.6418298,81.46379999999999 10.8110968,82.36046 10.029165800000001,83.24198 9.2929308,84.10742 8.601819800000001,84.95940999999999 7.9589348,85.8064 7.3667298,86.6562 6.8266208,87.5146 6.3379848,88.38018 5.8992758,89.24893 5.5089498,90.117784 5.16557,90.98443 4.8678718,91.847126 4.6148022,92.704589 4.4055485999999995,93.555892 4.239559262,94.400384 4.1165631,95.237633 4.0365905,96.067381 4.0,96.88951399999999 4.0075132,97.70403 4.0602631,98.511032 4.15985961,99.3107113 4.30840743,100.1033703 4.5067152,100.89001999999999 4.7540543,101.67224399999999 5.0500469,102.451448 5.3947118,103.228848 5.7884158,104.005472 6.2318268,104.782153 6.7258598,105.559499 7.2716078,106.33784 7.8702358,107.11714599999999 8.5228298,107.896907 9.230151800000002,108.675958 9.9922848,109.452246 10.8081028,110.22252999999999 11.6747128,110.98221 12.590771799999999,111.73002 13.5584698,112.47027 14.581412799999999,113.20963 15.6638328,113.95157 16.8098928,114.69551 18.024132799999997,115.44051999999999 19.311532800000002,116.18533 20.6777128,116.92874 22.129862799999998,117.67164 23.6763128,118.41581 25.3263428,119.16363 27.0901828,119.91819 28.9788628,120.68357999999999 31.0037228,121.46517 33.1755428,122.26989 35.505752799999996,123.10251 38.007572800000005,123.96324 40.6933728,124.85116 43.5733928,125.76437 46.6548628,126.69991 49.941642800000004,127.65406 53.435172800000004,128.62295 57.1375428,129.60363999999998 61.0572228,130.59546 65.21011279999999,131.59847 69.6120828,132.61222 74.2755928,133.63563 79.20663280000001,134.66688 84.4007128,135.70307 89.8401828,136.7386 95.4987028,137.76467 101.3468028,138.77298 107.35780279999999,139.75699 113.51390280000001,140.71275 119.80370280000001,141.63822 126.2155028,142.53193 132.73590280000002,143.39296 139.3512028,144.22092 146.0471028,145.01602 152.80970280000003,145.77911 159.6258028,146.51159 166.4838028,147.21408 173.37390280000002,147.88535 180.2879028,148.52427 187.21930280000004,149.13006000000001 194.1634028,149.70219 201.11760280000001,150.24036 208.0812028,150.7445 215.0555028,151.21478 222.0420028,151.65181 229.0422028,152.05621 236.0568028,152.42854 243.08610280000002,152.76936 250.1298028,153.07916 257.1872028,153.35845 264.25690280000003,153.60763 271.3374028,153.82682 278.4264028,154.01607 285.5215028,154.17547 292.6197028,154.30515 299.71790280000005,154.40528 306.8122028,154.47606 313.8987028,154.51754 320.97430280000003,154.52904 328.0371028,154.50979999999998 335.0872028,154.45909 342.1259028,154.37615 349.15610280000004,154.26017000000002 356.1823028,154.11025999999998 363.2101028,153.92583 370.2453028,153.70748 377.2925028,153.45604 384.3548028,153.17233 391.4342028,152.85717 398.53110280000004,152.51144 405.64460280000003,152.13612 412.7724028,151.73216 419.9119028,151.30015 427.0609028,150.84061 434.2181028,150.35407 441.38280280000004,149.841 448.55470280000003,149.30186 455.73460280000006,148.73704 462.9236028,148.14697 470.1231028,147.53223 477.3344028,146.89343 484.5584028,146.23122 491.7956028,145.54627 499.0466028,144.83927 506.3114028,144.11094 513.5898028,143.36205 520.8817028,142.59335 528.1867028,141.80561 535.5046028,140.99962 542.8349028,140.17618 550.1773028,139.33613 557.5314028,138.48029 564.8967028,137.60942 572.2728027999999,136.72413 579.6595028,135.82505 587.0567027999999,134.91278 594.4644028,133.98792 601.8828027999999,133.05106999999998 609.3121027999999,132.10282 616.7528027999999,131.14391999999998 624.2055028,130.17520000000002 631.6708027999999,129.19745 639.1495027999999,128.21149 646.6427028,127.21812 654.1512028,126.21811 661.6762027999999,125.21217 669.2173028,124.20087 676.7721028,123.18504 684.3357028,122.16584 691.9008028,121.14475 699.4576028,120.1236 706.9944027999999,119.10457 714.4991028,118.09103999999999 721.9639028,117.08694 729.3862028,116.09542 736.7684028,115.11889 744.1177028,114.15907 751.4453027999999,113.21709 758.7665028,112.29332 766.0967028,111.38553999999999 773.4462027999999,110.49101999999999 780.8186027999999,109.607854 788.2112028,108.734895 795.6143028,107.87174999999999 803.0115028,107.018744 810.3801027999999,106.17749599999999 817.6979028,105.353669 824.9506028,104.553383 832.1320028,103.781499 839.2433027999999,103.04178399999999 846.2920028,102.337139 853.2910028,101.66984 860.2577028,101.041038 867.2079027999999,100.4489985 874.1508028,99.8919915 881.0885027999999,99.368984 888.0161028,98.8794563 894.9225028,98.42323 901.7898028,98.000302 908.5955028,97.611332 915.3136027999999,97.262765 921.9194028,96.96320899999999 928.3909028,96.719704 934.7099028,96.537573 940.8615028,96.420418 946.8353027999999,96.370233 952.6243028,96.387595 958.2251028,96.47149399999999 963.6375027999999,96.616955 968.8643028,96.817553 973.9102028,97.067306 978.7813027999999,97.360732 983.4847028,97.69287299999999 988.0280028,98.059281 992.4189028,98.45599 996.6652027999999,98.879479 1000.7745028,99.32663339999999 1004.2323028,99.73137" stroke="black" stroke-width="2.0" /></svg>