<?xml version="1.0" encoding="utf-8" ?>
<svg baseProfile="full" height="162.00874" version="1.1" width="1011.994482352" xmlns="http://www.w3.org/2000/svg" xmlns:ev="http://www.w3.org/2001/xml-events" xmlns:xlink="http://www.w3.org/1999/xlink"><defs /><polygon fill="none" points="1003.994482352,78.68437 1000.660182352,78.17555229999999 996.6251823519999,77.55980199999999 992.3665823519999,76.90994099999999 987.862182352,76.22256499999999 983.0883823519999,75.494079 978.021382352,74.720862 972.639482352,73.899585 966.926182352,73.027738 960.875682352,72.10442499999999 954.499482352,71.13143099999999 947.834082352,70.11430299999999 940.938682352,69.062072 933.883182352,67.98541 926.736782352,66.89488 919.5575823519999,65.79933 912.385382352,64.70485 905.2386823520001,63.61425 898.114982352,62.52712999999999 891.000582352,61.441419999999994 883.883082352,60.35527 876.753782352,59.267309999999995 869.606882352,58.176689999999994 862.439882352,57.08304 855.253582352,55.98649999999999 848.052482352,54.88772999999999 840.848382352,53.78854 833.647782352,52.689879999999995 826.447182352,51.59115 819.2437823519999,50.49191999999999 812.037782352,49.39214 804.8349823519999,48.292669999999994 797.634982352,47.19346999999999 790.436482352,46.094379999999994 783.238482352,44.995439999999995 776.0409823519999,43.896789999999996 768.8450823520001,42.79873 761.652382352,41.70166999999999 754.465582352,40.60615 747.288082352,39.513009999999994 740.123282352,38.42372999999999 732.973582352,37.33989999999999 725.840382352,36.26293 718.724182352,35.19406999999999 711.6246823519999,34.134409999999995 704.540682352,33.08492 697.470082352,32.04634999999999 690.410782352,31.019039999999997 683.360982352,30.003269999999993 676.319182352,28.999399999999994 669.284382352,28.007819999999995 662.256082352,27.02901 655.233882352,26.063459999999992 648.218082352,25.111739999999998 641.208782352,24.174389999999995 634.206182352,23.2519 627.210382352,22.34474999999999 620.2210823519999,21.45338999999999 613.2378823519999,20.578219999999995 606.260182352,19.719649999999994 599.287182352,18.87804 592.318282352,18.053659999999994 585.352882352,17.246779999999994 578.3908823520001,16.45767 571.432682352,15.686679999999996 564.478682352,14.934159999999991 557.529782352,14.200499999999991 550.5873823520001,13.48612 543.652782352,12.791660000000007 536.7271823519999,12.117909999999995 529.811482352,11.465620000000001 522.906082352,10.83551 516.0109823519999,10.228229999999996 509.12598235199994,9.64439999999999 502.250382352,9.084609999999998 495.383482352,8.549459999999996 488.524782352,8.03958999999999 481.674482352,7.555699999999987 474.83328235199997,7.098529999999997 468.00298235199995,6.668819999999997 461.185482352,6.267340000000004 454.38358235199996,5.894819999999996 447.600582352,5.552089999999993 440.83928235199994,5.24042 434.100682352,4.9610799999999955 427.384382352,4.715239999999994 420.688082352,4.504000000000005 414.00818235199995,4.328469999999996 407.339582352,4.189749999999989 400.67548235199996,4.0889899999999955 394.008382352,4.026150000000001 387.33178235199995,4.0 380.640782352,4.009409999999988 373.931682352,4.053299999999993 367.202782352,4.130649999999989 360.45368235199993,4.240399999999994 353.68598235199994,4.38145999999999 346.902782352,4.552819999999983 340.10778235199996,4.754039999999989 333.304282352,4.984769999999983 326.495182352,5.244629999999987 319.682882352,5.5331899999999905 312.869182352,5.8500199999999865 306.055482352,6.194689999999994 299.242582352,6.566799999999986 292.431282352,6.966279999999998 285.621982352,7.393259999999984 278.81588235199996,7.847849999999994 272.01398235199997,8.330129999999997 265.21758235199997,8.840129999999988 258.428182352,9.377870000000001 251.64738235200002,9.94332 244.877182352,10.536639999999991 238.119282352,11.158269999999987 231.37498235200002,11.808719999999994 224.64548235200002,12.488460000000003 217.931682352,13.19798999999999 211.233982352,13.937819999999988 204.552882352,14.708469999999991 197.888082352,15.510479999999994 191.240182352,16.34443999999999 184.60978235200002,17.210809999999995 177.998582352,18.109939999999995 171.408882352,19.04206999999999 164.843382352,20.00727 158.30578235200002,21.00544999999999 151.799982352,22.03634999999999 145.330882352,23.100289999999994 138.90488235200002,24.198369999999997 132.52968235199998,25.331339999999997 126.214082352,26.499439999999993 119.96758235200001,27.702419999999996 113.800282352,28.939499999999995 107.72218235200002,30.20941 101.743362352,31.51043 95.875292352,32.84012 90.137752352,34.19366 84.55799235200001,35.56340999999999 79.166002352,36.93971 73.98979235200001,38.312819999999995 69.051252352,39.67664 64.362742352,41.02654 59.927522352000004,42.3587 55.741582351999995,43.67023 51.795812352,44.959289999999996 48.082752352,46.22590999999999 44.601772352,47.468689999999995 41.353012352,48.683989999999994 38.333092351999994,49.867779999999996 35.533912352,51.016819999999996 32.943242352,52.12904999999999 30.546122352,53.203709999999994 28.326322352,54.24109999999999 26.268902351999998,55.24379999999999 24.361412352,56.21647999999999 22.591772351999996,57.16292 20.948312352,58.086059999999996 19.420032352,58.98826 17.996742352000002,59.871449999999996 16.669062351999997,60.73725999999999 15.428862352,61.58718 14.270582352,62.42326999999999 13.189099352000001,63.24779999999999 12.179246352000002,64.06289999999998 11.236075352,64.87056999999999 10.356410352000001,65.67563 9.540225352,66.48634999999999 8.788142352000001,67.30839999999999 8.100382352,68.14134999999999 7.475774352,68.97861999999999 6.911911352,69.81517699999999 6.405839351999999,70.64773699999999 5.954511352,71.47431499999999 5.555042352,72.293841 5.204848352,73.105892 4.901721252,73.91050299999999 4.643854052,74.70804 4.429857452,75.49911499999999 4.258767352,76.284532 4.130057052,77.06526199999999 4.043658452,77.84243 4.0,78.61732339999999 4.0,79.3914166 4.043658452,80.16631 4.130057052,80.943478 4.258767352,81.72420799999999 4.429857452,82.509625 4.643854052,83.30069999999999 4.901721252,84.098237 5.204848352,84.90284799999999 5.555042352,85.71489899999999 5.954511352,86.534425 6.405839351999999,87.361003 6.911911352,88.193563 7.475774352,89.03012 8.100382352,89.86739 8.788142352000001,90.70034 9.540225352,91.52239 10.356410352000001,92.33310999999999 11.236075352,93.13817 12.179246352000002,93.94583999999999 13.189099352000001,94.76093999999999 14.270582352,95.58547 15.428862352,96.42156 16.669062351999997,97.27148 17.996742352000002,98.13729 19.420032352,99.02047999999999 20.948312352,99.92267999999999 22.591772351999996,100.84581999999999 24.361412352,101.79226 26.268902351999998,102.76494 28.326322352,103.76764 30.546122352,104.80502999999999 32.943242352,105.87969 35.533912352,106.99192 38.333092351999994,108.14095999999999 41.353012352,109.32475 44.601772352,110.54005 48.082752352,111.78282999999999 51.795812352,113.04945 55.741582351999995,114.33850999999999 59.927522352000004,115.65003999999999 64.362742352,116.98219999999999 69.051252352,118.3321 73.98979235200001,119.69592 79.166002352,121.06903 84.55799235200001,122.44533 90.137752352,123.81508 95.875292352,125.16861999999999 101.743362352,126.49830999999999 107.72218235200002,127.79933 113.800282352,129.06923999999998 119.96758235200001,130.30632 126.214082352,131.5093 132.52968235199998,132.67739999999998 138.90488235200002,133.81036999999998 145.330882352,134.90845 151.799982352,135.97239 158.30578235200002,137.00329 164.843382352,138.00146999999998 171.408882352,138.96667 177.998582352,139.8988 184.60978235200002,140.79793 191.240182352,141.6643 197.888082352,142.49826 204.552882352,143.30027 211.233982352,144.07092 217.931682352,144.81074999999998 224.64548235200002,145.52027999999999 231.37498235200002,146.20002 238.119282352,146.85047 244.877182352,147.4721 251.64738235200002,148.06542 258.428182352,148.63087 265.21758235199997,149.16861 272.01398235199997,149.67861 278.81588235199996,150.16089 285.621982352,150.61548 292.431282352,151.04246 299.242582352,151.44194 306.055482352,151.81405 312.869182352,152.15872000000002 319.682882352,152.47555 326.495182352,152.76411000000002 333.304282352,153.02397000000002 340.10778235199996,153.2547 346.902782352,153.45592 353.68598235199994,153.62727999999998 360.45368235199993,153.76834 367.202782352,153.87809 373.931682352,153.95544 380.640782352,153.99933 387.33178235199995,154.00874 394.008382352,153.98259 400.67548235199996,153.91975 407.339582352,153.81898999999999 414.00818235199995,153.68027 420.688082352,153.50473999999997 427.384382352,153.2935 434.100682352,153.04766 440.83928235199994,152.76832 447.600582352,152.45665 454.38358235199996,152.11392 461.185482352,151.7414 468.00298235199995,151.33992 474.83328235199997,150.91021 481.674482352,150.45304 488.524782352,149.96915 495.383482352,149.45927999999998 502.250382352,148.92413 509.12598235199994,148.36434 516.0109823519999,147.78051 522.906082352,147.17323 529.811482352,146.54312 536.7271823519999,145.89083 543.652782352,145.21707999999998 550.5873823520001,144.52262 557.529782352,143.80824 564.478682352,143.07458 571.432682352,142.32206 578.3908823520001,141.55106999999998 585.352882352,140.76196 592.318282352,139.95508 599.287182352,139.1307 606.260182352,138.28909 613.2378823519999,137.43052 620.2210823519999,136.55535 627.210382352,135.66399 634.206182352,134.75683999999998 641.208782352,133.83435 648.218082352,132.897 655.233882352,131.94528 662.256082352,130.97973 669.284382352,130.00092 676.319182352,129.00934 683.360982352,128.00547 690.410782352,126.9897 697.470082352,125.96239 704.540682352,124.92381999999999 711.6246823519999,123.87432999999999 718.724182352,122.81467 725.840382352,121.74580999999999 732.973582352,120.66883999999999 740.123282352,119.58501 747.288082352,118.49573 754.465582352,117.40258999999999 761.652382352,116.30707 768.8450823520001,115.21000999999998 776.0409823519999,114.11195 783.238482352,113.01329999999999 790.436482352,111.91435999999999 797.634982352,110.81527 804.8349823519999,109.71607 812.037782352,108.61659999999999 819.2437823519999,107.51682 826.447182352,106.41758999999999 833.647782352,105.31886 840.848382352,104.22019999999999 848.052482352,103.12101 855.253582352,102.02224 862.439882352,100.92569999999999 869.606882352,99.83205 876.753782352,98.74143 883.883082352,97.65347 891.000582352,96.56732 898.114982352,95.48160999999999 905.2386823520001,94.39448999999999 912.385382352,93.30389 919.5575823519999,92.20940999999999 926.736782352,91.11385999999999 933.883182352,90.02332999999999 940.938682352,88.94666799999999 947.834082352,87.894437 954.499482352,86.877309 960.875682352,85.904315 966.926182352,84.98100199999999 972.639482352,84.10915499999999 978.021382352,83.28787799999999 983.0883823519999,82.51466099999999 987.862182352,81.786175 992.3665823519999,81.098799 996.6251823519999,80.448938 1000.660182352,79.8331877 1003.994482352,79.32436999999999" stroke="black" stroke-width="2.0" /></svg>