<?xml version="1.0" encoding="utf-8" ?>
<svg baseProfile="full" height="162.16521999999998" version="1.1" width="1012.06079094" xmlns="http://www.w3.org/2000/svg" xmlns:ev="http://www.w3.org/2001/xml-events" xmlns:xlink="http://www.w3.org/1999/xlink"><defs /><polygon fill="none" points="1004.06079094,89.59801999999999 1000.6568909399999,89.1953844 996.55669094,88.7007795 992.25319094,88.17036599999999 987.72909094,87.60028899999999 982.96689094,86.98634799999999 977.9489909399999,86.32407599999999 972.65999094,85.608926 967.08869094,84.836581 961.23089094,84.00346699999999 955.09419094,83.10747799999999 948.7015909399998,82.14902899999998 942.0908909399999,81.13240699999999 935.30829094,80.06450699999999 928.40219094,78.95352999999999 921.4169909399999,77.80789999999999 914.3873909399999,76.63517999999999 907.33519094,75.44115 900.26729094,74.22928999999999 893.1787909399999,73.00036999999999 886.06389094,71.75433999999998 878.9180909399998,70.49140999999999 871.73869094,69.21208999999999 864.5250909399999,67.91723999999999 857.27839094,66.60811999999999 850.00179094,65.28638 842.70029094,63.95378999999999 835.37899094,62.611959999999996 828.0430909399998,61.26252999999999 820.6972909399999,59.90709999999999 813.34599094,58.547259999999994 805.99349094,57.18452999999999 798.64359094,55.82042999999999 791.2994909399999,54.456779999999995 783.9638909399999,53.09542999999999 776.63859094,51.73805999999999 769.32469094,50.38623999999999 762.02269094,49.04138 754.73229094,47.70474999999999 747.4526909399999,46.37738999999999 740.1829909399999,45.05982999999999 732.92229094,43.75247999999999 725.66989094,42.45578999999999 718.4252909399999,41.17024999999999 711.1881909399999,39.89634999999999 703.9582909399999,38.63460999999999 696.73559094,37.38557999999999 689.51999094,36.14980999999999 682.31179094,34.92785999999999 675.1110909399999,33.720299999999995 667.91819094,32.52770999999999 660.73319094,31.35065999999999 653.5567909399999,30.189719999999994 646.38909094,29.045509999999993 639.23059094,27.918679999999995 632.08139094,26.80984999999999 624.94109094,25.719619999999992 617.8094909399999,24.648509999999987 610.6859909399999,23.597039999999993 603.5694909399999,22.565669999999983 596.45919094,21.55482999999998 589.35419094,20.56488999999999 582.2543909399999,19.596310000000003 575.16029094,18.649599999999992 568.07289094,17.72534999999999 560.99359094,16.824189999999987 553.9246909399999,15.946819999999988 546.86869094,15.09402999999999 539.8275909399999,14.266859999999994 532.80239094,13.466229999999982 525.7926909399999,12.692909999999998 518.7967909399999,11.947519999999997 511.81209094,11.230589999999992 504.83459094000006,10.542549999999991 497.85939093999997,9.883719999999983 490.88219094000004,9.254029999999986 483.90149094000003,8.653539999999992 476.91909094,8.082579999999993 469.93959093999996,7.541679999999985 462.97059093999997,7.031519999999986 456.02279094,6.552829999999986 449.10919094,6.106489999999994 442.24259094,5.695299999999989 435.43029094,5.322739999999996 428.67399094,4.9916999999999945 421.96989093999997,4.704669999999979 415.30949094000005,4.463889999999992 408.68029094,4.271619999999999 402.06539094,4.130259999999993 395.44479094,4.040649999999999 388.79989094,4.0 382.11649094,4.0054799999999915 375.38489094,4.054519999999997 368.60039094,4.1445599999999985 361.76339093999997,4.272909999999996 354.88079094,4.436519999999987 347.96559094,4.632269999999991 341.03429094,4.859549999999999 334.10129094,5.1189299999999776 327.17729094,5.41091999999999 320.26969094000003,5.735979999999998 313.38219094000004,6.094609999999989 306.51519094,6.487429999999989 299.66549094,6.915249999999986 292.82799094,7.378589999999988 285.99749094,7.877510000000001 279.17019094,8.412119999999987 272.34329094,8.982479999999995 265.51529094,9.588629999999995 258.68549094,10.230519999999999 251.85469094,10.908019999999993 245.02429094000001,11.620969999999986 238.19679094000003,12.369359999999986 231.37499094,13.15312999999999 224.56179094,13.972129999999993 217.76069094,14.826099999999983 210.97549094000001,15.714659999999995 204.21009094000001,16.63731999999999 197.46889094,17.593559999999982 190.75619094,18.583609999999993 184.07569094000002,19.608079999999987 177.43039094000002,20.667569999999984 170.82249094000002,21.762739999999994 164.25369094,22.894239999999982 157.72489094,24.062789999999993 151.23659094,25.269149999999996 144.78889094,26.514279999999992 138.38489094000002,27.799079999999996 132.03119094000002,29.123619999999995 125.73769094000001,30.486999999999988 119.51679094,31.887289999999986 113.38329094000001,33.321569999999994 107.35269094000002,34.78599999999999 101.44129094,36.27595999999999 95.66546094,37.78674999999999 90.04656094,39.31324999999999 84.61042094,40.84794999999999 79.38287094,42.38166999999999 74.38573094,43.90485999999999 69.63385094,45.410399999999996 65.13199094,46.89416999999999 60.876130939999996,48.35364999999999 56.85649094,49.78755999999999 53.05994094,51.19555999999999 49.47221094,52.57799999999999 46.08446093999999,53.93487 42.89543093999999,55.26308999999999 39.90557094,56.55783999999999 37.11329094,57.814329999999984 34.513350939999995,59.02878999999999 32.09702094,60.198959999999985 29.85287094,61.32406999999999 27.76797094,62.40456999999999 25.829430939999998,63.44255999999999 24.02711094,64.44407999999999 22.35089094,65.41532999999998 20.790470940000002,66.36137 19.33596094,67.28632999999999 17.978140940000003,68.19357 16.70866094,69.08585 15.51996094,69.96539999999999 14.405410940000001,70.83398 13.36007594,71.69234999999999 12.37981894,72.54091 11.46078894,73.38002999999999 10.599402940000001,74.2101 9.792785940000002,75.03226999999998 9.04143994,75.85296 8.346938940000001,76.67943999999999 7.71026594,77.51701999999999 7.1309349399999995,78.36462999999999 6.60712894,79.21726 6.13672694,80.07110599999999 5.71756994,80.923425 5.34761594,81.77228699999999 5.02502524,82.61639 4.74822204,83.45490699999999 4.51592224,84.287376 4.32715574,85.11361899999999 4.18128254,85.93368199999999 4.07801076,86.74779299999999 4.01742087,87.55633399999999 4.0,88.35982999999999 4.0266915,89.15894399999999 4.09891391,89.95448959999999 4.21713204,90.74765899999998 4.38060024,91.53983899999999 4.58896284,92.33223 4.84229664,93.12584899999999 5.14107194,93.921528 5.48612394,94.71990299999999 5.87862394,95.52138099999999 6.32004594,96.326084 6.81212294,97.13376799999999 7.356767939999999,97.94370099999999 7.9559469400000005,98.754488 8.611471940000001,99.563842 9.324667940000001,100.36828 10.09587394,101.16273999999999 10.92438594,101.94230999999999 11.81047894,102.70893 12.75523694,103.46825 13.76099194,104.22671999999999 14.831590940000002,104.98629 15.971330940000001,105.74785999999999 17.18474094,106.51234 18.47640094,107.28062999999999 19.85228094,108.05384 21.32051094,108.83349999999999 22.89021094,109.62163 24.57149094,110.42081999999999 26.37538094,111.2345 28.31357094,112.06709999999998 30.39793094,112.92446999999999 32.64019094,113.81303999999999 35.05450094,114.73495999999999 37.65538094,115.69019 40.45572094,116.67765999999999 43.465470939999996,117.6951 46.690730939999995,118.73907999999999 50.133740939999996,119.80556999999999 53.79495094,120.89094999999999 57.67814094,121.99371 61.79567094,123.11402999999999 66.16218094,124.25131999999999 70.78915094,125.40428 75.68239093999999,126.57078999999999 80.83903094,127.74775 86.24495094000001,128.93042 91.87667094,130.11096999999998 97.70539094,131.28133 103.70159094,132.43481 109.84059094,133.56699999999998 116.10429094000001,134.67446999999999 122.47559094,135.75385 128.93729094000003,136.80245 135.47339094,137.81834999999998 142.06959093999998,138.80046 148.71469094,139.74854 155.40019094000002,140.66314 162.12189094000001,141.54532 168.87739094,142.39560999999998 175.66479094000002,143.21436 182.48219094,144.00198 189.32729094,144.75889999999998 196.19789094,145.48564 203.09159094,146.18274 210.00619094,146.85076999999998 216.93899094,147.48991 223.88739094000002,148.10009 230.84879094,148.68128 237.82009094,149.23345999999998 244.79799094,149.75665999999998 251.77929094,150.25096 258.76049093999995,150.71645999999998 265.73809094,151.15296999999998 272.71029094,151.56006 279.67639094000003,151.93743 286.63739094,152.28484 293.59579094,152.6021 300.55569094000003,152.88903 307.52259094,153.14544999999998 314.50289094,153.37159 321.50069094,153.56819000000002 328.51659094,153.73593999999997 335.54739094,153.87543 342.58559094000003,153.98726999999997 349.62019094000004,154.07216999999997 356.63599094,154.13092999999998 363.61569094000004,154.16300999999999 370.54569094,154.16521999999998 377.41959094,154.13439 384.23749094,154.06756000000001 391.00539094000004,153.96184 397.73429094,153.81419 404.44039094,153.62126999999998 411.14419094,153.38031 417.86679094,153.09269 424.62509094,152.76075 431.43149094,152.38675999999998 438.29379094,151.97316999999998 445.21449093999996,151.52277999999998 452.19019094000004,151.03897 459.21099094,150.52564 466.26259094,149.98498 473.33239094000004,149.41794 480.41049094,148.82539 487.49019094,148.20806 494.56799093999996,147.56647999999998 501.64369094,146.90089 508.72049094000005,146.21126999999998 515.8034909400001,145.49777999999998 522.89719094,144.76089 530.0051909399999,144.00113 537.1296909399999,143.21913999999998 544.27179094,142.41568 551.43139094,141.59167 558.60699094,140.74818 565.7963909399999,139.88616 572.99759094,139.00644 580.20889094,138.10979 587.42919094,137.19695 594.65779094,136.26864 601.89449094,135.32549999999998 609.13959094,134.36811999999998 616.39359094,133.39706999999999 623.65699094,132.41289 630.9304909399999,131.41616 638.21429094,130.40748 645.5088909399999,129.38744 652.81429094,128.35667999999998 660.13079094,127.31582999999999 667.4582909399999,126.26556 674.79669094,125.2066 682.14559094,124.13968999999999 689.5042909399999,123.06562 696.8719909399999,121.98522 704.2475909399999,120.89938 711.6296909399999,119.80905999999999 719.0168909399999,118.71543 726.4073909399999,117.61971999999999 733.7991909399999,116.52320999999999 741.1898909399999,115.42721999999999 748.5769909399999,114.33309999999999 755.95789094,113.24222999999999 763.3295909399999,112.1561 770.68929094,111.07630999999999 778.0340909399999,110.00444999999999 785.36139094,108.94207 792.66859094,107.89067 799.9533909399998,106.8517 807.21329094,105.82656999999999 814.44639094,104.81691 821.6515909399999,103.82445999999999 828.8287909399999,102.85077999999999 835.97879094,101.89725999999999 843.10329094,100.96516 850.20499094,100.05557999999999 857.2873909399999,99.16949399999999 864.35379094,98.307273 871.40539094,97.46898599999999 878.44029094,96.65502099999999 885.45389094,95.866052 892.4388909399999,95.102971 899.3855909399999,94.36682199999998 906.28209094,93.65878299999999 913.1142909399999,92.983032 919.86449094,92.34774099999998 926.51119094,91.76079399999999 933.03179094,91.22906099999999 939.40319094,90.758039 945.6044909399999,90.35160099999999 951.6175909399999,90.0118926 957.42869094,89.739212 963.02919094,89.53001126 968.41629094,89.37840929999999 973.59219094,89.27854489999999 978.56249094,89.2248456 983.33519094,89.212156 987.91949094,89.23579649999999 992.3254909399999,89.29157559999999 996.56349094,89.37577309999999 1000.6433909399999,89.4851068 1004.06079094,89.59801999999999" stroke="black" stroke-width="2.0" /></svg>