<?xml version="1.0" encoding="utf-8" ?>
<svg baseProfile="full" height="222.01500000000001" version="1.1" width="1011.995500767" xmlns="http://www.w3.org/2000/svg" xmlns:ev="http://www.w3.org/2001/xml-events" xmlns:xlink="http://www.w3.org/1999/xlink"><defs /><polygon fill="none" points="1003.995500767,109.00750000000001 1000.180300767,108.6527477 995.682900767,108.1944206 991.076100767,107.67968400000001 986.3538007669999,107.10423800000001 981.5093007669999,106.463339 976.535600767,105.75174500000001 971.424800767,104.96365 966.1687007669999,104.09261500000001 960.758100767,103.13148500000001 955.1835007669999,102.072298 949.434100767,100.906739 943.498600767,99.63010600000001 937.365500767,98.24017 931.0250007669999,96.73595 924.469900767,95.11829 917.696800767,93.39070000000001 910.7090007669999,91.56035 903.5181007669999,89.63902 896.1466007669999,87.64127 888.624400767,85.57637 880.9812007669999,83.45249000000001 873.243700767,81.27742 865.4328007669999,79.05779000000001 857.561700767,76.79828 849.633900767,74.50117 841.645900767,72.16802000000001 833.595500767,69.80199000000002 825.4848007669999,67.40782000000002 817.321000767,64.99196 809.116900767,62.56267000000001 800.890800767,60.130050000000004 792.6655007669999,57.704890000000006 784.4622007669999,55.29674000000001 776.2982007669999,52.91369000000001 768.186600767,50.562380000000005 760.135900767,48.24798000000001 752.150800767,45.97432000000001 744.232700767,43.744230000000016 736.381200767,41.56018 728.594400767,39.424170000000004 720.869900767,37.3378 713.204000767,35.30234 705.592700767,33.31874000000002 698.031000767,31.387800000000013 690.515700767,29.510710000000003 683.047100767,27.689650000000015 675.630000767,25.92761 668.2723007669999,24.228099999999998 660.985100767,22.594920000000002 653.7818007669999,21.03189000000002 646.676600767,19.54333000000001 639.677900767,18.134860000000003 632.7836007669999,16.809970000000007 625.982800767,15.570050000000009 619.2579007669999,14.415270000000007 612.585400767,13.345180000000013 605.936300767,12.35933 599.275700767,11.456970000000013 592.567200767,10.63139000000001 585.7797007669999,9.873710000000003 578.8879007669999,9.176690000000008 571.873500767,8.534200000000013 564.726200767,7.940700000000007 557.446600767,7.391100000000009 550.049300767,6.880800000000008 542.560300767,6.408799999999999 535.006000767,5.97760000000001 527.4082007669999,5.588800000000006 519.783300767,5.243200000000002 512.141100767,4.941200000000009 504.484700767,4.6825000000000045 496.810300767,4.466700000000003 489.111500767,4.292800000000014 481.383600767,4.1599000000000075 473.62450076700003,4.067300000000003 465.834700767,4.014300000000006 458.01710076700004,4.0 450.178000767,4.023700000000005 442.325200767,4.085200000000015 434.466200767,4.1847000000000065 426.606700767,4.322700000000012 418.750700767,4.499499999999998 410.900800767,4.715199999999996 403.05750076699996,4.970100000000002 395.220000767,5.264400000000009 387.387100767,5.598200000000006 379.557800767,5.971600000000009 371.731500767,6.384500000000003 363.90790076700006,6.837000000000003 356.087200767,7.329100000000011 348.26990076699997,7.860900000000001 340.45690076700004,8.432199999999995 332.649500767,9.042940000000016 324.84960076699997,9.693020000000004 317.059300767,10.382159999999999 309.281300767,11.110060000000004 301.518800767,11.8763 293.775300767,12.680670000000006 286.053900767,13.52340000000001 278.357800767,14.40473 270.68950076699997,15.324870000000004 263.051000767,16.28403 255.44410076700004,17.282410000000013 247.870300767,18.320220000000006 240.331200767,19.39769000000001 232.829400767,20.51489000000001 225.368700767,21.67165 217.953500767,22.86756000000001 210.589100767,24.101950000000016 203.28170076700002,25.373840000000015 196.03760076700001,26.682230000000004 188.864100767,28.026470000000018 181.76840076700003,29.405720000000017 174.757500767,30.818900000000014 167.838700767,32.26465 161.018400767,33.74137 154.30300076700001,35.24728 147.698500767,36.78060000000001 141.213000767,38.339780000000005 134.858000767,39.92232000000001 128.646800767,41.524550000000005 122.593200767,43.14191000000001 116.71060076699999,44.76922000000002 111.010600767,46.40101000000001 105.502400767,48.03179000000001 100.192630767,49.65626000000001 95.086700767,51.26818000000001 90.19179076699999,52.86016000000001 85.514720767,54.424690000000005 81.05987076699999,55.95495000000001 76.82816076699999,57.445460000000004 72.817110767,58.89432000000001 69.01966076699999,60.30293 65.424920767,61.67351000000001 62.020030767,63.008610000000004 58.791480767,64.31092000000001 55.725890767,65.58308000000001 52.810550767,66.82756 50.034020767,68.04634 47.387340767000005,69.24034 44.86355076700001,70.40977000000001 42.456810767,71.55448000000001 40.161820767,72.67417 37.97351076700001,73.76857000000001 35.886910767,74.83749 33.897050766999996,75.88092 31.998980767,76.89899 30.187770767,77.89199 28.458590767,78.86037 26.807780767,79.80604000000001 25.232950767000002,80.73284000000001 23.731250767,81.64431 22.299450767,82.54354000000001 20.934180767,83.4332 19.632070767,84.31559000000001 18.389830767,85.19269000000001 17.204350767,86.06623 16.072650767,86.9377 14.992540767,87.8084 13.962614766999998,88.67949000000002 12.981530767,89.55197000000001 12.047947767,90.42674000000001 11.160634767000001,91.30462 10.321756767,92.18860000000001 9.537548767,93.08413000000002 8.813671767,93.99598 8.152435767,94.92555000000002 7.550979766999999,95.86939000000001 7.006016767,96.82414 6.514457767,97.78703 6.073448767,98.75584 5.680389766999999,99.72877000000001 5.332946767,100.704389 5.0290467670000005,101.68158500000001 4.766876567,102.65951000000001 4.544875767,103.63754100000001 4.361732267,104.61525 4.216377167,105.59237900000001 4.107983567,106.568825 4.035968587,107.544622 4.0,108.51993610000001 4.0,109.4950639 4.035968587,110.47037800000001 4.107983567,111.44617500000001 4.216377167,112.422621 4.361732267,113.39975000000001 4.544875767,114.377459 4.766876567,115.35549 5.0290467670000005,116.333415 5.332946767,117.31061100000001 5.680389766999999,118.28623 6.073448767,119.25916000000001 6.514457767,120.22797000000001 7.006016767,121.19086000000001 7.550979766999999,122.14561 8.152435767,123.08945 8.813671767,124.01902000000001 9.537548767,124.93087 10.321756767,125.8264 11.160634767000001,126.71038000000001 12.047947767,127.58826 12.981530767,128.46303 13.962614766999998,129.33551 14.992540767,130.2066 16.072650767,131.0773 17.204350767,131.94877000000002 18.389830767,132.82231000000002 19.632070767,133.69941 20.934180767,134.58180000000002 22.299450767,135.47146 23.731250767,136.37069 25.232950767000002,137.28216 26.807780767,138.20896 28.458590767,139.15463 30.187770767,140.12301000000002 31.998980767,141.11601000000002 33.897050766999996,142.13408 35.886910767,143.17751 37.97351076700001,144.24643 40.161820767,145.34083 42.456810767,146.46052 44.86355076700001,147.60523 47.387340767000005,148.77466 50.034020767,149.96866 52.810550767,151.18744 55.725890767,152.43192 58.791480767,153.70408 62.020030767,155.00639 65.424920767,156.34149000000002 69.01966076699999,157.71207 72.817110767,159.12068 76.82816076699999,160.56954000000002 81.05987076699999,162.06005 85.514720767,163.59031000000002 90.19179076699999,165.15484 95.086700767,166.74682 100.192630767,168.35874 105.502400767,169.98321 111.010600767,171.61399 116.71060076699999,173.24578 122.593200767,174.87309 128.646800767,176.49045 134.858000767,178.09268 141.213000767,179.67522000000002 147.698500767,181.2344 154.30300076700001,182.76772 161.018400767,184.27363000000003 167.838700767,185.75035000000003 174.757500767,187.1961 181.76840076700003,188.60928 188.864100767,189.98853 196.03760076700001,191.33277 203.28170076700002,192.64116 210.589100767,193.91305 217.953500767,195.14744000000002 225.368700767,196.34335000000002 232.829400767,197.50011 240.331200767,198.61731 247.870300767,199.69478 255.44410076700004,200.73259000000002 263.051000767,201.73097 270.68950076699997,202.69013 278.357800767,203.61027 286.053900767,204.4916 293.775300767,205.33433000000002 301.518800767,206.13870000000003 309.281300767,206.90494 317.059300767,207.63284000000002 324.84960076699997,208.32198 332.649500767,208.97206 340.45690076700004,209.58280000000002 348.26990076699997,210.15410000000003 356.087200767,210.6859 363.90790076700006,211.178 371.731500767,211.6305 379.557800767,212.04340000000002 387.387100767,212.41680000000002 395.220000767,212.75060000000002 403.05750076699996,213.0449 410.900800767,213.2998 418.750700767,213.51550000000003 426.606700767,213.6923 434.466200767,213.83030000000002 442.325200767,213.9298 450.178000767,213.99130000000002 458.01710076700004,214.01500000000001 465.834700767,214.0007 473.62450076700003,213.9477 481.383600767,213.8551 489.111500767,213.7222 496.810300767,213.5483 504.484700767,213.3325 512.141100767,213.0738 519.783300767,212.7718 527.4082007669999,212.4262 535.006000767,212.0374 542.560300767,211.6062 550.049300767,211.13420000000002 557.446600767,210.6239 564.726200767,210.0743 571.873500767,209.4808 578.8879007669999,208.83831 585.7797007669999,208.14129000000003 592.567200767,207.38361 599.275700767,206.55803 605.936300767,205.65567000000001 612.585400767,204.66982000000002 619.2579007669999,203.59973000000002 625.982800767,202.44495 632.7836007669999,201.20503000000002 639.677900767,199.88014 646.676600767,198.47167000000002 653.7818007669999,196.98311 660.985100767,195.42008 668.2723007669999,193.7869 675.630000767,192.08739000000003 683.047100767,190.32535000000001 690.515700767,188.50429000000003 698.031000767,186.62720000000002 705.592700767,184.69626 713.204000767,182.71266000000003 720.869900767,180.67720000000003 728.594400767,178.59083 736.381200767,176.45482 744.232700767,174.27077 752.150800767,172.04068 760.135900767,169.76702 768.186600767,167.45262000000002 776.2982007669999,165.10131 784.4622007669999,162.71826000000001 792.6655007669999,160.31011 800.890800767,157.88495 809.116900767,155.45233000000002 817.321000767,153.02304 825.4848007669999,150.60718 833.595500767,148.21301 841.645900767,145.84698 849.633900767,143.51383 857.561700767,141.21672 865.4328007669999,138.95721 873.243700767,136.73758 880.9812007669999,134.56251 888.624400767,132.43863000000002 896.1466007669999,130.37373000000002 903.5181007669999,128.37598000000003 910.7090007669999,126.45465000000002 917.696800767,124.6243 924.469900767,122.89671000000001 931.0250007669999,121.27905000000001 937.365500767,119.77483000000001 943.498600767,118.384894 949.434100767,117.10826100000001 955.1835007669999,115.94270200000001 960.758100767,114.883515 966.1687007669999,113.922385 971.424800767,113.05135000000001 976.535600767,112.263255 981.5093007669999,111.55166100000001 986.3538007669999,110.910762 991.076100767,110.335316 995.682900767,109.82057940000001 1000.180300767,109.36225230000001 1003.995500767,109.00750000000001" stroke="black" stroke-width="2.0" /></svg>