<?xml version="1.0" encoding="utf-8" ?>
<svg baseProfile="full" height="175.83064000000002" version="1.1" width="1012.7047039" xmlns="http://www.w3.org/2000/svg" xmlns:ev="http://www.w3.org/2001/xml-events" xmlns:xlink="http://www.w3.org/1999/xlink"><defs /><polygon fill="none" points="1004.7047039,127.1632 1001.3938039,127.09353221 997.4327039000001,126.9826802 993.3078039,126.8353256 989.0073039,126.64694320000001 984.5193039,126.4124132 979.8318039000001,126.125986 974.9336039,125.781281 969.8151039,125.37133800000001 964.4692039,124.888768 958.8936039,124.326026 953.0923039,123.67589000000001 947.0774038999999,122.934056 940.8679039,122.101789 934.4881039,121.183383 927.9662039,120.185728 921.3311039,119.117911 914.6109039,117.990568 907.8294039,116.8151 901.0045039,115.60266 894.1491039,114.35901 887.2740039,113.08537000000001 880.3893039000001,111.78273 873.5040039,110.45203000000001 866.6255039000001,109.09406 859.7602039,107.70946 852.9127039,106.2987 846.0865039,104.86202 839.2835039,103.3994 832.5044039,101.91061 825.7484039000001,100.39511 819.0138039000001,98.85207 812.2974039000001,97.28036 805.5949039000001,95.67850000000001 798.9009039,94.04487 792.2093039,92.37897000000001 785.5144039,90.68084 778.8113039,88.95061000000001 772.0956039,87.18854 765.3639039,85.39504 758.6132039,83.57066 751.8415039,81.71618000000001 745.0474039000001,79.8326 738.2303039000001,77.92115000000001 731.3905039000001,75.98336 724.5293039000001,74.02107000000001 717.6489039,72.03645 710.7523039,70.03201000000001 703.8438039,68.01064 696.9285039,65.97575 690.0112039,63.93137 683.0964039,61.88154 676.1878039000001,59.83014 669.2886039,57.78088000000001 662.4017039,55.73728 655.5290039,53.702650000000006 648.6721039,51.680080000000004 641.8319039,49.67246 635.0088039000001,47.68245 628.2026039000001,45.712509999999995 621.4128039,43.76491 614.6383039,41.84173000000001 607.8774039,39.944890000000015 601.1281039,38.07614000000001 594.3885039,36.23711 587.6570039,34.42947000000001 580.9329039,32.655060000000006 574.2161039,30.915890000000005 567.5070039,29.21405 560.8070039,27.551770000000005 554.1177039,25.931300000000007 547.4413039000001,24.355100000000007 540.7809039,22.825400000000002 534.1396039000001,21.344499999999996 527.5213039,19.914800000000014 520.9302039,18.5385 514.3708039,17.217500000000015 507.8478039,15.953800000000001 501.3661039,14.749200000000002 494.93090390000003,13.605199999999996 488.54580390000007,12.523500000000013 482.2125039,11.504800000000003 475.9310039,10.54979999999999 469.6994039,9.65870000000001 463.5146039,8.831400000000002 457.37220390000004,8.068100000000001 451.26690390000005,7.368600000000001 445.1922039,6.732900000000001 439.14060390000003,6.161200000000008 433.1037039,5.653900000000007 427.0720039,5.211500000000001 421.0351039,4.835100000000011 414.9808039,4.525899999999993 408.89550390000005,4.286100000000005 402.7638039,4.118099999999998 396.5677039,4.023300000000006 390.28950390000006,4.0 383.91340390000005,4.046900000000008 377.42540390000005,4.1631 370.8142039,4.347700000000003 364.0721039,4.599400000000003 357.19660390000007,4.916700000000006 350.1914039,5.297200000000004 343.06900390000004,5.737100000000012 335.85180390000005,6.231099999999998 328.57380390000003,6.771800000000013 321.28000390000005,7.3500000000000085 314.0247039,7.954400000000007 306.86680390000004,8.572999999999993 299.86450390000005,9.194599999999994 293.0625039,9.822299999999998 286.47610390000006,10.467399999999998 280.0968039,11.140900000000002 273.9006039,11.853700000000003 267.8545039,12.616700000000009 261.91930390000005,13.442000000000007 256.0502039,14.343400000000003 250.1958039,15.336600000000004 244.3003039,16.427499999999995 238.3137039,17.617199999999997 232.1931039,18.90660000000001 225.9032039,20.295299999999997 219.42060389999997,21.779200000000003 212.7409039,23.347600000000014 205.88920389999998,24.980000000000004 198.92990389999997,26.646 191.9544039,28.32713000000001 185.0432039,30.014759999999995 178.25300389999998,31.704859999999996 171.6158039,33.39777000000001 165.1423039,35.09747 158.8273039,36.81087000000001 152.65450389999998,38.547129999999996 146.6008039,40.31544000000001 140.6447039,42.12254 134.7675039,43.97465 128.9536039,45.87786000000001 123.18920390000001,47.83829 117.46220389999999,49.862150000000014 111.7614039,51.955929999999995 106.07690389999999,54.12642000000001 100.3990739,56.37975 94.7183639,58.71266 89.0275939,61.11605 83.3230339,63.579060000000005 77.6047039,66.0889 71.8861639,68.63453000000001 66.2463839,71.18624 60.83593389999999,73.67877000000001 55.810373899999995,76.03802 51.263543899999995,78.21547000000001 47.2136539,80.21414 43.6072939,82.06856 40.3713639,83.8151 37.4399539,85.48452 34.7602239,87.10136 32.2912539,88.68520000000001 30.0011439,90.25242 27.862313899999997,91.8184 25.8437539,93.39843 23.9294639,94.99465000000001 22.117273899999997,96.59593000000001 20.4103939,98.18379 18.8113339,99.7389 17.3188039,101.2459 15.9304439,102.69391 14.6516059,104.07327000000001 13.481108899999999,105.3824 12.4121459,106.62508 11.436299900000002,107.80695 10.5452789,108.93399000000001 9.7315669,110.01181 8.9886079,111.04549 8.310780900000001,112.03949 7.6933169,112.99770000000001 7.1321889,113.92354 6.6240109,114.81996000000001 6.1659489,115.68958 5.7556489,116.53468000000001 5.3911717,117.357301 5.0709471,118.159234 4.7937343299999995,118.94209500000001 4.558593,119.70733700000001 4.364862,120.45627900000001 4.2121455999999995,121.19012000000001 4.1003062,121.90996700000001 4.0294634,122.61684100000001 4.0,123.311699 4.0125753,123.995445 4.0681465,124.668937 4.1679999,125.333008 4.3137939,125.98847 4.5076186,126.6361326 4.75207063,127.2768155 5.049238,127.9113988 5.3991219,128.540815 5.8017769,129.165905 6.2576699,129.78741300000002 6.7676799,130.40598599999998 7.3331059000000005,131.022179 7.9556839,131.63644399999998 8.6376179,132.249114 9.3816059,132.86037100000001 10.1908819,133.470199 11.0692439,134.078304 12.0210499,134.683997 13.051172900000001,135.286003 14.1648089,135.882168 15.3670239,136.468996 16.6617939,137.04092500000002 18.0506339,137.58962 19.5404539,138.10894000000002 21.1458339,138.59658000000002 22.8840939,139.05167 24.7755339,139.47598 26.8440539,139.87611 29.1183439,140.26698 31.633763899999998,140.6739 34.427053900000004,141.1089 37.5309439,141.57202 40.969043899999996,142.06062 44.746933899999995,142.56843 48.8464039,143.08545 53.2312539,143.5995 57.8705739,144.09954 62.7617839,144.57825 67.9111639,145.02926 73.3244339,145.44592 79.0093139,145.82153 84.9787439,146.15127 91.2434839,146.44132 97.80206390000001,146.70503 104.6339639,146.96057000000002 111.6936039,147.22644 118.9192039,147.50492 126.2461039,147.79340000000002 133.61260389999998,148.08915000000002 140.9776039,148.39007 148.3123039,148.69446 155.60220389999998,149.00117 162.8498039,149.31029 170.0635039,149.62363 177.2515039,149.94324 184.4216039,150.27116 191.5815039,150.60942 198.73860390000002,150.96008 205.9003039,151.32522 213.0737039,151.70578 220.2647039,152.09963 227.4762039,152.50401 234.7086039,152.91597000000002 241.9590039,153.33235 249.22160390000002,153.74975 256.4874039,154.16455 263.74500390000003,154.57326 270.9838039,154.97296 278.19690390000005,155.36105 285.3804039,155.73521 292.5338039,156.09333 299.6592039,156.4335 306.7618039000001,156.75400000000002 313.8489039,157.05451 320.9280039,157.33701 328.0055039,157.60357 335.0875039,157.8562 342.1789039,158.09682 349.2842039,158.32733000000002 356.40710390000004,158.54957 363.5506039,158.7654 370.71700390000007,158.97666 377.90810390000007,159.18519 385.12440390000006,159.39287000000002 392.36610390000004,159.60156 399.6323039,159.81315 406.9212039,160.02955 414.2303039,160.25188 421.55680390000003,160.47999 428.89800390000005,160.71359 436.25110390000003,160.95239 443.61340390000004,161.19606 450.9822039,161.44431 458.3549039,161.6968 465.7278039,161.95318 473.1005039,162.21318 480.46980390000004,162.47646 487.83330390000003,162.74268 495.1886039,163.0115 502.53360390000006,163.28259 509.8663039,163.55558000000002 517.1850039,163.82948 524.4881039,164.10298 531.7748039,164.3748 539.0448039,164.6437 546.2979039,164.90847 553.5347039000001,165.16792 560.7561039,165.42091 567.9633039,165.66633000000002 575.1582039,165.90306 582.3427039000001,166.13002 589.5195039,166.34615 596.6913039000001,166.55037 603.8615039000001,166.74161 611.0337039,166.91888 618.2116039,167.08169 625.3976039,167.22969 632.5932038999999,167.3625 639.7987039000001,167.47968 647.0132039,167.58080999999999 654.2347039000001,167.66544 661.4599039,167.73313000000002 668.6843039,167.78346 675.9023039,167.81607 683.1072039000001,167.83064000000002 690.2911039,167.82694 697.4454039,167.80481 704.5608039,167.76421 711.6272039,167.70447000000001 718.6350039,167.62195 725.5770039,167.51245 732.4480039,167.37214 739.2453039000001,167.19743 745.9679039,166.98504 752.6164039,166.73186 759.1928039000001,166.43497 765.7004039000001,166.09154 772.1433039,165.69879 778.5265039000001,165.25393 784.8557039000001,164.7541 791.1375039000001,164.1963 797.3787039,163.57734 803.5872039000001,162.89374 809.7714039,162.14246 815.9406039,161.32574 822.1042039,160.44782 828.2712039,159.5127 834.4499039,158.52416 840.6489039,157.48587 846.8762039,156.4014 853.1402039000001,155.27433000000002 859.4489039,154.10827 865.8106039,152.90691 872.2338039000001,151.67413 878.7271039,150.41404 885.2994039,149.13104 891.9600039,147.82991 898.7184039,146.51594 905.5846038999999,145.19496 912.5676039000001,143.87123 919.6640039,142.54453 926.8486039000001,141.21725 934.0698039000001,139.89609000000002 941.2506039000001,138.59195 948.2977039,137.31834 955.1159039,136.08909500000001 961.6254039,134.916246 967.7774039000001,133.80811 973.5568039,132.7674 978.9711039,131.792676 984.0412039,130.88011699999998 988.7944039,130.024812 993.2593039,129.22155600000002 997.4637038999999,128.465302 1001.4336039000001,127.7513752 1004.7047039,127.1632" stroke="black" stroke-width="2.0" /></svg>