<?xml version="1.0" encoding="utf-8" ?>
<svg baseProfile="full" height="111.99998000000001" version="1.1" width="1011.993598281" xmlns="http://www.w3.org/2000/svg" xmlns:ev="http://www.w3.org/2001/xml-events" xmlns:xlink="http://www.w3.org/1999/xlink"><defs /><polygon fill="none" points="1003.993598281,52.999990000000004 1000.837498281,52.272850000000005 997.0268982810001,51.40337 993.016998281,50.49833 988.789798281,49.555278 984.326898281,48.571906000000006 979.6103982809999,47.546301 974.6242982809999,46.477307 969.357298281,45.365058000000005 963.806198281,44.211671 957.980898281,43.02205000000001 951.9087982809999,41.804590000000005 945.637098281,40.57123 939.224598281,39.33549000000001 932.732098281,38.110330000000005 926.214098281,36.90661 919.712998281,35.73217 913.2560982809999,34.59149000000001 906.855098281,33.48603 900.5081982810001,32.414750000000005 894.204398281,31.37506 887.931998281,30.36436 881.680798281,29.380430000000004 875.441998281,28.421450000000004 869.207698281,27.485870000000006 862.971198281,26.572420000000005 856.726598281,25.680050000000005 850.468798281,24.807910000000007 844.1935982809999,23.955340000000003 837.8976982810001,23.121820000000003 831.578498281,22.307030000000005 825.234498281,21.51075 818.864798281,20.732910000000004 812.469798281,19.973550000000003 806.050698281,19.23284000000001 799.609898281,18.511030000000005 793.1504982810001,17.808370000000004 786.675498281,17.125040000000006 780.187898281,16.461140000000007 773.690098281,15.816730000000007 767.184698281,15.191810000000004 760.673798281,14.586310000000005 754.159298281,14.000130000000006 747.6428982809999,13.433129999999998 741.125898281,12.885110000000005 734.609498281,12.355830000000005 728.0943982809999,11.845040000000004 721.581298281,11.35246 715.0703982809999,10.87776000000001 708.5617982809999,10.42063000000001 702.055198281,9.980699999999999 695.550198281,9.557690000000008 689.046098281,9.151450000000004 682.542498281,8.761840000000007 676.038898281,8.38871000000001 669.534698281,8.031950000000002 663.029498281,7.691440000000007 656.522898281,7.367060000000002 650.014498281,7.058710000000005 643.503898281,6.766289999999998 636.990798281,6.489710000000002 630.474898281,6.2288600000000045 623.9558982809999,5.983670000000004 617.433598281,5.754040000000003 610.907598281,5.539920000000002 604.377898281,5.341200000000001 597.844198281,5.1577899999999985 591.3063982809999,4.989380000000004 584.764398281,4.8355999999999995 578.217998281,4.696090000000005 571.667298281,4.570500000000003 565.112298281,4.4584700000000055 558.552998281,4.359630000000003 551.989498281,4.273610000000005 545.4217982810001,4.200070000000004 538.8502982809999,4.138630000000006 532.274998281,4.088920000000002 525.6962982809999,4.050580000000004 519.114398281,4.023230000000005 512.5295982810001,4.006500000000003 505.94239828099995,4.0 499.35309828100003,4.003390000000003 492.762198281,4.016480000000001 486.17009828100004,4.039240000000007 479.577098281,4.071590000000008 472.983398281,4.113500000000002 466.38929828100004,4.164890000000007 459.794998281,4.225720000000003 453.20059828100005,4.295920000000002 446.60619828100005,4.3754399999999976 440.01179828100004,4.4642200000000045 433.417498281,4.562200000000004 426.82309828100006,4.669320000000006 420.228598281,4.785530000000001 413.633798281,4.910780000000003 407.038398281,5.045010000000005 400.442298281,5.188170000000007 393.845198281,5.340180000000004 387.246798281,5.500910000000005 380.64679828100003,5.670240000000007 374.045298281,5.848050000000008 367.441998281,6.034210000000002 360.837098281,6.228600000000007 354.230498281,6.4310800000000015 347.622398281,6.641520000000007 341.01289828100005,6.859790000000004 334.402298281,7.085750000000004 327.79079828100004,7.319270000000003 321.178798281,7.560200000000002 314.566798281,7.80838 307.955098281,8.063670000000002 301.344298281,8.325920000000004 294.734998281,8.595110000000005 288.127698281,8.871410000000004 281.522898281,9.155010000000004 274.920798281,9.446100000000008 268.321898281,9.744869999999999 261.72609828099996,10.051510000000007 255.133598281,10.36621000000001 248.544498281,10.689180000000007 241.958598281,11.020620000000001 235.375698281,11.360730000000004 228.795498281,11.70973 222.217798281,12.067840000000004 215.642098281,12.435280000000006 209.06779828100002,12.812280000000001 202.494398281,13.199090000000005 195.92139828100002,13.596190000000007 189.349198281,14.004550000000002 182.779498281,14.425110000000004 176.215798281,14.858680000000007 169.662498281,15.305960000000006 163.125498281,15.767510000000001 156.61199828099998,16.243720000000003 150.13019828100002,16.73492000000001 143.687998281,17.242560000000005 137.289698281,17.76923 130.936098281,18.317670000000007 124.623998281,18.890820000000005 118.347198281,19.491890000000005 112.09659828100001,20.124440000000007 105.85979828100001,20.79247000000001 99.62210828100001,21.50027 93.37747828100001,22.248290000000004 87.147718281,23.031760000000006 80.984728281,23.841400000000004 74.962738281,24.665350000000004 69.150388281,25.507620000000003 63.583378281,26.381860000000003 58.269408281,27.299320000000005 53.198508280999995,28.268760000000004 48.36076828099999,29.290450000000007 43.776688281,30.345720000000004 39.481828281,31.410920000000004 35.506568281,32.463390000000004 31.865458281,33.48469 28.555008281,34.46229 25.557198280999998,35.40784000000001 22.869498281000002,36.36092000000001 20.499488280999998,37.32839 18.428688281,38.29901 16.617378281,39.26017 15.023978281,40.20145000000001 13.622079281,41.10985000000001 12.384600281,41.981410000000004 11.286380281,42.81783 10.306875281,43.622530000000005 9.429923281,44.399158 8.642893281,45.151132000000004 7.935888281,45.88149 7.301107281,46.592898000000005 6.732374281,47.287694 6.224791281,47.967936 5.774484280999999,48.635454 5.378422281,49.291893 5.034275281,49.938751 4.740328881,50.577414000000005 4.495410681,51.209188000000005 4.298854281,51.835318 4.150478381,52.457026000000006 4.050588711,53.075525600000006 4.0,53.692058900000006 4.0,54.3079211 4.050588711,54.9244544 4.150478381,55.542954 4.298854281,56.16466200000001 4.495410681,56.790792 4.740328881,57.422566 5.034275281,58.061229000000004 5.378422281,58.708087000000006 5.774484280999999,59.364526000000005 6.224791281,60.032044000000006 6.732374281,60.712286000000006 7.301107281,61.407082 7.935888281,62.11849000000001 8.642893281,62.848848000000004 9.429923281,63.60082200000001 10.306875281,64.37745000000001 11.286380281,65.18215000000001 12.384600281,66.01857000000001 13.622079281,66.89013 15.023978281,67.79853 16.617378281,68.73981 18.428688281,69.70097 20.499488280999998,70.67159000000001 22.869498281000002,71.63906 25.557198280999998,72.59214 28.555008281,73.53769 31.865458281,74.51529000000001 35.506568281,75.53659 39.481828281,76.58906 43.776688281,77.65426000000001 48.36076828099999,78.70953 53.198508280999995,79.73122000000001 58.269408281,80.70066 63.583378281,81.61812 69.150388281,82.49236 74.962738281,83.33463 80.984728281,84.15858 87.147718281,84.96822 93.37747828100001,85.75169 99.62210828100001,86.49971000000001 105.85979828100001,87.20751 112.09659828100001,87.87554 118.347198281,88.50809000000001 124.623998281,89.10916 130.936098281,89.68231 137.289698281,90.23075 143.687998281,90.75742 150.13019828100002,91.26506 156.61199828099998,91.75626 163.125498281,92.23247 169.662498281,92.69402 176.215798281,93.1413 182.779498281,93.57487 189.349198281,93.99543 195.92139828100002,94.40379 202.494398281,94.80089000000001 209.06779828100002,95.1877 215.642098281,95.5647 222.217798281,95.93214 228.795498281,96.29025000000001 235.375698281,96.63925 241.958598281,96.97936000000001 248.544498281,97.3108 255.133598281,97.63377 261.72609828099996,97.94847 268.321898281,98.25511 274.920798281,98.55387999999999 281.522898281,98.84497 288.127698281,99.12857 294.734998281,99.40487 301.344298281,99.67406 307.955098281,99.93631 314.566798281,100.19160000000001 321.178798281,100.43978000000001 327.79079828100004,100.68071 334.402298281,100.91423 341.01289828100005,101.14019 347.622398281,101.35846000000001 354.230498281,101.56890000000001 360.837098281,101.77138 367.441998281,101.96577 374.045298281,102.15193 380.64679828100003,102.32974 387.246798281,102.49907 393.845198281,102.6598 400.442298281,102.81181000000001 407.038398281,102.95497 413.633798281,103.0892 420.228598281,103.21445 426.82309828100006,103.33066 433.417498281,103.43778 440.01179828100004,103.53576000000001 446.60619828100005,103.62454000000001 453.20059828100005,103.70406 459.794998281,103.77426 466.38929828100004,103.83509000000001 472.983398281,103.88648 479.577098281,103.92839000000001 486.17009828100004,103.96074 492.762198281,103.9835 499.35309828100003,103.99659 505.94239828099995,103.99998000000001 512.5295982810001,103.99348 519.114398281,103.97675000000001 525.6962982809999,103.9494 532.274998281,103.91106 538.8502982809999,103.86135 545.4217982810001,103.79991000000001 551.989498281,103.72637 558.552998281,103.64035000000001 565.112298281,103.54151 571.667298281,103.42948000000001 578.217998281,103.30389 584.764398281,103.16438000000001 591.3063982809999,103.01060000000001 597.844198281,102.84219000000002 604.377898281,102.65878000000001 610.907598281,102.46006 617.433598281,102.24594 623.9558982809999,102.01631 630.474898281,101.77112 636.990798281,101.51027 643.503898281,101.23369000000001 650.014498281,100.94127 656.522898281,100.63292000000001 663.029498281,100.30854 669.534698281,99.96803 676.038898281,99.61126999999999 682.542498281,99.23814 689.046098281,98.84853000000001 695.550198281,98.44229 702.055198281,98.01928000000001 708.5617982809999,97.57935 715.0703982809999,97.12222 721.581298281,96.64752000000001 728.0943982809999,96.15494000000001 734.609498281,95.64415 741.125898281,95.11487 747.6428982809999,94.56685000000002 754.159298281,93.99985000000001 760.673798281,93.41367 767.184698281,92.80817 773.690098281,92.18325 780.187898281,91.53884 786.675498281,90.87494000000001 793.1504982810001,90.19161 799.609898281,89.48895 806.050698281,88.76714 812.469798281,88.02643 818.864798281,87.26707 825.234498281,86.48923 831.578498281,85.69295 837.8976982810001,84.87816000000001 844.1935982809999,84.04464 850.468798281,83.19207 856.726598281,82.31993 862.971198281,81.42756 869.207698281,80.51411 875.441998281,79.57853 881.680798281,78.61955 887.931998281,77.63562 894.204398281,76.62492 900.5081982810001,75.58523 906.855098281,74.51395000000001 913.2560982809999,73.40849 919.712998281,72.26781 926.214098281,71.09337000000001 932.732098281,69.88965 939.224598281,68.66449 945.637098281,67.42875000000001 951.9087982809999,66.19539 957.980898281,64.97793 963.806198281,63.788309000000005 969.357298281,62.634922 974.6242982809999,61.522673000000005 979.6103982809999,60.45367900000001 984.326898281,59.428074 988.789798281,58.44470200000001 993.016998281,57.501650000000005 997.0268982810001,56.596610000000005 1000.837498281,55.72713 1003.993598281,54.999990000000004" stroke="black" stroke-width="2.0" /></svg>