<?xml version="1.0" encoding="utf-8" ?>
<svg baseProfile="full" height="111.99956" version="1.1" width="1011.990883452" xmlns="http://www.w3.org/2000/svg" xmlns:ev="http://www.w3.org/2001/xml-events" xmlns:xlink="http://www.w3.org/1999/xlink"><defs /><polygon fill="none" points="1003.990883452,52.99978 1001.165983452,52.558239 997.746783452,52.026112 994.1361834520001,51.466951 990.3131834520001,50.877985 986.254783452,50.256206 981.936083452,49.598453 977.331483452,48.901602000000004 972.416983452,48.162913 967.174183452,47.380633 961.596483452,46.554902 955.698083452,45.689002 949.579783452,44.798759000000004 943.575983452,43.93318 937.668983452,43.089510000000004 931.794383452,42.25849 925.903683452,41.4334 919.9598834520001,40.60942 913.9358834520001,39.78331 907.816383452,38.95355 901.6538834520001,38.12782 895.563883452,37.321619999999996 889.534083452,36.53295 883.548183452,35.75936 877.592083452,34.9988 871.6538834520001,34.24956 865.723083452,33.5102 859.7905834520001,32.779520000000005 853.8485834520001,32.0565 847.890383452,31.34034 841.910483452,30.630380000000002 835.904383452,29.926130000000004 829.868683452,29.22726 823.801483452,28.5336 817.701683452,27.84512 811.570183452,27.16197 805.408983452,26.484460000000002 799.2217834520001,25.81305 793.014183452,25.148480000000003 786.8087834520001,24.49332 780.613683452,23.84847 774.424783452,23.21356 768.238783452,22.588310000000003 762.052483452,21.972479999999997 755.863283452,21.36593 749.668983452,20.768520000000002 743.4676834520001,20.1802 737.257983452,19.600960000000008 731.038883452,19.030840000000005 724.8191834520001,18.470749999999995 718.6076834520001,17.92156 712.404383452,17.38331 706.2083834520001,16.85599 700.0187834520001,16.33956 693.8340834520001,15.833910000000003 687.6529834520001,15.338940000000001 681.474483452,14.854570000000002 675.297483452,14.38071 669.120883452,13.91731 662.943983452,13.46432 656.7660834520001,13.021720000000002 650.586583452,12.589480000000002 644.404983452,12.167600000000007 638.2207834520001,11.75609 632.033883452,11.354959999999998 625.8439834520001,10.96423 619.651183452,10.583930000000002 613.4554834520001,10.214110000000005 607.2569834520001,9.854799999999997 601.056083452,9.506059999999998 594.8530834520001,9.167929999999998 588.6483834520001,8.840429999999998 582.4423834520001,8.523580000000003 576.2353834520001,8.217390000000002 570.027583452,7.921880000000002 563.819283452,7.637050000000002 557.610683452,7.362920000000003 551.401883452,7.099470000000004 545.193083452,6.8466999999999985 538.984283452,6.604630000000007 532.7756834520001,6.373240000000003 526.567183452,6.1525199999999955 520.3588834520001,5.942480000000003 514.150583452,5.743090000000002 507.942283452,5.5543599999999955 501.733883452,5.376269999999998 495.525083452,5.208829999999999 489.315983452,5.0520700000000005 483.106283452,4.906040000000004 476.896083452,4.77075 470.685183452,4.646250000000002 464.473683452,4.532589999999999 458.26168345199994,4.429789999999997 452.049183452,4.337900000000005 445.836183452,4.256949999999996 439.623083452,4.1869900000000015 433.409883452,4.128059999999998 427.19678345200003,4.080179999999999 420.984183452,4.0434100000000015 414.772383452,4.017760000000003 408.561483452,4.003290000000007 402.35208345200004,4.0 396.144483452,4.008040000000001 389.938983452,4.027680000000004 383.73598345199997,4.059250000000006 377.535483452,4.10304 371.33778345199994,4.1593599999999995 365.142783452,4.22851 358.95048345199996,4.310810000000004 352.760683452,4.406570000000002 346.573183452,4.516080000000002 340.387583452,4.639670000000002 334.20358345200003,4.777650000000001 328.020583452,4.930340000000001 321.838083452,5.098090000000006 315.655483452,5.281230000000001 309.471883452,5.4801 303.286583452,5.695080000000004 297.098683452,5.92651 290.907483452,6.174710000000005 284.712383452,6.4399799999999985 278.51318345199996,6.7226 272.309983452,7.022880000000001 266.103083452,7.341080000000005 259.893183452,7.67745 253.681083452,8.032229999999998 247.467983452,8.405630000000002 241.255283452,8.797809999999998 235.044883452,9.208919999999999 228.83868345199997,9.639049999999997 222.63908345199997,10.088259999999998 216.44848345199998,10.556560000000005 210.269683452,11.043890000000005 204.105783452,11.550150000000002 197.95978345199998,12.075390000000006 191.834183452,12.620500000000007 185.72928345199998,13.186779999999999 179.642983452,13.775680000000001 173.571383452,14.388910000000003 167.508483452,15.02843 161.446283452,15.696550000000002 155.374483452,16.396 149.28058345199997,17.12986 143.152583452,17.90021 136.984783452,18.70791 130.81098345200002,19.548409999999997 124.668383452,20.41601 118.536983452,21.312689999999996 112.38868345200001,22.242160000000002 106.234183452,23.20243 100.17567345200001,24.176740000000002 94.244283452,25.16237 88.41733345200001,26.16784 82.620923452,27.211280000000002 76.726803452,28.323670000000003 70.740553452,29.5138 65.004033452,30.71749 59.304433452000005,31.97979 53.357943451999994,33.37168 48.038913452,34.684470000000005 43.472863452,35.86522 39.358283452,36.97518 35.419353451999996,38.082710000000006 31.318443452,39.288430000000005 26.449123452,40.8054 22.377173451999997,42.206320000000005 17.715943452,44.036841 14.125753452000001,45.621065 11.997341451999999,46.656584 10.440988452000001,47.483676 9.209086452000001,48.197624000000005 8.195941452,48.839292 7.345800452,49.430472 6.625473452,49.984414 6.013672452,50.509927000000005 5.496105452,51.013276000000005 5.062962452,51.499167 4.707520652,51.971309 4.425342252,52.432761 4.213810352,52.886159 4.071881482,53.3338854 4.0,53.7781996 4.0,54.2213604 4.071881482,54.6656746 4.213810352,55.113401 4.425342252,55.566799 4.707520652,56.028251000000004 5.062962452,56.500393 5.496105452,56.986284 6.013672452,57.489633 6.625473452,58.015146 7.345800452,58.569088 8.195941452,59.160268 9.209086452000001,59.801936 10.440988452000001,60.515884 11.997341451999999,61.342976 14.125753452000001,62.378495 17.715943452,63.962719 22.377173451999997,65.79324 26.449123452,67.19416000000001 31.318443452,68.71113 35.419353451999996,69.91685 39.358283452,71.02438000000001 43.472863452,72.13434000000001 48.038913452,73.31509 53.357943451999994,74.62788 59.304433452000005,76.01977 65.004033452,77.28207 70.740553452,78.48576 76.726803452,79.67589 82.620923452,80.78828 88.41733345200001,81.83172 94.244283452,82.83719 100.17567345200001,83.82282000000001 106.234183452,84.79713000000001 112.38868345200001,85.7574 118.536983452,86.68687 124.668383452,87.58355 130.81098345200002,88.45115000000001 136.984783452,89.29165 143.152583452,90.09935 149.28058345199997,90.8697 155.374483452,91.60356 161.446283452,92.30301 167.508483452,92.97113 173.571383452,93.61064999999999 179.642983452,94.22388000000001 185.72928345199998,94.81278 191.834183452,95.37906 197.95978345199998,95.92417 204.105783452,96.44941 210.269683452,96.95567 216.44848345199998,97.443 222.63908345199997,97.91130000000001 228.83868345199997,98.36051 235.044883452,98.79064 241.255283452,99.20175 247.467983452,99.59393 253.681083452,99.96733 259.893183452,100.32211000000001 266.103083452,100.65848 272.309983452,100.97668 278.51318345199996,101.27696 284.712383452,101.55958000000001 290.907483452,101.82485 297.098683452,102.07305 303.286583452,102.30448 309.471883452,102.51946000000001 315.655483452,102.71833000000001 321.838083452,102.90146999999999 328.020583452,103.06922 334.20358345200003,103.22191000000001 340.387583452,103.35989000000001 346.573183452,103.48348 352.760683452,103.59299 358.95048345199996,103.68875 365.142783452,103.77105 371.33778345199994,103.84020000000001 377.535483452,103.89652000000001 383.73598345199997,103.94031 389.938983452,103.97188 396.144483452,103.99152000000001 402.35208345200004,103.99956 408.561483452,103.99627 414.772383452,103.98179999999999 420.984183452,103.95615000000001 427.19678345200003,103.91938 433.409883452,103.8715 439.623083452,103.81257 445.836183452,103.74261000000001 452.049183452,103.66166 458.26168345199994,103.56977 464.473683452,103.46697 470.685183452,103.35331 476.896083452,103.22881000000001 483.106283452,103.09352 489.315983452,102.94749 495.525083452,102.79073 501.733883452,102.62329 507.942283452,102.4452 514.150583452,102.25647000000001 520.3588834520001,102.05708 526.567183452,101.84704 532.7756834520001,101.62631999999999 538.984283452,101.39492999999999 545.193083452,101.15286 551.401883452,100.90009 557.610683452,100.63664 563.819283452,100.36251 570.027583452,100.07768 576.2353834520001,99.78217000000001 582.4423834520001,99.47597999999999 588.6483834520001,99.15913 594.8530834520001,98.83163 601.056083452,98.49350000000001 607.2569834520001,98.14476 613.4554834520001,97.78545 619.651183452,97.41563 625.8439834520001,97.03533 632.033883452,96.6446 638.2207834520001,96.24347 644.404983452,95.83196 650.586583452,95.41008 656.7660834520001,94.97784 662.943983452,94.53524 669.120883452,94.08225 675.297483452,93.61885000000001 681.474483452,93.14499 687.6529834520001,92.66062 693.8340834520001,92.16565 700.0187834520001,91.66 706.2083834520001,91.14357000000001 712.404383452,90.61625000000001 718.6076834520001,90.078 724.8191834520001,89.52881000000001 731.038883452,88.96871999999999 737.257983452,88.39859999999999 743.4676834520001,87.81936 749.668983452,87.23104000000001 755.863283452,86.63363000000001 762.052483452,86.02708000000001 768.238783452,85.41125 774.424783452,84.786 780.613683452,84.15109000000001 786.8087834520001,83.50624 793.014183452,82.85108 799.2217834520001,82.18651 805.408983452,81.5151 811.570183452,80.83759 817.701683452,80.15444 823.801483452,79.46596 829.868683452,78.7723 835.904383452,78.07343 841.910483452,77.36918 847.890383452,76.65922 853.8485834520001,75.94306 859.7905834520001,75.22004 865.723083452,74.48936 871.6538834520001,73.75 877.592083452,73.00076 883.548183452,72.2402 889.534083452,71.46661 895.563883452,70.67794 901.6538834520001,69.87174 907.816383452,69.04601 913.9358834520001,68.21625 919.9598834520001,67.39014 925.903683452,66.56616 931.794383452,65.74107000000001 937.668983452,64.91005 943.575983452,64.06638000000001 949.579783452,63.200801 955.698083452,62.310558 961.596483452,61.444658000000004 967.174183452,60.618927 972.416983452,59.836647 977.331483452,59.097958 981.936083452,58.401107 986.254783452,57.743354000000004 990.3131834520001,57.121575 994.1361834520001,56.532609 997.746783452,55.973448000000005 1001.165983452,55.441321 1003.990883452,54.99978" stroke="black" stroke-width="2.0" /></svg>