<?xml version="1.0" encoding="utf-8" ?>
<svg baseProfile="full" height="192.80993" version="1.1" width="1013.082052" xmlns="http://www.w3.org/2000/svg" xmlns:ev="http://www.w3.org/2001/xml-events" xmlns:xlink="http://www.w3.org/1999/xlink"><defs /><polygon fill="none" points="1005.082052,107.883 1000.787752,106.886597 995.636852,105.69786500000001 990.258352,104.464071 984.636252,103.182597 978.755252,101.850998 972.6005519999999,100.467202 966.159752,99.02978 959.424752,97.53834 952.393152,95.99394 945.071252,94.39913 937.472752,92.75738 929.618052,91.07324 921.532252,89.35196 913.243852,87.59912 904.7814520000001,85.81997 896.171252,84.01941 887.437252,82.2035 878.603452,80.37862 869.6931519999999,78.55095 860.727652,76.72619 851.7256520000001,74.90939 842.702252,73.1048 833.668552,71.31583 824.6319520000001,69.54499000000001 815.5952520000001,67.79392 806.5572520000001,66.0634 797.5124519999999,64.35333 788.453752,62.662150000000004 779.375052,60.98812 770.271652,59.329800000000006 761.140152,57.68603 751.9789519999999,56.05595 742.787652,54.43894 733.567552,52.834680000000006 724.3217520000001,51.243100000000005 715.054952,49.6644 705.773652,48.099030000000006 696.4859519999999,46.54789 687.200252,45.01298 677.923452,43.49641 668.661052,41.99996 659.4171519999999,40.52513999999999 650.194352,39.07321 640.993852,37.645129999999995 631.8153520000001,36.24167 622.657652,34.86336 613.517852,33.510580000000004 604.392052,32.183499999999995 595.275352,30.882009999999994 586.162952,29.605329999999995 577.0514519999999,28.352760000000004 567.938252,27.12382000000001 558.822152,25.918170000000003 549.7031519999999,24.735640000000004 540.582052,23.576229999999995 531.4612520000001,22.44004000000001 522.343852,21.327300000000008 513.234552,20.23836 504.138652,19.17362 495.062752,18.133930000000007 486.01285199999995,17.121210000000005 476.99425199999996,16.137380000000007 468.011352,15.184170000000009 459.06745199999995,14.26312999999999 450.165152,13.375640000000004 441.305952,12.52291000000001 432.49095199999994,11.70602000000001 423.720252,10.92595 414.9932519999999,10.183539999999994 406.308952,9.479600000000005 397.66565199999997,8.814800000000005 389.06195199999996,8.189800000000005 380.497052,7.605400000000003 371.971052,7.062300000000008 363.484852,6.561300000000003 355.03975199999996,6.103099999999998 346.637952,5.6884000000000015 338.28185199999996,5.317999999999998 329.97475199999997,4.9924000000000035 321.72005199999995,4.712100000000007 313.52165199999996,4.47760000000001 305.38375199999996,4.289100000000005 297.310652,4.146900000000002 289.307252,4.051199999999994 281.378452,4.002200000000002 273.529852,4.0 265.76665199999997,4.044200000000004 258.094352,4.134599999999992 250.518152,4.270500000000013 243.04395200000002,4.452000000000012 235.67835200000002,4.679000000000002 228.429152,4.951300000000003 221.30455200000003,5.268299999999996 214.31265199999999,5.628799999999998 207.461252,6.031400000000005 200.757452,6.4746000000000095 194.207652,6.958600000000004 187.816452,7.484099999999998 181.587152,8.051700000000011 175.521252,8.661100000000005 169.61905199999998,9.311999999999998 163.87945200000001,10.003249999999994 158.300552,10.733860000000007 152.879552,11.50246 147.613552,12.307950000000005 142.500552,13.149479999999997 137.53785200000002,14.02600000000001 132.72255199999998,14.936219999999992 128.051652,15.878730000000004 123.52155200000001,16.852009999999993 119.128652,17.85445 114.869252,18.884439999999998 110.739152,19.940330000000003 106.73455200000001,21.020500000000013 102.85116200000002,22.12328000000001 99.085032,23.24552 95.43320200000001,24.382869999999997 91.893732,25.53098 88.46530200000001,26.685630000000003 85.146792,27.842780000000005 81.937072,28.99866 78.834812,30.149870000000007 75.838942,31.295339999999996 72.948082,32.43668000000001 70.15961200000001,33.57557 67.470072,34.713600000000014 64.87549200000001,35.85221 62.371621999999995,36.99274000000001 59.954111999999995,38.136390000000006 57.61866199999999,39.28427000000001 55.361062,40.43736 53.17733199999999,41.59631 51.064071999999996,42.76012 49.01844199999999,43.927310000000006 47.03791199999999,45.09643 45.120262,46.26613 43.263442,47.43513 41.465591999999994,48.60223 39.724951999999995,49.76629 38.03986199999999,50.926269999999995 36.408732,52.08119 34.830022,53.230180000000004 33.302232000000004,54.37241 31.823922000000003,55.50714 30.393642,56.63371 29.010032000000002,57.75184 27.672062,58.86357 26.378802,59.971779999999995 25.129312000000002,61.07898 23.922632,62.18737 22.757742,63.29883 21.633662,64.41502 20.549342,65.53734 19.503772,66.66698 18.495932,67.80496 17.524782000000002,68.95213000000001 16.589562,70.10851 15.690342000000001,71.27187 14.827165,72.43989 13.999901999999999,73.61054999999999 13.208314000000001,74.78217000000001 12.452071,75.95329000000001 11.730782999999999,77.12272 11.044021,78.28944000000001 10.39134,79.4526 9.772286,80.6115 9.186416999999999,81.76557 8.633302,82.91432 8.112537,84.05739 7.6237449999999995,85.19446 7.166584,86.3253 6.740746,87.44974 6.345968,88.56764 5.9820264000000005,89.67891 5.6487438999999995,90.78351 5.3459907,91.88141 5.073686617,92.97263 4.8318028,94.05719 4.6203644,95.13514 4.4394531,96.20656 4.2892097,97.27154 4.1698374,98.33017 4.081606,99.38257 4.0248550000000005,100.428871 4.0,101.469209 4.007537,102.503736 4.0480529999999995,103.532614 4.1222270000000005,104.556018 4.2308478,105.574133 4.3748194,106.587158 4.5551768,107.595305 4.7731016,108.598801 5.0299412199999995,109.5978924 5.3270368,110.5928645 5.6645391,111.584166 6.0421343,112.572263 6.45961,113.557565 6.916849,114.540415 7.413814,115.521097 7.95054,116.49982800000001 8.527125,117.476753 9.143712,118.45194000000001 9.800478,119.42537 10.497613999999999,120.39692 11.235308,121.36636 12.013715999999999,122.33333 12.832929,123.29732 13.69294,124.25762 14.593591,125.21334 15.534512,126.16335000000001 16.515072,127.10623 17.534242,128.04026 18.590952,128.96366 19.685482,129.87583 20.818582,130.77663 21.991001999999998,131.66601 23.203542000000002,132.54407 24.457022,133.41108 25.752372,134.26745 27.090632,135.11382 28.473012,135.95104 29.900962,136.78024 31.376212000000002,137.60271 32.900982,138.41931 34.477692000000005,139.23075 36.108942,140.03782 37.797461999999996,140.8414 39.546161999999995,141.64248 41.358081999999996,142.4422 43.236352,143.24184 45.184202,144.04285 47.204812,144.8469 49.30128199999999,145.65589 51.476402,146.47196 53.732502,147.29756 56.071132,148.13536 58.49419199999999,148.98663 61.004852,149.85056 63.606482,150.72599 66.302602,151.61164 69.097092,152.50606 71.994372,153.40768 74.99974200000001,154.3149 78.119832,155.22611 81.363302,156.13986 84.740652,157.05608999999998 88.262882,157.97654 91.941472,158.90332 95.788022,159.83882 99.81357200000001,160.78566 104.027522,161.7467 108.436152,162.72453000000002 113.042952,163.71854 117.849252,164.72601 122.853352,165.74358 128.050352,166.76738 133.43265200000002,167.79312 138.990052,168.81636 144.71145199999998,169.83278 150.585852,170.83846 156.604352,171.83022 162.761552,172.80515 169.053652,173.75956 175.476452,174.68958 182.025452,175.59133 188.69645200000002,176.46093000000002 195.486052,177.29456 202.391252,178.08848999999998 209.410652,178.83924000000002 216.543752,179.54525 223.789452,180.20646 231.145252,180.82299 238.607752,181.3951 246.171652,181.9233 253.830352,182.40828 261.57535199999995,182.85079 269.39785199999994,183.25013 277.289852,183.60521 285.24445199999997,183.91519 293.256652,184.17947 301.32315199999994,184.39758999999998 309.44245199999995,184.56929000000002 317.615352,184.69479 325.84235199999995,184.77477 334.12425199999996,184.80993 342.461352,184.80104 350.853752,184.74891 359.301152,184.6544 367.803152,184.51845 376.358852,184.34208 384.966952,184.12637 393.62585199999995,183.87252 402.33355199999994,183.58183 411.087352,183.25564000000003 419.884752,182.89483 428.72305199999994,182.50001 437.599452,182.07184 446.51165199999997,181.61103 455.456952,181.11836 464.432952,180.59466 473.43745199999995,180.0408 482.468152,179.4577 491.523152,178.84629 500.600252,178.20757 509.697952,177.54252000000002 518.814452,176.85183 527.9482519999999,176.13584 537.097852,175.3949 546.261852,174.62939 555.439052,173.83967 564.628252,173.02614 573.8282519999999,172.18917 583.038152,171.32916 592.2569520000001,170.44651 601.484052,169.54160000000002 610.718552,168.61483 619.960052,167.66647 629.207952,166.69674 638.461552,165.70586 647.7202520000001,164.69404 656.983552,163.66153 666.250752,162.60856 675.5210519999999,161.53538 684.793952,160.44224 694.0687519999999,159.32943 703.3446519999999,158.1972 712.620952,157.04584 721.896952,155.87569 731.171752,154.68713 740.444352,153.48054 749.7136519999999,152.25636 758.9785519999999,151.01501000000002 768.2375519999999,149.75697 777.4894519999999,148.48273 786.732452,147.19281 795.964952,145.88774999999998 805.185352,144.56812000000002 814.3916519999999,143.23444 823.5804519999999,141.88705 832.746452,140.52661 841.8819520000001,139.1541 850.9772519999999,137.77091000000001 860.020952,136.37877 868.9998519999999,134.97973000000002 877.900052,133.57614 886.7064519999999,132.17059 895.404052,130.76581 903.977852,129.36464999999998 912.413452,127.97004000000001 920.6932519999999,126.58592 928.793352,125.21756 936.686052,123.87095 944.3431519999999,122.55225 951.7397520000001,121.26722000000001 958.8559519999999,120.02073 965.679452,118.816225 972.207652,117.655353 978.4457520000001,116.5383 984.404252,115.464231 990.096652,114.431639 995.5382519999999,113.438612 1000.744952,112.483033 1005.082052,111.683" stroke="black" stroke-width="2.0" /></svg>