<?xml version="1.0" encoding="utf-8" ?>
<svg baseProfile="full" height="133.5979" version="1.1" width="1012.0679845" xmlns="http://www.w3.org/2000/svg" xmlns:ev="http://www.w3.org/2001/xml-events" xmlns:xlink="http://www.w3.org/1999/xlink"><defs /><polygon fill="none" points="1004.0679845,81.90455 1000.6016844999999,81.182013 996.4190845,80.314585 992.0207844999999,79.407686 987.3886845000001,78.458375 982.5043844999999,77.463821 977.3506844999999,76.421558 971.9130845,75.329876 966.1833844999999,74.188376 960.1627845,72.9987 953.8668845,71.76532 947.3295845,70.49624 940.5995845,69.20221 933.7317845,67.89487 926.7802845,66.58528 919.7912845,65.28268 912.7983845,63.99361999999999 905.8205845,62.72174 898.8619845,61.46777 891.9169845,60.230509999999995 884.9791845,59.0085 878.0431844999999,57.80051 871.1041845,56.60544 864.1577844999999,55.422349999999994 857.2004844999999,54.25044 850.2295844999999,53.08905 843.2425844999999,51.937619999999995 836.2378845,50.795739999999995 829.2145844999999,49.66308 822.1723844999999,48.53946 815.1117845,47.42478 808.0338845,46.31908 800.9406845,45.22248 793.8346845,44.13531999999999 786.7184845,43.05811 779.5944845,41.99127 772.4648845,40.93524 765.3317845,39.890359999999994 758.1967845,38.85697 751.0617845,37.83535 743.9278845,36.825739999999996 736.7964845,35.82835 729.6684845,34.84335 722.5445845,33.87086 715.4253845,32.910979999999995 708.3111845,31.96378 701.2021845,31.029289999999996 694.0982845,30.107649999999992 686.9993844999999,29.19907 679.9050844999999,28.303819999999995 672.8152845,27.422109999999996 665.7295844999999,26.55417 658.6476845,25.700229999999998 651.5689844999999,24.860499999999995 644.4930844999999,24.035199999999996 637.4194845,23.224529999999994 630.3474845,22.4287 623.2764845,21.64792 616.2057844999999,20.882379999999998 609.1345845,20.13228999999999 602.0619845,19.39786 594.9872845,18.679150000000007 587.9095844999999,17.975979999999993 580.8285844999999,17.288200000000003 573.7435844999999,16.61564 566.6545845,15.958179999999999 559.5613845,15.315699999999993 552.4640845,14.688090000000003 545.3628845,14.075279999999992 538.2582845,13.477169999999987 531.1507844999999,12.893709999999999 524.0410844999999,12.324839999999995 516.9302845,11.770499999999998 509.8191845,11.230649999999997 502.7092845,10.705249999999992 495.60168450000003,10.194479999999999 488.49788450000005,9.699039999999997 481.39898450000004,9.219649999999987 474.3062845,8.757049999999992 467.2206845,8.311939999999993 460.1431845,7.884979999999999 453.0745845,7.476849999999999 446.01558450000005,7.088170000000005 438.9669845,6.7195799999999934 431.9291845,6.371679999999998 424.9026845,6.04504 417.88778450000007,5.74024 410.8848845,5.4578400000000045 403.89418450000005,5.19838 396.91568450000005,4.962400000000002 389.9495845,4.750589999999988 382.9960845,4.563609999999997 376.0550845,4.4021199999999965 369.12658450000004,4.2668000000000035 362.2105845,4.158279999999991 355.3068845,4.077209999999994 348.4153845000001,4.024239999999992 341.5356845,4.0 334.66758450000003,4.005119999999991 327.8107845,4.040239999999997 320.9647845,4.1059999999999945 314.1291845,4.203040000000001 307.3034845,4.331999999999994 300.4871845,4.493529999999993 293.67968450000006,4.688119999999998 286.8807845,4.916119999999992 280.09058450000003,5.177879999999988 273.3093845,5.473699999999994 266.5376845,5.803909999999988 259.77648450000004,6.168779999999998 253.02658449999998,6.568559999999991 246.2896845,7.003569999999996 239.56698450000002,7.474339999999998 232.8598845,7.981429999999989 226.16968450000002,8.525369999999995 219.4975845,9.106679999999997 212.8446845,9.725839999999991 206.2117845,10.383319999999998 199.5997845,11.0796 193.0099845,11.815470000000005 186.4444845,12.591819999999998 179.9059845,13.409360000000007 173.3984845,14.268609999999995 166.9262845,15.169839999999994 160.4945845,16.113070000000008 154.1090845,17.098039999999997 147.7760845,18.12465999999999 141.50258449999998,19.194230000000005 135.29528449999998,20.308169999999997 129.1608845,21.467549999999996 123.1053845,22.673099999999998 117.1344845,23.925219999999996 111.25328449999999,25.22397 105.46618449999998,26.56913 99.7774645,27.959839999999993 94.1955345,29.39143 88.73801449999999,30.855199999999996 83.4291945,32.339909999999996 78.29594449999999,33.83266 73.3634245,35.32313 68.65232449999999,36.80814 64.1775145,38.28423 59.9466045,39.74731 55.9598445,41.19339 52.211464500000005,42.619029999999995 48.6956545,44.019929999999995 45.4068945,45.39142 42.3360345,46.73025 39.471354500000004,48.03447 36.7996645,49.30320999999999 34.3072445,50.53644 31.9804645,51.734669999999994 29.8061845,52.898869999999995 27.7718745,54.0309 25.8646845,55.14 24.0751645,56.235879999999995 22.397084500000002,57.32348 20.8251545,58.4045 19.3539845,59.478719999999996 17.977604499999998,60.544959999999996 16.6895345,61.60171 15.4841845,62.646589999999996 14.3608345,63.673829999999995 13.317591499999999,64.67940999999999 12.3506205,65.66173 11.4553625,66.6206 10.627176500000001,67.55669 9.8616685,68.47106 9.1548285,69.36498999999999 8.5030805,70.23983 7.9032785,71.09693 7.3526875,71.93760999999999 6.8489495,72.76313999999999 6.3900515,73.574704 5.9742955,74.37344 5.6002685,75.160417 5.2668254999999995,75.936649 4.9730671,76.703102 4.7183256,77.460698 4.502159,78.21033 4.3243448,78.95286 4.1848802,79.68914 4.08398725,80.42000999999999 4.02212383,81.146316 4.0,81.868915 4.01860258,82.588692 4.07922734,83.3065712 4.1828113,84.0235232 4.328777,84.740501 4.5165534,85.458401 4.7458532,86.178073 5.0166563,86.90033199999999 5.3292005,87.62596599999999 5.6839775,88.355747 6.0817385,89.090429 6.5234974999999995,89.830758 7.0105465,90.577468 7.5444724999999995,91.331275 8.1271735,92.09287499999999 8.7608835,92.862922 9.4481945,93.642 10.1920665,94.4306 10.9958335,95.229 11.8631725,96.03723 12.798007499999999,96.85484 13.804315500000001,97.68066999999999 14.885724499999998,98.51248 16.0447745,99.34634 17.281954499999998,100.17602 18.5998745,100.99682 20.0044445,101.80687 21.5015445,102.60486999999999 23.0967445,103.39043 24.7954045,104.16467 26.603054500000002,104.93102999999999 28.5263445,105.69626 30.5746745,106.47059999999999 32.7596045,107.25838999999999 35.093224500000005,108.05912 37.588234500000006,108.87181 40.2575545,109.69498999999999 43.1139845,110.52656999999999 46.1695245,111.3638 49.4346345,112.20313 52.917474500000004,113.04034999999999 56.6239445,113.8707 60.5616945,114.68939 64.7380845,115.49157 69.15702449999999,116.27248 73.8195045,117.02813 78.7256445,117.7561 83.8777745,118.45582999999999 89.2772845,119.12669 94.9188445,119.76841999999999 100.7882745,120.38193 106.86108449999999,120.96946 113.1043845,121.53016 119.48188449999999,122.05902 125.9572845,122.5518 132.4976845,123.00557 139.07708449999998,123.41873 145.6782845,123.79086 152.2939845,124.1225 158.9274845,124.41481999999999 165.58818449999998,124.66982999999999 172.2848845,124.88964 179.0242845,125.0762 185.8101845,125.23133 192.64388449999998,125.35684 199.52388449999998,125.45455 206.4449845,125.52637999999999 213.3995845,125.57377 220.3800845,125.59737 227.3804845,125.59790000000001 234.3966845,125.57615999999999 241.4265845,125.53297 248.4697845,125.46921 255.5280845,125.38571999999999 262.60528450000004,125.28353 269.70488450000005,125.16413 276.82968450000004,125.0291 283.98098450000003,124.88005 291.15898450000003,124.71866 298.3623845,124.54667 305.5885845,124.36592 312.8335845,124.17775 320.09308450000003,123.98232999999999 327.3630845,123.77968 334.6398845,123.56984 341.92028450000004,123.35281 349.2013845,123.12863 356.4807845,122.89732000000001 363.75648450000006,122.65889999999999 371.0269845,122.41337999999999 378.2911845,122.16076 385.54848450000003,121.90101999999999 392.7985845,121.63415 400.0417845,121.36010999999999 407.2785845,121.07883999999999 414.5099845,120.79031 421.73698450000006,120.49449 428.9606845,120.1914 436.1818845,119.881 443.40148450000004,119.56329 450.62038450000006,119.23826 457.8393845,118.90588 465.0591845,118.56612999999999 472.2806845,118.219 479.5044845,117.86446000000001 486.7312845,117.50249 493.9616845,117.13307 501.19628450000005,116.75617 508.43558450000006,116.37178 515.6803845,115.98012 522.9307845,115.58157 530.1874845,115.17654999999999 537.4505845,114.76545 544.7203845,114.34868 551.9968845,113.92668 559.2801845,113.49986 566.5701844999999,113.06867 573.8666844999999,112.63355 581.1694845000001,112.19496 588.4780845,111.75335 595.7921845,111.3092 603.1110845000001,110.863 610.4341844999999,110.41517 617.7606844999999,109.96593999999999 625.0899844999999,109.51538 632.4214845,109.06361 639.7545845,108.61072 647.0888845,108.15679 654.4239845,107.70192 661.7594845,107.24619 669.0950845,106.78968 676.4305845,106.33247 683.7658845,105.87462 691.1008844999999,105.4162 698.4355844999999,104.95728 705.7699845,104.49790999999999 713.1042845,104.03807 720.4383845,103.57754 727.7721845,103.11609999999999 735.1054845,102.65353999999999 742.4379845,102.18965 749.7690845,101.72423 757.0982845,101.2571 764.4245845,100.78808 771.7473845,100.31700000000001 779.0654845,99.8437 786.3778844999999,99.36802 793.6832845,98.88983999999999 800.9802845,98.40902 808.2674844999999,97.92546 815.5434845,97.43939 822.8072844999999,96.95123 830.0587845,96.46139 837.2980845,95.97025 844.5260844999999,95.47811 851.7440845,94.98525 858.9540844999999,94.49193 866.1582844999999,93.99833 873.3597844999999,93.50462999999999 880.5620845,93.010936 887.7691844999999,92.517343 894.9855845,92.023899 902.2165845,91.530615 909.4678845,91.037415 916.7394844999999,90.54398 924.0151844999999,90.050757 931.2608845,89.559415 938.4266845,89.072705 945.4520845,88.594155 952.2744845,88.12758099999999 958.8371844999999,87.676553 965.0998845,87.243967 971.0440844999999,86.831417 976.6686844999999,86.439288 981.9840844999999,86.06713599999999 987.0074844999999,85.714015 991.7593845,85.37872399999999 996.2610845,85.059961 1000.5333844999999,84.756424 1004.0679845,84.50455" stroke="black" stroke-width="2.0" /></svg>