<?xml version="1.0" encoding="utf-8" ?>
<svg baseProfile="full" height="112.00474" version="1.1" width="1011.991606334" xmlns="http://www.w3.org/2000/svg" xmlns:ev="http://www.w3.org/2001/xml-events" xmlns:xlink="http://www.w3.org/1999/xlink"><defs /><polygon fill="none" points="1003.991606334,54.00237 1001.046006334,53.6781384 997.481806334,53.2867965 993.719906334,52.874913 989.739306334,52.440398 985.517306334,51.980993999999995 981.029806334,51.494355999999996 976.2528063340001,50.978201 971.1649063340001,50.430583999999996 965.751706334,49.850352 960.0117063340001,49.237806 953.964906334,48.595545 947.662906334,47.929381 941.3473063340001,47.264718 935.125906334,46.6124 928.935506334,45.96532 922.730306334,45.318236 916.478406334,44.667445 910.162106334,44.010678999999996 903.7813063340001,43.34752 897.4107063340001,42.68534 891.070906334,42.0263 884.744306334,41.36857 878.416606334,40.71074 872.077906334,40.051809999999996 865.7215063340001,39.39114 859.344806334,38.7285 852.949006334,38.06408 846.551206334,37.39964 840.1617063340001,36.7362 833.775606334,36.073170000000005 827.388906334,35.410070000000005 820.998906334,34.74652 814.603706334,34.08225 808.202506334,33.417100000000005 801.801506334,32.75165 795.405406334,32.08645 789.012906334,31.421719999999997 782.6231063340001,30.75771 776.235106334,30.0947 769.848506334,29.43299 763.463006334,28.7729 757.078506334,28.11479 750.6953063340001,27.459030000000002 744.313606334,26.805999999999997 737.9339063340001,26.15606 731.5566063340001,25.50958 725.181806334,24.86692 718.8099063340001,24.22842 712.441006334,23.59442 706.0752063340001,22.96526 699.712706334,22.341279999999998 693.353506334,21.72285 686.9975063340001,21.110349999999997 680.644806334,20.504170000000002 674.2951063340001,19.90468 667.948306334,19.312259999999995 661.6042063340001,18.72728 655.2623063340001,18.150079999999996 648.922506334,17.58101 642.5843063340001,17.02026 636.2474063340001,16.467979999999997 629.911506334,15.924300000000002 623.576506334,15.38937 617.242106334,14.863350000000004 610.908206334,14.346379999999996 604.574606334,13.838639999999998 598.2414063340001,13.34028 591.908506334,12.851479999999995 585.5759063340001,12.372430000000001 579.2439063340001,11.903309999999998 572.9126063340001,11.444309999999994 566.582406334,10.995629999999998 560.2537063340001,10.557479999999998 553.926906334,10.130049999999997 547.602506334,9.71358 541.281006334,9.308479999999996 534.962806334,8.915169999999996 528.6480063340001,8.534039999999997 522.336606334,8.165489999999998 516.028306334,7.809910000000002 509.72280633400004,7.467669999999998 503.419606334,7.1391300000000015 497.11800633400003,6.824639999999995 490.817506334,6.524469999999994 484.517806334,6.23892 478.21920633400003,5.96828 471.92210633400003,5.712870000000002 465.62720633399994,5.473019999999998 459.33590633399996,5.249040000000001 453.049506334,5.041269999999997 446.769806334,4.850140000000003 440.49820633400003,4.676409999999997 434.235506334,4.520870000000002 427.98160633399993,4.384249999999994 421.735906334,4.2672799999999995 415.496706334,4.170689999999993 409.262006334,4.095189999999995 403.029006334,4.041540000000005 396.79420633399997,4.010060000000003 390.55440633399996,4.0 384.30710633399997,4.010449999999999 378.05060633399995,4.040519999999994 371.784006334,4.089329999999997 365.507206334,4.156010000000002 359.221006334,4.2396499999999975 352.927006334,4.3393000000000015 346.627506334,4.454279999999997 340.32500633399997,4.5844999999999985 334.021506334,4.729970000000002 327.71860633399996,4.890699999999995 321.41750633399994,5.066689999999994 315.118906334,5.257930000000002 308.823106334,5.464449999999999 302.53000633399995,5.686259999999997 296.239106334,5.923410000000004 289.949906334,6.176029999999997 283.662106334,6.444200000000002 277.375406334,6.728020000000001 271.089906334,7.027610000000003 264.805906334,7.343029999999999 258.523706334,7.674350000000004 252.24390633400003,8.021649999999994 245.96720633400002,8.385069999999999 239.694406334,8.76493 233.42610633400002,9.161609999999996 227.16270633400003,9.57546 220.904506334,10.00683 214.651806334,10.4561 208.40460633400002,10.923630000000003 202.162806334,11.40981 195.92630633400003,11.915019999999998 189.694906334,12.439599999999999 183.468306334,12.983889999999995 177.246706334,13.54822 171.03030633400002,14.132869999999997 164.82010633400003,14.738029999999995 158.617406334,15.363900000000001 152.42430633400002,16.01099 146.242506334,16.67991 140.074106334,17.371249999999996 133.921206334,18.08607 127.78680633399999,18.825609999999998 121.67470633399999,19.590959999999995 115.588606334,20.38353 109.530206334,21.20557 103.497096334,22.05979 97.484456334,22.94868 91.492436334,23.87204 85.530886334,24.82885 79.612086334,25.818949999999997 73.75080633399999,26.842299999999998 67.96914633399999,27.898229999999998 62.294566333999995,28.98683 56.757686334,30.10757 51.395746333999995,31.25789 46.253856334,32.43092 41.387586334,33.6138 36.858256334,34.79133 32.725486333999996,35.94448 29.017216334,37.056439999999995 25.722776334000002,38.11837 22.804896334,39.12702 20.225666334000003,40.08725 17.960996334,41.00341 15.982126334,41.875460000000004 14.253636334,42.70368 12.739165334,43.49119 11.405999334,44.250209999999996 10.225320334,44.988139000000004 9.178165334,45.715006 8.250658334,46.438562 7.4290013340000005,47.159769 6.708052334,47.884671 6.078049334,48.610946 5.537108334,49.340894 5.081123334,50.072848 4.7082306339999995,50.805602 4.415911334,51.535517 4.204249034,52.26097 4.067132644,52.971109 4.0,53.661602699999996 4.0,54.3431373 4.067132644,55.033631 4.204249034,55.74377 4.415911334,56.469223 4.7082306339999995,57.199138 5.081123334,57.931892 5.537108334,58.663846 6.078049334,59.393794 6.708052334,60.120069 7.4290013340000005,60.844971 8.250658334,61.566178 9.178165334,62.289733999999996 10.225320334,63.016600999999994 11.405999334,63.75453 12.739165334,64.51355 14.253636334,65.30106 15.982126334,66.12928 17.960996334,67.00133 20.225666334000003,67.91749 22.804896334,68.87772 25.722776334000002,69.88637 29.017216334,70.9483 32.725486333999996,72.06026 36.858256334,73.21341 41.387586334,74.39094 46.253856334,75.57382 51.395746333999995,76.74685 56.757686334,77.89717 62.294566333999995,79.01791 67.96914633399999,80.10651 73.75080633399999,81.16244 79.612086334,82.18579 85.530886334,83.17589 91.492436334,84.1327 97.484456334,85.05606 103.497096334,85.94495 109.530206334,86.79917 115.588606334,87.62120999999999 121.67470633399999,88.41378 127.78680633399999,89.17913 133.921206334,89.91866999999999 140.074106334,90.63349 146.242506334,91.32482999999999 152.42430633400002,91.99375 158.617406334,92.64084 164.82010633400003,93.26671 171.03030633400002,93.87187 177.246706334,94.45652 183.468306334,95.02085 189.694906334,95.56514 195.92630633400003,96.08972 202.162806334,96.59493 208.40460633400002,97.08111 214.651806334,97.54864 220.904506334,97.99790999999999 227.16270633400003,98.42928 233.42610633400002,98.84313 239.694406334,99.23981 245.96720633400002,99.61967 252.24390633400003,99.98309 258.523706334,100.33039 264.805906334,100.66171 271.089906334,100.97712999999999 277.375406334,101.27672 283.662106334,101.56054 289.949906334,101.82871 296.239106334,102.08133 302.53000633399995,102.31848 308.823106334,102.54029 315.118906334,102.74681 321.41750633399994,102.93805 327.71860633399996,103.11404 334.021506334,103.27476999999999 340.32500633399997,103.42024 346.627506334,103.55046 352.927006334,103.66543999999999 359.221006334,103.76509 365.507206334,103.84872999999999 371.784006334,103.91541000000001 378.05060633399995,103.96422000000001 384.30710633399997,103.99429 390.55440633399996,104.00474 396.79420633399997,103.99467999999999 403.029006334,103.9632 409.262006334,103.90955 415.496706334,103.83405 421.735906334,103.73746 427.98160633399993,103.62049 434.235506334,103.48387 440.49820633400003,103.32833 446.769806334,103.15459999999999 453.049506334,102.96347 459.33590633399996,102.75569999999999 465.62720633399994,102.53172 471.92210633400003,102.29186999999999 478.21920633400003,102.03646 484.517806334,101.76581999999999 490.817506334,101.48027 497.11800633400003,101.18010000000001 503.419606334,100.86561 509.72280633400004,100.53707 516.028306334,100.19483 522.336606334,99.83924999999999 528.6480063340001,99.4707 534.962806334,99.08957000000001 541.281006334,98.69626 547.602506334,98.29115999999999 553.926906334,97.87469 560.2537063340001,97.44726 566.582406334,97.00910999999999 572.9126063340001,96.56043 579.2439063340001,96.10143 585.5759063340001,95.63230999999999 591.908506334,95.15326 598.2414063340001,94.66445999999999 604.574606334,94.1661 610.908206334,93.65836 617.242106334,93.14139 623.576506334,92.61537 629.911506334,92.08044 636.2474063340001,91.53676 642.5843063340001,90.98447999999999 648.922506334,90.42373 655.2623063340001,89.85466 661.6042063340001,89.27745999999999 667.948306334,88.69248 674.2951063340001,88.10006 680.644806334,87.50057 686.9975063340001,86.89439 693.353506334,86.28189 699.712706334,85.66346 706.0752063340001,85.03948 712.441006334,84.41032 718.8099063340001,83.77632 725.181806334,83.13782 731.5566063340001,82.49516 737.9339063340001,81.84868 744.313606334,81.19874 750.6953063340001,80.54571 757.078506334,79.88995 763.463006334,79.23184 769.848506334,78.57175 776.235106334,77.91004 782.6231063340001,77.24703 789.012906334,76.58302 795.405406334,75.91829 801.801506334,75.25309 808.202506334,74.58764 814.603706334,73.92249 820.998906334,73.25822 827.388906334,72.59467 833.775606334,71.93157 840.1617063340001,71.26854 846.551206334,70.6051 852.949006334,69.94066 859.344806334,69.27624 865.7215063340001,68.61359999999999 872.077906334,67.95293000000001 878.416606334,67.294 884.744306334,66.63616999999999 891.070906334,65.97844 897.4107063340001,65.3194 903.7813063340001,64.65722 910.162106334,63.994061 916.478406334,63.337295 922.730306334,62.686504 928.935506334,62.03942 935.125906334,61.39234 941.3473063340001,60.740021999999996 947.662906334,60.075359 953.964906334,59.409195 960.0117063340001,58.766934 965.751706334,58.154388 971.1649063340001,57.574156 976.2528063340001,57.026539 981.029806334,56.510384 985.517306334,56.023746 989.739306334,55.564341999999996 993.719906334,55.129827 997.481806334,54.7179435 1001.046006334,54.3266016 1003.991606334,54.00237" stroke="black" stroke-width="2.0" /></svg>