<?xml version="1.0" encoding="utf-8" ?>
<svg baseProfile="full" height="161.99626" version="1.1" width="1011.993897832" xmlns="http://www.w3.org/2000/svg" xmlns:ev="http://www.w3.org/2001/xml-events" xmlns:xlink="http://www.w3.org/1999/xlink"><defs /><polygon fill="none" points="1003.993897832,77.49813 1000.791397832,76.38800400000001 996.931397832,75.063542 992.878097832,73.688681 988.6157978320001,72.26050500000001 984.1289978320001,70.77643900000001 979.402797832,69.23459100000001 974.4246978320001,67.63423 969.186797832,65.97641 963.6883978320001,64.26482 957.9397978320001,62.50658 951.965397832,60.71298 945.805297832,58.89936 939.508497832,57.082750000000004 933.125697832,55.27942 926.7027978320001,53.50320000000001 920.276597832,51.76436 913.8721978320001,50.06926 907.502397832,48.42051000000001 901.168197832,46.817510000000006 894.862097832,45.257470000000005 888.575097832,43.737350000000006 882.299097832,42.254580000000004 876.0271978320001,40.806990000000006 869.753097832,39.39276 863.471497832,38.01038 857.177797832,36.65861 850.867897832,35.336470000000006 844.538597832,34.04319 838.187297832,32.77822 831.812097832,31.54117 825.411797832,30.331870000000002 818.986197832,29.15027 812.535597832,27.996510000000008 806.061397832,26.87084 799.5656978320001,25.773630000000004 793.051297832,24.705289999999998 786.5207978320001,23.666130000000003 779.9767978320001,22.656390000000002 773.421397832,21.676220000000008 766.856697832,20.72572000000001 760.284497832,19.80489 753.706397832,18.9137 747.123697832,18.052040000000005 740.537397832,17.21976 733.948597832,16.41664 727.3575978320001,15.64244 720.764797832,14.896900000000002 714.170397832,14.179689999999994 707.573997832,13.490489999999994 700.975397832,12.828950000000006 694.373797832,12.194670000000002 687.768597832,11.58720000000001 681.159097832,11.006130000000013 674.5448978320001,10.45105000000001 667.925397832,9.921570000000003 661.300097832,9.417300000000012 654.668797832,8.937899999999999 648.0311978320001,8.482990000000001 641.386997832,8.052240000000012 634.735997832,7.645299999999992 628.078197832,7.261830000000003 621.413397832,6.901520000000005 614.741897832,6.5640300000000025 608.063597832,6.249040000000008 601.3786978320001,5.956229999999991 594.6874978320001,5.685280000000006 587.990097832,5.435869999999994 581.286797832,5.207660000000004 574.5777978320001,5.0003400000000084 567.863397832,4.813559999999995 561.143797832,4.647000000000006 554.419297832,4.500299999999996 547.6901978320001,4.3731400000000065 540.956897832,4.2651500000000055 534.2195978320001,4.175990000000013 527.478797832,4.105300000000014 520.7347978319999,4.052730000000011 513.987997832,4.017900000000012 507.238797832,4.000450000000001 500.487497832,4.0 493.734697832,4.016379999999998 486.980797832,4.04956 480.225897832,4.099510000000009 473.47049783200004,4.166210000000007 466.714897832,4.249639999999999 459.95919783200003,4.349770000000007 453.203597832,4.466570000000004 446.448397832,4.600010000000012 439.69369783200005,4.750050000000016 432.939497832,4.916680000000014 426.18579783200005,5.099860000000007 419.432797832,5.29956 412.68039783200004,5.51576 405.928497832,5.748429999999999 399.177097832,5.997540000000001 392.42609783200004,6.263120000000001 385.675297832,6.545200000000008 378.924797832,6.843800000000002 372.174597832,7.158950000000004 365.424797832,7.490670000000009 358.675497832,7.838999999999999 351.92679783200003,8.203950000000006 345.17899783200005,8.585529999999991 338.43239783200005,8.983760000000004 331.68719783200004,9.39864 324.94379783200003,9.83017000000001 318.20259783200004,10.278350000000003 311.463997832,10.743170000000006 304.72859783200005,11.22460000000001 297.996797832,11.722670000000008 291.26919783200003,12.237670000000008 284.546497832,12.77001 277.829097832,13.320070000000001 271.117497832,13.888239999999996 264.41209783200003,14.474909999999994 257.713197832,15.080470000000005 251.021397832,15.705310000000004 244.33669783199997,16.349800000000002 237.659597832,17.014340000000004 230.990097832,17.699310000000004 224.32849783199998,18.40509 217.674797832,19.13208000000001 211.029097832,19.880660000000006 204.391597832,20.651220000000002 197.762197832,21.444210000000005 191.141097832,22.26017000000001 184.529197832,23.09968 177.92759783199998,23.963220000000007 171.33789783199998,24.851220000000005 164.761997832,25.763990000000007 158.20229783199997,26.70179000000001 151.661597832,27.66476 145.143097832,28.653870000000005 138.650897832,29.67123 132.18949783199997,30.718810000000005 125.76409783199999,31.798360000000002 119.380397832,32.91133000000001 113.04429783200001,34.05886 106.76209783200001,35.24181 100.540367832,36.4607 94.388557832,37.71558 88.321897832,39.005230000000005 82.359697832,40.32686 76.52364783200001,41.67642 70.836527832,43.05330000000001 65.329687832,44.458090000000006 60.042167832,45.885600000000004 55.010807832,47.32629 50.264177832,48.767920000000004 45.829397832,50.193450000000006 41.720657832,51.587430000000005 37.935307832,52.93943 34.458987832,54.24342 31.270527832,55.496770000000005 28.345647831999997,56.69932 25.658667832,57.865050000000004 23.201527831999996,59.017540000000004 20.981597832,60.158390000000004 18.995947832,61.27861 17.226047832,62.369240000000005 15.645317832,63.424690000000005 14.235177832,64.43768 12.978936832,65.40458000000001 11.857317832,66.32752 10.851935832,67.2113 9.947610832,68.06087000000001 9.132419832,68.88046 8.396829832,69.673749 7.733135832,70.444012 7.135115832,71.19410400000001 6.597756832,71.926526 6.117033832,72.643476 5.689731832,73.346906 5.313317832,74.03857 4.985842132,74.72006900000001 4.705870632,75.392881 4.472437232,76.058397 4.285015032,76.71794700000001 4.143504132,77.372828 4.048236942,78.0243303 4.0,78.6737648 4.0,79.3224952 4.048236942,79.9719297 4.143504132,80.62343200000001 4.285015032,81.278313 4.472437232,81.93786300000001 4.705870632,82.603379 4.985842132,83.276191 5.313317832,83.95769 5.689731832,84.649354 6.117033832,85.352784 6.597756832,86.06973400000001 7.135115832,86.802156 7.733135832,87.552248 8.396829832,88.322511 9.132419832,89.11580000000001 9.947610832,89.93539 10.851935832,90.78496 11.857317832,91.66874 12.978936832,92.59168 14.235177832,93.55858 15.645317832,94.57157000000001 17.226047832,95.62702 18.995947832,96.71765 20.981597832,97.83787000000001 23.201527831999996,98.97872000000001 25.658667832,100.13121000000001 28.345647831999997,101.29694 31.270527832,102.49949000000001 34.458987832,103.75284 37.935307832,105.05683 41.720657832,106.40883 45.829397832,107.80281 50.264177832,109.22834 55.010807832,110.66997 60.042167832,112.11066 65.329687832,113.53817000000001 70.836527832,114.94296 76.52364783200001,116.31984 82.359697832,117.6694 88.321897832,118.99103 94.388557832,120.28068 100.540367832,121.53556 106.76209783200001,122.75445 113.04429783200001,123.9374 119.380397832,125.08493 125.76409783199999,126.1979 132.18949783199997,127.27745 138.650897832,128.32503 145.143097832,129.34239 151.661597832,130.3315 158.20229783199997,131.29447 164.761997832,132.23227 171.33789783199998,133.14504 177.92759783199998,134.03304 184.529197832,134.89658 191.141097832,135.73609 197.762197832,136.55205 204.391597832,137.34504 211.029097832,138.1156 217.674797832,138.86418 224.32849783199998,139.59117 230.990097832,140.29695 237.659597832,140.98192 244.33669783199997,141.64646 251.021397832,142.29095 257.713197832,142.91579000000002 264.41209783200003,143.52135 271.117497832,144.10802 277.829097832,144.67619000000002 284.546497832,145.22625 291.26919783200003,145.75859 297.996797832,146.27359 304.72859783200005,146.77166 311.463997832,147.25309 318.20259783200004,147.71791000000002 324.94379783200003,148.16609 331.68719783200004,148.59762 338.43239783200005,149.0125 345.17899783200005,149.41073 351.92679783200003,149.79231 358.675497832,150.15726 365.424797832,150.50558999999998 372.174597832,150.83731 378.924797832,151.15246000000002 385.675297832,151.45105999999998 392.42609783200004,151.73314 399.177097832,151.99872 405.928497832,152.24783000000002 412.68039783200004,152.4805 419.432797832,152.69670000000002 426.18579783200005,152.8964 432.939497832,153.07958 439.69369783200005,153.24621 446.448397832,153.39625 453.203597832,153.52969000000002 459.95919783200003,153.64649 466.714897832,153.74662 473.47049783200004,153.83005 480.225897832,153.89675 486.980797832,153.94670000000002 493.734697832,153.97988 500.487497832,153.99626 507.238797832,153.99581 513.987997832,153.97836 520.7347978319999,153.94353 527.478797832,153.89096 534.2195978320001,153.82027 540.956897832,153.73111 547.6901978320001,153.62312 554.419297832,153.49596000000003 561.143797832,153.34926000000002 567.863397832,153.1827 574.5777978320001,152.99592 581.286797832,152.7886 587.990097832,152.56039 594.6874978320001,152.31098 601.3786978320001,152.04003 608.063597832,151.74722 614.741897832,151.43223 621.413397832,151.09474 628.078197832,150.73443 634.735997832,150.35096000000001 641.386997832,149.94402 648.0311978320001,149.51327 654.668797832,149.05836 661.300097832,148.57896 667.925397832,148.07469 674.5448978320001,147.54521 681.159097832,146.99013 687.768597832,146.40906 694.373797832,145.80159 700.975397832,145.16731 707.573997832,144.50577 714.170397832,143.81657 720.764797832,143.09936 727.3575978320001,142.35382 733.948597832,141.57962 740.537397832,140.7765 747.123697832,139.94422 753.706397832,139.08256 760.284497832,138.19137 766.856697832,137.27053999999998 773.421397832,136.32004 779.9767978320001,135.33987000000002 786.5207978320001,134.33013 793.051297832,133.29097000000002 799.5656978320001,132.22263 806.061397832,131.12542000000002 812.535597832,129.99975 818.986197832,128.84599 825.411797832,127.66439 831.812097832,126.45509000000001 838.187297832,125.21804 844.538597832,123.95307 850.867897832,122.65979 857.177797832,121.33765 863.471497832,119.98588000000001 869.753097832,118.6035 876.0271978320001,117.18927 882.299097832,115.74168 888.575097832,114.25891 894.862097832,112.73879 901.168197832,111.17875000000001 907.502397832,109.57575 913.8721978320001,107.927 920.276597832,106.2319 926.7027978320001,104.49306 933.125697832,102.71684 939.508497832,100.91351 945.805297832,99.0969 951.965397832,97.28328 957.9397978320001,95.48968 963.6883978320001,93.73144 969.186797832,92.01985 974.4246978320001,90.36203 979.402797832,88.761669 984.1289978320001,87.219821 988.6157978320001,85.735755 992.878097832,84.307579 996.931397832,82.93271800000001 1000.791397832,81.608256 1003.993897832,80.49813" stroke="black" stroke-width="2.0" /></svg>