<?xml version="1.0" encoding="utf-8" ?>
<svg baseProfile="full" height="139.7732" version="1.1" width="1012.2799045" xmlns="http://www.w3.org/2000/svg" xmlns:ev="http://www.w3.org/2001/xml-events" xmlns:xlink="http://www.w3.org/1999/xlink"><defs /><polygon fill="none" points="1004.2799045,101.48834000000001 1000.8932045,100.549002 996.8077045,99.421986 992.5127045,98.244444 987.9903045,97.01257000000001 983.2221045,95.722649 978.1905045,94.37135500000001 972.8802045,92.956214 967.2808045,91.47628 961.3907045000001,89.933 955.2209045000001,88.33131 948.8001045000001,86.68053 942.1729045000001,84.99391 935.3919045000001,83.28634000000001 928.5111045000001,81.57243 921.5785045,79.86485 914.6313045,78.17303000000001 907.6925045,76.50269 900.7705045,74.85578000000001 893.8622045000001,73.23141000000001 886.9621045,71.62816000000001 880.0654045,70.04478 873.1677045,68.48021 866.2651045,66.93355000000001 859.3543045,65.40405000000001 852.4324045000001,63.891110000000005 845.4972045,62.39426 838.5467045,60.91317 831.5795045000001,59.44762000000001 824.5948045,57.997510000000005 817.5922045,56.56287000000001 810.5718045,55.14383 803.5345045,53.74063 796.4815045,52.353570000000005 789.4143045000001,50.98284000000001 782.3343045,49.62861 775.2432045,48.29102 768.1423045000001,46.970180000000006 761.0329045000001,45.666180000000004 753.9166045000001,44.379090000000005 746.7945045,43.10896000000001 739.6680045,41.855810000000005 732.5383045,40.61965000000001 725.4065045,39.40046000000001 718.2737045,38.198220000000006 711.1410045,37.01287000000001 704.0095045,35.844330000000014 696.8799045000001,34.69263000000001 689.7531045000001,33.558139999999995 682.6296045000001,32.44130000000001 675.5100045000002,31.342510000000004 668.3943045000001,30.262130000000013 661.2829045000001,29.200509999999994 654.1756045,28.157970000000006 647.0722045,27.1348 639.9724045,26.131270000000015 632.8757045000001,25.147639999999996 625.7814045000001,24.18414 618.6889045,23.240989999999996 611.5971045,22.318420000000003 604.5050045,21.41662000000001 597.4115045,20.53573 590.3152045,19.675610000000006 583.2155045000001,18.836070000000007 576.1116045000001,18.01697 569.0031045000001,17.218190000000007 561.8897045000001,16.439660000000003 554.7716045000001,15.681309999999996 547.6489045000001,14.943120000000008 540.5223045,14.225080000000005 533.3923045000001,13.527200000000008 526.2599045000001,12.849490000000003 519.1265045000001,12.192000000000007 511.99340450000005,11.554770000000005 504.8622045,10.937830000000005 497.73490449999997,10.341369999999998 490.61340449999994,9.766199999999998 483.4993045,9.21332000000001 476.3942045,8.683670000000006 469.2996045,8.178160000000005 462.2165045,7.697680000000005 455.1461045,7.243040000000008 448.0892045,6.815070000000006 441.04650449999997,6.414510000000007 434.0186045,6.042110000000008 427.00580449999995,5.698580000000007 420.0083045,5.384620000000012 413.0263045,5.1008700000000005 406.0596045,4.84799000000001 399.1082045,4.626630000000006 392.1718045,4.437470000000005 385.2505045,4.28125 378.3442045,4.158680000000018 371.4528045,4.070480000000003 364.5763045,4.017360000000011 357.7147045,4.0 350.8680045,4.019120000000001 344.0361045,4.07538000000001 337.21910449999996,4.16949000000001 330.4170045,4.302099999999996 323.6297045,4.4739 316.8574045,4.68553 310.0999045,4.937670000000011 303.3574045,5.23096000000001 296.6299045,5.56598000000001 289.9173045,5.943100000000001 283.21930449999996,6.362680000000012 276.5356045,6.825119999999998 269.8652045,7.330849999999998 263.2072045,7.880330000000001 256.5605045,8.474090000000004 249.92340449999998,9.112700000000004 243.2949045,9.796690000000012 236.67500449999997,10.526409999999998 230.0651045,11.302080000000004 223.46810449999998,12.123680000000007 216.8882045,12.990949999999998 210.33100449999998,13.903300000000002 203.80320449999996,14.859830000000002 197.3125045,15.859629999999996 190.8656045,16.902850000000015 184.4666045,17.990139999999997 178.1167045,19.12245 171.8143045,20.30116000000001 165.5558045,21.528120000000015 159.3354045,22.805720000000008 153.1451045,24.136970000000005 146.9757045,25.525070000000014 140.82180449999998,26.971720000000005 134.6849045,28.476960000000005 128.5735045,30.038930000000008 122.5030045,31.65359000000001 116.4947045,33.31461 110.5744045,35.013419999999996 104.77070450000001,36.739580000000004 99.11225449999999,38.48244000000001 93.6243345,40.2367 88.32142449999999,42.00038 83.2082145,43.77308000000001 78.2825445,45.55557 73.5377945,47.34867 68.9719545,49.149100000000004 64.5927045,50.948730000000005 60.4119845,52.736520000000006 56.4409845,54.50048 52.6870045,56.229440000000004 49.1563545,57.91429000000001 45.852424500000005,59.549060000000004 42.7707045,61.13074 39.9013245,62.65854 37.231404500000004,64.13320000000002 34.746714499999996,65.55653000000001 32.4327545,66.93089 30.2754745,68.25896 28.261584499999998,69.54382000000001 26.376624500000002,70.79473 24.6082645,72.02275 22.9481045,73.23403 21.3895145,74.43135000000001 19.9263945,75.61543 18.552634500000003,76.78587 17.2619545,77.94182 16.0483745,79.08204 14.910784500000002,80.20192 13.849122500000002,81.29675 12.860966500000002,82.36452 11.9427545,83.40487 11.090539499999998,84.41841000000001 10.3004005,85.40626 9.5686475,86.36979000000001 8.8919175,87.31046 8.2671995,88.22974 7.6918335,89.12909 7.1634985,90.00986 6.6801835,90.87336 6.2401655,91.7208 5.8419885,92.55332000000001 5.484439500000001,93.372 5.1665361,94.177841 4.8875068,94.97179100000001 4.6467860000000005,95.75474600000001 4.444005,96.527563 4.2789889108,97.29105700000001 4.1517571,98.046019 4.0625279,98.79321800000001 4.0117267,99.53340700000001 4.0,100.26733700000001 4.0282342,100.995761 4.0975823,101.71944500000001 4.20949853,102.43918040000001 4.3657151899999995,103.1557944 4.5668426,103.87015000000001 4.8123715,104.58307 5.1020215,105.295309 5.4357825,106.007563 5.8139025,106.72047400000001 6.2368825,107.434634 6.7054755,108.150581 7.2206895,108.86880000000001 7.7837905,109.58971000000001 8.396307499999999,110.31365000000001 9.0600425,111.040858 9.7770665,111.77143000000001 10.549711499999999,112.50527500000001 11.380539500000001,113.24204 12.2722815,113.98098 13.2277085,114.72086 14.2494095,115.45965000000001 15.339394500000001,116.19429000000001 16.4984645,116.92020000000001 17.7258645,117.63129 19.0243045,118.32412000000001 20.3989545,118.99731 21.8551245,119.65009 23.3982145,120.28256 25.033794500000003,120.89615 26.767844500000002,121.49415 28.607254500000003,122.08242000000001 30.5606945,122.66955 32.6381545,123.25915 34.8499445,123.84979000000001 37.2067545,124.43951000000001 39.7195545,125.02592000000001 42.3995745,125.60619 45.2582245,126.17707 48.3068345,126.73483 51.5560645,127.27531 55.0162345,127.79403 58.7009345,128.28707 62.6292145,128.75178 66.82018450000001,129.18622 71.2900145,129.58944000000002 76.0488245,129.96216 81.0970845,130.30766 86.4218945,130.62683 91.9982345,130.91413 97.7948145,131.16421000000003 103.7813545,131.37312 109.9370045,131.53851 116.2495045,131.65983 122.7055045,131.73759 129.2894045,131.7732 135.98420449999998,131.76893 142.77210449999998,131.72792 149.6355045,131.6541 156.5575045,131.55199 163.52300449999998,131.4246 170.51960449999999,131.27202 177.5374045,131.09418 184.57010449999999,130.89100000000002 191.6147045,130.66243 198.6715045,130.4083 205.7450045,130.12826 212.8424045,129.82310999999999 219.9719045,129.49642 227.1395045,129.15226 234.3493045,128.79492 241.60320449999998,128.42893 248.90050449999998,128.05911 256.23820450000005,127.69059000000001 263.6104045,127.32671 271.01050449999997,126.9671 278.4324045,126.61092000000001 285.8707045,126.25726 293.32040449999994,125.90513000000001 300.77760449999994,125.55352 308.23880449999996,125.20141000000001 315.70160450000003,124.8486 323.16380449999997,124.49565000000001 330.6236045,124.14316000000001 338.0795045,123.79171000000001 345.53020449999997,123.44185 352.97500449999995,123.09412 360.4133045,122.74903 367.84500449999996,122.40709000000001 375.2701045,122.06879 382.6889045,121.7346 390.1023045,121.40496 397.5113045,121.08031000000001 404.9171045,120.7611 412.3213045,120.44749 419.7255045,120.13897 427.1311045,119.83489 434.5392045,119.53461 441.95080449999995,119.23750000000001 449.36670449999997,118.94294000000001 456.7876045,118.65031 464.2137045,118.35900000000001 471.6454045,118.06842 479.0825045,117.77796000000001 486.52500449999997,117.48702 493.9723045,117.19503 501.42390449999994,116.90140000000001 508.87900449999995,116.60559 516.3367045,116.30764 523.7959045,116.00801 531.2561045000001,115.70716 538.7163045000001,115.40553 546.1759045000001,115.1036 553.6344045,114.80181 561.0912045,114.50061000000001 568.5460045,114.20045 575.9982045,113.90177 583.4477045000001,113.60501000000001 590.8941045,113.31060000000001 598.3375045,113.01897000000001 605.7777045,112.730546 613.2146045000001,112.44566400000001 620.6484045000001,112.16448 628.0791045000001,111.887118 635.5069045,111.61370600000001 642.9318045000001,111.34436600000001 650.3542045,111.07922 657.7742045,110.81839000000001 665.1922045,110.56199500000001 672.6083045000001,110.31015400000001 680.0231045,110.062985 687.4369045000001,109.820605 694.8502045,109.583133 702.2634045,109.350685 709.6770045000001,109.123371 717.0915045,108.901238 724.5074045,108.684302 731.9247045000001,108.47258500000001 739.3436045000001,108.266112 746.7639045000001,108.064914 754.1854045,107.86902500000001 761.6076045000001,107.678482 769.0300045,107.49332600000001 776.4519045000001,107.313597 783.8723045,107.139341 791.2903045,106.970601 798.7047045,106.807421 806.1140045000001,106.64984600000001 813.5170045000001,106.497836 820.9124045,106.351189 828.2995045,106.209676 835.6781045,106.07305600000001 843.0485045,105.941084 850.4111045,105.813508 857.7672045,105.690072 865.1181045000001,105.570518 872.4659045000001,105.45458400000001 879.8129045000001,105.342005 887.1620045000001,105.232517 894.5162045000001,105.12585200000001 901.8794045000001,105.02173900000001 909.2556045000001,104.91995800000001 916.6434045000001,104.82091700000001 924.0250045,104.725587 931.3635045000001,104.635135 938.6065045,104.55079 945.6918045,104.47368900000001 952.5561045000001,104.40470900000001 959.1442045,104.344313 965.4184045000001,104.29225000000001 971.3632045,104.24782900000001 976.9807045000001,104.21024600000001 982.2837045,104.17868100000001 987.2914045000001,104.15236300000001 992.0256045,104.130601 996.5085045000001,104.112786 1000.7617045000001,104.09839500000001 1004.2799045,104.08834" stroke="black" stroke-width="2.0" /></svg>