<?xml version="1.0" encoding="utf-8" ?>
<svg baseProfile="full" height="252.5403" version="1.1" width="1014.156598" xmlns="http://www.w3.org/2000/svg" xmlns:ev="http://www.w3.org/2001/xml-events" xmlns:xlink="http://www.w3.org/1999/xlink"><defs /><polygon fill="none" points="1006.156598,139.7227 1001.351498,137.872843 995.6966980000001,135.746483 989.909398,133.62655800000002 983.974898,131.511356 977.876298,129.39893 971.593198,127.28704 965.101398,125.17303 958.3709980000001,123.05375000000001 951.365598,120.9247 944.0435980000001,118.77458 936.3613980000001,116.58751000000001 928.275298,114.34608 919.747298,112.03173000000001 910.755698,109.62617 901.312098,107.11523 891.469498,104.50511 881.305598,101.81975 870.912998,99.08747 860.3863980000001,96.33718 849.8107980000001,93.59481 839.2513980000001,90.88074 828.7495980000001,88.20865 818.322498,85.58552 807.963998,83.01237 797.648898,80.48490000000001 787.345298,77.99492000000001 777.026098,75.53508000000001 766.669798,73.09966000000001 756.2601980000001,70.68440000000001 745.786098,68.28644 735.242098,65.90428000000001 724.628698,63.537790000000015 713.953198,61.188280000000006 703.229698,58.85849 692.478198,56.55303000000001 681.718398,54.27721000000001 670.9673980000001,52.035650000000004 660.239398,49.83216 649.5454980000001,47.66977 638.894098,45.55071000000001 628.290298,43.47657000000001 617.736798,41.44828 607.233498,39.466300000000004 596.778398,37.5305 586.3688980000001,35.64120000000001 576.003498,33.79860000000001 565.681498,32.003299999999996 555.4031980000001,30.255899999999997 545.1694980000001,28.557100000000005 534.982298,26.907600000000002 524.844098,25.308400000000006 514.7579979999999,23.760300000000015 504.727698,22.264200000000017 494.757298,20.8211 484.85049799999996,19.432500000000005 475.01079799999997,18.09960000000001 465.241298,16.823400000000007 455.544598,15.604799999999997 445.92279799999994,14.444399999999987 436.37789799999996,13.342900000000014 426.91139799999996,12.300599999999989 417.52459799999997,11.317800000000005 408.218198,10.394599999999997 398.993298,9.531299999999987 389.85119799999995,8.728700000000003 380.794498,7.987700000000018 371.82669799999996,7.309200000000004 362.95189799999997,6.693700000000007 354.17459799999995,6.141699999999986 345.499798,5.6536000000000115 336.932798,5.229399999999998 328.47869799999995,4.868799999999993 320.14269799999994,4.571400000000011 311.929598,4.336500000000001 303.844098,4.163300000000021 295.88999799999993,4.051199999999994 288.06989799999997,4.0 280.38469799999996,4.009200000000021 272.833898,4.07820000000001 265.41619799999995,4.206000000000017 258.12939800000004,4.391699999999986 250.970698,4.6340999999999894 243.939198,4.9313999999999965 237.03609799999998,5.281700000000001 230.264098,5.682700000000011 223.627498,6.131900000000002 217.130698,6.626599999999996 210.778598,7.163900000000012 204.575798,7.7409999999999854 198.525998,8.356400000000008 192.63119799999998,9.0094 186.891498,9.6995 181.305198,10.4255 175.869898,11.186500000000024 170.581798,11.981300000000005 165.436898,12.808800000000005 160.430398,13.667599999999993 155.557598,14.55680000000001 150.81369800000002,15.475099999999998 146.194998,16.421600000000012 141.69819800000002,17.39540000000001 137.320398,18.39540000000001 133.058598,19.4204 128.910198,20.469099999999997 124.87249800000001,21.540300000000002 120.94279800000001,22.6327 117.118398,23.7449 113.39679799999999,24.875699999999995 109.775198,26.023799999999994 106.250998,27.188000000000002 102.821578,28.367000000000004 99.48425800000001,29.559700000000007 96.236588,30.76490000000001 93.07639800000001,31.981800000000007 90.001558,33.2094 87.009898,34.447 84.099248,35.6935 81.267438,36.9483 78.512308,38.21050000000001 75.831708,39.4795 73.223498,40.754400000000004 70.685578,42.03466 68.216118,43.3198 65.813438,44.60955000000001 63.47580800000001,45.90365 61.201488000000005,47.20186000000001 58.988718000000006,48.50398 56.835748,49.809799999999996 54.74084800000001,51.119150000000005 52.702328,52.43185 50.71850800000001,53.74775000000001 48.78776800000001,55.06671 46.908528000000004,56.38860000000001 45.07924800000001,57.71329 43.298498,59.040670000000006 41.565318,60.37048 39.879018,61.7024 38.238918,63.036130000000014 36.644328,64.37132000000001 35.094578,65.70767000000001 33.588998,67.04483 32.126937999999996,68.38249 30.707728,69.72034000000001 29.330688,71.05805000000001 27.995148,72.39532 26.700438,73.73186000000001 25.445877999999997,75.06738 24.230788,76.4016 23.054488,77.73425 21.916278000000002,79.06507 20.815478,80.39381 19.751408,81.72024 18.723438,83.04417000000001 17.731598,84.36567 16.776168,85.68507 15.857291,87.00271000000001 14.975003000000001,88.31905 14.129261,89.63454 13.31996,90.9497 12.546953,92.26508000000001 11.810064,93.58125000000001 11.109103000000001,94.89881 10.443877,96.21839 9.814196,97.54064 9.219886,98.86621 8.660777,100.19577000000001 8.136375000000001,101.52937 7.645882,102.86643000000001 7.188561,104.20641 6.763746,105.54877 6.3708419,106.89305 6.009316,108.23881 5.6786962,109.58562 5.3785680000000005,110.9331 5.108571,112.28089 4.868399,113.62865000000001 4.657794,114.97605 4.476549,116.3228 4.324504,117.6686 4.201547,119.01319000000001 4.107613000000001,120.3563 4.042683,121.69768 4.006787,123.03710000000001 4.0,124.37432 4.022446,125.70911000000001 4.074301,127.04128 4.15579,128.37059 4.26719,129.69684999999998 4.408838,131.019848 4.581125,132.339389 4.784508000000001,133.65527 5.019507,134.96729200000001 5.286716500000001,136.275254 5.5868047,137.578953 5.9205249,138.8781849 6.2887133,140.1727443 6.691902300000001,141.462702 7.130104,142.748529 7.603341,144.03070400000001 8.111691,145.309681 8.655285,146.585888 9.234309,147.859732 9.848993,149.131592 10.499618,150.40182000000001 11.186511,151.67076 11.910039,152.93871000000001 12.67061,154.20594 13.468670000000001,155.4727 14.304698,156.7392 15.179198000000001,158.00562 16.0927,159.27209 17.045748000000003,160.53868 18.038878,161.80542 19.072648,163.07226 20.147558,164.3391 21.264098,165.60573 22.422697999999997,166.87184 23.623668,168.13701 24.867238,169.40067 26.153447999999997,170.66211 27.482148,171.92043 28.852937999999998,173.17452 30.265767999999998,174.42365 31.721458,175.6679 33.220928,176.90751 34.765147999999996,178.14287000000002 36.355118,179.37448 37.991938,180.60303 39.676788,181.82936 41.410987999999996,183.05453 43.195998,184.27985 45.033528,185.50645 46.925418,186.73465 48.873578,187.96469000000002 50.879988000000004,189.19675 52.946678,190.43107 55.075698,191.66786 57.26912800000001,192.9073 59.529028000000004,194.14961 61.857418,195.39495 64.256238,196.64348 66.72727800000001,197.8953 69.27219799999999,199.15050000000002 71.89314800000001,200.40890000000002 74.592748,201.67024 77.373718,202.93425000000002 80.238838,204.20066 83.190948,205.46926000000002 86.233018,206.73985 89.368108,208.01232 92.59944800000001,209.28656999999998 95.930468,210.56214 99.364578,211.83828 102.905088,213.11414000000002 106.555098,214.38875000000002 110.317498,215.66102999999998 114.194698,216.92975 118.189098,218.19338 122.302898,219.45012 126.537898,220.69806 130.895798,221.93521 135.377798,223.15954 139.985098,224.36899 144.718298,225.56152 149.57829800000002,226.73512 154.565898,227.88792999999998 159.68189800000002,229.01814000000002 164.927998,230.12382000000002 170.305698,231.20282 175.816398,232.25298 181.460998,233.27212 187.240698,234.25812000000002 193.15609800000001,235.20889 199.207998,236.12241 205.397198,236.99677000000003 211.72489800000002,237.83022 218.192098,238.62109 224.799698,239.36785 231.548098,240.06900000000002 238.437298,240.7233 245.46689800000001,241.3296 252.636098,241.8869 259.943898,242.39440000000002 267.3888979999999,242.85070000000002 274.96979799999997,243.25459999999998 282.68469799999997,243.60500000000002 290.53109799999993,243.9009 298.506398,244.14159999999998 306.607698,244.32659999999998 314.83179799999994,244.4553 323.175598,244.52679999999998 331.635498,244.5403 340.20789799999994,244.4952 348.88879799999995,244.3911 357.67439799999994,244.2278 366.560798,244.0053 375.54439799999994,243.72390000000001 384.62159799999995,243.3841 393.78939799999995,242.9863 403.04519799999997,242.53140000000002 412.387098,242.0201 421.81359799999996,241.4527 431.323198,240.82909999999998 440.91409799999997,240.14980000000003 450.58429799999993,239.41499 460.331598,238.62527 470.153198,237.78124 480.04649799999993,236.8837 490.008198,235.93357 500.034998,234.93192 510.123198,233.87997000000001 520.268898,232.77864 530.468898,231.6286 540.7201980000001,230.43056 551.020298,229.18525 561.367698,227.89336 571.7609980000001,226.55559 582.200098,225.17256 592.685298,223.74483 603.217798,222.27287 613.7995980000001,220.75699 624.432498,219.19737 635.115898,217.59442 645.846998,215.94895 656.620398,214.26227 667.4276980000001,212.53623 678.2578980000001,210.77324 689.096898,208.97639 699.9281980000001,207.14935000000003 710.732698,205.2964 721.490898,203.42112 732.1893980000001,201.52561 742.821198,199.61083 753.386198,197.67666 763.889998,195.72188 774.3438980000001,193.74415 784.764398,191.74002000000002 795.172998,189.70479 805.596898,187.63241 816.068298,185.51616 826.612398,183.35288 837.2347980000001,181.14393 847.9177980000001,178.89564000000001 858.618798,176.62002 869.270498,174.33474999999999 879.7859980000001,172.06225 890.068398,169.82741000000001 900.0232980000001,167.65458 909.571498,165.56422 918.660398,163.55991 927.279698,161.62665 935.4525980000001,159.74686 943.2185979999999,157.9035 950.622598,156.08092 957.7092980000001,154.26511 964.5210979999999,152.44656 971.0946980000001,150.62238 977.460298,148.790691 983.642198,146.9499 989.660998,145.098638 995.5337979999999,143.235693 1001.275298,141.359974 1006.156598,139.7227" stroke="black" stroke-width="2.0" /></svg>