<?xml version="1.0" encoding="utf-8" ?>
<svg baseProfile="full" height="112.04325" version="1.1" width="1012.02392112" xmlns="http://www.w3.org/2000/svg" xmlns:ev="http://www.w3.org/2001/xml-events" xmlns:xlink="http://www.w3.org/1999/xlink"><defs /><polygon fill="none" points="1004.02392112,64.78684000000001 1000.9900211199999,64.4359835 997.3258211199999,64.0074836 993.46772112,63.550669000000006 989.39702112,63.062423 985.0942211199999,62.539326 980.5394211199999,61.977735 975.7137211200001,61.373945000000006 970.60212112,60.72449100000001 965.1970211199999,60.026661000000004 959.50322112,59.279231 953.5440211199999,58.48341500000001 947.36622112,57.644094 941.1173211199999,56.781736 934.94872112,55.91887200000001 928.81142112,55.050557000000005 922.66512112,54.172720000000005 916.48222112,53.282920000000004 910.24762112,52.38049000000001 903.9715211199999,51.46847 897.7226211199999,50.55823000000001 891.4971211199999,49.64972 885.28022112,48.74107000000001 879.06052112,47.830870000000004 872.82982112,46.9182 866.5831211199999,46.00262000000001 860.31912112,45.08417000000001 854.03942112,44.16340000000001 847.75312112,43.24197000000001 841.4698211199999,42.32193000000001 835.18532112,41.403270000000006 828.8977211199999,40.4864 822.61622112,39.573310000000006 816.34352112,38.66503 810.07992112,37.76223 803.82442112,36.865390000000005 797.5748211199999,35.97475000000001 791.3290211199999,35.09026 785.0852211199999,34.21186 778.8420211199999,33.33958000000001 772.59842112,32.473510000000005 766.35412112,31.613800000000005 760.10892112,30.760680000000008 753.8632211199999,29.914410000000004 747.61802112,29.075380000000003 741.3741211199999,28.24410000000001 735.13212112,27.42108000000001 728.89242112,26.60681000000001 722.6554211199999,25.80172000000001 716.4208211199999,25.006230000000002 710.1886211199999,24.220720000000007 703.9583211199999,23.445560000000008 697.7292211199999,22.681010000000008 691.50062112,21.92723000000001 685.2722211199999,21.184320000000007 679.04362112,20.452450000000006 672.8148211199999,19.731770000000004 666.58582112,19.02248000000001 660.35682112,18.324790000000007 654.12832112,17.63892 647.90072112,16.965160000000004 641.67472112,16.30393000000001 635.4506211199999,15.65567 629.22862112,15.020790000000005 623.0087211199999,14.399710000000006 616.7909211199999,13.792780000000008 610.57462112,13.200390000000006 604.3596211199999,12.622870000000006 598.14512112,12.060530000000007 591.93062112,11.513630000000006 585.71582112,10.982380000000006 579.50072112,10.46707 573.28562112,9.967970000000008 567.07122112,9.485390000000002 560.8583211199999,9.019660000000009 554.64832112,8.571110000000004 548.44242112,8.140150000000006 542.24222112,7.727620000000002 536.04842112,7.334410000000005 529.86152112,6.9613900000000015 523.68132112,6.6093700000000055 517.50692112,6.279140000000005 511.33732112,5.9714600000000075 505.17072112,5.687100000000008 499.00482112000003,5.4266700000000085 492.83742112000004,5.189920000000008 486.66662112,4.976240000000004 480.49102111999997,4.7850600000000085 474.30982112,4.615840000000006 468.12262111999996,4.468080000000008 461.92942112000003,4.341270000000009 455.73092112000006,4.2349200000000025 449.52812112000004,4.148560000000003 443.32262112,4.081970000000005 437.11532112000003,4.035070000000012 430.90712112000006,4.007780000000004 424.69872112,4.0 418.49032112000003,4.011620000000008 412.28182112,4.042550000000006 406.07292112,4.092670000000005 399.86312112,4.161900000000003 393.65152112000004,4.249980000000008 387.43742112,4.356570000000005 381.22062112000003,4.481310000000001 375.00082112,4.623860000000008 368.77822112,4.783840000000005 362.55292112,4.9609100000000055 356.32562112,5.15467000000001 350.09712112000005,5.364760000000004 343.86832112,5.591040000000007 337.64012112,5.83364000000001 331.41322112,6.092670000000005 325.18832112,6.368240000000007 318.96572112,6.66048 312.74582112,6.969510000000007 306.52862112,7.295440000000006 300.31432112000005,7.6384100000000075 294.10262112000004,7.99860000000001 287.89362112000003,8.37621 281.68722112,8.771419999999999 275.48332112,9.184430000000006 269.28222112000003,9.615450000000003 263.08382112000004,10.064660000000003 256.88832112,10.532230000000006 250.69602112,11.018360000000001 244.50712112000002,11.523230000000005 238.32182112,12.047030000000007 232.14022112,12.589960000000005 225.96242112000002,13.15223000000001 219.78852112,13.734060000000007 213.61822112000002,14.335660000000004 207.45162112,14.957270000000008 201.28832112,15.599120000000006 195.12822112,16.261620000000008 188.97142112,16.94537000000001 182.81872112000002,17.650960000000005 176.67112112,18.3789 170.53042112,19.12962000000001 164.39872112000003,19.903460000000003 158.27852112,20.700670000000002 152.17312112000002,21.5214 146.08582112,22.365890000000007 140.01932112,23.23502 133.97522112000001,24.129910000000002 127.95312112,25.051880000000004 121.95152112,26.002440000000007 115.96742112,26.98338000000001 109.99642112,27.996770000000005 104.03292112,29.04500000000001 98.07014112,30.130860000000006 92.10686111999999,31.256490000000007 86.15638112,32.42132 80.24764112,33.621140000000004 74.42255112,34.848400000000005 68.72033112,36.09892000000001 63.149341119999995,37.3768 57.687511119999996,38.69241000000001 52.28962112,40.062430000000006 46.900791119999994,41.50710000000001 41.542811119999996,43.024550000000005 36.368091119999995,44.57108000000001 31.58627112,46.074690000000004 27.338621120000003,47.47343000000001 23.66215112,48.75267000000001 20.55423112,49.930910000000004 17.958261120000003,51.01769 15.78242112,52.023540000000004 13.93977612,52.95973000000001 12.367302120000002,53.83599000000001 11.01404512,54.66167000000001 9.83859112,55.44946300000001 8.80625012,56.23254 7.89474612,57.031344000000004 7.09816612,57.83455500000001 6.412637119999999,58.623968000000005 5.82882912,59.392329000000004 5.33713312,60.13787800000001 4.92947302,60.861288 4.59969512,61.56427000000001 4.34352162,62.24894200000001 4.15843382,62.917567000000005 4.04361341,63.572469000000005 4.0,64.21603630000001 4.030514376,64.85078757000001 4.13803012,65.4797361 4.32073892,66.106582 4.57773612,66.73472100000001 4.91009922,67.367242 5.32083212,68.007041 5.81495712,68.656851 6.39969612,69.31912600000001 7.08459412,69.995658 7.881152119999999,70.686552 8.80067112,71.387766 9.84676612,72.085542 11.01425012,72.75942900000001 12.32399812,73.414539 13.82248612,74.076066 15.56301112,74.757034 17.610411120000002,75.46828000000001 20.04388112,76.22108 22.96669112,77.02061 26.470191120000003,77.86879 30.58146112,78.77353000000001 35.276691119999995,79.75307000000001 40.47490112,80.78287 45.98596112,81.81375 51.60444112,82.80213 57.23189112,83.73074 62.89601112,84.60786 68.64859111999999,85.44762 74.51913112,86.26017 80.50818111999999,87.05188000000001 86.58185112,87.82392000000002 92.69409112000001,88.57121000000001 98.81181112,89.28989 104.91922111999999,89.97866 111.01742112000001,90.63844 117.11552112,91.27164 123.22142111999999,91.88058000000001 129.34142112,92.46728 135.47962112000002,93.03352000000001 141.63852112,93.58086 147.81832112,94.11068 154.01742112000002,94.62423000000001 160.23192112000004,95.1225 166.45732112000002,95.60556000000001 172.68932112000002,96.07325 178.92462112,96.52547 185.16092112,96.96224000000001 191.39662112000002,97.38366 197.63092112,97.7899 203.86402112000002,98.18116 210.09692112000002,98.55774 216.33092112,98.92000000000002 222.56732112,99.26832000000002 228.80692112000003,99.60305 235.05022112,99.92450000000001 241.29752112,100.23299 247.54872112000004,100.52880000000002 253.80332112000002,100.81221000000001 260.06082112,101.08346 266.32012112,101.34261000000001 272.58072112,101.58967000000001 278.84212112,101.82466 285.10382112,102.04761 291.36582112,102.25855000000001 297.62802111999997,102.45752 303.89062112,102.64457 310.15392112,102.81975 316.41832112000003,102.98314 322.68392112000004,103.13482 328.95092112000003,103.27486 335.21912112,103.40333000000001 341.48822112,103.52029999999999 347.75782112,103.62583000000001 354.02712112,103.72 360.29542112,103.80282 366.56192112,103.87400000000001 372.82602112,103.93321 379.08722112,103.98008 385.34542111999997,104.01427000000001 391.60052112,104.03544000000001 397.85282112,104.04325 404.10282112000004,104.03735 410.35082112,104.01742000000002 416.59772112,103.98326 422.84362112,103.93469 429.08882112000003,103.87152 435.33292112000004,103.7936 441.57572112,103.70073000000001 447.81652112,103.59277 454.05422112,103.46956 460.28792112,103.33092 466.51642111999996,103.1764 472.73922112,103.00552 478.95602112000006,102.81778 485.16732112,102.61266 491.37392112000003,102.38963000000001 497.57702112000004,102.14813000000001 503.77832112,101.88756000000001 509.98002112,101.60751 516.18442112,101.30846 522.3933211199999,100.99119000000002 528.60792112,100.65647000000001 534.8293211199999,100.30509 541.0578211199999,99.93787 547.29332112,99.55567 553.53522112,99.15935999999999 559.78242112,98.74983 566.03372112,98.32758000000001 572.28802112,97.89306 578.54452112,97.44666000000001 584.8025211199999,96.98881 591.0616211199999,96.51989 597.3217211199999,96.04029 603.58282112,95.55037 609.8452211199999,95.05048000000001 616.10922112,94.54094 622.37522112,94.02209 628.64342112,93.49426000000001 634.9137211199999,92.9578 641.18632112,92.41306 647.46112112,91.8604 653.7380211199999,91.30019000000001 660.01662112,90.7328 666.29682112,90.15857 672.57852112,89.57780000000001 678.86152112,88.99080000000001 685.14622112,88.39786000000001 691.43252112,87.79927 697.7210211199999,87.19531 704.01202112,86.58622 710.30612112,85.97231000000001 716.6037211199999,85.3541 722.9054211199999,84.73214 729.2112211199999,84.107 735.52122112,83.47928 741.8352211199999,82.84959 748.15302112,82.21858 754.47402112,81.58689000000001 760.79742112,80.9551 767.12112112,80.32363000000001 773.44422112,79.69271 779.76762112,79.06240000000001 786.09182112,78.43282 792.41412112,77.80436 798.7332211199999,77.17733000000001 805.0477211199999,76.552 811.3565211199999,75.929 817.6585211199999,75.30968 823.95282112,74.69546100000001 830.23862112,74.08773500000001 836.5151211199999,73.48787200000001 842.7817211199999,72.897215 849.0380211199999,72.31707800000001 855.2836211199999,71.748743 861.51842112,71.19296 867.7430211199999,70.649467 873.95932112,70.117806 880.17042112,69.59743900000001 886.38052112,69.087753 892.59502112,68.588069 898.82052112,68.09764700000001 905.06512112,67.61569800000001 911.3370211199999,67.143234 917.63802112,66.685725 923.95832112,66.25007400000001 930.2758211199999,65.84390200000001 936.5571211199999,65.4750379 942.7598211199999,65.1507907 948.83642112,64.87715663 954.7402211199999,64.65812030000001 960.4307211199999,64.4941598 965.8809211199999,64.3809549 971.07842112,64.3129242 976.02232112,64.28436430000001 980.71942112,64.2898636 985.18142112,64.3245234 989.4226211199999,64.3840406 993.45812112,64.4647075 997.3034211199999,64.5633664 1000.97312112,64.67734610000001 1004.02392112,64.78684000000001" stroke="black" stroke-width="2.0" /></svg>