<?xml version="1.0" encoding="utf-8" ?>
<svg baseProfile="full" height="72.05824" version="1.1" width="1012.008558539" xmlns="http://www.w3.org/2000/svg" xmlns:ev="http://www.w3.org/2001/xml-events" xmlns:xlink="http://www.w3.org/1999/xlink"><defs /><polygon fill="none" points="1004.008558539,44.99554 1001.270258539,44.6865911 997.9626585389999,44.312115399999996 994.478658539,43.916129999999995 990.7998585390001,43.496316 986.906658539,43.05011 982.777658539,42.574743 978.391358539,42.067333 973.727558539,41.525082999999995 968.770458539,40.945636 963.5131585390001,40.327633 957.9647585390001,39.671515 952.169858539,38.981991 946.420558539,38.293818 940.782258539,37.615528 935.1941585389999,36.940495 929.6106585389999,36.263797 923.9974585389999,35.581796999999995 918.329558539,34.89197 912.5912585389999,34.19297 906.777958539,33.48477 900.918958539,32.771559999999994 895.095558539,32.06388 889.299158539,31.361289999999997 883.513558539,30.66245 877.7264585390001,29.96649 871.928758539,29.272949999999994 866.1142585389999,28.581749999999996 860.2800585389999,27.89323 854.426658539,27.208129999999997 848.557658539,26.52749 842.679258539,25.852149999999998 836.8017585389999,25.18334 830.924658539,24.52096 825.0449585389999,23.864699999999996 819.163058539,23.214589999999998 813.285258539,22.57133 807.412258539,21.93497 801.543658539,21.305469999999996 795.678358539,20.682869999999998 789.814958539,20.06742 783.952658539,19.459429999999998 778.090558539,18.859189999999998 772.228058539,18.267049999999998 766.364658539,17.68336 760.500158539,17.1085 754.634558539,16.54287 748.7679585389999,15.98686 742.9005585389999,15.440769999999997 737.032658539,14.904859999999996 731.164358539,14.379389999999997 725.2958585389999,13.864589999999996 719.4272585389999,13.36073 713.558558539,12.868039999999993 707.689958539,12.386769999999999 701.8212585389999,11.917139999999996 695.952458539,11.459450000000004 690.083558539,11.014089999999996 684.214558539,10.581420000000001 678.345458539,10.161830000000002 672.4763585389999,9.75571 666.6074585389999,9.363429999999994 660.7387585390001,8.985390000000002 654.870458539,8.621969999999997 649.002758539,8.273549999999993 643.135858539,7.940420000000003 637.2697585389999,7.62285 631.404458539,7.3211200000000005 625.539658539,7.035469999999997 619.6749585389999,6.766149999999996 613.809958539,6.51343 607.943858539,6.277549999999998 602.075958539,6.0587599999999995 596.2053585389999,5.856720000000003 590.3312585389999,5.6702999999999975 584.4531585389999,5.498299999999993 578.5708585389999,5.33952 572.684258539,5.192779999999999 566.793558539,5.05688 560.899158539,4.93065 555.001858539,4.812899999999999 549.102458539,4.7025700000000015 543.201958539,4.5995399999999975 537.301158539,4.504010000000001 531.400758539,4.4162099999999995 525.5011585389999,4.33634 519.602658539,4.2646000000000015 513.7053585389999,4.201189999999997 507.809258539,4.14631 501.91395853899996,4.100149999999999 496.019358539,4.062799999999996 490.124958539,4.034189999999995 484.230458539,4.014240000000001 478.33565853899995,4.002859999999998 472.44045853899996,4.0 466.544758539,4.005569999999999 460.648458539,4.019489999999998 454.751758539,4.041689999999996 448.854658539,4.072110000000002 442.9573585389999,4.110729999999997 437.059958539,4.157559999999997 431.16265853899995,4.212609999999998 425.26545853899995,4.275889999999997 419.36845853899996,4.3474 413.471758539,4.4271499999999975 407.575458539,4.5151599999999945 401.67935853899996,4.611419999999995 395.78355853899996,4.7159599999999955 389.88815853899996,4.828819999999993 383.99295853899997,4.950029999999998 378.098058539,5.0796199999999985 372.203458539,5.217640000000003 366.30915853899995,5.36412 360.415158539,5.5190899999999985 354.521458539,5.682600000000001 348.627958539,5.854689999999998 342.7347585389999,6.035379999999996 336.841858539,6.224719999999998 330.94925853899997,6.4227399999999975 325.05705853899997,6.629480000000001 319.165258539,6.8449699999999964 313.273958539,7.0692399999999935 307.38315853899996,7.302339999999994 301.49285853899994,7.5443 295.60335853899994,7.795200000000001 289.71465853899997,8.055250000000001 283.826858539,8.324629999999999 277.939958539,8.60353 272.05415853899996,8.892160000000004 266.16945853899995,9.1907 260.28585853899995,9.499359999999996 254.40345853899998,9.818310000000004 248.522358539,10.147750000000002 242.64255853900002,10.487830000000002 236.76395853900001,10.838649999999994 230.886558539,11.200359999999996 225.010458539,11.573069999999994 219.135358539,11.95691 213.261158539,12.35203 207.387858539,12.75855 201.515058539,13.176619999999996 195.642658539,13.606499999999997 189.77075853899998,14.04862 183.899458539,14.503419999999998 178.029158539,14.9713 172.160658539,15.452679999999997 166.29465853899998,15.947899999999997 160.432258539,16.457309999999996 154.574858539,16.981229999999996 148.723758539,17.519969999999997 142.880558539,18.074159999999996 137.045758539,18.644629999999996 131.219358539,19.232249999999997 125.400458539,19.837989999999998 119.58745853900001,20.462909999999997 113.77785853900001,21.108179999999997 107.968558539,21.77507 102.15558853900001,22.46502 96.334948539,23.17921 90.506588539,23.91765 84.677148539,24.679389999999998 78.86012853900002,25.462429999999998 73.07469853900001,26.26496 67.334908539,27.09152 61.63803853899999,27.95057 55.964588539,28.853019999999997 50.279148539,29.8127 44.543998539,30.838209999999997 38.757358539,31.926389999999998 32.969578539,33.06328 27.282988538999998,34.22282 21.854728539,35.422363 16.942998539,36.734877 12.790485538999999,38.119651 9.779623539,39.323907999999996 7.804583539,40.383888999999996 6.526093539,41.270433999999995 5.642246539,42.017464 5.004223839,42.676349 4.545285139,43.275743 4.232924439,43.832806999999995 4.052222229,44.3590257 4.0,44.8630524 4.081933889,45.352567 4.297683939,45.8364526 4.648806439,46.323654 5.148831539,46.823533999999995 5.828416539,47.347947 6.750464539,47.914837999999996 8.054810539,48.555704999999996 10.058972538999999,49.305723 13.073507538999998,50.077304 17.288658538999996,50.885464999999996 22.501158539000002,51.603044999999995 28.238898538999997,52.178347 34.062988539,52.69963 39.889098539,53.209494 45.707688539,53.699867 51.517148539000004,54.163115 57.323518539,54.59247 63.139488539,54.988291 68.97612853900002,55.35803 74.837648539,55.70907 80.720968539,56.0485 86.616088539,56.3807 92.51207853900002,56.70435 98.402038539,57.017559999999996 104.283358539,57.31876 110.157758539,57.60688 116.028558539,57.882509999999996 121.899158539,58.14664 127.771958539,58.40021 133.648958539,58.64411 139.531158539,58.8792 145.419158539,59.10629 151.31275853900001,59.3262 157.211158539,59.539699999999996 163.113058539,59.7472 169.016958539,59.94871 174.921858539,60.14423 180.826958539,60.33378 186.731458539,60.51737 192.635058539,60.69504 198.537758539,60.866839999999996 204.43955853900002,61.032799999999995 210.340758539,61.19302 216.24185853900002,61.34765 222.143258539,61.49686 228.045158539,61.640829999999994 233.947758539,61.77974 239.851358539,61.913759999999996 245.755858539,62.04306 251.66135853900002,62.1678 257.56755853899995,62.28815 263.47455853899993,62.40421 269.38205853899996,62.51604999999999 275.289958539,62.62374 281.19805853899993,62.727329999999995 287.106358539,62.82689 293.01475853899996,62.922470000000004 298.923158539,63.01415 304.83155853899996,63.10199 310.73985853899995,63.18604 316.648058539,63.26626 322.55615853899997,63.34263 328.464258539,63.41511 334.37215853899994,63.48367 340.280058539,63.54827 346.187858539,63.60889 352.095758539,63.66548 358.003758539,63.71801 363.911858539,63.76652 369.820158539,63.81108 375.72875853899995,63.851749999999996 381.637558539,63.88861 387.54665853899996,63.92173 393.455958539,63.951179999999994 399.365458539,63.97703 405.27515853899996,63.99934999999999 411.18505853899995,64.01817 417.094958539,64.03347 423.00485853899994,64.04518 428.914758539,64.05324 434.82455853899995,64.05761 440.734058539,64.05824 446.64335853899996,64.05507 452.552258539,64.04804 458.4607585389999,64.03711 464.368758539,64.02221 470.27625853899997,64.00331 476.183158539,63.980329999999995 482.08975853899994,63.95321 487.996058539,63.92192 493.902358539,63.88637 499.808858539,63.84652 505.71585853899995,63.80231 511.62365853899996,63.75375 517.532558539,63.70102 523.4427585389999,63.6443 529.354058539,63.58376 535.266258539,63.519589999999994 541.1789585390001,63.451989999999995 547.091558539,63.38114 553.0034585389999,63.30724 558.913758539,63.23035 564.8214585389999,63.14965 570.726058539,63.06397 576.626858539,62.97217 582.523758539,62.87308 588.416658539,62.76554 594.3059585389999,62.648399999999995 600.191958539,62.520489999999995 606.075358539,62.38066 611.957058539,62.22833 617.837858539,62.06368 623.718458539,61.88696 629.599358539,61.6984 635.481058539,61.498239999999996 641.363758539,61.286719999999995 647.247658539,61.06408 653.1327585390001,60.83059 659.0190585390001,60.5865 664.906258539,60.332229999999996 670.794358539,60.068239999999996 676.6832585389999,59.79496 682.572858539,59.512859999999996 688.463158539,59.22237 694.354158539,58.92396 700.245958539,58.61807 706.138658539,58.305139999999994 712.032158539,57.9856 717.9267585389999,57.65983 723.822458539,57.32824 729.719058539,56.99122 735.616658539,56.64918 741.514958539,56.30253 747.413958539,55.95167 753.313258539,55.59701 759.212658539,55.23898 765.111858539,54.877907 771.010758539,54.514132 776.9095585389999,54.147965 782.808558539,53.77971 788.7080585389999,53.40966 794.608758539,53.038095999999996 800.511358539,52.66529 806.416958539,52.291508 812.322258539,51.9174 818.223258539,51.543789 824.120558539,51.171231999999996 830.015358539,50.800233 835.9096585389999,50.431245 841.806158539,50.064678 847.708558539,49.7009 853.6114585390001,49.340821999999996 859.4998585389999,48.985879 865.3696585389999,48.636538 871.220558539,48.292992999999996 877.0548585390001,47.955256999999996 882.877958539,47.623179 888.6981585389999,47.296469 894.526658539,46.974702 900.377758539,46.657326999999995 906.2678585389999,46.343804 912.140358539,46.039100999999995 917.9475585389999,45.7494338 923.694358539,45.478094299999995 929.396458539,45.2277188 935.079558539,45.000608361 940.7792585389999,44.7990633 946.5432585389999,44.6257738 952.409258539,44.484924 958.142258539,44.3855065 963.6221585389999,44.3269788 968.822158539,44.3044325 973.735358539,44.3126422 978.3684585389999,44.3466479 982.735858539,44.4020417 986.856158539,44.475059099999996 990.749058539,44.5625609 994.434158539,44.6619637 997.9299585389999,44.771155799999995 1001.253658539,44.888414499999996 1004.008558539,44.99554" stroke="black" stroke-width="2.0" /></svg>