<?xml version="1.0" encoding="utf-8" ?>
<svg baseProfile="full" height="192.25498" version="1.1" width="1012.3472764" xmlns="http://www.w3.org/2000/svg" xmlns:ev="http://www.w3.org/2001/xml-events" xmlns:xlink="http://www.w3.org/1999/xlink"><defs /><polygon fill="none" points="1004.3472764,115.0867 1000.6362764,114.34207239999999 996.1619764000001,113.438808 991.4612764000001,112.483402 986.5153764,111.47099999999999 981.3050764000001,110.396547 975.8122764000001,109.255023 970.0219764000001,108.04184799999999 963.9247764,106.753498 957.5213764000001,105.38838899999999 950.8267764000001,103.94798 943.8722764000001,102.4375 936.6999764000001,100.86483 929.3562764000001,99.2392 921.8855764000001,97.56979 914.3239764,95.86426999999999 906.6942764,94.12760999999999 899.0027764000001,92.36128 891.2442764000001,90.56528 883.4141764000001,88.74020999999999 875.5105764,86.88745 867.5345764,85.00917999999999 859.4910764000001,83.10862 851.3888764,81.19001 843.2404764,79.25771 835.0593764,77.31546999999999 826.8584764000001,75.36692 818.6498764,73.41554 810.4449764000001,71.46458999999999 802.2539764,69.51711 794.0852764000001,67.57648 785.9452764000001,65.64643999999998 777.8373764,63.73011999999999 769.7628764,61.830009999999994 761.7206764,59.948029999999996 753.7075764,58.085519999999995 745.7188764000001,56.242999999999995 737.7500764000001,54.42018999999999 729.7982764,52.61699999999999 721.8613764000002,50.83363 713.9384764,49.07052 706.0299764,47.32835 698.1370764000001,45.60807 690.2613764,43.91092999999999 682.4038764000001,42.23809 674.5651764,40.59061999999999 666.7451764,38.969409999999996 658.9436764000001,37.37527 651.1595764000001,35.80887 643.3917764,34.27069999999999 635.6391764000001,32.76113999999998 627.9011764,31.28064999999998 620.1770764,29.829669999999993 612.4663764000001,28.408699999999982 604.7688764000001,27.018280000000004 597.0846764,25.658999999999992 589.4139764000001,24.33166999999999 581.7577764000001,23.03721999999999 574.1177764,21.776639999999986 566.4960764000001,20.550969999999992 558.8953764,19.361279999999994 551.3187764000002,18.208669999999984 543.7695764000001,17.094419999999985 536.2494764,16.019839999999988 528.7582764,14.985899999999987 521.2939764,13.99329999999999 513.8527763999999,13.042599999999993 506.42927640000005,12.13409999999999 499.0164764,11.26809999999999 491.6078764,10.443999999999988 484.2014764,9.661699999999982 476.7998764,8.921399999999991 469.4105764,8.2239 462.0455764,7.569999999999993 454.7212764,6.960699999999989 447.4569764,6.39739999999999 440.2695764,5.884599999999992 433.16667640000003,5.426899999999989 426.1470764,5.027899999999988 419.20227639999996,4.6902999999999935 412.3176764,4.416799999999995 405.4729764,4.210199999999986 398.6424764,4.073199999999986 391.7987764,4.004400000000004 384.9187764,4.0 377.98557639999996,4.056599999999989 370.9881764,4.171499999999995 363.92257639999997,4.341700000000003 356.7923764,4.563699999999997 349.61007639999997,4.833500000000001 342.3956764,5.149000000000001 335.1688764,5.510499999999993 327.9453764,5.91849999999998 320.73667639999996,6.373099999999994 313.5497764,6.87469999999999 306.3871764,7.423799999999986 299.2473764,8.020999999999987 292.12527639999996,8.66709999999999 285.0160764,9.362099999999998 277.9160764,10.106399999999994 270.8228764,10.899900000000002 263.7351764,11.742799999999988 256.6528764,12.634999999999991 249.5770764,13.57629999999999 242.5101764,14.56649999999999 235.4552764,15.605149999999995 228.4168764,16.69175 221.4001764,17.825439999999986 214.4112764,19.005089999999996 207.4569764,20.229269999999985 200.5450764,21.4962 193.68347640000002,22.804159999999996 186.88027639999999,24.15233999999998 180.14227640000001,25.540089999999992 173.47537640000002,26.96674999999999 166.8840764,28.43163 160.3720764,29.934079999999994 153.9421764,31.473429999999993 147.59617640000002,33.04908999999999 141.3367764,34.66054 135.17137639999999,36.306349999999995 129.1116764,37.98339999999999 123.1726764,39.68705 117.37107639999999,41.41135 111.7236764,43.149429999999995 106.24607639999999,44.893879999999996 100.9515264,46.637249999999995 95.8501364,48.37262999999999 90.9502164,50.094570000000004 86.2582164,51.79791999999999 81.77772639999999,53.47776999999999 77.5091064,55.129819999999995 73.44960640000001,56.75057999999999 69.59421640000001,58.338159999999995 65.9360264,59.89209999999999 62.4662964,61.41248999999999 59.175126399999996,62.89977 56.0520564,64.3547 53.0865064,65.77824 50.2680764,67.1715 47.5870864,68.5358 45.0359264,69.87258 42.6084664,71.18262999999999 40.2992864,72.46624 38.1032464,73.72348 36.015246399999995,74.95436 34.0302064,76.15893 32.1429864,77.33731999999999 30.348426399999997,78.48979 28.641436399999996,79.61671999999999 27.0169964,80.71857999999999 25.470236399999997,81.79597999999999 23.997246399999998,82.85022 22.595456399999996,83.88378 21.262026399999996,84.89904999999999 19.993956400000002,85.89817 18.7881264,86.88306999999999 17.6414664,87.85548 16.5509964,88.81692 15.513876400000001,89.76876999999999 14.5273964,90.71222999999999 13.5890034,91.64838 12.696579400000001,92.57793 11.8485734,93.50107 11.0435894,94.41785999999999 10.280308400000001,95.3283 9.5574714,96.23237999999999 8.873984400000001,97.13015999999999 8.2315224,98.02413999999999 7.6339594,98.91913 7.0844834,99.81969 6.5852954,100.72949 6.1354274,101.64775999999999 5.7327584,102.57208999999999 5.375413399999999,103.50044 5.0617623,104.43113 4.790408,105.362749 4.5601789,106.29410499999999 4.37012216,107.22420899999999 4.219498,108.152232 4.1077778,109.07748099999999 4.0346451,109.99937899999999 4.0,110.917446 4.0039681,111.83128599999999 4.0469149,112.74057499999999 4.1294662,113.645049 4.25253656,114.5445031 4.41734468,115.4387912 4.6245101,116.328295 4.8736982,117.21396399999999 5.1647403,118.09665 5.4976914,118.977054 5.872802399999999,119.855735 6.290498400000001,120.733092 6.7513494000000005,121.60935199999999 7.2560374,122.484541 7.8053154,123.358447 8.3999514,124.23057 9.0406514,125.10006 9.727957400000001,125.96562 10.4621104,126.82545999999999 11.242863400000001,127.67712999999999 12.0692934,128.51747999999998 12.941096400000001,129.34464 13.8597284,130.15938999999997 14.827446400000001,130.96359999999999 15.846596400000001,131.75939 16.9186564,132.54828999999998 18.044886400000003,133.33185 19.226326399999998,134.11173 20.463656399999998,134.8897 21.758646399999996,135.66701999999998 23.114626399999995,136.44449 24.5352464,137.22302 26.0243264,138.00376 27.5858964,138.78807 29.224086399999997,139.57765999999998 30.9430864,140.3746 32.7470164,141.18142 34.6400764,142.00071 36.6279764,142.83326 38.7171764,143.67925 40.9143564,144.53879999999998 43.22644639999999,145.41201 45.6605364,146.29896 48.2238364,147.19973 50.9237264,148.11454 53.7678364,149.04376 56.7642964,149.98820999999998 59.922326399999996,150.94925 63.2532764,151.92804999999998 66.7697764,152.92498 70.4844864,153.94022 74.4096364,154.97385 78.5563764,156.02576 82.9340964,157.09575 87.54978639999999,158.18322 92.4077664,159.28555999999998 97.50864639999999,160.39894999999999 102.8489164,161.51908 108.4214764,162.64148 114.2171764,163.76176999999998 120.2241764,164.87492 126.4263764,165.97566 132.8042764,167.05893 139.3359764,168.12022 145.99977639999997,169.15598 152.77577639999998,170.16382 159.6482764,171.14273 166.6069764,172.09224999999998 173.6445764,173.01104999999998 180.7535764,173.89783999999997 187.9268764,174.75151 195.15767639999999,175.57121 202.4393764,176.35631 209.76627639999998,177.10643 217.1329764,177.82121999999998 224.5344764,178.50017 231.9652764,179.14285 239.4195764,179.7489 246.8912764,180.3181 254.37407639999998,180.85028999999997 261.8614764,181.34543 269.34757640000004,181.80299 276.8284764,182.22223 284.3026764,182.60258 291.7709764,182.94362 299.2364764,183.24497 306.7048764,183.5063 314.1834764,183.72742999999997 321.6785764,183.90904 329.19087640000004,184.05189 336.71557640000003,184.15663999999998 344.24187639999997,184.22402 351.7532764,184.25498 359.2280764,184.25068 366.6423764,184.20985 373.9807764,184.12815 381.2389764,184.00146 388.4225764,183.82581 395.5456764,183.59706999999997 402.62977639999997,183.31056999999998 409.7040764,182.961 416.8017764,182.54752 423.95177639999997,182.07295 431.17637640000004,181.54009 438.4906764,180.95200999999997 445.9014764,180.3126 453.4052764,179.62700999999998 460.9870764,178.90152 468.6243764,178.13952 476.29717639999996,177.34269 483.99027639999997,176.51252 491.6939764,175.65010999999998 499.40437640000005,174.75601999999998 507.12357639999993,173.8302 514.8585764,172.87239 522.6172764,171.88291999999998 530.4055764000001,170.8623 538.2279764,169.81119999999999 546.0872764000001,168.73055 553.9839764000001,167.62156 561.9171764,166.48572 569.8845764000001,165.32456 577.8837764000001,164.13970999999998 585.9122764000001,162.93283 593.9677764,161.70569 602.0475764,160.46008 610.1489764,159.19781 618.2695764000001,157.92007999999998 626.4074764,156.62779 634.5615764,155.32172 642.7313764,154.00257 650.9172764,152.67092 659.1203764,151.32727 667.3419764000001,149.97280999999998 675.5822764000001,148.60929 683.8397764000001,147.23877 692.1112764000001,145.86359 700.3920764000001,144.48640999999998 708.6757764000001,143.11013 716.9547764,141.73752 725.2210764,140.37114 733.4666764,139.01357 741.6835764,137.66731 749.8638764,136.3348 757.9998764000001,135.01847999999998 766.0850764,133.72156999999999 774.1161764000001,132.44743 782.0936764,131.19873 790.0209764000001,129.97755 797.9044764,128.78544 805.7533764000001,127.62348 813.5785764000001,126.49107 821.3884764000001,125.38578999999999 829.1867764,124.30575999999999 836.9725764000001,123.249792 844.7406764,122.217261 852.4817764000001,121.20804799999999 860.1824764,120.22360099999999 867.8263764000001,119.271738 875.3964764,118.36189999999999 882.8756764000001,117.502738 890.2475764000001,116.701916 897.4971764000001,115.9659533 904.6107764000001,115.30012909999999 911.5767764000001,114.70844199999999 918.3854764000001,114.1936317 925.0292764000001,113.75724799999999 931.5030764,113.399761 937.8033764,113.12069799999999 943.9288764,112.91878799999999 949.8794764,112.792119 955.6570764,112.73826299999999 961.2641764,112.75331499999999 966.7048764000001,112.83148999999999 971.9842764,112.967192 977.1077764,113.155238 982.0813764000001,113.390868 986.9110764000001,113.66972899999999 991.6032764,113.98786 996.1638764,114.34166409999999 1000.5989764,114.72788299999999 1004.3472764,115.0867" stroke="black" stroke-width="2.0" /></svg>