<?xml version="1.0" encoding="utf-8" ?>
<svg baseProfile="full" height="151.19959" version="1.1" width="1012.8461019000001" xmlns="http://www.w3.org/2000/svg" xmlns:ev="http://www.w3.org/2001/xml-events" xmlns:xlink="http://www.w3.org/1999/xlink"><defs /><polygon fill="none" points="1004.8461019000001,121.4054 1001.4773019,120.24449999999999 997.2849019,118.80061699999999 992.7509019,117.24923199999999 987.8629019,115.59478 982.6184019,113.836551 977.0347019000001,111.97841 971.1482019,110.03392 965.0053019,108.0227 958.6485019,105.96311 952.1094019,103.86819 945.4182019,101.74896 938.6042019,99.61563 931.6928019,97.47685999999999 924.7054019000001,95.33999 917.6605019,93.21109999999999 910.5720018999999,91.09473 903.4494019,88.99391 896.2992019,86.91077999999999 889.1265019000001,84.84710999999999 881.9356019,82.80422999999999 874.7292019,80.78306 867.5094019000001,78.7842 860.2775019000001,76.8081 853.0352019000001,74.85517999999999 845.7839019,72.92579 838.5247019000001,71.02026 831.2589019000001,69.1389 823.9871019,67.28204 816.7097019,65.44984 809.4267019,63.642399999999995 802.1375019,61.85970999999999 794.8413019,60.10165 787.5374019,58.36789 780.2254019,56.65821 772.9053019,54.97243999999999 765.5776019,53.31054999999999 758.2434019,51.67257999999998 750.9038019000001,50.058719999999994 743.5603019,48.469409999999996 736.2140019000001,46.905069999999995 728.8655018999999,45.366020000000006 721.5154019,43.852549999999994 714.1637019,42.36483 706.8103019,40.90302 699.4549019,39.46713 692.0971019,38.057199999999995 684.7365019,36.67326 677.3731018999999,35.31533999999999 670.0067018999999,33.983509999999995 662.6371019,32.67785000000001 655.2644018999999,31.398449999999997 647.8887019,30.145349999999993 640.5099018999999,28.918620000000004 633.1283019,27.71831999999999 625.7441019,26.544549999999987 618.3576019,25.397360000000006 610.9692019,24.276870000000002 603.5792019,23.1832 596.1881019,22.11659999999999 588.7965019,21.077399999999983 581.4048018999999,20.065699999999993 574.0138019000001,19.081999999999994 566.6243019,18.126499999999993 559.2369019,17.199399999999997 551.8526019000001,16.30109999999999 544.4719019,15.431799999999996 537.0949019000001,14.591599999999985 529.7212019,13.780799999999985 522.3499019000001,12.999400000000009 514.9794019,12.247500000000002 507.60780189999997,11.525099999999995 500.2325019,10.8322 492.8515019,10.168400000000005 485.46440190000004,9.533799999999985 478.07260190000005,8.92819999999999 470.67960189999997,8.351699999999994 463.29050190000004,7.804500000000004 455.9125019,7.286799999999985 448.5542019,6.798999999999992 441.2250019,6.342999999999989 433.9320019,5.921599999999998 426.68040190000005,5.536999999999992 419.4727019,5.191599999999994 412.3096019,4.887100000000004 405.1899019,4.625399999999999 398.1106019,4.407999999999987 391.06770190000003,4.236099999999993 384.0569019,4.1103999999999985 377.0747019,4.031399999999991 370.1177019,4.0 363.1828019,4.016799999999989 356.26740190000004,4.082700000000003 349.3689019,4.198699999999988 342.4853019,4.365599999999986 335.61480190000003,4.583699999999993 328.7559019,4.853200000000001 321.9077019,5.174099999999996 315.06970190000004,5.5464000000000055 308.24180190000004,5.970399999999998 301.4243019,6.445999999999998 294.6178019,6.973299999999995 287.8234019,7.552499999999995 281.0425019,8.183599999999998 274.2762019,8.866899999999987 267.5260019,9.602499999999992 260.79340190000005,10.3904 254.0799019,11.230799999999988 247.3871019,12.123400000000004 240.71650190000003,13.068499999999986 234.07000190000002,14.066299999999998 227.44910190000002,15.116900000000001 220.8554019,16.22059999999999 214.2904019,17.3776 207.7552019,18.588099999999983 201.2512019,19.8523 194.77960190000002,21.170199999999994 188.34190189999998,22.54209999999999 181.9402019,23.96781999999999 175.5772019,25.447279999999992 169.2559019,26.98003999999999 162.9795019,28.565489999999997 156.7517019,30.202809999999985 150.5769019,31.891229999999993 144.4602019,33.62987 138.4072019,35.41740999999999 132.4241019,37.25211 126.5174019,39.1318 120.6936019,41.05394 114.9601019,43.01590999999999 109.3266019,45.01455 103.8049119,47.0453 98.40801189999999,49.10238 93.14894189999998,51.17908 88.03991189999999,53.26809999999999 83.09242189999999,55.362359999999995 78.3180819,57.45492 73.72714189999999,59.53832 69.32737189999999,61.60511999999999 65.12342190000001,63.64838999999999 61.1166119,65.6621 57.3062519,67.64152999999999 53.6934319,69.58219 50.2798319,71.47847999999999 47.0653519,73.32481999999999 44.0469419,75.11659 41.2185019,76.85064 38.5713719,78.52534 36.0958019,80.14115 33.7818219,81.70087 31.618311900000002,83.20799 29.5937919,84.66613 27.6970319,86.07891 25.9174319,87.44976 24.2451619,88.78188 22.6712319,90.07822999999999 21.1875619,91.34155999999999 19.788171900000002,92.5748 18.4689419,93.78038 17.2263419,94.95984999999999 16.0571019,96.11421 14.9580119,97.24413 13.9258599,98.35012 12.9573829,99.43258999999999 12.0492989,100.49195999999999 11.1983219,101.52866 10.4012009,102.54317999999999 9.6558219,103.53622 8.962079899999999,104.50918999999999 8.3193479,105.46392 7.7264549,106.40245999999999 7.181968899999999,107.32691 6.6843789,108.23935999999999 6.2322059,109.14184 5.8240769,110.03631 5.4587684,110.92465999999999 5.1352276,111.80870999999999 4.8525902,112.69021599999999 4.61019607,113.57081299999999 4.4077209,114.45043799999999 4.2451582,115.32767199999999 4.1227056,116.201259 4.0407731,117.070123 4.0,117.933326 4.001277,118.790041 4.0457749,119.639522 4.1349827999999995,120.481082 4.2707581999999995,121.314077 4.4553916000000005,122.13787939999999 4.6916508199999996,122.9518792 4.9809878,123.756013 5.322699399999999,124.550837 5.7162258999999995,125.336686 6.1612769,126.113608 6.6577589,126.881332 7.2057099,127.63922799999999 7.8052059,128.386255 8.4562509,129.120875 9.1586249,129.84096499999998 9.9116909,130.543692 10.714664899999999,131.226017 11.5685059,131.887059 12.4747149,132.52671 13.434750900000001,133.14499999999998 14.450009900000001,133.74214 15.5217919,134.31857 16.651251900000002,134.87501 17.8393719,135.41253 19.086841900000003,135.93266 20.3940419,136.43748 21.7615219,136.92927 23.192821900000002,137.4081 24.6928219,137.87333999999998 26.2669219,138.32434 27.9210119,138.76051999999999 29.6615519,139.18139 31.4955819,139.58662999999999 33.430721899999995,139.97616 35.4751419,140.35029 37.6375619,140.70965 39.9280919,141.05336 42.358131900000004,141.37931 44.939841900000005,141.68533 47.686031899999996,141.96919 50.609991900000004,142.22881999999998 53.7254219,142.46251 57.046371900000004,142.66925 60.5878919,142.84778 64.3657819,142.99425 68.3943219,143.10432 72.68499189999999,143.1739 77.24580189999999,143.19959 82.0817319,143.17919 87.1962519,143.111 92.5893919,142.99194 98.25454189999999,142.81971 104.17869189999999,142.59366 110.34470189999999,142.31498 116.73520189999999,141.98608 123.33230189999999,141.60824 130.1157019,141.18336 137.0647019,140.71444 144.1602019,140.20535 151.38740190000001,139.66009 158.7339019,139.08198 166.18710190000002,138.47459 173.73510190000002,137.84197 181.3666019,137.18845 189.0719019,136.51799 196.8407019,135.83364 204.6612019,135.13857 212.52010190000001,134.43625 220.40270189999998,133.73032999999998 228.2936019,133.02444 236.1790019,132.321607 244.04860190000002,131.624496 251.8958019,130.935395 259.7174019,130.256238 267.51350190000005,129.588596 275.2863019,128.933629 283.0373019,128.292405 290.76790189999997,127.666021 298.4786019,127.05560399999999 306.1695019,126.46230299999999 313.8404019,125.88726799999999 321.49120189999996,125.331575 329.1230019,124.79620299999999 336.73760189999996,124.28205399999999 344.33810189999997,123.789974 351.9284019,123.32076789999999 359.5134019,122.8749721 367.0984019,122.45186269999999 374.6894019,122.0503585 382.2926019,121.669422 389.9149019,121.30805699999999 397.56370189999996,120.965307 405.2470019,120.640181 412.9728019,120.330621 420.74630190000005,120.033734 428.5693019,119.746656 436.4398019,119.46655799999999 444.35160190000005,119.19063399999999 452.2939019,118.916119 460.2519019,118.641352 468.2110019,118.36769899999999 476.1601019,118.09695199999999 484.0916019,117.830749 492.0022019,117.570572 499.8920019,117.317753 507.7646019,117.073447 515.6258019,116.83802899999999 523.4807019,116.61140499999999 531.3330019,116.39352799999999 539.1851019,116.184401 547.0382019,115.984071 554.8920019,115.792621 562.7453019000001,115.610192 570.5962019,115.43703699999999 578.4433019,115.273415 586.2858019,115.119568 594.1231019,114.975726 601.9551018999999,114.842109 609.7820019000001,114.718926 617.6045019000001,114.60636 625.4231019,114.50457499999999 633.2383019,114.413737 641.0504019,114.334015 648.8597019,114.265581 656.6664019,114.20861 664.4706019,114.16324999999999 672.2724019,114.12957999999999 680.0720019,114.107666 687.8698019,114.097578 695.6664019,114.099384 703.4622019000001,114.11316 711.2581019,114.138969 719.0547019,114.176794 726.8521019,114.226587 734.6499019,114.288298 742.4471019,114.36187 750.2424019,114.447234 758.0340019,114.54435699999999 765.8201019,114.65346799999999 773.6001019,114.77488799999999 781.3743019,114.908951 789.1444018999999,115.056013 796.9128019,115.21646199999999 804.6827019,115.39041499999999 812.4566019,115.577395 820.2345018999999,115.776817 828.0147019,115.988036 835.7931019,116.21033399999999 843.5638019,116.443111 851.3200019,116.686562 859.0552019,116.94106699999999 866.7627019,117.206965 874.4366019,117.484549 882.0705019,117.773595 889.6540018999999,118.072513 897.1722019,118.379301 904.6058019000001,118.691762 911.9326019,119.00781599999999 919.1209019,119.32757699999999 926.1166019,119.65118199999999 932.8520019,119.97721299999999 939.2625019,120.30282199999999 945.3038019,120.618263 950.9720019,120.912083 956.2927019,121.177723 961.3030019,121.41194899999999 966.0405019,121.624646 970.5054018999999,121.84177439999999 974.6597019000001,122.0798595 978.4705019,122.3448026 981.9300019,122.62937414999999 985.0538018999999,122.8890467 987.9016019000001,123.08735469999999 990.5438019,123.2032413 993.0467019,123.2171367 995.5039019,123.14220639999999 998.0932019,123.1762468 1000.8803019,123.5625232 1003.5670019,124.129927 1004.5961019,122.6454" stroke="black" stroke-width="2.0" /></svg>