<?xml version="1.0" encoding="utf-8" ?>
<svg baseProfile="full" height="222.0" version="1.1" width="1011.994965665" xmlns="http://www.w3.org/2000/svg" xmlns:ev="http://www.w3.org/2001/xml-events" xmlns:xlink="http://www.w3.org/1999/xlink"><defs /><polygon fill="none" points="1003.994965665,106.9 1000.321465665,105.114801 995.926665665,103.004686 991.353465665,100.838387 986.593465665,98.61525 981.639265665,96.33546 976.485165665,94.00026 971.128165665,91.61238 965.5689656650001,89.17628 959.812965665,86.69859 953.871465665,84.18832 947.762665665,81.65692 941.509565665,79.11731 935.137065665,76.58234 928.669565665,74.06396000000001 922.129565665,71.57251 915.535765665,69.11618 908.901965665,66.70083 902.236265665,64.32985 895.541565665,62.004459999999995 888.818665665,59.725010000000005 882.068165665,57.491760000000006 875.290665665,55.30498 868.4869656650001,53.1649 861.657565665,51.07175 854.803165665,49.02575 847.924165665,47.02709 841.021365665,45.07596999999999 834.095265665,43.17255 827.146265665,41.317009999999996 820.1749656650001,39.50949 813.181865665,37.75014 806.167365665,36.03909 799.1319656649999,34.376450000000006 792.076065665,32.762100000000004 784.999865665,31.19579999999999 777.903965665,29.67729 770.788465665,28.20631999999999 763.653865665,26.782619999999994 756.5004656650001,25.40594 749.328665665,24.075999999999993 742.138665665,22.79253 734.931065665,21.555270000000007 727.705965665,20.363929999999996 720.463765665,19.218239999999994 713.2048656649999,18.117919999999998 705.9295656649999,17.062669999999997 698.638165665,16.052210000000002 691.3309656649999,15.086160000000007 684.008165665,14.164079999999998 676.669765665,13.285530000000008 669.3158656649999,12.45008 661.9466656650001,11.65728 654.562065665,10.906669999999991 647.162065665,10.197810000000004 639.746765665,9.530230000000003 632.3158656649999,8.903499999999994 624.869265665,8.317099999999996 617.406865665,7.770700000000005 609.928365665,7.2637 602.433665665,6.7958 594.922165665,6.366399999999999 587.3936656650001,5.974900000000005 579.847965665,5.620800000000003 572.284965665,5.303399999999996 564.7048656649999,5.022100000000009 557.107765665,4.776499999999999 549.4942656650001,4.565700000000007 541.864965665,4.389399999999995 534.220865665,4.246700000000004 526.562765665,4.137100000000004 518.892065665,4.059999999999988 511.210165665,4.014499999999998 503.518765665,4.0 495.819465665,4.015900000000002 488.114365665,4.062100000000001 480.404765665,4.138800000000003 472.69236566499995,4.2457999999999885 464.978465665,4.383299999999991 457.264065665,4.551100000000005 449.550265665,4.749399999999994 441.83796566499996,4.977999999999994 434.12756566499996,5.236900000000006 426.419765665,5.5260000000000105 418.714765665,5.845399999999998 411.01276566499996,6.195000000000007 403.31376566499995,6.57480000000001 395.617565665,6.984799999999993 387.923865665,7.424899999999994 380.232665665,7.895099999999999 372.543865665,8.395499999999998 364.857565665,8.926000000000002 357.173765665,9.486720000000005 349.492865665,10.077489999999997 341.814965665,10.698340000000002 334.140665665,11.349230000000006 326.470265665,12.030100000000004 318.804465665,12.740890000000007 311.143765665,13.48151 303.488865665,14.251860000000008 295.840765665,15.05201000000001 288.200665665,15.882549999999995 280.570065665,16.74413 272.95116566499996,17.637339999999995 265.346065665,18.56268 257.757665665,19.520570000000006 250.18876566499998,20.51133 242.642965665,21.535179999999997 235.12366566499998,22.59223 227.634765665,23.682460000000006 220.18036566499998,24.80574 212.764665665,25.961820000000003 205.392065665,27.15030999999999 198.067065665,28.370770000000007 190.79426566499998,29.62307 183.578465665,30.90714 176.424265665,32.22274999999999 169.33626566499998,33.56953999999999 162.31886566499998,34.947010000000006 155.376165665,36.35453 148.51256566499998,37.79154999999999 141.73526566500001,39.25837 135.058265665,40.754189999999994 128.50116566499997,42.27625999999999 122.08626566499998,43.8201 115.837365665,45.37982 109.77686566499999,46.94865 103.923885665,48.519420000000004 98.293655665,50.08549 92.897695665,51.64195 87.742725665,53.184509999999996 82.830395665,54.70939 78.157945665,56.21346 73.719405665,57.695209999999996 69.508695665,59.154810000000005 65.520395665,60.59142 61.748295665,62.00361 58.184715665000006,63.38981 54.820425665,64.74871 51.645245665000004,66.07935 48.65031566500001,67.38113 45.826285665,68.65409 43.162695665,69.89878 40.648795665,71.11614 38.273975665,72.30727999999999 36.028105665000005,73.47342 33.901685665,74.61583 31.885905665,75.73573 29.972675665,76.83436 28.154565665,77.913 26.425285665,78.97647 24.780505665,80.03166999999999 23.217305665,81.08329 21.733385665,82.13415 20.326565665,83.18567 18.994545665,84.23827 17.734695665,85.29169999999999 16.544075665,86.34524 15.420215665,87.39714000000001 14.363055665000001,88.44272 13.371792665000001,89.4781 12.444435665,90.50094 11.578419664999998,91.50996 10.770947665,92.50463 10.019209664999998,93.48491 9.320516665,94.45108 8.672370664999999,95.40366 8.072493665,96.34328 7.518846665,97.27066 7.009625665,98.18659 6.543259665,99.091859 6.118396665,99.987276 5.733901665,100.873655 5.388840665,101.751809 5.082478665,102.62255 4.814270265,103.486686 4.583861765,104.345032 4.391088365,105.198407 4.235978365,106.047645 4.1187611650000004,106.893597 4.039878105,107.737148 4.0,108.5792178 4.0,109.4207822 4.039878105,110.262852 4.1187611650000004,111.106403 4.235978365,111.952355 4.391088365,112.801593 4.583861765,113.654968 4.814270265,114.513314 5.082478665,115.37745 5.388840665,116.248191 5.733901665,117.126345 6.118396665,118.012724 6.543259665,118.908141 7.009625665,119.81341 7.518846665,120.72934 8.072493665,121.65672 8.672370664999999,122.59634 9.320516665,123.54892 10.019209664999998,124.51509 10.770947665,125.49537 11.578419664999998,126.49004 12.444435665,127.49906 13.371792665000001,128.52190000000002 14.363055665000001,129.55728 15.420215665,130.60286 16.544075665,131.65476 17.734695665,132.7083 18.994545665,133.76173 20.326565665,134.81432999999998 21.733385665,135.86585 23.217305665,136.91671 24.780505665,137.96833 26.425285665,139.02353 28.154565665,140.087 29.972675665,141.16564 31.885905665,142.26427 33.901685665,143.38416999999998 36.028105665000005,144.52658 38.273975665,145.69272 40.648795665,146.88386 43.162695665,148.10122 45.826285665,149.34591 48.65031566500001,150.61887000000002 51.645245665000004,151.92065 54.820425665,153.25128999999998 58.184715665000006,154.61019 61.748295665,155.99639 65.520395665,157.40858 69.508695665,158.84519 73.719405665,160.30479 78.157945665,161.78654 82.830395665,163.29061000000002 87.742725665,164.81549 92.897695665,166.35805 98.293655665,167.91451 103.923885665,169.48058 109.77686566499999,171.05135 115.837365665,172.62018 122.08626566499998,174.1799 128.50116566499997,175.72374000000002 135.058265665,177.24581 141.73526566500001,178.74163 148.51256566499998,180.20845000000003 155.376165665,181.64547 162.31886566499998,183.05299 169.33626566499998,184.43046 176.424265665,185.77725 183.578465665,187.09286 190.79426566499998,188.37693000000002 198.067065665,189.62923 205.392065665,190.84969 212.764665665,192.03818 220.18036566499998,193.19425999999999 227.634765665,194.31754 235.12366566499998,195.40777 242.642965665,196.46482 250.18876566499998,197.48867 257.757665665,198.47942999999998 265.346065665,199.43732 272.95116566499996,200.36266 280.570065665,201.25587000000002 288.200665665,202.11745000000002 295.840765665,202.94799 303.488865665,203.74813999999998 311.143765665,204.51848999999999 318.804465665,205.25911 326.470265665,205.9699 334.140665665,206.65077 341.814965665,207.30166 349.492865665,207.92251 357.173765665,208.51328 364.857565665,209.074 372.543865665,209.6045 380.232665665,210.1049 387.923865665,210.57510000000002 395.617565665,211.0152 403.31376566499995,211.4252 411.01276566499996,211.805 418.714765665,212.15460000000002 426.419765665,212.474 434.12756566499996,212.7631 441.83796566499996,213.022 449.550265665,213.25060000000002 457.264065665,213.44889999999998 464.978465665,213.6167 472.69236566499995,213.75420000000003 480.404765665,213.8612 488.114365665,213.9379 495.819465665,213.9841 503.518765665,214.0 511.210165665,213.9855 518.892065665,213.94 526.562765665,213.8629 534.220865665,213.7533 541.864965665,213.6106 549.4942656650001,213.4343 557.107765665,213.2235 564.7048656649999,212.97789999999998 572.284965665,212.6966 579.847965665,212.3792 587.3936656650001,212.0251 594.922165665,211.6336 602.433665665,211.20420000000001 609.928365665,210.7363 617.406865665,210.2293 624.869265665,209.68290000000002 632.3158656649999,209.0965 639.746765665,208.46976999999998 647.162065665,207.80219 654.562065665,207.09333 661.9466656650001,206.34271999999999 669.3158656649999,205.54992 676.669765665,204.71447 684.008165665,203.83592 691.3309656649999,202.91384 698.638165665,201.94779 705.9295656649999,200.93733 713.2048656649999,199.88208 720.463765665,198.78176000000002 727.705965665,197.63607000000002 734.931065665,196.44473 742.138665665,195.20747 749.328665665,193.924 756.5004656650001,192.59406 763.653865665,191.21738 770.788465665,189.79368 777.903965665,188.32271 784.999865665,186.8042 792.076065665,185.2379 799.1319656649999,183.62355 806.167365665,181.96091 813.181865665,180.24986 820.1749656650001,178.49051 827.146265665,176.68299000000002 834.095265665,174.82745 841.021365665,172.92403000000002 847.924165665,170.97291 854.803165665,168.97424999999998 861.657565665,166.92825 868.4869656650001,164.8351 875.290665665,162.69502 882.068165665,160.50824 888.818665665,158.27499 895.541565665,155.99554 902.236265665,153.67015 908.901965665,151.29917 915.535765665,148.88382000000001 922.129565665,146.42749 928.669565665,143.93604 935.137065665,141.41766 941.509565665,138.88269 947.762665665,136.34308 953.871465665,133.81168 959.812965665,131.30141 965.5689656650001,128.82371999999998 971.128165665,126.38762 976.485165665,123.99974 981.639265665,121.66454 986.593465665,119.38475 991.353465665,117.161613 995.926665665,114.995314 1000.321465665,112.885199 1003.994965665,111.1" stroke="black" stroke-width="2.0" /></svg>