<?xml version="1.0" encoding="utf-8" ?>
<svg baseProfile="full" height="132.24586" version="1.1" width="1012.1360856" xmlns="http://www.w3.org/2000/svg" xmlns:ev="http://www.w3.org/2001/xml-events" xmlns:xlink="http://www.w3.org/1999/xlink"><defs /><polygon fill="none" points="1004.1360856,85.60594999999999 1001.1198856,85.00901959999999 997.4669856,84.285766 993.6072856,83.521204 989.5184856,82.710842 985.1762856,81.84976999999999 980.5548856,80.93279799999999 975.6287856,79.95476099999999 970.3755856,78.911097 964.7809856,77.798819 958.8460855999999,76.617982 952.5962856,75.37351999999998 946.0886856000001,74.07664 939.5007856000001,72.76249999999999 932.9966856000001,71.46379999999999 926.5158855999999,70.16838 920.0109856,68.86671 913.4515856,67.55256999999999 906.8320856,66.22470999999999 900.2419856,64.90108 893.6943856,63.58512999999999 887.1710856,62.274429999999995 880.6571856,60.96731 874.1419856,59.662789999999994 867.6174856,58.36059999999999 861.0793855999999,57.061139999999995 854.5266856,55.76549999999999 847.9614856,54.475139999999996 841.3875856000001,53.19097999999999 834.8084855999999,51.91369999999999 828.2272856000001,50.64388999999999 821.6467856,49.38204999999999 815.0693855999999,48.12858999999999 808.4968856,46.88381999999999 801.9308856,45.647999999999996 795.3722855999999,44.42167999999999 788.8215856,43.20571999999999 782.2788856000001,42.00091 775.7438856,40.80796999999999 769.2154856,39.6275 762.6927856,38.46005999999999 756.1737856000001,37.30611999999999 749.6567856,36.16600999999999 743.1396856,35.03959999999999 736.6209856,33.926649999999995 730.1000856,32.82702999999999 723.5764856,31.740709999999993 717.0505856,30.66776999999999 710.5232856,29.608349999999994 703.9959855999999,28.56271999999999 697.4705855999999,27.531339999999993 690.9488856,26.515119999999996 684.4320856,25.514939999999996 677.9210856,24.531569999999995 671.4162856,23.56570999999999 664.9174856,22.617999999999995 658.4242856,21.688989999999997 651.9355856,20.779169999999993 645.4503856,19.888819999999996 638.9672856000001,19.01805999999999 632.4857856,18.167050000000003 626.0050856,17.335989999999995 619.5249856,16.525099999999995 613.0452856,15.734650000000002 606.5662856,14.964950000000002 600.0883856,14.216319999999996 593.6120856,13.489310000000003 587.1380856000001,12.784549999999996 580.6673856,12.102699999999984 574.2006856,11.444379999999995 567.7391856,10.810239999999993 561.2838856,10.200879999999984 554.8358856,9.616910000000004 548.3965856000001,9.058979999999991 541.9669856,8.527879999999996 535.5473856,8.024409999999989 529.1376855999999,7.549289999999999 522.7367856000001,7.10320999999999 516.3432856,6.6868300000000005 509.9548856,6.300769999999986 503.5689856,5.945689999999999 497.18218559999997,5.621939999999995 490.79148560000004,5.329039999999992 484.39458559999997,5.06644 477.9901856,4.833619999999996 471.5775856,4.630139999999997 465.1573856,4.45559999999999 458.7304856,4.30959 452.2991856,4.191689999999994 445.8661856,4.101669999999999 439.4338856,4.0396399999999915 433.0039856,4.005719999999997 426.5771856,4.0 420.15288560000005,4.022559999999984 413.7301856,4.073519999999988 407.3067856,4.153009999999995 400.87958560000004,4.2612199999999945 394.4448856,4.397970000000001 387.9996856,4.562499999999986 381.5420856,4.754009999999994 375.0717856,4.971679999999992 368.58958559999996,5.2146199999999965 362.0979856,5.4818599999999975 355.6006856,5.772329999999997 349.1027856,6.084879999999998 342.61038560000003,6.419309999999996 336.1279856,6.776240000000001 329.6586856,7.15631999999998 323.2034856,7.5602699999999885 316.76208560000003,7.988899999999987 310.33238559999995,8.44314 303.9104856,8.92407 297.4913856,9.4328 291.0690856,9.969429999999988 284.63958560000003,10.53349 278.2003856,11.124409999999997 271.7506856,11.741469999999993 265.29178559999997,12.383769999999998 258.8266856,13.050159999999991 252.36058559999998,13.739249999999984 245.90028560000002,14.449909999999988 239.45248560000002,15.182509999999994 233.02248559999998,15.937820000000002 226.6135856,16.716759999999994 220.2274856,17.520369999999986 213.8640856,18.34988 207.52178560000002,19.206699999999984 201.1973856,20.092499999999987 194.8864856,21.008929999999992 188.5849856,21.957029999999996 182.2906856,22.937549999999995 176.0029856,23.950999999999993 169.72298560000002,24.997579999999992 163.4538856,26.077209999999994 157.2000856,27.189409999999988 150.9680856,28.333279999999995 144.76548559999998,29.507979999999996 138.5991856,30.713809999999995 132.4735856,31.951639999999998 126.3903856,33.22270999999999 120.3487856,34.52870999999999 114.3458856,35.871829999999996 108.3764856,37.25476999999999 102.4337256,38.68084999999999 96.5091856,40.15388999999999 90.60386559999999,41.67531999999999 84.7417856,43.24016999999999 78.96930560000001,44.836259999999996 73.34791560000001,46.44546999999999 67.9326456,48.05423 62.7404856,49.661319999999996 57.7559456,51.27356999999999 52.9455056,52.903209999999994 48.2674356,54.56599 43.7102056,56.265609999999995 39.340275600000005,57.97367999999999 35.2666156,59.63888999999999 31.5772856,61.210939999999994 28.3017656,62.660079999999994 25.418055600000002,63.98013999999999 22.8853356,65.18872999999999 20.6594756,66.30960999999999 18.6954756,67.36026999999999 16.9526556,68.35358 15.3963056,69.29919 13.9977396,70.20454 12.7361496,71.07481 11.5961146,71.91377999999999 10.564112600000001,72.72461 9.6283616,73.51021999999999 8.780135600000001,74.28058999999999 8.0138406,75.05314999999999 7.3243576,75.84005199999999 6.7081926,76.64072599999999 6.162835599999999,77.445365 5.6850626,78.247142 5.2715746,79.041759 4.9193933,79.826595 4.6260544,80.60013199999999 4.3896947,81.36158499999999 4.20909273,82.11064999999999 4.08370054,82.84735099999999 4.0136857,83.57193299999999 4.0,84.284803 4.04449069,84.98648759999999 4.15007499,85.67762275999999 4.319343,86.3593672 4.5514052,87.03399599999999 4.8455941,87.703634 5.2021996,88.37006299999999 5.6223866000000005,89.034751 6.1081376,89.69883499999999 6.6621955999999996,90.36303899999999 7.2879515999999995,91.02751099999999 7.9892006,91.69152299999999 8.7695926,92.352955 9.6314896,93.007447 10.5737126,93.647076 11.5909016,94.2611 12.688693599999999,94.84898199999999 13.883380599999999,95.419765 15.195265599999999,95.98304999999999 16.643345599999996,96.54354 18.2492156,97.10712 20.0364656,97.68118999999999 22.037855600000004,98.27 24.2959256,98.87702999999999 26.8604756,99.50825999999999 29.7858656,100.17443999999999 33.1255456,100.89480999999999 36.927235599999996,101.68226999999999 41.203495600000004,102.52829999999999 45.8949956,103.40929 50.8787556,104.29248 56.037735600000005,105.15114 61.341195600000006,105.97735999999999 66.8291856,106.77922 72.5386756,107.56562 78.4826256,108.34306 84.6316456,109.11447999999999 90.9101656,109.87348999999999 97.2419656,110.60883 103.5781456,111.31329 109.9034856,111.98418 116.22938560000001,112.62335999999999 122.57078560000001,113.2344 128.9390856,113.82034999999999 135.3424856,114.38382999999999 141.78558560000002,114.92708999999999 148.2689856,115.45208 154.7892856,115.9605 161.3385856,116.45365 167.90638560000002,116.93135999999998 174.48358560000003,117.39282 181.0632856,117.83743999999999 187.64058559999998,118.26488 194.2127856,118.67493999999999 200.77938559999998,119.06759 207.3422856,119.44295 213.9048856,119.80134999999999 220.4711856,120.14352 227.0440856,120.47014999999999 233.6252856,120.78188 240.2158856,121.07927 246.8155856,121.36286 253.42328559999999,121.63311999999999 260.0367856,121.89049 266.65318560000003,122.13501 273.27008559999996,122.36643 279.8858856,122.58457999999999 286.4994856,122.78927999999999 293.1106856,122.98040999999999 299.71998560000003,123.15784 306.32838560000005,123.32148999999998 312.93758560000003,123.47131999999999 319.5493856,123.60753 326.1646856,123.73033999999998 332.7836856,123.83991999999999 339.40588560000003,123.93645999999998 346.0299856,124.02014 352.6541856,124.09112999999999 359.2755856,124.14957999999999 365.8913856,124.19507999999999 372.49898559999997,124.22682 379.0969856,124.24401 385.6844856,124.24586 392.2615856,124.23160999999999 398.8291856,124.20048999999999 405.3889856,124.15173999999999 411.9431856,124.08471 418.4940856,123.99924999999999 425.04338559999997,123.89527 431.5920856,123.77268999999998 438.1405856,123.63144 444.6883856,123.47145 451.23468560000003,123.29266999999999 457.7776856,123.09509 464.31548560000004,122.87849 470.84658559999997,122.64249 477.3701856,122.38667999999998 483.8862856,122.11058999999999 490.3955856,121.81378 496.89978560000003,121.4957 503.40088560000004,121.15579 509.9019856,120.79356999999999 516.4063855999999,120.40941 522.9166856,120.00403 529.4352855999999,119.57815 535.9638855999999,119.13248999999999 542.5036855999999,118.66780999999999 549.0553856,118.18491999999999 555.6189856,117.68464 562.1941856,117.16784 568.7802856000001,116.63532 575.3764856,116.08791 581.9817856,115.52646999999999 588.5950856,114.95188999999999 595.2151855999999,114.36506999999999 601.8407856,113.76696999999999 608.4702856,113.15849 615.1022856000001,112.5402 621.7356856,111.91237999999998 628.3702856,111.27530999999999 635.0060856,110.62919 641.6437856,109.97416999999999 648.2848855999999,109.31033 654.9309856,108.6377 661.5845856,107.95648999999999 668.2478856,107.26737999999999 674.9219856000001,106.57118 681.6076856,105.86877999999999 688.3046856,105.16118999999999 695.0119856,104.4495 701.7277856000001,103.7349 708.4491856000001,103.01863999999999 715.1731856,102.30167999999999 721.8971856000001,101.58476999999999 728.6189856000001,100.86863 735.3370856,100.15387999999999 742.0503856,99.44109999999999 748.7585856,98.73079999999999 755.4618856000001,98.02344 762.1606856000001,97.31948 768.8553856,96.61946999999999 775.5457855999999,95.92405 782.2311856,95.23388499999999 788.9101856,94.54970399999999 795.5809856,93.872276 802.2413856000001,93.202412 808.8884856000001,92.541063 815.5196856,91.889816 822.1332856,91.250378 828.7285856,90.624325 835.3057856,90.01310899999999 841.8660856,89.418078 848.4115856,88.84048499999999 854.9451856,88.28150299999999 861.4705856,87.741788 867.9905855999999,87.22116199999999 874.5071856,86.71947999999999 881.0208856,86.23670369999999 887.5308856,85.77288949999999 894.0352856,85.3281653 900.5307856,84.90271249999999 907.0129856,84.49699399999999 913.4743856,84.11615699999999 919.9003855999999,83.769517 926.2692856,83.466259 932.5536856,83.214766 938.7228856,83.022042 944.7455856,82.8932 950.5927856000001,82.83115099999999 956.2401856,82.83645899999999 961.6701856000001,82.905238 966.8746856,83.02994399999999 971.8527856,83.203093 976.6095856,83.41777599999999 981.1537856,83.667813 985.4959855999999,83.94779799999999 989.6480856000001,84.25307299999999 993.6223856,84.57965899999999 997.4305856,84.9241809 1001.0843856,85.283785 1004.1360856,85.60594999999999" stroke="black" stroke-width="2.0" /></svg>