<?xml version="1.0" encoding="utf-8" ?>
<svg baseProfile="full" height="131.99892" version="1.1" width="1011.992838627" xmlns="http://www.w3.org/2000/svg" xmlns:ev="http://www.w3.org/2001/xml-events" xmlns:xlink="http://www.w3.org/1999/xlink"><defs /><polygon fill="none" points="1003.992838627,62.799459999999996 1001.000838627,61.968668 997.387338627,60.974849999999996 993.5828386269999,59.939778 989.569338627,58.86036 985.3278386269999,57.733565 980.839238627,56.556664999999995 976.0853386269999,55.327628 971.051638627,54.045701 965.730338627,52.71222 960.125038627,51.33164 954.2562386269999,49.912530000000004 948.165838627,48.468199999999996 941.913038627,47.015159999999995 935.614438627,45.58163999999999 929.337338627,44.182739999999995 923.0374386269999,42.80826 916.710838627,41.45736 910.440338627,40.14717 904.2367386269999,38.87877 898.0914386269999,37.64927 891.990638627,36.45497 885.9218386269999,35.292739999999995 879.874438627,34.15993 873.838838627,33.05437 867.807038627,31.97423 861.771838627,30.918039999999998 855.727038627,29.884569999999997 849.6673386269999,28.872859999999996 843.588338627,27.88216 837.4864386269999,26.911959999999993 831.359038627,25.961889999999997 825.204338627,25.03181 819.0217386269999,24.121719999999996 812.8113386269999,23.231790000000004 806.574638627,22.36233 800.3142386269999,21.513780000000004 794.033638627,20.68661 787.736138627,19.881179999999993 781.4250386269999,19.097790000000003 775.103438627,18.33663 768.773938627,17.597840000000005 762.438938627,16.881480000000003 756.100538627,16.18754 749.760738627,15.515949999999997 743.420838627,14.866589999999995 737.0822386269999,14.23928 730.745538627,13.633810000000004 724.4115386269999,13.049909999999997 718.080438627,12.48731 711.752038627,11.945679999999996 705.426138627,11.424689999999998 699.101938627,10.923989999999996 692.778638627,10.443229999999993 686.455338627,9.982099999999996 680.131338627,9.540279999999996 673.805838627,9.11748 667.478338627,8.713430000000002 661.1483386269999,8.327849999999998 654.815238627,7.960509999999999 648.4787386269999,7.611150000000002 642.1384386269999,7.279529999999994 635.7942386269999,6.965429999999998 629.445738627,6.668619999999997 623.0930386269999,6.388889999999996 616.735938627,6.126020000000004 610.374638627,5.879800000000003 604.009238627,5.650030000000001 597.639838627,5.436479999999996 591.266738627,5.238909999999997 584.8901386269999,5.05706 578.510138627,4.890659999999997 572.1271386269999,4.739440000000002 565.741238627,4.603139999999996 559.352738627,4.481489999999994 552.9617386269999,4.374219999999994 546.568438627,4.281039999999997 540.1731386270001,4.201679999999996 533.7760386269999,4.135869999999997 527.377238627,4.083309999999997 520.9771386269999,4.043730000000004 514.575738627,4.016840000000002 508.173438627,4.002360000000003 501.770338627,4.0 495.36663862700004,4.009570000000004 488.962538627,4.031089999999999 482.558238627,4.064549999999997 476.153938627,4.109970000000004 469.749638627,4.16733 463.345438627,4.2366600000000005 456.941538627,4.317949999999996 450.538038627,4.411209999999997 444.134938627,4.516440000000003 437.732238627,4.63364 431.330038627,4.762830000000001 424.92843862700005,4.90399 418.52723862700003,5.057139999999997 412.126538627,5.222279999999998 405.7263386270001,5.399419999999999 399.326438627,5.588559999999994 392.926938627,5.789699999999996 386.527738627,6.002850000000002 380.1287386270001,6.228009999999998 373.730038627,6.465179999999997 367.33153862700004,6.714349999999996 360.933338627,6.975529999999999 354.535438627,7.2487099999999955 348.137838627,7.5338899999999995 341.74073862700004,7.831070000000004 335.34413862700006,8.140250000000002 328.94813862700005,8.461420000000004 322.552838627,8.794559999999997 316.15833862700003,9.139680000000006 309.764938627,9.496759999999995 303.372638627,9.865789999999997 296.981738627,10.246829999999996 290.59233862700006,10.64013 284.204838627,11.046019999999999 277.819338627,11.464779999999998 271.43613862700005,11.896729999999998 265.055438627,12.34214 258.677538627,12.80133 252.302738627,13.27458 245.931238627,13.762179999999994 239.56333862699998,14.264409999999998 233.199338627,14.781550000000003 226.839538627,15.31389 220.484338627,15.861699999999999 214.133838627,16.425240000000002 207.78853862699998,17.004780000000004 201.44863862699998,17.600589999999997 195.114638627,18.21304 188.786738627,18.84265 182.465438627,19.489940000000004 176.15093862700002,20.155459999999998 169.843238627,20.83976 163.542538627,21.543369999999996 157.248838627,22.266859999999994 150.962038627,23.010820000000002 144.682138627,23.77653 138.41003862699998,24.565889999999996 132.14753862700002,25.380670000000002 125.897838627,26.22244 119.665138627,27.09254 113.454438627,27.99205 107.271738627,28.92179 101.12415862699999,29.882240000000003 95.019318627,30.873959999999997 88.960758627,31.89846 82.94432862699999,32.95855 76.958728627,34.058629999999994 70.989068627,35.20894 65.050918627,36.42089 59.211158626999996,37.69336 53.571448627,39.01122 48.238138627,40.346869999999996 43.265728626999994,41.67281 38.627708627,42.98249 34.262738627000004,44.2832 30.099358627,45.59035 26.062118627,46.93555 22.248578627,48.37016 19.046528627,49.78295 16.550338627,51.04849 14.559418627,52.17138 12.936554627,53.17216 11.581763627,54.078612 10.427171627,54.913922 9.428795627,55.694396999999995 8.557208627000001,56.431551999999996 7.791953627,57.133777 7.118352627,57.807387 6.525629627,58.457277 6.005737627,59.087357 5.552628627,59.700829999999996 5.1617736270000005,60.300388 4.829835227,60.888354 4.554463627,61.466782 4.334156927,62.037536 4.168182827,62.60236 4.056546217,63.1629292 4.0,63.7209097 4.0,64.2780103 4.056546217,64.83599079999999 4.168182827,65.39656 4.334156927,65.961384 4.554463627,66.532138 4.829835227,67.110566 5.1617736270000005,67.698532 5.552628627,68.29809 6.005737627,68.911563 6.525629627,69.541643 7.118352627,70.19153299999999 7.791953627,70.865143 8.557208627000001,71.567368 9.428795627,72.304523 10.427171627,73.084998 11.581763627,73.920308 12.936554627,74.82676 14.559418627,75.82754 16.550338627,76.95043 19.046528627,78.21597 22.248578627,79.62876 26.062118627,81.06336999999999 30.099358627,82.40857 34.262738627000004,83.71572 38.627708627,85.01643 43.265728626999994,86.32611 48.238138627,87.65205 53.571448627,88.98769999999999 59.211158626999996,90.30556 65.050918627,91.57803 70.989068627,92.78998 76.958728627,93.94029 82.94432862699999,95.04037 88.960758627,96.10046 95.019318627,97.12496 101.12415862699999,98.11668 107.271738627,99.07713 113.454438627,100.00686999999999 119.665138627,100.90638 125.897838627,101.77647999999999 132.14753862700002,102.61824999999999 138.41003862699998,103.43303 144.682138627,104.22238999999999 150.962038627,104.9881 157.248838627,105.73206 163.542538627,106.45555 169.843238627,107.15916 176.15093862700002,107.84346 182.465438627,108.50898 188.786738627,109.15627 195.114638627,109.78587999999999 201.44863862699998,110.39833 207.78853862699998,110.99413999999999 214.133838627,111.57368 220.484338627,112.13722 226.839538627,112.68503 233.199338627,113.21736999999999 239.56333862699998,113.73451 245.931238627,114.23674 252.302738627,114.72434 258.677538627,115.19758999999999 265.055438627,115.65678 271.43613862700005,116.10219000000001 277.819338627,116.53414000000001 284.204838627,116.9529 290.59233862700006,117.35879 296.981738627,117.75209000000001 303.372638627,118.13313 309.764938627,118.50216 316.15833862700003,118.85924 322.552838627,119.20436000000001 328.94813862700005,119.5375 335.34413862700006,119.85866999999999 341.74073862700004,120.16784999999999 348.137838627,120.46503 354.535438627,120.75021000000001 360.933338627,121.02339 367.33153862700004,121.28457 373.730038627,121.53374 380.1287386270001,121.77091 386.527738627,121.99607 392.926938627,122.20922 399.326438627,122.41036 405.7263386270001,122.5995 412.126538627,122.77664 418.52723862700003,122.94178 424.92843862700005,123.09493 431.330038627,123.23608999999999 437.732238627,123.36528 444.134938627,123.48248 450.538038627,123.58771 456.941538627,123.68097 463.345438627,123.76226 469.749638627,123.83159 476.153938627,123.88895 482.558238627,123.93437 488.962538627,123.96782999999999 495.36663862700004,123.98935 501.770338627,123.99892 508.173438627,123.99655999999999 514.575738627,123.98208 520.9771386269999,123.95518999999999 527.377238627,123.91561 533.7760386269999,123.86305 540.1731386270001,123.79724 546.568438627,123.71788000000001 552.9617386269999,123.6247 559.352738627,123.51743 565.741238627,123.39578 572.1271386269999,123.25948 578.510138627,123.10826 584.8901386269999,122.94185999999999 591.266738627,122.76001 597.639838627,122.56244000000001 604.009238627,122.34889 610.374638627,122.11912 616.735938627,121.87289999999999 623.0930386269999,121.61003 629.445738627,121.3303 635.7942386269999,121.03349 642.1384386269999,120.71939 648.4787386269999,120.38776999999999 654.815238627,120.03841 661.1483386269999,119.67107 667.478338627,119.28549 673.805838627,118.88144 680.131338627,118.45864 686.455338627,118.01682 692.778638627,117.55569 699.101938627,117.07493 705.426138627,116.57423 711.752038627,116.05324 718.080438627,115.51160999999999 724.4115386269999,114.94901 730.745538627,114.36510999999999 737.0822386269999,113.75963999999999 743.420838627,113.13233 749.760738627,112.48297 756.100538627,111.81138 762.438938627,111.11743999999999 768.773938627,110.40108 775.103438627,109.66229 781.4250386269999,108.90113 787.736138627,108.11774 794.033638627,107.31231 800.3142386269999,106.48514 806.574638627,105.63659 812.8113386269999,104.76713 819.0217386269999,103.8772 825.204338627,102.96710999999999 831.359038627,102.03703 837.4864386269999,101.08696 843.588338627,100.11676 849.6673386269999,99.12606 855.727038627,98.11435 861.771838627,97.08088000000001 867.807038627,96.02468999999999 873.838838627,94.94454999999999 879.874438627,93.83899 885.9218386269999,92.70618 891.990638627,91.54395 898.0914386269999,90.34965 904.2367386269999,89.12015 910.440338627,87.85175 916.710838627,86.54156 923.0374386269999,85.19066000000001 929.337338627,83.81618 935.614438627,82.41728 941.913038627,80.98376 948.165838627,79.53072 954.2562386269999,78.08639 960.125038627,76.66728 965.730338627,75.2867 971.051638627,73.953219 976.0853386269999,72.671292 980.839238627,71.442255 985.3278386269999,70.265355 989.569338627,69.13856 993.5828386269999,68.059142 997.387338627,67.02407 1001.000838627,66.03025199999999 1003.992838627,65.19946" stroke="black" stroke-width="2.0" /></svg>