<?xml version="1.0" encoding="utf-8" ?>
<svg baseProfile="full" height="163.23609" version="1.1" width="1012.5084591" xmlns="http://www.w3.org/2000/svg" xmlns:ev="http://www.w3.org/2001/xml-events" xmlns:xlink="http://www.w3.org/1999/xlink"><defs /><polygon fill="none" points="1004.5084591,110.2254 1001.1524591,109.3453584 997.1023591000001,108.290578 992.8422591,107.189612 988.3525591,106.038817 983.6132590999999,104.83453999999999 978.6038590999999,103.57336 973.3052591,102.25248099999999 967.7021591,100.870323 961.7865591,99.42736 955.5625591,97.9272 949.0516591,96.37718 942.2932591,94.78609 935.3377591,93.16335 928.2391591,91.51818999999999 921.0482591,89.85821999999999 913.8056591,88.18815 906.5372590999999,86.50908999999999 899.2523591,84.81888 891.9486591,83.11748 884.6228590999999,81.40659 877.2730591,79.68817 869.8982591,77.96452 862.4985591,76.23823999999999 855.0755591,74.51229 847.6320591,72.78932 840.1719591,71.07033999999999 832.6994591,69.356 825.2190591,67.64702 817.7352591,65.94409999999999 810.2527590999999,64.24797 802.7762591,62.55935999999999 795.3102590999999,60.87967999999999 787.8582590999999,59.210939999999994 780.4225591000001,57.55490999999999 773.0044591,55.91312999999999 765.6044591,54.28686999999999 758.2217591,52.67715999999999 750.8548591,51.08480999999999 743.5017591,49.510189999999994 736.1606591,47.95359 728.8301591,46.41533 721.5088591,44.89580999999998 714.1959591,43.39547999999999 706.8906591,41.91485 699.5925591,40.45445999999998 692.3015591000001,39.014799999999994 685.0174591,37.596379999999996 677.7402591,36.19967999999999 670.4703591,34.82525 663.2077591,33.473609999999994 655.9530591,32.145309999999995 648.7065590999999,30.840919999999997 641.4687591,29.56111999999999 634.2398591,28.306549999999987 627.0197591,27.077799999999996 619.8082591,25.87541999999999 612.6046590999999,24.699910000000003 605.4084591,23.551739999999995 598.2186591,22.43132999999999 591.0344590999999,21.338930000000005 583.8552591,20.274829999999994 576.6811591,19.239379999999997 569.5120591,18.232929999999982 562.3484591,17.255920000000003 555.1911590999999,16.308779999999985 548.0411591,15.392029999999991 540.8995591,14.506359999999987 533.7670591,13.652479999999983 526.6443591,12.831039999999987 519.5316591,12.042659999999984 512.4289590999999,11.287909999999997 505.3363591,10.567319999999995 498.25315909999995,9.881399999999985 491.1792591,9.230599999999995 484.1142591,8.615399999999994 477.0581591,8.036199999999994 470.0111591,7.493399999999994 462.9733591,6.987599999999986 455.94535909999996,6.519199999999998 448.92765909999997,6.088699999999989 441.9210591,5.696699999999993 434.9260591,5.3437999999999874 427.9432591,5.030699999999996 420.9731591,4.757999999999996 414.0160591,4.526200000000003 407.0722591,4.335899999999995 400.14185910000003,4.187799999999996 393.2249591,4.082099999999997 386.3213591,4.0194000000000045 379.4303591,4.0 372.55085909999997,4.0242999999999824 365.6811591,4.092699999999994 358.8193591,4.205799999999982 351.9631591,4.363900000000001 345.10955909999996,4.567700000000002 338.25635909999994,4.81689999999999 331.4017591,5.111299999999986 324.5450591,5.450699999999998 317.6865591,5.834699999999984 310.82735909999997,6.262999999999991 303.96955909999997,6.735299999999995 297.1161591,7.2509000000000015 290.2705591,7.809799999999996 283.43605909999997,8.412099999999995 276.6146591,9.0582 269.8079591,9.748099999999994 263.0167591,10.482309999999984 256.2412591,11.261009999999999 249.4807591,12.084670000000003 242.73415910000003,12.953759999999988 236.0006591,13.86851999999999 229.2803591,14.829119999999989 222.5743591,15.835570000000004 215.8842591,16.887719999999987 209.21295910000003,17.985249999999994 202.5639591,19.127629999999996 195.9412591,20.314120000000003 189.3499591,21.544479999999993 182.7944591,22.818820000000002 176.27915910000002,24.13718 169.80785910000003,25.499549999999985 163.38375910000002,26.905869999999993 157.00995910000003,28.356019999999987 150.6888591,29.849859999999993 144.4227591,31.38731 138.2155591,32.968729999999994 132.0737591,34.593929999999986 126.00645909999999,36.261709999999994 120.02445909999999,37.96986 114.1399591,39.715199999999996 108.36555909999998,41.49365 102.7139991,43.300439999999995 97.1971491,45.130269999999996 91.8273991,46.977859999999986 86.6215191,48.836639999999996 81.5991491,50.697669999999995 76.7792191,52.55069999999999 72.17709909999999,54.385329999999996 67.8026491,56.19337999999999 63.6574091,57.970299999999995 59.7353291,59.71392999999999 56.0257391,61.423739999999995 52.51558910000001,63.10027999999999 49.1909191,64.7448 46.038639100000005,66.35883999999999 43.05153910000001,67.94219999999999 40.22795910000001,69.49161 37.5677591,71.00232 35.0698291,72.46955 32.7308791,73.88937999999999 30.5452091,75.25923 28.5050691,76.57794999999999 26.6013291,77.84562 24.824069100000003,79.06334 23.1643091,80.23389 21.6155391,81.36316 20.170619100000003,82.45698999999999 18.8220091,83.52051999999999 17.5622991,84.55816999999999 16.3845691,85.57376 15.2824191,86.57054 14.2500571,87.55126999999999 13.282267099999999,88.51832999999999 12.374233100000001,89.47339 11.521038099999998,90.41575999999999 10.7183751,91.34396 9.962627099999999,92.25657 9.2506661,93.15226999999999 8.5797251,94.02993 7.9493521000000005,94.89126999999999 7.363501100000001,95.74434 6.8254741,96.59725999999999 6.3374711,97.45711999999999 5.8995131,98.32547 5.5098921,99.19888999999999 5.1670484000000005,100.07439 4.869676699999999,100.949552 4.6167283999999995,101.82244299999999 4.4074143,102.69147099999999 4.2412065,103.55533199999999 4.1178436,104.412948 4.03734,105.26341799999999 4.0,106.10597499999999 4.0064401,106.93995899999999 4.0576203,107.764787 4.1548881,108.57992999999999 4.3000381,109.38489349999999 4.49539476,110.17919594 4.7432815,110.9626744 5.0436112,111.73662599999999 5.3958448,112.502602 5.7998131,113.261946 6.2556601,114.01581399999999 6.7637871,114.765171 7.324783099999999,115.51077699999999 7.939340100000001,116.253152 8.6081291,116.99252399999999 9.331617099999999,117.72873799999999 10.1098091,118.461136 10.941859099999999,119.188386 11.8255281,119.90826 12.7565181,120.61740999999999 13.7321361,121.31374 14.756179099999999,121.99964 15.8348891,122.67972999999999 16.9742791,123.35718999999999 18.1784291,124.03193999999999 19.451599100000003,124.70353999999999 20.7982791,125.37132 22.223479100000002,126.03462999999999 23.7342191,126.69417999999999 25.3388491,127.35136 27.0467191,128.00811 28.8681591,128.66705 30.8143191,129.33173 32.8968191,130.00699 35.1269891,130.69913 37.5170091,131.41204 40.0805391,132.14559 42.8304891,132.89884 45.778029100000005,133.6701 48.93173910000001,134.45701 52.297279100000004,135.25671 55.8782391,136.06645 59.679149100000004,136.88446 63.7109791,137.7107 67.99065910000002,138.54482 72.5339291,139.38579 77.3523391,140.23208 82.4500491,141.08158 87.8200291,141.93137 93.4428191,142.77575 99.2911791,143.60708 105.3354591,144.41845999999998 111.5500591,145.20476 117.9186591,145.96303999999998 124.4280591,146.69163 131.0633591,147.3894 137.80855910000002,148.05579999999998 144.6470591,148.69092999999998 151.5624591,149.29558 158.53945910000002,149.87116 165.56435910000002,150.41926999999998 172.6257591,150.93939 179.71395909999998,151.43042 186.82125910000002,151.8915 193.94215910000003,152.32205 201.0733591,152.7217 208.2135591,153.09024 215.36415910000002,153.4277 222.52705910000003,153.73458 229.7039591,154.01154 236.8956591,154.25916 244.1022591,154.478 251.3228591,154.66861999999998 258.55605909999997,154.83156 265.7994591,154.96724999999998 273.0502591,155.07564 280.3057591,155.15661 287.5630591,155.21011 294.8191591,155.23609 302.0711591,155.23457 309.3159591,155.2056 316.55065909999996,155.14902999999998 323.7733591,155.06423999999998 330.9832591,154.95056 338.18115909999995,154.8073 345.3689591,154.63377 352.5501591,154.42915 359.7292591,154.19258 366.91185909999996,153.92385 374.10295909999996,153.62362 381.3064591,153.2926 388.52505909999996,152.93149 395.76015909999995,152.54104 403.0121591,152.12207 410.2798591,151.67545 417.5615591,151.20195 424.8554591,150.70220999999998 432.16055909999994,150.17684 439.4762591,149.62644999999998 446.8024591,149.0516 454.1396591,148.45283999999998 461.4888591,147.83066 468.8515591,147.1857 476.22865909999996,146.51867 483.62085909999996,145.83031 491.02865909999997,145.12139 498.4520591,144.39274 505.8906591,143.64523 513.3438591,142.87973 520.8109591,142.09700999999998 528.2915591,141.29782 535.7854591,140.48289 543.2927591,139.65293 550.8136591,138.80863 558.3489590999999,137.95067 565.8992591,137.07980999999998 573.4652591,136.19689 581.0473591,135.3028 588.6457591,134.39847 596.2601591,133.48489 603.8903591,132.56306 611.5356591,131.634 619.1948590999999,130.69852 626.8664590999999,129.75745999999998 634.5481590999999,128.81173 642.2374591,127.86231 649.9310591,126.91027 657.6252591,125.95676999999999 665.3158591,125.00327999999999 672.9990591000001,124.05151 680.6709591,123.10315 688.3276590999999,122.15983999999999 695.9657591,121.22318999999999 703.5818591,120.29477999999999 711.1728591,119.376206 718.7363591,118.46931799999999 726.2716591000001,117.575823 733.7788591,116.69723599999999 741.2595590999999,115.83489999999999 748.7163591,114.990004 756.1530591,114.16359399999999 763.5737591000001,113.356348 770.9808591000001,112.56875299999999 778.3747591,111.80152199999999 785.7532590999999,111.0555826 793.1122591,110.3320371 800.4454591,109.63211989999999 807.7448591,108.957235 815.0021591,108.309799 822.2121591,107.692528 829.3732590999999,107.10768399999999 836.4872591,106.557149 843.5588591,106.04252199999999 850.5952591,105.56522199999999 857.6066591,105.126492 864.6027591,104.726389 871.5881591,104.36447 878.5604591,104.040661 885.5105591,103.75508599999999 892.4233591,103.50787899999999 899.2782590999999,103.298998 906.0504590999999,103.12815499999999 912.7127591,102.998842 919.2405591,102.91944299999999 925.6149591000001,102.89694999999999 931.8221591,102.936504 937.8535591,103.04155499999999 943.7044591,103.21408899999999 949.3739591,103.454888 954.8635591,103.76377299999999 960.1768591,104.13843999999999 965.3194590999999,104.57281699999999 970.2976591,105.06075299999999 975.1182590999999,105.596668 979.7881590999999,106.175522 984.3142591,106.792784 988.7035591,107.444391 992.9625591,108.12670999999999 997.0978590999999,108.83649 1001.1155590999999,109.5708305 1004.5084591,110.2254" stroke="black" stroke-width="2.0" /></svg>