<?xml version="1.0" encoding="utf-8" ?>
<svg baseProfile="full" height="222.60289999999998" version="1.1" width="1013.234079" xmlns="http://www.w3.org/2000/svg" xmlns:ev="http://www.w3.org/2001/xml-events" xmlns:xlink="http://www.w3.org/1999/xlink"><defs /><polygon fill="none" points="1005.234079,122.6249 1000.3673789999999,121.31158 994.542079,119.750454 988.4750789999999,118.137157 982.1526789999999,116.469554 975.5616789999999,114.74592 968.6909789999999,112.9652 961.532379,111.12729999999999 954.082679,109.23346 946.344979,107.28631999999999 938.328679,105.28911 930.048779,103.24593 921.5249789999999,101.16162 912.780579,99.04145 903.840679,96.8907 894.730379,94.71494 885.474579,92.52136 876.098779,90.31745000000001 866.627579,88.11039 857.0838789999999,85.90678 847.487679,83.7124 837.854979,81.53202999999999 828.197779,79.36936 818.5231789999999,77.22694 808.833579,75.10619 799.126279,73.00738 789.3954789999999,70.9293 779.6359789999999,68.87033 769.8441789999999,66.82912999999999 760.017579,64.80474 750.155679,62.79649 740.2591789999999,60.80404999999999 730.330779,58.82739000000001 720.374879,56.86681999999999 710.397479,54.92294 700.406879,52.99665999999999 690.411979,51.089969999999994 680.421479,49.205560000000006 670.4429789999999,47.345960000000005 660.4832789999999,45.51339 650.547679,43.709810000000004 640.6409789999999,41.936949999999996 630.7664789999999,40.196250000000006 620.926979,38.48895 611.123879,36.81608 601.357979,35.17844000000001 591.629279,33.57674 581.937179,32.01165999999999 572.280979,30.48374000000001 562.6592789999999,28.99351 553.070479,27.541389999999993 543.512679,26.12778 533.983579,24.753 524.480479,23.4174 515.000579,22.12129999999999 505.54067900000007,20.86500000000001 496.097279,19.648600000000002 486.667879,18.471999999999994 477.25147899999996,17.335099999999997 467.848679,16.238100000000003 458.461879,15.181300000000007 449.094879,14.165199999999999 439.753279,13.190299999999993 430.443779,12.2573 421.174679,11.366600000000005 411.955279,10.518799999999999 402.79557900000003,9.714500000000001 393.706479,8.954999999999998 384.69727900000004,8.243099999999998 375.77537900000004,7.581400000000002 366.946179,6.972100000000012 358.213079,6.416799999999995 349.578079,5.916899999999998 341.041779,5.473600000000005 332.603479,5.087599999999995 324.26157900000004,4.759700000000009 316.013479,4.4905000000000115 307.856179,4.280199999999994 299.785979,4.129300000000001 291.800079,4.036599999999993 283.899579,4.0 276.088679,4.017599999999987 268.374579,4.087199999999996 260.766579,4.206600000000009 253.275579,4.373200000000011 245.913179,4.585699999999989 238.689579,4.845100000000002 231.613179,5.152100000000004 224.68977900000002,5.507099999999994 217.92367900000002,5.9095999999999975 211.31697900000003,6.358999999999995 204.870579,6.854399999999998 198.584079,7.394599999999997 192.45647900000003,7.9786 186.48557900000003,8.605000000000004 180.668579,9.272499999999994 175.001779,9.979799999999997 169.48097900000002,10.725499999999997 164.10197900000003,11.507999999999996 158.859979,12.326000000000008 153.750279,13.178000000000011 148.76867900000002,14.063000000000002 143.91247900000002,14.9799 139.180879,15.927400000000006 134.573679,16.903499999999994 130.091479,17.90610000000001 125.73497899999998,18.933000000000007 121.504679,19.9816 117.40077899999999,21.0492 113.422979,22.133200000000002 109.570579,23.230799999999988 105.842179,24.339600000000004 102.236049,25.45733 98.750659,26.583610000000007 95.382739,27.719170000000005 92.12721899999998,28.86506 88.977999,30.022620000000003 85.928499,31.193380000000005 82.971969,32.379059999999996 80.10172899999999,33.58151000000001 77.31034899999999,34.801410000000004 74.588579,36.03478 71.929369,37.27626000000001 69.328139,38.520179999999996 66.782229,39.76061 64.290379,40.991569999999996 61.852369,42.20716 59.468679,43.40178 57.140099,44.57025999999999 54.867569,45.70809 52.654199000000006,46.814009999999996 50.507138999999995,47.893550000000005 48.431359,48.953010000000006 46.429429,49.99826999999999 44.502189,51.034729999999996 42.649259,52.06734 40.869489,53.10058000000001 39.161249,54.13856 37.522629,55.18504 35.951639,56.24352999999999 34.446239000000006,57.31733 33.004499,58.409589999999994 31.624589,59.52334999999999 30.304839,60.66163 29.043049,61.826820000000005 27.834209,63.01848 26.673159000000002,64.23524 25.555469000000002,65.47561999999999 24.477279,66.73804999999999 23.435229,68.02078 22.426339000000002,69.32193000000001 21.447959,70.63947999999999 20.497729,71.97122999999999 19.573529,73.31486000000001 18.673439,74.66794 17.795729,76.02792 16.939269,77.3922 16.105119000000002,78.75837 15.294779,80.12434999999999 14.509485,81.48829 13.750235,82.84862000000001 13.01783,84.20401 12.312894,85.55332 11.635898000000001,86.89562 10.98719,88.23016 10.367013,89.55633 9.775528,90.87366 9.212827,92.1818 8.678954000000001,93.4805 8.173915000000001,94.76958 7.6976890000000004,96.04896 7.250242999999999,97.31862 6.8315339999999996,98.57858 6.44152,99.82894 6.0801701999999995,101.0698 5.7474631,102.30133000000001 5.4433982,103.5237 5.16799783,104.73715 4.9213124,105.94188 4.7034242,107.13818 4.5144513,108.3263 4.354551799999999,109.50653 4.223928,110.67918 4.122828999999999,111.84456 4.051558,113.00301 4.010474,114.15486 4.0,115.300483 4.020626,116.440239 4.072918,117.574516 4.1575239999999996,118.703718 4.2751841,119.828264 4.4267392,120.948597 4.6131442,122.06518 4.8354811,123.178506 5.0949754,124.2890957 5.3929706,125.3975058 5.7300074,126.504287 6.1058221,127.609926 6.520213,128.714853 6.973065,129.819435 7.464344,130.92398400000002 7.994083,132.028745 8.562373000000001,133.133898 9.169354,134.239546 9.815199,135.34571 10.500102,136.45232 11.224261,137.55919 11.987855999999999,138.66603 12.791025999999999,139.77239 13.633837999999999,140.87767 14.516254,141.98107 15.438078999999998,143.0816 16.398929000000003,144.17799 17.398149,145.2687 18.434859,146.35199 19.508958999999997,147.42694 20.621029,148.49331999999998 21.771619,149.55102 22.961329000000003,150.60003 24.190789000000002,151.64045 25.460689,152.67254 26.771829000000004,153.69669 28.125119,154.71348 29.521649000000004,155.72367 30.962729,156.72827 32.449989,157.72824 33.985269,158.7244 35.570489,159.71761 37.207648999999996,160.70882 38.898829,161.69903 40.646139000000005,162.68935 42.451719000000004,163.68095 44.317659,164.67513 46.245979,165.67327 48.238519,166.67687999999998 50.296819,167.68759 52.421999,168.70711 54.614559,169.73728 56.874339,170.77975 59.202209,171.83403 61.599929,172.89829 64.069439,173.97046 66.61293900000001,175.04835 69.233059,176.12965 71.933049,177.21195 74.717079,178.2928 77.59056899999999,179.36977000000002 80.56066899999999,180.44049 83.636309,181.50382 86.82641899999999,182.56214 90.140119,183.61874 93.586649,184.67723 97.174829,185.74163 100.912359,186.81635 104.804599,187.90616 108.85337899999999,189.01509 113.058679,190.14185 117.41917899999999,191.28274 121.931879,192.43340999999998 126.591979,193.58899 131.393579,194.74425000000002 136.329979,195.89379 141.394979,197.03227 146.583579,198.15467 151.893479,199.25644 157.32627900000003,200.33375 162.88757900000002,201.38437 168.584179,202.40749 174.42217900000003,203.40222 180.406879,204.3674 186.542179,205.30165 192.830279,206.20334 199.270679,207.0706 205.85927900000002,207.90134 212.588279,208.69296 219.44867900000003,209.44189 226.43207900000002,210.14472 233.531979,210.79847999999998 240.744379,211.40066000000002 248.068879,211.94911 255.509479,212.442 263.075379,212.87837 270.77747899999997,213.25986 278.624579,213.58865 286.62187900000004,213.86708 294.769779,214.09771999999998 303.062679,214.2836 311.487279,214.42789 320.02477899999997,214.5304 328.655479,214.58924000000002 337.360779,214.60289999999998 346.123579,214.57020999999997 354.929179,214.49034999999998 363.765779,214.36271 372.624679,214.18689 381.500679,213.96255 390.39227900000003,213.68935 399.30167900000004,213.36682 408.234879,212.99426 417.201379,212.57146999999998 426.211079,212.0992 435.272779,211.57824 444.394079,211.00934999999998 453.580879,210.39332000000002 462.837879,209.731 472.167979,209.02339999999998 481.572179,208.27175 491.049279,207.47752 500.59577900000005,206.64253000000002 510.205379,205.76898 519.869779,204.8585 529.5805790000001,203.91206 539.330079,202.93061 549.1114789999999,201.91514999999998 558.9190789999999,200.86666 568.748079,199.78607 578.594879,198.67426 588.457079,197.53204 598.333579,196.36006 608.224479,195.15886999999998 618.131079,193.9288 628.054279,192.67007 637.9946789999999,191.38298 647.9517789999999,190.0679 657.9245789999999,188.72535 667.9110789999999,187.35595 677.9085789999999,185.96048000000002 687.913679,184.53984 697.9218789999999,183.09511 707.928079,181.62752 717.9266789999999,180.13819 727.912079,178.62778 737.880079,177.09681 747.8274789999999,175.54565 757.7518789999999,173.97456 767.6521789999999,172.38364 777.527979,170.77285 787.380279,169.14199 797.2105789999999,167.49069 807.0213789999999,165.81844999999998 816.8157789999999,164.12482 826.5942789999999,162.41028 836.3527789999999,160.67618 846.0828789999999,158.92472 855.7715789999999,157.15896 865.4021789999999,155.38276 874.9547789999999,153.60077 884.406779,151.81822 893.7342789999999,150.04077 902.912879,148.27431 911.9189789999999,146.52453 920.7290789999998,144.79577 929.319279,143.09203 937.6668789999999,141.41749 945.7520789999999,139.77617 953.5598789999999,138.17161 961.079979,136.60674 968.3085789999999,135.08416 975.248579,133.605454 981.9073789999999,132.171001 988.296079,130.780347 994.427279,129.432434 1000.314979,128.125812 1005.234079,127.0249" stroke="black" stroke-width="2.0" /></svg>