<?xml version="1.0" encoding="utf-8" ?>
<svg baseProfile="full" height="134.00281999999999" version="1.1" width="1011.994980517" xmlns="http://www.w3.org/2000/svg" xmlns:ev="http://www.w3.org/2001/xml-events" xmlns:xlink="http://www.w3.org/1999/xlink"><defs /><polygon fill="none" points="1003.994980517,63.74141 999.996780517,63.181737 995.187880517,62.512061 990.151780517,61.814838 984.8737805170001,61.088581 979.339880517,60.332046 973.5390805170001,59.54442 967.4647805170001,58.72558 961.117480517,57.876408 954.5075805170001,56.999148 947.6585805170001,56.097685 940.6047805170001,55.17715 933.3856805170001,54.24315 926.0414805170001,53.30119 918.6083805170001,52.35608 911.115080517,51.411500000000004 903.579580517,50.4697 896.008580517,49.53145 888.4028805170001,48.59698 880.763580517,47.66657 873.0925805170001,46.74056 865.392380517,45.8194 857.666280517,44.9036 849.9183805170001,43.99376 842.1532805170001,43.09044 834.375280517,42.194050000000004 826.587880517,41.304919999999996 818.7937805170001,40.42326 810.995180517,39.549189999999996 803.193380517,38.68275 795.3887805170001,37.82391 787.581680517,36.97271 779.772380517,36.129189999999994 771.960980517,35.29341 764.147780517,34.46541 756.3330805170001,33.64524 748.517180517,32.83297 740.700380517,32.02867 732.8829805170001,31.23243 725.065380517,30.444360000000003 717.248180517,29.664540000000002 709.431780517,28.89309 701.6166805170001,28.130100000000006 693.803580517,27.375750000000004 685.992780517,26.63028 678.1843805170001,25.893909999999998 670.3784805170001,25.16686 662.574680517,24.4493 654.772380517,23.741410000000002 646.970980517,23.043309999999998 639.169780517,22.35496 631.368280517,21.67629 623.566580517,21.00728 615.765080517,20.34794 607.9644805170001,19.698299999999996 600.165780517,19.05843 592.3703805170001,18.42857 584.5792805170001,17.80912 576.7927805170001,17.200449999999996 569.010980517,16.602890000000002 561.2333805170001,16.016710000000003 553.458980517,15.442170000000004 545.6863805170001,14.879430000000006 537.914480517,14.328470000000003 530.143180517,13.789279999999998 522.373080517,13.26191 514.6056805169999,12.746489999999994 506.84348051700005,12.243160000000003 499.089580517,11.75217 491.347480517,11.274259999999998 483.619280517,10.810449999999996 475.90538051699997,10.36166 468.204780517,9.928700000000006 460.514880517,9.51229 452.83158051699996,9.113100000000003 445.149380517,8.731470000000002 437.463980517,8.366709999999998 429.773780517,8.018080000000005 422.080380517,7.684939999999997 414.38838051700003,7.3667799999999986 406.70568051699996,7.063180000000003 399.042980517,6.773879999999998 391.412280517,6.50085 383.82258051699995,6.247950000000003 376.278880517,6.018799999999999 368.78198051699997,5.816749999999999 361.329480517,5.6449 353.915480517,5.506210000000003 346.531280517,5.4020399999999995 339.166980517,5.324729999999995 331.813480517,5.263620000000003 324.462480517,5.208199999999998 317.106380517,5.148030000000006 309.738180517,5.0726100000000045 302.351580517,4.971299999999999 294.940880517,4.839199999999998 287.502380517,4.68994 280.03608051699996,4.541080000000001 272.54588051699994,4.408549999999998 265.039780517,4.295570000000005 257.528680517,4.200479999999999 250.02648051699998,4.121639999999999 242.548380517,4.059909999999995 235.106780517,4.0183800000000005 227.710680517,4.0 220.365880517,4.007460000000002 213.077180517,4.043130000000005 205.849380517,4.109190000000005 198.687680517,4.207590000000003 191.59798051699997,4.340180000000004 184.586980517,4.508589999999998 177.66248051699998,4.714120000000001 170.832680517,4.958120000000001 164.10608051699998,5.242539999999998 157.49058051699998,5.568920000000006 150.993680517,5.938299999999998 144.62248051699999,6.351300000000002 138.385480517,6.807989999999997 132.292080517,7.307720000000003 126.351680517,7.849199999999996 120.57358051700001,8.4317 114.96718051699999,9.055010000000003 109.540480517,9.718000000000004 104.299580517,10.418759999999999 99.248620517,11.154809999999998 94.39013051699999,11.92369 89.72518051700001,12.722529999999999 85.253080517,13.548090000000002 80.971360517,14.397100000000002 76.87735051700001,15.26766 72.968310517,16.15811 69.240600517,17.06624 65.689410517,17.989540000000005 62.30884051700001,18.92539 59.092340517,19.871320000000004 56.03274051700001,20.8251 53.122290517,21.784710000000004 50.353330517,22.74893 47.718810517,23.71754 45.211750517,24.690130000000003 42.825370517,25.666180000000004 40.553420517,26.644940000000005 38.390060517,27.62567 36.329410517,28.607690000000005 34.365720517,29.59044 32.493480516999995,30.573519999999995 30.707940517,31.557299999999998 29.005040516999998,32.54214 27.381060516999998,33.52808 25.832500516999996,34.51498 24.356040517,35.50251 22.948630516999998,36.490210000000005 21.608370516999997,37.477199999999996 20.333410517,38.462779999999995 19.121500517,39.44659 17.970160517,40.42852 16.876830517000002,41.40869 15.838980517000001,42.38735 14.854170517,43.364869999999996 13.920073516999999,44.34167 13.034328516999999,45.318479999999994 12.194415517,46.296369999999996 11.398478517000001,47.27567 10.645196516999999,48.25593 9.933545516999999,49.23612 9.262612517,50.21473 8.631580517,51.1899 8.041211517,52.1585 7.492773517,53.117419999999996 6.986611517,54.06474 6.522449517,54.999449999999996 6.099644517,55.921242 5.717381517,56.830282 5.374802517,57.727096 5.071099517,58.612456 4.805582417,59.487311 4.577717917,60.352741 4.387170617,61.209925 4.233830217,62.060133 4.117842617,62.904722 4.039643387,63.745141 4.0,64.5829541 4.0,65.41986589999999 4.039643387,66.257679 4.117842617,67.098098 4.233830217,67.942687 4.387170617,68.792895 4.577717917,69.650079 4.805582417,70.515509 5.071099517,71.390364 5.374802517,72.275724 5.717381517,73.172538 6.099644517,74.08157800000001 6.522449517,75.00337 6.986611517,75.93808 7.492773517,76.8854 8.041211517,77.84432 8.631580517,78.81292 9.262612517,79.78809 9.933545516999999,80.7667 10.645196516999999,81.74689000000001 11.398478517000001,82.72715 12.194415517,83.70645 13.034328516999999,84.68434 13.920073516999999,85.66114999999999 14.854170517,86.63795 15.838980517000001,87.61547 16.876830517000002,88.59413 17.970160517,89.5743 19.121500517,90.55623 20.333410517,91.54004 21.608370516999997,92.52562 22.948630516999998,93.51261 24.356040517,94.50031 25.832500516999996,95.48784 27.381060516999998,96.47474 29.005040516999998,97.46068 30.707940517,98.44552 32.493480516999995,99.42930000000001 34.365720517,100.41238 36.329410517,101.39513 38.390060517,102.37715 40.553420517,103.35788 42.825370517,104.33663999999999 45.211750517,105.31269 47.718810517,106.28528 50.353330517,107.25389 53.122290517,108.21811 56.03274051700001,109.17772 59.092340517,110.13149999999999 62.30884051700001,111.07742999999999 65.689410517,112.01328 69.240600517,112.93657999999999 72.968310517,113.84470999999999 76.87735051700001,114.73516000000001 80.971360517,115.60571999999999 85.253080517,116.45473 89.72518051700001,117.28029000000001 94.39013051699999,118.07912999999999 99.248620517,118.84801 104.299580517,119.58406 109.540480517,120.28482 114.96718051699999,120.94781 120.57358051700001,121.57112000000001 126.351680517,122.15362 132.292080517,122.6951 138.385480517,123.19483 144.62248051699999,123.65152 150.993680517,124.06452 157.49058051699998,124.4339 164.10608051699998,124.76028 170.832680517,125.0447 177.66248051699998,125.2887 184.586980517,125.49423 191.59798051699997,125.66264 198.687680517,125.79523 205.849380517,125.89363 213.077180517,125.95969 220.365880517,125.99536 227.710680517,126.00282 235.106780517,125.98444 242.548380517,125.94291000000001 250.02648051699998,125.88118 257.528680517,125.80234 265.039780517,125.70724999999999 272.54588051699994,125.59427 280.03608051699996,125.46173999999999 287.502380517,125.31288 294.940880517,125.16362000000001 302.351580517,125.03152 309.738180517,124.93020999999999 317.106380517,124.85479 324.462480517,124.79462000000001 331.813480517,124.7392 339.166980517,124.67809 346.531280517,124.60078 353.915480517,124.49661 361.329480517,124.35792000000001 368.78198051699997,124.18607 376.278880517,123.98402 383.82258051699995,123.75487 391.412280517,123.50197 399.042980517,123.22894 406.70568051699996,122.93964 414.38838051700003,122.63604000000001 422.080380517,122.31788 429.773780517,121.98473999999999 437.463980517,121.63611 445.149380517,121.27135 452.83158051699996,120.88972 460.514880517,120.49053 468.204780517,120.07412 475.90538051699997,119.64116 483.619280517,119.19237000000001 491.347480517,118.72856 499.089580517,118.25065000000001 506.84348051700005,117.75966 514.6056805169999,117.25633 522.373080517,116.74091 530.143180517,116.21354 537.914480517,115.67435 545.6863805170001,115.12339 553.458980517,114.56065 561.2333805170001,113.98611 569.010980517,113.39993 576.7927805170001,112.80237 584.5792805170001,112.1937 592.3703805170001,111.57425 600.165780517,110.94439 607.9644805170001,110.30452 615.765080517,109.65487999999999 623.566580517,108.99554 631.368280517,108.32652999999999 639.169780517,107.64786000000001 646.970980517,106.95951 654.772380517,106.26141 662.574680517,105.55351999999999 670.3784805170001,104.83596 678.1843805170001,104.10891000000001 685.992780517,103.37254 693.803580517,102.62707 701.6166805170001,101.87271999999999 709.431780517,101.10973 717.248180517,100.33828 725.065380517,99.55846 732.8829805170001,98.77038999999999 740.700380517,97.97415000000001 748.517180517,97.16985 756.3330805170001,96.35758 764.147780517,95.53741 771.960980517,94.70940999999999 779.772380517,93.87363 787.581680517,93.03011000000001 795.3887805170001,92.17891 803.193380517,91.32007 810.995180517,90.45363 818.7937805170001,89.57956 826.587880517,88.6979 834.375280517,87.80877 842.1532805170001,86.91238 849.9183805170001,86.00906 857.666280517,85.09922 865.392380517,84.18342 873.0925805170001,83.26226 880.763580517,82.33625 888.4028805170001,81.40584 896.008580517,80.47137000000001 903.579580517,79.53312 911.115080517,78.59132 918.6083805170001,77.64674 926.0414805170001,76.70163 933.3856805170001,75.75967 940.6047805170001,74.82567 947.6585805170001,73.905135 954.5075805170001,73.003672 961.117480517,72.126412 967.4647805170001,71.27724 973.5390805170001,70.4584 979.339880517,69.670774 984.8737805170001,68.914239 990.151780517,68.187982 995.187880517,67.490759 999.996780517,66.821083 1003.994980517,66.26141" stroke="black" stroke-width="2.0" /></svg>