<?xml version="1.0" encoding="utf-8" ?>
<svg baseProfile="full" height="222.0798" version="1.1" width="1011.996143334" xmlns="http://www.w3.org/2000/svg" xmlns:ev="http://www.w3.org/2001/xml-events" xmlns:xlink="http://www.w3.org/1999/xlink"><defs /><polygon fill="none" points="1003.996143334,106.82990000000001 999.190743334,105.65460300000001 993.4409433339999,104.256902 987.455743334,102.811915 981.2229433339999,101.317879 974.7312433339999,99.77346700000001 967.972043334,98.17802 960.9401433339999,96.53185 953.635543334,94.83656 946.065143334,93.09533 938.241943334,91.31258 930.183543334,89.49355 921.910343334,87.64401000000001 913.4441433339999,85.7698 904.8057433339999,83.8764 896.013243334,81.96845 887.0824433339999,80.05018000000001 878.0297433339999,78.12583000000001 868.8717433339999,76.19955 859.6249433339999,74.27529 850.3046433339999,72.35667000000001 840.925343334,70.44692 831.499143334,68.54875000000001 822.036243334,66.66432 812.544443334,64.79524 803.028843334,62.94252 793.491843334,61.106700000000004 783.9346433339999,59.28819000000001 774.358743334,57.48748 764.765543334,55.70505 755.1567433339999,53.9414 745.5340433339999,52.197030000000005 735.899443334,50.47247000000001 726.255043334,48.768260000000005 716.603043334,47.08494 706.945843334,45.42305 697.2860433339999,43.783150000000006 687.626043334,42.16599000000001 677.968343334,40.57239000000001 668.3151433339999,39.003119999999996 658.668743334,37.458920000000006 649.030943334,35.94046 639.403743334,34.44837 629.788743334,32.98325 620.1875433339999,31.545630000000003 610.6015433339999,30.136030000000005 601.0318433339999,28.754890000000003 591.479743334,27.4028 581.946343334,26.080550000000002 572.432643334,24.788920000000005 562.940043334,23.5287 553.469743334,22.300650000000005 544.0229433339999,21.105490000000003 534.601143334,19.943939999999998 525.205643334,18.816670000000002 515.837743334,17.724339999999998 506.49894333400005,16.667569999999998 497.190743334,15.64697000000001 487.91454333400003,14.663399999999996 478.671743334,13.717820000000003 469.464043334,12.811149999999998 460.293043334,11.944249999999997 451.160043334,11.117950000000008 442.066943334,10.33299000000001 433.015043334,9.590099999999993 424.006143334,8.889899999999997 415.04174333400005,8.233100000000007 406.12324333400005,7.6200000000000045 397.252343334,7.051400000000001 388.43084333400003,6.528100000000009 379.66104333400006,6.051400000000001 370.945743334,5.622400000000013 362.288143334,5.242100000000008 353.691543334,4.911299999999997 345.159643334,4.630799999999994 336.69624333400003,4.4014000000000095 328.30534333400004,4.223300000000009 319.99104333400004,4.096999999999994 311.75714333400003,4.022600000000011 303.60774333399996,4.0 295.546643334,4.029300000000006 287.577843334,4.110500000000002 279.705443334,4.243799999999993 271.93334333399997,4.429000000000002 264.26534333399997,4.665700000000001 256.70504333400004,4.953400000000002 249.255643334,5.291300000000007 241.92074333400004,5.678900000000013 234.704243334,6.115499999999997 227.610543334,6.600499999999997 220.643843334,7.132500000000007 213.80834333400003,7.710200000000015 207.108143334,8.33189999999999 200.54634333400003,8.995900000000006 194.126143334,9.700360000000003 187.850143334,10.444029999999998 181.720143334,11.225220000000007 175.737643334,12.042140000000003 169.90304333400002,12.892859999999999 164.216243334,13.77534 158.676443334,14.687510000000003 153.282143334,15.62727000000001 148.031843334,16.592829999999992 142.92454333400002,17.58291 137.959743334,18.59612 133.13704333400003,19.63077 128.455643334,20.685040000000015 123.914743334,21.75694 119.51274333399999,22.84447 115.247943334,23.9456 111.117943334,25.058329999999998 107.120043334,26.180750000000003 103.251073334,27.31101000000001 99.507783334,28.44761000000001 95.886873334,29.589579999999998 92.384683334,30.736069999999998 88.997263334,31.88633 85.72047333399999,33.039649999999995 82.550093334,34.19540000000001 79.481863334,35.35300000000001 76.511643334,36.51203000000001 73.63571333399999,37.672610000000006 70.85070333399999,38.83493 68.15340333399999,39.99907 65.540743334,41.165000000000006 63.009773334,42.33261 60.557623334,43.501720000000006 58.181533334,44.672129999999996 55.878803334,45.84359 53.646823334000004,47.01583 51.483343334000004,48.188590000000005 49.386753334,49.36166 47.355393334000006,50.5349 45.387463334,51.70824 43.48111333400001,52.881620000000005 41.634433334,54.055080000000004 39.845513334,55.22862 38.112483334000004,56.40233 36.433473334000006,57.57627 34.806703334000005,58.750530000000005 33.230413334,59.92522 31.702923334,61.10045 30.222633334,62.27633000000001 28.787983334,63.45298 27.397773334,64.63088 26.051663333999997,65.81126 24.749513334,66.99523 23.491283334000002,68.18360000000001 22.276953334,69.37699 21.106503334,70.57577 19.979873334,71.78014999999999 18.896973334000002,72.99019000000001 17.857643334000002,74.20579000000001 16.861623334,75.42677 15.908613333999998,76.65273 14.998343334,77.88209 14.130443334,79.11274 13.304324334,80.34289000000001 12.519248333999998,81.57109 11.774365333999999,82.79621 11.068766334,84.01732000000001 10.401514334,85.23374000000001 9.771667334,86.44494 9.178302334000001,87.65057 8.620525334,88.85038 8.097486334,90.04425 7.608386334,91.23214 7.152484334,92.41409 6.729098334,93.59021 6.337612334,94.76066 5.977478334,95.92565 5.648213334,97.08542 5.349408334,98.24028 5.080723334,99.390533 4.8418916339999996,100.536546 4.632721834,101.6787 4.453099734,102.81740500000001 4.302990434,103.953104 4.182442534,105.08626600000001 4.091592224,106.217392 4.030668504,107.34701700000001 4.0,108.475712 4.0,109.604088 4.030668504,110.732783 4.091592224,111.862408 4.182442534,112.993534 4.302990434,114.12669600000001 4.453099734,115.262395 4.632721834,116.4011 4.8418916339999996,117.543254 5.080723334,118.689267 5.349408334,119.83952000000001 5.648213334,120.99438 5.977478334,122.15415 6.337612334,123.31914 6.729098334,124.48959 7.152484334,125.66571 7.608386334,126.84766 8.097486334,128.03555 8.620525334,129.22942 9.178302334000001,130.42923000000002 9.771667334,131.63486 10.401514334,132.84606 11.068766334,134.06248 11.774365333999999,135.28359 12.519248333999998,136.50871 13.304324334,137.73691 14.130443334,138.96706 14.998343334,140.19771 15.908613333999998,141.42707000000001 16.861623334,142.65303 17.857643334000002,143.87401 18.896973334000002,145.08961 19.979873334,146.29965 21.106503334,147.50403 22.276953334,148.70281 23.491283334000002,149.8962 24.749513334,151.08456999999999 26.051663333999997,152.26854 27.397773334,153.44892 28.787983334,154.62682 30.222633334,155.80347 31.702923334,156.97935 33.230413334,158.15458 34.806703334000005,159.32927 36.433473334000006,160.50353 38.112483334000004,161.67747 39.845513334,162.85118 41.634433334,164.02472 43.48111333400001,165.19818 45.387463334,166.37156 47.355393334000006,167.5449 49.386753334,168.71814 51.483343334000004,169.89121 53.646823334000004,171.06397 55.878803334,172.23621 58.181533334,173.40767 60.557623334,174.57808 63.009773334,175.74719 65.540743334,176.9148 68.15340333399999,178.08073000000002 70.85070333399999,179.24487 73.63571333399999,180.40719 76.511643334,181.56777 79.481863334,182.7268 82.550093334,183.8844 85.72047333399999,185.04015 88.997263334,186.19347 92.384683334,187.34373 95.886873334,188.49022000000002 99.507783334,189.63218999999998 103.251073334,190.76879 107.120043334,191.89905 111.117943334,193.02147000000002 115.247943334,194.13420000000002 119.51274333399999,195.23533 123.914743334,196.32286 128.455643334,197.39476 133.13704333400003,198.44903 137.959743334,199.48368 142.92454333400002,200.49689 148.031843334,201.48697 153.282143334,202.45253 158.676443334,203.39229 164.216243334,204.30446 169.90304333400002,205.18694 175.737643334,206.03766000000002 181.720143334,206.85458 187.850143334,207.63577 194.126143334,208.37944 200.54634333400003,209.0839 207.108143334,209.74790000000002 213.80834333400003,210.3696 220.643843334,210.94729999999998 227.610543334,211.47930000000002 234.704243334,211.9643 241.92074333400004,212.40089999999998 249.255643334,212.7885 256.70504333400004,213.1264 264.26534333399997,213.41410000000002 271.93334333399997,213.6508 279.705443334,213.836 287.577843334,213.9693 295.546643334,214.0505 303.60774333399996,214.0798 311.75714333400003,214.0572 319.99104333400004,213.9828 328.30534333400004,213.85649999999998 336.69624333400003,213.6784 345.159643334,213.449 353.691543334,213.1685 362.288143334,212.83769999999998 370.945743334,212.4574 379.66104333400006,212.0284 388.43084333400003,211.55169999999998 397.252343334,211.0284 406.12324333400005,210.4598 415.04174333400005,209.8467 424.006143334,209.18990000000002 433.015043334,208.48970000000003 442.066943334,207.74680999999998 451.160043334,206.96185 460.293043334,206.13555000000002 469.464043334,205.26865 478.671743334,204.36198000000002 487.91454333400003,203.4164 497.190743334,202.43283 506.49894333400005,201.41223000000002 515.837743334,200.35546 525.205643334,199.26313 534.601143334,198.13586 544.0229433339999,196.97431 553.469743334,195.77915000000002 562.940043334,194.55110000000002 572.432643334,193.29088000000002 581.946343334,191.99925000000002 591.479743334,190.67700000000002 601.0318433339999,189.32491 610.6015433339999,187.94377 620.1875433339999,186.53417000000002 629.788743334,185.09655 639.403743334,183.63143000000002 649.030943334,182.13934 658.668743334,180.62088 668.3151433339999,179.07668 677.968343334,177.50741 687.626043334,175.91381 697.2860433339999,174.29665 706.945843334,172.65675 716.603043334,170.99486000000002 726.255043334,169.31154 735.899443334,167.60733 745.5340433339999,165.88277 755.1567433339999,164.1384 764.765543334,162.37475 774.358743334,160.59232 783.9346433339999,158.79161 793.491843334,156.9731 803.028843334,155.13728 812.544443334,153.28456 822.036243334,151.41548 831.499143334,149.53105 840.925343334,147.63288 850.3046433339999,145.72313 859.6249433339999,143.80451 868.8717433339999,141.88025 878.0297433339999,139.95397 887.0824433339999,138.02962 896.013243334,136.11135000000002 904.8057433339999,134.2034 913.4441433339999,132.31 921.910343334,130.43579 930.183543334,128.58625 938.241943334,126.76722000000001 946.065143334,124.98447 953.635543334,123.24324 960.9401433339999,121.54795 967.972043334,119.90178 974.7312433339999,118.306333 981.2229433339999,116.761921 987.455743334,115.267885 993.4409433339999,113.82289800000001 999.190743334,112.425197 1003.996143334,111.2499" stroke="black" stroke-width="2.0" /></svg>