<?xml version="1.0" encoding="utf-8" ?>
<svg baseProfile="full" height="132.02583" version="1.1" width="1012.007551201" xmlns="http://www.w3.org/2000/svg" xmlns:ev="http://www.w3.org/2001/xml-events" xmlns:xlink="http://www.w3.org/1999/xlink"><defs /><polygon fill="none" points="1004.007551201,69.28791000000001 1000.785451201,69.05111900000001 996.9007512009999,68.75630140000001 992.8192512009999,68.43554710000001 988.523651201,68.08578500000002 983.996151201,67.70360400000001 979.219251201,67.28529300000001 974.1771512009999,66.82695700000001 968.8584512009999,66.32474100000002 963.258951201,65.77520900000002 957.3862512009999,65.17591700000001 951.2644512009999,64.52618900000002 944.935551201,63.82861800000001 938.4523512009999,63.088971000000015 931.870051201,62.31445500000001 925.2390512009999,61.51268200000001 918.598851201,60.69069200000001 911.975051201,59.85420600000001 905.3778512009999,59.00720000000001 898.8030512009999,58.15162000000001 892.2387512009999,57.28713000000001 885.674051201,56.41297000000001 879.1004512009999,55.52862000000001 872.511651201,54.63383000000001 865.903751201,53.72865000000001 859.2750512009999,52.81343000000001 852.6264512009999,51.888880000000015 845.961051201,50.95603000000001 839.2825512009999,50.01598000000001 832.594551201,49.06982000000001 825.900051201,48.11858000000001 819.201851201,47.16327000000001 812.5023512009999,46.204830000000015 805.803251201,45.244150000000005 799.106151201,44.282070000000004 792.4120512009999,43.31956000000001 785.721751201,42.35758000000001 779.0357512009999,41.39708000000002 772.354351201,40.43895000000001 765.6773512009999,39.484060000000014 759.004851201,38.53323000000001 752.3360512009999,37.58724000000001 745.670451201,36.646650000000015 739.007551201,35.71167000000001 732.3469512009999,34.78252000000001 725.6883512009999,33.85941000000001 719.0317512009999,32.94260000000001 712.377151201,32.03236000000001 705.7250512009999,31.12899000000001 699.0756512009999,30.23282000000001 692.429551201,29.34430000000001 685.7872512009999,28.463960000000014 679.148751201,27.592270000000013 672.5145512009999,26.72973000000001 665.884551201,25.87678000000001 659.258851201,25.033870000000007 652.637351201,24.20143000000001 646.019751201,23.379850000000012 639.405951201,22.569500000000012 632.795751201,21.770700000000012 626.188751201,20.983800000000016 619.584851201,20.20913000000001 612.983451201,19.44702000000001 606.3844512009999,18.697820000000014 599.787351201,17.961830000000006 593.191851201,17.23938000000001 586.5979512009999,16.530760000000008 580.005551201,15.836300000000016 573.415151201,15.156360000000014 566.827251201,14.49130000000001 560.242551201,13.841510000000014 553.6621512009999,13.207380000000008 547.087051201,12.58937000000001 540.518251201,11.98810000000001 533.9561512009999,11.404160000000012 527.4008512009999,10.838090000000008 520.851451201,10.290390000000016 514.3071512009999,9.761530000000015 507.76615120099996,9.251920000000013 501.22635120100006,8.761970000000012 494.68545120100003,8.291950000000007 488.142051201,7.842010000000016 481.596151201,7.412400000000012 475.049051201,7.003470000000007 468.50335120100004,6.6155900000000045 461.96305120100004,6.249220000000015 455.433451201,5.904800000000002 448.92095120100004,5.5829100000000125 442.431751201,5.285330000000002 435.969551201,5.014230000000012 429.535351201,4.771580000000014 423.127751201,4.559180000000012 416.74245120100005,4.378750000000011 410.373351201,4.232010000000017 404.011751201,4.120730000000009 397.647051201,4.046140000000008 391.26855120100004,4.006650000000022 384.867951201,4.0 378.439651201,4.024070000000009 371.980551201,4.076740000000015 365.490551201,4.155850000000001 358.972751201,4.259090000000015 352.433351201,4.3840000000000146 345.88155120100004,4.52891000000001 339.326551201,4.694210000000012 332.775851201,4.880530000000007 326.234851201,5.088480000000004 319.70695120100004,5.3186700000000116 313.19335120100004,5.5717300000000165 306.693451201,5.84837000000001 300.204851201,6.149330000000013 293.72375120099997,6.475020000000015 287.24655120100005,6.825440000000015 280.770651201,7.20056000000001 274.294051201,7.600370000000012 267.815551201,8.024850000000008 261.334651201,8.47391000000001 254.85175120100004,8.947440000000007 248.367951201,9.445290000000014 241.88475120100003,9.967470000000006 235.403651201,10.514080000000014 228.926151201,11.085180000000008 222.45385120100002,11.680850000000007 215.98795120100002,12.301120000000012 209.52995120100002,12.94604000000001 203.08095120100003,13.61561000000001 196.642151201,14.31000000000001 190.21495120100002,15.029920000000011 183.80065120100002,15.776150000000015 177.400451201,16.549430000000015 171.015851201,17.350490000000015 164.64815120100002,18.180020000000006 158.29875120100002,19.03867000000001 151.968951201,19.92705000000001 145.660251201,20.84591000000001 139.374651201,21.79633000000001 133.11405120100002,22.779310000000017 126.88095120099999,23.795780000000015 120.677751201,24.84653000000001 114.507251201,25.932260000000007 108.372151201,27.053520000000013 102.275461201,28.21075000000001 96.22181120100001,29.40467000000001 90.226331201,30.635390000000008 84.31860120099999,31.899450000000016 78.538911201,33.189670000000014 72.931571201,34.49680000000001 67.528631201,35.81562000000001 62.338941201,37.14523000000001 57.354761200999995,38.48748000000001 52.558871201,39.84615000000001 47.936431201,41.22505000000001 43.515341201,42.61595000000001 39.364061201,43.99380000000001 35.549151201,45.32787000000001 32.104061201,46.59367000000001 29.023731200999997,47.778520000000015 26.278221200999997,48.881760000000014 23.833341200999996,49.91805000000001 21.653691201,50.902450000000016 19.704321201,51.84529000000001 17.953581201,52.75379000000001 16.373511201,53.63338000000001 14.940481201,54.48812000000001 13.636985201,55.31977000000001 12.448689201,56.12953000000001 11.362860201,56.91886000000001 10.368616201,57.69051000000001 9.458960201,58.45797000000001 8.630042201,59.23550000000001 7.879367201,60.02827000000001 7.206291201,60.827061000000015 6.608161201,61.62332900000001 6.080917201,62.412205000000014 5.620269201,63.19116500000001 5.222273201,63.95915800000001 4.883581501,64.71604200000002 4.601539701,65.46225100000001 4.374219601,66.19858400000001 4.200429201,66.92609300000001 4.079733961,67.64602300000001 4.012503146,68.3597921 4.0,69.06900680000001 4.044204501,69.7755199 4.144776701,70.48151700000001 4.300370101,71.18908700000001 4.510568801,71.90005900000001 4.775815101,72.61605000000002 5.097356201,73.33846500000001 5.477223201,74.068475 5.918217201,74.80692300000001 6.423882201,75.55416000000001 6.998396201,76.30975200000002 7.646300201000001,77.07196400000001 8.371845201,77.836937 9.177639201,78.59737700000001 10.062875201,79.34221000000001 11.028781201000001,80.07036000000001 12.080744201,80.79301000000001 13.227944201,81.52474000000001 14.482491201,82.27001000000001 15.858331201,83.03101000000001 17.370851201,83.80989000000001 19.038261200999997,84.60883000000001 20.885441201,85.43096000000001 22.941701200999997,86.28046 25.239741201,87.16304000000001 27.815121200999997,88.08753000000002 30.703391200999995,89.06762 33.939841201,90.11445 37.55246120099999,91.22470000000001 41.541171201,92.38510000000001 45.866761200999996,93.57333000000001 50.460541201,94.76405000000001 55.259911200999994,95.93954000000001 60.248661201,97.09683000000001 65.440991201,98.23864 70.846851201,99.36677 76.463931201,100.48148 82.270581201,101.58083000000002 88.22494120100001,102.65878000000001 94.28216120100001,103.70776000000001 100.406061201,104.72309000000001 106.574251201,105.70351000000001 112.77915120099999,106.64996000000002 119.01875120099999,107.56334000000001 125.290951201,108.4445 131.593651201,109.29440000000001 137.924551201,110.114 144.281351201,110.90437000000001 150.661351201,111.66662000000001 157.06185120100002,112.40191000000002 163.480151201,113.11108000000002 169.91395120100003,113.7945 176.36125120100002,114.45260000000002 182.820451201,115.08586000000001 189.29015120100001,115.69485 195.76945120100004,116.28017000000001 202.25765120100002,116.84248000000001 208.754651201,117.38247000000001 215.260451201,117.90059000000001 221.774651201,118.39712 228.296751201,118.87232000000002 234.825651201,119.32642000000001 241.35975120100002,119.75964000000002 247.897351201,120.1722 254.436151201,120.56432000000001 260.97345120100005,120.93611000000001 267.507151201,121.28721000000002 274.035851201,121.61724000000001 280.559451201,121.92586000000001 287.07875120100005,122.21278000000001 293.595451201,122.47776000000002 300.112451201,122.72055000000002 306.633651201,122.94091 313.163451201,123.13900000000001 319.705351201,123.31558000000001 326.26065120100003,123.47137000000001 332.828751201,123.60704000000001 339.40685120100005,123.72325000000001 345.989851201,123.82067 352.570751201,123.89999 359.140251201,123.96174000000002 365.689151201,124.00449 372.210751201,124.02583000000001 378.701751201,124.02347 385.162251201,123.99524000000001 391.59485120100004,123.93898000000002 398.005151201,123.85253 404.40145120100004,123.73359000000002 410.79415120100003,123.58049000000001 417.19405120100004,123.39439000000002 423.60965120099996,123.17700000000002 430.04725120100005,122.92998 436.510851201,122.65505000000002 443.00205120100003,122.35400000000001 449.51995120099997,122.02881000000002 456.060651201,121.68166000000002 462.618151201,121.31425000000002 469.186251201,120.92719000000001 475.75995120100004,120.52100000000002 482.335451201,120.09614000000002 488.91025120100005,119.65305000000001 495.482951201,119.19210000000001 502.053851201,118.71357 508.62405120100004,118.21767000000001 515.1959512010001,117.7047 521.771251201,117.17508000000001 528.351651201,116.62921000000001 534.937951201,116.06756000000001 541.531051201,115.4906 548.131051201,114.89885000000001 554.7377512009999,114.29288000000001 561.3506512009999,113.67325000000001 567.968851201,113.04046000000001 574.591751201,112.39500000000001 581.218751201,111.73735 587.8493512009999,111.06799000000001 594.4831512009999,110.38739000000001 601.1199512009999,109.69604000000001 607.759251201,108.99438 614.401151201,108.28279 621.045451201,107.56156000000001 627.6920512009999,106.83098000000001 634.341151201,106.09131000000002 640.9928512009999,105.34283 647.647251201,104.58581000000001 654.304651201,103.82049 660.965451201,103.04717000000001 667.629851201,102.26628000000001 674.298351201,101.47824000000001 680.9714512009999,100.68352000000002 687.649451201,99.88255000000001 694.3329512009999,99.07578000000001 701.0222512009999,98.26365000000001 707.7179512009999,97.44661 714.4203512009999,96.62512000000001 721.129751201,95.79971 727.8455512009999,94.97093000000001 734.5671512009999,94.13941000000001 741.293451201,93.30584000000002 748.022951201,92.47095000000002 754.7535512009999,91.63552000000001 761.482951201,90.80043 768.209051201,89.96661000000002 774.9298512009999,89.13498000000001 781.6439512009999,88.30641000000001 788.349951201,87.48172000000001 795.047351201,86.66165000000001 801.7355512009999,85.84693000000001 808.414451201,85.03823000000001 815.0842512009999,84.23644000000002 821.744851201,83.44256000000001 828.396051201,82.65762000000001 835.037451201,81.88265000000001 841.668751201,81.11869000000002 848.2891512009999,80.36679000000001 854.897951201,79.62798000000001 861.4941512009999,78.90311500000001 868.0774512009999,78.19254400000001 874.648351201,77.49644500000001 881.208251201,76.81490400000001 887.759351201,76.147934 894.3048512009999,75.49547400000002 900.848551201,74.85741100000001 907.395251201,74.23370700000001 913.947651201,73.62687400000002 920.499651201,73.042382 927.033351201,72.486619 933.5204512009999,71.96640800000002 939.9243512009999,71.48841200000001 946.203251201,71.05845200000002 952.315051201,70.68085800000001 958.2220512009999,70.35780900000002 963.8959512009999,70.08740340000001 969.3220512009999,69.86535640000001 974.496751201,69.68685070000001 979.424651201,69.54701220000001 984.115451201,69.44120420000002 988.5819512009999,69.36518545000001 992.8383512009999,69.31517359000001 996.899351201,69.28784985492001 1000.779151201,69.28033132700001 1004.007551201,69.28791000000001" stroke="black" stroke-width="2.0" /></svg>