<?xml version="1.0" encoding="utf-8" ?>
<svg baseProfile="full" height="167.42337" version="1.1" width="1011.99997894582" xmlns="http://www.w3.org/2000/svg" xmlns:ev="http://www.w3.org/2001/xml-events" xmlns:xlink="http://www.w3.org/1999/xlink"><defs /><polygon fill="none" points="1003.99997894582,117.6433 1000.3634789458199,116.317792 995.96537894582,114.719841 991.3448789458199,113.072457 986.49217894582,111.381642 981.41607894582,109.645353 976.1256789458199,107.879475 970.6135789458199,106.0927 964.87507894582,104.28004 958.92017894582,102.44046999999999 952.76227894582,100.57956999999999 946.40797894582,98.70049 939.86257894582,96.80148 933.1405789458199,94.88118 926.26457894582,92.94297999999999 919.25837894582,90.99276 912.1431789458201,89.03587999999999 904.9370789458201,87.07821999999999 897.65487894582,85.12499 890.3080789458201,83.18003999999999 882.90647894582,81.24628999999999 875.45797894582,79.3261 867.9693789458199,77.42126999999999 860.44537894582,75.53311 852.88907894582,73.66238 845.30237894582,71.80906999999999 837.68797894582,69.97292999999999 830.04917894582,68.15386 822.39027894582,66.35227 814.71477894582,64.56885 807.0260789458199,62.804129999999994 799.3268789458199,61.058569999999996 791.6193789458199,59.33278 783.90577894582,57.6273 776.18797894582,55.94266 768.46797894582,54.279529999999994 760.7471789458199,52.638639999999995 753.02697894582,51.02066000000001 745.30867894582,49.42622999999999 737.59247894582,47.855959999999996 729.87777894582,46.310280000000006 722.16287894582,44.789370000000005 714.44557894582,43.292959999999994 706.72437894582,41.82042 698.9995789458201,40.37142 691.27267894582,38.945890000000006 683.5463789458199,37.544409999999985 675.82207894582,36.16781999999999 668.1002789458199,34.816720000000004 660.3797789458199,33.49145 652.6587789458199,32.19188999999999 644.9362789458199,30.917699999999996 637.21167894582,29.668679999999995 629.48547894582,28.4448 621.75887894582,27.246269999999996 614.03277894582,26.073459999999997 606.30797894582,24.926699999999997 598.5852789458199,23.80628 590.86497894582,22.712469999999996 583.14717894582,21.64551999999999 575.43157894582,20.605639999999994 567.71737894582,19.592969999999994 560.00387894582,18.607519999999994 552.29077894582,17.64909 544.57897894582,16.717600000000004 536.87087894582,15.813100000000006 529.1696789458199,14.9358 521.47867894582,14.086899999999986 513.8000789458199,13.267300000000006 506.13487894582005,12.477899999999991 498.48307894582,11.719499999999996 490.84407894582,10.992599999999996 483.21787894581996,10.297399999999996 475.60507894581997,9.634399999999985 468.00697894582,9.004000000000005 460.42527894581997,8.406899999999993 452.86177894581994,7.843899999999991 445.31767894582,7.315799999999996 437.79437894582,6.823299999999989 430.29287894581995,6.367199999999997 422.81397894582,5.948499999999996 415.35857894582,5.567999999999998 407.92727894582,5.226600000000005 400.52077894582,4.925099999999986 393.13937894582,4.66449999999999 385.78307894581997,4.445499999999996 378.45097894581994,4.2690000000000055 371.14197894582,4.135900000000007 363.85447894582,4.046499999999995 356.58787894581997,4.001099999999994 349.34257894582,4.0 342.12007894581996,4.043299999999988 334.92257894581996,4.131299999999996 327.75207894581996,4.265100000000004 320.60987894581996,4.445399999999992 313.49577894581995,4.673299999999998 306.40927894581995,4.9495000000000005 299.34907894581994,5.274699999999996 292.31477894581997,5.64909999999999 285.30617894581997,6.073099999999997 278.32367894582,6.547099999999986 271.36797894581997,7.071399999999997 264.44007894582,7.64609999999999 257.54107894582,8.271499999999989 250.67217894582,8.947599999999994 243.83477894581998,9.674599999999998 237.03057894582,10.452399999999997 230.26157894582002,11.280900000000003 223.53017894582,12.159899999999993 216.83897894582,13.089100000000002 210.19167894582,14.06819999999999 203.59307894582,15.096500000000006 197.04877894582,16.173100000000005 190.56517894581998,17.297399999999996 184.14747894581998,18.469549999999998 177.79997894582002,19.689710000000005 171.52487894582,20.958129999999997 165.32437894582,22.27427 159.20167894582,23.636300000000006 153.16257894582,25.04169999999999 147.21407894582,26.487340000000003 141.36467894582,27.969899999999996 135.62397894582,29.485839999999996 130.00147894582,31.031090000000006 124.50687894582,32.601219999999984 119.14927894582,34.19290000000001 113.93757894582001,35.80328 108.87887894582,37.42913 103.97898894581999,39.06712999999999 99.24210894582,40.71522999999999 94.67043894582,42.37218999999999 90.26374894582001,44.03683000000001 86.01991894582001,45.70796999999999 81.93595894582,47.38369 78.00936894582,49.06103 74.23797894582,50.736689999999996 70.61945894582,52.40729 67.15120894582,54.06961 63.830288945819994,55.72102999999999 60.652998945819995,57.35926 57.61485894582,58.98238 54.710798945819995,60.58875999999999 51.935368945819995,62.17670999999999 49.28329894582,63.74391 46.74984894582,65.28806 44.33047894582,66.80705 42.020678945819995,68.29903999999999 39.816168945819996,69.76291 37.713488945819996,71.19921 35.70882894582,72.60892 33.798018945820004,73.99309 31.976658945820002,75.3528 30.24026894582,76.68913 28.58459894582,78.00322 27.00593894582,79.29624 25.50072894582,80.56929 24.065468945819998,81.82334 22.696808945820003,83.05929 21.39151894582,84.27795 20.146628945819998,85.48013999999999 18.96051894582,86.66718 17.832128945820003,87.84055 16.760228945820003,89.00155 15.743438945820001,90.15133 14.78029894582,91.2909 13.86928794582,92.42116 13.008845945820001,93.54281999999999 12.19726194582,94.65593 11.432693945819999,95.76030999999999 10.713283945819999,96.85603 10.03720794582,97.94331 9.402715945819999,99.02252 8.808149945819999,100.09407999999999 8.25195994582,101.15852 7.73276394582,102.21631 7.24954894582,103.26744 6.8015929458199995,104.31144 6.38832794582,105.34747 6.00925194582,106.37441 5.66385294582,107.39093 5.35155694582,108.395592 5.071689945819999,109.386918 4.82374534582,110.363446 4.60811384582,111.324259 4.42504244582,112.269588 4.27453454582,113.20061199999999 4.15655414582,114.119205 4.07118530582,115.027774 4.01876368582,115.929175 4.0,116.82670209999999 4.01615336582,117.72378633999999 4.06930751582,118.6222595 4.16225234582,119.522848 4.29839774582,120.425587 4.48174344582,121.329756 4.71682284582,122.233773 5.0085939458199995,123.135047 5.36162894582,124.030056 5.77604394582,124.916038 6.2497809458199995,125.790818 6.780523945820001,126.652284 7.36576594582,127.49839 8.00287494582,128.32716 8.68924794582,129.1368 9.42349894582,129.92764 10.20512494582,130.70172 11.033452945819999,131.46116 11.907491945819999,132.20818 12.82579594582,132.94512 13.78630094582,133.67446 14.78736894582,134.39801 15.82978894582,135.11572 16.91478894582,135.82734 18.04365894582,136.53267 19.21776894582,137.2316 20.438668945819998,137.92412 21.70806894582,138.61038 23.02812894582,139.29088 24.40128894582,139.96642 25.83006894582,140.63796 27.31695894582,141.30662 28.86433894582,141.97369 30.47436894582,142.64071 32.149068945820005,143.30902 33.89144894582,143.97842 35.70494894582,144.64815 37.593228945819995,145.31743 39.560208945819994,145.98541 41.61016894582,146.65121 43.747848945819996,147.31396999999998 45.97857894582,147.97271 48.30802894582,148.62631 50.74224894582,149.27355 53.287598945819994,149.91307 55.950858945819995,150.5434 58.73927894582,151.16311 61.66073894581999,151.77106 64.72340894582,152.36623 67.93558894582,152.94767 71.30560894582001,153.51463999999999 74.84190894582,154.06635 78.55318894582,154.60129999999998 82.44765894582001,155.11791 86.53263894582,155.61482999999998 90.81427894582,156.091 95.29772894582,156.54444 99.98689894582,156.97222 104.88427894582,157.37162 109.99127894582,157.74027 115.30887894582001,158.076 120.83617894582001,158.37679 126.56987894582,158.64118 132.50447894582,158.86835 138.63307894582002,159.05724 144.94747894582,159.20698 151.43907894582,159.31745 158.09977894582002,159.38921 164.92067894582001,159.42337 171.89007894582,159.42173 178.99317894582,159.38674 186.21407894582,159.31935 193.53787894582,159.21948 200.95337894582,159.08728 208.45307894582,158.92323 216.03237894582,158.72818999999998 223.68797894582,158.50324 231.41807894582,158.24957999999998 239.22187894582,157.96926 247.09747894582,157.66497999999999 255.04117894582004,157.33974 263.04767894581994,156.99644 271.11117894582,156.63711999999998 279.22677894581994,156.26373999999998 287.39097894582,155.87828 295.60087894582,155.48269 303.85277894582,155.07891 312.14197894582003,154.66901000000001 320.46277894582,154.25501 328.80867894581996,153.8381 337.17407894581993,153.41925 345.55387894582,152.99937 353.94357894582,152.57904 362.33977894581994,152.15822 370.73927894582,151.73675 379.14027894581994,151.31446 387.54097894582,150.89114999999998 395.94037894582,150.46663999999998 404.33707894582,150.04074 412.73007894581997,149.61325 421.11867894581997,149.18386999999998 429.50237894582,148.75224 437.88157894581997,148.31796 446.25707894582,147.88066 454.62987894582,147.4402 463.00047894581996,146.99651 471.36917894581995,146.54959 479.73607894582,146.09939 488.10077894581997,145.64578 496.46337894581995,145.1886 504.82407894581996,144.72769 513.18307894582,144.2629 521.54117894582,143.7941 529.89957894582,143.32116 538.25997894582,142.84393 546.6244789458199,142.3624 554.99447894582,141.87700999999998 563.37037894582,141.38835 571.75067894582,140.89708 580.13337894582,140.40366 588.51657894582,139.90813 596.89947894582,139.41040999999998 605.2827789458199,138.91035 613.6676789458201,138.40824 622.05407894582,137.90494 630.43987894582,137.40149 638.82107894582,136.89905 647.19287894582,136.39898 655.5535789458199,135.90260999999998 663.90447894582,135.41102999999998 672.25017894582,134.92494 680.59557894582,134.44376 688.94197894582,133.96666 697.28727894582,133.49305999999999 705.62647894582,133.02313 713.95577894582,132.55823 722.27517894582,132.09965 730.58817894582,131.64837 738.9004789458199,131.20418 747.21587894582,130.76626 755.5358789458201,130.33389 763.85967894582,129.90663 772.18607894582,129.48432 780.51397894582,129.06684 788.8427789458199,128.65406000000002 797.17207894582,128.24581 805.50177894582,127.84188999999999 813.83127894582,127.44211899999999 822.15967894582,127.046032 830.48377894582,126.653083 838.79787894582,126.262891 847.09497894582,125.875987 855.3688789458199,125.493477 863.61427894582,125.116354 871.82587894582,124.745077 879.9962789458199,124.379908 888.11597894582,124.021132 896.17117894582,123.668949 904.1424789458199,123.323764 912.00737894582,122.987343 919.74407894582,122.66271599999999 927.33267894582,122.350976 934.7505789458199,122.04689499999999 941.96957894582,121.744778 948.96207894582,121.44053699999999 955.70557894582,121.131192 962.18487894582,120.811983 968.39157894582,120.47697199999999 974.32437894582,120.120471 979.9915789458199,119.736887 985.40467894582,119.32799399999999 990.56667894582,118.90209999999999 995.47857894582,118.4630127 1000.14847894582,118.0227211 1003.99997894582,117.6433" stroke="black" stroke-width="2.0" /></svg>