<?xml version="1.0" encoding="utf-8" ?>
<svg baseProfile="full" height="92.0173" version="1.1" width="1011.992847939" xmlns="http://www.w3.org/2000/svg" xmlns:ev="http://www.w3.org/2001/xml-events" xmlns:xlink="http://www.w3.org/1999/xlink"><defs /><polygon fill="none" points="1003.992847939,43.16865 1000.944747939,42.885301000000005 997.2560479389999,42.543661 993.362847939,42.184554000000006 989.244147939,41.806302 984.877347939,41.407135000000004 980.2394479389999,40.985283 975.3084479389998,40.539134000000004 970.0660479389999,40.067502000000005 964.5030479389999,39.570038000000004 958.6251479389999,39.047788000000004 952.4612479389999,38.503854000000004 946.1338479389999,37.949448000000004 939.9107479389999,37.408094000000006 933.755347939,36.876431000000004 927.612347939,36.349581 921.440047939,35.824001 915.2089479389999,35.297224 908.900747939,34.767829000000006 902.539447939,34.237932 896.2338479389999,33.71658 889.9820479389999,33.203500000000005 883.7697479389999,32.69739 877.584247939,32.197160000000004 871.414847939,31.701850000000004 865.252247939,31.210690000000003 859.088347939,30.722990000000003 852.9160479389999,30.238190000000003 846.729547939,29.755830000000003 840.5241479389999,29.27552 834.2959479389999,28.79701 828.0423479389999,28.32009 821.7619479389999,27.84467 815.454347939,27.37075 809.120547939,26.898430000000005 802.7630479389999,26.42791 796.3857479389999,25.959490000000002 790.0015479389999,25.49416 783.627947939,25.033170000000002 777.261947939,24.576340000000002 770.9005479389999,24.123410000000003 764.5409479389999,23.674200000000003 758.180547939,23.228530000000003 751.8172479389999,22.78628 745.4494479389999,22.347330000000003 739.0757479389999,21.911600000000004 732.695147939,21.47905 726.3069479389999,21.049660000000003 719.919347939,20.62397 713.5390479389999,20.202450000000002 707.1655479389999,19.785060000000005 700.7981479389999,19.371740000000003 694.435647939,18.962440000000004 688.077047939,18.557140000000004 681.7213479389999,18.15584 675.3675479389999,17.758530000000004 669.0149479389999,17.36521 662.6628479389999,16.975910000000002 656.3106479389999,16.590640000000004 649.9577479389999,16.209430000000005 643.6038479389999,15.832310000000003 637.248647939,15.459320000000002 630.891747939,15.090520000000001 624.533047939,14.725960000000004 618.172547939,14.365690000000004 611.8103479389999,14.009780000000003 605.446547939,13.6583 599.0812479389999,13.311320000000006 592.7148479389999,12.968930000000004 586.3476479389999,12.631220000000006 579.979847939,12.298260000000006 573.6116479389999,11.970130000000005 567.243447939,11.646920000000001 560.875147939,11.328710000000008 554.5072479389999,11.015570000000004 548.1396479389999,10.707570000000004 541.772647939,10.404790000000006 535.4063479389999,10.10730000000001 529.040747939,9.815170000000002 522.676047939,9.528470000000006 516.3122479389999,9.247259999999997 509.949447939,8.971629999999998 503.587547939,8.701619999999998 497.226747939,8.437330000000003 490.86684793899997,8.178900000000006 484.50784793900004,7.926500000000004 478.149947939,7.6802900000000065 471.792947939,7.4404400000000095 465.436847939,7.207100000000004 459.081747939,6.9804400000000015 452.727547939,6.76061 446.374247939,6.547790000000006 440.021847939,6.3421400000000006 433.670347939,6.143810000000009 427.319747939,5.952959999999997 420.969947939,5.769760000000005 414.620947939,5.594380000000001 408.272847939,5.426960000000001 401.92544793900004,5.2676700000000025 395.578847939,5.116700000000002 389.23304793899996,4.974260000000001 382.88794793899996,4.840580000000003 376.54384793900005,4.7158700000000024 370.20054793900005,4.600370000000005 363.858247939,4.494290000000007 357.517047939,4.397860000000001 351.176947939,4.311300000000003 344.83824793900004,4.234819999999999 338.501047939,4.1686499999999995 332.16534793899996,4.113000000000007 325.83154793899996,4.068100000000001 319.499747939,4.034149999999997 313.170147939,4.011390000000006 306.84304793900003,4.0 300.518647939,4.000220000000006 294.19714793900005,4.01238 287.878847939,4.036900000000003 281.563847939,4.074230000000007 275.252247939,4.124800000000008 268.944047939,4.189040000000006 262.639247939,4.267390000000006 256.337647939,4.360280000000003 250.039047939,4.468140000000005 243.743247939,4.591430000000003 237.450347939,4.730620000000002 231.160347939,4.886180000000003 224.87354793900002,5.058570000000003 218.590547939,5.248230000000007 212.31184793900002,5.455590000000001 206.03834793899998,5.681090000000005 199.77094793900002,5.925150000000002 193.510947939,6.188490000000002 187.259247939,6.472030000000004 181.016347939,6.776690000000002 174.782647939,7.1033800000000085 168.558147939,7.453040000000001 162.342547939,7.826610000000002 156.135247939,8.225050000000003 149.935447939,8.6494 143.742347939,9.101240000000004 137.556147939,9.582419999999999 131.378147939,10.094700000000003 125.211347939,10.639670000000002 119.05944793900001,11.218740000000004 112.927647939,11.83307 106.82194793900001,12.483570000000007 100.749617939,13.170860000000001 94.718627939,13.895830000000004 88.732757939,14.660330000000002 82.788617939,15.467090000000002 76.876167939,16.32009 70.98190793900001,17.22915 65.120187939,18.206680000000002 59.351877939,19.255190000000002 53.769847939,20.364930000000005 48.473337939,21.51342 43.517977939,22.673520000000003 38.881337939000005,23.835480000000004 34.504607938999996,25.003130000000002 30.317077939,26.188850000000002 26.241017939000002,27.421260000000004 22.364477939,28.762410000000003 19.082817939,30.122420000000005 16.546007939,31.351130000000005 14.568857939,32.426610000000004 12.939861939,33.40028 11.581199939,34.284497 10.424732939,35.100315 9.425571939000001,35.863313000000005 8.553750939,36.584579000000005 7.788606939,37.272130000000004 7.115291939,37.932054 6.522951939,38.569051 6.003485938999999,39.186883 5.550807939,39.788641000000005 5.160364939,40.376921 4.828803239,40.953966 4.553760939,41.52176 4.333727639,42.082109 4.167964939,42.636701 4.056472659,43.187161200000006 4.0,43.7351055 4.0,44.2821945 4.056472659,44.8301388 4.167964939,45.380599000000004 4.333727639,45.935191 4.553760939,46.495540000000005 4.828803239,47.063334000000005 5.160364939,47.640379 5.550807939,48.228659 6.003485938999999,48.830417000000004 6.522951939,49.448249000000004 7.115291939,50.085246000000005 7.788606939,50.74517 8.553750939,51.432721 9.425571939000001,52.153987 10.424732939,52.916985000000004 11.581199939,53.732803000000004 12.939861939,54.617020000000004 14.568857939,55.59069 16.546007939,56.66617 19.082817939,57.89488 22.364477939,59.25489 26.241017939000002,60.59604 30.317077939,61.828450000000004 34.504607938999996,63.01417000000001 38.881337939000005,64.18182 43.517977939,65.34378000000001 48.473337939,66.50388000000001 53.769847939,67.65237 59.351877939,68.76211 65.120187939,69.81062 70.98190793900001,70.78815 76.876167939,71.69721000000001 82.788617939,72.55021 88.732757939,73.35697 94.718627939,74.12147 100.749617939,74.84644 106.82194793900001,75.53372999999999 112.927647939,76.18423000000001 119.05944793900001,76.79856000000001 125.211347939,77.37763000000001 131.378147939,77.9226 137.556147939,78.43488 143.742347939,78.91606 149.935447939,79.3679 156.135247939,79.79225 162.342547939,80.19069 168.558147939,80.56426 174.782647939,80.91391999999999 181.016347939,81.24061 187.259247939,81.54527 193.510947939,81.82881 199.77094793900002,82.09215 206.03834793899998,82.33621 212.31184793900002,82.56171 218.590547939,82.76907 224.87354793900002,82.95873 231.160347939,83.13112000000001 237.450347939,83.28668 243.743247939,83.42587 250.039047939,83.54916 256.337647939,83.65702 262.639247939,83.74991 268.944047939,83.82826 275.252247939,83.8925 281.563847939,83.94307 287.878847939,83.9804 294.19714793900005,84.00492 300.518647939,84.01707999999999 306.84304793900003,84.0173 313.170147939,84.00591 319.499747939,83.98315000000001 325.83154793899996,83.9492 332.16534793899996,83.9043 338.501047939,83.84865 344.83824793900004,83.78248 351.176947939,83.706 357.517047939,83.61944 363.858247939,83.52301 370.20054793900005,83.41693000000001 376.54384793900005,83.30143000000001 382.88794793899996,83.17672 389.23304793899996,83.04304 395.578847939,82.9006 401.92544793900004,82.74963 408.272847939,82.59034 414.620947939,82.42292 420.969947939,82.24754 427.319747939,82.06434000000002 433.670347939,81.87349 440.021847939,81.67516 446.374247939,81.46951 452.727547939,81.25669 459.081747939,81.03686 465.436847939,80.81020000000001 471.792947939,80.57686 478.149947939,80.33700999999999 484.50784793900004,80.0908 490.86684793899997,79.83840000000001 497.226747939,79.57997 503.587547939,79.31568000000001 509.949447939,79.04567 516.3122479389999,78.77004000000001 522.676047939,78.48883000000001 529.040747939,78.20213000000001 535.4063479389999,77.91 541.772647939,77.61251 548.1396479389999,77.30973 554.5072479389999,77.00173000000001 560.875147939,76.68859 567.243447939,76.37038000000001 573.6116479389999,76.04717 579.979847939,75.71904 586.3476479389999,75.38607999999999 592.7148479389999,75.04837 599.0812479389999,74.70598 605.446547939,74.35900000000001 611.8103479389999,74.00752 618.172547939,73.65161 624.533047939,73.29134 630.891747939,72.92678000000001 637.248647939,72.55798 643.6038479389999,72.18499 649.9577479389999,71.80787000000001 656.3106479389999,71.42666 662.6628479389999,71.04139 669.0149479389999,70.65209 675.3675479389999,70.25877 681.7213479389999,69.86146000000001 688.077047939,69.46016 694.435647939,69.05486 700.7981479389999,68.64556 707.1655479389999,68.23224 713.5390479389999,67.81485 719.919347939,67.39333 726.3069479389999,66.96764 732.695147939,66.53825 739.0757479389999,66.1057 745.4494479389999,65.66997 751.8172479389999,65.23102 758.180547939,64.78877 764.5409479389999,64.3431 770.9005479389999,63.89389 777.261947939,63.440960000000004 783.627947939,62.98413000000001 790.0015479389999,62.523140000000005 796.3857479389999,62.05781 802.7630479389999,61.58939000000001 809.120547939,61.11887 815.454347939,60.646550000000005 821.7619479389999,60.172630000000005 828.0423479389999,59.697210000000005 834.2959479389999,59.220290000000006 840.5241479389999,58.741780000000006 846.729547939,58.26147 852.9160479389999,57.77911 859.088347939,57.29431 865.252247939,56.806610000000006 871.414847939,56.31545 877.584247939,55.82014 883.7697479389999,55.31991000000001 889.9820479389999,54.8138 896.2338479389999,54.300720000000005 902.539447939,53.779368000000005 908.900747939,53.249471 915.2089479389999,52.720076000000006 921.440047939,52.193299 927.612347939,51.667719000000005 933.755347939,51.140869 939.9107479389999,50.609206 946.1338479389999,50.067852 952.4612479389999,49.513446 958.6251479389999,48.969512 964.5030479389999,48.447262 970.0660479389999,47.949798 975.3084479389998,47.478166 980.2394479389999,47.032017 984.877347939,46.610165 989.244147939,46.210998000000004 993.362847939,45.832746 997.2560479389999,45.473639000000006 1000.944747939,45.131999 1003.992847939,44.848650000000006" stroke="black" stroke-width="2.0" /></svg>