<?xml version="1.0" encoding="utf-8" ?>
<svg baseProfile="full" height="222.73655" version="1.1" width="1012.1841425" xmlns="http://www.w3.org/2000/svg" xmlns:ev="http://www.w3.org/2001/xml-events" xmlns:xlink="http://www.w3.org/1999/xlink"><defs /><polygon fill="none" points="1004.1841425,125.8125 999.4709425,124.306354 993.8436425,122.523003 988.0000425,120.688291 981.9294425,118.80079500000001 975.6220425,116.85958000000001 969.0697425,114.8644 962.2670425,112.81597000000001 955.2117425,110.71624 947.9071425,108.5686 940.3613425000001,106.37719 932.5869425,104.1468 924.5992425000001,101.88278 916.4165425000001,99.59079 908.0580425,97.27641 899.5426424999999,94.94478000000001 890.8881425000001,92.60135 882.1123425000001,90.25225 873.2333424999999,87.90344999999999 864.2683425,85.5606 855.2338425,83.22886 846.1442425,80.91271 837.0117425,78.61589000000001 827.8459425,76.34135 818.6535425000001,74.09118000000001 809.4380424999999,71.86666 800.1998425,69.66824 790.9367425,67.49556000000001 781.6465425,65.34795 772.3279425000001,63.22500000000001 762.9807425,61.126509999999996 753.6054425,59.05251 744.2040425,57.00325000000001 734.7793425,54.97919 725.3354425000001,52.980990000000006 715.8774425,51.00949 706.4116425,49.06570000000001 696.9454425,47.15086000000001 687.4862425,45.267030000000005 678.0401425,43.41636 668.6118425,41.60064000000001 659.2047425,39.82131 649.8207425,38.07949000000001 640.4604425,36.37604 631.1231425000001,34.71153000000001 621.8070425,33.08634000000001 612.5090425,31.500650000000007 603.2249425,29.954499999999996 593.9496425000001,28.447620000000015 584.6787425,26.979299999999995 575.4093425,25.548900000000003 566.1405425,24.1563 556.8729425,22.801500000000004 547.6088425,21.484799999999993 538.3521425,20.206700000000012 529.1084425,18.967600000000004 519.8848425,17.768500000000003 510.69004249999995,16.61 501.5336425,15.492900000000006 492.4262425,14.418899999999994 483.37674250000003,13.390600000000006 474.3915425,12.410300000000007 465.4746425,11.480000000000004 456.6277425,10.600999999999999 447.8507425,9.774599999999992 439.1418425,9.001599999999996 430.49764250000004,8.282700000000006 421.9132425,7.618499999999997 413.38284250000004,7.009700000000009 404.8993425,6.456699999999998 396.45484250000004,5.959900000000005 388.0424425,5.519300000000001 379.6582425,5.134399999999999 371.3009425,4.805400000000006 362.9722425,4.532300000000006 354.6759425,4.315300000000008 346.41864250000003,4.154300000000006 338.2087425,4.0493999999999915 330.0566425,4.0 321.9744425,4.0057000000000045 313.9752425,4.065399999999997 306.0727425,4.1777000000000015 298.2807425,4.341399999999993 290.6105425,4.558000000000007 283.0669425,4.830100000000002 275.6482425,5.160200000000003 268.3479425,5.550600000000003 261.1555425,6.003799999999998 254.05784250000002,6.522400000000005 247.0392425,7.1081999999999965 240.0873425,7.758399999999995 233.19674250000003,8.46860000000001 226.36884250000003,9.234099999999998 219.61124250000003,10.049600000000012 212.9363425,10.909000000000006 206.3604425,11.805400000000006 199.9027425,12.731800000000007 193.58164250000002,13.685299999999998 187.4106425,14.665899999999993 181.39704250000003,15.6738 175.5433425,16.709000000000003 169.8485425,17.771600000000007 164.30874250000002,18.86200000000001 158.9186425,19.980400000000003 153.67144249999998,21.127200000000002 148.5599425,22.302400000000006 143.5787425,23.504899999999992 138.7244425,24.7325 133.99524250000002,25.983000000000004 129.39034249999997,27.2539 124.90954249999999,28.54243000000001 120.55314249999999,29.845720000000014 116.32094249999999,31.160830000000004 112.21294249999998,32.48483 108.2287425,33.81486000000001 104.36714249999999,35.14819 100.62722249999999,36.48253 97.00738249999999,37.816959999999995 93.5053125,39.151089999999996 90.1178125,40.484700000000004 86.84105249999999,41.817679999999996 83.67088249999999,43.150040000000004 80.6029325,44.48183 77.6327925,45.81317 74.7560725,47.14396000000001 71.9687525,48.47382 69.2672925,49.802260000000004 66.6485025,51.128699999999995 64.10947250000001,52.45249000000001 61.6474725,53.772999999999996 59.2599625,55.08955999999999 56.9444625,56.40153000000001 54.6986425,57.708259999999996 52.5203225,59.00921000000001 50.4082225,60.30423999999999 48.3613025,61.593450000000004 46.378232499999996,62.87698 44.457562499999995,64.15504 42.597682500000005,65.42786000000001 40.7969325,66.69568000000001 39.0535925,67.95877 37.3659525,69.2174 35.7323025,70.47183000000001 34.1509425,71.72236000000001 32.6202325,72.96923000000001 31.138572500000002,74.21274 29.7043825,75.45312 28.3162025,76.69071 26.9730025,77.92655 25.6741225,79.16207 24.418992499999998,80.39845 23.2070625,81.63667000000001 22.0378225,82.87752 20.9107525,84.12163000000001 19.8253525,85.36948000000001 18.7810825,86.62143 17.777412499999997,87.87773 16.8137425,89.13853 15.8895325,90.40365 15.004512499999999,91.67155 14.1583535,92.94042 13.3506075,94.20873 12.5807155,95.47523000000001 11.848055500000001,96.73888 11.1519595,97.99882 10.4917455,99.25439 9.8667225,100.50506 9.2762145,101.7504 8.719565500000002,102.99013000000001 8.1961485,104.22404 7.7053735,105.45198 7.2466905,106.67391 6.8195965,107.88980000000001 6.4236315,109.09971 6.0583905,110.30372 5.7235185,111.50195000000001 5.418711500000001,112.69458 5.1437263,113.88177 4.8983719,115.06375 4.6825182000000005,116.24075 4.4960953,117.41304 4.3390962,118.580905 4.21157941,119.744643 4.11367238,120.904584 4.045575,122.061075 4.0075643,123.214487 4.0,124.365215 4.0233307,125.513679 4.0781018,126.660328 4.16496503,127.8056425 4.2845724,128.95014020000002 4.4368859,130.094361 4.6216285,131.238813 4.8386166,132.383963 5.087755,133.530235 5.3690305,134.678013 5.6825085,135.827643 6.0283275,136.979428 6.4066925,138.13363 6.8178785,139.29046 7.2622175,140.4501 7.7401015,141.61264 8.2519735,142.77814 8.7983235,143.94659000000001 9.379682500000001,145.11789 9.996612500000001,146.29185 10.649697499999998,147.46818000000002 11.339529500000001,148.64647 12.066694499999999,149.82618 12.8317495,151.0066 13.635201499999999,152.18685 14.4774725,153.36581 15.3588625,154.54217 16.2795225,155.7143 17.2394025,156.88037 18.2386025,158.03921 19.2774625,159.19042000000002 20.356282500000002,160.33368000000002 21.4753325,161.46875 22.6348625,162.59549 23.835122499999997,163.71386 25.0763725,164.82396 26.3589325,165.92599 27.683152500000002,167.02033 29.0495025,168.10752000000002 30.4586625,169.1882 31.9117825,170.26263 33.4102525,171.33093 34.9554625,172.39323000000002 36.5489025,173.44962 38.1921025,174.50024000000002 39.886632500000005,175.54518000000002 41.634122500000004,176.58454 43.4361925,177.61845 45.2945225,178.64697 47.210742499999995,179.67021 49.186452499999994,180.68822 51.223172500000004,181.70107000000002 53.3223125,182.70879000000002 55.4851125,183.71138000000002 57.7134425,184.70875999999998 60.009792499999996,185.70079 62.3767425,186.68737 64.81693250000001,187.66844 67.33307250000001,188.644 69.9279225,189.61413 72.60429249999999,190.57902 75.36501249999999,191.53893 78.2129425,192.4943 81.15100249999999,193.44562000000002 84.1824725,194.39238 87.3109925,195.33332000000001 90.54036249999999,196.26707 93.8745525,197.19214 97.31781249999999,198.10697 100.8747125,199.00987 104.5502425,199.89911 108.3500425,200.77311 112.2801425,201.63105000000002 116.34704249999999,202.47228 120.5570425,203.29619000000002 124.91614249999999,204.10219999999998 129.4304425,204.88984 134.10484250000002,205.65878 138.94384250000002,206.40885 143.9501425,207.14013 149.1248425,207.85303 154.46664250000003,208.54832 159.9714425,209.22608 165.63414250000002,209.88261 171.4489425,210.51327 177.40984250000002,211.1134 183.5112425,211.67837 189.7488425,212.20367 196.1210425,212.68495000000001 202.62964250000002,213.11794 209.28134250000002,213.49876 216.0865425,213.82658 223.0556425,214.1021 230.1977425,214.32617 237.5203425,214.49991 245.0283425,214.62479000000002 252.7225425,214.70287000000002 260.5985425,214.73655 268.6480425,214.7264 276.8609425,214.67241 285.22614250000004,214.57510000000002 293.73154250000005,214.4355 302.36524249999997,214.25515000000001 311.1152425,214.03582 319.9701425,213.7778 328.91814250000004,213.48077 337.9480425,213.14457 347.04884250000003,212.76927 356.2104425,212.35505 365.4237425,211.90224 374.68104250000005,211.41126 383.97614250000004,210.88255 393.3044425,210.31657 402.66314250000005,209.71374 412.0513425,209.07441 421.46964249999996,208.39892 430.91864250000003,207.68763 440.3992425,206.94088 449.91254250000003,206.15901000000002 459.4597425,205.34233999999998 469.0422425,204.49117999999999 478.6614425,203.60584 488.3191425,202.68657000000002 498.0172425,201.73364 507.75784250000004,200.74725999999998 517.5432425,199.72795000000002 527.3755424999999,198.67667999999998 537.2559425,197.59452 547.1850425,196.48271 557.1627425,195.34259 567.1881424999999,194.17566 577.2591425,192.98359 587.3730425,191.76823000000002 597.5259425,190.53161 607.7129424999999,189.27596 617.9282425,188.00301000000002 628.1656425,186.71354000000002 638.4195425,185.40825 648.6845425,184.08781 658.9555425,182.75287 669.2282425000001,181.40405 679.4985425,180.04193 689.7627425000001,178.66704 700.0178425,177.27989 710.2613425,175.8809 720.4908425,174.47037 730.7047425,173.04851000000002 740.9014425,171.6155 751.0796425000001,170.17146 761.2385425,168.7165 771.3774425,167.25068 781.4960424999999,165.77403 791.5942425000001,164.28654 801.6721425,162.78815 811.7303425,161.27881 821.7679425,159.75895 831.7801425,158.22974 841.7583425,156.69299 851.6898425,155.15116 861.5584425000001,153.60731 871.3451425,152.06501 881.0289425,150.52825 890.5873425,149.00129 899.9975425,147.48848 909.2378424999999,145.99414000000002 918.2856425,144.52275 927.1144425,143.07953 935.6953425,141.67013 944.0009425000001,140.29998 952.0079425,138.9738 959.6993425000001,137.695229 967.0667425,136.46632400000001 974.1113425,135.28742 980.8417425,134.15759500000001 987.2710425,133.075094 993.4153425,132.037664 999.2917424999999,131.04279200000002 1004.1841425,130.2125" stroke="black" stroke-width="2.0" /></svg>