<?xml version="1.0" encoding="utf-8" ?>
<svg baseProfile="full" height="112.2006" version="1.1" width="1012.02454248" xmlns="http://www.w3.org/2000/svg" xmlns:ev="http://www.w3.org/2001/xml-events" xmlns:xlink="http://www.w3.org/1999/xlink"><defs /><polygon fill="none" points="1004.02454248,66.53213 1000.9934424800001,66.0686595 997.3258424800001,65.507492 993.45554248,64.914858 989.3621424800001,64.28753999999999 985.02364248,63.622100999999994 980.41774248,62.915015 975.5235424800001,62.162935 970.3241424800001,61.363147999999995 964.81174248,60.514286999999996 958.99354248,59.617323 952.89964248,58.676722999999996 946.60924248,57.704809 940.37644248,56.74144 934.2080424800001,55.788399999999996 928.0497424800001,54.837959999999995 921.86224248,53.884769999999996 915.61994248,52.92560999999999 909.3111424800001,51.95948 902.99254248,50.99584999999999 896.7148424800001,50.042699999999996 890.45704248,49.09617 884.20214248,48.153 877.93804248,47.210629999999995 871.65674248,46.267219999999995 865.35524248,45.32155999999999 859.03464248,44.37316 852.70134248,43.42224999999999 846.36544248,42.47072 840.03654248,41.522059999999996 833.72154248,40.57946 827.42464248,39.64568 821.1471424800001,38.72304 814.88824248,37.81343 808.6444424800001,36.918369999999996 802.40984248,36.039 796.1772424800001,35.174989999999994 789.9401424800001,34.32442999999999 783.69374248,33.48553999999999 777.4345424800001,32.65678 771.1609424800001,31.83683 764.87284248,31.024579999999993 758.5718424800001,30.219129999999993 752.26134248,29.419779999999996 745.94574248,28.626689999999996 739.6295424799999,27.840939999999996 733.31584248,27.063559999999995 727.00704248,26.295429999999996 720.70434248,25.53729 714.4083424800001,24.789759999999994 708.11834248,24.053359999999998 701.8328424800001,23.32848 695.54984248,22.615139999999997 689.2671424800001,21.913069999999998 682.9834424800001,21.22204 676.69764248,20.541859999999993 670.4089424800001,19.87241999999999 664.1171424800001,19.213639999999998 657.8226424800001,18.565489999999997 651.52604248,17.927999999999997 645.2282424800001,17.30135 638.9302424800001,16.685859999999998 632.6327424799999,16.081829999999997 626.33634248,15.489549999999994 620.04134248,14.909279999999995 613.7479424800001,14.341259999999991 607.4560424800001,13.785699999999999 601.1655424800001,13.242809999999992 594.8761424800001,12.712769999999999 588.58744248,12.195749999999997 582.2993424800001,11.691899999999997 576.0115424800001,11.201419999999999 569.72424248,10.724479999999993 563.4373424800001,10.261289999999995 557.15104248,9.81203 550.86554248,9.376909999999995 544.58114248,8.956189999999992 538.29814248,8.550169999999994 532.01654248,8.15912999999999 525.73664248,7.783359999999995 519.45834248,7.423149999999993 513.18194248,7.0787599999999955 506.90704248,6.750479999999996 500.63384247999994,6.438569999999999 494.36204247999996,6.143369999999997 488.09184247999997,5.865259999999999 481.82324248,5.604619999999997 475.55664248,5.361869999999996 469.29254248,5.137389999999996 463.03164247999996,4.93159 456.77484247999996,4.7448499999999925 450.52294248,4.577559999999991 444.27714247999995,4.430239999999998 438.03794247999997,4.303509999999996 431.80564248,4.197999999999993 425.57974248,4.114279999999994 419.35964248,4.052970000000002 413.14394248,4.014669999999995 406.93084247999997,4.0 400.71814248,4.00958 394.50334248,4.043409999999994 388.28424248,4.10078 382.05914248,4.180979999999998 375.82714247999996,4.283279999999991 369.58774248,4.406969999999994 363.34104247999994,4.551319999999997 357.08784248,4.7155699999999925 350.82954247999993,4.898949999999999 344.56794248,5.10098 338.30484247999993,5.32161 332.04154248,5.560789999999997 325.77924248,5.818499999999993 319.51864248,6.094679999999997 313.26024248,6.389319999999998 307.00414248,6.702399999999997 300.75004247999993,7.033909999999999 294.49754247999994,7.383919999999996 288.24624248,7.752509999999994 281.99594247999994,8.139769999999999 275.74694248,8.54576999999999 269.49934248,8.970579999999998 263.25384248,9.414229999999996 257.01134248000005,9.876739999999991 250.77264248,10.35808999999999 244.53924248,10.858429999999991 238.31194248000003,11.378159999999994 232.09154248,11.917729999999992 225.87834248,12.477619999999995 219.67224248,13.058319999999995 213.47304248,13.660349999999994 207.27994248000002,14.284300000000002 201.09174248,14.930769999999995 194.90734248,15.600379999999994 188.72574248,16.293589999999995 182.54684248,17.010809999999992 176.37144248,17.752329999999994 170.20094248,18.518349999999998 164.03754247999998,19.308929999999997 157.88424247999998,20.12401 151.74484248000002,20.963369999999998 145.62354248,21.827099999999994 139.52444248,22.716429999999995 133.45004248,23.632839999999995 127.40184247999998,24.577949999999994 121.37954248,25.553559999999997 115.38204248,26.56161 109.40684248,27.604279999999996 103.45028248,28.684009999999994 97.50814247999999,29.803399999999996 91.58017247999999,30.964179999999992 85.67631247999999,32.16589999999999 79.81684248,33.40557 74.03079248,34.677859999999995 68.34858247999999,35.98 62.78872248,37.313179999999996 57.35658248,38.68039999999999 52.04751248,40.08632 46.85811248,41.537389999999995 41.83599248,43.03072999999999 37.083312480000004,44.541129999999995 32.70436248,46.03075 28.76054248,47.464499999999994 25.26029248,48.821569999999994 22.19703248,50.099639999999994 19.555102480000002,51.294779999999996 17.29068248,52.405649999999994 15.345562479999998,53.43666999999999 13.66509748,54.395039999999995 12.20628848,55.288599999999995 10.93199948,56.125679999999996 9.81128848,56.917548 8.819649479999999,57.696352999999995 7.9401294799999995,58.487137999999995 7.16551048,59.287440999999994 6.49260748,60.080414 5.91411048,60.85763299999999 5.422091480000001,61.615959 5.00961238,62.35487499999999 4.6711906800000005,63.075143 4.40284528,63.778136999999994 4.20204328,64.46552199999999 4.06765848,65.139106 4.0,65.8008021 4.00094564,66.45263109999999 4.07395149,67.0968292 4.21958718,67.73638 4.43607178,68.37447399999999 4.72325998,69.01392 5.08263948,69.65723799999999 5.51731648,70.306715 6.03208348,70.96435699999999 6.63352748,71.631699 7.33000848,72.30933399999999 8.13113448,72.99586099999999 9.04570848,73.685639 10.075514479999999,74.364254 11.21875048,75.01753199999999 12.49437448,75.659731 13.93798348,76.320522 15.58998248,77.01218 17.49790248,77.74336 19.71472248,78.52211 22.30363248,79.35059 25.32526248,80.22599 28.80685248,81.13949 32.74523248,82.08614 37.14355248,83.0592 41.970582480000004,84.03836 47.141452480000005,85.00010999999999 52.54473248,85.92684 58.09662248,86.81496 63.77259248,87.66872 69.56526247999999,88.48980999999999 75.46239247999999,89.27983 81.44565247999999,90.04059 87.49121248,90.77288999999999 93.57632247999999,91.47533 99.68463247999999,92.14738 105.80734248,92.78962 111.94324248,93.40357 118.09474248,93.99099 124.26364248,94.55359 130.45094247999998,95.09297 136.65694248000003,95.61068 142.88084247999998,96.10822999999999 149.12104248,96.58708999999999 155.37524248000003,97.0487 161.63984248000003,97.49419999999999 167.91154248,97.92367999999999 174.18764248000002,98.33704999999999 180.46584248,98.73427999999998 186.74484248000002,99.11541 193.02394248000002,99.48053999999999 199.30304248,99.82979 205.58274248,100.16334 211.86434248,100.48143999999999 218.14934248,100.78457 224.43854248,101.07320999999999 230.73274248,101.34779999999999 237.03204248,101.60879 243.33634248,101.85659 249.64514248,102.09161999999999 255.95744248000003,102.31425999999999 262.27184248,102.5248 268.58714247999995,102.72315 274.90244248,102.90921 281.21704248,103.0829 287.53064248,103.24413 293.84334248,103.39285 300.15534248,103.52897999999999 306.46744248,103.65248 312.78054247999995,103.76333 319.09534247999994,103.86158999999999 325.41204247999997,103.9473 331.73064248,104.02053000000001 338.05054248,104.08131 344.37064247999996,104.12969 350.68944247999997,104.16572 357.00514247999996,104.18946 363.31544248,104.2006 369.61864247999995,104.19829 375.91364247999996,104.18169 382.19984248,104.14996 388.47764248,104.10224 394.74804248,104.03771 401.01244248,103.9555 407.27324248,103.85475 413.53294248,103.73526 419.79414248,103.59756999999999 426.05884247999995,103.44224 432.32854248,103.26984999999999 438.60434248,103.08095 444.88684248,102.87612999999999 451.17624248,102.65596 457.47204247999997,102.42105000000001 463.77374248,102.17196999999999 470.08044248,101.90921999999999 476.39154247999994,101.63332 482.70634248,101.34476999999998 489.02444247999995,101.0441 495.34514248,100.73183 501.66814248,100.40848 507.99304248000004,100.07458 514.3195424800001,99.73048 520.6473424800001,99.37640999999999 526.97654248,99.01261 533.30684248,98.63929999999999 539.6385424800001,98.2567 545.97174248,97.86504 552.30664248,97.46450999999999 558.64374248,97.05533 564.9834424800001,96.63783 571.3260424800001,96.21238 577.67164248,95.77938999999999 584.02044248,95.33923999999999 590.37244248,94.89235 596.72744248,94.43915 603.0851424800001,93.98004999999999 609.44514248,93.51549 615.80714248,93.04574 622.1706424800001,92.57103 628.5355424800001,92.09159 634.90164248,91.60762 641.2689424800001,91.11932999999999 647.63754248,90.62693 654.0076424800001,90.13062 660.37944248,89.63059 666.75324248,89.12718 673.1295424799999,88.62074 679.50834248,88.1116 685.89004248,87.60014 692.27464248,87.08669 698.66234248,86.57163 705.05324248,86.05533 711.44724248,85.53817 717.8441424800001,85.02064 724.2427424800001,84.50326 730.64144248,83.9866 737.0388424800001,83.47124 743.4320424800001,82.95785 749.8178424800001,82.44712 756.19264248,81.93979999999999 762.55274248,81.43715999999999 768.89584248,80.94097 775.22124248,80.4529 781.53004248,79.97443 787.8247424799999,79.50692 794.1095424800001,79.0516 800.3903424800001,78.60961 806.6742424800001,78.18194 812.96924248,77.76786 819.28124248,77.36520999999999 825.61404248,76.97197 831.9687424800001,76.58623999999999 838.34384248,76.20626999999999 844.73494248,75.830411 851.1349424800001,75.457146 857.5338424800001,75.0852 863.92134248,74.714623 870.2910424800001,74.346066 876.64154248,73.97990399999999 882.9761424800001,73.616236 889.30274248,73.25489999999999 895.63374248,72.895485 901.98624248,72.53733199999999 908.37714248,72.179774 914.73654248,71.82655199999999 921.02974248,71.479157 927.26894248,71.136489 933.47984248,70.79673 939.7018424800001,70.457364 945.98964248,70.115054 952.34704248,69.769234 958.51184248,69.433826 964.39634248,69.11350499999999 969.97024248,68.809939 975.22654248,68.523541 980.1733424800001,68.253883 984.8280424800001,68.00004899999999 989.2119424800001,67.760888 993.34774248,67.53517719999999 997.25774248,67.3217186 1000.9627424800001,67.1193882 1004.02454248,66.95213" stroke="black" stroke-width="2.0" /></svg>