<?xml version="1.0" encoding="utf-8" ?>
<svg baseProfile="full" height="91.99866" version="1.1" width="1011.98951397" xmlns="http://www.w3.org/2000/svg" xmlns:ev="http://www.w3.org/2001/xml-events" xmlns:xlink="http://www.w3.org/1999/xlink"><defs /><polygon fill="none" points="1003.98951397,43.19933 1001.25841397,42.858505 997.9514139699999,42.447508 994.45731397,42.015265 990.7548139699999,41.559483 986.81971397,41.077619 982.6257139699999,40.566923 978.14461397,40.024559 973.34871397,39.447838000000004 968.21381397,38.834671 962.7263139699999,38.184304 956.89201397,37.498418 950.79881397,36.78822 944.8229139700001,36.097877000000004 938.96401397,35.427178 933.15081397,34.767877 927.3299139699999,34.114031 921.46031397,33.4613 915.5114139699999,32.80668 909.46321397,32.14848 903.3191139699999,31.48761 897.21471397,30.83891 891.18191397,30.20553 885.2022139699999,29.58522 879.25971397,28.976100000000002 873.34061397,28.376600000000003 867.43331397,27.785410000000002 861.52761397,27.20143 855.6146139699999,26.62373 849.6866139699999,26.05157 843.73751397,25.484320000000004 837.7618139699999,24.92152 831.7556139699999,24.36283 825.7161139699999,23.80804 819.64201397,23.257080000000002 813.5332139699999,22.71002 807.39161397,22.167070000000002 801.2206139699999,21.628580000000003 795.03841397,21.09622 788.8726139699999,20.57242 782.72001397,20.05694 776.5761139699999,19.54944 770.43701397,19.049650000000003 764.2994139699999,18.55738 758.16031397,18.07245 752.01711397,17.59475 745.86771397,17.12422 739.71051397,16.660829999999997 733.54411397,16.204590000000003 727.36781397,15.75556 721.18101397,15.313830000000003 714.98621397,14.87968 708.79721397,14.454160000000002 702.61601397,14.03745 696.44101397,13.6295 690.27091397,13.23021 684.10431397,12.839489999999998 677.94011397,12.457270000000005 671.77711397,12.0835 665.6146139699999,11.718120000000006 659.45151397,11.361130000000003 653.2872139699999,11.012480000000004 647.12111397,10.672170000000001 640.95281397,10.340209999999999 634.7818139699999,10.01659 628.6080139699999,9.701340000000002 622.4312139699999,9.394490000000005 616.2515139699999,9.096049999999998 610.06891397,8.806070000000005 603.88381397,8.524590000000003 597.69641397,8.251650000000005 591.50721397,7.987249999999996 585.3166139699999,7.731400000000001 579.12491397,7.484090000000002 572.93241397,7.245320000000007 566.7393139699999,7.0150799999999975 560.54601397,6.79336 554.35261397,6.580130000000004 548.15921397,6.375399999999999 541.96601397,6.179130000000001 535.77301397,5.9913000000000025 529.5804139699999,5.8119099999999975 523.38811397,5.640910000000005 517.19601397,5.478300000000004 511.0042139700001,5.3240300000000005 504.81261397,5.178100000000001 498.62091397,5.040479999999995 492.42901397,4.911200000000001 486.23691397,4.790289999999999 480.04441397,4.677799999999998 473.85151397000004,4.57376 467.65811397,4.478229999999996 461.46431397000003,4.39123 455.27001397,4.312829999999998 449.07541397,4.24306 442.88051397,4.181960000000004 436.68551397000004,4.12959 430.49051397000005,4.085979999999999 424.29561397000003,4.051169999999999 418.10121397000006,4.025210000000001 411.90751397,4.008139999999997 405.71481397,4.0 399.52321397000003,4.000840000000004 393.33331397000006,4.010829999999999 387.14521397,4.03022 380.95911397000003,4.059249999999999 374.77511397,4.098170000000003 368.59311397000005,4.147219999999997 362.41331397000005,4.206629999999997 356.23541397,4.27666 350.05911397,4.357549999999996 343.88431397,4.449550000000002 337.71051397,4.552909999999997 331.53731397,4.66789 325.36411397,4.7947500000000005 319.19041397,4.933749999999996 313.01551397000003,5.085169999999998 306.83861397,5.249290000000002 300.65891397000007,5.426410000000004 294.47561397000004,5.616790000000002 288.28791397000003,5.820679999999996 282.09551397,6.038339999999998 275.89841397000004,6.270010000000006 269.69661397,6.515909999999998 263.49101397000004,6.776260000000001 257.28711397,7.051029999999997 251.08701397,7.340330000000002 244.88931397,7.644399999999997 238.69261397,7.963509999999999 232.49521397,8.297959999999996 226.29511397,8.64808 220.09551396999998,9.013909999999996 213.90481397,9.395110000000003 207.72631396999998,9.791640000000001 201.56281397,10.203400000000002 195.41731397,10.63071 189.29111397,11.074480000000001 183.18321397,11.53584 177.09021396999998,12.016070000000003 171.00651397,12.51669 164.92411397,13.03951 158.83291397,13.586640000000003 152.72021396999997,14.160630000000001 146.57151396999998,14.764010000000003 140.41641396999998,15.393990000000002 134.31191397,16.04421 128.24921397,16.71477 122.20981397,17.40701 116.16721397,18.12359 110.08601397,18.86864 103.94527397,19.645010000000003 97.90388397,20.433 92.00463397,21.22982 86.18736397,22.04709 80.32795397,22.90712 74.33446397,23.83086 68.66431397000001,24.75152 63.24184397,25.679250000000003 57.738903969999996,26.67189 51.853153969999994,27.79402 46.81444396999999,28.80554 42.55792397,29.69738 38.71166397,30.534190000000002 34.97977397,31.37643 30.95880397,32.32101 26.249903970000002,33.4885 22.78815397,34.432719 19.28357397,35.502286 14.575073970000002,37.123228 12.03225997,38.105341 10.31349297,38.839213 8.99979997,39.456608 7.94208497,40.004757 7.06898597,40.506498 6.34038797,40.97497 5.73158397,41.418612 5.22655297,41.843303 4.81469817,42.253407 4.4891299700000005,42.652359000000004 4.24572127,43.0430085 4.08261061,43.4278566 4.0,43.8092299 4.0,44.1894301 4.08261061,44.5708034 4.24572127,44.9556515 4.4891299700000005,45.346301 4.81469817,45.745253 5.22655297,46.155357 5.73158397,46.580048 6.34038797,47.02369 7.06898597,47.492162 7.94208497,47.993903 8.99979997,48.542052 10.31349297,49.159447 12.03225997,49.893319 14.575073970000002,50.875432 19.28357397,52.496374 22.78815397,53.565941 26.249903970000002,54.51016 30.95880397,55.67765 34.97977397,56.62223 38.71166397,57.46447 42.55792397,58.301280000000006 46.81444396999999,59.19312 51.853153969999994,60.20464 57.738903969999996,61.326769999999996 63.24184397,62.31941 68.66431397000001,63.24714 74.33446397,64.1678 80.32795397,65.09154000000001 86.18736397,65.95157 92.00463397,66.76884 97.90388397,67.56566000000001 103.94527397,68.35365 110.08601397,69.13002 116.16721397,69.87507 122.20981397,70.59165 128.24921397,71.28389 134.31191397,71.95445000000001 140.41641396999998,72.60467 146.57151396999998,73.23465 152.72021396999997,73.83803 158.83291397,74.41202 164.92411397,74.95915 171.00651397,75.48197 177.09021396999998,75.98259 183.18321397,76.46282 189.29111397,76.92418 195.41731397,77.36795000000001 201.56281397,77.79526 207.72631396999998,78.20702 213.90481397,78.60355 220.09551396999998,78.98475 226.29511397,79.35058000000001 232.49521397,79.70070000000001 238.69261397,80.03515 244.88931397,80.35426000000001 251.08701397,80.65833 257.28711397,80.94763 263.49101397000004,81.2224 269.69661397,81.48275000000001 275.89841397000004,81.72864999999999 282.09551397,81.96032 288.28791397000003,82.17798 294.47561397000004,82.38186999999999 300.65891397000007,82.57225 306.83861397,82.74937 313.01551397000003,82.91349 319.19041397,83.06491 325.36411397,83.20391000000001 331.53731397,83.33077 337.71051397,83.44575 343.88431397,83.54911 350.05911397,83.64111 356.23541397,83.72200000000001 362.41331397000005,83.79203000000001 368.59311397000005,83.85144 374.77511397,83.90048999999999 380.95911397000003,83.93941000000001 387.14521397,83.96844 393.33331397000006,83.98783 399.52321397000003,83.99781999999999 405.71481397,83.99866 411.90751397,83.99052 418.10121397000006,83.97345 424.29561397000003,83.94749 430.49051397000005,83.91268 436.68551397000004,83.86907 442.88051397,83.8167 449.07541397,83.7556 455.27001397,83.68583000000001 461.46431397000003,83.60743 467.65811397,83.52043 473.85151397000004,83.42490000000001 480.04441397,83.32086000000001 486.23691397,83.20837 492.42901397,83.08746 498.62091397,82.95818 504.81261397,82.82056 511.0042139700001,82.67463000000001 517.19601397,82.52036 523.38811397,82.35775 529.5804139699999,82.18675 535.77301397,82.00736 541.96601397,81.81953 548.15921397,81.62326 554.35261397,81.41853 560.54601397,81.2053 566.7393139699999,80.98358 572.93241397,80.75334 579.12491397,80.51456999999999 585.3166139699999,80.26726 591.50721397,80.01141000000001 597.69641397,79.74700999999999 603.88381397,79.47407 610.06891397,79.19259 616.2515139699999,78.90261000000001 622.4312139699999,78.60417 628.6080139699999,78.29732 634.7818139699999,77.98207 640.95281397,77.65845 647.12111397,77.32649 653.2872139699999,76.98617999999999 659.45151397,76.63753 665.6146139699999,76.28054 671.77711397,75.91516 677.94011397,75.54138999999999 684.10431397,75.15917 690.27091397,74.76845 696.44101397,74.36916 702.61601397,73.96121 708.79721397,73.5445 714.98621397,73.11898 721.18101397,72.68483 727.36781397,72.2431 733.54411397,71.79407 739.71051397,71.33783 745.86771397,70.87443999999999 752.01711397,70.40391 758.16031397,69.92621 764.2994139699999,69.44128 770.43701397,68.94901 776.5761139699999,68.44922 782.72001397,67.94172 788.8726139699999,67.42624 795.03841397,66.90244 801.2206139699999,66.37008 807.39161397,65.83159 813.5332139699999,65.28864 819.64201397,64.74158 825.7161139699999,64.19062 831.7556139699999,63.63583 837.7618139699999,63.07714 843.73751397,62.51434 849.6866139699999,61.94709 855.6146139699999,61.374930000000006 861.52761397,60.79723 867.43331397,60.21325 873.34061397,59.62206 879.25971397,59.02256 885.2022139699999,58.41344 891.18191397,57.793130000000005 897.21471397,57.15975 903.3191139699999,56.51105 909.46321397,55.85018 915.5114139699999,55.19198 921.46031397,54.53736 927.3299139699999,53.884629000000004 933.15081397,53.230783 938.96401397,52.571482 944.8229139700001,51.900783 950.79881397,51.21044 956.89201397,50.500242 962.7263139699999,49.814356000000004 968.21381397,49.163989 973.34871397,48.550822 978.14461397,47.974101 982.6257139699999,47.431737 986.81971397,46.921041 990.7548139699999,46.439177 994.45731397,45.983395 997.9514139699999,45.551152 1001.25841397,45.140155 1003.98951397,44.79933" stroke="black" stroke-width="2.0" /></svg>