<?xml version="1.0" encoding="utf-8" ?>
<svg baseProfile="full" height="92.59219" version="1.1" width="1012.006430672" xmlns="http://www.w3.org/2000/svg" xmlns:ev="http://www.w3.org/2001/xml-events" xmlns:xlink="http://www.w3.org/1999/xlink"><defs /><polygon fill="none" points="1004.006430672,52.73515 1000.991930672,52.351710000000004 997.344030672,51.889785 993.493830672,51.404708 989.420430672,50.894267 985.101230672,50.356137000000004 980.513030672,49.787989 975.633430672,49.187699 970.4435306720001,48.553701000000004 964.932630672,47.885528 959.104630672,47.184558 952.986030672,46.45488 946.665630672,45.707807 940.423030672,44.976507 934.253930672,44.26012 928.100230672,43.55169 921.919030672,42.84617 915.6790306720001,42.14004 909.361230672,41.43123 903.006930672,40.72443 896.717030672,40.03076 890.4813306719999,39.34889 884.2851306719999,38.6771 878.116030672,38.01393 871.963130672,37.35815 865.817130672,36.70872 859.6698306719999,36.06476 853.5143306719999,35.42554 847.344630672,34.79048 841.156030672,34.15912 834.9446306719999,33.53112 828.7077306719999,32.90626 822.443730672,32.284459999999996 816.152430672,31.66574 809.834730672,31.05026 803.4929306719999,30.43832 797.1306306719999,29.83033 790.7521306719999,29.22673 784.3620306720001,28.62802 777.9744306719999,28.03552 771.5912306719999,27.44941 765.209530672,26.86943 758.826930672,26.29535 752.441230672,25.72699 746.050730672,25.16421 739.6555306719999,24.60703 733.264630672,24.05626 726.880530672,23.51209 720.5036306719999,22.97453 714.1336306719999,22.44357 707.770330672,21.919150000000005 701.412730672,21.401179999999997 695.059730672,20.88959 688.7103306719999,20.384320000000002 682.363530672,19.885329999999996 676.018430672,19.39259 669.6741306719999,18.906079999999996 663.3301306719999,18.425780000000003 656.985630672,17.951700000000002 650.640230672,17.48384 644.293430672,17.02223 637.945030672,16.566879999999998 631.594730672,16.117829999999998 625.242430672,15.67512 618.888030672,15.238800000000005 612.531630672,14.808930000000004 606.1733306719999,14.385559999999998 599.813430672,13.968770000000006 593.4522306719999,13.55863 587.0899306719999,13.155250000000002 580.726930672,12.758700000000005 574.3634306719999,12.36909 567.9997306719999,11.986490000000003 561.635830672,11.610979999999998 555.2721306719999,11.24266 548.9087306719999,10.881590000000003 542.545830672,10.527859999999997 536.183430672,10.181539999999998 529.821730672,9.8427 523.460730672,9.511420000000001 517.100530672,9.187760000000004 510.7412306720001,8.871790000000004 504.38273067200004,8.563580000000002 498.025130672,8.26323 491.668330672,7.970939999999999 485.31243067200006,7.686930000000004 478.95743067200004,7.411459999999998 472.603230672,7.144740000000006 466.250030672,6.88702 459.897830672,6.638540000000006 453.54683067200006,6.399519999999995 447.196930672,6.170210000000004 440.84833067200003,5.9508399999999995 434.50113067200004,5.741639999999997 428.155430672,5.542839999999998 421.811530672,5.354680000000002 415.46943067200004,5.177399999999999 409.129430672,5.011209999999998 402.79163067200005,4.856349999999999 396.45633067200004,4.713090000000001 390.123630672,4.581800000000001 383.793830672,4.462850000000003 377.467030672,4.3566199999999995 371.143230672,4.263470000000005 364.822630672,4.183780000000006 358.505130672,4.117910000000002 352.190830672,4.0662400000000005 345.879530672,4.029120000000006 339.571230672,4.006909999999998 333.265630672,4.0 326.962830672,4.00873 320.662430672,4.033479999999997 314.36413067200004,4.074620000000003 308.067730672,4.132509999999996 301.77293067200003,4.207540000000002 295.479330672,4.3000200000000035 289.18683067200004,4.410110000000003 282.895230672,4.53801 276.604730672,4.683869999999999 270.31573067200003,4.847850000000001 264.028630672,5.0301100000000005 257.744230672,5.230780000000003 251.463330672,5.450000000000003 245.186930672,5.6880800000000065 238.91593067199997,5.945660000000004 232.651130672,6.223400000000005 226.392830672,6.5219999999999985 220.14143067199998,6.842120000000001 213.896930672,7.184449999999998 207.65903067199997,7.549680000000002 201.427430672,7.938520000000004 195.201730672,8.35165 188.981430672,8.789720000000003 182.766630672,9.253339999999994 176.557830672,9.743069999999996 170.355630672,10.25949 164.161030672,10.803089999999997 157.975430672,11.374350000000007 151.800330672,11.973689999999998 145.637630672,12.60192 139.489330672,13.260939999999998 133.357430672,13.952759999999998 127.244130672,14.679279999999999 121.15133067199999,15.44236 115.08103067199998,16.243739999999995 109.035530672,17.085099999999997 103.016690672,17.96799 97.027070672,18.893730000000005 91.070780672,19.86296 85.150920672,20.87637 79.26896067199999,21.9349 73.42449067199999,23.04103 67.62174067199999,24.20559 61.893260672000004,25.436809999999998 56.300060672,26.73269 50.916650672,28.080920000000003 45.816530672000006,29.455650000000002 41.029520672000004,30.83206 36.533980672000006,32.20182 32.286310672,33.56739 28.235650672,34.93806000000001 24.339940672,36.34899 20.785800671999997,37.82536 17.863320672,39.249 15.594540672,40.51157 13.764954672,41.63965 12.254327672,42.65573 10.985283672,43.580389 9.900112671999999,44.43437 8.960325672,45.232916 8.139867672,45.986919 7.420391672,46.704447 6.788610672,47.391644 6.234719672000001,48.053301000000005 5.751363672,48.693272 5.333015672,49.314714 4.975544172,49.920282 4.675932972,50.512255 4.432094872,51.092638 4.242752872,51.663232 4.107373872,52.225701 4.026146262,52.7816227 4.0,53.3325353 4.030529042,53.8799981 4.117691572,54.4257033 4.260148072,54.971360000000004 4.457281472,55.518602 4.709217772,56.06904 5.016821672,56.624316 5.381733672,57.18615 5.806455672,57.756407 6.294497672,58.337157000000005 6.850589672,58.930767 7.481027672,59.540024 8.194155671999999,60.168279 9.001139672,60.819692 9.917194671999999,61.499592 10.963436672,62.214919 12.170427671999999,62.975207 13.583502672000002,63.7935 15.270810672,64.68684 17.310280672,65.66351 19.900270671999998,66.75793 23.209920672,67.93876 27.095770672,69.07638 31.196340672,70.1108 35.432440672,71.10455999999999 39.870820672,72.07788 44.572660672000005,73.0369 49.587570672,73.98048 54.930570672,74.89632 60.547680672,75.76037 66.351880672,76.5579 72.26126067199999,77.28606 78.21900067199999,77.95163 84.206920672,78.5683 90.229130672,79.14393 96.287780672,79.68047 102.38176067199998,80.1794 108.506630672,80.64193 114.65743067199999,81.06932 120.83033067199999,81.463 127.02223067199999,81.82457 133.230230672,82.15576 139.45213067199998,82.4584 145.686130672,82.73443 151.930830672,82.98585 158.18573067199998,83.21471 164.450130672,83.42249 170.72373067200002,83.61008000000001 177.005930672,83.77836 183.29623067199998,83.92821 189.59413067199998,84.06053 195.89873067199997,84.17622 202.209430672,84.27619 208.525530672,84.36137 214.846230672,84.43241 221.171030672,84.48979 227.499430672,84.53399 233.83133067199998,84.56546 240.166530672,84.5847 246.504930672,84.59219 252.846630672,84.58840000000001 259.191930672,84.57384 265.54103067200003,84.549 271.89423067200005,84.51445 278.25163067200003,84.47071 284.613230672,84.41833 290.978830672,84.35786 297.34833067200003,84.28984 303.721330672,84.21484000000001 310.09743067200003,84.13336 316.476130672,84.04561000000001 322.857030672,83.95169 329.23983067200004,83.8517 335.62393067200003,83.74575 342.009130672,83.63392999999999 348.395030672,83.51635999999999 354.78153067200003,83.39314 361.168230672,83.26437 367.55503067200004,83.13017 373.94173067200006,82.99063000000001 380.328230672,82.84586 386.714330672,82.69597 393.100230672,82.54106 399.485630672,82.38123 405.87073067200004,82.21658 412.255630672,82.04722 418.640130672,81.87317999999999 425.02463067200006,81.69454 431.40893067200005,81.51136 437.793330672,81.32369 444.177730672,81.13159999999999 450.56233067200003,80.93514 456.947130672,80.73437 463.332330672,80.52935 469.71783067200005,80.32014000000001 476.10393067200005,80.10679999999999 482.49053067200003,79.88938 488.87793067200005,79.66794 495.26603067200006,79.44253 501.65513067200004,79.21322 508.04513067199997,78.98007 514.4363306719999,78.74314 520.8287306719999,78.50256 527.222230672,78.25841 533.617030672,78.01081 540.013030672,77.75985 546.410230672,77.50565 552.808530672,77.2483 559.207730672,76.98793 565.607830672,76.72463 572.0085306719999,76.45853 578.4097306719999,76.18974 584.811030672,75.91838 591.2122306719999,75.64455 597.613130672,75.36839 604.0133306719999,75.09001 610.412330672,74.80951999999999 616.8100306719999,74.52699 623.206130672,74.24246 629.6004306719999,73.95597000000001 635.9929306719999,73.66758 642.3838306719999,73.3773 648.773230672,73.08517 655.1615306719999,72.79122 661.549030672,72.49545 667.936230672,72.1979 674.3238306719999,71.89855 680.712530672,71.59743 687.103030672,71.29452 693.496330672,70.98981 699.893530672,70.6833 706.2956306719999,70.37496 712.703930672,70.06475 719.115030672,69.75286 725.5190306719999,69.43977 731.915230672,69.12556000000001 738.303830672,68.81024 744.685530672,68.49378 751.061230672,68.17618 757.432430672,67.85737 763.8006306719999,67.53729 770.168130672,67.21585999999999 776.537230672,66.89296999999999 782.910730672,66.56848 789.292030672,66.24226 795.684530672,65.91413 802.091030672,65.58396 808.488330672,65.25295 814.861930672,64.92187 821.2091306719999,64.59085999999999 827.529030672,64.25999 833.821630672,63.92924 840.088530672,63.59856 846.3323306719999,63.267802 852.557130672,62.936768 858.767630672,62.605201 864.9698306720001,62.272775 871.171130672,61.939103 877.379630672,61.603726 883.605130672,61.266106 889.8586306719999,60.925618 896.153230672,60.581527 902.503530672,60.23298 908.890830672,59.880973 915.2058306719999,59.531457 921.443930672,59.184659 927.624030672,58.83948 933.777030672,58.494148 939.945530672,58.146189 946.186730672,57.792251 952.540030672,57.429916 958.7258306719999,57.075083 964.615530672,56.735329 970.1815306719999,56.412534 975.420130672,56.10721 980.342530672,55.818975 984.968330672,55.54692 989.320730672,55.289892 993.4239306719999,55.046657 997.3007306719999,54.816005000000004 1000.9727306719999,54.596799 1004.006430672,54.415150000000004" stroke="black" stroke-width="2.0" /></svg>