<?xml version="1.0" encoding="utf-8" ?>
<svg baseProfile="full" height="196.10983" version="1.1" width="1012.5254575" xmlns="http://www.w3.org/2000/svg" xmlns:ev="http://www.w3.org/2001/xml-events" xmlns:xlink="http://www.w3.org/1999/xlink"><defs /><polygon fill="none" points="1004.5254575,130.59459999999999 1000.3386575,129.121153 995.3303575,127.370667 990.1184575000001,125.56293399999998 984.6919575000001,123.69580699999999 979.0405575,121.76762 973.1559575,119.77745999999999 967.0322575,117.72546 960.6675575,115.61319999999999 954.0652575,113.44413999999999 947.2358575,111.22403 940.1953575000001,108.96055999999999 932.9632574999999,106.66239999999999 925.5606575,104.33858 918.0089575000001,101.99788 910.3269575,99.64809 902.5294575,97.29553999999999 894.6261575,94.94444999999999 886.6248575,92.59776 878.5334575,90.25824 870.3602575,87.92857 862.1138575,85.61128 853.8022575000001,83.30872 845.4336575,81.02301999999999 837.0156575,78.75607 828.5553575,76.50945999999999 820.0592575,74.28451999999999 811.5331575,72.08228 802.9817575000001,69.90346 794.4092575000001,67.74878 785.8188575,65.61943 777.2135575,63.51658999999998 768.5963575000001,61.44135 759.9697575,59.3947 751.3359575000001,57.377539999999996 742.6971575,55.390649999999994 734.0550575,53.43475999999998 725.4111575,51.510469999999984 716.7667574999999,49.618329999999986 708.1226575000001,47.75878999999999 699.4796575,45.932249999999996 690.8380575000001,44.139039999999994 682.1985575,42.37947999999999 673.5612575,40.65385999999998 664.9264575000001,38.96246999999998 656.2945575,37.305559999999986 647.6655575,35.68339999999999 639.0395575,34.096199999999996 630.4168575,32.54420999999999 621.7971575,31.027599999999993 613.1804575,29.546599999999998 604.5668575,28.101499999999987 595.9559575,26.69229999999999 587.3478575,25.319299999999984 578.7430575,23.98299999999999 570.1423575,22.683499999999995 561.5467575,21.42139999999999 552.9579575,20.19699999999999 544.3778575,19.010899999999978 535.8086575,17.863499999999988 527.2529575,16.755199999999988 518.7137575,15.686599999999999 510.19415749999996,14.657999999999987 501.69765750000005,13.669999999999987 493.2280575,12.723299999999995 484.7884575,11.81949999999999 476.38205750000003,10.95999999999998 468.0112575,10.14609999999999 459.67815750000005,9.37899999999999 451.3844575,8.659699999999987 443.13155750000004,7.9891999999999825 434.9203575,7.368199999999987 426.7515575,6.797699999999992 418.62545750000004,6.278199999999984 410.54215750000003,5.810299999999998 402.5014575,5.3947 394.5030575,5.031899999999979 386.54705750000005,4.7226 378.6336575,4.467399999999998 370.7632575,4.266999999999996 362.9362575,4.121899999999982 355.1533575,4.032800000000009 347.41525750000005,4.0 339.7228575,4.024100000000004 332.0768575,4.105399999999975 324.4783575,4.244200000000006 316.9283575,4.440899999999999 309.4278575,4.695499999999996 301.97805750000003,5.008399999999995 294.5802575,5.3793999999999755 287.2358575,5.808700000000002 279.9469575,6.296099999999996 272.7155575,6.841399999999993 265.5438575,7.4443999999999875 258.4344575,8.10459999999999 251.3898575,8.821399999999997 244.4128575,9.59429999999999 237.5066575,10.422499999999985 230.6741575,11.305199999999985 223.91885749999997,12.241499999999988 217.24365749999998,13.230299999999986 210.6517575,14.270200000000003 204.14595749999998,15.359899999999996 197.72915749999999,16.497799999999998 191.4048575,17.681999999999988 185.1772575,18.909999999999997 179.05165749999998,20.17909999999999 173.03345749999997,21.48639999999999 167.1284575,22.828399999999988 161.34205749999998,24.20149999999998 155.6793575,25.602199999999996 150.1449575,27.02669999999999 144.7437575,28.473099999999988 139.48035749999997,29.939499999999995 134.3585575,31.424099999999996 129.3810575,32.92462999999999 124.5498575,34.43884999999999 119.8654575,35.96442999999999 115.3276575,37.499059999999986 110.93535750000001,39.04050999999998 106.6863575,40.586659999999995 102.5781575,42.13550999999998 98.6076075,43.684709999999995 94.77177750000001,45.23147999999999 91.0677075,46.77315999999999 87.4923175,48.30727999999999 84.0423375,49.83158999999999 80.7142975,51.34407999999999 77.5045275,52.84308999999999 74.4093875,54.328079999999986 71.4251875,55.79921999999999 68.5480575,57.25665999999998 65.7740275,58.70053999999999 63.0990675,60.130999999999986 60.5191475,61.54818 58.0302575,62.95224999999999 55.6284575,64.34335 53.30992750000001,65.72165 51.0716275,67.08711999999998 48.911127500000006,68.43952999999999 46.8259975,69.77872999999998 44.8137875,71.10457 42.8720775,72.41700999999999 40.9984475,73.71598999999999 39.1904975,75.00152 37.4458975,76.27364999999999 35.7623375,77.53244999999998 34.1375975,78.77802 32.5694775,80.01047 31.0558775,81.22995999999999 29.594747500000004,82.43663 28.184217500000003,83.63113999999999 26.822987499999996,84.81617 25.5099175,85.99459999999999 24.243927499999998,87.16888 23.0239475,88.34107999999999 21.848927500000002,89.51295999999999 20.7177875,90.68598999999999 19.6294875,91.86138 18.5829375,93.04012999999999 17.5770675,94.22305999999999 16.6108275,95.41077999999999 15.6837275,96.60238999999999 14.795797499999999,97.79560999999998 13.946888499999998,98.98846999999999 13.136658500000001,100.17934 12.364644499999999,101.36692 11.630298499999999,102.55014 10.933021499999999,103.72815999999999 10.272187500000001,104.90033 9.6471695,106.06616 9.0573465,107.22524999999999 8.502124499999999,108.37734999999999 7.9809365,109.52229 7.4932585,110.65995 7.0386065,111.79029999999999 6.616547499999999,112.91335999999998 6.2266955,114.02918 5.8687214999999995,115.13784999999999 5.5423504999999995,116.23951 5.2473643,117.33429999999998 4.9836045,118.4224 4.7509741,119.50402 4.54943891,120.57936 4.3790306999999995,121.64865999999999 4.2398497,122.71216899999999 4.1320677,123.77013899999999 4.0559324,124.822852 4.011771899999999,125.87059599999999 4.0,126.913676 4.0211236,127.95241399999999 4.0757497,128.987146 4.1645955,130.01823 4.2884993,131.046043 4.44843427,132.0709877 4.6454653,133.0934886 4.879877,134.11392999999998 5.151336499999999,135.132612 5.4596028,136.149778 5.8045395,137.16561299999998 6.1861055,138.18024499999999 6.6043515,139.193741 7.0594075,140.206102 7.5514825,141.217258 8.0808565,142.227062 8.6478705,143.23528 9.2529215,144.24158 9.896452499999999,145.24553 10.5789405,146.24653999999998 11.300883500000001,147.24392999999998 12.0627805,148.2368 12.865113500000001,149.22409 13.7083165,150.20452999999998 14.5927375,151.17658 15.5186175,152.13843 16.4859875,153.08794999999998 17.494687499999998,154.02271 18.5447375,154.9414 19.6365475,155.84434 20.770447500000003,156.73208 21.9467475,157.6053 23.1656475,158.46489 24.4272675,159.31194 25.731657500000004,160.14774 27.078767499999998,160.97385 28.4684575,161.79211999999998 29.9005375,162.60470999999998 31.375277500000003,163.4131 32.8940575,164.21705 34.4584175,165.01609 36.0699975,165.80971 37.730477500000006,166.59735999999998 39.4416375,167.37847 41.2053675,168.15240999999997 43.0236375,168.91854 44.898517500000004,169.67613999999998 46.8322275,170.42446999999999 48.8271075,171.16273 50.8856775,171.89009 53.0106475,172.60562 55.2049275,173.30838 57.471967500000005,173.99772 59.8158775,174.6736 62.241147500000004,175.33613 64.7525375,175.98552 67.3551175,176.62211 70.05426750000001,177.24644 72.8556275,177.85924 75.7650275,178.46150999999998 78.7884775,179.05462 81.93200750000001,179.64013 85.20236750000001,180.21837 88.6066675,180.78888999999998 92.15196750000001,181.35130999999998 95.8450175,181.90531 99.69188749999999,182.45067 103.6976075,182.98735 107.8656575,183.51522 112.1979575,184.03203 116.6952575,184.5343 121.35695750000001,185.01828999999998 126.18155750000001,185.48002 131.16675750000002,185.91544 136.3106575,186.32041999999998 141.6122575,186.6909 147.0735575,187.02283 152.7005575,187.31221 158.50605749999997,187.55517999999998 164.5093575,187.75112 170.73125749999997,187.90165 177.1908575,188.00896999999998 183.9039575,188.07619 190.87935749999997,188.10772 198.1133575,188.10983 205.5843575,188.09109999999998 213.24755749999997,188.0578 221.0495575,188.00468 228.94405749999999,187.92426999999998 236.8995575,187.80893999999998 244.9033575,187.65088 252.9639575,187.44159 261.11295750000005,187.17276999999999 269.39585750000003,186.84568 277.8542575,186.46634999999998 286.5204575,186.04172 295.41395750000004,185.58049999999997 304.5352575,185.09408 313.85845750000004,184.59455 323.3400575,184.08551 332.9336575,183.56805 342.5949575,183.04312 352.2841575,182.51143 361.96905749999996,181.97332999999998 371.6252575,181.42881 381.23735750000003,180.87744999999998 390.7985575,180.3184 400.3098575,179.75045 409.77985750000005,179.17195999999998 419.22205750000006,178.58182 428.6493575,177.97958 438.0732575,177.36484 447.5033575,176.73726 456.9477575,176.09658 466.4131575,175.44256 475.9045575,174.77507 485.4256575,174.09404999999998 494.9784575,173.39956999999998 504.5632575,172.69179 514.1787575000001,171.97116 523.8228575,171.23879 533.4934575,170.49594 543.1885575,169.74392 552.9061575000001,168.98402 562.6444575,168.21758 572.4017575,167.44593999999998 582.1763575,166.67043999999999 591.9667575000001,165.89243 601.7714575000001,165.11327999999997 611.5893575,164.33424 621.4189575,163.55569 631.2585575,162.77751999999998 641.1061575,161.99962 650.9593575,161.22195 660.8155575,160.44444 670.6716575,159.66709 680.5242575,158.88991 690.3697575,158.11291 700.2042575,157.33615999999998 710.0234575,156.55978 719.8231575000001,155.78446 729.5999575,155.01136 739.3511575,154.24157 749.0748575,153.47611 758.7697575,152.71589999999998 768.4356575,151.96182 778.0727575000001,151.21464999999998 787.6819575000001,150.47512999999998 797.2648575,149.74392 806.8237575,149.02161999999998 816.3608575,148.30812 825.8760575,147.60206 835.3654575,146.90222 844.8215575,146.20765 854.2336575,145.51767999999998 863.5876575,144.83189 872.8672575,144.15009999999998 882.0540575,143.47235 891.1284575000001,142.79889 900.0704575000001,142.130091 908.8605574999999,141.466558 917.4784575,140.810868 925.8985574999999,140.167686 934.0915575,139.54174 942.0283575000001,138.937369 949.6831575,138.358225 957.0364575,137.807051 964.0764575000001,137.285033 970.8013575,136.791621 977.2181575,136.325604 983.3389575,135.885429 989.1794575,135.46937599999998 994.7565575000001,135.075687 1000.0879575,134.702646 1004.5254575,134.3946" stroke="black" stroke-width="2.0" /></svg>