<?xml version="1.0" encoding="utf-8" ?>
<svg baseProfile="full" height="162.41673" version="1.1" width="1012.2410813" xmlns="http://www.w3.org/2000/svg" xmlns:ev="http://www.w3.org/2001/xml-events" xmlns:xlink="http://www.w3.org/1999/xlink"><defs /><polygon fill="none" points="1004.2410813,100.20272 1000.9060813000001,99.5565144 996.8691813,98.772605 992.6074813,97.942969 988.0980813,97.062813 983.3167813,96.127 978.2389813,95.130244 972.8417813,94.067511 967.1076813000001,92.934706 961.0294813,91.729753 954.6180813000001,90.454078 947.9095813,89.11412 940.9629813,87.72083 933.8482812999999,86.28743 926.6343813,84.82714 919.3781813,83.351 912.1175813,81.86628999999999 904.8674813000001,80.37579 897.6207813,78.87801999999999 890.3613813,77.3706 883.0759813,75.852 875.7557813,74.32162 868.3966813000001,72.77981 860.9992813,71.22799 853.5695813000001,69.66872000000001 846.1183813000001,68.10542 838.6576812999999,66.54123 831.1975813,64.97883 823.7457813,63.42045 816.3081813000001,61.86783 808.8880813000001,60.32226 801.4866813,58.78454 794.1037813,57.25544 786.7382813,55.73592 779.3894812999999,54.226910000000004 772.0562813,52.72935 764.7377813,51.244139999999994 757.4331813,49.772189999999995 750.1413813,48.31436 742.8616813,46.8712 735.5928813,45.443059999999996 728.3338813,44.030289999999994 721.0833813,42.633179999999996 713.8399813000001,41.25201 706.6019812999999,39.887049999999995 699.3677813,38.538489999999996 692.1356813,37.20641 684.9053813,35.89093000000001 677.6770813,34.59232999999999 670.4517813000001,33.311049999999994 663.2316813,32.04768 656.0196813,30.802909999999997 648.8192813000001,29.577659999999995 641.6339813000001,28.373440000000002 634.4657813,27.191680000000005 627.3150813000001,26.033569999999997 620.1810813000001,24.900029999999987 613.0616813,23.79177 605.9531813,22.709310000000002 598.8510813,21.65288000000001 591.7507813000001,20.621989999999997 584.6490813,19.61614 577.5448813,18.635059999999996 570.4382813,17.678790000000006 563.3313813000001,16.74750999999999 556.2276813,15.841629999999995 549.1322813,14.961789999999993 542.0505813000001,14.10936000000001 534.9862813000001,13.285809999999998 527.9408813000001,12.492320000000007 520.9142813000001,11.72981 513.9042813,10.999009999999998 506.90698130000004,10.300480000000007 499.91698130000003,9.634649999999993 492.9281813,9.001450000000006 485.9373813,8.400739999999999 478.9446813,7.832709999999992 471.9532813,7.29777 464.9698813,6.796520000000001 458.00418129999997,6.3296299999999945 451.06888130000004,5.8977900000000005 444.17778130000005,5.502979999999994 437.34058130000005,5.148569999999992 430.5605813,4.8374100000000055 423.8358813,4.571899999999999 417.15928130000003,4.354190000000003 410.5194813,4.186390000000003 403.9007813,4.070779999999999 397.2836813,4.009260000000012 390.6484813,4.0 383.97918130000005,4.040320000000008 377.2644813,4.127849999999995 370.4976813,4.2602799999999945 363.6774813,4.435219999999987 356.80818130000006,4.649929999999998 349.9007813,4.9012599999999935 342.9714813,5.187429999999992 336.0356813,5.508780000000002 329.1058813,5.865660000000005 322.1908813,6.258399999999995 315.2958813,6.687349999999995 308.4227813,7.1529799999999994 301.5700813,7.65598 294.7331813,8.19708 287.90698130000004,8.776539999999997 281.0873813,9.39455000000001 274.2714813,10.051280000000006 267.4571813,10.746859999999998 260.6436813,11.481350000000006 253.8310813,12.254729999999995 247.02078129999998,13.06684 240.2147813,13.917649999999995 233.4158813,14.807140000000004 226.62688129999998,15.735160000000008 219.85138129999999,16.70147999999999 213.0929813,17.70571000000001 206.3558813,18.74732999999999 199.6442813,19.825689999999994 192.9628813,20.940420000000003 186.3158813,22.09187 179.7068813,23.28049 173.1386813,24.506759999999986 166.61308129999998,25.771209999999996 160.1314813,27.07441 153.69468129999998,28.416970000000006 147.30258129999999,29.799639999999997 140.9563813,31.22332 134.6604813,32.68839 128.4232813,34.19412 122.25578130000001,35.73867 116.1718813,37.31906000000001 110.1866813,38.93125 104.31638130000002,40.57027 98.5765713,42.23052 92.9839513,43.90659 87.5596213,45.59222 82.32710130000001,47.27897 77.3083413,48.95718 72.5205913,50.617399999999996 67.9742513,52.25293 63.6706213,53.860009999999996 59.6035713,55.43657 55.7623213,56.98182 52.1335013,58.4959 48.70285129999999,59.97958 45.460001299999995,61.43354 42.4017513,62.8557 39.527431299999996,64.24202 36.8354013,65.58813 34.3214113,66.89041 31.978391300000002,68.14652000000001 29.7968513,69.35548 27.765811300000003,70.51753 25.8735413,71.63383999999999 24.1095513,72.70761999999999 22.4654413,73.74475 20.9324213,74.75059 19.501681299999998,75.72969 18.1648113,76.68585 16.9140413,77.62228 15.7422613,78.54166000000001 14.6430613,79.44626 13.610715299999999,80.33793 12.6407103,81.21759 11.7294953,82.08545 10.8738543,82.94167 10.070828299999999,83.78634 9.3176803,84.61959999999999 8.6137503,85.44427 7.9615753,86.26786 7.3631243,87.09728 6.8193983,87.93767 6.3291413,88.78745 5.8901973000000005,89.64266 5.5005663,90.500222 5.1584651,91.357731 4.8623591,92.21333 4.6109761,93.065589 4.4033175,93.913418 4.238665943,94.755995 4.1165935,95.592713 4.0369737,96.423137 4.0,97.246971 4.0062119,98.064035 4.0565332,98.874246 4.15232565,99.6776067 4.29543895,100.4742056 4.4868991000000005,101.264705 4.7261205,102.050444 5.0127675,102.832621 5.3468793,103.61224 5.7288303,104.390111 6.1592873,105.166842 6.6391703,105.942802 7.1695943,106.71808 7.751793299999999,107.492402 8.3870023,108.26503 9.0762743,109.034611 9.820212300000001,109.798978 10.6185673,110.5549 11.4696923,111.29782 12.3722473,112.02429 13.328694299999999,112.7361 14.3433113,113.43744 15.4210613,114.13239 16.565951300000002,114.82267 17.7820313,115.50991 19.0732113,116.19596 20.4434313,116.88273 21.8991213,117.57151999999999 23.4485613,118.2636 25.1009613,118.9607 26.8664413,119.66514000000001 28.7560113,120.38005 30.781271300000004,121.10965999999999 32.953921300000005,121.8596 35.2865813,122.63425000000001 37.793831299999994,123.4341 40.4898513,124.25869 43.3872413,125.10676 46.4960313,125.97624 49.8229913,126.86440999999999 53.372121299999996,127.76844 57.1472513,128.68641 61.157641299999995,129.61837 65.4191613,130.56428 69.94668130000001,131.52323 74.75067130000001,132.49379 79.83435130000001,133.47385 85.1905413,134.46061 90.8004313,135.44875 96.6369413,136.43078 102.6691313,137.39974999999998 108.8680813,138.35048 115.2123813,139.27963 121.68388130000001,140.18423 128.2642813,141.06177 134.9348813,141.91044 141.6786813,142.72916 148.48058129999998,143.51767 155.32878129999997,144.27643999999998 162.21508129999998,145.00655 169.13428129999997,145.70839 176.0825813,146.38183 183.05668129999998,147.02686 190.0536813,147.64356 197.0713813,148.23216 204.1082813,148.79297 211.1635813,149.32636 218.2367813,149.83272 225.3269813,150.31235 232.4322813,150.76551 239.5503813,151.19248 246.6778813,151.59350999999998 253.8106813,151.96886 260.9437813,152.3188 268.0723813,152.64303 275.1930813,152.94095 282.30478130000006,153.21206 289.40808130000005,153.45595 296.5057813,153.67225 303.6025813,153.86061 310.70518130000005,154.02069 317.82048130000004,154.15281 324.9523813,154.25764 332.10028130000006,154.33581 339.25958130000004,154.38791 346.4209813,154.41460999999998 353.5707813,154.41673 360.6914813,154.39499 367.7655813,154.34748 374.7818813,154.27088 381.7374813,154.16208 388.6356813,154.01806 395.48618130000006,153.83572 402.3040813,153.61167 409.10958130000006,153.34226 415.9260813,153.02694 422.7738813,152.66791999999998 429.6683813,152.26738 436.6199813,151.82763 443.63368130000003,151.35133 450.70818130000004,150.84172999999998 457.83538130000005,150.3028 465.0008813,149.73754 472.19088130000006,149.14721 479.39408130000004,148.53289 486.6027813,147.8955 493.8123813,147.23575 501.0222813,146.55405000000002 508.2349813,145.85050999999999 515.4556812999999,145.12531 522.6891813,144.37893 529.9391813,143.61194 537.2079813,142.82504 544.4967813000001,142.01904 551.8053813,141.19494 559.1323813,140.35387 566.4752813,139.49684 573.8319813,138.62472 581.2008813,137.73835 588.5807813,136.83854 595.9707813,135.92606 603.3707813,135.0016 610.7809813,134.06585 618.2017813,133.11943 625.6339813000001,132.16300999999999 633.0778813,131.19724 640.5342813,130.22278 648.0035813000001,129.24029000000002 655.4865813,128.25044 662.9836813,127.25395 670.4945813,126.2517 678.0179813000001,125.24473 685.5511813,124.23428 693.0902813,123.22173 700.6302813000001,122.20866000000001 708.1649813,121.19682 715.6877813,120.18821 723.1939813,119.18477999999999 730.6802812999999,118.1882 738.1456813000001,117.19987 745.5905813,116.22094 753.0172813,115.2523 760.4295813000001,114.29457 767.8307813,113.34812 775.2220813,112.41349 782.6021813000001,111.49152 789.9678812999999,110.58331 797.3135813,109.690167 804.6317813000001,108.813617 811.9136813,107.955837 819.1520813000001,107.119975 826.3440813000001,106.308776 833.4899813,105.524454 840.5933813,104.768786 847.6610813,104.043203 854.7022813000001,103.348882 861.7283813,102.686119 868.7475813,102.053836 875.7615813000001,101.451373 882.7659813,100.878603 889.7503813000001,100.3357944 896.6982813,99.8234614 903.5885813,99.3422096 910.3962813,98.894372 917.0952813,98.488816 923.6619813,98.13465 930.0759813000001,97.839126 936.3208813,97.60756 942.3843813000001,97.443394 948.2585813,97.348366 953.9386813000001,97.322748 959.4237813000001,97.364701 964.7158813,97.468217 969.8193813,97.62672 974.7406813,97.834154 979.4871813,98.085016 984.0666813,98.374362 988.4875813,98.697779 992.7582813,99.05135 996.8866813000001,99.4316075 1000.8807813000001,99.8354915 1004.2410813,100.20272" stroke="black" stroke-width="2.0" /></svg>