<?xml version="1.0" encoding="utf-8" ?>
<svg baseProfile="full" height="94.73716" version="1.1" width="1012.02047714" xmlns="http://www.w3.org/2000/svg" xmlns:ev="http://www.w3.org/2001/xml-events" xmlns:xlink="http://www.w3.org/1999/xlink"><defs /><polygon fill="none" points="1004.02047714,62.479549999999996 1001.03897714,62.001947 997.4306771400001,61.426474 993.6217771400001,60.822007 989.59127714,60.185739 985.31657714,59.514699 980.77417714,58.805889 975.9410771400001,58.056531 970.7975771399999,57.264503 965.3318771400001,56.429012 959.5463771400001,55.551539 953.46567714,54.636954 947.15807714,53.696532 940.89507714,52.77115 934.70967714,51.86548 928.5414771400001,50.97052 922.34547714,50.0798 916.08897714,49.18885 909.7525771400001,48.29523 903.4116771399999,47.40979 897.14137714,46.54288 890.92557714,45.69197 884.7493771400001,44.854780000000005 878.60007714,44.02941 872.46667714,43.21423 866.33977714,42.40788 860.2108771400001,41.60922 854.0730771400001,40.81728 847.92037714,40.031279999999995 841.7477771399999,39.250609999999995 835.55127714,38.4748 829.3282771400001,37.703559999999996 823.07717714,36.93671 816.79747714,36.174279999999996 810.49017714,35.41643 804.15767714,34.66348 797.8036771400001,33.91593 791.4323771400001,33.17434 785.04777714,32.43927 778.65357714,31.71121 772.25327714,30.9906 765.84977714,30.2778 759.4458771400001,29.57315 753.04367714,28.876910000000002 746.6451771400001,28.189289999999993 740.2517771400001,27.510459999999995 733.86467714,26.84053 727.48447714,26.17957 721.11137714,25.527590000000004 714.74557714,24.884590000000003 708.38637714,24.25052 702.03317714,23.625280000000004 695.68477714,23.008789999999998 689.3400771400001,22.40099 682.99807714,21.801829999999995 676.6578771400001,21.211279999999995 670.31867714,20.629310000000004 663.97977714,20.055929999999996 657.64037714,19.49114 651.30007714,18.934940000000005 644.9583771399999,18.38738 638.61487714,17.84847 632.2692771400001,17.31828 625.92137714,16.796839999999996 619.5709771400001,16.28423 613.21807714,15.780519999999996 606.86277714,15.285779999999995 600.5052771400001,14.800089999999997 594.14557714,14.323509999999999 587.78407714,13.85606 581.42087714,13.397780000000004 575.05627714,12.94869 568.69037714,12.508809999999997 562.3235771400001,12.078179999999996 555.9559771400001,11.65681 549.58777714,11.244729999999997 543.21917714,10.841949999999997 536.8504771400001,10.448509999999999 530.4818771399999,10.064410000000002 524.1134771400001,9.689679999999996 517.74567714,9.324330000000003 511.37847714,8.96837 505.01227714000004,8.621830000000003 498.64717714,8.284749999999995 492.28337714,7.9574500000000015 485.92107714,7.640319999999996 479.56047714000005,7.333740000000006 473.2016771400001,7.038109999999996 466.84487714000005,6.753790000000002 460.49027714,6.481180000000002 454.13807714,6.220649999999999 447.78817714,5.9725699999999975 441.44087714,5.737329999999993 435.09627714000004,5.515280000000004 428.75447714,5.3067999999999955 422.41567714000007,5.112259999999999 416.07977714000003,4.932009999999998 409.74697714,4.76643 403.41727714,4.615859999999998 397.09087714000003,4.4806799999999996 390.76787714000005,4.361290000000004 384.44827714,4.258129999999994 378.13217714,4.171600000000005 371.81967714,4.102109999999996 365.51077714,4.050069999999998 359.20547713999997,4.015900000000002 352.90367714,4.0 346.60547714,4.002789999999997 340.31067714,4.024659999999997 334.01927714,4.066030000000005 327.73117714000006,4.127310000000001 321.44617714,4.2089 315.16427714,4.311229999999995 308.88507714,4.434699999999999 302.60857714,4.579739999999994 296.33447714000005,4.746720000000003 290.06267714000006,4.935939999999995 283.79327714,5.147660000000002 277.52627714000005,5.3821200000000005 271.26207714000003,5.639569999999999 265.00087714,5.920270000000002 258.74337714,6.224440000000001 252.49017714,6.552289999999999 246.24187714,6.904049999999998 239.99937713999998,7.280109999999993 233.76287714,7.6808499999999995 227.53277714,8.106720000000003 221.30877714,8.558129999999998 215.09057714,9.035560000000004 208.87757713999997,9.539499999999997 202.66867714,10.070450000000001 196.46297714,10.629060000000003 190.25977713999998,11.216210000000004 184.05947714,11.832819999999998 177.86357714,12.479679999999995 171.67487714,13.157409999999999 165.49717714,13.866479999999996 159.33517713999998,14.607120000000002 153.19477714,15.37934 147.08257713999998,16.183 141.00457713999998,17.0186 134.96337714,17.88729 128.95807714,18.79065 122.98467714,19.730740000000004 117.03597714,20.710209999999996 111.10217714,21.732390000000002 105.17027714,22.801470000000002 99.22401714,23.92264 93.25017713999999,25.09979 87.25889713999999,26.330780000000004 81.29217713999999,27.606139999999996 75.42097714,28.90864 69.72565714,30.22674 64.24642714,31.57382 58.97508714,32.97075 53.874047139999995,34.44218 48.89001714,36.01505 43.98575714,37.685810000000004 39.17146714,39.41839 34.49733714,41.16352 30.039277140000003,42.86304 25.87613714,44.46265 22.11581714,45.98865 18.98504714,47.44896 16.51513714,48.78826 14.53009714,50.01021 12.897581140000002,51.1231 11.53314114,52.13788 10.372233139999999,53.07319 9.370832140000001,53.944719 8.49889414,54.764363 7.73535914,55.541098 7.06504914,56.281803 6.47678814,56.991847 5.96220514,57.67552 5.51498114,58.336312 5.13034714,58.97712 4.80474364,59.600395999999996 4.5356023400000005,60.208249 4.32119294,60.802531 4.16053174,61.384896 4.05333297,61.956857 4.0,62.5198285 4.00165505,63.0751646 4.06007064,63.6242182 4.17537114,64.168609 4.34635494,64.71008499999999 4.57252354,65.25028900000001 4.85410954,65.790806 5.19207714,66.333215 5.58816214,66.87913499999999 6.04496314,67.43028 6.56607914,67.988518 7.15633714,68.555944 7.822118140000001,69.134978 8.57184714,69.728491 9.41674114,70.339986 10.371980139999998,70.973874 11.45854014,71.635832 12.706362140000001,72.333421 14.159427140000002,73.076763 15.88397714,73.87898 17.969857140000002,74.7505 20.54223714,75.69106 23.77302714,76.67741 27.577187140000003,77.61095 31.635747140000003,78.44331 35.86014714,79.23432 40.30690714,80.0014 45.02975714,80.74714 50.07234714,81.46851 55.446557139999996,82.15429 61.098077139999994,82.78448 66.93756714,83.34675 72.88188713999999,83.83986 78.87376714,84.27092 84.89617713999999,84.65272 90.95721714,84.99386 97.06210714,85.29743 103.21089714,85.56604 109.39827713999999,85.80214000000001 115.61627714,86.00753 121.85837713999999,86.18354 128.11917714,86.33169 134.39387714,86.45363 140.67917713999998,86.55115 146.97257714,86.62613999999999 153.27317713999997,86.68052 159.58067714,86.71626 165.89607714000002,86.7348 172.21977714,86.73716 178.55227713999997,86.72434 184.89357714000002,86.69731999999999 191.24367714000002,86.65711 197.60197713999997,86.60473 203.96777713999998,86.54121 210.34017713999998,86.46755 216.71807714,86.38449 223.10067714,86.29255 229.48737714,86.19226 235.87757714,86.08417 242.27107714000002,85.96881 248.66777714,85.84671 255.06787713999998,85.71843 261.47177714000003,85.58448 267.87967714000007,85.44542 274.29187714,85.30181 280.70857714000005,85.15419 287.12977714000004,85.00314 293.55517714,84.84924000000001 299.98467714000003,84.69304 306.41777714,84.53514 312.85397714,84.37597 319.29267714,84.21559 325.73347714000005,84.05405 332.17567714,83.89137 338.61847714000004,83.7276 345.06077714,83.5628 351.50267714000006,83.39698 357.94467714000007,83.23015000000001 364.38697714,83.06233 370.82967714,82.89353 377.27197714000005,82.72381 383.71327714,82.55319 390.15337714000003,82.38172 396.59217714000005,82.2094 403.02967714000005,82.03627 409.46587714000003,81.86234 415.90067714,81.68755 422.33417714,81.51181 428.76647714000006,81.33503 435.19747714,81.15713 441.62727714000005,80.97802 448.05607714,80.7976 454.48397714000004,80.61579 460.91097714,80.4325 467.33727714,80.24764 473.76307714000006,80.06111 480.18847714000003,79.87283 486.61367714000005,79.6827 493.03897714000004,79.49063 499.46457714,79.29652 505.89057714,79.10029 512.31747714,78.90192 518.74527714,78.70158 525.1741771400001,78.49941 531.6044771400001,78.29556 538.0360771400001,78.09021 544.46917714,77.88351 550.90367714,77.67563 557.33947714,77.46672 563.77657714,77.25695 570.21467714,77.0465 576.65367714,76.83554 583.09337714,76.62423 589.5333771400001,76.41274 595.9732771399999,76.20126 602.41277714,75.98997 608.85137714,75.77901 615.2886771400001,75.56847 621.72437714,75.35837000000001 628.15817714,75.14874 634.59007714,74.9396 641.01997714,74.73096 647.4481771400001,74.52284 653.87467714,74.31525 660.30007714,74.1082 666.72467714,73.90168 673.14917714,73.69571 679.5741771400001,73.49027 686.00047714,73.285359 692.4290771400001,73.080966 698.86097714,72.877075 705.29727714,72.673672 711.73757714,72.470797 718.17297714,72.268765 724.60117714,72.067678 731.0220771400001,71.867575 737.43577714,71.668482 743.84307714,71.470413 750.24477714,71.27337 756.64217714,71.077347 763.0370771400001,70.882323 769.43137714,70.688271 775.82777714,70.495152 782.22877714,70.302916 788.63777714,70.111506 795.05837714,69.920854 801.4937771400001,69.730904 807.9219771400001,69.542338 814.3263771400001,69.355619 820.7041771400001,69.170764 827.05417714,68.987749 833.37687714,68.806506 839.67357714,68.626934 845.94727714,68.4489 852.2017771400001,68.272239 858.44217714,68.096757 864.6747771400001,67.922234 870.90687714,67.748419 877.1469771400001,67.575032 883.40507714,67.401758 889.69267714,67.22824299999999 896.0229771400001,67.054086 902.41137714,66.878832 908.82567714,66.70333600000001 915.16077714,66.53046 921.41767714,66.360175 927.61657714,66.19193 933.78927714,66.024863 939.98007714,65.857788 946.24817714,65.68912900000001 952.63167714,65.5179 958.83667714,65.351981 964.7357771400001,65.194727 970.30307714,65.04675399999999 975.53637714,64.908038 980.44897714,64.778163 985.06177714,64.65651 989.39927714,64.542382 993.48627714,64.435079 997.34637714,64.33394 1001.00147714,64.23836109999999 1004.02047714,64.15955" stroke="black" stroke-width="2.0" /></svg>