<?xml version="1.0" encoding="utf-8" ?>
<svg baseProfile="full" height="222.12175" version="1.1" width="1012.3946249" xmlns="http://www.w3.org/2000/svg" xmlns:ev="http://www.w3.org/2001/xml-events" xmlns:xlink="http://www.w3.org/1999/xlink"><defs /><polygon fill="none" points="1004.3946249,130.4784 1000.6422249000001,129.64887979999997 996.1379249,128.639787 991.4299249,127.569409 986.5027249000001,126.43206799999999 981.3409249000001,125.221719 975.9298249000001,123.93210599999999 970.2561249000001,122.55703299999999 964.3103249000001,121.0908 958.0889249,119.52884999999999 951.5970249000001,117.86869999999999 944.8500249000001,116.11176999999999 937.8713249000001,114.26326999999999 930.6889249000001,112.33067 923.3330249,110.32292 915.8316249000001,108.24929 908.2065249000001,106.11819 900.4701249000001,103.93583 892.6265249,101.70559 884.6797249000001,99.43043999999999 876.6362249,97.11427 868.5050249,94.762 860.2985249000001,92.37965 852.0319249,89.97433999999998 843.7227249000001,87.55359999999999 835.3882249000001,85.12441999999999 827.0438249,82.69326 818.7024249000001,80.26593 810.3745249,77.84744 802.0678249,75.442 793.7876249000001,73.05317 785.5372249000001,70.68399 777.3185249,68.33702 769.1319249000001,66.01428999999999 760.9761249000001,63.7174 752.8487249000001,61.447509999999994 744.7467249,59.20516999999998 736.6676249,56.99069 728.6105249000001,54.80467999999999 720.5756249,52.64806999999999 712.5642249,50.52208 704.5790249000001,48.42818 696.6231249000001,46.3682 688.6990249,44.344269999999995 680.8079249000001,42.35812999999999 672.9490249,40.41104 665.1205249000001,38.50389999999999 657.3192249,36.63727999999999 649.5406249,34.811379999999986 641.7806249,33.02588999999999 634.0375249000001,31.280749999999998 626.3116249000001,29.576399999999992 618.6055249000001,27.91379999999998 610.9237249000001,26.29419999999999 603.2729249,24.719099999999997 595.6607249000001,23.19099999999999 588.0933249000001,21.713399999999993 580.5743249,20.289199999999994 573.1049249,18.92049999999999 565.6841249,17.608999999999995 558.3091249,16.356099999999998 550.9753249,15.162499999999994 543.6774249,14.028499999999994 536.4106249000001,12.95389999999999 529.1711249,11.938599999999994 521.9556249000001,10.982799999999997 514.7615248999999,10.0869 507.58712490000005,9.251299999999986 500.4308249,8.476600000000005 493.29192489999997,7.763199999999998 486.1691249,7.1113 479.0608249,6.5208999999999975 471.9646249,5.992399999999989 464.8779249,5.525999999999982 457.7973249,5.121999999999986 450.7190249,4.780699999999996 443.63892489999995,4.5020999999999844 436.5529249,4.285399999999996 429.4573249,4.129799999999989 422.34832489999997,4.034800000000004 415.22272489999995,4.0 408.0772249,4.025100000000009 400.90882489999996,4.109899999999996 393.7146249,4.254000000000005 386.4926249,4.4565000000000055 379.2419249,4.716499999999982 371.9632249,5.032900000000012 364.65852490000003,5.404599999999988 357.33132489999997,5.830099999999987 349.9870249,6.307999999999993 342.6319249,6.836999999999989 335.2724249,7.417199999999994 327.9138249,8.0484 320.5604249,8.730400000000003 313.2152249,9.46329999999999 305.88022490000003,10.246799999999993 298.55642489999997,11.081099999999992 291.24392489999997,11.966099999999997 283.94302489999995,12.901899999999998 276.6548249,13.88839999999999 269.3812249,14.925200000000004 262.1245249,16.01209999999999 254.88772490000002,17.1485 247.6744249,18.33359999999999 240.4889249,19.567000000000007 233.3357249,20.848399999999984 226.2190249,22.177499999999995 219.14332489999998,23.553699999999992 212.11262490000001,24.976399999999998 205.1311249,26.444999999999993 198.20282490000002,27.9585 191.33152489999998,29.516199999999998 184.5221249,31.117349999999988 177.7803249,32.7606 171.1125249,34.44433999999998 164.5258249,36.166499999999985 158.0273249,37.92461999999999 151.62452489999998,39.71588 145.3246249,41.537339999999986 139.1366249,43.38683 133.0710249,45.26186 127.1394249,47.15894 121.35322489999999,49.073800000000006 115.72302489999998,51.00162999999999 110.2582249,52.93731 104.9661249,54.875669999999985 99.85216489999999,56.81166 94.9196049,58.74037999999999 90.1723849,60.65590999999999 85.6159649,62.55126999999999 81.2554349,64.41919 77.0940749,66.25286999999999 73.1325349,68.04652999999999 69.36908489999999,69.79731999999998 65.7984249,71.50555 62.4118049,73.17269999999999 59.1985549,74.80089 56.147284899999995,76.39254 53.246544899999996,77.9502 50.48531489999999,79.47639 47.8532449,80.97334000000001 45.3415049,82.44193999999999 42.9434549,83.88194999999999 40.65390489999999,85.29257999999999 38.4683949,86.67287999999999 36.382844899999995,88.02185999999999 34.3932449,89.33874 32.4955749,90.62293 30.6857249,91.87413999999998 28.9595149,93.09235 27.3127249,94.27780999999999 25.7411649,95.43096 24.241134900000002,96.55295999999998 22.8105549,97.64687999999998 21.4472449,98.71598 20.1486449,99.76321999999999 18.9119649,100.79119999999999 17.7343449,101.80228 16.6129649,102.79851 15.5450549,103.78170999999999 14.527964899999999,104.75352 13.5591739,105.71534999999999 12.6372429,106.66875999999999 11.762880899999999,107.61578999999999 10.9367139,108.55834999999999 10.1590369,109.49819 9.429899899999999,110.43682999999999 8.7491949,111.37571 8.1170559,112.31652 7.5338189,113.26128 6.9996679,114.21191999999999 6.5145409,115.17004 6.077044900000001,116.1347 5.6852429,117.10386 5.337415,118.07583 5.032057,119.04916999999999 4.7678747,120.02268 4.5437763,120.995357 4.35886751,121.96636899999999 4.2124472,122.93502099999999 4.1040065,123.90073799999999 4.0332301,124.86304899999999 4.0,125.82157099999999 4.0044042,126.775999 4.0467486,127.726096 4.1275751,128.671684 4.2476859,129.6126418 4.40817664,130.54890024999997 4.6100213,131.480688 4.8530555,132.40900499999998 5.1370682,133.334881 5.4620569,134.259214 5.8282039,135.18276799999998 6.2358478999999996,136.10617 6.685459900000001,137.029898 7.1776089,137.954262 7.7129259,138.879369 8.292046899999999,139.805087 8.9155459,140.73099 9.5838459,141.65628999999998 10.2970919,142.57976 11.0550019,143.49962 11.8566649,144.41346 12.7012619,145.31801 13.592457900000001,146.2089 14.5366549,147.08191 15.541304900000002,147.93403999999998 16.6090549,148.76756 17.7398049,149.58713 18.9328349,150.39781 20.1863249,151.20517999999998 21.4986549,152.01427999999999 22.8723949,152.82694999999998 24.3112049,153.64467 25.8188649,154.46919 27.3993249,155.30264 29.0565649,156.14761 30.7944949,157.00718999999998 32.6167949,157.88512 34.526904900000005,158.78553 36.5294549,159.71007 38.6299049,160.65892 40.8337149,161.63204 43.1463749,162.6291 45.5732849,163.64954 48.119904899999995,164.69254 50.7917949,165.75710999999998 53.5950049,166.84215 56.5365949,167.94669 59.6256249,169.07013999999998 62.874024899999995,170.21311 66.2954049,171.37739 69.9039749,172.56493999999998 73.7139449,173.77775 77.7385149,175.01769 81.9882849,176.28632 86.4689749,177.58436 91.18090489999999,178.90877 96.12061489999999,180.25318 101.28160489999999,181.61041 106.65632489999999,182.97311 112.2391249,184.33474 118.02752489999999,185.6909 124.0170249,187.03825999999998 130.2003249,188.37346 136.5667249,189.69326 143.1027249,190.99471 149.79222489999998,192.27539 156.6180249,193.53355 163.56202489999998,194.76803999999998 170.60732489999998,195.97579 177.7387249,197.15276999999998 184.9423249,198.29558 192.2069249,199.40156 199.52422489999998,200.46875 206.8896249,201.4959 214.3024249,202.48251 221.7636249,203.42910999999998 229.27342489999998,204.33643999999998 236.8299249,205.20511 244.4297249,206.0356 252.0673249,206.8283 259.7350249,207.58355 267.42392490000003,208.30108 275.1252249,208.97958 282.83242490000003,209.61793999999998 290.5404249,210.21533 298.2463249,210.77114 305.9492249,211.28496 313.6498249,211.75653 321.3495249,212.18587 329.0482249,212.57301 336.74442489999996,212.91787999999997 344.43532489999996,213.22043 352.1162249,213.48057999999997 359.7814249,213.6983 367.4242249,213.87283 375.03882489999995,214.00254 382.62132490000005,214.08596 390.1692249,214.12175 397.6819249,214.10867000000002 405.1598249,214.0455 412.60482490000004,213.93115999999998 420.01982489999995,213.76495999999997 427.4082249,213.54629 434.7741249,213.27441 442.1222249,212.94844 449.4580249,212.56732 456.7875249,212.12977 464.1176249,211.63497999999998 471.45442490000005,211.08329999999998 478.80362490000005,210.47514999999999 486.1693249,209.81089 493.5551249,209.09084000000001 500.96342489999995,208.31535 508.3953249,207.48487 515.8517249,206.60005 523.3342249,205.66163 530.8453249000002,204.67022 538.3889249000001,203.62617999999998 545.9702249000001,202.52967 553.5958249,201.38051000000002 561.2738249,200.17847999999998 569.0123249000001,198.92455999999999 576.8174249000001,197.62043 584.6918249,196.26839999999999 592.6349249000001,194.87159 600.6423249000001,193.43402 608.7051249,191.96065 616.8115249000001,190.45515999999998 624.9517249,188.91975 633.1192249000001,187.35605999999999 641.3111249000001,185.76515 649.5282249,184.14733999999999 657.7756249,182.50222 666.0607249000001,180.82977 674.3894249000001,179.13109 682.7641249,177.40805 691.1834249,175.66334 699.6420249,173.90061 708.1304249000001,172.12448999999998 716.6363249,170.33999999999997 725.1481249000001,168.55183 733.6563249000001,166.7643 742.1535249000001,164.98128 750.6343249,163.20618 759.0954249,161.4419 767.5337249,159.69093999999998 775.9433249,157.9561 784.3154249,156.24078 792.6383249,154.54881 800.8981249000001,152.88433999999998 809.0792249,151.25195 817.1682249,149.65762999999998 825.1587249,148.10658 833.0508249,146.60234 840.8505249000001,145.14706999999999 848.5681249,143.74188999999998 856.2178249000001,142.38711 863.8145249,141.0815 871.3638249,139.82369 878.8595249,138.614197 886.2846249,137.455028 893.6135249000001,136.349121 900.8144249000001,135.299743 907.8527249000001,134.31051 914.6981249000002,133.391305 921.3331249,132.553291 927.7524249,131.80356799999998 933.9591249000001,131.14606859999998 939.9621249,130.5824927 945.7735249000001,130.1130767 951.4068249000001,129.73717499999998 956.8766249000001,129.45349599999997 962.1967249,129.25737199999998 967.3797249,129.141957 972.4365249000001,129.101205 977.3765249,129.129818 982.2081249,129.22312499999998 986.9387249000001,129.376981 991.5749249,129.5876854 996.1227249000001,129.85192089999998 1000.5874249000001,130.166698 1004.3946249,130.4784" stroke="black" stroke-width="2.0" /></svg>