<?xml version="1.0" encoding="utf-8" ?>
<svg baseProfile="full" height="163.13031" version="1.1" width="1012.09381729" xmlns="http://www.w3.org/2000/svg" xmlns:ev="http://www.w3.org/2001/xml-events" xmlns:xlink="http://www.w3.org/1999/xlink"><defs /><polygon fill="none" points="1004.09381729,96.48864 1000.1959172899999,95.545676 995.50841729,94.416899 990.60041729,93.241049 985.4568172899999,92.015389 980.06341729,90.737505 974.4082172899999,89.405599 968.4830172899999,88.01889 962.28601729,86.57815 955.8240172899999,85.08628 949.11621729,83.54898 942.19301729,81.97507 935.09131729,80.37504 927.8498172899999,78.75968 920.50491729,77.13905 913.08641729,75.52156 905.61501729,73.91337999999999 898.0996172899999,72.31794 890.54211729,70.73578 882.94321729,69.16667 875.30391729,67.61043000000001 867.62551729,66.06688 859.9097172899999,64.53585 852.15811729,63.01721 844.37301729,61.51085 836.5568172899999,60.016670000000005 828.7122172899999,58.5346 820.84221729,57.06458 812.95021729,55.60659 805.03991729,54.16058999999999 797.11511729,52.726729999999996 789.17971729,51.305789999999995 781.2371172899999,49.898779999999995 773.2903172899998,48.506569999999996 765.34201729,47.129979999999996 757.3946172899999,45.76972 749.45001729,44.42642 741.5096172899999,43.10063 733.57461729,41.79281999999999 725.64581729,40.50339 717.7234172899999,39.23265 709.80751729,37.98087 701.89771729,36.74825 693.99311729,35.53488999999999 686.09321729,34.34084000000001 678.1971172899999,33.16612000000001 670.3042172899999,32.0108 662.41381729,30.874939999999995 654.52531729,29.758610000000004 646.6381172899999,28.661900000000003 638.75181729,27.584909999999994 630.86591729,26.527739999999994 622.97981729,25.490499999999997 615.0932172899999,24.473340000000007 607.2058172899999,23.476370000000003 599.3171172899999,22.499740000000003 591.42701729,21.543599999999998 583.53531729,20.60812 575.6424172899999,19.6935 567.74861729,18.79995000000001 559.85451729,17.927729999999997 551.96111729,17.07709 544.0695172899999,16.2483 536.18111729,15.441640000000007 528.29731729,14.657420000000002 520.4200172899999,13.895920000000004 512.55111729,13.157430000000005 504.69291728999997,12.442250000000001 496.84781729,11.750740000000008 489.01791729,11.083749999999995 481.20501729,10.442199999999985 473.41061729,9.826939999999993 465.63541729,9.238770000000002 457.87981729,8.678420000000003 450.14381729,8.146560000000008 442.42701729,7.643859999999989 434.72871728999996,7.170909999999992 427.04741729,6.7283199999999965 419.38181729,6.316659999999999 411.72981729,5.936500000000009 404.08921729,5.588439999999991 396.45741728999997,5.273049999999998 388.83231729,4.990899999999996 381.21281729,4.742580000000004 373.59891729,4.5287600000000054 365.99131729,4.350099999999998 358.39201729,4.207269999999994 350.80371729,4.100929999999991 343.23031729,4.031669999999991 335.67631729,4.0 328.14731729,4.006349999999998 320.64951729,4.050999999999988 313.18971729,4.1340900000000005 305.77541729,4.255610000000004 298.41421729,4.415549999999996 291.11261729,4.615519999999989 283.87311729000004,4.85781999999999 276.69371729,5.144750000000002 269.56911729,5.4787000000000035 262.49031728999995,5.862279999999998 255.44541729000002,6.298479999999998 248.41971729000002,6.79028000000001 241.39901729,7.337639999999993 234.37481729,7.938869999999994 227.34571729,8.591889999999992 220.31691729,9.293909999999997 213.30091729,10.041240000000002 206.31631729,10.82911 199.38801729,11.652079999999998 192.54211729000002,12.508559999999989 185.79811729000002,13.399839999999998 179.16781729000002,14.327449999999999 172.65571728999998,15.293179999999992 166.26131729,16.299119999999988 159.97941729000001,17.34772000000001 153.80171729,18.441850000000002 147.71791729,19.584169999999986 141.72171729000002,20.774630000000002 135.81461729,22.011250000000004 130.00501729,23.290449999999993 124.30631729000001,24.607070000000007 118.73541729,25.954490000000007 113.31041729,27.325010000000006 108.04911729,28.710250000000002 102.96707729,30.101730000000003 98.07680729,31.492739999999998 93.38613729,32.88019999999999 88.89686729,34.26212 84.60609729000001,35.63706 80.50771729000002,37.004079999999995 76.59356729000001,38.36261 72.85474729,39.71231 69.28361729000001,41.0524 65.87360729,42.38155 62.618587289999994,43.698229999999995 59.51242729,45.00087 56.54886729,46.28801 53.72144728999999,47.55838 51.024257289999994,48.81099 48.45284729,50.04525 46.00226729,51.26087999999999 43.66705729,52.45787 41.44153729,53.63639 39.319967289999994,54.79674 37.29665728999999,55.939339999999994 35.366127289999994,57.06464 33.52311729,58.17317 31.76260729,59.26547 30.07989729,60.34208 28.47052729,61.40362 26.93051729,62.452799999999996 25.45666729,63.49433 24.04636729,64.53192 22.69741729,65.56824999999999 21.407767290000002,66.60522999999999 20.17548729,67.64411 18.99864729,68.68562 17.87527729,69.73011 16.80337729,70.77759999999999 15.78116729,71.82757 14.80866729,72.87697 13.885972290000002,73.92249 13.01253329,74.96172999999999 12.187350290000001,75.99301 11.40916829,77.0152 10.67660329,78.02757 9.98822929,79.02973 9.342637289999999,80.0215 8.738477289999999,81.00291 8.174479289999999,81.97409999999999 7.64947229,82.93531 7.16239329,83.88685 6.71228829,84.82909 6.29831829,85.76243 5.91975929,86.6873 5.57599729,87.60415 5.2665372900000005,88.513447 4.99099129,89.415677 4.74908939,90.311326 4.5406743899999995,91.200893 4.36570669,92.08489 4.22426769,92.963839 4.11656439,93.838274 4.04293746,94.708749 4.00387003,95.575835 4.0,96.440131 4.03213549,97.302263 4.101274126,98.16289726 4.20817949,99.022731 4.35244619,99.882431 4.53358839,100.742611 4.75128879,101.603838 5.0053868900000005,102.466633 5.29586929,103.331481 5.62286429,104.198826 5.98663329,105.06907 6.38756929,105.942577 6.82619629,106.819662 7.30315929,107.700586 7.81922829,108.58555 8.375292289999999,109.47467999999999 8.97235229,110.368 9.61151329,111.26543 10.29396729,112.16674 11.020974289999998,113.0715 11.793826289999998,113.97908 12.61379429,114.88851 13.482058290000001,115.79847 14.39959729,116.70716 15.36705729,117.61215 16.384517289999998,118.51029 17.45153729,119.39792 18.56897729,120.27348 19.73837729,121.13669999999999 20.96122729,121.98761999999999 22.23888729,122.82661 23.57269729,123.65447999999999 24.96396729,124.47256 26.41407729,125.28285 27.92457729,126.08807999999999 29.49736729,126.89193 31.13521729,127.69745 32.841937290000004,128.505 34.62171729,129.31459 36.47905729,130.12623 38.418757289999995,130.9399 40.445887289999995,131.75562 42.565827289999994,132.57335 44.784177289999995,133.39307 47.106707289999996,134.21473 49.53922728999999,135.03826 52.08743729,135.86359 54.75663728999999,136.69062 57.55237729,137.51884 60.481617289999996,138.34699 63.55153729,139.17356999999998 66.76934728999998,139.99698 70.14229729000002,140.81561 73.67790729000001,141.62793 77.38423729,142.43263 81.27061729,143.22881 85.34760729000001,144.01546 89.62556729,144.79119 94.11368729,145.55457 98.81923729,146.30415 103.74647729,147.03866 108.89581729000001,147.75663 114.26411729,148.45453 119.84411729,149.1282 125.62441729000001,149.77368 131.58961728999998,150.38753 137.72191729,150.96706999999998 144.00271729000002,151.51066 150.41481729,152.01778000000002 156.94461729000002,152.48907 163.58311729000002,152.92458 170.32341729,153.32288 177.15901729,153.68271 184.08381729,154.00303 191.09271729,154.28306 198.18211729,154.52224 205.34971729,154.72019 212.59531729,154.87715 219.91891729,154.99466999999999 227.31971729,155.07461999999998 234.79611729,155.11907 242.34531729,155.13031 249.96301729,155.11087 257.64391729,155.06349 265.38151729000003,154.99016 273.16931729000004,154.89192 281.00141729,154.76988 288.87271729,154.62524 296.77831729,154.45929999999998 304.71471729,154.27344 312.67891729,154.06883 320.66841729,153.846 328.68061729,153.60535 336.71331729,153.34729 344.76381728999996,153.07229999999998 352.82991728999997,152.78085 360.90921729,152.47343999999998 368.99941729,152.1506 377.09821729000004,151.81288 385.20361729,151.46083 393.31351729,151.09502 401.42581729,150.71605 409.53871729,150.32446 417.65041729,149.92042 425.75961729,149.50382 433.86531728999995,149.07454 441.96681729,148.63244 450.06401729,148.17737 458.15701729,147.70914 466.24631729000004,147.22756 474.33301729000004,146.73239 482.41821729,146.22339 490.50361729,145.70026000000001 498.59151729,145.16266000000002 506.6841172900001,144.61023 514.78431729,144.04295 522.89491729,143.46142 531.01811729,142.86628 539.1561172899999,142.25822 547.31041729,141.63795 555.48241729,141.00621 563.67291729,140.36378 571.88251729,139.71147 580.1113172899999,139.05014 588.35901729,138.3807 596.62481729,137.70411000000001 604.9076172899998,137.02138 613.20561729,136.33339 621.5170172899999,135.64054 629.8398172899999,134.94315 638.17201729,134.24153 646.5115172899999,133.53602 654.85631729,132.82695 663.20421729,132.11466 671.5531172899999,131.3995 679.90081729,130.68182 688.2451172899999,129.96199000000001 696.5839172899999,129.24034999999998 704.91501729,128.51728 713.2362172899999,127.79296 721.54551729,127.06707 729.84151729,126.33919 738.12321729,125.60882000000001 746.38991729,124.87547 754.64171729,124.13859 762.8787172899999,123.3976 771.10181729,122.6519 779.31201729,121.90084999999999 787.5111172899999,121.14375 795.7010172899999,120.37989999999999 803.88401729,119.60853 812.06281729,118.8291 820.2399172899999,118.04217 828.4163172899999,117.24875 836.59191729,116.44995 844.7648172899999,115.64702 852.9322172899999,114.84138 861.0896172899999,114.03453 869.2314172899999,113.22815 877.3507172899999,112.42399 885.4395172899999,111.62391 893.48871729,110.82986 901.48861729,110.04378 909.42871729,109.26751 917.2939172899999,108.50137 925.05901729,107.745575 932.68951729,107.001402 940.14541729,106.270862 947.38671729,105.556354 954.37721729,104.860283 961.0885172899999,104.184962 967.50481729,103.532678 973.62281729,102.90466599999999 979.44831729,102.301171 984.9933172899999,101.721752 990.27311729,101.165528 995.3045172899999,100.631363 1000.10491729,100.117996 1004.09381729,99.68863999999999" stroke="black" stroke-width="2.0" /></svg>