<?xml version="1.0" encoding="utf-8" ?>
<svg baseProfile="full" height="222.21401000000003" version="1.1" width="1012.4725638" xmlns="http://www.w3.org/2000/svg" xmlns:ev="http://www.w3.org/2001/xml-events" xmlns:xlink="http://www.w3.org/1999/xlink"><defs /><polygon fill="none" points="1004.4725638,130.0241 1000.3430638,129.1732682 995.3898638,128.14130699999998 990.2181638,127.05050200000001 984.8134637999999,125.895988 979.1617638,124.672776 973.2506638,123.37595400000001 967.0707637999999,122.001008 960.6173638,120.54428300000001 953.8929638000001,119.0036 946.9095638,117.37921 939.6867638,115.67426 932.2493638,113.89362 924.6238638,112.04325 916.8361638,110.1294 908.9076638,108.15777 900.8517638000001,106.13248 892.6743638,104.05602 884.3799638,101.93083 875.9746637999999,99.75992 867.4656637999999,97.54693 858.8619637999999,95.29609 850.1738637999999,93.01221000000001 841.4133638000001,90.69996 832.5934638,88.36392000000001 823.7278638,86.00895 814.8310637999999,83.64016000000001 805.9176638,81.2628 797.0021638,78.88243 788.0971638,76.50534 779.2122638000001,74.13726 770.3538638,71.78306 761.5254638,69.44667000000001 752.7273638,67.1312 743.9580638,64.83841 735.2160638,62.56921 726.5011638,60.32464 717.8140638,58.10598 709.1563638,55.914699999999996 700.5305638,53.752480000000006 691.9391638000001,51.62142 683.3839638000001,49.523640000000015 674.8654637999999,47.460890000000006 666.3830638,45.43463 657.9354638,43.446 649.5201638000001,41.49588 641.1344638,39.58458 632.7763638,37.71233000000001 624.4444638,35.87948 616.1378638,34.08649 607.8559638,32.333929999999995 599.5991637999999,30.62248000000001 591.3678638,28.953100000000006 583.1634638,27.326999999999998 574.9877638,25.745500000000007 566.8433637999999,24.2098 558.7331637999999,22.7213 550.6607638,21.2812 542.6294638,19.89110000000001 534.6409638,18.552499999999995 526.6945638,17.2663 518.7879637999999,16.033 510.91686379999993,14.853300000000004 503.0751638,13.727100000000007 495.2560638,12.654300000000006 487.45566379999997,11.634600000000006 479.6759638,10.667999999999992 471.9243638,9.755499999999998 464.21336379999997,8.898200000000003 456.55996379999993,8.097400000000007 448.98496379999995,7.354500000000002 441.5071638,6.674599999999998 434.1355638,6.063600000000008 426.8679638,5.526100000000014 419.69386380000003,5.0655 412.5956638,4.684700000000021 405.5495638,4.3870000000000005 398.5262638,4.1754999999999995 391.49436380000003,4.0482000000000085 384.4281638,4.0 377.30846379999997,4.026599999999988 370.1231638,4.124399999999994 362.8673638,4.289800000000014 355.5452638,4.51870000000001 348.17056379999997,4.806200000000018 340.76436379999996,5.150600000000011 333.3463638,5.552500000000009 325.9322638,6.012200000000007 318.53326380000004,6.5301000000000045 311.15606379999997,7.1063000000000045 303.8029638,7.741400000000013 296.4718638,8.435999999999993 289.1584638,9.1905 281.85946379999996,10.0047 274.5729638,10.87830000000001 267.2986638,11.811000000000007 260.0376638,12.802400000000006 252.7925638,13.851700000000008 245.56736379999998,14.957800000000006 238.3672638,16.1199 231.1986638,17.336700000000008 224.06916379999998,18.6066 216.98686379999998,19.927599999999998 209.96096379999997,21.29740000000001 203.0009638,22.713099999999997 196.1166638,24.171599999999998 189.31786379999997,25.670500000000004 182.61356379999998,27.207800000000006 176.01146379999997,28.78150000000001 169.5179638,30.389460000000014 163.13826379999998,32.029529999999994 156.8762638,33.69959 150.73506379999998,35.39751000000001 144.7167638,37.12126000000001 138.82516379999998,38.868579999999994 133.0673638,40.63601 127.4527638,42.418980000000005 121.9914638,44.21204 116.69326380000001,46.00922 111.5667638,47.80436 106.6190638,49.59146 101.8543338,51.36493 97.27487380000001,53.11983000000001 92.8809138,54.85262 88.67120380000001,56.560860000000005 84.64279379999999,58.242490000000004 80.79121380000001,59.89589000000001 77.1107238,61.51987000000001 73.59467380000001,63.11368 70.2360838,64.67732000000001 67.0279838,66.21166000000001 63.9630438,67.71765 61.0337938,69.19632000000001 58.2327938,70.64873 55.5527538,72.07593 52.986653800000006,73.47897 50.5278038,74.85888 48.169893800000004,76.21669 45.90761380000001,77.55351999999999 43.7365038,78.87029000000001 41.6525338,80.16767 39.65197380000001,81.44612000000001 37.7313338,82.706 35.8872438,83.94759 34.116473799999994,85.17112 32.4158738,86.37682000000001 30.7824038,87.56491 29.2131038,88.73563 27.7050738,89.88923 26.2555438,91.02597 24.8618438,92.14615 23.5222438,93.25066000000001 22.2359238,94.34106 21.001813799999997,95.41886 19.818623799999997,96.48547 18.6849738,97.54220000000001 17.5993838,98.59026 16.5603438,99.63078 15.566353799999998,100.66477 14.615923800000001,101.6932 13.7076318,102.71693 12.8400938,103.73670000000001 12.0122058,104.75269 11.2230408,105.76478 10.471742800000001,106.77278000000001 9.7575058,107.77647 9.0795558,108.77562 8.437566799999999,109.77024 7.834588800000001,110.76267 7.2747838,111.75638000000001 6.7616828,112.75482 6.297575800000001,113.76062 5.8811447999999995,114.77302 5.5103248,115.79047 5.1833159,116.81163000000001 4.8985557,117.83536000000001 4.6547021,118.86064 4.45061759,119.8866 4.2853578,120.91248300000001 4.158162,121.937607 4.0684471,122.961389 4.0158047,123.98331 4.0,125.002914 4.0209753,126.019799 4.078856,127.033607 4.1739603,128.044023 4.3068142,129.050765 4.478171058,130.053584 4.6887574,131.05246 4.938516,132.04809 5.2273426,133.041233 5.5552958,134.032531 5.9225788,135.022511 6.3295238000000005,136.011575 6.7765708,136.999991 7.2642488,137.987878 7.7931478,138.975184 8.3638878,139.961659 8.9770788,140.94682 9.6332668,141.92989 10.3328618,142.90980000000002 11.0760568,143.88505 11.8627158,144.85372 12.692307799999998,145.81348 13.5648678,146.7632 14.4813338,147.70335 15.4430638,148.63504 16.4513738,149.55948 17.506943800000002,150.47746 18.6103838,151.38975 19.762123799999998,152.29713 20.9624438,153.20037 22.2122438,154.10026 23.5134038,154.99757 24.867973799999998,155.89323000000002 26.2780138,156.78827 27.7456238,157.6839 29.2728538,158.58151 30.861703799999997,159.48271 32.513983800000005,160.38933 34.2312738,161.30348 36.0158438,162.22649 37.8711138,163.15854000000002 39.8007638,164.09969999999998 41.808643800000006,165.05007 43.898763800000005,166.00976 46.0752938,166.97890999999998 48.3425938,167.9577 50.70527380000001,168.94641000000001 53.1681438,169.94543 55.7364038,170.95533 58.415683800000004,171.97694 61.2123238,173.01136 64.13392379999999,174.05942000000002 67.1888338,175.12179 70.3857938,176.19918 73.7338538,177.29236 77.24219380000001,178.40213 80.91993380000001,179.52940999999998 84.7758838,180.67520000000002 88.8183938,181.84006 93.0555238,183.02306 97.4943438,184.22264 102.1404738,185.43689 106.9978638,186.66354 112.0684638,187.90005000000002 117.35286380000001,189.14319 122.8485638,190.38892 128.5499638,191.63276000000002 134.44826379999998,192.87002999999999 140.5320638,194.09611 146.78826379999998,195.30675000000002 153.20346379999998,196.49835000000002 159.76586379999998,197.66827 166.46626379999998,198.81448 173.2974638,199.93421 180.2511638,201.0246 187.31876379999997,202.08298000000002 194.4909638,203.10692 201.7584638,204.09433 209.1121638,205.04342 216.54326379999998,205.95264 224.0433638,206.82034 231.60316379999998,207.64497 239.2131638,208.42522000000002 246.86366379999998,209.15998000000002 254.54446380000002,209.84841 262.2456638,210.48988 269.9578638,211.08325000000002 277.6741638,211.62704000000002 285.3905638,212.12011 293.10566379999995,212.56159000000002 300.8211638,212.95074 308.54156379999995,213.2869 316.2734638,213.56987 324.0212638,213.80043 331.7833638,213.97932 339.55216379999996,214.10724 347.3137638,214.18507 355.0484638,214.21401000000003 362.7315638,214.19502 370.3407638,214.12442000000001 377.86556379999996,213.99691 385.3079638,213.80754000000002 392.6803638,213.55127 400.00436379999996,213.22243 407.3100638,212.81418000000002 414.6357638,212.32181 422.0187638,211.74796 429.4890638,211.09586000000002 437.0691638,210.36898 444.7722638,209.57169 452.5996638,208.71015 460.5383638,207.79254 468.56396379999995,206.82403 476.6531638,205.80692 484.78766379999996,204.74332 492.95546379999996,203.63485 501.1514638,202.48239 509.3780638,201.2859 517.6430637999999,200.04519 525.9543638,198.76063 534.3175638,197.43281000000002 542.7365638,196.06266 551.2128637999999,194.65153 559.7455638,193.20125000000002 568.3316637999999,191.71385 576.9680638,190.19141000000002 585.6511638,188.63617 594.3775638,187.0505 603.1434638,185.4369 611.9451638,183.79781 620.7791638,182.13494 629.6427638,180.44965000000002 638.5345638,178.74316 647.4539638,177.01649 656.4018638,175.27049 665.3796638,173.50657999999999 674.3867638,171.72761 683.4192638,169.93728 692.4693638,168.14008 701.5256638,166.34132 710.5729637999999,164.54695 719.5953638,162.76268000000002 728.5800638,160.99338 737.5175638,159.24314 746.4021637999999,157.51523 755.2310638,155.81221 764.0040638,154.1362 772.7200637999999,152.4896 781.3751638,150.87525 789.9631638000001,149.29625000000001 798.4758638,147.7559 806.9033638,146.25758000000002 815.2358638,144.80536 823.4677638000001,143.40327 831.5988638,142.05412 839.6334638,140.75973 847.5792637999999,139.521171 855.4471638,138.338957 863.2489638,137.212301 870.9893638,136.139398 878.6623638,135.119709 886.2527638,134.15373 893.7381637999999,133.242527 901.0906638,132.387288 908.2802638,131.589551 915.2807637999999,130.85734580000002 922.0777638,130.2005206 928.6679637999999,129.6256265 935.0557638,129.1366516 941.2506638,128.73579 947.2651638,128.42407300000002 953.1134638,128.201851 958.8102637999999,128.068486 964.3696637999999,128.019137 969.8041638,128.048009 975.1245637999999,128.150089 980.3402638,128.321016 985.4594638,128.55696799999998 990.4896638,128.854578 995.4371638,129.2108624 1000.3079638,129.6231676 1004.4725638,130.0241" stroke="black" stroke-width="2.0" /></svg>