<?xml version="1.0" encoding="utf-8" ?>
<svg baseProfile="full" height="112.31026" version="1.1" width="1012.09248781" xmlns="http://www.w3.org/2000/svg" xmlns:ev="http://www.w3.org/2001/xml-events" xmlns:xlink="http://www.w3.org/1999/xlink"><defs /><polygon fill="none" points="1004.09248781,75.64079 1001.1505878099999,75.07598929999999 997.5921878099999,74.394579 993.83848781,73.67780599999999 989.86928781,72.922163 985.66268781,72.12390099999999 981.19598781,71.27915999999999 976.44658781,70.38424599999999 971.3951878099999,69.4361 966.0291878099999,68.43305699999999 960.34868781,67.37593199999999 954.37468781,66.269357 948.15858781,65.12348 941.94238781,63.9828 935.81478781,62.86292999999999 929.71568781,61.75228 923.60128781,60.64229999999999 917.44078781,59.52695 911.2159878099999,58.40248 904.92768781,57.26858 898.6582878099999,56.13973 892.42468781,55.01942 886.20988781,53.90528 880.00058781,52.79559 873.78708781,51.68929 867.5624878099999,50.585879999999996 861.32348781,49.48546999999999 855.06968781,48.38875999999999 848.80428781,47.296949999999995 842.53178781,46.21113 836.2561878099999,45.132189999999994 829.98068781,44.060869999999994 823.70748781,42.99773999999999 817.4381878099999,41.94322999999999 811.17338781,40.8976 804.91298781,39.86097999999999 798.6559878099999,38.83340999999999 792.40128781,37.81492 786.1476878099999,36.805629999999994 779.89458781,35.80569 773.6415878099999,34.815279999999994 767.38838781,33.83466 761.13508781,32.86409999999999 754.8820878099999,31.90393999999999 748.6299878099999,30.95454 742.3792878099999,30.016379999999998 736.13048781,29.089909999999996 729.88368781,28.175569999999993 723.63888781,27.273739999999997 717.39588781,26.384779999999992 711.1541878099999,25.50902 704.91308781,24.646759999999993 698.6718878099999,23.798239999999993 692.42978781,22.963449999999995 686.18618781,22.142399999999995 679.9408878099999,21.335119999999996 673.69388781,20.541679999999992 667.4453878099999,19.762169999999998 661.1958878099999,18.996739999999996 654.94618781,18.24552 648.6972878099999,17.50877 642.4500878099999,16.786999999999992 636.2053878099999,16.080789999999993 629.96338781,15.390649999999994 623.7243878099999,14.717059999999996 617.48808781,14.060469999999995 611.25408781,13.421309999999998 605.0215878099999,12.799959999999999 598.78958781,12.196780000000004 592.55718781,11.611899999999991 586.32378781,11.045479999999998 580.08928781,10.497679999999988 573.85378781,9.96871999999999 567.6180878099999,9.458849999999998 561.38318781,8.968329999999995 555.15048781,8.49745 548.92168781,8.046579999999992 542.69868781,7.6165499999999895 536.4825878099999,7.208279999999988 530.2739878099999,6.822659999999985 524.0726878099999,6.460509999999999 517.8780878099999,6.122600000000006 511.68878781,5.8097099999999955 505.50288781000006,5.522579999999991 499.31788781,5.2618499999999955 493.13128781,5.0272700000000015 486.94078781,4.818209999999993 480.74498781,4.634089999999986 474.54278781,4.474350000000001 468.33388781,4.338469999999987 462.11838781,4.225939999999994 455.89718781000005,4.136259999999993 449.67158781,4.068950000000001 443.44338781,4.023799999999994 437.21388781,4.0008299999999934 430.98408781,4.0 424.75488781,4.021289999999993 418.52638781,4.06465 412.29868781000005,4.130049999999997 406.07108781000005,4.217460000000003 399.84298781,4.3268699999999995 393.61318781,4.458029999999994 387.3807878100001,4.610579999999999 381.14518781000004,4.7841200000000015 374.90618781000006,4.978259999999992 368.66368781,5.192610000000002 362.41798781000006,5.426760000000002 356.16978781,5.680279999999996 349.91998781,5.9527399999999915 343.66958781000005,6.243959999999987 337.41988781000003,6.554050000000004 331.17158781000006,6.883129999999994 324.92568781,7.231290000000001 318.68268781,7.598649999999992 312.44308781,7.985309999999998 306.20728781,8.39139999999999 299.97548781,8.817019999999985 293.74768781,9.2624 287.52408781,9.727819999999994 281.30458781000004,10.213589999999996 275.08948781000004,10.720019999999991 268.87878781,11.247399999999999 262.67248781,11.796019999999999 256.47078781,12.366199999999992 250.27368780999998,12.95821999999999 244.08138781,13.572349999999993 237.89388781,14.208789999999993 231.71118781,14.867749999999994 225.53338781,15.549459999999996 219.36038781000002,16.25414 213.19198781,16.982009999999995 207.02798780999998,17.733329999999995 200.86828781,18.508339999999997 194.71268780999998,19.30744 188.56138780999999,20.131279999999997 182.41528781,20.98048 176.27558781,21.85551999999999 170.14458781,22.756829999999994 164.02448780999998,23.684669999999997 157.91858781,24.639179999999996 151.83038781,25.620369999999994 145.76398781,26.628299999999996 139.72288781,27.663729999999994 133.70888781,28.727829999999997 127.72218781,29.821989999999992 121.76128781,30.947899999999997 115.82308780999999,32.107569999999996 109.90318780999999,33.30335999999999 103.99555781,34.5381 98.09287781,35.815059999999995 92.19182780999999,37.1371 86.30417781,38.50375999999999 80.45877781,39.91009 74.69912781,41.346419999999995 69.07105781,42.80419 63.590817810000004,44.284789999999994 58.24029781,45.79799 52.97645781,47.36116 47.73825781,48.998909999999995 42.50701781,50.72238999999999 37.39369781,52.49677 32.603327809999996,54.244099999999996 28.310927810000003,55.88337 24.576147810000002,57.373529999999995 21.39138781,58.72933 18.712437809999997,59.97011 16.46083781,61.11091 14.55215781,62.166929999999994 12.91865881,63.15033999999999 11.51284181,64.06941 10.29570281,64.93202 9.23494781,65.750363 8.30302181,66.557263 7.47990081,67.37579699999999 6.757373810000001,68.201657 6.132717810000001,69.017353 5.59958381,69.81416899999999 5.15107481,70.588718 4.78121051,71.340266 4.48536571,72.069367 4.26035211,72.777181 4.10441016,73.46513 4.01722117,74.13474199999999 4.0,74.7875768 4.05571617,75.4252199 4.18897003,76.04942969999999 4.40043661,76.663381 4.68880171,77.270707 5.05464801,77.87455299999999 5.5004138099999995,78.477701 6.03041281,79.082634 6.65092181,79.69147099999999 7.37020581,80.30570999999999 8.19810281,80.925551 9.14417381,81.54829699999999 10.21169181,82.16482099999999 11.38977481,82.756728 12.68944481,83.319141 14.15520781,83.868545 15.84066781,84.41834 17.80525781,84.97639199999999 20.122207810000003,85.553389 22.888717810000003,86.15384 26.207867810000003,86.77752 30.14310781,87.42952 34.699207810000004,88.1334 39.83255781,88.88656 45.37555781,89.65283 51.09193781,90.39233999999999 56.82854781,91.08303 62.58577781,91.72645 68.42418781,92.33501 74.38330781,92.91866999999999 80.47112781,93.48446999999999 86.65536781,94.03564 92.88185781,94.56826 99.10966781,95.07806 105.31908781,95.56296999999999 111.51128780999998,96.02299 117.69868781,96.46032 123.89268780999998,96.87747999999999 130.10178781,97.27665999999999 136.33188781,97.65981 142.58638781,98.02869 148.86548781000002,98.38492 155.16698781,98.72998 161.48508780999998,99.06504 167.81308780999998,99.38998 174.14508780999998,99.70428 180.47648781,100.0075 186.80428781,100.29930999999999 193.12648781000001,100.57946 199.44268781,100.84777 205.75398780999998,101.10410999999999 212.06248781,101.34849 218.37068781,101.58127999999999 224.68078780999997,101.80293 230.99438780999998,102.01384999999999 237.31248781,102.21441999999999 243.63558781,102.405 249.96378780999999,102.58592999999999 256.29628780999997,102.75755 262.63218781,102.92011 268.97008781,103.07363 275.30918781,103.21811 281.64858781,103.35356999999999 287.98778781000004,103.48001 294.32648781,103.59747 300.66478781,103.70597 307.00268781000005,103.80555 313.34058781000005,103.89623999999999 319.67878781,103.97802999999999 326.01758781000007,104.05091999999999 332.35678781,104.11489 338.69638781000003,104.16995 345.03588781,104.21607999999999 351.37488781,104.25326999999999 357.71248781,104.28151 364.04808781,104.30063 370.38078781,104.31026 376.71028781,104.31004 383.03618781,104.29959 389.35858781,104.27855 395.67768781000007,104.24654 401.99378781,104.2032 408.30748781,104.14817 414.61958781,104.08116 420.93058781,104.002 427.24068781,103.91049 433.54978781,103.80645999999999 439.85748781,103.68973 446.16308781,103.56013 452.46578781,103.41751 458.76418781,103.26172 465.05708781000004,103.09236999999999 471.34368781,102.90894999999999 477.62368781000004,102.71094 483.89728781,102.4978 490.16548781,102.26895999999999 496.42958781000004,102.02383 502.69148781,101.7618 508.95368781,101.4823 515.2188878100001,101.18569 521.48908781,100.87277 527.7660878099999,100.54435 534.0509878099999,100.20127 540.34418781,99.84438999999999 546.6455878099999,99.47461999999999 552.95458781,99.09291999999999 559.2697878099999,98.70021 565.5895878099999,98.29708 571.9127878099999,97.88392999999999 578.23828781,97.46115999999999 584.56548781,97.02914999999999 590.89398781,96.58829 597.22358781,96.13892 603.5545878099999,95.68136999999999 609.8874878099999,95.21596 616.22298781,94.74312 622.56148781,94.26326 628.9035878099999,93.77685 635.2492878099999,93.28432 641.5989878099999,92.78616 647.95248781,92.28282999999999 654.30978781,91.77483 660.67068781,91.26259999999999 667.03468781,90.74642 673.40148781,90.22655999999999 679.77048781,89.70327999999999 686.1411878099999,89.17688 692.51278781,88.64762999999999 698.88458781,88.11582999999999 705.25588781,87.5818 711.6256878099999,87.04603999999999 717.9934878099999,86.50941 724.35878781,85.97273999999999 730.72148781,85.436854 737.0815878099999,84.90256099999999 743.43958781,84.37063599999999 749.79608781,83.841835 756.15178781,83.316881 762.5078878099999,82.79617499999999 768.8647878099999,82.2798 775.2226878099999,81.767862 781.58118781,81.26050699999999 787.93958781,80.757916 794.29648781,80.260306 800.65018781,79.767924 806.9983878099999,79.2811 813.3385878099999,78.800946 819.66888781,78.329126 825.98778781,77.867256 832.29448781,77.416884 838.58848781,76.979496 844.87018781,76.5565226 851.1401878099999,76.1493428 857.3997878099999,75.7592117 863.6505878099999,75.3863368 869.8948878099999,75.030232 876.1351878099999,74.6904017 882.3742878099999,74.366357 888.61558781,74.057619 894.86288781,73.76371999999999 901.12028781,73.48420999999999 907.39228781,73.21897299999999 913.68088781,72.97248499999999 919.97878781,72.752901 926.26828781,72.56867199999999 932.52138781,72.42798599999999 938.70208781,72.33810899999999 944.76918781,72.304671 950.68068781,72.33108899999999 956.39868781,72.418188 961.8933878099999,72.56199799999999 967.1482878099999,72.754834 972.1582878099999,72.98907 976.92668781,73.257739 981.46248781,73.554721 985.7779878099999,73.87478999999999 989.8869878099999,74.213566 993.8037878099999,74.567413 997.54248781,74.93334019999999 1001.1165878099999,75.3088926 1004.09248781,75.64079" stroke="black" stroke-width="2.0" /></svg>