<?xml version="1.0" encoding="utf-8" ?>
<svg baseProfile="full" height="161.92998" version="1.1" width="1012.05334509" xmlns="http://www.w3.org/2000/svg" xmlns:ev="http://www.w3.org/2001/xml-events" xmlns:xlink="http://www.w3.org/1999/xlink"><defs /><polygon fill="none" points="1004.05334509,89.92845 1000.8229450900001,89.4411576 996.94374509,88.840546 992.88624509,88.194265 988.63574509,87.497389 984.17694509,86.744458 979.49444509,85.929518 974.57324509,85.046228 969.4005450899999,84.088087 963.96774509,83.048839 958.27284509,81.923112 952.3239450899999,80.707351 946.1417450900001,79.4024 939.75704509,78.0149 933.20644509,76.55474 926.52924509,75.03397 919.7619450899999,73.46555000000001 912.93484509,71.86197 906.06794509,70.23409 899.16974509,68.58999 892.24124509,66.93261 885.28354509,65.26328 878.29904509,63.58364999999999 871.29114509,61.8957 864.2647450899999,60.20178 857.22604509,58.50455 850.1825450900001,56.80703 843.14214509,55.11251 836.11184509,53.42413 829.09674509,51.74461 822.1007450899999,50.07626 815.12584509,48.421009999999995 808.17294509,46.78037 801.2412450899999,45.15551 794.32914509,43.54738 787.4350450899999,41.95696 780.55784509,40.38529 773.6967450899999,38.83352 766.8514450900001,37.30283 760.02194509,35.794489999999996 753.20864509,34.30979 746.41224509,32.8501 739.63304509,31.4167 732.87124509,30.010779999999997 726.12604509,28.63337 719.3965450899999,27.28539 712.68114509,25.96765 705.97794509,24.680890000000005 699.28454509,23.42577 692.59894509,22.203010000000006 685.92054509,21.01356 679.25044509,19.85864000000001 672.59104509,18.739670000000004 665.94614509,17.658239999999992 659.32104509,16.616029999999995 652.72214509,15.61479 646.15644509,14.656679999999994 639.62834509,13.744219999999999 633.13834509,12.879279999999994 626.68314509,12.063180000000003 620.25624509,11.296850000000006 613.84774509,10.581000000000003 607.44494509,9.916269999999997 601.03164509,9.303239999999988 594.59014509,8.739609999999999 588.1052450899999,8.220910000000003 581.56524509,7.74315 574.96254509,7.3027099999999905 568.29364509,6.896249999999995 561.56014509,6.5205199999999905 554.7694450900001,6.172309999999996 547.9348450900001,5.848979999999997 541.07204509,5.550719999999998 534.19414509,5.278360000000006 527.31134509,5.032429999999991 520.43054509,4.813190000000006 513.55534509,4.620720000000006 506.68584509000004,4.4549399999999935 499.81894508999994,4.315729999999988 492.94944509,4.202629999999999 486.07314508999997,4.11502999999999 479.18704508999997,4.052389999999988 472.29004509,4.014209999999991 465.38234509,4.0 458.46564509,4.00927999999999 451.54354509,4.041519999999991 444.62064509,4.096529999999987 437.70134508999996,4.174760000000006 430.78854508999996,4.276650000000004 423.88394509,4.402609999999996 416.98824508999996,4.553089999999997 410.10044509,4.728530000000006 403.21864509,4.92944 396.33984509,5.1562199999999905 389.46074509,5.408709999999999 382.57904509,5.686639999999997 375.69324509,5.989760000000004 368.80264509,6.317759999999993 361.90764509,6.670320000000004 355.00924509,7.047049999999999 348.10964508999996,7.447550000000007 341.21124509,7.8718000000000075 334.31624509,8.319959999999995 327.42664508999997,8.79218999999999 320.54384509,9.288629999999998 313.66884509,9.80946999999999 306.80254508999997,10.354880000000009 299.94504508999995,10.925079999999994 293.09664509,11.52033999999999 286.25724509,12.141049999999993 279.42694509,12.787570000000002 272.60594509,13.460250000000002 265.79444509,14.15946000000001 258.99274508999997,14.88552 252.20114508999998,15.638779999999997 245.41994508999997,16.419560000000004 238.64984509,17.228210000000004 231.89124509,18.065089999999998 225.14494509,18.930509999999998 218.41184509,19.82477 211.69274509,20.74812 204.98864509,21.70080999999999 198.30074509,22.68307 191.63034509,23.695589999999996 184.97974509,24.73925 178.35194509,25.814750000000004 171.75034509,26.92262999999999 165.17924509,28.063179999999996 158.64334509,29.2365 152.14784508999998,30.442459999999997 145.69854508999998,31.68087 139.30054509,32.95212 132.95754509,34.25684 126.67184509,35.59580999999999 120.44434508999998,36.97 114.27454509,38.38053 108.16104508999999,39.82875 102.10144509,41.31623999999999 96.09434508999999,42.84401 90.15659509,44.40737 84.33445508999999,45.992619999999995 78.69446509,47.57859 73.30685509,49.141659999999995 68.21702508999999,50.67014999999999 63.425515090000005,52.165549999999996 58.90576509,53.63552 54.621095090000004,55.090379999999996 50.533235090000005,56.54118999999999 46.61535509,57.9919 42.87690509,59.43007 39.352495090000005,60.83297 36.07812509,62.17631 33.07459509,63.44158 30.342415090000003,64.61935 27.86603509,65.70841 25.622285090000002,66.71553 23.588785090000002,67.65942 21.74121509,68.5574 20.05613509,69.42206999999999 18.512675090000002,70.26271 17.09284509,71.08618 15.781565089999999,71.8976 14.56629509,72.70067 13.437843090000001,73.49672 12.389133090000001,74.28587999999999 11.41406009,75.06823 10.507255090000001,75.84383 9.664922090000001,76.61466999999999 8.887209089999999,77.38947 8.17465009,78.17636999999999 7.52698709,78.97979 6.942329089999999,79.79508 6.4179740899999995,80.616439 5.951100090000001,81.439696 5.53900709,82.261893 5.17925709,83.08098199999999 4.86975309,83.895595 4.60877379,84.704874 4.39499279,85.508344 4.22749279,86.305823 4.10577991,87.097362 4.02980511,87.883203 4.0,88.663751 4.017331,89.4395672 4.08334819,90.2113727 4.1987426899999996,90.980277 4.36266859,91.747651 4.57469979,92.514661 4.83493289,93.282254 5.14394209,94.051158 5.50274709,94.82185799999999 5.91278609,95.594551 6.375885090000001,96.369072 6.894204090000001,97.144769 7.47014609,97.920339 8.10619209,98.693579 8.80461309,99.461048 9.56698909,100.21763 10.39351809,100.95623 11.284444090000001,101.67388 12.24180409,102.37526 13.26893409,103.06801999999999 14.37102509,103.75632999999999 15.554395090000002,104.44086 16.82613509,105.12224 18.19421509,105.80125 19.669175090000003,106.47944 21.266155089999998,107.16002 23.00393509,107.84774 24.90479509,108.54938999999999 26.994355090000003,109.27467 29.30150509,110.03809 31.85468509,110.86000999999999 34.680755090000005,111.75386 37.80146509,112.72068 41.22202509,113.75442 44.92395509,114.84057 48.86793509,115.958 53.01171509,117.08509 57.33913509,118.20781 61.878105090000005,119.3273 66.67268508999999,120.45333 71.76447508999999,121.59544 77.18066508999999,122.76097999999999 82.91088509,123.9519 88.89001508999999,125.15638999999999 95.03177509,126.35293999999999 101.26311509,127.52404999999999 107.54304508999999,128.65986 113.86614508999999,129.75879 120.23884508999998,130.82317999999998 126.66604509,131.85523 133.15084509,132.85681 139.69444509,133.82949 146.29534509,134.77457 152.94944508999998,135.69313 159.64994509,136.58597 166.38794509,137.45293 173.15524509,138.29345999999998 179.94514508999998,139.10729 186.75204509,139.89444 193.57204509000002,140.65521 200.40254509,141.39011 207.24274509,142.09987999999998 214.09334508999999,142.78529 220.95524509,143.44696 227.82914509,144.08548 234.71544509,144.70138 241.61424509,145.29516999999998 248.52534509,145.86733 255.44814508999997,146.41834 262.38184509,146.94861 269.32544509,147.45843 276.27794509,147.94806 283.23844509,148.41777 290.20574509,148.86786 297.17904509,149.29863 304.15694509,149.71038 311.13864509,150.10338000000002 318.12304509,150.47761 325.10914508999997,150.83294 332.09614509,151.16926 339.08334508999997,151.48647 346.07004509,151.7845 353.05594508999997,152.06324999999998 360.04034509,152.32267 367.02324509,152.5627 374.00464509,152.78328 380.98474509000005,152.98437 387.96434509,153.16593999999998 394.94444509,153.32794 401.92614509000003,153.47033 408.91124508999997,153.59307 415.90124509,153.69630999999998 422.89704509,153.78034 429.89874509,153.84545 436.90554509000003,153.8919 443.91564509,153.91998 450.92664508999997,153.92998 457.93504509,153.92221 464.93694509,153.89657 471.92964509,153.85258 478.91174509,153.78977 485.88344508999995,153.70765 492.84604509,153.60572 499.80264509,153.48345 506.75754509000006,153.34024 513.71544509,153.17563 520.67934509,152.98946 527.6485450900001,152.78166 534.61864509,152.55228 541.58204509,152.30156 548.52754509,152.02998 555.44074509,151.73828 562.30564509,151.42602 569.1092450900001,151.08996 575.84544509,150.72654 582.5141450899999,150.33221 589.1201450899999,149.90332 595.67314509,149.43596 602.18654509,148.92584 608.6777450899999,148.36858999999998 615.16544509,147.76342 621.66564509,147.11122 628.19084509,146.41289 634.75034509,145.66942 641.3497450899999,144.88211 647.9912450899999,144.05265 654.6726450900001,143.18338 661.38794509,142.2769 668.12994509,141.33514 674.89284509,140.3599 681.67204509,139.3529 688.46454509,138.31576 695.26874509,137.24989 702.08484509,136.15651 708.91464509,135.0366 715.76074509,133.89114 722.62584509,132.72120999999999 729.51224509,131.52794 736.42154509,130.31256 743.35544509,129.07638 750.31474509,127.82082 757.30004509,126.54741999999999 764.31134509,125.25757999999999 771.34734509,123.95272 778.4053450900001,122.63456 785.48154509,121.30512 792.57024509,119.96674 799.66474509,118.62207 806.75664509,117.27408 813.83714509,115.9264 820.89934509,114.58286 827.9388450900001,113.24680000000001 834.9539450899999,111.92101 841.9452450900001,110.60776 848.91554509,109.30888 855.87004509,108.02571 862.81484509,106.75863 869.75354509,105.50739 876.68544509,104.27247 883.60534509,103.05508999999999 890.50394509,101.85712 897.36814509,100.68101 904.18144509,99.529618 910.9249450899999,98.408501 917.5775450900001,97.330316 924.11704509,96.30804499999999 930.52124509,95.353022 936.7694450900001,94.474471 942.84394509,93.679231 948.73064509,92.971672 954.41954509,92.35382 959.90474509,91.824241 965.1848450900001,91.376322 970.26254509,91.002627 975.14374509,90.695977 979.83614509,90.44963969999999 984.34864509,90.2574219 988.69074509,90.11370649999999 992.87204509,90.0134472 996.90214509,89.95213914 1000.79024509,89.925777629 1004.05334509,89.92845" stroke="black" stroke-width="2.0" /></svg>