<?xml version="1.0" encoding="utf-8" ?>
<svg baseProfile="full" height="161.9934" version="1.1" width="1012.2113658" xmlns="http://www.w3.org/2000/svg" xmlns:ev="http://www.w3.org/2001/xml-events" xmlns:xlink="http://www.w3.org/1999/xlink"><defs /><polygon fill="none" points="1004.2113658,100.91622 1001.0184658,100.18888969999999 997.1691658,99.303885 993.1240657999999,98.364279 988.8647658,97.36426999999999 984.3715658,96.29748599999999 979.6240657999999,95.157096 974.6026658,93.93604599999999 969.2899658,92.62753699999999 963.6746658,91.225815 957.7552658,89.72739 951.5462657999999,88.1327 945.0810658,86.44868 938.4068657999999,84.68818999999999 931.5785657999999,82.86730999999999 924.6508657999999,81.00323999999999 917.6710658,79.11197999999999 910.6732658,77.20651 903.6753658,75.29558 896.6797658,73.38310999999999 889.6837658,71.47010999999999 882.6854658,69.55765 875.6840658,67.64708999999999 868.6799658,65.74009 861.6744658,63.838609999999996 854.6699657999999,61.9449 847.6701658,60.06135999999999 840.6784658,58.19014 833.6979657999999,56.333119999999994 826.7308658,54.491969999999995 819.7786658,52.66813 812.8422658,50.86283999999999 805.9217658,49.077149999999996 799.0168658,47.31195999999999 792.1268657999999,45.56827 785.2514658,43.847179999999994 778.3903657999999,42.1498 771.5438657999999,40.477309999999996 764.7121658,38.8309 757.8959658,37.211789999999986 751.0958658,35.62123 744.3128657999999,34.06053 737.5470658,32.53089 730.7982658,31.033379999999994 724.0656657999999,29.56891999999999 717.3478657999999,28.138270000000006 710.6428658,26.742119999999986 703.9483658,25.381050000000002 697.2617657999999,24.05556999999999 690.5812658,22.766320000000007 683.9070657999999,21.514229999999984 677.2405657999999,20.300479999999993 670.5849658,19.126519999999985 663.9447658,17.99391 657.3258658,16.90432 650.7354658,15.859559999999988 644.1801657999999,14.862059999999985 637.6627658,13.914049999999989 631.1823657999998,13.017040000000009 624.7344658,12.172029999999992 618.3108658,11.379689999999997 611.9007658,10.640510000000006 605.4898658,9.95496 599.0607657999999,9.322859999999991 592.5961658,8.740409999999997 586.0821658,8.20331999999999 579.5083657999999,7.70787 572.8684658,7.2506799999999885 566.1604657999999,6.82862999999999 559.3880657999999,6.438689999999994 552.5606658,6.07786999999999 545.6929657999999,5.744659999999996 538.7998658,5.439869999999999 531.8934658,5.164219999999986 524.9832657999999,4.918089999999992 518.0750658,4.701629999999994 511.1717658,4.51482 504.27286580000003,4.3574899999999985 497.3750658,4.229399999999984 490.4738658,4.130049999999997 483.56586580000004,4.058969999999988 476.6490658,4.015749999999997 469.7224658,4.0 462.78646580000003,4.011359999999996 455.8426658,4.049419999999998 448.8940658,4.113809999999987 441.9441658,4.2045599999999865 434.99626580000006,4.321939999999998 428.05246580000005,4.466189999999983 421.11436580000003,4.637539999999987 414.18276579999997,4.836240000000004 407.2577658,5.062510000000003 400.3384658,5.3166399999999925 393.4237658,5.598770000000002 386.5123658,5.908929999999998 379.6030658,6.247109999999992 372.6950658,6.613320000000002 365.78776580000005,7.007589999999993 358.8807658,7.429919999999996 351.9737658,7.880330000000001 345.0669658,8.358819999999994 338.16056580000003,8.865399999999994 331.2552658,9.40003999999999 324.3521658,9.962679999999992 317.4525658,10.553229999999985 310.5581658,11.171509999999984 303.6710658,11.817319999999995 296.7935658,12.490449999999996 289.9281658,13.191099999999992 283.07656579999997,13.919759999999997 276.2401658,14.676900000000003 269.41936580000004,15.463080000000005 262.6141658,16.27892 255.82376580000002,17.125089999999986 249.0469658,18.00237 242.2820658,18.911399999999986 235.52796580000003,19.852549999999994 228.78436580000002,20.826089999999994 222.0516658,21.832180000000008 215.3310658,22.87084 208.6246658,23.94194999999999 201.93506580000002,25.04522999999999 195.2658658,26.180419999999984 188.62106580000003,27.348079999999996 182.0047658,28.548939999999988 175.42076580000003,29.78363999999999 168.8731658,31.052719999999994 162.36566580000002,32.356579999999994 155.90186580000002,33.69556 149.4852658,35.06985999999999 143.11916580000002,36.47976 136.8072658,37.9257 130.55256579999997,39.4081 124.3579658,40.927299999999995 118.22576579999999,42.48356 112.15816579999999,44.077099999999994 106.1569658,45.708079999999995 100.22347579999999,47.37659999999999 94.3613058,49.08198 88.5910258,50.817859999999996 82.95676579999999,52.56949999999999 77.5166158,54.31574 72.3287558,56.0336 67.4302558,57.710559999999994 62.82120580000001,59.34663 58.478855800000005,60.94799 54.3715958,62.52354 50.466225800000004,64.08318 46.7343258,65.63379 43.1716458,67.16919 39.7980358,68.67241 36.640115800000004,70.12267 33.717305800000005,71.50188 31.0350258,72.79857 28.5853458,74.00854999999999 26.3512258,75.13329999999999 24.3131558,76.18105 22.453725799999997,77.16835999999999 20.754135799999997,78.10955 19.1956858,79.01574 17.761425799999998,79.89554 16.436805800000002,80.75547999999999 15.2094858,81.60052999999999 14.0689808,82.43457 13.006865799999998,83.25966 12.016885799999999,84.07576999999999 11.0938508,84.88257999999999 10.2332538,85.67975 9.431119800000001,86.46699 8.6860728,87.24772999999999 8.0001228,88.03103 7.3745388,88.82494 6.8093698,89.6343 6.3024227999999995,90.45542999999999 5.8510608,91.283535 5.452878800000001,92.11490699999999 5.1057690000000004,92.946725 4.8079493,93.77682899999999 4.5579763,94.603572 4.3547537,95.42571 4.19753716,96.242305 4.0859435,97.052664 4.0199661,97.856282 4.0,98.65280899999999 4.0268809,99.442015 4.1019421,100.2237723 4.22709531,100.99803829999999 4.4039692,101.7651698 4.6320376,102.526404 4.910801,103.282911 5.2402268,104.035623 5.6206978,104.785232 6.0529698,105.532174 6.5381248,106.27658699999999 7.0775118,107.018247 7.6726638,107.75646499999999 8.3251588,108.489946 9.0364078,109.21658699999999 9.8073118,109.933208 10.6377308,110.635212 11.525885800000001,111.31642 12.4717878,111.97416 13.4795108,112.6118 14.5551458,113.235 15.7048358,113.84684999999999 16.9345058,114.44834999999999 18.2506058,115.0407 19.6601158,115.62532999999999 21.172685799999996,116.20403999999999 22.8024658,116.77931 24.5673358,117.35507 26.489485799999997,117.93736999999999 28.5930158,118.5345 30.9035158,119.15875 33.4476258,119.82803999999999 36.251415800000004,120.5533 39.3370358,121.33564999999999 42.7134458,122.17130999999999 46.369235800000006,123.05023 50.275415800000005,123.95738 54.398825800000004,124.87653 58.725675800000005,125.79567 63.2811958,126.71387999999999 68.1074458,127.63812999999999 73.2447158,128.57565 78.72017579999999,129.53244 84.52581579999999,130.51089 90.5997458,131.50222 96.8563258,132.48846 103.2207258,133.45438000000001 109.6494658,134.39092 116.13446579999999,135.29611 122.67906579999999,136.17145 129.2850658,137.01844 135.9529658,137.83846 142.6812658,138.63277 149.4665658,139.40251 156.30316580000002,140.14875999999998 163.1829658,140.87234999999998 170.0971658,141.57310999999999 177.0379658,142.25071 183.99876580000003,142.90508 190.9746658,143.53638 197.9619658,144.14498 204.9588658,144.73144 211.96496580000002,145.29644 218.9808658,145.84061 226.0074658,146.36445 233.0450658,146.86847 240.0941658,147.35314 247.1545658,147.81893 254.2263658,148.26629 261.3090658,148.69566 268.4019658,149.10739 275.5043658,149.5018 282.6153658,149.87919 289.73346580000003,150.23986 296.85746580000006,150.58414 303.9856658,150.91233 311.1160658,151.22471 318.24696580000005,151.5212 325.3767658,151.80151 332.5045658,152.06536 339.6296658,152.31252 346.7519658,152.54278 353.8718658,152.75592 360.9901658,152.95177 368.1076658,153.13038 375.2254658,153.29187 382.3445658,153.43637 389.4655658,153.56399 396.5892658,153.67485 403.7161658,153.76904 410.8469658,153.84663999999998 417.9818658,153.90777 425.1205658,153.95253 432.2623658,153.98104 439.4059658,153.9934 446.5494658,153.98973999999998 453.6904658,153.97021999999998 460.8259658,153.93493 467.9534658,153.8836 475.0711658,153.81583999999998 482.1788658,153.73122 489.2774658,153.62935 496.3690658,153.50976 503.4570658,153.37198 510.54576579999997,153.21547999999999 517.6388658,153.03994 524.7364657999999,152.84514000000001 531.8350657999999,152.631 538.9277658,152.39758 546.0036657999999,152.14517999999998 553.0488657999999,151.87430999999998 560.0464658,151.5852 566.9816657999999,151.27513 573.8461658,150.94037 580.6384658,150.57723 587.3630658,150.18196 594.0293657999999,149.7506 600.6512658,149.27884 607.2468657999999,148.76206 613.8364657999999,148.19866 620.4379657999999,147.58959 627.0655658,146.9358 633.7295657999999,146.23834 640.4367658,145.49851999999998 647.1898658,144.7181 653.9870657999999,143.89945 660.8218658,143.04527 667.6868658,142.15758 674.5757657999999,141.23821999999998 681.4841657999999,140.28895 688.4090658,139.3114 695.3494658,138.30698 702.3064658,137.27686 709.2827658,136.22199 716.2822657999999,135.14356 723.3081658,134.04291 730.3630658,132.92153 737.4488657999999,131.78106 744.5667658,130.6233 751.7170658,129.45024 758.8990657999999,128.26398999999998 766.1107658,127.06625 773.3482657999999,125.85885999999999 780.6051658,124.64407 787.8732658,123.42452 795.1417658,122.20327999999999 802.3980657999999,120.98373 809.6280658,119.76984 816.8193657999999,118.56653 823.9644658,117.37816 831.0608658,116.20810999999999 838.1103658,115.05893999999999 845.1188658,113.93240999999999 852.0959657999999,112.82968 859.0543658,111.75108999999999 866.0054657999999,110.69547399999999 872.9541657999999,109.662179 879.8976658,108.651665 886.8260657999999,107.665365 893.7227657999999,106.705518 900.5651657999999,105.774957 907.3258658,104.877348 913.9760657999999,104.023378 920.4901657999999,103.227209 926.8471658,102.500407 933.0316658,101.8517073 939.0326657999999,101.28713309999999 944.8441658,100.81027259999999 950.4637657999999,100.4226431 955.8919658,100.12400699999999 961.1322657999999,99.910125 966.1895658,99.77313099999999 971.0706657999999,99.705483 975.7829657999999,99.70025899999999 980.3342658,99.751172 984.7327657999999,99.85255099999999 988.9862658,99.99930429999999 993.1027657999999,100.18687949999999 997.0897658,100.4112109 1000.9542657999999,100.66867339999999 1004.2113658,100.91622" stroke="black" stroke-width="2.0" /></svg>