<?xml version="1.0" encoding="utf-8" ?>
<svg baseProfile="full" height="98.31119000000001" version="1.1" width="1012.0177412" xmlns="http://www.w3.org/2000/svg" xmlns:ev="http://www.w3.org/2001/xml-events" xmlns:xlink="http://www.w3.org/1999/xlink"><defs /><polygon fill="none" points="1004.0177412,59.16134 1001.1019412,58.841423600000006 997.4430412,58.412821400000006 993.4148412000001,57.905904 988.9665412,57.303459000000004 984.0609412,56.597409 978.6863412,55.802729 972.8664412,54.95055 966.6720412,54.05999 960.2171412000001,53.145756000000006 953.6281412,52.222349 947.0059412,51.299432 940.4016412000001,50.379257 933.8242412000001,49.458264 927.2724412,48.53164 920.7433412,47.59438 914.2319412,46.641270000000006 907.7316412,45.66745 901.2350412000001,44.67137 894.7357412,43.65274 888.2289412,42.61144 881.7113412,41.54751 875.1808412,40.46222 868.6350412,39.36223 862.0704412,38.256060000000005 855.4833412,37.15226 848.8693412000001,36.05729 842.2262412000001,34.970169999999996 835.5533412000001,33.8885 828.8520412,32.81012 822.1257412,31.733320000000003 815.3823412,30.657540000000004 808.6358412000001,29.583190000000002 801.9060412,28.51159 795.2170412,27.44695 788.5908412000001,26.39924 782.0432412000001,25.378100000000003 775.5849412,24.391690000000004 769.2213412,23.446710000000003 762.9515412000001,22.54853 756.7647412000001,21.700730000000007 750.6414412,20.905520000000003 744.5540412,20.164340000000003 738.4679412000002,19.477179999999997 732.3482412000001,18.837490000000003 726.1672412,18.237610000000004 719.9054412,17.671130000000005 713.5522412,17.13248 707.1068412000001,16.617040000000003 700.5748412,16.12111 693.9663412000001,15.640950000000004 687.2958412,15.17266 680.5834412,14.712230000000005 673.8523412,14.257530000000003 667.1213412000001,13.810929999999999 660.3981412,13.374789999999997 653.6823412000001,12.950780000000002 646.9690412,12.540110000000006 640.2506412,12.142269999999996 633.5213412,11.75589 626.7775412,11.379599999999996 620.0202412000001,11.011900000000004 613.2577412,10.651620000000001 606.5017412000001,10.29963 599.7584412000001,9.95843 593.0257412,9.629770000000008 586.2936412,9.313850000000002 579.5458412,9.009980000000006 572.7720412000001,8.714680000000008 565.9876412000001,8.42447 559.2205412000001,8.141350000000003 552.4761412,7.869639999999997 545.7307412,7.61157 538.9594412,7.363240000000005 532.1709412,7.120020000000004 525.3962412,6.883170000000007 518.6459412,6.656950000000002 511.90244119999994,6.443930000000002 505.1409412,6.2417700000000025 498.3582412,6.046900000000001 491.5749412,5.857849999999999 484.8081412,5.677780000000006 478.05044119999997,5.5094899999999996 471.2840412,5.351750000000003 464.5018412,5.202210000000001 457.7097412,5.059370000000001 450.91994120000004,4.9234400000000065 444.14444119999996,4.795200000000001 437.38734120000004,4.676920000000003 430.6359412,4.571069999999999 423.86684119999995,4.477020000000003 417.0730412,4.390440000000005 410.27484119999997,4.3080500000000015 403.4979412,4.2324899999999985 396.74474119999996,4.168010000000002 389.99794119999996,4.116280000000003 383.2415412,4.075950000000006 376.4708412,4.045430000000003 369.6912412,4.0228600000000085 362.9174412,4.006999999999998 356.16204120000003,4.0 349.4223412,4.004989999999999 342.68404119999997,4.023010000000006 335.9373412,4.052550000000004 329.1830412,4.09234 322.4267412,4.141710000000003 315.6766412,4.200230000000005 308.9384412,4.269080000000002 302.2086412,4.350060000000006 295.4790412,4.443390000000001 288.7502412,4.547900000000006 282.0318412,4.663500000000006 275.3279412,4.792030000000004 268.6314412,4.93506 261.9355412,5.092090000000006 255.24304119999996,5.262270000000001 248.5608412,5.446150000000003 241.8919412,5.644990000000007 235.2338412,5.859839999999998 228.57994119999998,6.09158 221.92384119999997,6.339620000000004 215.2759412,6.601400000000005 208.6544412,6.878010000000003 202.0573412,7.1734500000000025 195.4674412,7.489520000000006 188.8858412,7.823860000000003 182.33514119999998,8.176180000000002 175.8173412,8.551920000000003 169.3083412,8.953270000000003 162.80324119999997,9.373910000000002 156.3336412,9.810189999999999 149.9492412,10.261450000000004 143.68874119999998,10.732440000000004 137.5310412,11.235230000000001 131.4403412,11.761980000000001 125.5169412,12.28087 119.82404120000001,12.831969999999998 114.3090412,13.396450000000002 109.0589412,13.972150000000006 104.0699412,14.56933 99.3371912,15.21405 94.6752012,15.944020000000009 89.9231412,16.78018 85.0778112,17.704890000000006 80.2319312,18.698819999999998 75.4107012,19.768230000000003 70.6234012,20.905930000000005 65.9233312,22.09422 61.360531200000004,23.323820000000005 56.9594212,24.587570000000007 52.7507412,25.872350000000004 48.762101200000004,27.170470000000005 44.9998712,28.476890000000004 41.4676812,29.775570000000005 38.1772512,31.055460000000004 35.1299112,32.31382000000001 32.314901199999994,33.54983 29.7151712,34.763540000000006 27.313101200000002,35.95174 25.095191200000002,37.10819 23.0498612,38.22721 21.165321199999998,39.30472 19.4299812,40.339600000000004 17.833581199999998,41.33426 16.3653812,42.29124 15.0143912,43.212950000000006 13.7698012,44.10175 12.622280199999999,44.96068 11.5658642,45.79538 10.5944972,46.61113 9.7018732,47.41225 8.8818992,48.202220000000004 8.1289122,48.98389 7.439360199999999,49.759703 6.8147172000000005,50.531998 6.2564432,51.302686 5.7651152,52.073264 5.3406752,52.844903 4.9822334,53.618033000000004 4.6859858,54.389854 4.4472874000000004,55.157496 4.2621421,55.919414 4.1273307,56.675031000000004 4.04046095,57.424483 4.0,58.168468000000004 4.00532355,58.9081601 4.05739305,59.6448552 4.1653592,60.375862000000005 4.3446325,61.094860000000004 4.6128571,61.793985 4.9800704,62.465739 5.4333092,63.106344 5.9629292,63.711812 6.5671362,64.277333 7.2445582,64.798238 7.9924272,65.27735200000001 8.8063062,65.721372 9.6835452,66.138218 10.6256322,66.53767300000001 11.6324852,66.932481 12.7047102,67.33139700000001 13.8492472,67.731581 15.076461199999999,68.129506 16.3975412,68.527411 17.8236812,68.930616 19.3665812,69.34355000000001 21.040771200000002,69.7673 22.8640712,70.20309 24.8587512,70.65244 27.0505012,71.11694 29.4678012,71.59870000000001 32.140241200000006,72.10069 35.0950212,72.62461 38.3584212,73.16651 41.9648112,73.72181 45.9567012,74.29279 50.350061200000006,74.88505 55.1116912,75.49845 60.2069312,76.1079 65.64007120000001,76.71023 71.35757120000001,77.31345 77.2867812,77.90506 83.4059312,78.48456 89.65674120000001,79.05265 95.9955412,79.60233 102.41102120000001,80.13425000000001 108.8704412,80.64606 115.37584120000001,81.13399000000001 121.94854120000001,81.60681 128.5573412,82.07052 135.16394119999998,82.51910000000001 141.7639412,82.94756000000001 148.3887412,83.35465 155.06034119999998,83.7497 161.7309412,84.13732 168.37514119999997,84.5059 175.04194119999997,84.85462 181.7456412,85.19334 188.4417412,85.52225 195.1188412,85.8339 201.81464119999998,86.12863 208.5417412,86.41384 215.2689412,86.69053 221.98424119999999,86.95385 228.70844119999998,87.20359 235.4482412,87.44338 242.18794119999998,87.6735 248.9227412,87.89169000000001 255.6631412,88.09797 262.41424119999994,88.29399000000001 269.17064120000003,88.48053 275.92794119999996,88.65719 282.6885412,88.82386 289.4549412,88.98118 296.22384120000004,89.12974 302.9895412,89.26919000000001 309.7489412,89.39887 316.5029412,89.51821000000001 323.2559412,89.6267 330.01494119999995,89.72448 336.7857412,89.81266 343.5712412,89.89234 350.3703412,89.96461000000001 357.1790412,90.03049 363.9910412,90.09017 370.80134119999997,90.14328 377.6071412,90.18944 384.4080412,90.22832 391.20564119999995,90.25965000000001 398.0023412,90.28347000000001 404.80024119999996,90.29991000000001 411.6003412,90.30911 418.4028412,90.31119000000001 425.2076412,90.30622 432.01354119999996,90.29417000000001 438.8193412,90.275 445.6232412,90.24868000000001 452.4232412,90.21519 459.2170412,90.17439 466.00314119999996,90.12586 472.78184120000003,90.06913 479.55474119999997,90.00369 486.3255412,89.92905 493.0986412,89.84488 499.8774412,89.75145 506.6618412,89.64916 513.4486412,89.53844000000001 520.2309412000001,89.41983 526.9999412,89.29321 533.7499412000001,89.15738 540.4817412000001,89.01098 547.2015412000001,88.85252 553.9212412,88.68037000000001 560.6568412000001,88.49462 567.4207412000001,88.29786 574.2191412,88.09303 581.0507412000001,87.88337 587.9069412,87.67238 594.7732412,87.46153000000001 601.6363412000001,87.24979 608.4867412000001,87.03593000000001 615.3189412,86.81861 622.1315412000001,86.59638000000001 628.9262412,86.36804000000001 635.7065412000001,86.13262 642.4768412,85.88915 649.2425412000001,85.6366 656.0100412,85.37396 662.7858412,85.10140000000001 669.5742412000001,84.82000000000001 676.3766412,84.53102 683.1914412,84.23581 690.0143412,83.9362 696.8389412,83.63484 703.6581412,83.33458 710.4636412,83.03828 717.2466412000001,82.74855000000001 723.9990412000001,82.46384 730.7188412,82.17899 737.4103412,81.88859000000001 744.0848412,81.58706000000001 750.7590412000001,81.26966 757.4499412,80.93871 764.1660412,80.59973000000001 770.9050412000001,80.25887 777.6540412,79.92247 784.3940412000001,79.59072 791.1129412,79.25882 797.8080412,78.92146 804.4863412,78.57297 811.1624412000001,78.21049000000001 817.8490412000001,77.83906 824.5490412,77.46548 831.2550412,77.09711 837.9515412,76.73663 844.6248412000001,76.37823 851.2685412000001,76.01507000000001 857.8841412,75.64007000000001 864.4787412000001,75.24768 871.0586412,74.83713 877.6229412,74.40882 884.1642412000001,73.96346 890.6687412,73.49908 897.1191412000001,73.01155 903.4955412,72.49741 909.7769412,71.95406 915.9422412000001,71.37985 921.9765412,70.77363 927.8857412000001,70.13291000000001 933.6964412,69.45295 939.4518412000001,68.726285 945.2114412000001,67.941734 951.0510412,67.086098 957.0233412,66.15632 963.1048412,65.16324800000001 969.1711412000001,64.136916 975.0162412000001,63.124480000000005 980.4372412,62.175196 985.3439412000001,61.341707 989.7825412000001,60.6541 993.8439412,60.1122481 997.6073412000001,59.693157400000004 1001.1284412000001,59.372791 1004.0177412,59.16134" stroke="black" stroke-width="2.0" /></svg>