<?xml version="1.0" encoding="utf-8" ?>
<svg baseProfile="full" height="162.09398" version="1.1" width="1012.003089863" xmlns="http://www.w3.org/2000/svg" xmlns:ev="http://www.w3.org/2001/xml-events" xmlns:xlink="http://www.w3.org/1999/xlink"><defs /><polygon fill="none" points="1004.003089863,96.74176 1000.667889863,96.2294025 996.611189863,95.504367 992.292889863,94.628481 987.680789863,93.605234 982.760189863,92.442622 977.534389863,91.145533 972.019289863,89.726844 966.242889863,88.207412 960.245189863,86.60867999999999 954.077289863,84.95644 947.793889863,83.28004 941.445489863,81.60561 935.071589863,79.95065 928.694789863,78.32727 922.318889863,76.74248 915.931189863,75.19702 909.5155898630001,73.6855 903.059189863,72.20281 896.553089863,70.74495 889.991989863,69.30888 883.374789863,67.89186 876.702289863,66.49092 869.9770898630001,65.10317 863.2033898630001,63.72587 856.387089863,62.356449999999995 849.535889863,60.9934 842.6569898629999,59.637100000000004 835.756889863,58.28794 828.840989863,56.94608 821.913589863,55.61143 814.977889863,54.28366 808.035989863,52.96274 801.089289863,51.648959999999995 794.138989863,50.34252 787.1858898629999,49.04358 780.2303898629999,47.75221 773.2723898630001,46.468399999999995 766.311889863,45.1921 759.348789863,43.923269999999995 752.3832898630001,42.66192 745.416289863,41.408139999999996 738.4484898630001,40.162060000000004 731.481289863,38.92385 724.516289863,37.69386 717.554689863,36.472809999999996 710.597889863,35.26141 703.646489863,34.06031 696.700989863,32.87011 689.7617898630001,31.691329999999994 682.8285898629999,30.52445999999999 675.901189863,29.36993000000001 668.979189863,28.228129999999993 662.062689863,27.099509999999995 655.151589863,25.98451 648.2460898630001,24.883619999999993 641.346589863,23.79732 634.453489863,22.726129999999998 627.567489863,21.670900000000003 620.689989863,20.632860000000008 613.822489863,19.613319999999987 606.967689863,18.613649999999993 600.128489863,17.63526999999999 593.308489863,16.679609999999997 586.511689863,15.748130000000003 579.742389863,14.842979999999997 573.003389863,13.966920000000002 566.295989863,13.12245 559.620189863,12.311800000000005 552.9741898630001,11.536929999999998 546.355189863,10.799639999999997 539.759189863,10.101579999999998 533.180989863,9.443700000000007 526.615789863,8.825720000000004 520.058789863,8.247289999999992 513.5054898630001,7.708209999999994 506.95158986300004,7.208389999999994 500.392889863,6.747869999999992 493.825189863,6.3267999999999915 487.244489863,5.945209999999989 480.64738986300006,5.602009999999993 474.03108986300003,5.29576999999999 467.393589863,5.025120000000001 460.733889863,4.7887699999999995 454.052089863,4.585419999999999 447.349089863,4.413809999999998 440.62688986300003,4.272680000000008 433.88798986300003,4.161230000000003 427.13498986300004,4.07898999999999 420.370089863,4.025439999999989 413.59538986300004,4.0 406.812589863,4.002070000000003 400.023089863,4.030999999999992 393.228289863,4.0861500000000035 386.428889863,4.167149999999992 379.625989863,4.273890000000009 372.820189863,4.406220000000005 366.012189863,4.564000000000007 359.20268986300005,4.747099999999989 352.39228986300003,4.955349999999996 345.581389863,5.188600000000008 338.770489863,5.446789999999993 331.95998986300003,5.72990999999999 325.15038986300004,6.037930000000003 318.342189863,6.370829999999998 311.535789863,6.728589999999997 304.73168986300004,7.111170000000001 297.930589863,7.518539999999987 291.132889863,7.950829999999996 284.339489863,8.408209999999997 277.55118986300005,8.890799999999999 270.769189863,9.398719999999997 263.994389863,9.93208 257.22838986299996,10.490920000000003 250.47248986300002,11.075479999999999 243.728189863,11.686279999999996 236.99728986300002,12.323819999999998 230.28128986300004,12.988590000000002 223.58168986300004,13.681020000000004 216.90038986300002,14.401539999999997 210.238889863,15.150660000000002 203.59948986300003,15.92935 196.98468986300003,16.738519999999994 190.39788986300002,17.57898 183.842689863,18.45134999999999 177.323089863,19.356089999999995 170.84388986300002,20.293890000000005 164.409689863,21.266260000000003 158.025289863,22.274720000000002 151.695189863,23.3206 145.42358986300002,24.40507000000001 139.214189863,25.5291 133.07168986300002,26.69420000000001 127.002689863,27.901970000000006 121.015489863,29.153189999999995 115.11968986299999,30.447779999999995 109.32578986300001,31.78479 103.645059863,33.16353 98.088919863,34.58476 92.667759863,36.0487 87.390189863,37.55474 82.263009863,39.10161 77.292029863,40.68784 72.486159863,42.31207 67.85695986299999,43.97063 63.416029863,45.65775 59.173109863,47.36627 55.135129862999996,49.08857999999999 51.306839863,50.81819 47.68859986299999,52.549389999999995 44.276569863,54.27717 41.063799863,55.99732 38.041299863,57.706469999999996 35.202179863,59.40185 32.545279863,61.078039999999994 30.070959863,62.727059999999994 27.777619862999998,64.34056000000001 25.660369863,65.91135 23.711049863,67.43421 21.920189862999997,68.90666 20.276289863000002,70.33019 18.765459863,71.7089 17.373809862999998,73.04787999999999 16.088639863,74.35235 14.898709862999999,75.62729 13.794370863000001,76.87732 12.767276863,78.10657 11.810482863,79.31774 10.919607863,80.51055 10.092051862999998,81.68246 9.325880863,82.82974 8.619134863,83.94835 7.969442862999999,85.0346 7.373905863,86.08557 6.829147863,87.099343 6.332065863,88.07496 5.883733863,89.01267 5.4853488630000005,89.914883 5.136454863,90.785353 4.835908263,91.628309 4.582452663,92.448022 4.375028663,93.248628 4.212954863,94.034092 4.096043033,94.80824199999999 4.024693143,95.574842 4.0,96.337708 4.023717423,97.100683 4.096190333,97.865666 4.217068263,98.632772 4.386883063,99.401636 4.607004363,100.171388 4.8796056629999995,100.940534 5.207655863,101.70679 5.594922863,102.466835 6.045952863,103.215968 6.565992863,103.947661 7.160224863,104.655418 7.832275863,105.338792 8.585562863,105.99899500000001 9.423556863,106.63772 10.349615863,107.25733 11.366699863,107.86114 12.476881863000001,108.45373000000001 13.680559863000001,109.04156 14.975169863,109.63356999999999 16.354969863,110.24085 17.822799863,110.8677 19.387219863,111.51414 21.057229863,112.17972 22.842249863,112.86352 24.752189862999998,113.56412 26.798289863,114.27994 28.995179863,115.00984 31.363739863,115.75392 33.929749863,116.51398 36.720819863,117.29272 39.768419863,118.09362 43.107659862999995,118.92129 46.773679863,119.78145 50.794109863,120.68084 55.179249862999995,121.62352 59.919949863,122.6022 64.98175986300001,123.60383 70.311239863,124.61368999999999 75.85633986299999,125.61991 81.590469863,126.6172 87.505319863,127.60396 93.590149863,128.57875 99.829449863,129.54019 106.202689863,130.48711 112.68528986300001,131.41813 119.25208986300001,132.33053999999998 125.881289863,133.22204 132.554989863,134.09138000000002 139.261089863,134.93835 145.99368986300001,135.76366 152.75088986300003,136.56805 159.53148986300002,137.35202 166.33348986300004,138.11605 173.154889863,138.86063000000001 179.99328986300003,139.58624 186.84558986300001,140.29325 193.709289863,140.98173 200.58218986300002,141.65173 207.462689863,142.30339 214.349689863,142.93692 221.242389863,143.55258 228.140789863,144.15066 235.044989863,144.7314 241.95468986300003,145.29498 248.869589863,145.84158 255.788989863,146.37138 262.712089863,146.88452 269.637789863,147.38115 276.56498986300005,147.86121 283.49258986300003,148.32452999999998 290.419989863,148.77095 297.346889863,149.20033999999998 304.27318986299997,149.6126 311.19908986300004,150.00762 318.124989863,150.38533999999999 325.05168986300004,150.74576000000002 331.979289863,151.0889 338.907789863,151.41473 345.836689863,151.72325 352.76538986300005,152.01442 359.69278986300003,152.28821 366.617389863,152.54451 373.537789863,152.78291 380.452889863,153.00290999999999 387.361789863,153.20400999999998 394.26398986300006,153.38574 401.15898986300004,153.54764 408.04708986300005,153.68929 414.928589863,153.81025 421.80368986300005,153.91019 428.672889863,153.98882 435.536189863,154.04586 442.39338986300004,154.08101 449.24438986300004,154.09398 456.08848986300006,154.08447999999999 462.925189863,154.05222 469.753489863,153.99646 476.571489863,153.91604999999998 483.376289863,153.80988 490.164089863,153.6769 496.930189863,153.51619 503.669089863,153.32694 510.37448986300006,153.10847 517.039889863,152.85958 523.660089863,152.57772 530.233089863,152.26028 536.759589863,151.90462 543.242689863,151.50807 549.687789863,151.06783 556.102289863,150.58083 562.4957898629999,150.0441 568.878789863,149.45735 575.2614898630001,148.82138 581.653289863,148.13678 588.063389863,147.40393 594.500289863,146.62301 600.972489863,145.79405 607.487989863,144.91693 614.054989863,143.99246 620.680589863,143.02334000000002 627.3695898630001,142.0129 634.124189863,140.96513 640.943489863,139.88482 647.823089863,138.77766 654.7542898629999,137.65039000000002 661.724589863,136.50986 668.720089863,135.36072000000001 675.728489863,134.20691 682.740189863,133.05202 689.747989863,131.8992 696.747489863,130.75118 703.7366898629999,129.61022 710.716389863,128.47791999999998 717.6876898630001,127.3549 724.651689863,126.2417 731.608989863,125.13889 738.560189863,124.04711 745.5049898630001,122.96703 752.443289863,121.89938 759.374489863,120.84494 766.297789863,119.80452 773.2128898630001,118.7789 780.119389863,117.76883 787.0173898630001,116.77502 793.906789863,115.79814999999999 800.7877898630001,114.83886 807.660989863,113.89776 814.526489863,112.97540000000001 821.384789863,112.07234 828.236189863,111.18912 835.081089863,110.32631 841.919789863,109.48444 848.752589863,108.66405 855.579589863,107.86553 862.401089863,107.08926 869.216789863,106.335637 876.026689863,105.605069 882.8303898629999,104.89796799999999 889.6274898629999,104.214866 896.416489863,103.556617 903.1947898630001,102.924201 909.958489863,102.318664 916.702189863,101.741082 923.4198898630001,101.19251799999999 930.1056898630001,100.673901 936.755789863,100.185904 943.368389863,99.728981 949.9434898630001,99.303322 956.475989863,98.90626 962.9340898629999,98.532938 969.2564898630001,98.179956 975.3659898630001,97.845962 981.183189863,97.5390694 986.638989863,97.2698487 991.691489863,97.0444246 996.334089863,96.8750843 1000.591389863,96.7739966 1004.003089863,96.74176" stroke="black" stroke-width="2.0" /></svg>