<?xml version="1.0" encoding="utf-8" ?>
<svg baseProfile="full" height="162.06328000000002" version="1.1" width="1012.002178625" xmlns="http://www.w3.org/2000/svg" xmlns:ev="http://www.w3.org/2001/xml-events" xmlns:xlink="http://www.w3.org/1999/xlink"><defs /><polygon fill="none" points="1004.002178625,118.52180000000001 1000.841078625,117.359941 996.956478625,115.84478900000002 992.762778625,114.13726300000002 988.258978625,112.27789700000001 983.5382786250001,110.34622800000001 978.699978625,108.41773 973.772578625,106.53914000000002 968.722478625,104.71187000000002 963.5125786250001,102.92172000000001 958.1142786250001,101.15884000000001 952.513078625,99.41759000000002 946.7056786250001,97.69176000000002 940.6967786250001,95.97425000000001 934.500578625,94.25777000000002 928.1428786250001,92.53740000000002 921.6533786250001,90.81704000000002 915.059878625,89.10148000000001 908.3856786250001,87.39341000000002 901.6465786250001,85.69322000000001 894.852078625,84.00094000000001 888.009678625,82.31712000000002 881.126478625,80.64213000000001 874.2090786250001,78.97605000000001 867.2632786250001,77.31882000000002 860.2942786250001,75.67079000000001 853.306078625,74.03235000000001 846.3022786250001,72.40366 839.2851786250001,70.78467 832.256478625,69.17510000000001 825.2172786250001,67.5747 818.1683786250001,65.98337000000001 811.1110786250001,64.40105000000001 804.0466786250001,62.82773000000002 796.9767786250001,61.26345000000001 789.9033786250001,59.70831000000001 782.828078625,58.16278000000001 775.752178625,56.62734000000002 768.6764786250001,55.10235000000001 761.601378625,53.58809000000001 754.526678625,52.08473000000001 747.452078625,50.59236000000001 740.3766786250001,49.11093000000001 733.300378625,47.640450000000016 726.222978625,46.18098000000002 719.144878625,44.73267000000001 712.0668786250001,43.295730000000006 704.9899786250002,41.870440000000016 697.915378625,40.45732000000001 690.844278625,39.05708000000001 683.777678625,37.67042000000001 676.7163786250001,36.297950000000014 669.660778625,34.94027000000001 662.611478625,33.59794000000001 655.5686786250001,32.27146000000002 648.5323786250001,30.96143000000002 641.5028786250001,29.668500000000023 634.480478625,28.393310000000014 627.4654786250001,27.13652000000002 620.458478625,25.898800000000023 613.4598786250001,24.680790000000016 606.4703786250001,23.483300000000014 599.490878625,22.307510000000022 592.5228786250001,21.154770000000013 585.5681786250001,20.026440000000008 578.629278625,18.923940000000016 571.709178625,17.848700000000008 564.8109786250001,16.80210000000001 557.938378625,15.786100000000019 551.094178625,14.803200000000018 544.279878625,13.855700000000013 537.4962786250001,12.945900000000009 530.742778625,12.075600000000009 524.0181786250001,11.246500000000012 517.3200786250001,10.460400000000007 510.645678625,9.71820000000001 503.99187862499997,9.02040000000001 497.355278625,8.367400000000018 490.732178625,7.759700000000009 484.118878625,7.197600000000008 477.511178625,6.681900000000013 470.904378625,6.213100000000011 464.29397862499997,5.791400000000024 457.676078625,5.416000000000011 451.047778625,5.086000000000013 444.407578625,4.800700000000006 437.754878625,4.559600000000017 431.090478625,4.362000000000009 424.416278625,4.207400000000021 417.734978625,4.095600000000005 411.049478625,4.026500000000013 404.361578625,4.0 397.672678625,4.016300000000015 390.983078625,4.075200000000024 384.292578625,4.176700000000011 377.600178625,4.32080000000002 370.904378625,4.507200000000026 364.203978625,4.735600000000005 357.498178625,5.005600000000015 350.786778625,5.316900000000018 344.070178625,5.669000000000011 337.349278625,6.061400000000006 330.625378625,6.493800000000007 323.900478625,6.966000000000022 317.17617862500003,7.477700000000013 310.454178625,8.02900000000001 303.736378625,8.619600000000005 297.024278625,9.249400000000009 290.319478625,9.91810000000001 283.623578625,10.62560000000002 276.938078625,11.372300000000024 270.263978625,12.158300000000011 263.602178625,12.983900000000006 256.953078625,13.849400000000017 250.316978625,14.755100000000013 243.693978625,15.701300000000018 237.084578625,16.688500000000005 230.489778625,17.71690000000001 223.911478625,18.786540000000002 217.35217862500002,19.897430000000014 210.81507862499998,21.04931000000002 204.303978625,22.242010000000008 197.822578625,23.47603000000001 191.373678625,24.752040000000022 184.959278625,26.070820000000012 178.58047862499998,27.433220000000006 172.237678625,28.840240000000023 165.930678625,30.29288000000001 159.660578625,31.791880000000006 153.42967862499998,33.33752000000001 147.241878625,34.929670000000016 141.102078625,36.56768000000001 135.01627862499998,38.250630000000015 128.991878625,39.97836000000001 123.036478625,41.75072 117.15727862499999,43.567160000000015 111.361778625,45.42672 105.656678625,47.328140000000005 100.049768625,49.27035000000001 94.549898625,51.25182000000002 89.16658862499999,53.27000000000001 83.909328625,55.321460000000016 78.787258625,57.402180000000016 73.811858625,59.507990000000014 68.999378625,61.632370000000016 64.367888625,63.76600000000001 59.934268624999994,65.89785 55.711948625,68.01668000000001 51.711228625000004,70.11362000000001 47.937238625,72.18182000000002 44.389078625,74.21568000000002 41.060998624999996,76.21105000000001 37.943768625,78.16520000000001 35.028938624999995,80.07657000000002 32.313438625,81.94139000000001 29.795228625,83.75344000000001 27.469978625,85.50660000000002 25.329888625,87.19632000000001 23.364128625,88.82018000000001 21.561108625,90.37864000000002 19.908358624999998,91.87582000000002 18.391618625,93.31765000000001 16.996828625,94.71048000000002 15.711128625,96.06040000000002 14.523158625,97.37296 13.423077625000001,98.65311000000001 12.402445625,99.90519000000002 11.454786625,101.13232000000002 10.575945625,102.33524000000001 9.763047625,103.51294000000001 9.013663625,104.66348 8.325317625,105.78465000000001 7.695243625,106.87440000000001 7.1203196250000005,107.93112 6.597115625,108.953781 6.122260625,109.94192400000001 5.695687625,110.89577100000001 5.318435625,111.81717800000001 4.9901843249999995,112.70930000000001 4.710001225,113.57583500000001 4.476838225,114.42062600000001 4.289819025,115.24748100000001 4.148411525,116.06011700000002 4.052541705,116.86217100000002 4.0026907604,117.65726420000001 4.0,118.44908979000002 4.045975265,119.24089570000001 4.140776325,120.03264000000001 4.284744125,120.82284600000001 4.479066725,121.60957100000002 4.725740325,122.39029300000001 5.027570625,123.16176400000002 5.3882066250000005,123.91981700000001 5.812187625,124.65909700000002 6.305002625,125.37273100000002 6.872794625,126.05272400000001 7.519407625,126.69700300000001 8.247380625,127.30747200000002 9.059485625,127.88638700000001 9.958607624999999,128.43649600000003 10.947486625,128.96129000000002 12.028256625000001,129.46535 13.201619625,129.9549 14.465438625,130.43849 15.813218625000001,130.9274 17.244758625000003,131.42744000000002 18.767918625,131.93836000000002 20.391148625,132.45948 22.123118624999996,132.98977000000002 23.972728625,133.52799000000002 25.949498624999997,134.07287000000002 28.064788625000002,134.62359 30.334828624999997,135.18060000000003 32.783588625,135.74596000000003 35.438358625,136.32138 38.329608625,136.90852 41.490308625,137.50904000000003 44.954568625,138.12480000000002 48.756098625,138.75831000000002 52.919378625,139.41226 57.453298624999995,140.08446 62.346398625,140.7666 67.562088625,141.44832000000002 73.049018625,142.11988000000002 78.764288625,142.77534000000003 84.690718625,143.41278 90.817038625,144.03057 97.127068625,144.62746 103.599708625,145.20276 110.209678625,145.75644000000003 116.92997862499999,146.288 123.735478625,146.79629 130.604478625,147.28091 137.520178625,147.74223 144.472078625,148.18136 151.45557862500002,148.59957000000003 158.46827862499998,148.99761 165.50767862499998,149.37618 172.57097862499998,149.73606 179.655278625,150.07804000000002 186.757578625,150.40294 193.874878625,150.71127 201.004578625,151.00337000000002 208.14497862500002,151.27966 215.29447862499998,151.54056000000003 222.45227862500002,151.78655 229.617978625,152.01813 236.791778625,152.23573000000002 243.973578625,152.43976 251.16287862500002,152.63061000000002 258.359178625,152.80868 265.561578625,152.97434 272.768978625,153.12801000000002 279.980178625,153.26993000000002 287.19387862499997,153.40012000000002 294.409078625,153.51858000000001 301.62517862500005,153.62534000000002 308.841678625,153.72042000000002 316.058378625,153.80384 323.27517862499997,153.87565 330.492278625,153.93585000000002 337.709678625,153.98447000000002 344.927478625,154.02152 352.145378625,154.04699 359.363178625,154.06091 366.580478625,154.06328000000002 373.796678625,154.05411 381.01117862499996,154.03325 388.223278625,154.00050000000002 395.432478625,153.95565000000002 402.637878625,153.89848 409.838978625,153.8288 417.034878625,153.74641000000003 424.22507862500004,153.65111000000002 431.408778625,153.54253 438.585278625,153.42020000000002 445.75397862499995,153.28363000000002 452.91447862499996,153.13235 460.06637862499997,152.96588000000003 467.209178625,152.78378 474.342678625,152.58557000000002 481.466578625,152.3708 488.580678625,152.13903000000002 495.684478625,151.88981 502.77767862499996,151.62272000000002 509.859778625,151.33733 516.9300786250001,151.03323 523.988278625,150.71002000000001 531.033278625,150.36690000000002 538.062978625,150.00218 545.073178625,149.61417 552.057578625,149.20142 559.008178625,148.76272 565.915478625,148.29715000000002 572.7682786250001,147.80411 579.5548786250001,147.28291000000002 586.265978625,146.73081000000002 592.8983786250001,146.14432000000002 599.4546786250002,145.51973 605.9427786250001,144.85303000000002 612.374478625,144.1397 618.765778625,143.37453000000002 625.136278625,142.55148000000003 631.508678625,141.66733000000002 637.903778625,140.72279 644.3381786250001,139.71883000000003 650.8247786250001,138.65675000000002 657.3716786250001,137.53844 663.982478625,136.36674000000002 670.6545786250001,135.14579 677.379578625,133.88170000000002 684.146278625,132.58349 690.943778625,131.26106000000001 697.761778625,129.9246 704.590978625,128.58439 711.422978625,127.250549 718.2505786250001,125.93298100000001 725.0677786250001,124.64082400000001 731.869278625,123.37927200000001 738.6506786250001,122.15113500000001 745.4092786250001,120.95880200000002 752.143778625,119.80430100000001 758.8542786250001,118.68934240000002 765.5422786250001,117.61537140000002 772.210678625,116.58361800000002 778.862878625,115.59490800000002 785.5018786250001,114.649662 792.1291786250001,113.74846800000002 798.7450786250001,112.89210200000001 805.348678625,112.08148100000001 811.937878625,111.31761600000002 818.5094786250002,110.60156500000001 825.059278625,109.93452900000001 831.5826786250001,109.31859500000002 838.076178625,108.75599900000002 844.5371786250001,108.24872000000002 850.964178625,107.79852000000001 857.3567786250001,107.40698000000002 863.715178625,107.07553000000001 870.0404786250001,106.80554000000001 876.3339786250001,106.59812000000001 882.5964786250001,106.45431000000002 888.8286786250001,106.37512000000001 895.030978625,106.36159 901.203478625,106.41473000000002 907.3458786250001,106.53552000000002 913.457878625,106.72481000000002 919.5383786250001,106.98298000000001 925.5851786250001,107.31014000000002 931.595678625,107.70631000000002 937.566078625,108.17129000000001 943.4923786250001,108.70465800000001 949.3692786250001,109.30545000000001 955.1865786250002,109.97122200000001 960.927078625,110.69805200000002 966.5681786250001,111.480444 972.084278625,112.31139000000002 977.446578625,113.18282700000002 982.618178625,114.08466000000001 987.559478625,115.00447000000001 992.237378625,115.92941400000001 996.6266786250001,116.84916100000001 1000.710278625,117.75455400000001 1004.002178625,118.52180000000001" stroke="black" stroke-width="2.0" /></svg>