<?xml version="1.0" encoding="utf-8" ?>
<svg baseProfile="full" height="125.4374" version="1.1" width="1011.9974201949999" xmlns="http://www.w3.org/2000/svg" xmlns:ev="http://www.w3.org/2001/xml-events" xmlns:xlink="http://www.w3.org/1999/xlink"><defs /><polygon fill="none" points="1003.9974201949999,69.58815000000001 1000.059420195,68.686496 995.3222201950001,67.66302300000001 990.3554201950001,66.66119700000002 985.135620195,65.68639300000001 979.636520195,64.74524600000001 973.830020195,63.83904000000001 967.693920195,62.95057700000001 961.220020195,62.05411600000001 954.425820195,61.11734800000001 947.361420195,60.12365700000001 940.093220195,59.08643000000001 932.6920201949999,58.02364000000001 925.221520195,56.95349000000001 917.7290201950001,55.89233000000001 910.2406201950001,54.85341000000001 902.7608201950001,53.84329000000001 895.2870201950001,52.85265000000001 887.820620195,51.86889000000001 880.3676201950001,50.880120000000005 872.938620195,49.875240000000005 865.5484201950001,48.84403000000001 858.215220195,47.77913000000001 850.9533201950001,46.69371000000001 843.765920195,45.611900000000006 836.646320195,44.555250000000015 829.579220195,43.54281000000001 822.5416201950001,42.59188 815.5039201950001,41.71403000000001 808.438220195,40.89763000000001 801.321820195,40.125000000000014 794.137420195,39.37908000000001 786.8730201950001,38.64282000000001 779.5225201950001,37.89890000000001 772.0873201950001,37.12949000000001 764.5768201950001,36.31749000000001 757.004920195,35.46181000000001 749.3825201950001,34.57419000000001 741.716320195,33.666850000000004 734.008220195,32.75197000000001 726.255120195,31.84150000000001 718.4481201950001,30.946900000000007 710.575620195,30.071630000000013 702.630020195,29.210870000000007 694.610520195,28.35990000000001 686.523620195,27.514480000000013 678.384520195,26.670950000000005 670.2168201950001,25.82663000000001 662.048620195,24.98409000000001 653.9010201950001,24.149090000000008 645.785620195,23.32646000000001 637.704720195,22.519960000000005 629.651720195,21.73237000000001 621.6120201950001,20.96522000000001 613.5683201950001,20.21639000000001 605.5080201950001,19.482760000000013 597.423920195,18.76178000000001 589.3146201950001,18.051420000000007 581.184520195,17.350120000000004 573.0437201950001,16.657260000000008 564.904020195,15.97451000000001 556.773820195,15.30378000000001 548.658620195,14.64668000000001 540.5600201950001,14.004490000000011 532.476820195,13.378240000000005 524.405020195,12.768470000000008 516.340120195,12.17515000000001 508.279520195,11.598310000000012 500.22182019499996,11.038090000000011 492.167220195,10.494760000000007 484.117420195,9.968660000000007 476.075220195,9.460350000000005 468.042520195,8.970540000000007 460.020020195,8.499870000000008 452.00682019499993,8.048850000000009 444.000620195,7.6179500000000075 435.997520195,7.207560000000001 427.994420195,6.817470000000007 419.99452019499995,6.447160000000011 412.009220195,6.096510000000016 404.054020195,5.767410000000005 396.13852019499996,5.463060000000013 388.263320195,5.186230000000009 380.420720195,4.939320000000009 372.595320195,4.724590000000006 364.764220195,4.544050000000013 356.90572019499996,4.3944000000000045 349.02372019499995,4.268020000000007 341.155820195,4.158090000000001 333.351220195,4.068930000000009 325.62152019499996,4.0126300000000015 317.932920195,4.0 310.22932019499996,4.031240000000011 302.48312019499997,4.098250000000007 294.709920195,4.192280000000011 286.970920195,4.303560000000019 279.355420195,4.433230000000009 271.89482019499997,4.6105500000000035 264.525320195,4.865040000000008 257.157720195,5.188700000000011 249.795320195,5.544450000000012 242.49742019500002,5.884470000000007 235.287320195,6.179210000000005 228.138020195,6.493280000000006 220.970720195,6.8953400000000045 213.733920195,7.362810000000003 206.47882019500003,7.859990000000003 199.27332019500003,8.386240000000008 192.14162019500003,8.944190000000006 185.11462019500001,9.529420000000009 178.23372019500002,10.13954000000001 171.527620195,10.771920000000009 165.03892019500003,11.416560000000011 158.81532019500003,12.077500000000008 152.858220195,12.763180000000006 147.18062019500002,13.441700000000012 141.830520195,14.098700000000008 136.82192019500002,14.744180000000014 132.145720195,15.376550000000009 127.791620195,15.988820000000011 123.75062019500001,16.57505000000001 120.00702019500001,17.14578000000001 116.534120195,17.707490000000007 113.305320195,18.25281000000001 110.299220195,18.770370000000014 107.49972019500001,19.255350000000007 104.89082019499999,19.72270000000001 102.451640195,20.17524000000001 100.16320019499999,20.59848000000001 98.015980195,21.01176000000001 96.00194019499999,21.45318000000001 94.090840195,21.855570000000007 92.241320195,22.104050000000008 90.454410195,22.302260000000004 88.755870195,22.692380000000007 87.111390195,23.242880000000007 85.437910195,23.679640000000013 83.704560195,23.945390000000003 81.946720195,24.26396000000001 80.172690195,24.72903000000001 78.358220195,25.283660000000012 76.47736019499999,25.852340000000012 74.513150195,26.381400000000006 72.469700195,26.89925000000001 70.355440195,27.453530000000008 68.173200195,28.06645000000001 65.921450195,28.724190000000007 63.605480195,29.41398000000001 61.237210194999996,30.13864000000001 58.827730195,30.901390000000006 56.388480195,31.698950000000004 53.934700195,32.52939000000001 51.482160195,33.39381000000001 49.044200195,34.288450000000005 46.633840195,35.206770000000006 44.264170195,36.14228000000001 41.947740194999994,37.09116000000001 39.694500194999996,38.05058000000001 37.511270194999994,39.01684000000001 35.402520194999994,39.98471000000001 33.371520195,40.94943000000001 31.420540194999997,41.90782000000001 29.550470194999995,42.85768000000001 27.761310195,43.79825000000001 26.052560194999998,44.73019000000001 24.422720195,45.65384000000001 22.869310194999997,46.56848000000001 21.389030194999997,47.473510000000005 19.977210195000005,48.36764000000001 18.627360195,49.24674000000001 17.334670195,50.10645000000001 16.101130195,50.94940000000001 14.933580195000001,51.78603000000001 13.835818195,52.62612000000001 12.809376195,53.478260000000006 11.851648195,54.346520000000005 10.948883195,55.21967000000001 10.087466195000001,56.08363000000001 9.261881195,56.93189000000001 8.491310195,57.78623000000001 7.792585195,58.66452000000001 7.164971195,59.56161000000001 6.604629194999999,60.47057200000001 6.1076301950000005,61.38613500000001 5.670224195,62.30441100000001 5.288993195,63.22257900000001 4.960937395,64.13865900000002 4.683506895,65.05132400000001 4.454624595,65.959755 4.272690795,66.863539 4.136592695,67.76259300000001 4.045720535,68.65711700000001 4.0,69.5475598 4.001068707,70.43445140000001 4.059359145,71.31716800000001 4.189820195,72.19408700000001 4.397609095,73.06508400000001 4.659707095,73.934561 4.949745695,74.80558900000001 5.267554195,75.67271900000001 5.628472195,76.52677200000001 6.048318195,77.35967500000001 6.530644195,78.17041200000001 7.067736195,78.96290900000001 7.652232195,79.73809000000001 8.288722194999998,80.47991 8.988130195,81.16528000000001 9.762818195,81.77141 10.610305194999999,82.30243000000002 11.505944195,82.7988 12.420396195,83.30690000000001 13.322684195,83.87382000000001 14.210650195,84.50334000000001 15.103620195,85.16844 16.024640195,85.83801000000001 17.001130195000002,86.47644000000001 18.054840195,87.05942 19.187020195000002,87.59518 20.394460194999997,88.09803000000001 21.670670195,88.58528000000001 23.004900195,89.07664000000001 24.394200195,89.57505 25.845110195,90.06908000000001 27.368050195,90.54501 28.976900195,90.99112000000001 30.681710195,91.41010000000001 32.490860194999996,91.80956 34.411730195000004,92.19896000000001 36.453810195,92.58732 38.627440195,92.98590000000002 40.942060195,93.40788 43.409310194999996,93.85195000000002 46.046150195,94.30705 48.878020195,94.75947000000001 51.937400195,95.21281 55.253470195,95.68775000000001 58.847080195000004,96.19637 62.738340195,96.73672 66.95237019499999,97.30622000000001 71.516370195,97.90655000000001 76.449860195,98.54031 81.758390195,99.20869 87.43135019500001,99.90912 93.445610195,100.63744000000001 99.77631019500001,101.38824000000001 106.404020195,102.14852000000002 113.30992019499999,102.90992000000001 120.460520195,103.67599000000001 127.806020195,104.44467 135.293320195,105.21155000000002 142.874020195,105.97188 150.513520195,106.71655000000001 158.197820195,107.43692000000001 165.93182019500003,108.12989000000002 173.71832019500002,108.79943 181.54632019500002,109.44906 189.395920195,110.07807000000001 197.253920195,110.68339 205.118120195,111.26311000000001 212.990620195,111.81727000000001 220.871120195,112.34622 228.75592019500002,112.84971000000002 236.641920195,113.32684 244.528420195,113.77681000000001 252.417120195,114.19963000000001 260.311320195,114.59579000000002 268.21592019499997,114.96613 276.131120195,115.31257000000001 284.046320195,115.63688 291.944020195,115.93742 299.820220195,116.20811 307.69282019499997,116.44395 315.588120195,116.6483 323.51352019499996,116.82909000000001 331.45252019500003,116.99180000000001 339.382620195,117.13426000000001 347.291420195,117.25294000000001 355.177420195,117.34481000000001 363.046020195,117.40717000000001 370.907420195,117.4374 378.77552019499996,117.43504000000001 386.662120195,117.40229000000001 394.574820195,117.34138000000002 402.516720195,117.25455000000001 410.486420195,117.14414000000001 418.47752019499995,117.01258000000001 426.48072019499995,116.86114 434.489120195,116.68962000000002 442.501120195,116.49772000000002 450.51892019499996,116.28549000000001 458.544720195,116.05342000000002 466.57992019499994,115.80202 474.624820195,115.53185 482.678620195,115.24349000000001 490.739420195,114.93757000000002 498.80492019499997,114.61454 506.873920195,114.27470000000001 514.946420195,113.91831000000002 523.024020195,113.54554000000002 531.109320195,113.15650000000001 539.2067201950001,112.75130000000001 547.3200201950001,112.33058 555.450520195,111.89542 563.596220195,111.44705 571.7516201950001,110.98691000000001 579.908220195,110.51671 588.0543201950001,110.03777000000001 596.1800201950001,109.54920000000001 604.2807201950001,109.04933000000001 612.358020195,108.53616000000001 620.419120195,108.00734 628.4768201950001,107.46010000000001 636.5484201950001,106.89279000000002 644.6484201950001,106.30735000000001 652.7834201950001,105.70674000000001 660.9508201950001,105.09464 669.139120195,104.47556 677.326820195,103.85469 685.486020195,103.23383000000001 693.593020195,102.60965000000002 701.632720195,101.97807 709.598820195,101.33470000000001 717.492320195,100.67482000000001 725.320720195,99.99383 733.095820195,99.29548000000001 740.8259201950001,98.59149000000001 748.5139201950001,97.8939 756.157720195,97.21481 763.750120195,96.56626000000001 771.279920195,95.95971 778.733320195,95.39368 786.1014201950001,94.85082000000001 793.3832201950001,94.31330000000001 800.5853201950001,93.76394 807.720120195,93.18603000000002 814.805520195,92.56299000000001 821.864620195,91.87777000000001 828.925520195,91.11950000000002 836.017720195,90.30053000000001 843.163520195,89.43878000000001 850.377820195,88.55372000000001 857.6668201950001,87.66707000000001 865.026420195,86.80285 872.4422201950001,85.97386 879.896120195,85.17225 887.3735201950001,84.38741 894.864220195,83.60795000000002 902.362520195,82.82181000000001 909.867320195,82.01638000000001 917.381720195,81.18241 924.900620195,80.32632000000001 932.3980201950001,79.46063600000001 939.8258201950001,78.600401 947.1200201949999,77.76206300000001 954.209420195,76.961661 961.0271201950001,76.210756 967.5235201950001,75.491386 973.6820201950001,74.77079200000001 979.511520195,74.02348300000001 985.034520195,73.23288600000001 990.2792201950001,72.40105600000001 995.2717201950001,71.53534900000001 1000.0352201950001,70.64177000000001 1003.996420195,69.84815" stroke="black" stroke-width="2.0" /></svg>