<?xml version="1.0" encoding="utf-8" ?>
<svg baseProfile="full" height="126.23370000000001" version="1.1" width="1011.998540096" xmlns="http://www.w3.org/2000/svg" xmlns:ev="http://www.w3.org/2001/xml-events" xmlns:xlink="http://www.w3.org/1999/xlink"><defs /><polygon fill="none" points="1003.998540096,50.665620000000004 1000.698340096,49.995285 996.6177400960001,49.169189 992.209540096,48.280217 987.4454400960001,47.3235 982.312040096,46.297261 976.8221400960001,45.205437 971.014440096,44.057647 964.941540096,42.86649 958.654340096,41.644510000000004 952.194040096,40.40449 945.597140096,39.159310000000005 938.891240096,37.92 932.0953400960001,36.693200000000004 925.225940096,35.48344 918.296940096,34.29451 911.316540096,33.12853 904.282540096,31.985590000000002 897.1822400960001,30.8631 890.008540096,29.75448 882.7795400960001,28.655350000000002 875.5371400960001,27.56829 868.3117400960001,26.50325 861.100240096,25.46619 853.876840096,24.455140000000004 846.633140096,23.464800000000004 839.392740096,22.494460000000004 832.189740096,21.552200000000003 825.0226400960001,20.646300000000004 817.8498400960001,19.77791 810.625940096,18.935320000000004 803.3501400960001,18.107279999999996 796.0686400960001,17.292180000000002 788.8258400960001,16.50181 781.625840096,15.745519999999999 774.440140096,15.024549999999998 767.2406400960001,14.333739999999999 760.0125400960001,13.669010000000007 752.7552400960001,13.027450000000002 745.483240096,12.407179999999997 738.225340096,11.808270000000007 731.0041400960001,11.237169999999999 723.806540096,10.700389999999999 716.5862400960001,10.198710000000005 709.3087400960001,9.72177 701.9944400960001,9.259970000000003 694.708840096,8.815060000000003 687.482240096,8.40175 680.2727400960001,8.030879999999996 672.998640096,7.695790000000002 665.623240096,7.377339999999997 658.1866400960001,7.060830000000003 650.7614400960001,6.75253 643.368740096,6.46557 635.972440096,6.206240000000001 628.5311400960001,5.967770000000002 621.037640096,5.7423200000000065 613.5173400960001,5.526780000000002 605.9993400960001,5.323090000000008 598.5039400960001,5.13344 591.036740096,4.962220000000002 583.5807400960001,4.814640000000004 576.0981400960001,4.6921800000000005 568.560640096,4.58511 560.975940096,4.481819999999999 553.382240096,4.379179999999998 545.8057400960001,4.284440000000004 538.2443400960001,4.2043099999999995 530.6804400960001,4.139870000000002 523.1021400960001,4.089680000000001 515.506440096,4.05227 507.89764009600003,4.025710000000004 500.286840096,4.008070000000004 492.687640096,4.0 485.105140096,4.004620000000003 477.533140096,4.024639999999998 469.960340096,4.059889999999996 462.378940096,4.109200000000001 454.786040096,4.171280000000003 447.185840096,4.244660000000003 439.591240096,4.327869999999997 432.015940096,4.42239 424.457840096,4.532139999999998 416.895740096,4.660110000000003 409.310740096,4.803540000000005 401.708940096,4.957509999999999 394.117440096,5.1205 386.546940096,5.297460000000001 378.97444009599997,5.493939999999995 371.363740096,5.707730000000005 363.707740096,5.930590000000002 356.03664009600004,6.1557400000000015 348.382040096,6.386049999999997 340.742740096,6.627170000000007 333.093740096,6.881039999999999 325.425040096,7.143940000000001 317.754940096,7.411729999999999 310.108440096,7.686129999999999 302.483140096,7.972189999999998 294.851840096,8.272780000000004 287.19924009600004,8.583490000000005 279.54504009600004,8.898110000000003 271.926740096,9.217440000000003 264.353340096,9.549390000000002 256.79754009600003,9.90137 249.224540096,10.272369999999995 241.621840096,10.65802 233.999140096,11.05433 226.368940096,11.459539999999997 218.73684009599998,11.872420000000005 211.106140096,12.29177 203.48894009600002,12.715890000000002 195.906540096,13.143790000000003 188.376240096,13.57862 180.901740096,14.024790000000003 173.476740096,14.485220000000005 166.099140096,14.96022 158.77534009599998,15.449520000000007 151.517840096,15.95382 144.340940096,16.47419 137.259440096,17.011380000000003 130.284740096,17.566290000000002 123.421140096,18.140060000000005 116.669440096,18.732640000000004 110.049740096,19.338549999999998 103.61099009600001,19.948840000000004 97.41447009599999,20.557409999999997 91.488830096,21.17259 85.829590096,21.79519 80.455210096,22.41298 75.39007009599999,23.02424 70.62883009599999,23.63373 66.15754009599999,24.235500000000002 61.976050096,24.81868 58.084500096,25.38092 54.468320096,25.92717 51.103160095999996,26.461070000000003 47.965910095999995,26.98086 45.039720095999996,27.48336 42.310570096,27.966660000000005 39.764960096,28.43506 37.387330096,28.89526 35.161160095999996,29.352220000000003 33.070610095999996,29.809420000000003 31.101310096000002,30.26662 29.241600096,30.720720000000004 27.482620096,31.17031 25.817850096,31.62066 24.240720095999997,32.077780000000004 22.744670096,32.54621 21.324530096,33.02948000000001 19.975620096,33.53032 18.693420096,34.05081 17.473810096,34.59213 16.313240096,35.154250000000005 15.208720095999999,35.73695000000001 14.157610095999999,36.33985 13.158081096,36.962630000000004 12.210992096,37.60578 11.317533096,38.27008 10.478353096,38.95634 9.693749096,39.66538 8.963807096,40.39808 8.288617096,41.15455 7.668582096,41.93251 7.104216096,42.729560000000006 6.596089096,43.543552000000005 6.143813096000001,44.372242 5.740778096,45.211580000000005 5.379023096,46.057232 5.056768096,46.906934 4.775969296,47.759280000000004 4.538580696,48.612427000000004 4.346320396,49.464133000000004 4.199026896,50.31169 4.093977006,51.153207 4.028389386,51.988789000000004 4.0,52.8203134 4.00733035,53.6513348 4.049640666,54.486838 4.126891496,55.331108 4.239561096,56.18678 4.388239396,57.054523 4.573845696,57.932317 4.7997456960000004,58.815560000000005 5.070216095999999,59.699688 5.390051096,60.580868 5.764670096,61.456279 6.193482096,62.327289 6.667918096,63.19848 7.183094096,64.07109 7.741151095999999,64.94248999999999 8.345116096000002,65.80983 8.998583096,66.67027 9.705151096000002,67.52172 10.466338096000001,68.36462 11.283150096,69.19992 12.156516096,70.02854 13.087162095999998,70.85135 14.075440096,71.66916 15.121810095999999,72.48310000000001 16.228140095999997,73.2955 17.396370096,74.10932 18.628000096,74.92811 19.924110096,75.75558000000001 21.288060096,76.59183 22.725320095999997,77.43493000000001 24.242830096000002,78.28283 25.848480096,79.13571 27.548580096000002,79.99898 29.347720096,80.87957 31.249750096,81.78192 33.261710096,82.70392000000001 35.393080096,83.64262000000001 37.654360096000005,84.59810999999999 40.055790095999996,85.57254 42.606940096,86.56827 45.315690096,87.58769 48.188720096000004,88.63034999999999 51.232860096,89.69257 54.455140095999994,90.77001 57.863780096,91.85854 61.467440096000004,92.95492 65.275030096,94.05592999999999 69.29517009599999,95.15997 73.52959009599999,96.26693 77.967030096,97.37317999999999 82.596800096,98.46343 87.433090096,99.52437 92.504060096,100.56529 97.806020096,101.60211000000001 103.304270096,102.62959000000001 108.97384009599999,103.63552999999999 114.803140096,104.61462 120.782340096,105.56395 126.903340096,106.48150000000001 133.159940096,107.36645999999999 139.544840096,108.21877 146.048240096,109.0387 152.657340096,109.8269 159.356440096,110.5844 166.126840096,111.3126 172.94844009599998,112.01129 179.80344009599997,112.67759000000001 186.677340096,113.30906 193.560440096,113.90389 200.447540096,114.46086 207.337840096,114.97921 214.234240096,115.45891 221.139440096,115.90026999999999 228.05474009600002,116.30353 234.980140096,116.66881000000001 241.91444009600002,116.99616 248.855040096,117.28558 255.798640096,117.53688000000001 262.743040096,117.7498 269.686740096,117.92415 276.62974009600003,118.0598 283.572740096,118.15662 290.517540096,118.21453000000001 297.466040096,118.23370000000001 304.418940096,118.21436 311.37584009600005,118.15671 318.334940096,118.06101000000001 325.293240096,117.92755 332.247040096,117.75645000000002 339.193040096,117.54731 346.13004009599996,117.29965999999999 353.05844009599997,117.01297 359.98074009600003,116.68658 366.901140096,116.31973 373.825340096,115.91204 380.75844009599996,115.464 387.704240096,114.97616 394.66514009599996,114.44911 401.641640096,113.88353000000001 408.633240096,113.28021000000001 415.638040096,112.63978 422.65444009600003,111.96276 429.68144009599996,111.24964 436.718240096,110.50086 443.76454009599996,109.71688 450.820840096,108.8981 457.888040096,108.04495 464.96794009599995,107.15775 472.063440096,106.23671 479.178340096,105.28183 486.317240096,104.29295 493.486040096,103.27026000000001 500.689540096,102.21486 507.931140096,101.12813 515.2125400959999,100.01178999999999 522.5333400960001,98.86793 529.8909400960001,97.69897 537.2822400960001,96.50703 544.7049400960001,95.29392 552.1582400960001,94.06125 559.6431400960001,92.81040999999999 567.1622400960001,91.54255 574.718840096,90.25877 582.313240096,88.96082 589.940740096,87.65135000000001 597.591440096,86.33399 605.249940096,85.01337000000001 612.896640096,83.69505000000001 620.5161400960001,82.38432 628.1020400960001,81.08493 635.656740096,79.79899 643.1910400960002,78.52716000000001 650.7234400960001,77.2683 658.2714400960001,76.01831 665.8426400960001,74.77379 673.4330400960001,73.53317 681.026940096,72.29678 688.5972400960001,71.06708 696.112740096,69.85176 703.552240096,68.66003 710.9065400960001,67.49878000000001 718.1769400960001,66.37281 725.3739400960001,65.2852 732.5138400960001,64.23663 739.6137400960001,63.225120000000004 746.688040096,62.248883000000006 753.749240096,61.306668 760.8080400960001,60.397649 767.873640096,59.521339000000005 774.952440096,58.676806 782.045440096,57.863056 789.146740096,57.079801 796.244040096,56.327343 803.3181400960001,55.60643 810.345040096,54.918857 817.3036400960001,54.270157000000005 824.1840400960001,53.665689300000004 830.986840096,53.109389591 837.7221400960001,52.6042068 844.4074400960001,52.1525543 851.0664400960001,51.755484 857.720940096,51.410408000000004 864.3850400960001,51.114833000000004 871.064840096,50.866957 877.7588400960001,50.665362 884.4568400960001,50.508737 891.141740096,50.396237 897.7962400960001,50.328598 904.4087400960001,50.306483 910.9739400960001,50.330254000000004 917.491840096,50.400159 923.9676400960001,50.516524000000004 930.4101400960001,50.679473 936.8209400960001,50.887444 943.1852400960001,51.137825 949.4725400960001,51.426901 955.6407400960001,51.749609 961.6416400960001,52.099646 967.428640096,52.4699455 972.9654400960001,52.8539473 978.2327400960002,53.246265 983.2268400960002,53.6425678 987.954240096,54.0395549 992.4278400960001,54.43482 996.663940096,54.826675 1000.6800400960001,55.213982 1003.998540096,55.54562" stroke="black" stroke-width="2.0" /></svg>