<?xml version="1.0" encoding="utf-8" ?>
<svg baseProfile="full" height="73.54407" version="1.1" width="1011.998047804" xmlns="http://www.w3.org/2000/svg" xmlns:ev="http://www.w3.org/2001/xml-events" xmlns:xlink="http://www.w3.org/1999/xlink"><defs /><polygon fill="none" points="1003.998047804,40.11349 1001.116547804,40.207822 997.482147804,40.305692 993.455947804,40.386617 988.980647804,40.442658 984.021847804,40.463058000000004 978.611647804,40.435414 972.8799478039999,40.351044 967.003247804,40.208944 961.120647804,40.013726000000005 955.285447804,39.771081 949.464947804,39.483828 943.604347804,39.152755 937.6902478039999,38.780100000000004 931.737847804,38.370123 925.7594478039999,37.927435 919.7591478039999,37.456325 913.7342478039999,36.960379 907.681847804,36.442943 901.600647804,35.907592 895.4917478039999,35.357951 889.358547804,34.797618 883.2073478039999,34.230537 877.047347804,33.660806 870.8867478039999,33.092005 864.730747804,32.526535 858.5814478039999,31.965787000000002 852.4383478039999,31.410850000000003 846.298547804,30.862210000000005 840.159547804,30.319770000000002 834.0198478039999,29.783520000000003 827.8790478039999,29.25347 821.7373478039999,28.729580000000002 815.5946478039999,28.211740000000002 809.450747804,27.69988 803.3056478039999,27.19385 797.1589478039999,26.69348 791.0104478039999,26.198580000000003 784.859947804,25.708940000000002 778.7074478039999,25.224380000000004 772.552747804,24.744680000000002 766.396147804,24.269650000000002 760.2381478039999,23.799120000000002 754.079447804,23.333000000000002 747.920747804,22.871380000000002 741.7621478039999,22.414350000000002 735.6036478039999,21.961960000000005 729.4451478039999,21.514250000000004 723.2863478039999,21.07121 717.1273478039999,20.63286 710.968347804,20.199240000000003 704.809647804,19.77042 698.6516478039999,19.346580000000003 692.494447804,18.927880000000002 686.338147804,18.514490000000002 680.182647804,18.106530000000003 674.0277478039999,17.704120000000003 667.8733478039999,17.307350000000003 661.719047804,16.916330000000002 655.564447804,16.531080000000003 649.4093478039999,16.151580000000003 643.253847804,15.777800000000003 637.0978478039999,15.409720000000004 630.941747804,15.04737 624.785647804,14.690810000000003 618.629747804,14.340100000000003 612.4737478039999,13.99529 606.317747804,13.656410000000001 600.161447804,13.323460000000004 594.004747804,12.99643 587.847947804,12.675340000000002 581.690947804,12.360210000000002 575.533847804,12.051070000000003 569.3768478039999,11.747970000000002 563.2196478039999,11.45092 557.0624478039999,11.159970000000001 550.905147804,10.875150000000001 544.7477478039999,10.596480000000003 538.590747804,10.32402 532.4343478039999,10.057880000000004 526.2786478039999,9.798209999999997 520.123947804,9.545189999999998 513.9700478039999,9.298960000000001 507.816947804,9.059640000000009 501.664447804,8.827300000000001 495.511947804,8.602000000000004 489.359147804,8.383810000000004 483.205547804,8.17268 477.050747804,7.968480000000007 470.894847804,7.77111 464.738347804,7.580449999999999 458.581647804,7.39649 452.424947804,7.219250000000002 446.267947804,7.048729999999999 440.109747804,6.884920000000001 433.949447804,6.727560000000004 427.786347804,6.576250000000002 421.619847804,6.430570000000003 415.449947804,6.290149999999997 409.277047804,6.154620000000001 403.101347804,6.023610000000005 396.92294780400005,5.8967600000000076 390.741947804,5.773719999999997 384.55854780400006,5.654139999999998 378.372747804,5.537709999999997 372.184647804,5.424120000000002 365.994147804,5.313040000000001 359.801547804,5.204250000000002 353.607347804,5.0975699999999975 347.412647804,4.992830000000005 341.218747804,4.88991 335.027247804,4.7891600000000025 328.839347804,4.691120000000005 322.656047804,4.596320000000006 316.47784780399996,4.5053100000000015 310.305047804,4.418860000000002 304.13834780400003,4.337789999999998 297.97824780400003,4.2629499999999965 291.825647804,4.195210000000003 285.68134780400004,4.135650000000005 279.545647804,4.085429999999995 273.418547804,4.045710000000007 267.29974780400005,4.017589999999998 261.188647804,4.002040000000001 255.08484780400002,4.0 248.987847804,4.012400000000007 242.89734780400002,4.040150000000004 236.812847804,4.084010000000006 230.734247804,4.1447100000000034 224.661447804,4.22298 218.594647804,4.319520000000004 212.533847804,4.435040000000001 206.478947804,4.570210000000003 200.429947804,4.725729999999999 194.38644780400003,4.9022700000000015 188.34854780400002,5.100450000000002 182.31604780400002,5.320840000000004 176.289747804,5.564009999999996 170.270147804,5.830530000000003 164.25854780400002,6.121249999999996 158.25614780400002,6.437080000000002 152.264347804,6.778939999999999 146.284747804,7.14772 140.318947804,7.5447500000000005 134.368747804,7.971530000000001 128.435747804,8.42953 122.52174780399999,8.920210000000004 116.629147804,9.445880000000002 110.76164780399999,10.009310000000006 104.92434780399999,10.61298 99.123567804,11.259000000000004 93.36654780399999,11.949210000000004 87.660537804,12.686800000000002 82.01030780399999,13.476150000000004 76.420337804,14.321610000000003 70.897577804,15.227260000000001 65.449117804,16.197660000000003 60.081197804,17.23715 54.802297804000005,18.349090000000004 49.626437804,19.53496 44.578227804,20.792400000000004 39.699357804,22.11238 35.048567804,23.477420000000002 30.694917804,24.86276 26.714427804,26.235930000000003 23.170427804,27.560770000000005 20.086157804,28.811730000000004 17.437917804,29.976220000000005 15.184507804,31.05415 13.276813804000001,32.047335000000004 11.659529803999998,32.964277 10.280804803999999,33.81939 9.094506804,34.626706 8.065787804,35.397567 7.177568804,36.142875000000004 6.416737804,36.870966 5.769851804,37.587213000000006 5.226567804,38.295317000000004 4.784660704,38.999631 4.442433104,39.704557 4.201515504,40.404961 4.057862824,41.0881786 4.0,41.7525873 4.021909914,42.4111561 4.123457504,43.080634 4.310390804,43.767118 4.588702704,44.460492 4.961188504,45.147054000000004 5.431783804,45.82072 6.0049738040000005,46.476538000000005 6.686405804,47.109648 7.483910804000001,47.718642 8.405285803999998,48.30214 9.456937803999999,48.858602000000005 10.653926804,49.38946 12.026127804,49.902163 13.612191804,50.403817000000004 15.458467804000001,50.901424000000006 17.624887804,51.39627 20.181437803999998,51.890922 23.204787804,52.39199 26.766257804,52.89671 30.898547804,53.4024 35.569687804,53.899570000000004 40.691887804000004,54.37913 46.160477804,54.8346 51.869517804000004,55.26422 57.737217804000004,55.67076 63.707107804,56.05885 69.74243780399999,56.431830000000005 75.820727804,56.79274 81.92451780399999,57.14367 88.04006780399999,57.484950000000005 94.161947804,57.81642 100.288727804,58.13826 106.41914780399999,58.45062 112.552047804,58.75366 118.68694780399998,59.047520000000006 124.823147804,59.33241 130.960747804,59.60849 137.099847804,59.875960000000006 143.240547804,60.13493 149.38264780400002,60.38557 155.526347804,60.62801 161.671447804,60.8624 167.817947804,61.08891 173.96604780400003,61.30769000000001 180.116147804,61.51893 186.268347804,61.72286 192.422847804,61.919760000000004 198.57924780400003,62.10987 204.73734780400002,62.293420000000005 210.89634780400002,62.47053 217.056147804,62.64124 223.21664780400002,62.80563 229.377847804,62.96378 235.54024780400002,63.11582 241.703847804,63.261880000000005 247.868647804,63.402100000000004 254.03414780399999,63.53660000000001 260.200247804,63.66542 266.366747804,63.78859 272.53354780399997,63.906130000000005 278.70074780400006,64.01809 284.868747804,64.12457 291.037647804,64.22568 297.20784780400004,64.32155 303.37964780400006,64.41233 309.553547804,64.49827 315.729647804,64.57968 321.90804780400003,64.65686 328.089047804,64.73011 334.272447804,64.79973 340.458147804,64.86604 346.645847804,64.92933 352.835047804,64.98987 359.025447804,65.04777 365.216447804,65.10311 371.407547804,65.15599 377.598347804,65.20643 383.78824780400004,65.25429 389.976947804,65.29939 396.164047804,65.34157 402.349247804,65.38063 408.532247804,65.41626 414.713047804,65.44815 420.89144780400005,65.47599 427.067547804,65.49948 433.241347804,65.51832 439.412947804,65.53221 445.582747804,65.54088 451.751047804,65.54407 457.918047804,65.54163 464.083947804,65.53341 470.248947804,65.51926 476.413047804,65.49907 482.576447804,65.47274 488.739347804,65.44022 494.90194780400003,65.40142 501.064847804,65.35633 507.228147804,65.30502 513.392047804,65.24757 519.556347804,65.18407 525.721047804,65.11457 531.885747804,65.03909 538.050447804,64.95765 544.2152478039999,64.87027 550.380047804,64.77696 556.545147804,64.67777000000001 562.710347804,64.57272 568.875647804,64.46186 575.040647804,64.3452 581.205447804,64.22268 587.369547804,64.09428 593.5331478039999,63.95994 599.6961478039999,63.81962 605.858547804,63.67325 612.020247804,63.52076 618.181447804,63.3621 624.342047804,63.1972 630.502147804,63.02601 636.661547804,62.84846 642.8202478039999,62.66452 648.977947804,62.474109999999996 655.134747804,62.27714 661.290647804,62.0735 667.446047804,61.8631 673.6012478039999,61.64591 679.756647804,61.42197 685.9121478039999,61.191320000000005 692.0675478039999,60.95403 698.222247804,60.710080000000005 704.376247804,60.45943 710.5293478039999,60.202 716.681847804,59.93771 722.834047804,59.66653000000001 728.986147804,59.388490000000004 735.1380478039999,59.1036 741.289247804,58.8119 747.4393478039999,58.513310000000004 753.587747804,58.20768 759.734147804,57.89483 765.8783478039999,57.57458 772.0200478039999,57.24669 778.159147804,56.91089 784.2956478039999,56.566880000000005 790.4292478039999,56.214380000000006 796.559947804,55.85309 802.6877478039999,55.482690000000005 808.812447804,55.102850000000004 814.934147804,54.71327 821.0529478039999,54.31362 827.168747804,53.90361 833.282047804,53.48293 839.392947804,53.051280000000006 845.502447804,52.6085 851.611547804,52.154520000000005 857.722547804,51.689196 863.8379478039999,51.212863 869.9600478039999,50.726378000000004 876.090347804,50.230672 882.229547804,49.727046 888.375747804,49.217597000000005 894.524347804,48.705663 900.6684478039999,48.195301 906.799347804,47.69071 912.9085478039999,47.196199 918.9913478039999,46.71579 925.048347804,46.252991 931.0829478039999,45.811244 937.093147804,45.394714 943.067347804,45.008038 948.988947804,44.655703 954.868147804,44.340085 960.760047804,44.061548 966.703447804,43.822297 972.647347804,43.628316000000005 978.447647804,43.485931 983.9185478039999,43.396942 988.922747804,43.355464000000005 993.427647804,43.350816 997.4709478039999,43.373018 1001.113947804,43.414382 1003.998047804,43.461490000000005" stroke="black" stroke-width="2.0" /></svg>