<?xml version="1.0" encoding="utf-8" ?>
<svg baseProfile="full" height="140.27059" version="1.1" width="1012.00264932" xmlns="http://www.w3.org/2000/svg" xmlns:ev="http://www.w3.org/2001/xml-events" xmlns:xlink="http://www.w3.org/1999/xlink"><defs /><polygon fill="none" points="1004.00264932,71.41943 1000.25674932,71.294342 995.70294932,71.12452 990.8901493200001,70.924566 985.8146493200001,70.692048 980.4752493200001,70.42418500000001 974.87464932,70.11919300000001 969.02014932,69.77532000000001 962.92224932,69.391097 956.59374932,68.96571300000001 950.0500493200001,68.499024 943.30784932,67.991668 936.38524932,67.444912 929.30084932,66.859995 922.0718493200001,66.23828 914.7134493200001,65.58145 907.23984932,64.89160000000001 899.66394932,64.17093 891.9975493200001,63.42159 884.25124932,62.645770000000006 876.43404932,61.84548 868.55364932,61.022490000000005 860.61584932,60.178580000000004 852.6256493200001,59.31563 844.5885493200001,58.435700000000004 836.5102493200001,57.54072000000001 828.3956493200001,56.63199 820.24814932,55.71061 812.06944932,54.777660000000004 803.8612493200001,53.834500000000006 795.62634932,52.88264 787.36814932,51.923460000000006 779.0899493200001,50.95796000000001 770.79414932,49.986990000000006 762.4824493200001,49.01131000000001 754.15644932,48.031740000000006 745.8182493200001,47.04911 737.47024932,46.06433 729.1153493200001,45.078190000000006 720.7561493200001,44.09143 712.39514932,43.10474000000001 704.0345493200001,42.11878 695.67624932,41.13405000000001 687.32144932,40.15104 678.97094932,39.17015 670.62524932,38.19173 662.2847493200001,37.216100000000004 653.94964932,36.243590000000005 645.62014932,35.27445 637.2964493200001,34.30894000000001 628.9791493200001,33.34731000000001 620.66904932,32.389880000000005 612.3666493200001,31.43708 604.0727493200001,30.489340000000006 595.78754932,29.547070000000005 587.5114493200001,28.610670000000006 579.24474932,27.680530000000005 570.9879493200001,26.757070000000006 562.74174932,25.840700000000005 554.50684932,24.931940000000004 546.2842493200001,24.031370000000003 538.0747493200001,23.139560000000003 529.87904932,22.257110000000004 521.69794932,21.384660000000004 513.5324493200001,20.522890000000004 505.38334932,19.67251000000001 497.25154932,18.834200000000003 489.13794931999996,18.008770000000005 481.04364932,17.197050000000004 472.96964932000003,16.399870000000007 464.91724932,15.618079999999999 456.88744932,14.85268 448.88124932,14.104650000000007 440.89924932,13.374970000000005 432.94204932,12.664540000000002 425.01034932,11.974360000000004 417.10504932,11.305390000000003 409.22734932,10.658630000000002 401.37894932,10.035110000000003 393.56074932,9.436050000000009 385.77344932,8.862620000000007 378.01694932000004,8.315879999999993 370.29054931999997,7.796840000000003 362.59464932000003,7.3064700000000045 354.93044932,6.845780000000005 347.30074931999997,6.415790000000001 339.70894932,6.017809999999997 332.15594932,5.653500000000008 324.63944932,5.32435000000001 317.15384932,5.031690000000012 309.69194932,4.775750000000002 302.25144931999995,4.555509999999998 294.83714932,4.37003 287.46094932,4.218580000000003 280.13744932000003,4.103320000000011 272.87444932,4.028980000000004 265.66964931999996,4.0 258.51254932,4.020390000000006 251.38834931999997,4.090590000000006 244.28474931999997,4.208849999999998 237.19394931999997,4.373650000000012 230.11194932,4.583299999999994 223.04114932,4.834530000000001 215.99364932,5.123020000000011 208.99144932,5.443799999999996 202.06364931999997,5.794160000000005 195.23494931999997,6.178299999999993 188.51814932,6.601179999999999 181.91644932,7.067420000000013 175.42634932,7.580310000000011 169.04474932,8.141710000000003 162.76964931999998,8.753039999999999 156.60014931999999,9.415210000000016 150.53694932,10.127499999999998 144.58184931999998,10.888350000000003 138.73794931999998,11.69586000000001 133.00904931999997,12.547500000000007 127.40094932000001,13.439439999999998 121.92114932,14.367170000000009 116.57824932,15.325760000000002 111.38124932000001,16.310150000000007 106.33934932000001,17.315200000000004 101.46129932,18.33551 96.75439931999999,19.365750000000006 92.22420932000001,20.401830000000004 87.87437932,21.440580000000004 83.70614932,22.478920000000002 79.71841932000001,23.514020000000002 75.90846932,24.54435 72.27231932000001,25.56924 68.80461932,26.58795 65.49893932,27.59975 62.34826932000001,28.60434 59.34574932,29.602500000000006 56.48417932,30.59492000000001 53.75610932,31.582100000000004 51.15409932,32.56438000000001 48.671059320000005,33.5422 46.30070932,34.51633 44.036969320000004,35.487390000000005 41.87398932000001,36.45584 39.80613932000001,37.422000000000004 37.82809932,38.3861 35.935329319999994,39.34852000000001 34.12378932,40.309670000000004 32.38956932,41.269850000000005 30.72893932,42.22927 29.138319319999997,43.18807 27.61430932,44.146370000000005 26.154049320000002,45.104240000000004 24.75499932,46.06174 23.41471932,47.01894 22.13082932,47.975880000000004 20.90103932,48.93258 19.723129319999998,49.88908000000001 18.595119320000002,50.84537 17.51568932,51.80145 16.48364932,52.757290000000005 15.49783932,53.712810000000005 14.55706932,54.667930000000005 13.66020332,55.622530000000005 12.806079319999998,56.576510000000006 11.99368832,57.52973 11.22237832,58.48208 10.49146332,59.43354000000001 9.80016532,60.38421 9.14765732,61.334250000000004 8.53309532,62.2839 7.9556403200000005,63.233450000000005 7.41480432,64.18315000000001 6.91150132,65.13281 6.44697732,66.08199 6.02239432,67.03002000000001 5.63878932,67.976127 5.29703432,68.91940100000001 4.99780592,69.858851 4.7412391199999995,70.79326300000001 4.52582842,71.721006 4.34959162,72.64119600000001 4.21064282,73.553816 4.10732742,74.45956600000001 4.03831942,75.35974610000001 4.00269688448,76.256198096 4.0,77.15125590000001 4.03023628,78.047252 4.09388507,78.946042 4.19183742,79.848991 4.3253289200000005,80.756972 4.49587062,81.670319 4.70516472,82.58875 4.95499152,83.511262 5.24699032,84.436006 5.58223832,85.36045800000001 5.96162232,86.28199000000001 6.386062320000001,87.19803 6.8565773199999995,88.10606 7.37436232,89.00363 7.94089232,89.88838000000001 8.55761232,90.75852 9.22452532,91.61439 9.94118432,92.45675 10.70702532,93.28627 11.521287319999999,94.10352 12.38290432,94.90893 13.290425319999999,95.7028 14.24328932,96.48567 15.24219932,97.25846 16.28789932,98.02231 17.38099932,98.77854 18.52199932,99.52874 19.711209320000002,100.27478 20.949109319999998,101.01855 22.23753932,101.76105000000001 23.57875932,102.50311 24.975099319999998,103.24572 26.428859319999997,103.99005 27.94229932,104.73749000000001 29.51762932,105.48958 31.157709320000002,106.24711 32.866029319999996,107.0103 34.64620932,107.77941 36.50201932,108.55476 38.437359320000006,109.33676 40.456229320000006,110.12589 42.56314932,110.92203 44.76302932,111.72460000000001 47.06095932000001,112.53288 49.46219932,113.34606000000001 51.972209320000005,114.16318000000001 54.59670932000001,114.98315 57.341789320000004,115.80453 60.213659320000005,116.62568 63.218699320000006,117.44475 66.36348932000001,118.25972 69.65501932000001,119.06857000000001 73.10053932,119.86947 76.70723932,120.66054 80.48220932000001,121.43991 84.43253932,122.20577 88.56539932000001,122.95671000000002 92.88720932000001,123.69159 97.40283932,124.40960000000001 102.11522932000001,125.1103 107.02524932000001,125.79282 112.13114932,126.45574 117.42764932,127.09813 122.90584932,127.71932000000001 128.55344932000003,128.31638 134.35424932,128.88508000000002 140.28804932,129.42143000000002 146.33264932,129.92035 152.47034932,130.37321 158.69534932,130.77143 165.01634932,131.10722 171.45514932,131.38039 178.03344932,131.59788 184.76834932,131.76722 191.66904932,131.89681000000002 198.73074931999997,131.99675000000002 205.92344932,132.07892 213.18574932,132.15626 220.43724932,132.22686 227.62964931999997,132.27059 234.76454932,132.26767999999998 241.88784932,132.20141 249.06224931999998,132.07352 256.32854932,131.89335 263.69784932,131.67103 271.14804932,131.41567 278.64664932,131.12849 286.17334932,130.80880000000002 293.72404932,130.4555 301.30854932,130.06807 308.93774932,129.64774 316.61714932,129.19612 324.34624931999997,128.71521 332.11984932,128.20680000000002 339.93334932,127.67231000000001 347.78414932,127.11308 355.67164932,126.53037 363.59684932,125.92543 371.55984931999996,125.29962 379.55974932,124.65442 387.59474932,123.99138 395.66274932,123.31179 403.76204931999996,122.61685 411.89154931999997,121.90778 420.05074931999997,121.18576000000002 428.23874932,120.45201 436.45434932,119.70783 444.69574932,118.9546 452.96044932,118.19357000000001 461.24604932,117.42573 469.55084932,116.65206 477.87304932,115.87351000000001 486.21114931999995,115.09106 494.56284932,114.30578 502.92514932,113.51883000000001 511.29384932000005,112.73144 519.66474932,111.94447000000001 528.03454932,111.15862 536.4010493200001,110.37447 544.76304932,109.5925 553.11994932,108.8132 561.47164932,108.03701000000001 569.81804932,107.26435000000001 578.1596493200001,106.49552 586.49684932,105.73067 594.8299493200001,104.96995000000001 603.15914932,104.21354 611.4847493200001,103.46153000000001 619.8069493200001,102.71405 628.12564932,101.97119 636.4409493200001,101.23308 644.75264932,100.49982 653.06064932,99.77157 661.3648493200001,99.04843000000001 669.66474932,98.33058 677.96004932,97.61817 686.25024932,96.91141 694.53444932,96.21049000000001 702.81194932,95.51571000000001 711.0818493200001,94.82742 719.34324932,94.14593 727.5952493200001,93.47161 735.8367493200001,92.80487000000001 744.0662493200001,92.14614 752.2822493200001,91.49589 760.4828493200001,90.8548 768.6660493200001,90.22359 776.8298493200001,89.60298 784.97184932,88.99387 793.0901493200001,88.39722 801.18244932,87.81399 809.24684932,87.24515000000001 817.2805493200001,86.69175 825.28024932,86.154835 833.2421493200001,85.635658 841.16254932,85.13574200000001 849.03764932,84.65655100000001 856.86384932,84.19951300000001 864.63674932,83.766069 872.35114932,83.357625 880.00094932,82.97577700000001 887.57964932,82.622253 895.0810493200001,82.29859900000001 902.49764932,82.006157 909.82034932,81.746086 917.03844932,81.519569 924.14054932,81.328029 931.1153493200001,81.172534 937.9508493200001,81.053484 944.63324932,80.97074400000001 951.14754932,80.92405000000001 957.47924932,80.913044 963.6152493200001,80.93671900000001 969.5427493200001,80.993329 975.25034932,81.080709 980.7289493200001,81.196509 985.9722493200001,81.33794900000001 990.9762493200001,81.501844 995.7397493200001,81.68593200000001 1000.2661493200001,81.887125 1004.00264932,82.07243" stroke="black" stroke-width="2.0" /></svg>