<?xml version="1.0" encoding="utf-8" ?>
<svg baseProfile="full" height="128.78388" version="1.1" width="1012.004659138" xmlns="http://www.w3.org/2000/svg" xmlns:ev="http://www.w3.org/2001/xml-events" xmlns:xlink="http://www.w3.org/1999/xlink"><defs /><polygon fill="none" points="1004.004659138,73.25365000000001 1000.4316591379999,72.998461 996.022959138,72.672747 991.2930591379999,72.30991900000001 986.238859138,71.908654 980.866059138,71.46746200000001 975.188159138,70.98504700000001 969.2258591379999,70.461408 963.0059591379999,69.89777000000001 956.5591591379999,69.295955 949.916559138,68.658288 943.108059138,67.98757 936.1619591379999,67.28687000000001 929.1030591379999,66.55882 921.9518591379999,65.80579 914.7239591379999,65.03003000000001 907.4325591379999,64.23392000000001 900.0886591379999,63.419630000000005 892.701259138,62.58903000000001 885.277759138,61.74378 877.8236591379999,60.885310000000004 870.343359138,60.014790000000005 862.839859138,59.13331000000001 855.3155591379999,58.2419 847.772359138,57.34163000000001 840.212259138,56.43356 832.637059138,55.51858 825.048559138,54.597500000000004 817.448359138,53.67112 809.837559138,52.74007 802.2171591379999,51.80489000000001 794.5877591379999,50.86607000000001 786.949559138,49.92414000000001 779.3032591379999,48.97973 771.650259138,48.03358000000001 763.992459138,47.086450000000006 756.332059138,46.138870000000004 748.6712591379999,45.191300000000005 741.011859138,44.24418000000001 733.355559138,43.298010000000005 725.703559138,42.35335 718.0561591379999,41.41067000000001 710.4133591379999,40.47037 702.7749591379999,39.53266000000001 695.140759138,38.59774 687.5108591379999,37.665850000000006 679.885759138,36.73727000000001 672.265759138,35.81235 664.651159138,34.89141000000001 657.042159138,33.974810000000005 649.438559138,33.06282 641.840659138,32.155770000000004 634.248259138,31.253950000000003 626.661859138,30.357680000000002 619.081559138,29.467330000000004 611.507759138,28.583290000000005 603.940659138,27.705960000000005 596.380459138,26.835720000000002 588.8272591379999,25.972970000000004 581.281259138,25.11811 573.7426591379999,24.271560000000008 566.211859138,23.433730000000004 558.689359138,22.605090000000004 551.1756591379999,21.78618000000001 543.6709591380001,20.97753 536.175759138,20.17969 528.690359138,19.393170000000005 521.214759138,18.618550000000006 513.749459138,17.856390000000005 506.29475913799996,17.107290000000006 498.85105913800004,16.3718 491.418659138,15.650580000000005 483.99795913800006,14.944260000000014 476.589159138,14.253490000000006 469.19235913800003,13.578900000000004 461.80775913800005,12.921110000000013 454.43555913800003,12.280770000000004 447.076259138,11.658569999999997 439.730259138,11.05516 432.398459138,10.471249999999998 425.08115913800003,9.907610000000005 417.7784591380001,9.364959999999996 410.490059138,8.843999999999994 403.21515913800005,8.345380000000006 395.953559138,7.869730000000004 388.70585913800005,7.417750000000012 381.47415913800006,6.990180000000009 374.261459138,6.587800000000001 367.070359138,6.211669999999998 359.90045913800003,5.86281000000001 352.747959138,5.542090000000016 345.605859138,5.250230000000002 338.467159138,4.987130000000008 331.331759138,4.752170000000007 324.20905913800004,4.54495 317.11755913800005,4.36524 310.079159138,4.215510000000009 303.102059138,4.101299999999995 296.174759138,4.027750000000012 289.268059138,4.0 282.34015913800005,4.018900000000002 275.362659138,4.076909999999998 268.336159138,4.1653400000000005 261.294059138,4.2745800000000145 254.295959138,4.401160000000019 247.38855913799998,4.554350000000014 240.585659138,4.744309999999999 233.873059138,4.980879999999999 227.218259138,5.2699599999999975 220.592659138,5.611130000000003 213.98035913799998,6.0035000000000025 207.377859138,6.445890000000006 200.790959138,6.937030000000007 194.22705913800002,7.476050000000015 187.692059138,8.062080000000009 181.18995913799998,8.694270000000003 174.724559138,9.372190000000003 168.30135913799998,10.095410000000015 161.92795913799998,10.86308000000001 155.61385913799998,11.674140000000008 149.36935913800002,12.528420000000011 143.204459138,13.425690000000003 137.12855913799999,14.365340000000003 131.150659138,15.346900000000005 125.27985913799999,16.3701 119.524959138,17.434090000000005 113.894359138,18.537530000000004 108.39655913799999,19.678940000000004 103.04023913799999,20.856230000000004 97.83343913799999,22.066610000000004 92.783629138,23.306760000000004 87.89844913799999,24.572790000000005 83.18505913799999,25.860080000000004 78.64922913799998,27.163610000000006 74.295759138,28.478170000000006 70.128889138,29.798140000000004 66.15122913799999,31.117810000000006 62.363209138,32.43189 58.763889138,33.73606 55.350789137999996,35.02638 52.119549138,36.29932000000001 49.064059138,37.552060000000004 46.177579138000006,38.78307000000001 43.452689138000004,39.991310000000006 40.881219138000006,41.175990000000006 38.454499138,42.33663000000001 36.164039138,43.473490000000005 34.002109137999994,44.58773 31.961069138000003,45.68034 30.033379138000004,46.752210000000005 28.211709138000003,47.80413 26.489379138,48.837210000000006 24.860859138,49.85332000000001 23.320679138,50.854260000000004 21.863459138000003,51.84156 20.484019138,52.81660000000001 19.177439137999997,53.780570000000004 17.939869138,54.734840000000005 16.768529137999998,55.68094000000001 15.660779138,56.620070000000005 14.614029138,57.553160000000005 13.625747138,58.48091000000001 12.693462138,59.403890000000004 11.815357138,60.322520000000004 10.990769138000001,61.237260000000006 10.218785138000001,62.148790000000005 9.498213138,63.057930000000006 8.827725138,63.96558 8.205961138,64.87271000000001 7.631582138000001,65.78028 7.1031591380000005,66.68835000000001 6.619415138000001,67.59597000000001 6.1793521380000005,68.501846 5.782113138,69.404461 5.426873138,70.302124 5.112759138,71.19305800000001 4.838827238,72.07543600000001 4.604501638,72.94733400000001 4.409274238,73.807665 4.252429038,74.656536 4.133294138,75.494961 4.051439698,76.32464900000001 4.006835688,77.14788700000001 4.0,77.96751280000001 4.032069488,78.78686350000001 4.104142568,79.608703 4.217669138,80.434734 4.374814438,81.265821 4.578340738,82.10188400000001 4.831441238,82.9417 5.1374201379999995,83.782668 5.497646138,84.62214900000001 5.911126138,85.458645 6.376388137999999,86.29082600000001 6.891630138,87.11748800000001 7.4547751380000005,87.937596 8.063544138000001,88.75033 8.716512138,89.55534 9.414513138,90.35294 10.158732138000001,91.14353 10.950338138,91.92739 11.790434138,92.70479 12.679967137999999,93.47585000000001 13.619754138,94.24064 14.611329138,94.99911 15.656629137999998,95.75128000000001 16.757639138000002,96.49725000000001 17.916369138,97.23722000000001 19.134839137999997,97.97152 20.415109138000002,98.70064 21.760209138,99.42499000000001 23.174229138,100.14486000000001 24.661549138,100.86068 26.226819138000003,101.57306 27.874869138,102.28281000000001 29.610729138000004,102.99099000000001 31.440489138000004,103.69823000000001 33.371209138,104.40488 35.410439138,105.11153 37.566119138000005,105.81906000000001 39.846519138000005,106.52881000000001 42.260669138000004,107.24186 44.818759138,107.95829 47.531179138,108.6782 50.408119138,109.40191 53.459219138,110.13003 56.693739138,110.86173 60.120029138,111.59460000000001 63.744419138000005,112.32589000000002 67.57089913799999,113.05267 71.601459138,113.77080000000001 75.83575913799999,114.47437 80.27116913799999,115.15707 84.904209138,115.81267 89.73149913799999,116.43541 94.74837913799999,117.01993 99.949239138,117.56121 105.329259138,118.05542 110.886059138,118.50144 116.622459138,118.89976 122.54905913799999,119.25243 128.677759138,119.56618 134.995059138,119.85123000000002 141.442059138,120.1189 147.920259138,120.36765 154.36375913799998,120.57480000000001 160.777259138,120.71887000000001 167.232559138,120.78388000000001 173.824759138,120.78107 180.607459138,120.73286000000002 187.566059138,120.66529 194.60835913799997,120.59291000000002 201.644259138,120.50557 208.637559138,120.39068 215.606659138,120.23674 222.596359138,120.04258000000002 229.637359138,119.8118 236.739259138,119.54851000000001 243.890159138,119.25673 251.07115913799998,118.93789000000001 258.270859138,118.59270000000001 265.486159138,118.22162 272.721759138,117.82511000000001 279.983159138,117.40415 287.273159138,116.95991000000001 294.591859138,116.49375 301.936959138,116.00701000000001 309.30625913800003,115.50092000000001 316.698059138,114.97668000000002 324.11195913800003,114.43546 331.547759138,113.87835000000001 339.005459138,113.30638 346.484759138,112.72067000000001 353.98505913800005,112.12233 361.50565913800006,111.51244 369.04575913800005,110.89206 376.604459138,110.26223000000002 384.181159138,109.62403 391.77495913800004,108.97848 399.38505913800003,108.32659000000001 407.01005913800003,107.66940000000001 414.648459138,107.00797 422.29855913800003,106.34333000000001 429.95765913800005,105.67645 437.62275913800005,105.00842 445.289659138,104.34035 452.95435913800003,103.67335 460.613259138,103.0084 468.264459138,102.34637000000001 475.907159138,101.68799000000001 483.541559138,101.03384 491.16805913800005,100.38437 498.78695913800004,99.74005 506.398259138,99.10136 514.002059138,98.46875 521.598359138,97.84265 529.1874591379999,97.22347 536.769959138,96.61159 544.346659138,96.00731 551.918159138,95.41083 559.484959138,94.82233000000001 567.047259138,94.24202000000001 574.605159138,93.67011000000001 582.158659138,93.10687 589.707759138,92.55254000000001 597.252859138,92.00737000000001 604.7941591379999,91.47156000000001 612.331959138,90.9453 619.8667591379999,90.4287 627.3988591379999,89.92193 634.928459138,89.42512 642.4558591379999,88.93836 649.981059138,88.46176 657.5039591379999,87.995406 665.024559138,87.53941300000001 672.5424591379999,87.093946 680.0575591379999,86.659187 687.5696591379999,86.23531200000001 695.0786591379999,85.822496 702.584559138,85.42092000000001 710.087159138,85.030764 717.586559138,84.652208 725.082559138,84.28542300000001 732.575159138,83.930566 740.063959138,83.58779200000001 747.548659138,83.257265 755.028659138,82.939203 762.503359138,82.633898 769.9718591379999,82.34165 777.433559138,82.06276600000001 784.8874591379999,81.79765400000001 792.333259138,81.546767 799.770459138,81.310545 807.198959138,81.08937900000001 814.618359138,80.883598 822.0276591379999,80.693528 829.425459138,80.519543 836.810059138,80.362245 844.179859138,80.222294 851.5334591379999,80.10032700000001 858.869559138,79.997011 866.1863591380001,79.91301800000001 873.481959138,79.848995 880.7538591379999,79.80556700000001 887.998759138,79.783322 895.212459138,79.78281600000001 902.389659138,79.80466200000001 909.5233591379999,79.84942600000001 916.605159138,79.917636 923.6248591379999,80.009901 930.570259138,80.12662200000001 937.427159138,80.26776100000001 944.177259138,80.432799 950.798859138,80.62085900000001 957.266959138,80.83067600000001 963.553959138,81.060488 969.6317591379999,81.308147 975.473459138,81.57077000000001 981.053459138,81.844482 986.3499591379999,82.125708 991.3489591379999,82.411724 996.0443591379999,82.698751 1000.435859138,82.983592 1004.004659138,83.22665" stroke="black" stroke-width="2.0" /></svg>