<?xml version="1.0" encoding="utf-8" ?>
<svg baseProfile="full" height="132.0072" version="1.1" width="1012.04298223" xmlns="http://www.w3.org/2000/svg" xmlns:ev="http://www.w3.org/2001/xml-events" xmlns:xlink="http://www.w3.org/1999/xlink"><defs /><polygon fill="none" points="1004.04298223,77.28218 1000.95848223,77.10751479999999 997.09718223,76.83080799999999 992.86918223,76.4535969 988.24798223,75.964017 983.25058223,75.372717 977.93548223,74.685667 972.3647822300001,73.910202 966.59978223,73.05460699999999 960.70138223,72.13011 954.7160822300001,71.148468 948.66528223,70.118588 942.55378223,69.044477 936.3855822300001,67.929445 930.16658223,66.77739 923.90368223,65.59269 917.6046822300001,64.37931999999999 911.27598223,63.14094 904.92218223,61.881 898.54588223,60.602579999999996 892.1487822299999,59.30790999999999 885.73298223,57.99911999999999 879.30068223,56.678439999999995 872.85418223,55.34801999999999 866.39618223,54.00945 859.9286822299999,52.664159999999995 853.45338223,51.31345 846.97138223,49.95865 840.4844822299999,48.60131 833.99588223,47.24325999999999 827.50988223,45.88663 821.03148223,44.53382 814.5648822300001,43.18720999999999 808.11248223,41.84886 801.67528223,40.52043 795.25278223,39.203309999999995 788.84378223,37.89877 782.4467822299999,36.60798 776.05978223,35.331959999999995 769.6807822300001,34.071299999999994 763.30788223,32.82633 756.93938223,31.59742 750.57388223,30.384969999999996 744.21008223,29.189119999999996 737.84738223,28.00992 731.4851822300001,26.84745999999999 725.12338223,25.701959999999993 718.76258223,24.57385 712.40488223,23.463859999999997 706.05338223,22.37290999999999 699.71298223,21.30236 693.38838223,20.254769999999994 687.0830822300001,19.23287 680.79988223,18.239109999999997 674.54018223,17.27576 668.30428223,16.345259999999996 662.09138223,15.449909999999996 655.89948223,14.591799999999992 649.72538223,13.772709999999996 643.56558223,12.993529999999993 637.41578223,12.254899999999992 631.27128223,11.557469999999995 625.12678223,10.901759999999996 618.97698223,10.286899999999989 612.81618223,9.711560000000006 606.6387822300001,9.174549999999996 600.4389822300001,8.674659999999989 594.2115822300001,8.209630000000004 587.9535822299999,7.776689999999988 581.66498223,7.373279999999994 575.34808223,6.9969799999999935 569.00758223,6.64631 562.6478822299999,6.320239999999998 556.27328223,6.017609999999991 549.88768223,5.7372900000000016 543.49438223,5.478840000000005 537.09548223,5.2421799999999905 530.6921822300001,5.027159999999995 524.28428223,4.833579999999998 517.87128223,4.661079999999998 511.45288223,4.509270000000001 505.02938223000007,4.377749999999992 498.60168223000005,4.266169999999988 492.17058223,4.174300000000002 485.73668223,4.101950000000002 479.30028223,4.048909999999992 472.86108223,4.015000000000001 466.41898223000004,4.0 459.97458223,4.003709999999998 453.52898223,4.025909999999996 447.08388223000003,4.0664799999999985 440.64058223,4.125579999999999 434.19938223,4.203429999999997 427.75898223,4.300280000000001 421.31728223,4.416239999999988 414.87268223,4.550989999999999 408.42468223000003,4.704129999999992 401.97458223,4.875200000000007 395.52468223,5.0639500000000055 389.07718223,5.270579999999995 382.63298223,5.495339999999999 376.19188223000003,5.738509999999991 369.75248223000006,6.000299999999996 363.31378223,6.280680000000004 356.87518223,6.579589999999996 350.43688223,6.896969999999996 343.99968223,7.232759999999999 337.56408223,7.587019999999995 331.13078222999997,7.959760000000003 324.70028222999997,8.351019999999991 318.27308223,8.760940000000005 311.84958223,9.189709999999991 305.42998223,9.637529999999998 299.01478223000004,10.104609999999994 292.60408223,10.591179999999994 286.19818223,11.097489999999993 279.79688223,11.623810000000006 273.40018223000004,12.170429999999996 267.00778223000003,12.737560000000002 260.61968223,13.325380000000003 254.23628223,13.934049999999992 247.85818223,14.563689999999994 241.48608223,15.21454 235.12058223,15.886890000000001 228.76208223,16.581049999999998 222.41088223,17.29734 216.06728223000002,18.036119999999997 209.73178223000002,18.797719999999998 203.40538223000001,19.58244 197.08928223,20.390579999999993 190.78468223000002,21.222659999999998 184.49318223,22.079319999999996 178.21638223000002,22.961099999999995 171.95578223,23.868609999999997 165.71278223000002,24.802679999999995 159.48798223,25.764339999999997 153.28118222999998,26.754679999999993 147.09168223,27.77491 140.91898223,28.82607 134.76408223,29.90889 128.62958223,31.023799999999994 122.51938223,32.17089 116.43698223,33.35017 110.38298223000001,34.562129999999996 104.35488223,35.807869999999994 98.34762223,37.08933 92.36205223,38.409189999999995 86.41972223,39.766479999999994 80.56320223,41.15439 74.84974223,42.560739999999996 69.33002223000001,43.97368 64.01168222999999,45.39142999999999 58.864082229999994,46.8219 53.83330223,48.280519999999996 48.850632229999995,49.789649999999995 43.89764223,51.36069 39.103582229999994,52.95672 34.68573223,54.500319999999995 30.79836223,55.92189 27.46094223,57.193529999999996 24.60591223,58.32563 22.13848223,59.35128999999999 19.97595223,60.301469999999995 18.06319223,61.198499999999996 16.36036223,62.055319999999995 14.83615223,62.879929999999995 13.46648823,63.6795 12.23169423,64.46172 11.11451023,65.23196999999999 10.10147023,65.99314 9.18490323,66.74771 8.36002423,67.49907999999999 7.6209782299999995,68.25077999999999 6.96136923,69.006441 6.37596323,69.76809399999999 5.86057623,70.536041 5.41213823,71.30769599999999 5.02928163,72.076101 4.70991963,72.83645 4.45167283,73.586349 4.25248443,74.324978 4.11096486,75.05254599999999 4.02661161,75.76996 4.0,76.4786506 4.033021858,77.1805072 4.12842512,77.8779371 4.28582293,78.57369899999999 4.50455303,79.27005299999999 4.78531803,79.96858 5.12999623,80.67011 5.54145723,81.37449 6.02328323,82.080142 6.57920223,82.783295 7.21195423,83.47681 7.922224229999999,84.151961 8.710735230000001,84.80889499999999 9.577784229999999,85.45289299999999 10.523952229999999,86.092861 11.55582023,86.731059 12.685775229999999,87.36138 13.928284230000001,87.97883 15.29748223,88.58834999999999 16.809582229999997,89.19749999999999 18.48705223,89.81109 20.35893223,90.43383 22.46357223,91.07194 24.851382230000002,91.73718 27.59355223,92.451 30.793162229999997,93.24 34.55832223,94.12903 38.943402230000004,95.11708999999999 43.86500223,96.16967 49.087132229999995,97.22673 54.38141223,98.24137999999999 59.690532229999995,99.20701 65.08649223,100.14018 70.63987223000001,101.05453 76.39523223000002,101.95805 82.35614223000002,102.85217 88.47167223000001,103.73056 94.67407223000001,104.58491 100.91251223,105.4108 107.16178223,106.20821 113.42188223000001,106.97967 119.69998223,107.72679 125.99948223,108.4504 132.31968223,109.15084999999999 138.65588223,109.82809 145.00388223000002,110.48213 151.36128223000003,111.11327 157.72848223,111.72208 164.10738223,112.30948 170.50008223,112.87673000000001 176.90708223,113.42495 183.32778223,113.95517999999998 189.76058223,114.46817999999999 196.20368223,114.96448999999998 202.65538223000001,115.44468 209.11398223,115.90934 215.57828223,116.3588 222.04738222999998,116.79324 228.52058223,117.21284 234.99808223,117.61785 241.47988223000002,118.00854999999999 247.96618223000002,118.38524999999998 254.45648223,118.74824 260.95048223000003,119.09777 267.44768223,119.43402 273.94768223,119.75712999999999 280.45018223000005,120.06725 286.95528223,120.36456 293.46308223,120.64922 299.97348223,120.92143999999999 306.48658223,121.18137999999999 313.00228223,121.42921999999999 319.52038223000005,121.66512999999999 326.04088223,121.88929999999999 332.56348223,122.10189 339.08798222999997,122.30304000000001 345.61408223,122.49282 352.14128223000006,122.6713 358.66918223,122.83856 365.19718223,122.99459999999999 371.72518223000003,123.13937999999999 378.25348223000003,123.27284999999999 384.78268223000003,123.39501 391.31338223,123.50596999999999 397.84568223,123.60588999999999 404.37908223,123.69493 410.91228223,123.77315999999999 417.44428223000006,123.84044 423.97468223000004,123.89656 430.50378222999996,123.94133 437.03258223,123.97462 443.56188223,123.99654000000001 450.09218223,124.0072 456.62328223,124.0067 463.15458223,123.99508 469.68538223,123.97232 476.21538223,123.93838 482.74438223,123.89320000000001 489.27208223,123.83668 495.79828223000004,123.76868999999999 502.32228223,123.68906 508.84328223,123.59764999999999 515.36048223,123.49422999999999 521.8741822300001,123.37852 528.38528223,123.25023 534.8956822299999,123.10907 541.40658223,122.95509999999999 547.91668223,122.78846 554.42218223,122.60942 560.91708223,122.41788 567.39638223,122.21256 573.85808223,121.99193 580.30398223,121.75438 586.73778223,121.49852999999999 593.16158223,121.22353999999999 599.57328223,120.92881 605.96688223,120.61393999999999 612.3343822300001,120.27762 618.67208223,119.91728 624.98248223,119.52995999999999 631.27398223,119.11247 637.5590822300001,118.66332 643.84838223,118.18280999999999 650.14948223,117.67133999999999 656.4668822299999,117.12952999999999 662.80258223,116.55874 669.15808223,115.96092999999999 675.53478223,115.3381 681.9335822300001,114.69227 688.3551822300001,114.02546999999998 694.79808223,113.33986999999999 701.2587822300001,112.63794999999999 707.73178223,111.92229 714.21058223,111.19421 720.69048223,110.45415 727.16888223,109.70232999999999 733.6454822300001,108.93875 740.12138223,108.16332 746.59738223,107.37594999999999 753.07458223,106.57655 759.5539822300001,105.76509 766.03648223,104.94188 772.52358223,104.10722 779.01648223,103.26141 785.5168822300001,102.4049 792.0264822299999,101.5385 798.54688223,100.66313 805.07978223,99.77968999999999 811.62638223,98.88923 818.18658223,97.99311 824.7579822299999,97.09305 831.3359822299999,96.19104 837.91448223,95.28905999999999 844.4887822300001,94.38864 851.05598223,93.49098 857.61548223,92.59701 864.16788223,91.70739 870.71308223,90.8228 877.2497822299999,89.94409 883.7758822300001,89.07227999999999 890.28848223,88.20899 896.78508223,87.35601 903.26308223,86.515079 909.72018223,85.688014 916.15358223,84.877406 922.5588822300001,84.08615999999999 928.93028223,83.317236 935.2608822300001,82.573729 941.54338223,81.859109 947.77128223,81.176647 953.93898223,80.529263 960.03978223,79.920464 966.05138223,79.35785299999999 971.92638223,78.85070499999999 977.60198223,78.40711 983.0151822299999,78.0322091 988.09978223,77.7293529 992.78968223,77.5010851 997.06338223,77.35837046 1000.9498822300001,77.291927846 1004.04298223,77.28218" stroke="black" stroke-width="2.0" /></svg>