<?xml version="1.0" encoding="utf-8" ?>
<svg baseProfile="full" height="167.00157000000002" version="1.1" width="1012.06325287" xmlns="http://www.w3.org/2000/svg" xmlns:ev="http://www.w3.org/2001/xml-events" xmlns:xlink="http://www.w3.org/1999/xlink"><defs /><polygon fill="none" points="1004.06325287,94.77854 1000.63945287,94.5606899 996.5054528700001,94.2163508 992.1454528700001,93.756792 987.5303528700001,93.18072500000001 982.65025287,92.50162 977.51215287,91.720403 972.1288528700001,90.83815600000001 966.51945287,89.85633800000001 960.70745287,88.779268 954.71645287,87.613743 948.5649528700001,86.36714300000001 942.2668528700001,85.044218 935.8365528700001,83.64986 929.28885287,82.19004000000001 922.63735287,80.67111 915.89505287,79.09858000000001 909.07325287,77.47784000000001 902.18125287,75.81432000000001 895.2261528700001,74.11278000000001 888.2142528700001,72.37734 881.1518528700001,70.6123 874.04515287,68.82205 866.8999528700001,67.01029 859.72155287,65.18035 852.51465287,63.335440000000006 845.28335287,61.478480000000005 838.0335528700001,59.61244000000001 830.77385287,57.741020000000006 823.51565287,55.868770000000005 816.2700528700001,54.00110000000001 809.0457528700001,52.14293000000001 801.84825287,50.29838000000001 794.68035287,48.47088000000001 787.5427528700001,46.66331 780.43415287,44.87802000000001 773.35175287,43.116690000000006 766.29215287,41.38018000000001 759.25235287,39.66926000000001 752.22975287,37.98474000000001 745.22195287,36.327130000000004 738.22675287,34.69655 731.24185287,33.093120000000006 724.2650528700001,31.516890000000004 717.2958528700001,29.96785 710.33785287,28.446630000000013 703.3978528700001,26.954660000000004 696.4856528700001,25.49502000000001 689.60975287,24.072260000000014 682.7764528700001,22.69035000000001 675.98985287,21.352710000000016 669.2518528700001,20.063030000000012 662.56305287,18.825010000000006 655.92195287,17.641840000000002 649.32595287,16.51621 642.77035287,15.450150000000008 636.24685287,14.445080000000004 629.7438528700001,13.502110000000016 623.24715287,12.621139999999997 616.74255287,11.799360000000007 610.21675287,11.034120000000001 603.65785287,10.323340000000016 597.05485287,9.664429999999996 590.39985287,9.053280000000015 583.6889528700001,8.485979999999998 576.9230528700001,7.958910000000017 570.1070528700001,7.4696 563.2470528700001,7.016600000000011 556.34905287,6.598300000000009 549.41905287,6.213030000000003 542.46245287,5.8600600000000185 535.48375287,5.5390700000000095 528.48635287,5.249610000000004 521.47255287,4.991169999999997 514.4442528699999,4.763390000000001 507.40335286999994,4.565900000000013 500.35205286999997,4.398300000000006 493.29215287,4.260300000000001 486.22485287,4.151730000000001 479.15035286999995,4.072360000000003 472.06795287,4.021940000000001 464.97755287,4.0 457.88055287,4.006000000000014 450.78045287,4.039389999999997 443.68165287,4.1001500000000135 436.58645286999996,4.1888700000000085 429.49385286999996,4.3062300000000135 422.39955287,4.452790000000007 415.29905286999997,4.628040000000013 408.19115287,4.8310400000000016 401.07895287,5.060730000000007 393.96825287,5.316610000000011 386.86365286999995,5.599240000000009 379.76575287,5.90937000000001 372.67175287,6.247800000000012 365.57765287,6.614530000000002 358.48175287000004,7.009090000000015 351.38555286999997,7.430840000000003 344.29295287,7.879350000000002 337.20745287,8.354920000000007 330.13025287,8.858040000000017 323.06055287,9.389300000000006 315.99625287,9.949000000000012 308.93675287,10.537109999999998 301.88325287,11.153450000000007 294.83825286999996,11.797870000000003 287.80435287,12.470730000000017 280.78255286999996,13.172600000000003 273.77185287000003,13.904190000000014 266.77085287,14.665990000000008 259.77875287,15.45808000000001 252.79655287,16.280410000000003 245.82635287000002,17.13282000000001 238.87115287000003,18.015560000000008 231.93255287000002,18.929090000000002 225.01165287,19.87397 218.10845287,20.850719999999995 211.22365287,21.859710000000007 204.35845287,22.901160000000004 197.51495287000003,23.975150000000014 190.69595287,25.082040000000006 183.90555287000004,26.222160000000002 177.14825287,27.39561000000002 170.42945287,28.602410000000006 163.75345287000002,29.843280000000007 157.12245287000002,31.11938 150.53595287000002,32.43230000000001 143.99215287,33.783500000000004 137.49415287,35.172900000000006 131.05265287,36.598510000000005 124.68485287,38.05644000000001 118.41125287,39.541920000000005 112.24535287,41.051770000000005 106.19045287,42.584810000000004 100.24209287000001,44.14179000000001 94.39656287,45.72337 88.68244287,47.321270000000005 83.16415287,48.91544000000001 77.91977286999999,50.47908000000001 73.01467287,51.98723000000001 68.47087287,53.43165000000001 64.26132287,54.818960000000004 60.33944287,56.161170000000006 56.65668287,57.47128000000001 53.16882287,58.761880000000005 49.83734287,60.044140000000006 46.63825287,61.31969000000001 43.57543287,62.57757 40.67036287,63.80023000000001 37.94756287,64.96918000000001 35.42371287,66.06999 33.103072870000005,67.09472000000001 30.978552869999998,68.04172 29.035612869999998,68.91392 27.256232869999998,69.71686000000001 25.62651287,70.46625 24.14066287,71.19760000000001 22.787882869999997,71.93971 21.55322287,72.70925000000001 20.40660287,73.48901000000001 19.31891287,74.25328 18.26850287,74.98179 17.23883287,75.65824 16.21702287,76.26937000000001 15.19607287,76.80941000000001 14.195452869999999,77.31477000000001 13.24210787,77.83661000000001 12.357097869999999,78.41897 11.540440870000001,79.07201 10.77232587,79.76837 10.036006870000001,80.47919 9.327223870000001,81.18965 8.654574870000001,81.90466 8.02542587,82.63086000000001 7.4446908700000005,83.37422000000001 6.91212087,84.13518 6.4260978699999995,84.911809 5.98539187,85.70196800000001 5.58901687,86.50328300000001 5.23662487,87.31267600000001 4.92835507,88.12678600000001 4.66412957,88.94297300000001 4.44375727,89.75928300000001 4.26706937,90.57435000000001 4.1340304,91.38730600000001 4.04483495,92.19771300000001 4.0,93.005508 4.00046215,93.81096620000001 4.04769243,94.61469380000001 4.14353759,95.4176209 4.28833827,96.22077200000001 4.48207387,97.02487900000001 4.72529347,97.83030000000001 5.01905407,98.63697800000001 5.36485887,99.444353 5.76458087,100.251236 6.220355870000001,101.055637 6.734408869999999,101.85452400000001 7.30878287,102.64353600000001 7.944725869999999,103.417681 8.64144487,104.176726 9.397055869999999,104.92313000000001 10.20912787,105.66044000000001 11.07624687,106.39179000000001 12.00265187,107.11438000000001 12.994912869999999,107.82323000000001 14.059398869999999,108.51505 15.19919287,109.19278 16.41661287,109.86078 17.71632287,110.52221 19.104862869999998,111.18022 20.59110287,111.83794 22.185972869999997,112.4992 23.90202287,113.16929 25.753652869999996,113.85570000000001 27.75797287,114.56783000000001 29.93695287,115.31455000000001 32.31360287,116.10576 34.91017287,116.94719 37.74685287,117.84005 40.83783287,118.78288 44.18745287,119.77074 47.78813287,120.79529000000001 51.623442870000005,121.84629000000001 55.67862287,122.91489000000001 59.95708287,123.99778 64.48042287,125.09633000000001 69.27186286999999,126.21203000000001 74.35082286999999,127.34542 79.72709286999999,128.49528 85.39222287,129.65749 91.31638287,130.82496 97.45582286999999,131.99 103.75941287,133.14602000000002 110.17625287,134.28818 116.66525286999999,135.40791000000002 123.20115287,136.49532 129.77805286999998,137.54389 136.41015287,138.55121 143.11945287,139.52311 149.91535287000002,140.46667000000002 156.79045287000002,141.38699000000003 163.71925287000002,142.28537 170.67545287000002,143.15776 177.64495287000003,144.00103000000001 184.62745287,144.81392 191.63215287000003,145.59786000000003 198.66555287000003,146.35528 205.72805287000003,147.08795 212.81365287000003,147.79679000000002 219.91475287000003,148.48139 227.02725287,149.14145000000002 234.15015287000003,149.77707 241.28545287,150.38885000000002 248.43425287000002,150.97758 255.59525287,151.54388 262.76565287,152.08813 269.94225286999995,152.61012 277.12405286999996,153.1097 284.31235287,153.58687 291.50935287,154.04211 298.71625287,154.47619 305.93215287,154.88973000000001 313.15425287,155.28312 320.38025287,155.65622000000002 327.60925287,156.00891000000001 334.84265287,156.34118 342.08225287,156.65344 349.32835287,156.94621 356.57875286999996,157.21998000000002 363.82945286999995,157.47481 371.07765287,157.71011000000001 378.32375286999996,157.92531000000002 385.57135287,158.12004000000002 392.82445286999996,158.29484000000002 400.08395286999996,158.45055000000002 407.34665287,158.58793 414.60655287,158.70699000000002 421.85985287,158.80677000000003 429.10685287,158.88633 436.35175287,158.94501000000002 443.59925287,158.9832 450.85065287,159.00157000000002 458.10335287,159.00074 465.35265287,158.98074000000003 472.59605287,158.94108 479.83435287,158.88121 487.07125286999997,158.80075 494.30855286999997,158.6998 501.54225286999997,158.57868000000002 508.76225287,158.4377 515.95895287,158.27596 523.13465287,158.09148 530.30565287,157.88187 537.49805287,157.64655000000002 544.72085287,157.39012000000002 551.94885287,157.11916000000002 559.12305287,156.83997 566.18555287,156.54568 573.1265528700001,156.22277000000003 579.9816528700001,155.85682 586.8165528700001,155.43877 593.68235287,154.9727 600.59055287,154.46608 607.5106528700001,153.92887000000002 614.39035287,153.36282 621.20295287,152.76186 627.9552528700001,152.11758 634.68195287,151.42144000000002 641.42315287,150.67219 648.20645287,149.87082 655.04515287,149.0196 661.93925287,148.12209000000001 668.88405287,147.18234 675.87315287,146.20491 682.8989528700001,145.19459 689.9550528700001,144.1544 697.0407528700001,143.08578 704.1623528700001,141.98913 711.33115287,140.86503 718.5480528700001,139.71758 725.79265287,138.55473 733.02295287,137.38697000000002 740.19645287,136.21564 747.30465287,135.03249 754.37625287,133.8235 761.4684528700001,132.57613 768.6306528700001,131.29119 775.8806528700001,129.97673 783.1985528700001,128.6472 790.5418528700001,127.31208000000001 797.8810528700001,125.97367000000001 805.2088528700001,124.63028000000001 812.5364528700001,123.27940000000001 819.87535287,121.92232000000001 827.22855287,120.56229 834.59005287,119.20387000000001 841.9490528700001,117.85038 849.29605287,116.50411000000001 856.62445287,115.16690000000001 863.9290528700001,113.84083000000001 871.20545287,112.52848 878.4485528700001,111.23249000000001 885.6532528700001,109.95559 892.81385287,108.70108 899.9233528700001,107.47237000000001 906.9742528700001,106.27292 913.9580528700001,105.10683 920.86445287,103.97899100000001 927.68115287,102.894192 934.39495287,101.85704600000001 940.99145287,100.872781 947.4548528700001,99.946421 953.7691528700001,99.08210100000001 959.91875287,98.28370600000001 965.88305287,97.557703 971.63485287,96.910122 977.14635287,96.34457800000001 982.3951528700001,95.86196500000001 987.36625287,95.4631181 992.05245287,95.14887320000001 996.46325287,94.93233540000001 1000.6279528700001,94.81359622000001 1004.06325287,94.77854" stroke="black" stroke-width="2.0" /></svg>