<?xml version="1.0" encoding="utf-8" ?>
<svg baseProfile="full" height="138.47249" version="1.1" width="1011.98130226" xmlns="http://www.w3.org/2000/svg" xmlns:ev="http://www.w3.org/2001/xml-events" xmlns:xlink="http://www.w3.org/1999/xlink"><defs /><polygon fill="none" points="1003.98130226,90.02629 1000.6617022600001,89.4466292 996.46830226,88.641986 991.86800226,87.68567 986.86970226,86.590045 981.50830226,85.376457 975.85000226,84.07716400000001 969.9767022599999,82.734914 963.9675022600001,81.380863 957.8847022599999,80.03438200000001 951.75950226,78.70736000000001 945.58990226,77.40145 939.36520226,76.11086 933.08050226,74.83028 926.73790226,73.55565 920.34670226,72.28473 913.91870226,71.01749000000001 907.46450226,69.75384 900.99260226,68.49327 894.5096022600001,67.23475 888.02000226,65.97774000000001 881.52650226,64.72281000000001 875.03130226,63.47048000000001 868.53550226,62.22112 862.03970226,60.97495000000001 855.5435022600001,59.73201 849.04630226,58.49219 842.5479022600001,57.255430000000004 836.04840226,56.02173 829.54820226,54.79116 823.0484022600001,53.563860000000005 816.55010226,52.34013 810.05440226,51.120610000000006 803.56230226,49.90594 797.07410226,48.69671 790.59000226,47.49344000000001 784.1097022600001,46.29656 777.6328022600001,45.10647 771.15840226,43.92339 764.6859022599999,42.7475 758.21510226,41.579010000000004 751.74570226,40.41819 745.27790226,39.26533 738.81200226,38.120760000000004 732.3484022600001,36.98489 725.8879022599999,35.858430000000006 719.43120226,34.742250000000006 712.97900226,33.63721 706.53240226,32.54419 700.09220226,31.464070000000007 693.6595022600001,30.3977 687.2355022600001,29.346000000000004 680.82110226,28.310210000000005 674.41690226,27.29175 668.02330226,26.29195 661.64010226,25.31208000000001 655.26680226,24.353309999999993 648.90250226,23.41677 642.54600226,22.50352000000001 636.19580226,21.614239999999995 629.85040226,20.749079999999992 623.50830226,19.908140000000003 617.16780226,19.091520000000003 610.82710226,18.29934 604.48450226,17.531750000000002 598.13790226,16.78889000000001 591.7854022600001,16.070870000000014 585.42520226,15.37709000000001 579.05590226,14.706680000000006 572.67670226,14.05883 566.2873022599999,13.4328 559.88790226,12.8279 553.47920226,12.243459999999999 547.06260226,11.67886 540.63990226,11.133720000000011 534.21280226,10.608139999999992 527.78280226,10.102260000000015 521.35110226,9.616169999999997 514.9186022600001,9.149950000000004 508.48580226,8.70362 502.05300226,8.277190000000004 495.62000226,7.870660000000015 489.18660226000003,7.483999999999995 482.75260226,7.117229999999992 476.31780226,6.77037 469.88210226,6.44344000000001 463.44560226,6.136470000000003 457.00820226,5.849509999999995 450.57040226000004,5.582570000000004 444.13230226,5.335740000000001 437.69430226000003,5.109160000000003 431.25680226,4.903040000000004 424.82010226,4.717550000000003 418.38480226,4.552870000000013 411.95120226,4.409180000000006 405.51980226,4.2866499999999945 399.09110226,4.185459999999992 392.66550226,4.105850000000004 386.24350226,4.048169999999999 379.82520226,4.012770000000003 373.41090226000006,4.0 367.00030226,4.010190000000009 360.59350226,4.043710000000004 354.18990226,4.100890000000007 347.78930226,4.182079999999999 341.39130226,4.2875099999999975 334.99580226,4.417439999999999 328.60310226,4.572090000000003 322.21370226000005,4.751689999999996 315.82840226,4.956440000000001 309.44830226,5.186520000000002 303.07470226000004,5.442160000000015 296.70890226,5.723950000000002 290.35210226,6.032570000000007 284.00490226,6.368710000000007 277.66770226,6.733080000000001 271.34050226000005,7.126380000000012 265.02300226,7.549340000000015 258.71450226,8.002680000000012 252.41470226,8.487020000000001 246.12340226,9.002920000000003 239.84100226,9.550910000000002 233.56840226,10.131450000000015 227.30680226,10.744980000000012 221.05790226000002,11.391850000000005 214.82370226000003,12.072690000000009 208.60610226,12.788529999999994 202.40670226,13.540390000000002 196.22640226000001,14.329310000000007 190.06610226,15.156350000000003 183.92610226,16.022589999999994 177.80660226,16.929149999999993 171.70800226,17.877190000000013 165.63150226,18.86778000000001 159.57840226,19.90185000000001 153.55100226000002,20.980190000000007 147.55160226,22.10345000000001 141.58340226,23.272660000000002 135.65000226,24.489390000000014 129.75540226,25.755080000000007 123.90370226,27.070909999999998 118.09930226,28.43781 112.34660226,29.856600000000007 106.65030226,31.32857 101.01438226,32.855160000000005 95.44214226000001,34.437740000000005 89.93605226,36.07763 84.49836226000001,37.77638 79.13675226000001,39.535830000000004 73.86881226000001,41.354440000000004 68.72000226,43.226220000000005 63.72021226,45.141040000000004 58.89924226,47.086980000000004 54.27564226,49.05628 49.85126226,51.046330000000005 45.616862260000005,53.05849 41.55764226,55.09704 37.67665226,57.16077 34.026442259999996,59.22027 30.67746226,61.22534 27.674962259999997,63.12903 25.02302226,64.90517 22.689612259999997,66.55755 20.62110226,68.10797 18.76638226,69.58037 17.08425226,70.99569 15.543112260000001,72.3713 14.118672259999999,73.72181 12.796160259999999,75.05474000000001 11.575573259999999,76.36231000000001 10.46286626,77.6275 9.461339259999999,78.83296 8.56797526,79.96704 7.77415426,81.025504 7.06872026,82.009916 6.4475032599999995,82.925751 5.90861426,83.782652 5.44644726,84.591496 5.05499726,85.362164 4.72918156,86.103128 4.46521586,86.82162100000001 4.26066856,87.52395800000001 4.11446666,88.215875 4.02694892,88.90285 4.0,89.5904332 4.03459115,90.28331800000001 4.12875086,90.9839433 4.28175936,91.69407700000001 4.4943972599999995,92.415028 4.76881436,93.14753900000001 5.10846626,93.891536 5.518036260000001,94.64563 6.003199260000001,95.406263 6.56997826,96.166335 7.225181259999999,96.918824 7.977977259999999,97.66276500000001 8.83835526,98.398364 9.81659926,99.12676 10.92266926,99.850669 12.165155259999999,100.5754 13.54967126,101.31046 15.07656226,102.07194 16.74592226,102.8783 18.57353226,103.73386 20.57844226,104.63806 22.778902260000002,105.58721 25.19217226,106.57403 27.83694226,107.58827000000001 30.740932259999997,108.61982 33.940032259999995,109.66555 37.46942226,110.72527 41.358692260000005,111.79861 45.621962260000004,112.88516 50.24391226,113.98393 55.17964226,115.08160000000001 60.36283226,116.1559 65.72081226,117.18816000000001 71.20033226000001,118.16817 76.78494226000001,119.09507 82.47628226000002,119.9715 88.27352226000001,120.80008000000001 94.17099226,121.58335 100.15706226,122.32384 106.21490226,123.02302 112.32780226,123.68073000000001 118.48220226000001,124.29741000000001 124.66780226,124.87436 130.87850226,125.41355 137.11270226000002,125.91729000000001 143.37060226,126.38729000000001 149.65200226,126.82506000000001 155.95630226,127.23207000000001 162.28180226,127.6098 168.62630226000002,127.95978 174.98700226000003,128.28323 181.36120226000003,128.58085 187.74680226,128.85331 194.14220226,129.10135 200.54680226000002,129.32576 206.96000226,129.52737000000002 213.38230226000002,129.70703 219.81430226,129.86558 226.25610226,130.00383 232.70780226,130.12263000000002 239.16900226,130.2228 245.63890226,130.30516 252.11630226,130.37058000000002 258.60000226,130.41972 265.08850226,130.45289 271.58100226,130.47038 278.07660226,130.47249 284.57490226,130.45952 291.07570226,130.43176 297.57940226,130.38954 304.08620226,130.33315 310.59670226,130.26297 317.11100226,130.17936 323.62940226,130.08269 330.15170226000004,129.97333 336.67760226,129.85167 343.20660226,129.71809000000002 349.73790226000006,129.57297 356.27080226,129.41651000000002 362.80470226,129.24880000000002 369.33900226000003,129.06991 375.87350226,128.87994 382.40830226,128.67897 388.94330226000005,128.46706 395.47890226,128.24428 402.01560226000004,128.01071000000002 408.55390226000003,127.76648 415.09400226,127.51176000000001 421.63600226,127.24671000000001 428.17960225999997,126.97151 434.72440226,126.68635 441.26970226000003,126.39144 447.81460226,126.087 454.35780226,125.77314 460.89840226,125.4496 467.43530225999996,125.11606 473.96810225999997,124.77219000000001 480.49640226,124.41766 487.02020226,124.0521 493.53960226,123.67517000000001 500.05520226000004,123.28647000000001 506.56760226000006,122.8857 513.07770226,122.47285 519.58630226,122.04792 526.09420226,121.61092000000001 532.6020022600001,121.16186 539.11050226,120.70074 545.62030226,120.22756 552.13220226,119.74231 558.64670226,119.24510000000001 565.16460226,118.73642000000001 571.68650226,118.21684 578.2131022599999,117.68693 584.7451022600001,117.14724000000001 591.28310226,116.59833 597.8278022600001,116.04078000000001 604.37990226,115.47515 610.94010226,114.90204 617.50880226,114.32219 624.08640226,113.7364 630.67250226,113.14552 637.26680226,112.5504 643.86830226,111.95199 650.47590226,111.35123 657.08780226,110.74912 663.70230226,110.14656 670.31740226,109.54412 676.93140226,108.94232 683.54310226,108.34163000000001 690.15140226,107.74249 696.75580226,107.14533 703.3557022599999,106.55053000000001 709.9512022600001,105.95845 716.5424022599999,105.36948000000001 723.12940226,104.78405000000001 729.7125022600001,104.2026 736.29160226,103.62557000000001 742.8670022599999,103.05341 749.4385022600001,102.48656 756.00610226,101.92547 762.56980226,101.3706 769.12950226,100.82236 775.68520226,100.28121 782.2369022600001,99.74754300000001 788.78500226,99.221785 795.32960226,98.704336 801.87110226,98.19559100000001 808.4099022600001,97.695924 814.94640226,97.20562100000001 821.48080226,96.72495500000001 828.01310226,96.254216 834.54290226,95.793705 841.0699022599999,95.34373500000001 847.59350226,94.904632 854.11270226,94.476861 860.6270022599999,94.061096 867.13570226,93.65801400000001 873.63820226,93.268275 880.13420226,92.892525 886.62340226,92.531395 893.10560226,92.185574 899.58030226,91.855869 906.04660226,91.543104 912.50330226,91.24810500000001 918.94890226,90.9716921 925.38120226,90.71469090000001 931.79740226,90.4780116 938.19280226,90.26258920000001 944.5612022600001,90.06932645 950.89520226,89.8990726 957.1831022599999,89.7534304 963.39810226,89.6351728 969.4966022599999,89.54673720000001 975.42540226,89.4898773 981.12640226,89.47072010000001 986.53900226,89.4969927 991.61410226,89.5714552 996.3159022599999,89.6931155 1000.60580226,89.8571424 1003.98130226,90.02629" stroke="black" stroke-width="2.0" /></svg>