<?xml version="1.0" encoding="utf-8" ?>
<svg baseProfile="full" height="101.00999999999999" version="1.1" width="1011.95941358" xmlns="http://www.w3.org/2000/svg" xmlns:ev="http://www.w3.org/2001/xml-events" xmlns:xlink="http://www.w3.org/1999/xlink"><defs /><polygon fill="none" points="1003.95941358,69.14591999999999 999.7102135800001,69.08936069999999 994.3839135800001,68.9186539 988.8749135800001,68.66218829999998 983.4451135800001,68.36059799999998 978.00651358,68.018729 972.39791358,67.631181 966.79551358,67.21452199999999 961.22321358,66.77497899999999 955.6147135800001,66.31132499999998 949.9569135800001,65.826055 944.3193135800001,65.32809899999998 938.6960135800001,64.81828499999999 933.06731358,64.295932 927.42271358,63.76105599999999 921.76101358,63.214505999999986 916.0993135800001,62.65871499999999 910.44321358,62.094731999999986 904.7875135800001,61.52249599999999 899.12881358,60.94211399999999 893.4661135800001,60.35393699999999 887.80591358,59.75909999999999 882.1491135800001,59.15817999999999 876.4940135800001,58.55149999999999 870.83901358,57.93940999999999 865.1833135800001,57.322299999999984 859.5263135800001,56.70061999999999 853.86811358,56.07485999999999 848.2089135800001,55.44548999999999 842.54941358,54.81283999999999 836.89041358,54.17720999999999 831.23171358,53.53881999999999 825.57311358,52.89788999999999 819.91501358,52.25466999999999 814.25751358,51.60940999999999 808.6004135800001,50.96231999999999 802.94371358,50.31360999999999 797.2870135800001,49.66348999999999 791.6304135800001,49.01214999999999 785.9738135800001,48.35982999999999 780.31701358,47.70672999999999 774.66001358,47.05306999999999 769.00291358,46.39908999999999 763.34581358,45.74491999999999 757.6887135800001,45.09052999999999 752.0317135800001,44.43584999999999 746.3746135800001,43.78081999999999 740.71761358,43.12537999999999 735.0608135800001,42.469459999999984 729.4041135800001,41.81299999999999 723.74751358,41.15593999999999 718.0911135800001,40.49826999999999 712.4347135800001,39.84015999999999 706.7785135800001,39.18182999999999 701.12221358,38.52350999999999 695.46601358,37.86540999999998 689.8097135800001,37.20776999999999 684.15331358,36.55079999999999 678.4969135800001,35.894719999999985 672.84041358,35.239769999999986 667.18371358,34.586159999999985 661.5270135800001,33.93407999999999 655.87021358,33.28373999999999 650.2133135800001,32.63533999999999 644.55621358,31.989079999999987 638.8990135800001,31.345149999999983 633.24151358,30.70375999999999 627.5839135800001,30.065099999999987 621.9260135800001,29.429379999999988 616.26781358,28.796719999999986 610.60931358,28.167229999999982 604.95051358,27.541009999999986 599.29141358,26.91816999999999 593.6319135800001,26.298799999999986 587.97211358,25.68300999999999 582.3119135800001,25.070899999999988 576.65141358,24.46257999999999 570.9905135800001,23.85813999999999 565.3292135800001,23.257759999999983 559.6675135800001,22.66165999999999 554.0055135800001,22.07003999999999 548.34301358,21.48312999999999 542.6802135800001,20.90113999999999 537.01691358,20.324279999999987 531.3532135800001,19.752759999999995 525.68911358,19.186809999999987 520.0245135800001,18.626639999999988 514.3594135799999,18.072489999999988 508.69391357999996,17.524649999999987 503.02781358,16.98337999999999 497.36121357999997,16.44896999999999 491.69411358,15.921679999999988 486.02651358,15.401789999999991 480.35821358,14.889579999999988 474.68941357999995,14.385319999999993 469.01991358,13.889279999999985 463.34981358,13.401729999999993 457.67911358,12.922889999999988 452.00771358,12.453009999999992 446.33561358,11.992329999999988 440.66291358,11.54106999999999 434.98951358,11.099489999999989 429.31541358,10.667819999999985 423.64081358,10.246289999999988 417.96541357999996,9.835159999999988 412.28951357999995,9.434749999999987 406.61301358,9.045459999999991 400.93591358,8.66767999999999 395.25821358,8.30178999999999 389.57991358,7.9481799999999865 383.90101358,7.607249999999986 378.22151357999996,7.279369999999993 372.54151358,6.9649499999999875 366.86081357999996,6.664339999999996 361.17951358,6.3778799999999904 355.49761358,6.105859999999993 349.81511358,5.848579999999984 344.13211358,5.606349999999992 338.44861357999997,5.379479999999987 332.76461358,5.168269999999993 327.08021357999996,4.973019999999991 321.39541357999997,4.794049999999984 315.71031358,4.631799999999984 310.02501358,4.486799999999988 304.33951357999996,4.359589999999983 298.65391358,4.250709999999984 292.96831358000003,4.160689999999988 287.28261358,4.090069999999997 281.59701357999995,4.039369999999991 275.91141358000004,4.009139999999988 270.22591358,4.0 264.54061358,4.012629999999987 258.85561358,4.047699999999992 253.17101358,4.105889999999988 247.48701358,4.187889999999996 241.80381358,4.294349999999994 236.12161358,4.425969999999992 230.44061358,4.583529999999996 224.76111357999997,4.768289999999979 219.08331358,4.981549999999999 213.40761358,5.224659999999986 207.73391357999998,5.498929999999987 202.06251358,5.805699999999987 196.39341358,6.146299999999982 190.72661358,6.522049999999993 185.06221358,6.934139999999985 179.40071357999997,7.383729999999986 173.74251357999998,7.871959999999987 168.08841357999998,8.399959999999986 162.43921358,8.968799999999987 156.79601357999996,9.57956999999999 151.16011357999997,10.233959999999989 145.53251358,10.934359999999991 139.91371357999998,11.683269999999986 134.30351358,12.483299999999986 128.70131358,13.337139999999991 123.10571358,14.247669999999985 117.51561358,15.217809999999986 111.93221358,16.250179999999986 106.35871358,17.346949999999993 100.80116358000001,18.50963999999999 95.26786358,19.738969999999988 89.76877358,21.036099999999983 84.30964358,22.405749999999983 78.88671358,23.85539999999999 73.48678358000001,25.395629999999983 68.08739358000001,27.041149999999988 62.68961358000001,28.80247999999999 57.370593580000005,30.665049999999987 52.09672358,32.65027999999999 46.86398358,34.77136999999998 41.86623358000001,36.958159999999985 37.08758358,39.22448999999999 32.36676358,41.663079999999994 27.56792358,44.38339999999999 23.26949358,47.07203999999999 19.16849358,49.91194999999999 15.120953579999998,53.05052999999999 12.14351858,55.71775999999999 9.51107758,58.54238999999999 6.88131458,62.175994999999986 5.34857858,65.09981499999998 4.27645368,68.272725 4.0,69.39600079999998 4.09595358,70.04686339999999 4.41089178,71.04947899999999 5.2208315800000005,72.95990099999999 7.87931458,75.34679599999998 12.35041458,77.68214799999998 17.475953580000002,79.541688 22.80377358,81.03487999999999 28.240733579999997,82.26595999999999 33.73312358,83.33254 39.29585358,84.25689999999999 44.89149358,85.07292999999999 50.490533580000005,85.79606999999999 56.11833358,86.42871 61.752243580000005,87.00976999999999 67.39823358000001,87.53200999999999 73.05463358,88.00008999999999 78.71670358,88.43215 84.38312358,88.83059999999999 90.05101358,89.20197999999999 95.70924358,89.52262999999999 101.37521358,89.82648999999999 107.05041358000001,90.10019999999999 112.72841358000001,90.36505999999999 118.40311358,90.60314999999999 124.06641358,90.80478999999998 129.71201358,91.02231999999998 135.35611358,91.18466999999998 141.01721358,91.36307 146.69191358,91.5179 152.36971358,91.66982999999999 158.05151358,91.79952999999999 163.73851358,91.92812999999998 169.42581358,92.04419999999999 175.11581357999998,92.14957999999999 180.80681357999998,92.24681999999999 186.49971358,92.33878999999999 192.19181357999997,92.42730999999999 197.88051358,92.50766999999999 203.56801357999998,92.57423999999999 209.25841358,92.63036 214.95221358,92.68377999999998 220.64661357999998,92.73709 226.33981358,92.78799999999998 232.03141358,92.83410999999998 237.72201357999998,92.87315999999998 243.41281358,92.90351999999999 249.10491358,92.92689999999999 254.79841357999996,92.94599999999998 260.49281358,92.96262999999999 266.18751358000003,92.97787999999998 271.88161357999996,92.99202 277.57471358,93.00325 283.26691358,93.00952999999998 288.95861358,93.00999999999999 294.65061357999997,93.00451999999999 300.34341357999995,92.99382999999999 306.03731358,92.98065 311.73121358,92.96768999999999 317.42391358,92.95357999999999 323.11511357999996,92.93418999999999 328.80571358,92.90759999999999 334.49661358,92.87922999999999 340.18741358,92.85566999999999 345.87691357999995,92.83594 351.56481358,92.81094999999999 357.25261357999995,92.77297999999999 362.94201358,92.72565999999999 368.63361358,92.67711999999999 374.32641358,92.63224 380.01931358,92.58836 385.71191358,92.54182999999999 391.40451357999996,92.49112 397.09741357999997,92.43679999999999 402.79101357999997,92.37956 408.48521358,92.32045 414.17961357999997,92.26066999999999 419.87341358,92.20065 425.56601358,92.13844999999999 431.25781358,92.07172999999999 436.95001358,91.99999999999999 442.64321358,91.92557999999998 448.33721357999997,91.85087999999999 454.03081358,91.77575999999999 459.72341358,91.69819999999999 465.41541357999995,91.61633999999998 471.10711358,91.52973999999999 476.79901358,91.43854999999999 482.49151358,91.34316999999999 488.18461358,91.24484999999999 493.87821357999997,91.14498999999999 499.57211358,91.04444999999998 505.26581358000004,90.94321 510.95941358,90.84109999999998 516.65261358,90.73751999999999 522.3452135800001,90.63143999999998 528.03711358,90.52181999999999 533.72801358,90.40734999999998 539.41811358,90.28659999999999 545.10841358,90.15899999999999 550.79951358,90.02744999999999 556.4914135800001,89.89573999999999 562.1834135800001,89.76570999999998 567.87501358,89.63520999999999 573.56631358,89.50161999999999 579.25801358,89.36406999999998 584.9502135800001,89.22353999999999 590.64241358,89.08091999999999 596.33361358,88.93534 602.0238135800001,88.78499 607.71371358,88.62883999999998 613.40431358,88.46910999999999 619.0960135800001,88.30881999999998 624.78821358,88.14940999999999 630.48041358,87.98955999999998 636.1715135800001,87.82762 641.86101358,87.66125 647.5489135800001,87.48755999999999 653.2363135800001,87.30490999999999 658.92431358,87.11791999999998 664.61301358,86.93308999999999 670.3011135800001,86.75211999999999 675.98761358,86.56812999999998 681.67331358,86.37413999999998 687.35981358,86.17186999999998 693.04791358,85.96860999999998 698.73681358,85.76917999999999 704.4256135800001,85.57027 710.11391358,85.36712999999999 715.8019135800001,85.15777999999999 721.49021358,84.94282999999999 727.1790135800001,84.72317999999999 732.86851358,84.50034 738.55871358,84.27596999999999 744.24901358,84.05063999999999 749.9389135800001,83.82395 755.6271135800001,83.59461999999999 761.31261358,83.35870999999999 766.99661358,83.11246999999999 772.68111358,82.85991999999999 778.36661358,82.60961999999999 784.05211358,82.36376999999999 789.73661358,82.11491999999998 795.42141358,81.85704999999999 801.10781358,81.59234 806.7958135800001,81.32461999999998 812.48431358,81.05607999999998 818.1721135800001,80.78791999999999 823.8583135800001,80.51838999999998 829.5431135800001,80.24342999999999 835.22811358,79.96164999999999 840.9139135800001,79.67488999999999 846.6002135800001,79.38477199999998 852.28661358,79.09221299999999 857.97351358,78.797901 863.6603135800001,78.502298 869.34541358,78.204428 875.0290135800001,77.90116099999999 880.7134135800001,77.5919 886.3986135800001,77.27926199999999 892.08271358,76.96345799999999 897.7664135800001,76.64306199999999 903.45101358,76.32071699999999 909.1345135800001,75.99851699999999 914.81641358,75.67145199999999 920.49991358,75.33876099999999 926.18421358,75.005 931.86741358,74.66901699999998 937.55141358,74.33056099999999 943.2324135800001,73.99052899999998 948.90731358,73.6385 954.5819135800001,73.28673099999999 960.25921358,72.94232 965.94061358,72.58960199999999 971.61731358,72.229143 977.2845135800001,71.86084299999999 982.9412135800001,71.49896799999999 988.60401358,71.11718599999999 994.25571358,70.73968799999999 999.7858135800001,70.36310309999999 1003.95941358,70.08591999999999" stroke="black" stroke-width="2.0" /></svg>