<?xml version="1.0" encoding="utf-8" ?>
<svg baseProfile="full" height="192.00619" version="1.1" width="1011.998049827" xmlns="http://www.w3.org/2000/svg" xmlns:ev="http://www.w3.org/2001/xml-events" xmlns:xlink="http://www.w3.org/1999/xlink"><defs /><polygon fill="none" points="1003.998049827,127.8061 1000.5046498270001,126.760273 996.2591498270001,125.46003 991.788049827,124.05681 987.104549827,122.574785 982.2040498270001,121.066095 977.063849827,119.56218799999999 971.6627498270001,118.057146 965.9837498270001,116.54096 960.018049827,115.00280000000001 953.7673498270001,113.43386 947.2463498270001,111.82674 940.487349827,110.17461 933.5368498270001,108.47991 926.440949827,106.75282 919.2359498270001,105.00133 911.946649827,103.23044 904.593749827,101.44402 897.194649827,99.64535000000001 889.7655498270001,97.83865 882.3243498270001,96.02899000000001 874.8897498270001,94.21988 867.474349827,92.40961999999999 860.0785498270001,90.59358 852.6931498270001,88.77226999999999 845.307349827,86.95284 837.914449827,85.14184 830.511449827,83.33442 823.095049827,81.52037000000001 815.659849827,79.69223 808.1999498270001,77.85231999999999 800.7149498269999,76.00593 793.209749827,74.15687 785.6913498270001,72.30601 778.1668498270001,70.45412999999999 770.642049827,68.60294999999999 763.121249827,66.75429 755.606849827,64.90961999999999 748.100549827,63.0701 740.603049827,61.23682000000001 733.115049827,59.41068 725.637149827,57.59254 718.169749827,55.78322 710.7130498270001,53.98353 703.267149827,52.19418 695.8317498270001,50.41574 688.4069498270001,48.64871000000001 680.9942498270001,46.89383000000001 673.596149827,45.152429999999995 666.2142498270001,43.42618 658.8494498270001,41.71652 651.501749827,40.02468999999999 644.170849827,38.35177999999999 636.855549827,36.698660000000004 629.555749827,35.06595 622.2723498270001,33.45450000000001 615.007549827,31.865579999999994 607.7632498270001,30.300920000000005 600.5405498270001,28.762019999999993 593.340049827,27.250199999999992 586.1630498270001,25.766599999999997 579.0124498270001,24.313100000000006 571.8914498270001,22.89160000000001 564.802649827,21.5043 557.748049827,20.153299999999987 550.7297498270001,18.840400000000002 543.7515498270001,17.567999999999998 536.8186498270001,16.3386 529.9354498270001,15.156199999999998 523.103849827,14.024199999999993 516.3234498270001,12.945599999999999 509.5925498269999,11.923100000000005 502.908049827,10.959400000000002 496.265949827,10.056399999999996 489.660849827,9.215599999999995 483.085749827,8.438100000000006 476.532649827,7.724699999999999 469.99434982699995,7.074799999999996 463.46574982699997,6.488199999999992 456.94354982699997,5.965000000000003 450.423749827,5.505600000000001 443.899349827,5.110300000000009 437.360349827,4.778899999999993 430.797149827,4.509199999999993 424.20394982700003,4.298599999999993 417.578949827,4.1447 410.922649827,4.0458 404.236649827,4.0 397.52354982699995,4.005600000000001 390.78644982699996,4.061600000000013 384.028749827,4.167200000000008 377.25404982699996,4.321399999999997 370.46574982699997,4.524000000000001 363.666449827,4.774599999999992 356.858149827,5.072900000000004 350.042949827,5.418400000000005 343.222949827,5.810699999999997 336.401349827,6.249499999999998 329.580449827,6.7346 322.762549827,7.266199999999998 315.948649827,7.844300000000004 309.139949827,8.46889999999999 302.337249827,9.140100000000004 295.541649827,9.857700000000008 288.754049827,10.621799999999993 281.976149827,11.432000000000002 275.20944982699996,12.288399999999996 268.455949827,13.190799999999996 261.71754982699997,14.139300000000006 254.99624982699999,15.133899999999997 248.293749827,16.174899999999994 241.611149827,17.262599999999992 234.94904982699998,18.3973 228.30874982699999,19.579099999999997 221.692349827,20.807600000000008 215.102949827,22.0826 208.543449827,23.4045 202.015949827,24.7735 195.522349827,26.189999999999998 189.06424982699997,27.6541 182.64404982699998,29.16574 176.26414982699998,30.724940000000004 169.927949827,32.331320000000005 163.63974982699997,33.98419000000001 157.404649827,35.68266999999999 151.228349827,37.42626 145.115649827,39.21449 139.071349827,41.04679 133.100349827,42.92214000000001 127.209049827,44.83875999999999 121.405249827,46.79409000000001 115.69764982699999,48.78536 110.09634982700001,50.80964 104.61134982700001,52.86326000000001 99.252529827,54.94198 94.029739827,57.04136 88.95262982700001,59.15639 84.029799827,61.28157 79.268829827,63.4113 74.678939827,65.53980000000001 70.270789827,67.6597 66.05417982700001,69.76265000000001 62.036369827,71.84021999999999 58.221439827000005,73.88523 54.609829827000006,75.89214 51.198299827,77.85685000000001 47.981759827000005,79.77682 44.953769827,81.65026 42.106389827,83.47593 39.431089827,85.25313 36.919249827,86.98133 34.561919827,88.66036 32.349969826999995,90.29055 30.275159827,91.87346 28.329579827,93.41120000000001 26.505139827,94.90581 24.793819827,96.35933 23.187809827,97.77379 21.680359827,99.15126000000001 20.265679827,100.4937 18.938229827,101.80291 17.692649826999997,103.08051 16.523839827,104.32802000000001 15.426929827,105.54686000000001 14.397469826999998,106.73831 13.431382827,107.90359 12.524742826999999,109.04393 11.673851827,110.16051999999999 10.875289827,111.25441000000001 10.125987827,112.32636 9.423131827,113.37701 8.764120827,114.40697 8.146528827000001,115.41677 7.568297827,116.40703 7.029831827,117.37929 6.5326518270000005,118.335561 6.077761827,119.277676 5.665815827,120.207223 5.297879827,121.125192 4.974962227,122.032686 4.697768527,122.931095 4.467384427,123.820226 4.284821227,124.697051 4.148878527,125.558146 4.057256257,126.403597 4.007960446,127.2366378 4.0,128.0629047 4.033831517,128.88933300000002 4.111456127,129.72108500000002 4.236162927,130.560614 4.411947727,131.40732 4.642882427,132.25687 4.934231527,133.102476 5.292129827,133.938725 5.720653827,134.760327 6.223346827,135.560982 6.800035827,136.337318 7.446373827,137.089434 8.157200827,137.81749 8.928379827,138.5229 9.758497827,139.20972 10.645784827,139.88283 11.587400827,140.54788 12.579286826999999,141.21118 13.620545826999999,141.87646 14.713349827,142.54541 15.859999827,143.22012 17.063019826999998,143.90282 18.325929826999996,144.594 19.652849826999997,145.29341 21.048249827,146.00077 22.517049827,146.71573 24.064679827,147.43786 25.697299827,148.16692 27.421839827,148.90331 29.245929827,149.64768 31.177829827,150.40087 33.226449826999996,151.16398 35.40135982699999,151.93838 37.713409827,152.72522 40.174489827,153.52548000000002 42.797009827000004,154.34039 45.593679827,155.17151 48.577989827,156.01933 51.764259827000004,156.88318 55.16751982700001,157.76235 58.803759827,158.65633 62.687559827,159.56434000000002 66.828549827,160.48491 71.22992982699999,161.41435 75.888919827,162.34749 80.798109827,163.27927 85.94908982700001,164.20576 91.336579827,165.12419 96.95379982700001,166.03151 102.788539827,166.92493000000002 108.823449827,167.80198000000001 115.03774982700001,168.65945 121.410349827,169.49438 127.921749827,170.30506 134.555749827,171.09033 141.297349827,171.84926000000002 148.132449827,172.58152 155.04814982699997,173.28692999999998 162.03334982699997,173.96537 169.078249827,174.6172 176.17504982699998,175.24272 183.316749827,175.84229 190.49774982699998,176.41648 197.712949827,176.96576 204.958149827,177.49066 212.22984982699998,177.99174 219.52514982699998,178.46945 226.841349827,178.92425 234.176649827,179.35667999999998 241.52954982699998,179.76727 248.899149827,180.15661 256.284549827,180.52543 263.683849827,180.87449 271.09354982699995,181.20436 278.510549827,181.51484 285.934449827,181.80563 293.366349827,182.07682 300.80724982699996,182.3291 308.255749827,182.5631 315.709549827,182.77898 323.167849827,182.97659 330.631749827,183.15594 338.10274982699997,183.31768 345.579349827,183.46263 353.05814982699997,183.59114 360.53614982700003,183.70260000000002 368.01374982699997,183.7964 375.493149827,183.87252 382.975049827,183.93143 390.457949827,183.97352 397.939949827,183.99858 405.420549827,184.00619 412.900649827,183.99613 420.381549827,183.96857 427.863449827,183.92374999999998 435.345649827,183.86183 442.82744982699995,183.78289 450.307649827,183.687 457.785449827,183.57402 465.260349827,183.44374 472.732449827,183.29599000000002 480.201349827,183.13072 487.666249827,182.94792 495.125749827,182.74739 502.579249827,182.52867 510.026949827,182.29133000000002 517.469549827,182.03521 524.906849827,181.7603 532.3378498270001,181.4666 539.7614498270001,181.15399 547.176549827,180.82240000000002 554.581649827,180.47165999999999 561.9744498270001,180.10167 569.351349827,179.71231 576.708349827,179.30286 584.043349827,178.87218000000001 591.3557498270001,178.41922 598.644449827,177.94338 605.906249827,177.44439 613.135849827,176.92149 620.328749827,176.37273 627.482749827,175.79596 634.597749827,175.18875 641.6759498270001,174.54840000000002 648.721349827,173.87206 655.739749827,173.15764000000001 662.7377498270001,172.40339 669.722649827,171.6075 676.701849827,170.76915 683.6809498270001,169.88802 690.663849827,168.96384 697.655449827,167.99591 704.6646498270001,166.98276 711.7043498270001,165.92309 718.7878498270001,164.81837000000002 725.923749827,163.67128 733.116249827,162.48527 740.3664498270001,161.26443 747.672949827,160.01345 755.0319498270001,158.73695 762.438149827,157.43935 769.884849827,156.12541 777.363049827,154.80056 784.8589498270001,153.47112 792.3548498270001,152.14401 799.8352498270001,150.82516 807.2913498270001,149.51911 814.720149827,148.22896 822.119849827,146.95718 829.488149827,145.70623 836.822849827,144.47856000000002 844.1224498270001,143.27647 851.385949827,142.10204 858.612749827,140.95718 865.801549827,139.84382 872.9503498270001,138.76393 880.057149827,137.719516 887.119649827,136.712517 894.134949827,135.744775 901.098549827,134.818198 908.003649827,133.934792 914.8421498270001,133.096864 921.605349827,132.306761 928.284349827,131.56649099999998 934.868149827,130.877796 941.3397498270001,130.242479 947.6772498270001,129.66232 953.8580498270001,129.14091000000002 959.8637498270001,128.6822286 965.6813498270001,128.28847580000001 971.301349827,127.9618314 976.712449827,127.7055426 981.901549827,127.5209922 986.857749827,127.4081309 991.5790498270001,127.3766506 996.0821498270001,127.4403765 1000.394049827,127.5992809 1003.998049827,127.8061" stroke="black" stroke-width="2.0" /></svg>