<?xml version="1.0" encoding="utf-8" ?>
<svg baseProfile="full" height="192.00308" version="1.1" width="1011.995245535" xmlns="http://www.w3.org/2000/svg" xmlns:ev="http://www.w3.org/2001/xml-events" xmlns:xlink="http://www.w3.org/1999/xlink"><defs /><polygon fill="none" points="1003.995245535,127.0043 1000.462145535,126.1151208 996.172845535,124.99713 991.644745535,123.771748 986.8699455349999,122.453387 981.833845535,121.08560800000001 976.522845535,119.697942 970.932045535,118.290081 965.060745535,116.85839 958.9117455349999,115.39732000000001 952.4932455349999,113.90002 945.826345535,112.3594 938.9482455350001,110.76979 931.906145535,109.13586000000001 924.742745535,107.46662 917.489245535,105.76849 910.166545535,104.04524 902.790845535,102.29943 895.373245535,100.53298000000001 887.923145535,98.74837 880.4492455349999,96.94824 872.9596455349999,95.13449 865.4593455349999,93.30766 857.948945535,91.46733 850.427145535,89.61361 842.8940455349999,87.74743000000001 835.352145535,85.87002 827.8030455349999,83.98186 820.245645535,82.08266 812.677245535,80.17229 805.096245535,78.25176 797.5045455349999,76.3227 789.904945535,74.38622000000001 782.298345535,72.44255000000001 774.683545535,70.49172 767.059145535,68.53435999999999 759.4258455349999,66.57167 751.785945535,64.60507 744.142545535,62.6361 736.499745535,60.66655999999999 728.8619455349999,58.69854000000001 721.233645535,56.73422000000001 713.618945535,54.77583 706.020745535,52.82546000000001 698.439745535,50.88468999999999 690.876345535,48.95459000000001 683.3323455350001,47.03635 675.810745535,45.13172 668.3142455349999,43.24296 660.8437455349999,41.372 653.399645535,39.52028 645.982545535,37.689130000000006 638.595145535,35.88020999999999 631.240345535,34.095780000000005 623.9215455350001,32.33829 616.6421455349999,30.61018 609.405245535,28.91413 602.2137455349999,27.25278 595.0707455349999,25.62870000000001 587.980545535,24.0449 580.948545535,22.504499999999993 573.981245535,21.011799999999994 567.082645535,19.571799999999996 560.2550455349999,18.18889999999999 553.497545535,16.867000000000004 546.805645535,15.609899999999996 540.170645535,14.420000000000002 533.582245535,13.298199999999994 527.031045535,12.244099999999989 520.5087455349999,11.25800000000001 514.008345535,10.339799999999997 507.5226455349999,9.4893 501.044645535,8.706500000000005 494.56664553499996,7.990800000000007 488.080145535,7.3416 481.575545535,6.757899999999992 475.042145535,6.238100000000003 468.471445535,5.778800000000004 461.85864553499994,5.377200000000002 455.202045535,5.0305000000000035 448.50254553499997,4.736500000000007 441.76344553499996,4.492999999999995 434.989745535,4.298400000000001 428.186145535,4.1524 421.355445535,4.054500000000004 414.498945535,4.003999999999991 407.61894553499997,4.0 400.719345535,4.041399999999996 393.80534553499996,4.127600000000001 386.881345535,4.258800000000008 379.949845535,4.434999999999988 373.01214553499995,4.656199999999998 366.069845535,4.9221 359.124745535,5.232700000000008 352.179145535,5.587900000000005 345.234245535,5.987700000000004 338.290445535,6.432400000000001 331.347845535,6.921599999999998 324.40744553499997,7.455199999999991 317.471245535,8.032700000000006 310.541245535,8.653900000000007 303.619245535,9.318999999999988 296.706245535,10.027999999999992 289.803545535,10.780800000000013 282.913045535,11.577299999999994 276.037145535,12.417500000000004 269.178245535,13.30149999999999 262.337345535,14.2299 255.514945535,15.203099999999992 248.711545535,16.22120000000001 241.928945535,17.283900000000003 235.169845535,18.39110000000001 228.436845535,19.543000000000006 221.731645535,20.739999999999995 215.055845535,21.982100000000003 208.411245535,23.26939999999999 201.80104553500001,24.601600000000005 195.229245535,25.97829999999999 188.699545535,27.399590000000003 182.21544553500001,28.865619999999993 175.77974553500002,30.376410000000007 169.395845535,31.931669999999997 163.068445535,33.53075 156.802845535,35.17273 150.605145535,36.856899999999996 144.481445535,38.58227000000001 138.43804553500001,40.347629999999995 132.481445535,42.151669999999996 126.619045535,43.99268000000001 120.857845535,45.86841 115.20604553499999,47.776399999999995 109.67234553499999,49.713530000000006 104.266445535,51.675839999999994 98.99786553499999,53.658800000000014 93.875885535,55.657889999999995 88.908955535,57.668310000000005 84.103995535,59.68497000000001 79.466465535,61.7029 75.002925535,63.71705 70.72096553499999,65.72118 66.627285535,67.70829 62.726365535,69.67143 59.020035535,71.60455 55.507175535,73.50315 52.183605535000005,75.36386999999999 49.043585535,77.18492 46.080555535,78.96539000000001 43.286855535,80.70474 40.654285535,82.40288 38.174805535,84.06013999999999 35.840175535,85.67698 33.642015535,87.25398 31.572295535,88.79219 29.623985535,90.29338 27.790115534999998,91.75927999999999 26.063795534999997,93.19153 24.438255535,94.59171 22.907055535,95.96132 21.464835535,97.30181 20.106825535,98.61454 18.828425535,99.90074 17.625165535,101.16156000000001 16.492765535,102.39808 15.427135535,103.61131 14.424365535,104.80199 13.480737535000001,105.97068 12.592723535000001,107.11798 11.757034534999999,108.2445 10.970754535000001,109.35086 10.231470535,110.43763 9.536934535,111.50536 8.885018535,112.55452 8.273697535,113.58558 7.7011095350000005,114.59902 7.167186535000001,115.59588 6.673407535,116.57779 6.220862535,117.546248 5.8102485349999995,118.502646 5.441950535,119.44776 5.1160395350000005,120.381993 4.832349935,121.306166 4.590618635,122.220711 4.390833935,123.123824 4.232878935,124.01203 4.115855735,124.883841 4.038523255,125.74093 4.0,126.5873212 4.000333984,127.4289108 4.041818545,128.271532 4.129109935,129.11836399999999 4.268133335,129.970038 4.465592035,130.82431 4.728514335,131.67515600000002 5.065119535,132.513464 5.480837535,133.332587 5.9737365350000005,134.128363 6.540498534999999,134.897062 7.1761365349999995,135.639329 7.874659534999999,136.357038 8.629888535,137.05241 9.439298534999999,137.7291 10.301378535,138.39169 11.213771535,139.04536 12.172911535,139.69609 13.176091535,140.3485 14.225115535,141.00293 15.322715535,141.65924 16.472085534999998,142.31745 17.676735535,142.97789 18.940235535,143.64119 20.266385534999998,144.30811 21.659175535,144.97955000000002 23.122755535,145.6566 24.661355535,146.34054 26.279845535,147.03235 27.984185534999998,147.73251 29.780865534999997,148.44162 31.676895534999996,149.16044 33.679965535,149.89 35.798555535,150.63157999999999 38.042435535,151.38607 40.422235535,152.15416 42.949165535000006,152.93665 45.634915535,153.73445 48.492005535000004,154.5478 51.533975535,155.37632 54.775425535000004,156.21967 58.232415535,157.07787 61.920665535,157.95123 65.852595535,158.83976 70.035445535,159.74162 74.47153553499999,160.65293 79.158595535,161.56948 84.09186553499998,162.48758 89.267925535,163.40452 94.683695535,164.31722 100.331585535,165.22237 106.199045535,166.11688 112.269545535,166.99761999999998 118.524145535,167.86131 124.943045535,168.70553 131.508145535,169.52867 138.202545535,170.32902 145.00964553500003,171.10542 151.914245535,171.85712 158.902745535,172.58328 165.963545535,173.28348 173.087345535,173.95772 180.26614553500002,174.60612 187.49294553500002,175.22906 194.761645535,175.82695 202.066845535,176.40013 209.403645535,176.94908 216.768145535,177.47408000000001 224.15744553500002,177.97543000000002 231.570145535,178.45359000000002 239.004545535,178.90933 246.45884553500002,179.34348 253.930145535,179.75661 261.415945535,180.149 268.913845535,180.52091000000001 276.422345535,180.87248 283.940645535,181.20378 291.46884553499996,181.515 299.00684553499997,181.80664000000002 306.554045535,182.07922 314.108445535,182.33308 321.669145535,182.56826 329.235945535,182.78484 336.80914553499997,182.98314 344.388145535,183.16361 351.971145535,183.32653 359.55674553499995,183.47181 367.144445535,183.59931 374.735045535,183.7091 382.328345535,183.80149 389.92294553499994,183.87675000000002 397.51714553499994,183.93475 405.11034553499996,183.9752 412.703045535,183.99793 420.295645535,184.00308 427.887645535,183.99084 435.477745535,183.96124 443.06484553499996,183.91418 450.647945535,183.84951 458.226145535,183.76703 465.79884553499994,183.66653 473.365145535,183.54772 480.92424553499995,183.4103 488.475045535,183.25394 496.01664553499995,183.07813 503.54884553499994,182.88223 511.0729455349999,182.66566 518.5901455349999,182.42837 526.0997455349999,182.17052999999999 533.5999455350001,181.89215000000002 541.0887455349999,181.59286 548.565045535,181.27224 556.0279455350001,180.93001 563.475645535,180.56599 570.9045455349999,180.18 578.311245535,179.77131 585.693645535,179.33896 593.050645535,178.88211 600.380145535,178.40030000000002 607.677545535,177.89328 614.937145535,177.35978 622.154745535,176.79744 629.329545535,176.20371 636.463145535,175.57581 643.559945535,174.91062 650.627045535,174.20510000000002 657.672845535,173.45751 664.705945535,172.66637 671.734545535,171.83038 678.7663455349999,170.94916999999998 685.807345535,170.02258 692.862645535,169.05043 699.939645535,168.03208 707.049545535,166.96616 714.207145535,165.85264 721.424245535,164.69431 728.7069455349999,163.49513000000002 736.055945535,162.25965 743.468945535,160.99285 750.941345535,159.70016 758.465645535,158.38641 766.032145535,157.05661 773.629045535,155.71642 781.242845535,154.37198 788.859445535,153.02962 796.465245535,151.69481 804.050845535,150.37177 811.611445535,149.06372 819.144445535,147.77308 826.6476455349999,146.50211000000002 834.118545535,145.25308 841.5552455349999,144.02818 848.956445535,142.82946 856.320945535,141.65883 863.6479455350001,140.51812999999999 870.936145535,139.40914 878.183945535,138.33350000000002 885.389045535,137.29288 892.548045535,136.288916 899.656445535,135.323299 906.708245535,134.397739 913.695945535,133.513842 920.6094455350001,132.673148 927.436345535,131.877206 934.161345535,131.12788899999998 940.764745535,130.427477 947.222745535,129.77812 953.511545535,129.18340899999998 959.610745535,128.647547 965.5050455349999,128.173004 971.183145535,127.7624948 976.634645535,127.420425 981.849945535,127.1491415 986.822645535,126.94931793 991.5551455350001,126.8305884 996.066945535,126.8062391 1000.386045535,126.8758985 1003.995245535,127.0043" stroke="black" stroke-width="2.0" /></svg>