<?xml version="1.0" encoding="utf-8" ?>
<svg baseProfile="full" height="132.42231999999998" version="1.1" width="1011.99750724" xmlns="http://www.w3.org/2000/svg" xmlns:ev="http://www.w3.org/2001/xml-events" xmlns:xlink="http://www.w3.org/1999/xlink"><defs /><polygon fill="none" points="1003.99750724,68.58639 1000.9479072400001,68.12730029999999 997.13440724,67.557997 992.95340724,66.939927 988.35470724,66.267449 983.3011072400001,65.53734499999999 977.79580724,64.752555 971.9195072399999,63.92670799999999 965.94560724,63.096472999999996 960.01790724,62.277384999999995 954.04420724,61.45206999999999 948.03510724,60.617276999999994 942.07590724,59.78157399999999 936.13000724,58.94048099999999 930.16860724,58.09105999999999 924.1780072399999,57.232499999999995 918.1603072400001,56.36614999999999 912.13130724,55.49486999999999 906.10450724,54.62092 900.07560724,53.74399 894.05190724,52.865449999999996 888.03420724,51.98585 882.01970724,51.105889999999995 876.00620724,50.22658 869.99330724,49.34913999999999 863.98160724,48.474959999999996 857.9727072400001,47.60547 851.96790724,46.741899999999994 845.96760724,45.885279999999995 839.97090724,45.03650999999999 833.97620724,44.19624999999999 827.9813072400001,43.364369999999994 821.98470724,42.54042 815.98530724,41.724019999999996 809.9825072399999,40.91488999999999 803.97650724,40.112809999999996 797.96770724,39.3176 791.95660724,38.529109999999996 785.9441072400001,37.74718999999999 779.93110724,36.971759999999996 773.91860724,36.20289999999999 767.90680724,35.440749999999994 761.8949072400001,34.68537 755.88150724,33.93670999999999 749.86430724,33.19445999999999 743.8413072400001,32.45757 737.8121072399999,31.724999999999994 731.7776072400001,30.99586999999999 725.74050724,30.269499999999994 719.70440724,29.546099999999996 713.67180724,28.82676 707.64350724,28.112409999999997 701.61860724,27.403789999999994 695.59440724,26.701249999999995 689.56810724,26.004169999999995 683.5379072400001,25.311739999999993 677.50360724,24.623319999999993 671.4661072399999,23.938399999999994 665.42750724,23.257029999999993 659.38990724,22.579879999999996 653.35450724,21.907569999999993 647.32180724,21.240639999999992 641.29200724,20.579569999999997 635.2645072400001,19.924749999999996 629.23880724,19.276519999999998 623.21410724,18.635239999999996 617.18960724,18.00123 611.16470724,17.374769999999998 605.13880724,16.755899999999997 599.11220724,16.144719999999992 593.08580724,15.541369999999993 587.06100724,14.946149999999996 581.03950724,14.359939999999995 575.02210724,13.783839999999998 569.0089072400001,13.218879999999992 562.99920724,12.665979999999998 556.99190724,12.12576 550.98600724,11.598579999999991 544.98080724,11.084789999999991 538.9761072399999,10.584799999999994 532.97180724,10.099039999999995 526.96840724,9.628039999999991 520.9662072399999,9.172359999999998 514.96570724,8.732549999999996 508.96700724,8.309169999999995 502.97070724,7.902779999999993 496.97690724,7.514029999999998 490.98550724,7.143579999999993 484.99590724,6.792079999999999 479.00750724,6.460119999999996 473.01930724,6.147939999999998 467.03070723999997,5.855619999999988 461.04140724,5.5832400000000035 455.05170724000004,5.330909999999989 449.06190724000004,5.098829999999992 443.07280724000003,4.887450000000001 437.08480724000003,4.697199999999995 431.09890724,4.5285399999999925 425.11550724,4.3818999999999875 419.13540724,4.257809999999992 413.15910724,4.156969999999987 407.18630724,4.080089999999998 401.21670724,4.027879999999996 395.24930724,4.001049999999992 389.28270724,4.0 383.31600724000003,4.024600000000007 377.34840724,4.07468999999999 371.37960724,4.150099999999995 365.40970724000005,4.2506799999999885 359.43920724000003,4.376239999999996 353.46830724000006,4.526609999999991 347.49720724,4.701579999999993 341.52610724000004,4.900959999999991 335.55500724,5.124439999999993 329.58360724,5.371580000000002 323.61140724,5.64199 317.63740724,5.935289999999995 311.66010724,6.251129999999989 305.67810724000003,6.588829999999994 299.69070724,6.947299999999991 293.69820724,7.325349999999993 287.70210724,7.7217099999999945 281.70490724,8.135149999999989 275.70940724,8.565539999999991 269.71780724,9.013199999999998 263.73050724,9.478539999999988 257.74720724,9.962039999999995 251.76650723999998,10.46412999999999 245.78710724,10.984859999999998 239.80860724,11.524229999999996 233.83170724,12.08211 227.85760724000002,12.658379999999994 221.88850724,13.253539999999994 215.92650724,13.868609999999997 209.97350724,14.504619999999996 204.03130724000002,15.162569999999995 198.10150724,15.843639999999994 192.18510724,16.549669999999992 186.28280724,17.282689999999995 180.39450724,18.044829999999997 174.51940724000002,18.838029999999996 168.65620724,19.663849999999996 162.80300724,20.523889999999994 156.95800724,21.419399999999996 151.12000724,22.350889999999993 145.29020724,23.31855999999999 139.46910724,24.322619999999993 133.65230724,25.364349999999995 127.82880724,26.444559999999996 121.99060724,27.560329999999993 116.13820724,28.70702999999999 110.27930724,29.880599999999994 104.42490724000001,31.076939999999993 98.58724724000001,32.29440999999999 92.77088724000001,33.535349999999994 86.97267724000001,34.80356 81.19665724,36.10058999999999 75.46421724000001,37.424659999999996 69.80177724,38.779759999999996 64.21859724,40.17649999999999 58.71010724,41.62737 53.28186724,43.14050999999999 47.95782723999999,44.718729999999994 42.769367239999994,46.36870999999999 37.73532724,48.10092999999999 32.86575724000001,49.92238999999999 28.202047240000002,51.816269999999996 23.842827240000002,53.727889999999995 19.919227239999998,55.58212999999999 16.579327239999998,57.289629999999995 13.864477239999998,58.78839099999999 11.685458239999999,60.08351199999999 9.91731624,61.214043999999994 8.471673240000001,62.246815 7.30994524,63.20294199999999 6.39017224,64.07377199999999 5.67367724,64.86042599999999 5.11671324,65.58199499999999 4.68857454,66.25597099999999 4.37032814,66.895714 4.15137364,67.51164 4.0274453,68.11251759999999 4.0,68.70658759999999 4.07126239,69.3023829 4.23783034,69.908164 4.50064374,70.53205 4.86645064,71.183021 5.34890724,71.871979 5.97106524,72.61282899999999 6.76847724,73.42237499999999 7.78306624,74.310651 9.04794124,75.26417 10.60055324,76.275562 12.487622239999999,77.384029 14.81272724,78.63647999999999 17.69385724,80.0525 21.18538724,81.61113999999999 25.21796724,83.24228 29.66630724,84.87782999999999 34.44211724,86.46598 39.49952724,87.99515 44.77265724,89.46688 50.18666724,90.87248 55.69833724,92.21554 61.29816724,93.50698 66.97554724,94.75577999999999 72.70727724000001,95.96717999999998 78.46843724000001,97.13967 84.24116724,98.27214 90.01703724000001,99.36296999999999 95.79846724000001,100.41078999999999 101.59595724,101.41722999999999 107.41420724000001,102.38606999999999 113.24550724000001,103.31868 119.08170724,104.21359999999999 124.92670724,105.07073 130.79260724,105.89423 136.68760724,106.69004999999999 142.61400724,107.46328 148.56750724,108.21825999999999 154.53760724000003,108.95850999999999 160.51230724,109.68432999999999 166.48840724,110.39478 172.47290724,111.09084999999999 178.47130724000002,111.77564 184.47950724,112.45140999999998 190.48680724,113.11701 196.48570724,113.76956 202.47380723999999,114.40675999999999 208.45400724,115.02702 214.43170723999998,115.63018 220.41060724,116.21645999999998 226.39200724,116.78585 232.37530723999998,117.33811 238.35730724,117.87256 244.33540724,118.38784999999999 250.30830724,118.88268 256.27650724,119.35591 262.24210724,119.80653999999998 268.20810724,120.23445 274.17700724,120.64021 280.15010724,121.02430999999999 286.12770724,121.38714999999999 292.10890724,121.72906 298.09220724,122.05014 304.07620724,122.35027 310.06070724,122.62939 316.04580724,122.88748 322.03260724,123.12465999999999 328.02180724,123.34125999999999 334.01370724,123.53761999999999 340.00790724,123.71405999999999 346.00370724,123.87086 352.00000724,124.00808999999998 357.99630724,124.12568999999999 363.99250724,124.22362 369.98910723999995,124.30183 375.98710724,124.36037999999999 381.98750724,124.39968999999999 387.99050724,124.42018999999999 393.99600724000004,124.42231999999998 400.00290724,124.40655 406.01030724000003,124.37308999999999 412.01720724,124.32198 418.02360724,124.25319999999999 424.03020724,124.16675999999998 430.03840724,124.06271999999998 436.04970724,123.94164 442.06470724,123.80426999999999 448.08350723999996,123.65136999999999 454.10500724,123.48372 460.12760724,123.30186 466.15000724000004,123.10580999999999 472.17120724000006,122.89555999999999 478.19120724,122.67106 484.21050724,122.43225999999999 490.22970724,122.17911 496.24910724,121.91163 502.26790724,121.62984 508.28480724,121.33384 514.29790724,121.02349 520.3056072400001,120.69800999999998 526.30710724,120.35645 532.3029072400001,119.99783 538.29430724,119.62115 544.2835072400001,119.22612 550.27240724,118.81298 556.26250724,118.38195999999999 562.25480724,117.93332999999998 568.25030724,117.46749 574.24960724,116.98549 580.25370724,116.48857999999998 586.26360724,115.97798999999999 592.28070724,115.45490999999998 598.30620724,114.92075 604.3410072400001,114.37727999999998 610.38470724,113.82641 616.43600724,113.27015 622.49260724,112.71055 628.55160724,112.14909 634.61110724,111.58686 640.67040724,111.02484999999999 646.72980724,110.46395 652.79040724,109.90459999999999 658.8532072400001,109.34648999999999 664.9180072400001,108.78932999999999 670.98380724,108.23289 677.04890724,107.67701 683.11060724,107.12093999999999 689.1671072400001,106.56352999999999 695.21700724,106.00353 701.25970724,105.43965 707.2952072400001,104.8706 713.32390724,104.29512 719.34610724,103.71199999999999 725.36210724,103.12002999999999 731.3722072400001,102.518 737.37690724,101.90505999999999 743.37680724,101.28062 749.3731072400001,100.64406 755.36730724,99.99474 761.36140724,99.33212999999999 767.3573072400001,98.65671999999999 773.35660724,97.96934999999999 779.36030724,97.27089 785.36870724,96.56228999999999 791.38190724,95.84455 797.39960724,95.11871 803.42140724,94.38582 809.44690724,93.64694 815.4756072399999,92.90315 821.50690724,92.15571 827.54050724,91.40601 833.57620724,90.65541999999999 839.61420724,89.90529 845.65450724,89.15651 851.69710724,88.40893 857.74170724,87.66226999999999 863.78740724,86.91632 869.8333072400001,86.17092 875.8782072399999,85.42608 881.92200724,84.68187999999999 887.96520724,83.93827999999999 894.0096072399999,83.19511999999999 900.05680724,82.4519 906.10300724,81.70814 912.14880724,80.96266999999999 918.1921072399999,80.21472 924.2177072400001,79.46508999999999 930.21530724,78.71418999999999 936.18570724,77.961207 942.14270724,77.203645 948.11360724,76.437247 954.1314072399999,75.656652 960.11540724,74.870165 966.06070724,74.076066 972.05140724,73.260549 977.89620724,72.44757 983.3692072399999,71.66930099999999 988.39620724,70.939809 992.9759072400001,70.263021 997.1444072400001,69.636845 1000.95080724,69.05662439999999 1003.99750724,68.58639" stroke="black" stroke-width="2.0" /></svg>