<?xml version="1.0" encoding="utf-8" ?>
<svg baseProfile="full" height="111.98982" version="1.1" width="1011.991799608" xmlns="http://www.w3.org/2000/svg" xmlns:ev="http://www.w3.org/2001/xml-events" xmlns:xlink="http://www.w3.org/1999/xlink"><defs /><polygon fill="none" points="1003.991799608,53.99491 1000.7998996079999,53.709515499999995 996.671599608,53.340302199999996 992.001799608,52.922543 986.803799608,52.457443 981.175399608,51.954102 975.2123996079999,51.421039 969.044999608,50.869634 962.781399608,50.30972 956.457399608,49.744426999999995 950.084899608,49.174279999999996 943.685999608,48.601547 937.273599608,48.028124 930.8528996079999,47.454252 924.4268996079999,46.879814999999994 917.9977996079999,46.304809 911.567299608,45.729517 905.1361996079999,45.15425 898.704899608,44.579223 892.2735996079999,44.00433699999999 885.8420996079999,43.42937 879.4107996079999,42.85415 872.979599608,42.27878 866.548799608,41.70354 860.1186996079999,41.12871 853.689699608,40.553889999999996 847.261099608,39.97851 840.8319996079999,39.40325 834.402299608,38.82843 827.971899608,38.25371 821.5409996079999,37.67876 815.1096996079999,37.10347 808.678199608,36.52808 802.2463996079999,35.95283 795.8144996079999,35.377829999999996 789.3825996079999,34.80289 782.9506996079999,34.227799999999995 776.5187996079999,33.652469999999994 770.0871996079999,33.077079999999995 763.6556996079998,32.50185999999999 757.224399608,31.9269 750.793699608,31.35195 744.3642996079999,30.777199999999997 737.936199608,30.203199999999995 731.508699608,29.63009 725.0819996079999,29.057889999999997 718.656599608,28.486709999999995 712.233199608,27.916869999999996 705.8120996079999,27.348679999999998 699.392999608,26.782409999999995 692.975499608,26.21822 686.5590996079999,25.65618 680.1437996079999,25.096429999999998 673.7296996079999,24.539129999999997 667.3171996079999,23.984479999999998 660.906399608,23.432699999999997 654.497699608,22.884079999999997 648.0901996079999,22.338889999999996 641.683299608,21.79705 635.277599608,21.258629999999997 628.873599608,20.72394 622.471599608,20.193259999999995 616.071299608,19.666799999999995 609.6722996079999,19.144689999999997 603.2745996079999,18.627110000000002 596.8782996079999,18.114239999999995 590.4837996079999,17.60635 584.0910996079999,17.103679999999997 577.7001996079999,16.60646 571.3108996079999,16.114910000000002 564.9230996079999,15.629219999999997 558.5362996079999,15.149559999999994 552.150699608,14.675989999999999 545.766999608,14.208699999999993 539.3854996079999,13.74814 533.006199608,13.29459 526.628599608,12.848299999999995 520.252599608,12.409469999999999 513.877799608,11.978279999999998 507.50419960799996,11.554889999999993 501.131999608,11.13944 494.761599608,10.732190000000003 488.393399608,10.33345 482.02769960800003,9.94355999999999 475.664499608,9.562819999999995 469.303799608,9.191569999999999 462.945199608,8.830089999999998 456.588199608,8.478609999999996 450.23309960800003,8.13718 443.881199608,7.806239999999995 437.532399608,7.486329999999995 431.186299608,7.177769999999995 424.84259960800006,6.880839999999999 418.501399608,6.595829999999992 412.162999608,6.323079999999997 405.827599608,6.062919999999998 399.494999608,5.815679999999993 393.16539960800003,5.581739999999996 386.839399608,5.361509999999996 380.518299608,5.1554199999999994 374.203899608,4.96416 367.895999608,4.788519999999991 361.592599608,4.629249999999999 355.291299608,4.486399999999996 348.99579960799997,4.359509999999993 342.711399608,4.250149999999998 336.434399608,4.159999999999997 330.16109960800003,4.089320000000001 323.894899608,4.038270000000004 317.64519960800004,4.007559999999998 311.419099608,4.0 305.213499608,4.018809999999995 299.015599608,4.066760000000002 292.80939960800004,4.143059999999991 286.586499608,4.2453 280.347999608,4.371069999999996 274.10149960800004,4.519069999999999 267.853499608,4.689009999999996 261.60719960800003,4.88062 255.36279960800002,5.094059999999992 249.118399608,5.329879999999996 242.872699608,5.587670000000003 236.627899608,5.86683 230.386999608,6.167579999999994 224.151199608,6.4903599999999955 217.920099608,6.835630000000002 211.692999608,7.203649999999996 205.469999608,7.594609999999996 199.252199608,8.008649999999996 193.041399608,8.446159999999999 186.838699608,8.907659999999993 180.644999608,9.393739999999994 174.46049960800002,9.905029999999996 168.286099608,10.442169999999997 162.122899608,11.005760000000002 155.972499608,11.59646 149.836299608,12.215169999999993 143.71559960800002,12.862809999999996 137.611999608,13.540329999999997 131.527399608,14.248889999999996 125.46389960799999,14.989649999999997 119.423799608,15.763730000000002 113.409799608,16.572599999999994 107.426399608,17.41767 101.479149608,18.300009999999993 95.57464960799999,19.220929999999996 89.719309608,20.182239999999993 83.92098960799999,21.18549 78.192159608,22.231359999999995 72.54826960799998,23.320279999999997 67.006269608,24.45235 61.590309608,25.626039999999996 56.331959608,26.837489999999995 51.265319608,28.080879999999997 46.430209608000006,29.347959999999997 41.879889608,30.623979999999996 37.661569608,31.891009999999998 33.801199608000005,33.13442 30.307779608,34.342349999999996 27.171829608000003,35.50653 24.372729608,36.62183 21.886999608,37.68428 19.681979608000002,38.69659 17.721919608,39.663289999999996 15.974469608,40.588409999999996 14.412909608,41.47794 13.013474608,42.3371 11.756310608,43.16894 10.626030608,43.979499999999994 9.608872608,44.772482999999994 8.693943608000001,45.551268 7.872819608,46.318957 7.139092608,47.078787999999996 6.4880926080000005,47.832885 5.915996608,48.581934 5.419322608,49.32881999999999 4.998863608,50.076060999999996 4.656188508,50.819554 4.389375408,51.550132 4.193685308,52.264326 4.064699178,52.963640999999996 4.0,53.6524673 4.0,54.3373527 4.064699178,55.026179 4.193685308,55.725494 4.389375408,56.439688 4.656188508,57.170266 4.998863608,57.913759 5.419322608,58.661 5.915996608,59.407886 6.4880926080000005,60.156935 7.139092608,60.911032 7.872819608,61.670863 8.693943608000001,62.438551999999994 9.608872608,63.217337 10.626030608,64.01032000000001 11.756310608,64.82087999999999 13.013474608,65.65271999999999 14.412909608,66.51187999999999 15.974469608,67.40141 17.721919608,68.32652999999999 19.681979608000002,69.29323 21.886999608,70.30554 24.372729608,71.36798999999999 27.171829608000003,72.48329 30.307779608,73.64747 33.801199608000005,74.8554 37.661569608,76.09881 41.879889608,77.36583999999999 46.430209608000006,78.64186 51.265319608,79.90894 56.331959608,81.15233 61.590309608,82.36377999999999 67.006269608,83.53747 72.54826960799998,84.66954 78.192159608,85.75846 83.92098960799999,86.80433 89.719309608,87.80758 95.57464960799999,88.76889 101.479149608,89.68981 107.426399608,90.57215 113.409799608,91.41722 119.423799608,92.22609 125.46389960799999,93.00017 131.527399608,93.74092999999999 137.611999608,94.44949 143.71559960800002,95.12701 149.836299608,95.77465000000001 155.972499608,96.39336 162.122899608,96.98406 168.286099608,97.54765 174.46049960800002,98.08479 180.644999608,98.59608 186.838699608,99.08216 193.041399608,99.54365999999999 199.252199608,99.98116999999999 205.469999608,100.39520999999999 211.692999608,100.78617 217.920099608,101.15419 224.151199608,101.49946 230.386999608,101.82224 236.627899608,102.12298999999999 242.872699608,102.40214999999999 249.118399608,102.65994 255.36279960800002,102.89576 261.60719960800003,103.10919999999999 267.853499608,103.30081 274.10149960800004,103.47075 280.347999608,103.61875 286.586499608,103.74452 292.80939960800004,103.84676 299.015599608,103.92305999999999 305.213499608,103.97101 311.419099608,103.98982 317.64519960800004,103.98226 323.894899608,103.95155 330.16109960800003,103.9005 336.434399608,103.82982 342.711399608,103.73966999999999 348.99579960799997,103.63031000000001 355.291299608,103.50342 361.592599608,103.36057 367.895999608,103.2013 374.203899608,103.02565999999999 380.518299608,102.83439999999999 386.839399608,102.62831 393.16539960800003,102.40808 399.494999608,102.17414 405.827599608,101.92689999999999 412.162999608,101.66674 418.501399608,101.39399 424.84259960800006,101.10898 431.186299608,100.81205 437.532399608,100.50349 443.881199608,100.18358 450.23309960800003,99.85264 456.588199608,99.51121 462.945199608,99.15973 469.303799608,98.79825 475.664499608,98.42699999999999 482.02769960800003,98.04626 488.393399608,97.65637 494.761599608,97.25762999999999 501.131999608,96.85038 507.50419960799996,96.43493000000001 513.877799608,96.01154 520.252599608,95.58035 526.628599608,95.14152 533.006199608,94.69523 539.3854996079999,94.24168 545.766999608,93.78112 552.150699608,93.31383 558.5362996079999,92.84026 564.9230996079999,92.3606 571.3108996079999,91.87491 577.7001996079999,91.38336 584.0910996079999,90.88614 590.4837996079999,90.38346999999999 596.8782996079999,89.87558 603.2745996079999,89.36270999999999 609.6722996079999,88.84513 616.071299608,88.32302 622.471599608,87.79656 628.873599608,87.26588 635.277599608,86.73119 641.683299608,86.19277 648.0901996079999,85.65093 654.497699608,85.10574 660.906399608,84.55712 667.3171996079999,84.00533999999999 673.7296996079999,83.45069 680.1437996079999,82.89339 686.5590996079999,82.33364 692.975499608,81.77159999999999 699.392999608,81.20741 705.8120996079999,80.64114 712.233199608,80.07294999999999 718.656599608,79.50310999999999 725.0819996079999,78.93193 731.508699608,78.35973 737.936199608,77.78662 744.3642996079999,77.21262 750.793699608,76.63786999999999 757.224399608,76.06291999999999 763.6556996079998,75.48796 770.0871996079999,74.91274 776.5187996079999,74.33735 782.9506996079999,73.76202 789.3825996079999,73.18692999999999 795.8144996079999,72.61198999999999 802.2463996079999,72.03699 808.678199608,71.46173999999999 815.1096996079999,70.88635 821.5409996079999,70.31106 827.971899608,69.73611 834.402299608,69.16139 840.8319996079999,68.58657 847.261099608,68.01131 853.689699608,67.43593 860.1186996079999,66.86111 866.548799608,66.28628 872.979599608,65.71104 879.4107996079999,65.13567 885.8420996079999,64.56045 892.2735996079999,63.985483 898.704899608,63.410596999999996 905.1361996079999,62.83557 911.567299608,62.26030299999999 917.9977996079999,61.685010999999996 924.4268996079999,61.110005 930.8528996079999,60.535568 937.273599608,59.961695999999996 943.685999608,59.388273 950.084899608,58.81554 956.457399608,58.245393 962.781399608,57.680099999999996 969.044999608,57.120186 975.2123996079999,56.568780999999994 981.175399608,56.035717999999996 986.803799608,55.532377 992.001799608,55.067277 996.671599608,54.6495178 1000.7998996079999,54.2803045 1003.991799608,53.99491" stroke="black" stroke-width="2.0" /></svg>