<?xml version="1.0" encoding="utf-8" ?>
<svg baseProfile="full" height="111.99992" version="1.1" width="1011.991085532" xmlns="http://www.w3.org/2000/svg" xmlns:ev="http://www.w3.org/2001/xml-events" xmlns:xlink="http://www.w3.org/1999/xlink"><defs /><polygon fill="none" points="1003.991085532,53.99996 1000.8296855320001,53.6978074 996.711785532,53.304407600000005 992.018785532,52.856331000000004 986.776085532,52.355948 981.112085532,51.814742 975.1383855320001,51.243905 968.9890855320001,50.656958 962.7684855320001,50.063239 956.5045855320001,49.465032 950.203185532,48.863202 943.8832855320001,48.259661 937.5561855320001,47.655377 931.2254855320001,47.050528 924.892885532,46.445166 918.5588855320001,45.839912 912.2234855320002,45.234919000000005 905.886985532,44.629973 899.5497855320001,44.024878 893.2118855320001,43.41962 886.873785532,42.814280000000004 880.5353855320001,42.208920000000006 874.196785532,41.60359 867.8580855320001,40.99825 861.519285532,40.39291 855.180485532,39.78755 848.841585532,39.18218 842.5026855320001,38.57682 836.163685532,37.971450000000004 829.8247855320001,37.36608 823.485785532,36.76071 817.146885532,36.15534 810.8080855320001,35.549980000000005 804.4692855320001,34.944630000000004 798.1303855320001,34.33926 791.791485532,33.73389 785.4527855320001,33.128550000000004 779.114785532,32.5233 772.7780855320001,31.91831 766.4424855320001,31.313760000000002 760.107585532,30.709750000000003 753.7727855320001,30.106160000000003 747.439485532,29.50305 741.1090855320001,28.901030000000002 734.7810855320001,28.3005 728.4545855320001,27.70156 722.128985532,27.10433 715.804085532,26.508930000000003 709.479785532,25.91545 703.156885532,25.324050000000003 696.836385532,24.73497 690.518785532,24.148680000000002 684.203685532,23.565530000000003 677.8894855320001,22.98575 671.574885532,22.4092 665.260585532,21.83585 658.948585532,21.265900000000002 652.6402855320001,20.70021 646.3331855320001,20.139190000000006 640.0258855320001,19.582410000000003 633.7197855320001,19.030010000000004 627.4158855320001,18.48241 621.114285532,17.939949999999996 614.814385532,17.40287 608.5158855320001,16.871340000000004 602.218685532,16.345560000000006 595.923385532,15.825810000000004 589.630185532,15.312439999999995 583.338985532,14.805760000000006 577.049285532,14.30601 570.7604855320001,13.81333 564.472785532,13.327850000000005 558.186785532,12.849800000000002 551.9029855320001,12.379570000000001 545.621285532,11.917520000000003 539.341585532,11.463940000000001 533.063685532,11.019090000000006 526.787685532,10.583240000000004 520.513785532,10.1567 514.242485532,9.739829999999998 507.97408553199995,9.333059999999996 501.708485532,8.936840000000004 495.44598553199995,8.551549999999999 489.186285532,8.177579999999999 482.929285532,7.815310000000004 476.67468553199996,7.465100000000007 470.42258553199997,7.127300000000005 464.173985532,6.802280000000003 457.93008553199996,6.49053 451.692085532,6.1929700000000025 445.460085532,5.91037 439.232685532,5.643240000000006 433.008785532,5.39217 426.791085532,5.157890000000002 420.586385532,4.9413199999999975 414.40228553199995,4.7446800000000025 408.238785532,4.570999999999998 402.086785532,4.4230599999999995 395.930385532,4.3014399999999995 389.757285532,4.203440000000008 383.564385532,4.126260000000002 377.357685532,4.067700000000002 371.14518553199997,4.027290000000008 364.93098553199997,4.004809999999999 358.715085532,4.0 352.495685532,4.012540000000001 346.272585532,4.042020000000001 340.047185532,4.087940000000003 333.821485532,4.15016 327.596385532,4.228820000000006 321.371685532,4.324069999999999 315.146185532,4.435900000000004 308.919285532,4.56409 302.691785532,4.708379999999998 296.465385532,4.868639999999999 290.24138553200004,5.045090000000002 284.01988553200005,5.238030000000002 277.79958553200004,5.44773 271.579585532,5.674170000000004 265.360385532,5.9172300000000035 259.14418553200005,6.176760000000002 252.932785532,6.45335 246.724485532,6.747709999999998 240.518085532,7.059740000000005 234.314785532,7.38946 228.115985532,7.737210000000005 221.922185532,8.103380000000001 215.733385532,8.48838 209.549485532,8.892610000000005 203.37068553199998,9.316430000000004 197.197685532,9.760230000000007 191.031285532,10.224510000000002 184.871985532,10.709760000000003 178.720685532,11.216520000000003 172.578085532,11.745460000000001 166.44518553199998,12.2973 160.323285532,12.872710000000005 154.213485532,13.47262 148.115785532,14.098170000000003 142.030485532,14.750060000000005 135.95968553199998,15.429010000000005 129.906085532,16.136199999999995 123.871685532,16.872850000000007 117.858285532,17.640290000000007 111.868285532,18.440170000000002 105.90518553199999,19.27398 99.974145532,20.142940000000003 94.080595532,21.04885 88.228575532,21.99404 82.424745532,22.98005 76.68121553200001,24.00798 71.010345532,25.07961 65.426885532,26.19612 59.953735532,27.356920000000002 54.620585532,28.559850000000004 49.460905532,29.80074 44.523045532,31.071620000000003 39.870965532,32.35622 35.559105532000004,33.63659 31.624555532,34.89527 28.085805532,36.116260000000004 24.937505532,37.288790000000006 22.164255532,38.40433 19.734095532,39.460660000000004 17.603075532,40.46069 15.730855532,41.40945000000001 14.080525532,42.314710000000005 12.620658532,43.18264 11.325859531999999,44.018731 10.174275532,44.82822 9.149464532,45.617127 8.237375532,46.38927 7.428079532,47.149131000000004 6.713582532,47.900331 6.088168532,48.644117 5.546681532,49.383336 5.087995532,50.122692 4.713826432,50.860114 4.422975232,51.585186 4.210220632,52.292541 4.070226012,52.983406 4.0,53.6625772 4.0,54.3373428 4.070226012,55.016514 4.210220632,55.707379 4.422975232,56.414734 4.713826432,57.139806 5.087995532,57.877228 5.546681532,58.616584 6.088168532,59.355803 6.713582532,60.099589 7.428079532,60.850789 8.237375532,61.61065 9.149464532,62.382793 10.174275532,63.1717 11.325859531999999,63.981189 12.620658532,64.81728000000001 14.080525532,65.68521 15.730855532,66.59047 17.603075532,67.53923 19.734095532,68.53926 22.164255532,69.59559 24.937505532,70.71113 28.085805532,71.88365999999999 31.624555532,73.10465 35.559105532000004,74.36333 39.870965532,75.6437 44.523045532,76.92830000000001 49.460905532,78.19918 54.620585532,79.44006999999999 59.953735532,80.643 65.426885532,81.8038 71.010345532,82.92031 76.68121553200001,83.99194 82.424745532,85.01987 88.228575532,86.00588 94.080595532,86.95107 99.974145532,87.85698 105.90518553199999,88.72594000000001 111.868285532,89.55975000000001 117.858285532,90.35963 123.871685532,91.12707 129.906085532,91.86372 135.95968553199998,92.57091 142.030485532,93.24986 148.115785532,93.90174999999999 154.213485532,94.5273 160.323285532,95.12720999999999 166.44518553199998,95.70262 172.578085532,96.25446 178.720685532,96.7834 184.871985532,97.29016 191.031285532,97.77541 197.197685532,98.23969 203.37068553199998,98.68349 209.549485532,99.10731 215.733385532,99.51154 221.922185532,99.89654 228.115985532,100.26271 234.314785532,100.61046 240.518085532,100.94018 246.724485532,101.25221 252.932785532,101.54657 259.14418553200005,101.82316 265.360385532,102.08269 271.579585532,102.32575 277.79958553200004,102.55219 284.01988553200005,102.76189 290.24138553200004,102.95483 296.465385532,103.13128 302.691785532,103.29154 308.919285532,103.43583000000001 315.146185532,103.56402 321.371685532,103.67585 327.596385532,103.77109999999999 333.821485532,103.84976 340.047185532,103.91198 346.272585532,103.9579 352.495685532,103.98738 358.715085532,103.99992 364.93098553199997,103.99511000000001 371.14518553199997,103.97263 377.357685532,103.93222 383.564385532,103.87366 389.757285532,103.79648 395.930385532,103.69848 402.086785532,103.57686000000001 408.238785532,103.42892 414.40228553199995,103.25524 420.586385532,103.05860000000001 426.791085532,102.84203 433.008785532,102.60775000000001 439.232685532,102.35668 445.460085532,102.08955 451.692085532,101.80695 457.93008553199996,101.50939 464.173985532,101.19764 470.42258553199997,100.87262 476.67468553199996,100.53482 482.929285532,100.18460999999999 489.186285532,99.82234 495.44598553199995,99.44837000000001 501.708485532,99.06308 507.97408553199995,98.66686000000001 514.242485532,98.26009 520.513785532,97.84322 526.787685532,97.41668 533.063685532,96.98083 539.341585532,96.53598 545.621285532,96.0824 551.9029855320001,95.62035 558.186785532,95.15012 564.472785532,94.67206999999999 570.7604855320001,94.18659 577.049285532,93.69391 583.338985532,93.19416 589.630185532,92.68748000000001 595.923385532,92.17411 602.218685532,91.65436 608.5158855320001,91.12858 614.814385532,90.59705 621.114285532,90.05997 627.4158855320001,89.51751 633.7197855320001,88.96991 640.0258855320001,88.41751 646.3331855320001,87.86072999999999 652.6402855320001,87.29971 658.948585532,86.73402 665.260585532,86.16407000000001 671.574885532,85.59072 677.8894855320001,85.01417000000001 684.203685532,84.43439000000001 690.518785532,83.85124 696.836385532,83.26495 703.156885532,82.67587 709.479785532,82.08447000000001 715.804085532,81.49099 722.128985532,80.89559 728.4545855320001,80.29836 734.7810855320001,79.69942 741.1090855320001,79.09889 747.439485532,78.49687 753.7727855320001,77.89376 760.107585532,77.29017 766.4424855320001,76.68616 772.7780855320001,76.08161 779.114785532,75.47662 785.4527855320001,74.87137 791.791485532,74.26603 798.1303855320001,73.66066000000001 804.4692855320001,73.05529 810.8080855320001,72.44994 817.146885532,71.84458000000001 823.485785532,71.23921 829.8247855320001,70.63384 836.163685532,70.02847 842.5026855320001,69.4231 848.841585532,68.81774 855.180485532,68.21237 861.519285532,67.60701 867.8580855320001,67.00167 874.196785532,66.39633 880.5353855320001,65.791 886.873785532,65.18564 893.2118855320001,64.5803 899.5497855320001,63.975042 905.886985532,63.369947 912.2234855320002,62.765001 918.5588855320001,62.160008000000005 924.892885532,61.554754 931.2254855320001,60.949392 937.5561855320001,60.344543 943.8832855320001,59.740259 950.203185532,59.136718 956.5045855320001,58.534888 962.7684855320001,57.936681 968.9890855320001,57.342962 975.1383855320001,56.756015000000005 981.112085532,56.185178 986.776085532,55.643972000000005 992.018785532,55.143589 996.711785532,54.6955124 1000.8296855320001,54.3021126 1003.991085532,53.99996" stroke="black" stroke-width="2.0" /></svg>