<?xml version="1.0" encoding="utf-8" ?>
<svg baseProfile="full" height="134.04193" version="1.1" width="1011.9995313515" xmlns="http://www.w3.org/2000/svg" xmlns:ev="http://www.w3.org/2001/xml-events" xmlns:xlink="http://www.w3.org/1999/xlink"><defs /><polygon fill="none" points="1003.9995313515,66.80520000000001 1000.7904313515,66.1270405 996.6225313515,65.262015 991.9489313514999,64.306334 986.8091313514999,63.269769000000004 981.2842313515,62.169335000000004 975.4674313515001,61.026030000000006 969.4454313514999,59.85705900000001 963.2876313515,58.676739000000005 957.0393313515,57.493706 950.7324313514999,56.312780000000004 944.3905313514999,55.138160000000006 938.0265313515,53.97247000000001 931.6470313514999,52.81682000000001 925.2556313515,51.67165000000001 918.8551313515,50.53701000000001 912.4487313514999,49.413070000000005 906.0382313514999,48.30024 899.6234313515,47.19855000000001 893.2036313515,46.10756000000001 886.7798313515,45.02699000000001 880.3536313515,43.957080000000005 873.9260313515,42.89811 867.4964313515,41.850120000000004 861.0640313514999,40.812830000000005 854.6289313515,39.78607000000001 848.1921313514999,38.76991000000001 841.7544313515,37.76456 835.3166313515,36.77024000000001 828.8793313515,35.78725000000001 822.4426313514999,34.81589000000001 816.0060313514999,33.856370000000005 809.5688313515,32.90874 803.1312313515,31.973050000000008 796.6934313515,31.04944000000001 790.2560313515,30.13819000000001 783.8191313514999,29.239580000000004 777.3821313515,28.353770000000004 770.9442313515,27.48073000000001 764.5052313514999,26.620450000000005 758.0655313515,25.77297 751.6259313515,24.938540000000003 745.1870313515,24.11749000000001 738.7487313514999,23.310080000000006 732.3105313515,22.51648000000001 725.8718313515,21.736700000000006 719.4323313514999,20.970760000000013 712.9919313514999,20.218730000000008 706.5508313514999,19.48071000000001 700.1093313514999,18.75681 693.6677313514999,18.047180000000004 687.2264313515,17.351980000000005 680.7857313515,16.671460000000003 674.3458313514999,16.005840000000006 667.9064313514999,15.355330000000002 661.4675313515,14.720100000000002 655.0292313515,14.100330000000007 648.5920313514999,13.496240000000007 642.1564313515,12.908100000000005 635.7232313515,12.336360000000006 629.2928313515,11.781430000000007 622.8652313514999,11.243750000000006 616.4405313515,10.723700000000008 610.0186313515,10.221680000000006 603.5995313515,9.738100000000003 597.1835313515,9.273370000000007 590.7706313514999,8.827910000000003 584.3607313515,8.402150000000006 577.9531313514999,7.996450000000003 571.5469313515,7.611150000000009 565.1408313515,7.246280000000006 558.7340313515,6.901780000000009 552.3258313515,6.5776400000000095 545.9155313514999,6.273820000000001 539.5029313514999,5.9901200000000046 533.0876313514999,5.726370000000003 526.6695313514999,5.482370000000003 520.2486313515,5.257920000000006 513.8248313515,5.052820000000004 507.3980313515,4.866850000000007 500.96803135150003,4.699790000000007 494.53453135150005,4.551370000000006 488.0975313515,4.421300000000009 481.6569313515,4.309250000000006 475.2129313515,4.214940000000013 468.76573135150005,4.138080000000002 462.3154313515,4.078420000000008 455.8623313515,4.035690000000002 449.4062313515,4.0096300000000085 442.9475313515,4.0 436.48613135150003,4.006540000000001 430.0226313515,4.0290000000000035 423.5575313515,4.067160000000008 417.09143135150003,4.120939999999997 410.62483135150006,4.190270000000005 404.1583313515,4.275090000000006 397.6922313515,4.375380000000007 391.22703135150005,4.4912100000000095 384.7629313515,4.62268000000001 378.2998313515,4.769850000000005 371.83793135150006,4.932810000000011 365.37713135150005,5.111610000000006 358.91753135150003,5.306320000000007 352.45943135150003,5.517000000000003 346.0029313515,5.743750000000006 339.5482313515,5.98669000000001 333.0953313515,6.245930000000008 326.6442313515,6.521570000000011 320.19493135150003,6.813690000000008 313.74733135150007,7.122370000000004 307.3014313515,7.447710000000008 300.8571313515,7.789760000000001 294.4148313515,8.148560000000003 287.97523135150004,8.524130000000007 281.53933135150004,8.916590000000006 275.10783135150007,9.326240000000006 268.68123135150006,9.753400000000006 262.2597313515,10.19841000000001 255.84343135150002,10.66163000000001 249.4322313515,11.143400000000007 243.0262313515,11.644050000000007 236.6252313515,12.163920000000005 230.2297313515,12.703260000000007 223.8404313515,13.262320000000003 217.4582313515,13.84141000000001 211.0841313515,14.441020000000002 204.71843135150002,15.061670000000007 198.36133135149998,15.703900000000004 192.0133313515,16.368220000000008 185.6754313515,17.05510000000001 179.34923135149998,17.765030000000003 173.03613135150002,18.49880000000001 166.7365313515,19.257310000000004 160.4506313515,20.041480000000007 154.17883135149998,20.852070000000005 147.9220313515,21.68974 141.6820313515,22.555180000000007 135.4608313515,23.449210000000008 129.26083135149997,24.37261000000001 123.08443135149999,25.326320000000003 116.9353313515,26.311290000000007 110.8175313515,27.328380000000003 104.7363313515,28.37881000000001 98.6972513515,29.463610000000003 92.70729135149999,30.583800000000004 86.77602135149999,31.739920000000012 80.91593135149999,32.93197000000001 75.1438113515,34.159400000000005 69.4807013515,35.420230000000004 63.9540213515,36.711130000000004 58.5974213515,38.02597000000001 53.45124135150001,39.356210000000004 48.5603013515,40.68964000000001 43.96852135150001,42.012950000000004 39.713181351500005,43.31136000000001 35.8164313515,44.57318000000001 32.2838013515,45.789590000000004 29.1032813515,46.95549000000001 26.2532513515,48.06947000000001 23.7045113515,49.13145000000001 21.4257613515,50.145570000000006 19.385741351500002,51.116710000000005 17.5545913515,52.04912000000001 15.9072413515,52.9483 14.4213613515,53.81933000000001 13.0767523515,54.666160000000005 11.8577453515,55.49298 10.7531983515,56.303720000000006 9.753117351499998,57.10076000000001 8.848440351499999,57.88562100000001 8.0330903515,58.66055000000001 7.3015953515,59.42887900000001 6.6478703515,60.19410800000001 6.066369351500001,60.959556000000006 5.5559453515,61.726477 5.1187763515,62.49309600000001 4.7565322515,63.255950000000006 4.4693946515,64.010637 4.2547124515,64.751355 4.1074164515,65.475549 4.0231416815,66.18592960000001 4.0,66.88867902000001 4.0382029515,67.59262040000002 4.1377306515,68.306116 4.3012040515,69.03465 4.5333909515,69.77992 4.8390923515,70.53806200000001 5.2201153515000005,71.303629 5.6758103515,72.07258 6.2042063515,72.841938 6.803305351500001,73.610737 7.475718351499999,74.38122200000001 8.2274063515,75.15706 9.064508351499999,75.94205000000001 9.9923673515,76.73973500000001 11.0179753515,77.55229 12.150857351500001,78.38156000000001 13.4013543515,79.23051000000001 14.7814413515,80.10363000000001 16.3084013515,81.00529 18.0031213515,81.94006 19.8881313515,82.91362000000001 21.9886913515,83.93078000000001 24.3332113515,84.99447 26.950481351500002,86.1079 29.8698513515,87.27271 33.1167113515,88.48708 36.7071513515,89.74717000000001 40.64592135150001,91.04400000000001 44.922061351500005,92.36602 49.5132513515,93.70005 54.38571135150001,95.03245000000001 59.5019613515,96.35166000000001 64.8230513515,97.64805000000001 70.3133913515,98.91512 75.9421413515,100.14809 81.6839213515,101.34475 87.51877135149999,102.50388000000001 93.4305713515,103.62568000000002 99.4067713515,104.71069 105.4365313515,105.75989000000001 111.5107313515,106.77419 117.6220313515,107.75426000000002 123.7650313515,108.70111 129.9357313515,109.61561 136.1314313515,110.49878000000001 142.3504313515,111.35185000000001 148.59093135150002,112.17602000000001 154.85083135149998,112.97249000000001 161.12743135149998,113.74207000000001 167.41873135149999,114.48542 173.7232313515,115.20331000000002 180.0398313515,115.89635000000001 186.36713135149998,116.5651 192.7039313515,117.21009000000001 199.0491313515,117.83170000000001 205.40233135149998,118.43033 211.7634313515,119.00644000000001 218.13253135149998,119.56061000000001 224.5090313515,120.09336 230.8912313515,120.60514 237.2773313515,121.09602000000001 243.6659313515,121.56594000000001 250.05643135149998,122.01492 256.4486313515,122.44298 262.8420313515,122.85012 269.23513135150006,123.23629000000001 275.62563135150003,123.60122000000001 282.01173135150003,123.94422 288.3916313515,124.26454000000001 294.76423135150003,124.56149 301.1288313515,124.83421000000001 307.48473135150005,125.08174000000001 313.83123135150004,125.30316 320.1676313515,125.49751 326.49373135150006,125.66376 332.80993135150004,125.80089000000001 339.11713135150006,125.90791000000002 345.4167313515,125.98410000000001 351.7099313515,126.02895000000001 357.9976313515,126.04193000000001 364.2801313515,126.02253 370.5580313515,125.97039000000001 376.83193135150003,125.88517000000002 383.1028313515,125.76653 389.37213135150006,125.61422 395.6411313515,125.42831000000001 401.91093135150004,125.20896 408.18243135150004,124.95627 414.45603135150003,124.67046 420.73243135150005,124.35192 427.01233135150005,124.00104 433.2965313515,123.61818 439.5856313515,123.20384000000001 445.88053135150005,122.75869 452.1818313515,122.28341 458.4900313515,121.77867 464.8055313515,121.24526 471.12873135150005,120.68403 477.4599313515,120.09584000000001 483.79953135150004,119.48158000000001 490.1478313515,118.84219 496.50513135150004,118.17868000000001 502.8719313515,117.49203 509.2486313515,116.78327000000002 515.6356313515,116.05348000000001 522.0329313515,115.30383 528.4400313514999,114.53553000000001 534.8565313514999,113.74982 541.2814313514999,112.94772 547.7143313515,112.13018000000001 554.1550313515,111.29814000000002 560.6036313515,110.45249000000001 567.0601313515,109.5941 573.5244313515,108.72388000000001 579.9962313515,107.84278 586.4751313515,106.95167000000001 592.9606313515,106.05134000000001 599.4526313514999,105.14254 605.9508313514999,104.22602 612.4552313515001,103.30249 618.9659313515,102.37264 625.4827313515,101.43717000000001 632.0058313515,100.49677 638.5350313515,99.55215000000001 645.0696313515,98.60405 651.6086313515,97.65331 658.1507313515,96.70084 664.6942313515,95.74769 671.2371313514999,94.79492 677.7774313515,93.84363 684.3128313515,92.8949 690.8421313514999,91.94966000000001 697.3646313515,91.00876000000001 703.8802313515,90.07295 710.3889313514999,89.14299 716.8908313515,88.21964 723.3858313515,87.30369 729.8735313515,86.39599000000001 736.3539313514999,85.49739000000001 742.8270313515,84.60873000000001 749.2930313515001,83.73081 755.7523313515,82.86439000000001 762.2054313515,82.01020000000001 768.6534313515,81.16883000000001 775.0971313515,80.34071 781.5368313514999,79.52625 787.9729313515,78.72593 794.4051313515,77.94022000000001 800.8332313515,77.16966000000001 807.2563313515,76.414828 813.6737313515,75.67649600000001 820.0848313514999,74.955477 826.4893313515,74.252566 832.8866313515,73.56862600000001 839.2763313515001,72.904561 845.6576313515,72.26130500000001 852.0300313515,71.639914 858.3931313515,71.041437 864.7470313514999,70.466874 871.0911313514999,69.917226 877.4244313515,69.39354800000001 883.7450313515,68.89717200000001 890.0520313515,68.42963300000001 896.3453313514999,67.99234700000001 902.6248313514999,67.58658840000001 908.8894313515,67.21364220000001 915.1375313515,66.87501229 921.3679313514999,66.572327 927.5799313514999,66.30703580000001 933.7713313515,66.08038450000001 939.9378313515,65.89378860000001 946.0731313514999,65.74909500000001 952.1691313514999,65.648267 958.2159313515,65.59351000000001 964.2002313515,65.586263 970.0998313515,65.626711 975.8796313514999,65.713508 981.4882313515,65.8429864 986.8554313515,66.00831790000001 991.8994313515,66.20027630000001 996.5437313514999,66.4082482 1000.7373313515,66.621643 1003.9995313515,66.80520000000001" stroke="black" stroke-width="2.0" /></svg>