<?xml version="1.0" encoding="utf-8" ?>
<svg baseProfile="full" height="78.05367" version="1.1" width="1011.9999492334" xmlns="http://www.w3.org/2000/svg" xmlns:ev="http://www.w3.org/2001/xml-events" xmlns:xlink="http://www.w3.org/1999/xlink"><defs /><polygon fill="none" points="1003.9999492334,45.75401 1001.1802492334,45.3593281 997.7713492334,44.8899573 994.1770492334,44.404253000000004 990.3776492334,43.901101000000004 986.3516492334,43.379443 982.0758492334,42.838379 977.5267492334,42.277349 972.6818492334,41.696409 967.5233492334,41.096635 962.0433492334,40.480653000000004 956.2511492333999,39.853248 950.1834492334,39.221953 944.0919492334,38.612843 938.1169492334,38.03597 932.1927492334,37.480808 926.2696492334,36.9392 920.3101492334,36.404559 914.2874492334,35.871358 908.1852492334,35.33493 902.0121492334,34.792590000000004 895.8792492334001,34.25174 889.8027492334,33.7139 883.7680492334,33.1781 877.7624492334,32.64352 871.7751492333999,32.10949 865.7965492334,31.57543 859.8185492334,31.04088 853.8337492334,30.50549 847.8363492334,29.96897 841.8211492334001,29.43115 835.7841492334,28.89196 829.7223492334,28.3514 823.6338492334,27.809610000000003 817.5177492334,27.26682 811.3746492334,26.72339 805.2063492334,26.17979 799.0170492334,25.63673 792.8327492334,25.09673 786.6613492334,24.56071 780.4993492333999,24.02858 774.3430492333999,23.500230000000002 768.1896492334,22.975640000000002 762.0362492334,22.454790000000003 755.8805492334,21.937710000000003 749.7206492334,21.42447 743.5548492334,20.91515 737.3816492334,20.4099 731.2002492334,19.90888 725.0099492334,19.41228 718.8118492333999,18.92044 712.6183492334,18.434580000000004 706.4325492334,17.95516 700.2536492334,17.482310000000002 694.0804492334,17.016140000000004 687.9118492334001,16.55674 681.7469492334,16.104210000000002 675.5846492334,15.658660000000001 669.4242492334,15.220210000000002 663.2647492334,14.788979999999999 657.1056492334,14.365110000000005 650.9463492334,13.94875 644.7861492334,13.54005 638.6246492334001,13.13917 632.4615492334,12.746270000000003 626.2965492334,12.361539999999998 620.1293492334,11.98516 613.9598492334,11.617310000000003 607.7879492334,11.258200000000002 601.6137492334,10.908009999999997 595.4373492334,10.566859999999998 589.2588492334,10.234660000000005 583.0784492334001,9.911290000000001 576.8962492334,9.596620000000001 570.7124492334,9.290530000000004 564.5271492334,8.992899999999999 558.3406492334,8.703600000000002 552.1529492334,8.4225 545.9643492334001,8.14949 539.7749492334,7.884419999999999 533.5850492334,7.627180000000003 527.3947492334,7.377629999999996 521.2042492334,7.135650000000005 515.0137492334,6.901100000000007 508.82334923340005,6.673859999999998 502.63344923340003,6.453780000000002 496.4442492334,6.2408300000000025 490.2557492334,6.035290000000003 484.0681492334,5.837510000000002 477.8817492334,5.647860000000001 471.6965492334,5.466700000000003 465.5126492334,5.294370000000001 459.3301492334,5.131250000000001 453.1491492334,4.977669999999996 446.9695492334,4.834000000000003 440.7913492334,4.700580000000002 434.6145492334,4.577770000000001 428.43914923340003,4.465910000000001 422.2649492334,4.365360000000003 416.0920492334,4.276450000000004 409.9200492334,4.199550000000002 403.7490492334,4.135000000000005 397.5787492334,4.083100000000002 391.4089492334,4.04383 385.2395492334,4.017009999999999 379.07024923340003,4.002459999999999 372.9010492334,4.0 366.7315492334,4.009479999999996 360.5618492334,4.030700000000003 354.39164923339996,4.063520000000004 348.2207492334,4.107750000000003 342.0490492334,4.163229999999999 335.8764492334,4.2298000000000044 329.7026492334,4.307279999999999 323.52774923339996,4.395520000000005 317.3514492334,4.494340000000001 311.1736492334,4.6036 304.9942492334,4.723109999999998 298.8131492334,4.852780000000003 292.63024923340004,4.993090000000002 286.44564923340005,5.145040000000002 280.2597492334,5.3096200000000024 274.0729492334,5.487840000000006 267.8856492334,5.680680000000002 261.6988492334,5.889110000000002 255.5133492334,6.114110000000004 249.3302492334,6.356620000000007 243.1506492334,6.617570000000001 236.9760492334,6.897870000000005 230.80774923340002,7.198400000000007 224.64764923340002,7.520000000000003 218.4973492334,7.863500000000002 212.3588492334,8.229660000000003 206.23414923340002,8.619200000000006 200.1252492334,9.032780000000002 194.0341492334,9.470059999999997 187.9604492334,9.929660000000005 181.9014492334,10.410380000000004 175.8518492334,10.911270000000002 169.8039492334,11.431689999999996 163.74744923339998,11.971330000000002 157.66914923340002,12.530270000000002 151.5529492334,13.109000000000002 145.3869492334,13.708309999999997 139.2583492334,14.320429999999998 133.1975492334,14.942690000000002 127.18844923340001,15.576990000000002 121.20444923340001,16.22654 115.2086492334,16.89604 109.15164923340001,17.59208 103.0116892334,18.3186 97.02334923340001,19.052370000000003 91.2462292334,19.80358 85.6252992334,20.59743 80.05198923340001,21.467579999999998 74.3557692334,22.462680000000002 68.39932923340001,23.60217 62.6252592334,24.76313 56.8590792334,25.937150000000003 50.9400092334,27.11756 45.814489233399996,28.120020000000004 41.3808392334,29.00168 37.3387292334,29.840510000000002 33.4166592334,30.70818 29.238429233399998,31.71873 24.2961092334,33.09522 19.7763292334,34.65044 15.2738592334,36.534864 12.764727233400002,37.735455 11.0193122334,38.65787 9.6709552334,39.438491 8.5767102334,40.131708 7.6655152334,40.765021000000004 6.8965992334,41.354553 6.2444112334,41.910737 5.6920222334,42.440826 5.2278512334,42.950152 4.8438943334,43.442832 4.5347120334,43.922181 4.2968351334,44.390982 4.1284271334,44.851673 4.0291217834,45.3064865 4.0,45.757566437 4.0424660934,46.2070704 4.1547822334,46.657132600000004 4.3355866334,47.109792 4.5849316334,47.567079 4.9042705334,48.031116000000004 5.2965732334,48.504227 5.7665932334,48.989078 6.3213412334,49.488857 6.970897233400001,50.007549 7.729781233400001,50.550374 8.6194222334,51.124528 9.672874233399998,51.740581 10.9448632334,52.415363 12.536664233400002,53.178937 14.673759233400002,54.095305 18.049109233400003,55.341724 23.1138792334,56.79518 27.760419233399997,57.768950000000004 32.825589233399995,58.67689 37.2223492334,59.4289 41.5593592334,60.13579 46.1456092334,60.84119 51.239349233400006,61.56731 57.021219233400004,62.30736 63.0849392334,62.98763 68.97194923340001,63.57401 74.93015923339999,64.11593 81.0442692334,64.64285000000001 87.0797192334,65.14844 93.0578792334,65.62771000000001 99.0333992334,66.07561 105.03564923340001,66.48432 111.07254923340001,66.84688 117.1429492334,67.16637 123.2452492334,67.44833 129.3767492334,67.69853 135.5344492334,67.92296 141.7141492334,68.12779 147.91114923339998,68.31938 154.1199492334,68.50421 160.33434923340002,68.68771000000001 166.5478492334,68.86919 172.75564923340002,69.04584 178.9537492334,69.21495 185.13974923339998,69.37386000000001 191.3124492334,69.52001 197.4719492334,69.65087 203.61944923340002,69.76401 209.75744923340002,69.85732 215.88894923339998,69.93102 222.01674923340002,69.98633000000001 228.1435492334,70.02445 234.2715492334,70.04652 240.4027492334,70.05367 246.5387492334,70.04702 252.6810492334,70.02769 258.8306492334,69.99676 264.9884492334,69.95536 271.1549492334,69.90458 277.3304492334,69.84556 283.5148492334,69.77942 289.7078492334,69.70732 295.90854923340004,69.63042 302.1161492334,69.54989 308.3291492334,69.46688 314.5461492334,69.38171 320.7654492334,69.29398 326.9843492334,69.20331 333.2031492334,69.10925 339.4222492334,69.01138 345.6397492334,68.90929 351.85464923340004,68.80257 358.0662492334,68.69081 364.2742492334,68.5736 370.47834923339997,68.45052 376.6785492334,68.32116 382.8748492334,68.1851 389.06754923340003,68.04192 395.25684923340003,67.89121 401.4433492334,67.73253 407.6277492334,67.56547 413.8108492334,67.39005 419.9933492334,67.20674 426.1758492334,67.01608 432.3592492334,66.81856 438.5437492334,66.61471 444.7301492334,66.40504 450.9186492334,66.19006 457.1097492334,65.97028 463.30354923339996,65.74624 469.5004492334,65.51846 475.7003492334,65.28746000000001 481.9035492334,65.05377 488.1098492334,64.81794 494.3191492334,64.5805 500.5314492334,64.342 506.74624923339996,64.10299 512.9600492334,63.86393 519.1718492334,63.62486 525.3818492334,63.38573 531.5904492333999,63.146510000000006 537.7979492334,62.90713 544.0046492334,62.66756 550.2109492334,62.427760000000006 556.4171492334001,62.18768 562.6235492334,61.94727 568.8304492334,61.70649 575.0382492334,61.46529 581.2471492333999,61.22364 587.4576492333999,60.981480000000005 593.6698492334,60.73877 599.8841492334,60.49547 606.0978492334,60.25165 612.3088492334,60.00743 618.5168492334001,59.76301 624.7217492334,59.51858 630.9234492334,59.27433 637.1223492334,59.03045 643.3183492334,58.787130000000005 649.5119492334,58.54454 655.7035492334,58.30285 661.8936492334001,58.06225 668.0830492334001,57.82289 674.2722492334001,57.58493 680.4623492334,57.34854 686.6541492334,57.11387 692.8487492334,56.88107 699.0474492334,56.65029 705.2514492334001,56.42168 711.4621492334,56.1953 717.6751492333999,55.97116 723.8799492334,55.749443 730.0760492334,55.529975 736.2632492334,55.312556 742.4422492334,55.096974 748.6136492334,54.883005000000004 754.7789492334,54.670414 760.9396492334,54.458955 767.0978492334,54.24837 773.2557492334,54.038392 779.4163492334,53.828737000000004 785.5827492334,53.619113 791.7586492334001,53.409208 797.9480492334001,53.198698 804.1549492334,52.98725 810.3570492334001,52.775518 816.5322492334,52.56448 822.6778492333999,52.354534 828.7928492334,52.146010000000004 834.8776492334,51.939185 840.9341492333999,51.734279 846.9650492334,51.531468000000004 852.9745492334,51.330883 858.9679492334,51.132617 864.9514492334,50.936729 870.9324492334,50.743248 876.9195492334001,50.552176 882.9226492334,50.36349 888.9533492334,50.177145 895.0247492333999,49.993073 901.1523492334,49.811186 907.3438492334,49.631603 913.4864492334,49.4564 919.5408492334,49.284083 925.5213492334001,49.111754000000005 931.4538492334001,48.936326 937.3747492333999,48.754421 943.3325492334,48.562119 949.3916492333999,48.354536 955.5365492333999,48.129068000000004 961.4393492334001,47.896603 967.0247492334,47.662139 972.2785492334,47.428717 977.2071492334001,47.1984 981.8281492334,46.972472 986.1649492334,46.7516457 990.2427492334,46.5362494 994.0857492334001,46.3263588 997.7169492334,46.1218949 1001.1570492334,45.9226867 1003.9999492334,45.75401" stroke="black" stroke-width="2.0" /></svg>