<?xml version="1.0" encoding="utf-8" ?>
<svg baseProfile="full" height="112.01285" version="1.1" width="1012.01026838" xmlns="http://www.w3.org/2000/svg" xmlns:ev="http://www.w3.org/2001/xml-events" xmlns:xlink="http://www.w3.org/1999/xlink"><defs /><polygon fill="none" points="1004.01026838,71.83367 1000.9565683799999,71.2434928 997.26776838,70.538697 993.38296838,69.806046 989.28336838,69.043562 984.9492683799999,68.249354 980.36056838,67.421799 975.49826838,66.55982900000001 970.34716838,65.663367 964.8990683799999,64.733903 959.1580683799999,63.775225999999996 953.14646838,62.794124999999994 946.9085683799999,61.80038 940.5067683799999,60.80498 934.08356838,59.8297 927.68906838,58.8807 921.27856838,57.94986 914.82536838,57.03214 908.4007683799999,56.13633 902.03836838,55.26536 895.72806838,54.415859999999995 889.4570683799999,53.58398 883.21396838,52.76622 876.98936838,51.959419999999994 870.77476838,51.160669999999996 864.5629683799999,50.36727 858.3477683799999,49.57666 852.1241683799999,48.78644 845.88786838,47.99432 839.63566838,47.1981 833.3652683799999,46.395669999999996 827.07546838,45.585029999999996 820.76616838,44.764269999999996 814.43806838,43.931569999999994 808.09336838,43.08525 801.73536838,42.22381 795.36796838,41.34747 788.9949683799999,40.458819999999996 782.6197683799999,39.56061 776.24526838,38.65555 769.87386838,37.74631 763.50746838,36.83548 757.1475683799999,35.925580000000004 750.7949683799999,35.01904 744.4502683799999,34.11821 738.1134683799999,33.225359999999995 731.78406838,32.342659999999995 725.46116838,31.472199999999994 719.14346838,30.616029999999995 712.82906838,29.776099999999992 706.5157683799999,28.954320000000003 700.2009683800001,28.152449999999995 693.88196838,27.37048 687.55646838,26.607120000000002 681.22246838,25.8611 674.87826838,25.13122 668.5225683799999,24.41632 662.1544683799999,23.71528 655.77316838,23.027009999999997 649.37826838,22.35047 642.9698683799999,21.684609999999992 636.54826838,21.02845 630.11416838,20.381010000000003 623.66876838,19.741329999999998 617.2134683799999,19.108469999999997 610.7502683799999,18.48153 604.2812683799999,17.859619999999993 597.80916838,17.24216 591.3365683799999,16.629910000000002 584.86566838,16.02397 578.39826838,15.425419999999995 571.93626838,14.835259999999998 565.48086838,14.2545 559.03306838,13.684079999999994 552.59366838,13.124899999999997 546.16316838,12.577829999999999 539.74166838,12.043700000000001 533.3291683799999,11.523330000000001 526.92516838,11.017479999999999 520.5289683799999,10.526909999999994 514.13986838,10.052329999999998 507.75646838000006,9.594459999999998 501.37746838000004,9.15399999999999 495.00126838,8.731280000000005 488.62646838,8.326269999999994 482.25186838,7.938899999999997 475.87656838000004,7.569159999999997 469.49966838,7.217029999999994 463.12066838,6.882540000000006 456.73916838,6.565719999999999 450.35506838,6.266620000000003 443.96836838,5.985290000000006 437.57936838,5.721810000000005 431.18856838000005,5.476230000000001 424.79666838,5.248649999999998 418.40446838,5.03913 412.01316838,4.847740000000002 405.62406838000004,4.6745400000000075 399.23866838,4.519649999999999 392.85856838,4.383560000000003 386.48506838000003,4.266989999999993 380.11926838000005,4.170599999999993 373.76186838,4.095070000000007 367.41346838,4.041039999999995 361.07416838,4.009140000000002 354.74386838,4.0 348.42226838,4.014240000000001 342.10866838000004,4.0524799999999885 335.80236838,4.1153599999999955 329.50206838,4.2035199999999975 323.20646838,4.31765 316.91386838,4.458429999999993 310.62246838000004,4.6266000000000105 304.32996838,4.8229299999999995 298.03416838000004,5.048140000000004 291.73266838,5.302490000000006 285.42386838,5.586089999999999 279.10656838000006,5.899070000000009 272.78046838,6.2415400000000005 266.44546837999997,6.613590000000002 260.10236838000003,7.015270000000001 253.75256838,7.446560000000005 247.39816838000002,7.907380000000003 241.04176838,8.397559999999991 234.68676838000002,8.916839999999993 228.33716838,9.464819999999996 221.99746838000002,10.040999999999997 215.67286838,10.644709999999996 209.36896838,11.275179999999999 203.09206838000003,11.931449999999998 196.84826838000004,12.613009999999996 190.64176838000003,13.320859999999996 184.47326838000004,14.056530000000002 178.33976838,14.82197 172.23496838000003,15.619529999999997 166.14936838000003,16.45216 160.07066838,17.32345 153.98296838,18.237859999999998 147.86716838,19.20017 141.70596838000003,20.212669999999996 135.49136838,21.27579 129.22626838,22.388059999999996 122.92626838,23.54544 116.62056838,24.740849999999995 110.35076838,25.963949999999997 104.16836838,27.20162 98.12822838,28.443170000000002 92.26889838000001,29.69668 86.59338838,30.978719999999996 81.07798838000001,32.30916 75.68118838,33.711259999999996 70.35464838,35.20457 65.07400838,36.79895 59.847598379999994,38.49462 54.71250838,40.28004 49.72787838,42.12909 44.95685838,43.998329999999996 40.42582838,45.854639999999996 36.12989838,47.6808 32.047678379999994,49.47047 28.15000838,51.22458 24.42767838,52.9711 21.090768379999997,54.674319999999994 18.34640838,56.217349999999996 16.13233838,57.57228 14.317968379999998,58.764649999999996 12.80691038,59.82723 11.52432838,60.791349999999994 10.41824838,61.680389999999996 9.45340138,62.510866 8.605295380000001,63.294599 7.85641938,64.04029299999999 7.19393138,64.75455 6.60822338,65.442522 6.0920093799999995,66.10833 5.63972738,66.75535099999999 5.24713838,67.386417 4.91105608,68.003954 4.62916018,68.610086 4.39987478,69.206717 4.22228988,69.79559499999999 4.09612057,70.378363 4.02169918,70.9566106 4.0,71.5319165 4.03261782,72.1058965 4.11980658,72.6801234 4.26032368,73.256024 4.45351148,73.83496099999999 4.6993605800000005,74.418277 4.99849708,75.007329 5.352203380000001,75.603527 5.76247238,76.208367 6.23210338,76.823474 6.7648443799999995,77.450649 7.365611380000001,78.091927 8.040787380000001,78.74964299999999 8.79867738,79.426521 9.650159380000002,80.125776 10.609664380000002,80.851221 11.69663138,81.60734599999999 12.93766138,82.3992 14.36935838,83.23157 16.040248379999998,84.1056 18.00676838,85.00971 20.35526838,85.92871 23.19114838,86.84496 26.56106838,87.74352999999999 30.40806838,88.66689 34.68339838,89.68459 39.31532838,90.76820000000001 44.18887838,91.8637 49.19333838,92.91563 54.269188379999996,93.87991 59.433048379999995,94.73532 64.74990838,95.49834 70.27727838,96.1897 76.04884838000001,96.8289 82.05306838,97.43537 88.22014838,98.01529 94.46805838,98.56336999999999 100.73711838,99.07777999999999 106.99966837999999,99.56038 113.25676838,100.01397 119.51656838000001,100.44015 125.78566838,100.84019 132.06836838,101.21512 138.36726838,101.56583 144.68306838,101.89309 151.01406838,102.19754999999999 157.35666838,102.47979 163.70566838,102.73969 170.05616838,102.97662 176.40446838,103.18997999999999 182.74836838000002,103.37928 189.08646838,103.5441 195.41886838000002,103.68406999999999 201.74676838000002,103.79881 208.07256838,103.88804999999999 214.39946838,103.95251999999999 220.73046838000002,103.99365 227.06846838,104.01285 233.41576838000003,104.01147 239.77436838000003,103.99088 246.14616838,103.95241 252.53236838,103.89741000000001 258.93396838,103.82724999999999 265.35166838000004,103.74328 271.78566838,103.64692 278.23566838000005,103.53958 284.70126838000004,103.42272 291.18136838000004,103.29783 297.67446838,103.16644 304.17866838000003,103.03009 310.69166838,102.89008 317.21086838,102.74654 323.73416838,102.59935 330.25946838000004,102.44839999999999 336.78516838,102.29356 343.30966838,102.1347 349.83176838,101.97169 356.35056838,101.80440999999999 362.86536838,101.63271 369.37556838,101.45645999999999 375.88116838,101.27551 382.38216838,101.0897 388.87886838000003,100.89889 395.37196838,100.70289 401.86216838,100.50154 408.35046838,100.29467 414.83826838000004,100.08245 421.32656837999997,99.86523 427.81626838000005,99.64338000000001 434.30836838000005,99.41727 440.80326838,99.18727 447.30176838,98.95376999999999 453.80396838,98.71714 460.31026838,98.47779 466.82056838,98.2361 473.33486838,97.99249 479.85296838,97.74737 486.37436838,97.50115 492.89856838000003,97.25426999999999 499.42476838,97.00716 505.95216838000005,96.76025999999999 512.47976838,96.51371 519.00646838,96.26712 525.53156838,96.02006 532.0540683799999,95.77208999999999 538.5735683799999,95.52275 545.08936838,95.27159999999999 551.60116838,95.0182 558.10856838,94.76208 564.6115683799999,94.5028 571.1101683799999,94.2399 577.6041683799999,93.9729 584.09406838,93.70136 590.58006838,93.4248 597.06246838,93.14275 603.54196838,92.85473999999999 610.0191683799999,92.56039 616.49466838,92.25995999999999 622.96946838,91.95389 629.4439683799999,91.64262 635.91916838,91.32657 642.3954683799999,91.00617 648.8736683799999,90.68187 655.35446838,90.35409 661.83836838,90.02327 668.3260683799999,89.68983 674.81816838,89.35422 681.31526838,89.01688 687.8178683799999,88.67823 694.32666838,88.33874 700.8421683799999,87.99883 707.36476838,87.65896 713.89066838,87.31968 720.4093683799999,86.98177 726.9204683799999,86.64545 733.4245683799999,86.31093 739.9225683799999,85.97838 746.4156683799999,85.64794 752.90516838,85.31977 759.3930683799999,84.99399 765.8814683799999,84.67071 772.3727683799999,84.35003 778.86976838,84.03204 785.37556838,83.71682 791.8937683799999,83.40445 798.41756838,83.09546 804.92286838,82.79123 811.40416838,82.49193 817.85806838,82.19691999999999 824.2829683799999,81.90540999999999 830.67816838,81.61655999999999 837.0447683799999,81.329488 843.38486838,81.04328799999999 849.70156838,80.757016 855.99936838,80.469695 862.2836683799999,80.180306 868.5610683799999,79.887782 874.83906838,79.59099 881.1265683799999,79.28872 887.4338683799999,78.979659 893.7725683799999,78.662361 900.1562683799999,78.335211 906.6007683799999,77.99638999999999 913.10536838,77.645258 919.55816838,77.28792 925.94636838,76.925463 932.29866838,76.55657599999999 938.65726838,76.178995 945.07926838,75.789307 951.5456683799999,75.388582 957.8052683799999,74.992812 963.78236838,74.60773 969.44486838,74.236459 974.78426838,73.880605 979.8084683799999,73.54065 984.53476838,73.216336 988.98486838,72.906967 993.18176838,72.6116313 997.14836838,72.329329 1000.9058683799999,72.0590599 1004.01026838,71.83367" stroke="black" stroke-width="2.0" /></svg>