<?xml version="1.0" encoding="utf-8" ?>
<svg baseProfile="full" height="81.30705999999999" version="1.1" width="1012.02422073" xmlns="http://www.w3.org/2000/svg" xmlns:ev="http://www.w3.org/2001/xml-events" xmlns:xlink="http://www.w3.org/1999/xlink"><defs /><polygon fill="none" points="1004.02422073,55.83309 1001.3215207300001,55.130910799999995 998.05882073,54.304573999999995 994.62452073,53.459896 991.00102073,52.59654 987.1692207300001,51.714506 983.10812073,50.814325 978.79592073,49.897337 974.21132073,48.966074 969.33512073,48.024771 964.15472073,47.079972 958.6686207299999,46.141149 952.89342073,45.22108 946.87042073,44.332989999999995 940.7359207300001,43.49352 934.6794207300001,42.71825 928.65612073,41.98947 922.62252073,41.2913 916.54742073,40.61015999999999 910.4108207300001,39.933749999999996 904.22302073,39.25269 898.08212073,38.5685 891.9936207300001,37.88063 885.9448207300001,37.189009999999996 879.92432073,36.49365 873.92262073,35.79466 867.9311207300001,35.092209999999994 861.94242073,34.386579999999995 855.95002073,33.67815 849.94852073,32.967389999999995 843.93322073,32.2549 837.90042073,31.541359999999997 831.84712073,30.82762 825.77142073,30.11465 819.67222073,29.403549999999996 813.54972073,28.69558 807.40482073,27.99214 801.23992073,27.29478 795.0581207299999,26.604709999999997 788.86312073,25.922549999999998 782.66062073,25.249059999999997 776.4611207300001,24.585489999999997 770.26352073,23.93177 764.06552073,23.287769999999995 757.8651207300001,22.65336 751.66062073,22.028480000000002 745.4512207299999,21.413159999999998 739.24312073,20.808100000000003 733.04002073,20.213749999999997 726.84222073,19.63019 720.64972073,19.057479999999998 714.46222073,18.495669999999997 708.27902073,17.944739999999996 702.09902073,17.404689999999995 695.9211207300001,16.87534 689.74392073,16.356279999999998 683.56632073,15.847049999999996 677.38732073,15.34722 671.2060207300001,14.856380000000001 665.02192073,14.374129999999994 658.83452073,13.900109999999998 652.6435207300001,13.43394 646.44862073,12.975279999999998 640.25012073,12.523789999999998 634.0480207300001,12.079139999999995 627.8427207300001,11.641009999999994 621.63492073,11.209109999999995 615.42522073,10.783119999999997 609.21452073,10.362759999999994 603.00392073,9.947759999999995 596.79462073,9.5381 590.5879207300001,9.134830000000001 584.38472073,8.739219999999996 578.18582073,8.352530000000002 571.99202073,7.975989999999996 565.80372073,7.610799999999998 559.62112073,7.258159999999997 553.44432073,6.919239999999995 547.27322073,6.595189999999995 541.10762073,6.287150000000004 534.94712073,5.996239999999993 528.79092073,5.723570000000002 522.63842073,5.470269999999999 516.48852073,5.237439999999999 510.3401207300001,5.02619 504.1920207300001,4.83764 498.04262073000007,4.672689999999996 491.89052073,4.530470000000001 485.73452073,4.40934 479.57332073000003,4.3076599999999985 473.40622073000003,4.223819999999996 467.23242073000006,4.156199999999998 461.0514207300001,4.103180000000002 454.86292073,4.063130000000001 448.66692073,4.0344399999999965 442.46362073,4.015459999999997 436.25322073,4.0045299999999955 430.03632073000006,4.0 423.81382073000003,4.000170000000004 417.58662073000005,4.00338 411.35612073000004,4.007899999999999 405.12362073,4.012059999999998 398.89102073000004,4.0142999999999915 392.66002073,4.015210000000003 386.43222073000004,4.016799999999996 380.20912073,4.021070000000002 373.99202073000004,4.0300300000000036 367.78172073,4.045659999999998 361.57922073000003,4.0699399999999955 355.38482073000006,4.10483 349.19902073000003,4.152259999999998 343.02192073000003,4.21416 336.85342073000004,4.292439999999999 330.69322073,4.389000000000003 324.54092073000004,4.505729999999993 318.39572073000005,4.644519999999993 312.2568207300001,4.807270000000003 306.12312073000004,4.99588 299.99342073,5.212230000000005 293.86622073,5.456809999999997 287.74042073,5.728729999999999 281.61472073000004,6.0270399999999995 275.48812073,6.350810000000003 269.35962073,6.6991099999999975 263.22862073000005,7.071029999999993 257.09442073,7.4656400000000005 250.95652073,7.882010000000001 244.81452073,8.319220000000001 238.66822073,8.776329999999994 232.51762073,9.252369999999999 226.36262072999997,9.746379999999995 220.20362072999998,10.257370000000002 214.04082073,10.784329999999997 207.87472072999998,11.326229999999995 201.70612072999998,11.882019999999997 195.53552073,12.450859999999999 189.36372072999998,13.032339999999998 183.19122073,13.626129999999996 177.01852072999998,14.231859999999998 170.84632073,14.84919 164.67502073,15.47777 158.50502072999998,16.11725 152.33672073,16.767269999999996 146.17132073,17.43052 140.01322073,18.117419999999996 133.87072073,18.839169999999996 127.75532073,19.60622 121.68162072999999,20.42803 115.66692072999999,21.31279 109.73012073,22.26706 103.89076073,23.295569999999998 98.16638073,24.394299999999998 92.55099073,25.526069999999997 87.00069072999999,26.65326 81.43615073,27.74805 75.73329073,28.78952 69.74884073,29.80395 63.76546073,30.80902 57.73454073,31.887879999999996 51.99507073000001,33.04259 47.077730730000006,34.164789999999996 42.82758073000001,35.23917 38.98379073,36.299499999999995 35.318850729999994,37.39591 31.571920730000002,38.61311 27.13553073,40.201499999999996 22.87918073,41.92951 18.74269073,43.847899999999996 14.55955073,46.010251 12.24996573,47.312733 10.616566729999999,48.307564 9.34287273,49.144149999999996 8.30390573,49.881647 7.43637073,50.550225 6.703480730000001,51.16767 6.08198373,51.745509999999996 5.55639373,52.291748999999996 5.1161017300000005,52.812241 4.75379603,53.311456 4.46455693,53.792944 4.24532803,54.259619 4.09462068,54.713967 4.01238227,55.1581841 4.0,55.594293199999996 4.06032833,56.024257 4.19463393,56.4502652 4.40206173,56.87468 4.6832008300000005,57.299807 5.04033773,57.728015 5.477673729999999,58.161872 6.00176573,58.604324999999996 6.62231373,59.058955 7.35354173,59.530366 8.21668073,60.024865 9.24481273,60.551742 10.49332073,61.126008 12.06645973,61.775294 14.20483073,62.562332999999995 17.73227073,63.695522 22.63701073,65.000064 26.97085073,65.90582 31.93618073,66.76755 36.094850730000005,67.41302999999999 40.122770730000006,67.98208 44.35347073,68.52563 49.071910730000006,69.07075 54.580320730000004,69.6291 60.65438073,70.15123 66.46973073000001,70.57068 72.33206073,70.92856 78.43185073,71.24867 84.46247072999999,71.52924 90.42138073,71.77862 96.41859073,72.00512 102.51222073,72.21356 108.70802072999999,72.40635 114.92602072999999,72.58153 121.10702073,72.7373 127.27862073,72.87437 133.46252073,72.99301 139.67372073,73.09313 145.89872072999998,73.17415 152.09122073,73.23536 158.25622073,73.27701 164.40552073,73.30031 170.54952072999998,73.30705999999999 176.69662073,73.29894999999999 182.85332072999998,73.2776 189.02412073,73.24459999999999 195.21162073,73.20155 201.41632073,73.15007 207.63692073,73.09177 213.87032073,73.02735 220.10902073,72.95665 226.34172073,72.87958 232.57002072999998,72.79589 238.79622073000002,72.70532 245.02242073,72.60761 251.25022073,72.5025 257.48122073,72.38971000000001 263.71662073,72.26898 269.95442073000004,72.14008 276.18672073,72.00296 282.41262073,71.85741999999999 288.63202073,71.70324 294.84542073,71.54023 301.05332073,71.36813 307.25672073000004,71.18675 313.45672073000003,70.99629 319.65442073,70.79747 325.8510207300001,70.59101 332.04722073000005,70.37763 338.24392073,70.15807 344.44192073,69.93305 350.64172073000003,69.70329 356.84382073000006,69.46952 363.04872073000007,69.23249 369.25662073,68.99294 375.46782073,68.75161 381.68232073,68.50925 387.90022073,68.26662999999999 394.12122073000006,68.02452 400.34532073,67.78368 406.57202073,67.54488 412.80092073000003,67.30858 419.03162073000004,67.07472 425.26372073,66.84324 431.49692073,66.61406 437.73082073,66.3871 443.96522073000006,66.16228 450.19972073,65.93952 456.43442073,65.718729 462.66892073,65.49982399999999 468.90322073,65.28271699999999 475.13722073,65.067319 481.37092073,64.85354 487.60442073,64.64128600000001 493.83772073000006,64.430464 500.07092073,64.220979 506.30412073,64.01273499999999 512.5376207300001,63.805689 518.77162073,63.599877 525.00602073,63.395343 531.24112073,63.192136 537.4768207300001,62.990302 543.71322073,62.789891 549.95012073,62.590955 556.1875207300001,62.393546 562.4252207300001,62.197717999999995 568.66302073,62.003526 574.90072073,61.811026 581.13792073,61.620276 587.3744207300001,61.431334 593.60982073,61.24426 599.84352073,61.059114 606.0753207299999,60.875957 612.30452073,60.694902 618.53072073,60.516135999999996 624.75382073,60.339853999999995 630.97362073,60.166241 637.19002073,59.995481999999996 643.40332073,59.827753 649.6137207300001,59.663229 655.82172073,59.502082 662.0277207299999,59.34448 668.23262073,59.190588999999996 674.4370207300001,59.040571 680.64212073,58.894591 686.84892073,58.752809 693.05852073,58.61539 699.2725207300001,58.482496 705.49242073,58.354292 711.7197207300001,58.230824 717.9555207300001,58.111899 724.1894207299999,57.997506 730.41332073,57.887557 736.62732073,57.781812 742.83192073,57.680026 749.02802073,57.581948 755.21712073,57.487327 761.40102073,57.395908 767.58202073,57.307435999999996 773.76282073,57.221655999999996 779.9466207300001,57.138307999999995 786.1370207300001,57.057134999999995 792.33812073,56.977876 798.55462073,56.900265 804.78832073,56.824073999999996 811.0067207300001,56.7497624 817.19492073,56.6783225 823.3501207300001,56.610702599999996 829.4714207300001,56.547798 835.55932073,56.4904569 841.6155207300001,56.4394881 847.64342073,56.395671799999995 853.64712073,56.3597712 859.63212073,56.3325467 865.60522073,56.3147715 871.57412073,56.307249999999996 877.54772073,56.310838 883.53642073,56.3264674 889.55222073,56.3551765 895.60892073,56.3981472 901.72262073,56.4567534 907.91172073,56.532306 914.10832073,56.620764799999996 920.2151207300001,56.7141085 926.2476207300001,56.8061028 932.23502073,56.891149999999996 938.21822073,56.963929 944.2514207300001,57.018904 950.4054207300001,57.04961 956.50512073,57.04849 962.31692073,57.014812 967.80322073,56.953624999999995 972.9557207299999,56.870163 977.78452073,56.769086099999996 982.30962073,56.6542879 986.5556207300001,56.528904 990.54792073,56.3954072 994.31112073,56.255727 997.86772073,56.111363 1001.23802073,55.9634807 1004.02422073,55.83309" stroke="black" stroke-width="2.0" /></svg>