<?xml version="1.0" encoding="utf-8" ?>
<svg baseProfile="full" height="150.92723" version="1.1" width="1012.2878149" xmlns="http://www.w3.org/2000/svg" xmlns:ev="http://www.w3.org/2001/xml-events" xmlns:xlink="http://www.w3.org/1999/xlink"><defs /><polygon fill="none" points="1004.2878149,114.0227 1001.1262148999999,112.939103 997.3851148999998,111.664399 993.5374148999999,110.361829 989.5772149,109.030136 985.4984149,107.66802 981.2944148999999,106.27415 976.9584149,104.847174 972.4833149,103.38574 967.8616149,101.88853 963.0861149,100.35428999999999 958.1491149,98.78186 953.0432149,97.17028 947.7617148999999,95.51884 942.2983148999999,93.82715 936.6479148999999,92.09534 930.8072149,90.32413 924.7751149,88.51501999999999 918.5534149,86.67045 912.1477149,84.79393999999999 905.5680148999999,82.8903 898.8293149,80.96553 891.9510148999999,79.02632 884.9556149,77.07957 877.8671148999999,75.13228000000001 870.7222149,73.19447 863.5947149,71.2855 856.4776148999999,69.4025 849.3532148999999,67.5399 842.2065149,65.6931 835.0295149,63.85944 827.8699148999999,62.05028 820.7502149,60.270230000000005 813.6731149,58.51889 806.6385148999999,56.795069999999996 799.6434149,55.09711 792.6831149,53.42406 785.7525148999999,51.77571 778.8470149,50.15194 771.9623149,48.55275999999999 765.0944149,46.97823000000001 758.2396148999999,45.4285 751.3941149,43.90382000000001 744.5548149,42.40448000000001 737.7183148999999,40.930859999999996 730.8817148999999,39.483419999999995 724.0422149,38.06267 717.1969148999999,36.66921000000001 710.3433148999999,35.30367000000001 703.4789149,33.966800000000006 696.6014148999999,32.65895999999999 689.7091148999999,31.37948 682.8006148999999,30.127590000000012 675.8752148999998,28.90258 668.9322149,27.703850000000003 661.9717148999999,26.53089 654.9942149,25.383219999999994 648.0004148999999,24.26044999999999 640.9918149,23.162260000000003 633.9702149,22.08833 626.9380149,21.038439999999994 619.8979149,20.01236 612.8535148999999,19.009929999999997 605.8084148999999,18.030969999999996 598.7669149,17.07552000000001 591.7331148999999,16.144869999999997 584.7106149,15.240799999999993 577.7021149,14.364949999999993 570.7098149,13.518800000000013 563.7352149,12.703699999999998 556.7790148999999,11.920899999999989 549.8414148999999,11.171499999999995 542.9221149,10.456600000000009 536.0201149,9.777100000000004 529.1339148999999,9.134 522.2614149,8.52810000000001 515.4003149,7.960300000000004 508.54731489999995,7.4315 501.6991149,6.942599999999999 494.8517149,6.493600000000001 488.0018149,6.0839 481.1465149,5.712699999999998 474.2834149,5.379300000000001 467.4105149,5.083200000000005 460.5264149,4.823800000000006 453.63011489999997,4.600699999999989 446.72121489999995,4.413399999999996 439.7997149,4.261600000000001 432.86631489999996,4.144800000000004 425.92221490000003,4.0625 418.96901490000005,4.014399999999995 412.0089149,4.0 405.0449149,4.0186999999999955 398.0802149,4.0702 391.11851490000004,4.155199999999994 384.1628149,4.274799999999999 377.2163149,4.430099999999996 370.28141489999996,4.622 363.3604149,4.851399999999998 356.45541490000005,5.119200000000006 349.5679149,5.426299999999998 342.6993149,5.773399999999995 335.8505149,6.161299999999997 329.0224149,6.590900000000005 322.21521490000003,7.062700000000007 315.42921490000003,7.577700000000007 308.6643149,8.136499999999998 301.92011490000004,8.739900000000006 295.1961149,9.387900000000002 288.4916149,10.079799999999992 281.80561489999997,10.814599999999999 275.1363149,11.5916 268.48181489999996,12.410200000000003 261.8396149,13.26979999999999 255.2067149,14.170159999999996 248.5797149,15.110990000000001 241.9548149,16.092299999999994 235.3276149,17.11421999999999 228.6931149,18.17712999999999 222.04601490000002,19.28160000000001 215.38001490000002,20.42846 208.68821490000002,21.618820000000014 201.9629149,22.854150000000004 195.19571489999998,24.13815000000001 188.3803149,25.477270000000004 181.5147149,26.877740000000003 174.6020149,28.34501999999999 167.6508149,29.883480000000006 160.6757149,31.495950000000008 153.69761490000002,33.183310000000006 146.7432149,34.944100000000006 139.8438149,36.77431 133.0338149,38.667370000000005 126.3481149,40.61444 119.8199149,42.60498 113.4784149,44.62751 107.3467149,46.670339999999996 101.4417349,48.722210000000004 95.77580490000001,50.77017 90.3476549,52.804359999999996 85.14097489999999,54.82186 80.1314049,56.8247 75.2908449,58.81829 70.5892749,60.81066 65.9952249,62.81228 61.4749549,64.8365 56.9904749,66.90064000000001 52.4952849,69.02894 47.9347249,71.27201 43.3758749,73.64594 39.073234899999996,76.04574 35.2603649,78.32361 31.9840649,80.40353999999999 29.1692749,82.28362 26.7245549,83.988 24.5841649,85.54038 22.690184900000002,86.96697 20.9963349,88.29057 19.4675949,89.52913000000001 18.077584899999998,90.69656 16.8061449,91.80366000000001 15.637654900000001,92.85898 14.5597949,93.86930000000001 13.562714900000001,94.84017 12.6384119,95.77613 11.7803229,96.68097 10.9830069,97.55787000000001 10.2419139,98.40955 9.5532139,99.23834 8.9136649,100.04628 8.3205089,100.83512 7.7713979,101.60644 7.2643289,102.36161 6.7975978999999995,103.10188 6.3697558999999995,103.82836 5.9795859,104.542061 5.6260689,105.243894 5.3083719,105.934703 5.0258299,106.615265 4.7779329,107.286299 4.5643194000000005,107.948478 4.38476949,108.602432 4.2392018799999995,109.248758 4.127673,109.888027 4.0503785,110.520785 4.0076577,111.147561 4.0,111.768871 4.0280546,112.385225 4.0926443,112.997129 4.1947823,113.6050943 4.33568457,114.2096395 4.5160962,114.8113454 4.7358151,115.410863 4.9947234,116.008826 5.2928919,116.605851 5.630576899999999,117.202544 6.0082269,117.799504 6.4264869,118.397335 6.8862109,118.996649 7.388476900000001,119.598072 7.9346089,120.202253 8.5262059,120.809873 9.1651709,121.42165 9.8537649,122.03835 10.5946549,122.660801 11.3909899,123.289902 12.2464919,123.926641 13.1655709,124.57211 14.1534799,125.22754 15.2165049,125.89429 16.3622349,126.57392 17.599894900000002,127.26820000000001 18.9407949,127.97914 20.398964900000003,128.70899 21.9918849,129.46023 23.7414449,130.23542 25.6748049,131.03673 27.824314899999997,131.86477000000002 30.2237649,132.71554 32.913634900000005,133.58011 35.9520249,134.44699 39.390124899999996,135.29579 43.2395249,136.09656999999999 47.4398349,136.82019 51.8792349,137.46007 56.4866649,138.04577 61.2687849,138.60508 66.2404349,139.13927999999999 71.4162049,139.64772 76.8105649,140.12937 82.4369349,140.58268 88.3059749,141.00561 94.42310490000001,141.39554 100.78470490000001,141.7493 107.3735149,142.06329 114.16301490000001,142.33345 121.12521489999999,142.55586 128.2271149,142.72756 135.4322149,142.84678 142.70381490000003,142.91306 150.00671490000002,142.92723 157.3107149,142.89118 164.5910149,142.8076 171.8300149,142.67974 179.0171149,142.51101 186.1481149,142.30483 193.2249149,142.0644 200.2545149,141.79259 207.24901490000002,141.49183 214.22301489999998,141.16405 221.1899149,140.81081 228.1613149,140.43355 235.1475149,140.03363000000002 242.1572149,139.61239 249.1980149,139.17117 256.27611490000004,138.71138 263.3965149,138.23452 270.5627149,137.74221 277.77661489999997,137.23624 285.0384149,136.71859 292.3465149,136.19146 299.6971149,135.6573 307.0840149,135.1188 314.4724149,134.57987 321.8375149,134.04245 329.1864149,133.50607 336.52521490000004,132.97029 343.8594149,132.43475 351.19351489999997,131.89915 358.5313149,131.36326 365.8758149,130.82686999999999 373.22901490000004,130.28987 380.5924149,129.75218999999998 387.96641489999996,129.21382 395.3507149,128.67483 402.74381489999996,128.13535000000002 410.1355149,127.59614 417.5235149,127.05736 424.9099149,126.51879 432.2964149,125.98025 439.68441490000004,125.44159 447.0748149,124.90269 454.4681149,124.36347 461.8642149,123.823865 469.2618149,123.283923 476.65831490000005,122.743785 484.0545149,122.203328 491.4520149,121.662394 498.84731489999996,121.121171 506.23651490000003,120.579911 513.6165149,120.039166 520.9849148999999,119.500189 528.3397149,118.964262 535.6794148999999,118.432611 543.0030148999999,117.906409 550.3102149,117.386773 557.6011149,116.874767 564.8762148999999,116.37141 572.1368149,115.877673 579.3841149,115.394491 586.6204148999999,114.9227624 593.8479149,114.46336170000001 601.0696148999999,114.017142002 608.2888148999999,113.5849097 615.5088149,113.1668493 622.7326148999999,112.762649 629.9624148999999,112.372037 637.1998149,111.994792 644.4457148999999,111.630738 651.7003148999999,111.279737 658.9630149,110.941686 666.2326148999999,110.616505 673.5073148999999,110.304136 680.7842148999999,110.004538 688.0601148999999,109.717675 695.3309148999999,109.443517 702.5917148999999,109.182029 709.8373149,108.933254 717.0625148999999,108.697908 724.2633149,108.476973 731.4374148999999,108.271343 738.5840148999999,108.081835 745.7034148999999,107.909204 752.7975148999999,107.754165 759.8692148999999,107.617405 766.9227149,107.499608 773.9632148999999,107.40147400000001 780.9972148999999,107.32374 788.0323148999998,107.267206 795.0774148999999,107.23276 802.1426148999999,107.22141 809.2399148999999,107.234212 816.3811149,107.271267 823.5758149,107.332113 830.8301148999999,107.416319 838.1461149,107.523421 845.5216149,107.652847 852.9214149,107.80324 860.2849148999999,107.972213 867.6257148999999,108.158753 874.9653149,108.362224 882.3291148999999,108.582325 889.7232148999999,108.818299 897.0403148999999,109.065501 904.2328149,109.320703 911.2688148999999,109.58124 918.1224149,109.84521 924.7750148999999,110.111057 931.2150148999999,110.377441 937.4371148999999,110.643244 943.4404149,110.907567 949.2282149,111.169708 954.8060148999999,111.429135 960.1814148999999,111.685461 965.3632149,111.938413 970.3605149,112.187816 975.1828148999999,112.433564 979.8396148999999,112.675611 984.3401148999999,112.913954 988.6931149,113.1486219 992.9071148999999,113.3796684 996.9900148999999,113.6071641 1000.9494149,113.8311916 1004.2878149,114.0227" stroke="black" stroke-width="2.0" /></svg>