<?xml version="1.0" encoding="utf-8" ?>
<svg baseProfile="full" height="141.15739" version="1.1" width="1011.998521973" xmlns="http://www.w3.org/2000/svg" xmlns:ev="http://www.w3.org/2001/xml-events" xmlns:xlink="http://www.w3.org/1999/xlink"><defs /><polygon fill="none" points="1003.998521973,85.99571 1000.6179219730001,85.1122464 996.561021973,84.074259 992.3227219730001,83.01569 987.8908219730001,81.936864 983.2532219730001,80.838611 978.3987219730001,79.722442 973.318021973,78.590767 968.0051219730001,77.447141 962.459121973,76.296513 956.686121973,75.14544000000001 950.701721973,74.00192 944.5318219730001,72.87064000000001 938.209121973,71.75147 931.768921973,70.6425 925.245821973,69.53996000000001 918.6705219730001,68.43821 912.0677219730001,67.32990000000001 905.454021973,66.20606000000001 898.8375219730001,65.05735 892.2189219730001,63.88252 885.5971219730001,62.68448000000001 878.9710219730001,61.46616 872.3397219730001,60.23055000000001 865.702221973,58.98062 859.057521973,57.71940000000001 852.404721973,56.44993 845.742821973,55.175290000000004 839.071021973,53.89858 832.3882219730001,52.62294 825.693821973,51.35154 818.9866219730001,50.08759 812.266121973,48.834340000000005 805.531221973,47.59507 798.781421973,46.37281 792.016321973,45.16808 785.236121973,43.98023 778.441021973,42.808580000000006 771.631321973,41.6525 764.807421973,40.51133000000001 757.9698219730001,39.38443 751.119221973,38.27117 744.256221973,37.17092 737.381821973,36.08307 730.496921973,35.00699 723.602621973,33.94207 716.700021973,32.88771 709.7905219730001,31.843310000000002 702.875421973,30.808270000000007 695.956321973,29.782420000000002 689.0344219730001,28.76659 682.111221973,27.76175 675.188021973,26.768900000000002 668.2664219730001,25.78900000000001 661.347921973,24.823030000000003 654.4340219730001,23.871950000000005 647.526321973,22.936709999999998 640.626521973,22.018230000000003 633.7362219729999,21.117430000000013 626.857221973,20.235190000000003 619.9911219730001,19.3724 613.1397219730001,18.52987999999999 606.3046219729999,17.70844000000001 599.4877219730001,16.908879999999996 592.6906219730001,16.13207 585.914221973,15.378879999999995 579.158921973,14.65007 572.424321973,13.946309999999997 565.709521973,13.268200000000007 559.012821973,12.616259999999997 552.3320219730001,11.99099000000001 545.664321973,11.392840000000007 539.006421973,10.82226 532.354221973,10.279679999999999 525.7034219730001,9.765580000000014 519.048821973,9.28043000000001 512.3847219730001,8.824789999999993 505.70462197300003,8.399270000000001 499.001421973,8.004369999999994 492.267621973,7.63888 485.49702197299996,7.300799999999995 478.68472197299997,6.988219999999998 471.827321973,6.699289999999991 464.922821973,6.432190000000006 457.971221973,6.185100000000006 450.97442197299995,5.9561900000000065 443.93632197299996,5.743560000000002 436.863121973,5.545270000000002 429.763721973,5.359310000000008 422.64902197299995,5.183630000000008 415.532621973,5.016109999999998 408.429821973,4.854640000000003 401.357921973,4.697180000000003 394.33492197299995,4.54477 387.375421973,4.402459999999991 380.489621973,4.275180000000006 373.683521973,4.167420000000007 366.959021973,4.08323 360.315321973,4.026299999999992 353.748621973,4.0 347.253021973,4.007530000000003 340.820721973,4.051950000000005 334.44242197299997,4.136310000000009 328.107221973,4.263769999999994 321.802821973,4.437650000000005 315.51542197299995,4.661659999999998 309.229421973,4.939949999999996 302.92712197299994,5.277349999999998 296.588821973,5.675820000000002 290.196521973,6.128649999999993 283.737821973,6.627370000000013 277.206821973,7.1625899999999945 270.605621973,7.7235900000000015 263.94522197299995,8.298079999999999 257.246921973,8.872240000000005 250.542121973,9.431619999999995 243.86872197300002,9.974260000000001 237.257521973,10.510980000000004 230.727221973,11.05341 224.28552197300002,11.613079999999997 217.930821973,12.201319999999996 211.65372197300002,12.829420000000013 205.438321973,13.50891 199.26322197300001,14.250960000000006 193.104421973,15.058350000000004 186.941121973,15.929850000000002 180.75652197300002,16.864409999999992 174.537321973,17.8609 168.274121973,18.917900000000003 161.961321973,20.033410000000003 155.597821973,21.204530000000005 149.187621973,22.427600000000005 142.74012197300002,23.70107 136.270121973,25.023840000000007 129.79742197299998,26.39333 123.346921973,27.805330000000005 116.947221973,29.25399 110.62922197299999,30.73203 104.42432197299999,32.23109 98.362191973,33.74336 92.46501197299999,35.26751 86.738471973,36.80664 81.174871973,38.3664 75.75778197300001,39.95461 70.476441973,41.5795 65.358251973,43.23755 60.462661973,44.9104 55.855261973,46.57103000000001 51.584551973,48.19242 47.672801973000006,49.759620000000005 44.103071973000006,51.27425 40.835741973,52.74551 37.828241973000004,54.18453 35.042231973,55.60228000000001 32.445281973,57.008970000000005 30.010491972999997,58.41409 27.715061973,59.82688 25.535211973,61.255840000000006 23.462771973,62.69661000000001 21.507731973,64.1299 19.684391973000004,65.53026 18.000901973,66.87542 16.455721973000003,68.15156999999999 15.043581973000002,69.35300000000001 13.764200973,70.48021 12.609168973000001,71.54002 11.566195973,72.54118 10.623098973000001,73.49205 9.769092973,74.39998 8.995042973,75.27117 8.293351973,76.11087 7.657752973,76.923483 7.083089973,77.71274600000001 6.565132973,78.481857 6.100427973,79.233587 5.686173973,79.97036200000001 5.320123973,80.694339 5.000522973,81.407461 4.726042273,82.11150500000001 4.495751573,82.80812300000001 4.3090879730000005,83.498875 4.165845973,84.185265 4.066176283,84.868767 4.010597823,85.5508564 4.0,86.2330378 4.034473423,86.91663340000001 4.112727173,87.6026 4.233737873,88.29180600000001 4.396853573,88.98508100000001 4.601762873,89.683222 4.8484760730000005,90.387012 5.137316973,91.097226 5.468924973,91.81464 5.844265973,92.540036 6.264652973,93.274209 6.731773972999999,94.017965 7.247737973,94.77212300000001 7.815127973,95.53750600000001 8.437067973,96.31493 9.117311973,97.10516 9.860343972999999,97.90888000000001 10.671497973,98.72659 11.557079973,99.55847 12.524473973000001,100.4041 13.582155973,101.26203000000001 14.739471973000002,102.129 16.005871973,102.99865 17.389431973,103.86007000000001 18.902381973,104.70627 20.562291972999997,105.53661 22.387741973,106.35311 24.396841973,107.16262 26.605571973,107.98046000000001 29.026561973,108.83555 31.670181973,109.76498000000001 34.542801972999996,110.77292 37.639201973,111.84666 40.940721973,112.96462 44.41929197300001,114.09826000000001 48.047271973,115.2163 51.810541973,116.28936 55.722741973000005,117.293 59.83228197300001,118.22323 64.204161973,119.09663 68.910901973,119.93193000000001 74.02451197299999,120.75124 79.586491973,121.58193 85.548721973,122.44279 91.779781973,123.3149 98.135391973,124.17338000000001 104.513221973,125.00121 110.877121973,125.79145 117.22602197299999,126.54164 123.562421973,127.2498 129.891121973,127.91407000000001 136.218421973,128.53269 142.552521973,129.10386 148.903621973,129.62567 155.284021973,130.09602 161.707921973,130.51474000000002 168.188221973,130.88635 174.734321973,131.21571 181.351821973,131.50759 188.04152197300002,131.76677 194.799021973,131.99823 201.613621973,132.20719 208.46802197300002,132.39874 215.34132197300002,132.57349 222.215221973,132.72908999999999 229.076121973,132.86342000000002 235.915321973,132.97462000000002 242.728521973,133.06103000000002 249.51622197300003,133.12112000000002 256.28322197299997,133.15344 263.037321973,133.15739 269.78692197299995,133.13373 276.538821973,133.08316000000002 283.298821973,133.00633 290.071521973,132.9038 296.860521973,132.77609 303.668121973,132.62371000000002 310.495521973,132.44727 317.343421973,132.24779 324.212021973,132.02643 331.10162197299996,131.78438 338.01192197299997,131.52289000000002 344.94262197300003,131.2432 351.893121973,130.94663 358.862421973,130.63454000000002 365.849221973,130.30832 372.852121973,129.96941 379.869221973,129.6193 386.898421973,129.25954000000002 393.937121973,128.89170000000001 400.98272197299997,128.51741 408.03212197299996,128.13825 415.08212197299997,127.75474 422.129621973,127.36645000000001 429.17232197299995,126.97294000000001 436.20802197300003,126.57372000000001 443.23532197299994,126.1683 450.253021973,125.75619 457.26042197299995,125.33684 464.257421973,124.90972 471.244221973,124.47425 478.22142197299996,124.02985000000001 485.190121973,123.57589 492.151821973,123.11173 499.10842197299996,122.63668000000001 506.06222197299996,122.15002000000001 513.0158219729999,121.65151 519.971821973,121.14175 526.9327219730001,120.62142 533.900321973,120.09123 540.876621973,119.55192 547.862721973,119.00423 554.860021973,118.44892999999999 561.869121973,117.88683 568.8906219730001,117.31878 575.9245219730001,116.74564000000001 582.970821973,116.16833 590.028821973,115.58779 597.097721973,115.00503 604.176121973,114.42106 611.262521973,113.83677 618.353521973,113.25246 625.441321973,112.66866 632.526121973,112.08521 639.6093219730001,111.50187 646.692121973,110.91839 653.7757219730001,110.33457 660.861121973,109.75019 667.9490219730001,109.16505000000001 675.0399219730001,108.57898 682.129221973,107.99223 689.214221973,107.4049 696.2946219730001,106.81688 703.370321973,106.22805 710.4413219730001,105.63841 717.5078219730001,105.0486 724.569621973,104.45948 731.626821973,103.87192 738.6791219730001,103.28679 745.726021973,102.70497 752.7673219730001,102.12734 759.8023219730001,101.55479 766.830421973,100.98821000000001 773.8506219730001,100.42849 780.862321973,99.87652 787.864221973,99.33318 794.8555219730001,98.79936000000001 801.8348219730001,98.27593 808.801021973,97.76371 815.7528219730001,97.26309 822.689521973,96.77411000000001 829.611221973,96.29679 836.518421973,95.831099 843.412421973,95.376966 850.294721973,94.934295 857.1678219730001,94.502965 864.034421973,94.082837 870.898021973,93.673753 877.762521973,93.275548 884.632521973,92.888047 891.5131219730001,92.511073 898.410221973,92.14444900000001 905.330421973,91.787991 912.279621973,91.440321 919.254821973,91.097586 926.2380219730001,90.756158 933.1959219729999,90.413122 940.0821219730001,90.06639 946.841321973,89.714799 953.4162219730001,89.358124 959.755321973,88.997366 965.821521973,88.635881 971.5970219730001,88.27695200000001 977.078621973,87.92294100000001 982.274021973,87.575423 987.197021973,87.23535 991.8647219730001,86.9032214 996.295721973,86.5792122 1000.5083219730001,86.26328360000001 1003.998521973,85.99571" stroke="black" stroke-width="2.0" /></svg>