<?xml version="1.0" encoding="utf-8" ?>
<svg baseProfile="full" height="138.59037999999998" version="1.1" width="1011.994579131" xmlns="http://www.w3.org/2000/svg" xmlns:ev="http://www.w3.org/2001/xml-events" xmlns:xlink="http://www.w3.org/1999/xlink"><defs /><polygon fill="none" points="1003.994579131,67.29518999999999 1000.537979131,66.77121 996.373279131,66.14782 992.0016791310001,65.50277 987.406379131,64.834978 982.570379131,64.143572 977.477779131,63.428042 972.1148791310001,62.688477999999996 966.472979131,61.92586 960.551579131,61.14243 954.3616791310001,60.342067 947.930379131,59.530131999999995 941.298279131,58.711234 934.513379131,57.889313 927.624579131,57.06755 920.675779131,56.247879999999995 913.701979131,55.43074 906.725479131,54.61492 899.755079131,53.79776 892.789579131,52.977599999999995 885.825579131,52.154199999999996 878.859979131,51.327439999999996 871.8904791310001,50.497209999999995 864.914779131,49.66347 857.9313791310001,48.82621999999999 850.9389791310001,47.9855 843.936779131,47.14142 836.924279131,46.294129999999996 829.901679131,45.44385 822.8694791309999,44.59083 815.828579131,43.73541 808.7804791310001,42.87797 801.7271791310001,42.01895999999999 794.670879131,41.15899 787.613779131,40.29888 780.557979131,39.4394 773.5051791310001,38.58132 766.456779131,37.725359999999995 759.413979131,36.87219999999999 752.377679131,36.022479999999995 745.3484791310001,35.17683 738.326779131,34.3358 731.312579131,33.49994 724.305879131,32.66976 717.306079131,31.845709999999997 710.312579131,31.02825 703.3245791310001,30.21777 696.340879131,29.414579999999994 689.360279131,28.61871 682.381879131,27.83016 675.404979131,27.048959999999994 668.428879131,26.27516 661.453079131,25.508829999999996 654.4771791310001,24.750049999999995 647.5011791310001,23.99892 640.524879131,23.255559999999996 633.548379131,22.5201 626.572079131,21.79271 619.596379131,21.073529999999998 612.621779131,20.36275 605.648979131,19.66055 598.678979131,18.96718 591.712579131,18.283179999999994 584.750679131,17.609209999999997 577.793979131,16.945949999999996 570.8429791310001,16.294039999999995 563.898479131,15.654109999999996 556.960679131,15.026769999999992 550.030079131,14.412620000000004 543.1069791310001,13.812239999999996 536.191279131,13.226199999999999 529.2833791310001,12.655050000000003 522.382979131,12.099349999999994 515.4901791310001,11.559599999999996 508.60467913099995,11.036349999999999 501.726279131,10.530099999999997 494.85467913100007,10.041229999999999 487.989379131,9.569969999999998 481.13017913100003,9.116500000000002 474.276579131,8.681019999999997 467.428079131,8.263729999999995 460.583979131,7.864819999999995 453.74377913100005,7.484479999999998 446.906679131,7.122920000000001 440.072079131,6.7803499999999985 433.23897913100006,6.456969999999998 426.40677913100006,6.152999999999999 419.574279131,5.868659999999998 412.740579131,5.604189999999996 405.904679131,5.359819999999999 399.06537913100004,5.135799999999996 392.22167913100003,4.932130000000001 385.37267913100004,4.748739999999998 378.517979131,4.585539999999995 371.65727913100005,4.442479999999989 364.79087913100005,4.319499999999998 357.919179131,4.216539999999995 351.043079131,4.133569999999999 344.163579131,4.070509999999992 337.282179131,4.027289999999994 330.400879131,4.0038199999999975 323.521579131,4.0 316.646979131,4.0157000000000025 309.779679131,4.050729999999994 302.922879131,4.104919999999993 296.07987913100004,4.178490000000004 289.253779131,4.272759999999991 282.447479131,4.389200000000002 275.663079131,4.529230000000005 268.902179131,4.694200000000002 262.165879131,4.885469999999998 255.454679131,5.104319999999994 248.768879131,5.352039999999995 242.108079131,5.629889999999996 235.47157913099997,5.939149999999998 228.858279131,6.281079999999996 222.266679131,6.656989999999993 215.694779131,7.068199999999997 209.14047913099998,7.516089999999998 202.60117913099998,8.002099999999999 196.074079131,8.527349999999998 189.557179131,9.092150000000004 183.04917913100002,9.696629999999999 176.550379131,10.34086 170.06177913099998,11.024809999999995 163.585679131,11.748269999999998 157.125279131,12.510870000000004 150.684779131,13.312069999999999 144.269679131,14.151850000000003 137.886879131,15.030539999999995 131.54437913099997,15.94818 125.250979131,16.904360000000004 119.016479131,17.8983 112.85067913099999,18.928779999999996 106.763779131,19.99418 100.76583913099999,21.092819999999996 94.869749131,22.227669999999996 89.09605913099999,23.404059999999994 83.47064913099999,24.62415 78.021179131,25.88691 72.77341913099998,27.188539999999996 67.74833913100001,28.523249999999997 62.960239131,29.88402 58.416189131,31.263460000000002 54.116499131000005,32.65445999999999 50.057439131,34.048829999999995 46.24047913100001,35.431149999999995 42.670149131,36.78492 39.347739131000004,38.096360000000004 36.268769131000006,39.355509999999995 33.423049131,40.556309999999996 30.796129130999997,41.69615 28.371079131,42.77512 26.130319131,43.80458 24.061019131,44.8071 22.154629131,45.796009999999995 20.402249130999998,46.77735 18.793169131,47.753029999999995 17.315069131,48.722849999999994 15.955179131,49.68567 14.705239131,50.63643 13.559874130999999,51.56849 12.511294131,52.47901 11.551150131,53.36741 10.671573131,54.234309999999994 9.865547131,55.08089 9.126983131,55.90857 8.450671131,56.718849999999996 7.832190131,57.513217 7.2678121309999995,58.293088 6.754404131,59.059812 6.289359131,59.814657999999994 5.870523131000001,60.558823 5.496143131,61.293434999999995 5.164831131,62.019565 4.875525731,62.738239 4.627473231,63.450449 4.420212831,64.157161 4.253570331,64.859331 4.127659431,65.557919 4.042892571,66.25389899999999 4.0,66.9482752 4.0,67.6421048 4.042892571,68.33648099999999 4.127659431,69.032461 4.253570331,69.731049 4.420212831,70.433219 4.627473231,71.139931 4.875525731,71.852141 5.164831131,72.570815 5.496143131,73.296945 5.870523131000001,74.03155699999999 6.289359131,74.775722 6.754404131,75.530568 7.2678121309999995,76.297292 7.832190131,77.077163 8.450671131,77.87152999999999 9.126983131,78.68181 9.865547131,79.50949 10.671573131,80.35607 11.551150131,81.22297 12.511294131,82.11137 13.559874130999999,83.02189 14.705239131,83.95394999999999 15.955179131,84.90471 17.315069131,85.86753 18.793169131,86.83735 20.402249130999998,87.81303 22.154629131,88.79437 24.061019131,89.78327999999999 26.130319131,90.7858 28.371079131,91.81526 30.796129130999997,92.89423 33.423049131,94.03407 36.268769131000006,95.23487 39.347739131000004,96.49401999999999 42.670149131,97.80546 46.24047913100001,99.15923000000001 50.057439131,100.54155 54.116499131000005,101.93592000000001 58.416189131,103.32692 62.960239131,104.70635999999999 67.74833913100001,106.06712999999999 72.77341913099998,107.40183999999999 78.021179131,108.70347 83.47064913099999,109.96623 89.09605913099999,111.18632 94.869749131,112.36270999999999 100.76583913099999,113.49756 106.763779131,114.5962 112.85067913099999,115.66159999999999 119.016479131,116.69208 125.250979131,117.68601999999998 131.54437913099997,118.6422 137.886879131,119.55984000000001 144.269679131,120.43852999999999 150.684779131,121.27831 157.125279131,122.07951 163.585679131,122.84210999999999 170.06177913099998,123.56557000000001 176.550379131,124.24951999999999 183.04917913100002,124.89375 189.557179131,125.49822999999999 196.074079131,126.06303 202.60117913099998,126.58828 209.14047913099998,127.07428999999999 215.694779131,127.52217999999999 222.266679131,127.93339 228.858279131,128.3093 235.47157913099997,128.65123 242.108079131,128.96049 248.768879131,129.23834 255.454679131,129.48606 262.165879131,129.70490999999998 268.902179131,129.89618 275.663079131,130.06115 282.447479131,130.20118 289.253779131,130.31762 296.07987913100004,130.41189 302.922879131,130.48546 309.779679131,130.53965 316.646979131,130.57468 323.521579131,130.59037999999998 330.400879131,130.58656 337.282179131,130.56309 344.163579131,130.51987 351.043079131,130.45681 357.919179131,130.37384 364.79087913100005,130.27088 371.65727913100005,130.1479 378.517979131,130.00484 385.37267913100004,129.84163999999998 392.22167913100003,129.65825 399.06537913100004,129.45458 405.904679131,129.23056 412.740579131,128.98619 419.574279131,128.72172 426.40677913100006,128.43738 433.23897913100006,128.13341 440.072079131,127.81003 446.906679131,127.46745999999999 453.74377913100005,127.10589999999999 460.583979131,126.72556 467.428079131,126.32665 474.276579131,125.90935999999999 481.13017913100003,125.47388 487.989379131,125.02041 494.85467913100007,124.54915 501.726279131,124.06028 508.60467913099995,123.55403 515.4901791310001,123.03078 522.382979131,122.49103 529.2833791310001,121.93533 536.191279131,121.36418 543.1069791310001,120.77814000000001 550.030079131,120.17775999999999 556.960679131,119.56361000000001 563.898479131,118.93627000000001 570.8429791310001,118.29634 577.793979131,117.64443 584.750679131,116.98116999999999 591.712579131,116.3072 598.678979131,115.6232 605.648979131,114.92983 612.621779131,114.22763 619.596379131,113.51685 626.572079131,112.79767 633.548379131,112.07028 640.524879131,111.33482000000001 647.5011791310001,110.59146 654.4771791310001,109.84033 661.453079131,109.08155 668.428879131,108.31522 675.404979131,107.54142 682.381879131,106.76022 689.360279131,105.97166999999999 696.340879131,105.17580000000001 703.3245791310001,104.37261 710.312579131,103.56213 717.306079131,102.74467 724.305879131,101.92062 731.312579131,101.09044 738.326779131,100.25458 745.3484791310001,99.41354999999999 752.377679131,98.56790000000001 759.413979131,97.71818 766.456779131,96.86502 773.5051791310001,96.00906 780.557979131,95.15098 787.613779131,94.2915 794.670879131,93.43139 801.7271791310001,92.57142 808.7804791310001,91.71241 815.828579131,90.85497 822.8694791309999,89.99955 829.901679131,89.14653 836.924279131,88.29625 843.936779131,87.44896 850.9389791310001,86.60488 857.9313791310001,85.76416 864.914779131,84.92690999999999 871.8904791310001,84.09317 878.859979131,83.26294 885.825579131,82.43618 892.789579131,81.61278 899.755079131,80.79262 906.725479131,79.97546 913.701979131,79.15964 920.675779131,78.3425 927.624579131,77.52283 934.513379131,76.701067 941.298279131,75.87914599999999 947.930379131,75.060248 954.3616791310001,74.248313 960.551579131,73.44794999999999 966.472979131,72.66452 972.1148791310001,71.90190199999999 977.477779131,71.16233799999999 982.570379131,70.446808 987.406379131,69.755402 992.0016791310001,69.08761 996.373279131,68.44256 1000.537979131,67.81917 1003.994579131,67.29518999999999" stroke="black" stroke-width="2.0" /></svg>