<?xml version="1.0" encoding="utf-8" ?>
<svg baseProfile="full" height="262.6762" version="1.1" width="1012.008565486" xmlns="http://www.w3.org/2000/svg" xmlns:ev="http://www.w3.org/2001/xml-events" xmlns:xlink="http://www.w3.org/1999/xlink"><defs /><polygon fill="none" points="1004.008565486,143.8255 998.778765486,142.320528 992.557865486,140.532327 986.122565486,138.684799 979.460565486,136.774679 972.559665486,134.798666 965.407265486,132.75351 957.991765486,130.63613 950.302065486,128.44376 942.3292654859999,126.17417 934.0667654859999,123.8259 925.512065486,121.39863 916.667765486,118.89352000000001 907.5431654859999,116.31362000000001 898.155565486,113.66424 888.5304654859999,110.95276000000001 878.6985654859999,108.18785 868.6938654859999,105.37898000000001 858.5516654859999,102.53587 848.3061654859999,99.66792000000001 837.989065486,96.78364 827.627165486,93.89024 817.241765486,90.99325000000002 806.847665486,88.09637000000001 796.452565486,85.20150000000001 786.0599654859999,82.31060000000001 775.6741654859999,79.42652000000001 765.301265486,76.55265000000001 754.9495654859999,73.69287 744.628865486,70.85152000000001 734.3506654859999,68.03329000000001 724.128065486,65.24317 713.974865486,62.48629000000001 703.905865486,59.767870000000016 693.935865486,57.093680000000006 684.0766654859999,54.4714 674.335765486,51.907799999999995 664.7171654859999,49.40814 655.221165486,46.97639000000001 645.8455654859999,44.61542 636.585965486,42.327200000000005 627.4359654859999,40.112899999999996 618.3878654859999,37.9734 609.432965486,35.9088 600.5611654859999,33.919200000000004 591.7627654859999,32.0035 583.028665486,30.15960000000001 574.3505654859999,28.38560000000001 565.7207654859999,26.679900000000004 557.1318654859999,25.041299999999993 548.5771654859999,23.4687 540.049865486,21.961299999999994 531.543865486,20.518299999999996 523.0527654859999,19.139499999999998 514.570865486,17.824399999999997 506.092165486,16.573199999999986 497.610865486,15.385700000000014 489.12186548600005,14.260899999999992 480.62146548600003,13.197300000000013 472.10726548599996,12.193900000000014 463.57846548599997,11.249700000000018 455.035365486,10.363900000000001 446.48016548600003,9.536000000000001 437.91626548600004,8.765400000000028 429.348665486,8.051700000000011 420.78376548600005,7.394300000000015 412.229565486,6.7928 403.695165486,6.246399999999994 395.190965486,5.7549999999999955 386.727265486,5.32050000000001 378.313665486,4.944900000000018 369.95886548600004,4.630099999999999 361.670665486,4.3773000000000195 353.455965486,4.187600000000003 345.320565486,4.061700000000002 337.26946548600006,4.0 329.306765486,4.002600000000001 321.43596548600004,4.069500000000005 313.659565486,4.200400000000002 305.979365486,4.394900000000007 298.396965486,4.6524 290.91336548600003,4.9726 283.529865486,5.355200000000025 276.246865486,5.799700000000001 269.06476548600006,6.305800000000005 261.983465486,6.8726999999999805 255.002665486,7.499800000000022 248.121665486,8.186300000000017 241.339865486,8.931400000000025 234.65616548600002,9.734400000000022 228.069365486,10.5942 221.57836548600002,11.509999999999991 215.18176548600002,12.480899999999991 208.87806548600003,13.506 202.66576548600003,14.584400000000016 196.54386548600002,15.715399999999988 190.51296548599998,16.8985 184.575165486,18.1331 178.733565486,19.41810000000001 172.99186548600002,20.751800000000017 167.35426548600003,22.1323 161.825365486,23.55720000000001 156.40946548600002,25.02380000000001 151.110765486,26.52900000000001 145.93306548600003,28.069699999999997 140.879565486,29.6425 135.952865486,31.243899999999996 131.15496548599998,32.8703 126.486765486,34.5184 121.94886548599999,36.1846 117.540865486,37.86580000000001 113.261965486,39.55890000000001 109.11036548599999,41.26089999999999 105.084165486,42.96930000000002 101.18095548599999,44.68142 97.398755486,46.394999999999996 93.735665486,48.1078 90.189345486,49.81785000000001 86.757065486,51.52346 83.43584548599999,53.22313 80.22250548599999,54.91560000000001 77.113735486,56.599779999999996 74.106145486,58.27476 71.196295486,59.93976000000001 68.380765486,61.59415000000001 65.65616548599999,63.23740000000001 63.019145486,64.86912 60.466445486000005,66.48895 57.994865486,68.09667 55.601325486,69.69208 53.282845486,71.27509 51.036695486000006,72.84678000000001 48.860785486,74.40972000000001 46.753495486000006,75.96600000000001 44.713495486,77.51711000000002 42.739615486000005,79.06408 40.830805486,80.60752000000002 38.986005486,82.14774 37.204105486,83.68479 35.483945485999996,85.21853 33.824255486,86.74865 32.223655486,88.27475000000001 30.680695485999998,89.79634000000001 29.193805486,91.31293 27.761585485999998,92.8237 26.383715486,94.32651000000001 25.059885485999995,95.8192 23.789295485999997,97.3002 22.570865486,98.76841 21.403305485999997,100.22306 20.285195486,101.66371000000001 19.215065486,103.09013 18.191405486,104.50229000000002 17.212735486,105.90027 16.277625485999998,107.2843 15.384655486,108.65465 14.532525486,110.01167000000001 13.719947485999999,111.35575 12.945753486000001,112.68732 12.208825485999999,114.00682 11.508127486,115.31472000000001 10.842696486000001,116.61149 10.211644486,117.89760000000001 9.614151486,119.17353 9.049466486,120.43976 8.516907486000001,121.69675000000001 8.015853486000001,122.94500000000001 7.545747486,124.18495 7.106093486000001,125.41708 6.696452486,126.64184 6.316444486,127.85969 5.965743486,129.07109 5.644079486,130.27647000000002 5.3512374860000005,131.4763 5.087055486000001,132.67102 4.851427986,133.861077 4.644300786,135.04692400000002 4.465676986,136.229015 4.3156154860000004,137.40780800000002 4.194233286,138.58376900000002 4.101707466,139.757373 4.038277836,140.929103 4.004250122,142.099458 4.0,143.26895000000002 4.025953376,144.4381102 4.082112736,145.60744400000002 4.168086986,146.777412 4.283540486,147.948452 4.428206486,149.120983 4.601883686,150.29541 4.804432986,151.472124 5.035774486,152.651503 5.295886486,153.83391 5.584803486,155.01971 5.902612486,156.20925 6.249458486,157.40287 6.625537486000001,158.60089 7.031100486,159.80365 7.466451486,161.01145 7.931949486000001,162.22461 8.428009486,163.44343 8.955099486,164.6682 9.513749486,165.8992 10.104545486,167.13669000000002 10.728131485999999,168.38093 11.385217486,169.63216 12.076572486,170.89059 12.803031486,172.15641 13.565492486,173.42978 14.364925486,174.71083000000002 15.202345486,175.99963000000002 16.078865486,177.29621 16.995635485999998,178.60051 17.953855486000002,179.91243 18.954805485999998,181.23172 19.999775485999997,182.55804 21.090085485999996,183.89089 22.227065485999997,185.22959 23.412025486,186.57326 24.646175486,187.92074000000002 25.930665486,189.27057 27.266405485999996,190.62091 28.654075485999996,191.9695 30.094095485999997,193.31375 31.587455485999996,194.65237000000002 33.135545486,195.98492 34.739685486,197.311 36.401145486,198.63032 38.121125486000004,199.94273 39.900755486,201.24819 41.741135486000005,202.54686 43.643315486000006,203.83912 45.608315486,205.12559000000002 47.637195486,206.40722 49.731095486,207.68528 51.891255486,208.96147000000002 54.119145486,210.23799000000002 56.416735486,211.51694 58.786845486,212.79856999999998 61.232565486,214.08270000000002 63.757155486,215.36908 66.364015486,216.65745 69.056675486,217.9475 71.838795486,219.23887000000002 74.71418548599999,220.53114 77.686725486,221.82384000000002 80.760425486,223.11642 83.93931548599998,224.40825 87.22743548599999,225.69864 90.62880548599999,226.98678 94.14729548599999,228.27175 97.786615486,229.55254000000002 101.55010548599999,230.82801 105.44066548599999,232.09685000000002 109.461465486,233.35738 113.616165486,234.60729 117.908265486,235.84403 122.340565486,237.06485 126.91536548599998,238.26677 131.634265486,239.44665 136.49786548600002,240.60122 141.50616548600001,241.72711 146.65786548600002,242.82091000000003 151.950965486,243.8793 157.38256548600003,244.8989 162.94886548600002,245.8768 168.645565486,246.8102 174.46786548600002,247.6966 180.411065486,248.53410000000002 186.470765486,249.3209 192.643265486,250.05610000000001 198.925965486,250.739 205.31796548600002,251.36950000000002 211.820765486,251.9475 218.437765486,252.4721 225.172365486,252.9426 232.02806548600003,253.35829999999999 239.00846548600003,253.7182 246.116865486,254.02179999999998 253.356765486,254.26839999999999 260.731465486,254.45749999999998 268.24396548600004,254.5886 275.897165486,254.66160000000002 283.693565486,254.6762 291.635365486,254.63260000000002 299.72396548600005,254.5313 307.960365486,254.3727 316.344865486,254.1572 324.876365486,253.8845 333.55146548600004,253.55470000000003 342.36376548600003,253.1683 351.303865486,252.7265 360.358265486,252.231 369.50976548600005,251.6842 378.736865486,251.08960000000002 388.014065486,250.45120000000003 397.312365486,249.7742 406.59976548599997,249.06420000000003 415.843465486,248.3245 425.015165486,247.55310000000003 434.095265486,246.7475 443.072265486,245.9049 451.941965486,245.0224 460.706465486,244.0967 469.37306548600003,243.1242 477.953565486,242.10071 486.46356548600005,241.0215 494.92236548600005,239.88101 503.352965486,238.6726 511.78216548600005,237.38989 520.2391654859999,236.03338000000002 528.750765486,234.60586 537.341465486,233.11016 546.032865486,231.54951 554.844065486,229.92781000000002 563.791165486,228.25 572.886165486,226.52247 582.135865486,224.7535 591.540565486,222.95371 601.0920654859999,221.13644 610.7714654859999,219.31697000000003 620.550965486,217.50189 630.4009654859999,215.69122 640.294565486,213.88397 650.207865486,212.07827 660.1213654860001,210.27140000000003 670.0200654859999,208.45978000000002 679.8937654859999,206.63904000000002 689.7368654859999,204.80406 699.548565486,202.949 709.332165486,201.06756000000001 719.095465486,199.15872000000002 728.847165486,197.22649 738.595365486,195.27514 748.3475654859999,193.30898000000002 758.110465486,191.33244000000002 767.8904654859999,189.3501 777.6931654859999,187.36668 787.523965486,185.38712 797.387365486,183.41656 807.287565486,181.46033 817.226765486,179.52074000000002 827.201465486,177.59572 837.2017654859999,175.68386 847.210965486,173.7849 857.205965486,171.89971 867.1576654859999,170.03019 877.0322654859999,168.17918 886.792365486,166.35021 896.399865486,164.54725000000002 905.817365486,162.77444 915.011565486,161.03636 923.956465486,159.33824 932.6345654859999,157.684 941.0363654859999,156.07609 949.1582654859999,154.51579 957.002065486,153.003387 964.573065486,151.538408 971.879365486,150.119829 978.930865486,148.746239 985.738465486,147.41597000000002 992.313765486,146.127204 998.668265486,144.878048 1004.008565486,143.8255" stroke="black" stroke-width="2.0" /></svg>