<?xml version="1.0" encoding="utf-8" ?>
<svg baseProfile="full" height="92.26906" version="1.1" width="1011.99997518132" xmlns="http://www.w3.org/2000/svg" xmlns:ev="http://www.w3.org/2001/xml-events" xmlns:xlink="http://www.w3.org/1999/xlink"><defs /><polygon fill="none" points="1003.99997518132,53.577580000000005 1000.87627518132,53.230076000000004 997.0131751813201,52.799727000000004 992.83227518132,52.333272 988.29397518132,51.826086000000004 983.36317518132,51.274032000000005 978.02167518132,50.674822 972.28787518132,50.030242 966.23797518132,49.348240000000004 959.99687518132,48.640289 953.69057518132,47.91733 947.41157518132,47.186730000000004 941.1994751813199,46.450265 935.0446751813199,45.704636 928.91057518132,44.947465 922.76577518132,44.17915 916.58947518132,43.40131 910.37167518132,42.61698 904.11337518132,41.83067 897.8258751813199,41.045970000000004 891.52187518132,40.263850000000005 885.2116751813201,39.48474 878.90257518132,38.70867 872.59877518132,37.93531 866.30167518132,37.164339999999996 860.0111751813199,36.396420000000006 853.72657518132,35.63233 847.4473751813199,34.87285 841.17247518132,34.11873 834.90077518132,33.37066 828.63127518132,32.62895 822.36287518132,31.89365 816.09507518132,31.164820000000002 809.82737518132,30.44255 803.55987518132,29.72699 797.29257518132,29.018300000000004 791.02597518132,28.316720000000004 784.76017518132,27.622510000000002 778.49547518132,26.93589 772.23197518132,26.257110000000004 765.96967518132,25.58639 759.7085751813199,24.92394 753.4486751813199,24.269960000000005 747.18977518132,23.624660000000006 740.9318751813199,22.988210000000002 734.6745751813199,22.360820000000004 728.4178751813199,21.74266 722.16147518132,21.13393 715.90517518132,20.53474 709.6487751813199,19.945130000000006 703.39217518132,19.365159999999996 697.1351751813199,18.794890000000002 690.8778751813201,18.234390000000005 684.62007518132,17.68372 678.36187518132,17.142950000000006 672.10337518132,16.61219 665.84467518132,16.09151 659.58577518132,15.58101 653.32687518132,15.08079 647.06827518132,14.590940000000003 640.8099751813199,14.11157 634.5522751813199,13.64284 628.29527518132,13.184910000000002 622.03877518132,12.737929999999999 615.78267518132,12.302030000000002 609.52667518132,11.877360000000003 603.2704751813201,11.463999999999999 597.01357518132,11.061930000000004 590.75577518132,10.671079999999996 584.4969751813201,10.291390000000007 578.2368751813201,9.922810000000005 571.97577518132,9.56532 565.71357518132,9.218870000000003 559.45057518132,8.883490000000002 553.18697518132,8.559200000000004 546.92287518132,8.246050000000004 540.65847518132,7.944040000000001 534.3941751813201,7.653220000000005 528.12997518132,7.3736200000000025 521.86627518132,7.1052899999999966 515.6029751813201,6.848300000000002 509.33987518131994,6.602719999999998 503.07667518131996,6.3685899999999975 496.81287518132,6.145969999999998 490.54797518132,5.934870000000004 484.28117518132,5.735130000000005 478.01217518132,5.546510000000005 471.74077518132003,5.368790000000004 465.46737518132005,5.20176 459.19227518132,5.045200000000001 452.91627518132,4.898960000000002 446.64017518132,4.763100000000001 440.36467518131997,4.637819999999998 434.09027518131995,4.523270000000004 427.81737518132,4.419640000000001 421.54617518132,4.327069999999999 415.27677518132,4.245730000000002 409.00887518132,4.175740000000005 402.74247518132,4.11721 396.47707518132,4.0702599999999975 390.21237518132,4.035000000000004 383.94787518132,4.011540000000004 377.68277518132,4.0 371.41667518132,4.000330000000005 365.14927518132,4.012410000000003 358.88067518132,4.036120000000004 352.61137518132,4.0713500000000025 346.34227518131996,4.117960000000004 340.07447518132,4.175870000000003 333.80937518132,4.245379999999997 327.54797518132,4.326950000000004 321.29077518132,4.421039999999998 315.03817518131996,4.528100000000002 308.78987518132,4.648600000000002 302.54567518132,4.782970000000006 296.30477518132,4.931530000000002 290.06697518132,5.0945800000000006 283.83187518132,5.272419999999997 277.59957518132,5.4653200000000055 271.36997518132,5.673589999999997 265.14327518132,5.897500000000001 258.91977518132,6.137340000000002 252.69967518132,6.3934 246.48327518132,6.665960000000005 240.27077518132,6.955309999999997 234.06247518132,7.2617699999999985 227.85877518132,7.585900000000002 221.66067518132002,7.928310000000003 215.46947518132,8.2896 209.28687518132,8.670299999999997 203.11487518132,9.070909999999998 196.95577518132,9.492280000000001 190.81017518132,9.935560000000002 184.67767518131998,10.402010000000004 178.55587518132,10.892980000000001 172.44157518132,11.409950000000002 166.33057518132,11.953810000000004 160.22137518132,12.524690000000007 154.11527518132002,13.122430000000001 148.01667518131998,13.746540000000003 141.93287518132,14.396340000000002 135.87237518132,15.072960000000002 129.84077518132,15.778770000000002 123.84027518132,16.516380000000005 117.86977518132,17.288710000000002 111.92567518132,18.098570000000002 106.00497518131999,18.947670000000002 100.10752518132,19.837180000000004 94.23580518132,20.767780000000002 88.39525518132,21.73999 82.59604518132,22.75618 76.85510518132,23.818400000000004 71.19498518131999,24.926650000000002 65.64195518132,26.07887 60.22073518132,27.272180000000002 54.945155181320004,28.504910000000002 49.817915181320004,29.77683 44.83473518132,31.0894 40.023775181320005,32.44367 35.50393518132,33.81495 31.413235181319997,35.15617 27.81868518132,36.42676 24.70227518132,37.615300000000005 21.99106518132,38.735170000000004 19.60498518132,39.80273 17.478755181319997,40.83148 15.561745181320001,41.83231000000001 13.820739181319999,42.81671 12.251675181320001,43.7962 10.86115618132,44.7682 9.64861418132,45.723126 8.602506181319999,46.651678000000004 7.703944181320001,47.547894 6.9317731813200005,48.409292 6.270761181319999,49.233726000000004 5.71203418132,50.020499 5.24521118132,50.773482 4.86099218132,51.497996 4.55217318132,52.199426 4.31370958132,52.882846 4.14258108132,53.553017000000004 4.03770494132,54.214542200000004 4.0,54.872090252 4.03109779132,55.5303234 4.12877118132,56.192549 4.29147008132,56.861228000000004 4.51959618132,57.538360000000004 4.81534368132,58.225483000000004 5.18269618132,58.923514000000004 5.62750518132,59.632365 6.15751918132,60.350154 6.78206718132,61.071652 7.51081718132,61.785789 8.35633718132,62.482181000000004 9.33666118132,63.156733 10.471845181319999,63.80613 11.782560181320001,64.42882 13.28776718132,65.02767 15.00134518132,65.61484 16.93077518132,66.21793 19.099945181320003,66.85457 21.54950518132,67.52354 24.31788518132,68.2188 27.43503518132,68.92905 30.92781518132,69.64046 34.832915181320004,70.34291 39.17423518132,71.02894 43.94071518132001,71.69295 49.078355181320006,72.33559 54.506515181320005,72.95794000000001 60.13875518132,73.54938 65.89738518132,74.10236 71.73878518132,74.61563000000001 77.65771518132,75.09294 83.65502518132,75.53913 89.72414518132,75.95898 95.84970518132,76.35714 102.01038518132,76.73561000000001 108.18887518132,77.09396000000001 114.37567518131999,77.43231 120.56907518131999,77.75132 126.77437518132,78.05246 132.99707518132,78.33805000000001 139.23977518132,78.61032 145.50197518131998,78.8714 151.77987518132,79.12313 158.06797518132,79.3661 164.36157518131998,79.60053 170.65687518132,79.82667000000001 176.95097518132,80.04485 183.24197518132002,80.25512 189.52877518132,80.4569 195.81077518132,80.64950999999999 202.08797518132,80.83228 208.36097518132,81.00460000000001 214.63067518132,81.16739 220.89767518131998,81.32478 227.16207518132,81.48132000000001 233.42337518131998,81.64151 239.68017518132,81.80981 245.93087518132,81.9889 252.17397518132,82.17471 258.40907518131996,82.36161 264.63647518132,82.54400000000001 270.85737518132004,82.71638 277.07367518131997,82.87347 283.28797518131995,83.01298 289.50247518132,83.13517 295.71907518132,83.24034 301.93947518132,83.32879 308.16507518132,83.40076 314.39697518132,83.45703 320.63597518131996,83.50124 326.88237518132,83.53804 333.13627518132,83.57212 339.39737518132,83.6082 345.66487518132,83.65102 351.93767518132,83.70369 358.21477518131996,83.76401 364.49557518132,83.8287 370.78007518132,83.89446 377.06837518132,83.95797 383.36137518132,84.01594 389.66007518132,84.06609 395.96547518132,84.10879 402.27807518132005,84.14484 408.59757518132,84.17502999999999 414.92327518132,84.20016000000001 421.25397518132,84.22104 427.58777518132,84.23824 433.92297518132,84.25173000000001 440.25807518131995,84.26142 446.59217518132,84.26723 452.92457518132,84.26906 459.25507518132,84.26683 465.58377518132,84.26044999999999 471.91097518132,84.24978 478.23697518132,84.23469 484.56197518132,84.21504 490.88637518132,84.19072 497.21037518132,84.16157 503.53427518131997,84.12753000000001 509.85827518132,84.0886 516.1825751813201,84.04485 522.50727518132,83.9963 528.8321751813199,83.94301 535.15737518132,83.88502 541.48257518132,83.82235 547.80757518132,83.75496000000001 554.13227518132,83.68281 560.45647518132,83.60585 566.77997518132,83.52405 573.10287518132,83.43736 579.42487518132,83.34572 585.7460751813201,83.24901 592.06617518132,83.14712 598.38527518132,83.03994 604.70327518132,82.92734 611.01997518132,82.80921000000001 617.3353751813199,82.68543 623.64947518132,82.55588 629.96207518132,82.42041 636.27347518132,82.27891 642.58377518132,82.13122 648.8931751813201,81.97722 655.20187518132,81.81679 661.51007518132,81.64988 667.81797518132,81.47643 674.12527518132,81.29639 680.4317751813201,81.10975 686.73717518132,80.91645 693.04077518132,80.71643 699.34207518132,80.50941 705.6407751813199,80.29512 711.93637518132,80.07323 718.22897518132,79.84346 724.51857518132,79.60548 730.80527518132,79.35900000000001 737.0892751813201,79.10377 743.37087518132,78.83954 749.65007518132,78.56608 755.92707518132,78.28318 762.20197518132,77.99059 768.47457518132,77.68809 774.74497518132,77.37548000000001 781.0129751813199,77.05252 787.27847518132,76.71901 793.54147518132,76.37475 799.80147518132,76.01952 806.05857518132,75.65311 812.3121751813201,75.27516 818.56197518132,74.88516 824.80727518132,74.48262 831.04707518132,74.06708 837.28037518132,73.63811 843.50587518132,73.1953 849.7228751813201,72.73834 855.93197518132,72.26689 862.1350751813201,71.78048 868.33597518132,71.27850000000001 874.53977518132,70.76016 880.75237518132,70.22473000000001 886.9766751813199,69.67212 893.2097751813201,69.1028 899.44247518132,68.51786 905.65927518132,67.91908000000001 911.83977518132,67.30851 917.9663751813199,66.68518 924.0355751813199,66.04574 930.05827518132,65.38551000000001 936.05807518132,64.698262 942.07157518132,63.97595 948.1404751813201,63.213072000000004 954.27857518132,62.411928 960.45277518132,61.581626 966.57887518132,60.739069 972.53527518132,59.907198 978.19787518132,59.10842 983.48717518132,58.355809 988.37967518132,57.654058 992.88907518132,57.002503000000004 997.04697518132,56.397681 1000.89097518132,55.8350567 1003.99997518132,55.37758" stroke="black" stroke-width="2.0" /></svg>