<?xml version="1.0" encoding="utf-8" ?>
<svg baseProfile="full" height="112.51983999999999" version="1.1" width="1012.007713819" xmlns="http://www.w3.org/2000/svg" xmlns:ev="http://www.w3.org/2001/xml-events" xmlns:xlink="http://www.w3.org/1999/xlink"><defs /><polygon fill="none" points="1004.007713819,73.94032 1000.4987138189999,73.666848 996.174313819,73.324105 991.521713819,72.948287 986.515413819,72.53573899999999 981.1446138189999,72.083716 975.424813819,71.59159199999999 969.405713819,71.061595 963.154913819,70.497794 956.738213819,69.904533 950.2002138189999,69.28464199999999 943.560213819,68.639194 936.8329138189999,67.969232 930.034813819,67.276113 923.1831138189999,66.561462 916.293913819,65.826923 909.379813819,65.073882 902.448913819,64.30335 895.5050138189999,63.51593 888.550613819,62.712109999999996 881.5884138189999,61.89239 874.620913819,61.05732 867.6506138189999,60.207229999999996 860.679613819,59.342349999999996 853.7094138189999,58.46283 846.7411138189999,57.56873999999999 839.775213819,56.65997 832.812513819,55.73639 825.8534138189999,54.79786 818.8982138189999,53.84415 811.9462138189999,52.87488999999999 804.9964138189999,51.88959 798.046713819,50.88782 791.0949138189999,49.8695 784.1387138189999,48.83463 777.176013819,47.78322 770.204513819,46.71563999999999 763.221813819,45.63253999999999 756.225413819,44.53453 749.212713819,43.42241 742.181913819,42.29772 735.133613819,41.16254 728.070513819,40.01931 720.9974138189999,38.87098999999999 713.920013819,37.720839999999995 706.8447138189999,36.57224 699.7784138189999,35.42858 692.726813819,34.29279 685.693013819,33.16732 678.6773138189999,32.054109999999994 671.6782138189999,30.954449999999994 664.6939138189999,29.869299999999996 657.7231138189999,28.799659999999996 650.764513819,27.74649 643.817013819,26.710499999999996 636.879013819,25.692259999999997 629.9487138189999,24.692309999999992 623.0238138189999,23.710869999999993 616.1027138189999,22.747909999999997 609.184313819,21.803459999999994 602.268313819,20.87766 595.354613819,19.970689999999998 588.4435138189999,19.082779999999993 581.5350138189999,18.21412 574.6293138189999,17.364939999999997 567.7271138189999,16.535549999999994 560.829113819,15.726279999999996 553.936913819,14.937519999999992 547.0519138189999,14.16997 540.176013819,13.424529999999997 533.3108138189999,12.702079999999995 526.4581138189999,12.00356 519.6193138189999,11.330260000000003 512.7950138190001,10.683499999999995 505.98521381899997,10.064490000000006 499.189213819,9.474309999999988 492.405813819,8.913899999999998 485.633413819,8.384159999999994 478.869513819,7.88591000000001 472.111813819,7.419539999999998 465.357313819,6.98518 458.60341381899997,6.582979999999992 451.846813819,6.213009999999997 445.084813819,5.874780000000001 438.314613819,5.567670000000007 431.534213819,5.291109999999989 424.741413819,5.044449999999998 417.934813819,4.826750000000004 411.112913819,4.637019999999993 404.274713819,4.474329999999995 397.41921381900005,4.337619999999987 390.545913819,4.225769999999997 383.654713819,4.137619999999998 376.745713819,4.072029999999998 369.81941381900003,4.027940000000001 362.87631381899996,4.0042899999999975 355.917113819,4.0 348.942713819,4.0141200000000055 341.953813819,4.04589 334.951613819,4.0945799999999934 327.937113819,4.159450000000007 320.911513819,4.2397299999999944 313.876113819,4.334630000000004 306.832213819,4.443339999999992 299.78131381900005,4.565200000000004 292.725113819,4.700019999999995 285.66521381900003,4.847700000000003 278.60361381900003,5.008099999999999 271.542213819,5.181070000000005 264.483213819,5.36645 257.428813819,5.564040000000006 250.38161381900002,5.773780000000002 243.343913819,5.996049999999997 236.318113819,6.23133 229.306613819,6.480109999999996 222.311913819,6.74297 215.337113819,7.0205899999999986 208.38661381900002,7.313590000000005 201.465513819,7.622589999999988 194.58021381900002,7.948939999999993 187.73821381899998,8.29419999999999 180.947813819,8.659679999999994 174.218413819,9.047079999999994 167.559613819,9.45957 160.98071381900002,9.900230000000008 154.490813819,10.371669999999995 148.09821381900002,10.877069999999996 141.811313819,11.420770000000005 135.637513819,12.006520000000002 129.583513819,12.637279999999997 123.65531381900001,13.31586 117.858313819,14.045719999999996 112.196713819,14.829629999999995 106.673313819,15.669529999999995 101.290153819,16.566699999999997 96.04978381900001,17.52247 90.957553819,18.53747 86.020113819,19.61077999999999 81.244233819,20.740069999999996 76.63591381900001,21.921859999999995 72.200553819,23.152179999999994 67.942263819,24.427299999999995 63.86220381900001,25.74328 59.958873819000004,27.0961 56.22878381900001,28.481809999999996 52.666923819000004,29.896639999999998 49.267383819,31.337079999999993 46.026813819,32.79971 42.946723819000006,34.27922 40.030453819,35.76826 37.280653819,37.258489999999995 34.697793819,38.74159999999999 32.279583818999996,40.209999999999994 30.021053819,41.65733999999999 27.914993819,43.07867999999999 25.953113819,44.470499999999994 24.127983818999997,45.83089 22.431233819,47.159389999999995 20.853713819,48.45653 19.386253818999997,49.723389999999995 18.020073818999997,50.96138 16.747003819,52.17205 15.559523818999999,53.35697999999999 14.450823819,54.51774 13.414759819,55.655829999999995 12.445879819,56.77278 11.540159819,57.87062 10.694905818999999,58.950399999999995 9.908001818999999,60.01204 9.177477819,61.0548 8.501262819,62.077659999999995 7.877064819,63.07951 7.3023478189999995,64.05938 6.774395819,65.01652 6.292378819,65.9498 5.857638819,66.85828599999999 5.470360819,67.742542 5.129948819,68.60408699999999 4.835499519,69.444952 4.586097219,70.267412 4.380991719,71.07384499999999 4.219714119,71.86666199999999 4.102156899,72.648285 4.028643109,73.421157 4.0,74.1877786 4.017633573,74.9507557 4.082163559,75.71234439999999 4.192363719,76.473837 4.347445919,77.23616899999999 4.547226419,78.000018 4.792060919,78.765805 5.082805819,79.53367899999999 5.420791819,80.30346399999999 5.807808819,81.07459 6.246088819000001,81.845978 6.738266819,82.615881 7.2873148190000006,83.381667 7.896401819,84.13951399999999 8.568642819,84.88404 9.306758818999999,85.60896 10.113219819000001,86.31233999999999 10.990259819,86.99417 11.939710819,87.65496999999999 12.962875818999999,88.29593 14.060373818999999,88.91914 15.231963818999999,89.52786 16.476413818999998,90.12687 17.791273818999997,90.7229 19.173733819,91.32435 20.632393818999997,91.93142 22.182213818999998,92.53872 23.831813819,93.14515 25.589243819,93.75040999999999 27.463123819,94.3544 29.462753819,94.95739 31.599023819,95.55939 33.885503819,96.15884 36.336713818999996,96.75347 38.967293819,97.34055 41.791213819,97.91665 44.821013819,98.47667 48.06635381900001,99.01418 51.532463819,99.52213 55.219543819,99.99337 59.123373819,100.42141 63.23827381900001,100.80123 67.562823819,101.13 72.106313819,101.40575 76.882703819,101.6259 81.90381381899999,101.78849 87.176973819,101.89276 92.702233819,101.93966999999999 98.471073819,101.9315 104.468213819,101.87261 110.672813819,101.77043 117.061113819,101.63506 123.606113819,101.47636 130.275413819,101.30479 137.031113819,101.13238 143.833313819,100.97027 150.649813819,100.82521 157.463913819,100.70282 164.27531381900002,100.60802 171.094813819,100.54217 177.93351381899998,100.50434 184.799713819,100.49374999999999 191.69921381900002,100.50919999999999 198.63551381899998,100.54791 205.609913819,100.60668 212.621613819,100.6822 219.66751381900002,100.77186 226.743913819,100.87361 233.846913819,100.98535 240.972613819,101.1052 248.117213819,101.23208 255.278113819,101.36513 262.453813819,101.50347 269.643413819,101.64635 276.846113819,101.79311 284.060213819,101.94306 291.28391381899996,102.09549 298.51481381900004,102.24969 305.749913819,102.40491 312.98611381899997,102.56039999999999 320.219713819,102.7154 327.44801381900004,102.86914 334.668513819,103.02089 341.879213819,103.16993 349.078813819,103.31554 356.266613819,103.45705 363.442113819,103.59374 370.605213819,103.72476999999999 377.75571381900005,103.84923 384.892913819,103.96621999999999 392.016413819,104.07476 399.12581381900003,104.17379 406.221113819,104.26227 413.302513819,104.33918 420.370813819,104.40357999999999 427.42781381900005,104.45454 434.47541381900004,104.49118 441.51651381899995,104.51299 448.553013819,104.51983999999999 455.586213819,104.51159999999999 462.616913819,104.48816 469.645413819,104.44945 476.67291381900003,104.39542 483.701113819,104.32603 490.731713819,104.24143 497.764913819,104.14197 504.799513819,104.02803 511.832513819,103.89985 518.8619138189999,103.75683 525.888913819,103.59813 532.9184138189999,103.42286 539.957413819,103.23119 547.011313819,103.02449999999999 554.082213819,102.80434 561.1688138189999,102.57221999999999 568.2688138189999,102.32911 575.3814138189999,102.07579 582.506813819,101.81298 589.646913819,101.54159999999999 596.802413819,101.26284 603.9731138189999,100.97796 611.157613819,100.68817999999999 618.353713819,100.39439 625.5595138189999,100.09732 632.773813819,99.79773999999999 639.9951138189999,99.49620999999999 647.2224138189999,99.19315 654.4543138189999,98.88898 661.689413819,98.58412 668.926513819,98.27891 676.164213819,97.9737 683.401713819,97.66879 690.6379138189999,97.36412 697.871813819,97.05936 705.102313819,96.75417999999999 712.3280138189999,96.44824 719.5476138189999,96.14116 726.759513819,95.83256 733.9621138189999,95.52204 741.153813819,95.2089 748.3334138189999,94.89224999999999 755.5003138189999,94.57123 762.6542138189999,94.24494999999999 769.795113819,93.91257999999999 776.9231138189999,93.57328 784.038313819,93.22622 791.140613819,92.87054 798.229613819,92.5054 805.3044138189999,92.12998999999999 812.363613819,91.74339 819.4074138189999,91.34434999999999 826.4381138189999,90.93145999999999 833.460413819,90.50321 840.479913819,90.05905 847.5006138189999,89.59928 854.5236138189999,89.12436 861.547913819,88.63486 868.5722138189999,88.13107 875.5979138189999,87.61308 882.628613819,87.08079 889.668913819,86.53493999999999 896.718313819,85.97766 903.769013819,85.41172999999999 910.8062138189999,84.84009 917.8131138189999,84.26344499999999 924.7771138189999,83.681485 931.690613819,83.09361899999999 938.5474138189999,82.500508 945.327413819,81.90585399999999 951.993613819,81.315023 958.4970138189999,80.73353999999999 964.784813819,80.15797599999999 970.810013819,79.580795 976.5381138189999,78.99703199999999 981.950013819,78.404264 987.042113819,77.805607 991.825013819,77.206943 996.3175138189999,76.612462 1000.5422138189999,76.024924 1004.007713819,75.52232" stroke="black" stroke-width="2.0" /></svg>