<?xml version="1.0" encoding="utf-8" ?>
<svg baseProfile="full" height="104.81715" version="1.1" width="1011.99718868" xmlns="http://www.w3.org/2000/svg" xmlns:ev="http://www.w3.org/2001/xml-events" xmlns:xlink="http://www.w3.org/1999/xlink"><defs /><polygon fill="none" points="1003.99718868,64.14866 1000.80248868,63.6535904 996.46228868,62.929327 991.51658868,62.051216 986.17968868,61.071025999999996 980.6106886800001,60.039449 974.92878868,59.004746 969.18218868,57.996349 963.3823886800001,57.016911 957.53608868,56.064986 951.6473886800001,55.138301 945.71828868,54.23334 939.75228868,53.346109999999996 933.75448868,52.472699999999996 927.73238868,51.60937 921.6942886800001,50.75452 915.64738868,49.90856 909.59628868,49.07168 903.54378868,48.24371 897.49028868,47.42421 891.43458868,46.61255 885.37548868,45.80818 879.31228868,45.01064 873.24508868,44.219539999999995 867.17428868,43.43454 861.10098868,42.65546 855.02618868,41.88243 848.95098868,41.11569 842.87578868,40.355410000000006 836.80108868,39.601749999999996 830.72668868,38.85479 824.65248868,38.11461 818.57768868,37.38113 812.50208868,36.65424 806.42528868,35.93381 800.3470886800001,35.21977 794.2673886800001,34.512010000000004 788.18608868,33.81048 782.10338868,33.11513 776.0194886800001,32.42595 769.93458868,31.74297 763.8488886800001,31.066229999999997 757.76248868,30.39573 751.67568868,29.731520000000003 745.58858868,29.073609999999995 739.50148868,28.422020000000003 733.4145886800001,27.776850000000003 727.32788868,27.13825 721.24148868,26.50636 715.15538868,25.881320000000002 709.0694886800001,25.26325 702.9837886800001,24.652289999999994 696.89788868,24.048539999999996 690.81168868,23.4521 684.72488868,22.862969999999997 678.63718868,22.281109999999998 672.5486886799999,21.706489999999995 666.45918868,21.139090000000003 660.36868868,20.578899999999997 654.27748868,20.025909999999996 648.1856886800001,19.480109999999996 642.09358868,18.941539999999996 636.00138868,18.41032 629.90928868,17.886609999999997 623.8175886800001,17.37057 617.72628868,16.862319999999997 611.63528868,16.36202 605.54468868,15.869799999999998 599.45428868,15.385779999999997 593.36398868,14.910089999999997 587.27348868,14.442790000000002 581.1826886800001,13.983919999999998 575.0914886800001,13.533529999999999 568.99988868,13.091679999999997 562.90788868,12.658430000000003 556.81558868,12.233850000000004 550.72318868,11.817989999999995 544.63088868,11.41093 538.5390886800001,11.012820000000005 532.44778868,10.62386 526.35728868,10.244269999999993 520.26768868,9.874249999999996 514.17898868,9.514020000000002 508.09108868,9.163759999999996 502.00388868000005,8.823679999999996 495.91728868000007,8.493960000000001 489.83108868,8.17476 483.74488868000003,7.866170000000004 477.65878868000004,7.568249999999999 471.57248868000005,7.281079999999996 465.48598868,7.004729999999995 459.39948868,6.739289999999997 453.31288868,6.484830000000002 447.22658868,6.241439999999997 441.14058868000006,6.009219999999999 435.05538868,5.7883700000000005 428.97098868000006,5.579140000000002 422.88778868,5.381769999999996 416.80568868000006,5.196509999999996 410.72508868,5.023600000000002 404.64578868000007,4.863259999999997 398.56798868000004,4.715739999999997 392.49148868000003,4.58126 386.41648868000004,4.460080000000005 380.34278868,4.3524499999999975 374.27048868,4.2586200000000005 368.19968868,4.17886 362.13028868,4.113420000000005 356.06248868000006,4.062550000000002 349.99638868000005,4.026499999999999 343.93218868,4.0055499999999995 337.86988868000003,4.0 331.80978868000005,4.01023 325.75208868000004,4.036580000000001 319.69678868000005,4.079419999999999 313.64408868000004,4.139090000000003 307.59418868,4.215960000000003 301.54718868,4.310369999999999 295.50318868,4.42268 289.46238868,4.553339999999999 283.42488868000004,4.7028099999999995 277.39078868,4.87153 271.36048868000006,5.059959999999997 265.33398868,5.268529999999998 259.31158868,5.497699999999995 253.29348868,5.747920000000001 247.27988867999997,6.0197100000000034 241.27108868,6.313659999999999 235.26738868,6.630380000000002 229.26908867999998,6.97043 223.27648868,7.334400000000002 217.29008868,7.722850000000001 211.30998867999998,8.13637 205.33688868000002,8.57573 199.37108867999999,9.041850000000004 193.41358868,9.535579999999996 187.46488868,10.057780000000001 181.52608868,10.609270000000002 175.59808868,11.190849999999998 169.68188868,11.80341 163.77858867999998,12.44811 157.88888867999998,13.126190000000001 152.01308868,13.838890000000006 146.15128868,14.587470000000003 140.30298868,15.373240000000003 134.46808868,16.19777 128.64738868,17.062940000000005 122.84368867999999,17.97041 117.06168867999999,18.921419999999998 111.30778868,19.916760000000004 105.58988867999999,20.956810000000004 99.91544868,22.04302 94.28746867999999,23.178309999999996 88.70334867999999,24.36652 83.15560867999999,25.612699999999997 77.63250868,26.92337 72.12812867999999,28.305769999999995 66.65952868,29.76218 61.26812868,31.28685 56.01362868,32.86538 50.95500868,34.48234 46.10362868,36.13875 41.41947868,37.85226 36.82997868,39.656009999999995 32.27082868,41.59252 27.87763868,43.62875 23.96768868,45.61316 20.726418680000002,47.40553 18.083018680000002,48.991389999999996 15.857308680000001,50.4367 13.916791680000001,51.79757 12.17327668,53.116479999999996 10.56983268,54.427512 9.110712679999999,55.742381 7.85940668,57.013334 6.8514146799999995,58.179665 6.06391468,59.217678 5.44883268,60.136162 4.96511758,60.954546 4.59347778,61.69588 4.31845168,62.384788 4.12941018,63.041911999999996 4.0222444,63.6848594 4.0,64.3310857 4.06846635,64.9948904 4.23126018,65.676959 4.49661738,66.367368 4.87603478,67.063013 5.38330768,67.766339 6.0340726799999995,68.480952 6.84514268,69.212293 7.83215868,69.968801 9.00286968,70.763877 10.360867679999998,71.613722 11.94516868,72.524568 13.80465968,73.494928 15.977938680000001,74.51346 18.48329868,75.56311 21.34862868,76.64061 24.63270868,77.74746999999999 28.39033868,78.87869 32.64396868,80.02485 37.34981868,81.17148 42.406848679999996,82.28824 47.682548680000004,83.34203 53.064158680000006,84.31746 58.51084868,85.21961 64.03275868,86.05813 69.63932867999999,86.84011 75.33119868,87.57151999999999 81.09828868,88.25757999999999 86.92210868,88.90102999999999 92.78521868,89.50271000000001 98.67418867999999,90.06434 104.58028868,90.58849000000001 110.49968867999999,91.0784 116.43308868,91.53694 122.38168868,91.96607 128.34618868,92.36762 134.32648868,92.74339 140.32188868,93.09514 146.33098868,93.42461 152.35178868,93.73301000000001 158.38278868,94.02135 164.42248868,94.29065 170.46948867999998,94.54199 176.52278868,94.77646 182.58128868,94.99519000000001 188.64428868,95.19893 194.71118868,95.38812 200.78138868,95.56317 206.85488868,95.72451000000001 212.93128868,95.87258 219.01068868,96.00781 225.09338867999998,96.13065999999999 231.17948868,96.24161000000001 237.26918868,96.34118000000001 243.36268868,96.42987 249.45988868,96.50820999999999 255.56058868,96.57669 261.66458868,96.63584 267.77148868000006,96.68616 273.88058868,96.72803 279.99168868,96.76165 286.10428868,96.78719 292.21808868000005,96.80483 298.33278868,96.81476 304.4482886800001,96.81715 310.56448868,96.81219 316.68138868000005,96.80007 322.79908868000007,96.78092000000001 328.91758868,96.75488 335.03678868000003,96.72206 341.15688868,96.68259 347.27778868,96.6366 353.39938868,96.58419 359.52168868000007,96.52551 365.64468868000006,96.46065999999999 371.76818868000004,96.38974999999999 377.89208868,96.31285 384.01648868,96.23002 390.14118868,96.14134 396.26618868,96.04687 402.39158868,95.94668999999999 408.51718868,95.84087 414.64308868,95.72948 420.76928868,95.61256 426.89568868000003,95.49017 433.02248868000004,95.36233 439.14948868,95.22907000000001 445.27658868000003,95.09044 451.40378868,94.94646 457.53098868,94.79718 463.65788868,94.64263 469.78448868000004,94.48283 475.91048868,94.31775999999999 482.03588868,94.14733 488.16048868,93.97146000000001 494.28428868,93.79008999999999 500.40728868,93.60311999999999 506.52968868000005,93.41049 512.65128868,93.21211 518.77248868,93.00789 524.89328868,92.79776 531.01398868,92.58162999999999 537.13438868,92.35942 543.25458868,92.13106 549.37428868,91.89648 555.49308868,91.65562 561.61078868,91.40842 567.72678868,91.15483 573.84048868,90.89475 579.95118868,90.62773 586.05828868,90.35311999999999 592.16108868,90.07027 598.25928868,89.77852 604.35238868,89.47723 610.4399886799999,89.16576 616.5218886800001,88.84346 622.59778868,88.50968 628.6676886800001,88.1639 634.73168868,87.80574 640.79008868,87.4348 646.8437886800001,87.05068 652.89368868,86.65293 658.9412886800001,86.24110999999999 664.9879886800001,85.8147 671.0359886800001,85.37317 677.08728868,84.91635 683.14418868,84.44524 689.2083886800001,83.96106 695.2810886799999,83.46506 701.36288868,82.95855 707.4539886800001,82.4429 713.55398868,81.91953000000001 719.66178868,81.38992 725.77608868,80.8555 731.8949886800001,80.3173 738.01718868,79.77635 744.1413886800001,79.23362 750.26638868,78.69008 756.39118868,78.1467 762.51528868,77.60443000000001 768.63788868,77.06417 774.75868868,76.52664 780.87728868,75.99236 786.99358868,75.46181 793.1070886800001,74.9355 799.21788868,74.41391 805.32578868,73.897498 811.43078868,73.386748 817.53298868,72.882135 823.63228868,72.384179 829.72878868,71.893407 835.8225886800001,71.410341 841.91348868,70.935506 848.00168868,70.469425 854.08708868,70.012621 860.16958868,69.565689 866.24908868,69.129325 872.3253886800001,68.704232 878.39798868,68.291119 884.46658868,67.890693 890.53058868,67.503661 896.58928868,67.130786 902.64228868,66.772955 908.68978868,66.43104199999999 914.73218868,66.10589300000001 920.77038868,65.79832999999999 926.8058886800001,65.509132 932.83978868,65.238719 938.8719886800001,64.987331 944.90088868,64.75525909999999 950.92328868,64.5428239 956.9343886800001,64.35087759999999 962.92378868,64.18253098 968.87268868,64.0414328 974.75478868,63.9308926 980.5336886800001,63.8554057 986.1396886800001,63.8222777 991.47558868,63.8357413 996.42118868,63.9000133 1000.7768886800001,64.0168649 1003.99718868,64.14866" stroke="black" stroke-width="2.0" /></svg>