<?xml version="1.0" encoding="utf-8" ?>
<svg baseProfile="full" height="102.07737" version="1.1" width="1012.1755699" xmlns="http://www.w3.org/2000/svg" xmlns:ev="http://www.w3.org/2001/xml-events" xmlns:xlink="http://www.w3.org/1999/xlink"><defs /><polygon fill="none" points="1004.1755699,66.96731 1001.1481699,66.4358446 997.0298699,65.66387 992.2640699000001,64.72093699999999 987.0221699,63.656973 981.4949699,62.53245 975.8461699000001,61.404365999999996 970.1400699000001,60.306238 964.3775699,59.240665 958.5569699000001,58.205584 952.6780699000001,57.199103 946.7431699,56.2181 940.7565699,55.258289999999995 934.7252699000001,54.315419999999996 928.6589699,53.385329999999996 922.5691699,52.46599 916.4654699,51.55808 910.3546699000001,50.662 904.2409699000001,49.777699999999996 898.1249699,48.90463 892.0054699,48.04201 885.8806699,47.189099999999996 879.7499699,46.345299999999995 873.6131699000001,45.51008 867.4708699,44.683049999999994 861.3245699,43.86395 855.1757699,43.05288 849.0257699,42.25004 842.8751699000001,41.45554 836.7242699000001,40.669439999999994 830.5730699000001,39.89174 824.4207699,39.122370000000004 818.2666699,38.36111 812.1101699,37.607699999999994 805.9508699,36.86192 799.7888699,36.12357 793.6242699000001,35.3925 787.4578699,34.66861 781.2903699,33.95183 775.1225699,33.24236 768.9552699,32.540389999999995 762.7885699,31.846089999999997 756.6224699,31.159589999999994 750.4565699,30.480980000000002 744.2904699000001,29.810349999999993 738.1230699,29.14768 731.9534699,28.4927 725.7808699000001,27.845029999999994 719.6049699,27.204299999999996 713.4255699,26.5702 707.2425699,25.94242 701.0565699,25.320689999999992 694.8681699,24.704769999999996 688.6781699,24.09458 682.4874699,23.490319999999997 676.2967699,22.892189999999992 670.1066699,22.300400000000003 663.9174699,21.715129999999995 657.7293698999999,21.136539999999997 651.5424699,20.56478 645.3567699,19.999989999999997 639.1719699,19.442279999999997 632.9878699,18.891779999999997 626.8042699,18.348619999999997 620.6211699,17.81293 614.4383699,17.284839999999996 608.2557699,16.76448 602.0734699,16.25201 595.8914699,15.747569999999996 589.7097699000001,15.2513 583.5285699,14.763370000000002 577.3478699,14.283909999999999 571.1675699000001,13.813069999999996 564.9878699000001,13.351010000000002 558.8086699,12.897860000000001 552.6300699,12.453780000000002 546.4518699,12.018899999999995 540.2740699000001,11.593369999999993 534.0966699,11.177329999999998 527.9197699,10.770939999999996 521.7432699,10.374339999999997 515.5671699,9.98771 509.39176990000004,9.611179999999997 503.21696990000004,9.24492 497.04306990000003,8.889089999999996 490.8701699,8.543849999999992 484.6984699,8.209429999999998 478.5279699,7.886090000000003 472.35896990000003,7.574049999999993 466.1912699,7.27355 460.02506990000006,6.984830000000002 453.86006990000004,6.708109999999998 447.6962699,6.443620000000003 441.5333699,6.191579999999995 435.37136990000005,5.952169999999995 429.2100699,5.7255600000000015 423.0494699000001,5.511899999999997 416.8895699,5.311349999999997 410.7304699,5.1240900000000025 404.5723699,4.950279999999999 398.4154699,4.790089999999999 392.2600699,4.6436999999999955 386.10656990000007,4.511399999999995 379.95516990000004,4.393509999999999 373.8060699,4.290390000000002 367.6595699,4.202350000000003 361.5157699,4.129740000000005 355.3744699,4.072870000000002 349.2358699,4.032069999999997 343.0997699,4.007669999999997 336.9661699,4.0 330.83496990000003,4.009360000000001 324.70626990000005,4.0360900000000015 318.5801699,4.08050999999999 312.4567699,4.142920000000004 306.3363699,4.223660000000002 300.21936990000006,4.3230199999999925 294.1059699,4.441369999999992 287.99666990000003,4.579189999999997 281.89176990000004,4.7369799999999955 275.79156990000007,4.915219999999998 269.6962699,5.114400000000003 263.60596990000005,5.334989999999998 257.5208699,5.577480000000001 251.4408699,5.842379999999999 245.36636990000002,6.13026 239.29736989999998,6.441739999999996 233.23436990000002,6.777410000000003 227.1779699,7.13785 221.1287699,7.523619999999994 215.08756989999998,7.9352500000000035 209.0553699,8.373359999999998 203.03286989999998,8.838829999999994 197.02116990000002,9.332629999999995 191.0205699,9.855689999999996 185.0316699,10.40896 179.05466990000002,10.993399999999994 173.08956990000001,11.609979999999993 167.13646989999998,12.259810000000002 161.1960699,12.944069999999996 155.2694699,13.663829999999997 149.35846990000002,14.420099999999998 143.46526989999998,15.213740000000001 137.5923699,16.04553 131.7428699,16.916779999999996 125.91926989999999,17.829269999999994 120.1231699,18.78484999999999 114.3553699,19.785420000000002 108.6159699,20.832969999999996 102.9047499,21.92982 97.22377990000001,23.078669999999995 91.57888990000001,24.281439999999996 85.9793399,25.53897 80.4373799,26.850900000000003 74.96748989999999,28.21674 69.5818999,29.63874 64.2863299,31.120439999999995 59.0806699,32.6664 53.9606099,34.282379999999996 48.9333999,35.97324999999999 44.0420999,37.73164 39.3567599,39.53448 34.9516499,41.34898 30.885909899999998,43.15161 27.184519899999998,44.93026999999999 23.839919899999998,46.677049999999994 20.8263999,48.387339999999995 18.1285299,50.045 15.761969899999999,51.60922 13.727444899999998,53.04573 11.9942229,54.343689999999995 10.5169319,55.512609999999995 9.2641399,56.58401 8.2091469,57.58654799999999 7.323400899999999,58.537749 6.5804619,59.448882999999995 5.9575268999999995,60.327586 5.4355939,61.179269 4.9992874,62.007686 4.6423558,62.809267 4.3648211,63.577498999999996 4.16544866,64.311042 4.0435208,65.01110399999999 4.0,65.679873 4.0383483,66.319829 4.16554304,66.93346994 4.3906903,67.5242981 4.7146038,68.100239 5.1387392,68.669586 5.6687869,69.240241 6.3143039000000005,69.820394 7.0871789,70.4187 7.9946839,71.04267399999999 9.041858900000001,71.694611 10.252742900000001,72.372896 11.6492289,73.074134 13.244647899999999,73.798553 15.058469899999999,74.561961 17.132719899999998,75.377686 19.5189299,76.24749299999999 22.2718499,77.16812999999999 25.4391799,78.12743 29.0538299,79.1036 33.1386999,80.07681 37.6736499,81.0298 42.5837899,81.95353 47.7797099,82.8476 53.176339899999995,83.69721 58.6970599,84.49061 64.2968299,85.22476 69.9687499,85.90348 75.7155399,86.53218 81.5349899,87.11614 87.4186899,87.66066 93.3525699,88.1694 99.32261989999999,88.64365 105.3181699,89.08503999999999 111.33236989999999,89.49579 117.3624699,89.8785 123.4090699,90.2353 129.47236990000002,90.5679 135.5522699,90.87796 141.6477699,91.16714999999999 147.7567699,91.43713 153.8769699,91.68907 160.0061699,91.92373 166.1429699,92.14186 172.2860699,92.34427 178.4349699,92.5318 184.5898699,92.7053 190.7508699,92.8655 196.91826989999998,93.01312999999999 203.09186989999998,93.14886 209.2713699,93.27341 215.4562699,93.38746 221.6454699,93.49171 227.8381699,93.58654999999999 234.0334699,93.67222 240.2308699,93.74892 246.4297699,93.8169 252.6300699,93.87637 258.8318699,93.92759 265.0351699,93.97077999999999 271.2405699,94.00623999999999 277.4480699,94.03424 283.65786990000004,94.05507 289.86996990000006,94.06902 296.0845699,94.07634999999999 302.3013699,94.07737 308.5202699000001,94.07231999999999 314.7410699,94.06139999999999 320.96346990000006,94.04476 327.18726990000005,94.02255 333.4122699,93.99493 339.6380699,93.96205 345.8644699,93.92408999999999 352.0911699,93.88119 358.31786990000006,93.83341999999999 364.5444699,93.78076 370.77066990000003,93.72319999999999 376.99666990000003,93.66072 383.2222699,93.59331 389.44786990000006,93.52096 395.67346990000004,93.44363 401.8995699000001,93.36134 408.1264699,93.27416 414.3542699,93.1822 420.58316990000003,93.08556999999999 426.8130699,92.98438999999999 433.0438699,92.87877 439.2752699,92.76882 445.5069699,92.65467 451.7383699,92.5364 457.9690699,92.4139 464.19856990000005,92.28701 470.4267699,92.15559999999999 476.65336990000003,92.0195 482.8783699,91.87856 489.10196990000003,91.73263 495.32426990000005,91.58155 501.54556990000003,91.42517 507.7661699,91.26344 513.9864699,91.09634 520.2064699,90.92384 526.4263699,90.74592 532.6460698999999,90.56255 538.8653699,90.37373 545.0842699000001,90.17943 551.3023699,89.9796 557.5192699,89.77394 563.7343699,89.56204 569.9472699,89.3435 576.1570699,89.11793 582.3630699,88.88495 588.5642699,88.64417 594.7595699,88.39523 600.9480699000001,88.13775 607.1284699,87.87102999999999 613.3001699,87.59416999999999 619.4628699,87.30625 625.6166699,87.00635 631.7621699,86.69353 637.9004699000001,86.36683 644.0328699,86.02525 650.1611699000001,85.66782 656.2875699000001,85.29437999999999 662.4141699,84.90549999999999 668.5429699000001,84.50175 674.6757699,84.08371 680.8141699,83.65195 686.9598699000001,83.20704 693.1141699,82.74955 699.2784699,82.28008 705.4536699,81.79971 711.6405699000001,81.30989 717.8390699,80.81215 724.0485699,80.30808999999999 730.2676699000001,79.79939 736.4946699000001,79.2878 742.7267699,78.77514 748.9607699000001,78.26311 755.1936699,77.75277 761.4227699,77.24501 767.6464698999999,76.740639 773.8639699,76.240407 780.0749699,75.744992 786.2801699,75.255008 792.4806699,74.770972 798.6780699000001,74.293196 804.8731699,73.821975 811.0665699000001,73.35764499999999 817.2582699000001,72.900573 823.4476698999999,72.451165 829.6338699,72.009856 835.8156699,71.57730099999999 841.9918699,71.15448599999999 848.1615699,70.742392 854.3243699000001,70.341967 860.4802699,69.954124 866.6293699,69.579745 872.7724699,69.219645 878.9101699,68.874509 885.0428699,68.545007 891.1709699,68.231818 897.2946699,67.93562739999999 903.4139699,67.6571261 909.5289699,67.3970314 915.6389699,67.15608549999999 921.7432699,66.93503342 927.8407698999999,66.7346163 933.9299699000001,66.5556096 940.0087699000001,66.3993613 946.0732699,66.267608 952.1178699000001,66.16203540000001 958.1352699,66.08426689999999 964.1145699,66.0370731 970.0359698999999,66.0242771 975.8700699000001,66.0489973 981.5771699000001,66.1137597 987.0778699,66.22071779999999 992.2564699000001,66.36752609999999 996.9882699,66.551361 1001.1185699,66.7669676 1004.1755699,66.96731" stroke="black" stroke-width="2.0" /></svg>