<?xml version="1.0" encoding="utf-8" ?>
<svg baseProfile="full" height="107.279" version="1.1" width="1012.0719671" xmlns="http://www.w3.org/2000/svg" xmlns:ev="http://www.w3.org/2001/xml-events" xmlns:xlink="http://www.w3.org/1999/xlink"><defs /><polygon fill="none" points="1004.0719671,67.14738 1000.8541671,66.6960009 996.6986671000001,66.04017 992.0202671000001,65.23619500000001 986.8430671000001,64.317638 981.2943671,63.330105 975.5405671000001,62.317260000000005 969.6801671000001,61.311565 963.7326671000001,60.321096000000004 957.7047671,59.346549 951.6026671,58.388267000000006 945.4320671,57.445544000000005 939.1996671,56.51536 932.9144671,55.594260000000006 926.5880671,54.678850000000004 920.2347671000001,53.76614000000001 913.8686671,52.856750000000005 907.5004671,51.952940000000005 901.1365671000001,51.056360000000005 894.7793671000001,50.168040000000005 888.4268671000001,49.28840000000001 882.0745671,48.416810000000005 875.7185671000001,47.552240000000005 869.3563671,46.693870000000004 862.9868671,45.84104000000001 856.6106671,44.993320000000004 850.2293671,44.15050000000001 843.8456671,43.312920000000005 837.4615671,42.48104000000001 831.0786671000001,41.65523 824.6975671,40.83581000000001 818.3187671000001,40.02297 811.9418671000001,39.21687000000001 805.5661671000001,38.41752000000001 799.1906671,37.624900000000004 792.8149671,36.83901 786.4387671000001,36.05986 780.0618671000001,35.28750000000001 773.6843671,34.522020000000005 767.3065671,33.763510000000004 760.9288671000002,33.012130000000006 754.5516671,32.268080000000005 748.1750671000001,31.531510000000004 741.7991671000001,30.80257000000001 735.4238671,30.081410000000005 729.0489671,29.368140000000004 722.6740671000001,28.662850000000006 716.2985671000001,27.965590000000006 709.9222671000001,27.276270000000004 703.5446671,26.59483000000001 697.1658671000001,25.921240000000004 690.7857671,25.255460000000006 684.4045671,24.59747 678.0224671000001,23.947280000000006 671.6399671000001,23.304910000000007 665.2575671000001,22.67051 658.8755671000001,22.044270000000004 652.4942671,21.426410000000004 646.1138671000001,20.817080000000004 639.7344671000001,20.21648000000001 633.3558671000001,19.62474000000001 626.9779671,19.042030000000004 620.6005671,18.468460000000007 614.2232671,17.904090000000004 607.8458671000001,17.34892 601.4681671000001,16.80297000000001 595.0900671,16.26628000000001 588.7113671000001,15.73886000000001 582.3320671000001,15.220750000000002 575.9520671,14.71200000000001 569.5716671000001,14.212650000000004 563.1907671000001,13.722800000000007 556.8095671000001,13.242570000000008 550.4282671000001,12.772090000000006 544.0471671,12.31150000000001 537.6664671,11.860930000000003 531.2865671000001,11.420520000000003 524.9077671,10.990410000000004 518.5305671,10.570720000000001 512.1553670999999,10.161690000000007 505.78246709999996,9.763630000000006 499.4120671,9.376860000000008 493.0442671,9.001700000000007 486.6788671,8.638430000000007 480.3156671,8.28734 473.95436709999996,7.948720000000009 467.5943671,7.622850000000007 461.2350671,7.309950000000008 454.8758671,7.010090000000005 448.5164671,6.723300000000009 442.15656709999996,6.449630000000006 435.7963671,6.189160000000008 429.4360671,5.941960000000002 423.0760671,5.708090000000006 416.7171671,5.487650000000002 410.3602671,5.2807400000000015 404.0061671,5.087730000000008 397.6555671,4.909060000000004 391.3090671,4.745160000000006 384.96676709999997,4.596470000000004 378.6285671,4.463390000000011 372.2942671,4.346330000000009 365.9632671,4.245709999999995 359.63476710000003,4.161920000000009 353.3079671,4.095239999999997 346.9824671,4.045880000000004 340.6579671,4.014060000000001 334.3346671,4.0 328.0132671,4.003910000000012 321.69466709999995,4.026020000000003 315.38006709999996,4.066499999999998 309.07126709999994,4.12559000000001 302.7697671,4.203770000000006 296.4766671,4.3016700000000085 290.1921671,4.419920000000005 283.9159671,4.559139999999999 277.6469671,4.720000000000006 271.38326709999996,4.903170000000003 265.1225671,5.109390000000005 258.8619671,5.3393700000000095 252.5994671,5.5936200000000085 246.33526709999998,5.872580000000006 240.0713671,6.176590000000012 233.8118671,6.505840000000006 227.56286709999998,6.860340000000008 221.3322671,7.2398800000000065 215.12966709999998,7.644400000000012 208.9624671,8.075340000000004 202.8326671,8.534710000000004 196.7372671,9.024850000000008 190.6679671,9.548520000000003 184.6120671,10.109100000000005 178.55196709999998,10.710740000000001 172.4658671,11.356570000000005 166.3357671,12.045110000000001 160.1540671,12.773170000000007 153.9255671,13.535920000000004 147.6686671,14.326470000000008 141.4160671,15.135580000000012 135.2122671,15.955320000000007 129.0970671,16.789460000000005 123.0903671,17.645770000000006 117.19346709999999,18.533260000000006 111.3934671,19.462230000000005 105.6661671,20.444570000000006 99.9811571,21.490150000000007 94.3181671,22.602760000000004 88.6744471,23.783 83.0641071,25.027800000000006 77.5169071,26.329610000000002 72.0741271,27.678850000000004 66.7714071,29.071560000000005 61.6253271,30.507400000000004 56.6368371,31.988590000000002 51.7962771,33.51986 47.0986771,35.10891000000001 42.5899371,36.750370000000004 38.358487100000005,38.413880000000006 34.4860271,40.057050000000004 31.0118571,41.64293000000001 27.9283771,43.15332000000001 25.1872871,44.591550000000005 22.7310871,45.96961 20.509147099999996,47.300900000000006 18.4808771,48.5977 16.6153671,49.87335 14.9005471,51.13976000000001 13.3442811,52.38956 11.954269100000001,53.605250000000005 10.7270821,54.770900000000005 9.648529100000001,55.87763 8.699085100000001,56.92343 7.8622341,57.90921 7.1314631,58.835874000000004 6.4976101,59.709076 5.9507411,60.53603700000001 5.4821991,61.32367000000001 5.0850471,62.078055000000006 4.7539957,62.80442300000001 4.485224,63.507274 4.276205,64.190541 4.12559672,64.85773400000001 4.03320024,65.51208700000001 4.0,66.15669150000001 4.02830305,66.7946341 4.12188523,67.42916070000001 4.2825204,68.06366290000001 4.5092458,68.701313 4.8023857,69.34506900000001 5.1637031,69.997788 5.5963961,70.662283 6.1051561,71.341319 6.6961941,72.037463 7.3770771,72.752677 8.1559001,73.487311 9.038796099999999,74.237909 10.0334941,74.998638 11.1569751,75.766424 12.4274771,76.537666 13.8613641,77.30842000000001 15.470267100000001,78.07628000000001 17.2598571,78.84417 19.2347071,79.62641 21.413257099999996,80.44058000000001 23.829727099999996,81.29022 26.524797099999997,82.17626 29.5412471,83.09676 32.9186171,84.04511000000001 36.6848971,85.00881000000001 40.847697100000005,85.97203 45.3803671,86.91678 50.222917100000004,87.82752 55.3095471,88.69873000000001 60.601567100000004,89.53087000000001 66.0719771,90.31979000000001 71.6912371,91.0627 77.4304171,91.75923 83.26517709999999,92.41104000000001 89.17710709999999,93.01888 95.1507571,93.5836 101.1737071,94.10703000000001 107.2373671,94.59185000000001 113.3374671,95.04118 119.4721671,95.45742000000001 125.63946709999999,95.84271000000001 131.8366671,96.19927000000001 138.0600671,96.52941000000001 144.30556710000002,96.8355 150.5684671,97.11912000000001 156.8446671,97.38089000000001 163.13126709999997,97.62145000000001 169.42626710000002,97.84155000000001 175.7286671,98.04199 182.0385671,98.2236 188.3568671,98.38732 194.6847671,98.53409 201.0226671,98.6649 207.3708671,98.78070000000001 213.7288671,98.88245 220.0961671,98.97111000000001 226.47146709999998,99.04762000000001 232.85336709999999,99.11250000000001 239.2406671,99.16612 245.6323671,99.20886000000002 252.0274671,99.24113 258.4253671,99.26330000000002 264.82556709999994,99.27579 271.2276671,99.279 277.6316671,99.27316 284.03746709999996,99.25847000000002 290.4449671,99.2351 296.8541671,99.20326 303.2652671,99.16311 309.67826709999997,99.11485 316.0934671,99.05865 322.5110671,98.99474000000001 328.9311671,98.92342000000001 335.3540671,98.84496000000001 341.7797671,98.75969 348.2082671,98.66788 354.63936709999996,98.56985 361.0730671,98.46589 367.5091671,98.35631000000001 373.9471671,98.24131 380.3869671,98.12102 386.8281671,97.99555000000001 393.2704671,97.86503 399.71366709999995,97.72957 406.1573671,97.58931000000001 412.6012671,97.44435 419.0452671,97.29484000000001 425.4888671,97.14081 431.9319671,96.98225000000001 438.3745671,96.81915000000001 444.8165671,96.65147 451.2581671,96.4792 457.6996671,96.3023 464.1411671,96.12075 470.5832671,95.93451 477.0265671,95.74362 483.4711671,95.54823 489.9175671,95.34847 496.36576709999997,95.14453 502.8155671,94.93655000000001 509.2666671,94.72471 515.7185671,94.5092 522.1707671,94.29018 528.6222671,94.06778 535.0724671,93.84184 541.5207671,93.61223000000001 547.9668671000001,93.37875000000001 554.4106671,93.14123000000001 560.8524671,92.89949000000001 567.2924671000001,92.65332000000001 573.7314671,92.40251 580.1701671000001,92.14691 586.6094671000001,91.88657 593.0498671000001,91.62159 599.4916671000001,91.35211000000001 605.9349671000001,91.07826 612.3794671,90.80019 618.8247671,90.51806 625.2699671,90.23205000000002 631.7140671000001,89.94226 638.1558671000001,89.64831000000001 644.5942671,89.34970000000001 651.0281671,89.0459 657.4566671000001,88.73641 663.8787671000001,88.42073 670.2936671000001,88.09833 676.7005671000001,87.76872 683.0989671000001,87.43135000000001 689.4882671,87.08552 695.8685671000001,86.73049 702.2402671,86.36548 708.6041671000002,85.98971 714.9615671,85.60235 721.3140671,85.20258000000001 727.6636671,84.78951 734.0128671000001,84.36292 740.3638671000001,83.92332 746.7186671000001,83.47127 753.0789671,83.00732 759.4462671000001,82.53207 765.8215671,82.04610000000001 772.2056671,81.55003 778.5992671000001,81.04479 785.0024671,80.53193 791.4148671,80.01315000000001 797.8356671,79.4902 804.2635671,78.9649 810.6966671,78.43912 817.1323671000001,77.91478000000001 823.5680671,77.39337 830.0010671,76.875726 836.4295671000001,76.362598 842.8524671000001,75.85466100000001 849.2692671000001,75.352531 855.6801671000001,74.85677100000001 862.0859671000001,74.36790400000001 868.4874671,73.886503 874.8846671,73.41319200000001 881.2769671000001,72.948644 887.6632671,72.493571 894.0415671000001,72.048719 900.4095671,71.615035 906.7659671,71.19370900000001 913.1109671,70.78584500000001 919.4461671,70.392438 925.7746671,70.014401 932.1007671,69.652161 938.4250671000001,69.305232 944.7428671,68.973267 951.0434671,68.656166 957.3106671,68.35439600000001 963.5188671000001,68.0714049 969.6299671,67.81192770000001 975.5964671,67.58024180000001 981.3632671,67.38241160000001 986.8479671,67.22839506 991.9590671000001,67.1240962 996.6304671,67.07536786 1000.8220671,67.08912935000001 1004.0719671,67.14738" stroke="black" stroke-width="2.0" /></svg>