<?xml version="1.0" encoding="utf-8" ?>
<svg baseProfile="full" height="102.29842000000001" version="1.1" width="1012.07482582" xmlns="http://www.w3.org/2000/svg" xmlns:ev="http://www.w3.org/2001/xml-events" xmlns:xlink="http://www.w3.org/1999/xlink"><defs /><polygon fill="none" points="1004.07482582,64.64905 1000.90012582,64.2132218 996.73482582,63.57434 991.99952582,62.785932 986.7547258200001,61.884609000000005 981.15372582,60.918783000000005 975.3754258199999,59.933951 969.5167258199999,58.961711 963.59002582,58.008068 957.59702582,57.072271 951.5414258200001,56.15367500000001 945.42882582,55.251223 939.26622582,54.36234 933.06222582,53.48406 926.82612582,52.613330000000005 920.56852582,51.747240000000005 914.29932582,50.885630000000006 908.02632582,50.02984 901.75452582,49.18088 895.48612582,48.33935 889.22082582,47.50549000000001 882.95622582,46.679010000000005 876.6900258200001,45.85936 870.42052582,45.04607 864.14692582,44.23877 857.86892582,43.43721000000001 851.58712582,42.64121 845.30262582,41.85079 839.01632582,41.06604 832.7290258200001,40.287060000000004 826.44142582,39.51389 820.1537258200001,38.74655 813.86612582,37.98505 807.57862582,37.229380000000006 801.2911258199999,36.47961 795.00352582,35.73583000000001 788.7159258199999,34.99812 782.42822582,34.266580000000005 776.1406258200001,33.54131 769.8532258199999,32.82242 763.56612582,32.110020000000006 757.27952582,31.40428 750.9935258200001,30.705330000000004 744.70802582,30.013330000000003 738.42302582,29.328390000000006 732.13832582,28.650660000000002 725.85382582,27.980230000000006 719.5691258200001,27.31722 713.28402582,26.661630000000002 706.99822582,26.013420000000004 700.71152582,25.37258 694.4241258200001,24.739110000000004 688.13572582,24.112990000000003 681.84652582,23.49423 675.55672582,22.88286 669.2665258200001,22.278890000000004 662.97602582,21.682460000000006 656.68552582,21.09366 650.39512582,20.512610000000002 644.10482582,19.939420000000005 637.81492582,19.374180000000003 631.52522582,18.817 625.23572582,18.26798 618.94652582,17.72719 612.65752582,17.194719999999997 606.3685258200001,16.670650000000002 600.07962582,16.15506 593.7907258199999,15.648030000000006 587.50182582,15.149650000000001 581.21292582,14.660000000000004 574.92392582,14.179150000000007 568.63492582,13.707210000000003 562.34602582,13.244280000000003 556.05702582,12.790490000000005 549.76822582,12.345950000000002 543.47972582,11.910800000000002 537.1916258199999,11.485170000000004 530.90402582,11.069190000000006 524.6172258199999,10.662980000000005 518.3314258199999,10.266670000000005 512.0469258200001,9.880460000000006 505.7638258200001,9.50459 499.48242582,9.139300000000006 493.20262582,8.784830000000007 486.92432582,8.441400000000002 480.64752582,8.109250000000003 474.37202582000003,7.788600000000002 468.09752582,7.479660000000003 461.82362582,7.182639999999999 455.55002582000003,6.897649999999999 449.27662582,6.624790000000004 443.00322582,6.364160000000005 436.73002582000004,6.115870000000008 430.45712582,5.880040000000001 424.18482581999996,5.656780000000005 417.91372582,5.446220000000004 411.64422582000003,5.248490000000004 405.37702582,5.063859999999998 399.11272582,4.892719999999997 392.85152581999995,4.735430000000001 386.59352581999997,4.5923700000000025 380.33882582,4.463900000000002 374.08712582000004,4.350360000000002 367.83802582,4.252119999999998 361.59102582,4.169530000000002 355.34542582,4.102879999999999 349.10082582,4.052390000000003 342.85702582,4.018270000000001 336.61422582,4.0007400000000075 330.37272581999997,4.0 324.13342582,4.016280000000002 317.89732582,4.049759999999999 311.66572582,4.100630000000002 305.44012582,4.169250000000005 299.22172582,4.256200000000007 293.01092581999995,4.362090000000002 286.80772582000003,4.4875200000000035 280.61132582000005,4.633100000000006 274.42032582,4.799480000000003 268.23282582,4.98733 262.04622582,5.197369999999999 255.85832582,5.4301400000000015 249.66792582000002,5.686050000000002 243.47612582000002,5.965430000000005 237.28532582,6.268540000000009 231.10002582,6.595469999999999 224.92632582000002,6.946150000000003 218.77192582,7.320340000000002 212.64522581999998,7.718570000000007 206.55112582,8.142570000000006 200.48972582000002,8.594340000000003 194.45652582,9.076230000000002 188.44282582,9.590969999999999 182.43572582,10.14188 176.41812582,10.732850000000006 170.37062582,11.365030000000004 164.28032582,12.03613 158.14402582,12.742690000000003 151.96962582,13.479750000000003 145.77722582,14.240499999999997 139.59872582,15.016340000000007 133.47442582,15.803230000000006 127.43462582000001,16.606950000000005 121.49202582,17.43524 115.64412582,18.296930000000003 109.87602582,19.20209 104.16312582,20.162090000000006 98.47808582,21.184759999999997 92.80654582,22.273170000000007 87.15075582,23.427490000000006 81.52916582,24.64421 75.97499582,25.915540000000007 70.52919582,27.23393 65.21805582,28.598060000000004 60.04580582,30.01077 55.00023582,31.47869 50.05850582,33.01288 45.22292582,34.625600000000006 40.57752582,36.30207 36.25308582,37.9955 32.35239582,39.64971 28.907825820000003,41.225880000000004 25.87544582,42.719710000000006 23.17955582,44.14658 20.75117582,45.52559000000001 18.53549582,46.874930000000006 16.491945819999998,48.21418 14.612725819999998,49.55721 12.925445819999998,50.88353 11.45059682,52.15867 10.18108982,53.35850000000001 9.090215820000001,54.47554 8.147583820000001,55.512509 7.33641982,56.47323900000001 6.6426098200000006,57.366428 6.05118582,58.202738000000004 5.54949582,58.991935000000005 5.127734820000001,59.742218 4.77864192,60.460319 4.49705602,61.151808 4.27956912,61.821389 4.1242988,62.473149 4.03078369,63.110763000000006 4.0,63.7376866 4.03451811,64.35733139999999 4.1386038,64.9732752 4.31394442,65.5892862 4.55979912,66.208944 4.87711712,66.83565200000001 5.268658820000001,67.47278700000001 5.73908682,68.123801 6.29515282,68.792231 6.94586882,69.48153 7.70231782,70.194438 8.57605182,70.931199 9.57636682,71.68669200000001 10.72331982,72.456425 12.04475282,73.236277 13.56726082,74.02015 15.30923582,74.80196000000001 17.27567582,75.58194 19.466805819999998,76.37796 21.90586582,77.21268 24.636645820000002,78.08918 27.70733582,79.00585000000001 31.16371582,79.95537 35.03864582,80.92206 39.33769582,81.88412 44.02654582,82.82021 49.02831582,83.71225 54.25629582,84.55413 59.658585820000006,85.35032000000001 65.20840582,86.09944 70.87970582,86.80016 76.64788582,87.45318 82.49255582,88.06095 88.39889582,88.62524 94.35502582000001,89.14761 100.35145582,89.63028 106.38152582000001,90.0761 112.44162582,90.48829 118.53032582,90.86932 124.64622582,91.22126 130.78692582,91.54626 136.94972582,91.84651 143.13112582,92.12428 149.32732582,92.38131 155.53472582,92.61826 161.75072582,92.83575 167.97352582000002,93.03444 174.20212582000002,93.21505 180.43642582,93.37834000000001 186.67732582,93.52512 192.92562582000002,93.65627 199.18202582,93.77267 205.44692582,93.8752 211.72012582,93.96475000000001 218.00132582,94.04218 224.28982582,94.10839 230.58452582,94.16402000000001 236.88462582000002,94.20948 243.18902582,94.24516 249.49712582,94.27148 255.80802581999998,94.28885 262.12112582000003,94.29769 268.43602582,94.29842000000001 274.75232582,94.29134 281.06962582,94.27658 287.38772581999996,94.25424000000001 293.70662582,94.22444 300.02632581999995,94.18728 306.34702582,94.14286 312.66902582,94.0913 318.99272582,94.0327 325.31842582,93.96732 331.64652582,93.89545 337.97732582,93.81738 344.31072581999996,93.73344 350.64692582,93.64391 356.98562582000005,93.54911000000001 363.32652582000003,93.44935000000001 369.66922582,93.34492 376.01332582000003,93.23592000000001 382.35842582,93.12244000000001 388.70412582,93.00453 395.05012582,92.88226 401.39632582,92.7557 407.74252582,92.62491 414.08872582,92.48995 420.43462582,92.35088 426.78052582000004,92.20774 433.12642581999995,92.06058 439.47222582,91.90941000000001 445.81822582,91.75427 452.16442581999996,91.5952 458.51092582,91.43221 464.85792582,91.26535 471.20572582,91.09464 477.55432582,90.92014 483.90392582,90.74192000000001 490.25462582,90.56008 496.60612582,90.3747 502.95852582,90.18588 509.31132582,89.99371000000001 515.66432582,89.79828 522.0170258200001,89.59972 528.36892582,89.39805 534.71952582,89.19316 541.06852582,88.98492 547.41582582,88.77318 553.76132582,88.55777 560.10532582,88.33855 566.44802582,88.11535 572.78992582,87.88801000000001 579.13182582,87.65636 585.47422582,87.42045 591.81772582,87.18039 598.16252582,86.93631 604.50862582,86.68833000000001 610.8559258199999,86.4366 617.2040258200001,86.18127000000001 623.55232582,85.92249000000001 629.90002582,85.66041 636.24612582,85.3948 642.58952582,85.12518 648.9294258199999,84.85104 655.26502582,84.57191 661.59532582,84.28731 667.9197258199999,83.99673 674.23742582,83.69972 680.54782582,83.39577 686.85042582,83.08428 693.14502582,82.76455 699.43192582,82.43585 705.71152582,82.09745000000001 711.9848258200001,81.74860000000001 718.25312582,81.38851 724.51812582,81.01639 730.78172582,80.63159 737.0460258200001,80.23440000000001 743.31302582,79.82538 749.58432582,79.40511000000001 755.86112582,78.97414 762.14472582,78.53308 768.43582582,78.08254 774.73482582,77.62317 781.04222582,77.15607 787.35772582,76.68273 793.6810258200001,76.20465 800.01092582,75.72342 806.34622582,75.24064 812.68502582,74.75796 819.02512582,74.277047 825.36402582,73.79901100000001 831.69982582,73.324628 838.03092582,72.854617 844.3564258199999,72.38965 850.67612582,71.930351 856.99012582,71.47730200000001 863.29902582,71.03107200000001 869.60342582,70.592271 875.9034258199999,70.16154300000001 882.1987258199999,69.739553 888.48872582,69.326988 894.77222582,68.92455700000001 901.04802582,68.533114 907.31542582,68.153653 913.5745258200001,67.78711200000001 919.8263258200001,67.43438 926.0724258199999,67.096299 932.3152258199999,66.773316 938.55532582,66.46516500000001 944.79042582,66.17161200000001 951.01572582,65.892527 957.22302582,65.6281287 963.39492582,65.3808396 969.4958258199999,65.1543203 975.47492582,64.9521374 981.26992582,64.7806354 986.79342582,64.65179084100001 991.9519258199999,64.57314207 996.66922582,64.54923551 1000.8689258200001,64.58204096 1004.07482582,64.64905" stroke="black" stroke-width="2.0" /></svg>