<?xml version="1.0" encoding="utf-8" ?>
<svg baseProfile="full" height="112.26244" version="1.1" width="1012.06886716" xmlns="http://www.w3.org/2000/svg" xmlns:ev="http://www.w3.org/2001/xml-events" xmlns:xlink="http://www.w3.org/1999/xlink"><defs /><polygon fill="none" points="1004.06886716,69.6456 1000.8037671599999,69.1777214 996.64206716,68.5021 991.99856716,67.678932 986.8744671599999,66.74115900000001 981.37526716,65.73199500000001 975.64996716,64.692356 969.79346716,63.654461 963.83036716,62.628045 957.7716671599999,61.615236 951.6260671599999,60.617394000000004 945.3989671599999,59.63418 939.09656716,58.66209 932.72866716,57.6972 926.3092671599999,56.73577 919.85676716,55.774840000000005 913.3901671599999,54.81602 906.9231671599999,53.8626 900.4638671600001,52.91693 894.0142671599999,51.98049 887.57036716,51.053760000000004 881.12536716,50.13563 874.67396716,49.224540000000005 868.21286716,48.31929 861.74106716,47.418980000000005 855.2601671599999,46.523030000000006 848.7737671599999,45.63135 842.28576716,44.74474 835.79956716,43.864050000000006 829.31706716,42.989990000000006 822.8393671599999,42.12308 816.36636716,41.26371 809.89676716,40.41212 803.42896716,39.56823 796.96156716,38.73187 790.49346716,37.902969999999996 784.0241671599999,37.08147 777.55336716,36.267390000000006 771.0813671599999,35.4608 764.6087671600001,34.661820000000006 758.13616716,33.87068 751.6641671599999,33.08758 745.19286716,32.31271 738.72246716,31.546219999999998 732.25276716,30.788240000000002 725.7832671599999,30.038870000000003 719.3133671599999,29.29815 712.84246716,28.56602 706.36996716,27.842350000000003 699.89576716,27.127040000000008 693.41976716,26.420050000000003 686.9421671599999,25.72132 680.46336716,25.030839999999998 673.9839671599999,24.34861 667.50486716,23.674770000000002 661.02666716,23.009619999999998 654.54976716,22.353450000000002 648.0746671599999,21.706540000000004 641.60126716,21.069110000000002 635.12956716,20.441409999999998 628.65916716,19.82363 622.18966716,19.215960000000003 615.7204671599999,18.61844 609.25096716,18.031010000000002 602.78086716,17.453609999999998 596.30966716,16.88621 589.8372671599999,16.328760000000003 583.36356716,15.781260000000003 576.88856716,15.24369 570.4123671599999,14.716060000000006 563.93526716,14.198430000000002 557.4573671599999,13.690939999999998 550.97906716,13.193730000000002 544.5007671599999,12.706940000000003 538.02296716,12.230710000000002 531.54616716,11.76518 525.07096716,11.31051 518.59786716,10.866840000000003 512.1276671600001,10.434429999999999 505.66076716,10.01368 499.19746716,9.605000000000004 492.73786716000006,9.208770000000001 486.28166716000004,8.82535 479.82856716000003,8.455100000000002 473.37806716,8.098370000000003 466.92906716000005,7.755490000000002 460.48086716,7.426700000000004 454.03246716000007,7.111980000000003 447.58326716,6.811319999999995 441.13306716000005,6.524719999999995 434.68196716000006,6.252190000000006 428.23026716000004,5.993760000000002 421.77876716000003,5.749470000000009 415.32826716,5.519350000000003 408.88016716,5.303539999999998 402.43566716000004,5.102499999999992 395.99556716000006,4.916740000000004 389.56066716000004,4.746780000000001 383.13096716,4.5930800000000005 376.70646716000005,4.456130000000002 370.28676716,4.336389999999994 363.87106716000005,4.234319999999997 357.45826716000005,4.150350000000003 351.04756715999997,4.084710000000001 344.63816716,4.037620000000004 338.23016716,4.009309999999999 331.82386716,4.0 325.41996716,4.009919999999994 319.01976716,4.039259999999999 312.62476716000003,4.088220000000007 306.23686716000003,4.157110000000003 299.85786716000007,4.2465700000000055 293.48836716,4.357220000000012 287.12856716000005,4.4897299999999944 280.77756716,4.644759999999991 274.43396716000007,4.8230099999999965 268.09546716,5.025200000000012 261.75906716000003,5.252130000000008 255.42206715999998,5.504460000000009 249.08346716,5.782730000000001 242.74486715999998,6.087359999999997 236.40976715999997,6.41866000000001 230.08426716,6.776730000000008 223.77616716,7.16142 217.49546716,7.572430000000004 211.25206716,8.010590000000008 205.05036716,8.477879999999999 198.88876716,8.976640000000003 192.76016716,9.50965 186.65196716,10.080310000000004 180.54646716000002,10.69287 174.42066716,11.351840000000003 168.25186716,12.057190000000006 162.02766716,12.806049999999999 155.74916715999998,13.59384 149.43246716000002,14.413620000000002 143.11006716,15.255790000000005 136.82936716,16.109610000000004 130.63916716,16.975430000000003 124.56746715999999,17.860890000000005 118.62046716,18.775170000000003 112.78726716,19.72876 107.04456716,20.733780000000003 101.36025716,21.801930000000006 95.70902715999999,22.93793 90.08355716,24.14268 84.49430715999999,25.4133 78.96813716,26.742330000000003 73.54504716,28.11869 68.26637715999999,29.53571 63.158037160000006,30.990500000000004 58.23056716000001,32.48202 53.483497160000006,34.01081 48.91197716,35.579550000000005 44.53646716,37.18741000000001 40.412737160000006,38.81586 36.60027716,40.43458 33.13460716,42.01329 30.020427159999997,43.53047 27.23509716,44.979420000000005 24.736387160000003,46.36522 22.48053716,47.69706000000001 20.42923716,48.98472 18.55122716,50.2371 16.821917159999998,51.46374 15.22787716,52.675200000000004 13.76842716,53.87057 12.445211160000001,55.04128 11.25566516,56.17736 10.191601160000001,57.27127 9.24086716,58.31911 8.38992916,59.32007 7.63143616,60.273036000000005 6.96208816,61.178294 6.375501160000001,62.039831 5.86480816,62.862755 5.42387216,63.652147 5.04764096,64.412678 4.73218496,65.148518 4.47463616,65.86337900000001 4.27311296,66.5606 4.12667289,67.243234 4.03530895,67.914152 4.0,68.576137 4.02283467,69.231997 4.10717125,69.8846917 4.25485586,70.5373029 4.46483946,71.192674 4.73703336,71.853415 5.07252716,72.52199300000001 5.47354216,73.20077 5.94342416,73.891989 6.48661816,74.597655 7.1085211600000004,75.319252 7.81499816,76.057119 8.61102816,76.80916500000001 9.49953616,77.569731 10.48965616,78.335097 11.59396216,79.10277500000001 12.82457216,79.87002 14.19186716,80.63457 15.70337716,81.39609 17.363887159999997,82.15856 19.17855716,82.93378 21.16206716,83.73481 23.34077716,84.5646 25.74715716,85.42499000000001 28.41761716,86.31659 31.38894716,87.23748 34.69445716,88.18235 38.35838716,89.14195000000001 42.387977160000005,90.10358 46.763017160000004,91.05231 51.439687160000005,91.97561999999999 56.37298716000001,92.86907 61.53686716,93.72999 66.90660716000001,94.55266 72.45229715999999,95.3331 78.14292716,96.06989 83.95122716,96.7636 89.85512716,97.41366000000001 95.83523715999999,98.02001 101.87578716,98.5839 107.96596716,99.10769 114.10046716,99.59434 120.27706715999999,100.04613 126.49296715999999,100.46519 132.74446716,100.85381000000001 139.02726716,101.21436 145.33616716,101.54928 151.66566716,101.85994 158.01106716,102.14695 164.36906716000001,102.41099 170.73736716,102.65286 177.11506716,102.87344 183.50246716,103.07366 189.90066715999998,103.25456 196.31056715999998,103.41718 202.73286716,103.56257 209.16716716000002,103.69177 215.61316716,103.80582 222.06936716,103.90579 228.53426716,103.99256 235.00606716000001,104.06656000000001 241.48326716,104.12813 247.96476716,104.17761999999999 254.44956716000002,104.21542 260.93726716000003,104.24190999999999 267.42736716,104.25746000000001 273.92006716000003,104.26244 280.41546716000005,104.25713 286.91366716000005,104.24179000000001 293.41476716,104.21669 299.91876716,104.18209999999999 306.42566716,104.13828000000001 312.93566716000004,104.0855 319.44866716,104.02403000000001 325.96456716000006,103.95416 332.48346716000003,103.87618 339.00516716000004,103.79038 345.52976716000006,103.69704999999999 352.05716716,103.59648999999999 358.58736716000004,103.48898 365.12026716,103.37484 371.65586716,103.25431 378.19396716,103.12759 384.73436716000003,102.99486 391.27686716,102.85629 397.82106716000004,102.71207000000001 404.36666716,102.56239 410.91306716,102.40743 417.45966716000004,102.24739 424.00586716000004,102.08237 430.55116716000003,101.91233 437.09526716,101.73718 443.63806716,101.55684 450.17966716,101.37123 456.72036716,101.18027000000001 463.26066716,100.98385 469.80126716,100.78187 476.34316716,100.57432 482.8870671600001,100.36139 489.43336716,100.14332 495.98246716000006,99.92034000000001 502.53426716,99.69268 509.08836715999996,99.4606 515.6440671600001,99.22437000000001 522.20066716,98.98425 528.7569671599999,98.74043 535.3117671599999,98.49276 541.8643671599999,98.24105 548.4142671599999,97.98510999999999 554.96136716,97.72473 561.50576716,97.45968 568.0479671599999,97.18973 574.58866716,96.91464 581.12886716,96.63423 587.66966716,96.34855 594.2116671599999,96.05772999999999 600.7552671599999,95.76189 607.30036716,95.46118 613.84666716,95.15575 620.3935671599999,94.84578 626.9400671599999,94.53146000000001 633.4848671599999,94.21281 640.0265671599999,93.88934 646.56396716,93.56053 653.09566716,93.22583 659.6207671599999,92.88471 666.13816716,92.53662 672.64706716,92.18104 679.14656716,91.81744 685.63606716,91.44518 692.11536716,91.06349 698.5845671599999,90.67157 705.04446716,90.26859999999999 711.49606716,89.85373 717.94116716,89.42607000000001 724.3816671599999,88.98469 730.82016716,88.52884 737.25926716,88.05874 743.70136716,87.57493 750.14866716,87.07799 756.60276716,86.56845 763.0653671599999,86.04692 769.53746716,85.51399 776.01996716,84.97039000000001 782.5133671599999,84.41758 789.01776716,83.85743 795.5323671599999,83.2919 802.0559671599999,82.72301 808.5866671599999,82.15286 815.1217671599999,81.58362 821.6583671599999,81.01723 828.19316716,80.45472000000001 834.7239671599999,79.89687 841.24916716,79.344356 847.76816716,78.797809 854.2810671599999,78.257771 860.7887671599999,77.724728 867.2922671599999,77.19919900000001 873.79166716,76.681787 880.28606716,76.17316600000001 886.7738671599999,75.674075 893.25216716,75.185311 899.71776716,74.707897 906.16816716,74.243244 912.60356716,73.792651 919.02586716,73.357246 925.4395671599999,72.938024 931.85006716,72.53541200000001 938.25866716,72.14869900000001 944.65756716,71.777433 951.03046716,71.421581 957.35276716,71.08192100000001 963.59186716,70.762986 969.70796716,70.4705566 975.65806716,70.2095086 981.39536716,69.9853737 986.84536716,69.805991 991.9227671599999,69.67576015 996.56996716,69.60195055 1000.77046716,69.59639998 1004.06886716,69.6456" stroke="black" stroke-width="2.0" /></svg>