<?xml version="1.0" encoding="utf-8" ?>
<svg baseProfile="full" height="120.99987" version="1.1" width="1012.003367151" xmlns="http://www.w3.org/2000/svg" xmlns:ev="http://www.w3.org/2001/xml-events" xmlns:xlink="http://www.w3.org/1999/xlink"><defs /><polygon fill="none" points="1004.003367151,77.58887 1000.770467151,76.8009248 996.5881671510001,75.708076 991.900067151,74.419822 986.7870671510001,72.992501 981.426867151,71.508452 975.971967151,70.04067 970.458567151,68.623332 964.865867151,67.25295 959.178167151,65.92382 953.390567151,64.63275999999999 947.507867151,63.37589 941.539467151,62.14769 935.498067151,60.94233 929.399967151,59.75405 923.2622671510001,58.581540000000004 917.098967151,57.42627 910.9198671510001,56.28889 904.730867151,55.169129999999996 898.533267151,54.06595 892.3261671509999,52.97833 886.108867151,51.90542 879.8813671510001,50.84647 873.643967151,49.80081 867.397867151,48.7679 861.1443671510001,47.747460000000004 854.884867151,46.739360000000005 848.620267151,45.74346 842.351567151,44.75953 836.079367151,43.78736 829.804067151,42.82666 823.5260671510001,41.87733 817.245567151,40.93934 810.9626671510001,40.012660000000004 804.6775671510001,39.09725 798.390367151,38.193059999999996 792.101167151,37.30006 785.8101671510001,36.418189999999996 779.517367151,35.54744 773.2226671510001,34.68776 766.9261671510001,33.83912 760.627967151,33.00149 754.327867151,32.174820000000004 748.025867151,31.359069999999996 741.7219671510001,30.55419 735.415967151,29.760079999999995 729.1080671510001,28.976690000000005 722.798067151,28.203940000000003 716.486367151,27.441769999999998 710.172767151,26.690130000000003 703.8576671510001,25.94896 697.5410671510001,25.218249999999998 691.223367151,24.49807 684.904567151,23.788489999999996 678.584967151,23.089579999999998 672.2646671509999,22.401430000000005 665.9438671510001,21.72408 659.622767151,21.05762 653.301467151,20.402109999999993 646.980067151,19.757669999999997 640.658767151,19.124430000000004 634.337467151,18.50251 628.016267151,17.89204 621.694967151,17.293129999999998 615.373567151,16.705889999999997 609.051667151,16.13042 602.729167151,15.566829999999996 596.405867151,15.015120000000003 590.0815671510001,14.475290000000001 583.756167151,13.947360000000003 577.4298671509999,13.431350000000009 571.102667151,12.927279999999996 564.774867151,12.435189999999992 558.446767151,11.955110000000005 552.118767151,11.487139999999997 545.7911671510001,11.031480000000002 539.4642671510001,10.588369999999998 533.138267151,10.158019999999993 526.813367151,9.740639999999999 520.4895671510001,9.33645 514.166667151,8.945630000000008 507.84466715100007,8.568390000000008 501.52336715100006,8.204899999999995 495.202467151,7.855260000000001 488.881867151,7.519599999999997 482.561567151,7.198030000000003 476.241467151,6.890680000000003 469.921667151,6.597669999999994 463.602267151,6.319119999999998 457.283467151,6.055180000000007 450.965467151,5.805999999999997 444.64866715100004,5.571820000000002 438.333067151,5.352879999999999 432.018967151,5.1494 425.706367151,4.9616299999999995 419.395467151,4.789789999999996 413.086367151,4.634100000000004 406.77906715100005,4.494789999999995 400.473467151,4.372100000000003 394.16976715100003,4.266310000000004 387.86786715100004,4.177670000000006 381.568067151,4.1064599999999984 375.270367151,4.0529300000000035 368.97496715100004,4.0173599999999965 362.68216715100004,4.0 356.392167151,4.001130000000003 350.10516715100005,4.021110000000007 343.821567151,4.060359999999989 337.54156715100004,4.119280000000003 331.265267151,4.198269999999994 324.993167151,4.297719999999998 318.725167151,4.418039999999991 312.46166715100003,4.559600000000003 306.202867151,4.722860000000011 299.948867151,4.908320000000003 293.69996715100007,5.116479999999996 287.456467151,5.347829999999988 281.218467151,5.602879999999999 274.98636715099997,5.8821100000000115 268.76026715100005,6.186000000000007 262.54066715100004,6.515090000000001 256.32786715099996,6.870019999999997 250.122267151,7.251439999999988 243.92436715099998,7.659949999999995 237.734567151,8.096189999999993 231.553567151,8.56074000000001 225.381867151,9.054209999999998 219.220167151,9.577349999999996 213.069167151,10.131100000000004 206.929867151,10.716379999999987 200.803067151,11.33408 194.689667151,11.985060000000004 188.59046715099998,12.670180000000002 182.506767151,13.39031 176.439367151,14.146619999999992 170.389367151,14.940290000000005 164.357667151,15.7725 158.344967151,16.644399999999997 152.351867151,17.55715 146.379067151,18.512059999999998 140.427967151,19.510830000000006 134.50136715099998,20.555 128.60296715100003,21.6458 122.737467151,22.784099999999995 116.91066715100001,23.97045 111.12846715100001,25.20594 105.394867151,26.49261 99.710787151,27.832980000000006 94.07445715100002,29.230130000000003 88.481787151,30.68786 82.93048715100001,32.21075 77.430627151,33.800979999999996 72.00656715100001,35.45562 66.693857151,37.16626 61.533957150999996,38.92038 56.556317151,40.71034 51.760687151,42.53803 47.124787151,44.41321 42.613327151,46.3528 38.216717151,48.36887 34.031107151,50.423680000000004 30.211187150999997,52.43204 26.858837151,54.31335 23.975127151000002,56.03781 21.480227151,57.62988 19.282937151,59.12711 17.311837151,60.56232 15.514277151,61.96281 13.852620151000002,63.35194 12.319029151,64.73344 10.935062151,66.07861 9.719334151,67.35012 8.669731151,68.524583 7.767271151,69.597367 6.989422150999999,70.575412 6.326187151,71.470579 5.7662881509999995,72.298772 5.297321151,73.074798 4.909143451,73.810745 4.594309951,74.516301 4.347817551,75.199412 4.166819051,75.866872 4.050473911,76.524835 4.0,77.1792761 4.018892161,77.8364552 4.109072851,78.5019152 4.269153251,79.179252 4.499717051,79.87145 4.8034864509999995,80.580948 5.185147151,81.309276 5.651023151,82.056145 6.208045151,82.817493 6.863363151,83.585151 7.630275150999999,84.356333 8.525034151,85.130292 9.564594151000001,85.906808 10.764994151,86.687153 12.138850151000002,87.47596 13.692446151,88.28462999999999 15.425977151,89.13521 17.355737151,90.04146 19.512107151000002,91.004 21.925647150999996,92.01886 24.624327151,93.07612 27.635027151,94.16040000000001 30.992607151,95.25704999999999 34.730457150999996,96.35792000000001 38.864697151,97.45457 43.382687151,98.53921 48.238737151,99.60788 53.369757151,100.6486 58.704027151,101.64212 64.173897151,102.57549 69.73738715100001,103.44471 75.386467151,104.25296 81.12367715100001,105.00480999999999 86.948027151,105.70471 92.853587151,106.35712 98.828747151,106.96649 104.85846715100001,107.53512 110.929267151,108.06393 117.030267151,108.55449 123.15386715100001,109.00894 129.295767151,109.42992000000001 135.455167151,109.81975 141.63186715099997,110.17996 147.825567151,110.51201 154.03586715100002,110.81737000000001 160.261967151,111.09753 166.502667151,111.35399000000001 172.756767151,111.58797 179.023067151,111.80049 185.30036715100002,111.99256 191.587367151,112.16523000000001 197.882867151,112.31957 204.185667151,112.45667 210.494467151,112.57741 216.808367151,112.68218999999999 223.12646715099999,112.77138 229.448067151,112.84534 235.77276715099998,112.90445 242.100167151,112.94908000000001 248.43036715099998,112.97963 254.763467151,112.99645000000001 261.099467151,112.99987 267.438367151,112.99022 273.780367151,112.96784 280.12506715100005,112.93306 286.472467151,112.8862 292.82216715100003,112.82760999999999 299.173967151,112.75756999999999 305.527367151,112.67623 311.882067151,112.58374 318.23786715100005,112.48022 324.59446715100006,112.36583 330.95156715100006,112.2407 337.308967151,112.10498000000001 343.666467151,111.9588 350.023967151,111.80212 356.38116715100006,111.63477 362.73746715100003,111.45660000000001 369.092567151,111.26743 375.44556715100003,111.06713 381.795867151,110.85556 388.14256715100004,110.63257 394.48456715099996,110.39802 400.820867151,110.1514 407.150767151,109.89204000000001 413.47386715100004,109.61927 419.790067151,109.3324 426.099467151,109.03074 432.402567151,108.71359 438.700267151,108.38021 444.993467151,108.02993000000001 451.28366715100003,107.66262 457.572067151,107.27851 463.85996715100003,106.87780000000001 470.148567151,106.46069 476.439267151,106.02736999999999 482.733267151,105.578 489.031867151,105.11276 495.336067151,104.6318 501.647267151,104.13575 507.966467151,103.62568999999999 514.2945671509999,103.10275 520.6320671510001,102.56809 526.979367151,102.02288 533.336467151,101.46837 539.703267151,100.90581 546.0790671510001,100.33648 552.463267151,99.76154 558.8548671510001,99.18168 565.252967151,98.59758 571.656567151,98.00992 578.064667151,97.41938 584.476267151,96.82665 590.890267151,96.23243 597.305667151,95.63741 603.721267151,95.04228 610.136167151,94.44755 616.5493671510001,93.8537 622.9600671510001,93.26116999999999 629.367867151,92.67039 635.7722671509999,92.0818 642.172867151,91.49579 648.569767151,90.91274 654.962967151,90.33304 661.352567151,89.75709 667.7386671510001,89.18532 674.121567151,88.61814 680.501267151,88.05599 686.877967151,87.499289 693.251867151,86.948455 699.622967151,86.403913 705.991467151,85.866083 712.3573671510001,85.33534 718.720867151,84.812031 725.0819671510001,84.296502 731.440767151,83.7891 737.797367151,83.290171 744.151667151,82.80006 750.5037671509999,82.319115 756.853767151,81.847683 763.2015671510001,81.386138 769.5470671510001,80.934863 775.890367151,80.494244 782.231267151,80.064668 788.569567151,79.646523 794.905067151,79.240196 801.237567151,78.846074 807.566767151,78.464606 813.892367151,78.0963346 820.214267151,77.741805 826.532267151,77.401555 832.846367151,77.0761162 839.156467151,76.7660141 845.462567151,76.47177 851.764767151,76.193954 858.0629671510001,75.933221 864.356867151,75.690234 870.645867151,75.46566 876.929167151,75.260161 883.205867151,75.074393 889.474667151,74.909077 895.734567151,74.765258 901.984667151,74.644046 908.224567151,74.546522 914.454167151,74.473747 920.673567151,74.426769 926.882967151,74.406751 933.080467151,74.415031 939.2617671510001,74.45289700000001 945.419667151,74.521493 951.544667151,74.621816 957.624167151,74.756158 963.6408671510001,74.927885 969.572467151,75.139542 975.394267151,75.392636 981.068667151,75.688307 986.522367151,76.024708 991.666367151,76.394892 996.4175671510001,76.7933951 1000.696667151,77.214685 1004.003367151,77.58887" stroke="black" stroke-width="2.0" /></svg>