<?xml version="1.0" encoding="utf-8" ?>
<svg baseProfile="full" height="110.5564192" version="1.1" width="1012.3693435" xmlns="http://www.w3.org/2000/svg" xmlns:ev="http://www.w3.org/2001/xml-events" xmlns:xlink="http://www.w3.org/1999/xlink"><defs /><polygon fill="none" points="1004.3693435,102.25807999999999 1001.3597435,101.59798559999999 997.7132435,100.80303699999999 993.8584435,99.96842 989.7724435,99.09020799999999 985.4303434999999,98.164221 980.8056435000001,97.186207 975.8720435,96.15220799999999 970.6060434999999,95.059186 964.9921435,93.906044 959.0304435,92.695076 952.7457435,91.43369 946.1959435,90.13441999999999 939.5545435,88.82928 932.9918435000001,87.54782999999999 926.4457435,86.27389 919.8654435000001,84.99368 913.2168435000001,83.69662 906.5677435,82.39183999999999 900.0028435,81.09244999999999 893.5061435,79.79522999999999 887.0603435,78.49869999999999 880.6506435,77.20170999999999 874.2644435000001,75.90342999999999 867.8906435,74.60329999999999 861.5198435000001,73.30100999999999 855.1438435,71.99650999999999 848.7558435000001,70.68999 842.3499435,69.38192 835.9215435,68.07301999999999 829.4675435,66.76432 822.9855435000001,65.45714 816.4749435,64.15311 809.9362434999999,62.85419999999999 803.3718435,61.56269999999999 796.7851435,60.28077 790.1807435000001,59.00950999999999 783.5627435,57.749779999999994 776.9349435,56.50233999999999 770.3005435,55.26779999999999 763.6625435,54.04670999999999 757.0235435000001,52.83948999999999 750.3853435,51.646449999999994 743.7496435,50.467819999999996 737.1175435,49.30373999999999 730.4896435,48.154239999999994 723.8660435,47.01926999999999 717.2464435,45.89873999999999 710.6303435000001,44.79243999999999 704.0163435000001,43.70011999999999 697.4030435,42.62144999999999 690.7887435,41.555949999999996 684.1719435,40.50318999999999 677.5516435000001,39.46277 670.9269435,38.434349999999995 664.2969435,37.41763 657.6613435,36.412339999999986 651.0199435,35.41826999999999 644.3726435000001,34.43522999999999 637.7199435,33.46306999999999 631.0623435,32.50167999999999 624.4005435,31.550969999999992 617.7355435,30.610889999999998 611.0688435,29.68141 604.4018434999999,28.76254 597.7364435000001,27.854489999999984 591.0742435,26.958219999999997 584.4166435000001,26.074849999999984 577.7648435,25.205470000000005 571.1198435000001,24.351079999999982 564.4822435000001,23.512659999999997 557.8524435,22.69113999999999 551.2308435,21.88741999999999 544.6172435,21.102339999999984 538.0113435,20.336709999999997 531.4127435,19.591319999999982 524.8206435,18.866919999999993 518.2341435000001,18.16426 511.6520435,17.484039999999993 505.07314350000007,16.826979999999992 498.4956435,16.193569999999994 491.9182435,15.583219999999983 485.33934350000004,14.99496999999998 478.7577435,14.427909999999997 472.1721435,13.881119999999981 465.5811435,13.353739999999988 458.98354350000005,12.844889999999992 452.3782435,12.353719999999996 445.7640435,11.879409999999993 439.1397435,11.421120000000002 432.5043435,10.978049999999996 425.8568435,10.549369999999996 419.19604350000003,10.134289999999993 412.52114350000005,9.732009999999988 405.8311435,9.341719999999995 399.1250435,8.96268999999998 392.4019435,8.594669999999994 385.6614435,8.237679999999983 378.9038435,7.891769999999994 372.1297435,7.557039999999986 365.34094350000004,7.233579999999989 358.5396435,6.921519999999987 351.7290435,6.6210200000000015 344.91724350000004,6.332390000000004 338.1037435,6.055589999999995 331.28954350000004,5.790569999999988 324.48454350000003,5.537659999999988 317.6952435,5.296959999999999 310.9285435,5.06856999999998 304.1916435,4.852530000000002 297.4920435,4.6499199999999945 290.8370435,4.4656599999999855 284.2323435,4.30525999999999 277.68194350000005,4.173850000000002 271.18824350000006,4.076239999999984 264.75244349999997,4.016889999999989 258.3742435,4.0 252.0524435,4.029509999999988 245.78484350000002,4.10920999999999 239.5685435,4.242729999999995 233.3997435,4.433660000000003 227.2741435,4.685559999999995 221.1866435,5.002079999999992 215.1317435,5.386979999999994 209.10334350000002,5.844219999999993 203.09474350000002,6.378059999999991 197.0985435,6.990380000000002 191.1063435,7.677749999999989 185.1085435,8.436539999999994 179.09384350000002,9.263779999999997 173.04934350000002,10.157129999999995 166.96014350000002,11.114989999999992 160.8084435,12.136529999999993 154.5729435,13.221859999999992 148.2284435,14.372869999999992 141.75434350000003,15.594560000000001 135.1507435,16.889349999999993 128.5004435,18.242469999999983 121.89694349999999,19.63436999999999 115.2657435,21.08 108.74464350000001,22.547839999999994 102.5028935,23.99539999999999 96.6184835,25.41284999999999 91.0870535,26.82750999999999 85.83817350000001,28.277239999999992 80.7741135,29.80668 75.77678350000001,31.470619999999997 70.7094935,33.310439999999986 65.46436349999999,35.34853 59.9944535,37.58373999999999 54.362803500000005,39.96086999999999 48.7861335,42.35778999999999 43.524423500000005,44.66629 38.6976435,46.83970999999999 34.312743499999996,48.87469999999999 30.3286135,50.787009999999995 26.6910635,52.60721999999999 23.3955335,54.40277 20.542903499999998,56.15169999999999 18.1548835,57.79621999999999 16.1535835,59.31797999999999 14.461203499999998,60.71363999999999 13.0185225,61.989189999999994 11.7730055,63.16291999999999 10.6855275,64.25227999999998 9.727904500000001,65.27134 8.8796635,66.23105999999999 8.1256425,67.14003 7.454411499999999,68.005 6.8572115,68.83139 6.3272545000000004,69.62359999999998 5.859242500000001,70.38525999999999 5.4490365,71.11937999999999 5.0934215,71.82851 4.7899442,72.5148 4.5367956,73.18012999999999 4.33273202,73.82609 4.1770235,74.45409 4.0694263,75.06537 4.0101757,75.66100999999999 4.0,76.24198999999999 4.0401567,76.80917 4.1324949,77.36335 4.27955173,77.90522999999999 4.4845632,78.43553 4.7490445,78.95591999999999 5.0728223,79.46896 5.4563275,79.97721999999999 5.9006845000000006,80.48331999999999 6.4077375,80.99004 6.9801055,81.50040999999999 7.621268499999999,82.0179 8.3356835,82.54656999999999 9.1289245,83.09132 10.0078255,83.65825999999998 10.9805805,84.25522 12.0566245,84.89242999999999 13.2459075,85.58352 14.556573499999999,86.34662 15.9887035,87.20505 17.5205335,88.18469999999999 19.1153635,89.29122999999998 20.7427135,90.4918 22.3685835,91.72917 23.967513500000003,92.938982 25.532203499999998,94.06901099999999 27.0734535,95.08697699999999 28.6151835,95.97676999999999 30.1904035,96.73134999999999 31.8265635,97.359679 33.541073499999996,97.87958499999999 35.353243500000005,98.30387499999999 37.2866535,98.64163599999999 39.3718135,98.899468 41.650243499999995,99.082499 44.1811835,99.19564199999999 47.0532835,99.24620399999999 50.4027735,99.25097699999999 54.4255535,99.25863 59.356953499999996,99.37780699999999 65.1921035,99.67399599999999 71.4777635,100.12247199999999 77.6404735,100.61925299999999 83.56225350000001,101.080655 89.3862335,101.48853569999999 95.2179335,101.84122799999999 101.1192335,102.13110529999999 107.1150435,102.34589052999999 113.2025435,102.4817076 119.3753435,102.5480063 125.6269435,102.5564192 131.9506435,102.51999629999999 138.3400435,102.45307399999999 144.78904350000002,102.3711235 151.2920435,102.29059104999999 157.8442435,102.22820895 164.44094350000003,102.19047889 171.07694350000003,102.17389089 177.74724350000002,102.17435046 184.4470435,102.18758353 191.1721435,102.20916752 197.91824350000002,102.23456073 204.68194350000002,102.25912895399999 211.4600435,102.27915318999999 218.24994350000003,102.29431460999999 225.04924350000002,102.30504893999999 231.85594350000002,102.31180217999999 238.6680435,102.31502864 245.48374350000003,102.31518894 252.3016435,102.31274837 259.1203435,102.30817531999999 265.9388435,102.30194003999999 272.7563435,102.29451350999999 279.5722435,102.28636666 286.3861435,102.27796973 293.1979435,102.26979195999999 300.00774350000006,102.26230142099999 306.8157435,102.25596060999999 313.62264350000004,102.25100152099999 320.4287435,102.24732388 327.23464350000006,102.24480188999999 334.0405435,102.24331013 340.8469435,102.24272339999999 347.65414350000003,102.24291663 354.4622435,102.24376480999999 361.2715435,102.24514291999999 368.08214350000003,102.24692581999999 374.8940435,102.248988304 381.70734350000004,102.251204964 388.52204350000005,102.253450252 395.3379435,102.255598447 402.15504350000003,102.2575236787 408.9730435,102.259108144 415.79174350000005,102.26032628499999 422.6110435,102.26121078899999 429.4307435,102.26179531 436.2506435,102.26211354799999 443.0706435,102.26219922799999 449.89074350000004,102.262086097 456.71074350000004,102.26180791399999 463.5306435,102.26139843899999 470.3505435,102.260891432 477.17034350000006,102.26032065099999 483.9900435,102.259719847 490.8098435,102.259122768 497.6297435,102.2585631626 504.44984350000004,102.25807478030399 511.2703435000001,102.257683992 518.0913435,102.25738864659999 524.9122435,102.2571797289 531.7324434999999,102.25704819299999 538.5520435,102.256984972 545.3710435,102.25698100499999 552.1894435,102.257027235 559.0074435,102.2571146152 565.8251435,102.25723410309999 572.6427435,102.2573766634 579.4604435,102.25753326489999 586.2785435000001,102.25769487839999 593.0973435000001,102.25785247299999 599.9172435,102.25799701262999 606.7380435,102.25811952359999 613.5574435,102.25821535479999 620.3746435,102.25828640809999 627.1895435,102.2583351264 634.0021435,102.2583639505 640.8123435,102.2583753166 647.6206435,102.25837165499999 654.4271435,102.25835538909999 661.2324435,102.25832893539999 668.0372435,102.2582947042 674.8422435,102.25825510089999 681.6483435,102.25821252809999 688.4566434999999,102.25816938831 695.2682435,102.25812808747999 702.0844435,102.25809103930999 708.9036434999999,102.25806053113 715.7162435,102.25803710915 722.5203435,102.25802012553999 729.3156435000001,102.25800890945 736.1021435,102.2580027933 742.8803435000001,102.25800111481999 749.6512435000001,102.25800321815 756.4165435,102.25800845430999 763.1780435000001,102.25801618100999 769.9382435,102.25802576170999 776.7001435,102.25803656408999 783.4671435,102.25804795785 790.2432435000001,102.2580593118 797.0327435,102.25806999032 803.8407435,102.25807934875019 810.6501435,102.258086817843 817.4312435,102.25809238913 824.1807435,102.25809626881 830.8978435,102.25809866162999 837.5835435,102.25809976788999 844.2403435,102.25809978190999 850.8724434999999,102.25809889137 857.4855435,102.25809727734 864.0866435,102.25809511486 870.6842435,102.25809257415999 877.2885435000001,102.25808982230599 883.9113435,102.258087025395 890.5663435,102.258084351404 897.2696435,102.25808197378 904.0399435,102.25808007621885 910.8199435,102.258078824824 917.5059435,102.25807817176599 924.1088435,102.25807798559599 930.6585435000001,102.258078147032 937.2013435,102.25807854949399 943.8012435,102.2580790954671 950.5383435,102.2580796887972 957.1682435,102.25808020155469 963.4568435,102.2580805672299 969.3644435,102.258080800826 974.8864435,102.25808092288139 980.0393435000001,102.25808095285629 984.8503435,102.25808090770819 989.3504435000001,102.2580808015499 993.5707435,102.25808064584379 997.5402435,102.25808044979269 1001.2852435,102.2580802207563 1004.3693435,102.25807999999999" stroke="black" stroke-width="2.0" /></svg>