<?xml version="1.0" encoding="utf-8" ?>
<svg baseProfile="full" height="162.03715" version="1.1" width="1011.997574653" xmlns="http://www.w3.org/2000/svg" xmlns:ev="http://www.w3.org/2001/xml-events" xmlns:xlink="http://www.w3.org/1999/xlink"><defs /><polygon fill="none" points="1003.997574653,94.23252 1000.605874653,93.480171 996.308874653,92.53150699999999 991.581774653,91.491253 986.429674653,90.358325 980.880174653,89.138031 974.985074653,87.84137299999999 968.802774653,86.481158 962.393474653,85.07194 955.8166746530001,83.62857 949.117574653,82.16274 942.327274653,80.68186999999999 935.471774653,79.19181999999999 928.572274653,77.69731999999999 921.6436746530001,76.20174999999999 914.6961746530001,74.70791999999999 907.738874653,73.21848999999999 900.779374653,71.73580999999999 893.824474653,70.26195 886.879074653,68.79889 879.9451746530001,67.34837999999999 873.021674653,65.91153 866.1042746530001,64.48879 859.185374653,63.07995 852.255374653,61.68323999999999 845.306074653,60.29530999999999 838.333174653,58.91336 831.335474653,57.535259999999994 824.3157746530001,56.159589999999994 817.280574653,54.785799999999995 810.2378746530001,53.41519999999999 803.194074653,52.04949 796.153874653,50.68995999999999 789.1194746530001,49.33752 782.091574653,47.992659999999994 775.068674653,46.655499999999996 768.0485746530001,45.325799999999994 761.029574653,44.003389999999996 754.0109746530001,42.68825 746.992774653,41.38049999999999 739.9756746529999,40.08041999999999 732.9613746530001,38.78845 725.951674653,37.505379999999995 718.948474653,36.23217999999999 711.9529746530001,34.96974999999999 704.965774653,33.71886999999999 697.9872746530001,32.48024 691.0173746529999,31.254479999999987 684.0553746530001,30.042109999999994 677.100774653,28.843599999999995 670.153274653,27.659459999999996 663.212874653,26.490250000000003 656.2799746530001,25.33659 649.355174653,24.199129999999997 642.439774653,23.078579999999988 635.534774653,21.97587 628.6418746530001,20.892479999999992 621.762974653,19.830009999999987 614.900274653,18.790049999999994 608.056174653,17.77418999999999 601.2333746529999,16.78398999999999 594.434974653,15.820979999999992 587.6639746530001,14.886979999999994 580.9225746530001,13.984480000000005 574.211974653,13.115830000000003 567.531874653,12.283119999999997 560.881174653,11.488249999999994 554.2573746529999,10.732950000000002 547.657374653,10.018819999999991 541.076974653,9.347049999999982 534.511974653,8.717600000000004 527.957774653,8.130200000000002 521.4098746530001,7.584679999999992 514.863374653,7.080979999999997 508.31327465300006,6.6191499999999905 501.753974653,6.199359999999999 495.17997465300004,5.821729999999988 488.585674653,5.484999999999999 481.966774653,5.187269999999998 475.320074653,4.926779999999994 468.64397465300004,4.701830000000001 461.938274653,4.510739999999984 455.204274653,4.3518299999999925 448.44497465300003,4.223420000000004 441.664574653,4.124529999999993 434.866874653,4.054669999999987 428.055574653,4.013360000000006 421.233374653,4.0 414.40277465300005,4.013959999999983 407.565774653,4.054579999999987 400.72347465300004,4.121179999999995 393.876674653,4.213339999999988 387.026074653,4.330910000000003 380.172174653,4.4737499999999955 373.315374653,4.641710000000003 366.45607465300003,4.834609999999998 359.594474653,5.052309999999991 352.73097465300003,5.29464999999999 345.865574653,5.561499999999995 338.998574653,5.852759999999989 332.130674653,6.168319999999994 325.26237465300005,6.508029999999991 318.394574653,6.871759999999995 311.528274653,7.259319999999988 304.66477465300005,7.670579999999987 297.805274653,8.105599999999995 290.950674653,8.564589999999995 284.10167465300003,9.047730000000001 277.258874653,9.555219999999991 270.422374653,10.087289999999996 263.592074653,10.644149999999996 256.767874653,11.226069999999993 249.949674653,11.833259999999996 243.13837465299997,12.46589999999999 236.335074653,13.124079999999992 229.54157465299997,13.807859999999991 222.76007465299998,14.51715999999999 215.99347465299996,15.252059999999986 209.244574653,16.01317999999999 202.51637465299999,16.80122999999999 195.811274653,17.616879999999995 189.13177465299998,18.460769999999997 182.479874653,19.3335 175.85767465299998,20.235739999999993 169.26807465299999,21.168229999999994 162.71467465299997,22.131510000000006 156.202474653,23.12585999999999 149.73697465299998,24.151259999999994 143.324674653,25.207489999999993 136.97397465299997,26.29536999999999 130.698074653,27.415809999999993 124.514074653,28.56837999999999 118.442074653,29.751239999999996 112.50317465299999,30.961339999999993 106.718274653,32.19794999999999 101.104834653,33.46524 95.673374653,34.76704999999999 90.428664653,36.10630999999999 85.371044653,37.485189999999996 80.498354653,38.90530999999999 75.80879465299999,40.36791999999999 71.300014653,41.87338999999999 66.96882465300001,43.42132999999999 62.811304653,45.01072999999999 58.823124653,46.63981999999999 55.002544653,48.303549999999994 51.352284653000005,49.99367999999999 47.876924652999996,51.700309999999995 44.580614653000005,53.4128 41.465484653000004,55.120729999999995 38.531924653,56.81535999999999 35.778974653000006,58.49005999999999 33.202984653,60.13908 30.797694653,61.75775999999999 28.554864653,63.342659999999995 26.464904653,64.89150999999998 24.518414653,66.40311 22.708174653,67.87674 21.027254653,69.31152999999999 19.468454653,70.70676999999999 18.024234653,72.06215 16.686904653,73.37776 15.448734652999999,74.65414999999999 14.302324653,75.89229999999999 13.241516653,77.09421 12.260531653,78.26240999999999 11.353624653,79.39945 10.515284653,80.50778 9.740346653,81.58967 9.024048653000001,82.64725999999999 8.362032653,83.68248 7.7503346529999995,84.69708 7.185601653,85.6926 6.6672926530000005,86.669625 6.196212653,87.62804 5.772785653,88.567538 5.397030653,89.48773399999999 5.068580653,90.388241 4.786713253,91.26871899999999 4.550395853,92.128907 4.358331353,92.968644 4.209010353,93.787876 4.100750753,94.58663299999999 4.031610293,95.366135 4.0,96.13243609999999 4.011469653,96.89476649999999 4.081550883,97.65954699999999 4.229244353,98.42613399999999 4.478352753,99.177414 4.851949853,99.89275199999999 5.337976653,100.56905499999999 5.906328653,101.21094199999999 6.539312653,101.82653099999999 7.227140653,102.42763599999999 7.963520653,103.023034 8.750470653,103.614244 9.590982653000001,104.20229599999999 10.488211653,104.78849299999999 11.445435653,105.374483 12.465941652999998,105.96235999999999 13.552859652999999,106.55479 14.708944652999998,107.15511 15.938534653,107.76571 17.248724652999996,108.38739 18.647524652999998,109.02096999999999 20.143734653,109.66739999999999 21.747024653,110.32791999999999 23.467944653,111.00408999999999 25.317984653000003,111.69807 27.309754653,112.41287 29.457414653,113.15281999999999 31.778264653,113.92191 34.292694653,114.72219999999999 37.022274653,115.55542 39.988744653000005,116.42295999999999 43.212594653000004,117.32584 46.711684653,118.26478999999999 50.501304653,119.24083999999999 54.595244653,120.25309999999999 58.999914653,121.29713 63.709374653000005,122.36627999999999 68.705844653,123.45267999999999 73.965244653,124.54915 79.46661465300001,125.65035999999999 85.189134653,126.75041999999999 91.106324653,127.84344999999999 97.18845465300001,128.92441 103.406544653,129.9898 109.736074653,131.03717 116.156474653,132.06327 122.649274653,133.06545 129.199374653,134.04201999999998 135.795874653,134.99228 142.432774653,135.91640999999998 149.10677465299997,136.81492 155.814774653,137.68833 162.55317465299999,138.53725 169.31837465299998,139.36235 176.10667465299997,140.16434999999998 182.914174653,140.94359 189.737474653,141.70004 196.573774653,142.43375 203.420374653,143.14482999999998 210.275374653,143.83351 217.13737465299997,144.50008 224.00517465299998,145.14467 230.87817465299997,145.76729999999998 237.75557465299997,146.36799 244.63707465299998,146.94679 251.52227465299998,147.50376 258.41097465300004,148.03897 265.30317465300004,148.55250999999998 272.198774653,149.04439 279.097174653,149.51463 285.997774653,149.96323999999998 292.899474653,150.39019 299.800774653,150.79548 306.700274653,151.17905 313.596074653,151.54050999999998 320.486974653,151.87932 327.371974653,152.19499 334.25037465300005,152.48702 341.121974653,152.75497 347.98707465300004,152.99840999999998 354.84617465300005,153.21694 361.699574653,153.4103 368.547674653,153.57826 375.39007465300006,153.72055 382.22647465299997,153.83694 389.05587465300005,153.92719 395.877074653,153.99104 402.688474653,154.02811 409.48787465300006,154.03715 416.272174653,154.01677999999998 423.037174653,153.96567 429.777974653,153.88263 436.48867465300003,153.76657 443.162974653,153.61660999999998 449.793874653,153.43178 456.375274653,153.2097 462.904074653,152.94754 469.380274653,152.64254 475.806874653,152.29192 482.18907465300003,151.89279 488.534574653,151.44203 494.853174653,150.93627999999998 501.156174653,150.37415 507.4547746530001,149.7565 513.759674653,149.08397 520.0806746530001,148.35692 526.427274653,147.57547 532.808674653,146.73949 539.2337746530001,145.84868 545.7115746530001,144.90296 552.250674653,143.90437 558.857974653,142.856 565.537874653,141.76157999999998 572.2920746530001,140.62561 579.1187746530001,139.45361 586.011874653,138.25223 592.9611746530001,137.02922999999998 599.952474653,135.79093999999998 606.9720746529999,134.54189 614.007974653,133.28635 621.050174653,132.02824999999999 628.091274653,130.77111 635.1263746530001,129.51802 642.152974653,128.27158 649.170474653,127.03353999999999 656.1789746530001,125.80492 663.178074653,124.58671999999999 670.167674653,123.37992 677.147174653,122.18553 684.116174653,121.00457 691.073974653,119.83803999999999 698.019874653,118.68696 704.953174653,117.55239 711.873974653,116.43526 718.782474653,115.33648 725.679274653,114.25685 732.565374653,113.19709999999999 739.442374653,112.15794 746.3119746530001,111.13994 753.1757746530001,110.1434 760.034974653,109.16852 766.8899746530001,108.21564 773.740774653,107.28514 780.586574653,106.37751999999999 787.425974653,105.49329599999999 794.257174653,104.633117 801.0780746529999,103.798036 807.8868746530001,102.989285 814.682274653,102.208001 821.463674653,101.455236 828.2304746530001,100.73196399999999 834.982974653,100.03909399999999 841.721474653,99.377482 848.446374653,98.74798 855.157674653,98.151474 861.854574653,97.588876 868.5361746530001,97.0611057 875.2007746529999,96.5690807 881.846374653,96.1137304 888.470574653,95.6963191 895.070974653,95.3182805 901.6448746530001,94.98096199999999 908.189774653,94.685616 914.7030746529999,94.433388 921.181974653,94.225331 927.622174653,94.062446 934.017074653,93.94561999999999 940.357774653,93.875515 946.633474653,93.85247199999999 952.831574653,93.876503 958.933174653,93.94728099999999 964.911074653,94.063639 970.733474653,94.22327899999999 976.367974653,94.42313499999999 981.7793746530001,94.660873 986.930474653,94.93286499999999 991.7911746530001,95.23396659999999 996.343074653,95.56100359999999 1000.577874653,95.9120037 1003.997574653,96.23252" stroke="black" stroke-width="2.0" /></svg>