<?xml version="1.0" encoding="utf-8" ?>
<svg baseProfile="full" height="151.23541" version="1.1" width="1012.1776767" xmlns="http://www.w3.org/2000/svg" xmlns:ev="http://www.w3.org/2001/xml-events" xmlns:xlink="http://www.w3.org/1999/xlink"><defs /><polygon fill="none" points="1004.1776767,124.92120000000001 1001.3516767,123.13195500000002 998.0466767,120.87433600000001 994.6631767,118.54993500000002 991.2448767000001,116.30721300000002 987.7545767,114.19771000000001 984.1346767,112.20498 980.3248767,110.31030000000001 976.2676767,108.47727000000002 971.9237767000001,106.66373000000002 967.2879767,104.84179000000002 962.3734767000001,103.01007000000001 957.2002767,101.16890000000001 951.7905767,99.31876000000001 946.1650767,97.46675000000002 940.3447767,95.61882000000001 934.3467767,93.77834000000001 928.1885767,91.94782000000001 921.8902767,90.12917000000002 915.4737767,88.32464000000002 908.9591767000001,86.53802000000002 902.3627766999999,84.77176000000001 895.6958767000001,83.02656000000002 888.9663767,81.30251000000001 882.1810767,79.59949 875.3464766999999,77.91703000000001 868.4682767,76.25468000000001 861.5518767,74.61230000000002 854.6024767,72.98963 847.6253767000001,71.38631000000001 840.6249767,69.80243000000002 833.6048767000001,68.23826000000001 826.5673767,66.69376000000001 819.5136766999999,65.16863000000001 812.4440767000001,63.66228000000001 805.3588767,62.17408000000001 798.2581766999999,60.7034 791.1423767,59.24958000000001 784.0117766999999,57.81206000000002 776.8673767,56.390400000000014 769.7107767,54.98430000000002 762.5445767,53.59359000000002 755.3716767000001,52.218350000000015 748.1947767,50.859150000000014 741.0151767000001,49.516450000000006 733.8330767,48.19045000000001 726.6471767,46.88112000000001 719.4552767,45.58797000000001 712.2558767,44.31029000000002 705.0481767,43.047500000000014 697.8322767,41.79920000000001 690.6093767,40.56517000000001 683.3810767,39.345540000000014 676.1489767,38.14056000000001 668.9143766999999,36.95045000000002 661.6783767000001,35.77539 654.4420766999999,34.61553000000001 647.2057767,33.47111000000001 639.9698767,32.34235000000001 632.7338767,31.229410000000016 625.4969767,30.13236000000002 618.2579767000001,29.051200000000023 611.0156767,27.985670000000013 603.7697767,26.935570000000013 596.5207767,25.900800000000018 589.2698766999999,24.881400000000014 582.0190766999999,23.877500000000012 574.7706767,22.889800000000022 567.5263767,21.91900000000001 560.2871767,20.965800000000016 553.0536767,20.030500000000004 545.8255766999999,19.11370000000001 538.6026767000001,18.215900000000005 531.3852767,17.337400000000017 524.1736767,16.47880000000002 516.9688767,15.64070000000001 509.77237669999994,14.82380000000002 502.5856767,14.028900000000007 495.41007670000005,13.257100000000008 488.2468767,12.50970000000001 481.0968767,11.787400000000005 473.9607767,11.091400000000021 466.8388767,10.42240000000001 459.7308767,9.781500000000023 452.6358767,9.16940000000001 445.5520767,8.586900000000014 438.4772767,8.034800000000018 431.4092767,7.513200000000012 424.3475767,7.022400000000019 417.29377669999997,6.5626000000000175 410.2511767,6.134100000000004 403.2250767,5.737500000000011 396.2220767,5.3747000000000185 389.2491767,5.048400000000015 382.3134767,4.7612000000000165 375.4222767,4.5153000000000105 368.5827767,4.313000000000017 361.7999767,4.157300000000021 355.0739767,4.051900000000018 348.39947670000004,4.0 341.76647670000006,4.004800000000017 335.16087669999996,4.069500000000005 328.5678767,4.194100000000006 321.9761767,4.377700000000019 315.3779767,4.619700000000009 308.7696767,4.919600000000017 302.1508767,5.276900000000012 295.5233767,5.69080000000001 288.8895767,6.1606000000000165 282.2521767,6.6854000000000156 275.6143767,7.264200000000017 268.9795767,7.896200000000007 262.3499767,8.581300000000013 255.72667670000004,9.319600000000008 249.1088767,10.111500000000007 242.4943767,10.957300000000004 235.8806767,11.856800000000021 229.2679767,12.809200000000004 222.6591767,13.813300000000012 216.0601767,14.867400000000018 209.47957670000002,15.970000000000013 202.92587670000003,17.1212 196.4071767,18.320900000000023 189.9301767,19.56880000000001 183.5009767,20.865300000000005 177.1230767,22.21170000000002 170.79727670000003,23.610100000000017 164.5208767,25.063270000000017 158.2890767,26.574060000000017 152.0982767,28.143560000000022 145.94877670000002,29.77152000000001 139.8455767,31.456490000000002 133.7973767,33.19627000000001 127.8145767,34.98960000000001 121.90677670000001,36.835250000000016 116.0825767,38.731740000000016 110.3497767,40.677890000000005 104.71627670000001,42.67303000000001 99.1894867,44.71610000000001 93.77599670000001,46.80558000000002 88.4833967,48.939170000000004 83.32247670000001,51.112560000000016 78.30637670000002,53.319260000000014 73.44939670000001,55.55181 68.7677267,57.804710000000014 64.2763167,60.07172000000001 59.9868767,62.34554000000001 55.9081867,64.62087000000001 52.0432267,66.89763000000002 48.3870367,69.17816000000002 44.9298867,71.46582000000001 41.6609967,73.75958000000001 38.5737967,76.05245000000001 35.6651667,78.33504000000002 32.932996700000004,80.59689000000002 30.375346699999998,82.82700000000001 27.990046699999997,85.01410000000001 25.7735067,87.14783000000001 23.7200967,89.21983 21.8239367,91.22468 20.0788367,93.15951000000001 18.476786699999998,95.02304000000001 17.0084767,96.81551000000002 15.663936699999999,98.53837000000001 14.433316699999999,100.19417000000001 13.3071747,101.78596000000002 12.276500699999998,103.31691000000001 11.3328477,104.79032000000001 10.4683767,106.20946 9.6765347,107.57742000000002 8.954003700000001,108.89635000000001 8.298064700000001,110.16791 7.705710700000001,111.39365000000001 7.1737117,112.57510000000002 6.6986907,113.71385000000001 6.2771977,114.81156000000001 5.9051037,115.87035100000001 5.5768827,116.89358600000001 5.2873427,117.88501800000002 5.0319365,118.84839200000002 4.8067491,119.78728500000001 4.6084338,120.70504100000001 4.4341424,121.60475100000001 4.28157,122.48921900000002 4.15349521,123.35901800000002 4.0585407,124.21243720000001 4.0048333,125.04837530000002 4.0,125.86631440000001 4.051633,126.66614400000002 4.167762878,127.44803600000002 4.3573919,128.212364 4.6297326,128.95950600000003 4.9851633,129.688599 5.4204807,130.397287 5.9333407000000005,131.08184400000002 6.5218557,131.736872 7.1841047,132.35485 7.9176307,132.92588600000002 8.7222387,133.445477 9.6008947,133.91705800000003 10.5567287,134.34552100000002 11.592523700000001,134.73744900000003 12.7100577,135.10196000000002 13.9089457,135.45186 15.1851067,135.80464 16.5375967,136.17035 17.9718867,136.54791 19.494056699999998,136.93495000000001 21.1108767,137.3282 22.8307167,137.72351 24.6653567,138.11587 26.6326867,138.5003 28.7545867,138.87598000000003 31.056586699999997,139.24403 33.568786700000004,139.60637000000003 36.3246667,139.96621000000002 39.3562867,140.32866 42.6873267,140.69621 46.3315767,141.06314 50.290486699999995,141.42110000000002 54.5585067,141.76091000000002 59.140146699999995,142.0747 64.0496267,142.35776 69.2903667,142.60651000000001 74.8460867,142.81865000000002 80.67678670000001,142.99191000000002 86.7276367,143.12121000000002 92.94335670000001,143.2029 99.2821967,143.23541 105.7197767,143.21795 112.23677670000001,143.15003000000002 118.81687670000001,143.03175000000002 125.44697670000001,142.86360000000002 132.11357669999998,142.64589 138.7978767,142.3794 145.4747767,142.06580000000002 152.1150767,141.70619000000002 158.69657669999998,141.29654000000002 165.2146767,140.83113 171.6817767,140.30332 178.1246767,139.70564000000002 184.57797670000002,139.03634000000002 191.0723767,138.29666 197.6324767,137.48760000000001 204.2771767,136.61037000000002 211.01917670000003,135.66747 217.86647670000002,134.66395200000002 224.8214767,133.60661900000002 231.8797767,132.504231 239.0282767,131.367757 246.2460767,130.20626800000002 253.51187670000002,129.02477000000002 260.8088767,127.82754100000001 268.12527670000003,126.61814000000001 275.45517670000004,125.39927920000001 282.79687670000004,124.17325920000002 290.1489767,122.942535 297.5094767,121.70970300000002 304.8755767,120.47749200000001 312.2439767,119.24872200000001 319.6105767,118.02557100000001 326.97177669999996,116.80945400000002 334.32477670000003,115.60162000000001 341.66737670000003,114.40318000000002 348.99827669999996,113.21511000000001 356.3167767,112.03832000000001 363.62277670000003,110.87376000000002 370.9164767,109.72237000000001 378.1987767,108.58497000000001 385.4707767,107.46233000000001 392.7339767,106.35516000000001 399.9901767,105.26389 407.2407767,104.18871000000001 414.4869767,103.12985 421.7290767,102.08761000000001 428.9673767,101.06236000000001 436.2013767,100.05453000000001 443.4305767,99.06465000000001 450.6543767,98.09326000000001 457.8725767,97.14089000000001 465.08527669999995,96.20799000000001 472.2931767,95.29500000000002 479.49687670000003,94.40229000000002 486.6974767,93.53015000000002 493.8957767,92.67872000000001 501.0923767,91.84818000000001 508.28727670000006,91.03876000000001 515.4801767,90.25072000000002 522.6702766999999,89.48438000000002 529.8567767,88.74010000000001 537.0383767,88.01843000000001 544.2143767,87.31993000000001 551.3846767,86.64511000000002 558.5493767,85.99443000000002 565.7088767,85.36832000000001 572.8644767000001,84.76718000000002 580.0170767,84.19121000000001 587.1676767,83.64054000000002 594.3167767,83.11530000000002 601.4643767,82.61566000000002 608.6100767,82.14183000000001 615.7530767,81.69404000000002 622.8920767,81.27258 630.0258767,80.87796000000002 637.1536767,80.51071000000002 644.2748767,80.17131 651.3891767,79.86021000000001 658.4967767,79.57787000000002 665.5982767,79.32471000000001 672.6940767,79.10109000000001 679.7844766999999,78.90737000000001 686.8693767,78.74390000000002 693.9482767000001,78.61103000000001 701.0203767,78.50912000000001 708.0845767,78.43852000000001 715.1392767,78.39970000000001 722.1833766999999,78.39328 729.2160767,78.41990000000001 736.2371767,78.48016000000001 743.2468767,78.57467000000003 750.2457767,78.70407 757.2347767,78.86892 764.2143767,79.06971000000001 771.1841767000001,79.30688 778.1430767,79.58085000000001 785.0889767,79.89194 792.0190767,80.24041000000003 798.9300767000001,80.62675000000002 805.8190767,81.05189000000001 812.6842766999999,81.51684 819.5251767,82.02264000000001 826.3422767000001,82.57037000000001 833.1371766999999,83.16119 839.9113767,83.79608000000002 846.6646767,84.47572000000002 853.3942767,85.20048000000001 860.0954767,85.97043000000001 866.7615767,86.78525000000002 873.3840767,87.64495000000002 879.9554767000001,88.55077000000001 886.4701767,89.50408000000002 892.9247767,90.50625000000002 899.3178767,91.55877000000001 905.6484767000001,92.66312000000002 911.9122767,93.82006000000001 918.0994767,95.02899000000002 924.1958767,96.28786000000001 930.1843766999999,97.59337000000001 936.0454767,98.94478000000001 941.7615767,100.34336000000002 947.3185767,101.78937000000002 952.7058767000001,103.28217000000001 957.9160767,104.82208000000001 962.9456766999999,106.41320000000002 967.7974767000001,108.06043000000001 972.4792767,109.76893000000001 977.0010767,111.54282 981.3739767000001,113.38223 985.6082767,115.28725000000001 989.7140767,117.25759400000001 993.6969767,119.27522900000001 997.5363767,121.29819700000002 1001.1902767,123.27586500000001 1004.1776767,124.92120000000001" stroke="black" stroke-width="2.0" /></svg>