<?xml version="1.0" encoding="utf-8" ?>
<svg baseProfile="full" height="139.7987" version="1.1" width="1013.6639984" xmlns="http://www.w3.org/2000/svg" xmlns:ev="http://www.w3.org/2001/xml-events" xmlns:xlink="http://www.w3.org/1999/xlink"><defs /><polygon fill="none" points="1005.6639984,98.2164 1002.4799984,96.82171999999998 998.7718984,95.04265 994.9849984000001,93.2413 991.1426984,91.52724999999998 987.2051984000001,89.93761999999998 983.1173984,88.46182999999999 978.8178984,87.08608999999998 974.2473984000001,85.77618999999999 969.3707984,84.49284999999999 964.1910984,83.21556999999999 958.7062984,81.94735999999999 952.8696984,80.68045 946.6129984,79.37433999999999 939.9436984,78.01508999999999 932.9154984,76.61813999999998 925.6146984000001,75.20416 918.1475984,73.79566999999999 910.6208984,72.41297999999999 903.1236984000001,71.07119999999998 895.7144984,69.77850999999998 888.4210984,68.53700999999998 881.2445984,67.34409 874.1647984,66.19387999999998 867.1485984,65.07890999999998 860.1646984000001,63.99256999999999 853.1872984,62.929509999999986 846.1950984,61.88537999999999 839.1700984,60.85658999999999 832.0979984,59.840229999999984 824.9678984000001,58.83400999999999 817.7723984,57.83615999999999 810.5082984000001,56.845519999999986 803.1771984,55.86150999999999 795.7856984,54.88413999999999 788.3430984,53.91359999999999 780.8583984,52.949939999999984 773.3404984000001,51.993039999999986 765.7972983999999,51.04262999999999 758.2360984000001,50.09823999999999 750.6631984,49.159289999999984 743.0839984,48.22499999999999 735.5027984000001,47.29445999999999 727.9229984000001,46.36661999999999 720.3466984,45.44039999999998 712.7757984,44.51487999999999 705.2119984,43.589209999999994 697.6570984,42.662529999999975 690.1127984000001,41.73398999999999 682.5808984,40.80274999999999 675.0631984,39.86798999999998 667.5613984,38.9289 660.0770984000001,37.98469 652.6121984,37.03462999999999 645.1659984,36.084389999999985 637.7296984000001,35.14672999999999 630.2923984,34.22193999999999 622.8468984000001,33.30806 615.3896984,32.40359999999998 607.9208984,31.507519999999985 600.4440984,30.619439999999983 592.9637984,29.739869999999996 585.4829984,28.869309999999984 578.0033984,28.008089999999996 570.5248984000001,27.15630999999999 563.0460984000001,26.313889999999986 555.5651984000001,25.48048999999999 548.0809984,24.655779999999993 540.5928984,23.83950999999999 533.1009984,23.03148999999999 525.6060984000001,22.231649999999988 518.1090984000001,21.440009999999987 510.6109983999999,20.656589999999994 503.11219839999995,19.881389999999996 495.6131984,19.114389999999986 488.11399839999996,18.355549999999994 480.61509839999997,17.60495999999999 473.1176984,16.862809999999982 465.6237984,16.129409999999993 458.13659839999997,15.405119999999982 450.6598984,14.69047999999998 443.1978984,13.986829999999983 435.75349839999996,13.29576999999999 428.3285984,12.61875999999998 420.9240984,11.957139999999981 413.53969839999996,11.312089999999984 406.17489839999996,10.68464999999999 398.82939839999995,10.075829999999982 391.5037984,9.486649999999997 384.19909839999997,8.918159999999986 376.9166984,8.371499999999983 369.6586984,7.848299999999995 362.4280984,7.3504999999999825 355.22839839999995,6.8799999999999955 348.06369839999996,6.438399999999987 340.9385984,6.027699999999996 333.85629839999996,5.650299999999987 326.8165984,5.3082999999999885 319.8157984,5.003999999999991 312.84729839999994,4.739199999999997 305.90249839999996,4.51509999999999 298.97649839999997,4.331499999999991 292.07169839999995,4.1880999999999915 285.1978984,4.084799999999987 278.37169839999996,4.021199999999993 271.6127984,4.0 264.9352984,4.026799999999994 258.3454984,4.1066 251.8428984,4.243799999999979 245.4215984,4.442599999999985 239.07279839999998,4.7054999999999865 232.7872984,5.034999999999997 226.5549984,5.433499999999981 220.3651984,5.904199999999989 214.2072984,6.449099999999987 208.0738984,7.067799999999991 201.96279840000003,7.759399999999985 195.8767984,8.52279999999999 189.8228984,9.35629999999999 183.8092984,10.25991999999998 177.8391984,11.234829999999988 171.9112984,12.282909999999987 166.0196984,13.406839999999988 160.15619840000002,14.607959999999991 154.31669839999998,15.88557999999999 148.50199840000002,17.23796999999999 142.7182984,18.6622 136.97549840000002,20.15535 131.2831984,21.71548999999999 125.6488984,23.340879999999984 120.0777984,25.02997999999998 114.5749984,26.781159999999986 109.1475984,28.591719999999995 103.8059184,30.45747999999999 98.5620684,32.37300999999998 93.4294684,34.33373999999999 88.4198384,36.33592999999999 83.5422284,38.37576999999999 78.80335840000001,40.449319999999986 74.2099784,42.5514 69.7700584,44.67519999999999 65.4916184,46.81283999999999 61.3821784,48.95597999999999 57.449678399999996,51.09593999999999 53.7013384,53.223209999999995 50.1420884,55.32834999999999 46.7744784,57.403249999999986 43.5990584,59.44211999999999 40.6130384,61.44037999999999 37.8106584,63.39466999999999 35.1841084,65.30269999999999 32.725548399999994,67.16228999999998 30.427448400000003,68.97107999999999 28.2819084,70.72704999999999 26.2804884,72.42893999999998 24.4153284,74.07713999999999 22.6801384,75.67445999999998 21.0677684,77.22412999999999 19.5704384,78.72934 18.1802584,80.19319999999999 16.8895484,81.61857999999998 15.6915984,83.00786 14.5803384,84.36308 13.5500364,85.68615999999999 12.595257400000001,86.97888999999999 11.710933400000002,88.24295999999998 10.8923514,89.47991999999999 10.1355294,90.69084 9.4373334,91.87608999999999 8.794858399999999,93.03593 8.2053354,94.17061999999999 7.6661003999999995,95.28039999999999 7.1745844,96.36559 6.7283054,97.42651 6.3245824,98.46359999999999 5.9602364,99.47754299999998 5.6322144000000005,100.46926799999999 5.3377034,101.43986699999999 5.0741494,102.390509 4.8392424,103.32239099999998 4.6309094,104.236702 4.4473165,105.13460099999999 4.2891283,106.01685799999998 4.1609842,106.88389399999998 4.0673682,107.73660259999998 4.0123821,108.57629289999998 4.0,109.40459259999999 4.0343121,110.22339399999998 4.1197754,111.03484099999999 4.2614702,111.841326 4.4633929,112.642901 4.7270636,113.43484999999998 5.0546394,114.211215 5.4492404,114.96495599999999 5.9149654,115.68761199999999 6.456925399999999,116.36889799999999 7.080437399999999,116.998139 7.7859684,117.57551699999999 8.5715304,118.10640199999999 9.4343774,118.59688299999999 10.3704374,119.05414999999999 11.3734734,119.48697999999999 12.433942400000001,119.90637999999998 13.5411354,120.32334999999999 14.695098400000001,120.73974999999999 15.8993384,121.15486999999999 17.157838400000003,121.56801999999999 18.4752884,121.97858 19.8573984,122.38613999999998 21.311408399999998,122.79052999999999 22.8467284,123.19203999999999 24.473368400000002,123.59116999999999 26.201198400000003,123.98844999999999 28.0413484,124.38461999999998 30.006098400000003,124.78068999999999 32.108658399999996,125.17803999999998 34.362358400000005,125.57854999999999 36.780038399999995,125.98419999999999 39.3768184,126.39466999999999 42.169498399999995,126.80855999999999 45.174538399999996,127.22409999999999 48.40694839999999,127.63914 51.882698399999995,128.05166 55.6214084,128.45969 59.641878399999996,128.86074 63.957958399999995,129.25200999999998 68.5754784,129.63075999999998 73.4904284,129.99385999999998 78.6888384,130.33558 84.14738840000001,130.64988 89.8390784,130.93164 95.7411784,131.17717 101.8320384,131.38382 108.0857984,131.54993 114.47399840000001,131.67494 120.9681984,131.75829 127.54269839999999,131.7987 134.1762984,131.79539999999997 140.85459840000001,131.74817 147.5682984,131.65684 154.30589840000002,131.52128 161.0512984,131.34179999999998 167.7835984,131.11921999999998 174.4805984,130.85207 181.12949840000002,130.53554 187.73129840000001,130.16437 194.2991984,129.73261 200.85729840000002,129.23498 207.4331984,128.67192 214.0509984,128.04482 220.7311984,127.35475999999998 227.4902984,126.60280999999999 234.3415984,125.79146999999999 241.2940984,124.92567999999999 248.3507984,124.01181999999999 255.50769839999998,123.05799999999999 262.7515984,122.07413 270.06209839999997,121.06733999999999 277.42019839999995,120.04145 284.81189839999996,118.99967 292.2286984,117.94455899999998 299.66839839999994,116.877856 307.13229839999997,115.80106699999999 314.62009839999996,114.71604899999998 322.1290984,113.625064 329.65379839999997,112.53079799999999 337.18629839999994,111.43630699999999 344.7173984,110.34437899999999 352.23989839999996,109.25724389999999 359.74939839999996,108.1767149 367.2440984,107.104199 374.7247984,106.040708 382.1941984,104.98670399999999 389.6549984,103.942343 397.1084984,102.90790799999999 404.55519839999994,101.88382899999999 411.9945984,100.87067199999998 419.42499839999994,99.86916099999999 426.84469839999997,98.880271 434.25279839999996,97.90494999999999 441.64929839999996,96.94399999999999 449.0349984,95.99811 456.4115984,95.06784999999999 463.7816984,94.15359999999998 471.14729839999995,93.25533999999999 478.5099984,92.3731 485.86989839999995,91.50706 493.2265984,90.65746999999999 500.5784984,89.82470999999998 507.92329839999996,89.00933999999998 515.2590984,88.21212999999999 522.5853984,87.43376999999998 529.9029984000001,86.67477999999998 537.2138984,85.93556999999998 544.5213984,85.21641999999999 551.8298984,84.51740999999998 559.1428984,83.83815999999999 566.4616984,83.17845999999999 573.7849984000001,82.53832999999999 581.1089984,81.91797 588.4274984000001,81.31772999999998 595.7322984000001,80.73836999999999 603.0173984,80.18151999999999 610.2825984000001,79.64860999999999 617.5336984,79.14060999999998 624.7824984,78.65817999999999 632.0467984,78.20174999999999 639.3500984,77.77062999999998 646.7134984,77.35857999999999 654.1438984000001,76.95797999999999 661.6320984,76.56278999999999 669.1586984,76.17319999999998 676.7045984,75.79156999999998 684.2529984,75.42004999999999 691.7898984000001,75.0606 699.3037984,74.71492999999998 706.7866984000001,74.38452999999998 714.2328984000001,74.07068999999998 721.6399984,73.77449999999999 729.0079984,73.49688999999998 736.3389984,73.23880999999999 743.6361984,73.00186 750.9019984,72.78793999999999 758.1378984,72.59893999999998 765.3443984,72.43671999999998 772.5212984000001,72.30313999999998 779.6676984000001,72.19998999999999 786.7819984,72.12901 793.8617984,72.09183999999999 800.9043984,72.09004999999999 807.9061984,72.12503999999998 814.8637984,72.1978 821.7751984,72.30876999999998 828.6405984,72.45836999999999 835.4620984000001,72.64702 842.2436984,72.87525 848.9908984000001,73.14371999999999 855.7109984000001,73.45325 862.4124984,73.80494999999999 869.1056984,74.20020999999998 875.8022984,74.64080999999999 882.5161984,75.12902 889.2611984,75.66819999999998 896.0443984000001,76.26244999999999 902.8628984,76.91532999999998 909.7028984000001,77.62924999999998 916.5394984000001,78.40490999999999 923.3367984,79.24078999999999 930.0506984000001,80.13280999999999 936.6323983999999,81.0743 943.0335984,82.05649999999999 949.2117984,83.06934999999999 955.1337984,84.10242999999998 960.7785984,85.15167 966.1463984000001,86.23138999999999 971.2619984,87.35874999999999 976.1617984000001,88.55001999999999 980.8828984,89.81285999999999 985.4508984,91.14650999999999 989.8803984000001,92.54869 994.1787984,94.00708999999999 998.3390984,95.49282999999998 1002.3384983999999,96.97098999999999 1005.6539984000001,98.2164" stroke="black" stroke-width="2.0" /></svg>