<?xml version="1.0" encoding="utf-8" ?>
<svg baseProfile="full" height="123.12868" version="1.1" width="1012.2780492" xmlns="http://www.w3.org/2000/svg" xmlns:ev="http://www.w3.org/2001/xml-events" xmlns:xlink="http://www.w3.org/1999/xlink"><defs /><polygon fill="none" points="1004.2780492,75.12845 1001.2782492,74.8522991 997.7297492000001,74.5225376 994.0809492000001,74.1799738 990.3264492000001,73.823775 986.4600492000001,73.45304 982.4754492000001,73.066799 978.3657492000001,72.66400300000001 974.1239492000001,72.243531 969.7424492,71.80417800000001 965.2136492000001,71.344667 960.5296492,70.863648 955.6826492000001,70.359714 950.6648492,69.831416 945.4691492,69.277298 940.0893492,68.695932 934.5205492,68.085986 928.7599492,67.44629499999999 922.8075492,66.775966 916.6670492000001,66.07449600000001 910.3464492,65.34190699999999 903.8596492,64.57889 897.2276492000001,63.78737 890.5975492000001,62.98553 884.0574492000001,62.18539 877.5800492000001,61.385090000000005 871.1421492000001,60.58303 864.7243492,59.77796 858.3099492,58.96893 851.8850492,58.15523 845.4375492,57.336420000000004 838.9577492000001,56.512339999999995 832.4377492000001,55.683099999999996 825.8721492000001,54.84915 819.2576492000001,54.01126 812.5939492,53.170680000000004 805.9249492000001,52.33415 799.2940492,51.50817 792.6938492,50.69133 786.1167492000001,49.881569999999996 779.5562492000001,49.07698 773.0066492000001,48.275800000000004 766.4630492,47.47636 759.9212492,46.677099999999996 753.3776492000001,45.87653 746.8295492000001,45.073260000000005 740.2746492,44.265950000000004 733.7114492000001,43.45337 727.1392492,42.634310000000006 720.5577492,41.80767 713.9674492,40.97242000000001 707.3698492000001,40.127610000000004 700.7666492000001,39.27245 694.1603492,38.40763 687.5529492000001,37.53512 680.9462492000001,36.65692000000001 674.3417492000001,35.775009999999995 667.7407492,34.8913 661.1442492,34.007709999999996 654.5527492,33.12607 647.9667492000001,32.248180000000005 641.3862492000001,31.375800000000005 634.8112492,30.510640000000002 628.2412492000001,29.65437 621.6755492000001,28.808590000000002 615.1131492000001,27.974890000000002 608.5527492000001,27.154810000000005 601.9930492000001,26.349869999999996 595.4323492000001,25.560880000000004 588.8693492000001,24.787690000000005 582.3029492000001,24.030140000000003 575.7324492000001,23.28808 569.1573492,22.561400000000006 562.5772492000001,21.850030000000004 555.9921492000001,21.153930000000003 549.4024492,20.47309 542.8085492000001,19.807520000000004 536.2112492,19.15724 529.6116492,18.52232 523.0110492,17.902810000000002 516.4110492,17.2988 509.8135492,16.710370000000005 503.2205492,16.137609999999995 496.6344492,15.580869999999997 490.0568492,15.041049999999998 483.48834919999996,14.519070000000006 476.92844920000005,14.015729999999998 470.3758492,13.531780000000005 463.82814920000004,13.067879999999995 457.2819492,12.624679999999998 450.7328492,12.202660000000009 444.1761492,11.799740000000007 437.6080492,11.411649999999995 431.0261492,11.034089999999992 424.4290492,10.662809999999993 417.8167492,10.29356 411.1908492,9.922129999999996 404.5538492,9.544340000000005 397.90994919999997,9.157229999999998 391.2635492,8.763350000000003 384.61874919999997,8.366820000000004 377.97964920000004,7.971720000000005 371.3500492,7.582120000000003 364.73354919999997,7.2020299999999935 358.13324919999997,6.835350000000005 351.55244919999996,6.485900000000001 344.9935492,6.15643 338.4575492,5.84841999999999 331.9429492,5.56313999999999 325.4462492,5.301730000000006 318.9617492,5.065329999999989 312.4818492,4.855069999999998 305.9966492,4.672129999999996 299.4941492,4.517520000000005 292.9621492,4.3896799999999985 286.3928492,4.285740000000004 279.7830492,4.2028899999999965 273.1358492,4.138300000000001 266.45974920000003,4.089010000000002 259.7701492,4.051969999999997 253.0887492,4.023990000000012 246.4415492,4.004629999999992 239.8505492,4.0 233.3280492,4.016679999999994 226.8772492,4.060760000000002 220.4935492,4.137950000000004 214.16564920000002,4.253830000000008 207.87644920000002,4.414109999999994 201.60294919999998,4.624899999999997 195.31884920000002,4.889200000000002 189.00264919999998,5.205859999999987 182.6420492,5.573430000000002 176.2345492,5.990090000000009 169.7885492,6.453100000000006 163.3240492,6.958439999999996 156.8730492,7.500489999999999 150.47794919999998,8.07271 144.1841492,8.67895 138.0241492,9.331140000000005 132.0135492,10.040310000000005 126.1547492,10.81662999999999 120.4406492,11.669710000000002 114.85744919999999,12.609170000000006 109.3868492,13.645220000000002 104.0068692,14.78931 98.6928492,16.0503 93.4144492,17.42492 88.1312492,18.912560000000006 82.7884592,20.52044 77.30788919999999,22.26703 71.5884392,24.191249999999997 65.6319592,26.31434 59.7050492,28.556330000000003 54.2536892,30.73847 49.5530292,32.724610000000006 45.562629199999996,34.52347 42.10259919999999,36.20120000000001 39.0206392,37.81702 36.2073292,39.419669999999996 33.5810992,41.055 31.0732292,42.77608 28.611449200000003,44.66097 26.072939200000004,46.840410000000006 23.3139392,49.43688 20.435889200000002,52.28917 17.8380592,54.88319 15.6904492,56.98983 13.9394212,58.69653 12.4903742,60.1309 11.263914199999999,61.37871 10.207269199999999,62.49241 9.285538200000001,63.505250000000004 8.4748532,64.43941000000001 7.758316199999999,65.310412 7.1236072,66.129553 6.5615461999999996,66.90533500000001 6.0651772,67.644341 5.6291902,68.351792 5.2495213,69.031923 4.9230984,69.688231 4.6476527,70.323663 4.4216,70.940742 4.24396001,71.541667 4.1143102,72.12839100000001 4.0327681,72.702679 4.0,73.266162 4.0172575,73.82038 4.0864465,74.3668292 4.21023806,74.9070004 4.3920575,75.44244570000001 4.6336128,75.9749651 4.9353425,76.506483 5.2985192,77.03892 5.7253702,77.574257 6.2192072,78.114612 6.7846291999999995,78.662329 7.4278452,79.220095 8.1571572,79.79109700000001 8.9836952,80.37924100000001 9.9225592,80.989481 10.9946272,81.628322 12.2294532,82.30458 13.6698682,83.03051 15.377999200000001,83.822914 17.434029199999998,84.700696 19.9309492,85.67314 22.959049200000003,86.7211 26.4337492,87.76728 30.129829200000003,88.74449 34.0223792,89.67628 38.1916692,90.58697000000001 42.7291392,91.49466 47.7352092,92.41635 53.2866992,93.36521 59.337919199999995,94.33849000000001 65.6962192,95.30664 72.1465092,96.2406 78.55979919999999,97.13072 84.9313092,97.98588000000001 91.30815919999999,98.81584000000001 97.72397919999999,99.62584 104.19514919999999,100.41845 110.7212492,101.19423 117.2945492,101.95376 123.9060492,102.69795 130.5461492,103.42776 137.2038492,104.14424 143.8679492,104.84846999999999 150.5263492,105.54161 157.1667492,106.22473 163.77764919999998,106.89583 170.3508492,107.54959 176.8824492,108.18114 183.3722492,108.78614999999999 189.82394920000002,109.36085 196.2442492,109.90179 202.6428492,110.40579 209.0323492,110.87026 215.4261492,111.29674 221.8353492,111.68865 228.2683492,112.04905 234.7310492,112.38075 241.2263492,112.68641 247.7545492,112.96858 254.31264919999998,113.22978 260.89464919999995,113.4721 267.4933492,113.69615 274.1028492,113.90225 280.7181492,114.09084 287.33594919999996,114.26243 293.9537492,114.4176 300.5708492,114.557 307.1874492,114.68127000000001 313.8051492,114.79070999999999 320.4247492,114.88521 327.0465492,114.96459 333.6695492,115.02868000000001 340.29224919999996,115.07730000000001 346.9121492,115.11028 353.5256492,115.1275 360.1287492,115.12868 366.71744920000003,115.11281 373.2898492,115.07862 379.8459492,115.02486999999999 386.3874492,114.9503 392.9180492,114.85362 399.44324919999997,114.73346000000001 405.9702492,114.58837 412.50804919999996,114.41810000000001 419.0644492,114.22493 425.6453492,114.01147 432.2540492,113.78038000000001 438.8915492,113.53450000000001 445.5561492,113.27682 452.2432492,113.01053 458.9454492,112.7388 465.6537492,112.46238 472.3601492,112.18048999999999 479.0584492,111.89229 485.7446492,111.59689 492.4161492,111.29333 499.0724492,110.98059 505.7148492,110.65761 512.3458492,110.32366999999999 518.9687492,109.97896 525.5864492000001,109.62379 532.2014492000001,109.25846999999999 538.8161492,108.88329 545.4325492,108.49856 552.0523492000001,108.10459 558.6771492000001,107.70169000000001 565.3082492000001,107.2902 571.9465492,106.87045 578.5928492,106.4428 585.2475492000001,106.00763 591.9108492,105.56532 598.5826492,105.1163 605.2626492,104.661 611.9500492000001,104.19975 618.6441492000001,103.73255 625.3439492,103.25935 632.0483492000001,102.78012 638.7564492,102.29481 645.4670492,101.80341 652.1787492000001,101.30591 658.8902492000001,100.8023 665.6003492000001,100.29259 672.3073492000001,99.77681 679.0098492000001,99.25497 685.7062492000001,98.72713 692.3948492000001,98.19333 699.0738492,97.65364 705.7417492000001,97.10812 712.3965492000001,96.55715000000001 719.0372492000001,96.00162 725.6633492000001,95.44244 732.2750492,94.88044 738.8731492000001,94.3164 745.4592492,93.75101000000001 752.0355492,93.18493000000001 758.6048492,92.61871 765.1706492000001,92.05287 771.7369492000001,91.48787 778.3085492,90.92410000000001 784.8908492,90.36192 791.4900492,89.80163 798.1131492000001,89.24349000000001 804.7682492000001,88.68771 811.4635492000001,88.13436 818.1593492000001,87.58698 824.8049492,87.04977 831.3996492000001,86.52273 837.9461492,86.00561 844.4494492000001,85.49797 850.9170492000001,84.999222 857.3584492,84.508632 863.7852492000001,84.02535400000001 870.2110492,83.548423 876.6521492,83.076753 883.1273492000001,82.609119 889.6593492000001,82.144122 896.2751492,81.680152 902.9647492,81.218265 909.5363492,80.771714 915.9396492,80.343484 922.1594492,79.934032 928.1864492,79.543383 934.0164492,79.17123000000001 939.6491492,78.817021 945.0871492,78.480031 950.3355492000001,78.159434 955.4008492000002,77.854345 960.2905492000001,77.563863 965.0125492000001,77.287094 969.5751492,77.023171 973.9866492000001,76.771267 978.2549492,76.530599 982.3879492,76.300432 986.3930492000001,76.080082 990.2773492000001,75.8689132 994.0473492,75.6663366 997.7095492000001,75.471808 1001.2696492,75.2848247 1004.2780492,75.12845" stroke="black" stroke-width="2.0" /></svg>