<?xml version="1.0" encoding="utf-8" ?>
<svg baseProfile="full" height="108.24697" version="1.1" width="1012.0008804241" xmlns="http://www.w3.org/2000/svg" xmlns:ev="http://www.w3.org/2001/xml-events" xmlns:xlink="http://www.w3.org/1999/xlink"><defs /><polygon fill="none" points="1004.0008804241,71.85799 1000.7538804241001,71.6942512 996.4494804241001,71.4305537 991.6111804241001,71.0800807 986.3705804241,70.650007 980.8242804241,70.148498 975.0688804241001,69.587273 969.1810804241001,68.97963 963.2090804241,68.333125 957.1886804241001,67.653334 951.1422804241,66.945024 945.0778804241,66.211323 938.9970804241001,65.45408 932.9012804241,64.675066 926.7917804241,63.876089 920.6696804241,63.05896 914.5360804241001,62.225306 908.3920804241,61.376670000000004 902.2388804241,60.51462 896.0777804241,59.64079 889.9100804241,58.7568 883.7371804241001,57.86389 877.5602804241,56.962810000000005 871.3798804241001,56.05426 865.1963804241001,55.13889 859.0094804241,54.21725000000001 852.8184804241,53.289860000000004 846.6225804241001,52.35727 840.4213804241001,51.42011 834.2145804241001,50.479079999999996 828.0027804241,49.535 821.7867804241,48.588710000000006 815.5680804241001,47.64117 809.3484804241001,46.69337 803.1297804241001,45.74622 796.9136804241,44.8006 790.7011804241,43.85734000000001 784.4935804241001,42.91722 778.2913804241,41.98097 772.0950804241,41.04927 765.9048804241,40.122870000000006 759.7206804241001,39.20264 753.5423804241,38.289410000000004 747.3695804241,37.384009999999996 741.2018804241001,36.48725 735.0385804241,35.59988 728.8790804241,34.72266 722.7225804241001,33.8562 716.5681804241001,33.000690000000006 710.4152804241,32.15628 704.2629804241001,31.323100000000004 698.1108804241001,30.5013 691.9582804241,29.691070000000003 685.8046804241,28.89255 679.6494804241,28.10595 673.4922804241,27.331249999999997 667.3327804241001,26.568310000000004 661.1707804241,25.816990000000004 655.0062804241,25.077150000000003 648.8392804241,24.34868 642.6700804241001,23.63147 636.4989804241,22.925450000000005 630.3263804241001,22.23055 624.1527804241,21.546850000000006 617.9786804241,20.874519999999997 611.8041804241001,20.213720000000002 605.6296804241,19.564590000000003 599.4550804241001,18.927259999999997 593.2803804241,18.301830000000002 587.1054804241,17.688430000000004 580.9300804241001,17.087130000000002 574.7538804241,16.497960000000006 568.5765804241,15.92091 562.3981804241,15.35597 556.2184804241,14.803149999999995 550.0376804241,14.262460000000004 543.8557804241001,13.733919999999998 537.6731804241,13.217570000000002 531.4900804241,12.713450000000002 525.3069804241001,12.221689999999995 519.1240804241,11.742510000000003 512.9415804241,11.2761 506.7597804241,10.822659999999999 500.5786804241,10.382379999999998 494.3980804241,9.955440000000003 488.2180804241,9.542000000000002 482.0382804241,9.142240000000001 475.85858042409996,8.756279999999997 469.6786804241,8.384179999999994 463.4983804241,8.026030000000006 457.3178804241,7.681910000000002 451.13708042409996,7.351910000000004 444.9560804241,7.03613 438.7753804241,6.734660000000005 432.5950804241,6.447600000000008 426.41568042409995,6.175149999999988 420.2373804241,5.917560000000009 414.0606804241,5.675110000000004 407.88548042409997,5.448049999999995 401.71188042409995,5.236649999999997 395.53988042410003,5.041150000000002 389.3693804241,4.861820000000009 383.2000804241,4.698890000000006 377.0316804241,4.55256 370.8640804241,4.423000000000002 364.6971804241,4.310380000000009 358.5310804241,4.214870000000005 352.36588042409994,4.136630000000011 346.20188042409995,4.0758300000000105 340.0396804241,4.032650000000004 333.8796804241,4.007269999999991 327.7223804241,4.0 321.5681804241,4.0112100000000055 315.4173804241,4.041250000000005 309.2698804241,4.090490000000003 303.12548042410003,4.159269999999992 296.9836804241,4.247960000000006 290.8440804241,4.356949999999998 284.70598042409995,4.486499999999992 278.5688804241,4.636809999999997 272.4327804241,4.808030000000002 266.2980804241,5.000320000000002 260.1655804241,5.213819999999998 254.0362804241,5.4486399999999975 247.9116804241,5.7048599999999965 241.7937804241,5.982929999999996 235.6840804241,6.283850000000001 229.5840804241,6.608670000000004 223.4948804241,6.958449999999999 217.4170804241,7.334230000000005 211.3509804241,7.7370400000000075 205.29668042409997,8.167960000000008 199.25418042409999,8.628210000000003 193.2236804241,9.119119999999995 187.2060804241,9.641930000000002 181.20248042409997,10.197870000000002 175.21448042409997,10.788049999999998 169.24388042409998,11.413519999999998 163.2930804241,12.07562 157.3641804241,12.776240000000001 151.45878042409998,13.517299999999999 145.5779804241,14.300709999999995 139.72248042409998,15.128410000000002 133.8921804241,16.002380000000002 128.08748042410002,16.92483 122.31008042410001,17.898019999999995 116.56318042410001,18.92384 110.8514804241,20.00376 105.1809804241,21.13874 99.55882042409999,22.32994 93.99203042410001,23.58007 88.48541042410001,24.892160000000004 83.04156042410001,26.26939 77.6612104241,27.71519 72.3455204241,29.233810000000005 67.1038704241,30.82859 61.9553704241,32.49886 56.9263804241,34.23948 52.047420424100004,36.04174 47.34641042410001,37.89927 42.8372404241,39.80921 38.5215404241,41.77123 34.3951304241,43.787440000000004 30.4862304241,45.85065 26.8786204241,47.91636 23.6518304241,49.92074 20.8336804241,51.8135 18.4024004241,53.57497 16.302460424099998,55.21364 14.4746304241,56.74772 12.8690904241,58.19563 11.4474554241,59.57355 10.186067424099999,60.896300000000004 9.0777954241,62.162809 8.116672424099999,63.36289 7.2901824241,64.489057 6.5807064241,65.540123 5.9694344241,66.519929 5.4445494241,67.432783 5.0065904241,68.281887 4.6523351241,69.075121 4.3772034241,69.821366 4.1776165241,70.528726 4.0517745541,71.2042497 4.0,71.854107195 4.0251136241,72.4839012 4.1328219241,73.099076 4.3254179241,73.705805 4.6012010241,74.310382 4.9614531241,74.918538 5.4106334241,75.53587 5.9565264241,76.168147 6.610460424099999,76.821357 7.3867744241,77.501048 8.2989714241,78.209468 9.3667544241,78.944882 10.6299144241,79.70585 12.1334274241,80.487229 13.911637424099998,81.278851 15.9666304241,82.07182 18.2691604241,82.87785 20.8163304241,83.73233 23.6509004241,84.64404 26.8278604241,85.61219 30.4046604241,86.62764 34.4275404241,87.666 38.9018604241,88.69308000000001 43.774080424100006,89.68278000000001 48.9407804241,90.61641 54.29582042410001,91.49219 59.781280424100004,92.31797 65.36959042410001,93.09142 71.0382204241,93.81038 76.77066042410002,94.47459 82.5583104241,95.08559 88.39806042410001,95.64642 94.2866604241,96.16069 100.21956042410001,96.63219000000001 106.1907804241,97.06495000000001 112.1930804241,97.46284 118.2192804241,97.82752 124.26338042409999,98.16002 130.3213804241,98.46159 136.3905804241,98.73366 142.47038042409997,98.97778 148.5614804241,99.19552 154.66498042409998,99.38839 160.78158042409999,99.55785 166.9112804241,99.70536 173.05378042409998,99.83241 179.2079804241,99.94046 185.3723804241,100.03085 191.5455804241,100.1044 197.72618042409997,100.16188 203.9130804241,100.20406 210.1053804241,100.23176000000001 216.3025804241,100.24579 222.5043804241,100.24697 228.7104804241,100.23598 234.92088042409998,100.21334 241.1355804241,100.17957 247.35418042409998,100.13518 253.57668042409998,100.08068 259.8027804241,100.0166 266.0322804241,99.94345 272.26478042409997,99.8617 278.5001804241,99.77168 284.7379804241,99.6737 290.97808042409997,99.56805 297.2202804241,99.45504 303.4643804241,99.33499 309.71018042410003,99.20821000000001 315.95758042409994,99.075 322.20658042409997,98.93561 328.4568804241,98.79021 334.7085804241,98.63899 340.9614804241,98.48213 347.2155804241,98.31981 353.4708804241,98.15222 359.72718042409997,97.97953 365.9844804241,97.80192 372.2427804241,97.61957 378.50198042409994,97.43261 384.7621804241,97.24119 391.02338042409997,97.04547 397.2854804241,96.84558 403.5484804241,96.64167 409.81258042409996,96.43389 416.0775804241,96.22239 422.34378042410003,96.0073 428.6110804241,95.78878 434.8794804241,95.56697 441.14908042409996,95.34203 447.41968042409997,95.11410000000001 453.6912804241,94.88334 459.9637804241,94.64989 466.23698042409995,94.41393 472.5108804241,94.17558 478.7850804241,93.93493000000001 485.0596804241,93.69204 491.3344804241,93.44696 497.6094804241,93.19972 503.8846804241,92.95039 510.15998042409996,92.699 516.4356804241,92.44559000000001 522.7117804241,92.19022 528.9884804241001,91.93294 535.2658804241,91.67388 541.5440804241,91.41314 547.8232804241001,91.15086 554.1034804241001,90.88716 560.3845804241001,90.62216000000001 566.6666804241,90.356 572.9495804241,90.0888 579.2331804241,89.82068 585.5173804241,89.55175 591.8020804241,89.28205 598.0871804241,89.01166 604.3726804241,88.74062 610.6584804241,88.469 616.9445804241001,88.19686 623.2309804241,87.92425 629.5178804241,87.65123 635.8051804241001,87.37785 642.0929804241001,87.10415 648.3812804241,86.83018 654.6700804241,86.55598 660.9592804241001,86.28162 667.2486804241001,86.00713 673.5381804241,85.73258 679.8273804241,85.45802 686.1161804241,85.18352 692.4041804241001,84.9092 698.6912804241001,84.63517 704.9774804241,84.36154 711.2627804241,84.08842 717.5471804241,83.81592 723.8308804241,83.54411999999999 730.1143804241,83.27314 736.3977804241001,83.00302 742.6815804241,82.73373000000001 748.9657804241001,82.46523 755.2504804241,82.19751 761.5356804241,81.93054000000001 767.8209804241001,81.664286 774.1060804241001,81.398751 780.3904804241,81.133937 786.6736804241,80.869974 792.9552804241,80.607063 799.2351804241,80.345395 805.5135804241,80.085149 811.7906804241001,79.8265 818.0670804241,79.569608 824.3435804241001,79.314611 830.6209804241,79.061428 836.8996804241001,78.809856 843.1801804241001,78.559705 849.4622804241001,78.310795 855.7455804241,78.062959 862.0293804241,77.81604300000001 868.3128804241001,77.570033 874.5951804241001,77.325168 880.8757804241001,77.081702 887.1543804241,76.839874 893.4313804241001,76.599915 899.7069804241,76.362022 905.9819804241,76.125981 912.2568804241,75.891166 918.5319804241001,75.656936 924.8074804241,75.422661 931.0831804241001,75.187696 937.3577804241,74.950907 943.6246804241,74.710766 949.8710804241,74.465992 956.0785804241001,74.215605 962.2255804241,73.957633 968.2962804241,73.687684 974.2853804241,73.401116 980.1933804241,73.094519 985.9651804241,72.7758227 991.4324804241,72.4630685 996.4041804241,72.1835522 1000.7488804241,71.9751518 1004.0008804241,71.85799" stroke="black" stroke-width="2.0" /></svg>