<?xml version="1.0" encoding="utf-8" ?>
<svg baseProfile="full" height="109.20142999999999" version="1.1" width="1011.9325958900001" xmlns="http://www.w3.org/2000/svg" xmlns:ev="http://www.w3.org/2001/xml-events" xmlns:xlink="http://www.w3.org/1999/xlink"><defs /><polygon fill="none" points="1003.92259589,80.35161 1000.8235958900001,79.99437289999999 996.73449589,79.4755423 992.1137958900001,78.834972 987.04299589,78.08309399999999 981.59349589,77.233633 975.8547958900001,76.30748399999999 969.9169958900001,75.33081399999999 963.8517958900001,74.323073 957.71799589,73.30016499999999 951.55469589,72.27523 945.3789958899999,71.25564499999999 939.19859589,70.24405999999999 933.0168958900001,69.24217999999999 926.83339589,68.25107 920.6441958900001,67.27056999999999 914.44479589,66.29887 908.23259589,65.33420999999998 902.00629589,64.37503 895.76629589,63.42005999999999 889.51449589,62.468439999999994 883.25329589,61.51978 876.98479589,60.573769999999996 870.71119589,59.629999999999995 864.4341958900001,58.68807999999999 858.15579589,57.747609999999995 851.8770958900001,56.80866999999999 845.59939589,55.87158999999999 839.32299589,54.936679999999996 833.04819589,54.00415999999999 826.7747958900001,53.07419999999999 820.5020958900001,52.14689 814.22919589,51.22216999999999 807.95539589,50.29982999999999 801.6801958899999,49.3797 795.40349589,48.461639999999996 789.12539589,47.54559 782.8462958900001,46.63148999999999 776.56689589,45.71936999999999 770.28799589,44.80946999999999 764.01019589,43.90211999999999 757.7339958900001,42.99759999999999 751.4595958900001,42.096199999999996 745.1871958900001,41.19814999999999 738.91669589,40.30367 732.64779589,39.412969999999994 726.3801958900001,38.52615999999999 720.11359589,37.64337999999999 713.84779589,36.76475999999999 707.5826958900001,35.890449999999994 701.3181958900001,35.020599999999995 695.05449589,34.155379999999994 688.7915958899999,33.29497999999999 682.52979589,32.43961999999999 676.26929589,31.589629999999993 670.01039589,30.74533999999999 663.75319589,29.907089999999997 657.49789589,29.07520999999999 651.24479589,28.250019999999992 644.9938958900001,27.43184999999999 638.74539589,26.621019999999994 632.49949589,25.817899999999995 626.25609589,25.022919999999992 620.0154958900001,24.236529999999995 613.77749589,23.459159999999997 607.54229589,22.691239999999993 601.30969589,21.933189999999996 595.0797958900001,21.185429999999997 588.85239589,20.44836999999999 582.62739589,19.722419999999993 576.40489589,19.007969999999993 570.1845958900001,18.305439999999997 563.96659589,17.615219999999994 557.75089589,16.937709999999996 551.53739589,16.27333999999999 545.32619589,15.622479999999996 539.11719589,14.985559999999992 532.9105958900001,14.362989999999996 526.7063958900001,13.755169999999993 520.50459589,13.162539999999993 514.30509589,12.585499999999996 508.10789588999995,12.024450000000002 501.91299589000005,11.479799999999983 495.72029589000005,10.951949999999997 489.52959589000005,10.441299999999984 483.34079589000004,9.94816999999999 477.15379589,9.472829999999988 470.96849589000004,9.01554999999999 464.78459589,8.5766 458.60189589000004,8.156229999999994 452.42029589000003,7.754719999999992 446.23939589,7.372330000000005 440.05909589,7.009329999999991 433.87899589000006,6.66592 427.69909589,6.3422199999999975 421.51939589,6.038409999999999 415.33979589,5.754630000000006 409.16079589000003,5.49105999999999 402.98259589,5.2478399999999965 396.80569589000004,5.0251499999999965 390.63069589,4.823179999999994 384.45819589,4.642290000000003 378.28859589,4.482879999999994 372.12229589000003,4.345369999999988 365.95949589,4.230149999999995 359.80029589000003,4.137619999999998 353.64459589,4.068169999999995 347.49209589000003,4.022189999999995 341.34249589,4.0 335.19549589,4.001829999999984 329.05099589,4.027869999999993 322.90859589,4.078339999999983 316.76839589,4.153449999999992 310.63019589000004,4.253419999999991 304.49419589,4.378450000000001 298.36039589000006,4.528769999999994 292.22909589000005,4.704639999999998 286.10059589,4.90634 279.97529589,5.134140000000002 273.85379589,5.388279999999995 267.73689589,5.668999999999997 261.62529589,5.976529999999997 255.51999589000002,6.3111299999999915 249.42199589,6.67340999999999 243.33229589,7.06407999999999 237.25179588999998,7.483869999999996 231.18129589,7.933480000000003 225.12169589,8.413579999999996 219.07359589,8.924859999999995 213.03769588999998,9.468069999999997 207.01479589,10.044229999999985 201.00579588999997,10.654399999999995 195.01139589,11.299559999999985 189.03269588999999,11.980719999999991 183.07039589,12.698800000000006 177.12559589,13.454759999999993 171.19929589,14.249719999999996 165.29249589,15.084859999999992 159.40609589,15.961359999999999 153.54059589,16.880379999999988 147.69679588999998,17.843079999999986 141.87499589,18.85071999999999 136.07659589,19.904979999999995 130.30459588999997,21.007369999999995 124.56309589,22.158999999999992 118.85779588999999,23.360519999999994 113.19549589,24.612069999999996 107.58319589,25.914209999999997 102.02566589,27.268699999999995 96.52331588999999,28.678129999999996 91.07301589000001,30.14596999999999 85.66840589,31.676739999999995 80.30402588999999,33.275999999999996 74.98833589,34.94634999999999 69.74723589,36.683989999999994 64.62060589,38.478069999999995 59.65541589,40.312369999999994 54.882765889999995,42.17684 50.29431588999999,44.075959999999995 45.85316589,46.02655999999999 41.50419589,48.05723 37.21228589,50.194829999999996 33.07202589,52.40182999999999 29.28042589,54.56532999999999 25.98357589,56.57136 23.18639589,58.385389999999994 20.78541589,60.050459999999994 18.671985890000002,61.62124999999999 16.76510589,63.14402 15.00548589,64.65921 13.349023890000002,66.19882 11.797656889999999,67.7458 10.39821589,69.22945999999999 9.18610089,70.580728 8.15685489,71.774215 7.28224489,72.82046 6.54312489,73.74606 5.92586789,74.58224399999999 5.4134668900000005,75.354402 4.99195989,76.081081 4.65124079,76.775943 4.38452409,77.449513 4.18777299,78.11040899999999 4.05936039,78.766229 4.0,79.4242609 4.01080684,80.09040839999999 4.08920609,80.76558729999999 4.23395809,81.449163 4.44594909,82.13962599999999 4.72798919,82.834187 5.08474889,83.528094 5.52270689,84.2135 6.0499048900000005,84.87786399999999 6.67619489,85.511185 7.414351890000001,86.11295 8.28037389,86.684203 9.29432789,87.22760199999999 10.481225890000001,87.748972 11.87103389,88.26052 13.49466689,88.787613 15.37438589,89.37432799999999 17.54801589,90.042255 20.04405589,90.78643 22.83766589,91.57728999999999 25.858435890000003,92.36596999999999 29.07607589,93.1134 32.54735589,93.81621 36.35817589,94.48655 40.611835889999995,95.13749999999999 45.402915889999996,95.78341999999999 50.71970589,96.43135 56.39005589,97.05529999999999 62.18560588999999,97.62543 67.95286589,98.1292 73.67225589,98.57065999999999 79.40123589,98.96009 85.18962589,99.30560999999999 91.06852588999999,99.613 97.04826589,99.88664 103.11436589,100.12979999999999 109.23779589,100.34346 115.39269589,100.52848 121.56029588999999,100.68646999999999 127.72959589,100.81956 133.89819588999998,100.93016999999999 140.07009589,101.02023 146.25009588999998,101.09092 152.44149589,101.14332999999999 158.64659589,101.17853 164.86599589,101.19753999999999 171.09919589,101.20142999999999 177.34459589,101.19116 183.60019588999998,101.16756 189.86449589,101.13152 196.13599589,101.08390999999999 202.41369589,101.02562999999999 208.69659589,100.9576 214.98399589000002,100.88068 221.27549588999997,100.79542 227.57069589,100.70221 233.86929589,100.60143 240.17119589,100.49347999999999 246.47639589000002,100.37875 252.78479589,100.25762999999999 259.09669589,100.13049 265.41229589,99.99776 271.73159589000005,99.85982999999999 278.05489589,99.71713 284.38189589000007,99.57007999999999 290.71249589,99.41909999999999 297.04639589000004,99.26462 303.38319589,99.10708 309.72249589000006,98.94685999999999 316.06369589,98.78412999999999 322.40629589,98.61904 328.75009589,98.45169999999999 335.09469589,98.28224999999999 341.43999589000003,98.11081999999999 347.78579589000003,97.93751999999999 354.13219589000005,97.76248 360.47909589,97.58581 366.82679589,97.40762 373.17519589,97.22798 379.52439589,97.047 385.87449589000005,96.86477 392.22539589,96.68137999999999 398.57719589000004,96.49691999999999 404.92969589,96.3115 411.28299589000005,96.12522 417.63699589,95.93818999999999 423.99159589000004,95.75056 430.34669589,95.56245999999999 436.70229589,95.37402999999999 443.05839589000004,95.18542 449.41499589000006,94.99676 455.77189589000005,94.80818 462.12919589000006,94.61981999999999 468.48679589,94.43177 474.84479589000006,94.244 481.20309589000004,94.05650999999999 487.56159589000004,93.86927 493.92019589,93.68226999999999 500.27909589,93.49548999999999 506.63789589,93.3089 512.99679589,93.12249999999999 519.35559589,92.93627 525.71419589,92.75023999999999 532.07259589,92.56445 538.43069589,92.37894999999999 544.7882958900001,92.1938 551.1455958900001,92.00901999999999 557.50239589,91.82468 563.85879589,91.64080999999999 570.21469589,91.45746 576.5699958900001,91.27467999999999 582.92489589,91.09253 589.27919589,90.91103999999999 595.63309589,90.73028 601.9865958900001,90.55028999999999 608.33959589,90.37113 614.69229589,90.19285299999999 621.0446958900001,90.015503 627.3968958900001,89.83912699999999 633.74889589,89.663732 640.1007958900001,89.489308 646.45269589,89.315843 652.8046958900001,89.143327 659.15679589,88.97174899999999 665.50919589,88.801099 671.8617958899999,88.63136599999999 678.21479589,88.462538 684.5682958900001,88.29458899999999 690.92229589,88.12748099999999 697.27669589,87.96117699999999 703.63149589,87.79563999999999 709.98679589,87.63083599999999 716.3421958900001,87.466731 722.69779589,87.303291 729.05319589,87.14048799999999 735.4082958900001,86.978342 741.76289589,86.81690099999999 748.1169958900001,86.65620999999999 754.47059589,86.49631199999999 760.82389589,86.33725 767.1769958900001,86.179064 773.53009589,86.021791 779.88359589,85.865428 786.23779589,85.709887 792.59289589,85.55506799999999 798.94889589,85.40087399999999 805.30579589,85.24721199999999 811.66349589,85.09399099999999 818.0216958899999,84.941121 824.38009589,84.78855899999999 830.73829589,84.63635699999999 837.09609589,84.48458199999999 843.45309589,84.33329499999999 849.80929589,84.182559 856.16449589,84.032433 862.51859589,83.882916 868.87149589,83.733553 875.22229589,83.58369099999999 881.56999589,83.43269 887.91269589,83.279928 894.24839589,83.12479499999999 900.57429589,82.96661499999999 906.8887958900001,82.80438699999999 913.19179589,82.63700999999999 919.48519589,82.46334499999999 925.7725958899999,82.282198 932.05939589,82.09266699999999 938.34869589,81.89528 944.6384958900001,81.69108499999999 950.9209958900001,81.48133 957.1826958900001,81.2678284 963.4007958899999,81.0560326 969.5374958900001,80.85349319999999 975.54349589,80.6674841 981.35859589,80.5065798 986.88959589,80.38238808 992.03149589,80.30220322999999 996.69939589,80.27183203 1000.81609589,80.29502574 1003.9325958900001,80.35161" stroke="black" stroke-width="2.0" /></svg>