<?xml version="1.0" encoding="utf-8" ?>
<svg baseProfile="full" height="116.78261" version="1.1" width="1011.9025564000001" xmlns="http://www.w3.org/2000/svg" xmlns:ev="http://www.w3.org/2001/xml-events" xmlns:xlink="http://www.w3.org/1999/xlink"><defs /><polygon fill="none" points="1003.8925564,89.43274 1000.9407564,89.1248202 997.1302564,88.7017322 992.8735564,88.19705599999999 988.1924564,87.606421 983.1169563999999,86.92846899999999 977.7006564,86.16774 972.0116564,85.33414499999999 966.1095564,84.43713799999999 960.0501564,83.485579 953.8805564,82.48845299999999 947.6293564,81.452646 941.3118563999999,80.382521 934.9410564,79.28217 928.5285564,78.15574 922.0839564,77.00715 915.6149564,75.83914999999999 909.1269564,74.65375 902.6233564,73.45259 896.1051564,72.23693 889.5711564,71.00766999999999 883.0191563999999,69.76579 876.4479564,68.51256 869.8580564,67.24956 863.2508564,65.97864 856.6296564,64.70196999999999 849.9987564,63.42151 843.3622564,62.138819999999996 836.7239564,60.85536999999999 830.0869564,59.57254 823.4540564,58.291579999999996 816.8271563999999,57.01365 810.2079564000001,55.73984999999999 803.5973564,54.47122999999999 796.9961564,53.20874 790.4043564,51.95325 783.8218564,50.70551999999999 777.2480564,49.46623999999999 770.6819564,48.235899999999994 764.1226564,47.014869999999995 757.5692564,45.80349999999999 751.0210563999999,44.60218 744.4774563999999,43.4113 737.9378564,42.231269999999995 731.4019564,41.062529999999995 724.8691564,39.90541999999999 718.3395564,38.76031 711.8129564,37.627559999999995 705.2895564,36.507569999999994 698.7694564,35.40074 692.2530564,34.3075 685.7408564,33.22832 679.2333563999999,32.16372 672.7308564,31.114259999999994 666.2333563999999,30.080419999999997 659.7405564,29.062669999999997 653.2521564,28.06142 646.7673563999999,27.07705 640.2851564,26.10991 633.8046564,25.160169999999994 627.3248564,24.22788 620.8453564,23.313109999999995 614.3657564,22.41601 607.8860563999999,21.53672999999999 601.4063563999999,20.675479999999993 594.9271564,19.832499999999996 588.4492564000001,19.008070000000004 581.9731563999999,18.202609999999993 575.4995564,17.41651999999999 569.0285564,16.650149999999996 562.5604564,15.903859999999995 556.0950564,15.177949999999996 549.6321564,14.472719999999995 543.1713563999999,13.78846 536.7121563999999,13.125339999999994 530.2541563999999,12.483529999999988 523.7970564,11.863209999999995 517.3408564,11.264559999999989 510.88555640000004,10.687799999999996 504.4313563999999,10.133139999999997 497.9784564,9.600799999999992 491.52745639999995,9.091039999999992 485.07855639999997,8.604159999999993 478.63225639999996,8.140439999999998 472.1885564,7.700159999999997 465.7474564,7.283569999999997 459.30885639999997,6.8909400000000005 452.8725564,6.522519999999986 446.4380564,6.178529999999995 440.0050564,5.859149999999985 433.5730564,5.56447 427.1421564,5.294629999999998 420.7122564,5.049749999999989 414.2834564,4.829989999999995 407.85625639999995,4.635480000000001 401.4309564,4.466369999999998 395.0081564,4.322869999999995 388.58855639999996,4.205279999999988 382.1726564,4.113899999999987 375.7607564,4.049039999999991 369.35355639999995,4.010979999999989 362.9512564,4.0 356.5541564,4.016369999999995 350.1625564,4.060389999999998 343.7767564,4.1323799999999835 337.39665640000004,4.232680000000002 331.0225564,4.361620000000002 324.6543564,4.519540000000006 318.2920564,4.706779999999995 311.9353564,4.9236800000000045 305.5843564,5.170540000000003 299.2385564,5.447579999999988 292.8979564,5.754979999999989 286.5623564,6.0929200000000066 280.2316564,6.46159999999999 273.9056564,6.861209999999986 267.58415640000004,7.291949999999986 261.2673564,7.7540599999999955 254.95525640000002,8.247759999999985 248.6489564,8.773240000000001 242.34945639999998,9.330649999999991 236.05855640000001,9.920039999999986 229.77845639999998,10.541409999999999 223.51175639999997,11.194739999999996 217.26135639999998,11.880539999999996 211.0295564,12.599599999999995 204.81845639999997,13.352699999999999 198.62955639999998,14.140600000000006 192.4639564,14.964089999999999 186.3222564,15.823999999999984 180.2050564,16.72131999999999 174.1134564,17.6571 168.0490564,18.632260000000002 162.0140564,19.647539999999992 156.01105639999997,20.703569999999985 150.0429564,21.800839999999994 144.1134564,22.940399999999997 138.22615639999998,24.123509999999996 132.3849564,25.351219999999998 126.59315640000001,26.624409999999997 120.8544564,27.943789999999993 115.1724564,29.310159999999996 109.5509564,30.724619999999994 103.99375640000001,32.188109999999995 98.50445640000001,33.701319999999996 93.0863164,35.26472999999999 87.7432564,36.87894 82.4839164,38.54429999999999 77.32272640000001,40.25869 72.2782164,42.01732 67.37096639999999,43.813019999999995 62.62127639999999,45.63809 58.0437264,47.48712999999999 53.644316399999994,49.356519999999996 49.42258639999999,51.24409 45.3741164,53.148799999999994 41.504006399999994,55.066159999999996 37.84506639999999,56.976519999999994 34.4409064,58.84891999999999 31.3237664,60.65244 28.503786400000003,62.36555 25.9699764,63.985299999999995 23.6921264,65.52192 21.6346264,66.98885999999999 19.7647264,68.39898 18.0547664,69.76344999999999 16.482146399999998,71.09129999999999 15.031286399999999,72.38546 13.6956024,73.64115 12.4721274,74.85046 11.3574164,76.00592999999999 10.3459294,77.10253 9.4300624,78.13826 8.6010524,79.11385999999999 7.8543324000000005,80.03459799999999 7.1883794000000005,80.91023799999999 6.598837400000001,81.75026199999999 6.0803954000000004,82.56292599999999 5.6279094,83.355212 5.2368384,84.133011 4.9033744,84.901349 4.6244454,85.664599 4.397676,86.42666299999999 4.2214625,87.19032999999999 4.0957658,87.95210999999999 4.0214768,88.7063955 4.0,89.44848132999999 4.0333826,90.1742585 4.1244803,90.879949 4.2771817,91.561865 4.4967325,92.216163 4.7901509,92.83863099999999 5.1625144,93.42839099999999 5.6142484,93.99006399999999 6.1466754,94.528302 6.7624124000000005,95.04755499999999 7.4652034,95.55237199999999 8.259553400000001,96.047741 9.1498374,96.53949999999999 10.1381594,97.03482799999999 11.2200554,97.54248199999999 12.3936174,98.06728199999999 13.6676984,98.60764599999999 15.050086400000001,99.16004099999999 16.545386399999998,99.71912999999999 18.154356399999998,100.27829 19.8757164,100.83117 21.7117064,101.374 23.677326400000002,101.90791 25.7986864,102.43576999999999 28.1077264,102.95983 30.6459764,103.48276 33.4667364,104.00766999999999 36.63333639999999,104.53778 40.204876399999996,105.07512 44.206326399999995,105.61377999999999 48.61202639999999,106.13601 53.3385464,106.62143999999999 58.2799464,107.05552 63.37400639999999,107.43502 68.6272064,107.76298 74.0596864,108.04147999999999 79.6833964,108.27237 85.4960664,108.45785 91.4739864,108.60068 97.5767764,108.70178 103.7651264,108.76177 110.0080564,108.78261 116.2870564,108.76717 122.59745640000001,108.7187 128.9455564,108.63999 135.3371564,108.53341 141.7751564,108.4014 148.25925639999997,108.24658 154.78535639999998,108.07182 161.34585639999997,107.87984999999999 167.93175639999998,107.67205999999999 174.5356564,107.44953 181.15205639999996,107.21333999999999 187.77745639999998,106.96454 194.4104564,106.70414 201.05155639999998,106.43307999999999 207.7025564,106.15214 214.36475639999998,105.8621 221.0389564,105.56376 227.72545639999998,105.25792999999999 234.4242564,104.94548 241.1346564,104.62729999999999 247.8553564,104.3042 254.5851564,103.97675 261.32265639999997,103.64549 268.0669564,103.31098 274.8167564,102.97376 281.5710564,102.63438 288.32905639999996,102.29339999999999 295.0899564,101.95129 301.8528564,101.60839 308.6171564,101.26496999999999 315.38195640000004,100.92134 322.1468564,100.57777999999999 328.91105639999995,100.23458 335.6739564,99.89202 342.43525639999996,99.55039 349.1943564,99.209941 355.95085639999996,98.870913 362.70465640000003,98.53353299999999 369.45555640000003,98.198026 376.20355639999997,97.86460699999999 382.9489564,97.533487 389.6918564,97.204869 396.4326564,96.87893799999999 403.17185639999997,96.55579 409.9096564,96.235484 416.6465564,95.91808499999999 423.38255639999994,95.603659 430.11785639999994,95.292278 436.8524564,94.984016 443.58645640000003,94.67895299999999 450.3196564,94.37716999999999 457.0519564,94.078768 463.78325639999997,93.783851 470.5134564,93.492527 477.24235639999995,93.204898 483.9700564,92.921066 490.6963564,92.64113499999999 497.4213564,92.365203 504.1451564,92.09337 510.86755639999996,91.82572599999999 517.5887564000001,91.56235199999999 524.3088564000001,91.30333 531.0278564,91.048738 537.7458564,90.79865799999999 544.4630563999999,90.55316599999999 551.1795563999999,90.3123423 557.8954564,90.0762647 564.6110564,89.84499869999999 571.3263564,89.618583 578.0415564,89.39705536999999 584.7564563999999,89.1804557 591.4711563999999,88.9688262 598.1854564,88.76221079999999 604.8990564,88.5606553 611.6117564,88.364207 618.3231564,88.172927 625.0330564,87.986933 631.7410564,87.80635199999999 638.4472564,87.63130799999999 645.1517564000001,87.461919 651.8547564,87.29830199999999 658.5564564,87.140571 665.2575564,86.98883699999999 671.9586564,86.84318599999999 678.6601564,86.703598 685.3626564,86.570026 692.0660564,86.442433 698.7704564000001,86.320781 705.4753563999999,86.205038 712.1802564,86.095176 718.8843564,85.991168 725.5867563999999,85.893064 732.2865564,85.801087 738.9831564,85.715469 745.6764564,85.63644199999999 752.3664564000001,85.56422699999999 759.0535563999999,85.49904599999999 765.7385564,85.441119 772.4224564,85.390636 779.1062564,85.347616 785.7906564,85.31200899999999 792.4760564,85.283771 799.1622563999999,85.262862 805.8488563999999,85.24923899999999 812.5347564,85.24286 819.2189564,85.243725 825.8999564000001,85.25205 832.5771564,85.268112 839.2501564,85.292181 845.9191563999999,85.324531 852.5847564,85.365437 859.2483564,85.415172 865.9110564,85.473866 872.5734563999999,85.54154299999999 879.2353564,85.618218 885.8954564000001,85.703893 892.5518564,85.79854999999999 899.2016563999999,85.90227 905.8417564,86.01567299999999 912.4694564,86.13951899999999 919.0825563999999,86.274552 925.6792564,86.4215 932.2579564,86.58099899999999 938.8151564000001,86.753306 945.3434563999999,86.938446 951.8311563999999,87.136247 958.2629563999999,87.346362 964.6088563999999,87.56829599999999 970.8118564,87.800399 976.7976563999999,88.039654 982.4876564,88.283637 987.7964564,88.53077379999999 992.6590563999999,88.7777869 997.0429564,89.0193343 1000.9264564,89.248121 1003.9025564000001,89.43274" stroke="black" stroke-width="2.0" /></svg>