<?xml version="1.0" encoding="utf-8" ?>
<svg baseProfile="full" height="136.87923" version="1.1" width="1013.0826664100001" xmlns="http://www.w3.org/2000/svg" xmlns:ev="http://www.w3.org/2001/xml-events" xmlns:xlink="http://www.w3.org/1999/xlink"><defs /><polygon fill="none" points="1005.0826664100001,56.90511000000001 1001.74016641,56.782560000000004 997.61356641,56.48568 993.10806641,56.03255 988.17776641,55.46432000000001 982.87086641,54.81883 977.27286641,54.13011 971.44156641,53.43397000000001 965.40096641,52.73852000000001 959.17946641,52.04094 952.81506641,51.33785 946.3509664100001,50.62913 939.8256664099999,49.91781 933.26736641,49.20583 926.69166641,48.49369 920.10286641,47.78118 913.50266641,47.0683 906.89306641,46.355090000000004 900.27626641,45.64161 893.6543664100001,44.927960000000006 887.02976641,44.214380000000006 880.40406641,43.50115 873.77866641,42.78848000000001 867.15456641,42.07654 860.53206641,41.36545000000001 853.9113664099999,40.655370000000005 847.29236641,39.946490000000004 840.67496641,39.239000000000004 834.05916641,38.53307 827.4447664099999,37.828880000000005 820.83136641,37.12659 814.21896641,36.426300000000005 807.60726641,35.728080000000006 800.99616641,35.03199 794.38586641,34.33813000000001 787.77616641,33.64658000000001 781.16746641,32.957440000000005 774.55986641,32.270860000000006 767.9536664100001,31.587010000000006 761.34876641,30.906090000000006 754.74556641,30.22829000000001 748.14376641,29.553760000000004 741.54356641,28.882690000000004 734.94476641,28.215230000000005 728.34726641,27.551540000000003 721.75096641,26.89172 715.15586641,26.235930000000003 708.56166641,25.584289999999996 701.96866641,24.936940000000007 695.3766664100001,24.294020000000003 688.78576641,23.655680000000004 682.19616641,23.022080000000003 675.60776641,22.393420000000006 669.0207664100001,21.76992 662.43536641,21.15177 655.8514664100001,20.539190000000005 649.2694664100001,19.932390000000012 642.68936641,19.331570000000013 636.11126641,18.736940000000004 629.53546641,18.148759999999996 622.96196641,17.56728000000001 616.39066641,16.992740000000012 609.82166641,16.42540000000001 603.25466641,15.865470000000002 596.68956641,15.313199999999995 590.12596641,14.768810000000002 583.56366641,14.232510000000005 577.00246641,13.704540000000009 570.44226641,13.185150000000007 563.8835664100001,12.674600000000012 557.32676641,12.173180000000002 550.7726664099999,11.681190000000015 544.22236641,11.198930000000004 537.6769664100001,10.726740000000007 531.13796641,10.265270000000015 524.60646641,9.81544000000001 518.08306641,9.378170000000011 511.56816641,8.95432000000001 505.06196640999997,8.544750000000008 498.56386641,8.15025 492.07346641000004,7.771630000000002 485.58956641,7.4095999999999975 479.11126641,7.064570000000003 472.63726641,6.736760000000004 466.16686641,6.426440000000014 459.69916641000003,6.133860000000013 453.23326641,5.859300000000005 446.76876641,5.603030000000004 440.30496641,5.365370000000013 433.84146641,5.146560000000008 427.37796641,4.946650000000005 420.91426641,4.765680000000003 414.45036641,4.603679999999997 407.98666641,4.4606700000000075 401.52326641,4.3367000000000075 395.06076641000004,4.231800000000007 388.59986641,4.146010000000004 382.14136641,4.079540000000009 375.68606641,4.032790000000006 369.23446641,4.006150000000005 362.78726641000003,4.0 356.34486641,4.014730000000014 349.90766641000005,4.0507200000000125 343.47596640999996,4.108310000000003 337.04986641,4.187920000000005 330.62956641,4.290030000000002 324.21536641,4.415120000000016 317.80746641,4.563690000000008 311.40606641,4.736230000000006 305.01136641,4.9332100000000025 298.62376641000003,5.155119999999997 292.24336641,5.402429999999995 285.87076641,5.675750000000008 279.50626641,5.975700000000003 273.15046641,6.30286000000001 266.80406641,6.657839999999993 260.46756641,7.041180000000011 254.14196641,7.453450000000004 247.82796641,7.895240000000001 241.52646641,8.367400000000004 235.23836641000003,8.870810000000006 228.96446641000003,9.406310000000005 222.70546641,9.974739999999997 216.46206641,10.576920000000001 210.23466641,11.21368000000001 204.02406641000002,11.885990000000007 197.83126641,12.594930000000005 191.65746641,13.34151 185.50416641,14.126670000000004 179.37336641000002,14.951240000000013 173.26686641,15.816000000000003 167.18716641,16.721990000000005 161.13656641,17.670640000000006 155.11726641,18.663330000000002 149.13096641,19.701400000000007 143.17946641000003,20.786140000000003 137.26396641,21.918840000000017 131.38666641,23.101150000000004 125.55096641000002,24.334670000000003 119.76156641000001,25.62048 114.02436641,26.95915 108.34636641000002,28.350660000000005 102.73530641,29.7952 97.19891641000001,31.293890000000005 91.74328641000001,32.84779 86.37302641000001,34.457910000000005 81.09142641000001,36.12516000000001 75.90288641000001,37.850660000000005 70.82061641,39.633390000000006 65.86718641,41.467510000000004 61.07054641,43.342690000000005 56.45960641,45.24539000000001 52.05989641,47.163610000000006 47.885076409999996,49.08963000000001 43.93666641,51.0185 40.208336409999994,52.94744000000001 36.69052641,54.875020000000006 33.38812641,56.79348 30.32556641,58.68047 27.52624641,60.50809000000001 24.99832641,62.25311000000001 22.73321641,63.902370000000005 20.71215641,65.45665 18.90578641,66.92722 17.28296641,68.32788000000001 15.816356410000001,69.67157 14.48340641,70.96944 13.265936410000002,72.23088 12.14896341,73.46381000000001 11.12174241,74.67201 10.17893041,75.85319000000001 9.31733641,77.00184 8.53368141,78.11182000000001 7.82363141,79.178084 7.18170641,80.19754 6.60166441,81.16913100000001 6.07916741,82.093162 5.61685241,82.97109 5.21544141,83.807258 4.87354791,84.607263 4.58927251,85.37679800000001 4.36096341,86.121227 4.18758561,86.845516 4.06892421,87.55429240000001 4.00574694,88.25198898000001 4.0,88.9430193 4.05477751,89.631917 4.17032061,90.32217800000001 4.34513571,91.016003 4.57909481,91.715061 4.87332581,92.420511 5.23009841,93.13288 5.65272841,93.851808 6.14539841,94.575556 6.71275541,95.300188 7.35908341,96.01845200000001 8.090013410000001,96.7245 8.913957409999998,97.417259 9.839896410000001,98.096422 10.87691541,98.76259 12.03365241,99.41789 13.31745341,100.06699 14.73321641,100.71847000000001 16.28192641,101.38705 17.96298641,102.09201 19.78878641,102.8395 21.77656641,103.62973000000001 23.943696409999998,104.46067000000001 26.30725641,105.32747 28.88508641,106.22223 31.699986409999998,107.13478 34.78434641,108.05779000000001 38.17237641,108.99041 41.89610641,109.93252000000001 45.97953641,110.8844 50.428616410000004,111.84740000000001 55.22108641,112.8216 60.31065640999999,113.79333 65.63207641,114.74451 71.11802641,115.66068 76.72227641,116.53439 82.43198641000001,117.36533 88.24646641000001,118.15543 94.16226641,118.9067 100.17176641,119.62123 106.26246641000002,120.30117 112.41786641,120.94775 118.62216641,121.5607 124.86246641000001,122.14023 131.12926641,122.68727000000001 137.41706641000002,123.20327 143.72456641000002,123.69006999999999 150.05236641000002,124.14916 156.40086641000002,124.58178000000001 162.76916641,124.98918 169.15576640999998,125.37254000000001 175.55796641,125.73308 181.97216641,126.07178 188.39486641000002,126.38883000000001 194.82336641,126.68426 201.25586641,126.95817 207.69136641,127.21073000000001 214.13006640999998,127.44213 220.57286641000002,127.65264 227.02136641,127.84284 233.47736641,128.01361 239.94216641,128.16582 246.41716641,128.30034 252.90326641,128.41799 259.40136641,128.51961 265.91206641,128.60606 272.43566641,128.67833000000002 278.97236641,128.73748 285.52186641000003,128.78463 292.08356641,128.82088000000002 298.65676641000005,128.84737 305.24016641,128.86522000000002 311.83216640999996,128.87559000000002 318.43096641,128.87923 325.03486641,128.87641000000002 331.64256641,128.86733 338.25296641,128.85225 344.86526641,128.8314 351.47916641,128.805 358.09426641,128.77332 364.71096640999997,128.73656 371.32956641,128.69497 377.95026641,128.64873 384.57326641,128.59807 391.19866641,128.5432 397.82656641,128.48432 404.45686641,128.42166 411.08946641,128.35542 417.72406641000003,128.28581 424.36046641,128.21296 430.99836640999996,128.137 437.63766641,128.05805 444.27826641,127.97623000000002 450.91976641,127.89167 457.56236641000004,127.8045 464.20586641,127.71482 470.85016641000004,127.62276 477.49536641,127.52841000000001 484.14136641000005,127.43184000000001 490.78826641,127.33313000000001 497.43596641,127.23236 504.08436641,127.12960000000001 510.73366641000007,127.02494000000002 517.3836664099999,126.91845 524.03446641,126.81020000000001 530.6860664100001,126.70028 537.3383664099999,126.58875 543.99146641,126.47567000000001 550.64526641,126.36113 557.29976641,126.24519000000001 563.95496641,126.12792 570.6107664100001,126.00939 577.26716641,125.88968 583.92406641,125.76883000000001 590.58146641,125.64689000000001 597.23936641,125.5239 603.89776641,125.39993000000001 610.55666641,125.275 617.21596641,125.14917 623.87566641,125.02248 630.53596641,124.89498 637.19666641,124.76672 643.85796641,124.63776 650.51976641,124.50816 657.18216641,124.37796 663.8450664100001,124.24723 670.50866641,124.11601999999999 677.17276641,123.98438000000002 683.83756641,123.85237000000001 690.50296641,123.72003000000001 697.1690664099999,123.58743000000001 703.83556641,123.4546 710.50266641,123.3216 717.17006641,123.18849 723.83766641,123.05531 730.50526641,122.92211 737.17276641,122.78896 743.83996641,122.65593000000001 750.5066664100001,122.52306000000002 757.17276641,122.39044000000001 763.83806641,122.25811 770.50256641,122.12615 777.16596641,121.99461000000001 783.82836641,121.86359 790.48956641,121.73317 797.14966641,121.60345000000001 803.80876641,121.47453000000002 810.4670664099999,121.34649 817.1245664099999,121.21944 823.7816664100001,121.09345 830.43856641,120.96860000000001 837.09516641,120.84492 843.75116641,120.72249 850.40616641,120.60137 857.05956641,120.48163 863.71056641,120.36338 870.35826641,120.24687 877.00246641,120.1324 883.64326641,120.02027000000001 890.28116641,119.91075000000001 896.91706641,119.80413 903.55196641,119.70048 910.18566641,119.59969000000001 916.81616641,119.50168 923.43996641,119.40637000000001 930.05156641,119.31365000000001 936.6438664100001,119.22278 943.20766641,119.13265000000001 949.73126641,119.04221000000001 956.20126641,118.95057 962.5915664099999,118.85786 968.8438664099999,118.76534000000001 974.87686641,118.67471 980.60666641,118.59740000000001 985.9611664099999,118.55911 990.89596641,118.57604 995.4075664100001,118.66953000000001 999.5435664099999,118.87075 1002.8817664100001,119.1421" stroke="black" stroke-width="2.0" /></svg>