<?xml version="1.0" encoding="utf-8" ?>
<svg baseProfile="full" height="149.94849" version="1.1" width="1011.9112722400001" xmlns="http://www.w3.org/2000/svg" xmlns:ev="http://www.w3.org/2001/xml-events" xmlns:xlink="http://www.w3.org/1999/xlink"><defs /><polygon fill="none" points="1003.90127224,104.0855 1000.7280722400001,103.7063383 996.73637224,103.1854468 992.3743722400001,102.567441 987.6452722399999,101.851361 982.56637224,101.03868399999999 977.17347224,100.133044 971.5128722400001,99.142963 965.62687224,98.077505 959.5562722400001,96.944811 953.34197224,95.754438 947.01807224,94.51586599999999 940.60837224,93.23592 934.1325722400001,91.91978 927.60587224,90.57213999999999 921.03827224,89.19686999999999 914.4344722400001,87.79683 907.79707224,86.3744 901.12867224,84.93204 894.4316722400001,83.47225999999999 887.70847224,81.99759999999999 880.9613722400001,80.51028 874.1932722399999,79.01217 867.4074722400001,77.50531 860.60767224,75.99186 853.79847224,74.47413 846.98437224,72.95439999999999 840.16997224,71.43459999999999 833.3588722400001,69.91641999999999 826.5537722400001,68.40132 819.75647224,66.89057 812.96777224,65.3852 806.1877722400001,63.88607 799.4163722400001,62.39389 792.65337224,60.90939 785.8984722399999,59.43325 779.15147224,57.966179999999994 772.4122722400001,56.50884 765.6803722400001,55.06188999999999 758.95557224,53.625859999999996 752.23747224,52.20128 745.52567224,50.78865 738.81977224,49.388459999999995 732.11907224,48.00115999999999 725.42297224,46.627219999999994 718.7308722399999,45.26699 712.0422722400001,43.920739999999995 705.35687224,42.588809999999995 698.67447224,41.27151999999999 691.99497224,39.96925 685.31827224,38.682379999999995 678.64487224,37.41132 671.97477224,36.15656 665.30827224,34.9186 658.64557224,33.69793 651.98677224,32.49502 645.3318722399999,31.310320000000004 638.6807722400001,30.144270000000006 632.03347224,28.99731 625.3898722399999,27.86985 618.74987224,26.762339999999995 612.1133722400001,25.675210000000007 605.48057224,24.60893 598.85147224,23.563950000000006 592.2261722400001,22.540729999999996 585.60507224,21.53972999999999 578.98827224,20.561459999999997 572.37607224,19.606499999999997 565.76867224,18.675420000000003 559.16627224,17.768779999999992 552.5691722400001,16.88713 545.97727224,16.03098999999999 539.39087224,15.200900000000004 532.80997224,14.397359999999992 526.23457224,13.620889999999989 519.66467224,12.871960000000001 513.09997224,12.151039999999995 506.54027224,11.458589999999987 499.98497224000005,10.795059999999992 493.43367224,10.160889999999995 486.88567224,9.556479999999993 480.34037224,8.982079999999996 473.79707224,8.437820000000002 467.25567224,7.923900000000003 460.71557224000003,7.4405 454.17687224,6.987830000000002 447.63937224000006,6.566109999999995 441.10317224,6.175569999999993 434.56847224,5.816439999999986 428.03547224000005,5.488929999999996 421.50447224000004,5.193249999999992 414.97577224,4.929609999999997 408.44967224,4.698209999999989 401.92637224000003,4.499269999999996 395.40637224,4.332979999999992 388.88997224,4.19959999999999 382.37767224000004,4.099440000000001 375.86987224,4.032800000000009 369.36707224,4.0 362.86987224000006,4.0013000000000005 356.37867224,4.037099999999995 349.89407224,4.1075699999999955 343.41677224000006,4.213079999999991 336.94717224000004,4.35405999999999 330.48587224000005,4.530919999999995 324.03347224,4.744100000000003 317.59007224000004,4.993989999999997 311.15627224,5.280999999999992 304.73227224000004,5.605530000000002 298.31827224,5.967989999999986 291.91467224,6.368799999999993 285.52177224,6.808359999999993 279.14007224000005,7.287089999999992 272.76977224,7.8053799999999995 266.41137224000005,8.363609999999994 260.06547224,8.962169999999986 253.73247224,9.601529999999997 247.41337224,10.28215999999999 241.10907224,11.004469999999998 234.82067224,11.768839999999997 228.54947224,12.575609999999998 222.29697224,13.425049999999999 216.06477224,14.31765999999999 209.85437224,15.254069999999999 203.66707223999998,16.23494000000001 197.50377224000002,17.260890000000003 191.36527224,18.332589999999996 185.25217224,19.450699999999998 179.16507224,20.615869999999987 173.10477224000002,21.828760000000003 167.07247224,23.089879999999994 161.06947224,24.399690000000007 155.09747224,25.75851999999999 149.15827224,27.166650000000004 143.25447224,28.624589999999984 137.38947224,30.132779999999997 131.56717224,31.691339999999997 125.79237224,33.30002 120.07007224,34.95819999999999 114.40597224,36.66525 108.80547224,38.420929999999984 103.27288224,40.2251 97.81166223999999,42.07767 92.42424224,43.978629999999995 87.11336224,45.928079999999994 81.88853224,47.92444 76.76834224000001,49.96184999999999 71.77785224,52.03029999999999 66.94495223999999,54.11647 62.29640224,56.20701 57.84936224,58.29353 53.60802224,60.371809999999996 49.56758224,62.44067 45.718062239999995,64.501 42.05274224,66.55229 38.58757224,68.58073999999999 35.35331224,70.56031999999999 32.37623224,72.46318 29.666742239999998,74.26819 27.21890224,75.96596 25.01242224,77.56281999999999 23.01630224,79.07307 21.19951224,80.51186 19.535072239999998,81.89283999999999 18.00060224,83.22769 16.57789224,84.52625 15.25211224,85.79629 14.01407224,87.04003 12.86060424,88.25384 11.790893239999999,89.43127 10.80388224,90.56555999999999 9.89704124,91.65142 9.06613024,92.68574 8.305574239999999,93.66769 7.61064124,94.598551 6.982948240000001,95.483019 6.422456240000001,96.327972 5.92672824,97.140514 5.49263324,97.927241 5.11716724,98.69406099999999 4.79780884,99.446252 4.53267654,100.188593 4.32059494,100.925519 4.16114314,101.661284 4.05471004,102.40012 4.00144994,103.1446096 4.0,103.8933369 4.04970654,104.6441821 4.15084654,105.394763 4.30455524,106.14231699999999 4.51281104,106.88356499999999 4.77846574,107.614539 5.10531924,108.330354 5.49823424,109.024919 5.96221924,109.69306499999999 6.50005024,110.336227 7.11457224,110.957329 7.8092732400000004,111.559575 8.58822924,112.14665 9.455918239999999,112.722994 10.41678324,113.294191 11.47427824,113.867513 12.628894240000001,114.45263 13.875578240000001,115.0617 15.21518224,115.70076999999999 16.655742240000002,116.36959999999999 18.20432224,117.06633 19.86622224,117.78738999999999 21.644952240000002,118.52759 23.543802239999998,119.28092 25.569602240000002,120.0421 27.738962240000003,120.80881 30.077112239999998,121.58319 32.61356224000001,122.3694 35.38431224,123.17253 38.432182239999996,123.99868 41.80479224,124.85498 45.542402239999994,125.74803 49.655872239999994,126.67635999999999 54.121712239999994,127.62419 58.88195224,128.56995 63.86286224,129.49327 69.01008224,130.38191 74.31490224000001,131.23413 79.78766223999999,132.05154 85.43403224,132.83535 91.25101224,133.58625 97.22318223999999,134.30449 103.32194224,134.98869 109.51587224,135.63583 115.77777224,136.24416 122.08737224,136.8135 128.43327224,137.34505 134.81327224,137.84084000000001 141.22927224,138.30248 147.68167224,138.73138 154.16957223999998,139.12892 160.69057224,139.49642 167.24007224,139.83524 173.81277224,140.14618 180.40377224,140.42964999999998 187.00967224000001,140.68612 193.62817224,140.91619 200.25847224,141.12056 206.90117224000002,141.29995 213.55787224,141.45524 220.23017224,141.58741 226.91867224,141.69743 233.62337224,141.78626 240.34347223999998,141.85489 247.07727224,141.90429 253.82217224,141.93537 260.5756722400001,141.94849 267.33547224000006,141.94389 274.10007224000003,141.92182 280.86817224000004,141.88256 287.63937224,141.82638 294.41357224,141.75358 301.19127224000005,141.66443 307.97327224000003,141.55926 314.75987224,141.43839 321.55137224000003,141.30214999999998 328.34817224,141.15087 335.15007224000004,140.98488 341.95687224000005,140.80452 348.76837224,140.61012 355.58407224000007,140.40197 362.40357224,140.18034 369.22667224,139.94549 376.05317224,139.6977 382.88277224000007,139.43724 389.71547224,139.16439 396.55117224,138.87941999999998 403.38967224000004,138.58254 410.23107224000006,138.27393999999998 417.07517224000003,137.95381 423.92167224,137.62234999999998 430.77027224,137.27975 437.62047224,136.92623 444.47197224,136.56198999999998 451.32407224,136.18723 458.17637224000003,135.80203 465.02857224,135.40644 471.88057224,135.0005 478.73247224000005,134.58424 485.58457224,134.15768 492.43747224,133.72081 499.29177224000006,133.27362 506.14847224000005,132.81620999999998 513.0083722400001,132.34887 519.87217224,131.87192 526.74057224,131.38569999999999 533.6139722400001,130.89053 540.4925722400001,130.38675 547.37677224,129.87474 554.26647224,129.35485 561.16157224,128.82747 568.06207224,128.29300999999998 574.96767224,127.75187 581.87847224,127.20446 588.7941722400001,126.65119 595.71477224,126.09246999999999 602.64007224,125.52873 609.56987224,124.96044 616.50407224,124.38837 623.4423722399999,123.81342 630.3842722400001,123.23648 637.3293722400001,122.65847 644.2768722400001,122.08032 651.22607224,121.50296 658.17597224,120.92736 665.12547224,120.35425 672.0736722400001,119.78406 679.01947224,119.21715 685.96197224,118.65392 692.90017224,118.09470999999999 699.8333722400001,117.53989999999999 706.7606722400001,116.98982 713.68147224,116.44485 720.5952722400001,115.90550999999999 727.50177224,115.37235 734.4010722400001,114.84589 741.29357224,114.32663 748.17987224,113.815027 755.06107224,113.311542 761.9381722400001,112.816577 768.81257224,112.33028399999999 775.6850722400001,111.852712 782.55617224,111.38394 789.42607224,110.924076 796.29437224,110.473254 803.16047224,110.03163099999999 810.02337224,109.59943899999999 816.88177224,109.177178 823.7346722400001,108.765412 830.58117224,108.364689 837.42057224,107.975538 844.25217224,107.598472 851.07567224,107.233991 857.89057224,106.88262399999999 864.6967722400001,106.544915 871.49457224,106.22139399999999 878.2842722400001,105.91257499999999 885.06627224,105.618965 891.84137224,105.34105199999999 898.60957224,105.0792948 905.36877224,104.8341926 912.11467224,104.6062899 918.8411722400001,104.3961459 925.5401722400001,104.20440479999999 932.20177224,104.03256468 938.81527224,103.8824605 945.36907224,103.75572969999999 951.85127224,103.6537638 958.2457722400001,103.5777495 964.51897224,103.528663 970.6189722400001,103.5067888 976.48707224,103.5115771 982.06577224,103.5448808 987.30297224,103.60861919999999 992.1654722400001,103.70166119999999 996.63707224,103.8198273 1000.70507224,103.9567362 1003.9112722400001,104.0855" stroke="black" stroke-width="2.0" /></svg>