<?xml version="1.0" encoding="utf-8" ?>
<svg baseProfile="full" height="82.66988" version="1.1" width="1011.6975553" xmlns="http://www.w3.org/2000/svg" xmlns:ev="http://www.w3.org/2001/xml-events" xmlns:xlink="http://www.w3.org/1999/xlink"><defs /><polygon fill="none" points="1003.6975553,52.4184 1000.9710553,52.2714825 997.0644553000001,52.0344268 992.3712552999999,51.7164284 987.1634553,51.33486 981.6096552999999,50.902204999999995 975.8451553,50.428888 969.9635552999999,49.924341 964.0141553,49.394546 958.0300553,48.844544 952.0278552999999,48.278231 946.0098552999999,47.697817 939.9761553,47.104839 933.9275553,46.500951 927.8662552999999,45.887955 921.7952553,45.267455999999996 915.7176552999999,44.640418 909.6355553,44.007656999999995 903.5502552999999,43.369904 897.4620553,42.727798 891.3704553,42.081939999999996 885.2747552999999,41.43298 879.1748553,40.78165 873.0706553,40.12871 866.9627552999999,39.47495 860.8518553,38.82122 854.7392553,38.16809 848.6261553,37.515829999999994 842.5134552999999,36.86472 836.4021553,36.214969999999994 830.2931553,35.566829999999996 824.1870553,34.92049 818.0845552999999,34.27625 811.9857552999999,33.63457 805.8910553,32.995940000000004 799.8001552999999,32.36081 793.7127553,31.729599999999998 787.6283553000001,31.10271 781.5461553,30.480529999999998 775.4651553,29.86327 769.3846553,29.25091 763.3039553,28.64343 757.2228552999999,28.040829999999996 751.1411552999999,27.44314 745.0588553,26.850419999999996 738.9765553,26.262729999999998 732.8945553,25.6802 726.8135553,25.103099999999998 720.7340552999999,24.531719999999996 714.6562553,23.966319999999996 708.5802553,23.40717 702.5061552999999,22.85449 696.4334553,22.30851 690.3620553,21.76944 684.2913553,21.23741 678.2208553,20.712409999999995 672.1502553,20.194430000000004 666.0792552999999,19.683469999999993 660.0075552999999,19.179539999999996 653.9351552999999,18.682649999999995 647.8620553,18.192819999999998 641.7881553,17.710100000000004 635.7137553,17.234509999999993 629.6388553,16.7661 623.5637553,16.30489 617.4883553,15.850920000000002 611.4127553,15.404219999999995 605.3368552999999,14.96481 599.2607552999999,14.532719999999998 593.1843553,14.107949999999995 587.1074553,13.690539999999999 581.0300553,13.280499999999996 574.9519553,12.877859999999998 568.8734552999999,12.482629999999993 562.7944553,12.094859999999997 556.7151553,11.714579999999998 550.6357553,11.341830000000002 544.5567553,10.97665 538.4782553,10.61909 532.4007553,10.269309999999997 526.3244553,9.927509999999998 520.2495553,9.593889999999995 514.1760552999999,9.268619999999999 508.10385529999996,8.951879999999996 502.03285529999994,8.643840000000004 495.9626553,8.34467 489.89285529999995,8.05453 483.82305529999996,7.773510000000002 477.7527553,7.50159 471.6818553,7.238779999999998 465.6101553,6.98509 459.53795529999996,6.740529999999993 453.46525529999997,6.505119999999998 447.3926553,6.278879999999994 441.32045529999994,6.061840000000004 435.24955529999994,5.854099999999995 429.1805553,5.655959999999993 423.1138553,5.46772 417.0496553,5.2897099999999995 410.9882553,5.122219999999999 404.9294553,4.96555 398.8730553,4.819989999999997 392.8186553,4.685829999999996 386.7656553,4.563319999999997 380.71345529999996,4.4525799999999975 374.6617553,4.353679999999997 368.6101553,4.2667 362.55885529999995,4.191719999999997 356.5077553,4.128830000000001 350.4572553,4.078119999999998 344.4079553,4.039669999999994 338.3603553,4.013609999999993 332.3152553,4.000259999999997 326.2731553,4.0 320.2345553,4.013199999999998 314.1995553,4.040219999999998 308.16825529999994,4.081440000000001 302.1405553,4.137230000000002 296.11615529999995,4.207940000000001 290.0948553,4.29392 284.0761553,4.395489999999995 278.0600553,4.5129499999999965 272.0466553,4.646590000000003 266.0359553,4.796709999999997 260.02855529999994,4.9636 254.0250553,5.147529999999996 248.0259553,5.348799999999997 242.0322553,5.567979999999999 236.0444553,5.8056899999999985 230.0633553,6.062550000000002 224.0891553,6.339199999999998 218.1222553,6.636249999999997 212.1627553,6.9543099999999995 206.21085530000002,7.294019999999996 200.2663553,7.656010000000002 194.3294553,8.040889999999997 188.4000553,8.449279999999995 182.4782553,8.88183 176.5641553,9.339129999999997 170.65765530000002,9.82181 164.7590553,10.33081 158.8696553,10.867359999999998 152.99155530000002,11.432599999999994 147.1282553,12.027470000000001 141.2840553,12.652769999999997 135.4643553,13.30903 129.6744553,13.996969999999997 123.9167553,14.717979999999997 118.18875530000001,15.473950000000002 112.4840553,16.267439999999993 106.79185530000001,17.101779999999998 101.0980153,17.981299999999997 95.39500530000001,18.910449999999997 89.69474530000001,19.890809999999995 84.0303253,20.91961 78.4530453,21.98914 73.0220053,23.08889 67.76248530000001,24.21695 62.641765299999996,25.383639999999996 57.5839053,26.61097 52.47001529999999,27.93672 47.170865299999996,29.408699999999996 41.767345299999995,31.01923 36.6696153,32.6459 32.2821353,34.13787 28.6026853,35.48743 25.3963253,36.77135 22.4583653,38.0654 19.6167553,39.453329999999994 16.7278553,41.00628 13.960525299999999,42.592237999999995 11.6835543,43.938159999999996 9.9284803,44.98441 8.565615300000001,45.82908 7.4935922999999995,46.574203 6.6356143,47.272065 5.9422353,47.949628 5.3816273,48.622439 4.9326513,49.300481 4.580872,49.990837 4.316495,50.695147999999996 4.1335277,51.400573 4.0284415,52.0949987 4.0,52.7696675 4.0494825,53.4176028 4.1811792,54.032465 4.4030644,54.607943 4.7208683,55.14546 5.1381283,55.653697 5.6633393000000005,56.141053 6.3118093,56.616585 7.109027299999999,57.091961 8.0972553,57.585383 9.346500299999999,58.131223 10.9611573,58.799822999999996 13.1343643,59.678732 15.9737853,60.769135 18.9344053,61.804384 21.6800153,62.64949 24.4111453,63.38567 27.3242853,64.07938999999999 30.6332153,64.77873 34.6647053,65.53898 39.804885299999995,66.4166 45.764505299999996,67.33386999999999 51.7258153,68.15172 57.277465299999996,68.83195 62.5662153,69.41463999999999 67.8228253,69.93772 73.1910053,70.42114 78.7570153,70.87550999999999 84.5355553,71.30449999999999 90.45889530000001,71.70453 96.44250530000001,72.0707 102.4231453,72.40146 108.36845530000001,72.69817 114.27775530000001,72.96415999999999 120.1720553,73.20311 126.07285530000001,73.41788 131.9948553,73.61078 137.94685529999998,73.78374 143.93105530000003,73.93847 149.9429553,74.07646 155.9736553,74.19846 162.0153553,74.30489 168.0619553,74.39626 174.1095553,74.47322 180.1563553,74.53643 186.2025553,74.5866 192.2501553,74.62441 198.3011553,74.65048999999999 204.3571553,74.66544999999999 210.4193553,74.66988 216.4882553,74.66438 222.56385530000003,74.64954 228.6458553,74.62595999999999 234.73335530000003,74.59413 240.82545530000002,74.55445 246.9213553,74.50729 253.0203553,74.45306 259.12195529999997,74.39213 265.22555529999994,74.32491 271.33095529999997,74.25179 277.4377553,74.17311 283.5457553,74.08904 289.6548553,73.99968 295.76485529999997,73.90518 301.8757553,73.80564 307.9875553,73.70118 314.1001552999999,73.59194 320.21365529999997,73.47802999999999 326.3281553,73.35956999999999 332.44375529999996,73.23671 338.5604553,73.10958 344.67835529999996,72.97832 350.79745529999997,72.84307 356.9176553,72.70397 363.03885529999997,72.56116 369.1610553,72.41478000000001 375.2840553,72.26497 381.4078553,72.11180999999999 387.5321553,71.95537 393.65705529999997,71.79572999999999 399.7823553,71.63296 405.90825529999995,71.46715 412.0344553,71.29836 418.16115529999996,71.12666 424.28845529999995,70.95214 430.4162553,70.77486 436.54475529999996,70.59493 442.6739553,70.41242 448.8037553,70.22742 454.9343553,70.04002 461.0656553,69.85031 467.1975553,69.65839 473.3301553,69.46433 479.4632553,69.26822 485.59695529999993,69.07011 491.7311553,68.87006 497.86565529999996,68.6681 504.00055530000003,68.46429 510.1357552999999,68.25868 516.2711552999999,68.05131 522.4066553,67.84223 528.5423552999999,67.63148 534.6779553,67.41911999999999 540.8136552999999,67.20515 546.9492553,66.98962 553.0849552999999,66.77252999999999 559.2206553,66.55391 565.3565553,66.33377999999999 571.4926553,66.11215999999999 577.6291553,65.88907 583.7663553,65.66453 589.9042552999999,65.43862 596.0430553,65.21143000000001 602.1828553,64.98307 608.3237553,64.75363999999999 614.4654553,64.52326 620.6080553,64.29203 626.7514553,64.06007 632.8952552999999,63.827479999999994 639.0393552999999,63.59435 645.1835553,63.36067 651.3274553,63.126419999999996 657.4711553,62.89159 663.6144553,62.65614 669.7573553,62.42008 675.9000553,62.183353 682.0424553,61.945951 688.1848553,61.707862999999996 694.3274553,61.469184 700.4703552999999,61.230038 706.6136553,60.99055 712.7573553,60.750848 718.9016553,60.511061 725.0463553,60.271319 731.1914553,60.031754 737.3369553,59.792491999999996 743.4825553000001,59.553616999999996 749.6281553,59.315207 755.7735553,59.07734 761.9183553,58.840097 768.0623552999999,58.603558 774.2051552999999,58.367809 780.3464553,58.132933 786.4856553,57.899082 792.6226553,57.666482 798.7573553,57.435356999999996 804.8898552999999,57.205921 811.0205553,56.978383 817.1499553,56.752943 823.2788552999999,56.529793999999995 829.4080553,56.309056999999996 835.5381553,56.090756 841.6691553,55.874921 847.8006553,55.661598 853.9316553,55.450852999999995 860.0607553,55.242765 866.1859553,55.037479 872.3054553,54.835547999999996 878.4182552999999,54.637677 884.5243553,54.444535 890.6249553,54.256755 896.7219553,54.074943999999995 902.8184553,53.899592 908.9169552999999,53.730723 915.0181553,53.568259 921.1206553000001,53.4121753 927.2210553,53.2624934 933.3138552999999,53.119372299999995 939.3937553,52.9838338 945.4584553,52.857232599999996 951.5094553,52.740826399999996 957.5514553,52.6358075 963.5878553,52.5434159 969.6025553,52.46514054 975.5546553,52.40252366 981.3817553,52.3572293 986.9868553,52.33236169 992.2470552999999,52.329542599999996 997.0042553,52.34800616 1000.9578553,52.38258671 1003.6975553,52.4184" stroke="black" stroke-width="2.0" /></svg>