<?xml version="1.0" encoding="utf-8" ?>
<svg baseProfile="full" height="102.68057999999999" version="1.1" width="1011.8468675" xmlns="http://www.w3.org/2000/svg" xmlns:ev="http://www.w3.org/2001/xml-events" xmlns:xlink="http://www.w3.org/1999/xlink"><defs /><polygon fill="none" points="1003.8468675,66.3116 1000.8253675,66.1085028 996.6631675,65.7961099 991.8558675,65.39443349999999 986.6118675,64.916181 981.0513675000001,64.371892 975.2803675,63.774679 969.3827675,63.138206 963.4124675,62.47043 957.4071675,61.777253 951.3863675,61.062985 945.3521675000001,60.329916 939.3023675000001,59.579575 933.2360675000001,58.81367 927.1540675,58.034147 921.0590675000001,57.243062 914.9538675,56.441975 908.8409675,55.632239999999996 902.7220675,54.81512 896.5979675000001,53.9918 890.4688675000001,53.163309999999996 884.3344675000001,52.33036 878.1947675,51.4936 872.0503675,50.65371 865.9017675,49.81143 859.7502675000001,48.967569999999995 853.5971675,48.12291 847.4439675,47.27812 841.2917675000001,46.43383 835.1416675,45.59058 828.9940675,44.74893 822.8495675,43.90935 816.7079675,43.072289999999995 810.5694675,42.23815 804.4336675000001,41.40728 798.3003675000001,40.58004 792.1694675,39.756789999999995 786.0405675000001,38.93786 779.9134675000001,38.123599999999996 773.7878675000001,37.31434 767.6633675,36.510279999999995 761.5396675000001,35.71160999999999 755.4168675,34.91852 749.2947675,34.13123 743.1734675,33.34995 737.0530675000001,32.574909999999996 730.9337675,31.80634 724.8159675,31.04452 718.6995675000001,30.28976 712.5847675000001,29.542349999999992 706.4715675,28.802549999999997 700.3596675000001,28.070619999999998 694.2487675000001,27.346809999999998 688.1384675,26.631349999999998 682.0282675000001,25.924419999999998 675.9175675,25.226039999999998 669.8060675,24.53617 663.6934675,23.854779999999998 657.5796675,23.181879999999992 651.4647675,22.517469999999996 645.3489675,21.861579999999996 639.2324675,21.214259999999996 633.1158675,20.57559 626.9996675,19.94581 620.8840675,19.32519 614.7694675,18.713969999999996 608.6559675,18.112389999999998 602.5434675,17.52068 596.4319675,16.939049999999995 590.3211675,16.367710000000002 584.2107675000001,15.806820000000002 578.1004675,15.256500000000003 571.9899675,14.716799999999992 565.8790675,14.187829999999998 559.7677675000001,13.66968 553.6562675,13.16245 547.5444675,12.666260000000001 541.4328675,12.18123 535.3217675,11.70749 529.2115675,11.245310000000003 523.1026675,10.795019999999994 516.9951675,10.356929999999998 510.88936749999993,9.931350000000002 504.78516749999994,9.51858 498.6826675,9.118899999999996 492.5817675,8.732610000000001 486.48206749999997,8.359979999999993 480.38346749999994,8.00123 474.28576749999996,7.65654 468.1886675,7.326090000000001 462.0921675,7.010059999999996 455.99626749999993,6.708629999999999 449.9009675,6.421999999999997 443.80636749999996,6.150369999999995 437.7127675,5.893919999999994 431.62036749999993,5.652859999999997 425.5293675,5.427419999999998 419.43976749999996,5.21781 413.35166749999996,5.024259999999998 407.26496749999995,4.846959999999996 401.17946749999993,4.686140000000002 395.09486749999996,4.5419999999999945 389.01086749999996,4.414749999999998 382.92706749999996,4.304519999999997 376.84306749999996,4.211289999999998 370.7586675,4.135059999999996 364.6738675,4.075809999999997 358.58856749999995,4.033560000000001 352.50316749999996,4.008289999999995 346.4178675,4.0 340.3331675,4.0086999999999975 334.24956749999996,4.03454 328.1675675,4.077849999999998 322.08786749999996,4.138930000000002 316.0107675,4.218059999999994 309.9366675,4.315559999999998 303.86616749999996,4.431699999999999 297.79936749999996,4.566780000000001 291.73666749999995,4.7211 285.6784675,4.895099999999999 279.6247675,5.089239999999997 273.57566749999995,5.303980000000003 267.5313675,5.539760000000001 261.4916675,5.797060000000002 255.4563675,6.076340000000002 249.42526750000002,6.378080000000004 243.3982675,6.702779999999997 237.3754675,7.05095 231.3574675,7.423069999999996 225.3448675,7.819589999999998 219.3390675,8.240929999999999 213.3413675,8.687449999999998 207.3536675,9.159589999999994 201.3774675,9.658300000000004 195.4141675,10.184660000000001 189.4641675,10.739800000000002 183.5275675,11.324870000000004 177.6036675,11.94108 171.69146750000002,12.589709999999997 165.7895675,13.271970000000003 159.8977675,13.988900000000001 154.0171675,14.741390000000003 148.14976750000002,15.530120000000004 142.2990675,16.355559999999997 136.4694675,17.217980000000004 130.6660675,18.1184 124.8921675,19.058699999999995 119.1494675,20.04097 113.4372675,21.0676 107.75316749999999,22.141299999999994 102.09369749999999,23.265299999999996 96.4592075,24.44274 90.8566275,25.67535 85.29929750000001,26.963 79.8061075,28.303499999999993 74.3988275,29.694119999999998 69.08962749999999,31.13631 63.8737575,32.63577 58.7323475,34.20252 53.6354175,35.85142 48.5704475,37.59411 43.594727500000005,39.41755 38.8283175,41.277969999999996 34.4035575,43.11626 30.3925575,44.905649999999994 26.773027499999998,46.65611 23.4843375,48.38899 20.465237499999997,50.125659999999996 17.6996475,51.84785 15.2479875,53.47807 13.153257499999999,54.94659 11.3942515,56.232479999999995 9.9227945,57.361247 8.703141500000001,58.386049 7.6951625,59.342701999999996 6.861335500000001,60.252404999999996 6.170543500000001,61.12819 5.597993499999999,61.978404 5.124128499999999,62.8086 4.7369827,63.617688 4.4335835,64.396321 4.2109076,65.140413 4.0665914,65.84947439999999 4.0,66.5245026 4.0128464,67.166977 4.1098919,67.778377 4.2987831,68.360603 4.5812565,68.92062 4.9582195,69.467099 5.4350695,70.008331 6.0223685,70.553313 6.7373815,71.11315499999999 7.6064655000000005,71.703247 8.6663145,72.346686 9.9570495,73.075424 11.5553655,73.918184 13.5561325,74.883418 15.9216675,75.906292 18.442507499999998,76.87648 21.023027499999998,77.7708 23.7527375,78.63076 26.7553575,79.49186 30.193827499999998,80.38867 34.314877499999994,81.36438 39.260537500000005,82.42545 44.7851975,83.48913999999999 50.4080775,84.45830000000001 55.8659275,85.30832000000001 61.2255375,86.07092 66.6140075,86.77363 72.1159775,87.43216 77.7759075,88.05489 83.58605750000001,88.64408 89.49441750000001,89.19635 95.44865750000001,89.70872 101.4114775,90.18101999999999 107.3642675,90.61544 113.3077675,91.01575 119.2542675,91.38544999999999 125.21486750000001,91.72713 131.1969675,92.04303 137.2042675,92.33507 143.2362675,92.60501 149.2886675,92.85428999999999 155.35586750000002,93.08364 161.43306750000002,93.29374 167.51676750000001,93.48537 173.60476749999998,93.65939 179.6961675,93.81672999999999 185.7910675,93.95833999999999 191.8907675,94.085 197.9959675,94.19744 204.1073675,94.29635999999999 210.2252675,94.38246 216.3493675,94.45642 222.4793675,94.51894 228.6145675,94.57067 234.75406750000002,94.61202 240.8971675,94.64332999999999 247.0431675,94.66496000000001 253.1916675,94.67725 259.34216749999996,94.68057999999999 265.49466749999993,94.67529 271.64886749999994,94.66176 277.80476749999997,94.64024 283.9624675,94.61096 290.12186749999995,94.57412 296.2829674999999,94.52994 302.4457675,94.47864 308.6099675,94.42041 314.7756675,94.35549 320.94266749999997,94.28408 327.1108675,94.20633 333.2802675,94.12237999999999 339.4505675,94.03237 345.62186749999995,93.93643 351.7940675,93.83471 357.9670675,93.72734 364.14086749999996,93.61447 370.31556749999993,93.49623 376.49106749999993,93.37272999999999 382.6674675,93.24407 388.84446749999995,93.11035 395.0222675,92.97167999999999 401.2007675,92.82816 407.37986749999993,92.67989 413.55936749999995,92.52698 419.73936749999996,92.36953 425.91956749999997,92.20759 432.0999675,92.0412 438.28036749999995,91.87037000000001 444.4608675,91.69512 450.64126749999997,91.51548 456.82156749999996,91.33144999999999 463.00186749999995,91.14305999999999 469.1819675,90.95033000000001 475.3620675,90.75328 481.5420675,90.55188 487.72196749999995,90.34613999999999 493.9018675,90.13605 500.0814675,89.92159 506.26096749999994,89.70277 512.4400674999999,89.47957 518.6187675,89.25199 524.7969675,89.02002 530.9744675000001,88.78363999999999 537.1511674999999,88.54281 543.3271675000001,88.29747 549.5023675,88.04758 555.6769675,87.79308999999999 561.8509675,87.53394 568.0246675,87.27008000000001 574.1983675,87.00144 580.3722675,86.72800000000001 586.5466675,86.44981999999999 592.7217675,86.16703 598.8978675000001,85.87971999999999 605.0747675000001,85.58801 611.2524675,85.29202000000001 617.4309675,84.99186 623.6098675,84.68767 629.7888675,84.37958 635.9676675000001,84.06763 642.1460675,83.75182 648.3237675,83.43215 654.5007675,83.10858999999999 660.6772675000001,82.78111 666.8533675000001,82.44969 673.0295675000001,82.1143 679.2062675000001,81.77486999999999 685.3839675,81.43151 691.5632675,81.08448 697.7445675,80.73406 703.9280675,80.38054 710.1140675,80.02421 716.3025675,79.66539 722.4935675,79.30437 728.6867675,78.94149 734.8818675,78.57696 741.0786675,78.21095 747.2767675,77.84358 753.4758675,77.47501 759.6755675,77.10537 765.8753675,76.73481 772.0750675,76.36348 778.2742675000001,75.991565 784.4724675000001,75.619459 790.6693675,75.24762799999999 796.8646675,74.876538 803.0578675,74.506649 809.2488675,74.138422 815.4370675000001,73.772317 821.6223675,73.408789 827.8043675,73.04829699999999 833.9830675000001,72.691293 840.1583675,72.338217 846.3303675000001,71.989504 852.4994675,71.645576 858.6660675,71.306849 864.8306675,70.973704 870.9934675000001,70.646467 877.1545675000001,70.325471 883.3135675000001,70.011066 889.4698675000001,69.703618 895.6224675000001,69.403503 901.7701675,69.111277 907.9118675000001,68.82779599999999 914.0471675,68.553923 920.1760674999999,68.290487 926.2989675,68.038297 932.4166675,67.79808399999999 938.5295675,67.570387 944.6366675,67.355739 950.7356675,67.15470479999999 956.8226675000001,66.96792930000001 962.8897675000001,66.7972487 968.9180675,66.6455802 974.8770675,66.51577470000001 980.7246675,66.41056984 986.3800675,66.33342641 991.7208675,66.28631365 996.6056675000001,66.26983818 1000.8117675000001,66.28306002 1003.8468675,66.3116" stroke="black" stroke-width="2.0" /></svg>