<?xml version="1.0" encoding="utf-8" ?>
<svg baseProfile="full" height="100.36850000000001" version="1.1" width="1012.005754991" xmlns="http://www.w3.org/2000/svg" xmlns:ev="http://www.w3.org/2001/xml-events" xmlns:xlink="http://www.w3.org/1999/xlink"><defs /><polygon fill="none" points="1004.005754991,67.60456 1001.123654991,67.21050410000001 997.223654991,66.6081513 992.644454991,65.90435500000001 987.520954991,65.150824 982.011654991,64.373872 976.218654991,63.583825000000004 970.234454991,62.78560900000001 964.134854991,61.98133200000001 957.978454991,61.17049600000001 951.8007549910001,60.356553000000005 945.619354991,59.54492700000001 939.4356549910001,58.738535000000006 933.2437549910001,57.93659300000001 927.0413549909999,57.13778000000001 920.8315549910001,56.341480000000004 914.620354991,55.54825000000001 908.411554991,54.758950000000006 902.205454991,53.97404 895.9991549910001,53.193430000000006 889.788854991,52.416230000000006 883.572554991,51.641580000000005 877.351054991,50.868950000000005 871.127554991,50.09819 864.905854991,49.33001 858.688354991,48.56528000000001 852.475654991,47.80461000000001 846.2663549910001,47.048410000000004 840.0576549909999,46.29657 833.8471549909999,45.54853000000001 827.633454991,44.803830000000005 821.416154991,44.06214000000001 815.195854991,43.32325 808.974054991,42.587230000000005 802.751754991,41.85426000000001 796.5299549910001,41.12449000000001 790.308754991,40.39802 784.088454991,39.67491000000001 777.868554991,38.95517000000001 771.648854991,38.23883000000001 765.429154991,37.525920000000006 759.2093549909999,36.81649 752.989554991,36.110600000000005 746.769754991,35.40834000000001 740.550154991,34.70983000000001 734.331054991,34.01520000000001 728.112454991,33.32461000000001 721.894654991,32.63817000000001 715.677854991,31.956030000000005 709.462254991,31.27835000000001 703.2478549909999,30.605290000000004 697.0344549910001,29.937000000000005 690.821754991,29.273590000000006 684.6092549910001,28.615170000000006 678.396354991,27.96180000000001 672.182454991,27.31341000000001 665.9670549909999,26.669870000000003 659.7502549909999,26.031090000000006 653.5322549910001,25.397020000000005 647.313754991,24.767630000000004 641.095454991,24.142970000000005 634.878254991,23.523360000000004 628.662854991,22.90916 622.4496549910001,22.300690000000003 616.238654991,21.69827 610.029754991,21.102170000000008 603.822654991,20.51263000000001 597.616754991,19.929800000000007 591.411854991,19.353810000000003 585.207654991,18.784810000000007 579.003954991,18.222950000000004 572.8007549910001,17.668390000000002 566.598154991,17.12131000000001 560.396254991,16.581870000000002 554.195054991,16.050200000000004 547.994654991,15.526420000000002 541.794654991,15.010670000000012 535.594854991,14.503050000000009 529.3950549909999,14.00368000000001 523.194754991,13.51261000000001 516.9938549909999,13.029910000000001 510.792554991,12.555690000000006 504.59135499099995,12.090040000000009 498.390854991,11.633090000000003 492.19215499100005,11.18500000000001 485.99615499099997,10.746120000000005 479.803654991,10.316960000000009 473.614754991,9.89797 467.42935499099997,9.489570000000008 461.246754991,9.09217000000001 455.06565499100003,8.706130000000002 448.884954991,8.331640000000007 442.70385499099996,7.968810000000005 436.52215499100004,7.617760000000004 430.340854991,7.278660000000002 424.161254991,6.951720000000009 417.985654991,6.637190000000004 411.816754991,6.335870000000007 405.65645499100003,6.048980000000007 399.505954991,5.777750000000005 393.365454991,5.523310000000009 387.234354991,5.286750000000005 381.111154991,5.069110000000002 374.993954991,4.870950000000008 368.880754991,4.6924900000000065 362.76995499099996,4.533950000000004 356.66035499099996,4.395600000000009 350.550554991,4.277730000000005 344.439854991,4.180590000000009 338.327754991,4.104270000000007 332.214254991,4.048750000000005 326.099954991,4.014000000000003 319.986254991,4.0 313.87495499100004,4.006710000000012 307.768354991,4.034290000000006 301.66865499100004,4.083520000000007 295.57725499099996,4.155270000000002 289.49435499099997,4.250380000000007 283.419754991,4.369700000000002 277.352254991,4.51408 271.290254991,4.684020000000011 265.232254991,4.879800000000003 259.17755499099997,5.101710000000011 253.125554991,5.350030000000004 247.07625499099998,5.6250300000000095 241.02995499099998,5.927060000000004 234.98745499100002,6.256520000000009 228.950254991,6.6137800000000055 222.920254991,6.9991600000000105 216.899654991,7.412890000000004 210.891254991,7.855490000000003 204.896954991,8.328010000000006 198.917254991,8.831610000000012 192.951454991,9.36757 186.997354991,9.937270000000005 181.052254991,10.541790000000006 175.114854991,11.181700000000006 169.185654991,11.857360000000007 163.26745499100002,12.568890000000003 157.36435499100003,13.316310000000001 151.481754991,14.100710000000007 145.62345499100002,14.923580000000001 139.79215499100002,15.786490000000008 133.989154991,16.691120000000012 128.214754991,17.63922000000001 122.468854991,18.632640000000002 116.75075499100001,19.673270000000002 111.059354991,20.763120000000008 105.394454991,21.904200000000003 99.760164991,23.097710000000006 94.166084991,24.343460000000007 88.62633499100001,25.640020000000007 83.15606499100001,26.988180000000007 77.76330499100001,28.391560000000005 72.447924991,29.85531000000001 67.20430499100001,31.385060000000003 62.031624991,32.98299000000001 56.939624991,34.647380000000005 51.947954991,36.373610000000006 47.093354991,38.15706 42.429494991,39.984700000000004 38.01241499100001,41.83543 33.873974991,43.693560000000005 30.003884991,45.5583 26.373314991,47.43718000000001 23.019614991,49.30337000000001 20.066344991,51.06737000000001 17.576054991,52.65683000000001 15.503494990999998,54.07762000000001 13.749138991,55.37866000000001 12.228896991,56.60340000000001 10.884015991,57.78375100000001 9.677788991,58.93121000000001 8.603262991000001,60.02752100000001 7.661831991,61.04667500000001 6.846315991,61.973792 6.1435749909999995,62.809292000000006 5.553386991,63.570229000000005 5.070431991,64.279314 4.684878591,64.955346 4.388651791,65.61306400000001 4.176803391,66.26460600000001 4.047731661,66.92087140000001 4.0,67.58688771000001 4.030194641,68.2574185 4.138235891,68.925616 4.327534291,69.58323800000001 4.605113991,70.219566 4.981547791,70.82165400000001 5.465062991,71.388979 6.0637349910000005,71.92949100000001 6.788996990999999,72.452804 7.654870990999999,72.972115 8.673166991,73.50765600000001 9.842851991,74.08768500000001 11.176073990999999,74.722975 12.690070990999999,75.407505 14.389164991,76.124887 16.277784990999997,76.855592 18.398384991,77.59454500000001 20.829854991,78.35396 23.684334991,79.15282 27.093644991,80.01382000000001 31.103434991,80.93559 35.581944991,81.8649 40.320544991000006,82.74874000000001 45.260954991000006,83.57813 50.434824991000006,84.36112 55.843324991,85.10214 61.432714991000005,85.79931 67.129194991,86.44614000000001 72.881304991,87.04121 78.672144991,87.58825 84.505804991,88.09142 90.38498499100001,88.55407000000001 96.307594991,88.97926000000001 102.267204991,89.36952000000001 108.256854991,89.72679000000001 114.271054991,90.05321 120.305654991,90.35118 126.35825499100001,90.62278 132.42715499099998,90.86942 138.510854991,91.09247 144.608254991,91.29339 150.71855499100002,91.47357000000001 156.84095499100002,91.63416000000001 162.974454991,91.77625 169.11805499099998,91.90096 175.270254991,92.00941 181.429454991,92.10248000000001 187.594654991,92.18068000000001 193.76485499100002,92.24455 199.939654991,92.29465 206.118854991,92.33151000000001 212.302754991,92.35572 218.49155499100002,92.36785 224.685554991,92.36850000000001 230.884754991,92.35824000000001 237.089254991,92.33766 243.299154991,92.30731 249.514154991,92.26766 255.733754991,92.21917 261.957054991,92.16232000000001 268.182854991,92.09759 274.409754991,92.02544 280.636254991,91.94595000000001 286.861654991,91.85907 293.085754991,91.76473000000001 299.309354991,91.66285 305.533754991,91.55334 311.760954991,91.43624000000001 317.992654991,91.31204000000001 324.23005499100003,91.18134 330.47325499100003,91.04474 336.721554991,90.90288000000001 342.973454991,90.75642 349.226554991,90.60579000000001 355.47875499099996,90.45087000000001 361.72865499100004,90.29144000000001 367.975654991,90.12728000000001 374.219754991,89.95812000000001 380.461854991,89.78371000000001 386.703554991,89.60387 392.94655499099997,89.41883000000001 399.191954991,89.22886 405.44045499099997,89.03428000000001 411.692254991,88.83539 417.947054991,88.63253 424.20395499100005,88.42601 430.461954991,88.2159 436.720354991,88.00221 442.978254991,87.78494 449.235354991,87.56408 455.491154991,87.33963 461.745654991,87.11155000000001 467.998754991,86.87981 474.250754991,86.64432000000001 480.50155499100003,86.40499 486.751754991,86.16175000000001 493.00135499099997,85.9145 499.250954991,85.66315 505.500854991,85.40759 511.75125499099994,85.14772 518.001754991,84.88343 524.251654991,84.61467 530.499554991,84.34137000000001 536.7437549910001,84.06351000000001 542.982254991,83.78097 549.2129549910001,83.49307 555.434754991,83.19891000000001 561.6473549909999,82.89758 567.851454991,82.58813 574.048554991,82.26954 580.240954991,81.94083 586.4316549910001,81.60178 592.6233549909999,81.25282000000001 598.818654991,80.8944 605.0195549910001,80.52698000000001 611.2277549910001,80.15103 617.444754991,79.76705000000001 623.671554991,79.37577 629.908554991,78.9783 636.155454991,78.57589 642.411254991,78.16982 648.674154991,77.76144000000001 654.9416549910001,77.35218400000001 661.210554991,76.943353 667.4775549909999,76.53578200000001 673.740754991,76.13015 679.9987549909999,75.72706500000001 686.251354991,75.327072 692.4992549909999,74.93065100000001 698.744154991,74.53815800000001 704.987654991,74.149651 711.230954991,73.76515500000001 717.474254991,73.38474000000001 723.717554991,73.008514 729.9596549910001,72.636629 736.199154991,72.26936300000001 742.434454991,71.90734400000001 748.6645549909999,71.55124400000001 754.8894549910001,71.201689 761.1092549910001,70.85927000000001 767.325054991,70.52453600000001 773.538354991,70.19785200000001 779.7505549910001,69.87927 785.962554991,69.568838 792.1744549910001,69.266631 798.3862549910001,68.972752 804.597054991,68.687348 810.805854991,68.41078370000001 817.011754991,68.14354230000001 823.214254991,67.88609160000001 829.4126549910001,67.63888517000001 835.606754991,67.4023641 841.796654991,67.17698320000001 847.982354991,66.9632182 854.164254991,66.7615404 860.342554991,66.572417 866.518154991,66.39630700000001 872.6913549909999,66.23359200000002 878.862454991,66.08458200000001 885.0309549909999,65.94959600000001 891.195954991,65.82896000000001 897.355954991,65.723088 903.509354991,65.63278 909.655154991,65.55892500000002 915.792654991,65.502391 921.921354991,65.46406 928.041054991,65.44502 934.150154991,65.44642900000001 940.246354991,65.46941100000001 946.326154991,65.515073 952.386954991,65.58457100000001 958.427554991,65.67904100000001 964.446854991,65.799603 970.425754991,65.94698700000001 976.310254991,66.120473 982.019954991,66.320728 987.465154991,66.551726 992.558154991,66.8117227 997.1469549909999,67.085004 1001.0955549910001,67.3595134 1004.005754991,67.60456" stroke="black" stroke-width="2.0" /></svg>