<?xml version="1.0" encoding="utf-8" ?>
<svg baseProfile="full" height="106.28943" version="1.1" width="1011.92771355" xmlns="http://www.w3.org/2000/svg" xmlns:ev="http://www.w3.org/2001/xml-events" xmlns:xlink="http://www.w3.org/1999/xlink"><defs /><polygon fill="none" points="1003.92771355,77.78594 1000.74111355,77.2640545 996.61451355,76.498762 991.9479135500001,75.593413 986.8038135500001,74.588216 981.27341355,73.517982 975.45171355,72.395235 969.44191355,71.22923399999999 963.3269135500001,70.031403 957.15231355,68.80770799999999 950.9271135500001,67.56048999999999 944.65581355,66.29401 938.34791355,65.01369 932.01651355,63.72416 925.67281355,62.42881 919.3248135499999,61.13043999999999 912.97761355,59.83154999999999 906.63441355,58.53456 900.29781355,57.241699999999994 893.9692135500001,55.95495 887.64981355,54.676089999999995 881.34111355,53.40693999999999 875.04541355,52.149409999999996 868.76531355,50.90554999999999 862.50211355,49.67753 856.25401355,48.46697999999999 850.01631355,47.27495999999999 843.78141355,46.10182999999999 837.54141355,44.94609 831.29181355,43.80589 825.03201355,42.68017 818.7655135499999,41.56854 812.49921355,40.47194 806.23981355,39.39293 799.99131355,38.33384999999999 793.75511355,37.29652 787.5303135500001,36.282309999999995 781.31361355,35.29173 775.10131355,34.32451999999999 768.88941355,33.380359999999996 762.67331355,32.458929999999995 756.44851355,31.55993999999999 750.21031355,30.682429999999997 743.9552135499999,29.824379999999998 737.68181355,28.983929999999994 731.39071355,28.159509999999997 725.08461355,27.349729999999994 718.7681135500001,26.553819999999995 712.44571355,25.77218 706.12071355,25.005269999999996 699.79501355,24.253339999999994 693.46891355,23.516489999999997 687.1412135500001,22.794589999999992 680.8100135500001,22.087169999999993 674.47381355,21.39365 668.13191355,20.713539999999995 661.7840135499999,20.04641999999999 655.43101355,19.391949999999994 649.07401355,18.749959999999994 642.7146135500001,18.120569999999994 636.35381355,17.503949999999996 629.99251355,16.900189999999995 623.6309135500001,16.30935999999999 617.2693135500001,15.731509999999993 610.90731355,15.166650000000004 604.5449135499999,14.614779999999996 598.1817135499999,14.07593 591.8175135500001,13.550089999999997 585.45221355,13.03730999999999 579.0856135500001,12.537589999999994 572.71771355,12.050939999999997 566.34841355,11.577339999999992 559.97801355,11.116779999999991 553.60661355,10.669240000000002 547.23471355,10.234750000000005 540.8627135500001,9.813320000000004 534.49121355,9.405150000000006 528.12061355,9.010469999999998 521.75111355,8.62952 515.38301355,8.262519999999995 509.01641355,7.909669999999991 502.65121355,7.571179999999998 496.28741355000005,7.247199999999992 489.92471355000004,6.937870000000004 483.56281355,6.643319999999989 477.20141355000004,6.363689999999991 470.84001355000004,6.099119999999999 464.47811355000005,5.84969000000001 458.11541355,5.615399999999994 451.75171355000003,5.396239999999992 445.38741355,5.1922 439.02321355000004,5.003289999999993 432.66001355000003,4.829520000000002 426.29911355,4.671059999999997 419.94141355,4.528350000000003 413.58751355000004,4.40182999999999 407.23761355,4.291929999999994 400.89151355,4.1990399999999966 394.54851355,4.123580000000004 388.20771355000005,4.065799999999996 381.86851355000005,4.025849999999991 375.53071355000003,4.003860000000003 369.19441355000004,4.0 362.85991355,4.014399999999995 356.52811355,4.047259999999994 350.19981355000004,4.098909999999989 343.87551355000005,4.169749999999993 337.55561355,4.260149999999996 331.24001355,4.370509999999996 324.92851355,4.5012200000000036 318.62061355000003,4.652609999999996 312.31611355,4.824969999999993 306.01491355,5.018559999999994 299.71731355000003,5.233630000000005 293.42381355,5.470420000000004 287.13541355,5.729209999999995 280.85291355,6.01048999999999 274.57701355,6.314779999999985 268.30831355000004,6.642609999999991 262.04721355000004,6.994500000000002 255.79381354999998,7.371009999999998 249.54851355,7.772749999999988 243.31141355,8.20035 237.08321354999998,8.654430000000005 230.86461355,9.135580000000004 224.65621355,9.644390000000001 218.45921355000002,10.18159 212.27401355,10.747979999999998 206.10101355,11.344380000000001 199.94021355,11.97162999999999 193.79141355,12.630589999999998 187.65471355,13.32208 181.53081355,14.046790000000001 175.42151355,14.805299999999995 169.32921355,15.598059999999997 163.25701355,16.425849999999997 157.20781355,17.29002 151.18421355,18.192009999999996 145.18791355,19.13321 139.22021355,20.115109999999994 133.28241354999997,21.13939 127.37581355,22.20767 121.50171355,23.32153999999999 115.66151355,24.48252 109.85801355000001,25.692119999999996 104.09541354999999,26.951389999999996 98.37999355,28.260759999999998 92.71969355000002,29.62054 87.12403355000001,31.03221 81.60313355,32.496809999999996 76.16719355000001,34.01464 70.82738355000001,35.58601 65.59679355,37.210699999999996 60.489353550000004,38.88693 55.52059355,40.611439999999995 50.717053549999996,42.376949999999994 46.116183549999995,44.16888 41.75695355,45.968759999999996 37.67545355,47.76195 33.89588354999999,49.534389999999995 30.42554355,51.273109999999996 27.26324355,52.96527999999999 24.407003550000002,54.59542999999999 21.84578355,56.15075 19.55998355,57.62658 17.53195355,59.030089999999994 15.74078355,60.36775 14.16148355,61.64452 12.76845355,62.86498999999999 11.54154555,64.03344 10.46218455,65.15575 9.51235955,66.23867 8.67635855,67.28855999999999 7.94100655,68.31106799999999 7.2932875500000005,69.31011 6.72061855,70.286029 6.21358955,71.236739 5.76461955,72.159233 5.36710555,73.050581 5.01505855,73.90851599999999 4.70661675,74.73129 4.44871665,75.518663 4.24623015,76.273833 4.10206945,77.0017288 4.01885309,77.7079236 4.0,78.39828539999999 4.05065875,79.079044 4.17618675,79.75609399999999 4.37603435,80.431642 4.65044945,81.105569 5.00197955,81.77573799999999 5.434980550000001,82.43717 5.95486255,83.08058299999999 6.56700655,83.69353199999999 7.27747555,84.273338 8.09240855,84.82204899999999 9.01697955,85.34392799999999 10.05412155,85.846755 11.20230655,86.34383 12.455826550000001,86.85313599999999 13.82301155,87.379494 15.31984355,87.92103999999999 16.96473355,88.4747 18.78027355,89.03627 20.79758355,89.60109 23.059393550000003,90.16757 25.61619355,90.73785 28.52512355,91.31633 31.83971355,91.91158 35.58580355,92.52953 39.74361355,93.15368 44.249843549999994,93.75997 49.05031355,94.32992999999999 54.13663355,94.85803 59.49709355,95.3442 65.09586354999999,95.7906 70.87332355000001,96.19757999999999 76.76817355,96.56183999999999 82.73586355,96.88295 88.75761355,97.16313 94.83091354999999,97.40505999999999 100.95366354999999,97.61139 107.12221355,97.78491 113.33111355,97.92838 119.57471355000001,98.04418999999999 125.84701354999999,98.13484 132.14181355,98.203 138.45321355,98.25095999999999 144.77651354999998,98.27955 151.10891355,98.28943 157.44961354999998,98.28126999999999 163.80011355,98.25578999999999 170.16271354999998,98.21410999999999 176.53881355,98.15756999999999 182.92811355,98.08752 189.32861355,98.00538 195.73691355,97.91239 202.14941355,97.80895 208.56401355,97.69527 214.98011355,97.57153 221.39851355,97.43787 227.82151355,97.29453 234.25181355,97.14226 240.69071355,96.98194 247.13851355,96.81449 253.59421355,96.64088 260.05551355000006,96.46206 266.51951355,96.27843 272.98401355000004,96.08999 279.44771355,95.89674 285.91041355,95.69864 292.37291355,95.49562 298.83681355,95.2877 305.30361355,95.07522 311.77451355,94.8586 318.24971355,94.63824 324.72921355000005,94.41461 331.21181355000004,94.18817999999999 337.69631355000007,93.95926 344.18131355,93.72791 350.66631355000004,93.49416 357.15091355000004,93.25801999999999 363.63541355000007,93.01948999999999 370.12071355,92.77852999999999 376.60791355000003,92.53528 383.09801355,92.29005 389.59151355,92.04317999999999 396.08841355,91.79502 402.58861355,91.54594 409.09141355,91.29633 415.59551355,91.04643999999999 422.10011355,90.79628 428.60451355000004,90.54581999999999 435.10811355000004,90.29504 441.61101355,90.04391 448.11321355,89.79236999999999 454.61511355000005,89.54039999999999 461.11711355000006,89.28808 467.61951355,89.0355 474.12251355000006,88.78276 480.62601355000004,88.52996 487.12991355,88.27722 493.63391355,88.02465 500.13771355,87.772339 506.64091355,87.520388 513.1434135500001,87.268878 519.64511355,87.017894 526.1459135499999,86.767517 532.64581355,86.51782299999999 539.14491355,86.268874 545.64331355,86.020721 552.1412135500001,85.77341299999999 558.6387135499999,85.52699899999999 565.13601355,85.281528 571.63331355,85.03704499999999 578.13081355,84.793548 584.62871355,84.55096999999999 591.1271135500001,84.30924 597.62621355,84.068287 604.12581355,83.828046 610.62591355,83.58845 617.12651355,83.349377 623.62721355,83.110554 630.12771355,82.871693 636.62731355,82.63251 643.12541355,82.392729 649.62091355,82.152082 656.11291355,81.91029 662.60051355,81.66702599999999 669.08371355,81.421927 675.5632135500001,81.174605 682.04021355,80.924647 688.5168135499999,80.67160899999999 694.99551355,80.415247 701.4787135500001,80.15599499999999 707.9672135500001,79.894463 714.46091355,79.63131299999999 720.95831355,79.367263 727.4564135500001,79.103081 733.9516135499999,78.83903699999999 740.44081355,78.5745001 746.92281355,78.3086921 753.39811355,78.0407704 759.86891355,77.76982496 766.33891355,77.4949747 772.8125135500001,77.2162456 779.29191355,76.9342458 785.7772135499999,76.649692 792.26591355,76.363412 798.7532135499999,76.076362 805.23241355,75.790373 811.69651355,75.50833899999999 818.13921355,75.233159 824.55471355,74.96762799999999 830.93781355,74.714426 837.28421355,74.47675799999999 843.5918135500001,74.25891 849.86101355,74.06504699999999 856.09481355,73.899114 862.29851355,73.76490199999999 868.47941355,73.664919 874.64591355,73.59939899999999 880.80761355,73.568495 886.97521355,73.572578 893.16101355,73.612145 899.3768135500001,73.68535 905.6295135500001,73.78811999999999 911.91861355,73.916102 918.2355135500001,74.06461999999999 924.56551355,74.230764 930.89581355,74.414456 937.2192135500001,74.615878 943.53471355,74.835263 949.84181355,75.07221799999999 956.1338135500001,75.32575399999999 962.39601355,75.594469 968.60241355,75.876334 974.70991355,76.168274 980.6590135499999,76.46493799999999 986.35361355,76.755275 991.67091355,77.0285486 996.48081355,77.2825828 1000.7015135500001,77.5320974 1003.92771355,77.78594" stroke="black" stroke-width="2.0" /></svg>