<?xml version="1.0" encoding="utf-8" ?>
<svg baseProfile="full" height="149.33176" version="1.1" width="1012.0000468499" xmlns="http://www.w3.org/2000/svg" xmlns:ev="http://www.w3.org/2001/xml-events" xmlns:xlink="http://www.w3.org/1999/xlink"><defs /><polygon fill="none" points="1004.0000468499,107.8647 1000.7337468499,106.803144 996.7072468499,105.402172 992.3490468499,103.809933 987.6580468499,102.068207 982.7248468498999,100.248381 977.6476468498998,98.417939 972.4603468499,96.62085 967.1434468498999,94.86109 961.6750468499,93.13135 956.0397468499,91.42689 950.2314468498998,89.74396999999999 944.2520468498999,88.07612 938.1106468498999,86.41632 931.8250468499,84.75766 925.4215468499,83.09703 918.9272468499,81.43844 912.3658468499,79.78546 905.7560468498999,78.13992999999999 899.1101468498999,76.50198999999999 892.4352468499,74.87207 885.7363468499,73.25089 879.0174468498999,71.63885 872.2811468499,70.036 865.5288468498999,68.44207 858.7615468498999,66.85659 851.9802468498999,65.27916 845.1869468498999,63.70951 838.3839468498999,62.147479999999995 831.5745468498999,60.59305 824.7619468499,59.04675 817.9487468498999,57.50953 811.1368468498999,55.98216 804.3270468499,54.46522 797.5193468499,52.959070000000004 790.7128468499,51.46387 783.9061468499,49.97951 777.0982468498999,48.5058 770.2886468498999,47.04271 763.4777468499,45.59032 756.6662468499,44.148849999999996 749.8557468498999,42.71866 743.0480468499,41.30041 736.2448468499,39.89511999999999 729.4473468499,38.503730000000004 722.6564468498999,37.12707 715.8721468499,35.765849999999986 709.0943468498999,34.42070000000001 702.3223468498999,33.09213 695.5553468498999,31.780519999999996 688.7928468498999,30.48624000000001 682.0344468499,29.209739999999996 675.2803468499,27.951499999999996 668.5309468499,26.71208 661.7868468498999,25.49207 655.0490468498999,24.292209999999997 648.3187468499,23.113780000000006 641.5975468499,21.958200000000005 634.8872468499,20.826909999999998 628.1902468499,19.721379999999996 621.5088468498999,18.64304 614.8458468498999,17.593339999999998 608.2043468498999,16.573930000000004 601.5865468499,15.587199999999996 594.9938468498999,14.63548999999999 588.4263468498999,13.720870000000005 581.8831468499,12.845199999999991 575.3625468498999,12.010199999999998 568.8617468499,11.21745 562.3771468498999,10.468159999999997 555.9051468499,9.762389999999996 549.4419468499,9.099919999999997 542.9836468499,8.480649999999997 536.5262468498998,7.90455 530.0654468499,7.371700000000004 523.5969468499,6.882300000000001 517.1161468498999,6.436500000000009 510.6185468499,6.033199999999994 504.10094684989997,5.670600000000007 497.56084684990003,5.347300000000004 490.9973468499,5.061799999999991 484.41024684990003,4.812600000000003 477.80104684990005,4.598500000000001 471.1723468499,4.4178 464.5275468499,4.269999999999996 457.8700468499,4.154800000000009 451.2026468499,4.071600000000004 444.5278468499,4.0201999999999884 437.8478468499,4.0 431.1642468499,4.010599999999997 424.4782468499,4.051400000000001 417.7908468499,4.122199999999992 411.1026468499,4.222899999999996 404.4141468499,4.353699999999989 397.7260468499,4.514499999999998 391.0383468499,4.705299999999994 384.3515468499,4.926199999999994 377.6654468499,5.177099999999996 370.98024684989997,5.458100000000002 364.2959468499,5.769100000000009 357.6126468499,6.110100000000003 350.9305468499,6.481000000000009 344.2500468499,6.881699999999995 337.57144684990004,7.312299999999993 330.8953468499,7.772599999999997 324.2221468499,8.26267 317.55284684990005,8.782699999999991 310.8879468499,9.332760000000007 304.22864684990003,9.91292 297.5757468499,10.523250000000004 290.9306468499,11.163750000000007 284.2943468499,11.83453 277.66824684989996,12.53595 271.0531468499,13.268449999999987 264.4498468499,14.032470000000004 257.8587468499,14.828469999999996 251.2800468499,15.656930000000003 244.71364684990002,16.51836 238.15954684989998,17.413260000000008 231.6180468499,18.34205 225.0895468499,19.305099999999996 218.5752468499,20.30270999999999 212.0764468499,21.33511 205.5948468499,22.402419999999992 199.1326468499,23.505039999999994 192.6919468499,24.643640000000005 186.2750468499,25.81886 179.8842468499,27.031279999999995 173.5214468499,28.281409999999994 167.1889468499,29.56975 160.8888468499,30.89703 154.6238468499,32.264160000000004 148.3963468499,33.67187999999999 142.2091468499,35.120850000000004 136.06494684990002,36.61156 129.96684684989998,38.14456999999999 123.9195468499,39.72063 117.9299468499,41.33982 112.0065468499,43.00135 106.1596468499,44.70355 100.4001868499,46.44425 94.7406068499,48.2222 89.1929168499,50.036049999999996 83.7680468499,51.88379 78.4755968499,53.76285 73.3244168499,55.67045 68.3294768499,57.6025 63.514086849899996,59.55029 58.9042368499,61.501270000000005 54.523086849900004,63.44115 50.3876668499,65.35703000000001 46.507126849900004,67.24103 42.880316849900005,69.08816 39.4983168499,70.89545 36.3474868499,72.66161 33.4126068499,74.38677999999999 30.685786849899998,76.07068 28.1658768499,77.70823 25.8508768499,79.29237 23.7344768499,80.81702 21.8057268499,82.27847 20.050586849899997,83.67579 18.454626849900002,85.01248 17.0011768499,86.29574 15.673156849900002,87.53363 14.4550868499,88.7339 13.333608849900001,89.9035 12.2975148499,91.04855 11.3374338499,92.17443 10.4458218499,93.28571 9.6184298499,94.38466 8.853804849900001,95.47028 8.1516148499,96.53937 7.511581849900001,97.58754 6.9328048499,98.610178 6.4134458499,99.60308 5.9507078499,100.562968 5.5410038499,101.487673 5.1810228499,102.37607799999999 4.8706594499,103.22878 4.6092494499,104.049405 4.3953125499,104.843242 4.2275235499,105.616197 4.1052334499,106.374425 4.0288131299,107.1243458 4.0,107.872923805 4.0226341999,108.6269244 4.1038470499,109.388076 4.2530916499,110.153731 4.4762261499000005,110.920199 4.7733462499,111.685674 5.1440308499,112.448254 5.5876408499,113.205714 6.103256849899999,113.955436 6.6895958499,114.694314 7.3448958499,115.418632 8.0667618499,116.123896 8.8524528499,116.805048 9.7038078499,117.460708 10.6262148499,118.09228999999999 11.6259058499,118.7017 12.7099788499,119.29157000000001 13.886398849899999,119.86551 15.163836849900001,120.42866000000001 16.551156849900003,120.98839 18.0562168499,121.5553 19.6844968499,122.14299 21.4455268499,122.75665 23.351636849899997,123.39541 25.4139368499,124.05699 27.6416168499,124.73752999999999 30.0420368499,125.43173 32.6229068499,126.13358 35.39798684989999,126.83778 38.3924568499,127.54251 41.6376368499,128.24860999999999 45.167986849900004,128.95727 49.0183168499,129.6701 53.2178868499,130.38929000000002 57.778216849900005,131.11711 62.6832468499,131.84794 67.89118684990001,132.56874 73.3426268499,133.26667 78.97980684990002,133.9323 84.7695068499,134.56176 90.7061468499,135.15532 96.78695684990001,135.71404 103.0043968499,136.23926 109.3450468499,136.73273 115.7889468499,137.19644 122.3118468499,137.63052 128.89234684989998,138.03421 135.51324684989999,138.40752 142.1636468499,138.75112000000001 148.8389468499,139.06626 155.5404468499,139.35453 162.2705468499,139.6176 169.03024684989998,139.85707 175.8190468499,140.07456 182.6345468499,140.27167 189.4729468499,140.45 196.3289468499,140.61047 203.1982468499,140.75342999999998 210.07724684989998,140.87927 216.96374684990002,140.98845 223.8565468499,141.08147 230.7557468499,141.15884 237.6623468499,141.22113 244.5775468499,141.26895000000002 251.5017468499,141.30292 258.43524684989995,141.32365 265.3775468499,141.33176 272.3277468499,141.32786 279.2845468499,141.31258 286.2462468499,141.28622000000001 293.21164684990003,141.24894 300.17954684989996,141.20092 307.1495468499,141.14231 314.1212468499,141.07328 321.0949468499,140.994 328.0711468499,140.90464 335.0505468499,140.80541 342.0334468499,140.69657 349.0201468499,140.57838 356.0104468499,140.4511 363.0037468499,140.315 369.99924684990003,140.17037 376.9958468499,140.01748 383.9923468499,139.85639 390.9875468499,139.68696 397.98064684990004,139.50904 404.97114684990004,139.32247999999998 411.9590468499,139.12712 418.9443468499,138.92278 425.92764684990004,138.70929 432.9095468499,138.4865 439.8908468499,138.25441999999998 446.8719468499,138.01304 453.8530468499,137.7624 460.8340468499,137.50251 467.81464684990004,137.23343 474.7942468499,136.95519 481.7719468499,136.66785 488.7467468499,136.37124 495.7176468499,136.06503 502.6835468499,135.74891 509.6434468499,135.42255 516.5966468498999,135.08566 523.5421468499,134.73793 530.4792468498999,134.37904 537.4070468498999,134.00854 544.3245468498999,133.62546 551.2303468498999,133.22875 558.1226468499,132.81743 564.9992468499,132.39057 571.8575468498999,131.94729 578.6948468498999,131.48678 585.5077468499,131.00828 592.2933468499,130.5106 599.0499468498999,129.99213 605.7776468499,129.45117 612.4780468498999,128.88591 619.1546468498999,128.29441 625.8122468499,127.67456 632.4571468498999,127.02403 639.0970468498999,126.34085 645.7400468499,125.62535 652.3933468498999,124.87848 659.0626468499,124.10126 665.7528468498999,123.29476 672.4674468498999,122.46016 679.2085468498999,121.59882 685.9771468498999,120.71233 692.7731468499,119.80349 699.5952468498999,118.8763 706.4411468499,117.93503 713.3073468498999,116.984282 720.1887468499,116.028896 727.0793468498999,115.073975 733.9714468499,114.124807 740.8568468499,113.18608 747.7276468499,112.261137 754.5781468499,111.352883 761.4043468499,110.46388999999999 768.2039468499,109.596414 774.9764468499,108.7524222 781.7230468499,107.93362544 788.4460468499,107.1414727 795.1479468499,106.377228 801.8299468498999,105.642216 808.4929468498999,104.937837 815.1367468499,104.265543 821.7602468499,103.626825 828.3620468499,103.023181 834.9397468498998,102.456324 841.4910468498999,101.928523 848.0140468499,101.442007 854.5071468498999,100.998863 860.9694468498999,100.601045 867.4001468498999,100.250386 873.7989468499,99.948616 880.1658468498999,99.697461 886.5005468498999,99.498692 892.8030468498999,99.354018 899.0735468498999,99.265088 905.3120468499,99.233492 911.5190468499,99.260774 917.6946468499,99.348229 923.8382468499,99.496503 929.9479468499,99.706052 936.0210468498999,99.977193 942.0535468498999,100.310054 948.0406468499,100.704496 953.9740468498999,101.159674 959.8370468499,101.673439 965.6048468499,102.24207 971.2477468499,102.86015499999999 976.7333468498999,103.521632 982.0254468498999,104.220849 987.0873468499,104.950197 991.8891468498999,105.700645 996.4062468499,106.461285 1000.6132468499,107.2190878 1004.0000468499,107.8647" stroke="black" stroke-width="2.0" /></svg>