<?xml version="1.0" encoding="utf-8" ?>
<svg baseProfile="full" height="131.55340999999999" version="1.1" width="1011.996213328" xmlns="http://www.w3.org/2000/svg" xmlns:ev="http://www.w3.org/2001/xml-events" xmlns:xlink="http://www.w3.org/1999/xlink"><defs /><polygon fill="none" points="1003.996213328,99.05066 1000.8332133279999,98.05801389999999 996.883713328,96.738463 992.559113328,95.227645 987.8697133279999,93.56762599999999 982.928613328,91.834317 977.852013328,90.09970299999999 972.6747133279999,88.40572999999999 967.370913328,86.75144999999999 961.915513328,85.12769 956.295013328,83.52917 950.510913328,81.95302 944.5730133279999,80.39523 938.4958133279999,78.85086999999999 932.2990133279999,77.31439999999999 926.005513328,75.78347 919.6365133279999,74.26053999999999 913.210413328,72.74734 906.741413328,71.24421999999998 900.2389133279999,69.75044 893.7087133279999,68.26598999999999 887.155513328,66.79115999999999 880.5837133279999,65.32604 873.9969133279999,63.870599999999996 867.3985133279999,62.42467 860.790613328,60.98844999999999 854.175413328,59.562189999999994 847.5543133279999,58.145999999999994 840.928313328,56.73989999999999 834.2979133279999,55.343799999999995 827.663313328,53.95756999999999 821.024613328,52.58113999999999 814.382213328,51.21445 807.7364133279999,49.85751 801.0879133279999,48.51032999999999 794.437513328,47.172959999999996 787.786013328,45.84561999999999 781.134113328,44.528679999999994 774.482613328,43.22250999999999 767.8319133279999,41.92743999999999 761.182613328,40.64376999999999 754.5349133279999,39.37179999999999 747.8891133279999,38.11180999999999 741.245313328,36.8642 734.6036133279999,35.62938 727.9644133279999,34.40774999999999 721.3276133279999,33.19972 714.693613328,32.00569 708.062513328,30.82606 701.4345133279999,29.66127999999999 694.8097133279999,28.511819999999986 688.188413328,27.378169999999983 681.570813328,26.26083 674.957013328,25.160269999999997 668.3473133279999,24.076959999999985 661.741813328,23.01137 655.140713328,21.96419999999999 648.544713328,20.93638999999999 641.954813328,19.92891999999999 635.372413328,18.942849999999993 628.7994133279999,17.97923999999999 622.2380133279999,17.03918999999999 615.6908133279999,16.123819999999995 609.160513328,15.234700000000004 602.649213328,14.37388 596.1578133279999,13.543239999999997 589.686313328,12.744479999999996 583.233813328,11.97914999999999 576.798413328,11.248679999999993 570.3777133279999,10.554400000000001 563.968113328,9.897169999999988 557.566413328,9.276849999999996 551.169413328,8.69319999999999 544.7739133279999,8.146109999999993 538.376913328,7.635499999999993 531.975413328,7.161409999999989 525.566513328,6.723939999999999 519.1473133279999,6.323120000000003 512.7152133280001,5.9580899999999986 506.26821332800006,5.627659999999992 499.80501332800003,5.33068999999999 493.325013328,5.066100000000006 486.828413328,4.832819999999998 480.316213328,4.629789999999986 473.790013328,4.45595999999999 467.25221332800004,4.310649999999995 460.704713328,4.193559999999991 454.149713328,4.104339999999993 447.588613328,4.042609999999996 441.022813328,4.00797 434.453413328,4.0 427.881213328,4.018259999999984 421.306713328,4.062429999999992 414.73051332800003,4.1324400000000026 408.152813328,4.228250000000003 401.574413328,4.349800000000002 394.995713328,4.497029999999995 388.417413328,4.669869999999989 381.840013328,4.868239999999986 375.264313328,5.092100000000002 368.690713328,5.341549999999998 362.119913328,5.616689999999991 355.551913328,5.917629999999988 348.987113328,6.244499999999988 342.425313328,6.597419999999985 335.866513328,6.976519999999994 329.310413328,7.38194 322.756813328,7.813760000000002 316.205913328,8.272080000000003 309.657813328,8.756929999999997 303.11341332800004,9.268349999999984 296.573313328,9.806339999999992 290.038713328,10.370869999999996 283.510913328,10.962019999999995 276.991213328,11.580179999999984 270.480613328,12.225729999999999 263.979913328,12.899069999999995 257.489613328,13.600629999999995 251.010013328,14.330839999999995 244.54111332800002,15.090159999999997 238.08301332800002,15.879059999999996 231.63591332800002,16.698039999999992 225.200313328,17.547499999999985 218.777013328,18.427859999999995 212.367013328,19.33941999999999 205.97161332800002,20.282489999999996 199.59231332800002,21.257540000000006 193.230813328,22.265289999999993 186.889113328,23.30641999999999 180.568913328,24.381569999999996 174.27231332800002,25.491280000000003 168.00121332800003,26.63606 161.75791332800003,27.816670000000002 155.544513328,29.034139999999994 149.363313328,30.289449999999988 143.216413328,31.583489999999983 137.105913328,32.917100000000005 131.033813328,34.29111999999999 125.003413328,35.70669999999999 119.02001332799999,37.164579999999994 113.090513328,38.66478999999999 107.223413328,40.20663 101.428553328,41.788759999999996 95.71687332799999,43.410669999999996 90.099683328,45.072089999999996 84.587593328,46.772149999999996 79.190243328,48.509389999999996 73.916563328,50.28201 68.780963328,52.08783999999999 63.808213328,53.92036999999999 59.028263328,55.768359999999994 54.469883328,57.61776999999999 50.156173328,59.454989999999995 46.101923328,61.2711 42.310193328000004,63.05978999999999 38.774663328,64.81669 35.482843328,66.53917999999999 32.421543328,68.22641999999999 29.589363327999997,69.87523999999999 26.990713328000002,71.47627 24.625293328,73.01914 22.484603328,74.49623 20.553173328,75.9039 18.812713328,77.24378999999999 17.242213328,78.52358 15.819223328,79.75287 14.523413328,80.94094999999999 13.337541327999999,82.09604999999999 12.247380328,83.22532 11.241281328,84.33489 10.310268328,85.42985999999999 9.450158328,86.51232999999999 8.660085328000001,87.58042999999999 7.940167328,88.62980999999999 7.290124328,89.655081 6.708505327999999,90.650973 6.192466328,91.61316099999999 5.737950328,92.538687 5.340205328,93.42599899999999 4.997035328,94.27488 4.707474828,95.088219 4.469316328,95.871394 4.280370828,96.63065599999999 4.139172628,97.37249499999999 4.045360178,98.10354889999999 4.0,98.8308493 4.006299358,99.561836 4.072642348,100.29924399999999 4.211488728,101.039701 4.429913028,101.779035 4.727515028,102.515293 5.103421328,103.24632899999999 5.556594328,103.96954699999999 6.085727328000001,104.681781 6.689098328,105.37913099999999 7.364372328,106.05674499999999 8.108311328,106.70852799999999 8.919431328,107.32942499999999 9.802901328,107.91971099999999 10.765847328,108.48087899999999 11.816612328,109.01510599999999 12.964878328000001,109.52564 14.221643328,110.01742999999999 15.598803327999999,110.49812 17.107893328,110.97961 18.757543327999997,111.47908 20.559673328,112.00519999999999 22.529823328,112.55689 24.680753328,113.13068999999999 27.020723328000003,113.72054999999999 29.554313328,114.31821 32.287493328,114.91452 35.238053328,115.50183 38.439093328000006,116.07808999999999 41.931103328,116.64386999999999 45.759473328000006,117.20053999999999 49.968683328000004,117.75076999999999 54.586743328000004,118.29898999999999 59.599663328,118.84554 64.948193328,119.37785 70.543393328,119.88211 76.298103328,120.34862 82.16252332799999,120.77394999999999 88.13347332800001,121.15957999999999 94.217853328,121.50797999999999 100.417293328,121.82163 106.726313328,122.10311999999999 113.130313328,122.35524 119.607713328,122.57955 126.137513328,122.77658 132.70291332800002,122.94735 139.292213328,123.09334 145.899413328,123.21634999999999 152.524213328,123.31815999999999 159.168313328,123.40006 165.832513328,123.46327 172.51701332800002,123.50898 179.22091332800002,123.53844 185.942213328,123.55288999999999 192.678213328,123.55340999999999 199.42621332800002,123.54060999999999 206.18391332800002,123.51510999999999 212.949713328,123.47752 219.72241332800002,123.42849 226.501313328,123.36864 233.286413328,123.29862 240.07801332800003,123.21889999999999 246.87601332800003,123.12993999999999 253.68041332800001,123.03219999999999 260.490713328,122.92614999999999 267.306413328,122.81224 274.126713328,122.69098 280.950813328,122.56276 287.777713328,122.42778 294.606613328,122.28617999999999 301.43721332800004,122.1381 308.269113328,121.98366999999999 315.102313328,121.82302999999999 321.937113328,121.65630999999999 328.773913328,121.48361999999999 335.61321332800003,121.30519 342.45531332800005,121.12122 349.300413328,120.93195 356.14841332800006,120.73760999999999 362.999113328,120.53844 369.852213328,120.3347 376.70691332800004,120.12662999999999 383.562713328,119.91436999999999 390.418813328,119.69791 397.27471332799996,119.47724 404.130113328,119.25233999999999 410.984713328,119.02319 417.838413328,118.78976999999999 424.691313328,118.55203999999999 431.543513328,118.30996999999999 438.395413328,118.06352 445.24701332800004,117.81264999999999 452.098413328,117.55733 458.949313328,117.29753 465.79951332800005,117.03322 472.648613328,116.76441 479.496013328,116.49107 486.340913328,116.21315999999999 493.182813328,115.93045 500.020913328,115.64264 506.854913328,115.34946 513.6844133280001,115.05062 520.509113328,114.74580999999999 527.329013328,114.43476 534.144113328,114.11713999999999 540.9546133279999,113.79257999999999 547.7601133279999,113.46047999999999 554.560313328,113.12022999999999 561.3541133279999,112.77126 568.139913328,112.41304 574.916013328,112.04504999999999 581.679913328,111.66682999999999 588.429113328,111.27796 595.1607133279999,110.87773 601.8728133279999,110.46502 608.564813328,110.03860999999999 615.237613328,109.59719999999999 621.893413328,109.13942 628.535613328,108.663805 635.1690133279999,108.16876199999999 641.799613328,107.652649 648.434113328,107.115225 655.078213328,106.55745099999999 661.736613328,105.98038899999999 668.4121133279999,105.385201 675.106613328,104.77317799999999 681.8201133279999,104.145766 688.5513133279999,103.50458499999999 695.297213328,102.85161099999999 702.054213328,102.18963199999999 708.818613328,101.52167499999999 715.586813328,100.85078999999999 722.3552133279999,100.180038 729.120513328,99.5124695 735.879313328,98.85111099999999 742.628313328,98.19891229999999 749.364613328,97.55820899999999 756.0857133279999,96.930798 762.7898133279999,96.318361 769.476113328,95.72247399999999 776.144013328,95.14461999999999 782.7940133279999,94.58619399999999 789.4270133279999,94.048519 796.0444133279999,93.532821 802.647013328,93.040273 809.235213328,92.57208 815.8084133279999,92.129475 822.365813328,91.71370499999999 828.9055133279999,91.32601399999999 835.4252133279999,90.967632 841.922313328,90.64016 848.394113328,90.345811 854.8388133279999,90.08673599999999 861.255113328,89.864965 867.642213328,89.682423 874.0000133279999,89.540943 880.328813328,89.442285 886.6290133279999,89.38814299999999 892.900913328,89.380163 899.144713328,89.419952 905.3604133279999,89.509075 911.548213328,89.649058 917.707913328,89.84136099999999 923.8391133279999,90.087047 929.9402133279999,90.386782 936.008913328,90.741096 942.0421133279999,91.15035599999999 948.0358133279999,91.61472599999999 953.9841133279999,92.13381299999999 959.872913328,92.705759 965.6777133279999,93.326949 971.3668133279999,93.99187599999999 976.903913328,94.69368 982.244613328,95.425095 987.3375133279999,96.17617399999999 992.1380133279999,96.93530899999999 996.6111133279999,97.690883 1000.725913328,98.4305079 1003.996213328,99.05066" stroke="black" stroke-width="2.0" /></svg>