<?xml version="1.0" encoding="utf-8" ?>
<svg baseProfile="full" height="152.0395" version="1.1" width="1011.99306853" xmlns="http://www.w3.org/2000/svg" xmlns:ev="http://www.w3.org/2001/xml-events" xmlns:xlink="http://www.w3.org/1999/xlink"><defs /><polygon fill="none" points="1003.99306853,74.01975 1000.22716853,73.7124392 995.68436853,73.1010021 990.87336853,72.338188 985.77426853,71.472661 980.40796853,70.554406 974.80646853,69.630492 968.99666853,68.724547 962.98956853,67.846214 956.78216853,66.993536 950.37576853,66.149676 943.8048685299999,65.29805999999999 937.11716853,64.440958 930.3414685299999,63.58236 923.49386853,62.72348 916.58936853,61.86459 909.64166853,61.00343 902.66166853,60.13674 895.6577685299999,59.26428 888.63946853,58.388220000000004 881.6172685299999,57.509780000000006 874.5978685299999,56.627340000000004 867.58046853,55.738290000000006 860.5598685299999,54.8416 853.5317685299999,53.93795 846.49566853,53.028360000000006 839.45226853,52.11397 832.40336853,51.195890000000006 825.35046853,50.27539 818.2952685299999,49.35396 811.2386685299999,48.43312 804.1813685299999,47.51404000000001 797.12396853,46.5971 790.06756853,45.682559999999995 783.01346853,44.77078 775.9623685299999,43.862300000000005 768.9136685299999,42.95755 761.86516853,42.056670000000004 754.81506853,41.15908 747.76386853,40.2642 740.71476853,39.37183 733.6722685299999,38.48303 726.63886853,37.59959 719.6138685299999,36.72299 712.59436853,35.85394 705.57696853,34.99211 698.5597685299999,34.137190000000004 691.54236853,33.28905 684.52526853,32.44772 677.50876853,31.61327 670.49276853,30.785720000000005 663.47696853,29.965020000000003 656.46136853,29.15115 649.4466685299999,28.344119999999997 642.4343685299999,27.5441 635.42636853,26.751690000000004 628.4236685299999,25.96777 621.42646853,25.193130000000004 614.43416853,24.42839 607.44586853,23.673949999999998 600.46076853,22.93014 593.4783685299999,22.197340000000004 586.49806853,21.475810000000003 579.51916853,20.7656 572.5403685299999,20.06669000000001 565.55956853,19.378980000000006 558.5749685299999,18.701930000000004 551.5865685299999,18.034860000000002 544.59696853,17.37733 537.61076853,16.72932 530.6326685299999,16.09232 523.66406853,15.468000000000004 516.70326853,14.857750000000003 509.74606853,14.26218 502.78886853,13.680730000000004 495.83046853,13.112870000000008 488.87276853000003,12.558369999999996 481.91876853,12.017690000000002 474.97046853,11.491850000000007 468.02676853,10.981700000000004 461.08416853,10.487749999999998 454.13886853,10.009339999999995 447.18976853000004,9.545490000000001 440.23886853000005,9.095399999999998 433.29136853000006,8.658990000000003 426.35196853,8.237729999999999 419.42276853000004,7.833150000000003 412.50296853,7.446579999999997 405.58996853,7.078770000000006 398.68176853,6.729900000000001 391.77786853,6.400260000000003 384.87906853000004,6.090209999999999 377.98666853,5.800439999999995 371.10036853,5.531680000000009 364.21806853000004,5.284610000000001 357.33676853,5.059349999999995 350.45446853,4.855119999999999 343.57206853,4.6711500000000115 336.69266853,4.506860000000003 329.82086853000004,4.362990000000011 322.96096853000006,4.240860000000012 316.11616853,4.141739999999999 309.28866853,4.067190000000011 302.47856853,4.019250000000014 295.68316853000005,4.0 288.89736853,4.0111399999999975 282.11576853,4.052390000000003 275.33646853000005,4.12285 268.56016853,4.221649999999997 261.79056853000003,4.348620000000011 255.03146852999998,4.504069999999999 248.28696853,4.688279999999992 241.56076853,4.9021900000000045 234.85646852999997,5.147689999999997 228.17666853,5.426699999999997 221.52326853,5.741190000000003 214.89646853,6.093429999999998 208.29356853,6.485839999999996 201.70996853,6.920310000000001 195.14296853,7.396729999999991 188.59406853,7.914360000000002 182.06926853,8.472670000000008 175.57466853,9.072789999999998 169.11276852999998,9.716300000000004 162.68406853,10.404539999999997 156.29216852999997,11.13774 149.94716853,11.915120000000002 143.66276853,12.738020000000006 137.44596853,13.61175 131.29296853,14.542410000000004 125.19706853000001,15.53145 119.16046853,16.57584 113.19636853,17.671550000000003 107.32236853,18.81689 101.55403853,20.010460000000002 95.90584853,21.251310000000004 90.39275853000001,22.53848 85.02976853,23.86992 79.83176852999999,25.243609999999997 74.81207853000001,26.656530000000004 69.98218853,28.103860000000005 65.35315853,29.578680000000006 60.93447853,31.07271 56.735088530000006,32.57538 52.763938530000004,34.07458 49.02731853,35.56051 45.52755853,37.02796000000001 42.26068853,38.472820000000006 39.218628530000004,39.89301 36.39085853,41.28818 33.76450853,42.658069999999995 31.325678529999998,44.00166 29.060958529999997,45.31685 26.95748853,46.60192 25.002928530000002,47.85583 23.18629853,49.07848 21.49727853,50.270030000000006 19.92604853,51.43079 18.46375853,52.56167 17.10284853,53.66462 15.83593853,54.74167 14.65588853,55.79469 13.55648653,56.825590000000005 12.534139530000001,57.836920000000006 11.58589753,58.83088 10.708658530000001,59.809110000000004 9.89920453,60.77286 9.15400953,61.72249 8.468940530000001,62.65775 7.83972553,63.57905 7.26227153,64.48734400000001 6.73282853,65.383893 6.24899153,66.270244 5.8106775299999995,67.14725200000001 5.41838553,68.01419 5.07251653,68.86919900000001 4.77300083,69.709772 4.51982643,70.53288 4.31491973,71.335785 4.15942063,72.119212 4.05400987,72.886651 4.0,73.6433576 4.0,74.3961424 4.05400987,75.152849 4.15942063,75.920288 4.31491973,76.703715 4.51982643,77.50662 4.77300083,78.329728 5.07251653,79.170301 5.41838553,80.02531 5.8106775299999995,80.892248 6.24899153,81.769256 6.73282853,82.655607 7.26227153,83.552156 7.83972553,84.46045000000001 8.468940530000001,85.38175 9.15400953,86.31701000000001 9.89920453,87.26664 10.708658530000001,88.23039 11.58589753,89.20862 12.534139530000001,90.20258 13.55648653,91.21391 14.65588853,92.24481 15.83593853,93.29783 17.10284853,94.37488 18.46375853,95.47783000000001 19.92604853,96.60871 21.49727853,97.76947 23.18629853,98.96102 25.002928530000002,100.18367 26.95748853,101.43758 29.060958529999997,102.72265 31.325678529999998,104.03784 33.76450853,105.38143000000001 36.39085853,106.75132 39.218628530000004,108.14649 42.26068853,109.56667999999999 45.52755853,111.01154 49.02731853,112.47899000000001 52.763938530000004,113.96492 56.735088530000006,115.46412000000001 60.93447853,116.96679 65.35315853,118.46082 69.98218853,119.93564 74.81207853000001,121.38297 79.83176852999999,122.79589000000001 85.02976853,124.16958 90.39275853000001,125.50102000000001 95.90584853,126.78819 101.55403853,128.02904 107.32236853,129.22261 113.19636853,130.36795 119.16046853,131.46366 125.19706853000001,132.50805 131.29296853,133.49709000000001 137.44596853,134.42775 143.66276853,135.30148 149.94716853,136.12438 156.29216852999997,136.90176 162.68406853,137.63496 169.11276852999998,138.32319999999999 175.57466853,138.96671 182.06926853,139.56682999999998 188.59406853,140.12514 195.14296853,140.64277 201.70996853,141.11919 208.29356853,141.55366 214.89646853,141.94607000000002 221.52326853,142.29831000000001 228.17666853,142.6128 234.85646852999997,142.89181000000002 241.56076853,143.13731 248.28696853,143.35122 255.03146852999998,143.53543000000002 261.79056853000003,143.69088 268.56016853,143.81785000000002 275.33646853000005,143.91665 282.11576853,143.98711 288.89736853,144.02836000000002 295.68316853000005,144.0395 302.47856853,144.02024999999998 309.28866853,143.97231 316.11616853,143.89776 322.96096853000006,143.79863999999998 329.82086853000004,143.67651 336.69266853,143.53264000000001 343.57206853,143.36835 350.45446853,143.18438 357.33676853,142.98015 364.21806853000004,142.75489 371.10036853,142.50781999999998 377.98666853,142.23906 384.87906853000004,141.94929000000002 391.77786853,141.63924 398.68176853,141.3096 405.58996853,140.96073 412.50296853,140.59292 419.42276853000004,140.20635 426.35196853,139.80177 433.29136853000006,139.38051000000002 440.23886853000005,138.9441 447.18976853000004,138.49401 454.13886853,138.03016000000002 461.08416853,137.55175 468.02676853,137.0578 474.97046853,136.54765 481.91876853,136.02181000000002 488.87276853000003,135.48113 495.83046853,134.92663 502.78886853,134.35877 509.74606853,133.77732 516.70326853,133.18175 523.66406853,132.57150000000001 530.6326685299999,131.94718 537.61076853,131.31018 544.59696853,130.66217 551.5865685299999,130.00464 558.5749685299999,129.33757 565.55956853,128.66052 572.5403685299999,127.97281 579.51916853,127.2739 586.49806853,126.56369000000001 593.4783685299999,125.84216 600.46076853,125.10936000000001 607.44586853,124.36555000000001 614.43416853,123.61111 621.42646853,122.84637000000001 628.4236685299999,122.07173 635.42636853,121.28781000000001 642.4343685299999,120.4954 649.4466685299999,119.69538 656.46136853,118.88835 663.47696853,118.07448 670.49276853,117.25378 677.50876853,116.42623 684.52526853,115.59178 691.54236853,114.75045 698.5597685299999,113.90231 705.57696853,113.04739000000001 712.59436853,112.18556000000001 719.6138685299999,111.31651 726.63886853,110.43991 733.6722685299999,109.55647 740.71476853,108.66767 747.76386853,107.7753 754.81506853,106.88042 761.86516853,105.98283 768.9136685299999,105.08195 775.9623685299999,104.1772 783.01346853,103.26872 790.06756853,102.35694000000001 797.12396853,101.4424 804.1813685299999,100.52546 811.2386685299999,99.60638 818.2952685299999,98.68554 825.35046853,97.76411 832.40336853,96.84361 839.45226853,95.92553000000001 846.49566853,95.01114 853.5317685299999,94.10155 860.5598685299999,93.1979 867.58046853,92.30121 874.5978685299999,91.41216 881.6172685299999,90.52972 888.63946853,89.65128 895.6577685299999,88.77522 902.66166853,87.90276 909.64166853,87.03607 916.58936853,86.17491 923.49386853,85.31602000000001 930.3414685299999,84.45714 937.11716853,83.59854200000001 943.8048685299999,82.74144 950.37576853,81.889824 956.78216853,81.045964 962.98956853,80.193286 968.99666853,79.314953 974.80646853,78.409008 980.40796853,77.485094 985.77426853,76.566839 990.87336853,75.701312 995.68436853,74.9384979 1000.22716853,74.3270608 1003.99306853,74.01975" stroke="black" stroke-width="2.0" /></svg>