<?xml version="1.0" encoding="utf-8" ?>
<svg baseProfile="full" height="142.06988" version="1.1" width="1011.93310564" xmlns="http://www.w3.org/2000/svg" xmlns:ev="http://www.w3.org/2001/xml-events" xmlns:xlink="http://www.w3.org/1999/xlink"><defs /><polygon fill="none" points="1003.93310564,77.93569 1000.49720564,77.3492409 996.26890564,76.447031 991.67090564,75.419112 986.77740564,74.34689999999999 981.65510564,73.2696 976.31590564,72.20629 970.75610564,71.17025 964.96570564,70.16036199999999 958.94720564,69.163676 952.72620564,68.16877199999999 946.34260564,67.17468 939.83370564,66.18157 933.22840564,65.1883 926.54820564,64.19587999999999 919.8110056400001,63.20533 913.03090564,62.21701999999999 906.21810564,61.23138999999999 899.38050564,60.24880999999999 892.52370564,59.26921999999999 885.65110564,58.29236999999999 878.76550564,57.31802999999999 871.86970564,56.34595999999999 864.96660564,55.375969999999995 858.05890564,54.408159999999995 851.14870564,53.44288999999999 844.23720564,52.48040999999999 837.32490564,51.52087999999999 830.41130564,50.56425999999999 823.49620564,49.61040999999999 816.57950564,48.659209999999995 809.6612056399999,47.710539999999995 802.74160564,46.76437 795.82110564,45.82073 788.90040564,44.87972 781.98000564,43.94144 775.06090564,43.00601999999999 768.14370564,42.07366999999999 761.22930564,41.14478999999999 754.31800564,40.219809999999995 747.41000564,39.29907999999999 740.50520564,38.38295999999999 733.60300564,37.471689999999995 726.70310564,36.56536 719.80500564,35.66403999999999 712.9080056399999,34.76782999999999 706.0116056400001,33.87678999999999 699.11550564,32.99099 692.21920564,32.11046999999999 685.32320564,31.235319999999994 678.42840564,30.365729999999992 671.5363056399999,29.501929999999994 664.64900564,28.644289999999998 657.76860564,27.793649999999992 650.89650564,26.951109999999993 644.03350564,26.117639999999994 637.1792056400001,25.294089999999997 630.33270564,24.481209999999997 623.49230564,23.67949999999999 616.65640564,22.889019999999995 609.82350564,22.109869999999994 602.99260564,21.342179999999992 596.16280564,20.586099999999995 589.33360564,19.841829999999995 582.5048056400001,19.109509999999993 575.6766056399999,18.3893 568.84950564,17.68139 562.02470564,16.98599999999999 555.20350564,16.303399999999996 548.38770564,15.634049999999995 541.57890564,14.97885999999999 534.77800564,14.33874999999999 527.98530564,13.714559999999992 521.20060564,13.107079999999996 514.42310564,12.517020000000002 507.65160563999996,11.9448 500.88470564,11.390609999999981 494.12120564,10.854619999999983 487.35960564,10.337019999999995 480.59840564,9.838009999999997 473.83620564,9.357730000000004 467.07180564000004,8.896089999999987 460.30520564,8.452969999999993 453.53720564,8.028299999999987 446.76970564000004,7.622069999999994 440.00550564,7.234319999999997 433.24800564000003,6.865519999999989 426.49990564,6.516769999999994 419.76210564,6.18907999999999 413.03410564,5.883399999999995 406.31380564,5.600589999999997 399.59780564,5.341359999999995 392.88220564,5.105559999999983 386.16460564,4.892729999999986 379.44390563999997,4.702529999999982 372.72040563999997,4.53461999999999 365.99580564,4.3887399999999985 359.27310564,4.2650099999999895 352.55490564,4.164059999999992 345.84340564,4.086519999999993 339.13970564000005,4.0329599999999886 332.44450564,4.003939999999986 325.75790564000005,4.0 319.07940564,4.021640000000005 312.40840564,4.0693999999999875 305.74370564,4.1437799999999925 299.08400564,4.245339999999999 292.42780564,4.374570000000006 285.77370564,4.531499999999994 279.12130564,4.716029999999989 272.47110564,4.928029999999993 265.82430564,5.1673100000000005 259.18340564,5.4337799999999845 252.55090564,5.727930000000001 245.92950564,6.050479999999993 239.32130564,6.402089999999987 232.72810564,6.783409999999989 226.15160564,7.19516999999999 219.59270564000002,7.638349999999988 213.05170564,8.114049999999992 206.52820564,8.623409999999993 200.02100564000003,9.167609999999996 193.52850564,9.747559999999993 187.05040564,10.363669999999999 180.58790564,11.016139999999993 174.14380564,11.704969999999989 167.72270564000002,12.430109999999999 161.32980564000002,13.192389999999989 154.97030564000002,13.992819999999995 148.64930564,14.832249999999995 142.37120564000003,15.71148999999999 136.14110564,16.631789999999995 129.96480564,17.59445999999999 123.84910563999999,18.60033999999999 117.80150563999999,19.649919999999995 111.83090564,20.744299999999996 105.94840563999999,21.884429999999995 100.16664564,23.070139999999995 94.49888564,24.300469999999997 88.95904563999999,25.575239999999994 83.55987563999999,26.893969999999996 78.31209564,28.255309999999987 73.22511564,29.656899999999993 68.31353564,31.093709999999994 63.59799564,32.55702999999999 59.09975564,34.03571999999999 54.83758564,35.52181999999999 50.82388564,37.01246999999999 47.06135564,38.50449999999999 43.54492564,39.994659999999996 40.26615564,41.479859999999995 37.21568564,42.95673999999999 34.38208564,44.42184999999999 31.75225564,45.87205999999999 29.312655640000003,47.304019999999994 27.05152564,48.71288 24.95826564,50.093689999999995 23.022305640000003,51.44225999999999 21.232785640000003,52.75551999999999 19.580765640000003,54.03349 18.05910564,55.279109999999996 16.65965564,56.49513999999999 15.373745640000001,57.68402999999999 14.192715640000001,58.84792999999999 13.10830364,59.988569999999996 12.11343064,61.105929999999994 11.201652639999999,62.19967 10.366808639999999,63.26997999999999 9.60316164,64.31737999999999 8.905444639999999,65.34262999999999 8.26886364,66.34657999999999 7.68879564,67.33028999999999 7.16049164,68.29492599999999 6.67985264,69.241063 6.24332164,70.16881099999999 5.8476956399999995,71.078024 5.49001564,71.968436 5.16750564,72.839767 4.87778984,73.69171 4.62288794,74.52310899999999 4.40738214,75.333396 4.23463274,76.123573 4.10734924,76.89564499999999 4.0281466,77.65223519999999 4.0,78.39641449999999 4.02667837,79.13166 4.11305044,79.861915 4.26106844,80.59088399999999 4.46955584,81.321147 4.73845944,82.05445399999999 5.06876364,82.79167899999999 5.46218164,83.532584 5.92072264,84.27535599999999 6.44596664,85.015874 7.03886464,85.74895699999999 7.70152064,86.47395499999999 8.435785639999999,87.19179799999999 9.24263964,87.904232 10.121960640000001,88.61411999999999 11.072294639999999,89.32579999999999 12.09065464,90.04561 13.17336364,90.78165 14.32351564,91.53752999999999 15.54848564,92.314 16.856775640000002,93.11174 18.258195640000004,93.93127999999999 19.76413564,94.77299 21.38794564,95.63704 23.14483564,96.5239 25.05063564,97.43583 27.12238564,98.37581999999999 29.378055640000003,99.34752999999999 31.83535564,100.35540999999999 34.51025564,101.40468999999999 37.418325640000006,102.49658 40.57361564,103.62704 43.98561564,104.78979 47.66103564,105.97751 51.60846564,107.18408 55.835045640000004,108.40459 60.33906564,109.63333999999999 65.10799564000001,110.86419 70.11979564,112.08982999999999 75.34648564,113.29966999999999 80.75682563999999,114.48402999999999 86.32280563999998,115.63611999999999 92.02423564,116.75164 97.84462563999999,117.82724999999999 103.76976563999999,118.86099999999999 109.78930564,119.85244 115.89600564,120.80250999999998 122.08100564,121.71267 128.33270563999997,122.58456 134.63690564,123.41967 140.97940564,124.21709999999999 147.35040564000002,124.97546 153.74510564000002,125.69413 160.16420564,126.37332 166.61180564000003,127.01468 173.09090564000002,127.62052 179.60240564,128.19290999999998 186.14450564,128.7338 192.71370564,129.24462 199.30550564,129.72607 205.91600564,130.1789 212.54130564,130.60395 219.17790564,131.00209999999998 225.82310564000002,131.37366 232.47530564000002,131.71865 239.13430564,132.03717 245.80140564,132.32938 252.47920564,132.59563 259.17040564,132.83693 265.87640564,133.05451 272.59670564,133.24951 279.32940564,133.42307 286.07090564,133.57614 292.81730564,133.70877 299.56570564000003,133.82077999999998 306.31470564,133.91206 313.06420564,133.98248 319.81540564,134.03200999999999 326.57040564000005,134.06099 333.33050564,134.06988 340.09660564,134.05919 346.86910564000004,134.02938 353.64760564,133.98093 360.43130564,133.9142 367.21910564,133.82943 374.00980563999997,133.72686 380.80220564,133.60678 387.59470564,133.46944 394.38590564,133.31504 401.17460564000004,133.14335 407.95980564,132.95404 414.74120564000003,132.74680999999998 421.51900564000005,132.52131 428.29380563999996,132.2772 435.06670564,132.01434999999998 441.83860564,131.73284999999998 448.61070564,131.43276 455.38380564,131.11418 462.15890564,130.77715 468.93670564,130.42176 475.71770564,130.04825 482.50180564000004,129.65689 489.28820564,129.24802 496.07550563999996,128.82205 502.86140564,128.37941 509.64340563999997,127.92031 516.4194056399999,127.44439 523.1887056400001,126.95114999999998 529.9519056400001,126.43999 536.71100564,125.91019999999999 543.4691056400001,125.36102 550.23040564,124.79243 556.99860564,124.20509999999999 563.77650564,123.59977 570.56650564,122.97720999999999 577.37000564,122.33827 584.1875056399999,121.6839 591.01930564,121.01518999999999 597.86480564,120.33335 604.72320564,119.63963 611.5932056400001,118.93536 618.47310564,118.22193999999999 625.36060564,117.50048 632.25390564,116.77154999999999 639.15180564,116.03557999999998 646.05400564,115.29292999999998 652.9609056400001,114.54389 659.87360564,113.78869 666.79350564,113.02781999999999 673.7215056399999,112.26191 680.65780564,111.49172999999999 687.60200564,110.71807 694.5529056400001,109.94184999999999 701.50880564,109.16375 708.4678056399999,108.38409999999999 715.42840564,107.60316 722.38900564,106.82119999999999 729.34830564,106.03845999999999 736.30540564,105.25525999999999 743.25950564,104.47234999999999 750.2101056399999,103.69046999999999 757.15690564,102.91033999999999 764.10010564,102.13266999999999 771.03980564,101.35803999999999 777.97640564,100.58673999999999 784.9101056400001,99.81898 791.84100564,99.05498 798.76910564,98.29498 805.69450564,97.53925 812.6169056399999,96.78810999999999 819.53580564,96.04193 826.45070564,95.30108 833.3607056400001,94.56595999999999 840.26510564,93.83709999999999 847.16340564,93.11515999999999 854.05600564,92.40068 860.94400564,91.69417999999999 867.8290056400001,90.99595 874.71250564,90.30587999999999 881.59520564,89.62380999999999 888.47660564,88.94968999999999 895.35560564,88.28359999999999 902.23040564,87.62587699999999 909.09840564,86.976975 915.95680564,86.337375 922.80170564,85.70718699999999 929.62830564,85.08585699999999 936.4301056400001,84.47287499999999 943.19810564,83.867809 949.90760564,83.27097099999999 956.5068056399999,82.684936 962.92710564,82.110271 969.1171056400001,81.53460199999999 975.06170564,80.943934 980.76240564,80.338033 986.20130564,79.732591 991.33990564,79.145691 996.10510564,78.60038619999999 1000.44360564,78.1550539 1003.93310564,77.93569" stroke="black" stroke-width="2.0" /></svg>