<?xml version="1.0" encoding="utf-8" ?>
<svg baseProfile="full" height="131.00243" version="1.1" width="1011.98797144" xmlns="http://www.w3.org/2000/svg" xmlns:ev="http://www.w3.org/2001/xml-events" xmlns:xlink="http://www.w3.org/1999/xlink"><defs /><polygon fill="none" points="1003.98797144,79.13699 1000.6280714400001,78.8176134 996.3582714400001,78.35365469999999 991.63537144,77.83646399999999 986.51047144,77.272643 981.04587144,76.649633 975.29417144,75.968368 969.3113714400001,75.234889 963.15037144,74.457166 956.86227144,73.644787 950.49077144,72.805823 944.0683714400001,71.943681 937.6136714400001,71.05964999999999 931.13127144,70.154046 924.62067144,69.228539 918.08447144,68.2855 911.52787144,67.32768 904.9577714400001,66.357 898.37937144,65.37473 891.79567144,64.3818 885.2074714400001,63.37884 878.61437144,62.36627 872.01627144,61.34448999999999 865.41267144,60.31391 858.80367144,59.27498 852.1888714400001,58.22825 845.5684714399999,57.17433 838.94237144,56.11385 832.31087144,55.04747 825.67427144,53.97574999999999 819.03277144,52.89923999999999 812.38697144,51.818439999999995 805.73707144,50.733889999999995 799.08367144,49.646159999999995 792.42727144,48.555989999999994 785.76807144,47.46416 779.1062714400001,46.371449999999996 772.44217144,45.27865 765.77567144,44.1864 759.10717144,43.095009999999995 752.4377714400001,42.00469 745.76947144,40.91582 739.10487144,39.828869999999995 732.44757144,38.74453999999999 725.80067144,37.66421 719.16577144,36.58935999999999 712.54277144,35.52119999999999 705.92997144,34.460609999999996 699.3238714400001,33.408229999999996 692.72037144,32.364020000000004 686.11677144,31.327620000000003 679.51327144,30.299049999999994 672.91217144,29.278689999999997 666.3182714400001,28.26729999999999 659.73857144,27.26645 653.17937144,26.2795 646.64487144,25.309769999999993 640.13637144,24.36011 633.65327144,23.432959999999994 627.19257144,22.530389999999997 620.74977144,21.653349999999996 614.32017144,20.801919999999996 607.89837144,19.976149999999997 601.4791714400001,19.176139999999997 595.0566714400001,18.40202 588.62477144,17.653739999999992 582.1782714400001,16.929809999999996 575.71367144,16.22827999999999 569.22987144,15.547459999999994 562.7281714400001,14.88588999999999 556.2121714400001,14.242299999999986 549.68737144,13.616100000000003 543.15967144,13.008110000000002 536.6331714400001,12.419219999999996 530.11027144,11.850129999999993 523.59197144,11.301369999999991 517.07747144,10.773329999999987 510.56487144000005,10.26603 504.05197144,9.779219999999995 497.53707144000003,9.31268 491.01877144,8.866230000000002 484.49587144000003,8.43974 477.96777144000004,8.033069999999995 471.43377144000004,7.645969999999991 464.89437144000004,7.278130000000004 458.35017144,6.929249999999996 451.80267144000004,6.599080000000001 445.25387144,6.2873599999999925 438.70647144000003,5.994019999999992 432.16257144,5.719589999999997 425.62347144,5.464629999999985 419.08927144,5.229669999999999 412.55917144000006,5.01518999999999 406.03117144000004,4.821650000000005 399.50267144000003,4.649109999999993 392.97187144000003,4.4972800000000035 386.43777144,4.365849999999995 379.90087144,4.254580000000004 373.36257144,4.1632199999999955 366.82527144,4.091619999999992 360.29177144000005,4.0401899999999955 353.76357144,4.009469999999993 347.24157144000003,4.0 340.72537144000006,4.01230000000001 334.21347144000003,4.046880000000002 327.70387144,4.103989999999996 321.19537144,4.183639999999997 314.68727144,4.285809999999998 308.18017144000004,4.4104600000000005 301.67557144,4.55753 295.17557144,4.727119999999999 288.68227144,4.919740000000004 282.19687144,5.135940000000005 275.71967144000007,5.376319999999993 269.24997144,5.641480000000001 262.78637144,5.931989999999985 256.32767144,6.24821 249.87407144,6.59035999999999 243.42647144,6.958609999999993 236.98727144,7.353030000000004 230.55987144,7.773830000000004 224.14737144,8.221909999999994 217.75157144,8.698309999999992 211.37287144,9.204149999999998 205.01057143999998,9.740639999999999 198.66297143999998,10.308939999999993 192.32957144,10.909890000000004 186.01227144,11.544079999999994 179.71467144000002,12.211849999999998 173.44267144,12.913359999999997 167.20227144,13.649829999999994 160.99747144,14.423189999999991 154.82887144,15.235629999999993 148.69487144,16.089579999999998 142.59257144,16.98715 136.52227144,17.92929 130.48947144,18.916069999999998 124.50417144,19.946550000000002 118.58007144,21.020689999999995 112.73037144,22.141080000000002 106.96567144,23.310359999999996 101.29307144,24.530949999999997 95.71780143999999,25.805429999999994 90.24237143999999,27.136899999999997 84.86636143999999,28.528669999999998 79.58716143999999,29.984099999999998 74.40562143999999,31.50318 69.33620143999998,33.079899999999995 64.40543144,34.702999999999996 59.64650144,36.35935 55.09000144,38.04134 50.75469144,39.742889999999996 46.64851144,41.458459999999995 42.776231440000004,43.181079999999994 39.14775144000001,44.89882 35.77210144,46.597139999999996 32.65234144,48.262649999999994 29.785771439999998,49.88732 27.16201144,51.466539999999995 24.76481144,52.99793 22.57551144,54.481359999999995 20.580281439999997,55.91952 18.76853144,57.313579999999995 17.128751440000002,58.66316 15.64802144,59.96782 14.31282144,61.22753 13.109844440000002,62.44352 12.024468440000001,63.619899999999994 11.04269944,64.76212 10.15226244,65.8758 9.34279944,66.96633 8.60514244,68.0381 7.93183344,69.09170999999999 7.31839044,70.123908 6.76170444,71.12938 6.2588674399999995,72.10238 5.80658244,73.03793399999999 5.40138044,73.93256199999999 5.04486844,74.78537299999999 4.74027504,75.599729 4.48810754,76.381484 4.2879197399999995,77.137226 4.13938374,77.873594 4.04289393,78.5971483 4.0,79.31454219999999 4.01342669,80.0324973 4.08390498,80.754573 4.21210364,81.481684 4.40057294,82.21360299999999 4.65362734,82.948689 4.9772649399999995,83.683325 5.37897944,84.411012 5.86666844,85.122601 6.44450844,85.815549 7.11434144,86.491562 7.87670544,87.153413 8.73018044,87.80533299999999 9.67046944,88.453572 10.68914144,89.107144 11.77912444,89.77479 12.94678344,90.45832999999999 14.20181144,91.15848 15.55551144,91.87609 17.02124144,92.61231 18.615211440000003,93.36887999999999 20.357121439999997,94.14833999999999 22.26788144,94.95304999999999 24.370601439999998,95.78553 26.69040144,96.64871 29.25240144,97.54578 32.079511440000005,98.4799 35.19413144,99.44991 38.61339144,100.45069 42.34497144,101.47537 46.38988144,102.51748 50.746171440000005,103.56934 55.39997144,104.62035 60.32506144,105.66006999999999 65.49126144,106.68018 70.86858143999999,107.67312 76.42388144,108.63284999999999 82.12561143999999,109.55624 87.94866144,110.44149999999999 93.87180144,111.28658999999999 99.87680144,112.09088 105.95007144,112.85508999999999 112.08247143999999,113.58019999999999 118.26657143999999,114.26731 124.49587144,114.91794999999999 130.76517144000002,115.53396000000001 137.07037143999997,116.11685 143.40767144,116.66801 149.77307144,117.18897 156.16267144,117.68134 162.57287144,118.14617 169.00097144,118.58420000000001 175.44477143999998,118.99623 181.90307144,119.38316 188.37527144,119.74595 194.86127144,120.08547 201.36027144,120.40261999999998 207.87167144,120.69826 214.39407144,120.97328999999999 220.92617144,121.22837999999999 227.46687144,121.46404 234.01527144,121.68075999999999 240.57087144000002,121.87907 247.13317144,122.05949999999999 253.70237144,122.22258 260.27827144,122.36881 266.86067144000003,122.49869000000001 273.44937144000005,122.61270999999999 280.04377144000006,122.71137999999999 286.64357144,122.79513 293.24807144000005,122.86428000000001 299.85687144,122.91916 306.46957144000004,122.9601 313.08577144000003,122.98742 319.70517144,123.00145 326.32757144000004,123.00243 332.95277144000005,122.99058 339.58057144,122.96612999999999 346.21117144000004,122.92931 352.84437144000003,122.88034999999999 359.48037144,122.81945999999999 366.11917144,122.74685 372.76037144000003,122.66274 379.40357144000006,122.56735 386.04807144000006,122.46088 392.69297144000006,122.34355 399.33747144000006,122.21536 405.98087144,122.07623 412.62317144,121.92611 419.26457144,121.76489000000001 425.90567144000005,121.5925 432.54717144,121.40888 439.18987144,121.21413 445.83387144000005,121.00837999999999 452.47877144000006,120.79178999999999 459.12327144000005,120.56452999999999 465.76597144000004,120.32681 472.40457144000004,120.07853 479.03717144,119.81907999999999 485.66217144,119.54782 492.27877144000007,119.26409 498.88647144000004,118.96721 505.4852714400001,118.65652 512.07557144,118.33143 518.65817144,117.99145999999999 525.23447144,117.63613000000001 531.80607144,117.26489 538.37477144,116.87718 544.94317144,116.47244 551.51357144,116.05067 558.08827144,115.61239 564.66857144,115.15814 571.25527144,114.68849 577.8485714400001,114.20408 584.4478714400001,113.70557 591.05217144,113.19351 597.6608714399999,112.66835 604.27337144,112.13053 610.8893714400001,111.58049 617.50897144,111.01863999999999 624.1321714400001,110.44539 630.75937144,109.86117 637.3912714400001,109.26643 644.0281714399999,108.66162 650.6707714400001,108.04718 657.31967144,107.42353 663.9756714399999,106.7912 670.63947144,106.15097 677.3115714400001,105.50362 683.9923714399999,104.84998 690.68207144,104.19091 697.38067144,103.52726 704.0878714400001,102.85976 710.80277144,102.18907999999999 717.5237714400001,101.51596 724.24847144,100.84125 730.97387144,100.16582 737.69627144,99.49074 744.41277144,98.81721999999999 751.12137144,98.14639 757.82137144,97.47924 764.51327144,96.81665 771.19857144,96.15929 777.87917144,95.50742 784.55627144,94.86117999999999 791.23067144,94.22082 797.90237144,93.5866 804.5709714400001,92.9589 811.23567144,92.3382 817.89577144,91.72505 824.55087144,91.11997 831.20087144,90.52345 837.84567144,89.93594999999999 844.48557144,89.358 851.12057144,88.79010099999999 857.7507714400001,88.232779 864.3763714400001,87.686544 870.9975714400001,87.151811 877.61487144,86.62884199999999 884.22927144,86.117856 890.84217144,85.619042 897.45537144,85.13247199999999 904.06907144,84.65805999999999 910.6810714400001,84.19585599999999 917.28617144,83.746085 923.87787144,83.309595 930.45207144,82.88790399999999 937.00947144,82.482274 943.55457144,82.093114 950.08557144,81.71776799999999 956.58217144,81.353415 963.0061714400001,80.998117 969.3014714400001,80.65032 975.3997714400001,80.309553 981.22947144,79.98219929999999 986.71527144,79.6827471 991.79607144,79.4260053 996.43767144,79.23206015 1000.64247144,79.12492642 1003.98797144,79.13699" stroke="black" stroke-width="2.0" /></svg>