<?xml version="1.0" encoding="utf-8" ?>
<svg baseProfile="full" height="132.25324" version="1.1" width="1012.04540317" xmlns="http://www.w3.org/2000/svg" xmlns:ev="http://www.w3.org/2001/xml-events" xmlns:xlink="http://www.w3.org/1999/xlink"><defs /><polygon fill="none" points="1004.04540317,84.29393999999999 1000.81990317,84.02402609999999 996.81530317,83.58154329999999 992.44610317,83.02688099999999 987.7006031699999,82.37547599999999 982.58520317,81.63523599999999 977.11550317,80.81381999999999 971.33090317,79.92230599999999 965.2947031699999,78.97429399999999 959.07610317,77.978282 952.72530317,76.93983899999999 946.26920317,75.862871 939.72970317,74.75214799999999 933.1291031699999,73.61278999999999 926.4872031699999,72.44869999999999 919.81800317,71.26221999999999 913.12790317,70.05443 906.41620317,68.82583 899.68090317,67.57757 892.9215031699999,66.31121999999999 886.13900317,65.02865 879.33610317,63.73177999999999 872.51550317,62.422419999999995 865.68060317,61.102459999999994 858.83450317,59.77380999999999 851.9804031699999,58.43773999999999 845.1209031699999,57.09497999999999 838.25740317,55.74611999999999 831.39040317,54.391549999999995 824.51970317,53.03227 817.64540317,51.67013999999999 810.76880317,50.30725999999999 803.8922031699999,48.94594999999999 797.0190031699999,47.58855 790.15320317,46.236869999999996 783.29860317,44.89258999999999 776.4591031699999,43.557339999999996 769.63850317,42.23271 762.84020317,40.92089999999999 756.0674031699999,39.62489999999999 749.32300317,38.347629999999995 742.6099031699999,37.09190999999999 735.9307031699999,35.86040999999999 729.28690317,34.65580999999999 722.67740317,33.48042999999999 716.09750317,32.335919999999994 709.53960317,31.223409999999994 702.99270317,30.143539999999987 696.4446031699999,29.095059999999997 689.8848031699999,28.074979999999996 683.30640317,27.080859999999994 676.7058031700001,26.11083999999999 670.0829031699999,25.16357999999999 663.44070317,24.238439999999997 656.78330317,23.33545999999999 650.11420317,22.45463999999999 643.43620317,21.595869999999998 636.75130317,20.758869999999995 630.06090317,19.94332 623.3657031700001,19.149119999999982 616.66600317,18.376229999999993 609.96170317,17.624579999999995 603.25200317,16.894049999999993 596.53620317,16.184479999999994 589.81290317,15.495529999999988 583.0814031699999,14.826699999999988 576.34180317,14.177559999999986 569.5949031700001,13.547759999999982 562.84210317,12.936999999999998 556.08580317,12.345119999999994 549.3282031699999,11.772469999999984 542.57090317,11.219430000000003 535.81500317,10.686319999999995 529.06080317,10.17340999999999 522.3079031699999,9.680880000000002 515.55550317,9.20877999999999 508.80270317,8.75699999999999 502.04860317,8.32544 495.29220317,7.914019999999994 488.53300317000003,7.522679999999994 481.77010316999997,7.151329999999987 475.00330317,6.799849999999992 468.23290317,6.468099999999993 461.46030317,6.155999999999992 454.68750316999996,5.863459999999989 447.91730316999997,5.590459999999979 441.15280316999997,5.337379999999996 434.39610316999995,5.104979999999983 427.64770317,4.89394999999999 420.90690316999996,4.7049399999999935 414.17170317,4.53855999999999 407.43860316999996,4.395200000000003 400.70450316999995,4.274539999999988 393.96720316999995,4.17619999999998 387.22580316999995,4.0998500000000035 380.48050317,4.045169999999999 373.73280317,4.011859999999984 366.98470317,4.0 360.23840316999997,4.009849999999986 353.49590316999996,4.0416099999999915 346.75910317,4.095489999999984 340.02980317,4.171659999999989 333.30940317,4.270509999999987 326.59860317,4.392609999999991 319.89730317,4.538600000000002 313.20440317,4.709099999999992 306.51790316999995,4.9047999999999945 299.83520317,5.126119999999986 293.15460317,5.37303 286.47550317,5.645419999999987 279.79910316999997,5.94310999999999 273.12780317,6.26585 266.46520317,6.613649999999993 259.81500316999995,6.987189999999998 253.17980316999999,7.387199999999993 246.56130317,7.814409999999995 239.96040317,8.269599999999997 233.37730317,8.753559999999993 226.81200317,9.267089999999982 220.26470317,9.810969999999998 213.73560317,10.385969999999986 207.22470317,10.992879999999985 200.73290317,11.63248999999999 194.26270316999998,12.305479999999989 187.81790317,13.012289999999993 181.40420317,13.75306999999998 175.02820316999998,14.528249999999986 168.69500317,15.33932999999999 162.40690316999996,16.18817999999999 156.16320316999997,17.07688999999999 149.96110317,18.007719999999992 143.79910317,18.981809999999996 137.68150316999998,19.999139999999997 131.61780317,21.058519999999994 125.62250316999999,22.158039999999993 119.71150317,23.298329999999993 113.89760317,24.481289999999987 108.18960317000001,25.708679999999994 102.59279317,26.982209999999995 97.11031317,28.303709999999988 91.74325316999999,29.675029999999992 86.49079316999999,31.098009999999988 81.35141317,32.573719999999994 76.33032317,34.09865999999999 71.44462317,35.66437 66.71910317,37.25851999999999 62.18119317,38.86917999999999 57.85293317,40.48957999999999 53.74569317,42.11423999999999 49.86184317,43.73855999999999 46.199723170000006,45.35768999999999 42.75958317,46.96435999999999 39.54129317,48.55012999999999 36.54167317,50.10698999999999 33.755033170000004,51.62937999999999 31.17368317,53.114279999999994 28.78695317,54.559549999999994 26.58199317,55.96406999999999 24.54523317,57.32793999999999 22.66607317,58.65379999999999 20.935113169999997,59.94434999999999 19.34254317,61.20146 17.878283170000003,62.42663999999999 16.53234317,63.621219999999994 15.29542317,64.78608 14.15850317,65.92245 13.11249717,67.03245999999999 12.148917169999999,68.11863 11.26011117,69.18356999999999 10.43933217,70.22985 9.68051517,71.25948 8.97845517,72.27248999999999 8.32946817,73.26726 7.730759170000001,74.24126999999999 7.17987717,75.191679 6.674404170000001,76.11576699999999 6.21180517,77.01123399999999 5.790460169999999,77.87674999999999 5.41254917,78.71378999999999 5.07949017,79.525859 4.79141907,80.317269 4.54796477,81.09261099999999 4.34872687,81.856522 4.19357517,82.613637 4.08285701,83.36864729999999 4.01762269,84.12536709999999 4.0,84.8822857 4.03312488,85.63604199999999 4.12112484,86.38301399999999 4.26924267,87.119143 4.48403697,87.839732 4.77367737,88.539199 5.14637517,89.21241699999999 5.60247717,89.86128 6.13986017,90.489835 6.756189170000001,91.10209099999999 7.44822517,91.70218399999999 8.21079617,92.294512 9.03525517,92.883838 9.91121317,93.47431999999999 10.83906917,94.066414 11.82266017,94.65974999999999 12.86611817,95.25421999999999 13.97405017,95.85020999999999 15.15188317,96.44886 16.40648317,97.0525 17.74698317,97.66474 19.18383317,98.28797999999999 20.72862317,98.92383 22.39451317,99.57417 24.196253170000002,100.24114999999999 26.14984317,100.92727 28.272113169999997,101.63539999999999 30.58153317,102.36738 33.098213169999994,103.1232 35.84039317,103.90182999999999 38.82350317,104.70164999999999 42.06279317,105.52184999999999 45.57708317,106.36177999999998 49.38340317,107.21825999999999 53.490993169999996,108.08659999999999 57.89940317,108.96135 62.59988317,109.83644 67.57511317000001,110.70383999999999 72.79800317,111.55566999999999 78.23808317,112.38602999999999 83.86884316999999,113.19058 89.66502317,113.96502 95.60179317000001,114.70643999999999 101.65843317000001,115.41372999999999 107.81930317,116.08657 114.06950317,116.72502 120.39470317,117.32979999999999 126.78100317,117.90211 133.21670317,118.44226 139.69340316999998,118.95034999999999 146.20610316999998,119.42702 152.75410316999998,119.87331999999999 159.33870316999997,120.29095 165.95960316999998,120.68180999999998 172.61390317,121.04772 179.29560317,121.39045999999999 185.99670317,121.71096 192.71090317,122.00912 199.43460317,122.28496999999999 206.16810316999997,122.53868 212.91440316999999,122.77067 219.67800316999998,122.98210999999999 226.46130316999998,123.17442 233.26450316999998,123.34894 240.08480317,123.50701 246.91710317,123.64965999999998 253.75610317,123.77695 260.59820317000003,123.88875999999999 267.44210317,123.98505 274.28860317,124.06578999999999 281.14030317,124.13112999999998 288.00060317,124.18175 294.87130317000003,124.21846 301.75330317000004,124.24203 308.64620317,124.25324 315.54810317,124.25282999999999 322.45680317,124.24112 329.36990317,124.21824999999998 336.28570317,124.18441999999999 343.20280317,124.13978999999999 350.12010317,124.08455999999998 357.03690317,124.01881 363.95330316999997,123.94251 370.86960316999995,123.85564 377.78700317,123.75815 384.70710317,123.64998 391.63220316999997,123.53116999999999 398.56410317,123.40217999999999 405.50380316999997,123.26357999999999 412.45080317,123.11595 419.40380317,122.95992999999999 426.36010316999995,122.79615999999999 433.31610317,122.62485 440.26920316999997,122.44573 447.21790317,122.25844999999998 454.16160317000003,122.06266 461.10130317,121.85797 468.03880317,121.64401999999998 474.97660317,121.42083 481.91630317,121.18862999999999 488.85900317,120.94765999999998 495.80460317,120.69817 502.75270317,120.44046 509.70180317,120.17470999999999 516.6502031699999,119.90078 523.59610317,119.61849 530.53750317,119.32768999999999 537.47260317,119.02823 544.39930317,118.71993999999998 551.31600317,118.40243999999998 558.22160317,118.07505 565.11660317,117.73704 572.00220317,117.38761 578.88100317,117.02592999999999 585.75660317,116.65115999999999 592.6326031699999,116.26319 599.51140317,115.86224999999999 606.39370317,115.44864 613.27870317,115.02277 620.16410317,114.58514 627.0461031699999,114.13607999999999 633.92180317,113.6753 640.78980317,113.20233999999999 647.65040317,112.71661999999999 654.50580317,112.21744 661.35990317,111.70403999999999 668.21730317,111.17634999999999 675.08180317,110.63481999999999 681.9555031699999,110.08000999999999 688.83900317,109.51261 695.73180317,108.93339999999999 702.6316031700001,108.34317999999999 709.5369031700001,107.74246 716.44690317,107.13166999999999 723.36230317,106.51111999999999 730.2848031699999,105.88101999999999 737.21700317,105.24161 744.1617031699999,104.59366999999999 751.1198031700001,103.93817999999999 758.09090317,103.27631 765.07260317,102.60941999999999 772.0611031699999,101.93906999999999 779.05210317,101.26704999999998 786.04180317,100.59515999999999 793.02710317,99.92514 800.00560317,99.25862 806.9755031699999,98.59706 813.93580317,97.94143999999999 820.88620317,97.29262999999999 827.82710317,96.65142999999999 834.7594031699999,96.01854999999999 841.6847031699999,95.39447999999999 848.60360317,94.77956999999999 855.51590317,94.17424999999999 862.4207031699999,93.57901799999999 869.31630317,92.994526 876.20140317,92.42161499999999 883.07600317,91.86104999999999 889.94120317,91.313492 896.79910317,90.77942099999999 903.65030317,90.25911199999999 910.49220317,89.753013 917.31900317,89.261788 924.1232031699999,88.78656899999999 930.90060317,88.328722 937.65190317,87.88925099999999 944.38090317,87.467677 951.07710317,87.060097 957.7027031700001,86.66339599999999 964.1973031699999,86.27621699999999 970.4881031699999,85.89902199999999 976.50410317,85.53344899999999 982.1837031700001,85.18807399999999 987.47350317,84.87470839999999 992.34220317,84.60653939999999 996.7810031700001,84.40020519999999 1000.81250317,84.28322573 1004.04540317,84.29393999999999" stroke="black" stroke-width="2.0" /></svg>