<?xml version="1.0" encoding="utf-8" ?>
<svg baseProfile="full" height="147.19082" version="1.1" width="1011.99990128093" xmlns="http://www.w3.org/2000/svg" xmlns:ev="http://www.w3.org/2001/xml-events" xmlns:xlink="http://www.w3.org/1999/xlink"><defs /><polygon fill="none" points="1003.99990128093,92.97398 1000.7206012809299,92.5075389 996.61900128093,91.867522 992.14540128093,91.097425 987.29240128093,90.186692 982.07470128093,89.14675799999999 976.52400128093,87.997136 970.69100128093,86.758284 964.64160128093,85.453208 958.45020128093,84.105282 952.18540128093,82.73831 945.8977012809299,81.37233 939.6174012809299,80.02181 933.35410128093,78.69642999999999 927.09950128093,77.3999 920.84000128093,76.12904999999999 914.56500128093,74.8805 908.26720128093,73.65163 901.94240128093,72.44054 895.58960128093,71.24558999999999 889.2090012809299,70.06481 882.80150128093,68.89626 876.36820128093,67.73801 869.91100128093,66.58815999999999 863.43230128093,65.44486 856.9349012809299,64.30628999999999 850.4222012809299,63.17076 843.89800128093,62.03761 837.3652012809299,60.907039999999995 830.82660128093,59.77918999999999 824.28410128093,58.6541 817.7394012809299,57.5317 811.19340128093,56.411829999999995 804.64660128093,55.29425 798.09890128093,54.17865 791.5499012809299,53.06483 784.9996012809299,51.952709999999996 778.44770128093,50.84222 771.89450128093,49.733309999999996 765.34030128093,48.62599 758.78560128093,47.52027 752.23120128093,46.416199999999996 745.67770128093,45.314 739.1261012809299,44.21407 732.57670128093,43.11682999999999 726.0301012809299,42.02264999999999 719.48630128093,40.93188 712.9455012809299,39.84485 706.40750128093,38.76184 699.87210128093,37.68311 693.3388012809299,36.60888 686.8073012809299,35.53935 680.27760128093,34.474729999999994 673.74950128093,33.41527 667.2230012809299,32.361219999999996 660.6984012809299,31.312849999999997 654.17600128093,30.270450000000004 647.6560012809299,29.23438 641.13900128093,28.20523 634.62540128093,27.183660000000003 628.11590128093,26.170360000000002 621.61110128093,25.165980000000005 615.11160128093,24.171210000000002 608.6184012809299,23.186729999999997 602.1323012809299,22.213219999999993 595.65410128093,21.251620000000003 589.18470128093,20.303269999999998 582.7248012809299,19.36954 576.27510128093,18.451769999999996 569.83640128093,17.551269999999988 563.4090012809299,16.669309999999996 556.9937012809299,15.80713 550.59080128093,14.965969999999999 544.2008012809299,14.147199999999998 537.8239012809299,13.352329999999995 531.4602012809299,12.582819999999998 525.10950128093,11.840059999999994 518.77130128093,11.125439999999998 512.44510128093,10.440259999999995 506.13000128093,9.785820000000001 499.82520128093,9.163349999999994 493.52960128092997,8.573719999999994 487.24220128093,8.017529999999994 480.96210128092997,7.495419999999996 474.68830128093,7.008020000000002 468.41960128092995,6.555999999999997 462.15510128092996,6.140019999999993 455.89350128092997,5.76079 449.63380128093,5.4189599999999984 443.37480128093,5.1145799999999895 437.11540128093,4.847380000000001 430.8545012809299,4.617109999999997 424.59110128093,4.423540000000003 418.32400128092996,4.26648999999999 412.05210128092995,4.145780000000002 405.77440128092996,4.061300000000003 399.48960128093,4.0128899999999845 393.19660128093,4.0 386.89470128092995,4.021839999999997 380.58360128093,4.07762000000001 374.26320128093,4.166560000000004 367.93400128093,4.287869999999998 361.59670128092995,4.4406999999999925 355.25280128092993,4.624210000000005 348.90390128093,4.8375600000000105 342.55180128092996,5.080459999999988 336.19820128093,5.352829999999997 329.84450128092993,5.654579999999996 323.49200128092997,5.985599999999991 317.14140128093,6.345799999999997 310.79350128093,6.735060000000004 304.44880128093,7.153289999999998 298.10720128093,7.600429999999989 291.76910128093,8.0766 285.43460128092994,8.581959999999995 279.10390128093,9.11663 272.77740128092995,9.680769999999995 266.45570128093,10.274479999999997 260.13920128092997,10.89788 253.82870128093,11.55104 247.52490128092998,12.234099999999998 241.22860128092998,12.947389999999999 234.94060128093,13.691299999999998 228.66150128093,14.4662 222.39200128093,15.272449999999992 216.13270128093,16.11045 209.88400128093,16.980540000000005 203.64640128093,17.8831 197.42040128093,18.81859 191.20670128093002,19.787779999999984 185.00640128093,20.791430000000005 178.82100128093,21.830229999999986 172.65210128093,22.904780000000002 166.50190128093,24.015559999999994 160.37270128093002,25.16295000000001 154.26720128093,26.347220000000007 148.18830128093,27.56868999999999 142.13910128093,28.82844999999999 136.12220128093,30.127840000000006 130.13980128093,31.468219999999995 124.19350128093001,32.85096 118.28460128093,34.27748 112.41590128093,35.748999999999995 106.59300128093001,37.265899999999995 100.82440128093,38.82762999999999 95.12003128093,40.43406 89.48794128093,42.086189999999995 83.93313128093,43.78547 78.45884128093,45.53371 73.07535128093001,47.33101 67.80507128093,49.172509999999996 62.67910128093,51.0483 57.73105128093,52.94774999999999 52.98345128093,54.866519999999994 48.44667128092999,56.80132 44.14553128093,58.73731 40.11842128093,60.649519999999995 36.38386128093,62.5205 32.92754128093,64.34705 29.72954128093,66.13113 26.80598128093,67.85657 24.186621280929998,69.49217 21.87869128093,71.0153 19.85386128093,72.4311 18.06014128093,73.76323 16.44831128093,75.03675 14.97913128093,76.27371 13.62272528093,77.49305 12.357661280930001,78.71054 11.17823828093,79.92945999999999 10.09219228093,81.13757 9.110335280929998,82.31405 8.23839128093,83.438318 7.47382628093,84.496486 6.80744128093,85.48304399999999 6.228085280929999,86.398937 5.73037828093,87.250453 5.30756928093,88.048783 4.95198618093,88.805527 4.65724028093,89.53099999999999 4.41872538093,90.234189 4.23365968093,90.923132 4.10108858093,91.605454 4.02204211093,92.2889911 4.0,92.982618782 4.04550920093,93.6919109 4.17082088093,94.41122899999999 4.37659708093,95.138637 4.66305298093,95.872068 5.03036528093,96.608836 5.47852328093,97.345426 6.0071002809300005,98.07718299999999 6.61490428093,98.797894 7.29964128093,99.499431 8.06269728093,100.177202 8.91102128093,100.83239 9.85277328093,101.467337 10.897069280930001,102.085743 12.053719280930002,102.693422 13.33246528093,103.29948 14.74156128093,103.91763 16.294241280930002,104.55799999999999 18.01175128093,105.22449 19.91718128093,105.92191 22.03375128093,106.65695 24.382371280930002,107.43951 26.983451280929998,108.27803 29.857441280929997,109.16443 33.020291280929996,110.08026 36.498551280929995,111.00341 40.337131280929995,111.92972 44.57320128092999,112.86758 49.21012128093,113.82337 54.21282128093,114.79432 59.52286128093,115.77608 65.07579128092999,116.75264999999999 70.81352128093,117.70899 76.68737128093001,118.63656999999999 82.65945128093,119.53094999999999 88.70989128093001,120.39176 94.83233128093,121.22118999999999 101.01932128093,122.02167 107.25920128093,122.79549 113.53790128093,123.54334 119.84450128093,124.26500999999999 126.17290128093,124.96096 132.52170128093,125.63229 138.89050128093,126.2803 145.27850128093002,126.90625 151.68430128093,127.51138999999999 158.10580128093,128.09692 164.54070128093002,128.66348 170.98680128093,129.21145 177.44220128093,129.74123 183.90550128093,130.25325 190.37550128093,130.74803 196.85120128093,131.22609 203.33210128093,131.68799 209.81790128093002,132.1343 216.30870128093,132.56534 222.80420128093002,132.98132999999999 229.30430128093,133.38252 235.80840128093,133.76912 242.31600128093,134.14135 248.82640128093,134.49944 255.33880128092997,134.8436 261.85220128092993,135.17399999999998 268.36600128093,135.4907 274.88000128093,135.79376 281.39420128092996,136.08328 287.90920128092995,136.35935999999998 294.42620128093,136.62211 300.94650128092997,136.87168 307.47210128093,137.10818 314.00500128092995,137.33193 320.54640128092996,137.54336 327.09610128093,137.74288 333.65300128092997,137.93083000000001 340.21450128092994,138.10759 346.77690128092996,138.27347 353.33540128093,138.42881 359.88390128092993,138.5737 366.41680128093,138.70694 372.93100128093,138.82695999999999 379.4256012809299,138.93228 385.90220128092994,139.02151 392.36480128093,139.09326 398.81930128092995,139.14615 405.27410128093,139.17874 411.73930128092996,139.19082 418.22390128092997,139.18502999999998 424.73420128093,139.16438 431.27300128093,139.13192 437.83990128093,139.09078 444.43110128093,139.0442 451.03880128093,138.99553 457.65160128093,138.94804 464.25580128093,138.90139 470.84010128092996,138.85215 477.39720128093,138.79682 483.92330128093,138.73197 490.41790128093,138.65426 496.88400128092997,138.56040000000002 503.32750128092994,138.44708 509.75710128093,138.31146 516.1822012809299,138.15338 522.61000128093,137.97357 529.0460012809299,137.77273 535.49320128093,137.55158 541.95270128093,137.31088 548.42320128093,137.0515 554.90120128093,136.77442 561.38110128093,136.48029 567.8571012809299,136.16854999999998 574.32480128093,135.83846 580.78100128093,135.48923 587.2239012809299,135.12006 593.65330128093,134.73008 600.07000128093,134.31835999999998 606.4762012809299,133.88388 612.8751012809299,133.42607 619.27000128093,132.94502 625.66350128093,132.44085 632.05810128093,131.9137 638.45560128093,131.36368 644.85750128093,130.79095999999998 651.26500128093,130.19567 657.6786012809299,129.57804 664.09870128093,128.93853 670.5254012809299,128.27784 676.95860128093,127.5967 683.39810128093,126.89587 689.84340128093,126.17616 696.2937012809299,125.4384 702.74810128093,124.68345 709.20550128093,123.91221 715.66470128093,123.12534 722.12540128093,122.32337 728.5874012809301,121.50675 735.0514012809299,120.67587 741.51870128093,119.83102 747.9910012809299,118.97241 754.47090128093,118.10016 760.96140128093,117.21446 767.46510128093,116.31615 773.98360128093,115.40632 780.5170012809299,114.48629 787.06400128093,113.5576 793.62200128093,112.62201 800.1867012809299,111.68152 806.75250128093,110.73837999999999 813.31290128093,109.7954 819.86210128093,108.85585 826.3956012809299,107.92278 832.9104012809299,106.999 839.40480128093,106.08709 845.8782012809299,105.18939 852.33150128093,104.30802 858.7664012809299,103.44485999999999 865.18540128093,102.601312 871.59010128093,101.778609 877.9816012809299,100.978064 884.3605012809301,100.201048 890.72670128093,99.448985 897.07960128093,98.72333499999999 903.4181012809299,98.025583 909.74040128093,97.357349 916.04400128093,96.720939 922.3249012809299,96.11889 928.57820128093,95.553709 934.7976012809299,95.02781 940.97600128093,94.543744 947.10590128093,94.104623 953.17900128093,93.7133417 959.1868012809299,93.3726867 965.11170128093,93.08695639999999 970.9200012809299,92.8606143 976.56640128093,92.6965873 982.00150128093,92.59585849999999 987.17450128093,92.55743819999999 992.03750128093,92.5832276 996.54870128093,92.6733204 1000.69160128093,92.8170809 1003.99990128093,92.97398" stroke="black" stroke-width="2.0" /></svg>