<?xml version="1.0" encoding="utf-8" ?>
<svg baseProfile="full" height="122.35856999999999" version="1.1" width="1011.8826735" xmlns="http://www.w3.org/2000/svg" xmlns:ev="http://www.w3.org/2001/xml-events" xmlns:xlink="http://www.w3.org/1999/xlink"><defs /><polygon fill="none" points="1003.8826735,70.00968999999999 1000.8132735,69.79781729999999 996.7812735,69.43657429999999 992.1813735,68.977032 987.1301735000001,68.43701499999999 981.7671735,67.81821699999999 976.1575735,67.12423799999999 970.3623735000001,66.364352 964.4426735,65.54890799999998 958.4478735,64.686848 952.4062735,63.78523199999999 946.3287735,62.84801399999999 940.2221735,61.87821399999999 934.0913735,60.87876099999999 927.9401735,59.852239999999995 921.7712735000001,58.80100999999999 915.5868735,57.727419999999995 909.3887735,56.633669999999995 903.1781735000001,55.52152999999999 896.9556735,54.392579999999995 890.7213735,53.24830999999999 884.4747735,52.09017999999999 878.2155735,50.91969999999999 871.9434735,49.73848999999999 865.6589735000001,48.54825999999999 859.3628735,47.35085999999999 853.0567735000001,46.148039999999995 846.7439735,44.941759999999995 840.4286735000001,43.73423 834.1168735,42.52795999999999 827.8154735,41.32616999999999 821.5306735,40.13283999999999 815.2678735000001,38.95179999999999 809.0312735,37.78655999999999 802.8238735,36.64036999999999 796.6475735,35.51656999999999 790.5011735,34.41832999999999 784.3811735,33.34820999999999 778.2808735000001,32.308319999999995 772.1915735,31.300239999999995 766.1031735,30.323229999999995 760.0072735,29.374799999999993 753.8973735000001,28.45282999999999 747.7689735,27.555609999999994 741.6194735,26.681769999999993 735.4482735,25.830009999999994 729.2559735,24.99884999999999 723.0439735,24.18681999999999 716.8147735,23.39253999999999 710.5717735,22.61466999999999 704.3191735,21.85217999999999 698.0610735,21.105239999999988 691.8007735,20.374379999999988 685.5399735000001,19.659909999999996 679.2792735,18.96202999999999 673.0183735,18.28078999999999 666.7556735000001,17.61598999999999 660.4896735000001,16.96725999999999 654.2196735000001,16.33426999999999 647.9451735,15.716749999999998 641.6665734999999,15.114489999999996 635.3847734999999,14.527359999999987 629.1007735000001,13.955429999999993 622.8155735,13.398849999999989 616.5298735,12.857769999999988 610.2440735,12.332289999999993 603.9580735000001,11.822499999999991 597.6718735000001,11.32842999999999 591.3850735,10.85009999999999 585.0974735000001,10.387519999999988 578.8087735,9.940699999999993 572.5190735000001,9.50965999999999 566.2283735,9.094429999999996 559.9368735,8.695049999999995 553.6445735,8.311559999999993 547.3516735,7.9439999999999955 541.0582735,7.592419999999997 534.7644735,7.25683999999999 528.4699735,6.937299999999986 522.1750735,6.633819999999993 515.8794735,6.346449999999997 509.58327349999996,6.075199999999995 503.28677350000004,5.82011 496.9899735,5.581229999999991 490.6933735,5.358599999999996 484.3971735,5.15227999999999 478.1018735,4.96244999999999 471.8075735,4.789259999999999 465.5143735,4.632869999999983 459.2223735,4.4934499999999815 452.93127350000003,4.371139999999983 446.64097350000003,4.266059999999996 440.3512735,4.178249999999991 434.0618735,4.107769999999988 427.7727735,4.054649999999981 421.48377350000004,4.018959999999993 415.1946735,4.00072999999999 408.9055735,4.0 402.6163735,4.016719999999992 396.32707350000004,4.050869999999989 390.0375735,4.102439999999987 383.7479735,4.171379999999999 377.4583735,4.2576700000000045 371.1686735,4.361309999999989 364.87917350000004,4.482299999999981 358.5899735,4.620629999999991 352.3013735,4.776299999999992 346.01367350000004,4.949299999999994 339.7272735,5.13964 333.44257350000004,5.347439999999992 327.1598735,5.572829999999996 320.87937350000004,5.81595999999999 314.6011735,6.076979999999992 308.32547350000004,6.35602999999999 302.0521735,6.653269999999992 295.7814735,6.968899999999991 289.51347350000003,7.303079999999994 283.2484735,7.6559799999999925 276.9867735,8.02776999999999 270.72887349999996,8.418619999999997 264.47537350000005,8.828839999999992 258.2264735,9.258749999999992 251.9827735,9.70868999999999 245.74437350000002,10.178989999999992 239.51167350000003,10.669989999999991 233.2848735,11.182099999999991 227.0642735,11.715749999999993 220.85027350000001,12.271359999999994 214.6433735,12.849349999999994 208.4442735,13.450109999999995 202.2537735,14.074179999999991 196.0722735,14.722199999999994 189.9007735,15.394769999999994 183.7397735,16.09248999999999 177.5897735,16.815989999999992 171.4517735,17.566059999999993 165.32647350000002,18.343509999999995 159.2152735,19.14907999999999 153.11937350000002,19.983499999999992 147.04037350000002,20.84763999999999 140.98007350000003,21.742689999999996 134.94067350000003,22.669769999999993 128.9242735,23.62991999999999 122.9331735,24.624239999999993 116.97027349999999,25.65431999999999 111.0382735,26.72166999999999 105.1403735,27.827699999999993 99.2797135,28.97390999999999 93.4615935,30.16223999999999 87.6934835,31.39403999999999 81.9849635,32.66980999999999 76.34755349999999,33.99020999999999 70.7939535,35.35645999999999 65.33674350000001,36.76896999999999 59.9890735,38.227699999999984 54.7775735,39.73101999999999 49.74911350000001,41.26933 44.9585335,42.826269999999994 40.453573500000005,44.38883999999999 36.2588535,45.94865999999999 32.3766435,47.49919999999999 28.8111535,49.03120999999999 25.595853499999997,50.518649999999994 22.753383499999998,51.931129999999996 20.2725935,53.25307999999999 18.115953499999996,54.49364999999999 16.231173499999997,55.669309999999996 14.5697335,56.794819999999994 13.092316499999999,57.88158999999999 11.770429499999999,58.93320999999999 10.5876795,59.945009999999996 9.5323805,60.91069999999999 8.5929695,61.82572799999999 7.7571985,62.688399999999994 7.0180715000000005,63.503119999999996 6.3739495,64.28133299999999 5.8193265,65.03381199999998 5.3474815,65.769476 4.9521125,66.495606 4.6278853,67.21822699999998 4.3707238,67.941811 4.1795968,68.66268699999999 4.0554162,69.37404199999999 4.0,70.0713203 4.0166862,70.75144169999999 4.111081,71.412179 4.2919052,72.051874 4.5641504,72.67394399999999 4.9271255,73.287021 5.3824045,73.89967999999999 5.9334875,74.520834 6.5841025,75.16021099999999 7.3338295,75.82809999999999 8.174532500000002,76.53217299999999 9.1109695,77.27227199999999 10.1515535,78.04377899999999 11.3015535,78.83931399999999 12.565031499999998,79.65140899999999 13.9524835,80.47794999999999 15.4900035,81.32615 17.2148035,82.20684999999999 19.176643499999997,83.13385 21.4394335,84.12418 24.0672135,85.19305 27.0961435,86.33672999999999 30.5172335,87.52905 34.2791335,88.7366 38.354383500000004,89.94310999999999 42.756133500000004,91.14482999999998 47.48385350000001,92.33617 52.5034235,93.50805 57.7517435,94.64526 63.1639135,95.73523 68.6952235,96.77435 74.32916349999999,97.76469999999999 80.0562135,98.70827 85.8642835,99.60741999999999 91.73889349999999,100.46446999999999 97.6664335,101.28025 103.6364435,102.05600999999999 109.64227349999999,102.79391 115.6809735,103.49641 121.7507735,104.16552999999999 127.8495735,104.80326 133.9740735,105.41158999999999 140.1206735,105.99224 146.2859735,106.54619 152.46727350000003,107.07448 158.6625735,107.57824 164.8705735,108.05866 171.0905735,108.51667999999998 177.32157350000003,108.95309999999999 183.56277350000002,109.36872 189.8131735,109.76437999999999 196.0713735,110.14077999999999 202.3364735,110.49839 208.6075735,110.83761999999999 214.88427350000003,111.15896 221.1661735,111.46285999999999 227.45307350000002,111.7498 233.74507350000002,112.02018999999999 240.0419735,112.27441999999999 246.3432735,112.51289 252.6486735,112.73602 258.95757349999997,112.94412999999999 265.26937350000003,113.13740999999999 271.58357350000006,113.31600999999999 277.89977350000004,113.48008999999999 284.2174735,113.62982 290.5362735,113.76534999999998 296.8560735,113.88677999999999 303.1764735,113.99414999999999 309.4976735,114.08751999999998 315.8196735,114.16694999999999 322.1427735,114.23248999999998 328.4673735,114.28421999999999 334.7938735,114.32234999999999 341.1223735,114.34706 347.4528735,114.35856999999999 353.78537350000005,114.35708 360.11937350000005,114.3428 366.4544735,114.31584999999998 372.79017350000004,114.27627999999999 379.1261735,114.22412 385.46227350000004,114.15938 391.7981735,114.08211 398.1339735,113.99231999999999 404.46967350000006,113.89007999999998 410.8054735,113.77542999999999 417.1413735,113.64841999999999 423.4777735,113.50913 429.8148735,113.35758999999999 436.1530735,113.19385 442.4926735,113.01805999999999 448.8339735,112.83043999999998 455.1773735,112.63123999999999 461.5226735,112.42069999999998 467.8701735,112.19905 474.2194735,111.96654999999998 480.5705735,111.72343999999998 486.9232735,111.46993999999998 493.27747350000004,111.20629 499.6333735,110.93270999999999 505.9910735,110.64940999999999 512.3506735000001,110.35661999999999 518.7126735,110.05454999999999 525.0770735,109.74343999999999 531.4438735,109.42354 537.8125735,109.09512999999998 544.1826735,108.75847999999999 550.5532735,108.41389999999998 556.9231735000001,108.06156999999999 563.2917735,107.70146 569.6583735,107.33345999999999 576.0230735,106.95748999999999 582.3863735,106.57338999999999 588.7489734999999,106.18100999999999 595.1120735000001,105.7802 601.4762734999999,105.37089999999999 607.8414735,104.95312999999999 614.2063735,104.52696 620.5689735000001,104.09253999999999 626.9262735000001,103.6501 633.2743735,103.19945999999999 639.6102735,102.73955 645.9322735000001,102.2691 652.2402735,101.78675999999999 658.5352735,101.2911 664.8199735,100.78057 671.0980735,100.25424999999998 677.3736735,99.71225999999999 683.6507735,99.15481 689.9330735,98.58206999999999 696.2240735,97.99418999999999 702.5273735000001,97.39137 708.8461735,96.77456 715.1826735000001,96.14554999999999 721.5377735,95.50632999999999 727.9108735,94.85904 734.2999735000001,94.20604999999999 740.7015735000001,93.54965999999999 747.1115735,92.89104999999999 753.5260734999999,92.23094999999999 759.9421735,91.57003999999999 766.3574735,90.90893 772.7700735,90.24813999999999 779.1790735,89.58828 785.5837735,88.92999999999999 791.9836735,88.27393 798.3786735,87.62066999999999 804.7688735,86.97079 811.1546735,86.32479 817.5365735,85.68307999999999 823.9147735,85.04605 830.2896735,84.41412 836.6616735,83.78769 843.0308735,83.16713999999999 849.3975735,82.55281 855.7616735,81.94506 862.1229735,81.34425999999999 868.4811735000001,80.75077999999999 874.8360735,80.16502 881.1876735,79.58736499999999 887.5366735,79.018137 893.8842735,78.457625 900.2315735,77.906004 906.5791735,77.363383 912.9261735,76.82997599999999 919.2703735,76.306096 925.6094734999999,75.792046 931.9443735,75.287838 938.2805735000001,74.79313199999999 944.6270735,74.30678699999999 950.9838735,73.82582799999999 957.3277735,73.348261 963.6134735,72.873121 969.7905735,72.39707499999999 975.8213735,71.91613799999999 981.6632735000001,71.43711699999999 987.2091735,70.9838956 992.3179735,70.5850428 996.8678735,70.26977749999999 1000.8333735,70.06739553999999 1003.8826735,70.00969000000003" stroke="black" stroke-width="2.0" /></svg>