<?xml version="1.0" encoding="utf-8" ?>
<svg baseProfile="full" height="223.92810000000003" version="1.1" width="1011.999117415" xmlns="http://www.w3.org/2000/svg" xmlns:ev="http://www.w3.org/2001/xml-events" xmlns:xlink="http://www.w3.org/1999/xlink"><defs /><polygon fill="none" points="1003.999117415,114.56920000000001 999.3095174150001,113.482769 993.771317415,112.058479 988.055217415,110.47828000000001 982.139317415,108.77338800000001 976.018717415,106.96052800000001 969.6999174150001,105.061767 963.202317415,103.10137 956.5492174149999,101.10233000000001 949.761217415,99.08871 942.8542174150001,97.08104 935.840217415,95.09275000000001 928.724917415,93.13511000000001 921.506317415,91.21722000000001 914.177117415,89.34051000000001 906.730517415,87.50102000000001 899.161017415,85.69480000000001 891.464317415,83.91798000000001 883.638317415,82.16605000000001 875.683017415,80.43375 867.6016174150001,78.7158 859.401417415,77.00699 851.0932174149999,75.30363000000001 842.689017415,73.60584000000001 834.2004174150001,71.91407000000001 825.638217415,70.22836000000001 817.012217415,68.54836 808.330917415,66.87434000000002 799.601817415,65.20735000000002 790.832117415,63.54834000000001 782.028417415,61.89806000000001 773.1963174150001,60.25710000000001 764.341017415,58.62623000000001 755.4667174150001,57.006330000000005 746.577017415,55.39814000000001 737.674917415,53.80226000000001 728.762617415,52.219120000000004 719.841817415,50.649060000000006 710.9143174149999,49.092380000000006 701.9818174149999,47.54942000000001 693.0468174150001,46.02055 684.111517415,44.50617000000001 675.1786174150001,43.00684 666.250417415,41.52354000000001 657.3287174149999,40.05723000000002 648.4146174150001,38.60877000000001 639.508817415,37.17890000000001 630.611417415,35.76826000000001 621.7221174150001,34.37732000000001 612.841117415,33.00643000000001 603.968617415,31.65601000000001 595.105617415,30.326520000000002 586.2533174150001,29.01848000000001 577.4133174149999,27.73248000000001 568.587217415,26.469510000000014 559.776517415,25.230630000000005 550.982417415,24.01688 542.206017415,22.829220000000007 533.448017415,21.668570000000017 524.709017415,20.53580000000001 515.989617415,19.43189000000001 507.29011741500005,18.357770000000002 498.611217415,17.314400000000006 489.953117415,16.302670000000006 481.316417415,15.32347 472.70161741500004,14.377700000000004 464.109117415,13.466200000000015 455.540017415,12.590000000000003 446.995117415,11.749800000000008 438.475517415,10.94680000000001 429.982717415,10.181600000000017 421.51811741499995,9.455300000000008 413.083217415,8.769000000000005 404.679417415,8.124200000000016 396.308117415,7.52170000000001 387.970717415,6.962800000000001 379.66841741499996,6.448400000000007 371.402517415,5.979700000000008 363.17451741499997,5.5578000000000145 354.986017415,5.184000000000012 346.83881741500005,4.859300000000005 338.73471741500003,4.584700000000012 330.675817415,4.3611000000000075 322.664017415,4.189700000000002 314.701717415,4.071700000000007 306.791017415,4.008200000000002 298.934117415,4.0 291.133217415,4.0482000000000085 283.390417415,4.153300000000016 275.708217415,4.3163000000000125 268.089917415,4.537900000000008 260.538817415,4.818700000000007 253.058817415,5.159000000000006 245.653917415,5.558800000000019 238.328517415,6.018600000000006 231.08711741500002,6.538900000000012 223.93391741500002,7.120100000000008 216.873217415,7.762400000000014 209.908717415,8.46550000000002 203.04401741499998,9.229000000000013 196.282817415,10.052400000000006 189.629617415,10.934700000000007 183.089217415,11.874800000000008 176.66641741499998,12.870900000000006 170.365917415,13.92110000000001 164.19251741500003,15.023260000000008 158.150817415,16.175520000000006 152.245417415,17.37579000000001 146.480317415,18.621550000000013 140.858917415,19.91004000000001 135.383517415,21.238250000000008 130.056417415,22.60327000000001 124.879717415,24.002260000000007 119.85501741499999,25.432090000000002 114.983517415,26.88946 110.265617415,28.370940000000004 105.700817415,29.873130000000018 101.288017415,31.392860000000013 97.026267415,32.9273 92.913837415,34.47361000000002 88.948377415,36.02904000000001 85.126957415,37.59096000000001 81.44607741499999,39.15689000000002 77.90189741500001,40.72460000000001 74.490857415,42.292320000000004 71.209647415,43.85843 68.054857415,45.42124000000001 65.022897415,46.979150000000004 62.109987415,48.53060000000001 59.312167415000005,50.07418000000001 56.625377415,51.60859000000001 54.045777415,53.13293000000001 51.569807415,54.64681000000001 49.193567415,56.15000000000001 46.913027415,57.64242000000001 44.724057415000004,59.12409000000001 42.622557415,60.59512000000001 40.604507415,62.05566000000001 38.665987415000004,63.50592 36.803357415,64.94613000000001 35.01368741500001,66.37635 33.294517415,67.79642000000001 31.643627415,69.20599000000001 30.058997415,70.60461000000001 28.538667415000003,71.99174000000002 27.080717415000002,73.36682000000002 25.683267415,74.72929000000002 24.344427415,76.07861000000001 23.062307415000003,77.41427000000002 21.835287415,78.73590000000002 20.661817414999998,80.04346000000001 19.540057415,81.33728000000002 18.467967415,82.61795000000001 17.443447415,83.88628000000001 16.464407415,85.14319 15.528787415000002,86.38968000000001 14.634627415,87.62683000000001 13.780081415,88.85575000000001 12.963398415,90.07755 12.183004415000001,91.29337000000001 11.437964415,92.50414 10.728001415,93.71018000000001 10.053147415,94.91127 9.413611414999998,96.10666 8.809677415,97.29524 8.241612414999999,98.47559000000001 7.709592415,99.64608000000001 7.213643415,100.80496000000001 6.753603415000001,101.95043000000001 6.329090415,103.08075000000001 5.939505415,104.19427000000002 5.584665415,105.28936900000001 5.265346415,106.36495400000001 4.9818641150000005,107.42129500000001 4.734152115,108.459726 4.522014315,109.48233 4.345314415,110.49172800000001 4.204121315,111.49097700000002 4.098834295,112.48352700000001 4.030307555,113.47327200000001 4.0,114.4646586 4.009936285,115.46260170000001 4.061751555,116.47028100000001 4.156971015,117.488059 4.295943715,118.51551500000001 4.478564615,119.552339 4.704696215,120.59816300000001 4.974158815,121.65256000000001 5.286719415,122.715033 5.642080415000001,123.78500000000001 6.0398594150000005,124.86179000000001 6.479575415,125.94462000000001 6.960628415,127.03258000000001 7.482268415,128.12462 8.043587415,129.21954 8.644173415,130.31676000000002 9.284526414999998,131.41680000000002 9.965187414999999,132.52032 10.686652415,133.62805 11.449353415,134.74077 12.253646415,135.85936 13.099780415000001,136.98473 13.987879415,138.11793 14.917897415,139.26006 15.889607415,140.41234 16.902507415000002,141.57609000000002 17.956127415,142.75258000000002 19.051507415000003,143.94225 20.190347415,145.14518 21.374397415,146.36146000000002 22.605517414999998,147.59117 23.885607415,148.83439 25.216667415000003,150.09119 26.600807415000002,151.36164000000002 28.040217415,152.64584000000002 29.537237415,153.9439 31.094357415,155.25598000000002 32.714297415000004,156.58239 34.399987415,157.92363 36.154447415,159.28025000000002 37.980797415,160.65278 39.882207415,162.04180000000002 41.861897415,163.44785000000002 43.923037415,164.87150000000003 46.068737415,166.31330000000003 48.301977415,167.7738 50.625747415000006,169.25329 53.043727415000006,170.75139000000001 55.559727415,172.26744000000002 58.177467415,173.80063 60.900587415000004,175.34997 63.732567415,176.91434 66.67679741500001,178.49248 69.736537415,180.08303 72.91505741499999,181.6845 76.215707415,183.29491000000002 79.641397415,184.91198 83.194487415,186.5331 86.876677415,188.15538 90.68891741499999,189.77564999999998 94.631417415,191.39057000000003 98.703797415,192.99634000000003 102.905237415,194.58837 107.23401741500001,196.16167000000002 111.68721741499999,197.71103 116.261217415,199.23113 120.951417415,200.71661 125.752417415,202.16202 130.659217415,203.56077000000002 135.666817415,204.90605 140.770617415,206.19132000000002 145.967517415,207.41036000000003 151.255517415,208.5573 156.634517415,209.62706 162.105117415,210.61726000000002 167.667717415,211.52637 173.322917415,212.35288000000003 179.071017415,213.09525000000002 184.912617415,213.75199000000003 190.84801741500002,214.32190000000003 196.878417415,214.8048 203.00401741500002,215.20090000000002 209.224617415,215.5106 215.53891741500001,215.73450000000003 221.94461741499998,215.8734 228.43861741499998,215.92810000000003 235.018217415,215.89770000000001 241.681717415,215.7818 248.428317415,215.5799 255.25851741500003,215.29160000000002 262.174417415,214.91670000000002 269.17951741499996,214.45554 276.278117415,213.9097 283.473117415,213.28107 290.766117415,212.57197000000002 298.15701741500004,211.78526000000002 305.64371741499997,210.92443000000003 313.22251741499997,209.9921 320.88961741500003,208.99008 328.64121741499997,207.92051000000004 336.473517415,206.78585 344.383317415,205.58886 352.367817415,204.33244000000002 360.424417415,203.01878 368.55091741499996,201.64974 376.74491741500003,200.22737 385.004617415,198.75390000000002 393.327917415,197.2317 401.713517415,195.66320000000002 410.159917415,194.05072 418.665517415,192.39664 427.228517415,190.70356 435.847017415,188.97429 444.518417415,187.21184 453.240117415,185.41926 462.009117415,183.59912 470.822017415,181.75398 479.675117415,179.88657 488.56431741499995,177.99979000000002 497.485117415,176.09668000000002 506.432917415,174.18037 515.4025174149999,172.25396 524.388317415,170.32064000000003 533.384617415,168.38368 542.3851174150001,166.44648 551.383317415,164.51248 560.3726174149999,162.58511000000001 569.346917415,160.66763 578.3014174150001,158.76292 587.2326174149999,156.87356 596.138217415,155.00182 605.017417415,153.14964 613.8703174149999,151.31865000000002 622.6976174150001,149.51010000000002 631.499717415,147.72516000000002 640.277117415,145.96502 649.029717415,144.23088 657.757417415,142.52396000000002 666.460117415,140.84546 675.137117415,139.19667 683.788117415,137.57885000000002 692.412617415,135.99323 701.009917415,134.44101 709.579817415,132.92335 718.121617415,131.44137 726.634817415,129.99623000000003 735.1189174149999,128.58919 743.5729174149999,127.2215 751.995917415,125.8944 760.386817415,124.60906000000001 768.7444174149999,123.36665 777.0673174149999,122.16833100000001 785.3539174150001,121.01544000000001 793.602617415,119.90930100000001 801.811317415,118.851177 809.9780174150001,117.842256 818.100517415,116.88364500000002 826.1765174149999,115.97642300000001 834.203217415,115.12182920000001 842.177017415,114.32109880000002 850.093717415,113.57536940000001 857.9487174149999,112.88564900000002 865.737017415,112.25278600000001 873.453117415,111.67780700000002 881.0913174149999,111.162294 888.645417415,110.707632 896.109317415,110.31488100000001 903.476817415,109.98474800000001 910.7421174149999,109.71775600000001 917.899017415,109.51544500000001 924.941117415,109.37950400000001 931.862417415,109.31103900000001 938.656717415,109.310568 945.318617415,109.378555 951.8435174150001,109.51878400000001 958.2293174150001,109.73585000000001 964.476317415,110.03337700000002 970.5863174149999,110.41423900000001 976.562517415,110.88271600000002 982.4105174150001,111.44515100000001 988.1397174150001,112.107803 993.761717415,112.87497100000002 999.286017415,113.7420285 1003.999117415,114.56920000000001" stroke="black" stroke-width="2.0" /></svg>