<?xml version="1.0" encoding="utf-8" ?>
<svg baseProfile="full" height="275.9886" version="1.1" width="1011.9995127625" xmlns="http://www.w3.org/2000/svg" xmlns:ev="http://www.w3.org/2001/xml-events" xmlns:xlink="http://www.w3.org/1999/xlink"><defs /><polygon fill="none" points="1003.9995127625,117.44500000000001 999.2742127624999,116.51610690000001 993.6622127625,115.27693300000001 987.8361127625,113.88530800000001 981.7754127625,112.37438 975.4796127625,110.759066 968.9580127625001,109.05740300000001 962.2298127624999,107.29014000000001 955.3202127625,105.47767 948.2544127625,103.64240000000001 941.0551127625,101.80524000000001 933.7413127624999,99.98048 926.3249127624999,98.17989 918.8085127625,96.41305 911.1863127624999,94.68268 903.4526127624999,92.98494000000001 895.6029127625001,91.31580000000001 887.6350127625,89.67138000000001 879.5488127625,88.04761 871.3465127625,86.43993 863.0330127625,84.84370000000001 854.6164127625,83.25431 846.1081127625,81.66778000000001 837.5205127625,80.08380000000001 828.8652127625,78.50305 820.1520127624999,76.92580000000001 811.3893127625,75.35188000000001 802.5833127625,73.78092000000001 793.7390127625,72.21302 784.8610127625,70.64827 775.9537127625,69.08665 767.0207127624999,67.52805000000001 758.0655127625,65.97233 749.0911127625,64.41955000000002 740.1008127624999,62.86983000000001 731.0977127625,61.323280000000004 722.0853127624999,59.78000000000001 713.0668127624999,58.24018000000001 704.0453127625001,56.70449000000001 695.0229127624999,55.17372000000001 686.0013127625,53.648520000000005 676.9808127625,52.12938 667.9615127625001,50.616690000000006 658.9425127625001,49.11053000000001 649.9234127625,47.61075000000001 640.9047127624999,46.11726 631.8875127625,44.63014000000001 622.8738127624999,43.14958 613.8664127625,41.67593000000001 604.8685127625,40.210170000000005 595.8826127625,38.75367 586.9104127625,37.30765000000001 577.9532127625,35.87322000000002 569.0113127625,34.451350000000005 560.0843127625001,33.04288000000001 551.1719127625,31.64840000000001 542.2741127625001,30.26848000000001 533.3918127625001,28.903790000000015 524.5266127625,27.555090000000007 515.6806127625,26.223230000000015 506.85661276249994,24.909230000000008 498.0576127625,23.614720000000005 489.2866127625,22.341490000000007 480.5464127625,21.091279999999998 471.83971276249997,19.865740000000002 463.1690127625,18.66644000000001 454.5366127625,17.49493000000001 445.9453127625,16.353100000000012 437.3983127625,15.242800000000003 428.8992127625,14.165900000000008 420.4521127625,13.124300000000005 412.0616127625,12.119600000000005 403.7324127625,11.154100000000014 395.4700127625,10.231500000000011 387.2810127625,9.355500000000006 379.1729127625,8.529700000000005 371.15381276249997,7.757300000000015 363.2320127625,7.041200000000018 355.4158127625,6.385600000000011 347.7101127625,5.797800000000009 340.11551276250003,5.2841999999999985 332.6287127625,4.850600000000014 325.2438127625,4.501800000000017 317.9522127625,4.242000000000004 310.74421276249996,4.074400000000011 303.6102127625,4.0 296.53961276250004,4.0201000000000136 289.5215127625,4.136499999999998 282.54401276249996,4.351300000000009 275.5944127625,4.667600000000007 268.6596127625,5.085900000000009 261.7286127625,5.602900000000005 254.79461276249998,6.214900000000014 247.85461276249998,6.918200000000013 240.90971276249996,7.7087999999999965 233.96511276249998,8.582300000000004 227.02901276249997,9.535300000000007 220.11051276249998,10.565700000000007 213.21851276249998,11.67110000000001 206.36151276249998,12.848700000000008 199.5479127625,14.095700000000008 192.78591276249998,15.408800000000014 186.0839127625,16.785900000000012 179.4508127625,18.224770000000007 172.8960127625,19.722499999999997 166.4288127625,21.275840000000002 160.05821276249998,22.881100000000004 153.7935127625,24.534540000000007 147.6442127625,26.232130000000012 141.6199127625,27.96932000000001 135.7297127625,29.741110000000006 129.9820127625,31.54220000000001 124.3842127625,33.367260000000016 118.9430127625,35.21112000000001 113.6651127625,37.068380000000005 108.5560127625,38.93346 103.6197727625,40.80085000000001 98.85882276250001,42.66529000000001 94.2741927625,44.52221 89.8664027625,46.367970000000014 85.6350227625,48.199110000000005 81.5783627625,50.01235000000001 77.69347276250001,51.804800000000014 73.9761927625,53.573980000000006 70.4214627625,55.31790000000001 67.02383276249999,57.03535000000001 63.777672762499996,58.72560000000001 60.67692276249999,60.388070000000006 57.7152427625,62.02243000000001 54.886082762499996,63.628550000000004 52.182822762499995,65.2065 49.598872762499994,66.75652000000001 47.12812276249999,68.27916 44.765802762499995,69.77554 42.5076027625,71.24661 40.349342762499994,72.69309000000001 38.2869027625,74.11557 36.3161827625,75.51459 34.433072762500004,76.89067 32.633512762500004,78.24434000000001 30.913492762500002,79.57615000000001 29.269062762500003,80.88668000000001 27.696252762500002,82.17653000000001 26.1910727625,83.44651000000002 24.7496227625,84.69747000000001 23.368162762500003,85.93036000000001 22.0431527625,87.14613000000001 20.7712527625,88.34576000000001 19.5493127625,89.53018 18.3744227625,90.70033000000001 17.2438727625,91.85712000000001 16.155162762499998,93.00139000000001 15.1075827625,94.13467 14.1028727625,95.25912000000001 13.1428757625,96.37639 12.2292257625,97.48767000000001 11.3633327625,98.59374000000001 10.5463207625,99.69505000000001 9.7790007625,100.79180000000001 9.061861762500001,101.88399000000001 8.3950677625,102.97147000000001 7.778466762500001,104.05398000000001 7.2116107625,105.13116000000001 6.6938517625,106.20238 6.2246717625,107.26546 5.8032577625,108.318503 5.4285077625,109.36056 5.0992277625,110.39139700000001 4.8142800625,111.411321 4.5726862624999995,112.421053 4.3736973625,113.42163000000001 4.2168529625,114.414355 4.1020314625,115.40076 4.0295040225,116.38260500000001 4.0,117.36189458000001 4.0144412425,118.34023830000001 4.0718506125,119.319229 4.1706556625,120.301832 4.3097194625,121.29085300000001 4.4882602625,122.28895600000001 4.7057761625,123.298703 4.9619742625,124.322568 5.2566937625,125.36293400000001 5.5898177625,126.422053 5.9611537625,127.50197 6.370277762500001,128.60441 6.8163267625,129.73057 7.297713762500001,130.88080000000002 7.812574762500001,132.05453 8.361335762500001,133.25102 8.944993762500001,134.4695 9.564394762500001,135.70907 10.2202387625,136.96876 10.913084762499999,138.24759 11.6433897625,139.54464000000002 12.4115537625,140.85919 13.2180017625,142.19079 14.0632827625,143.53945000000002 14.948202762500001,144.90577000000002 15.8740127625,146.29112 16.8426727625,147.69755 17.8567827625,149.12712000000002 18.9191827625,150.58201000000003 20.0329727625,152.06451 21.2014927625,153.57703 22.4282927625,155.12206 23.7170927625,156.7021 25.071722762500002,158.31965 26.4959527625,159.97698 27.9932827625,161.67603 29.566832762500002,163.4181 31.2201427625,165.20396 32.9569427625,167.03418 34.780962762499996,168.90921 36.6958427625,170.82938000000001 38.7052627625,172.79501 40.81296276249999,174.80646000000002 43.0229327625,176.86437 45.3396427625,178.96984 47.7685627625,181.12437 50.3158427625,183.32923 52.9876127625,185.5854 55.78981276249999,187.89349 58.7279327625,190.25362 61.806772762499996,192.6653 65.03014276249999,195.12731000000002 68.40082276250001,197.63733000000002 71.9210327625,200.19175 75.59177276250001,202.78601 79.4127427625,205.41486 83.3824327625,208.07247999999998 87.49832276250001,210.75276000000002 91.7573727625,213.44945 96.15614276250001,216.15546 100.6897927625,218.863 105.3521127625,221.5641 110.13591276250001,224.2504 115.0327127625,226.9138 120.0341127625,229.546 125.1312127625,232.13830000000002 130.31451276250002,234.6825 135.57461276249998,237.17090000000002 140.9019127625,239.5963 146.2875127625,241.9522 151.7229127625,244.2321 157.20051276249998,246.43 162.71341276249998,248.54060000000004 168.25561276249996,250.5596 173.82211276249998,252.4832 179.4085127625,254.3082 185.01051276249999,256.0313 190.6236127625,257.6496 196.24331276249998,259.1603 201.8651127625,260.5611 207.48461276249998,261.8496 213.0980127625,263.0222 218.7041127625,264.0756 224.3042127625,265.007 229.90171276249998,265.8136 235.50251276249998,266.4928 241.1142127625,267.043 246.7435127625,267.4664 252.3964127625,267.76460000000003 258.0778127625,267.9386 263.79171276249997,267.9886 269.5414127625,267.9143 275.32951276250003,267.7155 281.1593127625,267.3926 287.03431276249995,266.9458 292.9586127625,266.37510000000003 298.9367127625,265.68010000000004 304.97371276250004,264.8599 311.0754127625,263.9134 317.2497127625,262.8409 323.5051127625,261.6426 329.84991276249997,260.3188 336.2929127625,258.86969999999997 342.8429127625,257.2955 349.50911276249997,255.5967 356.3019127625,253.77429999999998 363.23131276249995,251.83049999999997 370.30581276249995,249.76870000000002 377.5311127625,247.59429999999998 384.9096127625,245.3154 392.4386127625,242.9428 400.11011276249997,240.4844 407.9138127625,237.9472 415.8382127625,235.3394 423.8710127625,232.67040000000003 431.99941276249996,229.9506 440.2105127625,227.1903 448.49081276249996,224.39800000000002 456.8265127625,221.58140000000003 465.2043127625,218.7485 473.61171276249996,215.90667000000002 482.0371127625,213.06343 490.47041276249996,210.22559 498.9026127625,207.39892000000003 507.32651276249993,204.58832 515.7367127625,201.79799000000003 524.1297127624999,199.03148000000002 532.5038127625,196.29168 540.8590127625,193.5808 549.1963127625,190.90025000000003 557.5170127625,188.25099 565.8220127625,185.63398 574.1124127625001,183.05022000000002 582.3889127625,180.50070000000002 590.6523127625,177.98643 598.9032127625001,175.50841000000003 607.1421127625,173.06746 615.3693127624999,170.66431 623.5852127625,168.29971 631.7902127625,165.97437000000002 639.9845127625,163.68902 648.1686127625001,161.44436000000002 656.3427127625,159.24111 664.5069127625,157.07995 672.6615127625,154.96157 680.8063127625,152.88666 688.9415127625,150.85591 697.0669127625,148.87003 705.1825127625,146.9297 713.2879127625,145.03564 721.3830127624999,143.18859 729.4672127625,141.38933 737.5399127625,139.63862 745.6006127625,137.93724 753.6484127624999,136.28593 761.6825127625,134.68543 769.7019127625,133.13657 777.7055127625,131.64027 785.6919127624999,130.19745 793.6595127625001,128.80905 801.6066127625,127.47593 809.5313127625,126.198942 817.4317127625001,124.97891800000001 825.3054127625,123.81691000000001 833.1496127624999,122.714067 840.9611127625,121.67148800000001 848.7362127625,120.69019200000001 856.4711127625,119.771101 864.1615127625,118.915047 871.8027127624999,118.1231609 879.3896127625,117.39673022000001 886.9164127625,116.73684940000001 894.3772127625,116.144377 901.7656127625,115.61990600000001 909.0754127625,115.164004 916.2992127625,114.778079 923.4290127625,114.463441 930.4557127625,114.22090200000001 937.3702127624999,114.05071000000001 944.1632127625,113.953158 950.8270127625001,113.931431 957.3562127624999,113.98896500000001 963.7486127625,114.12822600000001 970.0037127625,114.35091700000001 976.1224127625,114.658956 982.1054127625,115.05451000000001 987.9542127625,115.539128 993.6706127625,116.11453 999.2573127625,116.78467690000001 1003.9995127625,117.44500000000001" stroke="black" stroke-width="2.0" /></svg>