<?xml version="1.0" encoding="utf-8" ?>
<svg baseProfile="full" height="260.4435" version="1.1" width="1011.996156434" xmlns="http://www.w3.org/2000/svg" xmlns:ev="http://www.w3.org/2001/xml-events" xmlns:xlink="http://www.w3.org/1999/xlink"><defs /><polygon fill="none" points="1003.996156434,120.9597 999.725756434,119.712981 994.645256434,118.058702 989.342056434,116.195303 983.787456434,114.165897 977.992056434,111.997439 971.986656434,109.72283 965.819356434,107.38399 959.5437564340001,105.02015 953.2014564340001,102.66633 946.815156434,100.34947 940.394656434,98.08466 933.942256434,95.88185 927.452656434,93.74842 920.9140564339999,91.68732 914.314156434,89.69233 907.6430564340001,87.75611 900.8925564340001,85.87218 894.056656434,84.03467 887.1317564340001,82.23698999999999 880.116956434,80.47222 873.0158564339999,78.73389 865.836456434,77.01605 858.591456434,75.31411 851.2948564339999,73.62871999999999 843.9582564340001,71.96173999999999 836.590356434,70.31425999999999 829.197056434,68.68652 821.780756434,67.07800999999999 814.341956434,65.48777 806.8809564339999,63.91487 799.398756434,62.35851 791.896956434,60.817949999999996 784.377756434,59.292590000000004 776.8437564339999,57.78206 769.2976564339999,56.286550000000005 761.7414564339999,54.80618 754.1770564340001,53.34102 746.605656434,51.891009999999994 739.028356434,50.456019999999995 731.4456564339999,49.03591999999999 723.8580564340001,47.63072 716.265856434,46.24044000000001 708.669556434,44.86511 701.069656434,43.50476999999999 693.466756434,42.15944999999999 685.861356434,40.82921999999999 678.254056434,39.514309999999995 670.6453564340001,38.21493000000001 663.035556434,36.93131000000001 655.4251564340001,35.66363999999999 647.814556434,34.41214000000001 640.204056434,33.17698 632.593856434,31.958460000000002 624.9844564340001,30.756950000000003 617.376056434,29.5728 609.769156434,28.40638 602.1640564339999,27.258049999999997 594.561356434,26.12818 586.9615564339999,25.017179999999996 579.365156434,23.925639999999987 571.772456434,22.854100000000003 564.183756434,21.80314 556.599456434,20.773300000000006 549.019656434,19.765100000000004 541.444456434,18.778999999999996 533.873956434,17.81559999999999 526.308656434,16.87570000000001 518.748956434,15.959999999999994 511.195856434,15.069299999999998 503.650456434,14.2042 496.114056434,13.3656 488.58845643399997,12.554400000000001 481.074956434,11.77170000000001 473.574656434,11.018799999999999 466.088056434,10.296899999999994 458.615056434,9.607 451.15495643400004,8.950299999999999 443.706956434,8.327700000000007 436.26965643399996,7.740099999999998 428.843056434,7.188499999999991 421.428956434,6.673999999999992 414.03065643400004,6.197599999999994 406.653056434,5.760499999999993 399.302656434,5.363699999999994 391.987056434,5.008700000000005 384.713756434,4.699699999999993 377.48735643400005,4.441399999999987 370.309956434,4.238299999999995 363.18105643399997,4.094399999999993 356.097956434,4.0137 349.055856434,4.0 342.04905643399997,4.055299999999988 335.071056434,4.180599999999998 328.115556434,4.376499999999993 321.175856434,4.644300000000001 314.244756434,4.9853999999999985 307.314756434,5.401600000000002 300.37775643400005,5.893999999999991 293.427056434,6.460399999999993 286.458256434,7.098500000000001 279.470056434,7.805399999999992 272.464256434,8.57820000000001 265.445856434,9.41319999999999 258.422856434,10.307199999999995 251.403956434,11.259500000000003 244.396256434,12.270200000000003 237.405056434,13.339100000000002 230.43375643399997,14.466399999999993 223.48405643400002,15.652399999999986 216.555856434,16.8977 209.649856434,18.20259999999999 202.767056434,19.567099999999996 195.909956434,20.99131 189.081656434,22.474679999999992 182.286256434,24.016629999999992 175.528756434,25.616889999999998 168.814356434,27.275329999999997 162.148456434,28.991600000000005 155.536456434,30.765109999999993 148.98355643399998,32.595029999999994 142.495656434,34.480509999999995 136.080056434,36.42044 129.74565643399998,38.41284 123.502756434,40.45479999999999 117.362156434,42.54253 111.33575643399999,44.67187 105.436956434,46.83856 99.68040643399999,49.03711 94.08053643400001,51.26084999999999 88.650536434,53.502340000000004 83.402216434,55.75393 78.348546434,58.00752 73.50297643399999,60.25347 68.876856434,62.48147 64.47773643400001,64.68160999999999 60.308856434,66.84532999999999 56.371356434,68.96683 52.664296434,71.04135 49.183386434,73.06475 45.921076434,75.03399999999999 42.867166434,76.94731 40.009796434,78.80411000000001 37.337876433999995,80.60493 34.841136434,82.35048 32.509166433999994,84.04151999999999 30.331356434,85.67907 28.297056433999998,87.26453 26.395756434,88.79957999999999 24.617316434,90.28614999999999 22.952706434,91.72686999999999 21.394686433999997,93.12531 19.936426433999998,94.48472 18.571296434,95.80795 17.292996434000003,97.09753 16.095536434,98.3557 14.973306434,99.58451 13.921059434,100.78582 12.933915434,101.96128999999999 12.007499434,103.11246 11.139611434,104.24056999999999 10.329256434000001,105.34664 9.575162434,106.43164 8.875836434,107.49643 8.229629434,108.54186 7.634791434,109.56869 7.089513434000001,110.57768 6.591961434,111.569507 6.140304434,112.544849 5.732726434,113.504331 5.367450434,114.448553 5.043238434,115.37813299999999 4.759738134,116.294816 4.517065334,117.199338 4.315833134,118.089311 4.158349934,118.960318 4.051078464,119.811261 4.0,120.6485283 4.010025224,121.4843566 4.076083764,122.331694 4.190679734,123.198323 4.346054234,124.085144 4.538911934,124.988946 4.7700158340000005,125.908968 5.037886434,126.847407 5.340106434,127.805938 5.677954434,128.78549900000002 6.053005433999999,129.78706 6.466867434,130.811648 6.921162433999999,131.86036000000001 7.417513434,132.93434 7.957519434,134.03485 8.542726434,135.1632 9.174589434000001,136.32081 9.854424434,137.50922 10.583364434,138.73009 11.363287434,139.98533 12.197891433999999,141.27711 13.091366434,142.60783 14.048236434,143.98008 15.073346434,145.39663 16.171896433999997,146.86052999999998 17.349416434,148.37505 18.611746433999997,149.94377 19.964996434,151.57063 21.415596434,153.26 22.971096434,155.01622 24.640646434,156.84314999999998 26.433886433999998,158.74451 28.360796434,160.72379 30.431486434,162.78415999999999 32.656046434000004,164.92845 35.044396434,167.15915 37.606626434000006,169.47867 40.353866434000004,171.88864999999998 43.296426434,174.38915 46.442436434,176.97836 49.797166434000005,179.65253 53.362656434,182.4062 57.138336433999996,185.23257 61.122186434,188.12184 65.30836643399999,191.06141 69.68689643399999,194.03699999999998 74.244866434,197.03386 78.968316434,200.03800999999999 83.843996434,203.03559 88.85804643399999,206.01283999999998 93.996376434,208.95711 99.245876434,211.85753 104.595556434,214.70535999999998 110.035356434,217.49302 115.553956434,220.21294999999998 121.13805643399999,222.8576 126.77295643400001,225.4198 132.443356434,227.89170000000001 138.136856434,230.26409999999998 143.846156434,232.5297 149.569056434,234.6837 155.307956434,236.72320000000002 161.06925643399998,238.6477 166.857556434,240.45929999999998 172.671356434,242.1591 178.50355643400002,243.7463 184.340956434,245.2194 190.165256434,246.5753 195.959156434,247.8052 201.713656434,248.8997 207.429156434,249.85229999999999 213.113556434,250.6576 218.781956434,251.3108 224.454456434,251.8105 230.149556434,252.1626 235.882856434,252.3725 241.667056434,252.4435 247.512456434,252.3776 253.426456434,252.1758 259.415256434,251.8401 265.484556434,251.3746 271.63785643399996,250.78379999999999 277.875656434,250.07309999999998 284.194356434,249.2494 290.585956434,248.3213 297.038256434,247.2951 303.540356434,246.173 310.084156434,244.95690000000002 316.665556434,243.6486 323.284556434,242.24919999999997 329.946356434,240.7588 336.66075643399995,239.1778 343.438956434,237.5091 350.28925643400004,235.7567 357.217056434,233.92579999999998 364.22335643400004,232.0231 371.304556434,230.05759999999998 378.45145643399997,228.0394 385.651756434,225.97480000000002 392.89445643399995,223.86939999999998 400.17045643399996,221.7279 407.473156434,219.55502 414.79895643400005,217.35444999999999 422.146756434,215.12927 429.518156434,212.88175 436.914156434,210.61416 444.334256434,208.32921 451.77685643399997,206.0301 459.238956434,203.72057 466.715756434,201.40483999999998 474.201156434,199.08760999999998 481.688256434,196.77318 489.17085643400003,194.46514000000002 496.64415643399997,192.16661 504.10505643399995,189.88027 511.55135643399996,187.60831 518.982756434,185.3525 526.399756434,183.11415 533.804156434,180.89416 541.197456434,178.69323 548.581256434,176.51211 555.956756434,174.35163 563.324956434,172.21266 570.6865564340001,170.09613000000002 578.042356434,168.00301 585.392756434,165.9343 592.737856434,163.89087 600.0778564340001,161.87351999999998 607.413156434,159.88306 614.7437564339999,157.92029 622.069956434,155.98599000000002 629.3919564339999,154.08095 636.709956434,152.20592 644.024156434,150.36167 651.334756434,148.54896 658.641856434,146.76854 665.945556434,145.02116999999998 673.2460564339999,143.30758 680.543356434,141.62851 687.837656434,139.9847 695.128956434,138.37689 702.417356434,136.80581 709.7028564340001,135.27223 716.985156434,133.77693 724.2640564339999,132.3207 731.539456434,130.90431999999998 738.810856434,129.52857799999998 746.077856434,128.194258 753.339956434,126.902147 760.5965564339999,125.653155 767.847156434,124.448281 775.091056434,123.288495 782.327756434,122.174745 789.556656434,121.1079479 796.777456434,120.0889981 803.989456434,119.118763 811.192356434,118.198176 818.3850564339999,117.328405 825.566356434,116.510668 832.7344564340001,115.74618099999999 839.887056434,115.036134 847.021556434,114.381674 854.134756434,113.783882 861.223456434,113.244068 868.284056434,112.764141 875.313256434,112.345943 882.307956434,111.991137 889.265456434,111.70121499999999 896.1831564339999,111.477501 903.058856434,111.321231 909.8885564340001,111.23398399999999 916.664856434,111.217296 923.376856434,111.272258 930.011356434,111.39931899999999 936.553056434,111.598142 942.985356434,111.870299 949.293056434,112.22334 955.4646564340001,112.664211 961.492656434,113.19817499999999 967.372356434,113.82902299999999 973.1014564339999,114.560335 978.681356434,115.397178 984.119956434,116.345012 989.4301564340001,117.409849 994.6264564339999,118.584786 999.7064564340001,119.837819 1003.996156434,120.9597" stroke="black" stroke-width="2.0" /></svg>