<?xml version="1.0" encoding="utf-8" ?>
<svg baseProfile="full" height="280.7939" version="1.1" width="1012.005237057" xmlns="http://www.w3.org/2000/svg" xmlns:ev="http://www.w3.org/2001/xml-events" xmlns:xlink="http://www.w3.org/1999/xlink"><defs /><polygon fill="none" points="1004.005237057,124.1579 999.3099370570001,122.751611 993.799737057,120.896574 988.1232370570001,118.832754 982.247237057,116.612903 976.1726370570001,114.264238 969.9171370570001,111.82033 963.514437057,109.32018 957.001137057,106.79935 950.403437057,104.29056 943.7351370570001,101.81912 937.002237057,99.40025 930.2035370570001,97.04556 923.3294370570001,94.76404 916.365437057,92.55588 909.298737057,90.4131 902.1179370570001,88.32806 894.813737057,86.29375999999999 887.378837057,84.30278 879.809137057,82.34655000000001 872.105737057,80.41674 864.275837057,78.50556 856.3339370570001,76.60682 848.2974370570001,74.72122999999999 840.1812370570001,72.85159999999999 831.997637057,70.99977999999999 823.7551370570001,69.16649000000001 815.458237057,67.35152 807.110237057,65.55431 798.714437057,63.7744 790.275237057,62.01133 781.797537057,60.264739999999996 773.286937057,58.53457 764.7487370570001,56.82146 756.187537057,55.12602 747.607237057,53.44864 739.010737057,51.78953 730.400337057,50.14875000000001 721.777837057,48.52646 713.1446370570001,46.92286 704.5026370570001,45.33818000000001 695.8532370570001,43.772589999999994 687.1980370570001,42.226259999999996 678.538837057,40.6995 669.8768370570001,39.19276000000001 661.213637057,37.70648999999999 652.550337057,36.24109999999999 643.8881370570001,34.79696999999999 635.228137057,33.37449000000001 626.571337057,31.974189999999993 617.918737057,30.596689999999995 609.271237057,29.242619999999988 600.6301370570001,27.912589999999994 591.996337057,26.60719999999999 583.3710370570001,25.327070000000006 574.755237057,24.072999999999993 566.1500370570001,22.8459 557.5562370570001,21.64649999999999 548.9748370570001,20.47569999999999 540.406537057,19.334100000000007 531.852137057,18.222499999999997 523.3125370570001,17.141999999999996 514.789137057,16.0937 506.28393705699995,15.078499999999991 497.79923705699997,14.097700000000003 489.33773705699997,13.152199999999993 480.902637057,12.243399999999994 472.496737057,11.373099999999994 464.12173705699996,10.542999999999992 455.77863705699997,9.7547 447.467937057,9.009600000000006 439.188837057,8.308999999999997 430.940637057,7.6541 422.723937057,7.046099999999996 414.541937057,6.4861000000000075 406.400337057,5.975300000000004 398.30683705699994,5.515000000000001 390.271037057,5.106099999999998 382.30363705699995,4.7520000000000095 374.41203705699996,4.4587999999999965 366.599137057,4.232300000000009 358.863937057,4.077799999999996 351.20183705700003,4.0 343.605137057,4.003599999999992 336.06443705699996,4.091300000000004 328.57033705699996,4.263599999999997 321.11313705699996,4.521499999999989 313.683337057,4.866299999999995 306.270837057,5.299700000000001 298.86513705699997,5.823999999999998 291.456037057,6.438499999999991 284.036037057,7.139899999999997 276.601937057,7.9243999999999915 269.154737057,8.7881 261.699737057,9.726300000000009 254.246737057,10.733900000000006 246.807837057,11.809200000000004 239.39343705699997,12.951499999999996 232.01223705699996,14.160099999999986 224.67113705699998,15.434299999999993 217.37483705699998,16.773600000000002 210.127037057,18.177300000000002 202.93223705699998,19.644099999999995 195.796537057,21.1725 188.727537057,22.760000000000005 181.733637057,24.40395000000001 174.82443705699998,26.10110999999999 168.010137057,27.848569999999995 161.301737057,29.643 154.709837057,31.480500000000006 148.24463705699998,33.35670999999999 141.91563705699997,35.266980000000004 135.73253705699997,37.206630000000004 129.705237057,39.17049 123.843637057,41.15272999999999 118.156637057,43.147189999999995 112.651437057,45.14761999999999 107.33383705700001,47.14825999999999 102.20888705700001,49.14403999999999 97.280307057,51.12983999999999 92.54993705700001,53.100719999999995 88.01754705700002,55.052139999999994 83.680867057,56.98016999999999 79.53627705699999,58.88176 75.57980705700001,60.75457 71.806767057,62.59649 68.211587057,64.40565000000001 64.78780705700001,66.18061 61.528287057,67.92035999999999 58.425377057,69.62432999999999 55.471717057000006,71.29279 52.660527056999996,72.92659 49.984987057000005,74.5266 47.438247057000005,76.09365 45.013517057,77.6286 42.70410705700001,79.13234 40.503507057,80.60580999999999 38.40541705700001,82.04995 36.404077057,83.4659 34.494617057,84.85505 32.672447057,86.21873 30.933137057,87.55812 29.272407057,88.87432 27.686197057,90.16833 26.170607056999998,91.4411 24.721927057,92.69351 23.336647057,93.92636999999999 22.011437057,95.14048 20.743517057,96.33671 19.531117057000003,97.51622 18.372547057,98.6801 17.266127057,99.8293 16.210117056999998,100.96468 15.202837057,102.08699999999999 14.242587057,103.19697 13.327704057,104.2952 12.456568057,105.38228 11.627592057000001,106.45872 10.839235057,107.52499 10.090116057,108.58156 9.380449057,109.62898 8.711390057000001,110.66794 8.083801057,111.69909 7.498283057,112.72304 6.955219057,113.7404 6.454819057,114.75173099999999 5.997152057,115.757567 5.582181057,116.758408 5.2100960569999994,117.754181 4.881400857,118.744162 4.596516557,119.72780399999999 4.358118957,120.705621 4.174227757,121.677149 4.054159207,122.642038 4.0,123.60351179999999 4.001027599,124.5653604 4.046453447,125.531015 4.128131357,126.504282 4.244225157,127.490049 4.394366257,128.491751 4.577985957,129.510424 4.794384457,130.545287 5.042728057,131.59546699999999 5.321967057,132.66040999999998 5.6309550569999995,133.740015 5.969541057,134.83476 6.338550057,135.94537 6.738875057,137.07263 7.171437057,138.21735 7.637184057,139.38038 8.137079057000001,140.5626 8.672095057,141.76492 9.243195057000001,142.98827 9.851317057,144.23358 10.497346057000001,145.5018 11.182080057,146.79384 11.906187057,148.11054000000001 12.670491057000001,149.45274 13.476767057000002,150.82135 14.327057057000001,152.21735999999999 15.223487057000002,153.64179 16.168247057000002,155.09572 17.163637057000003,156.5803 18.212017057,158.09675 19.315817057,159.64638 20.477587056999997,161.23062 21.699947057,162.85104 22.985637057,164.50943 24.337897057,166.20763 25.760737057,167.94736 27.258407057,169.73037 28.835387057,171.55840999999998 30.496337056999998,173.43324 32.246087057,175.35663 34.089597057,177.3303 36.031917057,179.35592 38.078147057,181.4351 40.233767057,183.56929 42.504747057,185.75968 44.896997057,188.00714 47.416217057000004,190.31219 50.067757057,192.67498999999998 52.856537057000004,195.09527 55.78690705700001,197.57241 58.862987057,200.1052 62.088937057,202.69113 65.468027057,205.32665 69.00224705699999,208.00723 72.692207057,210.72746 76.53714705700001,213.48122 80.53519705699999,216.26173 84.68374705699999,219.06115 88.978827057,221.87079 93.415077057,224.6815 97.986127057,227.4841 102.684977057,230.2697 107.504437057,233.02949999999998 112.436437057,235.7547 117.470937057,238.4364 122.596737057,241.0655 127.801037057,243.6333 133.070537057,246.13060000000002 138.39383705699998,248.547 143.761837057,250.8734 149.168737057,253.10269999999997 154.611837057,255.2294 160.091337057,257.2498 165.607237057,259.1633 171.15633705699997,260.9695 176.732037057,262.667 182.324537057,264.2541 187.920437057,265.7286 193.50573705699998,267.08389999999997 199.071437057,268.3095 204.615337057,269.397 210.141737057,270.3393 215.66053705699997,271.1302 221.186937057,271.7641 226.737037057,272.2433 232.32513705699998,272.5729 237.964137057,272.7559 243.66603705699998,272.7939 249.44223705699997,272.6869 255.30353705699997,272.4346 261.26283705699996,272.03999999999996 267.331737057,271.5075 273.518537057,270.8425 279.827237057,270.05150000000003 286.255937057,269.1433 292.79523705699995,268.1273 299.432537057,267.0055 306.156937057,265.7781 312.96053705699995,264.4456 319.840037057,263.008 326.796737057,261.4644 333.838337057,259.814 340.97473705699997,258.05789999999996 348.214237057,256.1981 355.56193705699997,254.23830000000004 363.019337057,252.18349999999998 370.583337057,250.0411 378.24553705700004,247.8188 385.995637057,245.52179999999998 393.824537057,243.1551 401.724937057,240.72379999999998 409.691537057,238.2326 417.721937057,235.6858 425.815937057,233.0869 433.973037057,230.43939999999998 442.19143705700003,227.7472 450.46753705699996,225.0151 458.79583705699997,222.24907000000002 467.169037057,219.45553 475.577737057,216.64132999999998 484.012437057,213.81273 492.46403705700004,210.97577 500.924337057,208.1363 509.38603705699995,205.29989 517.842837057,202.47175 526.289237057,199.65659 534.720937057,196.85835 543.1342370570001,194.08052 551.5268370570001,191.32619 559.8972370570001,188.59807 568.244837057,185.89848 576.570037057,183.2294 584.8737370570001,180.59235999999999 593.1567370570001,177.98874 601.419737057,175.41988 609.6636370570001,172.88713 617.888837057,170.39181 626.0960370570001,167.93525 634.2857370570001,165.51873 642.4582370570001,163.14346999999998 650.613937057,160.81064 658.753037057,158.5214 666.875737057,156.27688 674.982337057,154.07818 683.0729370570001,151.92639 691.1477370570001,149.82258 699.206737057,147.76788 707.249837057,145.76344 715.276637057,143.8104 723.286837057,141.90991 731.279837057,140.06309 739.255037057,138.27106 747.2116370570001,136.53494 755.1486370570001,134.856 763.065137057,133.235555 770.9598370570001,131.67488500000002 778.831837057,130.175199 786.6797370570001,128.737649 794.5024370570001,127.363325 802.2986370570001,126.053304 810.0667370570001,124.8089316 817.804137057,123.6316593 825.508037057,122.522905 833.174737057,121.484015 840.800137057,120.516226 848.3799370570001,119.620634 855.909037057,118.798592 863.3827370570001,118.052084 870.796437057,117.38287199999999 878.146137057,116.792386 885.4281370570001,116.281742 892.6392370570001,115.851754 899.7764370570001,115.5031 906.835437057,115.236833 913.809437057,115.05384699999999 920.689837057,114.954564 927.4666370570001,114.938805 934.129237057,115.005726 940.6667370570001,115.157456 947.071237057,115.402215 953.339337057,115.747502 959.472137057,116.199542 965.4733370570001,116.763648 971.3483370570001,117.445637 977.1047370570001,118.253984 982.757237057,119.19866999999999 988.3257370570001,120.291815 993.8355370570001,121.535204 999.3036370570001,122.900977 1004.005237057,124.1579" stroke="black" stroke-width="2.0" /></svg>