<?xml version="1.0" encoding="utf-8" ?>
<svg baseProfile="full" height="255.3385" version="1.1" width="1011.996490241" xmlns="http://www.w3.org/2000/svg" xmlns:ev="http://www.w3.org/2001/xml-events" xmlns:xlink="http://www.w3.org/1999/xlink"><defs /><polygon fill="none" points="1003.996490241,127.5148 999.8678902409999,126.20668599999999 994.965390241,124.472191 989.849190241,122.513503 984.4820902409999,120.37229199999999 978.870490241,118.07723299999999 973.044890241,115.66350999999999 967.057190241,113.17951 960.968490241,110.67186 954.825690241,108.18102999999999 948.6526902409998,105.73711999999999 942.4566902409999,103.35619 936.236790241,101.04760999999999 929.9851902409999,98.81800999999999 923.686690241,96.67052 917.3258902409999,94.59848 910.8900902409999,92.59282999999999 904.368590241,90.64577 897.7535902409999,88.75043 891.039690241,86.8998 884.224690241,85.08624 877.3103902409999,83.30260999999999 870.3040902409999,81.5423 863.218790241,79.79968 856.0700902409999,78.07422 848.871890241,76.36825999999999 841.634890241,74.68323 834.366790241,73.01962999999999 827.0712902409999,71.37696 819.749190241,69.75412 812.4007902409999,68.14999 805.027090241,66.56359 797.6297902409999,64.99402999999998 790.210990241,63.440529999999995 782.7738902409999,61.90253999999999 775.3212902409999,60.380089999999996 767.855990241,58.873329999999996 760.379890241,57.38225 752.8946902409999,55.90675999999999 745.401590241,54.44663 737.9011902409999,53.001609999999985 730.393990241,51.571529999999996 722.8802902409999,50.1563 715.360590241,48.755819999999986 707.8354902409999,47.37000999999999 700.3056902409999,45.99878 692.771690241,44.64207999999999 685.2343902409999,43.300039999999996 677.6941902409999,41.97283 670.151790241,40.660619999999994 662.6076902409999,39.36352999999998 655.062290241,38.08172999999999 647.5160902409999,36.81532 639.969290241,35.564499999999995 632.4223902409999,34.32955 624.8755902409999,33.11076999999999 617.329290241,31.908419999999992 609.7836902409999,30.72278999999999 602.238990241,29.55413999999999 594.695690241,28.40276 587.153990241,27.26899999999999 579.6140902409999,26.15339999999999 572.076490241,25.056299999999993 564.541690241,23.978199999999987 557.009990241,22.919399999999982 549.481990241,21.880499999999998 541.958290241,20.861999999999995 534.4394902409999,19.864499999999992 526.9258902409999,18.888599999999983 519.4179902409999,17.935199999999995 511.916090241,17.0047 504.420290241,16.097799999999992 496.930890241,15.215099999999993 489.448090241,14.357399999999984 481.972190241,13.52539999999999 474.50409024100003,12.720199999999991 467.04479024100004,11.942499999999995 459.595890241,11.193299999999994 452.158890241,10.473499999999987 444.736090241,9.784099999999995 437.329190241,9.126499999999993 429.939590241,8.502200000000002 422.567890241,7.912499999999994 415.213890241,7.358899999999991 407.87709024099996,6.842399999999998 400.556090241,6.3643 393.24949024100005,5.925699999999992 385.957490241,5.527799999999999 378.682390241,5.171700000000001 371.428990241,4.858899999999991 364.20399024100004,4.590399999999988 357.015790241,4.3673 349.87469024100005,4.191399999999987 342.789690241,4.0678999999999945 335.76629024100004,4.002399999999994 328.806690241,4.0 321.909690241,4.0655 315.071390241,4.203499999999991 308.285690241,4.418199999999999 301.545390241,4.711899999999986 294.842690241,5.085499999999996 288.169690241,5.540399999999991 281.51739024100004,6.0785999999999945 274.876490241,6.702299999999994 268.23669024099996,7.414699999999996 261.58719024100003,8.215999999999994 254.919490241,9.1036 248.229090241,10.0745 241.515290241,11.125299999999982 234.78199024100002,12.251499999999993 228.037390241,13.447699999999983 221.29329024100002,14.710999999999999 214.560190241,16.040299999999988 207.846290241,17.43509999999999 201.156990241,18.894800000000004 194.495190241,20.41959999999999 187.86159024100002,22.009699999999995 181.25609024099998,23.665499999999994 174.680290241,25.386799999999994 168.13669024100003,27.173000000000002 161.629290241,29.02301 155.163390241,30.935459999999992 148.74529024100002,32.90897 142.38229024100002,34.942310000000006 136.082290241,37.03371 129.853190241,39.18093999999999 123.703190241,41.38127 117.641090241,43.631889999999984 111.677390241,45.92945999999999 105.823890241,48.269519999999986 100.092880241,50.64649 94.496490241,53.05395 89.04748024100002,55.48502999999998 83.761370241,57.9315 78.655000241,60.383039999999994 73.744150241,62.82817 69.041720241,65.25528 64.55803024099998,67.6545 60.301980240999995,70.01785999999998 56.278730241,72.33767 52.488730241,74.60723999999999 48.927930241,76.82137999999999 45.588730241,78.97662 42.463190241,81.07092 39.543360240999995,83.10229999999999 36.820050241,85.06922 34.282720241,86.97093999999998 31.919750241,88.80772999999999 29.718960241,90.58071999999999 27.668880241,92.29223999999999 25.759700241,93.94569999999999 23.981800241,95.54442 22.325750241,97.09155999999999 20.782410241,98.59009999999999 19.343120241,100.04293 17.999740240999998,101.45275999999998 16.744710241,102.82218 15.571350241,104.15366 14.475180241,105.44963 13.452482241,106.71222999999999 12.499534241,107.9433 11.612703241,109.14451 10.788429241,110.31732 10.023263241,111.46312999999999 9.313878241000001,112.58319 8.657083241,113.67868999999999 8.049838241,114.75075 7.489297241,115.8004 6.973728241,116.82844999999999 6.502289241,117.83554699999999 6.073961241,118.82247799999999 5.687588241,119.790099 5.341947241,120.73930499999999 5.035789241,121.67099099999999 4.767873041,122.586045 4.537119541,123.48529599999999 4.344435941,124.368955 4.192009841,125.23636499999999 4.081603651,126.086462 4.015350391,126.9209623 4.0,127.74749539999999 4.049500691,128.572856 4.169514641,129.40445 4.3516834410000005,130.24892499999999 4.5857233410000005,131.10847 4.863933841,131.981106 5.185038241,132.865069 5.548236241,133.760113 5.953421241,134.66758099999998 6.401244241,135.58920999999998 6.8922462410000005,136.52661999999998 7.4266222410000005,137.48119499999999 8.005001241,138.45397 8.629686241,139.44582 9.303291241,140.45768999999999 10.028532241,141.49057 10.808210241000001,142.54556 11.645195241,143.62385 12.542403241,144.72674999999998 13.502763241,145.85576 14.529180241,147.01256 15.624520240999999,148.19913 16.791580241,149.41779 18.034470241,150.67106 19.359650241,151.96134 20.774360241,153.2912 22.286440240999998,154.6634 23.904420241,156.08095 25.637420241,157.54706 27.495160241,159.06525 29.487860241,160.63934999999998 31.626260241,162.27358999999998 33.922560241,163.97163999999998 36.390170241,165.73615999999998 39.042540241,167.56927 41.892730240999995,169.47247 44.953110241,171.44673 48.235410241,173.49284 51.751670241,175.61212999999998 55.515140241,177.80635999999998 59.536610241,180.07618 63.821530241,182.42068 68.368200241,184.83727 73.166570241,187.32187 78.200100241,189.86624 83.448360241,192.45492000000002 88.88619024100001,195.07075 94.487040241,197.69729999999998 100.22747024099999,200.32106 106.090190241,202.93173 112.05999024100001,205.51959 118.120790241,208.07517 124.255890241,210.58961999999997 130.44929024100003,213.05494 136.686490241,215.46364 142.957290241,217.80955 149.25699024099998,220.08883 155.586390241,222.29973 161.951890241,224.44248 168.36249024100002,226.52103999999997 174.819390241,228.5405 181.312590241,230.503 187.820690241,232.4075 194.31059024100003,234.2507 200.74429024100002,236.02049999999997 207.093090241,237.6954 213.340690241,239.2582 219.481390241,240.69689999999997 225.517790241,242.00349999999997 231.45819024099998,243.173 237.312590241,244.2028 243.093190241,245.0912 248.81549024100002,245.8366 254.497990241,246.4364 260.162090241,246.8868 265.832290241,247.1836 271.532890241,247.3318 277.283890241,247.3385 283.100790241,247.209 288.99429024100004,246.94779999999997 294.969090241,246.55919999999998 301.023490241,246.04809999999998 307.151790241,245.41809999999998 313.349290241,244.6718 319.612690241,243.8125 325.940190241,242.8439 332.331790241,241.76979999999998 338.79009024100003,240.5942 345.320090241,239.32059999999998 351.92689024099997,237.9524 358.61419024099996,236.4941 365.382890241,234.95080000000002 372.231590241,233.3295 379.155190241,231.6383 386.145090241,229.8861 393.191090241,228.07819999999998 400.283990241,226.21922 407.416390241,224.31383 414.58289024100003,222.36635 421.780490241,220.3807 429.008690241,218.36026999999999 436.268490241,216.30758 443.56069024100003,214.22505999999998 450.88469024100004,212.1155 458.238890241,209.98212999999998 465.620590241,207.82866 473.025590241,205.65926 480.448490241,203.47844999999998 487.883090241,201.29023999999998 495.323890241,199.09821999999997 502.766090241,196.90577 510.205790241,194.716 517.639990241,192.53178 525.066490241,190.35568 532.483890241,188.18997 539.8914902409999,186.03645 547.2887902409999,183.89672 554.675290241,181.77224999999999 562.0509902409999,179.66448 569.416090241,177.57471999999999 576.770890241,175.50421 584.115990241,173.45413 591.452090241,171.42547 598.779790241,169.41912 606.099490241,167.43595 613.4119902409999,165.47683999999998 620.717490241,163.5427 628.016390241,161.63441 635.309290241,159.75288 642.5961902409999,157.89901 649.877390241,156.07366 657.152990241,154.27769 664.4232902409999,152.51193 671.688390241,150.77722 678.948390241,149.07438 686.2033902409999,147.40424 693.4536902409999,145.76758999999998 700.699390241,144.16525 707.9403902409999,142.59808999999998 715.176690241,141.06695 722.408090241,139.57272999999998 729.6343902409999,138.1163 736.855190241,136.69852799999998 744.070290241,135.320301 751.2789902409999,133.98249099999998 758.4807902409999,132.686079 765.6750902409999,131.43216 772.861490241,130.221802 780.039290241,129.05604 787.2081902409999,127.93587649999999 794.367690241,126.8622834 801.517490241,125.836203 808.6572902409999,124.858615 815.7863902409999,123.93074899999999 822.9033902409999,123.053923 830.006690241,122.229464 837.0936902409999,121.458686 844.161790241,120.74286199999999 851.2075902409999,120.08319999999999 858.227390241,119.48104199999999 865.2173902409999,118.93846199999999 872.1740902409999,118.45754 879.094490241,118.040151 885.975990241,117.687969 892.816690241,117.40249 899.614590241,117.18507 906.3671902409999,117.03730999999999 913.0680902409999,116.96096999999999 919.706990241,116.95746 926.270390241,117.02753 932.742390241,117.17112999999999 939.105390241,117.38807999999999 945.3421902409999,117.68476999999999 951.4391902409999,118.069954 957.3873902409999,118.55037499999999 963.1817902409999,119.13096399999999 968.8205902409999,119.81524499999999 974.304090241,120.60751099999999 979.639690241,121.51364699999999 984.8426902409999,122.54079499999999 989.933990241,123.697498 994.935690241,124.971871 999.8443902409999,126.321203 1003.996490241,127.5148" stroke="black" stroke-width="2.0" /></svg>