<?xml version="1.0" encoding="utf-8" ?>
<svg baseProfile="full" height="223.99953" version="1.1" width="1011.998354128" xmlns="http://www.w3.org/2000/svg" xmlns:ev="http://www.w3.org/2001/xml-events" xmlns:xlink="http://www.w3.org/1999/xlink"><defs /><polygon fill="none" points="1003.998354128,101.85453 1000.646254128,101.3179921 996.5387541279999,100.546481 992.1118541279999,99.603476 987.314954128,98.499409 982.141854128,97.25204599999999 976.6266541279999,95.873645 970.8201541279999,94.385794 964.772154128,92.813546 958.5357541279999,91.18185 952.169654128,89.51926999999999 945.729354128,87.85472 939.260154128,86.20988 932.791054128,84.59897 926.3327541279999,83.03097 919.8767541279999,81.50983 913.4034541279999,80.03199 906.894554128,78.5906 900.3358541279999,77.18002 893.717554128,75.79578 887.034454128,74.43424999999999 880.285054128,73.09164999999999 873.470654128,71.76417 866.595654128,70.44825 859.667154128,69.14067 852.6961541279999,67.83872 845.694854128,66.54251 838.6737541279999,65.25363999999999 831.6407541279999,63.97324 824.601154128,62.70187 817.557554128,61.4396 810.509654128,60.186009999999996 803.456154128,58.940529999999995 796.396154128,57.70272 789.329354128,56.4722 782.255854128,55.248729999999995 775.1764541279999,54.032129999999995 768.092554128,52.82239 761.0057541279999,51.619769999999995 753.917254128,50.424549999999996 746.828254128,49.236979999999996 739.739354128,48.05728 732.651354128,46.8856 725.5642541279999,45.72204 718.478354128,44.56674999999999 711.393554128,43.419929999999994 704.309954128,42.28179 697.227654128,41.15257 690.146754128,40.03247999999999 683.067654128,38.92176 675.990354128,37.82065999999999 668.915254128,36.729479999999995 661.842654128,35.64855999999999 654.7725541279999,34.578239999999994 647.705154128,33.51885 640.640754128,32.47070000000001 633.579254128,31.434099999999987 626.520754128,30.40937000000001 619.465254128,29.396839999999997 612.412954128,28.396879999999996 605.363854128,27.409869999999998 598.318054128,26.43616999999999 591.2757541279999,25.476159999999993 584.237154128,24.530209999999997 577.202354128,23.598699999999994 570.171654128,22.682060000000007 563.1453541279999,21.780779999999993 556.123454128,20.895319999999998 549.1062541279999,20.026169999999993 542.0938541279999,19.17376999999999 535.086254128,18.338589999999996 528.0836541279999,17.521060000000006 521.0859541279999,16.72166 514.093254128,15.9409 507.105754128,15.179289999999995 500.123654128,14.437349999999995 493.14705412800004,13.715589999999992 486.176254128,13.014539999999997 479.211654128,12.334710000000001 472.253554128,11.676640000000006 465.302254128,11.040939999999992 458.358054128,10.428240000000002 451.42125412800004,9.839169999999996 444.491954128,9.274329999999992 437.570154128,8.734300000000005 430.655754128,8.219660000000005 423.74885412800006,7.730989999999991 416.849354128,7.2689299999999974 409.95745412800005,6.83417 403.073554128,6.427390000000003 396.198554128,6.049269999999993 389.333254128,5.700490000000002 382.478854128,5.381709999999998 375.636554128,5.0936300000000045 368.80785412800003,4.837099999999992 361.993554128,4.613080000000011 355.193754128,4.422460000000001 348.408254128,4.2660999999999945 341.636254128,4.144850000000005 334.876254128,4.059579999999997 328.126454128,4.011099999999999 321.385554128,4.0 314.65335412800005,4.02682999999999 307.930954128,4.092109999999991 301.22105412800005,4.196299999999994 294.527154128,4.339789999999994 287.85445412800004,4.522819999999996 281.20875412800007,4.746290000000002 274.595654128,5.012340000000009 268.019154128,5.323159999999987 261.482054128,5.680769999999995 254.98615412799998,6.08717 248.531754128,6.544259999999994 242.118354128,7.053879999999992 235.744454128,7.617429999999999 229.40715412799997,8.236239999999995 223.10245412799998,8.911879999999996 216.824854128,9.64622 210.567654128,10.441479999999999 204.322754128,11.300259999999994 198.08205412799998,12.223709999999997 191.83965412799998,13.211399999999998 185.593454128,14.26249 179.345154128,15.375509999999991 173.10015412799999,16.548209999999997 166.86775412799997,17.777559999999994 160.65915412799998,19.06187 154.48455412799998,20.400710000000004 148.351154128,21.79388999999999 142.263854128,23.241500000000002 136.22515412799999,24.743970000000004 130.235654128,26.302209999999988 124.297554128,27.91704 118.415354128,29.58842 112.596154128,31.315330000000003 106.849254128,33.095699999999994 101.185304128,34.926689999999994 95.616534128,36.80638999999999 90.154424128,38.732879999999994 84.809064128,40.70379 79.589034128,42.71635 74.50178412800001,44.76752 69.55881412800001,46.85318999999999 64.77832412800001,48.965349999999994 60.181524128,51.09238 55.78859412800001,53.2206 51.616124128,55.33644999999999 47.677174128000004,57.43006 43.978224128,59.49332 40.518564128,61.51948 37.291604128,63.50352 34.286734128,65.44218 31.495654127999998,67.33278999999999 28.914664128,69.17008 26.539284128,70.94757 24.361834127999998,72.65984999999999 22.371124127999998,74.30365 20.553484128,75.87804 18.894704128,77.38494 17.380364128,78.82916 15.995644128000002,80.21652 14.726574128000001,81.55285 13.560585128,82.84365 12.486632128,84.09385 11.495126127999999,85.30785 10.577784128,86.48947 9.728990128,87.64193 8.947210128,88.76691 8.231613128,89.86464 7.581147128,90.93451999999999 6.994255128,91.97566499999999 6.468788128,92.98719299999999 6.002038128,93.968459 5.590842128,94.919142 5.231730128,95.839272 4.921098728,96.72919999999999 4.656754128,97.58945 4.437982028,98.42201399999999 4.263611028,99.230829 4.132600728,100.020861 4.044524318,100.797656 4.0,101.5672215 4.003677484,102.334346 4.065116138,103.102037 4.198334128,103.87241999999999 4.433007328,104.637131 4.822049228,105.359383 5.361824128,106.021062 5.983351128,106.653832 6.672381128,107.274655 7.426474128000001,107.89228 8.243038128,108.515939 9.123092128,109.15339 10.072663127999999,109.810723 11.098551128,110.49584899999999 12.207898128,111.219345 13.407558128,111.99535999999999 14.706054128000002,112.8384 16.116944128,113.75887 17.655764128,114.76778999999999 19.339024128000002,115.87693999999999 21.183124127999996,117.09817 23.202674127999998,118.44215 25.408954127999998,119.91727 27.810254128,121.52962 30.417344128,123.28653 33.251664128,125.20106 36.339064128000004,127.28696 39.703114128,129.5539 43.36168412800001,132.00422 47.323784128,134.62991 51.589044128,137.41253 56.142784128,140.33043 60.950434128000005,143.3561 65.96246412800001,146.45529 71.124534128,149.59369999999998 76.390054128,152.74316 81.725924128,155.87896999999998 87.107624128,158.98052 92.51982412800001,162.03346 97.957524128,165.02985999999999 103.424484128,167.96818 108.924354128,170.84974999999997 114.456254128,173.67392 120.015154128,176.43783000000002 125.59095412799999,179.13664999999997 131.17045412800002,181.76353 136.743554128,184.31143 142.306054128,186.77634 147.860054128,189.15713 153.412854128,191.45493 158.976654128,193.67271999999997 164.561254128,195.81392 170.166354128,197.87833999999998 175.78045412799997,199.86194999999998 181.38145412799997,201.75785000000002 186.93825412799998,203.55743 192.417054128,205.24773 197.798054128,206.81463 203.078354128,208.25072999999998 208.267554128,209.55363 213.384754128,210.72323 218.45595412799997,211.76063 223.51055412799997,212.66973000000002 228.574654128,213.45992999999999 233.670254128,214.13823 238.81695412799996,214.70893 244.03205412799997,215.17443 249.33115412799998,215.53543000000002 254.727854128,215.79143 260.235654128,215.94493 265.866154128,215.99953 271.626554128,215.95943 277.518954128,215.82983000000002 283.53695412800005,215.61743 289.66415412800006,215.33112999999997 295.873854128,214.97773 302.139054128,214.55833 308.43735412800004,214.07413 314.75345412800004,213.52652999999998 321.079454128,212.91683 327.41575412800006,212.24563 333.77065412800005,211.51313 340.15635412800003,210.72033 346.583054128,209.86892999999998 353.05795412800006,208.96062999999998 359.584954128,207.99773 366.164254128,206.98333 372.791854128,205.92133 379.459854128,204.81563 386.15955412799997,203.66893 392.883554128,202.48372999999998 399.626054128,201.2626 406.383354128,200.00763999999998 413.153354128,198.72084 419.93615412800006,197.40382 426.733654128,196.05779 433.54775412800007,194.68380000000002 440.379954128,193.28300000000002 447.231154128,191.85665999999998 454.101754128,190.40618999999998 460.991554128,188.93317 467.89975412800004,187.43936 474.824754128,185.92647 481.76545412800004,184.39596 488.720354128,182.84922 495.688854128,181.28761 502.67015412800004,179.71244000000002 509.66405412800003,178.125 516.6706541279999,176.5265 523.690154128,174.91806 530.722654128,173.30070999999998 537.7677541279999,171.67558 544.824354128,170.04395 551.890854128,168.40726 558.964854128,166.76711 566.043554128,165.12528 573.1231541279999,163.48366 580.199854128,161.8441 587.270554128,160.20827 594.332554128,158.57764 601.384154128,156.95349 608.424354128,155.33695 615.4527541279999,153.72893 622.4696541279999,152.13022 629.476154128,150.54138999999998 636.473354128,148.96296 643.461954128,147.39546 650.442954128,145.83948 657.416654128,144.29563000000002 664.3834541279999,142.76456 671.3435541279999,141.24694 678.297054128,139.74349999999998 685.243754128,138.25495999999998 692.183554128,136.78208 699.1164541279999,135.32555 706.0423541279999,133.88609 712.9614541279999,132.46436 719.873754128,131.06104 726.7794541279999,129.67676 733.6787541279999,128.31216 740.571754128,126.96793 747.458454128,125.64473 754.338954128,124.34325999999999 761.2131541279999,123.06421999999999 768.080654128,121.80833 774.9413541280001,120.57629 781.794854128,119.36882 788.6407541279999,118.18678 795.478654128,117.03102 802.3083541279999,115.9024 809.1294541279999,114.80174 815.941854128,113.72982999999999 822.7454541279999,112.68746999999999 829.5401541279999,111.675422 836.325854128,110.694642 843.101654128,109.746217 849.866454128,108.831271 856.6187541279999,107.950948 863.3562541279999,107.10640099999999 870.076654128,106.298776 876.777054128,105.529431 883.454754128,104.800119 890.107554128,104.112503 896.7339541279999,103.468102 903.332654128,102.868308 909.9029541279999,102.3144044 916.443554128,101.80788674 922.9491541279999,101.350848 929.4083541279999,100.9455211 935.805254128,100.593963 942.119754128,100.297775 948.329554128,100.05946999999999 954.412054128,99.88518499999999 960.346854128,99.78007 966.116454128,99.747252 971.707454128,99.787984 977.106454128,99.902665 982.295954128,100.090332 987.257254128,100.347595 991.9749541279999,100.668748 996.432754128,101.0449053 1000.6107541279999,101.464687 1003.998354128,101.85453" stroke="black" stroke-width="2.0" /></svg>