<?xml version="1.0" encoding="utf-8" ?>
<svg baseProfile="full" height="264.2442" version="1.1" width="1011.997536498" xmlns="http://www.w3.org/2000/svg" xmlns:ev="http://www.w3.org/2001/xml-events" xmlns:xlink="http://www.w3.org/1999/xlink"><defs /><polygon fill="none" points="1003.997536498,110.9478 998.4077364980001,109.46665300000001 991.937336498,107.503792 985.341736498,105.345009 978.587136498,103.049471 971.676336498,100.65183 964.632936498,98.19428 957.489836498,95.71411 950.270636498,93.2453 942.9868364980001,90.81515 935.6409364980001,88.43928 928.224936498,86.12870000000001 920.719236498,83.89086 913.0979364980001,81.72148 905.337036498,79.60986 897.414036498,77.54626 889.309336498,75.5216 881.006436498,73.5255 872.494936498,71.54719 863.774236498,69.57669 854.8565364980001,67.60575 845.7628364980001,65.63473 836.5139364980001,63.66819 827.127236498,61.709630000000004 817.615436498,59.761120000000005 807.986336498,57.823640000000005 798.247836498,55.898089999999996 788.4096364979999,53.98549 778.4832364980001,52.08702 768.481936498,50.20436 758.418636498,48.34011000000001 748.3052364980001,46.49660999999999 738.1516364980001,44.67580000000001 727.9662364980001,42.879189999999994 717.755836498,41.10824000000001 707.526736498,39.36444 697.2849364980001,37.64913 687.036036498,35.96355 676.785236498,34.30890000000001 666.5373364980001,32.686490000000006 656.2968364980001,31.097619999999992 646.0676364980001,29.543440000000004 635.8534364980001,28.024990000000003 625.657436498,26.543319999999994 615.482636498,25.09957 605.3316364980001,23.694860000000006 595.2071364980001,22.33023 585.1115364980001,21.006620000000012 575.046936498,19.725009999999997 565.015636498,18.48648 555.019736498,17.292069999999995 545.061036498,16.142740000000003 535.141636498,15.0394 525.2633364980001,13.982950000000002 515.427936498,12.974400000000003 505.637236498,12.01473 495.893136498,11.104820000000004 486.197236498,10.245500000000007 476.551436498,9.437600000000003 466.95753649799997,8.682000000000002 457.417636498,7.979799999999997 447.933836498,7.331800000000001 438.50873649799996,6.738700000000009 429.144836498,6.2013999999999925 419.844436498,5.720799999999997 410.609836498,5.297600000000003 401.44243649799995,4.932900000000004 392.343336498,4.627099999999999 383.31333649799996,4.380899999999997 374.35293649799996,4.194800000000001 365.464136498,4.069000000000003 356.64983649799996,4.004099999999994 347.91453649799996,4.0 339.26323649799997,4.0567999999999955 330.701936498,4.174599999999998 322.23583649799997,4.354900000000001 313.867336498,4.599599999999995 305.596836498,4.910299999999992 297.42243649799997,5.288199999999989 289.340736498,5.734800000000007 281.347836498,6.250199999999992 273.440536498,6.833200000000005 265.616936498,7.4827999999999975 257.876436498,8.19789999999999 250.219136498,8.977100000000007 242.645936498,9.819000000000003 235.159636498,10.720400000000012 227.765236498,11.677890000000005 220.469936498,12.68732 213.28243649799998,13.744320000000002 206.212736498,14.844090000000008 199.270836498,15.982579999999999 192.46653649799998,17.156800000000004 185.80813649799998,18.36366000000001 179.302336498,19.599959999999996 172.95423649799997,20.86245000000001 166.767636498,22.147899999999993 160.74523649799997,23.45329000000001 154.88943649799998,24.775620000000004 149.202236498,26.111729999999994 143.68493649799998,27.458479999999994 138.33793649799998,28.812740000000005 133.160736498,30.171539999999993 128.151836498,31.532500000000013 123.309536498,32.893969999999996 118.631136498,34.25441000000001 114.113336498,35.61233 109.75203649800001,36.966390000000004 105.54283649800001,38.31533 101.480696498,39.65805 97.560636498,40.99374 93.777856498,42.321870000000004 90.127596498,43.64191000000001 86.60510649800001,44.95334 83.205616498,46.255669999999995 79.92439649800001,47.54844 76.756716498,48.83126 73.697926498,50.103790000000004 70.743656498,51.36603 67.890056498,52.61856 65.133306498,53.861920000000005 62.469636498,55.09658 59.895326498,56.32293 57.406726498000005,57.54133 55.000296498000004,58.75208 52.672606498,59.95545 50.420326498,61.15168 48.240366498,62.34104 46.130236498,63.52406 44.087576498000004,64.70129 42.110046498,65.8732 40.195356498,67.04024000000001 38.341276498,68.20277999999999 36.545606498,69.36118 34.806256497999996,70.51574 33.121176498,71.66675000000001 31.488416497999996,72.81446 29.906096498,73.95911000000001 28.372886498,75.10114 26.887756497999998,76.24106 25.449706497999998,77.37936 24.057716497999998,78.51641000000001 22.710796497999997,79.65256 21.407946498,80.7881 20.148176497999998,81.92328 18.930496498,83.05831 17.753956498,84.19336 16.617586498,85.3286 15.520526498,86.46415 14.463286498,87.6005 13.447302498,88.73843 12.473778498000001,89.87873 11.543680498,91.0222 10.657781498,92.16963 9.816702498,93.32179 9.020943498,94.47945 8.270912498,95.64339 7.567158498,96.81438 6.912570498,97.99328 6.311020498,99.18117000000001 5.765895498,100.38051 5.292781498,101.593284 4.909114998,102.821798 4.615377698,104.06428 4.393939198,105.312931 4.228407698,106.559467 4.110726198,107.800469 4.036229538,109.03620000000001 4.000601323,110.2686971 4.0,111.5006912 4.031197818,112.734641 4.092723588,113.97314 4.184074798,115.218789 4.304975798,116.474013 4.455337198,117.741084 4.635222798,119.022127 4.8448165979999995,120.319109 5.084385498,121.63381 5.354237498,122.96776 5.654662498,124.3222 5.985865498,125.69791000000001 6.3478744979999995,127.09514 6.7404704980000005,128.5134 7.163737498,129.95193 7.618053498,131.41008 8.103708498,132.88718 8.620883498,134.38257 9.169667497999999,135.89562 9.750065498,137.42577 10.362013498,138.97257 11.005407498,140.53573 11.680129498,142.11516 12.386079498,143.71106 13.123224498,145.32392 13.891886498,146.95454 14.693086498,148.60377 15.527976498,150.2724 16.397736498,151.9612 17.303576497999998,153.67092 18.246706498,155.40221 19.228326498,157.15567 20.249596498,158.93175 21.311626498,160.73077 22.415396498,162.55284 23.561736498,164.39783 24.751586497999998,166.2653 25.985996498,168.15466 27.266036498,170.06522999999999 28.592706498,171.99626 29.966996497999997,173.94693999999998 31.389876498,175.91640999999998 32.862286498,177.90377 34.385166498,179.90811 35.959466498,181.92851000000002 37.586186498000004,183.96406000000002 39.266406498,186.01379 41.001126498000005,188.07657999999998 42.791286498000005,190.15118999999999 44.637716498,192.23624999999998 46.541126498000004,194.33024 48.502106498,196.43153 50.521086498,198.53833 52.59835649800001,200.64870000000002 54.734126498,202.76058 56.928536498,204.8717 59.181496498,206.97965 61.492716498,209.08186 63.861636498,211.1756 66.287436498,213.2581 68.769056498,215.3265 71.30516649799999,217.3776 73.89470649799999,219.40750000000003 76.53714649800001,221.41140000000001 79.232196498,223.38479999999998 81.97990649799999,225.32330000000002 84.780746498,227.2228 87.635616498,229.0796 90.546026498,230.89 93.513746498,232.65109999999999 96.53954649799999,234.3616 99.623786498,236.02030000000002 102.766816498,237.62599999999998 105.968836498,239.1775 109.230136498,240.67309999999998 112.550736498,242.11120000000003 115.93053649800001,243.49 119.369636498,244.80780000000001 122.86813649800001,246.063 126.426436498,247.25390000000002 130.045036498,248.3787 133.724636498,249.4357 137.46613649799997,250.423 141.270636498,251.3384 145.139836498,252.18030000000002 149.075536498,252.94750000000002 153.080036498,253.6387 157.15653649799998,254.2523 161.308536498,254.78650000000002 165.54063649799997,255.2393 169.858336498,255.60829999999999 174.268736498,255.8923 178.780136498,256.09220000000005 183.400536498,256.2092 188.13743649799997,256.2442 192.99723649799998,256.1989 197.984636498,256.07500000000005 203.102036498,255.87539999999998 208.349736498,255.6002 213.72833649799998,255.24699999999999 219.238336498,254.8131 224.88093649799998,254.2964 230.65803649799997,253.6947 236.572736498,253.006 242.63003649799998,252.2281 248.83613649799997,251.3588 255.19713649800002,250.3957 261.718836498,249.337 268.40593649799996,248.181 275.262136498,246.9271 282.28933649799995,245.5748 289.488536498,244.1232 296.86043649799996,242.571 304.405436498,240.9178 312.124036498,239.16330000000002 320.017136498,237.30810000000002 328.086136498,235.3527 336.332236498,233.29700000000003 344.756236498,231.14170000000001 353.357836498,228.88830000000002 362.135736498,226.53879999999998 371.08763649799994,224.0966 380.210336498,221.56459999999998 389.499736498,218.9461 398.951536498,216.2449 408.560836498,213.4656 418.323236498,210.61328 428.23333649799997,207.6932 438.28253649799996,204.71145 448.457036498,201.67606999999998 458.737336498,198.59726999999998 469.097736498,195.4875 479.507336498,192.36072000000001 489.935936498,189.23016 500.358236498,186.10753 510.75443649799996,183.00274000000002 521.1110364980001,179.92379 531.419936498,176.87671 541.6763364980001,173.86598 551.876736498,170.89547 562.0182364980001,167.96863000000002 572.099036498,165.08855 582.1179364980001,162.25792 592.0744364980001,159.47902 601.968136498,156.75377 611.799136498,154.0839 621.567736498,151.47095000000002 631.274336498,148.91631 640.9198364980001,146.4212 650.504936498,143.98672 660.030136498,141.61391 669.495836498,139.30377000000001 678.9023364980001,137.05723 688.2497364980001,134.87521 697.5382364980001,132.75853 706.7674364979999,130.70809 715.937036498,128.72482 725.0461364980001,126.80962 734.0938364980001,124.96332 743.0789364980001,123.18671 752.000136498,121.4805 760.855836498,119.845462 769.6444364980001,118.282522 778.364036498,116.792476 787.0128364980001,115.37599900000001 795.5888364980001,114.033625 804.090336498,112.765755 812.515236498,111.5728377 820.861036498,110.4556018 829.124836498,109.41470100000001 837.303236498,108.450631 845.3923364980001,107.563693 853.388436498,106.753978 861.287536498,106.021718 869.086336498,105.367761 876.7827364980001,104.7927 884.3755364980001,104.29678200000001 891.8646364980001,103.879966 899.250736498,103.541997 906.5345364980001,103.282804 913.7157364980001,103.102733 920.7925364980001,103.00195 927.7623364980001,102.980323 934.621436498,103.037368 941.3660364980001,103.173811 947.9942364980001,103.397708 954.5105364980001,103.718683 960.9245364980001,104.145873 967.250236498,104.688512 973.504336498,105.357863 979.709236498,106.169819 985.898836498,107.144814 992.120536498,108.306832 998.4303364980001,109.652196 1003.997536498,110.9478" stroke="black" stroke-width="2.0" /></svg>