<?xml version="1.0" encoding="utf-8" ?>
<svg baseProfile="full" height="172.07729" version="1.1" width="1011.98194878" xmlns="http://www.w3.org/2000/svg" xmlns:ev="http://www.w3.org/2001/xml-events" xmlns:xlink="http://www.w3.org/1999/xlink"><defs /><polygon fill="none" points="1003.98194878,91.95805 1000.4550487800001,91.8084386 995.97714878,91.461533 991.07844878,90.919187 985.8300487800001,90.211878 980.32974878,89.376901 974.67964878,88.432408 968.95624878,87.397511 963.18664878,86.286027 957.36874878,85.104782 951.50124878,83.86047500000001 945.58654878,82.56118000000001 939.63134878,81.21618 933.6453487800001,79.83283 927.63704878,78.41709 921.6130487800001,76.97475 915.57794878,75.51129 909.53384878,74.03146 903.48214878,72.53772000000001 897.4238487800001,71.03173 891.3600487799999,69.5151 885.2915487800001,67.98944 879.2191487800001,66.45634 873.1435487800001,64.91705999999999 867.06534878,63.37226 860.98554878,61.822540000000004 854.9046487800001,60.26851 848.82354878,58.710770000000004 842.7426487800001,57.149899999999995 836.66264878,55.58673 830.58394878,54.02266 824.50684878,52.45917 818.43184878,50.89775 812.35944878,49.339870000000005 806.29004878,47.787040000000005 800.22404878,46.24073 794.16194878,44.702529999999996 788.1041487800001,43.17407 782.0511487800001,41.65696 776.00324878,40.15278 769.9608487800001,38.66311 763.92414878,37.18949 757.8935487800001,35.73345 751.86914878,34.29682 745.8508487800001,32.881460000000004 739.83844878,31.48919 733.8312487800001,30.121719999999996 727.82844878,28.78071 721.82884878,27.467749999999995 715.83134878,26.184349999999995 709.8345487800001,24.931609999999992 703.83764878,23.710399999999993 697.8400487800001,22.52167 691.84154878,21.36641999999999 685.84204878,20.24571999999999 679.84204878,19.16067000000001 673.84214878,18.11242 667.8432487800001,17.102160000000012 661.84614878,16.131069999999994 655.8509487800001,15.200240000000008 649.85734878,14.310670000000002 643.8644487800001,13.463260000000005 637.87054878,12.658900000000003 631.87384878,11.898430000000005 625.8717487800001,11.182450000000003 619.86174878,10.509910000000005 613.84174878,9.879180000000005 607.81024878,9.288719999999998 601.76614878,8.737049999999996 595.7087487800001,8.22278999999999 589.63794878,7.744590000000002 583.5540487800001,7.301159999999996 577.4578487800001,6.891220000000004 571.35014878,6.513570000000001 565.2317487800001,6.166989999999998 559.1036487800001,5.850239999999999 552.96664878,5.562049999999999 546.8219487800001,5.3011399999999895 540.67054878,5.066199999999995 534.5135487800001,4.855899999999991 528.35194878,4.669450000000012 522.18684878,4.506550000000004 516.01874878,4.366899999999987 509.84854878000004,4.250199999999992 503.67644878,4.156149999999997 497.50294878,4.084429999999998 491.32814878,4.034700000000001 485.15204878,4.006659999999997 478.97454877999996,4.0 472.79554878,4.01446 466.61504878,4.049800000000005 460.43304878,4.105730000000008 454.24974878,4.182010000000005 448.06514878,4.2783700000000096 441.87954878,4.394529999999989 435.69304877999997,4.530259999999998 429.50604878,4.685389999999998 423.31874877999996,4.8598400000000055 417.13134878,5.0534899999999965 410.94404878,5.266249999999999 404.75704878,5.498009999999994 398.57054877999997,5.748660000000001 392.38454878,6.018109999999993 386.19914878,6.306250000000006 380.01464877999996,6.6130799999999965 373.83084877999994,6.938589999999991 367.64814878,7.282769999999999 361.46644877999995,7.645609999999991 355.28594878,8.027119999999996 349.10664878,8.427279999999996 342.92884877999995,8.846090000000004 336.75264877999996,9.283559999999994 330.57804877999996,9.739810000000006 324.40534878,10.214920000000006 318.23464878,10.70899 312.06614877999993,11.222099999999998 305.90004878,11.754360000000005 299.73664877999994,12.305840000000003 293.57604878,12.876639999999995 287.41854878,13.46696999999999 281.26434878,14.077100000000002 275.11374878,14.707269999999994 268.96694878,15.35775000000001 262.82404878,16.02879 256.68524878000005,16.720659999999995 250.55074878000002,17.43361 244.42054878000002,18.16798999999999 238.29514878,18.924210000000002 232.17464878,19.702659999999995 226.05954878,20.503740000000008 219.95024878,21.32781 213.84724878,22.175219999999996 207.75104878000002,23.04634 201.66244878,23.941770000000005 195.58204878,24.862229999999997 189.51034878000002,25.80847 183.44784878000002,26.78121999999999 177.39494878000002,27.781230000000008 171.35194878000001,28.80924999999999 165.31914878,29.86616 159.29724878,30.953069999999997 153.28714878,32.07101 147.29024878,33.22096 141.30824878,34.403780000000005 135.34304878000003,35.62022 129.39704877999998,36.87136 123.47264878,38.15907 117.57194878,39.48534 111.69634878,40.85219 105.84704878,42.26171 100.02448878,43.71614 94.23072877999999,45.21841 88.47027878,46.77109 82.75029878,48.37582 77.08031878,50.033170000000005 71.47213878000001,51.743280000000006 65.94064878,53.50961 60.50098878,55.33622 55.16721878,57.22607 49.95210878,59.181070000000005 44.87522878,61.2025 39.978618780000005,63.28315 35.31845878,65.40283 30.94866878,67.53338 26.92677878,69.64635 23.318688780000002,71.7033 20.15396878,73.6651 17.413858779999998,75.50905 15.063938779999999,77.23076 13.07682178,78.82705 11.41071578,80.29719 10.01395378,81.64863 8.83630178,82.893905 7.83833478,84.046689 6.9976427800000005,85.118668 6.29476378,86.118973 5.71109178,87.055464 5.22974178,87.935167 4.83593818,88.764362 4.5174284799999995,89.548585 4.27145678,90.292383 4.09820718,91.0027377 4.0,91.6883835 4.00174288,92.3527539 4.12815028,93.01288 4.37023738,93.693593 4.70550278,94.404236 5.12464778,95.13981 5.63210578,95.902592 6.237045780000001,96.707476 6.951098780000001,97.56881 7.79700178,98.495208 8.80346378,99.494388 10.00207778,100.572379 11.42282078,101.731523 13.087909779999999,102.9701 15.01272878,104.28879 17.233878779999998,105.69726 19.81330878,107.20436000000001 22.81479878,108.814 26.286418779999998,110.52177 30.24256878,112.31432 34.65434878,114.15706 39.43036878,115.99737 44.44826878000001,117.79113000000001 49.62540878,119.52354 54.938438780000006,121.1943 60.373588780000006,122.80327 65.91548878,124.35178 71.54782877999999,125.84248 77.25511877999999,127.27713 83.02355877999999,128.65695 88.84105878,129.98437 94.69777878,131.26299 100.58657878,132.49704 106.50324877999999,133.68893 112.44464878,134.84018 118.40804878,135.95256 124.39124878,137.02798 130.39254878000003,138.06851 136.41064878000003,139.07596 142.44474878,140.05172 148.49354878,140.99718000000001 154.55604878,141.91374 160.63094878,142.80283 166.71694878,143.66586 172.81264878000002,144.50385 178.91714878000002,145.31743 185.02954878000003,146.10724 191.14914878000002,146.87396 197.27524878,147.61831 203.40754878,148.34104 209.54584878,149.04286 215.68994878,149.72435000000002 221.83964878,150.38604 227.99474878,151.02847 234.15504878000002,151.65217 240.32004878,152.25767 246.48944878,152.84551 252.66284878000002,153.41612 258.83974878000004,153.96978000000001 265.01984877999996,154.50671 271.20284877999995,155.02715 277.38854878,155.53135 283.57684878,156.01957 289.76744878,156.49206 295.96044878,156.94908 302.15564878,157.39083 308.35304878,157.8175 314.55254877999994,158.22926999999999 320.75414878,158.62632000000002 326.95774878,159.00884 333.16314878,159.37700999999998 339.37024877999994,159.731 345.57884878,160.07097 351.78874878,160.39696 357.99984878,160.70904000000002 364.21214878,161.00725 370.42524878,161.29164 376.63924878,161.56227 382.85394878,161.81919 389.06924878,162.06247000000002 395.28494878,162.29211 401.50114878,162.50808999999998 407.71754877999996,162.71038 413.93424877999996,162.89892 420.15114877999997,163.07369 426.36814877999996,163.23465 432.58524878000003,163.38177000000002 438.80234878,163.51502 445.01964877999995,163.63432999999998 451.23684878,163.73962999999998 457.45394877999996,163.83083 463.67094878,163.90785 469.88774878,163.97061000000002 476.10404877999997,164.01902 482.31974877999994,164.053 488.53474878,164.07246 494.74874877999997,164.07729 500.96144878,164.06725 507.17294878,164.04213 513.38284878,164.00169 519.5912487800001,163.9457 525.79814878,163.87394 532.0035487800001,163.78617 538.20744878,163.68218000000002 544.4101487800001,163.5617 550.61144878,163.42444999999998 556.8113487800001,163.27014 563.00974878,163.09849 569.2060487800001,162.90921 575.4000487800001,162.70202999999998 581.59084878,162.4767 587.77794878,162.23295000000002 593.96034878,161.97033 600.13724878,161.68788 606.30784878,161.38458 612.47154878,161.05943000000002 618.62784878,160.71143 624.7762487800001,160.33959 630.91674878,159.9429 637.04904878,159.52039 643.17314878,159.07109 649.28894878,158.59413 655.3966487800001,158.08859999999999 661.4963487800001,157.55360000000002 667.5882487800001,156.98821 673.6727487800001,156.39152 679.7501487800001,155.76257 685.82094878,155.10048 691.88574878,154.40491 697.9450487800001,153.67572 703.99914878,152.91275000000002 710.0484487800001,152.11587 716.0931487800001,151.28492 722.1335487800001,150.41974 728.16984878,149.5202 734.20204878,148.58643 740.23054878,147.61884 746.2556487800001,146.61785 752.27764878,145.58384999999998 758.2970487800001,144.51721 764.31434878,143.41829 770.33004878,142.28742 776.34484878,141.12521 782.3594487800001,139.93264 788.37454878,138.7107 794.39054878,137.46043 800.40794878,136.18289 806.42694878,134.87914 812.4477487800001,133.55033 818.4705487800001,132.19779 824.49594878,130.82299 830.52464878,129.42731 836.55774878,128.01211 842.5964487800001,126.57869 848.64234878,125.12828 854.6970487799999,123.66223 860.7616487800001,122.18226 866.8363487800001,120.6904 872.9200487800001,119.18898 879.0105487800001,117.68064 885.10464878,116.16833 891.19804878,114.65532 897.2869487800001,113.14493 903.3681487800001,111.64029 909.4392487800001,110.1443 915.4986487799999,108.65964 921.54544878,107.18919 927.57834878,105.73776000000001 933.59374878,104.31104 939.5858487800001,102.91513 945.54664878,101.55633399999999 951.46684878,100.241998 957.33944878,98.981568 963.16134878,97.783434 968.93344878,96.654577 974.65764878,95.601844 980.3087487800001,94.6387 985.81194878,93.784315 991.0656487800001,93.057074 995.9709487800001,92.4939009 1000.45384878,92.1258744 1003.98194878,91.95805" stroke="black" stroke-width="2.0" /></svg>