<?xml version="1.0" encoding="utf-8" ?>
<svg baseProfile="full" height="99.40496" version="1.1" width="1012.000738407" xmlns="http://www.w3.org/2000/svg" xmlns:ev="http://www.w3.org/2001/xml-events" xmlns:xlink="http://www.w3.org/1999/xlink"><defs /><polygon fill="none" points="1004.000738407,78.19785 1000.8324384069999,77.79621110000001 996.463638407,77.16499 991.443138407,76.381756 986.0257384070001,75.487973 980.390838407,74.516103 974.6285384070001,73.487707 968.7948384069999,72.419543 962.921138407,71.32187 957.023938407,70.20228300000001 951.108338407,69.065349 945.176738407,67.91447 939.230738407,66.75292999999999 933.272238407,65.5835 927.3039384069999,64.40881 921.3301384069999,63.23174 915.3563384070001,62.055220000000006 909.386938407,60.88153 903.424538407,59.71244 897.469038407,58.54927000000001 891.519138407,57.39285 885.573138407,56.24380000000001 879.630138407,55.10283 873.689338407,53.97075 867.750938407,52.84835 861.8147384069999,51.736290000000004 855.880238407,50.635130000000004 849.946738407,49.54535 844.0131384069999,48.46735 838.0783384069999,47.40114 832.1414384069999,46.346630000000005 826.202438407,45.30378 820.261538407,44.272670000000005 814.3194384069999,43.25349 808.376838407,42.24676 802.434538407,41.253080000000004 796.492938407,40.27301 790.552338407,39.30705 784.612638407,38.35568 778.673838407,37.419250000000005 772.735438407,36.49806 766.796738407,35.592380000000006 760.856838407,34.70244 754.9145384069999,33.82841 748.968538407,32.970020000000005 743.017938407,32.12661000000001 737.0621384069999,31.297580000000004 731.101038407,30.482350000000004 725.134638407,29.680440000000004 719.1635384069999,28.89141 713.188538407,28.115040000000008 707.210038407,27.35112 701.228638407,26.599430000000005 695.244638407,25.85973 689.2582384069999,25.13176 683.2696384069999,24.415330000000004 677.278938407,23.71038 671.286338407,23.016870000000004 665.292038407,22.334760000000003 659.2963384069999,21.664040000000007 653.299738407,21.00466 647.302338407,20.35669 641.304638407,19.720259999999996 635.306438407,19.0955 629.3079384069999,18.482510000000005 623.308638407,17.881380000000007 617.308338407,17.292190000000005 611.306238407,16.714880000000008 605.3021384069999,16.14927 599.2958384069999,15.595180000000006 593.287338407,15.052460000000004 587.277138407,14.520989999999998 581.265538407,14.000650000000007 575.253338407,13.491500000000002 569.241138407,12.99382 563.229438407,12.507909999999995 557.218438407,12.034040000000005 551.208238407,11.572459999999992 545.198638407,11.123419999999996 539.1894384069999,10.687100000000015 533.180438407,10.263570000000001 527.1711384070001,9.852890000000002 521.161538407,9.45514 515.151138407,9.07038 509.139938407,8.69869 503.127538407,8.340130000000002 497.11403840699995,7.9946800000000025 491.09933840699995,7.66234 485.08363840699997,7.343100000000007 479.06733840699997,7.0369500000000045 473.050838407,6.7438900000000075 467.034838407,6.463999999999999 461.019838407,6.197569999999999 455.006338407,5.945000000000007 448.994538407,5.706659999999999 442.98433840699994,5.48290999999999 436.97583840699997,5.274119999999996 430.96843840699995,5.080610000000007 424.96183840699996,4.902560000000008 418.955638407,4.7400499999999965 412.949738407,4.593209999999999 406.943838407,4.462150000000008 400.93793840699993,4.346970000000013 394.93223840699994,4.247820000000004 388.926838407,4.164890000000014 382.92193840699997,4.098410000000001 376.918038407,4.04862 370.915538407,4.015740000000008 364.915038407,4.0 358.917238407,4.001640000000009 352.92263840699997,4.021109999999993 346.93153840699995,4.058930000000004 340.943838407,4.115620000000007 334.959238407,4.191699999999997 328.97703840699995,4.287680000000009 322.99613840699993,4.4040099999999995 317.01573840699996,4.540770000000009 311.035538407,4.697980000000001 305.055638407,4.875649999999993 299.07683840699997,5.073779999999999 293.100138407,5.292360000000002 287.12713840699996,5.531760000000006 281.159138407,5.792770000000004 275.197238407,6.0762 269.24193840699996,6.382840000000002 263.29363840699995,6.713529999999992 257.352038407,7.069030000000012 251.416938407,7.4500500000000045 245.48803840699998,7.857240000000004 239.564638407,8.291309999999996 233.646038407,8.75294000000001 227.731438407,9.242850000000004 221.820338407,9.761510000000001 215.91293840699998,10.30923 210.010138407,10.886250000000004 204.11403840699998,11.4927 198.22703840699998,12.12876 192.352138407,12.795490000000001 186.491338407,13.494410000000002 180.645438407,14.227110000000003 174.814438407,14.995270000000005 168.997338407,15.800550000000001 163.193238407,16.644199999999998 157.401538407,17.527330000000006 151.622438407,18.451000000000008 145.856338407,19.41619 140.10483840700002,20.424150000000004 134.370238407,21.476170000000003 128.655938407,22.57331 122.966138407,23.716340000000002 117.305738407,24.906640000000003 111.678238407,26.14685 106.084538407,27.440090000000005 100.523228407,28.789990000000003 94.991838407,30.19977 89.490528407,31.671329999999998 84.023218407,33.20549 78.597568407,34.80239 73.225718407,36.46438 67.922828407,38.19362 62.705758407,39.99051 57.589168407,41.85629 52.572928407,43.79809 47.639768407000005,45.830070000000006 42.774168407,47.96722 38.022268407,50.196490000000004 33.496428406999996,52.46562 29.287448407,54.731320000000004 25.358738406999997,57.017630000000004 21.612328407,59.39003 18.162328407,61.77928 15.323238407,63.923190000000005 13.136641407,65.72712 11.395828407,67.31792 9.940026407000001,68.807501 8.671504407,70.272103 7.553027407,71.702333 6.6110374069999995,72.997332 5.846892407,74.096298 5.2319774070000005,75.014861 4.758111807,75.804624 4.409195907,76.514031 4.170246207,77.175979 4.033786237,77.8136235 4.0,78.4457646 4.067818857,79.0844045 4.232175807,79.732056 4.494760407,80.387883 4.863731007,81.046648 5.353288407,81.694564 5.982389407,82.30423400000001 6.777758407,82.860499 7.7758214070000005,83.363125 9.021218407,83.82212100000001 10.558257407,84.275882 12.413898407,84.807381 14.638968407,85.445116 17.245958407,86.154818 20.214318406999997,86.857678 23.629318407,87.509343 27.653348407,88.12047700000001 32.388328407,88.70952 37.650858407,89.26225000000001 43.095748407,89.73548 48.570138407,90.12311 54.132378407,90.44099 59.828778407,90.70273 65.64442840699999,90.91882 71.520168407,91.09249 77.410138407,91.22478000000001 83.298178407,91.31841 89.19436840700001,91.37704000000001 95.112558407,91.40462 101.05904840699999,91.40496 107.031838407,91.38188 113.02223840699999,91.33807 119.022138407,91.27489 125.026738407,91.19373 131.03423840699998,91.09596 137.046238407,90.98287 143.064538407,90.85567 149.090038407,90.71553 155.123038407,90.56368 161.16223840700002,90.40135000000001 167.206138407,90.22942 173.253338407,90.04847000000001 179.302838407,89.85906 185.354238407,89.66174000000001 191.40763840699998,89.45704 197.463538407,89.24549 203.522238407,89.0276 209.583938407,88.80391 215.648438407,88.57493000000001 221.71543840700002,88.34122 227.78463840700002,88.103249 233.855438407,87.861318 239.927538407,87.615697 246.000738407,87.366654 252.075038407,87.114451 258.15043840699997,86.859345 264.227138407,86.601611 270.30533840699997,86.341542 276.385138407,86.079433 282.46663840699995,85.815585 288.54973840699995,85.550299 294.63443840699995,85.283877 300.72053840699994,85.016542 306.807938407,84.748457 312.896338407,84.479787 318.985338407,84.210699 325.074738407,83.941363 331.16413840699994,83.67195000000001 337.25283840699996,83.402662 343.34073840699995,83.13372700000001 349.42743840699995,82.865373 355.51283840699995,82.597821 361.5969384069999,82.331287 367.679838407,82.06598100000001 373.761738407,81.802093 379.84293840699996,81.539738 385.923638407,81.27901200000001 392.003838407,81.020016 398.083738407,80.762854 404.16313840699996,80.507631 410.24213840699997,80.254457 416.320438407,80.003463 422.39793840699997,79.754807 428.474638407,79.508647 434.55043840699994,79.265139 440.62553840699996,79.0244339 446.699938407,78.7866829 452.77373840699994,78.5520312 458.84743840699997,78.3205926 464.92083840699996,78.0924605 470.994138407,77.86773170000001 477.06713840699996,77.6465074 483.139738407,77.4288921 489.21143840699995,77.2149939 495.2819384069999,77.00494400000001 501.350738407,76.79904400000001 507.4176384069999,76.597667 513.482438407,76.40118100000001 519.545138407,76.20994900000001 525.606038407,76.024327 531.665438407,75.844666 537.7239384069999,75.671259 543.781938407,75.504103 549.8401384069999,75.343097 555.898838407,75.188145 561.9585384069999,75.03915500000001 568.019238407,74.896037 574.081338407,74.758705 580.1449384069999,74.627048 586.209938407,74.50086900000001 592.2764384069999,74.379947 598.3443384069999,74.264064 604.4135384069999,74.153004 610.483838407,74.046547 616.555038407,73.944477 622.6268384069999,73.846649 628.699038407,73.753055 634.771438407,73.663701 640.843838407,73.57859 646.916138407,73.497727 652.988238407,73.421113 659.060038407,73.348754 665.131638407,73.28067 671.203038407,73.216897 677.274138407,73.157471 683.3451384069999,73.10243 689.416038407,73.051807 695.4868384069999,73.005641 701.557838407,72.963954 707.628938407,72.926739 713.700338407,72.89398200000001 719.771838407,72.865671 725.8433384069999,72.84179400000001 731.9148384069999,72.822338 737.9860384069999,72.807303 744.056838407,72.79675900000001 750.127038407,72.790797 756.196638407,72.789508 762.265738407,72.792985 768.334438407,72.801317 774.402838407,72.814587 780.471338407,72.832812 786.539838407,72.855991 792.608438407,72.884122 798.6770384069999,72.917203 804.7454384069999,72.95523 810.813238407,72.99824100000001 816.880238407,73.046356 822.946338407,73.099707 829.011538407,73.158427 835.076138407,73.222652 841.140538407,73.29249300000001 847.205038407,73.367918 853.2699384069999,73.448843 859.3353384069999,73.53518100000001 865.401138407,73.626847 871.4673384069999,73.723761 877.5336384069999,73.82591000000001 883.599838407,73.933296 889.665638407,74.04592600000001 895.730938407,74.163805 901.7954384069999,74.287052 907.858738407,74.415937 913.920038407,74.55073300000001 919.9782384069999,74.691704 926.031838407,74.839376 932.0796384070001,74.994774 938.1203384070001,75.158969 944.153038407,75.33304 950.176838407,75.518285 956.189638407,75.716114 962.188138407,75.927902 968.1659384069999,76.155727 974.106238407,76.402046 979.9796384069999,76.66879 985.729838407,76.958194 991.2594384070001,77.2694481 996.375738407,77.5940666 1000.810138407,77.91719810000001 1004.000738407,78.19785000000002" stroke="black" stroke-width="2.0" /></svg>