<?xml version="1.0" encoding="utf-8" ?>
<svg baseProfile="full" height="109.01501999999999" version="1.1" width="1011.996469771" xmlns="http://www.w3.org/2000/svg" xmlns:ev="http://www.w3.org/2001/xml-events" xmlns:xlink="http://www.w3.org/1999/xlink"><defs /><polygon fill="none" points="1003.996469771,85.84903 1000.9231697710001,85.4261233 996.718369771,84.754425 991.838869771,83.918614 986.536769771,82.963294 980.9843697709999,81.914142 975.2371697709999,80.791271 969.3708697709999,79.621998 963.4613697709999,78.424319 957.5441697709999,77.205983 951.613769771,75.967825 945.6605697709999,74.71118 939.6863697709999,73.43988 933.7027697709999,72.15851 927.719669771,70.86932 921.739369771,69.57278 915.7567697709999,68.26804 909.764569771,66.95527 903.760569771,65.63622 897.7489697709999,64.314 891.739169771,62.99312 885.740669771,61.67832 879.758069771,60.373329999999996 873.790769771,59.080709999999996 867.8336697709999,57.80163 861.8802697709999,56.53523 855.925269771,55.280409999999996 849.965269771,54.03644 843.998369771,52.80299 838.024369771,51.57988 832.044169771,50.366929999999996 826.059369771,49.16412 820.072669771,47.97157 814.087169771,46.78965 808.106469771,45.61975 802.132569771,44.4638 796.166069771,43.32346 790.206369771,42.20008 784.251069771,41.09467 778.297269771,40.0073 772.3422697709999,38.93734 766.383669771,37.884260000000005 760.4192697709999,36.84761 754.447569771,35.82703 748.467069771,34.82197 742.4775697709999,33.83158 736.479269771,32.855109999999996 730.4735697709999,31.891929999999995 724.4628697709999,30.941580000000002 718.450269771,30.00385 712.438869771,29.07978 706.431069771,28.170699999999997 700.428069771,27.277810000000002 694.429969771,26.402099999999997 688.436169771,25.544449999999998 682.444869771,24.705309999999997 676.4544697709999,23.884500000000003 670.462969771,23.08180000000001 664.468769771,22.296979999999998 658.470069771,21.529870000000003 652.4650697709999,20.780299999999997 646.4523697709999,20.047719999999998 640.430969771,19.33122999999999 634.4010697709999,18.62997 628.363669771,17.943200000000004 622.320569771,17.27024999999999 616.274569771,16.610590000000002 610.228869771,15.964639999999989 604.186069771,15.333519999999993 598.147569771,14.718239999999994 592.1139697709999,14.119689999999991 586.0850697709999,13.538690000000003 580.059569771,12.975889999999993 574.035769771,12.431460000000001 568.0119697709999,11.905179999999987 561.9865697710001,11.396869999999993 555.958469771,10.906400000000005 549.926669771,10.43365 543.8902697709999,9.978539999999995 537.848669771,9.540719999999993 531.801669771,9.119659999999996 525.749669771,8.714860000000002 519.6932697709999,8.325859999999992 513.633469771,7.9521799999999985 507.571869771,7.593419999999995 501.510269771,7.249690000000001 495.449869771,6.921530000000004 489.39166977100007,6.609459999999999 483.336269771,6.313940000000002 477.28376977100004,6.035430000000005 471.233769771,5.774339999999995 465.185769771,5.530940000000001 459.138969771,5.305319999999995 453.092769771,5.097620000000006 447.04646977100003,4.90795 440.999669771,4.736449999999991 434.951469771,4.583259999999996 428.901569771,4.448310000000006 422.849669771,4.331419999999994 416.795769771,4.23236 410.740269771,4.150949999999995 404.68386977100005,4.08699 398.62746977100005,4.040300000000002 392.57226977100004,4.0111399999999975 386.51926977100004,4.0 380.469569771,4.007379999999998 374.42366977100005,4.033770000000004 368.382269771,4.079660000000004 362.345669771,4.145510000000002 356.31406977100005,4.231819999999999 350.28736977100004,4.339110000000005 344.26486977100006,4.467889999999997 338.24566977100005,4.618719999999996 332.228369771,4.792139999999989 326.211469771,4.98857000000001 320.19336977100005,5.207849999999993 314.173769771,5.449709999999996 308.152769771,5.713880000000003 302.131569771,6.000020000000006 296.112069771,6.307789999999997 290.09676977099997,6.637430000000009 284.087669771,6.989760000000004 278.086469771,7.3655800000000085 272.093869771,7.765749999999997 266.11026977100005,8.191109999999995 260.135369771,8.64251999999999 254.168669771,9.120769999999993 248.209669771,9.626649999999998 242.25796977099998,10.160960000000003 236.312769771,10.724519999999998 230.37366977099998,11.318070000000006 224.440069771,11.942039999999992 218.511869771,12.596739999999997 212.58936977099998,13.282439999999994 206.67316977099998,13.999350000000007 200.76416977099998,14.747779999999992 194.863869771,15.52843 188.973969771,16.342029999999994 183.09656977100002,17.189229999999995 177.233769771,18.0706 171.38836977100001,18.98702999999999 165.56246977099997,19.940160000000006 159.757669771,20.93177 153.974269771,21.963779999999993 148.212269771,23.038129999999995 142.470869771,24.156440000000003 136.749469771,25.320179999999993 131.047069771,26.53082 125.363069771,27.789859999999997 119.69736977099998,29.098730000000003 114.05226977099998,30.458289999999998 108.43266977100001,31.86862 102.846039771,33.32907 97.301909771,34.84034 91.807959771,36.405069999999995 86.368749771,38.026469999999996 80.98613977099998,39.708279999999995 75.66169977099999,41.45452 70.398559771,43.2686 65.201379771,45.153110000000005 60.075969771,47.109579999999994 55.027809771,49.13905 50.061039771,51.24266 45.186209771,53.422459999999994 40.44965977100001,55.669619999999995 35.932169771,57.952 31.706619771,60.23429 27.766039771000003,62.520979999999994 24.041969771,64.85304 20.538759771000002,67.23142999999999 17.478399771,69.48582 15.010109771,71.45078 13.043096770999998,73.15573 11.414930771000002,74.70551999999999 10.014156771,76.181001 8.771129771,77.631325 7.676201771000001,79.02250599999999 6.752567771,80.274103 5.993721771000001,81.34969699999999 5.375363771,82.266111 4.889823771,83.066828 4.520951871,83.792666 4.254275571,84.472267 4.081400241,85.1261469 4.0,85.77079075 4.011965111,86.419945 4.114098971,87.077061 4.305603671,87.740005 4.591244571,88.403331 4.980944871,89.055918 5.489466771,89.676816 6.135150771,90.248681 6.940800771,90.772819 7.935816771000001,91.256491 9.155454770999999,91.718152 10.628874771,92.203552 12.374463770999999,92.774321 14.429719770999998,93.437085 16.791349771,94.156947 19.442229771,94.871479 22.462159771,95.551003 26.001199771,96.20909 30.234549771,96.86816999999999 35.138189771,97.52822 40.399009770999996,98.13332 45.741109771,98.65156 51.167979771,99.09336 56.748719771000005,99.47467 62.494569770999995,99.80681 68.34732977099999,100.09457 74.23913977099998,100.33682 80.134399771,100.53498 86.034079771,100.69248999999999 91.955909771,100.81378 97.911219771,100.90305 103.901829771,100.96431 109.920269771,101.00101 115.956569771,101.01501999999999 122.00326977099999,101.00807 128.056369771,100.98198 134.11516977099998,100.9385 140.180369771,100.87882 146.252769771,100.80396999999999 152.33246977099998,100.71497 158.41906977099998,100.61287 164.511969771,100.49861 170.610269771,100.37298 176.713369771,100.23676 182.82066977099998,100.09075 188.93166977099997,99.93572 195.046269771,99.77234 201.16386977099998,99.6011 207.28446977099998,99.42247 213.40776977099998,99.23694 219.533469771,99.04498 225.661469771,98.84705 231.79156977099998,98.64348 237.923569771,98.43459 244.057469771,98.22071 250.192969771,98.00216 256.330069771,97.77925 262.468869771,97.55229 268.609169771,97.32154 274.75096977100003,97.08727999999999 280.894469771,96.84979 287.039569771,96.60933 293.186469771,96.36617 299.335269771,96.1206 305.486069771,95.87292 311.638769771,95.623422 317.793269771,95.372418 323.949369771,95.120214 330.106969771,94.867115 336.265569771,94.613299 342.42486977100003,94.358837 348.58466977100005,94.103794 354.744669771,93.848233 360.90466977100004,93.59222 367.064269771,93.335816 373.223369771,93.079142 379.381769771,92.822431 385.53946977100003,92.565923 391.696269771,92.30986 397.852269771,92.054478 404.007569771,91.800012 410.16216977100004,91.54668099999999 416.316269771,91.29459299999999 422.469969771,91.04379899999999 428.623469771,90.794352 434.776669771,90.546305 440.92956977100005,90.299713 447.082369771,90.054632 453.234969771,89.811125 459.387169771,89.569275 465.539169771,89.329165 471.690769771,89.090882 477.84176977100003,88.854511 483.992269771,88.620139 490.14196977100005,88.387855 496.29076977100004,88.157778 502.438569771,87.930067 508.58536977100005,87.704878 514.7312697710001,87.482366 520.876169771,87.262683 527.020469771,87.045978 533.1642697709999,86.8323932 539.307769771,86.6219998 545.451169771,86.4148294 551.594669771,86.2109161 557.7380697709999,86.010297 563.881369771,85.81301189999999 570.024369771,85.6191032 576.1668697709999,85.4286307 582.308569771,85.2417246 588.449269771,85.0585325 594.589069771,84.8791981 600.727969771,84.703862 606.8661697709999,84.53265999999999 613.004069771,84.365728 619.141869771,84.203132 625.2800697710001,84.04481799999999 631.4187697709999,83.890723 637.5581697709999,83.740787 643.698169771,83.594954 649.838469771,83.453171 655.978869771,83.315398 662.118969771,83.181729 668.2583697709999,83.052335 674.3967697709999,82.927385 680.5341697709999,82.807047 686.670269771,82.691485 692.805269771,82.580863 698.938969771,82.475317 705.0717697709999,82.374933 711.203769771,82.279794 717.3352697710001,82.189979 723.466569771,82.10557 729.598169771,82.026647 735.730469771,81.95326 741.8638697709999,81.885341 747.998469771,81.8228 754.1338697709999,81.765549 760.269769771,81.713501 766.405169771,81.666571 772.538969771,81.624772 778.6702697709999,81.58845 784.7985697710001,81.558017 790.923869771,81.533879 797.046769771,81.516443 803.168369771,81.506107 809.290069771,81.50303 815.412969771,81.507018 821.537669771,81.517858 827.663969771,81.535334 833.791169771,81.55922699999999 839.917969771,81.589424 846.043169771,81.626242 852.1656697709999,81.670103 858.284969771,81.721424 864.400969771,81.780626 870.513969771,81.848102 876.624569771,81.924136 882.733269771,82.008992 888.840669771,82.102932 894.947269771,82.206222 901.053469771,82.319007 907.159469771,82.441293 913.265169771,82.573072 919.3699697709999,82.714328 925.472769771,82.86523199999999 931.572569771,83.026268 937.668169771,83.19794 943.757969771,83.38074 949.8409697709999,83.575192 955.917269771,83.781875 961.988069771,84.001392 968.051769771,84.23371399999999 974.0903697709999,84.477627 980.065669771,84.729671 985.905069771,84.9778742 991.489969771,85.209175 996.577169771,85.4234058 1000.8904697709999,85.6347987 1003.996469771,85.84903" stroke="black" stroke-width="2.0" /></svg>