<?xml version="1.0" encoding="utf-8" ?>
<svg baseProfile="full" height="107.10366" version="1.1" width="1011.998134533" xmlns="http://www.w3.org/2000/svg" xmlns:ev="http://www.w3.org/2001/xml-events" xmlns:xlink="http://www.w3.org/1999/xlink"><defs /><polygon fill="none" points="1003.998134533,70.29893000000001 1000.556034533,69.966076 996.335134533,69.561501 991.867734533,69.132822 987.188734533,68.678105 982.3421345329999,68.211707 977.3991345329999,67.75789800000001 972.4299345329999,67.271521 967.4009345329999,66.64748800000001 962.168434533,65.879808 956.6191345330001,65.07200600000002 950.744834533,64.25791900000002 944.577234533,63.40376500000001 938.148334533,62.513999000000005 931.488534533,61.60168 924.635134533,60.668490000000006 917.629834533,59.719170000000005 910.508434533,58.758900000000004 903.301034533,57.79112000000001 896.032134533,56.818270000000005 888.719134533,55.84259 881.3751345329999,54.86628 874.008934533,53.891020000000005 866.626734533,52.91778000000001 859.233934533,51.947280000000006 851.8349345329999,50.98024000000001 844.433434533,50.01747 837.0314345329999,49.05966000000001 829.629534533,48.10721000000001 822.2284345329999,47.160340000000005 814.828834533,46.219260000000006 807.431534533,45.28427000000001 800.037534533,44.355720000000005 792.647834533,43.433980000000005 785.263134533,42.519580000000005 777.883334533,41.61300000000001 770.507734533,40.71454000000001 763.135834533,39.82432 755.767534533,38.94247000000001 748.403034533,38.069250000000004 741.042734533,37.20496000000001 733.686734533,36.34993000000001 726.335234533,35.50451 718.987734533,34.669070000000005 711.643534533,33.84386000000001 704.3018345329999,33.02897000000001 696.961834533,32.22449000000001 689.623034533,31.430450000000008 682.284934533,30.646860000000004 674.947334533,29.873740000000005 667.609934533,29.11111000000001 660.272634533,28.358990000000006 652.935034533,27.617390000000007 645.596834533,26.886260000000007 638.258234533,26.165580000000006 630.919734533,25.455410000000008 623.5814345329999,24.755910000000007 616.243234533,24.067240000000005 608.904234533,23.389390000000006 601.5640345329999,22.722230000000003 594.2224345330001,22.06562000000001 586.8798345329999,21.419550000000008 579.536534533,20.784040000000005 572.192934533,20.159140000000008 564.849034533,19.544950000000007 557.504934533,18.941560000000003 550.159834533,18.348980000000005 542.813534533,17.767090000000003 535.4661345330001,17.195780000000006 528.118334533,16.635070000000006 520.770534533,16.085100000000004 513.422634533,15.545970000000004 506.074234533,15.017680000000006 498.72513453299996,14.500190000000003 491.375834533,13.99347000000001 484.026434533,13.497610000000009 476.677034533,13.012670000000007 469.327534533,12.538690000000003 461.977734533,12.075630000000004 454.628034533,11.623480000000008 447.279134533,11.182330000000007 439.931034533,10.752350000000007 432.583634533,10.333670000000005 425.236534533,9.926260000000006 417.88983453299994,9.530050000000003 410.544234533,9.145030000000013 403.20083453300003,8.771400000000014 395.85993453299994,8.409390000000002 388.521534533,8.059140000000006 381.186034533,7.720780000000005 373.854134533,7.394420000000011 366.52743453299996,7.080410000000015 359.20643453299994,6.7792400000000015 351.89063453299997,6.491330000000005 344.57933453299995,6.2168100000000095 337.272834533,5.955670000000012 329.972934533,5.708030000000008 322.681734533,5.474340000000012 315.399834533,5.255120000000005 308.127434533,5.050629999999998 300.866034533,4.860830000000007 293.620134533,4.685690000000008 286.396234533,4.526049999999998 279.200034533,4.383590000000012 272.035534533,4.260280000000009 264.90443453299997,4.15843000000001 257.806834533,4.080079999999995 250.74233453300002,4.026780000000002 243.710434533,4.0 236.711634533,4.001140000000007 229.74743453300002,4.031760000000006 222.81763453300002,4.094240000000013 215.918234533,4.191030000000012 209.04343453300004,4.3229900000000185 202.189434533,4.490250000000003 195.35533453300002,4.6924999999999955 188.543234533,4.929029999999997 181.758034533,5.199290000000005 175.00533453300002,5.50303000000001 168.29123453300002,5.8396100000000075 161.626334533,6.207300000000018 155.02853453300003,6.604230000000001 148.518334533,7.031220000000005 142.11493453300002,7.489750000000001 135.83403453300002,7.982420000000005 129.68663453300002,8.51257000000001 123.679334533,9.082580000000007 117.82023453299999,9.692920000000008 112.120734533,10.342750000000002 106.59333453299999,11.031270000000006 101.248824533,11.757740000000005 96.095064533,12.522410000000008 91.135064533,13.325240000000008 86.370854533,14.163330000000009 81.806794533,15.032290000000003 77.44706453299999,15.930540000000008 73.292144533,16.85745 69.339174533,17.813640000000007 65.581844533,18.801240000000007 62.010794533,19.821520000000007 58.616614532999996,20.874420000000008 55.390794533,21.958880000000008 52.325734532999995,23.07460000000001 49.413794532999994,24.222200000000008 46.647024533,25.40142000000001 44.017724533,26.61133000000001 41.518354533,27.850040000000007 39.142494533,29.113910000000004 36.885074533,30.398950000000006 34.741764533,31.701650000000008 32.707564533,33.01942000000001 30.776404533,34.349520000000005 28.940674533,35.68502 27.194624533000002,37.017360000000004 25.534444533000002,38.33818000000001 23.958354533,39.64271000000001 22.464654533,40.92983000000001 21.050754533000003,42.19926000000001 19.714514533,43.45103 18.453574533,44.68520000000001 17.265254533,45.90191000000001 16.146674533,47.10131000000001 15.094944533,48.283550000000005 14.107194533,49.44877000000001 13.180509533,50.597210000000004 12.312054533000001,51.72909000000001 11.499179533,52.84452 10.739332533,53.94361000000001 10.030203533,55.02649000000001 9.369885533,56.0934 8.756487533,57.14466000000001 8.188104533,58.18068000000001 7.662843533,59.201750000000004 7.178861533,60.20772000000001 6.734428533,61.19832000000001 6.327907532999999,62.173283000000005 5.957691533,63.132360000000006 5.621704533,64.075379 5.317553533,65.00247200000001 5.042965533,65.914074 4.795911733,66.810838 4.5769447329999995,67.69346100000001 4.3893234329999995,68.56201 4.236032533,69.415749 4.119467833,70.253387 4.041094623,71.0735097 4.001127088,71.87824930000001 4.0,72.6760371 4.038677533,73.47635600000001 4.119094233,74.283156 4.243024433,75.094999 4.411815133,75.90905900000001 4.626866233,76.722566 4.889697133,77.53286800000001 5.201595533,78.33759400000001 5.563698533,79.134358 5.9772585330000005,79.92049300000001 6.443475533,80.693155 6.963291533,81.449475 7.537700533000001,82.18629 8.167812533,82.90002000000001 8.855252533,83.58523000000001 9.602475533,84.23459000000001 10.412768533,84.83992 11.288455533,85.39602000000001 12.226071532999999,85.90865000000001 13.219588533,86.38627000000001 14.265234533,86.83468 15.364164532999999,87.25575 16.518124532999998,87.65157 17.730064533,88.02393000000001 19.003894533,88.37436000000001 20.343774533000005,88.70494000000001 21.753864533,89.0185 23.238514533000004,89.31894 24.803594533000002,89.61181 26.455244533000002,89.90446 28.199984533000002,90.20029000000001 30.045524533000002,90.49774000000001 32.000954533,90.79461 34.077314533000006,91.08867000000001 36.287604533,91.37828 38.646474532999996,91.66158000000001 41.170364533,91.93752 43.877454533,92.20664000000001 46.787944532999994,92.47034000000001 49.923394533,92.73094 53.304914533,92.99073000000001 56.952994532999995,93.24815000000001 60.888004533,93.50104 65.128194533,93.74820000000001 69.687554533,93.98863 74.573484533,94.22146000000001 79.78595453300001,94.44598 85.31679453299999,94.66054 91.15005453299999,94.86392000000001 97.262314533,95.05577000000001 103.624484533,95.23587 110.204934533,95.40378000000001 116.974134533,95.55832000000001 123.908534533,95.70024000000001 130.98483453300003,95.83319 138.17973453300002,95.96136000000001 145.469034533,96.08887000000001 152.830034533,96.21849 160.24323453300002,96.34902000000001 167.695034533,96.47930000000001 175.17573453300002,96.60997 182.67713453300001,96.74156 190.193234533,96.87337000000001 197.71943453300003,97.00485 205.252434533,97.13649000000001 212.789534533,97.26872 220.328534533,97.40103 227.867334533,97.53288 235.403134533,97.66436 242.932234533,97.79553000000001 250.449934533,97.92622 257.951534533,98.0566 265.430134533,98.18826000000001 272.87703453299997,98.32079 280.291534533,98.44657000000001 287.68843453299996,98.55891000000001 295.082534533,98.65895 302.475734533,98.74889 309.86483453299996,98.8287 317.25013453299994,98.89784 324.635734533,98.95618 332.02493453299996,99.00436 339.417934533,99.04305000000001 346.812734533,99.07246 354.208234533,99.09241 361.605234533,99.10273000000001 369.00543453299997,99.10366 376.40943453299997,99.09557000000001 383.816734533,99.0788 391.22643453300003,99.05347 398.63793453299996,99.01965000000001 406.051334533,98.97747000000001 413.466534533,98.92703 420.883134533,98.86845000000001 428.300634533,98.80178000000001 435.718634533,98.72702000000001 443.136734533,98.64416 450.55483453299996,98.55313000000001 457.973234533,98.45388000000001 465.392634533,98.34639000000001 472.813334533,98.23088000000001 480.23483453299997,98.10756 487.65613453299994,97.97647 495.07653453300003,97.83746000000001 502.496534533,97.69034 509.91693453299996,97.53517000000001 517.337734533,97.3721 524.758534533,97.20125 532.178734533,97.02258 539.597634533,96.83603000000001 547.0150345330001,96.64151000000001 554.431034533,96.43883000000001 561.8462345329999,96.22782000000001 569.261734533,96.00850000000001 576.677434533,95.78105000000001 584.092534533,95.54564 591.506234533,95.30211 598.918834533,95.0502 606.3316345329999,94.78974000000001 613.7457345329999,94.52095 621.160734533,94.2441 628.575334533,93.95924000000001 635.989534533,93.66615000000002 643.404434533,93.36458 650.8219345329999,93.05470000000001 658.2423345330001,92.73693 665.664634533,92.41166000000001 673.087634533,92.07888 680.511134533,91.73845 687.9358345329999,91.39030000000001 695.362634533,91.03449 702.7922345329999,90.67113 710.2251345330001,90.30040000000001 717.6615345329999,89.92257000000001 725.101434533,89.53789 732.544834533,89.14656000000001 739.991734533,88.74870000000001 747.442834533,88.34449000000001 754.898534533,87.93424 762.3588345329999,87.51828 769.8234345330001,87.09691000000001 777.292034533,86.67037 784.764534533,86.23889 792.240934533,85.8027 799.721034533,85.36206 807.204834533,84.91724 814.691734533,84.46852000000001 822.1814345329999,84.01620000000001 829.672834533,83.56057000000001 837.165034533,83.10189000000001 844.656734533,82.64044000000001 852.146134533,82.17653000000001 859.631034533,81.710514 867.108234533,81.24279200000001 874.5734345330001,80.77386100000001 882.0197345329999,80.30436300000001 889.4382345329999,79.835051 896.817834533,79.36678 904.144934533,78.900531 911.4015345329999,78.43732100000001 918.559034533,77.97865800000001 925.579934533,77.526598 932.423034533,77.083027 939.047534533,76.64818100000001 945.416634533,76.222813 951.499434533,75.82059000000001 957.2706345329999,75.435608 962.7080345329999,75.02985600000001 967.830534533,74.657026 972.7551345329999,74.428217 977.6219345330001,74.327149 982.469534533,74.24158600000001 987.242534533,74.125691 991.876334533,74.007109 996.3240345329999,73.901308 1000.545034533,73.80365400000001 1003.998134533,73.72233" stroke="black" stroke-width="2.0" /></svg>