<?xml version="1.0" encoding="utf-8" ?>
<svg baseProfile="full" height="112.01244" version="1.1" width="1011.99462582" xmlns="http://www.w3.org/2000/svg" xmlns:ev="http://www.w3.org/2001/xml-events" xmlns:xlink="http://www.w3.org/1999/xlink"><defs /><polygon fill="none" points="1003.99462582,51.50622 1000.7091258199999,51.16124 996.54852582,50.724382 991.94802582,50.241329 986.89712582,49.710978 981.41322582,49.135168 975.52532582,48.51694 969.28062582,47.861247 962.74202582,47.174696 955.97332582,46.463979 949.03142582,45.735085 941.96422582,44.993027 934.80852582,44.241682999999995 927.59172582,43.48391 920.33302582,42.72175 913.04612582,41.95662 905.74012582,41.189499999999995 898.42152582,40.42104 891.09442582,39.6517 883.76162582,38.88176 876.4251258200001,38.111419999999995 869.08612582,37.34083 861.74552582,36.57006 854.40382582,35.79918 847.06132582,35.028220000000005 839.71842582,34.257220000000004 832.37512582,33.486180000000004 825.03172582,32.71512 817.6882258200001,31.94405 810.34472582,31.17298 803.0012258200001,30.40191 795.65782582,29.63085 788.3146258200001,28.85982 780.97172582,28.088810000000002 773.62932582,27.317859999999996 766.28762582,26.54698 758.94712582,25.776229999999998 751.60822582,25.00565 744.2719258200001,24.23534 736.93952582,23.465439999999997 729.6129258200001,22.696140000000003 722.29502582,21.927769999999995 714.99012582,21.16075 707.7046258199999,20.395749999999992 700.44762582,19.63386 693.2323258199999,18.876129999999996 686.07712582,18.124589999999998 679.00322582,17.38335 672.0388258199999,16.648989999999998 665.2140258200001,15.931439999999995 658.50372582,15.25582 651.88312582,14.592220000000005 645.38342582,13.939609999999995 638.95692582,13.346910000000001 632.53492582,12.77393 626.14952582,12.193660000000001 619.78562582,11.6618 613.3761258200001,11.156890000000004 606.94402582,10.637799999999999 600.52382582,10.147829999999999 594.09482582,9.712560000000003 587.62672582,9.32199 581.1281258199999,8.930979999999998 574.6420258200001,8.54242 568.12392582,8.204769999999996 561.51462582,7.885570000000001 554.86922582,7.551400000000001 548.2823258200001,7.21105 541.7761258200001,6.911399999999993 535.27042582,6.656639999999996 528.7517258199999,6.390349999999998 522.23902582,6.146860000000004 515.6498258199999,5.953119999999998 508.94622581999994,5.75647 502.18182582000003,5.552120000000002 495.40772582,5.349869999999996 488.68112582000003,5.138950000000001 482.01242582,4.959510000000002 475.30562582,4.829989999999995 468.52852582,4.701129999999999 461.75462582,4.557119999999998 455.04792582,4.422799999999995 448.35462581999997,4.3429 441.58452582,4.283799999999992 434.75952582,4.213929999999998 427.93002582,4.1473999999999975 421.14342582,4.072980000000001 414.43722582,4.008600000000001 407.73882582,4.0 400.96222581999996,4.00806 394.13572582,4.006219999999999 387.30832582,4.008070000000004 380.52842582,4.000450000000001 373.82742582000003,4.007080000000002 367.12332582000005,4.069719999999997 360.33902582,4.144629999999999 353.50922582000004,4.211100000000002 346.68162582,4.281089999999999 339.90602582,4.34055 333.20752582,4.418440000000004 326.49862582000003,4.55133 319.71952582,4.695900000000002 312.93072582,4.8255300000000005 306.20652581999997,4.954459999999997 299.51732582000005,5.1325199999999995 292.76202582,5.344349999999999 285.94282582,5.54815 279.11222582000005,5.754179999999998 272.31582582,5.954019999999993 265.60062582,6.152259999999998 258.91952582,6.400759999999998 252.17882582000001,6.681369999999994 245.40402582000002,6.9518699999999995 238.67992582000002,7.210250000000002 232.03152581999998,7.497489999999999 225.37292582,7.8347399999999965 218.67782582,8.17642 212.02702582,8.500619999999998 205.49572582,8.82488 199.05462582,9.197049999999997 192.63472582000003,9.586889999999997 186.26622582000002,9.963069999999995 179.94542582,10.382489999999997 173.60602582,10.833359999999999 167.27022582,11.269739999999999 160.95802582000002,11.741279999999996 154.60672582,12.256810000000002 148.21882582,12.764289999999995 141.84652582,13.28808 135.48852582,13.863169999999997 129.12182581999997,14.48959 122.74792582,15.13015 116.42432581999999,15.7575 110.16502582,16.415239999999997 103.94488582,17.111889999999995 97.85985581999999,17.822039999999994 91.96173582,18.576410000000003 86.15645582,19.39295 80.46846581999999,20.221130000000002 75.03378582,21.042589999999997 69.87555582,21.880759999999995 64.96745582,22.73219 60.332675820000006,23.5762 56.00504582000001,24.40485 51.989485820000006,25.218449999999997 48.27220582,26.01849 44.83566582,26.80576 41.66100582,27.58032 38.728155820000005,28.34519 36.01723582,29.10335 33.50849582,29.85633 31.182425820000002,30.60517 29.02100582,31.35088 27.00772582,32.09415 25.127375819999997,32.83556 23.36633582,33.57559 21.71330582,34.31478 20.159935819999998,35.05329999999999 18.69962582,35.79063 17.32675582,36.525850000000005 16.036175819999997,37.257850000000005 14.82299582,37.98551 13.68251082,38.70778 12.612753819999998,39.42601 11.61490382,40.14539 10.688372820000001,40.87101 9.831362819999999,41.60744 9.04158482,42.35889 8.31657182,43.12851 7.65378482,43.91534 7.05158082,44.71678 6.50896982,45.529705 6.02517982,46.350618 5.59924282,47.175534999999996 5.22924982,47.9998 4.91258972,48.820029 4.64650782,49.634305999999995 4.42842702,50.441823 4.25614532,51.242601 4.12795602,52.037293999999996 4.04273109,52.827073999999996 4.0,53.6135691 4.0,54.3988709 4.04273109,55.185366 4.12795602,55.975146 4.25614532,56.769839 4.42842702,57.570617 4.64650782,58.378134 4.91258972,59.192411 5.22924982,60.01264 5.59924282,60.836905 6.02517982,61.661822 6.50896982,62.482735 7.05158082,63.29566 7.65378482,64.0971 8.31657182,64.88392999999999 9.04158482,65.65355 9.831362819999999,66.405 10.688372820000001,67.14143 11.61490382,67.86705 12.612753819999998,68.58643 13.68251082,69.30466 14.82299582,70.02693 16.036175819999997,70.75459 17.32675582,71.48658999999999 18.69962582,72.22181 20.159935819999998,72.95914 21.71330582,73.69766 23.36633582,74.43684999999999 25.127375819999997,75.17688 27.00772582,75.91829 29.02100582,76.66156 31.182425820000002,77.40727 33.50849582,78.15611 36.01723582,78.90908999999999 38.728155820000005,79.66725 41.66100582,80.43212 44.83566582,81.20668 48.27220582,81.99395 51.989485820000006,82.79399000000001 56.00504582000001,83.60759 60.332675820000006,84.43624 64.96745582,85.28025 69.87555582,86.13168 75.03378582,86.96985000000001 80.46846581999999,87.79131 86.15645582,88.61949 91.96173582,89.43602999999999 97.85985581999999,90.19040000000001 103.94488582,90.90055000000001 110.16502582,91.5972 116.42432581999999,92.25494 122.74792582,92.88229 129.12182581999997,93.52285 135.48852582,94.14927 141.84652582,94.72435999999999 148.21882582,95.24815000000001 154.60672582,95.75563 160.95802582000002,96.27116000000001 167.27022582,96.7427 173.60602582,97.17908 179.94542582,97.62995000000001 186.26622582000002,98.04937000000001 192.63472582000003,98.42555 199.05462582,98.81539000000001 205.49572582,99.18755999999999 212.02702582,99.51182 218.67782582,99.83601999999999 225.37292582,100.1777 232.03152581999998,100.51495 238.67992582000002,100.80219 245.40402582000002,101.06057 252.17882582000001,101.33107000000001 258.91952582,101.61168 265.60062582,101.86018 272.31582582,102.05842000000001 279.11222582000005,102.25826 285.94282582,102.46429 292.76202582,102.66809 299.51732582000005,102.87992 306.20652581999997,103.05798 312.93072582,103.18691 319.71952582,103.31654 326.49862582000003,103.46110999999999 333.20752582,103.594 339.90602582,103.67188999999999 346.68162582,103.73134999999999 353.50922582000004,103.80134 360.33902582,103.86780999999999 367.12332582000005,103.94272000000001 373.82742582000003,104.00536 380.52842582,104.01199 387.30832582,104.00437 394.13572582,104.00622 400.96222581999996,104.00438 407.73882582,104.01244 414.43722582,104.00384 421.14342582,103.93946 427.93002582,103.86504 434.75952582,103.79851 441.58452582,103.72864000000001 448.35462581999997,103.66954 455.04792582,103.58964 461.75462582,103.45532 468.52852582,103.31130999999999 475.30562582,103.18245 482.01242582,103.05293 488.68112582000003,102.87349 495.40772582,102.66257 502.18182582000003,102.46032 508.94622581999994,102.25596999999999 515.6498258199999,102.05932 522.23902582,101.86558 528.7517258199999,101.62209 535.27042582,101.3558 541.7761258200001,101.10104000000001 548.2823258200001,100.80139 554.86922582,100.46104 561.51462582,100.12687 568.12392582,99.80767 574.6420258200001,99.47002 581.1281258199999,99.08145999999999 587.62672582,98.69045 594.09482582,98.29988 600.52382582,97.86461 606.94402582,97.37464 613.3761258200001,96.85555 619.78562582,96.35064 626.14952582,95.81878 632.53492582,95.23850999999999 638.95692582,94.66552999999999 645.38342582,94.07283000000001 651.88312582,93.42022 658.50372582,92.75662 665.2140258200001,92.081 672.0388258199999,91.36345 679.00322582,90.62908999999999 686.07712582,89.88785 693.2323258199999,89.13631000000001 700.44762582,88.37858 707.7046258199999,87.61669 714.99012582,86.85168999999999 722.29502582,86.08467 729.6129258200001,85.3163 736.93952582,84.547 744.2719258200001,83.77709999999999 751.60822582,83.00679 758.94712582,82.23621 766.28762582,81.46546 773.62932582,80.69458 780.97172582,79.92363 788.3146258200001,79.15262 795.65782582,78.38159 803.0012258200001,77.61053 810.34472582,76.83946 817.6882258200001,76.06839 825.03172582,75.29732 832.37512582,74.52626 839.71842582,73.75522 847.06132582,72.98422 854.40382582,72.21325999999999 861.74552582,71.44238 869.08612582,70.67161 876.4251258200001,69.90102 883.76162582,69.13068 891.09442582,68.36073999999999 898.42152582,67.5914 905.74012582,66.82294 913.04612582,66.05582 920.33302582,65.29069 927.59172582,64.52852999999999 934.80852582,63.770757 941.96422582,63.019413 949.03142582,62.277355 955.97332582,61.548460999999996 962.74202582,60.837744 969.28062582,60.151193 975.52532582,59.4955 981.41322582,58.877272 986.89712582,58.301462 991.94802582,57.771111 996.54852582,57.288058 1000.7091258199999,56.8512 1003.99462582,56.50622" stroke="black" stroke-width="2.0" /></svg>