<?xml version="1.0" encoding="utf-8" ?>
<svg baseProfile="full" height="72.21612" version="1.1" width="1011.99995501637" xmlns="http://www.w3.org/2000/svg" xmlns:ev="http://www.w3.org/2001/xml-events" xmlns:xlink="http://www.w3.org/1999/xlink"><defs /><polygon fill="none" points="1003.99995501637,35.70786 1000.96815501637,35.403721 996.80675501637,34.9876175 991.83115501637,34.4920888 986.2737550163699,33.9372798 980.53695501637,33.3556056 974.7631550163701,32.780842 968.92665501637,32.24344 962.97805501637,31.717015999999997 956.94465501637,31.174182 950.8729550163699,30.625937 944.78225501637,30.078246 938.68895501637,29.529429 932.60875501637,28.98322 926.55475501637,28.439846 920.56665501637,27.893008 914.67295501637,27.365440999999997 908.78975501637,26.88333 902.8163550163699,26.414447 896.76515501637,25.930335 890.6799550163701,25.441663 884.57375501637,24.95371 878.4553550163699,24.464385999999998 872.3330550163699,23.97453 866.2120550163701,23.484949999999998 860.09915501637,22.99534 854.00355501637,22.50815 847.9333550163699,22.02481 841.91885501637,21.5379 836.00135501637,21.06114 830.12295501637,20.627969999999998 824.16855501637,20.21943 818.12535501637,19.798499999999997 812.0410550163699,19.37023 805.9340550163699,18.942989999999998 799.81335501637,18.515099999999997 793.69105501637,18.086199999999998 787.57955501637,17.65779 781.48825501637,17.233189999999997 775.4305550163699,16.80948 769.45045501637,16.381929999999997 763.55995501637,15.979420000000001 757.65715501637,15.621099999999998 751.6583550163699,15.26933 745.59275501637,14.90409 739.49975501637,14.537399999999998 733.39265501637,14.171409999999998 727.28745501637,13.80461 721.19845501637,13.441009999999999 715.14195501637,13.07762 709.1642550163699,12.70995 703.27345501637,12.36835 697.3642550163701,12.070349999999998 691.3580550163699,11.777840000000001 685.2873550163699,11.472749999999998 679.19015501637,11.16694 673.07945501637,10.861809999999998 666.97145501637,10.55594 660.8802550163699,10.253259999999997 654.82315501637,9.94996 648.84725501637,9.64219 642.9553550163699,9.361749999999997 637.03855501637,9.124179999999999 631.02285501637,8.89107 624.94425501637,8.646089999999997 618.84515501637,8.40053 612.74645501637,8.158339999999999 606.66945501637,7.916829999999997 600.65905501637,7.668479999999999 594.74565501637,7.434419999999999 588.84705501637,7.245469999999997 582.85905501637,7.074909999999999 576.79135501637,6.8930299999999995 570.6936550163699,6.707669999999997 564.59085501637,6.52534 558.5021550163699,6.3452899999999985 552.46365501637,6.159269999999999 546.52255501637,5.975819999999999 540.63285501637,5.832129999999999 534.67625501637,5.720389999999998 528.6278550163701,5.602389999999996 522.53655501637,5.478239999999996 516.4253550163701,5.35622 510.30735501636997,5.233719999999998 504.19945501637,5.111789999999999 498.11405501637,4.9923699999999975 492.08135501636997,4.866329999999998 486.14575501637,4.743679999999998 480.25435501637,4.661899999999999 474.28995501636996,4.610349999999997 468.23455501637,4.552109999999999 462.13645501637,4.48874 456.01555501637,4.4277399999999965 449.88045501637004,4.366959999999999 443.74355501637,4.3052600000000005 437.61745501637,4.243389999999998 431.51195501637,4.1841199999999965 425.44015501637,4.123739999999998 419.44605501637,4.054859999999998 413.54335501637,4.005759999999999 407.63075501637,4.0017 401.62205501637,4.0098400000000005 395.54575501637,4.0085000000000015 389.44195501637,4.007409999999997 383.32405501637,4.007849999999998 377.20815501637,4.007369999999998 371.10885501637,4.009139999999999 365.04275501637,4.00901 359.05625501636996,4.0 353.15735501637,4.012669999999996 347.24035501637,4.069929999999999 341.22605501636997,4.137719999999998 335.14745501637,4.196839999999998 329.04265501637,4.2570099999999975 322.92465501637,4.318579999999997 316.80975501637005,4.379279999999998 310.71215501637,4.4422 304.64955501637,4.5021299999999975 298.66945501636997,4.553000000000001 292.77315501637,4.627490000000002 286.85065501637,4.745939999999997 280.82925501637,4.873609999999999 274.74595501637,4.993299999999998 268.64295501637,5.113869999999999 262.54105501637,5.237769999999998 256.46205501637,5.36073 250.45095501637,5.472770000000001 244.53705501637,5.59468 238.63605501637,5.761189999999999 232.64515501636998,5.949960000000001 226.57575501636998,6.131899999999998 220.47725501637,6.31251 214.37415501637,6.496469999999999 208.28525501637,6.681639999999998 202.24705501637,6.8576099999999975 196.30575501637,7.0314499999999995 190.41305501636998,7.24239 184.45365501637,7.4888999999999974 178.41905501636998,7.735439999999997 172.40135501637,7.968609999999998 166.48475501637,8.19999 160.63995501637,8.46912 154.76605501637,8.769309999999997 148.88085501637,9.057959999999998 143.03755501637,9.3612 137.15475501637,9.71237 131.16395501636998,10.08126 125.11965501636999,10.442059999999998 119.10645501636999,10.795200000000001 113.16865501636998,11.161249999999999 107.28335501637,11.563849999999999 101.40117501636999,12.01062 95.48175501637,12.488329999999998 89.53091501637,12.963279999999997 83.61295501637,13.439779999999999 77.81277501637,13.942339999999998 72.10134501636999,14.50338 66.31350501637,15.142120000000002 60.445765016370004,15.82114 54.694665016369996,16.51954 49.10529501637,17.261689999999998 43.64355501637,18.062589999999997 38.36261501637001,18.920429999999996 33.36579501637,19.82925 28.74909501637,20.778689999999997 24.60309501637,21.75426 20.97799501637,22.73351 17.88803501637,23.70848 15.30071501637,24.665565 13.13952401637,25.592314 11.32185401637,26.469977999999998 9.787795016370001,27.27432 8.48758901637,27.998054 7.3951370163700005,28.674415 6.4987030163699995,29.349522 5.77551401637,30.042013999999998 5.20224401637,30.744369 4.75807111637,31.438316 4.42511111637,32.118063 4.19119561637,32.783977 4.04983080637,33.4391013 4.0,34.08804931 4.04414459637,34.7368678 4.18000531637,35.391678 4.40832031637,36.057201 4.73533581637,36.736616 5.17298701637,37.430538999999996 5.73901001637,38.133707 6.454328016370001,38.828358 7.34214101637,39.50525 8.42548101637,40.181733 9.716354016370001,40.902632 11.23904901637,41.703745 13.04317501637,42.579074 15.188055016369999,43.50496 17.75462501637,44.46142 20.82042501637,45.43615 24.42111501637,46.41543 28.545215016369998,47.39188 33.14572501637,48.34381 38.12418501637,49.25486 43.379065016370006,50.11252 48.83960501637,50.91439 54.453265016370004,51.666380000000004 60.127085016369996,52.36712 65.81504501637001,53.0029 71.57451501637,53.57986 77.44032501637,54.12117 83.37004501637,54.651160000000004 89.29657501637,55.18921 95.17978501637,55.70918 101.03249501636999,56.184529999999995 106.89335501637,56.614819999999995 112.78905501637,57.02307 118.66835501637,57.441199999999995 124.48165501637,57.838899999999995 130.30355501636998,58.19043 136.17775501637,58.54009 142.03045501636998,58.89542 147.87635501636998,59.21128 153.81575501637,59.49898 159.84405501637002,59.79584 165.86625501637,60.104699999999994 171.80375501637,60.40539 177.69855501637,60.66457 183.66395501636998,60.894999999999996 189.70465501637,61.131910000000005 195.73135501637,61.3804 201.66835501637,61.62233 207.55585501637,61.82272999999999 213.50815501637,61.99376 219.53905501637,62.1727 225.59275501637,62.35536999999999 231.63895501637,62.53529999999999 237.63055501636998,62.72282 243.53175501636997,62.89597 249.42415501637,63.023700000000005 255.40315501637,63.13463 261.44575501637,63.25617 267.50065501637,63.37689 273.53835501637,63.49811 279.50415501636996,63.62609 285.39405501637,63.72723 291.31715501637,63.78565 297.34085501637,63.838899999999995 303.42535501637,63.90184 309.52895501637,63.96428 315.63105501637,64.02334 321.70895501637,64.0829 327.71605501637,64.1514 333.62505501637,64.20588 339.52325501637,64.21504999999999 345.50655501637,64.20651000000001 351.55155501637,64.2073 357.60745501637,64.20682 363.64485501637,64.20745 369.60805501637,64.21612 375.49385501637,64.19856 381.41075501637,64.13802 387.41905501637,64.07181 393.47095501637,64.01311 399.52595501637,63.95095 405.54925501637,63.8947 411.48705501637,63.84043 417.37735501637,63.74919 423.33495501637003,63.62236 429.37405501637,63.49613 435.40715501637,63.38236 441.35295501637,63.269009999999994 447.24155501637,63.1187 453.18815501637,62.93334 459.21615501637,62.74993 465.26975501637,62.56958 471.31705501637,62.38655 477.31375501637,62.21397 483.21885501637,62.03468 489.10575501637,61.81134 495.07565501637,61.56376 501.11275501637,61.3226 507.16375501637003,61.08046 513.19935501637,60.83904 519.1656550163699,60.609179999999995 525.0496550163699,60.3597 530.95375501637,60.065239999999996 536.94865501637,59.75859 542.99185501637,59.45815 549.03945501637,59.15432 555.0591550163699,58.856449999999995 560.99545501637,58.566179999999996 566.87375501637,58.24357 572.81045501637,57.8811 578.84365501637,57.51507 584.9263550163699,57.15256 591.03305501637,56.78623 597.15615501637,56.41835 603.28605501637,56.05069 609.41655501637,55.682739999999995 615.54215501637,55.3155 621.65385501637,54.94916 627.74335501637,54.581559999999996 633.79365501637,54.219969999999996 639.75785501637,53.8708 645.64165501637,53.49898 651.5577550163699,53.082939999999994 657.57155501637,52.65557 663.64435501637,52.23262 669.74375501637,51.80629999999999 675.86165501637,51.37741 681.9897550163699,50.94851 688.1220550163699,50.51936 694.25655501637,50.08989 700.3923550163701,49.660379999999996 706.52865501637,49.23086 712.66505501637,48.8013 718.80165501637,48.37174 724.93825501637,47.94218 731.07475501637,47.51262 737.21105501637,47.08309 743.34685501637,46.65358 749.48145501637,46.224109999999996 755.61395501637,45.79493 761.74245501637,45.36602 767.86135501637,44.9371 773.96215501637,44.51049 780.0372550163701,44.08752 786.05675501637,43.660464 791.97905501637,43.242459999999994 797.86135501637,42.867649 803.81925501637,42.51845 809.86655501637,42.157875 815.95245501637,41.789997 822.04815501637,41.424265 828.13525501637,41.061724 834.1839550163701,40.696569 840.1432550163701,40.330899 846.03155501637,39.999145 851.96435501637,39.705734 857.98415501637,39.412855 864.01265501637,39.107200999999996 869.95395501637,38.800548 875.8027550163699,38.530299 881.65945501637,38.299723 887.5381550163701,38.062189 893.36425501637,37.830534 899.18355501637,37.645776 905.0685550163699,37.475759 910.96335501637,37.293954 916.83275501637,37.138742 922.73205501637,37.027111999999995 928.66725501637,36.949343 934.5984550163699,36.905004 940.52635501637,36.896530999999996 946.45695501637,36.922971 952.37565501637,36.984491 958.29625501637,37.083026 964.22545501637,37.213277 970.0735550163699,37.371456 975.77605501637,37.580709 981.37175501637,37.856119 986.87445501637,38.189082 992.16135501637,38.564358999999996 996.92505501637,38.950198 1000.98815501637,39.315509999999996 1003.99995501637,39.60786" stroke="black" stroke-width="2.0" /></svg>