<?xml version="1.0" encoding="utf-8" ?>
<svg baseProfile="full" height="152.01554" version="1.1" width="1011.998352226" xmlns="http://www.w3.org/2000/svg" xmlns:ev="http://www.w3.org/2001/xml-events" xmlns:xlink="http://www.w3.org/1999/xlink"><defs /><polygon fill="none" points="1003.998352226,80.70859999999999 999.9406522259999,79.59689 995.024552226,78.27951499999999 989.846652226,76.92443399999999 984.4126522259999,75.51626 978.7443522259999,74.03824806 972.861352226,72.517591 966.773552226,70.988832 960.490152226,69.462302 954.0320522259999,67.916698 947.4481522259999,66.328542 940.754752226,64.75542899999999 933.9379522259999,63.1947 927.035752226,61.599779999999996 920.0569522259999,60.03431 912.977552226,58.48356999999999 905.8336522259999,56.90626999999999 898.614452226,55.37206 891.294452226,53.83855 883.9062522259999,52.28968 876.415952226,50.787169999999996 868.8150522259999,49.276489999999995 861.180052226,47.73916 853.571952226,46.22582 845.953952226,44.77878 838.3178522259999,43.32293 830.672752226,41.900589999999994 822.963352226,40.523999999999994 815.223752226,39.13113 807.537552226,37.736039999999996 799.917152226,36.40848999999999 792.314752226,35.12104999999999 784.7525522259999,33.83357999999999 777.1949522259999,32.61642 769.612452226,31.402129999999993 762.026152226,30.20523 754.386052226,29.066019999999995 746.706752226,27.918469999999992 739.072952226,26.760689999999997 731.5228522259999,25.655789999999996 724.0115522259999,24.61045 716.552952226,23.559039999999996 709.140452226,22.57074 701.732852226,21.612069999999996 694.3585522259999,20.653749999999995 686.9894522259999,19.764409999999998 679.607452226,18.87626999999999 672.238652226,18.009049999999995 664.840152226,17.200849999999996 657.4167522259999,16.377419999999994 649.9766522259999,15.598599999999998 642.4740522259999,14.856069999999995 634.931752226,14.09953999999999 627.364452226,13.396349999999991 619.750152226,12.764609999999998 612.083752226,12.15359999999999 604.400552226,11.539049999999996 596.6709522259999,10.990310000000001 588.8693522259999,10.45409 581.068052226,9.897480000000002 573.331152226,9.365949999999998 565.6186522259999,8.904969999999992 557.911852226,8.436039999999991 550.215652226,8.012060000000005 542.4645522259999,7.631139999999988 534.6651522259999,7.239319999999992 526.7835522259999,6.914339999999996 518.773552226,6.6039599999999865 510.69795222600004,6.270409999999984 502.616052226,5.961730000000003 494.47235222600005,5.721989999999991 486.249352226,5.479079999999996 478.023752226,5.220359999999985 469.813052226,5.016750000000002 461.534252226,4.861019999999996 453.19705222600004,4.692649999999986 444.855452226,4.526619999999994 436.563952226,4.35239 428.30455222600006,4.243889999999993 419.996552226,4.172639999999987 411.682052226,4.08108 403.424452226,4.006 395.167352226,4.006479999999996 386.871852226,4.012009999999989 378.61035222600003,4.0 370.411352226,4.035719999999998 362.197252226,4.129069999999999 353.98235222600005,4.2087299999999885 345.844552226,4.283549999999991 337.77245222600004,4.426189999999991 329.707952226,4.5986699999999985 321.706552226,4.749769999999998 313.834852226,4.912790000000001 306.052552226,5.145609999999991 298.32225222600005,5.371799999999993 290.654552226,5.63485 282.98695222599997,5.948739999999987 275.321752226,6.251189999999994 267.648752226,6.6187400000000025 259.92725222600006,7.0165700000000015 252.216752226,7.394049999999993 244.594952226,7.775819999999996 237.04945222600003,8.222800000000007 229.547152226,8.669979999999995 222.113952226,9.134329999999991 214.71045222600003,9.658509999999993 207.329752226,10.168159999999993 199.991252226,10.721479999999993 192.654352226,11.315919999999991 185.339852226,11.897669999999998 178.068552226,12.528839999999995 170.83775222600002,13.213069999999995 163.693152226,13.941089999999996 156.64345222600002,14.715609999999998 149.69465222600002,15.478339999999996 142.893452226,16.23492999999999 136.258352226,17.027089999999994 129.795252226,17.845399999999998 123.531052226,18.671049999999994 117.514652226,19.495929999999994 111.756352226,20.352109999999996 106.216852226,21.242739999999998 100.896892226,22.12339 95.83209222599999,22.985299999999995 91.026512226,23.84944 86.45934222599999,24.72038 82.11384222599999,25.590909999999994 77.980352226,26.452639999999995 74.05406222599999,27.296469999999992 70.332352226,28.118159999999996 66.81023222600001,28.928309999999996 63.474082226,29.73944999999999 60.305652226,30.557539999999996 57.288402226,31.376599999999996 54.411042226000006,32.18966999999999 51.665762226000005,32.99166999999999 49.046942226,33.78408999999999 46.548642226,34.57026 44.164222226,35.35286 41.887172226,36.13441999999999 39.712232226000005,36.918589999999995 37.633982226,37.70892 35.64676222600001,38.50839 33.744912226,39.31949999999999 31.922702226000002,40.143519999999995 30.174282226000003,40.97924 28.494752226000003,41.82503 26.880092226000002,42.67928 25.326892226000002,43.54038 23.832222226000003,44.406769999999995 22.394422226000003,45.27781 21.014402226,46.15523999999999 19.692812226,47.04105 18.429712226,47.93705 17.224722225999997,48.84486999999999 16.077172226000002,49.76602 14.986212226,50.701879999999996 13.950891226,51.65374 12.970366226,52.62236 12.044325226,53.606939999999994 11.172518226000001,54.606539999999995 10.354661226000001,55.620419999999996 9.590472226,56.647999999999996 8.879693226,57.68886 8.221806225999998,58.74234 7.615744226,59.806889999999996 7.060621226,60.880599999999994 6.555743226000001,61.9614 6.100511226,63.04701 5.694281226,64.135021 5.335824226,65.222847 5.023496226,66.308424 4.755584326,67.390372 4.530420626,68.46790999999999 4.346470326,69.540761 4.202395326,70.609093 4.097104106,71.673456 4.029795316,72.73475499999999 4.0,73.7942365 4.007604572,74.85348809999999 4.052662356,75.914236 4.135487026,76.977936 4.256751926,78.045695 4.417447526,79.118276 4.618838726,80.19606399999999 4.862417826,81.27902399999999 5.149846226,82.366635 5.482877226,83.457802 5.863250226,84.55076 6.292517226,85.64301999999999 6.771580226,86.73185 7.3009962260000005,87.81475 7.881362226,88.88942 8.513423226,89.95378 9.198182226,91.006 9.936556226,92.04494 10.728862226,93.07025999999999 11.575375225999998,94.08155 12.476375226,95.07821 13.432112226,96.05948 14.442772225999999,97.02436999999999 15.508842226,97.97272 16.631302226000003,98.90556 17.811062226,99.82408 19.048932225999998,100.72958 20.345522226000003,101.62349 21.701172226000004,102.50738 23.115762226,103.38298999999999 24.588662226000004,104.25227 26.120302226000003,105.11623 27.713322226,105.97451 29.370712226000002,106.82670999999999 31.095732226000003,107.67248 32.891982226,108.51159 34.763462226,109.34389999999999 36.714712226,110.16917 38.750772226,110.98689999999999 40.877352226000006,111.79657 43.100982226,112.59774999999999 45.429232226,113.39026 47.870492225999996,114.17688999999999 50.432862226,114.96322 53.123012226,115.75604 55.944982226,116.56254999999999 58.903132226000004,117.38107 62.005782226,118.20333 65.26706222600001,119.02022 68.70673222599999,119.83062999999999 72.342212226,120.64621 76.183032226,121.48097999999999 80.230982226,122.33757 84.489582226,123.20702 88.96852222599999,124.08043999999998 93.682002226,124.9519 98.64630222599999,125.81787 103.872512226,126.68799999999999 109.35615222599999,127.57471 115.07535222599999,128.47674999999998 120.99565222599999,129.37662 127.111052226,130.23353 133.453852226,131.04183 140.02435222600002,131.83339999999998 146.77885222600003,132.64496 153.670452226,133.47044 160.69285222599999,134.25686 167.83515222600002,135.00525 175.053652226,135.70677 182.34645222600003,136.36093 189.694152226,137.02566 197.05455222600003,137.66743 204.42595222600002,138.23978 211.81735222600003,138.75646999999998 219.201352226,139.28006 226.55165222600002,139.76867 233.908252226,140.20319999999998 241.257352226,140.6514 248.593252226,141.04503 255.955352226,141.40798999999998 263.316552226,141.77747 270.694752226,142.08012 278.116752226,142.37828 285.555352226,142.66091999999998 293.052652226,142.88074 300.616252226,143.11372 308.236352226,143.30295999999998 315.963752226,143.44504 323.763252226,143.60349 331.551252226,143.76797 339.31915222599997,143.86763 347.118752226,143.94155999999998 354.928352226,144.01418999999999 362.753952226,144.01554 370.629152226,143.94704000000002 378.54585222599997,143.8594 386.43305222600003,143.78906 394.225152226,143.70505 401.95765222600005,143.55081 409.662852226,143.40222 417.327652226,143.21662 425.011052226,142.97813 432.710152226,142.75030999999998 440.404952226,142.46787999999998 448.12065222600006,142.10705000000002 455.87255222600004,141.71607 463.62915222600003,141.32833 471.390952226,140.87581 479.176252226,140.35824 486.964052226,139.78157 494.751952226,139.14454999999998 502.52035222600006,138.44941 510.274952226,137.68413999999999 518.040352226,136.90794 525.7854522259998,136.12107 533.523652226,135.26326 541.2617522259999,134.34654999999998 548.976052226,133.37432 556.6601522259999,132.34533 564.307852226,131.2638 571.892752226,130.13478 579.410952226,128.94612999999998 586.885452226,127.75022999999999 594.285352226,126.56112999999999 601.627452226,125.31372999999999 608.940852226,124.07457 616.193052226,122.82024999999999 623.4137522259999,121.514 630.608052226,120.22623999999999 637.7457522259999,118.90392 644.859952226,117.54525 651.935852226,116.20707999999999 658.9501522259999,114.82404 665.934452226,113.42367999999999 672.864752226,112.04094 679.726552226,110.60287 686.5823522259999,109.18576999999999 693.4790522259999,107.81362999999999 700.4405522259999,106.36697 707.4635522259999,104.86992 714.470252226,103.41313 721.4558522259999,102.02293999999999 728.447952226,100.57736 735.501352226,99.10024999999999 742.685652226,97.66798 749.986552226,96.21582 757.327752226,94.73577999999999 764.647952226,93.28264 771.9695522259999,91.89277 779.285452226,90.49734 786.574552226,89.13761 793.877752226,87.83027 801.1700522259999,86.51213999999999 808.440752226,85.24061999999999 815.7058522259999,84.026029 822.895052226,82.87589299999999 830.032252226,81.84463099999999 837.1780522259999,80.88780799999999 844.2752522259999,79.97362299999999 851.2598522259999,79.120656 858.130052226,78.36957199999999 864.923452226,77.726396 871.649152226,77.178775 878.3065522259999,76.725436 884.901052226,76.36432099999999 891.434952226,76.09224499999999 897.903652226,75.90619 904.301752226,75.80577799999999 910.635352226,75.78864399999999 916.889552226,75.840705 923.029452226,75.97620599999999 929.085252226,76.231618 935.099252226,76.57585499999999 941.0331522259999,76.975692 946.855152226,77.46009 952.586152226,78.047113 958.2529522259999,78.732694 963.8626522259999,79.489628 969.382552226,80.28640399999999 974.777152226,81.137112 980.0506522259999,82.06035899999999 985.2133522259999,83.048114 990.258952226,84.088773 995.1768522259999,85.17566 999.9608522259999,86.30296 1003.998352226,87.3086" stroke="black" stroke-width="2.0" /></svg>