<?xml version="1.0" encoding="utf-8" ?>
<svg baseProfile="full" height="151.61467" version="1.1" width="1011.9996765326" xmlns="http://www.w3.org/2000/svg" xmlns:ev="http://www.w3.org/2001/xml-events" xmlns:xlink="http://www.w3.org/1999/xlink"><defs /><polygon fill="none" points="1003.9996765326,83.40831999999999 1000.0389765325999,82.12860899999998 995.2262765326,80.59530199999999 990.1433765326,79.00156199999999 984.7926765326,77.35074199999998 979.1855765326001,75.64949299999999 973.3335765326,73.91302120099999 967.2383765326,72.14495899999999 960.9222765326,70.31348499999999 954.4224765326001,68.42951799999999 947.7432765326,66.54297199999999 940.8887765326,64.65864699999999 933.8906765326001,62.77937999999999 926.7865765326,60.92059999999999 919.5872765326,59.10027999999999 912.2961765325999,57.28149999999999 904.9578765326,55.44491999999999 897.5652765325999,53.651589999999985 890.1098765326,51.90063999999999 882.6278765326,50.20264999999999 875.1060765325999,48.55121999999999 867.5628765326,46.887429999999995 860.0232765326,45.257249999999985 852.4655765326,43.69784999999999 844.8742765326,42.18300999999999 837.2809765326,40.65961999999999 829.7067765326001,39.17633999999999 822.1296765326,37.76759999999999 814.5347765326,36.40454999999999 806.9544765326,35.03533999999999 799.4099765326,33.711339999999986 791.8816765326,32.46537999999999 784.3552765326001,31.26532999999999 776.8649765325999,30.05919999999999 769.4052765326,28.91194999999999 761.9315765326,27.797619999999995 754.4733765326,26.67801999999999 747.0399765326,25.619519999999987 739.6122765325999,24.63411999999999 732.1942765326,23.67163999999999 724.8263765326001,22.712189999999993 717.4838765326,21.822639999999986 710.1443765326,20.94102999999999 702.8362765326,20.07582999999999 695.5198765326,19.27456999999999 688.1938765326,18.46258999999999 680.8744765326,17.688419999999986 673.5154765326,16.95978999999999 666.1337765326,16.21515999999999 658.7211765326,15.527169999999991 651.2341765326,14.857109999999992 643.6969765326,14.18251999999999 636.0728765326,13.569929999999992 628.3423765326,12.960219999999993 620.5803765326,12.327879999999986 612.8452765326,11.723409999999987 605.0887765326,11.184079999999987 597.2935765326,10.632129999999997 589.4544765326001,10.126239999999981 581.5016765326,9.661749999999984 573.4670765326,9.175419999999988 565.4273765326,8.688429999999983 557.3620765326,8.270239999999987 549.2140765326,7.873189999999994 541.0407765326,7.454849999999993 532.8995765326,7.059779999999989 524.7271765326,6.736129999999989 516.4960765326,6.411299999999983 508.2804765326,6.070799999999991 500.0996765326,5.782519999999991 491.8705765326,5.547239999999988 483.6105765326,5.29598 475.39337653260003,5.044689999999989 467.1890765326,4.866169999999997 458.9299765326,4.711139999999986 450.67187653260004,4.5354600000000005 442.4659765326,4.387379999999979 434.2378765326,4.310400000000001 425.9539765326,4.228239999999985 417.6656765326,4.146769999999989 409.4258765326,4.055399999999992 401.2571765326,4.0 393.0764765326,4.009739999999994 384.8801765326,4.009669999999986 376.74587653260005,4.000189999999989 368.6736765326,4.0534999999999854 360.59347653260005,4.146259999999984 352.54827653259997,4.219959999999986 344.60937653260004,4.299229999999994 336.74147653259996,4.45098999999999 328.8913765326,4.604689999999991 321.0684765326,4.787159999999986 313.2078765326,5.033399999999986 305.3170765326,5.270879999999991 297.47917653260004,5.494439999999997 289.7145765326,5.773359999999997 281.9595765326,6.088419999999985 274.2227765326,6.3984299999999905 266.4745765326,6.779519999999991 258.6775765326,7.178909999999988 250.9001765326,7.557099999999991 243.2092765326,7.952609999999993 235.5709765326,8.412669999999991 227.9599765326,8.866409999999988 220.4105765326,9.34390999999998 212.9149765326,9.89239999999998 205.4524765326,10.492009999999986 198.0408765326,11.077369999999995 190.7035765326,11.697359999999989 183.3994765326,12.36238999999999 176.1415765326,13.010819999999988 168.95637653260002,13.69845999999999 161.8377765326,14.43721999999999 154.8288765326,15.21242999999999 147.94607653260002,16.031299999999987 141.1894765326,16.84317999999999 134.60217653260003,17.633889999999987 128.1969765326,18.45075999999999 121.9820765326,19.280019999999993 116.00917653260001,20.112619999999986 110.28467653260002,20.98151999999999 104.77477653260001,21.879099999999987 99.47841653260001,22.770389999999992 94.42057653260001,23.635859999999994 89.62705653260001,24.46947999999999 85.10319653260001,25.296519999999994 80.8226865326,26.144279999999988 76.7520365326,27.005439999999986 72.8755265326,27.857789999999987 69.19092653260002,28.68932999999999 65.69671653259999,29.502669999999988 62.3855165326,30.30160999999999 59.2467265326,31.091559999999987 56.2682565326,31.878899999999994 53.4370365326,32.66887999999999 50.739636532599995,33.46318999999998 48.1641265326,34.257429999999985 45.7021165326,35.046719999999986 43.3476165326,35.82667999999999 41.097176532599995,36.59728999999999 38.9485565326,37.365129999999986 36.897516532599994,38.13650999999999 34.9385665326,38.91675999999999 33.065726532599996,39.71033999999999 31.2722765326,40.51838999999999 29.5518965326,41.33910999999999 27.8995465326,42.17058999999999 26.3111465326,43.010969999999986 24.7833465326,43.858389999999986 23.3133265326,44.71114999999999 21.9003965326,45.56932999999999 20.545396532599998,46.43481999999999 19.2485565326,47.309409999999986 18.0096165326,48.19469999999999 16.8279865326,49.09215999999999 15.702796532599999,50.00310999999999 14.6330765326,50.92878999999999 13.6177755326,51.87028999999999 12.656438532600001,52.82790999999999 11.7493535326,53.80096999999999 10.8967135326,54.78892999999999 10.0986125326,55.791439999999994 9.355101532599999,56.80829999999999 8.6661795326,57.839449999999985 8.030850532599999,58.883949999999984 7.4473555326,59.93980999999999 6.9142405326,61.00477999999999 6.4302825326,62.07641999999999 5.9943855326,63.152129999999985 5.6054745326,64.22920099999999 5.2622965326,65.30512699999998 4.9634087326,66.37808799999999 4.7073092326,67.44692099999999 4.4925430326,68.51102099999999 4.3177842326,69.570269 4.1818977326,70.62495899999999 4.0839890226,71.675755 4.0234492326,72.72366299999999 4.0,73.77002119999999 4.0136732526,74.81649949999999 4.0644909426,75.86483299999999 4.1527124326,76.91645599999998 4.2789420326,77.97246599999998 4.4440823326,79.03361299999999 4.6492895326,80.10027799999999 4.8959224326,81.17241399999999 5.1854795326,82.24948499999999 5.5195155326,83.330378 5.8995315326,84.41329999999999 6.3268355326000005,85.49570999999999 6.8025015326,86.57463999999999 7.327577532599999,87.64723999999998 7.9032245326,88.71086999999999 8.5308235326,89.76311999999999 9.212111532599998,90.80183999999998 9.948398532599999,91.82589999999999 10.7397235326,92.83536999999998 11.5859755326,93.8303 12.4869765326,94.81055999999998 13.4424145326,95.77582 14.451786532600002,96.72552999999999 15.515196532600001,97.65957999999999 16.6336965326,98.57858999999999 17.8083565326,99.48326999999999 19.0401465326,100.37439999999998 20.3299665326,101.25286 21.678486532599997,102.11963999999999 23.0860865326,102.97582999999999 24.5527965326,103.82269 26.0795465326,104.66083999999998 27.6691665326,105.48991999999998 29.3249465326,106.30955999999999 31.0505665326,107.11948999999998 32.8502665326,107.91959 34.7289665326,108.70990999999998 36.6921865326,109.49175 38.7454765326,110.26809999999999 40.8942065326,111.04262999999999 43.1430565326,111.81968999999998 45.4955265326,112.60401999999999 47.9559565326,113.39594 50.5309265326,114.19197999999999 53.2288965326,114.98821999999998 56.061266532599994,115.78094999999999 59.0410265326,116.57142999999999 62.1810065326,117.36443 65.4932865326,118.16582999999999 68.9887765326,118.98106999999999 72.6757565326,119.81433999999999 76.5564465326,120.66887999999999 80.63221653260001,121.53329 84.9184965326,122.38486999999999 89.4511565326,123.21521999999999 94.2577165326,124.05287999999999 99.3277465326,124.92344999999999 104.6377765326,125.81353999999999 110.1883765326,126.70899999999999 115.97147653260001,127.61481999999998 121.94407653260001,128.5145 128.0998765326,129.3638 134.47427653260002,130.16626 141.0578765326,130.95614999999998 147.7986765326,131.76823 154.6513765326,132.5837 161.6123765326,133.35521999999997 168.6606765326,134.08852 175.75077653259999,134.77015999999998 182.8825765326,135.40785999999997 190.0278765326,136.05856999999997 197.1624765326,136.66855999999999 204.3188765326,137.23390999999998 211.4725765326,137.81324 218.6164765326,138.33816 225.7814765326,138.83436 232.93507653260002,139.33805 240.0858765326,139.77813999999998 247.25507653260001,140.20721999999998 254.4072765326,140.63056999999998 261.5649765326,140.98881999999998 268.73527653260004,141.35100999999997 275.8867765326,141.69001 283.0512765326,141.97079 290.2206765326,142.26448 297.37317653260004,142.51692 304.5440765326,142.72478999999998 311.7112765326,142.94648 318.8674765326,143.11208 326.0440765326,143.25087 333.2097765326,143.39587 340.37277653259997,143.47624 347.5549765326,143.54795 354.72177653259996,143.61142999999998 361.8956765326,143.61007 369.0848765326,143.61467 376.2583765326,143.59249999999997 383.4493765326,143.51397 390.6501765326,143.44922 397.8409765326,143.33877999999999 405.0591765326,143.18762999999998 412.28307653260003,143.04854 419.5100765326,142.84857 426.77447653260003,142.62785 434.0462765326,142.40669 441.34417653260004,142.11718 448.6922765326,141.82628999999997 456.0624765326,141.51194999999998 463.4946765326,141.13387 470.99597653259997,140.76348 478.5412765326,140.35061 486.1535765326,139.86543999999998 493.81797653259997,139.32191 501.5168765326,138.71635999999998 509.24727653260004,138.04845999999998 517.0002765326001,137.31876999999997 524.7699765326,136.52714 532.5512765326,135.67383 540.3396765326,134.75912 548.1310765326001,133.78336 555.9216765326,132.74701 563.7076765326,131.65062 571.4858765326001,130.49475999999999 579.2513765326,129.28069 586.9998765326,128.0084 594.7313765325999,126.68032 602.4254765326,125.29999999999998 610.0899765326,123.85395 617.7585765326,122.39911999999998 625.4077765326,120.93186 633.0835765326001,119.392 640.8260765326,117.84961999999999 648.6281765326,116.24573999999998 656.5626765326,114.56667999999999 664.6200765326,112.87915999999998 672.7260765326,111.18096 680.8959765326,109.39633999999998 689.2210765326,107.55757999999999 697.6817765326,105.69886 706.2274765326,103.81804 714.8034765326,101.93151999999999 723.3482765326,100.05168999999998 731.8010765326001,98.19146999999998 740.1100765326,96.36643999999998 748.2257765326,94.57111999999998 756.1439765326,92.85167999999999 763.9530765326,91.21807999999999 771.6606765326001,89.59483999999999 779.2689765326,88.03924999999998 786.8138765326,86.56539999999998 794.2881765326,85.15455999999999 801.6335765326,83.81770599999999 808.8748765326001,82.60741599999999 816.0935765326001,81.48854899999999 823.2502765326001,80.41825899999999 830.2786765326,79.41039799999999 837.1717765326,78.504438 843.9721765326,77.711339 850.6959765326,77.016809 857.3444765326,76.41846799999999 863.9255765326001,75.913519 870.4379765326,75.498511 876.8835765326,75.173735 883.2689765326,74.93162199999999 889.5669765325999,74.76408479999999 895.7661765326001,74.70494759999998 901.9193765326,74.76718739999998 908.0464765326001,74.90933399999999 914.1124765326001,75.11268499999998 920.0848765326001,75.38159699999999 925.9564765326,75.73995599999999 931.7477765325999,76.20126599999999 937.4719765326,76.75671599999998 943.1275765326001,77.40052299999999 948.7143765326,78.13088599999999 954.2332765326,78.94461899999999 959.6822765326001,79.837594 965.0570765325999,80.80560999999999 970.3525765326,81.84414399999999 975.5626765326,82.94802899999999 980.6801765326,84.11156 985.6973765326001,85.3286 990.6061765326001,86.59244999999999 995.3974765326,87.89558 1000.0624765326,89.23043999999999 1003.9996765326,90.40831999999999" stroke="black" stroke-width="2.0" /></svg>