<?xml version="1.0" encoding="utf-8" ?>
<svg baseProfile="full" height="112.01434" version="1.1" width="1011.99988998" xmlns="http://www.w3.org/2000/svg" xmlns:ev="http://www.w3.org/2001/xml-events" xmlns:xlink="http://www.w3.org/1999/xlink"><defs /><polygon fill="none" points="1003.99988998,96.00877 1000.73808998,94.9537 996.6500899800001,93.64681999999999 992.1870899800001,92.23965 987.3520899800001,90.73743 982.1754899800001,89.15316999999999 976.70168998,87.50735 970.96538998,85.8233 964.99208998,84.09609999999999 958.84598998,82.30998 952.59458998,80.50721999999999 946.2555899800001,78.72869 939.82558998,76.97699 933.31898998,75.22479 926.79458998,73.45855 920.2839899800001,71.72691 913.77328998,70.05143 907.24298998,68.41801 900.72218998,66.7849 894.25978998,65.17248000000001 887.80958998,63.618806 881.3466899800001,62.069338 874.92298998,60.526475999999995 868.50678998,59.039823 862.06368998,57.561918 855.6473899800001,56.081918 849.24078998,54.655281699999996 842.8013899800001,53.2444578 836.37988998,51.825423 829.9733899800001,50.45606 823.5323899800001,49.110478 817.1011899800001,47.752634 810.69058998,46.439537 804.24628998,45.158015999999996 797.80378998,43.8622 791.38598998,42.605019999999996 784.93668998,41.386379999999996 778.48068998,40.15327 772.0512899800001,38.95173 765.59268998,37.79441 759.1170899800001,36.62375 752.66578998,35.47696 746.18418998,34.378209999999996 739.67108998,33.26773 733.1716899800001,32.17266 726.6346899800001,31.127019999999998 720.04228998,30.073259999999998 713.4502899800001,29.022789999999997 706.86498998,28.024579999999997 700.26228998,27.08129 693.63978998,26.158119999999997 687.05328998,25.22836 680.50408998,24.34713 673.92768998,23.49938 667.35178998,22.63727 660.78858998,21.815509999999996 654.16978998,21.029069999999997 647.51168998,20.225859999999997 640.8565899800001,19.44833 634.18658998,18.72806 627.47028998,18.053829999999998 620.72048998,17.37693 613.9806899800001,16.706939999999996 607.1933899800001,16.089819999999996 600.31008998,15.480879999999999 593.40658998,14.854239999999997 586.57908998,14.232249999999993 579.8158899800001,13.667630000000003 573.03378998,13.13109 566.25188998,12.58276 559.44888998,12.080839999999995 552.5355899799999,11.60848 545.5414899799999,11.11891 538.56398998,10.619569999999996 531.6296899800001,10.158959999999993 524.6419899800001,9.74617 517.58208998,9.327530000000003 510.53648998,8.894579999999998 503.55968998,8.484719999999996 496.56958998,8.132439999999995 489.50378997999996,7.788089999999997 482.43098998,7.427430000000001 475.42758998,7.074619999999996 468.44558998,6.778829999999999 461.39118998,6.507639999999995 454.30588997999996,6.221499999999999 447.27788998,5.931280000000001 440.29928997999997,5.688979999999994 433.26328997999997,5.487809999999996 426.17468998,5.276850000000003 419.12358997999996,5.054249999999996 412.14028998,4.86495 405.12468997999997,4.729230000000001 398.04118997999996,4.593609999999998 390.97118998,4.442539999999994 383.97568997999997,4.308410000000002 376.97948998,4.233000000000004 369.90968998,4.171900000000001 362.82918997999997,4.094940000000001 355.81888998,4.020419999999994 348.84128998,4.000579999999999 341.79878998,4.011629999999997 334.72548997999996,4.009889999999999 327.71298998,4.0 320.76778998,4.0324699999999964 313.79018998,4.111220000000003 306.78208997999997,4.184489999999997 299.83998998,4.2423299999999955 293.01438998,4.324829999999999 286.22688998,4.462469999999996 279.43658997999995,4.594900000000003 272.67288998,4.742849999999997 265.86398998,4.949059999999996 258.97818998,5.163980000000002 252.10618998,5.361710000000002 245.33958998,5.5627799999999965 238.65328998,5.8175799999999995 231.98238998000002,6.087679999999999 225.36518998,6.349029999999999 218.78308998,6.663629999999998 212.17408998000002,6.998769999999993 205.57728998,7.324460000000002 198.98478998,7.702669999999998 192.33228998,8.108649999999997 185.65398998,8.505949999999999 178.98428998000003,8.94294 172.29918998000002,9.441029999999998 165.57298998000002,9.98238 158.83188998,10.51719 152.11898998,11.068889999999996 145.40118998000003,11.676399999999994 138.68538998000002,12.326279999999997 132.01538998,13.02203 125.36268998000001,13.75786 118.73278998,14.485529999999997 112.20208998000001,15.212510000000002 105.83128998000001,15.974319999999999 99.58177998000001,16.8069 93.38198998000001,17.699389999999994 87.28869998,18.60709 81.40613998,19.511139999999997 75.79760998,20.40992 70.49757998,21.30993 65.51569998,22.217919999999996 60.83754998,23.13972 56.445619980000004,24.06768 52.33953998,24.985539999999997 48.52397998,25.882419999999996 44.993739979999994,26.755 41.73300998,27.602069999999998 38.72198998,28.424839999999996 35.94178998,29.22459 33.37387998,30.001939999999998 31.000119979999997,30.759349999999998 28.802279979999998,31.502419999999997 26.76256998,32.23559 24.86445998,32.96203 23.09298998,33.68416 21.436399979999997,34.40441 19.88580998,35.12486 18.43344998,35.84675 17.07229998,36.570719999999994 15.795949980000001,37.29701 14.59848998,38.02561 13.474577980000001,38.756389999999996 12.42172298,39.490669999999994 11.439321979999999,40.2312 10.52583198,40.98057 9.67917098,41.74113 8.897070979999999,42.515049999999995 8.17752098,43.30361 7.51941798,44.105829 6.92214098,44.920156999999996 6.38522998,45.744811999999996 5.90820198,46.577847 5.49000998,47.416422 5.12837898,48.256617 4.82073978,49.095628999999995 4.56463898,49.931796 4.35794158,50.764343 4.19895888,51.593196 4.08654067,52.418853 4.0201579,53.242311 4.0,54.06504565 4.02659352,54.8889803 4.09972197,55.716006 4.21966318,56.547564 4.38741518,57.384608 4.60460888,58.227554 4.87342178,59.076158 5.19646298,59.929328999999996 5.57659198,60.784867999999996 6.01662298,61.639125 6.51864198,62.487387 7.0832099799999995,63.32642 7.71042398,64.1537 8.400390980000001,64.96708 9.153557979999999,65.76491 9.97128998,66.54699 10.855924980000001,67.31545 11.809883979999999,68.07284 12.835278980000002,68.82186 13.93341898,69.5654 15.10505998,70.30605 16.354349980000002,71.0442 17.68700998,71.77968 19.10917998,72.51253 20.62752998,73.24311 22.24932998,73.97231 23.982709979999996,74.70177 25.837529979999996,75.43395 27.82740998,76.17104 29.968289979999998,76.9157 32.277749979999996,77.67166 34.77399998,78.44389 37.47579998,79.2372 40.40449998,80.05466 43.57559998,80.89861 46.995379979999996,81.7692 50.66837998,82.65541999999999 54.60961998,83.54097 58.85770998,84.41865 63.44976997999999,85.30529 68.37374998000001,86.2166 73.57407998,87.13582 79.01365998,88.0386 84.69156998000001,88.91113 90.63013998000001,89.75247 96.81733998,90.58363 103.17073998000001,91.40459999999999 109.63978998,92.19765000000001 116.20248998000001,92.96051 122.80648998000001,93.68399 129.44868998,94.35797 136.14278998,95.0241 142.83618998,95.69537 149.50698998000001,96.32114 156.18118998,96.88738 162.88108998,97.41923 169.56938998,97.96171000000001 176.22348998,98.47129 182.91748998000003,98.93387999999999 189.65938998000001,99.40908999999999 196.40878998,99.86537999999999 203.19348998,100.26510999999999 210.05488997999998,100.61690999999999 216.98858998,100.95517 223.91708998000001,101.30449 230.74618998000003,101.65538 237.47398998,101.95436000000001 244.18258998000002,102.21612 250.85668998,102.49051 257.49228998,102.72103 264.16798998,102.91381 270.86978997999995,103.12145 277.58958997999997,103.29016 284.40678998,103.4162 291.30168998,103.55122 298.16848998,103.70025000000001 304.94728997999994,103.82177 311.70728998,103.88767999999999 318.48408997999996,103.95865 325.24618997999994,104.01423 332.06578998,104.0127 338.97668998,104.00422 345.89048998,104.01261 352.71858998,104.01434 359.49478998,103.95889 366.29408997999997,103.88767999999999 373.08778998,103.82131999999999 379.91748997999997,103.69836 386.86178997999997,103.5479 393.86978997999995,103.41114999999999 400.84578997999995,103.28061 407.78958997999996,103.10329 414.80618998,102.88374999999999 421.90178998,102.6713 429.01728998,102.45667 436.10108998,102.24912 443.10458998,102.03943000000001 450.09378997999994,101.77148 457.16888997999996,101.48016 464.30368997999994,101.19660999999999 471.44638998,100.90915 478.54538998,100.63423 485.58398998,100.33549 492.67688997999994,99.97702000000001 499.89698997999994,99.61211 507.20568998,99.24897 514.5628899799999,98.88063 521.92488998,98.51294999999999 529.2499899800001,98.14412999999999 536.49998998,97.78798 543.64848998,97.42799 550.7976899800001,97.00638000000001 558.0707899800001,96.56224 565.4593899800001,96.1216 572.93438998,95.67282 580.47288998,95.22028 588.0490899800001,94.76585 595.64158998,94.31027 603.2302899800001,93.85496 610.7949899800001,93.40091 618.3126899800001,92.95052 625.75798998,92.50252 633.10908998,92.0612 640.3351899800001,91.63714 647.47538998,91.17393999999999 654.6799899800001,90.66036 661.99588998,90.14817 669.3862899800001,89.63221999999999 676.82098998,89.11123 684.2641899800001,88.59025 691.67668998,88.07087999999999 699.0254899800001,87.5591 706.2754899800001,87.04567 713.40268998,86.54789 720.50818998,86.11229 727.70398998,85.68892 734.96738998,85.25032 742.24488998,84.81342 749.4863899800001,84.3819 756.63508998,83.94623 763.6545899800001,83.5279 770.62898998,83.17093 777.6341899800001,82.83111 784.6047899800001,82.47737 791.45068998,82.1276 798.1875899800001,81.83498 804.8963899800001,81.57247 811.5520899800001,81.29972000000001 818.16078998,81.07647 824.79268998,80.88497 831.41458998,80.68105 838.0065899800001,80.51548 844.60098998,80.39950999999999 851.1258899800001,80.32185 857.53308998,80.31768 863.8892899800001,80.40639 870.28718998,80.58293 876.7283899800001,80.80589 883.08458998,81.06521000000001 889.34498998,81.40259 895.58098998,81.82236 901.79428998,82.31539000000001 907.9743899800001,82.88212 914.12988998,83.52309 920.2610899800001,84.2367 926.36318998,85.02165 932.43298998,85.87630999999999 938.4569899800001,86.79666 944.42058998,87.78063 950.32788998,88.82695 956.1473899800001,89.91764 961.80158998,91.04435 967.30128998,92.23893 972.7128899800001,93.50077999999999 977.9860899800001,94.77723 983.01898998,96.05113 987.80548998,97.34102 992.37238998,98.6361 996.69618998,99.90159 1000.73628998,101.11171 1003.99988998,102.10876999999999" stroke="black" stroke-width="2.0" /></svg>