<?xml version="1.0" encoding="utf-8" ?>
<svg baseProfile="full" height="115.82084" version="1.1" width="1011.8887557" xmlns="http://www.w3.org/2000/svg" xmlns:ev="http://www.w3.org/2001/xml-events" xmlns:xlink="http://www.w3.org/1999/xlink"><defs /><polygon fill="none" points="1003.8887557,74.27386 1000.7910557,74.0649577 996.6210557,73.7423462 991.8715557,73.324267 986.6965557000001,72.819024 981.1946557,72.235908 975.4597557,71.588266 969.5771557,70.892619 963.6069557,70.159017 957.5929557000001,69.393769 951.5595557,68.601469 945.5107557,67.78448900000001 939.4419557,66.944569 933.3503557,66.083811 927.2360557000001,65.204764 921.1021557,64.310416 914.9537557000001,63.40322 908.7953557000001,62.48491 902.6304557,61.557069999999996 896.4607557,60.62108 890.2868557,59.678129999999996 884.1080557000001,58.72905 877.9237557,57.77446 871.7339557,56.81506 865.5388557,55.851600000000005 859.3392557000001,54.88494 853.1366557,53.915980000000005 846.9324557,52.945660000000004 840.7281557,51.974869999999996 834.5249557000001,51.00443 828.3235557,50.035129999999995 822.1245557,49.06772 815.9281557,48.10289 809.7344557,47.1412 803.5433557,46.18303 797.3545557,45.22874 791.1681557,44.278679999999994 784.9837557000001,43.33319 778.8013557,42.3926 772.6205557000001,41.45726 766.4412557,40.52746 760.2631557000001,39.60344 754.0862557,38.68546 747.9104557,37.77377 741.7357557,36.86866 735.5622557,35.97039 729.3900557000001,35.07925 723.2194557,34.19554 717.0504557,33.31963 710.8831557000001,32.45185 704.7176557,31.592529999999996 698.5537557,30.741979999999998 692.3911557,29.9005 686.2296557000001,29.068379999999998 680.0686557,28.245889999999996 673.9077557,27.433149999999998 667.7466557,26.63015 661.5848557,25.836910000000003 655.4222557,25.05343 649.2585557,24.279739999999997 643.0937557000001,23.515860000000004 636.9276557000001,22.761850000000003 630.7604557000001,22.01777 624.5921557,21.283749999999998 618.4230557000001,20.56001 612.2533557,19.846739999999997 606.0835557,19.14418 599.9140557000001,18.452550000000002 593.7454557000001,17.772079999999995 587.5785557,17.103029999999997 581.4139557,16.44565 575.2524557,15.800509999999996 569.0946557000001,15.168329999999997 562.9408557,14.549790000000002 556.7913557,13.945540000000001 550.6460557,13.35624 544.5046557000001,12.782490000000003 538.3667557000001,12.224880000000006 532.2317557,11.683989999999994 526.0989557,11.160129999999995 519.9677557,10.653490000000005 513.8376557,10.164249999999996 507.7080557,9.692620000000005 501.5786557,9.238789999999995 495.4492557,8.802980000000005 489.31955569999997,8.385440000000003 483.1894557,7.986379999999997 477.05895569999996,7.605959999999996 470.92805569999996,7.2442199999999985 464.7966557,6.901240000000001 458.66485570000003,6.577069999999992 452.5325557,6.271779999999993 446.3998557,5.985430000000008 440.2667557,5.718090000000004 434.13325569999995,5.469830000000002 427.9994557,5.240709999999993 421.8652557,5.030770000000004 415.7308557,4.840069999999997 409.5963557,4.668679999999995 403.4616557,4.5166499999999985 397.3271557,4.384020000000007 391.19275569999996,4.270870000000002 385.0586557,4.177239999999998 378.9251557,4.103229999999996 372.7922557,4.048949999999991 366.6601557,4.014499999999998 360.5288557,4.0 354.3985557,4.0055400000000105 348.26935569999995,4.031229999999994 342.1411557,4.077190000000002 336.01405570000003,4.143519999999995 329.8880557,4.23039 323.7634557,4.33796000000001 317.6402557,4.466390000000004 311.5190557,4.6158399999999915 305.39995569999996,4.786450000000002 299.2835557,4.978369999999998 293.17025570000004,5.191749999999999 287.0608557,5.42692000000001 280.9557557,5.684339999999992 274.8554557,5.964459999999988 268.7603557,6.267719999999997 262.67095570000004,6.594589999999997 256.5873557,6.945480000000003 250.5099557,7.320869999999999 244.43885569999998,7.721270000000004 238.37435569999997,8.147279999999995 232.3168557,8.599490000000003 226.26665569999997,9.078500000000005 220.2243557,9.584860000000006 214.1903557,10.119140000000002 208.1653557,10.681890000000003 202.1499557,11.273869999999995 196.14495569999997,11.89593 190.15105569999997,12.548879999999997 184.1690557,13.233550000000001 178.1997557,13.950699999999998 172.2440557,14.701120000000003 166.3027557,15.485769999999995 160.3772557,16.30594 154.46885569999998,17.162819999999996 148.57945569999998,18.057539999999996 142.7107557,18.991149999999998 136.86505569999997,19.964609999999993 131.0446557,20.97932 125.2520557,22.03711 119.48965570000001,23.139780000000002 113.7595557,24.28906 108.0638557,25.486579999999996 102.4045957,26.73426 96.78570570000001,28.034859999999995 91.2133057,29.39062 85.69536570000001,30.802930000000003 80.24143570000001,32.27224 74.8622557,33.79876 69.5673657,35.384460000000004 64.36212569999999,37.03211 59.248035699999996,38.745110000000004 54.223875699999994,40.52762 49.298425699999996,42.382509999999996 44.5100857,44.3013 39.9192957,46.26124 35.5904357,48.23052 31.5772457,50.18461 27.9074257,52.10961 24.579965700000002,53.99562 21.5752157,55.83664 18.8755157,57.61806 16.4886957,59.30194 14.415905700000001,60.85426 12.6333467,62.26183 11.1016817,63.53038 9.7898137,64.68728300000001 8.675761699999999,65.763865 7.7343136999999995,66.779447 6.9401867,67.74647300000001 6.2704227,68.673508 5.7052957,69.566773 5.2284277,70.430886 4.8315506,71.264113 4.5138349,72.060311 4.2731133,72.81842 4.107387,73.5400227 4.0159512,74.22764054 4.0,74.8839977 4.0631978,75.511721 4.2123327,76.113334 4.4513277,76.694068 4.7794833,77.261939 5.1993977000000005,77.824525 5.7175967,78.389584 6.3451787,78.965977 7.098903699999999,79.564849 8.0019667,80.201206 9.0801327,80.895156 10.3628717,81.66740899999999 11.910090699999998,82.53028499999999 13.772785700000002,83.476873 15.925905700000001,84.46045 18.254775700000003,85.41513 20.695685700000002,86.32518 23.3033257,87.21800999999999 26.1687057,88.11914 29.4182957,89.05617 33.2251457,90.05989 37.7439157,91.14702 42.9077157,92.27288999999999 48.3906157,93.35097 53.867485699999996,94.32765 59.2658257,95.2117 64.6742557,96.03001 70.17057570000001,96.79944 75.80249570000001,97.52987999999999 81.58208570000001,98.22581 87.4787857,98.8864 93.4469457,99.50863 99.44907570000001,100.09163 105.46055570000001,100.63688 111.4717557,101.14771 117.4864557,101.62801999999999 123.51265570000001,102.0803 129.5558557,102.50651 135.6196557,102.90838 141.7047557,103.28747 147.8093557,103.64515 153.92965569999998,103.98241999999999 160.06205569999997,104.29999000000001 166.2037557,104.59864 172.35255569999998,104.87925 178.5072557,105.14274 184.6672557,105.39009 190.83275569999998,105.62218 197.00405569999998,105.83966 203.18135569999998,106.04314 209.3646557,106.23322 215.5534557,106.41051999999999 221.7474557,106.57562 227.9459557,106.72914 234.1481557,106.87149 240.35335569999998,107.00287 246.5608557,107.12352999999999 252.7703557,107.23369 258.9815557,107.33359 265.1943557,107.42346 271.40865569999994,107.50356 277.62465569999995,107.57411 283.8425557,107.63534 290.06235569999996,107.68746 296.2840557,107.73068 302.5077557,107.76523 308.7331557,107.79131 314.9602557,107.80915 321.1887557,107.81894 327.41835569999995,107.82084 333.6487557,107.81491 339.87985569999995,107.80123 346.1115557,107.77987999999999 352.3436557,107.75095 358.5762557,107.7145 364.80915569999996,107.67062 371.0425557,107.61939 377.27655569999996,107.56087 383.5111557,107.49512999999999 389.74635570000004,107.42223999999999 395.98215569999996,107.34226 402.2183557,107.25524999999999 408.45495569999997,107.16129000000001 414.6917557,107.06045 420.9285557,106.95277999999999 427.1650557,106.83832000000001 433.4011557,106.71701999999999 439.63655570000003,106.58884 445.8713557,106.45373000000001 452.1054557,106.31165999999999 458.33895570000004,106.16257 464.5720557,106.00641 470.8048557,105.84314 477.0377557,105.67273 483.2710557,105.49522999999999 489.5047557,105.31072 495.7390557,105.11927 501.9738557,104.92094 508.2092556999999,104.71583 514.4449557,104.50399999999999 520.6808557,104.28555 526.9163557,104.06055 533.1513557000001,103.82898 539.3854557000001,103.59075 545.6184557,103.34578 551.8502557,103.09396 558.0807557,102.83523 564.3101557,102.56945999999999 570.5384557000001,102.29657 576.7660557,102.01644999999999 582.9931557,101.72904 589.2201557,101.43441 595.4472557,101.13261 601.6745557,100.82371 607.9021557000001,100.50775 614.1302557,100.18482 620.3587557,99.85497 626.5874557000001,99.51829000000001 632.8163557,99.17484 639.0453557,98.82467 645.2741557,98.46782 651.5028557,98.10433 657.7312557,97.73423 663.9595557,97.35757 670.1878557000001,96.97437 676.4160557000001,96.58466 682.6444557,96.18849 688.8731557000001,95.78602 695.1025557,95.3774 701.3326557,94.96282 707.5638557000001,94.54243 713.7964557,94.11642 720.0306557,93.68494 726.2667557,93.24815 732.5052557,92.80627 738.7462557000001,92.35959 744.9898557,91.90847 751.2362557000001,91.45324 757.4852557,90.99427 763.7365557,90.53190000000001 769.9899557000001,90.06654 776.2447557,89.59853 782.5004557000001,89.12812 788.7568557,88.65541999999999 795.0135557,88.18057 801.2706557,87.70367 807.5283557,87.22480999999999 813.7870557,86.74407 820.0473557,86.26152 826.3096557,85.77727 832.5743557000001,85.29151 838.8410557000001,84.80444 845.1091557,84.31629 851.3775557000001,83.827354 857.6448557000001,83.33793299999999 863.9091557,82.848597 870.1689557,82.360265 876.4234557000001,81.873844 882.6722557,81.390192 888.9155557,80.910117 895.1540557000001,80.43437899999999 901.3887557,79.963632 907.6199557,79.498482 913.8469557000001,79.039604 920.0680557000001,78.58774 926.2804557000001,78.143696 932.4805557,77.708843 938.6646557,77.28548599999999 944.8289557,76.875969 950.9700557000001,76.482553 957.0839557,76.107555 963.1620557,75.754372 969.1842557,75.427143 975.1201557,75.1300112 980.9266557000001,74.86780159999999 986.5182557,74.6477716 991.7781557000001,74.4752797 996.5845557,74.35505897 1000.7816557,74.29107974 1003.8887557,74.27386" stroke="black" stroke-width="2.0" /></svg>