<?xml version="1.0" encoding="utf-8" ?>
<svg baseProfile="full" height="122.91666" version="1.1" width="1011.9033898000001" xmlns="http://www.w3.org/2000/svg" xmlns:ev="http://www.w3.org/2001/xml-events" xmlns:xlink="http://www.w3.org/1999/xlink"><defs /><polygon fill="none" points="1003.8933898,94.18883 1000.6745898,93.8466694 996.6269898,93.383618 992.2074898,92.84150299999999 987.4208898,92.219031 982.2862898000001,91.51620899999999 976.8398898,90.735631 971.1242898,89.88294099999999 965.1774898,88.964019 959.0403898,87.986066 952.7539898000001,86.95783899999999 946.3525898,85.887531 939.8636898000001,84.78065699999999 933.3101898000001,83.64192 926.7081898,82.47523 920.0660898,81.28335999999999 913.3874898,80.06845 906.6751898,78.83264 899.9320898,77.57815 893.1610898,76.30729 886.3649898,75.02221 879.5462898,73.72476999999999 872.7079898000001,72.41676 865.8525898,71.10002 858.9825898,69.7764 852.1004898,68.44763999999999 845.2088898000001,67.11505 838.3106898000001,65.77989 831.4089898000001,64.44348 824.5071898,63.10718 817.6088898,61.772409999999994 810.7177898,60.44069 803.8366898,59.1136 796.9673898,57.792469999999994 790.1103898000001,56.478429999999996 783.2651897999999,55.172369999999994 776.4302898,53.87499 769.6031898,52.5866 762.7817898000001,51.30714 755.9642898,50.03659999999999 749.1497898,48.775099999999995 742.3379898000001,47.52288999999999 735.5291897999999,46.28034999999999 728.7243898,45.04795999999999 721.9248898000001,43.826449999999994 715.1316898,42.616589999999995 708.3451898,41.41909999999999 701.5657898,40.2346 694.7932898,39.063629999999996 688.0270898,37.90669 681.2663898000001,36.764179999999996 674.5101898,35.63631 667.7576898,34.52325999999999 661.0081898,33.42527 654.2612898,32.342569999999995 647.5165898,31.275460000000002 640.7738898,30.22421 634.0332898,29.18916999999999 627.2947898,28.17063999999999 620.5583898,27.168909999999997 613.8242898000001,26.184269999999984 607.0923898000001,25.217020000000005 600.3626898,24.267430000000004 593.6351898,23.33578 586.9098898000001,22.42233999999999 580.1865898,21.527379999999994 573.4654898,20.651169999999993 566.7462898,19.79397 560.0292898,18.956059999999994 553.3142898,18.137719999999987 546.6013898,17.33921000000001 539.8907898,16.5608 533.1823898,15.802800000000005 526.4764898,15.065510000000003 519.7729898,14.349230000000006 513.0720898,13.65428 506.37398980000006,12.980959999999996 499.6787898,12.329580000000007 492.9864898,11.70044 486.2973898,11.093819999999994 479.6114898,10.51003999999999 472.92888980000004,9.949380000000005 466.2494898,9.412109999999998 459.57308980000005,8.898499999999999 452.8994898,8.408829999999995 446.2283898,7.943359999999984 439.5591898,7.502330000000001 432.8917898,7.085949999999997 426.2260898,6.694409999999991 419.5620898,6.327919999999992 412.90048980000006,5.986699999999999 406.2418898,5.67098 399.58738980000004,5.380989999999997 392.93808980000006,5.116959999999992 386.29538980000007,4.879409999999993 379.6603898,4.668939999999992 373.0338898,4.486130000000003 366.4161898,4.33153999999999 359.8075898,4.205709999999996 353.2076898,4.109179999999995 346.6162898,4.042450000000002 340.03258980000004,4.005939999999995 333.45628980000004,4.0 326.8872898,4.0249900000000025 320.32538980000004,4.081280000000007 313.77078980000005,4.169219999999996 307.2239898,4.289169999999984 300.6852898,4.441499999999991 294.15558980000003,4.626719999999992 287.63578980000005,4.845349999999996 281.1270898,5.097890000000007 274.63088980000003,5.384789999999995 268.1485898,5.706489999999988 261.6820898,6.063349999999986 255.2331898,6.455939999999998 248.8035898,6.885139999999993 242.39458979999998,7.3518299999999925 236.0072898,7.856870000000001 229.64208979999998,8.401110000000003 223.29928979999997,8.985429999999994 216.9789898,9.610699999999994 210.6814898,10.27785999999999 204.4078898,10.987709999999993 198.1597898,11.740970000000004 191.9395898,12.538210000000007 185.75018980000002,13.379810000000006 179.5949898,14.266210000000001 173.47768979999998,15.198440000000005 167.4012898,16.17765999999999 161.36808979999998,17.204949999999997 155.3799898,18.281409999999994 149.4380898,19.40809999999999 143.5433898,20.58614 137.69778979999998,21.81657 131.9037898,23.10011999999999 126.1647898,24.437179999999998 120.48478979999999,25.827799999999996 114.8682898,27.271779999999993 109.3211898,28.76916 103.85012979999999,30.31962 98.4624098,31.92215999999999 93.1655998,33.57511999999999 87.9674398,35.27636 82.8774298,37.02379 77.90733979999999,38.81418 73.06989979999999,40.64278999999999 68.3776398,42.50357999999999 63.8421598,44.38977 59.4761398,46.29411999999999 55.2933998,48.207649999999994 51.3061598,50.12011 47.523029799999996,52.02111 43.9487198,53.90129999999999 40.5888798,55.752629999999996 37.4496098,57.565709999999996 34.5329398,59.331179999999996 31.835189800000002,61.041509999999995 29.3473098,62.691779999999994 27.057599800000002,64.28094 24.952959800000002,65.81132 23.0185698,67.28612 21.239149800000003,68.70886999999999 19.5999398,70.0832 18.0871498,71.41269 16.688409800000002,72.70069 15.3950298,73.94977 14.201079799999999,75.16117 13.1011078,76.33545 12.089696799999999,77.47292999999999 11.161341799999999,78.57404 10.3104658,79.63937999999999 9.5315038,80.66978999999999 8.8190128,81.66632999999999 8.1685938,82.63098 7.5770588,83.56725 7.0409118,84.47886299999999 6.5565898,85.369376 6.1206978,86.24208 5.7301208,87.099971 5.3820698,87.945763 5.0740848,88.78190699999999 4.8040206,89.61062799999999 4.5700475,90.433934 4.3722461,91.251601 4.2134933,92.060226 4.096664,92.85693599999999 4.0245377,93.6395565 4.0,94.4064166 4.0262359,95.1561945 4.1069325,95.88779199999999 4.2465158,96.600233 4.4504541,97.29256799999999 4.7247667,97.964162 5.0701298,98.617083 5.4850888,99.254263 5.9689708,99.87816 6.5216638,100.49082 7.1433418,101.093893 7.834075799999999,101.688593 8.5932108,102.27557 9.4183598,102.854688 10.3043318,103.424697 11.2502018,103.983836 12.2605288,104.53062 13.3401228,105.0637 14.493789799999998,105.58207 15.7262698,106.08529 17.042219799999998,106.57388 18.4463498,107.04974 19.9438898,107.51680999999999 21.5415098,107.98164 23.249029800000002,108.44847 25.0791898,108.91669999999999 27.0466298,109.38517999999999 29.168049800000002,109.8524 31.4620898,110.3163 33.9491998,110.77418 36.65150980000001,111.2226 39.593119800000004,111.65747999999999 42.8012598,112.07464999999999 46.302519800000006,112.46986 50.11884980000001,112.83931 54.2638298,113.18096 58.7405998,113.49633 63.5441598,113.78869 68.6588898,114.05368 74.0533298,114.28586999999999 79.6857998,114.48159 85.51626979999999,114.63960999999999 91.5193198,114.76071999999999 97.67925979999998,114.84591999999999 103.97888979999999,114.89698999999999 110.3993898,114.91666 116.92108979999999,114.90862 123.5252898,114.87666999999999 130.1946898,114.82249999999999 136.91388980000002,114.74745999999999 143.6703898,114.65314 150.45488980000002,114.54124 157.26198979999998,114.41351 164.0893898,114.27118999999999 170.9350898,114.11505 177.79778979999998,113.94592 184.67568980000001,113.76462 191.5672898,113.572 198.4712898,113.36892999999999 205.38608979999998,113.15607 212.3106898,112.93399 219.2439898,112.70324 226.1852898,112.46437 233.1340898,112.21794 240.0899898,111.96449 247.0528898,111.70455 254.0226898,111.43853999999999 260.99928980000004,111.1669 267.98228980000005,110.89005 274.9713898,110.60844999999999 281.9660898,110.32254 288.96578980000004,110.03278 295.96988980000003,109.73953 302.9778898,109.44305 309.9891898,109.14354999999999 317.00358980000004,108.84125999999999 324.02078980000005,108.5364 331.0407898,108.22917 338.0636898,107.91978999999999 345.08968980000003,107.60847 352.11878980000006,107.29545999999999 359.15138980000006,106.98102 366.1871898,106.66542 373.2262898,106.34890999999999 380.2683898,106.03178 387.3131898,105.7143 394.3603898,105.39674 401.4093898,105.07923 408.45968980000004,104.76178999999999 415.5102898,104.44447 422.56078980000007,104.127288 429.6113898,103.810228 436.6609898,103.493344 443.70878980000003,103.176672 450.75408980000003,102.860289 457.79618980000004,102.544454 464.83468980000004,102.22946999999999 471.8691898,101.915629 478.89968980000003,101.603216 485.92618980000003,101.292507 492.9489898,100.983767 499.9684898,100.677256 506.98528980000003,100.373189 513.9997897999999,100.07168 521.0124898,99.772837 528.0235898,99.476773 535.0331898000001,99.183607 542.0410898,98.893464 549.0472898,98.606477 556.0511898000001,98.322783 563.0524898,98.04255599999999 570.0505898,97.766029 577.0453898000001,97.493437 584.0367898,97.225005 591.0248898000001,96.960951 598.0099898,96.70148599999999 604.9926898,96.44681299999999 611.9736898,96.19713 618.9536898,95.95253799999999 625.9333898000001,95.713016 632.9132898,95.47854199999999 639.8935898000001,95.249105 646.8741898000001,95.0247014 653.8547898,94.80533369999999 660.8348897999999,94.5910121 667.8138898000001,94.3817629 674.7906898000001,94.17774390999999 681.7648898,93.9791916 688.7358898,93.786334 695.7036898,93.59939089999999 702.6682898,93.41857429999999 709.6301898,93.2440895 716.5898897999999,93.07613699999999 723.5482898,92.914857 730.5060898,92.76027099999999 737.4636898,92.61238999999999 744.4212898000001,92.471234 751.3785898,92.336827 758.3351898000001,92.209201 765.2902898000001,92.08838899999999 772.2427898,91.974485 779.1918898,91.867755 786.1368898,91.768491 793.0774898000001,91.676977 800.0140898000001,91.59349 806.9471898,91.518303 813.8776898,91.451683 820.8067898,91.393784 827.7352898,91.34461999999999 834.6633898,91.304206 841.5906898,91.27255799999999 848.5161898,91.249693 855.4384898000001,91.235626 862.3554898,91.23053399999999 869.2654898,91.234872 876.1672898,91.24911499999999 883.0602898,91.273729 889.9443898000001,91.309179 896.8200898,91.35591099999999 903.6872898,91.414253 910.5437898,91.484449 917.3843898000001,91.566689 924.2019898000001,91.66109 930.9868898000001,91.767833 937.7267898,91.887773 944.4067898000001,92.02181 951.0093898,92.170575 957.5157898,92.33437099999999 963.8966898,92.512698 970.1022898000001,92.70387099999999 976.0721898,92.905155 981.7471898,93.11447 987.0724898,93.331307 992.0087898,93.5539125 996.5396898,93.7789402 1000.6579898,94.00133319999999 1003.9033898000001,94.18883" stroke="black" stroke-width="2.0" /></svg>