<?xml version="1.0" encoding="utf-8" ?>
<svg baseProfile="full" height="105.2441" version="1.1" width="1011.9805000700001" xmlns="http://www.w3.org/2000/svg" xmlns:ev="http://www.w3.org/2001/xml-events" xmlns:xlink="http://www.w3.org/1999/xlink"><defs /><polygon fill="none" points="1003.97050007,73.80276 1000.75820007,73.4418507 996.5578000699999,72.9270515 991.85220007,72.302812 986.7224000699999,71.58025300000001 981.25560007,70.771499 975.5506000699999,69.89202900000001 969.6817000699999,68.95691000000001 963.69200007,67.976405 957.61590007,66.960094 951.47820007,65.91680500000001 945.2931000699999,64.85284000000001 939.0712000699999,63.772690000000004 932.82280007,62.68085000000001 926.5572000699999,61.58182000000001 920.28330007,60.479620000000004 914.0082000699999,59.377250000000004 907.7371000699999,58.277280000000005 901.47310007,57.18191 895.2175000699999,56.09297000000001 888.9697000699999,55.011700000000005 882.7288000699999,53.938900000000004 876.49400007,52.875350000000005 870.2646000699999,51.821870000000004 864.0399000699999,50.77924000000001 857.81920007,49.74824000000001 851.60220007,48.72932000000001 845.38810007,47.72289000000001 839.1763000699999,46.729290000000006 832.96610007,45.74889 826.7568000699999,44.78204000000001 820.54750007,43.82903 814.33740007,42.88984000000001 808.12580007,41.96428 801.91210007,41.05221 795.69560007,40.15350000000001 789.47590007,39.268010000000004 783.25250007,38.39564000000001 777.02490007,37.5362 770.7931000699999,36.689330000000005 764.5567000699999,35.85466000000001 758.31560007,35.03186000000001 752.07000007,34.220580000000005 745.8199000699999,33.420500000000004 739.56550007,32.6313 733.3071000699999,31.852730000000008 727.0449000699999,31.084620000000008 720.77950007,30.326790000000003 714.5109000699999,29.57910000000001 708.23940007,28.841370000000012 701.96550007,28.113430000000008 695.68930007,27.395110000000003 689.41120007,26.686270000000007 683.1314000699999,25.986870000000003 676.85000007,25.296930000000003 670.56740007,24.616460000000004 664.28370007,23.94548000000001 657.99900007,23.283970000000004 651.7135000699999,22.631960000000007 645.42730007,21.989430000000006 639.1405000699999,21.356400000000008 632.85320007,20.73293000000001 626.5654000699999,20.119090000000007 620.2772000699999,19.514930000000007 613.98860007,18.920510000000007 607.69960007,18.335880000000003 601.41020007,17.76111000000001 595.12020007,17.196230000000007 588.8298000699999,16.641300000000008 582.53880007,16.09637 576.2473000699999,15.561490000000006 569.95540007,15.03672000000001 563.66300007,14.522120000000001 557.3704000699998,14.017750000000007 551.0776000699999,13.523670000000003 544.7849000699999,13.039950000000005 538.49250007,12.566710000000008 532.20050007,12.104140000000001 525.9090000699999,11.652390000000004 519.6183000699999,11.211649999999999 513.32840007,10.782090000000004 507.03920007000005,10.363870000000006 500.75100007000003,9.957150000000013 494.46350007,9.562090000000012 488.17680007,9.178849999999997 481.89080007,8.807590000000005 475.60560007,8.448459999999997 469.32110007,8.101619999999997 463.03740007,7.767230000000012 456.75440007000003,7.445440000000005 450.47220007000004,7.136430000000004 444.19080007,6.840340000000012 437.91030007,6.557360000000003 431.63090007,6.287740000000014 425.35260007,6.031670000000005 419.07570007000004,5.789389999999997 412.80020007,5.5611200000000025 406.52640007,5.347080000000005 400.25460007,5.147480000000002 393.98500007,4.962559999999996 387.71800007,4.792640000000006 381.45370007,4.6381000000000085 375.19240007,4.4993200000000115 368.93420007000003,4.376670000000004 362.67920007,4.270520000000005 356.42750007,4.181229999999999 350.17900007,4.109170000000006 343.93370007000004,4.054700000000011 337.69150007,4.018190000000004 331.45260007,4.0 325.21690007,4.000490000000013 318.98470007000003,4.0200300000000055 312.75600007,4.058980000000005 306.53120007,4.11769000000001 300.31050007,4.196520000000007 294.09440007,4.29598 287.88320007000004,4.4166799999999995 281.67750007,4.559180000000012 275.47790007000003,4.724080000000001 269.28510007,4.911940000000001 263.09980007,5.123300000000015 256.92280007,5.358710000000002 250.75490007,5.618920000000017 244.59690007,5.904849999999996 238.44940007,6.217410000000001 232.31260007,6.5575099999999935 226.18670007000003,6.92607000000001 220.07160007000002,7.324000000000012 213.96720007000002,7.7522300000000115 207.87330007,8.21171000000001 201.79040007,8.703389999999999 195.71910007,9.228160000000017 189.66070007000002,9.786820000000006 183.61680007,10.38015 177.58940007,11.00882 171.58080007,11.67392000000001 165.59330007000003,12.37698000000001 159.62840007,13.119500000000002 153.68760007,13.90299000000001 147.77160007,14.72896 141.88090007,15.598960000000005 136.01620007,16.514910000000008 130.17970007,17.47877000000001 124.37470007,18.49219 118.60590007,19.556400000000004 112.87900007,20.672210000000007 107.20060007000001,21.84045000000001 101.57657007,23.063000000000002 96.00955007,24.34222000000001 90.49966006999999,25.6809 85.04463007,27.082330000000006 79.64203007,28.550840000000008 74.30000007000001,30.089850000000006 69.04165006999999,31.697680000000005 63.90193007,33.366760000000006 58.92213007,35.084340000000005 54.135690069999995,36.83999000000001 49.54610007,38.633370000000006 45.13219007,40.47289000000001 40.85865007,42.37445000000001 36.699720070000005,44.35423 32.71877007,46.386750000000006 29.05501007,48.39278000000001 25.82001007,50.28554000000001 23.03526007,52.021820000000005 20.63845007,53.61912000000001 18.541580070000002,55.11578000000001 16.67290007,56.546490000000006 14.97929007,57.93990000000001 13.42185407,59.320060000000005 11.981125070000001,60.69671000000001 10.667766069999999,62.04843000000001 9.500355070000001,63.337970000000006 8.48429007,64.535515 7.60828207,65.629549 6.85260607,66.62332800000001 6.20603107,67.528313 5.66114007,68.361528 5.20690707,69.13966900000001 4.83351587,69.87643200000001 4.53355757,70.582738 4.30201697,71.26748300000001 4.13606267,71.93825500000001 4.03493057,72.601943 4.0,73.265292 4.03291149,73.93415970000001 4.13164987,74.61081680000001 4.29549747,75.296259 4.52581277,75.99071 4.82587497,76.69332600000001 5.2008430699999995,77.40162000000001 5.65767707,78.110393 6.20471007,78.80991700000001 6.85146207,79.48832 7.61055007,80.14260900000001 8.49698407,80.772345 9.52790407,81.37846800000001 10.722195070000001,81.96460400000001 12.09897607,82.53948000000001 13.67357807,83.121408 15.45202007,83.742491 17.45456007,84.4195 19.710280069999996,85.15019000000001 22.23527007,85.92281000000001 25.02800007,86.71529000000001 28.085500070000002,87.50113 31.44075007,88.26504 35.14828007,89.00718 39.26621007,89.7305 43.83997007,90.43990000000001 48.86177007,91.14177000000001 54.23970007,91.82576 59.834120070000004,92.46813 65.51656007,93.05348000000001 71.22372007,93.57862 76.96577007,94.04920000000001 82.77074006999999,94.47208 88.65688007,94.85279 94.63033007,95.19604000000001 100.68252007,95.506 106.79240007,95.78487000000001 112.93910007,96.03335000000001 119.10660007,96.25268000000001 125.28450007,96.44465000000001 131.46870007,96.61141 137.66090007,96.75508 143.86470007,96.87725 150.08270007000002,96.97934000000001 156.31620007,97.06273000000002 162.56560007000002,97.12880000000001 168.82980007,97.17896 175.10640007000003,97.21441 181.39300007000003,97.23589000000001 187.68760007,97.2441 193.98830007,97.23973000000001 200.29380007000003,97.22352000000001 206.60330007000002,97.19619 212.91610007000003,97.15847000000001 219.23210007,97.11085 225.55120007,97.05365 231.87320007000002,96.98716 238.19800007,96.91172 244.52560007,96.82762000000001 250.85580007000002,96.73518 257.18860007,96.63472 263.52380007,96.52653000000001 269.86160007,96.41088 276.20170007,96.28805000000001 282.54410007,96.15832 288.88880007,96.02196 295.23560007000003,95.87926 301.58460007,95.7305 307.93550007,95.57593 314.28830007,95.41577000000001 320.64290007000005,95.25022000000001 326.99930007,95.07948 333.35720007,94.90374 339.71660007,94.72322 346.07740007,94.53812 352.43940007000003,94.34863000000001 358.80260007,94.15494000000001 365.16690007,93.95716 371.53200007,93.75541000000001 377.89810007000005,93.54979 384.26490007,93.34042000000001 390.63250007,93.12740000000001 397.00080007,92.91085000000001 403.36980007000005,92.69088 409.73950007,92.46759 416.10980007,92.24106 422.48090007,92.01140000000001 428.85260007,91.77867 435.22490007,91.54296000000001 441.59790007000004,91.30436 447.97150007,91.06296 454.34560007,90.81885000000001 460.72030007,90.5721 467.09550007,90.32279000000001 473.47110007,90.07101 479.84720007,89.81681 486.22370007,89.56027 492.60080007000005,89.30146 498.97850007,89.04045 505.35670007000004,88.77731 511.73570007000006,88.5121 518.11560007,88.24492000000001 524.49630007,87.97588 530.87800007,87.70511 537.26070007,87.43273 543.64460007,87.15887000000001 550.02940007,86.88365 556.4154000699999,86.60721000000001 562.80230007,86.32967000000001 569.19020007,86.05116000000001 575.5790000699999,85.77174000000001 581.9686000699999,85.49148000000001 588.35890007,85.21044 594.7496000699999,84.92867000000001 601.14080007,84.64625000000001 607.53210007,84.36323 613.92340007,84.07967000000001 620.31450007,83.795657 626.7052000699999,83.51131000000001 633.0952000699999,83.22681700000001 639.4846000699999,82.942366 645.8733000699999,82.65813700000001 652.26120007,82.374311 658.64850007,82.091064 665.0354000699999,81.80857 671.4221000699999,81.526999 677.80870007,81.246469 684.19550007,80.96702900000001 690.5824000700001,80.688731 696.96930007,80.41163300000001 703.3560000699999,80.13579800000001 709.7420000699999,79.86129700000001 716.12670007,79.588205 722.50940007,79.31661000000001 728.8893000699999,79.046763 735.26590007,78.779089 741.63890007,78.51400500000001 748.00800007,78.25192000000001 754.37360007,77.993227 760.7360000699999,77.73831000000001 767.09600007,77.48754100000001 773.4544000699999,77.24124 779.81230007,76.99947700000001 786.17020007,76.76225400000001 792.52840007,76.52958500000001 798.8869000699999,76.301496 805.24520007,76.07802500000001 811.60280007,75.859221 817.95870007,75.645176 824.31160007,75.43626300000001 830.66090007,75.23297400000001 837.0061000699999,75.03578300000001 843.34720007,74.84515200000001 849.6844000699999,74.6615325 856.01830007,74.4853626 862.3498000699999,74.31698410000001 868.67960007,74.15654860000001 875.0082000699999,74.00419400000001 881.3357000699999,73.86006781 887.6618000699999,73.72432526 893.9858000699999,73.59712850000001 900.3068000699999,73.4788079 906.62360007,73.3699826 912.9348000699999,73.27129430000001 919.2387000699999,73.1833751 925.53370007,73.10684380000001 931.81760007,73.04247830000001 938.0875000699999,72.99158240000001 944.33920007,72.9555289 950.5672000699999,72.93562840000001 956.76480007,72.9331422 962.92000007,72.949667 969.00810007,72.9867844 974.99320007,73.045478 980.82800007,73.1263619 986.42840007,73.2299603 991.68000007,73.35397560000001 996.48190007,73.4960439 1000.7433000699999,73.65538260000001 1003.9805000700001,73.80276" stroke="black" stroke-width="2.0" /></svg>