<?xml version="1.0" encoding="utf-8" ?>
<svg baseProfile="full" height="154.17491" version="1.1" width="1012.0275562700001" xmlns="http://www.w3.org/2000/svg" xmlns:ev="http://www.w3.org/2001/xml-events" xmlns:xlink="http://www.w3.org/1999/xlink"><defs /><polygon fill="none" points="1004.01755627,112.5052 1000.42785627,111.9166511 996.0520562700001,111.149389 991.3991562699999,110.284375 986.44785627,109.323161 981.18335627,108.266368 975.59725627,107.116051 969.68935627,105.878579 963.46995627,104.560187 956.96115627,103.168418 950.1944562699999,101.71435 943.20725627,100.21013 936.03935627,98.66653 928.72765627,97.09383 921.30045627,95.50057000000001 913.77615627,93.89164 906.17035627,92.26973000000001 898.4973562700001,90.63714 890.77015627,88.99577 882.99965627,87.34726 875.19565627,85.69319 867.3669562700001,84.03499000000001 859.5214562699999,82.37382 851.6658562700001,80.71071 843.80555627,79.04704000000001 835.94505627,77.38427 828.0878562700001,75.72364999999999 820.23645627,74.06624 812.39245627,72.41289 804.55655627,70.76436000000001 796.7297562699999,69.12141 788.91275627,67.4848 781.10645627,65.85527 773.31155627,64.23358 765.52895627,62.620540000000005 757.75935627,61.01705 750.00315627,59.424020000000006 742.26095627,57.84229 734.5331562700001,56.27270000000001 726.8199562699999,54.71602 719.12135627,53.17306000000001 711.43745627,51.64456 703.76775627,50.131240000000005 696.11165627,48.633739999999996 688.46825627,47.15265000000001 680.83645627,45.68849999999999 673.21515627,44.241690000000006 665.60315627,42.81249 658.0000562700001,41.40122000000001 650.40535627,40.00826000000001 642.81915627,38.63405 635.24175627,37.27909 627.67395627,35.94395 620.11615627,34.629310000000004 612.56865627,33.335800000000006 605.03155627,32.06399999999999 597.50435627,30.814440000000005 589.98635627,29.587559999999996 582.4767562699999,28.383790000000005 574.97425627,27.203370000000007 567.47815627,26.04647 559.98805627,24.913330000000002 552.50375627,23.804240000000007 545.02565627,22.719539999999995 537.55425627,21.65959000000001 530.09045627,20.62487 522.63535627,19.616010000000003 515.18965627,18.63367000000001 507.75395626999995,17.67846 500.32875627,16.750950000000003 492.91405627,15.851680000000002 485.50995627,14.98114000000001 478.11615627,14.139799999999994 470.73255627,13.328099999999992 463.35915627,12.546500000000009 455.99585627,11.7954 448.64285627,11.075400000000002 441.30025627000003,10.386800000000008 433.96835627,9.730100000000007 426.64745627,9.105900000000005 419.33815626999996,8.514600000000002 412.04105626999996,7.956800000000001 404.75685627,7.432999999999993 397.48655627,6.943699999999993 390.23115627,6.489400000000003 382.99175627,6.0708000000000055 375.76945627000003,5.688500000000005 368.56545626999997,5.343299999999999 361.38035627,5.035899999999998 354.21525627,4.767099999999999 347.07075627,4.537400000000005 339.94735627,4.3476 332.84585627,4.1982 325.76695627000004,4.090000000000003 318.71125627000004,4.023799999999994 311.67985627,4.0 304.67335627,4.019499999999994 297.69275627,4.0826000000000136 290.73915627,4.190200000000004 283.81395627,4.3429 276.91865627,4.541500000000013 270.05525627,4.786600000000007 263.22565627,5.078700000000012 256.43215626999995,5.418199999999999 249.67725627000002,5.805800000000005 242.96345627,6.2424000000000035 236.29285627,6.728799999999993 229.66745626999997,7.265699999999995 223.08885627,7.853799999999993 216.55845627,8.4936 210.07795627000002,9.185700000000011 203.64915627,9.930700000000002 197.27465626999998,10.729 190.95755627,11.58080000000001 184.70125627000002,12.486000000000004 178.50935627,13.444469999999995 172.38595627,14.456140000000005 166.33535627,15.521230000000003 160.36185627,16.639650000000003 154.46945627,17.811030000000002 148.66185627000002,19.03477000000001 142.94275627,20.310090000000002 137.31625627,21.636290000000002 131.78705627,23.012330000000006 126.35955627000001,24.43674 121.03865627,25.907650000000004 115.82865627,27.422810000000013 110.73405627000001,28.979860000000002 105.76015627,30.57625 100.91262627,32.20879000000001 96.19703627,33.873689999999996 91.61823627,35.56676 87.18034627,37.28365000000001 82.88746627,39.02054000000001 78.74335626999999,40.77369 74.75067627,42.53908 70.91078627,44.31261000000001 67.22370627000001,46.09024000000001 63.688276269999996,47.8682 60.303296270000004,49.64318 57.06729627,51.41186 53.97799627,53.17097 51.03230627,54.91742000000001 48.22631627,56.64844 45.55543627,58.36162 43.01516627,60.05501 40.60139627,61.726910000000004 38.30978627,63.37574 36.13565627,65.00013 34.07407627,66.59895 32.11990627,68.17138 30.267886269999998,69.71683 28.513006269999998,71.23515 26.85099627,72.72674 25.277666269999997,74.19206 23.78876627,75.63162 22.38009627,77.04596000000001 21.04751627,78.43565000000001 19.78696627,79.80127 18.594556269999998,81.14345 17.46658627,82.46283 16.40044627,83.75993 15.39425627,85.03518 14.446016270000001,86.28905 13.55369327,87.522 12.715200269999999,88.73456 11.92845327,89.92723000000001 11.19138427,91.10053 10.50195927,92.255 9.85819127,93.39116 9.258122270000001,94.50952000000001 8.69953527,95.61054 8.18010127,96.69467 7.69762227,97.76243 7.25004127,98.81436000000001 6.83543927,99.85103000000001 6.452031270000001,100.873 6.09815827,101.88086 5.77228227,102.87517 5.4729782700000005,103.85647 5.19892427,104.825298 4.94893797,105.78215900000001 4.72347667,106.727082 4.52480217,107.659746 4.35499127,108.580151 4.21589817,109.48858200000001 4.10924711,110.385548 4.03671353,111.27173 4.0,112.1479535 4.00090827,113.0151611 4.0414122,113.874407 4.12373617,114.726854 4.25044407,115.573783 4.42423867,116.41643 4.6457685699999995,117.254583 4.91486467,118.08706600000001 5.23175527,118.912385 5.59704027,119.728683 6.011661269999999,120.533675 6.4768792699999995,121.32457500000001 6.99425127,122.097992 7.56560027,122.84982000000001 8.19297427,123.57509 8.87839127,124.26882 9.62285727,124.93074 10.426995269999999,125.56252 11.29135327,126.16605 12.21633027,126.74349000000001 13.20206027,127.29737 14.248246270000001,127.83071000000001 15.35396627,128.34714 16.517316270000002,128.85108 17.73507627,129.34796 19.00263627,129.844 20.31938627,130.34172 21.68821627,130.84066 23.11224627,131.34031 24.59483627,131.8401 26.13962627,132.33948 27.75059627,132.8379 29.43227627,133.33488 31.18990627,133.83008 33.029796270000006,134.32337 34.95978627,134.81489 36.98858627,135.30486 39.12520627,135.79335 41.379626269999996,136.28046 43.76282627,136.76641 46.28675627,137.25151 48.96418627,137.73624 51.80825627,138.22131000000002 54.831836270000004,138.70776 58.04665627,139.19652 61.46463627,139.68633 65.09654627,140.17484 68.95089627,140.65936 73.03363626999999,141.137 77.34860626999999,141.60497 81.89951627,142.06096 86.69255627,142.50310000000002 91.73344627,142.92891 97.02376627000001,143.33582 102.55993627,143.72147999999999 108.33285627,144.08405 114.32835627,144.42241 120.52865627000001,144.73507 126.91295627,145.01947 133.45885627,145.27355 140.14415627,145.49603 146.95025626999998,145.68642 153.86405627,145.84487000000001 160.87625627,145.97162 167.97775627,146.06711 175.15965627,146.1321 182.41295627000002,146.1676 189.72975627,146.17491 197.10275627000001,146.15511 204.52535627,146.10903000000002 211.99125627,146.03759 219.49525627,145.94181 227.03245626999998,145.82283 234.59905627,145.68183 242.19195627000002,145.51964 249.80855627,145.33688 257.44655627,145.13417 265.10405627,144.91219 272.77965627000003,144.6716 280.47225627,144.41308 288.18115627000003,144.13725 295.90575627,143.84467 303.64515627,143.53592 311.39835627,143.2116 319.16445627,142.87233 326.94215627,142.51875 334.73025627000004,142.15142 342.52765626999997,141.7707 350.33365627,141.37694 358.14805627000004,140.97045 365.97085626999996,140.55156 373.80255626999997,140.12053 381.64395627,139.67766 389.49635627000004,139.22336 397.36035627,138.75817 405.23675627,138.28267 413.12575626999995,137.79742 421.02725627,137.30306000000002 428.94095627,136.80020000000002 436.86605627,136.2895 444.80185627000003,135.77149 452.74765627,135.24667 460.70325627000005,134.71552 468.66845627,134.17852 476.64335626999997,133.63611 484.62855627,133.08874 492.62445627,132.53687 500.63165627,131.98099000000002 508.64995626999996,131.42167 516.67865627,130.85952 524.71635627,130.29518000000002 532.76115627,129.72935999999999 540.81055627,129.1628 548.86135627,128.59624 556.91065627,128.03026 564.95605627,127.46541 572.9954562700001,126.90219 581.02755627,126.34107 589.05125627,125.78248 597.0661562700001,125.22682 605.07215627,124.67448 613.0693562700001,124.12592000000001 621.05785627,123.58157 629.03785627,123.04186 637.00925627,122.50723 644.97225627,121.978121 652.92705627,121.454946 660.8736562700001,120.93811 668.81205627,120.427998 676.74235627,119.924997 684.66435627,119.429495 692.57775627,118.941883 700.4824562700001,118.46255000000001 708.37805627,117.991901 716.26435627,117.530384 724.14095627,117.078455 732.00795627,116.636554 739.86555627,116.20511400000001 747.71385627,115.784552 755.5534562700001,115.37527800000001 763.38455627,114.977647 771.20735627,114.591975 779.02155627,114.218596 786.82635627,113.857855 794.6207562699999,113.510108 802.4032562699999,113.1757223 810.17205627,112.855216 817.92535627,112.54931281 825.66155627,112.2587257 833.3791562700001,111.9841401 841.0768562699999,111.7262146 848.75345627,111.485584 856.40745627,111.262907 864.0362562700001,111.058873 871.6356562699999,110.874166 879.20015627,110.709436 886.72345627,110.565292 894.19765627,110.442695 901.61405627,110.343108 908.9624562700001,110.26786200000001 916.23205627,110.218078 923.41165627,110.194633 930.48845627,110.19825300000001 937.44625627,110.229414 944.26615627,110.288158 950.92815627,110.374043 957.41175627,110.486412 963.69255627,110.624424 969.74435627,110.786473 975.5434562700001,110.970364 981.07245627,111.176051 986.32155627,111.404905 991.28915627,111.65697180000001 995.97965627,111.931949 1000.40155627,112.2297198 1004.0275562700001,112.5052" stroke="black" stroke-width="2.0" /></svg>