<?xml version="1.0" encoding="utf-8" ?>
<svg baseProfile="full" height="113.81676999999999" version="1.1" width="1011.98211219" xmlns="http://www.w3.org/2000/svg" xmlns:ev="http://www.w3.org/2001/xml-events" xmlns:xlink="http://www.w3.org/1999/xlink"><defs /><polygon fill="none" points="1003.98211219,79.65055 1000.7992121899999,79.2975256 996.8455121899999,78.82184219999999 992.56921219,78.26722099999999 987.95851219,77.631907 983.0098121899999,76.91509099999999 977.73271219,76.117905 972.14901219,75.245863 966.2886121899999,74.305452 960.18891219,73.302988 953.8891121899999,72.24624999999999 947.4201121899999,71.142682 940.8053121899999,69.99861899999999 934.06921219,68.82096 927.2363121899999,67.61722 920.32951219,66.39480999999999 913.37001219,65.15962999999999 906.3756121899999,63.91683999999999 899.36111219,62.671009999999995 892.33661219,61.42599 885.3087121899999,60.18442999999999 878.28281219,58.94817 871.26291219,57.71889 864.25251219,56.49807 857.2540121899999,55.287009999999995 850.2689121899999,54.08691999999999 843.29751219,52.89887999999999 836.33941219,51.7238 829.39311219,50.56241 822.4560121899999,49.41529 815.5250121899999,48.282669999999996 808.5968121899999,47.16415 801.66891219,46.059309999999996 794.7397121899999,44.96782999999999 787.80811219,43.88957 780.8739121899999,42.824479999999994 773.9374121899999,41.77261 766.99931219,40.734049999999996 760.0598121899999,39.708859999999994 753.11891219,38.697019999999995 746.1762121899999,37.698499999999996 739.23111219,36.71321 732.2827121899999,35.74101999999999 725.3301121899999,34.781659999999995 718.37251219,33.834849999999996 711.4098121899999,32.900369999999995 704.44241219,31.97807999999999 697.4709121899999,31.067879999999995 690.4967121899999,30.16971999999999 683.5214121899999,29.283699999999996 676.5465121899999,28.41019 669.57311219,27.54957999999999 662.60201219,26.702169999999995 655.63341219,25.868219999999994 648.66691219,25.047919999999998 641.70201219,24.241409999999995 634.73751219,23.44874 627.7725121899999,22.669779999999996 620.8062121899999,21.90440999999999 613.83811219,21.152559999999994 606.8682121899999,20.41418999999999 599.8967121899999,19.689299999999996 592.92401219,18.977909999999994 585.9509121899999,18.280119999999997 578.9781121899999,17.596149999999994 572.00651219,16.926229999999997 565.0365121899999,16.270569999999992 558.06841219,15.629379999999998 551.1027121899999,15.002829999999989 544.1394121899999,14.391080000000002 537.17851219,13.79428999999999 530.21991219,13.21266 523.26381219,12.646389999999997 516.3102121899999,12.095679999999987 509.35911218999996,11.560749999999985 502.41101219,11.041809999999998 495.46591219000004,10.539069999999995 488.52431219,10.052769999999995 481.58651219,9.583160000000007 474.65281219,9.130529999999993 467.72341219000003,8.69516999999999 460.79821219,8.277329999999992 453.87721219,7.877289999999988 446.96021219,7.495289999999997 440.04701219,7.131569999999996 433.13721219,6.786369999999991 426.23061219000004,6.459859999999992 419.32741218999996,6.1522700000000015 412.42771219,5.8637899999999945 405.53201219000005,5.59465999999999 398.64091219,5.345079999999996 391.75531219,5.1152799999999985 384.87611219,4.905599999999993 378.00421219000003,4.7165099999999995 371.14031219,4.54849999999999 364.28521219,4.402029999999996 357.43901219,4.2775199999999955 350.60231219,4.1754299999999915 343.77501219000004,4.096180000000004 336.95731219000004,4.040210000000002 330.14921219,4.007989999999992 323.35121219,4.0 316.56351219000004,4.016689999999997 309.78671219,4.058509999999998 303.02141219000004,4.12590999999999 296.26841219,4.219309999999993 289.52871219,4.3393199999999865 282.80321219,4.486639999999994 276.09311219,4.661910000000006 269.39961218999997,4.865769999999998 262.72411219,5.0988200000000035 256.06801219,5.361609999999999 249.43281219,5.654779999999988 242.81991219,5.979230000000001 236.23051219,6.33587 229.66561219000002,6.7255699999999905 223.12591219,7.149180000000001 216.61181219000002,7.607539999999986 210.12361219000002,8.101479999999995 203.66211219000002,8.631899999999987 197.22861219,9.199629999999999 190.82511219000003,9.805369999999982 184.45461219,10.44968 178.12021219,11.13293999999999 171.82611219,11.85553999999999 165.57641219,12.618479999999991 159.37541219000002,13.422779999999989 153.22701219,14.269299999999987 147.13491219,15.158749999999998 141.10241219000002,16.091649999999994 135.13301219,17.06866999999999 129.23161219000002,18.090529999999994 123.40451218999999,19.157449999999997 117.65881219,20.269039999999997 112.00241219,21.424299999999995 106.44381219,22.621899999999997 100.99256218999999,23.860889999999998 95.65932218999998,25.13971999999999 90.45480219,26.455899999999993 85.38909219,27.806149999999995 80.47121219,29.18670999999999 75.71134219,30.594199999999994 71.12236218999999,32.02401999999999 66.71726219000001,33.469919999999995 62.50693219,34.92470999999999 58.49866219,36.38101999999999 54.696642190000006,37.83294 51.10237219,39.27600999999999 47.71356219,40.706059999999994 44.52448219,42.119499999999995 41.526782190000006,43.51342999999999 38.71043219,44.88572 36.06671219,46.234989999999996 33.58945219,47.55908999999999 31.27281219,48.855219999999996 29.110142189999998,50.120709999999995 27.09366219,51.35347 25.21462219,52.55212999999999 23.46395219,53.71638999999999 21.83366219,54.84836 20.31523219,55.95115 18.89972219,57.02789 17.57846219,58.08154999999999 16.34338219,59.11484 15.18712219,60.13019 14.10307219,61.12976999999999 13.08541819,62.11547999999999 12.13071819,63.08895999999999 11.237499190000001,64.05116 10.40453719,65.00232 9.63059019,65.94226 8.91425619,66.87053 8.253916189999998,67.78654 7.64770819,68.68966999999999 7.09355619,69.57934999999999 6.58920319,70.455069 6.1329861900000004,71.31626899999999 5.72430819,72.162656 5.36210419,72.994841 5.04501019,73.814067 4.77163349,74.621972 4.54072229,75.420429 4.35127149,76.21146499999999 4.2025901900000004,76.997221 4.09435339,77.77994799999999 4.02665001,78.562029 4.0,79.34537879999999 4.01524467,80.12860409999999 4.07371179,80.909097 4.17728479,81.684089 4.32842229,82.450564 4.53020449,83.205164 4.7864056900000005,83.944077 5.10159819,84.662909 5.48129119,85.356516 5.93132619,86.019729 6.45327719,86.652739 7.046952190000001,87.258051 7.71229719,87.83814799999999 8.44922219,88.395584 9.257327189999998,88.93308499999999 10.13549819,89.45369099999999 11.081281189999999,89.96091 12.08995019,90.45890999999999 13.15401819,90.95237999999999 14.272072190000001,91.44292 15.44823219,91.92984999999999 16.68695219,92.41247 17.99300219,92.89023 19.371512189999997,93.36282 20.82811219,93.83036 22.36921219,94.2936 24.00251219,94.75426999999999 25.737912189999996,95.21544 27.587722189999997,95.67998 29.565372189999998,96.14836 31.686092189999997,96.62078 33.96673219,97.09738999999999 36.42594219,97.57834 39.08382219000001,98.06385 41.96091219,98.55421 45.07644219,99.04977 48.44882219,99.5491 52.09380219,100.04862 56.01985219,100.54383999999999 60.22655219,101.03004 64.70648219,101.50316 69.45236218999999,101.96097999999999 74.46095219,102.40083999999999 79.72386218999999,102.81888 85.22514218999999,103.21168 90.94303219,103.57676 96.85340219,103.913 102.93373219,104.21973 109.16171218999999,104.4961 115.51451219,104.74208999999999 121.97071219,104.95863 128.51281218999998,105.14748999999999 135.12811219000002,105.31053 141.80671219,105.4486 148.53981219000002,105.56263999999999 155.31961219000002,105.65382 162.14011219,105.72348 168.99681218999999,105.77309 175.88661219,105.80385 182.80661219,105.81676999999999 189.75371219000002,105.81294 196.72451219,105.7935 203.71561219000003,105.75966 210.72331219000003,105.71258 217.74421219,105.65286 224.77531219,105.58077 231.81461219,105.49663 238.86081219000002,105.40074999999999 245.91331219000003,105.29344 252.97261219,105.175 260.03931219,105.04580999999999 267.11441219,104.90630999999999 274.19831219,104.75698 281.29131219,104.59828999999999 288.39291219,104.43072 295.50271219,104.25478 302.61971219000003,104.07096 309.74281219,103.8796 316.87101219000004,103.68095 324.00361219,103.47524999999999 331.14021219,103.26274 338.28041219,103.04365 345.42441219,102.81823 352.57231219000005,102.58669 359.72441219,102.34926999999999 366.88111219,102.1062 374.04241219,101.85775 381.20821219000004,101.60417 388.37811219,101.34572 395.55191219000005,101.08267 402.72891219,100.8153 409.90831219,100.54379999999999 417.08951219000005,100.26827 424.27231219000004,99.98877999999999 431.45621219000003,99.70541999999999 438.64121219000003,99.41826999999999 445.82741219,99.12737999999999 453.01521219,98.83281 460.20491219,98.53465 467.39711219000003,98.23302 474.59191219,97.92808 481.78981219,97.62001 488.99061219000004,97.30895 496.19421219,96.99511 503.40041219,96.67864 510.60891219000007,96.35974999999999 517.8191121899999,96.03855999999999 525.0307121899999,95.71515 532.24341219,95.38959 539.4570121899999,95.06193999999999 546.67171219,94.73227 553.8875121899999,94.40062999999999 561.10471219,94.06707 568.3238121899999,93.73165 575.5452121899999,93.39451 582.76911219,93.05582 589.9958121899999,92.71571999999999 597.22531219,92.37441 604.45761219,92.03205 611.6925121899999,91.68881999999999 618.9298121899999,91.34491 626.16901219,91.00048 633.40981219,90.65566 640.65151219,90.31061 647.8934121899999,89.96548 655.1348121899999,89.620414 662.3748121900001,89.27558099999999 669.61241219,88.931148 676.84671219,88.587364 684.07681219,88.244573 691.30221219,87.903108 698.52241219,87.563293 705.7374121899999,87.225437 712.9473121899999,86.889838 720.15241219,86.556781 727.35321219,86.226519 734.55001219,85.89927499999999 741.7430121900001,85.575284 748.93201219,85.254792 756.11651219,84.938051 763.2960121899999,84.625327 770.46951219,84.316901 777.63601219,84.013166 784.79501219,83.714573 791.9465121899999,83.421549 799.09071219,83.134502 806.22851219,82.853819 813.3611121899999,82.57986799999999 820.49011219,82.31291399999999 827.61641219,82.05307599999999 834.74001219,81.800494 841.85971219,81.555343 848.9737121899999,81.317825 856.07881219,81.08816999999999 863.1715121899999,80.866878 870.24931219,80.654736 877.3112121899999,80.4524854 884.3578121899999,80.2608132 891.3914121899999,80.0803608 898.41491219,79.9115746 905.4285121899999,79.75439109999999 912.4254121899999,79.60875582999999 919.39261219,79.4746966 926.31071219,79.3522856 933.15641219,79.24290459999999 939.9080121899999,79.1498 946.54731219,79.0759047 953.06061219,79.02361069999999 959.4346121899999,78.9940774 965.63921219,78.98630659999999 971.62371219,78.99855099999999 977.33191219,79.0286721 982.71771219,79.078723 987.75511219,79.1527765 992.43861219,79.252051 996.7762121899999,79.3746175 1000.7761121899999,79.5161423 1003.98211219,79.65055" stroke="black" stroke-width="2.0" /></svg>