<?xml version="1.0" encoding="utf-8" ?>
<svg baseProfile="full" height="102.22699" version="1.1" width="1011.9338501900002" xmlns="http://www.w3.org/2000/svg" xmlns:ev="http://www.w3.org/2001/xml-events" xmlns:xlink="http://www.w3.org/1999/xlink"><defs /><polygon fill="none" points="1003.92385019,63.9951 1000.72165019,63.7005961 996.5822501900001,63.2913477 991.9812501900001,62.8006 986.96505019,62.226063 981.57605019,61.570813 975.87865019,60.846544 969.94925019,60.069891 963.86005019,59.252406 957.67175019,58.402966 951.42035019,57.527895 945.11545019,56.63071 938.7602501900001,55.714831000000004 932.3608501900001,54.784302000000004 925.92635019,53.8438 919.46875019,52.89761 912.9995501900001,51.94856 906.52725019,50.99901 900.05795019,50.05087 893.59465019,49.10564 887.1378501900001,48.16438 880.6879501900002,47.228 874.24475019,46.29736 867.8081501900001,45.37329 861.3778501900001,44.4566 854.9532501900001,43.54798 848.5338501900001,42.647890000000004 842.1189501900001,41.75675 835.70805019,40.87495 829.30025019,40.0029 822.89475019,39.141000000000005 816.4906501900001,38.28948 810.0871501900001,37.44834 803.6836501900001,36.61757 797.2796501900001,35.79717 790.87465019,34.98714 784.46835019,34.18753 778.06065019,33.39837 771.65135019,32.61965 765.24045019,31.85129 758.82795019,31.093220000000002 752.4135501900001,30.345390000000002 745.9974501900001,29.60774 739.57945019,28.88019 733.1595501900001,28.162689999999998 726.73775019,27.455180000000006 720.3139501900001,26.75757 713.8882501900001,26.069809999999997 707.4607501900001,25.391840000000002 701.0316501900002,24.72361 694.60095019,24.06505 688.16915019,23.416140000000006 681.7362501900001,22.776870000000002 675.3024501900001,22.147280000000002 668.8679501900001,21.527390000000004 662.43275019,20.917209999999997 655.99685019,20.31678 649.5601501900001,19.726080000000003 643.1226501900001,19.145120000000006 636.68405019,18.573909999999998 630.2441501900001,18.0124 623.80305019,17.460589999999996 617.36065019,16.91847 610.9172501900001,16.38604 604.47315019,15.863309999999998 598.0284501900001,15.350280000000005 591.5839501900001,14.846989999999998 585.1398501900001,14.353540000000002 578.6968501900001,13.870130000000003 572.2550501900001,13.396970000000003 565.8146501900001,12.93423 559.37555019,12.482080000000003 552.93745019,12.040680000000002 546.5001501900001,11.610190000000003 540.0630501900001,11.190729999999995 533.62545019,10.782330000000002 527.18715019,10.384930000000004 520.7475501900001,9.998460000000001 514.30675019,9.622890000000005 507.86475019,9.258179999999996 501.42185019,8.904330000000002 494.97845019,8.561310000000006 488.53515019,8.229120000000002 482.09255019,7.90795 475.65135019,7.598040000000005 469.21175019,7.2996300000000005 462.77425019,7.012930000000004 456.33875019,6.73818 449.90545018999995,6.475589999999997 443.47395019,6.225360000000002 437.04405019,5.9876800000000046 430.61535019,5.762680000000003 424.18765019,5.550470000000004 417.76085019,5.351140000000001 411.33465019,5.164830000000002 404.90925018999997,4.991630000000001 398.48485019,4.831679999999999 392.06155019,4.6850999999999985 385.63965019,4.552019999999999 379.21955019,4.432690000000001 372.80145019,4.327320000000007 366.38575019,4.236139999999999 359.97245018999996,4.159390000000002 353.56175019,4.097280000000005 347.15365018999995,4.05003 340.74825019,4.017880000000005 334.34545018999995,4.001089999999998 327.94555019,4.0 321.54865019,4.0149199999999965 315.15515019,4.046170000000004 308.76565019,4.094070000000002 302.38055019,4.158919999999995 296.00085019,4.241019999999999 289.62715019,4.340769999999999 283.26035019,4.458739999999999 276.90085019,4.595530000000004 270.54875019,4.751730000000002 264.20425019000004,4.9279399999999995 257.86685019,5.12473 251.53615019,5.342729999999996 245.21155019,5.582520000000002 238.89275019000002,5.844620000000006 232.57985019,6.129550000000002 226.27375019,6.43777 219.97555019,6.769730000000003 213.68725019,7.125800000000005 207.41085019,7.506360000000001 201.14905019,7.912300000000002 194.90385019,8.344860000000004 188.67675019,8.80529 182.46855019,9.294829999999997 176.27955019,9.814720000000001 170.10955019,10.366260000000004 163.95805019,10.95084 157.82565019,11.569860000000006 151.71405019,12.224580000000003 145.62625019,12.916070000000005 139.56615019,13.645140000000005 133.53865019,14.412480000000002 127.54925019,15.21969 121.60285019,16.068960000000004 115.70305018999998,16.962430000000005 109.85215019,17.902160000000002 104.05165019,18.89022 98.30359019,19.929080000000006 92.61429018999999,21.020960000000002 86.99538019,22.16664 81.46263019,23.365180000000002 76.03470019,24.613999999999997 70.73240018999999,25.911879999999996 65.57562019,27.259060000000005 60.58061019,28.654539999999997 55.75954019,30.096110000000003 51.121940190000004,31.58079 46.68786019,33.1024 42.49122019,34.64671 38.565400190000005,36.19417 34.93196019,37.72486 31.600010190000003,39.22518 28.569090189999997,40.68756 25.82651019,42.106049999999996 23.35052019,43.477140000000006 21.114850190000002,44.79975 19.094490190000002,46.07422 17.27145019,47.29959 15.62999019,48.47385 14.153880189999999,49.59584 12.82638119,50.66586 11.630993189999998,51.68549 10.55255719,52.65759 9.58217419,53.5895 8.713515189999999,54.489855 7.93920819,55.365227000000004 7.25166019,56.220606000000004 6.64354419,57.05981 6.10803419,57.885784 5.63889019,58.700824 5.23047319,59.506731 4.87938469,60.302806000000004 4.58626699,61.084025000000004 4.35147899,61.847207 4.17511809,62.591063 4.05759029,63.3154431 4.0,64.02087897999999 4.0044827,64.7083205 4.07458289,65.37899300000001 4.21560629,66.034404 4.43004379,66.678015 4.71654019,67.31497 5.07524619,67.950029 5.50791119,68.587718 6.01768819,69.232511 6.608839189999999,69.888899 7.28602619,70.56124 8.05250119,71.253099 8.90712019,71.965645 9.85415819,72.697494 10.90413019,73.445982 12.06613319,74.20686 13.346255189999999,74.97454 14.746830189999999,75.74333 16.26789019,76.50966 17.91220019,77.27545 19.69365019,78.04795 21.63695019,78.83134 23.773820190000002,79.62932 26.14372019,80.44595 28.79499019,81.28544 31.779740190000002,82.15061 35.13726019,83.03817000000001 38.88216019,83.93388 42.991390190000004,84.81691000000001 47.405430190000004,85.66693000000001 52.06170019,86.47379000000001 56.93739019,87.23777 62.029940190000005,87.95708 67.33127019000001,88.63013000000001 72.82501019,89.2565 78.48555018999998,89.83705 84.28196018999999,90.37127000000001 90.18372019,90.85876 96.16397018999999,91.30103 102.20252019,91.70139 108.28795019,92.06415 114.41495018999998,92.39169 120.57955018999999,92.68563 126.77795018999998,92.94776 133.00665019,93.18006 139.26255019,93.38461000000001 145.54335019,93.56316 151.84655019,93.71708 158.16985018999998,93.84782 164.51085019,93.95685 170.86715019,94.04572999999999 177.23645019,94.11603 183.61635019,94.16873 190.00505019,94.2044 196.40125018999998,94.22362 202.80405019,94.22699 209.21305019,94.21511 215.62835019,94.18860000000001 222.05045019,94.14809 228.48015019,94.09425 234.91755019,94.02776 241.36275019,93.94931 247.81535019,93.8596 254.27495019,93.75934000000001 260.74035019,93.64923999999999 267.21045018999996,93.52986 273.68425019,93.40144000000001 280.16075019,93.2642 286.63915019,93.11834999999999 293.11925019,92.96412000000001 299.60055019000004,92.80172 306.08315019,92.63136 312.56735019,92.45324 319.05335019,92.2676 325.54145019,92.07466 332.03185019,91.87467000000001 338.52475018999996,91.66784 345.02015019000004,91.45442 351.51815019000003,91.23464 358.01875019,91.00874999999999 364.52195019,90.77697 371.02755019,90.5395 377.53555019,90.29656 384.04565019,90.04835 390.55765019,89.79509 397.07125019,89.53699 403.58605019000004,89.27427 410.10185019,89.00715 416.61815019,88.73576 423.13455018999997,88.46011 429.65095019,88.1802 436.16705019,87.89605 442.68285019,87.60766000000001 449.19845019,87.31501 455.71375019000004,87.01811000000001 462.22925018999996,86.71692999999999 468.74505019,86.41154 475.26155019000004,86.10207 481.77905018999996,85.78864 488.29775019000004,85.4714 494.81795019,85.15048 501.33985019,84.82603 507.86375019,84.49818 514.38985019,84.16707 520.9181501900001,83.83288 527.4490501900001,83.49584 533.9824501900001,83.1562 540.5184501900001,82.81421 547.05705019,82.47014 553.5980501900001,82.12423 560.1415501900001,81.77676 566.68715019,81.42799 573.23465019,81.07816 579.78395019,80.72743 586.33465019,80.37591 592.8866501900001,80.02374 599.4396501900001,79.67105000000001 605.99365019,79.31794000000001 612.54845019,78.96454 619.10405019,78.61098 625.66025019,78.25735 632.2163501900001,77.90372 638.7719501900001,77.55011999999999 645.3273501900001,77.19653 651.8825501900001,76.84294 658.4378501900001,76.48934 664.99375019,76.13572 671.5498501900001,75.78208000000001 678.1048501900001,75.42854 684.65805019,75.07531 691.20935019,74.7226 697.75855019,74.37064000000001 704.3054501900001,74.01963 710.85015019,73.669779 717.39275019,73.321293 723.93345019,72.97436400000001 730.4725501900001,72.629179 737.01015019,72.285923 743.54635019,71.94479 750.0809501900001,71.605981 756.6137501900001,71.269707 763.14415019,70.936184 769.6715501900001,70.605636 776.1952501900001,70.278334 782.71455019,69.9547 789.22915019,69.635171 795.7390501900001,69.32016300000001 802.2447501900001,69.010076 808.74705019,68.705291 815.24695019,68.40617400000001 821.74585019,68.112984 828.24495019,67.825727 834.74455019,67.54439500000001 841.24465019,67.26901000000001 847.74435019,66.99962099999999 854.2421501900001,66.7363 860.73575019,66.479197 867.2231501900001,66.228954 873.70265019,65.986415 880.17385019,65.752382 886.6370501900001,65.527615 893.09335019,65.312844 899.5446501900001,65.108677 905.99255019,64.91535569999999 912.43715019,64.7330767 918.87685019,64.5620772 925.3086501900001,64.4026193 931.72805019,64.2551497 938.12885019,64.120913 944.50325019,64.001343636 950.8421501900001,63.89779522 957.13495019,63.8115485 963.3639501900001,63.7443324 969.49455019,63.698031900000004 975.4772501900001,63.6739243 981.25405019,63.673094400000004 986.7443501900001,63.6973368 991.8594501900001,63.746085 996.5337501900001,63.8169546 1000.7147501900001,63.90660571 1003.9338501900002,63.9951" stroke="black" stroke-width="2.0" /></svg>