<?xml version="1.0" encoding="utf-8" ?>
<svg baseProfile="full" height="134.83388000000002" version="1.1" width="1011.8579163" xmlns="http://www.w3.org/2000/svg" xmlns:ev="http://www.w3.org/2001/xml-events" xmlns:xlink="http://www.w3.org/1999/xlink"><defs /><polygon fill="none" points="1003.8579163,89.94069 1000.7107163000001,89.51465 996.7652163000001,88.828428 992.3768163000001,87.967796 987.5335163000001,86.963588 982.2808163000001,85.84399400000001 976.6887163,84.64261 970.8305163,83.39388000000001 964.7562163,82.11821 958.5142163,80.82049 952.1587163000002,79.505 945.7386163000001,78.17733 939.2871163,76.84052 932.8172163000002,75.49416000000001 926.3309163,74.13848 919.8299163,72.77439000000001 913.3163163,71.40295 906.7928163,70.02538000000001 900.2614163000001,68.64284 893.7233163000001,67.25634000000001 887.1793163000001,65.86670000000001 880.6302163,64.47452 874.0774163000001,63.08053000000001 867.5233163,61.6856 860.9708163,60.29086 854.4225163000001,58.89755 847.8799163000001,57.50676000000001 841.3434163000001,56.119330000000005 834.8125163000001,54.735850000000006 828.2864163,53.356790000000004 821.7654163000001,51.982800000000005 815.2513163000001,50.61482 808.7470163,49.25401 802.2562163,47.90223 795.7818163000001,46.56199000000001 789.3251163000001,45.235510000000005 782.8858163000001,43.924690000000005 776.4622163,42.63105000000001 770.0516163,41.35537000000001 763.6508163000001,40.09783 757.2562163,38.85851 750.8638163,37.637460000000004 744.4693163000001,36.434670000000004 738.0684163000001,35.249500000000005 731.6587163,34.08086000000001 725.2400163000001,32.92804 718.8139163000001,31.790729999999996 712.3848163,30.668990000000008 705.9584163000001,29.563810000000004 699.5394163,28.477270000000004 693.1308163,27.41118999999999 686.7334163,26.366969999999995 680.3463163,25.345740000000006 673.9669163,24.348130000000012 667.5916163,23.373940000000005 661.2174163000001,22.422830000000005 654.8416163,21.49454 648.4615163000001,20.58892 642.0748163000001,19.705850000000012 635.6800163000001,18.844980000000007 629.2764163,18.005840000000006 622.8649163,17.188120000000012 616.4479163,16.39169000000001 610.0291163,15.61654 603.6135163000001,14.863050000000001 597.2055163,14.132639999999995 590.8074163000001,13.426680000000005 584.4191163,12.746230000000011 578.0385163000001,12.09217000000001 571.6613163000001,11.465140000000005 565.2820163,10.864859999999993 558.8961163000001,10.290260000000004 552.5009163000001,9.740439999999992 546.0957163,9.214690000000004 539.6818163,8.71247000000001 533.2624163,8.233450000000005 526.8414163000001,7.778130000000004 520.4218163,7.34723000000001 514.0061163,6.941360000000003 507.59561629999996,6.561030000000002 501.1906163,6.206680000000006 494.7907163,5.878659999999996 488.3948163,5.577119999999994 482.0017163,5.3022299999999944 475.6095163,5.054150000000007 469.2161163,4.833060000000003 462.8189163,4.639129999999994 456.4154163,4.472070000000002 450.0042163,4.33120000000001 443.5851163,4.215909999999994 437.15941630000003,4.1255900000000025 430.72991629999996,4.059610000000006 424.3004163,4.017570000000006 417.8749163,4.0 411.45601630000004,4.007580000000004 405.04501630000004,4.040980000000005 398.64191630000005,4.100840000000005 392.2451163,4.187810000000013 385.8525163,4.302179999999993 379.4617163,4.4439000000000135 373.0711163,4.612899999999996 366.67931630000004,4.809139999999999 360.2856163,5.032600000000002 353.8896163,5.283210000000011 347.49141629999997,5.5608 341.0916163,5.86511999999999 334.6916163,6.195930000000004 328.2930163,6.552910000000011 321.89811629999997,6.935730000000007 315.5093163,7.344540000000009 309.1282163,7.7797999999999945 302.7555163,8.242019999999997 296.3909163,8.731759999999994 290.0333163,9.249650000000003 283.6810163,9.796130000000005 277.3327163,10.371319999999997 270.98801629999997,10.975290000000001 264.6475163,11.608009999999993 258.3123163,12.269400000000005 251.9845163,12.959519999999998 245.6660163,13.678740000000005 239.3584163,14.427490000000006 233.06281629999998,15.20617 226.78011629999997,16.01525000000001 220.51091630000002,16.85529000000001 214.2557163,17.726979999999998 208.0149163,18.63099000000001 201.78881629999998,19.567999999999998 195.5781163,20.53868 189.3830163,21.543700000000015 183.2045163,22.583670000000012 177.0437163,23.65912 170.9022163,24.770500000000013 164.7819163,25.918359999999993 158.6850163,27.10355 152.6142163,28.32683 146.5725163,29.58881000000001 140.5631163,30.890050000000002 134.5892163,32.23165000000001 128.65291630000002,33.614940000000004 122.75551630000001,35.0414 116.8975163,36.512620000000005 111.0804163,38.02986 105.30921629999999,39.59337000000001 99.5919463,41.20223 93.9397463,42.85484 88.3647763,44.551100000000005 82.8773963,46.29133 77.4857963,48.07574 72.19768629999999,49.90392000000001 67.0258463,51.77275 61.9885463,53.67584000000001 57.1074463,55.60441 52.4119163,57.548300000000005 47.9386663,59.492050000000006 43.7216963,61.416740000000004 39.785936299999996,63.306020000000004 36.142736299999996,65.14882 32.788556299999996,66.93771000000001 29.709976299999997,68.66836 26.8977663,70.33361000000001 24.3500663,71.92054 22.0594163,73.41825 20.0093563,74.82246 18.179736300000002,76.14096 16.5453263,77.38758 15.0797363,78.57531 13.7592713,79.7151 12.563967299999998,80.81578 11.478155300000001,81.88234 10.4910773,82.91532000000001 9.594719300000001,83.9136 8.7820873,84.87572 8.0464733,85.80062000000001 7.3812913,86.68793000000001 6.7825562999999995,87.539468 6.2494483,88.360614 5.7795453000000006,89.157317 5.3696263,89.935207 5.0164343,90.699391 4.7170463,91.45446100000001 4.4690242,92.20457 4.2709464,92.95251400000001 4.1246523999999996,93.69508400000001 4.0331831,94.4280562 4.0,95.14836840000001 4.0294172,95.85373340000001 4.1271051,96.542345 4.3007767,97.212643 4.5573302,97.865007 4.8955473,98.504911 5.3138973,99.138138 5.8116733,99.770033 6.3879383,100.405614 7.0397302999999996,101.049392 7.7590353,101.70465300000001 8.5387453,102.371509 9.3819353,103.047157 10.2922683,103.728115 11.273119300000001,104.410811 12.3282983,105.09230000000001 13.4635763,105.77125000000001 14.689026299999998,106.44887 16.0180663,107.12711 17.4664963,107.80759 19.0533263,108.49196 20.800886300000002,109.18166000000001 22.7337363,109.87752 24.8771363,110.57895 27.259456299999997,111.28369 29.9078363,111.98893000000001 32.8469263,112.69357 36.1018063,113.40136 39.7034763,114.11544 43.6793363,114.83259000000001 48.0391963,115.54946000000001 52.768966299999995,116.26428 57.83226629999999,116.96959000000001 63.1730063,117.65387000000001 68.7317463,118.30930000000001 74.4680863,118.93287000000001 80.3536163,119.52263 86.3611963,120.07809 92.46763630000001,120.60036 98.65493629999999,121.09074000000001 104.9075163,121.55063 111.2122163,121.9821 117.5585163,122.3876 123.93861629999999,122.76843 130.3466163,123.12567 136.7777163,123.46061 143.2293163,123.77465000000001 149.6997163,124.06899 156.18711629999999,124.3447 162.68961629999998,124.6029 169.2051163,124.84472000000001 175.73151629999998,125.07095000000001 182.2667163,125.28204 188.8090163,125.47844 195.3567163,125.66063 201.9084163,125.82907 208.4633163,125.98404000000001 215.0207163,126.12571 221.5805163,126.2543 228.14291630000002,126.37001000000001 234.7089163,126.47304 241.2786163,126.56345 247.8506163,126.64126 254.42191630000002,126.70647 260.9876163,126.7591 267.54121630000003,126.79902 274.0762163,126.82469 280.5884163,126.83388000000001 287.0770163,126.82442 293.5439163,126.79418 299.9935163,126.74105 306.43261629999995,126.66387 312.8681163,126.56301 319.3059163,126.43889 325.7514163,126.29188 332.20901630000003,126.12228 338.6827163,125.93044 345.17551629999997,125.71763 351.68931630000003,125.48572 358.22511629999997,125.23667 364.78241629999997,124.97254000000001 371.3595163,124.69548 377.95331630000004,124.40778 384.5603163,124.11212 391.17711629999997,123.81125 397.8011163,123.50797 404.4299163,123.20506 411.0616163,122.90531 417.6952163,122.61106000000001 424.32971630000003,122.32286 430.9648163,122.04071 437.60081629999996,121.76458 444.2384163,121.49440000000001 450.8789163,121.23012 457.5241163,120.97151 464.1759163,120.7176 470.83541629999996,120.46714 477.5035163,120.21894 484.1800163,119.97181 490.8643163,119.72455000000001 497.5552163,119.47613 504.25101630000006,119.22635 510.9501163,118.97543 517.6513163,118.72358 524.3533163000001,118.47101 531.0551163000001,118.21792 537.7559163000001,117.96447 544.4551163000001,117.71064000000001 551.1523163,117.45622 557.8474163000001,117.20101 564.5406163,116.94482 571.2324163000001,116.68743 577.9235163,116.42862 584.6149163,116.16849 591.3073163,115.90735000000001 598.0012163000001,115.64555 604.6970163,115.38341 611.3947163,115.12129 618.0944163,114.85953 624.7956163000001,114.59821000000001 631.4981163,114.33724000000001 638.2015163000001,114.07649 644.9054163000001,113.81587 651.6096163000001,113.55527000000001 658.3136163,113.29459 665.0171163,113.03388000000001 671.7200163000001,112.77327 678.4221163,112.51288000000001 685.1235163000001,112.25282 691.8245163,111.99321 698.5252163,111.73413000000001 705.2260163000001,111.47556 711.9272163,111.21745000000001 718.6287163000001,110.95975000000001 725.3306163,110.70243 732.0326163,110.44546 738.7345163,110.18885 745.4360163000001,109.93271 752.1364163000001,109.67715 758.8355163000001,109.42229 765.5324163000001,109.16825 772.2266163,108.91499 778.9175163,108.66196000000001 785.6046163000001,108.40843000000001 792.2875163,108.15369000000001 798.9662163,107.89703 805.6408163,107.6378 812.3116163000001,107.37569 818.9798163,107.11055 825.6469163,106.84216 832.3149163,106.57031 838.9865163000001,106.29486 845.6632163,106.01617 852.3445163,105.73476000000001 859.0272163000001,105.45126 865.7063163,105.16645 872.3757163,104.88196400000001 879.0321163000001,104.599997 885.6757163000001,104.322574 892.3106163,104.051531 898.9428163,103.78753900000001 905.5762163,103.53000700000001 912.2104163,103.278423 918.8410163000001,103.03246 925.4609163,102.792406 932.0635163000001,102.55891 938.6432163000001,102.332547 945.1932163,102.111844 951.6915163000001,101.89151600000001 958.0948163000002,101.666781 964.3490163000001,101.431852 970.4192163,101.177592 976.2980163000001,100.89677900000001 981.9632163,100.601724 987.3188163,100.319052 992.2507163,100.080014 996.7005163000001,99.914186 1000.6883163000001,99.858489 1003.8579163,99.94069" stroke="black" stroke-width="2.0" /></svg>