<?xml version="1.0" encoding="utf-8" ?>
<svg baseProfile="full" height="82.17438999999999" version="1.1" width="1011.9992108036" xmlns="http://www.w3.org/2000/svg" xmlns:ev="http://www.w3.org/2001/xml-events" xmlns:xlink="http://www.w3.org/1999/xlink"><defs /><polygon fill="none" points="1003.9992108036,45.35820999999999 1001.0157108036,45.498487999999995 996.9460108036001,45.627337999999995 992.2903108036,45.690287999999995 987.2995108036,45.666903999999995 982.0768108036,45.55298499999999 976.6434108036,45.35028 971.0583108036,45.064389999999996 965.3856108036,44.70366599999999 959.6663108036,44.278589 953.9105108036,43.798725 948.1106108036,43.270095999999995 942.2620108036,42.698322 936.3670108036,42.089963 930.4336108036,41.451387 924.4692108036,40.788016999999996 918.4785108036,40.10516 912.4634108036,39.407506999999995 906.4259108036,38.698567999999995 900.3712108036,37.982048999999996 894.3069108036001,37.261928999999995 888.2414108036,36.541349999999994 882.1800108036,35.822689999999994 876.1241108036,35.10782999999999 870.0722108036,34.39766999999999 864.0226108036001,33.692519999999995 857.9736108036001,32.992659999999994 851.9238108036001,32.298179999999995 845.8721108036001,31.608729999999994 839.8178108036,30.923959999999994 833.7608108036001,30.243539999999992 827.7008108036,29.567099999999996 821.6381108036,28.89426999999999 815.5729108035999,28.224699999999995 809.5059108036,27.558209999999992 803.4379108036,26.894779999999994 797.3700108036,26.234399999999994 791.3035108036,25.577369999999995 785.2399108036001,24.924359999999993 779.1803108035999,24.276049999999994 773.1255108036,23.633199999999995 767.0764108036001,22.996819999999996 761.0331108036,22.367949999999993 754.9956108036,21.747559999999996 748.9634108036,21.136589999999995 742.9364108036,20.535959999999996 736.9145108036,19.946619999999996 730.8978108036,19.369469999999993 724.8858108036001,18.805329999999994 718.8772108036001,18.254959999999993 712.8705108036,17.718859999999992 706.8640108036,17.197079999999993 700.8565108036,16.689629999999994 694.8475108036,16.196559999999995 688.8367108036,15.717739999999996 682.8235108036,15.252939999999992 676.8074108036,14.801949999999998 670.7878108036,14.364389999999993 664.7643108036,13.939759999999993 658.7364108036,13.52758 652.7043108036,13.12735 646.6679108036,12.73856 640.6274108036,12.360699999999994 634.5832108036001,11.993269999999995 628.5354108036,11.635879999999993 622.4846108035999,11.288169999999994 616.4312108036,10.949769999999994 610.3755108036,10.620419999999989 604.3180108036,10.299949999999995 598.2588108036,9.988139999999994 592.1980108036,9.684819999999995 586.1357108036,9.389859999999992 580.0722108036,9.10311999999999 574.0080108036,8.824509999999997 567.9433108036,8.554019999999994 561.8782108036,8.29164999999999 555.8125108035999,8.037379999999999 549.7459108036,7.791149999999995 543.6784108036001,7.5528599999999955 537.6104108036,7.322449999999996 531.5424108036,7.0999300000000005 525.4747108036,6.88539999999999 519.4071108036001,6.678929999999994 513.3390108036001,6.480559999999997 507.2699108036,6.290159999999993 501.20001080360004,6.107629999999993 495.12971080360006,5.932909999999993 489.0595108036,5.7660199999999975 482.9896108036,5.607049999999994 476.9193108036,5.4560399999999944 470.8482108036,5.312919999999991 464.7758108036,5.177509999999998 458.7025108036,5.049669999999992 452.62901080360007,4.929329999999993 446.5558108036,4.816579999999995 440.48281080360005,4.711489999999991 434.4095108036,4.614089999999997 428.33521080360003,4.524229999999996 422.2596108036,4.441739999999996 416.1829108036,4.366449999999993 410.1052108036,4.2982999999999905 404.02701080360004,4.237249999999989 397.9485108036,4.183249999999994 391.86981080360005,4.136279999999992 385.79101080360005,4.096289999999996 379.71221080360004,4.063239999999993 373.63341080360004,4.037099999999995 367.5546108036,4.017859999999992 361.47561080360003,4.005499999999998 355.39651080360005,4.0 349.31721080360006,4.001359999999998 343.2379108036,4.009549999999997 337.1584108036,4.024579999999993 331.0790108036,4.046419999999998 324.99951080360006,4.075099999999992 318.92011080360004,4.110619999999997 312.8409108036,4.152969999999989 306.7619108036,4.202169999999988 300.68341080360005,4.258259999999993 294.6053108036,4.3212899999999905 288.52771080360003,4.3913399999999925 282.45081080360006,4.46844999999999 276.37441080360003,4.552709999999998 270.29871080360004,4.644239999999996 264.2239108036,4.743239999999993 258.1505108036,4.8498599999999925 252.07911080359997,4.964259999999989 246.0105108036,5.086649999999992 239.9454108036,5.217429999999993 233.8837108036,5.3570999999999955 227.8248108036,5.506129999999992 221.7696108036,5.664919999999995 215.7209108036,5.833919999999992 209.6811108036,6.014309999999995 203.65011080359997,6.2075399999999945 197.6255108036,6.414739999999995 191.6061108036,6.63662999999999 185.59271080359997,6.873849999999997 179.58621080359998,7.12726 173.58621080359998,7.39777999999999 167.59141080359998,7.686179999999993 161.60221080359997,7.992919999999991 155.6212108036,8.31852 149.65211080359998,8.664199999999994 143.69831080359998,9.031339999999993 137.76311080359997,9.42190999999999 131.8510108036,9.838329999999992 125.96791080359999,10.283159999999995 120.1200108036,10.760259999999995 114.31231080359998,11.273749999999993 108.54941080359998,11.828359999999996 102.8379608036,12.429379999999995 97.18608080359999,13.081739999999996 91.5995108036,13.792189999999998 86.07540080359999,14.568599999999996 80.60790080359999,15.417549999999995 75.1928908036,16.344629999999995 69.82413080359999,17.354929999999996 64.4924908036,18.452609999999996 59.1929108036,19.638879999999993 53.9327408036,20.909889999999994 48.7454708036,22.255929999999992 43.679240803599996,23.66866999999999 38.788310803600005,25.141069999999996 34.1299608036,26.665579999999995 29.7596108036,28.230249999999995 25.7370008036,29.811969999999995 22.1310908036,31.371629999999996 18.9733908036,32.875679999999996 16.2555108036,34.30233 13.967245803600001,35.627269999999996 12.0671268036,36.838469999999994 10.4900238036,37.949138999999995 9.1712798036,38.976451999999995 8.0638808036,39.930477999999994 7.1395378036,40.827915 6.3773628036000005,41.691953999999996 5.7523968036,42.529227999999996 5.2407188036,43.338027 4.8204159036,44.115472999999994 4.4791090036,44.86131999999999 4.2255955036,45.57878699999999 4.0669962736,46.2676513 4.0,46.9290355 4.0235636036,47.57957449999999 4.1559560036,48.23294799999999 4.4305469036,48.878252999999994 4.8326988036,49.512643999999995 5.3265388036,50.13820799999999 5.9267748036,50.73172999999999 6.6655388036000005,51.268961 7.5397118036,51.77512599999999 8.5480098036,52.271744 9.7177118036,52.76324199999999 11.089298803599998,53.259587999999994 12.7150818036,53.77614199999999 14.6683208036,54.32428999999999 17.0371308036,54.913754999999995 19.912250803600003,55.54813399999999 23.3838808036,56.236019 27.501040803600002,56.97172 32.2001708036,57.733839999999994 37.338970803600006,58.497339999999994 42.7665208036,59.24220999999999 48.3639108036,59.955079999999995 54.0589008036,60.629979999999996 59.8129908036,61.26411999999999 65.6143408036,61.85941999999999 71.45351080359998,62.41909999999999 77.32339080359999,62.94627 83.22127080359999,63.44386999999999 89.14779080359999,63.91538 95.0999708036,64.36461 101.0703208036,64.79383999999999 107.0553108036,65.20452999999999 113.05461080359999,65.59851 119.06721080359999,65.9776 125.0909108036,66.34326999999999 131.1234108036,66.69662 137.1623108036,67.03864999999999 143.2057108036,67.36989 149.2534108036,67.69081 155.3057108036,68.00197 161.3620108036,68.30393 167.4202108036,68.59707999999999 173.4788108036,68.88136 179.53811080359998,69.15664999999998 185.6000108036,69.42323999999999 191.66481080359998,69.68159 197.7305108036,69.93196999999999 203.7954108036,70.17412999999999 209.8598108036,70.40778999999999 215.9256108036,70.63309 221.9938108036,70.85041999999999 228.0642108036,71.06006 234.13561080359997,71.26213999999999 240.2079108036,71.45676999999999 246.2809108036,71.64403999999999 252.3546108036,71.82400999999999 258.4294108036,71.99678 264.5053108036,72.16247999999999 270.58241080360006,72.32126 276.66061080360004,72.47326 282.7397108036,72.61859999999999 288.8194108036,72.75738999999999 294.89951080360004,72.88964999999999 300.9798108036,73.01536999999999 307.0601108036,73.13457 313.14071080360003,73.24726 319.22151080360004,73.35346999999999 325.30271080360006,73.45322999999999 331.3844108036,73.54659 337.4664108036,73.63359 343.5486108036,73.71426 349.6309108036,73.78859999999999 355.71301080360007,73.85656999999999 361.79491080360003,73.9181 367.87641080360004,73.97317 373.95761080360006,74.02171 380.0384108036,74.06367 386.1190108036,74.09902 392.19931080360004,74.12769 398.2795108036,74.14962 404.35941080360004,74.16476 410.43891080360004,74.17303 416.51791080360005,74.17438999999999 422.5961108036,74.16875999999999 428.67331080360003,74.15607 434.74931080360005,74.13614999999999 440.8244108036001,74.10884 446.89921080360006,74.07401999999999 452.9739108036,74.03165999999999 459.0486108036,73.98177 465.1224108036,73.92434999999999 471.1946108036,73.85923 477.26501080360003,73.78613 483.3339108036,73.70478 489.4024108036,73.61504 495.4709108036,73.51695 501.53971080360003,73.41055 507.60851080360004,73.29588 513.6768108035999,73.17291 519.7450108036,73.04162 525.8133108036,72.90199 531.8824108036,72.75413999999999 537.9525108036,72.59826 544.0236108036,72.43450999999999 550.0953108036,72.26304999999999 556.1676108036,72.08400999999999 562.2407108036,71.8975 568.3153108036,71.70369 574.3916108036001,71.50287999999999 580.4697108036,71.29539 586.5489108035999,71.08149999999999 592.6288108036,70.86135999999999 598.7088108035999,70.63504999999999 604.7888108036001,70.40267 610.8687108035999,70.16423999999999 616.9486108036,69.9198 623.0283108036,69.66936 629.1077108036,69.41291999999999 635.1866108035999,69.15044999999999 641.2648108036,68.88193 647.3422108036,68.60728999999999 653.4186108036,68.32645 659.4943108036,68.03931 665.5693108036,67.74577 671.6441108036,67.44582 677.7188108036,67.13947999999999 683.7934108036001,66.82676 689.8677108036001,66.50771 695.9418108036,66.18234 702.0162108036001,65.85065999999999 708.0913108036,65.51275 714.1676108036,65.16882 720.2453108036,64.81911 726.3246108036001,64.46385 732.4055108036,64.10336 738.4884108036,63.73795 744.5734108035999,63.36789999999999 750.6611108036,62.99361999999999 756.7515108036,62.615559999999995 762.8446108036001,62.234179999999995 768.9399108036,61.84989999999999 775.0374108036,61.463089999999994 781.1372108036,61.074099999999994 787.2393108036,60.683279999999996 793.3438108035999,60.291019999999996 799.4506108036001,59.89771999999999 805.5591108036,59.503769999999996 811.6685108036,59.10934999999999 817.7783108036,58.714589999999994 823.8881108036001,58.31961 829.9974108036,57.924389999999995 836.1059108036,57.52882999999999 842.2134108036,57.132856999999994 848.3194108036,56.736279999999994 854.4235108036,56.338837999999996 860.5252108036,55.940267999999996 866.6238108036,55.54024199999999 872.7189108036,55.138256999999996 878.8105108036,54.73376 884.8990108036,54.32621999999999 890.9853108036,53.915347999999994 897.0707108036,53.50090599999999 903.1570108036,53.08265899999999 909.2459108035999,52.660796999999995 915.3374108036,52.23591 921.4302108036001,51.808736999999994 927.5207108036,51.38091599999999 933.6032108036001,50.955358999999994 939.6697108036,50.53520699999999 945.7100108036,50.124202999999994 951.7158108036,49.72755099999999 957.6833108036001,49.350289 963.6119108036,48.997575 969.4927108036001,48.679607 975.2905108036,48.40939999999999 980.9475108036,48.1985707 986.4095108036,48.052248999999996 991.6809108036,47.966614299999996 996.6666108036,47.920723699999996 1000.9610108036001,47.8851312 1003.9992108036,47.855109999999996" stroke="black" stroke-width="2.0" /></svg>