<?xml version="1.0" encoding="utf-8" ?>
<svg baseProfile="full" height="177.5314" version="1.1" width="1012.01669949" xmlns="http://www.w3.org/2000/svg" xmlns:ev="http://www.w3.org/2001/xml-events" xmlns:xlink="http://www.w3.org/1999/xlink"><defs /><polygon fill="none" points="1004.01669949,169.5314 999.32589949,167.65950999999998 993.70099949,165.413648 987.8319994899999,163.06893599999998 981.70609949,160.62007 975.3125994899999,158.06251 968.6437994899999,155.39303999999998 961.6974994899999,152.6105 954.47859949,149.71663999999998 947.0014994899999,146.71728 939.28929949,143.6232 931.3709994899999,140.44845999999998 923.2800994899999,137.20918999999998 915.05159949,133.92240999999999 906.7193994899999,130.60477 898.31319949,127.27144999999999 889.8582994899999,123.93651 881.37689949,120.61319 872.88809949,117.31339999999999 864.40749949,114.04739999999998 855.9469994899999,110.82372 847.51439949,107.64912 839.1138994899999,104.52868999999998 830.74579949,101.46598999999999 822.4075994899999,98.46323 814.0932994899999,95.52147 805.7940994899999,92.64077999999998 797.4986994899999,89.82 789.1954994899999,87.05465999999998 780.8745994899999,84.33941 772.5267994899999,81.66949999999999 764.14429949,79.04078 755.71999949,76.44956999999998 747.24779949,73.89260999999999 738.72269949,71.36707 730.14059949,68.87049999999999 721.4986994899999,66.40069999999999 712.7952994899999,63.95599999999999 704.0298994899999,61.53499999999998 695.2034994899999,59.136799999999994 686.3183994899999,56.761999999999986 677.37889949,54.411799999999985 668.3917994899999,52.0881 659.36659949,49.79329999999999 650.31539949,47.530199999999994 641.2527994899999,45.302099999999996 632.19599949,43.112599999999986 623.16409949,40.965599999999995 614.1776994899999,38.864900000000006 605.25869949,36.814299999999974 596.42869949,34.81809999999999 587.70549949,32.88419999999999 579.09859949,31.0197 570.61069949,29.229599999999976 562.23839949,27.516999999999967 553.97349949,25.883800000000008 545.80409949,24.330700000000007 537.7149994899999,22.85809999999998 529.6885994899999,21.46599999999998 521.70449949,20.154299999999978 513.73959949,18.922999999999973 505.76779949,17.772699999999986 497.75959948999997,16.70319999999998 489.68429949,15.708699999999993 481.51469949,14.780899999999974 473.22689949000005,13.912700000000001 464.80079949,13.097699999999975 456.22059949,12.329800000000006 447.47679949,11.60299999999998 438.56719949,10.911599999999993 429.50029949000003,10.24939999999998 420.29719949,9.610499999999973 410.99389949,8.988400000000013 401.64229949,8.376899999999978 392.30579949,7.7760000000000105 383.04199949,7.195899999999995 373.89289949,6.646500000000003 364.88509948999996,6.135899999999992 356.03119949,5.670399999999972 347.33249949000003,5.254899999999992 338.78089949,4.893299999999982 330.36179949,4.588799999999992 322.05519949,4.344199999999972 313.83669949,4.162399999999991 305.67789949,4.046600000000012 297.54669949000004,4.0 289.41209949,4.021199999999993 281.25159949,4.107599999999991 273.05249949,4.256599999999992 264.81209949000004,4.465899999999976 256.53849949000005,4.732699999999994 248.25099949,5.0534999999999854 239.98019949,5.423699999999997 231.76689949000001,5.837499999999977 223.65919949,6.287700000000001 215.70859948999998,6.766500000000008 207.96499949,7.265500000000003 200.47239949000002,7.776699999999977 193.26269949000002,8.30249999999998 186.34619949,8.854599999999976 179.71449949,9.442599999999999 173.34859949000003,10.074399999999997 167.22409949000001,10.756699999999995 161.31489949000002,11.495000000000005 155.59499949000002,12.294699999999978 150.03889949,13.160200000000003 144.62529949,14.089099999999974 139.34089949000003,15.07529999999997 134.17949949,16.11239999999998 129.14009948999998,17.1935 124.22549949,18.311399999999992 119.44059948999998,19.458399999999983 114.79149949,20.626800000000003 110.28449948999999,21.808999999999997 105.92489949,22.997500000000002 101.71729948999999,24.1858 97.66470948999999,25.371399999999994 93.76720949,26.555499999999995 90.02127949,27.739499999999992 86.42109949,28.92500000000001 82.95953949,30.113499999999988 79.62881949,31.30649999999997 76.42098949,32.50539999999998 73.32824948999999,33.71079999999998 70.34416949,34.922799999999995 67.46360949,36.140799999999984 64.68229948999999,37.36419999999998 61.996569490000006,38.591999999999985 59.40312949,39.822899999999976 56.898919490000004,41.05590000000001 54.48101949,42.289500000000004 52.146929490000005,43.522699999999986 49.89639949,44.755099999999985 47.729239490000005,45.98719999999999 45.64431949,47.21939999999999 43.63982949,48.45239999999998 41.71357949,49.68679999999999 39.863149490000005,50.92349999999999 38.08599949,52.16319999999999 36.37954949,53.40689999999998 34.74130949,54.655199999999994 33.168839489999996,55.909199999999984 31.65979949,57.169499999999985 30.21200949,58.43709999999999 28.82340949,59.712699999999984 27.49118949,60.996999999999986 26.21071949,62.28949999999999 24.97774949,63.58949999999999 23.78870949,64.89569999999999 22.64054949,66.20679999999999 21.53063949,67.52129999999998 20.456689490000002,68.8372 19.416669490000004,70.15288 18.40876949,71.46624999999999 17.43136949,72.77536999999998 16.482949490000003,74.07830999999999 15.562959489999999,75.37307 14.673529490000002,76.65762 13.816819490000002,77.93039999999999 12.99436049,79.19036 12.207207490000002,80.43684999999999 11.45603149,81.66955999999999 10.74121449,82.88842999999999 10.06292049,84.09361999999999 9.42116149,85.28544 8.81583949,86.46431999999999 8.24679449,87.63076999999998 7.71382949,88.78537999999999 7.216736490000001,89.92878999999999 6.75532149,91.06166999999999 6.32941449,92.18472999999999 5.93888749,93.29867999999999 5.58366449,94.40427999999999 5.26372749,95.50224999999999 4.97913329,96.59337999999998 4.73001469,97.67845 4.51659269,98.75823 4.33918489,99.83354999999999 4.19821459,100.90523999999999 4.09422267,101.97415 4.02787943,103.04117999999998 4.0,104.10725 4.011561837,105.17332999999999 4.06349502,106.24042 4.15547899,107.30921 4.28681719,108.38023999999999 4.45697709,109.45398999999999 4.66557629,110.53089 4.91236999,111.61133999999998 5.19724049,112.69567999999998 5.52018949,113.7842 5.88132849,114.87714 6.280873489999999,115.97468999999998 6.719138490000001,117.07696999999999 7.196525490000001,118.18402999999998 7.71352349,119.29583 8.27069449,120.41224 8.86866449,121.53302 9.50811049,122.65778999999998 10.18974349,123.786 10.91428649,124.91691 11.68244549,126.04955999999999 12.494868490000002,127.18270999999999 13.35210149,128.31477999999998 14.25451949,129.44384 15.20226949,130.56749 16.195139490000003,131.68282 17.23255949,132.78655999999998 18.31445949,133.87743999999998 19.44115949,134.95573 20.61283949,136.02193 21.82951949,137.07676999999998 23.09107949,138.12126999999998 24.397289490000002,139.15673999999999 25.74773949,140.18482 27.14197949,141.20750999999998 28.57941949,142.22723 30.059539490000002,143.24651 31.58275949,144.26503 33.150059490000004,145.28059 34.76253949,146.29076999999998 36.42135949,147.29300999999998 38.12782949,148.28458999999998 39.883449490000004,149.26257999999999 41.68990949,150.22387999999998 43.54920949,151.16519 45.463679490000004,152.08294 47.43611949,152.9733 49.46988949,153.83212 51.56908949,154.65483 53.73874949,155.43636999999998 55.98492949,156.17204999999998 58.31385949,156.86267999999998 60.73196949,157.51143 63.24611949,158.12193 65.86341949,158.69844999999998 68.59101949,159.24615 71.43567949,159.77140799999998 74.40309948999999,160.28213599999998 77.49677949,160.78822399999999 80.71664949,161.30145 84.06127949,161.825834 87.53030949,162.355975 91.12333948999999,162.885017 94.84053949,163.405033 98.68383949,163.907074 102.65839949,164.381172 106.77459948999999,164.81684199999998 111.04689949,165.209891 115.49179948999999,165.560765 120.12709948999999,165.870294 124.97209949,166.139806 130.04739948999998,166.37138399999998 135.37339949,166.568235 140.96899949000002,166.735198 146.84819949,166.879381 153.01489949,167.01089399999998 159.45689949,167.14112 166.14669949,167.26861399999999 173.04869949,167.38513 180.12439949,167.48136499999998 187.33749949000003,167.547387 194.65959949,167.57296399999998 202.07519949000002,167.547641 209.58459949000002,167.461446 217.20059949000003,167.31257599999998 224.93749949000002,167.103752 232.80869949,166.837852 240.82659949,166.51801799999998 249.00239949000002,166.147831 257.34459949,165.73150099999998 265.85909949,165.274079 274.54729949,164.78168599999998 283.40509949,164.261724 292.42099949,163.723051 301.57509949,163.176055 310.83749949,162.63210099999998 320.17199948999996,162.099135 329.54239949,161.582776 338.91579949000004,161.088245 348.26389949,160.62024599999998 357.56319949,160.182883 366.79599949000004,159.77964699999998 375.95009949,159.41344999999998 385.01809949,159.08668 393.99739949,158.80134999999999 402.88909949000004,158.55910999999998 411.69789949000005,158.35987 420.42899949,158.19441 429.08579949,158.05073 437.67029949,157.9175 446.18269949,157.78395999999998 454.62189949,157.63991 462.98589949,157.47569 471.27129949000005,157.28224999999998 479.47419949,157.05112 487.58979948999996,156.7745 495.61309949,156.44525 503.53859949,156.05701 511.36089949,155.60746999999998 519.0761994899999,155.11038 526.68409949,154.58306 534.1865994899999,154.04135 541.58769949,153.49972 548.89349949,152.97136 556.11129949,152.46836 563.2492994899999,152.00190999999998 570.31699949,151.58247 577.32459949,151.21998 584.28279949,150.92407 591.20349949,150.7043 598.0991994899999,150.57032999999998 604.9833994899999,150.53222 611.8707994899999,150.59530999999998 618.77569949,150.75157 625.71119949,150.99122 632.6893994899999,151.30478 639.7216994899999,151.68277999999998 646.8184994899999,152.1156 653.98909949,152.59322 661.24199949,153.10502 668.5843994899999,153.63959 676.0221994899999,154.18454 683.55939949,154.72632 691.19779949,155.25011999999998 698.9366994899999,155.73979 706.7719994899999,156.178 714.6965994899999,156.55605 722.7017994899999,156.87966 730.7791994899999,157.15645999999998 738.9209994899999,157.39482999999998 747.1196994899999,157.60375 755.3687994899999,157.79274999999998 763.66249949,157.97181 771.99629949,158.15132 780.36699949,158.34198999999998 788.77249949,158.55487 797.21229949,158.80129 805.68739949,159.09291 814.2001994899999,159.43666 822.75309949,159.828083 831.3465994899999,160.26092599999998 839.97909949,160.728626 848.6471994899999,161.224276 857.3446994899999,161.740605 866.0634994899999,162.269994 874.79289949,162.80452599999998 883.5199994899999,163.33606899999998 892.2297994899999,163.856396 900.90529949,164.35734 909.5282994899999,164.831513 918.0770994899999,165.27875699999998 926.52339949,165.7035 934.8335994899999,166.10984399999998 942.97119949,166.501453 950.9008994899999,166.881521 958.59069949,167.252621 966.0160994899999,167.61496 973.16319949,167.967465 980.0274994899999,168.30947999999998 986.6113994899999,168.64071629999998 992.92279949,168.96116759999998 998.9724994899999,169.2710256 1004.01669949,169.5314" stroke="black" stroke-width="2.0" /></svg>