<?xml version="1.0" encoding="utf-8" ?>
<svg baseProfile="full" height="159.56858" version="1.1" width="1011.768941" xmlns="http://www.w3.org/2000/svg" xmlns:ev="http://www.w3.org/2001/xml-events" xmlns:xlink="http://www.w3.org/1999/xlink"><defs /><polygon fill="none" points="1003.768941,115.8787 1000.7615410000001,114.8912012 996.852541,113.509147 992.4891410000001,111.853622 987.742641,109.952265 982.671241,107.83768599999999 977.337441,105.54512 971.815141,103.12472 966.170541,100.62492999999999 960.461841,98.08704999999999 954.733641,95.54742999999999 949.0115410000001,93.03285 943.3073410000001,90.55699999999999 937.623741,88.12704 931.9544410000001,85.74610999999999 926.285241,83.41338999999999 920.600141,81.12195 914.886641,78.86401 909.135641,76.6335 903.341441,74.42587999999999 897.502241,72.2378 891.618841,70.06567999999999 885.6933410000001,67.90605 879.729541,65.75578999999999 873.732741,63.61212 867.7094410000001,61.47303999999999 861.6667410000001,59.339949999999995 855.6125410000001,57.216049999999996 849.5558410000001,55.10486999999999 843.506741,53.010239999999996 837.4762410000001,50.93620999999999 831.475041,48.88879 825.510541,46.87737999999999 819.586841,44.91045 813.704741,42.995000000000005 807.862741,41.13672 802.056741,39.340199999999996 796.2810410000001,37.60839999999999 790.5297410000001,35.94199999999999 784.795741,34.34119 779.070841,32.806020000000004 773.345441,31.336520000000007 767.608641,29.932799999999986 761.8481409999999,28.59464 756.0525410000001,27.31770999999999 750.212941,26.096109999999996 744.3236410000001,24.92479 738.382241,23.799409999999995 732.389941,22.71620999999999 726.3517410000001,21.671900000000008 720.2769410000001,20.664289999999994 714.1748410000001,19.693659999999994 708.053441,18.76034999999999 701.918341,17.864229999999992 695.773541,17.004729999999995 689.620541,16.180899999999994 683.4589410000001,15.391499999999994 677.286241,14.634999999999991 671.0999410000001,13.910199999999989 664.898441,13.215799999999987 658.6818410000001,12.550699999999992 652.451141,11.91409999999999 646.2089410000001,11.3052 639.959141,10.723199999999991 633.7067410000001,10.1678 627.4563410000001,9.639199999999988 621.2103410000001,9.138099999999994 614.9692410000001,8.6648 608.731341,8.219199999999987 602.4930410000001,7.80149999999999 596.248541,7.411599999999993 589.989941,7.0493999999999915 583.708841,6.712900000000005 577.3994410000001,6.399500000000003 571.059641,6.1066 564.690641,5.831799999999987 558.2981410000001,5.572800000000001 551.891641,5.327200000000005 545.485041,5.092699999999994 539.0952410000001,4.869499999999988 532.7366410000001,4.662299999999988 526.4178410000001,4.4757999999999925 520.1422410000001,4.314499999999995 513.9083410000001,4.1825000000000045 507.71014099999996,4.083600000000004 501.537541,4.021599999999992 495.37644099999994,4.0 489.21104099999997,4.018199999999993 483.027341,4.072099999999992 476.814441,4.158199999999994 470.56454099999996,4.2727 464.272841,4.4117999999999995 457.93794099999997,4.571799999999996 451.562241,4.748299999999986 445.152341,4.9373999999999825 438.716841,5.13839999999999 432.265341,5.350999999999985 425.80734099999995,5.575099999999992 419.352841,5.8104999999999905 412.91164100000003,6.056899999999999 406.493341,6.313999999999993 400.107241,6.581399999999988 393.761741,6.861000000000004 387.461441,7.1569999999999965 381.206941,7.473399999999998 374.994641,7.814499999999995 368.818041,8.184299999999993 362.666841,8.587399999999988 356.528141,9.028800000000004 350.38544099999996,9.512199999999993 344.222641,10.036000000000001 338.027441,10.5972 331.792041,11.192300000000003 325.51364099999995,11.817000000000007 319.19454099999996,12.466899999999995 312.843041,13.136099999999985 306.473641,13.81859999999999 300.104541,14.512599999999992 293.750841,15.219499999999996 287.423241,15.940879999999993 281.127541,16.678939999999997 274.86524099999997,17.43616999999999 268.633541,18.21549999999999 262.42604099999994,19.020149999999987 256.23434100000003,19.851950000000002 250.05114100000003,20.711690000000004 243.871541,21.600009999999997 237.69224100000002,22.517380000000003 231.511941,23.464010000000002 225.331341,24.439840000000004 219.152741,25.444609999999997 212.979441,26.47829999999999 206.81444100000002,27.54106 200.65994100000003,28.633049999999997 194.517941,29.75448999999999 188.38974100000001,30.905659999999997 182.27614100000002,32.086939999999984 176.17774100000003,33.299139999999994 170.095441,34.54334999999999 164.03024100000002,35.82061999999999 157.98324100000002,37.131910000000005 151.956041,38.478139999999996 145.94994100000002,39.860119999999995 139.966641,41.278800000000004 134.00714100000002,42.735299999999995 128.072141,44.230909999999994 122.161141,45.76702999999999 116.27344099999999,47.34528999999999 110.407941,48.96767 104.566341,50.63638999999999 98.755361,52.352369999999986 92.985871,54.114869999999996 87.27299099999999,55.92135 81.634451,57.76832999999999 76.08223100000001,59.65560999999999 70.61472099999999,61.58754 65.218121,63.57286 59.868231,65.62504999999999 54.545300999999995,67.75791 49.283511,69.96427 44.181070999999996,72.20561999999998 39.366641,74.42079 34.942261,76.56261 30.924401,78.62859999999999 27.269531,80.63729 23.919651,82.61270999999999 20.829911000000003,84.56356 18.030331,86.43221 15.584711,88.13586 13.502915,89.63288 11.741474,90.93065999999999 10.257342000000001,92.07606999999999 9.016962,93.12114 7.981909,94.09772 7.116977,95.02556 6.393148,95.91703 5.787061,96.7803 5.280021,97.62101 4.860506,98.43956 4.5261152,99.2299 4.274218,99.99019 4.1026074999999995,100.72153999999999 4.0106596,101.42629 4.0,102.1073 4.0752091,102.76769999999999 4.2427303,103.4113 4.5016836,104.04406 4.8510409999999995,104.67152999999999 5.293068,105.29822999999999 5.832922999999999,105.927714 6.478118,106.56215 7.236781,107.20083299999999 8.114270000000001,107.83736599999999 9.127058,108.46429699999999 10.303965999999999,109.074761 11.676734999999999,109.65994599999999 13.273499,110.210454 15.105971,110.72097 17.154761,111.199304 19.368890999999998,111.67667999999999 21.692781,112.213374 24.113391,112.866243 26.663611,113.642765 29.390591,114.543146 32.357761,115.5631277 35.650101,116.685817 39.375171,117.86383 43.629731,119.03830099999999 48.456360999999994,120.194634 53.82715099999999,121.330057 59.621520999999994,122.45953999999999 65.662061,123.61348199999999 71.793471,124.773411 77.90520099999999,125.90536 83.946961,126.98795999999999 89.928521,128.01229999999998 95.897651,128.9836 101.89794099999999,129.91413999999997 107.957941,130.81329 114.091141,131.68781 120.293641,132.54214 126.544541,133.37702 132.820241,134.18965 139.102741,134.97786 145.38054100000002,135.7406 151.64914100000001,136.47778 157.911041,137.19013999999999 164.172841,137.87921 170.44074100000003,138.54657 176.719041,139.19357 183.010241,139.82128 189.314941,140.43061 195.631841,141.02226 201.958041,141.59655999999998 208.29064100000002,142.15346 214.627341,142.69299 220.966441,143.21524 227.30684100000002,143.72037 233.648141,144.20861 239.990541,144.68023 246.334541,145.13545 252.680741,145.57449 259.02934100000004,145.99754 265.380741,146.40474999999998 271.73484099999996,146.7963 278.091541,147.17233 284.45074099999994,147.53298999999998 290.811941,147.87834999999998 297.174941,148.20845 303.539341,148.52334 309.904941,148.82307 316.271441,149.10768 322.63864099999995,149.37724 329.006441,149.6318 335.37454099999997,149.87135999999998 341.742841,150.09581 348.111141,150.30503 354.47924099999994,150.49889 360.846741,150.67729 367.21354099999996,150.8401 373.57924099999997,150.98721999999998 379.943341,151.11849999999998 386.305741,151.23371 392.665941,151.33249 399.02374100000003,151.41451999999998 405.378941,151.47947 411.73144099999996,151.52701 418.081341,151.55682 424.428441,151.56858 430.772941,151.56197 437.114941,151.53676 443.454441,151.49273 449.791541,151.42967 456.126241,151.34734 462.45854099999997,151.24554 468.78854099999995,151.12403 475.116141,150.9826 481.441241,150.82072 487.76314099999996,150.63693999999998 494.080041,150.42971 500.389041,150.19754999999998 506.686041,149.93909 512.966141,149.65308 519.2235410000001,149.33845 525.4512410000001,148.99428 531.642141,148.61893 537.790741,148.20915 543.8946410000001,147.76148 549.954841,147.27244 555.9749410000001,146.73839999999998 561.9611410000001,146.15546 567.9219410000001,145.51933 573.8684410000001,144.82521 579.813741,144.07044 585.770741,143.25703 591.7498410000001,142.38745 597.758941,141.46434 603.803541,140.49065 609.886341,139.46988 616.0066410000001,138.40618 622.1607410000001,137.30455999999998 628.3417410000001,136.17111 634.5425410000001,135.01278 640.7568410000001,133.83666 646.979041,132.64987 653.204841,131.4594 659.430741,130.27211 665.654541,129.09462 671.8750410000001,127.93332 678.0916410000001,126.79308999999999 684.303941,125.675564 690.511541,124.58175299999999 696.7144410000001,123.51261299999999 702.9132410000001,122.46902999999999 709.108541,121.45183 715.3014410000001,120.461792 721.4934410000001,119.49965399999999 727.6863410000001,118.56604 733.881641,117.660989 740.080741,116.7843621 746.284041,115.93611304 752.4919410000001,115.1162748 758.704041,114.32494899999999 764.919441,113.56229499999999 771.136841,112.82851699999999 777.3544410000001,112.12387899999999 783.570141,111.449123 789.782141,110.805319 795.9893410000001,110.19345799999999 802.191141,109.61445599999999 808.3874410000001,109.069164 814.5785410000001,108.55838299999999 820.765441,108.082881 826.9495410000001,107.643391 833.132141,107.240459 839.314241,106.87457699999999 845.495541,106.546291 851.6754410000001,106.256188 857.852241,106.004865 864.023541,105.79290999999999 870.186141,105.62086 876.336641,105.48979 882.472041,105.40144 888.590541,105.35750999999999 894.6917410000001,105.35964 900.776441,105.40943999999999 906.846441,105.50855999999999 912.904441,105.65874 918.952541,105.86205 924.9887410000001,106.12058099999999 931.007441,106.43615 936.999241,106.81008899999999 942.951141,107.24306 948.848641,107.734971 954.682941,108.285641 960.457341,108.89573999999999 966.185641,109.567329 971.891041,110.304363 977.573241,111.10948099999999 983.107041,111.966309 988.268941,112.83435899999999 992.881341,113.669123 996.9142410000001,114.445455 999.998941,115.06869999999999" stroke="black" stroke-width="2.0" /></svg>