<?xml version="1.0" encoding="utf-8" ?>
<svg baseProfile="full" height="269.71815999999995" version="1.1" width="1012.01377815" xmlns="http://www.w3.org/2000/svg" xmlns:ev="http://www.w3.org/2001/xml-events" xmlns:xlink="http://www.w3.org/1999/xlink"><defs /><polygon fill="none" points="1004.01377815,172.42389999999997 1000.15557815,170.96007399999996 995.7434781500001,169.07744399999999 991.31967815,166.98041499999997 986.83767815,164.67091599999998 982.26457815,162.15594999999996 977.57837815,159.43663999999998 972.7581781499999,156.51099999999997 967.78297815,153.38106999999997 962.6339781500001,150.05425999999997 957.30147815,146.53894999999997 951.79047815,142.85416999999998 946.1263781499999,139.03843999999998 940.36047815,135.15240999999997 934.55797815,131.26437999999996 928.76867815,127.42975999999997 923.01737815,123.68517999999997 917.3043781499999,120.04881999999998 911.6163781500001,116.52315999999998 905.93787815,113.10475999999997 900.25227815,109.78975999999997 894.54137815,106.57415999999998 888.7852781500001,103.45317999999997 882.96707815,100.41634999999997 877.0724781499999,97.45211999999998 871.08867815,94.55071999999997 865.0040781499999,91.70380999999998 858.80867815,88.90420999999998 852.49397815,86.14407999999999 846.0547781500001,83.41568999999997 839.4895781499999,80.71262999999998 832.8024781500001,78.02990999999997 826.00377815,75.36425999999997 819.10857815,72.71687999999997 812.13117815,70.09239999999997 805.0850781500001,67.49459999999998 797.98167815,64.92649999999996 790.83057815,62.38949999999997 783.6385781500001,59.88459999999998 776.4111781500001,57.41369999999996 769.1539781500001,54.978699999999975 761.87307815,52.58159999999998 754.57487815,50.22429999999997 747.2657781500001,47.90869999999997 739.9522781500001,45.637499999999974 732.63967815,43.41399999999996 725.3327781500001,41.240999999999985 718.03547815,39.121099999999984 710.75117815,37.056299999999965 703.48237815,35.048599999999965 696.2304781500001,33.09989999999996 688.99567815,31.212099999999964 681.77717815,29.386499999999955 674.5724781499999,27.624199999999973 667.3781781499999,25.925999999999988 660.18987815,24.292299999999983 653.0033781500001,22.72229999999999 645.81537815,21.215299999999985 638.6234781500001,19.77049999999997 631.4261781499999,18.38779999999997 624.22257815,17.067099999999982 617.01297815,15.808499999999981 609.79797815,14.612199999999973 602.57817815,13.478399999999993 595.35437815,12.407399999999967 588.12747815,11.399399999999986 580.89827815,10.45459999999997 573.6675781499999,9.573099999999982 566.43627815,8.75539999999998 559.20477815,8.00189999999995 551.97307815,7.312899999999956 544.74077815,6.688799999999986 537.50697815,6.129999999999967 530.27027815,5.6366999999999905 523.02917815,5.209199999999981 515.78177815,4.846799999999973 508.52607815000005,4.5490999999999815 501.26007814999997,4.315799999999967 493.98147815,4.146699999999981 486.68787815,4.041499999999985 479.37677815,4.0 472.04597815,4.02109999999999 464.69407815,4.103899999999982 457.32097815000003,4.247099999999989 449.92737815000004,4.449599999999975 442.51527815,4.710199999999986 435.08777815,5.027599999999978 427.64847814999996,5.401299999999992 420.20057815,5.830999999999989 412.74697815,6.316299999999984 405.28967815000004,6.856899999999996 397.83027815,7.45229999999998 390.36997815,8.102299999999957 382.90937815,8.806499999999971 375.44937815,9.564799999999963 367.99117815,10.376899999999978 360.53617815,11.242499999999978 353.08607815,12.161299999999983 345.64307815,13.132699999999971 338.20917814999996,14.156699999999972 330.78667815,15.233199999999982 323.37747815,16.362199999999973 315.98327815000005,17.543699999999973 308.60537815000004,18.777699999999953 301.24507815,20.0642 293.90347814999996,21.403299999999973 286.58177815,22.795099999999962 279.28117815,24.2397 272.00307814999996,25.737199999999973 264.74877815,27.287499999999966 257.51987815,28.890599999999978 250.31787815,30.54649999999998 243.14507815,32.255199999999974 236.00357815,34.01649999999995 228.89627815000003,35.83009999999999 221.82587815000002,37.69549999999998 214.79577815000002,39.612299999999976 207.80957815,41.580299999999966 200.87087815,43.599399999999974 193.98337815,45.669199999999975 187.15057815,47.78929999999998 180.37607815,49.95909999999998 173.66367815,52.17809999999997 167.01777815000003,54.44549999999998 160.44357815,56.75999999999998 153.94657815000002,59.12009999999998 147.53267815,61.52369999999998 141.20807815,63.96849999999998 134.98047815,66.45209999999997 128.85887815,68.97099999999998 122.85307814999999,71.52089999999997 116.97297814999999,74.09678999999998 111.22837814999998,76.69302999999998 105.62977814999999,79.30431999999998 100.18716814999999,81.92501999999998 94.90970814999999,84.54902999999999 89.80484814999998,87.17005999999998 84.87815814999999,89.78192999999997 80.13467815,92.37900999999998 75.58095814999999,94.95486999999999 71.22352814999999,97.50194999999998 67.06733815,100.01239999999997 63.114748150000004,102.47886999999997 59.36551815000001,104.89534999999997 55.81822815,107.25911999999997 52.46855815,109.56966999999997 49.30919815,111.82746999999998 46.33102815,114.03373999999997 43.52392815,116.19017999999997 40.877418150000004,118.29879999999997 38.38179815,120.36156999999997 36.02946815,122.37939999999998 33.81398815,124.35215999999997 31.72934815,126.27927999999997 29.769558149999998,128.16008999999997 27.92849815,129.99408999999997 26.19988815,131.78110999999998 24.57744815,133.52128 23.05561815,135.21505999999997 21.62861815,136.86383999999998 20.29024815,138.46981999999997 19.03434815,140.0356 17.85501815,141.56394999999998 16.746758149999998,143.05762999999996 15.70452815,144.51933999999997 14.723748149999999,145.95163999999997 13.80025315,147.35692999999998 12.93008615,148.73749999999998 12.10967415,150.09489999999997 11.336253150000001,151.42967 10.60760215,152.74156999999997 9.92181515,154.02989999999997 9.27715115,155.29366999999996 8.67191915,156.53180999999998 8.10442715,157.74329999999998 7.57294315,158.92723999999998 7.0756891500000005,160.08293999999998 6.61089315,161.20993999999996 6.17892415,162.30784999999997 5.78266915,163.37690999999998 5.42407815,164.41848 5.104290150000001,165.43461299999998 4.82397545,166.42775399999996 4.58358355,167.40054699999996 4.38352175,168.35572399999998 4.22428705,169.29605599999996 4.10657189,170.22433499999997 4.03135612,171.14339799999996 4.0,172.05615639999996 4.0143495091,172.96566069999997 4.07653002,173.87498999999997 4.18675895,174.78586599999997 4.34471465,175.69906199999997 4.55068725,176.61501499999997 4.80552495,177.53381299999998 5.11059315,178.45514399999996 5.46774015,179.37821899999997 5.87926815,180.30165999999997 6.34788115,181.22333999999998 6.8765991500000005,182.14018 7.468623149999999,183.04788999999997 8.12696215,183.94143999999997 8.853537150000001,184.81962999999996 9.649714150000001,185.68320999999997 10.51658015,186.53322999999997 11.45486015,187.37111 12.464801150000001,188.19876999999997 13.54603215,189.01864999999998 14.69739815,189.83393999999998 15.91673815,190.64863999999997 17.20064815,191.46781999999996 18.54417815,192.29778999999996 19.944008150000002,193.14389999999997 21.40334815,194.00713999999996 22.92663815,194.88786 24.518718149999998,195.78638999999998 26.18493815,196.70300999999998 27.93122815,197.63795999999996 29.76420815,198.59151999999997 31.69143815,199.56395999999998 33.72162815,200.55567999999997 35.865088150000005,201.56728999999999 38.13300815,202.59996999999998 40.53642815,203.65549 43.08718815,204.73583999999997 45.797908150000005,205.84329999999997 48.681768149999996,206.98035999999996 51.75206815,208.14980999999997 55.021518150000006,209.35474999999997 58.50124815,210.59851999999998 62.20140815,211.88287999999997 66.13211815,213.20628 70.30069814999999,214.56579 74.71111814999999,215.95737999999997 79.36434815,217.37631999999996 84.26011815,218.81790999999998 89.39987815,220.27839999999998 94.78520814999999,221.75426 100.41368815,223.24129999999997 106.27807815,224.73485 112.36637814999999,226.23005999999998 118.66287815,227.72226999999998 125.14937814999999,229.20628999999997 131.80667814999998,230.67587999999998 138.61437815,232.12535999999997 145.55267815,233.55003999999997 152.60477815000002,234.94657999999998 159.75767815,236.31282999999996 167.00117815000002,237.64682999999997 174.32537815,238.94687999999996 181.72107815,240.21175999999997 189.17987815,241.44068 196.69467815,242.63326999999998 204.25957815,243.78922999999998 211.86917815,244.90828999999997 219.51837815,245.99041 227.20287815,247.03573999999998 234.91837815,248.04459999999997 242.66177815,249.01734 250.42977815,249.95396999999997 258.21967815,250.85451999999998 266.02867815,251.71907 273.85427814999997,252.54780999999997 281.69377815,253.34095999999997 289.54517814999997,254.09860999999998 297.40647815,254.82063 305.27607815,255.50690999999998 313.15277815,256.15742 321.03567815,256.77214 328.92427815,257.35113 336.81827815,257.89446 344.71737815,258.40224 352.62057815000003,258.87456 360.52667815,259.31149999999997 368.43417815,259.71315 376.34097815,260.07959999999997 384.24477815,260.41072999999994 392.14317815000004,260.70592999999997 400.03387815,260.96461 407.91457815,261.18620999999996 415.78317815,261.37019999999995 423.63767815,261.51612 431.47597815,261.62343999999996 439.29647815000004,261.69115 447.09757815000006,261.71815999999995 454.87817815,261.70339 462.63737815,261.64583999999996 470.37467815,261.54449999999997 478.08977815000003,261.39842 485.78287815,261.20668 493.45447815,260.96844 501.10567814999996,260.6828 508.73827815000004,260.34882 516.3545781500001,259.96551 523.95747815,259.53175999999996 531.55047815,259.04666 539.13677815,258.51022 546.71947815,257.92256 554.3010781500001,257.28376 561.8834781500001,256.59387 569.46827815,255.85292999999996 577.05667815,255.06097999999997 584.6493781500001,254.21835 592.2472781499999,253.32556999999997 599.85147815,252.38311 607.46297815,251.39144 615.08287815,250.35097999999996 622.71247815,249.26210999999998 630.3530781500001,248.12532999999996 638.00587815,246.94153999999997 645.67147815,245.71175999999997 653.34987815,244.43712999999997 661.04057815,243.11889999999997 668.7422781500001,241.75847 676.45307815,240.35726999999997 684.17047815,238.91621999999995 691.89067815,237.43627999999995 699.60927815,235.91863999999998 707.32087815,234.36476999999996 715.01927815,232.77642999999998 722.69737815,231.15533 730.3481781500001,229.50126999999998 737.9669781499999,227.813 745.5512781499999,226.08884999999998 753.10077815,224.32667999999998 760.61767815,222.52388999999997 768.1058781500001,220.67771999999997 775.57207815,218.78687999999997 783.02457815,216.85008999999997 790.47347815,214.86534999999998 797.9310781500001,212.82980999999998 805.41187815,210.73971999999998 812.93247815,208.59209999999996 820.5056781500001,206.38957 828.13327815,204.13892999999996 835.8041781500001,201.85128999999998 843.49297815,199.54246999999998 851.16087815,197.23296999999997 858.76287815,194.94673999999998 866.2599781499999,192.70626 873.62227815,190.53013999999996 880.82857815,188.43282999999997 887.86617815,186.42484999999996 894.72887815,184.51600999999997 901.41647815,182.71683999999996 907.9320781499999,181.03497499999997 914.28147815,179.47533199999998 920.4720781499999,178.04077299999997 926.51207815,176.73265699999996 932.40947815,175.55226399999998 938.17267815,174.50064999999998 943.81117815,173.578018 949.33527815,172.78409649999998 954.75577815,172.11844809999997 960.0829781499999,171.58064439999998 965.32537815,171.16975599999998 970.48817815,170.88477999999998 975.57487815,170.72506399999997 980.58697815,170.69011999999998 985.52507815,170.77973799999998 990.38927815,170.99840999999998 995.1856781500001,171.35490999999996 999.92877815,171.85951969999996 1004.01377815,172.42389999999997" stroke="black" stroke-width="2.0" /></svg>