<?xml version="1.0" encoding="utf-8" ?>
<svg baseProfile="full" height="132.22492" version="1.1" width="1012.04494144" xmlns="http://www.w3.org/2000/svg" xmlns:ev="http://www.w3.org/2001/xml-events" xmlns:xlink="http://www.w3.org/1999/xlink"><defs /><polygon fill="none" points="1004.04494144,83.50603000000001 1000.90054144,83.05133130000002 997.0931414400001,82.499964 993.07174144,81.916667 988.81414144,81.29806800000001 984.29674144,80.640539 979.49524144,79.940335 974.38684144,79.19387100000002 968.95344144,78.39821200000002 963.18684144,77.55184400000002 957.09614144,76.655765 950.71604144,75.714751 944.14224144,74.74298800000001 937.64124144,73.78043400000001 931.20384144,72.8264 924.7728414400001,71.87309 918.30714144,70.91498000000001 911.77894144,69.94864000000001 905.17954144,68.97347 898.60374144,68.00404 892.08414144,67.04503000000001 885.6061414400001,66.09384 879.1568414400001,65.14819000000001 872.7254414399999,64.20609 866.30234144,63.26576000000001 859.87934144,62.32566000000001 853.44964144,61.38439000000001 847.00744144,60.44075000000001 840.54814144,59.49367000000001 834.0683414399999,58.54226000000001 827.5655414400001,57.58579000000001 821.03884144,56.62371000000001 814.48844144,55.65562000000001 807.91584144,54.68135000000001 801.32424144,53.70094000000001 794.71764144,52.71503000000001 788.10044144,51.72488000000001 781.47714144,50.731870000000015 774.85574144,49.73783000000001 768.23504144,48.74329000000001 761.61244144,47.74853000000001 754.99014144,46.754560000000005 748.37344144,45.76285000000001 741.76354144,44.774240000000006 735.16094144,43.78950000000001 728.56614144,42.809320000000014 721.97864144,41.83433000000001 715.3979414400001,40.86509000000001 708.82294144,39.902080000000005 702.2521414400001,38.94573000000001 695.6836414400001,37.99618000000001 689.11584144,37.05320000000001 682.54714144,36.11654000000001 675.97664144,35.18599000000001 669.40324144,34.261410000000005 662.82634144,33.34266000000001 656.2457414400001,32.429690000000015 649.66134144,31.522450000000006 643.07324144,30.620950000000008 636.4822414399999,29.72523000000001 629.88884144,28.835360000000016 623.29424144,27.95145000000001 616.69994144,27.073660000000004 610.10734144,26.20215000000001 603.51844144,25.33713000000001 596.9355414400001,24.47910000000001 590.36044144,23.629340000000006 583.7947414399999,22.78923000000001 577.23984144,21.960080000000005 570.69644144,21.143150000000006 564.16524144,20.339620000000004 557.64634144,19.550630000000012 551.13954144,18.777230000000003 544.64444144,18.020440000000008 538.1602414399999,17.28124000000001 531.68574144,16.560570000000013 525.2195414400001,15.859310000000022 518.7601414400001,15.17834000000002 512.3052414399999,14.51852000000001 505.85274144000005,13.880690000000016 499.40004144,13.265570000000011 492.94454143999997,12.672930000000008 486.48404144,12.102000000000018 480.01674144,11.552070000000015 473.54104144,11.022490000000005 467.05604144,10.512660000000011 460.56084144,10.022010000000009 454.05524144,9.549999999999997 447.53914144,9.096120000000013 441.01314143999997,8.659880000000015 434.47804144,8.240820000000014 427.93514144,7.838480000000004 421.38594144,7.45241 414.83284144,7.082160000000002 408.27814144,6.7272800000000075 401.72484144,6.387360000000015 395.17614144000004,6.062860000000001 388.63514144,5.755610000000004 382.10444144,5.4674400000000105 375.58634144,5.200140000000005 369.08264144000003,4.95544000000001 362.59504144,4.734999999999999 356.12454144,4.540430000000015 349.67214144,4.373270000000019 343.23824143999997,4.235030000000009 336.82294144,4.127170000000021 330.42614144,4.051110000000008 324.04744144,4.008260000000021 317.68594144,4.0 311.34084144,4.027690000000021 305.01074144,4.092720000000014 298.69424144,4.19635000000001 292.38984144,4.339070000000021 286.09644144000004,4.521080000000012 279.81274144,4.742610000000013 273.53794144,5.003930000000011 267.27114144,5.305330000000012 261.01134143999997,5.647130000000018 254.75794144000002,6.029660000000007 248.51024144,6.45329000000001 242.26784143999998,6.9183900000000165 236.03014144,7.425360000000012 229.79684144,7.974610000000013 223.56764144,8.566540000000018 217.34224144,9.2016 211.12074144000002,9.880200000000002 204.90294144,10.602800000000016 198.68904143999998,11.369890000000012 192.47964144000002,12.182310000000015 186.27664144,13.040890000000019 180.08304144000002,13.946250000000006 173.90294144,14.898720000000012 167.74174144,15.898350000000008 161.60584144,16.944800000000015 155.50244143999998,18.037360000000007 149.43964144,19.175110000000004 143.42494144,20.358280000000008 137.46264144,21.588220000000014 131.55314144,22.86684000000001 125.69364144000001,24.19671000000001 119.87824144,25.581210000000006 114.09834144,27.02461000000001 108.34254144,28.532320000000006 102.59680144000001,30.11106000000001 96.84604144,31.76572000000001 91.08521144000001,33.493280000000006 85.32614144,35.284890000000004 79.59823143999999,37.12536000000001 73.94640144,38.99744000000001 68.42409144,40.90105000000001 63.08505144,42.83778000000001 57.97576144,44.80380000000001 53.12969144000001,46.79155000000001 48.56880144,48.78464000000001 44.29774144,50.759420000000006 40.29614144,52.70568000000001 36.53280144,54.62316000000001 32.97419144,56.51735000000001 29.587691439999997,58.39735000000001 26.340471439999998,60.28030000000001 23.25295144,62.17693000000001 20.47551144,64.00121000000001 18.10634144,65.65926 16.11184144,67.13185000000001 14.42332144,68.43927000000001 12.98596944,69.60961 11.74725944,70.67299000000001 10.667128439999999,71.65290000000002 9.71670544,72.56655 8.87507844,73.42658000000002 8.12684144,74.242473 7.46043844,75.021483 6.86705944,75.76932300000001 6.33991144,76.49057 5.87372244,77.18897600000001 5.464399439999999,77.86767200000001 5.1087934399999995,78.52932100000001 4.80452884,79.17623100000002 4.54989184,79.810438 4.34375124,80.43377400000001 4.18551184,81.04792100000002 4.07509276,81.65445700000001 4.01292937,82.25489700000001 4.0,82.85073290000001 4.037880137,83.44347365000002 4.1283145,84.034688 4.2709512400000005,84.625972 4.46513294,85.218867 4.71081164,85.81488300000001 5.00853464,86.41553700000001 5.35945844,87.02239900000001 5.76539544,87.63713000000001 6.22888644,88.261531 6.75332944,88.897597 7.34314344,89.547582 8.00402444,90.214088 8.74328844,90.90016600000001 9.570373440000001,91.60946000000001 10.49754444,92.346372 11.540894439999999,93.11626000000001 12.721669440000001,93.92558000000001 14.067771440000001,94.78174000000001 15.61406144,95.69164 17.39614144,96.65613 19.45527144,97.66882000000001 21.84354144,98.71934000000002 24.57985144,99.78481000000001 27.623801439999998,100.84229 30.927951439999998,101.90301000000001 34.49201144,102.98287 38.31372144,104.06785 42.38379144,105.13931000000001 46.68880144,106.17598000000001 51.216101439999996,107.15487000000002 55.96171144,108.05239 60.944531440000006,108.86265 66.19628144,109.60670000000002 71.73445144,110.31383000000001 77.54333144,111.02191 83.55186144,111.77034 89.64806144,112.54789000000001 95.74130144,113.31734 101.78795144,114.04732000000001 107.79244144,114.71511000000001 113.78874144000001,115.31883000000002 119.81004143999999,115.86771000000002 125.88324143999999,116.36962 132.02924144,116.83133000000001 138.26264144,117.25902 144.59084144,117.65855 151.01254144,118.03568000000001 157.51484144,118.39606 164.07634144,118.74189000000001 170.67474144,119.07247000000001 177.29114144,119.38735000000001 183.91034144000002,119.68646000000001 190.52184144,119.97006000000002 197.11914144,120.23869000000002 203.70074144,120.49308000000002 210.26894144,120.73413000000001 216.82814144,120.96262000000002 223.38264144,121.17931000000002 229.93604144000003,121.38486 236.49144144000002,121.57993000000002 243.05164144,121.76512000000001 249.61884144,121.94103000000001 256.19494144,122.10822000000002 262.78124144,122.26723000000001 269.37874144,122.41860000000001 275.98774144,122.56286 282.60834144,122.70053000000001 289.23994144,122.83213 295.88154144,122.95817000000001 302.53154144,123.07916 309.18794144,123.19556 315.84834144,123.30729000000001 322.51084144000004,123.41403000000001 329.17344144,123.51547000000001 335.83454144,123.61131 342.49304143999996,123.70126 349.14774144,123.78502 355.79794144,123.86233000000001 362.44314144,123.93292000000001 369.08324144,123.99652 375.71824144,124.05288000000002 382.34844144000004,124.10172 388.97444143999996,124.14281 395.59704144,124.17588 402.21744143999996,124.20068 408.83694144,124.21697 415.45704144,124.22492000000001 422.07894144,124.22488000000001 428.70384144,124.21721000000001 435.33254144,124.20224 441.96584144,124.18034 448.60394143999997,124.15184 455.24734144,124.11710000000001 461.89594144,124.07647 468.54954144,124.03030000000001 475.20774144,123.97895000000001 481.87004144,123.92278000000002 488.53534143999997,123.86216000000002 495.20274143999995,123.79746000000002 501.87074143999996,123.72907000000001 508.53804144000003,123.65731000000001 515.20284144,123.58192000000001 521.86374144,123.50228000000001 528.5194414399999,123.41775000000001 535.16894144,123.32770000000002 541.8114414400001,123.23148 548.44644144,123.12849 555.0736414400001,123.0181 561.6927414400001,122.89969 568.3039414399999,122.77263 574.9076414399999,122.6363 581.5041414399999,122.49009000000001 588.0943414400001,122.33337 594.67914144,122.16549 601.25964144,121.98582000000002 607.83714144,121.79373000000001 614.41314144,121.58908000000001 620.98884144,121.37215 627.56564144,121.14320000000001 634.14434144,120.90251 640.7257414400001,120.65035 647.31064144,120.387 653.89924144,120.11273 660.49204144,119.82785000000001 667.08894144,119.53263000000001 673.6899414400001,119.22739000000001 680.29474144,118.91244 686.90284144,118.58810000000001 693.51364144,118.25473000000001 700.12614144,117.91267000000002 706.7395414399999,117.56228000000002 713.35244144,117.20346 719.96354144,116.83552 726.57174144,116.45774000000002 733.17574144,116.06939000000001 739.77434144,115.66976000000001 746.36664144,115.25814000000001 752.95154144,114.83384000000001 759.5280414399999,114.39616000000001 766.09524144,113.94442000000001 772.6523414400001,113.47794000000002 779.19844144,112.99607 785.7329414400001,112.49816000000001 792.25504144,111.98354 798.76424144,111.45160000000001 805.25984144,110.9017 811.74154144,110.33352000000001 818.20914144,109.74741000000002 824.6629414399999,109.14378 831.10384144,108.52296000000001 837.5329414400001,107.88527 843.95204144,107.23093000000001 850.36294144,106.56011000000001 856.76814144,105.87294000000001 863.1705414400001,105.16942 869.57344144,104.44953000000001 875.9803414400001,103.71313 882.3956414400001,102.96001000000001 888.8237414399999,102.18985 895.27004144,101.40222000000001 901.74024144,100.59659 908.2406414400001,99.77208000000002 914.7743414400001,98.92551 921.33294144,98.05321 927.8949414399999,97.15335 934.4256414399999,96.22630000000001 940.8791414399999,95.27483000000001 947.2036414400001,94.30398000000001 953.34664144,93.32051600000001 959.26224144,92.332469 964.91834144,91.34923500000001 970.30014144,90.378617 975.40604144,89.42602000000001 980.2439414400001,88.49484400000001 984.82724144,87.58695700000001 989.17204144,86.70312000000001 993.29574144,85.84334100000001 997.21554144,85.007136 1000.94794144,84.19371840000001 1004.04494144,83.50603000000001" stroke="black" stroke-width="2.0" /></svg>