<?xml version="1.0" encoding="utf-8" ?>
<svg baseProfile="full" height="195.76913000000002" version="1.1" width="1012.1017092" xmlns="http://www.w3.org/2000/svg" xmlns:ev="http://www.w3.org/2001/xml-events" xmlns:xlink="http://www.w3.org/1999/xlink"><defs /><polygon fill="none" points="1004.1017092,164.4498 1000.6681091999999,163.5518566 996.4366092,162.447171 991.9321092,161.26908400000002 987.1916091999999,160.006733 982.2376092,158.63803800000002 977.0565091999999,157.15706500000002 971.6231091999999,155.58366800000002 965.9190091999999,153.94979 959.9452091999999,152.27906000000002 953.7229092,150.56596000000002 947.2809092,148.79944 940.6514092,146.96632 933.8638092,145.06580000000002 926.9453092,143.10649 919.9217091999999,141.09734 912.8148092,139.04683 905.6408092,136.96434000000002 898.4126092,134.86006 891.1398092000001,132.74363 883.8282092,130.62390000000002 876.4805091999999,128.50633000000002 869.0999092,126.38888000000001 861.6900092,124.26823000000002 854.2550091999999,122.14104 846.7994091999999,120.00399000000002 839.3277092,117.85528000000001 831.8437091999999,115.69780000000002 824.3526092,113.53569000000002 816.8602092,111.37345000000002 809.3737091999999,109.21588000000001 801.9014092,107.06784000000002 794.4525092,104.93041000000001 787.0350092,102.80109000000002 779.6541092,100.67659 772.3122092,98.55304000000001 765.0095092,96.42593000000001 757.7435092,94.29050000000002 750.5087092,92.14684000000001 743.2977091999999,89.99997000000002 736.1034092,87.85499000000002 728.9184091999999,85.71694000000001 721.7358092000001,83.59079000000001 714.5484091999999,81.48155000000001 707.3494092,79.39334000000001 700.1335091999999,77.32528 692.8965092,75.27489000000001 685.6345092,73.23984 678.3440092,71.21793000000001 671.0220092,69.20712000000002 663.6658091999999,67.20545000000001 656.2732092,65.21105000000001 648.8430091999999,63.22190000000002 641.3750092,61.23620000000001 633.8702091999999,59.25250000000001 626.3312092,57.26940000000002 618.7621091999999,55.28620000000001 611.1683092,53.30240000000002 603.5568092,51.31780000000002 595.9344092,49.3335 588.3065091999999,47.35000000000001 580.6769092,45.367900000000006 573.0480092,43.38690000000001 565.4206092,41.40660000000001 557.7940092,39.426199999999994 550.1663092,37.4448 542.5380091999999,35.46380000000002 534.9164092,33.48710000000003 527.3165091999999,31.52019999999999 519.7598092,29.57020000000003 512.2738092,27.64590000000001 504.8895092,25.75660000000002 497.6393092,23.91300000000001 490.54710919999997,22.131100000000032 483.6229092,20.423900000000003 476.86540920000004,18.799900000000008 470.26580920000004,17.264200000000017 463.8096092,15.819600000000008 457.4793092,14.467000000000013 451.25480920000007,13.20689999999999 445.1151092,12.038600000000002 439.04120919999997,10.958200000000005 433.0169092,9.961400000000026 427.0280092,9.045500000000004 421.0613092,8.208200000000005 415.1049092,7.4483000000000175 409.1474092,6.765199999999993 403.1779092,6.158999999999992 397.1858092,5.630500000000012 391.1605092,5.180199999999985 385.09230920000005,4.805900000000008 378.9736092,4.505300000000034 372.7986092,4.27630000000002 366.5645092,4.117000000000019 360.27080920000003,4.025600000000026 353.9206092,4.0 347.52030920000004,4.038100000000014 341.0806092,4.137200000000007 334.6143092,4.296500000000009 328.1336092,4.516600000000011 321.6486092,4.797800000000024 315.16770920000005,5.140100000000018 308.69710920000006,5.543200000000013 302.2410092,6.007100000000008 295.8012092,6.531499999999994 289.3780092,7.116300000000024 282.9707092,7.761800000000022 276.5789092,8.468100000000021 270.2032092,9.235299999999995 263.8445092,10.063500000000005 257.50430919999997,10.952600000000018 251.1847092,11.902600000000007 244.88830919999998,12.913000000000011 238.61840919999997,13.983700000000027 232.3788092,15.114900000000006 226.1739092,16.306399999999996 220.0085092,17.557800000000015 213.8877092,18.86840000000001 207.81700919999997,20.237300000000005 201.8020092,21.66319999999999 195.8487092,23.144900000000007 189.96270919999998,24.68270000000001 184.1483092,26.27709999999999 178.4083092,27.928699999999992 172.7442092,29.638300000000015 167.15640919999998,31.406800000000004 161.64430919999998,33.235299999999995 156.2065092,35.12510000000003 150.8417092,37.07660000000001 145.5481092,39.09060000000001 140.3238092,41.16770000000001 135.1669092,43.30890000000001 130.0751092,45.51530000000001 125.0463092,47.78840000000001 120.07800920000001,50.12960000000001 115.16850919999999,52.539100000000005 110.3180092,55.015400000000014 105.52910920000001,57.55590000000001 100.8064992,60.15660000000001 96.15665919999999,62.81230000000001 91.58736920000001,65.51628000000001 87.1075692,68.26113000000001 82.72722920000001,71.04006000000001 78.4555292,73.84649 74.3003392,76.67376000000002 70.26804920000001,79.51529000000001 66.3635492,82.36476000000002 62.5902392,85.21620000000001 58.950859200000004,88.06367000000002 55.4496892,90.89978000000002 52.0919292,93.71558000000002 48.8825192,96.50133000000001 45.8252192,99.24734000000001 42.9219992,101.94466000000001 40.1728092,104.58553 37.576019200000005,107.16417000000001 35.129339200000004,109.67690000000002 32.8292292,112.12086000000002 30.670789199999998,114.49412000000001 28.647989199999998,116.79573000000002 26.7539192,119.02574000000001 24.981139199999998,121.18506000000001 23.3219592,123.27526 21.769189199999996,125.29823000000002 20.3179792,127.25503 18.964049199999998,129.14635 17.702959200000002,130.97299 16.5300692,132.73600000000002 15.440599200000001,134.43677000000002 14.429659200000001,136.07699000000002 13.492352200000001,137.65864000000002 12.623869200000001,139.18389000000002 11.819540199999999,140.65506000000002 11.0748842,142.07461 10.3855442,143.44592 9.7472912,144.77305 9.1561562,146.05981000000003 8.6084702,147.30971 8.100872200000001,148.52596 7.630304199999999,149.71146000000002 7.1939922,150.86883 6.7894262,152.00044 6.4143332,153.10841000000002 6.0666622,154.19468 5.7445542,155.260959 5.4463232,156.308829 5.1704432,157.33970100000002 4.9161372,158.354521 4.6863315,159.352238 4.4847829,160.331582 4.3146623,161.29182200000002 4.1787201,162.232628 4.07942799,163.15395700000002 4.01910048,164.05597 4.0,164.9389696 4.0244316,165.803354 4.094832529,166.649582 4.2138625,167.478151 4.3845004,168.28957300000002 4.6101545,169.084373 4.8947781,169.863067 5.2406402,170.625865 5.6458592,171.37217700000002 6.1084552,172.10094800000002 6.6268092,172.810682 7.1995632,173.499393 7.8255202,174.16453800000002 8.503546199999999,174.80293 9.2324512,175.41061000000002 10.0108472,175.98272 10.8369852,176.51337 11.710158199999999,176.99844000000002 12.632322199999999,177.43858 13.6059412,177.83516 14.6337192,178.18989000000002 15.7185792,178.50487 16.8636792,178.78285 18.0722992,179.0274 19.347769200000002,179.24328 20.693239199999997,179.43686000000002 22.111339199999996,179.61676 23.6035792,179.79461 25.1697492,179.98538000000002 26.8121992,180.19715000000002 28.536599199999998,180.43038 30.3490692,180.68474 32.256059199999996,180.95917 34.2645592,181.25169 36.3824692,181.55912 38.619289200000004,181.87688 40.9874992,182.19871 43.5043292,182.51718 46.1893292,182.82947000000001 49.0640392,183.13557 52.1533992,183.43578000000002 55.4854192,183.73081000000002 59.0898192,184.02202 62.9953492,184.31182 67.2252992,184.60377 71.7943992,184.89805 76.70553919999999,185.19166 81.9459392,185.48112 87.4892792,185.76305000000002 93.3052192,186.03500000000003 99.37187920000001,186.29508 105.66970920000001,186.54000000000002 112.17470920000001,186.76629000000003 118.8616092,186.97078000000002 125.7073092,187.15072 132.6947092,187.30453 139.8097092,187.43287 147.0378092,187.53718 154.36420919999998,187.6194 161.77440919999998,187.68191000000002 169.2550092,187.72705000000002 176.79380919999997,187.75586 184.37970919999998,187.76913000000002 192.0036092,187.76776 199.6584092,187.75277 207.3390092,187.72524 215.0425092,187.68595000000002 222.76630919999997,187.63544000000002 230.5083092,187.5743 238.2662092,187.50310000000002 246.0383092,187.42245000000003 253.8231092,187.33295 261.6190092,187.23502000000002 269.4250092,187.12905 277.24000920000003,187.0154 285.0631092,186.89447 292.8939092,186.76664000000002 300.7319092,186.63228 308.57670920000004,186.49172000000002 316.4281092,186.34524000000002 324.2858092,186.19316 332.1495092,186.03575 340.0188092,185.87333 347.89320920000006,185.70619000000002 355.7724092,185.53461000000001 363.6560092,185.35879 371.5437092,185.17894 379.4353092,184.99526 387.3306092,184.80794 395.2297092,184.6172 403.13260920000005,184.42323000000002 411.03930920000005,184.22618 418.9496092,184.02624 426.8633092,183.82356000000001 434.7797092,183.61831 442.69830920000004,183.41067 450.6180092,183.20082000000002 458.5378092,182.9889 466.45690920000004,182.77487000000002 474.37450920000003,182.55862000000002 482.2906092,182.34004000000002 490.20530920000004,182.11902 498.11930920000003,181.89542 506.0335092000001,181.66910000000001 513.9495092,181.44003 521.8683091999999,181.2084 529.7909091999999,180.97446000000002 537.7180092,180.73845 545.6498091999999,180.50063 553.5862092,180.26127000000002 561.5268092,180.02064000000001 569.4708092,179.77894 577.4176091999999,179.53629 585.3663091999999,179.29278000000002 593.3164092,179.04850000000002 601.2672092,178.80356 609.2181092,178.55805 617.1687092,178.31206 625.1186091999999,178.06556 633.0673092,177.81848000000002 641.0147091999999,177.57075 648.9608092,177.32227 656.9057092,177.07295000000002 664.8495091999999,176.82271 672.7926091999999,176.57147 680.7353092,176.31921 688.6776092,176.06591 696.6196092,175.81157000000002 704.5612092,175.55619000000002 712.5020092,175.29977000000002 720.4416092,175.0423 728.3795091999999,174.78373000000002 736.3156091999999,174.52393 744.2496091999999,174.262807 752.1816092,174.000236 760.1120092,173.736097 768.0410092,173.47027200000002 775.9693092,173.20271300000002 783.8971091999999,172.933404 791.8244092,172.662341 799.7509091999999,172.38952600000002 807.6763092,172.11497 815.5999092,171.83867500000002 823.5211092,171.56060300000001 831.4398091999999,171.28070300000002 839.3561091999999,170.998909 847.2704091999999,170.715146 855.1832092,170.429407 863.0946091999999,170.142039 871.0025092,169.85354 878.9032092,169.564479 886.7909091999999,169.27549000000002 894.6580091999999,168.986987 902.4940091999999,168.698961 910.2855092,168.411473 918.0166092,168.124695 925.6690091999999,167.838582 933.2201092,167.552299 940.6413092,167.265217 947.9019092,166.97709700000001 954.9689092,166.687961 961.8058091999999,166.39825000000002 968.3755091999999,166.108945 974.6457091999999,165.82193600000002 980.5816091999999,165.541212 986.1499092,165.2708653 991.3313092,165.017128 996.1250092,164.79016670000001 1000.5464092,164.59515430000002 1004.1017092,164.4498" stroke="black" stroke-width="2.0" /></svg>