<?xml version="1.0" encoding="utf-8" ?>
<svg baseProfile="full" height="197.67185999999998" version="1.1" width="1012.0976166" xmlns="http://www.w3.org/2000/svg" xmlns:ev="http://www.w3.org/2001/xml-events" xmlns:xlink="http://www.w3.org/1999/xlink"><defs /><polygon fill="none" points="1004.0976166,96.78792999999999 1000.5918166,95.544051 996.2357166,94.16443899999999 991.5732166,92.86209799999999 986.6319166,91.64712399999999 981.4411166000001,90.52206999999999 976.0273166000001,89.484873 970.4140166,88.52948899999998 964.6191166000001,87.644426 958.6563166,86.81615 952.5428166,86.02799999999999 946.2991166,85.26454999999999 939.9517166,84.51585999999999 933.5365166,83.77190999999999 927.0964166,83.02476999999999 920.6667166000001,82.27096999999999 914.2660166000001,81.50608 907.8960166,80.72406999999998 901.5470166,79.92052999999999 895.2096166,79.09304999999999 888.8773166,78.23956999999999 882.5465166,77.35837 876.2159166,76.44926999999998 869.8840166,75.51316999999999 863.5494166,74.55094 857.2104166,73.56345999999999 850.8653166,72.55175 844.5119166,71.51758999999998 838.1485166000001,70.46294999999999 831.7735166000001,69.38981999999999 825.3858166000001,68.3003 818.9844166,67.19648999999998 812.5692166,66.08061 806.1412166,64.95506999999999 799.7028166,63.82255999999999 793.2574166,62.68600999999999 786.8095166,61.54828999999999 780.3633166,60.41164999999999 773.9218165999999,59.27801999999999 767.4867166000001,58.14908999999999 761.0581166000001,57.02631999999999 754.6351166000001,55.91082999999999 748.2162166,54.803079999999994 741.8000166,53.70337999999999 735.3851166000001,52.61204999999999 728.9708166,51.529459999999986 722.5560166000001,50.45600999999999 716.1402166,49.39192999999999 709.7231166,48.33709999999999 703.3042166,47.29137999999999 696.8834166,46.254659999999994 690.4606166,45.22683999999999 684.0357166,44.20783999999999 677.6088166000001,43.197599999999994 671.1800166,42.19606999999999 664.7494166,41.20318999999999 658.3173166,40.21894999999999 651.8838166,39.24328999999999 645.4491166,38.276209999999985 639.0136166000001,37.31780999999999 632.5774166000001,36.36827999999999 626.1407166,35.42777999999999 619.7036166,34.49649999999999 613.2665166,33.57459999999999 606.8294166000001,32.66223999999998 600.3923166,31.75967999999999 593.9554166,30.86714999999998 587.5187166000001,29.98491999999999 581.0820166,29.113209999999995 574.6452166,28.252259999999993 568.2082166,27.40227999999999 561.7707166,26.563369999999992 555.3326166,25.735619999999997 548.8937166000001,24.919089999999997 542.4538166,24.11385999999999 536.0129166,23.320019999999985 529.5708166000001,22.537639999999982 523.1274166000001,21.76674 516.6828166,21.007319999999993 510.2369165999999,20.25940999999999 503.78981659999994,19.522999999999982 497.3416166,18.798119999999997 490.89251659999996,18.084819999999993 484.4425166,17.38320999999999 477.9920166,16.69347999999998 471.5410166,16.01576999999999 465.0900166,15.350269999999995 458.6392166,14.69713999999999 452.18901659999995,14.056609999999992 445.7396166,13.42910999999998 439.2915166,12.815159999999992 432.8451166,12.215249999999983 426.4006166,11.629879999999986 419.95871659999995,11.059549999999987 413.5195166,10.504819999999981 407.08361659999997,9.96653999999998 400.6513166,9.44556 394.2230166,8.94274 387.7987166,8.458939999999984 381.37881659999994,7.994969999999995 374.9635166,7.551719999999989 368.55271659999994,7.130129999999994 362.1467166,6.731139999999982 355.7452166,6.3556799999999924 349.3484166,6.004679999999993 342.95591659999997,5.679059999999993 336.5675166,5.379659999999987 330.1832166,5.107259999999997 323.8030166,4.862669999999994 317.4271166,4.64667 311.0558166,4.460049999999995 304.6895166,4.303619999999981 298.3286166,4.178369999999987 291.9738166,4.085329999999985 285.6257166,4.025539999999978 279.28491660000003,4.0 272.9522166,4.009699999999995 266.6283166,4.055879999999988 260.3144166,4.1400899999999865 254.0116166,4.263869999999997 247.7216166,4.428730000000002 241.4461166,4.636089999999982 235.18721660000003,4.887619999999984 228.94721660000002,5.186039999999991 222.7286166,5.534159999999986 216.5341166,5.934699999999992 210.3664166,6.390209999999996 204.2282166,6.903239999999997 198.1221166,7.47699999999999 192.0492166,8.114949999999979 186.0093166,8.820679999999982 180.0005166,9.59787999999999 174.0198166,10.45022999999999 168.06401660000003,11.379629999999992 162.1309166,12.387270000000001 156.21961660000002,13.47426999999999 150.3305166,14.641639999999981 144.4647166,15.89009999999999 138.62431660000001,17.219880000000003 132.81121660000002,18.63109999999999 127.02711659999999,20.123839999999987 121.2740166,21.69816999999999 115.55491659999998,23.354709999999997 109.87621659999999,25.093749999999986 104.2486166,26.91395999999999 98.68600659999998,28.81214999999999 93.2060066,30.78641999999998 87.8269266,32.84099999999999 82.56219660000001,34.981079999999984 77.42040659999999,37.21215999999999 72.4061766,39.53928999999999 67.5179866,41.967659999999995 62.745366600000004,44.50731999999999 58.0702166,47.17470999999999 53.467096600000005,49.98726999999999 48.9185666,52.94272999999999 44.4372866,56.01628999999999 40.0658066,59.15840999999999 35.8637266,62.30033999999999 31.8834466,65.37324999999998 28.158166599999998,68.32234999999999 24.7147066,71.11158999999999 21.639316599999997,73.68531999999999 19.0088066,75.97658999999999 16.8107066,77.97421 14.9823366,79.71932999999999 13.450601599999999,81.27610999999999 12.1492226,82.69819 11.029269600000001,84.02362 10.0560796,85.27905999999999 9.204661600000001,86.48355 8.4500796,87.64581399999999 7.7702006,88.76128299999999 7.1513566,89.82031199999999 6.584217600000001,90.81392799999999 6.0615456000000005,91.736886 5.5772206,92.588349 5.1259156,93.37103699999999 4.710508,94.09141799999999 4.3671654,94.76673399999999 4.12674783,95.41895999999998 4.00800334,96.06925299999999 4.0,96.73140869999999 4.08712047,97.41456749999999 4.2597152,98.12695399999998 4.5107669,98.87636099999999 4.8326728,99.669546 5.2125626,100.50964799999998 5.6403696,101.396626 6.1222066,102.33335499999998 6.6665416,103.32250699999999 7.2824406,104.36589299999999 7.9794436,105.464745 8.7680476,106.62112699999999 9.661841599999999,107.84136 10.6809656,109.13963 11.8506546,110.53276999999999 13.2033836,112.04166 14.781716600000001,113.69333999999999 16.6395366,115.52131999999999 18.8369866,117.56094999999999 21.434596599999995,119.84285999999999 24.4725166,122.38314999999999 27.931066599999998,125.17012999999999 31.7364166,128.17406999999997 35.8127566,131.32342999999997 40.0747966,134.51699 44.453236600000004,137.66886 48.91440660000001,140.72956 53.4438766,143.67194999999998 58.0426066,146.48105999999999 62.726296600000005,149.15328 67.51147660000001,151.69998999999999 72.40943659999999,154.13362999999998 77.42729659999999,156.46274999999997 82.5673466,158.69315 87.8281966,160.83159999999998 93.2039666,162.88482999999997 98.6827266,164.85859 104.24601659999999,166.75698999999997 109.87521659999999,168.57772 115.5552166,170.31719999999999 121.2750166,171.97395999999998 127.02811659999999,173.54828999999998 132.8117166,175.04091 138.62441660000002,176.452 144.46441660000002,177.78170999999998 150.3301166,179.03014 156.21941660000002,180.19752999999997 162.13081660000003,181.28456 168.06401660000003,182.29222 174.01991660000002,183.22163999999998 180.0007166,184.07398999999998 186.0094166,184.8512 192.0493166,185.55691000000002 198.1221166,186.19486 204.2282166,186.76861 210.3664166,187.28163999999998 216.5341166,187.73716 222.7286166,188.1377 228.94721660000002,188.48582 235.18721660000003,188.78424 241.4461166,189.03578 247.7216166,189.24312999999998 254.0116166,189.40798999999998 260.3144166,189.53177 266.6283166,189.61597999999998 272.9522166,189.66215999999997 279.28491660000003,189.67185999999998 285.6257166,189.64632 291.9738166,189.58652999999998 298.3286166,189.49349 304.6895166,189.36824000000001 311.0558166,189.21180999999999 317.4271166,189.02518999999998 323.8030166,188.80919 330.1832166,188.56459999999998 336.5675166,188.29219999999998 342.95591659999997,187.9928 349.3484166,187.66717999999997 355.7452166,187.31617999999997 362.1467166,186.94072 368.55271659999994,186.54172999999997 374.9635166,186.12014 381.37881659999994,185.67689 387.7987166,185.21292 394.2230166,184.72911999999997 400.6513166,184.22629999999998 407.08361659999997,183.70532 413.5195166,183.16704 419.95871659999995,182.61230999999998 426.4006166,182.04198 432.8451166,181.45661 439.2915166,180.8567 445.7396166,180.24275 452.18901659999995,179.61525 458.6392166,178.97472 465.0900166,178.32159 471.5410166,177.65609 477.9920166,176.97838000000002 484.4425166,176.28865 490.89251659999996,175.58704 497.3416166,174.87374 503.78981659999994,174.14886 510.2369165999999,173.41244999999998 516.6828166,172.66454 523.1274166000001,171.90511999999998 529.5708166000001,171.13422 536.0129166,170.35183999999998 542.4538166,169.558 548.8937166000001,168.75277 555.3326166,167.93624 561.7707166,167.10849 568.2082166,166.26958 574.6452166,165.4196 581.0820166,164.55865 587.5187166000001,163.68694 593.9554166,162.80471 600.3923166,161.91217999999998 606.8294166000001,161.00961999999998 613.2665166,160.09726 619.7036166,159.17535999999998 626.1407166,158.24408 632.5774166000001,157.30357999999998 639.0136166000001,156.35405 645.4491166,155.39565 651.8838166,154.42856999999998 658.3173166,153.45290999999997 664.7494166,152.46866999999997 671.1800166,151.47579 677.6088166000001,150.47426 684.0357166,149.46402 690.4606166,148.44502 696.8834166,147.41719999999998 703.3042166,146.38047999999998 709.7231166,145.33476 716.1402166,144.27992999999998 722.5560166000001,143.21585 728.9708166,142.1424 735.3851166000001,141.05981 741.8000166,139.96848 748.2162166,138.86878 754.6351166000001,137.76103 761.0581166000001,136.64553999999998 767.4867166000001,135.52276999999998 773.9218165999999,134.39383999999998 780.3633166,133.26021 786.8095166,132.12357 793.2574166,130.98585 799.7028166,129.8493 806.1412166,128.71679 812.5692166,127.59124999999999 818.9844166,126.47537 825.3858166000001,125.37155999999999 831.7735166000001,124.28204 838.1485166000001,123.20890999999999 844.5119166,122.15427 850.8653166,121.12010999999998 857.2104166,120.10839999999999 863.5494166,119.12091999999998 869.8840166,118.15868999999999 876.2159166,117.22259 882.5465166,116.31348999999999 888.8773166,115.43229 895.2096166,114.57880999999999 901.5470166,113.75133 907.8960166,112.94779 914.2660166000001,112.16577999999998 920.6667166000001,111.40088999999999 927.0964166,110.64708999999999 933.5365166,109.89994999999999 939.9517166,109.15599999999999 946.2991166,108.40731 952.5428166,107.64385999999999 958.6563166,106.85570999999999 964.6191166000001,106.02743399999999 970.4140166,105.142371 976.0273166000001,104.18698699999999 981.4411166000001,103.14979 986.6319166,102.02473599999999 991.5732166,100.80976199999999 996.2357166,99.507421 1000.5918166,98.12780899999998 1004.0976166,96.88392999999999" stroke="black" stroke-width="2.0" /></svg>