<?xml version="1.0" encoding="utf-8" ?>
<svg baseProfile="full" height="150.28345000000002" version="1.1" width="1011.994419011" xmlns="http://www.w3.org/2000/svg" xmlns:ev="http://www.w3.org/2001/xml-events" xmlns:xlink="http://www.w3.org/1999/xlink"><defs /><polygon fill="none" points="1003.994419011,100.50925000000001 1000.7696190109999,99.156255 996.925019011,97.585412 992.937919011,96.004502 988.7998190110001,94.415052 984.502019011,92.81902600000001 980.035619011,91.21892000000001 975.391719011,89.61787000000001 970.562019011,88.01975 965.539119011,86.42934000000001 960.317019011,84.85238000000001 954.891619011,83.29573 949.262219011,81.76664000000001 943.433319011,80.26736000000001 937.413019011,78.79686000000001 931.212819011,77.35277 924.846919011,75.93123000000001 918.331819011,74.5267 911.685619011,73.13192000000001 904.9268190109999,71.73789000000001 898.0734190109999,70.33523000000001 891.1400190109999,68.92282 884.184519011,67.51215 877.2777190109999,66.11712 870.407619011,64.73481000000001 863.561719011,63.36221000000001 856.7289190109999,61.996680000000005 849.899319011,60.635830000000006 843.0643190110001,59.27754000000001 836.2161190109999,57.91989000000001 829.348119011,56.56117000000001 822.454319011,55.19984000000001 815.529919011,53.83457000000001 808.5711190110001,52.46421000000001 801.601519011,51.09302000000001 794.666919011,49.73046000000001 787.768419011,48.37876000000001 780.905219011,47.03979 774.075619011,45.71526000000001 767.2776190110001,44.40673 760.5086190110001,43.11562000000001 753.765619011,41.84320000000001 747.045319011,40.59068000000001 740.343819011,39.35914000000001 733.656919011,38.14961000000001 726.979919011,36.96305000000001 720.3079190110001,35.80039000000001 713.635219011,34.66253000000002 706.955919011,33.550380000000004 700.263519011,32.46477 693.551419011,31.404870000000003 686.813919011,30.36809000000001 680.046319011,29.351950000000002 673.2450190110001,28.354140000000015 666.407519011,27.37252000000001 659.532619011,26.405080000000012 652.620219011,25.449950000000015 645.671719011,24.505370000000013 638.690019011,23.569730000000007 631.679519011,22.641520000000014 624.646219011,21.719390000000004 617.5979190109999,20.802120000000002 610.543919011,19.888650000000013 603.495419011,18.97812000000002 596.464419011,18.070700000000016 589.462219011,17.17064000000002 582.4977190110001,16.28298000000001 575.577519011,15.412290000000013 568.705919011,14.562640000000002 561.8851190109999,13.737690000000015 555.115419011,12.940660000000008 548.395319011,12.174410000000009 541.7219190110001,11.441510000000008 535.0910190110001,10.744290000000007 528.4969190109999,10.084879999999998 521.9331190109999,9.465330000000009 515.3917190110001,8.887630000000001 508.86391901099995,8.353800000000007 502.33961901099997,7.865960000000001 495.807719011,7.424970000000002 489.257719011,7.02788000000001 482.68021901099996,6.671320000000009 476.067319011,6.352160000000012 469.41211901099996,6.0674199999999985 462.70901901099995,5.8142 455.953919011,5.589620000000011 449.14421901099996,5.390800000000013 442.27911901100003,5.214750000000009 435.359619011,5.058410000000009 428.389119011,4.91855000000001 421.373119011,4.791810000000012 414.32011901100003,4.674700000000001 407.240919011,4.56356000000001 400.14911901100004,4.454790000000017 393.060319011,4.348290000000006 385.988919011,4.24845000000002 378.947019011,4.159810000000007 371.944719011,4.086680000000015 364.989619011,4.033160000000009 358.087219011,4.003080000000011 351.241019011,4.0 344.45241901099996,4.027280000000005 337.721619011,4.088040000000021 331.046819011,4.18528000000002 324.425219011,4.321860000000015 317.85301901099996,4.500590000000017 311.324919011,4.724260000000015 304.835219011,4.995730000000009 298.376919011,5.317730000000012 291.94331901099997,5.69089000000001 285.528419011,6.114760000000018 279.126919011,6.5890600000000035 272.73421901099994,7.113610000000008 266.34651901099994,7.688350000000014 259.960519011,8.313270000000017 253.573619011,8.988440000000011 247.183719011,9.713930000000005 240.789419011,10.489830000000012 234.389819011,11.316210000000012 227.98471901099998,12.193080000000009 221.57441901099997,13.120390000000015 215.160019011,14.09799000000001 208.743119011,15.125590000000003 202.326119011,16.20278000000002 195.91201901099998,17.329180000000008 189.504319011,18.504900000000006 183.107119011,19.729900000000015 176.72521901099998,21.00391000000002 170.364019011,22.326390000000004 164.029219011,23.696500000000015 157.727319011,25.113130000000012 151.465019011,26.574830000000006 145.24931901099998,28.081130000000016 139.08741901099998,29.633530000000007 132.98451901099997,31.23387000000001 126.944619011,32.884050000000016 120.970019011,34.586110000000005 115.061719011,36.34225000000001 109.219719011,38.15485000000001 103.44295901100001,40.02649 97.73000901099999,41.95915000000001 92.08312901100001,43.950680000000006 86.51063901100001,45.99591000000001 81.026089011,48.08731000000001 75.647039011,50.21549000000001 70.395619011,52.37547000000001 65.303859011,54.56224 60.410139011,56.763780000000004 55.750789011,58.96352 51.353459011,61.14330000000001 47.236999011,63.281110000000005 43.40389901099999,65.35898 39.840869011,67.36896000000002 36.527419011,69.30942 33.441099011000006,71.18220000000001 30.560099011000002,72.99093 27.864299011,74.74014000000001 25.333529011000003,76.44129000000001 22.970509011,78.09595000000002 20.800539011,79.68263 18.839689011,81.17828 17.082819010999998,82.57168000000001 15.510169011,83.86363 14.107119011,85.05959000000001 12.858744010999999,86.16996 11.745391010999999,87.20785000000001 10.748867011,88.18518 9.853961010999999,89.11192000000001 9.048378011,89.99616 8.322278011,90.844491 7.667782011,91.66226300000001 7.078576011000001,92.45391800000002 6.549583011,93.22317500000001 6.076731011,93.973194 5.656763011,94.70670000000001 5.287107011,95.426084 4.965771411,96.13347200000001 4.691276011,96.83079000000001 4.462598411,97.519812 4.279143311,98.20220700000002 4.140725511,98.879569 4.0475705810000004,99.5534614 4.000329453,100.22544630000002 4.0,100.89711120000001 4.046246691,101.56988000000001 4.137742911,102.24496500000001 4.273576811,102.923512 4.453248611,103.606633 4.676642611,104.29542800000002 4.944013111,104.991003 5.255984011,105.69448700000001 5.613560011,106.40705400000002 6.0181510110000005,107.12993600000001 6.4716120109999995,107.86444200000001 6.976294011,108.61197700000001 7.535119011,109.37406000000001 8.151671011,110.152337 8.830315011,110.94860000000001 9.576345011,111.76476000000001 10.396162011,112.60288000000001 11.297464010999999,113.46503000000001 12.289427010999999,114.35318000000001 13.382762011,115.26876000000001 14.589389011,116.21189000000001 15.921089011,117.17979000000001 17.386179011000003,118.16384000000001 18.994059010999997,119.15385 20.759669011,120.14296 22.695009011,121.12377000000001 24.806959011000004,122.09032 27.098469011000002,123.04213000000001 29.575659011000003,123.98974000000001 32.257649011,124.95115000000001 35.168589011,125.92992000000001 38.334199010999995,126.92609000000002 41.781649011,127.93926000000002 45.537819010999996,128.96839 49.626379011,130.01165 54.062969011,131.0662 58.851989011,132.12847000000002 63.991049011,133.19458 69.45011901100001,134.25954000000002 75.156989011,135.31743 80.998499011,136.36238 86.843989011,137.37378 92.599649011,138.31062 98.234069011,139.14417 103.76724901100002,139.85725000000002 109.25611901100001,140.442 114.76971901099999,140.91244 120.36831901100001,141.28531 126.105519011,141.57355 132.03011901099998,141.78835 138.184619011,141.94081 144.599419011,142.04369 151.280519011,142.11316 158.192119011,142.16941000000003 165.25281901099999,142.22036000000003 172.36741901099998,142.26018 179.46681901099998,142.28295 186.49151901099998,142.28345000000002 193.409719011,142.25737 200.212719011,142.20112 206.910119011,142.11145 213.522819011,141.98691000000002 220.071919011,141.82819 226.57531901099998,141.63581 233.04801901099998,141.41002 239.502919011,141.1508 245.95111901099997,140.85795000000002 252.402119011,140.53112000000002 258.863919011,140.16984000000002 265.343219011,139.77353 271.845619011,139.34158000000002 278.375119011,138.87335000000002 284.934219011,138.36821 291.524119011,137.8256 298.144519011,137.24508 304.793019011,136.62638 311.465819011,135.97027000000003 318.159019011,135.28047 324.868719011,134.56140000000002 331.591619011,133.81759 338.324519011,133.05368 345.06451901099996,132.27432000000002 351.80911901099995,131.48420000000002 358.556419011,130.68801000000002 365.304619011,129.89041 372.052419011,129.09601 378.799019011,128.30939 385.543819011,127.53505000000001 392.28671901099995,126.77744000000001 399.028119011,126.04093 405.768719011,125.32983000000002 412.50941901100003,124.64701000000001 419.25081901100003,123.99237000000001 425.993519011,123.36548 432.738219011,122.76591 439.485819011,122.19324 446.237119011,121.64706000000001 452.993019011,121.12697 459.754419011,120.63259000000001 466.522319011,120.16354000000001 473.29801901099995,119.71946000000001 480.082419011,119.30000000000001 486.87701901099996,118.90482 493.682919011,118.53359 500.50161901099995,118.18602000000001 507.33471901099995,117.86178000000001 514.183619011,117.55993000000001 521.0498190110001,117.27886000000001 527.934619011,117.01689000000002 534.838919011,116.77239 541.763419011,116.54366 548.708519011,116.32903 555.674319011,116.12679000000001 562.660719011,115.93522000000002 569.6671190110001,115.75257 576.6928190110001,115.57705000000001 583.736519011,115.40686000000001 590.7968190109999,115.24019000000001 597.871819011,115.07518 604.959319011,114.90996000000001 612.0567190109999,114.74307 619.161419011,114.57419000000002 626.271119011,114.40318 633.383619011,114.22991 640.4969190109999,114.05426000000001 647.609219011,113.87609 654.7191190110001,113.69526 661.8252190110001,113.51164000000001 668.926419011,113.32507000000001 676.021819011,113.13541000000001 683.110719011,112.94251000000001 690.192819011,112.74622000000001 697.267819011,112.54638000000001 704.335619011,112.34282 711.396519011,112.13577000000001 718.450619011,111.92688000000001 725.497619011,111.71813 732.537219011,111.51151000000002 739.5686190109999,111.30897000000002 746.5906190110001,111.11248 753.601819011,110.924 760.600619011,110.74547000000001 767.585119011,110.57879000000001 774.553019011,110.425835 781.501919011,110.288458 788.429119011,110.168445 795.331819011,110.06752800000001 802.206819011,109.98737000000001 809.051119011,109.929139 815.861619011,109.89004200000001 822.6364190109999,109.86521 829.374919011,109.84988000000001 836.077419011,109.839436 842.7451190109999,109.82940200000002 849.380419011,109.81544000000001 855.986419011,109.79332500000001 862.566919011,109.75892800000001 869.126619011,109.70817600000001 875.671019011,109.637015 882.206419011,109.541368 888.739619011,109.41707500000001 895.278819011,109.25983500000001 901.832619011,109.065126 908.411119011,108.82832900000001 915.021419011,108.54703 921.660819011,108.22071600000001 928.313819011,107.84970500000001 934.9522190109999,107.435551 941.536219011,106.981373 948.017919011,106.49196900000001 954.346119011,105.97362400000002 960.4730190109999,105.433553 966.3629190109999,104.87887 971.995619011,104.31578300000001 977.364419011,103.749351 982.4720190109999,103.18349500000001 987.327719011,102.621121 991.944619011,102.06429800000001 996.337519011,101.51443900000001 1000.522219011,100.9724563 1003.994419011,100.50925000000001" stroke="black" stroke-width="2.0" /></svg>