<?xml version="1.0" encoding="utf-8" ?>
<svg baseProfile="full" height="154.82984" version="1.1" width="1012.04192508" xmlns="http://www.w3.org/2000/svg" xmlns:ev="http://www.w3.org/2001/xml-events" xmlns:xlink="http://www.w3.org/1999/xlink"><defs /><polygon fill="none" points="1004.04192508,120.5849 1000.5500250800001,119.255211 996.35562508,117.677021 991.9693250800001,116.04870100000001 987.3780250800002,114.368317 982.56882508,112.634442 977.5299250800001,110.846452 972.2519250800001,109.00492 966.72902508,107.11208 960.96152508,105.17242 954.95772508,103.19322 948.73602508,101.18472 942.3248250800001,99.15838000000001 935.7576250800001,97.12559 929.0686250800001,95.09700000000001 922.29012508,93.08151000000001 915.4490250800001,91.08556 908.56422508,89.11268000000001 901.6458250800001,87.16339 894.6945250800001,85.23618 887.7084250800001,83.32968000000001 880.68612508,81.44276 873.62662508,79.57445 866.52982508,77.72399 859.39662508,75.89078 852.2283250800001,74.07438 845.02752508,72.27455 837.7975250800001,70.49121 830.5425250800001,68.72446000000001 823.26782508,66.97456 815.9798250800001,65.24192000000001 808.6857250800001,63.527120000000004 801.3935250800001,61.830870000000004 794.1116250800001,60.15505 786.8470250800001,58.50283 779.6051250800001,56.877030000000005 772.38942508,55.279970000000006 765.20212508,53.713539999999995 758.0435250800001,52.17925000000001 750.91272508,50.67823 743.8075250800001,49.21131000000001 736.72432508,47.779060000000015 729.65842508,46.38186 722.6039250800001,45.019880000000015 715.55372508,43.69318000000001 708.4995250800001,42.401730000000015 701.43172508,41.14537 694.34012508,39.92233 687.2153250800001,38.72873 680.0493250800001,37.56088 672.83552508,36.415350000000004 665.56872508,35.288970000000006 658.2452250800001,34.17875000000001 650.86312508,33.08191000000001 643.4226250800001,31.995829999999998 635.92572508,30.918080000000003 628.3772250800001,29.84642000000001 620.78422508,28.778800000000004 613.1569250800001,27.713440000000006 605.50792508,26.648799999999994 597.85272508,25.58424000000001 590.2071250800001,24.52336000000001 582.58422508,23.471270000000004 574.9949250800001,22.432640000000006 567.4472250800001,21.411640000000006 559.94692508,20.411900000000003 552.49712508,19.436800000000005 545.0989250800001,18.4889 537.7515250800001,17.570700000000002 530.4522250800001,16.684200000000004 523.1967250800001,15.831199999999995 515.9792250800001,15.013400000000004 508.79282508,14.232 501.62912508,13.488600000000005 494.47892508,12.782899999999998 487.33392508,12.112800000000007 480.18662508,11.476200000000006 473.03042508,10.87129999999999 465.85962508,10.296199999999999 458.66932508,9.749600000000001 451.45522508,9.229900000000015 444.21422508,8.7359 436.94352508,8.266300000000001 429.64142508000003,7.820000000000007 422.30732508,7.395800000000008 414.94132508,6.992500000000007 407.54462508,6.609300000000005 400.11962508,6.244900000000001 392.66932508,5.900199999999998 385.19812508,5.577200000000005 377.71122507999996,5.278200000000012 370.21532507999996,5.005500000000012 362.71812508,4.761300000000006 355.22872508,4.547600000000003 347.75682508,4.366600000000005 340.31332507999997,4.21990000000001 332.90952508,4.109099999999998 325.55732508,4.035500000000013 318.26852508,4.0 311.05492508,4.003399999999999 303.92792507999997,4.045900000000003 296.89812508,4.128 289.97422508,4.251900000000006 283.16012508,4.419899999999998 276.45572508,4.6340000000000146 269.85762508,4.896000000000015 263.35972508,5.207599999999999 256.95422508,5.570599999999999 250.63132507999998,5.986900000000006 244.38032508,6.4587999999999965 238.18922508,6.988799999999998 232.04492508,7.579899999999995 225.93312508,8.235700000000008 219.83822508,8.960600000000014 213.74282508,9.760000000000005 207.62742508,10.640500000000003 201.46922508,11.610399999999998 195.24302508000002,12.6755 188.92852508000001,13.836200000000005 182.51662507999998,15.091200000000015 176.01222507999998,16.4354 169.43762508,17.859300000000005 162.83542508,19.347099999999998 156.26692508,20.87693 149.80712508000002,22.423080000000013 143.52872508,23.974829999999997 137.47472507999998,25.535480000000007 131.65712508000001,27.111990000000006 126.06742507999999,28.7136 120.68562508000001,30.351079999999996 115.48542508,32.036460000000005 110.43732508,33.783190000000005 105.51022508,35.60672000000001 100.67137508,37.52423999999999 95.88999508,39.54293 91.15085508,41.658770000000004 86.45718508,43.86021000000001 81.82937507999999,46.12679 77.30225508,48.42939 72.91985508,50.743420000000015 68.71838508,53.05958000000001 64.71678508,55.373750000000015 60.92039508,57.68521 57.32547508,59.99559000000001 53.92290508,62.30805 50.700875079999996,64.62369000000001 47.64735508,66.93421000000001 44.75167508,69.23063 42.004355079999996,71.50548 39.39688508,73.75256999999999 36.921485080000004,75.96681000000001 34.57100508,78.14405 32.33880508,80.28094000000002 30.218695079999996,82.37485000000001 28.204685079999997,84.42385999999999 26.28601508,86.42859 24.45335508,88.38518 22.70631508,90.28111000000001 21.04839508,92.101 19.48267508,93.83188 18.00940508,95.46616 16.625555079999998,97.00212 15.32838508,98.44255000000001 14.12344508,99.79359000000001 13.01167008,101.06464 11.989378080000002,102.26568 11.051080080000002,103.40599 10.190716080000001,104.49398000000001 9.402464080000001,105.53698 8.68114808,106.54114 8.02230108,107.51161 7.42208608,108.45275000000001 6.877213080000001,109.36829 6.38487208,110.2615 5.94269508,111.13524600000001 5.54870808,111.99205500000001 5.20129708,112.834186 4.89916598,113.663677 4.64131758,114.482387 4.42702798,115.292034 4.25583498,116.09422500000001 4.12752928,116.890483 4.0421523828,117.682274 4.0,118.47102600000001 4.00163184,119.258156 4.047888038,120.0450888 4.13925916,120.83293316000001 4.27456048,121.62173200000001 4.45254588,122.411271 4.67225248,123.201271 4.93296838,123.99138500000001 5.23420808,124.78118500000001 5.57569508,125.570159 5.95734508,126.35768900000001 6.37926108,127.14304200000001 6.8417230799999995,127.925346 7.3451860799999995,128.70356600000002 7.89027808,129.476472 8.47780408,130.242605 9.10873908,131.00022 9.78423708,131.74725 10.50562908,132.4812 11.27442108,133.19908 12.092290080000001,133.89727 12.96106308,134.57142000000002 13.88269708,135.21620000000001 14.85922508,135.82513 15.89265508,136.39028 16.98491508,136.90206 18.13867508,137.3546 19.358155080000003,137.74915000000001 20.64796508,138.08842 22.01311508,138.37656 23.45884508,138.61975 24.99049508,138.82693 26.613205079999997,139.01091 28.33131508,139.18981 30.14776508,139.38775 32.067475079999994,139.6182 34.09776508,139.88257000000002 36.24569508,140.18112 38.51786507999999,140.51286 40.92042508,140.87523000000002 43.45919507999999,141.26366000000002 46.139205079999996,141.67099000000002 48.96460508,142.08699000000001 51.94222508,142.49838 55.08651508,142.88876 58.421835079999994,143.2472 61.97730508,143.57612 65.78521508,143.88102 69.87907507999999,144.17054000000002 74.28777508,144.45808 79.02310508,144.76366000000002 84.06092508,145.10666 89.34437508,145.47479 94.80640507999999,145.84182 100.39087508,146.17824000000002 106.07182508000001,146.4544 111.85842507999999,146.65361000000001 117.77092508,146.77774 123.82852507999999,146.82984 130.04832507999998,146.81303 136.44402508,146.73089 143.02382508,146.58799 149.78702507999998,146.39042 156.72052508,146.14636000000002 163.79792508,145.86235 170.98842507999998,145.54083 178.26232507999998,145.18463 185.59342508,144.79706 192.96112508000002,144.3817 200.35102507999997,143.94211 207.75662508,143.48159 215.17712508,143.003 222.61292508,142.50893 230.06392508,142.00206 237.52942507999998,141.48514 245.00792508,140.96099 252.49772508,140.43252 259.99602508,139.90271 267.49982508,139.37460000000002 275.00522508,138.85128 282.50792508,138.33589 290.00292508,137.83154000000002 297.48482508,137.34138000000002 304.94742508,136.86846 312.38462508000003,136.41566 319.79072508,135.9853 327.16162508,135.57944 334.49462508,135.19994 341.78882508000004,134.84852 349.04452507999997,134.52674000000002 356.26322508000004,134.23607 363.44762507999997,133.9779 370.60172508,133.75359 377.73022507999997,133.56449 384.83912508,133.412 391.93512508,133.29759 399.02622508,133.22286 406.12122508,133.18952000000002 413.23022508,133.19779 420.36262508,133.24499 427.52682508,133.32828 434.73022508,133.44491 441.97902508000004,133.59209 449.27812508000005,133.767 456.63112508,133.9667 464.04032507999995,134.18811 471.50612508,134.42792 479.02732508,134.68264 486.60052508,134.94849 494.22002508,135.22146 501.87792508,135.49726 509.56382507999996,135.77159 517.26582508,136.04167 524.97312508,136.3057 532.6761250800001,136.56194 540.3666250800001,136.80878 548.0382250800001,137.04468 555.68602508,137.2682 563.30652508,137.478 570.8978250800001,137.67285 578.45952508,137.85155 585.9924250800001,138.01302 593.49862508,138.15618 600.98142508,138.27999 608.44522508,138.38349 615.8951250800001,138.46664 623.33602508,138.53014000000002 630.7724250800001,138.57461 638.20842508,138.60067 645.6477250800001,138.60887 653.09362508,138.59972 660.54932508,138.57371 668.01752508,138.53132 675.50082508,138.473 683.0011250800001,138.3992 690.5205250800001,138.31034 698.0603250800001,138.20686 705.62172508,138.0892 713.20562508,137.95779 720.8122250800001,137.81308 728.4413250800001,137.65552 736.0916250800001,137.48561 743.7615250800001,137.30388 751.4481250800001,137.11088 759.14812508,136.90722 766.8573250800001,136.69357 774.57052508,136.47064 782.28202508,136.23917 789.98512508,135.99998 797.6727250800001,135.75391000000002 805.33692508,135.50186 812.96952508,135.24397 820.56332508,134.97853 828.11312508,134.70358000000002 835.6155250800001,134.41717 843.06872508,134.11743 850.4729250800001,133.80246 857.82952508,133.47041000000002 865.14132508,133.11942 872.4122250800001,132.7476 879.6474250800001,132.353 886.85312508,131.93361 894.03652508,131.48728 901.20592508,131.01174 908.37072508,130.504591 915.53702508,129.96491400000002 922.6985250800001,129.39378 929.8340250800001,128.79369100000002 936.90832508,128.168753 943.8753250800002,127.524654 950.68332508,126.86833 957.28132508,126.20733 963.62712508,125.548677 969.6948250800001,124.897845 975.4744250800001,124.258763 980.9678250800001,123.634001 986.1845250800001,123.02504900000001 991.13892508,122.43259 995.8476250800001,121.856742 1000.3279250800001,121.2972471 1004.04192508,120.8249" stroke="black" stroke-width="2.0" /></svg>