<?xml version="1.0" encoding="utf-8" ?>
<svg baseProfile="full" height="203.8828" version="1.1" width="1012.2167575" xmlns="http://www.w3.org/2000/svg" xmlns:ev="http://www.w3.org/2001/xml-events" xmlns:xlink="http://www.w3.org/1999/xlink"><defs /><polygon fill="none" points="1004.2167575,155.6921 999.8678575,154.19740000000002 994.6434575,152.40078100000002 989.1800575,150.520846 983.4631575,148.55237100000002 977.4791574999999,146.49060000000003 971.2179575,144.33176000000003 964.6736574999999,142.07367000000002 957.8479575,139.71668000000003 950.7523575,137.26459000000003 943.4095575,134.72694 935.8485575,132.11863000000002 928.1005575,129.45637000000002 920.1953575,126.75695000000002 912.1570575,124.03572000000003 904.0002575,121.30517 895.7279574999999,118.57330000000002 887.3360575,115.84041000000002 878.8212575,113.10464000000002 870.1813575,110.36443000000003 861.4158575,107.61856000000002 852.5258575,104.86624000000002 843.5149574999999,102.10716000000002 834.3893575,99.34160000000003 825.1581575,96.57044000000002 815.8337575,93.79531000000001 806.4320574999999,91.01856000000002 796.9726575,88.24341000000001 787.4767575,85.47589000000002 777.9644575,82.72415000000001 768.4537575,79.99576000000002 758.9604575,77.29745000000003 749.4974575,74.63498000000003 740.0753575,72.01321000000002 730.7019575,69.43604000000002 721.3824575,66.90655000000001 712.1198575,64.42698000000001 702.9149575,61.99891000000002 693.7665575,59.62325000000001 684.6721575,57.300100000000015 675.6283575,55.02890000000002 666.6302575,52.80890000000002 657.6721575,50.63920000000002 648.7472574999999,48.51870000000001 639.8480575,46.446100000000015 630.9657575,44.42010000000002 622.0906574999999,42.43930000000002 613.2123574999999,40.50230000000002 604.3186575,38.60770000000001 595.3966575,36.75370000000002 586.4327575,34.93790000000001 577.4163575,33.15690000000002 568.3418575000001,31.408200000000022 559.2081575,29.690500000000014 550.0199575,28.00320000000002 540.7876574999999,26.3468 531.5277574999999,24.722500000000025 522.2627575,23.13240000000002 513.0210575000001,21.57910000000001 503.8354575000001,20.065500000000014 494.7421575,18.595 485.77605750000004,17.174500000000023 476.96265750000003,15.813600000000008 468.3158575,14.519600000000025 459.84045750000007,13.297200000000004 451.53375750000004,12.149500000000018 443.3879575,11.078100000000006 435.3911575,10.083799999999997 427.52865750000007,9.166699999999992 419.78395750000004,8.326900000000023 412.13885750000003,7.564400000000035 404.5741575,6.879199999999997 397.06905750000004,6.271800000000013 389.6022575,5.742000000000019 382.1547575,5.286599999999993 374.71165750000006,4.90270000000001 367.2618575,4.588400000000036 359.7979575,4.342000000000013 352.3159575,4.162500000000023 344.8158575,4.048800000000028 337.3010575,4.0 329.7790575000001,4.0149000000000115 322.26105750000005,4.092000000000013 314.7622575,4.229600000000005 307.3005575,4.425200000000018 299.89715750000005,4.675700000000006 292.5746575,4.978000000000009 285.35525750000005,5.332099999999997 278.2558575,5.739500000000021 271.28785750000003,6.201300000000032 264.4572575,6.718000000000018 257.7662575,7.290100000000024 251.21375749999999,7.9178 244.7961575,8.601300000000009 238.5082575,9.340699999999998 232.34335750000002,10.136600000000016 226.2939575,10.989300000000014 220.3520575,11.89960000000002 214.5093575,12.868500000000012 208.7569575,13.897200000000026 203.08625750000002,14.987200000000001 197.4880575,16.1404 191.95365750000002,17.357799999999997 186.47605750000002,18.636500000000012 181.0522575,19.972800000000007 175.6831575,21.362100000000027 170.37305750000002,22.799000000000007 165.1286575,24.277299999999997 159.9591575,25.789900000000017 154.8754575,27.329000000000036 149.8889575,28.886300000000006 145.01175750000002,30.45410000000001 140.25565749999998,32.02970000000002 135.6293575,33.61330000000001 131.13775750000002,35.205100000000016 126.78215750000001,36.805700000000016 122.56195749999999,38.416000000000025 118.4745575,40.03670000000001 114.5160575,41.66900000000001 110.6819575,43.31390000000002 106.9671575,44.972300000000004 103.3664575,46.64540000000002 99.87450749999999,48.33420000000001 96.4861075,50.03960000000002 93.1967575,51.761000000000024 90.0024575,53.49780000000001 86.8996075,55.249200000000016 83.8848875,57.01450000000001 80.9552875,58.79286000000002 78.1079975,60.58376000000001 75.3404175,62.38652000000002 72.6498675,64.20019000000002 70.0328075,66.02248000000002 67.4860275,67.85063000000001 65.00693749999999,69.68182000000002 62.5933375,71.51318000000002 60.243387500000004,73.34184000000002 57.9555075,75.16498000000001 55.728257500000005,76.97982000000002 53.560367500000005,78.78372000000002 51.4505875,80.57412000000002 49.3978575,82.34879000000002 47.4019075,84.10641000000001 45.4626075,85.84616000000003 43.579567499999996,87.56740000000002 41.7521975,89.26960000000003 39.97971750000001,90.95236000000001 38.2611575,92.61540000000002 36.5954775,94.25853000000001 34.9814875,95.88168000000002 33.4179475,97.48482000000001 31.9035575,99.06801000000002 30.4369575,100.63139000000001 29.0167875,102.17510000000001 27.6416675,103.69938000000002 26.3102375,105.20451000000003 25.0218575,106.69170000000003 23.7764275,108.16283000000001 22.573777500000002,109.61962000000003 21.4136075,111.06357000000003 20.2955575,112.49605000000003 19.2191675,113.91827000000002 18.1839275,115.33130000000001 17.1892475,116.73610000000002 16.2344975,118.13353000000001 15.3190075,119.52434000000002 14.4421375,120.90906000000001 13.603662499999999,122.28715000000001 12.8034565,123.65778000000002 12.0412415,125.02032000000001 11.3166435,126.37434000000002 10.629222500000001,127.71954000000002 9.9784895,129.05574000000001 9.3639325,130.38286000000002 8.7850295,131.70093000000003 8.2412605,133.01002000000003 7.7321155,134.31026000000003 7.2571075,135.60185 6.8157745,136.88499000000002 6.4076835,138.15996 6.0324375,139.42702000000003 5.6896775,140.68647 5.3790825,141.93865000000002 5.1003726,143.18387 4.8533132000000005,144.42248 4.6377127,145.65484 4.453426,146.88131 4.30035493,148.102268 4.17845007,149.31809400000003 4.0877121,150.529177 4.0281933,151.735913 4.0,152.93870800000002 4.0032941,154.137976 4.0382961,155.334143 4.1052878,156.527643 4.20461592,157.7189256 4.3366005,158.90829000000002 4.5011121,160.09516000000002 4.6979212,161.27865400000002 4.9268729,162.45787900000002 5.1878842,163.63193 5.4809415,164.799876 5.8060985,165.960766 6.1634775,167.113616 6.553264499999999,168.25741000000002 6.9757155,169.39108000000002 7.4311515,170.51353 7.9199645,171.6236 8.442614500000001,172.72007000000002 8.9996395,173.80166000000003 9.5916505,174.86700000000002 10.2193405,175.91465000000002 10.8834895,176.94308 11.5849685,177.95063000000002 12.3247455,178.93555 13.103895499999998,179.89595000000003 13.9236095,180.82979 14.7851975,181.73485000000002 15.690127500000001,182.60875000000001 16.6399875,183.44888000000003 17.636557500000002,184.25239000000002 18.681537499999997,185.01664000000002 19.7749175,185.74187 20.9159575,186.42960000000002 22.103807500000002,187.08136000000002 23.3374975,187.69873 24.615907500000002,188.28341 25.937697500000002,188.83717000000001 27.3012775,189.36195 28.7047075,189.85986000000003 30.1456675,190.33322 31.6216375,190.78443000000001 33.1324475,191.21431 34.6795175,191.62276000000003 36.2643475,192.0097 37.888527499999995,192.37510000000003 39.5537575,192.71898000000002 41.2618475,193.04143000000002 43.014697500000004,193.34263 44.8143575,193.62285000000003 46.6629875,193.88249000000002 48.5628975,194.12210000000002 50.5165075,194.34240000000003 52.5264275,194.54433 54.595367499999995,194.72907 56.7262275,194.89811000000003 58.9223875,195.05231000000003 61.1878375,195.19165 63.5269075,195.31617 65.9442975,195.42600000000002 68.4451075,195.52145000000002 71.03483750000001,195.60304000000002 73.7194375,195.67151 76.50530749999999,195.72796000000002 79.3993075,195.77388000000002 82.40876750000001,195.81121000000002 85.54162749999999,195.84092 88.80639749999999,195.86284 92.2119675,195.87682 95.7674275,195.8828 99.4818375,195.88087000000002 103.3638175,195.87131000000002 107.4210575,195.85467000000003 111.6597575,195.83055000000002 116.0845575,195.79695 120.6983575,195.75137 125.5029575,195.69093 130.4982575,195.6123 135.68385750000002,195.51168 141.0592575,195.38478000000003 146.6255575,195.22665 152.3877575,195.03162 158.3578575,194.79302 164.5563575,194.50678000000002 171.0086575,194.17331000000001 177.74195749999998,193.79402000000002 184.7843575,193.37149000000002 192.1624575,192.91008000000002 199.8988575,192.41675 208.00565749999998,191.90205000000003 216.4786575,191.3754 225.29835749999998,190.83898000000002 234.4337575,190.29436 243.8435575,189.74327000000002 253.47915749999999,189.18735 263.2893575,188.62799 273.2252575,188.06607000000002 283.24455750000004,187.50185000000002 293.31605750000006,186.93482 303.4212575,186.36365 313.5557575,185.78636 323.72375750000003,185.20155000000003 333.9285575,184.60834000000003 344.1710575,184.00599000000003 354.44965750000006,183.39389000000003 364.76015750000005,182.77157000000003 375.09535750000003,182.13875000000002 385.4453575,181.49534000000003 395.7972575,180.84145 406.13565750000004,180.17744000000002 416.44315750000004,179.50514 426.70415750000006,178.83014000000003 436.90825750000005,178.15832 447.0494575000001,177.49511 457.1265575,176.84544000000002 467.1421575,176.21379000000002 477.1026575000001,175.60427 487.0177575,175.02068000000003 496.90055750000005,174.46659000000002 506.7670575,173.94546000000003 516.6360575,173.45827000000003 526.5258574999999,173.00054000000003 536.4522575,172.56726 546.4287575,172.15357 556.4669575,171.75472000000002 566.5757575,171.36592000000002 576.7617574999999,170.98235000000003 587.0288575000001,170.59908000000001 597.3776574999999,170.21109 607.8053575,169.81325 618.3057574999999,169.40271 628.8699574999999,168.98065000000003 639.4872574999999,168.54882 650.1445575,168.10912000000002 660.8268575,167.66360200000003 671.5173575,167.214459 682.1972575,166.76397200000002 692.8466575,166.314488 703.4446575,165.868368 713.9697574999999,165.42822900000002 724.4038575,164.99807900000002 734.7342575,164.582004 744.9544575,164.1836 755.0631575,163.80600900000002 765.0633575,163.451985 774.9617575,163.123973 784.7682574999999,162.82418700000002 794.4957575,162.55469900000003 804.1592575,162.31752 813.7760575,162.11347300000003 823.3606575,161.93834400000003 832.9208575,161.786854 842.4572575000001,161.653971 851.9640575,161.53481900000003 861.4289574999999,161.42465600000003 870.8338575,161.31888700000002 880.1556575,161.21312500000002 889.3675575,161.103281 898.4407575,160.985668 907.3454575,160.85718100000003 916.0534575,160.71933900000002 924.5373575,160.579663 932.7721575,160.445197 940.7374575,160.321807 948.4178575,160.214119 955.8041575,160.125538 962.8928575,160.05725600000002 969.6869575,160.00750800000003 976.1948574999999,159.974262 982.4282575,159.955633 988.4012575,159.949914 994.1286574999999,159.95557900000003 999.6254575,159.97128 1004.2167575,159.99210000000002" stroke="black" stroke-width="2.0" /></svg>