<?xml version="1.0" encoding="utf-8" ?>
<svg baseProfile="full" height="167.81784" version="1.1" width="1012.187186" xmlns="http://www.w3.org/2000/svg" xmlns:ev="http://www.w3.org/2001/xml-events" xmlns:xlink="http://www.w3.org/1999/xlink"><defs /><polygon fill="none" points="1004.187186,123.5796 999.713486,122.434685 994.353386,121.07306 988.7652860000001,119.665286 982.936686,118.209666 976.855986,116.704982 970.514186,115.150747 963.9057859999999,113.54753 957.030986,111.89733 949.897086,110.20399 942.519786,108.47355 934.919986,106.71351 927.121886,104.93201 919.150386,103.13721 911.028786,101.33668 902.775886,99.53685 894.404586,97.74135 885.925386,95.94949 877.349086,94.1596 868.686586,92.36962 859.948586,90.5771 851.145386,88.77919 842.2867859999999,86.97265 833.381586,85.15384 824.437586,83.31877 815.461386,81.46305 806.458086,79.58189999999999 797.4315859999999,77.67071 788.383186,75.73049 779.313486,73.76589999999999 770.223686,71.78177 761.114586,69.78309 751.987786,67.77498 742.8446859999999,65.76266000000001 733.6873860000001,63.75148 724.517786,61.746860000000005 715.338386,59.7543 706.1515860000001,57.77937 696.960386,55.82737999999999 687.767986,53.900850000000005 678.577286,52.00045 669.389786,50.12657 660.2060859999999,48.27937 651.0255860000001,46.45877 641.846586,44.664500000000004 632.666186,42.89608 623.4806860000001,41.15289 614.284986,39.43412000000001 605.0728859999999,37.73881 595.837186,36.06582 586.5710859999999,34.413709999999995 577.271086,32.78145000000001 567.937286,31.168689999999998 558.574086,29.575779999999995 549.190286,28.003690000000006 539.798586,26.454009999999997 530.4161859999999,24.92886999999999 521.0638859999999,23.43090000000001 511.765886,21.96289999999999 502.548586,20.528000000000006 493.43928600000004,19.1306 484.45948599999997,17.77900000000001 475.621786,16.480499999999992 466.930386,15.240300000000005 458.38298599999996,14.062300000000008 449.972286,12.948799999999991 441.686886,11.901700000000005 433.512586,10.921999999999997 425.432786,10.0107 417.428586,9.168399999999991 409.479586,8.396100000000004 401.563086,7.694900000000004 393.654786,7.064799999999991 385.732686,6.501800000000003 377.77908599999995,6.002300000000005 369.78078600000003,5.563699999999997 361.729086,5.183499999999995 353.619686,4.859899999999996 345.45388599999995,4.591200000000001 337.238586,4.375500000000002 328.986786,4.2109999999999985 320.717886,4.095500000000001 312.457686,4.026199999999989 304.237286,4.0 296.091686,4.01400000000001 288.054586,4.071300000000008 280.151686,4.176500000000004 272.399586,4.3333999999999975 264.807386,4.544800000000009 257.37798599999996,4.813000000000002 250.109586,5.139499999999998 242.99688600000002,5.525800000000004 236.031786,5.972999999999999 229.204886,6.482399999999998 222.505186,7.055199999999999 215.921286,7.692800000000005 209.44108599999998,8.396900000000002 203.05228599999998,9.169600000000003 196.742386,10.012200000000007 190.501986,10.92110000000001 184.328686,11.891100000000009 178.226486,12.9161 172.204586,13.988900000000001 166.27668599999998,15.101500000000001 160.459186,16.245199999999997 154.769986,17.4105 149.22698599999998,18.588700000000003 143.847186,19.778000000000006 138.64218599999998,20.981399999999994 133.61738599999998,22.20129999999999 128.773386,23.439899999999994 124.107286,24.698710000000005 119.613786,25.979219999999998 115.286386,27.2825 111.11718599999999,28.609399999999994 107.098486,29.960610000000003 103.222236,31.33664999999999 99.480646,32.73741 95.866936,34.16054 92.37438599999999,35.6036 88.99626599999999,37.06474 85.72606599999999,38.54254 82.557546,40.036010000000005 79.484786,41.54445 76.502036,43.067220000000006 73.601006,44.600269999999995 70.773496,46.136269999999996 68.014216,47.66727 65.32012599999999,49.18512 62.689856,50.68164 60.123126,52.149029999999996 57.620356,53.580110000000005 55.18217599999999,54.968590000000006 52.809265999999994,56.30928 50.50522599999999,57.60189 48.277836,58.85404 46.131865999999995,60.07397 44.06928599999999,61.2693 42.090126,62.44697 40.193186,63.61327 38.37648599999999,64.7738 36.637626,65.93367 34.974036,67.09746 33.383106,68.26942 31.862306,69.45347 30.409256,70.65331 29.021746,71.87249 27.697546000000003,73.11422 26.431706000000002,74.37883 25.218296,75.66461000000001 24.052306,76.96956 22.929536000000002,78.29142999999999 21.846396000000002,79.6277 20.799826000000003,80.97565 19.787146,82.33232000000001 18.806046000000002,83.69458 17.854476,85.0592 16.930626,86.42287 16.032886,87.78228 15.161146,89.13441 14.317686000000002,90.47697 13.504526,91.80823 12.723156000000001,93.12692 11.974657,94.43216 11.259756,95.72339 10.578906,97.00032 9.93234,98.26288 9.320128,99.51116999999999 8.742217,100.74543 8.198469,101.96601 7.688687,103.17332999999999 7.212643,104.36788 6.7700949999999995,105.55020999999999 6.360802,106.72087 5.984538000000001,107.88048 5.641101,109.02965999999999 5.330325,110.16902 5.0520814000000005,111.29921 4.8062902,112.42088 4.5929234,113.53467 4.412011,114.641264 4.26364541,115.741308 4.14798728,116.83547899999999 4.0652705,117.92445599999999 4.0158084,119.008931 4.0,120.089608 4.0183381,121.16721 4.0714172,122.242479 4.15994433,123.3161854 4.28464148,124.3890571 4.4454291,125.461221 4.6418805,126.532454 4.8736828,127.602474 5.14063,128.670947 5.442615,129.73747500000002 5.779624,130.801599 6.151727,131.86279000000002 6.559077,132.920442 7.001902,133.97387 7.480501,135.02229 7.99524,136.06483 8.54655,137.10049 9.134917,138.12818 9.760881,139.14665 10.425031,140.15451000000002 11.127991,141.15019999999998 11.87042,142.132 12.652993,143.09798 13.476397,144.046 14.341306000000001,144.97368 15.248376,145.87841 16.198196000000003,146.75728 17.191296,147.60712 18.227846,148.42529 19.307386,149.21079 20.429356000000002,149.96287 21.593156,150.6808 22.798166,151.36391 24.043756000000002,152.01151 25.329326000000002,152.62296 26.654286,153.19758 28.018106,153.73472 29.420366,154.23367 30.860986,154.69394 32.341476,155.11631 33.863956,155.50207 35.430686,155.85263 37.044046,156.16956 38.706566,156.45463999999998 40.420896,156.70994000000002 42.189736,156.93788 44.015836,157.14137 45.901875999999994,157.32388 47.850366,157.48963 49.863465999999995,157.64375 51.942746,157.79245 54.088826,157.9433 56.301226,158.10441 58.580276,158.27736 60.927006,158.45972 63.342395999999994,158.64847 65.827486,158.83996 68.383596,159.02985999999999 71.012536,159.21314 73.716906,159.38397 76.500606,159.53565 79.369336,159.66051 82.33109599999999,159.75074999999998 85.39467599999999,159.80357 88.56937599999999,159.81784 91.86535599999999,159.79238 95.29344599999999,159.726 98.864896,159.61764 102.590936,159.46647000000002 106.481886,159.27211 110.547486,159.0332 114.797186,158.74702 119.24038599999999,158.41093 123.88498599999998,158.02274 128.737486,157.58086 133.801886,157.08463 139.078786,156.53464 144.56538600000002,155.93302 150.254086,155.28375 156.133286,154.59282 162.187086,153.86842000000001 168.396886,153.1209 174.743186,152.36223999999999 181.207186,151.60552 187.772986,150.86449 194.429786,150.15312 201.173186,149.48543999999998 208.00668599999997,148.87514 214.940786,148.32815 221.987386,147.84287 229.158186,147.41751 236.464986,147.05038 243.91968599999998,146.73979 251.53358599999999,146.48398 259.317286,146.28102 267.28058599999997,146.12871 275.43118599999997,146.02443 283.774086,145.96502 292.310486,145.94657 301.036586,145.96428 309.941686,146.01256 319.009486,146.08847 328.221886,146.19128 337.559386,146.31991 347.002686,146.47296 356.532786,146.64868 366.132186,146.84507 375.785286,147.05997 385.478986,147.29106 395.203286,147.53596 404.951286,147.79228 414.719286,148.05777 424.50498600000003,148.33049 434.30588600000004,148.60857 444.119486,148.8901 453.942886,149.17316 463.773086,149.45578 473.606786,149.73602 483.44048599999996,150.01191 493.270886,150.28148 503.093986,150.54278 512.906086,150.79390999999998 522.702986,151.03318000000002 532.4803860000001,151.25905 542.233486,151.46998 551.957086,151.66448 561.645786,151.84113 571.2938859999999,151.99856 580.895686,152.13549 590.445086,152.25071 599.935986,152.34313 609.3625860000001,152.41172 618.7191859999999,152.45478 628.002486,152.47 637.211986,152.45522 646.349286,152.40838 655.418286,152.32749 664.4247859999999,152.21061 673.3761860000001,152.05575 682.281586,151.86083 691.151386,151.62367 699.9977859999999,151.34185 708.834286,151.01277 717.6756859999999,150.636 726.535586,150.21338 735.425286,149.74675 744.354486,149.23789 753.330586,148.68862000000001 762.3591859999999,148.10088 771.443286,147.47675 780.583786,146.81859 789.7783860000001,146.12906 799.022286,145.41116 808.307086,144.66832 817.621686,143.9029 826.9519859999999,143.11583000000002 836.2819860000001,142.30825 845.594086,141.48157 854.868686,140.63752 864.085486,139.77811 873.223786,138.90555 882.262686,138.02224999999999 891.182486,137.13073 899.964486,136.23356 908.591786,135.33322 917.047886,134.43135 925.313586,133.529232 933.366986,132.628777 941.187086,131.732345 948.754886,130.84249499999999 956.055486,129.961769 963.079286,129.092844 969.823686,128.238442 976.292686,127.40047799999999 982.4943860000001,126.580132 988.440186,125.77801099999999 994.142886,124.994291 999.616186,124.2288398 1004.187186,123.5796" stroke="black" stroke-width="2.0" /></svg>