<?xml version="1.0" encoding="utf-8" ?>
<svg baseProfile="full" height="158.41484" version="1.1" width="1012.2631813" xmlns="http://www.w3.org/2000/svg" xmlns:ev="http://www.w3.org/2001/xml-events" xmlns:xlink="http://www.w3.org/1999/xlink"><defs /><polygon fill="none" points="1004.2631813,119.1298 1000.8724813000001,118.4062232 996.7697813000001,117.531032 992.4406813,116.60797600000001 987.8633813000001,115.632447 983.0149813,114.59965100000001 977.8728813,113.504875 972.4170813000001,112.343969 966.6338813000001,111.114112 960.5208813,109.81493900000001 954.0939813,108.44996 947.3934813000001,107.02798 940.4808813000001,105.56272 933.4264813000001,104.06998 926.2987813,102.56513000000001 919.1547813000001,101.06103 912.0336813000001,99.56674000000001 904.9543813,98.08691 897.9167813000001,96.62212000000001 890.9107813,95.17032 883.9263813,93.72932 876.9546813,92.29724 869.9880813000001,90.87247 863.0201813,89.45364000000001 856.0453813,88.03960000000001 849.0590813000001,86.62943 842.0576813,85.22239 835.0384813000001,83.81798 827.9996813,82.41585 820.9407813,81.01591 813.8619813,79.61825 806.7646813,78.22317000000001 799.6516813000001,76.8312 792.5260813,75.4431 785.3914813,74.05965 778.2506813000001,72.6816 771.1065813,71.30959 763.9613813000001,69.94421 756.8170813,68.58595 749.6753813,67.23526 742.5374813000001,65.89247 735.4043813000001,64.55787000000001 728.2765813000001,63.23167000000001 721.1542813000001,61.91400000000001 714.0372813,60.60495 706.9251813000001,59.304520000000004 699.8171813,58.01267000000001 692.7119813,56.72932 685.6088813000001,55.45443000000001 678.5067813000001,54.18798000000001 671.4050813,52.93000000000001 664.3033813,51.68052999999999 657.2011813,50.43966 650.0982813,49.20752 642.9948813000001,47.98423 635.8908813,46.76996000000001 628.7866813,45.56492 621.6827813,44.369330000000005 614.5797813,43.18343 607.4784813,42.00749999999999 600.3798813000001,40.841809999999995 593.2848813,39.68679 586.1944813000001,38.54293 579.1092813,37.41073 572.0297813000001,36.29062999999999 564.9561813,35.18302 557.8883813000001,34.088250000000016 550.8261813,33.00667 543.7691813000001,31.938540000000003 536.7166813000001,30.884140000000002 529.6676813000001,29.843680000000006 522.6210813000001,28.817369999999997 515.5756812999999,27.805390000000003 508.5299813,26.807900000000004 501.48198130000003,25.82504 494.4299813,24.85678 487.37238130000003,23.902780000000007 480.30788129999996,22.96271 473.2355813,22.03631 466.1553813,21.12338000000001 459.0670813,20.223780000000005 451.9714813,19.337410000000006 444.8693813,18.464200000000005 437.7622813,17.604299999999995 430.6519813,16.757500000000007 423.54098129999994,15.924200000000013 416.4320813,15.104299999999995 409.3283813,14.298000000000002 402.2336813,13.505499999999998 395.1517813,12.727499999999992 388.08648129999995,11.966800000000006 381.0413813,11.226100000000002 374.01968129999995,10.508499999999998 367.0243813,9.816500000000005 360.0580813,9.152900000000002 353.1234813,8.52000000000001 346.22268130000003,7.920199999999994 339.3575813,7.355699999999999 332.52998130000003,6.828499999999991 325.7413813,6.3404000000000025 318.9929813,5.893299999999996 312.28588129999997,5.488799999999998 305.6207813,5.128299999999996 298.9984813,4.8134000000000015 292.41998129999996,4.5460000000000065 285.8866813,4.3285999999999945 279.39958129999997,4.163700000000006 272.95938129999996,4.0534000000000106 266.5667813,4.0 260.2220813,4.0053999999999945 253.92528130000002,4.0715 247.6764813,4.200100000000006 241.47528130000003,4.392899999999997 235.32148130000002,4.6514000000000095 229.2143813,4.9773 223.1535813,5.372100000000003 217.1381813,5.83720000000001 211.16748130000002,6.3740999999999985 205.2405813,6.984300000000005 199.3563813,7.669000000000011 193.51428130000002,8.42880000000001 187.7130813,9.263400000000004 181.95108130000003,10.17280000000001 176.2257813,11.157300000000006 170.53418130000003,12.217200000000005 164.87258130000004,13.3536 159.2366813,14.567700000000002 153.6217813,15.861199999999997 148.0225813,17.236400000000003 142.43598130000004,18.695999999999998 136.86438130000002,20.241529999999997 131.31648130000002,21.872659999999996 125.8071813,23.586690000000004 120.3562813,25.378190000000004 114.9880813,27.238830000000007 109.72918130000001,29.15764 104.6066813,31.121470000000002 99.6456213,33.1165 94.86720129999999,35.13698000000001 90.2773213,37.18657 85.8671913,39.273640000000015 81.6192313,41.410309999999996 77.5109413,43.612260000000006 73.5157213,45.89586 69.6085313,48.26926 65.77564129999999,50.734579999999994 62.0140713,53.28815999999999 58.3301113,55.91969 54.737711299999994,58.61187 51.2563013,61.340770000000006 47.9088013,64.07588000000001 44.7130113,66.78811 41.6779713,69.45524 38.8057113,72.06156000000001 36.0933713,74.59681 33.5349413,77.05499 31.1226213,79.43319 28.8478013,81.73072 26.699311299999998,83.95069000000001 24.6624513,86.10006 22.738241300000002,88.16875 20.936211299999997,90.13696 19.2629513,91.98821000000001 17.7173113,93.7158 16.2911913,95.32246 14.9771413,96.81552 13.775702299999999,98.20339 12.6812013,99.49832 11.684605300000001,100.71297000000001 10.7765663,101.85867 9.9485163,102.94512 9.1930573,103.98037000000001 8.5039293,104.97109 7.875858299999999,105.92285 7.3044363,106.84035 6.7859823,107.72755000000001 6.3174353,108.58786 5.8962623,109.424187 5.5203813,110.239098 5.188105,111.034834 4.8980961,111.813389 4.6493288,112.576554 4.4410654,113.325951 4.272838264,114.063067 4.1444392,114.78928400000001 4.0559163,115.505896 4.0075773,116.214136 4.0,116.915194 4.0340512,117.610236 4.1109144,118.30042300000001 4.23212996,118.9869352 4.3993683,119.67095810000001 4.6126126,120.353448 4.8712487,121.035184 5.1749943,121.71687200000001 5.5238833,122.399151 5.9182563,123.082603 6.3587563,123.767752 6.8463332999999995,124.45506300000001 7.3822553,125.144934 7.9681233,125.83767900000001 8.6058943,126.533514 9.297903300000002,127.232517 10.0468913,127.934579 10.8560193,128.639331 11.7288763,129.34602999999998 12.6694473,130.05340999999999 13.6820043,130.75939 14.7708713,131.46077 15.939911299999999,132.15264 17.191611299999998,132.8276 18.5285913,133.47781 19.9593013,134.1008 21.4940413,134.69591 23.1440713,135.26405 24.9215013,135.80863 26.8393213,136.33706 28.9115613,136.86268 31.153971300000002,137.4056 33.5830313,137.97475 36.2137613,138.56856 39.0581513,139.18343 42.1232513,139.81349 45.410191299999994,140.45036 48.9158713,141.08372 52.6377313,141.70208 56.5832313,142.29418 60.7811613,142.85589 65.27310130000001,143.39082000000002 70.1034413,143.90475 75.3096213,144.40609 80.9012413,144.90673 86.83534130000001,145.41381 93.0274113,145.91723000000002 99.3855013,146.40506 105.8384813,146.86815 112.35288129999999,147.30149 118.9160813,147.70321 125.5189813,148.07205 132.1554813,148.40709 138.8227813,148.70768 145.5215813,148.97335 152.25648130000002,149.20374 159.0361813,149.39869 165.8718813,149.56062 172.77348130000001,149.6938 179.7476813,149.80261000000002 186.7979813,149.8916 193.9238813,149.96557 201.12048130000002,150.02963 208.3773813,150.08907 215.6800813,150.14623 223.0119813,150.20025 230.3397813,150.25005 237.66268130000003,150.29481 244.99058130000003,150.33378 252.32488130000002,150.36611 259.6415813,150.39091000000002 266.93388129999994,150.40739 274.1990813,150.41484 281.4367813,150.41255 288.6480813,150.39985000000001 295.8356813,150.37606 303.00428129999995,150.34049 310.1595813,150.29254 317.3083813,150.23264 324.4566813,150.16173 331.6096813,150.08069 338.7717813,149.99043 345.94668129999997,149.89182 353.1371813,149.78576 360.3454813,149.67314 367.5728813,149.5549 374.8197813,149.43199 382.0857813,149.30537 389.3695813,149.17608 396.6689813,149.04515 403.9806813,148.91367 411.3005813,148.78253 418.62428129999995,148.65147000000002 425.9476813,148.51983 433.2671813,148.38695 440.5798813,148.25215 447.8834813,148.11474 455.1761813,147.97405 462.4567813,147.82939 469.7245813,147.68008 476.97938129999994,147.52543 484.2216813,147.36474 491.45238129999996,147.19733 498.6727813,147.02248 505.88488129999996,146.83947 513.0910813,146.64781 520.2935813,146.4476 527.4945813,146.23904 534.6959813000001,146.02229 541.8992813,145.79756 549.1057813,145.56504 556.3164813,145.3249 563.5323813000001,145.07736 570.7537813,144.82262 577.9809813,144.56089 585.2140813000001,144.29239 592.4527813,144.01737 599.6963813,143.73607 606.9441813000001,143.44876 614.1951813000001,143.15561 621.4480813000001,142.85664 628.7021813,142.55185 635.9565813,142.24125 643.2104813000001,141.92483000000001 650.4634813,141.60259 657.7149813000001,141.27452 664.9647813,140.94060000000002 672.2125813000001,140.60082 679.4584813000001,140.25515000000001 686.7023813000001,139.90357 693.9445813000001,139.54603 701.1853813000001,139.18249 708.4251813,138.81291 715.6643813,138.43719000000002 722.9035813,138.05522 730.1428813000001,137.6669 737.3824813000001,137.27213 744.6222813,136.87082 751.8621813000001,136.46289000000002 759.1016813,136.04826 766.3405813,135.62687 773.5779813,135.19867 780.8133813000001,134.76361 788.0456813000001,134.32166 795.2739813000001,133.87281000000002 802.4969813,133.41704000000001 809.7134813,132.95442 816.9222813,132.48541 824.1226813,132.01066 831.3146813000001,131.53081 838.4987813,131.04644000000002 845.6758813,130.55809 852.8477813000001,130.06626 860.0164813000001,129.5714 867.1846813000001,129.073923 874.3556813000001,128.57419199999998 881.5333813000001,128.07253400000002 888.7219813,127.569233 895.9266813,127.064531 903.1531813,126.558629 910.4075813,126.051548 917.6889813,125.54263300000001 924.9785813,125.031985 932.2376813000001,124.52110400000001 939.4111813000001,124.012755 946.4330813,123.510653 953.2360813,123.018922 959.7616813000001,122.541518 965.9705813,122.081855 971.8470813000001,121.641918 977.3935812999999,121.222329 982.6239813000001,120.822789 987.5578813,120.442436 992.2180813,120.0801184 996.6272813,119.73456250000001 1000.8074813000001,119.4044842 1004.2631813,119.1298" stroke="black" stroke-width="2.0" /></svg>