<?xml version="1.0" encoding="utf-8" ?>
<svg baseProfile="full" height="96.380048" version="1.1" width="1012.1705372" xmlns="http://www.w3.org/2000/svg" xmlns:ev="http://www.w3.org/2001/xml-events" xmlns:xlink="http://www.w3.org/1999/xlink"><defs /><polygon fill="none" points="1004.1705372,81.19 1001.4450372,80.6505919 998.1433372,79.997265 994.6526372000001,79.306708 990.9509372,78.574592 987.0134372,77.796039 982.8127372,76.965657 978.3194372,76.077694 973.5042371999999,75.126417 968.3417372,74.106867 962.8170372,73.016188 956.9364372000001,71.85568599999999 950.7923372,70.64371 944.7681372000001,69.45682 938.8592372,68.29561 932.9912372000001,67.14689 927.1084372,66.00121999999999 921.1676372000001,64.85191999999999 915.1369371999999,63.69466 908.9960371999999,62.52772999999999 902.7981371999999,61.36344 896.6835372,60.229209999999995 890.6396372,59.122029999999995 884.6468372,58.037679999999995 878.6888372,56.97262 872.7514372,55.923919999999995 866.8225371999999,54.889089999999996 860.8915372,53.86605 854.9493372,52.85302 848.9882372000001,51.84854 843.0016372000001,50.851389999999995 836.9842372,49.860609999999994 830.9320372000001,48.87549 824.8425371999999,47.89554999999999 818.7143372,46.92057 812.5482372,45.95059 806.3465372000001,44.98592 800.1133371999999,44.02715 793.8544372,43.07525 787.5889371999999,42.1333 781.3346372000001,41.20406 775.0872372,40.28693 768.8426372,39.38134 762.5969372,38.48686 756.3472372,37.603139999999996 750.0908372,36.72993 743.8256372000001,35.86707 737.5500372,35.01448 731.2662372,34.17258999999999 724.9890372000001,33.343489999999996 718.7208372,32.527519999999996 712.4608372,31.724649999999997 706.2080372,30.93477 699.9608372,30.1577 693.7174372,29.392999999999994 687.4759372,28.640050000000002 681.2349372,27.89828 674.9930372,27.16717 668.7490372,26.446219999999997 662.5020372,25.734949999999998 656.2513372000001,25.032919999999997 649.9962372,24.339709999999997 643.7364372000001,23.654919999999997 637.4716371999999,22.978189999999998 631.2019372,22.30916 624.9275372,21.6475 618.6488372,20.992890000000003 612.3663372,20.345040000000004 606.0809372,19.70366 599.7936371999999,19.068559999999998 593.5053372000001,18.440249999999992 587.2171372,17.81964999999999 580.9298372,17.207669999999993 574.6440372,16.60521 568.3603372,16.013130000000004 562.0792372000001,15.432289999999995 555.8010372,14.86354 549.5261372000001,14.307699999999997 543.2544372,13.76558 536.9861371999999,13.237979999999993 530.7210372000001,12.725669999999994 524.4589372,12.229429999999994 518.1995372,11.750020000000006 511.9424372000001,11.28819 505.6870372,10.844679999999997 499.4326372,10.420150000000007 493.17883720000003,10.014309999999995 486.9249372,9.626469999999998 480.6704372,9.255909999999986 474.4148372,8.901949999999985 468.1575372,8.563900000000004 461.89803720000003,8.241070000000008 455.63593720000006,7.9328 449.3706372,7.638400000000004 443.10173720000006,7.357219999999998 436.8288372,7.088589999999996 430.55133720000003,6.831850000000003 424.2688372,6.586339999999993 417.9809372,6.351399999999998 411.6872372,6.126390000000001 405.3872372,5.910629999999998 399.0805372,5.703589999999991 392.7667372,5.5054799999999915 386.44543719999996,5.316869999999994 380.11693720000005,5.138350000000003 373.78163720000003,4.970529999999997 367.4460372,4.814149999999998 361.1145372,4.6698399999999936 354.78543720000005,4.5381 348.4568372,4.4194399999999945 342.1266372,4.314360000000008 335.7921372,4.223370000000003 329.4511372,4.147030000000001 323.1130372,4.0859999999999985 316.7859372,4.040849999999992 310.4731372,4.012050000000002 304.1784372,4.0 297.90563720000006,4.00560999999999 291.6588372,4.031800000000004 285.4409372,4.081879999999998 279.25383719999996,4.159079999999989 273.09843720000003,4.266469999999998 266.9746372,4.4071 260.8813372,4.583910000000003 254.8168372,4.799859999999995 248.77853720000002,5.057879999999997 242.7629372,5.361000000000004 236.7662372,5.712329999999994 230.7835372,6.115140000000011 224.8092372,6.572919999999996 218.8373372,7.089429999999993 212.8605372,7.668819999999997 206.87093720000001,8.31571000000001 200.8592372,9.03492 194.81533720000002,9.825189999999992 188.7311372,10.679149999999993 182.60253720000003,11.588430000000002 176.4305372,12.54347 170.22113720000002,13.533370000000005 163.9861372,14.54571 157.7432372,15.566680000000005 151.5160372,16.581819999999993 145.3331372,17.590830000000004 139.22073720000003,18.611159999999998 133.19643720000002,19.66113 127.2698372,20.758519999999997 121.44343719999999,21.920589999999997 115.7143372,23.16422 110.0752372,24.5064 104.5150372,25.964769999999994 99.0186472,27.55279 93.5586972,29.2611 88.0893972,31.080699999999993 82.5417072,33.01336 76.8110672,35.07589 71.0460872,37.21734 65.5462872,39.351949999999995 60.0507672,41.604479999999995 54.4020572,44.07495 49.5346172,46.352489999999996 45.4575672,48.38081 41.903427199999996,50.25143 38.6648072,52.05172999999999 35.5802772,53.865309999999994 32.4776272,55.80524 29.0213072,58.13487 25.068907199999998,61.04312 21.9681872,63.42753 18.2974472,66.23966 14.532937200000001,69.04167 12.382267200000001,70.65161 10.8223832,71.860559 9.5869492,72.861536 8.5671422,73.73137799999999 7.706599199999999,74.50937499999999 6.9720212,75.218674 6.342067200000001,75.87422699999999 5.8023342,76.486341 5.3427982,77.062476 4.9564006,77.608245 4.6382183,78.128002 4.38497,78.625221 4.19471714,79.102739 4.0667026,79.56292499999999 4.001291,80.007806 4.0,80.439154 4.0656289,80.8585667 4.20250126,81.26753123 4.4147046,81.6677329 4.7033821,82.0613311 5.0708165,82.450448 5.521312200000001,82.8372 6.0616532,83.223828 6.701931200000001,83.612863 7.4569952,84.007373 8.3490882,84.411361 9.4129902,84.830511 10.707171200000001,85.273755 12.342252199999999,85.757141 14.574607199999999,86.315947 18.2568172,87.05282199999999 23.4478472,87.751069 28.4754272,88.098169 33.2721972,88.27709899999999 37.491557199999995,88.36089 41.7074072,88.380048 46.2203172,88.33117299999999 51.3111872,88.190096 57.1785172,87.911062 63.4135172,87.477844 69.5515172,86.922146 75.7330772,86.243929 81.6664072,85.493293 87.4720172,84.686086 93.2791872,83.839342 99.1691172,82.974206 105.1821372,82.1198066 111.3143372,81.3038029 117.5391372,80.5292328 123.8245372,79.79406 130.1019372,79.098844 136.3677372,78.435761 142.6379372,77.795117 148.92323720000002,77.167906 155.2277372,76.545849 161.52133720000003,75.927234 167.7936372,75.316569 174.04563720000002,74.718356 180.2791372,74.136951 186.49613720000002,73.576593 192.6993372,73.041426 198.8919372,72.535526 205.07733720000002,72.06293 211.25963720000001,71.625993 217.44223720000002,71.222764 223.6285372,70.8507 229.8211372,70.50734 236.0224372,70.19028 242.2344372,69.89717999999999 248.45863720000003,69.62572 254.69623720000004,69.37359 260.9480372,69.13848999999999 267.2144372,68.91811 273.49513720000004,68.71014 279.78973720000005,68.51223999999999 286.09703720000005,68.32205 292.41573719999997,68.13719999999999 298.7437372,67.95531 305.0786372,67.77395999999999 311.4174372,67.59179 317.7573372,67.41014 324.09593720000004,67.23076 330.4311372,67.05542 336.7611372,66.88585 343.0843372,66.72373999999999 349.3997372,66.57079999999999 355.7065372,66.42866000000001 362.0042372,66.29898 368.2926372,66.18334999999999 374.5719372,66.08336 380.8426372,66.00058999999999 387.1055372,65.9366 393.3616372,65.89294 399.6123372,65.87117 405.8593372,65.87285 412.10433720000003,65.89846 418.3494372,65.94644 424.5960372,66.01507 430.8457372,66.10263 437.0996372,66.2074 443.3589372,66.32768 449.62443720000005,66.46176 455.8967372,66.60791 462.1764372,66.76442 468.46363720000005,66.92953 474.75853720000003,67.10148 481.0609372,67.27849 487.37053720000006,67.45877 493.6866372,67.64049 500.00853720000003,67.82181 506.33513719999996,68.00091 512.6653372000001,68.17695 518.9979372,68.35069 525.3318372000001,68.52299 531.6659371999999,68.69472999999999 537.9993372,68.86679 544.3313372,69.04006 550.6612372,69.21543 556.9884372,69.39377999999999 563.3125372000001,69.576 569.6329372,69.76295999999999 575.9496372,69.95557 582.2623372,70.15469 588.5709372,70.36122 594.8756372,70.57603999999999 601.1764372,70.80004 607.4736372,71.03405 613.7676372,71.277976 620.0587372,71.530838 626.3476372,71.79163 632.6346371999999,72.059349 638.9203372000001,72.332999 645.2052371999999,72.611589 651.4900372000001,72.89412899999999 657.7754372,73.17963499999999 664.0619372,73.467124 670.3503372,73.755613 676.6413372000001,74.044121 682.9358372,74.331667 689.2344372,74.617265 695.5382372,74.899928 701.8480371999999,75.178664 708.1647372,75.452519 714.4893372,75.72112299999999 720.8220372,75.984505 727.1562372,76.242406 733.4826372,76.494501 739.8015372000001,76.74086199999999 746.1138372,76.98158 752.4206372,77.216752 758.7234372,77.446485 765.0240372,77.670892 771.3246372,77.890091 777.6276372,78.104204 783.9358372,78.313355 790.2524372,78.517673 796.5810372000001,78.717283 802.9132372,78.911948 809.2261372,79.101153 815.5152372,79.28598099999999 821.7780372000001,79.467995 828.0132372,79.64876699999999 834.2210372000001,79.829857 840.4026372000001,80.012824 846.5601372,80.1992198 852.6969372,80.39059929999999 858.8172372,80.58853189999999 864.9262372000001,80.7946157 871.0302372,81.0104961 877.1362372,81.23789013 883.2525372,81.4786153 889.3887371999999,81.7346263 895.5556372000001,82.0080608 901.7657372000001,82.301298 908.0334372000001,82.616377 914.3529371999999,82.945289 920.6255372,83.268053 926.8498372,83.569934 933.0587372000001,83.838244 939.2992372,84.06025 945.5986372,84.220928 951.7583372,84.301911 957.6765372,84.295946 963.3051372,84.208891 968.6219371999999,84.05363 973.6257372,83.842674 978.3285372,83.587069 982.7497372,83.296083 986.9115372,82.977259 990.8369372000001,82.63663199999999 994.5476372,82.278986 998.0638372,81.9081037 1001.4038372,81.52697479999999 1004.1705372,81.19" stroke="black" stroke-width="2.0" /></svg>