<?xml version="1.0" encoding="utf-8" ?>
<svg baseProfile="full" height="178.68986" version="1.1" width="1012.03089507" xmlns="http://www.w3.org/2000/svg" xmlns:ev="http://www.w3.org/2001/xml-events" xmlns:xlink="http://www.w3.org/1999/xlink"><defs /><polygon fill="none" points="1004.03089507,124.18979999999999 999.9337950700001,122.40726 995.12459507,120.34979999999999 990.22339507,118.29141999999999 985.22689507,116.23272 980.1315950700001,114.17438999999999 974.93399507,112.11717999999999 969.63049507,110.0619 964.2172950700001,108.00948 958.69029507,105.96094 953.0454950700001,103.91739 947.27869507,101.88009 941.38549507,99.85040999999998 935.3612950700001,97.82987 929.20169507,95.82014 922.90179507,93.82306 916.45709507,91.84067999999999 909.8625950700001,89.87523999999999 903.1135950700001,87.92916999999998 896.20579507,86.00403999999999 889.13599507,84.09831 881.90209507,82.20972999999998 874.50299507,80.33569999999999 866.9383950700001,78.47332 859.2096950700001,76.61934 851.31999507,74.77015999999999 843.2743950700001,72.92182 835.0802950700001,71.07003 826.74779507,69.21017999999998 818.28969507,67.33742 809.7220950700001,65.44673999999999 801.0637950700001,63.53313999999999 792.33499507,61.596119999999985 783.55439507,59.641999999999996 774.7397950700001,57.677679999999995 765.9078950700001,55.709869999999995 757.0736950700001,53.74495999999999 748.25029507,51.78891999999999 739.44859507,49.847149999999985 730.67759507,47.92451 721.94359507,46.02523999999998 713.25129507,44.15299 704.60299507,42.31085999999999 695.9992950700001,40.50138 687.4400950700001,38.726449999999986 678.92449507,36.98770999999999 670.45139507,35.286619999999985 662.01909507,33.62451999999999 653.62549507,32.00259999999999 645.26789507,30.421899999999994 636.9436950700001,28.883399999999995 628.64939507,27.388199999999998 620.38149507,25.936899999999994 612.13609507,24.530599999999993 603.9089950700001,23.169999999999987 595.69569507,21.855499999999992 587.49239507,20.586799999999997 579.29579507,19.363199999999992 571.1034950700001,18.18419999999999 562.91359507,17.049599999999998 554.7250950700001,15.959199999999981 546.5375950700001,14.912899999999993 538.35119507,13.910799999999995 530.1668950700001,12.952999999999989 521.98609507,12.039699999999996 513.81109507,11.171099999999996 505.64469507,10.347399999999993 497.49009507,9.568899999999985 489.35099506999995,8.836799999999982 481.23079507,8.152299999999997 473.13219506999997,7.516699999999986 465.05769507,6.9310999999999865 457.00959507,6.396399999999986 448.98939506999994,5.913499999999985 440.99859507,5.483199999999982 433.03809506999994,5.106400000000008 425.10879507,4.783500000000004 417.21089507,4.5154 409.34449507,4.302399999999977 401.50949507,4.145299999999992 393.70559506999996,4.044399999999996 385.93259507,4.0 378.19009507,4.012399999999985 370.47779507,4.08189999999999 362.79499506999997,4.208799999999968 355.14109506999995,4.3933999999999855 347.51549507,4.636099999999999 339.91719507,4.93719999999999 332.34539507,5.297099999999986 324.79909506999996,5.716300000000004 317.27719506999995,6.1950999999999965 309.77859507,6.734199999999987 302.30209507,7.3341000000000065 294.84649507,7.995099999999994 287.41119506999996,8.716999999999999 279.99649507,9.499499999999983 272.60379507,10.342199999999991 265.23549507,11.244499999999988 257.89449507000006,12.205799999999996 250.58479507,13.224899999999991 243.31119507000002,14.300699999999992 236.07899507000002,15.431799999999996 228.89429507,16.616499999999988 221.76339507,17.852599999999995 214.69329507,19.13799999999999 207.69089507,20.470099999999988 200.76339507000003,21.846099999999993 193.91879507000002,23.265399999999985 187.16659507000003,24.728799999999993 180.51649507000002,26.2367 173.97799507,27.788799999999995 167.56079507,29.384199999999993 161.27339507000002,31.021199999999993 155.12369507000002,32.69799999999998 149.11859507,34.411979999999986 143.26359507,36.160369999999986 137.56289507000002,37.940139999999985 132.01939507,39.74811 126.63479507,41.581059999999994 121.40939507,43.435739999999996 116.34259507,45.30903999999998 111.43279507,47.19793999999999 106.67739507,49.09958 102.07330506999999,51.011269999999996 97.61790506999999,52.928659999999994 93.31020507,54.84536999999999 89.14983507000001,56.755059999999986 85.13646507,58.651729999999986 81.26946507000001,60.529849999999996 77.54765507,62.384519999999995 73.96919507,64.21145 70.53153507,66.00704999999999 67.23146507,67.76844 64.06517507000001,69.49337 61.02837507,71.18018999999998 58.11638507,72.82781999999999 55.32424507,74.43565999999998 52.64677507,76.0037 50.07821507,77.53636 47.613355070000004,79.04055 45.24828507,80.52132999999999 42.97974507,81.98221999999998 40.804745069999996,83.42560999999999 38.720265069999996,84.85302999999999 36.72316507,86.26542999999998 34.81008507,87.66333 32.97747507,89.04701999999999 31.221625069999998,90.41659999999999 29.53875507,91.77212 27.925345070000002,93.11340999999999 26.38092507,94.43869 24.90572507,95.74598999999999 23.49883507,97.03426999999999 22.15859507,98.30315999999999 20.882875069999997,99.55273 19.66937507,100.78336999999999 18.51569507,101.99566999999999 17.41943507,103.19032999999999 16.37830507,104.36814 15.39008507,105.52993 14.45272507,106.67652999999999 13.564294069999999,107.80877999999998 12.72299307,108.92748999999999 11.92717907,110.03345999999999 11.17533807,111.12745999999999 10.46608807,112.21023 9.79817007,113.28249 9.170441069999999,114.34491 8.581868069999999,115.39817 8.03152407,116.44288999999999 7.51857907,117.47968999999999 7.04229807,118.50914999999999 6.60203207,119.53183999999999 6.19721907,120.54831999999999 5.82737607,121.55912 5.492100069999999,122.56477 5.19106307,123.565766 4.92401027,124.56262199999999 4.69075957,125.55582999999999 4.49120127,126.54587799999999 4.32529687,127.53325299999999 4.19308007,128.518439 4.09465768,129.50192399999997 4.0302114047,130.484198 4.0,131.465757 4.00436255,132.44710659999998 4.04371904,133.4287616 4.11814179,134.411051 4.22693627,135.393906 4.36940327,136.3772 4.54493287,137.36078999999998 4.75299727,138.344516 4.9931443699999996,139.32819999999998 5.26499307,140.311647 5.56823007,141.294639 5.90260307,142.27694 6.26792107,143.25829 6.66405107,144.23838999999998 7.09091407,145.21694 7.54848607,146.19357 8.03679607,147.16791999999998 8.555926069999998,148.13956 9.10600707,149.10802999999999 9.68722407,150.07281 10.299813069999999,151.03334999999998 10.944063069999999,151.98902999999999 11.620313069999998,152.93916 12.32896107,153.88297999999998 13.07045507,154.81967 13.84530507,155.74828 14.65407507,156.66778 15.49739507,157.57703999999998 16.37594507,158.47475 17.29048507,159.3595 18.24184507,160.22967 19.23089507,161.08346 20.258605069999998,161.91886 21.326005069999997,162.73358 22.43421507,163.52504 23.58438507,164.29031999999998 24.77778507,165.02608999999998 26.01572507,165.7286 27.299585070000003,166.39352 28.630785069999998,167.01591 30.010845070000002,167.59049 31.44207507,168.11497 32.92738507,168.58911 34.46998507,169.01281 36.07340507,169.38611 37.741485069999996,169.70927 39.47845507,169.98282999999998 41.28890507,170.20774999999998 43.17787507,170.38554 45.15079507,170.51844 47.21347507,170.60969999999998 49.37204507,170.66395 51.632805069999996,170.68768 54.001915069999995,170.68986 56.48578507,170.68016 59.09370507,170.66001 61.83654507,170.62828 64.72601506999999,170.58373999999998 67.77459507,170.52508 70.99530507,170.45091 74.40146506999999,170.35983 78.00621507,170.2505 81.82199507,170.12171999999998 85.85995507,169.97258 90.12943507,169.80262 94.63785507,169.61196999999999 99.39129507,169.40151 104.39629507,169.17295 109.66219507,168.92775999999998 115.19709507,168.66447 121.00469507,168.38079 127.08239506999999,168.07432999999997 133.42069507000002,167.74264 140.00189507000002,167.38333 146.80079507000002,166.99408 153.78619507000002,166.57281 160.92309507000002,166.11762 168.17619507,165.62673999999998 175.51309507000002,165.09847 182.90739507,164.53097 190.34099507000002,163.92202 197.80539507,163.26879 205.30289507000003,162.5675 212.84639507,161.81479 220.45379507,161.01058999999998 228.14249507,160.15528 235.92859507000003,159.2492 243.82739507000002,158.2928 251.85259507,157.28673999999998 260.01649506999996,156.23203999999998 268.32859507,155.13033 276.79549507,153.98399 285.41919506999994,152.79649 294.19609507,151.57264999999998 303.11529506999995,150.31886 312.15749507,149.04278 321.29719507,147.75034 330.50779507,146.44681 339.76309506999996,145.13746 349.03819507000003,143.82738 358.31059507,142.52137199999999 367.56059507,141.223797 376.77169506999996,139.938494 385.93079507,138.66875199999998 395.02779506999997,137.417306 404.05629507,136.186354 413.01239506999997,134.977947 421.89469507,133.7950569 430.70379507,132.6405709 439.44179506999996,131.517002 448.11259507,130.42654299999998 456.72089507,129.37112199999999 465.27279507,128.352455 473.77539507,127.37210099999999 482.23689507,126.431513 490.66609507,125.532084 499.07299507,124.67520099999999 507.46859507,123.86223799999999 515.86429507,123.09277999999999 524.27009507,122.36426999999999 532.69479507,121.67433999999999 541.14549507,121.02085 549.62819507,120.40189 558.14709507,119.81571 566.7050950700001,119.26069999999999 575.3032950700001,118.73532999999999 583.9412950700001,118.23814999999999 592.61659507,117.76777999999999 601.3249950700001,117.32282 610.05999507,116.90205999999999 618.81409507,116.50599 627.57939507,116.13606999999999 636.34819507,115.79366999999999 645.11259507,115.48008999999999 653.86499507,115.19649999999999 662.59819507,114.94395999999999 671.30489507,114.72340999999999 679.9782950700001,114.53566 688.6119950700001,114.38138999999998 697.19989507,114.26115999999999 705.7363950700001,114.1754 714.21629507,114.12472 722.63629507,114.11022 730.99529507,114.13298999999999 739.29479507,114.19404999999999 747.53799507,114.29441999999999 755.73039507,114.43515 763.87879507,114.61739999999999 771.99189507,114.84244999999999 780.07989507,115.11182 788.15459507,115.42729 796.22949507,115.79099 804.31989507,116.20549 812.44349507,116.67275999999998 820.61689507,117.19102 828.8527950700001,117.75753999999999 837.15909507,118.36926 845.53809507,119.02257999999999 853.98609507,119.71320999999999 862.4922950700001,120.43590999999999 871.0383950700001,121.18445999999999 879.5983950700002,121.95155 888.13899507,122.72896999999999 896.6207950700001,123.507837 905.00099507,124.27899799999999 913.23609507,125.03467799999999 921.28769507,125.77094199999999 929.12609507,126.485271 936.73069507,127.175985 944.08889507,127.842158 951.1950950700001,128.483494 958.04899507,129.100192 964.65479507,129.692816 971.0194950700001,130.262184 977.15199507,130.809278 983.0624950700001,131.335173 988.76189507,131.840985 994.2611950700001,132.3278297 999.57129507,132.79680299999998 1004.03089507,133.1898" stroke="black" stroke-width="2.0" /></svg>