<?xml version="1.0" encoding="utf-8" ?>
<svg baseProfile="full" height="136.29536" version="1.1" width="1011.996627008" xmlns="http://www.w3.org/2000/svg" xmlns:ev="http://www.w3.org/2001/xml-events" xmlns:xlink="http://www.w3.org/1999/xlink"><defs /><polygon fill="none" points="1003.996627008,109.993 1001.004427008,108.646312 997.300227008,106.983639 993.335627008,105.239386 989.1009270080001,103.43688999999999 984.590327008,101.57686999999999 979.821927008,99.66611999999999 974.8301270080001,97.72273999999999 969.647327008,95.76432 964.2932270079999,93.80148999999999 958.7830270080001,91.8406 953.134327008,89.88759999999999 947.366727008,87.94847999999999 941.498327008,86.02905 935.543727008,84.1334 929.513027008,82.26348999999999 923.4126270080001,80.42009999999999 917.2487270080001,78.60363999999998 911.027527008,76.81432999999998 904.755127008,75.05230999999999 898.437127008,73.31805 892.078227008,71.61173 885.682327008,69.93318 879.252327008,68.28195 872.790527008,66.65768 866.298727008,65.05994999999999 859.778927008,63.488249999999994 853.2327270080001,61.94196999999999 846.6613270080001,60.42055999999999 840.0661270080001,58.92346999999999 833.448427008,57.450129999999994 826.809127008,55.99991999999999 820.149427008,54.57222999999999 813.470327008,53.16659999999999 806.773327008,51.78262999999999 800.059627008,50.419969999999985 793.331227008,49.078259999999986 786.589927008,47.757279999999994 779.837427008,46.45711999999999 773.074827008,45.177779999999984 766.3032270079999,43.919189999999986 759.522727008,42.68119999999999 752.733627008,41.46355 745.935527008,40.26593 739.1286270080001,39.08806999999999 732.313127008,37.92967999999999 725.489127008,36.79052999999999 718.657227008,35.67040999999999 711.817927008,34.56918999999999 704.971827008,33.48679 698.119427008,32.423109999999994 691.261627008,31.378069999999994 684.398927008,30.35158 677.532127008,29.343649999999982 670.6618270079999,28.35436999999999 663.7884270080001,27.383799999999994 656.912127008,26.43199 650.033327008,25.498969999999986 643.151727008,24.584739999999996 636.267427008,23.68925999999999 629.3804270080001,22.812510000000003 622.490627008,21.954489999999993 615.5983270080001,21.11519 608.703527008,20.294589999999985 601.806427008,19.492739999999984 594.907327008,18.709649999999982 588.0064270080001,17.945379999999986 581.1040270080001,17.19995999999999 574.200127008,16.47341999999999 567.295127008,15.76581999999999 560.389227008,15.077239999999989 553.482627008,14.407769999999985 546.5756270080001,13.757499999999993 539.668527008,13.126599999999996 532.761527008,12.51509999999999 525.854927008,11.92319999999998 518.949027008,11.350999999999985 512.0440270080001,10.798599999999993 505.140127008,10.266300000000001 498.237327008,9.754199999999997 491.33572700800005,9.262299999999996 484.435527008,8.790999999999997 477.536727008,8.340299999999985 470.6395270080001,7.9103999999999814 463.744027008,7.501499999999993 456.850727008,7.113599999999991 449.95982700800005,6.747100000000003 443.071627008,6.402100000000004 436.186627008,6.07889999999999 429.305127008,5.777699999999982 422.427827008,5.498899999999992 415.555027008,5.242499999999993 408.68742700800004,5.008999999999986 401.825427008,4.798699999999997 394.96962700800003,4.612099999999998 388.12062700800004,4.449399999999997 381.27872700800003,4.311099999999982 374.444627008,4.197499999999991 367.61882700800004,4.109099999999998 360.80182700800003,4.046399999999991 353.99442700800006,4.009899999999988 347.197227008,4.0 340.411027008,4.017199999999988 333.63652700800003,4.062099999999987 326.87472700800004,4.135299999999987 320.12652700800004,4.237499999999997 313.392927008,4.369199999999992 306.67512700800006,4.530999999999992 299.974227008,4.723699999999994 293.29162700800003,4.947999999999993 286.628727008,5.204799999999992 279.98692700800007,5.49499999999999 273.367927008,5.819099999999992 266.77332700799997,6.178100000000001 260.204827008,6.573099999999982 253.66422700799998,7.005099999999985 247.15312700799998,7.475099999999983 240.67332700799997,7.984099999999998 234.226427008,8.532999999999987 227.814327008,9.12299999999999 221.43922700800002,9.755299999999991 215.103527008,10.430999999999983 208.80952700799998,11.15079999999999 202.559927008,11.915899999999993 196.357827008,12.727499999999992 190.206327008,13.586799999999982 184.10842700799998,14.49491999999998 178.06722700799997,15.452699999999993 172.086027008,16.46105999999999 166.168327008,17.521329999999992 160.317327008,18.634689999999992 154.536227008,19.802109999999985 148.828027008,21.024289999999993 143.19572700799998,22.30203999999999 137.64272700799998,23.63642 132.172327008,25.02821999999999 126.78792700800001,26.477889999999988 121.492427008,27.985569999999996 116.28922700800001,29.551599999999993 111.181627008,31.176619999999986 106.172427008,32.86104 101.263567008,34.60507 96.456787008,36.408699999999996 91.753747008,38.27177999999999 87.155897008,40.19406999999998 82.663987008,42.17532999999999 78.278167008,44.21534 73.99826700800001,46.31354999999999 69.824997008,48.46733999999999 65.761247008,50.67228999999998 61.811537007999995,52.92265999999999 57.981347008,55.21155999999999 54.276887007999996,57.53090999999999 50.706557008,59.87032999999999 47.280427008,62.217099999999995 44.008307007999996,64.55721 40.898117008,66.87662999999999 37.955457007999996,69.16242 35.183687008,71.40303999999999 32.583097007999996,73.58863 30.150697008,75.71154999999999 27.880627008,77.76665 25.765927008,79.75104999999999 23.801497008,81.66232 21.982457008,83.49758 20.302687008000003,85.25474999999999 18.754577008000002,86.93324999999999 17.329307008,88.53406 16.017777008,90.05990999999999 14.811577008,91.51606999999998 13.701731008000001,92.90896 12.679243008000002,94.24504999999999 11.735706008000001,95.53041999999999 10.863512008,96.77059999999999 10.055904007999999,97.97048 9.306946008,99.13439999999999 8.612629007999999,100.26604999999999 7.971925008,101.36788999999999 7.384270008,102.44104999999999 6.848949008,103.48589999999999 6.364920008,104.502398 5.930743008,105.490383 5.544583008,106.449726 5.204264008,107.38043699999999 4.907364508,108.282714 4.652462608,109.156881 4.439755308,110.00432299999999 4.268915108,110.82806899999999 4.139446608,111.63207299999999 4.051119498,112.420774 4.004260962,113.19894869999999 4.0,113.97171295 4.040301318,114.74277029999999 4.127973608,115.51247199999999 4.266962008,116.27985799999999 4.462315208,117.04278799999999 4.720109508,117.79774799999998 5.047282008,118.53958399999999 5.448637008,119.26302399999999 5.922937008,119.96563699999999 6.467763008,120.64531299999999 7.080292008000001,121.29976599999999 7.7572670079999995,121.92649599999999 8.494947008,122.522731 9.289043008,123.08534999999999 10.135274008,123.61118199999999 11.034074008,124.09991 11.988537008,124.55281 13.002039008000002,124.97138 14.078147008,125.35746999999999 15.220467008000002,125.71350999999999 16.432287008,126.04274 17.716097008,126.34962999999999 19.074917008,126.63752 20.515127008,126.90540999999999 22.044237008,127.15186 23.670607008,127.37565 25.403707007999998,127.57596 27.254487008,127.75264999999999 29.235977008000003,127.90656999999999 31.364707008,128.03764 33.660997007999995,128.14373999999998 36.148777007999996,128.22281999999998 38.856177008,128.27342 41.815267008,128.29536 45.060017007999996,128.28984 48.623577008,128.25486999999998 52.536037007999994,128.18786 56.822147007999995,128.08828 61.500427007999996,127.95886999999999 66.581777008,127.80272 72.056977008,127.62351999999998 77.891867008,127.42881999999999 84.03496700800001,127.2284 90.425327008,127.02766999999999 97.00022700800001,126.83053 103.710967008,126.64030999999999 110.528727008,126.45855999999999 117.43082700800001,126.28563999999999 124.39782700800001,126.12159999999999 131.413827008,125.96628 138.46692700799997,125.81944999999999 145.547727008,125.68074999999999 152.650127008,125.54972 159.770727008,125.42580999999998 166.90732700799998,125.30847999999999 174.05782700799998,125.19716 181.220227008,125.09127999999998 188.392827008,124.99032 195.574027008,124.89392 202.762827008,124.80170999999999 209.958227008,124.71332 217.160027008,124.62837999999999 224.36772700799997,124.54655999999999 231.58092700799997,124.46754999999999 238.799327008,124.39103999999999 246.02202700799998,124.3167 253.248627008,124.24432999999999 260.478527008,124.17374999999998 267.71132700800007,124.10479 274.947027008,124.03729999999999 282.18562700800004,123.97109999999999 289.427127008,123.90601999999998 296.67132700800005,123.84186899999999 303.918327008,123.778477 311.16742700800006,123.715666 318.418427008,123.65329399999999 325.67062700800005,123.591309 332.923927008,123.52967 340.177827008,123.46833799999999 347.432327008,123.40727 354.68742700800004,123.346419 361.943027008,123.28572199999999 369.199127008,123.225117 376.455727008,123.16454099999999 383.712527008,123.10393099999999 390.969527008,123.04323699999999 398.22652700800006,122.982435 405.483427008,122.92150899999999 412.74002700799997,122.860441 419.996327008,122.79921399999999 427.252127008,122.73780799999999 434.507527008,122.6762 441.762627008,122.614363 449.017327008,122.55227 456.27192700800003,122.48989399999999 463.526727008,122.427212 470.781727008,122.36423799999999 478.037327008,122.301013 485.29332700800006,122.23757599999999 492.549827008,122.173969 499.80652700800005,122.110233 507.063127008,122.04638 514.319427008,121.98237999999999 521.575427008,121.91820299999999 528.8310270080001,121.853816 536.0865270080001,121.78918499999999 543.342127008,121.72429799999999 550.5982270080001,121.659189 557.854827008,121.59390499999999 565.112027008,121.52849199999999 572.369927008,121.46299799999998 579.6282270080001,121.397466 586.8868270080001,121.33191099999999 594.145627008,121.266337 601.404327008,121.20074699999999 608.6631270080001,121.13514299999999 615.9218270079999,121.06952799999999 623.180527008,121.00390499999999 630.4393270080001,120.93827699999999 637.6980270079999,120.87264699999999 644.956727008,120.80702 652.2155270080001,120.74139899999999 659.4741270080001,120.67579199999999 666.732627008,120.61020699999999 673.9910270080001,120.54465699999999 681.249227008,120.47915199999998 688.507227008,120.41370099999999 695.765127008,120.34831799999999 703.022727008,120.283013 710.280227008,120.217801 717.5375270080001,120.152695 724.794627008,120.08770799999999 732.051527008,120.02285099999999 739.308327008,119.958131 746.5649270079999,119.893554 753.8215270080001,119.829124 761.078027008,119.76484699999999 768.334527008,119.70072599999999 775.591127008,119.63676 782.847727008,119.572947 790.104127008,119.50928699999999 797.3602270079999,119.445781 804.6156270079999,119.382453 811.870327008,119.319358 819.124327008,119.25655099999999 826.377827008,119.19408399999999 833.631327008,119.13199399999999 840.885127008,119.070235 848.139227008,119.00873899999999 855.393127008,118.947437 862.646127008,118.88627699999999 869.8972270080001,118.825313 877.145527008,118.764664 884.3904270080001,118.704449 891.631527008,118.64476499999999 898.8677270080001,118.585574 906.096627008,118.52678399999999 913.314227008,118.46831499999999 920.5144270080001,118.41016699999999 927.688327008,118.352499 934.823527008,118.29551299999999 941.904227008,118.23939899999999 948.906427008,118.184294 955.796027008,118.13038399999999 962.530027008,118.077884 969.053227008,118.027025 975.303327008,117.97813199999999 981.218127008,117.93172499999999 986.739927008,117.888352 991.831227008,117.848052 996.476627008,117.810497 1000.683827008,117.775978 1003.996627008,117.749" stroke="black" stroke-width="2.0" /></svg>