<?xml version="1.0" encoding="utf-8" ?>
<svg baseProfile="full" height="72.28032999999999" version="1.1" width="1011.9996776007" xmlns="http://www.w3.org/2000/svg" xmlns:ev="http://www.w3.org/2001/xml-events" xmlns:xlink="http://www.w3.org/1999/xlink"><defs /><polygon fill="none" points="1003.9996776007,41.80211 1001.2305776007,41.5750424 997.8783776007,41.301021 994.3374776007,41.012597 990.5864776007,40.708195 986.6010776007,40.386064 982.3547776007,40.044302 977.8192776007,39.680922 972.9662776007,39.294011 967.7712776006999,38.882012 962.2195776007001,38.444211 956.3154776007001,37.981444 950.0945776007,37.496994 943.7671776006999,37.007485 937.5703776007,36.531158 931.4322776007001,36.062236 925.2929776006999,35.596006 919.1081776007,35.129047 912.8472776007,34.659014 906.4940776007,34.184708 900.1309776007,33.712231 893.8403776007001,33.247653 887.6049776007001,32.789629 881.4087776007001,32.33696 875.2382776007,31.88865 869.0817776007,31.44384 862.9291776007,31.00181 856.7717776007,30.561970000000002 850.6021776007001,30.12381 844.4140776007,29.68694 838.2025776007,29.251060000000003 831.9637776007,28.81594 825.6952776007,28.38149 819.3956776007,27.947670000000002 813.0654776007,27.51459 806.7065776007,27.08242 800.3223776007001,26.65148 793.9190776007,26.22221 787.5210776007001,25.796260000000004 781.1340776007,25.373980000000003 774.7541776007,24.955080000000002 768.3777776006999,24.53933 762.0020776007,24.12652 755.6242776007,23.716479999999997 749.2422776006999,23.30906 742.8543776007,22.904149999999998 736.4591776007001,22.50167 730.0558776007,22.10156 723.6470776007001,21.70399 717.2449776006999,21.30971 710.8506776007,20.918770000000002 704.4633776007,20.531100000000002 698.0817776007001,20.146600000000003 691.7043776007,19.7652 685.3301776006999,19.38681 678.9578776006999,19.01137 672.5864776007,18.63883 666.2152776007,18.26913 659.8434776007,17.90224 653.4705776006999,17.538140000000002 647.0959776006999,17.17679 640.7195776007001,16.818199999999997 634.3411776007,16.46236 627.9605776007,16.109280000000002 621.5780776007,15.758959999999998 615.1938776007,15.41143 608.8083776006999,15.06671 602.4219776007,14.72484 596.0354776007,14.385929999999998 589.6492776007,14.050139999999999 583.2640776007,13.717650000000003 576.8800776007,13.388640000000002 570.4977776007,13.06326 564.1172776007,12.741679999999999 557.7388776007,12.424040000000002 551.3624776007,12.110500000000002 544.9881776006999,11.801200000000001 538.6158776007,11.496280000000002 532.2452776007,11.19587 525.8761776007,10.900109999999998 519.5081776007,10.60913 513.1409776007,10.323050000000002 506.77387760069996,10.041989999999998 500.4062776007,9.76607 494.03757760070005,9.495330000000003 487.6674776007,9.229759999999999 481.2953776007,8.969409999999996 474.9211776007,8.714279999999995 468.5448776007,8.46441 462.1665776007,8.219839999999998 455.7864776007,7.980609999999999 449.4048776007,7.746760000000002 443.02247760070003,7.518349999999998 436.6398776007,7.295429999999996 430.2578776007,7.078050000000005 423.8775776007,6.866280000000003 417.4998776007,6.660180000000004 411.1262776007,6.459789999999998 404.7580776007,6.265189999999997 398.39677760070003,6.076520000000002 392.0435776007,5.894100000000002 385.69957760069997,5.7183199999999985 379.3651776007,5.549500000000002 373.04057760070003,5.387979999999999 366.7254776007,5.234070000000003 360.4192776007,5.088080000000005 354.12107760070006,4.950310000000002 347.8293776007,4.821039999999996 341.5424776007,4.700569999999999 335.2584776007,4.589200000000005 328.97487760070004,4.487220000000001 322.68887760070004,4.394930000000002 316.3973776007,4.312660000000001 310.0967776007,4.240750000000006 303.7830776007,4.179549999999999 297.4521776007,4.1289700000000025 291.10167760070004,4.088210000000004 284.7313776007,4.056379999999997 278.3438776007,4.032630000000005 271.94437760069997,4.01605 265.54087760069996,4.005719999999997 259.14407760070003,4.0006699999999995 252.76717760070002,4.0 246.42387760070002,4.004979999999996 240.1235776007,4.0189299999999974 233.8698776007,4.0451400000000035 227.6613776007,4.086710000000004 221.4915776007,4.146709999999999 215.34997760070002,4.228210000000004 209.2219776007,4.334429999999998 203.08847760070003,4.468800000000002 196.92817760070002,4.632650000000005 190.7251776007,4.824870000000004 184.4719776007,5.0441 178.1705776007,5.288630000000005 171.8334776007,5.556139999999999 165.4847776007,5.843510000000002 159.15927760070002,6.146799999999999 152.90077760070002,6.461539999999999 146.7525776007,6.7888499999999965 140.73907760070003,7.135419999999996 134.86377760070002,7.50797 129.1144776007,7.913209999999999 123.4681776007,8.358150000000002 117.89317760069999,8.850639999999999 112.3497776007,9.400100000000002 106.7890776007,10.018640000000005 101.14971760069999,10.720410000000001 95.37992760069999,11.5094 89.4824376007,12.378309999999999 83.5400576007,13.305330000000001 77.71616760069999,14.253129999999999 72.1644776007,15.200990000000001 66.9035176007,16.15916 61.8542476007,17.151840000000004 56.88630760069999,18.21575 51.81563760069999,19.40538 46.465577600699994,20.76488 40.88804760069999,22.27428 35.5306476007,23.790180000000003 30.9097776007,25.13239 27.1417576007,26.26058 24.0665676007,27.26157 21.4930876007,28.19945 19.2842276007,29.10848 17.348907600700002,30.003590000000003 15.6179776007,30.855890000000002 14.0523276007,31.62465 12.632669600700002,32.29237 11.359013600699999,32.893241 10.2249736007,33.471577 9.2158326007,34.056039 8.3168876007,34.665703 7.5163926007,35.309015 6.8077686007,35.982608 6.1877666007,36.680333 5.6538796007,37.394309 5.2033286007,38.113666 4.8314666007,38.830526 4.5329877007,39.54116 4.3032392007,40.24445 4.1388048007,40.940912 4.0377819007,41.6321603 4.0,42.32067935 4.0266345507,43.0094402 4.1172071007,43.699692 4.2720423007,44.391161 4.4934033007,45.082429 4.7853542007000005,45.770588000000004 5.1536926006999995,46.450639 5.6058006007,47.114561 6.150111600700001,47.750136 6.7919246007,48.347111 7.5312266007,48.903539 8.3667906007,49.419332 9.2994216007,49.896216 10.342419600700001,50.338459 11.5161596007,50.752972 12.8445246007,51.15146 14.3503376007,51.553207 16.0605176007,51.9669 18.0134676007,52.387513 20.2647976007,52.80927 22.8983376007,53.23046 26.0235576007,53.65323 29.765707600699997,54.08803 34.233137600700005,54.56266 39.446127600699995,55.0829 45.1931476007,55.616820000000004 51.095417600699996,56.12444 56.91195760069999,56.58693 62.6524376007,57.00817 68.4011676007,57.39417 74.21956760069999,57.7472 80.1455776007,58.06665 86.1913076007,58.351079999999996 92.34990760069999,58.60618 98.6083076007,58.84115 104.9484776007,59.06628 111.3471776007,59.2911 117.7517776007,59.51581 124.1431776007,59.738820000000004 130.53717760069998,59.959810000000004 136.9454776007,60.17825 143.35487760070004,60.39278 149.74147760070002,60.60173 156.1075776007,60.80431 162.4596776007,61.00018 168.80547760070002,61.18978 175.1511776007,61.37362 181.5011776007,61.55216 187.8584776007,61.72578 194.2243776007,61.89484 200.5986776007,62.059650000000005 206.9794776007,62.22045 213.3635776007,62.37726 219.7474776007,62.52963 226.1286776007,62.67706 232.50527760070003,62.81911 238.8762776007,62.95536 245.2410776007,63.0854 251.60037760070003,63.20882 257.9550776007,63.32528000000001 264.30707760070004,63.43462 270.6576776007,63.53694 277.0084776007,63.63235 283.3603776007,63.72095 289.71407760069997,63.80284 296.0700776007,63.8781 302.4284776007,63.94681 308.7891776007,64.00904 315.1516776007,64.06483 321.51567760070003,64.11419000000001 327.8807776007,64.15713 334.2466776007,64.19364 340.6130776007,64.22375 346.97967760070003,64.24746 353.3463776007,64.26479 359.7127776007,64.27574 366.0789776007,64.28032999999999 372.44467760070006,64.27858 378.8098776007,64.2705 385.1744776007,64.25611 391.5385776007,64.23541 397.9021776007,64.20842999999999 404.2653776007,64.17519 410.62817760070004,64.13569 416.9906776007,64.09 423.3531776007,64.03820999999999 429.7156776007,63.9804 436.0783776007,63.91664 442.4413776007,63.847 448.8047776007,63.77158 455.1687776007,63.69044 461.5334776007,63.603660000000005 467.89897760070005,63.51131 474.2653776007,63.41348000000001 480.6329776007,63.310230000000004 487.0017776007,63.20165 493.3719776007,63.0878 499.7435776007,62.96876 506.1169776007,62.84461 512.4919776007,62.71543 518.8689776007,62.58134 525.2478776007,62.44248 531.6287776007,62.29898 538.0116776007001,62.15096 544.3965776007,61.99856 550.7832776007001,61.84191 557.1715776007001,61.68114 563.5615776006999,61.51639 569.9527776007,61.347809999999996 576.3450776007,61.175529999999995 582.7380776007,60.99969 589.1315776007001,60.82043 595.5250776007,60.637910000000005 601.9181776007,60.45227 608.3103776007,60.26365 614.7012776007,60.07215 621.0903776007,59.87777 627.4775776007,59.680530000000005 633.8626776007,59.48046 640.2457776007001,59.27756 646.6268776006999,59.07183 653.0061776007001,58.86329 659.3841776007,58.651920000000004 665.7612776006999,58.43772 672.1381776007,58.22069 678.5155776007,58.00079 684.8941776007,57.77801 691.2751776007001,57.55233 697.6595776007,57.32369 704.0485776007,57.09207 710.4435776007,56.857420000000005 716.8457776007001,56.61966 723.2559776007,56.37876 729.6725776006999,56.13476 736.0829776007,55.888130000000004 742.4852776007,55.63894 748.8804776007,55.38715 755.2697776007001,55.13272 761.6549776007,54.87556 768.0383776007,54.6156 774.4224776007,54.35271 780.8103776007,54.08676 787.2054776007,53.81758 793.6116776007,53.545 800.0233776007,53.26922 806.4159776007,52.99132 812.7833776007,52.71159 819.1218776007,52.43025 825.4297776007,52.147449 831.7066776007,51.86326 837.9538776007,51.577698 844.1738776006999,51.290707 850.3703776007001,51.002169 856.5485776007,50.711898000000005 862.7145776007,50.419644 868.8758776007,50.125089 875.0412776007,49.827839 881.2207776007,49.527419 887.4260776007,49.223258 893.6707776007,48.914675 899.9707776007,48.600854 906.3436776007001,48.280871 912.7060776007,47.95884 918.9762776007001,47.638874 925.1702776006999,47.320156 931.3189776007,47.001082 937.4665776007,46.679291 943.6732776007,46.351506 950.0108776007,46.013689 956.2408776007001,45.678439 962.1537776007,45.357301 967.7137776007,45.052694 972.9166776007,44.765346 977.7770776007001,44.494891 982.3196776007,44.240359 986.5726776007,44.00051 990.5643776007,43.774036 994.3214776007001,43.559672 997.8681776007,43.356245200000004 1001.2258776007,43.162697800000004 1003.9996776007,43.00211" stroke="black" stroke-width="2.0" /></svg>