<?xml version="1.0" encoding="utf-8" ?>
<svg baseProfile="full" height="72.68262" version="1.1" width="1012.002265129" xmlns="http://www.w3.org/2000/svg" xmlns:ev="http://www.w3.org/2001/xml-events" xmlns:xlink="http://www.w3.org/1999/xlink"><defs /><polygon fill="none" points="1004.002265129,37.64358 1001.050165129,37.4642417 997.1927651289999,37.2295209 992.7306651289999,36.9574562 987.565265129,36.641786 981.755965129,36.285829 975.811065129,35.92097 969.841065129,35.554924 963.841965129,35.188298 957.870965129,34.824262000000004 951.8752651289999,34.458856 945.8465651289999,34.09082 939.826365129,33.722532 933.808365129,33.353970000000004 927.7815651289999,32.984863000000004 921.746365129,32.615632 915.715965129,32.247256 909.687465129,31.879445 903.6572651289999,31.511843 897.623465129,31.144198 891.586365129,30.776386 885.550265129,30.408577 879.515265129,30.040734 873.480365129,29.672749 867.444665129,29.304534 861.4078651289999,28.936021 855.3701651289999,28.567186 849.333365129,28.198104 843.2972651289999,27.828809 837.261665129,27.459359999999997 831.2261651289999,27.0898 825.190465129,26.72021 819.154565129,26.35064 813.118265129,25.98117 807.0815651290001,25.61186 801.044465129,25.2428 795.0070651289999,24.87401 788.969365129,24.50545 782.931565129,24.13708 776.8936651289999,23.76886 770.8556651289999,23.40076 764.817565129,23.03273 758.7795651289999,22.664740000000002 752.741665129,22.29674 746.7036651289999,21.928710000000002 740.665765129,21.56061 734.6278651289999,21.192449999999997 728.5899651289999,20.82421 722.552165129,20.45588 716.514365129,20.08745 710.4766651289999,19.71891 704.4389651289999,19.35025 698.401365129,18.981450000000002 692.363765129,18.6125 686.326365129,18.243389999999998 680.288965129,17.87409 674.251665129,17.5046 668.214465129,17.134890000000002 662.177365129,16.76494 656.140165129,16.39474 650.103065129,16.02429 644.066065129,15.653750000000002 638.028965129,15.28341 631.9919651289999,14.91357 625.955365129,14.544519999999999 619.919265129,14.176580000000001 613.884065129,13.81004 607.850065129,13.445229999999999 601.817765129,13.082449999999998 595.787665129,12.722169999999998 589.7600651289999,12.36505 583.735065129,12.01173 577.7125651289999,11.662849999999999 571.692265129,11.319040000000001 565.6735651289999,10.980919999999998 559.655765129,10.649079999999998 553.6379651289999,10.32412 547.6189651289999,10.006419999999999 541.597865129,9.695710000000002 535.5739651289999,9.39161 529.547265129,9.09375 523.517965129,8.801770000000001 517.486765129,8.515360000000001 511.45466512900003,8.234200000000001 505.423365129,7.957989999999999 499.39476512900006,7.6865999999999985 493.37066512900003,7.421149999999997 487.352565129,7.163329999999998 481.341065129,6.9148 475.336165129,6.6771899999999995 469.337065129,6.4520599999999995 463.342465129,6.240979999999997 457.350565129,6.045480000000001 451.358465129,5.86703 445.36336512900004,5.705279999999998 439.362765129,5.557749999999999 433.354965129,5.421890000000005 427.33936512900004,5.29515 421.31586512900003,5.174969999999995 415.285565129,5.058799999999998 409.250065129,4.94408 403.21226512900006,4.8282799999999995 397.17546512900003,4.710169999999998 391.14306512900004,4.592190000000002 385.11726512900003,4.477319999999999 379.09956512900004,4.368519999999997 373.090565129,4.2686999999999955 367.08996512900006,4.18074 361.096665129,4.1074800000000025 355.10866512900003,4.051740000000002 349.12326512900006,4.015969999999996 343.137465129,4.0 337.148765129,4.002560000000003 331.155665129,4.022389999999994 325.15686512900004,4.058250000000001 319.152265129,4.1089000000000055 313.14206512900006,4.173069999999996 307.127265129,4.2494900000000015 301.10966512900006,4.336889999999997 295.091365129,4.434930000000001 289.07446512900003,4.544249999999998 283.060365129,4.665520000000001 277.04976512900004,4.799430000000001 271.043265129,4.946660000000001 265.040565129,5.107889999999998 259.040965129,5.283849999999994 253.04326512900002,5.4752499999999955 247.045965129,5.682410000000004 241.047265129,5.9045200000000015 235.045965129,6.140610000000002 229.04126512899998,6.389669999999999 223.03266512899998,6.65071 217.02036512899997,6.922689999999999 211.00456512899999,7.20458 204.986365129,7.495289999999997 198.96686512899998,7.793950000000002 192.94786512899998,8.101220000000001 186.931065129,8.418409999999998 180.918065129,8.746780000000001 174.910865129,9.087589999999999 168.91106512899998,9.44209 162.920565129,9.81149 156.940865129,10.19724 150.97306512900002,10.60145 145.01666512900002,11.026390000000003 139.069965129,11.474390000000003 133.129965129,11.947940000000003 127.19226512899999,12.449639999999999 121.251465129,12.979850000000003 115.302565129,13.53499 109.34206512899999,14.110970000000002 103.367965129,14.70353 97.379745129,15.30829 91.38095512899999,15.927410000000002 85.39025512899998,16.57438 79.446275129,17.261200000000002 73.603615129,17.995910000000002 67.919205129,18.78086 62.389785128999996,19.61839 56.916265129,20.52602 51.300845129,21.54313 45.43351512900001,22.62457 39.791985129,23.53436 35.269245129,24.14966 31.853705129,24.84072 29.122885129,25.807769999999998 26.823795129,27.03372 24.691745129,28.16378 22.552425129,28.899821 20.382465129000003,29.284809000000003 18.200605129,29.504962 15.993235129,29.721102000000002 13.702835129,30.125028999999998 11.171041129,31.01657 8.819851129,32.273142 7.262459129,33.294646 6.215090129,34.104638 5.452542129,34.804056 4.889829429,35.431014000000005 4.480660429,36.010303 4.201478329,36.557393 4.041642889,37.0833622 4.0,37.59736377 4.081635469,38.1083243 4.285491529,38.6256045 4.615053029,39.158841 5.084662129,39.719525 5.724635129,40.323793 6.5956341290000005,40.998227 7.794783129,41.773401 9.704959129,42.795616 12.328658128999999,43.836636 14.890845128999999,44.402394 17.298315129000002,44.654118 19.669485128999998,44.844774 22.038795129,45.157963 24.393175129000003,45.791236 26.727235129,46.822127 29.189255129,47.91418 32.023605129,48.69553 35.470175129000005,49.1778 39.877725129,49.58156 45.235175129,50.28012 50.850785129,51.16272 56.250155129,51.95487 61.606135129,52.59397 67.134365129,53.1429 72.950865129,53.65407 78.91749512899999,54.161609999999996 84.792665129,54.66242 90.679265129,55.16784 96.644775129,55.686350000000004 102.627815129,56.21489 108.54876512899999,56.741420000000005 114.43836512899999,57.258480000000006 120.320165129,57.758070000000004 126.209965129,58.23146 132.116765129,58.66944 138.043165129,59.069810000000004 143.989565129,59.43732 149.955165129,59.77704 155.93846512899998,60.0941 161.93696512900001,60.39367 167.947165129,60.680769999999995 173.965265129,60.95752 179.987965129,61.224199999999996 186.01266512899997,61.4811 192.037365129,61.72855 198.06076512899998,61.966899999999995 204.081965129,62.19657 210.101165129,62.41782 216.118465129,62.630390000000006 222.134165129,62.83385 228.148465129,63.02781 234.16186512899998,63.21185 240.174465129,63.385549999999995 246.18666512899998,63.548500000000004 252.19876512899998,63.700289999999995 258.211065129,63.84053 264.223765129,63.9692 270.237165129,64.08651 276.251365129,64.19266999999999 282.26656512900007,64.28787 288.282665129,64.37231 294.29976512900004,64.4462 300.31766512900003,64.50972 306.336265129,64.56308 312.35546512900004,64.60644 318.374865129,64.63994 324.39466512900003,64.66372 330.41456512900004,64.6779 336.434765129,64.68262 342.45536512900003,64.67802 348.476465129,64.66422 354.498265129,64.64135999999999 360.52116512900005,64.6096 366.54526512900003,64.56922 372.57076512900005,64.52051 378.59756512900003,64.46379 384.625665129,64.39935 390.654665129,64.32749 396.684265129,64.24852 402.713765129,64.16275999999999 408.742765129,64.07047 414.77026512900005,63.971540000000005 420.79616512900003,63.86567 426.82006512900006,63.75257 432.842065129,63.63194 438.862565129,63.50347 444.882065129,63.366839999999996 450.90146512900003,63.22174 456.921865129,63.067840000000004 462.94446512900004,62.90542 468.97026512900004,62.73531 474.999765129,62.55843 481.033165129,62.375659999999996 487.070265129,62.18795 493.110365129,61.99623 499.152265129,61.80146 505.194465129,61.60462 511.2350651290001,61.40608 517.2721651289999,61.204800000000006 523.304665129,60.99953 529.331765129,60.78902 535.3533651289999,60.572 541.3697651289999,60.3472 547.381765129,60.113330000000005 553.3909651289999,59.86907 559.399065129,59.6134 565.4082651289999,59.34711 571.420265129,59.07158 577.4363651289999,58.788219999999995 583.457465129,58.498459999999994 589.483965129,58.20376 595.515865129,57.9056 601.552565129,57.605500000000006 607.593265129,57.304950000000005 613.633465129,57.00478 619.672165129,56.705 625.710265129,56.4055 631.748465129,56.106170000000006 637.787465129,55.80693 643.827365129,55.5077 649.8683651289999,55.208420000000004 655.9099651289999,54.909040000000005 661.950965129,54.609579999999994 667.9915651289999,54.310069999999996 674.032065129,54.01048 680.0726651289999,53.710840000000005 686.1133651289999,53.41115 692.154365129,53.11142 698.1957651289999,52.81167 704.2374651289999,52.51191 710.279265129,52.21217 716.321065129,51.912459999999996 722.362665129,51.61277 728.404365129,51.3131 734.446065129,51.01344 740.4878651289999,50.7138 746.5296651289999,50.41416 752.571565129,50.11453 758.6133651289999,49.81491 764.655265129,49.51529 770.697065129,49.21567 776.7388651289999,48.91604 782.780565129,48.616389999999996 788.8222651289999,48.31671 794.8640651289999,48.01699 800.9058651290001,47.71723 806.9475651289999,47.417418 812.9889651289999,47.117586 819.0300651289999,46.817765 825.0707651289999,46.517984999999996 831.111265129,46.218277 837.1515651289999,45.918666 843.1918651289999,45.619177 849.232365129,45.319829 855.273465129,45.020641 861.315065129,44.721609 867.356065129,44.422724 873.3960651289999,44.12391 879.435665129,43.825067000000004 885.4754651289999,43.526079 891.516265129,43.226818 897.556765129,42.927277000000004 903.5939651289999,42.627616 909.628165129,42.327899 915.661165129,42.028112 921.6966651289999,41.72816 927.735565129,41.428078 933.764465129,41.12865 939.7845651289999,40.829967 945.807065129,40.531627 951.839665129,40.233376 957.839465129,39.937018 963.8136651289999,39.641392 969.815165129,39.343065 975.7908651289999,39.044395 981.740865129,38.746585 987.553765129,38.4565267 992.722765129,38.1998034 997.1881651289999,37.9789497 1001.0482651289999,37.7887236 1004.002265129,37.64358" stroke="black" stroke-width="2.0" /></svg>