<?xml version="1.0" encoding="utf-8" ?>
<svg baseProfile="full" height="157.46292" version="1.1" width="1012.05847482" xmlns="http://www.w3.org/2000/svg" xmlns:ev="http://www.w3.org/2001/xml-events" xmlns:xlink="http://www.w3.org/1999/xlink"><defs /><polygon fill="none" points="1004.05847482,106.2098 1000.74177482,105.431485 996.7301748200001,104.483615 992.49937482,103.476269 988.02867482,102.403203 983.29657482,101.257773 978.28247482,100.033223 972.96827482,98.723239 967.34297482,97.32286 961.40687482,95.82983 955.17857482,94.2464 948.7003748200001,92.5815 942.03537482,90.85311 935.25357482,89.08369 928.42157482,87.29570000000001 921.59297482,85.50874 914.80307482,83.73756 908.0674748199999,81.99157 901.3834748200001,80.27508 894.73597482,78.58708 888.10907482,76.92401 881.48957482,75.28301 874.8670748200001,73.662 868.2334748200001,72.05964 861.58307482,70.47524 854.9125748199999,68.90871000000001 848.2211748200001,67.35975 841.51197482,65.82363000000001 834.7916748199999,64.29443 828.07067482,62.76693 821.36267482,61.23671 814.68447482,59.700160000000004 808.05547482,58.15459 801.49677482,56.59852 795.02687482,55.04177 788.65597482,53.506530000000005 782.38777482,52.01264 776.22017482,50.57676000000001 770.14697482,49.21277 764.15897482,47.93228 758.24407482,46.74522 752.38847482,45.6602 746.57987482,44.67211 740.8113748200001,43.75386 735.07847482,42.87809999999999 729.3779748200001,42.01911 723.70837482,41.152330000000006 718.06947482,40.25408 712.46197482,39.30136 706.8878748200001,38.27171000000001 701.35017482,37.14412 695.84767482,35.91942 690.37327482,34.61997000000001 684.91777482,33.268159999999995 679.46947482,31.88542000000001 674.01477482,30.492410000000007 668.53747482,29.10936000000001 663.01857482,27.75645 657.43527482,26.454350000000005 651.76037482,25.224630000000005 645.96517482,24.075050000000005 640.02557482,22.994420000000005 633.92167482,21.970839999999995 627.63917482,20.992440000000002 621.17267482,20.046999999999997 614.53077482,19.12173 607.7402748200001,18.203400000000002 600.8516748200001,17.279510000000002 593.93087482,16.35193000000001 587.0348748199999,15.436490000000006 580.20237482,14.546970000000002 573.45287482,13.6939 566.78907482,12.884830000000008 560.19927482,12.125020000000006 553.65997482,11.418210000000002 547.13807482,10.765110000000007 540.60147482,10.159440000000004 534.02567482,9.594830000000002 527.39367482,9.066010000000006 520.69657482,8.5685 513.93407482,8.098399999999998 507.11647482,7.652300000000011 500.26507482,7.227000000000004 493.40807482,6.823499999999996 486.56787482,6.445399999999992 479.75807482,6.0959 472.98307482,5.777000000000001 466.23877482,5.490700000000004 459.51327482,5.238399999999999 452.78687482000004,5.021699999999996 446.03327482000003,4.840000000000003 439.22887482000004,4.688900000000004 432.35897482,4.563100000000006 425.41917481999997,4.457800000000006 418.41677482,4.367900000000006 411.37247482000004,4.288000000000011 404.32107482000004,4.212600000000009 397.30927482000004,4.138499999999993 390.37927482000003,4.0726999999999975 383.55287482,4.023899999999998 376.83347482000005,4.0 370.20887482,4.008200000000002 363.65497482,4.055099999999996 357.13667482,4.147800000000004 350.60787482,4.2941 344.01607482000003,4.495900000000006 337.32077482000005,4.749200000000002 330.50177482,5.04910000000001 323.56497482000003,5.389200000000002 316.54917482,5.7601999999999975 309.53057482,6.149500000000003 302.61637482,6.542000000000002 295.91767482,6.935600000000008 289.48467482,7.356200000000001 283.29537482,7.830500000000001 277.28567482,8.384 271.37047482,9.018540000000002 265.47967482,9.69574999999999 259.57377482,10.372309999999999 253.64197482,11.001310000000004 247.70137481999998,11.551930000000013 241.77417481999998,12.05686 235.85877481999998,12.56344 229.92697482,13.121120000000005 223.92297481999998,13.777470000000008 217.77957482,14.540419999999997 211.45877482,15.397540000000006 204.97447482,16.326180000000008 198.41167482,17.293540000000007 191.88927481999997,18.288420000000002 185.48157482,19.315020000000004 179.20807481999998,20.38342 173.04547481999998,21.507130000000004 166.95297481999998,22.693939999999998 160.89047481999998,23.950909999999993 154.81797482,25.287179999999992 148.69357481999998,26.713139999999996 142.49017481999996,28.22980000000001 136.22877481999998,29.82311 129.99147482,31.461129999999997 123.91007482,33.101380000000006 118.09507482000001,34.73746 112.56517482,36.3918 107.27617482,38.09796 102.15188482,39.89864 97.09828482,41.829260000000005 92.03094482,43.90365 86.88704482,46.13154 81.62398482,48.516130000000004 76.22647481999999,51.04751 70.72308482,53.711189999999995 65.21100482,56.47461 59.85221482,59.26482 54.81911482,61.98882 50.230004820000005,64.56996000000001 46.114184820000006,66.98452 42.412504819999995,69.25871000000001 39.04584482,71.43148000000001 35.94314482,73.54111 33.04500482,75.62395000000001 30.30128482,77.7166 27.66515482,79.86051 25.08061482,82.09197 22.55514482,84.37051 20.18305482,86.56730999999999 18.05278482,88.56091 16.18237482,90.3112 14.550264820000002,91.8412 13.13440682,93.19265 11.89983582,94.40678 10.81497482,95.51511 9.855246820000001,96.54049 9.00205682,97.4995 8.24130082,98.40449 7.562184820000001,99.264831 6.95635482,100.087831 6.41729682,100.87930800000001 5.93990382,101.643994 5.52017682,102.385809 5.15500882,103.108068 4.84203342,103.813621 4.57951552,104.504969 4.36627622,105.184346 4.20164672,105.85378800000001 4.08544302,106.515191 4.01796238,107.17036 4.0,107.8210548 4.03288851,108.4690367 4.11838636,109.1160904 4.25653212,109.763717 4.44628732,110.413124 4.687139520000001,111.065447 4.97910042,111.721779 5.32269082,112.38319 5.71894782,113.050746 6.16944782,113.725523 6.67635982,114.408617 7.24251082,115.101151 7.87148882,115.804274 8.56777282,116.519149 9.336902819999999,117.246924 10.18569282,117.988655 11.12247382,118.74517 12.157343820000001,119.51678 13.30230482,120.30276 14.57098482,121.10024 15.97711482,121.90215 17.53083482,122.69425 19.24668482,123.46546000000001 21.145914819999998,124.21349000000001 23.246664820000003,124.94169 25.560274820000004,125.66506 28.09126482,126.41884 30.84707482,127.26522 33.84545482,128.24249 37.10121482,129.35307 40.61972482,130.58850999999999 44.39411482,131.92676 48.40631482,133.33093 52.63409482,134.7517 57.06371482,136.1351 61.69450482,137.45612 66.52823482,138.7106 71.56762482,139.89674 76.81829482,141.0153 82.29138482,142.07003 87.99824482,143.06668 93.92850482,144.01009 100.03291481999999,144.90358 106.21307482,145.74889 112.34377482000001,146.53216 118.35377482,147.22574 124.24737482,147.81301 130.08707482,148.28387 135.97797482,148.63882999999998 142.02227481999998,148.89941 148.28767481999998,149.0868 154.78917481999997,149.22317 161.46487481999998,149.32769 168.22237482,149.4022 175.00067481999997,149.44684999999998 181.78407482,149.46292 188.59507481999998,149.45217 195.45767481999997,149.41643 202.38097482,149.35746 209.35757482,149.27724 216.36147481999998,149.17824000000002 223.34767481999998,149.06357 230.25507481999998,148.93703 237.01797482,148.79561 243.60227482,148.62034 250.01827482,148.39212 256.30767482,148.09344 262.53117482,147.7285 268.74587482000004,147.33208000000002 274.99767482,146.94089 281.32397482,146.59316 287.75317482,146.30496 294.30287482000006,146.05571 300.97977482,145.82002 307.77547482000006,145.57091 314.66867482000004,145.2964 321.63577482,144.99944 328.65477482,144.68392 335.70697482,144.35392000000002 342.77737482,144.01357000000002 349.85567482000005,143.66694 356.93627482000005,143.31784 364.01757482,142.9682 371.09907482,142.61768 378.17957481999997,142.26582 385.25797482,141.91217 392.33237482000004,141.55632 399.40077482,141.19785 406.46097482,140.8364 413.51027482,140.47283 420.54667481999996,140.10976 427.56837482000003,139.74989 434.57417482,139.3959 441.56357482,139.05037 448.53617482,138.71584000000001 455.49227482000003,138.39477 462.43237482,138.08723 469.35667482,137.78818 476.26557482,137.49199 483.15907482,137.19309 490.03737482,136.88602 496.90027482,136.56535 503.74777482,136.22576 510.57977481999995,135.86386 517.3969748200001,135.48487 524.20127482,135.09634 530.9951748200001,134.70568 537.78217482,134.3202 544.56667482,133.94709 551.3539748200001,133.59353 558.15007482,133.26624 564.9612748200001,132.96485 571.79257482,132.68356 578.6474748200001,132.41648 585.52817482,132.15766 592.43557482,131.90109 599.36877482,131.6407 606.32527482,131.37035 613.3013748200001,131.08649 620.29297482,130.78967 627.29657482,130.48083 634.3085748200001,130.16092 641.3258748200001,129.83092 648.34547482,129.49182000000002 655.36487482,129.14461 662.38187482,128.79083 669.39457482,128.43337 676.40137482,128.07527 683.4007748199999,127.71956 690.39147482,127.36924 697.37247482,127.02727 704.3427748199999,126.69656 711.30187482,126.37863 718.24937482,126.07019 725.18627482,125.76686000000001 732.11447482,125.46427 739.03737482,125.15802 745.9590748200001,124.84367 752.88517482,124.51671999999999 759.8221748200001,124.17316 766.77667482,123.81308 773.75337482,123.43837 780.7542748200001,123.05106 787.7788748199999,122.6534 794.82367482,122.24781 801.8825748200001,121.83697000000001 808.94637482,121.42382 816.0043748200001,121.01208 823.04687482,120.60581 830.06567482,120.20893 837.05407482,119.82516 844.00687482,119.45798 850.92057482,119.11067 857.79307482,118.78603 864.62367482,118.48132700000001 871.4150748200001,118.189137 878.17347482,117.901978 884.90877482,117.612439 891.6338748200001,117.313081 898.36527482,116.996274 905.12337482,116.653971 911.93167482,116.28097 918.8055748200001,115.880943 925.74197482,115.46021400000001 932.71597482,115.026869 939.6796748200001,114.59081 946.56517482,114.163201 953.2932748200001,113.755286 959.78627482,113.376226 965.98477482,113.029 971.85817482,112.713188 977.39907482,112.427023 982.61617482,112.168024 987.52717482,111.933468 992.15447482,111.72067 996.5215748200001,111.527136 1000.6516748199999,111.350627 1004.05847482,111.2098" stroke="black" stroke-width="2.0" /></svg>