<?xml version="1.0" encoding="utf-8" ?>
<svg baseProfile="full" height="250.0" version="1.1" width="1000.0" xmlns="http://www.w3.org/2000/svg" xmlns:ev="http://www.w3.org/2001/xml-events" xmlns:xlink="http://www.w3.org/1999/xlink"><defs /><polygon fill="none" points="1000.0,129.42 950.0,143.49 900.0,156.76 800.0,181.0 700.0,202.33999999999997 600.0,220.78 500.0,235.82 400.0,246.06 300.0,250.0 200.0,244.24 150.0,235.91 100.0,221.98000000000002 75.0,211.91 50.0,198.35 25.0,178.79 12.5,163.75 0.0,124.22 12.5,84.75 25.0,69.78 50.0,50.349999999999994 75.0,36.91 100.0,26.980000000000004 150.0,13.310000000000002 200.0,5.239999999999995 300.0,0.0 400.0,4.459999999999994 500.0,15.219999999999999 600.0,30.78 700.0,49.739999999999995 800.0,71.6 900.0,96.36 950.0,109.89 1000.0,124.22" stroke="black" stroke-width="0.1px" /></svg>